<svg width="16" height="16" viewBox="0 0 16 16" fill="none" xmlns="http://www.w3.org/2000/svg">
<rect width="16" height="16" rx="8" fill="white"/>
<path d="M7.98144 13C6.95876 13 6.20412 12.557 5.71753 11.671C5.23918 10.7849 5 9.56344 5 8.00645C5 6.95699 5.09897 6.05806 5.29691 5.30968C5.49485 4.56129 5.81237 3.98925 6.24948 3.59355C6.69485 3.19785 7.27216 3 7.98144 3C9.01237 3 9.77113 3.43871 10.2577 4.31613C10.7526 5.18495 11 6.41505 11 8.00645C11 9.04731 10.8969 9.94194 10.6907 10.6903C10.4928 11.4301 10.1711 12.0022 9.72577 12.4065C9.28866 12.8022 8.70722 13 7.98144 13ZM6.10103 7.42581H9.8866C9.84536 6.25591 9.67629 5.3871 9.37938 4.81936C9.08247 4.24301 8.61649 3.95484 7.98144 3.95484C7.35464 3.95484 6.89278 4.24301 6.59588 4.81936C6.30722 5.3871 6.14227 6.25591 6.10103 7.42581ZM7.98144 12.0581C8.62474 12.0581 9.09897 11.7656 9.40412 11.1806C9.70928 10.5871 9.87423 9.62796 9.89897 8.30323H6.10103C6.11753 9.61935 6.2701 10.5742 6.55876 11.1677C6.85567 11.7613 7.3299 12.0581 7.98144 12.0581Z" fill="#410EAD"/>
</svg>
