<svg width="44" height="50" viewBox="0 0 44 50" fill="none" xmlns="http://www.w3.org/2000/svg">
<path d="M15.7319 0H28.2323C28.2609 0.0337882 28.2923 0.0651222 28.3261 0.0936721C28.6577 0.213918 28.935 0.449416 29.1071 0.757105C29.2793 1.06479 29.3348 1.42411 29.2636 1.76936C29.1843 2.12077 28.9802 2.43152 28.689 2.64397C28.3978 2.85641 28.0394 2.95614 27.6802 2.92465C27.2531 2.92465 26.8365 2.92465 26.399 2.92465V6.2448L32.4096 8.39925C32.7742 8.02456 33.2221 7.53539 33.7013 7.06703C34.1636 6.57129 34.737 6.1921 35.3744 5.96053C36.0118 5.72896 36.695 5.6516 37.3681 5.7348C38.1515 5.81414 38.8987 6.10425 39.5301 6.57423C40.1616 7.04421 40.6537 7.67648 40.954 8.40373C41.2544 9.13098 41.3517 9.92599 41.2357 10.7041C41.1197 11.4823 40.7947 12.2144 40.2952 12.8226C39.9306 13.2702 39.514 13.6761 39.0973 14.1236L39.6494 14.873C41.529 17.3119 42.8471 20.1351 43.5098 23.1412C44.1724 26.1474 44.1632 29.2626 43.4828 32.2648C41.3994 41.4863 35.6701 47.2523 26.4719 49.5212C25.4302 49.771 24.3885 49.8439 23.3468 50H20.6071L20.18 49.9167C18.8466 49.6773 17.4716 49.5525 16.159 49.1882C11.6814 47.9553 7.70949 45.3375 4.81264 41.7103C1.91579 38.083 0.242797 33.6325 0.0334919 28.9967C-0.213544 24.5812 0.910662 20.1974 3.25235 16.4446C3.75237 15.6536 4.29405 14.8834 4.86698 14.0612C4.59614 13.7906 4.29405 13.52 4.01279 13.2286C3.55288 12.7889 3.19477 12.2541 2.96355 11.6616C2.73234 11.0691 2.63362 10.4333 2.67431 9.79866C2.715 9.16402 2.89412 8.54596 3.19912 7.98778C3.50411 7.42961 3.92759 6.94484 4.43989 6.56744C5.3048 5.92763 6.37375 5.62532 7.44597 5.71731C8.5182 5.8093 9.51992 6.28926 10.263 7.06703C10.7318 7.53539 11.1901 8.02456 11.5443 8.39925L17.5757 6.2448V2.92465C17.0757 2.92465 16.5861 2.92465 16.1069 2.92465C15.7785 2.91584 15.4624 2.79723 15.2094 2.58779C14.9563 2.37835 14.7809 2.09018 14.7111 1.76936C14.646 1.45494 14.6874 1.12782 14.8288 0.839513C14.9703 0.551211 15.2037 0.318113 15.4923 0.176936L15.7319 0ZM21.9821 8.87802C18.2012 8.86773 14.5023 9.97918 11.3543 12.0715C8.20629 14.1639 5.75084 17.1429 4.29918 20.631C2.84752 24.1192 2.465 27.9594 3.2001 31.665C3.9352 35.3705 5.75482 38.7747 8.42835 41.4459C11.1019 44.1171 14.509 45.9351 18.2177 46.6696C21.9265 47.4041 25.7701 47.0219 29.2612 45.5715C32.7524 44.1211 35.734 41.6678 37.8282 38.5225C39.9223 35.3772 41.0347 31.6815 41.0244 27.9038C41.0079 22.8611 38.995 18.0298 35.4252 14.4651C31.8554 10.9003 27.0188 8.89174 21.9717 8.87802H21.9821ZM23.4197 5.96378V2.95587H20.5342V5.96378H23.4197ZM6.87747 11.9172L9.07546 10.0958C8.71047 9.67746 8.32088 9.28126 7.90875 8.90924C7.62983 8.70888 7.2887 8.61413 6.94631 8.64191C6.60391 8.66969 6.28255 8.8182 6.03964 9.06089C5.79673 9.30359 5.64809 9.62468 5.62029 9.96678C5.59248 10.3089 5.68732 10.6497 5.88785 10.9284C6.19657 11.2785 6.5271 11.6087 6.87747 11.9172ZM37.0868 11.9172C37.4558 11.6261 37.8038 11.3097 38.1285 10.97C38.3388 10.6977 38.4451 10.3594 38.4284 10.0159C38.4117 9.67233 38.273 9.34597 38.0372 9.09535C37.8014 8.84473 37.4839 8.68624 37.1418 8.64832C36.7996 8.6104 36.4551 8.69553 36.1701 8.88843C35.7118 9.2423 35.3263 9.67943 34.8992 10.0749L37.0868 11.9172Z" fill="#410EAD"/>
<path d="M21.9716 44.0031C18.7847 44.0031 15.6695 43.0591 13.0196 41.2903C10.3697 39.5215 8.30416 37.0075 7.08414 34.066C5.86412 31.1245 5.54438 27.8876 6.16534 24.7646C6.7863 21.6416 8.32008 18.7726 10.5728 16.5204C12.8255 14.2682 15.6959 12.7339 18.8213 12.1114C21.9466 11.489 25.1865 11.8064 28.1313 13.0234C31.0762 14.2405 33.5937 16.3026 35.3657 18.9491C37.1377 21.5955 38.0846 24.7075 38.0867 27.8915C38.0757 32.1594 36.3747 36.2495 33.3552 39.2683C30.3357 42.2872 26.2431 43.9894 21.9716 44.0031ZM35.0553 26.4448C34.7254 23.4814 33.3954 20.7185 31.2843 18.6111C29.1731 16.5037 26.4067 15.1773 23.4404 14.8503V16.016C23.4575 16.2184 23.4323 16.4222 23.3666 16.6144C23.3008 16.8066 23.1958 16.983 23.0582 17.1326C22.9206 17.2821 22.7535 17.4015 22.5673 17.4832C22.3812 17.5649 22.1801 17.607 21.9768 17.607C21.7735 17.607 21.5724 17.5649 21.3862 17.4832C21.2001 17.4015 21.0329 17.2821 20.8954 17.1326C20.7578 16.983 20.6528 16.8066 20.587 16.6144C20.5212 16.4222 20.4961 16.2184 20.5132 16.016V14.8399C17.5488 15.1685 14.7853 16.4975 12.6792 18.6075C10.5731 20.7175 9.25032 23.4822 8.92947 26.4448H10.1899C10.3925 26.4277 10.5964 26.4529 10.7888 26.5186C10.9812 26.5843 11.1578 26.6892 11.3075 26.8267C11.4571 26.9641 11.5766 27.1311 11.6584 27.3171C11.7401 27.5031 11.7823 27.704 11.7823 27.9072C11.7823 28.1103 11.7401 28.3112 11.6584 28.4972C11.5766 28.6832 11.4571 28.8502 11.3075 28.9876C11.1578 29.1251 10.9812 29.23 10.7888 29.2957C10.5964 29.3615 10.3925 29.3866 10.1899 29.3695H8.91905C9.23631 32.3312 10.5603 35.0946 12.6702 37.1989C14.7801 39.3032 17.5484 40.6211 20.5132 40.9328C20.5132 40.5268 20.5132 40.1209 20.5132 39.715C20.4961 39.5126 20.5212 39.3089 20.587 39.1167C20.6528 38.9245 20.7578 38.748 20.8954 38.5985C21.0329 38.4489 21.2001 38.3295 21.3862 38.2479C21.5724 38.1662 21.7735 38.124 21.9768 38.124C22.1801 38.124 22.3812 38.1662 22.5673 38.2479C22.7535 38.3295 22.9206 38.4489 23.0582 38.5985C23.1958 38.748 23.3008 38.9245 23.3666 39.1167C23.4323 39.3089 23.4575 39.5126 23.4404 39.715C23.4404 40.1313 23.4404 40.5581 23.4404 40.9744C26.4075 40.6452 29.1742 39.3167 31.2852 37.2075C33.3962 35.0983 34.7258 32.3341 35.0553 29.3695H33.7428C33.5402 29.3866 33.3363 29.3615 33.1439 29.2957C32.9516 29.23 32.7749 29.1251 32.6253 28.9876C32.4756 28.8502 32.3561 28.6832 32.2744 28.4972C32.1926 28.3112 32.1504 28.1103 32.1504 27.9072C32.1504 27.704 32.1926 27.5031 32.2744 27.3171C32.3561 27.1311 32.4756 26.9641 32.6253 26.8267C32.7749 26.6892 32.9516 26.5843 33.1439 26.5186C33.3363 26.4529 33.5402 26.4277 33.7428 26.4448H35.0553Z" fill="#410EAD"/>
<path d="M23.4405 26.4475H27.3365C27.5448 26.4475 27.7532 26.4475 27.9615 26.4475C28.3209 26.4784 28.6561 26.6412 28.9024 26.9046C29.1486 27.1679 29.2885 27.5131 29.2949 27.8734C29.3123 28.2405 29.1862 28.5999 28.9432 28.8757C28.7002 29.1515 28.3593 29.3221 27.9928 29.3514C25.958 29.3514 23.9267 29.3514 21.8988 29.3514C21.5414 29.3406 21.2023 29.191 20.9533 28.9346C20.7044 28.6781 20.5653 28.3348 20.5654 27.9775C20.5654 25.9792 20.5654 23.9809 20.5654 21.9825C20.5963 21.6187 20.7628 21.2797 21.0319 21.0326C21.301 20.7855 21.6531 20.6484 22.0186 20.6484C22.3841 20.6484 22.7362 20.7855 23.0053 21.0326C23.2745 21.2797 23.4409 21.6187 23.4718 21.9825C23.4718 23.2627 23.4718 24.5533 23.4718 25.8335L23.4405 26.4475Z" fill="#410EAD"/>
</svg>
