<svg width="50" height="56" viewBox="0 0 50 56" fill="none" xmlns="http://www.w3.org/2000/svg">
<path d="M23.3772 33.1059L24.4444 32.0314C25.4191 32.5661 26.4474 32.9949 27.5122 33.3107V34.8329C27.5132 35.2161 27.665 35.5833 27.9344 35.8541C28.2038 36.1249 28.5689 36.2774 28.9497 36.2781H34.9823C35.3631 36.2776 35.7281 36.1252 35.9974 35.8543C36.2667 35.5834 36.4182 35.2161 36.4187 34.8329V33.3116C37.4836 32.996 38.5122 32.5671 39.4867 32.0322L40.5548 33.1067C40.8296 33.3676 41.1932 33.5129 41.571 33.5129C41.9488 33.5129 42.3122 33.3676 42.587 33.1067L46.8517 28.8139C47.1205 28.5424 47.2713 28.1749 47.2713 27.7917C47.2713 27.4085 47.1205 27.041 46.8517 26.7695L45.7854 25.6967C46.3172 24.7164 46.7434 23.6818 47.057 22.6105H48.5623C48.9434 22.6103 49.309 22.4579 49.5785 22.1867C49.848 21.9156 49.9995 21.5479 49.9998 21.1645V15.0959C49.9995 14.7124 49.848 14.3448 49.5785 14.0736C49.309 13.8025 48.9434 13.6501 48.5623 13.6498H47.0561C46.7427 12.5789 46.3168 11.5446 45.7854 10.5645L46.8429 9.50062C46.9764 9.36641 47.0822 9.20708 47.1545 9.03168C47.2267 8.85628 47.264 8.66824 47.264 8.47838C47.264 8.28851 47.2267 8.10053 47.1545 7.92513C47.0822 7.74973 46.9764 7.59039 46.8429 7.45619L42.5747 3.16689C42.4418 3.03227 42.2836 2.92558 42.1093 2.85298C41.935 2.78039 41.748 2.74334 41.5594 2.744C41.3704 2.74347 41.1833 2.78062 41.0088 2.85336C40.8342 2.92611 40.6757 3.03297 40.5425 3.16776L39.4848 4.23167C38.5102 3.6971 37.4818 3.26852 36.417 2.9532V1.446C36.4167 1.06272 36.2654 0.69524 35.9961 0.424135C35.7268 0.153031 35.3615 0.000469636 34.9805 0H28.948C28.5669 0.000469233 28.2015 0.153002 27.932 0.424081C27.6626 0.69516 27.511 1.06264 27.5105 1.446V2.9532C26.4459 3.26839 25.4178 3.69698 24.4436 4.23167L23.3861 3.16776C23.1163 2.89717 22.7508 2.74525 22.3698 2.74525C21.9889 2.74525 21.6234 2.89717 21.3536 3.16776L17.0863 7.45792C16.9524 7.59185 16.8464 7.75118 16.7741 7.92664C16.7018 8.1021 16.6648 8.29022 16.6652 8.48016C16.6665 8.86339 16.8177 9.23067 17.0863 9.50241L18.144 10.5663C17.6125 11.5466 17.1863 12.5812 16.8731 13.6525H15.3749C14.9941 13.6532 14.6292 13.8057 14.36 14.0766C14.0907 14.3474 13.9392 14.7145 13.9385 15.0976V21.1654C13.9393 21.5488 14.0902 21.9164 14.3587 22.1885C14.4917 22.3234 14.6501 22.4302 14.8245 22.503C14.999 22.5757 15.1861 22.6129 15.3749 22.6123H16.881C17.1944 23.6836 17.6205 24.7182 18.152 25.6985L17.0863 26.7712C16.9527 26.9054 16.8469 27.0648 16.7745 27.2402C16.7022 27.4156 16.665 27.6036 16.665 27.7935C16.665 27.9834 16.7022 28.1714 16.7745 28.3468C16.8469 28.5222 16.9527 28.6816 17.0863 28.8157L21.3502 33.1085C21.6248 33.3679 21.9876 33.512 22.3643 33.5115C22.7409 33.511 23.1033 33.3659 23.3772 33.1059ZM20.9685 26.9459C21.1998 26.7114 21.3446 26.4046 21.3792 26.0762C21.4138 25.7477 21.3362 25.4171 21.1589 25.139C20.3176 23.8325 19.7203 22.3826 19.3963 20.8604C19.3257 20.5379 19.1481 20.2492 18.8928 20.0417C18.6375 19.8342 18.3197 19.7202 17.9915 19.7185H16.807V16.541H17.9898C18.318 16.5394 18.636 16.4255 18.8913 16.218C19.1466 16.0104 19.3241 15.7216 19.3946 15.3991C19.7187 13.8769 20.316 12.427 21.1572 11.1204C21.3344 10.8425 21.4121 10.5121 21.3775 10.1838C21.3429 9.85546 21.198 9.54877 20.9668 9.31442L20.135 8.47665L22.369 6.23091L23.1991 7.06782C23.4326 7.30012 23.7377 7.44563 24.0643 7.48043C24.3908 7.51523 24.7194 7.43725 24.9961 7.25933C26.295 6.41332 27.7362 5.81246 29.2492 5.48616C29.5699 5.41544 29.8571 5.23693 30.0634 4.98005C30.2698 4.72316 30.383 4.40322 30.3844 4.07295V2.89113H33.543V4.07295C33.5441 4.40331 33.6572 4.72342 33.8636 4.98037C34.07 5.23732 34.3574 5.41573 34.6782 5.48616C36.1909 5.81282 37.6317 6.41367 38.9305 7.25933C39.2069 7.4375 39.5354 7.51562 39.8619 7.48081C40.1884 7.446 40.4935 7.30033 40.7267 7.06782L41.5585 6.23091L43.7927 8.47665L42.9599 9.31355C42.7291 9.5484 42.5846 9.85522 42.5502 10.1836C42.5158 10.5119 42.5934 10.8423 42.7703 11.1204C43.611 12.4273 44.2082 13.8771 44.5329 15.3991C44.6032 15.7217 44.7806 16.0105 45.036 16.2181C45.2913 16.4257 45.6094 16.5395 45.9377 16.541H47.123V19.7185H45.9377C45.6094 19.7199 45.2913 19.8338 45.036 20.0413C44.7806 20.2489 44.6032 20.5378 44.5329 20.8604C44.2087 22.3825 43.6114 23.8324 42.7703 25.139C42.5933 25.4172 42.5159 25.7478 42.5506 26.0763C42.5854 26.4047 42.7303 26.7114 42.9616 26.9459L43.8016 27.7908L41.569 30.0383L40.7284 29.1934C40.4949 28.9611 40.1898 28.8156 39.8632 28.7808C39.5367 28.746 39.208 28.824 38.9314 29.0019C37.6326 29.8475 36.1917 30.4484 34.6791 30.7751C34.3585 30.846 34.0714 31.0245 33.8651 31.2814C33.6588 31.5382 33.5455 31.8581 33.5439 32.1883V33.3878H30.3853V32.1883C30.3839 31.858 30.2708 31.5381 30.0645 31.2812C29.8582 31.0243 29.5708 30.8458 29.2501 30.7751C27.7371 30.4488 26.2959 29.8479 24.997 29.0019C24.7203 28.824 24.3917 28.746 24.0651 28.7808C23.7386 28.8156 23.4334 28.9611 23.1999 29.1934L22.3593 30.0392L20.1279 27.7917L20.9685 26.9459Z" fill="#6BC127"/>
<path d="M31.9662 26.6331C33.6364 26.6331 35.2691 26.1348 36.6578 25.2014C38.0465 24.2679 39.1288 22.9411 39.768 21.3888C40.4072 19.8365 40.5745 18.1284 40.2487 16.4805C39.9228 14.8326 39.1184 13.3188 37.9374 12.1308C36.7564 10.9427 35.2518 10.1336 33.6137 9.80581C31.9756 9.47802 30.2775 9.64627 28.7344 10.2893C27.1914 10.9322 25.8725 12.0211 24.9446 13.4181C24.0167 14.8151 23.5215 16.4576 23.5215 18.1378C23.5215 20.3909 24.4111 22.5517 25.9948 24.1449C27.5785 25.738 29.7265 26.6331 31.9662 26.6331ZM26.3963 18.1378C26.3963 17.0296 26.723 15.9463 27.335 15.0249C27.9471 14.1034 28.8168 13.3852 29.8346 12.9611C30.8523 12.537 31.9723 12.4261 33.0528 12.6423C34.1332 12.8585 35.1258 13.3921 35.9048 14.1757C36.6837 14.9594 37.2141 15.9578 37.429 17.0447C37.6439 18.1316 37.5336 19.2582 37.112 20.2821C36.6905 21.3059 35.9766 22.181 35.0607 22.7967C34.1447 23.4124 33.0678 23.741 31.9662 23.741C30.489 23.741 29.0722 23.1507 28.0276 22.0999C26.9831 21.0491 26.3963 19.6239 26.3963 18.1378Z" fill="#6BC127"/>
<path d="M6.17256 42.4826C6.1221 42.045 6.18142 41.6015 6.34506 41.1928C6.5087 40.7841 6.77145 40.4232 7.10938 40.1429C9.22451 38.4672 14.3432 36.3856 24.9118 41.2707C25.2422 41.4042 25.5129 41.6543 25.6731 41.9742C25.8334 42.294 25.8723 42.6617 25.7825 43.0083C25.757 43.1016 25.7097 43.1873 25.6445 43.2584C25.5794 43.3295 25.4983 43.3839 25.408 43.417C24.9761 43.6094 23.1509 44.0545 17.8393 41.7263C17.663 41.6492 17.4815 41.5685 17.2973 41.4852C17.0744 41.3814 16.8333 41.3231 16.5878 41.3136C16.3424 41.3042 16.0976 41.3437 15.8675 41.4301C15.6374 41.5164 15.4265 41.6479 15.2472 41.8167C15.0679 41.9855 14.9236 42.1885 14.8228 42.4138C14.722 42.6391 14.6665 42.8822 14.6597 43.1292C14.6528 43.3762 14.6947 43.6221 14.783 43.8527C14.8712 44.0833 15.0041 44.2939 15.1738 44.4726C15.3435 44.6512 15.5468 44.7941 15.7718 44.8932C15.9692 44.9825 16.1633 45.069 16.3543 45.153C21.279 47.3109 24.6324 47.8464 26.9062 46.8375C27.4665 46.5961 27.9694 46.2377 28.3816 45.7861C28.7938 45.3344 29.1059 44.7998 29.2972 44.2176C29.6923 42.9939 29.6201 41.666 29.0948 40.4929C28.5695 39.3198 27.6287 38.3856 26.4559 37.8724C14.7116 32.4421 8.19958 34.5131 4.80391 37.2057C3.96988 37.8732 3.31831 38.7432 2.91053 39.7337C2.50274 40.7243 2.35213 41.803 2.47283 42.8683L3.40524 51.8644L1.64263 52.0497C1.15724 52.1062 0.713621 52.353 0.407967 52.7365C0.102314 53.12 -0.0406752 53.6093 0.0100237 54.0982C0.0607225 54.5871 0.300995 55.0362 0.67875 55.348C1.0565 55.6597 1.54124 55.8091 2.02777 55.7636L5.6411 55.385C5.88378 55.3597 6.11912 55.2865 6.33366 55.1696C6.5482 55.0527 6.73776 54.8945 6.89147 54.7039C7.04518 54.5133 7.16004 54.294 7.22949 54.0587C7.29894 53.8234 7.32163 53.5767 7.29624 53.3326L6.17256 42.4826Z" fill="#6BC127"/>
<path d="M47.0746 40.8333L47.0288 40.6773C46.8954 40.1428 46.649 39.6434 46.3065 39.2132C45.9641 38.783 45.5335 38.432 45.0441 38.1843C44.4131 37.9236 43.7341 37.8012 43.0524 37.8252C42.3707 37.8492 41.7019 38.019 41.0906 38.3234C36.1614 40.3236 33.4382 41.4965 33.4117 41.5072C33.1842 41.6015 32.9774 41.7404 32.8037 41.9158C32.6299 42.0911 32.4925 42.2995 32.3995 42.5288C32.3065 42.758 32.2596 43.0036 32.2617 43.2512C32.2638 43.4988 32.3148 43.7435 32.4118 43.9711C32.5087 44.1987 32.6497 44.4047 32.8264 44.577C33.0031 44.7494 33.2121 44.8847 33.4413 44.9751C33.6704 45.0655 33.9151 45.1092 34.1612 45.1036C34.4073 45.098 34.6498 45.0433 34.8747 44.9427C34.902 44.9311 37.5935 43.7724 42.4813 41.7891C42.77 41.6574 43.0798 41.5784 43.396 41.5559C43.4257 41.6169 43.4499 41.6804 43.4683 41.7457L43.515 41.9043C43.6943 42.4369 43.8267 42.9843 43.9107 43.5401C43.8807 43.5543 43.8429 43.572 43.7953 43.5897L21.8313 52.101L12.924 47.9198C12.4774 47.7102 11.9664 47.6876 11.5033 47.8571C11.0402 48.0265 10.6629 48.374 10.4546 48.8232C10.2462 49.2725 10.2237 49.7866 10.3922 50.2525C10.5606 50.7184 10.906 51.0978 11.3526 51.3075L20.9765 55.8246C21.2029 55.9308 21.4483 55.9901 21.698 55.9988C21.9477 56.0074 22.1966 55.9654 22.4298 55.8751L45.1305 47.0802C48.5385 45.7574 47.5858 42.5542 47.0746 40.8333Z" fill="#6BC127"/>
</svg>
