<svg width="40" height="40" viewBox="0 0 40 40" fill="none" xmlns="http://www.w3.org/2000/svg">
<path fill-rule="evenodd" clip-rule="evenodd" d="M4.40912 0.0470297C3.72021 0.216593 3.05576 0.776097 2.73791 1.45412L2.5339 1.88932L2.51233 7.41486L2.49077 12.9404L2.22003 13.0298C1.43056 13.2905 0.59773 14.2104 0.219248 15.2399C0.0452427 15.7133 0.0396952 15.8159 0.012817 19.0412C-0.0217183 23.1825 -0.0892264 22.7891 1.36868 26.9446L1.82123 28.2345L1.85265 29.6428L1.88406 31.051L1.60808 31.4613C1.45424 31.69 1.31071 32.0183 1.28367 32.2029C1.25711 32.3851 1.24617 33.9238 1.25953 35.6222C1.28297 38.6131 1.28906 38.72 1.45236 39.0228C1.64864 39.3866 1.96164 39.6954 2.31512 39.8738C2.53741 39.986 3.11334 40 7.49464 40C12.1957 40 12.4376 39.993 12.714 39.8505C12.8734 39.7683 13.1164 39.5836 13.2538 39.4401C13.7465 38.9259 13.7462 38.9281 13.7454 35.3706C13.7446 32.1468 13.7444 32.1429 13.5608 31.7483C13.4561 31.5232 13.232 31.2328 13.0401 31.0733L12.7032 30.7933L13.183 29.3575C13.661 27.9272 13.9024 26.9846 13.9024 26.5487V26.3192H19.7623H25.6222L27.0722 29.22L28.5223 32.1209L28.2123 32.3864C28.0417 32.5324 27.8288 32.8036 27.7391 32.989C27.5834 33.3109 27.576 33.4469 27.5777 35.9791C27.5795 38.9306 27.5884 38.9883 28.1222 39.5078C28.6574 40.0286 28.3773 40.0056 33.8868 39.9822L38.8778 39.9609L39.2035 39.7452C39.3826 39.6266 39.6261 39.383 39.7446 39.2039L39.9602 38.8782L39.9826 36.0799C40.0037 33.4288 39.9969 33.2659 39.8515 32.9808C39.7005 32.6846 39.1848 32.1583 38.9781 32.0894C38.8991 32.063 38.9832 31.7901 39.3126 31.0043C40.0684 29.2015 39.9995 30.7719 39.9976 15.4025C39.9959 2.16622 39.9919 1.80247 39.8458 1.4803C39.6278 0.999836 39.0423 0.41086 38.5705 0.19744L38.1631 0.0131015L21.4033 0.00121876C12.1854 -0.00534801 4.53804 0.0152904 4.40912 0.0470297ZM38.2699 1.45161C38.4146 1.55488 38.5984 1.78355 38.6784 1.95976C38.8176 2.26636 38.8239 2.67819 38.8256 11.5162L38.8273 20.7521L38.5147 20.6819C38.3299 20.6403 38.0745 20.6403 37.8897 20.6819L37.5771 20.7521V12.488C37.5771 3.40562 37.5947 3.75225 37.103 3.15741C36.9687 2.99496 36.7128 2.78388 36.5343 2.68835L36.2098 2.51473H21.2861H6.36248L6.04994 2.68343C5.68427 2.8809 5.38369 3.18712 5.17984 3.5701C5.04216 3.8287 5.03302 4.15517 5.01271 9.531C5.00083 12.659 4.97677 15.2183 4.95919 15.2183C4.94161 15.2183 4.83276 15.1824 4.71744 15.1385C4.60203 15.0946 4.33607 15.0548 4.12627 15.0501L3.74498 15.0415V8.64636C3.74498 4.30644 3.77178 2.1806 3.82835 2.03121C3.93914 1.73844 4.1998 1.46311 4.48726 1.3349C4.68095 1.24851 7.6138 1.23327 21.3643 1.24711L38.0069 1.26391L38.2699 1.45161ZM35.9631 3.81323C36.0678 3.86099 36.1925 3.98576 36.2402 4.09051C36.302 4.22615 36.327 6.56392 36.327 12.2039V20.1267L36.0014 20.0535C35.6694 19.9789 35.3624 20.0101 34.9799 20.1574C34.7903 20.2304 34.7411 20.2132 34.5482 20.0067C34.1234 19.5516 33.4101 19.3081 32.8695 19.4335L32.5765 19.5015V18.1808V16.86H33.6313C34.582 16.86 34.7016 16.8445 34.8424 16.7036C35.08 16.466 35.0762 16.0534 34.8343 15.8046C34.7 15.6665 34.5597 15.6453 33.6294 15.6227L32.5765 15.597L32.5318 15.3882C32.2498 14.0707 30.968 13.3882 29.8542 13.9627C29.3002 14.2484 28.8261 14.9152 28.8261 15.4085V15.6038L25.8591 15.626C23.0104 15.6474 22.886 15.6545 22.7399 15.8046C22.5196 16.0309 22.496 16.4088 22.6862 16.6691C22.7917 16.8135 22.9418 16.8228 25.7921 16.86L28.787 16.8991L28.8075 19.7329C28.8188 21.2916 28.8012 22.5666 28.7684 22.5663C28.7357 22.566 28.5381 22.2643 28.3293 21.8959C27.6673 20.7277 27.1163 20.3393 26.1304 20.3457C25.0452 20.3526 24.2035 21.076 24.0234 22.1564L23.968 22.4886H15.8964H7.82476L7.38713 22.0157C7.14648 21.7556 6.9327 21.4653 6.91223 21.3707C6.89168 21.2761 6.86215 20.4072 6.84652 19.4398C6.81683 17.6026 6.77393 17.3434 6.37107 16.5638C6.25864 16.3464 6.24528 15.6808 6.24528 10.2932C6.24528 3.86623 6.24465 3.87725 6.61532 3.78055C6.69111 3.76077 13.2825 3.74052 21.2629 3.73552C31.748 3.72895 35.8255 3.75053 35.9631 3.81323ZM30.0569 5.09109C29.896 5.15284 29.6467 5.29309 29.5031 5.40269C29.1818 5.64785 28.8261 6.28225 28.8261 6.60996V6.85348H25.9004C22.979 6.85348 22.9745 6.85371 22.7704 7.02938C22.5003 7.26179 22.4842 7.64532 22.7332 7.91065L22.9151 8.10429H25.834C28.1007 8.10429 28.7597 8.1261 28.7833 8.20201C28.8001 8.2558 28.8357 8.43083 28.8623 8.59101C28.9756 9.27396 29.8636 9.98051 30.6086 9.98051C31.6131 9.98051 32.3062 9.38231 32.5336 8.31927L32.5795 8.10429L33.6133 8.10179C34.3025 8.10015 34.6884 8.06755 34.7711 8.00407C35.1235 7.73335 35.1294 7.2804 34.7841 7.00858C34.6108 6.87224 34.466 6.85348 33.587 6.85348C32.4901 6.85348 32.5727 6.89179 32.46 6.33033C32.3863 5.96376 32.0079 5.48595 31.6032 5.24869C31.1693 4.99423 30.4898 4.92496 30.0569 5.09109ZM31.0671 6.41593C31.2668 6.58784 31.2879 6.65788 31.3143 7.23857C31.3494 8.01236 31.2875 8.37767 31.0876 8.57772C30.8829 8.78254 30.485 8.77394 30.257 8.55974C30.088 8.40073 30.0762 8.3303 30.0762 7.47091C30.0762 6.57142 30.0805 6.54875 30.2821 6.39013C30.5526 6.17718 30.7992 6.18531 31.0671 6.41593ZM13.2259 6.96363C10.8806 7.41251 8.94114 8.96602 8.04901 11.1102C7.59512 12.2011 7.54238 12.5671 7.53824 14.6582L7.53449 16.5606L7.71897 16.7103C7.89735 16.8551 8.11667 16.86 14.419 16.86C20.8304 16.86 20.937 16.8575 21.0908 16.7036C21.238 16.5563 21.2471 16.4431 21.2471 14.7459C21.2471 12.7035 21.1653 12.1203 20.7402 11.1282C20.3692 10.2625 20.0351 9.73989 19.4372 9.09001C18.5459 8.1211 17.3923 7.42541 16.1194 7.08902C15.3214 6.87811 13.9771 6.81986 13.2259 6.96363ZM13.7462 8.49908C13.7462 9.24339 14.2776 9.59667 14.7904 9.19305C14.9676 9.05358 14.9963 8.97204 14.9963 8.60673C14.9963 8.21671 15.0108 8.18247 15.1752 8.18247C15.718 8.18247 17.2409 8.79138 17.7241 9.20164L17.9127 9.36159L17.6265 9.65483C17.26 10.0303 17.2288 10.4286 17.5462 10.6784C17.8403 10.9099 18.0778 10.8797 18.4239 10.5668C18.5904 10.4163 18.7582 10.2932 18.7968 10.2932C18.8354 10.2932 19.0133 10.5306 19.192 10.8209C19.5099 11.3372 19.8506 12.2299 19.9528 12.8144L20.004 13.1075L19.6684 13.1087C19.0209 13.1109 18.6353 13.5094 18.8286 13.9763C18.9531 14.2771 19.1174 14.3584 19.6011 14.3584H19.9969V14.9838V15.6092H18.4444H16.8919L16.8543 15.2754C16.8181 14.9542 16.5918 14.3885 16.3861 14.1051C16.2998 13.9862 16.3629 13.8934 16.892 13.3608C17.3867 12.8629 17.4966 12.708 17.4966 12.5086C17.4966 12.1467 17.2643 11.9036 16.9184 11.9036C16.6635 11.9036 16.5584 11.9775 15.9488 12.5846L15.265 13.2655L14.8285 13.1778C14.0411 13.0196 13.1355 13.3282 12.563 13.9496C12.2168 14.3253 12.0682 14.6288 11.942 15.2172L11.858 15.6092H10.3018H8.74557V14.9838V14.3584H9.20868C9.61599 14.3584 9.69139 14.3335 9.83375 14.1524C10.2394 13.6364 9.88383 13.1075 9.13124 13.1075H8.80597L8.8591 12.7528C8.95888 12.0874 9.45199 10.9089 9.82195 10.4518L9.97799 10.259L10.2996 10.5497C10.6895 10.9021 11.0037 10.9335 11.2885 10.6485C11.5733 10.3636 11.5419 10.0492 11.1897 9.65913L10.8991 9.33736L11.0918 9.18124C11.563 8.79951 13.0475 8.1938 13.5313 8.18599C13.7309 8.1827 13.7462 8.20498 13.7462 8.49908ZM25.1022 9.46729C24.9234 9.52326 24.6674 9.64717 24.5332 9.7427C24.219 9.96659 23.8271 10.6508 23.8262 10.9773L23.8255 11.2313H23.4001C22.7912 11.2313 22.5303 11.4823 22.5664 12.0334C22.5821 12.2741 22.8689 12.4411 23.3369 12.4821L23.7828 12.5212L23.8424 12.873C23.9708 13.6326 24.6855 14.2867 25.4472 14.3419C26.1202 14.3906 26.5168 14.2528 26.9492 13.8203C27.2926 13.4766 27.4082 13.2537 27.5313 12.6971L27.5789 12.4821H31.0871C33.0166 12.4821 34.6522 12.4602 34.7217 12.4336C34.9087 12.3618 35.0875 11.9659 35.0324 11.7459C35.0061 11.6412 34.9138 11.4914 34.8273 11.413C34.6812 11.2807 34.4135 11.2676 31.1046 11.2313L27.5394 11.1922L27.4937 10.9106C27.3861 10.2477 26.8062 9.62231 26.1304 9.44016C25.7353 9.33368 25.5101 9.33962 25.1022 9.46729ZM26.0601 10.7882C26.2505 10.9521 26.2757 11.0349 26.3086 11.6036C26.3724 12.7058 26.1995 13.1075 25.6616 13.1075C25.1577 13.1075 25.0756 12.9333 25.0756 11.8624C25.0756 10.9482 25.0796 10.9268 25.2815 10.768C25.5502 10.5564 25.7983 10.5629 26.0601 10.7882ZM2.68274 21.6987C2.90613 21.9455 3.37329 21.924 3.58301 21.6572C3.73904 21.4588 3.74498 21.3614 3.74498 19.0057C3.74498 17.6606 3.76631 16.5044 3.79241 16.4364C3.85999 16.2602 4.33489 16.2783 4.64298 16.4688C4.92293 16.6419 5.22906 17.0488 5.43729 17.5245C5.55121 17.7846 5.58129 18.1656 5.61669 19.7916C5.66685 22.0933 5.61708 21.9462 6.77706 23.2207C7.73381 24.272 8.1173 25.0815 8.11956 26.0546C8.12081 26.5876 8.32935 26.8665 8.72667 26.8665C9.01873 26.8665 9.37065 26.6241 9.37065 26.4229C9.37065 26.3401 9.70092 26.3192 11.0115 26.3192C12.5817 26.3192 12.6523 26.3257 12.6523 26.4705C12.6523 26.7793 12.4156 27.7181 12.0794 28.7427C11.889 29.3231 11.6913 30.0003 11.6402 30.2476L11.5473 30.6971H7.3415H3.13569L3.10545 29.3876L3.07521 28.0782L2.28348 25.7329C1.84804 24.443 1.43431 23.1225 1.36407 22.7984C1.25523 22.296 1.23984 21.7428 1.26007 19.0459L1.28375 15.8828L1.50917 15.3944C1.64645 15.0971 1.87577 14.7759 2.09517 14.5736L2.45576 14.2411L2.49483 17.8877C2.53171 21.3335 2.5421 21.5433 2.68274 21.6987ZM14.9205 14.5342C15.2998 14.7259 15.6214 15.1348 15.6214 15.4253V15.6092H14.3698H13.1181L13.1687 15.3942C13.2821 14.9123 13.5962 14.5718 14.0562 14.4319C14.3884 14.3309 14.558 14.351 14.9205 14.5342ZM31.131 15.2253C31.2827 15.3743 31.2885 15.5091 31.3264 19.7609C31.364 23.9845 31.3709 24.1471 31.5171 24.2539C31.7309 24.4103 32.1354 24.3917 32.353 24.2155C32.5332 24.0697 32.5379 24.0328 32.5586 22.6325C32.5704 21.8439 32.5976 21.1186 32.6193 21.0206C32.6421 20.9178 32.769 20.7899 32.9195 20.718C33.1449 20.6105 33.2105 20.6082 33.4035 20.7008C33.7836 20.8831 33.8243 21.0685 33.8255 22.6254C33.8266 23.9471 33.8382 24.0636 33.9829 24.2085C34.1833 24.4089 34.6101 24.4124 34.8533 24.2155C35.03 24.0725 35.0394 24.0135 35.0768 22.8019C35.1119 21.6662 35.1314 21.5262 35.2676 21.4268C35.5278 21.2367 35.9054 21.2603 36.1316 21.4805C36.2719 21.6171 36.2905 21.7544 36.313 22.8228C36.3357 23.9055 36.3528 24.0289 36.5024 24.189C36.7076 24.4085 37.1001 24.4207 37.3536 24.2155C37.5228 24.0785 37.5399 23.9995 37.5599 23.2579C37.5891 22.1812 37.6099 22.1087 37.9278 21.9759C38.2499 21.8412 38.5252 21.9218 38.7107 22.2051C38.8226 22.3759 38.8341 22.7609 38.8125 25.6287L38.7882 28.86L38.5425 29.5244C38.4075 29.8899 38.1356 30.5759 37.9386 31.0489L37.5802 31.9088H33.6915H29.8028L27.5243 27.3355C25.8158 23.9063 25.2441 22.6886 25.2389 22.4679C25.2292 22.0571 25.6146 21.6355 26.0524 21.578C26.6062 21.5054 26.7762 21.6968 27.9263 23.6881C28.4935 24.6703 29.0072 25.5053 29.0677 25.5436C29.2143 25.6365 29.5832 25.6341 29.7606 25.5391C30.0608 25.3784 30.0762 25.1165 30.0762 20.2047C30.0762 16.9846 30.1032 15.3921 30.1594 15.2869C30.3341 14.9605 30.8295 14.929 31.131 15.2253ZM24.6239 24.3258C24.7836 24.6267 24.9155 24.9172 24.9169 24.9711C24.9189 25.0493 23.3304 25.0651 17.0973 25.0493L9.27517 25.0293L9.08343 24.5212C8.97802 24.2417 8.87231 23.9513 8.84855 23.8759C8.80746 23.7456 9.19727 23.7397 16.5693 23.7586L24.3334 23.7785L24.6239 24.3258ZM12.3152 32.1179L12.496 32.2879V35.3535C12.496 38.2552 12.488 38.4291 12.3467 38.6037L12.1974 38.7883L7.64029 38.8097C4.47928 38.8245 3.02005 38.8049 2.87722 38.7457C2.764 38.6988 2.63164 38.5732 2.58312 38.4666C2.52249 38.3335 2.49483 37.3471 2.49483 35.3163C2.49483 32.4437 2.49944 32.354 2.6568 32.1539L2.8187 31.9479H7.47652H12.1343L12.3152 32.1179ZM38.6037 33.3481L38.7882 33.4974L38.8109 35.9306L38.8337 38.3639L38.6003 38.5975L38.3668 38.831L33.7609 38.8096C29.3576 38.7892 29.1477 38.7817 28.9905 38.6394C28.8299 38.4939 28.8261 38.4323 28.8261 36.0009C28.8261 33.6156 28.8326 33.5048 28.9824 33.3551C29.1351 33.2022 29.2428 33.1987 33.7789 33.1987C38.2304 33.1987 38.4268 33.2048 38.6037 33.3481Z" fill="#14CAD6"/>
</svg>
