<svg width="44" height="37" viewBox="0 0 44 37" fill="none" xmlns="http://www.w3.org/2000/svg">
<path fill-rule="evenodd" clip-rule="evenodd" d="M22.7512 0.0890991C22.2675 0.276416 22.2443 0.296362 20.4866 2.03833C18.5992 3.90875 18.4492 4.12931 18.4504 5.03362C18.451 5.49655 18.4955 5.68068 18.6869 6.01116C19.019 6.58437 22.0529 9.60129 22.5143 9.81707C23.3094 10.189 24.4491 9.91644 24.9546 9.23349C25.217 8.87907 25.4182 8.236 25.4182 7.75197V7.40154L25.7408 7.46253C26.7118 7.64604 28.3015 8.35293 29.3463 9.06594L29.9599 9.48463L29.9176 10.1595C29.8406 11.3863 30.2625 12.7611 31.031 13.7876C31.6101 14.561 32.6522 15.2985 33.5623 15.5789C33.9788 15.7072 34.0297 15.8415 34.1994 17.2614C34.8128 22.3928 31.6609 27.4612 26.7794 29.1929C25.1411 29.774 25.0496 29.7825 19.7401 29.8407C15.4396 29.8879 14.8494 29.9109 14.6195 30.0409C13.0928 30.904 13.1657 33.3023 14.7393 33.9799C14.9822 34.0845 16.394 34.1049 23.4007 34.1049H31.772L31.9502 33.8713C32.1545 33.6038 32.1675 33.492 32.0307 33.1826C31.8909 32.8664 31.5433 32.7751 30.479 32.7751H29.5434L30.2843 32.3758C30.6916 32.1562 31.3639 31.7374 31.7782 31.445L32.5313 30.9135H35.1642H37.797L38.0384 30.6996C38.2686 30.4957 38.2812 30.4443 38.3094 29.5914C38.337 28.7567 38.3535 28.6852 38.5576 28.5198C38.6789 28.4215 38.9065 28.3426 39.069 28.3426C39.3314 28.3426 39.5315 28.5099 40.9949 29.9527C41.8932 30.8382 42.6508 31.656 42.6786 31.77C42.7063 31.884 42.7063 32.0708 42.6784 32.1851C42.6106 32.4634 39.5072 35.5914 39.2269 35.6639C38.9435 35.7372 38.5433 35.5646 38.4249 35.3179C38.3738 35.2115 38.3193 34.6956 38.3037 34.1716C38.2619 32.7622 38.3563 32.8194 36.0763 32.8194H34.2646L34.0569 33.0682C33.8029 33.3723 33.7953 33.5672 34.0258 33.8691C34.2017 34.0994 34.2086 34.1006 35.5959 34.1248L36.9893 34.1492L37.0323 34.8584C37.0666 35.4235 37.1241 35.6529 37.315 35.9876C37.9019 37.0165 39.2225 37.3137 40.1918 36.635C40.3569 36.5194 41.2202 35.6822 42.1101 34.7746C43.8404 33.0102 44.002 32.7678 44 31.9393C43.9983 31.206 43.7107 30.801 41.9478 29.0498C41.041 28.1489 40.1386 27.3221 39.9426 27.2123C39.5127 26.9717 38.7374 26.9432 38.2555 27.1504C37.8789 27.3122 37.4173 27.7469 37.2251 28.121C37.1499 28.2673 37.0661 28.6462 37.0388 28.9632L36.9893 29.5394L35.4962 29.5637L34.0031 29.588L34.4928 29.0318C36.8038 26.407 38.1248 23.2429 38.4135 19.6399C38.5177 18.3402 38.4297 16.7339 38.1901 15.5592L38.0688 14.965L38.7783 14.2294C39.8449 13.1237 40.3163 11.9791 40.323 10.4792C40.327 9.58463 40.1952 8.97951 39.8164 8.15409C39.4188 7.28781 38.8063 6.55503 38.0356 6.02384C37.1442 5.4095 36.5053 5.19603 35.3978 5.14248C34.3444 5.09151 33.6136 5.23388 32.8266 5.64318L32.3203 5.90664L31.6118 5.42625C29.8482 4.23072 28.0302 3.50246 25.6226 3.02713C25.4578 2.99459 25.4361 2.91906 25.4011 2.25862C25.3599 1.47868 25.2214 1.09102 24.8277 0.65362C24.3407 0.112769 23.371 -0.150875 22.7512 0.0890991ZM23.9124 1.57478C24.0613 1.72814 24.0886 1.89321 24.1132 2.79158C24.1493 4.10883 24.1911 4.16805 25.1882 4.31547C26.7249 4.54268 28.1265 5.001 29.5699 5.74814C30.1346 6.0405 31.1013 6.62089 31.2527 6.75857C31.2678 6.77231 31.113 7.02159 30.9086 7.31245C30.7043 7.6034 30.4971 7.91154 30.4482 7.99727C30.3668 8.14026 30.3209 8.12767 29.889 7.84337C28.6669 7.0387 27.1176 6.39422 25.6789 6.0921C24.614 5.86852 24.5939 5.86906 24.3389 6.1319C24.1429 6.33376 24.1277 6.4131 24.1277 7.2332C24.1277 8.05454 24.112 8.13618 23.905 8.38963C23.726 8.60877 23.616 8.66241 23.3451 8.66241C23.0234 8.66241 22.933 8.58661 21.374 7.01015C19.2078 4.81953 19.2105 5.16438 21.3425 3.03661C22.2239 2.15712 23.0078 1.40883 23.0847 1.3739C23.3001 1.27585 23.7211 1.37806 23.9124 1.57478ZM14.5524 4.89799C13.837 5.16846 12.0781 6.61159 11.1161 7.71749C9.89501 9.1209 8.72818 10.9817 8.72818 11.5256C8.72818 11.8928 8.9744 12.1493 9.32695 12.1493C9.6728 12.1493 9.76313 12.0533 10.2723 11.1441C10.5163 10.7085 10.9792 10.0019 11.3009 9.57381C12.4592 8.03282 14.6694 6.08669 15.2522 6.09467C15.9498 6.10424 16.46 7.01822 16.08 7.57733C16.0069 7.68487 15.765 7.90002 15.5423 8.0556C13.0247 9.81388 11.237 12.5524 10.5239 15.7429C10.28 16.8339 10.2138 19.1461 10.3941 20.2766C10.6751 22.0386 11.3298 23.7825 12.2597 25.245C12.5286 25.6682 12.6856 26.012 12.6856 26.1782C12.6856 26.8647 11.7789 27.3509 11.2331 26.9569C10.9491 26.752 10.2458 25.615 9.75977 24.575C8.39541 21.6557 8.0481 18.2983 8.77102 15.0182C8.9941 14.0059 8.95238 13.7411 8.54648 13.594C8.17861 13.4607 7.87269 13.5933 7.72859 13.9487C7.34067 14.9053 7.05006 17.3001 7.12215 18.9458C7.22857 21.3749 7.71689 23.3429 8.72826 25.4183C9.55141 27.1076 10.3355 28.1139 11.0062 28.342C11.4168 28.4816 12.2968 28.4168 12.6668 28.2197C13.4519 27.8013 13.9737 26.9803 13.9752 26.161C13.9761 25.665 13.8241 25.3129 13.0472 24.0114C11.5872 21.5655 11.1646 18.1836 11.9626 15.3305C12.635 12.9264 14.0337 10.8715 16.0699 9.29634C17.0101 8.56897 17.0979 8.47323 17.3386 7.91252C17.4849 7.57148 17.5149 7.37069 17.4797 6.96911C17.3435 5.422 15.8886 4.39268 14.5524 4.89799ZM36.7974 6.82629C38.2411 7.56155 39.0283 8.85548 39.024 10.4858C39.0197 12.0501 38.1802 13.4162 36.8141 14.0819C35.2166 14.8604 33.5051 14.5218 32.2379 13.1765C30.2884 11.1068 31.2013 7.53381 33.9148 6.61345C34.2943 6.48473 34.609 6.45157 35.2765 6.47001C36.0832 6.49226 36.191 6.51744 36.7974 6.82629ZM35.5887 9.80005L34.486 10.8595L34.1523 10.6031C33.7487 10.2931 33.4273 10.2763 33.1759 10.5519C32.8035 10.9605 32.9336 11.2975 33.7092 11.9335C34.562 12.6327 34.5471 12.6381 36.1775 11.0479C36.9769 10.2681 37.5717 9.61778 37.6031 9.4888C37.6849 9.15308 37.3932 8.80212 37.004 8.76799C36.7108 8.74228 36.6231 8.80628 35.5887 9.80005ZM21.2898 11.1172C20.7859 11.2237 20.3423 11.7658 20.3423 12.2751C20.3423 12.4954 20.2853 12.5526 19.8965 12.7219C19.5048 12.8925 19.4341 12.9004 19.3127 12.7872C19.0429 12.5356 18.5397 12.377 18.2085 12.4392C17.9575 12.4864 17.703 12.688 17.0012 13.3953C16.512 13.8883 16.0571 14.3994 15.9903 14.531C15.7985 14.9087 15.8384 15.4175 16.0895 15.799L16.3103 16.1342L16.1513 16.5336C16.0075 16.8945 15.9531 16.9432 15.5863 17.0392C15.3631 17.0976 15.099 17.2213 14.9996 17.314C14.6268 17.6616 14.5783 17.8931 14.5789 19.3181C14.5793 20.4883 14.6012 20.7086 14.7386 20.9231C14.9578 21.2657 15.2029 21.426 15.6202 21.4994C15.9462 21.5568 15.9887 21.5968 16.1373 21.9869L16.2993 22.4118L16.0841 22.7383C15.776 23.2055 15.7879 23.7701 16.1153 24.2293C16.4803 24.7411 17.7009 25.9298 17.9694 26.035C18.3562 26.1865 18.7494 26.1407 19.0867 25.9048C19.4666 25.6391 19.4557 25.6398 19.9356 25.8517C20.2838 26.0056 20.3217 26.0532 20.3658 26.3924C20.4174 26.7884 20.6614 27.1244 21.0478 27.3316C21.371 27.5049 23.5871 27.506 23.9886 27.3332C24.3475 27.1787 24.6482 26.7507 24.7051 26.3135C24.7453 26.0048 24.7831 25.9644 25.164 25.8232C25.5702 25.6728 25.5846 25.6735 25.8242 25.856C26.1096 26.0735 26.5977 26.1743 26.9385 26.0861C27.2749 25.9992 29.0012 24.2288 29.1242 23.8448C29.248 23.4582 29.164 23.0058 28.9103 22.6938L28.7101 22.4474L28.8823 21.982C29.0408 21.5537 29.0766 21.5166 29.3314 21.5166C29.6934 21.5166 30.1547 21.1926 30.3433 20.8056C30.4647 20.5568 30.4934 20.2656 30.4919 19.3004C30.4898 17.8181 30.3653 17.4422 29.7872 17.1717C29.5845 17.0769 29.3392 16.9985 29.2421 16.9974C28.9991 16.9948 28.6438 16.1679 28.8206 16.0167C29.0361 15.8324 29.2281 15.1633 29.1649 14.8163C29.0876 14.3922 27.6194 12.7978 27.0744 12.5462C26.6329 12.3424 26.2075 12.3982 25.852 12.7063L25.61 12.9163L25.17 12.7278C24.8431 12.5878 24.7299 12.4926 24.7299 12.3575C24.7299 12.0347 24.3972 11.4558 24.108 11.2756C23.8682 11.1262 23.6546 11.0981 22.6652 11.0862C22.0264 11.0784 21.4075 11.0924 21.2898 11.1172ZM23.4235 12.8726C23.4567 13.414 23.5899 13.5763 24.1594 13.7684C24.4021 13.8504 24.8283 14.0346 25.1062 14.1778C25.692 14.4798 25.8762 14.461 26.3262 14.0539L26.6353 13.7743L27.2456 14.4033L27.8559 15.0321L27.591 15.3431C27.1846 15.82 27.1772 15.9438 27.5119 16.6633C27.6762 17.0167 27.8542 17.4738 27.9074 17.6792C28.0293 18.1503 28.269 18.3252 28.7926 18.3252H29.2035V19.256V20.1869H28.8635C28.3337 20.1869 28.108 20.3376 27.9477 20.7985C27.8697 21.0227 27.6743 21.5014 27.5135 21.8621C27.1849 22.5995 27.1939 22.7432 27.5966 23.1801L27.8633 23.4695L27.2243 24.1323L26.5854 24.7951L26.2777 24.4857C25.8965 24.102 25.6604 24.0923 25.0049 24.4333C24.733 24.5747 24.3449 24.7364 24.1425 24.7926C23.6046 24.9418 23.4395 25.151 23.4395 25.6831V26.1264H22.5361H21.6328V25.7324C21.6328 25.2206 21.3967 24.9504 20.7725 24.7481C20.5123 24.6638 20.1167 24.5006 19.8935 24.3855C19.3557 24.1079 19.1184 24.1214 18.7553 24.4498L18.4529 24.7234L17.8061 24.1246C17.4502 23.7952 17.1592 23.5003 17.1592 23.4694C17.1592 23.4384 17.2947 23.2777 17.4603 23.1123C17.8276 22.7456 17.8363 22.5523 17.5153 21.8908C17.38 21.6119 17.2027 21.1742 17.1213 20.9183C16.9449 20.3634 16.7314 20.1869 16.2367 20.1869H15.8687V19.256V18.3252H16.2839C16.7999 18.3252 16.9676 18.1543 17.2408 17.3501C17.3486 17.0331 17.5097 16.6495 17.599 16.4974C17.8395 16.0881 17.804 15.8035 17.4643 15.4159L17.1671 15.077L17.8035 14.4256L18.4398 13.7743L18.7891 14.0995C18.9813 14.2783 19.1924 14.4246 19.2583 14.4246C19.3242 14.4246 19.6629 14.2899 20.0108 14.1253C20.3588 13.9606 20.8216 13.7601 21.0393 13.6797C21.4872 13.5143 21.6328 13.2821 21.6328 12.733V12.3795L22.5146 12.4047L23.3964 12.43L23.4235 12.8726ZM21.5208 15.1423C20.9145 15.2893 20.2452 15.6825 19.6896 16.218C17.1858 18.6315 18.4849 22.8749 21.9098 23.4702C23.9407 23.8232 26.065 22.3502 26.5313 20.2656C26.7757 19.1738 26.5508 17.895 25.9473 16.9448C25.3981 16.0799 24.6847 15.5297 23.71 15.2193C23.1267 15.0336 22.116 14.998 21.5208 15.1423ZM36.9607 15.976C37.688 20.2953 36.5032 24.6289 33.6847 27.958C31.7642 30.2264 29.1086 31.8297 26.1201 32.5248C25.3282 32.709 25.0518 32.7197 20.2428 32.7517L15.1965 32.7854L15.0164 32.5862C14.7404 32.281 14.7401 31.6901 15.0159 31.401C15.1797 31.2292 15.3315 31.2222 19.8929 31.1749C24.355 31.1286 24.648 31.1157 25.5042 30.9262C28.0825 30.3556 30.1867 29.193 31.9552 27.3622C34.1727 25.0668 35.391 22.24 35.5425 19.039C35.585 18.1397 35.5041 16.945 35.3454 16.127C35.2953 15.8691 35.2962 15.8685 35.9272 15.7339C36.831 15.5411 36.8898 15.5548 36.9607 15.976ZM23.7419 16.6415C24.2831 16.9115 24.8102 17.4546 25.0772 18.0172C25.3761 18.6472 25.4124 19.6091 25.163 20.2934C24.4445 22.2648 21.9559 22.8247 20.5144 21.3393C19.949 20.7567 19.6969 20.113 19.6982 19.2556C19.6991 18.6605 19.738 18.4646 19.9391 18.0409C20.2321 17.4236 20.8774 16.8046 21.4867 16.556C22.1077 16.3027 23.1411 16.3419 23.7419 16.6415ZM5.9172 27.0216C5.40954 27.1183 5.09114 27.3086 4.7502 27.7191C4.39059 28.1519 4.25457 28.5875 4.25457 29.3059V29.8497H2.95258C1.51208 29.8497 1.14473 29.9249 0.686613 30.314C0.192279 30.7339 0 31.1997 0 31.9773C0 32.7617 0.192365 33.2206 0.703303 33.6549C1.16193 34.0447 1.45633 34.1038 2.9426 34.1043L4.25457 34.1049L4.25509 34.6589C4.25569 35.4185 4.38319 35.8278 4.74908 36.2451C5.33521 36.9136 6.07542 37.1417 6.87817 36.9012C7.31805 36.7695 7.49656 36.6198 9.05363 35.0784C10.9589 33.1923 11.2231 32.8185 11.2231 32.0086C11.2231 31.5087 11.0779 31.0432 10.8168 30.7055C10.4053 30.1736 7.50645 27.3624 7.21352 27.2111C6.79343 26.9943 6.37876 26.9335 5.9172 27.0216ZM8.31153 30.0079C9.84013 31.5536 9.93261 31.6659 9.93261 31.977C9.93261 32.2865 9.83961 32.4019 8.42475 33.8486C7.59541 34.6965 6.79205 35.4612 6.63961 35.548C6.30125 35.7403 6.00152 35.6851 5.73861 35.382C5.56551 35.1824 5.54504 35.066 5.54504 34.2814C5.54504 33.3179 5.46081 33.0221 5.14439 32.8735C5.01431 32.8124 4.31591 32.7751 3.30419 32.7751C1.79538 32.7751 1.661 32.7621 1.50373 32.6C1.17338 32.2596 1.17338 31.6949 1.50373 31.3545C1.661 31.1924 1.79538 31.1794 3.30419 31.1794C4.31591 31.1794 5.01431 31.1421 5.14439 31.081C5.45875 30.9334 5.54504 30.6373 5.54504 29.7067C5.54504 29.2426 5.58676 28.7824 5.63786 28.6842C5.75727 28.4541 6.18553 28.2691 6.46918 28.325C6.60863 28.3525 7.28983 28.9747 8.31153 30.0079Z" fill="#CA16DA"/>
</svg>
