<svg width="50" height="42" viewBox="0 0 50 42" fill="none" xmlns="http://www.w3.org/2000/svg">
<path fill-rule="evenodd" clip-rule="evenodd" d="M24.0077 0.0476169C21.6321 0.273671 19.4076 0.817676 17.575 1.62071C11.8644 4.12326 7.75518 9.04324 6.19796 15.2429C5.90975 16.3902 5.62681 18.4399 5.62365 19.4035L5.62131 20.088H4.67927H3.73712L5.34903 22.1159C6.95661 24.1384 7.20453 24.3542 7.7587 24.2129C7.9168 24.1726 8.66876 23.3335 9.63703 22.1168L11.2518 20.088H10.2927H9.33383L9.40668 19.0464C9.81844 13.1603 13.1463 8.12616 18.3231 5.55839C21.2726 4.0954 24.4773 3.58401 27.6381 4.07195C32.5871 4.83594 37.0825 8.05486 39.3283 12.4427C39.8605 13.4825 40.0523 13.6599 40.6438 13.6599C40.9538 13.6599 41.1736 13.5008 41.9398 12.722C43.0739 11.5694 43.1001 11.3996 42.3513 10.064C40.0457 5.95169 36.2701 2.75634 31.7909 1.12682C29.559 0.314858 26.1567 -0.156891 24.0077 0.0476169ZM23.5392 10.7358C20.2655 11.4416 17.6266 13.7226 16.5345 16.7903C15.0239 21.0337 16.5208 25.6136 20.2208 28.0687C24.5155 30.9185 30.3183 29.6517 33.1473 25.2466C34.1883 23.6258 34.601 22.1614 34.601 20.088C34.601 18.0183 34.1867 16.5447 33.155 14.9447C31.8176 12.8706 29.9647 11.5216 27.5228 10.8443C26.6116 10.5916 24.4779 10.5335 23.5392 10.7358ZM42.5373 16.13C42.4086 16.2446 41.6352 17.182 40.8187 18.2131L39.3342 20.088H40.2953H41.2566L41.1759 21.1749C40.8802 25.1559 39.2759 28.7333 36.5385 31.5157C34.3498 33.7404 31.7027 35.2061 28.5164 35.9574C27.4894 36.1995 27.117 36.2076 13.955 36.2713L0.447714 36.3367L0.223798 36.6178C0.033962 36.8561 0 37.0963 0 38.2004C0 39.4292 0.0162783 39.5186 0.292074 39.799L0.584148 40.0959L14.1404 40.0528C26.2903 40.0141 27.8 39.9887 28.6921 39.8084C32.9171 38.954 36.2839 37.1533 39.1758 34.2014C42.6752 30.6294 44.5867 26.3247 44.9272 21.2486L45.005 20.088H45.9321H46.859L45.3724 18.2131C43.6494 16.0401 43.5317 15.9216 43.0967 15.9216C42.9178 15.9216 42.666 16.0153 42.5373 16.13ZM30.6297 16.571C30.8179 16.7623 30.9172 16.9977 30.9172 17.2531C30.9172 17.6051 30.5952 17.9703 27.6065 21.0082C24.5511 24.114 24.2647 24.3734 23.8922 24.3734C23.5267 24.3734 23.3084 24.1903 21.5816 22.435C19.8965 20.7222 19.6746 20.4514 19.6746 20.1083C19.6746 19.5909 20.1194 19.1357 20.6249 19.1357C20.948 19.1357 21.2023 19.3384 22.4469 20.5893L23.8934 22.0428L26.7374 19.1608C29.282 16.5821 29.6215 16.2788 29.9618 16.2788C30.2096 16.2788 30.4426 16.3807 30.6297 16.571ZM8.85345 27.2185L7.46346 28.6351L8.00135 29.6382C8.68364 30.9105 9.71374 32.377 10.7123 33.4977L11.4918 34.3726H14.6058H17.7198L16.4641 33.5297C14.105 31.9459 11.9906 29.437 10.83 26.8445C10.5739 26.2723 10.3371 25.8035 10.3039 25.8029C10.2707 25.8023 9.61794 26.4393 8.85345 27.2185ZM45.9074 35.3197V36.2772H42.859H39.8106L39.0658 36.9194C38.0387 37.8051 36.6969 38.7103 35.3089 39.4539L34.1377 40.0813L40.0226 40.084L45.9074 40.0865V41.0432V42L47.9012 40.3679C49.899 38.7324 50.1065 38.4851 49.9646 37.9103C49.9238 37.745 49.1176 36.9984 47.9025 36.0005L45.9074 34.362V35.3197Z" fill="#FCB900"/>
</svg>
