<svg width="51" height="51" viewBox="0 0 51 51" fill="none" xmlns="http://www.w3.org/2000/svg">
<path d="M33.1059 49.9541H1.07313C0.603034 49.7264 0.224553 49.3455 0 48.8743V1.07214C0.220198 0.599672 0.600224 0.219996 1.07313 0H23.3405C23.6605 0.2107 23.9653 0.443571 24.2526 0.696894C27.3187 3.76015 30.3848 6.8234 33.5122 9.88666C33.736 10.0969 33.9121 10.3527 34.0284 10.6367C34.1448 10.9208 34.1988 11.2265 34.1867 11.5332C34.1867 16.3272 34.1867 21.1212 34.1867 25.9152V26.4972C34.8122 26.4623 35.4392 26.4623 36.0647 26.4972C36.3941 26.5673 36.7373 26.5309 37.0446 26.3932C37.3519 26.2555 37.6073 26.0237 37.774 25.7314C38.0184 25.3631 38.301 25.0217 38.6172 24.7128C38.7249 24.6193 38.794 24.4892 38.811 24.3476C38.828 24.2061 38.7917 24.0633 38.7092 23.947C38.3991 23.2865 38.2596 22.5588 38.3036 21.8306C38.3475 21.1023 38.5735 20.3967 38.9608 19.7781C39.3481 19.1596 39.8844 18.648 40.5207 18.2899C41.157 17.9319 41.8729 17.7389 42.6031 17.7286C43.4388 17.7152 44.261 17.9407 44.9727 18.3787C45.6844 18.8166 46.256 19.4486 46.6201 20.2003C46.9842 20.952 47.1257 21.792 47.0278 22.6214C46.93 23.4507 46.5969 24.2348 46.0678 24.8813C45.5496 25.5501 44.8413 26.0469 44.0356 26.3065C43.23 26.5662 42.3646 26.5766 41.553 26.3364C41.4294 26.2863 41.2921 26.2819 41.1656 26.324C41.0391 26.3661 40.9318 26.452 40.8631 26.5661C40.2959 27.2783 39.6827 27.9522 39.1231 28.6721C38.9385 28.9297 38.6906 29.1354 38.4033 29.2695C38.116 29.4037 37.799 29.4616 37.4828 29.4379C36.402 29.4379 35.3135 29.4379 34.2174 29.4379V32.348H41.4533C41.5223 32.2025 41.576 32.0646 41.645 31.9345C42.0089 31.1765 42.5835 30.5392 43.3002 30.0986C44.0168 29.658 44.8452 29.4327 45.6865 29.4497C46.5278 29.4666 47.3464 29.7251 48.0447 30.1942C48.7429 30.6633 49.2913 31.3232 49.6244 32.0953C49.7737 32.4699 49.8991 32.8536 50 33.244V34.4157L49.885 34.8292C49.6978 35.6872 49.2497 36.4664 48.602 37.06C47.9543 37.6536 47.1388 38.0327 46.2671 38.1452C45.4362 38.2982 44.5784 38.1974 43.8058 37.8558C43.0332 37.5143 42.3817 36.9479 41.9362 36.2307C41.7605 35.9507 41.5994 35.6618 41.4533 35.3653H34.2327V38.2677C35.3365 38.2677 36.4096 38.2677 37.4828 38.2677C37.799 38.244 38.116 38.302 38.4033 38.4361C38.6906 38.5702 38.9385 38.776 39.1231 39.0335C39.6827 39.7534 40.3035 40.4273 40.8631 41.1395C40.9386 41.2671 41.0599 41.3611 41.2023 41.4023C41.3447 41.4436 41.4976 41.429 41.6296 41.3616C42.68 41.0976 43.791 41.2313 44.7485 41.7369C45.706 42.2426 46.4423 43.0845 46.8155 44.1003C47.1887 45.1161 47.1724 46.234 46.7696 47.2385C46.3669 48.243 45.6063 49.063 44.6344 49.5405C44.201 49.7176 43.7584 49.871 43.3083 50H42.1355C42.0955 49.9711 42.0516 49.948 42.0052 49.9311C41.3214 49.8162 40.6744 49.5418 40.1167 49.1301C39.5591 48.7184 39.1065 48.181 38.7958 47.5617C38.4851 46.9424 38.3251 46.2585 38.3287 45.5658C38.3322 44.873 38.4994 44.1909 38.8165 43.5748C38.8396 43.5064 38.8468 43.4335 38.8375 43.3619C38.8282 43.2902 38.8027 43.2216 38.7628 43.1613C38.2876 42.5639 37.797 41.9819 37.2988 41.3999C37.2192 41.3047 37.1074 41.242 36.9845 41.2238C36.08 41.2238 35.1679 41.2238 34.2251 41.2238V41.7981C34.2251 43.8811 34.2251 45.9642 34.2251 48.0395C34.2675 48.4362 34.1818 48.836 33.9804 49.1805C33.779 49.525 33.4726 49.7961 33.1059 49.9541ZM2.9511 46.9903H31.2126V12.6819H23.1719C22.9452 12.7058 22.716 12.6789 22.5011 12.6032C22.2861 12.5275 22.0908 12.4049 21.9292 12.2442C21.7677 12.0836 21.6441 11.8889 21.5673 11.6745C21.4905 11.4601 21.4626 11.2313 21.4855 11.0048V2.95604H2.9511V46.9903ZM24.4136 5.1769V9.72584H28.9667L24.4136 5.1769ZM44.1131 22.1397C44.1131 21.8494 44.0266 21.5657 43.8647 21.3247C43.7028 21.0837 43.4728 20.8963 43.2039 20.7863C42.9351 20.6763 42.6395 20.6487 42.3549 20.707C42.0703 20.7653 41.8095 20.9069 41.6057 21.1138C41.4019 21.3207 41.2643 21.5834 41.2104 21.8687C41.1566 22.1539 41.1889 22.4487 41.3032 22.7155C41.4175 22.9824 41.6088 23.2092 41.8525 23.3671C42.0963 23.5251 42.3816 23.6069 42.6721 23.6024C43.0591 23.5984 43.4292 23.443 43.7029 23.1696C43.9766 22.8961 44.1321 22.5264 44.1361 22.1397H44.1131ZM47.0489 33.8566C47.0504 33.567 46.9659 33.2835 46.8059 33.0419C46.646 32.8004 46.4178 32.6117 46.1505 32.4998C45.8831 32.3879 45.5885 32.3579 45.304 32.4135C45.0195 32.469 44.7579 32.6077 44.5524 32.812C44.3468 33.0162 44.2066 33.2768 44.1495 33.5608C44.0924 33.8447 44.1209 34.1392 44.2315 34.407C44.3421 34.6747 44.5298 34.9036 44.7707 35.0646C45.0116 35.2257 45.295 35.3117 45.5849 35.3117C45.7798 35.3127 45.973 35.2752 46.1534 35.2014C46.3337 35.1276 46.4977 35.0189 46.6359 34.8815C46.7741 34.7442 46.8837 34.5809 46.9586 34.4011C47.0334 34.2212 47.0719 34.0284 47.0719 33.8337L47.0489 33.8566ZM44.1131 45.543C44.11 45.253 44.0208 44.9706 43.8567 44.7315C43.6926 44.4923 43.461 44.3073 43.1915 44.1999C42.9219 44.0925 42.6265 44.0676 42.3427 44.1283C42.059 44.189 41.7997 44.3326 41.5977 44.5408C41.3958 44.749 41.2603 45.0125 41.2086 45.2978C41.1568 45.583 41.1911 45.8773 41.3071 46.143C41.423 46.4088 41.6154 46.6342 41.8598 46.7905C42.1042 46.9468 42.3896 47.027 42.6798 47.021C43.0681 47.015 43.4385 46.8566 43.711 46.58C43.9835 46.3035 44.1362 45.931 44.1361 45.543H44.1131Z" fill="#410EAD"/>
<path d="M17.0965 17.5601H26.7546C27.1429 17.5601 27.5153 17.7142 27.7898 17.9885C28.0644 18.2628 28.2186 18.6348 28.2186 19.0228C28.2186 19.4107 28.0644 19.7827 27.7898 20.0571C27.5153 20.3314 27.1429 20.4855 26.7546 20.4855H7.45366C7.20083 20.5068 6.94679 20.4621 6.71645 20.3558C6.48612 20.2495 6.28739 20.0852 6.13976 19.879C5.99214 19.6728 5.90068 19.4318 5.87436 19.1797C5.84803 18.9276 5.88775 18.6729 5.98961 18.4407C6.1159 18.1479 6.33313 17.9035 6.6092 17.7435C6.88527 17.5835 7.20553 17.5165 7.52265 17.5524L17.0965 17.5601Z" fill="#410EAD"/>
<path d="M17.0449 26.34H7.4328C7.17555 26.3595 6.91774 26.3103 6.68574 26.1975C6.45374 26.0848 6.25588 25.9125 6.11242 25.6983C5.96895 25.484 5.88501 25.2356 5.86919 24.9783C5.85338 24.721 5.90626 24.4642 6.02241 24.234C6.15321 23.9692 6.36039 23.7497 6.61723 23.6036C6.87408 23.4576 7.16881 23.3917 7.46346 23.4146C9.76302 23.4146 12.1469 23.4146 14.4848 23.4146H26.7491C27.0012 23.3955 27.2541 23.4417 27.4832 23.5487C27.7123 23.6556 27.91 23.8198 28.0571 24.0253C28.2042 24.2308 28.2959 24.4707 28.3232 24.7219C28.3505 24.9731 28.3126 25.227 28.2131 25.4593C28.0834 25.7412 27.871 25.9771 27.6041 26.1357C27.3371 26.2944 27.0283 26.3683 26.7184 26.3477L17.0449 26.34Z" fill="#410EAD"/>
<path d="M17.041 32.1922H7.42888C7.17121 32.211 6.91316 32.1609 6.68122 32.0472C6.44928 31.9335 6.25181 31.7602 6.10903 31.545C5.96626 31.3299 5.88333 31.0807 5.86877 30.823C5.85421 30.5653 5.90853 30.3083 6.02615 30.0785C6.15564 29.8144 6.36144 29.5951 6.61696 29.449C6.87249 29.3029 7.16599 29.2368 7.45954 29.2591H26.7298C26.9826 29.2378 27.2367 29.2825 27.467 29.3888C27.6974 29.4951 27.8961 29.6594 28.0437 29.8656C28.1913 30.0718 28.2828 30.3127 28.3091 30.5649C28.3354 30.817 28.2957 31.0716 28.1939 31.3038C28.0684 31.5885 27.8566 31.8266 27.5884 31.9846C27.3203 32.1426 27.0092 32.2125 26.6992 32.1845C23.4798 32.1845 20.2604 32.1922 17.041 32.1922Z" fill="#410EAD"/>
<path d="M12.217 5.85141H16.9234C17.1283 5.83044 17.3353 5.85264 17.531 5.9166C17.7267 5.98056 17.9068 6.08484 18.0597 6.2227C18.2125 6.36056 18.3347 6.52894 18.4183 6.71693C18.502 6.90493 18.5452 7.10837 18.5452 7.31411C18.5452 7.51984 18.502 7.72329 18.4183 7.91129C18.3347 8.09929 18.2125 8.26765 18.0597 8.40551C17.9068 8.54337 17.7267 8.64765 17.531 8.71161C17.3353 8.77557 17.1283 8.79778 16.9234 8.77681H7.49526C7.29042 8.79778 7.08345 8.77557 6.88773 8.71161C6.69201 8.64765 6.5119 8.54337 6.35905 8.40551C6.20621 8.26765 6.08402 8.09929 6.00039 7.91129C5.91676 7.72329 5.87354 7.51984 5.87354 7.31411C5.87354 7.10837 5.91676 6.90493 6.00039 6.71693C6.08402 6.52894 6.20621 6.36056 6.35905 6.2227C6.5119 6.08484 6.69201 5.98056 6.88773 5.9166C7.08345 5.85264 7.29042 5.83044 7.49526 5.85141H12.217Z" fill="#410EAD"/>
<path d="M12.203 14.6323H7.52725C7.3224 14.6532 7.11542 14.631 6.9197 14.5671C6.72398 14.5031 6.54388 14.3988 6.39104 14.261C6.23819 14.1231 6.11599 13.9548 6.03236 13.7668C5.94873 13.5788 5.90552 13.3753 5.90552 13.1696C5.90552 12.9639 5.94873 12.7604 6.03236 12.5724C6.11599 12.3844 6.23819 12.216 6.39104 12.0782C6.54388 11.9403 6.72398 11.836 6.9197 11.7721C7.11542 11.7081 7.3224 11.6859 7.52725 11.7069C10.6649 11.7069 13.7999 11.7069 16.9324 11.7069C17.1373 11.6859 17.3442 11.7081 17.54 11.7721C17.7357 11.836 17.9158 11.9403 18.0686 12.0782C18.2215 12.216 18.3437 12.3844 18.4273 12.5724C18.5109 12.7604 18.5541 12.9639 18.5541 13.1696C18.5541 13.3753 18.5109 13.5788 18.4273 13.7668C18.3437 13.9548 18.2215 14.1231 18.0686 14.261C17.9158 14.3988 17.7357 14.5031 17.54 14.5671C17.3442 14.631 17.1373 14.6532 16.9324 14.6323H12.203Z" fill="#410EAD"/>
<path d="M11.2266 35.1209H14.9748C15.1797 35.1 15.3867 35.1222 15.5824 35.1861C15.7781 35.2501 15.9582 35.3544 16.111 35.4922C16.2639 35.6301 16.3861 35.7985 16.4697 35.9865C16.5534 36.1745 16.5966 36.3779 16.5966 36.5836C16.5966 36.7894 16.5534 36.9928 16.4697 37.1808C16.3861 37.3688 16.2639 37.5372 16.111 37.6751C15.9582 37.8129 15.7781 37.9172 15.5824 37.9811C15.3867 38.0451 15.1797 38.0673 14.9748 38.0464H7.51661C7.31177 38.0673 7.1048 38.0451 6.90908 37.9811C6.71336 37.9172 6.53325 37.8129 6.3804 37.6751C6.22756 37.5372 6.10537 37.3688 6.02174 37.1808C5.93811 36.9928 5.8949 36.7894 5.8949 36.5836C5.8949 36.3779 5.93811 36.1745 6.02174 35.9865C6.10537 35.7985 6.22756 35.6301 6.3804 35.4922C6.53325 35.3544 6.71336 35.2501 6.90908 35.1861C7.1048 35.1222 7.31177 35.1 7.51661 35.1209H11.2266Z" fill="#410EAD"/>
<path d="M22.9592 41.1678H26.7151C26.92 41.1468 27.1269 41.1691 27.3227 41.233C27.5184 41.297 27.6985 41.4012 27.8513 41.5391C28.0042 41.677 28.1264 41.8453 28.21 42.0333C28.2936 42.2213 28.3368 42.4248 28.3368 42.6305C28.3368 42.8363 28.2936 43.0397 28.21 43.2277C28.1264 43.4157 28.0042 43.5841 27.8513 43.7219C27.6985 43.8598 27.5184 43.9641 27.3227 44.028C27.1269 44.092 26.92 44.1142 26.7151 44.0932H19.1573C18.9524 44.1142 18.7454 44.092 18.5497 44.028C18.354 43.9641 18.1739 43.8598 18.021 43.7219C17.8682 43.5841 17.746 43.4157 17.6624 43.2277C17.5787 43.0397 17.5355 42.8363 17.5355 42.6305C17.5355 42.4248 17.5787 42.2213 17.6624 42.0333C17.746 41.8453 17.8682 41.677 18.021 41.5391C18.1739 41.4012 18.354 41.297 18.5497 41.233C18.7454 41.1691 18.9524 41.1468 19.1573 41.1678C20.422 41.1602 21.6944 41.1678 22.9592 41.1678Z" fill="#410EAD"/>
<path d="M34.1059 50.9541H2.07313C1.60303 50.7264 1.22455 50.3455 1 49.8743V2.07214C1.2202 1.59967 1.60022 1.22 2.07313 1H24.3405C24.6605 1.2107 24.9653 1.44357 25.2526 1.69689C28.3187 4.76015 31.3848 7.8234 34.5122 10.8867C34.736 11.0969 34.9121 11.3527 35.0284 11.6367C35.1448 11.9208 35.1988 12.2265 35.1867 12.5332C35.1867 17.3272 35.1867 22.1212 35.1867 26.9152V27.4972C35.8122 27.4623 36.4392 27.4623 37.0647 27.4972C37.3941 27.5673 37.7373 27.5309 38.0446 27.3932C38.3519 27.2555 38.6073 27.0237 38.774 26.7314C39.0184 26.3631 39.301 26.0217 39.6172 25.7128C39.7249 25.6193 39.794 25.4892 39.811 25.3476C39.828 25.2061 39.7917 25.0633 39.7092 24.947C39.3991 24.2865 39.2596 23.5588 39.3036 22.8306C39.3475 22.1023 39.5735 21.3967 39.9608 20.7781C40.3481 20.1596 40.8844 19.648 41.5207 19.2899C42.157 18.9319 42.8729 18.7389 43.6031 18.7286C44.4388 18.7152 45.261 18.9407 45.9727 19.3787C46.6844 19.8166 47.256 20.4486 47.6201 21.2003C47.9842 21.952 48.1257 22.792 48.0278 23.6214C47.93 24.4507 47.5969 25.2348 47.0678 25.8813C46.5496 26.5501 45.8413 27.0469 45.0356 27.3065C44.23 27.5662 43.3646 27.5766 42.553 27.3364C42.4294 27.2863 42.2921 27.2819 42.1656 27.324C42.0391 27.3661 41.9318 27.452 41.8631 27.5661C41.2959 28.2783 40.6827 28.9522 40.1231 29.6721C39.9385 29.9297 39.6906 30.1354 39.4033 30.2695C39.116 30.4037 38.799 30.4616 38.4828 30.4379C37.402 30.4379 36.3135 30.4379 35.2174 30.4379V33.348H42.4533C42.5223 33.2025 42.576 33.0646 42.645 32.9345C43.0089 32.1765 43.5835 31.5392 44.3002 31.0986C45.0168 30.658 45.8452 30.4327 46.6865 30.4497C47.5278 30.4666 48.3464 30.7251 49.0447 31.1942C49.7429 31.6633 50.2913 32.3232 50.6244 33.0953C50.7737 33.4699 50.8991 33.8536 51 34.244V35.4157L50.885 35.8292C50.6978 36.6872 50.2497 37.4664 49.602 38.06C48.9543 38.6536 48.1388 39.0327 47.2671 39.1452C46.4362 39.2982 45.5784 39.1974 44.8058 38.8558C44.0332 38.5143 43.3817 37.9479 42.9362 37.2307C42.7605 36.9507 42.5994 36.6618 42.4533 36.3653H35.2327V39.2677C36.3365 39.2677 37.4096 39.2677 38.4828 39.2677C38.799 39.244 39.116 39.302 39.4033 39.4361C39.6906 39.5702 39.9385 39.776 40.1231 40.0335C40.6827 40.7534 41.3035 41.4273 41.8631 42.1395C41.9386 42.2671 42.0599 42.3611 42.2023 42.4023C42.3447 42.4436 42.4976 42.429 42.6296 42.3616C43.68 42.0976 44.791 42.2313 45.7485 42.7369C46.706 43.2426 47.4423 44.0845 47.8155 45.1003C48.1887 46.1161 48.1724 47.234 47.7696 48.2385C47.3669 49.243 46.6063 50.063 45.6344 50.5405C45.201 50.7176 44.7584 50.871 44.3083 51H43.1355C43.0955 50.9711 43.0516 50.948 43.0052 50.9311C42.3214 50.8162 41.6744 50.5418 41.1167 50.1301C40.5591 49.7184 40.1065 49.181 39.7958 48.5617C39.4851 47.9424 39.3251 47.2585 39.3287 46.5658C39.3322 45.873 39.4994 45.1909 39.8165 44.5748C39.8396 44.5064 39.8468 44.4335 39.8375 44.3619C39.8282 44.2902 39.8027 44.2216 39.7628 44.1613C39.2876 43.5639 38.797 42.9819 38.2988 42.3999C38.2192 42.3047 38.1074 42.242 37.9845 42.2238C37.08 42.2238 36.1679 42.2238 35.2251 42.2238V42.7981C35.2251 44.8811 35.2251 46.9642 35.2251 49.0395C35.2675 49.4362 35.1818 49.836 34.9804 50.1805C34.779 50.525 34.4726 50.7961 34.1059 50.9541ZM3.9511 47.9903H32.2126V13.6819H24.1719C23.9452 13.7058 23.716 13.6789 23.5011 13.6032C23.2861 13.5275 23.0908 13.4049 22.9292 13.2442C22.7677 13.0836 22.6441 12.8889 22.5673 12.6745C22.4905 12.4601 22.4626 12.2313 22.4855 12.0048V3.95604H3.9511V47.9903ZM25.4136 6.1769V10.7258H29.9667L25.4136 6.1769ZM45.1131 23.1397C45.1131 22.8494 45.0266 22.5657 44.8647 22.3247C44.7028 22.0837 44.4728 21.8963 44.2039 21.7863C43.9351 21.6763 43.6395 21.6487 43.3549 21.707C43.0703 21.7653 42.8095 21.9069 42.6057 22.1138C42.4019 22.3207 42.2643 22.5834 42.2104 22.8687C42.1566 23.1539 42.1889 23.4487 42.3032 23.7155C42.4175 23.9824 42.6088 24.2092 42.8525 24.3671C43.0963 24.5251 43.3816 24.6069 43.6721 24.6024C44.0591 24.5984 44.4292 24.443 44.7029 24.1696C44.9766 23.8961 45.1321 23.5264 45.1361 23.1397H45.1131ZM48.0489 34.8566C48.0504 34.567 47.9659 34.2835 47.8059 34.0419C47.646 33.8004 47.4178 33.6117 47.1505 33.4998C46.8831 33.3879 46.5885 33.3579 46.304 33.4135C46.0195 33.469 45.7579 33.6077 45.5524 33.812C45.3468 34.0162 45.2066 34.2768 45.1495 34.5608C45.0924 34.8447 45.1209 35.1392 45.2315 35.407C45.3421 35.6747 45.5298 35.9036 45.7707 36.0646C46.0116 36.2257 46.295 36.3117 46.5849 36.3117C46.7798 36.3127 46.973 36.2752 47.1534 36.2014C47.3337 36.1276 47.4977 36.0189 47.6359 35.8815C47.7741 35.7442 47.8837 35.5809 47.9586 35.4011C48.0334 35.2212 48.0719 35.0284 48.0719 34.8337L48.0489 34.8566ZM45.1131 46.543C45.11 46.253 45.0208 45.9706 44.8567 45.7315C44.6926 45.4923 44.461 45.3073 44.1915 45.1999C43.9219 45.0925 43.6265 45.0676 43.3427 45.1283C43.059 45.189 42.7997 45.3326 42.5977 45.5408C42.3958 45.749 42.2603 46.0125 42.2086 46.2978C42.1568 46.583 42.1911 46.8773 42.3071 47.143C42.423 47.4088 42.6154 47.6342 42.8598 47.7905C43.1042 47.9468 43.3896 48.027 43.6798 48.021C44.0681 48.015 44.4385 47.8566 44.711 47.58C44.9835 47.3035 45.1362 46.931 45.1361 46.543H45.1131Z" fill="url(#paint0_linear_1323_474)"/>
<path d="M17.1874 17.6499H26.8455C27.2338 17.6499 27.6062 17.804 27.8808 18.0783C28.1553 18.3526 28.3096 18.7247 28.3096 19.1126C28.3096 19.5005 28.1553 19.8726 27.8808 20.1469C27.6062 20.4212 27.2338 20.5753 26.8455 20.5753H7.5446C7.29177 20.5966 7.03773 20.552 6.8074 20.4456C6.57706 20.3393 6.37833 20.175 6.23071 19.9688C6.08308 19.7626 5.99162 19.5217 5.9653 19.2695C5.93897 19.0174 5.97869 18.7628 6.08055 18.5306C6.20684 18.2378 6.42407 17.9933 6.70014 17.8333C6.97621 17.6734 7.29647 17.6064 7.61359 17.6423L17.1874 17.6499Z" fill="url(#paint1_linear_1323_474)"/>
<path d="M17.1359 26.4298H7.52375C7.26649 26.4493 7.00868 26.4001 6.77668 26.2874C6.54468 26.1746 6.34683 26.0023 6.20336 25.7881C6.05989 25.5739 5.97595 25.3254 5.96014 25.0681C5.94432 24.8109 5.9972 24.554 6.11336 24.3239C6.24416 24.0591 6.45133 23.8395 6.70817 23.6935C6.96502 23.5474 7.25976 23.4816 7.5544 23.5044C9.85396 23.5044 12.2378 23.5044 14.5757 23.5044H26.84C27.0922 23.4854 27.345 23.5315 27.5741 23.6385C27.8032 23.7455 28.0009 23.9096 28.148 24.1151C28.2952 24.3206 28.3868 24.5605 28.4142 24.8117C28.4415 25.0629 28.4036 25.3169 28.3041 25.5492C28.1743 25.8311 27.9619 26.067 27.695 26.2256C27.4281 26.3842 27.1192 26.4581 26.8094 26.4375L17.1359 26.4298Z" fill="url(#paint2_linear_1323_474)"/>
<path d="M17.132 32.282H7.51983C7.26215 32.3008 7.0041 32.2508 6.77216 32.1371C6.54022 32.0233 6.34275 31.85 6.19998 31.6349C6.0572 31.4198 5.97428 31.1706 5.95971 30.9128C5.94515 30.6551 5.99947 30.3982 6.1171 30.1684C6.24658 29.9042 6.45238 29.6849 6.7079 29.5388C6.96343 29.3928 7.25693 29.3266 7.55048 29.3489H26.8208C27.0736 29.3276 27.3276 29.3723 27.558 29.4786C27.7883 29.585 27.987 29.7493 28.1347 29.9554C28.2823 30.1616 28.3737 30.4026 28.4001 30.6547C28.4264 30.9068 28.3867 31.1615 28.2848 31.3937C28.1593 31.6783 27.9475 31.9164 27.6794 32.0744C27.4112 32.2324 27.1002 32.3024 26.7901 32.2743C23.5707 32.2743 20.3513 32.282 17.132 32.282Z" fill="url(#paint3_linear_1323_474)"/>
<path d="M12.308 5.94516H17.0144C17.2192 5.92419 17.4262 5.94639 17.6219 6.01035C17.8176 6.07431 17.9977 6.17859 18.1506 6.31645C18.3034 6.45431 18.4256 6.62269 18.5093 6.81068C18.5929 6.99868 18.6361 7.20212 18.6361 7.40786C18.6361 7.61359 18.5929 7.81704 18.5093 8.00504C18.4256 8.19304 18.3034 8.3614 18.1506 8.49926C17.9977 8.63712 17.8176 8.7414 17.6219 8.80536C17.4262 8.86932 17.2192 8.89153 17.0144 8.87056H7.58621C7.38136 8.89153 7.17439 8.86932 6.97867 8.80536C6.78296 8.7414 6.60284 8.63712 6.45 8.49926C6.29715 8.3614 6.17497 8.19304 6.09133 8.00504C6.0077 7.81704 5.96448 7.61359 5.96448 7.40786C5.96448 7.20212 6.0077 6.99868 6.09133 6.81068C6.17497 6.62269 6.29715 6.45431 6.45 6.31645C6.60284 6.17859 6.78296 6.07431 6.97867 6.01035C7.17439 5.94639 7.38136 5.92419 7.58621 5.94516H12.308Z" fill="url(#paint4_linear_1323_474)"/>
<path d="M12.2939 14.726H7.61819C7.41334 14.747 7.20636 14.7248 7.01064 14.6608C6.81493 14.5969 6.63483 14.4926 6.48198 14.3547C6.32913 14.2169 6.20694 14.0485 6.1233 13.8605C6.03967 13.6725 5.99646 13.4691 5.99646 13.2633C5.99646 13.0576 6.03967 12.8542 6.1233 12.6662C6.20694 12.4782 6.32913 12.3098 6.48198 12.1719C6.63483 12.0341 6.81493 11.9298 7.01064 11.8658C7.20636 11.8019 7.41334 11.7797 7.61819 11.8006C10.7558 11.8006 13.8909 11.8006 17.0234 11.8006C17.2282 11.7797 17.4352 11.8019 17.6309 11.8658C17.8266 11.9298 18.0067 12.0341 18.1596 12.1719C18.3124 12.3098 18.4346 12.4782 18.5182 12.6662C18.6019 12.8542 18.6451 13.0576 18.6451 13.2633C18.6451 13.4691 18.6019 13.6725 18.5182 13.8605C18.4346 14.0485 18.3124 14.2169 18.1596 14.3547C18.0067 14.4926 17.8266 14.5969 17.6309 14.6608C17.4352 14.7248 17.2282 14.747 17.0234 14.726H12.2939Z" fill="url(#paint5_linear_1323_474)"/>
<path d="M11.3175 35.2108H15.0658C15.2706 35.1898 15.4776 35.212 15.6733 35.276C15.869 35.3399 16.0491 35.4442 16.202 35.5821C16.3548 35.7199 16.477 35.8883 16.5607 36.0763C16.6443 36.2643 16.6875 36.4678 16.6875 36.6735C16.6875 36.8792 16.6443 37.0827 16.5607 37.2707C16.477 37.4587 16.3548 37.627 16.202 37.7649C16.0491 37.9028 15.869 38.007 15.6733 38.071C15.4776 38.135 15.2706 38.1572 15.0658 38.1362H7.60756C7.40271 38.1572 7.19574 38.135 7.00002 38.071C6.80431 38.007 6.6242 37.9028 6.47135 37.7649C6.3185 37.627 6.19632 37.4587 6.11268 37.2707C6.02905 37.0827 5.98584 36.8792 5.98584 36.6735C5.98584 36.4678 6.02905 36.2643 6.11268 36.0763C6.19632 35.8883 6.3185 35.7199 6.47135 35.5821C6.6242 35.4442 6.80431 35.3399 7.00002 35.276C7.19574 35.212 7.40271 35.1898 7.60756 35.2108H11.3175Z" fill="url(#paint6_linear_1323_474)"/>
<path d="M23.0501 41.2616H26.8061C27.0109 41.2406 27.2179 41.2628 27.4136 41.3268C27.6093 41.3907 27.7894 41.495 27.9423 41.6329C28.0951 41.7707 28.2173 41.9391 28.3009 42.1271C28.3846 42.3151 28.4278 42.5185 28.4278 42.7243C28.4278 42.93 28.3846 43.1334 28.3009 43.3214C28.2173 43.5094 28.0951 43.6778 27.9423 43.8157C27.7894 43.9535 27.6093 44.0578 27.4136 44.1218C27.2179 44.1857 27.0109 44.2079 26.8061 44.187H19.2482C19.0433 44.2079 18.8364 44.1857 18.6406 44.1218C18.4449 44.0578 18.2648 43.9535 18.112 43.8157C17.9591 43.6778 17.8369 43.5094 17.7533 43.3214C17.6697 43.1334 17.6265 42.93 17.6265 42.7243C17.6265 42.5185 17.6697 42.3151 17.7533 42.1271C17.8369 41.9391 17.9591 41.7707 18.112 41.6329C18.2648 41.495 18.4449 41.3907 18.6406 41.3268C18.8364 41.2628 19.0433 41.2406 19.2482 41.2616C20.5129 41.2539 21.7854 41.2616 23.0501 41.2616Z" fill="url(#paint7_linear_1323_474)"/>
<defs>
<linearGradient id="paint0_linear_1323_474" x1="1" y1="2.81818" x2="34.1818" y2="51" gradientUnits="userSpaceOnUse">
<stop stop-color="white" stop-opacity="0.66"/>
<stop offset="1" stop-color="#C8C8C8" stop-opacity="0"/>
</linearGradient>
<linearGradient id="paint1_linear_1323_474" x1="17.1335" y1="17.6328" x2="17.1335" y2="20.5805" gradientUnits="userSpaceOnUse">
<stop stop-color="white" stop-opacity="0.66"/>
<stop offset="1" stop-color="#410EAD" stop-opacity="0"/>
</linearGradient>
<linearGradient id="paint2_linear_1323_474" x1="17.1901" y1="23.5" x2="17.1901" y2="26.4409" gradientUnits="userSpaceOnUse">
<stop stop-color="white" stop-opacity="0.66"/>
<stop offset="1" stop-color="#410EAD" stop-opacity="0"/>
</linearGradient>
<linearGradient id="paint3_linear_1323_474" x1="17.1827" y1="29.3438" x2="17.1827" y2="32.2859" gradientUnits="userSpaceOnUse">
<stop stop-color="white" stop-opacity="0.66"/>
<stop offset="1" stop-color="#410EAD" stop-opacity="0"/>
</linearGradient>
<linearGradient id="paint4_linear_1323_474" x1="12.3003" y1="5.9375" x2="12.3003" y2="8.87822" gradientUnits="userSpaceOnUse">
<stop stop-color="white" stop-opacity="0.66"/>
<stop offset="1" stop-color="#410EAD" stop-opacity="0"/>
</linearGradient>
<linearGradient id="paint5_linear_1323_474" x1="12.3208" y1="11.793" x2="12.3208" y2="14.7337" gradientUnits="userSpaceOnUse">
<stop stop-color="white" stop-opacity="0.66"/>
<stop offset="1" stop-color="#410EAD" stop-opacity="0"/>
</linearGradient>
<linearGradient id="paint6_linear_1323_474" x1="11.3367" y1="35.2031" x2="11.3367" y2="38.1439" gradientUnits="userSpaceOnUse">
<stop stop-color="white" stop-opacity="0.66"/>
<stop offset="1" stop-color="#410EAD" stop-opacity="0"/>
</linearGradient>
<linearGradient id="paint7_linear_1323_474" x1="23.0271" y1="41.2539" x2="23.0271" y2="44.1946" gradientUnits="userSpaceOnUse">
<stop stop-color="white" stop-opacity="0.66"/>
<stop offset="1" stop-color="#410EAD" stop-opacity="0"/>
</linearGradient>
</defs>
</svg>
