<svg width="51" height="51" viewBox="0 0 51 51" fill="none" xmlns="http://www.w3.org/2000/svg">
<path d="M49.9845 26.5686C49.8608 27.4842 49.7835 28.3999 49.5979 29.2999C47.6956 38.8596 42.2517 45.4551 32.9722 48.6365C29.7419 49.7536 26.3169 50.1909 22.9107 49.9209C19.5045 49.6509 16.1904 48.6796 13.1749 47.0674C10.1594 45.4552 7.50739 43.2368 5.38422 40.5506C3.26104 37.8644 1.71229 34.7679 0.834562 31.4545C-0.0431613 28.141 -0.231022 24.6816 0.282704 21.292C0.796429 17.9025 2.00072 14.6555 3.82044 11.7537C5.64017 8.85191 8.03628 6.35749 10.8593 4.42608C13.6823 2.49467 16.8717 1.1677 20.2285 0.527962C21.3111 0.326217 22.3937 0.202064 23.4918 0.046875H26.5849C27.4974 0.171026 28.4099 0.279658 29.3069 0.434847C30.2039 0.590035 31.0854 0.807299 31.967 1.04008C32.3628 1.15121 32.6984 1.41557 32.9 1.77499C33.1016 2.13442 33.1526 2.55948 33.0418 2.95666C32.9311 3.35384 32.6676 3.69061 32.3094 3.89288C31.9512 4.09515 31.5276 4.14635 31.1318 4.03522C28.4368 3.25397 25.6171 3.00106 22.8267 3.29032C18.2357 3.78072 13.9188 5.72268 10.4995 8.83573C7.0802 11.9488 4.73546 16.0718 3.80391 20.6094C2.97479 24.3644 3.17705 28.2748 4.38911 31.9235C5.60118 35.5722 7.77758 38.8223 10.6861 41.3271C13.8021 44.2163 17.7372 46.0604 21.9452 46.6035C25.5466 47.1353 29.2235 46.752 32.6391 45.4886C36.0547 44.2253 39.0998 42.1224 41.4957 39.3724C43.8916 36.6223 45.5617 33.3131 46.3531 29.7477C47.1444 26.1824 47.0317 22.4747 46.0253 18.9644C45.9206 18.7186 45.8808 18.4498 45.91 18.1841C45.9392 17.9184 46.0363 17.6648 46.1918 17.4478C46.3474 17.2308 46.5562 17.0578 46.798 16.9456C47.0398 16.8334 47.3064 16.7857 47.5719 16.8073C47.9015 16.8102 48.2202 16.9255 48.476 17.1342C48.7317 17.3428 48.9091 17.6325 48.9793 17.9557C49.3195 19.5075 49.5979 21.1991 49.9072 22.8286L50 23.4493L49.9845 26.5686Z" fill="#410EAD"/>
<path d="M49.9851 9.49755C49.7133 9.89194 49.419 10.2702 49.1036 10.6304C47.557 12.2754 45.8403 13.8894 44.2319 15.5344C43.801 15.998 43.2079 16.2761 42.577 16.3103C40.2262 16.5276 37.9373 16.7604 35.5247 17.0242C35.2918 17.0687 35.0799 17.1886 34.9215 17.3656C32.0603 20.2211 29.1992 23.1076 26.338 25.9786C26.1501 26.1976 25.909 26.3641 25.638 26.462C25.367 26.5599 25.0754 26.5858 24.7915 26.5373C24.5192 26.4834 24.2664 26.3569 24.0596 26.1713C23.8528 25.9856 23.6996 25.7475 23.6161 25.482C23.5281 25.2165 23.5133 24.9322 23.5732 24.659C23.6331 24.3858 23.7655 24.134 23.9563 23.9301C24.343 23.5111 24.7451 23.1231 25.1472 22.7196L32.679 15.1775C32.9111 14.9572 33.0543 14.6589 33.0811 14.3394C33.2976 12.0116 33.5451 9.68377 33.7616 7.35594C33.7935 6.76348 34.0543 6.20681 34.4885 5.80405C36.1433 4.17457 37.7827 2.49854 39.4375 0.853537C39.7777 0.52764 40.1798 0.27934 40.5356 0H41.3243C41.6973 0.157063 42.0123 0.4267 42.2257 0.771515C42.4391 1.11633 42.5403 1.51923 42.5152 1.92434C42.5152 3.47622 42.7626 5.12122 42.8709 6.71967C42.8709 6.99901 42.9946 7.10764 43.273 7.12316C44.8196 7.23179 46.4744 7.41802 48.0674 7.48009C48.4699 7.4617 48.8683 7.56797 49.2086 7.78451C49.5489 8.00105 49.8146 8.31736 49.9696 8.69056L49.9851 9.49755ZM39.654 5.10571L36.9475 7.82151C36.8774 7.94441 36.8401 8.08339 36.8393 8.225C36.7155 9.35788 36.5918 10.4752 36.4835 11.6081C36.4062 12.3375 36.3443 13.0514 36.2825 13.7963C38.1229 13.61 39.886 13.4238 41.6646 13.2686C41.9992 13.2444 42.3106 13.0882 42.5306 12.8341L44.6185 10.7235C44.7131 10.6262 44.8009 10.5225 44.8814 10.4132L43.3349 10.2735L41.7883 10.1649C40.3654 10.1649 39.886 9.60618 39.7932 8.19396C39.8241 7.20075 39.7313 6.22307 39.654 5.10571Z" fill="#410EAD"/>
<path d="M25.1 42.2394C20.8 42.3222 16.6257 40.7825 13.403 37.9248C10.1802 35.0672 8.1438 31.0998 7.69661 26.8077C7.24943 22.5156 8.42406 18.2114 10.9881 14.7467C13.5522 11.282 17.3188 8.90924 21.5429 8.09786C24.2119 7.50714 26.9851 7.5871 29.616 8.33063C29.9562 8.41861 30.2565 8.62023 30.4674 8.90231C30.6782 9.18439 30.787 9.5301 30.7759 9.88252C30.8116 10.2308 30.7199 10.5803 30.5179 10.8658C30.3159 11.1513 30.0173 11.3534 29.6778 11.4344C29.3211 11.5121 28.9519 11.5121 28.5952 11.4344C26.0245 10.7401 23.308 10.8105 20.7764 11.6371C18.2448 12.4636 16.0072 14.0107 14.3358 16.0901C12.8142 17.9379 11.7886 20.1455 11.3565 22.503C10.9245 24.8605 11.1002 27.2897 11.8672 29.5599C12.6341 31.8301 13.9667 33.8658 15.7384 35.4737C17.5101 37.0816 19.662 38.2083 21.9898 38.7468C24.3176 39.2853 26.744 39.2176 29.0384 38.5503C31.3328 37.8829 33.4191 36.638 35.099 34.9339C36.779 33.2297 37.9969 31.1228 38.6369 28.8134C39.277 26.504 39.3181 24.0687 38.7562 21.7389C38.6472 21.3346 38.6209 20.9123 38.6789 20.4974C38.7782 20.1675 38.984 19.8802 39.2641 19.6807C39.5441 19.4812 39.8823 19.3809 40.2254 19.3956C40.5706 19.3818 40.9103 19.4843 41.1906 19.6868C41.4709 19.8893 41.6756 20.1802 41.772 20.5129C42.2092 22.0834 42.4175 23.709 42.3906 25.3393C42.3262 29.2279 40.9547 32.9807 38.4984 35.9891C36.042 38.9975 32.645 41.0851 28.8581 41.9135C28.4346 42.0137 28.0062 42.0914 27.5745 42.1463C26.662 42.1307 25.8887 42.1773 25.1 42.2394Z" fill="#410EAD"/>
<path d="M25.3169 18.7889C23.7483 18.7248 22.2141 19.2615 21.0252 20.2902C19.8362 21.319 19.0816 22.7628 18.9141 24.3292C18.8511 25.1443 18.9488 25.964 19.2015 26.7413C19.4543 27.5186 19.8571 28.2384 20.387 28.8595C20.9169 29.4806 21.5636 29.9908 22.2901 30.3612C23.0165 30.7315 23.8086 30.9546 24.621 31.0178C25.4333 31.081 26.2502 30.983 27.0248 30.7294C27.7995 30.4758 28.5168 30.0716 29.1357 29.5398C30.3858 28.4659 31.1595 26.9377 31.2867 25.2913C31.2708 25.0795 31.2708 24.8668 31.2867 24.6551C31.3359 24.2435 31.546 23.8684 31.8709 23.6122C32.1957 23.3561 32.6087 23.24 33.0188 23.2894C33.429 23.3388 33.8028 23.5496 34.0581 23.8756C34.3133 24.2016 34.429 24.6159 34.3798 25.0275C34.401 26.4086 34.1034 27.7758 33.5105 29.0223C32.9175 30.2688 32.0453 31.3607 30.9619 32.2127C29.5675 33.3796 27.8626 34.1104 26.0584 34.3145C24.2542 34.5186 22.43 34.1872 20.8117 33.3612C19.1934 32.5352 17.8521 31.251 16.954 29.6676C16.0559 28.0842 15.6404 26.2713 15.7591 24.4533C15.8277 23.2186 16.1407 22.0101 16.6798 20.8981C17.2189 19.7861 17.9733 18.793 18.899 17.9768C19.8248 17.1606 20.9033 16.5376 22.0715 16.1441C23.2398 15.7506 24.4745 15.5946 25.7036 15.6851C25.9533 15.6758 26.2022 15.7193 26.434 15.8129C26.6658 15.9064 26.8754 16.048 27.0491 16.2283C27.2449 16.4449 27.3757 16.7127 27.4265 17.0007C27.4772 17.2887 27.4458 17.5853 27.3359 17.8562C27.226 18.1271 27.042 18.3613 26.8052 18.5318C26.5684 18.7023 26.2884 18.8022 25.9974 18.82L25.3169 18.7889Z" fill="#410EAD"/>
<path d="M50.9845 27.5686C50.8608 28.4842 50.7835 29.3999 50.5979 30.2999C48.6956 39.8596 43.2517 46.4551 33.9722 49.6365C30.7419 50.7536 27.3169 51.1909 23.9107 50.9209C20.5045 50.6509 17.1904 49.6796 14.1749 48.0674C11.1594 46.4552 8.50739 44.2368 6.38422 41.5506C4.26104 38.8644 2.71229 35.7679 1.83456 32.4545C0.956839 29.141 0.768978 25.6816 1.2827 22.292C1.79643 18.9025 3.00072 15.6555 4.82044 12.7537C6.64017 9.85191 9.03628 7.35749 11.8593 5.42608C14.6823 3.49467 17.8717 2.1677 21.2285 1.52796C22.3111 1.32622 23.3937 1.20206 24.4918 1.04688H27.5849C28.4974 1.17103 29.4099 1.27966 30.3069 1.43485C31.2039 1.59004 32.0854 1.8073 32.967 2.04008C33.3628 2.15121 33.6984 2.41557 33.9 2.77499C34.1016 3.13442 34.1526 3.55948 34.0418 3.95666C33.9311 4.35384 33.6676 4.69061 33.3094 4.89288C32.9512 5.09515 32.5276 5.14635 32.1318 5.03522C29.4368 4.25397 26.6171 4.00106 23.8267 4.29032C19.2357 4.78072 14.9188 6.72268 11.4995 9.83573C8.0802 12.9488 5.73546 17.0718 4.80391 21.6094C3.97479 25.3644 4.17705 29.2748 5.38911 32.9235C6.60118 36.5722 8.77758 39.8223 11.6861 42.3271C14.8021 45.2163 18.7372 47.0604 22.9452 47.6035C26.5466 48.1353 30.2235 47.752 33.6391 46.4886C37.0547 45.2253 40.0998 43.1224 42.4957 40.3724C44.8916 37.6223 46.5617 34.3131 47.3531 30.7477C48.1444 27.1824 48.0317 23.4747 47.0253 19.9644C46.9206 19.7186 46.8808 19.4498 46.91 19.1841C46.9392 18.9184 47.0363 18.6648 47.1918 18.4478C47.3474 18.2308 47.5562 18.0578 47.798 17.9456C48.0398 17.8334 48.3064 17.7857 48.5719 17.8073C48.9015 17.8102 49.2202 17.9255 49.476 18.1342C49.7317 18.3428 49.9091 18.6325 49.9793 18.9557C50.3195 20.5075 50.5979 22.1991 50.9072 23.8286L51 24.4493L50.9845 27.5686Z" fill="url(#paint0_linear_1501_308)"/>
<path d="M50.9851 10.4975C50.7133 10.8919 50.419 11.2702 50.1036 11.6304C48.557 13.2754 46.8403 14.8894 45.2319 16.5344C44.801 16.998 44.2079 17.2761 43.577 17.3103C41.2262 17.5276 38.9373 17.7604 36.5247 18.0242C36.2918 18.0687 36.0799 18.1886 35.9215 18.3656C33.0603 21.2211 30.1992 24.1076 27.338 26.9786C27.1501 27.1976 26.909 27.3641 26.638 27.462C26.367 27.5599 26.0754 27.5858 25.7915 27.5373C25.5192 27.4834 25.2664 27.3569 25.0596 27.1713C24.8528 26.9856 24.6996 26.7475 24.6161 26.482C24.5281 26.2165 24.5133 25.9322 24.5732 25.659C24.6331 25.3858 24.7655 25.134 24.9563 24.9301C25.343 24.5111 25.7451 24.1231 26.1472 23.7196L33.679 16.1775C33.9111 15.9572 34.0543 15.6589 34.0811 15.3394C34.2976 13.0116 34.5451 10.6838 34.7616 8.35594C34.7935 7.76348 35.0543 7.20681 35.4885 6.80405C37.1433 5.17457 38.7827 3.49854 40.4375 1.85354C40.7777 1.52764 41.1798 1.27934 41.5356 1H42.3243C42.6973 1.15706 43.0123 1.4267 43.2257 1.77152C43.4391 2.11633 43.5403 2.51923 43.5152 2.92434C43.5152 4.47622 43.7626 6.12122 43.8709 7.71967C43.8709 7.99901 43.9946 8.10764 44.273 8.12316C45.8196 8.23179 47.4744 8.41802 49.0674 8.48009C49.4699 8.4617 49.8683 8.56797 50.2086 8.78451C50.5489 9.00105 50.8146 9.31736 50.9696 9.69056L50.9851 10.4975ZM40.654 6.10571L37.9475 8.82151C37.8774 8.94441 37.8401 9.08339 37.8393 9.225C37.7155 10.3579 37.5918 11.4752 37.4835 12.6081C37.4062 13.3375 37.3443 14.0514 37.2825 14.7963C39.1229 14.61 40.886 14.4238 42.6646 14.2686C42.9992 14.2444 43.3106 14.0882 43.5306 13.8341L45.6185 11.7235C45.7131 11.6262 45.8009 11.5225 45.8814 11.4132L44.3349 11.2735L42.7883 11.1649C41.3654 11.1649 40.886 10.6062 40.7932 9.19396C40.8241 8.20075 40.7313 7.22307 40.654 6.10571Z" fill="url(#paint1_linear_1501_308)"/>
<path d="M26.1 43.2394C21.8 43.3222 17.6257 41.7825 14.403 38.9248C11.1802 36.0672 9.1438 32.0998 8.69661 27.8077C8.24943 23.5156 9.42406 19.2114 11.9881 15.7467C14.5522 12.282 18.3188 9.90924 22.5429 9.09786C25.2119 8.50714 27.9851 8.5871 30.616 9.33063C30.9562 9.41861 31.2565 9.62023 31.4674 9.90231C31.6782 10.1844 31.787 10.5301 31.7759 10.8825C31.8116 11.2308 31.7199 11.5803 31.5179 11.8658C31.3159 12.1513 31.0173 12.3534 30.6778 12.4344C30.3211 12.5121 29.9519 12.5121 29.5952 12.4344C27.0245 11.7401 24.308 11.8105 21.7764 12.6371C19.2448 13.4636 17.0072 15.0107 15.3358 17.0901C13.8142 18.9379 12.7886 21.1455 12.3565 23.503C11.9245 25.8605 12.1002 28.2897 12.8672 30.5599C13.6341 32.8301 14.9667 34.8658 16.7384 36.4737C18.5101 38.0816 20.662 39.2083 22.9898 39.7468C25.3176 40.2853 27.744 40.2176 30.0384 39.5503C32.3328 38.8829 34.4191 37.638 36.099 35.9339C37.779 34.2297 38.9969 32.1228 39.6369 29.8134C40.277 27.504 40.3181 25.0687 39.7562 22.7389C39.6472 22.3346 39.6209 21.9123 39.6789 21.4974C39.7782 21.1675 39.984 20.8802 40.2641 20.6807C40.5441 20.4812 40.8823 20.3809 41.2254 20.3956C41.5706 20.3818 41.9103 20.4843 42.1906 20.6868C42.4709 20.8893 42.6756 21.1802 42.772 21.5129C43.2092 23.0834 43.4175 24.709 43.3906 26.3393C43.3262 30.2279 41.9547 33.9807 39.4984 36.9891C37.042 39.9975 33.645 42.0851 29.8581 42.9135C29.4346 43.0137 29.0062 43.0914 28.5745 43.1463C27.662 43.1307 26.8887 43.1773 26.1 43.2394Z" fill="url(#paint2_linear_1501_308)"/>
<path d="M26.3169 19.7889C24.7483 19.7248 23.2141 20.2615 22.0252 21.2902C20.8362 22.319 20.0816 23.7628 19.9141 25.3292C19.8511 26.1443 19.9488 26.964 20.2015 27.7413C20.4543 28.5186 20.8571 29.2384 21.387 29.8595C21.9169 30.4806 22.5636 30.9908 23.2901 31.3612C24.0165 31.7315 24.8086 31.9546 25.621 32.0178C26.4333 32.081 27.2502 31.983 28.0248 31.7294C28.7995 31.4758 29.5168 31.0716 30.1357 30.5398C31.3858 29.4659 32.1595 27.9377 32.2867 26.2913C32.2708 26.0795 32.2708 25.8668 32.2867 25.6551C32.3359 25.2435 32.546 24.8684 32.8709 24.6122C33.1957 24.3561 33.6087 24.24 34.0188 24.2894C34.429 24.3388 34.8028 24.5496 35.0581 24.8756C35.3133 25.2016 35.429 25.6159 35.3798 26.0275C35.401 27.4086 35.1034 28.7758 34.5105 30.0223C33.9175 31.2688 33.0453 32.3607 31.9619 33.2127C30.5675 34.3796 28.8626 35.1104 27.0584 35.3145C25.2542 35.5186 23.43 35.1872 21.8117 34.3612C20.1934 33.5352 18.8521 32.251 17.954 30.6676C17.0559 29.0842 16.6404 27.2713 16.7591 25.4533C16.8277 24.2186 17.1407 23.0101 17.6798 21.8981C18.2189 20.7861 18.9733 19.793 19.899 18.9768C20.8248 18.1606 21.9033 17.5376 23.0715 17.1441C24.2398 16.7506 25.4745 16.5946 26.7036 16.6851C26.9533 16.6758 27.2022 16.7193 27.434 16.8129C27.6658 16.9064 27.8754 17.048 28.0491 17.2283C28.2449 17.4449 28.3757 17.7127 28.4265 18.0007C28.4772 18.2887 28.4458 18.5853 28.3359 18.8562C28.226 19.1271 28.042 19.3613 27.8052 19.5318C27.5684 19.7023 27.2884 19.8022 26.9974 19.82L26.3169 19.7889Z" fill="url(#paint3_linear_1501_308)"/>
<defs>
<linearGradient id="paint0_linear_1501_308" x1="7" y1="7.54053" x2="43.9634" y2="45.04" gradientUnits="userSpaceOnUse">
<stop stop-color="white" stop-opacity="0.66"/>
<stop offset="1" stop-color="#CECECE" stop-opacity="0"/>
</linearGradient>
<linearGradient id="paint1_linear_1501_308" x1="27.7109" y1="4.45292" x2="47.3669" y2="24.2899" gradientUnits="userSpaceOnUse">
<stop stop-color="white" stop-opacity="0.66"/>
<stop offset="1" stop-color="#CECECE" stop-opacity="0"/>
</linearGradient>
<linearGradient id="paint2_linear_1501_308" x1="12.7782" y1="13.1966" x2="38.3312" y2="39.2854" gradientUnits="userSpaceOnUse">
<stop stop-color="white" stop-opacity="0.66"/>
<stop offset="1" stop-color="#CECECE" stop-opacity="0"/>
</linearGradient>
<linearGradient id="paint3_linear_1501_308" x1="18.9775" y1="19.0928" x2="32.8255" y2="33.0821" gradientUnits="userSpaceOnUse">
<stop stop-color="white" stop-opacity="0.66"/>
<stop offset="1" stop-color="#CECECE" stop-opacity="0"/>
</linearGradient>
</defs>
</svg>
