<svg width="18" height="18" viewBox="0 0 18 18" fill="none" xmlns="http://www.w3.org/2000/svg">
<path d="M1.60577 4.73094L9 0.46188L16.3942 4.73094V13.2691L9 17.5381L1.60577 13.2691V4.73094Z" stroke="#410EAD" stroke-width="0.8"/>
<path fill-rule="evenodd" clip-rule="evenodd" d="M8.17585 12.9804C7.76461 12.8991 7.40181 12.6319 7.21745 12.2744C7.09241 12.0319 7.08299 12.023 6.90805 11.9812C6.31941 11.8405 5.79029 11.1489 5.78855 10.518C5.78814 10.3651 5.7753 10.3455 5.51625 10.1027C5.20388 9.8099 5.0617 9.568 5.01559 9.25094C4.95229 8.81583 5.08185 8.41284 5.40331 8.0447L5.56549 7.859V7.5698C5.56549 7.23966 5.64641 6.97589 5.82929 6.71008C6.06663 6.36512 6.56314 6.04975 6.94289 6.00276C7.0424 5.99044 7.12395 5.96293 7.12417 5.94158C7.1251 5.84059 7.32164 5.52609 7.47068 5.38708C8.01639 4.87813 8.84623 4.87003 9.32949 5.36898C9.58747 5.63531 9.65759 5.83592 9.69143 6.40457C9.70787 6.68056 9.72905 6.92581 9.73855 6.94962C9.75024 6.97897 9.84559 6.99288 10.0352 6.99288H10.3146V6.6508C10.3146 6.32989 10.3092 6.30543 10.2274 6.25542C10.0985 6.17666 10.0058 5.97047 10.0284 5.81308C10.1015 5.30524 10.8335 5.2109 11.0361 5.68324C11.1226 5.88472 11.0843 6.06508 10.9232 6.21535L10.797 6.33304V6.79369C10.797 7.42435 10.8117 7.40815 10.2383 7.40815H9.79521V7.73691V8.06567H11.001H12.2069V7.32285C12.2069 6.63273 12.202 6.57757 12.1375 6.54542C12.0464 6.49995 11.9472 6.30106 11.9472 6.16402C11.9472 5.8137 12.3857 5.56544 12.7198 5.7266C13.0426 5.88229 13.0949 6.30017 12.8211 6.5348L12.6892 6.64775V7.51242C12.6892 8.331 12.6853 8.38083 12.615 8.44634C12.5435 8.51303 12.4914 8.51556 11.1866 8.51556H9.83231V8.91353V9.3115H10.9122H11.9921L12.0657 9.22429C12.414 8.81134 13.1098 9.1285 12.9853 9.64348C12.8928 10.0258 12.3701 10.1401 12.0701 9.84347L11.9511 9.7257L10.9009 9.73487L9.85086 9.74408L9.84025 10.0815L9.82964 10.4189H10.4263C11.0103 10.4189 11.0249 10.4207 11.114 10.5039C11.2031 10.5869 11.2051 10.6007 11.2051 11.1428C11.2051 11.6698 11.2089 11.6988 11.2828 11.7357C11.3943 11.7913 11.514 12.0615 11.4867 12.196C11.4481 12.3863 11.3351 12.5175 11.1542 12.5819C10.9311 12.6614 10.747 12.6286 10.5892 12.4814C10.373 12.2797 10.3849 11.9193 10.613 11.762L10.7228 11.6863V11.2776V10.8688H10.259H9.79521V11.0168C9.79521 11.4101 9.64865 12.1829 9.53419 12.3932C9.4349 12.5756 9.1711 12.8067 8.9572 12.8986C8.74408 12.9901 8.40478 13.0257 8.17585 12.9804ZM8.61819 12.4586C8.82092 12.4061 8.99987 12.2427 9.12724 11.9937L9.23866 11.776V9.02236C9.23866 6.30681 9.23759 6.26604 9.16049 6.07384C9.01174 5.7031 8.64884 5.46124 8.3358 5.52422C7.8909 5.61375 7.56978 6.00477 7.67419 6.32979C7.74105 6.53795 7.91446 6.73136 8.16457 6.87664C8.47412 7.05645 8.53371 7.11369 8.53371 7.23128C8.53371 7.37978 8.42021 7.49128 8.2695 7.49083C7.9985 7.49 7.3666 7.00831 7.21452 6.68661C7.14532 6.54023 7.13942 6.53656 7.00047 6.55397C6.80854 6.57795 6.48697 6.78265 6.35051 6.96765C6.2894 7.05043 6.21093 7.19955 6.17605 7.29897C6.11431 7.47505 6.11468 7.5318 6.18032 7.91462C6.20436 8.05484 6.19965 8.06294 5.94141 8.32269C5.64819 8.61764 5.54181 8.8494 5.57469 9.12151C5.6109 9.4211 5.74829 9.59562 6.25148 9.9812C6.35815 10.0629 6.36264 10.0779 6.36928 10.3723C6.37318 10.545 6.40123 10.7433 6.43362 10.8272C6.5119 11.03 6.69853 11.2645 6.86004 11.363C7.09991 11.5092 7.11405 11.5073 7.21886 11.3144C7.27118 11.2182 7.38182 11.0707 7.46478 10.9868C7.58577 10.8644 7.64035 10.8342 7.74071 10.8342C8.01724 10.8342 8.10291 11.0942 7.89806 11.3118C7.76438 11.4539 7.64525 11.6807 7.64406 11.7956C7.64202 11.9928 7.84549 12.2733 8.0697 12.3825C8.30122 12.4952 8.41561 12.5111 8.61819 12.4586ZM7.12009 10.2378C6.60633 9.71359 6.50185 8.90799 6.86149 8.24352C7.03353 7.92559 7.14187 7.82343 7.30687 7.82343C7.47754 7.82343 7.56904 7.90704 7.56904 8.06304C7.56904 8.12523 7.53509 8.22057 7.49364 8.27487C7.45216 8.3292 7.37321 8.46399 7.31819 8.57439C7.2343 8.74278 7.21816 8.82248 7.21816 9.06926C7.21816 9.40636 7.30691 9.63053 7.54481 9.89444C7.62799 9.9867 7.68035 10.0811 7.68035 10.1388C7.68035 10.2767 7.5559 10.3843 7.39636 10.3843C7.28765 10.3843 7.23767 10.3578 7.12009 10.2378Z" fill="#410EAD"/>
</svg>
