<svg width="50" height="36" viewBox="0 0 50 36" fill="none" xmlns="http://www.w3.org/2000/svg">
<path fill-rule="evenodd" clip-rule="evenodd" d="M44.1021 0.0650642C43.4153 0.153653 42.4911 0.401644 41.8547 0.668197C41.479 0.825536 38.2567 2.33008 34.6939 4.0117C31.1311 5.69332 28.155 7.0692 28.0805 7.0692C28.006 7.0692 24.6223 5.76256 20.5612 4.1656C16.4692 2.55656 12.8638 1.19512 12.4738 1.11203C11.1167 0.82259 9.81822 1.11419 9.14921 1.85875C8.42209 2.66803 7.98468 4.16354 8.30116 4.75822C8.36758 4.88296 10.6152 6.50103 13.2959 8.35394C15.9766 10.2068 18.1366 11.755 18.0958 11.7942C17.9478 11.9367 12.789 14.337 12.6309 14.337C12.5414 14.337 10.3868 13.8062 7.84275 13.1574C4.99912 12.4322 3.12798 12.0002 2.98546 12.0362C2.8579 12.0684 2.66664 12.1905 2.56036 12.3074C2.27504 12.6217 0 16.8043 0 17.0147C0 17.1138 0.0642729 17.3199 0.142709 17.4725C0.297726 17.7739 0.336114 17.7917 4.95526 19.6961C6.25693 20.2327 7.32291 20.6999 7.32398 20.7342C7.32506 20.7685 6.99158 20.9443 6.58299 21.1248C5.78319 21.4782 5.47003 21.776 5.47003 22.1831C5.47003 22.5025 7.43963 26.7594 7.73238 27.0726C7.86473 27.2142 8.05843 27.3013 8.24129 27.3013C8.42502 27.3013 11.353 25.9779 15.9902 23.7988C20.0897 21.8723 23.4585 20.3145 23.4765 20.3367C23.4945 20.3589 23.2019 23.5951 22.8264 27.5281L22.1437 34.6789L22.3373 34.9432C22.6376 35.3531 23.4775 35.8116 24.1675 35.9426C25.6935 36.2321 26.9926 35.4204 27.8294 33.6544C27.9877 33.3203 29.4579 29.054 31.0963 24.174C32.7348 19.2939 34.0897 15.2901 34.1071 15.2768C34.1246 15.2633 36.8022 14.0061 40.0573 12.4828C43.3125 10.9595 46.2575 9.54911 46.6018 9.34875C46.9461 9.1483 47.6271 8.58661 48.115 8.10045C48.8383 7.37975 49.0775 7.06233 49.4104 6.3817C50.3365 4.48774 50.1715 2.8624 48.9162 1.51313C47.8069 0.320814 46.0998 -0.192748 44.1021 0.0650642ZM46.401 1.96148C46.936 2.11077 47.6319 2.59977 47.9096 3.0217C48.733 4.27275 47.8938 6.32032 46.0344 7.5972C45.4071 8.02787 34.9928 13.0186 34.9051 12.9304C34.8827 12.9078 34.9977 12.5216 35.1609 12.072C35.5519 10.9949 35.551 10.6032 35.157 10.2699C34.5988 9.79769 34.0135 10.0237 33.7207 10.8245C33.6168 11.1088 31.9627 16.0392 30.0449 21.7809C28.1273 27.5226 26.4764 32.4123 26.3764 32.647C26.0814 33.3388 25.7044 33.8755 25.3687 34.0813C24.8124 34.4223 23.8915 34.2642 23.9766 33.8422C23.9995 33.7288 24.4032 29.5152 24.8737 24.4785L25.7291 15.321L25.5324 15.0562C25.1178 14.4977 24.3269 14.5576 24.0737 15.1668C24.0041 15.3344 23.8925 16.0974 23.8259 16.8624L23.7047 18.2532L16.2516 21.746C12.1524 23.6671 8.76377 25.2374 8.72148 25.2358C8.64529 25.2328 7.52129 22.8622 7.52129 22.7045C7.52129 22.6594 8.11753 22.3417 8.84621 21.9984C10.2072 21.3573 10.4517 21.1474 10.4517 20.6201C10.4517 20.1599 9.97069 19.9036 6.03169 18.2656C3.89613 17.3777 2.14894 16.6234 2.14894 16.5896C2.14894 16.5062 3.48783 14.1301 3.59625 14.0211C3.64626 13.9708 5.60786 14.4113 8.25301 15.0667L12.8235 16.199L13.4691 15.9214C13.8241 15.7688 20.5136 12.6361 28.3346 8.95992C36.1555 5.28377 42.7697 2.2025 43.0326 2.11273C44.0197 1.77576 45.4974 1.70946 46.401 1.96148ZM12.2401 2.88509C12.8481 3.02897 25.7844 8.06283 25.7862 8.15623C25.7876 8.22764 20.2425 10.834 20.0894 10.834C19.9633 10.834 10.0967 4.06395 10.0047 3.91437C9.89587 3.73729 10.3166 3.09251 10.6538 2.91985C11.0551 2.71419 11.4784 2.70486 12.2401 2.88509Z" fill="#4AD158"/>
</svg>
