<svg width="226" height="43" viewBox="0 0 226 43" fill="none" xmlns="http://www.w3.org/2000/svg">
<path d="M163.248 17.721L161.774 21.4005H161.406V17.721H157.711V12.9278H149.594V17.721H146.228V12.9278H138.48V17.721H127.943C127.943 21.5894 127.884 32.8367 127.884 32.8367H122.645V17.721H110.097V13.2957H122.645V7.7666H102.339V37.9879H110.087V23.2502H115.494V32.8168L118.233 37.9084H119.398C119.398 37.9084 119.398 37.978 119.398 37.9979H134.815V23.2502H138.51V37.9879H146.228V23.2502H149.554V37.9879H157.671V23.2502H160.997V33.5726L163.208 37.9879H181.304V17.721H163.248ZM173.207 32.8367H168.775V23.2502H173.207V32.8367Z" fill="#2B4A98"/>
<path d="M92.3699 22.8721H100.128V28.0432H92.3699V22.8721Z" fill="#2B4A98"/>
<path d="M223.789 17.7212L226 22.1465V37.988H218.252V23.2503H214.946V37.988H207.178V23.2503H203.483V37.988H195.735V17.6416C195.735 17.6416 217.515 17.7212 223.789 17.7212Z" fill="#2B4A98"/>
<path d="M184.66 17.7207H192.418V37.9876H184.66V17.7207Z" fill="#2B4A98"/>
<path d="M184.66 7.7666H192.418V13.2957H184.66V7.7666Z" fill="#2B4A98"/>
<path d="M82.4011 7.7666H90.1592V37.9879H82.4011V7.7666Z" fill="#2B4A98"/>
<path d="M65.2021 7.95535L55.4224 37.0927H62.8319L66.1881 27.8941H71.6755V37.2817H78.8261V7.88574L65.2021 7.95535ZM68.0205 22.8721L71.6755 12.8679V22.8721H68.0205Z" fill="#2B4A98"/>
<path d="M24.3896 0L0 24.5828L5.49738 30.5495L11.7118 24.5828L17.9262 30.5495L12.1898 36.7946L18.4043 43L24.3797 36.7946L30.3551 43L36.5894 36.7946L30.853 30.5893L37.0675 24.6226L43.2819 30.5893L48.7793 24.6226L24.3896 0ZM24.3896 23.9364L18.4142 18.3774L24.3896 12.4107L30.365 18.3774L24.3896 23.9364Z" fill="#0BB6E8"/>
</svg>
