<svg width="35" height="36" viewBox="0 0 35 36" fill="none" xmlns="http://www.w3.org/2000/svg">
<path fill-rule="evenodd" clip-rule="evenodd" d="M30.5221 0.0964071C29.1716 0.413547 28.073 1.53338 27.8055 2.86572C27.694 3.42026 27.7512 4.20762 27.9372 4.68087L28.0786 5.04055L26.1286 6.46698L24.1786 7.89347L23.6606 7.66226C22.6541 7.21313 21.554 7.21299 20.56 7.66191L20.1017 7.86893L18.1903 6.35285L16.2789 4.83677L16.3789 4.51506C16.5058 4.10678 16.5064 3.1612 16.38 2.70384C16.1386 1.83027 15.4416 0.962459 14.6269 0.521417C12.413 -0.677315 9.63989 0.678088 9.27339 3.138C9.19887 3.63796 9.20475 3.7843 9.3182 4.2631C9.38996 4.56576 9.45344 4.8637 9.45925 4.92509C9.46514 4.98655 8.34719 6.18085 6.97496 7.57922C4.64457 9.95383 4.4672 10.1182 4.28758 10.0701C3.91237 9.96979 2.99713 10.0318 2.50266 10.1912C0.36365 10.8803 -0.606057 13.1602 0.396624 15.1426C1.32515 16.9786 3.85724 17.6035 5.65596 16.4406C7.29236 15.3826 7.73686 13.1811 6.63431 11.5949L6.38838 11.2411L8.65035 8.94137C9.89439 7.67661 10.9473 6.64728 10.99 6.6541C11.0328 6.66092 11.2802 6.75233 11.5397 6.85732C11.8823 6.99585 12.1818 7.05752 12.6325 7.08241C13.3758 7.12341 13.8774 7.02988 14.4962 6.73496L14.9557 6.51592L15.2996 6.79248C15.4889 6.94466 16.339 7.61789 17.1889 8.28874C18.523 9.34177 18.7274 9.52868 18.6848 9.65722C18.5586 10.0379 18.5159 10.3416 18.5143 10.8711C18.5074 13.1556 20.7453 14.815 23.0495 14.2339C24.4267 13.8866 25.4886 12.7194 25.7142 11.3049C25.7876 10.8442 25.7821 10.6745 25.6763 10.1533C25.6081 9.81706 25.5616 9.53592 25.5732 9.52854C25.5847 9.52115 25.9374 9.26203 26.3568 8.95276C26.7763 8.6435 27.6679 7.98728 28.3382 7.49448L29.557 6.59862L30.0438 6.78721C31.3837 7.30617 32.9514 6.97328 33.9609 5.9554C34.6564 5.25418 35 4.44685 35 3.51378C35 1.27362 32.7668 -0.430776 30.5221 0.0964071ZM32.1942 2.36617C33.351 3.15515 32.7805 4.9189 31.3684 4.9189C29.746 4.9189 29.3683 2.73317 30.8963 2.18679C31.2577 2.05761 31.8647 2.1415 32.1942 2.36617ZM13.678 2.43944C14.1401 2.75384 14.3104 3.10016 14.2824 3.66848C14.2567 4.19159 14.1559 4.37336 13.6893 4.73902C13.4398 4.93451 13.3672 4.95406 12.8897 4.95406C12.4384 4.95406 12.3222 4.92685 12.0627 4.76061C11.3446 4.30058 11.2098 3.31893 11.7785 2.69189C12.2827 2.13581 13.0768 2.03033 13.678 2.43944ZM22.6896 9.55048C23.2798 9.81009 23.6608 10.4617 23.5601 11.0391C23.4852 11.4683 23.1525 11.9082 22.7658 12.0895C22.0941 12.4043 21.3667 12.2064 20.8812 11.5768C20.6622 11.2928 20.6312 10.5826 20.8221 10.2222C21.19 9.52734 21.986 9.241 22.6896 9.55048ZM4.02952 12.195C4.43858 12.3126 4.79303 12.6262 4.96306 13.0209C5.28939 13.7784 4.82418 14.6649 3.99044 14.8743C2.82006 15.1683 1.81011 14.0264 2.3059 12.9698C2.46198 12.6372 2.89058 12.2515 3.17043 12.1918C3.2796 12.1685 3.40155 12.1389 3.44149 12.126C3.58 12.0813 3.67116 12.092 4.02952 12.195ZM30.2643 13.7743C29.1718 14.1124 28.3968 14.8314 27.9469 15.9239L27.7731 16.3458L27.7535 26.1729L27.7338 36H31.2943H34.8547V26.3107C34.8547 15.7881 34.8722 16.2633 34.4578 15.4716C34.0467 14.6862 33.1206 13.9701 32.2133 13.7362C31.6882 13.6009 30.7661 13.6189 30.2643 13.7743ZM31.9523 15.8901C32.1104 15.9682 32.3298 16.1636 32.4397 16.3245L32.6395 16.6168L32.6585 25.2536L32.6775 33.8904H31.2966H29.9158L29.9174 25.3642C29.9189 17.1969 29.9246 16.8258 30.0544 16.5493C30.393 15.8275 31.234 15.5353 31.9523 15.8901ZM11.9538 16.5283C11.18 16.7046 10.2697 17.3551 9.79539 18.0706C9.66792 18.263 9.50167 18.6131 9.42599 18.8485C9.29416 19.2585 9.28835 19.6292 9.28835 27.6383V36H12.8499H16.4114L16.3894 27.6496C16.3687 19.7845 16.3598 19.2767 16.2348 18.9124C15.8264 17.7219 14.8124 16.7876 13.6463 16.5275C13.255 16.4404 12.3382 16.4407 11.9538 16.5283ZM13.6254 18.8151C14.1954 19.2561 14.1545 18.6456 14.1545 26.7003L14.1547 33.8904H12.81H11.4653L11.4844 26.6245L11.5036 19.3585L11.7073 19.1C12.0196 18.7036 12.3607 18.555 12.8991 18.5807C13.2734 18.5987 13.3973 18.6386 13.6254 18.8151ZM21.4954 22.2941C20.544 22.4544 19.5222 23.1552 19.0381 23.9793C18.5775 24.7634 18.5852 24.6512 18.5852 30.6002V36H22.1442H25.7031L25.7026 30.814C25.7023 27.6022 25.6736 25.4539 25.6272 25.1708C25.4764 24.2493 24.8417 23.2907 24.0629 22.8084C23.3358 22.3581 22.3215 22.1549 21.4954 22.2941ZM22.8231 24.5608C22.9852 24.6486 23.1836 24.8455 23.2952 25.0294L23.4879 25.3466L23.5082 29.6185L23.5285 33.8904H22.1464H20.7642V29.6339C20.7642 26.2179 20.7836 25.3324 20.8623 25.1499C20.9834 24.8692 21.4253 24.4842 21.6915 24.4274C21.8007 24.4041 21.9226 24.3735 21.9626 24.3594C22.1061 24.3085 22.549 24.4122 22.8231 24.5608ZM3.07833 25.4511C1.98813 25.6254 0.947827 26.3553 0.45916 27.2889C0.0827824 28.0079 0.0663677 28.2153 0.0652056 32.2555L0.0641162 36H3.62307H7.18203V32.2175C7.18203 28.1176 7.17484 28.0299 6.77471 27.2654C6.54737 26.8311 5.88243 26.1367 5.46937 25.9022C4.78416 25.5134 3.82339 25.3321 3.07833 25.4511ZM3.94992 27.569C4.35636 27.6765 4.70463 27.9518 4.86413 28.2919C4.98891 28.558 5.00003 28.7953 5.00148 31.2359L5.00308 33.8904H3.62307H2.24307L2.24351 31.3062C2.24372 29.7038 2.27314 28.6201 2.32086 28.4537C2.42094 28.1046 2.87322 27.6701 3.23231 27.5781C3.61087 27.4811 3.61734 27.481 3.94992 27.569Z" fill="#E51FE9"/>
</svg>
