<svg width="53" height="52" viewBox="0 0 53 52" fill="none" xmlns="http://www.w3.org/2000/svg">
<path fill-rule="evenodd" clip-rule="evenodd" d="M19.5537 0.143212C14.597 0.720089 10.2944 2.72787 6.72851 6.12803C3.8074 8.91339 1.88957 12.0687 0.825191 15.8409C0.0471259 18.5981 -0.177368 21.276 0.137524 24.0434C0.980618 31.4528 5.54246 37.8278 12.3428 41.0996C15.5064 42.6217 18.4752 43.292 22.1011 43.3027C26.012 43.3144 29.816 42.3184 33.0859 40.4266C33.5521 40.157 33.9698 39.9363 34.0141 39.9363C34.0585 39.9363 36.6826 42.4691 39.8456 45.5646C46.205 51.7886 46.0865 51.6921 47.6811 51.9442C50.1543 52.3352 52.4957 50.6292 52.9178 48.1287C53.0636 47.2644 52.9161 46.3558 52.4823 45.4455C52.1846 44.8209 51.7146 44.3308 46.3948 39.0973C41.4607 34.2432 40.6461 33.4006 40.7416 33.2498C44.2718 27.6707 45.0964 21.006 43.0153 14.8736C42.5166 13.4042 41.8469 11.9346 41.1243 10.7246L40.6467 9.92471L41.517 9.07027L42.3872 8.21583L42.9562 8.42924C44.1082 8.86134 45.6278 8.56537 46.5423 7.73076C46.9275 7.37929 47.3733 6.7103 47.4673 6.34276L47.5344 6.08015H50.2671H53V5.21595V4.35175H50.3064H47.6129L47.368 3.81798C46.1413 1.14436 42.3867 1.05204 41.026 3.66202C40.6318 4.41794 40.5662 5.59376 40.8739 6.38465L41.0913 6.94333L40.336 7.68491L39.5806 8.42649L38.6832 7.41254C33.9866 2.10575 26.6489 -0.682655 19.5537 0.143212ZM24.43 1.81711C31.9559 2.75766 38.2114 7.50251 40.9944 14.3814C42.5511 18.229 42.7969 22.9032 41.6547 26.9365C40.6773 30.3877 38.8766 33.3831 36.2696 35.8941C33.4334 38.6262 30.0492 40.3881 26.0534 41.213C24.4791 41.5381 21.4691 41.6601 19.7592 41.4683C11.5878 40.5518 4.75911 34.8748 2.50693 27.1259C1.63101 24.1124 1.50602 20.5377 2.17091 17.5181C3.7989 10.1245 9.33597 4.35948 16.7062 2.38453C17.5866 2.14856 19.1683 1.85351 19.9679 1.77604C20.8368 1.69175 23.6334 1.71758 24.43 1.81711ZM20.5375 3.54073C12.7626 4.16752 6.23127 9.54476 4.17789 17.0097C3.37777 19.9182 3.3758 23.3758 4.17261 26.3125C5.76416 32.1788 10.1202 36.806 15.9813 38.8562C19.2031 39.9832 23.2126 40.1563 26.6242 39.3155C31.9629 37.9999 36.6025 34.2302 38.8669 29.3682C40.0854 26.7519 40.5843 24.5207 40.5843 21.6865C40.5843 15.3071 37.321 9.55452 31.7921 6.18761C28.4882 4.17576 24.448 3.22555 20.5375 3.54073ZM44.6595 3.54947C45.465 3.76898 46.0693 4.71868 45.9033 5.50408C45.8029 5.97878 45.4457 6.44677 44.993 6.69657C44.6768 6.87114 44.4757 6.90754 44.0292 6.87114C43.1035 6.7958 42.5377 6.24272 42.4613 5.33846C42.4094 4.72376 42.5693 4.32105 43.0344 3.89485C43.4885 3.47861 44.0005 3.36982 44.6595 3.54947ZM24.8347 5.43647C27.8846 5.92764 30.8697 7.32123 33.1186 9.3037C34.1934 10.2511 35.7074 11.9109 35.7074 12.1418C35.7074 12.193 35.2297 12.7007 34.646 13.27L33.5846 14.3052L33.0151 14.1103C31.4979 13.591 29.8092 14.1112 28.9333 15.3676C28.2453 16.3545 28.0992 17.6301 28.5575 18.6486L28.7461 19.0676L25.8764 21.8838L23.0069 24.6999L22.3417 24.4787C21.537 24.2111 20.5775 24.2414 19.8501 24.5574L19.3732 24.7646L17.3875 22.8131L15.402 20.8617L15.5988 20.4099C16.3351 18.7193 15.5654 16.7479 13.8586 15.9531C13.3759 15.7285 13.1469 15.688 12.3571 15.688C11.546 15.688 11.3486 15.7249 10.8346 15.9727C10.1355 16.3098 9.39147 17.079 9.14047 17.7242L8.96361 18.1789H7.32836H5.69312L5.93739 17.2893C6.41517 15.5495 7.25205 13.7981 8.33506 12.2722C12.0327 7.06218 18.4418 4.40686 24.8347 5.43647ZM37.2381 14.6967C38.3705 17.0606 38.8273 19.0728 38.8226 21.6759C38.8125 27.3316 35.9759 32.4562 31.1637 35.5127C29.4984 36.5704 27.4809 37.3848 25.4779 37.8077C24.0264 38.1141 21.1298 38.1903 19.6573 37.9608C17.8647 37.6813 16.7373 37.3552 15.1529 36.6579C11.6207 35.1033 8.51462 32.1113 6.94637 28.7526C5.70648 26.0973 5.27427 23.9168 5.34924 20.6952L5.36757 19.9073L7.15378 19.909L8.94 19.9108L9.18872 20.4748C9.50879 21.2006 10.1346 21.828 10.9119 22.202C11.4407 22.4566 11.6469 22.4984 12.3571 22.4951C12.9703 22.4923 13.3098 22.436 13.6641 22.2784L14.1427 22.0653L16.1305 24.0189L18.1182 25.9725L17.8941 26.6255C17.3154 28.3102 18.1028 30.1164 19.7455 30.8726C20.2344 31.0976 20.4748 31.1419 21.2105 31.1419C21.9425 31.1419 22.1866 31.0974 22.6602 30.8781C23.3888 30.5407 24.0702 29.8702 24.4072 29.1593C24.7479 28.4404 24.7829 27.2366 24.485 26.4787L24.2907 25.9838L27.1649 23.1604L30.039 20.3371L30.4657 20.5222C31.5031 20.9722 32.8022 20.8287 33.8073 20.1532C35.0902 19.291 35.6412 17.5553 35.0867 16.1225L34.8802 15.5891L35.7835 14.6981C36.2803 14.2081 36.715 13.8071 36.7494 13.8071C36.7838 13.8071 37.0038 14.2075 37.2381 14.6967ZM32.7771 15.9042C33.2578 16.2566 33.4608 16.6151 33.51 17.1994C33.6781 19.1893 30.8893 19.7948 30.1625 17.9263C29.8588 17.1454 30.1784 16.2908 30.9411 15.8441C31.4127 15.5679 32.3607 15.5989 32.7771 15.9042ZM13.0642 17.5042C13.2501 17.5805 13.527 17.7885 13.6794 17.9663C14.4817 18.9024 14.1341 20.2419 12.9764 20.6759C11.8147 21.1116 10.6486 20.2961 10.6486 19.0481C10.6486 17.8081 11.8825 17.0195 13.0642 17.5042ZM21.8627 26.1449C22.5992 26.447 23.0821 27.3168 22.9294 28.0663C22.7758 28.8207 21.9844 29.4643 21.2105 29.4643C20.6463 29.4643 19.9989 29.0949 19.7076 28.6068C18.8724 27.2075 20.3469 25.5231 21.8627 26.1449ZM40.8855 36.1244L42.0736 37.2942L40.0302 39.3006L37.9868 41.307L36.7953 40.1404C35.6679 39.0366 35.4722 38.7785 35.7023 38.6993C35.9776 38.6047 37.7927 36.9299 38.6209 36.0063C39.1396 35.4278 39.5941 34.9545 39.6307 34.9545C39.6674 34.9545 40.232 35.4809 40.8855 36.1244ZM50.9416 46.2399C51.278 46.874 51.2882 48.132 50.9618 48.7354C50.2196 50.1074 48.464 50.6811 47.0903 50.0005C46.7858 49.8496 45.3871 48.5569 42.9281 46.1538L39.2244 42.5343L41.2713 40.522L43.3182 38.5096L47.0085 42.1459C49.4129 44.5153 50.7833 45.9418 50.9416 46.2399Z" fill="#845AFB"/>
</svg>
