<svg width="50" height="50" viewBox="0 0 50 50" fill="none" xmlns="http://www.w3.org/2000/svg">
<g clip-path="url(#clip0_896_619)">
<path d="M47.9063 0H2.09466C1.53941 -1.21005e-06 1.00688 0.221198 0.613857 0.615063C0.220831 1.00893 -0.000552226 1.54325 -0.00170898 2.10084V47.9C-0.000552226 48.4576 0.220831 48.9919 0.613857 49.3858C1.00688 49.7797 1.53941 50.0009 2.09466 50.0009H47.9063C48.4615 50.0009 48.994 49.7797 49.3871 49.3858C49.7801 48.9919 50.0015 48.4576 50.0026 47.9V2.10084C50.0015 1.54325 49.7801 1.00893 49.3871 0.615063C48.994 0.221198 48.4615 -1.21005e-06 47.9063 0ZM45.8098 45.7991H4.18756V4.20088H45.8116L45.8098 45.7991Z" fill="#56A409"/>
<path d="M10.4995 38.5569C11.0042 38.7891 11.5799 38.8108 12.1005 38.6172C12.621 38.4237 13.0439 38.0307 13.2764 37.5245L18.2081 26.7411L25.0066 33.8964C25.2236 34.1245 25.4889 34.3007 25.7829 34.4121C26.0768 34.5234 26.3919 34.5669 26.7049 34.5395C27.0179 34.512 27.3207 34.4143 27.591 34.2535C27.8613 34.0927 28.0922 33.8729 28.2665 33.6105L40.8737 14.5885C41.1477 14.1241 41.2335 13.5719 41.1136 13.0457C40.9937 12.5196 40.6772 12.0598 40.2294 11.7614C39.7816 11.4629 39.2368 11.3485 38.7074 11.4419C38.1781 11.5353 37.7046 11.8292 37.3849 12.263L26.2295 29.0947L19.1113 21.599C18.8752 21.3508 18.5822 21.1643 18.2579 21.0559C17.9335 20.9474 17.5877 20.9202 17.2505 20.9767C16.9133 21.0331 16.595 21.1716 16.3233 21.3799C16.0516 21.5882 15.8347 21.8601 15.6916 22.1718L9.47138 35.7683C9.35671 36.0188 9.29228 36.2896 9.2818 36.565C9.27132 36.8405 9.31498 37.1154 9.41028 37.3739C9.50559 37.6325 9.65069 37.8696 9.83728 38.0719C10.0239 38.2741 10.2483 38.4374 10.4977 38.5525L10.4995 38.5569Z" fill="#56A409"/>
</g>
<defs>
<clipPath id="clip0_896_619">
<rect width="50" height="50" fill="white"/>
</clipPath>
</defs>
</svg>
