<svg width="56" height="41" viewBox="0 0 56 41" fill="none" xmlns="http://www.w3.org/2000/svg">
<path fill-rule="evenodd" clip-rule="evenodd" d="M34.0825 0.0922654C32.3637 0.653126 31.2561 2.06081 31.1326 3.84168C31.0629 4.84695 31.4155 5.92346 32.0495 6.64083L32.4536 7.098L31.6796 8.57099C31.2539 9.38111 30.8659 10.07 30.8173 10.1018C30.7688 10.1338 30.302 10.0184 29.7799 9.84549C25.0301 8.27227 19.4543 9.9287 16.3124 13.8461L15.5738 14.7671L15.4925 13.9941C15.3397 12.543 14.4508 11.3093 13.0798 10.6462C12.2139 10.2273 10.5389 10.2411 9.6395 10.6744C8.81168 11.0734 8.03313 11.8474 7.63478 12.6676C7.17069 13.6234 7.17743 15.1014 7.65047 16.1038L7.9954 16.835L4.04976 21.5141C1.87971 24.0875 0.06704 26.3341 0.0216551 26.5063C-0.0826006 26.9019 0.199046 27.4135 0.663009 27.6713C0.979667 27.8474 1.05332 27.8473 1.37296 27.6708C1.56915 27.5626 3.45094 25.4345 5.55486 22.9421C7.65877 20.4495 9.43968 18.3517 9.51255 18.2799C9.6019 18.1921 9.85501 18.2145 10.2906 18.3487C11.4466 18.705 13.0358 18.3991 13.8862 17.6564C14.1694 17.409 14.1675 17.4693 13.853 18.6575C12.8241 22.5457 13.9651 26.9701 16.7688 29.9645C18.4387 31.7478 20.23 32.8498 22.6066 33.5554C23.6561 33.8672 23.9828 33.9027 25.8484 33.9085C27.4514 33.9134 28.1148 33.8628 28.766 33.6855C30.028 33.3421 30.9437 32.9893 31.8501 32.4968C32.2984 32.2534 32.6843 32.0542 32.7078 32.0542C32.7311 32.0542 32.7808 32.4313 32.818 32.8922C32.9343 34.3318 33.2525 34.7844 36.1842 37.6824C39.276 40.7387 39.7007 41.0116 41.3441 40.9996C42.5148 40.991 43.2569 40.6995 44.1197 39.9095C45.0037 39.1 45.4215 38.1535 45.4255 36.9507C45.4311 35.2951 45.1045 34.804 41.9026 31.6537C39.4928 29.2826 39.1244 28.9695 38.454 28.7232C38.0361 28.5695 37.3985 28.4474 37.015 28.4474H36.3265L37.0092 27.0945C37.9864 25.1579 38.288 23.8424 38.2791 21.5558C38.2733 20.0456 38.2184 19.5521 37.9416 18.5204C37.1372 15.5235 35.384 13.0978 32.6769 11.2362C32.6525 11.2196 33.0019 10.5126 33.4531 9.66528L34.2735 8.12465L34.9884 8.18764C35.5129 8.23401 35.9254 8.17605 36.5367 7.97046L37.3701 7.69016L39.6904 9.99504L42.0106 12.3001L41.7285 13.128C41.0428 15.1393 41.9435 17.2542 43.8727 18.1622C44.515 18.4645 44.8224 18.5285 45.6349 18.5285C46.4718 18.5286 46.7371 18.47 47.4072 18.1376C49.3398 17.1782 50.2017 15.1328 49.5181 13.128L49.2359 12.3001L51.5791 9.97237L53.9222 7.64469V8.64841C53.9222 9.54239 53.957 9.68666 54.2406 9.96825C54.6616 10.3866 55.2576 10.3866 55.6786 9.96825C55.9944 9.65471 55.997 9.63217 55.997 7.19293C55.997 3.88187 56.2179 4.10137 52.8849 4.10137C50.4294 4.10137 50.4067 4.10395 50.0911 4.41761C49.8904 4.61689 49.7728 4.88096 49.7728 5.13189C49.7728 5.38282 49.8904 5.64689 50.0911 5.84617C50.3746 6.12789 50.5198 6.16241 51.4197 6.16241H52.4301L50.0869 8.4901L47.7438 10.8178L46.947 10.5511C45.9416 10.2147 45.3049 10.2147 44.2996 10.5511L43.5028 10.8178L41.1824 8.5129L38.8622 6.20788L39.1444 5.37999C39.8228 3.39031 38.9626 1.3352 37.0384 0.349123C36.4362 0.0404822 34.703 -0.110103 34.0825 0.0922654ZM36.0703 2.21604C37.4128 2.77329 37.7251 4.4761 36.676 5.51834C35.8182 6.37045 34.6567 6.37663 33.8079 5.53354C32.2044 3.94048 33.9737 1.34589 36.0703 2.21604ZM28.377 11.6173C28.7693 11.724 29.2527 11.8728 29.4513 11.948L29.8125 12.0849L28.8678 13.8943C27.9833 15.5883 27.9025 15.6991 27.599 15.6331C27.4207 15.5945 26.8372 15.5274 26.3023 15.484C24.573 15.3438 22.9458 15.9437 21.6025 17.2165L20.8436 17.9356L19.0344 17.0442C18.0395 16.554 17.2253 16.113 17.2253 16.0642C17.2253 15.8829 18.2453 14.7052 19.0112 14.0021C20.378 12.7474 22.0547 11.9009 23.9682 11.4993C25.008 11.2811 27.3727 11.3444 28.377 11.6173ZM12.2108 12.5212C13.543 13.0742 13.8678 14.8094 12.8317 15.8387C11.9906 16.6742 10.7896 16.6742 9.94838 15.8387C8.34486 14.2457 10.1142 11.6511 12.2108 12.5212ZM46.4862 12.5569C47.0774 12.8355 47.5753 13.5025 47.6599 14.1291C47.923 16.0774 45.5809 17.2286 44.1816 15.8387C42.5613 14.2291 44.4198 11.5827 46.4862 12.5569ZM32.5431 13.7303C34.5401 15.4309 35.7478 17.561 36.1617 20.1128C36.8466 24.3369 34.5818 28.7559 30.7037 30.7617C29.0832 31.5999 27.9557 31.8579 25.9132 31.8579C23.8498 31.8579 22.706 31.5918 21.0869 30.735C18.5576 29.3966 16.5842 26.9473 15.8706 24.2609C15.5757 23.1509 15.4744 21.2001 15.6564 20.1332C15.8096 19.2338 16.1599 18.0134 16.2649 18.0134C16.2958 18.0134 17.1423 18.4221 18.1461 18.9217C19.6404 19.6652 19.9551 19.8695 19.8833 20.0488C19.8349 20.1691 19.7642 20.7024 19.7261 21.2338C19.5979 23.0231 20.2229 24.6219 21.5763 25.9663C23.9771 28.3513 27.6486 28.3833 30.195 26.0413C31.6463 24.7065 32.3757 22.5676 32.0412 20.6276C31.8416 19.4702 31.1346 18.0945 30.3426 17.3226L29.6998 16.696L29.9289 16.292C30.0549 16.0698 30.49 15.2647 30.8955 14.5032C31.3011 13.7416 31.676 13.1184 31.7287 13.1184C31.7814 13.1184 32.1478 13.3937 32.5431 13.7303ZM27.6638 17.8959C28.4828 18.2807 29.2641 19.052 29.6745 19.8812C30.1268 20.7948 30.1243 22.4245 29.6693 23.3592C29.2694 24.1805 28.4906 24.9542 27.6638 25.3515C26.7229 25.8035 25.0823 25.8059 24.1627 25.3566C23.336 24.9529 22.5584 24.1804 22.152 23.3592C21.6997 22.4457 21.7022 20.8159 22.1572 19.8812C22.6935 18.7796 23.7462 17.9208 24.9407 17.6103C25.6359 17.4297 26.9692 17.5695 27.6638 17.8959ZM37.8022 30.7747C38.2115 30.9288 42.8242 35.4158 43.0924 35.9207C43.2694 36.254 43.343 36.7467 43.3088 37.3675C43.2806 37.8755 42.4679 38.7195 41.8469 38.8857C40.7654 39.175 40.5905 39.0651 37.8781 36.3928C36.5069 35.0417 35.2894 33.7364 35.1727 33.4922C34.4269 31.9311 36.1483 30.152 37.8022 30.7747Z" fill="#FFB420"/>
</svg>
