<svg width="307" height="266" viewBox="0 0 307 266" fill="none" xmlns="http://www.w3.org/2000/svg">
<path d="M304.227 217.91H303.612C303.892 217.591 304.089 217.208 304.187 216.794C304.284 216.38 304.277 215.949 304.168 215.538C304.059 215.127 303.85 214.75 303.561 214.44C303.271 214.13 302.91 213.896 302.509 213.761L289.324 209.972C288.76 209.967 288.21 210.148 287.759 210.489C287.308 210.829 286.981 211.309 286.829 211.855C286.677 212.401 286.709 212.982 286.919 213.508C287.129 214.035 287.505 214.476 287.991 214.766L297.276 217.343L296.583 218.013C251.336 218.94 206.115 218.966 160.893 218.631C160.893 203.684 160.175 188.763 159.662 173.765C163.073 170.878 166.433 167.838 169.691 164.59C213.451 121.064 233.304 60.8641 249.695 2.77741C249.81 2.20265 249.704 1.60535 249.399 1.10572C249.093 0.606092 248.611 0.241187 248.049 0.0844348C247.486 -0.0723175 246.886 -0.00929384 246.368 0.260836C245.85 0.530966 245.453 0.988146 245.257 1.5404C229.405 57.6686 210.475 115.652 169.229 158.56C166.083 161.842 162.825 164.968 159.457 167.941C159.2 159.179 159.046 150.365 159.149 141.526C159.662 99.2622 158.482 58.1582 150.633 16.5388C154.429 15.5853 162.56 26.0739 164.817 28.8571C167.075 31.6404 170.255 27.8263 168.28 25.3781C163.276 19.1744 157.192 13.9353 150.325 9.91581C149.76 9.6197 149.106 9.54543 148.489 9.7074C147.873 9.86937 147.339 10.256 146.99 10.792L137.5 30.6095C136.115 33.3927 140.065 35.7637 141.681 33.0578L147.119 22.9557C154.198 63.2608 154.814 102.844 154.814 143.845C154.814 153.045 155.275 162.194 155.865 171.342C139.059 185.572 119.582 196.272 98.5881 202.808C68.5772 212.137 37.2324 213.451 6.24673 216.415C6.04571 216.427 5.85169 216.494 5.6848 216.607C5.51792 216.72 5.38425 216.876 5.29766 217.059H1.2449C0.900219 217.106 0.584066 217.276 0.355124 217.539C0.126182 217.802 0 218.14 0 218.489C0 218.839 0.126182 219.176 0.355124 219.439C0.584066 219.702 0.900219 219.873 1.2449 219.92C53.2382 223.193 105.462 224.507 157.712 224.687C157.507 238.088 156.763 251.463 155.66 264.812C155.66 266.152 157.815 266.487 158.02 265.147C159.927 251.753 160.913 238.243 160.97 224.713C204.268 224.842 247.566 224.223 290.735 223.296C288.409 225.032 285.957 226.591 283.399 227.96L278.269 230.537C275.345 231.955 277.91 236.052 280.834 234.815C282.707 234.016 284.477 233.14 286.195 232.238L305.535 222.806C306.078 222.547 306.512 222.106 306.764 221.558C307.015 221.011 307.068 220.392 306.912 219.81C306.757 219.228 306.403 218.719 305.912 218.371C305.422 218.024 304.825 217.861 304.227 217.91ZM36.8733 217.317C80.0942 214.147 121.699 203.994 156.019 176.831C156.532 184.691 157.071 192.577 157.379 200.463C157.635 206.519 157.712 212.601 157.687 218.657C117.441 218.27 77.1701 217.781 36.8733 217.317Z" fill="white"/>
</svg>
