<svg width="18" height="18" viewBox="0 0 18 18" fill="none" xmlns="http://www.w3.org/2000/svg">
<path d="M1.60577 4.73094L9 0.46188L16.3942 4.73094V13.2691L9 17.5381L1.60577 13.2691V4.73094Z" stroke="#410EAD" stroke-width="0.8"/>
<path fill-rule="evenodd" clip-rule="evenodd" d="M7.3224 4.02243C7.31021 4.03533 7.3004 4.06393 7.3006 4.08596C7.3008 4.10799 7.39169 4.30157 7.50256 4.51613C7.61343 4.73066 7.70088 4.91179 7.69689 4.91864C7.6929 4.92546 7.62407 4.97133 7.54396 5.02059C7.06317 5.31612 6.66021 5.83444 6.48767 6.37932C6.42271 6.58446 6.37644 6.8515 6.37644 7.02139V7.14588H9H11.6236L11.6235 7.04326C11.6234 6.88351 11.5721 6.5877 11.5114 6.39576C11.3315 5.82786 10.9519 5.33563 10.4448 5.01275C10.3611 4.95943 10.3051 4.91129 10.3086 4.89569C10.312 4.88113 10.402 4.70005 10.5086 4.49328C10.6266 4.26445 10.7001 4.10071 10.6965 4.07482C10.6883 4.01606 10.6354 3.98313 10.5935 4.01067C10.5758 4.02237 10.4681 4.21142 10.3544 4.43081C10.2367 4.65783 10.1372 4.82824 10.1234 4.82634C10.1102 4.8245 10.0162 4.79208 9.91455 4.75425C9.33417 4.53831 8.67257 4.53847 8.08545 4.75468C7.98383 4.79209 7.88977 4.82429 7.87643 4.8262C7.86247 4.8282 7.76794 4.66655 7.65388 4.44556C7.54481 4.23431 7.44454 4.04739 7.43106 4.03021C7.40203 3.99319 7.35333 3.98971 7.3224 4.02243ZM7.91555 5.70343C7.96059 5.7279 8.02064 5.83552 8.02071 5.89199C8.02082 5.96425 7.96972 6.05969 7.91141 6.09614C7.69635 6.23054 7.47669 5.92625 7.65364 5.73908C7.72626 5.66224 7.81694 5.64991 7.91555 5.70343ZM10.3226 5.71248C10.3659 5.74213 10.4011 5.80718 10.4055 5.86562C10.4127 5.96206 10.4001 6.0009 10.3413 6.06303C10.2926 6.11463 10.2633 6.12949 10.2102 6.12949C10.122 6.12949 10.0425 6.07892 10.0072 6.00035C9.96835 5.91366 9.97216 5.85317 10.0214 5.77567C10.0893 5.66877 10.219 5.64158 10.3226 5.71248ZM5.36811 7.28284C5.24519 7.33415 5.11065 7.47277 5.04924 7.61135L5 7.72248V9.14934V10.5762L5.04953 10.688C5.25905 11.1609 5.87076 11.1796 6.10248 10.7201L6.1455 10.6348V9.14934V7.66385L6.10542 7.58467C6.05044 7.47601 5.92979 7.35273 5.82577 7.29888C5.70472 7.23624 5.49716 7.22897 5.36811 7.28284ZM12.2015 7.28485C12.0896 7.33035 11.9591 7.45644 11.8975 7.57857L11.8545 7.66385V9.14934V10.6348L11.8949 10.7148C12.1294 11.1783 12.7401 11.1628 12.9505 10.688L13 10.5762V9.14893V7.72166L12.939 7.59065C12.8029 7.29818 12.4889 7.16799 12.2015 7.28485ZM6.39492 9.42224C6.39492 11.4826 6.39494 11.4837 6.43457 11.5958C6.48285 11.7322 6.60818 11.8798 6.73635 11.951C6.82352 11.9994 6.84717 12.0029 7.12933 12.0094L7.42956 12.0162L7.43156 12.2149C7.43267 12.3241 7.43911 12.673 7.44588 12.9901C7.45812 13.5639 7.45842 13.5672 7.50694 13.6645C7.56957 13.79 7.6732 13.8951 7.78984 13.9515C7.92133 14.0151 8.14263 14.0151 8.26454 13.9516C8.38515 13.8887 8.49596 13.7686 8.55379 13.6382L8.60277 13.5276L8.60857 12.7702L8.61436 12.0128H9H9.38564L9.39143 12.7702L9.39723 13.5276L9.44621 13.6382C9.50404 13.7686 9.61485 13.8887 9.73546 13.9516C9.86367 14.0184 10.0794 14.0158 10.2206 13.9457C10.3349 13.889 10.4455 13.7796 10.4977 13.6717C10.557 13.5489 10.5702 13.3707 10.5703 12.684L10.5704 12.0162L10.8707 12.0094C11.1528 12.0029 11.1765 11.9994 11.2636 11.951C11.3918 11.8798 11.5172 11.7322 11.5654 11.5958C11.6051 11.4837 11.6051 11.4826 11.6051 9.42224V7.36088H9H6.39492V9.42224Z" fill="#410EAD"/>
</svg>
