<svg width="50" height="50" viewBox="0 0 50 50" fill="none" xmlns="http://www.w3.org/2000/svg">
<path fill-rule="evenodd" clip-rule="evenodd" d="M22.834 0.237097C22.6333 0.437399 22.5863 0.61381 22.5316 1.37117C22.4221 2.88901 22.4337 2.85766 21.9043 3.05353C21.524 3.19415 21.4056 3.20292 21.2743 3.1003C21.1855 3.03075 20.7759 2.69032 20.3641 2.34375C19.2344 1.39284 19.2231 1.39577 17.5583 3.05716C15.8678 4.74425 15.8769 4.69909 16.9721 5.99748C17.3901 6.49304 17.7147 6.94536 17.6934 7.00262C17.6722 7.05998 17.5947 7.2744 17.5213 7.47913C17.3718 7.89607 17.3545 7.90161 15.8168 8.02188C15.1135 8.07692 14.9262 8.12903 14.7309 8.32389C14.5001 8.55423 14.4949 8.60151 14.4949 10.4839C14.4949 12.3662 14.5001 12.4135 14.7309 12.6439C14.9262 12.8387 15.1135 12.8908 15.8168 12.9459C17.3545 13.0661 17.3718 13.0717 17.5213 13.4886C17.5947 13.6933 17.6722 13.9078 17.6934 13.9651C17.7147 14.0224 17.3901 14.4747 16.9721 14.9703C15.8769 16.2687 15.8678 16.2235 17.5583 17.9106C19.2231 19.572 19.2344 19.5749 20.3641 18.624C20.7759 18.2775 21.1855 17.937 21.2743 17.8674C21.4056 17.7648 21.524 17.7736 21.9043 17.9142C22.4337 18.1101 22.4221 18.0787 22.5316 19.5966C22.5863 20.3539 22.6333 20.5303 22.834 20.7306C23.0669 20.963 23.11 20.9677 25 20.9677C26.8862 20.9677 26.9335 20.9626 27.1643 20.7323C27.3596 20.5374 27.4118 20.3504 27.467 19.6486C27.5875 18.1139 27.593 18.0967 28.0108 17.9475C28.216 17.8742 28.4308 17.7969 28.4883 17.7757C28.5457 17.7544 28.9989 18.0784 29.4955 18.4956C30.7965 19.5886 30.7512 19.5977 32.4417 17.9106C34.1322 16.2235 34.1231 16.2687 33.0279 14.9703C32.6099 14.4747 32.2853 14.0224 32.3066 13.9651C32.3278 13.9078 32.4061 13.6911 32.4805 13.4837C32.6332 13.0579 32.6447 13.054 34.1311 12.9473C34.89 12.8927 35.0668 12.8458 35.2675 12.6455C35.5003 12.4131 35.5051 12.3701 35.5051 10.4839C35.5051 8.60151 35.4999 8.55423 35.2691 8.32389C35.0738 8.12903 34.8865 8.07692 34.1832 8.02188C32.6455 7.90161 32.6282 7.89607 32.4787 7.47913C32.4053 7.2744 32.3278 7.05998 32.3066 7.00262C32.2853 6.94536 32.6099 6.49304 33.0279 5.99748C34.1231 4.69909 34.1322 4.74425 32.4417 3.05716C30.7512 1.37006 30.7965 1.37913 29.4955 2.47218C28.9989 2.88931 28.5457 3.21331 28.4883 3.19204C28.4308 3.17087 28.216 3.09355 28.0108 3.02026C27.593 2.87107 27.5875 2.85383 27.467 1.31915C27.4118 0.617339 27.3596 0.430343 27.1643 0.235484C26.9335 0.00514117 26.8862 0 25 0C23.11 0 23.0669 0.00473792 22.834 0.237097ZM25.9587 2.59325C26.0496 3.80292 26.1208 3.99698 26.5381 4.17177C26.7199 4.24798 27.2096 4.45756 27.6263 4.6376C28.8211 5.15393 28.7809 5.15968 29.7905 4.32933L30.6766 3.6006L31.2869 4.20968L31.8972 4.81875L31.167 5.70302C30.3349 6.71058 30.3407 6.67046 30.8581 7.8629C31.0385 8.27873 31.2485 8.76744 31.3248 8.94889C31.5 9.36532 31.6944 9.43639 32.9066 9.52712L33.8889 9.60061V10.4839V11.3671L32.9066 11.4406C31.6944 11.5314 31.5 11.6024 31.3248 12.0189C31.2485 12.2003 31.0385 12.689 30.8581 13.1048C30.3407 14.2973 30.3349 14.2572 31.167 15.2647L31.8972 16.149L31.2869 16.7581L30.6766 17.3671L29.7905 16.6384C28.7809 15.8081 28.8211 15.8138 27.6263 16.3301C27.2096 16.5102 26.7199 16.7198 26.5381 16.796C26.1208 16.9708 26.0496 17.1648 25.9587 18.3745L25.885 19.3548H25.0054H24.1258L24.0237 18.2299C23.9133 17.0133 23.8074 16.8139 23.1943 16.6684C23.0486 16.6339 22.579 16.4476 22.1508 16.2544C21.6413 16.0247 21.2924 15.9244 21.1407 15.9643C21.0133 15.9979 20.5535 16.3284 20.1189 16.6989L19.3288 17.3725L18.7158 16.7607L18.1028 16.149L18.8241 15.2755C19.2208 14.7951 19.5455 14.3125 19.5455 14.203C19.5455 14.0936 19.4485 13.8143 19.3299 13.5824C19.2113 13.3504 19.0074 12.8645 18.8768 12.5027C18.5482 11.5923 18.4411 11.5255 17.1726 11.4392L16.1111 11.367V10.4857V9.60423L17.0824 9.53306C18.2833 9.44506 18.4999 9.36563 18.6752 8.94889C18.7515 8.76744 18.9615 8.27873 19.1419 7.8629C19.6593 6.67046 19.6651 6.71058 18.833 5.70302L18.1028 4.81875L18.7131 4.20968L19.3234 3.6006L20.2095 4.32933C21.2191 5.15968 21.1789 5.15393 22.3737 4.6376C22.7904 4.45756 23.2801 4.24798 23.4619 4.17177C23.8792 3.99698 23.9504 3.80292 24.0413 2.59325L24.115 1.6129H25H25.885L25.9587 2.59325ZM23.7992 5.80454C21.2381 6.49194 19.6535 9.13841 20.3062 11.6389C20.8059 13.5535 22.3948 14.9737 24.3523 15.255C27.6754 15.7329 30.5388 12.5664 29.6978 9.34405C29.0159 6.73125 26.3367 5.12349 23.7992 5.80454ZM3.04222 6.56371C2.41566 6.71048 1.49848 7.24929 1.05172 7.73296C0.82495 7.97853 0.495455 8.48256 0.319697 8.85282L0 9.52621V23.3923V37.2585L0.377273 38.0202C0.831616 38.9377 1.41646 39.5092 2.35556 39.9531L3.0303 40.2722L11.1869 40.3002L19.3434 40.3283V41.9262V43.5241L18.1061 43.5693C17.0672 43.6073 16.7877 43.6532 16.3636 43.8563C15.7235 44.1627 15.116 44.7666 14.7973 45.4133C14.5672 45.8803 14.5464 46.0486 14.5138 47.7031L14.4787 49.4889L14.7347 49.7445L14.9908 50H25H35.0092L35.2669 49.7428L35.5244 49.4857L35.4888 47.7015L35.453 45.9173L35.1074 45.2797C34.7314 44.5862 34.3 44.1755 33.589 43.8342C33.2189 43.6565 32.8946 43.6058 31.8939 43.5693L30.6566 43.5241V41.9262V40.3283L38.8185 40.3002L46.9804 40.2722L47.7435 39.8957C48.6628 39.4422 49.2355 38.8585 49.6803 37.9214L50 37.248V23.3871V9.52621L49.6803 8.85282C49.2356 7.91583 48.6628 7.33196 47.7436 6.87853L46.9805 6.50202L41.2428 6.47288L35.5051 6.44375V7.25413V8.06452H40.9226C44.8809 8.06452 46.4522 8.09758 46.756 8.1871C47.3108 8.35071 48.1476 9.18579 48.3115 9.73952C48.4046 10.0542 48.4343 12.8237 48.4343 21.2062V32.2581H25H1.56566V21.2062C1.56566 12.8237 1.59535 10.0542 1.68848 9.73952C1.85242 9.18579 2.68919 8.35071 3.24404 8.1871C3.54778 8.09758 5.11909 8.06452 9.07737 8.06452H14.4949V7.25806V6.45161L8.96465 6.46169C5.92303 6.46734 3.25788 6.51321 3.04222 6.56371ZM26.3636 7.56935C27.0016 7.87046 27.6102 8.47409 27.9299 9.12298C28.2822 9.8379 28.2803 11.1133 27.9259 11.8448C27.6143 12.4875 27.0077 13.0929 26.3636 13.4038C25.6307 13.7576 24.3527 13.7595 23.6364 13.4079C22.9924 13.0919 22.3867 12.4874 22.0701 11.8448C21.7178 11.1298 21.7197 9.85444 22.0741 9.12298C22.4919 8.26089 23.3119 7.58881 24.2424 7.34587C24.7839 7.20454 25.8225 7.31391 26.3636 7.56935ZM19.6076 22.7459C19.2615 22.8519 18.9548 23.0561 18.5806 23.4296C17.7704 24.2382 17.7273 24.461 17.7273 27.8409V30.6452H18.5354H19.3434V29.4355V28.2258H20.5556H21.7677V29.4355V30.6452H22.5758H23.3838V27.8409C23.3838 24.462 23.3406 24.238 22.5318 23.4309C21.73 22.6306 20.7402 22.3988 19.6076 22.7459ZM24.4399 22.8281L24.1919 23.0755V26.8604V30.6452H25H25.8081V29.0323V27.4194H26.8002C28.1007 27.4194 28.5985 27.2503 29.1716 26.6141C30.1109 25.5715 30.0814 24.3183 29.0943 23.3333C28.4239 22.6642 28.1047 22.5806 26.2211 22.5806C24.7278 22.5806 24.6813 22.5871 24.4399 22.8281ZM30.6566 26.6129V30.6452H31.4646H32.2727V26.6129V22.5806H31.4646H30.6566V26.6129ZM21.4047 24.5912C21.6969 24.8828 21.7195 24.9585 21.7528 25.758L21.7884 26.6129H20.5556H19.3227L19.3583 25.7641C19.3893 25.0254 19.4267 24.8801 19.6465 24.6443C19.9843 24.2815 20.2263 24.1879 20.6977 24.2377C20.968 24.2662 21.1907 24.3776 21.4047 24.5912ZM27.9843 24.441C28.1407 24.597 28.2323 24.8036 28.2323 25C28.2323 25.1964 28.1407 25.403 27.9843 25.559C27.7558 25.7872 27.6613 25.8065 26.7722 25.8065H25.8081V25V24.1935H26.7722C27.6613 24.1935 27.7558 24.2128 27.9843 24.441ZM48.4343 35.2454C48.4343 36.0298 48.3816 36.7979 48.3115 37.0347C48.1476 37.5884 47.3108 38.4235 46.756 38.5871C46.1514 38.7653 3.84859 38.7653 3.24404 38.5871C2.68919 38.4235 1.85242 37.5884 1.68848 37.0347C1.61838 36.7979 1.56566 36.0298 1.56566 35.2454V33.871H25H48.4343V35.2454ZM20.9596 36.2903V37.0968H25H29.0404V36.2903V35.4839H25H20.9596V36.2903ZM29.0404 41.9355V43.5484H25H20.9596V41.9355V40.3226H25H29.0404V41.9355ZM33.1429 45.4196C33.7479 45.8704 33.8357 46.0948 33.8725 47.2853L33.9068 48.3871H25.0089H16.1111V47.436C16.1111 46.4144 16.2003 46.0545 16.5472 45.6777C17.0303 45.1526 16.8022 45.1656 25.1189 45.1894C32.7664 45.2114 32.8676 45.2143 33.1429 45.4196Z" fill="#FF9A3D"/>
</svg>
