<svg width="34" height="44" viewBox="0 0 34 44" fill="none" xmlns="http://www.w3.org/2000/svg">
<path fill-rule="evenodd" clip-rule="evenodd" d="M1.84717 0.151513C1.1789 0.385083 0.607088 0.889612 0.301635 1.51508L0.0454543 2.03973L0.0219996 17.8666C-0.000818471 33.2381 0.00336353 33.6996 0.169363 33.9057C0.406453 34.2001 0.956722 34.2007 1.19354 33.9066C1.35799 33.7024 1.36363 33.2478 1.36363 20.1301V6.56485H12.5908H23.8181V8.34318C23.8181 10.2359 23.8654 10.4962 24.2414 10.6685C24.553 10.8113 24.6689 10.7967 24.9422 10.5805L25.1817 10.3911V6.30029C25.1817 1.69737 25.1809 1.69042 24.527 0.943456C24.3244 0.71208 23.9491 0.411502 23.6929 0.275657L23.2272 0.0285574L12.7727 0.00771445C2.90726 -0.0119401 2.29163 -0.00389558 1.84717 0.151513ZM23.098 1.54059C23.7418 1.87088 23.8173 2.10308 23.8177 3.75379L23.8181 5.1936H12.5908H1.36363V3.81193C1.36363 2.19486 1.4749 1.86448 2.12944 1.53867C2.49435 1.35703 2.65344 1.35428 12.6172 1.35419C22.6217 1.3541 22.7384 1.3562 23.098 1.54059ZM12.2574 2.68229C11.9202 2.86641 11.8317 3.30886 12.0682 3.62763L12.2467 3.86806L14.3034 3.89265C16.2626 3.91605 16.3688 3.90847 16.5436 3.73267C16.8161 3.4587 16.7887 2.97017 16.4876 2.73202C16.2626 2.55394 16.1354 2.5427 14.374 2.54617C12.9151 2.54901 12.4462 2.57918 12.2574 2.68229ZM13.8807 8.37417C13.7082 8.56587 9.63632 18.8239 9.63632 19.0668C9.63632 19.5391 10.273 19.8696 10.6738 19.6054C10.8362 19.4984 11.3661 18.2512 12.9428 14.2653C14.0742 11.405 14.9999 8.95485 14.9999 8.82047C14.9999 8.2972 14.2272 7.98913 13.8807 8.37417ZM7.68178 10.4024C7.58178 10.4444 6.79433 11.1948 5.93179 12.0702C4.61534 13.406 4.36362 13.7047 4.36362 13.9305C4.36362 14.1554 4.62825 14.4735 5.97724 15.8701C7.71842 17.6726 7.81496 17.7338 8.30587 17.3454C8.4856 17.2033 8.54541 17.0735 8.54541 16.8262C8.54541 16.5246 8.43705 16.3867 7.27587 15.2109L6.00634 13.9253L7.27587 12.6377C8.42469 11.4725 8.54541 11.3195 8.54541 11.0285C8.54541 10.5551 8.09551 10.2289 7.68178 10.4024ZM17.0286 10.405C16.7851 10.5036 16.6363 10.7673 16.6363 11.0998C16.6363 11.2992 16.8955 11.6129 17.9116 12.6434L19.1867 13.9368L17.9116 15.27C16.5242 16.7204 16.4383 16.887 16.8595 17.3104C17.3069 17.7605 17.44 17.6809 19.2016 15.9094C20.6485 14.4545 20.8181 14.252 20.8181 13.9798C20.8181 13.7115 20.6442 13.4925 19.3442 12.1237C18.0275 10.7373 17.5325 10.3002 17.2999 10.3187C17.2599 10.3219 17.1378 10.3608 17.0286 10.405ZM22.5589 15.6929C22.4641 15.7883 22.3668 16.0578 22.3363 16.31C22.3063 16.5563 22.2555 16.9868 22.2234 17.2668L22.1649 17.7758L21.591 18.0272L21.0171 18.2786L20.2213 17.7239C19.7451 17.392 19.3305 17.1692 19.1886 17.1692C19.0058 17.1692 18.6909 17.4347 17.8062 18.3348C17.1762 18.9758 16.6358 19.5726 16.6056 19.6611C16.5226 19.903 16.656 20.167 17.2168 20.8716C17.4969 21.2235 17.7264 21.5518 17.7266 21.6012C17.7271 21.6677 17.4087 22.5318 17.3132 22.7235C17.3067 22.7365 16.8872 22.8215 16.3808 22.9125C15.0336 23.1543 15.0908 23.0562 15.0908 25.1224C15.0908 27.2037 15.0301 27.1025 16.3829 27.2754C16.8973 27.3411 17.3222 27.3978 17.3272 27.4014C17.3322 27.4049 17.4474 27.6708 17.5832 27.9921L17.8302 28.5764L17.3216 29.2892C16.7881 30.0369 16.6753 30.2991 16.765 30.5832C16.7948 30.6777 17.3237 31.2567 17.9404 31.8696C19.317 33.2382 19.2884 33.2321 20.3806 32.3885L21.152 31.7928L21.6896 32.0317C21.9853 32.1632 22.2524 32.3118 22.2834 32.3621C22.3143 32.4124 22.3932 32.8289 22.4586 33.2877C22.605 34.3147 22.7743 34.5384 23.4049 34.5384H23.8181V35.3154V36.0925H12.1067H0.395362L0.197636 36.304C0.00418212 36.5111 0 36.5715 0 39.1345C0 41.5331 0.0153639 41.7948 0.182545 42.2441C0.430089 42.9094 0.90045 43.4346 1.52508 43.743L2.04544 44H12.5908H23.1363L23.6162 43.7819C23.9016 43.6523 24.2575 43.3833 24.4942 43.1186C25.1752 42.357 25.1817 42.3101 25.1817 38.1788V34.5384H25.7171C26.5348 34.5384 26.6258 34.4255 26.7825 33.2158C26.8534 32.6681 26.9211 32.2155 26.933 32.2101C27.4391 31.979 28.0335 31.7893 28.1321 31.8273C28.2035 31.8549 28.5404 32.0801 28.8809 32.3277C29.2213 32.5755 29.5899 32.806 29.6999 32.8402C30.028 32.9421 30.374 32.6869 31.4432 31.5547C32.6877 30.2368 32.6859 30.2463 31.8702 29.1957L31.2859 28.4433L31.5176 27.8505L31.7493 27.2577L32.6568 27.1111C34.0294 26.8894 33.9998 26.9373 33.9998 24.9338C33.9998 22.8769 34.044 22.9502 32.6843 22.7514L31.7071 22.6085L31.4786 22.033L31.2501 21.4576L31.8124 20.6221C32.2617 19.9547 32.3635 19.7395 32.3184 19.5521C32.2477 19.258 30.1364 17.1091 29.8462 17.0359C29.5766 16.9678 29.3761 17.0737 28.6183 17.6842C28.2835 17.954 27.9734 18.1748 27.9292 18.1748C27.885 18.1748 27.607 18.0758 27.3114 17.9548L26.7739 17.735L26.619 16.8019C26.5251 16.2361 26.403 15.8009 26.3088 15.6963C26.1671 15.5388 26.0041 15.5237 24.4403 15.5237C22.8942 15.5237 22.7107 15.5402 22.5589 15.6929ZM25.3558 17.6034C25.5333 18.7674 25.5891 18.8463 26.409 19.0952C26.609 19.1559 27.0067 19.3232 27.2927 19.4671C27.5788 19.6111 27.9136 19.7289 28.0368 19.7289C28.174 19.7289 28.5313 19.5126 28.96 19.17L29.6593 18.6112L30.2103 19.1653L30.7613 19.7194L30.2439 20.4783C29.9593 20.8957 29.7266 21.3104 29.7268 21.3999C29.7269 21.4893 29.8449 21.7978 29.9889 22.0855C30.1328 22.3731 30.3259 22.85 30.418 23.1453C30.5109 23.4428 30.6677 23.736 30.7699 23.8032C30.8714 23.8699 31.3328 23.9731 31.7953 24.0326L32.6362 24.1408V24.9383V25.7359L31.8105 25.8549C31.3524 25.9209 30.9058 26.0387 30.8073 26.1195C30.7097 26.1996 30.5132 26.6046 30.3708 27.0193C30.2282 27.4342 30.0456 27.875 29.9649 27.9989C29.6957 28.412 29.7759 28.7383 30.318 29.435C30.593 29.7884 30.818 30.1056 30.818 30.1398C30.818 30.1739 30.5762 30.4424 30.2807 30.7365L29.7434 31.2712L29.0336 30.7565C28.6432 30.4734 28.2328 30.2418 28.1214 30.2418C28.01 30.2418 27.6406 30.3818 27.3003 30.553C26.9601 30.7241 26.5101 30.9102 26.3002 30.9665C25.7247 31.121 25.5761 31.377 25.4999 32.3444L25.4352 33.1671H24.6338H23.8325L23.7828 32.9157C23.7555 32.7775 23.6874 32.398 23.6315 32.0725C23.5757 31.7471 23.4943 31.4136 23.4506 31.3316C23.4069 31.2496 23.0676 31.074 22.6965 30.9416C22.3255 30.8091 21.807 30.6006 21.5443 30.4782C20.9711 30.2112 20.845 30.2436 20.1075 30.8477C19.8237 31.0802 19.537 31.2914 19.4703 31.3171C19.3419 31.3667 18.3635 30.4552 18.3635 30.286C18.3635 30.2315 18.5493 29.9303 18.7762 29.6167C19.4199 28.727 19.4235 28.6999 19.0111 27.7858C18.8154 27.3516 18.6079 26.8455 18.5502 26.661C18.4924 26.4764 18.3861 26.2761 18.3138 26.2159C18.2415 26.1555 17.8039 26.0595 17.3412 26.0023L16.4999 25.8985L16.4737 25.1071L16.4476 24.3157L16.701 24.2651C16.8405 24.2371 17.2204 24.1684 17.5454 24.1123C17.8704 24.0562 18.2061 23.9472 18.2915 23.8701C18.3768 23.7931 18.5349 23.457 18.6427 23.1235C18.7505 22.79 18.9364 22.3452 19.0556 22.1351C19.3899 21.5467 19.3453 21.3306 18.7285 20.5521L18.1857 19.8668L18.7404 19.3041L19.2949 18.7415L19.9746 19.2319C20.3484 19.5016 20.7337 19.7476 20.8308 19.7786C20.9389 19.8131 21.2083 19.7308 21.5264 19.566C21.8118 19.4181 22.3219 19.2057 22.6599 19.0939C22.9979 18.9821 23.3129 18.8184 23.3598 18.7303C23.4277 18.6027 23.6362 17.2719 23.6362 16.9659C23.6362 16.9268 23.9988 16.8949 24.442 16.8949H25.2477L25.3558 17.6034ZM23.4804 21.507C22.5119 21.8113 21.534 22.7126 21.169 23.6372C21.0057 24.0509 20.9608 24.3473 20.958 25.031C20.9547 25.822 20.9804 25.9544 21.2447 26.5157C22.3539 28.8702 25.3177 29.3757 27.1364 27.5206C29.0193 25.6 28.143 22.2816 25.5515 21.5195C24.9619 21.3462 24.0105 21.3404 23.4804 21.507ZM25.7062 23.0796C26.2161 23.396 26.6777 24.1065 26.7684 24.715C26.8551 25.2964 26.6209 26.0434 26.2076 26.5034C25.8915 26.8552 25.4805 27.1336 25.2771 27.1336C25.2145 27.1336 25.1817 26.6333 25.1817 25.6776V24.2215L24.9422 24.0321C24.6161 23.7741 24.398 23.7939 24.0838 24.1098L23.8181 24.377V25.7553C23.8181 26.5134 23.791 27.1336 23.7579 27.1336C23.7248 27.1336 23.5276 27.0333 23.3197 26.9108C22.1187 26.2032 21.9354 24.3522 22.9688 23.3681C23.6912 22.6802 24.8631 22.5567 25.7062 23.0796ZM23.8181 39.5985C23.8181 41.6621 23.8112 41.7433 23.6135 42.0346C23.501 42.2003 23.2664 42.4121 23.0923 42.5052C22.7893 42.6671 22.3302 42.6745 12.6437 42.6745C2.69762 42.6745 2.50508 42.6711 2.13635 42.4916C1.89699 42.3751 1.68872 42.1799 1.56217 41.9535C1.37436 41.6174 1.36363 41.487 1.36363 39.531V37.4637H12.5908H23.8181V39.5985ZM9.01577 39.8692C8.65296 40.2577 8.84869 40.8506 9.38405 40.9847C9.49777 41.0132 11.0366 41.0246 12.8035 41.0099L16.0162 40.9832L16.1898 40.7674C16.4151 40.4876 16.4115 40.0715 16.1817 39.8405C16.0064 39.6642 15.8787 39.6577 12.6067 39.6577H9.2135L9.01577 39.8692Z" fill="#E51FE9"/>
</svg>
