<svg width="49" height="50" viewBox="0 0 49 50" fill="none" xmlns="http://www.w3.org/2000/svg">
<path fill-rule="evenodd" clip-rule="evenodd" d="M12.7543 0.173399C11.5472 0.497645 10.3315 1.44987 9.75924 2.51923C9.13165 3.69204 9.16903 2.2662 9.16903 25.0088C9.16903 43.3408 9.18742 45.8501 9.3256 46.3801C9.76701 48.0731 11.0662 49.3834 12.7353 49.8186C13.3499 49.9788 14.3495 49.9944 24.3981 49.9997C31.4719 50.0035 35.5846 49.9685 35.9384 49.9015C37.7767 49.5532 39.3641 47.9682 39.7056 46.1402C39.8467 45.3844 39.8467 4.63315 39.7056 3.87732C39.3776 2.12142 37.9551 0.630383 36.1629 0.164115C35.3 -0.060449 13.5926 -0.0518786 12.7543 0.173399ZM35.7411 2.15785C36.3891 2.33762 37.0573 2.87092 37.398 3.48013C37.6792 3.98323 37.7152 4.1476 37.75 5.08707L37.7888 6.13357H24.4886H11.1885L11.2273 5.08707C11.2621 4.1476 11.298 3.98323 11.5793 3.48013C11.908 2.89235 12.5853 2.33844 13.1894 2.16356C13.6493 2.03041 35.2621 2.0249 35.7411 2.15785ZM46.7287 5.32367C46.2975 5.5511 45.9361 6.15306 45.9361 6.64371C45.9361 7.42004 46.6909 8.17413 47.468 8.17413C48.2452 8.17413 49 7.42004 49 6.64371C49 6.13745 48.6388 5.54967 48.1856 5.31868C47.6824 5.06228 47.2215 5.06381 46.7287 5.32367ZM5.60569 7.29629C4.72032 7.78653 5.09075 9.19442 6.10511 9.19442C6.62261 9.19442 7.12642 8.69601 7.12642 8.18403C7.12642 7.418 6.27904 6.92337 5.60569 7.29629ZM37.7656 25.0088V41.8434H24.4886H11.2116V25.0088V8.17413H24.4886H37.7656V25.0088ZM21.9512 10.3436C21.7759 10.4277 21.2628 11.3552 20.0362 13.805C19.1147 15.6455 18.3608 17.2458 18.3608 17.3612C18.3608 17.8783 18.8622 18.3769 19.3821 18.3769C19.9704 18.3769 20.0643 18.2371 21.7924 14.7856C22.7136 12.9456 23.4673 11.3503 23.4673 11.2404C23.4673 10.487 22.6541 10.0059 21.9512 10.3436ZM15.7565 11.4268C15.2487 11.7433 13.3769 13.7195 13.3019 14.0182C13.2635 14.1709 13.2632 14.4221 13.3013 14.5764C13.3936 14.9501 15.6632 17.2175 16.0373 17.3096C16.8169 17.5015 17.4873 16.8365 17.2932 16.064C17.2555 15.9141 16.8969 15.4537 16.4961 15.0408L15.7675 14.2902L16.4399 13.6043C17.1529 12.877 17.3395 12.5996 17.3395 12.2668C17.3395 11.7248 16.8443 11.2345 16.2978 11.2354C16.1686 11.2356 15.925 11.3217 15.7565 11.4268ZM25.0105 11.3774C24.5524 11.6311 24.3661 12.2324 24.6022 12.6956C24.6647 12.8181 25.0184 13.2271 25.3882 13.6043L26.0606 14.2902L25.332 15.0408C24.9313 15.4537 24.5726 15.9141 24.5349 16.064C24.3409 16.8365 25.0112 17.5015 25.7908 17.3096C26.1649 17.2175 28.4346 14.9501 28.5268 14.5764C28.6539 14.061 28.4712 13.7547 27.3661 12.6314C25.9751 11.2177 25.6304 11.0342 25.0105 11.3774ZM0.499159 18.5194C-0.386212 19.0096 -0.0157839 20.4175 0.998578 20.4175C1.51607 20.4175 2.01988 19.9191 2.01988 19.4071C2.01988 18.6411 1.17251 18.1465 0.499159 18.5194ZM44.4154 19.5397C43.53 20.0299 43.9004 21.4378 44.9148 21.4378C45.4323 21.4378 45.9361 20.9394 45.9361 20.4274C45.9361 19.6614 45.0887 19.1667 44.4154 19.5397ZM14.7975 22.6005C14.113 22.9794 14.1354 24.0586 14.8344 24.3767C15.2182 24.5515 27.6312 24.5515 28.015 24.3767C28.3077 24.2435 28.5739 23.8157 28.5739 23.4783C28.5739 23.141 28.3077 22.7132 28.015 22.58C27.6062 22.3939 15.1356 22.4132 14.7975 22.6005ZM14.7975 26.6816C14.113 27.0605 14.1354 28.1397 14.8344 28.4578C15.2182 28.6326 27.6312 28.6326 28.015 28.4578C28.3077 28.3246 28.5739 27.8968 28.5739 27.5595C28.5739 27.2222 28.3077 26.7944 28.015 26.6611C27.6062 26.475 15.1356 26.4943 14.7975 26.6816ZM14.7975 30.7627C14.113 31.1417 14.1354 32.2208 14.8344 32.5389C15.0358 32.6307 17.431 32.6609 24.4985 32.6609C34.7039 32.6609 34.3152 32.6824 34.5797 32.1026C34.8184 31.5791 34.6462 31.0085 34.1762 30.7657C33.7724 30.5571 15.174 30.5542 14.7975 30.7627ZM14.7975 34.8439C14.113 35.2228 14.1354 36.3019 14.8344 36.6201C15.0358 36.7118 17.431 36.742 24.4985 36.742C34.7039 36.742 34.3152 36.7635 34.5797 36.1837C34.8184 35.6602 34.6462 35.0896 34.1762 34.8468C33.7724 34.6382 15.174 34.6353 14.7975 34.8439ZM2.81252 37.9727C2.38133 38.2001 2.01988 38.802 2.01988 39.2927C2.01988 40.069 2.77473 40.8231 3.55185 40.8231C4.32896 40.8231 5.08381 40.069 5.08381 39.2927C5.08381 38.7864 4.72257 38.1987 4.26942 37.9677C3.76622 37.7113 3.3053 37.7128 2.81252 37.9727ZM45.4367 40.9655C44.5513 41.4558 44.9217 42.8637 45.9361 42.8637C46.4536 42.8637 46.9574 42.3653 46.9574 41.8533C46.9574 41.0873 46.11 40.5926 45.4367 40.9655ZM37.75 44.9305C37.7152 45.8699 37.6792 46.0343 37.398 46.5374C37.0573 47.1466 36.3891 47.6799 35.7411 47.8597C35.2241 48.0031 13.7532 48.0031 13.2362 47.8597C12.5882 47.6799 11.9199 47.1466 11.5793 46.5374C11.298 46.0343 11.2621 45.8699 11.2273 44.9305L11.1885 43.884H24.4886H37.7888L37.75 44.9305Z" fill="#56A409"/>
</svg>
