<svg width="39" height="50" viewBox="0 0 39 50" fill="none" xmlns="http://www.w3.org/2000/svg">
<path fill-rule="evenodd" clip-rule="evenodd" d="M2.11882 0.172174C1.35227 0.437594 0.696366 1.01092 0.345993 1.72169L0.0521388 2.31787L0.0252348 20.303C-0.000938834 37.7705 0.00385816 38.295 0.194269 38.5292C0.466225 38.8638 1.09742 38.8644 1.36906 38.5302C1.5577 38.2981 1.56416 37.7816 1.56416 22.8751V7.46006H14.4424H27.3207V9.48089C27.3207 11.6317 27.3751 11.9275 27.8063 12.1234C28.1637 12.2855 28.2967 12.269 28.6101 12.0233L28.8849 11.8081V7.15942C28.8849 1.92883 28.8839 1.92093 28.1339 1.07211C27.9016 0.809182 27.471 0.467616 27.1771 0.313246L26.6429 0.0324516L14.651 0.00876642C3.3348 -0.0135684 2.62863 -0.00442679 2.11882 0.172174ZM26.4947 1.75067C27.2332 2.126 27.3199 2.38986 27.3203 4.26567L27.3207 5.90182H14.4424H1.56416V4.33174C1.56416 2.49416 1.6918 2.11873 2.4426 1.74849C2.86117 1.54207 3.04365 1.53896 14.4727 1.53885C25.9484 1.53875 26.0823 1.54114 26.4947 1.75067ZM14.06 3.04806C13.6732 3.25728 13.5716 3.76007 13.843 4.12231L14.0476 4.39552L16.4068 4.42347C18.6542 4.45006 18.776 4.44144 18.9765 4.24167C19.2891 3.93034 19.2577 3.37519 18.9123 3.10457C18.6541 2.90221 18.5082 2.88943 16.4878 2.89338C14.8144 2.8966 14.2765 2.93088 14.06 3.04806ZM15.9219 9.51611C15.7241 9.73395 11.0534 21.3908 11.0534 21.6668C11.0534 22.2035 11.7837 22.579 12.2434 22.2788C12.4298 22.1573 13.0376 20.74 14.8462 16.2106C16.1439 12.9602 17.2058 10.176 17.2058 10.0233C17.2058 9.42864 16.3194 9.07855 15.9219 9.51611ZM8.81145 11.8209C8.69675 11.8686 7.7935 12.7214 6.80411 13.7161C5.29407 15.2341 5.00532 15.5735 5.00532 15.8301C5.00532 16.0856 5.30888 16.4472 6.85625 18.0342C8.85348 20.0825 8.96422 20.152 9.52732 19.7106C9.73348 19.5492 9.80209 19.4017 9.80209 19.1207C9.80209 18.778 9.67779 18.6212 8.34586 17.2851L6.88962 15.8242L8.34586 14.361C9.66361 13.0369 9.80209 12.8631 9.80209 12.5323C9.80209 11.9944 9.28602 11.6238 8.81145 11.8209ZM19.5328 11.8239C19.2535 11.9359 19.0828 12.2355 19.0828 12.6134C19.0828 12.84 19.3801 13.1965 20.5456 14.3675L22.0083 15.8373L20.5456 17.3523C18.9542 19.0005 18.8557 19.1898 19.3388 19.6709C19.8521 20.1824 20.0047 20.0919 22.0254 18.0788C23.6851 16.4255 23.8796 16.1954 23.8796 15.8861C23.8796 15.5813 23.6801 15.3324 22.1889 13.777C20.6787 12.2015 20.1108 11.7048 19.844 11.7258C19.7981 11.7294 19.6581 11.7736 19.5328 11.8239ZM25.8764 17.8328C25.7676 17.9412 25.656 18.2475 25.621 18.5341C25.5867 18.814 25.5284 19.3032 25.4916 19.6214L25.4244 20.1998L24.7661 20.4855L24.1078 20.7712L23.195 20.1408C22.6488 19.7636 22.1732 19.5104 22.0105 19.5104C21.8008 19.5104 21.4396 19.8121 20.4247 20.835C19.7021 21.5634 19.0823 22.2416 19.0476 22.3422C18.9524 22.6171 19.1054 22.9171 19.7487 23.7177C20.07 24.1176 20.3332 24.4907 20.3335 24.5468C20.334 24.6224 19.9688 25.6043 19.8592 25.8221C19.8518 25.8369 19.3706 25.9335 18.7898 26.0369C17.2444 26.3117 17.3101 26.2003 17.3101 28.5482C17.3101 30.9133 17.2404 30.7983 18.7922 30.9948C19.3822 31.0695 19.8696 31.1339 19.8753 31.1379C19.881 31.142 20.0132 31.4441 20.1689 31.8092L20.4523 32.4732L19.8688 33.2832C19.2569 34.1329 19.1275 34.4308 19.2305 34.7537C19.2647 34.8611 19.8713 35.519 20.5787 36.2155C22.1577 37.7707 22.1249 37.7638 23.3778 36.8051L24.2626 36.1281L24.8793 36.3997C25.2184 36.5491 25.5249 36.718 25.5604 36.7751C25.5959 36.8323 25.6863 37.3055 25.7614 37.8269C25.9292 38.9939 26.1234 39.2481 26.8468 39.2481H27.3207V40.1311V41.0142H13.8871H0.453503L0.2267 41.2545C0.00479714 41.4899 0 41.5585 0 44.4711C0 47.1967 0.0176232 47.494 0.20939 48.0046C0.493338 48.7607 1.03287 49.3575 1.74936 49.708L2.34625 50H14.4424H26.5386L27.0891 49.7521C27.4166 49.6048 27.8248 49.2992 28.0962 48.9984C28.8774 48.1329 28.8849 48.0796 28.8849 43.385V39.2481H29.499C30.437 39.2481 30.5413 39.1199 30.7211 37.7453C30.8024 37.1228 30.8801 36.6085 30.8937 36.6024C31.4743 36.3397 32.1561 36.1242 32.2692 36.1674C32.3511 36.1988 32.7375 36.4546 33.128 36.7361C33.5186 37.0176 33.9413 37.2796 34.0675 37.3184C34.4439 37.4342 34.8408 37.1442 36.0672 35.8576C37.4947 34.36 37.4927 34.3708 36.557 33.1769L35.8868 32.322L36.1525 31.6483L36.4183 30.9746L37.4593 30.8081C39.0337 30.5562 38.9998 30.6106 38.9998 28.3338C38.9998 25.9965 39.0505 26.0798 37.4908 25.8538L36.3699 25.6915L36.1078 25.0375L35.8457 24.3837L36.4907 23.4342C37.006 22.6758 37.1228 22.4312 37.0711 22.2183C36.99 21.8841 34.5682 19.4422 34.2354 19.359C33.9261 19.2816 33.6962 19.4019 32.8269 20.0957C32.4428 20.4023 32.0871 20.6532 32.0365 20.6532C31.9858 20.6532 31.6669 20.5407 31.3278 20.4032L30.7112 20.1534L30.5335 19.093C30.4258 18.4501 30.2858 17.9555 30.1777 17.8367C30.0152 17.6577 29.8282 17.6406 28.0345 17.6406C26.261 17.6406 26.0505 17.6594 25.8764 17.8328ZM29.0846 20.0039C29.2882 21.3266 29.3522 21.4163 30.2926 21.699C30.522 21.768 30.9783 21.9582 31.3063 22.1217C31.6345 22.2854 32.0185 22.4192 32.1598 22.4192C32.3173 22.4192 32.7271 22.1734 33.2189 21.7841L34.021 21.1491L34.653 21.7787L35.285 22.4084L34.6915 23.2708C34.3651 23.7451 34.0981 24.2163 34.0984 24.318C34.0986 24.4196 34.2338 24.7702 34.399 25.0972C34.5641 25.424 34.7855 25.9659 34.8913 26.3015C34.9977 26.6395 35.1776 26.9728 35.2949 27.0491C35.4113 27.1248 35.9406 27.2421 36.4711 27.3097L37.4356 27.4327V28.339V29.2453L36.4885 29.3805C35.963 29.4555 35.4507 29.5895 35.3378 29.6813C35.2258 29.7723 35.0005 30.2325 34.8371 30.7038C34.6735 31.1752 34.4641 31.6761 34.3715 31.8169C34.0627 32.2863 34.1548 32.6572 34.7766 33.4489C35.092 33.8505 35.3501 34.2109 35.3501 34.2497C35.3501 34.2885 35.0727 34.5937 34.7337 34.9279L34.1174 35.5355L33.3032 34.9505C32.8555 34.6289 32.3847 34.3657 32.2569 34.3657C32.1292 34.3657 31.7054 34.5248 31.3151 34.7193C30.9248 34.9137 30.4086 35.1253 30.1679 35.1892C29.5077 35.3648 29.3372 35.6557 29.2499 36.755L29.1756 37.6899H28.2564H27.3373L27.2803 37.4042C27.249 37.2472 27.1709 36.8159 27.1067 36.446C27.0427 36.0762 26.9493 35.6972 26.8992 35.604C26.8491 35.5109 26.4599 35.3114 26.0343 35.1609C25.6087 35.0104 25.0139 34.7734 24.7125 34.6343C24.0551 34.3309 23.9104 34.3677 23.0645 35.0542C22.739 35.3184 22.4101 35.5584 22.3335 35.5876C22.1863 35.6439 21.0641 34.6081 21.0641 34.4159C21.0641 34.354 21.2771 34.0117 21.5374 33.6553C22.2758 32.6443 22.2798 32.6136 21.8068 31.5748C21.5823 31.0814 21.3444 30.5062 21.2782 30.2966C21.2118 30.0868 21.0899 29.8592 21.007 29.7908C20.9241 29.7222 20.4221 29.613 19.8914 29.5481L18.9264 29.4301L18.8963 28.5308L18.8664 27.6315L19.157 27.5739C19.317 27.5421 19.7528 27.4641 20.1256 27.4003C20.4984 27.3365 20.8835 27.2127 20.9814 27.1251C21.0793 27.0376 21.2606 26.6557 21.3843 26.2767C21.508 25.8977 21.7211 25.3923 21.8579 25.1536C22.2414 24.4849 22.1902 24.2393 21.4827 23.3546L20.8601 22.5759L21.4963 21.9365L22.1324 21.2971L22.9121 21.8545C23.3409 22.1609 23.7828 22.4405 23.8942 22.4757C24.0182 22.5149 24.3271 22.4213 24.692 22.2341C25.0194 22.0661 25.6045 21.8246 25.9922 21.6976C26.3799 21.5705 26.7413 21.3846 26.7951 21.2845C26.873 21.1394 27.1122 19.6271 27.1122 19.2794C27.1122 19.2351 27.528 19.1988 28.0364 19.1988H28.9606L29.0846 20.0039ZM26.9334 24.4398C25.8225 24.7856 24.7007 25.8098 24.2821 26.8605C24.0948 27.3305 24.0433 27.6674 24.04 28.4444C24.0363 29.3431 24.0657 29.4937 24.3689 30.1315C25.6412 32.807 29.0409 33.3815 31.1271 31.2734C33.2869 29.0909 32.2816 25.32 29.3091 24.454C28.6327 24.2571 27.5415 24.2504 26.9334 24.4398ZM29.4865 26.2269C30.0715 26.5863 30.6009 27.3938 30.705 28.0852C30.8044 28.7459 30.5357 29.5947 30.0617 30.1175C29.6991 30.5173 29.2276 30.8337 28.9944 30.8337C28.9225 30.8337 28.8849 30.2651 28.8849 29.1791V27.5245L28.6101 27.3092C28.2361 27.0161 27.9859 27.0385 27.6255 27.3975L27.3207 27.7012V29.2674C27.3207 30.1288 27.2896 30.8337 27.2517 30.8337C27.2137 30.8337 26.9876 30.7197 26.7491 30.5805C25.3715 29.7763 25.1612 27.6729 26.3466 26.5546C27.1752 25.7729 28.5194 25.6327 29.4865 26.2269ZM27.3207 44.9983C27.3207 47.3433 27.3129 47.4356 27.0861 47.7666C26.957 47.9549 26.688 48.1956 26.4882 48.3013C26.1407 48.4853 25.614 48.4937 14.503 48.4937C3.09433 48.4937 2.87347 48.4899 2.45052 48.2859C2.17596 48.1535 1.93706 47.9317 1.79191 47.6745C1.57647 47.2925 1.56416 47.1443 1.56416 44.9216V42.5724H14.4424H27.3207V44.9983ZM10.3416 45.306C9.92545 45.7474 10.15 46.4211 10.7641 46.5735C10.8945 46.6059 12.6596 46.6188 14.6863 46.6022L18.3715 46.5719L18.5707 46.3266C18.8291 46.0086 18.8249 45.5359 18.5614 45.2733C18.3603 45.073 18.2139 45.0656 14.4606 45.0656H10.5684L10.3416 45.306Z" fill="black"/>
</svg>
