<svg width="35" height="35" viewBox="0 0 35 35" fill="none" xmlns="http://www.w3.org/2000/svg">
<path d="M15.0323 0.000187528C11.2173 0.00501912 7.54653 1.46363 4.7622 4.08109C1.97786 6.69855 0.287734 10.2795 0.0335874 14.0999C0.029746 14.1219 0.028099 14.1442 0.0286718 14.1665C0.00983024 14.4699 0 14.7774 0 15.0857C0.00498828 19.0849 1.59041 22.9187 4.40842 25.7461C7.22642 28.5734 11.0468 30.1634 15.0314 30.1671C16.6099 30.1689 18.1788 29.9211 19.6804 29.4329C20.0374 29.3161 20.3338 29.0621 20.5045 28.7264C20.6753 28.3908 20.7065 28.0009 20.5913 27.6422C20.4757 27.2843 20.2233 26.9871 19.8896 26.8158C19.5558 26.6445 19.168 26.6132 18.8112 26.7287C17.5918 27.126 16.3176 27.3275 15.0355 27.3256C13.6731 27.328 12.3201 27.099 11.0338 26.6481L11.0764 26.6103C10.5717 25.9896 10.2572 24.2843 9.92048 22.4755C9.45763 19.9884 6.19723 16.0435 4.87504 15.5741C4.98758 15.6059 5.09433 15.6556 5.19125 15.7213C4.40929 14.9415 3.6688 14.1209 2.97286 13.2629C3.37638 10.5529 4.68033 8.0592 6.67318 6.18633C7.54159 7.09502 8.199 8.18524 8.59829 9.37888C8.74185 10.1103 8.81917 10.8534 8.8293 11.5988C8.82268 12.0659 8.8733 12.532 8.98004 12.9866C9.38363 14.1758 9.98861 15.2861 10.7683 16.2688C11.4185 16.9007 12.276 17.2728 13.1801 17.3155C13.4762 17.3194 13.7696 17.258 14.0394 17.1354C14.6049 16.7722 15.0896 16.2956 15.4632 15.7357C15.8367 15.1757 16.0911 14.5444 16.2103 13.8812C16.4462 13.2752 18.3721 11.2905 20.0662 11.1482C22.114 10.9038 24.1423 10.5164 26.1365 9.98895C26.7063 11.2514 27.0589 12.6016 27.1793 13.9823C27.2134 14.3578 27.3946 14.7044 27.683 14.9459C27.9714 15.1875 28.3436 15.3043 28.7178 15.2707C29.0915 15.2356 29.4363 15.0536 29.6768 14.7643C29.9173 14.475 30.034 14.102 30.0015 13.7266C29.6817 9.96925 27.9639 6.4705 25.19 3.92689C22.4161 1.38327 18.7895 -0.0186563 15.0323 0.000187528ZM3.87562 18.2363C4.58341 18.8193 6.84439 21.4429 7.13193 22.9968C7.24498 23.6028 7.34902 24.1618 7.45305 24.6691C5.23913 22.9099 3.70271 20.4335 3.10639 17.6633C3.33129 17.8936 3.59087 18.087 3.87562 18.2363ZM19.8221 8.31745C16.8443 8.57315 13.7297 11.6284 13.4225 13.3427C13.342 13.7188 13.181 14.0728 12.9507 14.3803C12.8991 14.3515 12.8516 14.3285 12.8139 14.3046C12.3659 13.6809 11.9979 13.003 11.7186 12.287C11.6672 12.0411 11.645 11.7899 11.6523 11.5388C11.6427 10.6383 11.5494 9.74071 11.3737 8.85763C10.9195 7.22645 10.0869 5.72641 8.94399 4.48029C10.7936 3.40406 12.8943 2.83869 15.0323 2.84167C16.8679 2.83356 18.6815 3.24312 20.3367 4.03959C21.992 4.83606 23.4458 5.99872 24.589 7.44018C23.0208 7.83674 21.4285 8.12979 19.8221 8.31745Z" fill="#FC7754"/>
<path d="M15.0343 23.3117C14.7733 23.3119 14.5173 23.2397 14.2947 23.1031C14.072 22.9664 13.8914 22.7705 13.7728 22.5372L12.888 20.8007C12.8033 20.6346 12.752 20.4534 12.737 20.2674C12.7221 20.0813 12.7438 19.8942 12.8009 19.7166C12.858 19.539 12.9495 19.3745 13.07 19.2323C13.1905 19.0902 13.3377 18.9733 13.5032 18.8883C13.8375 18.7167 14.226 18.6854 14.5833 18.8012C14.9406 18.917 15.2375 19.1704 15.4087 19.5058L16.2934 21.2422C16.3782 21.4084 16.4294 21.5897 16.4443 21.7757C16.4592 21.9618 16.4374 22.149 16.3802 22.3266C16.323 22.5042 16.2315 22.6687 16.1109 22.8108C15.9903 22.9529 15.843 23.0697 15.6774 23.1547C15.4785 23.2575 15.2581 23.3113 15.0343 23.3117Z" fill="#FC7754"/>
<path d="M27.0291 26.136C26.4662 26.1344 25.9154 25.9723 25.4407 25.6687C24.966 25.3651 24.5871 24.9324 24.3479 24.421C24.1088 23.9095 24.0193 23.3405 24.0899 22.78C24.1604 22.2195 24.3882 21.6907 24.7466 21.2551C25.105 20.8195 25.5794 20.495 26.1144 20.3195C26.6494 20.144 27.2231 20.1245 27.7687 20.2635C28.3143 20.4025 28.8093 20.6942 29.1961 21.1046C29.5829 21.515 29.8456 22.0273 29.9536 22.5817C30.0379 23.0143 30.0256 23.4604 29.9175 23.8877C29.8095 24.315 29.6083 24.7129 29.3286 25.0528C29.049 25.3927 28.6976 25.6662 28.3 25.8535C27.9024 26.0408 27.4683 26.1373 27.0291 26.136ZM27.0373 22.1895C26.9105 22.1888 26.7849 22.2135 26.6678 22.262C26.5506 22.3106 26.4442 22.3821 26.3549 22.4723C26.2374 22.5908 26.1525 22.7379 26.1086 22.8992C26.0647 23.0605 26.0632 23.2304 26.1043 23.3924C26.1455 23.5544 26.2278 23.703 26.3433 23.8235C26.4587 23.944 26.6033 24.0324 26.763 24.08C26.9227 24.1276 27.092 24.1328 27.2543 24.0951C27.4165 24.0574 27.5663 23.978 27.6889 23.8648C27.8115 23.7516 27.9027 23.6084 27.9536 23.4492C28.0045 23.29 28.0134 23.1203 27.9794 22.9566C27.9406 22.7728 27.8495 22.6042 27.7172 22.4713C27.5849 22.3384 27.417 22.2468 27.2339 22.2076C27.1691 22.1954 27.1033 22.1894 27.0373 22.1895Z" fill="#FC7754"/>
<path d="M27.4378 15.1833C26.3611 15.1306 25.2849 15.2977 24.2744 15.6745C23.2639 16.0514 22.3401 16.6301 21.5589 17.3757C20.7778 18.1213 20.1555 19.0183 19.7297 20.0123C19.304 21.0063 19.0836 22.0766 19.082 23.1585V23.5746C19.082 25.7805 20.3018 28.312 22.707 31.0984C23.9046 32.4255 25.191 33.6691 26.5572 34.8205C26.6918 34.9366 26.8634 35.0004 27.0409 35.0004C27.2184 35.0004 27.3901 34.9366 27.5247 34.8205C28.891 33.6693 30.1774 32.4257 31.3749 31.0984C33.7801 28.312 34.9998 25.7813 34.9998 23.5746V23.3896C35.0215 21.3114 34.2503 19.3035 32.8442 17.7777C31.4382 16.2519 29.5039 15.3237 27.4378 15.1833ZM32.2269 23.5779C32.2269 26.259 29.0181 29.7747 27.0364 31.5975C25.0548 29.7739 21.846 26.259 21.846 23.5779V23.3485C21.8284 22.0056 22.3164 20.7054 23.2124 19.708C24.1085 18.7105 25.3466 18.0891 26.6793 17.9681C27.3889 17.9201 28.1008 18.0189 28.7708 18.2583C29.4409 18.4977 30.0548 18.8726 30.5747 19.3598C31.0945 19.847 31.5091 20.4361 31.7929 21.0907C32.0767 21.7452 32.2235 22.4513 32.2244 23.1651L32.2269 23.5779Z" fill="#FC7754"/>
</svg>
