<svg width="35" height="35" viewBox="0 0 35 35" fill="none" xmlns="http://www.w3.org/2000/svg">
<path fill-rule="evenodd" clip-rule="evenodd" d="M11.7876 0.0648833C9.39866 0.327934 7.18722 1.88549 6.11447 4.06048C5.68081 4.93974 5.47455 5.66213 5.35973 6.70386C5.31773 7.08474 5.31507 7.08851 5.03043 7.17238C4.53946 7.31712 3.62278 7.77448 3.14699 8.11209C1.50722 9.27576 0.436249 10.967 0.101074 12.9219C-0.504308 16.4531 1.66678 20.0025 5.08576 21.0713C6.04628 21.3716 6.53534 21.4167 8.82973 21.4168L11.0011 21.4169V23.4367V25.4564H9.18665C7.51891 25.4564 7.369 25.4467 7.33337 25.3366C7.18845 24.8891 6.82606 24.2893 6.47105 23.9094C4.98406 22.318 2.53669 22.3145 1.04115 23.9016C-0.879491 25.94 -0.0242836 29.195 2.6576 30.0542C3.23392 30.2388 4.16661 30.2517 4.74347 30.0831C5.91183 29.7415 6.80144 28.9256 7.26505 27.7704L7.36681 27.5169L9.86295 27.4966C12.2607 27.477 12.3665 27.4707 12.5478 27.335C12.6516 27.2574 12.8 27.1088 12.8775 27.0049C13.0136 26.8226 13.0192 26.7203 13.0379 24.1164L13.0573 21.4169H14.7647H16.4722L16.4722 24.515L16.4721 27.6132L15.9421 27.8512C15.2517 28.1614 14.4779 28.904 14.1571 29.5645C13.7615 30.379 13.65 31.276 13.8426 32.0941C14.246 33.8076 15.746 35 17.4981 35C19.2501 35 20.7501 33.8076 21.1535 32.0941C21.3461 31.276 21.2346 30.379 20.839 29.5645C20.5183 28.904 19.7444 28.1614 19.054 27.8512L18.524 27.6132L18.524 24.515L18.5239 21.4169H20.2314H21.9388L21.9582 24.1164C21.9769 26.7203 21.9825 26.8226 22.1186 27.0049C22.1961 27.1088 22.3445 27.2574 22.4483 27.335C22.6296 27.4707 22.7354 27.477 25.1332 27.4966L27.6293 27.5169L27.7311 27.7704C27.9669 28.3582 28.1573 28.6515 28.5796 29.0784C29.3393 29.8462 30.204 30.2055 31.2785 30.1998C33.0243 30.1907 34.497 29.0119 34.8998 27.3014C35.1884 26.0754 34.8476 24.8489 33.955 23.9016C32.4594 22.3145 30.0121 22.318 28.5251 23.9094C28.1701 24.2893 27.8077 24.8891 27.6627 25.3366C27.6271 25.4467 27.4772 25.4564 25.8095 25.4564H23.995V23.4367V21.4169L26.1664 21.4168C28.4608 21.4167 28.9498 21.3716 29.9104 21.0713C33.0211 20.0988 35.148 17.0419 34.9814 13.7828C34.8319 10.8578 32.9736 8.3001 30.2544 7.27666L29.8448 7.12254L29.6317 6.50613C29.1808 5.20183 28.5796 4.23514 27.6197 3.27092C26.0656 1.7098 24.2349 0.912779 22.0117 0.829318C20.5644 0.775024 19.2679 1.04766 18.047 1.66325L17.5648 1.90631L17.1219 1.56643C15.9627 0.676979 14.8435 0.228246 13.3605 0.0583104C12.6705 -0.0207006 12.5605 -0.0202897 11.7876 0.0648833ZM13.8611 2.21701C14.3638 2.3308 15.1635 2.68662 15.6146 2.99733C15.788 3.11673 16.1743 3.44332 16.473 3.72308C17.0089 4.22481 17.0212 4.23165 17.3834 4.23165C17.6956 4.23165 17.8137 4.19064 18.1749 3.95696C19.2682 3.24956 20.1949 2.94057 21.3962 2.88285C22.6827 2.82109 23.7785 3.07463 24.8309 3.67762C26.4605 4.6113 27.4267 5.98982 27.9668 8.15221C28.0866 8.6321 28.3282 8.82942 29.0666 9.05071C30.4998 9.4802 31.5093 10.2572 32.227 11.4833C33.5117 13.6777 33.0202 16.4716 31.0544 18.1492C30.5389 18.5891 29.442 19.1202 28.7681 19.2564C28.3045 19.35 26.9451 19.3629 17.4981 19.3629C5.35692 19.3629 6.21486 19.4004 5.01703 18.8166C3.61895 18.1351 2.66628 16.9937 2.23215 15.4802C2.03416 14.7898 2.0183 13.5324 2.19912 12.8585C2.72106 10.9131 4.18822 9.48184 6.1581 8.99627C7.22914 8.7322 7.37509 8.56336 7.37652 7.58654C7.37885 6.00591 7.84219 4.76761 8.82467 3.71616C9.68753 2.79275 10.7534 2.27651 12.1979 2.0824C12.519 2.03927 13.3857 2.10945 13.8611 2.21701ZM4.43572 24.9143C5.03973 25.188 5.3827 25.6766 5.44371 26.3505C5.52981 27.3011 4.73219 28.1489 3.75183 28.1489C3.0507 28.1489 2.50625 27.7853 2.19413 27.1086C1.69516 26.0268 2.53081 24.7748 3.75183 24.7748C3.98394 24.7748 4.2458 24.8282 4.43572 24.9143ZM31.9282 24.9143C32.5322 25.188 32.8752 25.6766 32.9362 26.3505C33.0223 27.3011 32.2247 28.1489 31.2443 28.1489C30.5432 28.1489 29.9987 27.7853 29.6866 27.1086C29.1876 26.0268 30.0233 24.7748 31.2443 24.7748C31.4764 24.7748 31.7383 24.8282 31.9282 24.9143ZM18.182 29.7069C18.786 29.9807 19.1289 30.4693 19.1899 31.1432C19.276 32.0938 18.4784 32.9416 17.4981 32.9416C16.7969 32.9416 16.2525 32.578 15.9404 31.9012C15.4414 30.8195 16.277 29.5675 17.4981 29.5675C17.7302 29.5675 17.992 29.6209 18.182 29.7069Z" fill="#1ECBA1"/>
</svg>
