<svg width="44" height="35" viewBox="0 0 44 35" fill="none" xmlns="http://www.w3.org/2000/svg">
<path fill-rule="evenodd" clip-rule="evenodd" d="M20.6193 4.22755C16.4826 6.55253 13.011 8.55621 12.9046 8.68013C12.7271 8.88694 12.7112 8.99201 12.7112 9.95752V11.0095H7.59002H2.46888L2.21763 11.267C1.94935 11.5419 1.87964 12 2.05491 12.3355C2.28192 12.7703 2.29258 12.7711 7.6783 12.7711H12.7112V14.3565V15.9419H10.0828H7.45447L7.20321 16.1993C6.93493 16.4742 6.86522 16.9323 7.04049 17.2679C7.25178 17.6726 7.47355 17.7034 10.1711 17.7034H12.7112V19.9934V22.2834H9.01065C4.99692 22.2834 4.94551 22.2893 4.7338 22.7654C4.55904 23.1584 4.61062 23.4251 4.92334 23.7455L5.21559 24.045H8.95633H12.6971L12.7256 25.1438C12.7505 26.1048 12.7757 26.2638 12.9261 26.4118C13.0206 26.5048 16.4632 28.475 20.5763 30.7898C26.3885 34.0608 28.1218 34.9989 28.3556 35C28.5923 35.0011 30.2498 34.1047 36.1348 30.7929C40.2479 28.4781 43.6905 26.5073 43.7851 26.4131C43.9487 26.2504 43.957 26.1263 43.957 23.8588V21.4755L43.7158 21.2629C43.3888 20.9747 42.8922 20.9746 42.565 21.2628L42.3238 21.4752L42.2978 23.3995L42.2718 25.3238L36.2808 28.6936C32.9856 30.5469 30.0477 32.2011 29.7519 32.3694L29.2142 32.6755L29.2361 25.3472L29.2581 18.019L31.2352 16.8971C32.3226 16.2799 33.2412 15.7729 33.2767 15.7704C33.3122 15.7678 33.3412 16.5921 33.3412 17.6022C33.3412 18.6846 33.3791 19.5502 33.4336 19.7103C33.6091 20.2263 34.1835 20.4042 34.7423 20.1156C35.8959 19.5197 38.0121 18.2631 38.1148 18.1128C38.2183 17.9614 38.2408 17.4848 38.2408 15.4468V12.9652L40.2086 11.8552C41.2909 11.2448 42.1999 10.7453 42.2287 10.7453C42.2574 10.7453 42.2808 11.7274 42.2808 12.9276C42.2808 15.3516 42.292 15.4049 42.8508 15.6441C43.0998 15.7506 43.181 15.7506 43.43 15.6441C44.0085 15.3964 44 15.4509 44 11.9961V8.88209L43.7636 8.64323C43.6336 8.5119 42.0187 7.55626 40.1749 6.51959C38.331 5.48292 34.9672 3.59189 32.6997 2.31732C30.3598 1.00197 28.4826 -8.80718e-05 28.3588 5.80584e-09C28.233 8.80834e-05 24.9568 1.78965 20.6193 4.22755ZM34.8269 5.51868C38.3356 7.48835 41.2359 9.1258 41.2721 9.1576C41.3083 9.1894 40.465 9.70386 39.3982 10.3008C37.6366 11.2864 37.4386 11.3768 37.2423 11.2851C37.0568 11.1985 32.314 8.53965 26.2632 5.13017C25.325 4.60152 24.5514 4.14026 24.544 4.10503C24.5279 4.02946 28.1758 1.9496 28.337 1.94246C28.3978 1.93973 31.3182 3.54909 34.8269 5.51868ZM29.157 8.76354C32.6863 10.7497 35.5744 12.3945 35.575 12.4188C35.5755 12.443 35.2724 12.6307 34.9015 12.8358L34.227 13.2089L30.1524 10.9149C27.9113 9.6533 25.0048 8.01893 23.6935 7.28305C22.3822 6.54716 21.3088 5.92322 21.3081 5.89653C21.3067 5.83399 22.623 5.10603 22.6896 5.13246C22.7173 5.14338 25.6276 6.77739 29.157 8.76354ZM22.3385 8.52996C23.875 9.39427 26.7374 11.0033 28.6994 12.1054C30.6614 13.2075 32.2977 14.1392 32.3356 14.1758C32.3991 14.237 28.5265 16.4703 28.357 16.4703C28.2964 16.4703 15.4765 9.28743 15.3952 9.20798C15.3524 9.16615 19.2841 6.97372 19.4159 6.96588C19.4868 6.96174 20.802 7.66557 22.3385 8.52996ZM20.9088 14.3252C24.4136 16.2941 27.3297 17.9505 27.3891 18.0061C27.4743 18.0858 27.4924 19.6314 27.475 25.3727L27.453 32.6383L23.9717 30.6801C22.057 29.6031 19.1276 27.957 17.462 27.022L14.4336 25.3221L14.432 18.0337C14.431 14.025 14.4542 10.7453 14.4834 10.7453C14.5127 10.7453 17.4041 12.3562 20.9088 14.3252ZM36.5204 15.5235L36.5192 17.1309L35.8398 17.5052C35.4661 17.7111 35.1379 17.8796 35.1104 17.8796C35.0828 17.8796 35.0603 17.1749 35.0603 16.3138V14.7481L35.7695 14.3411C36.1596 14.1172 36.4884 13.9301 36.5001 13.9251C36.5119 13.9201 36.5211 14.6395 36.5204 15.5235ZM3.76488 16.1993C3.13239 16.8475 3.76204 17.9255 4.60589 17.6392C4.73792 17.5944 4.9358 17.4221 5.04557 17.2562C5.29829 16.8747 5.24577 16.5183 4.88784 16.1841C4.52758 15.8477 4.10235 15.8535 3.76488 16.1993ZM42.5836 17.7254C42.0989 18.157 42.2384 18.9051 42.8529 19.1681C43.1248 19.2845 43.184 19.2817 43.4694 19.1387C44.3064 18.7195 44.0579 17.5273 43.1336 17.5273C42.9173 17.5273 42.7306 17.5946 42.5836 17.7254ZM0.428575 22.4064C-0.0785794 22.6944 -0.145885 23.3075 0.281586 23.7455C0.573586 24.0447 0.574618 24.045 1.40334 24.045C2.57452 24.045 2.91191 23.8379 2.91191 23.1192C2.91191 22.882 2.84641 22.7312 2.66065 22.5409C2.4149 22.2891 2.38997 22.2835 1.52171 22.2865C0.950944 22.2886 0.560693 22.3314 0.428575 22.4064Z" fill="#C51BE0"/>
</svg>
