<svg width="29" height="40" viewBox="0 0 29 40" fill="none" xmlns="http://www.w3.org/2000/svg">
<path fill-rule="evenodd" clip-rule="evenodd" d="M3.24557 0.12982C1.76037 0.481238 0.47322 1.75636 0.118365 3.22789C0.0163042 3.65087 0.000399777 5.91759 0.000399777 20.0066C0.000399777 37.9588 -0.0324481 36.7866 0.497357 37.7733C0.824959 38.3834 1.65943 39.199 2.28402 39.5195C3.24644 40.0133 3.25156 40.0136 9.35715 39.9898L14.8767 39.9681L15.1099 39.713C15.6933 39.0746 15.4593 38.7911 12.0663 36.0257C10.9454 35.1121 9.94729 34.2787 9.84843 34.1737C9.65398 33.9672 9.60778 33.5454 9.75092 33.2839C9.79616 33.2012 9.94202 33.0785 10.0751 33.0114C10.3644 32.8651 10.433 32.8814 12.7344 33.6465C13.5635 33.9222 14.344 34.1476 14.469 34.1476C14.7964 34.1476 15.0574 34.0104 15.21 33.7578C15.3309 33.5579 15.3431 33.0223 15.3431 27.9401C15.3431 21.7172 15.3204 21.9808 15.8747 21.7544C16.2241 21.6118 16.6202 21.7165 16.8603 22.015C17.0179 22.2108 17.0215 22.3212 17.0215 26.973C17.0215 32.1893 17.0176 32.1455 17.4908 32.3846C17.7965 32.5392 18.0047 32.5392 18.3104 32.3846C18.7333 32.1709 18.7797 31.9284 18.7797 29.9349C18.7797 28.7782 18.8116 28.071 18.8691 27.9475C19.0895 27.4746 19.8394 27.3862 20.2255 27.7875C20.4165 27.986 20.4185 28.0058 20.4581 30.0069C20.4978 32.008 20.4998 32.0278 20.6907 32.2263C21.0768 32.6276 21.8267 32.5392 22.0471 32.0662C22.1021 31.9484 22.1365 31.3487 22.1365 30.5085C22.1365 29.0377 22.1987 28.731 22.5454 28.4936C22.7841 28.3302 23.2472 28.3302 23.4858 28.4936C23.8325 28.731 23.8948 29.0377 23.8948 30.5085C23.8948 31.3487 23.9291 31.9484 23.9841 32.0662C24.2046 32.5392 24.9545 32.6276 25.3406 32.2263C25.5215 32.0382 25.5356 31.9564 25.5731 30.8797C25.6177 29.6011 25.6735 29.4309 26.1059 29.2542C26.4541 29.112 26.8505 29.2171 27.0904 29.5152C27.2479 29.711 27.2515 29.8214 27.2515 34.4732C27.2515 39.6895 27.2477 39.6457 27.7208 39.8849C28.0417 40.0471 28.2765 40.0388 28.5859 39.8544C28.7546 39.7538 28.8715 39.6015 28.9303 39.4055C28.9927 39.1973 29.0116 37.6738 28.9934 34.3039C28.9642 28.867 28.9907 29.1005 28.3194 28.3706C27.7075 27.7053 26.7392 27.3831 25.9128 27.5698L25.5731 27.6464L25.5719 15.6817C25.5709 5.28624 25.5549 3.65134 25.4501 3.2164C25.0923 1.73261 23.8022 0.474988 22.2771 0.12357C21.5455 -0.0451072 3.96031 -0.0392477 3.24557 0.12982ZM21.9198 1.76276C23.1222 2.06895 23.797 2.94835 23.8766 4.31308L23.9169 5.00607H12.7856H1.65423L1.69459 4.31308C1.77507 2.93319 2.49981 2.01574 3.73405 1.73143C3.89909 1.69339 7.95571 1.65878 12.7488 1.6544C20.2223 1.64768 21.5285 1.66315 21.9198 1.76276ZM23.8751 16.7483L23.8954 26.8108L23.5954 26.7487C23.1577 26.6579 22.5471 26.6957 22.1411 26.8386L21.7861 26.9636L21.4218 26.6183C20.8091 26.0374 20.4648 25.9052 19.5648 25.9052H18.7915L18.7607 23.952C18.7252 21.6916 18.6836 21.5083 18.0536 20.8344C17.5168 20.2603 17.0171 20.0502 16.1823 20.0476C15.6424 20.0459 15.4725 20.0795 15.0905 20.2628C14.3359 20.625 13.7814 21.3597 13.6894 22.1193L13.643 22.5025L9.62417 22.5241L5.60535 22.5457L5.40035 22.734C5.12006 22.9914 5.05101 23.3975 5.23172 23.7255C5.3094 23.8665 5.43136 24.0104 5.50273 24.0451C5.5741 24.0798 7.43078 24.1258 9.62864 24.1473L13.6248 24.1864L13.6455 28.1514C13.6626 31.4419 13.6478 32.1163 13.5581 32.1163C13.4986 32.1163 12.8779 31.9232 12.1786 31.6872C10.2871 31.0486 9.58612 31.1023 8.7037 31.9534C8.2925 32.3499 8.1329 32.6263 7.94364 33.2696C7.92078 33.3472 7.25591 33.3639 4.81548 33.3478L1.71633 33.3273L1.69579 20.0847C1.68452 12.8012 1.69244 6.79801 1.71337 6.7441C1.74375 6.66613 4.00387 6.65027 12.8032 6.66597L23.8548 6.68581L23.8751 16.7483ZM5.61774 9.26121C5.13285 9.46731 5.11295 9.58411 5.11399 12.2094C5.11503 14.7753 5.14892 15.0487 5.55644 15.7807C5.83113 16.2741 6.47603 16.8806 6.99784 17.1362C8.54482 17.8942 10.4271 17.4037 11.3547 16.0009C11.8856 15.198 11.9064 15.0552 11.9064 12.2292C11.9064 9.82662 11.8992 9.70591 11.7453 9.51458C11.5051 9.21605 11.109 9.11136 10.7597 9.25402C10.2461 9.4638 10.2281 9.5631 10.2281 12.1746V14.5069L10.0184 14.9182C9.49293 15.949 8.19076 16.1474 7.34934 15.3248C6.82025 14.8076 6.7914 14.6349 6.7914 11.9813C6.7914 9.48239 6.78908 9.4702 6.26399 9.25574C5.94326 9.12472 5.93855 9.1248 5.61774 9.26121ZM14.1745 9.2591C13.8418 9.40059 13.6647 9.66513 13.6647 10.0204C13.6647 10.2733 13.8101 10.5029 14.7545 11.7413C15.354 12.5273 15.8751 13.2088 15.9127 13.2557C15.9559 13.3096 15.5545 13.8972 14.8229 14.8511C13.6041 16.44 13.532 16.5894 13.7541 17.0658C13.8853 17.3474 14.2977 17.5397 14.637 17.4775C14.977 17.4151 15.0956 17.2921 16.1731 15.8853C16.642 15.273 17.0388 14.772 17.0548 14.772C17.0708 14.772 17.4876 15.2997 17.9811 15.9446C19.0757 17.3753 19.2558 17.538 19.6828 17.482C19.8541 17.4595 20.0801 17.3623 20.185 17.266C20.414 17.0558 20.5115 16.6284 20.39 16.3678C20.3415 16.2637 19.814 15.5447 19.2177 14.77C18.5508 13.9033 18.1562 13.3246 18.1922 13.2659C18.2244 13.2134 18.6747 12.6188 19.1929 11.9446C20.3083 10.4933 20.4576 10.2644 20.4576 10.0062C20.4576 9.69537 20.1814 9.3291 19.8717 9.22918C19.3541 9.06214 19.144 9.22441 18.0658 10.6243C17.5333 11.3157 17.0715 11.88 17.0396 11.8783C17.0076 11.8766 16.5512 11.3092 16.0252 10.6173C15.327 9.69873 14.9988 9.33059 14.809 9.25301C14.4961 9.12519 14.489 9.12527 14.1745 9.2591ZM5.61774 19.2615C5.35144 19.3747 5.11303 19.7267 5.11303 20.0066C5.11303 20.2946 5.35416 20.6401 5.63524 20.7549C6.02822 20.9154 10.9868 20.9172 11.379 20.7571C11.7228 20.6167 11.9064 20.3553 11.9064 20.0066C11.9064 19.6578 11.7228 19.3965 11.379 19.2561C10.993 19.0984 5.99026 19.1031 5.61774 19.2615ZM5.54054 25.958C5.0777 26.177 4.99986 26.9116 5.40043 27.2795L5.60543 27.4677H7.67055H9.73566L9.94066 27.2795C10.3515 26.9022 10.2611 26.1689 9.77722 25.9535C9.52075 25.8393 5.7831 25.8432 5.54054 25.958ZM8.41686 35.1194C8.44116 35.1813 9.22719 35.8711 10.1637 36.6525C11.1003 37.4339 11.9384 38.1405 12.0263 38.2228C12.1838 38.3702 12.1252 38.3721 7.95027 38.3499L3.71439 38.3275L3.26523 38.1216C2.24989 37.6562 1.76508 36.9077 1.69443 35.6964L1.65423 35.007H5.01345C7.86188 35.007 8.37946 35.0242 8.41686 35.1194Z" fill="#FF6900"/>
</svg>
