<svg width="39" height="40" viewBox="0 0 39 40" fill="none" xmlns="http://www.w3.org/2000/svg">
<path fill-rule="evenodd" clip-rule="evenodd" d="M18.2632 0.0498609C16.921 0.297935 15.5953 1.10335 14.8137 2.14552C12.462 5.2812 13.7895 9.66517 17.4814 10.9556C18.0316 11.1478 18.1945 11.1689 19.1572 11.1716C20.3475 11.1752 20.7344 11.091 21.6709 10.6254C22.7899 10.069 23.6012 9.22775 24.1846 8.01902C25.6822 4.91682 24.0744 1.25413 20.7568 0.21042C20.1585 0.0222287 18.864 -0.0611297 18.2632 0.0498609ZM10.5119 1.24551L10.0983 1.66877L10.4723 2.05239L10.8462 2.43608L8.83182 2.45663L6.81738 2.47718V3.09294V3.7087L8.83182 3.72925L10.8462 3.7498L10.4713 4.13434L10.0965 4.51896L10.5325 4.95954L10.9684 5.40011L11.9521 4.40836C12.4931 3.86287 12.9501 3.34063 12.9677 3.24781C12.9852 3.1549 12.9696 2.9955 12.933 2.89351C12.8727 2.72549 11.0664 0.822331 10.9673 0.822331C10.9443 0.822331 10.7393 1.01275 10.5119 1.24551ZM20.5931 1.47557C22.6301 2.19139 23.8667 4.35502 23.4312 6.44113C22.9504 8.74469 20.8434 10.2523 18.5669 9.92186C16.4696 9.61745 14.8535 7.7166 14.8535 5.55413C14.8535 5.00595 15.1056 4.06153 15.4039 3.49211C15.9956 2.36258 17.2927 1.46195 18.624 1.25621C19.0938 1.18355 20.0724 1.29262 20.5931 1.47557ZM11.6924 6.22169C10.4851 6.85007 9.05752 7.90664 7.97116 8.97575C5.49016 11.4173 4.00961 14.2383 3.34303 17.7942C3.22717 18.4121 3.17324 19.0861 3.14338 20.2884L3.1024 21.936L3.51267 21.8862C3.73829 21.8588 4.01235 21.8361 4.12174 21.8358L4.3207 21.8351L4.36282 20.3534C4.4089 18.733 4.5515 17.7645 4.95163 16.3545C6.0236 12.5773 8.55806 9.41964 12.1241 7.41842L12.6321 7.13332L12.3907 6.59523C12.258 6.29928 12.1151 6.05844 12.0732 6.06005C12.0313 6.06175 11.86 6.13448 11.6924 6.22169ZM25.9842 6.5719C25.6964 7.16165 25.6822 7.1297 26.3936 7.49647C27.7159 8.17827 29.4724 9.64077 30.5802 10.9824C32.4062 13.1938 33.6754 16.1796 33.9337 18.8718C33.9581 19.1258 33.9961 19.4808 34.0181 19.6607L34.0582 19.9878H34.6718H35.2855L35.2347 19.3913C34.7656 13.8736 31.8063 9.17587 27.0823 6.44998C26.707 6.23347 26.363 6.05628 26.3179 6.05628C26.2727 6.05628 26.1226 6.28827 25.9842 6.5719ZM35.877 10.152V12.1696L35.4951 11.7895L35.1132 11.4095L34.6768 11.8503L34.2405 12.2913L35.2457 13.3071C36.1619 14.2329 36.2751 14.3228 36.5244 14.3228C36.7737 14.3228 36.8869 14.2329 37.8031 13.3071L38.8084 12.2913L38.372 11.8503L37.9356 11.4095L37.5537 11.7895L37.1719 12.1696V10.152V8.13447H36.5244H35.877V10.152ZM17.3479 13.1183L16.91 13.5655L17.3664 14.0219C17.6174 14.2729 17.7974 14.5014 17.7664 14.5298C17.7353 14.5581 17.5729 14.625 17.4053 14.6782C16.0904 15.0961 14.8659 16.1986 14.2007 17.5633C13.2184 19.5788 13.5242 21.8942 15.0097 23.6869C15.2779 24.0107 16.2595 24.834 16.3798 24.8362C16.4022 24.8366 16.5528 24.6047 16.7144 24.3209L17.0081 23.8048L16.7497 23.6132C14.7836 22.1551 14.3009 19.5638 15.6232 17.566C16.0621 16.9029 16.6276 16.4027 17.3129 16.0712C18.1907 15.6467 18.1858 15.643 17.7901 16.4392C17.5994 16.8229 17.4434 17.1544 17.4434 17.1759C17.4434 17.1974 17.683 17.3369 17.9759 17.4859L18.5083 17.7569L19.1565 16.4487C19.513 15.7292 19.8047 15.0473 19.8047 14.9335C19.8047 14.771 19.5878 14.5058 18.7953 13.6989L17.7858 12.6712L17.3479 13.1183ZM21.6774 15.6323C21.5272 15.9037 21.4043 16.143 21.4043 16.164C21.4043 16.1851 21.6227 16.3757 21.8896 16.5876C22.5 17.0724 23.092 17.9454 23.3247 18.7044C23.5677 19.4967 23.5509 20.5813 23.2836 21.3621C22.8559 22.6115 21.9155 23.6008 20.7188 24.0602C20.4883 24.1487 20.2909 24.2211 20.28 24.2211C20.2691 24.2212 20.4147 23.9101 20.6037 23.53C20.7926 23.1498 20.9473 22.8212 20.9473 22.7998C20.9473 22.7782 20.7076 22.6388 20.4147 22.4897L19.8823 22.2187L19.2341 23.527C18.8776 24.2465 18.5859 24.928 18.5859 25.0414C18.5859 25.2027 18.8048 25.4708 19.5923 26.2744L20.5986 27.3014L21.0397 26.8603L21.4808 26.4193L21.0159 25.9453C20.7603 25.6847 20.5802 25.4544 20.6158 25.4337C20.6515 25.4129 20.8178 25.353 20.9854 25.3006C22.1304 24.9423 23.3105 23.9481 24.0152 22.7482C25.2399 20.6625 24.8946 17.8775 23.1917 16.1083C22.796 15.6971 22.1024 15.1387 21.9875 15.1387C21.9672 15.1387 21.8277 15.3609 21.6774 15.6323ZM28.2667 21.3024C27.8705 21.4643 27.8839 21.2689 27.8813 26.8825L27.8789 32.1222L28.0755 32.3089L28.272 32.4954H33.4522H38.6323L38.8162 32.2795L39 32.0635V26.8766V21.6898L38.8162 21.4738L38.6324 21.2578L33.5413 21.2427C30.3767 21.2332 28.3807 21.2558 28.2667 21.3024ZM5.76827 21.431C5.52627 21.7013 0 31.7214 0 31.8899C0 31.9854 0.0827227 32.1607 0.183803 32.2795L0.367605 32.4954L5.87765 32.5188C8.90815 32.5317 11.5359 32.5205 11.7169 32.4941C12.1285 32.4338 12.3398 32.2296 12.3398 31.8921C12.3398 31.6968 11.6635 30.4193 9.51775 26.562C7.9656 23.7717 6.63937 21.4455 6.57059 21.3925C6.38511 21.2498 5.91002 21.2726 5.76827 21.431ZM37.7812 26.8766V31.2254H33.4395H29.0977V26.8766V22.5278H33.4395H37.7812V26.8766ZM8.52439 27.3315C9.70125 29.4444 10.6641 31.1849 10.6641 31.1993C10.6641 31.2137 8.64497 31.2254 6.17716 31.2254H1.69018L3.94319 27.1772C6.04172 23.4064 6.2026 23.1413 6.29043 23.3095C6.3423 23.4088 7.34762 25.2187 8.52439 27.3315ZM26.9648 33.3938C26.2655 33.8453 24.7706 34.5509 23.918 34.8321C20.144 36.0764 16.2505 35.8248 12.7588 34.111C12.2142 33.8437 11.6234 33.5338 11.4461 33.4222L11.1238 33.2195L10.8452 33.6595C10.692 33.9015 10.5628 34.153 10.5583 34.2183C10.5463 34.3867 12.0178 35.2079 13.1777 35.68C15.0465 36.4408 16.6148 36.7653 18.7024 36.8232C21.569 36.9027 23.9377 36.3784 26.4398 35.1106C27.0722 34.7902 27.9716 34.269 28.1699 34.108C28.2019 34.082 27.5476 33.0762 27.498 33.075C27.4771 33.0746 27.2372 33.218 26.9648 33.3938ZM4.89968 34.7824L3.88332 35.7992L4.31963 36.2447L4.75594 36.6903L5.15828 36.2888L5.56055 35.8873V37.9437V40H6.16992H6.7793V37.9437V35.8873L7.18156 36.2888L7.5839 36.6903L8.01892 36.2461L8.45394 35.8018L7.4442 34.7837C6.10906 33.4372 6.24388 33.4373 4.89968 34.7824Z" fill="#0073A8"/>
</svg>
