<svg width="40" height="32" viewBox="0 0 40 32" fill="none" xmlns="http://www.w3.org/2000/svg">
<path fill-rule="evenodd" clip-rule="evenodd" d="M10.2676 0.0387816C5.91941 0.314056 2.24867 3.02178 0.693163 7.10137C0.430917 7.78912 0.160466 8.96505 0.0627095 9.84221C-0.431385 14.2751 2.03424 18.7596 6.04788 20.728C6.87869 21.1356 7.93658 21.5124 8.2497 21.5124C8.50108 21.5124 8.87585 21.3112 8.97587 21.1225C9.16014 20.7752 8.9901 20.0986 8.68808 19.9771C8.61126 19.9463 8.24954 19.8137 7.88422 19.6825C6.44195 19.1646 5.3392 18.4644 4.3364 17.43C2.99962 16.0508 2.1667 14.4608 1.82209 12.63C1.65096 11.7211 1.6515 10.1822 1.82318 9.26233C2.44059 5.95407 4.79642 3.24256 7.98979 2.16473C9.97868 1.49338 12.3609 1.58839 14.3616 2.41879C16.7258 3.40003 18.6578 5.51486 19.5183 8.06345C19.8085 8.92271 20.0238 9.17267 20.464 9.16108C20.8824 9.14996 21.1431 8.96009 21.2544 8.58538C21.3388 8.30119 21.3218 8.20113 21.0587 7.43263C20.487 5.76246 19.6858 4.47479 18.4365 3.2182C16.5778 1.34868 14.2876 0.285117 11.6445 0.0640933C11.145 0.0223014 10.7188 -0.00600669 10.6974 0.00109005C10.6759 0.00826563 10.4825 0.025219 10.2676 0.0387816ZM9.51693 3.49363C7.11835 3.9535 5.03476 5.59048 4.01602 7.81546C3.50121 8.93982 3.39259 9.48856 3.39635 10.9461C3.39932 12.1319 3.41854 12.3101 3.61296 12.9569C3.86184 13.7847 4.41931 14.9344 4.81737 15.4407C5.84127 16.7432 7.39099 17.8852 8.13428 17.8852C8.76466 17.8852 9.13513 17.1041 8.74324 16.6013C8.65697 16.4907 8.31026 16.2394 7.97268 16.0429C6.57721 15.2307 5.61247 13.9587 5.1801 12.3609C5.0103 11.7333 4.98686 10.2298 5.1372 9.60565C5.19464 9.36712 5.41852 8.8008 5.63466 8.34716C5.98114 7.61991 6.11203 7.43752 6.741 6.80528C7.34004 6.20316 7.57345 6.02921 8.19679 5.71995C9.13638 5.25378 9.81489 5.09126 10.8146 5.09315C11.8093 5.09497 12.496 5.25796 13.4244 5.71254C14.035 6.01155 14.2736 6.18723 14.8397 6.75466C15.3046 7.22076 15.6385 7.6449 15.8923 8.09208C16.3019 8.81358 16.5002 8.9906 16.8987 8.9906C17.4331 8.9906 17.7893 8.54477 17.6884 8.00226C17.6088 7.57449 16.9167 6.50099 16.2931 5.83831C15.1675 4.6422 14.1104 4.0068 12.5728 3.60229C11.7852 3.39514 10.3054 3.34247 9.51693 3.49363ZM28.5138 6.06643C27.5837 6.22366 26.6183 6.95967 26.2503 7.79204C26.1448 8.03057 26.0508 8.23803 26.0413 8.25309C26.0319 8.26815 25.7851 8.1617 25.4929 8.01654C24.9878 7.76563 24.9193 7.75262 24.1004 7.75262C23.2968 7.75262 23.2052 7.7691 22.7313 7.99864C22.1001 8.30435 21.5472 8.85923 21.2338 9.50173L20.9951 9.99077L20.7106 9.80129C20.2705 9.50811 19.5096 9.34205 18.8403 9.39291C17.7683 9.47452 16.7059 10.178 16.2714 11.094C16.1558 11.338 16.0493 11.5529 16.0349 11.5716C16.0204 11.5904 15.2795 10.8783 14.3883 9.98935C13.4972 9.10036 12.599 8.27501 12.3924 8.15532C11.84 7.83541 10.9722 7.67526 10.3702 7.78227C9.83396 7.8776 9.04558 8.23551 8.73105 8.5264C7.58939 9.58247 7.33176 11.2373 8.09638 12.6021C8.21899 12.8209 10.5135 15.1999 14.0807 18.8069C19.2374 24.0211 19.8457 24.6617 19.6773 24.701C19.5734 24.7253 18.0291 24.9756 16.2455 25.2572C14.4619 25.5388 12.8619 25.8084 12.69 25.8563C11.0996 26.2996 9.85678 28.0793 10.0181 29.6826C10.1318 30.812 10.9587 31.7017 12.0969 31.9196C12.6601 32.0274 27.7697 32.0265 28.9776 31.9187C30.7175 31.7632 32.1653 31.2248 33.5931 30.2021C34.2136 29.7577 37.2603 26.7425 37.9082 25.9318C38.476 25.2213 38.6887 24.8878 39.0673 24.1145C39.6443 22.9358 39.9997 21.3886 40 20.0536C40.0005 18.2123 39.3034 16.0921 38.2186 14.635C37.4306 13.5766 31.2858 6.82831 30.8447 6.53687C30.1804 6.09805 29.3356 5.92757 28.5138 6.06643ZM29.8526 7.891C30.0813 8.03365 34.6115 12.9748 36.4328 15.0682C37.6714 16.4918 38.2966 18.1772 38.2966 20.093C38.2966 21.6251 37.8805 23.0416 37.0669 24.2785C36.6161 24.964 33.8664 27.8234 32.9296 28.581C32.1762 29.1902 31.2101 29.7068 30.2672 30.0047L29.5688 30.2253L20.9042 30.2474C11.2861 30.2721 11.9779 30.3096 11.7468 29.7515C11.6128 29.4279 11.7073 28.8044 11.9505 28.4073C12.1565 28.071 12.586 27.6924 12.9225 27.5505C13.0687 27.4889 15.0102 27.1508 17.2369 26.7992C19.4638 26.4477 21.4655 26.1241 21.6854 26.0801C22.2824 25.9608 22.5899 25.5334 22.4614 25.0016C22.4258 24.8546 20.3362 22.6906 15.9701 18.2794C9.54249 11.7854 9.29001 11.5106 9.29126 11.0078C9.29266 10.4051 9.76801 9.69318 10.2837 9.52144C10.6656 9.39425 11.189 9.41585 11.4966 9.57143C11.6373 9.64256 13.6863 11.6449 16.0501 14.021C18.4139 16.3972 20.4308 18.3839 20.532 18.4359C21.0128 18.6828 21.6373 18.2272 21.6373 17.6295C21.6373 17.3137 21.5975 17.2666 19.7267 15.3684C18.4889 14.1127 17.7734 13.3268 17.695 13.1368C17.2901 12.1565 18.0413 11.0259 19.0977 11.0259C19.6685 11.0259 19.838 11.1579 21.8405 13.1621C23.7585 15.0819 23.809 15.1253 24.1202 15.1253C24.7124 15.1253 25.1642 14.4923 24.9162 14.01C24.8637 13.9079 24.3544 13.344 23.7843 12.7569C22.7255 11.6665 22.5766 11.431 22.5755 10.8451C22.5744 10.2992 23.0901 9.58704 23.5874 9.44763C23.9465 9.34694 24.3855 9.34812 24.6521 9.45039C24.7686 9.4951 25.3659 10.0274 25.9794 10.6332C26.713 11.3577 27.1571 11.7389 27.2768 11.747C27.6729 11.7736 27.859 11.7163 28.0751 11.501C28.3987 11.1788 28.3899 10.7366 28.0513 10.3115C27.3573 9.44006 27.4459 8.46615 28.2669 7.94084C28.7343 7.64167 29.4183 7.62022 29.8526 7.891Z" fill="#FCB900"/>
</svg>
