<svg width="49" height="40" viewBox="0 0 49 40" fill="none" xmlns="http://www.w3.org/2000/svg">
<path fill-rule="evenodd" clip-rule="evenodd" d="M32.1979 0.0530922C32.0915 0.0963996 29.6577 1.44838 26.7894 3.05748C23.9212 4.66659 21.2414 6.1469 20.8343 6.34707C19.0532 7.22304 17.6504 7.35389 10.0256 7.35511C5.09249 7.35595 4.86457 7.36362 4.23411 7.55126C2.34151 8.11472 1.00029 9.39477 0.251521 11.3523C0.0567183 11.8616 0.0429337 12.0852 0.0102911 15.2598C-0.0291481 19.0872 0.0185235 19.5068 0.629735 20.719C0.890685 21.2365 1.18811 21.6278 1.70953 22.1398C2.82761 23.2374 4.03041 23.7677 5.65996 23.8814L6.49756 23.9399L6.499 31.5725C6.50005 37.4865 6.52733 39.2578 6.61999 39.439C6.68576 39.5676 6.88975 39.7464 7.07326 39.8363C7.37834 39.9859 7.8405 39.9999 12.4596 40C18.118 40.0002 18.0635 40.0059 18.3279 39.3875C18.4422 39.1202 18.4506 38.9831 18.3675 38.7371C18.1743 38.1652 18.0254 38.1294 15.8342 38.1294H13.8685V31.0095V23.8895L15.9984 23.9375C18.2309 23.9879 18.9042 24.0884 20.214 24.5672C20.515 24.6773 23.3518 26.2165 26.5179 27.9876C29.6841 29.7587 32.3655 31.2076 32.4766 31.2074C32.8509 31.2067 33.2825 30.8668 33.3902 30.4877C33.5305 29.9943 33.5315 1.18385 33.3914 0.690637C33.2481 0.186475 32.6524 -0.131736 32.1979 0.0530922ZM31.5778 15.5872C31.5778 22.738 31.5507 28.5887 31.5175 28.5887C31.4844 28.5887 30.6229 28.1226 29.603 27.5529L27.7488 26.5171V15.5967V4.67641L29.5915 3.63582C30.605 3.06338 31.4665 2.59298 31.506 2.59036C31.5456 2.58774 31.5778 8.4363 31.5778 15.5872ZM41.1638 4.5247C39.3131 6.39814 39.1535 6.65443 39.4681 7.24885C39.6267 7.54845 39.9809 7.7301 40.4067 7.7301C40.7364 7.7301 40.7922 7.67987 42.5624 5.79006C43.4986 4.79053 43.5436 4.72346 43.5436 4.32715C43.5436 3.97807 43.4965 3.87303 43.2491 3.66959C43.0508 3.50655 42.8396 3.42686 42.6029 3.42564C42.2786 3.42396 42.1669 3.50917 41.1638 4.5247ZM25.8053 25.3744C25.7889 25.3904 24.8303 24.8787 23.675 24.2372C20.3486 22.3903 19.4645 22.1435 15.9027 22.0676L13.5813 22.0182V15.6352V9.25222L15.6155 9.18524C18.6342 9.08591 20.1298 8.79061 21.8138 7.96141C22.156 7.79295 23.1898 7.23248 24.1112 6.71597L25.7864 5.77696L25.8108 15.5611C25.8242 20.9424 25.8217 25.3584 25.8053 25.3744ZM11.6668 15.6339V22.0412H8.64633C6.24666 22.0412 5.49023 22.011 4.96546 21.8944C3.72945 21.6197 2.65703 20.7147 2.17428 19.5393C1.96138 19.0207 1.95229 18.887 1.92223 15.8453C1.8961 13.1892 1.91534 12.5971 2.04409 12.1062C2.38631 10.8008 3.28623 9.86179 4.6735 9.36231C4.92832 9.27064 5.84959 9.23819 8.34029 9.23323L11.6668 9.22668V15.6339ZM42.1308 9.67117C41.9418 9.77022 41.4194 10.3509 40.8057 11.1442L39.7925 12.4537L38.198 12.9934C35.6408 13.8591 35.5911 14.0032 37.1087 16.1484L38.0682 17.5047L38.1322 19.1883C38.1674 20.1143 38.2403 20.9848 38.2942 21.1226C38.3503 21.2662 38.5392 21.4415 38.7367 21.5331C39.0781 21.6913 39.0947 21.6891 40.4749 21.2917C41.2413 21.0709 42.0254 20.8471 42.2173 20.7942C42.5236 20.71 42.7701 20.7581 44.2342 21.1887C46.0557 21.7243 46.2609 21.7332 46.6395 21.2935C46.8506 21.0484 46.8665 20.9359 46.9258 19.2696C46.9793 17.7678 47.0148 17.4704 47.1645 17.2711C48.136 15.9768 49 14.6148 49 14.3775C49 13.8209 48.6586 13.5977 46.8978 13.003L45.2715 12.4537L44.2068 11.08C43.431 10.079 43.063 9.6794 42.85 9.60681C42.4779 9.48007 42.4988 9.4782 42.1308 9.67117ZM43.348 13.0617C43.7299 13.5504 44.0981 13.9816 44.1664 14.0199C44.2347 14.0582 44.7778 14.2601 45.3733 14.4686C45.9689 14.677 46.4678 14.8589 46.4818 14.8726C46.496 14.8864 46.1853 15.355 45.7914 15.914C45.079 16.925 45.0752 16.9336 45.0746 17.5449C45.0742 17.8829 45.0461 18.4468 45.0121 18.798C44.9615 19.3218 44.9229 19.429 44.7974 19.3946C44.7133 19.3715 44.1675 19.2146 43.5844 19.0459L42.5242 18.7394L41.3505 19.0884C40.705 19.2804 40.1492 19.4103 40.1153 19.3773C40.0815 19.3441 40.0313 18.762 40.0038 18.0835L39.9539 16.8499L39.2547 15.8807C38.8701 15.3475 38.5713 14.8959 38.5906 14.8769C38.6101 14.858 39.1172 14.6721 39.7176 14.4636C40.3181 14.2552 40.9113 13.9913 41.0358 13.8772C41.1603 13.763 41.5447 13.299 41.89 12.8459C42.2354 12.3928 42.5485 12.0561 42.586 12.0976C42.6233 12.1391 42.9663 12.5729 43.348 13.0617ZM4.67139 12.3997C4.22732 12.8336 4.32228 13.5256 4.86926 13.8413C5.24795 14.0599 8.37016 14.0714 8.7969 13.8558C9.3614 13.5705 9.45837 12.8537 8.99381 12.3997L8.71401 12.1263H6.8326H4.9512L4.67139 12.3997ZM5.08885 17.2428C4.97216 17.2649 4.7676 17.4097 4.63415 17.5647C4.29279 17.9611 4.30687 18.4184 4.67139 18.7746L4.9512 19.048H6.8326H8.71401L8.99381 18.7746C9.5383 18.2426 9.26012 17.3851 8.4945 17.2355C8.16971 17.172 5.43213 17.1779 5.08885 17.2428ZM11.954 31.0207V38.1294H10.183H8.41208V31.0207V23.9119H10.183H11.954V31.0207ZM39.6571 24.7911C39.2883 25.1515 39.2346 25.5089 39.4937 25.8787C39.6936 26.1641 41.7758 28.3878 42.051 28.6101C42.1676 28.7042 42.4159 28.7725 42.6451 28.7737C43.1996 28.7766 43.5436 28.4347 43.5436 27.8808C43.5436 27.4952 43.4912 27.4231 42.2438 26.093C41.5289 25.3307 40.8505 24.6558 40.7361 24.5933C40.3568 24.386 40.0059 24.4504 39.6571 24.7911Z" fill="#56A409"/>
</svg>
