<svg width="40" height="40" viewBox="0 0 40 40" fill="none" xmlns="http://www.w3.org/2000/svg">
<path fill-rule="evenodd" clip-rule="evenodd" d="M15.3656 0.13234C13.8902 0.489665 12.662 1.73476 12.3096 3.23031C12.2141 3.63536 12.1942 4.60774 12.1932 8.89486L12.192 14.0704L7.95624 14.0716C4.49755 14.0725 3.63071 14.0938 3.23165 14.188C1.71823 14.545 0.486919 15.7737 0.131657 17.2814C-0.0423817 18.0201 -0.0445679 31.0476 0.129237 31.7851C0.467009 33.2187 1.66647 34.4813 3.03723 34.8464L3.36907 34.9347V37.1544C3.36907 39.5474 3.39124 39.6989 3.77079 39.8952C4.06226 40.046 4.29985 40.0348 4.5793 39.8568C4.70813 39.7748 6.04329 38.6512 7.54632 37.3601L10.2791 35.0125L17.1891 35.0085C24.8553 35.0041 24.6236 35.0184 25.6334 34.4875C26.2805 34.1472 27.004 33.4061 27.3409 32.7385C27.8032 31.8222 27.8055 31.7889 27.8068 26.1205L27.8079 20.945L28.7644 20.9471L29.7209 20.9492L32.4537 23.2969C33.9567 24.5883 35.2919 25.7121 35.4207 25.7945C35.6999 25.973 35.9374 25.9844 36.2292 25.8335C36.6088 25.6371 36.6309 25.4856 36.6309 23.0927V20.8729L36.9608 20.784C38.338 20.413 39.5323 19.1602 39.8683 17.734C40.0424 16.9953 40.0446 3.96777 39.8708 3.23031C39.5139 1.71609 38.2859 0.484119 36.779 0.128668C36.124 -0.0257773 29.5814 -0.0490574 29.2502 0.101951C29.0265 0.203977 28.823 0.531538 28.823 0.789806C28.823 1.01604 29.0226 1.38181 29.191 1.46391C29.2677 1.50133 30.9467 1.54953 32.9222 1.57102L36.5138 1.61008L36.9543 1.82647C37.4683 2.07904 37.9801 2.60237 38.219 3.11969L38.3877 3.48498V10.4768V17.4686L38.219 17.8339C37.8427 18.6486 37.0255 19.2496 36.1625 19.3466C35.6036 19.4094 35.3199 19.5214 35.203 19.7253C35.1401 19.835 35.0953 20.4841 35.0693 21.6604L35.0303 23.4303L32.7013 21.4455C31.4203 20.3538 30.2959 19.4428 30.2027 19.4209C30.1095 19.3991 26.8007 19.3728 22.8499 19.3624L15.6666 19.3435L15.2142 19.1142C14.6858 18.8463 14.1995 18.3494 13.9614 17.8339L13.7927 17.4686V10.4768V3.48498L14.0118 3.0386C14.2566 2.53972 14.7509 2.06138 15.3026 1.78952C15.6624 1.61219 15.7083 1.60961 19.2582 1.57102C21.2337 1.54953 22.9127 1.50133 22.9894 1.46391C23.1578 1.38181 23.3574 1.01604 23.3574 0.789806C23.3574 0.531538 23.1539 0.203977 22.9302 0.101951C22.6125 -0.0428858 15.9791 -0.0162466 15.3656 0.13234ZM25.7084 0.117653C25.0315 0.493024 25.3147 1.57102 26.0902 1.57102C26.4858 1.57102 26.871 1.1894 26.871 0.797384C26.871 0.210851 26.2232 -0.167879 25.7084 0.117653ZM25.5376 4.29924L25.3094 4.52758V5.70541V6.88325H22.922H20.5345L20.2965 7.12136C20.0884 7.32963 20.0638 7.399 20.1007 7.6743C20.189 8.33325 20.4914 8.44465 22.1942 8.4452L23.4125 8.44567L23.4626 9.0979C23.5617 10.3877 24.1441 12.0805 24.8338 13.0836L25.0762 13.436L24.6454 13.7871C23.7038 14.5546 22.6361 15.0581 21.4606 15.2892C20.6202 15.4544 20.3904 15.6373 20.3904 16.1406C20.3904 16.3965 20.4387 16.5193 20.6051 16.6863C20.8108 16.8927 20.8445 16.9 21.4054 16.8601C22.7123 16.7671 24.6791 15.8746 25.7899 14.8704L26.0902 14.599L26.3905 14.8704C27.5013 15.8746 29.4681 16.7671 30.775 16.8601C31.3359 16.9 31.3696 16.8927 31.5753 16.6863C31.7417 16.5193 31.79 16.3965 31.79 16.1406C31.79 15.6373 31.5602 15.4544 30.7198 15.2892C29.5443 15.0581 28.4766 14.5546 27.535 13.7871L27.1042 13.436L27.3466 13.0836C28.0363 12.0805 28.6187 10.3877 28.7178 9.0979L28.7679 8.44567L29.9862 8.4452C31.7348 8.44457 32.0633 8.31263 32.0633 7.6104C32.0633 7.32369 32.0236 7.2262 31.8442 7.07175L31.6251 6.88325H29.2536H26.882L26.8569 5.66542L26.832 4.44759L26.6129 4.25924C26.2913 3.98277 25.8371 3.99964 25.5376 4.29924ZM27.1526 9.02236C27.1239 9.33953 27.0297 9.85809 26.9434 10.1746C26.7849 10.7555 26.1868 12.1174 26.0902 12.1174C26.0184 12.1174 25.4289 10.8385 25.28 10.3596C25.1412 9.91364 24.9986 9.07438 24.9977 8.69956L24.9971 8.44567H26.101H27.2049L27.1526 9.02236ZM12.1932 16.4335C12.1949 17.6264 12.4594 18.5315 13.0273 19.2885C13.1736 19.4835 13.1994 19.5711 13.134 19.65C13.0101 19.7994 9.61543 28.7378 9.61543 28.9147C9.61543 29.1705 9.79407 29.4678 10.0171 29.5833C10.2905 29.7247 10.503 29.7241 10.7792 29.5812C11.007 29.4633 11.1254 29.2339 11.5368 28.1126L11.7589 27.5072L13.9079 27.5078L16.057 27.5084L16.4326 28.4848C16.7456 29.2984 16.8459 29.4806 17.0339 29.5779C17.3164 29.724 17.5275 29.7255 17.8025 29.5833C18.0242 29.4685 18.2042 29.1709 18.2042 28.9188C18.2042 28.8399 17.5328 26.9938 16.7123 24.8164C15.8918 22.639 15.234 20.844 15.2505 20.8275C15.2671 20.811 15.4202 20.8298 15.5907 20.8693C15.7626 20.9093 18.2065 20.9421 21.0762 20.9432L26.2516 20.945L26.2294 26.2377C26.2076 31.4737 26.2055 31.5343 26.0386 31.8957C25.7997 32.413 25.2879 32.9364 24.7739 33.1889L24.3334 33.4053L17.1501 33.4242C13.1993 33.4346 9.88925 33.4612 9.79438 33.4834C9.6996 33.5056 8.57525 34.4193 7.29584 35.5136L4.9697 37.5034L4.93066 35.7278C4.90473 34.5471 4.85992 33.8969 4.79699 33.7871C4.67869 33.5807 4.39394 33.4695 3.81943 33.4053C2.98835 33.3125 2.21076 32.7496 1.82317 31.9601L1.61228 31.5304L1.59112 24.7011C1.56777 17.1951 1.55567 17.4102 2.03953 16.7419C2.33936 16.3278 2.9166 15.8995 3.36907 15.7555C3.65507 15.6645 4.50833 15.6426 7.95624 15.6383L12.192 15.6328L12.1932 16.4335ZM14.6811 25.928C14.2569 25.9402 13.565 25.9402 13.1436 25.928L12.3774 25.9057L13.1055 23.9918C13.5059 22.9391 13.8533 22.0251 13.8775 21.9606C13.9017 21.8962 14.266 22.7574 14.687 23.8746L15.4525 25.9057L14.6811 25.928Z" fill="#D94EDC"/>
</svg>
