<svg width="40" height="40" viewBox="0 0 40 40" fill="none" xmlns="http://www.w3.org/2000/svg">
<path fill-rule="evenodd" clip-rule="evenodd" d="M14.7575 0.110163C11.0166 0.553915 7.76937 2.09836 5.07812 4.71387C2.87351 6.85645 1.42609 9.28364 0.622786 12.1853C0.0355667 14.3062 -0.133863 16.3661 0.103792 18.4949C0.740089 24.1944 4.18299 29.0983 9.31533 31.615C11.703 32.7859 13.9435 33.3015 16.6801 33.3098C19.6317 33.3188 22.5027 32.5526 24.9705 31.0974C25.3223 30.89 25.6376 30.7203 25.671 30.7203C25.7046 30.7203 27.685 32.6685 30.0721 35.0497C34.8717 39.8373 34.7822 39.7631 35.9857 39.9571C37.8523 40.2579 39.6194 38.9455 39.9379 37.0221C40.048 36.3573 39.9367 35.6583 39.6092 34.9581C39.3846 34.4776 39.0299 34.1006 35.015 30.0748C31.2911 26.3409 30.6763 25.6927 30.7484 25.5768C33.4127 21.2852 34.035 16.1584 32.4644 11.4412C32.088 10.3109 31.5825 9.18048 31.0372 8.24973L30.6768 7.63439L31.3336 6.97713L31.9903 6.31987L32.4198 6.48403C33.2892 6.81641 34.4361 6.58875 35.1263 5.94674C35.417 5.67638 35.7534 5.16177 35.8244 4.87905L35.875 4.67704H37.9375H40V4.01227V3.3475H37.9671H35.9342L35.7494 2.93691C34.8237 0.880277 31.9899 0.809264 30.963 2.81694C30.6655 3.39841 30.616 4.30289 30.8482 4.91127L31.0123 5.34102L30.4423 5.91147L29.8721 6.48192L29.1949 5.70195C25.6503 1.61981 20.1124 -0.525119 14.7575 0.110163ZM18.4377 1.39778C24.1176 2.12128 28.8388 5.77116 30.9392 11.0626C32.114 14.0223 32.2996 17.6179 31.4375 20.7204C30.6998 23.3751 29.3408 25.6793 27.3733 27.6109C25.2328 29.7125 22.6787 31.0677 19.6629 31.7023C18.4748 31.9524 16.2031 32.0462 14.9126 31.8987C8.74554 31.1937 3.59178 26.8268 1.89202 20.8661C1.23095 18.548 1.13662 15.7982 1.63842 13.4754C2.8671 7.78807 7.04601 3.35344 12.6084 1.83426C13.2729 1.65274 14.4667 1.42578 15.0701 1.36618C15.7259 1.30135 17.8365 1.32121 18.4377 1.39778ZM15.5 2.72364C9.63215 3.20579 4.70284 7.34213 3.15313 13.0844C2.54926 15.3217 2.54778 17.9814 3.14914 20.2404C4.35031 24.7529 7.63792 28.3123 12.0614 29.8894C14.4929 30.7563 17.519 30.8894 20.0937 30.2427C24.123 29.2307 27.6246 26.3309 29.3335 22.5909C30.2531 20.5784 30.6297 18.8621 30.6297 16.6819C30.6297 11.7747 28.1668 7.34963 23.994 4.7597C21.5006 3.21212 18.4513 2.48119 15.5 2.72364ZM33.7052 2.73036C34.3132 2.89921 34.7693 3.62975 34.644 4.23391C34.5683 4.59906 34.2986 4.95905 33.957 5.15121C33.7183 5.28549 33.5665 5.31349 33.2295 5.28549C32.531 5.22754 32.104 4.80209 32.0463 4.10651C32.0071 3.63366 32.1278 3.32388 32.4788 2.99603C32.8215 2.67585 33.2079 2.59217 33.7052 2.73036ZM18.7432 4.1819C21.0449 4.55972 23.2979 5.63172 24.9952 7.15669C25.8063 7.88544 26.9489 9.16226 26.9489 9.33987C26.9489 9.37921 26.5884 9.76978 26.1479 10.2077L25.3469 11.004L24.917 10.8541C23.772 10.4546 22.4975 10.8548 21.8365 11.8212C21.3172 12.5804 21.207 13.5616 21.5528 14.3451L21.6952 14.6674L19.5294 16.8337L17.3637 19L16.8617 18.8298C16.2544 18.6239 15.5302 18.6472 14.9812 18.8903L14.6213 19.0497L13.1226 17.5486L11.6241 16.0474L11.7727 15.6999C12.3284 14.3994 11.7474 12.883 10.4593 12.2716C10.095 12.0988 9.92217 12.0677 9.32612 12.0677C8.71397 12.0677 8.56501 12.0961 8.17708 12.2867C7.64941 12.546 7.0879 13.1377 6.89847 13.634L6.76499 13.9838H5.53084H4.2967L4.48105 13.2995C4.84164 11.9612 5.47324 10.614 6.29062 9.44013C9.08127 5.43245 13.9184 3.38989 18.7432 4.1819ZM28.1042 11.3052C28.9589 13.1236 29.3036 14.6714 29.3001 16.6737C29.2924 21.0243 27.1516 24.9663 23.5198 27.3174C22.2629 28.1311 20.7403 28.7576 19.2286 29.0828C18.1332 29.3185 15.947 29.3771 14.8357 29.2006C13.4828 28.9856 12.6319 28.7348 11.4362 28.1984C8.77032 27.0026 6.42613 24.701 5.24255 22.1174C4.30678 20.0748 3.98058 18.3975 4.03716 15.9194L4.05099 15.3133L5.39908 15.3146L6.74717 15.316L6.93488 15.7499C7.17645 16.3082 7.64878 16.7907 8.23538 17.0785C8.63449 17.2743 8.79009 17.3064 9.32612 17.3039C9.78892 17.3017 10.0451 17.2585 10.3125 17.1372L10.6737 16.9733L12.174 18.4761L13.6741 19.9789L13.505 20.4811C13.0683 21.7771 13.6625 23.1665 14.9023 23.7482C15.2712 23.9213 15.4527 23.9553 16.0079 23.9553C16.5604 23.9553 16.7446 23.9211 17.102 23.7524C17.6519 23.4928 18.1662 22.9771 18.4205 22.4302C18.6776 21.8772 18.704 20.9512 18.4793 20.3682L18.3326 19.9876L20.5018 17.8157L22.6709 15.6439L22.993 15.7863C23.7759 16.1325 24.7564 16.0221 25.515 15.5025C26.4832 14.8392 26.899 13.504 26.4805 12.4019L26.3247 11.9916L27.0064 11.3062C27.3813 10.9293 27.7094 10.6208 27.7354 10.6208C27.7614 10.6208 27.9274 10.9288 28.1042 11.3052ZM24.7375 12.234C25.1002 12.5051 25.2534 12.7809 25.2906 13.2303C25.4174 14.761 23.3127 15.2267 22.7642 13.7894C22.535 13.1888 22.7761 12.5314 23.3518 12.1877C23.7077 11.9753 24.4231 11.9992 24.7375 12.234ZM9.85981 13.4648C10.0001 13.5234 10.2091 13.6835 10.3241 13.8202C10.9296 14.5403 10.6673 15.5707 9.79353 15.9046C8.91677 16.2397 8.03664 15.6124 8.03664 14.6524C8.03664 13.6986 8.96796 13.0919 9.85981 13.4648ZM16.5001 20.1114C17.056 20.3439 17.4204 21.0129 17.3052 21.5895C17.1893 22.1698 16.592 22.6649 16.0079 22.6649C15.5821 22.6649 15.0935 22.3807 14.8737 22.0052C14.2433 20.9289 15.3562 19.6331 16.5001 20.1114ZM30.857 27.788L31.7537 28.6879L30.2115 30.2312L28.6693 31.7746L27.7701 30.8772C26.9192 30.0281 26.7715 29.8296 26.9451 29.7687C27.1529 29.6959 28.5228 28.4076 29.1479 27.6971C29.5393 27.2521 29.8823 26.8881 29.91 26.8881C29.9376 26.8881 30.3638 27.293 30.857 27.788ZM38.4465 35.5692C38.7004 36.0569 38.7081 37.0246 38.4618 37.4888C37.9016 38.5442 36.5766 38.9854 35.5398 38.4619C35.3101 38.3458 34.2544 37.3514 32.3986 35.5029L29.6033 32.7187L31.1482 31.1707L32.693 29.6228L35.4781 32.42C37.2927 34.2425 38.327 35.3398 38.4465 35.5692Z" fill="#2B3AC0"/>
</svg>
