<svg width="33" height="34" viewBox="0 0 33 34" fill="none" xmlns="http://www.w3.org/2000/svg">
<path fill-rule="evenodd" clip-rule="evenodd" d="M19.4896 0.110082C19.0232 0.270203 18.5986 0.625755 18.3547 1.06044C18.1599 1.40755 18.1537 1.44738 18.1209 2.54755L18.0872 3.67797L12.3276 3.71122C5.88363 3.74839 6.35275 3.71062 5.77133 4.23966C5.60656 4.38954 5.40009 4.66863 5.31251 4.8598L5.15333 5.20737L5.13245 8.83139L5.1115 12.4554L2.70735 13.4861C1.385 14.053 0.234965 14.5827 0.151569 14.6634L0 14.8099V18.8544C0 22.2206 0.0158978 22.9212 0.0946462 23.0323C0.151501 23.1125 1.1722 23.5894 2.65184 24.2271L5.11433 25.2886L5.1338 28.9129C5.15279 32.4364 5.15724 32.5455 5.2952 32.8397C5.50255 33.2821 5.81896 33.6043 6.25258 33.8145L6.63534 34H13.877H21.1186L21.4317 33.8571C21.8312 33.6748 22.2239 33.2872 22.435 32.8668L22.6006 32.5371L22.6211 30.0292L22.6417 27.5214L26.0008 27.5024L29.3599 27.4834L29.5337 27.3222C29.8057 27.0699 29.7597 26.7167 29.4331 26.55C29.2735 26.4685 28.7066 26.4527 25.9384 26.4527H22.6342V18.2405V10.0283H26.7996C29.7011 10.0283 31.0834 10.0048 31.3556 9.95084C32.076 9.80801 32.7024 9.23748 32.9091 8.53588C32.9979 8.23406 33.0102 7.69558 32.9938 4.83314L32.9746 1.48362L32.8114 1.15626C32.6032 0.738665 32.2053 0.345942 31.8058 0.163611C31.4939 0.0213098 31.4694 0.0206449 25.6656 0.00548387C20.2035 -0.0087462 19.8168 -0.00216312 19.4896 0.110082ZM31.4616 1.07154C31.6621 1.17621 31.804 1.31631 31.91 1.5142L32.0652 1.80379V4.98721C32.0652 7.5425 32.0469 8.21291 31.9724 8.38467C31.8409 8.68809 31.5177 8.96504 31.2138 9.0346C31.0708 9.06738 28.9984 9.09524 26.6087 9.09657C21.9838 9.0991 21.9406 9.10176 21.287 9.42772C21.0395 9.55114 19.9152 10.4307 19.2143 11.0494L19.0613 11.1843L19.0795 6.40051L19.0976 1.61661L19.2594 1.39272C19.3484 1.26963 19.5454 1.11317 19.6973 1.04508C19.9594 0.927646 20.2578 0.921262 25.5708 0.919866L31.1682 0.918403L31.4616 1.07154ZM23.1163 2.23169C22.9497 2.371 21.0849 7.0785 21.0849 7.35971C21.0849 7.55959 21.2287 7.7241 21.4656 7.79525C21.7117 7.86913 21.9341 7.59477 22.2161 6.86977L22.4746 6.20481L23.3848 6.18639L24.2951 6.16797L24.593 6.91738C24.8345 7.52475 24.926 7.68327 25.0762 7.75396C25.2288 7.82584 25.2938 7.82591 25.4451 7.75429C25.846 7.56465 25.8363 7.52156 24.7981 4.86392C23.8297 2.38496 23.6904 2.11532 23.379 2.11532C23.3111 2.11532 23.1928 2.16772 23.1163 2.23169ZM26.558 2.19273C26.2928 2.32572 26.2644 2.63698 26.2856 5.16934C26.3044 7.40572 26.3136 7.56292 26.4339 7.69405C26.6039 7.87937 26.9504 7.87937 27.1203 7.69405C27.2295 7.57502 27.2522 7.426 27.2722 6.69661L27.2959 5.83908H27.5521H27.8083L28.4236 6.79715C28.7621 7.32406 29.0858 7.77291 29.1429 7.79459C29.3637 7.87817 29.567 7.82883 29.7025 7.65874C29.7793 7.56238 29.842 7.43518 29.8419 7.37613C29.8418 7.31708 29.6129 6.91172 29.3332 6.47538C28.8994 5.79865 28.8406 5.67324 28.9333 5.62204C29.1968 5.47648 29.5083 5.144 29.6516 4.85535C29.7769 4.60293 29.8069 4.4331 29.8067 3.9772C29.8064 3.47603 29.7838 3.3715 29.6071 3.05491C29.405 2.69284 29.1906 2.49468 28.7644 2.27611C28.5776 2.18036 28.3394 2.15117 27.6192 2.13587C27.0318 2.12344 26.656 2.14352 26.558 2.19273ZM28.4275 3.16276C29.0414 3.46539 29.0372 4.51143 28.4211 4.82403C28.332 4.86924 28.0394 4.90661 27.7707 4.90715L27.2824 4.90814V3.9772V3.04626L27.7371 3.0464C28.0349 3.04646 28.2731 3.08656 28.4275 3.16276ZM23.6716 4.56569C23.805 4.90768 23.9142 5.19946 23.9142 5.21402C23.9142 5.22865 23.674 5.24062 23.3805 5.24062H22.8469L23.0673 4.69203C23.1886 4.39034 23.3082 4.08679 23.3331 4.01757C23.358 3.94834 23.3898 3.90346 23.4037 3.91782C23.4176 3.93219 23.5381 4.22377 23.6716 4.56569ZM18.1209 8.53216C18.1209 12.267 18.124 12.3587 18.2556 12.4886C18.3362 12.5682 18.4782 12.6209 18.6093 12.6198C18.7937 12.6184 19.04 12.4404 20.1733 11.4894C20.9131 10.8687 21.5421 10.3608 21.5711 10.3608C21.6001 10.3608 21.6238 13.9818 21.6238 18.4075V26.4542L18.7794 26.4368L15.9349 26.4195L14.9073 24.9566C13.989 23.6492 13.8958 23.4916 14.03 23.4739C14.3201 23.4356 14.8931 23.1756 14.9907 23.038C15.0528 22.9506 15.0895 22.739 15.0895 22.4691C15.0895 22.1194 15.0622 22.0107 14.9431 21.8854C14.6502 21.5777 14.079 21.7901 14.079 22.2069C14.079 22.345 14.0287 22.4188 13.8842 22.4925C13.7738 22.5489 13.6571 22.6838 13.6146 22.8039L13.5398 23.0158L12.9931 22.2241C12.6924 21.7886 12.3987 21.3949 12.3404 21.3492C12.1524 21.2017 11.8132 21.2475 11.6589 21.4413C11.4871 21.6568 11.4812 21.8633 11.6406 22.0717C11.7074 22.1589 11.9066 22.433 12.0831 22.6808L12.4042 23.1313L11.9053 23.3558C11.3454 23.6077 11.1861 23.8184 11.3109 24.1423C11.4556 24.5181 11.7589 24.5414 12.4623 24.2308C12.7402 24.108 12.9855 24.0181 13.0076 24.0308C13.0296 24.0435 13.5717 24.8016 14.2124 25.7154C15.1357 27.0326 15.4192 27.3914 15.5802 27.4468C15.7101 27.4915 16.8361 27.5167 18.7035 27.5167H21.6238V28.5806V29.6445H13.9106H6.19747V27.7162C6.19747 26.6556 6.21115 25.7878 6.22792 25.7878C6.24463 25.7878 6.49468 25.8892 6.78367 26.0131C7.57985 26.3547 7.56617 26.3535 8.04984 26.1301C8.38639 25.9746 8.4931 25.8899 8.52873 25.7498C8.59387 25.4936 8.48245 25.2377 8.25982 25.1324C8.09666 25.0553 8.03112 25.0565 7.81286 25.1412C7.56132 25.2387 7.54563 25.2353 6.87724 24.94L6.19747 24.6397V21.327V18.0143L6.48377 18.1426C7.0274 18.3862 7.47739 18.2357 7.47739 17.8106C7.47739 17.5284 7.3145 17.3797 6.74177 17.139L6.19862 16.9106L6.19801 14.9994L6.19747 13.0881L6.84437 12.7897C7.36058 12.5516 7.51767 12.5053 7.62195 12.5603C7.85247 12.6821 8.22459 12.6071 8.37393 12.4088C8.48414 12.2625 8.49761 12.1892 8.44655 12.0135C8.39717 11.8434 8.30596 11.7591 8.01488 11.6141C7.81185 11.5131 7.58153 11.4291 7.50298 11.4276C7.42444 11.426 7.10614 11.5426 6.79566 11.6866L6.23115 11.9486L6.21371 8.64454C6.19417 4.95788 6.16554 5.19607 6.66835 4.85827L6.89105 4.70866H12.506H18.1209V8.53216ZM11.9479 5.6509C11.6518 5.7924 11.5996 6.18313 11.8407 6.45417C11.9346 6.55963 12.1159 6.57054 13.7759 6.57054C15.5259 6.57054 15.613 6.56455 15.7303 6.43668C15.9158 6.23433 15.8884 5.91456 15.6696 5.72883C15.4874 5.57416 15.4747 5.5731 13.789 5.57762C12.7676 5.58028 12.0345 5.60947 11.9479 5.6509ZM9.1827 12.2896C8.89182 12.4053 8.79805 12.8313 9.00991 13.0749C9.16445 13.2526 10.0582 13.6191 10.337 13.6191C10.7412 13.6191 10.9568 13.1261 10.6832 12.8276C10.5746 12.7093 9.51204 12.2173 9.3856 12.2269C9.35495 12.2292 9.26367 12.2574 9.1827 12.2896ZM11.5866 13.2672C11.2443 13.3915 11.1208 13.8823 11.3747 14.1091C11.574 14.2871 12.6143 14.6844 12.7654 14.6402C13.0133 14.5676 13.1359 14.4058 13.1359 14.151C13.1359 13.8383 13.0376 13.7528 12.3382 13.4573C11.7505 13.209 11.7485 13.2085 11.5866 13.2672ZM5.10012 16.3869C5.08786 16.399 4.34045 16.0894 3.43919 15.6989C2.17605 15.1515 1.82974 14.9763 1.92762 14.9339C1.99747 14.9037 2.73666 14.5855 3.57028 14.2268L5.08597 13.5747L5.10416 14.9697C5.11419 15.7371 5.11238 16.3748 5.10012 16.3869ZM13.9083 14.2808C13.7245 14.3543 13.6255 14.4824 13.5973 14.683C13.5842 14.7757 13.4848 14.909 13.3726 14.9843C12.9863 15.2436 12.9889 15.7198 13.3774 15.8946C13.519 15.9583 13.6099 15.9539 13.8404 15.872C14.1068 15.7775 14.138 15.7789 14.279 15.8916C14.4883 16.0589 14.728 16.0434 14.9241 15.8497C15.0675 15.7082 15.0895 15.626 15.0895 15.2305C15.0895 14.6809 15.0009 14.5599 14.4499 14.3564C14.2431 14.28 14.0675 14.2195 14.0596 14.2217C14.0518 14.2241 13.9837 14.2507 13.9083 14.2808ZM11.5529 15.7483C11.4047 15.8162 11.1441 15.9338 10.9739 16.0096C10.5149 16.214 10.404 16.5662 10.6956 16.894C10.8541 17.0721 11.1876 17.035 11.766 16.7748C12.4197 16.4807 12.5297 16.3839 12.5297 16.1024C12.5297 15.6458 12.109 15.4933 11.5529 15.7483ZM3.10567 16.6708L5.08597 17.528L5.10342 20.8524L5.12086 24.1768L3.09934 23.3035L1.07782 22.4303V19.1219C1.07782 17.3022 1.08853 15.8134 1.1016 15.8134C1.11467 15.8134 2.01654 16.1992 3.10567 16.6708ZM14.2519 16.7007C14.0891 16.8613 14.079 16.9105 14.079 17.5436C14.079 18.2696 14.1331 18.4463 14.3837 18.5404C14.5857 18.6162 14.9321 18.5064 15.0236 18.3377C15.0598 18.2708 15.0895 17.9182 15.0895 17.5541C15.0895 16.8064 15.0144 16.6424 14.6392 16.5709C14.4662 16.5379 14.3913 16.563 14.2519 16.7007ZM8.75851 16.9621C8.24709 17.1889 8.1069 17.2816 8.05503 17.4271C7.968 17.6714 8.07187 17.9442 8.30003 18.0706C8.4704 18.1651 8.51876 18.1555 9.1346 17.9056C9.85816 17.6119 10.0852 17.4079 10.0115 17.1177C9.95624 16.9004 9.71528 16.6777 9.53609 16.6784C9.45977 16.6787 9.10981 16.8064 8.75851 16.9621ZM14.2255 19.2921C14.0943 19.43 14.079 19.5188 14.079 20.145C14.079 20.7896 14.0912 20.8551 14.2349 20.9885C14.4555 21.1931 14.7733 21.1795 14.9499 20.9579C15.0694 20.8079 15.0895 20.6896 15.0895 20.1357C15.0895 19.5817 15.0694 19.4634 14.9499 19.3134C14.7674 19.0844 14.4326 19.0746 14.2255 19.2921ZM24.0818 21.3999C23.8948 21.6039 23.9237 21.9221 24.1463 22.111L24.3335 22.27L25.9824 22.2501C27.6228 22.2304 27.632 22.2295 27.76 22.0733C27.9342 21.8607 27.923 21.5871 27.7327 21.4106C27.5812 21.2701 27.5292 21.2661 25.8907 21.2661C24.2864 21.2661 24.1985 21.2726 24.0818 21.3999ZM28.3369 21.3877C28.1554 21.5857 28.1927 21.9624 28.4107 22.1322C28.5643 22.2519 28.6616 22.2719 28.9808 22.2493C29.2293 22.2318 29.4142 22.1787 29.5029 22.0995C29.668 21.952 29.6835 21.6229 29.5352 21.4139C29.4432 21.2842 29.3704 21.2661 28.9394 21.2661C28.5493 21.2661 28.4255 21.2911 28.3369 21.3877ZM24.1125 23.1176C23.8904 23.2951 23.9046 23.6347 24.1425 23.8367C24.3902 24.047 24.9586 24.0565 25.2187 23.8546C25.4411 23.6819 25.462 23.326 25.2614 23.128C25.0752 22.9441 24.3379 22.9374 24.1125 23.1176ZM25.8677 23.128C25.6671 23.326 25.6881 23.6819 25.9105 23.8546C26.0787 23.9852 26.1713 23.9924 27.6865 23.9924C29.2018 23.9924 29.2944 23.9852 29.4626 23.8546C29.685 23.6819 29.706 23.326 29.5054 23.128C29.3778 23.0021 29.2808 22.995 27.6865 22.995C26.0922 22.995 25.9952 23.0021 25.8677 23.128ZM9.65613 24.3214C9.10058 24.5793 8.95939 24.7182 8.95939 25.0071C8.95939 25.2138 9.22292 25.4553 9.44838 25.4553C9.67035 25.4553 10.6481 25.0232 10.7614 24.8751C10.9102 24.6804 10.8646 24.3493 10.6681 24.1967C10.4264 24.0091 10.2939 24.0254 9.65613 24.3214ZM24.1125 24.8465C23.8904 25.0239 23.9046 25.3636 24.1425 25.5656C24.3237 25.7195 24.3443 25.7213 25.9419 25.7213H27.5579L27.7233 25.558C27.9354 25.3486 27.9394 25.0601 27.7327 24.8684C27.5814 24.7281 27.5284 24.7239 25.9213 24.7239C24.4129 24.7239 24.2523 24.7348 24.1125 24.8465ZM28.3602 24.8568C28.2779 24.9381 28.2254 25.0785 28.2254 25.2177C28.2254 25.5453 28.4725 25.7213 28.9328 25.7213C29.393 25.7213 29.6401 25.5453 29.6401 25.2177C29.6401 24.8533 29.4548 24.7239 28.9328 24.7239C28.5847 24.7239 28.4673 24.7511 28.3602 24.8568ZM21.6092 31.4309C21.633 32.3721 21.5172 32.6801 21.057 32.9C20.7691 33.0376 20.7361 33.0381 13.7996 33.0204C7.21413 33.0036 6.82126 32.996 6.64598 32.8826C6.2674 32.6377 6.19801 32.4221 6.19774 31.4895L6.19747 30.6414L13.8938 30.6583L21.5901 30.6752L21.6092 31.4309ZM11.8215 31.5073C11.636 31.7096 11.6634 32.0294 11.8822 32.2151C12.0642 32.3697 12.0791 32.3709 13.7849 32.3709H15.5041L15.701 32.1765C15.9338 31.9467 15.9483 31.7872 15.7582 31.5486L15.6186 31.3734H13.7814C12.0259 31.3734 11.9388 31.3793 11.8215 31.5073Z" fill="white"/>
</svg>
