<svg width="103" height="88" viewBox="0 0 103 88" fill="none" xmlns="http://www.w3.org/2000/svg">
<path d="M0.0181578 52.2764C0.0181578 30.8356 15.2056 10.4278 37.4109 4.1931C53.3721 -0.283567 68.2357 2.5438 81.8396 12.059C82.008 12.1261 82.1583 12.2324 82.2783 12.3691C82.3983 12.5057 82.4846 12.669 82.5302 12.8456C82.5758 13.0222 82.5794 13.2071 82.5407 13.3853C82.502 13.5636 82.4221 13.7301 82.3074 13.8714C76.7291 25.8817 71.2168 37.91 65.7704 49.9566C65.2057 51.5317 64.7429 53.1421 64.3848 54.7776C64.3389 54.9726 64.2548 55.1565 64.1374 55.3183C64.02 55.4802 63.8716 55.6168 63.701 55.72C60.4215 56.9596 57.7325 59.4087 56.1793 62.571C55.9796 62.9155 55.6774 63.1881 55.3155 63.3503C48.3893 66.1483 42.4583 70.979 38.2927 77.2153C36.5939 79.8798 34.2637 82.0767 31.5119 83.6081C28.76 85.1394 25.6732 85.9571 22.5294 85.9873C18.4321 86.1299 14.3944 84.9686 10.9897 82.6684C7.58504 80.3682 4.98647 77.0459 3.56309 73.1736C1.03925 66.5075 -0.165021 59.4084 0.0181578 52.2764ZM29.6552 54.0889C29.6623 52.3383 29.1544 50.6249 28.1958 49.1647C27.2372 47.7046 25.8707 46.563 24.2687 45.8841C22.6667 45.2052 20.901 45.0193 19.1942 45.3498C17.4875 45.6804 15.9161 46.5127 14.6784 47.7416C13.4407 48.9706 12.5921 50.5412 12.2395 52.2553C11.887 53.9695 12.0463 55.7504 12.6975 57.3734C13.3486 58.9965 14.4624 60.389 15.8983 61.3752C17.3342 62.3615 19.028 62.8974 20.7659 62.9153C23.1033 62.9203 25.3481 61.9959 27.0126 60.3432C28.6771 58.6905 29.6268 56.4429 29.6552 54.0889ZM31.8686 19.798C29.6095 19.8861 27.4712 20.8484 25.8988 22.4845C24.3264 24.1206 23.441 26.3045 23.4271 28.5815C23.4132 30.8585 24.2718 33.0532 25.8241 34.7087C27.3764 36.3642 29.5028 37.3529 31.7606 37.469C32.9454 37.5299 34.1302 37.3484 35.2434 36.9355C36.3566 36.5225 37.3752 35.8866 38.2377 35.0662C39.1002 34.2458 39.7887 33.2578 40.2617 32.162C40.7346 31.0662 40.9822 29.8852 40.9895 28.6904C40.9968 27.4955 40.7637 26.3116 40.3041 25.21C39.8446 24.1084 39.1682 23.112 38.3158 22.2809C37.4634 21.4499 36.4527 20.8014 35.3446 20.3747C34.2365 19.9479 33.054 19.7518 31.8686 19.798ZM49.4313 20.8311C49.4313 21.9925 49.6584 23.1427 50.0998 24.2157C50.5411 25.2888 51.1879 26.2638 52.0033 27.0851C52.8187 27.9064 53.7868 28.5579 54.8522 29.0024C55.9176 29.4469 57.0595 29.6756 58.2127 29.6756C59.3659 29.6756 60.5077 29.4469 61.5732 29.0024C62.6386 28.5579 63.6066 27.9064 64.422 27.0851C65.2375 26.2638 65.8843 25.2888 66.3256 24.2157C66.7669 23.1427 66.994 21.9925 66.994 20.8311C66.994 18.4853 66.0689 16.2357 64.422 14.577C62.7752 12.9183 60.5416 11.9865 58.2127 11.9865C55.8837 11.9865 53.6501 12.9183 52.0033 14.577C50.3565 16.2357 49.4313 18.4853 49.4313 20.8311Z" fill="#C63127"/>
<path d="M74.5517 61.5755C75.6639 62.519 76.5293 63.7229 77.072 65.0817C77.6148 66.4404 77.8183 67.9125 77.6647 69.3689C77.493 70.8364 77.0602 72.2607 76.3871 73.5737C74.7789 76.8186 72.4306 79.6336 69.5343 81.7884C66.638 83.9432 63.2762 85.3763 59.7241 85.9706C59.485 85.9983 59.2435 85.9983 59.0043 85.9706C58.8785 85.9797 58.7523 85.9797 58.6265 85.9706C58.6265 85.8619 58.6265 85.7894 58.6265 85.735C59.8115 82.2866 59.9802 78.5665 59.1123 75.0236C58.3961 71.9381 58.5456 68.7127 59.5442 65.7078C60.257 63.6064 61.6903 61.8297 63.5867 60.6969C65.4831 59.5642 67.7184 59.1495 69.8911 59.5275H70.3409C70.3115 59.4142 70.2693 59.3048 70.215 59.2013C69.4388 58.2039 68.9705 56.999 68.8681 55.736C68.7657 54.473 69.0338 53.2075 69.6392 52.0966C75.2535 39.8809 80.8558 27.6652 86.4461 15.4496C88.4255 11.1119 90.4109 6.78623 92.4023 2.47268C92.7359 1.66833 93.3199 0.994848 94.0663 0.553586C94.8127 0.112324 95.6812 -0.0728553 96.5411 0.0259168C97.355 0.0699972 98.1329 0.377959 98.7588 0.90384C99.3847 1.42972 99.825 2.14533 100.014 2.94391C100.189 3.95058 100.109 4.98562 99.7801 5.95251C95.8813 16.827 91.9284 27.7015 87.9217 38.576C85.7983 44.3032 83.6629 50.0788 81.5156 55.9027C80.004 60.035 78.9424 60.9049 74.5517 61.5755Z" fill="#C63127"/>
<path d="M96.3256 28.2656C99.9245 34.3735 102.3 40.5719 100.23 47.6585C99.4163 50.7478 97.8519 53.5846 95.6781 55.9132C93.5044 58.2419 90.7895 59.9892 87.7782 60.9978C86.4286 61.4872 84.989 61.7228 83.4595 62.1215C85.8535 57.0699 87.9095 51.8627 89.6136 46.5348C91.773 40.8619 93.7884 35.1347 95.8577 29.4437C96.0017 29.0993 96.1457 28.7187 96.3256 28.2656Z" fill="#C63127"/>
<path d="M2.01816 54.2764C2.01816 32.8356 17.2056 12.4278 39.4109 6.1931C55.3721 1.71643 70.2357 4.5438 83.8396 14.059C84.008 14.1261 84.1583 14.2324 84.2783 14.3691C84.3983 14.5057 84.4846 14.669 84.5302 14.8456C84.5758 15.0222 84.5794 15.2071 84.5407 15.3853C84.502 15.5636 84.4221 15.7301 84.3074 15.8714C78.7291 27.8817 73.2168 39.91 67.7704 51.9566C67.2057 53.5317 66.7429 55.1421 66.3848 56.7776C66.3389 56.9726 66.2548 57.1565 66.1374 57.3183C66.02 57.4802 65.8716 57.6168 65.701 57.72C62.4215 58.9596 59.7325 61.4087 58.1793 64.571C57.9796 64.9155 57.6774 65.1881 57.3155 65.3503C50.3893 68.1483 44.4583 72.979 40.2927 79.2153C38.5939 81.8798 36.2637 84.0767 33.5119 85.6081C30.76 87.1394 27.6732 87.9571 24.5294 87.9873C20.4321 88.1299 16.3944 86.9686 12.9897 84.6684C9.58504 82.3682 6.98647 79.0459 5.56309 75.1736C3.03925 68.5075 1.83498 61.4084 2.01816 54.2764ZM31.6552 56.0889C31.6623 54.3383 31.1544 52.6249 30.1958 51.1647C29.2372 49.7046 27.8707 48.563 26.2687 47.8841C24.6667 47.2052 22.901 47.0193 21.1942 47.3498C19.4875 47.6804 17.9161 48.5127 16.6784 49.7416C15.4407 50.9706 14.5921 52.5412 14.2395 54.2553C13.887 55.9695 14.0463 57.7504 14.6975 59.3734C15.3486 60.9965 16.4624 62.389 17.8983 63.3752C19.3342 64.3615 21.028 64.8974 22.7659 64.9153C25.1033 64.9203 27.3481 63.9959 29.0126 62.3432C30.6771 60.6905 31.6268 58.4429 31.6552 56.0889ZM33.8686 21.798C31.6095 21.8861 29.4712 22.8484 27.8988 24.4845C26.3264 26.1206 25.441 28.3045 25.4271 30.5815C25.4132 32.8585 26.2718 35.0532 27.8241 36.7087C29.3764 38.3642 31.5028 39.3529 33.7606 39.469C34.9454 39.5299 36.1302 39.3484 37.2434 38.9355C38.3566 38.5225 39.3752 37.8866 40.2377 37.0662C41.1002 36.2458 41.7887 35.2578 42.2617 34.162C42.7346 33.0662 42.9822 31.8852 42.9895 30.6904C42.9968 29.4955 42.7637 28.3116 42.3041 27.21C41.8446 26.1084 41.1682 25.112 40.3158 24.2809C39.4634 23.4499 38.4527 22.8014 37.3446 22.3747C36.2365 21.9479 35.054 21.7518 33.8686 21.798ZM51.4313 22.8311C51.4313 23.9925 51.6584 25.1427 52.0998 26.2157C52.5411 27.2888 53.1879 28.2638 54.0033 29.0851C54.8187 29.9064 55.7868 30.5579 56.8522 31.0024C57.9176 31.4469 59.0595 31.6756 60.2127 31.6756C61.3659 31.6756 62.5077 31.4469 63.5732 31.0024C64.6386 30.5579 65.6066 29.9064 66.422 29.0851C67.2375 28.2638 67.8843 27.2888 68.3256 26.2157C68.7669 25.1427 68.994 23.9925 68.994 22.8311C68.994 20.4853 68.0689 18.2357 66.422 16.577C64.7752 14.9183 62.5416 13.9865 60.2127 13.9865C57.8837 13.9865 55.6501 14.9183 54.0033 16.577C52.3565 18.2357 51.4313 20.4853 51.4313 22.8311Z" fill="url(#paint0_linear_1515_471)"/>
<path d="M76.5517 63.5755C77.6639 64.519 78.5293 65.7229 79.072 67.0817C79.6148 68.4404 79.8183 69.9125 79.6647 71.3689C79.493 72.8364 79.0602 74.2607 78.3871 75.5737C76.7789 78.8186 74.4306 81.6336 71.5343 83.7884C68.638 85.9432 65.2762 87.3763 61.7241 87.9706C61.485 87.9983 61.2435 87.9983 61.0043 87.9706C60.8785 87.9797 60.7523 87.9797 60.6265 87.9706C60.6265 87.8619 60.6265 87.7894 60.6265 87.735C61.8115 84.2866 61.9802 80.5665 61.1123 77.0236C60.3961 73.9381 60.5456 70.7127 61.5442 67.7078C62.257 65.6064 63.6903 63.8297 65.5867 62.6969C67.4831 61.5642 69.7184 61.1495 71.8911 61.5275H72.3409C72.3115 61.4142 72.2693 61.3048 72.215 61.2013C71.4388 60.2039 70.9705 58.999 70.8681 57.736C70.7657 56.473 71.0338 55.2075 71.6392 54.0966C77.2535 41.8809 82.8558 29.6652 88.4461 17.4496C90.4255 13.1119 92.4109 8.78623 94.4023 4.47268C94.7359 3.66833 95.3199 2.99485 96.0663 2.55359C96.8127 2.11232 97.6812 1.92714 98.5411 2.02592C99.355 2.07 100.133 2.37796 100.759 2.90384C101.385 3.42972 101.825 4.14533 102.014 4.94391C102.189 5.95058 102.109 6.98562 101.78 7.95251C97.8813 18.827 93.9284 29.7015 89.9217 40.576C87.7983 46.3032 85.6629 52.0788 83.5156 57.9027C82.004 62.035 80.9424 62.9049 76.5517 63.5755Z" fill="url(#paint1_linear_1515_471)"/>
<path d="M98.3256 30.2656C101.925 36.3735 104.3 42.5719 102.23 49.6585C101.416 52.7478 99.8519 55.5846 97.6781 57.9132C95.5044 60.2419 92.7895 61.9892 89.7782 62.9978C88.4286 63.4872 86.989 63.7228 85.4595 64.1215C87.8535 59.0699 89.9095 53.8627 91.6136 48.5348C93.773 42.8619 95.7884 37.1347 97.8577 31.4437C98.0017 31.0993 98.1457 30.7187 98.3256 30.2656Z" fill="url(#paint2_linear_1515_471)"/>
<defs>
<linearGradient id="paint0_linear_1515_471" x1="2.8175" y1="21.6741" x2="75.2902" y2="55.174" gradientUnits="userSpaceOnUse">
<stop stop-color="white" stop-opacity="0.66"/>
<stop offset="1" stop-color="#CECECE" stop-opacity="0"/>
</linearGradient>
<linearGradient id="paint1_linear_1515_471" x1="61.0371" y1="19.9984" x2="103.067" y2="29.5186" gradientUnits="userSpaceOnUse">
<stop stop-color="white" stop-opacity="0.66"/>
<stop offset="1" stop-color="#CECECE" stop-opacity="0"/>
</linearGradient>
<linearGradient id="paint2_linear_1515_471" x1="85.6331" y1="37.3518" x2="103.274" y2="41.6439" gradientUnits="userSpaceOnUse">
<stop stop-color="white" stop-opacity="0.66"/>
<stop offset="1" stop-color="#CECECE" stop-opacity="0"/>
</linearGradient>
</defs>
</svg>
