<svg width="50" height="42" viewBox="0 0 50 42" fill="none" xmlns="http://www.w3.org/2000/svg">
<path fill-rule="evenodd" clip-rule="evenodd" d="M4.20459 0.121208C4.07324 0.187445 3.88584 0.37789 3.78809 0.544504C3.61572 0.838536 3.61875 1.06069 3.89014 8.03369C4.04404 11.9861 4.15186 15.2528 4.12998 15.2929C4.10801 15.3329 3.31924 15.3658 2.37705 15.3658H0.664062L0.332031 15.6965C0.144336 15.8834 0 16.1257 0 16.2539C0 16.6136 4.3874 41.063 4.50439 41.355C4.56221 41.4996 4.72598 41.6965 4.86826 41.7927C5.11484 41.9595 6.0459 41.9689 24.8186 41.993C40.4465 42.013 44.5859 41.9929 44.8775 41.8957C45.0797 41.8283 45.3263 41.6638 45.4256 41.53C45.5629 41.3452 46.1331 38.3122 47.803 28.8856C49.0113 22.0649 50 16.3814 50 16.2558C50 16.1255 49.8572 15.885 49.668 15.6965L49.3359 15.3658H47.767H46.1979L46.1703 10.2351C46.1407 4.76745 46.151 4.88193 45.6643 4.5595C45.493 4.44608 43.7975 4.41545 35.4347 4.37489L25.4104 4.32625L23.3086 2.30626C22.1525 1.19521 21.0825 0.221585 20.9306 0.142704C20.6935 0.0195664 19.5048 -0.000664565 12.5488 1.62878e-05C6.30322 0.000697141 4.38857 0.0284174 4.20459 0.121208ZM22.3053 4.21304C24.0532 5.88881 24.6454 6.40033 24.8955 6.45013C25.0738 6.48563 29.4773 6.51471 34.6812 6.51471H44.1426L44.1172 10.9159L44.0918 15.3172L43.1885 15.3452L42.2852 15.3731L42.2846 12.5245C42.2843 10.8722 42.2419 9.52447 42.1836 9.31545C42.1283 9.11732 41.9688 8.8657 41.8292 8.75618C41.5756 8.55756 41.55 8.55727 25.0264 8.55727C8.51758 8.55727 8.47676 8.55776 8.19717 8.75598C8.03486 8.87114 7.87471 9.10633 7.8165 9.31525C7.75811 9.52447 7.71572 10.8699 7.71543 12.5208L7.71484 15.3658H6.98242C6.57959 15.3658 6.24961 15.3548 6.24912 15.3415C6.24863 15.3282 6.13926 12.6035 6.00605 9.28676C5.87285 5.97003 5.76338 2.98283 5.76279 2.64844L5.76172 2.04053H12.9005H20.0394L22.3053 4.21304ZM40.1367 12.9828V15.3658H25H9.86328V12.9828V10.5998H25H40.1367V12.9828ZM47.706 17.6272C47.6776 17.7476 46.7982 22.7044 45.7519 28.6424C44.7055 34.5804 43.8262 39.5373 43.7978 39.6577L43.7463 39.8765H25.0226H6.29883L4.93828 32.2655C4.18994 28.0795 3.28623 23.0242 2.92998 21.0315L2.28223 17.4084H25.0199H47.7576L47.706 17.6272ZM22.9967 21.4865C20.4208 22.0835 18.1444 23.4648 15.6129 25.9671C14.0464 27.5155 13.4766 28.2433 13.4766 28.6954C13.4766 29.0407 13.865 29.5967 14.8479 30.6582C18.117 34.1888 21.6612 36.0827 25 36.0831C28.2854 36.0834 31.5879 34.3653 34.8809 30.9426C36.0311 29.747 36.5234 29.0728 36.5234 28.6934C36.5234 28.3372 36.102 27.7214 35.1593 26.7005C32.6739 24.0088 30.0864 22.3067 27.3631 21.5719C26.2786 21.2793 24.0767 21.2362 22.9967 21.4865ZM26.709 23.5315C28.8354 24.0447 30.9005 25.3349 33.0756 27.5089L34.1797 28.6125L33.9882 28.8803C33.8829 29.0276 33.2977 29.6252 32.6878 30.2083C29.3945 33.3569 26.1794 34.5729 23.1934 33.7991C21.0639 33.2473 18.7898 31.7774 16.704 29.6044L15.8075 28.6704L16.5219 27.9317C18.891 25.4822 21.0528 24.0707 23.2641 23.5297C24.2453 23.2896 25.7101 23.2903 26.709 23.5315ZM23.8281 23.9148C22.8588 24.1784 22.1806 24.5708 21.4987 25.2629C19.5658 27.2245 19.5815 30.2037 21.535 32.1493C22.6565 33.2664 24.228 33.7908 25.7457 33.5545C28.3767 33.1448 30.2922 30.5849 29.8944 28.0102C29.5817 25.9858 28.1021 24.3924 26.068 23.8891C25.2583 23.6888 24.633 23.696 23.8281 23.9148ZM26.2213 26.1028C27.9643 26.8925 28.4183 29.1698 27.1184 30.6028C26.5491 31.2304 25.9761 31.4631 25 31.4631C24.1229 31.4631 23.5933 31.2814 23.0596 30.7975C21.9058 29.7513 21.8446 27.833 22.9296 26.7132C23.8136 25.8009 25.0494 25.5717 26.2213 26.1028Z" fill="#9549D1"/>
</svg>
