<svg width="50" height="50" viewBox="0 0 50 50" fill="none" xmlns="http://www.w3.org/2000/svg">
<path fill-rule="evenodd" clip-rule="evenodd" d="M0 4.49219V8.98438H1.46484H2.92969V5.95703V2.92969H6.00586H9.08203V1.46484V0H4.54102H0V4.49219ZM40.918 1.46484V2.92969H43.9941H47.0703V5.95703V8.98438H48.5352H50V4.49219V0H45.459H40.918V1.46484ZM23.0957 11.8772C18.4554 12.375 14.8098 13.6467 11.084 16.0673C7.89609 18.1385 4.66143 21.2974 2.76201 24.1943L2.23379 25L2.76201 25.8057C4.13682 27.9024 6.76367 30.7146 8.88877 32.3645C12.8815 35.4644 16.9135 37.2317 21.6499 37.958C22.9921 38.1639 26.7781 38.1899 28.125 38.0026C32.8688 37.3429 36.9832 35.5827 40.993 32.4975C42.2277 31.5474 44.9079 28.9146 45.8419 27.7344C46.2032 27.2778 46.7857 26.4759 47.1364 25.9521L47.774 25L47.1364 24.0479C46.1044 22.5066 45.2814 21.5313 43.613 19.8723C39.1877 15.4715 34.2108 12.9015 28.4668 12.051C27.5179 11.9104 23.8824 11.7929 23.0957 11.8772ZM28.2227 14.9821C33.2141 15.7199 37.7346 18.0971 41.6992 22.069C42.8168 23.1887 44.1895 24.8042 44.1895 25C44.1895 25.1958 42.8168 26.8113 41.6992 27.931C37.6511 31.9865 33.107 34.3354 27.8809 35.0738C26.7499 35.2336 23.3525 35.2364 22.2168 35.0785C18.1111 34.5077 14.5895 33.0068 10.9985 30.2973C9.89824 29.4671 7.17061 26.8017 6.30205 25.708L5.73975 25L6.30205 24.292C7.17061 23.1983 9.89824 20.5329 10.9985 19.7027C14.9663 16.7089 18.5039 15.3104 23.3887 14.8049C24.1245 14.7287 27.2944 14.8449 28.2227 14.9821ZM23.5996 16.3066C20.2005 16.9244 17.5544 19.2883 16.5409 22.6122C16.2997 23.4032 16.2743 23.6302 16.2743 25C16.2743 26.3698 16.2997 26.5968 16.5409 27.3878C17.4525 30.3778 19.6222 32.5475 22.6122 33.4591C23.4032 33.7003 23.6302 33.7257 25 33.7257C26.3698 33.7257 26.5968 33.7003 27.3878 33.4591C30.3778 32.5475 32.5475 30.3778 33.4591 27.3878C33.7003 26.5968 33.7257 26.3698 33.7257 25C33.7257 23.6302 33.7003 23.4032 33.4591 22.6122C32.5463 19.6185 30.3468 17.4221 27.3878 16.5497C26.7018 16.3475 26.251 16.2843 25.293 16.2563C24.6216 16.2368 23.8596 16.2594 23.5996 16.3066ZM26.1295 19.2465C27.8196 19.5553 29.525 20.886 30.2667 22.475C31.0645 24.184 31.0645 25.816 30.2667 27.525C29.7287 28.6775 28.6775 29.7287 27.525 30.2667C26.6447 30.6776 25.8704 30.8594 25 30.8594C24.1296 30.8594 23.3553 30.6776 22.475 30.2667C21.3225 29.7287 20.2713 28.6775 19.7333 27.525C19.1623 26.3019 19.0104 25.1621 19.2465 23.8705C19.5552 22.1809 20.8846 20.4771 22.4763 19.7313C23.6852 19.1647 24.8419 19.0112 26.1295 19.2465ZM0 45.5078V50H4.54102H9.08203V48.5352V47.0703H6.00586H2.92969V44.043V41.0156H1.46484H0V45.5078ZM47.0703 44.043V47.0703H43.9941H40.918V48.5352V50H45.459H50V45.5078V41.0156H48.5352H47.0703V44.043Z" fill="#56A409"/>
</svg>
