<svg width="29" height="50" viewBox="0 0 29 50" fill="none" xmlns="http://www.w3.org/2000/svg">
<path fill-rule="evenodd" clip-rule="evenodd" d="M5.05161 0.147842C3.26171 0.536091 1.55069 1.86975 0.723678 3.52148C-0.0497654 5.06641 0.000674286 3.56837 0.000674286 25.0013C0.000674286 46.4355 -0.0498666 44.9367 0.724182 46.481C1.45808 47.9453 2.77234 49.0765 4.45249 49.69L5.19244 49.9602L14.1876 49.9885C24.3129 50.0204 24.0157 50.0388 25.5141 49.2847C26.9861 48.5439 28.1175 47.2323 28.7297 45.5568L29 44.8171V25.0517V5.28625L28.7763 4.58034C28.2562 2.93961 27.0149 1.46759 25.5197 0.71872C24.0369 -0.0238954 24.3234 -0.00534011 14.4734 0.00171897C7.38384 0.00676117 5.57285 0.0348966 5.05161 0.147842ZM23.75 1.75983C25.5537 2.22946 26.9953 3.74525 27.3334 5.52737C27.3901 5.82586 27.4364 6.15472 27.4364 6.25798C27.4364 6.44041 27.0538 6.44595 14.5238 6.44595H1.61122V6.1646C1.61122 6.00991 1.67891 5.62337 1.76173 5.30571C2.21155 3.57926 3.54901 2.22321 5.25418 1.76488C6.09087 1.53989 22.8879 1.53536 23.75 1.75983ZM11.5433 3.46652C11.3871 3.62252 11.2956 3.82925 11.2956 4.0257C11.2956 4.22214 11.3871 4.42887 11.5433 4.58488L11.7909 4.83245H14.5238H17.2567L17.5043 4.58488C17.6604 4.42887 17.7519 4.22214 17.7519 4.0257C17.7519 3.82925 17.6604 3.62252 17.5043 3.46652L17.2567 3.21895H14.5238H11.7909L11.5433 3.46652ZM27.4364 23.3878V38.716H14.5238H1.61122V23.3878V8.05946H14.5238H27.4364V23.3878ZM27.4364 42.131C27.4364 44.2451 27.3557 44.7725 26.8856 45.7309C26.2591 47.0078 24.917 48.028 23.5131 48.2941C22.7746 48.4342 6.27296 48.4342 5.53452 48.2941C4.21895 48.0447 2.84911 47.0473 2.23162 45.889C1.70806 44.9072 1.61122 44.335 1.61122 42.2244V40.3296H14.5238H27.4364V42.131ZM13.7168 42.0749C13.2216 42.2309 12.3772 43.105 12.2254 43.6187C11.9459 44.5642 12.1429 45.318 12.8559 46.0307C13.3783 46.5529 13.8893 46.7836 14.5238 46.7836C15.1583 46.7836 15.6693 46.5529 16.1917 46.0307C17.1775 45.0452 17.207 43.7916 16.2689 42.7486C15.616 42.0227 14.6728 41.7736 13.7168 42.0749ZM15.0832 43.8041C15.2393 43.9601 15.3308 44.1669 15.3308 44.3633C15.3308 44.5598 15.2393 44.7665 15.0832 44.9225C14.5828 45.4228 13.7168 45.0683 13.7168 44.3633C13.7168 43.9487 14.1091 43.5566 14.5238 43.5566C14.7203 43.5566 14.9271 43.648 15.0832 43.8041Z" fill="#0073A8"/>
</svg>
