<svg width="50" height="50" viewBox="0 0 50 50" fill="none" xmlns="http://www.w3.org/2000/svg">
<path fill-rule="evenodd" clip-rule="evenodd" d="M23.1555 0.0481891C19.5689 0.404252 16.809 1.17173 13.8722 2.62952C7.34717 5.86851 2.60626 11.7323 0.767909 18.8375C-0.138162 22.339 -0.247692 26.3781 0.467385 29.9175C2.00736 37.5409 6.98963 44.025 13.9139 47.4172C15.8314 48.3566 16.9813 48.7842 18.8951 49.2696C21.1218 49.8343 22.5298 50.0011 25.0625 50C28.089 49.9988 30.1216 49.6816 32.8372 48.7867C39.2578 46.6707 44.4539 42.1362 47.4671 36.0195C48.7073 33.5019 49.4521 31.0479 49.8715 28.0983C50.0642 26.7426 50.035 23.1827 49.8185 21.6439C49.6057 20.1308 49.0304 17.8028 48.5363 16.4546C48.0277 15.0667 46.7554 12.5267 45.9679 11.3268C43.5993 7.71787 40.2419 4.70234 36.4338 2.7633C33.548 1.29407 30.7622 0.465373 27.5697 0.126521C26.373 -0.000511614 24.0592 -0.0415845 23.1555 0.0481891ZM26.9695 3.41118C34.995 4.14394 42.0029 9.32226 45.094 16.804C46.3383 19.8156 46.9232 23.6219 46.634 26.8269C45.9419 34.5001 41.388 41.1529 34.5487 44.4822C32.4256 45.5157 30.4557 46.1343 28.1431 46.494C26.6044 46.7333 23.4331 46.7364 21.9339 46.4999C17.2394 45.7597 13.2662 43.8027 9.94431 40.5943C3.16262 34.0445 1.39575 23.9591 5.545 15.483C6.70143 13.1207 8.07603 11.2398 10.0005 9.38621C14.5313 5.02241 20.7261 2.84115 26.9695 3.41118ZM17.4825 17.61C17.0686 17.8916 16.7961 18.2615 16.7157 18.6505C16.6807 18.8197 16.6742 20.0905 16.7011 21.4746C16.7489 23.9366 16.7551 23.9981 16.9848 24.3202C17.2529 24.6961 17.8707 25.0125 18.343 25.0156C18.7475 25.0184 19.358 24.712 19.6253 24.3721C19.9892 23.9095 20.0398 23.4536 20.0078 20.9261C19.9782 18.5913 19.9699 18.5028 19.7473 18.1448C19.2958 17.4186 18.1583 17.15 17.4825 17.61ZM31.0769 17.4606C30.7156 17.5963 30.3551 17.9403 30.1875 18.3093C30.0255 18.666 30.0055 18.9796 30.0055 21.155C30.0055 23.8774 30.0535 24.1286 30.6747 24.6513C31.4301 25.2868 32.679 25.0229 33.1337 24.1317C33.3111 23.7839 33.3262 23.5475 33.3262 21.1245C33.3262 18.551 33.3214 18.4875 33.1038 18.1647C32.7484 17.6371 32.301 17.3887 31.7226 17.3977C31.4482 17.4019 31.1576 17.4302 31.0769 17.4606ZM15.6049 31.6665C14.886 31.8833 14.4518 32.4894 14.4518 33.2765C14.4518 33.8657 14.6222 34.1795 15.2481 34.7422C16.5515 35.914 18.8509 37.1737 20.6767 37.7161C22.337 38.2092 23.537 38.35 25.5515 38.2877C27.9213 38.2142 29.3935 37.8678 31.4353 36.9033C33.076 36.1281 34.9254 34.7963 35.2184 34.1788C35.6784 33.2096 35.0968 32.0414 34.0435 31.819C33.4745 31.6988 33.0772 31.859 32.086 32.6085C30.5332 33.7827 28.8313 34.5283 26.9599 34.8544C25.5961 35.0919 23.4362 35.0034 22.1371 34.6568C20.3885 34.1903 18.7629 33.3589 17.515 32.2929C16.7417 31.6322 16.2518 31.4715 15.6049 31.6665Z" fill="#3734DF"/>
</svg>
