<svg width="71" height="41" viewBox="0 0 71 41" fill="none" xmlns="http://www.w3.org/2000/svg">
<path fill-rule="evenodd" clip-rule="evenodd" d="M29.9841 0.339335C29.1734 0.802836 28.695 1.76781 28.6004 3.13043L28.5284 4.16542H19.9789C10.4107 4.16542 10.6795 4.13818 8.59932 5.31512C6.9408 6.2535 5.39309 8.04357 4.59891 9.94212C4.00498 11.3621 3.61102 12.966 3.60755 13.9786L3.60547 14.5794L2.87744 14.5829C1.67169 14.5887 0.517385 15.4216 0.147547 16.5524C0.053666 16.8394 0 19.0135 0 22.5255C0 27.1474 0.0349453 28.1444 0.214664 28.6411C0.657443 29.8656 1.35718 30.4046 2.69079 30.5484L3.57094 30.6434L3.66108 31.6605C3.86589 33.9701 4.77836 36.1106 6.31429 37.8851C7.42172 39.1648 8.39908 39.8853 9.86858 40.5055L10.8857 40.9347L19.8116 40.9814C29.6519 41.0329 29.49 41.0471 30.5471 40.0405C31.316 39.3082 31.756 38.3217 31.9152 36.974C32.0709 35.655 32.2714 35.2073 32.9074 34.7594C33.2964 34.4854 33.6136 34.4471 35.5 34.4471C37.3864 34.4471 37.7036 34.4854 38.0926 34.7594C38.7286 35.2073 38.9291 35.655 39.0848 36.974C39.244 38.3217 39.684 39.3082 40.4529 40.0405C41.5102 41.0473 41.3477 41.033 51.1884 40.9803L60.1143 40.9324L61.1314 40.5043C62.5995 39.8862 63.5774 39.1656 64.6857 37.8851C66.2216 36.1106 67.1341 33.9701 67.3389 31.6605L67.4291 30.6434L68.3092 30.5484C69.6428 30.4046 70.3426 29.8656 70.7853 28.6411C70.9651 28.1444 71 27.1474 71 22.5255C71 19.0135 70.9463 16.8394 70.8525 16.5524C70.4826 15.4216 69.3283 14.5887 68.1226 14.5829C67.3948 14.5794 67.3945 14.5792 67.3922 14.0587C67.3873 13.0144 66.9685 11.2836 66.3966 9.9434C65.5732 8.01425 64.0471 6.24661 62.4007 5.31512C60.3205 4.13818 60.5893 4.16542 51.0211 4.16542H42.4716L42.3996 3.13043C42.3042 1.75659 41.8236 0.793382 41.005 0.335649C40.4301 0.0140979 40.1964 -0.000158926 35.4908 1.28892e-06C30.7659 0.000161504 30.5544 0.0131383 29.9841 0.339335ZM40.0853 2.40867C40.2951 2.53844 40.3535 2.74752 40.3535 3.36995V4.16542H35.5H30.6465V3.37236C30.6465 2.78597 30.7097 2.53668 30.8892 2.41588C31.2214 2.19238 39.7245 2.18565 40.0853 2.40867ZM59.6458 6.63881C62.1803 7.25964 64.2823 9.49319 65.0766 12.4097C65.3787 13.5189 65.3838 13.6908 65.3838 22.5901C65.3838 31.4894 65.3787 31.6613 65.0766 32.7705C64.3476 35.4473 62.5772 37.4905 60.2529 38.3379C59.296 38.6867 59.1631 38.6917 50.8173 38.6917C42.9636 38.6917 42.3254 38.6713 41.9789 38.409C41.4083 37.9773 41.1704 37.4394 41.0487 36.3053C40.8555 34.5061 40.1606 33.3307 38.7896 32.4843C38.2395 32.1447 38.041 32.1229 35.5 32.1229C32.959 32.1229 32.7605 32.1447 32.2104 32.4843C30.8394 33.3307 30.1445 34.5061 29.9513 36.3053C29.8296 37.4394 29.5917 37.9773 29.0211 38.409C28.6746 38.6713 28.0364 38.6917 20.1827 38.6917C11.8369 38.6917 11.704 38.6867 10.7471 38.3379C8.43278 37.4942 6.64932 35.4356 5.92337 32.7705C5.62134 31.6613 5.61621 31.4894 5.61621 22.5901C5.61621 14.2565 5.63646 13.4622 5.87109 12.5836C6.28835 11.0215 6.77995 10.0777 7.77519 8.92764C8.79568 7.74862 10.167 6.87817 11.4499 6.59507C11.8589 6.50487 21.4959 6.43822 35.4307 6.42909C54.9364 6.41643 58.877 6.45056 59.6458 6.63881ZM12.3623 8.49281C10.2458 8.85682 8.75269 10.1259 7.84924 12.3288C7.43129 13.3476 7.41756 13.4531 7.37221 15.9933C7.31952 18.9335 7.39856 19.2256 8.24598 19.2256C9.1418 19.2256 9.21336 19.0325 9.29684 16.3943C9.36146 14.3485 9.41651 13.9108 9.69219 13.2531C10.3152 11.7658 11.2843 11.0132 12.9061 10.757C13.55 10.6552 13.8435 10.5251 14.0303 10.2585C14.3492 9.80337 14.3531 9.26313 14.0405 8.83615C13.735 8.41912 13.3035 8.33084 12.3623 8.49281ZM45.5085 11.105C45.3427 11.3089 45.207 11.6414 45.207 11.8435C45.207 12.2974 48.3405 21.1208 48.6394 21.5086C48.929 21.8844 49.8072 21.8805 50.1035 21.5022C50.4404 21.0722 53.5273 12.3591 53.5273 11.8384C53.5273 11.3039 53.0528 10.7342 52.6075 10.7342C51.9975 10.7342 51.6327 11.3993 50.5247 14.5303C49.9262 16.2217 49.3928 17.5555 49.3395 17.4943C49.2861 17.4331 48.7419 15.9867 48.1302 14.2801C47.5186 12.5735 46.907 11.0798 46.7713 10.9608C46.3935 10.6298 45.844 10.6924 45.5085 11.105ZM55.2176 11.0609C54.9179 11.3832 54.9141 11.4518 54.9141 16.3363V21.2852L55.2795 21.6171C55.4804 21.7998 55.7528 21.9492 55.8848 21.9492C56.0168 21.9492 56.2891 21.7998 56.4901 21.6171C56.8431 21.2964 56.8555 21.2284 56.8555 19.6144V17.9439H57.2687C57.6422 17.9439 57.7883 18.1272 58.7844 19.845C59.3908 20.8907 59.9899 21.7919 60.1159 21.8477C60.5036 22.0196 60.8335 21.9616 61.1331 21.6689C61.704 21.1107 61.6434 20.7008 60.748 19.0654L59.9147 17.5433L60.4027 17.0808C61.8196 15.738 61.8759 13.2467 60.5233 11.745C59.7519 10.8887 59.2492 10.7361 57.1937 10.7352C55.7014 10.7344 55.4883 10.7695 55.2176 11.0609ZM59.1693 13.4857C59.5948 13.9476 59.5866 14.6428 59.1498 15.1473C58.8529 15.4905 58.6848 15.5407 57.8324 15.5407H56.8555V14.339V13.1374H57.852C58.6841 13.1374 58.9013 13.1948 59.1693 13.4857ZM3.60547 22.5901V28.1976H3.06215C2.007 28.1976 2.08008 28.614 2.08008 22.5997C2.08008 19.6277 2.12168 17.1481 2.17257 17.0895C2.22333 17.0307 2.56654 16.9826 2.93527 16.9826H3.60547V22.5901ZM68.8872 22.4993C68.9156 26.7419 68.8853 27.9639 68.7485 28.0641C68.6521 28.1348 68.308 28.1938 67.9839 28.1952L67.3945 28.1976V22.5818V16.9658L68.1226 17.0143L68.8506 17.0627L68.8872 22.4993ZM7.62695 21.3084C7.39107 21.5809 7.34961 21.8424 7.34961 23.059C7.34961 24.4231 7.36708 24.5053 7.72499 24.8305C8.16403 25.2295 8.67406 25.1593 9.04834 24.6484C9.23735 24.3901 9.29102 24.0199 9.29102 22.9729C9.29102 21.4428 9.06859 20.988 8.32031 20.988C8.08915 20.988 7.78102 21.1304 7.62695 21.3084Z" fill="#E71E96"/>
</svg>
