<svg width="50" height="50" viewBox="0 0 50 50" fill="none" xmlns="http://www.w3.org/2000/svg">
<path fill-rule="evenodd" clip-rule="evenodd" d="M23.5347 0.032632C22.7425 0.133079 21.2406 0.471454 20.5339 0.708599C19.5399 1.04219 18.0426 1.79632 17.105 2.43565C16.0992 3.12148 14.1329 5.1021 13.4883 6.07872C12.4758 7.61279 11.7331 9.37277 11.3507 11.1442C11.1063 12.2761 11.1063 15.5152 11.3507 16.6471C11.7941 18.7012 12.3849 19.9983 14.1452 22.7824C14.854 23.9033 15.4208 24.8594 15.405 24.907C15.3891 24.9546 13.5966 25.9969 11.4215 27.2232L7.46683 29.4527L3.73624 39.2622C1.68453 44.6574 0.00321448 49.1727 8.8809e-05 49.296C-0.00694395 49.5787 0.405254 50 0.688811 50C0.807 50 1.19361 49.8389 1.54798 49.642C3.00034 48.8348 12.2754 43.6112 12.554 43.4436L12.855 43.2623L18.8304 46.6312C22.1168 48.484 24.8937 50 25.0012 50C25.1085 50 27.863 48.4977 31.1222 46.6615C34.3814 44.8254 37.0954 43.324 37.1532 43.3251C37.211 43.3262 39.8953 44.8157 43.118 46.6351C46.3409 48.4545 49.0964 49.9604 49.2415 49.9817C49.5656 50.0293 50.0079 49.6294 49.9999 49.296C49.9969 49.1727 48.3156 44.6562 46.2637 39.2595L42.533 29.4472L38.5773 27.2174C36.4018 25.9911 34.6092 24.9501 34.5938 24.9041C34.5785 24.8582 35.1458 23.9033 35.8546 22.7824C37.6149 19.9983 38.2057 18.7012 38.6491 16.6471C38.8939 15.5134 38.8935 12.2762 38.6484 11.141C38.273 9.4012 37.5075 7.58778 36.5114 6.07872C35.8066 5.01074 33.8774 3.09393 32.7652 2.3564C31.2095 1.32487 29.5535 0.625154 27.7837 0.251701C26.9236 0.0702509 24.3034 -0.064884 23.5347 0.032632ZM27.6372 1.72021C31.9659 2.70738 35.4102 5.81461 36.8106 9.99587C37.2278 11.2416 37.4049 12.4037 37.4049 13.8956C37.4049 15.9331 37.0294 17.6164 36.1953 19.3186C35.7441 20.2394 25.8999 35.9181 25.505 36.3448C25.2387 36.6326 24.8659 36.6913 24.5984 36.4875C24.3825 36.3229 14.3033 20.3278 13.8411 19.4163C13.0142 17.7849 12.5949 15.9275 12.5949 13.8956C12.5949 11.2931 13.2663 9.07035 14.7136 6.88171C15.3834 5.86884 17.0516 4.2308 18.1411 3.51624C19.6448 2.53004 21.6164 1.78255 23.369 1.53407C24.3188 1.39942 26.6826 1.5025 27.6372 1.72021ZM23.7136 5.92776C22.351 6.1777 21.0331 6.7755 19.9631 7.62901C18.5061 8.79109 17.4191 10.5725 17.0969 12.3258C16.96 13.0708 16.96 14.7205 17.0969 15.4655C17.3217 16.6886 18.0131 18.0966 18.9267 19.1916C19.8001 20.2386 21.5532 21.3166 23.0463 21.7251C24.0207 21.9916 26.0786 21.971 27.079 21.6846C30.6739 20.6557 33.0081 17.5892 33.0081 13.8956C33.0081 10.2245 30.6675 7.12961 27.1307 6.12406C26.3293 5.8962 24.4683 5.7893 23.7136 5.92776ZM26.9046 7.59364C28.5777 8.11317 30.1078 9.40316 30.8446 10.9154C31.3832 12.0207 31.5443 12.707 31.5443 13.8956C31.5443 15.0843 31.3832 15.7705 30.8446 16.8758C30.5253 17.5313 30.2732 17.873 29.649 18.4967C28.2667 19.8779 26.919 20.4417 24.9999 20.4417C23.0808 20.4417 21.7331 19.8779 20.3507 18.4967C19.0545 17.2014 18.4555 15.7474 18.4555 13.8956C18.4555 12.7096 18.6172 12.0185 19.1482 10.9331C19.8149 9.57102 21.1897 8.29335 22.5349 7.78564C23.958 7.24862 25.5658 7.17797 26.9046 7.59364ZM23.8065 8.91753C22.104 9.33036 20.6239 10.7105 20.1146 12.3599C19.8505 13.2151 19.8505 14.5762 20.1146 15.4314C20.631 17.1037 22.1093 18.4676 23.8512 18.8783C26.4105 19.482 29.1108 17.9394 29.8852 15.4314C30.1492 14.5762 30.1492 13.2151 29.8852 12.3599C29.1081 9.84325 26.3739 8.29482 23.8065 8.91753ZM26.0885 10.4274C27.6482 10.9194 28.614 12.2458 28.614 13.8956C28.614 15.5455 27.6482 16.8718 26.0885 17.3639C25.3029 17.6118 24.6969 17.6118 23.9113 17.3639C22.7946 17.0117 21.9959 16.2482 21.5751 15.1312C21.2775 14.3413 21.3377 13.0349 21.7044 12.3218C22.2011 11.3559 22.9221 10.7351 23.9166 10.4167C24.6401 10.1851 25.3316 10.1886 26.0885 10.4274ZM14.844 29.5743C14.5203 31.0953 14.2554 32.402 14.2554 32.478C14.2554 32.7027 14.7153 33.0959 14.9781 33.0959C15.1118 33.0959 15.3297 32.997 15.4622 32.8761C15.6725 32.6843 15.7754 32.3108 16.2706 29.9447C16.5827 28.4535 16.8633 27.2332 16.8943 27.2332C16.9253 27.2332 18.3963 29.5264 20.1631 32.3292C23.02 36.8612 23.4217 37.4533 23.7939 37.6789L24.2123 37.9326L24.2153 42.9429L24.2185 47.953L23.901 47.789C23.6076 47.6373 13.7354 42.0813 13.7043 42.0504C13.6967 42.0428 14.0197 40.4976 14.4221 38.6166C15.0798 35.5428 15.1402 35.1721 15.0191 34.9538C14.8243 34.6025 14.4901 34.4604 14.1435 34.5812C13.9879 34.6355 13.8224 34.7522 13.7758 34.8406C13.7292 34.929 13.3755 36.4963 12.9898 38.3235C12.6041 40.1507 12.2685 41.7162 12.2442 41.8025C12.2034 41.9471 2.27069 47.6268 2.20212 47.5448C2.18532 47.5248 3.62675 43.6765 5.40525 38.9931L8.63896 30.4779L12.0088 28.5758C13.8622 27.5295 15.3908 26.704 15.4056 26.7413C15.4205 26.7785 15.1678 28.0533 14.844 29.5743ZM38.1863 28.6875L41.3608 30.4728L44.5946 38.9906C46.3732 43.6753 47.816 47.5233 47.801 47.5417C47.7858 47.5599 45.5274 46.3104 42.7823 44.7648C39.1048 42.6943 37.7783 41.9012 37.7428 41.7513C37.5821 41.0752 34.5723 26.8136 34.5723 26.7285C34.5723 26.6653 34.6585 26.679 34.792 26.7633C34.913 26.8398 36.4403 27.7057 38.1863 28.6875ZM34.7102 34.5372C35.5625 38.5544 36.2766 41.886 36.297 41.941C36.3245 42.0145 26.3666 47.7322 25.8635 47.9317C25.8182 47.9497 25.7827 45.7072 25.7844 42.9485L25.7875 37.9326L26.2057 37.6791C26.5776 37.4536 26.9797 36.8609 29.8357 32.3294C31.6022 29.5265 33.0729 27.2332 33.104 27.2332C33.135 27.2332 33.8578 30.52 34.7102 34.5372Z" fill="#FCB900"/>
</svg>
