<svg width="49" height="50" viewBox="0 0 49 50" fill="none" xmlns="http://www.w3.org/2000/svg">
<path fill-rule="evenodd" clip-rule="evenodd" d="M37.2103 0.060325C35.423 0.293194 34.1113 1.05247 33.3529 2.29338C32.8092 3.18295 32.7168 3.61552 32.6623 5.52375C32.6202 7.00239 32.5874 7.29117 32.4424 7.46018C31.9325 8.05462 31.8699 8.29106 31.8695 9.62402C31.8691 11.0631 31.9829 11.436 32.5778 11.9449C32.8207 12.1526 32.9777 12.4271 33.1654 12.9724C33.3063 13.3816 33.6106 14.0986 33.8417 14.5658C34.2557 15.403 34.2617 15.4296 34.2617 16.4124C34.2617 17.2394 34.2331 17.4347 34.0942 17.5575C34.0022 17.6391 32.9813 18.2381 31.8258 18.8887C29.359 20.2779 28.8018 20.7424 28.2799 21.8449C27.8561 22.7403 27.729 23.4651 27.7696 24.7553C27.7981 25.6614 27.8264 25.8023 28.0198 26.0028L28.2378 26.2287H38.3879H48.538L48.7691 25.95C48.9848 25.6898 49 25.5948 49 24.5062C49 22.6687 48.6716 21.7038 47.7036 20.6957C47.3148 20.2909 46.7226 19.9007 45.1092 18.9867C42.2053 17.3415 42.4922 17.6202 42.4922 16.4439C42.4922 15.4663 42.4946 15.4563 42.9603 14.4895C43.2177 13.9551 43.5036 13.272 43.5955 12.9716C43.7093 12.5994 43.9109 12.2611 44.2282 11.9096C44.4844 11.626 44.7369 11.2767 44.7893 11.1335C44.8418 10.9904 44.8848 10.3158 44.8848 9.63445C44.8848 8.3146 44.7759 7.89672 44.3207 7.46962C44.1338 7.29425 44.1191 7.17806 44.1191 5.87419C44.1191 4.21899 44.0113 3.50708 43.6364 2.68762C43.3075 1.96866 42.4704 1.09855 41.7361 0.712556C40.6702 0.151983 38.6933 -0.132822 37.2103 0.060325ZM40.1475 1.91682C41.1871 2.18117 42.0656 2.90817 42.3077 3.7044C42.3711 3.91313 42.4499 4.91055 42.4827 5.92097C42.5454 7.85214 42.6036 8.11797 43.0566 8.54329C43.2336 8.70953 43.2578 8.84339 43.2578 9.65729C43.2578 10.5743 43.2552 10.5843 42.9646 10.8072C42.5789 11.1032 42.3456 11.5092 42.0591 12.383C41.9296 12.7779 41.6081 13.5199 41.3445 14.0318L40.8652 14.9625L40.8673 16.3256C40.8697 17.8713 40.9787 18.2669 41.5443 18.7818C41.7239 18.9451 42.8533 19.6341 44.0541 20.3128C45.8319 21.3178 46.316 21.6377 46.6607 22.0356C47.1413 22.5901 47.373 23.2495 47.373 24.0621V24.5902H38.3641H29.3551L29.4021 23.9199C29.4624 23.0587 29.7759 22.3115 30.2769 21.8347C30.4947 21.6275 31.615 20.9275 32.7665 20.2792C35.8651 18.5344 35.8887 18.5049 35.8887 16.3558V14.9655L35.3842 13.9438C35.1068 13.3817 34.7571 12.5687 34.6071 12.137C34.4002 11.5416 34.2332 11.25 33.9153 10.9294L33.4961 10.5066V9.66136C33.4961 8.90337 33.521 8.7854 33.7367 8.51936C34.2311 7.90973 34.2992 7.58809 34.3234 5.75026C34.343 4.25712 34.3715 3.98006 34.5482 3.56557C35.0157 2.46845 35.9325 1.91642 37.5635 1.75009C38.4076 1.66399 39.4064 1.72844 40.1475 1.91682ZM21.4854 6.9717C19.8586 7.26733 17.7168 8.14399 16.4659 9.02631C13.609 11.0414 11.4494 14.3743 10.8939 17.6258C10.8321 17.988 10.7681 18.302 10.7521 18.3237C10.7359 18.3453 10.3986 18.0437 10.0026 17.6534C9.21229 16.8744 8.93523 16.7802 8.49423 17.1401C8.2009 17.3796 8.12472 17.727 8.28339 18.1022C8.34885 18.2569 9.00815 19.007 9.74851 19.7689C11.5391 21.6118 11.3341 21.6146 13.1605 19.7229C13.9206 18.9357 14.5815 18.1751 14.6294 18.0327C14.7365 17.714 14.5523 17.2055 14.2738 17.0509C13.8803 16.8323 13.5956 16.9269 13.0577 17.4547C12.4267 18.074 12.412 18.0022 12.8763 16.5628C14.3469 12.0026 18.2494 8.86574 22.8885 8.51509C24.0307 8.4288 24.3509 8.2859 24.4499 7.81837C24.5204 7.48541 24.3117 6.97458 24.065 6.87637C23.7987 6.77032 22.2857 6.82622 21.4854 6.9717ZM9.33479 23.7999C7.92537 24.0302 7.01868 24.454 6.19812 25.266C5.18089 26.2729 4.88287 27.2691 4.88163 29.6674C4.88096 30.7985 4.85511 31.0428 4.72429 31.1555C4.63816 31.2297 4.46589 31.4577 4.34148 31.6621C4.13332 32.0043 4.11523 32.1383 4.11523 33.3368C4.11523 34.8285 4.20165 35.1213 4.79855 35.6515C5.08605 35.9068 5.22396 36.1471 5.40933 36.7157C5.54102 37.1196 5.8421 37.8438 6.0783 38.3249C6.49729 39.1785 6.50781 39.2229 6.50781 40.1373C6.50781 40.8983 6.47623 41.1074 6.34004 41.2485C6.24779 41.344 5.1917 41.9765 3.99321 42.6539C2.27199 43.6268 1.70677 43.9978 1.30338 44.4198C0.326922 45.4412 0 46.3993 0 48.2399C0 49.3286 0.0152168 49.4235 0.230932 49.6838L0.461959 49.9624L10.4233 49.9886C21.335 50.0173 20.9379 50.0374 21.1604 49.4458C21.318 49.0272 21.2094 46.8018 21.0016 46.1889C20.779 45.5325 20.3133 44.7955 19.798 44.2846C19.5455 44.0343 18.6026 43.4301 17.418 42.7597C16.3389 42.1491 15.2946 41.5418 15.0972 41.4103L14.7383 41.1712V40.1601C14.7383 39.1587 14.7423 39.1408 15.1618 38.2982C15.3947 37.8303 15.6917 37.1195 15.8217 36.7186C16.0025 36.1616 16.1401 35.9198 16.4059 35.6925C17.0184 35.1687 17.1309 34.8055 17.1309 33.3524C17.1309 32.1153 17.1225 32.0632 16.8531 31.6224C16.7004 31.3725 16.5281 31.1377 16.4703 31.1006C16.4024 31.0571 16.3649 30.5529 16.3645 29.6737C16.3633 27.3441 16.1161 26.4634 15.1641 25.3963C14.5536 24.7121 13.786 24.2628 12.7586 23.9882C11.8912 23.7564 10.1778 23.6622 9.33479 23.7999ZM12.3936 25.6498C13.432 25.9153 14.08 26.4375 14.467 27.321C14.6633 27.7692 14.6895 28.0141 14.7353 29.8364L14.7861 31.8553L15.145 32.1962L15.5039 32.5372V33.4248V34.3125L15.0788 34.6159C14.6874 34.8954 14.6337 34.9875 14.4012 35.7782C14.2624 36.2505 13.9154 37.105 13.63 37.6772L13.1113 38.7175L13.1134 40.0699C13.1158 41.605 13.2257 42.0012 13.7921 42.5172C13.9725 42.6815 15.0643 43.3484 16.2183 43.9989C17.3724 44.6494 18.4838 45.3384 18.6882 45.53C19.2317 46.0395 19.5298 46.7187 19.5935 47.593L19.6468 48.3239H10.6368H1.62695V47.7958C1.62695 46.9533 1.85942 46.3129 2.37124 45.7453C2.73271 45.3444 3.26405 44.9937 5.02441 43.9943C6.23506 43.307 7.36378 42.6076 7.5327 42.4403C8.00222 41.9751 8.13477 41.4336 8.13477 39.9815V38.7252L7.61653 37.6904C7.33153 37.1213 6.98652 36.2718 6.84986 35.8027C6.62227 35.0216 6.56523 34.923 6.1718 34.6297L5.74219 34.3097V33.4234V32.5372L6.10107 32.1962L6.45996 31.8553L6.51882 29.8364C6.55145 28.7187 6.62945 27.6467 6.69357 27.4347C6.83301 26.9742 7.47097 26.2305 7.93963 25.9824C9.00978 25.4159 10.9206 25.2732 12.3936 25.6498ZM35.6494 28.8549C35.3374 28.9944 32.7314 31.7882 32.7195 31.996C32.6951 32.4181 32.7516 32.5941 32.9804 32.8076C33.3682 33.1698 33.6953 33.0997 34.3018 32.5246C34.9161 31.9421 34.9385 31.9885 34.5921 33.1265C33.172 37.7912 29.1638 41.1409 24.6525 41.4334C24.1738 41.4645 23.6424 41.5339 23.4715 41.5878C22.8675 41.7782 22.6781 42.4703 23.108 42.9163C23.32 43.1362 23.421 43.1601 24.1438 43.1601C26.2763 43.1601 28.9579 42.2778 30.8535 40.9524C32.7957 39.5946 34.3659 37.7653 35.3763 35.6834C35.7893 34.8324 36.4155 32.886 36.5091 32.1621C36.5462 31.8754 36.6016 31.6408 36.6321 31.6408C36.6626 31.6408 36.9985 31.9536 37.3786 32.3359C38.0931 33.0549 38.3461 33.1614 38.7738 32.9239C39.0523 32.7693 39.2365 32.2607 39.1294 31.9421C39.0069 31.5774 36.3756 28.8838 36.0801 28.8205C35.9485 28.7923 35.7547 28.8078 35.6494 28.8549Z" fill="#FF6900"/>
</svg>
