<svg width="67" height="50" viewBox="0 0 67 50" fill="none" xmlns="http://www.w3.org/2000/svg">
<path fill-rule="evenodd" clip-rule="evenodd" d="M30.1631 0.0404904C25.5822 0.484551 22.1654 1.18978 18.4633 2.45524C12.2834 4.56781 6.44653 8.08122 1.93489 12.4042C0.434584 13.8418 0 14.5712 0 15.6515C0 16.8576 0.817479 18.1368 1.92939 18.6707C2.66914 19.0259 3.99422 19.0686 4.71447 18.7605C4.96834 18.6518 5.91053 17.9061 6.80822 17.1034C12.1134 12.3592 17.2719 9.55437 23.7743 7.87847C28.8487 6.57069 34.8464 6.33821 40.216 7.24139C45.4914 8.1286 50.6061 10.1475 55.0918 13.1132C56.9127 14.3172 58.2188 15.3391 60.1918 17.1034C61.8994 18.6303 62.2261 18.8325 63.2251 18.9804C65.1042 19.2584 67 17.5868 67 15.6515C67 14.5709 66.5654 13.8418 65.065 12.4047C61.5498 9.03827 56.8275 5.89493 52.3438 3.93709C48.0721 2.07193 44.1236 0.975471 39.1728 0.27972C37.8222 0.0899457 31.4102 -0.0803575 30.1631 0.0404904ZM31.4062 15.6165C31.1543 15.646 30.3888 15.7303 29.7051 15.8041C23.6747 16.4541 17.0769 19.5552 12.7482 23.7739C11.71 24.7859 11.5114 25.0496 11.3319 25.656C11.0708 26.5372 11.0704 26.8698 11.3292 27.734C11.7154 29.024 13.1609 30.0781 14.5438 30.0781C15.4376 30.0781 16.353 29.621 17.4726 28.6155C21.2448 25.2273 25.2612 23.3029 30.1631 22.5347C31.5128 22.3232 35.4872 22.3232 36.8369 22.5347C41.7388 23.3029 45.7552 25.2273 49.5274 28.6155C50.647 29.621 51.5624 30.0781 52.4562 30.0781C53.8391 30.0781 55.2845 29.024 55.6708 27.734C55.9296 26.8698 55.9292 26.5372 55.6681 25.656C55.4886 25.0496 55.29 24.7859 54.2518 23.7739C49.9676 19.5985 43.6199 16.5899 37.4258 15.7991C36.2513 15.6492 32.1829 15.5258 31.4062 15.6165ZM31.668 29.6373C29.8944 29.9612 29.1031 30.1447 28.2656 30.4268C25.454 31.3737 22.1062 33.7281 21.4367 35.2294C20.6339 37.0298 21.7079 39.3185 23.5929 39.8244C24.2622 40.004 25.4684 39.9133 25.9871 39.6443C26.1967 39.5356 26.7296 39.135 27.1712 38.7539C28.2449 37.8277 29.4174 37.1543 30.6865 36.735C31.6135 36.4287 31.9357 36.3891 33.5 36.3891C35.0643 36.3891 35.3865 36.4287 36.3135 36.735C37.5826 37.1543 38.7551 37.8277 39.8288 38.7539C40.8569 39.6408 41.2279 39.8271 42.1252 39.9071C43.6014 40.0386 44.8066 39.3843 45.454 38.1002C46.1711 36.6778 45.8862 35.2037 44.6669 34.028C42.5909 32.0264 39.7344 30.5275 36.7715 29.8851C35.8241 29.6798 32.3573 29.5114 31.668 29.6373ZM32.68 42.8043C31.2609 43.1536 30.1869 44.2031 29.9007 45.5198C29.6276 46.7757 29.9818 48.0441 30.8565 48.9433C31.6697 49.7789 32.2225 50 33.5 50C34.7775 50 35.3303 49.7789 36.1435 48.9433C37.9143 47.123 37.3572 44.0761 35.0703 43.074C34.3463 42.7568 33.3359 42.6428 32.68 42.8043Z" fill="#21B7CC"/>
</svg>
