<svg width="35" height="35" viewBox="0 0 35 35" fill="none" xmlns="http://www.w3.org/2000/svg">
<path fill-rule="evenodd" clip-rule="evenodd" d="M3 0C1.34375 0 0 1.34277 0 3V32C0 32.8047 0.316406 33.5361 0.832031 34.0742C1.37891 34.6445 2.14844 35 3 35H32C33.6562 35 35 33.6572 35 32V3C35 1.34277 33.6562 0 32 0H3ZM23.5996 22.749H21.0039L18.0215 14.2842L16.3438 18.9121H18.9238L19.6309 20.9277H15.7168L15.0391 22.749H12.4434L16.5859 11.9961H19.457L23.5996 22.749ZM29.2676 14.4199C29.4102 14.499 29.5176 14.6309 29.5645 14.7871C30.332 17.5576 30.082 20.5117 28.8555 23.1123C27.6309 25.7129 25.5137 27.7881 22.8887 28.959C20.2637 30.1299 17.3047 30.3203 14.5508 29.4941C11.7988 28.668 9.43359 26.8809 7.88672 24.458C6.33984 22.0352 5.71289 19.1377 6.12305 16.292C6.53125 13.4463 7.94922 10.8428 10.1152 8.9541C12.2832 7.06543 15.0547 6.0166 17.9297 6C20.8047 5.9834 23.5898 6.99902 25.7793 8.8623C26.1055 8.75781 26.457 8.76758 26.7773 8.89062C27.0977 9.01367 27.3672 9.24219 27.5391 9.53906C27.7109 9.83496 27.7773 10.1816 27.7246 10.5205C27.6953 10.7148 27.6289 10.8984 27.5312 11.0645C27.457 11.1895 27.3633 11.3037 27.2539 11.4033C27.002 11.6348 26.6777 11.7734 26.3359 11.7949C25.9922 11.8174 25.6543 11.7217 25.373 11.5244C25.0918 11.3271 24.8887 11.04 24.793 10.71C24.6992 10.3809 24.7188 10.0283 24.8516 9.71289C23.752 8.7998 22.4902 8.12305 21.1465 7.70801C20.0625 7.37305 18.9238 7.20801 17.7715 7.22852C16.2832 7.25488 14.8281 7.58789 13.4922 8.19434C12.5137 8.63965 11.5996 9.23145 10.7832 9.95703C8.85352 11.6729 7.60352 14.0225 7.25781 16.5801C6.91211 19.1387 7.49414 21.7363 8.90039 23.9014C10.3047 26.0674 12.4395 27.6582 14.916 28.3857C17.3926 29.1133 20.0469 28.9297 22.4004 27.8682C24.7539 26.8066 26.6484 24.9365 27.7422 22.5986C28.834 20.2598 29.0547 17.6074 28.3594 15.1211C28.3184 14.9629 28.3418 14.7949 28.4238 14.6533C28.5059 14.5117 28.6406 14.4082 28.7988 14.3643C28.9551 14.3203 29.125 14.3408 29.2676 14.4199Z" fill="white"/>
</svg>
