<svg width="46" height="46" viewBox="0 0 46 46" fill="none" xmlns="http://www.w3.org/2000/svg">
<path fill-rule="evenodd" clip-rule="evenodd" d="M17.8976 0.127033C16.9125 0.392237 16.012 1.16188 15.5611 2.12393C15.3492 2.57606 15.3191 2.75508 15.3103 3.61361L15.3003 4.58932L9.94172 9.9494L4.58314 15.3094H3.61693C2.75675 15.3094 2.59438 15.3358 2.13693 15.5502C1.5322 15.8338 0.816601 16.4747 0.498155 17.0183C0.218976 17.4946 0 18.3082 0 18.8687C0 19.4233 0.289333 20.3407 0.621796 20.8401C0.768439 21.0605 2.74066 23.0852 5.00438 25.3393C9.47843 29.7946 9.52542 29.8332 10.6661 29.9829C11.9203 30.1474 13.0166 29.7547 13.8668 28.8363C14.5645 28.0824 14.7689 27.5222 14.7757 26.3441L14.7811 25.4261L15.2692 24.9317L15.7573 24.4373L15.9078 24.6849C16.1615 25.1021 16.8829 25.6716 17.3574 25.8292C18.1445 26.0907 19.1987 25.9054 19.9028 25.3819C20.0743 25.2544 20.4679 25.6911 28.429 34.8376C33.0195 40.1118 36.9821 44.594 37.2348 44.7981C39.3805 46.5313 42.4225 46.3555 44.3896 44.3846C46.4942 42.276 46.5414 39.0653 44.4991 36.9344C44.1664 36.5872 41.468 34.1926 38.5028 31.6129C24.7641 19.6604 25.2461 20.0912 25.3889 19.8927C25.9418 19.1248 26.1113 18.1687 25.8396 17.3506C25.681 16.8728 25.1125 16.1515 24.6943 15.897L24.4467 15.7465L24.9409 15.2583L25.4352 14.7702L26.3082 14.77C27.461 14.7698 28.1126 14.5337 28.8531 13.8481C30.0379 12.751 30.3654 11.0888 29.6856 9.62101C29.4817 9.18074 28.8507 8.51023 25.2147 4.8707C22.2528 1.90591 20.8596 0.572246 20.5768 0.430881C19.6904 -0.011995 18.7925 -0.113817 17.8976 0.127033ZM19.5434 1.95623C19.7844 2.06902 21.254 3.48186 24.005 6.24552C27.9398 10.1984 28.1107 10.3841 28.1955 10.7965C28.4761 12.1626 27.3037 13.2816 25.9617 12.9287C25.6041 12.8347 25.15 12.4115 21.4913 8.76438C19.2516 6.53157 17.341 4.55472 17.2457 4.37138C17.1411 4.16999 17.0724 3.85715 17.0724 3.58143C17.0724 2.27644 18.3842 1.4136 19.5434 1.95623ZM20.1726 9.96234L23.9458 13.7369L18.847 18.8367L13.7481 23.9363L9.97407 20.1625C7.89833 18.0869 6.19998 16.3481 6.19998 16.2987C6.19998 16.1807 16.1908 6.18764 16.3087 6.18764C16.3585 6.18764 18.0973 7.88626 20.1726 9.96234ZM15.6707 9.32202C15.0252 9.79842 11.6978 13.2348 11.6332 13.4918C11.4613 14.1769 12.0476 14.7626 12.7369 14.5947C12.8961 14.5558 13.7274 13.7922 15.0731 12.4484C17.1519 10.3726 17.1623 10.3604 17.1623 9.97555C17.1623 9.66801 17.1085 9.5351 16.8996 9.32615C16.5491 8.97557 16.1421 8.97422 15.6707 9.32202ZM9.72984 15.4173C9.41948 15.4774 9.07534 15.9477 9.07534 16.3118C9.07534 16.7629 9.47879 17.1517 9.94702 17.1517C10.3837 17.1517 10.6509 16.9668 10.7802 16.575C10.9258 16.1336 10.7155 15.6618 10.2945 15.4859C10.1213 15.4135 9.96823 15.3598 9.9543 15.3665C9.94037 15.3733 9.83937 15.3961 9.72984 15.4173ZM4.38402 17.2351C4.56732 17.3305 6.54386 19.2414 8.7763 21.4814C12.4229 25.1407 12.8459 25.5949 12.9399 25.9525C13.2928 27.2948 12.174 28.4673 10.8081 28.1867C10.3958 28.1019 10.2101 27.931 6.25785 23.9955C3.49463 21.2441 2.08203 19.7743 1.96926 19.5332C1.56455 18.6684 1.92864 17.6866 2.83043 17.2112C3.21024 17.0109 3.97536 17.0227 4.38402 17.2351ZM23.9083 17.5941C24.1067 17.7926 24.171 17.9407 24.171 18.1991C24.171 18.5285 24.0641 18.6483 21.3614 21.3515C18.6586 24.0547 18.5389 24.1615 18.2095 24.1615C17.7104 24.1615 17.342 23.774 17.342 23.2489V22.8616L20.1066 20.0965L22.8713 17.3314H23.2585C23.5666 17.3314 23.6993 17.3851 23.9083 17.5941ZM27.1088 24.07C28.7794 25.5274 31.2522 27.6865 32.604 28.8682L35.0617 31.0167L33.0538 33.0264C31.9495 34.1317 31.0219 35.0259 30.9926 35.0134C30.9632 35.0009 29.0051 32.7665 26.6412 30.048C24.2774 27.3294 22.1207 24.8499 21.8486 24.538L21.3538 23.9707L22.6492 22.6728C23.3616 21.959 23.9731 21.3852 24.0079 21.3978C24.0427 21.4103 25.4381 22.6128 27.1088 24.07ZM37.155 32.8338L37.784 33.4107L35.5825 35.6123L33.3811 37.8138L32.8064 37.1351L32.2317 36.4563L34.3332 34.3531C35.4891 33.1963 36.4553 32.2514 36.4803 32.2533C36.5054 32.2552 36.809 32.5165 37.155 32.8338ZM41.3332 36.4865C42.4452 37.4613 43.4439 38.3931 43.5527 38.557C44.0297 39.2761 44.1592 39.7131 44.1605 40.6076C44.1616 41.3404 44.1289 41.5314 43.9292 41.9557C43.0732 43.7749 41.1685 44.6179 39.3564 43.9797C38.6658 43.7364 38.1711 43.2869 36.5675 41.4455C35.7142 40.4656 34.9125 39.5516 34.7859 39.4143L34.5556 39.1646L36.838 36.8806C38.0961 35.6215 39.1632 34.6229 39.2159 34.6553C39.2685 34.6876 40.2213 35.5117 41.3332 36.4865ZM4.06917 35.3449C3.15184 35.6339 2.48934 36.2168 2.07574 37.0986C1.8812 37.5135 1.84202 37.7255 1.84202 38.3642C1.84202 39.0372 1.87536 39.1987 2.11375 39.6797L2.38547 40.228L2.00493 40.4688C1.12615 41.0248 0.323208 42.2117 0.0992896 43.2856C-0.032168 43.916 -0.0274057 45.2122 0.107377 45.508C0.343335 46.026 -0.322579 45.9998 12.5797 45.9998C25.4819 45.9998 24.816 46.026 25.052 45.508C25.1868 45.2122 25.1915 43.916 25.0601 43.2856C24.8361 42.2117 24.0332 41.0248 23.1544 40.4688L22.7739 40.228L23.0456 39.6797C23.2841 39.1984 23.3173 39.0374 23.3173 38.3623C23.3173 37.6757 23.2859 37.5293 23.0244 36.9982C22.6836 36.3056 22.1964 35.8303 21.4861 35.4972L20.9811 35.2604L12.7145 35.243C6.05622 35.229 4.37413 35.2488 4.06917 35.3449ZM20.8487 37.1937C21.2495 37.3983 21.5652 37.9155 21.5652 38.3675C21.5652 38.775 21.2384 39.2979 20.846 39.5186C20.5082 39.7085 20.488 39.7089 12.5797 39.7089C4.67137 39.7089 4.65116 39.7085 4.31339 39.5186C3.39714 39.0035 3.37728 37.7706 4.27646 37.2263L4.62752 37.0137L12.5608 37.0133C20.3349 37.0128 20.5012 37.0164 20.8487 37.1937ZM21.8511 41.802C22.6541 42.1964 23.1799 42.9179 23.3248 43.8242L23.3853 44.2024H12.5912C2.21609 44.2024 1.7971 44.196 1.7971 44.039C1.7971 43.7053 2.07304 42.9624 2.32733 42.6113C2.65539 42.1584 3.0565 41.8693 3.63723 41.6673C4.05605 41.5216 4.7066 41.5118 12.7145 41.5308L21.3405 41.5512L21.8511 41.802Z" fill="#E58B0A"/>
</svg>
