<svg width="46" height="46" viewBox="0 0 46 46" fill="none" xmlns="http://www.w3.org/2000/svg">
<path fill-rule="evenodd" clip-rule="evenodd" d="M35.3597 0.255294C33.6536 1.24948 32.2745 3.28347 31.8594 5.41788L31.7667 5.89396H22.0535C12.9215 5.89396 12.3113 5.90506 11.8568 6.07988C10.8201 6.47877 9.67925 7.51396 8.94671 8.72038C8.75798 9.03128 8.16803 10.1529 7.63567 11.2128L6.6678 13.1399H4.93103C2.47783 13.1399 1.78126 13.3187 0.985248 14.1529C0.530435 14.6296 0.331734 15.0618 0.142539 15.9865C-0.0625923 16.9895 -0.050756 17.2745 0.20694 17.5415C0.405641 17.7473 0.518599 17.7649 1.63475 17.7649H2.8469L2.44316 18.2431C1.92349 18.8584 1.49822 19.8168 1.36541 20.6718C1.26979 21.2879 1.31191 21.803 1.84026 26.4657C2.38557 31.279 2.43552 31.614 2.68138 32.0999C2.95921 32.6491 3.64758 33.2533 4.11208 33.3558L4.37164 33.413V35.0799C4.37164 36.6217 4.38777 36.7803 4.58628 37.1943C4.73298 37.5001 4.92935 37.7167 5.20671 37.8785C5.58659 38.1001 5.71921 38.1152 7.27844 38.1152C9.09732 38.1152 9.35436 38.0561 9.79454 37.5368C10.1878 37.073 10.2432 36.7696 10.2432 35.0765V33.4901H21.8929H33.5427L33.1194 34.1243C32.6023 34.8989 32.1207 35.989 31.9011 36.8818C31.673 37.81 31.6685 39.8747 31.8928 40.7874C32.3729 42.742 33.4648 44.4178 34.9472 45.4753C35.7833 46.0718 36.0663 46.1337 36.3795 45.7883L36.6186 45.5246V43.5378V41.5511L37.7013 40.7478C38.5128 40.1457 38.8237 39.9664 38.9423 40.0319C39.0294 40.08 39.5488 40.4635 40.0964 40.884L41.0922 41.6487V43.5867V45.5246L41.3313 45.7883C41.6337 46.1218 41.9159 46.0728 42.6545 45.5589C44.1582 44.5126 45.3457 42.6942 45.8038 40.736C46.0405 39.7237 46.0245 37.9195 45.7693 36.8678C45.2664 34.7958 43.9403 32.9187 42.297 31.9527L41.7446 31.6281V23.0067V14.3852L42.297 14.0606C44.8034 12.5873 46.3275 9.28371 45.9401 6.16375C45.8138 5.14655 45.4402 3.93047 44.9995 3.10196C44.5517 2.26041 43.1395 0.729413 42.4305 0.317064C41.744 -0.0823354 41.6183 -0.0914824 41.321 0.236485C41.0938 0.486958 41.0922 0.502683 41.0922 2.48169V4.47468L40.008 5.27101C39.202 5.86302 38.8835 6.04504 38.7669 5.9806C38.6806 5.93301 38.162 5.54985 37.6143 5.12928L36.6186 4.3646V2.4266C36.6186 0.506177 36.6166 0.486444 36.3898 0.236485C36.0999 -0.0833629 35.9356 -0.0803824 35.3597 0.255294ZM35.407 5.1558C35.6986 5.46239 38.7351 7.69259 38.861 7.69259C39.0016 7.69259 41.9599 5.61943 42.2572 5.31253C42.3084 5.2596 42.3713 4.4901 42.397 3.60239L42.4436 1.98835L43.0576 2.67461C44.3967 4.17148 44.964 6.2505 44.5967 8.31584C44.2363 10.3425 43.0548 12.0668 41.4331 12.9323C40.9878 13.17 40.5822 13.4497 40.5317 13.5538C40.3841 13.8577 40.4081 32.2741 40.5563 32.4899C40.6204 32.5831 41.0291 32.8548 41.4646 33.0938C43.0451 33.9608 44.2357 35.6894 44.5842 37.6227C44.7648 38.6246 44.764 39.1572 44.5803 40.1494C44.3314 41.4945 43.4621 43.1512 42.6848 43.7615L42.397 43.9876V42.5095V41.0314L42.1407 40.772C41.9222 40.5509 40.5613 39.4774 39.3579 38.5768C39.1698 38.4359 38.9368 38.3207 38.8404 38.3207C38.697 38.3207 35.7774 40.3739 35.4536 40.7024C35.4024 40.7544 35.3395 41.5232 35.3138 42.4109L35.2672 44.025L34.6558 43.3442C32.9076 41.3973 32.5086 38.5109 33.6385 35.9835C34.2344 34.6506 35.1359 33.6774 36.431 32.9688C36.7364 32.8017 37.0293 32.5762 37.082 32.4677C37.2145 32.1946 37.2147 13.819 37.0822 13.5461C37.0296 13.4377 36.6811 13.1848 36.3077 12.984C32.701 11.0444 31.8582 5.77237 34.6581 2.66454L35.2672 1.98835L35.3138 3.54751C35.3395 4.4051 35.3814 5.12877 35.407 5.1558ZM31.5432 7.3601C31.5966 7.40162 31.6886 7.81233 31.7479 8.27277C32.0434 10.5695 33.4209 12.8205 35.2538 14.0014L35.873 14.4004V15.6765V16.9525L35.3008 16.9219L34.7285 16.8913L34.604 16.3533C33.7483 12.6551 29.5427 11.4705 27.1759 14.261C26.6929 14.8305 26.3238 15.5788 26.1441 16.3533L26.0192 16.8913L16.1274 16.9175C10.6869 16.9319 6.23563 16.9258 6.23563 16.9041C6.23563 16.8823 6.9199 15.5292 7.75627 13.8973C8.59264 12.2653 9.43116 10.6226 9.61961 10.2467C10.3197 8.85029 11.2765 7.83586 12.2398 7.46853C12.6786 7.30131 13.3931 7.28805 22.0795 7.2864C27.2311 7.28538 31.4898 7.31857 31.5432 7.3601ZM31.665 14.4655C32.2552 14.8013 32.8475 15.4452 33.1192 16.0464C33.5556 17.0123 33.7689 16.9427 30.3743 16.9427C27.0185 16.9427 27.2241 17.0003 27.571 16.1578C27.8987 15.3621 28.629 14.6341 29.4313 14.3034C29.9474 14.0908 31.161 14.1789 31.665 14.4655ZM5.82686 14.7395C5.7961 14.8278 5.60104 15.2209 5.39339 15.6131L5.01584 16.326H3.19631H1.37668L1.43997 16.0948C1.65871 15.2949 2.05052 14.8738 2.74187 14.6953C2.94625 14.6426 3.73658 14.5948 4.49812 14.5891C5.718 14.58 5.87616 14.5979 5.82686 14.7395ZM35.873 20.4351V22.4886L35.5116 22.6919C35.0105 22.9738 34.422 23.7451 34.2355 24.3644C33.8701 25.5777 34.5016 27.1152 35.582 27.6426L35.873 27.7847V29.7022V31.6197L35.5415 31.8355L35.21 32.0512L19.8607 32.0508C4.82655 32.0505 4.50539 32.0464 4.21451 31.8508C4.05113 31.7409 3.86744 31.5478 3.80611 31.4215C3.64152 31.0823 2.58138 21.7288 2.63478 21.0873C2.69573 20.3567 2.97533 19.7104 3.46351 19.1722C4.2242 18.3332 2.81382 18.3988 20.2854 18.3897L35.873 18.3816V20.4351ZM15.4697 21.6324C14.8991 21.8547 14.4498 22.1844 14.0458 22.6777C13.5995 23.2224 13.5008 23.4461 13.0975 24.8265C12.7378 26.0581 12.7422 26.3736 13.1218 26.5977C13.2482 26.6723 16.0738 26.7067 22.0795 26.7067C28.0852 26.7067 30.9108 26.6723 31.0373 26.5977C31.4219 26.3707 31.4268 26.045 31.0635 24.8716C30.4735 22.9666 30.0493 22.3362 28.9874 21.7872L28.4637 21.5164L22.1727 21.4942C16.6737 21.4747 15.8299 21.4921 15.4697 21.6324ZM6.79427 22.4798C6.32631 22.6492 5.9812 22.8996 5.63711 23.3197C5.17288 23.8863 5.00205 24.3648 4.99655 25.1136C4.9849 26.6964 6.0469 27.8714 7.49643 27.8794C8.05833 27.8824 8.22376 27.8381 8.66142 27.567C9.23488 27.2117 9.72222 26.582 9.86612 26.0104C10.2042 24.6678 9.68391 23.2832 8.61221 22.674C8.20726 22.4437 7.19335 22.3355 6.79427 22.4798ZM28.2665 23.0303C28.8299 23.2159 29.3732 23.8647 29.6083 24.6328L29.8028 25.2678H22.0825H14.3622L14.4855 24.8158C14.6562 24.1906 14.8412 23.825 15.1512 23.5005C15.7289 22.8958 15.5387 22.9123 21.9755 22.9079C26.3888 22.9049 27.9799 22.9358 28.2665 23.0303ZM8.35014 24.2767C8.72405 24.7266 8.76907 25.324 8.46999 25.8649C7.73707 27.1907 5.85771 26.1081 6.38223 24.6623C6.59473 24.0768 6.99679 23.8085 7.58124 23.8626C7.96616 23.8983 8.09198 23.966 8.35014 24.2767ZM35.8699 25.1393L35.8668 26.1414L35.6865 25.9029C35.3874 25.5072 35.3575 25.0332 35.6013 24.5548C35.7184 24.3251 35.8273 24.1372 35.8436 24.1372C35.8598 24.1372 35.8716 24.5881 35.8699 25.1393ZM11.2684 27.9401C11.1649 28.0542 11.082 28.2826 11.082 28.4539C11.082 28.6253 11.1649 28.8537 11.2684 28.9678C11.4526 29.171 11.579 29.1734 22.3429 29.1734H33.2309L33.4336 28.9356C33.6964 28.6269 33.6913 28.2385 33.4206 27.9579L33.2048 27.7345H22.3298C11.579 27.7345 11.4526 27.7369 11.2684 27.9401ZM8.93841 34.9679C8.93841 36.1008 8.90831 36.4731 8.80942 36.5636C8.72126 36.6443 8.21304 36.6727 7.20174 36.6532L5.72303 36.6249L5.69731 35.0575L5.67159 33.4901H7.305H8.93841V34.9679Z" fill="#FF0000"/>
</svg>
