<svg width="90" height="116" viewBox="0 0 90 116" fill="none" xmlns="http://www.w3.org/2000/svg">
<g filter="url(#filter0_d_808_71)">
<path d="M45 4L77.8369 19.8134L85.947 55.3459L63.2231 83.8407H26.7769L4.05303 55.3459L12.1631 19.8134L45 4Z" fill="white"/>
</g>
<path d="M5.32608 112H3.57892L7.50471 101.091H9.40634L13.3321 112H11.585L8.5008 103.072H8.41557L5.32608 112ZM5.61905 107.728H11.2867V109.113H5.61905V107.728ZM19.9625 108.607V103.818H21.5605V112H19.9945V110.583H19.9093C19.7211 111.02 19.4192 111.384 19.0037 111.675C18.5918 111.963 18.0787 112.107 17.4643 112.107C16.9387 112.107 16.4735 111.991 16.0687 111.76C15.6674 111.526 15.3514 111.18 15.1206 110.722C14.8933 110.263 14.7797 109.697 14.7797 109.022V103.818H16.3723V108.831C16.3723 109.388 16.5268 109.832 16.8358 110.162C17.1447 110.493 17.546 110.658 18.0396 110.658C18.3379 110.658 18.6344 110.583 18.9292 110.434C19.2275 110.285 19.4743 110.059 19.6696 109.757C19.8684 109.456 19.9661 109.072 19.9625 108.607ZM27.5198 103.818V105.097H23.0507V103.818H27.5198ZM24.2492 101.858H25.8419V109.598C25.8419 109.907 25.8881 110.139 25.9804 110.295C26.0727 110.448 26.1917 110.553 26.3373 110.61C26.4864 110.663 26.648 110.69 26.822 110.69C26.9498 110.69 27.0617 110.681 27.1576 110.663C27.2535 110.645 27.328 110.631 27.3813 110.62L27.6689 111.936C27.5766 111.972 27.4452 112.007 27.2748 112.043C27.1043 112.082 26.8912 112.103 26.6356 112.107C26.2165 112.114 25.8259 112.039 25.4637 111.883C25.1015 111.727 24.8085 111.485 24.5848 111.158C24.3611 110.832 24.2492 110.422 24.2492 109.928V101.858ZM32.6401 112.165C31.873 112.165 31.2037 111.989 30.6319 111.638C30.0602 111.286 29.6163 110.794 29.3002 110.162C28.9842 109.53 28.8262 108.792 28.8262 107.946C28.8262 107.098 28.9842 106.355 29.3002 105.72C29.6163 105.084 30.0602 104.591 30.6319 104.239C31.2037 103.887 31.873 103.712 32.6401 103.712C33.4071 103.712 34.0765 103.887 34.6483 104.239C35.22 104.591 35.6639 105.084 35.9799 105.72C36.296 106.355 36.454 107.098 36.454 107.946C36.454 108.792 36.296 109.53 35.9799 110.162C35.6639 110.794 35.22 111.286 34.6483 111.638C34.0765 111.989 33.4071 112.165 32.6401 112.165ZM32.6454 110.828C33.1426 110.828 33.5545 110.697 33.8812 110.434C34.2079 110.171 34.4494 109.821 34.6056 109.385C34.7654 108.948 34.8453 108.467 34.8453 107.941C34.8453 107.419 34.7654 106.94 34.6056 106.503C34.4494 106.062 34.2079 105.709 33.8812 105.443C33.5545 105.176 33.1426 105.043 32.6454 105.043C32.1447 105.043 31.7292 105.176 31.399 105.443C31.0723 105.709 30.829 106.062 30.6692 106.503C30.513 106.94 30.4348 107.419 30.4348 107.941C30.4348 108.467 30.513 108.948 30.6692 109.385C30.829 109.821 31.0723 110.171 31.399 110.434C31.7292 110.697 32.1447 110.828 32.6454 110.828ZM38.2318 112V103.818H39.7606V105.15H39.8618C40.0322 104.699 40.311 104.347 40.6981 104.095C41.0851 103.839 41.5486 103.712 42.0883 103.712C42.6352 103.712 43.0933 103.839 43.4626 104.095C43.8355 104.351 44.1107 104.702 44.2883 105.15H44.3735C44.5688 104.713 44.8795 104.365 45.3057 104.106C45.7318 103.843 46.2396 103.712 46.8291 103.712C47.5713 103.712 48.1768 103.944 48.6455 104.409C49.1178 104.875 49.354 105.576 49.354 106.513V112H47.7613V106.663C47.7613 106.109 47.6104 105.707 47.3085 105.459C47.0067 105.21 46.6462 105.086 46.2272 105.086C45.7087 105.086 45.3057 105.246 45.018 105.565C44.7304 105.881 44.5866 106.288 44.5866 106.785V112H42.9992V106.561C42.9992 106.118 42.8607 105.761 42.5837 105.491C42.3067 105.221 41.9463 105.086 41.5024 105.086C41.2006 105.086 40.9218 105.166 40.6661 105.326C40.414 105.482 40.2098 105.7 40.0535 105.981C39.9008 106.261 39.8245 106.586 39.8245 106.956V112H38.2318ZM54.935 112.165C54.168 112.165 53.4986 111.989 52.9268 111.638C52.3551 111.286 51.9112 110.794 51.5952 110.162C51.2791 109.53 51.1211 108.792 51.1211 107.946C51.1211 107.098 51.2791 106.355 51.5952 105.72C51.9112 105.084 52.3551 104.591 52.9268 104.239C53.4986 103.887 54.168 103.712 54.935 103.712C55.7021 103.712 56.3714 103.887 56.9432 104.239C57.5149 104.591 57.9588 105.084 58.2749 105.72C58.5909 106.355 58.7489 107.098 58.7489 107.946C58.7489 108.792 58.5909 109.53 58.2749 110.162C57.9588 110.794 57.5149 111.286 56.9432 111.638C56.3714 111.989 55.7021 112.165 54.935 112.165ZM54.9403 110.828C55.4375 110.828 55.8494 110.697 56.1761 110.434C56.5028 110.171 56.7443 109.821 56.9006 109.385C57.0604 108.948 57.1403 108.467 57.1403 107.941C57.1403 107.419 57.0604 106.94 56.9006 106.503C56.7443 106.062 56.5028 105.709 56.1761 105.443C55.8494 105.176 55.4375 105.043 54.9403 105.043C54.4396 105.043 54.0241 105.176 53.6939 105.443C53.3672 105.709 53.1239 106.062 52.9641 106.503C52.8079 106.94 52.7298 107.419 52.7298 107.941C52.7298 108.467 52.8079 108.948 52.9641 109.385C53.1239 109.821 53.3672 110.171 53.6939 110.434C54.0241 110.697 54.4396 110.828 54.9403 110.828ZM64.346 103.818V105.097H59.8769V103.818H64.346ZM61.0754 101.858H62.6681V109.598C62.6681 109.907 62.7142 110.139 62.8066 110.295C62.8989 110.448 63.0178 110.553 63.1634 110.61C63.3126 110.663 63.4742 110.69 63.6482 110.69C63.776 110.69 63.8879 110.681 63.9838 110.663C64.0796 110.645 64.1542 110.631 64.2075 110.62L64.4951 111.936C64.4028 111.972 64.2714 112.007 64.1009 112.043C63.9305 112.082 63.7174 112.103 63.4617 112.107C63.0427 112.114 62.6521 112.039 62.2899 111.883C61.9276 111.727 61.6347 111.485 61.411 111.158C61.1872 110.832 61.0754 110.422 61.0754 109.928V101.858ZM66.1078 112V103.818H67.7005V112H66.1078ZM66.9121 102.556C66.6351 102.556 66.3972 102.463 66.1983 102.279C66.003 102.091 65.9054 101.867 65.9054 101.608C65.9054 101.345 66.003 101.121 66.1983 100.936C66.3972 100.748 66.6351 100.654 66.9121 100.654C67.1891 100.654 67.4252 100.748 67.6206 100.936C67.8194 101.121 67.9189 101.345 67.9189 101.608C67.9189 101.867 67.8194 102.091 67.6206 102.279C67.4252 102.463 67.1891 102.556 66.9121 102.556ZM76.8424 103.818L73.8754 112H72.1709L69.1986 103.818H70.9085L72.9806 110.114H73.0658L75.1325 103.818H76.8424ZM81.5872 112.165C80.7811 112.165 80.0868 111.993 79.5044 111.648C78.9256 111.3 78.4782 110.812 78.1621 110.184C77.8496 109.551 77.6934 108.811 77.6934 107.962C77.6934 107.124 77.8496 106.386 78.1621 105.746C78.4782 105.107 78.9185 104.608 79.4831 104.25C80.0513 103.891 80.7154 103.712 81.4753 103.712C81.937 103.712 82.3844 103.788 82.8176 103.941C83.2509 104.093 83.6397 104.333 83.9842 104.66C84.3287 104.987 84.6003 105.411 84.7992 105.933C84.998 106.451 85.0975 107.082 85.0975 107.824V108.388H78.5936V107.195H83.5368C83.5368 106.776 83.4515 106.405 83.2811 106.082C83.1106 105.755 82.8709 105.498 82.562 105.31C82.2566 105.121 81.8979 105.027 81.486 105.027C81.0385 105.027 80.6479 105.137 80.3141 105.358C79.9838 105.574 79.7282 105.858 79.5471 106.21C79.3695 106.558 79.2807 106.936 79.2807 107.344V108.277C79.2807 108.824 79.3766 109.289 79.5684 109.672C79.7637 110.056 80.0353 110.349 80.3833 110.551C80.7314 110.75 81.138 110.849 81.6032 110.849C81.905 110.849 82.1802 110.807 82.4288 110.722C82.6774 110.633 82.8922 110.501 83.0733 110.327C83.2544 110.153 83.3929 109.939 83.4888 109.683L84.9963 109.955C84.8755 110.398 84.6589 110.787 84.3464 111.121C84.0375 111.451 83.6486 111.709 83.1799 111.893C82.7147 112.075 82.1838 112.165 81.5872 112.165Z" fill="black"/>
<path fill-rule="evenodd" clip-rule="evenodd" d="M37.2162 34.0919C34.109 34.3903 31.4835 35.5021 28.8052 37.6538C27.9624 38.3308 26.7894 39.5399 26.394 40.1392L26.229 40.3891H24.7082C22.8879 40.3891 22.5103 40.5104 22.0402 41.2464L21.7582 41.6879V44.4329V47.1779L21.3431 47.1781C20.8304 47.1782 20.287 47.4377 20.1249 47.7598C20.0369 47.9347 20.0024 48.7011 20.0015 50.5093L20 53.0163L20.3175 53.3264C20.6233 53.625 20.746 53.6586 23.663 54.2435C25.3284 54.5776 26.7629 54.8714 26.8509 54.8967C26.9389 54.922 27.18 55.2301 27.387 55.5814C28.1133 56.8144 29.4865 57.7358 30.9161 57.9493C32.7233 58.2192 34.6014 57.3947 35.6248 55.8822L36.0678 55.2275H37.5406C38.9538 55.2275 39.022 55.2184 39.2259 55.0031C39.5076 54.7053 39.4965 54.3069 39.1984 54.0109C38.9696 53.7837 38.9032 53.7728 37.747 53.7728H36.5354L36.4822 52.9727C36.453 52.5326 36.3982 52.0961 36.3603 52.0028C36.2951 51.8419 36.799 51.8331 46.1316 51.8331H55.9716L55.9111 52.1968C55.8778 52.3969 55.85 52.8333 55.8494 53.1666L55.8484 53.7728H48.9665C44.131 53.7728 42.014 53.8048 41.8467 53.8804C41.6083 53.9884 41.3918 54.3336 41.3918 54.6062C41.3918 54.6861 41.4997 54.8585 41.6316 54.9895L41.8713 55.2275L49.0797 55.2295L56.2879 55.2314L56.5809 55.7251C57.2368 56.8298 58.6448 57.7386 60.0245 57.9477C61.828 58.221 63.7091 57.3959 64.7333 55.8822L65.1763 55.2275H66.5073C68.4028 55.2275 69.0693 54.9382 69.675 53.8527L69.963 53.3364L69.9924 50.2062C70.0248 46.7766 69.9726 46.3157 69.4534 45.436C68.9074 44.5109 68.3962 44.0954 66.935 43.3892C65.6125 42.75 63.4483 41.9408 63.0613 41.9408C62.7964 41.9408 62.3929 42.3707 62.3929 42.6531C62.3929 43.0821 62.6937 43.299 63.8117 43.6756C65.0472 44.0917 67.1189 45.0008 67.2852 45.1998C67.3806 45.3139 67.2693 45.3354 66.5806 45.3367C64.099 45.3411 63.0173 46.3887 63.9129 47.9203C64.5113 48.9439 66.1693 49.6946 67.8385 49.698L68.5467 49.6995V50.0389V50.3784H66.6469H64.7471L64.4735 50.0214C64.0995 49.5334 63.1833 48.8802 62.5347 48.6393C60.6154 47.9262 58.6697 48.3391 57.2312 49.7645L56.6117 50.3784H46.1251H35.6387L35.3651 50.0214C34.9911 49.5334 34.0748 48.8802 33.4262 48.6393C31.5069 47.9262 29.5613 48.3391 28.1227 49.7645L27.5032 50.3784H24.4842H21.4652V49.5055V48.6327H22.0893C22.8916 48.6327 23.125 48.4633 23.197 47.8288L23.2488 47.3719H24.2666C25.5954 47.3719 26.057 47.1604 26.4665 46.3637C26.6261 46.0532 26.6546 45.8376 26.627 45.1514L26.5934 44.3169L25.8608 43.2705C25.4578 42.695 25.0679 42.1385 24.9942 42.0339C24.8637 41.8489 24.8864 41.8438 25.8564 41.8438C27.0036 41.8438 26.8659 41.9302 28.0097 40.4929C29.0296 39.2113 30.8862 37.7523 32.5526 36.9228C33.2301 36.5856 34.8782 35.9349 34.7473 36.0563C34.7218 36.0801 34.32 36.3555 33.8547 36.6684C32.0934 37.8524 30.5207 39.3919 30.3954 40.0546C30.2721 40.7077 30.6264 41.429 31.2044 41.7014C31.5228 41.8513 32.7992 41.9125 42.5092 42.2433C48.5295 42.4484 54.2244 42.6087 55.1646 42.5996C57.4734 42.5772 58.1884 42.5882 59.1948 42.6615C60.0165 42.7213 60.0599 42.7143 60.2936 42.4822C60.5983 42.1797 60.6049 41.8054 60.3104 41.5131C60.021 41.2258 59.2786 41.1399 57.1869 41.152L55.6439 41.161L53.7716 39.4495C51.532 37.4023 50.6006 36.7012 49.1085 35.9396C47.5084 35.1229 46.0536 34.6402 44.4159 34.3824C43.7818 34.2826 38.8766 33.9763 38.3149 34.0015C38.1537 34.0087 37.6593 34.0494 37.2162 34.0919ZM42.3533 35.6918C42.4467 35.7695 42.6599 37.6331 42.6575 38.3524C42.6551 39.0807 42.4497 40.6318 42.3413 40.7394C42.2909 40.7895 32.8016 40.4943 32.2204 40.4246L31.7913 40.3731L32.5134 39.6422C34.5429 37.5884 37.2063 36.1939 40.0731 35.684C40.6406 35.5831 42.2289 35.5885 42.3533 35.6918ZM45.6321 36.1257C47.2324 36.5418 48.9108 37.3466 50.2503 38.3401C50.9975 38.8944 53.4448 41.0626 53.3868 41.1192C53.3707 41.1349 51.2257 41.0753 48.6201 40.9867C43.9883 40.8291 43.8831 40.8211 43.9042 40.6315C43.916 40.5249 43.9763 40.0448 44.0381 39.5647C44.1444 38.7399 44.111 37.2289 43.9644 36.2286L43.9019 35.802L44.3938 35.8667C44.6644 35.9024 45.2216 36.0189 45.6321 36.1257ZM24.2876 43.5638C25.1742 44.8285 25.1869 44.8548 25.1578 45.358L25.1282 45.8686L24.1758 45.8964L23.2234 45.9241V44.0101C23.2234 42.9573 23.2604 42.1375 23.3057 42.1881C23.3509 42.2387 23.7927 42.8579 24.2876 43.5638ZM33.572 43.5744C33.25 43.8333 33.2705 44.3286 33.6154 44.6232C34.2108 45.1317 35.2705 44.7804 35.2705 44.0746C35.2705 43.6142 34.9614 43.3956 34.31 43.3956C33.9545 43.3956 33.7254 43.4511 33.572 43.5744ZM44.5393 43.5466C44.214 43.7727 44.2362 44.3812 44.5796 44.6493C44.9867 44.9673 45.6289 44.9255 46.0002 44.5569C46.2394 44.3194 46.2831 44.2131 46.2293 43.9993C46.111 43.5285 45.9075 43.3956 45.3056 43.3956C44.9666 43.3956 44.6732 43.4534 44.5393 43.5466ZM68.4874 46.9434C68.52 47.0278 68.5467 47.3551 68.5467 47.6708V48.2447H67.8807C67.5143 48.2447 66.9759 48.1754 66.6841 48.0907C66.1479 47.9351 65.2379 47.4248 65.2109 47.2648C65.1647 46.9909 65.2042 46.9316 65.4698 46.8751C65.6309 46.8409 66.3625 46.8077 67.0955 46.8014C68.2276 46.7917 68.437 46.8131 68.4874 46.9434ZM33.0131 50.0611C33.6803 50.3528 34.4615 51.1286 34.769 51.8049C34.9339 52.1677 34.981 52.4609 34.9837 53.1424C34.9868 53.8952 34.9513 54.0888 34.7258 54.5499C34.3723 55.2726 33.754 55.8739 33.0015 56.2269C31.4826 56.9392 29.58 56.365 28.7152 54.9332C28.2851 54.2211 28.1756 53.7657 28.2258 52.8975C28.3621 50.5358 30.7977 49.0929 33.0131 50.0611ZM62.1215 50.0611C62.7888 50.3528 63.57 51.1286 63.8775 51.8049C64.0424 52.1677 64.0895 52.4609 64.0922 53.1424C64.0952 53.8952 64.0598 54.0888 63.8342 54.5499C63.4807 55.2726 62.8625 55.8739 62.11 56.2269C60.5911 56.9392 58.6885 56.365 57.8236 54.9332C57.3935 54.2211 57.284 53.7657 57.3343 52.8975C57.4706 50.5358 59.9062 49.0929 62.1215 50.0611ZM30.8178 50.9047C28.9156 51.5786 28.6589 54.1694 30.3942 55.1791C31.6068 55.8847 33.1914 55.3859 33.7835 54.1122C34.0228 53.5975 34.0222 52.6851 33.7823 52.1726C33.2665 51.0706 31.9448 50.5053 30.8178 50.9047ZM59.9263 50.9047C58.0241 51.5786 57.7674 54.1694 59.5026 55.1791C60.7152 55.8847 62.2999 55.3859 62.892 54.1122C63.1312 53.5975 63.1306 52.6851 62.8907 52.1726C62.375 51.0706 61.0533 50.5053 59.9263 50.9047ZM26.7739 52.5847C26.7402 52.9981 26.7077 53.3434 26.7018 53.3522C26.6894 53.3703 23.2269 52.687 22.1734 52.4585C21.5308 52.319 21.4652 52.2829 21.4652 52.069V51.8331H24.1501H26.835L26.7739 52.5847ZM68.5467 52.3276C68.5467 52.5996 68.4801 52.9616 68.3986 53.132C68.1499 53.6523 67.8241 53.7728 66.6651 53.7728H65.6438L65.5907 52.9727C65.5615 52.5326 65.5067 52.0961 65.4688 52.0028C65.405 51.8454 65.5138 51.8331 66.9734 51.8331H68.5467V52.3276ZM32.2175 52.5045C32.4288 52.7144 32.503 52.8801 32.503 53.1424C32.503 53.5793 32.0678 54.0637 31.6753 54.0637C30.9485 54.0637 30.4931 53.3969 30.7924 52.7707C31.0808 52.1674 31.7516 52.0421 32.2175 52.5045ZM61.3259 52.5045C61.5373 52.7144 61.6114 52.8801 61.6114 53.1424C61.6114 53.5793 61.1763 54.0637 60.7838 54.0637C60.057 54.0637 59.6016 53.3969 59.9009 52.7707C60.1892 52.1674 60.8601 52.0421 61.3259 52.5045Z" fill="#11D8CC"/>
<defs>
<filter id="filter0_d_808_71" x="0.0546875" y="0" width="89.8906" height="87.8408" filterUnits="userSpaceOnUse" color-interpolation-filters="sRGB">
<feFlood flood-opacity="0" result="BackgroundImageFix"/>
<feColorMatrix in="SourceAlpha" type="matrix" values="0 0 0 0 0 0 0 0 0 0 0 0 0 0 0 0 0 0 127 0" result="hardAlpha"/>
<feOffset/>
<feGaussianBlur stdDeviation="2"/>
<feComposite in2="hardAlpha" operator="out"/>
<feColorMatrix type="matrix" values="0 0 0 0 0 0 0 0 0 0 0 0 0 0 0 0 0 0 0.25 0"/>
<feBlend mode="normal" in2="BackgroundImageFix" result="effect1_dropShadow_808_71"/>
<feBlend mode="normal" in="SourceGraphic" in2="effect1_dropShadow_808_71" result="shape"/>
</filter>
</defs>
</svg>
