<svg width="61" height="55" viewBox="0 0 61 55" fill="none" xmlns="http://www.w3.org/2000/svg">
<path fill-rule="evenodd" clip-rule="evenodd" d="M46.584 1.61133V3.22266H50.7236H54.8633L49.562 8.00991C46.6463 10.6428 42.7696 14.1079 40.947 15.7101L37.6331 18.6232L30.4964 12.1892L23.3597 5.75502L13.4372 14.6593C7.9798 19.5567 2.84877 24.1556 2.03492 24.8791L0.555314 26.1947L1.72206 27.3308C2.36375 27.9556 2.94933 28.4668 3.02343 28.4668C3.09742 28.4668 6.21378 25.7083 9.9486 22.3369C13.6834 18.9654 18.2304 14.896 20.053 13.2938L23.3669 10.3807L30.5039 16.8151L37.6408 23.2493L47.5035 14.3908L57.3662 5.53223L57.3975 9.21143L57.4289 12.8906H59.2144H61V6.44531V0H53.792H46.584V1.61133ZM46.584 35.5566V51.7773H44.7969H43.0098V42.002V32.2266H37.6484H32.2871V42.002V51.7773H30.5H28.7129V38.7793V25.7812H23.3516H17.9902V38.7793V51.7773H16.2031H14.416V43.6133V35.4492H9.05469H3.69336V43.6133V51.7773H1.84668H0V53.3887V55H30.5H61V53.3887V51.7773H59.1533H57.3066V35.5566V19.3359H51.9453H46.584V35.5566ZM53.7324 37.168V51.7773H51.9453H50.1582V37.168V22.5586H51.9453H53.7324V37.168ZM25.1387 40.3906V51.7773H23.3516H21.5645V40.3906V29.0039H23.3516H25.1387V40.3906ZM39.4355 43.6133V51.7773H37.6484H35.8613V43.6133V35.4492H37.6484H39.4355V43.6133ZM10.8418 45.2246V51.7773H9.05469H7.26758V45.2246V38.6719H9.05469H10.8418V45.2246Z" fill="#20CDB8"/>
</svg>
