<svg width="48" height="40" viewBox="0 0 48 40" fill="none" xmlns="http://www.w3.org/2000/svg">
<path fill-rule="evenodd" clip-rule="evenodd" d="M36.7498 0.0562176C36.6724 0.0832521 29.4793 2.76952 20.765 6.02568C10.8824 9.71833 4.71899 11.9746 4.38411 12.022C2.7652 12.2514 1.35095 13.2332 0.612373 14.6405C0.0736736 15.667 0.00185953 16.1599 0.000359493 18.8455C-0.00151555 21.9802 -0.0435164 21.906 1.78024 21.9872C3.33803 22.0565 4.27555 22.4887 5.12082 23.5269C5.72111 24.2641 5.94049 24.9246 5.94049 25.994C5.94049 27.0635 5.72111 27.724 5.12082 28.4612C4.27555 29.4994 3.33803 29.9316 1.78024 30.0009C-0.0435164 30.0821 -0.00151555 30.0079 0.000359493 33.1426C0.00185953 35.8282 0.0736736 36.3211 0.612373 37.3476C1.16495 38.4005 2.18141 39.2885 3.33081 39.7227C3.88619 39.9324 3.93054 39.934 10.4992 39.9806C14.1344 40.0065 23.1838 40.0065 30.609 39.9806L44.1093 39.9337L44.6681 39.7227C45.8343 39.2822 46.8265 38.4148 47.3882 37.3446C47.9272 36.3177 47.9971 35.8308 47.9986 33.0953L48 30.6688L47.6812 30.3496C47.3724 30.0404 47.3393 30.0304 46.6203 30.0304C45.059 30.0304 44.0705 29.6749 43.192 28.7973C41.6199 27.2267 41.6199 24.7565 43.192 23.1934C44.0617 22.3288 45.073 21.9576 46.5597 21.9576C47.9719 21.9576 48.0004 21.8961 47.9986 18.8455C47.9971 16.2237 47.9264 15.6995 47.4463 14.747C46.7776 13.4207 45.598 12.4884 44.1071 12.108L43.73 12.0117L41.9717 6.82451C40.8609 3.54761 40.1193 1.50134 39.9581 1.26817C39.6223 0.782301 38.9708 0.308821 38.3968 0.133379C37.9511 -0.00282625 37.0402 -0.0455372 36.7498 0.0562176ZM37.9704 2.10511C38.121 2.18312 38.2882 2.32918 38.3419 2.42972C38.4796 2.6872 41.5311 11.7336 41.5311 11.8842C41.5311 11.986 38.8024 12.0077 26.0941 12.0069C17.6036 12.0063 10.6827 11.9801 10.7141 11.9488C10.8298 11.8329 37.2728 1.97341 37.481 1.96844C37.5995 1.96562 37.8198 2.0272 37.9704 2.10511ZM16.0306 14.69C16.0306 15.3509 16.05 15.4206 16.3046 15.6756C16.504 15.8753 16.6688 15.95 16.9096 15.95C17.6757 15.95 17.9993 15.5481 17.9993 14.5966V13.9761L30.8668 14.0009L43.7343 14.0256L44.2284 14.2492C44.84 14.526 45.5745 15.3071 45.8025 15.9231C45.9337 16.2775 45.9773 16.7542 46.0087 18.1794L46.0485 19.9864L45.7351 19.988C45.1139 19.9913 44.0939 20.2721 43.3124 20.6552C41.7954 21.3987 40.5622 22.9448 40.1771 24.586C39.9939 25.3667 39.9939 26.6214 40.1771 27.4021C40.5622 29.0433 41.7954 30.5893 43.3124 31.3329C44.0939 31.716 45.1139 31.9968 45.7351 32.0001L46.0485 32.0017L46.0087 33.8087C45.9773 35.2338 45.9337 35.7106 45.8025 36.065C45.5745 36.681 44.84 37.4621 44.2284 37.7388L43.7343 37.9624L30.8668 37.9872L17.9993 38.012V37.3915C17.9993 36.44 17.6757 36.0381 16.9096 36.0381C16.6688 36.0381 16.504 36.1128 16.3046 36.3125C16.0498 36.5676 16.0306 36.6369 16.0306 37.3008V38.0148L10.1476 37.9886L4.26467 37.9624L3.7706 37.7388C3.15896 37.4621 2.42441 36.681 2.19641 36.065C2.06525 35.7106 2.02165 35.2338 1.99025 33.8087L1.9505 32.0017L2.26382 32.0001C2.88502 31.9968 3.90504 31.716 4.68656 31.3329C6.20356 30.5893 7.43677 29.0433 7.82191 27.4021C8.0051 26.6214 8.0051 25.3667 7.82191 24.586C7.43677 22.9448 6.20356 21.3987 4.68656 20.6552C3.90916 20.2742 2.88558 19.9913 2.27244 19.988L1.96775 19.9864V18.4421C1.96775 16.8891 2.0615 16.1315 2.31519 15.6342C2.51104 15.2504 3.17368 14.5536 3.50978 14.3781C4.23711 13.9984 4.35683 13.9915 10.2882 13.985L16.0306 13.9787V14.69ZM16.6294 19.1397C16.5206 19.1837 16.3412 19.3346 16.231 19.475C16.0403 19.7177 16.0306 19.8285 16.0306 21.7616C16.0306 24.0128 16.0539 24.1121 16.6395 24.3571C17.0745 24.5392 17.5791 24.3833 17.8163 23.9936C17.981 23.7232 17.9987 23.5105 17.999 21.7995C17.9992 20.7573 17.9582 19.7964 17.9079 19.664C17.8046 19.3919 17.2976 19.0455 17.0149 19.054C16.9118 19.0571 16.7384 19.0956 16.6294 19.1397ZM16.7162 27.6063C16.5518 27.6502 16.3304 27.7968 16.224 27.9322C16.042 28.1638 16.0306 28.2997 16.0306 30.2294V32.2803L16.2884 32.5667C16.7659 33.0971 17.6656 32.9623 17.9079 32.3241C17.9582 32.1917 17.9992 31.2308 17.999 30.1886C17.9987 28.4654 17.9818 28.2663 17.8129 27.9888C17.7107 27.8209 17.6156 27.6837 17.6017 27.6837C17.5877 27.6837 17.45 27.6484 17.2955 27.6052C17.1412 27.562 16.8805 27.5626 16.7162 27.6063Z" fill="#FB5A5A"/>
</svg>
