<svg width="40" height="40" viewBox="0 0 40 40" fill="none" xmlns="http://www.w3.org/2000/svg">
<path d="M38.8561 17.3307L36.9172 16.3884V4.00773C36.9171 3.48131 36.8109 2.96006 36.6047 2.47376C36.3985 1.98746 36.0964 1.54562 35.7156 1.17346C35.3348 0.801313 34.8827 0.506138 34.3852 0.304795C33.8877 0.103452 33.3544 -0.000118143 32.816 4.06719e-07H4.10212C3.56336 -0.000236857 3.02982 0.103336 2.53202 0.304795C2.03422 0.506254 1.58192 0.801647 1.20095 1.1741C0.819987 1.54655 0.517834 1.98875 0.311769 2.47543C0.105705 2.9621 -0.000242271 3.48371 4.15989e-07 4.01044V28.0721C-0.000242271 28.5989 0.105705 29.1205 0.311769 29.6072C0.517834 30.0938 0.819987 30.536 1.20095 30.9085C1.58192 31.2809 2.03422 31.5763 2.53202 31.7778C3.02982 31.9792 3.56336 32.0828 4.10212 32.0826H12.3054C12.5775 32.0826 12.8384 31.9769 13.0307 31.7889C13.2231 31.6008 13.3312 31.3457 13.3312 31.0797C13.3312 30.8138 13.2231 30.5587 13.0307 30.3706C12.8384 30.1826 12.5775 30.0769 12.3054 30.0769H4.10212C3.55879 30.0752 3.0382 29.8635 2.65401 29.4879C2.26982 29.1123 2.05322 28.6033 2.05152 28.0721V4.00773C2.05322 3.47655 2.26982 2.96759 2.65401 2.59198C3.0382 2.21638 3.55879 2.00463 4.10212 2.00296H32.816C33.3601 2.00344 33.8819 2.21466 34.2671 2.5904C34.6523 2.96613 34.8695 3.47577 34.8712 4.00773V8.01817H6.15733C5.88528 8.01817 5.62437 8.12382 5.43201 8.31189C5.23964 8.49995 5.13158 8.75503 5.13158 9.021C5.13158 9.28697 5.23964 9.54204 5.43201 9.73011C5.62437 9.91817 5.88528 10.0238 6.15733 10.0238H34.8712V15.3873L28.6465 12.34C28.3631 12.2016 28.0506 12.1296 27.7338 12.1296C27.417 12.1296 27.1046 12.2016 26.8212 12.34L16.5257 17.3731C16.184 17.5391 15.8964 17.7949 15.6953 18.112C15.4942 18.429 15.3875 18.7946 15.3873 19.1676V32.9726C15.3876 33.3444 15.4932 33.7088 15.6923 34.0255C15.8915 34.3422 16.1764 34.5989 16.5156 34.767L26.7704 39.7893C27.0575 39.9279 27.3734 40 27.6937 40C28.0139 40 28.3298 39.9279 28.6169 39.7893L38.8718 34.767C39.2109 34.5989 39.4959 34.3422 39.695 34.0255C39.8941 33.7088 39.9997 33.3444 40 32.9726V19.1261C39.9998 18.753 39.8931 18.3874 39.692 18.0704C39.4909 17.7534 39.2033 17.4976 38.8616 17.3316L38.8561 17.3307ZM26.6642 37.4921L17.4314 32.9708V20.0684L26.6642 24.5898V37.4921ZM27.7407 22.8693L27.7001 22.8495H27.69L18.809 18.4987L27.7407 14.1381L34.8777 17.6268L36.6319 18.4789L36.6725 18.4987L34.8777 19.3806L27.7509 22.8693H27.7407ZM37.9439 32.9789L28.7111 37.5002V24.5898L34.8712 21.5731L37.9476 20.0693L37.9439 32.9789Z" fill="#7B3FE4"/>
</svg>
