<svg width="45" height="45" viewBox="0 0 45 45" fill="none" xmlns="http://www.w3.org/2000/svg">
<path fill-rule="evenodd" clip-rule="evenodd" d="M2.79419 0.129152C1.46325 0.496169 0.37098 1.64907 0.0839569 2.98997C0.0062454 3.35311 -0.0127429 7.34372 0.00756404 19.0294L0.0345521 34.5854L0.241754 35.099C0.635498 36.075 1.50035 36.9102 2.51367 37.2931L3.02346 37.4857L13.5066 37.5097L23.9898 37.5337L23.9912 38.872C23.9939 41.1572 24.3653 42.2315 25.5641 43.421C26.331 44.1819 27.0093 44.5736 27.9981 44.8264C28.6407 44.9907 28.9889 45 34.4949 45C39.9566 45 40.3533 44.9896 40.9768 44.8302C42.0087 44.5664 42.6689 44.1876 43.4206 43.4281C44.1816 42.6591 44.5739 41.9795 44.8264 40.9927C44.991 40.349 45 40.0012 45 34.2694C45 30.2014 44.9693 28.1441 44.9062 27.9776C44.6778 27.3749 44.0234 26.9882 43.2267 26.9851L42.7281 26.9831L42.6941 24.3685C42.6608 21.8149 42.6544 21.7355 42.4187 20.9672C42.1186 19.9887 41.5951 18.972 40.9846 18.1821L40.5166 17.5766V10.5589C40.5166 6.21252 40.4829 3.36349 40.428 3.07434C40.1526 1.622 38.9647 0.396153 37.5454 0.0992705C36.8267 -0.0511043 3.34345 -0.0221894 2.79419 0.129152ZM37.7601 1.73459C38.2548 1.99913 38.7354 2.58366 38.8923 3.11195C38.9796 3.4055 39.0222 3.94829 39.0222 4.7637V5.97813H20.2461H1.46993L1.50017 4.54996C1.52522 3.36832 1.55854 3.06871 1.69339 2.81419C2.00767 2.22104 2.54884 1.76306 3.15479 1.57753C3.27593 1.54044 11.0298 1.5168 20.3855 1.52498L37.3959 1.53983L37.7601 1.73459ZM4.16627 3.09148C3.7117 3.34002 3.62511 3.90707 3.9865 4.26828C4.17762 4.45944 4.27827 4.48405 4.86955 4.48405C5.46082 4.48405 5.56148 4.45944 5.75259 4.26828C6.11539 3.90566 6.02098 3.33949 5.55664 3.09218C5.31551 2.96386 4.40055 2.96334 4.16627 3.09148ZM7.90241 3.10369C7.42497 3.34512 7.36739 3.97553 7.79226 4.30968C7.96728 4.44731 8.14592 4.48343 8.63952 4.48123C9.28697 4.47833 9.46938 4.40424 9.64626 4.07238C9.81109 3.76284 9.76581 3.52107 9.49154 3.24686C9.2613 3.01668 9.17674 2.99014 8.67838 2.99128C8.37246 2.99199 8.02328 3.04261 7.90241 3.10369ZM11.4999 3.24686C11.2135 3.5332 11.1808 3.7574 11.3716 4.12617C11.535 4.44212 11.6523 4.48405 12.3734 4.48405C13.2774 4.48405 13.6648 4.10103 13.4004 3.4686C13.2461 3.09947 12.9909 2.98997 12.2854 2.98997C11.8185 2.98997 11.727 3.01993 11.4999 3.24686ZM15.4186 3.09148C14.964 3.34002 14.8775 3.90707 15.2389 4.26828L15.4546 4.48405H25.8798H36.305L36.5207 4.26828C36.8232 3.96595 36.8075 3.57468 36.4796 3.24686L36.2226 2.98997L25.9085 2.9926C18.6126 2.99454 15.543 3.02345 15.4186 3.09148ZM39.001 11.9276L39.0238 16.3391L38.2977 15.9538C37.8984 15.7419 37.2157 15.4594 36.7805 15.3261C36.0492 15.102 35.8763 15.0838 34.4949 15.0838C33.1201 15.0838 32.9386 15.1027 32.2284 15.3212C29.4222 16.1844 27.4274 18.1789 26.5667 20.982C26.3363 21.7323 26.3287 21.8268 26.2957 24.3685L26.2617 26.9831L25.7631 26.9851C24.9663 26.9882 24.3119 27.3749 24.0835 27.9776C24.0222 28.1393 23.9898 29.578 23.9898 32.1324V36.0396L13.5945 36.0157L3.19928 35.9916L2.77933 35.783C2.54831 35.6683 2.2241 35.4165 2.05883 35.2234C1.44549 34.5071 1.48505 35.5036 1.48505 20.7713V7.47177L20.2316 7.494L38.9782 7.51615L39.001 11.9276ZM5.69703 10.5422C5.24588 10.6303 4.83078 10.9576 4.64142 11.3745C4.49127 11.705 4.47782 12.003 4.47782 14.9866C4.47782 17.9559 4.4918 18.2689 4.63931 18.5899C4.83139 19.0081 5.02743 19.1955 5.46328 19.3776C5.73466 19.4909 6.30976 19.5127 9.02377 19.5127C12.2059 19.5127 12.2673 19.5094 12.6521 19.315C13.4085 18.933 13.5667 18.4257 13.5144 16.5502C13.4868 15.5634 13.4687 15.4666 13.2715 15.2571C12.9896 14.9574 12.4965 14.9452 12.2278 15.2312C12.0557 15.4145 12.037 15.5427 12.0147 16.7033L11.9902 17.9747L8.97929 17.9978L5.96841 18.0209V15.0316V12.0423L7.48484 12.0422C9.17832 12.0421 9.53918 11.9525 9.69856 11.493C9.8219 11.1377 9.66982 10.7956 9.30798 10.6143C9.04927 10.4847 8.76761 10.4622 7.50682 10.4707C6.68487 10.4761 5.87048 10.5084 5.69703 10.5422ZM12.4737 10.5734C12.2986 10.6614 10.1976 13.0776 9.17401 14.3682L8.96742 14.6286L8.39857 14.0825C7.91427 13.6176 7.78224 13.5364 7.51042 13.5364C7.09531 13.5364 6.75959 13.8547 6.75959 14.2483C6.75959 14.4855 6.89813 14.6699 7.66066 15.4474C8.15629 15.9527 8.6535 16.4019 8.76558 16.4455C9.20434 16.6162 9.36653 16.4681 11.3845 14.0521C12.4695 12.7532 13.3943 11.5931 13.4395 11.4741C13.5682 11.1355 13.3838 10.728 13.036 10.5827C12.6872 10.4371 12.7432 10.438 12.4737 10.5734ZM15.9833 11.5082C15.8284 11.6631 15.7263 11.8578 15.7263 11.9984C15.7263 12.139 15.8284 12.3337 15.9833 12.4885L16.2402 12.7454H19.4615C21.5976 12.7454 22.7423 12.7135 22.8599 12.6506C23.1255 12.5085 23.2851 12.0646 23.1794 11.7615C23.0007 11.249 23.0181 11.2514 19.4801 11.2514H16.2402L15.9833 11.5082ZM15.9922 15.2041C15.6224 15.5738 15.7096 16.1801 16.1659 16.4109C16.3353 16.4965 17.5366 16.5223 21.4116 16.5233L26.4378 16.5246L26.7082 16.297C27.0577 16.003 27.0805 15.5639 26.7628 15.2463L26.5471 15.0305H21.3564C16.3054 15.0305 16.1612 15.0352 15.9922 15.2041ZM35.8738 16.6522C38.419 17.1915 40.3871 19.0977 41.0421 21.6581C41.1985 22.2695 41.2199 22.6322 41.2199 24.6682V26.9831H34.4949H27.7698L27.7713 24.7201C27.773 22.2916 27.8382 21.7367 28.2384 20.7462C28.5996 19.8522 29.0104 19.2425 29.7495 18.5037C30.7303 17.5231 31.7869 16.9362 33.0765 16.6558C33.7941 16.4998 35.1463 16.498 35.8738 16.6522ZM5.27824 23.4409C5.11622 23.5207 4.87886 23.7443 4.75078 23.9378L4.51791 24.2895L4.49294 27.6162C4.46947 30.7342 4.47844 30.9669 4.63632 31.3235C4.72889 31.5329 4.95464 31.8185 5.13784 31.9583L5.47093 32.2124L8.81719 32.2384C12.5179 32.2672 12.6833 32.2472 13.1282 31.7188C13.4667 31.3165 13.5441 30.8672 13.5129 29.4839C13.4861 28.2942 13.4733 28.2151 13.2715 28.0007C13.0078 27.7203 12.5902 27.7011 12.2681 27.9545C12.0418 28.1324 12.0384 28.1519 12.0144 29.4266L11.9902 30.7183L8.97929 30.7415L5.96841 30.7646V27.7753V24.786H7.46567C9.07617 24.786 9.46745 24.7073 9.66155 24.3447C9.80282 24.0809 9.6961 23.5904 9.46174 23.4263C9.16891 23.2212 5.69958 23.2334 5.27824 23.4409ZM12.1091 23.6215C11.9373 23.8028 11.1913 24.6827 10.4513 25.577C9.71131 26.4712 9.07327 27.2396 9.03344 27.2845C8.99142 27.3318 8.72339 27.1379 8.3954 26.8231C7.91419 26.3611 7.78206 26.2801 7.51042 26.2801C7.09514 26.2801 6.75959 26.5984 6.75959 26.9923C6.75959 27.2312 6.90033 27.4159 7.70294 28.2301C8.64752 29.1884 8.87116 29.3353 9.21858 29.2251C9.43018 29.1579 13.313 24.5504 13.4405 24.2152C13.6056 23.7811 13.2344 23.2919 12.74 23.2919C12.4861 23.2919 12.3581 23.3588 12.1091 23.6215ZM15.9833 24.2519C15.8284 24.4067 15.7263 24.6014 15.7263 24.742C15.7263 24.8826 15.8284 25.0773 15.9833 25.2322L16.2402 25.4891H19.4947C22.746 25.4891 22.7494 25.4889 22.969 25.2913C23.3035 24.9905 23.3093 24.5372 22.9828 24.2107L22.767 23.995H19.5037H16.2402L15.9833 24.2519ZM16.0077 27.9524C15.7509 28.1915 15.6854 28.4999 15.8283 28.7978C16.045 29.2496 16.1587 29.2655 19.1835 29.2669L21.9814 29.2682L22.2492 29.0005C22.4807 28.769 22.5099 28.6887 22.4649 28.4073C22.3626 27.7684 22.3926 27.7741 19.1177 27.7741C16.3072 27.7741 16.1919 27.7807 16.0077 27.9524ZM43.5055 29.2178V29.9583L42.223 29.9868C40.9417 30.0153 40.9404 30.0154 40.7286 30.2619C40.4516 30.5841 40.4531 30.9704 40.7325 31.2496C40.9418 31.459 40.9865 31.4654 42.2269 31.4654H43.5055V32.2042V32.9429L42.2231 32.9732C40.9428 33.0033 40.9404 33.0039 40.7287 33.25C40.4577 33.5651 40.4577 33.9358 40.7287 34.2509C40.9404 34.4971 40.9428 34.4976 42.2231 34.5277L43.5055 34.558V35.2967V36.0355H42.2269C40.9865 36.0355 40.9418 36.0419 40.7325 36.2513C40.4531 36.5305 40.4516 36.9168 40.7286 37.239C40.9404 37.4855 40.9417 37.4857 42.223 37.5141L43.5055 37.5426V38.2831V39.0237H42.2269C40.9865 39.0237 40.9418 39.0301 40.7325 39.2394C40.4148 39.5571 40.4376 39.9962 40.7871 40.2902C41.0488 40.5104 41.096 40.5178 42.2435 40.5178H43.4295L43.3711 40.7155C43.0987 41.6386 42.3628 42.5835 41.5879 43.0051C40.6743 43.5023 40.6229 43.5059 34.4949 43.5059C28.4964 43.5059 28.3498 43.4968 27.5151 43.0711C26.6985 42.6546 25.8778 41.6364 25.6164 40.7155L25.5602 40.5178H26.7148C27.8717 40.5178 28.1392 40.4619 28.3604 40.1739C28.5449 39.9336 28.4945 39.4765 28.2573 39.2394C28.048 39.0301 28.0032 39.0237 26.7628 39.0237H25.4842V38.2831V37.5426L26.752 37.5141C27.9535 37.4872 28.0318 37.4745 28.2465 37.2726C28.5486 36.9885 28.5533 36.5472 28.2573 36.2513C28.048 36.0419 28.0032 36.0355 26.7628 36.0355H25.4842V35.2967V34.558L26.7666 34.5277C28.0469 34.4976 28.0494 34.4971 28.2611 34.2509C28.3793 34.1133 28.4731 33.892 28.4731 33.7505C28.4731 33.6089 28.3793 33.3876 28.2611 33.25C28.0494 33.0039 28.0469 33.0033 26.7666 32.9732L25.4842 32.9429V32.2042V31.4654H26.7628C28.0032 31.4654 28.048 31.459 28.2573 31.2496C28.5533 30.9537 28.5486 30.5124 28.2465 30.2283C28.0318 30.0264 27.9535 30.0138 26.752 29.9868L25.4842 29.9583V29.2178V28.4772H34.4949H43.5055V29.2178ZM33.6811 32.4026C33.1579 32.5878 32.5659 33.2061 32.3821 33.7595C32.0317 34.8141 32.5441 36.0731 33.4947 36.4939L33.7477 36.6057V37.5461C33.7477 38.4088 33.7649 38.5066 33.956 38.7287C34.1148 38.9132 34.2432 38.9709 34.4949 38.9709C34.7466 38.9709 34.875 38.9132 35.0338 38.7287C35.2249 38.5066 35.2421 38.4088 35.2421 37.5461V36.6057L35.5186 36.4834C35.9336 36.2998 36.441 35.729 36.5975 35.2696C37.2213 33.4394 35.5088 31.7559 33.6811 32.4026ZM34.8364 33.8498C35.0995 33.9696 35.2821 34.3703 35.208 34.6654C34.9924 35.5244 33.7477 35.3345 33.7477 34.4427C33.7477 34.3446 33.8633 34.1487 34.0046 34.0074C34.2802 33.7318 34.4902 33.692 34.8364 33.8498Z" fill="#E58B0A"/>
</svg>
