<svg width="40" height="40" viewBox="0 0 40 40" fill="none" xmlns="http://www.w3.org/2000/svg">
<path fill-rule="evenodd" clip-rule="evenodd" d="M4.10197 0.125003C3.8012 0.188523 3.25629 0.383849 2.89106 0.559018C2.35194 0.817551 2.10046 1.00405 1.55407 1.55041C1.00721 2.09741 0.821586 2.34781 0.563155 2.88754C-0.0384703 4.14419 0.0005131 2.95825 0.0005131 19.9981C0.0005131 37.038 -0.0384703 35.852 0.563155 37.1087C0.821586 37.6484 1.00721 37.8988 1.55407 38.4458C2.10101 38.9927 2.35139 39.1783 2.89106 39.4368C4.14759 40.0385 2.96176 39.9995 20 39.9995C37.0382 39.9995 35.8524 40.0385 37.1089 39.4368C37.6486 39.1783 37.899 38.9927 38.4459 38.4458C38.9928 37.8988 39.1784 37.6484 39.4368 37.1087C40.0385 35.852 39.9995 37.038 39.9995 19.9981C39.9995 2.95825 40.0385 4.14419 39.4368 2.88754C39.1784 2.34781 38.9928 2.09741 38.4459 1.55041C37.899 1.0035 37.6486 0.817864 37.1089 0.559408C35.8513 -0.042821 37.0478 -0.00406829 19.9447 0.00311971C6.76229 0.00858884 4.57329 0.0253869 4.10197 0.125003ZM35.9555 2.58971C36.528 2.85808 37.1384 3.46852 37.4067 4.04106L37.6167 4.48921V19.9981V35.507L37.4067 35.9551C37.1384 36.5277 36.528 37.1381 35.9555 37.4065L35.5074 37.6165H20H4.49259L4.02486 37.3868C3.42808 37.0938 2.86122 36.5268 2.59326 35.9551L2.38326 35.507V19.9981V4.48921L2.58912 4.05012C2.96286 3.25303 3.64519 2.66455 4.44798 2.44696C4.72711 2.37133 8.15648 2.35344 20.1562 2.36492L35.5074 2.37969L35.9555 2.58971ZM12.6174 7.08572C12.5314 7.10721 12.3639 7.19377 12.2451 7.27816C11.7664 7.61787 11.7971 6.74531 11.7971 19.9981C11.7971 33.3497 11.7597 32.3726 12.2842 32.7467L12.5393 32.9287H15.2873C17.941 32.9287 18.0428 32.9231 18.2511 32.7676C18.3698 32.679 18.5394 32.5094 18.628 32.3908C18.7855 32.1799 18.7896 32.0794 18.8106 27.8445L18.832 23.514L19.7871 23.5139C22.1723 23.5136 24.0518 22.7773 25.7088 21.194C26.749 20.2001 27.5925 18.771 27.9824 17.3417C28.1428 16.7539 28.1629 16.5115 28.1581 15.2321C28.1531 13.898 28.1364 13.7326 27.9423 13.0836C26.9681 9.82622 24.2893 7.52177 20.9976 7.10892C20.3601 7.029 12.9261 7.00837 12.6174 7.08572ZM21.4453 9.5548C22.6217 9.89138 23.7331 10.6024 24.5196 11.5217C25.9666 13.2126 26.2888 15.8719 25.2876 17.8601C24.5307 19.3634 23.2924 20.4205 21.6796 20.9402C21.1955 21.0962 20.9132 21.1218 19.2188 21.1628C17.4083 21.2066 17.2894 21.2187 17.0201 21.3862C16.4707 21.7278 16.4845 21.6002 16.4845 26.358V30.6238H15.3126H14.1408V19.9929V9.36205L17.5587 9.39135C20.4942 9.41658 21.0427 9.43963 21.4453 9.5548ZM17.0502 11.9503C16.9101 12.0357 16.7257 12.2201 16.6403 12.3601C16.4934 12.601 16.485 12.7583 16.4848 15.2725C16.4844 18.3021 16.4876 18.319 17.1105 18.6484C17.4235 18.814 17.5414 18.8261 18.8298 18.8261C19.5906 18.8261 20.4023 18.7903 20.6335 18.7464C21.9719 18.4925 23.1316 17.389 23.4327 16.0826C23.7589 14.6679 23.1045 13.0785 21.8767 12.3033C21.1848 11.8665 20.772 11.7944 18.9674 11.7947C17.4462 11.795 17.2831 11.8082 17.0502 11.9503ZM20.633 14.3157C21.1559 14.6651 21.3104 15.3158 21.0012 15.8661C20.7477 16.3172 20.3474 16.4822 19.5066 16.4822H18.8282V15.3103V14.1383H19.5978C20.268 14.1383 20.4019 14.1613 20.633 14.3157Z" fill="#0092FF"/>
</svg>
