<svg width="75" height="45" viewBox="0 0 75 45" fill="none" xmlns="http://www.w3.org/2000/svg">
<path fill-rule="evenodd" clip-rule="evenodd" d="M40.2614 0.21953C39.6493 0.464 39.1476 0.944408 38.959 1.46648C38.8881 1.66275 36.9777 10.9745 34.7137 22.159C31.8258 36.4246 30.6132 42.6843 30.6514 43.1302C30.8438 45.387 35.255 45.7031 36.0446 43.5165C36.1156 43.3202 38.0259 34.0085 40.29 22.8239C43.1778 8.55834 44.3904 2.29864 44.3523 1.8528C44.2903 1.12527 43.797 0.554984 42.923 0.200469C42.2452 -0.0743665 40.9744 -0.0652791 40.2614 0.21953ZM19.4938 6.53387C19.2215 6.5823 18.8258 6.7175 18.6145 6.83441C18.403 6.95122 14.2326 10.2444 9.3468 14.1522C2.90946 19.3013 0.397539 21.3824 0.223873 21.7105C-0.0859396 22.2961 -0.0749482 22.7701 0.261537 23.3303C0.436522 23.6216 3.24272 25.9547 8.19225 29.9241C19.5526 39.0347 18.7789 38.4814 20.1565 38.4814C22.2008 38.4814 23.5878 36.7728 22.6267 35.4384C22.4655 35.2146 18.8383 32.2331 14.5663 28.8129C10.2943 25.3927 6.79897 22.548 6.79897 22.4915C6.79897 22.435 10.2943 19.5903 14.5663 16.1701C18.8383 12.7499 22.4655 9.76839 22.6267 9.54453C23.72 8.02651 21.7491 6.13248 19.4938 6.53387ZM54.2613 6.52855C52.5096 6.84328 51.5442 8.38834 52.377 9.54453C52.5382 9.76839 56.1653 12.7499 60.4374 16.1701C64.7094 19.5903 68.2047 22.4346 68.2047 22.4908C68.2047 22.547 64.7094 25.3923 60.4374 28.8136C55.1625 33.0382 52.5622 35.2 52.3342 35.5506C51.467 36.8834 52.8371 38.4814 54.8471 38.4814C56.2262 38.4814 55.4805 39.0146 66.8137 29.9231C71.7489 25.9639 74.5686 23.6192 74.7427 23.3293C75.0858 22.7582 75.0858 22.2247 74.7427 21.6537C74.5686 21.3638 71.7489 19.019 66.8137 15.0599C57.8765 7.89042 56.6078 6.89991 56.1141 6.70642C55.6046 6.50694 54.8075 6.43036 54.2613 6.52855Z" fill="#0E0BA0"/>
</svg>
