<svg width="39" height="45" viewBox="0 0 39 45" fill="none" xmlns="http://www.w3.org/2000/svg">
<path d="M38.5154 22.1879L34.554 16.1639C34.4619 15.9849 34.3975 15.7932 34.3629 15.5951C33.9708 11.2057 31.8894 7.13603 28.5526 4.23395C25.2158 1.33187 20.8808 -0.178736 16.451 0.0168801C12.0211 0.212496 7.83808 2.09925 4.77342 5.28401C1.70875 8.46877 -0.00114669 12.7059 5.76954e-07 17.1125C0.0384131 19.8809 0.666499 22.6098 1.8429 25.1196C3.0193 27.6293 4.71732 29.8629 6.82516 31.6733C6.95714 31.7796 7.0428 31.9324 7.06432 32.0999V41.0165C7.05255 41.7218 7.31301 42.4048 7.79219 42.9252C8.27138 43.4456 8.9329 43.7639 9.64088 43.8147L23.1951 45H23.4343C24.1864 44.9914 24.9045 44.6876 25.432 44.1548C25.9595 43.622 26.2535 42.9035 26.25 42.1561V36.6064H30.2594C31.3455 36.5985 32.3849 36.1662 33.1529 35.4029C33.9209 34.6397 34.3559 33.6068 34.3639 32.5275V27.1677H35.7008C36.2772 27.1691 36.8432 27.0155 37.3389 26.7231C37.8346 26.4308 38.2415 26.0106 38.5165 25.5071C38.8323 25.0103 39 24.4347 39 23.847C39 23.2593 38.8323 22.6837 38.5165 22.1869L38.5154 22.1879ZM35.7948 24.2274H33.5044C32.9738 24.2305 32.4659 24.4414 32.0908 24.8143C31.7156 25.1871 31.5034 25.6918 31.5002 26.2191V32.5275C31.5017 32.6835 31.4719 32.8383 31.4125 32.9828C31.353 33.1273 31.2653 33.2586 31.1542 33.3689C31.0431 33.4793 30.9111 33.5665 30.7657 33.6256C30.6203 33.6846 30.4645 33.7143 30.3075 33.7128H25.5826C25.2878 33.7126 24.9959 33.7703 24.7235 33.8825C24.4512 33.9947 24.2038 34.1593 23.9956 34.3667C23.7874 34.574 23.6224 34.8202 23.5101 35.0911C23.3978 35.362 23.3405 35.6523 23.3413 35.9452L23.4363 42.2059L10.0252 41.0196V32.0532C10.0167 31.5488 9.90194 31.0519 9.68822 30.5944C9.47451 30.1369 9.16661 29.729 8.78441 29.3972C6.99714 27.8629 5.55478 25.9721 4.5511 23.8476C3.54742 21.723 3.0049 19.4124 2.9588 17.0658C2.96097 13.3052 4.46517 9.69921 7.14098 7.04006C9.81678 4.3809 13.4453 2.88604 17.2295 2.88389C20.8022 2.86139 24.2507 4.18489 26.8808 6.58791C29.5108 8.99094 31.1271 12.295 31.4041 15.8348C31.4551 16.4858 31.6506 17.1174 31.9764 17.6844L35.9859 23.7551C36.0092 23.7989 36.0213 23.8477 36.0213 23.8973C36.0213 23.9468 36.0092 23.9956 35.9859 24.0395C35.9884 24.065 35.9852 24.0908 35.9765 24.115C35.9678 24.1392 35.9538 24.1612 35.9356 24.1794C35.9173 24.1975 35.8952 24.2114 35.8708 24.2201C35.8465 24.2287 35.8205 24.2319 35.7948 24.2294V24.2274Z" fill="#0092FF"/>
<path d="M20.6647 14.8828H14.8932C14.6277 14.8842 14.3735 14.9896 14.1858 15.1762C13.998 15.3627 13.892 15.6154 13.8906 15.8792V21.6686C13.892 21.9324 13.998 22.1851 14.1858 22.3717C14.3735 22.5582 14.6277 22.6636 14.8932 22.665H20.7189C20.9843 22.6634 21.2383 22.5579 21.426 22.3714C21.6137 22.1849 21.7198 21.9324 21.7215 21.6686V15.8792C21.7093 15.6095 21.5924 15.355 21.3953 15.1692C21.1982 14.9834 20.9363 14.8807 20.6647 14.8828ZM15.8437 20.6722V16.8736H19.6621V20.6681L15.8437 20.6722Z" fill="#0092FF"/>
<path d="M27.5845 15.9273C27.8504 15.9273 28.1054 15.8224 28.2934 15.6355C28.4815 15.4487 28.5871 15.1952 28.5871 14.931C28.5871 14.6667 28.4815 14.4133 28.2934 14.2264C28.1054 14.0396 27.8504 13.9346 27.5845 13.9346H25.4842C25.4812 13.168 25.1735 12.4337 24.6281 11.8917C24.0827 11.3497 23.3438 11.0439 22.5724 11.0409V8.9537C22.5724 8.68945 22.4668 8.43601 22.2788 8.24915C22.0907 8.0623 21.8357 7.95732 21.5698 7.95732C21.3039 7.95732 21.0489 8.0623 20.8608 8.24915C20.6728 8.43601 20.5672 8.68945 20.5672 8.9537V11.0409H18.706V8.9537C18.706 8.68945 18.6004 8.43601 18.4124 8.24915C18.2244 8.0623 17.9693 7.95732 17.7034 7.95732C17.4375 7.95732 17.1825 8.0623 16.9945 8.24915C16.8064 8.43601 16.7008 8.68945 16.7008 8.9537V11.0409H14.8407V8.9537C14.8391 8.68994 14.7329 8.43743 14.5453 8.25092C14.3576 8.06441 14.1035 7.95892 13.8381 7.95732C13.7056 7.95412 13.5737 7.9777 13.4506 8.02664C13.3275 8.07558 13.2157 8.14886 13.122 8.24203C13.0282 8.33519 12.9545 8.44631 12.9052 8.56865C12.856 8.69098 12.8323 8.82198 12.8355 8.9537V11.0409C12.0641 11.0439 11.3252 11.3497 10.7798 11.8917C10.2344 12.4337 9.92666 13.168 9.9237 13.9346H7.81932C7.55382 13.9359 7.29958 14.0413 7.11185 14.2279C6.92411 14.4145 6.81804 14.6671 6.8167 14.931C6.81347 15.0627 6.83721 15.1937 6.88645 15.316C6.9357 15.4384 7.00942 15.5495 7.10318 15.6426C7.19693 15.7358 7.30876 15.8091 7.43186 15.858C7.55496 15.907 7.68677 15.9305 7.81932 15.9273H9.91959V17.7769H7.81932C7.55341 17.7769 7.29839 17.8819 7.11037 18.0687C6.92234 18.2556 6.8167 18.509 6.8167 18.7733C6.8167 19.0375 6.92234 19.291 7.11037 19.4778C7.29839 19.6647 7.55341 19.7697 7.81932 19.7697H9.91959V21.5715H7.81932C7.55341 21.5715 7.29839 21.6764 7.11037 21.8633C6.92234 22.0502 6.8167 22.3036 6.8167 22.5679C6.8167 22.8321 6.92234 23.0855 7.11037 23.2724C7.29839 23.4593 7.55341 23.5642 7.81932 23.5642H9.91959C9.92255 24.3308 10.2303 25.0651 10.7757 25.6071C11.3211 26.1491 12.06 26.455 12.8314 26.4579V28.5451C12.833 28.8089 12.9391 29.0614 13.1268 29.2479C13.3145 29.4344 13.5686 29.5399 13.834 29.5415C13.9665 29.5447 14.0984 29.5211 14.2215 29.4722C14.3446 29.4232 14.4564 29.35 14.5501 29.2568C14.6439 29.1636 14.7176 29.0525 14.7669 28.9302C14.8161 28.8078 14.8398 28.6768 14.8366 28.5451V26.4579H16.6977V28.5451C16.6977 28.8094 16.8034 29.0628 16.9914 29.2497C17.1794 29.4365 17.4345 29.5415 17.7004 29.5415C17.9663 29.5415 18.2213 29.4365 18.4093 29.2497C18.5974 29.0628 18.703 28.8094 18.703 28.5451V26.4579H20.5641V28.5451C20.5641 28.676 20.59 28.8055 20.6404 28.9264C20.6908 29.0473 20.7647 29.1571 20.8578 29.2497C20.9509 29.3422 21.0614 29.4156 21.183 29.4656C21.3047 29.5157 21.4351 29.5415 21.5667 29.5415C21.6984 29.5415 21.8288 29.5157 21.9504 29.4656C22.0721 29.4156 22.1826 29.3422 22.2757 29.2497C22.3688 29.1571 22.4426 29.0473 22.493 28.9264C22.5434 28.8055 22.5694 28.676 22.5694 28.5451V26.4579C23.3407 26.455 24.0796 26.1491 24.625 25.6071C25.1704 25.0651 25.4782 24.3308 25.4811 23.5642H27.5814C27.8473 23.5642 28.1023 23.4593 28.2904 23.2724C28.4784 23.0855 28.584 22.8321 28.584 22.5679C28.584 22.3036 28.4784 22.0502 28.2904 21.8633C28.1023 21.6764 27.8473 21.5715 27.5814 21.5715H25.4811V19.7219H27.5814C27.8469 19.7206 28.1011 19.6152 28.2889 19.4286C28.4766 19.242 28.5827 18.9894 28.584 18.7255C28.5823 18.5974 28.5549 18.4709 28.5033 18.3534C28.4517 18.2359 28.377 18.1299 28.2836 18.0415C28.1902 17.9531 28.08 17.8842 27.9594 17.8388C27.8388 17.7933 27.7103 17.7723 27.5814 17.7769H25.4811V15.9273H27.5845ZM22.6204 24.4651H12.9295C12.6891 24.4651 12.4585 24.3702 12.2885 24.2013C12.1185 24.0323 12.023 23.8032 12.023 23.5642V13.9356C12.023 13.6967 12.1185 13.4675 12.2885 13.2986C12.4585 13.1296 12.6891 13.0347 12.9295 13.0347H22.5704C22.8108 13.0347 23.0414 13.1296 23.2114 13.2986C23.3814 13.4675 23.4769 13.6967 23.4769 13.9356V23.5165C23.4872 23.6357 23.4726 23.7558 23.4343 23.8692C23.396 23.9826 23.3346 24.0871 23.2541 24.176C23.1735 24.2649 23.0754 24.3364 22.9659 24.3862C22.8564 24.4359 22.7378 24.4628 22.6174 24.4651H22.6204Z" fill="#0092FF"/>
</svg>
