<svg width="43" height="40" viewBox="0 0 43 40" fill="none" xmlns="http://www.w3.org/2000/svg">
<path d="M1.02357 36.1543C0.353299 34.9875 0 33.6598 0 32.3077C0 30.9557 0.353299 29.628 1.02357 28.4612L14.9686 3.84729C15.6312 2.67758 16.5842 1.70623 17.7319 1.03089C18.8795 0.355542 20.1814 0 21.5066 0C22.8318 0 24.1337 0.355542 25.2813 1.03089C26.429 1.70623 27.382 2.67758 28.0445 3.84729L41.9887 28.4603C42.6513 29.6298 43 30.9565 43 32.307C43 33.6574 42.6512 34.9841 41.9886 36.1536C41.326 37.3231 40.3731 38.2942 39.2255 38.9694C38.078 39.6446 36.7763 40 35.4512 39.9999H7.5682C6.2415 40.0077 4.93668 39.6554 3.78776 38.9793C2.63884 38.3031 1.68722 37.3274 1.03069 36.1524L1.02357 36.1543ZM3.07183 34.9498C3.52282 35.7568 4.17642 36.4268 4.96553 36.8911C5.75464 37.3555 6.65079 37.5973 7.56196 37.5919H35.4468C36.3572 37.5926 37.2517 37.3489 38.0404 36.8854C38.8291 36.4218 39.4841 35.7548 39.9396 34.9514C40.3951 34.148 40.6349 33.2365 40.6351 32.3086C40.6353 31.3808 40.3957 30.4692 39.9405 29.6656L25.9972 5.05444C25.5422 4.25092 24.8876 3.58366 24.0994 3.11972C23.3111 2.65579 22.4169 2.41155 21.5066 2.41155C20.5963 2.41155 19.7021 2.65579 18.9138 3.11972C18.1255 3.58366 17.471 4.25092 17.016 5.05444L3.07183 29.6656C2.61156 30.4671 2.36897 31.3791 2.36897 32.3077C2.36897 33.2364 2.61156 34.1483 3.07183 34.9498ZM18.6564 24.2598L18.2352 12.3699C18.2215 11.9799 18.2851 11.591 18.4222 11.2266C18.5593 10.8622 18.7671 10.5297 19.0331 10.249C19.2991 9.96821 19.6179 9.74497 19.9704 9.59258C20.3229 9.4402 20.702 9.36178 21.0849 9.36203H21.9274C22.3104 9.36178 22.6895 9.44022 23.0421 9.59266C23.3947 9.74511 23.7135 9.96843 23.9795 10.2493C24.2456 10.5301 24.4533 10.8628 24.5903 11.2273C24.7274 11.5918 24.7909 11.9807 24.7771 12.3708L24.3559 24.2607C24.3241 25.0085 24.0102 25.715 23.4798 26.2327C22.9493 26.7504 22.2433 27.0394 21.5088 27.0394C20.7744 27.0394 20.0683 26.7504 19.5378 26.2327C19.0074 25.715 18.6935 25.0085 18.6617 24.2607L18.6564 24.2598ZM20.5978 12.2791L21.019 24.1691C21.0244 24.2962 21.0777 24.4164 21.1679 24.5044C21.2581 24.5925 21.3781 24.6416 21.503 24.6416C21.6279 24.6416 21.748 24.5925 21.8382 24.5044C21.9284 24.4164 21.9817 24.2962 21.987 24.1691L22.4083 12.2791C22.4107 12.2128 22.3999 12.1466 22.3766 12.0846C22.3534 12.0226 22.3181 11.966 22.2728 11.9182C22.2276 11.8704 22.1734 11.8324 22.1134 11.8065C22.0534 11.7805 21.989 11.7672 21.9238 11.7672H21.0814C21.0163 11.7673 20.9519 11.7808 20.892 11.8068C20.8322 11.8327 20.778 11.8708 20.7329 11.9185C20.6878 11.9663 20.6526 12.0229 20.6293 12.0848C20.6061 12.1468 20.5954 12.2129 20.5978 12.2791ZM18.1862 31.9111C18.1864 31.2425 18.3811 30.5889 18.7457 30.033C19.1103 29.4772 19.6284 29.044 20.2346 28.7882C20.8408 28.5324 21.5078 28.4656 22.1512 28.5962C22.7946 28.7267 23.3856 29.0488 23.8495 29.5217C24.3133 29.9945 24.6292 30.597 24.7571 31.2528C24.885 31.9086 24.8193 32.5883 24.5682 33.206C24.3171 33.8238 23.8919 34.3517 23.3464 34.7232C22.8009 35.0947 22.1595 35.2929 21.5035 35.2929C20.6249 35.291 19.7829 34.9343 19.1618 34.301C18.5407 33.6676 18.1912 32.8093 18.1898 31.9138L18.1862 31.9111ZM20.5506 31.9111C20.5506 32.1032 20.6065 32.2909 20.7112 32.4507C20.8159 32.6104 20.9647 32.7348 21.1388 32.8083C21.3129 32.8818 21.5045 32.9011 21.6894 32.8636C21.8742 32.8261 22.044 32.7336 22.1773 32.5978C22.3105 32.462 22.4013 32.289 22.438 32.1006C22.4748 31.9122 22.4559 31.7169 22.3838 31.5395C22.3117 31.362 22.1896 31.2103 22.0329 31.1036C21.8762 30.9969 21.6919 30.9399 21.5035 30.9399C21.251 30.9411 21.0093 31.0443 20.8313 31.2269C20.6533 31.4095 20.5537 31.6565 20.5542 31.9138L20.5506 31.9111Z" fill="#0BB326"/>
</svg>
