<svg width="55" height="45" viewBox="0 0 55 45" fill="none" xmlns="http://www.w3.org/2000/svg">
<path d="M47.9355 0C46.0646 0.00775469 44.2724 0.785622 42.9494 2.16412C41.6264 3.54262 40.8799 5.41003 40.8725 7.35951C40.8682 8.31144 41.0451 9.2548 41.3929 10.1351C41.7407 11.0153 42.2525 11.815 42.8987 12.4879L36.1826 24.1309C34.6125 23.628 32.9185 23.757 31.4353 24.4925L26.3984 18.0378C27.1577 16.899 27.5909 15.559 27.6477 14.1737C27.7045 12.7883 27.3825 11.4147 26.7192 10.2126C26.0558 9.01056 25.0785 8.02955 23.9009 7.38376C22.7233 6.73798 21.3939 6.45399 20.0674 6.56485C18.7409 6.67572 17.4719 7.17688 16.4082 8.01C15.3444 8.84312 14.5297 9.97392 14.0587 11.2708C13.5878 12.5676 13.48 13.9772 13.748 15.3354C14.016 16.6936 14.6487 17.9445 15.5724 18.9426L8.91384 30.5856C8.31386 30.3918 7.69017 30.2892 7.06206 30.281C5.66534 30.2812 4.30002 30.7129 3.13872 31.5215C1.97743 32.3301 1.07229 33.4793 0.537736 34.8239C0.00318603 36.1684 -0.136771 37.6479 0.135552 39.0754C0.407875 40.5028 1.08026 41.8141 2.06769 42.8434C3.05512 43.8727 4.31327 44.5738 5.68308 44.8582C7.05289 45.1425 8.47286 44.9973 9.76347 44.4409C11.0541 43.8844 12.1574 42.9418 12.9339 41.7321C13.7104 40.5224 14.1253 39.0999 14.1261 37.6445C14.1393 35.7505 13.4313 33.9282 12.1574 32.5771L18.815 20.8741C20.385 21.3771 22.0791 21.2481 23.5623 20.5126L28.5991 26.9673C27.9493 27.9112 27.5232 29.002 27.3559 30.1505C27.1885 31.299 27.2846 32.4724 27.6362 33.5747C27.9878 34.6771 28.585 35.677 29.3789 36.4925C30.1728 37.3081 31.1407 37.9161 32.2035 38.2669C33.2663 38.6176 34.3938 38.7011 35.4935 38.5105C36.5932 38.3199 37.634 37.8605 38.5305 37.1701C39.4271 36.4797 40.154 35.5779 40.6517 34.5384C41.1494 33.499 41.4037 32.3514 41.3939 31.1899C41.3981 30.2379 41.2212 29.2946 40.8734 28.4143C40.5256 27.5341 40.0139 26.7344 39.3676 26.0614L46.0262 14.4184C46.6452 14.6169 47.2888 14.7196 47.9365 14.7231C49.8098 14.7231 51.6065 13.9477 52.9311 12.5674C54.2558 11.1871 55 9.31507 55 7.36307C55 5.41107 54.2558 3.53902 52.9311 2.15874C51.6065 0.778472 49.8098 0.00304491 47.9365 0.00304491L47.9355 0ZM7.06012 41.143C6.39606 41.143 5.74691 40.9378 5.19476 40.5534C4.64261 40.169 4.21227 39.6226 3.95815 38.9834C3.70402 38.3441 3.63753 37.6407 3.76708 36.962C3.89663 36.2834 4.21641 35.66 4.68597 35.1707C5.15553 34.6815 5.75379 34.3483 6.40509 34.2133C7.05639 34.0783 7.73148 34.1476 8.345 34.4124C8.95851 34.6772 9.48288 35.1256 9.85182 35.7009C10.2207 36.2762 10.4177 36.9526 10.4177 37.6445C10.4169 38.5722 10.0629 39.4615 9.43341 40.1175C8.80391 40.7734 7.95036 41.1422 7.06012 41.143ZM17.3082 13.8152C17.3082 13.1233 17.5051 12.4469 17.874 11.8716C18.243 11.2962 18.7674 10.8478 19.3809 10.583C19.9944 10.3182 20.6695 10.249 21.3208 10.3839C21.9721 10.5189 22.5703 10.8521 23.0399 11.3414C23.5095 11.8307 23.8292 12.4541 23.9588 13.1327C24.0883 13.8113 24.0218 14.5148 23.7677 15.154C23.5136 15.7933 23.0833 16.3397 22.5311 16.7241C21.979 17.1085 21.3298 17.3137 20.6657 17.3137C19.7755 17.3129 18.922 16.944 18.2925 16.2881C17.663 15.6322 17.309 14.7428 17.3082 13.8152ZM34.3299 34.6883C33.6658 34.6883 33.0167 34.4832 32.4645 34.0987C31.9124 33.7143 31.482 33.1679 31.2279 32.5287C30.9738 31.8894 30.9073 31.186 31.0368 30.5073C31.1664 29.8287 31.4861 29.2053 31.9557 28.7161C32.4253 28.2268 33.0235 27.8936 33.6748 27.7586C34.3261 27.6236 35.0012 27.6929 35.6147 27.9577C36.2283 28.2225 36.7526 28.6709 37.1216 29.2462C37.4905 29.8215 37.6874 30.4979 37.6874 31.1899C37.6866 32.1175 37.3326 33.0069 36.7032 33.6628C36.0737 34.3187 35.2201 34.6875 34.3299 34.6883ZM47.9355 10.859C47.2714 10.859 46.6223 10.6538 46.0701 10.2694C45.518 9.885 45.0876 9.33861 44.8335 8.69935C44.5794 8.06008 44.5129 7.35665 44.6424 6.67801C44.772 5.99937 45.0918 5.376 45.5613 4.88672C46.0309 4.39745 46.6292 4.06426 47.2805 3.92927C47.9318 3.79428 48.6069 3.86356 49.2204 4.12835C49.8339 4.39314 50.3583 4.84156 50.7272 5.41688C51.0961 5.9922 51.293 6.6686 51.293 7.36054C51.2923 8.28815 50.9383 9.17753 50.3088 9.83345C49.6793 10.4894 48.8257 10.8582 47.9355 10.859Z" fill="#F77C5F"/>
</svg>
