<svg width="45" height="45" viewBox="0 0 45 45" fill="none" xmlns="http://www.w3.org/2000/svg">
<path fill-rule="evenodd" clip-rule="evenodd" d="M8.08594 2.63672V5.27344H9.4043H10.7227V3.95508V2.63672H12.041H13.3594V1.31836V0H10.7227H8.08594V2.63672ZM15.9961 1.31836V2.63672H18.6328H21.2695V1.31836V0H18.6328H15.9961V1.31836ZM23.9062 1.31836V2.63672H26.543H29.1797V1.31836V0H26.543H23.9062V1.31836ZM31.8164 1.31836V2.63672H34.4531H37.0898V1.31836V0H34.4531H31.8164V1.31836ZM39.7266 1.31836V2.63672H41.0449H42.3633V3.95508V5.27344H43.6816H45V2.63672V0H42.3633H39.7266V1.31836ZM8.08594 10.5469V13.1836H9.4043H10.7227V10.5469V7.91016H9.4043H8.08594V10.5469ZM26.543 9.22852V10.5469H29.5529H32.5628L28.4542 14.6561C26.1946 16.9162 24.3457 18.8055 24.3457 18.8546C24.3457 18.9687 26.0343 20.6543 26.1487 20.6543C26.196 20.6543 28.0838 18.8054 30.3439 16.5458L34.4531 12.4372V15.4471V18.457H35.7715H37.0898V13.1836V7.91016H31.8164H26.543V9.22852ZM42.3633 10.5469V13.1836H43.6816H45V10.5469V7.91016H43.6816H42.3633V10.5469ZM8.08594 18.457V21.0938H9.4043H10.7227V18.457V15.8203H9.4043H8.08594V18.457ZM42.3633 18.457V21.0938H43.6816H45V18.457V15.8203H43.6816H42.3633V18.457ZM42.3633 26.3672V29.0039H43.6816H45V26.3672V23.7305H43.6816H42.3633V26.3672ZM0 34.4531V45H10.5469H21.0938V34.4531V23.9062H10.5469H0V34.4531ZM18.457 34.4531V42.3633H10.5469H2.63672V34.4531V26.543H10.5469H18.457V34.4531ZM42.3633 32.959V34.2773H41.0449H39.7266V35.5957V36.9141H42.3633H45V34.2773V31.6406H43.6816H42.3633V32.959ZM23.9062 35.5957V36.9141H26.543H29.1797V35.5957V34.2773H26.543H23.9062V35.5957ZM31.8164 35.5957V36.9141H34.4531H37.0898V35.5957V34.2773H34.4531H31.8164V35.5957Z" fill="#A8033F"/>
</svg>
