<svg width="37" height="47" viewBox="0 0 37 47" fill="none" xmlns="http://www.w3.org/2000/svg">
<path d="M30.7953 1H6.20469C5.52081 1.0004 4.84371 1.13711 4.21203 1.40232C3.58036 1.66754 3.00647 2.05605 2.52317 2.5457C2.03987 3.03535 1.65661 3.61652 1.39527 4.25606C1.13392 4.8956 0.999605 5.58097 1 6.27303V40.727C1.00027 42.1243 1.54851 43.4645 2.52435 44.4531C3.50019 45.4418 4.82385 45.9981 6.20469 46H30.7953C32.1761 45.9981 33.4998 45.4418 34.4757 44.4531C35.4515 43.4645 35.9997 42.1243 36 40.727V6.26694C36.0003 5.57521 35.8658 4.89019 35.6044 4.25106C35.3429 3.61192 34.9595 3.03119 34.4762 2.54206C33.9928 2.05293 33.419 1.66497 32.7874 1.40038C32.1558 1.13579 31.4789 0.999734 30.7953 1ZM33.1614 40.727C33.1623 41.0415 33.1017 41.3532 32.9832 41.644C32.8647 41.9348 32.6905 42.199 32.4707 42.4214C32.2509 42.6438 31.9898 42.8201 31.7025 42.94C31.4151 43.06 31.1072 43.1212 30.7963 43.1203H6.20469C5.57761 43.1198 4.97636 42.8674 4.53295 42.4187C4.08953 41.97 3.84019 41.3615 3.83966 40.727V6.26694C3.83913 5.95216 3.89989 5.64036 4.01847 5.34935C4.13705 5.05833 4.31113 4.79381 4.53076 4.5709C4.75039 4.34799 5.01127 4.17105 5.29849 4.05019C5.58571 3.92932 5.89363 3.86691 6.20469 3.86651H30.7953C31.1064 3.86691 31.4143 3.92932 31.7015 4.05019C31.9887 4.17105 32.2496 4.34799 32.4692 4.5709C32.6889 4.79381 32.8629 5.05833 32.9815 5.34935C33.1001 5.64036 33.1609 5.95216 33.1604 6.26694L33.1614 40.727Z" fill="#0BB326" stroke="#0BB326" stroke-width="0.5"/>
<path d="M10.4402 6.74414C9.78526 6.74414 9.14506 6.94067 8.60052 7.30886C8.05599 7.67706 7.63157 8.20039 7.38095 8.81268C7.13033 9.42497 7.06477 10.0987 7.19254 10.7487C7.3203 11.3987 7.63567 11.9958 8.09875 12.4644C8.56184 12.933 9.15185 13.2522 9.79417 13.3815C10.4365 13.5108 11.1023 13.4444 11.7073 13.1908C12.3124 12.9372 12.8295 12.5077 13.1934 11.9566C13.5572 11.4056 13.7514 10.7577 13.7514 10.095C13.7514 9.2063 13.4026 8.354 12.7816 7.72559C12.1606 7.09718 11.3184 6.74414 10.4402 6.74414ZM10.4402 10.5682C10.3471 10.5676 10.2563 10.5391 10.1792 10.4862C10.1022 10.4334 10.0423 10.3586 10.0073 10.2714C9.9722 10.1841 9.96348 10.0883 9.98222 9.99607C10.001 9.90381 10.0463 9.81924 10.1126 9.75307C10.1788 9.68689 10.2629 9.64208 10.3543 9.6243C10.4457 9.60651 10.5403 9.61656 10.626 9.65316C10.7118 9.68976 10.7849 9.75127 10.8361 9.82992C10.8874 9.90856 10.9144 10.0008 10.9138 10.095C10.9127 10.2212 10.8623 10.3419 10.7735 10.4306C10.6848 10.5192 10.5649 10.5687 10.4402 10.5682Z" fill="#0BB326"/>
<path d="M10.4402 20.1445C9.78505 20.1445 9.14464 20.3412 8.6 20.7096C8.05536 21.078 7.63095 21.6017 7.38048 22.2142C7.13 22.8268 7.06473 23.5008 7.1929 24.151C7.32108 24.8011 7.63694 25.3982 8.10053 25.8666C8.56412 26.335 9.1546 26.6538 9.79725 26.7825C10.4399 26.9112 11.1058 26.8441 11.7108 26.5897C12.3158 26.3353 12.8326 25.905 13.1958 25.3533C13.5591 24.8016 13.7524 24.1533 13.7514 23.4903C13.7501 22.6025 13.4006 21.7515 12.7798 21.1242C12.159 20.4969 11.3175 20.1445 10.4402 20.1445ZM10.4402 23.9747C10.3468 23.9746 10.2554 23.9467 10.1777 23.8943C10.0999 23.8419 10.0392 23.7674 10.0032 23.6802C9.96719 23.593 9.95747 23.4969 9.97527 23.4041C9.99306 23.3113 10.0376 23.2259 10.1032 23.1586C10.1688 23.0914 10.2527 23.0452 10.3441 23.0261C10.4356 23.0069 10.5306 23.0155 10.6173 23.0509C10.7039 23.0862 10.7783 23.1467 10.8311 23.2247C10.8838 23.3027 10.9126 23.3948 10.9138 23.4893C10.914 23.617 10.8644 23.7397 10.7757 23.8307C10.687 23.9216 10.5664 23.9733 10.4402 23.9747Z" fill="#0BB326"/>
<path d="M10.4402 33.5449C9.78526 33.5449 9.14506 33.7414 8.60052 34.1096C8.05599 34.4778 7.63157 35.0012 7.38095 35.6135C7.13033 36.2257 7.06477 36.8995 7.19254 37.5495C7.3203 38.1995 7.63567 38.7966 8.09875 39.2652C8.56184 39.7338 9.15185 40.053 9.79417 40.1823C10.4365 40.3115 11.1023 40.2452 11.7073 39.9916C12.3124 39.738 12.8295 39.3085 13.1934 38.7574C13.5572 38.2064 13.7514 37.5585 13.7514 36.8958C13.7514 36.0071 13.4026 35.1548 12.7816 34.5264C12.1606 33.898 11.3184 33.5449 10.4402 33.5449ZM10.4402 37.3751C10.3465 37.3751 10.2549 37.3469 10.177 37.2943C10.0991 37.2416 10.0384 37.1668 10.0026 37.0792C9.96675 36.9916 9.95738 36.8952 9.97565 36.8023C9.99392 36.7093 10.039 36.6239 10.1053 36.5569C10.1715 36.4899 10.2559 36.4442 10.3478 36.4257C10.4396 36.4072 10.5349 36.4167 10.6214 36.453C10.7079 36.4893 10.7819 36.5507 10.834 36.6295C10.886 36.7083 10.9138 36.801 10.9138 36.8958C10.9138 37.0229 10.8639 37.1448 10.7751 37.2347C10.6862 37.3246 10.5658 37.3751 10.4402 37.3751Z" fill="#0BB326"/>
<path d="M28.4515 8.65871H17.0969C16.7221 8.65871 16.3626 8.80939 16.0975 9.07761C15.8325 9.34582 15.6836 9.7096 15.6836 10.0889C15.6836 10.4682 15.8325 10.832 16.0975 11.1002C16.3626 11.3684 16.7221 11.5191 17.0969 11.5191H28.4515C28.6403 11.5242 28.8281 11.491 29.004 11.4214C29.1799 11.3518 29.3402 11.2473 29.4755 11.114C29.6108 10.9806 29.7183 10.8213 29.7917 10.6452C29.8652 10.4692 29.903 10.28 29.903 10.0889C29.903 9.89782 29.8652 9.70867 29.7917 9.53262C29.7183 9.35656 29.6108 9.19717 29.4755 9.06386C29.3402 8.93055 29.1799 8.82602 29.004 8.75643C28.8281 8.68685 28.6403 8.65362 28.4515 8.65871Z" fill="#0BB326"/>
<path d="M28.4497 22.0591H17.0951C16.7187 22.0591 16.3576 22.2104 16.0915 22.4798C15.8253 22.7492 15.6758 23.1145 15.6758 23.4954C15.6758 23.8763 15.8253 24.2417 16.0915 24.511C16.3576 24.7804 16.7187 24.9317 17.0951 24.9317H28.4497C28.6393 24.9368 28.8279 24.9034 29.0045 24.8335C29.1811 24.7637 29.3421 24.6587 29.478 24.5248C29.6138 24.3909 29.7218 24.2309 29.7956 24.0541C29.8693 23.8773 29.9073 23.6873 29.9073 23.4954C29.9073 23.3035 29.8693 23.1135 29.7956 22.9367C29.7218 22.7599 29.6138 22.5999 29.478 22.466C29.3421 22.3321 29.1811 22.2272 29.0045 22.1573C28.8279 22.0874 28.6393 22.054 28.4497 22.0591Z" fill="#0BB326"/>
<path d="M28.4515 35.4648H17.0969C16.7221 35.4648 16.3626 35.6156 16.0975 35.8838C15.8325 36.152 15.6836 36.5157 15.6836 36.8951C15.6836 37.2744 15.8325 37.6382 16.0975 37.9064C16.3626 38.1746 16.7221 38.3253 17.0969 38.3253H28.4515C28.8264 38.3253 29.1858 38.1746 29.4509 37.9064C29.7159 37.6382 29.8648 37.2744 29.8648 36.8951C29.8648 36.5157 29.7159 36.152 29.4509 35.8838C29.1858 35.6156 28.8264 35.4648 28.4515 35.4648Z" fill="#0BB326"/>
</svg>
