<svg width="18" height="18" viewBox="0 0 18 18" fill="none" xmlns="http://www.w3.org/2000/svg">
<path d="M1.60577 4.73094L9 0.46188L16.3942 4.73094V13.2691L9 17.5381L1.60577 13.2691V4.73094Z" stroke="#410EAD" stroke-width="0.8"/>
<path d="M12.9997 6.17472C12.9997 6.22686 12.9755 6.28246 12.9616 6.3346C12.903 6.54321 12.7821 6.7288 12.6151 6.86635L11.4543 7.87425L11.3608 7.95418L11.7073 8.5902L11.7627 8.55197C11.831 8.49081 11.9106 8.44374 11.997 8.41343C12.0834 8.38313 12.1749 8.37019 12.2662 8.37535C12.3576 8.38052 12.4471 8.40368 12.5295 8.44353C12.612 8.48337 12.6858 8.53912 12.7468 8.60758C12.8078 8.67604 12.8547 8.75588 12.8849 8.84253C12.9151 8.92919 12.928 9.02096 12.9229 9.11262C12.9177 9.20428 12.8946 9.29402 12.8549 9.37672C12.8152 9.45942 12.7596 9.53347 12.6913 9.59463C12.6047 9.68499 12.5112 9.7684 12.4176 9.85876L12.4592 9.94218C12.5909 10.1785 12.7225 10.4114 12.8507 10.6373C12.9446 10.779 12.9834 10.9503 12.9597 11.1187C12.9361 11.2872 12.8517 11.4411 12.7225 11.5513L12.2028 12.1074L9.60056 9.49036C9.40652 9.65718 9.22288 9.81358 9.0427 9.97346C9.03755 9.98554 9.0349 9.99855 9.0349 10.0117C9.0349 10.0248 9.03755 10.0378 9.0427 10.0499C9.1016 10.3697 9.16744 10.6859 9.23327 11.0057C9.24171 11.0336 9.2416 11.0635 9.23295 11.0913C9.2243 11.1192 9.20752 11.1439 9.18476 11.1621L8.26654 12.0796L8.22149 11.9962C7.98934 11.5305 7.75719 11.0613 7.5285 10.606C7.50614 10.5628 7.47105 10.5276 7.42801 10.5052L6.04201 9.81011L5.94499 9.7545C5.97659 9.73471 6.0067 9.71264 6.03508 9.68846C6.31921 9.40695 6.60334 9.12196 6.88401 8.83696C6.89968 8.81711 6.92099 8.8025 6.94511 8.79505C6.96924 8.78761 6.99506 8.78768 7.01914 8.79526C7.33792 8.86129 7.6567 8.92733 7.97548 8.98641C7.99108 8.99014 8.00734 8.9902 8.02296 8.98658C8.03859 8.98297 8.05318 8.97577 8.06557 8.96556L8.49523 8.40948L5.89648 5.80284C6.10438 5.58736 6.30189 5.36493 6.52018 5.16682C6.62895 5.07555 6.76302 5.01994 6.9043 5.00751C7.04557 4.99508 7.18725 5.02643 7.3102 5.09731L8.04131 5.50395L8.12448 5.55261C8.2111 5.46572 8.29079 5.37536 8.37742 5.29194C8.46668 5.20319 8.57832 5.14046 8.70039 5.11046C8.82246 5.08046 8.95037 5.08433 9.07042 5.12164C9.19422 5.15757 9.30511 5.22843 9.38988 5.32579C9.47466 5.42315 9.52975 5.5429 9.54859 5.67077C9.56828 5.77519 9.56383 5.88275 9.5356 5.98517C9.50737 6.0876 9.4561 6.18217 9.38573 6.26161L9.70451 6.43886L10.0233 6.61611C10.0787 6.55355 10.1342 6.49447 10.1861 6.42843C10.4911 6.08088 10.7925 5.73333 11.094 5.38578C11.2633 5.17707 11.5043 5.03946 11.7696 5H11.7974H12.0503H12.0919C12.2946 5.0289 12.4843 5.11721 12.6372 5.25386C12.7901 5.39051 12.8993 5.5694 12.9512 5.76809C12.9512 5.82022 12.9755 5.87235 12.9893 5.92796L12.9997 6.17472ZM6.70729 9.62591L6.79045 9.67109L7.73986 10.1472C7.78428 10.1722 7.82043 10.2096 7.84381 10.255C8.01013 10.5712 8.16605 10.8945 8.32544 11.2142L8.37049 11.2941C8.47444 11.1864 8.57492 11.0926 8.66848 10.9883C8.6797 10.9743 8.68794 10.9581 8.69271 10.9408C8.69747 10.9234 8.69866 10.9053 8.6962 10.8875C8.63383 10.5585 8.56684 10.2249 8.49523 9.88657C8.48969 9.86738 8.4904 9.84693 8.49726 9.82817C8.50411 9.80942 8.51676 9.79335 8.53334 9.7823L11.5444 7.17567C11.8043 6.95324 12.0642 6.7308 12.3206 6.50142C12.3836 6.44849 12.4349 6.38307 12.4715 6.30928C12.5081 6.23548 12.529 6.1549 12.533 6.07259C12.5371 5.99028 12.5241 5.90802 12.4949 5.83099C12.4658 5.75395 12.421 5.68379 12.3635 5.62493C12.306 5.56606 12.237 5.51975 12.1608 5.48891C12.0847 5.45806 12.0029 5.44335 11.9208 5.4457C11.8387 5.44805 11.7579 5.4674 11.6836 5.50254C11.6093 5.53769 11.543 5.58786 11.489 5.64992C11.2568 5.91058 11.0351 6.17472 10.796 6.43886L8.19724 9.45908C8.18519 9.47539 8.16835 9.4875 8.14909 9.49374C8.12983 9.49997 8.10911 9.5 8.08983 9.49383C7.76065 9.42432 7.42801 9.36177 7.09537 9.29573C7.06957 9.28673 7.04148 9.28673 7.01568 9.29573C6.92212 9.40695 6.81817 9.51469 6.70729 9.62591ZM9.71837 6.98452L9.656 6.94629L8.24229 6.15735L7.10923 5.52828C7.06389 5.49629 7.0091 5.48061 6.95376 5.48376C6.89841 5.48691 6.84575 5.50872 6.80431 5.54566C6.72115 5.62559 6.63799 5.71248 6.56523 5.78547L8.82094 8.04455L9.71837 6.98452ZM12.1993 11.4366L12.3899 11.242C12.4208 11.2215 12.447 11.1946 12.4667 11.163C12.4864 11.1315 12.4991 11.0961 12.5041 11.0592C12.509 11.0224 12.506 10.9849 12.4952 10.9492C12.4845 10.9136 12.4663 10.8807 12.4419 10.8528L11.0559 8.32954L11.0143 8.25655L9.95399 9.17409L12.1993 11.4366ZM8.5472 5.78547L8.60611 5.82022L8.95261 6.00442C8.96023 6.00788 8.9685 6.00966 8.97686 6.00966C8.98523 6.00966 8.9935 6.00788 9.00112 6.00442C9.05674 5.96811 9.09591 5.91132 9.11017 5.8463C9.12443 5.78128 9.11264 5.71325 9.07735 5.65687C9.0598 5.62851 9.03638 5.60426 9.00867 5.58577C8.98097 5.56728 8.94962 5.55498 8.91676 5.54971C8.8839 5.54443 8.85029 5.54631 8.81821 5.5552C8.78614 5.5641 8.75634 5.57981 8.73085 5.60126C8.66501 5.66035 8.60957 5.72291 8.5472 5.78547ZM12.1993 9.45213L12.3344 9.31311C12.3612 9.29155 12.383 9.26447 12.3984 9.23371C12.4137 9.20295 12.4223 9.16923 12.4236 9.13484C12.4248 9.10045 12.4186 9.0662 12.4055 9.03441C12.3924 9.00262 12.3726 8.97404 12.3475 8.9506C12.3223 8.92717 12.2925 8.90943 12.2599 8.89859C12.2274 8.88776 12.1929 8.88408 12.1587 8.88781C12.1246 8.89153 12.0917 8.90258 12.0623 8.92019C12.0328 8.93781 12.0074 8.96158 11.9879 8.98989C11.9822 9.00118 11.9792 9.01369 11.9792 9.02638C11.9792 9.03907 11.9822 9.05158 11.9879 9.06287C12.0503 9.18799 12.1196 9.31311 12.1993 9.45213Z" fill="#410EAD"/>
<path d="M5.31185 12.3402L5 12.0274L6.30977 10.7136L6.62162 11.0264L5.31185 12.3402Z" fill="#410EAD"/>
<path d="M5.97733 13.0007L5.66895 12.6914L6.97871 11.3777L7.2871 11.687L5.97733 13.0007Z" fill="#410EAD"/>
</svg>
