<svg width="73" height="43" viewBox="0 0 73 43" fill="none" xmlns="http://www.w3.org/2000/svg">
<path d="M20.5719 15.6161C20.5535 16.3329 20.6435 17.0485 20.8388 17.7393C21.0547 18.3303 21.3144 18.9048 21.6159 19.4582C21.7241 19.6221 21.7831 19.8127 21.7863 20.0082C21.7716 20.155 21.7222 20.2963 21.6422 20.4209C21.5622 20.5456 21.4537 20.6501 21.3254 20.7261L19.7958 21.7301C19.6113 21.8611 19.3918 21.936 19.1645 21.9455C18.8878 21.9269 18.628 21.8076 18.4356 21.6108C18.1086 21.2644 17.8161 20.8879 17.562 20.4865C17.3187 20.082 17.0765 19.626 16.8096 19.0709C15.9537 20.1202 14.8657 20.963 13.6287 21.535C12.3916 22.107 11.0383 22.3929 9.67188 22.3711C8.78709 22.4176 7.90179 22.2894 7.06797 21.9943C6.23414 21.6991 5.46858 21.2428 4.81624 20.6523C4.21171 20.0502 3.74006 19.3316 3.43091 18.5415C3.12176 17.7514 2.98178 16.9069 3.01976 16.0609C2.98491 15.1286 3.16568 14.2008 3.54839 13.3474C3.93111 12.494 4.50576 11.7375 5.22892 11.1349C6.91503 9.82025 9.03037 9.15693 11.1778 9.26948C12.0391 9.27633 12.8989 9.34017 13.7514 9.46058C14.6497 9.57989 15.5725 9.77098 16.5437 9.98634V8.25132C16.6835 6.87826 16.2739 5.50565 15.4021 4.42538C14.2729 3.57667 12.8579 3.18333 11.4447 3.32532C10.5613 3.32516 9.68111 3.42937 8.82291 3.63572C7.93061 3.84381 7.05445 4.11411 6.20107 4.44459C5.92489 4.56612 5.64095 4.66981 5.35108 4.75499C5.22554 4.79577 5.09505 4.81992 4.96304 4.82678C4.62325 4.82678 4.44976 4.58715 4.44976 4.08565V2.91785C4.42399 2.62848 4.48314 2.3379 4.62017 2.08067C4.80287 1.86154 5.03578 1.68827 5.29975 1.57513C6.27387 1.10309 7.30051 0.744434 8.35891 0.506414C9.59623 0.193848 10.8696 0.0412404 12.1469 0.0524373C15.0367 0.0524373 17.1483 0.698521 18.5116 1.98968C19.8461 3.28083 20.5267 5.24233 20.5267 7.87217V15.6201L20.5719 15.6161ZM10.7169 19.256C11.5687 19.2467 12.4132 19.1012 13.2176 18.8252C14.1082 18.5201 14.9023 17.991 15.5212 17.2904C15.911 16.8493 16.1921 16.3254 16.3425 15.7596C16.5095 15.0784 16.5912 14.3796 16.5858 13.6788V12.6748C15.8494 12.499 15.1037 12.364 14.352 12.2704C13.5951 12.1757 12.8329 12.1278 12.0699 12.1268C10.7883 12.0269 9.51086 12.3647 8.45232 13.0833C8.05052 13.419 7.73376 13.8424 7.52722 14.3198C7.32068 14.7972 7.23005 15.3155 7.26254 15.8334C7.20906 16.2932 7.26122 16.7588 7.41518 17.196C7.56913 17.6332 7.82094 18.0306 8.15195 18.359C8.48296 18.6873 8.88471 18.9382 9.32746 19.0929C9.7702 19.2476 10.2426 19.3023 10.7097 19.2529M30.2062 21.8352C29.8789 21.8685 29.5505 21.7833 29.2823 21.5956C29.027 21.3376 28.8493 21.0149 28.769 20.6634L23.0726 2.17673C22.962 1.86743 22.8886 1.5464 22.8539 1.22024C22.8422 1.14112 22.849 1.0604 22.8738 0.984266C22.8986 0.908128 22.9408 0.838578 22.997 0.780927C23.0533 0.723277 23.1222 0.67905 23.1984 0.651626C23.2747 0.624201 23.3563 0.614304 23.437 0.622689H25.8166C26.1514 0.582937 26.4892 0.668456 26.7631 0.862316C27.008 1.1238 27.1759 1.4461 27.2487 1.79454L31.3272 17.6251L35.1162 1.79454C35.166 1.44365 35.3274 1.11731 35.5771 0.862316C35.8684 0.686517 36.2073 0.602884 36.5483 0.622689H38.4905C38.8328 0.587408 39.1767 0.672271 39.4616 0.862316C39.7154 1.11457 39.8774 1.44227 39.9226 1.79454L43.7588 17.8162L47.9595 1.79454C48.0367 1.44762 48.204 1.1264 48.4451 0.862316C48.7271 0.686184 49.0583 0.602315 49.3916 0.622689H51.65C51.7323 0.611868 51.816 0.61987 51.8946 0.646074C51.9732 0.672277 52.0446 0.715977 52.1033 0.773778C52.162 0.83158 52.2064 0.901928 52.233 0.979358C52.2596 1.05679 52.2677 1.13922 52.2567 1.22024C52.2511 1.34871 52.235 1.47652 52.2085 1.60243C52.1703 1.80631 52.1132 2.00633 52.038 2.19998L46.1866 20.6846C46.1125 21.0384 45.934 21.3627 45.6734 21.6168C45.3986 21.7903 45.0753 21.8742 44.7495 21.8565H42.6666C42.3243 21.8918 41.9804 21.8069 41.6954 21.6168C41.4421 21.3547 41.2806 21.0195 41.2345 20.6604L37.4701 5.23829L33.7314 20.6381C33.6747 20.9941 33.5146 21.3263 33.2705 21.5946C32.984 21.7813 32.6413 21.8659 32.2993 21.8342L30.2062 21.8352ZM61.4054 22.4813C60.1463 22.4825 58.8915 22.338 57.6667 22.0506C56.6966 21.8565 55.7575 21.5347 54.8744 21.0941C54.5619 20.9493 54.3 20.7163 54.122 20.4248C54.0275 20.2138 53.9778 19.986 53.9762 19.7554V18.5341C53.9762 18.0285 54.1702 17.7929 54.5346 17.7929C54.6834 17.7934 54.8311 17.8176 54.972 17.8647C55.1177 17.9122 55.3364 18.0083 55.5787 18.1043C56.4357 18.4758 57.3304 18.7564 58.2477 18.9415C59.1985 19.1317 60.1662 19.2279 61.1365 19.2287C62.3699 19.3003 63.5988 19.0269 64.6812 18.44C65.0766 18.2049 65.4018 17.8709 65.6236 17.4718C65.8454 17.0727 65.9559 16.6229 65.9438 16.1681C65.9526 15.8601 65.8991 15.5535 65.7864 15.2661C65.6738 14.9787 65.5044 14.7161 65.2879 14.4938C64.5777 13.9 63.7387 13.4745 62.8354 13.2501L59.3153 12.1743C57.794 11.7861 56.4375 10.9313 55.4421 9.73357C54.6596 8.74267 54.2312 7.52494 54.2236 6.2696C54.2041 5.34376 54.4302 4.42893 54.8796 3.6155C55.3123 2.84664 55.9074 2.17811 56.6247 1.65501C57.3817 1.08845 58.2386 0.664754 59.1521 0.405306C60.1463 0.123954 61.177 -0.0123065 62.2113 0.000871994C62.7552 -0.00290634 63.2988 0.0291831 63.8384 0.096925C64.3968 0.168712 64.907 0.264765 65.4162 0.359807C65.9018 0.479115 66.3627 0.599434 66.8 0.741997C67.1542 0.850052 67.4958 0.994417 67.8194 1.17272C68.1054 1.31454 68.3547 1.51894 68.5482 1.77027C68.7061 2.00282 68.7828 2.27963 68.7669 2.55892V3.68324C68.7669 4.18878 68.5729 4.44863 68.2084 4.44863C67.8845 4.41254 67.5708 4.31503 67.2845 4.16149C65.8188 3.52356 64.2303 3.20554 62.628 3.22927C61.5101 3.16393 60.3949 3.39507 59.3985 3.8986C59.0287 4.11529 58.7266 4.42801 58.5253 4.80252C58.324 5.17702 58.2311 5.59888 58.257 6.02188C58.2504 6.33942 58.3119 6.65475 58.4375 6.94728C58.5631 7.2398 58.7499 7.50294 58.9858 7.71949C59.7734 8.33511 60.6823 8.78272 61.6549 9.0339L65.1 10.1117C66.5634 10.48 67.8769 11.2814 68.8634 12.4079C69.6045 13.3698 69.9976 14.5482 69.9803 15.7556C69.9928 16.7163 69.7766 17.6665 69.3489 18.53C68.9179 19.3484 68.3133 20.066 67.5761 20.6341C66.7765 21.2495 65.863 21.7059 64.8865 21.9778C63.7621 22.3196 62.5913 22.4901 61.4147 22.4834" fill="#252F3E"/>
<path d="M65.9997 34.1015C58.0121 39.9122 46.4058 42.9991 36.4276 42.9991C23.0985 43.0678 10.2233 38.2333 0.323446 29.4425C-0.429023 28.7731 0.25056 27.8641 1.14469 28.3899C12.1489 34.5815 24.6033 37.837 37.2766 37.8345C46.743 37.7851 56.1068 35.8999 64.8336 32.2866C66.1681 31.6891 67.3096 33.1471 65.9987 34.1066M69.3248 30.3757C68.3054 29.0845 62.5751 29.7539 59.9769 30.0653C59.1998 30.1613 59.0787 29.491 59.7829 28.9895C64.347 25.8329 71.8501 26.7418 72.7237 27.7934C73.5973 28.8692 72.4804 36.2592 68.2068 39.798C67.5509 40.348 66.9195 40.0609 67.2111 39.344C68.1822 36.9771 70.3431 31.6436 69.3237 30.3767" fill="#FF9900"/>
</svg>
