<svg width="110" height="33" viewBox="0 0 110 33" fill="none" xmlns="http://www.w3.org/2000/svg">
<path fill-rule="evenodd" clip-rule="evenodd" d="M25.4033 4.97461L19.3507 17.5769L30.0071 30.3456L10.2285 32.6681L40.9176 32.9997L25.4033 4.97461Z" fill="#035BDA"/>
<path fill-rule="evenodd" clip-rule="evenodd" d="M24.2107 0L10.315 12.0222L0 30.015L8.78078 29.1022L24.2107 0Z" fill="#035BDA"/>
<path d="M52.5192 12.7236L45.873 29.5724H48.1293L49.8578 24.8493H57.2044L59.0408 29.5724H61.2882L54.6175 12.7236H52.5192ZM53.51 14.7682H53.5581C53.6141 15.1516 53.7031 15.529 53.8239 15.896L56.5432 23.0755H50.5376L53.2324 15.896C53.3601 15.5303 53.4531 15.1526 53.51 14.7682ZM104.899 17.2591C104.138 17.2419 103.381 17.391 102.68 17.6967C101.978 18.0024 101.347 18.4577 100.827 19.0329C100.277 19.6459 99.8492 20.3653 99.5692 21.1498C99.2892 21.9343 99.1621 22.7684 99.1953 23.6039C99.0941 25.286 99.6315 26.9426 100.693 28.2215C101.23 28.7779 101.875 29.2109 102.585 29.4923C103.295 29.7736 104.054 29.897 104.813 29.8543C106.332 29.9305 107.837 29.5291 109.13 28.7032V26.8939C108.026 27.7643 106.676 28.2348 105.287 28.2326C104.754 28.2637 104.22 28.1829 103.717 27.9952C103.215 27.8075 102.754 27.5167 102.363 27.1404C101.611 26.2984 101.211 25.1832 101.251 24.0379H109.988V23.0237C110.077 21.4874 109.602 19.9729 108.659 18.7824C108.178 18.2606 107.592 17.8536 106.943 17.5898C106.294 17.326 105.597 17.2117 104.901 17.255L104.899 17.2591ZM96.0454 17.3301C95.3359 17.3272 94.6478 17.5808 94.1001 18.0471C93.4915 18.5599 93.0419 19.2461 92.8072 20.0207H92.7552V17.541H90.7736V29.5734H92.7552V23.4396C92.6951 22.3151 92.992 21.2011 93.6008 20.2672C93.8375 19.9095 94.1548 19.6168 94.5253 19.4141C94.8958 19.2115 95.3084 19.105 95.7276 19.1039C96.2537 19.0691 96.7773 19.2045 97.2255 19.4913V17.4934C96.8444 17.3681 96.445 17.3129 96.0454 17.3301ZM63.3061 17.541V19.1861H69.9395L62.6174 28.9699V29.5693H72.7794V27.9284H65.529L72.852 18.0907V17.539H63.3061V17.541ZM75.8332 17.541V24.7316C75.8332 28.1468 77.3077 29.8543 80.2565 29.8543C81.0271 29.8969 81.7938 29.7145 82.4689 29.328C83.144 28.9416 83.7004 28.3666 84.0745 27.6687H84.1225V29.5724H86.1041V17.541H84.1225V24.473C84.1645 25.4741 83.8262 26.4525 83.1798 27.1992C82.8778 27.5379 82.509 27.8054 82.0982 27.9837C81.6874 28.1621 81.2443 28.2469 80.799 28.2326C78.801 28.2326 77.8021 26.9639 77.8021 24.4264V17.541H75.8332ZM104.863 18.8808C105.282 18.8568 105.701 18.9273 106.091 19.0876C106.48 19.2479 106.831 19.494 107.12 19.8088C107.704 20.5349 108.002 21.462 107.954 22.4051H101.271C101.384 21.4386 101.81 20.5401 102.48 19.8554C102.794 19.5371 103.167 19.2868 103.576 19.1195C103.985 18.9521 104.423 18.8709 104.862 18.8808H104.863Z" fill="#035BDA"/>
</svg>
