<svg width="47" height="46" viewBox="0 0 47 46" fill="none" xmlns="http://www.w3.org/2000/svg">
<path fill-rule="evenodd" clip-rule="evenodd" d="M11.9795 6.20247C5.57244 9.68445 0.413637 12.5445 0.29834 12.6786C0.112268 12.8948 0.0917969 13.0166 0.0917969 13.9074C0.0917969 15.3989 0.287508 15.6646 1.44259 15.7413L2.11133 15.7858L2.11151 16.6054C2.1116 17.5609 2.26435 17.9704 2.74454 18.3026C3.02682 18.4979 3.16433 18.5185 4.19034 18.5185H5.32422V19.3724C5.32422 20.645 5.62036 21.2298 6.36253 21.4228L6.60938 21.487V26.3306V31.1743L6.83474 31.4077C6.95866 31.5361 7.16704 31.6411 7.29785 31.6411C7.42866 31.6411 7.63704 31.5361 7.76097 31.4077L7.98633 31.1743V26.3203V21.4663H9.08789H10.1895V28.7408V36.0154H9.08789H7.98633L7.98339 35.0407C7.98146 34.3921 7.94061 34.0116 7.86121 33.9033C7.68652 33.6652 7.33494 33.5529 7.07671 33.6527C6.68171 33.8054 6.61543 34.0021 6.61231 35.0304L6.60938 35.9947L6.36253 36.0589C5.62036 36.2519 5.32422 36.8367 5.32422 38.1093V38.9632H4.18272C2.94484 38.9632 2.66174 39.0307 2.26408 39.421C1.86173 39.8157 1.8005 39.9926 1.74754 40.9116C1.70366 41.6732 1.67823 41.7696 1.51465 41.7949C1.04483 41.8677 0.898508 41.9345 0.584654 42.22C0.0979473 42.6627 0 42.9857 0 44.1474C0 45.2241 0.0988652 45.5758 0.478904 45.8516C0.662865 45.9851 2.97275 46 23.5 46C44.0272 46 46.3371 45.9851 46.5211 45.8516C46.9011 45.5758 47 45.2241 47 44.1474C47 42.9857 46.9021 42.6627 46.4153 42.22C46.1015 41.9345 45.9552 41.8677 45.4854 41.7949C45.3218 41.7696 45.2963 41.6732 45.2525 40.9116C45.1995 39.9926 45.1383 39.8157 44.7359 39.421C44.3383 39.0307 44.0552 38.9632 42.8173 38.9632H41.6758V38.1093C41.6758 36.8367 41.3796 36.2519 40.6375 36.0589L40.3906 35.9947V28.7408V21.487L40.6375 21.4228C41.3796 21.2298 41.6758 20.645 41.6758 19.3724V18.5185H42.8097C43.8357 18.5185 43.9732 18.4979 44.2555 18.3026C44.7356 17.9704 44.8884 17.5609 44.8885 16.6054L44.8887 15.7858L45.5574 15.7413C46.7125 15.6646 46.9082 15.3989 46.9082 13.9074C46.9082 13.0167 46.8877 12.8948 46.7017 12.6782C46.384 12.3084 30.5864 3.49663 30.2383 3.49521C29.9187 3.49378 29.6948 3.70184 29.6023 4.08592C29.5522 4.29398 29.5914 4.39734 29.8017 4.61073C29.9457 4.75689 33.5434 6.82266 37.7965 9.20129L45.5297 13.5262L45.5304 13.9303L45.5312 14.3344H23.5H1.46875L1.47059 13.9303L1.47242 13.5262L12.495 7.53537C18.5575 4.24044 23.5913 1.50826 23.6815 1.46376C23.8041 1.40328 24.2583 1.61429 25.4857 2.30171C26.3878 2.80693 27.2299 3.24245 27.3569 3.26955C27.9481 3.39527 28.3374 2.52632 27.8833 2.0946C27.7697 1.98658 26.9332 1.48059 26.0244 0.97014C24.6986 0.225571 24.2814 0.0346271 23.9131 0.00429281C23.4592 -0.0330783 23.3253 0.0364335 11.9795 6.20247ZM43.5117 16.4265V17.0921H23.5H3.48828V16.4265V15.7608H23.5H43.5117V16.4265ZM11.4555 19.303L11.4823 20.0399H9.09175H6.70117V19.3426C6.70117 18.959 6.72944 18.616 6.76387 18.5803C6.79838 18.5445 7.86213 18.5267 9.12764 18.5406L11.4287 18.566L11.4555 19.303ZM14.9629 19.4249C14.9629 19.9801 15.0119 20.4529 15.0895 20.6451C15.2387 21.0152 15.6358 21.3632 15.9931 21.4373L16.248 21.4901V28.7452V36.0002L15.977 36.062C15.6023 36.1472 15.24 36.4633 15.0895 36.8366C15.0119 37.0288 14.9629 37.5016 14.9629 38.0568V38.9632H13.9072H12.8516V38.1093C12.8516 36.8367 12.5554 36.2519 11.8132 36.0589L11.5664 35.9947V28.7408V21.487L11.8132 21.4228C12.5554 21.2298 12.8516 20.645 12.8516 19.3724V18.5185H13.9072H14.9629V19.4249ZM21.0215 19.2792V20.0399H18.6807H16.3398V19.2792V18.5185H18.6807H21.0215V19.2792ZM24.6016 19.63C24.6455 20.6486 24.6589 20.7064 24.9174 20.9855C25.066 21.1459 25.3242 21.3282 25.4912 21.3907L25.7949 21.5045V28.7408V35.9771L25.4912 36.091C25.3242 36.1535 25.066 36.3358 24.9174 36.4961C24.6589 36.7752 24.6455 36.8331 24.6016 37.8517L24.5557 38.9157H23.5H22.4443L22.3984 37.8517C22.3545 36.8331 22.3411 36.7752 22.0826 36.4961C21.934 36.3358 21.6758 36.1535 21.5088 36.091L21.2051 35.9771V28.7408V21.5045L21.52 21.3865C21.6933 21.3216 21.9619 21.1189 22.1167 20.9362C22.3921 20.6114 22.3984 20.582 22.3984 19.6246C22.3984 19.086 22.4273 18.6154 22.4625 18.579C22.4977 18.5424 22.9831 18.5247 23.5411 18.5393L24.5557 18.566L24.6016 19.63ZM30.6602 19.2792V20.0399H28.3193H25.9785V19.2792V18.5185H28.3193H30.6602V19.2792ZM34.1484 19.3724C34.1484 20.645 34.4446 21.2298 35.1868 21.4228L35.4336 21.487V28.7408V35.9947L35.1868 36.0589C34.4446 36.2519 34.1484 36.8367 34.1484 38.1093V38.9632H33.0928H32.0371V38.0568C32.0371 37.5016 31.9881 37.0288 31.9105 36.8366C31.76 36.4633 31.3977 36.1472 31.023 36.062L30.752 36.0002V28.7452V21.4901L31.0069 21.4373C31.3642 21.3632 31.7613 21.0152 31.9105 20.6451C31.9881 20.4529 32.0371 19.9801 32.0371 19.4249V18.5185H33.0928H34.1484V19.3724ZM40.2797 19.303L40.3065 20.0399H37.916H35.5254V19.3426C35.5254 18.959 35.5537 18.616 35.5881 18.5803C35.6226 18.5445 36.6863 18.5267 37.9519 18.5406L40.2529 18.566L40.2797 19.303ZM19.8281 28.7408V36.0154H18.7266H17.625V28.7408V21.4663H18.7266H19.8281V28.7408ZM29.375 28.7408V36.0154H28.2734H27.1719V28.7408V21.4663H28.2734H29.375V28.7408ZM39.0137 28.7408V36.0154H37.9121H36.8105V28.7408V21.4663H37.9121H39.0137V28.7408ZM11.4555 38.1787L11.4287 38.9157H9.08789H6.74707L6.72027 38.1787L6.69346 37.4417H9.08789H11.4823L11.4555 38.1787ZM21.0215 38.2025V38.9632H18.6807H16.3398V38.2025V37.4417H18.6807H21.0215V38.2025ZM30.6602 38.2025V38.9632H28.3193H25.9785V38.2025V37.4417H28.3193H30.6602V38.2025ZM40.2797 38.1787L40.2529 38.9157H37.9121H35.5713L35.5445 38.1787L35.5177 37.4417H37.9121H40.3065L40.2797 38.1787ZM43.8602 41.079L43.8873 41.7209H23.5042H3.12109V41.1187C3.12109 40.7874 3.14872 40.4877 3.18251 40.4527C3.21629 40.4178 12.3764 40.3999 23.5385 40.4132L43.833 40.4371L43.8602 41.079ZM45.6043 43.9318L45.6314 44.5736H23.5042H1.37695V43.9714C1.37695 43.6401 1.40458 43.3405 1.43837 43.3056C1.47215 43.2706 11.4171 43.2527 23.5385 43.2659L45.5771 43.2899L45.6043 43.9318Z" fill="#F1C425"/>
</svg>
