<svg width="58" height="50" viewBox="0 0 58 50" fill="none" xmlns="http://www.w3.org/2000/svg">
<path fill-rule="evenodd" clip-rule="evenodd" d="M14.9861 8.30239C7.39141 12.8686 1.114 16.6881 1.03603 16.79C0.937997 16.9181 0.894365 17.4719 0.894365 18.5859C0.894365 20.0434 0.916691 20.2251 1.1293 20.496C1.35482 20.7835 1.40877 20.7955 2.48925 20.7955H3.61427V22.3142C3.61427 23.6786 3.63818 23.8634 3.8492 24.1324C4.05568 24.3957 4.16505 24.4318 4.75583 24.4318H5.42753V32.7273V41.0227H4.75583C4.16505 41.0227 4.05568 41.0589 3.8492 41.3222C3.63818 41.5911 3.61427 41.7759 3.61427 43.1403V44.6591H2.98586C2.46964 44.6591 2.30758 44.709 2.07922 44.9381C1.8112 45.2067 1.801 45.2734 1.801 46.7562V48.2955H1.17259C0.656374 48.2955 0.494314 48.3453 0.265955 48.5744C-0.0886517 48.9299 -0.0886517 49.3656 0.265955 49.721L0.544065 50H29H57.4559L57.734 49.721C58.0887 49.3656 58.0887 48.9299 57.734 48.5744C57.5057 48.3453 57.3436 48.2955 56.8274 48.2955H56.199V46.7562C56.199 45.2734 56.1888 45.2067 55.9208 44.9381C55.6924 44.709 55.5304 44.6591 55.0141 44.6591H54.3857V43.1403C54.3857 41.7759 54.3618 41.5911 54.1508 41.3222C53.9443 41.0589 53.835 41.0227 53.2442 41.0227H52.5725V32.7273V24.4318H53.2442C53.835 24.4318 53.9443 24.3957 54.1508 24.1324C54.3618 23.8634 54.3857 23.6786 54.3857 22.3142V20.7955H55.5108C56.5912 20.7955 56.6452 20.7835 56.8707 20.496C57.0836 20.2247 57.1056 20.0436 57.1056 18.5642C57.1056 17.1184 57.0813 16.9074 56.8927 16.7183C56.6986 16.5236 30.3284 0.615227 29.4873 0.185341C29.2877 0.0834092 29.0503 0 28.9595 0C28.8688 0 22.5807 3.73602 14.9861 8.30239ZM42.2693 9.83534L55.4057 17.739V18.4149V19.0909H53.5301C52.1057 19.0909 51.5774 19.1309 51.334 19.2572C50.8153 19.5261 50.7089 20.1218 51.1036 20.5467C51.2914 20.7489 51.4612 20.7955 52.0102 20.7955H52.6858V21.7614V22.7273H29H5.3142V21.7614V20.7955H26.8951H48.4762L48.711 20.496C49.0169 20.1063 49.0075 19.8572 48.6725 19.4666L48.3989 19.1477L25.4967 19.1185L2.5943 19.0893V18.4142V17.7391L15.7122 9.84011C22.9269 5.4958 28.8981 1.93909 28.9814 1.93659C29.0647 1.93398 35.0442 5.48841 42.2693 9.83534ZM28.5202 6.58739C28.3641 6.71057 28.2071 6.95818 28.1713 7.13773C28.1192 7.39909 28.0007 7.50466 27.5778 7.66648C26.9569 7.90432 26.3408 8.41636 26.0896 8.90341C25.8426 9.38227 25.8698 10.3261 26.1463 10.8667C26.5451 11.6465 26.9812 11.9409 28.7036 12.5934C30.0434 13.1009 30.36 13.3111 30.36 13.6932C30.36 14.1357 29.9649 14.3649 29.1334 14.4047C28.181 14.4502 27.8831 14.3002 27.5537 13.6094C27.3786 13.2423 27.208 13.0493 27.0154 13.0009C25.5056 12.6209 25.5801 14.8034 27.107 15.6814C27.4313 15.868 27.785 16.021 27.8929 16.0217C28.0151 16.0223 28.1138 16.1407 28.1547 16.3352C28.2551 16.8143 28.3733 16.9791 28.7001 17.0958C29.0474 17.2199 29.5526 17.0782 29.6898 16.8182C29.7394 16.7244 29.8093 16.507 29.8453 16.3352C29.8862 16.1407 29.9849 16.0223 30.1071 16.0217C30.215 16.021 30.5687 15.868 30.8931 15.6814C32.2947 14.8755 32.5049 13.1498 31.3334 12.0669C30.8158 11.5885 30.3023 11.3251 29.1112 10.9267C27.6915 10.452 27.2784 9.99261 27.8191 9.49023C28.3004 9.04284 29.1267 8.97307 29.8802 9.31602C30.2574 9.48761 30.3791 9.61284 30.4334 9.88511C30.5092 10.2653 30.9494 10.6818 31.2755 10.6818C31.3883 10.6818 31.6196 10.5619 31.7895 10.4153C32.0428 10.1969 32.095 10.0632 32.0798 9.67239C32.0456 8.79807 31.4292 8.05216 30.4222 7.66648C29.9993 7.50466 29.8808 7.39909 29.8287 7.13773C29.7576 6.78102 29.3107 6.36364 29 6.36364C28.8921 6.36364 28.6762 6.46432 28.5202 6.58739ZM21.2244 11.1752C20.8242 11.5203 20.8004 12.1008 21.1739 12.4041C21.3895 12.5791 21.6356 12.6136 22.6661 12.6136C23.7491 12.6136 23.928 12.5858 24.1268 12.3864C24.4643 12.048 24.4291 11.4398 24.0549 11.1447C23.7989 10.9427 23.5977 10.9091 22.6446 10.9091C21.6422 10.9091 21.5026 10.9352 21.2244 11.1752ZM33.9451 11.1447C33.5709 11.4398 33.5357 12.048 33.8732 12.3864C34.072 12.5858 34.2509 12.6136 35.3339 12.6136C36.3644 12.6136 36.6105 12.5791 36.8261 12.4041C37.1996 12.1008 37.1758 11.5203 36.7756 11.1752C36.4974 10.9352 36.3578 10.9091 35.3554 10.9091C34.4023 10.9091 34.2011 10.9427 33.9451 11.1447ZM10.8673 32.7273V41.0227H8.9974H7.12747V32.8031C7.12747 28.2822 7.16147 24.5492 7.20306 24.5076C7.24454 24.4659 8.08601 24.4318 9.07299 24.4318H10.8673V32.7273ZM16.3071 32.7273V41.0227H14.4372H12.5673V32.8031C12.5673 28.2822 12.6013 24.5492 12.6429 24.5076C12.6843 24.4659 13.5258 24.4318 14.5128 24.4318H16.3071V32.7273ZM21.7469 32.7273V41.0227H19.877H18.0071V32.8031C18.0071 28.2822 18.0411 24.5492 18.0827 24.5076C18.1241 24.4659 18.9656 24.4318 19.9526 24.4318H21.7469V32.7273ZM34.4965 32.7273V40.9659L33.5703 40.9988L32.6441 41.0316L32.607 36.9647L32.5699 32.8977L32.2751 32.2675C31.8852 31.4341 31.4133 30.913 30.6794 30.5052C30.1308 30.2006 29.98 30.1705 29 30.1705C28.02 30.1705 27.8692 30.2006 27.3206 30.5052C26.5867 30.913 26.1148 31.4341 25.7249 32.2675L25.4301 32.8977L25.393 36.9647L25.3559 41.0316L24.4297 40.9988L23.5035 40.9659L23.4742 32.8409C23.4581 28.3722 23.4694 24.6515 23.4995 24.5727C23.5424 24.4599 24.7086 24.4359 29.0252 24.4591L34.4965 24.4886V32.7273ZM39.9654 32.7557L39.9944 41.0227H38.1238H36.2531V32.7244V24.4261L38.0947 24.4574L39.9363 24.4886L39.9654 32.7557ZM45.4052 32.7557L45.4342 41.0227H43.5636H41.6929V32.7244V24.4261L43.5345 24.4574L45.3761 24.4886L45.4052 32.7557ZM50.845 32.7557L50.874 41.0227H49.0034H47.1327V32.7244V24.4261L48.9743 24.4574L50.8159 24.4886L50.845 32.7557ZM29.8713 32.0064C30.0889 32.1099 30.4026 32.4001 30.5684 32.6512L30.8699 33.108V37.0369V40.9659H29H27.1301V37.0369V33.108L27.4303 32.6533C27.9502 31.8659 28.9944 31.5892 29.8713 32.0064ZM52.6858 43.6932V44.6591H31.1482H9.6104L9.3196 44.9507C9.085 45.1859 9.04217 45.3123 9.09838 45.6041C9.13668 45.8031 9.27562 46.0555 9.40697 46.1648C9.63272 46.3527 10.8803 46.3636 32.0725 46.3636H54.4991V47.3295V48.2955H29H3.50094V47.3295V46.3636H5.03598C6.51481 46.3636 6.58134 46.3534 6.84925 46.0847C7.19513 45.7378 7.20793 45.271 6.88109 44.922C6.67812 44.7056 6.51799 44.6591 5.97446 44.6591H5.3142V43.6932V42.7273H29H52.6858V43.6932Z" fill="#FF6900"/>
</svg>
