<svg width="38" height="38" viewBox="0 0 38 38" fill="none" xmlns="http://www.w3.org/2000/svg">
<path d="M19 38C29.4934 38 38 29.4934 38 19C38 8.50661 29.4934 0 19 0C8.50659 0 0 8.50661 0 19C0 29.4934 8.50659 38 19 38Z" fill="url(#paint0_linear_2703_10)"/>
<path fill-rule="evenodd" clip-rule="evenodd" d="M12.0423 8.05554C11.3216 8.18606 10.6885 8.50591 10.1614 9.00588C9.10421 10.0086 8.74266 11.4219 9.18881 12.8077C9.57898 14.0196 10.5941 14.9422 11.8791 15.2528C12.2586 15.3445 13.032 15.3437 13.4325 15.2511C14.6802 14.9627 15.7017 14.0706 16.1093 12.9133L16.1824 12.7055L21.349 12.6955C27.1407 12.6844 26.6875 12.6618 26.8931 12.9726L26.9972 13.1298V14.8331C26.9972 16.5202 26.9963 16.5377 26.9111 16.6747C26.7595 16.9185 26.582 16.986 26.0928 16.9858L25.6681 16.9857L25.5956 16.8094C25.4277 16.4013 24.9181 16.2229 24.5235 16.4341C24.4093 16.4952 23.4828 17.2292 23.2901 17.4113C23.0832 17.6067 23.0168 17.7503 23.0168 18.0023C23.0168 18.3641 23.0953 18.4608 23.9173 19.111C24.5437 19.6066 24.6299 19.6553 24.8798 19.6553C25.2221 19.6553 25.5029 19.4647 25.6143 19.1568L25.6605 19.0289L26.3484 19.0071C27.116 18.9828 27.3542 18.9346 27.7603 18.722C28.281 18.4492 28.6782 17.9797 28.8817 17.3964L28.9908 17.0837V14.8359V12.5882L28.8838 12.2724C28.6907 11.7031 28.2845 11.2254 27.7595 10.9503C27.1864 10.6499 27.7129 10.6747 21.6392 10.6623L16.203 10.6511L16.0719 10.3296C15.8565 9.80162 15.6516 9.49292 15.2492 9.09055C14.8073 8.64863 14.406 8.39473 13.8532 8.20725C13.2333 7.99698 12.64 7.94729 12.0423 8.05554ZM13.2484 8.72145C15.1799 9.11839 16.2319 11.2476 15.3548 12.9844C15.2192 13.2529 14.9406 13.6615 14.8923 13.6626C14.8783 13.6629 14.8228 13.5882 14.7691 13.4965C14.6748 13.3357 14.2717 12.9218 14.2069 12.9192C14.1894 12.9186 14.1425 12.8932 14.1025 12.8629C14.0334 12.8105 14.0375 12.7987 14.1864 12.6199C15.0866 11.5384 14.6417 9.91803 13.312 9.436C12.9736 9.31329 12.3927 9.31239 12.0388 9.43401C10.6972 9.89501 10.2315 11.5794 11.1553 12.629C11.26 12.7479 11.3025 12.8226 11.2713 12.833C11.1205 12.8833 10.7562 13.2144 10.6202 13.4248C10.5355 13.5559 10.453 13.6632 10.437 13.6632C10.421 13.6632 10.3092 13.515 10.1887 13.3338C9.35541 12.0815 9.53527 10.5061 10.6294 9.47396C11.3333 8.80988 12.3114 8.52885 13.2484 8.72145ZM13.2215 10.1304C13.4912 10.2514 13.7678 10.5282 13.8903 10.7994C13.9558 10.9443 13.9746 11.0632 13.9757 11.3373C13.9769 11.6465 13.964 11.7141 13.8695 11.8957C13.7193 12.1844 13.5191 12.3928 13.2794 12.5101C12.5958 12.8446 11.7982 12.58 11.4689 11.9097C11.3749 11.7181 11.3607 11.6428 11.3608 11.3373C11.3611 10.921 11.4356 10.7218 11.6976 10.4376C12.095 10.0065 12.6819 9.88821 13.2215 10.1304ZM26.8919 11.3549C27.5862 11.4554 28.1556 11.9897 28.3018 12.6781C28.3626 12.9639 28.3626 16.7079 28.3018 16.9938C28.1958 17.4932 27.8386 17.9538 27.3975 18.1598C27.0754 18.3103 26.7505 18.3524 25.9051 18.3534C25.2396 18.3541 25.1994 18.3584 25.1135 18.4391C25.0436 18.5049 25.0231 18.5662 25.0231 18.71C25.0231 18.9245 24.9414 19.042 24.8347 18.9811C24.6498 18.8757 23.6744 18.0528 23.6744 18.0023C23.6744 17.9217 24.8513 16.9825 24.9194 17.0087C24.9522 17.0212 24.9823 17.115 24.9959 17.247C25.0113 17.3962 25.0458 17.4938 25.1057 17.5575C25.1915 17.6489 25.2057 17.6505 25.9086 17.6505C26.7025 17.6505 26.8093 17.6279 27.1401 17.3895C27.369 17.2245 27.5434 16.9554 27.6232 16.6438C27.676 16.4377 27.6834 16.1552 27.6734 14.7296C27.6618 13.0838 27.6601 13.0537 27.5707 12.832C27.3962 12.3995 26.9885 12.09 26.5003 12.0194C26.3631 11.9996 24.0589 11.9835 21.2898 11.9831L16.3252 11.9823L16.3324 11.6598C16.3364 11.4824 16.3408 11.3329 16.3422 11.3275C16.35 11.2981 26.6844 11.325 26.8919 11.3549ZM13.7031 13.4053C13.9874 13.5241 14.3597 13.9908 14.2981 14.1513C14.2655 14.2363 13.756 14.479 13.4183 14.5703C13.1979 14.6299 13.002 14.6511 12.6702 14.6511C12.3384 14.6511 12.1425 14.6299 11.9222 14.5703C11.588 14.4799 11.075 14.2366 11.0431 14.1533C11.0108 14.0693 11.1573 13.7748 11.3046 13.6276C11.5629 13.3692 11.6461 13.3523 12.6617 13.3513C13.3558 13.3507 13.603 13.3635 13.7031 13.4053ZM17.3319 16.3785C17.2239 16.4122 16.9334 16.6166 16.5019 16.9624C15.7679 17.5506 15.6802 17.6615 15.6802 18.0023C15.6802 18.3459 15.7669 18.4546 16.5223 19.058C16.8982 19.3582 17.2538 19.6168 17.3127 19.6327C17.4802 19.6778 17.768 19.6582 17.8927 19.5931C18.0501 19.5109 18.2058 19.3386 18.2773 19.1676L18.3375 19.0234L19.9505 19.011C21.7904 18.9968 21.7637 19.0011 22.0646 18.6665C22.2471 18.4635 22.3258 18.2634 22.3258 18.0023C22.3258 17.7412 22.2471 17.5411 22.0646 17.3382C21.7637 17.0035 21.7904 17.0078 19.9505 16.9937L18.3375 16.9812L18.2773 16.837C18.1863 16.6186 17.9951 16.4442 17.7754 16.379C17.5477 16.3114 17.5468 16.3114 17.3319 16.3785ZM11.0107 17.0283C10.1364 17.1597 9.42902 17.7463 9.12008 18.5962L9.01622 18.8819L9.0041 21.0354C8.99046 23.4544 8.99644 23.5258 9.25741 24.0562C9.5246 24.5991 10.0846 25.0592 10.7156 25.2539C10.8695 25.3014 11.133 25.3262 11.6421 25.341L12.3535 25.3617L12.3793 25.4792C12.4195 25.662 12.6992 25.9162 12.9221 25.9723C13.2642 26.0584 13.4002 25.9978 14.0766 25.4573C14.6599 24.9912 14.8486 24.8179 14.916 24.6869C15.0659 24.395 14.9973 24.0148 14.753 23.7832C14.5396 23.5809 13.6347 22.8625 13.4738 22.7676C13.2874 22.6576 12.9735 22.6566 12.7605 22.7653C12.5776 22.8585 12.4599 22.9922 12.3899 23.1857L12.3418 23.3187H11.9157C11.4125 23.3187 11.2685 23.2673 11.1128 23.0321L11.0088 22.8749V21.1716C11.0088 19.4692 11.0089 19.4682 11.0975 19.3257C11.2797 19.0326 11.2356 19.0405 12.8099 19.0187L14.2201 18.9991L14.4517 18.881C15.1721 18.5136 15.1721 17.491 14.4517 17.1236L14.2201 17.0055L12.7317 16.9994C11.9131 16.9961 11.1386 17.0091 11.0107 17.0283ZM17.6739 17.2566C17.6739 17.3851 17.698 17.4762 17.7486 17.5387L17.8233 17.631L19.6479 17.6505L21.4726 17.67L21.5669 17.7797C21.6874 17.9199 21.6874 18.0847 21.5669 18.2249L21.4726 18.3346L19.6479 18.3541L17.8233 18.3737L17.7486 18.466C17.698 18.5285 17.6739 18.6195 17.6739 18.748C17.6739 18.8914 17.6565 18.947 17.6029 18.9758C17.5444 19.007 17.4285 18.9313 16.9481 18.5475C16.5426 18.2237 16.3643 18.0571 16.3643 18.0023C16.3643 17.9475 16.5426 17.781 16.9481 17.4572C17.4285 17.0734 17.5444 16.9976 17.6029 17.0289C17.6565 17.0576 17.6739 17.1133 17.6739 17.2566ZM14.0904 17.6925C14.2051 17.7243 14.2529 17.7647 14.2948 17.8649C14.361 18.0235 14.31 18.2126 14.1809 18.2866C14.1207 18.321 13.6995 18.3401 12.6897 18.3541C11.2946 18.3735 11.2808 18.3745 11.088 18.4694C10.8275 18.5976 10.5758 18.8569 10.4486 19.1283L10.3443 19.351V21.1687V22.9864L10.4486 23.2091C10.5746 23.4778 10.8279 23.7406 11.0774 23.8613C11.3245 23.981 11.7315 24.0322 12.3055 24.0161C12.7457 24.0038 12.7888 23.9957 12.8821 23.9081C12.9631 23.8319 12.9829 23.7766 12.9829 23.6274C12.9829 23.4336 13.0667 23.2941 13.1522 23.3454C13.3408 23.4586 14.3526 24.3117 14.3412 24.3479C14.3268 24.3936 13.2957 25.2459 13.1713 25.3149C13.0656 25.3735 12.9829 25.2565 12.9829 25.0482C12.9829 24.9168 12.9599 24.8433 12.8979 24.7774C12.8151 24.6892 12.7948 24.6869 12.0868 24.6861C11.6874 24.6857 11.2497 24.6693 11.1141 24.6497C10.4112 24.5481 9.84992 24.0215 9.70376 23.3266C9.64379 23.0415 9.64379 19.2959 9.70376 19.0108C9.84785 18.3257 10.4084 17.7932 11.0901 17.6938C11.4345 17.6435 13.9103 17.6425 14.0904 17.6925ZM24.8594 20.7C24.4396 20.7666 24.1428 20.8606 23.7472 21.0521C23.2704 21.283 22.8418 21.6145 22.5233 21.9986C22.2675 22.3073 21.9355 22.916 21.8356 23.2595C21.8012 23.3781 21.7638 23.4751 21.7526 23.4751C21.7415 23.4751 21.5251 23.3106 21.2717 23.1096C20.7267 22.6772 20.5656 22.6148 20.2395 22.7096C20.0115 22.7759 19.8216 22.9468 19.7288 23.1694L19.6688 23.3133L18.0557 23.3258C16.4568 23.3381 16.4409 23.3391 16.2573 23.4295C15.6413 23.7329 15.4879 24.4949 15.9414 24.9992C16.243 25.3347 16.2157 25.3303 18.0541 25.3437L19.6657 25.3554L19.7383 25.5196C19.8581 25.7904 20.1809 26.0156 20.4494 26.0156C20.6323 26.0156 20.8462 25.8979 21.2747 25.5614C21.7412 25.1951 21.8148 25.1652 21.817 25.3407C21.8182 25.4389 22.0543 25.9797 22.2165 26.2558C22.4477 26.6494 23.0339 27.2299 23.4501 27.4772C25.3417 28.6013 27.7545 27.8472 28.6808 25.8423C29.1471 24.8331 29.0994 23.5675 28.558 22.5825C28.0516 21.6612 27.1306 20.9711 26.1186 20.7545C25.7858 20.6833 25.1404 20.6554 24.8594 20.7ZM26.1296 21.4482C27.3171 21.7769 28.1604 22.7635 28.3126 24.002C28.4231 24.9007 28.1098 25.7894 27.45 26.4493C26.6154 27.2838 25.4168 27.5525 24.3177 27.1513C23.382 26.8099 22.7153 26.0811 22.4381 25.0969C22.3251 24.6954 22.3168 24.0146 22.4202 23.6314C22.7511 22.4062 23.6898 21.558 24.9269 21.3664C25.2449 21.3172 25.7902 21.3543 26.1296 21.4482ZM25.6015 23.9333L24.6713 24.8606L24.4169 24.6085C24.1872 24.3808 24.1471 24.3564 24.0023 24.3564C23.803 24.3564 23.694 24.4722 23.694 24.6837C23.694 24.8158 23.7305 24.8642 24.1181 25.2462C24.4878 25.6105 24.5592 25.6642 24.6737 25.6642C24.7937 25.6642 24.9005 25.569 25.8953 24.5761C26.9485 23.5248 26.9854 23.4828 26.9854 23.3363C26.9854 23.1495 26.8417 23.006 26.6548 23.006C26.5465 23.006 26.4209 23.1165 25.6015 23.9333ZM21.089 23.8144C21.4092 24.0699 21.6612 24.2992 21.6612 24.3352C21.6612 24.3861 20.898 25.0348 20.519 25.306C20.4045 25.388 20.3321 25.2995 20.3321 25.0774C20.3321 24.9522 20.3076 24.8607 20.2574 24.7987L20.1827 24.7065L18.3581 24.6869L16.5334 24.6674L16.4391 24.5577C16.3238 24.4236 16.3184 24.262 16.4246 24.1269L16.5045 24.0253L18.324 24.0141L20.1435 24.0028L20.2378 23.8931C20.309 23.8103 20.3321 23.7377 20.3321 23.5967C20.3321 23.2453 20.4006 23.265 21.089 23.8144Z" fill="black"/>
<defs>
<linearGradient id="paint0_linear_2703_10" x1="-17.1095" y1="37.46" x2="70.0433" y2="-7.09939" gradientUnits="userSpaceOnUse">
<stop stop-color="#FEFFBB"/>
<stop offset="0.4058" stop-color="#E7DD84"/>
<stop offset="0.8032" stop-color="#F2DF32"/>
<stop offset="1" stop-color="#F3F745"/>
</linearGradient>
</defs>
</svg>
