<svg width="50" height="50" viewBox="0 0 50 50" fill="none" xmlns="http://www.w3.org/2000/svg">
<path fill-rule="evenodd" clip-rule="evenodd" d="M23.1418 0.0568408C17.6773 0.580416 13.3145 2.31137 9.29089 5.55218C1.52995 11.8033 -1.74481 22.0058 0.906404 31.6742C1.66754 34.45 2.97101 37.181 4.67484 39.5698L5.34285 40.5064L5.09875 40.9995C4.33683 42.5388 4.66008 44.4293 5.89652 45.6655C8.1509 47.9195 11.9512 46.8641 12.7425 43.7641C13.5379 40.649 10.5175 37.878 7.4614 38.9189C6.68316 39.184 6.84117 39.271 6.05532 38.1447C4.06165 35.2873 2.74118 31.9214 2.16483 28.2282C1.922 26.6717 1.92454 23.26 2.16981 21.6823C3.75188 11.5032 11.4814 3.79201 21.7249 2.17332C23.2153 1.93786 26.7796 1.93913 28.2232 2.17576C30.1966 2.49925 30.031 2.50374 30.4187 2.11607C30.9151 1.61975 30.8466 0.923343 30.2723 0.626335C29.45 0.201242 25.188 -0.139146 23.1418 0.0568408ZM33.5107 1.88784C32.9648 2.19032 32.8655 2.85517 33.2946 3.33527C33.5289 3.59749 33.6485 3.65221 33.9886 3.65221C34.3318 3.65221 34.448 3.59788 34.6936 3.32296C34.9488 3.03748 34.9806 2.94066 34.9339 2.59265C34.839 1.88471 34.1404 1.53885 33.5107 1.88784ZM40.1472 3.26961C38.2615 3.79846 36.9933 5.5768 37.1395 7.48733C37.3474 10.2032 39.9791 11.9599 42.5355 11.0892C43.3241 10.8207 43.1435 10.7024 44.0919 12.1077C46.0482 15.0064 47.2827 18.1996 47.8311 21.78C48.0714 23.3489 48.0726 26.6797 47.8334 28.2282C46.6537 35.8654 42.0662 42.2145 35.261 45.6287C30.8979 47.8176 25.9476 48.5409 21.0266 47.7084C20.2136 47.5709 20.1058 47.5712 19.8325 47.7125C19.4564 47.907 19.3307 48.1373 19.3307 48.6324C19.3307 48.9421 19.3889 49.0698 19.617 49.2617C19.7743 49.3941 20.0492 49.5295 20.2277 49.5628C23.3458 50.1422 26.5481 50.1457 29.6401 49.5732C35.453 48.4968 40.8141 45.2675 44.5576 40.5872C51.5228 31.8793 51.832 19.565 45.3148 10.4283L44.6396 9.48158L44.8314 9.15663C44.9368 8.97784 45.0963 8.54649 45.1856 8.19809C45.6905 6.22885 44.5859 4.1283 42.6581 3.39183C41.9783 3.13215 40.8357 3.07646 40.1472 3.26961ZM41.855 5.18248C42.6291 5.39674 43.3672 6.39172 43.369 7.22334C43.3718 8.41548 42.2625 9.45032 41.0862 9.35281C39.9955 9.26234 39.1797 8.44674 39.0892 7.35621C39.0541 6.93317 39.0948 6.73425 39.3033 6.30818C39.783 5.32776 40.7842 4.88616 41.855 5.18248ZM21.4099 7.41542C21.0309 7.64638 20.9983 7.76792 20.9672 9.0601L20.9431 10.0671L20.0327 10.3694C19.5318 10.5356 18.7076 10.8752 18.201 11.1239L17.2799 11.5762L16.5779 10.8696C15.8087 10.0954 15.4685 9.9015 15.0574 10.0029C14.6798 10.096 10.1827 14.5802 10.0432 15.0025C9.89323 15.4569 10.0968 15.8443 10.8987 16.6306L11.5757 17.2944L11.1101 18.2426C10.854 18.7642 10.5123 19.5866 10.3506 20.0702L10.0566 20.9495L8.88164 20.9984C7.12534 21.0714 7.26879 20.7377 7.2342 24.8308C7.21456 27.1667 7.23948 28.2503 7.31746 28.4383C7.51074 28.905 7.778 29.0006 8.97311 29.0309L10.0655 29.0586L10.3843 29.9983C10.5596 30.5152 10.9016 31.3352 11.1443 31.8207L11.5857 32.7035L10.8701 33.4142C10.0871 34.1918 9.89264 34.5312 9.99437 34.9432C10.0875 35.3207 14.5725 39.817 14.9949 39.9564C15.4506 40.1068 15.8371 39.9027 16.6327 39.0917L17.306 38.4054L18.0985 38.8061C18.5344 39.0264 19.3527 39.3695 19.917 39.5685L20.9431 39.9303L20.9672 40.9427C20.9982 42.2405 21.0308 42.3616 21.4099 42.5927C21.7065 42.7736 21.9162 42.7848 24.9984 42.7848C29.2202 42.7848 28.983 42.8932 29.0296 40.9427L29.0538 39.9303L30.0889 39.5664C30.6582 39.3662 31.4772 39.0238 31.909 38.8055L32.694 38.4085L33.3657 39.0932C34.1599 39.9027 34.5465 40.1067 35.0019 39.9564C35.4244 39.817 39.9094 35.3207 40.0025 34.9432C40.1042 34.5312 39.9098 34.1918 39.1268 33.4142L38.4112 32.7035L38.8526 31.8207C39.0953 31.3352 39.4373 30.5152 39.6126 29.9983L39.9314 29.0586L41.0238 29.0309C42.2189 29.0006 42.4861 28.905 42.6794 28.4383C42.7574 28.2503 42.7823 27.1667 42.7627 24.8308C42.7281 20.7377 42.8715 21.0714 41.1152 20.9984L39.9403 20.9495L39.6463 20.0702C39.4846 19.5866 39.1429 18.7642 38.8868 18.2426L38.4212 17.2944L39.0982 16.6306C39.9001 15.8443 40.1036 15.4569 39.9536 15.0025C39.8142 14.5802 35.3171 10.096 34.9395 10.0029C34.5284 9.9015 34.1881 10.0954 33.419 10.8696L32.717 11.5762L31.7959 11.1239C31.2893 10.8752 30.465 10.5356 29.9642 10.3694L29.0538 10.0671L29.0296 9.0601C28.9986 7.76792 28.9659 7.64638 28.587 7.41542C28.2904 7.23458 28.0807 7.22334 24.9984 7.22334C21.9162 7.22334 21.7065 7.23458 21.4099 7.41542ZM27.0661 10.2006C27.097 11.1489 27.118 11.2429 27.3517 11.4764C27.5196 11.6442 27.8576 11.7934 28.3624 11.9226C29.5776 12.2339 31.3363 12.9915 32.1808 13.5673C32.3504 13.6831 32.6326 13.7676 32.8508 13.7679C33.1854 13.7685 33.3067 13.6919 33.9331 13.0847C34.3211 12.7085 34.6798 12.4008 34.7302 12.4008C34.7805 12.4008 35.4557 13.0358 36.2307 13.8119L37.6395 15.223L36.9378 15.9616C36.0349 16.912 36.0183 17.099 36.727 18.3347C37.2731 19.287 37.6715 20.2592 38.0453 21.5519C38.4078 22.8059 38.5212 22.8951 39.8048 22.9368L40.8289 22.9702V25.013V27.0558H39.8957C38.4556 27.0558 38.4494 27.0615 37.8983 28.9121C37.6025 29.9052 37.1903 30.8631 36.6701 31.7652C36.0384 32.8608 36.0602 33.0504 36.9202 33.937C37.2964 34.325 37.6042 34.6835 37.6042 34.7339C37.6042 34.7843 36.969 35.4594 36.1927 36.2341L34.7814 37.6427L34.0576 36.9553C33.2013 36.1421 32.9488 36.0578 32.3274 36.3775C32.0855 36.502 31.4919 36.8091 31.0082 37.06C30.5244 37.3109 29.6889 37.6506 29.1515 37.8147C27.4098 38.3468 27.337 38.3811 27.1871 38.7396C27.1044 38.9379 27.0505 39.4143 27.0505 39.9491V40.8315H24.9984H22.9463V39.9491C22.9463 39.4143 22.8925 38.9379 22.8097 38.7396C22.6606 38.3828 22.6382 38.3723 20.8154 37.8002C20.2615 37.6263 19.426 37.286 18.9587 37.0439C18.4915 36.8019 17.9114 36.502 17.6695 36.3775C17.0481 36.0578 16.7956 36.1421 15.9393 36.9553L15.2155 37.6427L13.8041 36.2341C13.0279 35.4594 12.3927 34.7843 12.3927 34.7339C12.3927 34.6835 12.7005 34.325 13.0767 33.937C13.9366 33.0504 13.9584 32.8608 13.3268 31.7652C12.8066 30.8631 12.3943 29.9052 12.0986 28.9121C11.5475 27.0615 11.5413 27.0558 10.1012 27.0558H9.16796V25.013V22.9702L10.1921 22.9368C11.4757 22.8951 11.589 22.8059 11.9516 21.5519C12.3254 20.2592 12.7238 19.287 13.2699 18.3347C13.974 17.107 13.9584 16.931 13.0605 15.9697L12.3603 15.2201L13.7677 13.8104C14.5418 13.0351 15.2164 12.4008 15.2667 12.4008C15.3171 12.4008 15.6758 12.7085 16.0638 13.0847C16.6902 13.6919 16.8114 13.7685 17.146 13.7679C17.3642 13.7676 17.6464 13.6831 17.8161 13.5673C18.6585 12.9925 20.6464 12.1669 22.0244 11.8193C22.2429 11.7641 22.5287 11.6052 22.6595 11.4661C22.8745 11.2374 22.9007 11.115 22.9308 10.1949L22.9641 9.17666H24.9984H27.0328L27.0661 10.2006ZM23.9347 16.9953C22.1846 17.2369 20.6196 18.0282 19.3221 19.3275C18.3531 20.2979 17.765 21.2262 17.3644 22.4183C15.4857 28.0079 20.0525 33.6751 25.9019 33.0129C30.2957 32.5154 33.5077 28.5052 33.0126 24.1351C32.6346 20.7988 30.2227 18.0135 26.996 17.187C26.1405 16.9678 24.7598 16.8813 23.9347 16.9953ZM26.4642 19.0614C27.3708 19.2706 28.5257 19.9291 29.2582 20.6543C30.4987 21.8824 31.0796 23.2697 31.0796 25.0041C31.0796 26.7096 30.5002 28.1162 29.3057 29.3105C28.1112 30.5048 26.7043 31.0841 24.9984 31.0841C23.2637 31.0841 21.8761 30.5032 20.6478 29.263C19.8964 28.5044 19.2615 27.3706 19.0285 26.3719C18.8676 25.6824 18.8676 24.3257 19.0285 23.6363C19.2615 22.6376 19.8964 21.5038 20.6478 20.7451C22.2057 19.1721 24.308 18.5635 26.4642 19.0614ZM9.91336 40.9853C10.5083 41.3529 10.9269 42.0965 10.9269 42.7855C10.9269 44.1667 9.54564 45.202 8.18989 44.837C7.59468 44.6767 6.88554 43.9677 6.72518 43.3726C6.34251 41.9514 7.45504 40.5572 8.89171 40.6576C9.28776 40.6852 9.57945 40.7788 9.91336 40.9853ZM15.6382 46.4499C15.2685 46.6106 14.9937 47.1455 15.088 47.5211C15.2717 48.2529 16.1678 48.5031 16.6998 47.9711C17.213 47.4581 17.0275 46.6578 16.3346 46.3944C16.0336 46.28 16.0282 46.2804 15.6382 46.4499Z" fill="#1F31CF"/>
</svg>
