<svg width="47" height="36" viewBox="0 0 47 36" fill="none" xmlns="http://www.w3.org/2000/svg">
<path fill-rule="evenodd" clip-rule="evenodd" d="M19.106 0.0936979C18.4311 0.139402 17.7298 0.225108 17.5476 0.284116C17.1543 0.411453 16.9886 0.748395 17.1275 1.13792C17.2709 1.53975 17.549 1.61288 18.4971 1.49803C18.9833 1.43911 21.0228 1.3963 23.454 1.39395C27.9111 1.3897 28.9744 1.45902 31.7615 1.93507C33.9971 2.31699 35.9617 2.96336 36.4524 3.47841C36.6543 3.69019 36.6546 3.69534 36.4811 3.88477C35.9568 4.45702 33.8787 5.13235 31.3943 5.5378C29.0188 5.92542 27.7965 5.99737 23.5458 6C19.0763 6.0028 17.7415 5.91565 15.1466 5.45146C12.9074 5.0509 10.9764 4.39918 10.5196 3.88984C10.3477 3.69806 10.3477 3.69163 10.5196 3.50393C10.9011 3.08744 12.4268 2.49863 13.9991 2.16096C14.5883 2.03444 14.8714 1.92765 14.9859 1.78836C15.2166 1.50817 15.1877 1.13991 14.9153 0.887588C14.6882 0.677169 14.6719 0.67554 13.9785 0.790388C12.2451 1.07755 10.4045 1.78411 9.68009 2.44043C9.06561 2.99721 8.9963 3.21432 8.9963 4.583V5.74858L7.73412 5.80352C5.54058 5.89909 3.07203 6.30182 1.81444 6.76927C1.12377 7.02603 0.469361 7.46614 0.209397 7.8487L0.00037981 8.15623V18.6004C0.00037981 29.9738 -0.0327583 29.2604 0.520032 29.7768C1.39126 30.5907 4.3936 31.2991 7.65463 31.4603L8.95041 31.5244L9.0019 32.1579C9.06331 32.9123 9.12895 33.0459 9.68771 33.5536C10.9505 34.7013 14.5284 35.5692 19.4151 35.9131C21.0785 36.0302 25.9224 36.0286 27.6307 35.9104C32.4625 35.5762 36.0468 34.7037 37.3122 33.5536C37.8709 33.0459 37.9366 32.9123 37.998 32.1579L38.0495 31.5244L39.3805 31.4562C40.4558 31.4009 40.7556 31.3558 40.941 31.2208C41.2536 30.9935 41.3013 30.4768 41.0342 30.2135C40.8507 30.0325 40.7796 30.0262 39.5373 30.0799C38.82 30.1109 38.1806 30.1524 38.1165 30.172C38.0242 30.2003 38.005 29.8157 38.0247 28.332L38.0495 26.4562L39.2887 26.3913C41.6909 26.2652 44.1359 25.8502 45.2803 25.3744L45.6264 25.2304L45.6016 27.0167L45.5767 28.803L45.0749 29.0501C44.799 29.186 44.296 29.3641 43.9572 29.446C43.2702 29.612 43.0217 29.8145 43.0217 30.2085C43.0217 30.5141 43.1838 30.7401 43.4835 30.8524C43.9077 31.0114 45.7835 30.3429 46.4389 29.7991C47.0381 29.302 46.9995 30.0708 46.9995 18.6278C46.9995 9.65893 46.9808 8.17532 46.8651 7.95468C46.3479 6.96874 44.2924 6.27612 40.8033 5.9123C40.0965 5.83863 39.1775 5.7779 38.7609 5.77736L38.0036 5.77636V4.59693C38.0036 3.80965 37.9623 3.32066 37.8795 3.12626C37.7162 2.74326 37.0383 2.13689 36.4387 1.83723C34.7963 1.01674 31.4349 0.354889 27.493 0.075869C25.9508 -0.0332773 20.8205 -0.0223266 19.106 0.0936979ZM10.936 5.72016C12.6819 6.48138 15.7181 7.052 19.4151 7.31373C21.096 7.43266 25.9012 7.43094 27.6136 7.31075C31.2419 7.05607 34.3265 6.47767 36.0393 5.73084C36.3245 5.60658 36.5732 5.50486 36.5921 5.50486C36.6111 5.50486 36.6266 6.71958 36.6266 8.20419C36.6266 10.8866 36.6254 10.9047 36.4201 11.0941C35.8677 11.6039 34.3639 12.1215 32.2664 12.5236C30.9611 12.7739 30.7212 12.9057 30.7212 13.3724C30.7212 13.7742 30.9811 14.0121 31.4199 14.0121C32.2881 14.0121 34.9403 13.3598 36.0639 12.8699C36.3355 12.7515 36.5732 12.6546 36.5921 12.6546C36.6111 12.6546 36.6266 13.8693 36.6266 15.3539C36.6266 18.0375 36.6255 18.0542 36.4201 18.2399C35.5608 19.0172 32.8513 19.7198 29.0994 20.1382C27.0179 20.3704 20.0506 20.3715 17.9463 20.1399C14.1609 19.7234 11.4457 19.0232 10.5798 18.2399C10.3744 18.0542 10.3732 18.0379 10.3732 15.3442C10.3732 13.2109 10.3976 12.6458 10.488 12.6848C13.4769 13.9771 17.6228 14.5703 23.5917 14.5597C27.2599 14.5532 28.3946 14.4757 28.6609 14.2131C28.904 13.9735 28.9124 13.5347 28.6787 13.2787C28.5077 13.0913 28.4598 13.0877 26.9882 13.1514C24.8377 13.2447 21.0988 13.2237 19.4953 13.1095C15.1713 12.8017 11.5703 11.9862 10.5798 11.0902C10.3744 10.9045 10.3732 10.8878 10.3732 8.20419C10.3732 6.71958 10.3887 5.50486 10.4077 5.50486C10.4267 5.50486 10.6644 5.60179 10.936 5.72016ZM8.9963 8.51453V9.89524L7.82592 9.83288C5.12806 9.68925 3.01209 9.30416 1.91073 8.75644C1.69308 8.64829 1.49738 8.54394 1.4758 8.52466C1.29928 8.36673 2.94333 7.78353 4.24058 7.54388C5.34589 7.33962 7.14085 7.1559 8.1472 7.14395L8.9963 7.13391V8.51453ZM41.8564 7.40505C43.5821 7.65357 45.5308 8.22691 45.5308 8.48611C45.5308 8.52412 45.2519 8.67951 44.9112 8.83147C43.7343 9.35629 41.8069 9.69269 39.174 9.83288L38.0036 9.89524V8.5005V7.10576L39.2923 7.16359C40.0011 7.19536 41.155 7.30405 41.8564 7.40505ZM3.07552 10.5714C4.24012 10.8684 5.93723 11.0937 7.71117 11.1868L8.95041 11.2518L8.97519 13.1074L8.99988 14.9632L7.69942 14.895C5.26547 14.7675 2.93737 14.3409 1.92808 13.8378L1.4232 13.5861L1.39833 11.806L1.37345 10.0259L1.71961 10.1699C1.90999 10.2491 2.52016 10.4297 3.07552 10.5714ZM45.5893 13.5143C45.5262 13.6768 44.5958 14.0808 43.8294 14.2787C42.7923 14.5465 40.815 14.8156 39.3005 14.895L38 14.9632L38.0247 13.1074L38.0495 11.2518L39.2887 11.1868C41.665 11.0621 43.9277 10.69 45.1211 10.2277L45.5767 10.0511L45.6017 11.7347C45.6155 12.6606 45.6099 13.4615 45.5893 13.5143ZM3.07552 15.6395C4.24012 15.9366 5.93723 16.1618 7.71117 16.255L8.95041 16.3199L8.97519 18.1756L8.99988 20.0314L7.69942 19.9631C5.26547 19.8356 2.93737 19.4091 1.92808 18.906L1.4232 18.6543L1.39833 16.8742L1.37345 15.0941L1.71961 15.2381C1.90999 15.3173 2.52016 15.4979 3.07552 15.6395ZM45.5893 18.5825C45.5262 18.745 44.5958 19.149 43.8294 19.3469C42.7923 19.6147 40.815 19.8838 39.3005 19.9631L38 20.0314L38.0247 18.1756L38.0495 16.3199L39.2887 16.255C41.665 16.1302 43.9277 15.7582 45.1211 15.2958L45.5767 15.1192L45.6017 16.8029C45.6155 17.7288 45.6099 18.5296 45.5893 18.5825ZM10.936 20.0196C12.7254 20.7998 15.7681 21.3631 19.5924 21.6222C21.6746 21.7633 27.4865 21.681 29.283 21.485C32.4496 21.1395 34.5854 20.6543 36.466 19.8533C36.617 19.7891 36.6266 19.9482 36.6266 22.4939C36.6266 25.1876 36.6255 25.204 36.4201 25.3897C35.5608 26.1669 32.8513 26.8695 29.0994 27.2879C27.0003 27.522 20.0567 27.5207 17.9004 27.2858C15.0503 26.9753 12.79 26.4867 11.4767 25.8972C10.2834 25.3616 10.3732 25.638 10.3732 22.5036C10.3732 21.019 10.3887 19.8043 10.4077 19.8043C10.4267 19.8043 10.6644 19.9012 10.936 20.0196ZM3.07552 20.7077C4.25362 21.0082 5.96422 21.236 7.71117 21.3249L8.95041 21.3881L8.97519 23.2638C8.99484 24.7476 8.97565 25.1322 8.8834 25.104C8.81932 25.0845 8.1998 25.0437 7.50684 25.0135C6.32396 24.962 6.23557 24.9697 6.06106 25.1418C5.80642 25.3928 5.81404 25.8952 6.07621 26.136C6.19224 26.2426 6.41512 26.3254 6.60403 26.332C6.78377 26.3383 7.3853 26.3689 7.94066 26.3999L8.95041 26.4562L8.97519 28.3123L8.99988 30.1683L7.73596 30.0999C5.30531 29.9682 2.93406 29.5412 1.92808 29.0539L1.4232 28.8093L1.39833 27.0384L1.37354 25.2676L2.17418 25.5316C2.61452 25.6767 3.11352 25.7956 3.28316 25.7956C3.68238 25.7956 3.94757 25.556 3.94757 25.1954C3.94757 24.7349 3.74177 24.5468 3.05468 24.3797C2.71274 24.2965 2.20576 24.1188 1.92808 23.9848L1.4232 23.7412L1.39833 21.9517L1.37345 20.1622L1.71961 20.3062C1.90999 20.3854 2.52016 20.566 3.07552 20.7077ZM45.5799 23.675C45.5062 23.8643 44.5781 24.2292 43.5655 24.4667C42.3757 24.7459 40.8569 24.9454 39.2639 25.0317L38 25.1001L38.0247 23.2441L38.0495 21.3881L39.2887 21.3231C41.6713 21.198 44.1456 20.7805 45.2554 20.316L45.5767 20.1816L45.6017 21.8681C45.6155 22.7957 45.6057 23.6088 45.5799 23.675ZM11.1735 27.2631C12.9135 27.9734 15.8994 28.5172 19.4151 28.7637C21.0771 28.8803 25.9332 28.8797 27.5848 28.7629C31.2994 28.5 34.3097 27.9342 36.0639 27.1693C36.3355 27.0509 36.5732 26.954 36.5921 26.954C36.6111 26.954 36.6266 28.1687 36.6266 29.6533C36.6266 32.3369 36.6255 32.3537 36.4201 32.5394C35.5608 33.3166 32.8513 34.0192 29.0994 34.4376C27.0003 34.6717 20.0561 34.6712 17.9004 34.4368C15.0626 34.1281 12.7901 33.6365 11.4767 33.0469C10.2831 32.5112 10.3732 32.7892 10.3732 29.6437C10.3732 27.5113 10.3976 26.9448 10.488 26.9823C10.5511 27.0086 10.8596 27.1349 11.1735 27.2631Z" fill="black"/>
</svg>
