<svg width="50" height="50" viewBox="0 0 50 50" fill="none" xmlns="http://www.w3.org/2000/svg">
<path fill-rule="evenodd" clip-rule="evenodd" d="M17.4495 0.0618756C17.1931 0.108699 16.6874 0.242229 16.3257 0.358653C14.1903 1.04595 12.3924 2.79768 11.9102 4.66094C11.7175 5.40513 11.7013 5.4413 11.5621 5.4413C11.2783 5.4413 10.935 5.67405 10.8472 5.92596C10.7232 6.28188 10.9383 6.78745 11.2403 6.84943C12.6762 7.14406 13.1764 6.90583 13.1764 5.92752C13.1764 5.32468 13.5439 4.35537 14.0077 3.73513C15.3565 1.9312 17.7515 1.08017 20.0462 1.58955C21.4645 1.90442 22.9572 2.87266 23.5466 3.86015C23.6645 4.05771 23.8612 4.32937 23.9838 4.46378C24.2011 4.70229 24.2072 4.76652 24.2369 7.13614L24.2674 9.56412L24.5416 9.7999C24.8876 10.0975 25.1129 10.0975 25.4589 9.7999L25.7331 9.56412L25.7636 7.13614C25.7933 4.76652 25.7994 4.70229 26.0167 4.46378C26.1392 4.32937 26.336 4.05771 26.4539 3.86015C26.8029 3.2754 27.7805 2.44372 28.5458 2.08037C30.3639 1.21741 32.2819 1.23061 34.0455 2.1183C35.7382 2.97031 36.8241 4.53123 36.8241 6.11218C36.8241 6.79625 36.5326 7.80907 36.1907 8.31308C35.7956 8.89549 35.7829 9.10693 36.1226 9.44672C36.2852 9.60938 36.5061 9.74242 36.6136 9.74242C37.1046 9.74242 37.766 8.76743 38.0957 7.55814C38.2463 7.00603 38.2837 6.95402 38.5507 6.92714C39.0339 6.87836 40.255 7.17934 40.9021 7.50672C41.5779 7.84866 42.4524 8.69617 42.7594 9.30693C43.2829 10.348 43.2737 11.3435 42.7303 12.4778C42.2055 13.5732 42.3733 13.8635 43.6264 14.0289C44.9411 14.2024 45.849 14.6535 46.6645 15.5384C47.177 16.0946 47.4271 16.5839 47.5818 17.3331C47.9473 19.1039 46.6803 20.9887 44.862 21.3787C44.5902 21.4371 44.2901 21.5706 44.1953 21.6755C43.9685 21.9261 43.9755 22.3954 44.2099 22.6555C44.4987 22.976 45.4403 22.8709 46.3182 22.4204L46.9869 22.0771L47.336 22.4837C47.528 22.7073 47.8343 23.1996 48.0167 23.5778C48.9781 25.5719 48.5838 27.7234 46.9616 29.3356C46.1479 30.1443 45.5018 30.54 44.3972 30.9065C43.0798 31.3436 42.9324 31.7115 43.6977 32.6515C44.5222 33.6642 44.9368 34.7734 44.9324 35.9542C44.9291 36.7838 44.8008 37.3054 44.3757 38.2171C43.9776 39.0708 43.9949 39.3844 44.4541 39.6423C45.0472 39.9753 45.5652 39.4344 46.0809 37.9441C46.3214 37.2493 46.3513 37.0257 46.3491 35.9401C46.3468 34.8576 46.3154 34.629 46.0732 33.9362C45.9229 33.5061 45.6687 32.9404 45.5082 32.6792C45.3478 32.418 45.2301 32.1981 45.2466 32.1904C46.6683 31.5384 47.0803 31.2635 47.9688 30.3739C48.7376 29.6043 48.9736 29.293 49.3074 28.6087C49.8305 27.5361 50.0624 26.4118 49.9856 25.322C49.8891 23.9542 49.2486 22.4211 48.3645 21.4422C48.0289 21.0707 48.0272 21.0641 48.196 20.8055C48.6281 20.1432 48.9502 19.3097 49.0553 18.5818C49.4233 16.0316 47.5511 13.4592 44.817 12.7582C44.3707 12.6437 44.3377 12.6151 44.3892 12.3857C44.699 11.0076 44.6877 10.3608 44.3354 9.31358C43.638 7.24024 41.5164 5.7068 39.0339 5.48177L38.2902 5.41432L38.1865 5.01236C38.0043 4.3061 37.9763 4.22946 37.6938 3.66592C36.8943 2.07118 35.2239 0.782313 33.2085 0.204986C32.2468 -0.0704815 30.2902 -0.0512242 29.2565 0.243989C27.9825 0.607824 27.0168 1.16795 26.1172 2.06473C25.6835 2.49709 25.2547 2.96083 25.1644 3.09524L25.0002 3.33962L24.8361 3.09524C24.7458 2.96083 24.317 2.49709 23.8833 2.06473C22.9922 1.17645 22.0198 0.608606 20.7957 0.26178C19.9745 0.0290307 18.2073 -0.0765421 17.4495 0.0618756ZM31.3162 4.86192C30.8051 5.26417 31.0885 6.12557 31.7319 6.12557C32.4265 6.12557 32.7192 5.34062 32.1934 4.88822C31.8655 4.6061 31.6496 4.59965 31.3162 4.86192ZM7.85075 6.53584C6.97989 7.03086 5.96372 8.31621 5.6565 9.31133C5.31194 10.4273 5.30325 11.0156 5.61125 12.3857C5.66275 12.6151 5.62982 12.6437 5.18344 12.7582C2.43816 13.462 0.55191 16.0718 0.947374 18.619C1.05594 19.3184 1.39033 20.1702 1.80768 20.8108C1.97996 21.0751 1.97888 21.08 1.67674 21.3973C0.768257 22.3511 0.10612 23.9382 0.0123112 25.3863C-0.154982 27.9686 1.39531 30.5154 3.89318 31.7621C4.35001 31.9901 4.73727 32.1828 4.75388 32.1904C4.77039 32.1981 4.65264 32.418 4.49229 32.6792C3.85819 33.7118 3.40283 35.7798 3.6909 36.3183C3.8538 36.6227 4.25288 36.7588 4.58248 36.6222C4.8943 36.493 5.06579 36.159 5.06579 35.6808C5.06579 34.77 5.55673 33.5679 6.3028 32.6515C7.06813 31.7115 6.92067 31.3436 5.60324 30.9065C4.47724 30.5328 3.84471 30.1407 3.01372 29.3007C0.913172 27.1774 0.922749 24.3712 3.03815 22.0886C3.84393 21.2192 3.87383 21.0224 3.30443 20.3348C2.02559 18.7904 2.03859 16.9516 3.33824 15.5337C4.4104 14.364 6.19971 13.7493 7.53552 14.0916C7.85613 14.1737 8.31325 14.3725 8.55139 14.5333C9.3131 15.0476 9.95169 14.8581 9.95169 14.1178C9.95169 13.843 9.88329 13.7098 9.6341 13.499C9.23356 13.1601 8.46374 12.8036 7.79701 12.6483C7.32151 12.5376 7.2666 12.4945 7.08191 12.0885C6.93514 11.7659 6.88071 11.4395 6.87768 10.8645C6.87201 9.79051 7.22819 9.05502 8.19189 8.15061C8.78699 7.59215 8.87679 7.46302 8.87679 7.16595C8.87679 6.91297 8.80976 6.77132 8.6193 6.62147C8.33065 6.39429 8.13765 6.37279 7.85075 6.53584ZM19.1149 8.27271C18.9414 8.40917 18.8383 8.62853 18.7587 9.03029C18.5316 10.176 17.6659 11.2069 16.3926 11.8484C15.5636 12.266 15.4173 12.5872 15.8219 13.1017C15.9606 13.2781 16.1171 13.3593 16.3188 13.3593C17.2617 13.3593 19.2586 11.7324 19.8107 10.5144C20.1782 9.70371 20.3486 8.82491 20.1945 8.53556C19.94 8.05755 19.5187 7.95491 19.1149 8.27271ZM31.0099 8.57535C30.5735 8.7035 30.0281 9.19823 29.7972 9.67546C29.5394 10.2081 29.5309 11.0136 29.7773 11.5563C29.9471 11.9304 30.6907 12.675 30.8945 12.675C31.0518 12.675 30.8877 13.631 30.6373 14.1733C30.5088 14.4514 30.2763 14.8064 30.1206 14.9623C29.5276 15.5554 28.3336 15.8921 26.808 15.8964C25.7262 15.8996 25.8026 16.0322 25.7655 14.0856C25.7351 12.4895 25.7201 12.3738 25.5187 12.1725C25.2377 11.8916 24.7627 11.8917 24.4818 12.1726L24.2674 12.3871L24.2418 28.5348C24.2207 41.8829 24.1936 44.6952 24.0857 44.7556C24.0139 44.7957 23.7849 45.1199 23.5768 45.476C22.8142 46.7803 21.2814 47.8866 19.6258 48.3273C18.759 48.558 16.877 48.558 16.0102 48.3273C13.5945 47.6841 11.7733 45.8708 11.4162 43.7531C11.2142 42.5547 11.5556 41.2474 12.2888 40.4121C12.7034 39.9397 12.7237 39.5153 12.3473 39.1914C12.1483 39.0201 12.0046 38.972 11.819 39.0145C11.4424 39.1007 10.7692 39.8821 10.4134 40.6459C10.2416 41.0148 10.0535 41.3165 9.99527 41.3165C9.70993 41.3165 8.74595 40.9617 8.04619 40.5991C7.45646 40.2936 7.06618 39.9918 6.45759 39.3705C5.78382 38.6828 5.59992 38.5469 5.34302 38.5469C4.97267 38.5469 4.67492 38.8672 4.67492 39.2658C4.67492 39.5733 5.18247 40.2674 5.84089 40.8603C6.72846 41.6596 8.21075 42.437 9.34818 42.6996L9.83149 42.8112L9.89951 43.5012C10.1902 46.4524 12.3947 48.8741 15.5757 49.7365C16.6533 50.0286 18.7639 50.0504 19.8212 49.7804C20.849 49.518 21.7778 49.1175 22.5508 48.6035C23.2922 48.1103 24.4597 46.9286 24.7537 46.3735C24.86 46.1728 24.9709 46.0087 25.0002 46.0087C25.0296 46.0087 25.1405 46.1732 25.2468 46.3742C25.5575 46.9623 26.8305 48.2268 27.581 48.6928C30.416 50.4536 34.1287 50.4339 36.8701 48.6437C38.7441 47.4198 39.8957 45.5853 40.1016 43.4959L40.17 42.8007L40.7927 42.6442C41.5096 42.464 42.4542 42.065 42.7083 41.8351C43.0952 41.4849 42.7954 40.6323 42.2854 40.6323C42.1719 40.6323 41.6754 40.7835 41.1821 40.9683C40.6889 41.1531 40.0452 41.335 39.7517 41.3724C38.7452 41.5008 38.558 41.7049 38.6375 42.5873C38.8215 44.6322 37.519 46.7394 35.4414 47.7581C34.2522 48.3412 33.5673 48.4965 32.1825 48.4965C30.7996 48.4965 30.1127 48.3412 28.9303 47.7614C27.9243 47.2682 27.0195 46.4429 26.4069 45.4597C26.1596 45.0627 25.9178 44.7379 25.8695 44.7379C25.8191 44.7379 25.782 42.7475 25.782 40.0457V35.3536H26.901C28.1673 35.3536 28.8527 35.4712 29.507 35.8008C30.2755 36.188 30.7888 36.9704 30.9127 37.9441L30.9749 38.4328L30.51 38.775C29.8897 39.2314 29.593 39.8069 29.593 40.5538C29.593 41.2615 29.8239 41.7508 30.3841 42.2305C31.2214 42.9474 32.4571 42.9057 33.2517 42.1336C33.7261 41.6728 33.9204 41.2093 33.9222 40.5345C33.9243 39.6979 33.4115 38.8991 32.6493 38.5517C32.4911 38.4796 32.4268 38.3671 32.4268 38.1624C32.4268 37.3102 31.8777 35.9928 31.2293 35.289C30.338 34.3217 29.3663 33.9836 27.2722 33.9121L25.782 33.8611V31.577V29.2929L27.321 29.2944C31.3691 29.2984 34.2917 29.7417 35.5551 30.5435C36.4746 31.127 37.0965 32.1014 37.2644 33.2217C37.3248 33.625 37.3103 33.6794 37.1264 33.7378C36.4441 33.9545 35.9046 34.8189 35.9046 35.6958C35.9046 37.648 38.2247 38.6237 39.5986 37.2493C40.2215 36.6264 40.4175 35.5968 40.0619 34.816C39.8785 34.4129 39.165 33.6921 38.9492 33.6915C38.8739 33.6913 38.7645 33.3673 38.6631 32.8442C38.1033 29.9578 35.9887 28.4742 31.7916 28.0233C31.2542 27.9657 29.6822 27.8911 28.2982 27.8576L25.782 27.7969V25.5298V23.2626L28.3471 23.1995C32.26 23.1034 34.1271 22.8122 35.7235 22.0488C37.3517 21.2702 38.3216 20.003 38.6594 18.2137C38.7472 17.7481 38.868 17.3671 38.9278 17.3671C39.1439 17.3671 39.884 16.6357 40.0599 16.2484C40.4923 15.296 40.1214 14.064 39.2377 13.5174C38.4216 13.0127 37.4137 13.0691 36.6991 13.6596C35.8031 14.4 35.6198 15.6357 36.2644 16.5924C36.4676 16.8941 36.9613 17.2988 37.2392 17.3915C37.3232 17.4195 37.3195 17.5764 37.2249 18.0091C36.7872 20.0111 35.5091 20.9707 32.6752 21.4251C31.5232 21.6099 29.0361 21.7652 27.2233 21.7656L25.782 21.766V19.5289V17.2919L26.394 17.341C27.2246 17.4077 28.8297 17.222 29.5444 16.9763C31.1427 16.4271 32.046 15.2919 32.3674 13.4286C32.4755 12.8021 32.5042 12.7513 32.878 12.5284C33.3717 12.2338 33.7541 11.6898 33.8865 11.0933C34.1136 10.0703 33.5521 9.02267 32.5521 8.6034C32.2025 8.45687 31.4593 8.44338 31.0099 8.57535ZM32.2368 10.1182C32.5589 10.3791 32.5384 10.8784 32.1934 11.1753C31.8655 11.4574 31.6496 11.4638 31.3162 11.2016C31.1275 11.0532 31.0588 10.9095 31.0588 10.6639C31.0588 10.0276 31.737 9.71339 32.2368 10.1182ZM38.5523 14.8426C38.872 15.1431 38.8575 15.6289 38.521 15.8937C38.0403 16.272 37.4685 16.0517 37.3509 15.443C37.2268 14.8001 38.0627 14.3824 38.5523 14.8426ZM12.3458 19.4462C11.4167 19.8277 10.9623 20.1253 10.2581 20.8137C9.34779 21.7036 8.76901 22.7298 8.44937 24.0206C8.14371 25.2548 8.31159 25.7739 9.01623 25.7739C9.41141 25.7739 9.75625 25.4116 9.75625 24.9964C9.75625 24.6171 10.0283 23.7576 10.3505 23.119C10.9303 21.9696 12.2086 20.9275 13.4407 20.5994C14.1564 20.4089 14.4335 19.907 14.0832 19.4359C13.7957 19.0492 13.3058 19.052 12.3458 19.4462ZM19.0849 24.0105C18.7527 24.1437 18.6631 24.3323 18.5679 25.0999C18.5176 25.5048 18.4094 25.966 18.3273 26.1248C18.1404 26.4864 17.7088 26.9224 17.3587 27.1036C16.6203 27.4856 16.7957 28.5109 17.5994 28.5109C18.0261 28.5109 18.8509 27.9471 19.2851 27.3585C19.9438 26.4657 20.2834 24.6196 19.8632 24.2159C19.6223 23.9845 19.3373 23.9093 19.0849 24.0105ZM34.9824 25.0651C34.8713 25.1592 34.752 25.3561 34.7174 25.5026C34.6669 25.7161 34.713 25.8276 34.95 26.0647C35.2975 26.4122 35.5297 26.4354 35.8826 26.1577C36.3938 25.7555 36.1104 24.8941 35.4669 24.8941C35.3116 24.8941 35.0936 24.971 34.9824 25.0651ZM39.966 25.0651C39.8549 25.1592 39.7356 25.3561 39.701 25.5026C39.6505 25.7161 39.6966 25.8276 39.9336 26.0647C40.2811 26.4122 40.5134 26.4354 40.8662 26.1577C41.3774 25.7555 41.094 24.8941 40.4505 24.8941C40.2952 24.8941 40.0772 24.971 39.966 25.0651ZM15.8106 34.2539C15.6145 34.5002 15.601 34.6002 15.6484 35.4514C15.7717 37.6646 16.8531 39.5348 18.5814 40.524C19.3428 40.9598 19.7488 40.9247 19.9674 40.4046C20.16 39.9464 19.9968 39.6302 19.4008 39.3071C18.009 38.5527 17.0909 36.8826 17.0866 35.098C17.0855 34.6428 17.0368 34.4387 16.8825 34.2427C16.5985 33.8814 16.1027 33.8865 15.8106 34.2539ZM38.521 35.1652C39.039 35.5728 38.705 36.4289 38.028 36.4289C37.8984 36.4289 37.6795 36.316 37.5417 36.1781C37.3394 35.9757 37.3024 35.867 37.3509 35.616C37.4685 35.0073 38.0403 34.7869 38.521 35.1652ZM32.2368 40.0305C32.5589 40.2914 32.5384 40.7907 32.1934 41.0876C31.8655 41.3697 31.6496 41.3762 31.3162 41.1139C31.1275 40.9655 31.0588 40.8218 31.0588 40.5762C31.0588 39.9399 31.737 39.6257 32.2368 40.0305ZM31.3162 45.2338C30.8051 45.636 31.0885 46.4974 31.7319 46.4974C32.4265 46.4974 32.7192 45.7125 32.1934 45.2601C31.8655 44.978 31.6496 44.9715 31.3162 45.2338Z" fill="#DE08E2"/>
</svg>
