<svg width="50" height="50" viewBox="0 0 50 50" fill="none" xmlns="http://www.w3.org/2000/svg">
<path fill-rule="evenodd" clip-rule="evenodd" d="M20.9358 0.231726C20.677 0.441371 20.6276 0.680076 20.4176 2.73807C20.2899 3.98909 20.184 5.10178 20.1821 5.21079C20.1798 5.34213 19.9571 5.46574 19.521 5.57741C18.5622 5.82322 16.9753 6.46802 15.7054 7.12805L14.5951 7.70508L13.4212 6.73401C10.9749 4.71028 10.7802 4.56853 10.4467 4.56853C10.1852 4.56853 9.55816 5.12145 7.4779 7.18667C6.02744 8.62678 4.77367 9.96713 4.69157 10.1652C4.50084 10.6256 4.59487 10.7799 6.36766 12.914L7.72129 14.5434L6.92716 16.1463C6.49037 17.0279 5.97148 18.2871 5.77389 18.9444L5.41489 20.1397L3.05799 20.3612C0.614796 20.5906 0.348942 20.6542 0.131436 21.0605C-0.043812 21.3881 -0.043812 28.6119 0.131436 28.9395C0.348942 29.3458 0.614796 29.4094 3.05799 29.6388L5.41489 29.8603L5.77986 31.0787C5.98061 31.7487 6.50014 33.0072 6.93439 33.8753L7.72383 35.4536L6.36893 37.0845C4.59474 39.2202 4.50084 39.3742 4.69157 39.8348C4.77367 40.0329 6.02744 41.3732 7.4779 42.8133C9.55816 44.8786 10.1852 45.4315 10.4467 45.4315C10.7801 45.4315 10.9751 45.2895 13.4188 43.268L14.5902 42.299L16.1472 43.0763C17.0035 43.5037 18.2396 44.023 18.894 44.2301C19.5484 44.4372 20.1055 44.6637 20.1319 44.7335C20.1585 44.8033 20.2859 45.9126 20.415 47.1986C20.6284 49.3209 20.6765 49.5582 20.936 49.7684C21.1987 49.9812 21.5338 50 25.0544 50C28.6494 50 28.903 49.985 29.1466 49.758C29.4305 49.4934 29.47 49.2699 29.7127 46.5448C29.7981 45.5867 29.9007 44.7562 29.9406 44.6995C29.9806 44.6426 30.6129 44.402 31.3458 44.1646C32.0786 43.9272 33.312 43.4117 34.0864 43.019L35.4948 42.3051L37.2991 43.799C39.1429 45.3255 39.4252 45.5022 39.8199 45.377C39.9439 45.3376 41.2573 44.0887 42.7386 42.6015C44.8404 40.4912 45.4316 39.8263 45.4316 39.5726C45.4316 39.2102 45.3744 39.1293 43.6256 37.0203C42.9439 36.1981 42.386 35.4904 42.386 35.4473C42.386 35.4044 42.7256 34.678 43.1407 33.8331C43.5558 32.9882 44.072 31.749 44.288 31.0793L44.6808 29.8617L46.9841 29.643C49.3686 29.4168 49.6517 29.3477 49.8702 28.9395C49.9503 28.7897 50 27.2577 50 24.9391C50 21.1907 49.9992 21.1806 49.7091 20.8905C49.3952 20.5765 49.2998 20.5598 46.3094 20.291L44.5857 20.1362L44.2213 18.9195C44.0208 18.2505 43.5015 16.9928 43.0672 16.1247L42.2778 14.5464L43.6327 12.9155C45.4029 10.7845 45.5005 10.625 45.312 10.1697C45.0998 9.65761 39.9557 4.5684 39.6508 4.56904C39.3024 4.56967 38.8619 4.87741 37.0615 6.37805L35.4805 7.69581L34.0692 6.98249C33.2929 6.5901 32.0629 6.07208 31.3356 5.83122C30.6084 5.59048 29.9806 5.34924 29.9406 5.2953C29.9007 5.24137 29.7981 4.41332 29.7127 3.4552C29.47 0.730076 29.4305 0.506599 29.1466 0.242005C28.903 0.0149748 28.6494 0 25.0544 0C21.5329 0 21.1988 0.0187818 20.9358 0.231726ZM27.8356 2.50635C27.8772 2.90761 27.9788 3.93858 28.061 4.79721C28.231 6.57157 28.3881 6.89657 29.1455 7.03858C30.4838 7.28972 33.233 8.43591 34.6648 9.33985C35.5352 9.88934 35.7412 9.81003 37.7147 8.16536L39.4898 6.68591L41.4021 8.59822L43.3143 10.5105L41.8524 12.2668C41.0485 13.2326 40.3496 14.1538 40.2994 14.3138C40.2298 14.536 40.3743 14.8961 40.9111 15.8367C41.7561 17.3176 42.2679 18.5315 42.7648 20.2335C42.969 20.933 43.2253 21.5706 43.3345 21.6503C43.5586 21.8142 44.003 21.8775 46.4785 22.0981L48.2234 22.2536V24.9971V27.7405L45.9075 27.9629C44.1105 28.1355 43.5429 28.2338 43.3741 28.4011C43.2544 28.5197 43.0142 29.1086 42.8403 29.7098C42.3742 31.3211 41.8211 32.6522 41.0455 34.0292C40.666 34.7028 40.3556 35.3905 40.3556 35.5574C40.3556 35.7584 40.8488 36.4532 41.815 37.6132C42.6176 38.5769 43.2743 39.4033 43.2743 39.4495C43.2743 39.4958 42.424 40.3826 41.3847 41.4202L39.495 43.3067L37.6998 41.831C36.3447 40.7173 35.8162 40.3553 35.5446 40.3553C35.3421 40.3553 34.7576 40.6122 34.2072 40.943C33.0192 41.6571 30.8867 42.5414 29.6535 42.8313C28.3364 43.1411 28.2458 43.2755 28.0619 45.1938C27.9791 46.0574 27.8772 47.0923 27.8356 47.4937L27.7599 48.2233H25.0503C22.342 48.2233 22.3407 48.2232 22.2834 47.9378C22.2519 47.7807 22.1375 46.7128 22.029 45.5647C21.9013 44.2131 21.7715 43.4166 21.6604 43.3056C21.5662 43.2113 20.9229 42.9693 20.231 42.7678C18.5893 42.2896 17.3205 41.7596 15.9909 40.9968C14.936 40.3916 14.7299 40.3096 14.3402 40.3404C14.235 40.3486 13.3541 41.0121 12.3826 41.8147C11.4111 42.6174 10.5827 43.2741 10.5419 43.2741C10.501 43.2741 9.6173 42.4223 8.57799 41.3812L6.68833 39.4883L8.14958 37.7327C8.95336 36.7671 9.65207 35.8462 9.70219 35.6862C9.77186 35.464 9.62732 35.1039 9.09054 34.1633C8.24729 32.6855 7.73373 31.4687 7.24072 29.7801C7.0387 29.0879 6.81701 28.4654 6.74797 28.3963C6.56816 28.2165 5.78176 28.0921 3.64998 27.9065L1.77821 27.7435V25V22.2565L3.64998 22.0935C5.78176 21.9079 6.56816 21.7835 6.74797 21.6037C6.81701 21.5346 7.04137 20.9028 7.24682 20.1994C7.71507 18.5952 8.33498 17.14 9.15627 15.7169C9.64458 14.8709 9.77338 14.5409 9.70308 14.3165C9.65232 14.1549 8.95336 13.2329 8.14958 12.2673L6.68833 10.5117L8.57799 8.61878C9.6173 7.57766 10.501 6.72589 10.5419 6.72589C10.5827 6.72589 11.4111 7.38261 12.3826 8.18528C14.4014 9.8533 14.4869 9.88071 15.5936 9.21459C15.9866 8.97817 16.6709 8.60317 17.114 8.38147C17.9545 7.96117 20.7235 6.98477 21.0846 6.9816C21.199 6.98058 21.4144 6.87982 21.5631 6.75761C21.8019 6.56155 21.8565 6.29061 22.0298 4.44162C22.1378 3.28997 22.2519 2.21916 22.2834 2.06218C22.3407 1.77678 22.342 1.77665 25.0503 1.77665H27.7599L27.8356 2.50635ZM23.5191 10.4089C19.3365 10.8358 15.1966 13.3148 12.9237 16.7536C11.1667 19.4115 10.4074 21.9038 10.4074 25.0122C10.4074 32.6398 16.1231 38.8731 23.7728 39.5878C28.0345 39.9859 32.1164 38.5176 35.221 35.4695C37.6857 33.0497 39.0232 30.4453 39.5308 27.0775C39.7715 25.481 39.7698 24.5354 39.5233 22.8758C38.6133 16.747 34.0121 11.8751 27.9829 10.657C26.5437 10.3661 24.8564 10.2723 23.5191 10.4089ZM26.1668 12.1846C31.6194 12.7018 36.114 16.5063 37.5008 21.7783C38.5971 25.9463 37.4562 30.5016 34.5263 33.6561C33.2928 34.984 32.2059 35.7963 30.6478 36.5548C29.1146 37.3011 27.872 37.6533 26.2216 37.8095C21.24 38.2808 16.4827 35.8434 13.9451 31.5197C12.727 29.444 12.1873 27.4426 12.1873 25C12.1873 18.3885 17.0942 12.9127 23.6684 12.1882C24.1569 12.1344 24.6138 12.0826 24.6836 12.0732C24.7534 12.0637 25.4207 12.114 26.1668 12.1846ZM27.9265 22.8744C26.6307 24.1481 25.0726 25.6731 24.4642 26.2631L23.3576 27.3357L21.5283 25.5334C19.5321 23.5664 19.2491 23.4166 18.6779 24.0246C18.1355 24.602 18.2479 24.7808 20.6648 27.1881C22.6648 29.1801 22.9752 29.4416 23.3392 29.4416C23.7071 29.4416 24.1549 29.0483 27.5563 25.7381C29.6494 23.701 31.4153 21.9345 31.4808 21.8123C31.8007 21.2145 31.3855 20.5584 30.6872 20.5584C30.3329 20.5584 29.9885 20.8473 27.9265 22.8744Z" fill="#94D113"/>
</svg>
