<svg width="268" height="268" viewBox="0 0 268 268" fill="none" xmlns="http://www.w3.org/2000/svg">
<path d="M185.635 155.465L215.975 185.82L133.866 268L51.7688 185.831L82.1085 155.465L133.877 207.547L185.635 155.465ZM237.415 103.65L268 134.006L237.682 164.361L207.343 134.006L237.415 103.65ZM133.877 103.65L164.206 133.738L133.866 164.104L103.537 134.006L133.866 103.662L133.877 103.65ZM30.3288 103.65L60.4118 134.006L30.351 164.093L0 134.006L30.3288 103.65ZM133.888 0L215.986 81.9234L185.646 112.267L133.877 60.4534L82.1198 112.536L51.7797 82.1804L133.877 0.0111858L133.888 0Z" fill="white"/>
</svg>
