<svg width="50" height="46" viewBox="0 0 50 46" fill="none" xmlns="http://www.w3.org/2000/svg">
<path fill-rule="evenodd" clip-rule="evenodd" d="M21.0486 2.13416C19.0098 3.30663 17.252 4.35498 17.1424 4.46367C16.9493 4.65545 16.9425 4.78443 16.915 8.76449L16.8866 12.8675L15.3037 13.7725C14.433 14.2703 13.6219 14.7669 13.501 14.8761C13.1788 15.1671 13.1978 15.7378 13.5386 16.0041C13.6801 16.1148 13.8838 16.2053 13.9913 16.2053C14.0988 16.2053 14.9607 15.7629 15.9068 15.2222C16.8529 14.6815 17.6709 14.2375 17.7247 14.2356C17.7785 14.2335 19.3605 15.1199 21.2403 16.2051C23.9014 17.7413 24.7339 18.1785 25 18.1795C25.2671 18.1805 26.0144 17.7934 28.418 16.4087C30.1099 15.4341 31.6713 14.5348 31.8879 14.4102L32.2816 14.1838L34.0359 15.1946C35.0009 15.7505 35.8834 16.2053 35.9973 16.2053C36.111 16.2053 36.3199 16.1148 36.4614 16.0041C36.7669 15.7654 36.8155 15.2107 36.5561 14.9258C36.4665 14.8276 35.6554 14.3238 34.7533 13.8063L33.1134 12.8655L33.085 8.771C33.0583 4.92117 33.0457 4.66437 32.8729 4.47483C32.5829 4.15651 25.259 -0.00252218 24.9929 1.14773e-06C24.8625 0.00126281 23.0876 0.961584 21.0486 2.13416ZM27.8639 3.29751C29.4021 4.17825 30.6603 4.92069 30.6596 4.94738C30.6575 5.02492 25.141 8.15006 25.0062 8.15006C24.8708 8.15006 19.3445 5.02463 19.3432 4.94738C19.3421 4.88546 24.9314 1.66501 25.009 1.68287C25.0408 1.69015 26.3255 2.41677 27.8639 3.29751ZM21.4186 7.95596L24.2155 9.5573L24.2171 12.8439L24.2188 16.1306L23.999 15.9914C23.8781 15.9148 22.8345 15.3133 21.6797 14.6545C20.5249 13.9958 19.5269 13.4093 19.4617 13.351C19.373 13.2717 19.6329 13.0812 20.4993 12.5904C21.1351 12.2303 21.7135 11.866 21.7847 11.7807C21.9989 11.5241 21.9464 10.9655 21.6884 10.7579C21.3105 10.4539 20.9435 10.5326 19.8821 11.1454C19.34 11.4585 18.7977 11.7658 18.6768 11.8283L18.457 11.9419V9.11592C18.457 7.56164 18.494 6.30444 18.5393 6.3223C18.5846 6.34006 19.8802 7.07522 21.4186 7.95596ZM31.543 9.07205C31.543 11.1215 31.5133 11.838 31.4285 11.838C31.3656 11.838 30.8223 11.5541 30.221 11.2072C29.0505 10.5317 28.6963 10.4483 28.3116 10.7579C28.0573 10.9625 28.0001 11.523 28.208 11.7719C28.2751 11.8523 28.8533 12.2167 29.493 12.5816C30.3752 13.0851 30.6273 13.2715 30.5379 13.3544C30.4729 13.4145 29.519 13.9764 28.418 14.6032C27.3169 15.2299 26.2732 15.8286 26.0986 15.9335L25.7812 16.1241L25.7837 12.8407L25.7862 9.5573L27.9979 8.29564C29.2144 7.60172 30.4767 6.87433 30.803 6.67935C31.1295 6.48428 31.4294 6.32046 31.4697 6.31541C31.5101 6.31027 31.543 7.55077 31.543 9.07205ZM7.65078 14.2633C6.81758 14.6412 0.424219 18.3661 0.219727 18.5929L0 18.8366V23.2415V27.6465L0.219727 27.8825C0.578027 28.2673 7.74756 32.3158 8.07022 32.3155C8.25557 32.3153 9.51641 31.6455 11.8151 30.326C13.7211 29.2319 15.3143 28.3367 15.3555 28.3367C15.3966 28.3367 16.1184 28.7298 16.9594 29.2102C17.8005 29.6906 18.5889 30.0836 18.7115 30.0836C18.8341 30.0836 19.0536 29.9817 19.1993 29.8572C19.5078 29.5935 19.5469 29.1072 19.2829 28.8174C19.1932 28.7188 18.4433 28.2561 17.6165 27.7892L16.1133 26.9403V22.8884V18.8366L15.8936 18.5911C15.6683 18.3395 8.61299 14.2456 8.23564 14.1475C8.12041 14.1176 7.85723 14.1698 7.65078 14.2633ZM41.7087 14.1373C41.1875 14.3501 34.2817 18.3962 34.1064 18.5916L33.8867 18.8366V22.8859V26.9353L32.5439 27.7001C30.6519 28.7779 30.5664 28.8473 30.5664 29.3051C30.5664 29.5959 30.6248 29.727 30.8237 29.8824C30.9652 29.9931 31.176 30.0836 31.292 30.0836C31.408 30.0836 32.1996 29.6906 33.0513 29.2102C33.9028 28.7298 34.6318 28.3367 34.6713 28.3367C34.7107 28.3367 36.301 29.232 38.2053 30.3262C40.4881 31.638 41.762 32.3158 41.9446 32.3158C42.264 32.3158 49.4227 28.2649 49.7803 27.8818L50 27.6465V23.2415V18.8366L49.7803 18.5916C49.5396 18.3234 42.3998 14.1933 42.0574 14.1242C41.941 14.1007 41.7841 14.1067 41.7087 14.1373ZM10.952 17.4334C12.503 18.3224 13.7604 19.0605 13.7464 19.0737C13.6083 19.2035 8.06699 22.3217 8.01309 22.3C7.97344 22.284 6.68496 21.5504 5.1499 20.6697C3.55264 19.7533 2.40781 19.0397 2.47334 19.0013C4.80654 17.6376 7.98076 15.8268 8.04541 15.8226C8.09297 15.8196 9.40098 16.5444 10.952 17.4334ZM44.8284 17.4358C46.3824 18.3261 47.6435 19.0629 47.6307 19.0731C47.4242 19.2378 41.9441 22.3187 41.8928 22.2989C41.8531 22.2835 40.5646 21.5512 39.0296 20.6713C37.3485 19.7078 36.2854 19.0436 36.3565 19.0012C37.5158 18.31 41.8668 15.8255 41.9243 15.822C41.9676 15.8193 43.2744 16.5455 44.8284 17.4358ZM4.50537 22.0912L7.32422 23.7067V26.9437C7.32422 28.724 7.2958 30.1807 7.26103 30.1807C7.22617 30.1807 5.92979 29.4511 4.38018 28.5593L1.5625 26.9381V23.7068C1.5625 21.9297 1.59043 20.4756 1.62451 20.4756C1.65869 20.4756 2.95508 21.2026 4.50537 22.0912ZM14.5508 23.244V26.0124L14.2694 25.8679C14.1146 25.7883 13.4969 25.4379 12.8966 25.089C11.6991 24.393 11.3438 24.3151 10.9682 24.6656C10.7188 24.8985 10.6692 25.3716 10.8674 25.6271C10.9328 25.7116 11.6167 26.1442 12.3872 26.5886C13.3179 27.1255 13.7439 27.4212 13.6567 27.4698C13.5845 27.51 12.4927 28.1347 11.2305 28.8581L8.93555 30.1731L8.90977 26.9561C8.89561 25.1868 8.92119 23.7022 8.9666 23.6571C9.07939 23.545 14.3858 20.486 14.4775 20.4802C14.5178 20.4777 14.5508 21.7214 14.5508 23.244ZM38.3301 22.0579L41.0645 23.6313L41.0901 26.9138L41.1159 30.1964L40.553 29.8782C40.2436 29.7032 39.1416 29.0712 38.1043 28.4738L36.2184 27.3876L37.4488 26.6881C38.1257 26.3034 38.8096 25.8798 38.9687 25.7468C39.3252 25.4487 39.3568 25.0086 39.0455 24.6792C38.6903 24.3035 38.3207 24.3815 37.1034 25.089C36.5031 25.4379 35.8854 25.7883 35.7306 25.8679L35.4492 26.0124V23.244C35.4492 21.7214 35.4821 20.4776 35.5225 20.4801C35.5628 20.4825 36.8262 21.1926 38.3301 22.0579ZM48.4375 23.7116V26.9477L45.6145 28.5642C44.0618 29.4533 42.7654 30.1807 42.7336 30.1807C42.7019 30.1807 42.6758 28.7258 42.6758 26.9476V23.7144L45.4834 22.0996C47.0276 21.2115 48.3239 20.4827 48.3643 20.4802C48.4046 20.4776 48.4375 21.9318 48.4375 23.7116ZM24.5117 27.9326C22.8581 28.8367 17.2918 32.0802 17.1387 32.2287C16.9489 32.4128 16.9434 32.5461 16.9434 36.8777V41.3372L17.1875 41.5678C17.5686 41.9277 24.7463 46 24.9997 46C25.2588 46 32.5947 41.8285 32.8729 41.5228C33.0472 41.3316 33.0566 41.091 33.0566 36.8697C33.0566 32.5466 33.051 32.4127 32.8613 32.2272C32.5825 31.9544 25.3939 27.8467 25.0989 27.7916C24.9599 27.7656 24.7055 27.8266 24.5117 27.9326ZM27.7639 31.0172C29.2247 31.8508 30.4741 32.5832 30.5403 32.6446C30.6331 32.7305 30.0094 33.1296 27.832 34.3775L25.0032 35.9987L22.1751 34.3756C20.6196 33.4829 19.3813 32.7182 19.4232 32.6761C19.5745 32.5245 24.8566 29.5122 24.9807 29.5068C25.0506 29.5037 26.303 30.1834 27.7639 31.0172ZM21.3995 35.7268C22.9058 36.5887 24.1569 37.3424 24.1798 37.4017C24.2027 37.461 24.2099 38.9371 24.1957 40.6819L24.1699 43.8542L21.3379 42.2284L18.5059 40.6026L18.4802 37.3812C18.4624 35.1666 18.4866 34.1598 18.5576 34.1598C18.6144 34.1598 19.8933 34.8649 21.3995 35.7268ZM31.5198 37.3863L31.4941 40.6129L28.6621 42.235L25.8301 43.8572L25.8043 40.6403C25.7901 38.8709 25.8157 37.3864 25.8611 37.3413C26.0171 37.1863 31.2988 34.1691 31.4222 34.1644C31.5197 34.1607 31.5402 34.836 31.5198 37.3863Z" fill="#09AC23"/>
</svg>
