<svg width="42" height="46" viewBox="0 0 42 46" fill="none" xmlns="http://www.w3.org/2000/svg">
<path fill-rule="evenodd" clip-rule="evenodd" d="M13.441 4.26773L6.29702 8.5318L5.7874 8.14445C5.0681 7.5977 4.53362 7.42595 3.57718 7.43415C2.98531 7.43919 2.6742 7.48935 2.3125 7.63804C1.33661 8.03926 0.595859 8.8036 0.204158 9.81398C-0.0680527 10.5159 -0.0680527 11.8138 0.204158 12.5158C0.591236 13.5141 1.35126 14.3055 2.26889 14.666L2.70499 14.8372L2.7486 23.5155C2.7807 29.8954 2.81916 32.2416 2.89399 32.374C2.94999 32.473 4.02932 33.1679 5.29252 33.9182C13.3189 38.6854 17.4445 41.1663 17.4408 41.2239C17.4386 41.2602 17.4044 41.5248 17.3649 41.8119C17.2181 42.8787 17.6679 44.1566 18.4694 44.9501C20.2823 46.7449 23.2302 46.1607 24.3171 43.7912C24.5803 43.2175 24.5971 43.1199 24.6002 42.1538L24.6034 41.1265L31.7522 36.8664C35.684 34.5234 38.9696 32.5192 39.0535 32.4127C39.1966 32.2311 39.2062 31.6716 39.2062 23.5353C39.2062 15.3435 39.2148 14.849 39.3588 14.8037C42.1195 13.9357 42.916 10.335 40.7867 8.34853C39.4598 7.11083 37.3603 7.08237 36.0347 8.28413L35.7366 8.5544L34.048 7.54699C21.1672 -0.138083 21.4015 -0.00272331 20.9834 0.000518846C20.6186 0.00340076 19.9803 0.364541 13.441 4.26773ZM27.8897 5.95347C31.6432 8.18912 34.7402 10.0432 34.7719 10.0737C34.8034 10.1042 34.793 10.3633 34.7485 10.6493C34.5039 12.223 35.4038 13.8799 36.8941 14.6L37.4618 14.8744L37.4612 23.1288L37.4606 31.3833L30.5584 35.4954L23.6563 39.6077L23.2328 39.262C22.5778 38.7273 21.951 38.5128 21.021 38.5048C20.0663 38.4966 19.5301 38.6683 18.8163 39.2109L18.312 39.5942L11.468 35.512C7.70369 33.2668 4.59433 31.4296 4.55839 31.4292C4.52246 31.4287 4.49298 27.6986 4.49298 23.14C4.49298 15.3262 4.5017 14.8487 4.64561 14.7998C6.39924 14.2034 7.51617 12.4072 7.23297 10.6387L7.14758 10.1059L14.0407 5.99751C17.8319 3.738 20.9632 1.88916 20.9994 1.88898C21.0354 1.8888 24.136 3.71783 27.8897 5.95347ZM14.7559 10.4702C10.6639 12.913 8.80247 14.0714 8.71909 14.2271C8.53802 14.5648 8.53401 28.4398 8.71482 28.7986C8.88882 29.1437 20.5687 36.1115 20.9734 36.1115C21.3064 36.1115 21.1591 36.1887 23.6376 34.7132C24.7409 34.0564 27.292 32.5391 29.3068 31.3417C31.3216 30.1443 33.0583 29.0637 33.1662 28.9405L33.3625 28.7165V21.5218V14.3271L33.1662 14.1023C33.0583 13.9786 30.3432 12.3148 27.1327 10.4048C22.3777 7.57599 21.2376 6.93261 20.9837 6.93522C20.7352 6.93774 19.4756 7.65263 14.7559 10.4702ZM26.2729 11.9754C28.7263 13.4366 30.7068 14.659 30.6743 14.6918C30.6418 14.7246 28.4602 16.0352 25.8263 17.6043C21.7976 20.0045 21.0086 20.4436 20.8548 20.3712C20.5202 20.2135 11.5159 14.8381 11.4022 14.728C11.3135 14.6422 12.2977 14.02 16.1475 11.7278L21.0049 8.83584L21.4086 9.07729C21.6306 9.21004 23.8195 10.5142 26.2729 11.9754ZM4.36215 9.35206C5.12445 9.71158 5.59674 10.5193 5.52094 11.3338C5.43739 12.2314 4.73135 13.004 3.88794 13.1208C2.43313 13.3224 1.26544 11.7508 1.86586 10.3994C2.31434 9.3898 3.44042 8.91734 4.36215 9.35206ZM39.2117 9.43122C39.8566 9.76886 40.1855 10.2648 40.2352 10.9748C40.2838 11.6696 40.1371 12.0997 39.6964 12.554C38.4923 13.7956 36.4747 12.9256 36.4747 11.1649C36.4747 9.67475 37.9239 8.75686 39.2117 9.43122ZM15.7006 19.4081C18.4349 21.0371 20.7745 22.3855 20.8996 22.4045C21.1979 22.4498 21.077 22.5173 26.5986 19.2242C29.2261 17.6571 31.4303 16.3534 31.497 16.327C31.5995 16.2864 31.6181 17.166 31.6181 22.0771V27.8751L26.7556 30.7739L21.8932 33.6726L21.8718 31.5373C21.8489 29.2453 21.8195 29.0784 21.3991 28.854C21.0354 28.6597 20.7471 28.7001 20.4337 28.9892L20.1488 29.2518L20.1052 31.4491L20.0616 33.6462L15.2021 30.7586L10.3426 27.871L10.3396 22.0292L10.3367 16.1875L10.5329 16.3169C10.6409 16.3881 12.9663 17.7791 15.7006 19.4081ZM20.4357 24.9348C20.2016 25.1508 20.1527 25.261 20.1527 25.5745C20.1527 26.2244 20.8095 26.6619 21.3538 26.3745C22.1883 25.9338 21.8824 24.6739 20.9409 24.6739C20.8186 24.6739 20.5912 24.7913 20.4357 24.9348ZM21.9984 40.5769C22.5228 40.9075 22.8962 41.5996 22.8962 42.2414C22.8962 43.5083 21.6672 44.4641 20.4671 44.1304C19.7324 43.9261 19.0586 43.0196 19.0586 42.2355C19.0586 41.5081 19.6546 40.6415 20.3333 40.3819C20.8436 40.1868 21.5016 40.2638 21.9984 40.5769Z" fill="#FB5A5A"/>
</svg>
