<svg width="90" height="116" viewBox="0 0 90 116" fill="none" xmlns="http://www.w3.org/2000/svg">
<g filter="url(#filter0_d_808_68)">
<path d="M45 4L77.8369 19.8134L85.947 55.3459L63.2231 83.8407H26.7769L4.05303 55.3459L12.1631 19.8134L45 4Z" fill="white"/>
</g>
<path d="M6.25564 112V101.091H10.2507C11.0248 101.091 11.6658 101.219 12.1736 101.474C12.6814 101.727 13.0614 102.069 13.3135 102.502C13.5657 102.932 13.6917 103.417 13.6917 103.957C13.6917 104.411 13.6083 104.795 13.4414 105.107C13.2745 105.416 13.0507 105.665 12.7702 105.853C12.4932 106.038 12.1878 106.173 11.854 106.258V106.364C12.2162 106.382 12.5696 106.499 12.914 106.716C13.262 106.929 13.5497 107.233 13.7769 107.627C14.0042 108.021 14.1179 108.5 14.1179 109.065C14.1179 109.623 13.9865 110.123 13.7237 110.567C13.4644 111.007 13.0632 111.357 12.5198 111.616C11.9765 111.872 11.2823 112 10.4371 112H6.25564ZM7.90159 110.588H10.2773C11.0657 110.588 11.6303 110.436 11.9712 110.13C12.3121 109.825 12.4826 109.443 12.4826 108.985C12.4826 108.641 12.3956 108.325 12.2215 108.037C12.0475 107.749 11.799 107.52 11.4758 107.35C11.1562 107.179 10.7762 107.094 10.3359 107.094H7.90159V110.588ZM7.90159 105.81H10.1068C10.4762 105.81 10.8082 105.739 11.1029 105.597C11.4012 105.455 11.6374 105.256 11.8114 105.001C11.9889 104.741 12.0777 104.436 12.0777 104.085C12.0777 103.634 11.9197 103.255 11.6036 102.95C11.2876 102.645 10.8029 102.492 10.1495 102.492H7.90159V105.81ZM17.5349 101.091V112H15.9422V101.091H17.5349ZM23.124 112.165C22.3569 112.165 21.6875 111.989 21.1158 111.638C20.5441 111.286 20.1002 110.794 19.7841 110.162C19.4681 109.53 19.3101 108.792 19.3101 107.946C19.3101 107.098 19.4681 106.355 19.7841 105.72C20.1002 105.084 20.5441 104.591 21.1158 104.239C21.6875 103.887 22.3569 103.712 23.124 103.712C23.891 103.712 24.5604 103.887 25.1321 104.239C25.7039 104.591 26.1478 105.084 26.4638 105.72C26.7799 106.355 26.9379 107.098 26.9379 107.946C26.9379 108.792 26.7799 109.53 26.4638 110.162C26.1478 110.794 25.7039 111.286 25.1321 111.638C24.5604 111.989 23.891 112.165 23.124 112.165ZM23.1293 110.828C23.6265 110.828 24.0384 110.697 24.3651 110.434C24.6918 110.171 24.9333 109.821 25.0895 109.385C25.2493 108.948 25.3292 108.467 25.3292 107.941C25.3292 107.419 25.2493 106.94 25.0895 106.503C24.9333 106.062 24.6918 105.709 24.3651 105.443C24.0384 105.176 23.6265 105.043 23.1293 105.043C22.6286 105.043 22.2131 105.176 21.8829 105.443C21.5562 105.709 21.3129 106.062 21.1531 106.503C20.9968 106.94 20.9187 107.419 20.9187 107.941C20.9187 108.467 20.9968 108.948 21.1531 109.385C21.3129 109.821 21.5562 110.171 21.8829 110.434C22.2131 110.697 22.6286 110.828 23.1293 110.828ZM32.1621 112.165C31.3702 112.165 30.6883 111.986 30.1166 111.627C29.5484 111.265 29.1116 110.766 28.8062 110.13C28.5008 109.495 28.3481 108.767 28.3481 107.946C28.3481 107.115 28.5044 106.382 28.8169 105.746C29.1294 105.107 29.5697 104.608 30.1379 104.25C30.7061 103.891 31.3755 103.712 32.1461 103.712C32.7675 103.712 33.3215 103.827 33.808 104.058C34.2945 104.285 34.6869 104.605 34.9852 105.017C35.2871 105.429 35.4664 105.91 35.5232 106.46H33.9731C33.8879 106.077 33.6926 105.746 33.3872 105.469C33.0854 105.192 32.6805 105.054 32.1727 105.054C31.7288 105.054 31.34 105.171 31.0062 105.406C30.6759 105.636 30.4185 105.967 30.2338 106.396C30.0491 106.822 29.9568 107.327 29.9568 107.909C29.9568 108.506 30.0474 109.021 30.2285 109.454C30.4096 109.887 30.6653 110.223 30.9955 110.461C31.3293 110.699 31.7217 110.817 32.1727 110.817C32.4746 110.817 32.748 110.762 32.993 110.652C33.2416 110.539 33.4494 110.377 33.6163 110.168C33.7867 109.958 33.9057 109.706 33.9731 109.411H35.5232C35.4664 109.94 35.2942 110.413 35.0065 110.828C34.7189 111.244 34.3336 111.57 33.8506 111.808C33.3712 112.046 32.8084 112.165 32.1621 112.165ZM38.6913 109.225L38.6806 107.281H38.9576L42.2176 103.818H44.1245L40.4065 107.76H40.1561L38.6913 109.225ZM37.2264 112V101.091H38.8191V112H37.2264ZM42.3933 112L39.4636 108.112L40.5609 106.998L44.3482 112H42.3933ZM48.6855 112.165C47.8936 112.165 47.2118 111.986 46.64 111.627C46.0719 111.265 45.6351 110.766 45.3297 110.13C45.0243 109.495 44.8716 108.767 44.8716 107.946C44.8716 107.115 45.0278 106.382 45.3403 105.746C45.6528 105.107 46.0932 104.608 46.6614 104.25C47.2295 103.891 47.8989 103.712 48.6695 103.712C49.291 103.712 49.8449 103.827 50.3315 104.058C50.818 104.285 51.2104 104.605 51.5087 105.017C51.8105 105.429 51.9898 105.91 52.0467 106.46H50.4966C50.4114 106.077 50.216 105.746 49.9106 105.469C49.6088 105.192 49.204 105.054 48.6962 105.054C48.2523 105.054 47.8634 105.171 47.5296 105.406C47.1994 105.636 46.9419 105.967 46.7572 106.396C46.5726 106.822 46.4802 107.327 46.4802 107.909C46.4802 108.506 46.5708 109.021 46.7519 109.454C46.933 109.887 47.1887 110.223 47.519 110.461C47.8528 110.699 48.2452 110.817 48.6962 110.817C48.998 110.817 49.2714 110.762 49.5165 110.652C49.765 110.539 49.9728 110.377 50.1397 110.168C50.3101 109.958 50.4291 109.706 50.4966 109.411H52.0467C51.9898 109.94 51.8176 110.413 51.53 110.828C51.2423 111.244 50.857 111.57 50.3741 111.808C49.8947 112.046 49.3318 112.165 48.6855 112.165ZM55.3426 107.142V112H53.7499V101.091H55.3212V105.15H55.4225C55.6142 104.71 55.9072 104.36 56.3014 104.1C56.6955 103.841 57.2104 103.712 57.8461 103.712C58.4072 103.712 58.8972 103.827 59.3163 104.058C59.7389 104.289 60.0656 104.633 60.2964 105.091C60.5308 105.546 60.6479 106.114 60.6479 106.796V112H59.0553V106.988C59.0553 106.387 58.9008 105.922 58.5918 105.592C58.2829 105.258 57.8532 105.091 57.3028 105.091C56.9264 105.091 56.589 105.171 56.2907 105.331C55.996 105.491 55.7634 105.725 55.5929 106.034C55.426 106.339 55.3426 106.709 55.3426 107.142ZM65.1543 112.181C64.6359 112.181 64.1671 112.085 63.7481 111.893C63.3291 111.698 62.997 111.416 62.752 111.047C62.5105 110.677 62.3898 110.224 62.3898 109.688C62.3898 109.227 62.4786 108.847 62.6561 108.548C62.8337 108.25 63.0734 108.014 63.3752 107.84C63.6771 107.666 64.0144 107.534 64.3873 107.446C64.7602 107.357 65.1401 107.289 65.5272 107.243C66.0173 107.186 66.415 107.14 66.7204 107.105C67.0258 107.066 67.2477 107.004 67.3862 106.918C67.5247 106.833 67.594 106.695 67.594 106.503V106.466C67.594 106 67.4626 105.64 67.1998 105.384C66.9406 105.129 66.5535 105.001 66.0386 105.001C65.5024 105.001 65.0798 105.12 64.7708 105.358C64.4654 105.592 64.2541 105.853 64.1369 106.141L62.6401 105.8C62.8177 105.303 63.0769 104.901 63.4178 104.596C63.7623 104.287 64.1582 104.063 64.6057 103.925C65.0531 103.783 65.5237 103.712 66.0173 103.712C66.344 103.712 66.6902 103.751 67.056 103.829C67.4253 103.903 67.7698 104.042 68.0894 104.244C68.4125 104.447 68.6771 104.736 68.883 105.113C69.089 105.485 69.192 105.97 69.192 106.567V112H67.6366V110.881H67.5727C67.4697 111.087 67.3152 111.29 67.1092 111.489C66.9033 111.687 66.6387 111.853 66.3156 111.984C65.9924 112.115 65.6053 112.181 65.1543 112.181ZM65.5006 110.903C65.9409 110.903 66.3173 110.816 66.6298 110.642C66.9459 110.468 67.1856 110.24 67.3489 109.96C67.5158 109.676 67.5993 109.372 67.5993 109.049V107.994C67.5425 108.051 67.4324 108.104 67.269 108.154C67.1092 108.2 66.9264 108.241 66.7204 108.277C66.5144 108.309 66.3138 108.339 66.1185 108.367C65.9232 108.392 65.7598 108.413 65.6284 108.431C65.3195 108.47 65.0372 108.536 64.7815 108.628C64.5293 108.721 64.3269 108.854 64.1742 109.028C64.0251 109.198 63.9505 109.425 63.9505 109.71C63.9505 110.104 64.0961 110.402 64.3873 110.604C64.6785 110.803 65.0496 110.903 65.5006 110.903ZM71.3133 112V103.818H72.906V112H71.3133ZM72.1177 102.556C71.8407 102.556 71.6028 102.463 71.4039 102.279C71.2086 102.091 71.1109 101.867 71.1109 101.608C71.1109 101.345 71.2086 101.121 71.4039 100.936C71.6028 100.748 71.8407 100.654 72.1177 100.654C72.3947 100.654 72.6308 100.748 72.8261 100.936C73.025 101.121 73.1244 101.345 73.1244 101.608C73.1244 101.867 73.025 102.091 72.8261 102.279C72.6308 102.463 72.3947 102.556 72.1177 102.556ZM76.6414 107.142V112H75.0487V103.818H76.5775V105.15H76.6787C76.8669 104.717 77.1616 104.369 77.5629 104.106C77.9677 103.843 78.4773 103.712 79.0917 103.712C79.6492 103.712 80.1375 103.829 80.5565 104.063C80.9755 104.294 81.3005 104.638 81.5313 105.097C81.7621 105.555 81.8775 106.121 81.8775 106.796V112H80.2848V106.988C80.2848 106.395 80.1304 105.931 79.8214 105.597C79.5125 105.26 79.0881 105.091 78.5483 105.091C78.179 105.091 77.8505 105.171 77.5629 105.331C77.2788 105.491 77.0533 105.725 76.8864 106.034C76.7231 106.339 76.6414 106.709 76.6414 107.142Z" fill="black"/>
<path fill-rule="evenodd" clip-rule="evenodd" d="M26.0054 39.0663C23.3012 39.5549 21.0905 41.628 20.2449 44.4683C19.9184 45.5649 19.9184 47.4494 20.2449 48.546C21.0122 51.1231 22.7688 52.9548 25.2463 53.7612C25.9797 54 25.9801 54 31.6027 54C37.9124 54 37.7731 54.0137 39.2792 53.2405C41.0056 52.3541 42.3883 50.6902 42.9896 48.7754L43.1577 48.2402H45H46.8423L47.0104 48.7754C47.6117 50.6902 48.9944 52.3541 50.7208 53.2405C52.2269 54.0137 52.0876 54 58.3973 54C64.0199 54 64.0203 54 64.7537 53.7612C67.2312 52.9548 68.9878 51.1231 69.7551 48.546C70.0816 47.4494 70.0816 45.5649 69.7551 44.4683C68.9878 41.8913 67.2312 40.0596 64.7537 39.2531C64.0203 39.0144 64.0199 39.0144 58.3973 39.0144C52.0876 39.0144 52.2269 39.0006 50.7208 39.7739C48.9944 40.6603 47.6117 42.3242 47.0104 44.239L46.8423 44.7742H45H43.1577L42.9896 44.239C42.3882 42.3238 41.0049 40.6592 39.2792 39.7744C37.7786 39.0048 37.9646 39.0243 31.8961 39.0023C28.911 38.9915 26.2603 39.0203 26.0054 39.0663ZM37.3681 42.6638C38.1271 42.976 38.7568 43.4701 39.2064 44.1064L39.6421 44.7232L38.4094 44.7517L37.1768 44.7803V46.5072V48.2341L38.4094 48.2626L39.6421 48.2912L39.2064 48.9079C38.7567 49.5445 38.1267 50.0387 37.3681 50.3503C36.9776 50.5108 36.4307 50.5328 32.1 50.5625C29.1608 50.5827 27.0191 50.5553 26.6333 50.4926C24.9522 50.2198 23.6747 48.905 23.3766 47.1408C23.0247 45.0578 24.4835 42.8944 26.4833 42.5339C26.7443 42.4869 29.2019 42.4565 31.945 42.4665C36.4477 42.4829 36.9746 42.5021 37.3681 42.6638ZM64.0692 42.6646C65.1464 43.101 66.0278 44.0089 66.4421 45.1086C66.6979 45.788 66.7147 47.1571 66.4755 47.8324C66.0766 48.9586 65.1048 49.9616 64.0355 50.3505C63.5743 50.5182 63.0845 50.5339 58.2995 50.5339C53.5132 50.5339 53.0307 50.5185 52.6319 50.3526C51.8686 50.0351 51.2421 49.5427 50.7936 48.9079L50.3579 48.2912L51.5906 48.2626L52.8232 48.2341V46.5041V44.7742H51.5953H50.3674L50.544 44.4537C51.035 43.5629 52.1334 42.7463 53.121 42.5379C53.3606 42.4874 55.823 42.4551 58.5929 42.4662C63.1259 42.4843 63.6731 42.5041 64.0692 42.6646Z" fill="#398BEC"/>
<defs>
<filter id="filter0_d_808_68" x="0.0546875" y="0" width="89.8906" height="87.8408" filterUnits="userSpaceOnUse" color-interpolation-filters="sRGB">
<feFlood flood-opacity="0" result="BackgroundImageFix"/>
<feColorMatrix in="SourceAlpha" type="matrix" values="0 0 0 0 0 0 0 0 0 0 0 0 0 0 0 0 0 0 127 0" result="hardAlpha"/>
<feOffset/>
<feGaussianBlur stdDeviation="2"/>
<feComposite in2="hardAlpha" operator="out"/>
<feColorMatrix type="matrix" values="0 0 0 0 0 0 0 0 0 0 0 0 0 0 0 0 0 0 0.25 0"/>
<feBlend mode="normal" in2="BackgroundImageFix" result="effect1_dropShadow_808_68"/>
<feBlend mode="normal" in="SourceGraphic" in2="effect1_dropShadow_808_68" result="shape"/>
</filter>
</defs>
</svg>
