<svg width="52" height="53" viewBox="0 0 52 53" fill="none" xmlns="http://www.w3.org/2000/svg">
<path fill-rule="evenodd" clip-rule="evenodd" d="M24.2994 0.104675C23.0617 0.463583 22.3359 1.18303 21.8975 2.48588L21.6727 3.15377L15.3863 5.37717L9.09981 7.60058L8.5464 7.33348C6.70824 6.44617 4.71014 7.14732 3.84225 8.98416C3.19591 10.3521 3.54628 11.9415 4.73414 13.0313L5.06671 13.3363L4.02333 20.9411C3.44939 25.1238 2.93848 28.5818 2.88794 28.6257C2.83741 28.6696 2.61088 28.7581 2.38445 28.8223C1.05792 29.1986 0 30.6707 0 32.1403C0 33.1649 0.722088 34.4217 1.6459 35.0049C2.15671 35.3273 3.1828 35.5865 3.71262 35.5267L4.13192 35.4794L6.03516 39.9226L7.93839 44.3656L7.5806 44.8973C6.38644 46.6718 7.06501 49.0589 9.02152 49.9661C9.50325 50.1895 9.75367 50.2382 10.4216 50.2382C11.4552 50.2382 12.1814 49.927 12.9218 49.1669L13.4354 48.6396L17.9272 48.9602C20.3977 49.1364 22.4728 49.28 22.5382 49.2793C22.6038 49.2786 22.7138 49.4496 22.7827 49.6593C23.1678 50.8323 24.3318 51.7919 25.6006 51.9821C26.1717 52.0677 27.192 51.8661 27.712 51.5649C28.5552 51.0763 29.2666 50.0811 29.4379 49.1504C29.5034 48.7948 29.544 48.7587 30.0306 48.622C33.1139 47.7563 41.9404 45.5157 41.9659 45.5922C42.0872 45.9563 42.6671 46.6808 43.079 46.983C43.7989 47.5111 44.4057 47.6851 45.3336 47.6294C47.8682 47.4773 49.3881 44.7529 48.1574 42.5675C47.8656 42.0493 47.285 41.4615 46.8363 41.23C46.5649 41.09 46.459 40.9757 46.4908 40.8574C46.516 40.7634 47.1491 38.542 47.8976 35.9208C48.8312 32.652 49.3069 31.139 49.4124 31.1041C50.4941 30.7454 51.3154 30.0547 51.7402 29.1466C51.9576 28.6819 52.0015 28.4413 52 27.7232C51.9984 26.9923 51.9553 26.7706 51.7211 26.2869C51.3131 25.4441 50.4555 24.6951 49.597 24.4316C49.3762 24.3637 49.3664 24.2966 49.0518 20.6731L48.7885 17.6391L49.2597 17.1746C49.8025 16.6395 50.0452 16.2026 50.2259 15.4349C50.5783 13.938 49.6787 12.1903 48.2197 11.5374C47.5665 11.2451 46.319 11.2248 45.5918 11.4949L45.0746 11.687L36.8502 7.91699L28.6259 4.14702L28.6067 3.38101C28.5839 2.45985 28.2895 1.73359 27.6641 1.05512C26.8867 0.211839 25.389 -0.211328 24.2994 0.104675ZM25.9248 1.92342C26.4529 2.19326 26.7198 2.52736 26.8446 3.07508C26.964 3.59819 26.8137 4.1457 26.4314 4.58117C26.0326 5.03545 25.6331 5.18826 25.003 5.12777C24.429 5.07256 24.0612 4.84603 23.7065 4.32882C23.5071 4.03813 23.475 3.88328 23.5067 3.3679C23.5525 2.62192 23.8094 2.21451 24.4261 1.90918C24.981 1.63456 25.3666 1.63822 25.9248 1.92342ZM22.2869 5.48495C22.2746 5.52857 21.4329 6.64952 20.4165 7.97596C19.4001 9.3025 18.5625 10.3984 18.5553 10.4115C18.548 10.4245 16.7042 10.2648 14.4579 10.0568L10.3738 9.67859L10.2702 9.38129C10.2131 9.2177 10.1782 9.07343 10.1923 9.06072C10.2065 9.04801 12.8719 8.09919 16.1153 6.95231L22.0124 4.86698L22.1607 5.13631C22.2424 5.28455 22.2991 5.44143 22.2869 5.48495ZM36.1332 9.49913C39.8732 11.2132 42.8871 12.631 42.8308 12.6498C42.728 12.6841 27.4737 11.2964 26.8844 11.1992L26.5709 11.1475L26.3962 8.95121C26.3001 7.74323 26.2352 6.74876 26.2521 6.74123C26.7808 6.50484 27.2861 6.19118 27.5032 5.96454L27.78 5.67559L28.5564 6.02911C28.9836 6.22361 32.393 7.78512 36.1332 9.49913ZM24.2746 6.78942C24.4005 6.8365 24.5034 6.90838 24.5034 6.94915C24.5034 6.99003 24.5749 7.91099 24.6623 8.99575C24.7496 10.0806 24.8069 10.9796 24.7894 10.9937C24.7446 11.0298 20.7008 10.6351 20.656 10.5903C20.6357 10.5701 21.2986 9.6608 22.1291 8.56984C23.7269 6.47088 23.6325 6.54917 24.2746 6.78942ZM7.90738 8.96677C8.61615 9.38546 8.86779 10.4672 8.43537 11.2365C8.0427 11.9351 7.06755 12.2763 6.30144 11.9828C5.86109 11.8142 5.39024 11.2468 5.31856 10.7982C5.28246 10.5725 5.25288 10.3878 5.25288 10.3878C5.25288 10.3878 5.28267 10.2017 5.31907 9.97436C5.36472 9.68876 5.49984 9.44626 5.75647 9.18974C6.33692 8.60918 7.15804 8.52418 7.90738 8.96677ZM14.0086 11.7491C15.7019 11.9077 17.113 12.0632 17.1444 12.0948C17.2043 12.1547 14.7546 15.4209 14.6503 15.4202C14.528 15.4193 10.117 11.9394 10.1267 11.8516C10.1323 11.8014 10.1437 11.6917 10.1521 11.6078C10.1728 11.4012 10.3775 11.4088 14.0086 11.7491ZM22.2545 12.5169C23.6738 12.6523 24.8685 12.8006 24.9092 12.8463C24.9499 12.8922 25.0372 13.7303 25.1031 14.7089C25.169 15.6875 25.2484 16.6772 25.2796 16.9082L25.3362 17.3281L24.6407 17.4493C23.2548 17.6906 21.9591 18.2512 20.8431 19.0924C20.4797 19.3663 20.1488 19.6016 20.1079 19.6153C20.0029 19.6504 16.0718 16.607 16.0969 16.5102C16.1083 16.4662 16.8263 15.4962 17.6924 14.3545C18.8017 12.8921 19.3273 12.2774 19.4705 12.2745C19.5824 12.2724 20.8352 12.3814 22.2545 12.5169ZM34.9758 13.6937C39.2537 14.087 42.9052 14.4332 43.0903 14.4628C43.3938 14.5118 43.4237 14.5469 43.3953 14.8223C43.3652 15.1149 43.1632 15.2333 38.5344 17.6731C35.8782 19.0731 33.5138 20.3133 33.2804 20.4289L32.8559 20.6391L32.324 20.0571C31.692 19.3657 30.8247 18.7322 29.8231 18.2309C29.0899 17.8638 27.803 17.4541 27.3837 17.4541C27.2601 17.4541 27.1328 17.4118 27.1009 17.3601C27.0439 17.2679 26.7402 13.8172 26.7402 13.2624C26.7402 13.0381 26.787 12.9802 26.969 12.9795C27.0949 12.979 30.6979 13.3004 34.9758 13.6937ZM47.8711 13.3617C48.8695 14.1698 48.8062 15.5612 47.7426 16.1846C46.3161 17.0206 44.6494 15.5793 45.2845 14.0592C45.7158 13.0269 47.0221 12.6746 47.8711 13.3617ZM11.2485 15.0128C12.4713 15.9628 13.4718 16.8042 13.4718 16.8823C13.4718 17.0178 4.86164 28.337 4.79982 28.2828C4.76911 28.2559 6.70437 13.9694 6.74413 13.9297C6.75643 13.9174 7.04711 13.8621 7.39016 13.8069C7.73321 13.7516 8.18962 13.6137 8.40436 13.5004C8.61909 13.3871 8.84664 13.2925 8.90998 13.2899C8.97333 13.2875 10.0257 14.0628 11.2485 15.0128ZM44.3709 17.1124C44.5956 17.3941 44.6417 17.5215 44.5639 17.6462C44.5077 17.7362 43.3956 19.5257 42.0924 21.6227C40.7892 23.7197 39.712 25.4497 39.6986 25.4672C39.6651 25.5106 34.761 25.102 34.7104 25.0516C34.6882 25.0293 34.6205 24.7438 34.5602 24.417C34.4998 24.0903 34.3094 23.4334 34.1371 22.9573C33.9648 22.4811 33.8657 22.0755 33.9169 22.0561C33.968 22.0366 36.2518 20.835 38.9919 19.3857C41.732 17.9364 43.9968 16.7488 44.0248 16.7465C44.0527 16.7442 44.2085 16.9089 44.3709 17.1124ZM16.9031 19.4022C17.9238 20.194 18.7938 20.8718 18.8364 20.9083C18.8791 20.9449 18.6911 21.4126 18.4186 21.9478C17.8667 23.0319 17.5044 24.2335 17.4177 25.2674L17.3602 25.9536L11.6795 27.8466C8.55504 28.8876 5.99957 29.709 6.00059 29.6718C6.0015 29.6346 7.81099 27.2478 10.0215 24.3679C15.0924 17.7616 14.9363 17.9625 14.9966 17.9625C15.0244 17.9625 15.8824 18.6103 16.9031 19.4022ZM47.1198 18.5979C47.1514 18.8356 47.2682 20.0824 47.3793 21.3685C47.4904 22.6547 47.6019 23.8557 47.6269 24.0375C47.67 24.3512 47.6439 24.3818 47.1106 24.6429C46.7929 24.7984 46.3414 25.145 46.0713 25.4406L45.5936 25.9632L43.6654 25.8152C42.6048 25.7338 41.7207 25.6522 41.7008 25.6337C41.6808 25.6151 42.7036 23.9274 43.9736 21.8829L46.2829 18.1658H46.6728C47.0546 18.1658 47.0637 18.1747 47.1198 18.5979ZM27.3061 19.191C29.7178 19.6313 31.7347 21.3701 32.6051 23.7591C32.8582 24.4539 32.8828 24.6491 32.8868 25.9947C32.8908 27.3458 32.8684 27.5313 32.6189 28.2147C31.6087 30.9822 29.257 32.7392 26.3706 32.8829C25.089 32.9466 24.1346 32.7528 23.0143 32.2012C21.2194 31.3175 20.0731 29.9747 19.401 27.9686C19.0602 26.9511 19.0611 25.0368 19.4029 24.0121C20.0751 21.997 21.2788 20.6154 23.1381 19.7249C24.3722 19.1338 25.9123 18.9365 27.3061 19.191ZM25.2151 21.216V21.6227H24.3476C23.4022 21.6227 22.8593 21.7834 22.6814 22.1158C22.6085 22.2521 22.5716 23.5686 22.5716 26.0331V29.7452L22.8144 30.0276C23.0464 30.2972 23.1053 30.3117 24.1361 30.3498L25.2151 30.3897V30.7849V31.1801H26.0735H26.9319L26.9632 30.7503C26.9936 30.332 27.0058 30.3185 27.4188 30.2485C29.0671 29.9691 29.9693 28.1011 29.1961 26.5682L28.9068 25.9947L29.1961 25.4212C29.9626 23.9015 29.0603 22.0192 27.4332 21.7433C27.0037 21.6705 26.9937 21.6598 26.9632 21.2391L26.9319 20.8093H26.0735H25.2151V21.216ZM27.5117 23.6873C27.8127 24.0374 27.8256 24.4567 27.5462 24.8117L27.3355 25.0796H25.8177H24.3V24.2058V23.3321L25.7833 23.367C27.264 23.4019 27.2669 23.4025 27.5117 23.6873ZM49.1781 26.1029C49.5676 26.25 50.0193 26.6887 50.1885 27.0844C50.8149 28.5482 49.1405 30.0065 47.7359 29.2207C47.2698 28.96 46.8716 28.2821 46.8716 27.7492C46.8716 26.5653 48.0936 25.693 49.1781 26.1029ZM37.0093 27.0204C37.876 27.0844 38.5959 27.1459 38.609 27.1572C38.6704 27.2099 34.8967 33.1627 34.8018 33.1627C34.7423 33.1627 34.2762 32.7605 33.7662 32.2688L32.8388 31.3749L33.2257 30.7945C33.9205 29.7522 34.3907 28.5318 34.6176 27.1814C34.6819 26.7989 34.6894 26.7932 35.0582 26.8481C35.2645 26.8789 36.1425 26.9564 37.0093 27.0204ZM27.5073 27.1594C27.8306 27.4825 27.8322 27.9292 27.5117 28.3021C27.2669 28.5869 27.264 28.5875 25.7833 28.6224L24.3 28.6573V27.7835V26.9098H25.7789C27.2135 26.9098 27.2653 26.9172 27.5073 27.1594ZM43.1097 27.5025C45.9558 27.7462 46.0249 27.6419 41.5271 29.8886C39.5344 30.8839 37.9202 31.6584 37.9397 31.6098C37.9592 31.5613 38.5624 30.5754 39.2804 29.4191C40.4607 27.5175 40.6114 27.3173 40.8563 27.3246C41.0052 27.3292 42.0193 27.4092 43.1097 27.5025ZM17.6816 28.2569C17.8542 28.9629 18.5975 30.5008 19.0546 31.0977C19.2554 31.36 19.4197 31.5925 19.4197 31.6144C19.4197 31.7192 14.3117 38.4497 14.2322 38.4497C14.182 38.4497 12.5322 37.2602 10.5661 35.8062C8.59998 34.3523 6.95957 33.1398 6.92073 33.1119C6.8819 33.0839 6.8759 32.6529 6.90741 32.154L6.96466 31.247L12.2009 29.4931C15.0808 28.5284 17.4627 27.7356 17.4941 27.7312C17.5254 27.7268 17.6098 27.9634 17.6816 28.2569ZM46.1558 30.1592C46.3771 30.3805 46.7545 30.6606 46.9946 30.7816C47.2345 30.9027 47.4443 31.0133 47.4606 31.0274C47.4924 31.0549 44.8855 40.2554 44.7586 40.5645C44.7145 40.6715 44.4004 40.8462 44 40.9861L43.3166 41.2249L39.7816 37.9118C37.8374 36.0897 36.2352 34.5728 36.2212 34.5412C36.1967 34.486 45.52 29.7741 45.677 29.7623C45.719 29.7592 45.9343 29.9377 46.1558 30.1592ZM4.44335 30.6338C4.91532 30.9862 5.1146 31.3447 5.163 31.929C5.26955 33.2131 4.08159 34.1286 2.89618 33.676C1.49786 33.1419 1.3847 31.39 2.69436 30.5509C3.09668 30.2932 4.04743 30.3382 4.44335 30.6338ZM32.3577 33.326C32.7351 33.6654 33.044 33.9847 33.044 34.0357C33.044 34.13 18.4884 41.4491 18.3007 41.4491C18.1311 41.4491 15.7065 39.6151 15.735 39.5085C15.7753 39.3578 20.6331 32.9085 20.7063 32.9085C20.7415 32.9085 21.0498 33.0824 21.3914 33.2949C23.0112 34.3028 24.0583 34.5873 26.1302 34.5825C27.6397 34.579 27.7468 34.5649 28.672 34.2472C29.6605 33.9076 30.9833 33.2194 31.2818 32.8896C31.3736 32.7881 31.4989 32.7061 31.5601 32.7071C31.6213 32.7082 31.9803 32.9867 32.3577 33.326ZM9.5065 37.1784C11.3519 38.5363 12.939 39.7141 13.0335 39.7958C13.1911 39.9321 13.1007 40.0836 11.9343 41.6372L10.6633 43.3301L10.0849 43.3975C9.76679 43.4346 9.47712 43.4346 9.44113 43.3975C9.40514 43.3604 8.54569 41.3892 7.53118 39.0172C6.17241 35.8403 5.72007 34.6835 5.81381 34.6256C5.88386 34.5823 5.98839 34.5835 6.04614 34.6282C6.10399 34.673 7.66112 35.8206 9.5065 37.1784ZM30.2225 40.7029C27.4202 45.2058 27.3816 45.2613 27.0881 45.2111C26.9248 45.1831 26.425 45.1602 25.9777 45.1602C25.3034 45.1602 25.0625 45.2079 24.5691 45.439L23.9739 45.7179L21.951 44.2222C20.8384 43.3995 19.9281 42.7019 19.9281 42.6721C19.9281 42.6056 32.9796 36.0703 33.0265 36.1134C33.0448 36.1302 31.783 38.1956 30.2225 40.7029ZM38.61 39.1763C40.4418 40.89 41.9775 42.3248 42.0226 42.3646C42.0869 42.4212 41.7531 43.6489 41.6427 43.7627C41.6126 43.7937 29.2595 47.0412 29.1716 47.0412C29.1381 47.0412 29.0293 46.8899 28.9297 46.7049L28.7486 46.3687L31.9385 41.2198C33.6929 38.388 35.1624 36.0686 35.204 36.0657C35.2455 36.0628 36.7783 37.4626 38.61 39.1763ZM15.5419 41.6418L16.4781 42.3429L15.5341 42.8499C14.0299 43.6577 12.9286 44.1943 12.7748 44.1943C12.6965 44.1943 12.5782 44.1289 12.5118 44.0489C12.4139 43.9309 12.5981 43.6255 13.4907 42.4265C14.0955 41.6141 14.5938 40.9476 14.598 40.9451C14.6023 40.9427 15.0271 41.2562 15.5419 41.6418ZM45.8121 42.6586C47.1328 43.2585 47.1965 45.0103 45.9234 45.7258C45.118 46.1785 43.9801 45.8126 43.5816 44.9726C43.1839 44.1348 43.5372 43.0847 44.3525 42.6813C44.8842 42.4181 45.2692 42.4121 45.8121 42.6586ZM20.5286 45.321C21.82 46.2761 22.8759 47.1111 22.8751 47.1765C22.8698 47.5782 22.8437 47.5791 18.9502 47.3042C13.4791 46.9179 13.9609 46.9897 13.8808 46.5474C13.8439 46.3436 13.7896 46.0764 13.7601 45.9535C13.7117 45.7513 13.9087 45.6283 15.826 44.6626C16.9917 44.0755 17.9983 43.5927 18.063 43.5897C18.1276 43.5867 19.2371 44.3657 20.5286 45.321ZM11.1159 45.2481C12.0834 45.6523 12.4454 46.9875 11.8204 47.8467C11.515 48.2666 10.8022 48.5873 10.2926 48.5343C9.38033 48.4394 8.74395 47.7235 8.74395 46.792C8.74395 45.552 9.9556 44.7633 11.1159 45.2481ZM26.8907 47.0704C27.9785 47.6865 28.026 49.2803 26.9776 49.9897C26.4688 50.334 25.6088 50.3424 25.139 50.0079C24.3626 49.455 24.1152 48.6056 24.4994 47.8119C24.9354 46.9113 26.0174 46.5758 26.8907 47.0704Z" fill="#9549D1"/>
</svg>
