<svg width="18" height="18" viewBox="0 0 18 18" fill="none" xmlns="http://www.w3.org/2000/svg">
<path d="M1.60577 4.73094L9 0.46188L16.3942 4.73094V13.2691L9 17.5381L1.60577 13.2691V4.73094Z" stroke="#410EAD" stroke-width="0.8"/>
<path d="M10.5413 9.64073L11.447 10.5469L8.996 13L6.54534 10.5472L7.451 9.64073L8.99634 11.1954L10.5413 9.64073ZM12.087 8.09404L13 9.00017L12.095 9.90629L11.1893 9.00017L12.087 8.09404ZM8.99634 8.09404L9.90166 8.99216L8.996 9.89862L8.09066 9.00017L8.996 8.09438L8.99634 8.09404ZM5.90534 8.09404L6.80334 9.00017L5.906 9.89829L5 9.00017L5.90534 8.09404ZM8.99666 5L11.4473 7.44547L10.5417 8.35127L8.99634 6.80458L7.45134 8.35927L6.54566 7.45315L8.99634 5.00033L8.99666 5Z" fill="#410EAD"/>
</svg>
