<svg width="39" height="46" viewBox="0 0 39 46" fill="none" xmlns="http://www.w3.org/2000/svg">
<path fill-rule="evenodd" clip-rule="evenodd" d="M7.09252 2.01418C3.41701 3.21903 0.857834 4.10778 0.681796 4.24035C0.29217 4.53366 0 5.13055 0 5.63301C0 5.89701 0.577954 7.82445 1.63825 11.0963C2.53934 13.8768 3.43472 16.6445 3.62818 17.247C4.12445 18.7931 4.62218 19.306 5.62605 19.306C5.98345 19.306 7.6637 18.7902 12.9501 17.0578C13.4458 16.8953 13.8671 16.7783 13.8864 16.7976C13.9057 16.8169 13.2507 21.1999 12.431 26.5376C11.6112 31.8752 10.9624 36.313 10.9891 36.3994C11.0158 36.4857 11.1126 36.624 11.2045 36.7067C11.3244 36.8148 14.4783 37.3372 22.4122 38.5636C28.4847 39.5021 33.5624 40.2702 33.6959 40.2702C33.8296 40.2702 34.0133 40.1878 34.1041 40.087C34.2329 39.9442 34.7909 36.5148 36.6341 24.5337C37.9347 16.0801 38.9993 9.092 39 9.00455C39.0007 8.91701 38.9249 8.75085 38.8316 8.63535C38.6764 8.44308 37.7314 8.28129 27.7264 6.73334C21.7119 5.80286 16.7393 5.04087 16.6764 5.0401C16.6131 5.03932 16.2787 4.15669 15.9294 3.06811C15.5816 1.98428 15.1973 0.947042 15.0754 0.763024C14.7954 0.340538 14.1161 -0.0109027 13.6009 0.000258749C13.3738 0.00511156 10.6462 0.849113 7.09252 2.01418ZM13.927 1.48551C14.05 1.6341 17.9038 13.4751 17.9038 13.7043C17.9038 13.7828 17.8343 13.9049 17.7494 13.9756C17.5663 14.128 5.94687 17.9399 5.65228 17.9442C5.54079 17.9459 5.38527 17.8708 5.30669 17.7774C5.144 17.5839 1.35488 5.93806 1.35488 5.63146C1.35488 5.5215 1.45282 5.37028 1.57263 5.29555C1.69234 5.22082 2.79203 4.83764 4.01626 4.44408C5.24049 4.05051 7.85348 3.19797 9.8229 2.54944C11.7923 1.90091 13.4963 1.36584 13.6096 1.3605C13.7228 1.35507 13.8657 1.41126 13.927 1.48551ZM10.9904 4.47222C9.63786 4.77649 9.14691 6.45498 10.1109 7.47932C10.8478 8.26227 12.0371 8.24422 12.7417 7.43943C13.929 6.08326 12.7452 4.0774 10.9904 4.47222ZM11.755 5.90836C12.0968 6.28717 11.6695 6.84282 11.1809 6.65482C10.9455 6.56427 10.8889 6.12519 11.0845 5.90836C11.3028 5.6664 11.5366 5.6664 11.755 5.90836ZM5.42243 6.26C4.7237 6.56398 4.35498 7.1567 4.35498 7.97605C4.35498 9.02193 5.11594 9.7482 6.20565 9.74247C7.69447 9.73461 8.49889 8.01148 7.57853 6.80138C7.10829 6.18303 6.15165 5.94282 5.42243 6.26ZM27.3871 8.05719C32.9499 8.91672 37.5111 9.62901 37.5232 9.64018C37.5504 9.66551 33.0865 38.7544 33.0491 38.7958C33.0341 38.8123 28.39 38.1092 22.7288 37.2334L12.4359 35.641L12.458 35.4078C12.4798 35.1775 15.2364 17.1075 15.3371 16.5352C15.3821 16.2792 15.4542 16.2192 15.8723 16.0906C16.3306 15.9496 16.3554 15.9511 16.3554 16.1206C16.3554 16.2188 15.7457 20.2728 15.0005 25.1294C14.2553 29.986 13.6456 34.1117 13.6456 34.298C13.6456 34.5423 13.7062 34.6758 13.8633 34.7781C14.1901 34.9908 31.6632 37.6753 31.9669 37.5595C32.0953 37.5105 32.2329 37.3906 32.2727 37.2931C32.3124 37.1956 33.2507 31.2241 34.358 24.023C35.9394 13.7373 36.3491 10.882 36.2686 10.7049C36.2122 10.5809 36.0311 10.4363 35.866 10.3836C35.5355 10.2782 18.564 7.65926 18.2109 7.65926C18.0901 7.65926 17.8919 7.76689 17.7703 7.8984L17.5494 8.13755L17.3038 7.31607C17.1487 6.7974 17.0977 6.49458 17.1656 6.49458C17.2246 6.49458 21.8243 7.19776 27.3871 8.05719ZM6.5163 7.66557C6.80519 8.07922 6.35962 8.58352 5.91561 8.34525C5.68567 8.2218 5.63321 7.77495 5.82599 7.58161C6.00619 7.40089 6.36156 7.44408 6.5163 7.66557ZM26.8304 10.3283C31.1522 10.9956 34.7223 11.5415 34.7641 11.5415C34.8058 11.5415 34.8399 11.6397 34.8399 11.7599C34.84 11.9428 31.1597 36.1175 31.1254 36.1592C31.0906 36.2016 15.1983 33.707 15.1418 33.6502C15.1045 33.6129 15.6998 29.5138 16.4647 24.5412L17.8554 15.5001L18.1941 15.3258C18.6286 15.1022 18.9207 14.7854 19.1089 14.3336C19.3309 13.8009 19.2959 13.4496 18.9039 12.2696L18.5491 11.2018L18.6695 10.234C18.785 9.3062 18.8291 9.1151 18.9278 9.1151C18.9525 9.1151 22.5087 9.66104 26.8304 10.3283ZM12.7125 9.59834C11.9969 9.76382 11.4408 10.3545 11.2792 11.1209C11.1838 11.5733 11.3841 12.1808 11.7701 12.6092C12.8671 13.827 14.9037 13.0378 14.9037 11.395C14.9037 10.2406 13.8107 9.34435 12.7125 9.59834ZM13.5321 11.3396C13.5757 11.6334 13.3835 11.8327 13.0565 11.8327C12.5564 11.8327 12.4359 11.1445 12.9041 10.9621C13.1696 10.8586 13.4891 11.0506 13.5321 11.3396ZM7.06668 11.4687C6.43201 11.7939 6.07413 12.2981 6.0209 12.9419C5.84622 15.055 8.70947 15.7158 9.52792 13.7513C9.89306 12.8751 9.4654 11.8412 8.56876 11.4328C8.0449 11.1941 7.58086 11.2052 7.06668 11.4687ZM8.1742 12.7994C8.41304 13.064 8.3034 13.4594 7.96768 13.544C7.64125 13.6262 7.4115 13.4813 7.37404 13.1696C7.31578 12.685 7.84845 12.4384 8.1742 12.7994ZM24.8459 14.3334L23.6132 15.5724L22.9118 20.1567L22.2104 24.741L21.7733 24.7411C20.273 24.7414 19.4612 26.6191 20.4749 27.7444C20.8197 28.1272 21.0444 28.2476 21.7507 28.4285C22.2223 28.5493 22.2265 28.5691 22.0337 29.7648C21.9311 30.4011 21.8899 30.4878 21.6081 30.6595C21.2206 30.8958 21.1151 31.2539 21.3344 31.5895C21.4232 31.7255 21.5478 31.855 21.6111 31.8774C21.6746 31.8998 22.5479 32.0475 23.5519 32.2054C24.785 32.3994 25.4504 32.4647 25.6025 32.4068C26.0719 32.2278 26.1411 31.6369 25.737 31.2594C25.5443 31.0793 25.5432 31.0547 25.6897 30.1416C25.7721 29.628 25.8395 29.1856 25.8395 29.1583C25.8395 29.131 26.1679 29.1087 26.5692 29.1087C27.8151 29.1087 28.5387 28.5161 28.6207 27.4286C28.6863 26.559 28.0712 25.709 27.2577 25.5451C27.0226 25.4977 26.9892 25.4525 27.0291 25.2367C27.0549 25.0976 27.3741 23.0239 27.7386 20.6286L28.4012 16.2735L27.6769 14.856C27.2784 14.0763 26.8762 13.361 26.7831 13.2664C26.404 12.8814 26.1531 13.0196 24.8459 14.3334ZM26.5861 15.7402L26.9939 16.5411L26.3255 20.8944C25.9578 23.2888 25.6318 25.273 25.601 25.3039C25.5457 25.3594 23.882 25.1521 23.6423 25.0598C23.5725 25.033 23.5383 24.921 23.5639 24.8039C23.5891 24.6893 23.8945 22.7242 24.2426 20.4371L24.8757 16.2786L25.4786 15.6095C25.8102 15.2415 26.1033 14.9401 26.1299 14.9398C26.1565 14.9395 26.3617 15.2997 26.5861 15.7402ZM31.7875 19.0174C31.4408 19.1459 31.3648 19.3437 31.1557 20.6605C30.952 21.9434 30.9519 21.9547 31.1393 22.2065C31.3479 22.4872 31.5448 22.5554 31.893 22.4678C32.2243 22.3844 32.2949 22.195 32.5089 20.8151C32.7209 19.4492 32.6811 19.1882 32.2372 19.033C32.0978 18.9843 31.8955 18.9773 31.7875 19.0174ZM5.34424 22.5003C4.33514 22.8759 3.64889 23.5406 3.18107 24.5956C2.90767 25.2122 2.88503 26.4046 3.13365 27.0976C3.29556 27.549 3.29469 27.5683 3.10171 27.8143C2.92335 28.0417 2.90332 28.2033 2.90332 29.4173C2.90332 30.7214 2.91145 30.7756 3.14091 31.0057C3.27156 31.1367 3.4865 31.2439 3.6187 31.2439C3.84109 31.2439 3.85503 31.271 3.80674 31.6079C3.58705 33.1394 2.85967 35.9132 2.22239 37.6496C1.96361 38.3547 1.90777 38.6738 1.83829 39.8442C1.72573 41.7415 1.5917 42.3776 1.26885 42.5468C0.925772 42.7267 0.518243 43.1719 0.393303 43.5036C0.336689 43.6538 0.290332 44.1872 0.290332 44.6887C0.290332 46.1342 -0.364174 45.9965 6.50672 45.9965H12.2995L12.537 45.7582C12.7488 45.5459 12.7745 45.4377 12.774 44.7634C12.7737 44.3473 12.7254 43.8331 12.6667 43.6208C12.5648 43.2526 12.0708 42.6723 11.6698 42.4493C11.4376 42.3202 11.2592 41.346 11.1727 39.7363C11.1186 38.7292 11.0587 38.422 10.7297 37.4649C10.1661 35.8255 9.6996 34.1614 9.43172 32.8346C9.12774 31.3289 9.12794 31.2439 9.43579 31.2439C9.56886 31.2439 9.76483 31.1566 9.87128 31.0498C10.0476 30.873 10.0648 30.7263 10.0648 29.3999C10.0648 28.1033 10.0449 27.924 9.88251 27.7612C9.70396 27.5821 9.70415 27.5667 9.89277 27.009C10.464 25.3198 9.60892 23.3885 7.95267 22.6273C7.20488 22.2836 6.07452 22.2286 5.34424 22.5003ZM7.17526 23.7862C7.6846 23.9393 8.26139 24.4555 8.51882 24.9888C8.82909 25.6316 8.76289 26.5209 8.36233 27.0927L8.072 27.5073L6.50672 27.534L4.94155 27.5605L4.70231 27.1943C3.86412 25.9108 4.37927 24.315 5.79551 23.8075C6.2371 23.6492 6.69573 23.6421 7.17526 23.7862ZM23.617 26.4199C24.3373 26.5586 25.3389 26.7025 25.8428 26.7395C26.3467 26.7766 26.8557 26.8429 26.974 26.8868C27.2422 26.9864 27.3608 27.4033 27.1821 27.6192C27.0702 27.7546 26.8991 27.7687 25.9858 27.7186C24.3367 27.6278 21.6273 27.1036 21.4621 26.8432C21.3513 26.6687 21.3751 26.3458 21.5088 26.2095C21.6529 26.0627 21.8783 26.0851 23.617 26.4199ZM24.4702 28.9658C24.5003 28.9951 24.3637 29.9776 24.2332 30.6698C24.1884 30.9077 24.1635 30.9173 23.7537 30.8549C23.516 30.8187 23.3047 30.7714 23.2842 30.7496C23.2637 30.7279 23.3136 30.2803 23.3949 29.7548L23.543 28.7994L23.9896 28.866C24.2353 28.9027 24.4516 28.9477 24.4702 28.9658ZM8.70996 29.3999V29.8851H6.48408H4.2582V29.3999V28.9146H6.48408H8.70996V29.3999ZM7.92025 32.0932C8.08294 33.2433 8.62121 35.4098 9.09474 36.8201C9.30891 37.4581 9.48417 38.0151 9.48417 38.0576C9.48417 38.1001 8.13674 38.1349 6.48989 38.1349H3.4955L3.73657 37.4313C4.35082 35.6385 4.84661 33.632 5.17555 31.6079L5.23478 31.2439H6.51747H7.80015L7.92025 32.0932ZM9.77528 39.6636C9.77615 39.8635 9.93758 41.3036 10.0255 41.8958L10.0868 42.3083H6.50808H2.92935L3.00813 41.8958C3.05149 41.669 3.11739 41.0356 3.15455 40.4885L3.2222 39.4937H6.49831C9.55366 39.4937 9.7746 39.5052 9.77528 39.6636ZM11.269 43.8829C11.3519 44.0015 11.4197 44.2199 11.4197 44.3682V44.6377H6.53247H1.64521V44.2543C1.64521 43.9915 1.69854 43.8398 1.81457 43.7719C1.92287 43.7087 3.62944 43.672 6.55115 43.67L11.1185 43.6671L11.269 43.8829Z" fill="#FCB900"/>
</svg>
