<svg width="40" height="35" viewBox="0 0 40 35" fill="none" xmlns="http://www.w3.org/2000/svg">
<path fill-rule="evenodd" clip-rule="evenodd" d="M8.47403 0.0298756C8.02532 0.0947123 0.536118 2.75991 0.216669 2.96846C-0.106769 3.17967 -0.0847949 3.39574 0.396061 4.73324C0.849312 5.99398 0.987883 6.21656 1.31969 6.21656C1.4025 6.21656 3.03228 5.65208 4.94155 4.96216C6.85074 4.27225 8.44142 3.70777 8.47646 3.70777C8.51141 3.70777 10.3978 8.82312 12.6684 15.0752L16.7968 26.4427L16.4489 26.8156C15.985 27.3127 15.5668 28.0439 15.3493 28.7376C15.0941 29.5515 15.0999 30.7982 15.3626 31.6066C15.8935 33.2395 17.2443 34.4909 18.9249 34.9064C19.5228 35.0543 20.7095 35.0225 21.3258 34.8422C23.1855 34.2983 24.552 32.7297 24.8364 30.8129L24.924 30.2222L32.2861 27.5432C39.8373 24.7954 40 24.7278 40 24.3361C40 24.2597 39.8411 23.7589 39.6468 23.2233C38.9403 21.275 39.0195 21.3271 37.5703 21.8563C37.0099 22.061 36.5282 22.2053 36.4999 22.1769C36.4717 22.1485 35.1715 18.6076 33.6108 14.3081C31.6217 8.82884 30.7236 6.44996 30.6076 6.35376C30.5166 6.27826 30.3565 6.21656 30.2518 6.21656C30.0207 6.21656 29.6775 6.54153 29.6775 6.76042C29.6775 6.84784 29.9981 7.80392 30.3901 8.88505C30.782 9.96611 31.0899 10.8599 31.0743 10.8712C30.953 10.9587 19.092 15.2361 19.0289 15.2151C18.9568 15.1909 15.8814 6.8389 15.9328 6.8066C16.0339 6.74309 19.9296 5.35518 19.9497 5.37549C19.9644 5.39023 20.1724 5.9471 20.4118 6.61303C20.8549 7.84579 21.0144 8.09816 21.3503 8.09816C21.449 8.09816 22.2105 7.85057 23.0426 7.54787C24.5394 7.00346 24.9073 6.7939 24.9073 6.48555C24.9073 6.42267 24.7016 5.8081 24.4502 5.11975L23.9932 3.86825L24.3133 3.74791C24.4894 3.68174 25.3902 3.35019 26.3149 3.01118L27.9962 2.39481L28.1223 2.67893C28.1916 2.8351 28.3984 3.37904 28.5818 3.88762C28.7651 4.39612 28.9756 4.88714 29.0495 4.97863C29.3461 5.34593 30.0218 5.07357 30.0081 4.59227C30.0045 4.46919 29.7531 3.68182 29.4493 2.84255C28.9014 1.32888 28.7384 1.04217 28.4258 1.04217C28.1419 1.04217 14.8089 5.96584 14.699 6.11127C14.6389 6.19077 14.5886 6.33283 14.5873 6.42714C14.5859 6.52138 16.1156 10.8159 17.9865 15.9706C19.8575 21.1253 21.3882 25.3649 21.3882 25.3921C21.3882 25.4193 21.2914 25.4158 21.1732 25.3843C21.055 25.3529 20.7647 25.305 20.5283 25.2778L20.0983 25.2285L15.8157 13.4296C12.7901 5.09388 11.459 1.52175 11.2807 1.25973C10.6618 0.350531 9.569 -0.128335 8.47403 0.0298756ZM9.66558 1.36173C10.0616 1.56118 10.3957 1.97254 10.5949 2.50574C11.3342 4.48518 18.8298 25.1732 18.8372 25.255C18.8478 25.3721 17.8617 25.7663 17.7831 25.6763C17.7564 25.6456 15.8618 20.452 13.5731 14.1349C11.2843 7.81788 9.34597 2.58179 9.26558 2.49908C9.18519 2.41644 9.02073 2.35004 8.90007 2.35153C8.77941 2.35302 7.11545 2.92126 5.20251 3.61424C3.28949 4.30721 1.71773 4.86754 1.7096 4.85938C1.70154 4.85123 1.60496 4.6049 1.49509 4.31207C1.34964 3.92454 1.32117 3.76994 1.39069 3.74446C4.3197 2.66921 8.44682 1.20258 8.61307 1.17788C8.93948 1.12935 9.3448 1.20023 9.66558 1.36173ZM22.9612 4.47217C23.007 4.59078 23.1607 5.00795 23.3028 5.39932L23.5613 6.11088L22.7289 6.41123C22.2711 6.57642 21.8571 6.72569 21.809 6.74294C21.7286 6.77171 21.0155 4.98772 21.0852 4.93221C21.1081 4.9141 22.7647 4.28761 22.8565 4.26245C22.8683 4.25923 22.9154 4.35355 22.9612 4.47217ZM33.458 17.3247C34.5168 20.2433 35.3751 22.6393 35.3651 22.6491C35.3552 22.6588 32.7294 23.6211 29.53 24.7874L23.713 26.908L23.3416 26.5779L22.9702 26.2477L21.2017 21.3849C20.2291 18.7104 19.4333 16.4877 19.4335 16.4457C19.4337 16.3835 22.9686 15.0536 23.3305 14.9795C23.4004 14.9653 23.5875 15.3738 23.8946 16.2114C24.1472 16.9007 24.4148 17.5093 24.4891 17.5638C24.5635 17.6183 24.7198 17.6629 24.8366 17.6629C25.1093 17.6629 28.0256 16.5985 28.2091 16.432C28.4266 16.2346 28.3795 15.9513 27.9171 14.6741C27.68 14.0193 27.502 13.4675 27.5215 13.4479C27.5836 13.3857 31.2751 12.035 31.4067 12.0264C31.5042 12.02 31.9688 13.22 33.458 17.3247ZM26.696 14.7487C26.8735 15.2371 27.0187 15.6477 27.0187 15.6613C27.0187 15.7021 25.2153 16.3519 25.1899 16.3203C25.1472 16.2671 24.5596 14.5669 24.5718 14.5317C24.5828 14.4997 26.3424 13.8318 26.3636 13.8515C26.3689 13.8565 26.5185 14.2601 26.696 14.7487ZM38.4604 23.408C38.5658 23.699 38.6285 23.9518 38.5998 23.9695C38.5551 23.9972 28.0033 27.8532 25.6006 28.7197L24.7691 29.0197L24.6168 28.5745C24.533 28.3296 24.4498 28.0819 24.4317 28.0239C24.4081 27.9477 26.3267 27.2139 31.3197 25.3892C35.1261 23.9981 38.2468 22.8642 38.2546 22.8694C38.2624 22.8746 38.355 23.1169 38.4604 23.408ZM21.1055 26.6034C22.6564 27.0837 23.6945 28.515 23.6903 30.1677C23.6847 32.4074 21.7135 34.1038 19.4723 33.7975C17.7464 33.5615 16.31 31.9464 16.3061 30.2372C16.3022 28.5313 17.3679 27.0766 19.0004 26.5592C19.5072 26.3986 20.5122 26.4197 21.1055 26.6034ZM19.1436 28.6392C17.7352 29.449 18.1034 31.5552 19.7069 31.861C20.9721 32.1023 22.0767 30.8317 21.6698 29.6035C21.3229 28.5564 20.0996 28.0895 19.1436 28.6392ZM20.4441 29.7863C20.6298 30.0228 20.6416 30.1217 20.5172 30.3953C20.3963 30.6615 20.0755 30.7658 19.7718 30.6378C19.1991 30.3964 19.3885 29.5797 20.0171 29.5797C20.2102 29.5797 20.326 29.6358 20.4441 29.7863Z" fill="#9549D1"/>
</svg>
