<svg width="50" height="58" viewBox="0 0 50 58" fill="none" xmlns="http://www.w3.org/2000/svg">
<path d="M19.5893 47.4382H3.90426V13.0294H36.2726V16.7591C36.2562 17.0079 36.2944 17.2573 36.385 17.4919C36.4755 17.7264 36.6166 17.9412 36.7993 18.1228C36.982 18.3045 37.2025 18.4493 37.4474 18.5483C37.6922 18.6472 37.9562 18.6983 38.2229 18.6983C38.4897 18.6983 38.7536 18.6472 38.9985 18.5483C39.2433 18.4493 39.4639 18.3045 39.6466 18.1228C39.8293 17.9412 39.9703 17.7264 40.0609 17.4919C40.1514 17.2573 40.1897 17.0079 40.1732 16.7591V1.83264C40.1741 1.59226 40.1242 1.35409 40.0263 1.13177C39.9285 0.909464 39.7847 0.707397 39.6032 0.53714C39.4217 0.366884 39.206 0.231794 38.9685 0.13962C38.731 0.047447 38.4763 -1.33542e-06 38.2192 0H1.95398C1.69683 -1.33542e-06 1.44223 0.047447 1.20473 0.13962C0.967236 0.231794 0.751502 0.366884 0.569972 0.53714C0.388441 0.707397 0.244688 0.909464 0.146874 1.13177C0.0490604 1.35409 -0.000846314 1.59226 1.0857e-05 1.83264V49.2743C-0.000846314 49.5147 0.0490604 49.7529 0.146874 49.9752C0.244688 50.1975 0.388441 50.3996 0.569972 50.5698C0.751502 50.7401 0.967236 50.8752 1.20473 50.9673C1.44223 51.0595 1.69683 51.107 1.95398 51.107H19.5893C20.1092 51.107 20.6079 50.9139 20.9755 50.5702C21.3432 50.2265 21.5498 49.7604 21.5498 49.2743C21.5498 48.7883 21.3432 48.3221 20.9755 47.9785C20.6079 47.6348 20.1092 47.4417 19.5893 47.4417V47.4382ZM36.2726 3.66267V9.36412H3.90426V3.66267H36.2726Z" fill="#9549D1"/>
<path d="M36.0057 20.8555H35.9434C25.2736 20.8555 22.5362 38.1007 22.4255 38.8366C22.3861 39.0963 22.4066 39.3609 22.4855 39.6126C22.5645 39.8643 22.7001 40.0973 22.8833 40.296C23.0659 40.494 23.292 40.6528 23.5462 40.7618C23.8003 40.8707 24.0766 40.9273 24.3562 40.9275H29.3631C29.3923 42.7082 30.0571 44.4287 31.2519 45.8157C31.8725 46.4517 32.6344 46.953 33.4843 47.2845C34.3341 47.616 35.2513 47.7695 36.1714 47.7345C37.0946 47.7616 38.0136 47.6073 38.869 47.2816C39.7244 46.9559 40.4972 46.466 41.1373 45.8436C42.3997 44.4646 43.148 42.739 43.269 40.9275H48.0498C48.3195 40.9274 48.5861 40.8749 48.833 40.7734C49.0798 40.6718 49.3013 40.5236 49.4836 40.3378C49.6664 40.1511 49.8061 39.9311 49.8938 39.6917C49.9816 39.4522 50.0155 39.1984 49.9936 38.9461C49.9312 38.212 48.3047 20.9337 36.0057 20.8555ZM38.2984 43.3307C38.0244 43.5933 37.6915 43.7958 37.3237 43.9235C36.9559 44.0512 36.5623 44.1009 36.1714 44.0692C35.8033 44.1046 35.4314 44.0611 35.0841 43.9418C34.7368 43.8226 34.4231 43.6309 34.1671 43.3812C33.6044 42.6695 33.2917 41.8123 33.272 40.9275H39.3434C39.2523 41.8065 38.8892 42.6416 38.2984 43.3307ZM26.7215 37.2614C27.6948 33.1734 30.4108 24.5207 35.9462 24.5207H35.9797C42.7358 24.5634 45.0909 33.2552 45.8176 37.2614H26.7215Z" fill="#9549D1"/>
<path d="M36.7239 49.3711C36.4667 49.3711 36.212 49.4185 35.9746 49.5107C35.7371 49.6029 35.5214 49.738 35.3398 49.9082C35.1583 50.0785 35.0145 50.2806 34.9167 50.5029C34.8189 50.7252 34.769 50.9634 34.7698 51.2038V56.0598C34.7534 56.3086 34.7917 56.558 34.8822 56.7926C34.9728 57.0271 35.1137 57.2419 35.2965 57.4236C35.4792 57.6053 35.6997 57.75 35.9446 57.849C36.1894 57.9479 36.4534 57.999 36.7201 57.999C36.9869 57.999 37.2508 57.9479 37.4957 57.849C37.7405 57.75 37.9611 57.6053 38.1438 57.4236C38.3265 57.2419 38.4675 57.0271 38.5581 56.7926C38.6486 56.558 38.6869 56.3086 38.6704 56.0598V51.2038C38.6721 50.7195 38.4681 50.2544 38.103 49.9107C37.738 49.5671 37.2419 49.3729 36.7239 49.3711Z" fill="#9549D1"/>
<path d="M30.204 47.3663C30.0029 47.2177 29.7724 47.1077 29.5256 47.0427C29.2789 46.9777 29.0208 46.959 28.7662 46.9876C28.5117 47.0162 28.2658 47.0916 28.0425 47.2095C27.8193 47.3273 27.6233 47.4853 27.4656 47.6742L23.9373 51.8927C23.6175 52.2753 23.4725 52.7605 23.5338 53.2427C23.5952 53.7248 23.8579 54.1647 24.2648 54.4664C24.4659 54.6151 24.6965 54.7251 24.9433 54.7901C25.1901 54.8551 25.4482 54.8738 25.7027 54.8451C25.9573 54.8164 26.2032 54.7409 26.4264 54.6229C26.6496 54.5049 26.8456 54.3468 27.0031 54.1576L30.5315 49.94C30.8513 49.5575 30.9963 49.0722 30.9349 48.5901C30.8736 48.108 30.6108 47.6681 30.204 47.3663Z" fill="#9549D1"/>
<path d="M45.3903 47.6746C45.2327 47.4855 45.0366 47.3275 44.8134 47.2096C44.5902 47.0917 44.3442 47.0162 44.0897 46.9876C43.8351 46.959 43.577 46.9778 43.3302 47.0428C43.0834 47.1079 42.8529 47.218 42.6519 47.3667C42.2448 47.6683 41.9819 48.1082 41.9205 48.5904C41.8592 49.0726 42.0043 49.5579 42.3244 49.9404L45.8527 54.158C46.0102 54.3471 46.2062 54.5053 46.4294 54.6232C46.6526 54.7412 46.8986 54.8168 47.1531 54.8455C47.4077 54.8742 47.6658 54.8555 47.9126 54.7905C48.1594 54.7255 48.39 54.6155 48.5911 54.4668C48.9981 54.1652 49.261 53.7253 49.3226 53.2432C49.3841 52.7611 49.2392 52.2757 48.9195 51.8931L45.3903 47.6746Z" fill="#9549D1"/>
</svg>
