<svg width="46" height="40" viewBox="0 0 46 40" fill="none" xmlns="http://www.w3.org/2000/svg">
<path d="M44.0569 0H1.94311C1.42777 0 0.933526 0.200024 0.569123 0.556067C0.204721 0.912109 0 1.39501 0 1.89853V38.1015C0 38.605 0.204721 39.0879 0.569123 39.4439C0.933526 39.8 1.42777 40 1.94311 40H44.0569C44.3121 40 44.5647 39.9509 44.8005 39.8555C45.0362 39.7601 45.2504 39.6202 45.4309 39.4439C45.6113 39.2676 45.7544 39.0584 45.8521 38.828C45.9497 38.5977 46 38.3508 46 38.1015V1.89853C46 1.64922 45.9497 1.40235 45.8521 1.17201C45.7544 0.941671 45.6113 0.732361 45.4309 0.556067C45.2504 0.379772 45.0362 0.239925 44.8005 0.144515C44.5647 0.0491051 44.3121 0 44.0569 0ZM42.4984 36.564C42.4984 36.5686 42.4966 36.5729 42.4933 36.5761C42.4901 36.5793 42.4856 36.5811 42.481 36.5811H3.51901C3.51438 36.5811 3.50994 36.5793 3.50666 36.5761C3.50339 36.5729 3.50156 36.5686 3.50156 36.564V8.61466C3.50156 8.61014 3.50339 8.60582 3.50666 8.60262C3.50994 8.59942 3.51438 8.59761 3.51901 8.59761H42.4818C42.4841 8.59761 42.4863 8.59805 42.4884 8.59891C42.4906 8.59976 42.4925 8.60104 42.4941 8.60262C42.4957 8.6042 42.497 8.60606 42.4979 8.60813C42.4988 8.6102 42.4992 8.61242 42.4992 8.61466L42.4984 36.564ZM42.4984 5.16013C42.4984 5.16466 42.4966 5.16897 42.4933 5.17217C42.4901 5.17537 42.4856 5.17716 42.481 5.17716H3.51901C3.51438 5.17716 3.50994 5.17537 3.50666 5.17217C3.50339 5.16897 3.50156 5.16466 3.50156 5.16013V3.43828C3.50156 3.43376 3.50339 3.42941 3.50666 3.42622C3.50994 3.42302 3.51438 3.42123 3.51901 3.42123H42.4818C42.4841 3.42123 42.4863 3.42167 42.4884 3.42253C42.4906 3.42338 42.4925 3.42463 42.4941 3.42622C42.4957 3.4278 42.497 3.42968 42.4979 3.43175C42.4988 3.43382 42.4992 3.43604 42.4992 3.43828L42.4984 5.16013Z" fill="#FFB300"/>
<path d="M36.6639 26.4989V26.4756L38.764 24.3338C38.8409 24.2565 38.8958 24.161 38.9234 24.0567C38.9509 23.9523 38.9502 23.8428 38.9212 23.7388C38.8922 23.6349 38.836 23.5401 38.7581 23.4638C38.6802 23.3876 38.5833 23.3324 38.4769 23.3039L33.2972 21.8742C33.4204 21.6254 33.4841 21.3525 33.4836 21.0761V13.8446C33.4827 13.6069 33.3857 13.3791 33.2136 13.211C33.0416 13.0429 32.8085 12.9481 32.5651 12.9473H11.3512C11.108 12.9483 10.8751 13.0432 10.7032 13.2113C10.5314 13.3794 10.4344 13.607 10.4336 13.8446V28.8623C10.4342 29.1016 10.5318 29.3309 10.7049 29.5C10.8781 29.6692 11.1127 29.7645 11.3576 29.7651H27.8232C28.0147 29.7654 28.2054 29.7393 28.3895 29.6876L29.1151 32.1053C29.1467 32.2099 29.2048 32.3049 29.2841 32.3815C29.3634 32.4582 29.4613 32.5139 29.5686 32.5435C29.676 32.5732 29.7892 32.5758 29.8979 32.551C30.0065 32.5263 30.1069 32.4751 30.1898 32.4021L32.2693 30.571H32.2931L36.6338 34.6958C36.707 34.7656 36.7938 34.8205 36.8889 34.8572C36.9841 34.8939 37.0857 34.9118 37.188 34.9098C37.2903 34.9078 37.3912 34.8859 37.4848 34.8454C37.5783 34.805 37.6627 34.7468 37.733 34.6742L40.7301 31.5815C40.8723 31.4322 40.9502 31.2352 40.9477 31.0314C40.9451 30.8275 40.8624 30.6324 40.7167 30.4865L36.6639 26.4989ZM26.3853 19.9711C26.2858 19.943 26.1804 19.9416 26.0801 19.967C25.9799 19.9924 25.8885 20.0437 25.8155 20.1155C25.7425 20.1873 25.6906 20.2769 25.6653 20.375C25.64 20.4731 25.6421 20.5761 25.6715 20.6731L27.3767 26.3447H13.9463C13.9431 26.3447 13.9401 26.3434 13.9378 26.3412C13.9356 26.3391 13.9344 26.3361 13.9344 26.333V16.3786C13.9344 16.3755 13.9356 16.3725 13.9378 16.3704C13.9401 16.3682 13.9431 16.367 13.9463 16.367H29.9669C29.9716 16.3672 29.9761 16.3691 29.9793 16.3724C29.9826 16.3758 29.9844 16.3802 29.9844 16.3848V20.9629L26.3853 19.9711ZM38.0058 31.0778L37.1334 31.9721H37.1096L32.351 27.445H32.328L30.626 28.9476L30.5943 28.9391L28.8201 23.0381C28.8146 23.0265 28.8257 23.0156 28.8431 23.0211L35.0959 24.7421L35.1038 24.7716L33.4058 26.5051V26.5276L38.0058 31.0538V31.0778Z" fill="#FFB300"/>
<path d="M26.4582 31.9004H11.5471C10.9321 31.9004 10.4336 32.3875 10.4336 32.9884V33.9841C10.4336 34.585 10.9321 35.0721 11.5471 35.0721H26.4582C27.0732 35.0721 27.5718 34.585 27.5718 33.9841V32.9884C27.5718 32.3875 27.0732 31.9004 26.4582 31.9004Z" fill="#FFB300"/>
<path d="M35.4662 4.78767C35.7031 4.78767 35.8952 4.59998 35.8952 4.36844C35.8952 4.13691 35.7031 3.94922 35.4662 3.94922C35.2292 3.94922 35.0371 4.13691 35.0371 4.36844C35.0371 4.59998 35.2292 4.78767 35.4662 4.78767Z" fill="#FFB300"/>
<path d="M38.183 4.78767C38.4199 4.78767 38.612 4.59998 38.612 4.36844C38.612 4.13691 38.4199 3.94922 38.183 3.94922C37.946 3.94922 37.7539 4.13691 37.7539 4.36844C37.7539 4.59998 37.946 4.78767 38.183 4.78767Z" fill="#FFB300"/>
<path d="M40.9007 4.78767C41.1377 4.78767 41.3298 4.59998 41.3298 4.36844C41.3298 4.13691 41.1377 3.94922 40.9007 3.94922C40.6638 3.94922 40.4717 4.13691 40.4717 4.36844C40.4717 4.59998 40.6638 4.78767 40.9007 4.78767Z" fill="#FFB300"/>
</svg>
