<svg width="40" height="40" viewBox="0 0 40 40" fill="none" xmlns="http://www.w3.org/2000/svg">
<path fill-rule="evenodd" clip-rule="evenodd" d="M8.34107 0.0515112C6.57908 0.353151 5.06686 1.34986 4.10202 2.84555C3.9026 3.15469 2.9885 5.17172 1.89623 7.71274L0.0309749 12.052L0.00525524 13.4464C-0.0316434 15.448 0.115248 16.1781 0.782629 17.3095C1.13457 17.9061 1.95502 18.7081 2.59199 19.0782L3.11217 19.3804L3.13515 27.0922C3.16017 35.4607 3.13242 34.9039 3.58419 36.1114C4.10249 37.4969 5.62222 39.0166 7.00912 39.5362C8.21318 39.9874 7.71489 39.9642 16.2166 39.9642H24.0398L24.3567 39.7545C24.8447 39.4315 25.0447 39.0493 25.0447 38.4396C25.0447 37.8299 24.8447 37.4478 24.3568 37.1248L24.04 36.915L16.3339 36.8759L8.6279 36.8368L8.10569 36.5894C7.81855 36.4533 7.4222 36.1933 7.22504 36.0115C6.79406 35.6142 6.34722 34.7439 6.27467 34.1607L6.22385 33.7519L12.9821 33.7307L19.7403 33.7094L20.0571 33.4996C20.5451 33.1766 20.745 32.7945 20.745 32.1848C20.745 31.5751 20.5451 31.1929 20.0571 30.8699L19.7403 30.6602L12.9919 30.6389L6.24355 30.6177V25.1557V19.6936L6.6048 19.6027C7.16868 19.4607 7.8789 19.1073 8.41206 18.7035L8.89971 18.3341L9.23289 18.6044C9.76824 19.0391 10.3039 19.3357 10.9732 19.5682C11.5276 19.7608 11.7094 19.7855 12.5757 19.7855C13.4421 19.7855 13.6239 19.7608 14.1783 19.5682C14.8447 19.3367 15.3831 19.0392 15.9113 18.6105C16.0906 18.465 16.2582 18.346 16.2837 18.346C16.3094 18.346 16.5251 18.5045 16.763 18.6984C17.6922 19.4554 18.6892 19.7919 20.0024 19.7919C21.5387 19.7919 22.6177 19.3406 23.7226 18.2356C24.7592 17.1988 25.2658 16.0547 25.2746 14.7304L25.2792 14.0467L27.399 14.0462L29.5187 14.0458L29.5573 14.5856C29.6034 15.2293 29.8027 15.6008 30.2668 15.9079C30.5308 16.0826 30.6705 16.1177 31.1033 16.1177C31.536 16.1177 31.6757 16.0826 31.9397 15.9079C32.4038 15.6008 32.6031 15.2293 32.6492 14.5856L32.6878 14.0458H34.799H36.9103L36.8697 14.6957C36.8439 15.1096 36.777 15.4433 36.6854 15.6144C36.5889 15.7948 36.5408 16.0519 36.5391 16.397C36.5369 16.8263 36.571 16.9632 36.7462 17.2279C37.0702 17.7177 37.4508 17.9159 38.0665 17.9159C38.954 17.9159 39.4092 17.4729 39.7939 16.235C39.9625 15.6925 39.9761 15.5138 39.9761 13.8503V12.052L38.1097 7.71274C37.0065 5.14795 36.1026 3.15547 35.8994 2.84031C35.0709 1.55603 33.8721 0.66339 32.3407 0.19029L31.7677 0.0132785L20.2369 0.00115978C13.8949 -0.00548598 8.54183 0.0171096 8.34107 0.0515112ZM31.8261 3.32037C32.3429 3.52904 33.0532 4.14131 33.3283 4.61527C33.4964 4.90495 36.0283 10.7764 36.0283 10.8767C36.0283 10.8996 28.8166 10.9183 20.0024 10.9183C11.1881 10.9183 3.97648 10.8999 3.97648 10.8774C3.97648 10.8162 6.45002 5.0227 6.60003 4.73271C6.77085 4.4023 7.37053 3.76626 7.70778 3.55781C7.85576 3.46634 8.17612 3.32748 8.41964 3.24929C8.84022 3.11427 9.42731 3.10794 20.1196 3.12303L31.3769 3.1389L31.8261 3.32037ZM7.33801 14.4619C7.33801 16.4581 4.96344 17.4195 3.66807 15.9476C3.30378 15.5338 3.11655 15.0293 3.11655 14.4619V14.0458H5.22728H7.33801V14.4619ZM14.6865 14.4619C14.6865 15.0341 14.4986 15.5345 14.1238 15.9602C13.6539 16.4941 13.2848 16.6614 12.5757 16.6614C11.8667 16.6614 11.4976 16.4941 11.0276 15.9602C10.6529 15.5345 10.465 15.0341 10.465 14.4619V14.0458H12.5757H14.6865V14.4619ZM22.1861 14.5515C22.124 15.1522 21.8157 15.8297 21.4732 16.1178C20.9838 16.5297 20.6292 16.6612 20.0024 16.6632C19.4972 16.6647 19.3584 16.633 18.9992 16.434C18.2753 16.033 17.8912 15.4217 17.8304 14.5735L17.7924 14.0458H20.0155H22.2385L22.1861 14.5515ZM30.556 18.9291C30.4915 18.9446 30.1749 19 29.8525 19.052C29.53 19.104 28.9414 19.2621 28.5445 19.4033C24.1352 20.9716 21.7806 25.8217 23.2792 30.2489C23.8524 31.9419 24.8091 33.3446 27.1061 35.8595C28.2156 37.0743 29.0721 38.1149 29.5927 38.8806C30.0517 39.5559 30.2761 39.7638 30.7045 39.9117C31.0448 40.029 31.7849 40.0295 32.1274 39.9126C32.5389 39.7722 32.7277 39.5903 33.3141 38.7703C33.9498 37.8812 34.625 37.0671 35.742 35.8428C37.5293 33.8838 38.4363 32.6798 39.0571 31.442C40.7515 28.0641 40.125 24.0914 37.4779 21.4269C36.2906 20.2319 34.8351 19.4369 33.1761 19.0772C32.6708 18.9677 30.8279 18.8635 30.556 18.9291ZM32.4941 22.1401C32.8527 22.2112 33.3975 22.4059 33.8394 22.6207C34.4603 22.9227 34.6924 23.0923 35.2546 23.6545C35.8163 24.2164 35.9866 24.4495 36.2886 25.0699C36.7481 26.0137 36.9276 26.8679 36.8633 27.8037C36.7365 29.6465 36.0818 30.7883 33.5217 33.6312C32.8247 34.4052 32.077 35.2585 31.8602 35.5272C31.6434 35.796 31.4436 36.0159 31.416 36.0159C31.3884 36.0159 31.1885 35.796 30.9717 35.5272C30.7549 35.2585 30.0072 34.4052 29.3102 33.6312C26.7501 30.7883 26.0954 29.6465 25.9686 27.8037C25.9043 26.8679 26.0838 26.0137 26.5433 25.0699C26.8453 24.4495 27.0156 24.2164 27.5773 23.6545C28.1348 23.0971 28.377 22.9193 28.9925 22.6161C30.1455 22.0483 31.2639 21.8962 32.4941 22.1401ZM30.7433 25.1808C30.0123 25.4096 29.3338 26.1048 29.1392 26.8245C29.0124 27.2933 29.0913 28.1724 29.2961 28.5719C30.1963 30.3285 32.6807 30.3439 33.5841 28.5986C33.808 28.1661 33.8394 28.0309 33.8394 27.4993C33.8394 26.9775 33.8055 26.8255 33.5963 26.4066C33.0724 25.3582 31.852 24.8338 30.7433 25.1808Z" fill="#48C5AE"/>
</svg>
