<svg width="40" height="40" viewBox="0 0 40 40" fill="none" xmlns="http://www.w3.org/2000/svg">
<path fill-rule="evenodd" clip-rule="evenodd" d="M12.6826 0.111561C12.3301 0.295307 12.1671 0.464047 12.0087 0.809108C11.8796 1.09 11.865 1.35558 11.865 3.42735C11.865 5.99229 11.891 6.14508 12.4 6.5733C13.0035 7.08093 13.9948 6.87514 14.3767 6.16283C14.513 5.90882 14.5219 5.70819 14.5019 3.34919L14.4805 0.809108L14.2928 0.545955C13.9469 0.0612286 13.1774 -0.146355 12.6826 0.111561ZM20.7344 3.10402C20.3057 3.31074 17.223 6.41847 17.0631 6.80511C16.9011 7.19691 16.9118 7.45608 17.1068 7.85866C17.3946 8.45296 18.1525 8.74269 18.7945 8.50377C19.0454 8.41045 22.2888 5.21823 22.4595 4.89669C22.6097 4.61353 22.6012 4.02157 22.4421 3.6862C22.162 3.09636 21.335 2.81437 20.7344 3.10402ZM4.39594 3.69441C3.71496 3.99836 3.41063 4.75828 3.69628 5.44175C3.83973 5.78509 6.6401 8.64468 7.16691 8.98584C8.36416 9.76123 9.7541 8.3716 8.97853 7.17464C8.6373 6.64794 5.77705 3.84822 5.43363 3.7048C5.08184 3.55787 4.71036 3.55412 4.39594 3.69441ZM10.8048 10.0971C10.2319 10.3572 9.8816 11.0564 10.0365 11.6307C10.2056 12.2569 20.1858 37.1726 20.3637 37.4125C20.4701 37.5559 20.6673 37.7404 20.8021 37.8225C21.2547 38.0985 22.0222 37.9773 22.3873 37.5723C22.4795 37.47 23.3028 36.0907 24.217 34.507L25.8792 31.6276L29.9907 35.7343C32.2569 37.9979 34.201 39.8777 34.3223 39.9228C34.6535 40.0458 34.9944 40.0218 35.3479 39.8505C35.7867 39.6379 39.7199 35.6899 39.8833 35.2981C40.0244 34.9597 40.0376 34.6331 39.9226 34.3238C39.8775 34.2025 37.9973 32.2588 35.7331 29.9931L31.6254 25.8825L34.5446 24.1969C37.7857 22.3254 37.8987 22.2372 37.9501 21.5409C37.9867 21.0459 37.8261 20.6921 37.4247 20.3834C37.035 20.0837 11.8518 10.0575 11.3926 10.0193C11.197 10.003 10.9359 10.0375 10.8048 10.0971ZM0.790847 12.0178C-0.124498 12.4333 -0.280144 13.672 0.507543 14.2729L0.787485 14.4865L3.33433 14.508C5.69997 14.5279 5.90072 14.519 6.15487 14.3828C6.86735 14.0009 7.07318 13.0099 6.56544 12.4065C6.13712 11.8976 5.98429 11.8717 3.41876 11.8717C1.3333 11.8717 1.08181 11.8857 0.790847 12.0178ZM23.666 17.6869C29.0189 19.8221 33.4271 21.5972 33.462 21.6316C33.4968 21.6659 32.4072 22.3408 31.0405 23.1314C28.4238 24.645 28.2651 24.7679 28.1528 25.3665C28.0275 26.0341 27.972 25.9685 32.5249 30.5284L36.7589 34.7687L35.7627 35.7646L34.7667 36.7605L30.5648 32.5626C26.3228 28.3246 26.0948 28.1223 25.5642 28.1265C25.1806 28.1296 24.7153 28.3998 24.471 28.7616C24.3447 28.9487 23.6673 30.0975 22.9656 31.3144C22.2639 32.5314 21.6617 33.4986 21.6274 33.4637C21.5931 33.4289 19.8177 29.0216 17.6823 23.6699C15.5468 18.3181 13.7796 13.8893 13.7551 13.8281C13.7256 13.7543 13.7481 13.7317 13.8219 13.7609C13.8831 13.785 18.313 15.5518 23.666 17.6869ZM6.74118 17.0977C6.26517 17.3197 3.15383 20.493 3.02851 20.8842C2.84207 21.4666 3.1439 22.193 3.67767 22.4463C4.01312 22.6054 4.60521 22.6139 4.88844 22.4637C5.21005 22.293 8.40301 19.0504 8.49635 18.7996C8.73533 18.1577 8.44554 17.3999 7.8511 17.1122C7.43599 16.9113 7.14886 16.9075 6.74118 17.0977Z" fill="#FC7754"/>
</svg>
