<svg width="40" height="40" viewBox="0 0 40 40" fill="none" xmlns="http://www.w3.org/2000/svg">
<path fill-rule="evenodd" clip-rule="evenodd" d="M2.72969 0.138905C1.40252 0.485395 0.327866 1.62776 0.0800427 2.95559C-0.0266809 3.52763 -0.0266809 18.886 0.0800427 19.4581C0.263254 20.4396 1.03712 21.4937 1.92153 21.9665C2.80165 22.4369 2.3389 22.4179 12.9091 22.4179H22.5807V25.7445V29.0711L22.3267 29.0063C22.1871 28.9706 21.6685 28.9416 21.1744 28.9417C20.2986 28.942 20.2604 28.9493 19.6658 29.233C17.5731 30.2314 16.8509 32.8505 18.1441 34.7513C18.4359 35.1802 21.4348 38.2415 22.2514 38.9441C22.8778 39.4831 23.4181 39.7727 24.0494 39.9078C24.6176 40.0293 33.9681 40.0314 34.55 39.91C36.0043 39.6068 37.1725 38.4035 37.4245 36.9494C37.4837 36.6076 37.5036 35.3178 37.4856 33.0041C37.4599 29.7239 37.4511 29.5463 37.2925 29.125C36.986 28.3109 36.5551 27.7612 35.8618 27.3004C35.2079 26.8657 32.5956 25.5756 32.0419 25.4139C31.6183 25.2902 30.512 25.2984 30.0988 25.4282L29.9213 25.484L29.9426 23.9705L29.9638 22.457L33.5577 22.4179C37.0169 22.3804 37.1671 22.3726 37.5642 22.2097C38.4576 21.8433 39.0202 21.3704 39.4858 20.5942C40.0169 19.709 40.0038 19.9504 39.9988 11.1524C39.9938 2.32824 40.0147 2.69012 39.4544 1.75815C38.9522 0.922824 37.9901 0.250938 37.0433 0.074216C36.7691 0.0230433 30.8061 -0.00273841 19.9332 0.000230385C4.41743 0.00437108 3.20768 0.0141369 2.72969 0.138905ZM36.7754 2.42261C37.0748 2.53566 37.4218 2.87278 37.5519 3.17685C37.7117 3.55045 37.7117 18.8632 37.5519 19.2368C37.4218 19.5409 37.0748 19.878 36.7754 19.991C36.6324 20.0451 35.3729 20.0742 33.1727 20.0742H29.79L29.5439 19.5745C29.2592 18.9961 28.5077 18.2432 27.9415 17.9691C26.831 17.4315 25.5684 17.4524 24.5027 18.0259C23.9383 18.3296 23.2855 19.0116 23.0098 19.5854L22.776 20.0721L13.1127 20.0731C6.47267 20.0738 3.3805 20.0481 3.2294 19.991C2.93009 19.878 2.58305 19.5409 2.45296 19.2368C2.36405 19.029 2.34538 17.6392 2.34538 11.2144C2.34538 5.91385 2.37179 3.37349 2.42851 3.22349C2.53828 2.93294 2.87454 2.5802 3.16573 2.45019C3.3591 2.36394 6.30134 2.34504 19.9778 2.34254C31.5078 2.34043 36.6225 2.3648 36.7754 2.42261ZM5.81053 5.0811C5.45732 5.18344 5.10042 5.62298 5.04206 6.02768C5.01542 6.21213 5.00425 8.67202 5.01722 11.4941C5.04042 16.536 5.04363 16.629 5.20191 16.841C5.29051 16.9596 5.45997 17.1291 5.57857 17.2177C5.78436 17.3715 5.90952 17.3798 8.32198 17.4014C10.3943 17.4199 10.9444 17.402 11.3749 17.3022C13.3218 16.8507 14.582 14.9368 14.1853 13.034C14.0336 12.3066 13.7618 11.7511 13.3141 11.2531L12.9612 10.8606L13.1552 10.5259C13.6358 9.6968 13.7582 8.43506 13.4449 7.54122C13.0028 6.28041 11.9911 5.37868 10.7154 5.10828C10.1187 4.9818 6.22766 4.96031 5.81053 5.0811ZM16.3635 5.14977C16.1683 5.24868 15.9793 5.42813 15.8752 5.61337C15.7072 5.91213 15.7054 5.95814 15.7054 9.74875C15.7054 12.2265 15.7357 13.7284 15.7911 13.996C16.1835 15.8918 18.0598 17.4151 20.0024 17.4151C21.9462 17.4151 23.8211 15.893 24.2138 13.996C24.2692 13.7284 24.2995 12.2265 24.2995 9.74875C24.2995 5.9526 24.2979 5.9126 24.1289 5.61189C23.7797 4.9907 22.9525 4.83687 22.411 5.29243C21.9544 5.67673 21.9559 5.66134 21.9522 9.73946C21.9496 12.5725 21.9246 13.5401 21.8485 13.753C21.5277 14.6505 20.4507 15.2429 19.5707 15.006C19.06 14.8684 18.5532 14.4978 18.31 14.0841L18.0883 13.7069L18.0492 9.74758C18.0112 5.90205 18.0055 5.78205 17.849 5.57259C17.4514 5.04032 16.8931 4.88141 16.3635 5.14977ZM26.5845 5.05094C26.0896 5.14625 25.631 5.94721 25.7781 6.45979C25.8166 6.59417 26.6775 8.08677 27.6911 9.77664L29.5341 12.8492L29.5344 14.7234C29.5347 16.8877 29.5611 16.9879 30.2055 17.2729C30.8705 17.567 31.5952 17.2221 31.7906 16.5185C31.8418 16.334 31.8773 15.5001 31.8775 14.4741L31.878 12.7414L33.6076 9.86469C34.5589 8.28248 35.4055 6.8362 35.4887 6.65073C35.9641 5.5915 34.8364 4.63406 33.805 5.22126C33.6477 5.31079 33.1637 6.04611 32.1372 7.7552C31.3417 9.07944 30.6721 10.1442 30.6492 10.1213C30.6263 10.0984 29.9697 9.01483 29.1903 7.71348C27.8563 5.4861 27.7529 5.33704 27.4261 5.17157C27.0885 5.00063 26.9495 4.9807 26.5845 5.05094ZM10.6385 7.55583C11.68 8.20349 11.4056 9.745 10.2043 9.99438C9.98221 10.0406 9.25694 10.0685 8.59261 10.0566L7.38467 10.0349L7.36326 8.68124L7.34185 7.32754L8.8477 7.35309C10.253 7.37692 10.3725 7.39043 10.6385 7.55583ZM11.2445 12.5804C11.6078 12.802 11.7728 13.0215 11.8738 13.4175C12.0331 14.0428 11.7351 14.6561 11.141 14.926C10.8618 15.0527 10.6071 15.0709 9.08396 15.0724L7.3456 15.0741V13.7459V12.4178L9.16209 12.4181C10.8626 12.4183 10.9955 12.4287 11.2445 12.5804ZM26.9095 20.0949C27.0773 20.191 27.2882 20.3687 27.3782 20.4899C27.5383 20.7056 27.5427 20.801 27.5809 24.9041C27.6195 29.0444 27.6221 29.1013 27.7904 29.3712C28.0198 29.7394 28.347 29.9181 28.7919 29.9181C29.4535 29.9181 29.8558 29.529 29.9622 28.7863C30.0361 28.2704 30.1776 28.0145 30.4985 27.8162C30.9981 27.5075 31.2504 27.5722 33.0417 28.4687C34.7305 29.3138 34.9323 29.4637 35.0861 29.9872C35.1406 30.1728 35.1607 31.3865 35.1447 33.5242L35.1203 36.7789L34.8804 37.079C34.3986 37.6816 34.6826 37.6523 29.3161 37.6524C24.7365 37.6526 24.515 37.646 24.2378 37.5017C23.8803 37.3156 20.1434 33.5681 19.971 33.2228C19.7298 32.7395 19.8348 32.098 20.2223 31.6885C20.5346 31.3583 20.8053 31.2462 21.2901 31.2462C21.8665 31.2462 22.1597 31.3797 22.7247 31.899C23.4238 32.5418 24.0175 32.6304 24.5147 32.1661C24.9387 31.7701 24.9245 31.9732 24.9245 26.3257C24.9245 20.6657 24.9169 20.7769 25.3384 20.3192C25.7272 19.897 26.3963 19.8016 26.9095 20.0949Z" fill="#D33030"/>
</svg>
