<svg width="38" height="40" viewBox="0 0 38 40" fill="none" xmlns="http://www.w3.org/2000/svg">
<path fill-rule="evenodd" clip-rule="evenodd" d="M33.454 0.142791C33.1803 0.311002 33.0156 0.69362 33.0854 0.999401C33.1134 1.12228 33.5874 1.66779 34.2628 2.35462C35.0041 3.10837 35.3548 3.51631 35.2814 3.53953C35.2198 3.55899 32.4328 3.89776 29.0881 4.29233C25.7433 4.68699 22.9299 5.03928 22.836 5.07531C22.5532 5.18365 22.3347 5.53187 22.3347 5.87416C22.3347 6.29453 22.6831 6.63752 23.11 6.63752C23.2716 6.63752 26.0577 6.32095 29.3014 5.93403C32.5452 5.54712 35.2871 5.23055 35.3947 5.23055C35.5799 5.23055 35.5474 5.30222 34.7706 6.60406C33.7919 8.24451 33.7346 8.45086 34.1435 8.86303C34.4395 9.16131 34.7229 9.21587 35.0932 9.04578C35.3611 8.92275 38 4.51424 38 4.18986C38 4.07011 37.9503 3.8772 37.8895 3.76105C37.7227 3.44237 34.4261 0.172025 34.1756 0.0766637C33.8689 -0.0401929 33.7311 -0.0275301 33.454 0.142791ZM2.81991 3.53812C2.69032 3.6481 2.00276 4.71677 1.29208 5.91301C0.207139 7.73917 0 8.13703 0 8.39459C0 8.69028 0.0644448 8.76642 1.80306 10.525C3.79504 12.5398 3.94541 12.6454 4.46616 12.395C4.78645 12.2411 4.99289 11.8309 4.91518 11.5027C4.88401 11.3712 4.42801 10.843 3.7361 10.137C3.11553 9.50375 2.62301 8.97332 2.64162 8.95831C2.66023 8.94323 5.27541 8.60571 8.45306 8.20816C12.774 7.66757 14.2892 7.45137 14.4633 7.35054C14.9995 7.03991 14.952 6.22957 14.3815 5.95537C14.1015 5.82077 14.0142 5.82929 8.34767 6.54489C5.18529 6.94424 2.55492 7.26917 2.50226 7.2669C2.4496 7.26471 2.77532 6.65057 3.22597 5.90222C4.1776 4.32219 4.25522 4.06777 3.9057 3.6735C3.59046 3.31793 3.14508 3.26243 2.81991 3.53812ZM26.4449 7.76551C25.6274 7.99477 25.5347 8.07997 19.6034 14.0479C16.4164 17.2546 13.7959 19.8626 13.78 19.8433C13.7642 19.824 13.5865 18.7355 13.3851 17.4243C12.6058 12.3512 12.6004 12.3282 12.0038 11.5048C11.3213 10.563 10.263 10.0343 9.07347 10.041C8.07314 10.0466 7.26544 10.5668 6.83325 11.4837L6.63061 11.9136V20.629C6.63061 28.7658 6.64 29.3883 6.77183 30.0052C7.03938 31.2564 7.45831 32.275 8.12316 33.2904C8.70285 34.1759 12.0641 37.6126 13.0231 38.3007C16.1757 40.562 20.3738 40.5669 23.5367 38.3128C24.029 37.962 29.6257 32.8944 31.012 31.5442C31.9091 30.6705 32.2612 29.7249 32.0932 28.6409C31.9361 27.6276 31.2638 26.6989 30.3644 26.2527L29.8884 26.0165L30.149 25.4872C30.9232 23.9152 30.2285 21.9312 28.6484 21.2021L28.2352 21.0114L28.4691 20.5475C29.1058 19.2847 28.8802 17.8712 27.8787 16.8486C27.6597 16.625 27.2982 16.362 27.0622 16.2549C26.8293 16.1491 26.6233 16.0515 26.6044 16.0379C26.5855 16.0243 27.304 15.2667 28.2011 14.3543C29.0982 13.4419 29.9033 12.5722 29.9902 12.4217C30.6886 11.2129 30.4749 9.59762 29.4846 8.59946C28.6845 7.79311 27.5026 7.46888 26.4449 7.76551ZM27.7027 9.37673C28.6648 9.64608 29.0827 10.8707 28.5012 11.7165C28.3788 11.8945 26.4823 13.8231 24.2867 16.0024C22.0912 18.1816 20.1954 20.1018 20.0739 20.2695C19.9236 20.4769 19.8531 20.6685 19.8531 20.8692C19.8531 21.4806 20.5828 21.8607 21.096 21.5167C21.2014 21.446 22.1079 20.5699 23.1102 19.5697C24.6072 18.0761 24.988 17.7362 25.2429 17.6664C25.7076 17.5392 25.9089 17.5604 26.3532 17.7836C27.0847 18.151 27.3951 19.0587 27.0323 19.7692C26.9555 19.9197 26.0784 20.8694 25.0832 21.8797C24.088 22.89 23.2379 23.813 23.1942 23.9308C22.9924 24.4741 23.5571 25.0915 24.1381 24.9628C24.3114 24.9244 24.7025 24.5936 25.474 23.8326C26.7466 22.5775 27.0035 22.4473 27.7802 22.6648C28.6044 22.8954 29.0631 23.8684 28.7288 24.6766C28.658 24.8478 28.1824 25.4009 27.5718 26.0224C26.9523 26.6529 26.5135 27.1642 26.4816 27.2926C26.407 27.5924 26.4943 27.8795 26.7259 28.0959C27.0838 28.4302 27.453 28.3891 28.0219 27.9514C28.6661 27.4557 29.4179 27.4837 30.0127 28.0254C30.1784 28.1762 30.3546 28.4243 30.4046 28.5767C30.5218 28.9348 30.464 29.6252 30.295 29.8852C30.1137 30.1641 23.1846 36.511 22.6061 36.9279C20.1025 38.7329 16.7569 38.7891 14.1673 37.0697C13.5404 36.6535 10.6488 33.8269 9.92289 32.9209C9.16824 31.9788 8.69494 30.9921 8.40343 29.7532C8.28323 29.2424 8.26764 28.392 8.24127 20.9021C8.20971 11.9372 8.20001 12.167 8.62383 11.85C9.26975 11.367 10.6167 12.0304 10.9727 13.007C11.0356 13.1795 11.385 15.2376 11.749 17.5806C12.1131 19.9236 12.4296 21.9006 12.4525 21.9739C12.5312 22.2267 12.9469 22.505 13.2458 22.505C13.5172 22.505 13.7887 22.2431 19.9699 16.0173C23.5125 12.4491 26.4274 9.52907 26.4474 9.52845C26.4673 9.52782 26.6233 9.47655 26.7939 9.41464C27.1696 9.27816 27.3272 9.2716 27.7027 9.37673Z" fill="#1992FB"/>
</svg>
