<svg width="44" height="40" viewBox="0 0 44 40" fill="none" xmlns="http://www.w3.org/2000/svg">
<path fill-rule="evenodd" clip-rule="evenodd" d="M18.6307 0.12402C16.9542 0.501976 15.5663 1.47645 14.6324 2.93119C14.2684 3.49834 13.7648 4.70653 13.7648 5.01267C13.7648 5.29777 13.9895 5.66108 14.2355 5.77396C14.7957 6.03098 15.2322 5.8028 15.4854 5.1207C16.2412 3.08434 17.6629 1.91141 19.5718 1.74907C21.6323 1.57382 23.6128 3.06355 24.5182 5.46955C24.8246 6.28393 25.0822 6.5705 25.5078 6.5705C25.9361 6.5705 26.2074 6.27891 26.5296 5.47249C26.9461 4.42984 27.3237 3.84043 28.0457 3.10652C28.9863 2.15015 29.9257 1.71935 31.0706 1.71935C32.1138 1.71935 33.3031 2.16219 34.0782 2.83919C34.6277 3.31919 35.2322 4.24143 35.5032 5.0132C35.8028 5.86613 35.8763 7.34712 35.6643 8.25974C35.1625 10.4197 33.39 12.4871 28.1863 16.9814L25.6172 19.2005L23.3257 17.2463C19.644 14.1067 18.1764 12.7301 16.8129 11.1375C16.5052 10.778 16.4221 10.7289 16.1247 10.7305C15.619 10.7334 15.2273 11.1242 15.2273 11.6259C15.2273 12.2673 17.405 14.4792 21.2494 17.7427C22.172 18.526 23.4404 19.6066 24.0681 20.144C25.2135 21.1249 25.4659 21.2725 25.8374 21.1787C26.0547 21.1238 30.9545 16.9109 32.673 15.3013C35.6546 12.5089 37.0353 10.4592 37.4242 8.24813C37.5773 7.37752 37.4916 5.6759 37.2525 4.83795C36.7496 3.07655 35.4501 1.43201 33.9817 0.698794C33.0972 0.257167 32.4569 0.0818325 31.4817 0.014263C29.2972 -0.136989 27.2976 0.919521 25.9165 2.95484C25.5679 3.46854 25.4971 3.5329 25.4226 3.40322C25.3748 3.31997 25.1114 2.94747 24.8371 2.57549C23.9987 1.43825 22.9732 0.681902 21.7225 0.278391C20.8379 -0.00704739 19.5071 -0.0734907 18.6307 0.12402ZM13.9713 7.90456C13.6494 8.22864 13.6016 8.50784 13.8014 8.89688C14.2052 9.6832 15.3994 9.33331 15.3994 8.42866C15.3994 8.09194 14.893 7.61003 14.5391 7.61003C14.3407 7.61003 14.182 7.69233 13.9713 7.90456ZM0.296718 19.5085L8.90472e-05 19.8072V27.8332C8.90472e-05 36.5506 -0.0182352 36.2158 0.470842 36.4401C0.753621 36.5699 6.25692 36.5853 6.7134 36.4576C7.36524 36.2753 7.94637 35.7782 8.39501 35.0193C8.48483 34.8673 8.5127 34.8673 9.21221 35.0187C10.4122 35.2783 10.897 35.5142 13.6837 37.1949C15.1545 38.0821 16.6746 38.9446 17.0615 39.1119C19.4846 40.1589 22.2477 40.2851 24.7773 39.4643C25.1318 39.3493 28.0349 38.0949 31.2288 36.6766C34.4226 35.2584 37.9649 33.6893 39.1005 33.1896C42.4036 31.7362 42.6699 31.5959 43.1678 31.0473C43.7797 30.3732 43.9973 29.7828 43.9999 28.7905C44.0017 28.095 43.9729 27.9489 43.7331 27.4371C43.5852 27.1215 43.3251 26.7082 43.155 26.5188C42.5007 25.7894 41.2099 25.3501 40.2476 25.5293C39.9895 25.5773 37.9096 26.2625 35.6258 27.0519C33.3419 27.8414 31.4666 28.487 31.4586 28.4867C31.4505 28.4864 31.4417 28.1635 31.4391 27.7691C31.4352 27.1553 31.3966 26.9715 31.1716 26.4919C30.6773 25.4389 29.8193 24.7368 28.7512 24.5119C28.4677 24.4521 27.1501 24.4156 25.267 24.4153L22.2387 24.4147L20.088 23.1935C18.9051 22.5218 17.6469 21.8239 17.292 21.6424C16.0697 21.0175 16.0281 21.0122 12.0307 20.9735L8.44697 20.9389L8.34047 20.6799C8.18132 20.2931 7.53343 19.6643 7.07343 19.4503C6.68423 19.2693 6.54099 19.2604 3.63036 19.2356L0.593348 19.2098L0.296718 19.5085ZM6.58994 21.2452L6.88244 21.5397V27.8248C6.88244 32.5132 6.85629 34.1676 6.77964 34.3371C6.57919 34.7802 6.39526 34.8111 3.96174 34.8111H1.72068V27.8809V20.9507H4.00906H6.29744L6.58994 21.2452ZM3.73377 22.9778C3.41193 23.3018 3.3641 23.581 3.56386 23.9701C3.96768 24.7564 5.16185 24.4065 5.16185 23.5019C5.16185 23.1651 4.65549 22.6832 4.30156 22.6832C4.10318 22.6832 3.94454 22.7655 3.73377 22.9778ZM15.9195 22.9142C16.1819 23.0135 17.5158 23.7297 18.8837 24.5055C20.2516 25.2814 21.5432 25.9684 21.7539 26.0323C22.0436 26.12 22.8953 26.1483 25.2465 26.1483H28.356L28.7865 26.3643C29.0231 26.4832 29.2957 26.6878 29.392 26.8191C30.0055 27.656 29.7948 28.8252 28.9332 29.3646L28.6049 29.5701L23.7676 29.6134L18.9303 29.6568L18.6939 29.895C18.3419 30.2495 18.3599 30.7562 18.7364 31.0949L19.0153 31.346L23.8101 31.3442L28.6049 31.3424L29.2071 31.1228C29.5383 31.0022 31.6095 30.2785 33.8097 29.5147C36.0099 28.7509 38.3714 27.931 39.0574 27.6925C40.4407 27.2118 40.9651 27.1502 41.4996 27.4056C42.2142 27.747 42.5256 28.7773 42.1391 29.5217C42.0293 29.7333 41.8421 29.9777 41.7232 30.0648C41.6044 30.1517 37.675 31.9224 32.9913 33.9996C27.0739 36.6239 24.2261 37.8437 23.6582 37.9973C22.9497 38.189 22.6577 38.2193 21.4644 38.2245C20.0147 38.2307 19.5582 38.164 18.4104 37.7782C17.5246 37.4804 17.2691 37.3428 14.4621 35.6525C13.1086 34.8375 11.827 34.0856 11.6141 33.9815C11.0662 33.714 9.95886 33.3765 9.22674 33.2539L8.60303 33.1495V27.9109V22.6724L12.0227 22.703C15.2376 22.7317 15.4709 22.7444 15.9195 22.9142Z" fill="#8E0DF3"/>
</svg>
