<svg width="23" height="25" viewBox="0 0 23 25" fill="none" xmlns="http://www.w3.org/2000/svg">
<path d="M11.4996 0L22.2349 6.24919V18.7541L11.4996 25L0.763672 18.7515V6.24919L11.4996 0Z" fill="#F2EDFE"/>
<path d="M20.317 18.3177L11.855 23.2496V19.4143L17.1294 16.4256L20.317 18.3177ZM20.8966 17.7802V7.47442L17.8013 9.31284V15.9418L20.8966 17.7802ZM2.64602 18.3177L11.108 23.245V19.4098L5.8336 16.4249L2.64539 18.3177H2.64602ZM2.06641 17.7802V7.47442L5.16173 9.31284V15.9418L2.06641 17.7802ZM2.42716 6.80727L11.1087 1.75488V5.46512L5.54665 8.6123L5.50212 8.63718L2.42716 6.80727ZM20.5321 6.80727L11.8544 1.75488V5.46512L17.4126 8.61688L17.4571 8.64176L20.5321 6.80858V6.80727Z" fill="#2E027B"/>
<path d="M11.1121 18.5386L5.91016 15.5924V9.76025L11.1121 12.8492V18.5392V18.5386ZM11.8578 18.5386L17.0597 15.5924V9.76025L11.8578 12.8492V18.5386ZM6.25882 9.08394L11.4817 6.12793L16.704 9.08328L11.4817 12.1827L6.25564 9.08132L6.25882 9.08394Z" fill="#2E027B"/>
</svg>
