<svg width="30" height="30" viewBox="0 0 30 30" fill="none" xmlns="http://www.w3.org/2000/svg">
<path fill-rule="evenodd" clip-rule="evenodd" d="M13.9098 0.0146979C13.797 0.0279401 13.4543 0.0659089 13.1481 0.0991315C11.2149 0.308897 9.07414 1.03429 7.34667 2.06501C5.14812 3.37675 3.36119 5.16368 2.04945 7.36224C1.02716 9.07558 0.348179 11.0667 0.0711475 13.1637C-0.0237158 13.8816 -0.0237158 16.0785 0.0711475 16.7965C0.348179 18.8935 1.02716 20.8846 2.04945 22.5979C3.36119 24.7965 5.14812 26.5834 7.34667 27.8951C9.06001 28.9174 11.0511 29.5964 13.1481 29.8734C13.866 29.9683 16.063 29.9683 16.7809 29.8734C20.4294 29.3914 23.5221 27.7889 26.0461 25.0727C27.4424 23.57 28.5348 21.7009 29.2052 19.6676C29.7337 18.0647 29.9315 16.7884 29.9315 14.9801C29.9315 13.6423 29.875 13.0512 29.6349 11.8746C28.8115 7.84036 26.2195 4.23515 22.5823 2.06501C20.8865 1.05315 18.8642 0.359815 16.8395 0.0960261C16.3256 0.029112 14.2731 -0.0278997 13.9098 0.0146979ZM16.0778 1.79982C16.4484 1.83321 16.8423 1.87985 16.9531 1.90341L17.1544 1.94624L16.089 2.72097C15.503 3.14706 14.997 3.49569 14.9645 3.49569C14.932 3.49569 14.4261 3.14712 13.8402 2.72114L12.775 1.94659L13.0055 1.89808C13.6937 1.75323 15.0719 1.70917 16.0778 1.79982ZM12.3022 3.77583L14.0563 5.052V7.44819V9.84439L11.9768 11.3576C10.8331 12.1898 9.87066 12.8703 9.83814 12.8698C9.80556 12.8693 8.78099 12.5448 7.5613 12.1487L5.34359 11.4285L4.70023 9.45093L4.05693 7.47339L4.39607 7.02263C5.78293 5.17962 7.7355 3.66439 9.89615 2.75472C10.2184 2.61901 10.497 2.5061 10.5151 2.50382C10.5333 2.50148 11.3375 3.07388 12.3022 3.77583ZM19.9693 2.73198C22.1264 3.60966 24.1906 5.2105 25.5792 7.08263L25.8712 7.4762L25.2283 9.45234L24.5854 11.4285L22.3677 12.1487C21.148 12.5448 20.1235 12.8693 20.0909 12.8698C20.0584 12.8703 19.096 12.1898 17.9522 11.3576L15.8727 9.84439V7.44819V5.052L17.6268 3.77583C18.5915 3.07388 19.3848 2.4996 19.3896 2.4996C19.3944 2.4996 19.6552 2.60419 19.9693 2.73198ZM3.2515 10.6844C3.44123 11.2585 3.59667 11.7431 3.59691 11.7613C3.59767 11.8206 1.94697 12.9977 1.91205 12.9627C1.86839 12.9191 2.09275 11.849 2.28359 11.1906C2.44109 10.6471 2.8482 9.58247 2.88458 9.61892C2.89666 9.63093 3.06171 10.1105 3.2515 10.6844ZM27.5579 10.9078C27.8199 11.7259 28.0899 12.9879 28.003 12.9879C27.952 12.9879 26.3317 11.8022 26.3317 11.7649C26.3317 11.7447 26.4788 11.2799 26.6586 10.7321C26.8384 10.1842 26.9982 9.69655 27.0138 9.64845C27.0484 9.54157 27.3269 10.1862 27.5579 10.9078ZM16.9567 12.8024C18.0041 13.5674 18.8575 14.2188 18.8531 14.2498C18.8488 14.2809 18.5192 15.3147 18.1207 16.5473L17.3961 18.7883H14.9645H12.5329L11.8083 16.5473C11.4098 15.3147 11.0802 14.2809 11.0759 14.2498C11.0654 14.1749 14.8514 11.4115 14.9645 11.4115C15.0128 11.4115 15.9093 12.0374 16.9567 12.8024ZM7.17447 13.8715L9.31613 14.5681L10.1255 17.05L10.9349 19.5319L9.54371 21.4455L8.15246 23.359H6.43496H4.71746L4.45841 23.0221C3.64894 21.9692 2.88505 20.5513 2.44624 19.2867C2.09351 18.2702 1.80359 16.7797 1.76908 15.805L1.75162 15.3114L3.27119 14.2077C4.43972 13.359 4.81871 13.1122 4.91181 13.1395C4.97837 13.159 5.99662 13.4884 7.17447 13.8715ZM26.6612 14.209L28.1774 15.313L28.1599 15.8057C28.1254 16.7799 27.8354 18.2707 27.4828 19.2867C27.044 20.5513 26.2801 21.9692 25.4706 23.0221L25.2116 23.359H23.4934H21.7752L20.3871 21.4454L18.9989 19.5317L19.8046 17.0507L20.6104 14.5695L22.6947 13.8925C23.8411 13.5201 24.8449 13.1927 24.9254 13.1649C25.006 13.1371 25.0884 13.1122 25.1085 13.1097C25.1286 13.1072 25.8273 13.6019 26.6612 14.209ZM18.5094 21.8466C19.0251 22.5595 19.6544 23.4291 19.9078 23.779L20.3687 24.4152L19.8785 25.9365L19.3883 27.4578L18.8317 27.6294C17.5065 28.0379 16.4631 28.1889 14.9645 28.1889C13.4659 28.1889 12.4225 28.0379 11.0973 27.6294L10.5407 27.4578L10.0505 25.9365L9.56035 24.4152L10.0212 23.779C10.2747 23.4291 10.904 22.5595 11.4196 21.8466L12.3571 20.5503H14.9645H17.5719L18.5094 21.8466ZM8.15269 25.7539C8.26027 26.0883 8.33492 26.3753 8.31851 26.3917C8.28001 26.4302 7.0383 25.5957 6.73208 25.3256L6.49771 25.1188L7.22732 25.1324L7.95699 25.1461L8.15269 25.7539ZM23.1969 25.3268C22.9011 25.5862 21.6494 26.4305 21.6136 26.3947C21.5891 26.3703 21.9145 25.2625 21.9761 25.1607C21.9907 25.1365 22.3241 25.1178 22.717 25.119L23.4313 25.1212L23.1969 25.3268Z" fill="#3AD7D7"/>
</svg>
