<svg width="29" height="30" viewBox="0 0 29 30" fill="none" xmlns="http://www.w3.org/2000/svg">
<path fill-rule="evenodd" clip-rule="evenodd" d="M25.3254 0.0413988C24.695 0.150466 24.0067 0.543016 23.5369 1.06151C22.9514 1.70765 22.7042 2.35813 22.7036 3.25365C22.7033 3.80865 22.7889 4.21052 23.0219 4.74812C23.0491 4.81089 22.3184 5.60285 20.4669 7.51754L17.8737 10.199L17.5909 10.0028C16.2167 9.04976 14.3709 9.04946 13.0023 10.0021L12.7195 10.199L10.699 8.10964L8.67855 6.0203L8.79759 5.75054C8.89096 5.53897 8.91725 5.36057 8.91952 4.92394C8.92196 4.43985 8.90269 4.32375 8.77164 4.03458C8.38261 3.17628 7.63895 2.71411 6.73035 2.76592C5.08433 2.85987 4.19454 4.78335 5.15515 6.17092C5.7162 6.98128 6.7771 7.29829 7.64127 6.91377L7.94072 6.7805L9.95628 8.86538L11.9718 10.9502L11.7801 11.2592C11.3027 12.0287 11.1038 12.7313 11.1038 13.6474C11.1038 14.553 11.3329 15.3523 11.7893 16.0385L11.9684 16.3076L8.6233 19.7677L5.27822 23.2277L5.06053 23.0504C3.84144 22.0571 2.05377 22.1862 0.938077 23.348C-0.310593 24.6485 -0.312972 26.6403 0.932637 27.9275C1.57493 28.5912 2.271 28.8942 3.15348 28.8942C4.02428 28.8942 4.77196 28.5791 5.37862 27.9565C6.0178 27.3005 6.31254 26.5555 6.30603 25.6122C6.30246 25.0927 6.20818 24.6626 5.98488 24.147C5.95763 24.0841 6.90685 23.0663 9.31795 20.5728L12.6892 17.0864L12.8455 17.1899C13.3506 17.5241 13.9531 17.7914 14.4467 17.9001L14.7583 17.9688L14.773 20.7297L14.7877 23.4906L14.4048 23.6118C12.8487 24.1043 11.8751 25.7609 12.2017 27.3603C12.7228 29.9123 15.6984 30.8764 17.4859 29.0726C18.287 28.2642 18.6177 27.0878 18.3597 25.9638C18.1117 24.8832 17.2474 23.9469 16.1884 23.6118L15.8054 23.4906L15.8201 20.7353L15.8349 17.9799L16.2598 17.869C16.6577 17.7651 17.3927 17.4304 17.7477 17.1916L17.9041 17.0863L19.9144 19.1661L21.9246 21.246L21.777 21.6233C21.6489 21.9508 21.6326 22.0638 21.6537 22.4794C21.6963 23.3193 22.1287 23.9771 22.8763 24.3391C23.2099 24.5007 23.3172 24.5236 23.7389 24.5236C24.158 24.5236 24.2683 24.5004 24.5888 24.3444C25.0557 24.1173 25.4082 23.7534 25.6316 23.2679C25.7875 22.9293 25.807 22.8282 25.807 22.3583C25.807 21.8819 25.7891 21.792 25.6259 21.4499C25.3116 20.791 24.7316 20.3383 24.0647 20.2316C23.6824 20.1705 23.1784 20.2372 22.8794 20.3887L22.6714 20.4941L20.6482 18.4007L18.625 16.3074L18.8045 16.0376C19.241 15.3812 19.4877 14.5109 19.4877 13.6271C19.4877 12.7426 19.2746 12.0032 18.7983 11.2355L18.6214 10.9503L21.1626 8.32133L23.7039 5.69228L23.9622 5.8868C24.5685 6.3434 25.139 6.53212 25.892 6.52503C26.7468 6.517 27.3784 6.25145 28.0016 5.63801C29.0321 4.62364 29.2858 3.16908 28.665 1.83547C28.075 0.568099 26.6637 -0.19004 25.3254 0.0413988ZM26.7135 1.30877C27.9429 1.89883 28.3211 3.52201 27.484 4.61637C26.4169 6.01151 24.2718 5.54928 23.8188 3.82659C23.5405 2.7682 24.0684 1.69406 25.0834 1.25351C25.5479 1.0519 26.2262 1.07493 26.7135 1.30877ZM7.1659 3.87582C7.47974 3.96549 7.79182 4.31642 7.86247 4.6591C8.01642 5.40581 7.49554 6.02898 6.76945 5.96668C6.28376 5.92501 5.94052 5.61586 5.83315 5.12338C5.72872 4.64439 6.04012 4.05978 6.48598 3.89785C6.76463 3.79664 6.8762 3.79306 7.1659 3.87582ZM16.0273 10.4645C16.8861 10.6739 17.6984 11.3347 18.0938 12.1457C18.5733 13.129 18.578 14.1422 18.1078 15.1081C17.5672 16.2184 16.5088 16.8889 15.2966 16.8889C12.4724 16.8889 11.0761 13.3646 13.0883 11.3153C13.854 10.5355 14.9808 10.2094 16.0273 10.4645ZM24.1704 21.3874C24.4113 21.5005 24.6576 21.7842 24.7308 22.0328C24.7969 22.2569 24.7709 22.6634 24.6788 22.8477C24.1738 23.8579 22.6842 23.4894 22.6991 22.358C22.7096 21.5603 23.4703 21.0585 24.1704 21.3874ZM3.95244 23.6325C4.37925 23.7953 4.86755 24.2801 5.07368 24.7459C5.21476 25.0646 5.23669 25.1849 5.23669 25.6415C5.23669 26.097 5.21465 26.2187 5.07521 26.5336C4.88619 26.9606 4.43444 27.4348 4.04853 27.6114C2.98588 28.0976 1.77489 27.6422 1.26296 26.5639C1.12018 26.2631 1.1033 26.1657 1.1033 25.6415C1.1033 25.1173 1.12018 25.0199 1.26296 24.7191C1.75704 23.6785 2.88157 23.2241 3.95244 23.6325ZM15.867 24.6518C16.3018 24.7853 16.7357 25.1033 16.9957 25.4788C17.765 26.5899 17.3669 28.122 16.1564 28.709C15.8789 28.8435 15.761 28.8649 15.2966 28.8649C14.8321 28.8649 14.7142 28.8435 14.4368 28.709C12.9878 28.0064 12.7663 26.0096 14.0265 25.0104C14.543 24.6008 15.2517 24.4628 15.867 24.6518Z" fill="#0693E3"/>
</svg>
