<svg width="33" height="30" viewBox="0 0 33 30" fill="none" xmlns="http://www.w3.org/2000/svg">
<path fill-rule="evenodd" clip-rule="evenodd" d="M13.973 0.0930151C12.7156 0.376482 11.6747 1.10734 10.9743 2.19839C10.7013 2.62375 10.3236 3.5299 10.3236 3.75951C10.3236 3.97332 10.4921 4.24581 10.6767 4.33047C11.0968 4.52324 11.4242 4.3521 11.614 3.84052C12.1809 2.31326 13.2472 1.43356 14.6788 1.3118C16.2242 1.18036 17.7096 2.29767 18.3887 4.10216C18.6184 4.71295 18.8117 4.92787 19.1309 4.92787C19.452 4.92787 19.6556 4.70918 19.8972 4.10437C20.2095 3.32238 20.4928 2.88032 21.0343 2.32989C21.7397 1.61261 22.4443 1.28952 23.3029 1.28952C24.0854 1.28952 24.9773 1.62165 25.5587 2.12939C25.9708 2.48939 26.4242 3.18107 26.6274 3.7599C26.8521 4.3996 26.9072 5.51034 26.7482 6.1948C26.3718 7.81478 25.0425 9.36531 21.1398 12.736L19.2129 14.4003L17.4943 12.9347C14.733 10.58 13.6323 9.54755 12.6097 8.35313C12.3789 8.0835 12.3166 8.04666 12.0935 8.0479C11.7142 8.05004 11.4205 8.34312 11.4205 8.71943C11.4205 9.20048 13.0537 10.8594 15.937 13.307C16.629 13.8945 17.5803 14.7049 18.0511 15.108C18.9101 15.8437 19.0994 15.9544 19.378 15.884C19.541 15.8428 23.2159 12.6832 24.5048 11.476C26.7409 9.38168 27.7765 7.84441 28.0681 6.1861C28.183 5.53314 28.1187 4.25692 27.9393 3.62846C27.5622 2.30741 26.5876 1.07401 25.4863 0.524096C24.8229 0.192875 24.3427 0.0613744 23.6113 0.0106973C21.9729 -0.102742 20.4732 0.689641 19.4374 2.21613C19.176 2.6014 19.1228 2.64968 19.067 2.55242C19.0311 2.48998 18.8335 2.2106 18.6278 1.93162C17.999 1.07869 17.2299 0.511426 16.2919 0.208793C15.6284 -0.00528554 14.6303 -0.055118 13.973 0.0930151ZM10.4784 5.92842C10.2371 6.17148 10.2012 6.38088 10.351 6.67266C10.6539 7.2624 11.5495 6.99998 11.5495 6.3215C11.5495 6.06895 11.1697 5.70752 10.9043 5.70752C10.7555 5.70752 10.6365 5.76924 10.4784 5.92842ZM0.222539 14.6314L6.67854e-05 14.8554V20.8749C6.67854e-05 27.4129 -0.0136764 27.1618 0.353132 27.3301C0.565216 27.4274 4.69269 27.439 5.03505 27.3432C5.52393 27.2065 5.95978 26.8337 6.29626 26.2645C6.36362 26.1505 6.38453 26.1505 6.90915 26.264C7.80917 26.4587 8.17276 26.6357 10.2628 27.8962C11.3659 28.5615 12.5059 29.2085 12.7961 29.3339C14.6135 30.1192 16.6858 30.2138 18.583 29.5982C18.8488 29.5119 21.0262 28.5712 23.4216 27.5075C25.817 26.4438 28.4737 25.2669 29.3253 24.8922C31.8027 23.8021 32.0024 23.6969 32.3758 23.2855C32.8348 22.7799 32.998 22.3371 32.9999 21.5929C33.0013 21.0713 32.9797 20.9617 32.7998 20.5778C32.6889 20.3411 32.4938 20.0312 32.3663 19.8891C31.8755 19.3421 30.9074 19.0126 30.1857 19.147C29.9921 19.183 28.4322 19.6969 26.7194 20.289C25.0064 20.881 23.6 21.3653 23.5939 21.365C23.5878 21.3648 23.5813 21.1226 23.5793 20.8269C23.5764 20.3665 23.5475 20.2286 23.3787 19.8689C23.008 19.0791 22.3644 18.5526 21.5634 18.3839C21.3507 18.3391 20.3626 18.3117 18.9503 18.3114L16.679 18.311L15.066 17.3951C14.1788 16.8914 13.2352 16.3679 12.969 16.2318C12.0523 15.7631 12.0211 15.7591 9.02303 15.7302L6.33523 15.7042L6.25535 15.5099C6.13599 15.2198 5.65007 14.7483 5.30507 14.5877C5.01317 14.452 4.90574 14.4453 2.72277 14.4267L0.445011 14.4074L0.222539 14.6314ZM4.94246 15.9339L5.16183 16.1548V20.8686C5.16183 24.3849 5.14222 25.6257 5.08473 25.7528C4.93439 26.0851 4.79644 26.1083 2.97131 26.1083H1.29051V20.9107V15.713H3.00679H4.72308L4.94246 15.9339ZM2.80032 17.2333C2.55895 17.4764 2.52307 17.6858 2.67289 17.9776C2.97576 18.5673 3.87139 18.3049 3.87139 17.6264C3.87139 17.3739 3.49161 17.0124 3.22617 17.0124C3.07738 17.0124 2.9584 17.0741 2.80032 17.2333ZM11.9396 17.1856C12.1364 17.2602 13.1368 17.7973 14.1628 18.3791C15.1887 18.961 16.1574 19.4763 16.3154 19.5242C16.5327 19.59 17.1715 19.6112 18.9349 19.6112H21.267L21.5899 19.7732C21.7674 19.8624 21.9718 20.0158 22.044 20.1143C22.5041 20.742 22.3461 21.6189 21.6999 22.0234L21.4537 22.1776L17.8257 22.2101L14.1978 22.2426L14.0204 22.4212C13.7564 22.6871 13.7699 23.0672 14.0523 23.3212L14.2615 23.5095L17.8576 23.5081L21.4537 23.5068L21.9053 23.3421C22.1537 23.2516 23.7071 22.7089 25.3572 22.136C27.0074 21.5632 28.7785 20.9482 29.2931 20.7694C30.3305 20.4088 30.7238 20.3626 31.1247 20.5542C31.6607 20.8103 31.8942 21.583 31.6043 22.1413C31.522 22.3 31.3816 22.4833 31.2924 22.5486C31.2033 22.6138 28.2562 23.9418 24.7434 25.4997C20.3054 27.4679 18.1695 28.3827 17.7436 28.498C17.2123 28.6418 16.9932 28.6645 16.0983 28.6684C15.011 28.673 14.6686 28.623 13.8078 28.3336C13.1435 28.1103 12.9518 28.0071 10.8465 26.7394C9.83142 26.1281 8.87024 25.5642 8.71055 25.4862C8.29967 25.2855 7.46914 25.0323 6.92006 24.9404L6.45227 24.8621V20.9332V17.0043L9.01703 17.0272C11.4282 17.0488 11.6032 17.0583 11.9396 17.1856Z" fill="#B11919"/>
</svg>
