<svg width="30" height="30" viewBox="0 0 30 30" fill="none" xmlns="http://www.w3.org/2000/svg">
<path fill-rule="evenodd" clip-rule="evenodd" d="M14.3849 0.0587917C14.2237 0.101894 14.026 0.164348 13.9454 0.197657C13.8649 0.230907 10.7535 2.06723 7.0313 4.27828C1.9782 7.27994 0.230275 8.346 0.131837 8.4861C0.00333987 8.669 0 8.71216 0 10.1927C0 11.3971 0.0174025 11.7453 0.0840241 11.8742C0.249201 12.1939 0.282424 12.2021 1.54689 12.2336L2.72463 12.2629L2.73957 18.3924L2.75445 24.5219L2.32314 24.5906C1.22573 24.7654 0.372718 25.5453 0.0897077 26.6327C0.0222072 26.8921 0.000527348 27.29 0.0020508 28.2406C0.00433597 29.6084 0.0195119 29.6857 0.326194 29.8881C0.494945 29.9994 0.762018 30.0014 15.0001 29.9997C26.6828 29.9984 29.5285 29.9834 29.6375 29.9228C29.712 29.8815 29.8239 29.7703 29.8862 29.6757C29.9893 29.5191 29.9995 29.3904 29.9998 28.2406C30.0003 26.8367 29.9528 26.5358 29.6374 25.9435C29.4131 25.5223 28.8872 25.023 28.4495 24.8159C28.2706 24.7311 27.9265 24.6303 27.6849 24.5918L27.2458 24.5219L27.2607 18.3924L27.2756 12.2629L28.4533 12.2336C29.7178 12.2021 29.751 12.1939 29.9162 11.8742C29.9828 11.7453 30.0002 11.3982 30 10.1987C29.9998 8.82915 29.9895 8.66883 29.8912 8.5075C29.8075 8.37016 28.2194 7.40051 22.9627 4.27705C19.2117 2.04823 16.0109 0.178832 15.8497 0.12277C15.4684 -0.00993701 14.758 -0.0409588 14.3849 0.0587917ZM15.473 1.43583C15.5513 1.46673 18.5421 3.23269 22.1193 5.36017L28.6233 9.22827L28.6395 10.0565L28.6558 10.8848H15.0001H1.34444L1.36073 10.0575L1.37696 9.23021L6.79693 6.00899C9.77791 4.23729 12.6898 2.50505 13.2678 2.15953C13.8458 1.81407 14.4391 1.48485 14.5862 1.42809C14.8588 1.32277 15.1941 1.32576 15.473 1.43583ZM14.2384 4.1929C13.5649 4.41081 13.0547 4.78383 12.7233 5.30071C11.6547 6.96744 12.6238 9.15204 14.5808 9.48794C15.6833 9.67718 16.8547 9.09586 17.3824 8.09753C17.6288 7.6315 17.7049 7.32088 17.7038 6.78571C17.7011 5.53481 16.8907 4.48728 15.6739 4.16199C15.2702 4.05409 14.6245 4.06793 14.2384 4.1929ZM15.6315 5.60031C16.2861 5.93451 16.5336 6.73545 16.1934 7.41875C15.6947 8.42024 14.2919 8.40922 13.7985 7.39992C13.5056 6.80072 13.6663 6.09554 14.1832 5.71208C14.5863 5.41307 15.1757 5.36756 15.6315 5.60031ZM6.79693 18.391V24.5485H5.44926H4.10159V18.391V12.2336H5.44926H6.79693V18.391ZM12.2462 18.391V24.5485H10.2247H8.20319V18.391V12.2336H10.2247H12.2462V18.391ZM16.3478 18.391V24.5485H15.0001H13.6524V18.391V12.2336H15.0001H16.3478V18.391ZM21.797 18.391V24.5485H19.7755H17.754V18.391V12.2336H19.7755H21.797V18.391ZM25.8986 18.391V24.5485H24.551H23.2033V18.391V12.2336H24.551H25.8986V18.391ZM27.6271 25.962C27.9419 26.0413 28.3201 26.3554 28.4923 26.6805C28.6043 26.892 28.6237 27.0355 28.6421 27.7884L28.6633 28.6534H15.0001H1.33694L1.35792 27.7884C1.37485 27.0888 1.39958 26.8842 1.48712 26.7182C1.68992 26.3339 1.99959 26.0745 2.40201 25.952C2.64852 25.877 27.3285 25.8867 27.6271 25.962Z" fill="#FF6900"/>
</svg>
