<svg width="30" height="30" viewBox="0 0 30 30" fill="none" xmlns="http://www.w3.org/2000/svg">
<path fill-rule="evenodd" clip-rule="evenodd" d="M1.11186 0.0369935C0.697936 0.163388 0.328196 0.475655 0.111944 0.881427C0.00390784 1.0841 0 1.47889 0 12.1045V23.1176L0.12998 23.3576C0.283226 23.6406 0.577996 23.9301 0.871744 24.0861C1.07188 24.1924 1.35186 24.1986 6.61701 24.2141L12.1518 24.2303L11.9553 25.7745C11.8471 26.6239 11.7575 27.3597 11.7561 27.4097C11.7545 27.4643 11.6274 27.5449 11.4379 27.6115C10.4735 27.9504 8.81585 28.8617 8.69934 29.117C8.55854 29.4255 8.65966 29.761 8.93657 29.9039C9.18463 30.032 20.8154 30.032 21.0634 29.9039C21.3403 29.761 21.4415 29.4255 21.3007 29.117C21.1841 28.8617 19.5265 27.9504 18.5621 27.6115C18.3726 27.5449 18.2455 27.4643 18.2439 27.4097C18.2425 27.3597 18.1529 26.6239 18.0447 25.7745L17.8482 24.2303L23.383 24.2141L28.9178 24.1979L29.1583 24.0681C29.4418 23.9151 29.7318 23.6209 29.8881 23.3276C29.9961 23.125 30 22.7302 30 12.1045C30 1.47889 29.9961 1.0841 29.8881 0.881427C29.7318 0.588186 29.4418 0.293925 29.1583 0.140942L28.9178 0.0111864L15.0902 0.00110363C7.48497 -0.00447791 1.19471 0.0116666 1.11186 0.0369935ZM28.7074 1.30154C28.8265 1.42044 28.8277 1.50158 28.8277 9.8239V18.2262H15H1.17234V9.8239C1.17234 1.50158 1.17349 1.42044 1.29259 1.30154C1.4121 1.18223 1.49297 1.18151 15 1.18151C28.507 1.18151 28.5879 1.18223 28.7074 1.30154ZM5.56774 2.94576C5.28325 3.10312 5.18844 3.44894 5.34619 3.75352C5.48122 4.01423 5.6688 4.0623 6.55052 4.0623H7.35391L8.75711 8.25842L10.1603 12.4546L9.92856 12.4913C9.46822 12.5643 9.02633 12.8913 8.78874 13.3349C8.6902 13.5188 8.66008 13.6803 8.6599 14.0251C8.65966 14.5237 8.74774 14.7536 9.06986 15.0956C9.38946 15.435 9.6781 15.5527 10.1904 15.5527C10.7027 15.5527 10.9913 15.435 11.3109 15.0956C11.6329 14.7537 11.721 14.5236 11.721 14.0251C11.721 13.5154 11.6322 13.2928 11.2838 12.9298L11.0678 12.7047H13.5361H16.0044L16.0388 13.2598C16.1261 14.6698 16.9046 15.8428 18.1561 16.4504C20.3625 17.5217 22.9683 16.2603 23.5012 13.8632C23.8531 12.28 23.1161 10.6172 21.6935 9.78489C21.2425 9.52105 20.6049 9.33752 20.0123 9.30091L19.4636 9.267L19.9372 7.85139C20.1977 7.0728 20.4108 6.38915 20.4108 6.33213C20.4108 6.27518 20.3785 6.15772 20.339 6.07118C20.1861 5.73611 20.2743 5.74277 15.9678 5.74277C13.0193 5.74277 11.9591 5.76119 11.842 5.81449C11.6697 5.89287 11.513 6.14452 11.513 6.34294C11.513 6.54135 11.6697 6.793 11.842 6.87138C11.9585 6.92438 12.912 6.9431 15.4902 6.9431C18.2574 6.9431 18.9751 6.95864 18.9531 7.01812C18.9379 7.05941 18.8111 7.43752 18.6712 7.85835L18.4169 8.62356H15.6834C12.7184 8.62356 12.6956 8.62597 12.5468 8.95198C12.4523 9.15891 12.4561 9.31334 12.5606 9.51511C12.7171 9.81717 12.7791 9.8239 15.4026 9.8239H17.8437L17.6003 9.99992C17.2255 10.2709 16.7803 10.7615 16.5559 11.1507L16.3527 11.503L13.7274 11.5037L11.1022 11.5044L9.79635 7.58828C8.18477 2.7555 8.29762 3.06117 8.08449 2.95116C7.84948 2.8298 5.78525 2.82536 5.56774 2.94576ZM20.4388 10.5761C20.9393 10.7062 21.3265 10.9338 21.6773 11.304C23.0951 12.8005 22.258 15.2513 20.2093 15.6015C18.5266 15.8893 16.9792 14.3521 17.2664 12.6781C17.528 11.1533 18.9739 10.1952 20.4388 10.5761ZM20.4886 11.5764C20.4157 11.6116 20.1889 11.8933 19.9847 12.2025C19.7805 12.5117 19.6025 12.7647 19.5893 12.7647C19.576 12.7647 19.4316 12.6972 19.2685 12.6147C19.1054 12.5321 18.9007 12.4646 18.8136 12.4646C18.6042 12.4646 18.2465 12.8187 18.2465 13.026C18.2465 13.3624 18.3687 13.4848 19.0392 13.8206C19.3958 13.9991 19.7407 14.1451 19.8058 14.1451C20.0831 14.1451 20.2423 13.9842 20.7999 13.1405C21.4579 12.1448 21.4881 12.0276 21.1683 11.7084C20.9529 11.4934 20.7447 11.4529 20.4886 11.5764ZM10.4309 13.785C10.497 13.851 10.5511 13.959 10.5511 14.0251C10.5511 14.0911 10.497 14.1991 10.4309 14.2651C10.3647 14.3311 10.2565 14.3852 10.1904 14.3852C10.1242 14.3852 10.016 14.3311 9.9499 14.2651C9.88377 14.1991 9.82966 14.0911 9.82966 14.0251C9.82966 13.959 9.88377 13.851 9.9499 13.785C10.016 13.719 10.1242 13.665 10.1904 13.665C10.2565 13.665 10.3647 13.719 10.4309 13.785ZM28.8277 21.107C28.8277 22.7075 28.8219 22.7932 28.7074 22.9075C28.5879 23.0268 28.507 23.0275 15 23.0275C1.49297 23.0275 1.4121 23.0268 1.29259 22.9075C1.17806 22.7932 1.17234 22.7075 1.17234 21.107V19.4265H15H28.8277V21.107ZM13.7441 20.7107C13.4596 20.868 13.3648 21.2138 13.5225 21.5184C13.6646 21.7927 13.8299 21.8272 15 21.8272C16.1701 21.8272 16.3354 21.7927 16.4775 21.5184C16.6384 21.2077 16.5268 20.8317 16.2341 20.6986C16.0043 20.5941 13.9367 20.6041 13.7441 20.7107ZM16.6509 24.4229C16.7247 24.8576 16.9869 27.0657 16.9671 27.0855C16.9554 27.0972 16.7447 27.0617 16.4989 27.0068C15.8755 26.8672 14.1245 26.8672 13.5011 27.0068C13.2553 27.0617 13.0446 27.0972 13.0329 27.0855C13.0131 27.0657 13.2753 24.8576 13.3491 24.4229L13.3822 24.2279H15H16.6178L16.6509 24.4229ZM16.5331 28.2478C16.8307 28.3149 17.3312 28.4574 17.6453 28.5644L18.2164 28.7591L16.6082 28.7751C15.7237 28.7839 14.2763 28.7839 13.3918 28.7751L11.7836 28.7591L12.4677 28.5312C13.8886 28.0578 15.2649 27.9619 16.5331 28.2478Z" fill="#FCB900"/>
</svg>
