<svg width="18" height="18" viewBox="0 0 18 18" fill="none" xmlns="http://www.w3.org/2000/svg">
<path d="M1.60577 4.73094L9 0.46188L16.3942 4.73094V13.2691L9 17.5381L1.60577 13.2691V4.73094Z" stroke="#410EAD" stroke-width="0.8"/>
<path fill-rule="evenodd" clip-rule="evenodd" d="M4.40509 5.02395C4.23844 5.07381 4.11945 5.17104 4.04602 5.31727L4 5.40893V8.20871V11.0085L4.04614 11.1016C4.10233 11.215 4.19106 11.3017 4.3132 11.3626L4.40509 11.4084L5.92487 11.4131L7.44467 11.4177L7.4349 11.4714C7.42953 11.5009 7.40211 11.7139 7.374 11.9447C7.31892 12.3964 7.30422 12.4471 7.19963 12.5461C7.10577 12.6349 7.03855 12.6543 6.7853 12.6657C6.56539 12.6755 6.55762 12.6772 6.51671 12.7222C6.4715 12.7719 6.46058 12.8608 6.4927 12.9176C6.54092 13.0029 6.4709 13 8.5 13C10.5291 13 10.4591 13.0029 10.5073 12.9176C10.5394 12.8608 10.5285 12.7719 10.4833 12.7222C10.4424 12.6772 10.4346 12.6755 10.2147 12.6657C9.96145 12.6543 9.89423 12.6349 9.80037 12.5461C9.69601 12.4474 9.6808 12.3954 9.62648 11.9528C9.59876 11.7267 9.57165 11.5139 9.56628 11.4797L9.55649 11.4177L11.0757 11.4131L12.5949 11.4084L12.6868 11.3626C12.8089 11.3017 12.8977 11.215 12.9539 11.1016L13 11.0085V8.20871V5.40893L12.954 5.31727C12.8955 5.20068 12.7974 5.10789 12.6742 5.05251L12.5773 5.00897L10.8475 5.00448L9.11774 5L9.06025 5.04861C9.01259 5.08889 9.00275 5.10921 9.00275 5.16729C9.00275 5.22528 9.01261 5.24568 9.05988 5.28564L9.117 5.33394L10.8031 5.33401C12.4444 5.33406 12.4907 5.33492 12.5456 5.3666C12.6645 5.43516 12.6566 5.26669 12.6566 7.72458V9.95023H8.5H4.34344L4.34351 7.72125C4.34357 5.54354 4.34436 5.49104 4.37779 5.43916C4.39662 5.40995 4.43027 5.3762 4.45257 5.36417C4.48494 5.34671 4.81828 5.34059 6.10183 5.33394L7.7105 5.32561L7.753 5.27884C7.79856 5.22871 7.80961 5.14004 7.77736 5.08304C7.72949 4.99838 7.77505 5.00055 6.06595 5.00175C4.83512 5.00262 4.45962 5.00763 4.40509 5.02395ZM8.32581 5.0239C8.23965 5.06908 8.20888 5.19323 8.26702 5.26116C8.33987 5.34626 8.43843 5.35574 8.52133 5.28564C8.67239 5.15794 8.50289 4.93102 8.32581 5.0239ZM10.2228 6.15067C9.7364 6.22385 9.30748 6.48116 9.05041 6.85398C8.61552 7.48463 8.69559 8.29162 9.24661 8.83131C9.56075 9.139 9.92617 9.29534 10.3717 9.31265C10.7079 9.32573 10.9337 9.28305 11.2035 9.15545C11.7759 8.88479 12.1309 8.34548 12.1339 7.74208C12.1362 7.29651 11.973 6.91795 11.6451 6.60764C11.4281 6.4023 11.1447 6.2497 10.8582 6.18387C10.689 6.14501 10.3709 6.12838 10.2228 6.15067ZM5.24723 6.32493C5.13146 6.37256 5.13601 6.31578 5.13601 7.71625V8.98365H5.05587C4.8851 8.98365 4.7944 9.09444 4.85764 9.22576C4.90326 9.32052 4.83459 9.31695 6.61432 9.31695H8.25286L8.30998 9.26866C8.35725 9.22869 8.36711 9.20829 8.36711 9.1503C8.36711 9.0923 8.35725 9.07191 8.30998 9.03194C8.26316 8.99234 8.23704 8.98365 8.16508 8.98365H8.0773V8.32408V7.66452L8.02582 7.61581L7.97434 7.56709H7.46967H6.965L6.91352 7.61581L6.86204 7.66452V8.32408V8.98365H6.61546H6.36888V7.72488C6.36888 6.32499 6.37262 6.37119 6.2556 6.32493C6.16867 6.29056 5.33075 6.29055 5.24723 6.32493ZM10.2789 7.13729V7.79072L10.7746 8.26085L11.2703 8.73097L11.1705 8.79139C10.9504 8.92462 10.7305 8.98376 10.4566 8.9834C10.168 8.98301 9.94773 8.92077 9.7119 8.77295C9.57443 8.68679 9.39736 8.51118 9.31153 8.37591C9.08417 8.01759 9.06459 7.54589 9.26165 7.17546C9.43928 6.8416 9.74478 6.60674 10.1292 6.50855C10.2949 6.4662 10.2789 6.39875 10.2789 7.13729ZM10.8724 6.53498C11.2156 6.64673 11.5201 6.90953 11.6709 7.22419C11.8069 7.50798 11.8218 7.82759 11.7135 8.13583C11.6739 8.24845 11.5745 8.42992 11.5278 8.47487C11.517 8.48525 11.3532 8.34183 11.0711 8.07504L10.6311 7.659V7.06997V6.48091L10.705 6.49273C10.7456 6.49923 10.8209 6.51823 10.8724 6.53498ZM6.01235 7.81291L6.01688 8.98365H5.75257H5.48826V7.81986C5.48826 7.17976 5.49375 6.65087 5.50046 6.6445C5.50717 6.63815 5.62409 6.63503 5.76025 6.63757L6.00783 6.64217L6.01235 7.81291ZM7.72505 8.44202V8.98365H7.46967H7.21429V8.44202V7.9004H7.46967H7.72505V8.44202ZM12.6532 10.6249L12.6477 10.9663L12.5902 11.0207L12.5326 11.0751L8.52004 11.0794L4.5075 11.0837L4.44775 11.0456C4.35 10.9833 4.34399 10.9578 4.34371 10.6043L4.34344 10.2835H8.501H12.6586L12.6532 10.6249ZM9.21144 11.4793C9.21697 11.5137 9.24596 11.7405 9.2759 11.9834C9.3292 12.416 9.33756 12.4525 9.42755 12.6459C9.43523 12.6624 9.24321 12.6667 8.5 12.6667C7.75679 12.6667 7.56477 12.6624 7.57245 12.6459C7.66319 12.4509 7.67093 12.4171 7.72394 11.9834C7.75363 11.7405 7.78259 11.5137 7.78826 11.4793L7.7986 11.4168H8.5H9.2014L9.21144 11.4793Z" fill="#410EAD"/>
</svg>
