<svg width="30" height="30" viewBox="0 0 30 30" fill="none" xmlns="http://www.w3.org/2000/svg">
<path fill-rule="evenodd" clip-rule="evenodd" d="M13.4276 0.060702C10.5972 0.389634 8.12243 1.38277 5.85709 3.09879C5.20566 3.59225 3.89995 4.86529 3.3728 5.52094C-0.767285 10.6699 -1.1282 17.749 2.4687 23.2535C4.51291 26.382 7.79294 28.706 11.3996 29.5814C12.8144 29.9249 13.4505 29.9992 14.9803 30C16.5598 30.0008 17.3514 29.9072 18.7285 29.5568C24.6054 28.0615 28.9815 23.1844 29.8832 17.1249C30.0375 16.0876 30.0393 13.8606 29.8865 12.8759C29.7435 11.9546 29.4627 10.8175 29.1745 9.99254C28.8851 9.16399 28.1925 7.732 27.7213 6.98756C27.5253 6.67791 27.3732 6.41716 27.3834 6.40815C27.3934 6.39915 27.6892 6.24794 28.0405 6.07218C28.4301 5.87733 28.7563 5.66485 28.8768 5.52753C29.4772 4.84309 29.2156 3.78462 28.3574 3.42582C28.1733 3.34888 27.9432 3.32548 27.4701 3.3355C26.9406 3.34679 26.7663 3.32472 26.4511 3.20649C25.9535 3.01989 25.1237 2.97162 24.6449 3.10145L24.2964 3.19602L23.9795 2.95405C22.1015 1.52009 19.6658 0.511414 17.1667 0.132628C16.239 -0.00792589 14.3337 -0.0446501 13.4276 0.060702ZM17.0652 1.01414C19.1911 1.34751 21.0929 2.08136 22.8546 3.24816C23.1422 3.43863 23.3767 3.61407 23.3759 3.63798C23.3751 3.66196 22.9543 3.93051 22.4408 4.23483L21.5072 4.78804L19.4284 3.99698C18.2851 3.56187 17.268 3.20585 17.1684 3.20585C17.0288 3.20585 16.8182 3.35446 16.2538 3.8511C15.5084 4.50693 15.4157 4.62979 15.4806 4.87538C15.5007 4.95136 16.0291 5.45592 16.6548 5.99664C17.2805 6.53735 17.7931 6.99403 17.7939 7.01147C17.7947 7.02891 16.6254 7.74691 15.1955 8.60704L12.5957 10.1709L12.0451 9.91484C11.0972 9.47389 10.3945 9.5091 9.68322 10.0331C9.28358 10.3276 9.17489 10.5414 9.30652 10.7744C9.43314 10.9986 11.8061 13.0548 12.1374 13.2273C12.3954 13.3616 12.5279 13.3859 13.0044 13.3859H13.567L16.6084 11.843C18.2812 10.9943 19.6587 10.3093 19.6696 10.3207C19.6805 10.3321 19.8944 11.0835 20.1449 11.9905C20.4194 12.9843 20.646 13.6868 20.7153 13.7585C20.7784 13.8239 20.9025 13.8774 20.991 13.8774C21.1869 13.8774 22.836 13.1867 22.9403 13.061C22.9852 13.0068 23.0921 12.0644 23.2092 10.6892L23.4035 8.40743L24.9751 7.61105L26.5466 6.81472L26.9293 7.40465C27.8758 8.8636 28.7435 11.1038 28.9249 12.5568C28.9743 12.9528 29.0039 12.9321 28.289 13.0036C27.1636 13.1163 25.9411 13.4884 24.4312 14.178C23.0441 14.8116 22.5481 14.9643 21.8881 14.9611C21.2934 14.9582 20.8598 14.8514 19.8692 14.4637C18.8363 14.0595 18.4086 13.9719 17.6103 14.0014C17.0962 14.0204 16.874 14.0581 16.6331 14.167C16.162 14.38 15.8185 14.6962 15.588 15.1292C15.2724 15.7216 15.2072 16.2374 15.2023 18.1746C15.1968 20.3713 15.1037 22.3536 14.9825 22.8536C14.8557 23.3768 14.6268 23.8185 14.362 24.0512C14.2386 24.1596 13.8982 24.3269 13.5606 24.4448C11.3068 25.2325 10.088 26.2537 9.72162 27.6615C9.66959 27.8614 9.6168 28.0352 9.60432 28.0477C9.56762 28.0844 8.08979 27.3406 7.61815 27.048C7.02775 26.6817 6.91628 26.5725 6.70315 26.1517C6.50795 25.7662 6.35199 25.6712 6.04189 25.7491C5.9083 25.7827 5.81013 25.7272 5.4648 25.423C4.67313 24.7256 3.65925 23.502 3.02221 22.4751C1.12471 19.4166 0.455405 15.7284 1.16571 12.2442C1.35596 11.3109 1.43993 11.0074 1.50806 11.0074C1.53683 11.0074 1.84477 11.2156 2.19245 11.4701C3.02925 12.0825 3.50234 12.2937 4.04495 12.2968C4.57223 12.2999 4.98411 12.1237 5.39845 11.7179C5.92858 11.1989 6.13924 10.707 6.4904 9.16799C6.62862 8.56251 6.84308 8.07717 7.12427 7.73378C7.41092 7.38366 8.1429 6.89584 8.77601 6.63306C9.5284 6.32081 9.7369 6.20322 10.0531 5.91285C10.5736 5.43499 10.6072 5.29653 10.6089 3.61813C10.6099 2.643 10.6375 2.05085 10.6921 1.83222L10.7738 1.50506L11.2815 1.36799C11.9439 1.18913 12.9278 0.999484 13.5758 0.925782C14.2917 0.844405 16.3084 0.895464 17.0652 1.01414ZM9.73563 2.20688C9.69925 2.40141 9.69013 3.00619 9.7137 3.66126C9.76725 5.1509 9.71155 5.26583 8.73786 5.67411C7.54388 6.17474 6.72115 6.74597 6.28709 7.37567C5.93631 7.88454 5.79549 8.25147 5.53832 9.32719C5.21473 10.6809 4.8898 11.2191 4.29269 11.3905C3.94279 11.4909 3.51717 11.321 2.74127 10.771C2.35868 10.4998 1.97982 10.2344 1.89934 10.1811L1.75313 10.0843L1.92576 9.67369C3.05371 6.99079 4.85083 4.80878 7.26927 3.18581C7.74167 2.8688 9.62593 1.87389 9.75395 1.87389C9.77816 1.87389 9.76992 2.0237 9.73563 2.20688ZM26.3792 4.1133C26.7298 4.27409 26.7866 4.28145 27.3789 4.24263C27.9774 4.20337 28.0142 4.20832 28.1638 4.34893C28.39 4.56173 28.3714 4.81024 28.1147 5.00375C27.9333 5.14044 23.6219 7.3286 23.534 7.3286C23.5151 7.3286 23.5186 7.07674 23.5418 6.76886C23.5839 6.21166 23.5833 6.20849 23.4088 6.07117C23.3125 5.99531 23.1898 5.93321 23.1363 5.93321C23.0305 5.93321 19.4869 7.91416 19.3056 8.07463C19.1623 8.20155 19.1654 8.46312 19.3165 8.99217L19.4384 9.41859L16.4171 10.9496C13.1549 12.6029 12.989 12.6667 12.548 12.4385C12.4363 12.3806 11.9682 12.0023 11.5078 11.5977C10.3346 10.5667 10.3994 10.634 10.5124 10.5622C10.7482 10.4125 11.1825 10.4956 11.8819 10.8242C12.4623 11.0969 12.5983 11.1386 12.7371 11.0868C12.8925 11.029 14.483 10.0747 21.4128 5.88196C22.9988 4.92238 24.4532 4.08457 24.6449 4.02013C25.155 3.84869 25.888 3.88807 26.3792 4.1133ZM18.7978 4.70476C19.5912 5.00591 20.3091 5.27814 20.3932 5.30966C20.5321 5.3618 20.4603 5.41888 19.6035 5.93721C19.0852 6.25079 18.6314 6.49568 18.5952 6.48135C18.5589 6.46695 18.0912 6.07415 17.5558 5.60834L16.5824 4.7614L16.9107 4.45936C17.0912 4.29318 17.2651 4.15726 17.2971 4.15726C17.3291 4.15726 18.0045 4.40367 18.7978 4.70476ZM22.3929 9.83765C22.27 11.2645 22.1482 12.4533 22.122 12.4794C22.072 12.5295 21.3264 12.844 21.3057 12.8238C21.2991 12.8174 21.0342 11.8735 20.7169 10.7263C20.3435 9.37609 20.1618 8.61871 20.2017 8.57881C20.2781 8.50232 22.5794 7.20638 22.6007 7.22782C22.6093 7.23632 22.5157 8.41073 22.3929 9.83765ZM26.6951 9.52058C26.5753 9.64045 26.5413 9.7276 26.565 9.85357C26.6213 10.1531 27.1723 11.5343 27.2569 11.588C27.4353 11.7013 27.7445 11.6461 27.852 11.4819C27.9853 11.2783 27.9536 11.0825 27.6569 10.276C27.3303 9.38795 27.0486 9.16678 26.6951 9.52058ZM9.04383 13.4701C8.5722 13.9421 8.50591 14.1369 8.73786 14.369C8.98502 14.6164 9.22153 14.5411 9.69938 14.0628C10.171 13.5908 10.2373 13.396 10.0054 13.1639C9.75819 12.9165 9.52168 12.9918 9.04383 13.4701ZM29.1175 14.1624C29.1796 14.6594 29.1058 16.2847 28.9843 17.0964C28.07 23.2065 23.2148 28.0653 17.1033 28.986C15.1443 29.2811 12.7723 29.1146 11.0131 28.5583L10.544 28.41L10.5528 28.0803C10.5657 27.5968 10.8121 27.1452 11.3255 26.6641C11.8371 26.1845 12.4301 25.8451 13.4593 25.443C14.5453 25.0186 14.7223 24.9303 15.0131 24.6673C15.3212 24.3887 15.5343 24.0415 15.7118 23.5291C15.9657 22.7962 16.0251 22.0816 16.0623 19.3163C16.0817 17.8686 16.1249 16.489 16.1582 16.2507C16.3033 15.2137 16.8045 14.8333 17.9501 14.8911C18.3883 14.9131 18.6603 14.9683 19.068 15.1176C19.3642 15.2261 19.8459 15.4024 20.1385 15.5095C21.7254 16.0902 22.6183 15.9889 24.8144 14.9788C25.3056 14.7529 25.9496 14.4826 26.2453 14.3781C26.963 14.1246 28.2032 13.8639 28.9657 13.8062C29.0491 13.7999 29.0819 13.8767 29.1175 14.1624ZM7.71436 15.1316C7.57626 15.2124 7.03472 16.062 6.7349 16.6684C6.52538 17.0921 6.50504 17.1721 6.57025 17.3154C6.74016 17.6886 7.18182 17.6688 7.39406 17.2783C7.45344 17.1691 7.69452 16.7554 7.92983 16.3591C8.16514 15.9628 8.35761 15.569 8.35761 15.4841C8.35761 15.3928 8.28936 15.2759 8.19062 15.1982C8.00905 15.0552 7.87679 15.0368 7.71436 15.1316ZM6.00114 18.4944C5.94252 18.5287 5.83624 18.7125 5.76507 18.903C5.59859 19.3483 5.31562 20.4644 5.31562 20.6756C5.31562 21.0287 5.80443 21.2308 6.03682 20.9738C6.09576 20.9086 6.22657 20.5305 6.32759 20.1334C6.42854 19.7363 6.55485 19.2893 6.60827 19.1402C6.67577 18.9518 6.68768 18.8221 6.64731 18.7159C6.55105 18.4625 6.23905 18.3556 6.00114 18.4944ZM5.33596 22.1191C5.07289 22.2463 5.03138 22.4885 5.11041 23.4334C5.19673 24.4655 5.25769 24.6682 5.51392 24.7744C5.68002 24.8433 5.72534 24.8371 5.8742 24.7255C6.06984 24.5786 6.07574 24.4917 5.9841 23.1033C5.93409 22.3456 5.92009 22.2835 5.77299 22.1677C5.59707 22.0292 5.53578 22.0224 5.33596 22.1191Z" fill="#9549D1"/>
</svg>
