<svg width="35" height="30" viewBox="0 0 35 30" fill="none" xmlns="http://www.w3.org/2000/svg">
<path fill-rule="evenodd" clip-rule="evenodd" d="M22.4166 0.0683925C19.4331 0.280286 16.3764 1.02678 15.0462 1.86832C14.524 2.19871 14.485 2.32391 14.4848 3.67518L14.4845 4.85601L14.2964 4.89905C12.0545 5.41186 10.0235 6.14081 7.74902 7.24914C4.87307 8.6505 2.9643 9.94688 1.28707 11.6378C0.230246 12.7033 -0.0497725 13.1294 0.0069149 13.5861C0.0486954 13.923 4.33102 23.0949 4.85906 23.9784C6.09743 26.0507 7.86123 27.6827 10.0056 28.7407C11.2722 29.3657 12.6223 29.7589 14.1426 29.946C15.4319 30.1045 17.8375 29.8963 18.6506 29.5558C19.0077 29.4063 19.5727 28.9613 20.2871 28.2668C21.2781 27.3035 22.0774 26.2242 22.6915 25.0198C22.8507 24.7078 23.0155 24.4663 23.0578 24.4833C23.1 24.5004 23.4867 24.5999 23.917 24.7045L24.6994 24.8948L25.2706 24.7769C26.1357 24.5985 27.2198 24.223 28.0669 23.8086C31.5788 22.0904 34.0307 18.8577 34.8055 14.9241C34.9562 14.159 34.9594 14.0358 34.9796 8.35363L35 2.56287L34.8455 2.29355C34.4131 1.54014 31.6391 0.605734 28.7418 0.237661C26.8893 0.00232997 24.3167 -0.0664739 22.4166 0.0683925ZM26.5089 2.11976C28.9929 2.26395 31.1879 2.68698 32.6224 3.29799L32.9472 3.43635V8.21308C32.9472 13.4054 32.9164 14.0256 32.5964 15.2731C31.7274 18.6608 29.2693 21.3029 25.9144 22.4551C25.3331 22.6547 25.0894 22.7041 24.7074 22.6996C24.1942 22.6935 23.6693 22.5385 23.7012 22.4026C24.0511 20.9083 24.1219 18.7429 23.867 17.3323C23.7888 16.8995 23.7341 16.5361 23.7455 16.5247C23.7568 16.5133 23.9625 16.4719 24.2026 16.4326C25.2425 16.2624 26.3949 16.6034 27.2137 17.3235C27.7883 17.8289 28.108 17.9094 28.6181 17.6773C28.9971 17.5049 29.2164 17.0985 29.1671 16.6601C29.1249 16.2842 28.9876 16.0939 28.428 15.6357C27.1461 14.5861 25.3683 14.1241 23.7213 14.4125C23.367 14.4746 23.0561 14.5013 23.0305 14.4719C22.9497 14.3792 21.2406 10.6744 21.2666 10.6483C21.2803 10.6346 21.51 10.5778 21.7772 10.5219C22.3738 10.3973 22.8802 10.1468 23.2773 9.77994C23.7853 9.31072 23.8452 8.72109 23.4327 8.25036C23.0366 7.7982 22.4765 7.78908 21.9264 8.22575C21.6902 8.41332 21.5715 8.45588 21.2233 8.47808C20.8323 8.50303 20.784 8.48918 20.4967 8.26941C20.3275 8.13996 20.1323 8.00221 20.063 7.96335C19.9936 7.92443 19.6366 7.24852 19.2693 6.46132C18.4125 4.62404 18.4183 4.62959 17.3163 4.5945L16.5359 4.5697V3.99549V3.42134L16.7807 3.31882C19.0674 2.36126 22.7822 1.90341 26.5089 2.11976ZM18.9002 10.5466C21.1405 15.3265 21.3407 15.7771 21.5563 16.5268C22.0948 18.3996 22.0984 20.4374 21.5662 22.2776C21.0046 24.2202 19.8253 26.0133 18.2397 27.3357C17.8829 27.6333 17.791 27.6735 17.209 27.7866C16.2503 27.973 14.5545 27.9606 13.5458 27.7597C11.2405 27.3009 9.33244 26.2097 7.74362 24.4418C7.24458 23.8864 6.67722 23.0583 6.3464 22.4022C6.01229 21.7395 2.24439 13.6841 2.24439 13.6324C2.24439 13.5372 3.67498 12.1938 4.19337 11.802C6.64153 9.95236 10.0616 8.24542 13.1537 7.33C14.5391 6.91985 16.0674 6.64059 16.7936 6.66485L17.0853 6.67465L18.9002 10.5466ZM26.9308 7.94341C26.6258 8.01619 26.268 8.40578 26.207 8.73164C26.1332 9.12582 26.2741 9.47142 26.6405 9.79529C27.5028 10.5574 28.6797 10.7847 29.7871 10.4028C30.288 10.23 30.9863 9.72046 31.1258 9.42578C31.3541 8.94374 31.2063 8.33204 30.8031 8.08938C30.3341 7.80724 29.9446 7.85021 29.4347 8.24042C29.1537 8.45526 29.0564 8.49069 28.7473 8.49069C28.443 8.49069 28.3244 8.44916 27.9832 8.22288C27.5344 7.92532 27.2848 7.85898 26.9308 7.94341ZM16.0572 12.3279C15.0138 12.5232 14.1934 13.1262 13.7362 14.0339C13.4768 14.5487 13.4597 14.948 13.6824 15.2821C14.1275 15.95 15.1419 15.8789 15.4761 15.1566C15.7753 14.5096 16.0719 14.3572 16.9091 14.42C17.6193 14.4734 17.8526 14.4019 18.0987 14.0556C18.5386 13.4365 18.2328 12.6494 17.4689 12.4346C16.993 12.3009 16.4294 12.2582 16.0572 12.3279ZM9.03122 15.5805C8.12019 15.7877 7.32568 16.4092 6.91991 17.2321C6.71264 17.6523 6.67654 17.7885 6.70505 18.0418C6.77118 18.6301 7.2495 19.0229 7.82082 18.9584C8.20361 18.9152 8.48657 18.7051 8.65998 18.3353C8.91935 17.7824 9.43836 17.4907 9.95094 17.6099C10.6321 17.7684 11.0933 17.609 11.3491 17.1265C11.6568 16.5463 11.3542 15.8992 10.6605 15.6539C10.2226 15.4991 9.52691 15.4677 9.03122 15.5805ZM17.4672 18.4277C17.1546 18.5249 16.9544 18.7621 16.6576 19.3869C15.8953 20.9913 13.9629 21.93 12.3625 21.4732C11.6788 21.278 11.3349 21.2728 11.0718 21.4538C10.6912 21.7155 10.5519 21.9558 10.5577 22.3405C10.5705 23.2088 11.4158 23.6034 13.2536 23.5992C14.4385 23.5965 14.8284 23.5076 15.8179 23.0147C17.052 22.3999 17.8433 21.6114 18.4611 20.3806C18.7673 19.7707 18.802 19.6571 18.7771 19.3478C18.7344 18.8192 18.4238 18.4833 17.9035 18.4032C17.7719 18.383 17.5756 18.3941 17.4672 18.4277Z" fill="#E8146D"/>
</svg>
