<svg width="30" height="30" viewBox="0 0 30 30" fill="none" xmlns="http://www.w3.org/2000/svg">
<path fill-rule="evenodd" clip-rule="evenodd" d="M14.4453 0.0710223C14.3161 0.111921 14.101 0.201568 13.9672 0.27024C13.8037 0.354146 11.5424 2.61386 7.07032 7.16235C-0.463695 14.8249 0.00576485 14.2896 0.00576485 15.2185C0.00576485 15.6704 0.0259567 15.7646 0.197118 16.1116C0.419756 16.5632 0.738012 16.873 1.20201 17.0903C1.47736 17.2191 1.61442 17.2446 2.03082 17.2446C2.64772 17.2446 3.04481 17.0801 3.52777 16.6241L3.85043 16.3195V21.3891V26.4588L3.33207 26.4835C2.49851 26.5233 1.9639 26.8556 1.65668 27.5248C1.55519 27.7459 1.5306 27.9347 1.51281 28.6301C1.48892 29.5653 1.53436 29.7657 1.80137 29.9036C2.05042 30.0321 27.9553 30.0321 28.2044 29.9036C28.4714 29.7657 28.5168 29.5653 28.493 28.6301C28.4752 27.9347 28.4506 27.7459 28.3491 27.5248C28.0419 26.8556 27.5072 26.5233 26.6737 26.4835L26.1553 26.4588V21.3891V16.3195L26.478 16.6241C26.9613 17.0803 27.3579 17.2446 27.9762 17.2446C28.4222 17.2446 28.5184 17.224 28.865 17.0536C29.3174 16.8314 29.6277 16.5137 29.8453 16.0505C29.9744 15.7756 30 15.6388 30 15.2232C30 14.3866 29.963 14.3335 27.9178 12.2374L26.1553 10.4312V6.56042C26.1553 3.68419 26.1373 2.65019 26.0852 2.53605C25.9449 2.22867 25.8512 2.21543 23.8131 2.21543C22.4818 2.21543 21.8898 2.23582 21.7808 2.28544C21.4822 2.42121 21.4597 2.55134 21.4573 4.16073L21.455 5.64314L18.8306 2.99841C17.3872 1.54377 16.1381 0.313482 16.0549 0.264439C15.6258 0.0113742 14.9067 -0.0750512 14.4453 0.0710223ZM15.3364 1.22162C15.5364 1.29123 28.5856 14.5348 28.7502 14.8351C29.1422 15.5505 28.2956 16.395 27.5829 15.9995C27.4813 15.9432 24.8449 13.2867 21.7243 10.0962C14.5572 2.76872 15.3074 3.50448 15.0029 3.50448C14.6985 3.50448 15.4514 2.76626 8.27995 10.0962C5.15855 13.2867 2.52182 15.9421 2.42045 15.9971C1.70147 16.3877 0.863095 15.5514 1.25554 14.8351C1.40023 14.571 14.4664 1.29141 14.6466 1.22531C14.8521 1.1499 15.1261 1.14844 15.3364 1.22162ZM24.9814 6.3056V9.22385L23.8075 8.04688L22.6335 6.86997V5.12863V3.38729H23.8075H24.9814V6.3056ZM20.0322 10.0423L24.9749 15.0767L24.9782 20.7749L24.9814 26.4731H21.1045C16.8968 26.4731 16.9832 26.4666 16.8339 26.7937C16.6967 27.0944 16.7957 27.422 17.0658 27.5615C17.2019 27.6317 17.9905 27.645 22.0465 27.645C27.2792 27.645 27.108 27.6344 27.2591 27.9656C27.2977 28.0501 27.3293 28.2762 27.3293 28.468V28.8169H15.0029H2.67648V28.468C2.67648 28.2762 2.70806 28.0501 2.74663 27.9656C2.89777 27.6344 2.72661 27.645 7.95923 27.645C13.1918 27.645 13.0207 27.6555 13.1718 27.3244C13.2605 27.1301 13.2605 26.988 13.1718 26.7937C13.0226 26.4666 13.109 26.4731 8.90132 26.4731H5.02437L5.0276 20.7749L5.03089 15.0767L9.99484 10.0205C12.725 7.23964 14.9882 4.97418 15.0242 4.98619C15.0601 4.99815 17.3138 7.27339 20.0322 10.0423ZM14.0979 11.5381C12.743 11.7353 11.5006 12.3522 10.5113 13.3189C9.53712 14.2709 8.91781 15.4059 8.65708 16.7173C8.54209 17.2958 8.55389 18.6497 8.67891 19.2213C9.2292 21.7371 11.1775 23.682 13.6978 24.2313C14.2703 24.3561 15.6267 24.3678 16.2062 24.2531C17.5226 23.9923 18.662 23.3721 19.6106 22.4C21.9593 19.9933 22.0773 16.2913 19.8873 13.7216C18.4814 12.0721 16.2391 11.2263 14.0979 11.5381ZM16.3236 12.8179C18.1623 13.2955 19.6133 14.7421 20.1175 16.6001C20.2851 17.2179 20.3021 18.5053 20.1507 19.1096C19.6687 21.0328 18.2243 22.5101 16.3236 23.024C15.7047 23.1914 14.415 23.2083 13.8096 23.0572C11.8832 22.5761 10.4053 21.1364 9.88778 19.2368C9.70482 18.5652 9.70482 17.2718 9.88778 16.6001C10.4314 14.6047 12.0357 13.1154 14.054 12.7328C14.6602 12.6179 15.7043 12.6571 16.3236 12.8179ZM14.8496 13.8135C14.5811 13.9266 14.4746 14.1541 14.4746 14.6147V15.045L14.2414 15.1638C13.9251 15.3249 13.6393 15.6215 13.4704 15.9639C13.2632 16.384 13.2711 17.0696 13.488 17.4827C13.6671 17.824 14.0394 18.1827 14.349 18.3122C14.4665 18.3614 14.7342 18.423 14.944 18.4492C15.2646 18.4891 15.351 18.5254 15.4869 18.6772C15.6686 18.8803 15.6905 19.0739 15.5599 19.3259C15.3487 19.7335 14.8104 19.7192 14.4159 19.2954C13.9908 18.8388 13.4825 18.896 13.2991 19.4212C13.2567 19.5426 13.2562 19.6473 13.2974 19.7556C13.3852 19.9861 13.8473 20.4103 14.1804 20.5662L14.4698 20.7017L14.4722 21.1001C14.4758 21.7041 14.6519 21.9614 15.0616 21.9614C15.4747 21.9614 15.6486 21.7038 15.6486 21.0918C15.6486 20.7145 15.6585 20.6826 15.7855 20.6507C16.0075 20.5951 16.4636 20.1536 16.6334 19.83C16.8487 19.4196 16.8605 18.7289 16.6593 18.3212C16.3799 17.7551 15.8346 17.3776 15.1823 17.2987C14.7761 17.2496 14.6751 17.1979 14.5632 16.9821C14.4313 16.7273 14.4549 16.5361 14.6447 16.3241C14.889 16.0512 15.1778 16.0597 15.6036 16.3524C16.1 16.6937 16.5158 16.6189 16.6524 16.1637C16.7057 15.9859 16.7007 15.912 16.6253 15.7663C16.5157 15.5549 16.155 15.2571 15.8592 15.1336L15.6486 15.0458V14.6081C15.6486 14.2125 15.633 14.1533 15.4871 13.9935C15.3139 13.8037 15.0499 13.7292 14.8496 13.8135ZM14.7159 26.5549C14.207 26.8365 14.4199 27.645 15.0029 27.645C15.3003 27.645 15.5899 27.3588 15.5899 27.0647C15.5899 26.6248 15.1028 26.3407 14.7159 26.5549Z" fill="#9549D1"/>
</svg>
