<svg width="18" height="18" viewBox="0 0 18 18" fill="none" xmlns="http://www.w3.org/2000/svg">
<path d="M1.60577 4.73094L9 0.46188L16.3942 4.73094V13.2691L9 17.5381L1.60577 13.2691V4.73094Z" stroke="#410EAD" stroke-width="0.8"/>
<path fill-rule="evenodd" clip-rule="evenodd" d="M12.0898 5.00973C11.9192 5.05406 11.7628 5.19616 11.7025 5.36153C11.6753 5.43609 11.6701 5.47833 11.6755 5.58295C11.6824 5.71746 11.712 5.79985 11.7928 5.90965C11.8138 5.93825 11.8286 5.96789 11.8257 5.97552C11.8227 5.98314 11.5753 6.45422 11.2759 7.02234L10.7314 8.0553L10.5744 8.05581L10.4174 8.05632L9.90859 7.26704C9.47153 6.58898 9.40255 6.47391 9.41906 6.45048C9.42964 6.43549 9.45745 6.38323 9.48088 6.33435C9.51769 6.25746 9.52344 6.22584 9.52344 6.10004C9.52344 5.96505 9.51959 5.94727 9.46984 5.85238C9.41102 5.74018 9.32983 5.65923 9.21994 5.60323C9.11662 5.55058 8.88337 5.55058 8.78006 5.60323C8.59864 5.69569 8.48403 5.86866 8.47288 6.06683C8.46867 6.14157 8.47478 6.20861 8.49064 6.26147C8.50972 6.32507 8.51078 6.34627 8.49569 6.36185C8.48517 6.37273 8.30512 6.52934 8.09558 6.7099L7.71461 7.03819L7.63078 6.99447C7.43912 6.89449 7.20209 6.93091 7.0413 7.08502L6.99902 7.12555L6.66534 6.95323L6.33167 6.78091L6.32519 6.64247C6.31961 6.52336 6.31133 6.48972 6.26586 6.40167C6.20745 6.28857 6.12377 6.20845 6.00656 6.15345C5.89927 6.10308 5.69595 6.10237 5.59036 6.15199C5.48689 6.20061 5.36752 6.32186 5.31736 6.42927C5.25936 6.55345 5.25556 6.75453 5.30894 6.87439C5.39638 7.07074 5.55958 7.19025 5.7582 7.20344C5.903 7.21305 6.01339 7.17942 6.12427 7.09195L6.20945 7.02473L6.54044 7.19566L6.87144 7.36659L6.8713 7.48472C6.87103 7.71142 6.9868 7.90077 7.18328 7.99499C7.31073 8.05611 7.48522 8.05656 7.61125 7.99611C7.78436 7.91305 7.88794 7.77419 7.92273 7.57847C7.9385 7.48981 7.93745 7.45773 7.916 7.37126C7.90205 7.315 7.89062 7.26342 7.89062 7.25663C7.89062 7.24984 8.06961 7.09016 8.28836 6.90179L8.68608 6.55928L8.76883 6.60272C8.86355 6.65244 9.01969 6.67128 9.11392 6.64438L9.17316 6.62744L9.68803 7.42591L10.2029 8.22437L10.1564 8.29334C10.0947 8.38499 10.0568 8.54229 10.0704 8.65062C10.119 9.03765 10.5013 9.25297 10.8368 9.08218C11.0162 8.99085 11.1248 8.81323 11.1276 8.60645C11.1296 8.45535 11.0912 8.35066 10.979 8.20181C10.971 8.19115 11.1797 7.77904 11.5156 7.14221L12.0654 6.10004H12.201C12.3228 6.10004 12.3472 6.09461 12.4411 6.04684C12.5547 5.98899 12.6341 5.90632 12.6913 5.78616C12.7208 5.72436 12.7266 5.68569 12.7265 5.55063C12.7265 5.40649 12.722 5.38015 12.6846 5.30675C12.6297 5.19928 12.4907 5.06857 12.3951 5.03471C12.3002 5.0011 12.1654 4.99007 12.0898 5.00973ZM12.292 5.30115C12.3548 5.32566 12.434 5.40983 12.4544 5.47392C12.5125 5.65597 12.3539 5.85424 12.1705 5.82881C12.0241 5.8085 11.9287 5.68546 11.9409 5.53282C11.9555 5.35013 12.1271 5.2369 12.292 5.30115ZM9.12563 5.87063C9.20538 5.91424 9.26562 6.01643 9.26562 6.10812C9.26562 6.24861 9.13584 6.38283 9 6.38283C8.86416 6.38283 8.73438 6.24861 8.73438 6.10812C8.73438 6.01643 8.79463 5.91424 8.87438 5.87063C8.9607 5.82341 9.0393 5.82341 9.12563 5.87063ZM5.91716 6.41669C6.09044 6.50344 6.11261 6.75714 5.95761 6.8794C5.82895 6.98088 5.63363 6.93069 5.56203 6.77774C5.4523 6.5433 5.68913 6.30253 5.91716 6.41669ZM7.47583 7.22486C7.69573 7.288 7.7328 7.60494 7.5338 7.72061C7.35686 7.82345 7.14062 7.69873 7.14062 7.49382C7.14062 7.35889 7.20841 7.25922 7.32486 7.22291C7.38427 7.20441 7.40553 7.20466 7.47583 7.22486ZM11.5717 7.4021L11.5312 7.4518V9.69794V11.9441L11.5769 11.9913L11.6226 12.0385H12.2026H12.7827L12.821 11.9989L12.8594 11.9592V9.69545V7.4317L12.821 7.39205L12.7827 7.35237H12.1974H11.6122L11.5717 7.4021ZM12.5938 9.69545V11.7638H12.1953H11.7969V9.69545V7.62708H12.1953H12.5938V9.69545ZM8.37978 7.94078L8.33594 7.97979V9.97016V11.9605L8.37978 11.9995L8.42362 12.0385H9H9.57638L9.62022 11.9995L9.66406 11.9605V9.97016V7.97979L9.62022 7.94078L9.57638 7.90179H9H8.42362L8.37978 7.94078ZM9.40625 9.97016V11.7638H9H8.59375V9.97016V8.17649H9H9.40625V9.97016ZM10.7356 8.35867C10.8533 8.44068 10.8936 8.58986 10.8335 8.72086C10.7843 8.82806 10.6486 8.88785 10.5296 8.85471C10.3612 8.80783 10.2837 8.60566 10.3729 8.4458C10.4379 8.32921 10.6279 8.28358 10.7356 8.35867ZM5.20805 8.46747C5.18928 8.47529 5.16642 8.49617 5.15727 8.51386C5.1458 8.53603 5.14062 9.07598 5.14062 10.2526V11.9592L5.17898 11.9989L5.21733 12.0385H5.79736H6.37741L6.42308 11.9913L6.46875 11.9441V10.2449V8.54566L6.42308 8.49843L6.37741 8.4512L5.8098 8.45222C5.49761 8.45278 5.22683 8.45965 5.20805 8.46747ZM6.20312 10.2449V11.7638H5.80469H5.40625V10.2449V8.7259H5.80469H6.20312V10.2449ZM6.81808 9.29104C6.73077 9.32827 6.73438 9.26951 6.73438 10.6517C6.73438 11.5497 6.73948 11.9355 6.75172 11.9633C6.76127 11.9849 6.7862 12.0107 6.80714 12.0206C6.83277 12.0327 7.02667 12.0385 7.39995 12.0385C7.98197 12.0385 8.02744 12.0334 8.0528 11.9651C8.05813 11.9507 8.0625 11.3591 8.0625 10.6503V9.36175L8.0222 9.32256L7.98189 9.28339L7.41673 9.28008C7.10589 9.27826 6.8365 9.28318 6.81808 9.29104ZM7.79688 10.6569V11.7638H7.39844H7V10.6569V9.55002H7.39844H7.79688V10.6569ZM9.96989 10.4329C9.9382 10.4745 9.9375 10.4914 9.9375 11.2072C9.9375 11.6097 9.94187 11.9507 9.9472 11.9651C9.97261 12.0336 10.0174 12.0385 10.6098 12.0385H11.1743L11.22 11.9913L11.2656 11.9441V11.2068V10.4696L11.2273 10.43L11.1889 10.3903H10.5956H10.0023L9.96989 10.4329ZM11 11.2144V11.7638H10.6016H10.2031V11.2144V10.665H10.6016H11V11.2144ZM5.03836 12.2236C5.00019 12.2631 5 12.2649 5 12.5863C5 12.9045 5.00056 12.91 5.0377 12.9547L5.07542 13H9H12.9246L12.9623 12.9547C12.9994 12.91 13 12.9045 13 12.5863C13 12.2649 12.9998 12.2631 12.9616 12.2236L12.9233 12.184H9H5.0767L5.03836 12.2236ZM12.7344 12.596V12.7334H9H5.26562V12.596V12.4587H9H12.7344V12.596Z" fill="#410EAD"/>
</svg>
