<svg width="30" height="30" viewBox="0 0 30 30" fill="none" xmlns="http://www.w3.org/2000/svg">
<path fill-rule="evenodd" clip-rule="evenodd" d="M20.7991 3.79546C17.3768 7.40724 16.8595 7.99486 16.5731 8.59581C16.2113 9.35448 16.0892 10.5794 16.2933 11.4022C16.3874 11.7819 16.3871 11.8071 16.288 11.9096C16.2306 11.9689 15.7514 12.422 15.2231 12.9163L14.2626 13.8153L13.2436 12.853C12.6832 12.3238 12.2246 11.8779 12.2246 11.8622C12.2246 11.8464 12.2638 11.7536 12.3116 11.6557C12.4912 11.2887 12.6897 10.5227 12.7604 9.92406C12.9666 8.1772 12.3215 6.3467 11.0406 5.04399C8.76738 2.73207 6.02275 1.38218 3.84347 1.50413C3.08281 1.54672 2.66685 1.65807 2.02255 1.9915C1.33873 2.34545 0.779711 2.93629 0.444279 3.65956C0.0737143 4.45854 -0.00218171 4.83921 4.70774e-05 5.88791C0.00168934 6.65024 0.0257954 6.88788 0.158525 7.45132C0.541642 9.0776 1.28078 10.5789 2.47095 12.1485C3.66734 13.7262 4.67475 14.4922 6.07372 14.8878C7.05996 15.1667 8.48966 15.0449 9.43883 14.6012C9.75925 14.4514 9.786 14.4481 9.88834 14.546C9.94817 14.6033 10.4248 15.1608 10.9475 15.7848C11.4701 16.4089 11.9708 16.9515 12.0601 16.9906C12.1493 17.0297 12.2894 17.0439 12.3713 17.0221C12.4991 16.9883 17.0594 12.7822 17.43 12.3564C17.5965 12.1651 17.5989 11.9107 17.4382 11.4678C17.284 11.0427 17.2306 10.2546 17.3239 9.78023C17.4941 8.91461 17.4389 8.98206 21.4709 4.7074C25.4159 0.525052 25.3053 0.659092 25.1186 0.288466C25.0125 0.078044 24.8842 0.00215806 24.6307 5.01164e-05C24.3995 -0.00193383 24.3615 0.035699 20.7991 3.79546ZM26.0959 1.66936C26.0314 1.69918 24.6655 3.11454 23.0606 4.81466C20.3881 7.64575 20.1427 7.923 20.1427 8.11055C20.1427 8.25426 20.1938 8.36945 20.3141 8.49661C20.5362 8.7314 20.7599 8.7319 21.0577 8.49841C21.4568 8.18526 26.7027 2.57875 26.7673 2.39622C26.8014 2.30006 26.8137 2.15623 26.7948 2.07656C26.7231 1.77419 26.3454 1.55416 26.0959 1.66936ZM5.23529 2.76474C6.6271 3.06376 8.22186 3.96776 9.67327 5.28051C10.4299 5.96479 10.7299 6.31179 11.0804 6.90815C11.4895 7.60415 11.6523 8.19493 11.6842 9.09955C11.7169 10.027 11.6273 10.4904 11.2514 11.3366C10.9941 11.9157 10.9607 12.0508 11.0286 12.2378C11.0482 12.2918 11.6014 12.839 12.258 13.4539L13.4517 14.572L12.9019 15.0968C12.5995 15.3854 12.328 15.6216 12.2986 15.6216C12.2692 15.6216 11.8133 15.1035 11.2856 14.4702C10.7579 13.8368 10.2723 13.2789 10.2066 13.2302C10.0245 13.0954 9.85397 13.122 9.42006 13.353C8.71829 13.7265 8.33341 13.833 7.56178 13.8668C6.67056 13.9058 6.16533 13.8004 5.45031 13.4264C4.82671 13.1003 4.26459 12.6131 3.66722 11.8812C1.96572 9.79622 1.07942 7.75468 1.06529 5.88791C1.05731 4.82668 1.30324 4.09461 1.86871 3.49694C2.6255 2.69698 3.7657 2.44898 5.23529 2.76474ZM24.6156 6.33808C21.9135 9.19428 21.6676 9.47129 21.6676 9.65908C21.6676 9.9444 21.761 10.0996 21.9949 10.2029C22.1681 10.2793 22.2216 10.2794 22.3861 10.2038C22.6308 10.0912 28.2101 4.18116 28.2922 3.94748C28.3379 3.81778 28.3324 3.72131 28.2706 3.56502C28.174 3.32056 28.0265 3.22198 27.7573 3.22198C27.5797 3.22198 27.3176 3.48188 24.6156 6.33808ZM25.5402 8.94994C23.5232 11.0774 21.7674 12.8865 21.6383 12.9702C21.1516 13.2859 20.7374 13.4091 20.1427 13.4149C19.6646 13.4197 19.5173 13.3944 19.1052 13.237C18.6605 13.0671 18.6122 13.0602 18.4524 13.1441C18.3564 13.1945 15.475 16.5799 11.9639 20.7675C8.49007 24.9105 5.54045 28.3911 5.40901 28.502C4.95874 28.882 4.31843 28.9851 3.76628 28.7665C3.33138 28.5944 3.05383 28.3295 2.84445 27.8865C2.6072 27.3847 2.59218 26.7893 2.80486 26.3164C2.98263 25.9209 3.00638 25.8973 6.5647 22.5711C8.20989 21.0332 9.61532 19.6872 9.68793 19.5801C9.85995 19.326 9.85462 19.1467 9.66805 18.9123C9.46364 18.6555 9.15085 18.6476 8.87172 18.8921C8.39224 19.312 2.4018 24.9518 2.24848 25.1277C2.00138 25.4111 1.67691 26.1322 1.60207 26.5644C1.37069 27.9004 2.13546 29.3266 3.34915 29.8225C3.85766 30.0302 4.64478 30.0594 5.17229 29.8901C5.95554 29.6385 5.93911 29.656 10.2386 24.5356C12.4385 21.9157 14.258 19.7799 14.2819 19.7894C14.3057 19.7988 16.132 21.9548 18.3403 24.5804C20.5486 27.206 22.4448 29.4156 22.5541 29.4905C23.0628 29.8396 23.4372 29.9682 24.0204 29.994C24.8901 30.0325 25.4728 29.8114 26.0779 29.213C27.0594 28.2426 27.2417 26.6591 26.5109 25.4515C26.2833 25.0755 26.3369 25.1273 21.1236 20.2426C18.7222 17.9926 17.1015 16.431 17.1186 16.3837C17.1345 16.3401 17.5191 15.8631 17.9733 15.3237L18.7991 14.3431L19.2216 14.4597C20.1779 14.7237 21.427 14.4856 22.2821 13.8765C22.5698 13.6716 23.7952 12.4177 26.3452 9.71885C30.2251 5.61233 30.1158 5.745 29.928 5.37233C29.822 5.16197 29.6937 5.08602 29.4406 5.08391C29.21 5.08193 29.1693 5.12223 25.5402 8.94994ZM20.9345 21.591C25.9453 26.2937 25.8101 26.1483 25.8744 26.8986C25.9244 27.4811 25.7745 27.9059 25.3674 28.3363C24.9603 28.7666 24.5584 28.925 24.0075 28.8722C23.3079 28.8051 23.4218 28.9234 19.1558 23.8364C17.0111 21.279 15.1961 19.1168 15.1226 19.0316L14.9889 18.8766L15.6449 18.0886C16.0058 17.6553 16.3142 17.3 16.3303 17.2991C16.3464 17.2981 18.4183 19.2295 20.9345 21.591Z" fill="#56A409"/>
</svg>
