<svg width="36" height="30" viewBox="0 0 36 30" fill="none" xmlns="http://www.w3.org/2000/svg">
<path fill-rule="evenodd" clip-rule="evenodd" d="M9.40416 0.126743C8.98603 0.342638 8.95045 0.486226 8.92382 2.06322L8.90001 3.47595L8.28962 3.5054C7.93151 3.52272 7.6137 3.57531 7.52071 3.63269C7.30076 3.76833 7.15774 4.09262 7.10617 4.57241L7.06235 4.97969L5.39814 5.0131C3.88562 5.0435 3.70752 5.05966 3.44396 5.19045C2.99617 5.41264 2.73993 5.65408 2.54175 6.04067C2.36647 6.38256 2.36013 6.4385 2.36013 7.64814C2.36013 8.81019 2.37041 8.91146 2.50103 9.03841C2.73084 9.26177 3.19716 9.19378 3.30939 8.9205C3.33687 8.85354 3.38569 8.28521 3.41782 7.65745C3.44987 7.02976 3.5111 6.45274 3.55386 6.37516C3.70963 6.09223 3.87871 6.06306 5.51284 6.03725L7.08039 6.01239V6.53258V7.0527L6.07645 7.05311C4.81727 7.05359 4.57301 7.11118 4.48269 7.42923C4.44148 7.57426 4.43126 10.8264 4.45585 15.9506C4.49474 24.0529 4.49869 24.2401 4.63297 24.3582C4.76309 24.4727 5.45901 24.479 18.0004 24.479C30.9117 24.479 31.2341 24.4759 31.3788 24.3486L31.5271 24.2182V15.7774V7.33652L31.3415 7.19464C31.1714 7.06462 31.0622 7.0527 30.0381 7.0527H28.9204V6.53436V6.01602L30.4527 6.03793C32.1473 6.06217 32.3409 6.10367 32.472 6.47068C32.574 6.75656 32.574 24.8094 32.472 25.0953C32.3145 25.5363 33.3756 25.5061 18.0004 25.5061C7.07369 25.5061 3.97312 25.4877 3.82073 25.4218C3.7135 25.3753 3.58775 25.2521 3.54125 25.1479C3.4782 25.0064 3.44727 23.1573 3.41923 17.8598L3.38168 10.7612L3.2109 10.5845C3.01822 10.3853 2.75078 10.3581 2.53626 10.5159C2.39676 10.6185 2.3955 10.6933 2.40642 18.0799L2.41748 25.5404L1.91325 25.542C0.992029 25.545 0.492809 25.7655 0.170916 26.3116C0.00951098 26.5855 0 26.6628 0 27.6973C0 28.2998 0.0245876 28.8783 0.0546 28.9828C0.122515 29.219 0.551213 29.6876 0.840135 29.8415C1.04015 29.948 1.88613 29.9584 11.8528 29.9777L22.6489 29.9986L22.8256 29.8268C23.0367 29.6217 23.0519 29.3809 22.8678 29.1599L22.7331 28.9982L12.012 28.964L1.29088 28.9298L1.15104 28.7619C1.0243 28.6098 1.01331 28.5089 1.03395 27.689C1.04649 27.1912 1.07805 26.7633 1.10405 26.7382C1.25143 26.5955 2.27439 26.5706 8.04106 26.5691L14.3914 26.5675L14.4394 26.8927C14.5123 27.3861 14.7375 27.7838 15.0624 27.9928L15.3481 28.1766H17.96C20.3875 28.1766 20.591 28.1673 20.8423 28.0461C21.1977 27.8745 21.4383 27.5083 21.538 26.987L21.6189 26.564L28.1644 26.5829L34.7099 26.6017L34.8446 26.7634C34.9608 26.9029 34.9792 27.04 34.9792 27.7657C34.9792 28.4914 34.9608 28.6286 34.8446 28.7681L34.7099 28.9298L29.6348 28.9486L24.5598 28.9675L24.4152 29.1461C24.2168 29.3913 24.2339 29.589 24.4729 29.8116L24.6753 30L29.8096 29.9784C35.5531 29.9543 35.1294 29.9928 35.6344 29.4495C35.7758 29.2973 35.9161 29.0874 35.9462 28.9828C35.9762 28.8783 36.0004 28.2998 36 27.6973C35.9992 26.5069 35.9678 26.3829 35.5685 25.9947C35.2288 25.6646 34.9962 25.5884 34.2255 25.5544L33.5069 25.5227L33.5562 25.309C33.5832 25.1915 33.6054 20.8739 33.6054 15.7145V6.33374L33.4308 6.00137C33.2377 5.63408 32.9946 5.40819 32.5568 5.18942C32.2921 5.05706 32.1219 5.04165 30.6027 5.01255L28.9386 4.98064L28.8947 4.57289C28.8045 3.73444 28.5098 3.49211 27.5804 3.49211H27.0886L27.083 2.20825C27.0797 1.4647 27.0426 0.797435 26.9949 0.622692C26.8841 0.21699 26.6231 0.0310182 26.1828 0.044028C25.6732 0.059092 24.0482 0.631799 23.9018 0.847967C23.7375 1.0905 24.0096 1.57487 24.3101 1.57487C24.4458 1.57487 25.5216 1.27127 25.9439 1.11371C26.0149 1.08721 26.029 2.31301 26.0146 7.2588L25.9966 13.4369L22.9672 14.4549C21.301 15.0147 19.6287 15.5795 19.2509 15.7098L18.564 15.9468V9.76573V3.58469L20.1668 3.05115C21.0483 2.75774 21.9756 2.42106 22.2275 2.30301C22.6574 2.10157 22.6868 2.07295 22.707 1.83555C22.7309 1.55618 22.5414 1.30098 22.31 1.30098C22.2391 1.30098 21.237 1.61206 20.083 1.99229L17.985 2.68366L14.7695 1.60377C11.3302 0.448771 9.92762 0 9.75642 0C9.69773 0 9.53922 0.0570379 9.40416 0.126743ZM14.8124 2.70968L17.4368 3.58969V9.76929V15.9489L16.6442 15.6764C16.2083 15.5265 14.5359 14.9619 12.9279 14.4218L10.0041 13.4397L9.98334 7.62712C9.97193 4.43019 9.98194 1.65478 10.0055 1.4595L10.0484 1.1044L11.1182 1.46703C11.7067 1.66649 13.369 2.22571 14.8124 2.70968ZM8.9246 9.21713L8.94735 13.915L9.17357 14.0986C9.41579 14.2951 10.387 14.6609 12.9454 15.5192C13.8269 15.8149 14.5481 16.08 14.5482 16.1082C14.5483 16.1364 13.1216 16.1596 11.3779 16.1596H8.20761V10.3394V4.51921H8.55473H8.90177L8.9246 9.21713ZM27.7932 10.3394V16.1596H24.6228C22.8792 16.1596 21.4525 16.1364 21.4525 16.1082C21.4525 16.08 22.3165 15.7674 23.3723 15.4137C26.2949 14.4345 26.7054 14.2715 26.8934 14.0153L27.0534 13.7973L27.0743 9.15824L27.0951 4.51921H27.4441H27.7932V10.3394ZM7.0849 11.4178C7.08736 13.2538 7.11364 15.1967 7.1433 15.7355C7.1948 16.6726 7.2053 16.7229 7.38502 16.8977C7.54368 17.0518 7.65809 17.0878 8.11927 17.1286C8.83217 17.1917 27.1686 17.1917 27.8815 17.1286C28.3442 17.0877 28.4569 17.0521 28.6175 16.8959C28.802 16.7165 28.8085 16.6827 28.8582 15.631C28.8864 15.0367 28.9119 13.0946 28.9149 11.3151L28.9204 8.07979H29.6954H30.4703V15.783V23.4862H18.0004H5.53045V17.5401C5.53045 14.2698 5.50953 10.8034 5.48395 9.83694L5.43738 8.07979H6.25892H7.08039L7.0849 11.4178ZM11.3631 18.6877C10.8612 18.7201 10.7301 18.7522 10.6432 18.8643C10.4953 19.055 10.5072 19.2596 10.6786 19.4713L10.8245 19.6517H18.0004H25.1762L25.3222 19.4713C25.4917 19.2619 25.5088 19.0472 25.3708 18.8636C25.2981 18.767 25.1415 18.7212 24.7544 18.6836C24.1531 18.6251 12.2784 18.6288 11.3631 18.6877ZM10.682 20.9918C10.4934 21.2249 10.4923 21.4323 10.6786 21.6624L10.8245 21.8428H15.5182H20.2119L20.4095 21.6588C20.6516 21.4334 20.658 21.2917 20.4371 21.0421L20.2671 20.85L15.5494 20.8285L10.8316 20.807L10.682 20.9918ZM20.4526 26.8585L20.431 27.1495H18.0004H15.5698L15.5482 26.8585L15.5265 26.5675H18.0004H20.4743L20.4526 26.8585Z" fill="#1B17D9"/>
</svg>
