<svg width="98" height="108" viewBox="0 0 98 108" fill="none" xmlns="http://www.w3.org/2000/svg">
<g filter="url(#filter0_d_2803_8)">
<path d="M49 4L91.4352 29V79L49 104L6.56475 79V29L49 4Z" fill="white"/>
</g>
<path fill-rule="evenodd" clip-rule="evenodd" d="M36.9548 29.0203C34.6046 29.319 32.4291 30.0891 30.6254 31.2608C27.225 33.4696 24.9895 36.7913 24.1826 40.8341C23.9391 42.054 23.9391 44.7857 24.1826 46.0055C25.491 52.5608 30.7204 57.2697 37.3213 57.8364L38.1277 57.9056L37.1888 58.8833C34.4289 61.757 32.6111 65.2321 31.8312 69.1255C31.5774 70.3923 31.3831 72.1545 31.3825 73.1959L31.3822 73.8066H29.818C28.3538 73.8066 28.2405 73.8199 28.0462 74.0141C27.8621 74.1981 27.8438 74.3029 27.8847 74.9393C28.0003 76.7393 29.5129 78.3689 31.5035 78.8379C32.4106 79.0517 69.31 79.0551 70.3185 78.8415C72.0262 78.4798 73.4349 77.167 73.8708 75.5311C74.0616 74.8148 74.0419 74.3656 73.8064 74.0664C73.6066 73.8126 73.5987 73.8113 72.0223 73.7846L70.4388 73.7578L70.3777 72.2433C70.0169 63.3079 63.8401 55.6059 55.3673 53.5264L54.2759 53.2586L54.2415 51.7833C54.2124 50.5284 54.1759 50.2399 53.9974 49.8513C53.7276 49.264 53.1031 48.5887 52.5665 48.3043L52.1447 48.0806L52.4115 47.0448C54.1316 40.3649 50.935 33.4499 44.727 30.4216C42.7899 29.4767 41.0705 29.0673 38.8123 29.0131C37.9788 28.9931 37.143 28.9964 36.9548 29.0203ZM40.9142 30.7652C43.5037 31.3018 45.6328 32.4527 47.5137 34.3326C49.3857 36.2035 50.4674 38.1802 51.0473 40.7897C51.3416 42.1146 51.3681 44.585 51.1012 45.8361C50.8041 47.2294 50.5588 47.9143 50.3568 47.9143C50.0273 47.9143 49.3259 48.212 48.9552 48.5091C48.7537 48.6707 48.5886 48.7774 48.5886 48.7462C48.5886 48.715 48.693 48.4821 48.8207 48.2287C49.1763 47.5224 49.5577 46.3022 49.7278 45.3267C49.9578 44.007 49.8655 41.8296 49.5248 40.5375C49.2155 39.3647 48.3108 37.4796 47.6242 36.5772C46.9999 35.7568 45.6744 34.4857 44.8827 33.9484C43.9725 33.3307 42.4188 32.622 41.3052 32.3165C40.3942 32.0666 40.1978 32.0484 38.4212 32.0486C36.6657 32.0489 36.4388 32.0694 35.5531 32.3082C34.4628 32.6021 32.8768 33.326 31.9597 33.9484C31.168 34.4857 29.8426 35.7568 29.2183 36.5772C28.5343 37.4762 27.6215 39.3671 27.3066 40.5375C27.0637 41.4401 27.0437 41.6597 27.0434 43.4198C27.0432 45.1954 27.0614 45.3916 27.3115 46.3022C27.6171 47.4151 28.3263 48.9679 28.9443 49.8776C29.4819 50.6688 30.7537 51.9935 31.5746 52.6174C32.4776 53.3036 34.3637 54.2078 35.5372 54.517C36.8301 54.8575 39.0088 54.9497 40.3292 54.7198C42.8554 54.2798 45.008 53.099 46.8698 51.1318C47.3495 50.625 47.7124 50.291 47.6764 50.3894C47.6404 50.4878 47.611 51.1749 47.611 51.9163V53.2641L46.6578 53.4838C44.7688 53.9192 42.8952 54.6778 41.178 55.7024L40.2298 56.2682L38.519 56.2674C36.6277 56.2665 35.8163 56.142 34.2663 55.6152C32.359 54.9669 30.8217 53.9991 29.3287 52.507C27.4372 50.6166 26.3059 48.519 25.745 45.8625C25.501 44.7066 25.501 42.133 25.745 40.9772C26.3059 38.3207 27.4371 36.2231 29.3287 34.3325C31.3887 32.2735 33.8933 31.0183 36.7236 30.6267C37.6676 30.496 39.9848 30.5727 40.9142 30.7652ZM37.6391 33.9467C37.6391 34.7212 38.4397 35.1052 38.9633 34.5818C39.1409 34.4044 39.2033 34.2367 39.2033 33.9376V33.5331L39.7166 33.6025C40.4535 33.7022 41.5524 33.9937 42.1339 34.2437C42.5179 34.4088 42.6197 34.4958 42.5691 34.616C42.3093 35.2343 42.3004 35.2918 42.421 35.5829C42.6775 36.2015 43.4726 36.2107 43.834 35.5992C43.9279 35.4402 44.0368 35.3102 44.0758 35.3102C44.3489 35.3102 46.5356 37.4956 46.5356 37.7686C46.5356 37.8076 46.4055 37.9163 46.2464 38.0102C45.6345 38.3714 45.6437 39.1661 46.2627 39.4223C46.554 39.5429 46.6116 39.534 47.2302 39.2743C47.3505 39.2238 47.4375 39.3255 47.6027 39.7093C47.8529 40.2905 48.1445 41.3887 48.2442 42.1252L48.3137 42.6382H47.909C47.6097 42.6382 47.4419 42.7006 47.2644 42.878C46.7371 43.405 47.125 44.2015 47.909 44.2015H48.3137L48.2442 44.7144C48.1445 45.451 47.8529 46.5492 47.6027 47.1303C47.4375 47.5141 47.3505 47.6158 47.2302 47.5653C46.6116 47.3056 46.554 47.2967 46.2627 47.4173C45.6437 47.6736 45.6345 48.4682 46.2464 48.8295C46.4055 48.9233 46.5356 49.0321 46.5356 49.0711C46.5356 49.3441 44.3489 51.5295 44.0758 51.5295C44.0368 51.5295 43.9279 51.3994 43.834 51.2405C43.4726 50.6289 42.6775 50.6381 42.421 51.2568C42.3004 51.5478 42.3093 51.6054 42.5691 52.2237C42.6197 52.3439 42.5179 52.4308 42.1339 52.5959C41.5524 52.846 40.4535 53.1374 39.7166 53.2371L39.2033 53.3066V52.9021C39.2033 52.1186 38.4064 51.7309 37.8791 52.2579C37.7016 52.4352 37.6391 52.603 37.6391 52.9021V53.3066L37.1259 53.2371C36.3889 53.1374 35.2901 52.846 34.7086 52.5959C34.3245 52.4308 34.2228 52.3439 34.2733 52.2237C34.5332 51.6054 34.5421 51.5478 34.4214 51.2568C34.165 50.6381 33.3699 50.6289 33.0084 51.2405C32.9145 51.3994 32.8057 51.5295 32.7667 51.5295C32.4935 51.5295 30.3068 49.3441 30.3068 49.0711C30.3068 49.0321 30.437 48.9233 30.596 48.8295C31.2079 48.4682 31.1987 47.6736 30.5797 47.4173C30.2885 47.2967 30.2309 47.3056 29.6122 47.5653C29.492 47.6158 29.405 47.5141 29.2398 47.1303C28.9896 46.5492 28.698 45.451 28.5982 44.7144L28.5287 44.2015H28.9335C29.7174 44.2015 30.1054 43.405 29.578 42.878C29.4006 42.7006 29.2327 42.6382 28.9335 42.6382H28.5287L28.5982 42.1252C28.698 41.3887 28.9896 40.2905 29.2398 39.7093C29.405 39.3255 29.492 39.2238 29.6122 39.2743C30.2309 39.534 30.2885 39.5429 30.5797 39.4223C31.1987 39.1661 31.2079 38.3714 30.596 38.0102C30.437 37.9163 30.3068 37.8076 30.3068 37.7686C30.3068 37.4956 32.4935 35.3102 32.7667 35.3102C32.8057 35.3102 32.9145 35.4402 33.0084 35.5992C33.353 36.182 34.1428 36.2057 34.4002 35.6409C34.5481 35.3166 34.5396 35.1611 34.3548 34.8039C34.1725 34.4515 34.1823 34.4414 34.9995 34.1275C35.5468 33.9174 37.0199 33.5708 37.4191 33.5583C37.6121 33.5523 37.6391 33.5999 37.6391 33.9467ZM38.1628 35.8965C37.6653 36.095 37.6391 36.245 37.6391 38.8983C37.6391 41.0622 37.6203 41.368 37.4878 41.368C37.2269 41.368 36.421 42.2647 36.2921 42.6984C36.0281 43.5871 36.2143 44.3454 36.8547 44.9881C37.5742 45.7104 38.5829 45.8613 39.4995 45.3839L39.9039 45.1733L41.2577 45.9576C42.0097 46.3932 42.7252 46.7419 42.8671 46.7419C43.4132 46.7419 43.8013 45.9759 43.4788 45.5351C43.4107 45.442 42.7617 45.0207 42.0368 44.5989L40.7187 43.832L40.6606 43.3065C40.6287 43.0175 40.524 42.6154 40.428 42.4132C40.2449 42.0276 39.5535 41.368 39.3324 41.368C39.2288 41.368 39.2033 40.8759 39.2033 38.8819C39.2033 36.4405 39.1994 36.3915 38.9834 36.1541C38.7224 35.8672 38.4504 35.7818 38.1628 35.8965ZM38.8793 42.9483C39.1633 43.215 39.1687 43.5843 38.893 43.8777C38.6261 44.1615 38.2567 44.1669 37.9631 43.8914C37.6791 43.6246 37.6737 43.2554 37.9494 42.962C38.2163 42.6781 38.5858 42.6728 38.8793 42.9483ZM51.3667 49.4872C51.902 49.6358 52.2713 49.9355 52.4995 50.4064C52.6597 50.7373 52.6947 51.0098 52.6947 51.9268V53.0439H50.935H49.1752V51.8862C49.1752 50.5733 49.2869 50.2123 49.8181 49.8073C50.3467 49.4044 50.7601 49.319 51.3667 49.4872ZM53.8935 54.7994C61.5959 56.2091 67.5564 62.5685 68.6728 70.5678C68.7569 71.1706 68.8257 72.146 68.8257 72.7354V73.8071L50.9105 73.7825L32.9953 73.7578L33.0165 72.5853C33.1042 67.7247 35.1561 63.0542 38.7286 59.5839C39.8572 58.4877 40.5818 57.9118 41.7207 57.2058C43.805 55.9138 46.1883 55.0426 48.575 54.7004C49.7825 54.5272 52.7032 54.5816 53.8935 54.7994ZM49.3707 57.9867C45.3152 58.5069 41.4721 60.9046 38.8858 64.5284C37.6864 66.2087 36.7592 68.3885 36.7592 69.5275C36.7592 70.2413 37.5021 70.6385 38.0332 70.2087C38.195 70.0777 38.2752 69.8708 38.3359 69.4276C38.5722 67.7007 40.0214 65.2642 41.9395 63.3689C43.5332 61.7943 45.5421 60.555 47.4171 59.9899C48.3322 59.7141 49.9365 59.4452 50.6726 59.4443C51.2562 59.4436 51.4603 59.3388 51.6177 58.9589C51.7739 58.5823 51.617 58.1507 51.2659 57.9908C50.9938 57.8668 50.3163 57.8654 49.3707 57.9867ZM72.2474 75.5089C72.2474 75.7514 71.6227 76.4819 71.1347 76.8102C70.1607 77.4651 71.5945 77.4218 50.9275 77.4218C32.4291 77.4218 32.1767 77.4192 31.5486 77.2254C30.8176 76.9997 30.0281 76.3639 29.7134 75.7474L29.5207 75.3699H50.8841C69.2896 75.3699 72.2474 75.3892 72.2474 75.5089Z" fill="#2F3AA5"/>
<defs>
<filter id="filter0_d_2803_8" x="2.56445" y="0" width="92.8711" height="108" filterUnits="userSpaceOnUse" color-interpolation-filters="sRGB">
<feFlood flood-opacity="0" result="BackgroundImageFix"/>
<feColorMatrix in="SourceAlpha" type="matrix" values="0 0 0 0 0 0 0 0 0 0 0 0 0 0 0 0 0 0 127 0" result="hardAlpha"/>
<feOffset/>
<feGaussianBlur stdDeviation="2"/>
<feComposite in2="hardAlpha" operator="out"/>
<feColorMatrix type="matrix" values="0 0 0 0 0 0 0 0 0 0 0 0 0 0 0 0 0 0 0.25 0"/>
<feBlend mode="normal" in2="BackgroundImageFix" result="effect1_dropShadow_2803_8"/>
<feBlend mode="normal" in="SourceGraphic" in2="effect1_dropShadow_2803_8" result="shape"/>
</filter>
</defs>
</svg>
