<svg width="98" height="108" viewBox="0 0 98 108" fill="none" xmlns="http://www.w3.org/2000/svg">
<g filter="url(#filter0_d_2803_5)">
<path d="M49 4L91.4352 29V79L49 104L6.56475 79V29L49 4Z" fill="white"/>
</g>
<path fill-rule="evenodd" clip-rule="evenodd" d="M43.0167 29.1301C42.0977 29.1936 41.1427 29.3126 40.8946 29.3946C40.3591 29.5715 40.1335 30.0394 40.3226 30.5804C40.5178 31.1385 40.8966 31.2401 42.1875 31.0806C42.8497 30.9988 45.6267 30.9393 48.9374 30.936C55.0066 30.9301 56.4545 31.0264 60.2497 31.6876C63.2939 32.218 65.9691 33.1158 66.6373 33.8311C66.9122 34.1253 66.9127 34.1324 66.6763 34.3955C65.9625 35.1903 63.1327 36.1283 59.7497 36.6914C56.5149 37.2298 54.8506 37.3297 49.0624 37.3333C42.9763 37.3372 41.1587 37.2162 37.6251 36.5715C34.5761 36.0151 31.9466 35.11 31.3246 34.4025C31.0905 34.1362 31.0905 34.1273 31.3246 33.8666C31.8441 33.2881 33.9216 32.4703 36.0627 32.0013C36.8649 31.8256 37.2504 31.6773 37.4064 31.4838C37.7205 31.0947 37.6811 30.5832 37.3103 30.2328C37.0009 29.9405 36.9788 29.9382 36.0345 30.0978C33.6742 30.4966 31.1679 31.4779 30.1814 32.3895C29.3447 33.1628 29.2503 33.4643 29.2503 35.3653V36.9841L27.5316 37.0604C24.5446 37.1932 21.1832 37.7525 19.4707 38.4018C18.5302 38.7584 17.6391 39.3696 17.2851 39.901L17.0005 40.3281V54.8339C17.0005 70.6303 16.9554 69.6394 17.7081 70.3567C18.8945 71.4871 22.9828 72.471 27.4233 72.6949L29.1878 72.7839L29.2579 73.6638C29.3415 74.7116 29.4309 74.8971 30.1918 75.6023C31.9114 77.1963 36.7834 78.4017 43.4375 78.8794C45.7026 79.0419 52.2986 79.0398 54.6248 78.8756C61.2042 78.4114 66.085 77.1995 67.8081 75.6023C68.5689 74.8971 68.6583 74.7116 68.7419 73.6638L68.812 72.7839L70.6245 72.6891C72.0887 72.6124 72.497 72.5497 72.7495 72.3623C73.1751 72.0465 73.2401 71.3289 72.8764 70.9631C72.6265 70.7119 72.5296 70.7031 70.838 70.7776C69.8613 70.8207 68.9905 70.8783 68.9033 70.9056C68.7777 70.9449 68.7516 70.4107 68.7783 68.35L68.812 65.7448L70.4995 65.6545C73.7706 65.4794 77.1 64.9031 78.6582 64.2422L79.1296 64.0422L79.0957 66.5232L79.0619 69.0041L78.3786 69.3473C78.0029 69.5361 77.318 69.7835 76.8566 69.8972C75.9212 70.1278 75.5828 70.4091 75.5828 70.9562C75.5828 71.3807 75.8034 71.6946 76.2115 71.8506C76.7892 72.0714 79.3435 71.1429 80.236 70.3876C81.0518 69.6972 80.9993 70.765 80.9993 54.8719C80.9993 42.4152 80.9738 40.3546 80.8163 40.0482C80.1121 38.6788 77.313 37.7168 72.562 37.2115C71.5995 37.1092 70.348 37.0249 69.7808 37.0241L68.7495 37.0227V35.3846C68.7495 34.2912 68.6933 33.612 68.5806 33.342C68.3582 32.8101 67.4352 31.9679 66.6186 31.5517C64.3823 30.4121 59.805 29.4929 54.4373 29.1054C52.3372 28.9538 45.3514 28.969 43.0167 29.1301ZM31.8916 36.9447C34.2689 38.0019 38.4034 38.7944 43.4375 39.158C45.7265 39.3231 52.2697 39.3207 54.6014 39.1538C59.5422 38.8001 63.7425 37.9968 66.0748 36.9595C66.4631 36.7869 66.8018 36.6456 66.8276 36.6456C66.8535 36.6456 66.8746 38.3328 66.8746 40.3947C66.8746 44.1203 66.8728 44.1454 66.5933 44.4085C65.8411 45.1166 63.7934 45.8354 60.9372 46.3939C59.1597 46.7416 58.8331 46.9246 58.8331 47.5728C58.8331 48.1308 59.187 48.4613 59.7846 48.4613C60.9668 48.4613 64.5783 47.5552 66.1082 46.8748C66.4781 46.7104 66.8018 46.5758 66.8276 46.5758C66.8535 46.5758 66.8746 48.2629 66.8746 50.3249C66.8746 54.0521 66.873 54.0753 66.5933 54.3333C65.4232 55.4128 61.7337 56.3886 56.6248 56.9697C53.7903 57.2922 44.3029 57.2937 41.4376 56.972C36.2829 56.3936 32.5856 55.4211 31.4065 54.3333C31.1269 54.0753 31.1253 54.0526 31.1253 50.3114C31.1253 47.3485 31.1585 46.5636 31.2815 46.6178C35.3515 48.4126 40.9969 49.2366 49.1249 49.2219C54.1198 49.2128 55.665 49.1051 56.0277 48.7404C56.3587 48.4076 56.37 47.7982 56.0519 47.4426C55.819 47.1824 55.7538 47.1774 53.7498 47.2659C50.8215 47.3953 45.7302 47.3662 43.5468 47.2077C37.6588 46.7802 32.7553 45.6475 31.4065 44.4031C31.1269 44.1452 31.1253 44.1219 31.1253 40.3947C31.1253 38.3328 31.1464 36.6456 31.1723 36.6456C31.198 36.6456 31.5217 36.7803 31.8916 36.9447ZM29.2503 40.8257V42.7434L27.6566 42.6568C23.9829 42.4573 21.1016 41.9224 19.6018 41.1617C19.3055 41.0115 19.039 40.8666 19.0096 40.8398C18.7692 40.6205 21.0079 39.8105 22.7744 39.4776C24.2795 39.1939 26.7237 38.9387 28.0941 38.9222L29.2503 38.9082V40.8257ZM73.9959 39.2848C76.3459 39.63 78.9994 40.4263 78.9994 40.7863C78.9994 40.8391 78.6196 41.0549 78.1556 41.2659C76.553 41.9948 73.9286 42.4621 70.3433 42.6568L68.7495 42.7434V40.8062V38.8691L70.5044 38.9494C71.4696 38.9936 73.0408 39.1445 73.9959 39.2848ZM21.1879 43.6825C22.7738 44.095 25.0847 44.4079 27.5003 44.5372L29.1878 44.6275L29.2215 47.2048L29.2552 49.7822L27.4843 49.6875C24.17 49.5103 20.9998 48.9179 19.6255 48.2192L18.938 47.8696L18.9041 45.3972L18.8702 42.9249L19.3416 43.1249C19.6008 43.2349 20.4317 43.4858 21.1879 43.6825ZM79.0791 47.7699C78.9931 47.9956 77.7261 48.5567 76.6827 48.8316C75.2703 49.2035 72.5779 49.5772 70.5155 49.6875L68.7447 49.7822L68.7783 47.2048L68.812 44.6275L70.4995 44.5372C73.7353 44.364 76.8164 43.8473 78.4415 43.2051L79.0619 42.9598L79.096 45.2982C79.1147 46.5842 79.1071 47.6965 79.0791 47.7699ZM21.1879 50.7216C22.7738 51.1341 25.0847 51.447 27.5003 51.5763L29.1878 51.6666L29.2215 54.2439L29.2552 56.8213L27.4843 56.7266C24.17 56.5494 20.9998 55.957 19.6255 55.2583L18.938 54.9087L18.9041 52.4363L18.8702 49.964L19.3416 50.164C19.6008 50.274 20.4317 50.5249 21.1879 50.7216ZM79.0791 54.809C78.9931 55.0347 77.7261 55.5958 76.6827 55.8707C75.2703 56.2426 72.5779 56.6163 70.5155 56.7266L68.7447 56.8213L68.7783 54.2439L68.812 51.6666L70.4995 51.5763C73.7353 51.4031 76.8164 50.8864 78.4415 50.2442L79.0619 49.9989L79.096 52.3373C79.1147 53.6233 79.1071 54.7356 79.0791 54.809ZM31.8916 56.805C34.3282 57.8886 38.4715 58.671 43.679 59.0309C46.5143 59.2268 54.4284 59.1126 56.8748 58.8403C61.1867 58.3604 64.095 57.6865 66.6558 56.5741C66.8615 56.4848 66.8746 56.7058 66.8746 60.2416C66.8746 63.9827 66.873 64.0055 66.5933 64.2634C65.4232 65.3429 61.7337 66.3187 56.6248 66.8998C53.7663 67.225 44.3113 67.2232 41.3751 66.8969C37.494 66.4657 34.4162 65.787 32.6278 64.9683C31.0029 64.2245 31.1253 64.6083 31.1253 60.255C31.1253 58.1931 31.1464 56.506 31.1723 56.506C31.198 56.506 31.5217 56.6406 31.8916 56.805ZM21.1879 57.7607C22.7922 58.178 25.1215 58.4944 27.5003 58.6179L29.1878 58.7057L29.2215 61.3109C29.2483 63.3716 29.2222 63.9058 29.0965 63.8667C29.0093 63.8396 28.1657 63.7829 27.2221 63.741C25.6114 63.6694 25.491 63.6802 25.2534 63.9191C24.9066 64.2678 24.917 64.9656 25.274 65.2999C25.432 65.448 25.7355 65.563 25.9927 65.5722C26.2375 65.581 27.0566 65.6235 27.8128 65.6665L29.1878 65.7448L29.2215 68.3226L29.2552 70.9004L27.5341 70.8054C24.2243 70.6225 20.9953 70.0295 19.6255 69.3526L18.938 69.0129L18.9041 66.5534L18.8704 64.0939L19.9606 64.4605C20.5602 64.6621 21.2397 64.8272 21.4707 64.8272C22.0143 64.8272 22.3754 64.4945 22.3754 63.9936C22.3754 63.354 22.0952 63.0928 21.1596 62.8606C20.6939 62.7451 20.0036 62.4984 19.6255 62.3122L18.938 61.9738L18.9041 59.4885L18.8702 57.0031L19.3416 57.2031C19.6008 57.3131 20.4317 57.564 21.1879 57.7607ZM79.0662 61.882C78.9659 62.1449 77.7021 62.6516 76.3233 62.9816C74.7031 63.3693 72.635 63.6464 70.4658 63.7663L68.7447 63.8613L68.7783 61.2835L68.812 58.7057L70.4995 58.6154C73.744 58.4417 77.1131 57.8617 78.6244 57.2167L79.0619 57.03L79.096 59.3724C79.1147 60.6607 79.1014 61.7899 79.0662 61.882ZM32.215 66.8654C34.5843 67.852 38.6502 68.6072 43.4375 68.9496C45.7007 69.1115 52.3134 69.1107 54.5623 68.9485C59.6205 68.5833 63.7196 67.7974 66.1082 66.7352C66.4781 66.5707 66.8018 66.4361 66.8276 66.4361C66.8535 66.4361 66.8746 68.1232 66.8746 70.1852C66.8746 73.9124 66.873 73.9357 66.5933 74.1936C65.4232 75.2731 61.7337 76.2489 56.6248 76.83C53.7663 77.1552 44.3104 77.1544 41.3751 76.8289C37.5108 76.4001 34.4163 75.7173 32.6278 74.8985C31.0025 74.1545 31.1253 74.5405 31.1253 70.1717C31.1253 67.2102 31.1585 66.4233 31.2815 66.4755C31.3675 66.5119 31.7875 66.6874 32.215 66.8654Z" fill="#C915B7"/>
<defs>
<filter id="filter0_d_2803_5" x="2.56445" y="0" width="92.8711" height="108" filterUnits="userSpaceOnUse" color-interpolation-filters="sRGB">
<feFlood flood-opacity="0" result="BackgroundImageFix"/>
<feColorMatrix in="SourceAlpha" type="matrix" values="0 0 0 0 0 0 0 0 0 0 0 0 0 0 0 0 0 0 127 0" result="hardAlpha"/>
<feOffset/>
<feGaussianBlur stdDeviation="2"/>
<feComposite in2="hardAlpha" operator="out"/>
<feColorMatrix type="matrix" values="0 0 0 0 0 0 0 0 0 0 0 0 0 0 0 0 0 0 0.25 0"/>
<feBlend mode="normal" in2="BackgroundImageFix" result="effect1_dropShadow_2803_5"/>
<feBlend mode="normal" in="SourceGraphic" in2="effect1_dropShadow_2803_5" result="shape"/>
</filter>
</defs>
</svg>
