<svg width="98" height="108" viewBox="0 0 98 108" fill="none" xmlns="http://www.w3.org/2000/svg">
<g filter="url(#filter0_d_2803_9)">
<path d="M49 4L91.4352 29V79L49 104L6.56475 79V29L49 4Z" fill="white"/>
</g>
<path fill-rule="evenodd" clip-rule="evenodd" d="M29.2659 29.2854L28.9805 29.5709V33.4241V37.2773L28.3856 37.3203L27.7908 37.3634L25.8954 39.2658L24 41.1683V42.6589C24 44.1574 24.0536 44.4429 24.3821 44.6951C24.5012 44.7865 26.5335 44.8148 33.1498 44.8172L41.7625 44.8203L42.0365 44.5849C42.3096 44.3503 42.3106 44.3443 42.3426 42.9616C42.3602 42.1983 42.3459 41.4583 42.3108 41.3172C42.2396 41.031 38.9585 37.6647 38.5312 37.4396C38.3861 37.3633 38.0676 37.3008 37.8232 37.3008H37.3789V33.5867C37.3789 29.6371 37.3478 29.3423 36.9053 29.1055C36.7744 29.0354 35.5063 29 33.1298 29H29.5514L29.2659 29.2854ZM45.6797 36.9519V44.9036L45.1553 45.1437C43.9652 45.6886 43.282 46.7099 43.1746 48.1044C43.1036 49.0267 43.16 49.3295 43.4532 49.6027C43.6566 49.7923 43.7878 49.8008 46.5111 49.8008C49.3398 49.8008 49.3578 49.7995 49.5641 49.58C49.6781 49.4585 49.7995 49.1839 49.8337 48.9696C49.9224 48.4145 49.7375 47.2397 49.4762 46.6981C49.1681 46.0596 48.4178 45.3526 47.8244 45.1419L47.3398 44.9698V36.9849V29H46.5098H45.6797V36.9519ZM51.5391 33.6254V38.2508L51.0979 38.4192C50.4796 38.6555 49.6498 39.4457 49.3266 40.1063C49.1131 40.5427 49.0502 40.8296 49.0174 41.5163C48.9707 42.491 49.0811 42.8814 49.4507 43.0498C49.6122 43.1234 50.6028 43.1602 52.427 43.1602H55.1612L55.4115 42.9099C55.6546 42.6668 55.6607 42.6294 55.6239 41.6159C55.5889 40.6513 55.5608 40.5255 55.2535 39.9537C54.8883 39.274 54.356 38.7799 53.6553 38.4699L53.1992 38.2682V33.6341V29H52.3691H51.5391V33.6254ZM35.6211 33.9805V37.3008H33.1309H30.6406V33.9805V30.6602H33.1309H35.6211V33.9805ZM39.2515 40.3972L40.6992 41.8334V42.4968V43.1602H33.1797H25.6602V42.5021V41.8441L27.0993 40.4025L28.5386 38.9609H33.1711H37.8037L39.2515 40.3972ZM57.8355 39.096C57.673 39.1675 57.4863 39.3441 57.4205 39.4887C57.3286 39.6903 57.3008 41.9837 57.3008 49.3659V58.9805H48.1791H39.0574L39.0238 57.5559L38.9902 56.1313L38.7132 55.8931C38.4439 55.6616 38.3971 55.6557 37.053 55.6819L35.6699 55.709L35.6416 56.5107L35.6133 57.3126L36.4717 57.3408L37.3301 57.3691L37.3584 58.1748L37.3868 58.9805H35.6738H33.9609V57.3203V55.6602H33.1309H32.3008V57.3203V58.9805H30.6406H28.9805V58.1504V57.3203H29.8105H30.6406V56.4902V55.6602H29.2659H27.8912L27.6058 55.9456L27.3203 56.2311V57.6058V58.9805H25.9456H24.5709L24.2854 59.2659L24 59.5514V68.9902V78.4291L24.2854 78.7146L24.5709 79H49H73.4291L73.7146 78.7146L74 78.4291V58.9935V39.5578L73.7644 39.2838L73.5287 39.0098L65.8298 38.988C59.5992 38.9703 58.0745 38.9909 57.8355 39.096ZM53.1049 40.0596C53.5634 40.291 53.9759 40.8671 53.9789 41.2803C53.9805 41.4996 53.9773 41.5 52.3203 41.5C50.9432 41.5 50.6602 41.4761 50.6602 41.3599C50.6602 41.0979 50.8671 40.6708 51.1303 40.3895C51.6695 39.813 52.3809 39.6941 53.1049 40.0596ZM72.3163 45.6748L72.3416 50.6797H65.6513H58.9609V45.7155C58.9609 42.9852 58.9905 40.7217 59.0268 40.6855C59.0629 40.6493 62.0622 40.6311 65.6918 40.6448L72.291 40.6699L72.3163 45.6748ZM60.6432 45.6748L60.6699 47.3105H61.5H62.3301L62.3568 45.6748L62.3836 44.0391H61.5H60.6164L60.6432 45.6748ZM47.2106 46.6842C47.7015 46.9218 48.0128 47.3156 48.091 47.7979L48.1467 48.1406H46.4719H44.7971L44.8614 47.8721C45.013 47.2399 45.3063 46.883 45.8779 46.6351C46.3466 46.4318 46.7177 46.4455 47.2106 46.6842ZM72.3398 64.8398V77.3398H65.6504H58.9609V64.8398V52.3398H65.6504H72.3398V64.8398ZM60.6898 55.7217C60.6521 55.7595 60.6211 56.5081 60.6211 57.3854V58.9805H61.5023H62.3836L62.3568 57.3447L62.3301 55.709L61.5443 55.681C61.1121 55.6655 60.7276 55.6838 60.6898 55.7217ZM40.6771 62.3252L40.7039 63.9609H33.182H25.6602V62.3002V60.6395L33.1553 60.6645L40.6504 60.6895L40.6771 62.3252ZM57.3008 62.3008V63.9609H49.8301H42.3594V62.3008V60.6406H49.8301H57.3008V62.3008ZM27.6329 61.7176C27.186 62.1339 27.2722 62.764 27.8178 63.0702C28.3209 63.3526 28.9805 62.9309 28.9805 62.3268C28.9805 61.6429 28.1271 61.2571 27.6329 61.7176ZM30.8848 61.8303C30.5675 62.2073 30.6055 62.6235 30.9878 62.96C31.2782 63.2156 31.5185 63.2357 31.9031 63.0368C32.6335 62.6592 32.3186 61.5195 31.4838 61.5195C31.2243 61.5195 31.0857 61.5914 30.8848 61.8303ZM34.3671 61.6759C34.0281 61.9133 33.9369 62.2495 34.1033 62.6479C34.4539 63.487 35.6211 63.2256 35.6211 62.3079C35.6211 61.6544 34.9097 61.2958 34.3671 61.6759ZM37.6362 61.722C37.1556 62.1 37.3545 62.9968 37.948 63.1271C38.3667 63.2191 38.7359 63.0326 38.8967 62.6479C39.2331 61.8427 38.3279 61.1778 37.6362 61.722ZM48.1416 62.3252L48.1699 63.1309L49.8545 63.1576L51.5391 63.1843V62.352V61.5195H49.8262H48.1132L48.1416 62.3252ZM40.6756 71.5049L40.7008 77.3398H33.1805H25.6602V71.5456C25.6602 68.3587 25.6897 65.7218 25.7259 65.6855C25.762 65.6494 29.1348 65.6311 33.221 65.6449L40.6504 65.6699L40.6756 71.5049ZM49 71.4805V77.3398H45.6797H42.3594V71.4805V65.6211H45.6797H49V71.4805ZM57.3008 71.4805V77.3398H53.9805H50.6602V71.5456C50.6602 68.3587 50.6895 65.722 50.7253 65.6862C50.761 65.6504 52.2552 65.6211 54.0456 65.6211H57.3008V71.4805ZM27.5997 67.5655L27.3691 67.7521L27.3413 71.4271L27.3135 75.102L27.6023 75.3908L27.8912 75.6797H33.0682C36.261 75.6797 38.3429 75.6425 38.5003 75.5826C39.0026 75.3917 39.0391 75.1147 39.0391 71.4899C39.0391 69.6655 38.9988 68.067 38.9496 67.9375C38.7257 67.3487 39.0371 67.3789 33.1835 67.3789C28.0591 67.3789 27.8204 67.3869 27.5997 67.5655ZM37.3562 71.5049L37.3301 73.9707L33.1553 73.9962L28.9805 74.0216V71.5304V69.0391H33.1813H37.3822L37.3562 71.5049ZM45.6797 71.4805V73.1406H46.5098H47.3398V71.4805V69.8203H46.5098H45.6797V71.4805ZM52.3203 71.4805V73.1406H53.1504H53.9805V71.4805V69.8203H53.1504H52.3203V71.4805Z" fill="#5D8900"/>
<defs>
<filter id="filter0_d_2803_9" x="2.56445" y="0" width="92.8711" height="108" filterUnits="userSpaceOnUse" color-interpolation-filters="sRGB">
<feFlood flood-opacity="0" result="BackgroundImageFix"/>
<feColorMatrix in="SourceAlpha" type="matrix" values="0 0 0 0 0 0 0 0 0 0 0 0 0 0 0 0 0 0 127 0" result="hardAlpha"/>
<feOffset/>
<feGaussianBlur stdDeviation="2"/>
<feComposite in2="hardAlpha" operator="out"/>
<feColorMatrix type="matrix" values="0 0 0 0 0 0 0 0 0 0 0 0 0 0 0 0 0 0 0.25 0"/>
<feBlend mode="normal" in2="BackgroundImageFix" result="effect1_dropShadow_2803_9"/>
<feBlend mode="normal" in="SourceGraphic" in2="effect1_dropShadow_2803_9" result="shape"/>
</filter>
</defs>
</svg>
