<svg width="98" height="108" viewBox="0 0 98 108" fill="none" xmlns="http://www.w3.org/2000/svg">
<g filter="url(#filter0_d_2803_3)">
<path d="M49 4L91.4352 29V79L49 104L6.56475 79V29L49 4Z" fill="white"/>
</g>
<path fill-rule="evenodd" clip-rule="evenodd" d="M65.246 29.2475C65.0444 29.4506 65.0005 29.5948 65.0005 30.0539V30.6129H56.4221C49.04 30.6129 47.7606 30.6345 47.2477 30.7674C46.8535 30.8697 45.2556 31.6887 42.5271 33.1868L38.4025 35.4516H33.5223H28.6423L28.1259 35.711C27.4903 36.0303 27.0637 36.5905 26.7995 37.4527C26.4364 38.638 26.6401 40.0554 27.3045 40.9663C27.4996 41.2338 27.8136 41.4882 28.1581 41.6582C28.4578 41.8059 28.703 41.9448 28.703 41.9667C28.703 41.9886 27.8818 44.7845 26.8781 48.1796L25.0532 54.3528L25.0266 66.4274L25 78.5019L25.2471 78.751L25.4941 79H43.8019H62.1098L62.3564 78.7513L62.6031 78.5027L62.5769 66.4781L62.5507 54.4536L60.8683 48.7213C59.943 45.5685 59.1655 42.9356 59.1406 42.8703C59.1111 42.7927 59.3251 42.7119 59.7569 42.6374C61.4845 42.339 62.8447 41.066 63.2634 39.3557L63.4293 38.6774H64.215H65.0005V39.6396C65.0005 40.5269 65.0196 40.6212 65.246 40.8493L65.4914 41.0968H69.0003H72.5091L72.7545 40.8493L73 40.6019V35.0484V29.4949L72.7545 29.2475L72.5091 29H69.0003H65.4914L65.246 29.2475ZM71.4001 35.0484V39.4839H69.0003H66.6004V35.0484V30.6129H69.0003H71.4001V35.0484ZM65.0005 34.6452V37.0645L63.8756 37.0649C62.9364 37.0652 62.6979 37.0978 62.4306 37.2621C62.0226 37.5128 61.8425 37.8766 61.7729 38.5904C61.7069 39.2685 61.5055 39.702 61.0148 40.2233C60.3424 40.9373 60.0456 41.0324 58.296 41.0931C56.9902 41.1385 56.6942 41.1781 56.4489 41.3405C56.2882 41.4469 55.1206 42.3513 53.8541 43.3503C51.0175 45.5878 50.8808 45.6704 50.1058 45.6138C48.8829 45.5247 48.0885 44.3982 48.4034 43.1999C48.5049 42.8137 48.8898 42.3846 51.5601 39.6801C54.295 36.9104 54.6012 36.5673 54.6012 36.2734C54.6012 36.0607 54.5154 35.86 54.3557 35.6991L54.1104 35.4516L47.9312 35.4507L41.7521 35.4497L44.5019 33.9376C46.0143 33.1058 47.3867 32.3846 47.5517 32.3347C47.7183 32.2844 51.6656 32.2399 56.4261 32.2349L65.0005 32.2258V34.6452ZM50.2515 38.6774L48.6539 40.2903H38.744C29.074 40.2903 28.8297 40.2856 28.659 40.0954C28.079 39.4494 28.079 37.9054 28.659 37.2595C28.83 37.0689 29.0922 37.0645 40.3415 37.0645H51.8491L50.2515 38.6774ZM46.9972 42.3949C46.7047 43.1711 46.6596 43.7974 46.8432 44.5309C47.2708 46.2384 48.7783 47.3469 50.5034 47.2225C51.4838 47.1517 52.0162 46.8508 54.1905 45.1388C55.2569 44.299 56.1472 43.6298 56.169 43.6517C56.1907 43.6737 55.4982 46.0904 54.6299 49.0222L53.0513 54.3528L53.0246 65.87L52.998 77.3871H39.8005H26.6031V66.1215V54.8558L28.2568 49.2112C29.1662 46.1067 30.0227 43.1922 30.1599 42.7349L30.4092 41.9032H38.7959H47.1825L46.9972 42.3949ZM59.4296 49.5393L61.0044 54.9577L61.0026 65.5911L61.0008 76.2247L59.8009 75.0181L58.601 73.8116V64.9597V56.1078L58.3555 55.8604C58.2008 55.7043 57.9958 55.6129 57.801 55.6129C57.6062 55.6129 57.4012 55.7043 57.2466 55.8604L57.0011 56.1078V64.9597V73.8116L55.8011 75.0181L54.6012 76.2247V65.5442V54.8636L56.1738 49.4922C57.0388 46.538 57.7708 44.121 57.8006 44.121C57.8304 44.121 58.5635 46.5593 59.4296 49.5393ZM31.6483 54.2475C31.4053 54.4923 31.4028 54.5138 31.4028 56.3655V58.2363L32.1979 59.8371L32.9931 61.438L32.6468 66.2623C32.4563 68.9157 32.3289 71.2228 32.3638 71.3891C32.5265 72.1663 33.0454 72.7995 33.8026 73.1451C34.1716 73.3134 34.4596 73.3504 35.4025 73.3504C36.3454 73.3504 36.6334 73.3134 37.0024 73.1451C37.7596 72.7995 38.2785 72.1663 38.4412 71.3891C38.4761 71.2228 38.3487 68.9157 38.1582 66.2623L37.8119 61.438L38.6071 59.8371L39.4022 58.2363V56.3655C39.4022 54.5138 39.3997 54.4923 39.1568 54.2475C39.0021 54.0914 38.7971 54 38.6023 54C38.4075 54 38.2025 54.0914 38.0478 54.2475C37.8113 54.4858 37.8023 54.545 37.8023 55.8604V57.2258H37.0024H36.2025V55.8604C36.2025 54.545 36.1935 54.4858 35.957 54.2475C35.8023 54.0914 35.5973 54 35.4025 54C35.2077 54 35.0027 54.0914 34.848 54.2475C34.6116 54.4858 34.6026 54.545 34.6026 55.8604V57.2258H33.8026H33.0027V55.8604C33.0027 54.545 32.9937 54.4858 32.7572 54.2475C32.6025 54.0914 32.3975 54 32.2027 54C32.0079 54 31.8029 54.0914 31.6483 54.2475ZM44.8737 54.1101C43.2058 54.5059 41.7612 56.2906 40.9644 58.9395C40.4281 60.7225 40.094 62.8821 40.2958 63.2621C40.3586 63.3804 40.7232 63.6363 41.106 63.8306C41.5482 64.0551 41.8021 64.2452 41.8021 64.3517C41.8021 64.4441 41.6638 65.8838 41.4948 67.5511C41.3258 69.2184 41.2047 70.84 41.2256 71.1545C41.2761 71.9125 41.6866 72.5878 42.3468 72.9994C42.8291 73.2999 42.8564 73.3044 44.2019 73.3044C45.5474 73.3044 45.5747 73.2999 46.057 72.9994C46.7173 72.5878 47.1277 71.9125 47.1782 71.1545C47.1991 70.84 47.078 69.2184 46.909 67.5511C46.6105 64.6052 46.6018 64.3779 46.6018 59.5072V54.4949L46.3563 54.2475C46.0902 53.9791 45.6118 53.9348 44.8737 54.1101ZM45.0019 59.746V63.6774H44.2238C43.4536 63.6774 43.4447 63.6744 43.3342 63.3791C43.2505 63.1557 43.0568 62.9985 42.5622 62.7527C41.8071 62.3772 41.8205 62.4201 42.0606 61.1431C42.4074 59.2985 43.1307 57.4978 43.8784 56.6171C44.2107 56.2257 44.7465 55.8158 44.9269 55.8149C44.9681 55.8147 45.0019 57.5837 45.0019 59.746ZM36.9024 59.6452L36.5002 60.4516H35.4025H34.3048L33.9026 59.6452L33.5004 58.8387H35.4025H37.3046L36.9024 59.6452ZM36.5791 66.5527C36.8153 69.8972 36.8686 71.1017 36.7882 71.2794C36.6305 71.6284 36.2903 71.7419 35.4025 71.7419C34.5147 71.7419 34.1745 71.6284 34.0168 71.2794C33.9364 71.1017 33.9897 69.8972 34.2259 66.5527L34.5428 62.0645H35.4025H36.2622L36.5791 66.5527ZM45.102 65.4163C45.102 65.4857 45.2145 66.6537 45.3518 68.0121C45.6658 71.1158 45.6658 71.1825 45.3563 71.4945C45.1318 71.721 45.0338 71.7419 44.2019 71.7419C43.3701 71.7419 43.2721 71.721 43.0475 71.4945C42.738 71.1825 42.738 71.1158 43.052 68.0121C43.1894 66.6537 43.3019 65.4857 43.3019 65.4163C43.302 65.3249 43.5487 65.2903 44.2019 65.2903C44.8552 65.2903 45.1019 65.3249 45.102 65.4163ZM58.8509 76.379L59.8471 77.3871H57.801H55.7549L56.7511 76.379C57.2989 75.8246 57.7714 75.371 57.801 75.371C57.8306 75.371 58.3031 75.8246 58.8509 76.379Z" fill="#0092FF"/>
<defs>
<filter id="filter0_d_2803_3" x="2.56445" y="0" width="92.8711" height="108" filterUnits="userSpaceOnUse" color-interpolation-filters="sRGB">
<feFlood flood-opacity="0" result="BackgroundImageFix"/>
<feColorMatrix in="SourceAlpha" type="matrix" values="0 0 0 0 0 0 0 0 0 0 0 0 0 0 0 0 0 0 127 0" result="hardAlpha"/>
<feOffset/>
<feGaussianBlur stdDeviation="2"/>
<feComposite in2="hardAlpha" operator="out"/>
<feColorMatrix type="matrix" values="0 0 0 0 0 0 0 0 0 0 0 0 0 0 0 0 0 0 0.25 0"/>
<feBlend mode="normal" in2="BackgroundImageFix" result="effect1_dropShadow_2803_3"/>
<feBlend mode="normal" in="SourceGraphic" in2="effect1_dropShadow_2803_3" result="shape"/>
</filter>
</defs>
</svg>
