<svg width="98" height="108" viewBox="0 0 98 108" fill="none" xmlns="http://www.w3.org/2000/svg">
<g filter="url(#filter0_d_2803_4)">
<path d="M49 4L91.4352 29V79L49 104L6.56475 79V29L49 4Z" fill="white"/>
</g>
<path d="M46.8191 38.0628C46.685 37.9846 46.5329 37.9434 46.3781 37.9434C46.2233 37.9434 46.0712 37.9846 45.9371 38.0628L44.5873 38.724C43.2642 39.3883 42.1504 40.4129 41.371 41.6826C40.5917 42.9524 40.1778 44.4169 40.1758 45.9117V53.1076C40.1758 53.3443 40.2687 53.5714 40.4341 53.7388C40.5995 53.9062 40.8239 54.0002 41.0578 54.0002H41.9398V58.4648C41.9398 59.1752 42.2186 59.8565 42.715 60.3589C43.2114 60.8612 43.8846 61.1434 44.5866 61.1434C45.2885 61.1434 45.9617 60.8612 46.4581 60.3589C46.9544 59.8565 47.2333 59.1752 47.2333 58.4648V38.8167C47.2336 38.6649 47.1957 38.5155 47.1231 38.3827C47.0505 38.2499 46.9456 38.1379 46.8184 38.0576L46.8191 38.0628ZM41.9405 45.9109C41.9407 44.7503 42.2601 43.6127 42.8631 42.6255C43.4661 41.6383 44.3288 40.8405 45.3546 40.3215L45.4693 40.268V52.2142H41.9405V45.9109ZM45.4693 58.4641C45.4693 58.7009 45.3763 58.928 45.2108 59.0955C45.0454 59.263 44.8209 59.3571 44.5869 59.3571C44.3529 59.3571 44.1285 59.263 43.963 59.0955C43.7975 58.928 43.7045 58.7009 43.7045 58.4641V53.9995H45.4693V58.4641Z" fill="#FDB32B" stroke="#FDB32B"/>
<path d="M53.4091 45.0725C53.643 45.0725 53.8674 44.9784 54.0328 44.8111C54.1982 44.6437 54.2911 44.4166 54.2911 44.1799V38.8227C54.2911 38.5858 54.1981 38.3587 54.0327 38.1912C53.8672 38.0238 53.6428 37.9297 53.4087 37.9297C53.1747 37.9297 52.9503 38.0238 52.7848 38.1912C52.6193 38.3587 52.5264 38.5858 52.5264 38.8227V44.1799C52.5264 44.4166 52.6193 44.6437 52.7847 44.8111C52.9501 44.9784 53.1745 45.0725 53.4084 45.0725H53.4091Z" fill="#FDB32B" stroke="#FDB32B"/>
<path d="M56.0563 58.4662V48.3052L56.8415 47.9034C57.1353 47.7554 57.3825 47.5274 57.5554 47.2451C57.7284 46.9628 57.8201 46.6373 57.8203 46.3051V38.8227C57.8203 38.5858 57.7273 38.3587 57.5619 38.1912C57.3964 38.0238 57.172 37.9297 56.9379 37.9297C56.7039 37.9297 56.4795 38.0238 56.314 38.1912C56.1485 38.3587 56.0556 38.5858 56.0556 38.8227V46.3051L54.7765 46.9565C54.6312 47.0308 54.509 47.1444 54.4234 47.2846C54.3378 47.4248 54.2922 47.5863 54.2916 47.7511V58.4662C54.2916 58.7031 54.1986 58.9302 54.0331 59.0977C53.8676 59.2651 53.6432 59.3592 53.4092 59.3592C53.1752 59.3592 52.9507 59.2651 52.7853 59.0977C52.6198 58.9302 52.5268 58.7031 52.5268 58.4662V47.7518C52.5262 47.587 52.4806 47.4256 52.395 47.2854C52.3094 47.1451 52.1872 47.0316 52.0418 46.9572L50.7628 46.3059V38.8234C50.7628 38.5866 50.6698 38.3595 50.5044 38.192C50.3389 38.0245 50.1144 37.9304 49.8804 37.9304C49.6464 37.9304 49.422 38.0245 49.2565 38.192C49.091 38.3595 48.998 38.5866 48.998 38.8234V46.3059C48.9983 46.638 49.09 46.9635 49.2629 47.2459C49.4358 47.5282 49.6831 47.7561 49.9769 47.9041L50.7621 48.306V58.4662C50.7621 59.1767 51.0409 59.858 51.5373 60.3603C52.0336 60.8626 52.7069 61.1448 53.4088 61.1448C54.1108 61.1448 54.784 60.8626 55.2803 60.3603C55.7767 59.858 56.0556 59.1767 56.0556 58.4662H56.0563Z" fill="#FDB32B" stroke="#FDB32B"/>
<path d="M59.5885 29H38.4115C37.8321 28.9999 37.2584 29.1153 36.7232 29.3396C36.1879 29.564 35.7015 29.8928 35.2919 30.3074C34.8822 30.722 34.5573 31.2142 34.3356 31.7559C34.1139 32.2977 33.9999 32.8783 34 33.4646V74.5354C33.9999 75.1217 34.1139 75.7023 34.3356 76.2441C34.5573 76.7858 34.8822 77.278 35.2919 77.6926C35.7015 78.1072 36.1879 78.436 36.7232 78.6604C37.2584 78.8847 37.8321 79.0001 38.4115 79H59.5885C60.1679 79.0001 60.7416 78.8847 61.2768 78.6604C61.8121 78.436 62.2985 78.1072 62.7081 77.6926C63.1178 77.278 63.4427 76.7858 63.6644 76.2441C63.8861 75.7023 64.0001 75.1217 64 74.5354V33.4646C64.0001 32.8783 63.8861 32.2977 63.6644 31.7559C63.4427 31.2142 63.1178 30.722 62.7081 30.3074C62.2985 29.8928 61.8121 29.564 61.2768 29.3396C60.7416 29.1153 60.1679 28.9999 59.5885 29ZM42.8275 30.786H55.1792V31.6786C55.1792 31.9153 55.0863 32.1424 54.9209 32.3098C54.7555 32.4772 54.5311 32.5712 54.2972 32.5712H43.705C43.4711 32.5712 43.2467 32.4772 43.0813 32.3098C42.9159 32.1424 42.823 31.9153 42.823 31.6786L42.8275 30.786ZM59.5885 77.2148H38.4115C37.8654 77.2131 37.3332 77.0406 36.8878 76.7209C36.4423 76.4011 36.1055 75.9498 35.9234 75.4288H62.0706C61.8885 75.9498 61.5517 76.4011 61.1063 76.7209C60.6608 77.0406 60.1286 77.2131 59.5825 77.2148H59.5885ZM62.2352 73.6436H35.7677V33.4646C35.7677 32.7542 36.0466 32.0729 36.5429 31.5705C37.0393 31.0682 37.7125 30.786 38.4145 30.786H41.0612V31.6786C41.0612 32.389 41.3401 33.0703 41.8365 33.5727C42.3328 34.075 43.006 34.3572 43.708 34.3572H54.295C54.997 34.3572 55.6702 34.075 56.1665 33.5727C56.6629 33.0703 56.9417 32.389 56.9417 31.6786V30.786H59.5885C60.2905 30.786 60.9637 31.0682 61.46 31.5705C61.9564 32.0729 62.2352 32.7542 62.2352 33.4646V73.6436Z" fill="#FDB32B" stroke="#FDB32B"/>
<path d="M52.5268 66.502C52.3228 66.5019 52.125 66.5734 51.9672 66.7044C51.8095 66.8353 51.7014 67.0176 51.6615 67.2201C51.6217 67.4227 51.6524 67.6329 51.7485 67.8151C51.8447 67.9972 52.0003 68.14 52.1888 68.2191C52.3773 68.2982 52.587 68.3087 52.7823 68.2488C52.9776 68.1889 53.1463 68.0624 53.2598 67.8907C53.3732 67.719 53.4243 67.5128 53.4043 67.3073C53.3844 67.1018 53.2946 66.9096 53.1504 66.7635C52.985 66.5961 52.7607 66.502 52.5268 66.502Z" fill="#FDB32B" stroke="#FDB32B"/>
<path d="M45.4692 66.502C45.2652 66.5019 45.0674 66.5734 44.9096 66.7044C44.7518 66.8353 44.6438 67.0176 44.6039 67.2201C44.564 67.4227 44.5948 67.6329 44.6909 67.8151C44.7871 67.9972 44.9426 68.14 45.1311 68.2191C45.3196 68.2982 45.5294 68.3087 45.7247 68.2488C45.92 68.1889 46.0887 68.0624 46.2021 67.8907C46.3156 67.719 46.3666 67.5128 46.3467 67.3073C46.3268 67.1018 46.237 66.9096 46.0927 66.7635C45.9274 66.5961 45.7031 66.502 45.4692 66.502Z" fill="#FDB32B" stroke="#FDB32B"/>
<path d="M48.9985 66.502C48.7945 66.5019 48.5967 66.5734 48.4389 66.7044C48.2811 66.8353 48.1731 67.0176 48.1332 67.2201C48.0933 67.4227 48.1241 67.6329 48.2202 67.8151C48.3164 67.9972 48.4719 68.14 48.6604 68.2191C48.8489 68.2982 49.0587 68.3087 49.254 68.2488C49.4493 68.1889 49.618 68.0624 49.7314 67.8907C49.8449 67.719 49.8959 67.5128 49.876 67.3073C49.8561 67.1018 49.7663 66.9096 49.622 66.7635C49.4567 66.5961 49.2324 66.502 48.9985 66.502Z" fill="#FDB32B" stroke="#FDB32B"/>
<path d="M56.6831 64.9719C56.5157 64.8105 56.2926 64.7218 56.0614 64.7247C55.8303 64.7275 55.6094 64.8217 55.4459 64.9872C55.2825 65.1526 55.1894 65.3761 55.1866 65.6101C55.1838 65.844 55.2714 66.0698 55.4309 66.2392L56.578 67.3912L55.4309 68.5431C55.2714 68.7125 55.1838 68.9383 55.1866 69.1722C55.1894 69.4062 55.2825 69.6297 55.4459 69.7951C55.6094 69.9606 55.8303 70.0548 56.0614 70.0576C56.2926 70.0605 56.5157 69.9717 56.6831 69.8104L58.4478 68.0244C58.5306 67.9415 58.5962 67.8428 58.641 67.7341C58.6859 67.6253 58.7089 67.5086 58.7089 67.3908C58.7089 67.2729 58.6859 67.1563 58.641 67.0475C58.5962 66.9387 58.5306 66.8401 58.4478 66.7571L56.6831 64.9719Z" fill="#FDB32B" stroke="#FDB32B"/>
<path d="M42.5672 64.9713C42.4852 64.8875 42.3877 64.8211 42.2802 64.7757C42.1727 64.7304 42.0575 64.707 41.941 64.707C41.8246 64.707 41.7093 64.7304 41.6018 64.7757C41.4944 64.8211 41.3969 64.8875 41.3149 64.9713L39.5502 66.7573C39.4674 66.8402 39.4018 66.9389 39.357 67.0476C39.3121 67.1564 39.2891 67.2731 39.2891 67.3909C39.2891 67.5087 39.3121 67.6254 39.357 67.7342C39.4018 67.8429 39.4674 67.9416 39.5502 68.0246L41.3149 69.8105C41.4823 69.9719 41.7054 70.0606 41.9366 70.0578C42.1677 70.0549 42.3886 69.9607 42.5521 69.7953C42.7155 69.6299 42.8086 69.4063 42.8114 69.1724C42.8142 68.9384 42.7266 68.7127 42.5672 68.5432L41.42 67.3913L42.5672 66.2393C42.6499 66.1564 42.7156 66.0577 42.7604 65.949C42.8052 65.8402 42.8283 65.7235 42.8283 65.6057C42.8283 65.4879 42.8052 65.3712 42.7604 65.2624C42.7156 65.1536 42.6499 65.055 42.5672 64.972V64.9713Z" fill="#FDB32B" stroke="#FDB32B"/>
<defs>
<filter id="filter0_d_2803_4" x="2.56445" y="0" width="92.8711" height="108" filterUnits="userSpaceOnUse" color-interpolation-filters="sRGB">
<feFlood flood-opacity="0" result="BackgroundImageFix"/>
<feColorMatrix in="SourceAlpha" type="matrix" values="0 0 0 0 0 0 0 0 0 0 0 0 0 0 0 0 0 0 127 0" result="hardAlpha"/>
<feOffset/>
<feGaussianBlur stdDeviation="2"/>
<feComposite in2="hardAlpha" operator="out"/>
<feColorMatrix type="matrix" values="0 0 0 0 0 0 0 0 0 0 0 0 0 0 0 0 0 0 0.25 0"/>
<feBlend mode="normal" in2="BackgroundImageFix" result="effect1_dropShadow_2803_4"/>
<feBlend mode="normal" in="SourceGraphic" in2="effect1_dropShadow_2803_4" result="shape"/>
</filter>
</defs>
</svg>
