<svg width="137" height="42" viewBox="0 0 137 42" fill="none" xmlns="http://www.w3.org/2000/svg">
<path fill-rule="evenodd" clip-rule="evenodd" d="M92.9028 6.03637C92.9028 10.7346 92.848 12.0723 92.6557 12.0706C92.52 12.0694 91.964 11.9277 91.4205 11.7555C90.0393 11.3181 85.9309 11.3104 84.1589 11.7418C78.5618 13.1047 74.4521 17.0263 72.9114 22.4745C72.3294 24.5322 72.2778 29.2445 72.8152 31.2704C73.3273 33.2016 74.0416 34.9054 74.9286 36.3118C78.6534 42.2178 86.8045 43.7654 92.1015 39.5724L93.0775 38.8L93.2026 39.7357C93.2714 40.2503 93.3627 40.7827 93.4054 40.9187C93.4647 41.1067 94.5274 41.166 97.8377 41.166H102.192V20.583V0H97.5474H92.9028V6.03637ZM121.956 11.0014C118.327 11.4168 115.973 11.9989 113.987 12.9723C112.011 13.9408 110.654 14.8588 110.767 15.1519C110.866 15.4107 114.172 20.3408 114.461 20.6606C114.551 20.7606 115.29 20.4892 116.164 20.0354C118.531 18.8058 119.704 18.5216 122.45 18.5128C124.656 18.5057 124.893 18.5429 125.839 19.0423C126.961 19.6344 127.713 20.6349 127.758 21.5944L127.787 22.1934L124.328 22.1786C120.147 22.1606 118.108 22.5188 115.545 23.7215C111.14 25.7887 108.969 30.1155 109.892 34.989C110.289 37.0831 111.894 39.3716 113.718 40.4417C117.529 42.6785 123.515 42.3496 126.944 39.7151C127.98 38.9189 127.986 38.9229 128.128 40.4733L128.182 41.0671L132.591 41.1203L137 41.1738L136.929 31.0267C136.867 22.0798 136.818 20.7394 136.512 19.6924C135.176 15.1079 132.263 12.2908 127.923 11.3852C126.427 11.0729 123.165 10.8631 121.956 11.0014ZM12.834 11.4792C7.82656 12.2772 3.17188 15.9615 1.21068 20.679C-1.86168 28.0689 1.083 36.4017 8.12382 40.242C12.3356 42.5392 17.9935 42.5892 22.3444 40.3677C24.3317 39.353 24.3157 39.3997 23.0531 38.3197C21.6675 37.1341 20.3215 35.3937 19.3805 33.5703C18.9805 32.7951 18.6167 32.0497 18.5718 31.9138C18.5103 31.7273 18.2348 31.7638 17.4506 32.0622C15.404 32.841 13.185 32.4521 11.5745 31.0325C9.93501 29.5873 9.20374 27.3845 9.68994 25.3549C10.5283 21.8552 14.4256 19.9044 17.6939 21.3484L18.4761 21.6939L19.4438 19.7189C20.2729 18.0266 20.6775 17.4744 22.2697 15.8616C23.5965 14.518 24.0568 13.9319 23.8787 13.8132C23.0383 13.2541 20.285 12.0294 19.2809 11.7683C17.8395 11.3937 14.3521 11.2373 12.834 11.4792ZM62.0204 11.6939C60.8637 11.9669 59.4704 12.7488 58.197 13.8399C57.2921 14.6151 57.022 14.762 56.9921 14.495C56.971 14.3056 56.8977 13.637 56.8293 13.0091L56.7048 11.8675L52.2232 11.9205L47.7415 11.9738V26.5204V41.0671L52.4254 41.1201L57.1093 41.1732L57.1688 32.902L57.2283 24.6308L57.8926 23.28C58.6262 21.7883 59.5978 20.9391 61.2432 20.3511C62.335 19.9608 64.8595 19.8893 66.141 20.2125C66.6282 20.3354 67.0583 20.4021 67.0966 20.361C67.248 20.1989 68.604 12.3874 68.5192 12.1661C68.2886 11.5643 63.9161 11.2464 62.0204 11.6939ZM91.8691 19.9515L92.804 20.2998L92.803 24.7459C92.8018 29.9883 92.6073 30.9725 91.3185 32.2631C90.235 33.3481 89.3328 33.6992 87.5664 33.7237C84.3364 33.7684 82.3995 31.8283 81.934 28.0812C81.768 26.7455 82.0834 24.5209 82.6147 23.28C83.3837 21.4831 85.1797 19.9859 87.0415 19.5895C88.1912 19.3445 90.7558 19.5369 91.8691 19.9515ZM32.0817 20.9901C30.8885 21.2253 29.9696 21.7052 29.1057 22.5447C27.343 24.2579 26.8688 26.9416 27.9412 29.1363C30.4971 34.3677 38.0791 33.0514 38.8748 27.2381C39.3727 23.6008 35.7487 20.2679 32.0817 20.9901ZM127.268 28.4254L127.886 28.549L127.877 29.8602C127.862 32.103 127.166 33.3787 125.415 34.3715C124.532 34.872 124.237 34.9318 122.648 34.931C119.841 34.9298 118.902 34.1902 118.896 31.9767C118.891 30.0469 119.799 29.099 122.154 28.5762C123.335 28.3139 126.278 28.227 127.268 28.4254Z" fill="#606060"/>
</svg>
