<svg width="31" height="35" viewBox="0 0 31 35" fill="none" xmlns="http://www.w3.org/2000/svg">
<path d="M11.1218 11.3939C10.3982 11.3939 9.69077 11.1778 9.08908 10.773C8.48739 10.3682 8.01844 9.79285 7.74149 9.11968C7.46453 8.44652 7.39202 7.70578 7.53314 6.99113C7.67426 6.27647 8.02267 5.62001 8.53431 5.10473C9.04594 4.58945 9.69783 4.23851 10.4075 4.09627C11.1173 3.95403 11.8529 4.02689 12.5215 4.30563C13.1901 4.58437 13.7616 5.05648 14.1637 5.66225C14.5659 6.26803 14.7806 6.98027 14.7807 7.70891C14.7798 8.6858 14.394 9.62243 13.7081 10.3133C13.0221 11.0041 12.092 11.3927 11.1218 11.3939ZM11.1218 6.89479C10.962 6.89465 10.8058 6.94224 10.6728 7.03153C10.5399 7.12082 10.4362 7.24781 10.375 7.39642C10.3137 7.54504 10.2976 7.70861 10.3287 7.86644C10.3598 8.02428 10.4367 8.16928 10.5496 8.28311C10.6626 8.39694 10.8065 8.47447 10.9632 8.50592C11.12 8.53736 11.2824 8.52129 11.4301 8.45975C11.5777 8.39821 11.7039 8.29395 11.7927 8.16017C11.8815 8.02639 11.9289 7.8691 11.9289 7.70819C11.9283 7.4929 11.8431 7.28659 11.6919 7.13441C11.5406 6.98224 11.3356 6.8966 11.1218 6.89622V6.89479Z" fill="#5580D3"/>
<path d="M19.8648 22.6893C19.6664 22.6896 19.4702 22.648 19.2887 22.5674C19.1072 22.4867 18.9444 22.3686 18.8109 22.2208C16.2222 19.36 13.1647 16.1307 12.5293 15.6786C12.159 15.4137 11.5846 15.4137 10.6101 15.4365C10.0001 15.4595 9.38941 15.4514 8.78027 15.4123C6.68663 15.2537 3.01212 11.0167 0.298606 7.49033C0.183954 7.34131 0.099596 7.17102 0.0503066 6.98916C0.00101727 6.80731 -0.0122297 6.61746 0.0113475 6.43045C0.0349247 6.24345 0.0948482 6.06295 0.187703 5.89926C0.280557 5.73558 0.404538 5.59191 0.552533 5.47646C0.700528 5.36102 0.869653 5.27605 1.05026 5.22642C1.23086 5.17679 1.4194 5.16347 1.60512 5.18721C1.79084 5.21095 1.97011 5.27129 2.13267 5.36479C2.29523 5.45828 2.43791 5.58311 2.55257 5.73213C5.17671 9.13927 8.1292 12.2415 9.04411 12.5528C9.56539 12.5893 10.0618 12.5771 10.5441 12.5657C11.7619 12.5371 13.0187 12.5086 14.1775 13.3348C15.3832 14.1918 20.0039 19.2764 20.9152 20.2862C21.1013 20.4918 21.2241 20.7475 21.2686 21.0221C21.3131 21.2967 21.2773 21.5783 21.1658 21.8329C21.0542 22.0874 20.8715 22.3037 20.6401 22.4557C20.4086 22.6076 20.1383 22.6885 19.862 22.6886L19.8648 22.6893Z" fill="#5580D3"/>
<path d="M12.5584 34.9994C12.4421 35.0018 12.3289 34.9617 12.2398 34.8864C12.1507 34.8112 12.0918 34.7059 12.074 34.5902L9.68671 19.077C9.65807 18.8907 9.66613 18.7005 9.71047 18.5174C9.75482 18.3342 9.83456 18.1617 9.94514 18.0096C10.0557 17.8574 10.195 17.7287 10.3549 17.6308C10.5149 17.5329 10.6925 17.4676 10.8775 17.4388C11.0625 17.4099 11.2514 17.4181 11.4332 17.4627C11.6151 17.5074 11.7865 17.5877 11.9376 17.699C12.0887 17.8103 12.2165 17.9506 12.3138 18.1116C12.411 18.2727 12.4758 18.4515 12.5044 18.6378L14.574 32.0857L15.5719 32.065C15.935 32.0496 16.291 32.169 16.5724 32.4006C16.8538 32.6322 17.0409 32.9598 17.0982 33.3212C17.1229 33.5206 17.1058 33.7231 17.0479 33.9155C16.99 34.1078 16.8926 34.2858 16.762 34.4378C16.6314 34.5899 16.4706 34.7126 16.2898 34.798C16.1091 34.8834 15.9126 34.9296 15.713 34.9337L12.5584 34.9994Z" fill="#5580D3"/>
<path d="M8.23554 34.5987H3.42695C3.34919 34.5986 3.27261 34.5796 3.2038 34.5431C3.13499 34.5066 3.07604 34.4539 3.03194 34.3894C2.98785 34.3249 2.95996 34.2506 2.95069 34.1729C2.94142 34.0951 2.95102 34.0163 2.9787 33.9431L6.98444 23.3689C7.05557 23.1812 7.16504 23.0107 7.30576 22.8683C7.44649 22.7259 7.61532 22.6148 7.80136 22.5422C7.98741 22.4697 8.18652 22.4372 8.3858 22.447C8.58507 22.4568 8.7801 22.5086 8.95824 22.5991C9.27724 22.7757 9.52071 23.0641 9.64231 23.4096C9.76392 23.7551 9.75519 24.1335 9.61781 24.473L6.86886 31.7286H8.31636C8.51596 31.7287 8.71336 31.7709 8.89573 31.8525C9.0781 31.9342 9.2414 32.0535 9.3751 32.2028C9.50879 32.352 9.60987 32.5278 9.67184 32.7189C9.73381 32.9099 9.75527 33.1119 9.73482 33.3118C9.68486 33.674 9.5046 34.0052 9.22822 34.2424C8.95185 34.4796 8.59862 34.6064 8.23554 34.5987Z" fill="#5580D3"/>
<path d="M29.377 8.71504C23.9776 8.71504 22.2081 4.04744 22.0294 1.54297C22.0154 1.35493 22.0383 1.16597 22.0969 0.986872C22.1554 0.807769 22.2485 0.642029 22.3706 0.499123C22.4928 0.356216 22.6417 0.23894 22.8089 0.153986C22.9761 0.0690328 23.1582 0.0180691 23.345 0.00400179C23.5317 -0.0100655 23.7194 0.0130378 23.8972 0.0719982C24.0751 0.130959 24.2397 0.224622 24.3816 0.347634C24.5236 0.470646 24.6401 0.6206 24.7244 0.788936C24.8088 0.957272 24.8594 1.1407 24.8734 1.32873C24.9117 1.79934 25.3613 5.84279 29.3919 5.84279H29.5465H29.5826C29.9561 5.84507 30.3138 5.99487 30.5788 6.25996C30.8437 6.52505 30.9948 6.88425 30.9994 7.26032C31.0041 7.63638 30.8619 7.99926 30.6036 8.27091C30.3453 8.54255 29.9915 8.70126 29.6181 8.7129C29.5359 8.71504 29.4564 8.71504 29.377 8.71504Z" fill="#5580D3"/>
<path d="M20.7448 5.79934H17.8455C17.4674 5.79934 17.1048 5.64807 16.8374 5.37881C16.5701 5.10954 16.4199 4.74434 16.4199 4.36354C16.4199 3.98274 16.5701 3.61754 16.8374 3.34828C17.1048 3.07901 17.4674 2.92773 17.8455 2.92773H20.7448C21.1229 2.92773 21.4855 3.07901 21.7528 3.34828C22.0202 3.61754 22.1703 3.98274 22.1703 4.36354C22.1703 4.74434 22.0202 5.10954 21.7528 5.37881C21.4855 5.64807 21.1229 5.79934 20.7448 5.79934Z" fill="#5580D3"/>
<path d="M20.318 12.0657C20.0411 12.0657 19.7703 11.9845 19.5385 11.832C19.3066 11.6795 19.1239 11.4624 19.0127 11.207C18.9014 10.9517 18.8665 10.6693 18.912 10.3943C18.9575 10.1193 19.0816 9.86356 19.2691 9.65839L21.4556 7.26603C21.5824 7.12733 21.7351 7.01513 21.905 6.93585C22.0749 6.85657 22.2586 6.81175 22.4457 6.80396C22.6327 6.79617 22.8195 6.82555 22.9953 6.89044C23.1711 6.95532 23.3325 7.05444 23.4702 7.18212C23.608 7.3098 23.7194 7.46356 23.7981 7.6346C23.8769 7.80565 23.9214 7.99063 23.9291 8.17899C23.9368 8.36736 23.9077 8.55542 23.8432 8.73242C23.7788 8.90943 23.6803 9.07192 23.5535 9.21063L21.367 11.603C21.2337 11.7493 21.0716 11.866 20.8909 11.9457C20.7103 12.0254 20.5152 12.0663 20.318 12.0657Z" fill="#5580D3"/>
<path d="M25.7791 14.7443C25.401 14.7443 25.0384 14.5931 24.771 14.3239C24.5037 14.0547 24.3535 13.6896 24.3535 13.3089V10.6288C24.3535 10.4403 24.3904 10.2536 24.462 10.0795C24.5337 9.90531 24.6387 9.74707 24.771 9.61378C24.9034 9.48049 25.0606 9.37476 25.2335 9.30262C25.4065 9.23049 25.5919 9.19336 25.7791 9.19336C25.9663 9.19336 26.1516 9.23049 26.3246 9.30262C26.4975 9.37476 26.6547 9.48049 26.7871 9.61378C26.9195 9.74707 27.0245 9.90531 27.0961 10.0795C27.1677 10.2536 27.2046 10.4403 27.2046 10.6288V13.3089C27.2046 13.6896 27.0544 14.0547 26.7871 14.3239C26.5197 14.5931 26.1572 14.7443 25.7791 14.7443Z" fill="#5580D3"/>
</svg>
