<svg width="35" height="26" viewBox="0 0 35 26" fill="none" xmlns="http://www.w3.org/2000/svg">
<path d="M4.54856 14.8146C4.51061 14.4544 4.55354 14.0894 4.67358 13.7518C4.79361 13.4142 4.9871 13.1142 5.23697 12.8783C6.78974 11.492 10.5546 9.76906 18.3204 13.8118C18.5656 13.9273 18.7649 14.136 18.8823 14.3999C18.9996 14.6638 19.0273 14.9652 18.9601 15.2496C18.9421 15.3261 18.9077 15.3968 18.8599 15.4557C18.8121 15.5147 18.7523 15.5602 18.6853 15.5884C18.3678 15.7473 17.0262 16.1152 13.122 14.1894C12.9913 14.1252 12.8594 14.0588 12.7233 13.9894C12.5589 13.907 12.3812 13.8618 12.2006 13.8563C12.0201 13.8508 11.8404 13.8852 11.6721 13.9575C11.5038 14.0297 11.3503 14.1384 11.2207 14.277C11.0911 14.4156 10.988 14.5814 10.9174 14.7646C10.7683 15.1368 10.7563 15.5582 10.884 15.9399C11.0117 16.3216 11.2691 16.6336 11.6017 16.8099C11.7465 16.8845 11.8894 16.9554 12.0301 17.0248C15.6501 18.8103 18.1154 19.2535 19.7866 18.4186C20.2023 18.215 20.5741 17.9165 20.8775 17.5429C21.1808 17.1693 21.4088 16.7289 21.5465 16.251C21.8404 15.2466 21.7908 14.1583 21.407 13.1915C21.0232 12.2246 20.3317 11.446 19.463 11.0025C10.83 6.50911 6.04312 8.22226 3.54745 10.4503C2.93039 11.0123 2.45043 11.7352 2.15113 12.5535C1.85183 13.3718 1.74269 14.2596 1.83359 15.1362L2.51928 22.5807L1.22508 22.7337C0.874453 22.7836 0.553787 22.9774 0.327047 23.2765C0.100307 23.5755 -0.0158529 23.9577 0.00174269 24.347C0.0193383 24.7362 0.169402 25.1039 0.421986 25.3766C0.67457 25.6493 1.01112 25.807 1.36452 25.8183C1.41245 25.8184 1.46034 25.8157 1.508 25.8101L4.16071 25.4967C4.34026 25.4748 4.51405 25.4136 4.67188 25.3168C4.82972 25.2199 4.96847 25.0893 5.07994 24.9326C5.30888 24.6115 5.41543 24.2047 5.37707 23.7984L4.54856 14.8146Z" fill="#FC7754"/>
<path d="M34.6172 13.4509L34.5833 13.3217C34.4882 12.8828 34.3088 12.4715 34.0571 12.1156C33.8055 11.7597 33.4875 11.4674 33.1246 11.2586C32.662 11.043 32.1621 10.9416 31.6602 10.9614C31.1582 10.9813 30.6662 11.1219 30.2188 11.3735C26.5954 13.0285 24.5939 13.9992 24.5742 14.0082C24.2389 14.1779 23.9766 14.4847 23.8427 14.8637C23.7088 15.2427 23.7138 15.6643 23.8567 16.0393C23.9242 16.224 24.0245 16.392 24.1518 16.5334C24.2791 16.6747 24.4307 16.7866 24.5978 16.8623C24.7649 16.938 24.9441 16.9761 25.1248 16.9743C25.3055 16.9725 25.484 16.9309 25.6498 16.8518C25.6694 16.8429 27.6487 15.8818 31.2409 14.2403C31.4526 14.1313 31.6806 14.0658 31.9137 14.047C31.9354 14.0974 31.953 14.1499 31.9665 14.2037L32.001 14.3351C32.133 14.7762 32.2303 15.229 32.2921 15.6886C32.2704 15.7005 32.2419 15.7147 32.2067 15.7296L16.0583 22.7734L9.51019 19.3134C9.34694 19.2287 9.16994 19.1808 8.98964 19.1725C8.80934 19.1642 8.62936 19.1958 8.46029 19.2653C8.29121 19.3348 8.13644 19.4409 8.0051 19.5773C7.87375 19.7137 7.76848 19.8777 7.69545 20.0596C7.54174 20.4296 7.52468 20.8511 7.64786 21.2347C7.77103 21.6184 8.02475 21.9342 8.35539 22.1153L15.4295 25.8535C15.5953 25.9414 15.7758 25.9904 15.9596 25.9976C16.1435 26.0048 16.3266 25.97 16.4977 25.8953L33.1848 18.6172C35.6927 17.5256 34.9928 14.8753 34.6172 13.4509Z" fill="#FC7754"/>
<path d="M20.07 8.03214L22.5257 8.43359L22.7457 9.62743C22.7993 9.93183 22.9359 10.211 23.1371 10.4277C23.3383 10.6443 23.5947 10.7881 23.8721 10.8399C23.9419 10.8523 24.0125 10.8586 24.0833 10.8586C24.3269 10.8572 24.5657 10.7835 24.7747 10.6454C24.9837 10.5073 25.1552 10.3099 25.2712 10.0737L25.8235 8.96935L27.534 9.24916C27.816 9.29331 28.1035 9.23851 28.3557 9.09254C28.6079 8.94657 28.8121 8.7168 28.9392 8.43582C29.0704 8.15175 29.1205 7.83059 29.0829 7.51455C29.0453 7.19851 28.9218 6.90241 28.7287 6.66519L27.6389 5.34L28.6048 3.4082C28.7481 3.12127 28.8069 2.79233 28.7731 2.46693C28.7393 2.14153 28.6145 1.83576 28.416 1.59202C28.2214 1.35259 27.9613 1.18961 27.6751 1.12781C27.3889 1.06601 27.0922 1.10875 26.83 1.24955L25.0607 2.20315L23.6534 0.491451C23.4539 0.245957 23.1855 0.0810544 22.8912 0.0230495C22.5968 -0.0349554 22.2933 0.0172572 22.0289 0.171335C21.7619 0.331586 21.5489 0.582327 21.4213 0.886438C21.2936 1.19055 21.2582 1.53187 21.3202 1.8599L21.7148 4.00662L19.6842 5.10196C19.417 5.24939 19.1992 5.48647 19.062 5.77903C18.9248 6.07159 18.8753 6.40456 18.9207 6.73009C18.9602 7.0543 19.0933 7.35593 19.3003 7.59038C19.5073 7.82483 19.7771 7.97968 20.07 8.03214Z" fill="#FC7754"/>
</svg>
