<svg width="35" height="35" viewBox="0 0 35 35" fill="none" xmlns="http://www.w3.org/2000/svg">
<path fill-rule="evenodd" clip-rule="evenodd" d="M26.8898 0.0726648C26.0406 0.235071 25.4317 0.449329 25.2215 0.659751C24.9571 0.924628 24.9558 1.26328 25.2184 1.55754C25.4495 1.81646 25.7417 1.83522 26.3339 1.62932C28.5183 0.86983 31.2109 1.76392 32.5841 3.70478C33.6269 5.17869 33.9146 7.06023 33.3491 8.70826C33.166 9.24185 32.9573 9.70153 32.8983 9.70133C32.877 9.70119 32.7737 9.53646 32.6687 9.33521C32.3105 8.64887 31.617 8.06528 30.8679 7.81993L30.5191 7.70574L30.6904 7.28229C30.8946 6.77754 30.9661 5.84523 30.8487 5.21746C30.6123 3.95239 29.707 3.0507 28.4674 2.84576C27.2779 2.64903 26.0328 3.28599 25.4928 4.36735C25.1085 5.1367 25.0583 6.47616 25.3835 7.28223L25.5541 7.70519L25.3759 7.74931C24.6493 7.92918 23.7719 8.63182 23.4114 9.32254C23.3028 9.53077 23.1949 9.70119 23.1717 9.70133C23.0999 9.7016 22.7147 8.7821 22.5983 8.33235C22.3569 7.39949 22.4 6.15867 22.7045 5.27239C22.8913 4.72901 22.8774 4.47399 22.6471 4.21597C22.5008 4.05199 22.3997 4.00253 22.2107 4.00253C21.7025 4.00253 21.5549 4.20056 21.2879 5.24034C20.9608 6.51451 21.0103 7.9261 21.4257 9.16609L21.5838 9.63804L21.0306 9.93764C20.7264 10.1024 19.3252 10.8537 17.917 11.6071L15.3565 12.977L15.1163 12.6578C14.6467 12.0335 14.111 11.4597 13.6376 11.0739C11.1721 9.06438 7.9512 8.6188 4.96592 9.87421C4.21765 10.1889 3.9932 10.4221 4.04758 10.8282C4.0939 11.1737 4.34872 11.4139 4.66888 11.4139C4.79318 11.4139 5.13414 11.3032 5.42652 11.1679C5.71898 11.0326 6.25435 10.8436 6.61624 10.7478C7.17919 10.5988 7.42259 10.5735 8.30043 10.5722C9.18634 10.571 9.41586 10.5946 9.97997 10.7452C11.3022 11.0982 12.3597 11.6909 13.2402 12.5725C14.1411 13.4746 14.755 14.5443 15.0909 15.7977C15.2423 16.3628 15.2653 16.588 15.2653 17.5101C15.2653 18.4306 15.2421 18.6583 15.0915 19.2225C14.9959 19.5804 14.8162 20.1 14.6922 20.3772L14.4666 20.8813L14.2304 20.4115C13.7543 19.4648 12.7454 18.6691 11.6262 18.3575L11.2142 18.2429L11.3769 17.9621C11.7319 17.3496 11.8417 16.8594 11.8463 15.8662C11.8512 14.8373 11.7563 14.3833 11.4086 13.7711C10.9619 12.9849 10.193 12.3533 9.37071 12.0973C8.82774 11.9282 7.89996 11.916 7.37224 12.071C6.25682 12.3987 5.31221 13.3347 4.96784 14.4538C4.846 14.8497 4.81774 15.1091 4.81774 15.8319C4.81774 16.8039 4.95032 17.4094 5.28211 17.9522L5.44766 18.2232L4.81419 18.4356C4.46577 18.5524 4.02378 18.7488 3.83202 18.872C3.33824 19.1893 2.69416 19.9051 2.42948 20.4309L2.20373 20.8793L2.021 20.4448C1.15815 18.3923 1.16184 16.459 2.03229 14.5382C2.14996 14.2786 2.24614 13.9644 2.24614 13.8398C2.24614 13.3212 1.60226 13.015 1.19228 13.3386C0.795025 13.6521 0.275929 15.0676 0.0859547 16.3554C-0.374856 19.4786 1.04458 22.6652 3.68528 24.4359C5.10767 25.3896 6.57609 25.8299 8.33464 25.8299C11.0989 25.8299 13.4041 24.6518 15.1163 22.364L15.3541 22.0464L18.4485 23.6997C21.1272 25.1308 21.5389 25.3714 21.5128 25.49C21.4963 25.5653 21.3975 25.9352 21.2934 26.3119C21.1242 26.9242 21.1041 27.1095 21.1041 28.0586C21.1041 28.9931 21.126 29.2023 21.287 29.8047C21.9513 32.2908 23.8172 34.152 26.3183 34.8234C26.8918 34.9773 27.1128 35 28.0367 35C28.9607 35 29.1817 34.9773 29.7551 34.8234C33.678 33.7703 35.8704 29.8003 34.6729 25.9183C34.4917 25.3309 34.3097 25.1157 33.9541 25.0682C33.435 24.9989 33.1159 25.4357 33.2704 26.0037C33.3165 26.1732 33.4049 26.4969 33.4669 26.7229C33.7052 27.5921 33.6746 28.8573 33.3947 29.7006C33.2516 30.1319 32.9521 30.7985 32.9016 30.7983C32.8785 30.7982 32.7737 30.6335 32.6687 30.4322C32.3105 29.7459 31.617 29.1623 30.8679 28.9169L30.5191 28.8028L30.6904 28.3793C30.8946 27.8746 30.9661 26.9422 30.8487 26.3145C30.6155 25.066 29.7237 24.1656 28.4985 23.9412C27.3243 23.7262 26.0344 24.3798 25.4928 25.4644C25.1091 26.2325 25.0584 27.5733 25.3824 28.3766L25.552 28.797L25.2722 28.8795C24.5453 29.0939 23.7662 29.7396 23.4095 30.4233C23.3019 30.6294 23.1953 30.7982 23.1726 30.7983C23.0928 30.7986 22.7049 29.8679 22.5874 29.3943C22.4121 28.6875 22.4289 27.3073 22.6215 26.5962C23.0358 25.066 24.2429 23.6357 25.6648 22.9903C26.9823 22.3921 28.4813 22.295 29.7406 22.7262C30.2657 22.906 30.5783 22.8922 30.7904 22.68C31.0014 22.4687 31.0484 22.2562 30.9503 21.9568C30.8532 21.6605 30.6042 21.5213 29.7712 21.2976C29.1775 21.1382 28.9706 21.1168 28.0367 21.1182C27.1194 21.1196 26.8877 21.1435 26.3183 21.2952C25.5251 21.5065 24.787 21.839 24.1275 22.282C23.5806 22.6494 22.7304 23.461 22.4535 23.8799C22.3537 24.0308 22.2531 24.1542 22.2299 24.1539C22.1918 24.1537 16.0635 20.8879 16.0209 20.8451C16.0109 20.8351 16.0918 20.5662 16.2004 20.2474C16.8306 18.3989 16.8037 16.2675 16.1286 14.5525C16.0532 14.3611 16.0004 14.1961 16.0111 14.1859C16.0484 14.1507 22.0639 10.9382 22.1659 10.8991C22.2334 10.8731 22.3302 10.9538 22.4515 11.1373C22.5524 11.2899 22.8659 11.6439 23.1483 11.9238C24.0374 12.8055 25.0602 13.3897 26.2929 13.7199C26.8945 13.8811 27.1034 13.903 28.0367 13.903C28.9701 13.903 29.179 13.8811 29.7806 13.7199C31.9497 13.1388 33.699 11.5975 34.5068 9.55577C35.7202 6.48814 34.6315 2.9922 31.8943 1.1669C30.7472 0.401997 29.6526 0.0542392 28.242 0.0064969C27.6807 -0.0124767 27.216 0.0102642 26.8898 0.0726648ZM23.2556 1.91995C23.1657 1.96982 23.0513 2.08435 23.0015 2.17435C22.6168 2.86918 23.5297 3.52929 24.0735 2.9496C24.5749 2.41526 23.8981 1.56329 23.2556 1.91995ZM28.4814 4.2298C28.8647 4.33611 29.3664 4.85148 29.4736 5.24931C29.5215 5.42685 29.5444 5.79509 29.5275 6.11826C29.503 6.58972 29.4662 6.73103 29.2966 7.00564C28.8625 7.70889 27.9573 7.91349 27.2413 7.47025C26.7588 7.17167 26.5317 6.70466 26.5317 6.01147C26.5317 5.41329 26.6014 5.11608 26.8145 4.8047C27.1798 4.27076 27.8256 4.04808 28.4814 4.2298ZM27.282 8.97855C27.7635 9.11554 28.32 9.1139 28.7914 8.97396C29.3087 8.82046 29.4855 8.82957 30.1917 9.04588C30.7365 9.21274 30.8469 9.27514 31.1508 9.58783C31.5088 9.95607 31.6362 10.247 31.7089 10.8615L31.7483 11.1944L31.4146 11.4399C30.8988 11.8194 30.1021 12.2132 29.5037 12.3846C28.7299 12.6061 27.3481 12.6074 26.5802 12.3874C25.9368 12.2031 25.1912 11.8392 24.6938 11.4668L24.3268 11.192L24.3734 10.7787C24.4774 9.8586 24.9384 9.33425 25.893 9.04999C26.2255 8.95101 26.5283 8.85813 26.5659 8.84361C26.6484 8.81176 26.7896 8.83834 27.282 8.97855ZM2.4461 11.6141C2.10959 11.951 2.20537 12.4783 2.64066 12.6852C3.09367 12.9004 3.5733 12.5765 3.5733 12.0555C3.5733 11.8627 3.52431 11.7637 3.35329 11.6107C3.05153 11.3407 2.7179 11.342 2.4461 11.6141ZM9.27719 13.5405C9.75777 13.7809 10.0681 14.1046 10.2892 14.5958C10.589 15.262 10.5656 16.5485 10.2423 17.1831C9.76201 18.1255 8.57442 18.5737 7.56215 18.1945C7.03977 17.9988 6.66988 17.6537 6.40493 17.1148C6.18759 16.6729 6.17979 16.6279 6.18164 15.8334C6.18335 15.0952 6.20182 14.9706 6.35957 14.6301C6.60468 14.1012 6.90514 13.7841 7.39208 13.5405C7.74829 13.3623 7.88594 13.3318 8.33464 13.3318C8.78334 13.3318 8.92098 13.3623 9.27719 13.5405ZM7.10326 19.5106C7.41603 19.6362 7.61804 19.6622 8.30043 19.6647C8.9963 19.6673 9.18956 19.6431 9.5691 19.5059L10.0168 19.3441L10.6979 19.5261C11.7675 19.812 12.0758 19.958 12.505 20.3822C12.9574 20.8293 13.1605 21.2294 13.2752 21.8992L13.3584 22.3849L13.0185 22.6854C12.1667 23.4386 11.1615 23.9774 10.053 24.2749C9.47962 24.4288 9.25858 24.4515 8.33464 24.4515C7.41069 24.4515 7.18966 24.4288 6.61624 24.2749C5.51053 23.978 4.57769 23.4825 3.69985 22.7254C3.30827 22.3878 3.27838 22.2816 3.41178 21.7027C3.58445 20.9532 4.12106 20.2435 4.74687 19.9369C5.08824 19.7697 6.37982 19.3758 6.62439 19.3644C6.68082 19.3618 6.89632 19.4275 7.10326 19.5106ZM32.0585 23.1199C31.8765 23.2826 31.8366 23.3689 31.8366 23.5993C31.8366 24.222 32.5548 24.4962 32.9692 24.0317C33.2716 23.693 33.1995 23.2177 32.8155 23.019C32.5293 22.8707 32.3032 22.9009 32.0585 23.1199ZM28.4814 25.3268C28.8647 25.4331 29.3664 25.9485 29.4736 26.3463C29.5215 26.5239 29.5444 26.8921 29.5275 27.2153C29.503 27.6867 29.4662 27.828 29.2966 28.1026C28.8625 28.8059 27.9573 29.0105 27.2413 28.5673C26.7588 28.2687 26.5317 27.8017 26.5317 27.1085C26.5317 26.5103 26.6014 26.2131 26.8145 25.9017C27.1798 25.3678 27.8256 25.1451 28.4814 25.3268ZM27.282 30.0756C27.7635 30.2126 28.32 30.2109 28.7914 30.071C29.3087 29.9175 29.4855 29.9266 30.1917 30.1429C30.7365 30.3098 30.8469 30.3722 31.1508 30.6848C31.5083 31.0527 31.6362 31.3441 31.7087 31.9561L31.7477 32.2865L31.3008 32.6058C30.7575 32.9939 30.0135 33.3425 29.3707 33.51C28.7286 33.6773 27.3722 33.6797 26.7027 33.5147C26.1248 33.3723 25.1161 32.8922 24.6597 32.5423L24.327 32.2872L24.3736 31.8748C24.4774 30.9557 24.9387 30.4311 25.893 30.147C26.2255 30.048 26.5283 29.9551 26.5659 29.9406C26.6484 29.9088 26.7896 29.9354 27.282 30.0756Z" fill="#1ECBA1"/>
</svg>
