<svg width="35" height="25" viewBox="0 0 35 25" fill="none" xmlns="http://www.w3.org/2000/svg">
<path fill-rule="evenodd" clip-rule="evenodd" d="M13.6403 0.0775333C10.9318 0.523941 8.72266 1.60135 6.84829 3.39007C6.45929 3.76131 6.42664 3.81533 6.42664 4.08772C6.42664 4.47722 6.70858 4.78421 7.06637 4.78421C7.31909 4.78421 7.44422 4.70053 8.14063 4.06583C9.23782 3.06578 10.9642 2.13274 12.4655 1.72834C15.3261 0.957787 18.0097 1.25365 20.6643 2.63228C21.3426 2.98457 21.5618 3.06839 21.722 3.03695C22.1507 2.95279 22.4001 2.49794 22.2358 2.10006C22.0203 1.57835 19.692 0.564923 17.8236 0.179611C16.9376 -0.00305767 14.4917 -0.0627801 13.6403 0.0775333ZM14.4695 3.32019C12.4252 3.575 10.3343 4.55397 9.13015 5.82002C8.81487 6.15151 8.75395 6.2562 8.75395 6.46626C8.75395 6.82411 9.05574 7.11819 9.42305 7.11819C9.65482 7.11819 9.75715 7.06046 10.164 6.70027C12.3433 4.77089 15.2534 4.15706 17.9407 5.05996C18.9637 5.40368 19.7573 5.86594 20.6878 6.66004C21.143 7.04851 21.2638 7.11819 21.4821 7.11819C21.7809 7.11819 22.0698 6.89241 22.1424 6.60197C22.2139 6.31612 22.025 6.00962 21.4959 5.55285C20.0983 4.34659 18.5408 3.63493 16.7284 3.37476C16.1013 3.28477 14.9725 3.25744 14.4695 3.32019ZM23.3612 3.64468C23.0987 3.90801 23.0642 4.13907 23.2425 4.44166C23.6014 5.05111 24.4975 4.77934 24.4975 4.06109C24.4975 3.79309 24.0953 3.41128 23.813 3.41128C23.6552 3.41128 23.5289 3.4765 23.3612 3.64468ZM2.13515 5.81899C1.35625 5.92333 0.569896 6.522 0.223264 7.27457L0.0265379 7.70169L0.00709804 12.2903C-0.0146007 17.4167 -0.0153536 17.4064 0.447849 18.0851C1.23811 19.2427 2.78057 19.5335 3.94162 18.7438C4.35814 18.4605 4.58587 18.1798 4.83941 17.6372L5.02341 17.2435V12.5069V7.77033L4.8657 7.37891C4.42666 6.28915 3.32468 5.65966 2.13515 5.81899ZM26.3959 5.88859C25.426 6.11774 24.7627 6.92818 24.715 7.94195C24.6836 8.61262 24.8631 9.11649 25.2909 9.55789C25.7447 10.0262 26.2382 10.2287 27.0108 10.2636L27.6417 10.2921L27.6611 13.9395L27.6804 17.5868L27.851 17.9216C28.0871 18.3853 28.4787 18.7686 28.9362 18.9837C29.458 19.229 30.2457 19.2381 30.7675 19.0048C31.401 18.7216 31.8879 18.0823 32.0259 17.3527C32.0671 17.1347 32.0955 15.6195 32.0955 13.6384V10.2923L32.7287 10.2627C33.4986 10.2268 33.9061 10.0644 34.3677 9.60971C34.8299 9.15438 35.0026 8.72719 35 8.04492C34.9985 7.63846 34.9607 7.4133 34.855 7.17846C34.6869 6.80537 34.2999 6.35676 33.9695 6.15199C33.4563 5.83388 33.2218 5.81514 29.8366 5.8216C28.086 5.82496 26.5377 5.8551 26.3959 5.88859ZM14.3056 6.74379C13.1652 6.99195 12.2744 7.45154 11.4831 8.20006C10.6381 8.99952 10.0721 9.94766 9.77262 11.0654C9.56652 11.8348 9.56713 13.168 9.77399 13.9485C10.3247 16.0265 11.9923 17.6727 14.0588 18.1785C14.8976 18.3838 16.0869 18.3829 16.8653 18.1762C18.9244 17.6295 20.4968 16.0764 21.0898 14.0033C21.2177 13.5563 21.2425 13.3039 21.2401 12.4726C21.2375 11.5882 21.2163 11.4084 21.0494 10.8594C20.4839 8.99897 19.1361 7.58169 17.3311 6.94925C16.4237 6.63135 15.2035 6.54849 14.3056 6.74379ZM3.08366 7.29825C3.32276 7.41873 3.53448 7.69482 3.62374 8.0027C3.67165 8.16814 3.68876 9.7177 3.67501 12.6493L3.6544 17.0478L3.48328 17.3011C3.28402 17.5961 2.85846 17.827 2.51416 17.827C2.1344 17.827 1.70193 17.5589 1.51752 17.2093L1.35844 16.9077L1.37699 12.4023L1.39554 7.89685L1.58659 7.64574C1.9595 7.15547 2.53503 7.02188 3.08366 7.29825ZM33.2356 7.33079C33.8019 7.68178 33.8035 8.42309 33.2387 8.76845C33.0515 8.88295 32.8916 8.90252 32.1423 8.90273C31.2352 8.903 31.0565 8.94446 30.8478 9.20278C30.7389 9.3376 30.7294 9.65598 30.728 13.2174C30.7266 16.6865 30.7147 17.1104 30.6122 17.3271C30.3566 17.8673 29.6862 17.9825 29.2636 17.5587L29.0494 17.344L29.0152 13.331L28.981 9.3179L28.7913 9.12761C28.6051 8.94082 28.583 8.93664 27.5934 8.9019C26.8951 8.87733 26.5403 8.83689 26.4392 8.77024C26.2191 8.62519 26.0719 8.32953 26.0719 8.03242C26.0719 7.72331 26.2066 7.50268 26.5077 7.3185C26.7106 7.19446 26.8918 7.18732 29.8628 7.18711C32.9324 7.18684 33.0087 7.19006 33.2356 7.33079ZM16.5156 8.14597C17.3353 8.35623 17.9454 8.71031 18.5832 9.34597C19.53 10.2896 19.9603 11.4095 19.8911 12.7504C19.8319 13.898 19.4199 14.8113 18.5766 15.664C17.7391 16.5107 16.6695 16.9558 15.4621 16.96C14.6667 16.9626 14.2236 16.8626 13.5112 16.5195C12.557 16.0599 11.8836 15.3847 11.4264 14.429C11.0719 13.688 10.9785 13.2573 10.9871 12.404C10.9961 11.5021 11.2063 10.7967 11.6852 10.061C12.7353 8.4478 14.6825 7.67581 16.5156 8.14597ZM15.0363 10.0027C14.2429 10.1386 13.5186 10.6872 13.1565 11.4265C12.986 11.7748 12.9636 11.8962 12.9636 12.4736C12.9636 13.0718 12.9824 13.1651 13.1861 13.5804C13.598 14.4203 14.3688 14.9382 15.2955 14.9978C16.9042 15.1014 18.1648 13.6927 17.9118 12.0745C17.6995 10.7171 16.387 9.77145 15.0363 10.0027ZM16.0247 11.4851C16.3331 11.645 16.5731 12.0711 16.5731 12.4589C16.5731 13.4349 15.5069 13.9881 14.7466 13.4065C14.3363 13.0927 14.1713 12.4352 14.395 12.0058C14.7167 11.3883 15.4105 11.1665 16.0247 11.4851ZM9.16465 17.9031C8.71767 18.079 8.61657 18.6264 8.95895 19.0174C9.40573 19.5278 10.5145 20.3186 11.4399 20.7871C13.5118 21.836 16.4601 21.9723 18.669 21.1212C20.0435 20.5916 21.6785 19.4853 22.0535 18.8309C22.3515 18.311 21.8212 17.6764 21.2658 17.8882C21.1695 17.9249 20.8974 18.1278 20.6614 18.3391C18.7009 20.0933 15.9739 20.7383 13.4086 20.0543C12.1827 19.7275 11.3134 19.2539 10.1914 18.3012C9.62162 17.8175 9.50094 17.7708 9.16465 17.9031ZM6.92817 20.2153C6.44909 20.2879 6.25051 21.0011 6.61488 21.3402C6.8626 21.5707 7.08136 21.6169 7.364 21.4985C7.62931 21.3873 7.82309 21.0154 7.75581 20.7465C7.66812 20.3963 7.29869 20.1591 6.92817 20.2153ZM23.5734 20.2639C23.4605 20.3157 23.1217 20.5781 22.8205 20.8471C19.8917 23.4628 15.6592 24.3304 11.9308 23.0792C11.198 22.8333 10.2992 22.4225 9.73415 22.0752C9.45276 21.9023 9.15308 21.7753 8.9797 21.7555C8.72821 21.7269 8.66578 21.7491 8.48343 21.932C8.1739 22.2424 8.19115 22.5738 8.53374 22.9004C8.80398 23.1579 10.1088 23.8617 10.8771 24.1643C11.5242 24.4192 12.6553 24.7316 13.4428 24.873C14.3908 25.0432 16.3755 25.0421 17.4129 24.8709C19.8947 24.4612 22.2311 23.3108 24.004 21.6255C24.4447 21.2065 24.4975 21.1289 24.4975 20.9C24.4975 20.7148 24.4453 20.5881 24.3093 20.4433C24.0782 20.1973 23.8435 20.1401 23.5734 20.2639Z" fill="#C51BE0"/>
</svg>
