<svg width="35" height="35" viewBox="0 0 35 35" fill="none" xmlns="http://www.w3.org/2000/svg">
<path fill-rule="evenodd" clip-rule="evenodd" d="M16.7824 0.0685904C16.5944 0.118876 16.3637 0.191739 16.2697 0.230599C16.1757 0.269391 12.5458 2.41177 8.20319 4.99133C2.3079 8.49327 0.268654 9.737 0.15381 9.90045C0.00389651 10.1138 0 10.1642 0 11.8915C0 13.2966 0.0203029 13.7029 0.0980281 13.8532C0.290735 14.2263 0.329495 14.2358 1.8047 14.2725L3.17874 14.3067L3.19617 21.4578L3.21353 28.6089L2.71033 28.6891C1.43002 28.8929 0.434837 29.8029 0.104659 31.0715C0.0259084 31.3742 0.000615239 31.8383 0.0023926 32.9473C0.00505863 34.5431 0.0227638 34.6333 0.38056 34.8694C0.577436 34.9993 0.889021 35.0016 17.5001 34.9997C31.1299 34.9981 34.4499 34.9807 34.5771 34.91C34.664 34.8617 34.7945 34.732 34.8672 34.6217C34.9875 34.439 34.9994 34.2888 34.9998 32.9473C35.0003 31.3095 34.9449 30.9585 34.5769 30.2674C34.3152 29.776 33.7017 29.1936 33.1911 28.9518C32.9824 28.853 32.5809 28.7354 32.2991 28.6905L31.7867 28.6089L31.8041 21.4578L31.8215 14.3067L33.1956 14.2725C34.6708 14.2358 34.7095 14.2263 34.9022 13.8532C34.98 13.7029 35.0002 13.2979 35 11.8985C34.9998 10.3007 34.9878 10.1136 34.8731 9.92542C34.7754 9.76519 32.9227 8.63393 26.7898 4.98989C22.4136 2.3896 18.6793 0.208638 18.4914 0.143232C18.0465 -0.0115932 17.2177 -0.0477852 16.7824 0.0685904ZM18.0518 1.67513C18.1431 1.71119 21.6325 3.77147 25.8059 6.25353L33.3938 10.7663L33.4128 11.7326L33.4318 12.6989H17.5001H1.56852L1.58752 11.7337L1.60646 10.7686L7.92975 7.01049C11.4076 4.9435 14.8048 2.92256 15.4791 2.51946C16.1534 2.11642 16.8456 1.73233 17.0172 1.6661C17.3353 1.54323 17.7264 1.54672 18.0518 1.67513ZM16.6115 4.89171C15.8257 5.14595 15.2305 5.58114 14.8439 6.18416C13.5971 8.12868 14.7277 10.6774 17.0109 11.0693C18.2972 11.29 19.6639 10.6118 20.2795 9.44712C20.567 8.90342 20.6557 8.54102 20.6544 7.91666C20.6513 6.45728 19.7058 5.23516 18.2863 4.85566C17.8152 4.72977 17.0619 4.74592 16.6115 4.89171ZM18.2368 6.5337C19.0005 6.9236 19.2892 7.85802 18.8923 8.65521C18.3105 9.82362 16.6739 9.81075 16.0983 8.63325C15.7565 7.93417 15.944 7.11147 16.5471 6.6641C17.0174 6.31524 17.7049 6.26215 18.2368 6.5337ZM7.92975 21.4562V28.6399H6.35747H4.78519V21.4562V14.2725H6.35747H7.92975V21.4562ZM14.2872 21.4562V28.6399H11.9288H9.57039V21.4562V14.2725H11.9288H14.2872V21.4562ZM19.0724 21.4562V28.6399H17.5001H15.9279V21.4562V14.2725H17.5001H19.0724V21.4562ZM25.4299 21.4562V28.6399H23.0715H20.7131V21.4562V14.2725H23.0715H25.4299V21.4562ZM30.2151 21.4562V28.6399H28.6428H27.0705V21.4562V14.2725H28.6428H30.2151V21.4562ZM32.2316 30.289C32.5989 30.3815 33.0401 30.748 33.241 31.1273C33.3717 31.374 33.3944 31.5415 33.4158 32.4198L33.4405 33.429H17.5001H1.55977L1.58424 32.4198C1.604 31.6036 1.63284 31.3649 1.73497 31.1713C1.97157 30.7229 2.33285 30.4202 2.80235 30.2773C3.08994 30.1898 31.8832 30.2012 32.2316 30.289Z" fill="#BCAC19"/>
</svg>
