<svg width="23" height="35" viewBox="0 0 23 35" fill="none" xmlns="http://www.w3.org/2000/svg">
<path fill-rule="evenodd" clip-rule="evenodd" d="M2.85105 0.0843676C1.49412 0.410215 0.456989 1.41307 0.0938211 2.75052C0.0178126 3.03027 0.000728011 5.58787 3.06848e-05 16.741C-0.000736374 28.6854 0.0123038 30.4385 0.104351 30.785C0.426237 31.9971 1.36442 32.9801 2.57428 33.3729C3.00613 33.5132 3.18772 33.5233 5.72194 33.5484L8.41132 33.5751L9.10397 34.1589C9.92005 34.8468 10.1541 35 10.3894 35C10.6668 35 10.9937 34.7637 11.0829 34.4986C11.2357 34.0446 11.1386 33.9376 8.74109 31.917C7.51902 30.8872 6.44862 29.976 6.3623 29.8923C6.12346 29.6606 6.14529 29.2351 6.40923 28.9762C6.52958 28.8581 6.68704 28.7763 6.79366 28.7763C6.89296 28.7763 7.71727 29.0379 8.6254 29.3576C9.53353 29.6774 10.3348 29.939 10.4062 29.939C10.6478 29.939 10.9575 29.7264 11.0573 29.4921C11.1398 29.2983 11.1564 28.4371 11.1564 24.3418C11.1564 19.5151 11.159 19.4209 11.297 19.2489C11.5063 18.9879 11.8521 18.8959 12.156 19.0204C12.2904 19.0755 12.4421 19.1924 12.4932 19.2802C12.5665 19.4066 12.5932 20.3342 12.6208 23.7264L12.6557 28.0129L12.8237 28.1884C13.1605 28.5399 13.8149 28.4625 14.0072 28.0484C14.0574 27.9404 14.0852 27.3212 14.0852 26.3085C14.0852 24.5634 14.1257 24.3511 14.4947 24.1639C14.7614 24.0286 14.943 24.0286 15.2098 24.1639C15.5788 24.3511 15.6193 24.5634 15.6193 26.3085C15.6193 27.3212 15.6471 27.9404 15.6973 28.0484C15.8896 28.4625 16.5439 28.5399 16.8808 28.1885C17.0441 28.0181 17.0498 27.9748 17.0837 26.6335C17.1208 25.1646 17.1513 25.0312 17.4842 24.8824C17.7932 24.7443 18.124 24.793 18.3442 25.0091L18.5481 25.209V26.4819C18.5481 27.9046 18.6018 28.1467 18.9575 28.3272C19.2243 28.4625 19.4059 28.4625 19.6727 28.3272C20.0027 28.1598 20.0822 27.8774 20.0822 26.8725C20.0822 25.8774 20.1487 25.7093 20.6003 25.5631C20.8919 25.4687 21.2768 25.602 21.419 25.8464C21.4923 25.9728 21.519 26.9004 21.5466 30.2926L21.5814 34.5791L21.7495 34.7546C22.0926 35.1127 22.7577 35.0247 22.9382 34.5973C22.9921 34.4698 23.0091 33.0995 22.9955 30.0056L22.9761 25.5958L22.8162 25.302C22.4515 24.632 21.8123 24.1736 21.1169 24.0831L20.7813 24.0394L20.7629 13.4293L20.7446 2.81926L20.5906 2.41927C20.1804 1.35383 19.3503 0.550773 18.2691 0.173216L17.8159 0.0149437L10.5288 0.00276885C4.55908 -0.00721724 3.17112 0.0075567 2.85105 0.0843676ZM5.15941 1.82414C5.15941 2.7025 5.39441 3.29114 5.94306 3.78723C6.54479 4.33126 6.48433 4.32401 10.4242 4.32401H13.9109L14.2783 4.16109C14.7377 3.95747 15.2831 3.38648 15.4435 2.94142C15.5084 2.76133 15.5788 2.34478 15.6001 2.01558L15.6386 1.4171H16.3926C17.2715 1.4171 17.7758 1.50506 18.1645 1.72605C18.5584 1.94999 18.9326 2.35142 19.1199 2.75086L19.2803 3.09285L19.2986 13.4664L19.3169 23.8399L18.8248 23.5923C18.4022 23.3796 18.2661 23.3447 17.8604 23.3447C17.5828 23.3447 17.2593 23.3929 17.0754 23.4618L16.7626 23.579L16.409 23.2447C15.902 22.7653 15.4121 22.5959 14.6605 22.6399L14.0852 22.6737V21.5527V20.4317H14.4932C15.0102 20.4317 15.2988 20.3331 15.4518 20.1041C15.5415 19.9699 15.6587 19.247 15.9086 17.2878C16.0936 15.8382 16.2454 14.629 16.2459 14.6008C16.2465 14.5726 16.3082 14.5495 16.3831 14.5495C17.0066 14.5495 17.3 13.7429 16.8331 13.3122C16.6626 13.1549 16.6045 13.1463 15.5616 13.1242L14.4687 13.1011L13.4248 11.7294C12.2785 10.223 12.1281 10.0952 11.6745 10.242C11.3537 10.3459 11.1564 10.6078 11.1564 10.93C11.1564 11.1545 11.2583 11.3245 11.8883 12.1519L12.6202 13.1131H10.3894H8.15854L8.89038 12.1519C9.52042 11.3245 9.6223 11.1545 9.6223 10.93C9.6223 10.6078 9.42502 10.3459 9.10418 10.242C8.65064 10.0952 8.50023 10.223 7.35389 11.7294L6.31 13.1011L5.21715 13.1242C4.17423 13.1463 4.11607 13.1549 3.94557 13.3122C3.47871 13.7429 3.77215 14.5495 4.39563 14.5495C4.47052 14.5495 4.53223 14.5726 4.53279 14.6008C4.53997 14.9668 5.22698 19.958 5.28479 20.0639C5.46616 20.3964 5.70144 20.4317 7.73261 20.4317H9.6223V24.2945V28.1573L9.43053 28.0834C9.32509 28.0427 8.78962 27.8588 8.24061 27.6747C6.97713 27.2509 6.52721 27.2273 5.86922 27.5498C4.78955 28.079 4.37289 29.3022 4.90746 30.3739C5.06834 30.6965 5.24797 30.8907 5.85492 31.3986L6.60392 32.0252L4.96987 32.0435C4.0024 32.0544 3.22684 32.0331 3.06861 31.9913C2.69283 31.8921 2.17123 31.5304 1.90234 31.1828C1.4308 30.5731 1.4603 31.5904 1.48032 16.6329L1.49845 3.09285L1.65876 2.75086C1.83511 2.37474 2.20525 1.96647 2.57282 1.74254C2.93717 1.52066 3.44224 1.42928 4.34005 1.42291L5.15941 1.4171V1.82414ZM14.0852 1.91483C14.0852 2.48541 13.9881 2.67767 13.625 2.82651C13.2835 2.96645 7.49517 2.96645 7.15369 2.82651C6.79059 2.67767 6.69353 2.48541 6.69353 1.91483V1.4171H10.3894H14.0852V1.91483ZM14.7138 14.7034C14.7144 14.7881 14.599 15.7729 14.4574 16.8921C14.174 19.132 14.1402 19.2225 13.8132 18.6179C13.6073 18.2372 13.1953 17.8641 12.7688 17.672C12.2661 17.4456 11.4544 17.4652 10.9331 17.7163C10.5095 17.9204 9.92919 18.486 9.85799 18.7642L9.81636 18.927H8.19759H6.57881L6.32129 16.8921C6.17967 15.7729 6.06433 14.7881 6.06489 14.7034L6.06593 14.5495H10.3894H14.7128L14.7138 14.7034Z" fill="#C73232"/>
</svg>
