<svg width="45" height="35" viewBox="0 0 45 35" fill="none" xmlns="http://www.w3.org/2000/svg">
<path fill-rule="evenodd" clip-rule="evenodd" d="M11.1555 3.73131C3.01333 6.61632 0.5961 7.50527 0.403165 7.68559C0.0923925 7.97604 -0.0598278 8.45127 0.0217785 8.87598C0.148321 9.53392 0.297552 9.60829 4.57625 11.1447L8.51077 12.5575L8.51147 16.8145C8.51191 19.1558 8.53811 21.1976 8.56977 21.3518C8.65067 21.7466 9.61298 22.7136 10.4833 23.2748C13.3816 25.1436 17.3733 25.9945 22.6669 25.872C26.5215 25.7828 29.3211 25.2383 31.7832 24.0989C33.1312 23.4751 34.4199 22.5773 34.9616 21.8847L35.2014 21.5781L35.2453 17.1199L35.2893 12.6618L36.8282 12.1176C37.6746 11.8183 38.3968 11.5729 38.4331 11.5722C38.4694 11.5716 38.499 13.9722 38.499 16.9068V22.2425L36.6165 24.0911C33.9529 26.7066 33.9532 26.4589 36.6114 29.0703L38.4888 30.9148L38.5159 32.5601C38.5409 34.0759 38.5576 34.2244 38.7281 34.4473C39.2919 35.1842 40.3443 35.1842 40.9081 34.4473C41.0788 34.2243 41.0952 34.0769 41.1192 32.5601L41.1451 30.9148L42.9352 29.1563C43.9198 28.1891 44.7886 27.2742 44.8659 27.1233C45.0447 26.774 45.0447 26.3917 44.8659 26.0424C44.7886 25.8914 43.9178 24.976 42.9307 24.008L41.1359 22.2481L41.1585 16.4202L41.1811 10.5922L42.3696 10.1595C43.8722 9.61232 43.9316 9.57733 44.1421 9.11316C44.3722 8.60551 44.2961 8.13594 43.9194 7.74186C43.6681 7.47885 42.6958 7.11848 33.0735 3.72179C24.3187 0.631253 22.4311 -0.00782011 22.0812 7.17969e-05C21.7603 0.00736323 19.1384 0.902751 11.1555 3.73131ZM30.5846 5.58025C35.1552 7.19217 38.9226 8.53379 38.9565 8.5615C38.9905 8.58929 35.1578 9.96909 30.4394 11.6278L21.8603 14.6435L13.5123 11.628C7.70244 9.52937 5.21204 8.59273 5.32135 8.54735C5.98633 8.27104 21.9618 2.66144 22.0986 2.65613C22.1954 2.65244 26.0141 3.96824 30.5846 5.58025ZM16.352 15.4067C20.4058 16.8783 21.5662 17.2676 21.8788 17.2607C22.1575 17.2545 23.7914 16.7164 27.4044 15.4408C30.2259 14.4448 32.5508 13.6298 32.5707 13.6298C32.5908 13.6298 32.6072 15.1904 32.6072 17.0977V20.5656L32.2961 20.8157C30.7722 22.041 27.746 22.9556 24.2639 23.2432C22.751 23.3682 19.6242 23.3033 18.2734 23.1191C15.3333 22.7179 12.8826 21.9098 11.5946 20.9166L11.1504 20.5741V17.0591C11.1504 15.1258 11.1663 13.544 11.1857 13.544C11.2051 13.544 13.53 14.3822 16.352 15.4067ZM40.8299 25.6398L41.7947 26.5839L40.8064 27.5479L39.8181 28.512L38.8298 27.5479L37.8415 26.5839L38.8063 25.6398C39.337 25.1205 39.7923 24.6956 39.8181 24.6956C39.844 24.6956 40.2992 25.1205 40.8299 25.6398Z" fill="#9FC82A"/>
</svg>
