<svg width="40" height="29" viewBox="0 0 40 29" fill="none" xmlns="http://www.w3.org/2000/svg">
<path fill-rule="evenodd" clip-rule="evenodd" d="M9.54099 0.0220572C6.96679 0.30147 4.83552 1.32018 3.04959 3.1248C1.49974 4.69085 0.563287 6.43691 0.142882 8.54429C-0.0479268 9.50052 -0.0475357 11.5619 0.143508 12.4579C0.461861 13.9507 1.04617 15.3323 1.8629 16.5232C2.44588 17.3733 3.76817 18.6604 4.63502 19.2218L5.35728 19.6894V22.8726V26.0557H7.7671H10.1769L10.3566 26.4887C11.0707 28.209 12.9717 29.2563 14.8164 28.9456C16.1043 28.7287 17.276 27.833 17.8495 26.6272L18.1213 26.0557H22.6818H27.2424L27.5336 26.6609C28.349 28.3558 30.2202 29.2947 32.0236 28.9139C33.3315 28.6377 34.3391 27.8562 34.8925 26.6889L35.1907 26.0599L37.5953 26.0578L40 26.0557V22.6977V19.3398H39.6582H39.3164L39.2354 18.7057C39.0748 17.4499 38.3829 16.4833 37.263 15.9504L36.7547 15.7085L34.2226 15.6695L31.6905 15.6304L30.7621 12.9362C30.2515 11.4545 29.7422 9.98735 29.6304 9.67592L29.4271 9.10975H25.1853H20.9436L20.8165 8.4655C20.1014 4.83884 17.5016 1.84003 13.9984 0.60103C13.6113 0.464135 12.9779 0.284602 12.5908 0.202059C11.9004 0.0548558 10.1764 -0.0468978 9.54099 0.0220572ZM11.6915 2.42939C13.4121 2.6903 14.8223 3.37618 16.0864 4.567C17.2061 5.62186 18.0357 6.98987 18.3797 8.3489C18.4476 8.61707 18.521 8.89726 18.5429 8.97161C18.5797 9.09655 18.4484 9.10835 16.8067 9.12779L15.0306 9.1488L14.4951 11.5306C14.2006 12.8406 13.8686 14.3058 13.7573 14.7867L13.555 15.6609L11.2352 15.6854C9.02299 15.7086 8.89459 15.7181 8.46628 15.8902C7.85703 16.135 7.18122 16.6633 6.80633 17.1876C6.63562 17.4264 6.48297 17.6218 6.46725 17.6218C6.45145 17.6218 6.17752 17.4416 5.85854 17.2214C2.64341 15.0019 1.44382 10.8351 2.99187 7.26405C4.46157 3.87378 8.05346 1.87767 11.6915 2.42939ZM9.34549 7.1965V9.34403H7.93788H6.53028V10.5154V11.6868H9.11089H11.6915V8.36788V5.04898H10.5185H9.34549V7.1965ZM21.5056 13.561V15.6304L18.7491 15.651C17.233 15.6622 15.9924 15.6446 15.9922 15.6119C15.9918 15.545 16.8457 11.7031 16.8952 11.5489C16.92 11.4716 17.4244 11.4546 19.2162 11.4709L21.5056 11.4916V13.561ZM28.459 13.4634C28.8411 14.5694 29.1697 15.5182 29.1894 15.5718C29.2175 15.6488 28.6586 15.6695 26.5579 15.6695H23.8907V13.561V11.4525H25.8277H27.7646L28.459 13.4634ZM36.3997 18.14C36.8561 18.4092 36.9086 18.6124 36.9367 20.2183L36.9624 21.6825H37.3082H37.654V22.6977V23.7129H36.4212H35.1884L34.9244 23.1467C34.6154 22.4839 33.792 21.614 33.1516 21.2738C31.5867 20.4424 29.575 20.7614 28.3058 22.0421C27.884 22.4679 27.3316 23.3652 27.3316 23.6249C27.3316 23.6892 26.0834 23.7129 22.697 23.7129H18.0624L17.9265 23.3307C17.6467 22.5441 16.8201 21.6646 15.9534 21.2314C15.1405 20.8251 13.9817 20.7051 13.1093 20.937C11.9698 21.2398 10.9165 22.1095 10.4329 23.1467L10.1689 23.7129H8.93611H7.70328V22.6977V21.6825H8.04635H8.38934L8.42163 20.3354C8.4465 19.295 8.48247 18.935 8.57944 18.7541C8.73498 18.4639 9.01001 18.2024 9.26737 18.0999C9.39437 18.0494 14.1405 18.0204 22.823 18.0171C35.0559 18.0126 36.2014 18.023 36.3997 18.14ZM14.8025 23.2872C15.5015 23.578 15.9834 24.3799 15.8858 25.0901C15.6903 26.5145 14.0928 27.149 13.0171 26.2296C11.7821 25.1739 12.4907 23.1666 14.0987 23.1663C14.3258 23.1663 14.6425 23.2207 14.8025 23.2872ZM32.1684 23.4226C32.8294 23.8595 33.1303 24.7242 32.8822 25.4747C32.6397 26.2085 31.7779 26.7536 31.0236 26.6504C30.2757 26.548 29.6028 25.9104 29.4807 25.1883C29.3599 24.4749 29.8186 23.6248 30.4943 23.3093C30.969 23.0878 31.7406 23.14 32.1684 23.4226Z" fill="#09C928"/>
</svg>
