<svg width="50" height="50" viewBox="0 0 50 50" fill="none" xmlns="http://www.w3.org/2000/svg">
<path fill-rule="evenodd" clip-rule="evenodd" d="M12.4057 0.136207C11.4926 0.421083 10.738 1.03832 10.3324 1.83208C9.99384 2.49464 9.93151 3.24464 9.93151 6.65564V9.95926H6.6227C4.66243 9.95926 3.0772 10.0025 2.73327 10.0655C1.60342 10.272 0.759295 10.9314 0.257828 11.9991L0 12.5482V24.1758V35.8035L0.321624 36.4557C0.706947 37.2371 1.31076 37.8034 2.08933 38.1132C2.62123 38.3248 2.77838 38.3344 6.28669 38.368L9.93151 38.4029V42.5296C9.93151 45.0793 9.97211 46.8779 10.0379 47.2361C10.2447 48.3641 10.9052 49.2069 11.9746 49.7076L12.5245 49.965L24.7986 49.9909C35.7386 50.0141 37.1304 50.0001 37.6038 49.8628C38.8794 49.4925 39.7161 48.5592 39.9617 47.233C40.0281 46.8749 40.0685 45.0929 40.0685 42.5296V38.4029L43.7133 38.368C47.2216 38.3344 47.3788 38.3248 47.9107 38.1132C48.6892 37.8034 49.2931 37.2371 49.6784 36.4557L50 35.8035V32.431C50 29.1536 49.994 29.0472 49.7869 28.6611C49.4862 28.1 48.8963 27.6028 48.2409 27.358C46.8796 26.8495 46.1261 25.9463 45.8938 24.5445C45.8129 24.0561 45.9817 23.1551 46.2546 22.6187C46.5912 21.957 47.3071 21.354 48.1666 21.008C48.9836 20.6793 49.4806 20.2647 49.818 19.631C49.9853 19.3167 50 19.017 50 15.9186V12.5482L49.7422 11.9991C49.2407 10.9314 48.3966 10.272 47.2667 10.0655C46.9228 10.0025 45.3376 9.95926 43.3773 9.95926H40.0685V6.65564C40.0685 4.6868 40.0253 3.11901 39.9617 2.77532C39.7173 1.45527 38.8879 0.525323 37.6196 0.1492C37.1549 0.0114516 35.7634 -0.00486335 24.9577 0.000998306C15.2051 0.00627379 12.7369 0.0328466 12.4057 0.136207ZM17.6125 3.05492C18.5824 4.04837 19.1252 4.52659 19.4716 4.69306L19.9609 4.92801H25H30.0391L30.6053 4.64177C31.0379 4.42313 31.473 4.03704 32.4496 3.00539L33.7277 1.65525H35.3608C36.8614 1.65525 37.0287 1.67303 37.4247 1.87507C37.9321 2.13396 38.1889 2.45449 38.3114 2.98165C38.3604 3.19247 38.4015 4.84868 38.4027 6.66208L38.4051 9.95926H25H11.5949L11.5973 6.66208C11.5985 4.84868 11.6396 3.19247 11.6886 2.98165C11.8111 2.45449 12.0679 2.13396 12.5753 1.87507C12.9704 1.67362 13.1411 1.65516 14.6245 1.65359L16.2427 1.65184L17.6125 3.05492ZM31.1591 1.92391C29.8353 3.43651 30.3684 3.31606 25 3.31606C19.6316 3.31606 20.1647 3.43651 18.8409 1.92391L18.6058 1.65525H25H31.3942L31.1591 1.92391ZM40.0469 13.0809C40.0695 14.2534 40.1026 14.5245 40.2426 14.6797C40.4966 14.9613 40.8038 15.0457 41.1441 14.9273C41.6374 14.7556 41.7319 14.4365 41.7319 12.9438V11.6201L44.2025 11.6224C45.5614 11.6237 46.8459 11.6647 47.057 11.7136C47.585 11.8359 47.9061 12.0923 48.1654 12.599C48.3791 13.0165 48.3855 13.1145 48.3855 15.9261C48.3855 19.244 48.4084 19.1505 47.5161 19.471C46.8055 19.726 45.9586 20.2985 45.4672 20.8559C44.9064 21.4921 44.4102 22.5481 44.2679 23.4086C43.8965 25.6542 45.2908 28.0516 47.4187 28.8264C48.4182 29.1902 48.3858 29.0697 48.3834 32.4177C48.3809 35.6598 48.3419 35.8804 47.6876 36.3464C47.3607 36.5791 47.3364 36.5811 44.545 36.6096L41.7319 36.6383V35.3592C41.7319 33.9333 41.638 33.6099 41.1674 33.4153C40.9613 33.33 40.8135 33.3273 40.6081 33.4053C40.1155 33.5924 40.075 33.7305 40.0716 35.2384L40.0685 36.6312L21.3552 36.6061L2.64188 36.5809L2.31243 36.3464C2.13131 36.2173 1.90108 35.9316 1.80088 35.7114C1.62671 35.3284 1.61869 34.8235 1.61663 24.1701L1.61448 13.0292L1.83464 12.599C2.08571 12.1084 2.42123 11.8305 2.89853 11.7179C3.08023 11.6749 11.5068 11.6463 21.6243 11.6544L40.0196 11.6689L40.0469 13.0809ZM12.0836 14.2501C11.0302 14.5757 10.7732 14.9272 9.60841 17.6335L8.60157 19.9729L7.2362 20.0223C5.78229 20.0748 5.58532 20.1307 4.93904 20.6737C4.76341 20.8212 4.51644 21.1635 4.39012 21.4343C4.16301 21.9212 4.16037 21.9652 4.15949 25.3248C4.15841 29.1131 4.16732 29.1737 4.79951 29.6551C5.11057 29.8919 5.27798 29.941 5.87798 29.9713L6.58816 30.0071L6.70108 30.6563C6.76341 31.0146 6.95939 31.579 7.13836 31.916L7.46272 32.5266H6.45538H5.44795L5.18591 32.8375C4.868 33.2147 4.90607 33.6311 5.28914 33.9676L5.53933 34.1874H20.7539C36.9777 34.1874 36.4063 34.2034 36.5831 33.7434C36.7287 33.3646 36.6446 32.9323 36.386 32.7291C36.1645 32.5551 35.9914 32.5266 35.155 32.5266H34.1817L34.3848 32.1984C34.6671 31.7424 34.8893 31.1011 34.9652 30.5239L35.0294 30.0354L35.7143 29.9866C36.5696 29.9256 36.9919 29.6913 37.302 29.1061C37.5342 28.6677 37.5342 28.6677 37.5049 25.5903L37.4755 22.513L37.2164 21.9612C36.8865 21.2586 36.2857 20.6587 35.582 20.3293C35.0362 20.0738 34.9961 20.07 32.3386 20.0218L29.6477 19.9729L28.3268 17.675C27.6003 16.4111 26.9101 15.2438 26.793 15.0811C26.6758 14.9183 26.3456 14.6555 26.0591 14.4971L25.5382 14.209L18.9335 14.1916C15.3009 14.182 12.2184 14.2084 12.0836 14.2501ZM18.3464 17.9213V20.0218H17.3209H16.2954L15.506 18.8452C14.6945 17.636 14.4327 17.4115 13.9691 17.5276C13.6011 17.6199 13.3562 17.9345 13.3562 18.3151C13.3562 18.562 13.4817 18.847 13.7973 19.3165L14.2384 19.9729L12.3644 19.9995C11.3337 20.0141 10.4753 20.0111 10.4569 19.9928C10.3688 19.9047 12.027 16.2374 12.2439 16.0407C12.4841 15.8231 12.515 15.8209 15.4164 15.8209H18.3464V17.9213ZM25.2291 15.9294C25.3897 16.0024 25.7804 16.5833 26.4281 17.7123C26.9564 18.6332 27.472 19.5297 27.5739 19.7043L27.7591 20.0218H26.1972H24.6353L23.919 18.94C23.1482 17.7762 22.8585 17.4817 22.4841 17.4817C22.1514 17.4817 21.6732 17.982 21.6732 18.3301C21.6732 18.4964 21.8493 18.8694 22.1135 19.2626C22.3557 19.6231 22.5538 19.9413 22.5538 19.9699C22.5538 19.9984 21.9814 20.0218 21.2818 20.0218H20.0098V17.9213V15.8209H22.5003C24.1163 15.8209 25.0745 15.859 25.2291 15.9294ZM40.3263 16.9027C40.0863 17.0911 40.0685 17.1589 40.0685 17.884C40.0685 18.5808 40.0938 18.6882 40.3087 18.9027C40.6383 19.2318 41.1295 19.2265 41.4458 18.8904C41.6523 18.6709 41.683 18.5457 41.683 17.9213C41.683 17.297 41.6523 17.1718 41.4458 16.9523C41.1516 16.6396 40.6875 16.619 40.3263 16.9027ZM40.5666 20.9098C40.1679 21.069 40.075 21.29 40.0716 22.0869C40.068 22.9607 40.2145 23.2203 40.7608 23.3075C41.0409 23.3523 41.1661 23.3156 41.3894 23.1239C41.6268 22.9201 41.6749 22.7948 41.7119 22.2833C41.7642 21.5611 41.6144 21.1417 41.2338 20.9453C40.9198 20.7832 40.8881 20.7814 40.5666 20.9098ZM18.3464 25.0042V28.3258H16.4966H14.6468L14.3965 27.8994C14.021 27.2597 13.2949 26.5976 12.5881 26.2501C12.0508 25.986 11.8238 25.9342 11.0564 25.9007C9.93033 25.8515 9.28708 26.0237 8.44335 26.6002C8.01693 26.8915 7.69256 27.2212 7.38777 27.6733L6.94765 28.3258H6.38483H5.82192V25.244V22.1621L6.06213 21.9224L6.30225 21.6826H12.3244H18.3464V25.0042ZM31.6536 22.2021C31.6536 23.3081 32.1931 24.2808 33.0584 24.7353C33.3946 24.9119 33.6684 24.9546 34.6624 24.9862L35.8611 25.0243V26.675V28.3258H35.2489C34.6521 28.3258 34.6334 28.3179 34.4978 28.0083C34.4213 27.8336 34.0694 27.401 33.7156 27.0469C32.8145 26.1447 32.263 25.9323 30.8219 25.9323C29.812 25.9323 29.7044 25.9517 29.0788 26.2476C28.3594 26.5878 27.5383 27.3396 27.2038 27.9644L27.0103 28.3258H23.5101H20.0098V25.0042V21.6826H25.8317H31.6536V22.2021ZM34.9459 21.8849C35.3916 22.1003 35.7239 22.5362 35.8242 23.0371L35.8855 23.3434H34.9003C34.0072 23.3434 33.89 23.3219 33.6478 23.1139C33.4236 22.9212 33.3736 22.7878 33.3371 22.2835L33.2935 21.6826H33.9104C34.3343 21.6826 34.6582 21.7459 34.9459 21.8849ZM13.5964 23.5832C13.4305 23.7487 13.3562 23.9316 13.3562 24.1738C13.3562 24.416 13.4305 24.5988 13.5964 24.7643C13.8235 24.9912 13.8976 25.0042 14.9608 25.0042C16.0024 25.0042 16.1048 24.9872 16.3546 24.7726C16.56 24.5962 16.6243 24.4535 16.6243 24.1738C16.6243 23.8941 16.56 23.7513 16.3546 23.5749C16.1048 23.3604 16.0024 23.3434 14.9608 23.3434C13.8976 23.3434 13.8235 23.3564 13.5964 23.5832ZM22.7841 23.5751C22.4154 23.8918 22.4204 24.46 22.7948 24.7816C23.032 24.9853 23.1493 25.0042 24.1782 25.0042C25.2414 25.0042 25.3155 24.9912 25.5426 24.7643C25.9061 24.4015 25.8996 23.8976 25.5273 23.5632C25.3038 23.3624 25.1862 23.3434 24.1683 23.3434C23.1368 23.3434 23.034 23.3606 22.7841 23.5751ZM40.3087 25.244C40.0943 25.458 40.0685 25.5666 40.0685 26.2527C40.0685 26.9264 40.0958 27.0462 40.2887 27.2196C40.6148 27.5127 40.826 27.5574 41.1824 27.4087C41.609 27.2307 41.7673 26.8289 41.7119 26.0643C41.6753 25.5598 41.6254 25.4263 41.4012 25.2337C41.0497 24.9319 40.6171 24.936 40.3087 25.244ZM11.7341 27.6813C12.2231 27.8853 12.8736 28.5145 13.0834 28.9864C13.4388 29.7859 13.2933 30.8568 12.7289 31.5958C12.4337 31.9823 11.6396 32.4132 11.082 32.4895C10.4813 32.5717 9.67838 32.3216 9.18258 31.8979C7.81673 30.7306 8.14012 28.4918 9.78474 27.7298C10.2596 27.5098 11.2632 27.4848 11.7341 27.6813ZM31.6675 27.6576C32.2043 27.8182 32.8154 28.3777 33.0847 28.9553C33.9947 30.9065 32.207 32.9851 30.136 32.384C29.1467 32.0969 28.3268 31.022 28.3268 30.0121C28.3268 29.5513 28.5404 28.952 28.8622 28.5097C29.4649 27.6816 30.5975 27.3375 31.6675 27.6576ZM10.2567 29.4248C9.96311 29.7505 9.9183 29.9614 10.0672 30.3172C10.2464 30.7453 10.6941 30.9383 11.1094 30.7666C11.4659 30.6191 11.5949 30.4052 11.5949 29.9612C11.5949 29.2857 10.704 28.9286 10.2567 29.4248ZM30.404 29.2704C30.1858 29.358 29.9738 29.8851 30.0385 30.1789C30.1144 30.5242 30.3573 30.7486 30.7372 30.8245C31.1679 30.9105 31.6536 30.4854 31.6536 30.0223C31.6536 29.4205 31.0037 29.0295 30.404 29.2704ZM40.3263 29.4075C40.0863 29.596 40.0685 29.6638 40.0685 30.3889C40.0685 31.0856 40.0938 31.1931 40.3087 31.4075C40.6383 31.7367 41.1295 31.7314 41.4458 31.3952C41.6523 31.1757 41.683 31.0506 41.683 30.4262C41.683 29.8018 41.6523 29.6767 41.4458 29.4572C41.1516 29.1445 40.6875 29.1238 40.3263 29.4075ZM26.734 30.6301C26.7948 30.984 26.9689 31.522 27.1208 31.8257C27.2729 32.1292 27.4119 32.4112 27.4298 32.4522C27.4478 32.4931 24.468 32.5266 20.8079 32.5266H14.1534L14.4817 31.8978C14.6623 31.5519 14.8388 31.0573 14.8741 30.7987C14.9093 30.5401 14.9595 30.2515 14.9854 30.1575C15.0298 29.9971 15.392 29.9866 20.8282 29.9866H26.6237L26.734 30.6301ZM38.3885 40.6597C38.3615 42.5474 38.3288 42.9806 38.1942 43.2241C37.9844 43.6039 37.6434 43.9174 37.2979 44.048C37.1083 44.1198 33.2782 44.1522 25 44.1522C16.7218 44.1522 12.8917 44.1198 12.7021 44.048C12.3566 43.9174 12.0156 43.6039 11.8058 43.2241C11.6712 42.9806 11.6385 42.5474 11.6115 40.6597L11.5792 38.3883H25H38.4208L38.3885 40.6597ZM12.3688 45.6782C12.7258 45.7898 14.9018 45.813 25 45.813C37.477 45.813 37.4086 45.8148 38.2339 45.4724C38.3858 45.4094 38.4046 45.4658 38.4008 45.9736C38.3914 47.2372 38.1548 47.7608 37.4247 48.1333L36.9937 48.3531H25H13.0063L12.5753 48.1333C11.8444 47.7604 11.6019 47.2368 11.5973 46.0224C11.5952 45.4686 11.6134 45.4091 11.7661 45.4724C11.8604 45.5115 12.1315 45.6041 12.3688 45.6782Z" fill="#E614B7"/>
</svg>
