<svg width="325" height="304" viewBox="0 0 325 304" fill="none" xmlns="http://www.w3.org/2000/svg">
<path d="M324.84 151.945V153.077C324.498 154.284 323.844 155.378 322.945 156.249C322.047 157.119 320.935 157.735 319.724 158.033C318.512 158.331 317.244 158.301 316.048 157.946C314.852 157.59 313.77 156.922 312.914 156.01C312.057 155.098 311.455 153.973 311.17 152.751C310.884 151.529 310.926 150.253 311.289 149.052C311.652 147.851 312.325 146.768 313.239 145.913C314.152 145.059 315.275 144.463 316.491 144.186C317.409 143.973 318.36 143.946 319.288 144.108C320.216 144.27 321.103 144.618 321.896 145.13C322.689 145.642 323.372 146.308 323.905 147.09C324.438 147.872 324.811 148.753 325.001 149.682V151.945H324.84Z" fill="white"/>
<path d="M132.614 151.932C132.614 157.763 130.313 163.354 126.218 167.477C122.123 171.6 116.569 173.916 110.777 173.916C104.986 173.916 99.4321 171.6 95.337 167.477C91.242 163.354 88.9414 157.763 88.9414 151.932C88.9414 146.102 91.242 140.511 95.337 136.388C99.4321 132.265 104.986 129.949 110.777 129.949C116.569 129.949 122.123 132.265 126.218 136.388C130.313 140.511 132.614 146.102 132.614 151.932Z" fill="white"/>
<path d="M158.332 107.098C158.3 111.439 156.992 115.673 154.574 119.267C152.155 122.861 148.734 125.653 144.741 127.292C140.749 128.931 136.363 129.344 132.138 128.477C127.913 127.611 124.037 125.505 120.999 122.424C117.962 119.343 115.898 115.426 115.068 111.166C114.239 106.906 114.68 102.494 116.338 98.4868C117.995 94.4793 120.794 91.0555 124.381 88.647C127.968 86.2385 132.184 84.9532 136.496 84.9531C139.377 84.953 142.229 85.527 144.889 86.6418C147.549 87.7567 149.963 89.3904 151.993 91.4489C154.023 93.5074 155.628 95.9499 156.716 98.6357C157.804 101.322 158.353 104.198 158.332 107.098Z" fill="white"/>
<path d="M158.478 197.149C158.5 200.034 157.949 202.895 156.857 205.563C155.765 208.231 154.155 210.652 152.121 212.685C150.087 214.718 147.67 216.321 145.012 217.4C142.354 218.48 139.508 219.014 136.642 218.97C132.317 218.97 128.088 217.677 124.494 215.254C120.9 212.831 118.101 209.388 116.453 205.362C114.805 201.336 114.382 196.907 115.238 192.639C116.094 188.37 118.189 184.453 121.259 181.385C124.329 178.317 128.235 176.237 132.481 175.407C136.728 174.577 141.123 175.035 145.11 176.724C149.097 178.413 152.497 181.255 154.876 184.892C157.256 188.528 158.51 192.794 158.478 197.149Z" fill="white"/>
<path d="M188.21 218.968C183.906 218.904 179.716 217.561 176.168 215.107C172.619 212.653 169.87 209.198 168.267 205.176C166.663 201.154 166.276 196.744 167.155 192.501C168.033 188.259 170.138 184.372 173.204 181.33C176.27 178.287 180.161 176.226 184.388 175.403C188.615 174.581 192.989 175.035 196.96 176.708C200.931 178.381 204.323 181.198 206.708 184.806C209.094 188.414 210.367 192.651 210.367 196.985C210.368 199.899 209.792 202.784 208.675 205.473C207.558 208.161 205.92 210.599 203.859 212.645C201.797 214.69 199.352 216.303 196.665 217.388C193.979 218.474 191.105 219.011 188.21 218.968Z" fill="white"/>
<path d="M235.73 152.006C235.762 156.36 234.508 160.626 232.128 164.263C229.748 167.899 226.349 170.742 222.362 172.431C218.375 174.119 213.98 174.578 209.733 173.748C205.487 172.918 201.581 170.837 198.511 167.769C195.441 164.701 193.346 160.785 192.49 156.516C191.634 152.247 192.057 147.819 193.705 143.793C195.353 139.766 198.152 136.323 201.746 133.901C205.34 131.478 209.569 130.184 213.894 130.184C216.754 130.163 219.59 130.712 222.238 131.799C224.887 132.886 227.295 134.49 229.325 136.518C231.355 138.547 232.966 140.959 234.065 143.617C235.164 146.276 235.73 149.126 235.73 152.006Z" fill="white"/>
<path d="M166.18 107.098C166.148 102.743 167.402 98.4773 169.782 94.841C172.162 91.2047 175.561 88.3619 179.548 86.6732C183.535 84.9846 187.931 84.5261 192.177 85.356C196.423 86.1859 200.329 88.2667 203.399 91.3346C206.469 94.4025 208.565 98.3191 209.42 102.588C210.276 106.857 209.853 111.285 208.205 115.311C206.557 119.338 203.759 122.78 200.164 125.203C196.57 127.626 192.342 128.919 188.016 128.92C182.253 128.92 176.723 126.626 172.632 122.538C168.542 118.45 166.223 112.9 166.18 107.098Z" fill="white"/>
<path d="M174.862 63.0051C174.894 65.5693 174.168 68.0851 172.776 70.2328C171.384 72.3805 169.389 74.0631 167.045 75.0667C164.701 76.0703 162.114 76.3495 159.612 75.869C157.109 75.3884 154.806 74.1697 152.993 72.3679C151.181 70.566 149.941 68.2623 149.433 65.7496C148.924 63.2368 149.169 60.6285 150.136 58.2562C151.103 55.8839 152.749 53.8547 154.865 52.4265C156.981 50.9983 159.47 50.2356 162.018 50.2354C163.697 50.214 165.363 50.5285 166.921 51.1607C168.478 51.7928 169.896 52.73 171.091 53.9179C172.286 55.1058 173.234 56.5208 173.882 58.0807C174.529 59.6406 174.862 61.3145 174.862 63.0051Z" fill="white"/>
<path d="M162.166 228.001C164.707 228.001 167.19 228.759 169.302 230.18C171.415 231.601 173.061 233.621 174.033 235.984C175.005 238.347 175.26 240.947 174.764 243.455C174.268 245.964 173.045 248.268 171.249 250.076C169.452 251.885 167.164 253.116 164.672 253.615C162.18 254.114 159.598 253.858 157.251 252.879C154.904 251.901 152.897 250.243 151.486 248.117C150.075 245.99 149.321 243.49 149.321 240.932C149.3 239.228 149.617 237.537 150.255 235.958C150.893 234.379 151.838 232.945 153.035 231.74C154.232 230.535 155.657 229.583 157.225 228.941C158.793 228.299 160.473 227.979 162.166 228.001Z" fill="white"/>
<path d="M226.408 196.381C226.408 193.823 227.162 191.323 228.573 189.196C229.984 187.07 231.99 185.412 234.337 184.434C236.685 183.455 239.267 183.199 241.759 183.698C244.25 184.197 246.539 185.428 248.336 187.237C250.132 189.045 251.355 191.349 251.851 193.858C252.347 196.366 252.092 198.966 251.12 201.329C250.148 203.692 248.501 205.712 246.389 207.133C244.277 208.553 241.793 209.312 239.253 209.312C235.872 209.23 232.652 207.841 230.261 205.434C227.869 203.026 226.49 199.784 226.408 196.381Z" fill="white"/>
<path d="M97.9668 107.806C97.9668 111.236 96.6135 114.525 94.2047 116.95C91.7958 119.375 88.5287 120.738 85.1221 120.738C81.7154 120.738 78.4483 119.375 76.0395 116.95C73.6306 114.525 72.2773 111.236 72.2773 107.806C72.2773 104.377 73.6306 101.088 76.0395 98.6625C78.4483 96.2374 81.7154 94.875 85.1221 94.875C88.5287 94.875 91.7958 96.2374 94.2047 98.6625C96.6135 101.088 97.9668 104.377 97.9668 107.806Z" fill="white"/>
<path d="M85.917 209.695C82.5104 209.695 79.2432 208.332 76.8344 205.907C74.4255 203.482 73.0723 200.193 73.0723 196.763C73.0723 193.334 74.4255 190.045 76.8344 187.62C79.2432 185.194 82.5104 183.832 85.917 183.832C89.3236 183.832 92.5907 185.194 94.9996 187.62C97.4084 190.045 98.7617 193.334 98.7617 196.763C98.7617 200.193 97.4084 203.482 94.9996 205.907C92.5907 208.332 89.3236 209.695 85.917 209.695Z" fill="white"/>
<path d="M251.463 107.333C251.484 109.023 251.172 110.701 250.544 112.269C249.916 113.837 248.985 115.264 247.805 116.467C246.625 117.67 245.22 118.625 243.67 119.277C242.121 119.929 240.458 120.264 238.779 120.264C236.232 120.296 233.733 119.565 231.599 118.164C229.466 116.762 227.795 114.754 226.798 112.394C225.801 110.034 225.524 107.429 226.001 104.91C226.478 102.391 227.689 100.072 229.479 98.2475C231.268 96.4228 233.557 95.1751 236.053 94.6629C238.549 94.1507 241.139 94.3972 243.496 95.371C245.852 96.3448 247.868 98.002 249.287 100.132C250.705 102.262 251.463 104.768 251.463 107.333Z" fill="white"/>
<path d="M219.994 262.827C217.099 262.827 214.322 261.669 212.274 259.608C210.226 257.546 209.076 254.751 209.076 251.835C209.076 248.92 210.226 246.124 212.274 244.063C214.322 242.002 217.099 240.844 219.994 240.844C222.891 240.927 225.645 242.134 227.679 244.212C229.714 246.29 230.872 249.079 230.912 251.997C230.87 254.884 229.701 257.638 227.658 259.665C225.615 261.691 222.862 262.827 219.994 262.827Z" fill="white"/>
<path d="M219.508 63.0926C217.349 63.0926 215.238 62.448 213.442 61.2402C211.647 60.0324 210.247 58.3158 209.421 56.3073C208.595 54.2988 208.378 52.0888 208.8 49.9567C209.221 47.8245 210.261 45.866 211.788 44.3288C213.315 42.7916 215.26 41.7447 217.378 41.3206C219.496 40.8965 221.691 41.1141 223.686 41.9461C225.681 42.778 227.386 44.1868 228.586 45.9944C229.786 47.8019 230.426 49.9271 230.426 52.101C230.448 53.5505 230.18 54.9895 229.639 56.3329C229.098 57.6764 228.295 58.8968 227.276 59.9218C226.258 60.9469 225.046 61.7557 223.711 62.3003C222.377 62.845 220.948 63.1144 219.508 63.0926Z" fill="white"/>
<path d="M105.175 241.142C108.071 241.142 110.848 242.3 112.895 244.361C114.943 246.423 116.093 249.218 116.093 252.133C116.093 255.049 114.943 257.844 112.895 259.906C110.848 261.967 108.071 263.125 105.175 263.125C102.292 263.083 99.5393 261.912 97.5007 259.86C95.4621 257.807 94.2986 255.036 94.2571 252.133C94.2354 250.684 94.503 249.245 95.0441 247.901C95.5851 246.558 96.3885 245.338 97.4067 244.313C98.4248 243.288 99.637 242.479 100.971 241.934C102.306 241.389 103.735 241.12 105.175 241.142Z" fill="white"/>
<path d="M58.6525 151.984C58.6525 154.899 57.5022 157.695 55.4547 159.756C53.4072 161.817 50.6301 162.975 47.7344 162.975C44.8388 162.975 42.0618 161.817 40.0143 159.756C37.9667 157.695 36.8164 154.899 36.8164 151.984C36.8164 149.069 37.9667 146.273 40.0143 144.212C42.0618 142.15 44.8388 140.992 47.7344 140.992C50.6301 140.992 53.4072 142.15 55.4547 144.212C57.5022 146.273 58.6525 149.069 58.6525 151.984Z" fill="white"/>
<path d="M266.048 151.983C266.048 149.802 266.693 147.67 267.9 145.86C269.107 144.049 270.822 142.64 272.826 141.813C274.83 140.986 277.034 140.778 279.156 141.216C281.278 141.653 283.223 142.716 284.743 144.269C286.264 145.823 287.291 147.796 287.694 149.939C288.096 152.082 287.857 154.297 287.006 156.302C286.155 158.308 284.731 160.013 282.914 161.201C281.098 162.389 278.971 163.006 276.806 162.974C275.379 162.974 273.967 162.689 272.651 162.135C271.336 161.58 270.143 160.768 269.141 159.745C268.14 158.722 267.351 157.509 266.82 156.177C266.289 154.844 266.027 153.418 266.048 151.983Z" fill="white"/>
<path d="M104.872 41.3074C106.406 41.1191 107.963 41.2607 109.438 41.723C110.914 42.1853 112.275 42.9576 113.432 43.989C114.589 45.0203 115.515 46.2872 116.15 47.7058C116.784 49.1244 117.112 50.6624 117.112 52.2182C117.112 53.7739 116.784 55.3119 116.15 56.7305C115.515 58.1491 114.589 59.416 113.432 60.4474C112.275 61.4787 110.914 62.2511 109.438 62.7134C107.963 63.1756 106.406 63.3173 104.872 63.1289C103.338 63.3173 101.782 63.1756 100.307 62.7134C98.8312 62.2511 97.4699 61.4787 96.3129 60.4474C95.156 59.416 94.2297 58.1491 93.5953 56.7305C92.9609 55.3119 92.6328 53.7739 92.6328 52.2182C92.6328 50.6624 92.9609 49.1244 93.5953 47.7058C94.2297 46.2872 95.156 45.0203 96.3129 43.989C97.4699 42.9576 98.8312 42.1853 100.307 41.723C101.782 41.2607 103.338 41.1191 104.872 41.3074Z" fill="white"/>
<path d="M49.7951 223.415C49.7951 225.816 48.8478 228.118 47.1616 229.816C45.4754 231.513 43.1884 232.467 40.8038 232.467C38.4191 232.467 36.1322 231.513 34.446 229.816C32.7598 228.118 31.8125 225.816 31.8125 223.415C31.8125 221.014 32.7598 218.712 34.446 217.015C36.1322 215.317 38.4191 214.363 40.8038 214.363C43.1884 214.363 45.4754 215.317 47.1616 217.015C48.8478 218.712 49.7951 221.014 49.7951 223.415Z" fill="white"/>
<path d="M152.85 294.242C152.85 292.445 153.382 290.688 154.377 289.196C155.372 287.705 156.786 286.545 158.438 285.865C160.091 285.185 161.907 285.015 163.655 285.378C165.403 285.74 167.005 286.618 168.256 287.901C169.507 289.183 170.35 290.811 170.679 292.577C171.007 294.344 170.806 296.168 170.101 297.819C169.396 299.47 168.218 300.873 166.719 301.847C165.219 302.822 163.465 303.326 161.68 303.294C159.324 303.251 157.078 302.279 155.426 300.586C153.774 298.893 152.849 296.615 152.85 294.242Z" fill="white"/>
<path d="M284.359 89.7272C283.18 89.7714 282.004 89.5729 280.904 89.1439C279.804 88.7149 278.802 88.0643 277.961 87.232C277.119 86.3998 276.455 85.4034 276.009 84.3037C275.563 83.2041 275.345 82.0244 275.367 80.8369C275.196 79.5578 275.299 78.2567 275.669 77.0208C276.038 75.7849 276.666 74.6429 277.51 73.6713C278.354 72.6997 279.394 71.9211 280.562 71.3876C281.729 70.8541 282.996 70.5781 284.278 70.5781C285.56 70.5781 286.828 70.8541 287.995 71.3876C289.162 71.9211 290.203 72.6997 291.047 73.6713C291.891 74.6429 292.519 75.7849 292.888 77.0208C293.258 78.2567 293.36 79.5578 293.189 80.8369C293.211 82.0104 292.998 83.1764 292.562 84.2649C292.126 85.3534 291.476 86.3422 290.652 87.1722C289.827 88.0021 288.845 88.6562 287.764 89.0952C286.682 89.5342 285.524 89.7492 284.359 89.7272Z" fill="white"/>
<path d="M153.025 10.009C153.025 8.21866 153.553 6.46856 154.541 4.97998C155.529 3.4914 156.933 2.3312 158.576 1.64608C160.219 0.960962 162.027 0.781692 163.771 1.13096C165.515 1.48023 167.117 2.34233 168.375 3.60827C169.632 4.8742 170.488 6.48708 170.835 8.24298C171.182 9.99888 171.004 11.8189 170.324 13.473C169.643 15.127 168.491 16.5407 167.012 17.5353C165.533 18.53 163.795 19.0608 162.017 19.0608C159.645 19.0193 157.382 18.0523 155.705 16.3636C154.027 14.675 153.067 12.3967 153.025 10.009Z" fill="white"/>
<path d="M293.668 222.882C293.669 224.077 293.43 225.26 292.967 226.36C292.503 227.46 291.824 228.455 290.969 229.285C290.115 230.115 289.103 230.763 287.994 231.19C286.886 231.617 285.703 231.815 284.516 231.772C282.16 231.729 279.914 230.757 278.262 229.064C276.61 227.371 275.685 225.093 275.686 222.72C275.728 220.347 276.693 218.086 278.375 216.423C280.057 214.761 282.32 213.829 284.677 213.83C285.864 213.808 287.043 214.027 288.143 214.474C289.244 214.921 290.244 215.587 291.083 216.432C291.923 217.277 292.584 218.284 293.028 219.392C293.472 220.5 293.69 221.687 293.668 222.882Z" fill="white"/>
<path d="M40.0206 90.2313C38.8475 90.2527 37.6819 90.0387 36.5919 89.6015C35.5019 89.1644 34.5093 88.5129 33.6722 87.6852C32.8351 86.8575 32.1703 85.8702 31.7165 84.7809C31.2627 83.6916 31.0291 82.5222 31.0293 81.341C31.0293 78.9403 31.9765 76.6379 33.6627 74.9403C35.3489 73.2427 37.6359 72.2891 40.0206 72.2891C42.4052 72.2891 44.6922 73.2427 46.3784 74.9403C48.0646 76.6379 49.0119 78.9403 49.0119 81.341C49.0346 82.5285 48.8163 83.7082 48.3703 84.8078C47.9244 85.9074 47.2603 86.9038 46.4186 87.7361C45.5769 88.5683 44.5753 89.2189 43.4752 89.648C42.3751 90.077 41.1995 90.2755 40.0206 90.2313Z" fill="white"/>
<path d="M246.815 16.4833C246.774 18.3566 246.016 20.1418 244.7 21.4668C243.384 22.7918 241.611 23.5544 239.75 23.5956C237.876 23.5956 236.079 22.8462 234.755 21.5124C233.43 20.1786 232.685 18.3696 232.685 16.4833C232.664 15.557 232.827 14.6358 233.164 13.7738C233.502 12.9117 234.007 12.1263 234.65 11.4637C235.293 10.8011 236.062 10.2746 236.91 9.91519C237.758 9.55583 238.669 9.37084 239.59 9.37109C241.478 9.37062 243.292 10.1147 244.643 11.4441C245.993 12.7734 246.773 14.5823 246.815 16.4833Z" fill="white"/>
<path d="M91.3689 16.5938C91.3694 18.4953 90.6303 20.3213 89.3098 21.6809C87.9894 23.0405 86.1926 23.8255 84.3044 23.8677C83.3765 23.8467 82.4619 23.6419 81.6127 23.2649C80.7636 22.888 79.9965 22.3463 79.3554 21.6708C78.7142 20.9953 78.2115 20.1993 77.8761 19.3281C77.5406 18.457 77.379 17.5279 77.4003 16.5938C77.6543 14.9122 78.4985 13.3778 79.7799 12.2691C81.0613 11.1604 82.695 10.5508 84.3846 10.5508C86.0742 10.5508 87.7079 11.1604 88.9893 12.2691C90.2707 13.3778 91.1149 14.9122 91.3689 16.5938Z" fill="white"/>
<path d="M247.285 287.399C247.307 288.326 247.144 289.247 246.807 290.109C246.469 290.971 245.964 291.756 245.321 292.419C244.678 293.082 243.909 293.608 243.061 293.968C242.213 294.327 241.302 294.512 240.381 294.512C238.978 294.544 237.596 294.154 236.414 293.392C235.231 292.631 234.301 291.531 233.741 290.235C233.182 288.939 233.019 287.504 233.273 286.114C233.527 284.724 234.187 283.441 235.168 282.43C236.15 281.419 237.408 280.726 238.782 280.438C240.157 280.15 241.586 280.281 242.886 280.815C244.186 281.348 245.299 282.259 246.083 283.432C246.866 284.605 247.285 285.986 247.285 287.399Z" fill="white"/>
<path d="M7.08103 159.583C6.11133 159.585 5.15155 159.386 4.26145 158.999C3.37135 158.612 2.56996 158.044 1.90725 157.331C1.24453 156.619 0.734658 155.776 0.409353 154.857C0.0840488 153.937 -0.0496743 152.96 0.0164443 151.986C0.0164443 150.142 0.743803 148.374 2.03856 147.071C3.33332 145.767 5.08943 145.035 6.9205 145.035C8.79415 145.035 10.5911 145.784 11.9159 147.118C13.2408 148.452 13.9851 150.261 13.9851 152.147C14.0281 153.095 13.8825 154.041 13.5568 154.931C13.2312 155.821 12.732 156.636 12.0887 157.329C11.4454 158.022 10.671 158.578 9.811 158.965C8.951 159.352 8.02282 159.562 7.08103 159.583Z" fill="white"/>
<path d="M84.777 294.672C83.8567 294.672 82.9456 294.487 82.0973 294.128C81.2491 293.769 80.4807 293.242 79.8374 292.58C79.1942 291.917 78.689 291.132 78.3517 290.269C78.0143 289.407 77.8516 288.486 77.873 287.56C77.9149 285.702 78.6777 283.934 79.998 282.635C81.3184 281.336 83.0914 280.609 84.9375 280.609C86.8112 280.609 88.6081 281.359 89.933 282.693C91.2578 284.026 92.0022 285.835 92.0022 287.722C91.9813 288.656 91.7779 289.576 91.4034 290.431C91.029 291.286 90.4909 292.058 89.82 292.704C89.149 293.349 88.3583 293.855 87.493 294.193C86.6277 294.531 85.7048 294.694 84.777 294.672Z" fill="white"/>
</svg>
