<svg width="43" height="40" viewBox="0 0 43 40" fill="none" xmlns="http://www.w3.org/2000/svg">
<path d="M42.9788 19.9765V20.1262C42.9335 20.2859 42.847 20.4307 42.7281 20.5459C42.6092 20.661 42.4621 20.7425 42.3018 20.7819C42.1416 20.8213 41.9738 20.8173 41.8155 20.7703C41.6573 20.7233 41.5142 20.635 41.4008 20.5143C41.2875 20.3936 41.2079 20.2448 41.1701 20.0831C41.1324 19.9214 41.1378 19.7525 41.1859 19.5936C41.234 19.4347 41.323 19.2915 41.4439 19.1784C41.5647 19.0653 41.7132 18.9865 41.8741 18.9499C41.9956 18.9217 42.1214 18.9182 42.2442 18.9396C42.367 18.9611 42.4843 19.007 42.5892 19.0747C42.6941 19.1425 42.7845 19.2307 42.8551 19.3341C42.9256 19.4376 42.9749 19.5542 43 19.6771V19.9765H42.9788Z" fill="black"/>
<path d="M17.5458 19.9749C17.5458 20.7463 17.2415 21.4861 16.6997 22.0315C16.1579 22.577 15.423 22.8834 14.6568 22.8834C13.8906 22.8834 13.1558 22.577 12.614 22.0315C12.0722 21.4861 11.7678 20.7463 11.7678 19.9749C11.7678 19.2035 12.0722 18.4637 12.614 17.9183C13.1558 17.3728 13.8906 17.0664 14.6568 17.0664C15.423 17.0664 16.1579 17.3728 16.6997 17.9183C17.2415 18.4637 17.5458 19.2035 17.5458 19.9749V19.9749Z" fill="black"/>
<path d="M20.947 14.0432C20.9428 14.6175 20.7698 15.1777 20.4498 15.6532C20.1298 16.1286 19.6772 16.4981 19.1489 16.715C18.6207 16.9318 18.0405 16.9864 17.4815 16.8718C16.9224 16.7571 16.4097 16.4784 16.0077 16.0708C15.6058 15.6632 15.3328 15.145 15.223 14.5814C15.1133 14.0178 15.1717 13.4341 15.391 12.9039C15.6102 12.3736 15.9805 11.9207 16.4552 11.602C16.9298 11.2833 17.4875 11.1133 18.058 11.1133C18.4392 11.1133 18.8166 11.1892 19.1685 11.3367C19.5204 11.4842 19.8398 11.7004 20.1084 11.9727C20.3769 12.2451 20.5893 12.5682 20.7332 12.9236C20.8772 13.2789 20.9498 13.6594 20.947 14.0432V14.0432Z" fill="black"/>
<path d="M20.968 25.9572C20.9709 26.339 20.898 26.7175 20.7535 27.0705C20.6091 27.4234 20.396 27.7438 20.1269 28.0128C19.8578 28.2817 19.538 28.4938 19.1863 28.6366C18.8346 28.7794 18.4582 28.85 18.079 28.8443C17.5067 28.8443 16.9473 28.6732 16.4717 28.3526C15.9962 28.0321 15.6259 27.5766 15.4079 27.0439C15.1899 26.5112 15.1339 25.9253 15.2471 25.3605C15.3603 24.7957 15.6376 24.2775 16.0438 23.8716C16.4499 23.4657 16.9667 23.1904 17.5285 23.0806C18.0903 22.9709 18.6718 23.0315 19.1994 23.2549C19.7269 23.4783 20.1766 23.8545 20.4915 24.3356C20.8064 24.8167 20.9722 25.3811 20.968 25.9572V25.9572Z" fill="black"/>
<path d="M24.902 28.844C24.3325 28.8356 23.7782 28.6579 23.3087 28.3332C22.8392 28.0085 22.4755 27.5514 22.2634 27.0192C22.0512 26.4871 22 25.9037 22.1162 25.3423C22.2325 24.781 22.5109 24.2668 22.9166 23.8643C23.3223 23.4618 23.8371 23.189 24.3963 23.0802C24.9555 22.9714 25.5342 23.0314 26.0596 23.2528C26.5851 23.4741 27.0338 23.8469 27.3494 24.3242C27.665 24.8015 27.8334 25.3621 27.8335 25.9355C27.8335 26.3211 27.7574 26.7028 27.6096 27.0585C27.4618 27.4142 27.2451 27.7368 26.9724 28.0074C26.6996 28.2781 26.3761 28.4914 26.0206 28.635C25.6652 28.7786 25.2849 28.8497 24.902 28.844V28.844Z" fill="black"/>
<path d="M31.1874 19.9848C31.1916 20.561 31.0257 21.1254 30.7109 21.6065C30.396 22.0876 29.9463 22.4637 29.4188 22.6871C28.8912 22.9106 28.3097 22.9712 27.7479 22.8614C27.1861 22.7516 26.6693 22.4763 26.2631 22.0704C25.857 21.6645 25.5797 21.1463 25.4665 20.5816C25.3533 20.0168 25.4093 19.4309 25.6273 18.8982C25.8453 18.3655 26.2156 17.91 26.6911 17.5894C27.1667 17.2689 27.7261 17.0978 28.2984 17.0977C28.6768 17.0949 29.052 17.1675 29.4023 17.3113C29.7527 17.4552 30.0714 17.6674 30.3399 17.9357C30.6085 18.2041 30.8216 18.5233 30.9671 18.875C31.1125 19.2267 31.1874 19.6039 31.1874 19.9848V19.9848Z" fill="black"/>
<path d="M21.9873 14.0432C21.9831 13.467 22.1489 12.9026 22.4638 12.4215C22.7787 11.9404 23.2284 11.5643 23.7559 11.3409C24.2835 11.1174 24.865 11.0568 25.4268 11.1666C25.9886 11.2764 26.5054 11.5517 26.9115 11.9576C27.3177 12.3635 27.595 12.8817 27.7082 13.4464C27.8214 14.0112 27.7654 14.5971 27.5474 15.1298C27.3294 15.6625 26.9591 16.118 26.4836 16.4386C26.008 16.7591 25.4486 16.9303 24.8763 16.9303C24.1138 16.9303 23.3821 16.6268 22.8409 16.086C22.2997 15.5451 21.9929 14.8108 21.9873 14.0432V14.0432Z" fill="black"/>
<path d="M23.1342 8.20916C23.1384 8.54842 23.0423 8.88128 22.8582 9.16543C22.674 9.44958 22.4101 9.6722 22.1 9.80498C21.7898 9.93776 21.4475 9.9747 21.1164 9.91112C20.7854 9.84754 20.4806 9.6863 20.2408 9.44791C20.001 9.20951 19.837 8.90472 19.7697 8.57227C19.7024 8.23982 19.7348 7.89473 19.8628 7.58086C19.9908 7.26699 20.2085 6.99851 20.4884 6.80956C20.7684 6.6206 21.0978 6.51969 21.4348 6.51967C21.6569 6.51684 21.8774 6.55845 22.0835 6.64209C22.2896 6.72572 22.4771 6.84972 22.6352 7.00689C22.7933 7.16405 22.9188 7.35125 23.0045 7.55764C23.0901 7.76402 23.1342 7.98548 23.1342 8.20916V8.20916Z" fill="black"/>
<path d="M21.456 30.0392C21.7921 30.0392 22.1207 30.1395 22.4002 30.3275C22.6797 30.5155 22.8975 30.7827 23.0261 31.0954C23.1547 31.408 23.1884 31.752 23.1228 32.0839C23.0572 32.4157 22.8954 32.7206 22.6577 32.9599C22.42 33.1991 22.1172 33.3621 21.7876 33.4281C21.4579 33.4941 21.1162 33.4602 20.8057 33.3307C20.4952 33.2012 20.2297 32.9819 20.043 32.7006C19.8563 32.4192 19.7566 32.0885 19.7566 31.7501C19.7538 31.5246 19.7958 31.3008 19.8802 31.092C19.9645 30.8831 20.0896 30.6934 20.248 30.5339C20.4064 30.3745 20.5949 30.2485 20.8023 30.1636C21.0098 30.0786 21.2321 30.0363 21.456 30.0392Z" fill="black"/>
<path d="M29.9549 25.8554C29.9549 25.517 30.0545 25.1863 30.2413 24.9049C30.428 24.6235 30.6934 24.4043 31.004 24.2748C31.3145 24.1453 31.6562 24.1114 31.9858 24.1774C32.3155 24.2434 32.6183 24.4064 32.856 24.6456C33.0936 24.8849 33.2555 25.1898 33.3211 25.5216C33.3866 25.8535 33.353 26.1975 33.2244 26.5101C33.0957 26.8228 32.8779 27.09 32.5984 27.278C32.319 27.466 31.9904 27.5663 31.6543 27.5663C31.207 27.5554 30.7809 27.3717 30.4645 27.0532C30.1482 26.7346 29.9656 26.3058 29.9549 25.8554V25.8554Z" fill="black"/>
<path d="M12.9621 14.1367C12.9621 14.5904 12.7831 15.0256 12.4644 15.3464C12.1457 15.6673 11.7134 15.8475 11.2627 15.8475C10.812 15.8475 10.3797 15.6673 10.061 15.3464C9.74234 15.0256 9.56329 14.5904 9.56329 14.1367C9.56329 13.6829 9.74234 13.2477 10.061 12.9269C10.3797 12.606 10.812 12.4258 11.2627 12.4258C11.7134 12.4258 12.1457 12.606 12.4644 12.9269C12.7831 13.2477 12.9621 13.6829 12.9621 14.1367V14.1367Z" fill="black"/>
<path d="M11.3677 27.6171C10.917 27.6171 10.4847 27.4368 10.166 27.116C9.84732 26.7951 9.66827 26.3599 9.66827 25.9062C9.66827 25.4524 9.84732 25.0173 10.166 24.6964C10.4847 24.3756 10.917 24.1953 11.3677 24.1953C11.8184 24.1953 12.2507 24.3756 12.5694 24.6964C12.8881 25.0173 13.0671 25.4524 13.0671 25.9062C13.0671 26.3599 12.8881 26.7951 12.5694 27.116C12.2507 27.4368 11.8184 27.6171 11.3677 27.6171V27.6171Z" fill="black"/>
<path d="M33.2698 14.074C33.2726 14.2977 33.2312 14.5197 33.1482 14.7271C33.0651 14.9346 32.9419 15.1234 32.7858 15.2825C32.6297 15.4417 32.4437 15.5681 32.2387 15.6543C32.0337 15.7405 31.8138 15.7849 31.5916 15.7849C31.2546 15.7892 30.924 15.6924 30.6417 15.507C30.3595 15.3216 30.1383 15.0559 30.0065 14.7437C29.8746 14.4315 29.8379 14.0868 29.901 13.7536C29.9642 13.4203 30.1243 13.1134 30.3611 12.872C30.5979 12.6306 30.9007 12.4655 31.2309 12.3978C31.5611 12.33 31.9039 12.3626 32.2157 12.4914C32.5275 12.6203 32.7941 12.8395 32.9818 13.1213C33.1695 13.4031 33.2697 13.7347 33.2698 14.074V14.074Z" fill="black"/>
<path d="M29.1057 34.6468C28.7226 34.6468 28.3552 34.4936 28.0843 34.2208C27.8134 33.9481 27.6612 33.5782 27.6612 33.1925C27.6612 32.8068 27.8134 32.4369 28.0843 32.1642C28.3552 31.8915 28.7226 31.7383 29.1057 31.7383C29.489 31.7493 29.8533 31.9089 30.1224 32.1839C30.3916 32.4589 30.5449 32.8279 30.5502 33.2139C30.5446 33.5959 30.39 33.9603 30.1197 34.2284C29.8494 34.4965 29.4851 34.6468 29.1057 34.6468V34.6468Z" fill="black"/>
<path d="M29.0427 8.221C28.757 8.221 28.4777 8.13571 28.2402 7.97591C28.0026 7.81612 27.8175 7.58899 27.7081 7.32326C27.5988 7.05754 27.5702 6.76514 27.6259 6.48304C27.6817 6.20095 27.8192 5.94183 28.0213 5.73845C28.2233 5.53506 28.4807 5.39656 28.7609 5.34044C29.0411 5.28433 29.3315 5.31313 29.5955 5.4232C29.8594 5.53327 30.085 5.71966 30.2438 5.95881C30.4025 6.19796 30.4872 6.47913 30.4872 6.76675C30.4901 6.95852 30.4547 7.14892 30.3831 7.32666C30.3115 7.5044 30.2052 7.66587 30.0705 7.80148C29.9358 7.9371 29.7754 8.04411 29.5988 8.11618C29.4223 8.18824 29.2332 8.22388 29.0427 8.221V8.221Z" fill="black"/>
<path d="M13.9158 31.7775C14.2989 31.7775 14.6663 31.9307 14.9372 32.2034C15.2081 32.4762 15.3603 32.8461 15.3603 33.2318C15.3603 33.6174 15.2081 33.9873 14.9372 34.2601C14.6663 34.5328 14.2989 34.686 13.9158 34.686C13.5344 34.6805 13.1702 34.5255 12.9004 34.2539C12.6307 33.9824 12.4768 33.6157 12.4713 33.2318C12.4684 33.04 12.5038 32.8496 12.5754 32.6718C12.647 32.4941 12.7533 32.3326 12.888 32.197C13.0227 32.0614 13.1831 31.9544 13.3596 31.8823C13.5362 31.8103 13.7253 31.7746 13.9158 31.7775V31.7775Z" fill="black"/>
<path d="M7.75994 19.9816C7.75994 20.3673 7.60775 20.7372 7.33685 21.0099C7.06595 21.2826 6.69853 21.4358 6.31542 21.4358C5.93231 21.4358 5.5649 21.2826 5.294 21.0099C5.0231 20.7372 4.87091 20.3673 4.87091 19.9816C4.87091 19.5959 5.0231 19.226 5.294 18.9533C5.5649 18.6806 5.93231 18.5273 6.31542 18.5273C6.69853 18.5273 7.06595 18.6806 7.33685 18.9533C7.60775 19.226 7.75994 19.5959 7.75994 19.9816V19.9816Z" fill="black"/>
<path d="M35.1986 19.9814C35.1986 19.6929 35.2839 19.4109 35.4436 19.1713C35.6033 18.9317 35.8301 18.7454 36.0953 18.636C36.3605 18.5265 36.652 18.499 36.9328 18.5569C37.2136 18.6148 37.4709 18.7554 37.6721 18.9609C37.8732 19.1665 38.0091 19.4276 38.0624 19.7111C38.1157 19.9946 38.084 20.2876 37.9715 20.5529C37.8589 20.8183 37.6704 21.0439 37.4301 21.2011C37.1898 21.3583 36.9084 21.4399 36.6218 21.4357C36.4331 21.4357 36.2463 21.3979 36.0722 21.3246C35.8982 21.2513 35.7403 21.1438 35.6079 21.0085C35.4754 20.8732 35.371 20.7127 35.3008 20.5363C35.2305 20.36 35.1958 20.1714 35.1986 19.9814V19.9814Z" fill="black"/>
<path d="M13.8753 5.33882C14.0782 5.3139 14.2841 5.33264 14.4793 5.3938C14.6746 5.45497 14.8547 5.55715 15.0077 5.69361C15.1608 5.83006 15.2834 5.99767 15.3673 6.18536C15.4512 6.37305 15.4946 6.57654 15.4946 6.78237C15.4946 6.98821 15.4512 7.19169 15.3673 7.37938C15.2834 7.56707 15.1608 7.73468 15.0077 7.87114C14.8547 8.00759 14.6746 8.10978 14.4793 8.17094C14.2841 8.2321 14.0782 8.25084 13.8753 8.22593C13.6723 8.25084 13.4664 8.2321 13.2712 8.17094C13.076 8.10978 12.8959 8.00759 12.7428 7.87114C12.5897 7.73468 12.4672 7.56707 12.3833 7.37938C12.2993 7.19169 12.2559 6.98821 12.2559 6.78237C12.2559 6.57654 12.2993 6.37305 12.3833 6.18536C12.4672 5.99767 12.5897 5.83006 12.7428 5.69361C12.8959 5.55715 13.076 5.45497 13.2712 5.3938C13.4664 5.33264 13.6723 5.3139 13.8753 5.33882V5.33882Z" fill="black"/>
<path d="M6.58873 29.432C6.58873 29.7496 6.46339 30.0542 6.2403 30.2788C6.01721 30.5034 5.71463 30.6296 5.39913 30.6296C5.08363 30.6296 4.78105 30.5034 4.55796 30.2788C4.33487 30.0542 4.20953 29.7496 4.20953 29.432C4.20953 29.1144 4.33487 28.8097 4.55796 28.5851C4.78105 28.3606 5.08363 28.2344 5.39913 28.2344C5.71463 28.2344 6.01721 28.3606 6.2403 28.5851C6.46339 28.8097 6.58873 29.1144 6.58873 29.432V29.432Z" fill="black"/>
<path d="M20.2236 38.8029C20.2237 38.5651 20.294 38.3327 20.4257 38.1354C20.5574 37.938 20.7444 37.7845 20.963 37.6945C21.1816 37.6046 21.4219 37.5821 21.6532 37.6301C21.8846 37.6781 22.0965 37.7943 22.262 37.9639C22.4274 38.1335 22.539 38.3489 22.5825 38.5826C22.626 38.8163 22.5994 39.0578 22.5061 39.2762C22.4128 39.4946 22.257 39.6802 22.0586 39.8092C21.8602 39.9381 21.6281 40.0048 21.392 40.0005C21.0802 39.9949 20.783 39.8663 20.5645 39.6423C20.346 39.4183 20.2236 39.1168 20.2236 38.8029Z" fill="black"/>
<path d="M37.6216 11.7445C37.4657 11.7503 37.3101 11.7241 37.1646 11.6673C37.019 11.6105 36.8865 11.5244 36.7751 11.4143C36.6638 11.3042 36.5759 11.1724 36.5169 11.0269C36.4579 10.8814 36.429 10.7253 36.432 10.5682C36.4094 10.399 36.423 10.2269 36.4719 10.0633C36.5208 9.89983 36.6039 9.74872 36.7155 9.62018C36.8272 9.49164 36.9648 9.38862 37.1193 9.31804C37.2737 9.24745 37.4414 9.21094 37.611 9.21094C37.7806 9.21094 37.9483 9.24745 38.1027 9.31804C38.2572 9.38862 38.3949 9.49164 38.5065 9.62018C38.6182 9.74872 38.7012 9.89983 38.7501 10.0633C38.799 10.2269 38.8126 10.399 38.79 10.5682C38.7929 10.7235 38.7646 10.8778 38.7069 11.0218C38.6492 11.1658 38.5633 11.2966 38.4542 11.4064C38.3451 11.5162 38.2152 11.6028 38.0721 11.6608C37.9291 11.7189 37.7759 11.7474 37.6216 11.7445V11.7445Z" fill="black"/>
<path d="M20.2452 1.19762C20.2452 0.960751 20.3149 0.729205 20.4457 0.532258C20.5764 0.335311 20.7622 0.18181 20.9795 0.0911648C21.1969 0.000520112 21.4361 -0.0231983 21.6669 0.023012C21.8976 0.0692223 22.1096 0.183283 22.2759 0.350772C22.4423 0.518262 22.5556 0.731654 22.6015 0.963969C22.6474 1.19628 22.6239 1.43709 22.5338 1.65592C22.4438 1.87476 22.2913 2.0618 22.0957 2.1934C21.9001 2.32499 21.6701 2.39523 21.4348 2.39523C21.121 2.38973 20.8216 2.26179 20.5996 2.03838C20.3777 1.81496 20.2506 1.51353 20.2452 1.19762Z" fill="black"/>
<path d="M38.8531 29.3619C38.8532 29.52 38.8216 29.6765 38.7603 29.8221C38.6989 29.9677 38.6091 30.0993 38.496 30.2091C38.383 30.3189 38.2491 30.4046 38.1024 30.4612C37.9557 30.5177 37.7992 30.5439 37.6423 30.5381C37.3305 30.5325 37.0333 30.4039 36.8148 30.1799C36.5963 29.9559 36.4739 29.6544 36.4739 29.3405C36.4795 29.0266 36.6073 28.7274 36.8298 28.5074C37.0522 28.2874 37.3517 28.1642 37.6635 28.1643C37.8205 28.1614 37.9765 28.1904 38.1221 28.2495C38.2678 28.3087 38.4001 28.3968 38.5111 28.5086C38.6221 28.6204 38.7097 28.7535 38.7684 28.9002C38.8272 29.0468 38.856 29.2038 38.8531 29.3619V29.3619Z" fill="black"/>
<path d="M5.29415 11.8113C5.13894 11.8142 4.98473 11.7859 4.84051 11.728C4.6963 11.6702 4.56498 11.584 4.45423 11.4745C4.34348 11.365 4.25551 11.2344 4.19547 11.0902C4.13544 10.9461 4.10453 10.7914 4.10455 10.6351C4.10455 10.3175 4.22988 10.0129 4.45297 9.78827C4.67606 9.56368 4.97865 9.4375 5.29415 9.4375C5.60965 9.4375 5.91223 9.56368 6.13532 9.78827C6.35841 10.0129 6.48375 10.3175 6.48375 10.6351C6.48675 10.7922 6.45786 10.9483 6.39886 11.0938C6.33987 11.2393 6.252 11.3711 6.14064 11.4812C6.02927 11.5913 5.89676 11.6774 5.75121 11.7342C5.60566 11.7909 5.45013 11.8172 5.29415 11.8113V11.8113Z" fill="black"/>
<path d="M32.6538 2.05426C32.6484 2.30212 32.5482 2.53831 32.374 2.71361C32.1999 2.88891 31.9653 2.9898 31.7191 2.99525C31.4712 2.99525 31.2335 2.89611 31.0582 2.71964C30.8829 2.54317 30.7844 2.30383 30.7844 2.05426C30.7816 1.93171 30.8031 1.80983 30.8478 1.69578C30.8924 1.58173 30.9592 1.47781 31.0443 1.39014C31.1294 1.30247 31.2311 1.23281 31.3433 1.18527C31.4556 1.13772 31.5761 1.11325 31.6979 1.11328C31.9478 1.11322 32.1877 1.21167 32.3664 1.38755C32.5451 1.56343 32.6482 1.80275 32.6538 2.05426V2.05426Z" fill="black"/>
<path d="M12.0888 2.06906C12.0888 2.32063 11.991 2.56223 11.8163 2.7421C11.6416 2.92198 11.4039 3.02584 11.1541 3.03143C11.0313 3.02865 10.9103 3.00155 10.798 2.95168C10.6856 2.9018 10.5841 2.83014 10.4993 2.74077C10.4145 2.65139 10.348 2.54608 10.3036 2.43082C10.2592 2.31557 10.2378 2.19264 10.2406 2.06906C10.2742 1.84656 10.3859 1.64356 10.5555 1.49687C10.725 1.35019 10.9411 1.26953 11.1647 1.26953C11.3882 1.26953 11.6044 1.35019 11.7739 1.49687C11.9435 1.64356 12.0552 1.84656 12.0888 2.06906V2.06906Z" fill="black"/>
<path d="M32.7165 37.8978C32.7194 38.0203 32.6978 38.1422 32.6532 38.2563C32.6086 38.3703 32.5417 38.4742 32.4566 38.5619C32.3715 38.6496 32.2699 38.7192 32.1576 38.7668C32.0454 38.8143 31.9249 38.8388 31.8031 38.8388C31.6174 38.843 31.4346 38.7914 31.2782 38.6907C31.1217 38.5899 30.9986 38.4445 30.9246 38.2729C30.8505 38.1014 30.829 37.9116 30.8626 37.7277C30.8962 37.5437 30.9835 37.3741 31.1134 37.2403C31.2432 37.1066 31.4097 37.0148 31.5915 36.9767C31.7734 36.9387 31.9624 36.956 32.1345 37.0266C32.3065 37.0971 32.4537 37.2177 32.5574 37.3728C32.6611 37.528 32.7165 37.7108 32.7165 37.8978V37.8978Z" fill="black"/>
<path d="M0.936857 20.9872C0.808561 20.9875 0.681577 20.9613 0.563813 20.91C0.446048 20.8588 0.34002 20.7836 0.252339 20.6893C0.164658 20.5951 0.0971991 20.4836 0.0541596 20.3619C0.0111201 20.2403 -0.00657217 20.111 0.00217567 19.9821C0.00217567 19.7382 0.098409 19.5043 0.269713 19.3318C0.441016 19.1594 0.673358 19.0625 0.915618 19.0625C1.16351 19.0625 1.40125 19.1616 1.57654 19.3381C1.75183 19.5146 1.8503 19.7539 1.8503 20.0035C1.85599 20.1288 1.83673 20.254 1.79364 20.3718C1.75055 20.4895 1.68451 20.5974 1.5994 20.6891C1.51429 20.7807 1.41183 20.8543 1.29805 20.9055C1.18426 20.9567 1.06146 20.9845 0.936857 20.9872V20.9872Z" fill="black"/>
<path d="M11.2171 38.8606C11.0953 38.8606 10.9748 38.8361 10.8625 38.7886C10.7503 38.741 10.6486 38.6714 10.5635 38.5837C10.4784 38.4961 10.4116 38.3921 10.367 38.2781C10.3223 38.164 10.3008 38.0421 10.3036 37.9196C10.3092 37.6738 10.4101 37.4399 10.5848 37.268C10.7595 37.0961 10.994 36.9999 11.2383 37C11.4862 37 11.7239 37.0991 11.8992 37.2756C12.0745 37.4521 12.173 37.6914 12.173 37.941C12.1702 38.0646 12.1433 38.1864 12.0938 38.2995C12.0442 38.4126 11.973 38.5148 11.8843 38.6002C11.7955 38.6856 11.6909 38.7525 11.5764 38.7972C11.4619 38.8419 11.3398 38.8634 11.2171 38.8606V38.8606Z" fill="black"/>
</svg>
