<svg width="18" height="18" viewBox="0 0 18 18" fill="none" xmlns="http://www.w3.org/2000/svg">
<path d="M1.60577 4.73094L9 0.46188L16.3942 4.73094V13.2691L9 17.5381L1.60577 13.2691V4.73094Z" stroke="#410EAD" stroke-width="0.8"/>
<path d="M12.9964 9.49616V9.52237C12.988 9.55032 12.9719 9.57567 12.9498 9.59583C12.9276 9.61599 12.9003 9.63025 12.8704 9.63715C12.8406 9.64405 12.8094 9.64335 12.78 9.63512C12.7505 9.62689 12.7239 9.61143 12.7028 9.5903C12.6817 9.56917 12.6669 9.54313 12.6599 9.51483C12.6529 9.48652 12.6539 9.45696 12.6628 9.42915C12.6718 9.40134 12.6883 9.37626 12.7108 9.35647C12.7333 9.33668 12.7609 9.32289 12.7909 9.31648C12.8135 9.31154 12.8369 9.31093 12.8597 9.31468C12.8826 9.31843 12.9044 9.32647 12.9239 9.33833C12.9434 9.35019 12.9603 9.36562 12.9734 9.38373C12.9865 9.40184 12.9957 9.42224 13.0003 9.44376V9.49616H12.9964Z" fill="#410EAD"/>
<path d="M8.26449 9.49616C8.26449 9.63118 8.20785 9.76067 8.10705 9.85614C8.00625 9.95162 7.86953 10.0053 7.72697 10.0053C7.58441 10.0053 7.44769 9.95162 7.34689 9.85614C7.24608 9.76067 7.18945 9.63118 7.18945 9.49616C7.18945 9.36114 7.24608 9.23164 7.34689 9.13617C7.44769 9.0407 7.58441 8.98706 7.72697 8.98706C7.86953 8.98706 8.00625 9.0407 8.10705 9.13617C8.20785 9.23164 8.26449 9.36114 8.26449 9.49616Z" fill="#410EAD"/>
<path d="M8.89728 8.45937C8.8965 8.5599 8.86432 8.65796 8.80478 8.74118C8.74525 8.82441 8.66103 8.88908 8.56274 8.92704C8.46446 8.965 8.35651 8.97455 8.2525 8.95448C8.1485 8.93442 8.05309 8.88564 7.97831 8.81429C7.90353 8.74295 7.85273 8.65223 7.83231 8.55358C7.81189 8.45493 7.82276 8.35276 7.86356 8.25995C7.90435 8.16714 7.97325 8.08785 8.06155 8.03208C8.14986 7.9763 8.25363 7.94654 8.35977 7.94653C8.43069 7.94653 8.50091 7.95982 8.56638 7.98564C8.63186 8.01146 8.69129 8.04929 8.74125 8.09696C8.79122 8.14464 8.83073 8.2012 8.85751 8.2634C8.88429 8.3256 8.8978 8.3922 8.89728 8.45937Z" fill="#410EAD"/>
<path d="M8.90119 10.5443C8.90172 10.6112 8.88816 10.6774 8.86128 10.7392C8.83441 10.801 8.79477 10.8571 8.7447 10.9041C8.69463 10.9512 8.63513 10.9883 8.5697 11.0133C8.50427 11.0383 8.43422 11.0507 8.36367 11.0497C8.2572 11.0497 8.15312 11.0197 8.06464 10.9636C7.97616 10.9075 7.90727 10.8278 7.86671 10.7345C7.82614 10.6413 7.81573 10.5387 7.83679 10.4399C7.85786 10.341 7.90944 10.2503 7.98501 10.1793C8.06058 10.1082 8.15673 10.06 8.26125 10.0408C8.36578 10.0216 8.47398 10.0322 8.57213 10.0713C8.67027 10.1104 8.75395 10.1763 8.81253 10.2605C8.87112 10.3447 8.90197 10.4435 8.90119 10.5443Z" fill="#410EAD"/>
<path d="M9.63313 11.0499C9.52717 11.0484 9.42403 11.0173 9.33668 10.9605C9.24934 10.9036 9.18167 10.8236 9.1422 10.7305C9.10272 10.6373 9.0932 10.5352 9.11483 10.437C9.13645 10.3387 9.18826 10.2487 9.26373 10.1782C9.33921 10.1078 9.43499 10.06 9.53904 10.041C9.64309 10.0219 9.75076 10.0325 9.84851 10.0712C9.94627 10.1099 10.0298 10.1752 10.0885 10.2587C10.1472 10.3423 10.1785 10.4404 10.1785 10.5408C10.1786 10.6083 10.1644 10.6751 10.1369 10.7373C10.1094 10.7996 10.0691 10.8561 10.0183 10.9034C9.96758 10.9508 9.90738 10.9882 9.84125 11.0133C9.77512 11.0384 9.70438 11.0509 9.63313 11.0499Z" fill="#410EAD"/>
<path d="M10.8026 9.49633C10.8033 9.59718 10.7725 9.69597 10.7139 9.78018C10.6553 9.86439 10.5716 9.93023 10.4735 9.96934C10.3753 10.0084 10.2671 10.0191 10.1626 9.99984C10.0581 9.98062 9.96195 9.93243 9.88638 9.86139C9.81081 9.79034 9.75922 9.69964 9.73816 9.60078C9.7171 9.50192 9.72751 9.39937 9.76807 9.30613C9.80864 9.21288 9.87753 9.13315 9.96601 9.07704C10.0545 9.02094 10.1586 8.99098 10.265 8.99098C10.3354 8.99049 10.4052 9.00319 10.4704 9.02837C10.5356 9.05354 10.5949 9.09069 10.6449 9.13766C10.6949 9.18464 10.7345 9.24052 10.7616 9.30207C10.7886 9.36363 10.8026 9.42965 10.8026 9.49633Z" fill="#410EAD"/>
<path d="M9.09083 8.45937C9.09005 8.35853 9.12091 8.25973 9.17949 8.17552C9.23808 8.09131 9.32175 8.02547 9.4199 7.98637C9.51805 7.94726 9.62624 7.93664 9.73077 7.95586C9.8353 7.97508 9.93144 8.02327 10.007 8.09432C10.0826 8.16536 10.1342 8.25607 10.1552 8.35492C10.1763 8.45378 10.1659 8.55633 10.1253 8.64958C10.0848 8.74282 10.0159 8.82255 9.92739 8.87866C9.83891 8.93477 9.73483 8.96472 9.62835 8.96472C9.48648 8.96473 9.35035 8.91161 9.24966 8.81694C9.14897 8.72227 9.09188 8.59374 9.09083 8.45937Z" fill="#410EAD"/>
<path d="M9.30422 7.43759C9.30501 7.49698 9.28713 7.55524 9.25287 7.60498C9.21861 7.65471 9.1695 7.69368 9.1118 7.71692C9.0541 7.74016 8.9904 7.74663 8.92881 7.7355C8.86722 7.72437 8.81051 7.69615 8.76589 7.65442C8.72128 7.61269 8.69077 7.55934 8.67825 7.50115C8.66572 7.44296 8.67175 7.38256 8.69556 7.32762C8.71937 7.27268 8.75989 7.22569 8.81197 7.19261C8.86405 7.15954 8.92533 7.14187 8.98804 7.14187C9.02937 7.14137 9.0704 7.14866 9.10874 7.1633C9.14708 7.17794 9.18197 7.19964 9.21138 7.22715C9.24079 7.25466 9.26415 7.28743 9.28008 7.32355C9.29602 7.35968 9.30423 7.39844 9.30422 7.43759Z" fill="#410EAD"/>
<path d="M8.99199 11.2595C9.05453 11.2595 9.11566 11.2771 9.16766 11.31C9.21965 11.3429 9.26018 11.3897 9.28411 11.4444C9.30804 11.4991 9.3143 11.5593 9.3021 11.6174C9.2899 11.6755 9.25979 11.7289 9.21557 11.7708C9.17135 11.8127 9.11501 11.8412 9.05368 11.8527C8.99234 11.8643 8.92877 11.8584 8.87099 11.8357C8.81322 11.813 8.76384 11.7746 8.72909 11.7254C8.69435 11.6761 8.67581 11.6182 8.67581 11.559C8.67528 11.5195 8.68309 11.4804 8.69879 11.4438C8.71449 11.4073 8.73776 11.374 8.76723 11.3461C8.7967 11.3182 8.83177 11.2962 8.87037 11.2813C8.90897 11.2664 8.95032 11.259 8.99199 11.2595Z" fill="#410EAD"/>
<path d="M10.5732 10.5255C10.5732 10.4663 10.5918 10.4084 10.6265 10.3592C10.6613 10.3099 10.7107 10.2715 10.7684 10.2489C10.8262 10.2262 10.8898 10.2203 10.9511 10.2318C11.0124 10.2434 11.0688 10.2719 11.113 10.3138C11.1572 10.3557 11.1873 10.409 11.1995 10.4671C11.2117 10.5252 11.2055 10.5854 11.1815 10.6401C11.1576 10.6949 11.1171 10.7416 11.0651 10.7745C11.0131 10.8074 10.952 10.825 10.8894 10.825C10.8062 10.8231 10.7269 10.7909 10.6681 10.7352C10.6092 10.6794 10.5752 10.6044 10.5732 10.5255Z" fill="#410EAD"/>
<path d="M7.41167 8.47427C7.41167 8.5537 7.37836 8.62987 7.31906 8.68603C7.25976 8.74219 7.17934 8.77374 7.09548 8.77374C7.01162 8.77374 6.9312 8.74219 6.87191 8.68603C6.81261 8.62987 6.7793 8.5537 6.7793 8.47427C6.7793 8.39485 6.81261 8.31868 6.87191 8.26252C6.9312 8.20636 7.01162 8.1748 7.09548 8.1748C7.17934 8.1748 7.25976 8.20636 7.31906 8.26252C7.37836 8.31868 7.41167 8.39485 7.41167 8.47427Z" fill="#410EAD"/>
<path d="M7.11501 10.8328C7.03116 10.8328 6.95073 10.8013 6.89144 10.7451C6.83214 10.6889 6.79883 10.6128 6.79883 10.5334C6.79883 10.4539 6.83214 10.3778 6.89144 10.3216C6.95073 10.2654 7.03116 10.2339 7.11501 10.2339C7.19887 10.2339 7.27929 10.2654 7.33859 10.3216C7.39789 10.3778 7.4312 10.4539 7.4312 10.5334C7.4312 10.6128 7.39789 10.6889 7.33859 10.7451C7.27929 10.8013 7.19887 10.8328 7.11501 10.8328Z" fill="#410EAD"/>
<path d="M11.19 8.46302C11.1905 8.50217 11.1828 8.54103 11.1674 8.57734C11.1519 8.61365 11.129 8.64669 11.0999 8.67455C11.0709 8.70241 11.0363 8.72453 10.9982 8.73962C10.96 8.75472 10.9191 8.76249 10.8778 8.76249C10.8151 8.76323 10.7535 8.7463 10.701 8.71385C10.6485 8.6814 10.6074 8.63489 10.5828 8.58024C10.5583 8.52559 10.5515 8.46526 10.5632 8.40692C10.575 8.34859 10.6048 8.29488 10.6488 8.25262C10.6929 8.21037 10.7492 8.18147 10.8107 8.16961C10.8721 8.15775 10.9359 8.16346 10.9939 8.18601C11.0519 8.20856 11.1015 8.24694 11.1364 8.29626C11.1713 8.34559 11.19 8.40363 11.19 8.46302Z" fill="#410EAD"/>
<path d="M10.4152 12.0643C10.344 12.0643 10.2756 12.0375 10.2252 11.9897C10.1748 11.942 10.1465 11.8772 10.1465 11.8097C10.1465 11.7422 10.1748 11.6775 10.2252 11.6297C10.2756 11.582 10.344 11.5552 10.4152 11.5552C10.4866 11.5571 10.5543 11.585 10.6044 11.6332C10.6545 11.6813 10.683 11.7459 10.684 11.8135C10.683 11.8803 10.6542 11.9441 10.6039 11.991C10.5536 12.038 10.4858 12.0643 10.4152 12.0643Z" fill="#410EAD"/>
<path d="M10.4035 7.43756C10.3504 7.43756 10.2984 7.42263 10.2542 7.39466C10.21 7.36669 10.1756 7.32694 10.1552 7.28043C10.1349 7.23391 10.1296 7.18273 10.1399 7.13336C10.1503 7.08398 10.1759 7.03862 10.2135 7.00302C10.2511 6.96742 10.299 6.94318 10.3511 6.93336C10.4032 6.92354 10.4573 6.92858 10.5064 6.94784C10.5555 6.96711 10.5975 6.99974 10.627 7.0416C10.6565 7.08346 10.6723 7.13267 10.6723 7.18301C10.6728 7.21658 10.6662 7.24991 10.6529 7.28102C10.6396 7.31213 10.6198 7.34039 10.5948 7.36413C10.5697 7.38787 10.5398 7.4066 10.507 7.41921C10.4742 7.43183 10.439 7.43807 10.4035 7.43756Z" fill="#410EAD"/>
<path d="M7.5891 11.5625C7.66038 11.5625 7.72874 11.5893 7.77914 11.6371C7.82954 11.6848 7.85786 11.7496 7.85786 11.8171C7.85786 11.8846 7.82954 11.9493 7.77914 11.9971C7.72874 12.0448 7.66038 12.0716 7.5891 12.0716C7.51814 12.0707 7.45037 12.0435 7.40019 11.996C7.35001 11.9485 7.32136 11.8843 7.32034 11.8171C7.31981 11.7835 7.3264 11.7502 7.33971 11.7191C7.35303 11.688 7.37281 11.6597 7.39787 11.636C7.42294 11.6122 7.45278 11.5935 7.48562 11.5809C7.51847 11.5683 7.55366 11.562 7.5891 11.5625Z" fill="#410EAD"/>
<path d="M6.44377 9.49625C6.44377 9.56376 6.41545 9.6285 6.36505 9.67624C6.31465 9.72398 6.24629 9.75079 6.17501 9.75079C6.10373 9.75079 6.03537 9.72398 5.98497 9.67624C5.93457 9.6285 5.90625 9.56376 5.90625 9.49625C5.90625 9.42874 5.93457 9.36399 5.98497 9.31626C6.03537 9.26852 6.10373 9.2417 6.17501 9.2417C6.24629 9.2417 6.31465 9.26852 6.36505 9.31626C6.41545 9.36399 6.44377 9.42874 6.44377 9.49625Z" fill="#410EAD"/>
<path d="M11.5489 9.49622C11.5489 9.44572 11.5647 9.39636 11.5944 9.35442C11.6241 9.31248 11.6664 9.27986 11.7157 9.26071C11.765 9.24156 11.8193 9.23674 11.8715 9.24687C11.9238 9.257 11.9716 9.28162 12.0091 9.31759C12.0465 9.35357 12.0718 9.39927 12.0817 9.44889C12.0916 9.49852 12.0857 9.54981 12.0648 9.59625C12.0438 9.64269 12.0088 9.68219 11.964 9.7097C11.9193 9.73722 11.867 9.75151 11.8137 9.75077C11.7786 9.75077 11.7438 9.74416 11.7114 9.73132C11.679 9.71849 11.6496 9.69968 11.625 9.67599C11.6004 9.6523 11.5809 9.62421 11.5679 9.59335C11.5548 9.56249 11.5483 9.52947 11.5489 9.49622Z" fill="#410EAD"/>
<path d="M7.58156 6.93595C7.61932 6.93159 7.65763 6.93487 7.69395 6.94558C7.73027 6.95628 7.76378 6.97417 7.79226 6.99805C7.82074 7.02194 7.84354 7.05128 7.85916 7.08413C7.87478 7.11698 7.88285 7.1526 7.88285 7.18863C7.88285 7.22466 7.87478 7.26028 7.85916 7.29313C7.84354 7.32598 7.82074 7.35532 7.79226 7.3792C7.76378 7.40309 7.73027 7.42098 7.69395 7.43168C7.65763 7.44239 7.61932 7.44567 7.58156 7.44131C7.5438 7.44567 7.5055 7.44239 7.46917 7.43168C7.43285 7.42098 7.39934 7.40309 7.37086 7.3792C7.34238 7.35532 7.31958 7.32598 7.30397 7.29313C7.28835 7.26028 7.28027 7.22466 7.28027 7.18863C7.28027 7.1526 7.28835 7.11698 7.30397 7.08413C7.31958 7.05128 7.34238 7.02194 7.37086 6.99805C7.39934 6.97417 7.43285 6.95628 7.46917 6.94558C7.5055 6.93487 7.5438 6.93159 7.58156 6.93595Z" fill="#410EAD"/>
<path d="M6.22586 11.1508C6.22586 11.2064 6.20254 11.2597 6.16104 11.299C6.11953 11.3383 6.06323 11.3604 6.00453 11.3604C5.94583 11.3604 5.88954 11.3383 5.84803 11.299C5.80652 11.2597 5.7832 11.2064 5.7832 11.1508C5.7832 11.0952 5.80652 11.0419 5.84803 11.0026C5.88954 10.9632 5.94583 10.9412 6.00453 10.9412C6.06323 10.9412 6.11953 10.9632 6.16104 11.0026C6.20254 11.0419 6.22586 11.0952 6.22586 11.1508Z" fill="#410EAD"/>
<path d="M8.7627 12.7904C8.7627 12.7488 8.77579 12.7081 8.80029 12.6736C8.82479 12.639 8.85959 12.6122 8.90026 12.5964C8.94094 12.5807 8.98564 12.5767 9.02868 12.5851C9.07172 12.5935 9.11114 12.6139 9.14193 12.6435C9.17272 12.6732 9.19349 12.7109 9.20157 12.7519C9.20966 12.7928 9.20471 12.835 9.18735 12.8733C9.16999 12.9115 9.14101 12.944 9.1041 12.9665C9.06718 12.9891 9.02401 13.0008 8.98007 13C8.92206 12.9991 8.86677 12.9765 8.82612 12.9373C8.78546 12.8981 8.76269 12.8454 8.7627 12.7904Z" fill="#410EAD"/>
<path d="M11.9997 8.05503C11.9707 8.05606 11.9417 8.05146 11.9146 8.04153C11.8876 8.03159 11.8629 8.01652 11.8422 7.99725C11.8215 7.97798 11.8051 7.9549 11.7941 7.92944C11.7832 7.90397 11.7778 7.87665 11.7783 7.84915C11.7741 7.81953 11.7767 7.78939 11.7858 7.76077C11.7949 7.73215 11.8103 7.70571 11.8311 7.68321C11.8519 7.66071 11.8775 7.64267 11.9062 7.63032C11.9349 7.61796 11.9661 7.61157 11.9977 7.61157C12.0293 7.61157 12.0604 7.61796 12.0892 7.63032C12.1179 7.64267 12.1435 7.66071 12.1643 7.68321C12.1851 7.70571 12.2005 7.73215 12.2096 7.76077C12.2187 7.78939 12.2213 7.81953 12.2171 7.84915C12.2176 7.87633 12.2123 7.90333 12.2016 7.92854C12.1909 7.95374 12.1749 7.97664 12.1546 7.99586C12.1343 8.01508 12.1101 8.03023 12.0835 8.0404C12.0569 8.05056 12.0284 8.05554 11.9997 8.05503Z" fill="#410EAD"/>
<path d="M8.7666 6.20963C8.7666 6.16817 8.77958 6.12764 8.8039 6.09316C8.82822 6.05869 8.86279 6.03182 8.90323 6.01596C8.94367 6.00009 8.98818 5.99594 9.03111 6.00403C9.07404 6.01212 9.11348 6.03208 9.14444 6.0614C9.17539 6.09072 9.19647 6.12807 9.20501 6.16873C9.21355 6.20939 9.20917 6.25154 9.19241 6.28985C9.17566 6.32815 9.14729 6.36089 9.1109 6.38393C9.0745 6.40696 9.03171 6.41925 8.98793 6.41925C8.92955 6.41829 8.87384 6.3959 8.83255 6.35679C8.79126 6.31769 8.76762 6.26492 8.7666 6.20963Z" fill="#410EAD"/>
<path d="M12.2288 11.1398C12.2288 11.1675 12.2229 11.1949 12.2115 11.2204C12.2001 11.2459 12.1834 11.2689 12.1624 11.2881C12.1413 11.3074 12.1164 11.3224 12.0891 11.3323C12.0618 11.3421 12.0327 11.3467 12.0035 11.3457C11.9455 11.3447 11.8902 11.3222 11.8496 11.283C11.8089 11.2438 11.7861 11.191 11.7861 11.1361C11.7872 11.0811 11.8109 11.0288 11.8523 10.9903C11.8937 10.9518 11.9494 10.9302 12.0075 10.9302C12.0367 10.9297 12.0657 10.9348 12.0928 10.9451C12.1199 10.9555 12.1445 10.9709 12.1652 10.9905C12.1858 11.01 12.2021 11.0334 12.213 11.059C12.224 11.0847 12.2293 11.1122 12.2288 11.1398Z" fill="#410EAD"/>
<path d="M5.985 8.06615C5.95612 8.06664 5.92743 8.06169 5.9006 8.05156C5.87377 8.04144 5.84934 8.02635 5.82873 8.00718C5.80812 7.98802 5.79176 7.96515 5.78059 7.93993C5.76942 7.9147 5.76367 7.88762 5.76367 7.86026C5.76367 7.80467 5.78699 7.75135 5.8285 7.71203C5.87 7.67272 5.9263 7.65063 5.985 7.65063C6.0437 7.65063 6.1 7.67272 6.14151 7.71203C6.18301 7.75135 6.20633 7.80467 6.20633 7.86026C6.20689 7.88776 6.20152 7.91508 6.19054 7.94055C6.17956 7.96601 6.16321 7.98909 6.14249 8.00836C6.12178 8.02764 6.09712 8.0427 6.07004 8.05264C6.04296 8.06257 6.01402 8.06717 5.985 8.06615Z" fill="#410EAD"/>
<path d="M11.0754 6.35929C11.0744 6.40267 11.0557 6.44401 11.0233 6.4747C10.9909 6.50538 10.9473 6.52304 10.9015 6.524C10.8554 6.524 10.8111 6.50664 10.7785 6.47575C10.7459 6.44486 10.7276 6.40297 10.7276 6.35929C10.7271 6.33784 10.7311 6.3165 10.7394 6.29654C10.7477 6.27658 10.7601 6.25839 10.7759 6.24304C10.7918 6.2277 10.8107 6.2155 10.8316 6.20718C10.8525 6.19886 10.8749 6.19457 10.8975 6.19458C10.944 6.19457 10.9887 6.2118 11.0219 6.24259C11.0552 6.27337 11.0744 6.31526 11.0754 6.35929Z" fill="#410EAD"/>
<path d="M7.24917 6.36309C7.24918 6.40713 7.23099 6.44941 7.19848 6.4809C7.16598 6.51238 7.12175 6.53056 7.07527 6.53154C7.05243 6.53106 7.02992 6.52631 7.00901 6.51758C6.98811 6.50885 6.96923 6.49631 6.95344 6.48067C6.93766 6.46502 6.92529 6.44659 6.91703 6.42641C6.90877 6.40624 6.90479 6.38472 6.90532 6.36309C6.91157 6.32415 6.93235 6.28861 6.9639 6.26294C6.99544 6.23726 7.03565 6.22314 7.07724 6.22314C7.11884 6.22314 7.15905 6.23726 7.19059 6.26294C7.22214 6.28861 7.24292 6.32415 7.24917 6.36309Z" fill="#410EAD"/>
<path d="M11.0871 12.6332C11.0876 12.6546 11.0836 12.676 11.0753 12.6959C11.067 12.7159 11.0545 12.7341 11.0387 12.7494C11.0229 12.7648 11.004 12.777 10.9831 12.7853C10.9622 12.7936 10.9398 12.7979 10.9171 12.7979C10.8826 12.7986 10.8486 12.7896 10.8194 12.772C10.7903 12.7543 10.7674 12.7289 10.7537 12.6988C10.7399 12.6688 10.7359 12.6356 10.7421 12.6034C10.7484 12.5712 10.7646 12.5415 10.7888 12.5181C10.8129 12.4947 10.8439 12.4786 10.8778 12.472C10.9116 12.4653 10.9468 12.4683 10.9788 12.4807C11.0108 12.493 11.0382 12.5141 11.0575 12.5413C11.0767 12.5684 11.0871 12.6004 11.0871 12.6332Z" fill="#410EAD"/>
<path d="M5.17431 9.67235C5.15044 9.6724 5.12681 9.6678 5.1049 9.65883C5.08299 9.64986 5.06326 9.63671 5.04695 9.62021C5.03064 9.6037 5.01808 9.5842 5.01008 9.5629C5.00207 9.5416 4.99878 9.51897 5.0004 9.49641C5.0004 9.45372 5.01831 9.41278 5.05018 9.3826C5.08205 9.35241 5.12528 9.33545 5.17035 9.33545C5.21648 9.33545 5.26071 9.3528 5.29332 9.38369C5.32594 9.41458 5.34426 9.45647 5.34426 9.50016C5.34532 9.5221 5.34173 9.54401 5.33371 9.56462C5.3257 9.58523 5.31341 9.60411 5.29758 9.62016C5.28174 9.6362 5.26268 9.64909 5.24151 9.65805C5.22034 9.66701 5.19749 9.67188 5.17431 9.67235Z" fill="#410EAD"/>
<path d="M7.08699 12.8017C7.06433 12.8018 7.04191 12.7975 7.02103 12.7891C7.00014 12.7808 6.98123 12.7686 6.9654 12.7533C6.94956 12.7379 6.93713 12.7197 6.92882 12.6998C6.92052 12.6798 6.91651 12.6585 6.91704 12.637C6.91807 12.594 6.93685 12.5531 6.96935 12.523C7.00185 12.4929 7.04549 12.4761 7.09094 12.4761C7.13706 12.4761 7.18129 12.4934 7.21391 12.5243C7.24652 12.5552 7.26484 12.5971 7.26484 12.6408C7.26433 12.6624 7.25932 12.6837 7.2501 12.7035C7.24089 12.7233 7.22764 12.7412 7.21113 12.7562C7.19461 12.7711 7.17515 12.7828 7.15385 12.7907C7.13255 12.7985 7.10983 12.8022 7.08699 12.8017Z" fill="#410EAD"/>
</svg>
