<svg width="18" height="18" viewBox="0 0 18 18" fill="none" xmlns="http://www.w3.org/2000/svg">
<path d="M1.60577 4.73094L9 0.46188L16.3942 4.73094V13.2691L9 17.5381L1.60577 13.2691V4.73094Z" stroke="#410EAD" stroke-width="0.8"/>
<path fill-rule="evenodd" clip-rule="evenodd" d="M8.89328 4.03348C8.46598 4.15563 8.18411 4.59268 8.25547 5.02251C8.26771 5.09628 8.30446 5.21085 8.33712 5.2771C8.36979 5.34336 8.39652 5.40169 8.39652 5.40672C8.39652 5.41176 8.35913 5.4269 8.3134 5.44035C8.14668 5.48942 8.01675 5.58507 7.7413 5.86149C7.36448 6.23965 7.08107 6.42278 6.63622 6.57554C6.42537 6.64794 6.35962 6.68583 6.27006 6.78651L6.20706 6.85731L5.97667 6.62863C5.84326 6.4962 5.71568 6.38732 5.67357 6.3699C5.58015 6.33129 5.40356 6.33137 5.31048 6.37007C5.22279 6.40653 4.135 7.47974 4.06289 7.60092C4.0014 7.7043 3.98367 7.837 4.01559 7.95544C4.03867 8.04106 4.10379 8.11175 4.83394 8.84388C5.28433 9.29548 5.65684 9.65331 5.69575 9.67175C5.79249 9.71758 5.91661 9.72734 6.025 9.69764C6.10529 9.67563 6.16002 9.63092 6.42829 9.36802C6.63319 9.16725 6.73364 9.08047 6.7239 9.11269C6.71579 9.13954 6.65672 9.29771 6.59264 9.46418C6.45819 9.8135 6.45651 9.8669 6.57754 9.94823C6.66239 10.0053 6.7426 9.9949 6.81225 9.91796C6.84364 9.88329 6.97631 9.56146 7.18299 9.01867L7.50483 8.17338L8.28807 8.17955C8.98615 8.18506 9.07933 8.18945 9.14508 8.22005C9.33934 8.31044 9.46094 8.5026 9.45662 8.71238C9.45302 8.88787 9.00356 10.4746 8.94376 10.5229C8.85814 10.5921 8.71457 10.5489 8.68117 10.4438C8.67467 10.4233 8.7224 10.0747 8.78721 9.66909C8.85203 9.26346 8.90506 8.89693 8.90506 8.85464C8.90506 8.79567 8.89172 8.7644 8.84789 8.72064L8.79072 8.66357H8.48714C8.1997 8.66357 8.18098 8.66591 8.13512 8.7075C8.10821 8.73191 7.74228 9.4327 7.31179 10.2843C6.88562 11.1274 6.51867 11.8326 6.49639 11.8514C6.43388 11.904 6.29398 11.8971 6.23516 11.8384C6.15411 11.7575 6.15525 11.71 6.24391 11.4739C6.31702 11.2791 6.32296 11.2505 6.30294 11.19C6.2488 11.0262 6.01724 11.0137 5.94514 11.1707C5.92983 11.2041 5.88807 11.3061 5.85236 11.3974C5.7128 11.7539 5.79589 12.0412 6.08857 12.2143C6.16729 12.2608 6.19618 12.2663 6.36239 12.2663C6.52202 12.2663 6.5617 12.2594 6.64398 12.2175C6.69668 12.1906 6.77026 12.1335 6.8075 12.0906C6.8475 12.0444 7.17863 11.4132 7.61622 10.549C8.02375 9.74412 8.36498 9.07779 8.37448 9.0683C8.38399 9.05881 8.41331 9.05393 8.43965 9.05747L8.48755 9.06387L8.38062 9.73437C8.26094 10.4849 8.26084 10.5182 8.37755 10.7019C8.42598 10.7782 8.55564 10.8844 8.63878 10.916C8.65077 10.9205 8.16109 11.4242 7.5506 12.0354L6.44063 13.1465V13.233C6.44063 13.319 6.44263 13.3215 6.78143 13.6598L7.1222 14L7.20574 13.9888C7.28458 13.9782 7.32198 13.9449 7.87223 13.3947L8.4552 12.8117V12.7279C8.4552 12.6144 8.37485 12.5299 8.26687 12.5299C8.19628 12.5299 8.16999 12.5527 7.69293 13.0277L7.19298 13.5255L7.05146 13.3842L6.90991 13.2429L8.70417 11.4515L10.4984 9.66005L10.8715 10.0308C11.2428 10.3997 11.2451 10.4015 11.3309 10.4015H11.4171L12.0485 9.7711L12.6799 9.14071V9.05212C12.6799 8.97869 12.6679 8.9495 12.6099 8.88186C12.5614 8.82529 12.5479 8.79752 12.5659 8.79145C12.5802 8.78664 12.8097 8.73958 13.076 8.68688C13.3827 8.62619 13.5598 8.59899 13.5592 8.61268C13.5587 8.62455 13.5122 8.8563 13.4559 9.12765L13.3535 9.62102L13.2759 9.54099C13.1735 9.43543 13.1009 9.3987 13.0244 9.41382C12.9772 9.42313 12.78 9.60899 12.1473 10.2403L11.331 11.0549L10.9737 10.7002C10.7772 10.5051 10.5904 10.3356 10.5586 10.3236C10.5267 10.3115 10.4783 10.307 10.451 10.3136C10.4209 10.3208 10.1639 10.5621 9.79986 10.9248C9.15394 11.5684 9.14268 11.5832 9.2067 11.7068C9.2454 11.7815 9.29176 11.8074 9.38701 11.8074C9.4574 11.8074 9.48445 11.7839 9.97497 11.2954L10.4892 10.7834L10.856 11.1468C11.2396 11.527 11.2937 11.5639 11.3928 11.5138C11.4176 11.5012 11.8005 11.1299 12.2437 10.6886L13.0494 9.88633L13.2131 10.0433C13.3032 10.1295 13.4004 10.2061 13.4292 10.2133C13.51 10.2335 13.6154 10.1805 13.6457 10.1044C13.6597 10.0691 13.749 9.65359 13.8441 9.18103C14.0047 8.38331 14.0151 8.31764 13.9891 8.26326C13.9737 8.23104 13.9302 8.18988 13.8926 8.17178C13.825 8.1393 13.8126 8.1412 12.9269 8.31909C12.0745 8.4903 12.0273 8.502 11.9832 8.55324C11.8934 8.65747 11.9267 8.7653 12.1017 8.93653L12.211 9.04352L11.7662 9.48792L11.3214 9.93234L10.9592 9.57277C10.5913 9.20763 10.5431 9.1733 10.4355 9.19984C10.4014 9.20825 10.2223 9.37107 9.94452 9.64619C9.70402 9.88438 9.51228 10.0617 9.51841 10.0402C9.67116 9.50506 9.83139 8.9066 9.84571 8.81791C9.90119 8.47386 9.69541 8.07438 9.37478 7.90375L9.25929 7.8423L9.30402 7.72082C9.32863 7.654 9.38642 7.49169 9.43248 7.36013L9.5162 7.12093H9.74594C10.25 7.12093 10.7173 6.97215 11.125 6.68182C11.4342 6.46167 11.5149 6.34441 11.515 6.11528C11.5152 5.80377 11.2943 5.5764 10.9897 5.57464C10.8378 5.57378 10.7363 5.61588 10.5546 5.75528C10.3107 5.94245 10.0884 6.01138 9.85856 5.97112C9.71922 5.94669 9.52122 5.85614 9.45631 5.78715L9.41238 5.74046L9.53671 5.67936C9.69835 5.59991 9.86397 5.42748 9.94726 5.25195C10.0072 5.12561 10.0101 5.10843 10.0101 4.88508C10.0101 4.66188 10.0072 4.64445 9.94731 4.51787C9.7598 4.1213 9.30973 3.91447 8.89328 4.03348ZM9.29874 4.41698C9.49983 4.48538 9.62874 4.66999 9.62874 4.88953C9.62874 5.03673 9.59838 5.11728 9.50335 5.22231C9.27245 5.47747 8.84777 5.41854 8.68981 5.10944C8.55071 4.83724 8.70205 4.49669 9.00273 4.40538C9.08418 4.38066 9.20597 4.38542 9.29874 4.41698ZM8.87693 5.83081C8.92063 5.85003 9.02184 5.92472 9.10186 5.99679C9.38996 6.25629 9.64229 6.36353 9.97102 6.36625C10.2787 6.36878 10.5009 6.28683 10.8008 6.06018C10.9506 5.947 11.021 5.93665 11.0908 6.01757C11.1744 6.11464 11.1342 6.19417 10.9258 6.344C10.7399 6.47759 10.5018 6.59329 10.2644 6.6653C10.0995 6.71533 10.0632 6.7189 9.69066 6.72185C9.31808 6.72478 9.29043 6.7275 9.25287 6.76501C9.22997 6.78787 9.13945 7.01288 9.04164 7.29005L8.8705 7.77508L8.25212 7.78024C7.78945 7.78411 7.63373 7.77963 7.63373 7.76251C7.63373 7.69565 8.03748 6.19892 8.07658 6.12081C8.15791 5.95838 8.30904 5.83859 8.48912 5.79383C8.5874 5.76938 8.77875 5.78764 8.87693 5.83081ZM7.47954 6.78278L7.42836 6.99139L7.25233 7.07348C7.03751 7.17365 6.74806 7.27714 6.68267 7.27714C6.61662 7.27714 6.53842 7.1948 6.53842 7.12522C6.53842 7.04411 6.60037 6.99924 6.81225 6.92685C7.00361 6.86145 7.31738 6.70988 7.43814 6.62449C7.47579 6.59788 7.51203 6.57565 7.51866 6.57513C7.52529 6.5746 7.50769 6.66804 7.47954 6.78278ZM6.27147 7.47027C6.91253 8.11117 7.00884 8.21499 6.99145 8.24647C6.98042 8.26644 6.88716 8.36611 6.78422 8.46794L6.59704 8.65308L6.38297 8.44002L6.16892 8.22696L6.22624 8.16176C6.36148 8.008 6.33847 7.94854 6.0218 7.63351C5.76604 7.37908 5.76027 7.37478 5.67455 7.37478C5.60319 7.37478 5.57714 7.38542 5.53114 7.43336C5.50022 7.46558 5.4654 7.49194 5.45374 7.49194C5.44211 7.49194 5.34912 7.40821 5.24714 7.30587L5.06172 7.11981L5.25919 6.92509C5.3706 6.81523 5.47293 6.73039 5.49402 6.73039C5.51714 6.73039 5.81384 7.01277 6.27147 7.47027ZM4.99943 7.60547C5.18135 7.78778 5.18966 7.79973 5.1702 7.85083C5.13724 7.93735 5.14675 8.09853 5.19046 8.19492C5.24302 8.31079 5.40076 8.45687 5.51547 8.49589C5.62213 8.53217 5.6977 8.53471 5.80295 8.50553L5.87915 8.48441L6.1012 8.70547L6.32326 8.92654L6.12313 9.127C6.01307 9.23727 5.9097 9.32749 5.89343 9.32749C5.85623 9.32749 4.38694 7.86321 4.38694 7.82615C4.38694 7.79414 4.75598 7.41383 4.78704 7.41383C4.79868 7.41383 4.89424 7.50007 4.99943 7.60547ZM7.27077 7.5847C7.25638 7.63572 7.23465 7.71605 7.2225 7.76323L7.20042 7.84899L7.08508 7.73505C7.02165 7.67237 6.97439 7.61647 6.98007 7.61078C6.99026 7.60063 7.26009 7.49667 7.2844 7.49354C7.29131 7.49266 7.28517 7.53367 7.27077 7.5847ZM5.78185 8.06194C5.70343 8.14364 5.66365 8.14879 5.59776 8.08576C5.52535 8.0165 5.52631 7.98727 5.60359 7.90767L5.66625 7.84312L5.75016 7.92533L5.83405 8.00753L5.78185 8.06194ZM6.30153 10.3517C6.23561 10.3887 6.19798 10.48 6.21384 10.5644C6.24555 10.7332 6.47625 10.7657 6.56596 10.6141C6.66108 10.4533 6.46574 10.2595 6.30153 10.3517ZM8.72414 12.0043C8.67921 12.0304 8.63123 12.1247 8.63123 12.1869C8.63123 12.2141 8.65674 12.2649 8.68791 12.2997C8.73482 12.3521 8.75876 12.3631 8.82682 12.3631C8.89489 12.3631 8.91883 12.3521 8.96573 12.2997C8.99691 12.2649 9.02241 12.2141 9.02241 12.1869C9.02241 12.1222 8.97314 12.0286 8.92569 12.0033C8.87797 11.9778 8.76877 11.9783 8.72414 12.0043Z" fill="#410EAD"/>
</svg>
