<svg width="49" height="50" viewBox="0 0 49 50" fill="none" xmlns="http://www.w3.org/2000/svg">
<path fill-rule="evenodd" clip-rule="evenodd" d="M3.15496 0.243754C1.64787 0.772519 0.614046 1.8629 0.164358 3.39775C0.0319528 3.84985 0 4.47387 0 6.61032C0 9.17408 0.00714602 9.2682 0.214789 9.4585C0.416102 9.64302 0.655799 9.65718 4.04301 9.68486L7.65644 9.71452V27.8207C7.65644 47.7187 7.61958 46.5265 8.27069 47.6783C8.62778 48.3099 9.49541 49.1676 10.0854 49.4722C11.1509 50.0225 10.3665 49.9997 28.3288 49.9997C46.5223 49.9997 45.5465 50.0311 46.6746 49.4097C47.3188 49.0549 48.0741 48.2849 48.4335 47.6168C48.9238 46.705 48.9986 46.2125 49 43.8898C49.0011 42.0096 48.9801 41.7318 48.8225 41.5399C48.6568 41.3382 48.5286 41.3205 47.0616 41.296L45.4792 41.2696L45.4282 22.363L45.3771 3.45643L45.051 2.75968C44.8716 2.37638 44.596 1.89142 44.4385 1.682C44.0001 1.09889 43.0387 0.43592 42.294 0.203152C41.6381 -0.00192808 41.3832 -0.00451092 22.7289 0.00148134L3.82822 0.00747355L3.15496 0.243754ZM5.87657 1.75504C6.50164 2.06127 7.10701 2.67527 7.38601 3.28606C7.58518 3.72226 7.60835 3.9729 7.63806 6.01347L7.67073 8.26057H4.54996H1.4292L1.42981 6.16844C1.43043 3.90378 1.47769 3.59033 1.92758 2.87239C2.73539 1.58323 4.50443 1.08277 5.87657 1.75504ZM42.0157 1.61495C42.6998 1.8504 43.5952 2.75658 43.8279 3.44899C43.9855 3.91794 43.999 5.43057 43.999 22.5881V41.218H30.0081C15.1023 41.218 15.5599 41.2033 15.3763 41.6875C15.3415 41.7795 15.3129 42.7491 15.3129 43.8422C15.3129 46.2625 15.2276 46.6389 14.496 47.4491C13.8291 48.1876 13.1654 48.4877 12.1993 48.4877C11.2664 48.4877 10.5812 48.1887 9.95092 47.5069C9.05246 46.5348 9.14311 48.8971 9.08564 24.9459L9.03459 3.66306L8.81082 3.06394C8.68781 2.73436 8.42371 2.23453 8.22403 1.9533L7.86091 1.44179H24.6868C40.1597 1.44179 41.553 1.45574 42.0157 1.61495ZM25.5557 10.1672C25.3781 10.2455 24.9336 10.5473 24.568 10.8381L23.9033 11.3668L22.9832 11.2474C22.4771 11.1817 21.9099 11.1571 21.7224 11.1926C21.1152 11.3079 20.693 11.7728 20.2807 12.7795L19.9051 13.6963L19.0637 14.0434C17.5825 14.6545 17.294 15.1533 17.4819 16.7775L17.594 17.7476L16.9894 18.5464C16.3904 19.338 16.3848 19.3516 16.3848 20.0358C16.3848 20.716 16.3936 20.738 16.9718 21.5155C17.6109 22.375 17.6376 22.4889 17.4579 23.5988C17.2572 24.8395 17.7281 25.541 19.1154 26.0676L19.8931 26.3628L20.1705 27.0236L20.4481 27.6844L18.9964 31.1389C17.4257 34.8772 17.3601 35.1297 17.8826 35.4251C18.1355 35.5681 18.2407 35.5526 19.3347 35.2101L20.5141 34.8409L20.6572 35.0618C20.7359 35.1833 20.991 35.6667 21.224 36.1359C21.6747 37.0428 21.9351 37.2664 22.4029 37.1476C22.7248 37.0658 22.7057 37.1047 24.3807 33.1188L25.6787 30.0304H26.183H26.6873L28.1348 33.4804C29.6992 37.2089 29.784 37.3465 30.3877 37.1317C30.6085 37.0531 30.7912 36.805 31.1858 36.048C31.4673 35.5081 31.7315 35.0145 31.773 34.9512C31.8258 34.8706 32.1757 34.9412 32.9375 35.1858C33.5365 35.3782 34.1113 35.5357 34.2148 35.5357C34.4887 35.5357 34.8113 35.165 34.8113 34.8501C34.8113 34.7003 34.1681 33.0513 33.3821 31.1855C32.596 29.3198 31.9529 27.7533 31.9529 27.7044C31.9529 27.6555 32.062 27.344 32.1954 27.0122L32.438 26.4088L33.3439 26.0157C34.738 25.4108 35.112 24.8343 34.9121 23.5988C34.7298 22.4721 34.7572 22.3543 35.3983 21.5072C35.9784 20.7407 35.9852 20.7235 35.9852 20.0385C35.9852 19.3511 35.9802 19.3386 35.3806 18.5464L34.776 17.7476L34.8881 16.7775C35.0762 15.1512 34.8208 14.702 33.3436 14.0611L32.4375 13.6679L32.0947 12.798C31.7112 11.8251 31.2456 11.3062 30.6555 11.1942C30.4637 11.1578 29.8929 11.1817 29.3868 11.2474L28.4667 11.3668L27.8013 10.8375C26.7747 10.0211 26.2462 9.86329 25.5557 10.1672ZM27.0661 12.1314C27.917 12.8051 28.2194 12.8802 29.4503 12.7239C29.9549 12.6597 30.3981 12.6405 30.4352 12.681C30.4724 12.7216 30.6509 13.1182 30.8319 13.5625C31.2861 14.6773 31.4819 14.8775 32.5605 15.33C33.6092 15.7699 33.5864 15.723 33.3784 17.0205C33.2373 17.9008 33.3636 18.3118 34.0473 19.196C34.3552 19.5943 34.6071 19.9753 34.6071 20.0429C34.6071 20.1105 34.3684 20.4731 34.0767 20.8487C33.3285 21.8124 33.2526 22.0878 33.403 23.2932C33.4803 23.9123 33.4896 24.3062 33.4282 24.3613C33.3747 24.4094 33.0094 24.5805 32.6164 24.7414C31.4952 25.2008 31.3105 25.3815 30.8747 26.4455C30.6638 26.9605 30.457 27.4034 30.415 27.4296C30.3731 27.4557 29.875 27.4222 29.308 27.3548C28.1046 27.2119 27.9823 27.2495 26.8878 28.0986C26.5135 28.3889 26.168 28.5849 26.1007 28.545C26.0347 28.5058 25.7234 28.2752 25.4085 28.0325C24.4016 27.256 24.2435 27.2106 23.0682 27.359C22.5072 27.4299 22.0101 27.464 21.9635 27.4349C21.9169 27.4057 21.7062 26.9605 21.4953 26.4455C21.0537 25.3673 20.857 25.1779 19.7171 24.7329C19.3039 24.5715 18.9405 24.3726 18.9094 24.2907C18.8783 24.2089 18.9059 23.7397 18.9705 23.2482C19.1183 22.1244 19.0516 21.881 18.3283 20.9085C18.0173 20.4904 17.7629 20.0969 17.7629 20.0342C17.7629 19.9714 18.0148 19.5943 18.3227 19.196C19.0005 18.3193 19.1161 17.9445 18.9864 17.0423C18.7941 15.7031 18.7627 15.7691 19.7979 15.3348C20.2995 15.1244 20.8051 14.8497 20.9215 14.7244C21.0378 14.5989 21.3085 14.0813 21.5229 13.5739L21.9127 12.6514L22.4665 12.7031C22.7712 12.7315 23.3458 12.7548 23.7435 12.7548C24.4662 12.7548 24.4672 12.7543 25.2238 12.1672C25.6402 11.8439 26.0645 11.5767 26.1669 11.5731C26.2693 11.5695 26.6739 11.8208 27.0661 12.1314ZM25.7015 15.6734C25.6147 15.7729 25.3037 16.3424 25.0104 16.939C24.7171 17.5357 24.4676 18.0349 24.4561 18.0484C24.4444 18.0619 23.8533 18.1586 23.1422 18.2634C21.7069 18.4748 21.438 18.6145 21.438 19.1486C21.438 19.4167 21.5923 19.6138 22.4217 20.4056L23.4055 21.3447L23.1734 22.7026C22.9558 23.9755 22.9517 24.0769 23.1097 24.3208C23.42 24.8002 23.675 24.7654 24.9802 24.0657L26.1796 23.4226L27.3863 24.0651C28.6943 24.7618 28.9514 24.798 29.2558 24.3277C29.4079 24.0929 29.4033 23.9738 29.1938 22.708L28.9677 21.3417L29.9498 20.4041C30.7887 19.6034 30.932 19.419 30.932 19.1401C30.932 18.6088 30.6156 18.4463 29.1808 18.2408C28.4889 18.1417 27.9161 18.0524 27.9079 18.0422C27.8996 18.0321 27.6529 17.5357 27.3596 16.939C26.7161 15.6298 26.6047 15.4926 26.185 15.4926C26.0031 15.4926 25.7897 15.5724 25.7015 15.6734ZM27.1266 19.3536C27.2264 19.3832 27.4917 19.4364 27.7163 19.4717C27.9409 19.5069 28.2562 19.5608 28.4171 19.5913L28.7096 19.6468L28.1441 20.2301C27.8332 20.5509 27.5663 20.883 27.5511 20.9683C27.5189 21.1497 27.6584 22.2766 27.7398 22.491C27.7746 22.5828 27.5215 22.4986 27.0695 22.2682C26.67 22.0647 26.2617 21.8992 26.162 21.9005C26.0624 21.9017 25.6855 22.0638 25.3244 22.2608C24.9634 22.4576 24.6574 22.6077 24.6442 22.5941C24.6312 22.5807 24.6604 22.3605 24.7092 22.1047C24.9078 21.0644 24.8592 20.8728 24.234 20.2335L23.6612 19.6477L24.4127 19.5211C24.826 19.4513 25.2337 19.3575 25.3185 19.3127C25.4034 19.2677 25.6315 18.8991 25.8255 18.4935L26.178 17.756L26.5616 18.5279C26.7727 18.9523 27.0269 19.3239 27.1266 19.3536ZM24.2178 28.9552L24.4965 29.1863L23.3695 31.8703C22.7496 33.3464 22.2028 34.5947 22.1545 34.6443C22.1049 34.695 21.9465 34.492 21.7916 34.1794C21.2931 33.1726 21.1198 33.1003 20.0759 33.4638C19.7582 33.5744 19.5013 33.6325 19.505 33.5929C19.5087 33.5534 19.9574 32.4777 20.5021 31.2023L21.4926 28.8836L22.0523 28.899C22.3602 28.9076 22.8187 28.8759 23.0714 28.8287C23.7903 28.6943 23.9201 28.7086 24.2178 28.9552ZM30.0643 28.88L30.881 28.9156L31.8762 31.27C32.4236 32.5649 32.8714 33.6334 32.8715 33.6446C32.8716 33.6558 32.6118 33.5744 32.2941 33.4638C31.252 33.101 31.1363 33.1482 30.5634 34.1696C30.3848 34.488 30.2157 34.6866 30.1771 34.6234C30.1394 34.5616 29.6053 33.3133 28.9903 31.8492L27.8723 29.1873L28.1516 28.9503C28.3808 28.7558 28.5042 28.7251 28.8392 28.7789C29.0638 28.8149 29.6151 28.8604 30.0643 28.88ZM47.5714 44.2916C47.5711 45.1866 47.5239 46.0898 47.4665 46.2987C47.2136 47.2208 46.2395 48.2011 45.33 48.449C45.075 48.5185 39.9824 48.5452 30.2865 48.5278L15.6285 48.5017L15.9722 47.9826C16.6059 47.0259 16.7421 46.4054 16.7421 44.476V42.7684L30.8554 42.7419C38.6178 42.7273 45.5546 42.7039 46.2704 42.6898L47.572 42.6644L47.5714 44.2916Z" fill="#FF6900"/>
</svg>
