<svg width="50" height="50" viewBox="0 0 50 50" fill="none" xmlns="http://www.w3.org/2000/svg">
<path fill-rule="evenodd" clip-rule="evenodd" d="M23.4148 1.10729C22.7619 1.71636 21.6979 2.71263 21.0504 3.32139C20.4028 3.93006 19.8291 4.41294 19.7754 4.39443C19.7217 4.37583 18.3308 3.99246 16.6844 3.54236C13.9255 2.78812 13.667 2.73408 13.3839 2.85229C13.2149 2.92277 13.0104 3.10987 12.9292 3.26804C12.848 3.42612 12.3434 4.82396 11.8075 6.37428C11.2717 7.92459 10.822 9.20442 10.8082 9.2183C10.7944 9.23218 9.4666 9.53316 7.85742 9.8873C6.24824 10.2413 4.81602 10.5786 4.67471 10.6368C4.5333 10.6951 4.34033 10.8875 4.2457 11.0645C4.07754 11.3793 4.08369 11.4538 4.53389 14.5063C4.78701 16.2223 4.98008 17.6637 4.96289 17.7093C4.9457 17.755 3.9209 18.6406 2.68555 19.6775C1.4502 20.7142 0.340627 21.7003 0.219729 21.8687C0.0989279 22.0372 2.12516e-06 22.2951 2.12516e-06 22.442C2.12516e-06 22.7552 -0.0131816 22.735 2.03721 25.5727C2.91016 26.7808 3.64785 27.8308 3.67647 27.9061C3.70518 27.9815 3.19736 29.3509 2.54795 30.9493C1.89854 32.5479 1.36719 33.9249 1.36719 34.0097C1.36719 34.0943 1.43672 34.2992 1.52168 34.4647C1.65313 34.7209 2.10371 34.9776 4.54903 36.1896C6.1291 36.9727 7.42217 37.6655 7.42266 37.7292C7.42666 38.3706 8.02227 43.9383 8.10313 44.0905C8.37246 44.5978 8.45166 44.6078 11.6404 44.5403C13.268 44.5058 14.6936 44.4583 14.8084 44.4348C14.9882 44.398 15.2453 44.7451 16.6534 46.9256C17.5532 48.3191 18.4157 49.581 18.5701 49.7298C19.0618 50.204 19.2339 50.145 22.1225 48.5097C23.5708 47.6897 24.8229 47.0007 24.905 46.9783C24.987 46.9561 26.2728 47.6269 27.7621 48.4692C29.4324 49.4137 30.5728 50.0003 30.738 50C30.8853 49.9997 31.1284 49.9221 31.2782 49.8278C31.4414 49.7249 32.2253 48.6112 33.2323 47.0517L34.914 44.4474L35.8407 44.4683C36.3505 44.4798 37.7585 44.517 38.9696 44.5509C40.8985 44.6049 41.2102 44.5926 41.4813 44.4511C41.6518 44.3623 41.8327 44.2115 41.8835 44.1157C41.9343 44.02 42.1144 42.5262 42.2838 40.7963C42.4531 39.0662 42.6014 37.641 42.6132 37.6291C42.625 37.6171 43.916 36.9656 45.482 36.1812C47.8724 34.9839 48.3538 34.7075 48.4811 34.4593C48.5645 34.2967 48.6328 34.0932 48.6328 34.007C48.6328 33.9209 48.1009 32.5453 47.4508 30.9502C46.8007 29.3551 46.2928 27.9868 46.3222 27.9095C46.3516 27.8324 47.0898 26.7808 47.9628 25.5727C50.0132 22.735 50 22.7552 50 22.442C50 22.2951 49.9011 22.0358 49.7803 21.8659C49.6594 21.6958 48.5498 20.7088 47.3144 19.6724C46.0791 18.6362 45.0557 17.7359 45.0402 17.6719C45.0247 17.6079 45.2115 16.2124 45.4553 14.5707C45.699 12.9291 45.8984 11.4992 45.8984 11.3933C45.8984 11.2875 45.7557 11.0585 45.5811 10.8845C45.2784 10.5827 45.1227 10.5369 42.2204 9.89724L39.1771 9.22657L38.2256 6.45872C37.0601 3.06863 37.0248 2.99294 36.5478 2.85416C36.2166 2.7577 35.8929 2.82788 33.158 3.58832L30.1344 4.42918L29.74 4.05535C29.3504 3.68586 27.0331 1.51813 25.9574 0.516737C25.4759 0.0685046 25.3493 0 25.0021 0C24.6277 0 24.5255 0.071359 23.4148 1.10729ZM26.9642 4.18311C29.2372 6.32181 29.4479 6.49554 29.7742 6.49829C29.9145 6.49947 31.2711 6.1603 32.7888 5.74435C34.3064 5.3285 35.5704 5.01058 35.5975 5.03794C35.6245 5.06521 36.0816 6.34239 36.6133 7.87616C37.3126 9.8939 37.6394 10.7101 37.7952 10.8286C37.9189 10.9226 39.2226 11.2574 40.856 11.6147C42.4208 11.9569 43.7196 12.252 43.7422 12.2704C43.7646 12.2888 43.5925 13.6273 43.3594 15.2448C43.0041 17.7103 42.9545 18.2319 43.0526 18.4707C43.1251 18.6468 44.0249 19.4812 45.4121 20.6584C46.7746 21.8146 47.6285 22.6052 47.5883 22.6735C47.5519 22.7352 47.1198 23.3393 46.628 24.016C44.4059 27.0739 44.1406 27.4746 44.1406 27.7745C44.1406 27.9372 44.624 29.2596 45.2148 30.7134C45.8057 32.167 46.2891 33.3927 46.2891 33.4367C46.2891 33.4809 45.0975 34.1143 43.641 34.8443C42.1297 35.6018 40.9334 36.2616 40.8543 36.3813C40.7629 36.5195 40.6342 37.4582 40.4766 39.1372C40.345 40.5376 40.2111 41.8785 40.1789 42.1168L40.1203 42.5499L37.1088 42.4803L34.0973 42.4107L33.8026 42.6868C33.6405 42.8387 32.841 44.0039 32.0259 45.276C31.2107 46.5482 30.5283 47.6062 30.5093 47.6271C30.4902 47.648 29.3145 47.0169 27.8967 46.2246C26.0826 45.2108 25.2262 44.7839 25.0062 44.7839C24.7861 44.7839 23.9414 45.2057 22.1479 46.2111C20.7478 46.996 19.5753 47.6378 19.5423 47.6372C19.5094 47.6366 18.7849 46.5504 17.9322 45.2233C17.0797 43.8963 16.2687 42.7207 16.1303 42.6109C15.8852 42.4166 15.7986 42.4131 12.8791 42.4806L9.87969 42.5499L9.82109 42.1168C9.78887 41.8785 9.65498 40.5376 9.52344 39.1372C9.36807 37.4821 9.23643 36.517 9.14727 36.3798C9.06709 36.2565 7.90703 35.618 6.35508 34.843C4.39297 33.863 3.71084 33.4782 3.74111 33.3679C3.76367 33.286 4.24951 32.0592 4.8207 30.6419C5.39199 29.2246 5.85938 27.9331 5.85938 27.7718C5.85938 27.4751 5.58809 27.0655 3.37197 24.016C2.88018 23.3393 2.44844 22.7359 2.4126 22.6748C2.37344 22.6086 3.2458 21.8033 4.58477 20.6695C6.02022 19.4541 6.86572 18.6694 6.94336 18.4804C7.04668 18.2289 7.00254 17.7563 6.64063 15.2448C6.40752 13.6273 6.23535 12.2899 6.25781 12.2729C6.28037 12.2558 7.57324 11.9645 9.13086 11.6254C11.6422 11.0788 11.9928 10.9791 12.2266 10.7457C12.4247 10.5477 12.7212 9.81279 13.4204 7.7863C13.932 6.30341 14.3748 5.0659 14.4043 5.03617C14.4338 5.00645 15.6983 5.32387 17.2144 5.74149C18.7304 6.15921 20.0876 6.49987 20.2305 6.49859C20.561 6.49544 20.9957 6.13549 23.1934 4.04463C24.1602 3.12483 24.9805 2.38113 25.0162 2.39185C25.052 2.40268 25.9286 3.20869 26.9642 4.18311ZM23.2422 8.82144C21.3401 9.05806 19.5497 9.58228 17.8723 10.3936C13.1489 12.6781 9.87119 16.9324 8.76963 22.2082C8.57481 23.1413 8.54688 23.5541 8.55059 25.4432C8.5542 27.3087 8.58535 27.7516 8.7751 28.642C10.2053 35.3513 15.108 40.2933 21.7773 41.7484C22.673 41.9438 23.0806 41.9722 25 41.9722C27.4575 41.9722 28.2842 41.8484 30.259 41.1852C35.8366 39.3118 40.0017 34.537 41.2166 28.6233C41.5142 27.1749 41.5827 24.644 41.3653 23.1301C40.5584 17.5116 37.1618 12.8285 32.1277 10.3936C29.8172 9.27598 28.0023 8.85196 25.3418 8.80796C24.375 8.79202 23.4302 8.79812 23.2422 8.82144ZM26.4442 10.8319C32.5794 11.5008 37.5775 15.8434 39.0645 21.7967C40.0819 25.87 39.3752 30.0291 37.0765 33.4955C34.8566 36.8429 31.649 38.992 27.6879 39.7856C26.2968 40.0643 23.8557 40.0836 22.4777 39.8268C17.9237 38.978 14.0732 36.0722 11.9979 31.9176C10.9877 29.8957 10.5108 27.8022 10.5116 25.3939C10.5124 23.0291 10.9325 21.1166 11.8988 19.0787C14.5193 13.5523 20.467 10.1801 26.4442 10.8319ZM31.5299 19.7591C31.1525 20.1612 22.2582 30.3658 21.9046 30.8023C21.885 30.8265 20.4734 29.4424 18.7679 27.7265L15.6668 24.6065H15.2478C14.6555 24.6065 14.2578 25.0081 14.2578 25.6064V26.0308L17.8481 29.6494L21.4385 33.268H21.8802C22.2784 33.268 22.3662 33.2222 22.774 32.8005C23.0228 32.5433 25.5145 29.7007 28.3112 26.4834C32.1187 22.1035 33.411 20.5544 33.4551 20.3175C33.5672 19.7151 33.1101 19.1988 32.4611 19.1953C32.0995 19.1933 32.0099 19.2476 31.5299 19.7591Z" fill="#FCB900"/>
</svg>
