<svg width="46" height="44" viewBox="0 0 46 44" fill="none" xmlns="http://www.w3.org/2000/svg">
<path fill-rule="evenodd" clip-rule="evenodd" d="M21.9744 0.0509306C19.6617 0.491891 17.7888 1.91776 16.7784 4.00679C16.2551 5.08853 16.0415 6.03267 16.0368 7.28493C16.0318 8.6052 16.2031 9.35559 16.7922 10.5966C17.1973 11.4498 17.3624 11.6844 18.0727 12.4156C18.5211 12.8774 19.1193 13.3961 19.4019 13.5682C20.4784 14.2236 21.7122 14.6032 22.7765 14.6063C23.4458 14.6081 23.6984 14.4208 23.6984 13.9227C23.6984 13.4456 23.4656 13.2922 22.6001 13.1993C22.1902 13.1553 21.7333 13.0811 21.5849 13.0346C19.5359 12.3916 18.0251 10.7895 17.5264 8.73086C17.335 7.94064 17.339 6.61636 17.5351 5.83901C18.024 3.90157 19.4752 2.29808 21.3081 1.67009C21.93 1.45693 22.19 1.42073 23.1138 1.41859C24.9093 1.41439 26.2263 1.92205 27.2859 3.02683C28.2922 4.0761 28.7402 5.207 28.7508 6.72522C28.7625 8.39102 28.206 9.42061 26.9811 9.99926C26.7338 10.1161 26.4201 10.2398 26.2841 10.2744L26.0368 10.337V7.07439C26.0368 3.91509 26.0308 3.80408 25.8503 3.56611C25.4828 3.08149 24.6877 3.38001 24.6877 4.00259C24.6877 4.30447 24.6873 4.30456 24.2119 4.05185C23.9675 3.92181 23.602 3.83487 23.1804 3.80632C22.5834 3.76584 22.4776 3.78748 21.9475 4.05819C19.9364 5.08508 19.5023 8.09922 21.1056 9.90346C21.6362 10.5006 22.3021 10.8106 23.0539 10.8106C23.6111 10.8106 23.8855 10.7276 24.6203 10.337C24.6574 10.3173 24.6877 10.5309 24.6877 10.8117C24.6877 11.5923 24.8662 11.7666 25.6472 11.7482C26.3907 11.7305 27.4767 11.3881 28.096 10.976C29.4412 10.0805 30.116 8.65185 30.1038 6.72522C30.0795 2.93653 27.3092 0.148787 23.4286 0.00829923C22.8597 -0.0123169 22.2054 0.00680655 21.9744 0.0509306ZM23.9102 5.49591C24.4002 5.88351 24.6437 6.49845 24.6374 7.33158C24.6293 8.39223 24.1638 9.1485 23.3808 9.37276C22.4458 9.64058 21.45 8.56276 21.45 7.28279C21.45 6.51057 21.9061 5.62809 22.4555 5.3376C22.8783 5.114 23.5151 5.18331 23.9102 5.49591ZM26.268 12.6804C25.8179 13.1472 26.0389 13.6713 26.7892 13.9165C27.2038 14.052 27.3006 14.0557 27.5221 13.9438C27.6625 13.8729 27.8153 13.6953 27.8618 13.5492C28.0266 13.031 27.6447 12.6306 26.862 12.5007C26.5498 12.4489 26.467 12.474 26.268 12.6804ZM16.6781 13.4645C16.1065 13.7648 15.9585 14.0498 16.1543 14.4735C16.3503 14.8978 16.679 14.9654 17.234 14.6958C17.8877 14.3782 18.0897 13.8256 17.6861 13.4588C17.4007 13.1993 17.1805 13.2005 16.6781 13.4645ZM2.20346 13.5219C1.9314 13.5859 1.58739 13.7053 1.43899 13.7873C0.988498 14.036 0.482602 14.6133 0.234826 15.1613L0 15.6806V23.8431V32.0056L0.235635 32.5267C0.535125 33.1891 1.01746 33.6894 1.6561 34L2.15849 34.2444H6.38742H10.6163L11.2178 33.9373C11.9254 33.576 12.3785 33.0716 12.6354 32.3593C12.8111 31.8723 12.816 31.6409 12.816 23.8406C12.816 16.1526 12.8089 15.8031 12.6429 15.3499C12.3781 14.6272 11.9123 14.1035 11.2195 13.7496L10.6168 13.4418L6.6575 13.4236C3.76153 13.4103 2.56527 13.4367 2.20346 13.5219ZM29.4862 13.746C29.0608 13.8181 28.8197 14.4975 29.0968 14.8438C29.2625 15.0509 30.5565 15.8206 30.739 15.8206C31.0066 15.8206 31.255 15.641 31.3514 15.3779C31.5016 14.9682 31.3068 14.6691 30.5937 14.2145C29.8576 13.7451 29.7529 13.7008 29.4862 13.746ZM14.5629 14.7922C14.2052 14.9407 13.7154 15.5034 13.7154 15.7659C13.7154 16.0771 14.0834 16.4735 14.3724 16.4735C14.6535 16.4735 15.3175 15.9715 15.4254 15.6775C15.6204 15.1453 15.0711 14.5813 14.5629 14.7922ZM10.3254 14.8941C10.6993 14.9929 10.9479 15.1599 11.1856 15.472C11.3026 15.6254 11.0469 15.634 6.37581 15.634H1.44241L1.71753 15.3486C2.22945 14.8176 2.35239 14.803 6.3232 14.7985C8.613 14.7959 10.0872 14.8312 10.3254 14.8941ZM32.2581 16.4096C31.9467 16.7533 32.0048 17.0912 32.4554 17.5586C32.9144 18.0347 33.2163 18.0839 33.5505 17.7371C33.8732 17.4025 33.8325 17.0979 33.4002 16.6114C32.9613 16.1176 32.5831 16.0508 32.2581 16.4096ZM11.467 23.0968V29.1604H6.38553H1.30409V23.0968V17.0333H6.38553H11.467V23.0968ZM32.0985 18.7523C31.9451 18.8215 31.7934 18.9493 31.7613 19.0362C31.7291 19.123 31.7028 21.3059 31.7028 23.887C31.7028 28.3687 31.7105 28.5899 31.8748 28.8002C32.0401 29.012 32.093 29.0204 33.2663 29.0204C34.402 29.0204 34.4994 29.0064 34.6832 28.8158C34.9255 28.5644 34.9413 28.113 34.7168 27.8556C34.5774 27.696 34.4403 27.6678 33.8024 27.6678H33.0518V24.2574C33.0518 21.6226 33.0765 20.8627 33.1601 20.9164C33.2197 20.9545 34.452 21.94 35.8985 23.1063C37.3452 24.2726 38.6017 25.2438 38.6908 25.2644C38.7798 25.285 38.9402 25.27 39.0471 25.231C39.1541 25.1919 40.4395 24.1921 41.9039 23.009C43.3682 21.8259 44.5859 20.858 44.61 20.858C44.634 20.858 44.6537 22.3902 44.6537 24.2629V27.6678H40.8349C37.0222 27.6678 37.0158 27.6682 36.8327 27.872C36.4941 28.249 36.632 28.791 37.1105 28.964C37.4919 29.1019 45.1692 29.1075 45.5174 28.9702C46.0102 28.7758 45.9968 28.9149 45.9999 23.9174C46.002 20.6448 45.9726 19.2123 45.9004 19.0479C45.8441 18.9198 45.6762 18.7709 45.5273 18.7171C45.3475 18.652 43.0905 18.6203 38.8169 18.6228C33.6153 18.6257 32.3237 18.6506 32.0985 18.7523ZM43.3047 20.0607C43.3047 20.1528 38.8862 23.668 38.8058 23.6399C38.6554 23.5872 34.411 20.1613 34.4058 20.0884C34.4032 20.0499 36.4043 20.0184 38.8528 20.0184C41.3013 20.0184 43.3047 20.0374 43.3047 20.0607ZM16.0077 21.139C15.7069 21.4838 15.7998 21.8139 16.4921 22.8592L17.1403 23.838L16.4921 24.8401C15.7874 25.9296 15.7088 26.232 16.0412 26.5769C16.2098 26.7518 16.3588 26.7864 17.068 26.8148C17.5582 26.8344 17.9244 26.8917 17.9636 26.9547C17.9999 27.0134 18.0302 27.2113 18.031 27.3943C18.0348 28.3145 18.645 29.6286 19.4621 30.476C20.431 31.4809 21.5957 31.9897 22.9339 31.9925C25.1789 31.9972 27.0815 30.5477 27.7534 28.3208C28.0064 27.4825 28.0062 26.1633 27.753 25.3357C27.3967 24.1707 26.7043 23.2011 25.763 22.5491C24.8008 21.8828 24.554 21.8267 20.5679 21.3705C16.3417 20.8868 16.2326 20.8813 16.0077 21.139ZM24.5231 23.4419C25.7997 24.0615 26.5868 25.3522 26.5883 26.8282C26.5896 28.0922 26.5479 28.0867 25.6306 26.7008L24.8197 25.4756L21.2957 25.4289L17.7717 25.3823L18.1719 24.7373C18.3919 24.3827 18.572 23.9819 18.572 23.8468C18.572 23.7118 18.4314 23.3723 18.2596 23.0925C18.0877 22.8127 17.946 22.5612 17.9448 22.5335C17.9435 22.5059 19.2949 22.6367 20.9479 22.8243C23.7312 23.1401 23.9955 23.1857 24.5231 23.4419ZM24.9028 28.0602C25.5152 28.9975 25.682 29.3179 25.6149 29.4283C25.4479 29.7027 24.56 30.2621 24.0628 30.4059C23.2891 30.6299 23.0381 30.6523 22.4244 30.5523C20.8708 30.299 19.5999 28.9556 19.389 27.3435L19.3216 26.8282L21.7123 26.8323L24.1031 26.8364L24.9028 28.0602ZM11.467 31.1231C11.467 31.828 11.2365 32.3268 10.7727 32.6258L10.4327 32.8451L6.70031 32.874C4.64749 32.8898 2.79425 32.8765 2.58191 32.8443C2.12944 32.7758 1.60843 32.3474 1.42559 31.8934C1.35877 31.7275 1.30409 31.3596 1.30409 31.0757V30.5596H6.38553H11.467V31.1231ZM35.5506 30.8586C35.3523 31.0137 35.1204 31.5963 35.1204 31.9397C35.1204 32.2745 35.4528 32.6119 35.7825 32.6119C36.1058 32.6119 36.4162 32.256 36.5612 31.719C36.6655 31.3325 36.6597 31.2713 36.4963 31.0434C36.2915 30.7577 35.802 30.6621 35.5506 30.8586ZM5.89087 31.2126C5.65092 31.4615 5.65326 31.9691 5.89537 32.1963C6.33516 32.6091 7.09 32.2764 7.09 31.6697C7.09 31.0958 6.2955 30.793 5.89087 31.2126ZM19.047 32.3423C18.4437 32.5829 17.8164 33.2171 17.509 33.8974L17.2679 34.431L17.2389 38.7688C17.2195 41.6501 17.2419 43.2188 17.3054 43.441C17.3657 43.6514 17.4864 43.8157 17.6311 43.8841C17.958 44.0386 27.9998 44.0386 28.3267 43.8841C28.4714 43.8157 28.5921 43.6514 28.6524 43.441C28.7159 43.2188 28.7383 41.6501 28.719 38.7688L28.6899 34.431L28.4488 33.8974C28.1329 33.1985 27.5151 32.5823 26.8851 32.3378C26.4157 32.1556 26.2098 32.1458 22.953 32.1503C19.7354 32.1549 19.4864 32.1671 19.047 32.3423ZM34.5581 33.2725C34.3251 33.4133 33.7626 34.368 33.7083 34.715C33.6127 35.3263 34.4089 35.6728 34.8238 35.2006C35.1185 34.8651 35.4812 34.2155 35.538 33.9214C35.6352 33.4168 35.0075 33.001 34.5581 33.2725ZM21.3056 34.361L21.5549 35.1773L21.2326 37.542C21.0554 38.8426 20.9104 40.0719 20.9104 40.2738C20.9104 40.608 20.9793 40.7152 21.6787 41.4676C22.1012 41.9223 22.5666 42.3457 22.713 42.4086C23.1164 42.5819 23.4043 42.4089 24.2791 41.4676C24.9785 40.7152 25.0475 40.608 25.0475 40.2738C25.0475 40.0719 24.9024 38.8426 24.7252 37.542L24.4029 35.1773L24.6522 34.361L24.9014 33.5448H25.5736C26.1259 33.5448 26.3133 33.5858 26.6242 33.7748C27.343 34.2117 27.3372 34.1742 27.367 38.6522L27.3932 42.5935H22.9789H18.5646L18.5908 38.6522C18.6205 34.185 18.6154 34.2186 19.3249 33.7774C19.6321 33.5864 19.8137 33.5464 20.3763 33.5456L21.0564 33.5448L21.3056 34.361ZM23.4286 33.6039C23.4286 33.6365 23.3817 33.8254 23.3244 34.0237C23.2371 34.326 23.1812 34.3843 22.9789 34.3843C22.7766 34.3843 22.7207 34.326 22.6334 34.0237C22.5761 33.8254 22.5292 33.6365 22.5292 33.6039C22.5292 33.5714 22.7316 33.5448 22.9789 33.5448C23.2262 33.5448 23.4286 33.5714 23.4286 33.6039ZM11.704 34.9509C11.3924 35.205 11.3885 35.6372 11.6941 36.0667C12.0968 36.6329 12.46 36.7471 12.8489 36.4298C13.2277 36.1208 13.1762 35.6982 12.6965 35.179C12.265 34.7118 12.0559 34.6637 11.704 34.9509ZM23.408 37.905L23.6974 40.0264L23.3381 40.399L22.9789 40.7717L22.6197 40.399L22.2604 40.0264L22.5498 37.905C22.7854 36.1783 22.8652 35.7836 22.9789 35.7836C23.0926 35.7836 23.1724 36.1783 23.408 37.905ZM32.228 36.3284C31.8174 36.7544 31.7028 36.9352 31.7028 37.1576C31.7028 37.5632 31.9693 37.867 32.325 37.867C32.7372 37.867 33.7114 36.8676 33.7114 36.4446C33.7114 36.0468 33.4555 35.7836 33.0685 35.7836C32.8041 35.7836 32.6685 35.8715 32.228 36.3284ZM13.2568 36.453C12.9683 36.5555 12.7745 36.9097 12.8487 37.1991C12.9196 37.4755 12.9606 37.5292 13.4234 37.9525C13.8616 38.3534 14.2058 38.404 14.5078 38.1121C14.8361 37.795 14.7715 37.3827 14.3225 36.9279C13.8682 36.4678 13.5788 36.3389 13.2568 36.453ZM30.1602 38.1047C29.9355 38.2525 29.7252 38.4449 29.693 38.5321C29.5072 39.0342 29.7895 39.515 30.2701 39.515C30.6139 39.515 31.323 39.0239 31.3922 38.7379C31.4675 38.4268 31.2879 38.0316 31.024 37.9275C30.6842 37.7935 30.6102 37.8087 30.1602 38.1047ZM14.7941 38.1842C14.6544 38.3685 14.6153 38.515 14.6533 38.7118C14.7214 39.0653 14.79 39.1427 15.2792 39.4178C15.7564 39.6861 16.098 39.6233 16.3121 39.2275C16.5017 38.8772 16.3782 38.5312 15.9484 38.2082C15.4624 37.843 15.0592 37.8347 14.7941 38.1842Z" fill="black"/>
</svg>
