<svg width="47" height="46" viewBox="0 0 47 46" fill="none" xmlns="http://www.w3.org/2000/svg">
<path fill-rule="evenodd" clip-rule="evenodd" d="M20.9327 0.103301C18.9567 0.579973 17.2773 2.17866 16.5683 4.25785C16.3443 4.91497 16.3133 5.14448 16.3095 6.17258C16.3048 7.46233 16.4158 7.97779 16.9319 9.06233C17.2712 9.77542 19.0881 11.7379 24.4215 17.1521L27.6429 20.4223L31.2318 16.7783C36.637 11.2902 37.8316 9.98437 38.2784 9.07597C38.8014 8.01236 38.9717 7.14368 38.9099 5.85514C38.8562 4.73677 38.6993 4.14843 38.2009 3.19648C37.4116 1.68928 35.9806 0.55306 34.3448 0.134699C33.3891 -0.109665 31.6818 -0.011265 30.6684 0.346636C29.7679 0.664729 29.0349 1.13075 28.2305 1.89664L27.6669 2.43321L26.8974 1.77946C25.9747 0.995531 24.7461 0.324116 23.9001 0.141707C23.2314 -0.00257453 21.4662 -0.0253755 20.9327 0.103301ZM23.7025 1.85842C24.5867 2.09334 25.2367 2.53656 26.4843 3.75511L27.5969 4.84199L28.573 3.88295C30.3713 2.11605 31.0932 1.7531 32.83 1.74311C33.8282 1.73731 33.9859 1.76021 34.5097 1.98747C36.9004 3.02454 37.918 5.74001 36.8307 8.18085C36.6421 8.60425 36.316 9.03654 35.6246 9.77972C34.1248 11.3919 29.8128 15.8035 28.6387 16.9271L27.569 17.9508L25.1128 15.4959C22.2671 12.6514 18.9932 9.19073 18.6104 8.62229C18.0252 7.75323 17.7752 6.29453 18.035 5.26381C18.1156 4.94394 18.3117 4.4197 18.4708 4.0989C18.8075 3.41992 19.7055 2.46209 20.2897 2.15876C21.1733 1.69993 22.625 1.57219 23.7025 1.85842ZM14.7437 23.9393C13.2702 24.1267 11.3664 24.8794 10.291 25.6998C9.63521 26.2 7.3714 28.4046 3.28739 32.5198L0 35.8325L3.88313 39.7914C6.01887 41.9688 8.29251 44.2565 8.93572 44.8752L10.1052 46L11.7889 44.3084L13.4725 42.6168L21.361 42.6086C25.6997 42.604 29.8898 42.5704 30.6725 42.5338C31.9767 42.4728 32.1545 42.4427 32.8012 42.1734C34.1713 41.603 34.5853 41.258 36.593 39.0125C40.6072 34.5229 46.3501 27.8916 46.7619 27.2704C47.7258 25.8166 45.5993 24.3514 43.3183 24.8978C42.1925 25.1676 41.4847 25.6135 39.0864 27.5641C37.624 28.7534 34.1273 31.7026 32.1737 33.3943L31.3339 34.1216L26.8738 34.094L22.4138 34.0665L22.1844 33.8328C21.8341 33.4759 21.7928 33.0804 22.0715 32.7506L22.3011 32.479L25.4539 32.4121C27.188 32.3753 28.7871 32.2996 29.0075 32.244C30.0601 31.978 31.0873 31.2142 31.5461 30.356C31.7829 29.9132 31.8107 29.7703 31.8151 28.974C31.8194 28.2136 31.7877 28.0187 31.5945 27.6186C31.1572 26.7129 30.1752 25.9606 29.1015 25.7087C28.8799 25.6566 28.0789 25.6112 27.3215 25.6077C24.9316 25.5963 22.026 25.4415 21.5375 25.2994C21.2851 25.2259 20.6548 24.9905 20.1369 24.7763C18.1758 23.965 16.5394 23.7111 14.7437 23.9393ZM17.7084 25.7576C18.0976 25.8391 18.9531 26.1276 19.6096 26.3987C21.4743 27.1686 21.4095 27.1596 25.995 27.2839C28.492 27.3516 28.8451 27.3802 29.2114 27.5451C30.563 28.1537 30.5138 29.7009 29.12 30.4169C28.7075 30.6288 28.6277 30.6343 25.3476 30.6756C21.6121 30.7227 21.5746 30.7286 20.9173 31.3806C20.4727 31.8214 20.2057 32.5442 20.2083 33.2991C20.2116 34.2597 20.7002 35.0857 21.5375 35.5465C21.8991 35.7454 21.9823 35.749 26.9115 35.7788L31.9181 35.8091L33.384 34.5737C39.9666 29.0259 42.1528 27.2578 42.9048 26.8737C43.5816 26.528 44.3213 26.3887 44.804 26.5161L45.1139 26.5977L44.4179 27.4421C42.5144 29.7513 35.2586 38.0181 33.9694 39.3465C33.5219 39.8076 33.1005 40.1403 32.7382 40.3188C31.5544 40.9016 32.1292 40.8701 21.9294 40.9105L12.5895 40.9474L11.3239 42.2949L10.0584 43.6424L6.22085 39.7356L2.38335 35.8288L5.65687 32.5394C10.2887 27.885 11.198 27.0412 12.0857 26.5739C13.4275 25.8674 14.3712 25.6323 15.9181 25.6189C16.5836 25.6132 17.2734 25.6666 17.7084 25.7576Z" fill="#FF4E4E"/>
</svg>
