<svg width="40" height="50" viewBox="0 0 40 50" fill="none" xmlns="http://www.w3.org/2000/svg">
<path d="M28.9777 27.9121C26.7976 27.9121 24.6665 28.5598 22.8538 29.7734C21.0412 30.9869 19.6285 32.7119 18.7942 34.73C17.9599 36.7481 17.7415 38.9687 18.1669 41.1111C18.5922 43.2535 19.642 45.2214 21.1835 46.766C22.7251 48.3106 24.6892 49.3624 26.8274 49.7885C28.9656 50.2147 31.1818 49.996 33.196 49.16C35.2101 48.3241 36.9315 46.9085 38.1426 45.0923C39.3538 43.2761 40.0003 41.1408 40.0003 38.9565C39.9967 36.0284 38.8342 33.2214 36.7678 31.151C34.7015 29.0805 31.9 27.9158 28.9777 27.9121ZM28.9777 45.697C27.6475 45.697 26.3471 45.3017 25.241 44.5612C24.1349 43.8207 23.2729 42.7682 22.7639 41.5368C22.2548 40.3054 22.1215 38.9503 22.3811 37.6431C22.6406 36.3358 23.2811 35.135 24.2218 34.1926C25.1624 33.2501 26.361 32.6082 27.6656 32.3481C28.9703 32.0881 30.3226 32.2216 31.5515 32.7317C32.7805 33.2418 33.831 34.1055 34.5701 35.2137C35.3091 36.322 35.7035 37.6249 35.7035 38.9578C35.7013 40.7445 34.992 42.4573 33.7311 43.7207C32.4703 44.9841 30.7608 45.6948 28.9777 45.697Z" fill="#0092FF"/>
<path d="M32.5986 21.1092C32.8808 21.1092 33.1602 21.0535 33.4209 20.9453C33.6816 20.8371 33.9185 20.6785 34.118 20.4785C34.3175 20.2786 34.4758 20.0413 34.5837 19.7801C34.6917 19.5189 34.7474 19.2389 34.7474 18.9562V2.15289C34.7474 1.87016 34.6917 1.59018 34.5837 1.32898C34.4758 1.06777 34.3175 0.830451 34.118 0.63053C33.9185 0.43061 33.6816 0.272001 33.4209 0.163805C33.1602 0.0556085 32.8808 0 32.5986 0H2.14865C1.57883 0.000182965 1.03247 0.227065 0.629542 0.630783C0.226618 1.0345 0.000182605 1.58194 0 2.15289V14.0946C-9.51417e-08 14.3773 0.0554991 14.6573 0.163482 14.9185C0.271466 15.1797 0.429678 15.4171 0.629205 15.617C0.828732 15.8169 1.06566 15.9755 1.32636 16.0837C1.58705 16.1919 1.86647 16.2476 2.14865 16.2476C2.43082 16.2476 2.71024 16.1919 2.97094 16.0837C3.23163 15.9755 3.46857 15.8169 3.66809 15.617C3.86762 15.4171 4.02583 15.1797 4.13382 14.9185C4.2418 14.6573 4.2973 14.3773 4.2973 14.0946V4.30864H30.4486V16.806H19.357C18.9641 16.8061 18.5788 16.9139 18.2427 17.1178C17.9067 17.3218 17.6328 17.6141 17.4507 17.9629L14.2066 24.194L10.2841 15.4276C10.049 14.9095 9.61882 14.5058 9.08757 14.3047C8.55631 14.1035 7.96709 14.1213 7.44887 14.3541C6.93066 14.5869 6.52553 15.0158 6.32199 15.547C6.11845 16.0783 6.13308 16.6687 6.36269 17.1891L12.1 30.0122C12.2651 30.3814 12.5306 30.6965 12.8662 30.9214C13.2017 31.1463 13.5937 31.2719 13.9972 31.2837H14.0613C14.4541 31.2838 14.8395 31.1759 15.1754 30.972C15.5114 30.768 15.7851 30.4757 15.9669 30.1268L20.6605 21.1133L32.5986 21.1092Z" fill="#0092FF"/>
</svg>
