<svg width="44" height="40" viewBox="0 0 44 40" fill="none" xmlns="http://www.w3.org/2000/svg">
<path fill-rule="evenodd" clip-rule="evenodd" d="M33.6855 0.0928005C32.5175 0.423738 31.8269 1.40352 31.7448 2.8459C31.7041 3.56419 31.6882 3.6157 31.4736 3.72707C30.7671 4.09356 29.9187 5.01847 29.4526 5.9301C28.9686 6.8765 28.8812 7.29613 28.802 9.05391C28.6623 12.1548 28.0005 13.7698 26.0339 15.8092C25.4806 16.383 24.9873 16.9597 24.9376 17.0907C24.6457 17.8612 25.0809 18.7667 25.8704 19.0315C26.0572 19.0941 26.9301 19.1295 28.2876 19.1295H30.4125L30.6798 19.6742C31.3702 21.0815 32.8143 21.9794 34.3788 21.9744C35.6545 21.9702 36.4515 21.637 37.3621 20.7274C37.7836 20.3064 38.0326 19.9708 38.1789 19.627L38.3894 19.1324L40.5852 19.1309C42.69 19.1296 42.7969 19.1215 43.1639 18.9354C43.8269 18.5993 44.1411 17.8972 43.9397 17.2017C43.8616 16.9321 43.6588 16.6724 43.1211 16.1531C41.9291 15.0019 41.2166 13.9837 40.7178 12.7184C40.2674 11.5758 40.1443 10.9029 40.0677 9.16511C39.9882 7.36126 39.8215 6.6145 39.2931 5.69596C38.9516 5.10224 38.1065 4.20433 37.5242 3.81645L37.0567 3.5051V2.82278C37.0567 1.96636 36.8415 1.35418 36.3658 0.857511C35.6735 0.134556 34.6096 -0.168947 33.6855 0.0928005ZM35.1534 1.50696C35.5287 1.78579 35.767 2.21016 35.767 2.59968L35.7669 2.95356H34.3825H32.998L33.0497 2.57569C33.121 2.05418 33.3834 1.66613 33.8129 1.447C34.2478 1.2252 34.808 1.25031 35.1534 1.50696ZM35.6996 4.37575C37.1783 4.83402 38.3277 6.10644 38.6527 7.64484C38.719 7.95904 38.774 8.66543 38.7748 9.21463C38.7792 12.1517 39.8242 14.6741 41.8939 16.7438C42.4181 17.268 42.7257 17.6397 42.6971 17.7144C42.6256 17.9014 26.2406 17.8954 26.169 17.7083C26.1375 17.6258 26.405 17.2974 26.9305 16.7737C28.138 15.5699 29.0763 14.0725 29.5628 12.5728C29.8899 11.5642 30.0163 10.7422 30.0862 9.16511C30.1619 7.45961 30.2743 6.97951 30.7848 6.18133C31.1107 5.67163 31.876 4.95394 32.3605 4.70358C33.373 4.18035 34.6611 4.05387 35.6996 4.37575ZM3.93507 4.5973C2.91757 4.84481 1.84151 5.5405 1.14506 6.40115C0.678953 6.97709 0.367786 7.61525 0.165041 8.41076C0.00554572 9.03648 -0.00124681 9.4486 0.000128891 18.4315C0.00184852 28.82 -0.0157777 28.4723 0.565801 29.6293C1.38546 31.2601 2.96288 32.2976 4.90408 32.4828L5.55341 32.5447L5.01526 35.5211C4.71931 37.1581 4.47564 38.6527 4.47374 38.8425C4.46936 39.2904 4.7365 39.7248 5.1137 39.8829C5.50363 40.0464 5.74696 40.0397 6.07523 39.8562C6.2239 39.7732 7.77096 38.3456 9.5132 36.6838C11.2554 35.0221 12.9599 33.4012 13.3009 33.082L13.9209 32.5016H24.0307C35.2891 32.5016 34.8718 32.5218 36.1109 31.9159C36.9145 31.5229 37.9143 30.5542 38.3279 29.768C38.8984 28.6832 38.9483 28.2775 38.9483 24.7194V21.5372L38.7372 21.3255C38.4682 21.0556 38.1386 21.0556 37.8696 21.3255L37.6585 21.5372L37.6575 24.6685C37.6564 28.0233 37.6323 28.2592 37.2062 29.0938C36.7656 29.9567 36.0749 30.5682 35.0881 30.9687L34.6062 31.1644L24.1165 31.2075C14.3359 31.2477 13.6063 31.2609 13.3239 31.4021C13.1573 31.4855 11.4161 33.0824 9.45474 34.9511C7.49324 36.8197 5.87516 38.3364 5.85891 38.3214C5.84265 38.3066 6.06818 36.9658 6.36001 35.3418C6.88484 32.4212 6.88905 32.3852 6.74821 32.0152C6.52715 31.4343 6.23284 31.2763 5.22625 31.1981C4.21176 31.1192 3.7086 30.9649 3.02891 30.5241C2.19334 29.9823 1.58511 29.0756 1.37428 28.0575C1.31444 27.7688 1.29243 24.485 1.30799 18.1795L1.33138 8.73376L1.52424 8.25926C1.91537 7.29682 2.81998 6.38113 3.75227 6.00387L4.25475 5.80052L16.0467 5.75739C27.4897 5.71555 27.844 5.70942 28.0196 5.54991C28.2558 5.33543 28.2603 4.86836 28.0286 4.63586C27.8583 4.46495 27.7469 4.4634 16.1417 4.47048C6.46757 4.47643 4.34107 4.49851 3.93507 4.5973ZM6.61924 11.9689C6.24677 12.3427 6.49577 12.943 7.06583 13.0459C7.22214 13.0741 11.3871 13.0859 16.3211 13.0723L25.2921 13.0473L25.4997 12.8053C25.7538 12.5087 25.7609 12.3196 25.5289 12.0237L25.3507 11.7964H16.0709C6.90582 11.7964 6.78905 11.7986 6.61924 11.9689ZM6.82559 17.7851C6.41134 17.9676 6.3073 18.4714 6.61924 18.7844C6.78871 18.9544 6.90582 18.9569 14.5676 18.9569H22.3441L22.4779 18.7651C22.6589 18.5059 22.6464 18.1563 22.4475 17.9097L22.2831 17.706L14.6877 17.6868C8.43732 17.6711 7.04493 17.6885 6.82559 17.7851ZM36.9707 19.2226C36.9707 19.2739 36.7479 19.5394 36.4757 19.8125C35.8014 20.489 35.2172 20.7133 34.2623 20.6623C33.7437 20.6346 33.4682 20.571 33.1428 20.4038C32.7248 20.189 31.8978 19.4023 31.8978 19.2195C31.8978 19.1591 32.7311 19.1295 34.4342 19.1295C36.1932 19.1295 36.9707 19.158 36.9707 19.2226ZM6.82559 23.738C6.41134 23.9201 6.30721 24.424 6.61924 24.7371C6.78862 24.9071 6.90582 24.9097 14.5295 24.9097C22.1533 24.9097 22.2704 24.9071 22.4398 24.7371C22.6715 24.5046 22.667 24.0375 22.4308 23.8231C22.2561 23.6644 21.9889 23.658 14.671 23.6398C8.44273 23.6242 7.04459 23.6417 6.82559 23.738Z" fill="#FF0B0B"/>
</svg>
