<svg width="50" height="63" viewBox="0 0 50 63" fill="none" xmlns="http://www.w3.org/2000/svg">
<path fill-rule="evenodd" clip-rule="evenodd" d="M0.319662 0.322219L0 0.644306V31.5V62.3557L0.319662 62.6778L0.639192 63H25H49.3608L49.6803 62.6778L50 62.3557V37.7747V13.1935L43.4556 6.59676L36.9112 0H18.7751H0.639192L0.319662 0.322219ZM35.4167 8.07778V14.0557L35.7363 14.3778L36.0559 14.7H41.9863H47.9167V37.8V60.9H25H2.08333V31.5V2.1H18.75H35.4167V8.07778ZM41.9922 8.1375L46.4178 12.6H41.9589H37.5V8.1375C37.5 5.68312 37.515 3.675 37.5333 3.675C37.5516 3.675 39.5581 5.68312 41.9922 8.1375ZM15.9766 5.54531C15.8184 5.70767 14.7271 7.00691 13.5516 8.43229L11.4142 11.0238L10.6012 10.237C9.6638 9.32964 9.20143 9.21926 8.653 9.77222L8.33333 10.0943V9.24722V8.4H10.6178C12.8699 8.4 12.907 8.39541 13.222 8.07778C13.6449 7.65161 13.6449 7.04839 13.222 6.62222L12.9025 6.3H9.89583H6.88919L6.56966 6.62222L6.25 6.94431V10.5V14.0557L6.56966 14.3778L6.88919 14.7H10.4167H13.9441L14.2637 14.3778C14.9516 13.6845 14.5284 12.7327 13.477 12.608L12.8555 12.5344L15.2819 9.60159C17.9223 6.41025 18.0251 6.21364 17.3887 5.57222C16.9772 5.15734 16.3658 5.14579 15.9766 5.54531ZM20.1113 7.67222C19.9098 7.87526 19.7917 8.14432 19.7917 8.4C19.7917 8.65567 19.9098 8.92474 20.1113 9.12778L20.4309 9.45H26.0417H31.6525L31.972 9.12778C32.1736 8.92474 32.2917 8.65567 32.2917 8.4C32.2917 8.14432 32.1736 7.87526 31.972 7.67222L31.6525 7.35H26.0417H20.4309L20.1113 7.67222ZM9.17565 11.783L9.95273 12.6H9.1431H8.33333V11.725C8.33333 11.2438 8.34805 10.876 8.36588 10.9079C8.38372 10.9398 8.74818 11.3336 9.17565 11.783ZM18.028 11.8722C17.8264 12.0753 17.7083 12.3443 17.7083 12.6C17.7083 12.8557 17.8264 13.1247 18.028 13.3278L18.3475 13.65H25H31.6525L31.972 13.3278C32.1736 13.1247 32.2917 12.8557 32.2917 12.6C32.2917 12.3443 32.1736 12.0753 31.972 11.8722L31.6525 11.55H25H18.3475L18.028 11.8722ZM16.1921 18.9823C16.11 19.0163 14.9997 20.309 13.7247 21.8552L11.4065 24.6665L10.5974 23.8832C9.66393 22.9798 9.20078 22.8699 8.653 23.4222L8.33333 23.7443V22.8972V22.05H10.6178C12.8699 22.05 12.907 22.0454 13.222 21.7278C13.6449 21.3016 13.6449 20.6984 13.222 20.2722L12.9025 19.95H9.89583H6.88919L6.56966 20.2722L6.25 20.5943V24.15V27.7057L6.56966 28.0278L6.88919 28.35H10.4167H13.9441L14.2637 28.0278C14.9523 27.3337 14.5284 26.3826 13.475 26.258L12.8514 26.1844L15.2799 23.261C17.9288 20.0723 18.0333 19.8719 17.3887 19.2222C17.0902 18.9213 16.5849 18.8201 16.1921 18.9823ZM20.1113 21.3222C19.9098 21.5253 19.7917 21.7943 19.7917 22.05C19.7917 22.3057 19.9098 22.5747 20.1113 22.7778L20.4309 23.1H31.7708H43.1108L43.4303 22.7778C43.6319 22.5747 43.75 22.3057 43.75 22.05C43.75 21.7943 43.6319 21.5253 43.4303 21.3222L43.1108 21H31.7708H20.4309L20.1113 21.3222ZM9.17565 25.433L9.95273 26.25H9.1431H8.33333V25.375C8.33333 24.8938 8.34805 24.526 8.36588 24.5579C8.38372 24.5898 8.74818 24.9836 9.17565 25.433ZM18.028 25.5222C17.8264 25.7253 17.7083 25.9943 17.7083 26.25C17.7083 26.5057 17.8264 26.7747 18.028 26.9778L18.3475 27.3H30.7292H43.1108L43.4303 26.9778C43.8533 26.5516 43.8533 25.9484 43.4303 25.5222L43.1108 25.2H30.7292H18.3475L18.028 25.5222ZM15.9766 32.8453C15.8184 33.0078 14.7271 34.3069 13.5516 35.7323L11.4142 38.3238L10.6012 37.537C9.6638 36.6296 9.20143 36.5193 8.653 37.0722L8.33333 37.3943V36.5472V35.7H10.6178C12.8699 35.7 12.907 35.6954 13.222 35.3778C13.6449 34.9516 13.6449 34.3484 13.222 33.9222L12.9025 33.6H9.89583H6.88919L6.56966 33.9222L6.25 34.2443V37.8V41.3557L6.56966 41.6778L6.88919 42H10.4167H13.9441L14.2637 41.6778C14.9516 40.9845 14.5284 40.0327 13.477 39.908L12.8555 39.8344L15.2819 36.9016C17.9223 33.7102 18.0251 33.5136 17.3887 32.8722C16.9772 32.4573 16.3658 32.4458 15.9766 32.8453ZM20.1113 34.9722C19.9098 35.1753 19.7917 35.4443 19.7917 35.7C19.7917 35.9557 19.9098 36.2247 20.1113 36.4278L20.4309 36.75H31.7708H43.1108L43.4303 36.4278C43.6319 36.2247 43.75 35.9557 43.75 35.7C43.75 35.4443 43.6319 35.1753 43.4303 34.9722L43.1108 34.65H31.7708H20.4309L20.1113 34.9722ZM9.17565 39.083L9.95273 39.9H9.1431H8.33333V39.025C8.33333 38.5438 8.34805 38.176 8.36588 38.2079C8.38372 38.2398 8.74818 38.6336 9.17565 39.083ZM18.028 39.1722C17.8264 39.3753 17.7083 39.6443 17.7083 39.9C17.7083 40.1557 17.8264 40.4247 18.028 40.6278L18.3475 40.95H30.7292H43.1108L43.4303 40.6278C43.8533 40.2016 43.8533 39.5984 43.4303 39.1722L43.1108 38.85H30.7292H18.3475L18.028 39.1722ZM15.9766 47.5453C15.8184 47.7078 14.7271 49.0069 13.5516 50.4323L11.4142 53.0238L10.6012 52.237C9.6638 51.3296 9.20143 51.2193 8.653 51.7722L8.33333 52.0943V51.2472V50.4H10.6178C12.8699 50.4 12.907 50.3954 13.222 50.0778C13.6449 49.6516 13.6449 49.0484 13.222 48.6222L12.9025 48.3H9.89583H6.88919L6.56966 48.6222L6.25 48.9443V52.5V56.0557L6.56966 56.3778L6.88919 56.7H10.4167H13.9441L14.2637 56.3778C14.9516 55.6845 14.5284 54.7327 13.477 54.608L12.8555 54.5344L15.2819 51.6016C17.9223 48.4102 18.0251 48.2136 17.3887 47.5722C16.9772 47.1573 16.3658 47.1458 15.9766 47.5453ZM20.1113 48.6222C19.9098 48.8253 19.7917 49.0943 19.7917 49.35C19.7917 49.6057 19.9098 49.8747 20.1113 50.0778L20.4309 50.4H31.7708H43.1108L43.4303 50.0778C43.6319 49.8747 43.75 49.6057 43.75 49.35C43.75 49.0943 43.6319 48.8253 43.4303 48.6222L43.1108 48.3H31.7708H20.4309L20.1113 48.6222ZM18.028 52.8222C17.8264 53.0253 17.7083 53.2943 17.7083 53.55C17.7083 53.8057 17.8264 54.0747 18.028 54.2778L18.3475 54.6H30.7292H43.1108L43.4303 54.2778C43.8533 53.8516 43.8533 53.2484 43.4303 52.8222L43.1108 52.5H30.7292H18.3475L18.028 52.8222ZM9.17565 53.783L9.95273 54.6H9.1431H8.33333V53.725C8.33333 53.2438 8.34805 52.876 8.36588 52.9079C8.38372 52.9398 8.74818 53.3336 9.17565 53.783Z" fill="#FCB900"/>
</svg>
