<svg width="46" height="48" viewBox="0 0 46 48" fill="none" xmlns="http://www.w3.org/2000/svg">
<path fill-rule="evenodd" clip-rule="evenodd" d="M2.89827 0.171C1.8859 0.437813 0.897566 1.22625 0.427099 2.14237C-0.0127026 2.99878 0.00197609 2.49703 0.000947648 16.7199C-0.000174294 31.6481 -0.0454259 30.6143 0.654759 31.6658C1.25247 32.5632 2.17508 33.1664 3.26851 33.3743C3.57919 33.4334 6.92969 33.4688 12.2138 33.4688H20.6623L20.6634 38.9766C20.6644 44.8273 20.6651 44.8365 21.1208 45.7325C21.6022 46.6783 22.8327 47.5307 23.992 47.721C24.7208 47.8407 41.9354 47.8417 42.6637 47.722C43.7794 47.5388 44.731 46.931 45.3447 46.0096C46.0407 44.9644 45.9995 45.795 45.9995 32.7995V21.1435L42.6089 17.7436L39.2182 14.3438H32.3245H25.4306L25.43 10.8516C25.4298 8.87559 25.39 7.21688 25.3385 7.03125C25.2681 6.77747 24.4887 5.94338 21.9001 3.35156L18.5527 0L11.0294 0.0054375C4.2446 0.0103125 3.44634 0.0265312 2.89827 0.171ZM32.3851 0.710906C32.2247 0.790219 31.3097 1.64813 30.3515 2.61741C28.0296 4.96622 28.0295 4.59609 30.3532 6.94678C31.3123 7.917 32.2328 8.77547 32.3989 8.8545C32.8236 9.05653 33.2582 8.89772 33.4339 8.47622C33.6292 8.00747 33.493 7.776 32.3207 6.58378L31.2741 5.51925L35.3411 5.54897C39.8857 5.58206 39.7957 5.56969 40.5178 6.26241C41.2205 6.93638 41.2269 6.97378 41.2292 10.4327C41.2309 12.9034 41.2579 13.5698 41.367 13.8317C41.5908 14.3688 42.2161 14.4813 42.6361 14.0602C42.8129 13.8828 42.8207 13.7358 42.8207 10.5616C42.8207 7.55241 42.8044 7.20066 42.6433 6.73125C42.4157 6.06778 42.1011 5.58047 41.5915 5.10253C41.0773 4.62009 40.7846 4.43897 40.1235 4.19409C39.6244 4.00912 39.3683 3.99619 35.495 3.95953L31.3948 3.92062L32.3814 2.91675C32.924 2.36466 33.4106 1.80056 33.4627 1.66313C33.6073 1.28156 33.4206 0.852188 33.0408 0.693C32.6689 0.537188 32.7401 0.535313 32.3851 0.710906ZM17.4835 3.87225C17.4835 6.13584 17.4851 6.15384 17.7257 6.63797C17.8589 6.906 18.1195 7.25063 18.3048 7.40381C18.9175 7.91025 19.2603 7.96875 21.6139 7.96875H23.7477V11.1956V14.4224L23.2804 14.578C22.7177 14.7654 21.8361 15.3987 21.4746 15.875C21.33 16.0656 21.0986 16.4634 20.9604 16.7592L20.7091 17.2969L20.6623 24.5625L20.6156 31.8281L12.2478 31.8565C6.46586 31.8762 3.73552 31.8534 3.41249 31.7829C2.75391 31.6393 2.1361 31.1571 1.83551 30.5522L1.58934 30.0569V16.7344V3.41184L1.83149 2.92453C1.96472 2.6565 2.22613 2.31122 2.41237 2.15728C3.0948 1.59319 2.8619 1.60922 10.4948 1.60116L17.4835 1.59375V3.87225ZM21.2478 6.35503C19.7166 6.38484 19.5249 6.35944 19.2576 6.09141C19.0885 5.92181 19.0729 5.77453 19.0729 4.33687V2.7675L20.8505 4.54781L22.628 6.32812L21.2478 6.35503ZM5.1889 6.48328C4.55117 6.83297 4.65392 7.75022 5.35018 7.92309C5.46714 7.95206 7.42839 7.96369 9.70836 7.94888L13.8538 7.92188L14.0325 7.70053C14.2873 7.38487 14.2643 6.88847 13.9817 6.60516L13.7522 6.375L9.56401 6.37781C6.71362 6.37978 5.31615 6.41344 5.1889 6.48328ZM4.9977 11.3864C4.5665 11.8187 4.7649 12.5601 5.35018 12.7037C5.46714 12.7324 8.85877 12.744 12.8872 12.7295L20.2114 12.7031L20.3902 12.4818C20.645 12.1662 20.622 11.6697 20.3393 11.3864L20.1099 11.1562H12.6685H5.22714L4.9977 11.3864ZM4.9977 16.1677C4.61933 16.547 4.69478 17.1586 5.14888 17.3941C5.54512 17.5996 18.2025 17.5996 18.5987 17.3941C19.0528 17.1586 19.1283 16.547 18.7499 16.1677L18.5205 15.9375H11.8738H5.22714L4.9977 16.1677ZM38.0698 18.1641C38.1024 20.2624 38.1171 20.4192 38.3255 20.8869C38.4516 21.1702 38.7095 21.5231 38.9264 21.7093C39.5438 22.2392 39.9569 22.3125 42.3235 22.3125H44.4101V33.3566V44.4007L44.1639 44.8959C43.8664 45.4947 43.2477 45.9811 42.6058 46.121C41.9878 46.2556 24.6741 46.2556 24.0561 46.121C23.4142 45.9811 22.7954 45.4947 22.4979 44.8959L22.2518 44.4007L22.2527 31.0832L22.2536 17.7656L22.4744 17.2902C22.5957 17.0287 22.8568 16.6812 23.0543 16.518C23.7599 15.9347 23.5027 15.953 31.1018 15.9449L38.0352 15.9375L38.0698 18.1641ZM41.5585 18.9375L43.3331 20.7188H41.8568C40.1352 20.7188 39.8957 20.6471 39.7402 20.0858C39.6289 19.6838 39.6053 17.1562 39.7129 17.1562C39.752 17.1562 40.5825 17.9578 41.5585 18.9375ZM4.9977 20.9489C4.61933 21.3282 4.69478 21.9398 5.14888 22.1753C5.54512 22.3808 18.2025 22.3808 18.5987 22.1753C19.0528 21.9398 19.1283 21.3282 18.7499 20.9489L18.5205 20.7188H11.8738H5.22714L4.9977 20.9489ZM25.6601 20.9489C25.2818 21.3282 25.3572 21.9398 25.8113 22.1753C26.2044 22.3792 34.0998 22.3792 34.4929 22.1753C34.947 21.9398 35.0225 21.3282 34.6441 20.9489L34.4146 20.7188H30.1521H25.8896L25.6601 20.9489ZM4.9977 25.7302C4.61933 26.1095 4.69478 26.7211 5.14888 26.9566C5.54512 27.1621 18.2025 27.1621 18.5987 26.9566C19.0528 26.7211 19.1283 26.1095 18.7499 25.7302L18.5205 25.5H11.8738H5.22714L4.9977 25.7302ZM25.6601 25.7302C25.2818 26.1095 25.3572 26.7211 25.8113 26.9566C26.2081 27.1624 40.4538 27.1624 40.8506 26.9566C41.3047 26.7211 41.3801 26.1095 41.0018 25.7302L40.7723 25.5H33.3309H25.8896L25.6601 25.7302ZM25.6601 30.5114C25.2818 30.8907 25.3572 31.5023 25.8113 31.7378C26.2081 31.9436 40.4538 31.9436 40.8506 31.7378C41.3047 31.5023 41.3801 30.8907 41.0018 30.5114L40.7723 30.2812H33.3309H25.8896L25.6601 30.5114ZM3.40829 35.2927L3.17875 35.5227V38.4186C3.17875 41.0792 3.19409 41.3594 3.36771 41.8681C3.85519 43.2968 5.02772 44.2904 6.51457 44.5345C6.81394 44.5837 8.78314 44.6242 10.8906 44.6244L14.7225 44.625L13.616 45.7373C12.5867 46.7722 12.5096 46.8749 12.5096 47.2107C12.5096 47.6566 12.8545 48 13.3023 48C13.5627 48 13.8269 47.7709 15.4942 46.099C17.319 44.2692 17.39 44.1842 17.39 43.8281C17.39 43.4721 17.319 43.387 15.4942 41.5572C13.7411 39.7993 13.5735 39.6562 13.2666 39.6562C13.041 39.6562 12.8743 39.7238 12.7455 39.8672C12.2608 40.4071 12.3731 40.6615 13.6768 41.9766L14.7223 43.0312L10.8906 43.0302C8.78314 43.0297 6.90024 43.0029 6.70651 42.9708C6.13189 42.8755 5.41787 42.3854 5.09877 41.8671L4.81492 41.406L4.76817 38.4604L4.72143 35.5148L4.45908 35.2886C4.11623 34.9931 3.70541 34.9946 3.40829 35.2927ZM25.6601 35.2927C25.2818 35.672 25.3572 36.2836 25.8113 36.5191C26.2081 36.7249 40.4538 36.7249 40.8506 36.5191C41.3047 36.2836 41.3801 35.672 41.0018 35.2927L40.7723 35.0625H33.3309H25.8896L25.6601 35.2927ZM25.6601 40.0739C25.2818 40.4532 25.3572 41.0648 25.8113 41.3003C26.2075 41.5058 38.8649 41.5058 39.2612 41.3003C39.7153 41.0648 39.7907 40.4532 39.4123 40.0739L39.1829 39.8438H32.5362H25.8896L25.6601 40.0739ZM41.5431 40.0676C41.2933 40.2832 41.2824 40.3297 41.2535 41.3098C41.2371 41.8699 41.2037 42.4222 41.1793 42.5374C41.1026 42.8997 40.6854 43.0312 39.6124 43.0312C38.7688 43.0312 38.6057 43.0572 38.3923 43.2256C38.2138 43.3663 38.1459 43.5064 38.1459 43.7335C38.1459 44.1762 38.224 44.3309 38.5267 44.4878C38.8427 44.6517 40.3364 44.6753 41.0163 44.5272C41.6583 44.3873 42.277 43.901 42.5745 43.3022C42.8035 42.8416 42.8207 42.7192 42.8207 41.5554C42.8207 40.3517 42.8119 40.2952 42.5912 40.0739C42.295 39.7768 41.8831 39.7744 41.5431 40.0676Z" fill="#9549D1"/>
</svg>
