<svg width="46" height="40" viewBox="0 0 46 40" fill="none" xmlns="http://www.w3.org/2000/svg">
<path fill-rule="evenodd" clip-rule="evenodd" d="M32.9322 0.145042C32.3684 0.440245 31.9975 0.936805 31.8567 1.58463C31.7823 1.92698 31.6476 2.02324 30.7004 2.41032L29.9967 2.69793L29.452 2.4188C28.809 2.0894 28.2703 2.05708 27.7014 2.31362C27.2429 2.52042 26.2459 3.49122 26.0319 3.93902C25.8005 4.42371 25.8289 5.14198 26.1006 5.67399C26.3855 6.23189 26.3825 6.34172 26.0613 7.09804L25.797 7.7205L15.4325 7.76515L5.06804 7.80979L4.61502 8.0474C4.06385 8.33636 3.46513 8.96364 3.19853 9.53137L3.0007 9.95283L2.97661 21.6279L2.95252 33.303H2.30185C1.17155 33.303 0.583979 33.5905 0.212757 34.3251C-0.360526 35.4597 0.265878 37.4486 1.59769 38.7224C2.02357 39.1297 2.75217 39.5468 3.43646 39.7751L4.11104 40H22.9839H41.8567L42.473 39.8124C44.4097 39.2229 45.8084 37.5048 45.9784 35.5063C46.0244 34.9657 46.0032 34.7874 45.8535 34.4585C45.4762 33.6291 45.0323 33.3737 43.8756 33.3202L43.0442 33.2817V23.1142V12.9467L43.4378 12.8483C43.9331 12.7243 44.4305 12.3217 44.6812 11.8416C44.8422 11.5334 44.8758 11.3125 44.8801 10.5332C44.8846 9.72094 44.8568 9.53788 44.6719 9.16348C44.4224 8.65835 43.8832 8.23277 43.394 8.15509C42.9564 8.08553 42.7849 7.87989 42.4264 6.99446L42.1325 6.26841L42.3777 5.80248C42.6678 5.2511 42.7494 4.61533 42.5915 4.13689C42.4469 3.69909 41.3306 2.53239 40.842 2.30844C40.3014 2.06056 39.7669 2.09306 39.1044 2.41425C38.4857 2.7141 38.5621 2.7199 37.5452 2.29576C36.8689 2.01368 36.7665 1.91769 36.6494 1.4556C36.5109 0.909481 36.1199 0.411493 35.6533 0.187099C35.3181 0.0258351 35.0997 -0.00282787 34.2296 0.000208099C33.4717 0.0028869 33.131 0.0408363 32.9322 0.145042ZM35.1655 1.46908C35.2392 1.54221 35.3269 1.73312 35.3605 1.89322C35.4552 2.34442 35.8217 2.90974 36.1447 3.10306C36.3059 3.19941 36.8017 3.43398 37.2466 3.62426C38.276 4.06448 38.8197 4.08502 39.5105 3.70998C39.8243 3.53952 40.0471 3.47443 40.1921 3.51059C40.484 3.58337 41.3364 4.49192 41.3364 4.73025C41.3364 4.83499 41.2258 5.10805 41.0907 5.33709C40.7267 5.9541 40.7529 6.51692 41.1933 7.54191C41.3831 7.98391 41.6179 8.47646 41.7149 8.63656C41.9095 8.95748 42.4785 9.32153 42.9327 9.41564C43.426 9.51779 43.4936 9.65263 43.4936 10.5346C43.4936 11.252 43.4747 11.3399 43.2938 11.4657C43.1839 11.5422 43.0205 11.6048 42.9307 11.6048C42.6865 11.6048 42.1326 11.9119 41.8583 12.1993C41.6245 12.4443 41.1921 13.3633 40.9195 14.1943C40.7556 14.6935 40.819 15.1837 41.114 15.699C41.2363 15.9128 41.3364 16.1728 41.3364 16.2768C41.3364 16.3874 41.1226 16.6806 40.8223 16.9821C40.2302 17.5766 40.037 17.6175 39.4355 17.2759C38.8463 16.9413 38.3024 16.9722 37.2253 17.4013C36.081 17.8573 35.6421 18.2271 35.4375 18.9076C35.2203 19.6302 35.0776 19.7304 34.2664 19.7304C33.6767 19.7304 33.5722 19.7046 33.3776 19.5112C33.2562 19.3907 33.1569 19.2083 33.1569 19.1059C33.1569 18.8235 32.8383 18.2625 32.533 18.0073C32.3834 17.8822 32.0479 17.6998 31.7876 17.602C31.5273 17.5042 31.1322 17.3412 30.9098 17.2399C30.3309 16.9761 29.6155 16.9898 29.0758 17.2749C28.4458 17.6077 28.2618 17.5735 27.7052 17.0206C27.1487 16.4677 27.1142 16.2849 27.4492 15.659C27.8009 15.002 27.7603 14.4826 27.266 13.312C27.0364 12.7684 26.7515 12.2469 26.6143 12.1194C26.311 11.8376 25.8552 11.6048 25.607 11.6048C25.5034 11.6048 25.3194 11.5061 25.1981 11.3855C25.0052 11.194 24.9774 11.0866 24.9774 10.5314C24.9774 10.1822 25.0189 9.8196 25.0695 9.72558C25.1235 9.6253 25.3719 9.49395 25.6711 9.40761C26.4362 9.1866 26.8557 8.73344 27.3081 7.63942C27.7565 6.55513 27.7895 6.02125 27.4492 5.35423C27.1241 4.71685 27.1525 4.58336 27.7386 3.9951C28.3002 3.4313 28.5204 3.36647 28.9185 3.64757C29.1866 3.83687 29.7619 4.01447 30.1008 4.0126C30.2244 4.01188 30.7694 3.83071 31.3118 3.60998C32.514 3.12074 32.9183 2.77339 33.1267 2.05083C33.2047 1.78045 33.309 1.50908 33.3585 1.44765C33.4952 1.27817 34.9913 1.29594 35.1655 1.46908ZM33.1933 5.21297C31.1023 5.68774 29.5317 7.17019 29.0219 9.15017C28.5411 11.018 29.0197 12.814 30.3764 14.2328C32.4635 16.4156 35.8994 16.4631 38.0535 14.3389C39.0719 13.3346 39.5805 12.2461 39.683 10.8509C39.8228 8.95051 38.8242 6.99044 37.1859 5.94928C36.0763 5.24422 34.4096 4.93678 33.1933 5.21297ZM35.2164 6.56335C35.985 6.74336 36.5804 7.07812 37.165 7.65889C38.7512 9.23464 38.7362 11.8213 37.1319 13.377C35.5357 14.9247 33.1208 14.9599 31.4822 13.4596C29.4179 11.5692 29.9197 8.11812 32.4378 6.88775C33.3844 6.42521 34.2133 6.32851 35.2164 6.56335ZM23.7573 9.43939C23.6117 9.8447 23.5937 11.0725 23.7263 11.5472C23.8801 12.097 24.4604 12.6523 25.0573 12.8207C25.3347 12.899 25.6081 13.009 25.6649 13.0652C25.8083 13.2073 26.2477 14.2707 26.2987 14.5995C26.3272 14.7823 26.2653 15.0121 26.1086 15.3048C25.8384 15.8095 25.7973 16.5127 26.0088 17.0151C26.1894 17.4447 27.1648 18.4357 27.6247 18.6569C28.1637 18.9161 28.8788 18.8991 29.4181 18.6143C29.6505 18.4915 29.9203 18.391 30.0178 18.391C30.2245 18.391 31.5359 18.9114 31.6867 19.0533C31.7434 19.1065 31.8541 19.3755 31.9328 19.6511C32.1024 20.2441 32.6614 20.8205 33.2149 20.9733C33.6826 21.1022 34.8937 21.0951 35.3455 20.9606C35.9035 20.7945 36.436 20.2341 36.6131 19.6263C36.7856 19.0346 36.7984 19.0222 37.5612 18.7047C38.4262 18.3449 38.5871 18.3342 39.0849 18.6033C39.4048 18.7763 39.6486 18.8375 40.0169 18.8375C40.6139 18.8375 40.8886 18.7433 41.3493 18.3809L41.6959 18.1082V25.7056V33.303H23H4.30402L4.306 21.8512C4.30789 10.93 4.31562 10.3828 4.47309 10.0421C4.65529 9.64789 4.8427 9.45511 5.24799 9.24518C5.48717 9.12133 6.54834 9.10562 14.6975 9.10508L23.8776 9.10454L23.7573 9.43939ZM6.75822 11.0651C6.6003 11.1608 6.39806 11.3497 6.3088 11.4849C6.15555 11.7174 6.1453 12.2416 6.12256 21.0661L6.09847 30.4013L6.30233 30.7964C6.42952 31.0429 6.62394 31.2527 6.81935 31.3543C7.11902 31.5101 7.81733 31.5171 23 31.5171C38.1826 31.5171 38.8809 31.5101 39.1806 31.3543C39.3758 31.2527 39.5706 31.0426 39.698 30.7962L39.9022 30.401L39.8777 25.5935L39.8533 20.7861L39.6411 20.6154C39.3537 20.3843 38.9839 20.3992 38.7454 20.6514L38.55 20.8581V25.5179V30.1777H23H7.44997V21.2054V12.233L14.5139 12.2091L21.5777 12.1852L21.7496 11.9743C21.9822 11.6889 21.9673 11.3215 21.7134 11.0845L21.5053 10.8904L14.2754 10.8908C7.26769 10.891 7.03669 10.8964 6.75822 11.0651ZM16.6631 13.526C16.6137 13.5435 16.3403 13.6036 16.0555 13.6594C15.251 13.817 14.797 14.2891 14.655 15.1154C14.5991 15.441 14.5287 15.5281 14.0896 15.8169L13.5879 16.1467L13.1968 16.0128C12.7478 15.8591 12.1817 15.9529 11.7606 16.2508C11.4298 16.4847 10.8019 17.4707 10.7283 17.8718C10.6566 18.2628 10.8051 18.7672 11.109 19.165C11.3176 19.4382 11.3211 19.4671 11.2094 20.0046C11.1013 20.5241 11.0663 20.5778 10.6837 20.8118C10.4419 20.9596 10.1873 21.2151 10.0629 21.435C9.87505 21.7669 9.85789 21.8828 9.90525 22.4938C9.96817 23.3045 10.073 23.6148 10.3994 23.9575C10.7096 24.2833 11.0595 24.463 11.3832 24.463C11.7036 24.463 11.8429 24.5733 12.2118 25.1191C12.4643 25.4928 12.4906 25.582 12.404 25.7707C12.2543 26.0971 12.2831 26.788 12.4612 27.14C12.6286 27.4709 13.3282 28.0562 13.8064 28.2654C14.352 28.504 15.2207 28.3721 15.5281 28.0039C15.672 27.8315 15.899 27.8197 16.5209 27.9522C16.9164 28.0365 16.9969 28.0936 17.177 28.4175C17.4108 28.8383 17.8482 29.1653 18.2858 29.247C18.7195 29.3278 19.803 29.1227 20.1424 28.8954C20.5433 28.6269 20.8222 28.187 20.8943 27.7091C20.9489 27.3478 21.003 27.2757 21.4334 26.9919C21.9045 26.6811 21.9183 26.6781 22.3502 26.788C23.1769 26.9985 23.7701 26.7375 24.3316 25.916C24.6979 25.3802 24.8963 24.8576 24.8402 24.5767C24.8227 24.4896 24.7858 24.3109 24.7582 24.1797C24.7305 24.0484 24.6011 23.815 24.4707 23.661C24.2342 23.3818 24.2339 23.3793 24.3583 22.7889C24.4761 22.2294 24.5051 22.184 24.8816 21.9657C25.3628 21.6868 25.6971 21.12 25.6951 20.587C25.6931 20.0614 25.474 19.211 25.2703 18.938C25.0236 18.6075 24.4511 18.305 24.0689 18.3032C23.7697 18.3018 23.7186 18.26 23.4097 17.7626C23.1081 17.2774 23.0844 17.1957 23.1721 16.9457C23.4538 16.1429 23.1626 15.4561 22.2892 14.8633C21.3908 14.2535 20.7001 14.2314 20.0306 14.791C19.7533 15.0229 19.6232 15.0202 18.6728 14.7639C18.5915 14.742 18.4753 14.6046 18.4144 14.4587C18.1649 13.8602 17.1875 13.3396 16.6631 13.526ZM17.2918 15.221C17.5757 15.7601 17.9978 16.0053 18.9691 16.195C19.9324 16.3831 20.2633 16.331 20.7642 15.9123C21.0398 15.6819 21.0414 15.6817 21.3439 15.8436C21.8648 16.1223 21.956 16.2747 21.8298 16.6548C21.6545 17.1826 21.764 17.6938 22.1968 18.3678C22.41 18.6998 22.6476 19.0474 22.7248 19.1403C22.9184 19.3732 23.525 19.6369 23.8728 19.6392C24.1339 19.641 24.171 19.676 24.2602 20.0052C24.4074 20.5481 24.3483 20.7261 23.9528 20.932C23.4722 21.1823 23.2151 21.6113 23.0406 22.4539C22.8759 23.2491 22.9041 23.8225 23.123 24.1269C23.2029 24.238 23.3279 24.4098 23.4006 24.5087C23.5209 24.6722 23.5076 24.7268 23.2517 25.1174C22.9986 25.5041 22.9477 25.5394 22.7382 25.4741C22.6102 25.4343 22.2603 25.4015 21.9605 25.4011C21.4538 25.4006 21.3651 25.4334 20.6959 25.8701C19.903 26.3873 19.5844 26.8121 19.5844 27.3517C19.5844 27.7221 19.4679 27.809 18.8479 27.9013C18.4322 27.9633 18.4243 27.9598 18.2996 27.6632C18.0815 27.1447 17.6199 26.8253 16.8397 26.6528C15.7559 26.4133 15.3737 26.4491 14.849 26.8396C14.4899 27.1068 14.4477 27.1054 14.0019 26.8123C13.6754 26.5976 13.6421 26.5432 13.6889 26.2988C13.8604 25.403 13.8586 25.3675 13.6185 24.8892C13.0852 23.8269 12.4545 23.2139 11.8939 23.2132C11.4754 23.2127 11.3185 23.0456 11.2577 22.5356L11.2036 22.0815L11.611 21.8444C12.1413 21.5356 12.3417 21.1928 12.5338 20.2651C12.7208 19.3624 12.6728 19.0006 12.2974 18.4859L12.0256 18.1132L12.2184 17.8032C12.5623 17.2504 12.6013 17.2317 13.1041 17.3782C13.6847 17.5472 14.0246 17.4544 14.9204 16.8819C15.657 16.4112 15.989 15.9436 15.989 15.3768C15.989 15.0524 16.0348 15.0146 16.5494 14.9145C17.06 14.8152 17.0831 14.8248 17.2918 15.221ZM16.8657 17.5949C15.389 17.9407 14.1944 19.2316 13.9011 20.7981C13.5992 22.4106 14.5642 24.1921 16.1416 24.9343C16.7202 25.2065 16.8086 25.222 17.7886 25.222C18.7867 25.222 18.8468 25.2109 19.4514 24.9152C21.0123 24.152 21.9138 22.4615 21.6448 20.8021C21.2845 18.5797 19.0536 17.0825 16.8657 17.5949ZM18.624 18.9797C18.855 19.0579 19.241 19.2977 19.4817 19.5128C20.8308 20.7178 20.5555 22.8508 18.9479 23.6489C17.1925 24.5202 15.2245 23.3221 15.2251 21.3824C15.2253 20.9102 15.2762 20.6548 15.4331 20.3381C16.0277 19.1374 17.3842 18.56 18.624 18.9797ZM15.193 35.3409C15.2306 36.1626 15.4768 36.6235 16.0956 37.0302L16.4702 37.2766H23H29.5297L29.9043 37.0302C30.5231 36.6235 30.7693 36.1626 30.807 35.3409L30.839 34.6424H37.5507C44.9966 34.6424 44.6621 34.6157 44.6621 35.2091C44.6621 36.4479 43.742 37.8095 42.5206 38.3784L42.0105 38.616H23H3.98943L3.47547 38.3766C2.87055 38.0949 2.15471 37.4581 1.83616 36.918C1.58277 36.4885 1.33784 35.6485 1.33784 35.2091C1.33784 34.6157 1.00329 34.6424 8.44922 34.6424H15.161L15.193 35.3409ZM29.4716 35.1335C29.4716 35.5056 29.428 35.6679 29.2919 35.8032C29.1156 35.9783 28.9923 35.9818 23 35.9818C17.0076 35.9818 16.8843 35.9783 16.7081 35.8032C16.5719 35.6679 16.5283 35.5056 16.5283 35.1335V34.6424H23H29.4716V35.1335Z" fill="#B11919"/>
</svg>
