<svg width="46" height="46" viewBox="0 0 46 46" fill="none" xmlns="http://www.w3.org/2000/svg">
<path fill-rule="evenodd" clip-rule="evenodd" d="M20.0023 0.025037C17.7645 0.28035 16.5363 0.52973 14.9034 1.06058C10.2123 2.58554 6.27489 5.59554 3.51894 9.7637C2.75301 10.9221 1.64787 13.1075 1.64787 13.4638C1.64787 13.8185 1.93282 14.0874 2.30872 14.0874C2.68373 14.0874 2.80402 13.953 3.19774 13.094C3.47359 12.4924 3.57445 12.3691 4.08541 12.0085C5.14357 11.2619 7.45209 9.96804 7.55052 10.0664C7.57031 10.0862 7.51039 10.3233 7.41745 10.5934C7.13736 11.4068 6.6175 13.517 6.38331 14.7908C6.2622 15.4495 6.14497 16.0067 6.12283 16.0289C6.10061 16.0511 5.54017 16.2062 4.87735 16.3737C4.21452 16.5412 3.27386 16.8063 2.78683 16.9629C2.2999 17.1194 1.88126 17.2274 1.85661 17.2028C1.83196 17.178 1.86264 16.9308 1.92481 16.6531C2.02918 16.1873 2.02387 16.1296 1.85571 15.9045C1.60262 15.5659 1.06854 15.5589 0.820396 15.8909C0.632623 16.1422 0.287399 17.6993 0.107814 19.1047C-0.0348826 20.2216 -0.0362322 23.0526 0.105564 24.1561C0.632893 28.2626 2.07479 31.7472 4.60671 35.0339C5.46361 36.1463 7.38443 38.0227 8.57576 38.9113C10.5883 40.4124 12.3925 41.3652 14.6813 42.1355C17.1895 42.9796 18.9015 43.2534 21.6668 43.253C23.8887 43.2526 25.0133 43.121 26.9503 42.635L28.0952 42.3477L28.5698 42.7453C29.2112 43.2826 30.534 44.1569 31.2488 44.5159C32.2444 45.016 34.5551 46.0016 34.7283 46C34.9922 45.9976 38.201 44.5375 38.9968 44.0577C40.1609 43.3559 40.7359 42.8558 40.769 42.5163C40.8025 42.1736 40.4628 41.7758 40.1377 41.777C40.0241 41.7774 39.587 42.025 39.1664 42.3271C38.463 42.8324 36.4109 43.8954 35.1977 44.383L34.693 44.5858L33.3469 43.9944C31.3535 43.1185 30.5909 42.6638 29.3112 41.5881C27.1697 39.7882 25.6547 37.1913 25.0205 34.2339C24.8506 33.4417 24.8322 32.986 24.7962 28.6882L24.7569 24.0058L25.9084 23.8449C29.1988 23.3854 31.3976 22.5185 33.8476 20.7147L34.692 20.0931L35.0622 20.3566C35.2659 20.5015 35.7456 20.8457 36.1281 21.1214C37.0254 21.7683 38.6889 22.6128 39.881 23.0267C40.8633 23.3678 42.405 23.7062 43.8295 23.8934L44.6688 24.0037L44.6315 28.5974C44.5907 33.6335 44.5656 33.9171 44.0074 35.6591C43.5262 37.1609 42.8304 38.4876 41.8559 39.7618C41.6632 40.0136 41.5057 40.3182 41.5057 40.4386C41.5057 40.9212 42.0178 41.2594 42.4298 41.0487C43.0968 40.7076 44.6721 37.9952 45.2705 36.1576C45.9088 34.1974 45.9995 33.1732 46 27.9318C46.0004 24.0168 45.9896 23.7277 45.8295 23.3754C45.5805 22.8276 45.4278 22.7664 43.611 22.4877L43.332 22.4448L43.2782 20.8508C43.0914 15.3195 40.9568 10.3883 37.0281 6.41263C35.2672 4.63074 33.6371 3.44461 31.3838 2.30595C29.2692 1.23741 27.1189 0.551935 24.7708 0.197823C23.8776 0.0631542 20.6828 -0.0526357 20.0023 0.025037ZM24.1366 1.4805C24.4107 1.5437 24.4723 1.61472 24.6632 2.08867C24.8947 2.66357 25.6114 5.09408 25.7196 5.67141L25.7851 6.02049L25.4803 5.96107C24.8868 5.84537 19.7959 5.7952 18.6574 5.89382C18.0414 5.94722 17.5286 5.98201 17.5178 5.97122C17.4339 5.88717 18.6132 1.93494 18.8187 1.61103C18.8596 1.54649 19.2052 1.45991 19.6045 1.41425C20.4044 1.32273 23.6581 1.37029 24.1366 1.4805ZM17.0147 2.6028C16.8666 3.06012 16.5928 4.04118 16.4061 4.78285L16.0668 6.13133L15.7627 6.20029C15.5955 6.23822 14.8513 6.38773 14.1091 6.53264C13.3668 6.67756 12.1449 6.97216 11.3937 7.18738L10.028 7.57862L10.1612 7.25957C10.3832 6.72781 11.2586 5.20484 11.8321 4.3525C12.3612 3.56625 12.389 3.54144 13.1243 3.19712C14.0796 2.74987 15.4068 2.26936 16.4465 1.99445C16.8929 1.87633 17.2639 1.77789 17.2711 1.77555C17.2783 1.77312 17.1629 2.14548 17.0147 2.6028ZM28.5946 2.53717C28.941 2.66663 29.6 2.93642 30.059 3.13671L30.8936 3.50089L31.468 4.36662C32.0633 5.26399 33.0801 7.06853 33.1768 7.39927C33.2296 7.58015 33.1823 7.5734 32.1005 7.24725C30.8958 6.88406 29.5007 6.55844 28.0879 6.31077L27.2212 6.15884L26.9741 5.11125C26.8383 4.53509 26.5703 3.57272 26.3788 2.97273C26.1872 2.37275 26.0304 1.85979 26.0304 1.83291C26.0304 1.76054 27.8652 2.26451 28.5946 2.53717ZM35.645 6.94042C36.4335 7.6927 38.1216 9.58768 38.0589 9.65016C38.0488 9.66041 37.6155 9.45751 37.0963 9.19932C36.5772 8.94104 35.9013 8.62252 35.5944 8.49136C35.0778 8.27057 35.0215 8.21771 34.8331 7.77649C34.7213 7.51443 34.3951 6.82167 34.1081 6.23706L33.5864 5.17418L34.1446 5.60776C34.4517 5.84626 35.1268 6.44598 35.645 6.94042ZM9.17569 6.24371C8.91099 6.77519 8.59726 7.44826 8.47849 7.73927C8.30755 8.15829 8.20624 8.28801 7.99183 8.36254C7.84284 8.41441 7.1631 8.7322 6.4812 9.06878C5.67018 9.4691 5.27062 9.62661 5.32622 9.52421C5.50643 9.19185 6.87393 7.62914 7.52353 7.01315C8.1563 6.41308 9.52613 5.27729 9.6171 5.27729C9.63896 5.27729 9.44039 5.71214 9.17569 6.24371ZM24.8334 7.26217C25.467 7.31557 26.0133 7.38641 26.0474 7.4195C26.1943 7.56226 26.8403 12.1034 26.982 13.9889L27.0455 14.8342L26.8304 14.7733C26.4629 14.6694 19.5028 14.609 17.8429 14.6953C16.9769 14.7404 16.2594 14.7715 16.2485 14.7645C16.1558 14.7053 16.8885 8.93214 17.1349 7.77999L17.2246 7.36088L18.0961 7.30146C18.5754 7.26883 19.0081 7.22801 19.0575 7.21075C19.2767 7.13434 23.7932 7.17461 24.8334 7.26217ZM15.7414 7.82009C15.5672 8.51411 14.8738 14.1019 14.8738 14.8128C14.8738 14.8471 14.5196 14.9028 14.0866 14.9364C12.7653 15.0391 10.2513 15.344 8.90595 15.5649C8.20471 15.68 7.61629 15.7608 7.59811 15.7445C7.58003 15.7281 7.67621 15.1565 7.81171 14.474C8.08882 13.0789 8.60437 11.1873 9.0204 10.0392L9.29832 9.27222L10.579 8.85222C12.3172 8.28226 14.9025 7.64649 15.5808 7.62222C15.7583 7.61593 15.7846 7.64838 15.7414 7.82009ZM29.108 7.88257C30.5296 8.17869 32.1702 8.63008 33.2732 9.02851L33.993 9.28859L34.337 10.2721C34.9064 11.8995 35.7921 15.601 35.6469 15.7461C35.6272 15.7659 35.3076 15.7255 34.9369 15.6564C33.9242 15.4677 31.0966 15.1024 29.6887 14.9786C28.9512 14.9137 28.4322 14.8288 28.4159 14.7704C28.4008 14.7161 28.3199 13.9233 28.2362 13.0086C28.1524 12.0939 27.9856 10.678 27.8655 9.86214C27.7454 9.04631 27.622 8.20692 27.5913 7.99674C27.5229 7.52863 27.4393 7.53493 29.108 7.88257ZM37.2304 10.7912C37.6766 11.0302 38.4311 11.4862 38.907 11.8044L39.7724 12.3832L40.139 13.1829C40.7093 14.4269 41.5882 17.0915 41.4678 17.2117C41.4491 17.2304 40.9743 17.1029 40.4126 16.9282C39.8509 16.7536 38.8894 16.4888 38.2759 16.3396C37.6623 16.1906 37.154 16.0577 37.1462 16.0444C37.1383 16.0311 36.9848 15.2718 36.8051 14.3571C36.6253 13.4424 36.3143 12.1276 36.1139 11.4354C35.9134 10.7432 35.7491 10.1471 35.7484 10.1108C35.7472 10.0294 36.1741 10.2254 37.2304 10.7912ZM25.6092 16.0574C26.3919 16.0981 27.072 16.171 27.1205 16.2194C27.1722 16.271 27.2314 17.5372 27.2635 19.2776L27.3183 22.2477L27.0567 22.3038C26.9129 22.3346 26.2362 22.438 25.5529 22.5335C23.4652 22.8253 23.4212 22.8861 23.4212 25.4806V27.3025L21.2844 27.2987C19.1463 27.2948 16.2502 27.1796 16.1656 27.0949C16.1408 27.0702 16.076 25.8325 16.0216 24.3444C15.9278 21.7812 16.0275 16.3209 16.1707 16.1778C16.3349 16.0137 23.1052 15.9274 25.6092 16.0574ZM14.7243 17.1215C14.6328 18.2614 14.6332 25.0204 14.7247 26.1624L14.7956 27.0449L14.1374 26.9864C12.7431 26.8623 10.4472 26.5773 8.99988 26.3485C7.87451 26.1706 7.46981 26.0727 7.41196 25.9645C7.2842 25.725 7.13619 23.4038 7.13619 21.6389C7.13619 19.8908 7.28384 17.5534 7.40917 17.3186C7.49186 17.1636 8.30503 17.0012 10.5102 16.699C11.9688 16.4993 14.0172 16.271 14.4968 16.2549L14.7947 16.245L14.7243 17.1215ZM30.4593 16.4212C32.0716 16.5878 34.0498 16.8593 35.2966 17.0852L35.8804 17.1909L35.9363 17.5944C35.9671 17.8164 36.0204 18.3179 36.0548 18.709L36.1174 19.42L35.9099 19.2713C35.4301 18.9274 35.1418 18.8182 34.7128 18.8182C34.19 18.8182 34.0299 18.899 32.8683 19.7483C31.7729 20.5493 30.8106 21.0863 29.6415 21.5489C29.1285 21.7518 28.6989 21.9057 28.6867 21.8908C28.6745 21.8759 28.6399 20.5995 28.6098 19.0543C28.5674 16.8742 28.5797 16.2452 28.6649 16.246C28.7252 16.2466 29.5327 16.3254 30.4593 16.4212ZM5.93326 17.9755C5.80505 19.0513 5.76537 22.9799 5.86902 24.3239C5.92759 25.0837 5.96097 25.72 5.94307 25.7378C5.88864 25.7921 3.55439 25.154 2.50306 24.7973L1.51381 24.4617L1.43788 24.0167C1.33918 23.4388 1.33927 19.8384 1.43797 19.2599L1.51417 18.8138L2.6382 18.431C3.56726 18.1145 5.60981 17.5404 5.9105 17.5112C5.95396 17.507 5.96412 17.716 5.93326 17.9755ZM38.2954 17.7347C38.7991 17.8619 39.7702 18.1479 40.4532 18.3705C41.5461 18.7266 41.7061 18.804 41.7869 19.0158C41.8375 19.1483 41.9026 19.9197 41.9314 20.7301L41.9841 22.2037L41.6447 22.14C40.7069 21.9643 38.6702 21.1428 37.7636 20.5747L37.4856 20.4004L37.4249 19.1543C37.3916 18.4689 37.3399 17.8171 37.3101 17.7058C37.2804 17.5945 37.2837 17.5036 37.3176 17.5036C37.3516 17.5036 37.7915 17.6076 38.2954 17.7347ZM33.0483 24.2341C31.4122 24.5924 30.0427 25.3661 28.8535 26.6038C27.6739 27.8315 26.9986 29.183 26.694 30.9259C26.054 34.5877 28.2842 38.4259 31.8233 39.7535C32.7749 40.1104 33.5894 40.248 34.7521 40.248C36.5935 40.248 38.143 39.7282 39.6227 38.6141C41.858 36.9311 43.1107 34.0086 42.7668 31.279C42.5978 29.9368 42.0826 28.4837 41.7275 28.3476C41.4478 28.2404 41.1448 28.2924 40.9572 28.4799C40.7248 28.7121 40.7542 29.054 41.0841 29.9546C42.2366 33.1008 40.7391 36.7392 37.6819 38.2213C36.6061 38.7427 35.9158 38.8998 34.707 38.8982C33.5593 38.8966 32.8453 38.7492 31.9231 38.3234C29.7754 37.332 28.3676 35.4537 28.0088 33.101C27.8013 31.7397 28.0209 30.4749 28.7033 29.1005C29.0577 28.3868 29.2612 28.1129 29.9407 27.4338C30.8386 26.5364 31.6403 26.0536 32.8683 25.6702C33.8363 25.3681 35.5813 25.3689 36.5541 25.6719C37.4178 25.9409 38.0668 26.2723 38.8496 26.844C39.5413 27.3492 39.8624 27.4162 40.1612 27.1176C40.295 26.9839 40.3387 26.8416 40.3187 26.6041C40.2949 26.3219 40.2086 26.2087 39.7062 25.8007C38.9728 25.205 37.7204 24.5753 36.7821 24.3303C35.7373 24.0575 34.0528 24.014 33.0483 24.2341ZM2.79709 26.317C3.26612 26.4671 4.19715 26.7276 4.86592 26.896C5.53477 27.0644 6.10907 27.2348 6.14209 27.2748C6.1752 27.3148 6.27435 27.7925 6.36261 28.3364C6.53698 29.4123 7.1182 31.8153 7.40629 32.652C7.50544 32.9399 7.56833 33.1937 7.54602 33.2159C7.47485 33.287 5.59704 32.2535 4.5538 31.5692C3.42798 30.8308 3.43734 30.8433 2.76965 29.1833C2.40229 28.27 1.82782 26.4295 1.82782 26.1659C1.82782 26.0047 1.81513 26.0027 2.79709 26.317ZM8.80069 27.7014C10.2413 27.9362 12.6334 28.2254 14.0866 28.3403C14.5196 28.3746 14.8738 28.4307 14.8738 28.465C14.8738 29.1824 15.5676 34.7655 15.744 35.4678C15.7976 35.681 15.7928 35.6827 15.3135 35.6169C14.4069 35.4927 12.224 34.9478 10.7606 34.4807L9.30165 34.0149L9.02787 33.2588C8.60958 32.104 8.14919 30.4343 7.85364 29.0012C7.53117 27.4375 7.53252 27.467 7.7885 27.5242C7.89979 27.5491 8.35532 27.6289 8.80069 27.7014ZM20.0697 28.6187L23.4212 28.6799V30.5119C23.4212 32.6233 23.5202 33.713 23.8303 35.0186C23.9517 35.5294 24.051 35.9897 24.051 36.0417C24.051 36.1378 18.6825 36.0747 17.6911 35.967L17.2245 35.9162L17.1349 35.4976C16.9771 34.76 16.5964 32.0653 16.4534 30.6738C16.3771 29.9321 16.2921 29.128 16.2644 28.8869L16.2142 28.4485L16.4663 28.5031C16.6048 28.533 18.2264 28.585 20.0697 28.6187ZM37.0324 29.444C36.6968 29.8801 35.7774 31.0902 34.9893 32.1329L33.5562 34.0289L33.0684 33.6319C32.8001 33.4135 32.4805 33.2097 32.358 33.179C31.885 33.0604 31.4492 33.5121 31.5706 33.9952C31.6285 34.226 33.1068 35.4532 33.5102 35.6053C33.7218 35.6851 33.8058 35.6701 34.0136 35.5153C34.1507 35.413 35.2426 34.0392 36.4401 32.4622C38.3268 29.9774 38.6178 29.5518 38.6219 29.2718C38.6278 28.8636 38.4046 28.651 37.97 28.651C37.6642 28.651 37.6021 28.7035 37.0324 29.444ZM7.90321 34.8724C8.21649 34.9968 8.29441 35.0872 8.47993 35.542C8.59789 35.8311 8.91207 36.5048 9.17812 37.039C9.51687 37.7191 9.61368 37.9845 9.50121 37.9244C9.13826 37.7302 7.31731 36.0961 6.72403 35.4322C6.04285 34.6698 5.24677 33.7036 5.24677 33.6392C5.24677 33.6177 5.76294 33.8539 6.39392 34.1644C7.0249 34.4747 7.70401 34.7934 7.90321 34.8724ZM14.1208 36.7419C14.906 36.8956 15.6658 37.0497 15.8088 37.0844C16.0586 37.1451 16.0809 37.195 16.3588 38.3158C16.6023 39.2972 17.1078 41.0029 17.2693 41.3875C17.3764 41.6429 14.5712 40.7691 13.1994 40.1199C12.3776 39.7309 12.3694 39.7237 11.832 38.9252C11.2586 38.073 10.3831 36.55 10.1612 36.0182L10.028 35.6992L11.3604 36.0809C12.0932 36.2908 13.3354 36.5883 14.1208 36.7419ZM21.4187 37.4241L24.5896 37.4544L24.9839 38.2076L25.3784 38.961L25.0811 39.9416C24.9176 40.4809 24.704 41.1084 24.6062 41.336C24.3922 41.8347 24.3569 41.8441 22.3865 41.9251C20.8972 41.9864 18.9292 41.8405 18.8146 41.6603C18.6408 41.3867 17.8104 38.6831 17.5837 37.6525L17.4972 37.2596L17.8725 37.3267C18.0789 37.3636 19.6747 37.4075 21.4187 37.4241ZM26.9753 41.2201C26.9174 41.2816 26.0304 41.487 26.0304 41.4389C26.0304 41.4107 26.099 41.1702 26.1827 40.9046L26.3352 40.4217L26.6685 40.8068C26.8519 41.0186 26.99 41.2046 26.9753 41.2201Z" fill="#0073A8"/>
</svg>
