<svg width="46" height="61" viewBox="0 0 46 61" fill="none" xmlns="http://www.w3.org/2000/svg">
<path fill-rule="evenodd" clip-rule="evenodd" d="M7.23359 0.168802C5.15514 0.672381 3.34821 2.35595 2.72646 4.36788C2.40414 5.41104 2.40414 7.07136 2.72646 8.11451C3.35691 10.1545 5.1617 11.8181 7.2882 12.3192C10.4127 13.0556 13.7092 11.1739 14.6546 8.11451C14.9769 7.07136 14.9769 5.41104 14.6546 4.36788C13.7059 1.29801 10.368 -0.590799 7.23359 0.168802ZM21.5431 0.168802C19.4646 0.672381 17.6577 2.35595 17.0359 4.36788C16.7136 5.41104 16.7136 7.07136 17.0359 8.11451C17.6664 10.1545 19.4712 11.8181 21.5977 12.3192C24.7221 13.0556 28.0187 11.1739 28.9641 8.11451C29.2864 7.07136 29.2864 5.41104 28.9641 4.36788C28.0154 1.29801 24.6774 -0.590799 21.5431 0.168802ZM35.8525 0.168802C33.7741 0.672381 31.9671 2.35595 31.3454 4.36788C31.0231 5.41104 31.0231 7.07136 31.3454 8.11451C32.1243 10.6352 34.6566 12.4951 37.3095 12.4951C40.5995 12.4951 43.5102 9.70213 43.5102 6.54513C43.5102 5.62462 43.2943 5.30758 42.6674 5.30758C42.0992 5.30758 41.8561 5.65061 41.7337 6.62451C41.4877 8.58305 40.3223 9.99188 38.51 10.5216C37.6437 10.7747 36.8945 10.7601 35.9805 10.4719C34.6173 10.0422 33.6422 9.11094 33.1285 7.74836C32.7626 6.77803 32.8384 5.19172 33.2927 4.30876C33.7071 3.50339 34.1988 2.95154 34.8981 2.50672C36.5296 1.46893 38.6442 1.57763 40.1078 2.77442C40.7088 3.26596 41.0162 3.36561 41.3966 3.19242C41.6927 3.0575 41.9601 2.63533 41.9601 2.30267C41.9601 1.97716 41.1234 1.20421 40.3071 0.775362C38.8756 0.0235084 37.3239 -0.187816 35.8525 0.168802ZM10.0195 2.01053C11.9236 2.61077 13.1026 4.22867 13.1026 6.2412C13.1026 8.25373 11.9236 9.87162 10.0195 10.4719C9.06043 10.7742 8.32063 10.7742 7.36154 10.4719C5.99832 10.0422 5.02325 9.11094 4.50954 7.74836C4.1462 6.78482 4.21966 5.19125 4.6673 4.3214C5.27379 3.1432 6.15394 2.38586 7.36798 1.99754C8.25135 1.71506 9.09549 1.71923 10.0195 2.01053ZM24.329 2.01053C26.2331 2.61077 27.4121 4.22867 27.4121 6.2412C27.4121 8.25373 26.2331 9.87162 24.329 10.4719C23.3699 10.7742 22.6301 10.7742 21.671 10.4719C20.3078 10.0422 19.3327 9.11094 18.819 7.74836C18.4557 6.78482 18.5291 5.19125 18.9768 4.3214C19.5833 3.1432 20.4634 2.38586 21.6774 1.99754C22.5608 1.71506 23.405 1.71923 24.329 2.01053ZM6.24063 4.68636C6.07965 4.84726 5.94788 5.11783 5.94788 5.28767C5.94788 5.45752 6.07965 5.72808 6.24063 5.88899C6.47399 6.12236 6.65513 6.1816 7.13497 6.1816H7.73657V6.98697C7.73657 8.34455 8.01894 8.91535 8.69053 8.91535C9.36212 8.91535 9.6445 8.34455 9.6445 6.98697V6.1816H10.2461C10.7259 6.1816 10.9071 6.12236 11.1404 5.88899C11.3014 5.72808 11.4332 5.45752 11.4332 5.28767C11.4332 5.11783 11.3014 4.84726 11.1404 4.68636C10.8513 4.3972 10.8219 4.39374 8.69053 4.39374C6.55913 4.39374 6.5298 4.3972 6.24063 4.68636ZM20.5501 4.68636C20.177 5.05919 20.177 5.51616 20.5501 5.88899C20.7835 6.12236 20.9646 6.1816 21.4444 6.1816H22.046V6.98697C22.046 8.34455 22.3284 8.91535 23 8.91535C23.6716 8.91535 23.954 8.34455 23.954 6.98697V6.1816H24.5556C25.0354 6.1816 25.2165 6.12236 25.4499 5.88899C25.6109 5.72808 25.7426 5.45752 25.7426 5.28767C25.7426 5.11783 25.6109 4.84726 25.4499 4.68636C25.1607 4.3972 25.1314 4.39374 23 4.39374C20.8686 4.39374 20.8393 4.3972 20.5501 4.68636ZM34.8596 4.68636C34.6986 4.84726 34.5668 5.11783 34.5668 5.28767C34.5668 5.45752 34.6986 5.72808 34.8596 5.88899C35.0929 6.12236 35.2741 6.1816 35.7539 6.1816H36.3555V6.98697C36.3555 8.34455 36.6379 8.91535 37.3095 8.91535C37.9811 8.91535 38.2634 8.34455 38.2634 6.98697V6.1816H38.865C39.3449 6.1816 39.526 6.12236 39.7594 5.88899C39.9204 5.72808 40.0521 5.45752 40.0521 5.28767C40.0521 5.11783 39.9204 4.84726 39.7594 4.68636C39.4702 4.3972 39.4409 4.39374 37.3095 4.39374C35.1781 4.39374 35.1487 4.3972 34.8596 4.68636ZM1.22588 14.5136C0.25462 14.9545 -0.0859451 15.9526 0.0179178 18.0537C0.0888689 19.4896 0.297907 20.0145 0.978799 20.4653C1.40975 20.7507 1.58683 20.7865 2.74888 20.8227L4.03995 20.8631L4.04198 21.4187C4.04782 22.9815 4.79013 24.781 5.91783 25.966C6.29513 26.3624 7.48913 27.3281 8.57128 28.1122C10.75 29.6905 11.0822 29.8153 11.5437 29.2289C11.7958 28.9087 11.8473 28.6366 11.7191 28.3029C11.6798 28.2001 10.7159 27.4409 9.57736 26.6156C8.43892 25.7905 7.34782 24.9337 7.15274 24.7117C6.35344 23.8016 5.82864 22.4706 5.82864 21.3534V20.842H23H40.1714V21.3534C40.1714 22.5093 39.5161 24.0854 38.7097 24.8691C38.5266 25.0469 35.5759 27.2306 32.1526 29.7217C27.6152 33.0235 25.8628 34.3639 25.6865 34.6681C25.468 35.0446 25.4387 35.3527 25.3849 37.8329L25.3253 40.5804L23 39.7342L20.6747 38.8879L20.6151 36.9866C20.5532 35.014 20.4641 34.6413 19.9416 34.1706C19.8202 34.0611 18.5698 33.136 17.163 32.1148C15.5747 30.9618 14.4984 30.2581 14.3231 30.2581C13.6531 30.2581 13.2138 30.8605 13.4596 31.4421C13.5404 31.6332 14.5716 32.4605 16.2077 33.6466L18.8264 35.5454V37.6561C18.8264 39.4908 18.8537 39.7999 19.0351 40.0193C19.3429 40.3916 26.0317 42.807 26.4814 42.7083C27.1506 42.5615 27.1736 42.4327 27.1736 38.838V35.552L30.5423 33.1027C32.3951 31.7556 35.178 29.7354 36.7266 28.6132C38.3437 27.4415 39.8061 26.2844 40.1623 25.8949C41.2347 24.722 41.9523 22.9332 41.958 21.4187L41.9601 20.8631L43.2511 20.8227C44.4132 20.7865 44.5902 20.7507 45.0212 20.4653C45.7021 20.0145 45.9111 19.4896 45.9821 18.0537C46.0859 15.9526 45.7454 14.9545 44.7741 14.5136C44.3119 14.3038 43.811 14.2917 35.5506 14.2892C26.973 14.2866 26.8116 14.2908 26.5774 14.5249C26.2881 14.8141 26.2598 15.5016 26.5262 15.768C26.6294 15.8709 26.7232 15.9677 26.7349 15.9831C26.7467 15.9984 30.6466 16.0386 35.4015 16.0725L44.0468 16.134V17.5643V18.9946H23H1.95315V17.5643V16.134L12.6429 16.0744C22.9425 16.017 23.3419 16.0065 23.5837 15.7878C23.9113 15.4914 23.9176 14.8461 23.5962 14.5249C23.3612 14.29 23.2006 14.2866 12.5362 14.2892C2.24066 14.2917 1.69093 14.3025 1.22588 14.5136ZM21.2709 44.5088C20.7954 44.6022 19.9487 44.9127 19.3034 45.2303C18.3644 45.6925 17.995 45.9634 17.1447 46.8133C16.2933 47.6643 16.0243 48.0311 15.5621 48.971C14.3542 51.4271 14.3542 53.9046 15.5621 56.3608C16.0243 57.3006 16.2933 57.6675 17.1447 58.5185C18.0023 59.3756 18.3563 59.6341 19.3034 60.0944C22.624 61.7083 26.2063 61.1405 28.8132 58.5875C29.6611 57.7571 29.7785 57.3241 29.2826 56.8583C28.8185 56.4226 28.4446 56.5205 27.6106 57.2959C26.7508 58.0956 26.0798 58.5159 25.0773 58.8825C24.0647 59.2528 21.9353 59.2528 20.9227 58.8825C18.9262 58.1522 17.4491 56.6667 16.7785 54.7148C16.39 53.5841 16.39 51.7476 16.7785 50.617C17.4506 48.6609 18.9963 47.1183 20.9598 46.444C22.081 46.059 23.9232 46.0605 25.0498 46.4472C27.0043 47.118 28.4971 48.6021 29.2166 50.5896C29.4168 51.1425 29.4786 51.6164 29.5022 52.7793C29.53 54.1498 29.5527 54.2799 29.7971 54.4778C30.1552 54.7676 30.5542 54.7474 30.9347 54.4201C31.2186 54.176 31.2576 54.0441 31.3145 53.1317C31.5304 49.6732 29.4069 46.3218 26.1201 44.9335C24.7446 44.3525 22.8932 44.1904 21.2709 44.5088ZM22.4899 47.7795C22.2954 47.9325 22.1568 48.1915 22.1048 48.4993C22.0506 48.8204 21.9266 49.0437 21.7318 49.1713C21.5713 49.2763 21.2955 49.6088 21.119 49.9099C20.6686 50.678 20.6696 51.6015 21.1212 52.2836C21.4585 52.793 22.2088 53.3064 22.8211 53.4467C23.3875 53.5764 23.7155 53.8343 23.7155 54.15C23.7155 54.8757 22.8725 55.0028 21.9973 54.4091C21.4405 54.0316 21.2219 54.0194 20.8101 54.3432C20.1635 54.8516 20.5117 55.7025 21.5918 56.2531C21.9382 56.4299 22.0522 56.5709 22.1139 56.8988C22.1966 57.34 22.6446 57.7911 23 57.7911C23.3466 57.7911 23.8032 57.3408 23.8819 56.9213C23.9363 56.6313 24.0962 56.4256 24.4739 56.1596C25.1096 55.7117 25.5042 54.9512 25.5042 54.1739C25.5042 53.0267 24.9128 52.3203 23.5009 51.7811C22.5783 51.4287 22.4208 51.2305 22.7112 50.7875C22.9149 50.4768 22.9077 50.4772 24.1556 50.7121C24.4614 50.7698 24.5959 50.7239 24.8413 50.4787C25.0116 50.3085 25.1464 50.0372 25.1464 49.8649C25.1464 49.5015 24.6982 49.0127 24.2654 48.9041C24.0358 48.8464 23.9413 48.7267 23.8838 48.4204C23.8034 47.9917 23.3502 47.5407 23 47.5407C22.8865 47.5407 22.6569 47.6482 22.4899 47.7795Z" fill="#E8146D"/>
</svg>
