<svg width="46" height="46" viewBox="0 0 46 46" fill="none" xmlns="http://www.w3.org/2000/svg">
<path fill-rule="evenodd" clip-rule="evenodd" d="M21.2612 0.0631238C17.6555 0.520112 14.3761 2.15842 11.9284 4.72572C7.52819 9.34083 6.44189 16.1284 9.17718 21.9156C9.92827 23.5046 10.8219 24.7424 12.3627 26.3283C14.1617 28.18 14.4061 28.6425 14.5535 30.4747C14.6323 31.454 14.8088 32.0251 15.1777 32.4945L15.3578 32.7237L15.0859 33.0622C14.8036 33.4139 14.5547 34.0889 14.5547 34.5027C14.5547 35.0365 14.8324 35.6866 15.2305 36.0852L15.625 36.4799L15.4941 36.7933C15.3119 37.23 15.3309 38.068 15.5331 38.5063C15.6244 38.7042 15.8474 39.0126 16.0288 39.1918L16.3587 39.5176L16.2058 40.0677C16.0766 40.5329 16.0695 40.6916 16.16 41.0963C16.3672 42.0227 17.0479 42.6917 17.9794 42.8843C18.5004 42.992 18.5065 42.9968 18.6488 43.4259C18.9484 44.3288 19.9051 45.2792 20.8827 45.6452C22.0323 46.0757 23.6347 46.1188 24.8104 45.7507C25.9845 45.3831 27.0149 44.4391 27.3525 43.4221C27.4934 42.9975 27.5005 42.9918 28.0206 42.8843C28.9521 42.6917 29.6328 42.0227 29.84 41.0963C29.9305 40.6916 29.9234 40.5329 29.7942 40.0677L29.6413 39.5176L29.9712 39.1918C30.1526 39.0126 30.3756 38.7042 30.4669 38.5063C30.6674 38.0716 30.6886 37.231 30.5099 36.8027C30.3841 36.5016 30.3866 36.495 30.775 36.0893C31.169 35.6776 31.4453 35.0238 31.4453 34.5027C31.4453 34.0889 31.1964 33.4139 30.9141 33.0622L30.6422 32.7237L30.8223 32.4945C31.1983 32.0159 31.3664 31.4597 31.4458 30.431C31.5818 28.6664 31.8601 28.1453 33.6405 26.3218C35.1685 24.7568 36.06 23.5238 36.8266 21.9156C38.8209 17.7314 38.8236 12.9219 36.8337 8.71856C34.7778 4.37574 30.8073 1.2796 26.016 0.283165C24.8073 0.0317407 22.3909 -0.0800335 21.2612 0.0631238ZM25.6293 1.77031C29.9386 2.61406 33.6707 5.52459 35.4907 9.46124C37.544 13.9024 37.1507 18.9486 34.4326 23.0349C34.0238 23.6496 33.3863 24.3962 32.4329 25.3769C31.6234 26.2095 30.9146 27.0249 30.7518 27.3109C30.2846 28.1316 30.0008 29.1205 29.9204 30.2073C29.8598 31.0273 29.812 31.238 29.6216 31.5261C29.1805 32.1932 29.4539 32.1668 23 32.1668C16.548 32.1668 16.8193 32.1929 16.3797 31.528C16.1932 31.2459 16.1411 31.0224 16.0779 30.2324C15.9854 29.0753 15.8219 28.4804 15.337 27.5357C15.0354 26.9478 14.7444 26.5863 13.7456 25.5574C11.9138 23.6709 11.3076 22.8541 10.5532 21.2559C8.04614 15.9446 9.11959 9.70718 13.2484 5.59455C15.0822 3.76795 17.0667 2.61505 19.5229 1.94944C21.2956 1.46898 23.726 1.39776 25.6293 1.77031ZM21.5176 3.13507C17.4331 3.65824 13.8719 6.17914 12.0388 9.84476C11.3651 11.1923 11.2674 11.6842 11.6123 11.995C11.9153 12.2679 12.1063 12.3057 12.452 12.1611C12.6655 12.0718 12.7965 11.9396 12.8643 11.7453C13.0784 11.1306 13.8394 9.69737 14.2918 9.05658C14.9486 8.12651 16.0251 7.0959 17.0599 6.40638C18.7349 5.29025 20.3233 4.75728 22.4538 4.59623C23.6043 4.50936 23.9572 4.18627 23.6639 3.48829C23.4715 3.03004 22.9751 2.94839 21.5176 3.13507ZM1.20391 7.74623C0.893047 7.88165 0.808594 8.03497 0.808594 8.46372C0.808594 8.65175 0.880469 8.8209 1.01074 8.9395C1.23661 9.14525 5.74434 10.6752 6.12456 10.6752C6.48905 10.6752 6.64197 10.5888 6.79219 10.2981C6.96595 9.96175 6.88329 9.54648 6.60648 9.36502C6.43021 9.24938 1.66076 7.61143 1.52923 7.62132C1.50345 7.6233 1.35709 7.6795 1.20391 7.74623ZM41.8788 8.46031C39.165 9.37446 39.0219 9.45647 39.1158 10.0437C39.1775 10.4301 39.456 10.6752 39.8331 10.6752C40.2435 10.6752 44.7487 9.15865 44.9893 8.9395C45.1903 8.75642 45.2567 8.34242 45.1356 8.02652C45.075 7.86834 44.6428 7.6135 44.4547 7.62492C44.3904 7.62879 43.2313 8.00476 41.8788 8.46031ZM22.524 8.60877C22.3971 8.70867 22.2804 8.87647 22.2648 8.98177C22.2335 9.19255 22.227 9.19686 21.3612 9.58452C19.8613 10.2561 18.9404 11.9912 19.2228 13.6137C19.4692 15.0304 20.4417 16.1967 21.7422 16.6354L22.1465 16.7717L22.1705 19.0289C22.185 20.3938 22.1611 21.2861 22.1101 21.2861C22.0636 21.2861 21.8507 21.153 21.6369 20.9903C21.1542 20.6231 20.7898 19.9687 20.7093 19.3248C20.6368 18.7438 20.3633 18.4086 19.9615 18.4086C19.6362 18.4086 19.2655 18.6907 19.1887 18.9968C19.1058 19.3273 19.2944 20.2614 19.5555 20.8138C20.0043 21.7637 20.7115 22.3562 22.0342 22.8909C22.1786 22.9492 22.2812 23.0598 22.2812 23.1569C22.2812 23.431 22.659 23.714 23.0247 23.714C23.3835 23.714 23.7188 23.4443 23.7188 23.1556C23.7188 23.0599 23.8224 22.9489 23.9658 22.8909C24.9041 22.5116 25.3568 22.2327 25.7717 21.7783C27.0657 20.3612 27.1816 18.3699 26.0571 16.8721C25.6096 16.276 24.9112 15.7561 24.2977 15.5626L23.8086 15.4083V13.1294V10.8505L24.0557 10.9802C24.4124 11.1676 24.9468 11.7486 25.0984 12.114C25.1703 12.2871 25.258 12.631 25.2934 12.8783C25.3977 13.6053 25.8137 13.9257 26.358 13.698C26.7788 13.5221 26.8951 13.1867 26.7811 12.4779C26.5725 11.1816 25.7624 10.0876 24.6388 9.58452C23.773 9.19686 23.7665 9.19255 23.7352 8.98177C23.6969 8.72468 23.3025 8.42712 23 8.42712C22.8651 8.42712 22.6509 8.50886 22.524 8.60877ZM22.1914 13.0224V15.1896L21.8096 14.9643C20.8154 14.3778 20.4294 12.9846 20.9736 11.9474C21.1523 11.6068 21.9439 10.8852 22.1689 10.8577C22.1813 10.8563 22.1914 11.8303 22.1914 13.0224ZM11.0018 14.0433C10.7805 14.2647 10.7214 14.5861 10.7614 15.3512C10.7815 15.7358 11.1253 16.0706 11.5 16.0706C11.9402 16.0706 12.2199 15.7429 12.2799 15.1569C12.3086 14.8768 12.3055 14.542 12.2731 14.4127C12.1245 13.82 11.4272 13.6174 11.0018 14.0433ZM0.262613 14.8047C0.118145 14.9493 0 15.1536 0 15.2588C0 15.5194 0.230719 15.9465 0.40834 16.0147C0.488301 16.0454 1.70452 16.0706 3.11102 16.0706H5.66833L5.88881 15.8498C6.13121 15.6073 6.18278 15.1396 5.9942 14.8938C5.74326 14.5666 5.53339 14.5419 3.00878 14.5419H0.525227L0.262613 14.8047ZM40.2949 14.6505C39.8342 14.9149 39.7469 15.4853 40.1112 15.8498L40.3317 16.0706H42.889C44.2955 16.0706 45.5117 16.0454 45.5917 16.0147C45.7693 15.9465 46 15.5194 46 15.2588C46 15.1536 45.8819 14.9493 45.7374 14.8047L45.4748 14.5419L42.9747 14.5446C41.2633 14.5465 40.4179 14.5799 40.2949 14.6505ZM24.2632 17.263C25.2898 17.9555 25.5746 19.252 24.9386 20.338C24.7199 20.7116 24.0814 21.2861 23.885 21.2861C23.8429 21.2861 23.8086 20.3352 23.8086 19.1729C23.8086 18.0107 23.843 17.0597 23.8851 17.0597C23.9273 17.0597 24.0974 17.1513 24.2632 17.263ZM3.50391 20.7525C0.957465 21.6095 0.808594 21.6918 0.808594 22.2443C0.808594 22.6093 1.14102 22.9946 1.45583 22.9946C1.5693 22.9946 2.76341 22.6272 4.10945 22.1781C6.6939 21.316 6.91797 21.1966 6.91797 20.6825C6.91797 20.3721 6.45707 19.9355 6.13875 19.9443C5.99905 19.9481 4.81338 20.3118 3.50391 20.7525ZM39.3446 20.2001C39.0367 20.5084 39.0101 20.8106 39.2626 21.1319C39.4074 21.3162 39.9265 21.5229 41.8905 22.1781C43.2366 22.6272 44.4307 22.9946 44.5442 22.9946C44.859 22.9946 45.1914 22.6093 45.1914 22.2443C45.1914 21.6899 45.0465 21.6105 42.4531 20.7456C41.1199 20.301 39.9342 19.9373 39.8182 19.9373C39.7022 19.9373 39.4891 20.0555 39.3446 20.2001ZM29.4112 33.8193C30.0394 34.082 30.0394 34.9276 29.4112 35.1902C28.9736 35.3732 17.0264 35.3732 16.5888 35.1902C15.9727 34.9326 15.9605 34.0882 16.5691 33.8231C16.9829 33.6428 28.9806 33.6392 29.4112 33.8193ZM28.8888 37.0635C29.1915 37.3664 29.1866 37.8179 28.8775 38.1085L28.6457 38.3265H23H17.3543L17.1225 38.1085C16.8134 37.8179 16.8085 37.3664 17.1112 37.0635L17.3317 36.8428H23H28.6683L28.8888 37.0635ZM28.166 40.1863C28.4426 40.5154 28.4241 40.8957 28.1164 41.2038C27.9407 41.3796 27.8195 41.3839 23 41.3839C18.1805 41.3839 18.0593 41.3796 17.8836 41.2038C17.5759 40.8957 17.5574 40.5154 17.834 40.1863L18.0746 39.9001H23H27.9254L28.166 40.1863ZM25.7449 43.2183C25.5438 43.6075 24.921 44.0998 24.4024 44.2796C24.0767 44.3924 23.6693 44.4386 23 44.4386C22.3307 44.4386 21.9233 44.3924 21.5976 44.2796C21.079 44.0998 20.4562 43.6075 20.2551 43.2183L20.1204 42.9575H23H25.8796L25.7449 43.2183Z" fill="#FF6900"/>
</svg>
