<svg width="52" height="46" viewBox="0 0 52 46" fill="none" xmlns="http://www.w3.org/2000/svg">
<path fill-rule="evenodd" clip-rule="evenodd" d="M3.05875 0.127765C1.49538 0.551393 0.412205 1.68804 0.0841825 3.24912C0.0135361 3.58547 -0.0129944 6.19461 0.0059124 10.9414L0.0345775 18.1246L0.270709 18.703C0.714002 19.789 1.50128 20.5593 2.63904 21.0203C3.18419 21.2411 3.20757 21.2418 11.1281 21.2698L19.0704 21.2978L18.8334 22.0359C17.9063 24.9241 18.2175 28.6051 19.6251 31.3975C20.9572 34.0403 22.8759 35.971 25.5179 37.327C29.1702 39.2017 33.5321 39.2482 37.272 37.4524L38.1189 37.0458L42.3545 41.221C44.684 43.5174 46.7501 45.4893 46.9458 45.6031C47.5474 45.9531 48.4656 46.09 49.202 45.9395C50.0152 45.7734 50.4623 45.5424 50.9998 45.0106C51.5374 44.4788 51.7709 44.0366 51.9388 43.2322C52.091 42.5035 51.9525 41.595 51.5986 41.0003C51.4834 40.8068 50.5386 39.8 49.4989 38.763C48.0541 37.322 47.533 36.8637 47.2878 36.8182C46.6825 36.7059 46.1386 37.1783 46.1348 37.8196C46.1327 38.1901 46.2213 38.2974 48.0041 40.0836C49.5683 41.6509 49.8871 42.0202 49.9466 42.3336C50.0452 42.8538 49.9375 43.1892 49.548 43.5745C49.1592 43.9591 48.8211 44.0658 48.2919 43.9708C47.9597 43.911 47.3988 43.3963 43.8663 39.9089L39.8213 35.9155L40.7701 34.9637C43.2575 32.4685 44.4827 29.723 44.6728 26.2191C44.7424 24.9349 44.5474 23.2685 44.1984 22.1677C44.0897 21.8243 44 21.4904 43.9993 21.4256C43.9984 21.3401 44.656 21.2978 46.4121 21.271C48.6385 21.2369 48.8719 21.2162 49.411 21.0043C50.5352 20.5627 51.3953 19.6742 51.7948 18.5418C51.9642 18.0615 51.9774 17.4847 51.9774 10.5831V3.14223L51.7413 2.56386C51.2852 1.44631 50.3905 0.600161 49.2481 0.205794C48.7529 0.0348541 47.8585 0.0251004 32.6811 0.0251004H16.6376L16.341 0.353506C15.9522 0.783871 15.9522 1.17683 16.341 1.6072L16.6376 1.9356L32.6377 1.98588L48.638 2.03615L49.0133 2.28754C49.2198 2.4258 49.5138 2.71609 49.6665 2.93258L49.9445 3.32615V10.6334V17.9407L49.6665 18.3342C49.5138 18.5507 49.2199 18.841 49.0136 18.9793C48.6391 19.2303 48.634 19.2307 45.8322 19.2615L43.0259 19.2923L42.4203 18.4068C41.6297 17.2508 40.3491 15.9408 39.2425 15.1562C38.4218 14.5742 36.2847 13.4519 35.9931 13.4498C35.9232 13.4493 35.8685 13.4149 35.8714 13.3735C35.8743 13.332 36.2087 12.6193 36.6145 11.7898L37.3522 10.2815L38.2931 12.0643C39.2391 13.8567 39.5487 14.2533 40.0016 14.2533C40.5755 14.2533 40.8235 13.9938 41.4205 12.7677C43.7463 7.99249 43.7798 7.9028 43.4112 7.45263C43.0235 6.97912 42.4613 6.88591 42.0277 7.22337C41.8595 7.35429 41.4319 8.10119 40.8915 9.20858L40.0249 10.9839L39.1032 9.22497C38.5964 8.25755 38.1019 7.38345 38.0044 7.28249C37.9069 7.18154 37.644 7.07455 37.4201 7.04489C36.8026 6.96294 36.5365 7.28511 35.6005 9.24739C35.1594 10.1719 34.7758 10.9289 34.7479 10.9297C34.7199 10.9306 34.2854 10.1331 33.7822 9.1573C33.0973 7.8292 32.7907 7.33558 32.5624 7.1936C31.917 6.7921 31.0885 7.24036 31.0885 7.99099C31.0885 8.25604 31.39 8.93156 32.2066 10.496C32.8216 11.6741 33.3248 12.6508 33.3248 12.6664C33.3248 12.682 32.4899 12.701 31.4697 12.7085C30.0214 12.7193 29.4307 12.7653 28.776 12.9186C28.3147 13.0266 27.9374 13.1005 27.9374 13.0828C27.9374 13.0652 28.4485 11.9978 29.0732 10.7108C30.3157 8.15137 30.4047 7.82276 29.9771 7.37269C29.5299 6.9017 28.8173 6.94091 28.4472 7.45685C28.3643 7.57249 27.9496 8.37892 27.5257 9.249C27.1019 10.1191 26.7298 10.856 26.6988 10.8866C26.6678 10.9173 26.2211 10.1339 25.7061 9.14573C24.7495 7.30984 24.5087 7.01351 23.973 7.01351C23.4213 7.01351 23.2005 7.29617 22.2951 9.16102L21.4159 10.972L21.1104 10.4256C20.9422 10.1251 20.5354 9.35891 20.2063 8.72291C19.8772 8.08691 19.5494 7.49476 19.478 7.40698C19.0966 6.9389 18.3959 6.92292 17.9689 7.37269C17.5113 7.85444 17.5969 8.11949 19.1883 11.1481C20.6758 13.9789 20.8728 14.2533 21.4172 14.2533C22.0006 14.2533 22.1545 14.0599 23.0856 12.1578C23.5822 11.1435 24.0068 10.3316 24.029 10.3537C24.0513 10.3757 24.4786 11.1759 24.9785 12.1318L25.8876 13.87L25.5808 14.0365C23.3648 15.2393 21.8209 16.5884 20.5615 18.4225L19.9689 19.2855L11.6702 19.258L3.37153 19.2307L2.97367 18.9558C2.75482 18.8046 2.46146 18.5138 2.32169 18.3095L2.06757 17.9383V10.6334V3.32856L2.32169 2.95732C2.46146 2.75299 2.75472 2.4622 2.97336 2.31107L3.37102 2.03615L6.00608 1.98588L8.64103 1.9356L8.93744 1.6072C9.32595 1.17683 9.32595 0.783871 8.93744 0.353506L8.64093 0.0251004L6.11667 0.00408496C4.18259 -0.0119029 3.46748 0.0169557 3.05875 0.127765ZM12.4244 0.0695447C12.1022 0.204084 11.7751 0.668939 11.7751 0.992317C11.7751 1.16637 11.8908 1.4069 12.0697 1.60488C12.6812 2.28201 13.7527 1.88442 13.7527 0.980351C13.7527 0.31248 13.0299 -0.183144 12.4244 0.0695447ZM4.85896 7.16042C4.50238 7.35238 4.31504 7.7384 4.38162 8.14423C4.41201 8.32975 5.07812 9.70099 5.86173 11.1915C7.34561 14.0139 7.52197 14.2516 8.13329 14.2528C8.62995 14.2537 8.94466 13.8363 9.79292 12.0512C10.2402 11.11 10.629 10.339 10.6569 10.3379C10.6849 10.3368 11.1192 11.1297 11.6221 12.1002C12.125 13.0705 12.6131 13.9331 12.7069 14.0171C12.8007 14.1011 13.0557 14.1935 13.2736 14.2223C13.5921 14.2646 13.7229 14.2285 13.9411 14.0378C14.3431 13.6869 16.8576 8.49264 16.8576 8.01351C16.8576 7.25685 16.1177 6.81492 15.4353 7.16394C15.155 7.30733 14.9758 7.60064 14.2213 9.15086L13.3362 10.9696L12.8218 10.0223C12.5389 9.50119 12.121 8.70632 11.893 8.25594C11.3877 7.25715 11.0676 6.9737 10.5259 7.04519C10.3141 7.07314 10.0667 7.1566 9.9761 7.23071C9.88553 7.30482 9.41591 8.17962 8.93236 9.17479L8.0533 10.9842L7.11406 9.20355C6.59341 8.21643 6.05761 7.33166 5.91175 7.21824C5.60863 6.98234 5.22866 6.96153 4.85896 7.16042ZM33.7822 14.904C37.589 15.7025 40.7877 18.4861 42.029 22.0805C43.795 27.1941 41.6964 32.6673 36.9368 35.3608C34.7181 36.6165 31.7752 37.0606 29.208 36.527C25.4106 35.738 22.2026 32.947 20.9611 29.3521C18.7142 22.8457 22.8141 15.9983 29.6669 14.8125C30.7433 14.6263 32.6614 14.6689 33.7822 14.904ZM30.3769 16.9277C28.1629 17.332 26.57 18.116 25.1909 19.4801C24.0263 20.6323 23.2203 22.0536 22.7949 23.7053C22.5266 24.7476 22.5266 26.685 22.7949 27.7274C23.6513 31.0528 26.1004 33.4755 29.4621 34.3226C30.5158 34.5881 32.4744 34.5881 33.5281 34.3226C36.8897 33.4755 39.3389 31.0528 40.1953 27.7274C40.4636 26.685 40.4636 24.7476 40.1953 23.7053C39.3515 20.4287 36.9693 18.0322 33.6805 17.1513C32.9894 16.9662 30.9298 16.8269 30.3769 16.9277ZM32.8354 19.0247C35.3239 19.5464 37.2719 21.2744 38.0802 23.6773C38.307 24.3516 38.3433 24.6327 38.3433 25.7163C38.3433 26.8 38.307 27.081 38.0802 27.7553C37.0708 30.7563 34.2385 32.7007 31.1393 32.5207C27.5869 32.3144 24.825 29.5824 24.6165 26.0683C24.356 21.6815 28.5136 18.1187 32.8354 19.0247ZM31.1393 21.2865C30.8203 21.4157 30.5766 21.7389 30.515 22.1146C30.438 22.5838 30.8418 23.0713 31.3741 23.1519C31.5805 23.1832 31.9875 23.2769 32.2787 23.3603C33.2355 23.6342 34.0363 24.6921 34.0363 25.6823C34.0363 26.1298 34.4769 26.6096 34.9568 26.685C35.2498 26.7311 35.379 26.6912 35.6394 26.4744C36.0332 26.1467 36.1224 25.744 35.9753 24.9571C35.6291 23.1043 34.1687 21.641 32.3194 21.2941C31.6822 21.1746 31.42 21.1728 31.1393 21.2865ZM44.2975 34.5428C43.8165 34.7804 43.6343 35.181 43.7834 35.6734C44.0471 36.5441 45.1876 36.6252 45.6125 35.8034C45.7997 35.4412 45.7426 35.0883 45.4465 34.7773C45.0837 34.3964 44.7373 34.3256 44.2975 34.5428Z" fill="#56A409"/>
</svg>
