<svg width="46" height="47" viewBox="0 0 46 47" fill="none" xmlns="http://www.w3.org/2000/svg">
<path fill-rule="evenodd" clip-rule="evenodd" d="M4.02172 0.181685C2.49991 0.582688 1.21516 1.63559 0.551885 3.02561C0.346037 3.457 0.134894 4.07282 0.079758 4.40268C0.00974231 4.82149 -0.0121661 9.35094 0.00618218 19.5963L0.032381 34.1933L0.236403 34.7966C0.658323 36.0442 1.68108 37.2598 2.80836 37.8538C4.01981 38.492 3.99863 38.4897 9.13807 38.5298L13.7708 38.566V37.7797V36.9933H9.43922C6.60482 36.9933 4.94051 36.958 4.62393 36.8909C3.41039 36.6343 2.4026 35.8389 1.87716 34.7233L1.58423 34.1015L1.55922 27.1014L1.5342 20.1013H3.95837C6.66963 20.1013 6.89638 20.0619 7.10552 19.554C7.20985 19.3006 7.20483 19.1895 7.06928 18.757C6.68606 17.5345 6.98493 16.2758 7.85205 15.4601C9.60545 13.8106 12.3385 14.6428 12.915 17.0017C13.0717 17.6431 13.0485 17.9203 12.7499 18.9708C12.6654 19.2684 12.6653 19.4093 12.7496 19.5952C12.9569 20.0529 13.2635 20.1013 15.9587 20.1013H18.4263V22.3995V24.6978L17.9777 24.638C17.3313 24.5518 16.3848 24.7449 15.5965 25.1241C13.2568 26.2492 12.3539 29.142 13.6053 31.5034C13.9206 32.0982 14.8472 33.0304 15.4108 33.3196L15.7668 33.5022L16.0034 32.9825C16.3949 32.1227 16.3935 32.1048 15.9132 31.8003C15.4234 31.4898 14.9632 30.8944 14.7308 30.2708C14.5061 29.6676 14.5699 28.4781 14.8569 27.9185C15.1659 27.3162 15.7387 26.7443 16.3137 26.4643C16.7548 26.2496 16.9403 26.2142 17.6048 26.2182C18.0891 26.2211 18.5274 26.279 18.7711 26.3721C19.0631 26.4836 19.2222 26.4979 19.4026 26.429C19.8803 26.2463 19.8809 26.2423 19.884 23.062L19.8869 20.1013H21.8364H23.7858L23.792 20.8586C23.8065 22.6467 24.7587 24.1853 26.3335 24.9654C26.6409 25.1176 27.017 25.2673 27.1694 25.2979C27.4445 25.3532 27.4474 25.3494 27.554 24.816C27.6131 24.5203 27.6828 24.1858 27.7091 24.0726C27.7432 23.9257 27.7084 23.8524 27.5873 23.8159C26.245 23.4113 25.3301 22.2247 25.3247 20.8816C25.3232 20.4917 25.3878 20.0475 25.4891 19.7519C25.6792 19.1967 25.5981 18.83 25.2439 18.644C25.1117 18.5747 24.1826 18.5319 22.4885 18.5171L19.9325 18.4947L19.908 16.5668L19.8834 14.6389L20.6839 14.6331C23.2661 14.6143 25.2727 12.5895 25.2727 10.0028C25.2727 8.74815 24.8436 7.73739 23.9041 6.7795C22.9736 5.83079 21.962 5.41253 20.598 5.41253H19.8869V3.48243V1.55233L26.893 1.57748L33.8992 1.60264L34.5037 1.89072C35.5432 2.386 36.2352 3.15386 36.5859 4.2008C36.77 4.75034 36.7746 4.93266 36.7746 11.6523V18.5406H34.1689H31.5631L31.3391 18.766C31.0805 19.0259 31.0598 19.2782 31.2519 19.8258C31.3272 20.0405 31.3888 20.3556 31.3888 20.5259V20.8357H32.1647H32.9407V20.474V20.1122L35.4134 20.0838L37.8861 20.0554L38.1093 19.7943L38.3324 19.5332L38.3067 11.8991L38.2808 4.26497L38.0454 3.65722C37.6873 2.73257 37.3512 2.21139 36.6908 1.55673C35.9825 0.854337 35.2295 0.427905 34.2555 0.17737C33.5675 0.000462984 33.2006 -0.00385183 19.1192 0.00110561C5.21126 0.00597126 4.66373 0.0124894 4.02172 0.181685ZM18.4263 4.21237V6.86809L18.6669 7.05831C18.9567 7.28764 19.1691 7.29571 19.7416 7.09962C20.3754 6.88241 21.4328 6.96127 22.0321 7.27038C22.6129 7.56993 23.1269 8.08661 23.426 8.67159C23.7622 9.32909 23.8139 10.3988 23.5441 11.1179C23.2733 11.8399 22.7432 12.4117 22.0064 12.7764C21.4929 13.0307 21.2962 13.0782 20.7561 13.0782C20.3872 13.0782 19.8954 13.0073 19.5976 12.9113C19.1265 12.7595 19.0559 12.7571 18.8099 12.885C18.6613 12.9623 18.5142 13.0923 18.483 13.1741C18.4519 13.2559 18.4263 14.4761 18.4263 15.8858V18.4488H16.4722H14.518L14.5134 17.6455C14.5058 16.3363 14.0896 15.3523 13.1412 14.4024C12.4512 13.7112 11.8108 13.3691 10.7902 13.1464C9.37212 12.8369 7.78431 13.3371 6.71062 14.4314C5.77522 15.3849 5.37256 16.3786 5.37256 17.7336V18.4488H3.45557H1.53859V11.5778C1.53859 5.07074 1.54771 4.68002 1.71175 4.20071C2.11359 3.02607 2.9797 2.15356 4.1435 1.75118C4.67322 1.56793 4.87332 1.56279 11.5571 1.55976L18.4263 1.55673V4.21237ZM31.8931 22.7201C30.4885 23.3503 29.2638 23.9418 29.1716 24.0345C28.9248 24.2829 28.9539 24.6574 29.2777 25.3994C29.653 26.2595 29.7596 26.842 29.657 27.4751C29.4928 28.4899 28.7788 29.4306 27.8448 29.8627C27.1965 30.1627 26.04 30.1446 25.364 29.8239C24.2332 29.2875 23.5383 28.1179 23.5383 26.7512C23.5383 26.4043 23.1965 26.0686 22.8433 26.0686C22.6473 26.0686 17.8472 27.8307 17.1796 28.1478C17.0199 28.2237 16.8409 28.4072 16.7784 28.559C16.6737 28.8132 16.7373 29.0281 17.6447 31.4867C18.1834 32.946 18.5978 34.183 18.5655 34.2355C18.5332 34.288 18.4362 34.331 18.3499 34.331C17.9483 34.331 16.831 34.996 16.2757 35.5656C15.37 36.4946 14.964 37.5034 14.9597 38.8356C14.9557 40.0956 15.4388 41.2258 16.3626 42.1179C17.7464 43.4543 19.6586 43.791 21.4756 43.018C21.6715 42.9346 21.8492 42.8838 21.8704 42.9051C21.8916 42.9264 22.2144 43.7635 22.5877 44.7653C23.2787 46.619 23.5042 47 23.9108 47C24.0097 47 25.6813 46.3968 27.6256 45.6595C29.5699 44.9222 31.3147 44.2629 31.5031 44.1945L31.8456 44.0702L32.0273 44.4284C32.2903 44.9469 33.0024 45.6244 33.6483 45.9706C34.2926 46.316 34.2684 46.3309 34.5269 45.4252C34.7181 44.7555 34.7161 44.7352 34.4526 44.6686C34.1848 44.6011 33.2775 43.7346 33.3249 43.5917C33.3526 43.5079 34.6248 42.9799 35.375 42.7407C35.5489 42.6853 35.6095 42.7532 35.8755 43.3011C36.3055 44.1867 37.3259 45.1977 38.2352 45.6389C38.8924 45.9578 39.3838 46.1004 40.2206 46.2147L40.6086 46.2678V45.4961V44.7245L40.0533 44.6261C38.914 44.4243 38.05 43.8422 37.4045 42.8414C37.0714 42.3251 36.7746 41.3596 36.7746 40.7924C36.7746 40.5924 36.4665 40.2281 35.2296 38.9662C33.6055 37.309 33.4662 37.0933 33.6205 36.475C33.7014 36.1505 34.1438 35.746 34.4949 35.6754C35.0567 35.5624 35.3563 35.8031 38.1665 38.6253L40.882 41.3525L41.4057 40.8258L41.9293 40.2992L41.1472 39.4954L40.3651 38.6917L40.4781 38.2327C40.6575 37.5037 40.6351 36.3036 40.4283 35.5685C40.3292 35.2161 39.9441 34.1221 39.5723 33.1375C39.2006 32.1529 38.9092 31.333 38.9247 31.3155C38.9742 31.2593 43.3791 34.338 43.746 34.6852C44.4676 35.3682 44.4383 35.1014 44.4406 41.0098L44.4426 46.2656H45.2212H46L45.9743 40.8213L45.9488 35.3769L45.6056 34.6788C45.3677 34.1946 45.1129 33.8444 44.7744 33.5361C44.506 33.2916 42.8783 32.1208 41.1573 30.9342C39.4363 29.7476 37.9761 28.6942 37.9125 28.5932C37.8488 28.4922 37.257 26.943 36.5974 25.1505C35.8287 23.0616 35.3301 21.8338 35.209 21.7308C35.105 21.6424 34.8911 21.5711 34.7334 21.5722C34.5674 21.5733 33.373 22.056 31.8931 22.7201ZM36.6571 29.6948C38.8301 35.5242 38.9872 35.9862 39.0296 36.672L39.0748 37.4064L37.6281 35.964C35.975 34.3159 35.6538 34.115 34.6688 34.1116C33.2203 34.1067 32.0278 35.3042 32.0278 36.7638C32.0278 37.73 32.1961 38.0038 33.7906 39.6297L35.2506 41.1184L34.9856 41.2214C32.7093 42.1063 24.5693 45.1639 24.49 45.1639C24.4312 45.1639 24.0433 44.2533 23.6281 43.1403C23.1255 41.7928 22.8098 41.0719 22.6834 40.9829C22.3558 40.7521 21.9739 40.8204 21.472 41.1997C20.478 41.9508 19.2222 42.0577 18.1492 41.4825C16.5405 40.6202 16.0491 38.6484 17.0487 37.0666C17.5381 36.2917 18.6113 35.708 19.5463 35.708C20.1169 35.708 20.5217 35.3937 20.5273 34.9463C20.528 34.8856 20.0702 33.6046 19.5098 32.0998C18.9242 30.5273 18.5257 29.3314 18.5728 29.2877C18.6178 29.246 19.3734 28.9418 20.252 28.6116C21.1306 28.2815 21.9163 27.985 21.998 27.9526C22.112 27.9074 22.1599 27.9645 22.2034 28.1975C22.3716 29.0967 23.272 30.35 24.163 30.9249C24.9297 31.4198 25.575 31.6018 26.5963 31.6115C27.631 31.6214 28.1895 31.4743 29.0154 30.9745C30.8277 29.8778 31.666 27.5724 30.9831 25.5636C30.8629 25.2102 30.7921 24.9095 30.8257 24.8956C30.8593 24.8816 31.6056 24.5435 32.4842 24.1441C33.3629 23.7449 34.1376 23.4258 34.2058 23.4351C34.2816 23.4455 35.2351 25.8805 36.6571 29.6948Z" fill="#1B17D9"/>
</svg>
