<svg width="50" height="61" viewBox="0 0 50 61" fill="none" xmlns="http://www.w3.org/2000/svg">
<path fill-rule="evenodd" clip-rule="evenodd" d="M10.5413 0.159506C9.0047 0.646393 7.88932 1.60786 7.24188 3.00359C6.91439 3.70945 6.8386 4.09378 6.79174 5.28681L6.73518 6.72116L5.29074 6.77732C4.0896 6.82386 3.70214 6.89925 2.99145 7.22403C1.88219 7.73129 0.907122 8.69304 0.402279 9.77786L0 10.6421V33.9114V57.1807L0.378918 57.9835C0.909545 59.1075 1.7849 59.9952 2.89972 60.5403L3.84017 61H21.5782H39.3162L40.1246 60.6237C41.2544 60.0978 42.1507 59.2273 42.6969 58.1256C43.1056 57.3014 43.1632 57.0352 43.211 55.7544L43.2648 54.3119L44.7093 54.2557C45.8906 54.2099 46.3011 54.1321 46.9622 53.8287C48.0899 53.3111 48.9866 52.441 49.537 51.3307L50 50.3968V27.1216V3.84638L49.537 2.9125C48.9882 1.80547 48.0942 0.936234 46.9622 0.409315L46.1538 0.0330456L28.6325 0.00602748C14.7548 -0.0153322 10.9926 0.0164955 10.5413 0.159506ZM45.7296 3.5803C46.7202 4.0471 46.6524 2.31655 46.6524 27.1216C46.6524 46.718 46.6259 49.555 46.4387 49.9465C46.062 50.7349 45.8134 50.8069 43.2004 50.8853L40.8168 50.9567L40.3514 51.4189L39.886 51.881L39.8141 54.2479C39.7352 56.8426 39.6627 57.0895 38.8687 57.4636C38.4765 57.6485 36.2511 57.6758 21.5812 57.6758C2.91752 57.6758 4.03746 57.7328 3.57222 56.7595C3.37066 56.3374 3.34758 53.997 3.34758 33.9114C3.34758 14.315 3.37407 11.478 3.56125 11.0866C3.93803 10.2981 4.18661 10.2261 6.79957 10.1478L9.18319 10.0763L9.64858 9.61419L10.114 9.15206L10.1859 6.7851C10.2644 4.20525 10.3369 3.95261 11.1087 3.57436C11.4819 3.39146 13.7574 3.36331 28.3973 3.36048C43.4593 3.35751 45.3066 3.38099 45.7296 3.5803ZM13.383 6.96998C12.5321 7.3901 12.2162 8.48397 12.7074 9.30964C13.2261 10.1814 12.6738 10.1471 26.1396 10.1471C39.7533 10.1471 39.132 10.1048 39.5902 11.0634C39.791 11.4839 39.8148 13.4214 39.8148 29.3849C39.8148 48.9754 39.7652 47.8576 40.6581 48.3814C41.5058 48.8786 42.5959 48.5707 43.0028 47.7191C43.2181 47.2687 43.2346 45.687 43.2001 28.9317L43.1624 10.6361L42.6994 9.70232C42.1506 8.5953 41.2564 7.72606 40.1246 7.19914L39.3162 6.82287L26.567 6.78906C15.4094 6.75964 13.7634 6.78213 13.383 6.96998ZM20.0855 20.5283C18.9293 20.8082 17.642 21.5769 16.8212 22.4777C15.2843 24.1639 14.7436 25.7837 14.7436 28.7002V30.5165H14.2972C13.0708 30.5165 11.8185 31.3886 11.4923 32.4697C11.2583 33.2452 11.2583 43.6308 11.4923 44.4062C11.707 45.1179 12.5751 45.9799 13.2917 46.1931C13.6907 46.3118 16.0944 46.3594 21.6883 46.3594H29.5259L30.285 45.9656C30.8997 45.6468 31.1199 45.4281 31.441 44.8177L31.8376 44.0639V38.5444C31.8376 34.7238 31.786 32.8539 31.6701 32.4697C31.3439 31.3886 30.0916 30.5165 28.8652 30.5165H28.4188L28.4167 28.713C28.4154 27.6055 28.3315 26.5593 28.1993 26.0024C27.2655 22.0686 23.6893 19.6559 20.0855 20.5283ZM22.4816 23.8783C23.2011 24.0768 24.0788 24.8824 24.5407 25.7689C24.8809 26.4213 24.9194 26.6649 24.9729 28.5008L25.0316 30.5165H21.5812H18.1308L18.1895 28.5008C18.243 26.6653 18.2815 26.4218 18.6199 25.7778C19.485 24.1317 20.8916 23.44 22.4816 23.8783ZM28.4188 38.438V42.9645H21.5812H14.7436V38.438V33.9114H21.5812H28.4188V38.438Z" fill="#1992FB"/>
</svg>
