<svg width="54" height="42" viewBox="0 0 54 42" fill="none" xmlns="http://www.w3.org/2000/svg">
<path d="M43.4654 30.8985H42.9114V29.6806H43.4654C43.7143 29.6815 43.9627 29.6612 44.2079 29.6198C44.2187 29.6208 44.2296 29.6188 44.2393 29.6139C45.3542 29.4777 46.4299 29.1276 47.4035 28.5842C48.8267 27.7978 49.9881 26.6339 50.7507 25.2297C51.5133 23.8254 51.8455 22.2394 51.7079 20.6585C51.5704 19.0775 50.9689 17.5676 49.9745 16.3066C48.98 15.0457 47.6339 14.0862 46.0949 13.5414C45.9818 13.5003 45.8833 13.4285 45.8115 13.3346C45.7396 13.2406 45.6973 13.1285 45.6897 13.0118C45.6644 12.6951 45.6208 12.3783 45.5702 12.0616V12.0371C45.5706 12.0285 45.5685 12.02 45.5641 12.0126C45.1437 9.73254 44.0449 7.62095 42.4027 5.93686C40.7604 4.25277 38.6461 3.06943 36.3192 2.53204C33.9923 1.99464 31.5539 2.12658 29.3033 2.91164C27.0527 3.6967 25.0878 5.10075 23.6496 6.95151C23.5906 7.02749 23.5141 7.08906 23.4262 7.13129C23.3382 7.17352 23.2413 7.19524 23.1431 7.19471C23.0228 7.19309 22.9054 7.15914 22.8038 7.09664C21.2363 6.12103 19.4018 5.62449 17.5389 5.67158C15.676 5.71867 13.8708 6.30722 12.358 7.36071C10.8451 8.4142 9.69458 9.88392 9.05587 11.5789C8.41716 13.2738 8.31983 15.1155 8.77653 16.8647C8.79862 16.9524 8.80046 17.0438 8.7819 17.1323C8.76334 17.2208 8.72486 17.3042 8.66918 17.3766C8.61325 17.4491 8.54129 17.5085 8.45857 17.5506C8.37586 17.5927 8.28447 17.6163 8.19111 17.6198C6.60054 17.6952 5.10008 18.3571 3.99757 19.4696C2.89505 20.5821 2.27407 22.061 2.26202 23.6027C2.24997 25.1444 2.84777 26.6322 3.93276 27.7607C5.01776 28.8893 6.5077 29.5731 8.09691 29.6718C8.23567 29.6777 8.36734 29.6835 8.50205 29.6835H11.0879V30.9015H8.49598C8.34506 30.9015 8.18097 30.8956 8.0179 30.8897C6.17095 30.777 4.43252 30.0061 3.13785 28.7259C1.84317 27.4457 1.08394 25.7466 1.00656 23.9565C0.929169 22.1664 1.5391 20.4119 2.71876 19.0314C3.89841 17.6509 5.56422 16.7421 7.39498 16.4803C7.2806 15.849 7.22602 15.209 7.23191 14.5681C7.24972 12.7901 7.74686 11.0474 8.67408 9.51264C9.60131 7.97782 10.9265 6.70407 12.5184 5.81748C14.1103 4.93089 15.9138 4.4622 17.7504 4.4578C19.5869 4.4534 21.3928 4.91345 22.9892 5.7924C24.1768 4.39315 25.6503 3.24666 27.3172 2.42491C29.2194 1.48269 31.3266 0.994175 33.4633 1.00005C36.6424 0.998782 39.7207 2.08051 42.1588 4.05574C44.5969 6.03097 46.2395 8.77376 46.7988 11.8037C46.8059 11.8276 46.81 11.8523 46.811 11.8772C46.8485 12.0969 46.8799 12.3215 46.9052 12.547C48.6096 13.2287 50.0825 14.3596 51.1563 15.8112C52.2301 17.2628 52.8619 18.9769 52.9798 20.7588C53.0978 22.5406 52.6972 24.3188 51.8235 25.8912C50.9499 27.4636 49.6382 28.7673 48.0376 29.6541C46.9239 30.2735 45.6946 30.6734 44.4206 30.8309C44.1059 30.8743 43.7884 30.8966 43.4705 30.8976L43.4654 30.8985Z" fill="black" stroke="black"/>
<path d="M27.002 25.7099C28.0127 25.7107 28.9919 26.0508 29.7726 26.6722C30.5534 27.2937 31.0874 28.158 31.2838 29.1179C31.4801 30.0778 31.3265 31.074 30.8493 31.9365C30.372 32.7991 29.6005 33.4748 28.6664 33.8484C27.7322 34.2221 26.6932 34.2705 25.7263 33.9856C24.7593 33.7006 23.9244 33.0998 23.3637 32.2856C22.803 31.4715 22.5513 30.4942 22.6514 29.5205C22.7515 28.5468 23.1972 27.6367 23.9127 26.9455C24.3182 26.5528 24.7999 26.2414 25.33 26.0294C25.8602 25.8174 26.4284 25.7088 27.002 25.7099ZM29.6071 22.1797C29.8191 22.245 30.0257 22.3189 30.227 22.4013C30.4282 22.4837 30.6287 22.5739 30.8286 22.6719L33.2119 20.9558C33.3147 20.8822 33.4414 20.8468 33.5689 20.8559C33.6964 20.8651 33.8163 20.9183 33.9067 21.0058L36.2363 23.2613C36.3321 23.354 36.388 23.4785 36.3927 23.6095C36.3974 23.7405 36.3506 23.8684 36.2617 23.9674L34.5155 26.2424C34.6168 26.4385 34.711 26.6298 34.795 26.8239C34.8791 27.0181 34.9551 27.2162 35.0239 27.4251L37.9613 27.8428C38.0882 27.8609 38.2041 27.9226 38.2879 28.0165C38.3718 28.1105 38.418 28.2305 38.4181 28.3547V31.5388C38.4182 31.6677 38.3686 31.792 38.2791 31.8874C38.1895 31.9828 38.0665 32.0424 37.9339 32.0546L35.0249 32.4694C34.9574 32.6747 34.8811 32.8748 34.796 33.0696C34.711 33.2644 34.6178 33.4586 34.5165 33.6521L36.289 35.9595C36.365 36.059 36.4017 36.1817 36.3922 36.3051C36.3827 36.4286 36.3278 36.5447 36.2373 36.6322L33.9077 38.8877C33.812 38.9804 33.6835 39.0345 33.5481 39.0391C33.4127 39.0436 33.2806 38.9983 33.1785 38.9122L30.8286 37.2216C30.626 37.3196 30.4285 37.4108 30.228 37.4922C30.0274 37.5736 29.8228 37.6472 29.6071 37.7139L29.1756 40.5577C29.1569 40.6805 29.0932 40.7928 28.9961 40.874C28.8991 40.9552 28.7751 40.9999 28.6469 41H25.3591C25.2259 41 25.0976 40.9521 24.999 40.8654C24.9005 40.7787 24.8389 40.6595 24.8263 40.5312L24.3979 37.7148C24.1858 37.6495 23.9792 37.5756 23.778 37.4932C23.5768 37.4108 23.3766 37.3167 23.1774 37.2108L20.7941 38.9269C20.6913 39.0005 20.5646 39.036 20.4371 39.0268C20.3095 39.0176 20.1897 38.9644 20.0992 38.8769L17.7696 36.6214C17.6738 36.5287 17.618 36.4043 17.6133 36.2732C17.6086 36.1422 17.6554 36.0143 17.7443 35.9154L19.4905 33.6403C19.3892 33.4442 19.295 33.253 19.2109 33.0588C19.1269 32.8646 19.0509 32.6665 18.982 32.4577L16.0447 32.0399C15.9178 32.0218 15.8019 31.9602 15.718 31.8662C15.6342 31.7722 15.588 31.6522 15.5879 31.528V28.3478C15.5878 28.2189 15.6374 28.0946 15.7269 27.9993C15.8164 27.9039 15.9395 27.8442 16.072 27.832L18.981 27.4172C19.0499 27.2123 19.1269 27.0112 19.2099 26.8161C19.293 26.6209 19.3872 26.4238 19.4895 26.2336L17.718 23.9272C17.6419 23.8276 17.6053 23.705 17.6148 23.5815C17.6243 23.458 17.6792 23.342 17.7696 23.2544L20.0992 20.999C20.195 20.9063 20.3235 20.8522 20.4589 20.8476C20.5942 20.8431 20.7263 20.8884 20.8285 20.9745L23.1774 22.669C23.3799 22.5696 23.5801 22.4794 23.778 22.3983C23.9758 22.3173 24.1828 22.2434 24.3989 22.1767L24.8304 19.3329C24.8491 19.21 24.9128 19.0978 25.0098 19.0166C25.1069 18.9354 25.2308 18.8907 25.3591 18.8906H28.6469C28.78 18.8905 28.9084 18.9385 29.0069 19.0252C29.1054 19.1119 29.167 19.231 29.1796 19.3594L29.6081 22.1757L29.6071 22.1797ZM29.8188 23.3564C29.5568 23.2506 29.2886 23.1599 29.0156 23.0848C28.9093 23.0625 28.8126 23.0094 28.7384 22.9324C28.6642 22.8555 28.616 22.7585 28.6003 22.6543L28.186 19.9301H25.8189L25.4057 22.6513C25.3904 22.7504 25.3459 22.843 25.2774 22.918C25.2089 22.993 25.1194 23.0472 25.0198 23.074C24.4623 23.2261 23.9249 23.4403 23.4184 23.7124C23.3271 23.7694 23.22 23.7981 23.1114 23.7946C23.0028 23.7911 22.8979 23.7555 22.8107 23.6928L20.5277 22.0492L18.8524 23.6712L20.55 25.8816C20.6113 25.9615 20.6474 26.0569 20.6539 26.1563C20.6604 26.2557 20.6369 26.3547 20.5864 26.4415C20.303 26.9312 20.0794 27.4512 19.9199 27.9909C19.8969 28.0938 19.842 28.1875 19.7625 28.2595C19.6831 28.3315 19.5829 28.3784 19.4753 28.3939L16.6625 28.795V31.0858L19.4753 31.4868C19.5776 31.5016 19.6733 31.5447 19.7507 31.611C19.8282 31.6774 19.8842 31.764 19.9118 31.8605C19.9911 32.1349 20.0875 32.4044 20.2005 32.6675C20.3094 32.9222 20.4331 33.1708 20.5712 33.4118C20.6302 33.5002 20.6599 33.6039 20.6563 33.7091C20.6527 33.8143 20.6159 33.9158 20.551 34.0002L18.8524 36.2086L20.5277 37.8306L22.8117 36.187C22.8943 36.1276 22.9929 36.0928 23.0956 36.0867C23.1983 36.0806 23.3006 36.1035 23.3901 36.1527C23.6478 36.2925 23.914 36.4173 24.1872 36.5263C24.4492 36.6321 24.7174 36.7228 24.9904 36.7979C25.0967 36.8202 25.1934 36.8734 25.2676 36.9503C25.3418 37.0272 25.39 37.1243 25.4057 37.2284L25.8199 39.9526H28.186L28.6003 37.2294C28.6155 37.1304 28.6601 37.0378 28.7286 36.9627C28.7971 36.8877 28.8865 36.8336 28.9862 36.8068C29.2696 36.7301 29.548 36.6367 29.8198 36.5273C30.0829 36.4219 30.3396 36.3021 30.5886 36.1684C30.6798 36.1112 30.787 36.0825 30.8956 36.086C31.0042 36.0895 31.1091 36.1251 31.1963 36.188L33.4773 37.8306L35.1526 36.2086L33.455 33.9973C33.3937 33.9173 33.3577 33.8218 33.3514 33.7224C33.3451 33.623 33.3688 33.5239 33.4195 33.4373C33.564 33.1878 33.6928 32.93 33.8054 32.6656C33.9147 32.4119 34.0084 32.1523 34.086 31.8879C34.109 31.785 34.1639 31.6914 34.2434 31.6196C34.3228 31.5477 34.4231 31.5011 34.5307 31.4859L37.3444 31.0848V28.796L34.5317 28.3949C34.4294 28.3802 34.3337 28.337 34.2562 28.2707C34.1787 28.2044 34.1228 28.1178 34.0951 28.0213C34.0159 27.7469 33.9195 27.4773 33.8065 27.2142C33.6976 26.9595 33.5738 26.711 33.4357 26.4699C33.3767 26.3816 33.347 26.2778 33.3507 26.1727C33.3543 26.0675 33.391 25.9659 33.456 25.8816L35.1536 23.6712L33.4783 22.0512L31.1943 23.6947C31.1117 23.7541 31.013 23.789 30.9103 23.7951C30.8077 23.8012 30.7054 23.7782 30.6159 23.7291C30.3581 23.5892 30.092 23.4644 29.8188 23.3554V23.3564ZM29.3346 27.6849C28.7948 27.1624 28.0846 26.8372 27.3249 26.7648C26.5652 26.6925 25.8031 26.8775 25.1685 27.2882C24.5339 27.699 24.0661 28.3101 23.8447 29.0174C23.6234 29.7247 23.6623 30.4845 23.9548 31.1671C24.2472 31.8498 24.7752 32.4131 25.4486 32.7611C26.1221 33.1091 26.8993 33.2202 27.6479 33.0755C28.3965 32.9308 29.07 32.5393 29.5538 31.9676C30.0376 31.3959 30.3016 30.6794 30.3009 29.9404C30.3014 29.5208 30.2161 29.1053 30.0501 28.7177C29.8841 28.3301 29.6406 27.9781 29.3336 27.682L29.3346 27.6849Z" fill="black" stroke="black" stroke-width="0.5"/>
</svg>
