<svg width="46" height="48" viewBox="0 0 46 48" fill="none" xmlns="http://www.w3.org/2000/svg">
<path fill-rule="evenodd" clip-rule="evenodd" d="M24.9189 0.0978349C22.647 0.372294 20.1886 1.39818 18.2559 2.87826C17.1117 3.75444 15.3123 5.77302 14.7622 6.7976C14.7031 6.90753 14.6096 6.90481 14.1542 6.77968C13.7487 6.66824 13.3499 6.64339 12.5361 6.67875C10.8434 6.75238 9.74009 7.23001 8.52088 8.41687C7.7226 9.19409 7.14184 10.0962 6.82424 11.0522L6.56657 11.8277L5.85109 12.0859C0.93116 13.8615 -1.42625 19.9231 0.90533 24.803C2.02068 27.1373 3.97409 28.8283 6.44967 29.6026C7.12429 29.8136 7.44163 29.8516 8.86864 29.8917L10.5111 29.938V34.382V38.8261H9.74387C8.98878 38.8261 8.97528 38.822 8.88655 38.5681C8.57686 37.6822 7.96542 36.9653 7.20097 36.592C6.76214 36.3776 6.56657 36.3405 5.8762 36.3405C5.18636 36.3404 4.99017 36.3775 4.55359 36.5908C3.89831 36.911 3.27201 37.5645 2.96854 38.2449C2.76928 38.6915 2.73031 38.91 2.73094 39.5765C2.73202 40.6224 3.02785 41.3432 3.73055 42.0126C5.35601 43.5609 8.03273 42.9296 8.80177 40.8164L8.96286 40.3738L10.2515 40.3476C11.4262 40.3238 11.5581 40.3037 11.7455 40.1202L11.9511 39.9189V34.4115C11.9511 29.1313 11.944 28.8949 11.7793 28.6826C11.6105 28.4651 11.5717 28.4602 9.59681 28.4066C7.49077 28.3495 7.14058 28.2936 6.07284 27.8439C5.08934 27.4297 4.49365 27.0138 3.66503 26.1631C2.77216 25.2464 2.23532 24.3686 1.86498 23.2198C0.521128 19.0518 2.76577 14.5961 6.82442 13.3749C7.64196 13.1289 7.87146 12.9686 7.95057 12.5886C8.24081 11.1936 8.70448 10.301 9.56288 9.48506C10.4396 8.65165 11.3184 8.27466 12.5811 8.19024C13.1982 8.14897 13.4765 8.17786 14.021 8.33976C15.1618 8.67885 15.2417 8.68016 15.5259 8.36518C15.6634 8.21276 15.9643 7.77555 16.1944 7.39379C17.9424 4.49312 21.0801 2.34097 24.4608 1.72386C25.4819 1.53738 27.3608 1.51487 28.3757 1.67696C33.4387 2.48514 37.4918 6.3755 38.6845 11.5718C38.7785 11.9815 38.9007 12.8469 38.9562 13.4947C39.072 14.8493 39.154 15.0077 39.8321 15.1857C41.495 15.6221 43.1159 17.0263 43.8956 18.706C44.3956 19.7832 44.5551 20.4977 44.5549 21.6607C44.5547 23.4947 43.9395 25.0786 42.7304 26.3576C41.5376 27.6194 40.1363 28.2833 38.4555 28.383C37.4785 28.4409 37.1974 28.5551 37.0525 28.9523C36.9453 29.2462 37.0888 29.6865 37.3369 29.8248C37.4259 29.8745 37.8473 29.9151 38.2734 29.9151C41.7303 29.9151 44.8636 27.3566 45.8039 23.7661C45.962 23.1623 45.9993 22.7625 46 21.6607C46.0007 20.4456 45.9745 20.2106 45.7546 19.4564C45.2704 17.7954 44.3222 16.3072 43.0722 15.246C42.5702 14.8197 41.3475 14.1008 40.7804 13.8984C40.5145 13.8034 40.4915 13.7597 40.4395 13.2497C40.2643 11.5286 39.7061 9.43797 39.0707 8.1228C36.3884 2.57134 30.7779 -0.610168 24.9189 0.0978349ZM26.147 4.23732C25.9237 4.41404 25.8017 4.83333 25.8974 5.0955C26.0263 5.44922 26.3395 5.62087 26.8558 5.62087C27.5122 5.62087 28.6882 5.86907 29.5062 6.1802C30.7136 6.63945 31.856 7.43909 32.9176 8.56826C33.4932 9.18049 33.8474 9.25966 34.2297 8.8612C34.6492 8.42399 34.4904 8.01446 33.5349 7.07027C31.9865 5.54011 30.2668 4.61581 28.2958 4.25421C27.3888 4.0879 26.3463 4.07965 26.147 4.23732ZM35.0356 10.2915C34.5274 10.401 34.3843 10.8529 34.6219 11.5974C34.8672 12.3661 34.9813 12.9537 35.0726 13.9187C35.1427 14.6595 35.1806 14.7849 35.3914 14.974C35.5229 15.092 35.6865 15.1885 35.7548 15.1885C36.0439 15.1885 36.3563 14.9833 36.4605 14.725C36.6897 14.1571 36.3675 11.9293 35.8954 10.8164C35.725 10.4148 35.3959 10.2138 35.0356 10.2915ZM13.886 28.5226C13.4447 28.7742 13.3535 29.2518 13.6676 29.6679L13.8541 29.9151H16.0976H18.3409V35.6785V41.442L17.7981 41.6959C16.7493 42.1865 15.911 43.4872 15.911 44.624C15.911 46.1516 16.9278 47.5035 18.3741 47.8989C19.8053 48.2901 21.3063 47.5191 21.9716 46.0509C22.2075 45.5303 22.2468 45.336 22.2463 44.6908C22.246 44.0794 22.2019 43.8383 22.0114 43.4059C21.6943 42.6856 21.1354 42.0792 20.4691 41.7322L19.9159 41.4441L19.8709 35.1555L19.8259 28.867L19.5734 28.6406L19.3208 28.4143L16.6934 28.4171C14.9662 28.419 14.0044 28.4552 13.886 28.5226ZM21.7159 28.5276C21.2604 28.7998 21.1782 29.3164 21.5318 29.6848L21.7527 29.9151H23.9618H26.1708V35.6709V41.4267L25.5972 41.721C24.9113 42.073 24.3528 42.6734 24.0303 43.4059C23.8398 43.8383 23.7957 44.0794 23.7954 44.6908C23.7949 45.336 23.8342 45.5303 24.07 46.0509C24.5537 47.1181 25.3612 47.7513 26.4972 47.9542C28.337 48.2826 30.1307 46.6387 30.1307 44.624C30.1307 43.5046 29.3207 42.2291 28.2862 41.7192L27.7457 41.4529L27.7007 35.1599L27.6557 28.867L27.4032 28.6406L27.1507 28.4143L24.5233 28.4171C22.7165 28.4191 21.8396 28.4536 21.7159 28.5276ZM29.5296 28.5258C29.1352 28.7245 29.0506 29.4547 29.3881 29.7471C29.4907 29.8359 30.1293 29.8807 31.7868 29.9151L34.0456 29.962L34.0689 34.9282C34.0921 39.8581 34.0937 39.8961 34.2849 40.1082C34.4658 40.309 34.5573 40.3236 35.7783 40.3479L37.0788 40.3738L37.2399 40.8164C38.009 42.9296 40.6857 43.5609 42.3111 42.0126C43.0138 41.3432 43.3097 40.6224 43.3107 39.5765C43.3114 38.91 43.2724 38.6915 43.0732 38.2449C42.7697 37.5645 42.1434 36.911 41.4881 36.5908C41.0515 36.3775 40.8553 36.3404 40.1655 36.3405C39.4751 36.3405 39.2795 36.3776 38.8407 36.592C38.0763 36.9653 37.4648 37.6822 37.1551 38.5681C37.0664 38.822 37.0529 38.8261 36.2978 38.8261H35.5306V33.8944V28.9626L35.2675 28.6885L35.0045 28.4143L32.3651 28.4207C30.7132 28.4246 29.6524 28.4639 29.5296 28.5258ZM6.82775 38.1274C7.48608 38.6028 7.73691 39.6531 7.37071 40.401C7.1602 40.8309 6.95582 41.0282 6.52833 41.2144C5.23631 41.777 3.86375 40.5588 4.21933 39.1652C4.52938 37.9501 5.85316 37.4234 6.82775 38.1274ZM41.1313 38.1329C42.011 38.7807 42.126 40.1215 41.3653 40.8617C40.7299 41.4801 39.6405 41.5022 39.0117 40.9096C38.5071 40.4339 38.3577 39.4742 38.6803 38.7797C39.1239 37.8247 40.2935 37.516 41.1313 38.1329ZM19.8063 43.0824C20.4072 43.3504 20.7709 43.9559 20.7709 44.6886C20.7709 45.713 20.0705 46.4507 19.0982 46.4507C18.1465 46.4507 17.4152 45.6909 17.4152 44.7022C17.4152 44.4343 17.4781 44.0896 17.5551 43.936C17.7297 43.5873 18.1352 43.1809 18.4309 43.0584C18.7609 42.9217 19.4737 42.9342 19.8063 43.0824ZM27.5824 43.0531C28.5154 43.4204 28.9167 44.6729 28.3974 45.5965C28.0942 46.1357 27.5582 46.4507 26.9435 46.4507C25.9712 46.4507 25.2708 45.713 25.2708 44.6886C25.2708 43.9671 25.6294 43.3591 26.2158 43.0862C26.5435 42.9338 27.2367 42.917 27.5824 43.0531Z" fill="black"/>
</svg>
