<svg width="54" height="42" viewBox="0 0 54 42" fill="none" xmlns="http://www.w3.org/2000/svg" class="!hover:fill-white">
<path d="M33.4353 38.0563H20.8351C20.5929 38.0577 20.3528 38.0141 20.1291 37.928C19.9053 37.8419 19.7025 37.7151 19.5326 37.5551L17.8847 36.0334C17.7133 35.8753 17.5772 35.6873 17.4844 35.4803C17.3916 35.2733 17.3438 35.0514 17.3438 34.8272V23.1461C17.3424 22.9218 17.3895 22.6994 17.4824 22.4922C17.5753 22.2851 17.7121 22.0973 17.8847 21.9399L19.5265 20.4183C19.8722 20.0982 20.3405 19.918 20.8291 19.917H33.4292C33.6715 19.9156 33.9115 19.9593 34.1353 20.0454C34.359 20.1315 34.5618 20.2583 34.7318 20.4183L36.3737 21.9399C36.7188 22.26 36.9132 22.6936 36.9145 23.1461V34.8235C36.9135 35.2763 36.719 35.7103 36.3737 36.0306L34.7378 37.5579C34.5671 37.7168 34.3641 37.8429 34.1405 37.9289C33.917 38.0149 33.6773 38.0592 33.4353 38.0591V38.0563ZM20.8362 21.081C20.6812 21.0831 20.5329 21.1394 20.4209 21.2387L18.779 22.7603C18.6699 22.8628 18.6087 23.0011 18.6089 23.1452V34.8225C18.6099 34.9663 18.6709 35.1042 18.779 35.2074L20.4209 36.7346C20.5315 36.8358 20.6807 36.8924 20.8362 36.8923H33.4363C33.5915 36.8914 33.7403 36.8349 33.8516 36.7346L35.4995 35.2074C35.6087 35.1048 35.6698 34.9666 35.6697 34.8225V23.1461C35.6687 23.0023 35.6077 22.8644 35.4995 22.7613L33.8577 21.2396C33.8034 21.1889 33.7387 21.1488 33.6673 21.1217C33.596 21.0946 33.5195 21.0811 33.4424 21.0819L20.8362 21.081Z" fill="black" stroke="black"/>
<path d="M30.1035 16.7598H31.3595V20.0452H30.1035V16.7598Z" fill="black" stroke="black"/>
<path d="M22.9062 16.7598H24.1642V20.5371H22.9062V16.7598Z" fill="black" stroke="black"/>
<path d="M36.7832 31.7354H40.3283V32.9012H36.7832V31.7354Z" fill="black" stroke="black"/>
<path d="M36.2461 25.0674H40.3219V26.2332H36.2461V25.0674Z" fill="black" stroke="black"/>
<path d="M13.9434 31.7354H17.4884V32.9012H13.9434V31.7354Z" fill="black" stroke="black"/>
<path d="M13.9434 25.0674H18.0192V26.2332H13.9434V25.0674Z" fill="black" stroke="black"/>
<path d="M30.1113 37.4736H31.3693V41.0003H30.1113V37.4736Z" fill="black" stroke="black"/>
<path d="M22.9316 37.4736H24.1896V41.0003H22.9316V37.4736Z" fill="black" stroke="black"/>
<path d="M43.4654 29.6198H42.9114V28.454H43.4654C43.7143 28.4549 43.9627 28.4354 44.2079 28.3958C44.2187 28.3967 44.2296 28.3948 44.2393 28.3901C45.3542 28.2597 46.4299 27.9247 47.4035 27.4045C48.8267 26.6517 49.9881 25.5376 50.7507 24.1934C51.5133 22.8492 51.8455 21.331 51.7079 19.8177C51.5704 18.3044 50.9689 16.859 49.9745 15.652C48.98 14.445 47.6339 13.5265 46.0949 13.005C45.9818 12.9657 45.8833 12.897 45.8115 12.807C45.7396 12.7171 45.6973 12.6098 45.6897 12.4981C45.6644 12.1949 45.6208 11.8917 45.5702 11.5885V11.565C45.5706 11.5568 45.5685 11.5487 45.5641 11.5416C45.1437 9.35907 44.0449 7.33778 42.4027 5.72572C40.7604 4.11365 38.6461 2.98092 36.3192 2.46651C33.9923 1.95211 31.5539 2.07839 29.3033 2.82988C27.0527 3.58137 25.0878 4.92537 23.6496 6.69697C23.5906 6.76971 23.5141 6.82864 23.4262 6.86907C23.3382 6.90949 23.2413 6.93028 23.1431 6.92977C23.0228 6.92822 22.9054 6.89572 22.8038 6.8359C21.2363 5.90201 19.4018 5.42671 17.5389 5.47179C15.676 5.51686 13.8708 6.08024 12.358 7.08867C10.8451 8.09711 9.69458 9.50397 9.05587 11.1264C8.41716 12.7488 8.31983 14.5118 8.77653 16.1862C8.79862 16.2702 8.80046 16.3576 8.7819 16.4423C8.76334 16.527 8.72486 16.6069 8.66918 16.6762C8.61325 16.7456 8.54129 16.8025 8.45857 16.8428C8.37586 16.883 8.28447 16.9057 8.19111 16.909C6.60054 16.9812 5.10008 17.6148 3.99757 18.6797C2.89505 19.7446 2.27407 21.1602 2.26202 22.636C2.24997 24.1118 2.84777 25.5359 3.93276 26.6162C5.01776 27.6965 6.5077 28.351 8.09691 28.4455C8.23567 28.4512 8.36734 28.4568 8.50205 28.4568H11.0879V29.6226H8.49598C8.34506 29.6226 8.18097 29.617 8.0179 29.6114C6.17095 29.5035 4.43252 28.7656 3.13785 27.5401C1.84317 26.3146 1.08394 24.6883 1.00656 22.9747C0.929169 21.2611 1.5391 19.5817 2.71876 18.2602C3.89841 16.9387 5.56422 16.0688 7.39498 15.8182C7.2806 15.214 7.22602 14.6013 7.23191 13.9878C7.24972 12.2858 7.74686 10.6177 8.67408 9.14856C9.60131 7.67939 10.9265 6.46012 12.5184 5.61144C14.1103 4.76277 15.9138 4.31413 17.7504 4.30991C19.5869 4.3057 21.3928 4.74607 22.9892 5.58744C24.1768 4.24803 25.6503 3.15058 27.3172 2.36397C29.2194 1.46205 31.3266 0.994424 33.4633 1.00005C36.6424 0.998834 39.7207 2.03429 42.1588 3.92505C44.5969 5.8158 46.2395 8.44129 46.7988 11.3416C46.8059 11.3645 46.81 11.3882 46.811 11.412C46.8485 11.6223 46.8799 11.8373 46.9052 12.0531C48.6096 12.7057 50.0825 13.7883 51.1563 15.1778C52.2301 16.5673 52.8619 18.2081 52.9798 19.9137C53.0978 21.6194 52.6972 23.3215 51.8235 24.8266C50.9499 26.3318 49.6382 27.5797 48.0376 28.4286C46.9239 29.0215 45.6946 29.4043 44.4206 29.5551C44.1059 29.5966 43.7884 29.618 43.4705 29.6189L43.4654 29.6198Z" fill="black" stroke="black"/>
</svg>
