<svg width="36" height="36" viewBox="0 0 36 36" fill="none" xmlns="http://www.w3.org/2000/svg">
<path fill-rule="evenodd" clip-rule="evenodd" d="M21.9353 0.0410867C18.2925 0.543998 15.3604 2.67912 13.8275 5.94495C13.6343 6.35649 13.4684 6.7022 13.4588 6.71312C13.4492 6.7241 13.2076 6.67088 12.9219 6.59485C12.1736 6.39563 11.633 6.3548 10.9568 6.44631C9.00012 6.71107 7.44855 7.93555 6.76346 9.75544L6.53819 10.3538L6.23412 10.4116C3.74504 10.8848 1.54272 12.6902 0.584652 15.043C-1.16713 19.3448 1.16351 24.1359 5.62937 25.4135C6.58603 25.6871 7.68438 25.7477 11.2417 25.7227C14.2135 25.7018 14.462 25.6907 14.7105 25.5671C15.4112 25.2189 15.6276 24.2088 15.1288 23.6156C14.7186 23.1278 14.7754 23.1341 10.7844 23.1311C6.89502 23.1281 6.66581 23.11 5.75418 22.7337C4.36928 22.1621 3.2995 21.008 2.81259 19.5601C2.64754 19.0694 2.62847 18.9067 2.62861 17.9918C2.62875 17.071 2.64726 16.9159 2.81779 16.4079C3.09034 15.5959 3.46004 15.0076 4.10089 14.3664C5.03454 13.4322 5.99577 12.9892 7.36976 12.8598C8.50842 12.7526 8.87862 12.4437 8.99667 11.5022C9.0322 11.219 9.10874 10.8448 9.16678 10.6706C9.38649 10.0112 10.1112 9.30539 10.7729 9.10624C11.2126 8.97397 12.0609 8.99304 12.4517 9.1439C12.6335 9.21409 12.9939 9.42788 13.2525 9.61887C13.8224 10.0398 14.1508 10.1441 14.5595 10.034C15.2014 9.86103 15.3726 9.61901 15.6672 8.46782C16.0423 7.0023 16.6787 5.87026 17.7142 4.82663C18.6781 3.85516 19.867 3.16831 21.2173 2.80295C21.8301 2.63709 22.0264 2.61795 23.1313 2.61626C24.4848 2.61415 24.9689 2.70017 26.0573 3.1362C27.7163 3.80096 29.2046 5.16735 30.0082 6.76359C30.2942 7.33155 30.6183 8.27345 30.735 8.87548C30.8681 9.56213 30.8521 11.137 30.7054 11.7839C30.5252 12.5791 30.548 12.9867 30.7915 13.323C30.903 13.477 31.1534 13.72 31.348 13.8629C32.1653 14.4632 32.8323 15.393 33.1738 16.4079C33.3451 16.917 33.3632 17.0691 33.3628 17.9918C33.3624 18.924 33.3454 19.0614 33.1675 19.5757C32.6099 21.1871 31.432 22.3424 29.7797 22.8986C29.2194 23.0872 29.2051 23.0882 26.6082 23.127L23.9995 23.1659L23.7353 23.3677C23.0857 23.8638 22.9681 24.6592 23.4581 25.2419C23.8327 25.6874 23.8885 25.6979 26.0158 25.7236C29.2105 25.7622 30.2484 25.6052 31.7529 24.8557C33.9927 23.7399 35.4932 21.6792 35.902 19.1574C36.0321 18.3544 36.0326 17.7161 35.9037 16.8655C35.6535 15.2143 34.9814 13.8486 33.8041 12.5989L33.2663 12.028L33.3353 11.6133C33.4289 11.0516 33.4254 9.47399 33.3292 8.83367C33.0079 6.69481 32.1 4.80087 30.6558 3.25715C29.1181 1.61339 27.224 0.58159 24.9472 0.147526C24.242 0.0130689 22.5671 -0.0461345 21.9353 0.0410867ZM18.9575 11.6212C18.563 11.7215 18.3064 11.9393 18.1285 12.3249C18.0043 12.5942 17.9986 13.0209 17.9971 22.1085L17.9956 31.6106L15.7619 29.3851C13.3622 26.9943 13.2899 26.9388 12.6943 27.033C11.862 27.1645 11.3771 28.037 11.7026 28.8175C11.7767 28.9952 12.8213 30.0931 14.9564 32.2371C16.686 33.9738 18.2519 35.5163 18.4363 35.6648C18.8272 35.9794 19.2457 36.0742 19.6612 35.9423C20.0555 35.817 26.739 29.1463 26.9045 28.7128C27.1343 28.1105 26.825 27.4213 26.1967 27.1358C25.4461 26.7947 25.3025 26.8909 22.7796 29.4245L20.6338 31.5792L20.5986 22.0576C20.5648 12.8997 20.5584 12.5259 20.4304 12.2682C20.1613 11.726 19.5689 11.4659 18.9575 11.6212Z" fill="#D01B28"/>
</svg>
