<svg width="18" height="18" viewBox="0 0 18 18" fill="none" xmlns="http://www.w3.org/2000/svg">
<path d="M1.60577 4.73094L9 0.46188L16.3942 4.73094V13.2691L9 17.5381L1.60577 13.2691V4.73094Z" stroke="#410EAD" stroke-width="0.8"/>
<path fill-rule="evenodd" clip-rule="evenodd" d="M8.12801 5.00744C7.3579 5.08097 6.69656 5.50104 6.35526 6.13345C6.19998 6.42115 6.11972 6.72317 6.11972 7.01967C6.11972 7.10869 6.11046 7.20055 6.09911 7.22382C6.08578 7.25121 6.02909 7.29072 5.93845 7.33584C5.48539 7.5613 5.1505 7.97135 5.03368 8.44368C4.98317 8.64785 4.99038 9.0036 5.04918 9.21011C5.23208 9.8525 5.78818 10.3276 6.48527 10.437L6.56014 10.4487V10.333C6.56014 10.1994 6.57884 10.143 6.64494 10.0777C6.71329 10.0101 6.76118 9.99115 6.93889 9.96116C7.02609 9.94644 7.11467 9.93084 7.1357 9.92647C7.16105 9.92121 7.18119 9.89765 7.1953 9.85672C7.20703 9.82274 7.23916 9.74796 7.2667 9.69056L7.31677 9.5862L7.2033 9.43076C6.98418 9.13057 6.99597 9.08026 7.36829 8.72643C7.63825 8.46991 7.72276 8.40815 7.82472 8.39291C7.92337 8.37814 7.99211 8.40382 8.18043 8.52579L8.34406 8.63178L8.39898 8.60494C8.4292 8.59019 8.5091 8.55817 8.57654 8.5338L8.69919 8.48951L8.72084 8.37595C8.76705 8.13355 8.78258 8.08759 8.8383 8.02822C8.93055 7.92996 8.96077 7.9246 9.42282 7.9246C9.88467 7.9246 9.91513 7.92999 10.0071 8.02796C10.0632 8.08769 10.0806 8.13998 10.1214 8.37142C10.1354 8.4504 10.151 8.49097 10.17 8.49728C10.1854 8.50241 10.2672 8.5342 10.3518 8.56789L10.5056 8.62919L10.6672 8.52451C10.8582 8.40083 10.92 8.37865 11.0317 8.3938C11.11 8.40443 11.1298 8.41974 11.4341 8.70447C11.8596 9.10256 11.8652 9.12202 11.6435 9.42788L11.5302 9.58428L11.6016 9.74728C11.6409 9.83692 11.6757 9.91306 11.679 9.91645C11.6824 9.91986 11.7667 9.9365 11.8664 9.95346C12.0868 9.99093 12.1251 10.0048 12.1928 10.072C12.2611 10.1399 12.2855 10.2114 12.2855 10.343V10.4496L12.3667 10.4382C12.8931 10.3643 13.3986 10.061 13.6903 9.64396C13.813 9.46865 13.8916 9.30078 13.9549 9.07932C13.9946 8.94029 14 8.88928 14 8.64966C14 8.41005 13.9946 8.35903 13.9549 8.22C13.8913 7.99751 13.8155 7.83633 13.6905 7.65834C13.5743 7.49275 13.3537 7.27627 13.2062 7.18307C13.1043 7.11867 13.0893 7.09247 13.0608 6.9291C12.9765 6.44521 12.6097 6.02477 12.1153 5.84519C11.6042 5.65954 11.0346 5.74253 10.6078 6.0648C10.4718 6.16756 10.4353 6.18175 10.3657 6.15904C10.3264 6.14622 10.2933 6.11175 10.2428 6.03086C9.97972 5.60952 9.55671 5.28111 9.0658 5.1171C8.7952 5.02669 8.40464 4.98102 8.12801 5.00744ZM9.05555 8.23358C9.05087 8.24945 9.0298 8.35259 9.00874 8.46279C8.96423 8.69575 8.9525 8.71123 8.77982 8.76501C8.71684 8.78464 8.59881 8.82974 8.51754 8.86525C8.43626 8.90074 8.34941 8.9298 8.32454 8.9298C8.29698 8.9298 8.19939 8.87871 8.07463 8.79899L7.86994 8.66818L7.62021 8.90218C7.48287 9.03089 7.3705 9.14232 7.3705 9.1498C7.3705 9.1573 7.42891 9.24248 7.50029 9.33911C7.57169 9.43572 7.63543 9.53085 7.64195 9.55049C7.65016 9.57521 7.62988 9.63358 7.5761 9.74C7.53336 9.82458 7.48056 9.94468 7.45879 10.0069C7.437 10.069 7.40418 10.1321 7.38586 10.1469C7.36636 10.1627 7.25211 10.1914 7.11048 10.2161L6.86843 10.2584L6.86367 10.5993C6.86104 10.7868 6.86576 10.9402 6.87415 10.9402C6.95217 10.9402 7.36389 11.0268 7.38968 11.0486C7.40751 11.0637 7.43501 11.1178 7.45077 11.1688C7.46654 11.2198 7.51851 11.3403 7.56629 11.4366C7.66933 11.6445 7.67306 11.624 7.48624 11.8767L7.35473 12.0546L7.60506 12.2884C7.74275 12.4169 7.86207 12.5221 7.87021 12.5221C7.87836 12.5221 7.96548 12.469 8.06378 12.404C8.31867 12.2355 8.3034 12.2382 8.50958 12.3272C8.60492 12.3684 8.73675 12.4187 8.80253 12.4389C8.87583 12.4615 8.93195 12.4899 8.94754 12.5121C8.96155 12.5321 8.98528 12.6111 9.00031 12.6877C9.01533 12.7643 9.03586 12.8659 9.04592 12.9135L9.06418 13H9.42407C9.62201 13 9.78396 12.9975 9.78396 12.9944C9.78396 12.9323 9.882 12.5227 9.90174 12.5023C9.91672 12.4868 9.98158 12.4581 10.0458 12.4385C10.1101 12.4189 10.2407 12.369 10.3359 12.3276C10.5419 12.2379 10.5267 12.2353 10.7819 12.404C10.8802 12.469 10.9675 12.5221 10.9759 12.5221C10.9843 12.5221 11.1012 12.419 11.2357 12.293C11.3953 12.1433 11.4767 12.0554 11.4703 12.0397C11.4649 12.0264 11.4003 11.933 11.3269 11.832C11.2534 11.731 11.1933 11.6372 11.1933 11.6234C11.1933 11.6097 11.2201 11.5486 11.2529 11.4877C11.2857 11.4267 11.3377 11.3103 11.3684 11.2289C11.399 11.1475 11.4365 11.0681 11.4516 11.0525C11.4792 11.024 11.5216 11.0139 11.8234 10.9638L11.9867 10.9366L11.982 10.5975L11.9772 10.2584L11.7394 10.2161C11.6086 10.1929 11.4874 10.1661 11.4702 10.1565C11.4529 10.1469 11.4124 10.0728 11.3801 9.99171C11.3478 9.91067 11.2919 9.78721 11.2559 9.71737C11.2092 9.62687 11.194 9.57953 11.2029 9.55259C11.2097 9.53179 11.2738 9.43539 11.3452 9.33837C11.4167 9.24134 11.4751 9.15596 11.4751 9.14865C11.4751 9.14133 11.3622 9.02992 11.2241 8.90106L10.9731 8.66678L10.771 8.79828C10.6356 8.88639 10.5526 8.9298 10.5195 8.9298C10.4923 8.9298 10.4168 8.90508 10.3517 8.87487C10.2865 8.84467 10.1817 8.80313 10.1187 8.78258C9.86767 8.7007 9.88457 8.71722 9.84479 8.51439C9.83006 8.43925 9.80979 8.33883 9.79973 8.29125L9.78146 8.20474H9.42275C9.09612 8.20474 9.0633 8.20731 9.05555 8.23358ZM9.74873 9.35181C10.0195 9.41291 10.3293 9.59864 10.4929 9.79785C10.6912 10.0393 10.7717 10.246 10.784 10.5453C10.7945 10.8011 10.7587 10.9555 10.6349 11.1874C10.5652 11.3179 10.5249 11.3685 10.3922 11.4922C10.1657 11.7035 9.97718 11.7995 9.67898 11.8557C9.50592 11.8884 9.2422 11.8813 9.07049 11.8394C8.88522 11.7942 8.65067 11.6724 8.50657 11.5465C8.19816 11.2771 8.05795 10.9792 8.05766 10.5926C8.05708 9.76111 8.88159 9.1561 9.74873 9.35181ZM9.28189 9.60471C8.83513 9.67127 8.4907 9.95878 8.3836 10.3545C8.34902 10.4823 8.34966 10.7193 8.38494 10.8472C8.45321 11.0947 8.67768 11.3626 8.91522 11.4803C9.14806 11.5955 9.43186 11.6274 9.68538 11.5668C9.88059 11.5201 10.0189 11.4452 10.1733 11.3027C10.3216 11.1658 10.4129 11.0159 10.4641 10.8249C10.5036 10.6777 10.4902 10.4293 10.4343 10.2728C10.3802 10.1213 10.2398 9.93034 10.1091 9.83015C9.88127 9.65556 9.5488 9.56496 9.28189 9.60471Z" fill="#410EAD"/>
</svg>
