<svg width="54" height="35" viewBox="0 0 54 35" fill="none" xmlns="http://www.w3.org/2000/svg">
<path d="M43.4701 33.7776H42.9163V32.4416H43.4701C43.7191 32.4424 43.9676 32.42 44.2128 32.3744C44.2235 32.3755 44.2343 32.3734 44.244 32.3682C45.3589 32.219 46.4347 31.8354 47.4084 31.2398C48.8316 30.3775 49.9929 29.1012 50.7555 27.5615C51.5181 26.0218 51.8503 24.2827 51.7128 22.5493C51.5753 20.8159 50.9739 19.1602 49.9795 17.7776C48.9852 16.3949 47.6392 15.3427 46.1002 14.7451C45.9864 14.7008 45.8872 14.6223 45.8146 14.5192C45.742 14.4161 45.6992 14.2928 45.6914 14.1644C45.6661 13.8172 45.6223 13.47 45.5717 13.1228V13.096C45.5721 13.0866 45.5701 13.0773 45.5658 13.0691C45.1451 10.5691 44.0461 8.25374 42.4037 6.40718C40.7612 4.56062 38.6468 3.26312 36.3198 2.67384C33.9927 2.08457 31.5542 2.22916 29.3034 3.08987C27.0527 3.95057 25.0875 5.48996 23.649 7.5192C23.5905 7.60224 23.5145 7.66966 23.4271 7.71612C23.3398 7.76257 23.2435 7.78678 23.1457 7.78682C23.0257 7.78639 22.9081 7.75061 22.806 7.68349C21.2383 6.61378 19.4037 6.0694 17.5407 6.1211C15.6777 6.1728 13.8724 6.81818 12.3595 7.97336C10.8465 9.12855 9.6959 10.7401 9.05711 12.5987C8.41832 14.4572 8.32091 16.4767 8.77755 18.3948C8.79961 18.4909 8.80146 18.591 8.78296 18.688C8.76445 18.785 8.72604 18.8764 8.67048 18.9559C8.61466 19.0355 8.54277 19.1008 8.46008 19.1471C8.37738 19.1934 8.28597 19.2195 8.19255 19.2235C6.60346 19.3083 5.10505 20.0349 4.00411 21.2543C2.90316 22.4737 2.28298 24.0937 2.27054 25.7827C2.2581 27.4717 2.85434 29.1019 3.93719 30.3394C5.02004 31.577 6.50757 32.3282 8.09522 32.4395C8.23344 32.4457 8.36581 32.4529 8.49819 32.4529H11.0835V33.789H8.49138C8.34051 33.789 8.17698 33.7828 8.01345 33.7756C6.16727 33.6506 4.42997 32.8047 3.13625 31.401C1.84253 29.9973 1.08392 28.135 1.00656 26.1729C0.929197 24.2108 1.53856 22.2877 2.71726 20.7741C3.89596 19.2606 5.5606 18.2636 7.39049 17.9752C7.27598 17.2831 7.22123 16.5813 7.22694 15.8787C7.2447 13.929 7.74182 12.0181 8.66907 10.3351C9.59632 8.6521 10.9216 7.25534 12.5136 6.28312C14.1056 5.3109 15.9092 4.79693 17.7459 4.79207C19.5826 4.78722 21.3886 5.29166 22.9851 6.25546C24.1726 4.72104 25.646 3.46372 27.3128 2.56242C29.215 1.52939 31.3222 0.993731 33.4588 1.00006C36.638 0.998868 39.7163 2.18515 42.1544 4.35111C44.5925 6.51707 46.235 9.52462 46.7942 12.8469C46.8015 12.8731 46.8058 12.9002 46.8069 12.9275C46.8448 13.1683 46.876 13.4153 46.9042 13.6622C48.609 14.4096 50.082 15.6497 51.156 17.2415C52.23 18.8332 52.8619 20.7129 52.9798 22.6669C53.0977 24.6208 52.697 26.5707 51.8231 28.295C50.9492 30.0192 49.6372 31.4487 48.0363 32.4209C46.9224 33.0995 45.6931 33.5374 44.4192 33.7094C44.1045 33.7571 43.787 33.7816 43.4691 33.7828L43.4701 33.7776Z" fill="black" stroke="black"/>
<path d="M17.5855 34.9996C18.6478 34.9996 19.5089 34.0855 19.5089 32.9578C19.5089 31.8302 18.6478 30.916 17.5855 30.916C16.5233 30.916 15.6621 31.8302 15.6621 32.9578C15.6621 34.0855 16.5233 34.9996 17.5855 34.9996Z" fill="black"/>
<path d="M23.7379 34.9996C24.8001 34.9996 25.6613 34.0855 25.6613 32.9578C25.6613 31.8302 24.8001 30.916 23.7379 30.916C22.6756 30.916 21.8145 31.8302 21.8145 32.9578C21.8145 34.0855 22.6756 34.9996 23.7379 34.9996Z" fill="black"/>
<path d="M29.8941 34.9996C30.9564 34.9996 31.8175 34.0855 31.8175 32.9578C31.8175 31.8302 30.9564 30.916 29.8941 30.916C28.8318 30.916 27.9707 31.8302 27.9707 32.9578C27.9707 34.0855 28.8318 34.9996 29.8941 34.9996Z" fill="black"/>
<path d="M36.0465 34.9996C37.1087 34.9996 37.9699 34.0855 37.9699 32.9578C37.9699 31.8302 37.1087 30.916 36.0465 30.916C34.9842 30.916 34.123 31.8302 34.123 32.9578C34.123 34.0855 34.9842 34.9996 36.0465 34.9996Z" fill="black"/>
</svg>
