<svg width="40" height="41" viewBox="0 0 40 41" fill="none" xmlns="http://www.w3.org/2000/svg">
<path d="M10.1603 14.6107C8.69751 14.6198 7.26496 14.199 6.04427 13.4017C4.82358 12.6045 3.86973 11.4667 3.30364 10.1326C2.73756 8.79843 2.58472 7.32809 2.86455 5.90795C3.14437 4.48782 3.84427 3.18182 4.87544 2.1556C5.90662 1.12938 7.22262 0.429137 8.65665 0.143641C10.0907 -0.141856 11.5782 0.000244557 12.9304 0.551956C14.2827 1.10367 15.4389 2.04013 16.2524 3.2426C17.0659 4.44507 17.5001 5.85942 17.4999 7.30628C17.5028 9.23668 16.7319 11.0894 15.3561 12.4586C13.9803 13.8278 12.1119 14.6017 10.1603 14.6107ZM10.1603 3.00683C9.29969 3.00163 8.45692 3.2493 7.73879 3.7184C7.02066 4.18751 6.45951 4.85695 6.12649 5.64186C5.79346 6.42677 5.70355 7.29179 5.86814 8.1273C6.03273 8.96282 6.44441 9.7312 7.05101 10.335C7.65761 10.9388 8.43183 11.3509 9.27548 11.519C10.1191 11.6871 10.9943 11.6037 11.7899 11.2793C12.5856 10.9549 13.266 10.4041 13.7448 9.69682C14.2236 8.98951 14.4793 8.15751 14.4795 7.30628C14.4819 6.17 14.0285 5.07917 13.2187 4.27315C12.409 3.46713 11.3091 3.01172 10.1603 3.00683Z" fill="#F77C5F"/>
<path d="M17.9928 25.0027H17.9259C17.5245 24.9838 17.1471 24.8081 16.8767 24.5142C16.6062 24.2202 16.4648 23.8321 16.4835 23.4351C16.4835 23.3932 16.6349 18.9149 14.2644 16.3689C13.731 15.8081 13.0861 15.3626 12.3702 15.0605C11.6542 14.7584 10.8828 14.6062 10.1044 14.6135C9.35089 14.5544 8.59314 14.6507 7.87923 14.8965C7.16533 15.1422 6.51081 15.532 5.95721 16.0411C3.68894 18.1407 3.06755 22.1767 3.02035 23.5537C3.0064 23.9498 2.83398 24.3241 2.54099 24.5944C2.24799 24.8646 1.85844 25.0088 1.45804 24.995C1.05763 24.9812 0.679133 24.8106 0.405869 24.5208C0.132605 24.231 -0.0130336 23.8457 0.000917349 23.4497C0.00976628 23.1958 0.259469 17.211 3.89933 13.8403C4.74275 13.0619 5.73833 12.4625 6.82473 12.0788C7.91112 11.6951 9.0654 11.5354 10.2165 11.6094C11.3961 11.6151 12.5618 11.8605 13.6416 12.3302C14.7213 12.8 15.6919 13.4842 16.4933 14.3402C19.7153 17.8179 19.5108 23.3349 19.501 23.5673C19.4846 23.9525 19.3186 24.3167 19.0377 24.584C18.7568 24.8514 18.3826 25.0013 17.9928 25.0027Z" fill="#F77C5F"/>
<path d="M11.431 33.4117C10.4417 33.4177 9.47284 33.133 8.64732 32.5937C7.82181 32.0545 7.17678 31.2849 6.79396 30.3826C6.41114 29.4803 6.3078 28.4859 6.49702 27.5254C6.68625 26.565 7.15953 25.6817 7.85686 24.9876C8.5542 24.2935 9.44415 23.8198 10.414 23.6266C11.3838 23.4334 12.3898 23.5293 13.3044 23.9022C14.2191 24.2752 15.0012 24.9083 15.5516 25.7214C16.102 26.5345 16.396 27.491 16.3962 28.4695C16.3991 29.7758 15.8779 31.0298 14.947 31.9564C14.0161 32.8829 12.7516 33.4063 11.431 33.4117ZM11.431 26.5352C11.0435 26.5327 10.6639 26.6441 10.3405 26.8552C10.017 27.0663 9.76427 27.3677 9.61422 27.7211C9.46416 28.0745 9.42357 28.464 9.49762 28.8402C9.57166 29.2164 9.75703 29.5624 10.0301 29.8344C10.3033 30.1063 10.6518 30.2919 11.0317 30.3676C11.4116 30.4433 11.8057 30.4057 12.1639 30.2596C12.5222 30.1135 12.8286 29.8655 13.0441 29.547C13.2597 29.2284 13.3748 28.8538 13.3748 28.4705C13.375 27.9596 13.1706 27.4694 12.8063 27.1072C12.442 26.7451 11.9475 26.5404 11.431 26.5381V26.5352Z" fill="#F77C5F"/>
<path d="M16.5037 40.0017C16.1098 40.0003 15.7319 39.8472 15.4501 39.5749C15.1684 39.3026 15.0049 38.9324 14.9944 38.5429C14.9875 38.362 14.7929 33.9721 11.3762 33.8457C8.07162 33.7135 7.8239 38.3611 7.81505 38.5575C7.80782 38.7536 7.76156 38.9464 7.67901 39.1248C7.59646 39.3032 7.47919 39.4638 7.33389 39.5974C7.18859 39.7311 7.01814 39.8351 6.8322 39.9035C6.64626 39.9719 6.44848 40.0035 6.25022 39.9963C6.05196 39.9892 5.8571 39.9435 5.6767 39.8618C5.49629 39.7802 5.33391 39.6642 5.19883 39.5205C5.06375 39.3767 4.95861 39.2081 4.88942 39.0242C4.82023 38.8403 4.78833 38.6447 4.79556 38.4486C4.80932 38.047 5.00006 34.4614 7.30274 32.3218C7.86297 31.8077 8.52261 31.4109 9.24193 31.1555C9.96124 30.9002 10.7254 30.7914 11.4883 30.8359C16.486 31.0206 17.9431 35.8997 18.0149 38.4535C18.0212 38.6502 17.9882 38.8463 17.9179 39.0304C17.8476 39.2146 17.7413 39.3832 17.6051 39.5267C17.4688 39.6702 17.3053 39.7857 17.124 39.8667C16.9426 39.9477 16.7468 39.9926 16.5479 39.9988L16.5037 40.0017Z" fill="#F77C5F"/>
<path d="M26.9677 33.4117C25.9784 33.4177 25.0096 33.133 24.1841 32.5937C23.3585 32.0545 22.7135 31.2849 22.3307 30.3826C21.9479 29.4803 21.8445 28.4859 22.0338 27.5254C22.223 26.565 22.6963 25.6817 23.3936 24.9876C24.0909 24.2935 24.9809 23.8198 25.9507 23.6266C26.9206 23.4334 27.9266 23.5293 28.8412 23.9022C29.7558 24.2752 30.5379 24.9083 31.0884 25.7214C31.6388 26.5345 31.9327 27.491 31.9329 28.4695C31.9358 29.7758 31.4146 31.0298 30.4837 31.9564C29.5529 32.8829 28.2884 33.4063 26.9677 33.4117ZM26.9677 26.5352C26.5802 26.5327 26.2006 26.6441 25.8772 26.8552C25.5538 27.0663 25.301 27.3677 25.151 27.7211C25.0009 28.0745 24.9603 28.464 25.0344 28.8402C25.1084 29.2164 25.2938 29.5624 25.5669 29.8344C25.84 30.1063 26.1886 30.2919 26.5685 30.3676C26.9484 30.4433 27.3424 30.4057 27.7007 30.2596C28.059 30.1135 28.3653 29.8655 28.5809 29.547C28.7964 29.2284 28.9115 28.8538 28.9115 28.4705C28.9118 27.9596 28.7074 27.4694 28.343 27.1072C27.9787 26.7451 27.4842 26.5404 26.9677 26.5381V26.5352Z" fill="#F77C5F"/>
<path d="M32.0387 40.0017C31.6448 40.0003 31.2669 39.8473 30.9852 39.5749C30.7034 39.3026 30.5399 38.9325 30.5295 38.543C30.5226 38.3621 30.3279 33.9722 26.9112 33.8458C23.6057 33.7135 23.3589 38.3611 23.3501 38.5576C23.3429 38.7537 23.2966 38.9464 23.214 39.1248C23.1315 39.3033 23.0142 39.4639 22.8689 39.5975C22.7236 39.7311 22.5532 39.8351 22.3672 39.9035C22.1813 39.972 21.9835 40.0035 21.7853 39.9964C21.587 39.9892 21.3921 39.9435 21.2117 39.8619C21.0313 39.7802 20.8689 39.6642 20.7339 39.5205C20.5988 39.3768 20.4936 39.2081 20.4245 39.0242C20.3553 38.8403 20.3234 38.6447 20.3306 38.4486C20.3444 38.047 20.5351 34.4614 22.8378 32.3219C23.3979 31.8076 24.0576 31.4109 24.7769 31.1555C25.4962 30.9001 26.2604 30.7914 27.0233 30.8359C32.021 31.0207 33.4781 35.8997 33.5499 38.4535C33.5562 38.6503 33.5233 38.8463 33.4529 39.0305C33.3826 39.2146 33.2763 39.3832 33.1401 39.5267C33.0039 39.6702 32.8404 39.7858 32.659 39.8668C32.4776 39.9478 32.2819 39.9926 32.083 39.9988L32.0387 40.0017Z" fill="#F77C5F"/>
<path d="M29.246 20.1944C28.9083 20.1946 28.5804 20.0826 28.3148 19.8765C28.0492 19.6703 27.8612 19.382 27.781 19.0575L26.6238 14.4741H21.4825C21.2836 14.4735 21.0866 14.4341 20.9031 14.3582C20.7195 14.2823 20.5528 14.1714 20.4126 14.0317C20.2724 13.8921 20.1613 13.7266 20.0858 13.5445C20.0102 13.3625 19.9717 13.1674 19.9723 12.9706V1.83743C19.9717 1.64063 20.0102 1.44564 20.0858 1.26357C20.1613 1.0815 20.2724 0.915982 20.4126 0.77637C20.5528 0.636759 20.7195 0.525811 20.9031 0.449908C21.0866 0.374006 21.2836 0.334622 21.4825 0.333984H38.2296C38.6256 0.335181 39.0052 0.489629 39.2875 0.764262C39.5698 1.03889 39.7322 1.41188 39.7399 1.80342L39.9994 12.9357C40.004 13.1357 39.9685 13.3346 39.8947 13.5209C39.8209 13.7072 39.7105 13.8772 39.5697 14.0209C39.4292 14.1641 39.2611 14.2779 39.0753 14.3555C38.8895 14.4332 38.6899 14.4732 38.4882 14.4732H35.1944L30.361 19.7082C30.2197 19.8616 30.0475 19.9841 29.8555 20.0679C29.6634 20.1516 29.4558 20.1947 29.246 20.1944ZM22.9928 11.4672H27.8016C28.1392 11.4679 28.4668 11.5803 28.7323 11.7865C28.9978 11.9927 29.1859 12.2808 29.2666 12.605L30.0286 15.6198L33.4158 11.9515C33.5568 11.7984 33.7285 11.6761 33.92 11.5924C34.1114 11.5086 34.3185 11.4653 34.5278 11.4652H36.9396L36.7538 3.33898H22.9888L22.9928 11.4672Z" fill="#F77C5F"/>
</svg>
