<svg width="46" height="39" viewBox="0 0 46 39" fill="none" xmlns="http://www.w3.org/2000/svg">
<path fill-rule="evenodd" clip-rule="evenodd" d="M2.89233 0.0759467C2.29558 0.219472 1.42418 0.741495 0.9999 1.20978C0.784305 1.44779 0.471044 1.9363 0.303946 2.29516L0 2.94781V19.5135V36.0791L0.358685 36.8173C0.790643 37.7066 1.34668 38.2605 2.2395 38.6908L2.881 39H23.005H43.129L43.8546 38.6351C44.7287 38.1956 45.2731 37.6299 45.6961 36.7216L46 36.0689V19.5084V2.94781L45.6961 2.29516C45.2731 1.38692 44.7287 0.821123 43.8547 0.381658L43.129 0.0167391L23.1971 0.00159536C11.3842 -0.00749096 3.11331 0.0228943 2.89233 0.0759467ZM42.9158 1.64993C43.4433 1.8085 44.2388 2.61787 44.3947 3.15455C44.4749 3.43066 44.5115 4.46435 44.5115 6.45201V9.34732H23H1.48852V6.45201C1.48852 4.46435 1.52511 3.43066 1.60529 3.15455C1.74982 2.65685 2.55372 1.80997 3.02505 1.65882C3.53336 1.49586 42.3744 1.48716 42.9158 1.64993ZM6.09812 3.22206C5.62679 3.37321 4.82289 4.22009 4.67836 4.71779C4.41235 5.63385 4.5999 6.36417 5.27857 7.05463C6.25014 8.04309 7.48263 8.04309 8.4542 7.05463C9.39264 6.09989 9.42068 4.88535 8.52767 3.87481C7.90614 3.17155 7.00823 2.93022 6.09812 3.22206ZM13.0125 3.22206C12.5412 3.37321 11.7373 4.22009 11.5928 4.71779C11.3268 5.63385 11.5143 6.36417 12.193 7.05463C13.1645 8.04309 14.397 8.04309 15.3686 7.05463C16.307 6.09989 16.3351 4.88535 15.4421 3.87481C14.8205 3.17155 13.9226 2.93022 13.0125 3.22206ZM19.9269 3.22206C19.4556 3.37321 18.6517 4.22009 18.5072 4.71779C18.2412 5.63385 18.4287 6.36417 19.1074 7.05463C20.079 8.04309 21.3114 8.04309 22.283 7.05463C23.2215 6.09989 23.2495 4.88535 22.3565 3.87481C21.735 3.17155 20.837 2.93022 19.9269 3.22206ZM7.39889 4.89746C7.54755 5.04861 7.63466 5.2489 7.63466 5.43922C7.63466 5.62955 7.54755 5.82984 7.39889 5.98098C7.25033 6.13223 7.05346 6.22084 6.86639 6.22084C6.67932 6.22084 6.48245 6.13223 6.33388 5.98098C6.18522 5.82984 6.09812 5.62955 6.09812 5.43922C6.09812 5.2489 6.18522 5.04861 6.33388 4.89746C6.48245 4.74622 6.67932 4.6576 6.86639 4.6576C7.05346 4.6576 7.25033 4.74622 7.39889 4.89746ZM14.3133 4.89746C14.7897 5.38207 14.4522 6.22084 13.7808 6.22084C13.5937 6.22084 13.3969 6.13223 13.2483 5.98098C13.0996 5.82984 13.0125 5.62955 13.0125 5.43922C13.0125 5.2489 13.0996 5.04861 13.2483 4.89746C13.3969 4.74622 13.5937 4.6576 13.7808 4.6576C13.9679 4.6576 14.1647 4.74622 14.3133 4.89746ZM21.2277 4.89746C21.7041 5.38207 21.3666 6.22084 20.6952 6.22084C20.5081 6.22084 20.3113 6.13223 20.1627 5.98098C20.014 5.82984 19.9269 5.62955 19.9269 5.43922C19.9269 5.2489 20.014 5.04861 20.1627 4.89746C20.3113 4.74622 20.5081 4.6576 20.6952 4.6576C20.8823 4.6576 21.0791 4.74622 21.2277 4.89746ZM44.5115 23.1853C44.5115 32.5371 44.4836 35.5558 44.3947 35.8622C44.2388 36.3989 43.4433 37.2082 42.9158 37.3668C42.3411 37.5395 3.65887 37.5395 3.08421 37.3668C2.5567 37.2082 1.76116 36.3989 1.60529 35.8622C1.51637 35.5558 1.48852 32.5371 1.48852 23.1853V10.9106H23H44.5115V23.1853ZM24.8339 16.5529C24.6842 16.6783 24.0042 18.6346 22.2784 23.9042C20.9851 27.8534 19.9269 31.1859 19.9269 31.3096C19.9269 31.8665 20.7272 32.211 21.166 31.8433C21.3158 31.7178 21.9958 29.7616 23.7216 24.492C25.0149 20.5427 26.0731 17.2103 26.0731 17.0865C26.0731 16.5297 25.2728 16.1851 24.8339 16.5529ZM12.9645 20.8112C8.28874 23.8423 8.25109 23.8726 8.45641 24.4549C8.57761 24.7987 17.2396 30.4459 17.6505 30.449C18.1793 30.453 18.5575 29.7787 18.3005 29.2902C18.2511 29.1962 16.5224 28.0276 14.4592 26.6934C12.3959 25.3593 10.7077 24.2363 10.7077 24.1981C10.7077 24.1599 12.3959 23.0369 14.4592 21.7028C16.5224 20.3685 18.2511 19.1999 18.3005 19.1059C18.5573 18.6177 18.1796 17.944 17.6505 17.9464C17.4644 17.9473 16.0262 18.8265 12.9645 20.8112ZM27.8454 18.185C27.6018 18.4327 27.5425 18.8075 27.6995 19.1059C27.7489 19.1999 29.4775 20.3685 31.5408 21.7028C33.6041 23.0369 35.2923 24.1603 35.2923 24.1991C35.2923 24.2379 33.6393 25.3366 31.619 26.6409C29.5986 27.9452 27.87 29.099 27.7777 29.2051C27.393 29.6466 27.7622 30.4511 28.3495 30.451C28.5366 30.4509 29.9551 29.5851 33.0337 27.5918C37.7239 24.5548 37.7502 24.5336 37.5436 23.936C37.4726 23.7308 36.4975 23.0549 33.0355 20.8114C29.9848 18.8346 28.5349 17.9484 28.3495 17.947C28.1906 17.9459 27.9848 18.043 27.8454 18.185Z" fill="#4198FF"/>
</svg>
