<svg width="46" height="46" viewBox="0 0 46 46" fill="none" xmlns="http://www.w3.org/2000/svg">
<path opacity="0.07" fill-rule="evenodd" clip-rule="evenodd" d="M7.67286 0.124014C7.2027 0.272272 6.4008 1.10298 6.25663 1.59117C6.16773 1.89209 6.14014 4.96689 6.14014 14.5573V27.129L6.37532 27.3642C6.68637 27.6755 7.12664 27.6755 7.43768 27.3642L7.67286 27.129V17.3973V7.66563H23H38.3271V17.3973V27.129L38.5623 27.3642C38.7105 27.5126 38.9069 27.5995 39.0935 27.5995C39.2801 27.5995 39.4765 27.5126 39.6247 27.3642L39.8599 27.129V14.5573C39.8599 4.96689 39.8323 1.89209 39.7434 1.59117C39.5879 1.06474 38.7943 0.270835 38.2681 0.115293C37.7294 -0.043986 8.17885 -0.0355525 7.67286 0.124014ZM38.092 1.76741C38.3271 2.00259 38.3271 2.00288 38.3271 4.06747V6.13226H23H7.67286V4.06747C7.67286 2.00288 7.67286 2.00259 7.90803 1.76741L8.14311 1.53213H23H37.8569L38.092 1.76741ZM9.44075 3.30078C9.29246 3.44904 9.20557 3.64551 9.20557 3.83219C9.20557 4.01888 9.29246 4.21535 9.44075 4.3636C9.91589 4.83905 10.7383 4.50218 10.7383 3.83219C10.7383 3.43821 10.3657 3.06551 9.97193 3.06551C9.78532 3.06551 9.58894 3.15243 9.44075 3.30078ZM12.5062 3.30078C12.0309 3.77613 12.3677 4.59888 13.0374 4.59888C13.4312 4.59888 13.8037 4.22618 13.8037 3.83219C13.8037 3.43821 13.4312 3.06551 13.0374 3.06551C12.8508 3.06551 12.6544 3.15243 12.5062 3.30078ZM15.5716 3.30078C15.0964 3.77613 15.4331 4.59888 16.1028 4.59888C16.4966 4.59888 16.8691 4.22618 16.8691 3.83219C16.8691 3.43821 16.4966 3.06551 16.1028 3.06551C15.9162 3.06551 15.7198 3.15243 15.5716 3.30078ZM26.3006 3.30078C26.1523 3.44904 26.0654 3.64551 26.0654 3.83219C26.0654 4.01888 26.1523 4.21535 26.3006 4.3636L26.5357 4.59888H31.415C36.0598 4.59888 36.305 4.59016 36.5182 4.41746C36.8349 4.16091 36.8349 3.50348 36.5182 3.24692C36.305 3.07423 36.0598 3.06551 31.415 3.06551H26.5357L26.3006 3.30078ZM1.542 4.72414C1.07184 4.8724 0.269945 5.7031 0.125774 6.19129C-0.0384184 6.74743 -0.0435914 34.6364 0.120505 35.1842C0.277895 35.7099 0.826511 36.3084 1.39295 36.5722L1.87728 36.7978H23H44.1227L44.6071 36.5722C45.1735 36.3084 45.7221 35.7099 45.8795 35.1842C46.0436 34.6364 46.0384 6.74743 45.8742 6.19129C45.7188 5.66486 44.9252 4.87096 44.399 4.71542C44.1821 4.6513 43.5228 4.59888 42.9338 4.59888C41.9244 4.59888 41.8493 4.61239 41.6277 4.83416C41.3166 5.14534 41.3166 5.5858 41.6277 5.89698C41.8491 6.11846 41.925 6.13226 42.9253 6.13226C43.9256 6.13226 44.0014 6.14606 44.2228 6.36753L44.458 6.60271V17.8678V29.1329H23H1.542V17.8678V6.60271L1.77718 6.36753C1.99856 6.14606 2.07443 6.13226 3.07472 6.13226C4.075 6.13226 4.15087 6.11846 4.37225 5.89698C4.68339 5.5858 4.68339 5.14534 4.37225 4.83416C4.1479 4.60961 4.08554 4.59936 3.00718 4.60866C2.38576 4.61402 1.72641 4.66606 1.542 4.72414ZM24.8294 10.9001C24.68 11.0231 24.0017 12.9421 22.2802 18.111C20.9901 21.9848 19.9346 25.2535 19.9346 25.375C19.9346 25.9211 20.7328 26.2591 21.1706 25.8984C21.32 25.7754 21.9983 23.8564 23.7198 18.6875C25.0099 14.8137 26.0654 11.545 26.0654 11.4235C26.0654 10.8774 25.2672 10.5394 24.8294 10.9001ZM14.1183 15.8613C12.7364 17.0151 11.6086 18.0283 11.558 18.1614C11.5014 18.3104 11.5014 18.4887 11.558 18.6385C11.6093 18.7744 12.7182 19.7681 14.1245 20.9385C16.2227 22.6847 16.6481 22.9994 16.9099 22.9994C17.3272 22.9994 17.6355 22.6642 17.6355 22.2106C17.6355 21.8785 17.5592 21.8019 15.5999 20.168C14.4803 19.2344 13.5642 18.4385 13.5642 18.3994C13.5642 18.3603 14.4048 17.6302 15.4322 16.7769C16.4596 15.9237 17.3756 15.1371 17.4679 15.0289C17.7089 14.7459 17.6796 14.3137 17.4003 14.0344C16.92 13.5538 16.8062 13.617 14.1183 15.8613ZM28.5997 14.0344C28.3422 14.2919 28.2895 14.7195 28.4842 14.9719C28.5502 15.0572 29.4661 15.8433 30.5199 16.7188C31.5736 17.5943 32.4358 18.3505 32.4358 18.3993C32.4358 18.448 31.5736 19.2042 30.5199 20.0797C29.4661 20.9552 28.5502 21.7413 28.4842 21.8266C28.2895 22.079 28.3422 22.5066 28.5997 22.7641C29.0768 23.2416 29.1884 23.1795 31.9042 20.9245C33.4966 19.6024 34.4236 18.768 34.4596 18.6245C34.4907 18.5006 34.4909 18.2985 34.46 18.1755C34.4245 18.0339 33.4858 17.1879 31.908 15.8754C29.1924 13.6162 29.0801 13.5537 28.5997 14.0344ZM44.458 32.731C44.458 34.7956 44.458 34.7959 44.2228 35.0311L43.9877 35.2664H23H2.01226L1.77718 35.0311C1.542 34.7959 1.542 34.7956 1.542 32.731V30.6663H23H44.458V32.731ZM21.1149 32.3136C21.0001 32.3691 20.8548 32.5387 20.7919 32.6904C20.6445 33.0465 20.8236 33.5199 21.1532 33.6452C21.463 33.7631 24.7863 33.7578 25.008 33.6392C25.2492 33.51 25.409 33.0161 25.3014 32.7328C25.1163 32.2458 24.9167 32.1991 23.0505 32.2061C22.0511 32.2099 21.2357 32.2551 21.1149 32.3136ZM18.2938 38.418C18.16 38.5234 17.8816 38.8996 17.6753 39.254C17.469 39.6085 16.9832 40.2363 16.5957 40.6492L15.8913 41.3999H15.0741C14.6248 41.3999 14.09 41.4499 13.8859 41.5111C13.3604 41.6686 12.7621 42.2175 12.4984 42.7841C12.3019 43.2063 12.2727 43.4143 12.272 44.3991C12.271 45.4721 12.283 45.5415 12.5062 45.7647L12.7413 46H23H33.2587L33.4938 45.7647C33.7155 45.5431 33.729 45.4679 33.729 44.4581C33.729 43.0809 33.6191 42.721 33.0138 42.1154C32.4366 41.538 32.04 41.3999 30.9597 41.3999H30.1764L29.6892 40.9447C29.116 40.409 28.4707 39.5907 28.1967 39.0519C27.9326 38.5326 27.6545 38.3012 27.2944 38.3012C26.9556 38.3012 26.5444 38.6912 26.5444 39.0125C26.5444 39.295 26.9563 40.0552 27.4956 40.768L27.9737 41.3999H23H18.0263L18.5044 40.768C19.0437 40.0552 19.4556 39.295 19.4556 39.0125C19.4556 38.7578 19.0817 38.3537 18.7809 38.2834C18.6159 38.2449 18.4587 38.2883 18.2938 38.418ZM31.9611 43.1685C32.1542 43.3616 32.1963 43.4987 32.1963 43.9352V44.4666H23H13.8037V43.9352C13.8037 43.4987 13.8458 43.3616 14.0389 43.1685L14.274 42.9333H23H31.726L31.9611 43.1685Z" fill="black"/>
</svg>
