<svg width="37" height="28" viewBox="0 0 37 28" fill="none" xmlns="http://www.w3.org/2000/svg">
<path fill-rule="evenodd" clip-rule="evenodd" d="M0.378996 8.836C0.630995 9.612 1.06799 10.323 1.67599 10.966C2.31299 11.638 3.14999 12.158 4.18799 12.534C5.22699 12.907 6.56098 13.096 8.20499 13.096L10.436 13.096C10.17 15.842 9.192 18.179 7.5 20.111C5.811 22.037 3.46901 23.732 0.475006 25.186L2.29099 28C6.23298 26.321 9.60599 23.865 12.408 20.621C15.209 17.374 16.604 14.157 16.604 10.966C16.604 7.538 15.795 4.849 14.164 2.908C12.533 0.967001 10.197 4.25054e-06 7.16 4.51604e-06C5.233 4.68451e-06 3.55898 0.643003 2.13498 1.928C0.712976 3.211 -2.03573e-06 4.714 -1.88588e-06 6.428C-1.81359e-06 7.255 0.124994 8.06 0.378996 8.836ZM20.775 8.836C21.029 9.612 21.465 10.323 22.074 10.966C22.709 11.638 23.547 12.158 24.586 12.534C25.623 12.907 26.957 13.096 28.602 13.096L30.834 13.096C30.567 15.842 29.59 18.179 27.899 20.111C26.209 22.037 23.865 23.732 20.873 25.186L22.688 28C26.631 26.321 30.002 23.865 32.805 20.621C35.606 17.374 37 14.157 37 10.966C37 7.538 36.193 4.849 34.561 2.908C32.932 0.966999 30.596 2.46721e-06 27.557 2.73288e-06C25.631 2.90126e-06 23.955 0.643001 22.531 1.928C21.109 3.211 20.397 4.714 20.397 6.428C20.397 7.255 20.524 8.06 20.775 8.836Z" fill="#410EAD"/>
</svg>
