<svg width="18" height="18" viewBox="0 0 18 18" fill="none" xmlns="http://www.w3.org/2000/svg">
<path d="M1.60577 4.73094L9 0.46188L16.3942 4.73094V13.2691L9 17.5381L1.60577 13.2691V4.73094Z" stroke="#410EAD" stroke-width="0.8"/>
<path fill-rule="evenodd" clip-rule="evenodd" d="M5.61259 5.02838C5.56809 5.05099 5.5352 5.08264 5.51494 5.12238C5.48486 5.18137 5.48438 5.2408 5.48438 8.85667V12.531H5.33531C5.21677 12.531 5.17364 12.5375 5.12459 12.5625C5.05527 12.5979 5 12.6879 5 12.7655C5 12.8431 5.05527 12.9331 5.12459 12.9685C5.18589 12.9998 5.20859 13 9 13C12.7914 13 12.8141 12.9998 12.8754 12.9685C12.9447 12.9331 13 12.8431 13 12.7655C13 12.6879 12.9447 12.5979 12.8754 12.5625C12.8264 12.5375 12.7832 12.531 12.6647 12.531H12.5156V10.5217C12.5156 8.34344 12.5201 8.45554 12.4306 8.37267C12.3988 8.34328 12.0562 8.22269 11.0497 7.88668L9.71094 7.43978L9.70312 7.00223C9.69536 6.56714 9.69509 6.56437 9.65625 6.50756C9.63239 6.47266 9.58983 6.43867 9.54688 6.42022C9.33847 6.33068 5.78383 5.007 5.73619 5.0012C5.69805 4.99655 5.65788 5.00539 5.61259 5.02838ZM7.61328 6.19206L9.23438 6.79949V9.66526V12.531H9H8.76562V11.9207C8.76562 11.3399 8.76411 11.3074 8.73417 11.2487C8.71392 11.209 8.68073 11.1758 8.64103 11.1555C8.58116 11.125 8.55073 11.1241 7.59375 11.1241C6.63677 11.1241 6.60634 11.125 6.54647 11.1555C6.50677 11.1758 6.47358 11.209 6.45333 11.2487C6.42339 11.3074 6.42188 11.3399 6.42188 11.9207V12.531H6.1875H5.95312V9.05103C5.95312 6.27384 5.95706 5.57242 5.97266 5.57785C5.98341 5.58158 6.72169 5.85799 7.61328 6.19206ZM6.54314 7.4044C6.47717 7.43925 6.42188 7.53148 6.42188 7.60666C6.42188 7.68423 6.47714 7.77429 6.54647 7.80969C6.60153 7.83779 6.63833 7.84116 6.89062 7.84116C7.14292 7.84116 7.17972 7.83779 7.23478 7.80969C7.30411 7.77429 7.35938 7.68423 7.35938 7.60666C7.35938 7.52909 7.30411 7.43903 7.23478 7.40364C7.17945 7.37541 7.14373 7.37225 6.88734 7.37286C6.63378 7.37347 6.59498 7.37703 6.54314 7.4044ZM7.94939 7.4044C7.88342 7.43925 7.82812 7.53148 7.82812 7.60666C7.82812 7.68423 7.88339 7.77429 7.95272 7.80969C8.00778 7.83779 8.04458 7.84116 8.29688 7.84116C8.54917 7.84116 8.58597 7.83779 8.64103 7.80969C8.71036 7.77429 8.76562 7.68423 8.76562 7.60666C8.76562 7.52909 8.71036 7.43903 8.64103 7.40364C8.5857 7.37541 8.54998 7.37225 8.29359 7.37286C8.04003 7.37347 8.00123 7.37703 7.94939 7.4044ZM10.8984 8.33089L12.0391 8.71141L12.043 10.6212L12.047 12.531H11.8126H11.5781V11.9207C11.5781 11.3399 11.5766 11.3074 11.5467 11.2487C11.5264 11.209 11.4932 11.1758 11.4535 11.1555C11.3954 11.1259 11.3622 11.1241 10.875 11.1241C10.3878 11.1241 10.3546 11.1259 10.2965 11.1555C10.2568 11.1758 10.2236 11.209 10.2033 11.2487C10.1734 11.3074 10.1719 11.3399 10.1719 11.9207V12.531H9.9375H9.70312V10.2319C9.70312 8.04942 9.70452 7.9333 9.73047 7.94161C9.7455 7.94643 10.2711 8.12161 10.8984 8.33089ZM6.54314 8.34238C6.47717 8.37722 6.42188 8.46946 6.42188 8.54463C6.42188 8.6222 6.47714 8.71227 6.54647 8.74766C6.60153 8.77577 6.63833 8.77913 6.89062 8.77913C7.14292 8.77913 7.17972 8.77577 7.23478 8.74766C7.30411 8.71227 7.35938 8.6222 7.35938 8.54463C7.35938 8.46706 7.30411 8.377 7.23478 8.34161C7.17945 8.31338 7.14373 8.31022 6.88734 8.31083C6.63378 8.31144 6.59498 8.315 6.54314 8.34238ZM7.94939 8.34238C7.88342 8.37722 7.82812 8.46946 7.82812 8.54463C7.82812 8.6222 7.88339 8.71227 7.95272 8.74766C8.00778 8.77577 8.04458 8.77913 8.29688 8.77913C8.54917 8.77913 8.58597 8.77577 8.64103 8.74766C8.71036 8.71227 8.76562 8.6222 8.76562 8.54463C8.76562 8.46706 8.71036 8.377 8.64103 8.34161C8.5857 8.31338 8.54998 8.31022 8.29359 8.31083C8.04003 8.31144 8.00123 8.315 7.94939 8.34238ZM6.54314 9.28035C6.47717 9.31519 6.42188 9.40743 6.42188 9.48261C6.42188 9.56018 6.47714 9.65024 6.54647 9.68563C6.60153 9.71374 6.63833 9.7171 6.89062 9.7171C7.14292 9.7171 7.17972 9.71374 7.23478 9.68563C7.30411 9.65024 7.35938 9.56018 7.35938 9.48261C7.35938 9.40504 7.30411 9.31498 7.23478 9.27958C7.17945 9.25135 7.14373 9.24819 6.88734 9.2488C6.63378 9.24941 6.59498 9.25298 6.54314 9.28035ZM7.94939 9.28035C7.88342 9.31519 7.82812 9.40743 7.82812 9.48261C7.82812 9.56018 7.88339 9.65024 7.95272 9.68563C8.00778 9.71374 8.04458 9.7171 8.29688 9.7171C8.54917 9.7171 8.58597 9.71374 8.64103 9.68563C8.71036 9.65024 8.76562 9.56018 8.76562 9.48261C8.76562 9.40504 8.71036 9.31498 8.64103 9.27958C8.5857 9.25135 8.54998 9.24819 8.29359 9.2488C8.04003 9.24941 8.00123 9.25298 7.94939 9.28035ZM10.2931 9.28035C10.2272 9.31519 10.1719 9.40743 10.1719 9.48261C10.1719 9.56018 10.2271 9.65024 10.2965 9.68563C10.3546 9.71529 10.3878 9.7171 10.875 9.7171C11.3622 9.7171 11.3954 9.71529 11.4535 9.68563C11.5229 9.65024 11.5781 9.56018 11.5781 9.48261C11.5781 9.40504 11.5229 9.31498 11.4535 9.27958C11.3953 9.24986 11.363 9.24814 10.8717 9.2488C10.3847 9.24946 10.3478 9.25146 10.2931 9.28035ZM6.54314 10.2183C6.47717 10.2532 6.42188 10.3454 6.42188 10.4206C6.42188 10.4981 6.47714 10.5882 6.54647 10.6236C6.60153 10.6517 6.63833 10.6551 6.89062 10.6551C7.14292 10.6551 7.17972 10.6517 7.23478 10.6236C7.30411 10.5882 7.35938 10.4981 7.35938 10.4206C7.35938 10.343 7.30411 10.2529 7.23478 10.2176C7.17945 10.1893 7.14373 10.1862 6.88734 10.1868C6.63378 10.1874 6.59498 10.1909 6.54314 10.2183ZM7.94939 10.2183C7.88342 10.2532 7.82812 10.3454 7.82812 10.4206C7.82812 10.4981 7.88339 10.5882 7.95272 10.6236C8.00778 10.6517 8.04458 10.6551 8.29688 10.6551C8.54917 10.6551 8.58597 10.6517 8.64103 10.6236C8.71036 10.5882 8.76562 10.4981 8.76562 10.4206C8.76562 10.343 8.71036 10.2529 8.64103 10.2176C8.5857 10.1893 8.54998 10.1862 8.29359 10.1868C8.04003 10.1874 8.00123 10.1909 7.94939 10.2183ZM10.2931 10.2183C10.2272 10.2532 10.1719 10.3454 10.1719 10.4206C10.1719 10.4981 10.2271 10.5882 10.2965 10.6236C10.3546 10.6533 10.3878 10.6551 10.875 10.6551C11.3622 10.6551 11.3954 10.6533 11.4535 10.6236C11.5229 10.5882 11.5781 10.4981 11.5781 10.4206C11.5781 10.343 11.5229 10.2529 11.4535 10.2176C11.3953 10.1878 11.363 10.1861 10.8717 10.1868C10.3847 10.1874 10.3478 10.1894 10.2931 10.2183ZM7.35938 12.062V12.531H7.125H6.89062V12.062V11.593H7.125H7.35938V12.062ZM8.29688 12.062V12.531H8.0625H7.82812V12.062V11.593H8.0625H8.29688V12.062ZM11.1094 12.062V12.531H10.875H10.6406V12.062V11.593H10.875H11.1094V12.062Z" fill="#410EAD"/>
</svg>
