<svg width="50" height="53" viewBox="0 0 50 53" fill="none" xmlns="http://www.w3.org/2000/svg">
<path fill-rule="evenodd" clip-rule="evenodd" d="M0.988867 0.142774C0.605384 0.311948 0.25756 0.676596 0.10961 1.06454C0.0319334 1.26788 -0.0011181 8.4342 2.87985e-05 24.7739L0.0018013 48.1917L0.234622 48.5951C0.362763 48.817 0.631033 49.0848 0.830803 49.1904C1.17956 49.3746 1.76918 49.3824 15.4864 49.3824H29.7788L30.085 49.7072C30.8858 50.5564 32.8467 51.7765 34.1969 52.2655C37.403 53.4268 40.6758 53.2084 43.7333 51.6289C48.5429 49.1441 50.9875 43.6349 49.626 38.3488C48.7244 34.8477 46.0147 31.8299 42.5703 30.4907C42.065 30.2943 41.4523 30.0833 41.2086 30.0218L40.7655 29.91V15.547C40.7655 1.75946 40.7578 1.16952 40.5722 0.8232C40.4658 0.624829 40.1961 0.358435 39.9727 0.231192L39.5665 0L20.4341 0.00238129C4.72005 0.0042449 1.24577 0.0294037 0.988867 0.142774ZM37.6119 16.4296L37.5855 29.6531L36.6992 29.7712C35.1673 29.9755 33.607 30.5068 32.3201 31.2622C30.6756 32.2276 28.9042 34.0401 27.9469 35.7371L27.6137 36.3278L23.7371 36.3583L19.8606 36.3888L19.5086 36.6382C19.0423 36.9684 18.7232 37.6824 18.8171 38.1854C18.8559 38.3932 19.0072 38.7194 19.1533 38.9105C19.622 39.5236 19.7727 39.5466 23.3291 39.5466H26.5436L26.5465 41.1773C26.5497 42.9741 26.693 43.8479 27.2196 45.2804C27.387 45.7361 27.524 46.1466 27.524 46.1926C27.524 46.2387 22.058 46.2764 15.3773 46.2764H3.23054V24.7412V3.20614H20.4345H37.6384L37.6119 16.4296ZM15.3251 7.8628C15.1244 7.97027 14.0226 8.99287 12.8766 10.1352L10.7931 12.2122L10.0517 11.4809C9.0838 10.5262 8.5213 10.3779 7.68062 10.8559C7.03471 11.2231 6.763 12.2224 7.12458 12.901C7.35407 13.3316 9.90342 15.8077 10.2491 15.9357C10.6682 16.0909 11.1135 16.0702 11.4987 15.8774C11.8675 15.6929 16.839 10.8467 17.3177 10.2051C17.5591 9.8814 17.6189 9.69432 17.6189 9.26268C17.6189 8.03974 16.3923 7.29108 15.3251 7.8628ZM19.6428 11.4776C18.843 11.9619 18.5899 12.7571 18.99 13.5286C19.4598 14.4345 19.0464 14.3878 26.5947 14.3878H33.2276L33.5819 14.1528C34.5234 13.5283 34.5234 12.1413 33.5819 11.5168L33.2276 11.2818L26.5963 11.2822C20.2855 11.2825 19.9493 11.2921 19.6428 11.4776ZM15.4294 20.3509C15.2197 20.4412 14.154 21.4082 12.9238 22.6246L10.7832 24.7414L10.1608 24.1123C9.34696 23.2896 9.07588 23.1534 8.36709 23.2118C7.89384 23.2508 7.74464 23.3164 7.43862 23.6203C7.23156 23.8259 7.03638 24.1484 6.98675 24.3669C6.82003 25.1008 7.00176 25.4088 8.48064 26.8981C9.23446 27.6573 9.97797 28.3444 10.1328 28.4252C10.4655 28.5986 11.0244 28.6151 11.4345 28.4636C11.7681 28.3404 17.2404 22.9747 17.4694 22.5463C17.6894 22.1349 17.6588 21.3614 17.4065 20.9559C17.1776 20.5882 16.4596 20.1833 16.0481 20.1898C15.9085 20.1921 15.6301 20.2645 15.4294 20.3509ZM19.7511 23.9551C19.3008 24.1499 18.9018 24.6629 18.8181 25.1547C18.7224 25.7173 19.0868 26.4648 19.6 26.7584C19.9554 26.9618 20.1366 26.9672 26.6041 26.9672C33.1772 26.9672 33.2462 26.9651 33.5376 26.7506C34.0925 26.3423 34.3245 25.8877 34.2772 25.3012C34.2266 24.6746 33.9315 24.2152 33.4273 23.9775C33.1097 23.8279 32.3573 23.8099 26.5699 23.8135C21.4011 23.8167 20.004 23.8457 19.7511 23.9551ZM15.3773 32.9358C15.2626 32.9977 14.1979 34.0065 13.0113 35.1776L10.854 37.3067L10.0717 36.5688C9.51212 36.041 9.1839 35.8113 8.91875 35.7618C7.83045 35.5591 6.96662 36.2562 6.96662 37.3372C6.96662 37.9165 7.10477 38.126 8.27753 39.3268C9.73378 40.8178 10.1274 41.0996 10.7538 41.0996C11.0391 41.0996 11.375 41.0482 11.5003 40.9852C11.8248 40.8221 17.2896 35.4103 17.4694 35.074C17.6623 34.7132 17.6609 34.0259 17.4663 33.6523C17.1779 33.0985 16.7235 32.8166 16.1252 32.82C15.8285 32.8218 15.492 32.8739 15.3773 32.9358ZM39.6508 32.9717C42.5017 33.4653 44.8282 35.2292 46.0237 37.8031C46.517 38.8652 46.7044 39.6331 46.778 40.8944C47.0198 45.0397 44.0969 48.7942 39.9689 49.6409C34.5461 50.7532 29.4287 46.3739 29.7484 40.8944C29.822 39.6331 30.0093 38.8652 30.5026 37.8031C31.6888 35.2491 34.0079 33.4802 36.8383 32.9702C37.8517 32.7876 38.5901 32.788 39.6508 32.9717ZM42.9029 36.4978C42.7309 36.5854 41.2648 37.9707 39.6451 39.5761L36.6999 42.4953L35.3181 41.1388C34.5581 40.3927 33.8202 39.7061 33.6784 39.6127C33.5251 39.5118 33.2083 39.4433 32.8964 39.4435C32.0181 39.4441 31.4198 39.9466 31.3074 40.778C31.2102 41.498 31.5228 41.9254 33.7527 44.1212C35.4409 45.7834 35.893 46.1736 36.2561 46.2813C37.1752 46.5537 37.2036 46.5324 41.2162 42.5661C43.2132 40.5922 44.9375 38.8043 45.0479 38.5931C45.4263 37.8696 45.2088 37.0376 44.5191 36.57C44.1087 36.2918 43.3717 36.2589 42.9029 36.4978Z" fill="#43C5BD"/>
</svg>
