<svg width="46" height="46" viewBox="0 0 46 46" fill="none" xmlns="http://www.w3.org/2000/svg">
<path fill-rule="evenodd" clip-rule="evenodd" d="M1.52924 0.111796C1.12712 0.240764 0.463198 0.841951 0.220084 1.29709L0.020827 1.67016V9.89446V18.1187L0.220354 18.4924C0.491174 18.9995 0.929394 19.4209 1.4186 19.6448C1.74663 19.795 2.05518 19.8376 3.0076 19.8646L4.18942 19.8982L5.38532 23.6628C6.04311 25.7334 6.62283 27.4784 6.67363 27.5405C6.79303 27.6865 7.23666 27.6865 7.35443 27.5405C7.40451 27.4784 7.9855 25.7296 8.64535 23.6543L9.84514 19.8811H14.9968H20.1485L21.365 23.6906C22.1095 26.0219 22.6374 27.535 22.7255 27.5901C23.0049 27.7648 23.3237 27.5902 23.4755 27.1792C23.6329 26.7532 25.7852 19.9925 25.7852 19.9241C25.7852 19.9004 28.1101 19.8813 30.9516 19.8815L36.118 19.8817L37.2815 23.5643C37.9213 25.5897 38.5009 27.3384 38.5695 27.4502C38.7155 27.6885 39.063 27.7188 39.2701 27.5115C39.3481 27.4333 39.4119 27.3547 39.4119 27.3366C39.4119 27.3115 40.7409 23.1122 41.6785 20.1748L41.7722 19.8811H42.7866C44.1587 19.8811 44.6383 19.7337 45.2454 19.1257C46.04 18.33 45.9997 18.8236 45.9997 9.89446C45.9997 1.24196 46.0198 1.54599 45.3976 0.81791C45.2123 0.601187 44.8579 0.330237 44.6059 0.212747L44.1497 0L22.9877 0.00831467C8.44474 0.0140084 1.73301 0.0463633 1.52924 0.111796ZM44.3405 1.13351C44.4776 1.23599 44.6734 1.43211 44.7758 1.56939C44.9601 1.81648 44.9621 1.89855 44.9859 9.84041L45.0099 17.8618L44.8032 18.1689C44.6896 18.3378 44.4596 18.5685 44.2921 18.6814C44.0103 18.8716 43.8904 18.8869 42.6865 18.8869C41.9709 18.8869 41.3124 18.9261 41.2232 18.9739C41.0141 19.086 41.0239 19.059 39.9489 22.4568C39.4456 24.0475 39.0048 25.3797 38.9694 25.4175C38.934 25.4552 38.4487 24.0521 37.891 22.2995C37.298 20.4361 36.8153 19.066 36.7284 18.9999C36.6133 18.9123 35.3159 18.8869 30.957 18.8869C25.7134 18.8869 25.3234 18.8977 25.1761 19.0457C25.0893 19.133 24.5714 20.6168 24.0255 22.3428C23.4795 24.0688 23.0106 25.4817 22.9834 25.4827C22.9563 25.4836 22.4893 24.0729 21.9456 22.3476C21.402 20.6222 20.8862 19.1377 20.7993 19.0488C20.6508 18.8967 20.3025 18.8869 15.0012 18.8869C9.73008 18.8869 9.3506 18.8974 9.20306 19.0466C9.11624 19.1343 8.59843 20.6188 8.05246 22.3452C7.50649 24.0717 7.03831 25.4843 7.01214 25.4844C6.98588 25.4845 6.51887 24.0718 5.97434 22.3451C5.42972 20.6185 4.91317 19.134 4.82627 19.0464C4.68973 18.9086 4.48975 18.8869 3.34953 18.8869C1.90239 18.8869 1.58528 18.7963 1.19399 18.2708C1.0172 18.0333 1.01296 17.8669 0.988232 10.0752C0.974245 5.70097 0.984442 2.03366 1.0107 1.92566C1.08109 1.63672 1.50578 1.16676 1.82118 1.02867C2.04832 0.929255 5.76561 0.911631 23.0939 0.927718L44.0913 0.947149L44.3405 1.13351ZM8.41343 3.8374C6.14571 4.2591 4.34221 5.85533 3.61431 8.08502C3.31307 9.0075 3.27535 10.5413 3.53074 11.4761C3.98872 13.1522 5.20303 14.6325 6.74592 15.3953C7.84102 15.9369 8.67649 16.1176 9.81238 16.0588C12.0413 15.9435 14.0046 14.6463 14.9967 12.6336C15.8905 10.82 15.8929 9.02485 15.0037 7.18315C14.1491 5.41294 12.5234 4.19439 10.5341 3.83297C9.7095 3.68313 9.23807 3.68412 8.41343 3.8374ZM10.495 4.7944C11.3893 4.95572 12.4537 5.52907 13.1405 6.21955C14.7648 7.85212 15.1466 10.2177 14.1203 12.2894C13.7223 13.0929 12.6701 14.1488 11.8872 14.5304C10.7421 15.0887 9.37723 15.2467 8.22933 14.9539C6.38675 14.484 4.87969 12.9467 4.44292 11.0915C4.03412 9.355 4.56474 7.50661 5.83844 6.23112C7.06529 5.00236 8.75608 4.4807 10.495 4.7944ZM19.3388 5.45045C19.2469 5.51769 19.1749 5.68344 19.1749 5.8275C19.1749 6.32963 19.127 6.32457 23.845 6.32457C27.1821 6.32457 28.2205 6.29845 28.3308 6.2116C28.5791 6.01621 28.6114 5.72058 28.4069 5.51579C28.2254 5.33404 28.1377 5.33043 23.8622 5.33043C20.3805 5.33043 19.4697 5.35456 19.3388 5.45045ZM8.75004 6.3281C8.62424 6.37871 8.52416 6.5159 8.49059 6.68382C8.43816 6.94618 8.41704 6.95721 7.96492 6.95721C7.61171 6.95721 7.45379 7.00149 7.33376 7.13435C7.12413 7.36644 7.21482 7.74231 7.51353 7.8786L7.73661 7.98036V9.9542C7.73661 11.6045 7.71549 11.9279 7.60765 11.9279C7.4259 11.9279 7.19515 12.1807 7.19515 12.3798C7.19515 12.6809 7.44711 12.8317 7.95003 12.8317C8.40341 12.8317 8.42453 12.8428 8.50755 13.1244C8.67757 13.7007 9.45123 13.6344 9.45123 13.0436C9.45123 12.7362 9.59191 12.7839 9.68938 13.1243C9.8584 13.7145 10.6205 13.6305 10.6268 13.021C10.6286 12.8494 10.7194 12.7303 10.9652 12.577C11.3919 12.311 11.5863 12.0456 11.7191 11.5483C11.8475 11.0676 11.7712 10.6017 11.4978 10.1973L11.2931 9.89446L11.498 9.59061C12.0318 8.79909 11.7996 7.78262 10.9599 7.23575C10.7041 7.06919 10.6244 6.95694 10.6244 6.76344C10.6244 6.59227 10.5508 6.46122 10.3988 6.36144C10.1903 6.22461 10.1562 6.22452 9.94901 6.36054C9.82573 6.44143 9.69948 6.60881 9.66844 6.73244C9.60112 7.00131 9.45123 7.03168 9.45123 6.77645C9.45123 6.59896 9.15541 6.22868 9.02257 6.23989C8.98539 6.24305 8.86266 6.28273 8.75004 6.3281ZM10.596 8.14783C10.8716 8.40712 10.8775 8.90158 10.6087 9.18825C10.4307 9.37786 10.3339 9.39738 9.57089 9.39738H8.72928V8.67437V7.95135H9.55825C10.2851 7.95135 10.4129 7.97558 10.596 8.14783ZM19.3388 8.16175C19.2469 8.22899 19.1749 8.39474 19.1749 8.5388C19.1749 9.06326 18.5286 9.03588 30.9012 9.03588C42.2742 9.03588 42.3001 9.03542 42.4848 8.85051C42.6893 8.64572 42.657 8.3501 42.4087 8.1547C42.1906 7.98299 19.5734 7.98994 19.3388 8.16175ZM10.5833 10.6134C10.731 10.7612 10.8039 10.9346 10.802 11.1331C10.7963 11.7227 10.4344 11.9279 9.40024 11.9279H8.72928V11.1597V10.3915H9.54553C10.2919 10.3915 10.3808 10.4105 10.5833 10.6134ZM19.4582 10.8129C19.2763 10.8616 19.0943 11.2468 19.1653 11.4323C19.1947 11.5089 19.2925 11.611 19.3827 11.6593C19.4863 11.7149 23.7432 11.7472 30.9662 11.7472H42.3858L42.5202 11.5418C42.6958 11.2733 42.605 10.9425 42.3266 10.8365C42.1125 10.7549 19.7607 10.732 19.4582 10.8129ZM19.2343 13.7807C19.0974 13.99 19.0974 14.0232 19.2343 14.2325L19.3821 14.4585H27.6772H35.9725L36.1129 14.2576C36.2903 14.004 36.29 13.8755 36.1116 13.6967C35.9848 13.5697 35.0955 13.5547 27.676 13.5547H19.3821L19.2343 13.7807ZM6.4732 31.2758C5.57655 31.3844 4.87464 31.7403 4.15829 32.4494C2.57236 34.0196 2.60936 36.5607 4.2414 38.1661C4.53542 38.4554 4.76202 38.7023 4.74478 38.7149C4.72754 38.7275 4.53063 38.8056 4.3071 38.8883C3.52235 39.1791 2.72234 39.7246 1.96105 40.4881C0.928401 41.5238 0.304641 42.6248 0.0430268 43.8737C-0.129698 44.6986 0.224867 45.4394 0.97614 45.8232C1.30878 45.9931 1.54278 46 7.01466 46C12.4865 46 12.7205 45.9931 13.0532 45.8232C13.8045 45.4394 14.159 44.6986 13.9863 43.8737C13.7492 42.7418 13.1449 41.6156 12.257 40.6508C11.5935 39.9298 10.8872 39.4219 9.93637 38.982L9.27137 38.6743L9.79704 38.1572C11.4113 36.5691 11.4473 34.0333 9.87807 32.4534C8.93395 31.5029 7.80925 31.1139 6.4732 31.2758ZM22.4462 31.2769C20.6982 31.4996 19.3294 32.8264 19.0118 34.6062C18.7859 35.8726 19.2284 37.202 20.1895 38.1437C20.7661 38.7087 20.8063 38.7699 20.6017 38.7699C20.5303 38.7699 20.0937 38.9617 19.6315 39.1963C18.9358 39.5494 18.6433 39.7706 17.9296 40.4841C17.2267 41.1867 16.9912 41.4956 16.6525 42.159C15.9674 43.5009 15.8151 44.2396 16.0884 44.8945C16.2662 45.3206 16.537 45.6107 16.9603 45.828C17.279 45.9917 17.5697 46 22.9877 46C28.4596 46 28.6936 45.9931 29.0262 45.8232C29.7712 45.4426 30.1251 44.6938 29.9542 43.8596C29.4951 41.6188 27.5719 39.5006 25.3003 38.7337C25.1563 38.6851 25.1917 38.6305 25.5389 38.365C26.0505 37.9737 26.6426 37.0948 26.8418 36.4311C27.0592 35.7064 27.0292 34.6238 26.7727 33.9347C26.091 32.1037 24.3504 31.0344 22.4462 31.2769ZM38.3539 31.2791C36.696 31.481 35.2635 32.9039 34.9658 34.6444C34.751 35.9005 35.267 37.364 36.2266 38.2206L36.7134 38.6552L35.7472 39.1277C34.9012 39.5416 34.6779 39.7032 33.9514 40.4278C33.4505 40.9273 32.9755 41.5059 32.7526 41.8879C32.3186 42.6315 31.9217 43.7632 31.9217 44.257C31.9217 44.7222 32.2482 45.3386 32.6745 45.6784L33.0214 45.9548L38.7937 45.9794C44.3012 46.0028 44.5838 45.996 44.9542 45.8319C45.6328 45.5313 46.0726 44.7179 45.9516 43.9872C45.7039 42.492 44.5275 40.6949 43.1538 39.7131C42.6649 39.3638 41.7907 38.9086 41.2703 38.7325C41.1199 38.6816 41.1426 38.6413 41.4508 38.4132C42.5144 37.626 43.1137 36.1105 42.9179 34.7029C42.6127 32.5082 40.6084 31.0046 38.3539 31.2791ZM8.32499 32.4856C8.89163 32.7632 9.57152 33.4655 9.84026 34.0506C9.99214 34.3814 10.0363 34.6495 10.0369 35.2471C10.0377 35.9363 10.0066 36.0807 9.74072 36.6215C9.41729 37.2794 8.96482 37.7291 8.29034 38.0629C7.6849 38.3625 6.34443 38.3625 5.73899 38.0629C5.09943 37.7464 4.64172 37.3048 4.30105 36.6755C4.01354 36.1444 3.99152 36.0458 3.99197 35.2903C3.99233 34.6347 4.03258 34.3894 4.19935 34.0251C4.42541 33.5314 4.98699 32.9047 5.47611 32.6002C6.25464 32.1155 7.47003 32.0667 8.32499 32.4856ZM24.2783 32.4841C24.8622 32.7607 25.5407 33.4546 25.8103 34.0506C26.0903 34.6699 26.0882 35.8442 25.8058 36.458C25.494 37.136 25.0468 37.6202 24.4166 37.9624C23.8796 38.2541 23.7932 38.2728 22.9877 38.2728C21.9682 38.2728 21.4779 38.0796 20.819 37.4181C20.2495 36.8465 19.9911 36.2594 19.9418 35.4259C19.874 34.2794 20.3358 33.369 21.3259 32.697C21.5965 32.5133 21.9898 32.3219 22.1998 32.2718C22.8099 32.1258 23.7178 32.2185 24.2783 32.4841ZM40.1572 32.4338C40.7478 32.6878 41.4362 33.3592 41.7308 33.9685C41.9387 34.3984 41.977 34.5955 41.9783 35.2452C41.9797 35.8867 41.9409 36.0975 41.7429 36.5238C41.4545 37.145 40.932 37.6852 40.2948 38.0207C39.8708 38.2441 39.7232 38.272 38.9607 38.2723C38.2481 38.2727 38.0324 38.2377 37.6827 38.0652C37.045 37.7507 36.4738 37.1973 36.1908 36.6202C35.9672 36.164 35.9376 36.0035 35.938 35.2452C35.9384 34.4816 35.9662 34.3337 36.1892 33.909C36.6266 33.0764 37.3601 32.4809 38.2147 32.265C38.7126 32.1393 39.6648 32.222 40.1572 32.4338ZM8.32319 39.4472C8.67062 39.5199 9.34068 39.7692 9.8122 40.0015C10.5114 40.3458 10.8043 40.5588 11.4005 41.1558C11.9958 41.752 12.2099 42.0472 12.5539 42.7464C12.8091 43.265 12.9973 43.786 13.0292 44.0622C13.0755 44.4631 13.0538 44.5522 12.8537 44.7852L12.6253 45.051H7.01466H1.40398L1.1763 44.786C0.844114 44.3992 0.920099 43.8677 1.46553 42.7632C2.50089 40.6669 4.62385 39.3391 6.96954 39.3209C7.36661 39.3178 7.97575 39.3747 8.32319 39.4472ZM24.2962 39.4472C24.6436 39.5199 25.3128 39.7695 25.7832 40.0021C26.48 40.3466 26.7752 40.5618 27.375 41.1625C27.9806 41.7689 28.1852 42.052 28.5265 42.7544C29.205 44.1512 29.1764 44.7877 28.4252 45.0068C28.192 45.0748 26.4171 45.0971 22.7317 45.0783L17.3769 45.051L17.1592 44.7974C16.8765 44.4684 16.8794 44.0903 17.1706 43.3157C18.237 40.4782 21.2923 38.8196 24.2962 39.4472ZM40.2408 39.4476C40.6109 39.5236 41.2737 39.7665 41.7496 40.0007C43.1427 40.6863 44.2514 41.9352 44.7928 43.4291C44.9106 43.754 45.007 44.1419 45.007 44.2911C45.007 44.6345 44.6764 44.9756 44.2726 45.049C44.1057 45.0793 41.5867 45.0922 38.6746 45.0776L33.3801 45.051L33.1472 44.832C32.8582 44.5599 32.8426 44.1588 33.0927 43.4307C33.4844 42.2904 34.4642 41.0349 35.4992 40.3468C36.8568 39.4444 38.6075 39.1124 40.2408 39.4476Z" fill="black"/>
</svg>
