<svg width="54" height="50" viewBox="0 0 54 50" fill="none" xmlns="http://www.w3.org/2000/svg">
<path fill-rule="evenodd" clip-rule="evenodd" d="M16.6873 0.131111C14.8359 0.662144 13.4171 2.018 12.8466 3.80117C12.6493 4.4177 12.6167 4.82607 12.5723 7.23248L12.5218 9.9641L8.50134 10.0099C4.7254 10.0528 4.43831 10.0697 3.77978 10.2875C2.45134 10.7267 1.21494 11.7808 0.608182 12.9915C-0.0175557 14.2399 5.14275e-05 13.8931 5.14275e-05 24.9879C5.14275e-05 36.2089 -0.0188209 35.8632 0.666486 37.1783C1.08558 37.9825 2.07664 38.9817 2.84271 39.3722C3.98411 39.9542 4.43483 40.0132 7.73812 40.0132H10.7541L10.7543 44.5653C10.7544 48.6863 10.7719 49.1526 10.9388 49.489C11.1649 49.9449 11.5585 50.1088 11.9917 49.9277C12.1774 49.85 14.0467 47.8573 16.6967 44.912L21.0934 40.0254L29.0237 39.9856C36.5975 39.9475 36.98 39.9363 37.5338 39.7356C39.4036 39.0579 40.6622 37.78 41.1565 36.0569C41.2516 35.7257 41.3293 35.2854 41.3293 35.0782C41.3293 34.8711 41.3679 34.6775 41.4151 34.648C41.4622 34.6186 42.4704 35.6755 43.6555 36.9965C44.8405 38.3176 45.966 39.5368 46.1565 39.7058C46.5936 40.0937 47.0415 40.1103 47.3964 39.7517L47.6553 39.4904V34.747V30.0037H48.5322C51.0913 30.0037 53.2439 28.3035 53.8224 25.8253C54.0636 24.7923 54.0571 5.14701 53.8152 4.20452C53.3359 2.33617 52.041 0.928884 50.2386 0.317457L49.5003 0.0670086L33.3692 0.0200494C19.3286 -0.0208401 17.1668 -0.00635849 16.6873 0.131111ZM49.7693 2.05218C50.8657 2.42998 51.8448 3.55306 52.0814 4.70446C52.1579 5.07641 52.1847 8.4974 52.1651 15.3651L52.1361 25.4782L51.8569 26.0796C51.5011 26.8461 50.8535 27.4998 50.0958 27.8572C49.5615 28.1094 49.341 28.1438 47.9479 28.1924C45.7125 28.2706 45.928 27.8039 45.8629 32.7101L45.8102 36.6887L43.6488 34.2853L41.4875 31.882L41.4313 23.1429C41.3765 14.6036 41.3702 14.3904 41.1544 13.8132C41.033 13.4882 40.8259 13.009 40.6942 12.7483C40.3643 12.0949 39.1822 10.9461 38.4827 10.5988C37.2016 9.96303 37.662 9.98486 25.5451 9.98486H14.4442V7.32683C14.4442 4.91487 14.464 4.61512 14.6586 4.08995C15.0478 3.03928 16.0129 2.19092 17.1587 1.89235C17.4097 1.82686 23.3591 1.80769 33.4273 1.83985C47.2522 1.88404 49.3607 1.91151 49.7693 2.05218ZM36.9579 11.9404C38.0322 12.2294 38.9324 13.046 39.315 14.0786C39.54 14.686 39.5401 14.6925 39.5121 25.1402L39.4843 35.5941L39.2217 36.1135C38.8725 36.8041 38.2972 37.3863 37.6165 37.7383C37.1188 37.9957 36.8961 38.0351 35.5306 38.1074C34.6898 38.1518 30.9605 38.1915 27.2434 38.1956L20.485 38.2029L20.1609 38.4425C19.9827 38.5744 18.2083 40.4995 16.218 42.7207L12.5992 46.7593L12.5433 42.6675C12.5126 40.4169 12.477 38.5653 12.4642 38.5527C12.1982 38.2907 11.7415 38.253 8.22374 38.2029L4.48091 38.1497L3.88469 37.8674C3.14361 37.5164 2.47707 36.8392 2.11892 36.0733L1.84511 35.4876V25.0522V14.6169L2.12292 14.0185C2.49953 13.2073 3.06295 12.6058 3.77862 12.2508C4.35671 11.9642 4.44358 11.953 6.53683 11.8965C7.72557 11.8643 14.9371 11.8289 22.5625 11.8178C33.8736 11.8014 36.5246 11.8239 36.9579 11.9404ZM8.6831 19.1416C8.10945 19.3753 7.9455 20.1488 8.37714 20.5847L8.63587 20.8462L14.8348 20.8428C19.7535 20.8401 21.0709 20.8108 21.2141 20.701C21.5145 20.4705 21.6415 20.0002 21.498 19.6502C21.2425 19.027 21.334 19.0353 14.8449 19.0427C11.5802 19.0464 8.80741 19.0909 8.6831 19.1416ZM8.77936 24.5415C8.4617 24.6034 8.11831 25.0667 8.11831 25.4334C8.11831 25.5979 8.23281 25.867 8.37271 26.0313L8.62712 26.33L20.3988 26.3589C28.5821 26.379 32.2993 26.3527 32.5933 26.2728C32.9277 26.1818 33.0479 26.0811 33.1678 25.7914C33.2994 25.4731 33.2995 25.3769 33.1682 25.0596C33.0514 24.7771 32.9255 24.6686 32.6133 24.5811C32.2219 24.4713 9.33383 24.4333 8.77936 24.5415ZM8.37714 30.2651C8.04197 30.6035 8.04029 31.0715 8.37271 31.4619L8.62723 31.7607L20.4183 31.7923C28.831 31.8148 32.3251 31.79 32.6131 31.7056C32.9208 31.6155 33.0519 31.5022 33.1655 31.2275C33.3305 30.8284 33.2844 30.6005 32.9662 30.2433L32.7526 30.0037H20.6942H8.63587L8.37714 30.2651Z" fill="#20CDB8"/>
</svg>
