<svg width="40" height="40" viewBox="0 0 40 40" fill="none" xmlns="http://www.w3.org/2000/svg">
<path fill-rule="evenodd" clip-rule="evenodd" d="M16.989 0.0812453C16.9116 0.126335 16.7137 0.443298 16.549 0.785515C16.1604 1.59355 15.6155 2.1368 14.7802 2.54961C14.3065 2.78356 14.112 2.92799 14.0561 3.0871C13.9035 3.52208 14.04 3.70928 14.9593 4.32603C15.8898 4.95029 16.1281 5.19674 16.5915 6.0142C17.0818 6.87891 17.6034 6.89707 18.0465 6.06495C18.4488 5.30959 18.7728 4.97238 19.7073 4.33628C20.6361 3.70411 20.7714 3.51891 20.6199 3.0871C20.5643 2.92875 20.3713 2.78447 19.9103 2.55669C19.0771 2.14505 18.5096 1.58096 18.1257 0.782764C17.961 0.440464 17.7564 0.122918 17.671 0.0772447C17.4756 -0.0272706 17.172 -0.0255203 16.989 0.0812453ZM31.8612 1.91326C30.4816 2.21222 29.0577 2.87399 28.3301 3.5545C27.8008 4.04949 27.5557 4.62283 27.5538 5.36994C27.5524 5.9246 27.6063 6.08887 28.6478 8.70376L29.7432 11.4542L29.7958 12.996C29.8991 16.0207 30.256 19.1663 30.7842 21.7057L31.0442 22.9558L31.0887 30.4569L31.1333 37.958L31.3517 38.4236C31.6186 38.9928 32.0398 39.4267 32.6156 39.7258C32.9893 39.9198 33.1502 39.9514 33.759 39.9507C34.3376 39.95 34.5438 39.9128 34.8843 39.7477C35.4134 39.4911 35.9193 38.987 36.1806 38.4559L36.3847 38.0414L36.4289 30.5403L36.4732 23.0392L36.7435 21.7057C37.2918 19.0006 37.6204 16.1013 37.7298 13.0018L37.7871 11.3822L38.8628 8.70951C40.0615 5.73115 40.136 5.43111 39.8801 4.60841C39.5606 3.58176 38.1038 2.56828 36.1763 2.03195C35.0589 1.72107 33.0088 1.66464 31.8612 1.91326ZM17.9466 2.79398L18.5919 3.42673L17.9926 3.98165C17.6629 4.28678 17.3683 4.53648 17.338 4.53648C17.3077 4.53648 17.0137 4.28744 16.6849 3.98298L16.087 3.42948L16.6917 2.80581C17.0242 2.46284 17.2974 2.17747 17.2988 2.17163C17.3001 2.16588 17.5916 2.44592 17.9466 2.79398ZM35.3254 3.21029C36.522 3.45682 38.088 4.19093 38.4492 4.67458C38.8135 5.1624 38.7779 5.31843 37.6736 8.0865L36.6458 10.6624H35.9525C35.5713 10.6624 35.2594 10.6495 35.2594 10.6337C35.2594 10.618 35.3719 10.0495 35.5094 9.37052C35.647 8.6915 35.7595 8.04641 35.7595 7.93689C35.7595 7.65152 35.4054 7.32855 35.0926 7.32855C34.6045 7.32855 34.4942 7.55242 34.1779 9.18574C33.8024 11.125 33.746 11.1212 33.3417 9.12915C33.0123 7.50616 32.9206 7.32855 32.4123 7.32855C32.1321 7.32855 31.7584 7.65244 31.7584 7.89522C31.7584 7.98182 31.871 8.60816 32.0085 9.28717C32.146 9.96619 32.2586 10.5534 32.2586 10.592C32.2586 10.6307 31.9467 10.6624 31.5654 10.6624H30.8721L29.8444 8.0865C28.7463 5.33443 28.7193 5.2185 29.0565 4.70409C29.3631 4.2361 30.9667 3.46649 32.1752 3.20737C32.9277 3.04601 34.5353 3.04751 35.3254 3.21029ZM21.6569 6.08212C21.5795 6.12721 21.3816 6.44418 21.2168 6.78639C20.8282 7.59443 20.2834 8.13767 19.448 8.55048C18.9744 8.78443 18.7799 8.92887 18.724 9.08798C18.5714 9.52296 18.7079 9.71015 19.6272 10.3269C20.5577 10.9512 20.796 11.1976 21.2594 12.0151C21.7497 12.8798 22.2713 12.898 22.7144 12.0658C23.1167 11.3105 23.4407 10.9733 24.3752 10.3372C25.304 9.70499 25.4393 9.51979 25.2877 9.08798C25.2321 8.92962 25.0392 8.78535 24.5782 8.55757C23.745 8.14592 23.1775 7.58184 22.7936 6.78364C22.6289 6.44134 22.4242 6.1238 22.3389 6.07812C22.1435 5.97361 21.8399 5.97536 21.6569 6.08212ZM22.6145 8.79485L23.2598 9.42761L22.6605 9.98253C22.3308 10.2877 22.0362 10.5374 22.0059 10.5374C21.9755 10.5374 21.6816 10.2883 21.3528 9.98386L20.7549 9.43036L21.3595 8.80669C21.6921 8.46372 21.9653 8.17835 21.9667 8.17251C21.968 8.16676 22.2595 8.4468 22.6145 8.79485ZM14.3216 10.0827C14.2443 10.1278 14.0463 10.4448 13.8816 10.787C13.493 11.595 12.9482 12.1383 12.1128 12.5511C11.6392 12.785 11.4446 12.9295 11.3888 13.0886C11.2361 13.5235 11.3726 13.7107 12.2919 14.3275C13.2224 14.9518 13.4607 15.1982 13.9242 16.0157C14.4144 16.8804 14.936 16.8985 15.3791 16.0664C15.7814 15.3111 16.1054 14.9738 17.0399 14.3377C17.9687 13.7056 18.104 13.5204 17.9525 13.0886C17.8969 12.9302 17.7039 12.7859 17.243 12.5582C16.4097 12.1465 15.8423 11.5824 15.4583 10.7842C15.2936 10.4419 15.089 10.1244 15.0036 10.0787C14.8082 9.97419 14.5047 9.97594 14.3216 10.0827ZM36.3955 13.2252C36.3646 13.9014 36.3159 14.8015 36.2872 15.2255L36.235 15.9965H35.2016C34.2155 15.9965 34.1588 16.0058 33.9636 16.2011C33.6929 16.4717 33.6929 16.8548 33.9636 17.1254C34.1572 17.319 34.2199 17.33 35.1306 17.33C35.6599 17.33 36.0923 17.3582 36.0916 17.3925C36.0864 17.6416 35.7125 20.0469 35.4953 21.2283L35.2306 22.6679L33.767 22.6451L32.3035 22.6225L32.0765 21.4556C31.5922 18.9652 31.2605 16.0908 31.1266 13.2252L31.0692 11.9959H33.7604H36.4516L36.3955 13.2252ZM15.2792 12.7954L15.9245 13.4282L15.3252 13.9831C14.9955 14.2882 14.701 14.5379 14.6706 14.5379C14.6403 14.5379 14.3464 14.2889 14.0175 13.9844L13.4196 13.4309L14.0243 12.8073C14.3569 12.4643 14.63 12.1789 14.6315 12.1731C14.6328 12.1673 14.9243 12.4474 15.2792 12.7954ZM24.2148 19.8025C23.8286 20.0065 23.6627 20.1765 23.4964 20.5388C23.3555 20.8456 23.3431 21.1566 23.3414 24.4352C23.3398 27.5926 23.3249 27.9982 23.2108 27.9982C23.1399 27.9982 22.9899 28.0903 22.8774 28.2029L22.6727 28.4074V33.9991V39.5909L22.8774 39.7954L23.0819 40H26.0069H28.9319L29.1365 39.7954L29.3411 39.5909V33.9991V28.4074L29.1365 28.2029C29.024 28.0903 28.8758 27.9982 28.8072 27.9982C28.6993 27.9982 28.679 27.6115 28.6575 25.1437L28.6326 22.2891L28.413 21.8207C28.147 21.2535 27.6853 20.7263 27.2113 20.4486C26.7049 20.1518 25.1989 19.6631 24.8028 19.667C24.6169 19.6689 24.3523 19.7298 24.2148 19.8025ZM9.75267 20.0409C9.6839 20.0544 9.34632 20.1111 9.00248 20.167C5.36811 20.7578 2.32956 23.7188 1.53402 27.4449C1.17167 29.1418 1.34997 31.163 2.00364 32.7698L2.23253 33.3324H1.32088C0.450817 33.3324 0.39947 33.3422 0.192999 33.5486C-0.0175559 33.7592 -0.022057 33.7861 0.0228715 34.5696C0.108311 36.0582 0.657121 37.3039 1.67681 38.3235C2.33264 38.9792 3.04975 39.4215 3.95949 39.7313L4.62633 39.9583H10.6696H16.7128L17.3797 39.7313C19.6917 38.944 21.1771 36.9964 21.3163 34.5696C21.3612 33.7861 21.3567 33.7592 21.1462 33.5486C20.9397 33.3422 20.8883 33.3324 20.0183 33.3324H19.1066L19.3355 32.7698C20.145 30.7802 20.205 28.405 19.4985 26.3197C19.2105 25.4696 18.5223 24.2214 17.9416 23.4956C16.4559 21.639 14.3044 20.4282 11.8782 20.0833C11.345 20.0075 10.0546 19.9817 9.75267 20.0409ZM25.6216 21.2438C26.6131 21.5789 26.8707 21.7541 27.1263 22.2669L27.3406 22.6969V25.3475V27.9982H26.0069H24.6732V24.5533C24.6732 22.6585 24.6983 21.0833 24.7288 21.0528C24.8101 20.9715 24.826 20.9749 25.6216 21.2438ZM12.5989 21.571C14.1011 21.9602 15.2589 22.6374 16.3794 23.7822C17.7759 25.209 18.506 26.8398 18.6402 28.8317C18.7309 30.1798 18.4352 31.6889 17.8563 32.8323L17.6242 33.2907L16.8141 33.3145L16.0041 33.3384L16.3349 32.8266C17.0008 31.7963 17.2926 30.7316 17.2926 29.3318C17.2926 27.4571 16.6633 25.9104 15.3773 24.6246C14.0913 23.3387 12.5445 22.7095 10.6696 22.7095C9.2177 22.7095 8.19226 23.0032 7.0573 23.744C4.41927 25.4659 3.35725 28.6643 4.43453 31.6429C4.57098 32.0202 4.82938 32.5561 5.00884 32.8336L5.3351 33.3384L4.52505 33.3145L3.71501 33.2907L3.48286 32.8323C2.52386 30.9383 2.42242 28.4532 3.22138 26.4254C3.63607 25.3729 4.16121 24.5899 5.04477 23.707C6.37579 22.3771 7.78749 21.6736 9.71099 21.3818C10.2668 21.2975 11.9755 21.4094 12.5989 21.571ZM35.0732 30.9093C35.0512 37.7424 35.049 37.8234 34.8791 38.051C34.5542 38.4861 34.2854 38.6248 33.7672 38.6248C33.3748 38.6248 33.234 38.584 32.9932 38.4003C32.3936 37.943 32.4253 38.3675 32.4253 30.7986V23.9977H33.7604H35.0955L35.0732 30.9093ZM9.73483 24.3519C9.62247 24.5009 8.61054 25.8501 7.48616 27.3501C6.3617 28.8503 5.4177 30.0535 5.38828 30.0242C5.29125 29.9271 5.3356 28.8004 5.4598 28.2066C5.83865 26.3964 7.28394 24.8134 9.0835 24.2374C9.3369 24.1563 9.63314 24.0879 9.74175 24.0855L9.93914 24.081L9.73483 24.3519ZM12.6488 24.3932C12.9843 24.5255 13.1488 24.6324 13.1116 24.6939C13.0189 24.8469 6.99437 32.5242 6.83016 32.6985C6.6847 32.853 6.67678 32.8511 6.47515 32.6168C6.3617 32.4849 6.18499 32.2234 6.08246 32.0358L5.89599 31.6944L8.74891 27.8913C11.6003 24.0901 11.6019 24.0883 11.8651 24.1381C12.0098 24.1655 12.3625 24.2803 12.6488 24.3932ZM15.2583 26.6332C15.3936 26.868 15.5042 27.1042 15.5042 27.1581C15.5042 27.212 14.4325 28.6233 13.1226 30.2942L10.7409 33.3324H9.40833C8.36397 33.3324 8.08949 33.3099 8.13917 33.2282C8.17401 33.1709 9.57113 31.3827 11.2438 29.2543L14.2849 25.3847L14.6487 25.7955C14.8488 26.0215 15.1231 26.3984 15.2583 26.6332ZM15.8845 30.4238C15.7151 31.2456 15.2007 32.265 14.6556 32.8591L14.2122 33.3425L13.3322 33.3166L12.4522 33.2907L14.2074 31.0554L15.9626 28.82L15.9871 29.3138C16.0006 29.5852 15.9545 30.0848 15.8845 30.4238ZM28.0075 29.9985V30.6653H26.0069H24.0064V29.9985V29.3318H26.0069H28.0075V29.9985ZM28.0075 35.3326V38.6665H26.0069H24.0064V35.3326V31.9988H26.0069H28.0075V35.3326ZM6.69487 35.0807C6.61785 35.7312 6.7959 36.2196 7.28911 36.7107C7.5536 36.9741 7.83817 37.1679 8.05356 37.2316C8.52893 37.372 12.8102 37.372 13.2856 37.2316C13.501 37.1679 13.7856 36.9741 14.05 36.7107C14.5433 36.2196 14.7213 35.7312 14.6443 35.0807L14.5951 34.6659H17.3002C18.788 34.6659 20.0048 34.694 20.0041 34.7284C20.0034 34.7628 19.9463 35.0312 19.877 35.3249C19.5116 36.8748 18.2135 38.1728 16.6634 38.5381C15.8697 38.7252 5.46947 38.7252 4.67576 38.5381C2.95722 38.1331 1.74966 36.8157 1.37464 34.9368L1.32054 34.6659H4.03226H6.74405L6.69487 35.0807ZM13.1323 34.8705C13.2613 34.9994 13.3369 35.1703 13.3369 35.3326C13.3369 35.495 13.2613 35.6659 13.1323 35.7948L12.9278 35.9994H10.6696H8.4114L8.20685 35.7948C8.07782 35.6659 8.00221 35.495 8.00221 35.3326C8.00221 35.1703 8.07782 34.9994 8.20685 34.8705L8.4114 34.6659H10.6696H12.9278L13.1323 34.8705Z" fill="#B548AA"/>
</svg>
