<svg width="18" height="18" viewBox="0 0 18 18" fill="none" xmlns="http://www.w3.org/2000/svg">
<path d="M1.60577 4.73094L9 0.46188L16.3942 4.73094V13.2691L9 17.5381L1.60577 13.2691V4.73094Z" stroke="#410EAD" stroke-width="0.8"/>
<circle cx="9" cy="9" r="4" fill="#410EAD"/>
<path d="M10.4499 8.99542C10.6795 9.15333 10.9141 9.30907 11.1413 9.47131C11.3979 9.646 11.6271 9.84966 11.8228 10.077C11.8881 10.1568 11.9405 10.2441 11.9784 10.3366C11.9925 10.3631 11.9991 10.3922 11.9974 10.4214C11.9958 10.4506 11.986 10.4791 11.969 10.5042C11.9519 10.5294 11.9281 10.5505 11.8997 10.5658C11.8712 10.581 11.8388 10.59 11.8055 10.5918C11.6306 10.6178 11.4514 10.6112 11.2796 10.5723C10.768 10.4667 10.2711 10.3121 9.79797 10.1116L9.72389 10.0835C9.70908 10.196 9.69673 10.2998 9.68191 10.4079C9.64132 10.7952 9.54934 11.1771 9.40782 11.5457C9.3588 11.6648 9.29329 11.7781 9.21275 11.8832C9.08681 12.0411 8.93618 12.0368 8.80037 11.8832C8.68426 11.7319 8.60058 11.5633 8.55344 11.3857C8.54097 11.3546 8.53107 11.3228 8.52381 11.2905C8.52096 11.2542 8.5077 11.2191 8.48526 11.1885C8.46281 11.1578 8.43191 11.1327 8.39541 11.1153C8.3695 11.0972 8.348 11.0748 8.33218 11.0493C8.31636 11.0239 8.30654 10.9959 8.30332 10.967C8.30009 10.9382 8.30352 10.909 8.3134 10.8814C8.32328 10.8537 8.33942 10.8281 8.36084 10.806C8.38043 10.7829 8.39006 10.7546 8.388 10.7259C8.36331 10.5096 8.33367 10.3128 8.30651 10.1051C8.30651 10.1051 8.30651 10.0921 8.29417 10.0791L7.99291 10.1938C7.5729 10.3643 7.13102 10.4899 6.67677 10.568C6.52365 10.5875 6.36813 10.5875 6.21501 10.568C6.1785 10.5679 6.1427 10.5592 6.11131 10.5429C6.07992 10.5265 6.05407 10.5031 6.03645 10.4751C6.01883 10.4471 6.01006 10.4155 6.01107 10.3835C6.01207 10.3516 6.02281 10.3204 6.04216 10.2933C6.09248 10.191 6.15807 10.095 6.23724 10.0078C6.5211 9.71691 6.84451 9.45757 7.20026 9.23553C7.31879 9.15549 7.44719 9.07978 7.56572 8.99975L7.09408 8.69042C7.05951 8.66663 7.02494 8.645 6.99284 8.61904C6.97112 8.59806 6.94351 8.58243 6.91275 8.5737C6.88199 8.56497 6.84916 8.56345 6.81752 8.56929C6.78544 8.57176 6.75312 8.56823 6.72271 8.55892C6.6923 8.54962 6.6645 8.53476 6.64115 8.51533C6.6178 8.49589 6.59943 8.47233 6.58727 8.44621C6.5751 8.42008 6.56942 8.39199 6.57059 8.36379C6.57072 8.34343 6.56594 8.32328 6.55658 8.30464C6.54722 8.28601 6.53349 8.26931 6.51627 8.25563C6.38292 8.12368 6.24958 7.9939 6.12612 7.85546C6.07857 7.79621 6.04268 7.73041 6.01994 7.66078C6.00545 7.63471 5.99867 7.60588 6.00022 7.57692C6.00177 7.54796 6.0116 7.5198 6.0288 7.49504C6.04601 7.47028 6.07004 7.4497 6.0987 7.43519C6.12735 7.42068 6.1597 7.41272 6.19279 7.41202C6.34839 7.39255 6.50636 7.39255 6.66196 7.41202C7.19432 7.50844 7.71046 7.664 8.19786 7.87492L8.28429 7.90737C8.30404 7.75595 8.32133 7.61102 8.34355 7.47475C8.38756 7.10151 8.48461 6.73454 8.63246 6.38237C8.67725 6.28436 8.73528 6.19141 8.80531 6.10549C8.82401 6.07372 8.85233 6.04706 8.88718 6.02845C8.92202 6.00984 8.96205 6 9.00286 6C9.04367 6 9.08369 6.00984 9.11853 6.02845C9.15338 6.04706 9.1817 6.07372 9.2004 6.10549C9.32758 6.25981 9.41825 6.43485 9.46708 6.62032C9.59126 7.02109 9.6739 7.43086 9.71401 7.84464C9.71401 7.86627 9.71401 7.89007 9.71401 7.92035L9.80785 7.8879C9.99058 7.82085 10.1708 7.75163 10.356 7.68673C10.3734 7.68281 10.3888 7.67382 10.3995 7.66123C10.4103 7.64865 10.4159 7.63323 10.4153 7.61751C10.4181 7.57736 10.435 7.53896 10.4638 7.50758C10.4925 7.47621 10.5317 7.4534 10.5758 7.4423C10.6163 7.42792 10.6611 7.42542 10.7034 7.43516C10.7456 7.44491 10.7832 7.46639 10.8104 7.49638C10.8425 7.53099 10.8721 7.5245 10.9141 7.51801C11.1339 7.47907 11.3512 7.43365 11.5734 7.40769C11.6719 7.40067 11.7709 7.41096 11.8648 7.43798C11.8883 7.44207 11.9106 7.45054 11.9301 7.46281C11.9496 7.47508 11.9658 7.49087 11.9778 7.50912C11.9897 7.52736 11.997 7.54764 11.9993 7.56858C12.0015 7.58951 11.9986 7.61063 11.9907 7.63049C11.9562 7.73286 11.9037 7.82992 11.8351 7.91819C11.6301 8.15943 11.3874 8.37424 11.1141 8.55631C10.8993 8.70989 10.6721 8.84617 10.4499 8.99542ZM8.25466 9.66166C8.25466 9.58379 8.25466 9.50375 8.25466 9.42372C8.25364 9.41054 8.24937 9.39771 8.24212 9.38613C8.23487 9.37455 8.22482 9.36449 8.21268 9.35666C8.06699 9.27014 7.91883 9.18578 7.7682 9.10574C7.75544 9.09929 7.74096 9.09589 7.72623 9.09589C7.71149 9.09589 7.69701 9.09929 7.68425 9.10574C7.23737 9.35176 6.82897 9.64771 6.46935 9.98613C6.36685 10.0939 6.27592 10.2098 6.19773 10.3322C6.1434 10.4101 6.17056 10.4469 6.27674 10.4534C6.37533 10.461 6.47448 10.461 6.57306 10.4534C7.15377 10.3546 7.71626 10.1865 8.24478 9.95368C8.2549 9.94844 8.26351 9.94122 8.26993 9.9326C8.27635 9.92397 8.28042 9.91416 8.28182 9.90393C8.26947 9.81741 8.26947 9.73953 8.25466 9.66166ZM8.42998 7.96361C8.61764 8.04797 8.7905 8.12801 8.96582 8.20372C8.97942 8.20903 8.99414 8.21177 9.00903 8.21177C9.02392 8.21177 9.03864 8.20903 9.05224 8.20372C9.21028 8.13666 9.36584 8.06312 9.52388 7.98741C9.54125 7.98242 9.55579 7.9718 9.56452 7.95772C9.57324 7.94365 9.57549 7.92718 9.5708 7.9117C9.52882 7.6651 9.49919 7.41851 9.44733 7.17407C9.40342 6.88881 9.32052 6.6092 9.2004 6.34127C9.17177 6.28333 9.13618 6.22822 9.09422 6.17688C9.03002 6.099 8.9831 6.099 8.92384 6.17688C8.88147 6.23407 8.84432 6.2941 8.81272 6.35642C8.69366 6.62688 8.6108 6.90852 8.56579 7.19571C8.5164 7.45528 8.47196 7.70836 8.42998 7.96361ZM9.75105 9.66599C9.75105 9.73953 9.75105 9.81308 9.73624 9.8823C9.72142 9.95152 9.73624 9.94719 9.79303 9.96666C10.2525 10.1507 10.7292 10.2998 11.2178 10.4123C11.39 10.4441 11.5654 10.4608 11.7413 10.462C11.8426 10.462 11.8722 10.4166 11.8228 10.3387C11.7771 10.2619 11.7225 10.1894 11.6598 10.1224C11.2671 9.73634 10.8208 9.3948 10.3313 9.10574C10.3199 9.10044 10.3072 9.09766 10.2943 9.09766C10.2814 9.09766 10.2687 9.10044 10.2573 9.10574C10.1066 9.18794 9.95601 9.27014 9.81032 9.35666C9.79703 9.36629 9.78604 9.37813 9.77798 9.3915C9.76993 9.40486 9.76498 9.41949 9.7634 9.43453C9.75105 9.51241 9.75105 9.58812 9.75105 9.66599ZM10.3141 8.9262C10.5239 8.78344 10.7388 8.64283 10.9437 8.49358C11.2276 8.30409 11.4853 8.08632 11.7117 7.84464C11.7626 7.78184 11.8057 7.71439 11.8401 7.64347C11.8471 7.63394 11.8508 7.6229 11.851 7.61158C11.8512 7.60027 11.8477 7.58914 11.841 7.57946C11.8344 7.56978 11.8247 7.56193 11.8132 7.5568C11.8017 7.55168 11.7888 7.54948 11.7759 7.55046C11.7095 7.54292 11.6423 7.54292 11.5759 7.55046C11.3586 7.58507 11.1413 7.62833 10.9264 7.67159C10.9135 7.67594 10.9018 7.68261 10.892 7.69118C10.8822 7.69975 10.8746 7.71003 10.8696 7.72134C10.8563 7.7498 10.8363 7.77544 10.8108 7.79656C10.7852 7.81768 10.7549 7.83379 10.7217 7.84382C10.6885 7.85385 10.6533 7.85757 10.6183 7.85473C10.5834 7.85188 10.5495 7.84255 10.519 7.82734C10.4936 7.81886 10.4654 7.81886 10.44 7.82734C10.2178 7.90521 9.99552 7.98741 9.77328 8.06961C9.76273 8.07599 9.75393 8.08434 9.74753 8.09407C9.74112 8.1038 9.73726 8.11465 9.73624 8.12585C9.73624 8.27943 9.74859 8.43517 9.76093 8.58875C9.76263 8.60286 9.76769 8.6165 9.77577 8.62879C9.78385 8.64109 9.79478 8.65177 9.80785 8.66014C9.97082 8.72719 10.1338 8.81805 10.3141 8.9262ZM9.57326 10.0554C9.56206 10.0353 9.54503 10.0181 9.52388 10.0056C9.36831 9.93205 9.21028 9.86067 9.05224 9.78929C9.02451 9.77954 8.99355 9.77954 8.96582 9.78929C8.80778 9.85634 8.64974 9.92773 8.49665 10.0056C8.48457 10.013 8.47453 10.0227 8.46727 10.0339C8.46 10.0451 8.4557 10.0576 8.45467 10.0705C8.47689 10.2868 8.50406 10.4836 8.52875 10.6913C8.52783 10.7086 8.53407 10.7255 8.54633 10.739C8.55859 10.7526 8.57603 10.7617 8.59542 10.7649C8.63105 10.7758 8.66307 10.7943 8.68872 10.8186C8.71436 10.8429 8.73285 10.8723 8.74258 10.9042C8.75232 10.9362 8.753 10.9698 8.74456 11.002C8.73613 11.0343 8.71884 11.0642 8.69419 11.0893C8.66607 11.1109 8.64729 11.1403 8.64099 11.1726C8.6347 11.2049 8.64128 11.2381 8.65962 11.2667C8.66849 11.2894 8.6759 11.3125 8.68185 11.3359C8.73177 11.5066 8.81534 11.6684 8.92878 11.814C8.98557 11.881 9.02508 11.8853 9.07447 11.814C9.14792 11.7123 9.20915 11.6043 9.25719 11.4917C9.42385 11.0229 9.52744 10.5387 9.56586 10.0489L9.57326 10.0554ZM8.25466 8.32485C8.25466 8.25347 8.25466 8.17992 8.25466 8.10854C8.25924 8.09278 8.25665 8.07607 8.24744 8.06194C8.23822 8.04782 8.2231 8.03738 8.20527 8.03283C7.7633 7.83754 7.29894 7.68382 6.81999 7.57425C6.63331 7.53089 6.43988 7.51409 6.24711 7.5245C6.15822 7.5245 6.13846 7.55695 6.1681 7.63049C6.17496 7.65103 6.18492 7.67067 6.19773 7.6889C6.30973 7.86295 6.45411 8.0194 6.62492 8.1518C6.63513 8.15673 6.6466 8.15931 6.65825 8.15931C6.66991 8.15931 6.68138 8.15673 6.69159 8.1518C6.7317 8.13548 6.77635 8.12966 6.82015 8.13503C6.86396 8.1404 6.90506 8.15674 6.93852 8.18209C6.97487 8.20705 7.00167 8.24113 7.01534 8.27978C7.02902 8.31842 7.02892 8.3598 7.01507 8.3984C7.00832 8.41408 7.00808 8.43135 7.0144 8.44717C7.02072 8.46299 7.0332 8.47635 7.04964 8.48492L7.64474 8.88078C7.6571 8.89097 7.67344 8.89664 7.69042 8.89664C7.7074 8.89664 7.72374 8.89097 7.7361 8.88078C7.8571 8.80939 7.98303 8.73585 8.10156 8.67528C8.14642 8.66149 8.1841 8.634 8.20768 8.59784C8.23127 8.56169 8.23918 8.51929 8.22996 8.47844C8.2321 8.42698 8.23788 8.37569 8.24725 8.32485H8.25466ZM8.40528 9.00407C8.40528 9.08844 8.40528 9.1728 8.40528 9.25716C8.40314 9.27666 8.40792 9.29627 8.41897 9.3133C8.43002 9.33033 8.4468 9.34397 8.46702 9.35234C8.62752 9.43021 8.78803 9.51024 8.94606 9.59461C8.9632 9.60474 8.98341 9.61016 9.00409 9.61016C9.02477 9.61016 9.04498 9.60474 9.06212 9.59461C9.23003 9.50592 9.40288 9.42372 9.55598 9.33503C9.57161 9.32619 9.5848 9.31443 9.59462 9.30059C9.60444 9.28676 9.61064 9.27118 9.61277 9.255C9.61277 9.08411 9.61277 8.91322 9.61277 8.74234C9.61146 8.72928 9.60678 8.71665 9.59908 8.70541C9.59138 8.69416 9.58086 8.6846 9.56833 8.67744C9.39301 8.58443 9.21275 8.49574 9.03249 8.40922C9.01889 8.40391 9.00416 8.40116 8.98927 8.40116C8.97439 8.40116 8.95966 8.40391 8.94606 8.40922C8.77568 8.49358 8.60777 8.57794 8.4522 8.66879C8.43775 8.67878 8.42571 8.69119 8.41681 8.70531C8.40791 8.71942 8.40231 8.73495 8.40035 8.75099C8.39294 8.83535 8.39788 8.9262 8.39788 9.00407H8.40528ZM9.59055 9.88446L9.62512 9.45184L9.15595 9.68762L9.59055 9.88446ZM9.59055 8.10422L9.16336 8.30106L9.61771 8.53035L9.59055 8.10422ZM10.1782 8.99758L9.76834 8.78127V9.24202L10.1782 8.99758ZM8.84729 9.68978L8.40775 9.47347L8.42998 9.87365L8.84729 9.68978ZM8.82753 8.30539L8.41022 8.11719V8.51521L8.82753 8.30539ZM7.83981 8.99758L8.22502 9.22471V8.79209L7.83981 8.99758Z" fill="white"/>
<path d="M8.99482 8.63453C9.07442 8.63496 9.15209 8.65606 9.21801 8.69515C9.28393 8.73425 9.33513 8.7896 9.36514 8.85418C9.39515 8.91877 9.40262 8.98971 9.38661 9.05802C9.3706 9.12633 9.33183 9.18895 9.2752 9.23795C9.21856 9.28696 9.14661 9.32015 9.06844 9.33334C8.99027 9.34652 8.90939 9.33911 8.83604 9.31203C8.76268 9.28495 8.70013 9.23942 8.65631 9.1812C8.61249 9.12298 8.58936 9.05469 8.58985 8.98495C8.59017 8.93865 8.60091 8.89286 8.62143 8.85019C8.64196 8.80752 8.67188 8.76881 8.70948 8.73627C8.74709 8.70373 8.79164 8.67799 8.8406 8.66054C8.88956 8.64308 8.94196 8.63424 8.99482 8.63453Z" fill="white"/>
</svg>
