<svg width="276" height="303" viewBox="0 0 276 303" fill="none" xmlns="http://www.w3.org/2000/svg">
<path d="M204.694 151.269C215.258 159.243 226.048 167.108 236.499 175.301C248.305 184.123 258.846 194.408 267.849 205.888C270.853 209.918 273.261 214.329 275.005 218.996C275.656 220.334 275.957 221.805 275.881 223.281C275.806 224.757 275.357 226.192 274.573 227.463C273.789 228.734 272.695 229.801 271.384 230.572C270.074 231.343 268.587 231.794 267.054 231.886C259.007 233.201 250.762 232.866 242.859 230.903C219.326 225.566 196.472 217.763 174.707 207.635L171.299 206.215C170.618 211.896 170.05 217.139 169.368 222.601C167.501 242.16 163.27 261.443 156.76 280.06C154.505 286.072 151.491 291.795 147.786 297.101C141.993 305.075 135.064 304.857 128.817 297.101C123.476 289.459 119.627 280.945 117.458 271.976C116.885 270.408 116.429 268.801 116.095 267.17C115.964 265.336 115.354 263.564 114.322 262.017C113.289 260.471 111.868 259.199 110.189 258.322C108.997 257.41 108.008 256.278 107.28 254.992C106.552 253.706 106.101 252.292 105.953 250.835C105.804 249.378 105.962 247.907 106.417 246.509C106.871 245.112 107.613 243.817 108.598 242.701C109.5 241.538 109.943 240.106 109.848 238.659C108.712 227.735 107.349 217.794 106.1 207.308C106.1 207.308 106.1 206.652 105.532 205.997L91.6739 211.786C72.3535 220.396 52.0268 226.741 31.1315 230.684C24.0881 231.668 16.934 231.668 9.89054 230.684C8.21116 230.677 6.56431 230.239 5.12026 229.414C3.67621 228.589 2.48738 227.409 1.67671 225.994C0.86604 224.58 0.462945 222.983 0.509128 221.368C0.55531 219.754 1.04908 218.181 1.93938 216.811C4.25392 211.644 7.27143 206.795 10.9128 202.392C23.9704 187.704 38.8473 174.607 55.2121 163.394C60.6643 159.352 66.571 155.529 72.0232 151.487L50.3279 135.866C48.7376 134.665 47.1474 133.572 45.6708 132.261C44.6715 131.202 43.4012 130.413 41.9864 129.972C40.5715 129.531 39.0613 129.454 37.606 129.749C36.1301 129.874 34.6434 129.695 33.2447 129.226C31.8459 128.756 30.567 128.005 29.4929 127.024C28.4187 126.043 27.5738 124.853 27.0142 123.533C26.4547 122.214 26.1932 120.795 26.2472 119.371C26.2529 118.343 26.0334 117.325 25.6028 116.384C25.1723 115.443 24.5404 114.6 23.7483 113.91C17.6145 107.246 11.4808 100.692 5.80137 93.7006C3.61422 90.7085 1.96331 87.3855 0.917083 83.8692C0.250621 82.5529 -0.0612954 81.0967 0.00996166 79.6343C0.0812187 78.1719 0.533376 76.7501 1.32491 75.4995C2.11644 74.249 3.22198 73.2097 4.54002 72.4771C5.85806 71.7445 7.34636 71.3421 8.86825 71.3069C16.0258 70.3239 23.2924 70.3239 30.45 71.3069C54.9389 76.1763 78.6813 84.0321 101.102 94.6837L105.077 96.3223C105.986 88.6757 106.781 81.3567 107.803 74.4748C109.828 55.626 114.292 37.0942 121.093 19.3098C123.153 14.3603 125.823 9.66607 129.044 5.32739C129.904 3.72261 131.207 2.37658 132.81 1.43685C134.413 0.497123 136.254 0 138.131 0C140.009 0 141.85 0.497123 143.453 1.43685C145.055 2.37658 146.358 3.72261 147.218 5.32739C153.069 13.1205 157.24 21.96 159.486 31.3259C165.198 51.565 168.999 72.2583 170.845 93.1544C170.845 94.2468 170.845 95.4484 170.845 96.9777L175.161 95.3391C183.567 91.9528 191.858 88.4572 200.378 85.1801C201.177 84.9819 201.883 84.5277 202.379 83.8924C202.874 83.257 203.13 82.4783 203.104 81.6845C203.233 79.6567 204.012 77.7173 205.334 76.1328C206.656 74.5484 208.456 73.3967 210.487 72.8362C212.351 72.1099 214.41 71.9835 216.355 72.4757C218.3 72.968 220.027 74.0525 221.278 75.5671C222.754 77.3149 224.117 76.9872 226.048 76.6595C236.158 74.6932 246.154 72.3992 256.376 71.0884C260.906 70.7336 265.463 71.2536 269.78 72.6177C270.863 72.8245 271.887 73.2522 272.784 73.8719C273.681 74.4917 274.429 75.2892 274.978 76.2106C275.527 77.1319 275.864 78.1558 275.967 79.2131C276.069 80.2705 275.935 81.3367 275.573 82.3399C273.983 87.5096 271.569 92.4108 268.417 96.8685C258.985 109.051 247.82 119.899 235.249 129.094C225.367 136.849 214.917 143.731 204.694 151.269ZM103.714 184.914C103.714 180.981 103.714 176.94 103.714 172.898C103.668 172.232 103.471 171.585 103.137 171C102.804 170.415 102.342 169.907 101.783 169.511C95.0815 165.142 88.2663 160.882 81.3374 156.84C80.7503 156.514 80.0843 156.342 79.4064 156.342C78.7284 156.342 78.0625 156.514 77.4754 156.84C56.9192 169.264 38.1327 184.21 21.5901 201.3C16.8749 206.743 12.6923 212.594 9.09543 218.778C6.5965 222.71 7.84596 224.567 12.7302 224.895C17.265 225.278 21.826 225.278 26.3608 224.895C53.0736 219.907 78.9481 211.416 103.26 199.661C103.725 199.396 104.121 199.032 104.417 198.596C104.712 198.16 104.899 197.665 104.964 197.149C104.396 192.779 104.396 188.847 103.714 184.914ZM111.779 99.1624C120.412 103.423 128.363 107.465 136.428 111.288C137.053 111.556 137.73 111.694 138.415 111.694C139.1 111.694 139.777 111.556 140.403 111.288C147.673 107.901 154.829 104.187 162.098 100.364C162.898 100.112 163.567 99.5759 163.968 98.865C164.369 98.1541 164.472 97.3225 164.257 96.5407C162.326 84.0877 160.963 71.6346 158.577 59.2907C156.557 44.8848 152.744 30.7646 147.218 17.2343C145.901 14.308 144.264 11.5249 142.334 8.93224C139.381 4.99969 137.223 4.99969 134.497 8.93224C132.548 11.8207 130.839 14.8523 129.385 17.999C123.909 31.6574 120.097 45.8804 118.026 60.3831C115.755 73.4916 113.71 86.2724 111.779 99.1624ZM172.549 185.132C172.549 188.846 172.549 192.561 171.867 196.056C171.185 199.552 171.867 199.333 174.479 200.316C195.615 209.61 217.543 217.138 240.02 222.819C247.939 224.428 256.006 225.27 264.1 225.332C268.758 225.332 270.121 223.038 267.849 219.105C265.747 215.226 263.235 211.565 260.352 208.182C242.286 188.685 221.757 171.438 199.242 156.84C198.717 156.572 198.132 156.432 197.538 156.432C196.944 156.432 196.359 156.572 195.834 156.84C188.905 160.991 181.976 165.142 175.275 169.511C174.663 169.998 174.158 170.596 173.787 171.271C173.417 171.945 173.189 172.684 173.116 173.444C172.549 177.377 172.549 181.2 172.549 185.132ZM198.447 147.773C208.102 140.563 217.984 133.463 227.412 125.926C240.469 116.357 252.324 105.359 262.737 93.1544C265.081 89.9827 267.062 86.5766 268.644 82.9953C268.964 82.5142 269.138 81.9563 269.146 81.385C269.154 80.8136 268.995 80.2516 268.688 79.7626C268.38 79.2737 267.936 78.8773 267.407 78.6185C266.877 78.3596 266.283 78.2486 265.691 78.2981C262.637 77.9173 259.544 77.9173 256.49 78.2981C246.494 80.0459 236.499 82.2306 226.616 84.4154C226.022 84.6348 225.483 84.9719 225.033 85.4047C224.583 85.8375 224.232 86.3564 224.004 86.9279C223.392 88.3648 222.468 89.6597 221.295 90.7262C220.121 91.7927 218.724 92.6064 217.198 93.1129C215.672 93.6195 214.051 93.8072 212.443 93.6637C210.835 93.5201 209.278 93.0486 207.874 92.2805C206.704 91.8522 205.41 91.8522 204.24 92.2805C194.017 96.213 183.794 100.364 173.571 104.515C173.086 104.837 172.681 105.259 172.386 105.751C172.092 106.242 171.914 106.79 171.867 107.355C171.867 115.111 172.435 122.976 173.003 130.732C173.081 131.445 173.314 132.133 173.685 132.754C174.057 133.375 174.56 133.914 175.161 134.337C182.658 137.723 190.155 142.311 198.447 147.773ZM164.37 204.795C163.855 203.781 163.071 202.914 162.098 202.283C154.942 198.569 147.673 194.964 140.403 191.359C139.127 190.867 137.703 190.867 136.428 191.359C129.158 194.745 121.888 198.35 114.846 202.283C114.29 202.656 113.828 203.144 113.494 203.711C113.16 204.278 112.962 204.91 112.915 205.56C113.937 216.484 115.187 226.424 116.322 236.911C116.28 237.782 116.567 238.638 117.131 239.321C117.695 240.004 118.497 240.467 119.389 240.625C121.028 241.18 122.501 242.112 123.681 243.338C124.861 244.565 125.711 246.05 126.159 247.664C126.607 249.279 126.638 250.974 126.25 252.603C125.862 254.232 125.067 255.745 123.933 257.011C122.639 258.102 121.775 259.587 121.486 261.218C121.196 262.849 121.499 264.526 122.343 265.968C122.75 267.114 123.092 268.281 123.365 269.464C125.661 278.085 129.505 286.255 134.724 293.605C137.336 296.992 139.154 297.21 141.425 293.605C144.804 288.474 147.621 283.019 149.831 277.329C157.497 253.656 162.262 229.203 164.029 204.467L164.37 204.795ZM103.714 117.405C103.714 113.8 103.714 110.086 103.714 106.481C103.925 105.685 103.806 104.841 103.382 104.128C102.958 103.415 102.263 102.888 101.442 102.658C81.1116 92.7959 59.7514 85.0331 37.7196 79.4997C29.1321 77.31 20.2346 76.4617 11.3672 76.9872C7.27803 76.9872 6.36933 78.6258 7.73239 82.3399C8.04804 83.377 8.50644 84.369 9.09543 85.2893C14.2475 94.0788 20.889 101.98 28.7461 108.666C29.2159 108.915 29.7434 109.045 30.2796 109.045C30.8158 109.045 31.3433 108.915 31.813 108.666C33.6584 107.842 35.712 107.548 37.727 107.819C39.742 108.09 41.6327 108.916 43.1718 110.195C44.8439 111.456 46.0766 113.177 46.7057 115.129C47.3348 117.08 47.3304 119.17 46.693 121.119C46.3825 121.911 46.3717 122.783 46.6624 123.582C46.9532 124.381 47.527 125.056 48.2833 125.489L75.658 145.479C76.2268 145.994 76.9784 146.28 77.7593 146.28C78.5403 146.28 79.2919 145.994 79.8607 145.479C85.4265 141.874 91.2195 138.16 96.6718 135.102C98.7353 134.405 100.469 133.017 101.553 131.191C102.638 129.365 103.002 127.224 102.578 125.161C102.677 122.562 102.942 119.972 103.373 117.405H103.714ZM110.643 151.706C110.643 155.966 110.643 160.226 110.643 164.486C110.544 165.471 110.764 166.461 111.272 167.322C111.781 168.182 112.553 168.87 113.483 169.293C120.866 173.226 128.249 177.267 135.519 181.528C136.307 182.039 137.237 182.313 138.188 182.313C139.139 182.313 140.069 182.039 140.857 181.528C148.581 177.049 156.533 172.898 163.575 168.419C164.294 167.973 164.901 167.379 165.353 166.68C165.804 165.981 166.09 165.195 166.188 164.377C166.188 155.748 166.188 147.118 166.188 138.488C166.127 137.828 165.912 137.191 165.558 136.623C165.203 136.055 164.72 135.572 164.143 135.211C156.078 130.514 147.786 126.035 139.494 121.665C138.869 121.397 138.192 121.259 137.507 121.259C136.822 121.259 136.144 121.397 135.519 121.665C127.681 125.926 119.957 130.186 112.801 134.774C112.136 135.278 111.583 135.905 111.173 136.618C110.764 137.331 110.506 138.115 110.416 138.925C110.075 143.185 110.302 147.773 110.302 151.706H110.643ZM165.165 196.165L166.756 174.318L145.174 186.225L165.165 196.165ZM165.165 106.263L145.515 116.204L166.415 127.783L165.165 106.263ZM192.199 151.378L173.344 140.454V163.722L192.199 151.378ZM130.975 186.334L110.757 175.41L111.779 195.619L130.975 186.334ZM130.067 116.422L110.87 106.918V127.018L130.067 116.422ZM84.6314 151.378L102.351 162.848V141L84.6314 151.378Z" fill="white"/>
<path d="M137.762 132.918C141.423 132.94 144.996 134.005 148.028 135.98C151.061 137.954 153.416 140.749 154.796 144.011C156.177 147.273 156.521 150.855 155.784 154.305C155.048 157.754 153.264 160.916 150.659 163.391C148.054 165.866 144.744 167.542 141.148 168.208C137.553 168.874 133.832 168.5 130.458 167.132C127.083 165.764 124.206 163.465 122.19 160.525C120.175 157.585 119.111 154.136 119.133 150.615C119.148 148.277 119.642 145.964 120.586 143.809C121.53 141.654 122.906 139.699 124.636 138.056C126.366 136.413 128.416 135.113 130.668 134.232C132.92 133.35 135.33 132.904 137.762 132.918Z" fill="white"/>
</svg>
