<svg width="52" height="53" viewBox="0 0 52 53" fill="none" xmlns="http://www.w3.org/2000/svg">
<path fill-rule="evenodd" clip-rule="evenodd" d="M24.1182 0.0697933C18.2015 0.814542 13.1714 4.19393 10.2264 9.40253C8.88335 11.778 8.09629 14.4955 7.89788 17.4424L7.82531 18.5199H6.66382C4.78839 18.5199 3.62864 18.9404 2.50152 20.029C1.8033 20.7035 1.28776 21.5957 1.04014 22.5582C0.32685 25.3315 2.05736 28.2205 4.87744 28.9643C5.34856 29.0886 6.15625 29.1291 8.15827 29.1291H10.814L11.0818 28.8578L11.3497 28.5866V23.8245V19.0624L11.0818 18.7912C10.8602 18.5666 10.7068 18.5199 10.1927 18.5199H9.57142L9.64509 17.4581C9.85397 14.4487 10.7993 11.6407 12.4523 9.11917C13.3678 7.72261 15.5272 5.53523 16.9037 4.60979C19.7693 2.68354 22.7411 1.77711 26.1917 1.77711C29.6698 1.77711 32.5899 2.66708 35.4749 4.60658C36.8526 5.53279 39.0142 7.7204 39.9262 9.11165C41.5721 11.6225 42.5307 14.4678 42.7383 17.4581L42.8119 18.5199H42.1907C41.6765 18.5199 41.5232 18.5666 41.3016 18.7912L41.0336 19.0624V23.8245V28.5866L41.3016 28.8578C41.5215 29.0806 41.6775 29.1291 42.1746 29.1291H42.7798V30.626C42.7798 32.0681 42.7699 32.133 42.5118 32.3943L42.244 32.6656H38.9238H35.6036L35.4664 32.3303C35.2801 31.875 34.4842 31.186 33.9611 31.0273C33.4004 30.8572 31.1979 30.8601 30.6242 31.0317C30.0247 31.2111 29.1207 32.1266 28.9436 32.7336C28.6415 33.7691 28.8543 34.5949 29.6256 35.3792C30.3523 36.1183 30.7877 36.2382 32.539 36.182C33.6523 36.1462 33.9629 36.0974 34.3324 35.9005C34.816 35.6428 35.4054 35.0283 35.5202 34.6621C35.5905 34.4379 35.6522 34.4338 38.9275 34.4338C41.2276 34.4338 42.4028 34.392 42.7125 34.2994C43.312 34.12 44.216 33.2045 44.3932 32.5975C44.4689 32.3379 44.5259 31.4959 44.5259 30.6359V29.1291H45.7034C47.5963 29.1291 48.7513 28.712 49.8818 27.62C52.0317 25.5434 52.0317 22.1056 49.8818 20.029C48.7547 18.9404 47.595 18.5199 45.7196 18.5199H44.5581L44.4855 17.4424C44.1679 12.7255 42.3915 8.7379 39.1272 5.41477C36.4121 2.65061 33.1081 0.905715 29.3019 0.225838C28.1161 0.0139839 25.2473 -0.0723267 24.1182 0.0697933ZM22.9674 3.76138C22.7045 4.02749 22.6995 4.06684 22.6995 5.86455C22.6995 7.42511 22.6741 7.70637 22.5287 7.76295C22.4106 7.8087 21.9602 7.43163 21.0725 6.54377C19.9428 5.41388 19.7426 5.25828 19.4185 5.25828C19.0851 5.25828 18.8481 5.46251 16.9458 7.38875C15.0436 9.31511 14.842 9.55514 14.842 9.89276C14.842 10.221 14.9956 10.4237 16.1114 11.5677C16.9881 12.4666 17.3605 12.9227 17.3153 13.0423C17.2594 13.1896 16.9817 13.2152 15.4407 13.2152C13.6654 13.2152 13.6266 13.2203 13.3638 13.4865L13.0958 13.7577V16.7517V19.7456L13.3638 20.0168C13.6266 20.283 13.6654 20.2881 15.4407 20.2881C16.9817 20.2881 17.2594 20.3137 17.3153 20.461C17.3605 20.5806 16.9881 21.0367 16.1114 21.9356C14.9956 23.0796 14.842 23.2823 14.842 23.6105C14.842 23.9482 15.0436 24.1882 16.9458 26.1146C18.8481 28.0408 19.0851 28.245 19.4185 28.245C19.7426 28.245 19.9428 28.0894 21.0725 26.9595C21.9602 26.0717 22.4106 25.6946 22.5287 25.7404C22.6741 25.7969 22.6995 26.0782 22.6995 27.6388C22.6995 29.4365 22.7045 29.4758 22.9674 29.7419L23.2352 30.0132H26.1917H29.1482L29.416 29.7419C29.6789 29.4758 29.6839 29.4365 29.6839 27.6388C29.6839 26.0782 29.7092 25.7969 29.8547 25.7404C29.9728 25.6946 30.4232 26.0717 31.3108 26.9595C32.4406 28.0894 32.6407 28.245 32.9649 28.245C33.2983 28.245 33.5353 28.0408 35.4376 26.1146C37.3397 24.1882 37.5414 23.9482 37.5414 23.6105C37.5414 23.2823 37.3878 23.0796 36.272 21.9356C35.3952 21.0367 35.0229 20.5806 35.068 20.461C35.1239 20.3137 35.4017 20.2881 36.9427 20.2881C38.718 20.2881 38.7568 20.283 39.0196 20.0168L39.2875 19.7456V16.7517V13.7577L39.0196 13.4865C38.7568 13.2203 38.718 13.2152 36.9427 13.2152C35.4017 13.2152 35.1239 13.1896 35.068 13.0423C35.0229 12.9227 35.3952 12.4666 36.272 11.5677C37.3878 10.4237 37.5414 10.221 37.5414 9.89276C37.5414 9.55514 37.3397 9.31511 35.4376 7.38875C33.5353 5.46251 33.2983 5.25828 32.9649 5.25828C32.6407 5.25828 32.4406 5.41388 31.3108 6.54377C30.4232 7.43163 29.9728 7.8087 29.8547 7.76295C29.7092 7.70637 29.6839 7.42511 29.6839 5.86455C29.6839 4.06684 29.6789 4.02749 29.416 3.76138L29.1482 3.49007H26.1917H23.2352L22.9674 3.76138ZM27.9378 6.90979C27.9378 8.8546 27.9675 8.91649 29.1383 9.40706C30.4642 9.96283 30.3957 9.98394 31.7926 8.58826L33.02 7.36201L34.2412 8.60329L35.4625 9.84458L34.2522 11.0828C32.8745 12.4923 32.8951 12.4236 33.4445 13.7678C33.9289 14.9534 33.99 14.9834 35.9105 14.9834H37.5414V16.7517V18.5199H35.9105C33.99 18.5199 33.9289 18.5499 33.4445 19.7355C32.8951 21.0797 32.8745 21.0111 34.2522 22.4205L35.4625 23.6587L34.2412 24.9L33.02 26.1413L31.7926 24.915C30.3957 23.5194 30.4642 23.5405 29.1383 24.0963C27.9675 24.5868 27.9378 24.6487 27.9378 26.5935V28.245H26.1917H24.4456V26.5935C24.4456 24.6487 24.4159 24.5868 23.2451 24.0963C21.9177 23.5399 21.9855 23.519 20.5936 24.9142L19.3709 26.1398L18.1452 24.903L16.9194 23.6664L18.1303 22.4234C19.5086 21.0088 19.4877 21.0782 18.9389 19.7355C18.4544 18.5499 18.3933 18.5199 16.4728 18.5199H14.842V16.7517V14.9834H16.4728C18.3933 14.9834 18.4544 14.9534 18.9389 13.7678C19.4877 12.4251 19.5086 12.4945 18.1303 11.0799L16.9194 9.83695L18.1452 8.60031L19.3709 7.36356L20.5936 8.58915C21.9855 9.98427 21.9177 9.96338 23.2451 9.40706C24.4159 8.91649 24.4456 8.8546 24.4456 6.90979V5.25828H26.1917H27.9378V6.90979ZM24.8943 11.6217C22.1273 12.3753 20.4153 15.2766 21.1204 18.0179C21.7961 20.6447 24.2948 22.3611 26.8914 21.9822C29.2132 21.6436 31.0214 19.8191 31.3543 17.4792C31.8774 13.8025 28.4149 10.6629 24.8943 11.6217ZM27.665 13.5556C30.2542 14.7998 30.3489 18.4331 27.8287 19.837C27.1707 20.2034 27.0521 20.2319 26.1917 20.2304C25.3455 20.2288 25.2035 20.1956 24.5738 19.8518C21.8596 18.3697 22.178 14.4683 25.1009 13.3928C25.7896 13.1394 26.9526 13.2132 27.665 13.5556ZM6.11139 23.8371V27.386L5.59302 27.3084C4.90952 27.2062 3.88248 26.645 3.4848 26.1564C2.8741 25.4062 2.68487 24.8545 2.68487 23.8245C2.68487 23.0558 2.73288 22.7848 2.94951 22.3326C3.49659 21.1904 4.69748 20.3532 5.86585 20.2994L6.11139 20.2881V23.8371ZM9.60362 23.8245V27.3609H8.73056H7.85751V23.8245V20.2881H8.73056H9.60362V23.8245ZM44.5259 23.8245V27.3609H43.6528H42.7798V23.8245V20.2881H43.6528H44.5259V23.8245ZM47.7439 20.6306C48.4569 20.9699 48.9348 21.4377 49.3333 22.1861C49.6735 22.825 49.7056 22.9659 49.7056 23.8245C49.7056 24.6824 49.6734 24.8243 49.3348 25.4602C49.1308 25.8432 48.8177 26.2812 48.6392 26.4334C48.1518 26.8486 47.3652 27.22 46.787 27.3078L46.272 27.386V23.8245V20.263L46.7857 20.341C47.0683 20.3839 47.4995 20.5142 47.7439 20.6306ZM33.7813 32.9369C33.9502 33.1078 34.0492 33.3344 34.0492 33.5497C34.0492 33.7649 33.9502 33.9915 33.7813 34.1625C33.5291 34.4179 33.4426 34.4338 32.3031 34.4338C31.1635 34.4338 31.0771 34.4179 30.8249 34.1625C30.6559 33.9915 30.557 33.7649 30.557 33.5497C30.557 33.3344 30.6559 33.1078 30.8249 32.9369C31.0771 32.6815 31.1635 32.6656 32.3031 32.6656C33.4426 32.6656 33.5291 32.6815 33.7813 32.9369ZM7.25237 35.5892C7.03236 35.8119 6.98445 35.9699 6.98445 36.4733V37.0861H3.76014H0.535729L0.267919 37.3574L0 37.6286V44.1589V50.6893L0.267919 50.9605L0.535729 51.2318H3.76014H6.98445V51.8446C6.98445 52.348 7.03236 52.506 7.25237 52.7287L7.52018 53H11.3497H15.1793L15.4471 52.7287C15.681 52.492 15.715 52.3582 15.715 51.6775V50.8975L16.4914 51.2935C18.1181 52.123 18.0373 52.1161 26.1273 52.1142C33.9584 52.1125 34.088 52.1037 35.279 51.4935C35.593 51.3326 38.2317 49.8082 41.1428 48.1058C44.0539 46.4035 47.3688 44.4657 48.5092 43.7997C51.5727 42.0106 52.0025 41.497 52 39.6279C51.9985 38.4954 51.857 38.073 51.2245 37.3116C50.3606 36.2719 48.5784 35.818 47.3947 36.336C47.2273 36.4093 45.1374 37.6085 42.7503 39.001L38.4101 41.5328L37.8838 41.0342C37.5943 40.76 37.2147 40.4613 37.0402 40.3703C36.8657 40.2795 33.6536 39.3711 29.9022 38.3518C21.3851 36.0375 22.064 36.113 18.3069 37.0635L15.715 37.7193V36.7899C15.715 35.9503 15.689 35.8341 15.4471 35.5892L15.1793 35.3179H11.3497H7.52018L7.25237 35.5892ZM13.9689 44.1589V51.2318H11.3497H8.73056V44.1589V37.0861H11.3497H13.9689V44.1589ZM49.491 38.178C49.6709 38.283 49.933 38.5403 50.0736 38.7498C50.2844 39.0638 50.3218 39.2383 50.2867 39.7456C50.2597 40.1371 50.1612 40.4786 50.0159 40.685C49.857 40.9107 47.4897 42.353 42.2283 45.4298C38.0707 47.8611 34.4437 49.9498 34.1681 50.0714C33.6868 50.2838 33.3862 50.2938 26.4645 50.3276C21.1862 50.3533 19.1014 50.3276 18.6616 50.2311C18.3315 50.1587 17.5335 49.8317 16.8882 49.5044L15.715 48.9091V44.227V39.5449L18.3872 38.8681C20.3311 38.3757 21.2587 38.1912 21.7909 38.1912C22.3908 38.1912 23.7031 38.5105 29.077 39.9635C32.6821 40.9384 35.8411 41.8131 36.0973 41.9073C36.7416 42.1447 37.1315 42.6883 37.183 43.4209C37.2554 44.4527 36.524 45.2651 35.5242 45.2633C35.2831 45.263 32.7092 44.6165 29.8042 43.8266C26.8992 43.0369 24.438 42.3907 24.335 42.3907C24.2319 42.3907 24.0182 42.4938 23.8601 42.6198C23.4973 42.9087 23.4575 43.5772 23.7851 43.8775C24.0243 44.0966 24.0728 44.1109 30.3889 45.8196C34.6388 46.9693 35.0234 47.0547 35.7364 47.0073C37.4566 46.893 38.7613 45.6025 38.9501 43.8281L39.0147 43.2209L40.5971 42.2966C46.5793 38.8024 47.9952 37.989 48.1852 37.9372C48.5075 37.8494 49.1226 37.9628 49.491 38.178ZM6.98445 44.1589V49.4636H4.36528H1.74611V44.1589V38.8543H4.36528H6.98445V44.1589ZM10.7446 47.9667C10.5105 48.2036 10.4767 48.3369 10.4767 49.0215C10.4767 49.7062 10.5105 49.8394 10.7446 50.0764C10.9134 50.2474 11.1371 50.3477 11.3497 50.3477C11.5623 50.3477 11.786 50.2474 11.9549 50.0764C12.189 49.8394 12.2228 49.7062 12.2228 49.0215C12.2228 48.3369 12.189 48.2036 11.9549 47.9667C11.786 47.7956 11.5623 47.6954 11.3497 47.6954C11.1371 47.6954 10.9134 47.7956 10.7446 47.9667Z" fill="#0073A8"/>
</svg>
