<svg width="50" height="50" viewBox="0 0 50 50" fill="none" xmlns="http://www.w3.org/2000/svg">
<path fill-rule="evenodd" clip-rule="evenodd" d="M6.69909 0.24773C6.49587 0.45106 6.45161 0.595358 6.45161 1.05499V1.61453H3.47329H0.494859L0.24748 1.86226L0 2.10989V4.84359V7.5773L0.24748 7.82492L0.494859 8.07265H3.47329H6.45161V8.63219C6.45161 9.31564 6.74204 9.68719 7.27621 9.68719C7.57157 9.68719 7.84002 9.45288 9.85131 7.43946C11.9104 5.37841 12.0968 5.16287 12.0968 4.84359C12.0968 4.52432 11.9104 4.30878 9.85131 2.24773C7.84002 0.234309 7.57157 0 7.27621 0C7.06058 0 6.86089 0.085671 6.69909 0.24773ZM22.0217 0.24773C21.8015 0.468012 21.774 0.582341 21.7728 1.28204L21.7714 2.06862L21.1931 2.25005C20.8751 2.34985 20.2638 2.59526 19.8346 2.79536L19.0542 3.15913L18.5049 2.63915C18.0428 2.20161 17.8951 2.11907 17.5745 2.11907C17.2143 2.11907 17.0896 2.22301 15.3003 4.01403C13.5111 5.80515 13.4073 5.92997 13.4073 6.29051C13.4073 6.6114 13.4897 6.75933 13.9268 7.2219L14.4463 7.77175L14.0829 8.55288C13.883 8.98254 13.6378 9.59445 13.5381 9.91282L13.3569 10.4916L12.5711 10.493C11.8721 10.4942 11.7579 10.5218 11.5378 10.7422C11.4017 10.8784 11.2903 11.06 11.2903 11.1458C11.2903 11.2829 10.9302 11.3017 8.30302 11.3017C6.25222 11.3017 5.18569 11.3402 4.90081 11.4244C4.34708 11.5882 3.512 12.4241 3.34839 12.9784C3.25464 13.296 3.22581 16.7595 3.22581 27.6858V41.9778H2.65786C1.78387 41.9778 1.32409 42.1594 0.750504 42.7312C0.0636088 43.4158 -0.0339717 43.7949 0.0153226 45.5885C0.053125 46.9684 0.0594758 47.0016 0.428528 47.7491C0.880242 48.664 1.46532 49.2368 2.40121 49.6806L3.0746 50H25H46.9254L47.5988 49.6806C48.5347 49.2368 49.1198 48.664 49.5715 47.7491C49.9405 47.0016 49.9469 46.9684 49.9847 45.5885C50.0316 43.8798 49.9338 43.4622 49.3289 42.7888C48.8129 42.2142 48.2392 41.9778 47.3611 41.9778H46.7742V27.6858C46.7742 16.9363 46.7445 13.2946 46.6543 12.9933C46.5884 12.7732 46.3384 12.3747 46.0987 12.1078C45.4025 11.3327 45.2343 11.3017 41.7159 11.3017C39.0716 11.3017 38.7097 11.2829 38.7097 11.1458C38.7097 11.06 38.5983 10.8784 38.4622 10.7422C38.2421 10.5218 38.1279 10.4942 37.4289 10.493L36.6431 10.4916L36.4619 9.91282C36.3622 9.59445 36.117 8.98254 35.9171 8.55288L35.5537 7.77175L36.0732 7.2219C36.5103 6.75933 36.5927 6.6114 36.5927 6.29051C36.5927 5.92997 36.4889 5.80515 34.6997 4.01403C32.9104 2.22301 32.7857 2.11907 32.4255 2.11907C32.105 2.11907 31.9572 2.20161 31.496 2.63824L30.9476 3.15742L30.0571 2.74329C29.5672 2.51544 28.9548 2.27235 28.6962 2.20313L28.2258 2.07719V1.28628C28.2258 0.58113 28.199 0.468517 27.9783 0.24773L27.7309 0H25H22.2691L22.0217 0.24773ZM40.1487 2.24773C38.0896 4.30878 37.9032 4.52432 37.9032 4.84359C37.9032 5.16287 38.0896 5.37841 40.1487 7.43946C42.16 9.45288 42.4284 9.68719 42.7238 9.68719C43.258 9.68719 43.5484 9.31564 43.5484 8.63219V8.07265H46.5267H49.5051L49.7525 7.82492L50 7.5773V4.84359V2.10989L49.7525 1.86226L49.5051 1.61453H46.5267H43.5484V1.05499C43.5484 0.371544 43.258 0 42.7238 0C42.4284 0 42.16 0.234309 40.1487 2.24773ZM26.6129 2.2782C26.6129 2.87719 26.6416 2.97064 26.9076 3.23683C27.0697 3.39909 27.2885 3.53179 27.3939 3.53179C27.7597 3.53179 29.0679 4.03744 30.0209 4.54712C31.1457 5.14874 31.2846 5.1442 31.9582 4.48476L32.4143 4.03814L33.5472 5.17538L34.68 6.31261L34.2294 6.7553C33.5705 7.40272 33.5652 7.56993 34.1688 8.70081C34.6766 9.65197 35.1815 10.9615 35.1815 11.3271C35.1815 11.4327 35.314 11.6518 35.4761 11.814C35.742 12.0802 35.8354 12.109 36.4338 12.109H37.0968V13.7235V15.338H36.4338C35.8354 15.338 35.742 15.3668 35.4761 15.633C35.314 15.7953 35.1815 16.0143 35.1815 16.1199C35.1815 16.4856 34.6766 17.7951 34.1688 18.7462C33.5652 19.8771 33.5705 20.0443 34.2294 20.6917L34.68 21.1344L33.5472 22.2716L32.4143 23.4089L31.9582 22.9623C31.2846 22.3028 31.1457 22.2983 30.0209 22.8999C29.0679 23.4096 27.7597 23.9152 27.3939 23.9152C27.2885 23.9152 27.0697 24.0479 26.9076 24.2102C26.6416 24.4764 26.6129 24.5698 26.6129 25.1688V25.8325H25H23.3871V25.1688C23.3871 24.5698 23.3584 24.4764 23.0924 24.2102C22.9303 24.0479 22.7115 23.9152 22.606 23.9152C22.2403 23.9152 20.9321 23.4096 19.9791 22.8999C18.8543 22.2983 18.7154 22.3028 18.0418 22.9623L17.5857 23.4089L16.4528 22.2716L15.32 21.1344L15.7706 20.6917C16.4295 20.0443 16.4348 19.8771 15.8311 18.7462C15.3234 17.7951 14.8185 16.4856 14.8185 16.1199C14.8185 16.0143 14.686 15.7953 14.5239 15.633C14.258 15.3668 14.1646 15.338 13.5662 15.338H12.9032V13.7235V12.109H13.5662C14.1646 12.109 14.258 12.0802 14.5239 11.814C14.686 11.6518 14.8185 11.4327 14.8185 11.3271C14.8185 10.961 15.3237 9.65146 15.8329 8.69758C16.4339 7.57164 16.4293 7.43259 15.7706 6.75833L15.3244 6.30172L16.4605 5.16771L17.5966 4.0337L18.0388 4.48476C18.6856 5.1444 18.8526 5.14965 19.9824 4.54541C20.9326 4.03713 22.2407 3.53179 22.606 3.53179C22.7115 3.53179 22.9303 3.39909 23.0924 3.23683C23.3584 2.97064 23.3871 2.87719 23.3871 2.2782V1.61453H25H26.6129V2.2782ZM9.0872 5.8885L8.04567 6.93461L7.80766 6.69637L7.56966 6.45812H4.59123H1.6129V4.84359V3.22906H4.59032H7.56764L7.79093 2.99304L8.01411 2.75701L9.07137 3.7997L10.1286 4.84238L9.0872 5.8885ZM45.4088 3.22906H48.3871V4.84359V6.45812H45.4088H42.4303L42.1923 6.69637L41.9543 6.93461L40.9134 5.8891L39.8726 4.84359L40.9134 3.79808L41.9543 2.75257L42.1923 2.99082L42.4303 3.22906H45.4088ZM23.8911 4.90938C19.5308 5.57195 16.4105 8.94763 16.1632 13.2694C15.9232 17.4656 18.674 21.2022 22.8327 22.3289C23.9104 22.6208 26.0178 22.6362 27.0581 22.3598C32.2329 20.9847 35.0517 15.8328 33.3701 10.8235C32.5549 8.39536 30.4102 6.21625 28.0135 5.38103C26.734 4.93512 25.0156 4.73845 23.8911 4.90938ZM27.1338 6.79031C28.3523 7.17891 29.1818 7.69647 30.1431 8.66791C31.0911 9.62593 31.7043 10.6793 32.0286 11.9072C32.2657 12.8046 32.2637 14.656 32.0248 15.5366C31.8182 16.2981 31.2645 17.4777 30.9101 17.9112L30.6627 18.2139L30.5989 17.9112C30.2687 16.3441 29.8501 15.4834 28.9948 14.6132L28.5037 14.1136L28.6649 13.742C29.1406 12.645 29.132 11.4882 28.64 10.4358C28.2214 9.54026 27.6383 8.94944 26.7298 8.5C26.0101 8.1439 25.9148 8.12311 25 8.12311C24.0852 8.12311 23.9899 8.1439 23.2702 8.5C22.3526 8.95389 21.7811 9.53814 21.3372 10.4763C21.0474 11.0886 21.0184 11.2381 21.0217 12.109C21.0245 12.8904 21.0688 13.1655 21.2608 13.5972L21.4965 14.1267L21.0752 14.536C20.2359 15.3514 19.8321 16.1448 19.383 17.8607L19.2905 18.2139L18.8724 17.5728C17.4551 15.3996 17.3888 12.4925 18.7025 10.1244C19.1628 9.29485 20.4635 7.96842 21.2962 7.47962C21.98 7.0781 23.0005 6.69253 23.7261 6.56145C24.6113 6.40141 26.2622 6.51231 27.1338 6.79031ZM25.7444 9.80989C26.2981 9.97366 27.1332 10.8096 27.2968 11.3639C27.576 12.31 27.3791 13.0643 26.6667 13.7774C25.6469 14.7983 24.3531 14.7983 23.3333 13.7774C22.3134 12.7565 22.3134 11.4626 23.3333 10.4395C24.0404 9.73007 24.8021 9.53118 25.7444 9.80989ZM11.2903 13.7235V14.5308H9.11845C6.94677 14.5308 6.94647 14.5308 6.69909 14.7785L6.45161 15.0261V27.447V39.8679L6.69909 40.1155L6.94647 40.3633H25H43.0535L43.3009 40.1155L43.5484 39.8679V27.447V15.0261L43.3009 14.7785C43.0535 14.5308 43.0532 14.5308 40.8816 14.5308H38.7097V13.7235V12.9162H41.688H44.6664L44.9138 13.164L45.1613 13.4116V27.6948V41.9778H25H4.83871V27.6948V13.4116L5.08619 13.164L5.33357 12.9162H8.312H11.2903V13.7235ZM23.3367 15.7462C23.9925 16.0702 24.1104 16.0949 25.0063 16.0949C25.9156 16.0949 26.013 16.0737 26.7201 15.7217L27.4698 15.3485L27.8539 15.7217C28.0652 15.9269 28.404 16.4302 28.6068 16.84C28.9634 17.5607 28.9756 17.6217 28.9786 18.7068L28.9819 19.8285L28.2258 20.2035C27.0953 20.7645 26.3512 20.9327 25 20.9327C23.6488 20.9327 22.9047 20.7645 21.7742 20.2035L21.0181 19.8285L21.0215 18.7185C21.0246 17.6891 21.0477 17.5595 21.3404 16.9344C21.6328 16.3104 22.4336 15.289 22.5712 15.3647C22.6041 15.3827 22.9486 15.5545 23.3367 15.7462ZM11.2903 16.3012C11.2903 16.387 11.4017 16.5686 11.5378 16.7048C11.7584 16.9257 11.8709 16.9526 12.5753 16.9526H13.3654L13.4912 17.4234C13.5604 17.6823 13.8032 18.2954 14.0308 18.7857L14.4446 19.6771L13.9259 20.226C13.4897 20.6877 13.4073 20.8357 13.4073 21.1565C13.4073 21.5171 13.5111 21.6419 15.3003 23.433C17.0896 25.224 17.2143 25.328 17.5745 25.328C17.8951 25.328 18.0428 25.2454 18.5049 24.8079L19.0542 24.2879L19.8346 24.6517C20.2638 24.8518 20.8751 25.0972 21.1931 25.197L21.7714 25.3784L21.7728 26.165C21.774 26.8647 21.8015 26.979 22.0217 27.1993L22.2691 27.447H25H27.7309L27.9783 27.1993C28.199 26.9785 28.2258 26.8659 28.2258 26.1607V25.3698L28.6962 25.2439C28.9548 25.1747 29.5672 24.9316 30.0571 24.7037L30.9476 24.2896L31.496 24.8088C31.9572 25.2454 32.105 25.328 32.4255 25.328C32.7857 25.328 32.9104 25.224 34.6997 23.433C36.4889 21.6419 36.5927 21.5171 36.5927 21.1565C36.5927 20.8356 36.5103 20.6877 36.0732 20.2251L35.5537 19.6753L35.9171 18.8941C36.117 18.4645 36.3622 17.8526 36.4619 17.5342L36.6431 16.9554L37.4289 16.954C38.1279 16.9528 38.2421 16.9252 38.4622 16.7048C38.5983 16.5686 38.7097 16.387 38.7097 16.3012C38.7097 16.1671 38.935 16.1453 40.3226 16.1453H41.9355V27.447V38.7487H25H8.06452V27.447V16.1453H9.67742C11.065 16.1453 11.2903 16.1671 11.2903 16.3012ZM15.3226 29.1934C14.8278 29.3495 13.984 30.2242 13.8323 30.7382C13.6663 31.3003 13.6663 34.8955 13.8323 35.4575C13.9959 36.0118 14.8309 36.8477 15.3847 37.0115C16.0002 37.1935 18.0047 37.1698 18.5796 36.9738C19.3546 36.7095 20.1613 35.6402 20.1613 34.8773C20.1613 34.7384 20.0339 34.7124 19.3548 34.7124C18.6947 34.7124 18.5484 34.7407 18.5484 34.8683C18.5484 34.9541 18.437 35.1357 18.3009 35.2719C18.0679 35.5051 17.9881 35.5197 16.9355 35.5197C15.8829 35.5197 15.803 35.5051 15.5701 35.2719C15.3246 35.0263 15.3226 35.0087 15.3226 33.0979C15.3226 31.1871 15.3246 31.1694 15.5701 30.9238C15.803 30.6906 15.8829 30.6761 16.9355 30.6761C17.9881 30.6761 18.0679 30.6906 18.3009 30.9238C18.437 31.06 18.5484 31.2417 18.5484 31.3274C18.5484 31.4551 18.6947 31.4834 19.3548 31.4834C20.0339 31.4834 20.1613 31.4573 20.1613 31.3185C20.1613 30.5556 19.3546 29.4863 18.5796 29.222C18.0262 29.0332 15.8898 29.0145 15.3226 29.1934ZM21.2152 29.3093L20.9677 29.5569V33.3456V37.1342H21.7742H22.5806V35.5197V33.9051H23.2556C24.061 33.9051 24.489 34.1486 25.0654 34.9347C25.4265 35.427 25.8065 36.4302 25.8065 36.8909C25.8065 37.1278 25.8278 37.1342 26.6129 37.1342H27.4194L27.4178 36.8567C27.4137 36.0826 26.8517 34.5491 26.3407 33.9175L26.1472 33.6782L26.6607 33.1609C27.6645 32.15 27.6771 30.8024 26.6919 29.7967C26.0508 29.142 25.6921 29.0616 23.4149 29.0616C21.4765 29.0616 21.4609 29.0633 21.2152 29.3093ZM28.4733 29.3093L28.2258 29.5569V33.3456V37.1342H29.0323H29.8387L29.843 35.2422L29.8473 33.3502L30.7511 35.1317C31.5358 36.6784 31.6952 36.9273 31.9603 37.0198C32.3057 37.1404 32.6268 37.052 32.8773 36.7674C32.9684 36.6639 33.4084 35.8527 33.8548 34.9647L34.6667 33.3502L34.6721 35.2422L34.6774 37.1342H35.4839H36.2903V33.3456V29.5569L36.0428 29.3093C35.7644 29.0305 35.3335 28.9854 35.0275 29.2029C34.9181 29.2807 34.2623 30.4841 33.5702 31.877C32.878 33.27 32.2876 34.4097 32.2581 34.4097C32.2285 34.4097 31.6381 33.27 30.946 31.877C30.2538 30.4841 29.598 29.2807 29.4886 29.2029C29.1827 28.9854 28.7517 29.0305 28.4733 29.3093ZM25.559 30.9238C25.715 31.0799 25.8065 31.2868 25.8065 31.4834C25.8065 31.6799 25.715 31.8868 25.559 32.0429C25.3207 32.2815 25.2615 32.2906 23.9461 32.2906H22.5806V31.4834V30.6761H23.9461C25.2615 30.6761 25.3207 30.6852 25.559 30.9238ZM19.3548 44.1608C19.3548 44.4736 19.41 44.9162 19.4774 45.1447C19.641 45.699 20.4761 46.5349 21.0298 46.6987C21.6121 46.8708 28.3879 46.8708 28.9702 46.6987C29.5239 46.5349 30.359 45.699 30.5226 45.1447C30.59 44.9162 30.6452 44.4736 30.6452 44.1608V43.5923H39.2687H47.8922L48.1396 43.8401C48.3729 44.0735 48.3871 44.1526 48.3871 45.2158C48.3871 45.8362 48.332 46.5308 48.2645 46.7592C48.1009 47.3135 47.2658 48.1494 46.7121 48.3132C46.1088 48.4916 3.89123 48.4916 3.2879 48.3132C2.73417 48.1494 1.89909 47.3135 1.73548 46.7592C1.66804 46.5308 1.6129 45.8362 1.6129 45.2158C1.6129 44.1526 1.62712 44.0735 1.86038 43.8401L2.10776 43.5923H10.7314H19.3548V44.1608ZM29.0323 44.1519C29.0323 44.6115 28.988 44.7558 28.7848 44.9591L28.5374 45.2069H25H21.4626L21.2152 44.9591C21.012 44.7558 20.9677 44.6115 20.9677 44.1519V43.5923H25H29.0323V44.1519Z" fill="#12A5F9"/>
</svg>
