<svg width="52" height="57" viewBox="0 0 52 57" fill="none" xmlns="http://www.w3.org/2000/svg">
<path fill-rule="evenodd" clip-rule="evenodd" d="M20.4609 0.0401923C15.0457 0.720393 10.5027 3.93491 8.22341 8.69929C7.94121 9.28904 7.67503 9.91326 7.63179 10.0864L7.55326 10.4013L5.60601 10.4439C3.71345 10.4854 3.63613 10.4972 2.8542 10.8618C1.73526 11.3836 1.03728 12.0576 0.495273 13.1398L0.0454096 14.0378L0.0132509 30.6788C-0.0221601 49.0149 -0.0417931 48.4698 0.718338 50.3478C1.98277 53.4723 4.53477 55.7169 7.93206 56.693C8.83732 56.9531 8.84696 56.9532 22.616 56.9881C34.6011 57.0183 36.5344 56.9989 37.4717 56.8393C41.519 56.15 44.7601 53.2017 45.8977 49.1741C46.11 48.4222 46.1589 47.8446 46.2056 45.5361L46.261 42.7919L47.0919 42.6651C49.4762 42.3009 51.4791 40.3968 51.9036 38.0909C51.9822 37.6636 52.0156 35.3829 51.9932 31.9699L51.9574 26.53L51.5458 25.7811C51.0862 24.9446 50.7058 24.5833 49.8023 24.1246C49.2627 23.8508 49.0073 23.8061 47.7231 23.7607L46.259 23.709L46.209 20.5436C46.1611 17.504 46.1464 17.3404 45.8394 16.4274C45.38 15.0609 44.747 14.0658 43.647 12.9803C42.0026 11.3576 40.2718 10.5891 37.9695 10.4596L36.7487 10.3911L36.6185 9.96211C36.5469 9.72619 36.2483 9.05193 35.9549 8.46384C33.8948 4.33403 30.0358 1.35317 25.3992 0.310109C24.3937 0.0839305 21.4109 -0.079137 20.4609 0.0401923ZM24.8572 2.14949C31.8067 3.65525 36.3738 9.93834 35.5197 16.8184L35.369 18.0319H34.346C33.4931 18.0319 33.3341 18.0027 33.3911 17.8564C33.5805 17.3693 33.7336 15.4787 33.6663 14.4591C33.4768 11.5908 32.3866 9.24364 30.2756 7.15918C28.1663 5.07639 25.7845 3.99945 22.8727 3.81226C19.4852 3.59428 16.1205 4.90025 13.7909 7.33722C11.8491 9.36844 10.7863 11.7824 10.622 14.5345C10.5584 15.5989 10.7087 17.356 10.9067 17.8653C10.9591 18.0002 10.7767 18.0319 9.9506 18.0319H8.9297L8.79348 16.9839C8.43299 14.2104 8.84094 11.8112 10.1007 9.29617C12.1034 5.29745 15.7257 2.70775 20.324 1.98726C21.2721 1.83869 23.8482 1.9308 24.8572 2.14949ZM24.4374 5.95008C26.9486 6.62624 28.8654 7.97773 30.2222 10.0288C30.8207 10.9334 31.1698 11.7276 31.5202 12.9806C31.7709 13.8775 31.7759 16.5005 31.5286 17.3782L31.3612 17.9725L29.1801 18.0048L26.9989 18.0372L26.9351 17.3426C26.8732 16.6695 26.5294 15.814 26.1494 15.3874C25.9826 15.2002 25.9826 15.1586 26.1494 14.9714C26.5111 14.5653 26.866 13.7141 26.9305 13.0976C27.0635 11.8263 26.2705 10.3854 25.168 9.89472C24.7003 9.68673 24.6765 9.65048 24.6765 9.1501C24.6765 8.7227 24.608 8.55655 24.3103 8.26286C24.0039 7.96049 23.8811 7.91355 23.5576 7.97523C23.039 8.07412 22.7494 8.44566 22.7494 9.01223V9.47445H22.1471H21.5449V9.01223C21.5449 8.44566 21.2552 8.07412 20.7367 7.97523C20.1982 7.87254 19.6178 8.42973 19.6178 9.04931V9.47445H18.7693C18.0289 9.47445 17.8829 9.51166 17.625 9.76624C17.4386 9.95011 17.3293 10.1938 17.3293 10.4253C17.3293 11.0322 17.7849 11.3761 18.5886 11.3761H19.2565V14.706V18.0359L16.0948 18.0042L12.9331 17.9725L12.7776 17.3782C12.5373 16.4599 12.4612 14.7329 12.6203 13.8054C13.3338 9.64335 16.3189 6.61852 20.5211 5.79961C21.3328 5.64142 23.6171 5.72925 24.4374 5.95008ZM24.5842 11.8241C24.9227 12.1584 24.9776 12.295 24.9776 12.8024C24.9776 13.3098 24.9227 13.4463 24.5842 13.7806L24.1907 14.1692L22.6872 14.2086L21.1836 14.248V12.8024V11.3567L22.6872 11.3961L24.1907 11.4355L24.5842 11.8241ZM6.88671 13.0698C6.76229 14.0287 6.76289 16.3345 6.88779 17.2987L6.98523 18.0511L5.43233 18.0118C3.947 17.9742 3.85389 17.9568 3.29057 17.6129C2.19572 16.9442 1.68684 15.6287 2.03974 14.3799C2.23258 13.6977 3.19518 12.6827 3.83944 12.4823C4.0713 12.4103 4.87347 12.3457 5.62203 12.3391L6.98295 12.3269L6.88671 13.0698ZM39.7724 12.723C40.8645 13.1141 41.518 13.5207 42.3086 14.301C43.0949 15.0767 43.4994 15.7076 43.9295 16.8291C44.2071 17.553 44.2354 17.8104 44.283 20.044L44.3345 22.4721L43.7359 21.7622C42.3533 20.1228 40.2172 18.8103 38.1615 18.3371C37.7533 18.2431 37.3931 18.1404 37.3612 18.1091C37.3294 18.0776 37.3698 17.5314 37.4508 16.8952C37.5929 15.7814 37.5533 13.7915 37.3683 12.7539L37.2856 12.2894L38.1433 12.3681C38.615 12.4113 39.3482 12.5711 39.7724 12.723ZM24.5732 16.5674C24.8786 16.8691 24.9577 17.0483 24.9665 17.4588L24.9776 17.9725L23.0806 18.0052L21.1836 18.038V17.0744V16.1109L22.6872 16.1502L24.1907 16.1897L24.5732 16.5674ZM2.81565 19.5233L3.53833 19.8742L20.4007 19.9336L37.263 19.993L38.2266 20.3168C39.6239 20.7864 40.6266 21.4098 41.7199 22.4886C43.3884 24.1351 44.1484 25.8228 44.2757 28.1642L44.3452 29.4419H40.6756C38.5978 29.4419 36.6962 29.4971 36.2915 29.569C35.113 29.7784 33.7185 30.5163 32.8133 31.4096C30.1836 34.0045 30.1836 38.191 32.8133 40.7858C33.7185 41.6791 35.113 42.4171 36.2915 42.6265C36.696 42.6984 38.5964 42.7535 40.6706 42.7535H44.3349L44.2815 45.4575C44.2318 47.983 44.2072 48.2241 43.9104 49.1122C43.4545 50.4761 42.8215 51.4723 41.7199 52.5593C40.6266 53.6382 39.6239 54.2616 38.2266 54.7312L37.263 55.0549H23.1107H8.95837L7.99481 54.7312C6.60463 54.2639 5.60312 53.641 4.50237 52.559C3.4021 51.4773 2.77073 50.485 2.30918 49.1122C2.00205 48.1987 1.98747 48.0366 1.93929 44.982L1.88919 41.8027H6.23679H10.5844V43.888C10.5844 45.9437 10.5886 45.9776 10.8801 46.2651L11.1757 46.5569H15.2548H19.3339L19.5932 47.1214C19.9813 47.9667 20.4784 48.4893 21.3251 48.9424C22.0269 49.3178 22.1676 49.3494 23.1107 49.3442C23.9757 49.3395 24.2299 49.2898 24.7496 49.0239C25.6555 48.5607 26.0344 48.2004 26.4932 47.3652C26.871 46.6777 26.9045 46.5333 26.9017 45.606C26.8982 44.4165 26.6128 43.7078 25.8236 42.929C25.0435 42.1591 24.3194 41.8769 23.1107 41.8712C22.2606 41.8671 21.9848 41.9159 21.4847 42.1586C20.6928 42.5428 19.9671 43.2728 19.6168 44.0375L19.3339 44.6552H15.9228H12.5115V42.5699C12.5115 40.5142 12.5073 40.4803 12.2158 40.1928L11.9202 39.901H6.91622H1.91231V38.9502V37.9994H10.6232H19.3339L19.5932 38.5639C19.9813 39.4092 20.4784 39.9318 21.3251 40.3849C22.0269 40.7604 22.1676 40.792 23.1107 40.7867C23.9757 40.782 24.2299 40.7323 24.7496 40.4664C25.6555 40.0033 26.0344 39.6429 26.4932 38.8077C26.871 38.1203 26.9045 37.9758 26.9017 37.0486C26.8982 35.8591 26.6128 35.1503 25.8236 34.3715C25.0435 33.6017 24.3194 33.3194 23.1107 33.3137C22.2606 33.3096 21.9848 33.3584 21.4847 33.6011C20.6928 33.9853 19.9671 34.7153 19.6168 35.48L19.3339 36.0977H10.6232H1.91231V35.1469V34.1961H6.91622H11.9202L12.2158 33.9043C12.5115 33.6126 12.5115 33.6123 12.5115 31.0518V28.4911H15.9228H19.3339L19.5932 29.0556C19.9813 29.9009 20.4784 30.4235 21.3251 30.8766C22.0269 31.2521 22.1676 31.2837 23.1107 31.2784C23.9757 31.2737 24.2299 31.224 24.7496 30.9581C25.6555 30.4949 26.0344 30.1346 26.4932 29.2994C26.871 28.6119 26.9045 28.4675 26.9017 27.5402C26.8982 26.3508 26.6128 25.642 25.8236 24.8632C25.0435 24.0934 24.3194 23.8111 23.1107 23.8054C22.2606 23.8013 21.9848 23.8501 21.4847 24.0928C20.6928 24.477 19.9671 25.207 19.6168 25.9717L19.3339 26.5894H15.2548H11.1757L10.8801 26.8812C10.5844 27.1729 10.5844 27.1732 10.5844 29.7337V32.2944H6.24835H1.91231V25.6881C1.91231 22.0547 1.95302 19.1022 2.00265 19.1272C2.05227 19.152 2.41818 19.3303 2.81565 19.5233ZM23.873 25.8007C25.1105 26.3109 25.4122 27.9119 24.4498 28.8617C23.6732 29.6279 22.6064 29.6316 21.7959 28.8707C20.2613 27.4303 21.9112 24.9918 23.873 25.8007ZM49.2014 25.9431C49.8332 26.4091 50.0303 26.7888 50.0303 27.5402C50.0303 28.2916 49.8332 28.6714 49.2014 29.1374C48.9235 29.3425 48.6544 29.389 47.5527 29.4227L46.2362 29.4629V27.5402V25.6175L47.5527 25.6578C48.6544 25.6915 48.9235 25.7379 49.2014 25.9431ZM50.0683 34.4635L50.0303 38.0588L49.6187 38.8077C49.1616 39.6396 48.7865 39.9978 47.8751 40.4721L47.26 40.7924H41.84H36.4199L35.6154 40.4163C34.4956 39.8928 33.7982 39.2191 33.2564 38.1373C32.8314 37.2886 32.8066 37.1763 32.8066 36.0977C32.8066 35.0191 32.8314 34.9068 33.2564 34.0582C33.7982 32.9764 34.4956 32.3026 35.6154 31.7792L36.4199 31.403L42.7433 31.3436C48.3179 31.2912 49.1166 31.2606 49.4883 31.0859C49.7201 30.9768 49.954 30.8831 50.0081 30.8779C50.0622 30.8725 50.0893 32.4861 50.0683 34.4635ZM36.4338 32.9575C35.5602 33.2329 34.631 34.1923 34.3656 35.0927C33.7271 37.2601 35.3257 39.4256 37.5642 39.4256C39.3695 39.4256 40.9366 37.8792 40.9366 36.0977C40.9366 34.9036 40.1643 33.6786 39.072 33.1403C38.344 32.7815 37.2357 32.7047 36.4338 32.9575ZM38.5767 35.1404C38.893 35.4526 38.9493 35.597 38.9493 36.0977C38.9493 36.6052 38.8945 36.7416 38.5555 37.076C38.2166 37.4105 38.0785 37.4645 37.5642 37.4645C37.0499 37.4645 36.9117 37.4105 36.5728 37.076C36.2352 36.7429 36.179 36.6043 36.179 36.105C36.179 35.4941 36.4861 35.0112 37.0222 34.7788C37.4725 34.5836 38.179 34.7479 38.5767 35.1404ZM23.873 35.309C25.1105 35.8192 25.4122 37.4202 24.4498 38.37C23.6732 39.1362 22.6064 39.1399 21.7959 38.379C20.2613 36.9386 21.9112 34.5001 23.873 35.309ZM23.873 43.8665C25.1105 44.3767 25.4122 45.9777 24.4498 46.9274C23.6732 47.6937 22.6064 47.6974 21.7959 46.9365C20.2613 45.4961 21.9112 43.0576 23.873 43.8665Z" fill="#56A409"/>
</svg>
