<svg width="52" height="52" viewBox="0 0 52 52" fill="none" xmlns="http://www.w3.org/2000/svg">
<path fill-rule="evenodd" clip-rule="evenodd" d="M18.0417 0.0936382C13.5837 0.594466 9.50975 2.5929 6.32792 5.83965C4.70319 7.49762 3.72683 8.87287 2.73073 10.9067C1.72731 12.9553 1.05057 15.1958 0.806787 17.2766C0.726237 17.9637 0.90127 18.3923 1.35884 18.6288C1.84956 18.8823 2.25476 18.8261 2.6275 18.4526C2.92316 18.1565 2.96933 18.0278 3.0747 17.2077C3.43402 14.4116 4.51229 11.6911 6.20252 9.31709C7.01087 8.18159 8.92637 6.28478 10.11 5.44756C13.212 3.25359 16.9715 2.11047 20.6465 2.2438C22.1993 2.30011 22.5268 2.21291 22.7836 1.67499C23.1476 0.912057 22.7037 0.203906 21.7788 0.072296C21.0821 -0.026894 19.0089 -0.0150033 18.0417 0.0936382ZM36.1452 0.0521735C29.107 0.805347 23.5984 6.55593 23.2651 13.4982C23.2077 14.692 23.2172 14.7849 23.4214 15.0407C23.5409 15.1903 23.7984 15.3655 23.9937 15.4299C24.2919 15.5283 24.4095 15.5173 24.7294 15.3611C25.247 15.1083 25.4658 14.6412 25.466 13.7889C25.4661 13.4178 25.5369 12.7318 25.6233 12.2644C26.4421 7.83696 29.5365 4.26074 33.7831 2.83437C35.152 2.3746 35.8138 2.2808 37.6707 2.28344C39.2605 2.28578 39.5561 2.31423 40.4392 2.55001C41.7832 2.90876 43.0194 3.42677 44.0645 4.06896C45.236 4.7889 47.0108 6.53631 47.7896 7.73696C50.9058 12.5401 50.2722 18.867 46.2715 22.8985C44.473 24.7108 42.2907 25.8581 39.7115 26.347C39.248 26.4349 38.5648 26.5068 38.1935 26.5069C37.3405 26.5071 36.8731 26.7257 36.6201 27.2429C36.4638 27.5627 36.4528 27.6801 36.5513 27.9781C36.6157 28.1732 36.791 28.4306 36.9407 28.55C37.1967 28.7541 37.2896 28.7635 38.4844 28.7062C44.9055 28.3984 50.4075 23.6255 51.7114 17.2322C53.378 9.05976 47.6391 1.10363 39.3489 0.0936382C38.484 -0.0117512 36.9302 -0.0318738 36.1452 0.0521735ZM37.085 5.09054C36.7307 5.29573 36.56 5.60539 36.475 6.19748L36.3972 6.73988L35.7083 7.08074C34.7472 7.55647 33.9879 8.27976 33.5796 9.10855C33.274 9.72869 33.2466 9.86436 33.2466 10.7521C33.2466 11.6339 33.2761 11.7819 33.5788 12.4205C33.8134 12.9157 34.115 13.3218 34.6071 13.8047C35.2158 14.4022 35.5155 14.5926 36.9921 15.3189C38.816 16.2162 39.4801 16.7305 39.7088 17.423C40.2458 19.0489 38.0979 20.4565 36.3968 19.5934C36.0115 19.3979 35.7939 19.1871 35.4841 18.7092C34.9992 17.9614 34.6065 17.7084 34.0826 17.8066C33.5977 17.8974 33.1957 18.3716 33.1957 18.8527C33.1957 19.3304 33.7068 20.2695 34.2643 20.8162C34.5099 21.057 35.0907 21.4417 35.5551 21.6713C36.2446 22.0122 36.4043 22.1351 36.4262 22.3414C36.523 23.2578 36.9142 23.7627 37.5271 23.7627C38.2337 23.7627 38.6878 23.3247 38.6878 22.6432C38.6878 22.1505 38.8363 21.9782 39.5475 21.6457C42.0184 20.4903 42.8199 17.3187 41.1277 15.3928C40.6325 14.8291 39.7222 14.2238 38.2004 13.4462C36.108 12.3768 35.5633 11.923 35.4614 11.1637C35.2899 9.88581 36.2405 8.9249 37.676 8.9249C38.6289 8.9249 39.4093 9.37603 39.813 10.1602C40.2302 10.9706 41.0219 11.2052 41.6259 10.6973C42.0854 10.3109 42.1387 9.84444 41.8017 9.15773C41.3141 8.16441 40.4017 7.33481 39.3652 6.94242C38.8452 6.74557 38.6878 6.52026 38.6878 5.97268C38.6878 5.52714 38.2231 5.06127 37.7216 5.00395C37.4869 4.97712 37.2176 5.01381 37.085 5.09054ZM16.1094 16.6602C11.7172 17.0472 7.41708 19.1868 4.50985 22.4314C2.34436 24.8484 0.772105 28.0825 0.181914 31.3341C0.0428833 32.0997 -0.00196838 32.8518 6.57102e-05 34.383C0.00240492 36.1868 0.033018 36.5592 0.272227 37.6918C1.05779 41.4111 2.70368 44.4308 5.34312 46.9951C8.50216 50.0643 12.5174 51.7864 16.9739 51.9834C22.7208 52.2376 28.3561 49.5544 31.8471 44.9016C35.8209 39.6053 36.4969 32.5022 33.5937 26.5472C30.8398 20.8983 25.4287 17.2156 19.0538 16.6519C17.7572 16.5371 17.4971 16.5379 16.1094 16.6602ZM19.0588 18.8865C23.136 19.3087 26.5347 21.037 29.2825 24.0856C31.0867 26.0873 32.4707 28.9768 32.9491 31.7406C33.1829 33.0913 33.185 35.5688 32.9534 36.8461C31.7823 43.3037 27.1047 48.115 20.6605 49.4903C19.2348 49.7945 16.4353 49.8184 14.9398 49.5389C11.7141 48.9363 9.09225 47.5504 6.74959 45.2094C4.40693 42.8685 3.01998 40.2486 2.41687 37.0253C2.13718 35.5309 2.16109 32.7334 2.46559 31.3088C3.50776 26.4325 6.50997 22.5387 10.8716 20.4061C13.4766 19.1324 16.326 18.6035 19.0588 18.8865ZM13.6074 23.6001L13.2616 23.9457V25.0003C13.2616 26.4764 13.2637 26.4743 11.8143 26.5237C10.9338 26.5537 10.6057 26.6045 10.3988 26.7429C9.80541 27.1399 9.76757 28.015 10.3235 28.4824C10.6142 28.7268 10.7003 28.7426 11.7439 28.7426C13.4248 28.7426 13.2616 28.1496 13.2616 34.2587C13.2616 38.6331 13.2397 39.3997 13.1093 39.5858C12.9705 39.7838 12.8476 39.8061 11.7277 39.837L10.4984 39.871L10.202 40.2029C9.79178 40.6618 9.79178 41.2143 10.202 41.6733L10.4984 42.0052L11.7277 42.0391C13.2786 42.0819 13.2616 42.0646 13.2616 43.5953C13.2616 44.6138 13.2781 44.7023 13.522 44.9919C13.859 45.3922 14.3923 45.5043 14.8326 45.2674C15.3564 44.9854 15.4375 44.761 15.4784 43.4788C15.5078 42.5559 15.5501 42.2833 15.6794 42.183C15.786 42.1003 16.2068 42.056 16.8858 42.056C18.2288 42.056 18.2452 42.0744 18.2452 43.5894C18.2452 44.8199 18.3685 45.0972 19.0102 45.3088C19.3084 45.4072 19.4259 45.3962 19.7459 45.24C20.327 44.9563 20.4824 44.5468 20.4825 43.2988C20.4827 42.0959 20.4314 42.1555 21.621 41.9758C22.544 41.8364 23.3228 41.4594 23.9894 40.8293C25.039 39.8375 25.4117 38.8907 25.3408 37.3966C25.2723 35.9555 24.7425 34.9316 23.6236 34.079C23.039 33.6335 23.0149 33.4834 23.3948 32.6543C23.7831 31.8068 23.8424 30.5614 23.5373 29.6627C23.1043 28.3876 22.3923 27.5832 21.149 26.9646L20.5335 26.6584L20.4823 25.3376C20.452 24.5599 20.3785 23.9249 20.3035 23.7933C20.0151 23.2879 19.3817 23.1119 18.8017 23.3761C18.3687 23.5731 18.2452 23.9463 18.2452 25.0563C18.2452 26.4868 18.2257 26.5067 16.828 26.5067C16.0705 26.5067 15.6952 26.4671 15.6241 26.3797C15.5673 26.3099 15.5031 25.7496 15.4814 25.1347C15.4387 23.9217 15.3177 23.5931 14.8319 23.3719C14.3596 23.1569 13.9802 23.2277 13.6074 23.6001ZM20.0348 28.8923C21.9874 29.4717 21.9874 32.4852 20.0348 33.0646C19.2945 33.2843 16.042 33.2778 15.7252 33.056C15.5051 32.9021 15.4991 32.8467 15.4991 30.9784C15.4991 29.1102 15.5051 29.0548 15.7252 28.9008C16.042 28.6791 19.2945 28.6726 20.0348 28.8923ZM50.314 29.2456C50.1358 29.3543 49.9472 29.5256 49.8949 29.6263C49.8426 29.7272 49.7743 30.61 49.7431 31.5882C49.6761 33.6901 49.437 35.1241 48.8622 36.8733C46.7139 43.4106 41.2324 48.1173 34.8801 48.8793C33.9399 48.992 33.83 49.0286 33.5263 49.3299C33.0949 49.7578 33.0677 50.3235 33.4561 50.7848C33.802 51.1956 34.1492 51.2432 35.4524 51.0585C41.6844 50.1753 46.9178 46.3288 49.8518 40.4746C51.2072 37.7704 51.8641 35.1035 51.9794 31.8378C52.0494 29.8531 51.9648 29.4983 51.3522 29.2077C50.911 28.9986 50.7073 29.006 50.314 29.2456ZM21.8829 35.6074C22.7011 35.949 23.1211 36.6379 23.1247 37.6446C23.1276 38.4275 22.8232 39.0401 22.2207 39.4644L21.7878 39.7693L18.8508 39.8004C16.8664 39.8215 15.8467 39.7956 15.7065 39.7206C15.5088 39.615 15.4991 39.5182 15.4991 37.6519C15.4991 36.2645 15.5347 35.6584 15.6212 35.572C15.7104 35.4829 16.5191 35.4501 18.6247 35.4501C20.9955 35.4501 21.573 35.4779 21.8829 35.6074Z" fill="#FF6900"/>
</svg>
