<svg width="46" height="46" viewBox="0 0 46 46" fill="none" xmlns="http://www.w3.org/2000/svg">
<path fill-rule="evenodd" clip-rule="evenodd" d="M23.4979 0.128228C22.6482 0.431106 22.0736 1.23749 22.07 2.1322C22.0688 2.41729 22.1135 2.76976 22.1691 2.91541C22.2702 3.17983 22.2647 3.18603 18.7753 6.67151L15.2804 10.1628L14.8084 9.92607C13.419 9.22903 11.7342 9.51583 10.6076 10.6412C9.48107 11.7664 9.19397 13.4496 9.89167 14.8373L10.1286 15.3084L6.63945 18.7947C3.70365 21.7282 3.12162 22.2703 2.96935 22.2142C2.86978 22.1776 2.4814 22.1476 2.10633 22.1476C1.50424 22.1476 1.37292 22.1794 0.984445 22.4195C0.712003 22.5878 0.440729 22.8589 0.272173 23.1312C0.0319304 23.5195 0 23.6508 0 24.252C0 24.8369 0.035708 24.9936 0.253374 25.3634C1.23953 27.0393 3.68072 26.7305 4.27336 24.855C4.37509 24.5331 4.35755 24.0039 4.22686 23.4504C4.17991 23.2516 4.409 22.9926 6.21374 21.2042C7.33571 20.0923 8.22158 19.2635 8.18236 19.3623C8.14315 19.4611 7.89634 20.1687 7.63397 20.9346C6.77689 23.4365 6.46622 25.5497 6.54564 28.3374C6.66041 32.37 7.85119 36.1202 10.07 39.4378L10.7243 40.4159L10.145 40.9853C9.46228 41.6564 9.27141 41.9748 9.35362 42.3057C9.42594 42.5967 12.5562 45.7672 12.9197 45.9176C13.0593 45.9754 13.2652 45.9995 13.3776 45.9712C13.4898 45.9428 14.3608 45.1374 15.3131 44.1812C16.891 42.5969 17.0445 42.4152 17.0445 42.1327C17.0445 41.8495 16.8906 41.6691 15.2673 40.049C13.143 37.9289 13.2193 37.9609 12.3271 38.8167L11.7626 39.3582L11.2361 38.5697C9.76674 36.3696 8.70908 33.7147 8.2196 30.9976C7.94725 29.4859 7.88824 26.8415 8.09134 25.2473C8.45274 22.4099 9.4701 19.5352 10.9355 17.2111L11.4081 16.4615L11.8203 16.651C12.1548 16.8048 12.4106 16.8411 13.1769 16.8436C14.0522 16.8464 14.1649 16.8259 14.717 16.5646C16.1127 15.904 16.8688 14.7068 16.8617 13.1689C16.8599 12.7781 16.7918 12.3437 16.6847 12.0397C16.589 11.7679 16.5094 11.5209 16.5078 11.4909C16.5026 11.3936 17.5118 10.7648 18.5277 10.2323C22.9318 7.92372 28.2182 7.37376 33.0097 8.7257C34.9106 9.2621 36.9676 10.2035 38.5661 11.2689L39.3555 11.7949L38.8135 12.3588C37.9551 13.2517 37.9235 13.1765 40.0487 15.2975C41.6676 16.9132 41.8534 17.0712 42.1347 17.0712C42.4154 17.0712 42.6013 16.9142 44.1837 15.3416C45.1409 14.3903 45.9472 13.5203 45.9756 13.4081C46.0039 13.2959 45.9798 13.0902 45.922 12.9507C45.7714 12.5876 42.5976 9.46075 42.3062 9.38851C41.975 9.30639 41.6562 9.49705 40.9844 10.179L40.4143 10.7577L39.4104 10.0867C37.5834 8.86578 35.0975 7.75004 33.0475 7.23099C30.8601 6.67708 29.4135 6.52065 27.0522 6.58256C24.5094 6.64931 22.1147 7.11545 20.057 7.94429C19.6196 8.12049 19.2501 8.25301 19.2359 8.23873C19.2216 8.22453 20.1135 7.31096 21.2179 6.20861L23.2257 4.20437L23.7354 4.31838C25.1678 4.63851 26.4178 3.62089 26.4107 2.14029C26.4035 0.660757 24.906 -0.373754 23.4979 0.128228ZM24.7388 1.6428C25.2513 2.08314 24.9125 2.965 24.231 2.965C23.8488 2.965 23.5205 2.61217 23.5205 2.20129C23.5205 1.53866 24.236 1.21072 24.7388 1.6428ZM13.8576 11.0937C15.4497 11.5681 15.9679 13.6404 14.789 14.818C14.3575 15.249 13.8607 15.4498 13.2219 15.451C12.197 15.4531 11.3438 14.836 11.0606 13.8877C10.8937 13.329 10.8949 13.1728 11.0706 12.5821C11.2651 11.9274 11.8091 11.3615 12.459 11.1374C13.0598 10.9302 13.2855 10.9231 13.8576 11.0937ZM43.2189 12.175L44.2508 13.2087L43.195 14.2634L42.1391 15.3181L41.0832 14.2634L40.0274 13.2087L41.0593 12.175C41.6269 11.6063 42.1128 11.1412 42.1391 11.1412C42.1655 11.1412 42.6513 11.6063 43.2189 12.175ZM18.3937 15.426C18.1748 15.5037 15.5088 18.1745 15.4154 18.4098C15.3435 18.5909 15.9348 20.1366 19.1143 28.0793C21.1958 33.2789 22.9477 37.5979 23.0073 37.6773C23.067 37.7565 24.8967 38.5031 27.0734 39.3361L31.0309 40.8507L32.2902 43.3135C33.6061 45.887 33.7575 46.0948 34.2302 45.974C34.3568 45.9417 36.8799 43.4879 40.2278 40.1409C46.3786 33.992 46.2276 34.1651 45.8464 33.6949C45.7582 33.586 44.5977 32.9448 43.2676 32.2698L40.8491 31.0425L39.3331 27.0892C38.4993 24.9149 37.7521 23.0871 37.6728 23.0275C37.5329 22.9225 18.6583 15.3569 18.5718 15.3711C18.548 15.375 18.4679 15.3997 18.3937 15.426ZM27.7929 20.5724C32.6409 22.5109 36.6296 24.1326 36.6566 24.1762C36.6837 24.2197 37.3286 25.8761 38.0898 27.857L39.4738 31.4585L35.4606 35.4675L31.4474 39.4763L27.8419 38.0938C25.8589 37.3334 24.2008 36.6892 24.1572 36.6622C24.1136 36.6352 22.4697 32.5967 20.5041 27.6879L16.9302 18.7626L17.1235 18.5696L17.3168 18.3766L21.9584 23.0132L26.6 27.6498L26.3692 28.0434C25.8926 28.8558 25.7264 30.1799 25.9815 31.1324C26.5449 33.2361 28.6389 34.6065 30.74 34.2466C32.5329 33.9395 33.931 32.5429 34.2385 30.7519C34.5987 28.6537 33.2292 26.5588 31.1327 26.0012C30.1658 25.744 28.8455 25.9076 28.0286 26.3858L27.6345 26.6164L22.9962 21.983L18.3578 17.3495L18.5296 17.1599C18.6241 17.0556 18.7637 16.9877 18.8399 17.009C18.916 17.0303 22.9449 18.6338 27.7929 20.5724ZM2.70239 23.7608C3.14861 24.2064 2.83245 24.9778 2.20365 24.9778C1.59688 24.9778 1.23926 24.1442 1.66398 23.7199C1.92248 23.4617 2.42275 23.4814 2.70239 23.7608ZM31.0181 27.4581C31.5973 27.6553 32.3473 28.3575 32.6133 28.9518C32.8963 29.5838 32.9049 30.5842 32.6326 31.1883C32.366 31.7797 31.8597 32.3008 31.273 32.5875C30.5884 32.9221 29.6393 32.9366 28.9379 32.6232C28.343 32.3575 27.64 31.6083 27.4427 31.0297C27.2785 30.5484 27.2554 29.7626 27.3911 29.2746C27.606 28.5017 28.4601 27.6316 29.2199 27.4117C29.6756 27.2798 30.5612 27.3026 31.0181 27.4581ZM42.5888 33.5934C43.3061 33.9555 43.9224 34.2788 43.9584 34.3117C43.9943 34.3447 41.8407 36.5522 39.1725 39.2172C36.5042 41.8823 34.3038 44.0443 34.2826 44.0217C34.2615 43.9991 33.8516 43.1958 33.3719 42.2367L32.4996 40.4927L36.4772 36.5187L40.4547 32.5447L40.8697 32.7399C41.0979 32.8472 41.8715 33.2313 42.5888 33.5934ZM14.2567 43.1706L13.1769 44.2493L12.121 43.1945L11.0651 42.1397L12.1421 41.0611L13.2191 39.9823L14.2778 41.0372L15.3366 42.092L14.2567 43.1706Z" fill="#04D100"/>
</svg>
