<svg width="52" height="52" viewBox="0 0 52 52" fill="none" xmlns="http://www.w3.org/2000/svg">
<path fill-rule="evenodd" clip-rule="evenodd" d="M26.5628 0.144953C25.6023 0.487337 24.9528 1.3989 24.9487 2.41031C24.9474 2.73259 24.9978 3.13104 25.0608 3.29568C25.175 3.59459 25.1687 3.6016 21.2243 7.5417L17.2734 11.4884L16.7399 11.2208C15.1693 10.4328 13.2647 10.757 11.9912 12.0292C10.7177 13.3012 10.3932 15.2038 11.1819 16.7726L11.4497 17.3052L7.50547 21.2462C4.18674 24.5623 3.52879 25.1751 3.35665 25.1118C3.2441 25.0703 2.80506 25.0364 2.38106 25.0364C1.70044 25.0364 1.55199 25.0723 1.11285 25.3437C0.804872 25.5341 0.498216 25.8405 0.307674 26.1483C0.0360952 26.5872 0 26.7357 0 27.4153C0 28.0765 0.0403656 28.2536 0.286423 28.6717C1.40121 30.5661 4.16081 30.2171 4.83076 28.0969C4.94576 27.7331 4.92593 27.1349 4.77819 26.5091C4.72512 26.2844 4.98409 25.9916 7.02423 23.9699C8.29254 22.713 9.29396 21.7761 9.24963 21.8878C9.2053 21.9995 8.9263 22.7994 8.6297 23.6652C7.66083 26.4935 7.30964 28.8822 7.39942 32.0336C7.52916 36.5922 8.87525 40.8315 11.3835 44.5818L12.1231 45.6875L11.4682 46.3312C10.6965 47.0898 10.4807 47.4498 10.5737 47.8239C10.6554 48.1528 14.194 51.7368 14.6048 51.9069C14.7626 51.9722 14.9955 51.9994 15.1225 51.9674C15.2494 51.9353 16.2339 51.0249 17.3104 49.944C19.0942 48.153 19.2677 47.9477 19.2677 47.6282C19.2677 47.3081 19.0938 47.1041 17.2587 45.2728C14.8573 42.8761 14.9435 42.9124 13.935 43.8798L13.2969 44.4918L12.7017 43.6005C11.0407 41.1135 9.84505 38.1123 9.29172 35.0408C8.98384 33.3319 8.91714 30.3426 9.14673 28.5405C9.55527 25.333 10.7053 22.0833 12.3618 19.456L12.8962 18.6087L13.362 18.8229C13.7402 18.9968 14.0293 19.0378 14.8956 19.0406C15.885 19.0437 16.0125 19.0205 16.6366 18.7252C18.2144 17.9785 19.069 16.6251 19.061 14.8866C19.059 14.4448 18.982 13.9538 18.861 13.6101C18.7528 13.3028 18.6629 13.0236 18.661 12.9897C18.6551 12.8797 19.7959 12.1689 20.9444 11.5669C25.9229 8.95725 31.8988 8.33555 37.3153 9.86384C39.4642 10.4702 41.7894 11.5344 43.5965 12.7388L44.4888 13.3334L43.8761 13.9708C42.9057 14.9802 42.87 14.8952 45.2724 17.2928C47.1025 19.1193 47.3126 19.2978 47.6305 19.2978C47.9479 19.2978 48.158 19.1204 49.9468 17.3427C51.0289 16.2673 51.9403 15.2838 51.9724 15.157C52.0045 15.0302 51.9772 14.7976 51.9118 14.6399C51.7416 14.2295 48.1538 10.6948 47.8244 10.6131C47.45 10.5203 47.0896 10.7358 46.3302 11.5067L45.6858 12.1609L44.5508 11.4024C42.4856 10.0222 39.6754 8.76092 37.358 8.17416C34.8854 7.548 33.25 7.37117 30.5808 7.44115C27.7063 7.51662 24.9992 8.04355 22.6731 8.98051C22.1787 9.17968 21.7609 9.32949 21.7449 9.31334C21.7288 9.2973 22.737 8.26456 23.9854 7.01843L26.2551 4.75276L26.8314 4.88165C28.4506 5.24354 29.8636 4.09318 29.8555 2.41945C29.8475 0.746943 28.1546 -0.422504 26.5628 0.144953ZM27.9656 1.85708C28.5449 2.35486 28.162 3.35174 27.3916 3.35174C26.9595 3.35174 26.5884 2.95289 26.5884 2.48842C26.5884 1.73936 27.3972 1.36864 27.9656 1.85708ZM15.6651 12.5406C17.4649 13.077 18.0507 15.4196 16.718 16.7508C16.2302 17.238 15.6686 17.4649 14.9465 17.4664C13.788 17.4687 12.8235 16.7711 12.5033 15.6991C12.3147 15.0675 12.316 14.891 12.5146 14.2232C12.7345 13.4832 13.3494 12.8434 14.084 12.5901C14.7632 12.3559 15.0184 12.3479 15.6651 12.5406ZM48.8561 13.763L50.0227 14.9315L48.8291 16.1238L47.6355 17.3161L46.4419 16.1238L45.2483 14.9315L46.4149 13.763C47.0565 13.1202 47.6057 12.5944 47.6355 12.5944C47.6653 12.5944 48.2146 13.1202 48.8561 13.763ZM20.7929 17.4381C20.5454 17.5259 17.5317 20.5451 17.4261 20.8111C17.3448 21.0158 18.0132 22.7631 21.6075 31.7418C23.9605 37.6196 25.9409 42.502 26.0083 42.5917C26.0757 42.6813 28.1441 43.5252 30.6047 44.4668L35.0784 46.1791L36.5019 48.963C37.9894 51.8722 38.1607 52.1072 38.695 51.9706C38.8381 51.9341 41.6903 49.1602 45.4749 45.3767C52.4279 38.4257 52.2573 38.6214 51.8263 38.0898C51.7267 37.9668 50.4148 37.2419 48.9111 36.4789L46.1773 35.0916L44.4635 30.6226C43.521 28.1647 42.6763 26.0985 42.5867 26.0311C42.4284 25.9124 21.092 17.3599 20.9942 17.3761C20.9674 17.3804 20.8768 17.4084 20.7929 17.4381ZM31.4181 23.2557C36.8985 25.4471 41.4074 27.2803 41.4379 27.3296C41.4685 27.3788 42.1975 29.2512 43.058 31.4905L44.6225 35.5618L40.0859 40.0937L35.5492 44.6254L31.4735 43.0626C29.2318 42.203 27.3574 41.4748 27.3081 41.4442C27.2589 41.4137 25.4006 36.8485 23.1785 31.2993L19.1385 21.2099L19.357 20.9918L19.5755 20.7735L24.8225 26.0149L30.0695 31.2563L29.8086 31.7012C29.2699 32.6196 29.0821 34.1164 29.3704 35.1931C30.0073 37.5712 32.3745 39.1204 34.7495 38.7136C36.7763 38.3664 38.3568 36.7876 38.7043 34.763C39.1116 32.3911 37.5634 30.0229 35.1935 29.3926C34.1005 29.1019 32.608 29.2869 31.6845 29.8274L31.239 30.088L25.9957 24.8503L20.7523 19.6125L20.9465 19.3982C21.0534 19.2803 21.2112 19.2035 21.2973 19.2275C21.3833 19.2516 25.9377 21.0643 31.4181 23.2557ZM3.05487 26.86C3.55929 27.3638 3.2019 28.2358 2.49108 28.2358C1.80517 28.2358 1.4009 27.2934 1.88102 26.8138C2.17324 26.5219 2.73876 26.5442 3.05487 26.86ZM35.0639 31.0396C35.7187 31.2625 36.5665 32.0563 36.8672 32.7281C37.1871 33.4425 37.1969 34.5735 36.889 35.2563C36.5876 35.9248 36.0153 36.5139 35.3521 36.838C34.5782 37.2163 33.5053 37.2327 32.7124 36.8784C32.0399 36.578 31.2452 35.7311 31.0222 35.077C30.8366 34.5329 30.8105 33.6446 30.9639 33.093C31.2068 32.2193 32.1723 31.2358 33.0312 30.9871C33.5463 30.838 34.5475 30.8638 35.0639 31.0396ZM48.1439 37.9752C48.9548 38.3845 49.6515 38.7499 49.6921 38.7872C49.7327 38.8245 47.2981 41.3199 44.2819 44.3325C41.2656 47.3452 38.7782 49.7892 38.7543 49.7637C38.7304 49.7381 38.267 48.8301 37.7248 47.7458L36.7387 45.7743L41.2351 41.282L45.7314 36.7897L46.2005 37.0103C46.4585 37.1316 47.333 37.5658 48.1439 37.9752ZM16.1163 48.8015L14.8956 50.021L13.702 48.8286L12.5084 47.6362L13.7258 46.4168L14.9433 45.1974L16.1402 46.3898L17.337 47.5822L16.1163 48.8015Z" fill="#E58B0A"/>
</svg>
