<svg width="57" height="50" viewBox="0 0 57 50" fill="none" xmlns="http://www.w3.org/2000/svg">
<path fill-rule="evenodd" clip-rule="evenodd" d="M7.67091 0.207074C6.37211 0.654677 5.46549 1.51716 4.92828 2.81591L4.63596 3.52247L4.63308 13.9331L4.63008 24.3437L5.01512 24.6658C5.44109 25.0223 5.70763 25.0614 6.1978 24.8393C6.88405 24.5284 6.88255 24.5438 6.88255 17.6524V11.2998H30.9089H54.9352V25.1164C54.9352 37.3057 54.9125 38.9874 54.7415 39.3939C54.4832 40.0089 54.1019 40.4029 53.4962 40.6809C53.0203 40.8992 52.3828 40.9107 40.5661 40.9133L28.1366 40.916L27.7708 41.2798C27.2782 41.7697 27.2789 42.303 27.7732 42.7944L28.1412 43.1605L40.884 43.1271L53.6267 43.0937L54.4527 42.6893C55.432 42.2098 56.201 41.4287 56.6671 40.4401L57 39.7339V21.566V3.39803L56.6466 2.63772C56.2236 1.72746 55.3797 0.869456 54.4347 0.388504L53.7464 0.0382119L31.034 0.0104623C9.43472 -0.0159185 8.28971 -0.00633706 7.67091 0.207074ZM53.269 2.34828C53.7698 2.53643 54.3032 3.06753 54.5728 3.64691C54.7733 4.07759 54.805 4.47604 54.8073 6.60231L54.8101 9.05995H30.777H6.74389L6.78194 6.34335L6.81998 3.62687L7.18087 3.15662C7.37934 2.89804 7.77352 2.58185 8.05683 2.45392C8.55363 2.22956 9.35951 2.22123 30.7443 2.21861C46.1122 2.21675 53.0249 2.25644 53.269 2.34828ZM10.9316 4.5792C10.353 4.81127 10.0837 5.63543 10.3964 6.21655C10.609 6.61152 11.2866 6.8421 11.756 6.67933C12.6071 6.38442 12.742 5.16418 11.9751 4.69916C11.5414 4.43622 11.3443 4.41357 10.9316 4.5792ZM15.5796 4.57074C14.4197 5.05517 14.7105 6.72052 15.955 6.72052C16.5968 6.72052 17.0437 6.27616 17.0437 5.63791C17.0437 4.88307 16.2379 4.29573 15.5796 4.57074ZM19.9938 4.64975C19.13 5.1159 19.1883 6.26906 20.0945 6.64561C20.4654 6.79967 20.5796 6.79967 20.9505 6.64561C21.8706 6.26334 21.9143 5.10072 21.0256 4.64366C20.5781 4.41357 20.4298 4.41444 19.9938 4.64975ZM11.8771 16.0636C11.2934 16.5093 11.2386 17.2684 11.7533 17.7802L12.119 18.1439H30.7034C42.2339 18.1439 49.4073 18.0987 49.6028 18.0248C50.3321 17.7491 50.4721 16.6483 49.8406 16.1544C49.5232 15.906 49.3719 15.904 30.7981 15.908C16.2781 15.911 12.0312 15.946 11.8771 16.0636ZM23.1865 23.0281C22.6296 23.6332 22.7342 24.4586 23.412 24.8072C23.9404 25.079 49.1398 25.079 49.6681 24.8072C50.346 24.4586 50.4506 23.6332 49.8936 23.0281L49.6358 22.7481H36.5401H23.4443L23.1865 23.0281ZM9.88309 25.3384C9.68274 25.4998 9.54447 25.8406 9.40006 26.5289L9.19759 27.4934L8.40722 27.8085L7.61685 28.1236L6.85001 27.5886C5.61228 26.7253 5.53895 26.7499 3.61909 28.6745C1.71601 30.5822 1.71038 30.599 2.56619 31.8455L3.13081 32.6679L2.79619 33.401C2.61211 33.8043 2.40726 34.1699 2.34094 34.2136C2.27462 34.2572 1.93725 34.3303 1.59124 34.376C0.735682 34.4888 0.303708 34.7358 0.138652 35.2067C0.0603161 35.4302 0 36.4388 0 37.5249C0 40.1774 0.130017 40.4165 1.67584 40.6087L2.38887 40.6973L2.7554 41.5013L3.12205 42.3051L2.56206 43.1183C1.69373 44.3794 1.70162 44.4023 3.66539 46.3551C5.61541 48.2943 5.6328 48.3003 6.88392 47.4702L7.69594 46.9314L8.46591 47.2785L9.23588 47.6256L9.38416 48.4999C9.50655 49.2219 9.59752 49.4286 9.90649 49.687C10.2754 49.9958 10.3106 50 12.5137 50C14.7169 50 14.7521 49.9958 15.121 49.687C15.4299 49.4286 15.5209 49.2219 15.6433 48.4999L15.7916 47.6256L16.5615 47.2785L17.3315 46.9314L18.1435 47.4702C19.3946 48.3003 19.412 48.2943 21.362 46.3551C23.3263 44.4018 23.3338 44.3796 22.4638 43.1161L21.9024 42.3007L22.2637 41.4998L22.6251 40.6989L23.3448 40.6095C24.9009 40.4162 25.0274 40.1826 25.0274 37.5023C25.0274 34.8318 24.8964 34.5522 23.5635 34.3763C23.2162 34.3304 22.8741 34.2572 22.8031 34.2136C22.7323 34.1699 22.5275 33.8042 22.3481 33.4009L22.022 32.6674L22.5865 31.8454C23.3853 30.6819 23.3601 30.5252 22.1806 29.3166C21.6472 28.7702 20.8804 28.0373 20.4766 27.6883C19.5332 26.8727 19.223 26.8593 18.1774 27.5886L17.4106 28.1236L16.6202 27.8085L15.8299 27.4934L15.6286 26.5345C15.3294 25.1095 15.3497 25.1185 12.4963 25.1152C10.4263 25.1128 10.1322 25.1378 9.88309 25.3384ZM13.5912 27.946C13.6681 28.3752 13.8224 28.8268 13.934 28.9494C14.0457 29.0719 14.4615 29.2734 14.8583 29.3968C15.255 29.5203 15.9492 29.8108 16.4011 30.0423C16.853 30.2739 17.3394 30.4633 17.482 30.4633C17.6247 30.4633 18.036 30.2618 18.396 30.0155L19.0506 29.5677L19.7186 30.2237L20.3867 30.8799L19.9541 31.466C19.4052 32.2095 19.403 32.5981 19.9419 33.6706C20.1731 34.1309 20.4599 34.8036 20.5792 35.1655C20.7003 35.5332 20.9183 35.9032 21.0734 36.0041C21.2853 36.1424 22.4119 36.4363 22.7294 36.4363C22.7544 36.4363 22.775 36.8814 22.775 37.4256V38.4147L22.0322 38.5601C21.1489 38.7329 20.8917 38.9761 20.5931 39.9205C20.4741 40.297 20.2124 40.9088 20.0116 41.2804C19.5239 42.1826 19.5379 42.6648 20.073 43.4054L20.4996 43.9958L19.8376 44.6458L19.1758 45.2959L18.5212 44.848C18.1612 44.6018 17.7329 44.4003 17.5695 44.4003C17.4062 44.4003 16.9019 44.5958 16.4489 44.8348C15.9959 45.0738 15.3263 45.3557 14.9609 45.4614C14.1056 45.7086 13.8783 45.9732 13.7057 46.9228L13.5646 47.6979H12.575H11.5855L11.4408 46.9795C11.2636 46.1005 11.0217 45.8185 10.2489 45.5903C9.92038 45.4934 9.25077 45.2139 8.76086 44.9694C8.27082 44.7248 7.73786 44.5247 7.57643 44.5247C7.41513 44.5247 6.98629 44.7233 6.62351 44.9661L5.96391 45.4076L5.30231 44.7578L4.64071 44.1081L5.07331 43.522C5.62379 42.7764 5.62467 42.3885 5.07844 41.3099C4.84331 40.8456 4.55725 40.1454 4.44287 39.7539C4.19823 38.9173 3.98975 38.7529 2.90944 38.5452L2.12733 38.3949V37.4778C2.12733 36.9734 2.14785 36.5607 2.17288 36.5607C2.49036 36.5607 3.61697 36.2668 3.82895 36.1285C3.98399 36.0276 4.20198 35.6577 4.32312 35.29C4.44237 34.9281 4.72919 34.2554 4.96044 33.7951C5.50416 32.7128 5.50241 32.275 4.95143 31.5574L4.52196 30.9981L5.19832 30.3338L5.87469 29.6696L6.41941 30.0586C7.26659 30.6636 7.50335 30.6778 8.47604 30.182C8.94168 29.9446 9.70389 29.6259 10.1699 29.4737C11.1229 29.1624 11.2938 28.9533 11.4461 27.9123C11.496 27.5701 11.5644 27.2458 11.598 27.1915C11.6316 27.1373 12.0622 27.1093 12.555 27.1293L13.4511 27.1657L13.5912 27.946ZM28.0719 29.6477C27.1456 30.0517 27.1748 31.3037 28.1196 31.6926C28.3764 31.7984 31.2558 31.8276 39.0088 31.8031L49.5487 31.7699L49.8895 31.431C50.3555 30.9675 50.3555 30.3324 49.8895 29.8688L49.5487 29.53L39.0088 29.5022C30.2343 29.4792 28.4023 29.5036 28.0719 29.6477ZM11.1064 31.9593C9.61892 32.3324 8.05533 33.6022 7.40287 34.9672C6.29903 37.2759 6.73538 39.7675 8.55638 41.5527C10.7607 43.7136 14.3974 43.6725 16.5735 41.4619C19.3412 38.6503 18.5082 34.0506 14.9249 32.3585C14.0887 31.9635 13.8652 31.9136 12.7833 31.8796C12.1188 31.8587 11.3642 31.8945 11.1064 31.9593ZM14.1355 34.5168C15.2569 35.1237 15.8924 36.1781 15.8924 37.4313C15.8924 38.8367 15.2403 39.9195 14.0414 40.505C12.2138 41.3975 9.93314 40.5037 9.31471 38.6524C9.00124 37.7139 9.11725 36.4847 9.59139 35.7184C9.96843 35.1091 10.8735 34.4103 11.5583 34.2C12.2547 33.9861 13.4195 34.1293 14.1355 34.5168Z" fill="#0AA68A"/>
</svg>
