<svg width="49" height="50" viewBox="0 0 49 50" fill="none" xmlns="http://www.w3.org/2000/svg">
<path fill-rule="evenodd" clip-rule="evenodd" d="M29.009 0.195342C28.4663 0.466778 28.2437 0.875049 27.945 2.14663C26.7677 7.15816 17.6578 48.0777 17.6578 48.3542C17.6578 48.8587 18.1282 49.6126 18.578 49.8293C19.4356 50.2423 20.4533 49.8819 20.9005 49.0067C21.1232 48.5709 31.5144 2.23078 31.5139 1.67563C31.5129 0.402491 30.1752 -0.388046 29.009 0.195342ZM34.0889 13.614C32.9605 14.3125 32.8864 15.611 33.9218 16.5474C34.2154 16.813 36.6866 18.8133 39.4135 20.9925C42.1402 23.1717 44.3716 24.9798 44.3719 25.0105C44.3722 25.0412 41.9243 27.0151 38.932 29.397C35.9397 31.7789 33.4116 33.8513 33.314 34.0026C33.0387 34.4289 32.997 35.1788 33.2219 35.6598C33.6374 36.5485 34.6911 36.9587 35.4734 36.5362C35.8584 36.3283 47.7882 26.9273 48.3774 26.3674C48.8123 25.9542 49 25.5452 49 25.0105C49 24.4583 48.811 24.0658 48.322 23.6027C47.9857 23.2841 37.868 15.1736 36.2649 13.9375C35.6427 13.4578 35.5131 13.403 35.0002 13.4034C34.6346 13.4037 34.3062 13.4795 34.0889 13.614ZM13.8924 15.4388C13.4223 15.6582 0.407872 26.11 0.195845 26.4384C-0.0827154 26.87 -0.0598412 27.9157 0.237195 28.3227C0.363773 28.4961 3.45675 31.0121 7.11048 33.9138C12.6315 38.2987 13.8496 39.2187 14.3206 39.3597C15.0107 39.5664 15.3561 39.4911 15.8389 39.0289C16.5412 38.3568 16.5796 37.2365 15.9242 36.5431C15.7587 36.3679 13.1336 34.243 10.0904 31.821L4.55757 27.4173L4.81172 27.2237C6.56105 25.8911 15.8801 18.2892 16.0521 18.0546C16.2252 17.8185 16.2832 17.5754 16.2832 17.0861C16.2832 16.3857 16.1027 16.0233 15.5423 15.5986C15.1909 15.3324 14.3043 15.2465 13.8924 15.4388Z" fill="#2DBED2"/>
</svg>
