<svg width="52" height="51" viewBox="0 0 52 51" fill="none" xmlns="http://www.w3.org/2000/svg">
<path fill-rule="evenodd" clip-rule="evenodd" d="M19.6625 0.404256C18.6165 0.951067 17.0891 2.46803 16.5544 3.4909C15.8457 4.8466 15.6528 5.66107 15.6641 7.24868C15.6728 8.45031 15.7139 8.76393 15.9593 9.50335C16.3425 10.6576 16.9059 11.5771 17.8389 12.5711C18.9366 13.7405 18.9964 13.8796 19.0469 15.3816L19.0895 16.6431H18.5293C18.2211 16.6431 17.8738 16.6937 17.7574 16.7554C17.492 16.8962 13.8667 24.0486 13.8667 24.4314C13.8667 24.582 13.9864 24.8238 14.1326 24.9688C14.3887 25.2227 14.4523 25.2323 15.866 25.2323H17.3333V30.4799V35.7276L16.4667 35.9433L15.6 36.159V35.2538C15.6 34.4359 15.5743 34.3232 15.334 34.0851L15.0682 33.8216H11.2667H7.46514L7.19929 34.0851C6.98089 34.3015 6.93333 34.455 6.93333 34.9441V35.5394H3.73263H0.531808L0.265958 35.803L0 36.0665V42.4108V48.7551L0.265958 49.0186L0.531808 49.2822H3.73263H6.93333V49.8775C6.93333 50.3665 6.98089 50.5201 7.19929 50.7364L7.46514 51H11.2667H15.0682L15.334 50.7364C15.5662 50.5064 15.6 50.3765 15.6 49.7152V48.9574L16.3707 49.3421C17.9855 50.1479 17.9053 50.1413 25.9361 50.1395C33.7099 50.1377 33.8386 50.1293 35.0208 49.5364C35.3325 49.3801 37.9519 47.8991 40.8417 46.2452C43.7315 44.5914 47.0221 42.7111 48.1542 42.0669C51.1166 40.381 51.6764 39.7284 51.6739 37.9629C51.6717 36.4039 50.6752 35.1317 49.154 34.746L48.5875 34.6023L48.5592 29.9173L48.5311 25.2323H49.9996C51.4144 25.2323 51.4779 25.2227 51.734 24.9688C51.8803 24.8238 52 24.582 52 24.4314C52 24.0486 48.3746 16.8962 48.1093 16.7554C47.9929 16.6937 47.6849 16.6431 47.425 16.6431C47.0162 16.6431 46.895 16.5851 46.5292 16.2137L46.106 15.7842H47.0538C47.9156 15.7842 48.0256 15.7603 48.2674 15.5206C48.5312 15.2593 48.5333 15.2405 48.5333 13.2074C48.5333 11.1744 48.5312 11.1556 48.2674 10.8943C48.0256 10.6545 47.9157 10.6307 47.0518 10.6307H46.1021L46.7761 9.95675C47.8036 8.92927 47.7914 8.88417 46.0101 7.11888C44.2289 5.35358 44.1834 5.34144 43.1467 6.3598L42.4667 7.02772V6.08656C42.4667 5.23032 42.4426 5.12145 42.2007 4.88181C41.937 4.62038 41.9181 4.61823 39.8667 4.61823C37.8153 4.61823 37.7963 4.62038 37.5326 4.88181C37.2907 5.12145 37.2667 5.23032 37.2667 6.08656V7.02772L36.5867 6.3598C35.5499 5.34144 35.5044 5.35358 33.7232 7.11888C31.942 8.88417 31.9297 8.92927 32.9573 9.95675L33.6312 10.6307H32.6816C31.8176 10.6307 31.7078 10.6545 31.466 10.8943C31.2022 11.1556 31.2 11.1744 31.2 13.2074C31.2 15.2405 31.2022 15.2593 31.466 15.5206C31.7078 15.7603 31.8177 15.7842 32.6795 15.7842H33.6273L33.2042 16.2137L32.781 16.6431H30.2458H27.7105L27.7531 15.3816C27.804 13.8723 27.8762 13.7041 28.9668 12.5596C29.8854 11.5955 30.4531 10.6699 30.8414 9.50335C31.0883 8.76156 31.1285 8.45407 31.136 7.24868C31.1458 5.65914 30.951 4.83833 30.2442 3.4909C29.7025 2.45858 28.2812 1.04136 27.1917 0.447309C26.1989 -0.0939185 25.6937 -0.138797 25.3579 0.284436C25.1425 0.555748 25.1333 0.69382 25.1333 3.65291V6.73848L24.2667 7.30236L23.4 7.86624L22.5333 7.30236L21.6667 6.73848V3.65291C21.6667 0.69382 21.6575 0.555748 21.4421 0.284436C21.1187 -0.123122 20.6049 -0.0885504 19.6625 0.404256ZM20.0192 7.70391C20.0316 7.71797 20.7361 8.18909 21.5849 8.75072C22.5107 9.36335 23.2369 9.77176 23.4 9.77176C23.5632 9.77176 24.2893 9.36335 25.2151 8.75072C26.0639 8.18909 26.7684 7.71797 26.7808 7.70391C26.793 7.68974 26.8296 6.4487 26.862 4.94602L26.9208 2.214L27.6518 2.93861C29.3097 4.58227 29.8847 7.03642 29.1084 9.15592C28.7412 10.1587 28.4061 10.672 27.4251 11.7347C26.2627 12.9939 26.0841 13.4449 26.0235 15.2742L25.9782 16.6431H25.1225H24.2667V15.1889C24.2667 13.7879 24.2569 13.7248 24.0007 13.471C23.8331 13.3048 23.611 13.2074 23.4 13.2074C23.189 13.2074 22.9669 13.3048 22.7993 13.471C22.5431 13.7248 22.5333 13.7879 22.5333 15.1889V16.6431H21.6667H20.8V15.4734C20.8 13.5729 20.4426 12.7321 19.045 11.3447C17.9847 10.2921 17.3307 8.66676 17.335 7.09472C17.339 5.60954 18.0299 4.03417 19.1746 2.90039L19.8792 2.20252L19.938 4.94033C19.9704 6.44613 20.007 7.68974 20.0192 7.70391ZM40.7368 7.49025C40.7391 8.27284 40.786 8.70423 40.8825 8.83017C41.0478 9.04587 41.8858 9.44387 42.182 9.4473C42.2936 9.44859 42.7834 9.06401 43.2707 8.59268L44.1566 7.7358L44.7738 8.354L45.3912 8.97232L44.5749 9.77466C44.1259 10.2159 43.7318 10.6815 43.6992 10.809C43.629 11.0829 44.0119 11.9964 44.2821 12.1997C44.4107 12.2965 44.8418 12.3428 45.6354 12.3451L46.8 12.3485V13.2074V14.0664L45.6354 14.0698C44.3127 14.0737 44.2034 14.1209 43.8796 14.8281C43.577 15.4892 43.5986 15.6175 44.1054 16.1624L44.5526 16.6431L42.4533 16.6322C41.2988 16.6261 40.5035 16.5857 40.6859 16.5424C41.2019 16.42 42.1315 15.8808 42.4275 15.5322C42.5748 15.3587 42.8244 14.9701 42.982 14.6684C43.225 14.2037 43.2693 13.9808 43.2721 13.2074C43.2748 12.4511 43.2298 12.2029 43.009 11.758C42.6691 11.073 42.0194 10.4293 41.3292 10.094C40.5514 9.71604 39.1819 9.71604 38.4042 10.094C35.5904 11.4612 35.8276 15.4389 38.7839 16.464C39.2593 16.629 39.2228 16.633 37.2258 16.638L35.1807 16.6431L35.6279 16.1624C36.1347 15.6175 36.1564 15.4892 35.8538 14.8281C35.53 14.1209 35.4207 14.0737 34.0979 14.0698L32.9333 14.0664V13.2074V12.3485H34.0116C34.6046 12.3485 35.2107 12.294 35.3585 12.2272C35.624 12.1073 36.075 11.2676 36.075 10.8929C36.075 10.7933 35.6859 10.3167 35.2103 9.83382L34.3457 8.95589L34.9695 8.34413L35.5933 7.73225L36.4029 8.54125C36.8482 8.98628 37.3164 9.37644 37.4435 9.40844C37.7876 9.49508 38.733 9.05413 38.8776 8.73955C38.945 8.59311 39 7.9924 39 7.40468V6.33608H39.8667H40.7333L40.7368 7.49025ZM40.5523 11.6361C41.6653 12.097 41.9367 13.5432 41.0711 14.4011C40.3684 15.0975 39.365 15.0975 38.6622 14.4011C37.3226 13.0733 38.8008 10.9108 40.5523 11.6361ZM30.225 20.9377L28.9241 23.5145H22.5325H16.1408L17.4417 20.9377L18.7425 18.361H25.1342H31.5259L30.225 20.9377ZM48.425 20.9377L49.7259 23.5145H43.3342H36.9425L35.6417 20.9377L34.3408 18.361H40.7325H47.1241L48.425 20.9377ZM32.0201 37.3392C31.9937 37.3654 29.9337 36.8428 27.4424 36.178C22.2458 34.7913 21.603 34.6973 19.9604 35.084L19.0667 35.2944V30.2634V25.2323H24.405C28.8027 25.2323 29.7812 25.2059 29.9571 25.0823C30.0746 24.9997 30.5852 24.1036 31.0917 23.091L32.0125 21.2496L32.0402 29.2707C32.0555 33.6822 32.0465 37.3131 32.0201 37.3392ZM35.9578 25.1203C36.0963 25.1938 37.9989 25.2323 41.4856 25.2323H46.8022L46.774 30.0807L46.7458 34.929L42.4369 37.3937L38.1279 39.8584L37.606 39.3745C36.9171 38.7359 36.6923 38.6313 35.1271 38.2214L33.8 37.8739L33.8057 29.5401L33.8115 21.2062L34.7789 23.1072C35.311 24.1527 35.8415 25.0586 35.9578 25.1203ZM13.8667 42.4108V49.2822H11.2667H8.66667V42.4108V35.5394H11.2667H13.8667V42.4108ZM49.1288 36.6002C49.3074 36.7022 49.5676 36.9522 49.7071 37.1557C49.9164 37.4608 49.9535 37.6303 49.9187 38.1232C49.8918 38.5035 49.7941 38.8353 49.6498 39.0358C49.4921 39.2551 47.1421 40.6563 41.9193 43.6455C37.7921 46.0075 34.1916 48.0367 33.9181 48.1548C33.4402 48.3612 33.1419 48.3708 26.2708 48.4037C21.0312 48.4287 18.9616 48.4037 18.525 48.31C18.1973 48.2396 17.4052 47.9219 16.7646 47.6039L15.6 47.0257V42.4769V37.9282L18.2526 37.2707C20.1823 36.7923 21.1031 36.6131 21.6315 36.6131C22.227 36.6131 23.5297 36.9232 28.8642 38.3349C32.4429 39.2819 35.5788 40.1317 35.8331 40.2233C36.4727 40.4539 36.8598 40.9821 36.9109 41.6938C36.9827 42.6962 36.2567 43.4854 35.2642 43.4837C35.0249 43.4834 32.4698 42.8553 29.5861 42.0879C26.7023 41.3207 24.2592 40.6929 24.1569 40.6929C24.0546 40.6929 23.8424 40.7931 23.6855 40.9155C23.3254 41.1962 23.2858 41.8456 23.611 42.1373C23.8485 42.3502 23.8966 42.3641 30.1665 44.0242C34.3853 45.1411 34.7671 45.2241 35.4748 45.178C37.1825 45.067 38.4776 43.8132 38.665 42.0893L38.7292 41.4996L43.1708 38.9562C45.6138 37.5573 47.71 36.3906 47.8292 36.3633C48.1673 36.2861 48.7723 36.3963 49.1288 36.6002ZM6.93333 42.4108V47.5643H4.33333H1.73333V42.4108V37.2573H4.33333H6.93333V42.4108Z" fill="#56A409"/>
</svg>
