<svg width="102" height="116" viewBox="0 0 102 116" fill="none" xmlns="http://www.w3.org/2000/svg">
<g filter="url(#filter0_d_808_75)">
<path d="M52 4L84.8369 19.8134L92.947 55.3459L70.2231 83.8407H33.7769L11.053 55.3459L19.1631 19.8134L52 4Z" fill="white"/>
</g>
<path d="M10.583 104.638H8.92103C8.85711 104.283 8.73815 103.971 8.56414 103.701C8.39014 103.431 8.17707 103.202 7.92494 103.014C7.67281 102.826 7.39049 102.684 7.07799 102.588C6.76904 102.492 6.44056 102.444 6.09255 102.444C5.464 102.444 4.90115 102.602 4.40399 102.918C3.91038 103.234 3.51975 103.697 3.23211 104.308C2.94802 104.919 2.80597 105.665 2.80597 106.545C2.80597 107.433 2.94802 108.183 3.23211 108.793C3.51975 109.404 3.91215 109.866 4.40931 110.178C4.90647 110.491 5.46578 110.647 6.08722 110.647C6.43169 110.647 6.75839 110.601 7.06734 110.509C7.37984 110.413 7.66215 110.272 7.91428 110.088C8.16642 109.903 8.37948 109.678 8.55349 109.411C8.73105 109.141 8.85356 108.832 8.92103 108.484L10.583 108.49C10.4942 109.026 10.322 109.52 10.0663 109.971C9.81414 110.418 9.48921 110.805 9.09149 111.132C8.69731 111.455 8.24632 111.705 7.7385 111.883C7.23069 112.06 6.67671 112.149 6.07657 112.149C5.13197 112.149 4.29035 111.925 3.55171 111.478C2.81308 111.027 2.23069 110.382 1.80455 109.544C1.38197 108.706 1.17068 107.707 1.17068 106.545C1.17068 105.381 1.38374 104.381 1.80988 103.547C2.23602 102.708 2.8184 102.066 3.55704 101.618C4.29568 101.167 5.13552 100.942 6.07657 100.942C6.65541 100.942 7.19518 101.025 7.69589 101.192C8.20015 101.355 8.65292 101.597 9.0542 101.917C9.45548 102.233 9.78751 102.62 10.0503 103.078C10.3131 103.532 10.4906 104.053 10.583 104.638ZM13.4607 115.068C13.2228 115.068 13.0062 115.049 12.8109 115.01C12.6155 114.974 12.4699 114.935 12.3741 114.892L12.7576 113.587C13.0488 113.665 13.308 113.699 13.5353 113.689C13.7626 113.678 13.9632 113.593 14.1372 113.433C14.3148 113.273 14.471 113.012 14.606 112.65L14.803 112.107L11.8094 103.818H13.514L15.5861 110.168H15.6713L17.7434 103.818H19.4533L16.0815 113.092C15.9252 113.518 15.7263 113.879 15.4849 114.173C15.2434 114.472 14.9557 114.695 14.6219 114.844C14.2881 114.994 13.9011 115.068 13.4607 115.068ZM21.0779 112V101.091H22.6706V105.145H22.7665C22.8588 104.974 22.992 104.777 23.166 104.553C23.34 104.33 23.5815 104.134 23.8904 103.967C24.1994 103.797 24.6077 103.712 25.1155 103.712C25.7761 103.712 26.3655 103.879 26.884 104.212C27.4025 104.546 27.8091 105.027 28.1038 105.656C28.4021 106.284 28.5513 107.041 28.5513 107.925C28.5513 108.809 28.4039 109.567 28.1092 110.2C27.8144 110.828 27.4096 111.313 26.8947 111.654C26.3797 111.991 25.792 112.16 25.1315 112.16C24.6344 112.16 24.2278 112.076 23.9117 111.909C23.5992 111.743 23.3542 111.547 23.1766 111.324C22.9991 111.1 22.8623 110.901 22.7665 110.727H22.6333V112H21.0779ZM22.6386 107.909C22.6386 108.484 22.7221 108.989 22.889 109.422C23.0559 109.855 23.2974 110.194 23.6134 110.439C23.9295 110.681 24.3165 110.801 24.7746 110.801C25.2505 110.801 25.6482 110.675 25.9678 110.423C26.2874 110.168 26.5289 109.821 26.6922 109.385C26.8592 108.948 26.9426 108.456 26.9426 107.909C26.9426 107.369 26.8609 106.885 26.6976 106.455C26.5378 106.025 26.2963 105.686 25.9731 105.438C25.6535 105.189 25.254 105.065 24.7746 105.065C24.313 105.065 23.9224 105.184 23.6028 105.422C23.2867 105.659 23.047 105.991 22.8837 106.418C22.7203 106.844 22.6386 107.341 22.6386 107.909ZM33.866 112.165C33.0599 112.165 32.3656 111.993 31.7832 111.648C31.2044 111.3 30.757 110.812 30.4409 110.184C30.1284 109.551 29.9722 108.811 29.9722 107.962C29.9722 107.124 30.1284 106.386 30.4409 105.746C30.757 105.107 31.1973 104.608 31.7619 104.25C32.3301 103.891 32.9942 103.712 33.7541 103.712C34.2158 103.712 34.6632 103.788 35.0965 103.941C35.5297 104.093 35.9185 104.333 36.263 104.66C36.6075 104.987 36.8791 105.411 37.078 105.933C37.2769 106.451 37.3763 107.082 37.3763 107.824V108.388H30.8724V107.195H35.8156C35.8156 106.776 35.7303 106.405 35.5599 106.082C35.3894 105.755 35.1497 105.498 34.8408 105.31C34.5354 105.121 34.1767 105.027 33.7648 105.027C33.3173 105.027 32.9267 105.137 32.5929 105.358C32.2627 105.574 32.007 105.858 31.8259 106.21C31.6483 106.558 31.5595 106.936 31.5595 107.344V108.277C31.5595 108.824 31.6554 109.289 31.8472 109.672C32.0425 110.056 32.3141 110.349 32.6622 110.551C33.0102 110.75 33.4168 110.849 33.882 110.849C34.1838 110.849 34.459 110.807 34.7076 110.722C34.9562 110.633 35.171 110.501 35.3521 110.327C35.5332 110.153 35.6717 109.939 35.7676 109.683L37.2751 109.955C37.1543 110.398 36.9377 110.787 36.6252 111.121C36.3163 111.451 35.9274 111.709 35.4587 111.893C34.9935 112.075 34.4626 112.165 33.866 112.165ZM39.1434 112V103.818H40.6828V105.118H40.7681C40.9172 104.678 41.18 104.331 41.5564 104.079C41.9364 103.824 42.3661 103.696 42.8455 103.696C42.9449 103.696 43.0621 103.699 43.197 103.706C43.3355 103.713 43.4438 103.722 43.522 103.733V105.256C43.4581 105.239 43.3444 105.219 43.1811 105.198C43.0177 105.173 42.8544 105.161 42.691 105.161C42.3146 105.161 41.979 105.24 41.6843 105.4C41.3931 105.556 41.1622 105.775 40.9918 106.055C40.8213 106.332 40.7361 106.648 40.7361 107.004V112H39.1434ZM51.0313 105.816L49.5878 106.071C49.5274 105.887 49.4315 105.711 49.3001 105.544C49.1723 105.377 48.9983 105.24 48.7781 105.134C48.5579 105.027 48.2827 104.974 47.9525 104.974C47.5015 104.974 47.125 105.075 46.8232 105.278C46.5214 105.477 46.3704 105.734 46.3704 106.05C46.3704 106.324 46.4716 106.544 46.6741 106.711C46.8765 106.877 47.2032 107.014 47.6542 107.121L48.9539 107.419C49.7067 107.593 50.2678 107.861 50.6371 108.223C51.0064 108.586 51.1911 109.056 51.1911 109.635C51.1911 110.125 51.0491 110.562 50.765 110.945C50.4844 111.325 50.092 111.624 49.5878 111.84C49.087 112.057 48.5064 112.165 47.8459 112.165C46.9297 112.165 46.1822 111.97 45.6034 111.579C45.0245 111.185 44.6694 110.626 44.538 109.901L46.0775 109.667C46.1733 110.068 46.3704 110.372 46.6687 110.578C46.967 110.78 47.3559 110.881 47.8353 110.881C48.3573 110.881 48.7745 110.773 49.087 110.556C49.3995 110.336 49.5558 110.068 49.5558 109.752C49.5558 109.496 49.4599 109.282 49.2682 109.108C49.0799 108.934 48.7905 108.802 48.3999 108.713L47.015 108.41C46.2515 108.236 45.6868 107.959 45.3211 107.579C44.9589 107.199 44.7777 106.718 44.7777 106.135C44.7777 105.652 44.9127 105.23 45.1826 104.868C45.4525 104.505 45.8253 104.223 46.3012 104.021C46.777 103.815 47.3221 103.712 47.9365 103.712C48.8207 103.712 49.5167 103.903 50.0245 104.287C50.5324 104.667 50.8679 105.176 51.0313 105.816ZM56.4685 112.165C55.6624 112.165 54.9682 111.993 54.3858 111.648C53.807 111.3 53.3595 110.812 53.0435 110.184C52.731 109.551 52.5747 108.811 52.5747 107.962C52.5747 107.124 52.731 106.386 53.0435 105.746C53.3595 105.107 53.7998 104.608 54.3645 104.25C54.9327 103.891 55.5967 103.712 56.3567 103.712C56.8183 103.712 57.2658 103.788 57.699 103.941C58.1322 104.093 58.5211 104.333 58.8655 104.66C59.21 104.987 59.4817 105.411 59.6805 105.933C59.8794 106.451 59.9788 107.082 59.9788 107.824V108.388H53.4749V107.195H58.4181C58.4181 106.776 58.3329 106.405 58.1624 106.082C57.992 105.755 57.7523 105.498 57.4433 105.31C57.1379 105.121 56.7793 105.027 56.3673 105.027C55.9199 105.027 55.5293 105.137 55.1954 105.358C54.8652 105.574 54.6095 105.858 54.4284 106.21C54.2508 106.558 54.1621 106.936 54.1621 107.344V108.277C54.1621 108.824 54.2579 109.289 54.4497 109.672C54.645 110.056 54.9167 110.349 55.2647 110.551C55.6127 110.75 56.0193 110.849 56.4845 110.849C56.7864 110.849 57.0616 110.807 57.3101 110.722C57.5587 110.633 57.7736 110.501 57.9547 110.327C58.1358 110.153 58.2743 109.939 58.3702 109.683L59.8776 109.955C59.7569 110.398 59.5403 110.787 59.2278 111.121C58.9188 111.451 58.53 111.709 58.0612 111.893C57.596 112.075 57.0651 112.165 56.4685 112.165ZM65.1923 112.165C64.4004 112.165 63.7186 111.986 63.1469 111.627C62.5787 111.265 62.1419 110.766 61.8365 110.13C61.5311 109.495 61.3784 108.767 61.3784 107.946C61.3784 107.115 61.5347 106.382 61.8472 105.746C62.1597 105.107 62.6 104.608 63.1682 104.25C63.7364 103.891 64.4058 103.712 65.1764 103.712C65.7978 103.712 66.3518 103.827 66.8383 104.058C67.3248 104.285 67.7172 104.605 68.0155 105.017C68.3173 105.429 68.4967 105.91 68.5535 106.46H67.0034C66.9182 106.077 66.7229 105.746 66.4175 105.469C66.1156 105.192 65.7108 105.054 65.203 105.054C64.7591 105.054 64.3703 105.171 64.0364 105.406C63.7062 105.636 63.4487 105.967 63.2641 106.396C63.0794 106.822 62.9871 107.327 62.9871 107.909C62.9871 108.506 63.0776 109.021 63.2587 109.454C63.4399 109.887 63.6955 110.223 64.0258 110.461C64.3596 110.699 64.752 110.817 65.203 110.817C65.5048 110.817 65.7783 110.762 66.0233 110.652C66.2719 110.539 66.4796 110.377 66.6465 110.168C66.817 109.958 66.9359 109.706 67.0034 109.411H68.5535C68.4967 109.94 68.3244 110.413 68.0368 110.828C67.7492 111.244 67.3639 111.57 66.8809 111.808C66.4015 112.046 65.8386 112.165 65.1923 112.165ZM75.4396 108.607V103.818H77.0376V112H75.4715V110.583H75.3863C75.1981 111.02 74.8963 111.384 74.4808 111.675C74.0688 111.963 73.5557 112.107 72.9414 112.107C72.4158 112.107 71.9506 111.991 71.5458 111.76C71.1445 111.526 70.8284 111.18 70.5976 110.722C70.3703 110.263 70.2567 109.697 70.2567 109.022V103.818H71.8494V108.831C71.8494 109.388 72.0039 109.832 72.3128 110.162C72.6218 110.493 73.023 110.658 73.5166 110.658C73.8149 110.658 74.1115 110.583 74.4062 110.434C74.7045 110.285 74.9513 110.059 75.1466 109.757C75.3455 109.456 75.4431 109.072 75.4396 108.607ZM79.1776 112V103.818H80.717V105.118H80.8022C80.9514 104.678 81.2142 104.331 81.5906 104.079C81.9706 103.824 82.4003 103.696 82.8797 103.696C82.9791 103.696 83.0963 103.699 83.2312 103.706C83.3697 103.713 83.478 103.722 83.5562 103.733V105.256C83.4922 105.239 83.3786 105.219 83.2152 105.198C83.0519 105.173 82.8885 105.161 82.7252 105.161C82.3488 105.161 82.0132 105.24 81.7184 105.4C81.4272 105.556 81.1964 105.775 81.026 106.055C80.8555 106.332 80.7703 106.648 80.7703 107.004V112H79.1776ZM84.9344 112V103.818H86.5271V112H84.9344ZM85.7388 102.556C85.4618 102.556 85.2239 102.463 85.025 102.279C84.8297 102.091 84.732 101.867 84.732 101.608C84.732 101.345 84.8297 101.121 85.025 100.936C85.2239 100.748 85.4618 100.654 85.7388 100.654C86.0158 100.654 86.2519 100.748 86.4472 100.936C86.6461 101.121 86.7455 101.345 86.7455 101.608C86.7455 101.867 86.6461 102.091 86.4472 102.279C86.2519 102.463 86.0158 102.556 85.7388 102.556ZM92.489 103.818V105.097H88.0199V103.818H92.489ZM89.2184 101.858H90.8111V109.598C90.8111 109.907 90.8573 110.139 90.9496 110.295C91.0419 110.448 91.1609 110.553 91.3065 110.61C91.4557 110.663 91.6172 110.69 91.7912 110.69C91.9191 110.69 92.0309 110.681 92.1268 110.663C92.2227 110.645 92.2973 110.631 92.3505 110.62L92.6382 111.936C92.5459 111.972 92.4145 112.007 92.244 112.043C92.0736 112.082 91.8605 112.103 91.6048 112.107C91.1858 112.114 90.7951 112.039 90.4329 111.883C90.0707 111.727 89.7777 111.485 89.554 111.158C89.3303 110.832 89.2184 110.422 89.2184 109.928V101.858ZM95.2576 115.068C95.0197 115.068 94.803 115.049 94.6077 115.01C94.4124 114.974 94.2668 114.935 94.1709 114.892L94.5545 113.587C94.8457 113.665 95.1049 113.699 95.3322 113.689C95.5594 113.678 95.7601 113.593 95.9341 113.433C96.1116 113.273 96.2679 113.012 96.4028 112.65L96.5999 112.107L93.6063 103.818H95.3109L97.3829 110.168H97.4682L99.5403 103.818H101.25L97.8783 113.092C97.7221 113.518 97.5232 113.879 97.2817 114.173C97.0403 114.472 96.7526 114.695 96.4188 114.844C96.085 114.994 95.6979 115.068 95.2576 115.068Z" fill="black"/>
<path fill-rule="evenodd" clip-rule="evenodd" d="M46.2845 21.1427C45.3532 21.462 44.8942 22.053 44.6305 23.2716C44.0563 25.925 42.6875 27.5833 40.0983 28.762C38.8568 29.3272 38.3272 29.8559 38.1865 30.6707L38.1274 31.0125L33.4552 31.0613L28.7829 31.1101L28.1446 31.3934C27.2246 31.8017 26.4661 32.6128 26.1916 33.4819C25.9874 34.1288 25.9851 34.3011 26.0121 46.9294L26.0395 59.7215L26.3361 60.3021C26.7133 61.0401 27.3092 61.6128 28.0771 61.9753L28.6813 62.2604L38.0037 62.2867L47.3261 62.3132L47.3275 62.5797C47.329 62.8801 46.6324 68.9751 46.5577 69.3155C46.51 69.5326 46.4891 69.5353 44.8423 69.5353H43.175L42.9645 69.7926C42.685 70.1339 42.6985 70.4674 43.0033 70.7603L43.2526 71H52H60.7475L60.9968 70.7603C61.3016 70.4674 61.315 70.1339 61.0356 69.7926L60.8251 69.5353H59.1578C57.511 69.5353 57.4901 69.5326 57.4424 69.3155C57.3674 68.9739 56.6711 62.8796 56.6726 62.5777L56.674 62.3092H61.2463C65.6831 62.3092 65.8246 62.3034 66.0218 62.1139C66.2912 61.8549 66.2912 61.2987 66.0218 61.0397C65.8201 60.8459 65.6816 60.8444 47.5039 60.8423C29.8941 60.8402 29.1737 60.8332 28.7829 60.6593C28.5594 60.5599 28.2531 60.3521 28.1024 60.1976C27.5826 59.6648 27.5128 59.3432 27.5128 57.4786V55.7667H52H76.4873L76.485 57.4999C76.4826 59.4118 76.4012 59.7488 75.8142 60.2778C75.2252 60.8086 74.9948 60.8444 72.1677 60.8444H69.5688L69.3194 61.0842C68.9966 61.3943 68.9934 61.8154 69.3114 62.1026C69.5512 62.319 69.572 62.3203 72.4358 62.2904C75.3177 62.2604 75.319 62.2603 75.8975 61.9996C76.6348 61.6675 77.2879 61.0397 77.6648 60.3013L77.9606 59.7215L77.9878 46.936C78.0175 33.0165 78.0397 33.6152 77.4606 32.7336C77.1213 32.217 76.4418 31.6619 75.7882 31.3674L75.2172 31.1101L70.5867 31.0812L65.9561 31.0522L65.83 30.5792C65.6122 29.7622 65.2167 29.364 64.1276 28.865C61.4006 27.6154 59.9968 25.9829 59.4243 23.3958C59.1206 22.0228 58.6011 21.3697 57.6004 21.1026C57.0035 20.9432 46.7602 20.9795 46.2845 21.1427ZM57.3852 22.594C57.649 22.7217 57.697 22.8356 58.0937 24.2746C58.5048 25.7661 59.1857 26.9239 60.3256 28.0695C61.1496 28.8977 61.9334 29.4404 63.1488 30.0245C64.4615 30.6552 64.4639 30.6601 64.2553 32.2632C63.6757 36.7174 61.8134 40.4658 58.3237 44.2024C56.8975 45.7294 54.667 47.5594 52.7424 48.7814L52.0114 49.2455L50.8627 48.4887C49.2122 47.4013 47.8707 46.3083 46.3561 44.8169C43.8121 42.3119 42.1743 39.9365 40.9795 37.0184C40.0636 34.7815 39.3913 31.1036 39.8097 30.619C39.89 30.5261 40.2924 30.3024 40.704 30.1222C43.4746 28.9088 45.4849 26.536 46.0705 23.788C46.2786 22.8112 46.2946 22.7756 46.5965 22.6181C46.9716 22.4223 56.9845 22.3999 57.3852 22.594ZM47.885 24.0479C47.7732 24.1078 47.6686 24.1668 47.6525 24.1788C47.6364 24.1908 47.4507 24.6815 47.2399 25.2694C46.6165 27.0073 45.8025 28.2385 44.4909 29.4277C43.7184 30.128 42.8931 30.6971 42.0698 31.0973C41.1215 31.5582 41.1013 31.6792 41.6026 33.8817C42.0722 35.9446 42.9461 37.9938 44.1339 39.8167C44.871 40.9483 45.2629 41.1579 45.7558 40.6842C46.119 40.3352 46.0688 39.9985 45.5366 39.215C44.8712 38.2354 43.9437 36.3547 43.5382 35.1626C43.2175 34.2198 42.7892 32.4416 42.8713 32.3938C44.4896 31.4516 46.0116 30.1837 46.9286 29.0138C47.4874 28.3009 48.2278 26.9834 48.5898 26.0576L48.8289 25.4464L52.0237 25.4206L55.2184 25.3949L55.3461 25.8112C55.4163 26.0402 55.6457 26.5828 55.856 27.0169C56.8784 29.1272 58.6227 30.9133 61.008 32.2926C61.1898 32.3978 61.1899 32.4273 61.0118 33.2691C60.4345 35.9986 58.9972 38.8125 56.9274 41.2657C55.4168 43.0559 52.2523 45.7964 51.9076 45.6128C51.5392 45.4167 49.9514 44.1334 49.0223 43.2808C48.0956 42.4304 48.0031 42.3707 47.7014 42.4266C47.3134 42.4987 47.0213 42.8064 47.0213 43.1431C47.0213 43.6904 51.0178 47.1052 51.9077 47.3182C52.2129 47.3912 52.6962 47.1043 54.1104 46.0106C58.8086 42.3771 61.9688 37.4468 62.6752 32.6481C62.8157 31.6937 62.7269 31.4861 62.0322 31.1459C60.6211 30.4548 58.9384 29.051 58.1265 27.8877C57.5292 27.0318 57.0378 26.0476 56.7224 25.0754C56.5464 24.5329 56.3667 24.1668 56.2319 24.0761C56.0535 23.956 55.3779 23.9333 52.0536 23.9358C49.3274 23.9378 48.0247 23.9729 47.885 24.0479ZM51.3249 29.6961C50.2751 29.9006 49.2723 30.6622 48.7772 31.6312C48.528 32.1189 48.4947 32.2938 48.4957 33.1119C48.497 34.2366 48.6884 34.7112 49.4542 35.4894L49.9679 36.0114V37.5254C49.9679 39.1261 50.0385 39.4953 50.4451 40.0215C51.1348 40.9143 52.6777 40.9673 53.4939 40.1265C53.9525 39.654 54.0322 39.2769 54.0322 37.5784V35.9844L54.4979 35.5491C56.3001 33.8647 55.779 30.9921 53.4887 29.9863C52.7963 29.6823 51.9671 29.571 51.3249 29.6961ZM52.9166 31.3078C53.3004 31.4965 53.7373 31.9469 53.9035 32.3253C54.0986 32.7692 54.0852 33.5121 53.8743 33.9392C53.7225 34.2467 53.5678 34.3994 52.7367 35.063C52.514 35.2407 52.5081 35.2945 52.5081 37.1374C52.5081 39.1339 52.4793 39.2638 52.0377 39.2638C51.5334 39.2638 51.492 39.1003 51.492 37.1041C51.492 35.0331 51.5546 35.2256 50.6726 34.5821C49.9035 34.0211 49.7317 32.6897 50.3358 31.9723C50.735 31.4983 51.0836 31.2551 51.5045 31.1571C51.9103 31.0624 52.558 31.1316 52.9166 31.3078ZM38.2831 32.7334C38.2831 33.2094 38.8249 35.459 39.2053 36.5626C39.7133 38.036 40.9843 40.5416 41.9131 41.9004C44.1201 45.1288 47.7124 48.4451 51.1497 50.4273C51.8443 50.8278 52.0652 50.8596 52.5386 50.6264C53.2593 50.2713 55.2835 48.8822 56.4756 47.9245C61.3012 44.0478 64.5678 38.9698 65.5475 33.8218L65.7848 32.5748L70.2521 32.5495L74.7193 32.524L75.2725 32.7936C75.6354 32.9704 75.9306 33.2087 76.131 33.4865L76.4365 33.9099L76.4633 44.1059L76.49 54.3019H52.0015H27.5128L27.5151 44.2196C27.5172 34.6142 27.5262 34.1188 27.7055 33.7466C27.8089 33.5318 28.0314 33.2317 28.1998 33.0798C28.7914 32.5459 28.903 32.535 33.787 32.5303L38.2831 32.526V32.7334ZM31.5771 43.8534C31.4513 43.9743 31.3739 44.1789 31.3739 44.3905C31.3739 44.6021 31.4513 44.8066 31.5771 44.9275C31.7723 45.1151 31.9157 45.1228 35.1887 45.1228H38.5972L38.8465 44.8831C39.1514 44.5903 39.1648 44.2567 38.8854 43.9154L38.6748 43.6581H35.2275C31.9157 43.6581 31.7723 43.6658 31.5771 43.8534ZM65.2107 43.8323C64.889 44.0828 64.8829 44.6934 65.1997 44.9399C65.4188 45.1105 65.6627 45.1228 68.816 45.1228C71.9683 45.1228 72.2132 45.1104 72.432 44.9401C72.602 44.8079 72.6669 44.6561 72.6669 44.3905C72.6669 44.1249 72.602 43.973 72.432 43.8408C72.2132 43.6705 71.9683 43.6581 68.816 43.6581C65.7222 43.6581 65.4156 43.6729 65.2107 43.8323ZM31.5771 47.5641C31.4513 47.685 31.3739 47.8895 31.3739 48.1011C31.3739 48.3128 31.4513 48.5173 31.5771 48.6382C31.7747 48.8281 31.9157 48.8335 36.7128 48.8335H41.6454L41.8947 48.5938C42.0319 48.462 42.1442 48.2403 42.1442 48.1011C42.1442 47.962 42.0319 47.7403 41.8947 47.6085L41.6454 47.3688H36.7128C31.9157 47.3688 31.7747 47.3741 31.5771 47.5641ZM62.1517 47.5515C61.9817 47.6837 61.9169 47.8355 61.9169 48.1011C61.9169 48.3668 61.9817 48.5186 62.1517 48.6508C62.3738 48.8237 62.6505 48.8335 67.2919 48.8335C71.9333 48.8335 72.2099 48.8237 72.432 48.6508C72.7583 48.3969 72.7583 47.8054 72.432 47.5515C72.2099 47.3786 71.9333 47.3688 67.2919 47.3688C62.6505 47.3688 62.3738 47.3786 62.1517 47.5515ZM55.0927 62.5289C55.1676 62.8706 55.8639 68.9649 55.8624 69.2667L55.8611 69.5353H52H48.139L48.1377 69.2667C48.1361 68.9649 48.8325 62.8706 48.9074 62.5289L48.9557 62.3092H52H55.0444L55.0927 62.5289Z" fill="#FB5A5A"/>
<defs>
<filter id="filter0_d_808_75" x="7.05469" y="0" width="89.8906" height="87.8408" filterUnits="userSpaceOnUse" color-interpolation-filters="sRGB">
<feFlood flood-opacity="0" result="BackgroundImageFix"/>
<feColorMatrix in="SourceAlpha" type="matrix" values="0 0 0 0 0 0 0 0 0 0 0 0 0 0 0 0 0 0 127 0" result="hardAlpha"/>
<feOffset/>
<feGaussianBlur stdDeviation="2"/>
<feComposite in2="hardAlpha" operator="out"/>
<feColorMatrix type="matrix" values="0 0 0 0 0 0 0 0 0 0 0 0 0 0 0 0 0 0 0.25 0"/>
<feBlend mode="normal" in2="BackgroundImageFix" result="effect1_dropShadow_808_75"/>
<feBlend mode="normal" in="SourceGraphic" in2="effect1_dropShadow_808_75" result="shape"/>
</filter>
</defs>
</svg>
