<svg width="50" height="50" viewBox="0 0 50 50" fill="none" xmlns="http://www.w3.org/2000/svg">
<path fill-rule="evenodd" clip-rule="evenodd" d="M11.9257 8.03818V16.0764L11.462 16.1958C10.6166 16.4135 9.41498 16.9619 8.55509 17.5227C5.89985 19.2539 4.15878 22.2513 3.9566 25.4395C3.77687 28.2721 4.75177 30.9547 6.75291 33.1339C7.08787 33.4986 7.3454 33.8092 7.32519 33.8241C7.30499 33.8391 6.97335 33.9652 6.58812 34.1045C4.09386 35.0063 1.80823 37.243 0.799559 39.7693C0.10036 41.5207 0.086985 41.6309 0.0413936 46.0205L0 50H14.1711H28.3423L28.3009 46.0205C28.2553 41.6309 28.2419 41.5207 27.5427 39.7693C26.5341 37.243 24.2484 35.0063 21.7542 34.1045C21.3689 33.9652 21.0373 33.8391 21.0171 33.8241C20.9969 33.8092 21.2544 33.4986 21.5894 33.1339C23.2175 31.3608 24.0688 29.5052 24.3393 27.1395C24.4522 26.1523 24.3969 25.0951 24.1624 23.7549L24.1069 23.4375H27.5349H30.9629V28.3179V33.1982L36.8409 28.3179L42.7189 23.4375H46.3594H50V11.7188V0H30.9629H11.9257V8.03818ZM47.0712 11.7188V20.5078L44.3621 20.5096L41.653 20.5113L37.7967 23.7152L33.9405 26.9191L33.9148 23.7135L33.889 20.5078H28.3434H22.7977L22.1868 19.7319C21.5615 18.9378 20.7121 18.1383 19.9311 17.6085C18.7859 16.8318 17.0097 16.1313 15.7777 15.9705C15.5116 15.9357 15.195 15.8869 15.0742 15.8619L14.8545 15.8166V9.37315V2.92969H30.9629H47.0712V11.7188ZM15.9772 18.9769C18.5987 19.7028 20.6445 21.79 21.3067 24.4141C21.4827 25.1113 21.4827 27.0371 21.3067 27.7344C20.6325 30.4055 18.5011 32.5376 15.8308 33.2119C15.1337 33.388 13.2085 33.388 12.5115 33.2119C9.84122 32.5376 7.70975 30.4055 7.03564 27.7344C6.85962 27.0371 6.85962 25.1113 7.03564 24.4141C7.35702 23.1402 8.00048 21.989 8.93476 21.0156C9.90809 20.0018 11.2922 19.2063 12.5159 18.9578C12.8088 18.8982 13.1363 18.8292 13.2437 18.8044C13.6024 18.7213 15.4829 18.8399 15.9772 18.9769ZM19.8823 36.5401C22.5557 37.3618 24.4003 39.209 25.1808 41.8457C25.2839 42.1937 25.3387 43.0143 25.3718 44.7021L25.4182 47.0703H14.1711H2.9241L2.97048 44.7021C3.019 42.2309 3.06215 41.933 3.53358 40.8203C4.42071 38.7262 6.5108 36.9625 8.61084 36.5359C8.90371 36.4764 9.23125 36.4091 9.33864 36.3864C9.44603 36.3637 11.7525 36.3552 14.464 36.3676C18.5751 36.3863 19.4753 36.415 19.8823 36.5401Z" fill="#20CDB8"/>
</svg>
