<svg width="50" height="50" viewBox="0 0 50 50" fill="none" xmlns="http://www.w3.org/2000/svg">
<path fill-rule="evenodd" clip-rule="evenodd" d="M0.758051 0.197134C0.361102 0.406761 0 0.98729 0 1.41573C0 1.90228 2.42281 11.2079 2.77337 12.0679C3.53865 13.9452 3.73585 14.1813 8.76628 19.2442C11.3045 21.7989 13.3814 23.9306 13.3814 23.9815C13.3814 24.0323 10.5268 26.9313 7.03773 30.4236C0.178354 37.2894 0.286381 37.1652 0.0672 38.4448C-0.0110372 38.9014 -0.0100605 39.2414 0.0705209 39.7123C0.297223 41.0359 0.354851 41.1077 4.62791 45.381C8.90087 49.6544 8.97266 49.712 10.2962 49.9388C10.7669 50.0194 11.1069 50.0203 11.5635 49.9421C12.843 49.7229 12.7188 49.8309 19.584 42.971C23.076 39.4816 25.9771 36.6268 26.0308 36.6268C26.0845 36.6268 28.7216 39.2235 31.891 42.3973C35.0603 45.5711 37.9239 48.3632 38.2546 48.602C39.5799 49.5594 40.8347 49.9499 42.586 49.9499C44.004 49.9499 44.6702 49.8027 45.8581 49.2271C47.7506 48.31 49.2134 46.524 49.7778 44.4414C50.0156 43.5638 50.0151 41.6012 49.7767 40.7351C49.5336 39.8518 49.1099 38.9566 48.6021 38.2536C48.3634 37.9229 45.5715 35.059 42.3979 31.8894C39.2244 28.7198 36.6279 26.0825 36.6279 26.0288C36.6279 25.975 39.4825 23.0737 42.9716 19.5814C49.8309 12.7156 49.7229 12.8398 49.9421 11.5602C50.0203 11.1036 50.0194 10.7636 49.9388 10.2927C49.7121 8.96914 49.6544 8.89735 45.3814 4.62402C41.1084 0.350594 41.0366 0.292961 39.7131 0.0662391C39.2424 -0.0143492 38.9023 -0.015326 38.4458 0.0629179C37.1663 0.282118 37.2905 0.174081 30.4253 7.03405C26.9333 10.5234 24.0339 13.3783 23.9821 13.3783C23.9303 13.3783 21.8426 11.339 19.3429 8.84665C15.6108 5.12582 14.6491 4.21922 13.9674 3.77945C12.9594 3.12898 12.5629 2.92678 11.6614 2.60335C10.7438 2.27416 1.7599 -0.00555774 1.40192 1.0182e-05C1.24867 0.00245225 0.95887 0.0911482 0.758051 0.197134ZM43.2868 6.70398C47.2121 10.6286 47.2507 10.6767 46.9879 11.3112C46.9254 11.4619 46.5464 11.9111 46.1457 12.3092L45.4169 13.0331L43.0979 10.7251C41.8226 9.4557 40.683 8.36849 40.5657 8.3091C40.4483 8.24971 40.1407 8.20136 39.882 8.20175C39.352 8.20243 38.9566 8.41382 38.6691 8.84978C38.4349 9.20515 38.421 10.0165 38.6435 10.3527C38.7314 10.4856 39.8187 11.6162 41.0598 12.865L43.3163 15.1358L42.1971 16.2581L41.0779 17.3805L39.7564 16.0718C38.6576 14.9836 38.3716 14.7512 38.0592 14.6929C36.9911 14.4938 36.1003 15.4148 36.3386 16.4718C36.402 16.7528 36.7001 17.1115 37.7192 18.1329L39.0191 19.4355L37.8733 20.5812L36.7276 21.727L34.3092 19.3183C31.6173 16.6375 31.5769 16.6107 30.7157 16.9396C30.0213 17.2048 29.691 17.8375 29.8354 18.6253C29.8938 18.9436 30.2346 19.3278 32.2884 21.3903L34.6734 23.7856L33.5523 24.9036L32.4311 26.0217L31.1818 24.7854C30.4947 24.1055 29.8098 23.5026 29.6599 23.4455C28.4329 22.979 27.279 24.133 27.7455 25.3601C27.8025 25.5101 28.4057 26.1952 29.0859 26.8827L30.3225 28.1327L29.2265 29.2288L28.1304 30.3249L25.8106 28.0159C24.5346 26.7459 23.3947 25.6583 23.2774 25.599C23.16 25.5396 22.8523 25.4912 22.5937 25.4916C22.0637 25.4923 21.6682 25.7037 21.3807 26.1396C21.1465 26.495 21.1326 27.3064 21.3551 27.6426C21.443 27.7754 22.5304 28.906 23.7714 30.1549L26.0279 32.4256L24.9087 33.548L23.7896 34.6704L22.468 33.3616C21.3692 32.2734 21.0832 32.041 20.7709 31.9827C19.7028 31.7836 18.8119 32.7047 19.0502 33.7616C19.1136 34.0427 19.4117 34.4013 20.4308 35.4227L21.7307 36.7253L20.585 37.871L19.4393 39.0169L17.0208 36.6082C14.3289 33.9274 14.2885 33.9005 13.4273 34.2294C12.7329 34.4946 12.4026 35.1273 12.5471 35.9151C12.6055 36.2335 12.9463 36.6177 15.0001 38.6801L17.3851 41.0754L16.264 42.1935L15.1428 43.3116L13.8934 42.0753C13.2064 41.3953 12.5215 40.7924 12.3715 40.7354C11.1446 40.2689 9.99063 41.4229 10.4571 42.65C10.5142 42.7999 11.1168 43.4847 11.7965 44.1716L13.0323 45.4206L12.3104 46.1473C11.9134 46.547 11.4652 46.9252 11.3145 46.9877C10.6798 47.2505 10.6317 47.2118 6.7201 43.2937C4.27374 40.8432 3.01697 39.5159 2.97389 39.3375C2.93824 39.1898 2.93824 38.9479 2.97389 38.8002C3.01853 38.6155 8.53694 33.0282 20.6392 20.9145C30.3194 11.225 38.3714 3.21153 38.5326 3.10662C38.743 2.96966 38.9335 2.92913 39.2088 2.96292C39.5626 3.0062 39.8749 3.2928 43.2868 6.70398ZM6.92482 4.34885C10.5639 5.2784 11.2681 5.51811 12.2605 6.16536C12.9924 6.64273 14.6512 8.14568 14.6512 8.33137C14.6512 8.48005 8.4839 14.6481 8.33524 14.6481C8.15073 14.6481 6.65925 12.9998 6.17195 12.2572C5.926 11.8824 5.60544 11.267 5.45961 10.8897C5.2501 10.3474 3.51628 3.8199 3.51628 3.57334C3.51628 3.47722 3.47867 3.46873 6.92482 4.34885ZM19.3887 12.9878L21.927 15.5278L18.7287 18.7265L15.5302 21.9251L12.9667 19.3613L10.4031 16.7974L13.5765 13.6227C15.322 11.8765 16.7726 10.4478 16.8001 10.4478C16.8277 10.4478 17.9925 11.5908 19.3887 12.9878ZM37.5796 31.1804C39.2588 32.8589 40.6325 34.2763 40.6325 34.33C40.6325 34.4585 34.461 40.6317 34.3326 40.6317C34.2781 40.6317 32.8497 39.2471 31.1581 37.5547L28.0826 34.4777L31.2558 31.303C33.0012 29.557 34.451 28.1284 34.4779 28.1284C34.5048 28.1284 35.9005 29.5018 37.5796 31.1804ZM44.5509 38.1667C46.4497 40.1073 46.7898 40.6226 47.0001 41.8772C47.3799 44.1433 45.8832 46.4023 43.6538 46.9278C42.8514 47.117 42.3504 47.1164 41.5111 46.9255C40.5235 46.7009 39.8269 46.197 37.9953 44.3827L36.3837 42.7861L39.5575 39.6088C41.3032 37.8612 42.7587 36.4314 42.7922 36.4314C42.8256 36.4314 43.617 37.2123 44.5509 38.1667Z" fill="#DE08E2"/>
</svg>
