<svg width="63" height="50" viewBox="0 0 63 50" fill="none" xmlns="http://www.w3.org/2000/svg">
<path fill-rule="evenodd" clip-rule="evenodd" d="M33.8196 0.243922C33.3054 0.515556 32.884 1.04934 32.7256 1.62943C32.666 1.8475 31.0613 12.1938 29.1595 24.6211C26.7337 40.4718 25.7151 47.427 25.7471 47.9224C25.9088 50.43 29.6142 50.7812 30.2775 48.3517C30.3371 48.1336 31.9418 37.7872 33.8436 25.3599C36.2694 9.50927 37.2879 2.55404 37.2559 2.05867C37.2039 1.2503 36.7895 0.616649 36.0553 0.222743C35.4859 -0.0826295 34.4185 -0.0725323 33.8196 0.243922ZM16.3748 7.25985C16.1461 7.31366 15.8137 7.46389 15.6362 7.59379C15.4586 7.72358 11.9554 11.3826 7.85131 15.7247C2.44394 21.4459 0.333932 23.7582 0.188054 24.1228C-0.0721893 24.7735 -0.0629564 25.3001 0.219691 25.9225C0.366678 26.2463 2.72388 28.8386 6.88149 33.249C16.4242 43.3719 15.7743 42.7571 16.9315 42.7571C18.6487 42.7571 19.8137 40.8587 19.0064 39.376C18.871 39.1273 15.8242 35.8145 12.2357 32.0144C8.64718 28.2141 5.71114 25.0533 5.71114 24.9905C5.71114 24.9277 8.64718 21.767 12.2357 17.9667C15.8242 14.1666 18.871 10.8538 19.0064 10.605C19.9248 8.91835 18.2693 6.81386 16.3748 7.25985ZM45.5795 7.25394C44.108 7.60364 43.2972 9.32038 43.9966 10.605C44.1321 10.8538 47.1789 14.1666 50.7674 17.9667C54.3559 21.767 57.2919 24.9274 57.2919 24.9898C57.2919 25.0522 54.3559 28.2137 50.7674 32.0151C46.3365 36.7091 44.1522 39.1111 43.9607 39.5007C43.2323 40.9816 44.3832 42.7571 46.0716 42.7571C47.23 42.7571 46.6036 43.3496 56.1235 33.2479C60.2691 28.8488 62.6376 26.2436 62.7839 25.9214C63.072 25.2869 63.072 24.6942 62.7839 24.0596C62.6376 23.7375 60.2691 21.1323 56.1235 16.7332C48.6163 8.76714 47.5505 7.66656 47.1358 7.45157C46.7079 7.22993 46.0383 7.14485 45.5795 7.25394Z" fill="#1F31CF"/>
</svg>
