<svg width="18" height="18" viewBox="0 0 18 18" fill="none" xmlns="http://www.w3.org/2000/svg">
<path d="M1.60577 4.73094L9 0.46188L16.3942 4.73094V13.2691L9 17.5381L1.60577 13.2691V4.73094Z" stroke="#410EAD" stroke-width="0.8"/>
<path fill-rule="evenodd" clip-rule="evenodd" d="M8.62931 5.00941C7.70117 5.09936 6.82128 5.51434 6.16515 6.17156C5.53683 6.80095 5.15134 7.58716 5.02089 8.50532C4.98971 8.7249 4.99423 9.29295 5.02914 9.53777C5.09113 9.97252 5.21941 10.3845 5.41599 10.7802C5.93416 11.8233 6.87386 12.5825 8.01053 12.8764C8.80738 13.0824 9.68147 13.0294 10.452 12.7284C10.9985 12.5149 11.4522 12.2121 11.8727 11.7805C12.1928 11.452 12.4054 11.1494 12.6009 10.7444C12.7869 10.3591 12.8982 10.0032 12.9634 9.5847C13.0122 9.27107 13.0122 8.72509 12.9634 8.41146C12.8968 7.98381 12.7846 7.62869 12.593 7.23822C12.3859 6.81639 12.1708 6.51771 11.8264 6.17384C11.1923 5.54082 10.457 5.17005 9.56342 5.03284C9.36868 5.00295 8.8343 4.98953 8.62931 5.00941ZM9.53211 5.29814C9.74159 5.32966 10.0391 5.40277 10.2423 5.47267C10.6042 5.59714 11.0886 5.87215 11.3931 6.12599C11.7871 6.45442 12.1436 6.9132 12.367 7.37901C12.6243 7.91576 12.7322 8.39391 12.7322 8.99808C12.7322 9.37768 12.7087 9.57475 12.6233 9.91397C12.2909 11.2342 11.2376 12.2868 9.91642 12.6189C9.57695 12.7043 9.37973 12.7277 8.99986 12.7277C8.61999 12.7277 8.42278 12.7043 8.08331 12.6189C7.33179 12.43 6.62743 11.9876 6.12613 11.3896C5.96085 11.1924 5.7649 10.887 5.64229 10.6355C5.46621 10.2743 5.35787 9.92478 5.29466 9.5143C5.25671 9.26786 5.25674 8.73347 5.29472 8.48185C5.39769 7.79954 5.67326 7.16808 6.09681 6.64378C6.2288 6.48039 6.51655 6.19515 6.67658 6.06906C7.23572 5.6285 7.92644 5.35059 8.64764 5.27595C8.84163 5.25588 9.3333 5.26823 9.53211 5.29814ZM8.73901 5.53881C8.62419 5.55941 8.57672 5.62854 8.61484 5.71967C8.62682 5.74832 8.64549 5.77724 8.65634 5.78395C8.66721 5.79065 8.82114 5.79706 8.99842 5.7982L9.32078 5.80027L9.36383 5.75784C9.3875 5.7345 9.40688 5.70045 9.40688 5.68215C9.40688 5.63556 9.36644 5.56255 9.3331 5.54896C9.29363 5.53285 8.81758 5.52471 8.73901 5.53881ZM7.38745 5.92549C7.20536 6.0229 7.03994 6.12688 7.00404 6.16652C6.92851 6.24993 7.00368 6.39881 7.11233 6.38097C7.1388 6.37662 7.22386 6.33304 7.30135 6.28413C7.37884 6.23519 7.48927 6.17134 7.54675 6.1422C7.60424 6.11305 7.66235 6.0734 7.6759 6.05406C7.71216 6.00235 7.70655 5.9366 7.66211 5.8922C7.60507 5.83518 7.54201 5.84282 7.38745 5.92549ZM10.3376 5.8922C10.2932 5.9366 10.2876 6.00235 10.3238 6.05406C10.3374 6.0734 10.3955 6.11305 10.453 6.1422C10.5105 6.17134 10.6209 6.23519 10.6984 6.28413C10.8696 6.39222 10.9184 6.40364 10.9805 6.35019C11.0315 6.30636 11.0423 6.22123 11.0029 6.17326C10.9713 6.13486 10.8048 6.02889 10.6266 5.93384C10.4554 5.84249 10.3959 5.83392 10.3376 5.8922ZM8.87995 6.23019C8.82483 6.25745 8.68197 6.43289 7.94851 7.3741C7.47203 7.98553 7.07004 8.51131 7.0552 8.54249C7.00725 8.64323 7.029 8.76659 7.10873 8.846C7.15898 8.89605 8.93515 9.65509 9.00201 9.65509C9.05171 9.65509 10.746 8.94195 10.8567 8.87443C10.9147 8.83907 10.9725 8.72794 10.9719 8.6529C10.9717 8.62335 10.9594 8.57366 10.9445 8.54249C10.9297 8.51131 10.5276 7.98537 10.0509 7.37374C9.30683 6.41888 9.17502 6.25717 9.11846 6.22981C9.03476 6.18933 8.96234 6.18944 8.87995 6.23019ZM8.85187 7.93101C8.8397 7.94318 7.49353 8.42099 7.48774 8.4152C7.48481 8.41229 7.79038 8.01545 8.16678 7.53336L8.85115 6.65681L8.85523 7.29019C8.85749 7.63855 8.85597 7.92691 8.85187 7.93101ZM9.83744 7.53669C10.2113 8.01703 10.515 8.41223 10.5123 8.41492C10.5084 8.41876 10.0173 8.24567 9.1838 7.94672L9.14075 7.93128V7.28884C9.14075 6.93549 9.14457 6.65021 9.14924 6.65487C9.1539 6.65953 9.46359 7.05635 9.83744 7.53669ZM6.19771 6.98405C6.11944 7.02381 5.85332 7.47842 5.85332 7.57237C5.85332 7.66306 5.96105 7.72627 6.04007 7.68195C6.06381 7.66864 6.11105 7.60261 6.15528 7.52099C6.19653 7.44487 6.26304 7.3325 6.30309 7.27129C6.35623 7.19009 6.37607 7.14417 6.37647 7.10142C6.3774 7.00423 6.28169 6.94139 6.19771 6.98405ZM11.6973 6.97992C11.6453 7.00135 11.6088 7.06674 11.6194 7.1195C11.6243 7.14435 11.6601 7.21369 11.6989 7.27362C11.7377 7.33355 11.8032 7.44487 11.8445 7.52099C11.8887 7.60261 11.9359 7.66864 11.9597 7.68195C12.0378 7.72577 12.1464 7.66307 12.1464 7.57416C12.1464 7.49959 11.9181 7.08005 11.8385 7.00834C11.8009 6.97452 11.7401 6.96227 11.6973 6.97992ZM8.85542 9.0415L8.85115 9.32161L8.15873 9.02397C7.77791 8.86026 7.4702 8.72237 7.47495 8.7175C7.47971 8.71265 7.79129 8.59866 8.16736 8.46419L8.85115 8.21971L8.85542 8.49055C8.85777 8.63952 8.85777 8.88745 8.85542 9.0415ZM10.0174 8.52892C10.2628 8.61671 10.4837 8.69576 10.5082 8.70461C10.5541 8.72113 10.4969 8.74724 9.24642 9.28016L9.14075 9.32519V8.77106V8.21694L9.356 8.29313C9.4744 8.33504 9.77202 8.44115 10.0174 8.52892ZM5.62332 8.60681C5.55942 8.63317 5.54032 8.68633 5.53001 8.86669C5.51563 9.11747 5.53414 9.30212 5.57882 9.35402C5.62764 9.41076 5.71798 9.41186 5.76581 9.35631C5.79803 9.31887 5.7994 9.30328 5.79804 8.99287C5.79673 8.69366 5.79427 8.66622 5.76626 8.63875C5.72847 8.60168 5.66836 8.58824 5.62332 8.60681ZM12.2789 8.6059C12.2068 8.63588 12.2032 8.65429 12.2017 8.99465C12.2003 9.30323 12.2017 9.31889 12.2339 9.35631C12.2584 9.38475 12.2832 9.39542 12.3248 9.39542C12.4421 9.39542 12.4729 9.31284 12.4729 8.99808C12.4729 8.70397 12.4472 8.62109 12.3499 8.60082C12.3284 8.59633 12.2964 8.59863 12.2789 8.6059ZM7.18442 9.25273C7.13045 9.28002 7.07436 9.36881 7.07436 9.42691C7.07436 9.45373 7.08668 9.49768 7.10176 9.52453C7.11684 9.55141 7.5092 10.0605 7.97368 10.6558C8.87375 11.8093 8.86376 11.7982 8.9987 11.7982C9.13664 11.7982 9.11879 11.8181 10.0229 10.6569C10.4883 10.0592 10.8827 9.54514 10.8996 9.51444C10.9632 9.39837 10.8845 9.25226 10.7503 9.23715C10.6829 9.22957 10.621 9.25333 9.84923 9.58284C9.39343 9.77744 9.01059 9.93667 8.99845 9.93667C8.98631 9.93667 8.60654 9.77831 8.15452 9.58476C7.31799 9.22658 7.26918 9.20987 7.18442 9.25273ZM8.29933 9.93712L8.85897 10.1766V10.7639C8.85897 11.2591 8.85564 11.3477 8.83775 11.3284C8.80251 11.2903 7.49703 9.60794 7.49703 9.60056C7.49703 9.59679 7.55164 9.61708 7.61836 9.64566C7.68508 9.67424 7.99153 9.80539 8.29933 9.93712ZM10.5027 9.59901C10.5027 9.60258 10.1963 9.99735 9.82172 10.4763L9.14075 11.347V10.763V10.1789L9.81781 9.88725C10.1902 9.72685 10.4966 9.59491 10.4988 9.59407C10.5009 9.59321 10.5027 9.59545 10.5027 9.59901ZM5.89175 10.3349C5.83342 10.3931 5.842 10.4526 5.93342 10.6237C6.02854 10.8017 6.13458 10.9681 6.17301 10.9996C6.22101 11.039 6.3062 11.0283 6.35006 10.9773C6.40356 10.9152 6.39213 10.8665 6.28396 10.6954C6.23499 10.6179 6.17109 10.5076 6.14192 10.4501C6.11276 10.3927 6.07307 10.3346 6.05373 10.3211C6.00197 10.2849 5.93618 10.2905 5.89175 10.3349ZM11.9479 10.3198C11.9296 10.3326 11.8813 10.4047 11.8406 10.4801C11.7999 10.5555 11.7323 10.6706 11.6903 10.736C11.6049 10.8693 11.5973 10.9166 11.6513 10.9792C11.6935 11.0283 11.7796 11.0383 11.8267 10.9996C11.8651 10.9681 11.9712 10.8017 12.0663 10.6237C12.168 10.4333 12.1717 10.3654 12.0827 10.3193C12.0264 10.2903 11.9898 10.2904 11.9479 10.3198ZM7.01732 11.6476C6.96816 11.6898 6.95815 11.7758 6.99688 11.8229C7.06064 11.9005 7.49719 12.1424 7.57341 12.1424C7.67352 12.1424 7.73454 12.0258 7.67723 11.944C7.66441 11.9257 7.59221 11.8774 7.51678 11.8368C7.44134 11.7961 7.32609 11.7285 7.26065 11.6866C7.12728 11.6013 7.08 11.5937 7.01732 11.6476ZM10.6996 11.7123C10.6055 11.7694 10.488 11.8366 10.4385 11.8616C10.3374 11.9126 10.2992 11.9564 10.2992 12.0214C10.2992 12.0812 10.3623 12.1424 10.4241 12.1424C10.5018 12.1424 10.9191 11.9142 10.9954 11.83C11.0351 11.7861 11.0349 11.6974 10.995 11.6575C10.9293 11.5919 10.884 11.6003 10.6996 11.7123ZM8.67041 12.2083C8.62531 12.2249 8.58892 12.3177 8.60791 12.3676C8.64034 12.4529 8.68206 12.463 8.99986 12.463C9.31766 12.463 9.35938 12.4529 9.39182 12.3676C9.40808 12.3249 9.37961 12.2346 9.34266 12.2118C9.31655 12.1956 8.71304 12.1925 8.67041 12.2083Z" fill="#410EAD"/>
</svg>
