<svg width="46" height="50" viewBox="0 0 46 50" fill="none" xmlns="http://www.w3.org/2000/svg">
<path fill-rule="evenodd" clip-rule="evenodd" d="M19.4352 0.104846C19.1323 0.282879 19.0773 0.539766 18.8695 2.75013C18.7565 3.95151 18.6357 4.96323 18.601 4.99831C18.5664 5.03348 17.9762 5.24953 17.2896 5.47847C16.6029 5.70741 15.4629 6.18913 14.7561 6.54881L13.4711 7.2029L11.8393 5.83698C10.9418 5.08566 10.1126 4.42678 9.99665 4.37275C9.54796 4.16374 9.27577 4.37363 6.88256 6.77346C5.58666 8.07294 4.46067 9.26181 4.38037 9.41542C4.29968 9.56961 4.25987 9.79747 4.29145 9.92421C4.32283 10.0506 4.98579 10.9306 5.7647 11.8798L7.18071 13.6058L6.96799 13.9603C6.48482 14.7657 5.82864 16.2516 5.40901 17.4906L4.96235 18.8097L2.77934 19.0187C1.57877 19.1337 0.509155 19.2749 0.40231 19.3326C0.00544373 19.5469 -0.0206137 19.8216 0.00854346 23.4886L0.0363445 26.9859L0.287135 27.2034C0.507024 27.3941 0.757427 27.4418 2.32135 27.5911C3.30223 27.6848 4.30549 27.7857 4.55076 27.8154L4.99674 27.8696L5.41608 29.1535C5.64672 29.8598 6.13135 31.0282 6.49295 31.7501C7.03464 32.8316 7.12957 33.0893 7.03222 33.2138C6.96712 33.2969 6.35356 34.0474 5.66861 34.8814C4.98376 35.7156 4.38425 36.5001 4.33659 36.6246C4.28883 36.7493 4.27663 36.9591 4.30937 37.0908C4.38512 37.3952 8.02608 40.6626 8.42721 40.7862C8.65688 40.857 8.76866 40.8353 8.97712 40.6795C9.12107 40.5719 10.4048 38.7985 11.83 36.7383C13.682 34.061 14.4212 32.9164 14.4212 32.7256C14.4212 32.536 14.2273 32.232 13.7533 31.6776C12.1808 29.8391 11.2977 28.0455 10.7838 25.6468C10.5282 24.4538 10.5495 22.137 10.8283 20.8128C11.3716 18.2318 12.5658 16.1037 14.5135 14.2456C20.5161 8.51919 30.3348 10.3263 34.0036 17.8326C34.8663 19.5977 35.2477 21.29 35.2477 23.3534C35.2477 26.4987 34.1928 29.2929 32.113 31.6571C31.5922 32.2492 31.4699 32.4504 31.4699 32.7156C31.4699 32.9891 31.9193 33.6708 34.1993 36.8549C36.9594 40.7092 37.1461 40.9241 37.6306 40.8014C37.825 40.7522 41.3411 37.7064 41.6167 37.3485C41.6834 37.262 41.7378 37.0473 41.7378 36.8714C41.7378 36.6031 41.5111 36.2763 40.3332 34.8463C39.5607 33.9083 38.9287 33.1091 38.9287 33.0702C38.9287 33.0313 39.2257 32.4003 39.5887 31.6681C39.9517 30.9358 40.4174 29.8098 40.6235 29.1657C40.8296 28.5217 41.0235 27.9634 41.0545 27.9251C41.0854 27.8867 42.0256 27.7659 43.1437 27.6566C45.533 27.423 45.5493 27.4199 45.8036 27.1445C45.9935 26.939 46 26.8132 46 23.3404C46 19.7557 45.9996 19.7485 45.782 19.4969C45.5725 19.2547 45.484 19.2373 43.4814 19.0461C42.336 18.9367 41.3093 18.8291 41.1999 18.807C41.0512 18.7769 40.9691 18.6367 40.8745 18.2508C40.6661 17.4006 39.834 15.3494 39.3321 14.4488L38.8622 13.6056L40.2126 11.9571C40.9554 11.0505 41.6024 10.2346 41.6505 10.1442C41.9159 9.64426 41.8365 9.53775 39.2435 6.91387C37.8716 5.52557 36.6542 4.36542 36.5382 4.33572C36.4221 4.30601 36.2337 4.31168 36.1193 4.34832C36.005 4.38487 35.1599 5.04472 34.2414 5.8145L32.5713 7.21414L31.1639 6.50318C30.3897 6.11214 29.228 5.62123 28.5821 5.41222L27.408 5.03221L27.3571 4.64136C27.3291 4.42639 27.2249 3.3964 27.1258 2.35244C26.9511 0.512797 26.9374 0.44733 26.6837 0.227182L26.4219 0L23.0127 0.00293139C20.8931 0.00478793 19.5399 0.0433845 19.4352 0.104846ZM25.4646 1.83212C25.4665 2.49695 25.8779 6.00573 25.9717 6.15718C26.1084 6.37801 26.3093 6.46332 27.3507 6.74219C28.4988 7.04969 29.9424 7.6472 31.034 8.2669C32.4894 9.09296 32.5032 9.09912 32.7558 9.03522C32.8846 9.00258 33.7264 8.36334 34.6263 7.61476C35.5262 6.86609 36.2852 6.25362 36.313 6.25362C36.3409 6.25362 37.1432 7.0409 38.096 8.00308C39.167 9.08466 39.8076 9.80275 39.7741 9.88405C39.7442 9.95636 39.1277 10.732 38.404 11.6076C36.8859 13.4442 36.8759 13.4733 37.4418 14.4126C38.3186 15.8679 38.9922 17.5115 39.5572 19.5739C39.6902 20.0596 39.7584 20.1612 40.0232 20.2686C40.1937 20.3379 41.2377 20.4743 42.3433 20.5718L44.3533 20.749V23.3215C44.3533 24.7363 44.3286 25.8939 44.2986 25.8939C44.2686 25.8939 43.3205 25.9844 42.1918 26.095C40.605 26.2505 40.0846 26.3358 39.8973 26.471C39.7158 26.6021 39.6014 26.8513 39.4402 27.4669C39.0044 29.1316 38.3191 30.7765 37.482 32.1666C36.8659 33.19 36.8657 33.1896 38.4468 35.1152C39.1914 36.0218 39.8005 36.7758 39.8005 36.7908C39.8005 36.8057 39.302 37.2622 38.6927 37.8052L37.5849 38.7924L35.4463 35.8032L33.3076 32.8138L33.7809 32.212C35.2169 30.3859 36.1364 28.426 36.6219 26.1566C36.9267 24.7315 36.9267 21.8865 36.6219 20.4913C35.69 16.226 33.0841 12.7539 29.358 10.8126C28.2503 10.2354 26.4698 9.63781 25.245 9.43213C24.141 9.24667 21.9737 9.22234 20.9113 9.38356C17.8807 9.8433 15.2411 11.1895 13.064 13.3856C11.1045 15.3621 9.83518 17.7226 9.22481 20.5249C8.97015 21.6939 8.96792 24.8947 9.22094 26.0893C9.70576 28.3789 10.7093 30.5143 12.121 32.2602L12.5675 32.8125L12.1031 33.4816C11.8476 33.8496 10.9213 35.19 10.0445 36.4604L8.45036 38.7701L7.37968 37.8284C6.79082 37.3104 6.2999 36.8507 6.28876 36.8067C6.27752 36.7628 6.86192 36.0027 7.58717 35.1177C8.3687 34.1641 8.92908 33.392 8.96269 33.2224C9.00851 32.9912 8.913 32.7561 8.46721 32.0024C7.63657 30.5983 6.75673 28.397 6.52482 27.1428C6.45246 26.7515 6.06499 26.2853 5.81101 26.2838C5.72499 26.2833 4.80736 26.1954 3.77185 26.0884C2.73624 25.9815 1.83101 25.8939 1.7602 25.8939C1.65568 25.8939 1.63631 25.4108 1.65723 23.3322L1.68309 20.7705L3.8506 20.5568C5.66803 20.3776 6.04765 20.3133 6.20129 20.1584C6.30203 20.0566 6.48908 19.5797 6.61695 19.0985C7.05992 17.4306 7.55143 16.2849 8.75481 14.1158C8.94496 13.7731 9.00928 13.5504 8.96657 13.383C8.93276 13.2506 8.29295 12.3958 7.54474 11.4832L6.18424 9.82395L7.96796 8.02477L9.75158 6.22548L11.4147 7.60724C12.3293 8.36725 13.1832 9.01577 13.3121 9.04841C13.476 9.08994 13.6999 9.01665 14.0565 8.80471C15.7395 7.80462 17.4247 7.07471 19.0708 6.63295C19.4704 6.52575 19.8812 6.35466 19.9837 6.25274C20.1409 6.0966 20.2047 5.72568 20.3901 3.88878C20.511 2.69043 20.6125 1.69893 20.6154 1.68555C20.6183 1.67216 21.7105 1.66112 23.0424 1.66112C25.284 1.66112 25.4641 1.67382 25.4646 1.83212ZM20.2179 13.521C18.5633 14.2075 17.3951 15.3856 16.7661 17.002C16.4321 17.8604 16.3339 18.444 16.3304 19.5914C16.3226 22.1668 17.5299 24.2733 19.6278 25.3444L20.1364 25.6041V31.8025V38.0009L19.7151 38.2933C19.0454 38.7581 17.9716 39.9871 17.5824 40.7343C16.2973 43.201 16.7204 46.4067 18.578 48.2778C19.2913 48.9963 20.1468 49.5172 21.1412 49.8385C21.7671 50.0408 21.8264 50.0443 22.1315 49.8976C22.3402 49.7972 22.4799 49.6458 22.5228 49.4734C22.5595 49.3259 22.5344 48.419 22.467 47.4579C22.3766 46.1679 22.3729 45.6818 22.453 45.601C22.616 45.4367 23.8648 45.3921 24.2143 45.5382C24.5064 45.6602 24.5101 45.6705 24.4547 46.2089C24.2353 48.3419 24.1923 49.2742 24.3012 49.5392C24.4656 49.9397 24.8814 50.0896 25.3965 49.9341C26.9131 49.4759 28.3437 48.2434 29.0286 46.8045C30.5957 43.5124 29.4169 39.5298 26.4242 38.006L25.8515 37.7143V31.5244V25.3345L26.522 24.8316C27.6148 24.0119 28.44 22.844 28.9128 21.448C29.1377 20.7836 29.1787 20.4975 29.1854 19.5426C29.1948 18.2165 29.0734 17.6458 28.5408 16.5135C27.8562 15.0579 26.5774 13.9923 24.9039 13.4827C24.3178 13.3043 24.1519 13.2874 23.9239 13.3826C23.427 13.5902 23.3926 13.7788 23.5192 15.6022C23.5819 16.5064 23.6528 17.341 23.6764 17.4568C23.7103 17.6224 23.6546 17.69 23.4149 17.7744C23.0248 17.9116 22.1896 17.912 21.8005 17.7752C21.5155 17.675 21.5011 17.6462 21.5449 17.2622C21.6411 16.4193 21.7824 14.5921 21.7828 14.1884C21.783 13.8727 21.7241 13.7091 21.5453 13.5288C21.2476 13.2285 20.9275 13.2266 20.2179 13.521ZM26.3092 16.152C27.7165 17.4947 28.0033 19.897 26.9867 21.8293C26.5961 22.5721 25.6858 23.5115 24.949 23.9326C24.6171 24.1224 24.3484 24.3532 24.2952 24.4944C24.2424 24.6344 24.2048 27.579 24.2048 31.5725C24.2048 39.3331 24.1567 38.8583 24.9718 39.1314C25.619 39.3482 26.509 39.9415 26.9283 40.4358C27.7159 41.3638 28.0795 42.4197 28.0795 43.7782C28.0795 45.2201 27.5921 46.4048 26.6103 47.3495C26.2943 47.6536 26.013 47.8794 25.9853 47.8514C25.9575 47.8234 25.9875 47.1773 26.0519 46.4156C26.1638 45.0909 26.1607 45.0194 25.9781 44.7695C25.8731 44.6258 25.4857 44.3543 25.1171 44.1662C24.4779 43.84 24.4001 43.8242 23.4299 43.8242C22.5166 43.8242 22.3519 43.8526 21.8169 44.1019C21.4891 44.2547 21.1015 44.5056 20.9554 44.6594L20.6898 44.939L20.7582 46.2381C20.7957 46.9527 20.8512 47.6404 20.8817 47.7664L20.9369 47.9954L20.6183 47.8292C20.1271 47.573 19.3901 46.83 19.0734 46.2717C18.4453 45.1644 18.2954 43.4139 18.7236 42.1899C19.1352 41.0137 19.995 39.9934 21.1315 39.3328C21.3858 39.1849 21.6364 38.9837 21.6885 38.8855C21.7476 38.7741 21.7831 36.088 21.7831 31.736C21.7831 25.8041 21.7622 24.7346 21.6427 24.5626C21.5654 24.4513 21.2463 24.2661 20.9335 24.1511C18.5164 23.2621 17.2934 20.3573 18.2346 17.7416C18.519 16.9514 18.8407 16.4699 19.4938 15.8566C19.9634 15.4158 19.9928 15.4025 20.023 15.6177C20.0407 15.7431 20.0075 16.371 19.9494 17.0131C19.8138 18.5128 19.8572 18.6111 20.8818 19.1218C21.5969 19.4784 21.6682 19.4937 22.6065 19.4937C23.5447 19.4937 23.616 19.4784 24.3312 19.1218C25.3294 18.6242 25.3883 18.5027 25.2704 17.184C25.2207 16.6271 25.1785 15.9835 25.1768 15.7537L25.1735 15.3359L25.4827 15.4972C25.6528 15.5859 26.0247 15.8806 26.3092 16.152Z" fill="#E27F0A"/>
</svg>
