<svg width="50" height="50" viewBox="0 0 50 50" fill="none" xmlns="http://www.w3.org/2000/svg">
<path fill-rule="evenodd" clip-rule="evenodd" d="M12.8216 3.63337C6.35985 5.64927 0.937871 7.3777 0.772797 7.47434C0.607625 7.57098 0.370507 7.84339 0.24575 8.0798C-0.0788347 8.69474 -0.0825442 10.0946 0.238526 10.7315C0.489115 11.2285 0.992147 11.6088 1.39902 11.6088H1.67636L1.70184 29.9241L1.72722 48.2394L1.93827 48.6306C2.18711 49.0918 2.66573 49.5637 3.1427 49.8179C3.47295 49.9939 4.20373 50 25.0094 50C45.8152 50 46.5459 49.9939 46.8762 49.8179C47.3531 49.5637 47.8318 49.0918 48.0806 48.6306L48.2917 48.2394L48.317 29.9241L48.3425 11.6088H48.6199C49.0267 11.6088 49.5298 11.2285 49.7804 10.7315C49.9604 10.3745 50 10.1346 50 9.4027C50 8.30731 49.7704 7.76856 49.1634 7.43952C48.5172 7.08926 25.7163 0.0393696 25.1071 0.00151646C24.6272 -0.028414 23.3228 0.357258 12.8216 3.63337ZM36.8702 5.28746L48.2917 8.84322L48.3209 9.39458L48.3502 9.94605H25.0094H1.66865L1.69794 9.3984L1.72722 8.85085L3.38675 8.33088C4.29949 8.04488 9.46082 6.4392 14.8563 4.7628C20.252 3.0864 24.6888 1.69239 24.7159 1.665C24.7431 1.63762 24.9191 1.64143 25.1071 1.67341C25.295 1.7055 30.5884 3.33181 36.8702 5.28746ZM46.6568 29.7357L46.6814 47.8138L46.3959 48.0999C46.1179 48.3784 46.0838 48.3861 45.1265 48.3861H44.1428L44.1419 31.8314L44.1409 15.2768L43.9133 14.787C43.7881 14.5177 43.5233 14.1544 43.3249 13.9799C42.5762 13.3212 44.0229 13.3695 25.0094 13.3695C5.99602 13.3695 7.44264 13.3212 6.694 13.9799C6.49554 14.1544 6.23079 14.5177 6.10555 14.787L5.878 15.2768L5.87702 31.8314L5.87604 48.3861H4.89233C3.93527 48.3861 3.90091 48.3784 3.62328 48.1002L3.33794 47.8143V29.7768C3.33794 19.8561 3.36732 11.7098 3.40325 11.6738C3.43917 11.6379 13.1803 11.6195 25.0503 11.6331L46.6321 11.6578L46.6568 29.7357ZM42.2437 15.2724L42.4833 15.5124V17.7666V20.0207H25.0094H7.53557V17.7666V15.5124L7.77523 15.2724L8.01479 15.0323H25.0094H42.0041L42.2437 15.2724ZM9.43476 16.9352C9.12443 17.246 9.12286 17.6759 9.43066 18.0345L9.66631 18.309H25.0094H40.3526L40.5882 18.0345C40.896 17.6759 40.8945 17.246 40.5841 16.9352L40.3446 16.6951H25.0094H9.67432L9.43476 16.9352ZM42.4833 35.0348V48.3861H25.0094H7.53557V35.0348V21.6835H25.0094H42.4833V35.0348ZM23.3499 23.4053C21.1683 23.668 19.6346 24.1479 18.3547 24.9687C17.6331 25.4314 16.9668 26.1988 16.8067 26.7514C16.7352 26.9984 16.7114 29.6554 16.7314 35.1815C16.7647 44.3719 16.6877 43.5846 17.645 44.5285C18.5432 45.4142 20.2027 46.1233 22.2273 46.4867C23.5813 46.7297 26.4376 46.7297 27.7916 46.4867C30.6969 45.9653 32.6892 44.7937 33.1939 43.3098C33.276 43.0684 33.3071 40.782 33.3071 34.9682C33.3071 26.0938 33.3475 26.6594 32.6531 25.8103C31.8303 24.8042 30.1721 24.023 27.938 23.5892C27.1374 23.4338 24.1188 23.3128 23.3499 23.4053ZM27.74 25.2523C29.5882 25.6235 31.1474 26.3777 31.5069 27.0743C31.7476 27.5406 31.6835 27.8148 31.2265 28.2727C28.9409 30.5628 21.0893 30.5573 18.7862 28.2639C18.3355 27.8151 18.2719 27.5394 18.512 27.0743C18.7847 26.5459 19.732 25.9852 21.0559 25.5687C21.7341 25.3552 22.2327 25.2563 23.594 25.0653C24.1876 24.982 27.0332 25.1103 27.74 25.2523ZM20.0495 30.8641C20.4419 31.0194 21.1803 31.2507 21.6904 31.3781C22.5394 31.5901 22.8199 31.6097 25.0094 31.6097C27.2044 31.6097 27.4775 31.5905 28.3285 31.3767C29.401 31.1073 30.2442 30.8023 31.0662 30.3865L31.6476 30.0925V31.463V32.8334L31.2963 33.223C30.3357 34.2884 27.8499 34.9851 25.0094 34.9851C22.1687 34.9851 19.6787 34.2835 18.7112 33.2104L18.3713 32.8334V31.4627V30.092L18.8537 30.3369C19.1189 30.4716 19.657 30.7088 20.0495 30.8641ZM20.6777 36.0935C22.1387 36.5556 23.0565 36.6798 25.0094 36.6798C27.5027 36.6798 29.1321 36.3439 30.891 35.4674L31.6476 35.0903V36.4561V37.8218L31.2931 38.215C30.1887 39.4397 26.9205 40.2042 23.8007 39.9676C21.5953 39.8004 19.5041 39.0781 18.7258 38.215L18.3713 37.8218V36.4581V35.0944L19.1279 35.4685C19.5439 35.6743 20.2414 35.9555 20.6777 36.0935ZM19.5241 40.6548C22.8166 42.1008 27.2814 42.1015 30.5048 40.6564C30.9991 40.4348 31.4585 40.23 31.5255 40.2012C31.6196 40.1609 31.6474 40.4474 31.6469 41.4555C31.6464 42.5558 31.6182 42.8047 31.4679 43.0329C30.5938 44.3613 26.9748 45.2698 23.7375 44.9734C21.2176 44.7428 19.1727 43.9777 18.5509 43.0329C18.4007 42.8047 18.3725 42.5558 18.372 41.4555C18.3715 40.4469 18.3991 40.1611 18.4933 40.2023C18.5605 40.2315 19.0243 40.4352 19.5241 40.6548Z" fill="#DE08E2"/>
</svg>
