<svg width="46" height="38" viewBox="0 0 46 38" fill="none" xmlns="http://www.w3.org/2000/svg">
<path fill-rule="evenodd" clip-rule="evenodd" d="M35.3057 0.0174416C35.182 0.0392547 34.8006 0.103955 34.4582 0.16126C31.4811 0.65945 28.6526 2.90796 27.3452 5.81567C26.4289 7.85334 26.1867 10.4058 26.7161 12.4435C26.7888 12.7231 26.8487 12.9831 26.8493 13.0212C26.8499 13.0593 25.7556 13.0905 24.4176 13.0905H21.9848L21.7641 13.3174C21.4942 13.5946 21.4823 13.9104 21.7297 14.2334L21.9161 14.477L24.6756 14.48L27.435 14.483L27.8057 15.1501L28.1765 15.8172L25.0317 15.8634L21.8869 15.9096L21.7151 16.1278C21.4924 16.4106 21.4973 16.7027 21.7297 17.0063L21.9161 17.2498H25.6765C29.0852 17.2498 29.4484 17.2643 29.5604 17.4047C29.8029 17.7089 31.0519 18.6017 31.7559 18.9738C32.5118 19.3734 33.5523 19.7478 34.4512 19.9435C35.2391 20.1151 37.3512 20.0861 38.2291 19.8915C41.7021 19.1219 44.618 16.3507 45.5933 12.8924C46.5844 9.37804 45.7414 5.78258 43.3126 3.16565C41.4301 1.13731 39.2195 0.110609 36.5261 0.0137444C35.9785 -0.00594287 35.4294 -0.00427907 35.3057 0.0174416ZM38.0722 1.58373C40.6271 2.20208 42.7983 4.02144 43.8967 6.46414C44.4367 7.66525 44.6076 8.52484 44.6076 10.0404C44.6076 11.1469 44.5716 11.5176 44.4015 12.1661C44.0075 13.6689 43.3462 14.8784 42.2971 16.0151C40.9259 17.5008 39.1795 18.3941 37.1434 18.6512C34.4184 18.9953 31.5389 17.7969 29.7335 15.5672C29.0282 14.6963 28.2657 13.132 28.0079 12.0276C27.7376 10.8693 27.7381 9.20733 28.0092 8.05317C28.4095 6.34796 29.5099 4.514 30.7842 3.42787C32.1192 2.29007 33.4416 1.70546 35.3507 1.40923C35.8236 1.33584 37.4894 1.4426 38.0722 1.58373ZM37.3296 9.94796C35.9946 11.3205 34.8606 12.4435 34.8099 12.4435C34.7592 12.4435 34.3136 12.0246 33.8198 11.5127C33.3261 11.0007 32.811 10.5216 32.6755 10.4478C32.3747 10.2843 32.0221 10.3595 31.8405 10.6261C31.5502 11.052 31.6498 11.2319 32.8546 12.4579C33.4853 13.0999 34.0898 13.6712 34.1979 13.7275C34.477 13.873 35.0937 13.8543 35.4303 13.6901C35.588 13.6133 36.8388 12.395 38.2099 10.9828C40.5373 8.58565 40.7028 8.3935 40.7028 8.08682C40.7028 7.6768 40.4774 7.45239 40.0654 7.45239C39.7818 7.45239 39.5624 7.6525 37.3296 9.94796ZM2.47581 9.07941C1.49381 9.35059 0.688124 10.0572 0.239269 11.0409L0 11.5655V23.4907V35.4159L0.294499 36.0306C0.65934 36.7921 1.37004 37.4861 2.09163 37.7855L2.60858 38H20.2839H37.9593L38.4762 37.7855C39.1977 37.4861 39.9085 36.7921 40.2733 36.0307L40.5678 35.4161L40.593 28.2725L40.6181 21.1288L40.3947 20.8993C40.1108 20.6076 39.7666 20.6065 39.4844 20.8966L39.2636 21.1234V27.9797C39.2636 32.8496 39.2338 34.938 39.1609 35.1881C39.0242 35.6568 38.6117 36.1562 38.1529 36.4083L37.7794 36.6136H20.2839H2.78848L2.41491 36.4083C1.95616 36.1562 1.54365 35.6568 1.40692 35.1881C1.26066 34.6864 1.26066 12.291 1.40692 11.7893C1.54365 11.3207 1.95616 10.8212 2.41491 10.5692L2.78848 10.3639L13.7923 10.3177C24.5538 10.2725 24.7988 10.2675 24.9237 10.0921C25.1356 9.79416 25.0845 9.34126 24.8143 9.12285C24.5775 8.93134 24.5716 8.93124 13.7728 8.93734C4.55835 8.94252 2.89588 8.96341 2.47581 9.07941ZM6.5236 13.2387C5.5416 13.5099 4.73591 14.2165 4.28706 15.2002L4.04779 15.7247V20.7178V25.7109L4.34229 26.3256C4.70713 27.0871 5.41783 27.7811 6.13942 28.0805L6.65636 28.295H11.4238H16.1912L16.7758 28.0097C17.8405 27.4902 18.5413 26.5737 18.7467 25.4321C18.8792 24.6958 18.8793 16.7387 18.7469 15.9959C18.4964 14.5908 17.4876 13.509 16.1274 13.1866C15.8997 13.1326 13.9521 13.0966 11.3788 13.0988C7.83049 13.102 6.92424 13.1281 6.5236 13.2387ZM16.0789 14.6088C16.5971 14.7989 17.0059 15.1668 17.2389 15.6529L17.4505 16.0945L17.4764 20.4302C17.4936 23.3115 17.4693 24.9293 17.4039 25.2528C17.3131 25.7023 16.8632 26.5 16.7078 26.487C16.671 26.484 16.4857 26.1491 16.2961 25.7428C15.8864 24.8651 15.1066 23.9629 14.3344 23.4731L13.8063 23.1381L14.2467 22.6596C16.4207 20.2976 15.1289 16.4746 11.9753 15.9376C10.319 15.6556 8.59301 16.6172 7.84569 18.2386C7.57143 18.8336 7.55587 18.9244 7.55587 19.9322C7.55587 20.9553 7.56784 21.022 7.86 21.6319C8.0273 21.981 8.35113 22.4639 8.5796 22.7048L8.99509 23.1428L8.55289 23.4082C7.77832 23.8731 6.9389 24.8198 6.50687 25.7158L6.12125 26.5154L5.84159 26.1828C5.68768 25.9999 5.51462 25.6884 5.45696 25.4906C5.31142 24.9917 5.30917 16.3923 5.45444 15.9465C5.6643 15.3026 6.10802 14.8511 6.76961 14.6085C7.25993 14.4286 15.5884 14.429 16.0789 14.6088ZM12.4108 17.4739C12.5831 17.5479 12.9262 17.8025 13.173 18.0398C14.8653 19.6663 13.7126 22.5615 11.3788 22.5466C10.3694 22.5401 9.5875 22.0433 9.14054 21.1243C8.40357 19.6089 9.10564 17.9092 10.6883 17.3774C11.1276 17.2298 11.9494 17.2758 12.4108 17.4739ZM12.6299 24.1722C13.3028 24.3874 13.95 24.8051 14.4166 25.3251C14.7833 25.734 15.184 26.3874 15.2884 26.7468L15.3488 26.9548H11.4298C8.18328 26.9548 7.5109 26.9332 7.5109 26.8289C7.5109 26.5641 8.0274 25.7274 8.48264 25.2549C9.00363 24.714 9.64903 24.3126 10.2897 24.131C10.9262 23.9507 11.9961 23.9694 12.6299 24.1722ZM21.7297 24.4255C21.4823 24.7485 21.4942 25.0643 21.7641 25.3415L21.9848 25.5684H29.0541H36.1235L36.3442 25.3415C36.6141 25.0643 36.6259 24.7485 36.3786 24.4255L36.1922 24.1819H29.0541H21.9161L21.7297 24.4255ZM21.7297 27.1983C21.4823 27.5214 21.4942 27.8371 21.7641 28.1143L21.9848 28.3412H29.0541H36.1235L36.3442 28.1143C36.6141 27.8371 36.6259 27.5214 36.3786 27.1983L36.1922 26.9548H29.0541H21.9161L21.7297 27.1983ZM4.18928 29.9712C3.94192 30.2942 3.95379 30.61 4.22364 30.8872L4.44438 31.1141H20.2839H36.1235L36.3442 30.8872C36.6141 30.61 36.6259 30.2942 36.3786 29.9712L36.1922 29.7277H20.2839H4.37566L4.18928 29.9712ZM4.18928 32.7441C3.94192 33.0671 3.95379 33.3828 4.22364 33.66L4.44438 33.8869H20.2839H36.1235L36.3442 33.66C36.6141 33.3828 36.6259 33.0671 36.3786 32.7441L36.1922 32.5005H20.2839H4.37566L4.18928 32.7441Z" fill="black"/>
</svg>
