<svg width="46" height="46" viewBox="0 0 46 46" fill="none" xmlns="http://www.w3.org/2000/svg">
<path fill-rule="evenodd" clip-rule="evenodd" d="M1.53928 0.123988C1.06897 0.2723 0.266824 1.10331 0.122608 1.59168C-0.0408692 2.14543 -0.0408692 8.58948 0.122608 9.14324C0.278131 9.66985 1.07194 10.464 1.59831 10.6196C1.81525 10.6838 2.23564 10.7362 2.5326 10.7362H3.07247V11.5032V12.2702H2.5326C2.23564 12.2702 1.81525 12.3226 1.59831 12.3867C1.07194 12.5423 0.278131 13.3365 0.122608 13.8632C-0.0408692 14.4169 -0.0408692 20.861 0.122608 21.4147C0.278131 21.9413 1.07194 22.7355 1.59831 22.8911C1.81525 22.9553 2.23564 23.0077 2.5326 23.0077H3.07247V23.7747V24.5416H2.5326C2.23564 24.5416 1.81525 24.5941 1.59831 24.6582C1.07194 24.8138 0.278131 25.608 0.122608 26.1346C-0.0408692 26.6884 -0.0408692 33.1324 0.122608 33.6862C0.278131 34.2128 1.07194 35.007 1.59831 35.1626C1.89316 35.2497 3.87127 35.2792 9.43197 35.2792H16.8712L16.8722 38.5148C16.873 41.7074 16.8761 41.7569 17.0979 42.2335C18.1916 44.5833 24.8114 46.1857 32.5865 45.9827C39.6871 45.7973 44.7919 44.3462 45.7752 42.2335L46 41.7505V29.9104V18.0703L45.7752 17.5874C44.869 15.6402 40.5099 14.2704 33.9936 13.8848L32.0199 13.768L31.9069 13.4952C31.7498 13.1159 31.0434 12.518 30.5926 12.3829C30.3858 12.3209 29.9736 12.2702 29.6767 12.2702H29.1368V11.5032V10.7362H29.6767C29.9736 10.7362 30.394 10.6838 30.6109 10.6196C31.1373 10.464 31.9311 9.66985 32.0866 9.14324C32.2501 8.58948 32.2501 2.14543 32.0866 1.59168C31.9311 1.06506 31.1373 0.270862 30.6109 0.115263C30.0723 -0.0439781 2.04523 -0.0355415 1.53928 0.123988ZM30.4347 1.76798L30.67 2.00325V5.36745V8.73166L30.4347 8.96693L30.1996 9.20229H16.1046H2.00968L1.77453 8.96693L1.53928 8.73166V5.36745V2.00325L1.77453 1.76798L2.00968 1.53262H16.1046H30.1996L30.4347 1.76798ZM3.30772 3.30192C3.07439 3.53527 3.07247 3.55204 3.07247 5.36745C3.07247 7.83172 2.90919 7.66836 5.37226 7.66836C7.83534 7.66836 7.67206 7.83172 7.67206 5.36745C7.67206 2.90319 7.83534 3.06655 5.37226 3.06655C3.55773 3.06655 3.54096 3.06847 3.30772 3.30192ZM9.4405 3.30192C9.20717 3.53527 9.20525 3.55204 9.20525 5.36745C9.20525 7.83172 9.04197 7.66836 11.505 7.66836C13.9681 7.66836 13.8048 7.83172 13.8048 5.36745C13.8048 2.90319 13.9681 3.06655 11.505 3.06655C9.69051 3.06655 9.67374 3.06847 9.4405 3.30192ZM15.338 3.83352V4.60049H20.7042H26.0704V3.83352V3.06655H20.7042H15.338V3.83352ZM27.6036 3.83352V4.60049H28.3702H29.1368V3.83352V3.06655H28.3702H27.6036V3.83352ZM6.13886 5.36745V6.13442H5.37226H4.60567V5.36745V4.60049H5.37226H6.13886V5.36745ZM12.2716 5.36745V6.13442H11.505H10.7384V5.36745V4.60049H11.505H12.2716V5.36745ZM15.338 6.90139V7.66836H20.7042H26.0704V6.90139V6.13442H20.7042H15.338V6.90139ZM27.6036 6.90139V7.66836H28.3702H29.1368V6.90139V6.13442H28.3702H27.6036V6.90139ZM7.67206 11.5032V12.2702H6.13886H4.60567V11.5032V10.7362H6.13886H7.67206V11.5032ZM23.004 11.5032V12.2702H16.1046H9.20525V11.5032V10.7362H16.1046H23.004V11.5032ZM27.6036 11.5032V12.2702H26.0704H24.5372V11.5032V10.7362H26.0704H27.6036V11.5032ZM28.2647 13.9093C22.3323 14.2891 17.9632 15.7281 17.0979 17.5874C16.8888 18.0367 16.873 18.1889 16.8722 19.7721L16.8712 21.4738H9.4405H2.00968L1.77453 21.2384L1.53928 21.0031V17.6389V14.2747L1.77453 14.0395L2.00968 13.8041L15.741 13.818C23.7825 13.8261 28.9719 13.8639 28.2647 13.9093ZM3.30772 15.5734C3.07439 15.8067 3.07247 15.8235 3.07247 17.6389C3.07247 20.1032 2.90919 19.9398 5.37226 19.9398C7.83534 19.9398 7.67206 20.1032 7.67206 17.6389C7.67206 15.1747 7.83534 15.338 5.37226 15.338C3.55773 15.338 3.54096 15.3399 3.30772 15.5734ZM9.4405 15.5734C9.20717 15.8067 9.20525 15.8235 9.20525 17.6389C9.20525 20.1032 9.04197 19.9398 11.505 19.9398C13.3196 19.9398 13.3363 19.9379 13.5696 19.7045C13.8029 19.4711 13.8048 19.4543 13.8048 17.6389C13.8048 15.1747 13.9681 15.338 11.505 15.338C9.69051 15.338 9.67374 15.3399 9.4405 15.5734ZM34.455 15.4362C37.2031 15.6184 39.5914 16.0136 41.4576 16.5954C43.2128 17.1425 44.4687 17.8976 44.4687 18.4059C44.4687 19.0664 42.5226 20.0285 40.0129 20.6089C38.8908 20.8684 37.0267 21.1606 35.6049 21.2996C33.9871 21.4579 28.886 21.4579 27.2682 21.2996C23.7804 20.9585 20.8188 20.2191 19.2458 19.2967C18.2785 18.7296 18.1743 18.2598 18.8994 17.7343C21.2696 16.0166 28.0641 15.0127 34.455 15.4362ZM6.13886 17.6389V18.4059H5.37226H4.60567V17.6389V16.872H5.37226H6.13886V17.6389ZM12.2716 17.6389V18.4059H11.505H10.7384V17.6389V16.872H11.505H12.2716V17.6389ZM19.2668 21.0113C21.0291 21.8509 23.3612 22.4027 26.7655 22.7853C28.8185 23.0161 34.0546 23.0161 36.1076 22.7853C39.9838 22.3495 42.1486 21.7872 44.3969 20.6319C44.4364 20.6116 44.4687 21.8769 44.4687 23.4438V26.2926L44.146 26.5972C43.718 27.0009 42.6303 27.5216 41.4502 27.8875C35.011 29.8844 23.4034 29.4043 19.2508 26.9694C18.3635 26.4491 18.4044 26.6212 18.4044 23.4098C18.4044 21.8617 18.4368 20.6116 18.4763 20.6319C18.5158 20.6522 18.8716 20.8229 19.2668 21.0113ZM7.67206 23.7747V24.5416H6.13886H4.60567V23.7747V23.0077H6.13886H7.67206V23.7747ZM16.8712 23.7747V24.5416H13.0382H9.20525V23.7747V23.0077H13.0382H16.8712V23.7747ZM30.67 26.0756V26.8425H31.4366H32.2032V26.0756V25.3086H31.4366H30.67V26.0756ZM16.8712 29.9104V33.7452H9.4405H2.00968L1.77453 33.5099L1.53928 33.2746V29.9104V26.5462L1.77453 26.3109L2.00968 26.0756H9.4405H16.8712V29.9104ZM3.30772 27.8449C3.07439 28.0782 3.07247 28.095 3.07247 29.9104C3.07247 32.3747 2.90919 32.2113 5.37226 32.2113C7.83534 32.2113 7.67206 32.3747 7.67206 29.9104C7.67206 27.4461 7.83534 27.6095 5.37226 27.6095C3.55773 27.6095 3.54096 27.6114 3.30772 27.8449ZM9.4405 27.8449C9.20717 28.0782 9.20525 28.095 9.20525 29.9104C9.20525 32.3747 9.04197 32.2113 11.505 32.2113C13.3196 32.2113 13.3363 32.2094 13.5696 31.9759C13.8029 31.7426 13.8048 31.7258 13.8048 29.9104C13.8048 27.4461 13.9681 27.6095 11.505 27.6095C9.69051 27.6095 9.67374 27.6114 9.4405 27.8449ZM19.2668 28.681C21.0291 29.5206 23.3612 30.0723 26.7655 30.4549C27.857 30.5777 29.0382 30.6192 31.4366 30.6192C34.7903 30.6192 36.2506 30.5147 38.6949 30.0995C41.0978 29.6912 42.6369 29.2059 44.3969 28.3016C44.4364 28.2813 44.4687 29.5466 44.4687 31.1135V33.9623L44.146 34.2669C43.2153 35.145 40.3035 36.0517 37.0713 36.4698C33.1582 36.976 27.9945 36.8842 24.3455 36.2435C21.6971 35.7785 19.516 35.0111 18.7272 34.2669L18.4044 33.9623V31.1135C18.4044 29.5466 18.4368 28.2813 18.4763 28.3016C18.5158 28.3218 18.8716 28.4926 19.2668 28.681ZM6.13886 29.9104V30.6774H5.37226H4.60567V29.9104V29.1434H5.37226H6.13886V29.9104ZM12.2716 29.9104V30.6774H11.505H10.7384V29.9104V29.1434H11.505H12.2716V29.9104ZM30.67 34.5122V35.2792H31.4366H32.2032V34.5122V33.7452H31.4366H30.67V34.5122ZM19.2668 36.3506C21.0291 37.1903 23.3612 37.742 26.7655 38.1246C27.857 38.2473 29.0382 38.2888 31.4366 38.2888C34.7903 38.2888 36.2506 38.1843 38.6949 37.7691C41.0978 37.3609 42.6369 36.8756 44.3969 35.9713C44.4364 35.9509 44.4687 37.2162 44.4687 38.7832V41.632L44.146 41.9365C43.0573 42.9637 39.6335 43.9146 35.6049 44.3086C33.9665 44.4689 28.8783 44.4677 27.2682 44.3068C23.649 43.9449 20.577 43.1645 19.1322 42.2398C18.8441 42.0553 18.5624 41.8187 18.5064 41.7139C18.3892 41.4949 18.36 35.9114 18.4763 35.9713C18.5158 35.9915 18.8716 36.1622 19.2668 36.3506ZM30.67 41.4149V42.1819H31.4366H32.2032V41.4149V40.6479H31.4366H30.67V41.4149Z" fill="black"/>
</svg>
