<svg width="18" height="18" viewBox="0 0 18 18" fill="none" xmlns="http://www.w3.org/2000/svg">
<path d="M1.60577 4.73094L9 0.46188L16.3942 4.73094V13.2691L9 17.5381L1.60577 13.2691V4.73094Z" stroke="#410EAD" stroke-width="0.8"/>
<path fill-rule="evenodd" clip-rule="evenodd" d="M6.25528 5.02373C5.65593 5.13326 5.25293 5.50745 5.10053 6.09592C5.06403 6.23686 5.03447 6.57096 5.04646 6.707C5.05326 6.78405 5.05508 6.78641 5.10791 6.78641C5.13785 6.78641 5.19621 6.78176 5.23761 6.77607L5.31285 6.76576L5.32194 6.5295C5.33269 6.24919 5.36922 6.09001 5.47015 5.8837C5.60625 5.60543 5.86492 5.40594 6.21086 5.31245C6.32663 5.28117 6.3846 5.27666 6.64509 5.27871C6.81044 5.28 6.97565 5.28314 7.01224 5.28567L7.07875 5.29025L7.10091 5.16726C7.1131 5.09963 7.12075 5.04197 7.11791 5.03914C7.11506 5.03634 7.05395 5.02585 6.9821 5.01586C6.80752 4.9916 6.40742 4.99591 6.25528 5.02373ZM7.85527 5.07189C7.67576 5.11114 7.51193 5.15233 7.49121 5.16343C7.41607 5.20369 7.41602 5.24553 7.49067 5.59732C7.52897 5.77781 7.56531 5.93124 7.57142 5.93826C7.57752 5.9453 7.63653 5.93883 7.70253 5.92392C7.84217 5.89235 7.83905 5.901 7.78914 5.68309C7.73934 5.46564 7.72845 5.47428 7.94322 5.56069C8.7435 5.88268 9.54505 6.41529 10.3417 7.15446L10.5812 7.37661L10.6758 7.28079L10.7704 7.18495L10.595 7.01763C10.2385 6.67748 9.8145 6.32825 9.48097 6.10001C9.38726 6.03589 9.30637 5.97659 9.30121 5.96823C9.29607 5.95989 9.35901 5.91761 9.4411 5.8743L9.59036 5.79553L9.5297 5.67283L9.46904 5.55011L9.29298 5.64378C9.19614 5.69528 9.11327 5.74075 9.10883 5.74481C9.10438 5.74887 9.11776 5.78179 9.13856 5.81795C9.15935 5.85411 9.17318 5.8837 9.16929 5.8837C9.16539 5.8837 9.0731 5.83052 8.96419 5.76552C8.76937 5.64926 8.28708 5.40083 8.13987 5.34093L8.06472 5.31036L8.17745 5.28543C8.30472 5.2573 8.30585 5.25482 8.26764 5.08965C8.25283 5.02555 8.24053 5.00543 8.21496 5.0033C8.19663 5.0018 8.03476 5.03266 7.85527 5.07189ZM10.9958 5.05947C10.8722 5.07273 10.6456 5.1185 10.4614 5.16748C10.2845 5.21447 9.86759 5.36024 9.78201 5.40497L9.74565 5.42398L9.79539 5.54045C9.82273 5.60451 9.8481 5.65991 9.85176 5.66357C9.8554 5.66723 9.91703 5.64575 9.98869 5.61582C10.4024 5.44314 10.8453 5.33625 11.2146 5.31999C11.9472 5.28772 12.4117 5.58353 12.5854 6.19296C12.6185 6.30899 12.6236 6.36542 12.6239 6.61924C12.6241 6.78014 12.6205 6.94187 12.6159 6.97865L12.6076 7.04552L12.7379 7.0683C12.8096 7.08084 12.8709 7.08836 12.8741 7.08502C12.8774 7.08167 12.8891 6.975 12.9002 6.84797C12.9835 5.88955 12.5361 5.23396 11.6889 5.07321C11.5651 5.04973 11.1614 5.04172 10.9958 5.05947ZM8.3992 6.20325C8.14467 6.3863 8.15714 6.36708 8.22919 6.46532C8.32862 6.6009 8.31292 6.6018 8.52922 6.44791C8.63581 6.37204 8.72327 6.30245 8.72356 6.29326C8.72384 6.28406 8.69198 6.23057 8.65276 6.17437L8.58144 6.07219L8.3992 6.20325ZM7.56655 6.87537L7.37615 7.04921L7.45877 7.14348C7.50422 7.19533 7.54896 7.23776 7.55823 7.23776C7.58048 7.23776 7.91935 6.93335 7.9211 6.91178C7.92185 6.90259 7.88523 6.85152 7.8397 6.79829L7.75694 6.70153L7.56655 6.87537ZM5.25052 7.26616C5.19081 7.28015 5.13904 7.29433 5.13547 7.29766C5.12167 7.31049 5.24558 7.72255 5.26323 7.72255C5.26871 7.72255 5.32508 7.70583 5.38848 7.68539C5.52185 7.64239 5.51776 7.66442 5.44137 7.40075C5.4154 7.3111 5.38625 7.23843 5.37662 7.23923C5.36696 7.24005 5.31023 7.25217 5.25052 7.26616ZM6.99272 7.43418C6.24716 8.23437 5.69952 9.03908 5.35163 9.84559L5.31198 9.93753L5.28675 9.82302L5.26151 9.70849L5.19339 9.71921C5.07405 9.73798 5 9.76267 5 9.7837C5 9.79492 5.03402 9.96164 5.07561 10.1542C5.15036 10.5003 5.17051 10.5527 5.23703 10.5738C5.26175 10.5816 5.92691 10.4556 5.94823 10.439C5.95075 10.437 5.94019 10.3779 5.92478 10.3077C5.90398 10.213 5.88984 10.1801 5.87008 10.1805C5.85542 10.1809 5.76264 10.1989 5.66388 10.2206C5.56513 10.2422 5.48434 10.2584 5.48434 10.2564C5.48434 10.2545 5.52105 10.1631 5.56591 10.0534C5.91018 9.21145 6.42068 8.4499 7.21157 7.59838L7.37722 7.42002L7.2873 7.3289C7.23785 7.27877 7.19252 7.23776 7.18656 7.23776C7.18059 7.23776 7.09338 7.32614 6.99272 7.43418ZM12.3152 7.3245C12.1545 7.37088 12.0196 7.41195 12.0154 7.41578C12.0055 7.42501 12.0634 7.64339 12.0805 7.661C12.0877 7.66852 12.1729 7.65159 12.2696 7.62338C12.3663 7.59518 12.4536 7.5721 12.4636 7.5721C12.4737 7.5721 12.4522 7.65503 12.4147 7.76001C12.1229 8.5789 11.5458 9.48225 10.796 10.2938C10.7084 10.3887 10.6367 10.4761 10.6367 10.4881C10.6367 10.5002 10.6774 10.5466 10.727 10.5913L10.8173 10.6725L10.9584 10.5223C11.2627 10.1983 11.643 9.72377 11.8795 9.3731C12.1621 8.95399 12.4575 8.407 12.5994 8.04017C12.6296 7.96202 12.66 7.89169 12.6669 7.88387C12.6737 7.87606 12.6917 7.91367 12.7068 7.96745C12.722 8.02125 12.7372 8.07375 12.7406 8.08413C12.7484 8.10755 13 8.04069 13 8.01519C13 7.96377 12.7961 7.2951 12.7725 7.26894C12.7287 7.22046 12.6376 7.23151 12.3152 7.3245ZM10.8566 7.46529C10.7417 7.57292 10.7347 7.5494 10.9504 7.7799C11.1074 7.94769 11.084 7.94441 11.2294 7.819L11.3017 7.75665L11.1457 7.58497C11.0599 7.49054 10.9817 7.40443 10.9719 7.39358C10.9586 7.37888 10.9293 7.39705 10.8566 7.46529ZM8.64927 7.42265C8.35138 7.46277 8.07582 7.56215 7.9459 7.67631C7.81762 7.78905 7.82333 7.72801 7.82291 8.99109C7.82265 9.7999 7.82803 10.1358 7.84197 10.1824C7.86777 10.2686 7.99611 10.3872 8.12813 10.4469C8.35045 10.5473 8.63758 10.597 8.99786 10.5975C9.50295 10.5982 9.91572 10.4895 10.0891 10.3102C10.1981 10.1975 10.1942 10.247 10.1938 8.99774C10.1934 7.9379 10.1914 7.86031 10.163 7.79762C10.0922 7.64169 9.86373 7.5188 9.50891 7.44588C9.35776 7.41482 8.81613 7.40018 8.64927 7.42265ZM9.25887 7.68953C9.34614 7.69864 9.48142 7.72186 9.5595 7.74114C9.70609 7.7773 9.89071 7.8629 9.90554 7.90157C9.92745 7.95874 9.77894 8.04094 9.54428 8.10154C9.24147 8.17972 8.71168 8.17367 8.40468 8.08851C8.27392 8.05225 8.14109 7.98998 8.10714 7.94905C8.0377 7.86528 8.36586 7.72832 8.72443 7.69144C8.92413 7.67091 9.07519 7.67036 9.25887 7.68953ZM5.5762 8.15841C5.52109 8.18525 5.46901 8.20958 5.46046 8.21247C5.44144 8.21887 5.66637 8.67541 5.68855 8.67541C5.69727 8.67541 5.7523 8.6486 5.81086 8.61581L5.91734 8.55622L5.80551 8.33163C5.744 8.20811 5.6898 8.10762 5.68504 8.10832C5.6803 8.10903 5.63132 8.13156 5.5762 8.15841ZM11.5092 8.25115C11.4499 8.29779 11.4175 8.33439 11.4248 8.34649C11.4572 8.40005 11.687 8.71083 11.7003 8.71904C11.7252 8.73447 11.9325 8.59107 11.9184 8.56817C11.8584 8.47091 11.6352 8.17481 11.6221 8.17511C11.6129 8.17531 11.5621 8.20954 11.5092 8.25115ZM8.24843 8.32425C8.67382 8.47362 9.39703 8.46667 9.81002 8.30924C9.86054 8.28999 9.90751 8.27422 9.91441 8.27422C9.9213 8.2742 9.92693 8.35695 9.92693 8.45809C9.92693 8.67008 9.91917 8.68462 9.77079 8.75013C9.58787 8.83089 9.41839 8.86192 9.10856 8.87136C8.71354 8.88342 8.45627 8.84768 8.24596 8.75155C8.09682 8.68338 8.08977 8.67004 8.08977 8.45613C8.08977 8.28673 8.09236 8.27113 8.119 8.27969C8.13508 8.28484 8.19332 8.3049 8.24843 8.32425ZM8.26619 9.04921C8.47434 9.12093 8.68725 9.14965 9.00835 9.1493C9.33024 9.14895 9.53989 9.12061 9.74754 9.04941C9.81406 9.0266 9.88164 9.00371 9.8977 8.99853C9.92434 8.98995 9.92693 9.00553 9.92693 9.17496C9.92693 9.33681 9.92274 9.365 9.89441 9.39335C9.70365 9.58429 8.94099 9.66362 8.45754 9.5428C8.29463 9.50209 8.13248 9.42615 8.10711 9.37869C8.09757 9.36087 8.08977 9.26591 8.08977 9.1677C8.08977 9.00506 8.09238 8.99 8.119 8.99886C8.13508 9.00421 8.2013 9.02686 8.26619 9.04921ZM12.1566 9.17155C12.1015 9.20378 12.0499 9.23634 12.0419 9.2439C12.0314 9.25388 12.1674 9.53937 12.2076 9.59173C12.2126 9.59833 12.4489 9.47982 12.4489 9.47068C12.4489 9.46376 12.2689 9.12489 12.2611 9.11722C12.2587 9.11486 12.2117 9.1393 12.1566 9.17155ZM6.22183 9.29871C6.16534 9.33746 6.11908 9.37486 6.11905 9.38185C6.119 9.39355 6.29638 9.64346 6.38094 9.75082L6.4174 9.79713L6.51932 9.71792C6.57535 9.67436 6.6177 9.62956 6.61341 9.61836C6.60347 9.59246 6.35243 9.24552 6.33648 9.23566C6.32992 9.2316 6.27833 9.25998 6.22183 9.29871ZM8.23272 9.76C8.45959 9.84233 8.65999 9.87075 9.00835 9.86998C9.39322 9.86913 9.60974 9.83255 9.8977 9.71973C9.92451 9.70923 9.92693 9.72426 9.92693 9.90146V10.0946L9.87263 10.1361C9.53092 10.397 8.4162 10.3899 8.12735 10.125C8.09261 10.0931 8.08977 10.0762 8.08977 9.90119C8.08977 9.79706 8.09209 9.71185 8.09493 9.71185C8.09775 9.71185 8.15977 9.73352 8.23272 9.76ZM12.4656 9.79664C12.4058 9.82282 12.3507 9.84664 12.343 9.84958C12.3353 9.85251 12.3553 9.91864 12.3874 9.99652C12.518 10.3132 12.628 10.7107 12.6659 11.0029C12.7067 11.3174 12.674 11.6822 12.5837 11.9209C12.491 12.1658 12.2973 12.3767 12.0576 12.4938C11.8109 12.6142 11.7291 12.629 11.311 12.6287L10.9497 12.6285L10.9321 12.7538C10.9225 12.8228 10.9163 12.8809 10.9184 12.883C10.9205 12.8851 11.0235 12.8949 11.1474 12.9048C12.4873 13.0119 13.1805 12.1354 12.8906 10.7007C12.8462 10.4812 12.6938 9.99992 12.6191 9.8433L12.5741 9.74905L12.4656 9.79664ZM6.85024 10.1074C6.80172 10.1503 6.75983 10.1907 6.75718 10.1971C6.75452 10.2036 6.82896 10.2932 6.92261 10.3961L7.09286 10.5833L7.18983 10.4873L7.2868 10.3912L7.22482 10.3229C7.19073 10.2854 7.11686 10.204 7.06068 10.1421C7.00448 10.0801 6.95399 10.0295 6.94849 10.0295C6.94298 10.0295 6.89877 10.0645 6.85024 10.1074ZM7.42114 10.7244L7.32985 10.8175L7.47182 10.9507C8.26387 11.6941 9.16334 12.2893 9.98417 12.6133L10.1499 12.6787L10.0396 12.7123C9.97887 12.7308 9.92453 12.7507 9.91883 12.7566C9.90368 12.7721 9.96511 12.9912 9.98697 12.9996C10.012 13.0093 10.6601 12.8241 10.7085 12.7935C10.7887 12.7428 10.7868 12.7082 10.685 12.3508C10.6329 12.1682 10.5825 12.0188 10.5729 12.0188C10.5447 12.0188 10.354 12.0729 10.3403 12.0847C10.3335 12.0907 10.3532 12.1836 10.3842 12.2912C10.4152 12.3988 10.439 12.4868 10.4372 12.4868C10.4206 12.4868 10.1654 12.3926 10.0167 12.3315C9.26375 12.0222 8.46178 11.49 7.72234 10.8087C7.6167 10.7114 7.52626 10.6317 7.52135 10.6315C7.51644 10.6314 7.47135 10.6732 7.42114 10.7244ZM10.2082 10.8791C10.1103 10.9681 10.0298 11.0484 10.0294 11.0576C10.0289 11.0668 10.0651 11.1151 10.1098 11.165C10.2063 11.2729 10.1871 11.2796 10.4251 11.0545L10.5809 10.9071L10.4836 10.8123L10.3862 10.7174L10.2082 10.8791ZM5.02679 10.9351C5.02084 10.9657 5.01151 11.1261 5.00605 11.2916C4.99532 11.6155 5.01433 11.7802 5.087 11.9928C5.2486 12.4656 5.60732 12.79 6.1023 12.9108C6.24929 12.9467 6.59163 12.9769 6.69937 12.9634C6.79778 12.9512 6.79744 12.952 6.77647 12.7772L6.76618 12.6915L6.52192 12.6831C6.34776 12.6771 6.2396 12.6644 6.14502 12.6391C5.71335 12.5235 5.42742 12.2369 5.31664 11.8088C5.27137 11.6339 5.25632 11.3204 5.28301 11.1082C5.30639 10.9222 5.30777 10.9251 5.18514 10.9074C5.14301 10.9013 5.09259 10.8925 5.07307 10.8879C5.04362 10.8809 5.03572 10.889 5.02679 10.9351ZM9.43561 11.5172C9.3353 11.5902 9.24661 11.6566 9.2385 11.6647C9.2225 11.6807 9.35476 11.885 9.38111 11.885C9.41622 11.885 9.7917 11.5951 9.78021 11.5768C9.74891 11.5271 9.63484 11.3836 9.62692 11.384C9.62198 11.3842 9.5359 11.4441 9.43561 11.5172ZM8.34029 12.1949C8.22547 12.2537 8.12555 12.3041 8.11821 12.3068C8.10141 12.3132 8.20655 12.5537 8.2261 12.5537C8.25203 12.5537 8.67432 12.3365 8.67432 12.3232C8.67432 12.3101 8.5578 12.0847 8.55212 12.0868C8.55043 12.0874 8.45511 12.136 8.34029 12.1949ZM7.53027 12.5303C7.49353 12.544 7.41461 12.5672 7.35491 12.582C7.2952 12.5968 7.24371 12.611 7.24048 12.6136C7.22714 12.6245 7.29567 12.8713 7.31203 12.8714C7.36027 12.8714 7.70941 12.7639 7.71589 12.747C7.72753 12.7167 7.64509 12.5123 7.61976 12.5087C7.60728 12.507 7.56701 12.5167 7.53027 12.5303Z" fill="#410EAD"/>
</svg>
