<svg width="32" height="50" viewBox="0 0 32 50" fill="none" xmlns="http://www.w3.org/2000/svg">
<path fill-rule="evenodd" clip-rule="evenodd" d="M3.35128 0.140053C2.53517 0.345782 1.92425 0.697093 1.30887 1.31467C0.675077 1.9508 0.291931 2.65127 0.11543 3.49675C-0.0396509 4.2395 -0.0379058 45.7676 0.117272 46.4979C0.473666 48.1754 1.81201 49.5236 3.47719 49.8826C4.19783 50.038 27.791 50.0396 28.5229 49.8844C30.1677 49.5354 31.5413 48.152 31.8851 46.4979C32.0398 45.7539 32.0375 4.22505 31.8828 3.49675C31.5255 1.81498 30.1831 0.461876 28.5229 0.110174C27.7458 -0.0545455 4.01125 -0.0263273 3.35128 0.140053ZM10.6983 3.73606C10.859 5.96764 12.2467 7.79099 14.3339 8.51304C15.2533 8.83115 16.7468 8.83115 17.6662 8.51304C19.7534 7.79099 21.1411 5.96764 21.3018 3.73606L21.3597 2.93053H24.6446C27.7456 2.93053 27.951 2.94156 28.3121 3.12708C28.5584 3.25362 28.7642 3.46101 28.8899 3.70911C29.0832 4.09099 29.085 4.24907 29.085 21.1854V38.2765H16H2.91512L2.91919 21.1649C2.92307 4.87573 2.9316 4.03758 3.09782 3.72337C3.19378 3.54186 3.44278 3.28945 3.65107 3.16242C4.02957 2.9316 4.0315 2.9315 7.33501 2.93102L10.6404 2.93053L10.6983 3.73606ZM18.4232 3.35253C18.4232 4.70651 17.3086 5.85975 16 5.85975C14.6915 5.85975 13.5769 4.70651 13.5769 3.35253V2.93053H16H18.4232V3.35253ZM10.8145 13.574C8.46157 13.8979 6.4557 15.7771 5.96865 18.1137C5.69203 19.4413 5.85438 20.7053 6.46404 21.9705C6.7964 22.6601 7.06343 22.9519 11.045 26.9773C15.6146 31.5971 15.5751 31.5646 16.3635 31.3504C16.6621 31.2694 17.481 30.4894 20.9551 26.9773C24.9367 22.9519 25.2037 22.6601 25.536 21.9705C26.6059 19.7506 26.2745 17.2349 24.6781 15.4578C23.556 14.2087 22.1212 13.5602 20.4586 13.5507C18.9444 13.542 17.8047 13.951 16.6034 14.934L15.9953 15.4317L15.4075 14.939C14.1101 13.8513 12.4291 13.3516 10.8145 13.574ZM12.7919 16.7053C13.0418 16.8165 13.6038 17.2742 14.1489 17.8103C15.8327 19.4666 16.1765 19.4671 17.8416 17.8148C19.1226 16.5437 19.8773 16.2436 21.0395 16.5436C22.887 17.0204 23.7722 18.9356 22.9357 20.6464C22.7525 21.0211 21.885 21.9548 19.3471 24.5086L16 27.8767L12.653 24.5086C9.08897 20.9222 8.8831 20.6653 8.76447 19.6564C8.50664 17.4635 10.7698 15.8052 12.7919 16.7053ZM14.5462 42.0884C14.5462 42.7803 14.5883 43.0542 14.7413 43.3563C14.9607 43.7896 15.5191 44.1349 16 44.1349C16.481 44.1349 17.0394 43.7896 17.2588 43.3563C17.4118 43.0542 17.4539 42.7803 17.4539 42.0884V41.2057H23.2694H29.085V43.553C29.085 45.7128 29.0694 45.931 28.8899 46.2856C28.7642 46.5337 28.5584 46.7411 28.3121 46.8676C27.9348 47.0614 27.7649 47.0641 15.9929 47.0641H4.05612L3.66949 46.8452C2.96281 46.4451 2.91512 46.2368 2.91512 43.553V41.2057H8.73064H14.5462V42.0884Z" fill="#28C193"/>
</svg>
