<svg width="46" height="40" viewBox="0 0 46 40" fill="none" xmlns="http://www.w3.org/2000/svg">
<path fill-rule="evenodd" clip-rule="evenodd" d="M2.41563 0.0797984C1.48257 0.251682 0.680118 0.855995 0.252042 1.70913L0 2.21147V17.156V32.1006L0.251952 32.6029C0.580992 33.2592 1.10711 33.7493 1.78732 34.0334C2.26226 34.2318 2.48543 34.2681 3.43945 34.3023L4.54252 34.3419V33.6189V32.896L3.71047 32.8923C2.46897 32.8868 1.97991 32.6787 1.65339 32.0169C1.49507 31.696 1.48815 31.0744 1.48815 17.156C1.48815 3.23766 1.49507 2.6161 1.65339 2.29519C1.85587 1.88478 2.08695 1.68619 2.53517 1.53742C3.04636 1.36771 36.8018 1.36771 37.313 1.53742C38.0791 1.79168 38.2915 2.16693 38.346 3.36266L38.3871 4.26268H39.1401H39.8932V3.56644C39.8932 2.22353 39.6463 1.51674 38.951 0.869725C38.4679 0.419965 38.0194 0.202285 37.3327 0.084152C36.697 -0.0251903 3.00849 -0.0293764 2.41563 0.0797984ZM3.01335 3.55104V4.26268H3.77793H4.54252V3.55104V2.83939H3.77793H3.01335V3.55104ZM6.13168 2.89524C6.09866 2.92588 6.07168 3.24612 6.07168 3.60688V4.26268H6.83626H7.60084V3.55104V2.83939H6.89626C6.50866 2.83939 6.1646 2.86451 6.13168 2.89524ZM9.19 2.89524C9.15699 2.92588 9.13001 3.24612 9.13001 3.60688V4.26268H9.89459H10.6592V3.55104V2.83939H9.95459C9.56699 2.83939 9.22293 2.86451 9.19 2.89524ZM8.712 5.76995C7.42706 5.94502 6.40585 6.88774 6.15992 8.12608C6.09929 8.43142 6.07645 13.5317 6.09246 23.1908L6.11665 37.7938L6.36888 38.2961C6.78346 39.1218 7.41905 39.6343 8.33592 39.8825C8.77218 40.0005 10.6246 40.0118 26.2692 39.9923L43.7161 39.9706L44.1367 39.7896C44.6572 39.5658 45.3243 39.0026 45.6029 38.5521C45.7185 38.3653 45.8596 38.0052 45.9166 37.7519C45.9931 37.4118 46.0129 33.449 45.9925 22.598L45.9649 7.90464L45.7247 7.42775C45.2637 6.51241 44.3862 5.9127 43.2923 5.76551C42.6121 5.67392 9.3852 5.67819 8.712 5.76995ZM43.8391 7.43587C44.0056 7.54647 44.2172 7.79136 44.3093 7.98007C44.4705 8.31044 44.4768 8.86494 44.4787 22.8728C44.4803 34.9066 44.4596 37.4692 44.3591 37.6931C44.1976 38.053 43.6561 38.4853 43.2907 38.5461C43.1289 38.5731 35.2621 38.5844 25.8089 38.5712L8.62124 38.5473L8.29086 38.3127C8.10915 38.1837 7.88967 37.9576 7.80314 37.8103C7.65535 37.5588 7.64411 36.6674 7.61829 23.1422C7.59868 12.8905 7.61928 8.62131 7.68971 8.32325C7.80188 7.84879 7.9781 7.61772 8.41912 7.36697L8.72523 7.19291L26.1307 7.21384L43.5362 7.23485L43.8391 7.43587ZM9.1489 9.307L9.17498 9.99771L9.91708 10.022L10.6592 10.0464V9.33128V8.61628H9.89099H9.12272L9.1489 9.307ZM12.2783 9.33128V10.0464L13.0204 10.022L13.7625 9.99771L13.7886 9.307L13.8147 8.61628H13.0465H12.2783V9.33128ZM15.3366 9.33128V10.0464L16.0787 10.022L16.8208 9.99771L16.8469 9.307L16.8731 8.61628H16.1048H15.3366V9.33128ZM9.1489 12.1536L9.17498 12.8443L26.0632 12.8655L42.9515 12.8866V12.1748V11.4629H26.0372H9.12272L9.1489 12.1536ZM23.2704 14.4792C23.0149 14.7007 22.9859 14.8398 22.9596 15.97L22.9375 16.9188L22.2357 17.1709L21.534 17.4229L20.747 16.7167C19.8982 15.9551 19.6171 15.8258 19.2262 16.0176C19.0906 16.0841 18.2005 16.8689 17.2481 17.7615C15.1089 19.7664 15.1595 19.6027 16.3351 20.7184L17.1536 21.4952L16.8661 22.1658L16.5787 22.8362L15.4249 22.8636C14.3482 22.8892 14.2557 22.9046 14.0393 23.094L13.8074 23.297V25.7376V28.1783L14.0395 28.3813C14.2558 28.5705 14.3499 28.5862 15.4272 28.6134L16.5829 28.6426L16.8713 29.3084L17.1596 29.9744L16.338 30.7541C15.4795 31.5689 15.4087 31.7091 15.6445 32.1257C15.7149 32.25 16.537 33.0582 17.4714 33.9216C19.0964 35.4231 19.1856 35.4914 19.523 35.4914C19.847 35.4914 19.942 35.43 20.6884 34.7381L21.5011 33.9848L22.2193 34.2751L22.9375 34.5654L22.9824 35.6638C23.0265 36.7411 23.0323 36.7662 23.2798 36.9641L23.5322 37.1658H25.9966C28.57 37.1658 28.8125 37.1364 28.999 36.8008C29.0537 36.7023 29.1088 36.1582 29.1213 35.5919L29.1441 34.5622L29.8637 34.2857L30.5833 34.0092L31.4032 34.7503C32.6306 35.8597 32.4729 35.9049 34.7411 33.7937C37.0039 31.6876 36.9499 31.8538 35.7506 30.6861L34.9361 29.8932L35.1087 29.5736C35.2037 29.3978 35.3291 29.1165 35.3875 28.9483L35.4937 28.6427L36.6365 28.6116C37.8926 28.5774 38.1175 28.5059 38.2724 28.092C38.4018 27.7467 38.3928 23.7045 38.2619 23.3551C38.1117 22.954 37.7574 22.8494 36.5454 22.8482L35.5306 22.8473L35.2345 22.1663L34.9384 21.4853L35.7518 20.7133C36.9271 19.5978 36.9874 19.7774 34.7273 17.6667C32.4497 15.5397 32.6298 15.5912 31.4126 16.7182C30.7701 17.3131 30.5529 17.468 30.4483 17.4058C30.3741 17.3617 30.0401 17.2275 29.7063 17.1079L29.0991 16.8902V15.8052C29.0991 14.7393 29.0949 14.7164 28.8611 14.5147L28.6231 14.3094H26.0446C23.5787 14.3094 23.4575 14.3169 23.2704 14.4792ZM9.19117 15.034C9.15753 15.0652 9.13001 15.386 9.13001 15.7467V16.4025H12.2369H15.3439L15.3177 15.7118L15.2916 15.0211L12.272 14.9991C10.6111 14.9869 9.22481 15.0027 9.19117 15.034ZM27.5849 16.7289C27.6198 17.8873 27.6764 17.9884 28.4126 18.2074C28.6664 18.283 29.2701 18.5144 29.7538 18.7217C30.4112 19.0033 30.6941 19.0844 30.8729 19.0426C31.0046 19.0119 31.4402 18.6888 31.841 18.3247L32.5697 17.6627L33.6413 18.6628L34.713 19.6629L33.975 20.3667C33.1052 21.196 33.0791 21.3037 33.539 22.1606C33.7052 22.4703 33.9309 22.9773 34.0405 23.2873C34.3685 24.2146 34.3836 24.2236 35.6797 24.2725L36.7899 24.3144L36.8145 25.7078L36.8391 27.1013L35.7497 27.1313C34.6973 27.1602 34.6532 27.1688 34.4525 27.386C34.3383 27.5096 34.154 27.8675 34.043 28.1812C33.932 28.495 33.7052 29.005 33.539 29.3147C33.0834 30.1637 33.1075 30.2628 33.9731 31.102L34.7093 31.8159L33.6394 32.8143L32.5694 33.8128L31.7903 33.1033C31.2447 32.6063 30.9457 32.3936 30.7925 32.3936C30.6721 32.3936 30.2521 32.5383 29.8589 32.715C29.4657 32.8918 28.8756 33.1195 28.5473 33.221C27.6626 33.4946 27.6206 33.561 27.5849 34.7464L27.5549 35.7425H26.0332H24.5116V34.8255C24.5116 34.3212 24.4659 33.8151 24.4099 33.7009C24.315 33.5069 23.8264 33.2567 23.2523 33.1081C23.1286 33.076 22.6764 32.8974 22.2474 32.711C21.6537 32.4531 21.408 32.386 21.2183 32.4304C21.0813 32.4624 20.6413 32.7864 20.2405 33.1506L19.5119 33.8126L18.4402 32.8125L17.3685 31.8124L18.1066 31.1086C18.9857 30.2702 19.0203 30.1212 18.5425 29.231C18.3763 28.9213 18.1523 28.4231 18.0448 28.1237C17.9373 27.8244 17.7945 27.5122 17.7274 27.4299C17.5469 27.2081 17.1005 27.1191 16.1693 27.1191H15.3366V25.6958V24.2725H16.4004C17.6705 24.2725 17.6908 24.2598 18.0763 23.226C18.2137 22.8576 18.4427 22.3406 18.5854 22.0772C18.9993 21.3125 18.9632 21.1835 18.1066 20.3667L17.3685 19.6629L18.4385 18.6644L19.5085 17.6658L20.2507 18.3291C20.659 18.6939 21.0954 19.0162 21.2205 19.0454C21.3844 19.0838 21.694 18.9932 22.3277 18.7217C22.8114 18.5144 23.4193 18.2817 23.6784 18.2045C24.4209 17.9834 24.5116 17.8179 24.5116 16.6843V15.7327H26.0332H27.5549L27.5849 16.7289ZM9.1489 18.6003L9.17498 19.291H11.4687H13.7625L13.7886 18.6003L13.8147 17.9095H11.4687H9.12272L9.1489 18.6003ZM24.7635 20.8858C23.5329 21.1635 22.2347 22.0321 21.526 23.052C20.7383 24.1853 20.4884 25.8703 20.9163 27.1609C21.5822 29.1687 23.4646 30.5604 25.6972 30.6958C26.6695 30.7548 27.4003 30.6282 28.2886 30.247C30.0859 29.4759 31.2595 27.8884 31.406 26.0307C31.5453 24.2619 30.471 22.3769 28.7853 21.4321C27.6918 20.8193 26.0478 20.596 24.7635 20.8858ZM27.663 22.5275C29.2288 23.2272 30.0791 24.7003 29.8174 26.2602C29.3363 29.1284 25.6142 30.2766 23.3797 28.2461C21.9207 26.9203 21.8681 24.7171 23.2619 23.3097C24.0384 22.5256 24.9753 22.1706 26.1788 22.2045C26.8989 22.2248 27.0681 22.2616 27.663 22.5275ZM38.364 36.4542V37.1658H40.6578H42.9515V36.4542V35.7425H40.6578H38.364V36.4542Z" fill="black"/>
</svg>
