<svg width="224" height="224" viewBox="0 0 224 224" fill="none" xmlns="http://www.w3.org/2000/svg">
<g filter="url(#filter0_d_2506_10)">
<path d="M112 4L198.001 45.4161L219.242 138.477L159.727 213.107H64.2728L4.75793 138.477L25.9985 45.4161L112 4Z" fill="white"/>
</g>
<path d="M51.9434 150.149C51.4569 150.142 50.9775 150.053 50.5052 149.883C50.0364 149.712 49.6103 149.428 49.2268 149.031C48.8433 148.633 48.5361 148.098 48.3053 147.427C48.078 146.756 47.9644 145.918 47.9644 144.913C47.9644 143.961 48.0585 143.116 48.2467 142.377C48.4384 141.639 48.7136 141.016 49.0723 140.508C49.431 139.996 49.8642 139.608 50.372 139.341C50.8798 139.075 51.4498 138.942 52.0819 138.942C52.7318 138.942 53.3088 139.07 53.8131 139.325C54.3173 139.581 54.7257 139.934 55.0382 140.385C55.3543 140.836 55.5549 141.349 55.6401 141.925H54.0155C53.9054 141.47 53.687 141.099 53.3603 140.811C53.0336 140.524 52.6075 140.38 52.0819 140.38C51.2829 140.38 50.6597 140.728 50.2122 141.424C49.7683 142.12 49.5446 143.088 49.5411 144.327H49.621C49.8092 144.018 50.04 143.755 50.3134 143.539C50.5904 143.319 50.8994 143.15 51.2403 143.033C51.5847 142.912 51.947 142.852 52.3269 142.852C52.959 142.852 53.5308 143.006 54.0421 143.315C54.557 143.62 54.9672 144.043 55.2726 144.583C55.578 145.123 55.7307 145.74 55.7307 146.436C55.7307 147.132 55.5727 147.763 55.2566 148.327C54.9441 148.892 54.5038 149.339 53.9356 149.67C53.3674 149.996 52.7033 150.156 51.9434 150.149ZM51.9381 148.764C52.3571 148.764 52.7318 148.661 53.062 148.455C53.3923 148.249 53.6533 147.972 53.845 147.624C54.0368 147.276 54.1327 146.887 54.1327 146.458C54.1327 146.039 54.0386 145.657 53.8504 145.312C53.6657 144.968 53.41 144.695 53.0833 144.492C52.7602 144.29 52.3908 144.189 51.9754 144.189C51.6593 144.189 51.3663 144.249 51.0965 144.37C50.8301 144.49 50.5957 144.657 50.3933 144.87C50.1909 145.083 50.0311 145.328 49.9139 145.605C49.8003 145.879 49.7435 146.168 49.7435 146.474C49.7435 146.882 49.8376 147.26 50.0258 147.608C50.2176 147.956 50.4786 148.237 50.8088 148.45C51.1426 148.659 51.519 148.764 51.9381 148.764ZM61.2718 150.149C60.6042 150.149 60.004 150.021 59.4714 149.766C58.9422 149.506 58.5197 149.151 58.2036 148.7C57.8876 148.249 57.7189 147.734 57.6976 147.156H59.2956C59.3347 147.624 59.5424 148.01 59.9188 148.311C60.2952 148.613 60.7462 148.764 61.2718 148.764C61.6908 148.764 62.0619 148.668 62.3851 148.477C62.7118 148.281 62.9675 148.013 63.1521 147.672C63.3403 147.331 63.4344 146.942 63.4344 146.506C63.4344 146.062 63.3386 145.666 63.1468 145.318C62.955 144.97 62.6905 144.696 62.3531 144.498C62.0193 144.299 61.6358 144.197 61.2025 144.194C60.8723 144.194 60.5403 144.251 60.2065 144.364C59.8726 144.478 59.6028 144.627 59.3968 144.812L57.8893 144.588L58.5019 139.091H64.4998V140.502H59.8709L59.5246 143.555H59.5886C59.8016 143.349 60.0839 143.176 60.4355 143.038C60.7906 142.9 61.1706 142.83 61.5754 142.83C62.2395 142.83 62.8307 142.988 63.3492 143.304C63.8712 143.62 64.2814 144.052 64.5797 144.599C64.8815 145.142 65.0307 145.767 65.0271 146.474C65.0307 147.18 64.8709 147.811 64.5477 148.365C64.2281 148.919 63.7842 149.355 63.216 149.675C62.6514 149.991 62.0033 150.149 61.2718 150.149ZM70.7706 150.181C69.929 150.178 69.2099 149.956 68.6133 149.515C68.0167 149.075 67.5604 148.434 67.2444 147.592C66.9283 146.751 66.7703 145.737 66.7703 144.551C66.7703 143.368 66.9283 142.358 67.2444 141.52C67.564 140.682 68.0221 140.043 68.6187 139.602C69.2188 139.162 69.9361 138.942 70.7706 138.942C71.6052 138.942 72.3207 139.164 72.9173 139.608C73.5139 140.048 73.9702 140.687 74.2863 141.525C74.6059 142.36 74.7657 143.368 74.7657 144.551C74.7657 145.74 74.6076 146.756 74.2916 147.598C73.9755 148.436 73.5192 149.077 72.9226 149.521C72.326 149.961 71.6087 150.181 70.7706 150.181ZM70.7706 148.759C71.5093 148.759 72.0863 148.398 72.5018 147.678C72.9209 146.957 73.1304 145.914 73.1304 144.551C73.1304 143.645 73.0345 142.88 72.8427 142.255C72.6545 141.626 72.3829 141.151 72.0277 140.827C71.6762 140.501 71.2571 140.337 70.7706 140.337C70.0356 140.337 69.4585 140.7 69.0395 141.424C68.6204 142.148 68.4091 143.191 68.4056 144.551C68.4056 145.46 68.4997 146.229 68.6879 146.857C68.8797 147.482 69.1513 147.956 69.5029 148.279C69.8544 148.599 70.277 148.759 70.7706 148.759ZM79.8833 148.168V140.966H81.3162V148.168H79.8833ZM77.0016 145.281V143.853H84.2033V145.281H77.0016ZM90.2264 140.508V139.091H98.6693V140.508H95.2655V150H93.6249V140.508H90.2264ZM102.747 150.165C101.941 150.165 101.246 149.993 100.664 149.648C100.085 149.3 99.6378 148.812 99.3218 148.184C99.0093 147.551 98.853 146.811 98.853 145.962C98.853 145.124 99.0093 144.386 99.3218 143.746C99.6378 143.107 100.078 142.608 100.643 142.25C101.211 141.891 101.875 141.712 102.635 141.712C103.097 141.712 103.544 141.788 103.977 141.941C104.411 142.093 104.799 142.333 105.144 142.66C105.488 142.987 105.76 143.411 105.959 143.933C106.158 144.451 106.257 145.082 106.257 145.824V146.388H99.7532V145.195H104.696C104.696 144.776 104.611 144.405 104.441 144.082C104.27 143.755 104.031 143.498 103.722 143.31C103.416 143.121 103.058 143.027 102.646 143.027C102.198 143.027 101.808 143.137 101.474 143.358C101.144 143.574 100.888 143.858 100.707 144.21C100.529 144.558 100.44 144.936 100.44 145.344V146.277C100.44 146.824 100.536 147.289 100.728 147.672C100.923 148.056 101.195 148.349 101.543 148.551C101.891 148.75 102.298 148.849 102.763 148.849C103.065 148.849 103.34 148.807 103.588 148.722C103.837 148.633 104.052 148.501 104.233 148.327C104.414 148.153 104.553 147.939 104.648 147.683L106.156 147.955C106.035 148.398 105.819 148.787 105.506 149.121C105.197 149.451 104.808 149.709 104.34 149.893C103.874 150.075 103.343 150.165 102.747 150.165ZM111.471 150.165C110.679 150.165 109.997 149.986 109.425 149.627C108.857 149.265 108.42 148.766 108.115 148.13C107.809 147.495 107.657 146.767 107.657 145.946C107.657 145.115 107.813 144.382 108.125 143.746C108.438 143.107 108.878 142.608 109.447 142.25C110.015 141.891 110.684 141.712 111.455 141.712C112.076 141.712 112.63 141.827 113.117 142.058C113.603 142.285 113.996 142.605 114.294 143.017C114.596 143.429 114.775 143.91 114.832 144.46H113.282C113.197 144.077 113.001 143.746 112.696 143.469C112.394 143.192 111.989 143.054 111.481 143.054C111.037 143.054 110.649 143.171 110.315 143.406C109.985 143.636 109.727 143.967 109.542 144.396C109.358 144.822 109.265 145.327 109.265 145.909C109.265 146.506 109.356 147.021 109.537 147.454C109.718 147.887 109.974 148.223 110.304 148.461C110.638 148.699 111.03 148.817 111.481 148.817C111.783 148.817 112.057 148.762 112.302 148.652C112.55 148.539 112.758 148.377 112.925 148.168C113.095 147.958 113.214 147.706 113.282 147.411H114.832C114.775 147.94 114.603 148.413 114.315 148.828C114.027 149.244 113.642 149.57 113.159 149.808C112.68 150.046 112.117 150.165 111.471 150.165ZM118.128 145.142V150H116.535V139.091H118.106V143.15H118.208C118.399 142.71 118.692 142.36 119.087 142.1C119.481 141.841 119.996 141.712 120.631 141.712C121.192 141.712 121.682 141.827 122.101 142.058C122.524 142.289 122.851 142.633 123.082 143.091C123.316 143.546 123.433 144.114 123.433 144.796V150H121.84V144.988C121.84 144.387 121.686 143.922 121.377 143.592C121.068 143.258 120.638 143.091 120.088 143.091C119.712 143.091 119.374 143.171 119.076 143.331C118.781 143.491 118.549 143.725 118.378 144.034C118.211 144.339 118.128 144.709 118.128 145.142ZM127.151 145.142V150H125.558V141.818H127.087V143.15H127.188C127.377 142.717 127.671 142.369 128.073 142.106C128.477 141.843 128.987 141.712 129.601 141.712C130.159 141.712 130.647 141.829 131.066 142.063C131.485 142.294 131.81 142.638 132.041 143.097C132.272 143.555 132.387 144.121 132.387 144.796V150H130.795V144.988C130.795 144.395 130.64 143.931 130.331 143.597C130.022 143.26 129.598 143.091 129.058 143.091C128.689 143.091 128.36 143.171 128.073 143.331C127.789 143.491 127.563 143.725 127.396 144.034C127.233 144.339 127.151 144.709 127.151 145.142ZM137.97 150.165C137.203 150.165 136.533 149.989 135.962 149.638C135.39 149.286 134.946 148.794 134.63 148.162C134.314 147.53 134.156 146.792 134.156 145.946C134.156 145.098 134.314 144.355 134.63 143.72C134.946 143.084 135.39 142.591 135.962 142.239C136.533 141.887 137.203 141.712 137.97 141.712C138.737 141.712 139.406 141.887 139.978 142.239C140.55 142.591 140.993 143.084 141.31 143.72C141.626 144.355 141.784 145.098 141.784 145.946C141.784 146.792 141.626 147.53 141.31 148.162C140.993 148.794 140.55 149.286 139.978 149.638C139.406 149.989 138.737 150.165 137.97 150.165ZM137.975 148.828C138.472 148.828 138.884 148.697 139.211 148.434C139.538 148.171 139.779 147.821 139.935 147.385C140.095 146.948 140.175 146.467 140.175 145.941C140.175 145.419 140.095 144.94 139.935 144.503C139.779 144.062 139.538 143.709 139.211 143.443C138.884 143.176 138.472 143.043 137.975 143.043C137.474 143.043 137.059 143.176 136.729 143.443C136.402 143.709 136.159 144.062 135.999 144.503C135.843 144.94 135.764 145.419 135.764 145.941C135.764 146.467 135.843 146.948 135.999 147.385C136.159 147.821 136.402 148.171 136.729 148.434C137.059 148.697 137.474 148.828 137.975 148.828ZM145.154 139.091V150H143.561V139.091H145.154ZM150.743 150.165C149.976 150.165 149.307 149.989 148.735 149.638C148.163 149.286 147.719 148.794 147.403 148.162C147.087 147.53 146.929 146.792 146.929 145.946C146.929 145.098 147.087 144.355 147.403 143.72C147.719 143.084 148.163 142.591 148.735 142.239C149.307 141.887 149.976 141.712 150.743 141.712C151.51 141.712 152.18 141.887 152.751 142.239C153.323 142.591 153.767 143.084 154.083 143.72C154.399 144.355 154.557 145.098 154.557 145.946C154.557 146.792 154.399 147.53 154.083 148.162C153.767 148.794 153.323 149.286 152.751 149.638C152.18 149.989 151.51 150.165 150.743 150.165ZM150.748 148.828C151.246 148.828 151.658 148.697 151.984 148.434C152.311 148.171 152.552 147.821 152.709 147.385C152.868 146.948 152.948 146.467 152.948 145.941C152.948 145.419 152.868 144.94 152.709 144.503C152.552 144.062 152.311 143.709 151.984 143.443C151.658 143.176 151.246 143.043 150.748 143.043C150.248 143.043 149.832 143.176 149.502 143.443C149.175 143.709 148.932 144.062 148.772 144.503C148.616 144.94 148.538 145.419 148.538 145.941C148.538 146.467 148.616 146.948 148.772 147.385C148.932 147.821 149.175 148.171 149.502 148.434C149.832 148.697 150.248 148.828 150.748 148.828ZM159.765 153.239C159.115 153.239 158.556 153.153 158.087 152.983C157.622 152.813 157.242 152.587 156.947 152.306C156.653 152.026 156.432 151.719 156.287 151.385L157.656 150.82C157.752 150.977 157.88 151.142 158.039 151.316C158.203 151.493 158.423 151.644 158.7 151.768C158.98 151.893 159.341 151.955 159.781 151.955C160.385 151.955 160.884 151.808 161.278 151.513C161.672 151.222 161.869 150.756 161.869 150.117V148.509H161.768C161.672 148.683 161.534 148.876 161.353 149.089C161.175 149.302 160.93 149.487 160.617 149.643C160.305 149.799 159.898 149.877 159.398 149.877C158.751 149.877 158.169 149.727 157.651 149.425C157.136 149.119 156.727 148.67 156.425 148.077C156.127 147.48 155.978 146.747 155.978 145.877C155.978 145.007 156.125 144.261 156.42 143.64C156.718 143.018 157.127 142.543 157.645 142.212C158.164 141.879 158.751 141.712 159.408 141.712C159.916 141.712 160.326 141.797 160.639 141.967C160.951 142.134 161.195 142.33 161.369 142.553C161.546 142.777 161.683 142.974 161.779 143.145H161.896V141.818H163.457V150.181C163.457 150.884 163.293 151.461 162.967 151.912C162.64 152.363 162.198 152.697 161.64 152.914C161.086 153.13 160.461 153.239 159.765 153.239ZM159.749 148.556C160.207 148.556 160.594 148.45 160.91 148.237C161.23 148.02 161.472 147.711 161.635 147.31C161.802 146.905 161.885 146.42 161.885 145.856C161.885 145.305 161.804 144.821 161.64 144.402C161.477 143.983 161.237 143.656 160.921 143.422C160.605 143.184 160.214 143.065 159.749 143.065C159.27 143.065 158.87 143.189 158.551 143.438C158.231 143.683 157.99 144.016 157.826 144.439C157.667 144.862 157.587 145.334 157.587 145.856C157.587 146.392 157.668 146.863 157.832 147.267C157.995 147.672 158.236 147.988 158.556 148.216C158.879 148.443 159.277 148.556 159.749 148.556ZM166.599 153.068C166.361 153.068 166.145 153.049 165.95 153.01C165.754 152.974 165.609 152.935 165.513 152.892L165.896 151.587C166.187 151.665 166.447 151.699 166.674 151.689C166.901 151.678 167.102 151.593 167.276 151.433C167.453 151.273 167.61 151.012 167.745 150.65L167.942 150.107L164.948 141.818H166.653L168.725 148.168H168.81L170.882 141.818H172.592L169.22 151.092C169.064 151.518 168.865 151.879 168.624 152.173C168.382 152.472 168.094 152.695 167.761 152.844C167.427 152.994 167.04 153.068 166.599 153.068ZM85.6521 168V157.091H92.4916V158.508H87.2981V161.832H92.1347V163.243H87.2981V166.583H92.5555V168H85.6521ZM95.8195 159.818L97.6252 163.004L99.447 159.818H101.189L98.6373 163.909L101.21 168H99.4683L97.6252 164.942L95.7875 168H94.0403L96.5865 163.909L94.0723 159.818H95.8195ZM102.824 171.068V159.818H104.379V161.145H104.513C104.605 160.974 104.738 160.777 104.912 160.553C105.086 160.33 105.328 160.134 105.637 159.967C105.946 159.797 106.354 159.712 106.862 159.712C107.522 159.712 108.112 159.879 108.63 160.212C109.149 160.546 109.555 161.027 109.85 161.656C110.148 162.284 110.297 163.041 110.297 163.925C110.297 164.809 110.15 165.567 109.855 166.2C109.561 166.828 109.156 167.313 108.641 167.654C108.126 167.991 107.538 168.16 106.878 168.16C106.381 168.16 105.974 168.076 105.658 167.909C105.345 167.743 105.1 167.547 104.923 167.324C104.745 167.1 104.609 166.901 104.513 166.727H104.417V171.068H102.824ZM104.385 163.909C104.385 164.484 104.468 164.989 104.635 165.422C104.802 165.855 105.044 166.194 105.36 166.439C105.676 166.681 106.063 166.801 106.521 166.801C106.997 166.801 107.394 166.675 107.714 166.423C108.034 166.168 108.275 165.821 108.438 165.385C108.605 164.948 108.689 164.456 108.689 163.909C108.689 163.369 108.607 162.885 108.444 162.455C108.284 162.025 108.042 161.686 107.719 161.438C107.4 161.189 107 161.065 106.521 161.065C106.059 161.065 105.669 161.184 105.349 161.422C105.033 161.659 104.793 161.991 104.63 162.418C104.466 162.844 104.385 163.341 104.385 163.909ZM115.608 168.165C114.802 168.165 114.108 167.993 113.525 167.648C112.947 167.3 112.499 166.812 112.183 166.184C111.871 165.551 111.714 164.811 111.714 163.962C111.714 163.124 111.871 162.386 112.183 161.746C112.499 161.107 112.939 160.608 113.504 160.25C114.072 159.891 114.736 159.712 115.496 159.712C115.958 159.712 116.405 159.788 116.839 159.941C117.272 160.093 117.661 160.333 118.005 160.66C118.35 160.987 118.621 161.411 118.82 161.933C119.019 162.451 119.118 163.082 119.118 163.824V164.388H112.615V163.195H117.558C117.558 162.776 117.473 162.405 117.302 162.082C117.132 161.755 116.892 161.498 116.583 161.31C116.278 161.121 115.919 161.027 115.507 161.027C115.06 161.027 114.669 161.137 114.335 161.358C114.005 161.574 113.749 161.858 113.568 162.21C113.39 162.558 113.302 162.936 113.302 163.344V164.277C113.302 164.824 113.398 165.289 113.589 165.672C113.785 166.056 114.056 166.349 114.404 166.551C114.752 166.75 115.159 166.849 115.624 166.849C115.926 166.849 116.201 166.807 116.45 166.722C116.698 166.633 116.913 166.501 117.094 166.327C117.275 166.153 117.414 165.939 117.51 165.683L119.017 165.955C118.897 166.398 118.68 166.787 118.367 167.121C118.058 167.451 117.67 167.709 117.201 167.893C116.736 168.075 116.205 168.165 115.608 168.165ZM120.886 168V159.818H122.425V161.118H122.51C122.659 160.678 122.922 160.331 123.299 160.079C123.679 159.824 124.108 159.696 124.588 159.696C124.687 159.696 124.804 159.699 124.939 159.706C125.078 159.713 125.186 159.722 125.264 159.733V161.256C125.2 161.239 125.087 161.219 124.923 161.198C124.76 161.173 124.597 161.161 124.433 161.161C124.057 161.161 123.721 161.24 123.426 161.4C123.135 161.556 122.904 161.775 122.734 162.055C122.564 162.332 122.478 162.648 122.478 163.004V168H120.886ZM130.945 159.818V161.097H126.476V159.818H130.945ZM127.674 157.858H129.267V165.598C129.267 165.907 129.313 166.139 129.406 166.295C129.498 166.448 129.617 166.553 129.763 166.61C129.912 166.663 130.073 166.69 130.247 166.69C130.375 166.69 130.487 166.681 130.583 166.663C130.679 166.645 130.753 166.631 130.807 166.62L131.094 167.936C131.002 167.972 130.871 168.007 130.7 168.043C130.53 168.082 130.317 168.103 130.061 168.107C129.642 168.114 129.251 168.039 128.889 167.883C128.527 167.727 128.234 167.485 128.01 167.158C127.786 166.832 127.674 166.422 127.674 165.928V157.858ZM138.706 161.816L137.263 162.071C137.202 161.887 137.106 161.711 136.975 161.544C136.847 161.377 136.673 161.24 136.453 161.134C136.233 161.027 135.958 160.974 135.627 160.974C135.176 160.974 134.8 161.075 134.498 161.278C134.196 161.477 134.045 161.734 134.045 162.05C134.045 162.324 134.146 162.544 134.349 162.711C134.551 162.877 134.878 163.014 135.329 163.121L136.629 163.419C137.382 163.593 137.943 163.861 138.312 164.223C138.681 164.586 138.866 165.056 138.866 165.635C138.866 166.125 138.724 166.562 138.44 166.945C138.159 167.325 137.767 167.624 137.263 167.84C136.762 168.057 136.181 168.165 135.521 168.165C134.605 168.165 133.857 167.97 133.278 167.579C132.699 167.185 132.344 166.626 132.213 165.901L133.752 165.667C133.848 166.068 134.045 166.372 134.344 166.578C134.642 166.78 135.031 166.881 135.51 166.881C136.032 166.881 136.449 166.773 136.762 166.556C137.074 166.336 137.231 166.068 137.231 165.752C137.231 165.496 137.135 165.282 136.943 165.108C136.755 164.934 136.465 164.802 136.075 164.713L134.69 164.41C133.926 164.236 133.362 163.959 132.996 163.579C132.634 163.199 132.453 162.718 132.453 162.135C132.453 161.652 132.587 161.23 132.857 160.868C133.127 160.505 133.5 160.223 133.976 160.021C134.452 159.815 134.997 159.712 135.611 159.712C136.496 159.712 137.192 159.903 137.699 160.287C138.207 160.667 138.543 161.176 138.706 161.816Z" fill="black"/>
<path fill-rule="evenodd" clip-rule="evenodd" d="M86.7507 62.1349C86.2166 62.3033 85.3055 63.2469 85.1417 63.8015C84.9528 64.4413 84.9528 76.9627 85.1417 77.6025C85.3183 78.2005 86.22 79.1024 86.8178 79.2791C87.4464 79.4648 94.762 79.4648 95.3906 79.2791C95.9885 79.1024 96.8901 78.2005 97.0667 77.6025C97.2533 76.971 97.256 64.4395 97.0697 63.8176C96.9985 63.5801 96.7286 63.1502 96.4698 62.8622C95.6984 62.004 95.6151 61.9908 91.0576 62.0037C88.5292 62.0108 86.9961 62.0576 86.7507 62.1349ZM123.32 62.1349C122.786 62.3033 121.875 63.2469 121.711 63.8015C121.616 64.1231 121.579 65.58 121.579 68.9601C121.579 72.3403 121.616 73.7971 121.711 74.1187C121.887 74.7168 122.789 75.6186 123.387 75.7953C123.643 75.8709 124.472 75.9277 125.319 75.9277H126.803V76.7986V77.6696H125.932H125.061V78.5405V79.4115H130.285H135.51V78.5405V77.6696H134.639H133.768V76.7986V75.9277H135.252C136.099 75.9277 136.928 75.8709 137.184 75.7953C137.782 75.6186 138.683 74.7168 138.86 74.1187C139.045 73.493 139.047 64.4335 138.863 63.8176C138.792 63.5801 138.522 63.1502 138.263 62.8622C137.455 61.9632 137.715 61.9909 130.239 62.0037C125.805 62.0112 123.578 62.0534 123.32 62.1349ZM95.1905 64.0017C95.4099 64.2211 95.4577 64.3768 95.4577 64.8727V65.4763H91.1042H86.7507V64.8727C86.7507 64.3768 86.7985 64.2211 87.0179 64.0017L87.285 63.7345H91.1042H94.9234L95.1905 64.0017ZM136.984 64.0017L137.251 64.2689V67.4855V70.702H130.285H123.32V67.4855V64.2689L123.587 64.0017L123.854 63.7345H130.285H136.717L136.984 64.0017ZM110.804 65.5399C108.705 65.9157 106.977 66.7061 105.634 67.9042L105.199 68.2925L105.815 68.9156L106.432 69.5387L106.917 69.1133C107.629 68.4881 108.674 67.9042 109.661 67.5798C110.403 67.3359 110.732 67.2923 111.892 67.2843C112.864 67.2777 113.454 67.329 113.96 67.4641C114.932 67.7237 116.305 68.4309 116.974 69.0155L117.53 69.5023L118.157 68.8844L118.785 68.2664L118.359 67.8942C116.615 66.3715 114.662 65.6064 112.327 65.5314C111.639 65.5092 110.953 65.513 110.804 65.5399ZM95.4577 70.702V74.1858H91.1042H86.7507V70.702V67.2182H91.1042H95.4577V70.702ZM110.749 69.0867C109.763 69.2723 107.756 70.4116 107.756 70.7862C107.756 70.898 108.77 71.8996 108.883 71.8996C108.93 71.8996 109.126 71.7791 109.319 71.6318C109.512 71.4845 109.962 71.2277 110.318 71.0613C110.885 70.7972 111.098 70.7587 112.001 70.7587C112.903 70.7587 113.117 70.7972 113.683 71.0613C114.04 71.2277 114.49 71.4845 114.683 71.6318C114.876 71.7791 115.076 71.8996 115.127 71.8996C115.257 71.8996 116.246 70.882 116.246 70.7479C116.246 70.5902 115.312 69.9072 114.627 69.5633C113.556 69.0257 112.055 68.8412 110.749 69.0867ZM111.347 72.5396C110.934 72.6746 110.422 72.9558 110.281 73.1255C110.18 73.2468 110.272 73.3894 110.736 73.8368C111.296 74.3765 111.329 74.3918 111.659 74.2672C111.912 74.1717 112.083 74.1691 112.317 74.2574C112.615 74.3701 112.665 74.3445 113.201 73.802C113.519 73.4795 113.735 73.1741 113.694 73.1062C113.442 72.6991 111.957 72.3406 111.347 72.5396ZM137.251 73.0476C137.251 73.5435 137.203 73.6992 136.984 73.9185L136.717 74.1858H130.285H123.854L123.587 73.9185C123.368 73.6992 123.32 73.5435 123.32 73.0476V72.4439H130.285H137.251V73.0476ZM95.4577 76.5314C95.4577 77.0273 95.4099 77.1829 95.1905 77.4023L94.9234 77.6696H91.1042H87.285L87.0179 77.4023C86.7985 77.1829 86.7507 77.0273 86.7507 76.5314V75.9277H91.1042H95.4577V76.5314ZM110.144 76.0963C109.028 76.2984 107.744 76.7667 106.71 77.3488C105.481 78.0406 103.638 79.8963 102.947 81.1391C102.505 81.9331 101.901 83.5572 101.723 84.4316C101.673 84.676 101.593 84.7259 101.152 84.7862C100.314 84.9012 98.9443 85.6336 98.2029 86.3638C94.8749 89.6415 96.1861 95.0414 100.682 96.5722C101.252 96.7663 101.83 96.776 112.872 96.776C123.913 96.776 124.491 96.7663 125.061 96.5722C127.542 95.7276 129.167 93.7103 129.378 91.215C129.501 89.7669 128.97 87.9986 128.107 86.9756C127.771 86.5776 127.785 86.5845 128.282 87.0595C128.58 87.3439 128.862 87.5766 128.909 87.5766C128.956 87.5766 129.152 87.4561 129.345 87.3088C129.538 87.1615 129.988 86.9048 130.344 86.7383C130.91 86.4742 131.124 86.4358 132.027 86.4358C132.929 86.4358 133.143 86.4742 133.709 86.7383C134.066 86.9048 134.516 87.1615 134.709 87.3088C134.902 87.4561 135.102 87.5766 135.153 87.5766C135.283 87.5766 136.271 86.559 136.271 86.4249C136.271 86.3645 136.036 86.1351 135.748 85.9153C133.894 84.5011 131.463 84.2599 129.372 85.2831C128.887 85.5205 128.318 85.882 128.109 86.0861L127.728 86.4572L127.129 85.9881C125.96 85.0715 124.446 84.5819 123.01 84.6556L122.308 84.6916L122.105 83.829C121.993 83.3546 121.682 82.5038 121.414 81.9383C119.384 77.6515 114.768 75.2587 110.144 76.0963ZM132.027 76.7986V77.6696H130.285H128.544V76.7986V75.9277H130.285H132.027V76.7986ZM113.542 77.8235C117.578 78.6016 120.411 81.8389 120.673 85.9708C120.71 86.5547 120.752 87.0323 120.766 87.0323C120.779 87.0323 121.127 86.9004 121.538 86.7393C122.156 86.4972 122.465 86.4453 123.32 86.4399C124.262 86.434 124.418 86.4641 125.081 86.778C126.093 87.2575 126.723 87.8747 127.212 88.8656C127.596 89.642 127.619 89.7467 127.619 90.7281C127.619 91.6698 127.586 91.8367 127.274 92.4953C126.795 93.5074 126.178 94.1378 125.188 94.6274L124.365 95.0341H112.872H101.378L100.556 94.6274C99.565 94.1378 98.948 93.5074 98.4687 92.4953C98.1572 91.8376 98.1242 91.6691 98.1242 90.7338C98.1242 89.7985 98.1572 89.63 98.4687 88.9723C98.9431 87.9706 99.5666 87.3289 100.527 86.854C101.209 86.5173 101.46 86.4534 102.294 86.4058L103.267 86.3504L103.339 85.6298C103.513 83.8763 104.24 82.0782 105.28 80.8268C107.289 78.4089 110.509 77.2387 113.542 77.8235ZM110.488 79.5798C108.557 79.9989 106.711 81.4387 105.819 83.2219C105.37 84.1187 105.041 85.2995 105.037 86.0252L105.035 86.379H105.882H106.728L106.85 85.6063C107.201 83.3754 109.006 81.5769 111.248 81.2238L112.001 81.1051V80.2584V79.4115L111.593 79.4201C111.368 79.4249 110.871 79.4967 110.488 79.5798ZM90.7777 81.2169C88.6904 81.5908 86.9763 82.3718 85.617 83.5683L85.1906 83.9434L85.8244 84.5674L86.4582 85.1913L86.7949 84.8707C88.5318 83.2172 91.4846 82.516 93.9884 83.1625C94.9108 83.4007 96.2901 84.1173 96.9678 84.7103L97.5443 85.2148L98.1608 84.5922L98.7772 83.9696L98.3419 83.5843C96.6206 82.061 94.6445 81.2837 92.3014 81.2085C91.613 81.1862 90.9274 81.1901 90.7777 81.2169ZM130.83 81.2169C128.731 81.5928 127.003 82.3831 125.66 83.5812L125.225 83.9696L125.841 84.5926L126.458 85.2157L126.943 84.7903C127.655 84.1651 128.699 83.5812 129.687 83.2568C130.429 83.0129 130.758 82.9693 131.918 82.9613C132.89 82.9547 133.48 83.006 133.986 83.1411C134.958 83.4007 136.331 84.1079 136.999 84.6926L137.556 85.1793L138.183 84.5614L138.811 83.9434L138.385 83.5712C136.641 82.0485 134.688 81.2835 132.353 81.2085C131.665 81.1862 130.979 81.1901 130.83 81.2169ZM90.7233 84.7638C89.7367 84.9493 87.7303 86.0886 87.7303 86.4632C87.7303 86.575 88.7438 87.5766 88.8568 87.5766C88.9036 87.5766 89.1 87.4561 89.2931 87.3088C89.4861 87.1615 89.9359 86.9048 90.2925 86.7383C90.8586 86.4742 91.0724 86.4358 91.9749 86.4358C92.8774 86.4358 93.0913 86.4742 93.6573 86.7383C94.014 86.9048 94.4637 87.1615 94.6568 87.3088C94.8498 87.4561 95.0497 87.5766 95.1008 87.5766C95.231 87.5766 96.2195 86.559 96.2195 86.4249C96.2195 86.2672 95.2865 85.5842 94.6013 85.2403C93.5302 84.7027 92.0292 84.5183 90.7233 84.7638ZM91.3212 88.2166C90.9077 88.3516 90.396 88.6328 90.2551 88.8026C90.1545 88.9238 90.2458 89.0665 90.7101 89.5138C91.2704 90.0536 91.303 90.0688 91.6329 89.9443C91.8859 89.8487 92.0572 89.8462 92.2911 89.9345C92.5895 90.0471 92.6391 90.0216 93.1748 89.4791C93.4932 89.1565 93.7094 88.8511 93.6675 88.7832C93.4159 88.3761 91.9314 88.0176 91.3212 88.2166ZM104.165 88.2632C103.63 88.4317 102.719 89.3753 102.556 89.9299C102.254 90.9506 102.467 91.7644 103.236 92.5338C103.799 93.0976 104.351 93.3466 105.035 93.3466C105.72 93.3466 106.271 93.0976 106.835 92.5338C107.898 91.4699 107.93 90.1166 106.918 88.9906C106.214 88.2069 105.196 87.938 104.165 88.2632ZM111.13 88.2632C110.596 88.4317 109.685 89.3753 109.521 89.9299C109.22 90.9506 109.432 91.7644 110.201 92.5338C110.765 93.0976 111.316 93.3466 112.001 93.3466C112.685 93.3466 113.237 93.0976 113.8 92.5338C114.864 91.4699 114.896 90.1166 113.884 88.9906C113.179 88.2069 112.162 87.938 111.13 88.2632ZM118.096 88.2632C117.562 88.4317 116.65 89.3753 116.487 89.9299C116.185 90.9506 116.398 91.7644 117.167 92.5338C117.731 93.0976 118.282 93.3466 118.966 93.3466C119.651 93.3466 120.202 93.0976 120.766 92.5338C121.829 91.4699 121.861 90.1166 120.849 88.9906C120.145 88.2069 119.127 87.938 118.096 88.2632ZM131.373 88.2166C130.96 88.3516 130.448 88.6328 130.307 88.8026C130.206 88.9238 130.298 89.0665 130.762 89.5138C131.322 90.0536 131.355 90.0688 131.685 89.9443C131.938 89.8487 132.109 89.8462 132.343 89.9345C132.641 90.0471 132.691 90.0216 133.227 89.4791C133.545 89.1565 133.761 88.8511 133.719 88.7832C133.468 88.3761 131.983 88.0176 131.373 88.2166ZM105.639 90.1301C106.179 90.6701 105.796 91.6047 105.035 91.6047C104.588 91.6047 104.165 91.1813 104.165 90.7338C104.165 90.2862 104.588 89.8628 105.035 89.8628C105.247 89.8628 105.47 89.9616 105.639 90.1301ZM112.604 90.1301C112.773 90.2985 112.872 90.5217 112.872 90.7338C112.872 90.9459 112.773 91.169 112.604 91.3375C112.065 91.8775 111.13 91.4949 111.13 90.7338C111.13 90.2862 111.553 89.8628 112.001 89.8628C112.213 89.8628 112.436 89.9616 112.604 90.1301ZM119.57 90.1301C119.738 90.2985 119.837 90.5217 119.837 90.7338C119.837 90.9459 119.738 91.169 119.57 91.3375C119.402 91.506 119.178 91.6047 118.966 91.6047C118.754 91.6047 118.531 91.506 118.363 91.3375C118.194 91.169 118.096 90.9459 118.096 90.7338C118.096 90.5217 118.194 90.2985 118.363 90.1301C118.531 89.9616 118.754 89.8628 118.966 89.8628C119.178 89.8628 119.402 89.9616 119.57 90.1301ZM88.4921 98.7146C87.958 98.883 87.0469 99.8267 86.8831 100.381C86.7876 100.704 86.7507 102.212 86.7507 105.785V110.741L86.3675 110.813C85.8696 110.907 85.2744 111.435 85.1116 111.929C84.9216 112.504 85.0656 113.413 85.4659 114.164C85.8477 114.88 86.1947 115.213 87.0112 115.643L87.567 115.937H95.4577H103.348L104.034 115.565C104.411 115.36 104.843 115.047 104.993 114.869C105.702 114.025 106.064 112.716 105.804 111.929C105.641 111.435 105.046 110.907 104.548 110.813L104.165 110.741V105.785C104.165 102.271 104.127 100.704 104.035 100.397C103.964 100.16 103.694 99.7299 103.435 99.4419C102.627 98.5429 102.887 98.5707 95.4111 98.5834C90.9773 98.5909 88.7505 98.6331 88.4921 98.7146ZM125.061 98.7146C124.527 98.883 123.616 99.8267 123.452 100.381C123.284 100.95 123.28 103.211 123.445 103.7C123.514 103.904 123.665 104.205 123.779 104.37C123.985 104.664 123.985 104.673 123.779 104.968C123.416 105.49 123.32 105.974 123.32 107.282C123.32 108.59 123.416 109.073 123.779 109.595C123.985 109.89 123.985 109.899 123.779 110.194C123.665 110.359 123.514 110.66 123.445 110.863C123.28 111.352 123.284 113.614 123.452 114.182C123.629 114.78 124.53 115.682 125.128 115.859C125.765 116.047 136.547 116.047 137.184 115.859C137.782 115.682 138.683 114.78 138.86 114.182C138.933 113.936 138.992 113.147 138.992 112.428C138.992 111.21 138.972 111.082 138.683 110.509L138.373 109.895L138.683 109.28C138.975 108.701 138.992 108.587 138.992 107.282C138.992 105.977 138.975 105.862 138.683 105.283L138.373 104.669L138.683 104.055C138.972 103.482 138.992 103.354 138.992 102.135C138.992 100.556 138.875 100.123 138.263 99.4419C137.464 98.5529 137.612 98.5707 131.11 98.5834C127.311 98.5909 125.317 98.6341 125.061 98.7146ZM102.156 100.581L102.423 100.849V105.807V110.766H95.4577H88.4921V105.807V100.849L88.7593 100.581L89.0264 100.314H95.4577H101.889L102.156 100.581ZM136.984 100.581C137.235 100.833 137.251 100.919 137.251 102.056C137.251 103.193 137.235 103.279 136.984 103.531L136.717 103.798H131.156H125.596L125.328 103.531C125.077 103.279 125.061 103.193 125.061 102.056C125.061 100.919 125.077 100.833 125.328 100.581L125.596 100.314H131.156H136.717L136.984 100.581ZM110.804 101.249C108.716 101.623 107.002 102.404 105.643 103.6L105.217 103.975L105.85 104.599L106.484 105.223L106.821 104.902C108.558 103.249 111.511 102.548 114.014 103.194C114.937 103.432 116.316 104.149 116.994 104.742L117.57 105.247L118.187 104.624L118.803 104.001L118.368 103.616C116.647 102.093 114.67 101.315 112.327 101.24C111.639 101.218 110.953 101.222 110.804 101.249ZM90.2335 105.54V109.024H95.4577H100.682V105.54V102.056H95.4577H90.2335V105.54ZM98.9405 105.54V107.282H95.4577H91.9749V105.54V103.798H95.4577H98.9405V105.54ZM110.749 104.796C109.763 104.981 107.756 106.12 107.756 106.495C107.756 106.607 108.77 107.608 108.883 107.608C108.93 107.608 109.126 107.488 109.319 107.341C109.512 107.193 109.962 106.937 110.318 106.77C110.885 106.506 111.098 106.468 112.001 106.468C112.903 106.468 113.117 106.506 113.683 106.77C114.04 106.937 114.49 107.193 114.683 107.341C114.876 107.488 115.076 107.608 115.127 107.608C115.257 107.608 116.246 106.591 116.246 106.457C116.246 106.299 115.312 105.616 114.627 105.272C113.556 104.734 112.055 104.55 110.749 104.796ZM136.984 105.807C137.235 106.059 137.251 106.145 137.251 107.282C137.251 108.419 137.235 108.505 136.984 108.756L136.717 109.024H131.156H125.596L125.328 108.756C125.077 108.505 125.061 108.419 125.061 107.282C125.061 106.145 125.077 106.059 125.328 105.807L125.596 105.54H131.156H136.717L136.984 105.807ZM111.347 108.248C110.934 108.383 110.422 108.665 110.281 108.834C110.18 108.956 110.272 109.098 110.736 109.546C111.296 110.085 111.329 110.101 111.659 109.976C111.912 109.88 112.083 109.878 112.317 109.966C112.615 110.079 112.665 110.053 113.201 109.511C113.519 109.188 113.735 108.883 113.694 108.815C113.442 108.408 111.957 108.049 111.347 108.248ZM136.984 111.033C137.235 111.284 137.251 111.371 137.251 112.507C137.251 113.644 137.235 113.73 136.984 113.982L136.717 114.249H131.156H125.596L125.328 113.982C125.077 113.73 125.061 113.644 125.061 112.507C125.061 111.371 125.077 111.284 125.328 111.033L125.596 110.766H131.156H136.717L136.984 111.033ZM104.123 112.861C104.041 113.277 103.78 113.658 103.361 113.97C103.064 114.192 102.967 114.195 95.4577 114.195C87.9488 114.195 87.8514 114.192 87.5545 113.97C87.1358 113.658 86.8742 113.277 86.7929 112.861L86.7235 112.507H95.4577H104.192L104.123 112.861Z" fill="#04585E"/>
<defs>
<filter id="filter0_d_2506_10" x="0.757812" y="0" width="222.484" height="217.106" filterUnits="userSpaceOnUse" color-interpolation-filters="sRGB">
<feFlood flood-opacity="0" result="BackgroundImageFix"/>
<feColorMatrix in="SourceAlpha" type="matrix" values="0 0 0 0 0 0 0 0 0 0 0 0 0 0 0 0 0 0 127 0" result="hardAlpha"/>
<feOffset/>
<feGaussianBlur stdDeviation="2"/>
<feComposite in2="hardAlpha" operator="out"/>
<feColorMatrix type="matrix" values="0 0 0 0 0 0 0 0 0 0 0 0 0 0 0 0 0 0 0.25 0"/>
<feBlend mode="normal" in2="BackgroundImageFix" result="effect1_dropShadow_2506_10"/>
<feBlend mode="normal" in="SourceGraphic" in2="effect1_dropShadow_2506_10" result="shape"/>
</filter>
</defs>
</svg>
