<svg width="48" height="70" viewBox="0 0 48 70" fill="none" xmlns="http://www.w3.org/2000/svg">
<path d="M23.8292 0C11.6418 0 12.4025 5.31238 12.4025 5.31238L12.4163 10.8152H24.0443V12.4673H7.79472C7.79472 12.4673 0 11.5748 0 23.9379C0 36.3011 6.80805 35.8588 6.80805 35.8588H10.8702V30.124C10.8702 30.124 10.6511 23.2814 17.5687 23.2814H29.098C29.098 23.2814 35.5785 23.3866 35.5785 16.9863V6.4042C35.5785 6.4042 36.5632 0 23.8292 0ZM17.4158 3.69695C17.8297 3.69695 18.2343 3.8203 18.5784 4.05142C18.9226 4.28254 19.1908 4.61103 19.3492 4.99537C19.5076 5.3797 19.5491 5.80261 19.4683 6.21062C19.3876 6.61862 19.1882 6.9934 18.8956 7.28756C18.6029 7.58171 18.23 7.78204 17.8241 7.86319C17.4181 7.94435 16.9973 7.9027 16.6149 7.7435C16.2325 7.58431 15.9057 7.31472 15.6757 6.96883C15.4458 6.62293 15.323 6.21628 15.323 5.80028C15.3228 5.52399 15.3767 5.25036 15.4818 4.99506C15.5869 4.73975 15.741 4.50778 15.9354 4.31242C16.1298 4.11705 16.3606 3.96213 16.6146 3.85652C16.8686 3.75091 17.1409 3.69668 17.4158 3.69695V3.69695Z" fill="url(#paint0_linear_741_124)"/>
<path d="M24.1724 48.0004C36.3598 48.0004 35.599 42.688 35.599 42.688L35.5852 37.1853H23.9553V35.5331H40.2048C40.2048 35.5331 47.9995 36.4256 47.9995 24.0625C47.9995 11.6993 41.1915 12.1416 41.1915 12.1416H37.1343V17.8765C37.1343 17.8765 37.3533 24.719 30.4358 24.719H18.9006C18.9006 24.719 12.4201 24.6139 12.4201 31.0141V41.5952C12.4201 41.5952 11.4334 47.9994 24.1724 47.9994V48.0004ZM30.5857 44.2995C30.1718 44.2995 29.7672 44.1761 29.4231 43.945C29.0789 43.7139 28.8107 43.3854 28.6523 43.0011C28.4939 42.6167 28.4525 42.1938 28.5332 41.7858C28.614 41.3778 28.8133 41.003 29.106 40.7089C29.3986 40.4147 29.7715 40.2144 30.1775 40.1332C30.5834 40.0521 31.0042 40.0937 31.3866 40.2529C31.769 40.4121 32.0958 40.6817 32.3258 41.0276C32.5557 41.3735 32.6785 41.7802 32.6785 42.1962C32.6787 42.4724 32.6248 42.7461 32.5197 43.0014C32.4146 43.2567 32.2605 43.4887 32.0661 43.684C31.8717 43.8794 31.6409 44.0343 31.3869 44.1399C31.1329 44.2455 30.8606 44.2998 30.5857 44.2995V44.2995Z" fill="url(#paint1_linear_741_124)"/>
<path d="M3.79901 68V60.7273H6.39134C6.95715 60.7273 7.4259 60.8303 7.79759 61.0362C8.16927 61.2422 8.44744 61.5239 8.6321 61.8814C8.81676 62.2365 8.90909 62.6366 8.90909 63.0817C8.90909 63.5291 8.81558 63.9316 8.62855 64.2891C8.44389 64.6442 8.16454 64.9259 7.79048 65.1342C7.4188 65.3402 6.95123 65.4432 6.38778 65.4432H4.60511V64.5128H6.28835C6.64583 64.5128 6.93584 64.4512 7.15838 64.3281C7.38092 64.2027 7.54427 64.0322 7.64844 63.8168C7.7526 63.6013 7.80469 63.3563 7.80469 63.0817C7.80469 62.8071 7.7526 62.5632 7.64844 62.3501C7.54427 62.1371 7.37973 61.9702 7.15483 61.8494C6.93229 61.7287 6.63873 61.6683 6.27415 61.6683H4.89631V68H3.79901ZM9.63441 60.7273H10.8809L12.7807 64.0334H12.8588L14.7587 60.7273H16.0051L13.3667 65.1449V68H12.2729V65.1449L9.63441 60.7273ZM17.1415 61.6719V60.7273H22.7701V61.6719H20.5009V68H19.4071V61.6719H17.1415ZM24.0138 68V60.7273H25.1112V63.8878H28.7369V60.7273H29.8377V68H28.7369V64.8288H25.1112V68H24.0138ZM37.7532 64.3636C37.7532 65.1402 37.6112 65.8078 37.3271 66.3665C37.043 66.9228 36.6535 67.3513 36.1587 67.652C35.6663 67.9503 35.1064 68.0994 34.479 68.0994C33.8493 68.0994 33.2871 67.9503 32.7923 67.652C32.2998 67.3513 31.9116 66.9216 31.6275 66.3629C31.3434 65.8042 31.2013 65.1378 31.2013 64.3636C31.2013 63.5871 31.3434 62.9207 31.6275 62.3643C31.9116 61.8056 32.2998 61.3771 32.7923 61.0788C33.2871 60.7782 33.8493 60.6278 34.479 60.6278C35.1064 60.6278 35.6663 60.7782 36.1587 61.0788C36.6535 61.3771 37.043 61.8056 37.3271 62.3643C37.6112 62.9207 37.7532 63.5871 37.7532 64.3636ZM36.6665 64.3636C36.6665 63.7718 36.5707 63.2734 36.3789 62.8686C36.1895 62.4614 35.9291 62.1536 35.5977 61.9453C35.2686 61.7346 34.8957 61.6293 34.479 61.6293C34.06 61.6293 33.686 61.7346 33.3569 61.9453C33.0278 62.1536 32.7674 62.4614 32.5756 62.8686C32.3862 63.2734 32.2915 63.7718 32.2915 64.3636C32.2915 64.9555 32.3862 65.455 32.5756 65.8622C32.7674 66.267 33.0278 66.5748 33.3569 66.7855C33.686 66.9938 34.06 67.098 34.479 67.098C34.8957 67.098 35.2686 66.9938 35.5977 66.7855C35.9291 66.5748 36.1895 66.267 36.3789 65.8622C36.5707 65.455 36.6665 64.9555 36.6665 64.3636ZM44.9913 60.7273V68H43.9828L40.286 62.6662H40.2186V68H39.1213V60.7273H40.1369L43.8372 66.0682H43.9047V60.7273H44.9913Z" fill="black"/>
<defs>
<linearGradient id="paint0_linear_741_124" x1="4.6275" y1="4.30329" x2="28.509" y2="27.8662" gradientUnits="userSpaceOnUse">
<stop stop-color="#387EB8"/>
<stop offset="1" stop-color="#366994"/>
</linearGradient>
<linearGradient id="paint1_linear_741_124" x1="19.2014" y1="19.527" x2="44.8667" y2="43.6515" gradientUnits="userSpaceOnUse">
<stop stop-color="#FFE052"/>
<stop offset="1" stop-color="#FFC331"/>
</linearGradient>
</defs>
</svg>
