<svg width="56" height="61" viewBox="0 0 56 61" fill="none" xmlns="http://www.w3.org/2000/svg">
<path d="M56 10.4602L46.7368 14.0817C46.6961 14.0978 46.6625 14.1282 46.642 14.1673C46.6215 14.2064 46.6156 14.2517 46.6252 14.2949C46.7815 15.0035 47.3809 17.9761 46.8931 19.8504C46.3314 22.0088 43.6638 23.2348 42.9198 23.5366C42.8963 23.5463 42.875 23.561 42.8576 23.5797C42.8401 23.5984 42.8268 23.6207 42.8185 23.6451C42.8103 23.6695 42.8074 23.6954 42.8099 23.721C42.8124 23.7467 42.8203 23.7715 42.833 23.7938L45.239 27.9994L28.2582 21.4517C28.1324 21.4033 27.9934 21.4033 27.8676 21.4517L10.9494 28L15.0559 20.7821C15.072 20.7537 15.0793 20.721 15.077 20.6883C15.0746 20.6556 15.0627 20.6243 15.0427 20.5985C15.0228 20.5727 14.9956 20.5535 14.9649 20.5435C14.9341 20.5334 14.901 20.5329 14.8699 20.542L13.1341 21.0368C12.8219 21.1101 12.4949 21.0834 12.1983 20.9605C11.9016 20.8375 11.6498 20.6243 11.4776 20.3502L10.0015 17.9981C9.91272 17.8568 9.86657 17.6922 9.86877 17.5247C9.87098 17.3571 9.92143 17.1939 10.0139 17.055L10.4739 16.3634C10.5133 16.3045 10.5328 16.2343 10.5296 16.1633C10.5263 16.0922 10.5005 16.0241 10.4559 15.9692L9.54773 14.945C9.47962 14.8678 9.42397 14.7801 9.38282 14.6853L9.19684 14.2521C9.12443 14.1533 9.02633 14.0769 8.91353 14.0314L0 10.4577L9.56881 10.5608C9.56881 10.5608 12.7981 5.20968 15.7924 3.93775C16.7353 3.54354 18.0478 4.73311 18.142 5.2669C18.3528 6.46967 18.429 9.32097 18.6119 10.1836C18.6196 10.2205 18.6348 10.2555 18.6564 10.2862C18.6781 10.3169 18.7057 10.3428 18.7377 10.3622C18.7696 10.3816 18.8051 10.3941 18.8421 10.399C18.879 10.4039 18.9165 10.4009 18.9523 10.3904C19.2951 10.2861 19.478 9.84283 20.088 9.62591C20.7296 9.39705 21.6186 10.0478 22.1121 9.453C22.9317 8.45646 27.1758 1.18956 27.8497 0.0597273C27.9439 -0.0987133 28.1975 0.0528293 28.5434 0.577192C28.5434 0.577192 32.8352 7.74473 33.8476 8.89532C34.1103 9.17913 34.4194 9.41462 34.7614 9.59132C34.8771 9.64801 35.0036 9.67839 35.1321 9.68035C35.2606 9.6823 35.388 9.65578 35.5053 9.60264C36.7976 9.13858 38.2122 9.16697 39.4854 9.6825C39.6033 9.72869 39.7308 9.74409 39.8561 9.72728C39.9814 9.71047 40.1006 9.66199 40.2026 9.58629C40.3595 9.45222 40.5442 9.35587 40.743 9.30445C40.9417 9.25303 41.1494 9.24788 41.3504 9.28937C41.5514 9.33085 41.7406 9.41791 41.9037 9.54402C42.0668 9.67014 42.1997 9.83203 42.2925 10.0176C42.3013 10.0307 42.3128 10.0416 42.3263 10.0497C42.3398 10.0577 42.3548 10.0627 42.3704 10.0642C42.3859 10.0657 42.4016 10.0637 42.4163 10.0584C42.431 10.053 42.4444 10.0445 42.4555 10.0333C42.739 9.70423 43.106 9.4603 43.5167 9.32805C43.9273 9.1958 44.3659 9.1803 44.7846 9.28325C45.3041 9.37881 45.5174 9.97486 45.7369 10.6451C45.7432 10.6651 45.7557 10.6824 45.7726 10.6946C45.7895 10.7067 45.8098 10.713 45.8305 10.7124C46.7678 10.696 56 10.4602 56 10.4602ZM46.5093 13.3687C47.487 13.0871 52.5773 11.0538 52.5773 11.0538C52.5773 11.0538 46.73 11.0192 46.5192 11.0538C46.3084 11.0883 45.9954 11.1657 45.9954 11.3958C46.0238 12.0225 46.1173 12.6444 46.2743 13.2512C46.2918 13.2971 46.3257 13.3347 46.3692 13.3565C46.4127 13.3782 46.4627 13.3826 46.5093 13.3687ZM38.6596 22.6206C39.6261 22.7696 45.9991 23.5423 45.996 18.022C45.8274 14.5137 44.4294 9.58819 43.7518 10.1836C43.4982 10.4062 44.0457 11.2141 44.3674 12.21C44.7648 13.4373 44.9074 14.8048 43.9713 15.0437C42.3811 15.4511 41.9633 10.1836 40.9001 10.4231C40.5138 10.5891 41.6087 12.3565 41.874 14.5382C42.1393 16.7199 42.5026 18.8092 43.5658 18.723C44.5348 18.6451 44.9985 17.0758 45.3017 16.9525C45.3116 16.9491 45.3223 16.9479 45.3327 16.9492C45.3432 16.9504 45.3533 16.954 45.3623 16.9596C45.3712 16.9653 45.3788 16.9729 45.3845 16.9819C45.3902 16.9909 45.3939 17.001 45.3953 17.0116C45.5031 17.8252 44.6445 19.3568 44.0364 19.7334C42.8132 20.6004 40.5399 19.8743 39.9844 19.6768C39.9702 19.6716 39.9549 19.6698 39.9399 19.6716C39.9249 19.6735 39.9105 19.6789 39.8979 19.6874C39.8853 19.6959 39.8748 19.7072 39.8673 19.7206C39.8599 19.7339 39.8556 19.7489 39.8548 19.7642C39.8306 20.2785 39.724 20.7854 39.5393 21.265C39.3152 21.7366 39.0054 22.1611 38.6261 22.5162C38.6186 22.5244 38.6134 22.5345 38.6111 22.5454C38.6087 22.5563 38.6093 22.5677 38.6127 22.5783C38.6161 22.589 38.6222 22.5985 38.6305 22.6059C38.6387 22.6133 38.6488 22.6184 38.6596 22.6206ZM43.0823 26.2672C43.1963 26.3144 43.2428 26.1993 43.1908 26.1239C43.1908 26.1239 41.9509 23.8214 41.4004 23.6045C40.8499 23.3876 40.0731 23.9013 39.0607 23.673C38.7465 23.613 38.4605 23.4497 38.2469 23.2083C38.0333 22.9669 37.9041 22.6609 37.8791 22.3376C37.9014 21.79 39.7017 20.7828 38.9813 19.497C38.6094 18.8463 37.8301 18.6677 37.2945 18.0251C36.8525 17.4711 36.4955 16.8526 36.2356 16.1905C36.2324 16.1824 36.2274 16.1752 36.221 16.1694C36.2146 16.1636 36.207 16.1594 36.1987 16.1571C36.1904 16.1548 36.1817 16.1544 36.1733 16.1561C36.1648 16.1577 36.1569 16.1613 36.1501 16.1666C35.8469 16.4049 34.4142 17.4712 33.0702 17.5146C31.751 17.5567 30.5402 16.6061 30.1856 16.4112C30.1614 16.398 30.1343 16.3912 30.1069 16.3912C30.0794 16.3912 30.0524 16.398 30.0281 16.4112C29.358 16.7639 28.575 17.7787 27.0003 17.7636C25.6098 17.7504 25.6402 17.3071 24.8963 17.3178C24.8875 17.3178 24.8789 17.3196 24.8708 17.3232C24.8628 17.3268 24.8557 17.332 24.8498 17.3386C24.844 17.3452 24.8396 17.353 24.8369 17.3614C24.8342 17.3699 24.8333 17.3788 24.8343 17.3876C24.8907 18.227 23.1604 19.006 21.8114 18.6181C21.0963 18.3338 20.477 17.8466 20.0279 17.2147C19.306 18.1959 18.4257 19.0463 17.4241 19.7296C17.2973 19.8176 17.1781 19.9163 17.0676 20.0245C15.6827 21.3933 13.4875 25.353 12.9903 26.249C13.529 26.3942 16.297 25.1544 19.3676 23.8824C23.0668 22.3502 27.1789 20.7167 28.0053 20.6702C29.5167 20.5866 40.3936 25.6529 43.0823 26.2672ZM40.6465 16.1245C40.6676 14.5847 40.9329 12.6664 39.7693 11.3958C38.6751 10.2244 37.7272 10.3232 37.5375 10.4345C36.9368 10.8023 37.6565 12.4508 38.2306 12.371C38.9287 12.2911 38.2418 11.2688 38.5629 11.0305C38.9225 10.779 40.5901 13.0959 39.7668 14.078C39.5408 14.3524 39.2169 14.525 38.8659 14.558C38.5148 14.5909 38.1652 14.4817 37.8933 14.254C37.5487 13.956 37.2114 12.6589 36.8959 11.7058C36.6807 11.0563 36.4669 10.5432 36.4669 10.5432C36.4439 10.4895 36.4017 10.4466 36.3488 10.4232C36.2958 10.3999 36.2361 10.3978 36.1817 10.4175C36.1817 10.4175 35.7335 10.5143 35.8358 10.9205C36.0852 11.452 36.2974 12.0008 36.4706 12.5627C37.1457 15.2323 37.9498 17.868 39.2101 17.868C39.6183 17.806 39.99 17.5944 40.2547 17.2732C40.5194 16.952 40.6588 16.5435 40.6465 16.1251V16.1245ZM34.8296 15.5718C36.5034 13.7485 35.0156 11.2411 34.3795 10.6992C33.9623 10.3452 32.3033 9.50959 31.3554 10.6797C30.6848 11.7689 30.3709 13.0452 30.4584 14.3263C30.537 14.8519 30.7985 15.3316 31.1955 15.6787C31.4776 15.8742 33.1539 17.3977 34.8302 15.5725L34.8296 15.5718ZM32.3988 8.89595C32.4168 8.89314 32.4339 8.88593 32.4486 8.87496C32.4633 8.86399 32.4751 8.84958 32.4831 8.83296C32.4911 8.81633 32.4949 8.79798 32.4944 8.7795C32.4939 8.76102 32.4889 8.74293 32.48 8.72681C31.9413 7.76108 28.8843 2.30305 28.0623 1.50268C27.5905 1.78812 23.3476 9.35366 23.3476 9.35366C23.3265 9.38805 23.3157 9.42794 23.3166 9.46844C23.3176 9.50895 23.3301 9.54831 23.3527 9.58169C23.3754 9.61507 23.4071 9.64103 23.4441 9.65636C23.4811 9.6717 23.5217 9.67575 23.5609 9.66803C23.796 9.61303 24.0397 9.60746 24.2769 9.65168C24.7221 9.76045 24.9397 10.2565 25.1542 10.2565C25.6049 10.2565 26.4821 9.05817 27.6184 9.02422C28.4217 9.09732 29.1979 9.35535 29.888 9.77868C30.0092 9.84241 30.1431 9.87744 30.2796 9.88114C30.4161 9.88485 30.5516 9.85712 30.676 9.80006C30.9709 9.54379 31.2861 9.3125 31.6183 9.10847C31.8688 9.0053 32.131 8.93412 32.3988 8.89658V8.89595ZM29.1794 15.4165C30.2594 14.0805 30.198 11.8032 29.1999 10.713C29.0245 10.5224 28.8104 10.3727 28.5724 10.2743C28.3344 10.1759 28.0781 10.1312 27.8213 10.1431C27.5646 10.1551 27.3134 10.2235 27.0853 10.3436C26.8571 10.4637 26.6575 10.6326 26.5001 10.8387C26.1802 11.2788 25.9421 11.6938 25.8386 11.8604C25.4666 12.4477 24.5138 14.9752 25.5683 16.0365C26.6228 17.0978 28.0022 16.9066 29.1794 15.4172V15.4165ZM22.7692 12.9538C23.8467 12.4508 24.6508 10.8545 23.957 10.7281C23.5516 10.625 23.763 11.3185 23.2565 11.3103C22.843 11.3015 22.6019 10.7671 22.4549 10.7715C22.2107 10.7784 21.4258 11.9032 21.0291 11.9264C20.6323 11.9497 20.4804 10.6772 20.3031 10.6772C20.1258 10.6772 19.6026 11.5668 19.6534 11.6869C19.9534 12.1 20.1922 12.5554 20.362 13.0387C20.6902 14.0796 20.9106 15.1523 21.0198 16.2395C21.1047 17.4033 23.1276 17.8824 23.5677 17.3002C23.8634 16.8639 23.6719 15.1374 23.4499 15.0582C23.1127 14.9387 22.9422 15.3725 22.3768 15.2883C21.6949 15.1852 20.8598 13.768 21.0365 12.5772C21.0985 12.476 21.7662 12.8186 22.2026 12.9789C22.3873 13.047 22.591 13.0381 22.7692 12.9544V12.9538ZM18.5623 17.3059C19.5238 15.8793 18.5288 13.2436 17.9659 11.4297C17.7179 10.6401 17.7403 9.93462 17.6212 9.82082C17.3082 9.52091 16.9027 11.2839 16.5822 11.9497C15.6287 14.0006 14.405 14.5728 13.2165 14.5728C12.0281 14.5728 11.4634 13.2625 11.3511 12.6136C11.3179 11.425 11.6498 10.2552 12.3009 9.26626C13.5371 7.18579 15.5866 5.31153 16.2196 5.70512C17.4594 6.38164 15.3169 12.0811 14.3126 11.7894C13.3083 11.4976 14.573 9.33732 14.5742 8.45207C14.5742 7.30463 13.8731 7.87112 13.7472 7.97298C13.0062 8.97394 12.5571 10.1657 12.4509 11.4128C12.3554 12.5728 13.5048 12.6702 13.7218 12.6702C16.2115 12.5149 17.1811 8.44263 17.2065 7.02232C17.2443 4.89846 16.3045 5.08646 16.2196 5.09715C14.0758 5.37065 10.0517 11.3694 10.0517 12.7557C10.0517 14.3986 11.1354 15.2078 12.6499 15.2971C15.5884 15.4687 17.1755 12.2553 17.4142 11.8284C17.5305 12.584 17.4585 13.3572 17.2046 14.0773C16.7626 15.05 15.8073 15.6353 14.4812 16.1779C12.803 16.8651 11.0573 17.2329 10.9903 17.4197C11.0802 17.9095 12.7566 19.9409 12.7566 19.9409C12.7566 19.9409 17.2741 19.2179 18.5623 17.3059ZM9.38716 11.1613C9.39074 11.1501 9.39169 11.1383 9.38995 11.1267C9.38821 11.1151 9.38383 11.104 9.37715 11.0944C9.37047 11.0848 9.36167 11.077 9.35147 11.0714C9.34126 11.0659 9.32992 11.0629 9.31835 11.0626L4.04884 10.9368C4.01775 10.9367 3.98758 10.9475 3.96356 10.9675C3.93953 10.9875 3.92316 11.0154 3.91728 11.0464C3.91139 11.0774 3.91636 11.1094 3.93133 11.1371C3.9463 11.1647 3.97033 11.1862 3.99925 11.1977L8.62278 12.955C8.64387 12.9629 8.66632 12.9664 8.68879 12.9653C8.71125 12.9642 8.73327 12.9586 8.75352 12.9487C8.77377 12.9387 8.79185 12.9248 8.80666 12.9076C8.82148 12.8905 8.83273 12.8705 8.83976 12.8488L9.38716 11.1613Z" fill="#333333"/>
<path d="M52.5774 11.0532C52.5774 11.0532 47.4871 13.0865 46.5094 13.3682C46.4629 13.3819 46.4131 13.3774 46.3697 13.3556C46.3263 13.3339 46.2926 13.2964 46.2751 13.2506C46.1181 12.6438 46.0245 12.0219 45.9961 11.3952C45.9961 11.1645 46.306 11.0871 46.5199 11.0532C46.7338 11.0192 52.5774 11.0532 52.5774 11.0532Z" fill="#6398AA"/>
<path d="M43.1919 26.1238C43.2446 26.1992 43.1981 26.3124 43.0834 26.2672C40.3941 25.6529 29.5172 20.5865 28.0033 20.6714C27.1763 20.7179 23.0648 22.352 19.3656 23.8836C16.2951 25.1556 13.527 26.3985 12.9883 26.2502C13.4842 25.3517 15.6813 21.3926 17.0657 20.0257C17.1761 19.9175 17.2953 19.8188 17.4221 19.7309C18.4237 19.0475 19.304 18.1972 20.0259 17.2159C20.4751 17.8478 21.0943 18.335 21.8094 18.6193C23.1615 19.0072 24.8887 18.2288 24.8323 17.3888C24.8313 17.38 24.8322 17.3711 24.8349 17.3626C24.8376 17.3542 24.842 17.3464 24.8478 17.3398C24.8537 17.3332 24.8609 17.328 24.8689 17.3244C24.8769 17.3208 24.8855 17.319 24.8943 17.319C25.6382 17.3084 25.6078 17.7516 26.9984 17.7648C28.573 17.7799 29.3541 16.7651 30.0262 16.4124C30.0504 16.3992 30.0774 16.3924 30.1049 16.3924C30.1324 16.3924 30.1594 16.3992 30.1836 16.4124C30.5382 16.6073 31.7484 17.558 33.0682 17.5158C34.4147 17.4724 35.8449 16.4061 36.1481 16.1678C36.1549 16.1626 36.1629 16.1589 36.1713 16.1573C36.1797 16.1556 36.1884 16.156 36.1967 16.1583C36.205 16.1606 36.2126 16.1648 36.219 16.1706C36.2254 16.1764 36.2304 16.1836 36.2336 16.1917C36.4954 16.8537 36.8543 17.4718 37.2981 18.0251C37.8337 18.6677 38.613 18.8462 38.985 19.497C39.7053 20.7833 37.905 21.79 37.8827 22.3376C37.9077 22.6609 38.0369 22.9669 38.2505 23.2082C38.4641 23.4496 38.7501 23.6129 39.0643 23.673C40.0767 23.9012 40.8528 23.3875 41.404 23.6044C41.9551 23.8214 43.1919 26.1238 43.1919 26.1238Z" fill="#6398AA"/>
<path d="M35.1123 12.6537C35.1123 13.0731 33.9661 13.7961 33.9661 13.7961C33.8191 13.88 33.6558 13.9302 33.4877 13.9432C33.3195 13.9562 33.1506 13.9318 32.9928 13.8716C32.4423 13.6899 31.5905 13.2253 31.6078 12.4733C31.6115 12.3023 31.601 11.6559 31.6078 11.1875C31.608 11.179 31.611 11.1708 31.6162 11.1641C31.6215 11.1574 31.6288 11.1527 31.6369 11.1506C31.6451 11.1485 31.6537 11.1492 31.6614 11.1526C31.6692 11.156 31.6756 11.1618 31.6797 11.1693C31.88 11.527 32.2488 12.3827 32.7987 12.35C33.082 12.3331 33.622 12.2092 33.622 11.9011C33.622 11.593 32.4063 11.0838 32.9004 10.4689C33.2271 10.0602 35.1123 12.2344 35.1123 12.6537Z" fill="#333333"/>
<path d="M32.4837 8.72819C32.4927 8.74431 32.4976 8.76239 32.4982 8.78087C32.4987 8.79936 32.4948 8.81769 32.4868 8.83431C32.4788 8.85094 32.467 8.86536 32.4523 8.87633C32.4377 8.8873 32.4206 8.89451 32.4025 8.89732C32.1349 8.93345 31.8727 9.00313 31.622 9.1048C31.2898 9.30881 30.9747 9.54013 30.6797 9.7964C30.5553 9.85347 30.4198 9.88118 30.2833 9.87747C30.1469 9.87377 30.013 9.83875 29.8918 9.77503C29.2017 9.3517 28.4254 9.09364 27.6222 9.02054C26.4858 9.05449 25.6086 10.2529 25.1579 10.2529C24.9434 10.2529 24.7239 9.7568 24.2807 9.64803C24.0434 9.60383 23.7997 9.60939 23.5646 9.66438C23.5254 9.6721 23.4848 9.66803 23.4478 9.65269C23.4109 9.63735 23.3791 9.61141 23.3565 9.57803C23.3338 9.54465 23.3213 9.5053 23.3204 9.46479C23.3195 9.42428 23.3303 9.3844 23.3514 9.35001C23.3514 9.35001 27.5949 1.78384 28.066 1.49902C28.8825 2.30443 31.945 7.76182 32.4837 8.72819Z" fill="#6398AA"/>
<path d="M28.2619 10.7377C28.8763 10.6421 29.5427 12.1837 29.5086 12.6276C29.4119 13.6927 28.0021 14.527 27.7535 14.5698C27.5273 14.5698 25.9055 13.5852 26.3618 11.9857C26.6057 12.2585 26.8894 12.4917 27.203 12.6773C27.2926 12.7276 27.3912 12.7591 27.4931 12.7699C27.5949 12.7807 27.6978 12.7706 27.7957 12.7402C28.0145 12.6729 28.2662 12.532 28.2513 12.2447C28.2259 11.7417 27.6903 11.423 27.7641 11.113C27.8378 10.803 27.9662 10.7716 28.2619 10.7377Z" fill="#333333"/>
<path d="M9.31712 11.063C9.32869 11.0633 9.34003 11.0663 9.35024 11.0718C9.36044 11.0774 9.36924 11.0852 9.37592 11.0948C9.3826 11.1044 9.38698 11.1154 9.38872 11.1271C9.39046 11.1387 9.3895 11.1505 9.38593 11.1617L8.84286 12.8505C8.83592 12.8722 8.82471 12.8922 8.80991 12.9094C8.79511 12.9267 8.77702 12.9407 8.75674 12.9506C8.73647 12.9605 8.71443 12.9662 8.69194 12.9672C8.66945 12.9683 8.64697 12.9647 8.62588 12.9567L4.00236 11.1994C3.97343 11.1878 3.9494 11.1664 3.93444 11.1388C3.91947 11.1111 3.91449 11.079 3.92038 11.0481C3.92626 11.0171 3.94264 10.9892 3.96666 10.9692C3.99069 10.9492 4.02086 10.9383 4.05195 10.9385L9.31712 11.063Z" fill="#6398AA"/>
<path d="M11.7209 54.0249C11.6522 53.8094 11.5599 53.6165 11.4439 53.446C11.3303 53.2732 11.1941 53.1264 11.0355 53.0057C10.8769 52.8826 10.6958 52.7891 10.4922 52.7251C10.291 52.6612 10.0696 52.6293 9.82812 52.6293C9.41856 52.6293 9.04924 52.7346 8.72017 52.9453C8.3911 53.156 8.13068 53.465 7.93892 53.8722C7.74953 54.277 7.65483 54.773 7.65483 55.3601C7.65483 55.9496 7.75071 56.4479 7.94247 56.8551C8.13423 57.2623 8.39702 57.5713 8.73082 57.782C9.06463 57.9927 9.4446 58.098 9.87074 58.098C10.2661 58.098 10.6106 58.0175 10.9041 57.8565C11.2 57.6955 11.4285 57.4683 11.5895 57.1747C11.7528 56.8788 11.8345 56.5308 11.8345 56.1307L12.1186 56.1839H10.0376V55.2784H12.8963V56.1058C12.8963 56.7166 12.7661 57.2469 12.5057 57.6967C12.2476 58.1442 11.8902 58.4898 11.4332 58.7337C10.9787 58.9775 10.4579 59.0994 9.87074 59.0994C9.21259 59.0994 8.63494 58.9479 8.13778 58.6449C7.64299 58.3419 7.2571 57.9122 6.98011 57.3558C6.70313 56.7971 6.56463 56.1342 6.56463 55.3672C6.56463 54.7872 6.64512 54.2663 6.80611 53.8047C6.96709 53.343 7.19318 52.9512 7.48438 52.6293C7.77794 52.3049 8.1224 52.0575 8.51776 51.8871C8.91548 51.7143 9.34991 51.6278 9.82102 51.6278C10.214 51.6278 10.5798 51.6858 10.9183 51.8018C11.2592 51.9179 11.5623 52.0824 11.8274 52.2955C12.0949 52.5085 12.3163 52.7618 12.4915 53.0554C12.6667 53.3466 12.785 53.6697 12.8466 54.0249H11.7209ZM14.2892 59V51.7273H16.8816C17.445 51.7273 17.9126 51.8243 18.2843 52.0185C18.6583 52.2126 18.9377 52.4813 19.1223 52.8246C19.307 53.1655 19.3993 53.5597 19.3993 54.0071C19.3993 54.4522 19.3058 54.844 19.1188 55.1825C18.9341 55.5187 18.6548 55.7803 18.2807 55.9673C17.909 56.1544 17.4415 56.2479 16.878 56.2479H14.9142V55.3033H16.7786C17.1337 55.3033 17.4225 55.2524 17.6451 55.1506C17.87 55.0488 18.0345 54.9008 18.1387 54.7067C18.2428 54.5125 18.2949 54.2794 18.2949 54.0071C18.2949 53.7325 18.2417 53.4946 18.1351 53.2933C18.031 53.0921 17.8664 52.9382 17.6415 52.8317C17.419 52.7228 17.1266 52.6683 16.7644 52.6683H15.3865V59H14.2892ZM17.8794 55.7188L19.6763 59H18.4263L16.665 55.7188H17.8794ZM27.052 55.3636C27.052 56.1402 26.91 56.8078 26.6259 57.3665C26.3418 57.9228 25.9524 58.3513 25.4576 58.652C24.9651 58.9503 24.4052 59.0994 23.7779 59.0994C23.1481 59.0994 22.5859 58.9503 22.0911 58.652C21.5987 58.3513 21.2104 57.9216 20.9263 57.3629C20.6422 56.8042 20.5002 56.1378 20.5002 55.3636C20.5002 54.5871 20.6422 53.9207 20.9263 53.3643C21.2104 52.8056 21.5987 52.3771 22.0911 52.0788C22.5859 51.7782 23.1481 51.6278 23.7779 51.6278C24.4052 51.6278 24.9651 51.7782 25.4576 52.0788C25.9524 52.3771 26.3418 52.8056 26.6259 53.3643C26.91 53.9207 27.052 54.5871 27.052 55.3636ZM25.9654 55.3636C25.9654 54.7718 25.8695 54.2734 25.6777 53.8686C25.4883 53.4614 25.2279 53.1536 24.8965 52.9453C24.5674 52.7346 24.1945 52.6293 23.7779 52.6293C23.3588 52.6293 22.9848 52.7346 22.6557 52.9453C22.3266 53.1536 22.0662 53.4614 21.8745 53.8686C21.6851 54.2734 21.5904 54.7718 21.5904 55.3636C21.5904 55.9555 21.6851 56.455 21.8745 56.8622C22.0662 57.267 22.3266 57.5748 22.6557 57.7855C22.9848 57.9938 23.3588 58.098 23.7779 58.098C24.1945 58.098 24.5674 57.9938 24.8965 57.7855C25.2279 57.5748 25.4883 57.267 25.6777 56.8622C25.8695 56.455 25.9654 55.9555 25.9654 55.3636ZM34.7376 55.3636C34.7376 56.1402 34.5955 56.8078 34.3114 57.3665C34.0273 57.9228 33.6379 58.3513 33.1431 58.652C32.6507 58.9503 32.0908 59.0994 31.4634 59.0994C30.8337 59.0994 30.2714 58.9503 29.7766 58.652C29.2842 58.3513 28.896 57.9216 28.6119 57.3629C28.3278 56.8042 28.1857 56.1378 28.1857 55.3636C28.1857 54.5871 28.3278 53.9207 28.6119 53.3643C28.896 52.8056 29.2842 52.3771 29.7766 52.0788C30.2714 51.7782 30.8337 51.6278 31.4634 51.6278C32.0908 51.6278 32.6507 51.7782 33.1431 52.0788C33.6379 52.3771 34.0273 52.8056 34.3114 53.3643C34.5955 53.9207 34.7376 54.5871 34.7376 55.3636ZM33.6509 55.3636C33.6509 54.7718 33.555 54.2734 33.3633 53.8686C33.1739 53.4614 32.9135 53.1536 32.582 52.9453C32.253 52.7346 31.8801 52.6293 31.4634 52.6293C31.0444 52.6293 30.6703 52.7346 30.3413 52.9453C30.0122 53.1536 29.7518 53.4614 29.56 53.8686C29.3706 54.2734 29.2759 54.7718 29.2759 55.3636C29.2759 55.9555 29.3706 56.455 29.56 56.8622C29.7518 57.267 30.0122 57.5748 30.3413 57.7855C30.6703 57.9938 31.0444 58.098 31.4634 58.098C31.8801 58.098 32.253 57.9938 32.582 57.7855C32.9135 57.5748 33.1739 57.267 33.3633 56.8622C33.555 56.455 33.6509 55.9555 33.6509 55.3636ZM36.38 51.7273L38.4041 57.6506H38.4858L40.5099 51.7273H41.696L39.0788 59H37.8111L35.1939 51.7273H36.38ZM42.1852 51.7273H43.4316L45.3315 55.0334H45.4096L47.3095 51.7273H48.5559L45.9174 56.1449V59H44.8237V56.1449L42.1852 51.7273Z" fill="black"/>
</svg>
