<svg width="48" height="72" viewBox="0 0 48 72" fill="none" xmlns="http://www.w3.org/2000/svg">
<path d="M0 47.9982L24.0804 23.918L48.0002 47.9982H0Z" fill="url(#paint0_linear_741_134)"/>
<path d="M0 0H24.0804L0 26V0Z" fill="url(#paint1_linear_741_134)"/>
<path d="M24.0804 0L0 25.3601V47.9999L24.0804 23.9196L48.0002 0H24.0804Z" fill="url(#paint2_linear_741_134)"/>
<path d="M6.79901 70V62.7273H7.89631V66.2003H7.98509L11.0355 62.7273H12.4169L9.48366 66.0014L12.4276 70H11.1065L8.75568 66.7507L7.89631 67.7379V70H6.79901ZM19.3958 66.3636C19.3958 67.1402 19.2537 67.8078 18.9696 68.3665C18.6855 68.9228 18.2961 69.3513 17.8013 69.652C17.3089 69.9503 16.749 70.0994 16.1216 70.0994C15.4919 70.0994 14.9296 69.9503 14.4348 69.652C13.9424 69.3513 13.5542 68.9216 13.2701 68.3629C12.986 67.8042 12.8439 67.1378 12.8439 66.3636C12.8439 65.5871 12.986 64.9207 13.2701 64.3643C13.5542 63.8056 13.9424 63.3771 14.4348 63.0788C14.9296 62.7782 15.4919 62.6278 16.1216 62.6278C16.749 62.6278 17.3089 62.7782 17.8013 63.0788C18.2961 63.3771 18.6855 63.8056 18.9696 64.3643C19.2537 64.9207 19.3958 65.5871 19.3958 66.3636ZM18.3091 66.3636C18.3091 65.7718 18.2132 65.2734 18.0215 64.8686C17.8321 64.4614 17.5717 64.1536 17.2402 63.9453C16.9112 63.7346 16.5383 63.6293 16.1216 63.6293C15.7026 63.6293 15.3285 63.7346 14.9995 63.9453C14.6704 64.1536 14.41 64.4614 14.2182 64.8686C14.0288 65.2734 13.9341 65.7718 13.9341 66.3636C13.9341 66.9555 14.0288 67.455 14.2182 67.8622C14.41 68.267 14.6704 68.5748 14.9995 68.7855C15.3285 68.9938 15.7026 69.098 16.1216 69.098C16.5383 69.098 16.9112 68.9938 17.2402 68.7855C17.5717 68.5748 17.8321 68.267 18.0215 67.8622C18.2132 67.455 18.3091 66.9555 18.3091 66.3636ZM20.0927 63.6719V62.7273H25.7212V63.6719H23.4521V70H22.3583V63.6719H20.0927ZM26.965 70V62.7273H28.0623V69.0554H31.3578V70H26.965ZM33.7069 62.7273V70H32.6096V62.7273H33.7069ZM41.1749 62.7273V70H40.1664L36.4696 64.6662H36.4022V70H35.3049V62.7273H36.3205L40.0208 68.0682H40.0882V62.7273H41.1749Z" fill="black"/>
<defs>
<linearGradient id="paint0_linear_741_134" x1="12.7681" y1="59.2196" x2="19.4776" y2="32.5276" gradientUnits="userSpaceOnUse">
<stop offset="0.097" stop-color="#0095D5"/>
<stop offset="0.301" stop-color="#238AD9"/>
<stop offset="0.621" stop-color="#557BDE"/>
<stop offset="0.864" stop-color="#7472E2"/>
<stop offset="1" stop-color="#806EE3"/>
</linearGradient>
<linearGradient id="paint1_linear_741_134" x1="3.37126" y1="9.64599" x2="17.4697" y2="-2.45673" gradientUnits="userSpaceOnUse">
<stop offset="0.118" stop-color="#0095D5"/>
<stop offset="0.418" stop-color="#3C83DC"/>
<stop offset="0.696" stop-color="#6D74E1"/>
<stop offset="0.833" stop-color="#806EE3"/>
</linearGradient>
<linearGradient id="paint2_linear_741_134" x1="-8.06403" y1="44.1119" x2="36.5758" y2="-0.528297" gradientUnits="userSpaceOnUse">
<stop offset="0.108" stop-color="#C757BC"/>
<stop offset="0.214" stop-color="#D0609A"/>
<stop offset="0.425" stop-color="#E1725C"/>
<stop offset="0.605" stop-color="#EE7E2F"/>
<stop offset="0.743" stop-color="#F58613"/>
<stop offset="0.823" stop-color="#F88909"/>
</linearGradient>
</defs>
</svg>
