<svg width="224" height="224" viewBox="0 0 224 224" fill="none" xmlns="http://www.w3.org/2000/svg">
<g filter="url(#filter0_d_2506_7)">
<path d="M112 4L198.001 45.4161L219.242 138.477L159.727 213.107H64.2728L4.75793 138.477L25.9985 45.4161L112 4Z" fill="white"/>
</g>
<path d="M68.4116 142.638H66.7496C66.6857 142.283 66.5668 141.971 66.3928 141.701C66.2188 141.431 66.0057 141.202 65.7536 141.014C65.5014 140.826 65.2191 140.684 64.9066 140.588C64.5977 140.492 64.2692 140.444 63.9212 140.444C63.2926 140.444 62.7298 140.602 62.2326 140.918C61.739 141.234 61.3484 141.697 61.0607 142.308C60.7766 142.919 60.6346 143.665 60.6346 144.545C60.6346 145.433 60.7766 146.183 61.0607 146.793C61.3484 147.404 61.7408 147.866 62.2379 148.178C62.7351 148.491 63.2944 148.647 63.9158 148.647C64.2603 148.647 64.587 148.601 64.896 148.509C65.2085 148.413 65.4908 148.272 65.7429 148.088C65.995 147.903 66.2081 147.678 66.3821 147.411C66.5597 147.141 66.6822 146.832 66.7496 146.484L68.4116 146.49C68.3228 147.026 68.1506 147.52 67.8949 147.971C67.6428 148.418 67.3178 148.805 66.9201 149.132C66.5259 149.455 66.0749 149.705 65.5671 149.883C65.0593 150.06 64.5053 150.149 63.9052 150.149C62.9606 150.149 62.119 149.925 61.3803 149.478C60.6417 149.027 60.0593 148.382 59.6332 147.544C59.2106 146.706 58.9993 145.707 58.9993 144.545C58.9993 143.381 59.2124 142.381 59.6385 141.547C60.0646 140.708 60.647 140.066 61.3857 139.618C62.1243 139.167 62.9641 138.942 63.9052 138.942C64.484 138.942 65.0238 139.025 65.5245 139.192C66.0288 139.355 66.4815 139.597 66.8828 139.917C67.2841 140.233 67.6161 140.62 67.8789 141.078C68.1417 141.532 68.3192 142.053 68.4116 142.638ZM73.6997 150.165C72.9326 150.165 72.2632 149.989 71.6915 149.638C71.1198 149.286 70.6759 148.794 70.3598 148.162C70.0438 147.53 69.8857 146.792 69.8857 145.946C69.8857 145.098 70.0438 144.355 70.3598 143.72C70.6759 143.084 71.1198 142.591 71.6915 142.239C72.2632 141.887 72.9326 141.712 73.6997 141.712C74.4667 141.712 75.1361 141.887 75.7078 142.239C76.2796 142.591 76.7235 143.084 77.0395 143.72C77.3556 144.355 77.5136 145.098 77.5136 145.946C77.5136 146.792 77.3556 147.53 77.0395 148.162C76.7235 148.794 76.2796 149.286 75.7078 149.638C75.1361 149.989 74.4667 150.165 73.6997 150.165ZM73.705 148.828C74.2021 148.828 74.6141 148.697 74.9408 148.434C75.2675 148.171 75.509 147.821 75.6652 147.385C75.825 146.948 75.9049 146.467 75.9049 145.941C75.9049 145.419 75.825 144.94 75.6652 144.503C75.509 144.062 75.2675 143.709 74.9408 143.443C74.6141 143.176 74.2021 143.043 73.705 143.043C73.2043 143.043 72.7888 143.176 72.4585 143.443C72.1318 143.709 71.8886 144.062 71.7288 144.503C71.5725 144.94 71.4944 145.419 71.4944 145.941C71.4944 146.467 71.5725 146.948 71.7288 147.385C71.8886 147.821 72.1318 148.171 72.4585 148.434C72.7888 148.697 73.2043 148.828 73.705 148.828ZM85.4224 143.816L83.9789 144.071C83.9185 143.887 83.8226 143.711 83.6912 143.544C83.5634 143.377 83.3894 143.24 83.1692 143.134C82.949 143.027 82.6738 142.974 82.3436 142.974C81.8926 142.974 81.5162 143.075 81.2143 143.278C80.9125 143.477 80.7615 143.734 80.7615 144.05C80.7615 144.324 80.8627 144.544 81.0652 144.711C81.2676 144.877 81.5943 145.014 82.0453 145.121L83.345 145.419C84.0978 145.593 84.6589 145.861 85.0282 146.223C85.3975 146.586 85.5822 147.056 85.5822 147.635C85.5822 148.125 85.4402 148.562 85.1561 148.945C84.8755 149.325 84.4831 149.624 83.9789 149.84C83.4782 150.057 82.8975 150.165 82.237 150.165C81.3208 150.165 80.5733 149.97 79.9945 149.579C79.4157 149.185 79.0605 148.626 78.9292 147.901L80.4686 147.667C80.5645 148.068 80.7615 148.372 81.0598 148.578C81.3581 148.78 81.747 148.881 82.2264 148.881C82.7484 148.881 83.1657 148.773 83.4782 148.556C83.7907 148.336 83.9469 148.068 83.9469 147.752C83.9469 147.496 83.851 147.282 83.6593 147.108C83.4711 146.934 83.1816 146.802 82.791 146.713L81.4061 146.41C80.6426 146.236 80.0779 145.959 79.7122 145.579C79.35 145.199 79.1689 144.718 79.1689 144.135C79.1689 143.652 79.3038 143.23 79.5737 142.868C79.8436 142.505 80.2164 142.223 80.6923 142.021C81.1681 141.815 81.7132 141.712 82.3276 141.712C83.2118 141.712 83.9078 141.903 84.4157 142.287C84.9235 142.667 85.2591 143.176 85.4224 143.816ZM91.1526 141.818V143.097H86.6835V141.818H91.1526ZM87.882 139.858H89.4747V147.598C89.4747 147.907 89.5209 148.139 89.6132 148.295C89.7055 148.448 89.8245 148.553 89.9701 148.61C90.1192 148.663 90.2808 148.69 90.4548 148.69C90.5827 148.69 90.6945 148.681 90.7904 148.663C90.8863 148.645 90.9608 148.631 91.0141 148.62L91.3018 149.936C91.2094 149.972 91.078 150.007 90.9076 150.043C90.7371 150.082 90.5241 150.103 90.2684 150.107C89.8493 150.114 89.4587 150.039 89.0965 149.883C88.7343 149.727 88.4413 149.485 88.2176 149.158C87.9939 148.832 87.882 148.422 87.882 147.928V139.858ZM97.4568 144.7V146.08H92.6201V144.7H97.4568ZM99.7073 150V139.091H106.547V140.508H101.353V143.832H106.19V145.243H101.353V148.583H106.611V150H99.7073ZM112.511 141.818V143.097H107.888V141.818H112.511ZM109.156 150V140.87C109.156 140.359 109.267 139.934 109.491 139.597C109.715 139.256 110.011 139.002 110.381 138.835C110.75 138.665 111.151 138.58 111.585 138.58C111.904 138.58 112.178 138.606 112.405 138.659C112.632 138.709 112.801 138.755 112.911 138.798L112.538 140.087C112.463 140.066 112.368 140.041 112.25 140.012C112.133 139.98 111.991 139.964 111.824 139.964C111.437 139.964 111.16 140.06 110.993 140.252C110.83 140.444 110.748 140.721 110.748 141.083V150H109.156ZM118.048 141.818V143.097H113.425V141.818H118.048ZM114.693 150V140.87C114.693 140.359 114.805 139.934 115.028 139.597C115.252 139.256 115.548 139.002 115.918 138.835C116.287 138.665 116.688 138.58 117.122 138.58C117.441 138.58 117.715 138.606 117.942 138.659C118.169 138.709 118.338 138.755 118.448 138.798L118.075 140.087C118.001 140.066 117.905 140.041 117.787 140.012C117.67 139.98 117.528 139.964 117.361 139.964C116.974 139.964 116.697 140.06 116.53 140.252C116.367 140.444 116.285 140.721 116.285 141.083V150H114.693ZM122.896 150.165C122.09 150.165 121.395 149.993 120.813 149.648C120.234 149.3 119.787 148.812 119.471 148.184C119.158 147.551 119.002 146.811 119.002 145.962C119.002 145.124 119.158 144.386 119.471 143.746C119.787 143.107 120.227 142.608 120.792 142.25C121.36 141.891 122.024 141.712 122.784 141.712C123.246 141.712 123.693 141.788 124.126 141.941C124.559 142.093 124.948 142.333 125.293 142.66C125.637 142.987 125.909 143.411 126.108 143.933C126.307 144.451 126.406 145.082 126.406 145.824V146.388H119.902V145.195H124.845C124.845 144.776 124.76 144.405 124.59 144.082C124.419 143.755 124.18 143.498 123.871 143.31C123.565 143.121 123.206 143.027 122.795 143.027C122.347 143.027 121.956 143.137 121.623 143.358C121.292 143.574 121.037 143.858 120.856 144.21C120.678 144.558 120.589 144.936 120.589 145.344V146.277C120.589 146.824 120.685 147.289 120.877 147.672C121.072 148.056 121.344 148.349 121.692 148.551C122.04 148.75 122.447 148.849 122.912 148.849C123.214 148.849 123.489 148.807 123.737 148.722C123.986 148.633 124.201 148.501 124.382 148.327C124.563 148.153 124.702 147.939 124.797 147.683L126.305 147.955C126.184 148.398 125.968 148.787 125.655 149.121C125.346 149.451 124.957 149.709 124.488 149.893C124.023 150.075 123.492 150.165 122.896 150.165ZM131.62 150.165C130.828 150.165 130.146 149.986 129.574 149.627C129.006 149.265 128.569 148.766 128.264 148.13C127.958 147.495 127.806 146.767 127.806 145.946C127.806 145.115 127.962 144.382 128.274 143.746C128.587 143.107 129.027 142.608 129.595 142.25C130.164 141.891 130.833 141.712 131.604 141.712C132.225 141.712 132.779 141.827 133.266 142.058C133.752 142.285 134.144 142.605 134.443 143.017C134.745 143.429 134.924 143.91 134.981 144.46H133.431C133.345 144.077 133.15 143.746 132.845 143.469C132.543 143.192 132.138 143.054 131.63 143.054C131.186 143.054 130.797 143.171 130.464 143.406C130.133 143.636 129.876 143.967 129.691 144.396C129.507 144.822 129.414 145.327 129.414 145.909C129.414 146.506 129.505 147.021 129.686 147.454C129.867 147.887 130.123 148.223 130.453 148.461C130.787 148.699 131.179 148.817 131.63 148.817C131.932 148.817 132.206 148.762 132.451 148.652C132.699 148.539 132.907 148.377 133.074 148.168C133.244 147.958 133.363 147.706 133.431 147.411H134.981C134.924 147.94 134.752 148.413 134.464 148.828C134.176 149.244 133.791 149.57 133.308 149.808C132.829 150.046 132.266 150.165 131.62 150.165ZM140.503 141.818V143.097H136.034V141.818H140.503ZM137.233 139.858H138.825V147.598C138.825 147.907 138.871 148.139 138.964 148.295C139.056 148.448 139.175 148.553 139.321 148.61C139.47 148.663 139.631 148.69 139.805 148.69C139.933 148.69 140.045 148.681 140.141 148.663C140.237 148.645 140.311 148.631 140.365 148.62L140.652 149.936C140.56 149.972 140.429 150.007 140.258 150.043C140.088 150.082 139.875 150.103 139.619 150.107C139.2 150.114 138.809 150.039 138.447 149.883C138.085 149.727 137.792 149.485 137.568 149.158C137.344 148.832 137.233 148.422 137.233 147.928V139.858ZM142.265 150V141.818H143.858V150H142.265ZM143.069 140.556C142.792 140.556 142.554 140.463 142.356 140.279C142.16 140.091 142.063 139.867 142.063 139.608C142.063 139.345 142.16 139.121 142.356 138.936C142.554 138.748 142.792 138.654 143.069 138.654C143.346 138.654 143.582 138.748 143.778 138.936C143.977 139.121 144.076 139.345 144.076 139.608C144.076 139.867 143.977 140.091 143.778 140.279C143.582 140.463 143.346 140.556 143.069 140.556ZM153 141.818L150.033 150H148.328L145.356 141.818H147.066L149.138 148.114H149.223L151.29 141.818H153ZM157.744 150.165C156.938 150.165 156.244 149.993 155.662 149.648C155.083 149.3 154.635 148.812 154.319 148.184C154.007 147.551 153.851 146.811 153.851 145.962C153.851 145.124 154.007 144.386 154.319 143.746C154.635 143.107 155.076 142.608 155.64 142.25C156.209 141.891 156.873 141.712 157.633 141.712C158.094 141.712 158.542 141.788 158.975 141.941C159.408 142.093 159.797 142.333 160.141 142.66C160.486 142.987 160.758 143.411 160.956 143.933C161.155 144.451 161.255 145.082 161.255 145.824V146.388H154.751V145.195H159.694C159.694 144.776 159.609 144.405 159.438 144.082C159.268 143.755 159.028 143.498 158.719 143.31C158.414 143.121 158.055 143.027 157.643 143.027C157.196 143.027 156.805 143.137 156.471 143.358C156.141 143.574 155.885 143.858 155.704 144.21C155.527 144.558 155.438 144.936 155.438 145.344V146.277C155.438 146.824 155.534 147.289 155.726 147.672C155.921 148.056 156.193 148.349 156.541 148.551C156.889 148.75 157.295 148.849 157.76 148.849C158.062 148.849 158.337 148.807 158.586 148.722C158.835 148.633 159.049 148.501 159.231 148.327C159.412 148.153 159.55 147.939 159.646 147.683L161.153 147.955C161.033 148.398 160.816 148.787 160.504 149.121C160.195 149.451 159.806 149.709 159.337 149.893C158.872 150.075 158.341 150.165 157.744 150.165ZM69.2033 168H65.6717V157.091H69.3151C70.384 157.091 71.302 157.309 72.069 157.746C72.8361 158.179 73.4238 158.803 73.8322 159.616C74.2441 160.425 74.4501 161.397 74.4501 162.529C74.4501 163.666 74.2423 164.642 73.8268 165.459C73.4149 166.276 72.8183 166.904 72.0371 167.345C71.2558 167.782 70.3112 168 69.2033 168ZM67.3176 166.562H69.1127C69.9437 166.562 70.6344 166.406 71.1848 166.093C71.7352 165.777 72.1472 165.321 72.4206 164.724C72.694 164.124 72.8307 163.392 72.8307 162.529C72.8307 161.674 72.694 160.947 72.4206 160.351C72.1507 159.754 71.7476 159.301 71.2114 158.993C70.6752 158.684 70.0094 158.529 69.2139 158.529H67.3176V166.562ZM79.8953 168.165C79.0892 168.165 78.3949 167.993 77.8125 167.648C77.2337 167.3 76.7863 166.812 76.4702 166.184C76.1577 165.551 76.0015 164.811 76.0015 163.962C76.0015 163.124 76.1577 162.386 76.4702 161.746C76.7863 161.107 77.2266 160.608 77.7912 160.25C78.3594 159.891 79.0235 159.712 79.7834 159.712C80.2451 159.712 80.6925 159.788 81.1258 159.941C81.559 160.093 81.9478 160.333 82.2923 160.66C82.6368 160.987 82.9084 161.411 83.1073 161.933C83.3062 162.451 83.4056 163.082 83.4056 163.824V164.388H76.9017V163.195H81.8449C81.8449 162.776 81.7596 162.405 81.5892 162.082C81.4187 161.755 81.179 161.498 80.8701 161.31C80.5647 161.121 80.206 161.027 79.7941 161.027C79.3466 161.027 78.956 161.137 78.6222 161.358C78.2919 161.574 78.0363 161.858 77.8552 162.21C77.6776 162.558 77.5888 162.936 77.5888 163.344V164.277C77.5888 164.824 77.6847 165.289 77.8765 165.672C78.0718 166.056 78.3434 166.349 78.6915 166.551C79.0395 166.75 79.4461 166.849 79.9113 166.849C80.2131 166.849 80.4883 166.807 80.7369 166.722C80.9855 166.633 81.2003 166.501 81.3814 166.327C81.5625 166.153 81.701 165.939 81.7969 165.683L83.3044 165.955C83.1836 166.398 82.967 166.787 82.6545 167.121C82.3456 167.451 81.9567 167.709 81.488 167.893C81.0228 168.075 80.4919 168.165 79.8953 168.165ZM91.9376 159.818L88.9707 168H87.2661L84.2938 159.818H86.0037L88.0758 166.114H88.161L90.2278 159.818H91.9376ZM96.6824 168.165C95.8763 168.165 95.182 167.993 94.5997 167.648C94.0208 167.3 93.5734 166.812 93.2573 166.184C92.9448 165.551 92.7886 164.811 92.7886 163.962C92.7886 163.124 92.9448 162.386 93.2573 161.746C93.5734 161.107 94.0137 160.608 94.5783 160.25C95.1465 159.891 95.8106 159.712 96.5705 159.712C97.0322 159.712 97.4796 159.788 97.9129 159.941C98.3461 160.093 98.735 160.333 99.0794 160.66C99.4239 160.987 99.6955 161.411 99.8944 161.933C100.093 162.451 100.193 163.082 100.193 163.824V164.388H93.6888V163.195H98.632C98.632 162.776 98.5467 162.405 98.3763 162.082C98.2058 161.755 97.9661 161.498 97.6572 161.31C97.3518 161.121 96.9931 161.027 96.5812 161.027C96.1337 161.027 95.7431 161.137 95.4093 161.358C95.0791 161.574 94.8234 161.858 94.6423 162.21C94.4647 162.558 94.3759 162.936 94.3759 163.344V164.277C94.3759 164.824 94.4718 165.289 94.6636 165.672C94.8589 166.056 95.1305 166.349 95.4786 166.551C95.8266 166.75 96.2332 166.849 96.6984 166.849C97.0002 166.849 97.2754 166.807 97.524 166.722C97.7726 166.633 97.9874 166.501 98.1685 166.327C98.3497 166.153 98.4881 165.939 98.584 165.683L100.091 165.955C99.9707 166.398 99.7541 166.787 99.4416 167.121C99.1327 167.451 98.7438 167.709 98.2751 167.893C97.8099 168.075 97.279 168.165 96.6824 168.165ZM103.553 157.091V168H101.96V157.091H103.553ZM109.142 168.165C108.375 168.165 107.705 167.989 107.133 167.638C106.562 167.286 106.118 166.794 105.802 166.162C105.486 165.53 105.328 164.792 105.328 163.946C105.328 163.098 105.486 162.355 105.802 161.72C106.118 161.084 106.562 160.591 107.133 160.239C107.705 159.887 108.375 159.712 109.142 159.712C109.909 159.712 110.578 159.887 111.15 160.239C111.721 160.591 112.165 161.084 112.481 161.72C112.797 162.355 112.955 163.098 112.955 163.946C112.955 164.792 112.797 165.53 112.481 166.162C112.165 166.794 111.721 167.286 111.15 167.638C110.578 167.989 109.909 168.165 109.142 168.165ZM109.147 166.828C109.644 166.828 110.056 166.697 110.383 166.434C110.709 166.171 110.951 165.821 111.107 165.385C111.267 164.948 111.347 164.467 111.347 163.941C111.347 163.419 111.267 162.94 111.107 162.503C110.951 162.062 110.709 161.709 110.383 161.443C110.056 161.176 109.644 161.043 109.147 161.043C108.646 161.043 108.231 161.176 107.9 161.443C107.574 161.709 107.33 162.062 107.171 162.503C107.014 162.94 106.936 163.419 106.936 163.941C106.936 164.467 107.014 164.948 107.171 165.385C107.33 165.821 107.574 166.171 107.9 166.434C108.231 166.697 108.646 166.828 109.147 166.828ZM114.733 171.068V159.818H116.289V161.145H116.422C116.514 160.974 116.647 160.777 116.821 160.553C116.995 160.33 117.237 160.134 117.546 159.967C117.855 159.797 118.263 159.712 118.771 159.712C119.431 159.712 120.021 159.879 120.539 160.212C121.058 160.546 121.464 161.027 121.759 161.656C122.057 162.284 122.207 163.041 122.207 163.925C122.207 164.809 122.059 165.567 121.765 166.2C121.47 166.828 121.065 167.313 120.55 167.654C120.035 167.991 119.447 168.16 118.787 168.16C118.29 168.16 117.883 168.076 117.567 167.909C117.255 167.743 117.01 167.547 116.832 167.324C116.654 167.1 116.518 166.901 116.422 166.727H116.326V171.068H114.733ZM116.294 163.909C116.294 164.484 116.377 164.989 116.544 165.422C116.711 165.855 116.953 166.194 117.269 166.439C117.585 166.681 117.972 166.801 118.43 166.801C118.906 166.801 119.304 166.675 119.623 166.423C119.943 166.168 120.184 165.821 120.348 165.385C120.515 164.948 120.598 164.456 120.598 163.909C120.598 163.369 120.516 162.885 120.353 162.455C120.193 162.025 119.952 161.686 119.629 161.438C119.309 161.189 118.909 161.065 118.43 161.065C117.968 161.065 117.578 161.184 117.258 161.422C116.942 161.659 116.702 161.991 116.539 162.418C116.376 162.844 116.294 163.341 116.294 163.909ZM123.991 168V159.818H125.52V161.15H125.621C125.792 160.699 126.07 160.347 126.457 160.095C126.844 159.839 127.308 159.712 127.848 159.712C128.394 159.712 128.853 159.839 129.222 160.095C129.595 160.351 129.87 160.702 130.048 161.15H130.133C130.328 160.713 130.639 160.365 131.065 160.106C131.491 159.843 131.999 159.712 132.588 159.712C133.331 159.712 133.936 159.944 134.405 160.409C134.877 160.875 135.113 161.576 135.113 162.513V168H133.521V162.663C133.521 162.109 133.37 161.707 133.068 161.459C132.766 161.21 132.405 161.086 131.986 161.086C131.468 161.086 131.065 161.246 130.777 161.565C130.49 161.881 130.346 162.288 130.346 162.785V168H128.758V162.561C128.758 162.118 128.62 161.761 128.343 161.491C128.066 161.221 127.706 161.086 127.262 161.086C126.96 161.086 126.681 161.166 126.425 161.326C126.173 161.482 125.969 161.7 125.813 161.981C125.66 162.261 125.584 162.586 125.584 162.956V168H123.991ZM140.774 168.165C139.968 168.165 139.274 167.993 138.691 167.648C138.113 167.3 137.665 166.812 137.349 166.184C137.037 165.551 136.88 164.811 136.88 163.962C136.88 163.124 137.037 162.386 137.349 161.746C137.665 161.107 138.106 160.608 138.67 160.25C139.238 159.891 139.902 159.712 140.662 159.712C141.124 159.712 141.571 159.788 142.005 159.941C142.438 160.093 142.827 160.333 143.171 160.66C143.516 160.987 143.787 161.411 143.986 161.933C144.185 162.451 144.284 163.082 144.284 163.824V164.388H137.781V163.195H142.724C142.724 162.776 142.639 162.405 142.468 162.082C142.298 161.755 142.058 161.498 141.749 161.31C141.444 161.121 141.085 161.027 140.673 161.027C140.226 161.027 139.835 161.137 139.501 161.358C139.171 161.574 138.915 161.858 138.734 162.21C138.557 162.558 138.468 162.936 138.468 163.344V164.277C138.468 164.824 138.564 165.289 138.755 165.672C138.951 166.056 139.222 166.349 139.57 166.551C139.918 166.75 140.325 166.849 140.79 166.849C141.092 166.849 141.367 166.807 141.616 166.722C141.864 166.633 142.079 166.501 142.26 166.327C142.441 166.153 142.58 165.939 142.676 165.683L144.183 165.955C144.063 166.398 143.846 166.787 143.533 167.121C143.224 167.451 142.836 167.709 142.367 167.893C141.902 168.075 141.371 168.165 140.774 168.165ZM147.644 163.142V168H146.052V159.818H147.58V161.15H147.682C147.87 160.717 148.165 160.369 148.566 160.106C148.971 159.843 149.48 159.712 150.095 159.712C150.652 159.712 151.14 159.829 151.559 160.063C151.978 160.294 152.303 160.638 152.534 161.097C152.765 161.555 152.88 162.121 152.88 162.796V168H151.288V162.988C151.288 162.395 151.133 161.931 150.824 161.597C150.515 161.26 150.091 161.091 149.551 161.091C149.182 161.091 148.853 161.171 148.566 161.331C148.282 161.491 148.056 161.725 147.889 162.034C147.726 162.339 147.644 162.709 147.644 163.142ZM158.836 159.818V161.097H154.367V159.818H158.836ZM155.565 157.858H157.158V165.598C157.158 165.907 157.204 166.139 157.296 166.295C157.389 166.448 157.508 166.553 157.653 166.61C157.802 166.663 157.964 166.69 158.138 166.69C158.266 166.69 158.378 166.681 158.473 166.663C158.569 166.645 158.644 166.631 158.697 166.62L158.985 167.936C158.893 167.972 158.761 168.007 158.591 168.043C158.42 168.082 158.207 168.103 157.951 168.107C157.532 168.114 157.142 168.039 156.78 167.883C156.417 167.727 156.124 167.485 155.901 167.158C155.677 166.832 155.565 166.422 155.565 165.928V157.858Z" fill="black"/>
<path fill-rule="evenodd" clip-rule="evenodd" d="M113.988 61.1951C113.547 61.4124 113.186 61.8395 113.05 62.3035C112.999 62.478 111.624 70.7551 109.994 80.6969C107.915 93.3775 107.042 98.9416 107.069 99.3379C107.208 101.344 110.384 101.625 110.952 99.6813C111.003 99.5069 112.379 91.2298 114.009 81.288C116.088 68.6074 116.961 63.0432 116.934 62.6469C116.889 62.0002 116.534 61.4933 115.905 61.1782C115.417 60.9339 114.502 60.942 113.988 61.1951ZM99.0356 66.8079C98.8395 66.8509 98.5546 66.9711 98.4024 67.075C98.2502 67.1789 95.2475 70.1061 91.7297 73.5798C87.0948 78.1567 85.2862 80.0066 85.1612 80.2983C84.9381 80.8188 84.946 81.2401 85.1883 81.738C85.3143 81.997 87.3348 84.0709 90.8984 87.5992C99.0779 95.6975 98.5208 95.2056 99.5127 95.2056C100.985 95.2056 101.983 93.687 101.291 92.5008C101.175 92.3019 98.5636 89.6516 95.4877 86.6115C92.4119 83.5713 89.8953 81.0427 89.8953 80.9924C89.8953 80.9422 92.4119 78.4136 95.4877 75.3734C98.5636 72.3333 101.175 69.683 101.291 69.484C102.078 68.1347 100.659 66.4511 99.0356 66.8079ZM124.068 66.8032C122.807 67.0829 122.112 68.4563 122.711 69.484C122.827 69.683 125.439 72.3333 128.515 75.3734C131.591 78.4136 134.107 80.9419 134.107 80.9918C134.107 81.0418 131.591 83.571 128.515 86.6121C124.717 90.3673 122.845 92.2888 122.681 92.6005C122.056 93.7853 123.043 95.2056 124.49 95.2056C125.483 95.2056 124.946 95.6797 133.106 87.5983C136.659 84.0791 138.689 81.9948 138.815 81.7371C139.062 81.2295 139.062 80.7553 138.815 80.2477C138.689 79.99 136.659 77.9058 133.106 74.3865C126.671 68.0137 125.758 67.1333 125.402 66.9613C125.035 66.7839 124.461 66.7159 124.068 66.8032Z" fill="#87C932"/>
<defs>
<filter id="filter0_d_2506_7" x="0.757812" y="0" width="222.484" height="217.106" filterUnits="userSpaceOnUse" color-interpolation-filters="sRGB">
<feFlood flood-opacity="0" result="BackgroundImageFix"/>
<feColorMatrix in="SourceAlpha" type="matrix" values="0 0 0 0 0 0 0 0 0 0 0 0 0 0 0 0 0 0 127 0" result="hardAlpha"/>
<feOffset/>
<feGaussianBlur stdDeviation="2"/>
<feComposite in2="hardAlpha" operator="out"/>
<feColorMatrix type="matrix" values="0 0 0 0 0 0 0 0 0 0 0 0 0 0 0 0 0 0 0.25 0"/>
<feBlend mode="normal" in2="BackgroundImageFix" result="effect1_dropShadow_2506_7"/>
<feBlend mode="normal" in="SourceGraphic" in2="effect1_dropShadow_2506_7" result="shape"/>
</filter>
</defs>
</svg>
