<svg width="224" height="224" viewBox="0 0 224 224" fill="none" xmlns="http://www.w3.org/2000/svg">
<g filter="url(#filter0_d_2506_5)">
<path d="M112 4L198.001 45.4161L219.242 138.477L159.727 213.107H64.2728L4.75793 138.477L25.9985 45.4161L112 4Z" fill="white"/>
</g>
<path d="M71.264 140.508V139.091H79.7069V140.508H76.3031V150H74.6625V140.508H71.264ZM81.4447 150V141.818H83.0374V150H81.4447ZM82.249 140.556C81.972 140.556 81.7341 140.463 81.5352 140.279C81.3399 140.091 81.2423 139.867 81.2423 139.608C81.2423 139.345 81.3399 139.121 81.5352 138.936C81.7341 138.748 81.972 138.654 82.249 138.654C82.526 138.654 82.7622 138.748 82.9575 138.936C83.1563 139.121 83.2558 139.345 83.2558 139.608C83.2558 139.867 83.1563 140.091 82.9575 140.279C82.7622 140.463 82.526 140.556 82.249 140.556ZM85.18 150V141.818H86.7088V143.15H86.81C86.9805 142.699 87.2592 142.347 87.6463 142.095C88.0334 141.839 88.4968 141.712 89.0366 141.712C89.5835 141.712 90.0415 141.839 90.4109 142.095C90.7837 142.351 91.0589 142.702 91.2365 143.15H91.3217C91.517 142.713 91.8278 142.365 92.2539 142.106C92.68 141.843 93.1879 141.712 93.7773 141.712C94.5195 141.712 95.125 141.944 95.5938 142.409C96.0661 142.875 96.3022 143.576 96.3022 144.513V150H94.7095V144.663C94.7095 144.109 94.5586 143.707 94.2567 143.459C93.9549 143.21 93.5945 143.086 93.1754 143.086C92.657 143.086 92.2539 143.246 91.9663 143.565C91.6786 143.881 91.5348 144.288 91.5348 144.785V150H89.9474V144.561C89.9474 144.118 89.8089 143.761 89.532 143.491C89.255 143.221 88.8945 143.086 88.4506 143.086C88.1488 143.086 87.87 143.166 87.6143 143.326C87.3622 143.482 87.158 143.7 87.0018 143.981C86.8491 144.261 86.7727 144.586 86.7727 144.956V150H85.18ZM101.963 150.165C101.157 150.165 100.463 149.993 99.8804 149.648C99.3016 149.3 98.8541 148.812 98.5381 148.184C98.2256 147.551 98.0693 146.811 98.0693 145.962C98.0693 145.124 98.2256 144.386 98.5381 143.746C98.8541 143.107 99.2945 142.608 99.8591 142.25C100.427 141.891 101.091 141.712 101.851 141.712C102.313 141.712 102.76 141.788 103.194 141.941C103.627 142.093 104.016 142.333 104.36 142.66C104.705 142.987 104.976 143.411 105.175 143.933C105.374 144.451 105.473 145.082 105.473 145.824V146.388H98.9695V145.195H103.913C103.913 144.776 103.828 144.405 103.657 144.082C103.487 143.755 103.247 143.498 102.938 143.31C102.633 143.121 102.274 143.027 101.862 143.027C101.415 143.027 101.024 143.137 100.69 143.358C100.36 143.574 100.104 143.858 99.923 144.21C99.7455 144.558 99.6567 144.936 99.6567 145.344V146.277C99.6567 146.824 99.7526 147.289 99.9443 147.672C100.14 148.056 100.411 148.349 100.759 148.551C101.107 148.75 101.514 148.849 101.979 148.849C102.281 148.849 102.556 148.807 102.805 148.722C103.053 148.633 103.268 148.501 103.449 148.327C103.63 148.153 103.769 147.939 103.865 147.683L105.372 147.955C105.252 148.398 105.035 148.787 104.722 149.121C104.413 149.451 104.025 149.709 103.556 149.893C103.091 150.075 102.56 150.165 101.963 150.165ZM112.061 144.7V146.08H107.225V144.7H112.061ZM114.029 150V148.903L119.766 140.508H113.982V139.091H121.78V140.188L116.043 148.583H121.828V150H114.029ZM127.21 150.165C126.443 150.165 125.774 149.989 125.202 149.638C124.631 149.286 124.187 148.794 123.871 148.162C123.555 147.53 123.396 146.792 123.396 145.946C123.396 145.098 123.555 144.355 123.871 143.72C124.187 143.084 124.631 142.591 125.202 142.239C125.774 141.887 126.443 141.712 127.21 141.712C127.977 141.712 128.647 141.887 129.219 142.239C129.79 142.591 130.234 143.084 130.55 143.72C130.866 144.355 131.024 145.098 131.024 145.946C131.024 146.792 130.866 147.53 130.55 148.162C130.234 148.794 129.79 149.286 129.219 149.638C128.647 149.989 127.977 150.165 127.21 150.165ZM127.216 148.828C127.713 148.828 128.125 148.697 128.452 148.434C128.778 148.171 129.02 147.821 129.176 147.385C129.336 146.948 129.416 146.467 129.416 145.941C129.416 145.419 129.336 144.94 129.176 144.503C129.02 144.062 128.778 143.709 128.452 143.443C128.125 143.176 127.713 143.043 127.216 143.043C126.715 143.043 126.3 143.176 125.969 143.443C125.643 143.709 125.399 144.062 125.24 144.503C125.083 144.94 125.005 145.419 125.005 145.941C125.005 146.467 125.083 146.948 125.24 147.385C125.399 147.821 125.643 148.171 125.969 148.434C126.3 148.697 126.715 148.828 127.216 148.828ZM134.395 145.142V150H132.802V141.818H134.331V143.15H134.432C134.62 142.717 134.915 142.369 135.316 142.106C135.721 141.843 136.231 141.712 136.845 141.712C137.403 141.712 137.891 141.829 138.31 142.063C138.729 142.294 139.054 142.638 139.285 143.097C139.516 143.555 139.631 144.121 139.631 144.796V150H138.038V144.988C138.038 144.395 137.884 143.931 137.575 143.597C137.266 143.26 136.842 143.091 136.302 143.091C135.932 143.091 135.604 143.171 135.316 143.331C135.032 143.491 134.807 143.725 134.64 144.034C134.476 144.339 134.395 144.709 134.395 145.142ZM145.293 150.165C144.487 150.165 143.793 149.993 143.21 149.648C142.632 149.3 142.184 148.812 141.868 148.184C141.556 147.551 141.399 146.811 141.399 145.962C141.399 145.124 141.556 144.386 141.868 143.746C142.184 143.107 142.625 142.608 143.189 142.25C143.757 141.891 144.421 141.712 145.181 141.712C145.643 141.712 146.09 141.788 146.524 141.941C146.957 142.093 147.346 142.333 147.69 142.66C148.035 142.987 148.306 143.411 148.505 143.933C148.704 144.451 148.804 145.082 148.804 145.824V146.388H142.3V145.195H147.243C147.243 144.776 147.158 144.405 146.987 144.082C146.817 143.755 146.577 143.498 146.268 143.31C145.963 143.121 145.604 143.027 145.192 143.027C144.745 143.027 144.354 143.137 144.02 143.358C143.69 143.574 143.434 143.858 143.253 144.21C143.076 144.558 142.987 144.936 142.987 145.344V146.277C142.987 146.824 143.083 147.289 143.274 147.672C143.47 148.056 143.741 148.349 144.089 148.551C144.437 148.75 144.844 148.849 145.309 148.849C145.611 148.849 145.886 148.807 146.135 148.722C146.383 148.633 146.598 148.501 146.779 148.327C146.96 148.153 147.099 147.939 147.195 147.683L148.702 147.955C148.582 148.398 148.365 148.787 148.052 149.121C147.744 149.451 147.355 149.709 146.886 149.893C146.421 150.075 145.89 150.165 145.293 150.165ZM74.7031 160.638H73.0411C72.9772 160.283 72.8583 159.971 72.6843 159.701C72.5103 159.431 72.2972 159.202 72.0451 159.014C71.7929 158.826 71.5106 158.684 71.1981 158.588C70.8892 158.492 70.5607 158.444 70.2127 158.444C69.5841 158.444 69.0213 158.602 68.5241 158.918C68.0305 159.234 67.6399 159.697 67.3522 160.308C67.0681 160.919 66.9261 161.665 66.9261 162.545C66.9261 163.433 67.0681 164.183 67.3522 164.793C67.6399 165.404 68.0323 165.866 68.5294 166.178C69.0266 166.491 69.5859 166.647 70.2073 166.647C70.5518 166.647 70.8785 166.601 71.1875 166.509C71.5 166.413 71.7823 166.272 72.0344 166.088C72.2865 165.903 72.4996 165.678 72.6736 165.411C72.8512 165.141 72.9737 164.832 73.0411 164.484L74.7031 164.49C74.6143 165.026 74.4421 165.52 74.1864 165.971C73.9343 166.418 73.6093 166.805 73.2116 167.132C72.8174 167.455 72.3664 167.705 71.8586 167.883C71.3508 168.06 70.7968 168.149 70.1967 168.149C69.2521 168.149 68.4105 167.925 67.6718 167.478C66.9332 167.027 66.3508 166.382 65.9247 165.544C65.5021 164.706 65.2908 163.707 65.2908 162.545C65.2908 161.381 65.5039 160.381 65.93 159.547C66.3561 158.708 66.9385 158.066 67.6772 157.618C68.4158 157.167 69.2556 156.942 70.1967 156.942C70.7755 156.942 71.3153 157.025 71.816 157.192C72.3203 157.355 72.773 157.597 73.1743 157.917C73.5756 158.233 73.9076 158.62 74.1704 159.078C74.4332 159.532 74.6108 160.053 74.7031 160.638ZM79.9912 168.165C79.2241 168.165 78.5547 167.989 77.983 167.638C77.4113 167.286 76.9674 166.794 76.6513 166.162C76.3353 165.53 76.1772 164.792 76.1772 163.946C76.1772 163.098 76.3353 162.355 76.6513 161.72C76.9674 161.084 77.4113 160.591 77.983 160.239C78.5547 159.887 79.2241 159.712 79.9912 159.712C80.7582 159.712 81.4276 159.887 81.9993 160.239C82.5711 160.591 83.015 161.084 83.331 161.72C83.6471 162.355 83.8051 163.098 83.8051 163.946C83.8051 164.792 83.6471 165.53 83.331 166.162C83.015 166.794 82.5711 167.286 81.9993 167.638C81.4276 167.989 80.7582 168.165 79.9912 168.165ZM79.9965 166.828C80.4937 166.828 80.9056 166.697 81.2323 166.434C81.559 166.171 81.8005 165.821 81.9567 165.385C82.1165 164.948 82.1964 164.467 82.1964 163.941C82.1964 163.419 82.1165 162.94 81.9567 162.503C81.8005 162.062 81.559 161.709 81.2323 161.443C80.9056 161.176 80.4937 161.043 79.9965 161.043C79.4958 161.043 79.0803 161.176 78.75 161.443C78.4233 161.709 78.1801 162.062 78.0203 162.503C77.864 162.94 77.7859 163.419 77.7859 163.941C77.7859 164.467 77.864 164.948 78.0203 165.385C78.1801 165.821 78.4233 166.171 78.75 166.434C79.0803 166.697 79.4958 166.828 79.9965 166.828ZM85.5829 168V159.818H87.1116V161.15H87.2128C87.3833 160.699 87.6621 160.347 88.0491 160.095C88.4362 159.839 88.8996 159.712 89.4394 159.712C89.9863 159.712 90.4444 159.839 90.8137 160.095C91.1866 160.351 91.4618 160.702 91.6393 161.15H91.7246C91.9199 160.713 92.2306 160.365 92.6567 160.106C93.0829 159.843 93.5907 159.712 94.1802 159.712C94.9224 159.712 95.5278 159.944 95.9966 160.409C96.4689 160.875 96.705 161.576 96.705 162.513V168H95.1123V162.663C95.1123 162.109 94.9614 161.707 94.6596 161.459C94.3577 161.21 93.9973 161.086 93.5783 161.086C93.0598 161.086 92.6567 161.246 92.3691 161.565C92.0815 161.881 91.9376 162.288 91.9376 162.785V168H90.3503V162.561C90.3503 162.118 90.2118 161.761 89.9348 161.491C89.6578 161.221 89.2974 161.086 88.8535 161.086C88.5516 161.086 88.2729 161.166 88.0172 161.326C87.765 161.482 87.5609 161.7 87.4046 161.981C87.2519 162.261 87.1756 162.586 87.1756 162.956V168H85.5829ZM98.8397 171.068V159.818H100.395V161.145H100.528C100.621 160.974 100.754 160.777 100.928 160.553C101.102 160.33 101.343 160.134 101.652 159.967C101.961 159.797 102.37 159.712 102.877 159.712C103.538 159.712 104.127 159.879 104.646 160.212C105.164 160.546 105.571 161.027 105.866 161.656C106.164 162.284 106.313 163.041 106.313 163.925C106.313 164.809 106.166 165.567 105.871 166.2C105.576 166.828 105.171 167.313 104.656 167.654C104.142 167.991 103.554 168.16 102.893 168.16C102.396 168.16 101.99 168.076 101.674 167.909C101.361 167.743 101.116 167.547 100.938 167.324C100.761 167.1 100.624 166.901 100.528 166.727H100.432V171.068H98.8397ZM100.4 163.909C100.4 164.484 100.484 164.989 100.651 165.422C100.818 165.855 101.059 166.194 101.375 166.439C101.691 166.681 102.078 166.801 102.536 166.801C103.012 166.801 103.41 166.675 103.73 166.423C104.049 166.168 104.291 165.821 104.454 165.385C104.621 164.948 104.704 164.456 104.704 163.909C104.704 163.369 104.623 162.885 104.459 162.455C104.3 162.025 104.058 161.686 103.735 161.438C103.415 161.189 103.016 161.065 102.536 161.065C102.075 161.065 101.684 161.184 101.365 161.422C101.049 161.659 100.809 161.991 100.645 162.418C100.482 162.844 100.4 163.341 100.4 163.909ZM110.479 168.181C109.96 168.181 109.491 168.085 109.072 167.893C108.653 167.698 108.321 167.416 108.076 167.047C107.835 166.677 107.714 166.224 107.714 165.688C107.714 165.227 107.803 164.847 107.98 164.548C108.158 164.25 108.398 164.014 108.699 163.84C109.001 163.666 109.339 163.534 109.712 163.446C110.084 163.357 110.464 163.289 110.851 163.243C111.341 163.186 111.739 163.14 112.045 163.105C112.35 163.066 112.572 163.004 112.71 162.918C112.849 162.833 112.918 162.695 112.918 162.503V162.466C112.918 162 112.787 161.64 112.524 161.384C112.265 161.129 111.878 161.001 111.363 161.001C110.827 161.001 110.404 161.12 110.095 161.358C109.79 161.592 109.578 161.853 109.461 162.141L107.964 161.8C108.142 161.303 108.401 160.901 108.742 160.596C109.087 160.287 109.482 160.063 109.93 159.925C110.377 159.783 110.848 159.712 111.341 159.712C111.668 159.712 112.014 159.751 112.38 159.829C112.75 159.903 113.094 160.042 113.414 160.244C113.737 160.447 114.001 160.736 114.207 161.113C114.413 161.485 114.516 161.97 114.516 162.567V168H112.961V166.881H112.897C112.794 167.087 112.639 167.29 112.433 167.489C112.227 167.687 111.963 167.853 111.64 167.984C111.317 168.115 110.93 168.181 110.479 168.181ZM110.825 166.903C111.265 166.903 111.642 166.816 111.954 166.642C112.27 166.468 112.51 166.24 112.673 165.96C112.84 165.676 112.924 165.372 112.924 165.049V163.994C112.867 164.051 112.757 164.104 112.593 164.154C112.433 164.2 112.251 164.241 112.045 164.277C111.839 164.309 111.638 164.339 111.443 164.367C111.247 164.392 111.084 164.413 110.953 164.431C110.644 164.47 110.361 164.536 110.106 164.628C109.854 164.721 109.651 164.854 109.498 165.028C109.349 165.198 109.275 165.425 109.275 165.71C109.275 166.104 109.42 166.402 109.712 166.604C110.003 166.803 110.374 166.903 110.825 166.903ZM120.457 159.818V161.097H115.988V159.818H120.457ZM117.186 157.858H118.779V165.598C118.779 165.907 118.825 166.139 118.917 166.295C119.01 166.448 119.129 166.553 119.274 166.61C119.423 166.663 119.585 166.69 119.759 166.69C119.887 166.69 119.999 166.681 120.095 166.663C120.19 166.645 120.265 166.631 120.318 166.62L120.606 167.936C120.514 167.972 120.382 168.007 120.212 168.043C120.041 168.082 119.828 168.103 119.573 168.107C119.154 168.114 118.763 168.039 118.401 167.883C118.038 167.727 117.746 167.485 117.522 167.158C117.298 166.832 117.186 166.422 117.186 165.928V157.858ZM122.219 168V159.818H123.811V168H122.219ZM123.023 158.556C122.746 158.556 122.508 158.463 122.309 158.279C122.114 158.091 122.016 157.867 122.016 157.608C122.016 157.345 122.114 157.121 122.309 156.936C122.508 156.748 122.746 156.654 123.023 156.654C123.3 156.654 123.536 156.748 123.731 156.936C123.93 157.121 124.03 157.345 124.03 157.608C124.03 157.867 123.93 158.091 123.731 158.279C123.536 158.463 123.3 158.556 123.023 158.556ZM126.082 168V157.091H127.674V161.145H127.77C127.863 160.974 127.996 160.777 128.17 160.553C128.344 160.33 128.585 160.134 128.894 159.967C129.203 159.797 129.612 159.712 130.119 159.712C130.78 159.712 131.369 159.879 131.888 160.212C132.406 160.546 132.813 161.027 133.108 161.656C133.406 162.284 133.555 163.041 133.555 163.925C133.555 164.809 133.408 165.567 133.113 166.2C132.818 166.828 132.413 167.313 131.899 167.654C131.384 167.991 130.796 168.16 130.135 168.16C129.638 168.16 129.232 168.076 128.916 167.909C128.603 167.743 128.358 167.547 128.181 167.324C128.003 167.1 127.866 166.901 127.77 166.727H127.637V168H126.082ZM127.643 163.909C127.643 164.484 127.726 164.989 127.893 165.422C128.06 165.855 128.301 166.194 128.617 166.439C128.933 166.681 129.32 166.801 129.779 166.801C130.254 166.801 130.652 166.675 130.972 166.423C131.291 166.168 131.533 165.821 131.696 165.385C131.863 164.948 131.947 164.456 131.947 163.909C131.947 163.369 131.865 162.885 131.701 162.455C131.542 162.025 131.3 161.686 130.977 161.438C130.657 161.189 130.258 161.065 129.779 161.065C129.317 161.065 128.926 161.184 128.607 161.422C128.291 161.659 128.051 161.991 127.888 162.418C127.724 162.844 127.643 163.341 127.643 163.909ZM135.344 168V159.818H136.936V168H135.344ZM136.148 158.556C135.871 158.556 135.633 158.463 135.434 158.279C135.239 158.091 135.141 157.867 135.141 157.608C135.141 157.345 135.239 157.121 135.434 156.936C135.633 156.748 135.871 156.654 136.148 156.654C136.425 156.654 136.661 156.748 136.856 156.936C137.055 157.121 137.155 157.345 137.155 157.608C137.155 157.867 137.055 158.091 136.856 158.279C136.661 158.463 136.425 158.556 136.148 158.556ZM140.672 157.091V168H139.079V157.091H140.672ZM142.814 168V159.818H144.407V168H142.814ZM143.619 158.556C143.342 158.556 143.104 158.463 142.905 158.279C142.71 158.091 142.612 157.867 142.612 157.608C142.612 157.345 142.71 157.121 142.905 156.936C143.104 156.748 143.342 156.654 143.619 156.654C143.896 156.654 144.132 156.748 144.327 156.936C144.526 157.121 144.625 157.345 144.625 157.608C144.625 157.867 144.526 158.091 144.327 158.279C144.132 158.463 143.896 158.556 143.619 158.556ZM150.369 159.818V161.097H145.9V159.818H150.369ZM147.098 157.858H148.691V165.598C148.691 165.907 148.737 166.139 148.83 166.295C148.922 166.448 149.041 166.553 149.186 166.61C149.336 166.663 149.497 166.69 149.671 166.69C149.799 166.69 149.911 166.681 150.007 166.663C150.103 166.645 150.177 166.631 150.23 166.62L150.518 167.936C150.426 167.972 150.294 168.007 150.124 168.043C149.953 168.082 149.74 168.103 149.485 168.107C149.066 168.114 148.675 168.039 148.313 167.883C147.951 167.727 147.658 167.485 147.434 167.158C147.21 166.832 147.098 166.422 147.098 165.928V157.858ZM153.137 171.068C152.9 171.068 152.683 171.049 152.488 171.01C152.292 170.974 152.147 170.935 152.051 170.892L152.434 169.587C152.726 169.665 152.985 169.699 153.212 169.689C153.439 169.678 153.64 169.593 153.814 169.433C153.992 169.273 154.148 169.012 154.283 168.65L154.48 168.107L151.486 159.818H153.191L155.263 166.168H155.348L157.42 159.818H159.13L155.758 169.092C155.602 169.518 155.403 169.879 155.162 170.173C154.92 170.472 154.633 170.695 154.299 170.844C153.965 170.994 153.578 171.068 153.137 171.068Z" fill="black"/>
<path fill-rule="evenodd" clip-rule="evenodd" d="M95.9864 62.0985C88.9009 63.1806 84.0333 69.6987 85.168 76.5848C85.6086 79.2583 86.8222 81.5841 88.7823 83.5116C92.6882 87.3525 98.5918 88.2936 103.518 85.8607C108.922 83.192 111.707 77.2312 110.221 71.5151C109.009 66.8512 105.197 63.2395 100.45 62.2569C99.401 62.0398 96.9418 61.9525 95.9864 62.0985ZM124.136 62.1544C118.839 62.9661 114.585 67.092 113.553 72.4201C113.367 73.3765 113.365 75.6853 113.548 76.6976C114.139 79.9623 116.051 82.9761 118.698 84.8146C122.487 87.4469 127.007 87.9158 131.369 86.1289C133.857 85.1094 136.396 82.7059 137.707 80.1275C138.465 78.6389 138.999 76.3729 139 74.6467C139.004 66.8823 131.953 60.9565 124.136 62.1544ZM97.158 63.788C97.158 64.3584 97.3686 64.6193 97.8291 64.6193C98.2379 64.6193 98.4969 64.2678 98.4969 63.7127V63.2941L99.0827 63.367C101.85 63.7116 104.675 65.1587 106.39 67.1099C107.97 68.9088 109.209 71.7255 109.209 73.5205C109.209 73.9513 109.207 73.9525 108.762 73.9525C108.465 73.9525 108.242 74.0258 108.093 74.1721C107.835 74.4253 107.821 74.5342 107.998 74.8657C108.176 75.199 108.309 75.2665 108.79 75.2685L109.209 75.2702V75.7502C109.209 77.0591 108.198 79.6978 107.134 81.164C105.334 83.6465 102.293 85.4351 99.2677 85.7907L98.4969 85.8813V85.415C98.4969 85.042 98.4381 84.9031 98.2029 84.7212C97.8354 84.4367 97.6637 84.4351 97.3811 84.7132C97.2324 84.8596 97.158 85.0792 97.158 85.372C97.158 85.81 97.1567 85.8112 96.7189 85.8112C96.08 85.8112 94.889 85.5438 93.7985 85.1556C89.8555 83.7515 86.9467 80.0912 86.4011 75.8466L86.327 75.2702H86.7523C87.2982 75.2702 87.6737 75.0139 87.6737 74.6412C87.6737 74.1919 87.3767 73.9525 86.8195 73.9525C86.5528 73.9525 86.3347 73.9315 86.3347 73.9055C86.3347 73.4904 86.6419 71.945 86.8591 71.2669C88.1623 67.2007 91.6833 64.1662 95.9106 63.4661C97.2239 63.2487 97.158 63.2315 97.158 63.788ZM125.499 63.7164C125.499 64.2681 125.759 64.6193 126.167 64.6193C126.628 64.6193 126.838 64.3584 126.838 63.788C126.838 63.5205 126.876 63.3019 126.922 63.3021C126.968 63.3023 127.457 63.3749 128.01 63.4634C132.297 64.1501 135.822 67.164 137.137 71.2669C137.354 71.945 137.661 73.4904 137.661 73.9055C137.661 73.9315 137.452 73.9525 137.196 73.9525C136.639 73.9525 136.323 74.1949 136.323 74.6221C136.323 75.0149 136.685 75.2702 137.244 75.2702H137.669L137.595 75.8466C137.142 79.3748 135.025 82.5753 131.979 84.3369C130.629 85.118 128.418 85.8112 127.277 85.8112C126.839 85.8112 126.838 85.81 126.838 85.372C126.838 85.0792 126.764 84.8596 126.615 84.7132C126.332 84.4351 126.161 84.4367 125.793 84.7212C125.558 84.9031 125.499 85.042 125.499 85.415V85.8813L124.728 85.7907C121.706 85.4356 118.662 83.6462 116.866 81.1701C115.802 79.7025 114.958 77.5744 114.821 76.0113L114.755 75.2702L115.19 75.2685C115.687 75.2665 115.819 75.201 115.998 74.8657C116.176 74.5342 116.161 74.4253 115.903 74.1721C115.755 74.0258 115.531 73.9525 115.234 73.9525C114.789 73.9525 114.788 73.9513 114.788 73.5205C114.788 72.3762 115.526 70.1333 116.338 68.8102C118.061 66.0041 120.934 64.0636 124.233 63.477C125.537 63.2452 125.499 63.2381 125.499 63.7164ZM97.406 67.3157C97.158 67.4866 97.158 67.4869 97.158 71.2075C97.158 74.928 97.158 74.9284 97.406 75.0992C97.6119 75.2412 98.0644 75.2702 100.076 75.2702H102.498L102.731 74.9784C102.881 74.7904 102.939 74.6049 102.895 74.4569C102.755 73.9915 102.569 73.9525 100.484 73.9525H98.4969V70.7683C98.4969 67.7304 98.4867 67.5739 98.2738 67.3644C98.0056 67.1005 97.7397 67.0857 97.406 67.3157ZM128.289 72.4232C125.776 74.0603 125.499 74.2777 125.499 74.6135C125.499 74.7769 129.563 80.368 130.106 80.9525C130.52 81.3976 131.305 81.157 131.299 80.5869C131.298 80.471 130.369 79.1217 129.235 77.5889C128.101 76.0559 127.173 74.791 127.173 74.7778C127.173 74.7647 128.178 74.0962 129.407 73.2921C131.78 71.7395 131.943 71.5715 131.59 71.042C131.266 70.555 130.959 70.6834 128.289 72.4232ZM96.2095 90.8707C89.0228 91.844 84.0201 98.3876 85.1627 105.32C85.9698 110.218 89.4738 114.13 94.282 115.501C99.0567 116.863 104.302 115.321 107.511 111.611C110.926 107.666 111.577 102.3 109.205 97.6699C107.494 94.3312 104.263 91.8865 100.486 91.0726C99.3224 90.8217 97.2824 90.7254 96.2095 90.8707ZM125.109 90.815C122.441 91.1707 120.62 91.8415 118.698 93.1763C114.947 95.7821 112.867 100.491 113.488 104.972C114.56 112.707 122.161 117.635 129.727 115.5C135.909 113.756 139.856 107.643 138.828 101.406C137.972 96.2135 133.962 92.1042 128.709 91.0364C127.87 90.8659 125.719 90.7337 125.109 90.815ZM101.009 92.5675C104.156 93.4651 106.692 95.593 108.143 98.5545C108.69 99.6707 109.209 101.464 109.209 102.241V102.721L108.79 102.722C108.309 102.724 108.176 102.792 107.998 103.125C107.821 103.457 107.835 103.566 108.093 103.819C108.242 103.965 108.465 104.038 108.762 104.038C109.207 104.038 109.209 104.04 109.209 104.471C109.209 106.265 107.97 109.082 106.39 110.881C104.675 112.832 101.85 114.279 99.0827 114.624L98.4969 114.697V114.278C98.4969 113.723 98.2379 113.372 97.8291 113.372C97.3686 113.372 97.158 113.633 97.158 114.203C97.158 114.47 97.1143 114.689 97.061 114.689C96.7105 114.689 94.8587 114.315 94.2569 114.122C90.1679 112.813 87.0447 109.156 86.4554 104.987C86.389 104.517 86.3347 104.111 86.3347 104.085C86.3347 104.06 86.5441 104.038 86.8001 104.038C87.3576 104.038 87.6737 103.796 87.6737 103.369C87.6737 102.976 87.3107 102.721 86.7523 102.721H86.327L86.4011 102.144C86.8547 98.6162 88.9717 95.4156 92.0171 93.6541C93.3675 92.873 95.5782 92.1798 96.7189 92.1798C97.1567 92.1798 97.158 92.181 97.158 92.619C97.158 92.9118 97.2324 93.1314 97.3811 93.2778C97.6637 93.5559 97.8354 93.5543 98.2029 93.2698C98.4381 93.0878 98.4969 92.9489 98.4969 92.5759V92.1097L99.2677 92.2003C99.6917 92.25 100.475 92.4154 101.009 92.5675ZM125.799 93.2745C126.161 93.5543 126.333 93.5549 126.615 93.2778C126.764 93.1314 126.838 92.9118 126.838 92.619C126.838 92.181 126.839 92.1798 127.277 92.1798C128.418 92.1798 130.629 92.873 131.979 93.6541C135.025 95.4156 137.142 98.6162 137.595 102.144L137.669 102.721H137.244C136.698 102.721 136.323 102.977 136.323 103.35C136.323 103.799 136.619 104.038 137.177 104.038C137.443 104.038 137.661 104.06 137.661 104.085C137.661 104.111 137.607 104.517 137.541 104.987C136.952 109.156 133.828 112.813 129.739 114.122C129.137 114.315 127.286 114.689 126.935 114.689C126.882 114.689 126.838 114.47 126.838 114.203C126.838 113.633 126.628 113.372 126.167 113.372C125.758 113.372 125.499 113.723 125.499 114.278V114.697L124.913 114.624C122.146 114.279 119.321 112.832 117.607 110.881C116.026 109.082 114.788 106.265 114.788 104.471C114.788 104.04 114.789 104.038 115.234 104.038C115.531 104.038 115.755 103.965 115.903 103.819C116.161 103.566 116.176 103.457 115.998 103.125C115.819 102.79 115.687 102.724 115.19 102.722L114.755 102.721L114.821 101.98C115.014 99.7846 116.326 97.1402 118.077 95.4169C119.81 93.7114 122.404 92.4554 124.713 92.2041L125.443 92.1246L125.477 92.5881C125.502 92.9314 125.586 93.1092 125.799 93.2745ZM91.2893 97.3766C91.059 97.5715 91.0034 97.6957 91.0554 97.8995C91.0967 98.0612 92.311 99.2489 94.1341 100.91L97.1448 103.654L97.1514 106.646C97.1576 109.487 97.1692 109.649 97.3811 109.858C97.6656 110.138 97.9441 110.137 98.2527 109.854C98.4932 109.633 98.4969 109.581 98.4969 106.401C98.4969 103.205 98.4943 103.17 98.2459 102.905C98.0352 102.68 94.5411 99.4788 92.5023 97.6424C92.1838 97.3555 91.8485 97.1209 91.7574 97.1209C91.6661 97.1209 91.4554 97.236 91.2893 97.3766ZM118.862 98.1521C118.708 98.3042 118.581 98.5041 118.581 98.5965C118.581 98.8527 118.954 99.1991 122.208 101.969C126.053 105.242 125.919 105.136 126.211 105.136C126.376 105.136 127.285 104.415 128.909 102.996C130.255 101.818 131.452 100.736 131.567 100.59C131.835 100.251 131.734 99.7955 131.354 99.6249C130.902 99.4223 131.088 99.283 127.03 102.866L126.181 103.615L123.19 101.064C121.545 99.6608 120.074 98.4027 119.92 98.2683C119.463 97.8682 119.182 97.8372 118.862 98.1521Z" fill="#9B51E0"/>
<defs>
<filter id="filter0_d_2506_5" x="0.757812" y="0" width="222.484" height="217.106" filterUnits="userSpaceOnUse" color-interpolation-filters="sRGB">
<feFlood flood-opacity="0" result="BackgroundImageFix"/>
<feColorMatrix in="SourceAlpha" type="matrix" values="0 0 0 0 0 0 0 0 0 0 0 0 0 0 0 0 0 0 127 0" result="hardAlpha"/>
<feOffset/>
<feGaussianBlur stdDeviation="2"/>
<feComposite in2="hardAlpha" operator="out"/>
<feColorMatrix type="matrix" values="0 0 0 0 0 0 0 0 0 0 0 0 0 0 0 0 0 0 0.25 0"/>
<feBlend mode="normal" in2="BackgroundImageFix" result="effect1_dropShadow_2506_5"/>
<feBlend mode="normal" in="SourceGraphic" in2="effect1_dropShadow_2506_5" result="shape"/>
</filter>
</defs>
</svg>
