<svg width="65" height="63" viewBox="0 0 65 63" fill="none" xmlns="http://www.w3.org/2000/svg">
<path d="M32.5 34C50.4493 34 65 26.3888 65 17C65 7.61116 50.4493 0 32.5 0C14.5507 0 0 7.61116 0 17C0 26.3888 14.5507 34 32.5 34Z" fill="url(#paint0_radial_741_126)"/>
<path d="M32.5005 32.7368C49.7489 32.7368 63.7315 25.6913 63.7315 17.0002C63.7315 8.30917 49.7489 1.26367 32.5005 1.26367C15.2521 1.26367 1.26953 8.30917 1.26953 17.0002C1.26953 25.6913 15.2521 32.7368 32.5005 32.7368Z" fill="#6181B6"/>
<path d="M38.8222 22.1021L40.3714 14.1706C40.7271 12.3772 40.4221 11.0387 39.5078 10.2043C38.6194 9.39561 37.096 8.99226 34.8611 8.99226H32.1691L32.9313 5.05169C32.9468 4.97728 32.9459 4.90042 32.9287 4.82637C32.9116 4.75232 32.8786 4.68283 32.8319 4.62264C32.7873 4.56502 32.7295 4.51888 32.6633 4.48809C32.5971 4.4573 32.5244 4.44275 32.4513 4.44568H28.7447C28.6264 4.44537 28.5116 4.4853 28.4192 4.55884C28.3269 4.63238 28.2625 4.73512 28.2369 4.85002L26.5863 13.262C26.4693 12.3599 26.0798 11.5143 25.4694 10.837C24.3763 9.59926 22.676 8.96755 20.3656 8.96755H13.2306C13.1123 8.96724 12.9974 9.00716 12.9051 9.0807C12.8127 9.15425 12.7484 9.25699 12.7228 9.37188L9.39378 26.447C9.37833 26.5214 9.37921 26.5983 9.39636 26.6723C9.41351 26.7464 9.44653 26.8159 9.49316 26.8761C9.53775 26.9337 9.59559 26.9798 9.66181 27.0106C9.72804 27.0414 9.80072 27.056 9.87376 27.053H13.6062C13.7245 27.0533 13.8394 27.0134 13.9317 26.9399C14.0241 26.8663 14.0884 26.7636 14.114 26.6487L14.9269 22.5312H17.6944C18.9209 22.5626 20.1451 22.4093 21.3255 22.0764C22.3202 21.7454 23.2301 21.2022 23.9917 20.4848C24.6136 19.9208 25.1445 19.2649 25.5658 18.5402L24.9059 21.9499C24.8905 22.0243 24.8914 22.1011 24.9085 22.1752C24.9257 22.2492 24.9587 22.3187 25.0053 22.3789C25.0499 22.4365 25.1077 22.4827 25.174 22.5135C25.2402 22.5443 25.3129 22.5588 25.3859 22.5559H29.0965C29.2148 22.5562 29.3297 22.5163 29.422 22.4427C29.5144 22.3692 29.5787 22.2664 29.6043 22.1515L31.4328 12.8053H33.9718C35.0649 12.8053 35.3679 13.003 35.4693 13.1088C35.5458 13.1849 35.6979 13.4874 35.52 14.4227L34.0473 21.9756C34.0318 22.05 34.0327 22.1268 34.0499 22.2009C34.067 22.2749 34.1 22.3444 34.1466 22.4046C34.1912 22.4622 34.2491 22.5084 34.3153 22.5392C34.3815 22.57 34.4542 22.5845 34.5272 22.5816H38.3382C38.453 22.5487 38.5575 22.4875 38.6421 22.4037C38.7267 22.3199 38.7886 22.2161 38.8222 22.1021ZM21.6574 15.5348C21.5502 16.5052 21.0909 17.4033 20.3656 18.0607C19.4519 18.6157 18.3864 18.8718 17.3188 18.7933H15.6652L16.8577 12.6807H18.9903C20.5643 12.6807 21.1993 13.009 21.4527 13.2867C21.6365 13.6287 21.7493 14.0039 21.7845 14.3901C21.8197 14.7763 21.7765 15.1656 21.6574 15.5348Z" fill="white"/>
<path d="M54.6694 10.8372C53.5763 9.59949 51.8761 8.96778 49.5656 8.96778H42.3799C42.2616 8.96746 42.1468 9.00739 42.0544 9.08093C41.9621 9.15448 41.8978 9.25721 41.8721 9.37211L38.5461 26.4225C38.5307 26.497 38.5316 26.5738 38.5487 26.6479C38.5659 26.7219 38.5989 26.7914 38.6455 26.8516C38.6901 26.9092 38.7479 26.9554 38.8142 26.9861C38.8804 27.0169 38.9531 27.0315 39.0261 27.0285H42.7586C42.8769 27.0289 42.9917 26.9889 43.0841 26.9154C43.1764 26.8418 43.2407 26.7391 43.2664 26.6242L44.0792 22.5067H46.8468C48.0733 22.5381 49.2975 22.3848 50.4779 22.0519C51.4725 21.7209 52.3825 21.1777 53.1441 20.4603C53.7906 19.8773 54.3391 19.1951 54.7688 18.4396C55.1886 17.6815 55.4882 16.8635 55.6572 16.0145C56.0895 13.8179 55.7625 12.0997 54.6694 10.8372ZM50.7849 15.536C50.6777 16.5064 50.2184 17.4045 49.4931 18.0619C48.5794 18.6169 47.5139 18.8731 46.4463 18.7945H44.7957L45.9882 12.682H48.1207C49.6948 12.682 50.3298 13.0102 50.5832 13.288C50.7782 13.6257 50.8971 14.0016 50.9316 14.3897C50.9661 14.7777 50.9154 15.1685 50.783 15.5351L50.7849 15.536Z" fill="white"/>
<path d="M18.992 12.1755C19.4946 12.1112 20.005 12.1473 20.4934 12.2818C20.9817 12.4162 21.4382 12.6463 21.8361 12.9585C22.0943 13.3494 22.2585 13.7943 22.3157 14.2587C22.3729 14.723 22.3217 15.1942 22.166 15.6356C22.0344 16.7312 21.5012 17.7401 20.6684 18.4689C19.6695 19.0963 18.4947 19.3884 17.3166 19.3023H15.0568L16.453 12.1795L18.992 12.1755ZM9.90234 26.5231H13.6348L14.5232 22.0012H17.723C18.8993 22.0339 20.0733 21.8804 21.2011 21.5465C22.1291 21.237 22.9773 20.728 23.6854 20.0557C24.2921 19.5097 24.8065 18.8701 25.2088 18.1615C25.6035 17.4531 25.8781 16.6849 26.0217 15.8877C26.2595 15.0866 26.303 14.2407 26.1486 13.4196C25.9941 12.5985 25.6462 11.8256 25.1333 11.1642C24.1395 10.0273 22.5685 9.47168 20.4101 9.47168H13.2284L9.90234 26.5231Z" fill="#000004"/>
<path d="M28.7674 4.9502H32.474L31.5857 9.47206H34.8868C36.9737 9.47206 38.3907 9.82598 39.1778 10.5595C39.9648 11.2931 40.1934 12.4537 39.8883 14.071L38.3391 22.0026H34.5837L36.0565 14.4497C36.1601 14.1645 36.1979 13.8598 36.1671 13.5581C36.1363 13.2564 36.0377 12.9654 35.8786 12.7068C35.3438 12.3199 34.6817 12.1486 34.0253 12.2273H31.055L29.151 22.0026H25.4414L28.7674 4.9502Z" fill="#000004"/>
<path d="M48.117 12.1755C48.6196 12.1112 49.13 12.1473 49.6184 12.2818C50.1067 12.4162 50.5632 12.6463 50.9611 12.9585C51.2193 13.3494 51.3835 13.7943 51.4407 14.2587C51.4979 14.723 51.4467 15.1942 51.291 15.6356C51.1582 16.73 50.6247 17.7373 49.7924 18.465C48.7935 19.0923 47.6187 19.3844 46.4406 19.2984H44.1808L45.577 12.1755H48.117ZM39.0273 26.5231H42.7598L43.6482 22.0012H46.847C48.0233 22.0339 49.1973 21.8804 50.3251 21.5465C51.2531 21.2369 52.1013 20.7279 52.8094 20.0557C53.4161 19.5097 53.9305 18.8701 54.3328 18.1615C54.7275 17.4531 55.0021 16.6849 55.1457 15.8877C55.3835 15.0866 55.427 14.2407 55.2726 13.4196C55.1181 12.5985 54.7702 11.8256 54.2573 11.1642C53.2635 10.0273 51.6925 9.47168 49.5341 9.47168H42.3484L39.0273 26.5231Z" fill="#000004"/>
<path d="M22.799 61V53.7273H25.3913C25.9571 53.7273 26.4259 53.8303 26.7976 54.0362C27.1693 54.2422 27.4474 54.5239 27.6321 54.8814C27.8168 55.2365 27.9091 55.6366 27.9091 56.0817C27.9091 56.5291 27.8156 56.9316 27.6286 57.2891C27.4439 57.6442 27.1645 57.9259 26.7905 58.1342C26.4188 58.3402 25.9512 58.4432 25.3878 58.4432H23.6051V57.5128H25.2884C25.6458 57.5128 25.9358 57.4512 26.1584 57.3281C26.3809 57.2027 26.5443 57.0322 26.6484 56.8168C26.7526 56.6013 26.8047 56.3563 26.8047 56.0817C26.8047 55.8071 26.7526 55.5632 26.6484 55.3501C26.5443 55.1371 26.3797 54.9702 26.1548 54.8494C25.9323 54.7287 25.6387 54.6683 25.2741 54.6683H23.8963V61H22.799ZM29.1955 61V53.7273H30.2928V56.8878H33.9185V53.7273H35.0194V61H33.9185V57.8288H30.2928V61H29.1955ZM36.6174 61V53.7273H39.2097C39.7755 53.7273 40.2443 53.8303 40.6159 54.0362C40.9876 54.2422 41.2658 54.5239 41.4505 54.8814C41.6351 55.2365 41.7275 55.6366 41.7275 56.0817C41.7275 56.5291 41.6339 56.9316 41.4469 57.2891C41.2623 57.6442 40.9829 57.9259 40.6088 58.1342C40.2372 58.3402 39.7696 58.4432 39.2061 58.4432H37.4235V57.5128H39.1067C39.4642 57.5128 39.7542 57.4512 39.9767 57.3281C40.1993 57.2027 40.3626 57.0322 40.4668 56.8168C40.571 56.6013 40.623 56.3563 40.623 56.0817C40.623 55.8071 40.571 55.5632 40.4668 55.3501C40.3626 55.1371 40.1981 54.9702 39.9732 54.8494C39.7507 54.7287 39.4571 54.6683 39.0925 54.6683H37.7147V61H36.6174Z" fill="black"/>
<defs>
<radialGradient id="paint0_radial_741_126" cx="0" cy="0" r="1" gradientUnits="userSpaceOnUse" gradientTransform="translate(10.259 5.984) scale(42.7033 42.466)">
<stop stop-color="white"/>
<stop offset="0.5" stop-color="#4C6B97"/>
<stop offset="1" stop-color="#231F20"/>
</radialGradient>
</defs>
</svg>
