<svg width="18" height="18" viewBox="0 0 18 18" fill="none" xmlns="http://www.w3.org/2000/svg">
<path d="M1.60577 4.73094L9 0.46188L16.3942 4.73094V13.2691L9 17.5381L1.60577 13.2691V4.73094Z" stroke="#410EAD" stroke-width="0.8"/>
<path fill-rule="evenodd" clip-rule="evenodd" d="M8.77352 4.02365C8.71247 4.03677 8.60855 4.0734 8.5426 4.10501C8.37797 4.18397 8.15875 4.40085 8.07916 4.56352C7.80404 5.12575 8.09385 5.80381 8.6884 5.98898C8.86372 6.04358 9.13628 6.04358 9.3116 5.98898C9.90615 5.80381 10.196 5.12575 9.92084 4.56352C9.84141 4.40118 9.62199 4.18395 9.45806 4.10535C9.24426 4.00283 9.00378 3.97414 8.77352 4.02365ZM6.59309 4.49658C6.19782 4.5938 5.89072 4.97912 5.89171 5.37662C5.89285 5.83488 6.24053 6.2254 6.70537 6.29055C6.78001 6.30101 6.78539 6.29834 6.90006 6.19433C7.06461 6.04508 7.25297 5.93393 7.45285 5.86818C7.61243 5.81568 7.62549 5.80773 7.65671 5.74416C7.67508 5.70681 7.70252 5.61386 7.71773 5.53762C7.84276 4.91034 7.22725 4.3406 6.59309 4.49658ZM10.9588 4.49881C10.603 4.59367 10.3283 4.89892 10.2754 5.25819C10.2581 5.37537 10.2593 5.42225 10.2823 5.53762C10.2975 5.61386 10.3249 5.70681 10.3433 5.74416C10.3745 5.80773 10.3876 5.81568 10.5472 5.86818C10.747 5.93393 10.9354 6.04508 11.0999 6.19433C11.2146 6.29834 11.22 6.30101 11.2946 6.29055C11.7595 6.2254 12.1072 5.83488 12.1083 5.37662C12.1093 4.97092 11.7862 4.57618 11.3838 4.49155C11.2585 4.46519 11.0731 4.46835 10.9588 4.49881ZM7.72205 6.33724C7.59651 6.36161 7.39224 6.46694 7.29227 6.55881C7.17292 6.66854 7.0722 6.82329 7.02802 6.96486C6.99528 7.0698 6.99276 7.12934 6.99276 7.79697V8.51607H9H11.0072V7.79697C11.0072 7.12934 11.0047 7.0698 10.972 6.96486C10.876 6.65728 10.5806 6.39514 10.2632 6.33592C10.1452 6.3139 7.83612 6.3151 7.72205 6.33724ZM5.73158 6.55827C5.4044 6.60845 5.16504 6.80508 5.04704 7.12064C5.01899 7.19565 5.01417 7.28588 5.00755 7.86107L5 8.51607H5.72994H6.45987V7.78748C6.45987 6.93441 6.46337 6.90671 6.61377 6.56864C6.62144 6.55136 6.53286 6.54717 6.19976 6.54905C5.96669 6.55037 5.756 6.55452 5.73158 6.55827ZM11.3856 6.56692C11.5375 6.91158 11.5401 6.9326 11.5401 7.78748V8.51607H12.2701H13L12.9925 7.86107C12.9858 7.28588 12.981 7.19565 12.953 7.12064C12.8551 6.85888 12.6646 6.67014 12.4146 6.58725C12.2977 6.54846 11.3694 6.53013 11.3856 6.56692ZM5.01513 9.05532C4.99874 9.07155 5.00014 9.60234 5.01661 9.61212C5.02394 9.61648 5.28366 9.64636 5.59377 9.67854L6.15761 9.73702L6.18539 9.83429C6.23339 10.0024 6.30126 10.1713 6.39965 10.3672L6.49479 10.5567L6.13983 10.9909C5.94459 11.2298 5.78487 11.4334 5.78487 11.4434C5.78487 11.4535 5.96379 11.6387 6.18246 11.855L6.58007 12.2483L7.0288 11.8882L7.47754 11.5281L7.68085 11.6298C7.79267 11.6858 7.97736 11.761 8.09125 11.7971C8.20517 11.8331 8.29967 11.8633 8.30127 11.8642C8.30287 11.8651 8.32916 12.1032 8.35971 12.3934C8.39024 12.6835 8.41907 12.9387 8.42375 12.9604L8.43225 13H9H9.56775L9.57626 12.9604C9.58093 12.9387 9.60976 12.6835 9.64029 12.3934C9.67084 12.1032 9.69713 11.8651 9.69873 11.8642C9.70033 11.8633 9.79483 11.8331 9.90875 11.7971C10.0226 11.761 10.2073 11.6858 10.3191 11.6298L10.5225 11.5281L10.9712 11.8882L11.4199 12.2483L11.8175 11.855C12.0362 11.6387 12.2151 11.4535 12.2151 11.4434C12.2151 11.4334 12.0554 11.2298 11.8602 10.9909L11.5052 10.5567L11.6004 10.3672C11.6987 10.1713 11.7666 10.0024 11.8146 9.83429L11.8424 9.73702L12.4062 9.67876C12.7163 9.64673 12.9763 9.61472 12.9839 9.60765C12.9915 9.60057 12.9955 9.47275 12.9928 9.32358L12.9878 9.05239L11.67 9.04788L10.3522 9.04337L10.3419 9.12701C10.2898 9.55112 10.1133 9.88066 9.82071 10.1001C9.56311 10.2933 9.32997 10.3699 9 10.3699C8.74886 10.3699 8.62429 10.3437 8.4227 10.2482C7.9861 10.0416 7.72302 9.65583 7.65808 9.12712L7.64781 9.04359H6.33739C5.61667 9.04359 5.02164 9.04887 5.01513 9.05532Z" fill="#410EAD"/>
</svg>
