<svg width="224" height="224" viewBox="0 0 224 224" fill="none" xmlns="http://www.w3.org/2000/svg">
<g filter="url(#filter0_d_2506_9)">
<path d="M112 4L198.001 45.4161L219.242 138.477L159.727 213.107H64.2728L4.75793 138.477L25.9985 45.4161L112 4Z" fill="white"/>
</g>
<path d="M44.7239 142.537C44.6209 142.214 44.4824 141.925 44.3084 141.669C44.138 141.41 43.9338 141.19 43.6958 141.009C43.4579 140.824 43.1863 140.684 42.8809 140.588C42.579 140.492 42.247 140.444 41.8848 140.444C41.2704 140.444 40.7164 140.602 40.2228 140.918C39.7292 141.234 39.3386 141.697 39.051 142.308C38.7669 142.915 38.6248 143.659 38.6248 144.54C38.6248 145.424 38.7686 146.172 39.0563 146.783C39.3439 147.393 39.7381 147.857 40.2388 148.173C40.7395 148.489 41.3095 148.647 41.9487 148.647C42.5417 148.647 43.0584 148.526 43.4988 148.285C43.9426 148.043 44.2853 147.702 44.5268 147.262C44.7718 146.818 44.8944 146.296 44.8944 145.696L45.3205 145.776H42.199V144.418H46.487V145.659C46.487 146.575 46.2917 147.37 45.9011 148.045C45.514 148.716 44.9778 149.235 44.2924 149.6C43.6106 149.966 42.8294 150.149 41.9487 150.149C40.9615 150.149 40.095 149.922 39.3493 149.467C38.6071 149.013 38.0282 148.368 37.6127 147.534C37.1973 146.696 36.9895 145.701 36.9895 144.551C36.9895 143.681 37.1103 142.9 37.3517 142.207C37.5932 141.515 37.9324 140.927 38.3691 140.444C38.8095 139.957 39.3262 139.586 39.9192 139.331C40.5158 139.071 41.1674 138.942 41.8741 138.942C42.4636 138.942 43.0123 139.029 43.5201 139.203C44.0314 139.377 44.486 139.624 44.8837 139.943C45.285 140.263 45.617 140.643 45.8798 141.083C46.1426 141.52 46.3201 142.005 46.4125 142.537H44.7239ZM50.0413 139.091V150H48.4486V139.091H50.0413ZM55.6303 150.165C54.8633 150.165 54.1939 149.989 53.6222 149.638C53.0504 149.286 52.6065 148.794 52.2905 148.162C51.9744 147.53 51.8164 146.792 51.8164 145.946C51.8164 145.098 51.9744 144.355 52.2905 143.72C52.6065 143.084 53.0504 142.591 53.6222 142.239C54.1939 141.887 54.8633 141.712 55.6303 141.712C56.3974 141.712 57.0668 141.887 57.6385 142.239C58.2102 142.591 58.6541 143.084 58.9702 143.72C59.2862 144.355 59.4442 145.098 59.4442 145.946C59.4442 146.792 59.2862 147.53 58.9702 148.162C58.6541 148.794 58.2102 149.286 57.6385 149.638C57.0668 149.989 56.3974 150.165 55.6303 150.165ZM55.6357 148.828C56.1328 148.828 56.5447 148.697 56.8714 148.434C57.1982 148.171 57.4396 147.821 57.5959 147.385C57.7557 146.948 57.8356 146.467 57.8356 145.941C57.8356 145.419 57.7557 144.94 57.5959 144.503C57.4396 144.062 57.1982 143.709 56.8714 143.443C56.5447 143.176 56.1328 143.043 55.6357 143.043C55.1349 143.043 54.7195 143.176 54.3892 143.443C54.0625 143.709 53.8192 144.062 53.6594 144.503C53.5032 144.94 53.4251 145.419 53.4251 145.941C53.4251 146.467 53.5032 146.948 53.6594 147.385C53.8192 147.821 54.0625 148.171 54.3892 148.434C54.7195 148.697 55.1349 148.828 55.6357 148.828ZM61.3499 150V139.091H62.9426V143.145H63.0384C63.1308 142.974 63.2639 142.777 63.4379 142.553C63.6119 142.33 63.8534 142.134 64.1624 141.967C64.4713 141.797 64.8797 141.712 65.3875 141.712C66.048 141.712 66.6375 141.879 67.156 142.212C67.6744 142.546 68.0811 143.027 68.3758 143.656C68.6741 144.284 68.8232 145.041 68.8232 145.925C68.8232 146.809 68.6759 147.567 68.3811 148.2C68.0864 148.828 67.6816 149.313 67.1666 149.654C66.6517 149.991 66.064 150.16 65.4035 150.16C64.9063 150.16 64.4997 150.076 64.1837 149.909C63.8712 149.743 63.6262 149.547 63.4486 149.324C63.271 149.1 63.1343 148.901 63.0384 148.727H62.9053V150H61.3499ZM62.9106 145.909C62.9106 146.484 62.9941 146.989 63.161 147.422C63.3279 147.855 63.5693 148.194 63.8854 148.439C64.2014 148.681 64.5885 148.801 65.0466 148.801C65.5225 148.801 65.9202 148.675 66.2398 148.423C66.5594 148.168 66.8009 147.821 66.9642 147.385C67.1311 146.948 67.2146 146.456 67.2146 145.909C67.2146 145.369 67.1329 144.885 66.9695 144.455C66.8097 144.025 66.5683 143.686 66.2451 143.438C65.9255 143.189 65.526 143.065 65.0466 143.065C64.585 143.065 64.1943 143.184 63.8747 143.422C63.5587 143.659 63.319 143.991 63.1556 144.418C62.9923 144.844 62.9106 145.341 62.9106 145.909ZM72.9927 150.181C72.4743 150.181 72.0055 150.085 71.5865 149.893C71.1674 149.698 70.8354 149.416 70.5904 149.047C70.3489 148.677 70.2282 148.224 70.2282 147.688C70.2282 147.227 70.3169 146.847 70.4945 146.548C70.6721 146.25 70.9118 146.014 71.2136 145.84C71.5154 145.666 71.8528 145.534 72.2257 145.446C72.5985 145.357 72.9785 145.289 73.3656 145.243C73.8556 145.186 74.2534 145.14 74.5588 145.105C74.8642 145.066 75.0861 145.004 75.2246 144.918C75.3631 144.833 75.4324 144.695 75.4324 144.503V144.466C75.4324 144 75.301 143.64 75.0382 143.384C74.7789 143.129 74.3919 143.001 73.877 143.001C73.3407 143.001 72.9181 143.12 72.6092 143.358C72.3038 143.592 72.0925 143.853 71.9753 144.141L70.4785 143.8C70.6561 143.303 70.9153 142.901 71.2562 142.596C71.6007 142.287 71.9966 142.063 72.4441 141.925C72.8915 141.783 73.362 141.712 73.8556 141.712C74.1824 141.712 74.5286 141.751 74.8944 141.829C75.2637 141.903 75.6081 142.042 75.9277 142.244C76.2509 142.447 76.5154 142.736 76.7214 143.113C76.9274 143.485 77.0304 143.97 77.0304 144.567V150H75.475V148.881H75.411C75.3081 149.087 75.1536 149.29 74.9476 149.489C74.7417 149.687 74.4771 149.853 74.1539 149.984C73.8308 150.115 73.4437 150.181 72.9927 150.181ZM73.339 148.903C73.7793 148.903 74.1557 148.816 74.4682 148.642C74.7843 148.468 75.024 148.24 75.1873 147.96C75.3542 147.676 75.4377 147.372 75.4377 147.049V145.994C75.3809 146.051 75.2708 146.104 75.1074 146.154C74.9476 146.2 74.7647 146.241 74.5588 146.277C74.3528 146.309 74.1522 146.339 73.9569 146.367C73.7615 146.392 73.5982 146.413 73.4668 146.431C73.1578 146.47 72.8755 146.536 72.6199 146.628C72.3677 146.721 72.1653 146.854 72.0126 147.028C71.8635 147.198 71.7889 147.425 71.7889 147.71C71.7889 148.104 71.9345 148.402 72.2257 148.604C72.5169 148.803 72.888 148.903 73.339 148.903ZM80.7444 139.091V150H79.1517V139.091H80.7444ZM86.9846 139.091H88.9822L92.4552 147.571H92.583L96.056 139.091H98.0535V150H96.4875V142.106H96.3863L93.1689 149.984H91.8692L88.6519 142.1H88.5507V150H86.9846V139.091ZM102.7 150.181C102.181 150.181 101.713 150.085 101.294 149.893C100.874 149.698 100.542 149.416 100.297 149.047C100.056 148.677 99.9352 148.224 99.9352 147.688C99.9352 147.227 100.024 146.847 100.202 146.548C100.379 146.25 100.619 146.014 100.921 145.84C101.222 145.666 101.56 145.534 101.933 145.446C102.306 145.357 102.686 145.289 103.073 145.243C103.563 145.186 103.96 145.14 104.266 145.105C104.571 145.066 104.793 145.004 104.932 144.918C105.07 144.833 105.139 144.695 105.139 144.503V144.466C105.139 144 105.008 143.64 104.745 143.384C104.486 143.129 104.099 143.001 103.584 143.001C103.048 143.001 102.625 143.12 102.316 143.358C102.011 143.592 101.8 143.853 101.682 144.141L100.186 143.8C100.363 143.303 100.622 142.901 100.963 142.596C101.308 142.287 101.704 142.063 102.151 141.925C102.599 141.783 103.069 141.712 103.563 141.712C103.889 141.712 104.236 141.751 104.601 141.829C104.971 141.903 105.315 142.042 105.635 142.244C105.958 142.447 106.222 142.736 106.428 143.113C106.634 143.485 106.737 143.97 106.737 144.567V150H105.182V148.881H105.118C105.015 149.087 104.861 149.29 104.655 149.489C104.449 149.687 104.184 149.853 103.861 149.984C103.538 150.115 103.151 150.181 102.7 150.181ZM103.046 148.903C103.486 148.903 103.863 148.816 104.175 148.642C104.491 148.468 104.731 148.24 104.894 147.96C105.061 147.676 105.145 147.372 105.145 147.049V145.994C105.088 146.051 104.978 146.104 104.814 146.154C104.655 146.2 104.472 146.241 104.266 146.277C104.06 146.309 103.859 146.339 103.664 146.367C103.469 146.392 103.305 146.413 103.174 146.431C102.865 146.47 102.583 146.536 102.327 146.628C102.075 146.721 101.872 146.854 101.72 147.028C101.57 147.198 101.496 147.425 101.496 147.71C101.496 148.104 101.642 148.402 101.933 148.604C102.224 148.803 102.595 148.903 103.046 148.903ZM110.451 145.142V150H108.859V141.818H110.388V143.15H110.489C110.677 142.717 110.972 142.369 111.373 142.106C111.778 141.843 112.287 141.712 112.902 141.712C113.459 141.712 113.948 141.829 114.367 142.063C114.786 142.294 115.111 142.638 115.341 143.097C115.572 143.555 115.688 144.121 115.688 144.796V150H114.095V144.988C114.095 144.395 113.94 143.931 113.631 143.597C113.323 143.26 112.898 143.091 112.358 143.091C111.989 143.091 111.661 143.171 111.373 143.331C111.089 143.491 110.863 143.725 110.696 144.034C110.533 144.339 110.451 144.709 110.451 145.142ZM120.205 150.181C119.686 150.181 119.217 150.085 118.798 149.893C118.379 149.698 118.047 149.416 117.802 149.047C117.561 148.677 117.44 148.224 117.44 147.688C117.44 147.227 117.529 146.847 117.706 146.548C117.884 146.25 118.124 146.014 118.426 145.84C118.727 145.666 119.065 145.534 119.438 145.446C119.81 145.357 120.19 145.289 120.578 145.243C121.068 145.186 121.465 145.14 121.771 145.105C122.076 145.066 122.298 145.004 122.437 144.918C122.575 144.833 122.644 144.695 122.644 144.503V144.466C122.644 144 122.513 143.64 122.25 143.384C121.991 143.129 121.604 143.001 121.089 143.001C120.553 143.001 120.13 143.12 119.821 143.358C119.516 143.592 119.304 143.853 119.187 144.141L117.69 143.8C117.868 143.303 118.127 142.901 118.468 142.596C118.813 142.287 119.209 142.063 119.656 141.925C120.103 141.783 120.574 141.712 121.068 141.712C121.394 141.712 121.741 141.751 122.106 141.829C122.476 141.903 122.82 142.042 123.14 142.244C123.463 142.447 123.727 142.736 123.933 143.113C124.139 143.485 124.242 143.97 124.242 144.567V150H122.687V148.881H122.623C122.52 149.087 122.366 149.29 122.16 149.489C121.954 149.687 121.689 149.853 121.366 149.984C121.043 150.115 120.656 150.181 120.205 150.181ZM120.551 148.903C120.991 148.903 121.368 148.816 121.68 148.642C121.996 148.468 122.236 148.24 122.399 147.96C122.566 147.676 122.65 147.372 122.65 147.049V145.994C122.593 146.051 122.483 146.104 122.319 146.154C122.16 146.2 121.977 146.241 121.771 146.277C121.565 146.309 121.364 146.339 121.169 146.367C120.973 146.392 120.81 146.413 120.679 146.431C120.37 146.47 120.087 146.536 119.832 146.628C119.58 146.721 119.377 146.854 119.225 147.028C119.075 147.198 119.001 147.425 119.001 147.71C119.001 148.104 119.146 148.402 119.438 148.604C119.729 148.803 120.1 148.903 120.551 148.903ZM129.794 153.239C129.144 153.239 128.585 153.153 128.116 152.983C127.651 152.813 127.271 152.587 126.976 152.306C126.681 152.026 126.461 151.719 126.316 151.385L127.685 150.82C127.781 150.977 127.908 151.142 128.068 151.316C128.232 151.493 128.452 151.644 128.729 151.768C129.009 151.893 129.37 151.955 129.81 151.955C130.414 151.955 130.913 151.808 131.307 151.513C131.701 151.222 131.898 150.756 131.898 150.117V148.509H131.797C131.701 148.683 131.563 148.876 131.381 149.089C131.204 149.302 130.959 149.487 130.646 149.643C130.334 149.799 129.927 149.877 129.426 149.877C128.78 149.877 128.198 149.727 127.679 149.425C127.164 149.119 126.756 148.67 126.454 148.077C126.156 147.48 126.007 146.747 126.007 145.877C126.007 145.007 126.154 144.261 126.449 143.64C126.747 143.018 127.156 142.543 127.674 142.212C128.192 141.879 128.78 141.712 129.437 141.712C129.945 141.712 130.355 141.797 130.668 141.967C130.98 142.134 131.223 142.33 131.397 142.553C131.575 142.777 131.712 142.974 131.808 143.145H131.925V141.818H133.485V150.181C133.485 150.884 133.322 151.461 132.995 151.912C132.669 152.363 132.227 152.697 131.669 152.914C131.115 153.13 130.49 153.239 129.794 153.239ZM129.778 148.556C130.236 148.556 130.623 148.45 130.939 148.237C131.259 148.02 131.5 147.711 131.664 147.31C131.831 146.905 131.914 146.42 131.914 145.856C131.914 145.305 131.832 144.821 131.669 144.402C131.506 143.983 131.266 143.656 130.95 143.422C130.634 143.184 130.243 143.065 129.778 143.065C129.299 143.065 128.899 143.189 128.58 143.438C128.26 143.683 128.018 144.016 127.855 144.439C127.695 144.862 127.615 145.334 127.615 145.856C127.615 146.392 127.697 146.863 127.86 147.267C128.024 147.672 128.265 147.988 128.585 148.216C128.908 148.443 129.306 148.556 129.778 148.556ZM139.148 150.165C138.342 150.165 137.647 149.993 137.065 149.648C136.486 149.3 136.039 148.812 135.723 148.184C135.41 147.551 135.254 146.811 135.254 145.962C135.254 145.124 135.41 144.386 135.723 143.746C136.039 143.107 136.479 142.608 137.044 142.25C137.612 141.891 138.276 141.712 139.036 141.712C139.498 141.712 139.945 141.788 140.378 141.941C140.811 142.093 141.2 142.333 141.545 142.66C141.889 142.987 142.161 143.411 142.36 143.933C142.559 144.451 142.658 145.082 142.658 145.824V146.388H136.154V145.195H141.097C141.097 144.776 141.012 144.405 140.842 144.082C140.671 143.755 140.431 143.498 140.123 143.31C139.817 143.121 139.458 143.027 139.047 143.027C138.599 143.027 138.208 143.137 137.875 143.358C137.544 143.574 137.289 143.858 137.108 144.21C136.93 144.558 136.841 144.936 136.841 145.344V146.277C136.841 146.824 136.937 147.289 137.129 147.672C137.324 148.056 137.596 148.349 137.944 148.551C138.292 148.75 138.699 148.849 139.164 148.849C139.466 148.849 139.741 148.807 139.989 148.722C140.238 148.633 140.453 148.501 140.634 148.327C140.815 148.153 140.953 147.939 141.049 147.683L142.557 147.955C142.436 148.398 142.219 148.787 141.907 149.121C141.598 149.451 141.209 149.709 140.74 149.893C140.275 150.075 139.744 150.165 139.148 150.165ZM144.425 150V141.818H145.954V143.15H146.055C146.226 142.699 146.504 142.347 146.891 142.095C147.278 141.839 147.742 141.712 148.282 141.712C148.829 141.712 149.287 141.839 149.656 142.095C150.029 142.351 150.304 142.702 150.482 143.15H150.567C150.762 142.713 151.073 142.365 151.499 142.106C151.925 141.843 152.433 141.712 153.022 141.712C153.765 141.712 154.37 141.944 154.839 142.409C155.311 142.875 155.547 143.576 155.547 144.513V150H153.955V144.663C153.955 144.109 153.804 143.707 153.502 143.459C153.2 143.21 152.84 143.086 152.421 143.086C151.902 143.086 151.499 143.246 151.211 143.565C150.924 143.881 150.78 144.288 150.78 144.785V150H149.193V144.561C149.193 144.118 149.054 143.761 148.777 143.491C148.5 143.221 148.14 143.086 147.696 143.086C147.394 143.086 147.115 143.166 146.859 143.326C146.607 143.482 146.403 143.7 146.247 143.981C146.094 144.261 146.018 144.586 146.018 144.956V150H144.425ZM161.208 150.165C160.402 150.165 159.708 149.993 159.126 149.648C158.547 149.3 158.099 148.812 157.783 148.184C157.471 147.551 157.314 146.811 157.314 145.962C157.314 145.124 157.471 144.386 157.783 143.746C158.099 143.107 158.54 142.608 159.104 142.25C159.672 141.891 160.336 141.712 161.096 141.712C161.558 141.712 162.006 141.788 162.439 141.941C162.872 142.093 163.261 142.333 163.605 142.66C163.95 142.987 164.221 143.411 164.42 143.933C164.619 144.451 164.719 145.082 164.719 145.824V146.388H158.215V145.195H163.158C163.158 144.776 163.073 144.405 162.902 144.082C162.732 143.755 162.492 143.498 162.183 143.31C161.878 143.121 161.519 143.027 161.107 143.027C160.66 143.027 160.269 143.137 159.935 143.358C159.605 143.574 159.349 143.858 159.168 144.21C158.991 144.558 158.902 144.936 158.902 145.344V146.277C158.902 146.824 158.998 147.289 159.189 147.672C159.385 148.056 159.656 148.349 160.004 148.551C160.352 148.75 160.759 148.849 161.224 148.849C161.526 148.849 161.801 148.807 162.05 148.722C162.298 148.633 162.513 148.501 162.694 148.327C162.876 148.153 163.014 147.939 163.11 147.683L164.617 147.955C164.497 148.398 164.28 148.787 163.968 149.121C163.659 149.451 163.27 149.709 162.801 149.893C162.336 150.075 161.805 150.165 161.208 150.165ZM168.078 145.142V150H166.486V141.818H168.014V143.15H168.116C168.304 142.717 168.599 142.369 169 142.106C169.405 141.843 169.914 141.712 170.529 141.712C171.086 141.712 171.574 141.829 171.994 142.063C172.413 142.294 172.737 142.638 172.968 143.097C173.199 143.555 173.315 144.121 173.315 144.796V150H171.722V144.988C171.722 144.395 171.567 143.931 171.258 143.597C170.949 143.26 170.525 143.091 169.985 143.091C169.616 143.091 169.288 143.171 169 143.331C168.716 143.491 168.49 143.725 168.323 144.034C168.16 144.339 168.078 144.709 168.078 145.142ZM179.27 141.818V143.097H174.801V141.818H179.27ZM175.999 139.858H177.592V147.598C177.592 147.907 177.638 148.139 177.73 148.295C177.823 148.448 177.942 148.553 178.087 148.61C178.236 148.663 178.398 148.69 178.572 148.69C178.7 148.69 178.812 148.681 178.908 148.663C179.003 148.645 179.078 148.631 179.131 148.62L179.419 149.936C179.327 149.972 179.195 150.007 179.025 150.043C178.854 150.082 178.641 150.103 178.386 150.107C177.967 150.114 177.576 150.039 177.214 149.883C176.851 149.727 176.559 149.485 176.335 149.158C176.111 148.832 175.999 148.422 175.999 147.928V139.858ZM80.3662 159.957C80.3094 159.452 80.075 159.062 79.6631 158.785C79.2512 158.504 78.7327 158.364 78.1077 158.364C77.6602 158.364 77.2732 158.435 76.9465 158.577C76.6198 158.716 76.3659 158.907 76.1847 159.152C76.0072 159.394 75.9184 159.669 75.9184 159.978C75.9184 160.237 75.9788 160.461 76.0995 160.649C76.2238 160.837 76.3854 160.995 76.5843 161.123C76.7867 161.248 77.0033 161.352 77.2341 161.438C77.4649 161.519 77.6869 161.587 77.8999 161.64L78.9653 161.917C79.3133 162.002 79.6702 162.118 80.036 162.263C80.4017 162.409 80.7409 162.6 81.0534 162.838C81.3659 163.076 81.618 163.371 81.8097 163.723C82.0051 164.074 82.1027 164.495 82.1027 164.985C82.1027 165.603 81.9429 166.152 81.6233 166.631C81.3073 167.11 80.8474 167.489 80.2437 167.766C79.6436 168.043 78.9173 168.181 78.0651 168.181C77.2483 168.181 76.5416 168.051 75.945 167.792C75.3485 167.533 74.8815 167.165 74.5441 166.69C74.2068 166.21 74.0203 165.642 73.9848 164.985H75.6361C75.6681 165.379 75.7959 165.708 76.0196 165.971C76.2469 166.23 76.5363 166.423 76.8879 166.551C77.243 166.675 77.6318 166.738 78.0544 166.738C78.5196 166.738 78.9333 166.665 79.2955 166.519C79.6613 166.37 79.949 166.164 80.1585 165.901C80.368 165.635 80.4727 165.324 80.4727 164.969C80.4727 164.646 80.3804 164.381 80.1958 164.175C80.0146 163.969 79.7678 163.799 79.4553 163.664C79.1464 163.529 78.7966 163.41 78.406 163.307L77.1169 162.956C76.2433 162.718 75.5509 162.368 75.0395 161.906C74.5317 161.445 74.2778 160.834 74.2778 160.074C74.2778 159.445 74.4482 158.897 74.7892 158.428C75.1301 157.959 75.5917 157.595 76.1741 157.336C76.7565 157.073 77.4134 156.942 78.145 156.942C78.8836 156.942 79.5352 157.071 80.0999 157.331C80.6681 157.59 81.1155 157.947 81.4422 158.401C81.7689 158.852 81.9394 159.371 81.9536 159.957H80.3662ZM87.761 159.818V161.097H83.2919V159.818H87.761ZM84.4904 157.858H86.0831V165.598C86.0831 165.907 86.1293 166.139 86.2216 166.295C86.3139 166.448 86.4329 166.553 86.5785 166.61C86.7276 166.663 86.8892 166.69 87.0632 166.69C87.1911 166.69 87.3029 166.681 87.3988 166.663C87.4947 166.645 87.5692 166.631 87.6225 166.62L87.9102 167.936C87.8178 167.972 87.6864 168.007 87.516 168.043C87.3455 168.082 87.1325 168.103 86.8768 168.107C86.4577 168.114 86.0671 168.039 85.7049 167.883C85.3427 167.727 85.0497 167.485 84.826 167.158C84.6023 166.832 84.4904 166.422 84.4904 165.928V157.858ZM91.9039 168.181C91.3854 168.181 90.9166 168.085 90.4976 167.893C90.0786 167.698 89.7465 167.416 89.5015 167.047C89.26 166.677 89.1393 166.224 89.1393 165.688C89.1393 165.227 89.2281 164.847 89.4056 164.548C89.5832 164.25 89.8229 164.014 90.1247 163.84C90.4266 163.666 90.7639 163.534 91.1368 163.446C91.5097 163.357 91.8896 163.289 92.2767 163.243C92.7668 163.186 93.1645 163.14 93.4699 163.105C93.7753 163.066 93.9972 163.004 94.1357 162.918C94.2742 162.833 94.3435 162.695 94.3435 162.503V162.466C94.3435 162 94.2121 161.64 93.9493 161.384C93.6901 161.129 93.303 161.001 92.7881 161.001C92.2519 161.001 91.8293 161.12 91.5203 161.358C91.2149 161.592 91.0036 161.853 90.8865 162.141L89.3896 161.8C89.5672 161.303 89.8264 160.901 90.1673 160.596C90.5118 160.287 90.9078 160.063 91.3552 159.925C91.8026 159.783 92.2732 159.712 92.7668 159.712C93.0935 159.712 93.4397 159.751 93.8055 159.829C94.1748 159.903 94.5193 160.042 94.8389 160.244C95.162 160.447 95.4266 160.736 95.6325 161.113C95.8385 161.485 95.9415 161.97 95.9415 162.567V168H94.3861V166.881H94.3222C94.2192 167.087 94.0647 167.29 93.8588 167.489C93.6528 167.687 93.3882 167.853 93.0651 167.984C92.7419 168.115 92.3548 168.181 91.9039 168.181ZM92.2501 166.903C92.6904 166.903 93.0669 166.816 93.3794 166.642C93.6954 166.468 93.9351 166.24 94.0985 165.96C94.2654 165.676 94.3488 165.372 94.3488 165.049V163.994C94.292 164.051 94.1819 164.104 94.0186 164.154C93.8588 164.2 93.6759 164.241 93.4699 164.277C93.2639 164.309 93.0633 164.339 92.868 164.367C92.6727 164.392 92.5093 164.413 92.3779 164.431C92.069 164.47 91.7867 164.536 91.531 164.628C91.2789 164.721 91.0764 164.854 90.9237 165.028C90.7746 165.198 90.7 165.425 90.7 165.71C90.7 166.104 90.8456 166.402 91.1368 166.604C91.428 166.803 91.7991 166.903 92.2501 166.903ZM99.6555 163.142V168H98.0629V159.818H99.5916V161.15H99.6928C99.881 160.717 100.176 160.369 100.577 160.106C100.982 159.843 101.491 159.712 102.106 159.712C102.663 159.712 103.152 159.829 103.571 160.063C103.99 160.294 104.315 160.638 104.545 161.097C104.776 161.555 104.892 162.121 104.892 162.796V168H103.299V162.988C103.299 162.395 103.145 161.931 102.836 161.597C102.527 161.26 102.102 161.091 101.562 161.091C101.193 161.091 100.865 161.171 100.577 161.331C100.293 161.491 100.067 161.725 99.9006 162.034C99.7372 162.339 99.6555 162.709 99.6555 163.142ZM110.091 168.16C109.43 168.16 108.841 167.991 108.322 167.654C107.807 167.313 107.402 166.828 107.108 166.2C106.816 165.567 106.671 164.809 106.671 163.925C106.671 163.041 106.818 162.284 107.113 161.656C107.411 161.027 107.82 160.546 108.338 160.212C108.857 159.879 109.444 159.712 110.101 159.712C110.609 159.712 111.017 159.797 111.326 159.967C111.639 160.134 111.88 160.33 112.051 160.553C112.225 160.777 112.36 160.974 112.456 161.145H112.551V157.091H114.144V168H112.589V166.727H112.456C112.36 166.901 112.221 167.1 112.04 167.324C111.863 167.547 111.618 167.743 111.305 167.909C110.993 168.076 110.588 168.16 110.091 168.16ZM110.442 166.801C110.9 166.801 111.287 166.681 111.603 166.439C111.923 166.194 112.164 165.855 112.328 165.422C112.495 164.989 112.578 164.484 112.578 163.909C112.578 163.341 112.496 162.844 112.333 162.418C112.17 161.991 111.93 161.659 111.614 161.422C111.298 161.184 110.907 161.065 110.442 161.065C109.963 161.065 109.563 161.189 109.244 161.438C108.924 161.686 108.683 162.025 108.519 162.455C108.359 162.885 108.279 163.369 108.279 163.909C108.279 164.456 108.361 164.948 108.525 165.385C108.688 165.821 108.929 166.168 109.249 166.423C109.572 166.675 109.97 166.801 110.442 166.801ZM118.798 168.181C118.28 168.181 117.811 168.085 117.392 167.893C116.973 167.698 116.641 167.416 116.396 167.047C116.155 166.677 116.034 166.224 116.034 165.688C116.034 165.227 116.123 164.847 116.3 164.548C116.478 164.25 116.717 164.014 117.019 163.84C117.321 163.666 117.658 163.534 118.031 163.446C118.404 163.357 118.784 163.289 119.171 163.243C119.661 163.186 120.059 163.14 120.364 163.105C120.67 163.066 120.892 163.004 121.03 162.918C121.169 162.833 121.238 162.695 121.238 162.503V162.466C121.238 162 121.107 161.64 120.844 161.384C120.585 161.129 120.198 161.001 119.683 161.001C119.146 161.001 118.724 161.12 118.415 161.358C118.109 161.592 117.898 161.853 117.781 162.141L116.284 161.8C116.462 161.303 116.721 160.901 117.062 160.596C117.406 160.287 117.802 160.063 118.25 159.925C118.697 159.783 119.168 159.712 119.661 159.712C119.988 159.712 120.334 159.751 120.7 159.829C121.069 159.903 121.414 160.042 121.733 160.244C122.057 160.447 122.321 160.736 122.527 161.113C122.733 161.485 122.836 161.97 122.836 162.567V168H121.281V166.881H121.217C121.114 167.087 120.959 167.29 120.753 167.489C120.547 167.687 120.283 167.853 119.96 167.984C119.636 168.115 119.249 168.181 118.798 168.181ZM119.145 166.903C119.585 166.903 119.961 166.816 120.274 166.642C120.59 166.468 120.83 166.24 120.993 165.96C121.16 165.676 121.243 165.372 121.243 165.049V163.994C121.187 164.051 121.076 164.104 120.913 164.154C120.753 164.2 120.57 164.241 120.364 164.277C120.158 164.309 119.958 164.339 119.763 164.367C119.567 164.392 119.404 164.413 119.272 164.431C118.964 164.47 118.681 164.536 118.426 164.628C118.173 164.721 117.971 164.854 117.818 165.028C117.669 165.198 117.595 165.425 117.595 165.71C117.595 166.104 117.74 166.402 118.031 166.604C118.323 166.803 118.694 166.903 119.145 166.903ZM124.957 168V159.818H126.497V161.118H126.582C126.731 160.678 126.994 160.331 127.37 160.079C127.75 159.824 128.18 159.696 128.659 159.696C128.759 159.696 128.876 159.699 129.011 159.706C129.15 159.713 129.258 159.722 129.336 159.733V161.256C129.272 161.239 129.158 161.219 128.995 161.198C128.832 161.173 128.668 161.161 128.505 161.161C128.129 161.161 127.793 161.24 127.498 161.4C127.207 161.556 126.976 161.775 126.806 162.055C126.635 162.332 126.55 162.648 126.55 163.004V168H124.957ZM133.484 168.16C132.824 168.16 132.234 167.991 131.716 167.654C131.201 167.313 130.796 166.828 130.501 166.2C130.21 165.567 130.064 164.809 130.064 163.925C130.064 163.041 130.212 162.284 130.506 161.656C130.805 161.027 131.213 160.546 131.732 160.212C132.25 159.879 132.838 159.712 133.495 159.712C134.003 159.712 134.411 159.797 134.72 159.967C135.032 160.134 135.274 160.33 135.444 160.553C135.618 160.777 135.753 160.974 135.849 161.145H135.945V157.091H137.538V168H135.982V166.727H135.849C135.753 166.901 135.615 167.1 135.434 167.324C135.256 167.547 135.011 167.743 134.699 167.909C134.386 168.076 133.981 168.16 133.484 168.16ZM133.836 166.801C134.294 166.801 134.681 166.681 134.997 166.439C135.316 166.194 135.558 165.855 135.721 165.422C135.888 164.989 135.972 164.484 135.972 163.909C135.972 163.341 135.89 162.844 135.727 162.418C135.563 161.991 135.324 161.659 135.008 161.422C134.691 161.184 134.301 161.065 133.836 161.065C133.356 161.065 132.957 161.189 132.637 161.438C132.318 161.686 132.076 162.025 131.913 162.455C131.753 162.885 131.673 163.369 131.673 163.909C131.673 164.456 131.755 164.948 131.918 165.385C132.081 165.821 132.323 166.168 132.642 166.423C132.966 166.675 133.363 166.801 133.836 166.801ZM145.942 161.816L144.498 162.071C144.438 161.887 144.342 161.711 144.211 161.544C144.083 161.377 143.909 161.24 143.689 161.134C143.469 161.027 143.193 160.974 142.863 160.974C142.412 160.974 142.036 161.075 141.734 161.278C141.432 161.477 141.281 161.734 141.281 162.05C141.281 162.324 141.382 162.544 141.585 162.711C141.787 162.877 142.114 163.014 142.565 163.121L143.865 163.419C144.617 163.593 145.178 163.861 145.548 164.223C145.917 164.586 146.102 165.056 146.102 165.635C146.102 166.125 145.96 166.562 145.676 166.945C145.395 167.325 145.003 167.624 144.498 167.84C143.998 168.057 143.417 168.165 142.757 168.165C141.84 168.165 141.093 167.97 140.514 167.579C139.935 167.185 139.58 166.626 139.449 165.901L140.988 165.667C141.084 166.068 141.281 166.372 141.579 166.578C141.878 166.78 142.267 166.881 142.746 166.881C143.268 166.881 143.685 166.773 143.998 166.556C144.31 166.336 144.466 166.068 144.466 165.752C144.466 165.496 144.371 165.282 144.179 165.108C143.991 164.934 143.701 164.802 143.311 164.713L141.926 164.41C141.162 164.236 140.597 163.959 140.232 163.579C139.869 163.199 139.688 162.718 139.688 162.135C139.688 161.652 139.823 161.23 140.093 160.868C140.363 160.505 140.736 160.223 141.212 160.021C141.688 159.815 142.233 159.712 142.847 159.712C143.731 159.712 144.427 159.903 144.935 160.287C145.443 160.667 145.779 161.176 145.942 161.816Z" fill="black"/>
<path fill-rule="evenodd" clip-rule="evenodd" d="M84.2589 62.259L84 62.5178V87.3681V112.218L84.2589 112.477L84.5177 112.736H97.1704H109.823L109.858 114.117C109.892 115.48 109.896 115.501 110.189 115.752C110.552 116.064 110.884 116.075 111.249 115.787L111.527 115.569L111.528 109.432C111.529 105.655 111.572 103.033 111.64 102.613C111.969 100.583 113.658 99.3258 117.17 98.4956C121.463 97.4807 125.955 97.4513 130.405 98.4088C133.38 99.0491 135.218 100.12 135.97 101.651L136.26 102.241L136.312 108.922L136.365 115.603L136.614 115.805C136.961 116.085 137.427 116.061 137.741 115.747L138 115.488V109.116C138 105.248 137.958 102.521 137.893 102.176C137.746 101.396 137.17 100.233 136.632 99.6274C135.793 98.6831 134.385 97.8285 132.794 97.297C131.36 96.8178 127.353 96.095 125.977 96.0673C125.89 96.0656 126.151 95.8883 126.557 95.6734C128.406 94.6948 129.93 92.4871 130.486 89.984C130.737 88.854 130.733 86.4713 130.479 85.5222C129.839 83.1336 128.274 81.5307 125.977 80.9105C125.482 80.7771 124.908 80.7268 123.92 80.7302C122.393 80.7354 121.613 80.8958 120.58 81.4175L119.965 81.7279V72.1229V62.5178L119.706 62.259L119.447 62H101.982H84.5177L84.2589 62.259ZM118.277 73.5532V83.4186L117.954 84.0597C117.409 85.1392 117.203 86.1283 117.199 87.6845C117.194 89.2813 117.378 90.3012 117.916 91.6531L118.277 92.5628V94.5308C118.277 96.014 118.245 96.5084 118.146 96.5378C118.073 96.5593 117.444 96.7046 116.748 96.8607C113.107 97.6776 110.852 99.3045 110.095 101.661C109.932 102.167 109.903 102.802 109.865 106.645L109.822 111.049H97.7547H85.6875V87.3681V63.6877H101.982H118.277V73.5532ZM89.1105 67.1111L88.8516 67.3699V71.9045V76.439L89.1061 76.735L89.3607 77.031H94.2832H99.2057L99.4603 76.735C99.7134 76.4408 99.7148 76.425 99.7148 74.0231V71.6072L100.264 71.1019C101.161 70.2769 101.297 70.1056 101.297 69.8044C101.297 69.3563 100.926 68.9617 100.505 68.9617C100.108 68.9617 100.069 68.9917 97.6249 71.2107L96.115 72.5813L95.3861 71.858C94.7523 71.2289 94.6071 71.1346 94.2721 71.1346C93.7916 71.1346 93.4922 71.4652 93.4922 71.9956C93.4922 72.3288 93.6098 72.4866 94.5837 73.4606C95.5747 74.4518 95.711 74.5522 96.0648 74.5522C96.3812 74.5522 96.5574 74.4587 97.0036 74.0548C97.3056 73.7811 97.6595 73.4644 97.79 73.3508L98.0273 73.1441V74.2701V75.396H94.2832H90.5391V71.9679V68.5398H94.868H99.1971L99.4559 68.2808C99.6192 68.1177 99.7148 67.9014 99.7148 67.696C99.7148 67.4905 99.6192 67.2742 99.4559 67.1111L99.1971 66.8521H94.2832H89.3693L89.1105 67.1111ZM103.454 67.1111C103.291 67.2742 103.195 67.4905 103.195 67.696C103.195 67.9014 103.291 68.1177 103.454 68.2808L103.713 68.5398H109.154H114.596L114.854 68.2808C115.018 68.1177 115.113 67.9014 115.113 67.696C115.113 67.4905 115.018 67.2742 114.854 67.1111L114.596 66.8521H109.154H103.713L103.454 67.1111ZM103.67 71.1932C103.153 71.4761 103.046 72.0132 103.414 72.4811L103.632 72.759H109.144H114.655L114.884 72.5149C115.11 72.2743 115.176 71.885 115.048 71.5507C114.87 71.0871 114.672 71.0711 109.133 71.0745C105.536 71.0767 103.814 71.1141 103.67 71.1932ZM89.3118 82.3757C89.1879 82.4356 89.0337 82.6008 88.9691 82.7427C88.8055 83.1018 88.8051 91.6335 88.9686 91.9927C89.0331 92.134 89.2014 92.3024 89.3427 92.3668C89.7127 92.5354 98.9036 92.5302 99.2208 92.3612C99.693 92.1097 99.7081 92.0207 99.7099 89.4777L99.7117 87.0517L100.504 86.308C101.175 85.6785 101.297 85.5118 101.297 85.2221C101.297 84.7733 100.895 84.3619 100.456 84.3619C100.189 84.3619 99.8576 84.6126 98.5372 85.8123C97.659 86.61 96.7558 87.4225 96.5298 87.6179L96.1189 87.9732L95.3959 87.2751C94.7774 86.678 94.618 86.577 94.2934 86.577C93.7916 86.577 93.4922 86.8779 93.4922 87.3823C93.4922 87.7237 93.5991 87.8749 94.4678 88.7627C95.0044 89.3111 95.5363 89.81 95.6499 89.8715C96.1002 90.1153 96.4346 89.9879 97.2431 89.2641L98.0273 88.5621V89.6792V90.7962H94.2832H90.5391V87.3681V83.94H94.868H99.1971L99.4559 83.681C99.8774 83.2596 99.7708 82.668 99.2208 82.375C98.9172 82.2133 89.6458 82.2139 89.3118 82.3757ZM103.67 82.3725C103.131 82.6713 103.034 83.2607 103.454 83.681L103.713 83.94H109.184H114.655L114.884 83.6959C115.169 83.3923 115.181 82.8872 114.912 82.5541L114.71 82.305L109.296 82.2803C105.486 82.2629 103.818 82.2903 103.67 82.3725ZM125.924 82.6681C128.099 83.4295 129.173 85.3658 128.999 88.2119C128.912 89.6256 128.701 90.4483 128.128 91.6102C127.338 93.2092 126.24 94.1844 124.818 94.5488C122.406 95.1667 119.959 93.173 119.113 89.8996C118.848 88.8789 118.795 86.9276 119.008 86.0496C119.344 84.6574 120.287 83.4072 121.385 82.8956C122.63 82.316 124.631 82.2157 125.924 82.6681ZM103.425 86.8211C103.108 87.1578 103.126 87.6358 103.467 87.9563L103.739 88.2119L108.767 88.2443C111.532 88.262 113.998 88.2472 114.245 88.2111C114.502 88.1739 114.786 88.049 114.905 87.9216C115.191 87.6139 115.175 87.0933 114.869 86.8063L114.625 86.577H109.14H103.654L103.425 86.8211ZM120.451 95.1346C120.677 95.3163 121.136 95.596 121.471 95.7563L122.08 96.0478L121.207 96.1193C120.727 96.1586 120.251 96.2143 120.149 96.2431C119.986 96.2894 119.965 96.2095 119.965 95.5499C119.965 95.1399 119.982 94.8045 120.003 94.8045C120.024 94.8045 120.226 94.9531 120.451 95.1346ZM89.5129 97.7246C89.3834 97.7507 89.1818 97.8939 89.0646 98.0429C88.8584 98.3052 88.8516 98.4586 88.8516 102.84V107.366L89.1105 107.625L89.3693 107.884H94.2832H99.1971L99.4559 107.625L99.7148 107.366V104.898V102.43L100.453 101.774C101.205 101.105 101.371 100.81 101.254 100.344C101.173 100.02 100.629 99.7215 100.28 99.809C100.14 99.8443 99.2312 100.596 98.2614 101.479C97.2916 102.362 96.415 103.15 96.3136 103.229C96.1488 103.359 96.0497 103.299 95.3887 102.676C94.7837 102.105 94.5847 101.977 94.2997 101.977C93.8438 101.977 93.4922 102.343 93.4922 102.817C93.4922 103.12 93.6376 103.316 94.562 104.255C96.0317 105.749 96.1273 105.758 97.4209 104.527L98.0273 103.949V105.073V106.196H94.2832H90.5391V102.768V99.3402H94.9083H99.2777L99.4962 99.0622C99.7837 98.6967 99.7725 98.3641 99.4603 98.0012L99.206 97.7052L94.4769 97.6912C91.8761 97.6835 89.6422 97.6985 89.5129 97.7246ZM103.881 97.7242C103.227 97.8942 102.978 98.6768 103.439 99.1108C103.675 99.3322 103.765 99.3402 106.058 99.3402C108.403 99.3402 108.435 99.3372 108.661 99.0961C108.977 98.7595 108.959 98.2814 108.619 97.9609C108.351 97.7091 108.314 97.7049 106.219 97.6873C105.049 97.6774 103.997 97.694 103.881 97.7242ZM103.454 102.236C103.038 102.652 103.118 103.249 103.625 103.511C104.048 103.73 106.772 103.73 107.196 103.511C107.696 103.252 107.79 102.591 107.381 102.206C107.151 101.99 107.037 101.977 105.425 101.977C103.748 101.977 103.708 101.982 103.454 102.236ZM116.381 105.172C115.853 105.439 115.849 105.478 115.878 110.662L115.904 115.497L116.2 115.752C116.563 116.064 116.896 116.075 117.261 115.787L117.539 115.569V110.628C117.539 107.91 117.51 105.609 117.474 105.516C117.412 105.355 116.911 105.034 116.727 105.038C116.681 105.039 116.525 105.099 116.381 105.172ZM130.861 105.144C130.289 105.372 130.292 105.336 130.324 110.675L130.354 115.603L130.603 115.805C130.949 116.085 131.415 116.061 131.729 115.747L131.988 115.488V110.544V105.6L131.751 105.383C131.449 105.106 131.153 105.027 130.861 105.144Z" fill="#3B78D3"/>
<defs>
<filter id="filter0_d_2506_9" x="0.757812" y="0" width="222.484" height="217.106" filterUnits="userSpaceOnUse" color-interpolation-filters="sRGB">
<feFlood flood-opacity="0" result="BackgroundImageFix"/>
<feColorMatrix in="SourceAlpha" type="matrix" values="0 0 0 0 0 0 0 0 0 0 0 0 0 0 0 0 0 0 127 0" result="hardAlpha"/>
<feOffset/>
<feGaussianBlur stdDeviation="2"/>
<feComposite in2="hardAlpha" operator="out"/>
<feColorMatrix type="matrix" values="0 0 0 0 0 0 0 0 0 0 0 0 0 0 0 0 0 0 0.25 0"/>
<feBlend mode="normal" in2="BackgroundImageFix" result="effect1_dropShadow_2506_9"/>
<feBlend mode="normal" in="SourceGraphic" in2="effect1_dropShadow_2506_9" result="shape"/>
</filter>
</defs>
</svg>
