<svg width="224" height="224" viewBox="0 0 224 224" fill="none" xmlns="http://www.w3.org/2000/svg">
<g filter="url(#filter0_d_2506_6)">
<path d="M112 4L198.001 45.4161L219.242 138.477L159.727 213.107H64.2728L4.75793 138.477L25.9985 45.4161L112 4Z" fill="white"/>
</g>
<path d="M59.3528 150V139.091H66.1177V140.508H60.9988V143.832H65.633V145.243H60.9988V150H59.3528ZM72.6842 146.607V141.818H74.2822V150H72.7162V148.583H72.6309C72.4427 149.02 72.1409 149.384 71.7254 149.675C71.3135 149.963 70.8003 150.107 70.186 150.107C69.6604 150.107 69.1952 149.991 68.7904 149.76C68.3891 149.526 68.0731 149.18 67.8422 148.722C67.615 148.263 67.5013 147.697 67.5013 147.022V141.818H69.094V146.831C69.094 147.388 69.2485 147.832 69.5574 148.162C69.8664 148.493 70.2677 148.658 70.7613 148.658C71.0596 148.658 71.3561 148.583 71.6508 148.434C71.9491 148.285 72.1959 148.059 72.3912 147.757C72.5901 147.456 72.6878 147.072 72.6842 146.607ZM78.0149 139.091V150H76.4222V139.091H78.0149ZM81.7503 139.091V150H80.1576V139.091H81.7503ZM84.8997 153.068C84.6618 153.068 84.4451 153.049 84.2498 153.01C84.0545 152.974 83.9089 152.935 83.813 152.892L84.1966 151.587C84.4877 151.665 84.747 151.699 84.9743 151.689C85.2015 151.678 85.4022 151.593 85.5762 151.433C85.7537 151.273 85.91 151.012 86.0449 150.65L86.242 150.107L83.2484 141.818H84.9529L87.025 148.168H87.1103L89.1824 141.818H90.8922L87.5204 151.092C87.3642 151.518 87.1653 151.879 86.9238 152.173C86.6824 152.472 86.3947 152.695 86.0609 152.844C85.7271 152.994 85.34 153.068 84.8997 153.068ZM96.4866 150V139.091H103.326V140.508H98.1325V143.832H102.969V145.243H98.1325V148.583H103.39V150H96.4866ZM110.921 153.068V148.727H110.825C110.729 148.901 110.59 149.1 110.409 149.324C110.232 149.547 109.987 149.743 109.674 149.909C109.362 150.076 108.957 150.16 108.46 150.16C107.799 150.16 107.21 149.991 106.691 149.654C106.176 149.313 105.771 148.828 105.477 148.2C105.186 147.567 105.04 146.809 105.04 145.925C105.04 145.041 105.187 144.284 105.482 143.656C105.78 143.027 106.189 142.546 106.707 142.212C107.226 141.879 107.813 141.712 108.47 141.712C108.978 141.712 109.387 141.797 109.695 141.967C110.008 142.134 110.249 142.33 110.42 142.553C110.594 142.777 110.729 142.974 110.825 143.145H110.958V141.818H112.513V153.068H110.921ZM108.811 148.801C109.269 148.801 109.656 148.681 109.972 148.439C110.292 148.194 110.534 147.855 110.697 147.422C110.864 146.989 110.947 146.484 110.947 145.909C110.947 145.341 110.866 144.844 110.702 144.418C110.539 143.991 110.299 143.659 109.983 143.422C109.667 143.184 109.276 143.065 108.811 143.065C108.332 143.065 107.932 143.189 107.613 143.438C107.293 143.686 107.052 144.025 106.888 144.455C106.729 144.885 106.649 145.369 106.649 145.909C106.649 146.456 106.73 146.948 106.894 147.385C107.057 147.821 107.298 148.168 107.618 148.423C107.941 148.675 108.339 148.801 108.811 148.801ZM119.838 146.607V141.818H121.436V150H119.869V148.583H119.784C119.596 149.02 119.294 149.384 118.879 149.675C118.467 149.963 117.954 150.107 117.339 150.107C116.814 150.107 116.349 149.991 115.944 149.76C115.542 149.526 115.226 149.18 114.996 148.722C114.768 148.263 114.655 147.697 114.655 147.022V141.818H116.247V146.831C116.247 147.388 116.402 147.832 116.711 148.162C117.02 148.493 117.421 148.658 117.915 148.658C118.213 148.658 118.509 148.583 118.804 148.434C119.102 148.285 119.349 148.059 119.545 147.757C119.743 147.456 119.841 147.072 119.838 146.607ZM123.576 150V141.818H125.168V150H123.576ZM124.38 140.556C124.103 140.556 123.865 140.463 123.666 140.279C123.471 140.091 123.373 139.867 123.373 139.608C123.373 139.345 123.471 139.121 123.666 138.936C123.865 138.748 124.103 138.654 124.38 138.654C124.657 138.654 124.893 138.748 125.088 138.936C125.287 139.121 125.387 139.345 125.387 139.608C125.387 139.867 125.287 140.091 125.088 140.279C124.893 140.463 124.657 140.556 124.38 140.556ZM127.311 153.068V141.818H128.866V143.145H128.999C129.092 142.974 129.225 142.777 129.399 142.553C129.573 142.33 129.814 142.134 130.123 141.967C130.432 141.797 130.841 141.712 131.349 141.712C132.009 141.712 132.599 141.879 133.117 142.212C133.635 142.546 134.042 143.027 134.337 143.656C134.635 144.284 134.784 145.041 134.784 145.925C134.784 146.809 134.637 147.567 134.342 148.2C134.047 148.828 133.643 149.313 133.128 149.654C132.613 149.991 132.025 150.16 131.365 150.16C130.867 150.16 130.461 150.076 130.145 149.909C129.832 149.743 129.587 149.547 129.41 149.324C129.232 149.1 129.095 148.901 128.999 148.727H128.904V153.068H127.311ZM128.872 145.909C128.872 146.484 128.955 146.989 129.122 147.422C129.289 147.855 129.53 148.194 129.846 148.439C130.162 148.681 130.55 148.801 131.008 148.801C131.483 148.801 131.881 148.675 132.201 148.423C132.52 148.168 132.762 147.821 132.925 147.385C133.092 146.948 133.176 146.456 133.176 145.909C133.176 145.369 133.094 144.885 132.931 144.455C132.771 144.025 132.529 143.686 132.206 143.438C131.887 143.189 131.487 143.065 131.008 143.065C130.546 143.065 130.155 143.184 129.836 143.422C129.52 143.659 129.28 143.991 129.117 144.418C128.953 144.844 128.872 145.341 128.872 145.909ZM136.569 153.068V141.818H138.124V143.145H138.257C138.35 142.974 138.483 142.777 138.657 142.553C138.831 142.33 139.072 142.134 139.381 141.967C139.69 141.797 140.099 141.712 140.606 141.712C141.267 141.712 141.856 141.879 142.375 142.212C142.893 142.546 143.3 143.027 143.595 143.656C143.893 144.284 144.042 145.041 144.042 145.925C144.042 146.809 143.895 147.567 143.6 148.2C143.305 148.828 142.9 149.313 142.385 149.654C141.871 149.991 141.283 150.16 140.622 150.16C140.125 150.16 139.719 150.076 139.403 149.909C139.09 149.743 138.845 149.547 138.667 149.324C138.49 149.1 138.353 148.901 138.257 148.727H138.161V153.068H136.569ZM138.129 145.909C138.129 146.484 138.213 146.989 138.38 147.422C138.547 147.855 138.788 148.194 139.104 148.439C139.42 148.681 139.807 148.801 140.265 148.801C140.741 148.801 141.139 148.675 141.459 148.423C141.778 148.168 142.02 147.821 142.183 147.385C142.35 146.948 142.433 146.456 142.433 145.909C142.433 145.369 142.352 144.885 142.188 144.455C142.029 144.025 141.787 143.686 141.464 143.438C141.144 143.189 140.745 143.065 140.265 143.065C139.804 143.065 139.413 143.184 139.094 143.422C138.778 143.659 138.538 143.991 138.374 144.418C138.211 144.844 138.129 145.341 138.129 145.909ZM149.353 150.165C148.547 150.165 147.852 149.993 147.27 149.648C146.691 149.3 146.244 148.812 145.928 148.184C145.615 147.551 145.459 146.811 145.459 145.962C145.459 145.124 145.615 144.386 145.928 143.746C146.244 143.107 146.684 142.608 147.249 142.25C147.817 141.891 148.481 141.712 149.241 141.712C149.703 141.712 150.15 141.788 150.583 141.941C151.017 142.093 151.405 142.333 151.75 142.66C152.094 142.987 152.366 143.411 152.565 143.933C152.764 144.451 152.863 145.082 152.863 145.824V146.388H146.359V145.195H151.302C151.302 144.776 151.217 144.405 151.047 144.082C150.876 143.755 150.637 143.498 150.328 143.31C150.022 143.121 149.664 143.027 149.252 143.027C148.804 143.027 148.414 143.137 148.08 143.358C147.749 143.574 147.494 143.858 147.313 144.21C147.135 144.558 147.046 144.936 147.046 145.344V146.277C147.046 146.824 147.142 147.289 147.334 147.672C147.529 148.056 147.801 148.349 148.149 148.551C148.497 148.75 148.904 148.849 149.369 148.849C149.671 148.849 149.946 148.807 150.194 148.722C150.443 148.633 150.658 148.501 150.839 148.327C151.02 148.153 151.159 147.939 151.254 147.683L152.762 147.955C152.641 148.398 152.425 148.787 152.112 149.121C151.803 149.451 151.414 149.709 150.945 149.893C150.48 150.075 149.949 150.165 149.353 150.165ZM157.693 150.16C157.033 150.16 156.443 149.991 155.925 149.654C155.41 149.313 155.005 148.828 154.71 148.2C154.419 147.567 154.273 146.809 154.273 145.925C154.273 145.041 154.421 144.284 154.715 143.656C155.014 143.027 155.422 142.546 155.941 142.212C156.459 141.879 157.047 141.712 157.704 141.712C158.212 141.712 158.62 141.797 158.929 141.967C159.241 142.134 159.483 142.33 159.653 142.553C159.827 142.777 159.962 142.974 160.058 143.145H160.154V139.091H161.747V150H160.191V148.727H160.058C159.962 148.901 159.824 149.1 159.643 149.324C159.465 149.547 159.22 149.743 158.908 149.909C158.595 150.076 158.19 150.16 157.693 150.16ZM158.045 148.801C158.503 148.801 158.89 148.681 159.206 148.439C159.525 148.194 159.767 147.855 159.93 147.422C160.097 146.989 160.181 146.484 160.181 145.909C160.181 145.341 160.099 144.844 159.936 144.418C159.772 143.991 159.533 143.659 159.217 143.422C158.9 143.184 158.51 143.065 158.045 143.065C157.565 143.065 157.166 143.189 156.846 143.438C156.527 143.686 156.285 144.025 156.122 144.455C155.962 144.885 155.882 145.369 155.882 145.909C155.882 146.456 155.964 146.948 156.127 147.385C156.29 147.821 156.532 148.168 156.851 148.423C157.175 148.675 157.572 148.801 158.045 148.801ZM66.1697 157.091V168H64.5237V157.091H66.1697ZM70.0315 163.142V168H68.4388V159.818H69.9676V161.15H70.0688C70.257 160.717 70.5518 160.369 70.953 160.106C71.3579 159.843 71.8675 159.712 72.4818 159.712C73.0393 159.712 73.5276 159.829 73.9466 160.063C74.3657 160.294 74.6906 160.638 74.9214 161.097C75.1523 161.555 75.2677 162.121 75.2677 162.796V168H73.675V162.988C73.675 162.395 73.5205 161.931 73.2116 161.597C72.9026 161.26 72.4782 161.091 71.9385 161.091C71.5692 161.091 71.2407 161.171 70.953 161.331C70.6689 161.491 70.4434 161.725 70.2765 162.034C70.1132 162.339 70.0315 162.709 70.0315 163.142ZM81.2975 159.818V161.097H76.6739V159.818H81.2975ZM77.9417 168V158.87C77.9417 158.359 78.0535 157.934 78.2773 157.597C78.501 157.256 78.7975 157.002 79.1668 156.835C79.5361 156.665 79.9374 156.58 80.3707 156.58C80.6903 156.58 80.9637 156.606 81.191 156.659C81.4182 156.709 81.5869 156.755 81.697 156.798L81.3241 158.087C81.2496 158.066 81.1537 158.041 81.0365 158.012C80.9193 157.98 80.7773 157.964 80.6104 157.964C80.2233 157.964 79.9463 158.06 79.7794 158.252C79.616 158.444 79.5344 158.721 79.5344 159.083V168H77.9417ZM82.9408 168V159.818H84.4802V161.118H84.5654C84.7146 160.678 84.9774 160.331 85.3538 160.079C85.7338 159.824 86.1634 159.696 86.6428 159.696C86.7423 159.696 86.8595 159.699 86.9944 159.706C87.1329 159.713 87.2412 159.722 87.3193 159.733V161.256C87.2554 161.239 87.1418 161.219 86.9784 161.198C86.8151 161.173 86.6517 161.161 86.4884 161.161C86.1119 161.161 85.7764 161.24 85.4816 161.4C85.1904 161.556 84.9596 161.775 84.7892 162.055C84.6187 162.332 84.5335 162.648 84.5335 163.004V168H82.9408ZM91.0054 168.181C90.4869 168.181 90.0182 168.085 89.5992 167.893C89.1801 167.698 88.8481 167.416 88.6031 167.047C88.3616 166.677 88.2409 166.224 88.2409 165.688C88.2409 165.227 88.3296 164.847 88.5072 164.548C88.6847 164.25 88.9244 164.014 89.2263 163.84C89.5281 163.666 89.8655 163.534 90.2384 163.446C90.6112 163.357 90.9912 163.289 91.3783 163.243C91.8683 163.186 92.2661 163.14 92.5715 163.105C92.8769 163.066 93.0988 163.004 93.2373 162.918C93.3758 162.833 93.445 162.695 93.445 162.503V162.466C93.445 162 93.3137 161.64 93.0509 161.384C92.7916 161.129 92.4046 161.001 91.8896 161.001C91.3534 161.001 90.9308 161.12 90.6219 161.358C90.3165 161.592 90.1052 161.853 89.988 162.141L88.4912 161.8C88.6688 161.303 88.928 160.901 89.2689 160.596C89.6134 160.287 90.0093 160.063 90.4568 159.925C90.9042 159.783 91.3747 159.712 91.8683 159.712C92.195 159.712 92.5413 159.751 92.907 159.829C93.2764 159.903 93.6208 160.042 93.9404 160.244C94.2636 160.447 94.5281 160.736 94.7341 161.113C94.9401 161.485 95.0431 161.97 95.0431 162.567V168H93.4877V166.881H93.4237C93.3208 167.087 93.1663 167.29 92.9603 167.489C92.7544 167.687 92.4898 167.853 92.1666 167.984C91.8435 168.115 91.4564 168.181 91.0054 168.181ZM91.3517 166.903C91.792 166.903 92.1684 166.816 92.4809 166.642C92.797 166.468 93.0367 166.24 93.2 165.96C93.3669 165.676 93.4504 165.372 93.4504 165.049V163.994C93.3936 164.051 93.2835 164.104 93.1201 164.154C92.9603 164.2 92.7774 164.241 92.5715 164.277C92.3655 164.309 92.1649 164.339 91.9695 164.367C91.7742 164.392 91.6109 164.413 91.4795 164.431C91.1705 164.47 90.8882 164.536 90.6325 164.628C90.3804 164.721 90.178 164.854 90.0253 165.028C89.8762 165.198 89.8016 165.425 89.8016 165.71C89.8016 166.104 89.9472 166.402 90.2384 166.604C90.5296 166.803 90.9007 166.903 91.3517 166.903ZM103.295 161.816L101.852 162.071C101.792 161.887 101.696 161.711 101.564 161.544C101.436 161.377 101.262 161.24 101.042 161.134C100.822 161.027 100.547 160.974 100.217 160.974C99.7656 160.974 99.3892 161.075 99.0874 161.278C98.7855 161.477 98.6346 161.734 98.6346 162.05C98.6346 162.324 98.7358 162.544 98.9382 162.711C99.1406 162.877 99.4673 163.014 99.9183 163.121L101.218 163.419C101.971 163.593 102.532 163.861 102.901 164.223C103.271 164.586 103.455 165.056 103.455 165.635C103.455 166.125 103.313 166.562 103.029 166.945C102.749 167.325 102.356 167.624 101.852 167.84C101.351 168.057 100.771 168.165 100.11 168.165C99.1939 168.165 98.4464 167.97 97.8675 167.579C97.2887 167.185 96.9336 166.626 96.8022 165.901L98.3416 165.667C98.4375 166.068 98.6346 166.372 98.9329 166.578C99.2312 166.78 99.62 166.881 100.099 166.881C100.621 166.881 101.039 166.773 101.351 166.556C101.664 166.336 101.82 166.068 101.82 165.752C101.82 165.496 101.724 165.282 101.532 165.108C101.344 164.934 101.055 164.802 100.664 164.713L99.2791 164.41C98.5156 164.236 97.951 163.959 97.5852 163.579C97.223 163.199 97.0419 162.718 97.0419 162.135C97.0419 161.652 97.1768 161.23 97.4467 160.868C97.7166 160.505 98.0895 160.223 98.5653 160.021C99.0412 159.815 99.5863 159.712 100.201 159.712C101.085 159.712 101.781 159.903 102.289 160.287C102.797 160.667 103.132 161.176 103.295 161.816ZM109.026 159.818V161.097H104.557V159.818H109.026ZM105.755 157.858H107.348V165.598C107.348 165.907 107.394 166.139 107.486 166.295C107.579 166.448 107.698 166.553 107.843 166.61C107.992 166.663 108.154 166.69 108.328 166.69C108.456 166.69 108.568 166.681 108.663 166.663C108.759 166.645 108.834 166.631 108.887 166.62L109.175 167.936C109.082 167.972 108.951 168.007 108.781 168.043C108.61 168.082 108.397 168.103 108.141 168.107C107.722 168.114 107.332 168.039 106.97 167.883C106.607 167.727 106.314 167.485 106.091 167.158C105.867 166.832 105.755 166.422 105.755 165.928V157.858ZM110.787 168V159.818H112.327V161.118H112.412C112.561 160.678 112.824 160.331 113.2 160.079C113.58 159.824 114.01 159.696 114.49 159.696C114.589 159.696 114.706 159.699 114.841 159.706C114.98 159.713 115.088 159.722 115.166 159.733V161.256C115.102 161.239 114.988 161.219 114.825 161.198C114.662 161.173 114.498 161.161 114.335 161.161C113.959 161.161 113.623 161.24 113.328 161.4C113.037 161.556 112.806 161.775 112.636 162.055C112.465 162.332 112.38 162.648 112.38 163.004V168H110.787ZM121.727 164.607V159.818H123.325V168H121.759V166.583H121.674C121.486 167.02 121.184 167.384 120.768 167.675C120.356 167.963 119.843 168.107 119.229 168.107C118.703 168.107 118.238 167.991 117.833 167.76C117.432 167.526 117.116 167.18 116.885 166.722C116.658 166.263 116.544 165.697 116.544 165.022V159.818H118.137V164.831C118.137 165.388 118.291 165.832 118.6 166.162C118.909 166.493 119.311 166.658 119.804 166.658C120.103 166.658 120.399 166.583 120.694 166.434C120.992 166.285 121.239 166.059 121.434 165.757C121.633 165.456 121.731 165.072 121.727 164.607ZM128.912 168.165C128.12 168.165 127.438 167.986 126.866 167.627C126.298 167.265 125.861 166.766 125.556 166.13C125.25 165.495 125.098 164.767 125.098 163.946C125.098 163.115 125.254 162.382 125.566 161.746C125.879 161.107 126.319 160.608 126.887 160.25C127.456 159.891 128.125 159.712 128.896 159.712C129.517 159.712 130.071 159.827 130.558 160.058C131.044 160.285 131.436 160.605 131.735 161.017C132.037 161.429 132.216 161.91 132.273 162.46H130.723C130.637 162.077 130.442 161.746 130.137 161.469C129.835 161.192 129.43 161.054 128.922 161.054C128.478 161.054 128.089 161.171 127.756 161.406C127.425 161.636 127.168 161.967 126.983 162.396C126.799 162.822 126.706 163.327 126.706 163.909C126.706 164.506 126.797 165.021 126.978 165.454C127.159 165.887 127.415 166.223 127.745 166.461C128.079 166.699 128.471 166.817 128.922 166.817C129.224 166.817 129.498 166.762 129.743 166.652C129.991 166.539 130.199 166.377 130.366 166.168C130.536 165.958 130.655 165.706 130.723 165.411H132.273C132.216 165.94 132.044 166.413 131.756 166.828C131.468 167.244 131.083 167.57 130.6 167.808C130.121 168.046 129.558 168.165 128.912 168.165ZM137.795 159.818V161.097H133.326V159.818H137.795ZM134.525 157.858H136.117V165.598C136.117 165.907 136.163 166.139 136.256 166.295C136.348 166.448 136.467 166.553 136.613 166.61C136.762 166.663 136.923 166.69 137.097 166.69C137.225 166.69 137.337 166.681 137.433 166.663C137.529 166.645 137.603 166.631 137.657 166.62L137.944 167.936C137.852 167.972 137.721 168.007 137.55 168.043C137.38 168.082 137.167 168.103 136.911 168.107C136.492 168.114 136.101 168.039 135.739 167.883C135.377 167.727 135.084 167.485 134.86 167.158C134.636 166.832 134.525 166.422 134.525 165.928V157.858ZM144.74 164.607V159.818H146.338V168H144.772V166.583H144.687C144.498 167.02 144.197 167.384 143.781 167.675C143.369 167.963 142.856 168.107 142.242 168.107C141.716 168.107 141.251 167.991 140.846 167.76C140.445 167.526 140.129 167.18 139.898 166.722C139.671 166.263 139.557 165.697 139.557 165.022V159.818H141.15V164.831C141.15 165.388 141.304 165.832 141.613 166.162C141.922 166.493 142.323 166.658 142.817 166.658C143.115 166.658 143.412 166.583 143.706 166.434C144.005 166.285 144.252 166.059 144.447 165.757C144.646 165.456 144.743 165.072 144.74 164.607ZM148.478 168V159.818H150.017V161.118H150.103C150.252 160.678 150.514 160.331 150.891 160.079C151.271 159.824 151.701 159.696 152.18 159.696C152.279 159.696 152.397 159.699 152.532 159.706C152.67 159.713 152.778 159.722 152.856 159.733V161.256C152.793 161.239 152.679 161.219 152.516 161.198C152.352 161.173 152.189 161.161 152.025 161.161C151.649 161.161 151.313 161.24 151.019 161.4C150.728 161.556 150.497 161.775 150.326 162.055C150.156 162.332 150.071 162.648 150.071 163.004V168H148.478ZM157.468 168.165C156.662 168.165 155.968 167.993 155.385 167.648C154.806 167.3 154.359 166.812 154.043 166.184C153.73 165.551 153.574 164.811 153.574 163.962C153.574 163.124 153.73 162.386 154.043 161.746C154.359 161.107 154.799 160.608 155.364 160.25C155.932 159.891 156.596 159.712 157.356 159.712C157.818 159.712 158.265 159.788 158.699 159.941C159.132 160.093 159.521 160.333 159.865 160.66C160.21 160.987 160.481 161.411 160.68 161.933C160.879 162.451 160.978 163.082 160.978 163.824V164.388H154.474V163.195H159.418C159.418 162.776 159.332 162.405 159.162 162.082C158.991 161.755 158.752 161.498 158.443 161.31C158.137 161.121 157.779 161.027 157.367 161.027C156.919 161.027 156.529 161.137 156.195 161.358C155.865 161.574 155.609 161.858 155.428 162.21C155.25 162.558 155.162 162.936 155.162 163.344V164.277C155.162 164.824 155.257 165.289 155.449 165.672C155.645 166.056 155.916 166.349 156.264 166.551C156.612 166.75 157.019 166.849 157.484 166.849C157.786 166.849 158.061 166.807 158.31 166.722C158.558 166.633 158.773 166.501 158.954 166.327C159.135 166.153 159.274 165.939 159.37 165.683L160.877 165.955C160.756 166.398 160.54 166.787 160.227 167.121C159.918 167.451 159.529 167.709 159.061 167.893C158.596 168.075 158.065 168.165 157.468 168.165Z" fill="black"/>
<path fill-rule="evenodd" clip-rule="evenodd" d="M107.538 62.0224C106.708 62.1168 105.123 62.507 104.253 62.8311C101.793 63.7466 99.5469 65.6046 98.3182 67.7396C98.0799 68.1536 97.7659 68.8041 97.6206 69.185L97.3563 69.8775L96.3666 70.0495C94.4149 70.3885 93.0261 71.0398 91.6333 72.2692C89.8324 73.8588 88.9964 75.6483 88.9917 77.9239C88.9891 79.2015 89.2867 80.2588 90.0101 81.5413C90.4714 82.3588 90.7452 82.6851 91.6265 83.4671C92.5196 84.2593 92.8643 84.4856 93.8029 84.8956C95.6583 85.7058 95.7186 85.7144 100.084 85.7817L103.958 85.8415L103.989 86.1524C104.059 86.8634 104.158 87.1468 104.438 87.4401C104.605 87.6156 106.075 88.4265 107.838 89.3159L110.943 90.8823V92.3254V93.7685H102.805C93.7835 93.7685 93.9164 93.7593 93.0198 94.4368C92.7561 94.636 92.4173 95.0217 92.2668 95.2941C92.0198 95.741 91.9888 95.9626 91.9474 97.5743L91.9015 99.3596L88.8901 100.876C87.2338 101.71 85.7549 102.492 85.6035 102.614C85.0038 103.096 84.9982 103.137 85.0002 107.053C85.0022 110.645 85.0069 110.718 85.2643 111.118C85.4966 111.48 85.9146 111.723 88.9232 113.243C92.1979 114.897 92.3432 114.959 92.9733 114.959C93.601 114.959 93.7522 114.896 96.7965 113.362C98.5398 112.484 100.118 111.645 100.303 111.497C100.947 110.985 100.964 110.869 100.964 107.031C100.964 103.771 100.947 103.471 100.742 103.116C100.619 102.905 100.421 102.656 100.301 102.563C100.182 102.471 98.7629 101.731 97.1487 100.919C95.5345 100.107 94.1478 99.3962 94.0671 99.339C93.8779 99.2049 93.8644 96.6349 94.0504 96.1641C94.3087 95.5103 94.0335 95.53 102.895 95.53H110.943V97.4393V99.3487L107.858 100.905C106.162 101.761 104.66 102.569 104.52 102.7C104.044 103.149 104.016 103.392 104.017 107.116C104.017 110.597 104.025 110.722 104.266 111.071C104.403 111.27 104.601 111.49 104.706 111.56C104.811 111.631 106.35 112.424 108.125 113.324C111.227 114.895 111.379 114.959 112.004 114.959C112.627 114.959 112.784 114.893 115.878 113.334C118.943 111.79 119.547 111.419 119.85 110.899C120.028 110.593 120.034 103.643 119.857 103.231C119.788 103.07 119.617 102.831 119.478 102.7C119.338 102.569 117.836 101.761 116.14 100.905L113.056 99.3487V97.4393V95.53H121.103C129.965 95.53 129.69 95.5103 129.948 96.1641C130.019 96.3453 130.078 97.1129 130.078 97.8698V99.2462L129.755 99.4427C129.578 99.5508 128.144 100.288 126.57 101.081C124.547 102.1 123.617 102.627 123.4 102.878L123.093 103.233L123.057 106.816C123.034 109.076 123.065 110.535 123.142 110.765C123.208 110.966 123.436 111.274 123.648 111.449C123.859 111.625 125.451 112.48 127.185 113.351C130.589 115.061 130.933 115.174 131.772 114.865C132.022 114.773 133.624 113.987 135.332 113.118C138.081 111.721 138.469 111.491 138.718 111.116L139 110.692L139 107.023C138.999 103.593 138.985 103.332 138.775 103.029C138.456 102.567 138.109 102.363 134.932 100.77L132.097 99.3491L132.051 97.5691C132.009 95.9628 131.978 95.7408 131.731 95.2941C131.581 95.0217 131.242 94.636 130.979 94.4368C130.082 93.7593 130.215 93.7685 121.193 93.7685H113.056V92.3254V90.8823L116.161 89.3159C117.923 88.4265 119.393 87.6156 119.56 87.4401C119.84 87.1468 119.939 86.8634 120.01 86.1524L120.041 85.8415L123.915 85.7824C126.471 85.7434 127.949 85.6799 128.258 85.5955C130.094 85.0962 131.179 84.5293 132.429 83.4166C133.243 82.692 133.534 82.3419 133.987 81.5413C134.721 80.2421 135.009 79.2085 135.009 77.8627C135.009 73.9286 131.81 70.6317 127.376 69.9949C126.983 69.9384 126.954 69.904 126.743 69.2553C125.841 66.4748 122.203 64.8202 119.104 65.7815L118.458 65.982L117.723 65.3044C115.422 63.182 112.681 62.0958 109.416 62.013C108.609 61.9925 107.764 61.9967 107.538 62.0224ZM111.681 64.0772C112.929 64.3971 114.045 64.8806 115.003 65.5165C115.735 66.0024 116.695 66.8538 116.695 67.0179C116.695 67.0683 116.531 67.2908 116.331 67.5123C115.879 68.0126 115.404 68.8251 115.404 69.0976C115.404 69.4035 115.881 69.8238 116.311 69.8966C116.637 69.9519 116.744 69.911 117.074 69.6042C117.285 69.4081 117.59 69.0484 117.752 68.805C118.378 67.8597 120 67.1692 121.322 67.2849C122.641 67.4004 123.871 68.1001 124.469 69.0753C124.989 69.9225 124.982 69.9359 123.915 70.1602C122.676 70.4207 121.164 71.0768 120.492 71.6452C120.005 72.057 119.958 72.137 120.025 72.4441C120.111 72.842 120.586 73.2516 120.961 73.2516C121.104 73.2516 121.59 73.0416 122.04 72.7848C123.487 71.9595 124.864 71.6304 126.473 71.7257C127.801 71.8045 128.858 72.1233 129.934 72.7692C131.889 73.9427 133.013 75.8194 133.013 77.9094C133.013 80.2232 131.469 82.3997 129.127 83.3866C128.585 83.6152 127.861 83.853 127.519 83.9152C127.152 83.9817 125.476 84.0282 123.439 84.0282H119.982L119.982 81.7744C119.981 79.6599 119.966 79.4984 119.732 79.1599C119.595 78.9613 119.397 78.7397 119.292 78.6673C119.187 78.5948 117.651 77.8013 115.878 76.9038C111.64 74.7592 112.366 74.7626 108.184 76.8679C106.44 77.7456 104.864 78.5849 104.681 78.7331C104.044 79.2477 104.016 79.3767 104.016 81.8017V84.0411L100.23 84.0038C95.8712 83.9608 95.7069 83.9328 94.0536 82.9522C92.6208 82.1022 91.645 80.8829 91.2176 79.4082C90.0867 75.505 93.4183 71.7073 97.981 71.6989C98.9001 71.6971 100.333 71.9823 101.067 72.3126C101.708 72.6012 102.196 72.5878 102.554 72.2719C102.907 71.9601 102.929 71.5117 102.608 71.1512C102.352 70.8644 101.037 70.3465 100.05 70.1443C99.3314 69.9968 99.3335 70.0304 99.9696 68.8225C101.337 66.2246 103.967 64.4327 107.245 63.865C108.46 63.6545 110.392 63.747 111.681 64.0772ZM114.379 78.181C115.685 78.8403 116.796 79.4161 116.847 79.4605C116.944 79.5434 112.257 81.9557 111.999 81.9557C111.92 81.9557 110.771 81.4101 109.446 80.7431C107.179 79.6022 107.051 79.5218 107.284 79.385C107.529 79.2419 111.91 77.003 111.973 76.9891C111.991 76.9852 113.074 77.5215 114.379 78.181ZM108.549 82.3263L110.943 83.5258V86.1688C110.943 87.6225 110.9 88.7964 110.849 88.7774C110.797 88.7584 109.69 88.2066 108.387 87.5512L106.019 86.3596L106.016 83.7432C106.014 82.3042 106.044 81.1268 106.084 81.1268C106.123 81.1268 107.233 81.6665 108.549 82.3263ZM117.985 83.7432L117.985 86.3596L115.619 87.5512C114.317 88.2066 113.208 88.7584 113.154 88.7774C113.1 88.7964 113.056 87.6249 113.056 86.1741V83.5363L115.433 82.3348C116.74 81.6741 117.85 81.132 117.898 81.1301C117.947 81.1282 117.986 82.3042 117.985 83.7432ZM95.5379 102.162C97.3134 103.056 97.868 103.382 97.7609 103.467C97.6825 103.529 96.571 104.102 95.291 104.739L92.9638 105.899L90.6539 104.74C89.3835 104.104 88.2764 103.528 88.1938 103.461C88.0759 103.366 88.5568 103.08 90.4243 102.134C91.7337 101.471 92.8877 100.937 92.9887 100.949C93.0896 100.961 94.2368 101.506 95.5379 102.162ZM114.525 102.132C116.379 103.068 116.896 103.373 116.783 103.464C116.702 103.529 115.596 104.104 114.325 104.741L112.013 105.9L109.688 104.742C108.409 104.106 107.296 103.531 107.216 103.466C107.103 103.374 107.611 103.072 109.446 102.143C110.753 101.48 111.89 100.934 111.971 100.928C112.053 100.923 113.202 101.464 114.525 102.132ZM133.543 102.132C134.865 102.8 135.946 103.371 135.943 103.401C135.941 103.432 134.833 104.006 133.482 104.678L131.025 105.899L128.644 104.697C127.334 104.035 126.226 103.462 126.181 103.424C126.095 103.35 130.73 100.945 130.989 100.928C131.071 100.923 132.22 101.464 133.543 102.132ZM90.2569 106.566L91.9194 107.395L91.922 110.056L91.9246 112.718L89.4593 111.473L86.994 110.228V107.586V104.944L87.7942 105.34C88.2342 105.558 89.3424 106.11 90.2569 106.566ZM98.9683 107.589V110.218L96.5324 111.439C95.1926 112.11 94.0567 112.678 94.0084 112.701C93.96 112.724 93.9203 111.555 93.9203 110.103V107.462L96.3563 106.22C97.696 105.537 98.8319 104.974 98.8803 104.969C98.9286 104.964 98.9683 106.143 98.9683 107.589ZM108.575 106.203L110.941 107.395L110.942 110.011C110.942 111.45 110.909 112.627 110.868 112.627C110.827 112.627 109.718 112.086 108.403 111.424L106.012 110.221V107.581C106.012 106.13 106.056 104.958 106.11 104.977C106.164 104.996 107.273 105.547 108.575 106.203ZM117.986 107.594V110.228L115.521 111.473L113.056 112.718L113.059 110.056L113.062 107.395L115.495 106.178C116.833 105.509 117.941 104.961 117.957 104.96C117.973 104.96 117.986 106.145 117.986 107.594ZM127.6 106.211L130.078 107.462V110.103C130.078 111.555 130.038 112.724 129.99 112.701C129.941 112.678 128.806 112.11 127.466 111.439L125.03 110.218V107.589C125.03 106.143 125.051 104.959 125.076 104.959C125.101 104.959 126.236 105.523 127.6 106.211ZM136.918 110.254C136.869 110.295 135.758 110.866 134.451 111.522L132.074 112.715L132.077 110.055L132.08 107.395L134.513 106.179L136.946 104.964L136.977 107.571C136.994 109.005 136.968 110.212 136.918 110.254Z" fill="#DD6F6F"/>
<defs>
<filter id="filter0_d_2506_6" x="0.757812" y="0" width="222.484" height="217.106" filterUnits="userSpaceOnUse" color-interpolation-filters="sRGB">
<feFlood flood-opacity="0" result="BackgroundImageFix"/>
<feColorMatrix in="SourceAlpha" type="matrix" values="0 0 0 0 0 0 0 0 0 0 0 0 0 0 0 0 0 0 127 0" result="hardAlpha"/>
<feOffset/>
<feGaussianBlur stdDeviation="2"/>
<feComposite in2="hardAlpha" operator="out"/>
<feColorMatrix type="matrix" values="0 0 0 0 0 0 0 0 0 0 0 0 0 0 0 0 0 0 0.25 0"/>
<feBlend mode="normal" in2="BackgroundImageFix" result="effect1_dropShadow_2506_6"/>
<feBlend mode="normal" in="SourceGraphic" in2="effect1_dropShadow_2506_6" result="shape"/>
</filter>
</defs>
</svg>
