<svg width="224" height="224" viewBox="0 0 224 224" fill="none" xmlns="http://www.w3.org/2000/svg">
<g filter="url(#filter0_d_2506_8)">
<path d="M112 4L198.001 45.4161L219.242 138.477L159.727 213.107H64.2728L4.75793 138.477L25.9985 45.4161L112 4Z" fill="white"/>
</g>
<path d="M46.7399 150H43.2083V139.091H46.8517C47.9206 139.091 48.8386 139.309 49.6056 139.746C50.3727 140.179 50.9604 140.803 51.3688 141.616C51.7807 142.425 51.9867 143.397 51.9867 144.529C51.9867 145.666 51.7789 146.642 51.3635 147.459C50.9515 148.276 50.3549 148.904 49.5737 149.345C48.7924 149.782 47.8478 150 46.7399 150ZM44.8542 148.562H46.6493C47.4803 148.562 48.171 148.406 48.7214 148.093C49.2718 147.777 49.6838 147.321 49.9572 146.724C50.2306 146.124 50.3674 145.392 50.3674 144.529C50.3674 143.674 50.2306 142.947 49.9572 142.351C49.6873 141.754 49.2843 141.301 48.748 140.993C48.2118 140.684 47.546 140.529 46.7505 140.529H44.8542V148.562ZM57.4319 150.165C56.6258 150.165 55.9316 149.993 55.3492 149.648C54.7703 149.3 54.3229 148.812 54.0068 148.184C53.6943 147.551 53.5381 146.811 53.5381 145.962C53.5381 145.124 53.6943 144.386 54.0068 143.746C54.3229 143.107 54.7632 142.608 55.3279 142.25C55.896 141.891 56.5601 141.712 57.32 141.712C57.7817 141.712 58.2291 141.788 58.6624 141.941C59.0956 142.093 59.4845 142.333 59.8289 142.66C60.1734 142.987 60.445 143.411 60.6439 143.933C60.8428 144.451 60.9422 145.082 60.9422 145.824V146.388H54.4383V145.195H59.3815C59.3815 144.776 59.2963 144.405 59.1258 144.082C58.9553 143.755 58.7156 143.498 58.4067 143.31C58.1013 143.121 57.7426 143.027 57.3307 143.027C56.8833 143.027 56.4926 143.137 56.1588 143.358C55.8286 143.574 55.5729 143.858 55.3918 144.21C55.2142 144.558 55.1254 144.936 55.1254 145.344V146.277C55.1254 146.824 55.2213 147.289 55.4131 147.672C55.6084 148.056 55.8801 148.349 56.2281 148.551C56.5761 148.75 56.9827 148.849 57.4479 148.849C57.7497 148.849 58.0249 148.807 58.2735 148.722C58.5221 148.633 58.7369 148.501 58.9181 148.327C59.0992 148.153 59.2377 147.939 59.3335 147.683L60.841 147.955C60.7203 148.398 60.5036 148.787 60.1911 149.121C59.8822 149.451 59.4933 149.709 59.0246 149.893C58.5594 150.075 58.0285 150.165 57.4319 150.165ZM65.7722 150.16C65.1117 150.16 64.5222 149.991 64.0037 149.654C63.4888 149.313 63.084 148.828 62.7892 148.2C62.498 147.567 62.3525 146.809 62.3525 145.925C62.3525 145.041 62.4998 144.284 62.7946 143.656C63.0929 143.027 63.5012 142.546 64.0197 142.212C64.5382 141.879 65.1259 141.712 65.7828 141.712C66.2907 141.712 66.699 141.797 67.008 141.967C67.3205 142.134 67.562 142.33 67.7324 142.553C67.9064 142.777 68.0414 142.974 68.1373 143.145H68.2331V139.091H69.8258V150H68.2704V148.727H68.1373C68.0414 148.901 67.9029 149.1 67.7218 149.324C67.5442 149.547 67.2992 149.743 66.9867 149.909C66.6742 150.076 66.2694 150.16 65.7722 150.16ZM66.1238 148.801C66.5819 148.801 66.9689 148.681 67.285 148.439C67.6046 148.194 67.8461 147.855 68.0094 147.422C68.1763 146.989 68.2598 146.484 68.2598 145.909C68.2598 145.341 68.1781 144.844 68.0147 144.418C67.8514 143.991 67.6117 143.659 67.2956 143.422C66.9796 143.184 66.589 143.065 66.1238 143.065C65.6444 143.065 65.2449 143.189 64.9252 143.438C64.6056 143.686 64.3642 144.025 64.2008 144.455C64.041 144.885 63.9611 145.369 63.9611 145.909C63.9611 146.456 64.0428 146.948 64.2061 147.385C64.3695 147.821 64.611 148.168 64.9306 148.423C65.2537 148.675 65.6515 148.801 66.1238 148.801ZM72.099 150V141.818H73.6917V150H72.099ZM72.9033 140.556C72.6263 140.556 72.3884 140.463 72.1895 140.279C71.9942 140.091 71.8966 139.867 71.8966 139.608C71.8966 139.345 71.9942 139.121 72.1895 138.936C72.3884 138.748 72.6263 138.654 72.9033 138.654C73.1803 138.654 73.4165 138.748 73.6118 138.936C73.8106 139.121 73.9101 139.345 73.9101 139.608C73.9101 139.867 73.8106 140.091 73.6118 140.279C73.4165 140.463 73.1803 140.556 72.9033 140.556ZM79.2807 150.165C78.4888 150.165 77.807 149.986 77.2353 149.627C76.6671 149.265 76.2303 148.766 75.9249 148.13C75.6195 147.495 75.4668 146.767 75.4668 145.946C75.4668 145.115 75.623 144.382 75.9355 143.746C76.248 143.107 76.6884 142.608 77.2566 142.25C77.8248 141.891 78.4941 141.712 79.2647 141.712C79.8862 141.712 80.4402 141.827 80.9267 142.058C81.4132 142.285 81.8056 142.605 82.1039 143.017C82.4057 143.429 82.585 143.91 82.6419 144.46H81.0918C81.0066 144.077 80.8113 143.746 80.5059 143.469C80.204 143.192 79.7992 143.054 79.2914 143.054C78.8475 143.054 78.4586 143.171 78.1248 143.406C77.7946 143.636 77.5371 143.967 77.3525 144.396C77.1678 144.822 77.0755 145.327 77.0755 145.909C77.0755 146.506 77.166 147.021 77.3471 147.454C77.5282 147.887 77.7839 148.223 78.1142 148.461C78.448 148.699 78.8404 148.817 79.2914 148.817C79.5932 148.817 79.8667 148.762 80.1117 148.652C80.3603 148.539 80.568 148.377 80.7349 148.168C80.9054 147.958 81.0243 147.706 81.0918 147.411H82.6419C82.585 147.94 82.4128 148.413 82.1252 148.828C81.8375 149.244 81.4522 149.57 80.9693 149.808C80.4899 150.046 79.927 150.165 79.2807 150.165ZM86.7261 150.181C86.2077 150.181 85.7389 150.085 85.3199 149.893C84.9008 149.698 84.5688 149.416 84.3238 149.047C84.0823 148.677 83.9616 148.224 83.9616 147.688C83.9616 147.227 84.0503 146.847 84.2279 146.548C84.4055 146.25 84.6452 146.014 84.947 145.84C85.2488 145.666 85.5862 145.534 85.9591 145.446C86.3319 145.357 86.7119 145.289 87.099 145.243C87.589 145.186 87.9868 145.14 88.2922 145.105C88.5976 145.066 88.8195 145.004 88.958 144.918C89.0965 144.833 89.1657 144.695 89.1657 144.503V144.466C89.1657 144 89.0344 143.64 88.7716 143.384C88.5123 143.129 88.1253 143.001 87.6104 143.001C87.0741 143.001 86.6515 143.12 86.3426 143.358C86.0372 143.592 85.8259 143.853 85.7087 144.141L84.2119 143.8C84.3895 143.303 84.6487 142.901 84.9896 142.596C85.3341 142.287 85.73 142.063 86.1775 141.925C86.6249 141.783 87.0954 141.712 87.589 141.712C87.9157 141.712 88.262 141.751 88.6278 141.829C88.9971 141.903 89.3415 142.042 89.6611 142.244C89.9843 142.447 90.2488 142.736 90.4548 143.113C90.6608 143.485 90.7638 143.97 90.7638 144.567V150H89.2084V148.881H89.1444C89.0415 149.087 88.887 149.29 88.681 149.489C88.4751 149.687 88.2105 149.853 87.8873 149.984C87.5642 150.115 87.1771 150.181 86.7261 150.181ZM87.0724 148.903C87.5127 148.903 87.8891 148.816 88.2016 148.642C88.5177 148.468 88.7574 148.24 88.9207 147.96C89.0876 147.676 89.1711 147.372 89.1711 147.049V145.994C89.1143 146.051 89.0042 146.104 88.8408 146.154C88.681 146.2 88.4981 146.241 88.2922 146.277C88.0862 146.309 87.8856 146.339 87.6903 146.367C87.4949 146.392 87.3316 146.413 87.2002 146.431C86.8912 146.47 86.6089 146.536 86.3532 146.628C86.1011 146.721 85.8987 146.854 85.746 147.028C85.5969 147.198 85.5223 147.425 85.5223 147.71C85.5223 148.104 85.6679 148.402 85.9591 148.604C86.2503 148.803 86.6214 148.903 87.0724 148.903ZM96.7044 141.818V143.097H92.2353V141.818H96.7044ZM93.4338 139.858H95.0265V147.598C95.0265 147.907 95.0726 148.139 95.165 148.295C95.2573 148.448 95.3762 148.553 95.5218 148.61C95.671 148.663 95.8326 148.69 96.0066 148.69C96.1344 148.69 96.2463 148.681 96.3422 148.663C96.438 148.645 96.5126 148.631 96.5659 148.62L96.8535 149.936C96.7612 149.972 96.6298 150.007 96.4593 150.043C96.2889 150.082 96.0758 150.103 95.8201 150.107C95.4011 150.114 95.0105 150.039 94.6483 149.883C94.286 149.727 93.9931 149.485 93.7694 149.158C93.5456 148.832 93.4338 148.422 93.4338 147.928V139.858ZM101.905 150.165C101.098 150.165 100.404 149.993 99.8218 149.648C99.243 149.3 98.7955 148.812 98.4795 148.184C98.167 147.551 98.0107 146.811 98.0107 145.962C98.0107 145.124 98.167 144.386 98.4795 143.746C98.7955 143.107 99.2359 142.608 99.8005 142.25C100.369 141.891 101.033 141.712 101.793 141.712C102.254 141.712 102.702 141.788 103.135 141.941C103.568 142.093 103.957 142.333 104.302 142.66C104.646 142.987 104.918 143.411 105.117 143.933C105.315 144.451 105.415 145.082 105.415 145.824V146.388H98.911V145.195H103.854C103.854 144.776 103.769 144.405 103.598 144.082C103.428 143.755 103.188 143.498 102.879 143.31C102.574 143.121 102.215 143.027 101.803 143.027C101.356 143.027 100.965 143.137 100.631 143.358C100.301 143.574 100.046 143.858 99.8644 144.21C99.6869 144.558 99.5981 144.936 99.5981 145.344V146.277C99.5981 146.824 99.694 147.289 99.8857 147.672C100.081 148.056 100.353 148.349 100.701 148.551C101.049 148.75 101.455 148.849 101.921 148.849C102.222 148.849 102.498 148.807 102.746 148.722C102.995 148.633 103.21 148.501 103.391 148.327C103.572 148.153 103.71 147.939 103.806 147.683L105.314 147.955C105.193 148.398 104.976 148.787 104.664 149.121C104.355 149.451 103.966 149.709 103.497 149.893C103.032 150.075 102.501 150.165 101.905 150.165ZM110.245 150.16C109.584 150.16 108.995 149.991 108.476 149.654C107.961 149.313 107.557 148.828 107.262 148.2C106.971 147.567 106.825 146.809 106.825 145.925C106.825 145.041 106.972 144.284 107.267 143.656C107.566 143.027 107.974 142.546 108.492 142.212C109.011 141.879 109.599 141.712 110.256 141.712C110.763 141.712 111.172 141.797 111.481 141.967C111.793 142.134 112.035 142.33 112.205 142.553C112.379 142.777 112.514 142.974 112.61 143.145H112.706V139.091H114.298V150H112.743V148.727H112.61C112.514 148.901 112.376 149.1 112.194 149.324C112.017 149.547 111.772 149.743 111.459 149.909C111.147 150.076 110.742 150.16 110.245 150.16ZM110.596 148.801C111.055 148.801 111.442 148.681 111.758 148.439C112.077 148.194 112.319 147.855 112.482 147.422C112.649 146.989 112.732 146.484 112.732 145.909C112.732 145.341 112.651 144.844 112.487 144.418C112.324 143.991 112.084 143.659 111.768 143.422C111.452 143.184 111.062 143.065 110.596 143.065C110.117 143.065 109.718 143.189 109.398 143.438C109.078 143.686 108.837 144.025 108.673 144.455C108.514 144.885 108.434 145.369 108.434 145.909C108.434 146.456 108.515 146.948 108.679 147.385C108.842 147.821 109.084 148.168 109.403 148.423C109.726 148.675 110.124 148.801 110.596 148.801ZM124.201 150H120.669V139.091H124.313C125.382 139.091 126.3 139.309 127.067 139.746C127.834 140.179 128.421 140.803 128.83 141.616C129.242 142.425 129.448 143.397 129.448 144.529C129.448 145.666 129.24 146.642 128.824 147.459C128.412 148.276 127.816 148.904 127.035 149.345C126.253 149.782 125.309 150 124.201 150ZM122.315 148.562H124.11C124.941 148.562 125.632 148.406 126.182 148.093C126.733 147.777 127.145 147.321 127.418 146.724C127.692 146.124 127.828 145.392 127.828 144.529C127.828 143.674 127.692 142.947 127.418 142.351C127.148 141.754 126.745 141.301 126.209 140.993C125.673 140.684 125.007 140.529 124.211 140.529H122.315V148.562ZM134.893 150.165C134.087 150.165 133.392 149.993 132.81 149.648C132.231 149.3 131.784 148.812 131.468 148.184C131.155 147.551 130.999 146.811 130.999 145.962C130.999 145.124 131.155 144.386 131.468 143.746C131.784 143.107 132.224 142.608 132.789 142.25C133.357 141.891 134.021 141.712 134.781 141.712C135.243 141.712 135.69 141.788 136.123 141.941C136.557 142.093 136.945 142.333 137.29 142.66C137.634 142.987 137.906 143.411 138.105 143.933C138.304 144.451 138.403 145.082 138.403 145.824V146.388H131.899V145.195H136.842C136.842 144.776 136.757 144.405 136.587 144.082C136.416 143.755 136.177 143.498 135.868 143.31C135.562 143.121 135.204 143.027 134.792 143.027C134.344 143.027 133.954 143.137 133.62 143.358C133.29 143.574 133.034 143.858 132.853 144.21C132.675 144.558 132.586 144.936 132.586 145.344V146.277C132.586 146.824 132.682 147.289 132.874 147.672C133.069 148.056 133.341 148.349 133.689 148.551C134.037 148.75 134.444 148.849 134.909 148.849C135.211 148.849 135.486 148.807 135.734 148.722C135.983 148.633 136.198 148.501 136.379 148.327C136.56 148.153 136.699 147.939 136.794 147.683L138.302 147.955C138.181 148.398 137.965 148.787 137.652 149.121C137.343 149.451 136.954 149.709 136.486 149.893C136.02 150.075 135.489 150.165 134.893 150.165ZM141.763 139.091V150H140.17V139.091H141.763ZM143.906 150V141.818H145.498V150H143.906ZM144.71 140.556C144.433 140.556 144.195 140.463 143.996 140.279C143.801 140.091 143.703 139.867 143.703 139.608C143.703 139.345 143.801 139.121 143.996 138.936C144.195 138.748 144.433 138.654 144.71 138.654C144.987 138.654 145.223 138.748 145.418 138.936C145.617 139.121 145.717 139.345 145.717 139.608C145.717 139.867 145.617 140.091 145.418 140.279C145.223 140.463 144.987 140.556 144.71 140.556ZM154.64 141.818L151.673 150H149.969L146.996 141.818H148.706L150.778 148.114H150.864L152.93 141.818H154.64ZM159.385 150.165C158.579 150.165 157.885 149.993 157.302 149.648C156.723 149.3 156.276 148.812 155.96 148.184C155.647 147.551 155.491 146.811 155.491 145.962C155.491 145.124 155.647 144.386 155.96 143.746C156.276 143.107 156.716 142.608 157.281 142.25C157.849 141.891 158.513 141.712 159.273 141.712C159.735 141.712 160.182 141.788 160.616 141.941C161.049 142.093 161.438 142.333 161.782 142.66C162.127 142.987 162.398 143.411 162.597 143.933C162.796 144.451 162.895 145.082 162.895 145.824V146.388H156.391V145.195H161.335C161.335 144.776 161.249 144.405 161.079 144.082C160.908 143.755 160.669 143.498 160.36 143.31C160.054 143.121 159.696 143.027 159.284 143.027C158.836 143.027 158.446 143.137 158.112 143.358C157.782 143.574 157.526 143.858 157.345 144.21C157.167 144.558 157.079 144.936 157.079 145.344V146.277C157.079 146.824 157.174 147.289 157.366 147.672C157.562 148.056 157.833 148.349 158.181 148.551C158.529 148.75 158.936 148.849 159.401 148.849C159.703 148.849 159.978 148.807 160.227 148.722C160.475 148.633 160.69 148.501 160.871 148.327C161.052 148.153 161.191 147.939 161.287 147.683L162.794 147.955C162.673 148.398 162.457 148.787 162.144 149.121C161.835 149.451 161.446 149.709 160.978 149.893C160.513 150.075 159.982 150.165 159.385 150.165ZM164.662 150V141.818H166.202V143.118H166.287C166.436 142.678 166.699 142.331 167.075 142.079C167.455 141.824 167.885 141.696 168.365 141.696C168.464 141.696 168.581 141.699 168.716 141.706C168.855 141.713 168.963 141.722 169.041 141.733V143.256C168.977 143.239 168.863 143.219 168.7 143.198C168.537 143.173 168.373 143.161 168.21 143.161C167.834 143.161 167.498 143.24 167.203 143.4C166.912 143.556 166.681 143.775 166.511 144.055C166.34 144.332 166.255 144.648 166.255 145.004V150H164.662ZM171.675 153.068C171.437 153.068 171.221 153.049 171.025 153.01C170.83 152.974 170.684 152.935 170.588 152.892L170.972 151.587C171.263 151.665 171.522 151.699 171.75 151.689C171.977 151.678 172.178 151.593 172.352 151.433C172.529 151.273 172.685 151.012 172.82 150.65L173.017 150.107L170.024 141.818H171.728L173.8 148.168H173.886L175.958 141.818H177.668L174.296 151.092C174.14 151.518 173.941 151.879 173.699 152.173C173.458 152.472 173.17 152.695 172.836 152.844C172.502 152.994 172.115 153.068 171.675 153.068ZM66.1111 157.091H68.1086L71.5816 165.571H71.7095L75.1825 157.091H77.18V168H75.6139V160.106H75.5127L72.2954 167.984H70.9957L67.7784 160.1H67.6772V168H66.1111V157.091ZM81.8262 168.181C81.3078 168.181 80.839 168.085 80.42 167.893C80.0009 167.698 79.6689 167.416 79.4239 167.047C79.1824 166.677 79.0617 166.224 79.0617 165.688C79.0617 165.227 79.1504 164.847 79.328 164.548C79.5055 164.25 79.7453 164.014 80.0471 163.84C80.3489 163.666 80.6863 163.534 81.0592 163.446C81.432 163.357 81.812 163.289 82.1991 163.243C82.6891 163.186 83.0869 163.14 83.3923 163.105C83.6977 163.066 83.9196 163.004 84.0581 162.918C84.1966 162.833 84.2658 162.695 84.2658 162.503V162.466C84.2658 162 84.1345 161.64 83.8717 161.384C83.6124 161.129 83.2254 161.001 82.7104 161.001C82.1742 161.001 81.7516 161.12 81.4427 161.358C81.1373 161.592 80.926 161.853 80.8088 162.141L79.312 161.8C79.4896 161.303 79.7488 160.901 80.0897 160.596C80.4342 160.287 80.8301 160.063 81.2776 159.925C81.725 159.783 82.1955 159.712 82.6891 159.712C83.0158 159.712 83.3621 159.751 83.7278 159.829C84.0972 159.903 84.4416 160.042 84.7612 160.244C85.0844 160.447 85.3489 160.736 85.5549 161.113C85.7609 161.485 85.8639 161.97 85.8639 162.567V168H84.3085V166.881H84.2445C84.1416 167.087 83.9871 167.29 83.7811 167.489C83.5752 167.687 83.3106 167.853 82.9874 167.984C82.6643 168.115 82.2772 168.181 81.8262 168.181ZM82.1725 166.903C82.6128 166.903 82.9892 166.816 83.3017 166.642C83.6178 166.468 83.8575 166.24 84.0208 165.96C84.1877 165.676 84.2712 165.372 84.2712 165.049V163.994C84.2144 164.051 84.1043 164.104 83.9409 164.154C83.7811 164.2 83.5982 164.241 83.3923 164.277C83.1863 164.309 82.9857 164.339 82.7903 164.367C82.595 164.392 82.4317 164.413 82.3003 164.431C81.9913 164.47 81.709 164.536 81.4533 164.628C81.2012 164.721 80.9988 164.854 80.8461 165.028C80.697 165.198 80.6224 165.425 80.6224 165.71C80.6224 166.104 80.768 166.402 81.0592 166.604C81.3504 166.803 81.7215 166.903 82.1725 166.903ZM89.5779 163.142V168H87.9852V159.818H89.514V161.15H89.6152C89.8034 160.717 90.0981 160.369 90.4994 160.106C90.9043 159.843 91.4138 159.712 92.0282 159.712C92.5857 159.712 93.074 159.829 93.493 160.063C93.9121 160.294 94.237 160.638 94.4678 161.097C94.6986 161.555 94.8141 162.121 94.8141 162.796V168H93.2214V162.988C93.2214 162.395 93.0669 161.931 92.7579 161.597C92.449 161.26 92.0246 161.091 91.4849 161.091C91.1155 161.091 90.7871 161.171 90.4994 161.331C90.2153 161.491 89.9898 161.725 89.8229 162.034C89.6596 162.339 89.5779 162.709 89.5779 163.142ZM99.3311 168.181C98.8126 168.181 98.3439 168.085 97.9248 167.893C97.5058 167.698 97.1738 167.416 96.9288 167.047C96.6873 166.677 96.5665 166.224 96.5665 165.688C96.5665 165.227 96.6553 164.847 96.8329 164.548C97.0104 164.25 97.2501 164.014 97.552 163.84C97.8538 163.666 98.1912 163.534 98.5641 163.446C98.9369 163.357 99.3169 163.289 99.704 163.243C100.194 163.186 100.592 163.14 100.897 163.105C101.203 163.066 101.424 163.004 101.563 162.918C101.701 162.833 101.771 162.695 101.771 162.503V162.466C101.771 162 101.639 161.64 101.377 161.384C101.117 161.129 100.73 161.001 100.215 161.001C99.6791 161.001 99.2565 161.12 98.9476 161.358C98.6422 161.592 98.4309 161.853 98.3137 162.141L96.8169 161.8C96.9945 161.303 97.2537 160.901 97.5946 160.596C97.9391 160.287 98.335 160.063 98.7824 159.925C99.2299 159.783 99.7004 159.712 100.194 159.712C100.521 159.712 100.867 159.751 101.233 159.829C101.602 159.903 101.947 160.042 102.266 160.244C102.589 160.447 102.854 160.736 103.06 161.113C103.266 161.485 103.369 161.97 103.369 162.567V168H101.813V166.881H101.749C101.646 167.087 101.492 167.29 101.286 167.489C101.08 167.687 100.815 167.853 100.492 167.984C100.169 168.115 99.7821 168.181 99.3311 168.181ZM99.6773 166.903C100.118 166.903 100.494 166.816 100.807 166.642C101.123 166.468 101.362 166.24 101.526 165.96C101.693 165.676 101.776 165.372 101.776 165.049V163.994C101.719 164.051 101.609 164.104 101.446 164.154C101.286 164.2 101.103 164.241 100.897 164.277C100.691 164.309 100.491 164.339 100.295 164.367C100.1 164.392 99.9366 164.413 99.8052 164.431C99.4962 164.47 99.2139 164.536 98.9582 164.628C98.7061 164.721 98.5037 164.854 98.351 165.028C98.2018 165.198 98.1273 165.425 98.1273 165.71C98.1273 166.104 98.2729 166.402 98.5641 166.604C98.8552 166.803 99.2263 166.903 99.6773 166.903ZM108.92 171.239C108.271 171.239 107.711 171.153 107.243 170.983C106.777 170.813 106.397 170.587 106.103 170.306C105.808 170.026 105.588 169.719 105.442 169.385L106.811 168.82C106.907 168.977 107.035 169.142 107.195 169.316C107.358 169.493 107.578 169.644 107.855 169.768C108.136 169.893 108.496 169.955 108.936 169.955C109.54 169.955 110.039 169.808 110.433 169.513C110.827 169.222 111.025 168.756 111.025 168.117V166.509H110.923C110.827 166.683 110.689 166.876 110.508 167.089C110.33 167.302 110.085 167.487 109.773 167.643C109.46 167.799 109.054 167.877 108.553 167.877C107.907 167.877 107.324 167.727 106.806 167.425C106.291 167.119 105.883 166.67 105.581 166.077C105.282 165.48 105.133 164.747 105.133 163.877C105.133 163.007 105.281 162.261 105.575 161.64C105.874 161.018 106.282 160.543 106.8 160.212C107.319 159.879 107.907 159.712 108.564 159.712C109.071 159.712 109.482 159.797 109.794 159.967C110.107 160.134 110.35 160.33 110.524 160.553C110.701 160.777 110.838 160.974 110.934 161.145H111.051V159.818H112.612V168.181C112.612 168.884 112.449 169.461 112.122 169.912C111.795 170.363 111.353 170.697 110.795 170.914C110.242 171.13 109.617 171.239 108.92 171.239ZM108.905 166.556C109.363 166.556 109.75 166.45 110.066 166.237C110.385 166.02 110.627 165.711 110.79 165.31C110.957 164.905 111.041 164.42 111.041 163.856C111.041 163.305 110.959 162.821 110.795 162.402C110.632 161.983 110.392 161.656 110.076 161.422C109.76 161.184 109.37 161.065 108.905 161.065C108.425 161.065 108.026 161.189 107.706 161.438C107.386 161.683 107.145 162.016 106.982 162.439C106.822 162.862 106.742 163.334 106.742 163.856C106.742 164.392 106.824 164.863 106.987 165.267C107.15 165.672 107.392 165.988 107.711 166.216C108.034 166.443 108.432 166.556 108.905 166.556ZM118.274 168.165C117.468 168.165 116.774 167.993 116.191 167.648C115.613 167.3 115.165 166.812 114.849 166.184C114.537 165.551 114.38 164.811 114.38 163.962C114.38 163.124 114.537 162.386 114.849 161.746C115.165 161.107 115.606 160.608 116.17 160.25C116.738 159.891 117.402 159.712 118.162 159.712C118.624 159.712 119.071 159.788 119.505 159.941C119.938 160.093 120.327 160.333 120.671 160.66C121.016 160.987 121.287 161.411 121.486 161.933C121.685 162.451 121.784 163.082 121.784 163.824V164.388H115.281V163.195H120.224C120.224 162.776 120.139 162.405 119.968 162.082C119.798 161.755 119.558 161.498 119.249 161.31C118.944 161.121 118.585 161.027 118.173 161.027C117.726 161.027 117.335 161.137 117.001 161.358C116.671 161.574 116.415 161.858 116.234 162.21C116.057 162.558 115.968 162.936 115.968 163.344V164.277C115.968 164.824 116.064 165.289 116.255 165.672C116.451 166.056 116.722 166.349 117.07 166.551C117.418 166.75 117.825 166.849 118.29 166.849C118.592 166.849 118.867 166.807 119.116 166.722C119.364 166.633 119.579 166.501 119.76 166.327C119.941 166.153 120.08 165.939 120.176 165.683L121.683 165.955C121.563 166.398 121.346 166.787 121.033 167.121C120.724 167.451 120.336 167.709 119.867 167.893C119.402 168.075 118.871 168.165 118.274 168.165ZM123.552 168V159.818H125.08V161.15H125.182C125.352 160.699 125.631 160.347 126.018 160.095C126.405 159.839 126.868 159.712 127.408 159.712C127.955 159.712 128.413 159.839 128.782 160.095C129.155 160.351 129.431 160.702 129.608 161.15H129.693C129.889 160.713 130.199 160.365 130.625 160.106C131.052 159.843 131.559 159.712 132.149 159.712C132.891 159.712 133.497 159.944 133.965 160.409C134.438 160.875 134.674 161.576 134.674 162.513V168H133.081V162.663C133.081 162.109 132.93 161.707 132.628 161.459C132.326 161.21 131.966 161.086 131.547 161.086C131.029 161.086 130.625 161.246 130.338 161.565C130.05 161.881 129.906 162.288 129.906 162.785V168H128.319V162.561C128.319 162.118 128.181 161.761 127.904 161.491C127.627 161.221 127.266 161.086 126.822 161.086C126.52 161.086 126.242 161.166 125.986 161.326C125.734 161.482 125.53 161.7 125.373 161.981C125.221 162.261 125.144 162.586 125.144 162.956V168H123.552ZM140.335 168.165C139.529 168.165 138.834 167.993 138.252 167.648C137.673 167.3 137.226 166.812 136.91 166.184C136.597 165.551 136.441 164.811 136.441 163.962C136.441 163.124 136.597 162.386 136.91 161.746C137.226 161.107 137.666 160.608 138.231 160.25C138.799 159.891 139.463 159.712 140.223 159.712C140.685 159.712 141.132 159.788 141.565 159.941C141.998 160.093 142.387 160.333 142.732 160.66C143.076 160.987 143.348 161.411 143.547 161.933C143.746 162.451 143.845 163.082 143.845 163.824V164.388H137.341V163.195H142.284C142.284 162.776 142.199 162.405 142.029 162.082C141.858 161.755 141.618 161.498 141.31 161.31C141.004 161.121 140.645 161.027 140.234 161.027C139.786 161.027 139.395 161.137 139.062 161.358C138.731 161.574 138.476 161.858 138.295 162.21C138.117 162.558 138.028 162.936 138.028 163.344V164.277C138.028 164.824 138.124 165.289 138.316 165.672C138.511 166.056 138.783 166.349 139.131 166.551C139.479 166.75 139.886 166.849 140.351 166.849C140.653 166.849 140.928 166.807 141.176 166.722C141.425 166.633 141.64 166.501 141.821 166.327C142.002 166.153 142.14 165.939 142.236 165.683L143.744 165.955C143.623 166.398 143.406 166.787 143.094 167.121C142.785 167.451 142.396 167.709 141.927 167.893C141.462 168.075 140.931 168.165 140.335 168.165ZM147.205 163.142V168H145.612V159.818H147.141V161.15H147.242C147.43 160.717 147.725 160.369 148.126 160.106C148.531 159.843 149.041 159.712 149.655 159.712C150.213 159.712 150.701 159.829 151.12 160.063C151.539 160.294 151.864 160.638 152.095 161.097C152.326 161.555 152.441 162.121 152.441 162.796V168H150.848V162.988C150.848 162.395 150.694 161.931 150.385 161.597C150.076 161.26 149.652 161.091 149.112 161.091C148.742 161.091 148.414 161.171 148.126 161.331C147.842 161.491 147.617 161.725 147.45 162.034C147.287 162.339 147.205 162.709 147.205 163.142ZM158.396 159.818V161.097H153.927V159.818H158.396ZM155.126 157.858H156.718V165.598C156.718 165.907 156.765 166.139 156.857 166.295C156.949 166.448 157.068 166.553 157.214 166.61C157.363 166.663 157.524 166.69 157.698 166.69C157.826 166.69 157.938 166.681 158.034 166.663C158.13 166.645 158.205 166.631 158.258 166.62L158.545 167.936C158.453 167.972 158.322 168.007 158.151 168.043C157.981 168.082 157.768 168.103 157.512 168.107C157.093 168.114 156.702 168.039 156.34 167.883C155.978 167.727 155.685 167.485 155.461 167.158C155.238 166.832 155.126 166.422 155.126 165.928V157.858Z" fill="black"/>
<path fill-rule="evenodd" clip-rule="evenodd" d="M86.7766 62.1054C86.4918 62.1811 86.1222 62.4271 85.7826 62.7671C85.3503 63.1996 85.2151 63.433 85.1081 63.9301C85.0084 64.3941 84.9835 70.2433 85.0097 86.9474L85.045 109.343L85.3917 109.904C85.6443 110.313 85.9059 110.553 86.3537 110.787L86.9686 111.108H101.687H116.405L116.767 111.414C117.763 112.256 118.801 112.361 120.018 111.744C120.453 111.523 120.867 111.342 120.938 111.341C121.01 111.34 121.369 111.52 121.736 111.741C122.104 111.963 122.447 112.144 122.498 112.144C122.549 112.144 122.591 112.494 122.591 112.921C122.592 113.965 122.756 114.488 123.252 115.038C124.055 115.928 124.316 116 126.731 116C128.854 116 128.859 115.999 129.433 115.674C130.469 115.087 130.857 114.357 130.865 112.979C130.868 112.52 130.912 112.144 130.963 112.144C131.015 112.144 131.357 111.963 131.725 111.741C132.092 111.52 132.452 111.34 132.523 111.341C132.594 111.342 133.008 111.523 133.443 111.744C134.042 112.047 134.376 112.144 134.823 112.143C135.493 112.142 136.421 111.759 136.806 111.325C137.249 110.825 138.789 108.05 138.927 107.503C139.208 106.387 138.67 105.289 137.465 104.516L136.707 104.03L136.692 103.109L136.678 102.188L137.403 101.746C138.628 101 139.18 99.8954 138.916 98.7173C138.762 98.0315 137.063 95.0981 136.586 94.6955C136.02 94.218 135.514 94.0511 134.761 94.0937L134.09 94.1318L134.09 79.0386L134.09 63.9453L133.769 63.3298C133.535 62.8816 133.295 62.6198 132.887 62.367L132.326 62.02L109.778 62.0024C94.3712 61.9904 87.0863 62.023 86.7766 62.1054ZM102.239 72.6952C102.242 80.4236 102.254 80.9227 102.454 81.3643C102.745 82.0047 103.413 82.5283 104.15 82.6933C105.156 82.9188 105.534 82.7421 107.654 81.0549C108.679 80.2393 109.542 79.5721 109.572 79.5721C109.602 79.5721 110.36 80.162 111.255 80.8831C112.151 81.604 113.061 82.3018 113.278 82.4335C114.179 82.9822 115.276 82.8459 116.104 82.0825C116.98 81.2745 116.956 81.5405 116.956 72.4728V64.4946H124.316H131.675V79.3995C131.675 88.7688 131.635 94.3044 131.566 94.3044C131.505 94.3044 131.33 94.2471 131.177 94.177C130.919 94.0593 130.893 93.9734 130.847 93.0548C130.791 91.937 130.631 91.5374 129.989 90.9133C129.368 90.3098 128.723 90.161 126.731 90.161C124.738 90.161 124.093 90.3098 123.472 90.9133C122.832 91.5356 122.67 91.9379 122.614 93.0424L122.565 94.0247L121.738 94.4679L120.912 94.911L120.124 94.4926C119.469 94.1448 119.219 94.0742 118.642 94.0742C117.858 94.0742 117.178 94.3457 116.699 94.8508C116.23 95.3447 114.674 98.1405 114.544 98.723C114.28 99.9031 114.851 101.034 116.062 101.732L116.784 102.147L116.766 103.088L116.748 104.03L115.993 104.516C114.788 105.292 114.295 106.295 114.54 107.476C114.609 107.811 114.74 108.183 114.83 108.302C114.92 108.421 114.995 108.558 114.997 108.605C115 108.653 108.817 108.691 101.259 108.691H87.5174V86.593V64.4946H94.8771H102.237L102.239 72.6952ZM114.426 72.3965C114.426 79.9109 114.416 80.29 114.225 80.1263C113.387 79.4099 111.026 77.5706 110.721 77.3961C110.183 77.0886 109.581 77.0116 108.953 77.1699C108.536 77.2749 108.002 77.6301 106.674 78.6865C105.72 79.4452 104.874 80.1165 104.795 80.1785C104.681 80.2681 104.652 78.6945 104.652 72.3927V64.4946H109.539H114.426V72.3965ZM128.457 93.7296C128.553 95.3198 128.861 95.7089 130.928 96.8461C131.727 97.2856 131.939 97.3523 132.538 97.3523C133.119 97.3524 133.351 97.2846 134.008 96.9218C134.437 96.6849 134.834 96.4912 134.89 96.4912C135.012 96.4912 136.505 99.0687 136.504 99.2784C136.504 99.3597 136.062 99.6765 135.523 99.9826C134.984 100.289 134.46 100.665 134.36 100.819C134.084 101.24 134.065 104.906 134.337 105.353C134.442 105.527 134.962 105.909 135.515 106.22C136.06 106.526 136.505 106.847 136.505 106.933C136.505 107.121 135.013 109.727 134.905 109.727C134.864 109.727 134.489 109.546 134.072 109.324C133.193 108.857 132.456 108.721 131.865 108.916C131.398 109.07 129.546 110.109 129.22 110.4C128.776 110.795 128.527 111.483 128.461 112.49L128.398 113.468H126.731H125.063L125.004 112.489C124.957 111.703 124.885 111.406 124.637 110.983C124.468 110.694 124.261 110.402 124.179 110.334C123.857 110.072 121.989 109.046 121.597 108.916C121.005 108.721 120.269 108.857 119.389 109.324C118.972 109.546 118.597 109.727 118.556 109.727C118.449 109.727 116.956 107.121 116.956 106.933C116.956 106.847 117.399 106.527 117.94 106.223C118.482 105.919 119.007 105.544 119.107 105.391C119.379 104.976 119.376 101.238 119.104 100.823C119.002 100.667 118.477 100.289 117.938 99.9826C117.399 99.6765 116.957 99.3597 116.957 99.2784C116.956 99.0687 118.449 96.4912 118.572 96.4912C118.627 96.4912 118.998 96.67 119.396 96.8884C120.711 97.6111 121.321 97.5615 123.005 96.5951C124.271 95.8688 124.357 95.7927 124.716 95.072C124.944 94.6129 125.006 94.3154 125.006 93.6679C125.006 93.2162 125.042 92.8107 125.085 92.7667C125.129 92.7229 125.892 92.7014 126.782 92.7189L128.398 92.7506L128.457 93.7296ZM93.0741 95.2957C92.7386 95.4614 92.3472 96.0432 92.3472 96.3761C92.3472 96.452 92.4288 96.6861 92.5285 96.8966C92.8868 97.6523 92.789 97.6422 99.6991 97.6422C106.385 97.6422 106.472 97.6351 106.879 97.0533C107.119 96.7096 107.119 96.0427 106.879 95.699C106.472 95.1168 106.387 95.1099 99.6818 95.1127C94.249 95.115 93.3922 95.1387 93.0741 95.2957ZM125.003 97.7891C122.986 98.4773 121.676 99.9842 121.242 102.114C120.677 104.887 122.516 107.79 125.297 108.515C128.509 109.352 131.696 107.259 132.255 103.947C132.715 101.216 130.877 98.4108 128.164 97.7035C127.176 97.446 125.908 97.4803 125.003 97.7891ZM128.221 100.356C129.272 100.928 129.843 101.923 129.827 103.153C129.81 104.385 129.208 105.366 128.152 105.886C125.589 107.145 122.85 104.706 123.801 102.009C124.429 100.226 126.536 99.4376 128.221 100.356ZM92.8885 101.557C92.4491 101.903 92.295 102.474 92.5049 102.977C92.8184 103.728 92.9101 103.742 97.2919 103.742C101.674 103.742 101.765 103.728 102.079 102.977C102.289 102.474 102.135 101.903 101.695 101.557C101.412 101.334 101.237 101.325 97.2919 101.325C93.3467 101.325 93.1715 101.334 92.8885 101.557Z" fill="#B55D0B"/>
<defs>
<filter id="filter0_d_2506_8" x="0.757812" y="0" width="222.484" height="217.106" filterUnits="userSpaceOnUse" color-interpolation-filters="sRGB">
<feFlood flood-opacity="0" result="BackgroundImageFix"/>
<feColorMatrix in="SourceAlpha" type="matrix" values="0 0 0 0 0 0 0 0 0 0 0 0 0 0 0 0 0 0 127 0" result="hardAlpha"/>
<feOffset/>
<feGaussianBlur stdDeviation="2"/>
<feComposite in2="hardAlpha" operator="out"/>
<feColorMatrix type="matrix" values="0 0 0 0 0 0 0 0 0 0 0 0 0 0 0 0 0 0 0.25 0"/>
<feBlend mode="normal" in2="BackgroundImageFix" result="effect1_dropShadow_2506_8"/>
<feBlend mode="normal" in="SourceGraphic" in2="effect1_dropShadow_2506_8" result="shape"/>
</filter>
</defs>
</svg>
