<svg width="224" height="224" viewBox="0 0 224 224" fill="none" xmlns="http://www.w3.org/2000/svg">
<g filter="url(#filter0_d_2506_2)">
<path d="M112 4L198.001 45.4161L219.242 138.477L159.727 213.107H64.2728L4.75793 138.477L25.9985 45.4161L112 4Z" fill="white"/>
</g>
<path d="M53.4695 139.091H55.467L58.94 147.571H59.0679L62.5409 139.091H64.5384V150H62.9723V142.106H62.8711L59.6538 149.984H58.3541L55.1368 142.1H55.0356V150H53.4695V139.091ZM71.9865 146.607V141.818H73.5845V150H72.0184V148.583H71.9332C71.745 149.02 71.4431 149.384 71.0277 149.675C70.6157 149.963 70.1026 150.107 69.4882 150.107C68.9627 150.107 68.4975 149.991 68.0926 149.76C67.6914 149.526 67.3753 149.18 67.1445 148.722C66.9172 148.263 66.8036 147.697 66.8036 147.022V141.818H68.3963V146.831C68.3963 147.388 68.5507 147.832 68.8597 148.162C69.1686 148.493 69.5699 148.658 70.0635 148.658C70.3618 148.658 70.6583 148.583 70.9531 148.434C71.2514 148.285 71.4982 148.059 71.6935 147.757C71.8924 147.456 71.99 147.072 71.9865 146.607ZM77.3172 139.091V150H75.7245V139.091H77.3172ZM83.2791 141.818V143.097H78.81V141.818H83.2791ZM80.0085 139.858H81.6012V147.598C81.6012 147.907 81.6473 148.139 81.7397 148.295C81.832 148.448 81.9509 148.553 82.0965 148.61C82.2457 148.663 82.4073 148.69 82.5813 148.69C82.7091 148.69 82.821 148.681 82.9169 148.663C83.0127 148.645 83.0873 148.631 83.1406 148.62L83.4282 149.936C83.3359 149.972 83.2045 150.007 83.034 150.043C82.8636 150.082 82.6505 150.103 82.3948 150.107C81.9758 150.114 81.5852 150.039 81.223 149.883C80.8608 149.727 80.5678 149.485 80.3441 149.158C80.1203 148.832 80.0085 148.422 80.0085 147.928V139.858ZM85.0409 150V141.818H86.6336V150H85.0409ZM85.8452 140.556C85.5682 140.556 85.3303 140.463 85.1314 140.279C84.9361 140.091 84.8385 139.867 84.8385 139.608C84.8385 139.345 84.9361 139.121 85.1314 138.936C85.3303 138.748 85.5682 138.654 85.8452 138.654C86.1222 138.654 86.3584 138.748 86.5537 138.936C86.7525 139.121 86.852 139.345 86.852 139.608C86.852 139.867 86.7525 140.091 86.5537 140.279C86.3584 140.463 86.1222 140.556 85.8452 140.556ZM88.7762 153.068V141.818H90.3316V143.145H90.4648C90.5571 142.974 90.6903 142.777 90.8643 142.553C91.0383 142.33 91.2798 142.134 91.5887 141.967C91.8977 141.797 92.3061 141.712 92.8139 141.712C93.4744 141.712 94.0639 141.879 94.5823 142.212C95.1008 142.546 95.5074 143.027 95.8022 143.656C96.1005 144.284 96.2496 145.041 96.2496 145.925C96.2496 146.809 96.1022 147.567 95.8075 148.2C95.5127 148.828 95.1079 149.313 94.593 149.654C94.0781 149.991 93.4904 150.16 92.8299 150.16C92.3327 150.16 91.9261 150.076 91.61 149.909C91.2975 149.743 91.0525 149.547 90.875 149.324C90.6974 149.1 90.5607 148.901 90.4648 148.727H90.3689V153.068H88.7762ZM90.337 145.909C90.337 146.484 90.4204 146.989 90.5873 147.422C90.7542 147.855 90.9957 148.194 91.3117 148.439C91.6278 148.681 92.0149 148.801 92.473 148.801C92.9488 148.801 93.3465 148.675 93.6661 148.423C93.9858 148.168 94.2272 147.821 94.3906 147.385C94.5575 146.948 94.6409 146.456 94.6409 145.909C94.6409 145.369 94.5593 144.885 94.3959 144.455C94.2361 144.025 93.9946 143.686 93.6715 143.438C93.3519 143.189 92.9524 143.065 92.473 143.065C92.0113 143.065 91.6207 143.184 91.3011 143.422C90.985 143.659 90.7453 143.991 90.582 144.418C90.4186 144.844 90.337 145.341 90.337 145.909ZM99.6267 139.091V150H98.034V139.091H99.6267ZM105.296 150.165C104.49 150.165 103.795 149.993 103.213 149.648C102.634 149.3 102.187 148.812 101.871 148.184C101.558 147.551 101.402 146.811 101.402 145.962C101.402 145.124 101.558 144.386 101.871 143.746C102.187 143.107 102.627 142.608 103.192 142.25C103.76 141.891 104.424 141.712 105.184 141.712C105.645 141.712 106.093 141.788 106.526 141.941C106.959 142.093 107.348 142.333 107.693 142.66C108.037 142.987 108.309 143.411 108.508 143.933C108.707 144.451 108.806 145.082 108.806 145.824V146.388H102.302V145.195H107.245C107.245 144.776 107.16 144.405 106.99 144.082C106.819 143.755 106.579 143.498 106.27 143.31C105.965 143.121 105.606 143.027 105.194 143.027C104.747 143.027 104.356 143.137 104.023 143.358C103.692 143.574 103.437 143.858 103.256 144.21C103.078 144.558 102.989 144.936 102.989 145.344V146.277C102.989 146.824 103.085 147.289 103.277 147.672C103.472 148.056 103.744 148.349 104.092 148.551C104.44 148.75 104.846 148.849 105.312 148.849C105.614 148.849 105.889 148.807 106.137 148.722C106.386 148.633 106.601 148.501 106.782 148.327C106.963 148.153 107.101 147.939 107.197 147.683L108.705 147.955C108.584 148.398 108.367 148.787 108.055 149.121C107.746 149.451 107.357 149.709 106.888 149.893C106.423 150.075 105.892 150.165 105.296 150.165ZM118.202 150H114.671V139.091H118.314C119.383 139.091 120.301 139.309 121.068 139.746C121.835 140.179 122.423 140.803 122.831 141.616C123.243 142.425 123.449 143.397 123.449 144.529C123.449 145.666 123.241 146.642 122.826 147.459C122.414 148.276 121.817 148.904 121.036 149.345C120.255 149.782 119.31 150 118.202 150ZM116.317 148.562H118.112C118.943 148.562 119.633 148.406 120.184 148.093C120.734 147.777 121.146 147.321 121.42 146.724C121.693 146.124 121.83 145.392 121.83 144.529C121.83 143.674 121.693 142.947 121.42 142.351C121.15 141.754 120.747 141.301 120.21 140.993C119.674 140.684 119.008 140.529 118.213 140.529H116.317V148.562ZM128.814 150.165C128.047 150.165 127.378 149.989 126.806 149.638C126.235 149.286 125.791 148.794 125.475 148.162C125.159 147.53 125 146.792 125 145.946C125 145.098 125.159 144.355 125.475 143.72C125.791 143.084 126.235 142.591 126.806 142.239C127.378 141.887 128.047 141.712 128.814 141.712C129.581 141.712 130.251 141.887 130.823 142.239C131.394 142.591 131.838 143.084 132.154 143.72C132.47 144.355 132.628 145.098 132.628 145.946C132.628 146.792 132.47 147.53 132.154 148.162C131.838 148.794 131.394 149.286 130.823 149.638C130.251 149.989 129.581 150.165 128.814 150.165ZM128.82 148.828C129.317 148.828 129.729 148.697 130.056 148.434C130.382 148.171 130.624 147.821 130.78 147.385C130.94 146.948 131.02 146.467 131.02 145.941C131.02 145.419 130.94 144.94 130.78 144.503C130.624 144.062 130.382 143.709 130.056 143.443C129.729 143.176 129.317 143.043 128.82 143.043C128.319 143.043 127.904 143.176 127.573 143.443C127.247 143.709 127.003 144.062 126.844 144.503C126.687 144.94 126.609 145.419 126.609 145.941C126.609 146.467 126.687 146.948 126.844 147.385C127.003 147.821 127.247 148.171 127.573 148.434C127.904 148.697 128.319 148.828 128.82 148.828ZM134.406 150V141.818H135.935V143.15H136.036C136.207 142.699 136.485 142.347 136.872 142.095C137.259 141.839 137.723 141.712 138.263 141.712C138.81 141.712 139.268 141.839 139.637 142.095C140.01 142.351 140.285 142.702 140.463 143.15H140.548C140.743 142.713 141.054 142.365 141.48 142.106C141.906 141.843 142.414 141.712 143.003 141.712C143.746 141.712 144.351 141.944 144.82 142.409C145.292 142.875 145.528 143.576 145.528 144.513V150H143.936V144.663C143.936 144.109 143.785 143.707 143.483 143.459C143.181 143.21 142.821 143.086 142.402 143.086C141.883 143.086 141.48 143.246 141.192 143.565C140.905 143.881 140.761 144.288 140.761 144.785V150H139.174V144.561C139.174 144.118 139.035 143.761 138.758 143.491C138.481 143.221 138.121 143.086 137.677 143.086C137.375 143.086 137.096 143.166 136.84 143.326C136.588 143.482 136.384 143.7 136.228 143.981C136.075 144.261 135.999 144.586 135.999 144.956V150H134.406ZM150.044 150.181C149.526 150.181 149.057 150.085 148.638 149.893C148.219 149.698 147.887 149.416 147.642 149.047C147.4 148.677 147.279 148.224 147.279 147.688C147.279 147.227 147.368 146.847 147.546 146.548C147.723 146.25 147.963 146.014 148.265 145.84C148.567 145.666 148.904 145.534 149.277 145.446C149.65 145.357 150.03 145.289 150.417 145.243C150.907 145.186 151.305 145.14 151.61 145.105C151.915 145.066 152.137 145.004 152.276 144.918C152.414 144.833 152.484 144.695 152.484 144.503V144.466C152.484 144 152.352 143.64 152.089 143.384C151.83 143.129 151.443 143.001 150.928 143.001C150.392 143.001 149.969 143.12 149.66 143.358C149.355 143.592 149.144 143.853 149.027 144.141L147.53 143.8C147.707 143.303 147.967 142.901 148.307 142.596C148.652 142.287 149.048 142.063 149.495 141.925C149.943 141.783 150.413 141.712 150.907 141.712C151.234 141.712 151.58 141.751 151.946 141.829C152.315 141.903 152.659 142.042 152.979 142.244C153.302 142.447 153.567 142.736 153.773 143.113C153.979 143.485 154.082 143.97 154.082 144.567V150H152.526V148.881H152.462C152.359 149.087 152.205 149.29 151.999 149.489C151.793 149.687 151.528 149.853 151.205 149.984C150.882 150.115 150.495 150.181 150.044 150.181ZM150.39 148.903C150.831 148.903 151.207 148.816 151.519 148.642C151.836 148.468 152.075 148.24 152.239 147.96C152.405 147.676 152.489 147.372 152.489 147.049V145.994C152.432 146.051 152.322 146.104 152.159 146.154C151.999 146.2 151.816 146.241 151.61 146.277C151.404 146.309 151.203 146.339 151.008 146.367C150.813 146.392 150.649 146.413 150.518 146.431C150.209 146.47 149.927 146.536 149.671 146.628C149.419 146.721 149.217 146.854 149.064 147.028C148.915 147.198 148.84 147.425 148.84 147.71C148.84 148.104 148.986 148.402 149.277 148.604C149.568 148.803 149.939 148.903 150.39 148.903ZM156.203 150V141.818H157.796V150H156.203ZM157.007 140.556C156.73 140.556 156.492 140.463 156.294 140.279C156.098 140.091 156.001 139.867 156.001 139.608C156.001 139.345 156.098 139.121 156.294 138.936C156.492 138.748 156.73 138.654 157.007 138.654C157.284 138.654 157.52 138.748 157.716 138.936C157.915 139.121 158.014 139.345 158.014 139.608C158.014 139.867 157.915 140.091 157.716 140.279C157.52 140.463 157.284 140.556 157.007 140.556ZM161.531 145.142V150H159.938V141.818H161.467V143.15H161.568C161.757 142.717 162.051 142.369 162.453 142.106C162.857 141.843 163.367 141.712 163.981 141.712C164.539 141.712 165.027 141.829 165.446 142.063C165.865 142.294 166.19 142.638 166.421 143.097C166.652 143.555 166.767 144.121 166.767 144.796V150H165.174V144.988C165.174 144.395 165.02 143.931 164.711 143.597C164.402 143.26 163.978 143.091 163.438 143.091C163.069 143.091 162.74 143.171 162.453 143.331C162.168 143.491 161.943 143.725 161.776 144.034C161.613 144.339 161.531 144.709 161.531 145.142ZM79.3167 168V157.091H86.1562V158.508H80.9626V161.832H85.7993V163.243H80.9626V166.583H86.2201V168H79.3167ZM89.484 159.818L91.2898 163.004L93.1115 159.818H94.8533L92.3018 163.909L94.8746 168H93.1328L91.2898 164.942L89.4521 168H87.7049L90.2511 163.909L87.7369 159.818H89.484ZM96.4886 171.068V159.818H98.044V161.145H98.1772C98.2695 160.974 98.4027 160.777 98.5767 160.553C98.7507 160.33 98.9922 160.134 99.3011 159.967C99.6101 159.797 100.018 159.712 100.526 159.712C101.187 159.712 101.776 159.879 102.295 160.212C102.813 160.546 103.22 161.027 103.515 161.656C103.813 162.284 103.962 163.041 103.962 163.925C103.962 164.809 103.815 165.567 103.52 166.2C103.225 166.828 102.82 167.313 102.305 167.654C101.79 167.991 101.203 168.16 100.542 168.16C100.045 168.16 99.6385 168.076 99.3224 167.909C99.0099 167.743 98.7649 167.547 98.5874 167.324C98.4098 167.1 98.2731 166.901 98.1772 166.727H98.0813V171.068H96.4886ZM98.0494 163.909C98.0494 164.484 98.1328 164.989 98.2997 165.422C98.4666 165.855 98.7081 166.194 99.0241 166.439C99.3402 166.681 99.7273 166.801 100.185 166.801C100.661 166.801 101.059 166.675 101.379 166.423C101.698 166.168 101.94 165.821 102.103 165.385C102.27 164.948 102.353 164.456 102.353 163.909C102.353 163.369 102.272 162.885 102.108 162.455C101.949 162.025 101.707 161.686 101.384 161.438C101.064 161.189 100.665 161.065 100.185 161.065C99.7237 161.065 99.3331 161.184 99.0135 161.422C98.6974 161.659 98.4577 161.991 98.2944 162.418C98.131 162.844 98.0494 163.341 98.0494 163.909ZM109.273 168.165C108.467 168.165 107.772 167.993 107.19 167.648C106.611 167.3 106.164 166.812 105.848 166.184C105.535 165.551 105.379 164.811 105.379 163.962C105.379 163.124 105.535 162.386 105.848 161.746C106.164 161.107 106.604 160.608 107.169 160.25C107.737 159.891 108.401 159.712 109.161 159.712C109.623 159.712 110.07 159.788 110.503 159.941C110.936 160.093 111.325 160.333 111.67 160.66C112.014 160.987 112.286 161.411 112.485 161.933C112.684 162.451 112.783 163.082 112.783 163.824V164.388H106.279V163.195H111.222C111.222 162.776 111.137 162.405 110.967 162.082C110.796 161.755 110.556 161.498 110.248 161.31C109.942 161.121 109.583 161.027 109.172 161.027C108.724 161.027 108.333 161.137 108 161.358C107.669 161.574 107.414 161.858 107.233 162.21C107.055 162.558 106.966 162.936 106.966 163.344V164.277C106.966 164.824 107.062 165.289 107.254 165.672C107.449 166.056 107.721 166.349 108.069 166.551C108.417 166.75 108.824 166.849 109.289 166.849C109.591 166.849 109.866 166.807 110.114 166.722C110.363 166.633 110.578 166.501 110.759 166.327C110.94 166.153 111.078 165.939 111.174 165.683L112.682 165.955C112.561 166.398 112.344 166.787 112.032 167.121C111.723 167.451 111.334 167.709 110.865 167.893C110.4 168.075 109.869 168.165 109.273 168.165ZM114.55 168V159.818H116.09V161.118H116.175C116.324 160.678 116.587 160.331 116.963 160.079C117.343 159.824 117.773 159.696 118.252 159.696C118.352 159.696 118.469 159.699 118.604 159.706C118.742 159.713 118.851 159.722 118.929 159.733V161.256C118.865 161.239 118.751 161.219 118.588 161.198C118.424 161.173 118.261 161.161 118.098 161.161C117.721 161.161 117.386 161.24 117.091 161.4C116.8 161.556 116.569 161.775 116.399 162.055C116.228 162.332 116.143 162.648 116.143 163.004V168H114.55ZM124.61 159.818V161.097H120.141V159.818H124.61ZM121.339 157.858H122.932V165.598C122.932 165.907 122.978 166.139 123.07 166.295C123.163 166.448 123.282 166.553 123.427 166.61C123.576 166.663 123.738 166.69 123.912 166.69C124.04 166.69 124.152 166.681 124.247 166.663C124.343 166.645 124.418 166.631 124.471 166.62L124.759 167.936C124.666 167.972 124.535 168.007 124.365 168.043C124.194 168.082 123.981 168.103 123.725 168.107C123.306 168.114 122.916 168.039 122.554 167.883C122.191 167.727 121.898 167.485 121.675 167.158C121.451 166.832 121.339 166.422 121.339 165.928V157.858ZM126.371 168V159.818H127.964V168H126.371ZM127.176 158.556C126.899 158.556 126.661 158.463 126.462 158.279C126.267 158.091 126.169 157.867 126.169 157.608C126.169 157.345 126.267 157.121 126.462 156.936C126.661 156.748 126.899 156.654 127.176 156.654C127.453 156.654 127.689 156.748 127.884 156.936C128.083 157.121 128.183 157.345 128.183 157.608C128.183 157.867 128.083 158.091 127.884 158.279C127.689 158.463 127.453 158.556 127.176 158.556ZM136.238 161.816L134.794 162.071C134.734 161.887 134.638 161.711 134.507 161.544C134.379 161.377 134.205 161.24 133.985 161.134C133.764 161.027 133.489 160.974 133.159 160.974C132.708 160.974 132.332 161.075 132.03 161.278C131.728 161.477 131.577 161.734 131.577 162.05C131.577 162.324 131.678 162.544 131.881 162.711C132.083 162.877 132.41 163.014 132.861 163.121L134.16 163.419C134.913 163.593 135.474 163.861 135.844 164.223C136.213 164.586 136.398 165.056 136.398 165.635C136.398 166.125 136.256 166.562 135.972 166.945C135.691 167.325 135.299 167.624 134.794 167.84C134.294 168.057 133.713 168.165 133.052 168.165C132.136 168.165 131.389 167.97 130.81 167.579C130.231 167.185 129.876 166.626 129.745 165.901L131.284 165.667C131.38 166.068 131.577 166.372 131.875 166.578C132.174 166.78 132.562 166.881 133.042 166.881C133.564 166.881 133.981 166.773 134.294 166.556C134.606 166.336 134.762 166.068 134.762 165.752C134.762 165.496 134.666 165.282 134.475 165.108C134.286 164.934 133.997 164.802 133.606 164.713L132.222 164.41C131.458 164.236 130.893 163.959 130.528 163.579C130.165 163.199 129.984 162.718 129.984 162.135C129.984 161.652 130.119 161.23 130.389 160.868C130.659 160.505 131.032 160.223 131.508 160.021C131.984 159.815 132.529 159.712 133.143 159.712C134.027 159.712 134.723 159.903 135.231 160.287C135.739 160.667 136.074 161.176 136.238 161.816ZM141.675 168.165C140.869 168.165 140.175 167.993 139.592 167.648C139.013 167.3 138.566 166.812 138.25 166.184C137.938 165.551 137.781 164.811 137.781 163.962C137.781 163.124 137.938 162.386 138.25 161.746C138.566 161.107 139.006 160.608 139.571 160.25C140.139 159.891 140.803 159.712 141.563 159.712C142.025 159.712 142.472 159.788 142.906 159.941C143.339 160.093 143.728 160.333 144.072 160.66C144.417 160.987 144.688 161.411 144.887 161.933C145.086 162.451 145.185 163.082 145.185 163.824V164.388H138.681V163.195H143.625C143.625 162.776 143.539 162.405 143.369 162.082C143.199 161.755 142.959 161.498 142.65 161.31C142.344 161.121 141.986 161.027 141.574 161.027C141.126 161.027 140.736 161.137 140.402 161.358C140.072 161.574 139.816 161.858 139.635 162.21C139.457 162.558 139.369 162.936 139.369 163.344V164.277C139.369 164.824 139.464 165.289 139.656 165.672C139.852 166.056 140.123 166.349 140.471 166.551C140.819 166.75 141.226 166.849 141.691 166.849C141.993 166.849 142.268 166.807 142.517 166.722C142.765 166.633 142.98 166.501 143.161 166.327C143.342 166.153 143.481 165.939 143.577 165.683L145.084 165.955C144.963 166.398 144.747 166.787 144.434 167.121C144.125 167.451 143.737 167.709 143.268 167.893C142.803 168.075 142.272 168.165 141.675 168.165Z" fill="black"/>
<path fill-rule="evenodd" clip-rule="evenodd" d="M103.696 61.1904C99.6325 61.9765 96.2068 64.8314 94.9609 68.4697C93.8526 71.7064 94.386 74.9848 96.4861 77.8446C97.1529 78.7526 98.3877 79.8792 99.4492 80.5478C99.9672 80.8742 100.256 81.1116 100.167 81.1384C100.086 81.1631 99.4967 81.3414 98.8585 81.5347C97.4038 81.9754 95.0384 83.0378 93.7946 83.8092C89.688 86.3561 86.8739 89.8493 85.6635 93.902C85.1567 95.5991 84.9646 97.2481 85.0053 99.5544L85.0382 101.419L85.3827 101.702C85.8543 102.09 86.5194 102.1 86.9249 101.727C87.079 101.585 87.2251 101.377 87.2493 101.266C87.2736 101.154 87.3184 100.1 87.349 98.925C87.4342 95.649 87.8305 94.016 89.1104 91.6666C89.8656 90.2804 90.7501 89.1935 92.2628 87.7928C93.9181 86.2602 95.2112 85.3927 97.1466 84.5169C100.136 83.1639 102.788 82.6086 106.191 82.6233C108.8 82.6347 110.523 82.904 112.955 83.6806C117.832 85.2383 121.931 88.7267 123.725 92.8478C124.576 94.804 124.862 96.3208 124.863 98.8886C124.864 99.9372 124.894 100.934 124.931 101.104C125.171 102.209 126.857 102.302 127.181 101.228C127.316 100.78 127.318 98.728 127.185 97.1565C126.994 94.8917 126.491 93.1505 125.451 91.1476C123.278 86.965 119.408 83.7036 114.471 81.8945C113.89 81.6816 113.207 81.456 112.954 81.3933C111.866 81.1235 111.874 81.1412 112.638 80.6694C114.628 79.4404 116.335 77.4388 117.152 75.3791C118.645 71.6103 117.682 67.3234 114.683 64.3986C112.946 62.7039 110.612 61.5273 108.195 61.1276C107.027 60.9345 104.863 60.9647 103.696 61.1904ZM108.415 63.3633C111.994 64.2745 114.596 66.8183 115.321 70.1159C115.539 71.1039 115.483 73.0483 115.211 73.9588C114.986 74.7103 114.236 76.1548 113.747 76.776C112.435 78.446 110.503 79.6478 108.323 80.1506C107.063 80.4413 105.035 80.4366 103.817 80.1404C99.322 79.0473 96.2923 75.0445 96.8039 70.8748C97.2841 66.9601 100.364 63.9261 104.572 63.2224C105.313 63.0986 107.722 63.1869 108.415 63.3633ZM122.049 65.421C121.565 65.641 121.323 66.1548 121.478 66.6331C121.658 67.1871 121.981 67.3671 122.937 67.4462C124.14 67.5459 124.595 67.6631 125.708 68.1599C127.108 68.7853 128.114 69.7067 128.807 71C129.432 72.1664 129.65 73.0829 129.579 74.2502C129.386 77.4205 126.757 79.9896 123.347 80.3393C122.097 80.4675 121.732 80.614 121.524 81.071C121.392 81.3631 121.384 81.4989 121.483 81.8032C121.664 82.3592 122.03 82.5185 123.314 82.6006C128.317 82.9201 132.394 85.0797 134.821 88.6953C136.14 90.6595 136.673 92.6744 136.678 95.7043C136.679 96.805 136.705 96.9852 136.896 97.2319C137.391 97.8721 138.528 97.787 138.846 97.0859C138.96 96.8356 139 96.3397 139 95.2124C138.999 92.6402 138.596 90.8596 137.567 88.8777C136.274 86.3878 134.355 84.3956 131.774 82.8639C130.945 82.372 129.211 81.5986 128.372 81.3468C128.067 81.2552 127.818 81.1402 127.818 81.0912C127.818 81.042 127.861 81.0018 127.915 81.0018C128.102 81.0018 129.738 79.5037 130.186 78.9209C132.512 75.8992 132.513 71.92 130.187 68.8996C129.544 68.0645 128.203 66.9404 127.261 66.4465C125.478 65.5122 122.946 65.0139 122.049 65.421Z" fill="#33CFD9"/>
<defs>
<filter id="filter0_d_2506_2" x="0.757812" y="0" width="222.484" height="217.106" filterUnits="userSpaceOnUse" color-interpolation-filters="sRGB">
<feFlood flood-opacity="0" result="BackgroundImageFix"/>
<feColorMatrix in="SourceAlpha" type="matrix" values="0 0 0 0 0 0 0 0 0 0 0 0 0 0 0 0 0 0 127 0" result="hardAlpha"/>
<feOffset/>
<feGaussianBlur stdDeviation="2"/>
<feComposite in2="hardAlpha" operator="out"/>
<feColorMatrix type="matrix" values="0 0 0 0 0 0 0 0 0 0 0 0 0 0 0 0 0 0 0.25 0"/>
<feBlend mode="normal" in2="BackgroundImageFix" result="effect1_dropShadow_2506_2"/>
<feBlend mode="normal" in="SourceGraphic" in2="effect1_dropShadow_2506_2" result="shape"/>
</filter>
</defs>
</svg>
