<svg width="66" height="71" viewBox="0 0 66 71" fill="none" xmlns="http://www.w3.org/2000/svg">
<path d="M32.9337 48C26.6275 47.9025 20.6059 45.3582 16.1403 40.9042C11.6747 36.4502 9.11466 30.4353 9.00061 24.1292C8.97819 20.9983 9.57745 17.8941 10.7636 14.9966C11.9498 12.099 13.6994 9.46574 15.9108 7.24939C18.1367 4.96952 20.7935 3.15464 23.7267 1.91015C26.6599 0.665667 29.8111 0.0163827 32.9973 8.89584e-06C36.1259 -0.00270093 39.2241 0.613709 42.1134 1.81372C45.0028 3.01374 47.626 4.77363 49.8322 6.99201C52.075 9.17866 53.863 11.7875 55.0931 14.6682C56.3233 17.5489 56.9713 20.6446 56.9998 23.7768C57.0272 30.1484 54.532 36.2719 50.0592 40.8097C45.5864 45.3476 39.4996 47.9308 33.1284 47.9953L32.9337 48ZM33.0097 1.25652C29.9904 1.27426 27.0046 1.89148 24.2257 3.07235C21.4468 4.25321 18.9301 5.97422 16.8216 8.1355C14.7244 10.2322 13.0642 12.7244 11.9373 15.4676C10.8105 18.2108 10.2394 21.1503 10.2571 24.1159C10.366 30.0891 12.7913 35.7863 17.0212 40.0051C21.2511 44.2239 26.9546 46.6342 32.928 46.7273H33.0914C39.1326 46.6724 44.9064 44.2282 49.151 39.929C53.3955 35.6297 55.7656 29.825 55.7433 23.7835C55.7153 20.8158 55.1004 17.883 53.934 15.154C52.7676 12.4251 51.0727 9.95391 48.947 7.88287C46.8611 5.77877 44.3783 4.10961 41.6426 2.97214C38.9068 1.83468 35.9725 1.25154 33.0097 1.25652Z" fill="#F1592A"/>
<path d="M14.3828 31.0212V17.0039H17.7933V18.2604H15.9888V29.7893H17.7933V31.0459L14.3828 31.0212Z" fill="#F1592A"/>
<path d="M25.9627 23.8714C25.9627 26.4281 24.4108 27.8859 22.3062 27.8859C20.2016 27.8859 18.8008 26.2467 18.8008 24.0034C18.8008 21.6604 20.271 20.0078 22.4192 20.0078C22.9107 20.0126 23.396 20.1183 23.8449 20.3184C24.2939 20.5184 24.697 20.8086 25.0292 21.1708C25.3614 21.533 25.6157 21.9596 25.7763 22.4242C25.9368 22.8887 26.0003 23.3813 25.9627 23.8714ZM20.271 23.9844C20.271 25.5363 21.0497 26.7671 22.3879 26.7671C23.7261 26.7671 24.4925 25.5106 24.4925 23.9274C24.4925 22.4885 23.783 21.1323 22.3879 21.1323C20.9928 21.1323 20.2586 22.4449 20.2586 24.0157L20.271 23.9844Z" fill="#F1592A"/>
<path d="M27.1406 20.273C27.8087 20.1575 28.4856 20.1006 29.1635 20.103C29.9245 20.0287 30.6894 20.198 31.3479 20.5864C31.5947 20.7319 31.7982 20.9406 31.9373 21.1911C32.0764 21.4416 32.146 21.7247 32.139 22.0111C32.1301 22.3837 32.0039 22.744 31.7783 23.0407C31.5527 23.3374 31.2392 23.5554 30.8825 23.6636C31.3171 23.7519 31.7078 23.9878 31.9884 24.3312C32.269 24.6746 32.4222 25.1044 32.4221 25.5479C32.4268 25.8484 32.3631 26.146 32.2357 26.4181C32.1084 26.6903 31.9207 26.9299 31.687 27.1188C30.8588 27.6831 29.857 27.9346 28.8606 27.8282C28.2892 27.831 27.7182 27.7974 27.1511 27.7276L27.1406 20.273ZM28.5225 23.2818H29.2319C30.193 23.2818 30.7334 22.8297 30.7334 22.182C30.7334 21.5343 30.193 21.1373 29.3088 21.1373C29.0439 21.1284 28.7787 21.1475 28.5177 21.1943L28.5225 23.2818ZM28.5225 26.7873C28.7667 26.8125 29.0121 26.823 29.2576 26.8187C30.1494 26.8187 30.9414 26.4796 30.9414 25.5621C30.9414 24.6447 30.175 24.3056 29.2139 24.3056H28.5225V26.7873Z" fill="#F1592A"/>
<path d="M35.1665 20.1719H36.555V25.1286C36.555 27.2332 35.5369 27.937 34.042 27.937C33.6421 27.9336 33.2454 27.8656 32.8672 27.7356L33.0372 26.6178C33.3159 26.705 33.6057 26.7517 33.8976 26.7564C34.6888 26.7564 35.1541 26.3917 35.1541 25.0725L35.1665 20.1719Z" fill="#F1592A"/>
<path d="M40.5064 24.2979V25.259H37.6211V24.2979H40.5064Z" fill="#F1592A"/>
<path d="M47.2574 27.562C46.6329 27.8109 45.9632 27.9264 45.2914 27.9011C44.7746 27.9447 44.2545 27.8759 43.7668 27.6995C43.2791 27.5232 42.8353 27.2433 42.4659 26.8793C42.0965 26.5152 41.8103 26.0755 41.6269 25.5904C41.4434 25.1053 41.3672 24.5862 41.4032 24.0688C41.3747 23.5288 41.4607 22.9887 41.6558 22.4843C41.8509 21.9798 42.1505 21.5224 42.535 21.142C42.9195 20.7617 43.3801 20.467 43.8866 20.2774C44.3931 20.0878 44.934 20.0075 45.4738 20.0419C46.1191 20.0152 46.7625 20.131 47.358 20.381L47.0503 21.4865C46.5779 21.2855 46.0688 21.1849 45.5554 21.1911C45.1873 21.1701 44.819 21.2295 44.4761 21.3652C44.1333 21.5009 43.8241 21.7096 43.57 21.9768C43.316 22.2441 43.1232 22.5635 43.005 22.9128C42.8868 23.2621 42.8461 23.6329 42.8858 23.9995C42.8491 24.3621 42.8919 24.7283 43.0112 25.0727C43.1305 25.417 43.3234 25.7313 43.5766 25.9934C43.8297 26.2556 44.137 26.4595 44.4769 26.5908C44.8169 26.7221 45.1814 26.7777 45.545 26.7538C46.0636 26.7606 46.5783 26.6637 47.0589 26.4688L47.2574 27.562Z" fill="#F1592A"/>
<path d="M51.6175 16.9619V31.0181H48.207V29.7644H50.0115V18.2184H48.207V16.9619H51.6175Z" fill="#F1592A"/>
<path d="M7.11648 65.3636C7.11648 66.1402 6.97443 66.8078 6.69034 67.3665C6.40625 67.9228 6.01681 68.3513 5.52202 68.652C5.02959 68.9503 4.4697 69.0994 3.84233 69.0994C3.21259 69.0994 2.65033 68.9503 2.15554 68.652C1.66312 68.3513 1.27486 67.9216 0.990767 67.3629C0.706676 66.8042 0.564631 66.1378 0.564631 65.3636C0.564631 64.5871 0.706676 63.9207 0.990767 63.3643C1.27486 62.8056 1.66312 62.3771 2.15554 62.0788C2.65033 61.7782 3.21259 61.6278 3.84233 61.6278C4.4697 61.6278 5.02959 61.7782 5.52202 62.0788C6.01681 62.3771 6.40625 62.8056 6.69034 63.3643C6.97443 63.9207 7.11648 64.5871 7.11648 65.3636ZM6.02983 65.3636C6.02983 64.7718 5.93395 64.2734 5.74219 63.8686C5.55279 63.4614 5.29238 63.1536 4.96094 62.9453C4.63187 62.7346 4.259 62.6293 3.84233 62.6293C3.4233 62.6293 3.04924 62.7346 2.72017 62.9453C2.3911 63.1536 2.13068 63.4614 1.93892 63.8686C1.74953 64.2734 1.65483 64.7718 1.65483 65.3636C1.65483 65.9555 1.74953 66.455 1.93892 66.8622C2.13068 67.267 2.3911 67.5748 2.72017 67.7855C3.04924 67.9938 3.4233 68.098 3.84233 68.098C4.259 68.098 4.63187 67.9938 4.96094 67.7855C5.29238 67.5748 5.55279 67.267 5.74219 66.8622C5.93395 66.455 6.02983 65.9555 6.02983 65.3636ZM8.48455 69V61.7273H11.1479C11.664 61.7273 12.0913 61.8125 12.4299 61.983C12.7684 62.151 13.0217 62.3795 13.1898 62.6683C13.3579 62.9548 13.4419 63.2779 13.4419 63.6378C13.4419 63.9408 13.3863 64.1965 13.275 64.4048C13.1638 64.6108 13.0146 64.7765 12.8276 64.902C12.6429 65.0251 12.4393 65.1151 12.2168 65.1719V65.2429C12.4583 65.2547 12.6938 65.3329 12.9235 65.4773C13.1555 65.6193 13.3472 65.8217 13.4988 66.0845C13.6503 66.3473 13.726 66.6669 13.726 67.0433C13.726 67.415 13.6384 67.7488 13.4632 68.0447C13.2904 68.3383 13.0229 68.5715 12.6607 68.7443C12.2985 68.9148 11.8356 69 11.2722 69H8.48455ZM9.58185 68.0589H11.1657C11.6912 68.0589 12.0676 67.9571 12.2949 67.7536C12.5222 67.55 12.6358 67.2955 12.6358 66.9901C12.6358 66.7604 12.5778 66.5497 12.4618 66.358C12.3458 66.1662 12.1801 66.0135 11.9647 65.8999C11.7516 65.7862 11.4983 65.7294 11.2047 65.7294H9.58185V68.0589ZM9.58185 64.8736H11.052C11.2982 64.8736 11.5196 64.8262 11.7161 64.7315C11.915 64.6368 12.0724 64.5043 12.1884 64.3338C12.3068 64.161 12.3659 63.9574 12.3659 63.723C12.3659 63.4223 12.2606 63.1702 12.0499 62.9666C11.8392 62.763 11.516 62.6612 11.0804 62.6612H9.58185V64.8736ZM17.8542 61.7273H18.948V66.8835C18.948 67.3499 18.8556 67.7488 18.671 68.0803C18.4887 68.4117 18.2318 68.665 17.9004 68.8402C17.569 69.013 17.1807 69.0994 16.7356 69.0994C16.3261 69.0994 15.9579 69.0249 15.6312 68.8757C15.3069 68.7266 15.05 68.5099 14.8606 68.2259C14.6736 67.9394 14.5801 67.5914 14.5801 67.1818H15.6703C15.6703 67.383 15.7164 67.5571 15.8088 67.7038C15.9035 67.8506 16.0325 67.9654 16.1958 68.0483C16.3616 68.1288 16.551 68.169 16.764 68.169C16.996 68.169 17.1925 68.1205 17.3535 68.0234C17.5169 67.924 17.6412 67.7784 17.7264 67.5866C17.8116 67.3949 17.8542 67.1605 17.8542 66.8835V61.7273ZM20.5451 69V61.7273H25.1048V62.6719H21.6424V64.8878H24.8668V65.8288H21.6424V68.0554H25.1474V69H20.5451ZM32.611 64.0923H31.503C31.4604 63.8556 31.3811 63.6473 31.2651 63.4673C31.1491 63.2874 31.007 63.1347 30.839 63.0092C30.6709 62.8838 30.4827 62.7891 30.2743 62.7251C30.0684 62.6612 29.8494 62.6293 29.6174 62.6293C29.1983 62.6293 28.8231 62.7346 28.4917 62.9453C28.1626 63.156 27.9022 63.465 27.7104 63.8722C27.521 64.2794 27.4263 64.7765 27.4263 65.3636C27.4263 65.9555 27.521 66.455 27.7104 66.8622C27.9022 67.2694 28.1638 67.5772 28.4952 67.7855C28.8266 67.9938 29.1995 68.098 29.6138 68.098C29.8435 68.098 30.0613 68.0672 30.2672 68.0057C30.4756 67.9418 30.6638 67.8482 30.8319 67.7251C30.9999 67.602 31.142 67.4517 31.258 67.2741C31.3764 67.0942 31.458 66.8883 31.503 66.6562L32.611 66.6598C32.5518 67.0173 32.437 67.3464 32.2665 67.647C32.0984 67.9453 31.8818 68.2034 31.6167 68.4212C31.3539 68.6366 31.0532 68.8035 30.7147 68.9219C30.3761 69.0402 30.0068 69.0994 29.6067 69.0994C28.977 69.0994 28.4159 68.9503 27.9235 68.652C27.431 68.3513 27.0428 67.9216 26.7587 67.3629C26.477 66.8042 26.3361 66.1378 26.3361 65.3636C26.3361 64.5871 26.4782 63.9207 26.7623 63.3643C27.0463 62.8056 27.4346 62.3771 27.927 62.0788C28.4194 61.7782 28.9793 61.6278 29.6067 61.6278C29.9926 61.6278 30.3525 61.6835 30.6863 61.7947C31.0224 61.9036 31.3243 62.0646 31.5918 62.2777C31.8593 62.4884 32.0807 62.7464 32.2559 63.0518C32.431 63.3549 32.5494 63.7017 32.611 64.0923ZM33.5653 62.6719V61.7273H39.1939V62.6719H36.9247V69H35.831V62.6719H33.5653ZM41.535 61.7273V69H40.4377V61.7273H41.535ZM43.7686 61.7273L45.7928 67.6506H45.8745L47.8986 61.7273H49.0847L46.4675 69H45.1998L42.5826 61.7273H43.7686ZM50.1349 69V61.7273H54.6946V62.6719H51.2322V64.8878H54.4567V65.8288H51.2322V68.0554H54.7372V69H50.1349ZM64.8473 64.0923H63.7393C63.6967 63.8556 63.6174 63.6473 63.5014 63.4673C63.3854 63.2874 63.2434 63.1347 63.0753 63.0092C62.9072 62.8838 62.719 62.7891 62.5107 62.7251C62.3047 62.6612 62.0857 62.6293 61.8537 62.6293C61.4347 62.6293 61.0594 62.7346 60.728 62.9453C60.3989 63.156 60.1385 63.465 59.9467 63.8722C59.7573 64.2794 59.6626 64.7765 59.6626 65.3636C59.6626 65.9555 59.7573 66.455 59.9467 66.8622C60.1385 67.2694 60.4001 67.5772 60.7315 67.7855C61.063 67.9938 61.4358 68.098 61.8501 68.098C62.0798 68.098 62.2976 68.0672 62.5036 68.0057C62.7119 67.9418 62.9001 67.8482 63.0682 67.7251C63.2363 67.602 63.3783 67.4517 63.4943 67.2741C63.6127 67.0942 63.6944 66.8883 63.7393 66.6562L64.8473 66.6598C64.7881 67.0173 64.6733 67.3464 64.5028 67.647C64.3348 67.9453 64.1181 68.2034 63.853 68.4212C63.5902 68.6366 63.2895 68.8035 62.951 68.9219C62.6125 69.0402 62.2431 69.0994 61.843 69.0994C61.2133 69.0994 60.6522 68.9503 60.1598 68.652C59.6674 68.3513 59.2791 67.9216 58.995 67.3629C58.7133 66.8042 58.5724 66.1378 58.5724 65.3636C58.5724 64.5871 58.7145 63.9207 58.9986 63.3643C59.2827 62.8056 59.6709 62.3771 60.1634 62.0788C60.6558 61.7782 61.2157 61.6278 61.843 61.6278C62.2289 61.6278 62.5888 61.6835 62.9226 61.7947C63.2588 61.9036 63.5606 62.0646 63.8281 62.2777C64.0956 62.4884 64.317 62.7464 64.4922 63.0518C64.6674 63.3549 64.7857 63.7017 64.8473 64.0923Z" fill="black"/>
</svg>
