<svg width="38" height="38" viewBox="0 0 38 38" fill="none" xmlns="http://www.w3.org/2000/svg">
<path fill-rule="evenodd" clip-rule="evenodd" d="M31.1606 0.210356C30.7257 0.49316 18.1549 13.1012 18.0013 13.4086C17.9007 13.6097 17.8825 13.9712 17.8825 15.7653V17.8845H9.38351C1.01203 17.8845 0.880103 17.8867 0.591682 18.0339C0.403136 18.1301 0.245532 18.2878 0.149367 18.4764C0.00207764 18.7653 0 18.8953 0 27.9422C0 36.9892 0.00207764 37.1192 0.149367 37.4081C0.245532 37.5967 0.403136 37.7544 0.591682 37.8506C0.880474 37.9979 1.01047 38 10.0543 38C19.0981 38 19.2281 37.9979 19.5169 37.8506C19.7054 37.7544 19.863 37.5967 19.9592 37.4081C20.1063 37.1196 20.1086 36.9876 20.1086 28.6133V20.1113H22.1999C24.1312 20.1113 24.3143 20.1001 24.5929 19.9647C24.7964 19.8657 26.9991 17.7102 31.3625 13.3399C38.3701 6.32117 38.0835 6.6419 37.9576 5.95961C37.9113 5.70813 37.5814 5.34939 35.1877 2.9477C33.6932 1.44817 32.3636 0.170496 32.2329 0.108516C31.8702 -0.0637649 31.5326 -0.0316988 31.1606 0.210356ZM33.5392 4.48672L35.2819 6.23121L33.5201 7.99373L31.7582 9.75625L29.9963 7.99373L28.2344 6.23121L29.9771 4.48672C30.9357 3.52719 31.7371 2.74216 31.7582 2.74216C31.7793 2.74216 32.5807 3.52719 33.5392 4.48672ZM26.917 14.5995L23.6337 17.8845H21.8712H20.1086V16.1219V14.3593L23.3915 11.0746L26.6745 7.78982L28.4374 9.5522L30.2003 11.3145L26.917 14.5995ZM17.8825 27.9422V35.7732H10.0543H2.22604V27.9422V20.1113H10.0543H17.8825V27.9422Z" fill="#DB3CAE"/>
</svg>
