<svg width="40" height="38" viewBox="0 0 40 38" fill="none" xmlns="http://www.w3.org/2000/svg">
<path fill-rule="evenodd" clip-rule="evenodd" d="M29.6549 0.100194C27.4768 0.442011 25.5277 1.58702 24.1342 3.34341C23.2744 4.427 22.7424 5.51678 22.3759 6.94548C22.1845 7.69132 22.1583 7.93798 22.1566 9.00862C22.1547 10.2741 22.2361 10.8019 22.5966 11.8595C22.7746 12.3822 23.1914 13.2541 23.4904 13.7296C23.593 13.8929 23.677 14.0438 23.677 14.065C23.677 14.0862 20.8551 14.1134 17.4061 14.1254C11.492 14.146 11.1234 14.1553 10.9257 14.29C10.4135 14.6391 10.4359 14.4459 10.3929 18.8936L10.3538 22.9339L9.74056 24.1354C9.23881 25.1184 9.06971 25.3787 8.81067 25.5672C8.63649 25.6938 8.46833 25.7974 8.43692 25.7974C8.40542 25.7974 8.34064 25.6415 8.2929 25.4511C8.18334 25.0144 7.8725 24.6398 7.46577 24.4543C7.19586 24.3312 6.9401 24.3103 5.70437 24.3103C4.45925 24.3103 4.21412 24.3306 3.93711 24.4569C3.53804 24.6388 3.24422 25.0161 3.12224 25.5032L3.02902 25.8759L2.15914 25.8776C1.1919 25.8795 0.833853 25.9882 0.453458 26.3955C0.128622 26.7433 0 27.1374 0 27.7849C0 28.4981 0.165427 28.7786 0.586065 28.7786C0.988497 28.7786 1.17213 28.4927 1.17213 27.8658C1.17213 27.1263 1.27114 27.0527 2.26612 27.0527H3.04754V31.1322V35.2117H2.23916C1.55526 35.2117 1.41085 35.1896 1.30146 35.0682C1.18745 34.9418 1.17213 34.658 1.17213 32.6703C1.17213 31.377 1.14009 30.3557 1.09696 30.2748C0.975291 30.0465 0.597161 29.923 0.378285 30.0401C0.00734534 30.2385 0.00507923 30.2547 0.00328196 32.7405C0.00156284 35.0658 0.00375082 35.0989 0.190198 35.5009C0.320695 35.7822 0.481199 35.9758 0.71078 36.1285C1.02444 36.3371 1.09797 36.3507 2.04513 36.3751C2.74364 36.3931 3.04769 36.4288 3.04801 36.4928C3.05043 37.0086 3.55835 37.7198 4.04901 37.8943C4.3665 38.0073 6.91236 38.0417 7.28073 37.9379C7.54227 37.8643 7.95025 37.524 8.12716 37.2319L8.26188 37.0096L20.9119 37.0136C32.8354 37.0174 33.5776 37.0097 33.8339 36.8796C33.9835 36.8037 34.1857 36.6216 34.2832 36.4749L34.4606 36.2084V26.7417V17.275L34.884 17.0988C35.9487 16.6558 37.396 15.4933 38.1723 14.4578C41.5362 9.97036 40.0932 3.47404 35.1845 1.00742C34.84 0.834273 34.4497 0.692666 34.3171 0.692666C33.9085 0.692666 33.6508 1.10697 33.8063 1.51383C33.8331 1.5842 34.0705 1.74989 34.3337 1.88193C37.5391 3.4902 39.2352 6.6683 38.7516 10.1601C38.3297 13.2064 35.9641 15.7699 32.8489 16.5566C31.8693 16.804 30.0249 16.8016 29.1079 16.5518C26.9685 15.9691 25.1374 14.4502 24.1284 12.4213C23.4651 11.0876 23.2001 9.62714 23.3596 8.18487C23.5663 6.31645 24.3662 4.6695 25.6968 3.37244C27.2336 1.87455 29.2396 1.1207 31.5281 1.18111C32.4306 1.20488 32.5432 1.15852 32.629 0.727891C32.6956 0.393762 32.4752 0.146167 32.0354 0.0609676C31.5431 -0.0343521 30.3915 -0.0153666 29.6549 0.100194ZM34.9811 5.41942C34.8759 5.51647 33.7602 6.76096 32.5018 8.18487C31.2434 9.60878 30.0619 10.9396 29.8764 11.1424L29.5391 11.5109L28.2837 10.1029C27.1223 8.80017 27.0085 8.69481 26.7623 8.69481C26.4401 8.69481 26.1776 8.94468 26.1776 9.25135C26.1776 9.48984 26.2201 9.54468 27.759 11.2932C28.3495 11.9641 28.9225 12.5541 29.0325 12.6044C29.363 12.7556 29.8756 12.7167 30.156 12.5194C30.2939 12.4222 31.6529 10.9349 33.1761 9.21408C35.6517 6.4171 35.9453 6.05732 35.9453 5.82102C35.9453 5.29421 35.3747 5.05658 34.9811 5.41942ZM16.7224 17.9816C16.7224 19.4217 16.7443 20.7098 16.771 20.844C16.8281 21.1305 17.1317 21.4617 17.3731 21.5006C17.7099 21.555 17.9934 21.401 18.9879 20.623C19.5439 20.1881 20.0523 19.8117 20.1174 19.7866C20.1921 19.7578 20.5606 19.9978 21.1164 20.4373C21.6007 20.8204 22.1129 21.2158 22.2545 21.316C22.7257 21.6496 23.3421 21.4926 23.5149 20.995C23.5685 20.8406 23.5989 19.7775 23.5989 18.0582V15.3633H24.1939H24.7888L25.2292 15.7425C26.1205 16.5098 27.2112 17.1405 28.2288 17.4768L28.7563 17.6512V19.9984C28.7563 22.2409 28.7632 22.3525 28.9125 22.5024C29.1231 22.7139 29.5462 22.7097 29.7405 22.4943C29.8782 22.3416 29.891 22.1639 29.9122 20.1091L29.9352 17.889L30.6937 17.9308C31.364 17.968 32.026 17.9151 32.9955 17.7471L33.2885 17.6963V26.7678V35.8393H31.6084H29.9284V30.0837C29.9284 24.3796 29.9269 24.3261 29.7664 24.1213C29.5635 23.8622 29.1453 23.8378 28.9125 24.0715C28.7591 24.2256 28.7563 24.333 28.7563 30.0339V35.8393H24.1654H19.5746V35.1725V34.5056H20.7958C22.1149 34.5056 22.354 34.4536 22.8115 34.0672C23.176 33.7592 23.3908 33.2875 23.3977 32.7797C23.4009 32.5424 23.3753 32.2705 23.3409 32.1754C23.287 32.027 23.3223 31.9799 23.5903 31.8427C24.1569 31.5525 24.4712 30.9896 24.473 30.2618C24.4742 29.7519 24.2913 29.3369 23.8988 28.9591C23.5438 28.6175 23.1436 28.4648 22.603 28.4648H22.149L22.1501 27.8568C22.1512 27.1889 22.0608 26.9487 21.651 26.5316C21.1083 25.9792 21.2498 25.9961 16.9451 25.9706L13.0653 25.9475L13.4287 25.2275C13.7813 24.5287 13.7921 24.4864 13.7921 23.7991C13.7921 23.1593 13.7695 23.0499 13.5583 22.667C13.1779 21.9775 12.509 21.5029 11.8971 21.4885L11.6432 21.4825V18.4229V15.3633H14.1828H16.7224V17.9816ZM22.4268 17.6384C22.4268 18.8897 22.4083 19.9135 22.3859 19.9135C22.3634 19.9135 22.0173 19.6516 21.6167 19.3315C20.4635 18.4097 20.2247 18.3008 19.8234 18.5133C19.7295 18.563 19.2776 18.8984 18.8192 19.2586C18.3607 19.6188 17.9651 19.9135 17.9401 19.9135C17.915 19.9135 17.8945 18.8897 17.8945 17.6384V15.3633H20.1606H22.4268V17.6384ZM12.1738 22.7822C12.4222 22.9568 12.659 23.4636 12.659 23.8203C12.659 24.0262 12.5327 24.384 12.2683 24.9268C11.8205 25.8461 11.7719 26.2212 12.0482 26.626C12.3786 27.1102 12.1831 27.0884 16.5924 27.1311L20.6432 27.1703L20.8316 27.3905C21.0709 27.6698 21.0709 27.9262 20.8317 28.2054L20.6432 28.4256L18.0513 28.4648C15.6001 28.5019 15.4533 28.5123 15.3485 28.6563C15.1835 28.8832 15.21 29.2783 15.4021 29.4529C15.5575 29.5942 15.768 29.6045 19.262 29.6416C22.7561 29.6787 22.9665 29.689 23.1219 29.8303C23.2315 29.93 23.2859 30.0736 23.2851 30.2618C23.2824 30.9088 23.3594 30.8968 19.1854 30.8968H15.5431L15.3514 31.0894C15.1069 31.3348 15.1069 31.6356 15.3514 31.881L15.5431 32.0736H18.6784H21.8137L22.0421 32.3029C22.1677 32.4291 22.2705 32.5897 22.2705 32.6599C22.2705 32.8902 22.0367 33.2473 21.8588 33.2885C21.7629 33.3108 20.1604 33.3378 18.2978 33.3485L14.9112 33.3681L14.7619 33.5533C14.5854 33.7723 14.5686 34.1015 14.7233 34.3141C14.8249 34.454 14.9657 34.4696 16.4492 34.5056L18.0644 34.5449L18.253 34.765C18.4922 35.0443 18.4922 35.3007 18.2529 35.58L18.0642 35.8001H13.4276C10.8774 35.8001 8.69424 35.773 8.57609 35.7398L8.3612 35.6794V31.3722V27.0648L8.65423 26.9708C9.6596 26.6481 10.0341 26.2018 11.1071 24.0482C11.6774 22.9034 11.8239 22.6644 11.9578 22.6605C11.9806 22.6599 12.0777 22.7146 12.1738 22.7822ZM7.0663 25.6069C7.17555 25.7166 7.18907 26.3285 7.18907 31.1613C7.18907 35.281 7.1664 36.6152 7.0953 36.6866C7.02981 36.7524 6.6062 36.7808 5.69147 36.7808C4.47629 36.7808 4.37556 36.7698 4.30055 36.629C4.2471 36.5286 4.21967 34.6578 4.21967 31.1037C4.21967 26.3233 4.23319 25.7165 4.34243 25.6069C4.44378 25.5052 4.68211 25.4836 5.70437 25.4836C6.72662 25.4836 6.96495 25.5052 7.0663 25.6069Z" fill="#FF6900"/>
</svg>
