<svg width="50" height="50" viewBox="0 0 50 50" fill="none" xmlns="http://www.w3.org/2000/svg">
<path fill-rule="evenodd" clip-rule="evenodd" d="M0.623983 0.0961958C0.510576 0.142012 0.323713 0.299096 0.208841 0.44514C0.00537244 0.703821 0 0.790763 0.000390722 3.84794C0.000683764 6.7829 0.0129915 7.00534 0.190672 7.29675C0.318243 7.506 0.502371 7.64208 0.751945 7.71134C1.15146 7.82231 6.39944 7.85924 6.92174 7.75481C7.08887 7.7214 7.3361 7.58346 7.47119 7.44836C7.70592 7.21361 7.71676 7.15158 7.71676 6.04389V4.8849L11.7461 4.88637L15.7754 4.88784L14.7498 5.43226C8.00375 9.01255 3.65433 15.618 2.97408 23.3157L2.91215 24.016L1.74086 24.0483L0.569575 24.0808L0.284836 24.3998L0 24.7189L0.000390722 27.8678C0.000683764 30.8143 0.0128938 31.0367 0.190672 31.3282C0.318243 31.5375 0.502371 31.6735 0.751945 31.7428C1.15146 31.8538 6.39944 31.8907 6.92174 31.7863C7.08887 31.7529 7.3361 31.6149 7.47119 31.4798L7.71676 31.2342V27.9686C7.71676 25.9156 7.67945 24.6331 7.61615 24.515C7.4205 24.1493 7.00535 24.0319 5.9086 24.0319H4.87221L4.93453 23.3237C5.62611 15.472 10.9569 8.59679 18.3868 5.97414C19.1315 5.71126 20.7669 5.27566 21.009 5.27566C21.0586 5.27566 21.099 5.6208 21.099 6.04262C21.099 6.95777 21.2188 7.35067 21.5703 7.58932C21.8095 7.75178 22.0999 7.76673 25.0062 7.76673C27.9125 7.76673 28.2029 7.75178 28.4421 7.58932C28.7937 7.35067 28.9134 6.95777 28.9134 6.04262C28.9134 5.6208 28.9539 5.27566 29.0034 5.27566C29.2456 5.27566 30.8809 5.71126 31.6256 5.97414C39.0555 8.59679 44.3863 15.472 45.0779 23.3237L45.1402 24.0319H44.1038C43.0071 24.0319 42.5919 24.1493 42.3963 24.515C42.333 24.6331 42.2957 25.9156 42.2957 27.9686V31.2342L42.5412 31.4798C42.6763 31.6149 42.9236 31.7529 43.0907 31.7863C43.613 31.8907 48.861 31.8538 49.2605 31.7428C49.5089 31.6738 49.6955 31.5366 49.8239 31.3282C50.0062 31.0326 50.0147 30.8528 49.9898 27.8093L49.9636 24.6018L49.6446 24.3169C49.3318 24.0374 49.3041 24.0319 48.2137 24.0319H47.1018L47.0391 23.3237C46.558 17.8867 44.2554 12.9503 40.4807 9.26234C38.794 7.61453 37.2785 6.50214 35.2627 5.43226L34.237 4.88784L38.2663 4.88637L42.2957 4.8849V6.04389C42.2957 7.15158 42.3065 7.21361 42.5412 7.44836C42.6763 7.58346 42.9236 7.7214 43.0907 7.75481C43.613 7.85924 48.861 7.82231 49.2605 7.71134C49.5089 7.64237 49.6955 7.50512 49.8239 7.29675C50.0062 7.00114 50.0147 6.82129 49.9898 3.7778L49.9636 0.570378L49.6446 0.285419L49.3255 0.000460659L46.1769 0.000851414C42.0966 0.00133986 42.3172 -0.10348 42.271 1.85655L42.2468 2.88228L35.5905 2.90739L28.934 2.93249L28.8994 1.76179C28.8659 0.63368 28.8547 0.581123 28.5937 0.320196L28.323 0.0493051H25.0062H21.6895L21.4187 0.320196C21.1577 0.581123 21.1466 0.63368 21.1131 1.76179L21.0784 2.93249L14.4219 2.90739L7.7656 2.88228L7.74148 1.85655C7.71051 0.544588 7.67867 0.424723 7.29898 0.193201C7.00301 0.0126718 6.79983 0.00153524 3.90722 0.00700581C2.21491 0.0102295 0.737488 0.0503797 0.623983 0.0961958ZM5.76315 3.90802V5.86179H3.85838H1.95361V3.90802V1.95424H3.85838H5.76315V3.90802ZM26.9375 3.88359L26.911 5.81295H25.0062H23.1014L23.075 3.88359L23.0485 1.95424H25.0062H26.9639L26.9375 3.88359ZM48.0588 3.90802V5.86179H46.1541H44.2493V3.90802V1.95424H46.1541H48.0588V3.90802ZM24.5087 10.4202C24.3351 10.528 23.5898 11.7855 22.14 14.4164C19.8051 18.6534 19.7792 18.7219 20.31 19.2527C20.6556 19.5983 21.145 19.635 21.5163 19.343C21.6527 19.2356 22.2154 18.3234 22.7664 17.3159C23.3175 16.3084 23.8271 15.3974 23.8989 15.2914C24.0089 15.129 24.0294 15.6581 24.0294 18.663V22.2274L23.5424 22.4586C22.9518 22.739 22.243 23.4737 21.9548 24.1043C21.6346 24.8047 21.651 26.04 21.9901 26.7672C22.3089 27.4506 22.9518 28.0947 23.6387 28.4187C24.0855 28.6295 24.3157 28.6721 25.0062 28.6721C25.6967 28.6721 25.927 28.6295 26.3737 28.4187C27.0606 28.0947 27.7036 27.4506 28.0223 26.7672C28.3614 26.04 28.3779 24.8047 28.0577 24.1043C27.7694 23.4737 27.0606 22.739 26.4701 22.4586L25.983 22.2274V18.6685C25.983 16.7111 26.0048 15.1315 26.0314 15.1581C26.1347 15.2614 32.6253 27.1016 32.6253 27.1868C32.6253 27.2365 32.4076 27.5153 32.1415 27.8065C30.5331 29.5665 29.1894 32.1014 28.6144 34.4602L28.3943 35.3638H25.0062H21.6182L21.398 34.4602C20.823 32.1014 19.4794 29.5665 17.8709 27.8065C17.6049 27.5153 17.3871 27.2368 17.3871 27.1877C17.3871 27.1384 17.6506 26.6171 17.9726 26.0291C18.2946 25.4411 18.5583 24.8632 18.5587 24.7448C18.5608 24.0216 17.8245 23.5438 17.1686 23.8426C16.909 23.9609 16.6988 24.2809 15.7746 25.9644C14.9456 27.4745 14.9493 27.59 15.8575 28.52C17.6387 30.3441 18.7708 32.2941 19.43 34.6733L19.6148 35.3403L18.8184 35.3846C17.7815 35.4425 17.1318 35.7218 16.563 36.3546C16.3277 36.6162 16.0653 37.0357 15.9798 37.2867C15.7811 37.8699 15.7811 38.7191 15.9798 39.3023C16.146 39.7902 16.8806 40.6868 17.1962 40.7869C17.3818 40.8458 17.3871 40.9658 17.3871 45.089V49.3302L17.6558 49.6283C17.8245 49.8154 18.0556 49.9471 18.2773 49.9823C18.5751 50.0297 18.6818 49.9923 18.9611 49.7428L19.2919 49.4473L19.3195 45.3362L19.3469 41.2252H25.0093H30.6717V45.2777V49.3302L30.9403 49.6283C31.1091 49.8154 31.3401 49.9471 31.5618 49.9823C31.8597 50.0297 31.9663 49.9923 32.2456 49.7428L32.5765 49.4472L32.6038 45.1465C32.6302 41.0001 32.6379 40.8436 32.8192 40.7861C33.1323 40.6866 33.8671 39.7882 34.0327 39.3023C34.2314 38.7191 34.2314 37.8699 34.0327 37.2867C33.9471 37.0357 33.6847 36.6162 33.4494 36.3546C32.8806 35.7218 32.231 35.4425 31.194 35.3846L30.3976 35.3403L30.5824 34.6733C31.2417 32.2941 32.3738 30.3441 34.155 28.52C35.2004 27.4495 35.5854 28.4195 30.3257 18.8709C26.8736 12.6038 25.69 10.5353 25.4879 10.4159C25.1515 10.2172 24.8336 10.2185 24.5087 10.4202ZM18.8523 20.8187C18.5033 20.9557 18.2709 21.2942 18.2684 21.6694C18.2656 22.0947 18.4036 22.3362 18.7527 22.5168C19.3216 22.8109 19.8333 22.6188 20.085 22.0165C20.2036 21.7327 20.2032 21.6412 20.0823 21.3519C19.9493 21.0336 19.5025 20.7031 19.2235 20.7167C19.1537 20.7201 18.9867 20.766 18.8523 20.8187ZM25.7792 24.3004C26.0976 24.5336 26.3735 25.0667 26.3733 25.4484C26.373 25.8358 26.0611 26.3317 25.6664 26.5723C24.7669 27.1209 23.5646 26.3633 23.6714 25.3152C23.7788 24.2621 24.9543 23.6962 25.7792 24.3004ZM5.76315 27.9395V29.8933H3.85838H1.95361V27.9395V25.9857H3.85838H5.76315V27.9395ZM48.0588 27.9395V29.8933H46.1541H44.2493V27.9395V25.9857H46.1541H48.0588V27.9395ZM31.7481 37.4651C32.0923 37.6431 32.2346 37.8858 32.2346 38.2945C32.2346 38.7032 32.0923 38.9459 31.7481 39.1239C31.5021 39.2511 30.574 39.2714 25.0062 39.2714C18.0886 39.2714 18.1388 39.2748 17.8785 38.7883C17.7494 38.5473 17.7492 38.0421 17.878 37.8015C18.1352 37.3208 18.0626 37.3257 24.9867 37.3215C30.5772 37.3181 31.5019 37.3378 31.7481 37.4651Z" fill="#4AD158"/>
</svg>
