<svg width="50" height="50" viewBox="0 0 50 50" fill="none" xmlns="http://www.w3.org/2000/svg">
<path d="M49.9444 24.9412V46.9599C50.0085 47.6172 49.8334 48.2756 49.4514 48.814C49.0693 49.3524 48.506 49.7345 47.865 49.8901C47.578 49.9601 47.2832 49.9932 46.9878 49.9886H2.99475C2.59032 50.0256 2.18272 49.9723 1.80135 49.8325C1.41998 49.6927 1.07433 49.4699 0.789336 49.1802C0.504346 48.8905 0.28711 48.5411 0.153292 48.1571C0.0194739 47.7732 -0.0275936 47.3643 0.0154879 46.9599V3.04375C-0.0272944 2.6355 0.0215409 2.22283 0.158415 1.83589C0.295289 1.44895 0.516747 1.09751 0.80662 0.80725C1.09649 0.516985 1.44745 0.295223 1.83387 0.158164C2.22029 0.0211057 2.63241 -0.0277897 3.04011 0.0150504C17.7146 0.0150504 32.3915 0.0150504 47.071 0.0150504C47.461 0.00109971 47.8496 0.0681173 48.2125 0.211883C48.5753 0.355648 48.9045 0.573048 49.1794 0.850414C49.4543 1.12778 49.6688 1.45911 49.8096 1.82355C49.9504 2.18799 50.0143 2.57765 49.9973 2.96803C49.9142 10.2823 49.9444 17.6118 49.9444 24.9412ZM1.55049 10.3581V46.9599C1.55049 48.1487 1.96637 48.5651 3.16866 48.5651H46.9047C48.0918 48.5651 48.5077 48.1487 48.5077 46.9447V10.8881C48.5077 10.7139 48.5077 10.5398 48.5077 10.3581H1.55049ZM1.48999 8.66955H48.4245V3.26333C48.4245 1.92313 48.0465 1.54454 46.7232 1.54454H3.23671C1.95881 1.54454 1.48244 2.02156 1.48244 3.30876C1.48244 4.91397 1.48244 6.51918 1.48244 8.12439L1.48999 8.66955Z" fill="#FF03B8"/>
<path d="M21.0451 34.507C20.7374 34.3512 20.4439 34.1688 20.168 33.9618C19.9702 33.7707 19.716 33.649 19.4433 33.6149C19.1706 33.5807 18.8943 33.6361 18.6556 33.7725C18.3408 33.8649 18.0631 34.0544 17.8621 34.3141C17.6611 34.5738 17.5472 34.8904 17.5365 35.2187C17.4156 36.2031 17.2492 36.2939 16.2435 36.2939H13.718C13.1206 36.2939 12.8333 36.0744 12.8181 35.4762C12.8628 35.0718 12.7561 34.6652 12.5186 34.3351C12.2812 34.005 11.9298 33.7749 11.5327 33.6893C11.3626 33.6118 11.175 33.5808 10.9891 33.5994C10.8032 33.618 10.6255 33.6856 10.4741 33.7953C9.2264 34.6887 9.21883 34.6736 8.13753 33.5984C7.66115 33.1214 7.17721 32.6443 6.7084 32.1598C6.61903 32.0901 6.54497 32.0027 6.49081 31.9032C6.43666 31.8036 6.40358 31.6939 6.39365 31.5809C6.38372 31.4679 6.39714 31.3541 6.43308 31.2466C6.46902 31.139 6.5267 31.0401 6.60254 30.9559C6.87475 30.547 7.35869 30.1532 7.35869 29.7217C7.35869 29.2901 7.03355 28.813 6.82183 28.3663C6.78872 28.3067 6.74323 28.255 6.68845 28.2145C6.63366 28.174 6.57086 28.1457 6.50424 28.1316C6.13373 28.0634 5.74808 28.0483 5.37757 28.0029C5.27433 28.0031 5.17215 27.9821 5.07733 27.9412C4.9825 27.9004 4.89702 27.8405 4.82618 27.7653C4.75534 27.6901 4.70062 27.6012 4.66541 27.504C4.63019 27.4068 4.61522 27.3034 4.62141 27.2003C4.62141 26.1705 4.62141 25.1483 4.62141 24.1186C4.61065 24.0223 4.62051 23.9248 4.65034 23.8326C4.68017 23.7405 4.72927 23.6557 4.79439 23.5841C4.85951 23.5124 4.93914 23.4555 5.02797 23.4171C5.11679 23.3787 5.21278 23.3597 5.30952 23.3614C5.74859 23.4076 6.18863 23.2833 6.53894 23.0143C6.88924 22.7452 7.12311 22.3518 7.19233 21.9152C7.26795 21.6047 7.35113 21.3927 7.13184 21.158C6.9156 20.8869 6.71853 20.601 6.54204 20.3024C6.43271 20.1534 6.38159 19.9696 6.3983 19.7855C6.41502 19.6013 6.49842 19.4297 6.63279 19.3029C7.32845 18.5912 8.02411 17.887 8.7349 17.198C8.80006 17.1218 8.87967 17.0594 8.96912 17.0143C9.05857 16.9692 9.15606 16.9424 9.25595 16.9354C9.35585 16.9283 9.45614 16.9412 9.55102 16.9733C9.64589 17.0054 9.73346 17.056 9.80864 17.1223C10.6328 18.0006 11.4873 17.8264 12.3796 17.304C12.5224 17.213 12.6273 17.0731 12.6745 16.9103C12.7803 16.5241 12.8333 16.1531 12.9164 15.7442C12.937 15.5582 13.0256 15.3863 13.1653 15.2619C13.3049 15.1374 13.4857 15.0692 13.6726 15.0703C14.6858 15.0703 15.6915 15.0703 16.6972 15.0703C17.1585 15.0703 17.5214 15.3202 17.5063 15.7745C17.4736 16.0079 17.4883 16.2455 17.5496 16.4731C17.6109 16.7007 17.7174 16.9135 17.8629 17.0988C18.0084 17.2841 18.1898 17.438 18.3962 17.5514C18.6026 17.6647 18.8297 17.7351 19.064 17.7583C19.2455 17.8195 19.442 17.8195 19.6235 17.7583C19.9368 17.5731 20.2397 17.3709 20.5309 17.1526C20.6063 17.0851 20.6943 17.0335 20.7899 17.0007C20.8855 16.968 20.9867 16.9547 21.0875 16.9618C21.1883 16.9689 21.2867 16.9961 21.3768 17.0418C21.4669 17.0876 21.547 17.151 21.6122 17.2283C22.3079 17.9097 22.996 18.5988 23.6765 19.2954C23.7588 19.3603 23.8268 19.4417 23.876 19.5344C23.9253 19.627 23.9547 19.7289 23.9625 19.8336C23.9704 19.9382 23.9564 20.0434 23.9214 20.1423C23.8865 20.2413 23.8314 20.3319 23.7597 20.4084C23.4448 20.7018 23.249 21.1012 23.21 21.5301C23.1709 21.9591 23.2912 22.3873 23.548 22.7329C23.7068 22.9979 23.8202 23.1797 24.1302 23.2251C24.4402 23.2705 24.7805 23.3614 25.0981 23.4295C25.1995 23.4343 25.2989 23.4594 25.3903 23.5034C25.4818 23.5475 25.5635 23.6095 25.6305 23.6858C25.6976 23.7621 25.7486 23.8511 25.7805 23.9476C25.8124 24.0441 25.8247 24.146 25.8164 24.2473C25.8164 25.2392 25.8164 26.2311 25.8164 27.223C25.8164 27.6773 25.582 28.0483 25.1132 28.0256C24.6488 27.9854 24.1872 28.1295 23.8279 28.427C23.4686 28.7244 23.2404 29.1513 23.1926 29.6156C23.1493 29.7882 23.168 29.9705 23.2455 30.1305C23.429 30.4239 23.6285 30.707 23.8429 30.9786C23.9111 31.053 23.9638 31.1404 23.9977 31.2356C24.0317 31.3308 24.0463 31.4318 24.0406 31.5327C24.035 31.6336 24.0093 31.7324 23.9649 31.8232C23.9205 31.914 23.8585 31.9949 23.7824 32.0613C23.1094 32.7655 22.4213 33.4545 21.7105 34.1284C21.5061 34.283 21.2824 34.4103 21.0451 34.507ZM9.33982 32.7428C9.66497 32.5308 9.97498 32.3415 10.2623 32.1295C10.4303 31.994 10.6361 31.9139 10.8515 31.9003C11.0668 31.8868 11.281 31.9404 11.4646 32.0538C12.0753 32.3405 12.7013 32.5933 13.3399 32.8109C13.5168 32.8542 13.6768 32.9494 13.7994 33.0843C13.922 33.2192 14.0016 33.3876 14.028 33.5681C14.096 33.977 14.1716 34.3859 14.2624 34.8477H14.8446C16.0091 34.8477 16.0167 34.8477 16.1981 33.6893C16.2186 33.4748 16.3076 33.2727 16.4521 33.1131C16.5965 32.9535 16.7886 32.8448 16.9997 32.8034C17.3909 32.7363 17.7672 32.6004 18.1112 32.4021C18.4783 32.0862 18.955 31.9281 19.4378 31.9621C19.9205 31.9962 20.3704 32.2195 20.6897 32.5838C20.7419 32.6235 20.8037 32.6486 20.8688 32.6566C20.9339 32.6646 21 32.6552 21.0602 32.6292C21.4761 32.2809 21.8164 31.872 22.2474 31.5389L21.5593 30.494C21.4529 30.3454 21.3913 30.1694 21.3819 29.9869C21.3725 29.8043 21.4157 29.6229 21.5064 29.4642C21.7956 28.841 22.0481 28.2014 22.2625 27.5486C22.3054 27.3632 22.4063 27.1964 22.5505 27.0725C22.6947 26.9486 22.8746 26.874 23.064 26.8595C23.4345 26.8217 23.8202 26.746 24.1831 26.6778V24.906C23.7824 24.8303 23.427 24.7546 23.0413 24.694C22.8625 24.6672 22.6954 24.5882 22.561 24.4671C22.4265 24.3459 22.3306 24.1879 22.2852 24.0126C22.0432 23.3462 21.7786 22.6875 21.4761 22.0439C21.3836 21.8779 21.3415 21.6884 21.3549 21.4988C21.3683 21.3092 21.4367 21.1276 21.5517 20.9763C21.7786 20.6507 21.9903 20.3175 22.1869 20.0147L20.977 18.7578C20.6519 18.9698 20.3343 19.1666 20.0243 19.3862C19.8542 19.5165 19.6481 19.5908 19.4341 19.5989C19.2202 19.6071 19.009 19.5486 18.8296 19.4316C18.2359 19.1415 17.6247 18.8886 16.9997 18.6745C16.8037 18.6297 16.6262 18.5259 16.491 18.3769C16.3558 18.228 16.2694 18.0412 16.2435 17.8416C16.1906 17.4554 16.115 17.0844 16.0469 16.668H14.2851C14.2095 17.0844 14.1263 17.4706 14.0733 17.8643C14.0491 18.0409 13.974 18.2066 13.8572 18.3411C13.7403 18.4756 13.5868 18.573 13.4155 18.6215C12.7425 18.8789 12.0695 19.1515 11.4041 19.4392C11.2364 19.5279 11.0467 19.5665 10.8577 19.5504C10.6687 19.5342 10.4883 19.4641 10.3379 19.3484C10.0204 19.1136 9.68765 18.9168 9.44569 18.7578L8.1451 19.9541C8.36438 20.2797 8.56854 20.6053 8.78782 20.9157C8.91723 21.0868 8.98728 21.2955 8.98728 21.5101C8.98728 21.7247 8.91723 21.9334 8.78782 22.1045C8.47317 22.6264 8.21946 23.1828 8.03167 23.7627C7.98514 23.9811 7.8709 24.1793 7.70523 24.3289C7.53957 24.4784 7.33095 24.5718 7.10916 24.5956L6.02786 24.7849V25.383C6.02786 26.5037 6.02785 26.5112 7.13184 26.7384C7.32141 26.7587 7.5012 26.833 7.64994 26.9524C7.79869 27.0718 7.91015 27.2314 7.97117 27.4123C8.22827 28.124 8.50805 28.8282 8.79539 29.5248C8.88191 29.6853 8.91944 29.8678 8.90331 30.0495C8.88718 30.2313 8.81809 30.4042 8.70465 30.547C8.48536 30.8499 8.27364 31.1603 8.05435 31.4783L9.33982 32.7428Z" fill="#FF03B8"/>
<path d="M33.4955 45.5364H32.4067C31.779 45.5364 31.59 45.3698 31.4539 44.7792C31.4539 44.7792 31.4539 44.7792 31.4539 44.7338C31.5068 43.8176 30.8187 43.5753 30.1533 43.3406C30.0776 43.3296 30.0005 43.3355 29.9273 43.3578C29.8541 43.38 29.7867 43.4181 29.7299 43.4693C28.3915 44.4763 28.2705 44.1432 27.4009 43.2119C27.0758 42.8636 26.7355 42.5228 26.4028 42.1745C26.2998 42.1021 26.2139 42.008 26.1511 41.8987C26.0883 41.7895 26.0502 41.6678 26.0393 41.5423C26.0285 41.4167 26.0453 41.2903 26.0885 41.1719C26.1317 41.0535 26.2003 40.9461 26.2894 40.857C26.3076 40.8279 26.3278 40.8001 26.3499 40.7738C27.106 40.1756 26.6674 39.5396 26.3499 38.9338C26.2894 38.7975 26.0323 38.7294 25.8508 38.6915C24.5502 38.4265 24.5351 38.4114 24.5351 37.0787C24.5351 36.5109 24.5351 35.9506 24.5351 35.3902C24.5158 35.2766 24.5205 35.1601 24.5489 35.0483C24.5774 34.9366 24.6288 34.832 24.7001 34.7414C24.7713 34.6508 24.8607 34.5762 24.9626 34.5223C25.0644 34.4684 25.1763 34.4365 25.2912 34.4286H25.4878C25.8128 34.3765 26.112 34.2197 26.3399 33.9819C26.5678 33.7442 26.712 33.4384 26.7506 33.1112C26.7518 32.9167 26.6879 32.7274 26.5691 32.5736C25.813 31.4075 25.7752 31.4151 26.7884 30.4383L28.0739 29.1965C28.2029 29.0549 28.3808 28.9675 28.5717 28.952C28.7626 28.9365 28.9522 28.9942 29.1023 29.1133C29.1761 29.1524 29.2447 29.2007 29.3064 29.2571C29.8584 29.8629 30.4482 29.6433 31.038 29.3328C31.1542 29.2611 31.2382 29.1471 31.2724 29.0148C31.3556 28.7422 31.3934 28.4621 31.4539 28.1895C31.4633 28.0899 31.4924 27.9931 31.5394 27.9048C31.5865 27.8165 31.6505 27.7384 31.7278 27.6751C31.8052 27.6117 31.8943 27.5643 31.9901 27.5356C32.0858 27.507 32.1863 27.4976 32.2857 27.508C33.0418 27.508 33.8736 27.508 34.6676 27.508C35.2498 27.508 35.4615 27.7049 35.5674 28.2652C35.5741 28.2977 35.5741 28.3312 35.5674 28.3637C35.4161 29.3328 36.2025 29.4464 36.8075 29.719C36.8766 29.7264 36.9465 29.7194 37.0129 29.6986C37.0792 29.6778 37.1406 29.6435 37.1931 29.5979C38.5769 28.5605 38.6525 28.8937 39.5901 29.878L40.5807 30.9229C40.6712 30.9972 40.7457 31.0891 40.7996 31.1932C40.8535 31.2972 40.8857 31.4112 40.8942 31.5281C40.9027 31.645 40.8873 31.7624 40.849 31.8731C40.8107 31.9839 40.7503 32.0856 40.6714 32.1722C40.6714 32.1722 40.6714 32.1723 40.6714 32.2101C39.9153 32.8007 40.2631 33.4519 40.5882 34.0803C40.6638 34.201 40.783 34.2878 40.921 34.3226C41.1554 34.3908 41.4049 34.4135 41.6771 34.4665C41.9455 34.4915 42.1931 34.6217 42.3659 34.8288C42.5387 35.0359 42.6227 35.3031 42.5996 35.572C42.5996 36.2837 42.5996 36.9955 42.5996 37.7072C42.5996 38.4189 42.403 38.5628 41.7981 38.6991H41.6998C40.7622 38.6158 40.6185 39.3806 40.3614 39.9939C40.316 40.0999 40.4295 40.2967 40.5126 40.4254C41.3444 41.6672 41.352 41.6672 40.2707 42.697L39.2272 43.6965C39.1519 43.8015 39.0548 43.889 38.9424 43.9528C38.8301 44.0167 38.7053 44.0553 38.5766 44.0661C38.4479 44.0769 38.3184 44.0596 38.197 44.0154C38.0757 43.9712 37.9653 43.9011 37.8737 43.81C37.8279 43.7912 37.7866 43.7628 37.7527 43.7267C37.1855 43.0301 36.5731 43.4087 35.9833 43.6662C35.8698 43.7192 35.7942 43.916 35.764 44.0675C35.454 45.4682 35.454 45.4682 34.0248 45.4682L33.4955 45.5364ZM26.0171 37.056C26.2262 37.1061 26.4384 37.1415 26.6523 37.162C26.9015 37.1613 27.1431 37.248 27.3351 37.4071C27.5271 37.5661 27.6574 37.7875 27.7034 38.0328C27.8602 38.5204 28.0574 38.994 28.2932 39.4487C28.3945 39.6209 28.4402 39.8204 28.424 40.0196C28.4077 40.2189 28.3304 40.4082 28.2024 40.5617C28.0361 40.7738 27.8848 41.0085 27.7639 41.1826L28.7015 42.22C28.8115 42.1625 28.9153 42.094 29.0115 42.0155C29.1217 41.8805 29.2578 41.769 29.4118 41.6877C29.5658 41.6064 29.7345 41.5568 29.908 41.542C30.0815 41.5271 30.2562 41.5473 30.4217 41.6014C30.5872 41.6554 30.7402 41.7422 30.8717 41.8565C31.0333 41.9745 31.2194 42.0547 31.4161 42.0912C31.6281 42.0987 31.8361 42.1507 32.0267 42.2439C32.2173 42.3371 32.3861 42.4694 32.5223 42.6322C32.6585 42.795 32.759 42.9847 32.8173 43.1889C32.8755 43.3931 32.8902 43.6073 32.8604 43.8176C32.8604 43.8176 32.8603 43.8706 32.9133 43.8933H34.1307C34.1812 43.6787 34.2191 43.4612 34.2441 43.2421C34.2507 42.9928 34.3456 42.7539 34.5118 42.568C34.678 42.3822 34.9047 42.2615 35.1515 42.2275C35.6215 42.0769 36.077 41.8843 36.5126 41.6521C36.6846 41.5506 36.8837 41.5048 37.0827 41.5211C37.2817 41.5374 37.4708 41.6148 37.6241 41.7429C37.8358 41.9171 38.0703 42.0609 38.2517 42.1897L39.212 41.3113C39.0684 41.1069 38.955 40.9252 38.8113 40.7586C38.6225 40.5883 38.5033 40.354 38.4768 40.101C38.4502 39.8479 38.5182 39.594 38.6676 39.3881C38.8289 39.1602 38.9445 38.903 39.0079 38.6309C39.0181 38.4142 39.0723 38.2017 39.1672 38.0066C39.2621 37.8115 39.3957 37.6378 39.5599 37.4961C39.724 37.3544 39.9153 37.2476 40.122 37.1824C40.3287 37.1171 40.5465 37.0948 40.7622 37.1166C40.7622 37.1166 40.8151 37.1166 40.868 37.0409C40.868 36.8667 40.868 36.6699 40.8227 36.473C40.7773 36.2761 40.8227 36.0868 40.7773 35.9051C39.265 35.5871 39.4465 35.9051 38.9171 34.3529C38.9214 34.3202 38.9214 34.2872 38.9171 34.2545C38.3652 33.3762 38.161 32.513 39.144 31.7861L38.2064 30.8093C38.0022 30.9532 37.8207 31.0668 37.6544 31.2031C37.4801 31.3824 37.2466 31.492 36.9976 31.5115C36.7485 31.531 36.5008 31.4591 36.3008 31.3091C36.0629 31.1645 35.8092 31.0476 35.5447 30.9608C34.2139 30.4913 34.3273 30.726 34.0324 29.2041C34.0324 29.2041 33.9946 29.1587 33.9795 29.136H32.7242C32.9284 30.3247 32.2327 30.7715 31.2573 30.9835C31.2078 30.9926 31.1611 31.0133 31.1212 31.0441C30.95 31.194 30.7506 31.3082 30.5347 31.3799C30.3188 31.4517 30.0908 31.4795 29.864 31.4619C29.6373 31.4443 29.4163 31.3815 29.2141 31.2772C29.0118 31.173 28.8324 31.0293 28.6864 30.8548L27.7412 31.7407C27.8461 31.9007 27.9597 32.0549 28.0814 32.2025C28.2859 32.3944 28.4122 32.6554 28.4359 32.935C28.4597 33.2146 28.3792 33.4932 28.21 33.7169C28.0038 34.111 27.8366 34.5244 27.7109 34.9511C27.6657 35.1457 27.5628 35.3222 27.4158 35.4573C27.2687 35.5924 27.0843 35.6799 26.8867 35.7083C26.0171 35.8673 26.0171 35.8748 26.0323 36.7683L26.0171 37.056Z" fill="#FF03B8"/>
<path d="M29.7994 18.5769L31.7881 20.3335C32.1435 20.6516 32.5443 20.962 32.8694 21.2876C32.9608 21.3465 33.0384 21.4245 33.0969 21.5163C33.1554 21.608 33.1936 21.7113 33.2086 21.819C33.2237 21.9268 33.2154 22.0366 33.1842 22.1409C33.1531 22.2452 33.0999 22.3415 33.0282 22.4233C32.9574 22.5118 32.8676 22.5832 32.7655 22.6322C32.6634 22.6812 32.5516 22.7067 32.4384 22.7067C32.3252 22.7067 32.2134 22.6812 32.1113 22.6322C32.0092 22.5832 31.9195 22.5118 31.8486 22.4233C30.6388 21.4138 29.4365 20.3764 28.2418 19.3114C28.117 19.2285 28.0146 19.116 27.9438 18.9838C27.873 18.8517 27.8359 18.7041 27.8359 18.5542C27.8359 18.4042 27.873 18.2566 27.9438 18.1245C28.0146 17.9924 28.117 17.8799 28.2418 17.797L31.773 14.7683C32.2645 14.3519 32.6879 14.3443 33.0282 14.7683C33.3685 15.1923 33.2475 15.5255 32.7938 15.9268C31.8637 16.7975 30.8354 17.6683 29.7994 18.5769Z" fill="#FF03B8"/>
<path d="M43.396 18.4904C42.4508 17.6499 41.5207 16.8322 40.5907 16.022C40.4924 15.9312 40.3865 15.8479 40.2958 15.757C40.2136 15.6943 40.1452 15.6155 40.0946 15.5253C40.0441 15.4351 40.0125 15.3355 40.0019 15.2326C39.9913 15.1298 40.0018 15.0258 40.0328 14.9272C40.0639 14.8285 40.1148 14.7373 40.1824 14.6591C40.2533 14.5773 40.341 14.5117 40.4395 14.4667C40.538 14.4217 40.645 14.3984 40.7533 14.3984C40.8615 14.3984 40.9685 14.4217 41.067 14.4667C41.1655 14.5117 41.2532 14.5773 41.3241 14.6591L44.258 17.1881C44.4849 17.3774 44.7193 17.5667 44.9386 17.7711C45.0618 17.8551 45.1626 17.9681 45.2323 18.1C45.302 18.232 45.3384 18.379 45.3384 18.5283C45.3384 18.6775 45.302 18.8246 45.2323 18.9565C45.1626 19.0885 45.0618 19.2014 44.9386 19.2854L41.3317 22.3899C41.2607 22.473 41.1726 22.5397 41.0734 22.5855C40.9742 22.6312 40.8663 22.6549 40.757 22.6549C40.6478 22.6549 40.5399 22.6312 40.4407 22.5855C40.3415 22.5397 40.2533 22.473 40.1824 22.3899C40.1116 22.3087 40.059 22.2133 40.0281 22.1101C39.9971 22.0069 39.9885 21.8983 40.0028 21.7915C40.0171 21.6847 40.054 21.5822 40.1111 21.4908C40.1681 21.3995 40.244 21.3213 40.3336 21.2617C41.2183 20.4666 42.1181 19.6868 43.0104 18.8993C43.1314 18.7479 43.2448 18.6343 43.396 18.4904Z" fill="#FF03B8"/>
<path d="M35.0632 23.6964C34.9271 23.7039 34.7915 23.6743 34.6707 23.6109C34.5499 23.5475 34.4485 23.4526 34.3772 23.3362C34.3059 23.2198 34.2674 23.0863 34.2657 22.9497C34.264 22.8132 34.2992 22.6787 34.3676 22.5606C34.7154 21.6293 35.0784 20.7131 35.4413 19.7893L37.6417 14.0651C37.8005 13.6411 38.0501 13.3079 38.5416 13.3761C39.0331 13.4442 39.3431 13.9667 39.1162 14.5497C38.4433 16.3291 37.7627 18.0933 37.0822 19.8499C36.6739 20.91 36.258 21.97 35.8497 23.0376C35.8052 23.2167 35.7051 23.377 35.5637 23.4954C35.4224 23.6138 35.2471 23.6842 35.0632 23.6964Z" fill="#FF03B8"/>
<path d="M36.4008 5.94401H27.7957C27.1303 5.94401 26.8354 5.72443 26.8052 5.23984C26.7838 5.04235 26.8408 4.84436 26.9639 4.68855C27.0869 4.53275 27.2662 4.43162 27.463 4.40695C27.6292 4.3956 27.7959 4.3956 27.9621 4.40695H45.0588C45.6561 4.40695 46.0115 4.70225 46.0266 5.16412C46.0418 5.626 45.7015 5.9213 45.0512 5.9213C43.6448 5.9213 42.2383 5.9213 40.8319 5.9213L36.4008 5.94401Z" fill="#FF03B8"/>
<path d="M9.08161 5.18045C9.07762 5.84924 8.81002 6.4894 8.33704 6.96161C7.86405 7.43381 7.22395 7.69986 6.55605 7.70184C5.88083 7.69984 5.23383 7.43036 4.75638 6.95226C4.27892 6.47416 4.00981 5.82629 4.00781 5.15016C4.02333 4.48172 4.29645 3.84519 4.77001 3.37381C5.24357 2.90243 5.88087 2.63275 6.54849 2.6212C6.88393 2.61811 7.21657 2.68236 7.52679 2.81017C7.83701 2.93798 8.11849 3.12674 8.35463 3.36531C8.59077 3.60389 8.77676 3.88743 8.90162 4.19919C9.02649 4.51095 9.08768 4.84461 9.08161 5.18045ZM6.56361 4.18098C6.30418 4.17691 6.05367 4.27572 5.86669 4.45586C5.67971 4.63599 5.57145 4.88284 5.56549 5.14259C5.577 5.39356 5.68247 5.63099 5.86091 5.8076C6.03935 5.98421 6.27768 6.08705 6.52843 6.09564C6.77918 6.10423 7.02396 6.01795 7.21404 5.85397C7.40412 5.68999 7.52557 5.46033 7.55418 5.21074C7.55824 4.94292 7.45637 4.68436 7.27081 4.49146C7.08524 4.29855 6.83103 4.18694 6.56361 4.18098Z" fill="#FF03B8"/>
<path d="M11.0274 5.15007C11.0372 4.4811 11.3075 3.8424 11.7806 3.37002C12.2538 2.89764 12.8924 2.62893 13.5605 2.6211C14.064 2.61961 14.5565 2.76793 14.9756 3.04725C15.3948 3.32656 15.7216 3.72426 15.9146 4.18989C16.1076 4.65551 16.1581 5.16807 16.0597 5.66248C15.9613 6.1569 15.7184 6.61089 15.3619 6.96684C15.0053 7.32279 14.5512 7.56464 14.0572 7.66171C13.5631 7.75877 13.0514 7.70667 12.587 7.51201C12.1226 7.31735 11.7264 6.98892 11.4487 6.56839C11.171 6.14786 11.0244 5.6542 11.0274 5.15007ZM14.5586 5.25607C14.5747 5.11813 14.562 4.97836 14.5215 4.84555C14.481 4.71273 14.4135 4.58974 14.3233 4.4843C14.233 4.37886 14.122 4.29326 13.9971 4.23286C13.8722 4.17247 13.7362 4.13858 13.5976 4.13335C13.459 4.12811 13.3209 4.15163 13.1918 4.20243C13.0627 4.25323 12.9455 4.33022 12.8476 4.42855C12.7497 4.52687 12.6731 4.64442 12.6227 4.7738C12.5723 4.90318 12.5492 5.0416 12.5548 5.18035C12.5675 5.43804 12.6749 5.68193 12.8564 5.86506C13.0379 6.04819 13.2806 6.15761 13.5378 6.17225C13.6654 6.18149 13.7936 6.1649 13.9146 6.12348C14.0357 6.08205 14.1472 6.01664 14.2424 5.93113C14.3377 5.84563 14.4148 5.7418 14.4691 5.62582C14.5234 5.50984 14.5539 5.38409 14.5586 5.25607Z" fill="#FF03B8"/>
<path d="M23.1636 5.19548C23.1577 5.86489 22.8868 6.50462 22.4106 6.97442C21.9343 7.44422 21.2915 7.70577 20.623 7.70174C19.9542 7.69196 19.3155 7.42158 18.8426 6.94799C18.3696 6.4744 18.0996 5.83489 18.0898 5.1652C18.1056 4.48756 18.3845 3.84275 18.8674 3.36772C19.3502 2.89269 19.999 2.62485 20.6759 2.62109C21.3439 2.64083 21.9777 2.92099 22.4424 3.40187C22.9071 3.88275 23.1659 4.52633 23.1636 5.19548ZM19.6475 5.19548C19.6495 5.46196 19.7561 5.71695 19.9443 5.90538C20.1324 6.09381 20.3871 6.20055 20.6532 6.20253C20.9104 6.18788 21.1532 6.07846 21.3347 5.89534C21.5161 5.71221 21.6236 5.46832 21.6362 5.21063C21.6322 4.94417 21.5237 4.68997 21.3341 4.50296C21.1446 4.31594 20.8891 4.21113 20.623 4.21116C20.3693 4.21485 20.1267 4.31587 19.9452 4.49337C19.7637 4.67088 19.6572 4.91135 19.6475 5.1652V5.19548Z" fill="#FF03B8"/>
<path d="M15.2308 20.3596C16.2777 20.3596 17.301 20.6704 18.1715 21.2528C19.0419 21.8352 19.7203 22.663 20.121 23.6315C20.5216 24.6 20.6264 25.6657 20.4222 26.6938C20.2179 27.722 19.7138 28.6664 18.9736 29.4076C18.2333 30.1489 17.2902 30.6537 16.2634 30.8582C15.2367 31.0627 14.1724 30.9577 13.2052 30.5566C12.238 30.1554 11.4114 29.4761 10.8297 28.6044C10.2481 27.7328 9.9377 26.7081 9.9377 25.6598C9.93165 24.9621 10.0644 24.2701 10.3283 23.6243C10.5921 22.9786 10.9818 22.3919 11.4745 21.8985C11.9672 21.4051 12.5532 21.0149 13.1981 20.7507C13.843 20.4865 14.534 20.3535 15.2308 20.3596ZM15.2308 29.4457C16.2335 29.4457 17.1952 29.0468 17.9042 28.3368C18.6132 27.6268 19.0116 26.6639 19.0116 25.6598C19.0116 24.911 18.7898 24.1791 18.3744 23.5565C17.9589 22.9339 17.3685 22.4486 16.6776 22.1621C15.9868 21.8756 15.2266 21.8006 14.4932 21.9467C13.7598 22.0928 13.0861 22.4533 12.5574 22.9828C12.0286 23.5123 11.6685 24.1868 11.5227 24.9212C11.3768 25.6556 11.4516 26.4168 11.7378 27.1086C12.024 27.8004 12.5086 28.3916 13.1303 28.8076C13.752 29.2236 14.483 29.4457 15.2308 29.4457Z" fill="#FF03B8"/>
<path d="M37.9147 36.4371C37.9207 37.3225 37.6638 38.1898 37.1765 38.9287C36.6893 39.6677 35.9938 40.245 35.1782 40.5873C34.3627 40.9296 33.4639 41.0216 32.5961 40.8514C31.7283 40.6812 30.9306 40.2566 30.3043 39.6316C29.6779 39.0065 29.2512 38.2092 29.0783 37.3408C28.9054 36.4724 28.9941 35.5721 29.3332 34.7543C29.6723 33.9365 30.2464 33.2381 30.9827 32.7477C31.719 32.2573 32.5842 31.997 33.4685 32C34.6433 32.006 35.7685 32.4748 36.6006 33.3052C37.4327 34.1356 37.9048 35.2607 37.9147 36.4371ZM30.5498 36.5204C30.5468 36.9051 30.6199 37.2866 30.7648 37.6429C30.9098 37.9992 31.1237 38.3233 31.3944 38.5964C31.665 38.8695 31.9869 39.0862 32.3416 39.2341C32.6963 39.3821 33.0767 39.4582 33.461 39.4582C34.2345 39.4372 34.9705 39.1201 35.5176 38.5722C36.0648 38.0243 36.3814 37.2873 36.4024 36.5128C36.3643 35.7624 36.0397 35.0553 35.4958 34.5377C34.9519 34.0201 34.2302 33.7314 33.4799 33.7314C32.7295 33.7314 32.0078 34.0201 31.4639 34.5377C30.92 35.0553 30.5955 35.7624 30.5573 36.5128L30.5498 36.5204Z" fill="#FF03B8"/>
</svg>
