<svg width="40" height="40" viewBox="0 0 40 40" fill="none" xmlns="http://www.w3.org/2000/svg">
<path fill-rule="evenodd" clip-rule="evenodd" d="M18.672 0.0743478C16.6232 0.303289 14.649 1.10794 12.9305 2.41473C10.0945 4.57114 8.36065 8.03997 8.36065 11.557V12.4759L7.85219 12.5603C6.44188 12.7942 5.33528 13.8587 5.08015 15.2268C4.97845 15.7723 4.97892 17.5956 5.08086 18.1377C5.40293 19.8501 7.08306 21.0111 8.99519 20.8426C9.51826 20.7965 9.80284 20.6294 9.91712 20.3013C9.97321 20.1402 10.0011 18.5735 10.0011 15.5816C10.0011 11.1219 10.033 10.4283 10.2883 9.33237C10.84 6.96446 12.3815 4.7455 14.4147 3.39266C16.1796 2.21832 17.8938 1.69828 20 1.69828C22.1062 1.69828 23.8204 2.21832 25.5853 3.39266C27.0009 4.33454 28.43 5.99099 29.0235 7.37762C29.7924 9.17412 29.9139 9.76461 29.9864 12.056L30.038 13.6849L30.2931 13.913C30.5229 14.1185 30.6018 14.1411 31.09 14.1411C32.0069 14.1411 32.3937 14.2632 32.8161 14.686C33.2904 15.1607 33.3877 15.5781 33.3446 16.9518C33.3174 17.8154 33.2906 17.9751 33.121 18.2817C32.8838 18.7105 32.3973 19.0641 31.9648 19.1222L31.6393 19.1658V17.7542V16.3424L31.399 16.1018C31.07 15.7725 30.6528 15.7677 30.2931 16.0893L30.038 16.3173L29.9903 19.1582C29.9404 22.1351 29.9127 22.3918 29.5285 23.4264C28.7905 25.4139 27.1707 27.0665 25.2169 27.8254C24.605 28.0631 23.7086 28.2565 22.8855 28.3283L22.373 28.373L22.242 28.0979C21.7839 27.1365 20.6211 26.5376 19.5918 26.733C17.7994 27.0732 16.9513 29.0184 17.9342 30.5346C18.3848 31.2298 19.1425 31.6557 19.9288 31.6557C20.262 31.6557 20.3605 31.6195 20.5528 31.4271C20.6784 31.3014 20.7852 31.1167 20.7901 31.0166C20.8201 30.4125 20.661 30.2107 20 30.0137C19.339 29.8166 19.1799 29.6148 19.2099 29.0107C19.2148 28.9106 19.3216 28.726 19.4472 28.6002C19.6239 28.4234 19.7466 28.3717 19.9896 28.3717C20.4232 28.3717 20.6793 28.6113 20.8198 29.1486C20.8815 29.3848 21.0198 29.6626 21.131 29.7741C21.317 29.9604 21.3904 29.9764 22.1693 29.9997C27.0478 30.1455 31.2988 26.3595 31.6151 21.5872C31.6681 20.7877 31.6194 20.8474 32.2919 20.7568C32.801 20.6882 33.5659 20.2765 34.0088 19.8326C34.4763 19.3641 34.8028 18.7562 34.9191 18.1377C35.0211 17.5956 35.0216 15.7723 34.9198 15.2268C34.6647 13.8587 33.5581 12.7942 32.1478 12.5603L31.6393 12.4759V11.557C31.6393 8.03997 29.9055 4.57114 27.0695 2.41473C24.6214 0.553184 21.6927 -0.263043 18.672 0.0743478ZM18.3089 3.51221C14.7574 4.25908 12.0648 7.26463 11.7269 10.8592C11.6869 11.2841 11.6747 11.7126 11.6998 11.8113C11.8297 12.3235 12.283 12.5831 12.7678 12.423C13.1622 12.2927 13.2854 12.0404 13.3648 11.2008C13.4589 10.2042 13.6179 9.62152 14.0275 8.77175C14.8521 7.06064 16.3134 5.81937 18.1643 5.25788C18.7908 5.0678 18.9905 5.04458 20 5.04458C21.0095 5.04458 21.2092 5.0678 21.8357 5.25788C23.6866 5.81937 25.1479 7.06064 25.9725 8.77175C26.3821 9.62152 26.5411 10.2042 26.6352 11.2008C26.7146 12.0404 26.8378 12.2927 27.2322 12.423C27.717 12.5831 28.1703 12.3235 28.3002 11.8113C28.3253 11.7126 28.3131 11.2841 28.2731 10.8592C27.933 7.24039 25.2251 4.23836 21.6417 3.50744C20.639 3.3029 19.295 3.30485 18.3089 3.51221ZM2.65816 5.07867C1.40454 5.32372 0.326224 6.43144 0.0809384 7.72635C-0.0268622 8.2951 -0.0270184 31.7121 0.0807041 32.2901C0.33013 33.6277 1.41235 34.694 2.77681 34.9465C3.37651 35.0575 3.69656 34.9888 3.94239 34.6964C4.2329 34.3509 4.2172 33.9319 3.902 33.6164C3.76983 33.4841 3.59579 33.3758 3.51525 33.3758C3.43479 33.3758 3.1856 33.3365 2.96148 33.2884C2.38592 33.1648 1.85348 32.6319 1.72998 32.0558C1.60632 31.4785 1.60632 8.53218 1.72998 7.9549C1.79895 7.63307 1.89504 7.46941 2.18571 7.17839C2.69557 6.66812 2.90469 6.63481 5.59736 6.63481H7.82587L8.0542 6.40626C8.4772 5.98286 8.33847 5.26578 7.79704 5.07687C7.50536 4.97507 3.18021 4.97663 2.65816 5.07867ZM32.1471 5.10119C31.6504 5.31793 31.5445 6.0046 31.9458 6.40626L32.1741 6.63481H34.4026C37.0953 6.63481 37.3044 6.66812 37.8143 7.17839C38.105 7.46941 38.201 7.63307 38.27 7.9549C38.3937 8.53218 38.3937 31.4785 38.27 32.0558C38.1465 32.6319 37.6141 33.1648 37.0385 33.2884C36.7476 33.3508 33.0093 33.3758 23.9672 33.3758H11.3033L9.40679 35.264L7.51036 37.152L7.4863 35.492L7.46232 33.8318L7.20719 33.6038C6.84746 33.2823 6.43032 33.2871 6.10129 33.6164L5.86093 33.857V36.6598V39.4627L6.06091 39.7006C6.30861 39.9952 6.69076 40.0828 7.00369 39.9168C7.12704 39.8513 8.29988 38.7222 9.61005 37.4078L11.9921 35.0178H24.4219C32.4448 35.0178 36.999 34.9899 37.2669 34.939C38.5941 34.6871 39.6733 33.6093 39.9193 32.2901C40.027 31.7121 40.0269 8.2951 39.9191 7.72635C39.6674 6.39782 38.5906 5.31762 37.2726 5.0714C36.6245 4.95036 32.4371 4.97468 32.1471 5.10119ZM8.36065 16.6972V19.1658L8.03522 19.1222C7.60269 19.0641 7.11618 18.7105 6.87902 18.2817C6.70935 17.9751 6.68256 17.8154 6.65537 16.9518C6.61217 15.5759 6.70935 15.161 7.18649 14.6834C7.45982 14.4098 7.64979 14.2917 7.90109 14.2389C8.08943 14.1993 8.26988 14.1808 8.30207 14.1978C8.33425 14.2146 8.36065 15.3394 8.36065 16.6972ZM15.8598 22.5074V23.3675H16.6801H17.5003V22.5074V21.6473H16.6801H15.8598V22.5074ZM19.1752 21.7482C19.1528 21.8067 19.1447 22.1861 19.1571 22.5915L19.1798 23.3284H20H20.8202V22.5074V21.6864L20.0181 21.6641C19.3982 21.6468 19.2068 21.6659 19.1752 21.7482ZM22.4997 22.5074V23.3675H23.3199H24.1402V22.5074V21.6473H23.3199H22.4997V22.5074Z" fill="#25D193"/>
</svg>
