<svg width="18" height="18" viewBox="0 0 18 18" fill="none" xmlns="http://www.w3.org/2000/svg">
<path d="M1.60577 4.73094L9 0.46188L16.3942 4.73094V13.2691L9 17.5381L1.60577 13.2691V4.73094Z" stroke="#410EAD" stroke-width="0.8"/>
<path fill-rule="evenodd" clip-rule="evenodd" d="M9.73027 4.03954C9.84115 4.09787 9.88247 4.19534 9.88247 4.39863V4.56515L10.005 4.6267C10.0724 4.66057 10.1787 4.72278 10.2411 4.76497L10.3546 4.84167L10.4961 4.75983C10.6752 4.65617 10.771 4.64234 10.8815 4.7042C10.9678 4.75249 10.9611 4.74215 11.4286 5.55323C11.5281 5.72574 11.6146 5.89876 11.621 5.93775C11.6293 5.989 11.6205 6.03342 11.5889 6.09825C11.5527 6.17284 11.5205 6.20222 11.3973 6.27336L11.2493 6.35883V6.63671V6.91456L11.3558 6.97558C11.5192 7.06916 11.5459 7.09238 11.5937 7.18229C11.6375 7.26484 11.6494 7.27144 12.7752 7.83478C13.8674 8.38135 13.9141 8.40697 13.9562 8.48202C14.0118 8.58122 14.0118 8.6758 13.9562 8.77501C13.9159 8.84689 13.8767 8.87111 13.4664 9.07776C13.2211 9.20131 13.0204 9.30679 13.0204 9.31216C13.0204 9.31753 13.2211 9.423 13.4664 9.54655C13.8767 9.7532 13.9159 9.77742 13.9562 9.84931C14.0118 9.94851 14.0118 10.0431 13.9562 10.1423C13.9159 10.2142 13.8767 10.2384 13.4664 10.4451C13.2211 10.5686 13.0204 10.6741 13.0204 10.6794C13.0204 10.6848 13.2211 10.7903 13.4664 10.9138C13.8767 11.1205 13.9159 11.1447 13.9562 11.2166C13.9803 11.2596 14 11.3255 14 11.3631C14 11.4007 13.9803 11.4666 13.9562 11.5096C13.9135 11.5857 13.8503 11.6187 11.4951 12.7939C9.51567 13.7815 9.06367 14 9 14C8.93633 14 8.48432 13.7815 6.50491 12.7939C4.14967 11.6187 4.08648 11.5857 4.04379 11.5096C4.01971 11.4666 4 11.4007 4 11.3631C4 11.3255 4.01971 11.2596 4.04379 11.2166C4.08409 11.1447 4.12327 11.1205 4.5336 10.9138C4.77888 10.7903 4.97958 10.6848 4.97958 10.6794C4.97958 10.6741 4.77888 10.5686 4.5336 10.4451C4.12327 10.2384 4.08409 10.2142 4.04379 10.1423C4.01971 10.0993 4 10.0334 4 9.9958C4 9.9582 4.01971 9.89228 4.04379 9.84931C4.08409 9.77742 4.12327 9.7532 4.5336 9.54655C4.77888 9.423 4.97958 9.31753 4.97958 9.31216C4.97958 9.30679 4.77888 9.20131 4.5336 9.07776C4.12327 8.87111 4.08409 8.84689 4.04379 8.77501C4.01971 8.73204 4 8.66611 4 8.62851C4 8.59091 4.01971 8.52499 4.04379 8.48202C4.08587 8.40697 4.13264 8.38135 5.22441 7.835L6.36121 7.26611L6.41139 7.17339C6.45192 7.09852 6.4894 7.06457 6.60616 6.99705L6.75075 6.91341V6.63559V6.3578L6.63597 6.29299C6.43122 6.1774 6.35378 6.06631 6.38019 5.92603C6.38672 5.89138 6.52699 5.63044 6.6919 5.3462C7.06398 4.70487 7.03208 4.75256 7.12311 4.70158C7.22861 4.64254 7.32739 4.65765 7.50394 4.75983L7.64535 4.84167L7.75888 4.76497C7.82132 4.72278 7.92755 4.66057 7.99497 4.6267L8.11753 4.56515V4.39863C8.11753 4.19188 8.15868 4.09714 8.27391 4.03859C8.34699 4.00145 8.38759 3.99931 9.00412 4.00013C9.61531 4.00095 9.66163 4.00345 9.73027 4.03954ZM8.70584 4.70307C8.70584 4.91607 8.64442 4.99711 8.41906 5.08144C8.25479 5.14289 8.08565 5.24074 7.95577 5.34948C7.76986 5.5051 7.66528 5.52186 7.48333 5.42515C7.4227 5.39292 7.36957 5.36655 7.3653 5.36655C7.35614 5.36655 7.07818 5.84423 7.07818 5.85997C7.07818 5.86585 7.12699 5.89812 7.18663 5.93163C7.24628 5.96517 7.3131 6.02094 7.3351 6.05559C7.37102 6.11216 7.37352 6.13544 7.35961 6.28459C7.34033 6.49107 7.34057 6.77023 7.36018 6.98777C7.37348 7.13518 7.37081 7.16063 7.33631 7.21483C7.31494 7.24839 7.24813 7.30398 7.18782 7.33834C7.12752 7.3727 7.07818 7.40583 7.07818 7.41196C7.07818 7.43307 7.35755 7.9058 7.36983 7.90547C7.37661 7.9053 7.42627 7.87906 7.4802 7.84721C7.54958 7.80621 7.60405 7.78921 7.66649 7.78906C7.76945 7.78882 7.82795 7.81587 7.95577 7.92287C8.08565 8.03161 8.25479 8.12947 8.41906 8.19092C8.64442 8.27524 8.70584 8.35629 8.70584 8.56929V8.68711H9H9.29416V8.56929C9.29416 8.35101 9.35159 8.27929 9.60718 8.17842C9.76735 8.11521 9.96987 7.99134 10.1225 7.8632C10.1798 7.81505 10.2191 7.7997 10.3024 7.79283C10.3948 7.78519 10.4231 7.79208 10.5158 7.84492C10.5746 7.8784 10.6271 7.9058 10.6325 7.9058C10.6431 7.9058 10.9218 7.43046 10.9218 7.41239C10.9218 7.40651 10.873 7.37424 10.8134 7.34072C10.7537 7.30719 10.6869 7.25142 10.6649 7.21677C10.629 7.1602 10.6265 7.13692 10.6404 6.98777C10.6489 6.89645 10.6559 6.73824 10.6559 6.63618C10.6559 6.53412 10.6489 6.37591 10.6404 6.28459C10.6265 6.13544 10.629 6.11216 10.6649 6.05559C10.6869 6.02094 10.7537 5.96517 10.8134 5.93163C10.873 5.89812 10.9218 5.86585 10.9218 5.85997C10.9218 5.84423 10.6439 5.36655 10.6347 5.36655C10.6304 5.36655 10.5763 5.39367 10.5145 5.42677C10.3644 5.50725 10.2323 5.50131 10.1225 5.40916C9.96987 5.28102 9.76735 5.15714 9.60718 5.09394C9.35159 4.99307 9.29416 4.92135 9.29416 4.70307V4.58525H9H8.70584V4.70307ZM9.20591 5.58087C9.59404 5.66656 9.89641 5.93277 10.0232 6.30041C10.087 6.4857 10.087 6.78666 10.0232 6.97195C9.91286 7.29183 9.66995 7.53527 9.34161 7.65494C9.1751 7.71563 8.8249 7.71563 8.65839 7.65494C8.33005 7.53527 8.08714 7.29183 7.97685 6.97195C7.91296 6.78666 7.91296 6.4857 7.97685 6.30041C8.08749 5.97947 8.33531 5.73182 8.65839 5.61929C8.78921 5.57374 9.08087 5.55327 9.20591 5.58087ZM8.83323 6.18021C8.65235 6.2416 8.50974 6.44261 8.50974 6.63618C8.50974 6.75416 8.56824 6.89081 8.65631 6.97851C8.84812 7.16958 9.15188 7.16958 9.34369 6.97851C9.53568 6.78728 9.53554 6.48492 9.34334 6.2935C9.20714 6.15782 9.02098 6.11649 8.83323 6.18021ZM11.284 7.96928C11.006 8.45446 10.9583 8.5252 10.8788 8.5697C10.7712 8.6299 10.6736 8.61533 10.4961 8.51253L10.3546 8.43069L10.2411 8.50739C10.1787 8.54958 10.0724 8.61179 10.005 8.64566L9.88247 8.70721V8.87373C9.88247 9.08048 9.84132 9.17521 9.72609 9.23377C9.65314 9.27083 9.61145 9.27309 9 9.27309C8.38855 9.27309 8.34686 9.27083 8.27391 9.23377C8.15868 9.17521 8.11753 9.08048 8.11753 8.87373V8.70721L7.99497 8.64566C7.92755 8.61179 7.82132 8.54958 7.75888 8.50739L7.64535 8.43069L7.50394 8.51253C7.32635 8.61533 7.22875 8.6299 7.12123 8.5697C7.04175 8.5252 6.994 8.45446 6.71604 7.96928C6.66525 7.88066 6.6201 7.80814 6.61569 7.80814C6.59749 7.80814 4.97987 8.61933 4.97987 8.62845C4.97987 8.6339 5.8844 9.08882 6.98994 9.63937L9 10.6404L11.0101 9.63937C12.1156 9.08882 13.0201 8.6339 13.0201 8.62845C13.0201 8.61841 11.4133 7.81126 11.3893 7.80923C11.3821 7.80863 11.3348 7.88066 11.284 7.96928ZM10.7056 10.4548C9.3934 11.1078 9.06177 11.2654 9 11.2654C8.93823 11.2654 8.60665 11.1078 7.29464 10.455L5.66598 9.64449L5.32292 9.81501C5.13424 9.90878 4.97987 9.99004 4.97987 9.99559C4.97987 10.0011 5.8844 10.4561 6.98994 11.0067L9 12.0076L11.0101 11.0067C12.1156 10.4561 13.0201 10.0011 13.0201 9.99559C13.0201 9.98816 12.367 9.65226 12.3391 9.64533C12.3366 9.64472 11.6016 10.009 10.7056 10.4548ZM10.7056 11.8221C9.3934 12.4751 9.06177 12.6327 9 12.6327C8.93823 12.6327 8.60665 12.4751 7.29464 11.8222L5.66598 11.0118L5.32292 11.1823C5.13424 11.2761 4.97987 11.3573 4.97987 11.3629C4.97987 11.3684 5.8844 11.8234 6.98994 12.3739L9 13.3749L11.0101 12.3739C12.1156 11.8234 13.0201 11.3684 13.0201 11.3629C13.0201 11.3555 12.367 11.0195 12.3391 11.0126C12.3366 11.012 11.6016 11.3763 10.7056 11.8221Z" fill="#410EAD"/>
</svg>
