<svg width="40" height="47" viewBox="0 0 40 47" fill="none" xmlns="http://www.w3.org/2000/svg">
<path d="M8.4455 25.099H28.991C29.3974 25.0993 29.7944 24.9765 30.1301 24.7467C30.4659 24.517 30.7247 24.1909 30.8727 23.8112C31.0207 23.4315 31.051 23.0158 30.9597 22.6185C30.8684 22.2213 30.6597 21.8609 30.3609 21.5845L24.7965 16.4312C24.4027 16.0668 23.8806 15.8743 23.3452 15.896C22.8099 15.9177 22.3052 16.1519 21.9419 16.547C21.5787 16.9422 21.3868 17.4659 21.4084 18.0029C21.4301 18.54 21.6634 19.0465 22.0572 19.4109L23.8267 21.0497H8.4455C4.43961 21.0497 4.06463 18.3099 4.04458 17.4927V8.04503C4.04458 4.45457 5.81024 4.08583 6.3055 4.05901H24.7311L35.1055 14.4661V24.4748C35.1055 25.0119 35.3183 25.5271 35.6969 25.9069C36.0755 26.2868 36.589 26.5002 37.1245 26.5002C37.6599 26.5002 38.1736 26.2868 38.5522 25.9069C38.9308 25.5271 39.1435 25.0119 39.1435 24.4748V13.6259C39.1433 13.3598 39.0907 13.0963 38.9887 12.8506C38.8868 12.605 38.7375 12.3819 38.5495 12.1942L26.9951 0.595941C26.808 0.4073 26.5856 0.257549 26.3407 0.155288C26.0958 0.0530268 25.8332 0.000252794 25.5679 0H6.3055C4.1262 0 0.00585938 1.67978 0.00585938 8.03758V17.4905C0.00585938 19.6068 1.52224 25.099 8.4455 25.099Z" fill="#FFB300"/>
<path d="M31.9882 28.7785H8.87432C8.47494 28.7786 8.08442 28.8975 7.75238 29.1202C7.42034 29.3428 7.16159 29.6592 7.00877 30.0294C6.85595 30.3996 6.81595 30.8069 6.89384 31.1999C6.97173 31.5928 7.16403 31.9538 7.44638 32.2372L12.1555 36.9606C12.5342 37.3404 13.0477 37.5538 13.5832 37.5537C14.1187 37.5536 14.6322 37.3402 15.0108 36.9603C15.3894 36.5804 15.602 36.0651 15.602 35.5279C15.6019 34.9907 15.3891 34.4755 15.0104 34.0957L13.7482 32.8294H31.9874C35.7001 32.8294 35.9615 33.2018 35.9615 38.5331C35.9615 41.8949 33.7539 42.7598 33.0463 42.949H8.01814C7.45222 43.0017 6.88148 42.9387 6.34058 42.7636C5.79967 42.5886 5.29983 42.3052 4.87131 41.9307C4.31681 41.2625 4.02097 40.4162 4.03815 39.547C4.0426 39.4948 4.04485 39.4434 4.04485 39.3913V28.3949C4.04485 27.8577 3.83221 27.3424 3.45352 26.9625C3.07483 26.5826 2.56113 26.3691 2.02558 26.3691C1.49003 26.3691 0.976514 26.5826 0.597825 26.9625C0.219135 27.3424 0.00630975 27.8577 0.00630975 28.3949V39.3332C-0.0731949 41.2861 0.601117 43.1946 1.88872 44.6615C3.32104 46.2139 5.38291 47.0005 8.01886 47.0005H33.2727C33.3937 47.0006 33.5146 46.9896 33.6336 46.9677C35.836 46.567 40 44.2861 40 38.5339C40.0007 32.8212 39.426 28.7785 31.9882 28.7785Z" fill="#FFB300"/>
</svg>
