<svg width="41" height="44" viewBox="0 0 41 44" fill="none" xmlns="http://www.w3.org/2000/svg">
<path d="M12.9154 27.2959C12.9154 26.8998 12.7527 26.5199 12.4634 26.2398C12.1741 25.9597 11.7817 25.8023 11.3726 25.8023H3.0869V10.7761H26.6522V13.0245C26.6613 13.4147 26.8279 13.7859 27.1161 14.0588C27.4044 14.3316 27.7915 14.4844 28.1946 14.4844C28.5977 14.4844 28.9846 14.3316 29.2729 14.0588C29.5611 13.7859 29.7277 13.4147 29.7368 13.0245V1.49362C29.7368 1.09749 29.5743 0.717591 29.285 0.437486C28.9957 0.157381 28.6034 0 28.1942 0H1.54335C1.13413 -5.17777e-08 0.741793 0.157356 0.452353 0.437439C0.162912 0.717522 0.000209216 1.09742 0 1.49362V27.2959C0.000209216 27.6921 0.162912 28.072 0.452353 28.3521C0.741793 28.6322 1.13413 28.7895 1.54335 28.7895H11.3741C11.5768 28.7896 11.7775 28.751 11.9648 28.676C12.1521 28.601 12.3222 28.491 12.4655 28.3523C12.6089 28.2136 12.7226 28.0489 12.8002 27.8676C12.8777 27.6864 12.9177 27.4921 12.9177 27.2959H12.9154ZM26.6458 2.98723V7.78969H3.08054V2.98723H26.6458Z" fill="#1473E6"/>
<path d="M5.55597 6.84424H5.7494C5.95487 6.84874 6.15929 6.81342 6.35048 6.7404C6.54167 6.66738 6.71578 6.55813 6.86275 6.41902C7.00971 6.27992 7.12652 6.11379 7.20625 5.93038C7.28597 5.74698 7.32704 5.54999 7.32704 5.351C7.32704 5.15201 7.28597 4.95502 7.20625 4.77162C7.12652 4.58821 7.00971 4.42208 6.86275 4.28298C6.71578 4.14388 6.54167 4.03462 6.35048 3.9616C6.15929 3.88858 5.95487 3.8533 5.7494 3.8578H5.55597C5.35049 3.8533 5.14627 3.88858 4.95508 3.9616C4.76389 4.03462 4.58959 4.14388 4.44262 4.28298C4.29566 4.42208 4.17903 4.58821 4.09931 4.77162C4.01959 4.95502 3.97852 5.15201 3.97852 5.351C3.97852 5.54999 4.01959 5.74698 4.09931 5.93038C4.17903 6.11379 4.29566 6.27992 4.44262 6.41902C4.58959 6.55813 4.76389 6.66738 4.95508 6.7404C5.14627 6.81342 5.35049 6.84874 5.55597 6.84424Z" fill="#1473E6"/>
<path d="M9.52139 6.84581H9.71481C10.1178 6.83699 10.5013 6.67579 10.7831 6.39672C11.0649 6.11765 11.2225 5.74285 11.2225 5.35257C11.2225 4.96229 11.0649 4.58754 10.7831 4.30847C10.5013 4.0294 10.1178 3.8682 9.71481 3.85938H9.52139C9.11838 3.8682 8.73492 4.0294 8.45312 4.30847C8.17132 4.58754 8.01367 4.96229 8.01367 5.35257C8.01367 5.74285 8.17132 6.11765 8.45312 6.39672C8.73492 6.67579 9.11838 6.83699 9.52139 6.84581Z" fill="#1473E6"/>
<path d="M13.4876 6.84424H13.681C13.8865 6.84874 14.0909 6.81342 14.2821 6.7404C14.4733 6.66738 14.6474 6.55813 14.7944 6.41902C14.9414 6.27992 15.0582 6.11379 15.1379 5.93038C15.2176 5.74698 15.2587 5.54999 15.2587 5.351C15.2587 5.15201 15.2176 4.95502 15.1379 4.77162C15.0582 4.58821 14.9414 4.42208 14.7944 4.28298C14.6474 4.14388 14.4733 4.03462 14.2821 3.9616C14.0909 3.88858 13.8865 3.8533 13.681 3.8578H13.4876C13.2821 3.8533 13.0779 3.88858 12.8867 3.9616C12.6955 4.03462 12.5212 4.14388 12.3743 4.28298C12.2273 4.42208 12.1107 4.58821 12.031 4.77162C11.9512 4.95502 11.9102 5.15201 11.9102 5.351C11.9102 5.54999 11.9512 5.74698 12.031 5.93038C12.1107 6.11379 12.2273 6.27992 12.3743 6.41902C12.5212 6.55813 12.6955 6.66738 12.8867 6.7404C13.0779 6.81342 13.2821 6.84874 13.4876 6.84424Z" fill="#1473E6"/>
<path d="M23.6465 24.4199C22.7773 24.4199 21.9277 24.6695 21.205 25.137C20.4823 25.6045 19.9191 26.2691 19.5865 27.0466C19.2539 27.824 19.1668 28.6796 19.3364 29.5049C19.5061 30.3303 19.9247 31.0883 20.5394 31.6833C21.154 32.2783 21.9372 32.6835 22.7898 32.8476C23.6423 33.0117 24.5258 32.9273 25.3287 32.6052C26.1317 32.283 26.8182 31.7376 27.301 31.0378C27.7837 30.338 28.0413 29.5153 28.0411 28.6738C28.0409 27.5455 27.5777 26.4635 26.7536 25.6658C25.9295 24.8681 24.8119 24.4199 23.6465 24.4199ZM23.6465 31.4257C23.0846 31.4257 22.5354 31.2644 22.0683 30.9622C21.6011 30.66 21.237 30.2304 21.022 29.7279C20.8069 29.2253 20.7507 28.6723 20.8603 28.1388C20.9699 27.6053 21.2406 27.1152 21.6379 26.7305C22.0352 26.3459 22.5414 26.084 23.0924 25.9778C23.6435 25.8717 24.2145 25.9262 24.7336 26.1343C25.2527 26.3425 25.6965 26.695 26.0086 27.1473C26.3208 27.5996 26.4874 28.1314 26.4874 28.6754C26.4874 29.4048 26.188 30.1044 25.6553 30.6202C25.1225 31.136 24.3999 31.4257 23.6465 31.4257Z" fill="#1473E6"/>
<path d="M38.453 27.1788H32.7951C32.5522 25.7801 31.9687 24.4576 31.093 23.3206L35.4874 19.6107C35.6437 19.4828 35.7721 19.3262 35.8652 19.1498C35.9583 18.9735 36.0142 18.7809 36.0298 18.5835C36.0453 18.386 36.0202 18.1875 35.9558 17.9995C35.8913 17.8115 35.7889 17.6379 35.6545 17.4886C35.5201 17.3393 35.3562 17.2174 35.1726 17.1299C34.9891 17.0425 34.7894 16.9912 34.5852 16.9792C34.3811 16.9672 34.1765 16.9946 33.9834 17.0598C33.7902 17.1251 33.6125 17.2268 33.4603 17.3592L28.8644 21.2388C27.7597 20.512 26.5055 20.0258 25.1879 19.8139V14.411C25.1788 14.0208 25.0123 13.6496 24.724 13.3768C24.4358 13.1039 24.0489 12.9512 23.6457 12.9512C23.2426 12.9512 22.8555 13.1039 22.5673 13.3768C22.279 13.6496 22.1125 14.0208 22.1033 14.411V19.8139C20.8151 20.0204 19.5867 20.4891 18.4994 21.1891L15.0755 17.8986C14.9325 17.7572 14.7619 17.6447 14.5736 17.5677C14.3853 17.4906 14.1831 17.4506 13.9787 17.4499C13.7743 17.4492 13.5717 17.4878 13.3828 17.5636C13.194 17.6393 13.0225 17.7506 12.8785 17.891C12.7344 18.0314 12.6207 18.1981 12.5438 18.3815C12.4669 18.5649 12.4284 18.7612 12.4306 18.9591C12.4327 19.157 12.4753 19.3525 12.5562 19.5343C12.637 19.716 12.7544 19.8804 12.9014 20.0179L16.2561 23.242C15.1081 24.6931 14.4478 26.4506 14.365 28.2768C14.2822 30.1029 14.7806 31.9097 15.7928 33.4527L11.369 37.0129C11.0544 37.2662 10.8565 37.6301 10.819 38.0246C10.7815 38.4191 10.9074 38.8119 11.1691 39.1166C11.4307 39.4212 11.8065 39.6128 12.214 39.6491C12.6215 39.6854 13.0271 39.5635 13.3418 39.3102L17.8492 35.6874C19.0831 36.6452 20.5504 37.2804 22.1105 37.5324V42.5403C22.1196 42.9305 22.2861 43.3018 22.5744 43.5746C22.8626 43.8474 23.2496 44.0002 23.6527 44.0002C24.0558 44.0002 24.4429 43.8474 24.7312 43.5746C25.0194 43.3018 25.186 42.9305 25.1951 42.5403V37.5324C26.4233 37.3328 27.5971 36.8946 28.6459 36.2443L32.3878 39.3049C32.542 39.4358 32.7216 39.5356 32.9161 39.5986C33.1105 39.6615 33.316 39.6863 33.5204 39.6715C33.7249 39.6566 33.9243 39.6025 34.1069 39.5122C34.2895 39.4219 34.4516 39.2973 34.5839 39.1456C34.7162 38.9939 34.816 38.8182 34.8773 38.6288C34.9386 38.4394 34.9602 38.24 34.9411 38.0424C34.9219 37.8447 34.8623 37.6528 34.7656 37.4777C34.6689 37.3026 34.5371 37.148 34.3779 37.0228L30.9493 34.2197C31.9079 33.0419 32.545 31.6494 32.802 30.1706H38.4601C38.6627 30.1706 38.8632 30.132 39.0504 30.0569C39.2376 29.9818 39.4077 29.8718 39.5509 29.7331C39.6942 29.5944 39.8078 29.4298 39.8854 29.2486C39.9629 29.0673 40.0027 28.8731 40.0027 28.677C40.0027 28.4808 39.9629 28.2866 39.8854 28.1054C39.8078 27.9242 39.6942 27.7595 39.5509 27.6208C39.4077 27.4821 39.2376 27.3721 39.0504 27.2971C38.8632 27.222 38.6627 27.1834 38.4601 27.1834L38.453 27.1788ZM23.6454 34.6789C22.4183 34.6789 21.2188 34.3266 20.1986 33.6666C19.1783 33.0066 18.3831 32.0685 17.9135 30.971C17.4439 29.8734 17.3212 28.6657 17.5606 27.5006C17.7999 26.3354 18.3908 25.2652 19.2584 24.4252C20.1261 23.5851 21.2314 23.0131 22.4349 22.7813C23.6384 22.5495 24.8858 22.6685 26.0194 23.1231C27.1531 23.5777 28.122 24.3476 28.8037 25.3354C29.4854 26.3232 29.8492 27.4844 29.8492 28.6724C29.849 30.2654 29.1953 31.793 28.0319 32.9194C26.8685 34.0458 25.2907 34.6787 23.6454 34.6789Z" fill="#1473E6"/>
</svg>
