<svg width="50" height="50" viewBox="0 0 50 50" fill="none" xmlns="http://www.w3.org/2000/svg">
<path fill-rule="evenodd" clip-rule="evenodd" d="M3.37556 0.141386C2.55354 0.347915 1.93819 0.700592 1.31835 1.32057C0.679967 1.95917 0.294046 2.66237 0.116266 3.51113C-0.0399379 4.25677 -0.0381806 45.7504 0.118121 46.4835C0.477097 48.1675 1.82514 49.521 3.50238 49.8814C4.23312 50.0384 45.7553 50.0401 46.4977 49.8831C48.1544 49.5328 49.538 48.144 49.8843 46.4835C50.0401 45.7367 50.0378 4.24227 49.882 3.51113C49.5221 1.82283 48.17 0.464461 46.4977 0.111391C45.7084 -0.0553415 4.04314 -0.0263275 3.37556 0.141386ZM46.2854 3.14003C46.5334 3.26706 46.7408 3.47526 46.8673 3.72433C47.0544 4.09249 47.0639 4.29608 47.0639 7.93784V11.7646H25H2.93624L2.94034 7.91725C2.94492 3.58465 2.93877 3.62454 3.67752 3.17551L4.05895 2.94369L24.9795 2.9432C45.7546 2.94271 45.9028 2.94408 46.2854 3.14003ZM6.72037 6.08544C6.30819 6.30393 5.96269 6.88225 5.96269 7.35363C5.96269 8.09947 6.68425 8.82394 7.4271 8.82394C7.91153 8.82394 8.47396 8.47724 8.69499 8.04233C8.80306 7.82962 8.89151 7.51968 8.89151 7.35363C8.89151 6.86726 8.5462 6.30256 8.11303 6.08064C7.63202 5.83432 7.19143 5.83579 6.72037 6.08544ZM12.578 6.08544C12.1658 6.30393 11.8203 6.88225 11.8203 7.35363C11.8203 8.09947 12.5419 8.82394 13.2847 8.82394C14.0276 8.82394 14.7492 8.09947 14.7492 7.35363C14.7492 6.86726 14.4038 6.30256 13.9707 6.08064C13.4897 5.83432 13.0491 5.83579 12.578 6.08544ZM18.4357 6.08544C18.0235 6.30393 17.678 6.88225 17.678 7.35363C17.678 7.51968 17.7664 7.82962 17.8745 8.04233C18.0955 8.47724 18.658 8.82394 19.1424 8.82394C19.8852 8.82394 20.6068 8.09947 20.6068 7.35363C20.6068 6.86726 20.2615 6.30256 19.8283 6.08064C19.3473 5.83432 18.9067 5.83579 18.4357 6.08544ZM33.0798 6.08544C32.6676 6.30393 32.3221 6.88225 32.3221 7.35363C32.3221 7.84001 32.6674 8.40471 33.1006 8.62663C33.4709 8.81629 33.6681 8.82394 38.1797 8.82394C42.6914 8.82394 42.8886 8.81629 43.2589 8.62663C43.6921 8.40471 44.0374 7.84001 44.0374 7.35363C44.0374 6.86726 43.6921 6.30256 43.2589 6.08064C42.8881 5.89078 42.6961 5.88352 38.1592 5.88764C33.6584 5.89176 33.4283 5.90077 33.0798 6.08544ZM47.0639 30.2943C47.0639 45.7248 47.0619 45.8874 46.8673 46.2703C46.7408 46.5194 46.5334 46.7276 46.2854 46.8546C45.9028 47.0505 45.754 47.0519 24.9928 47.0519H4.08551L3.69607 46.8322C3.46752 46.7032 3.23009 46.4618 3.12143 46.248C2.9419 45.8946 2.93624 45.4073 2.93624 30.2943V14.7052H25H47.0639V30.2943ZM28.6677 19.3382C28.4141 19.4829 28.2108 19.7068 28.0684 19.9983C27.9499 20.2409 25.8929 25.0342 23.4977 30.6501C20.859 36.8363 19.1424 40.9814 19.1424 41.1667C19.1424 41.6568 19.4864 42.2212 19.9209 42.4437C20.6994 42.8424 21.516 42.5709 21.9116 41.7818C22.6184 40.3716 30.8577 20.8546 30.8577 20.5904C30.8577 20.1003 30.5137 19.5359 30.0792 19.3134C29.5808 19.0582 29.1454 19.0658 28.6677 19.3382ZM15.5686 23.7027C15.4019 23.7947 13.5694 25.2335 11.4964 26.9C7.61503 30.0202 7.4271 30.2039 7.4271 30.8785C7.4271 31.5532 7.61503 31.7369 11.4964 34.8571C13.5694 36.5235 15.4019 37.9624 15.5686 38.0544C16.4672 38.5506 17.678 37.8116 17.678 36.767C17.678 36.1005 17.4501 35.8688 14.3436 33.3754C12.6874 32.0462 11.3322 30.9226 11.3322 30.8785C11.3322 30.8345 12.6874 29.7109 14.3436 28.3817C17.4501 25.8883 17.678 25.6566 17.678 24.9901C17.678 23.9455 16.4672 23.2065 15.5686 23.7027ZM33.0798 23.7291C32.67 23.9464 32.3221 24.5253 32.3221 24.9901C32.3221 25.6566 32.55 25.8883 35.6565 28.3817C37.3127 29.7109 38.6679 30.8345 38.6679 30.8785C38.6679 30.9226 37.3127 32.0462 35.6565 33.3754C32.55 35.8688 32.3221 36.1005 32.3221 36.767C32.3221 37.8116 33.5329 38.5506 34.4314 38.0544C34.5982 37.9624 36.4307 36.5235 38.5037 34.8571C42.3851 31.7369 42.573 31.5532 42.573 30.8785C42.573 30.2039 42.3851 30.0202 38.5037 26.9C36.4307 25.2335 34.5982 23.7947 34.4314 23.7027C34.0306 23.4813 33.5288 23.4912 33.0798 23.7291Z" fill="#FC7754"/>
</svg>
