<svg width="40" height="40" viewBox="0 0 40 40" fill="none" xmlns="http://www.w3.org/2000/svg">
<path fill-rule="evenodd" clip-rule="evenodd" d="M18.5134 0.0454726C14.1419 0.464333 10.6516 1.84909 7.43271 4.44174C1.22396 9.44266 -1.39585 17.6046 0.725123 25.3393C1.33403 27.56 2.37681 29.7448 3.73987 31.6558L4.27428 32.4051L4.079 32.7996C3.46946 34.031 3.72807 35.5434 4.71722 36.5324C6.52072 38.3356 9.56095 37.4913 10.194 35.0113C10.8303 32.5192 8.41397 30.3024 5.96912 31.1351C5.34653 31.3472 5.47294 31.4168 4.84425 30.5158C3.24932 28.2298 2.19294 25.5372 1.73186 22.5825C1.5376 21.3374 1.53963 18.608 1.73585 17.3458C3.00151 9.20255 9.18509 3.03361 17.3799 1.73865C18.5722 1.55029 21.4237 1.55131 22.5785 1.74061C24.1573 1.9994 24.0248 2.00299 24.335 1.69285C24.7321 1.2958 24.6773 0.738675 24.2179 0.501068C23.56 0.160993 20.1504 -0.111317 18.5134 0.0454726ZM26.8086 1.51027C26.3718 1.75225 26.2924 2.28413 26.6357 2.66821C26.8231 2.87799 26.9188 2.92176 27.1909 2.92176C27.4654 2.92176 27.5584 2.87831 27.7549 2.65836C27.959 2.42998 27.9845 2.35252 27.9471 2.07412C27.8712 1.50777 27.3124 1.23108 26.8086 1.51027ZM32.1178 2.61569C30.6092 3.03877 29.5947 4.46144 29.7116 5.98986C29.8779 8.16256 31.9832 9.56795 34.0284 8.87139C34.6593 8.65653 34.5148 8.56195 35.2735 9.68613C36.8386 12.0051 37.8261 14.5596 38.2649 17.424C38.4571 18.6792 38.4581 21.3438 38.2667 22.5825C37.3229 28.6923 33.653 33.7716 28.2088 36.5029C24.7183 38.2541 20.7581 38.8327 16.8213 38.1667C16.1709 38.0567 16.0847 38.057 15.866 38.17C15.5651 38.3256 15.4646 38.5099 15.4646 38.9059C15.4646 39.1537 15.5111 39.2558 15.6936 39.4093C15.8194 39.5153 16.0393 39.6236 16.1822 39.6502C18.6767 40.1138 21.2385 40.1166 23.7121 39.6586C28.3624 38.7974 32.6513 36.214 35.6461 32.4698C41.2182 25.5035 41.4656 15.652 36.2518 8.34264L35.7117 7.58527L35.8651 7.3253C35.9495 7.18227 36.077 6.83719 36.1485 6.55848C36.5524 4.98308 35.6687 3.30264 34.1265 2.71347C33.5826 2.50572 32.6685 2.46117 32.1178 2.61569ZM33.484 4.14599C34.1033 4.31739 34.6937 5.11337 34.6952 5.77867C34.6974 6.73238 33.81 7.56025 32.869 7.48225C31.9964 7.40987 31.3438 6.75739 31.2714 5.88497C31.2433 5.54654 31.2758 5.3874 31.4427 5.04655C31.8264 4.26221 32.6273 3.90893 33.484 4.14599ZM17.1279 5.93233C16.8248 6.11711 16.7986 6.21434 16.7738 7.24808L16.7545 8.05368L16.0261 8.29551C15.6255 8.42846 14.9661 8.70014 14.5608 8.89914L13.8239 9.26094L13.2623 8.69569C12.647 8.07634 12.3748 7.9212 12.0459 8.00233C11.7438 8.07681 8.14614 11.6641 8.03458 12.002C7.91458 12.3655 8.07742 12.6754 8.71893 13.3045L9.26053 13.8355L8.8881 14.5941C8.6832 15.0113 8.40982 15.6693 8.28044 16.0562L8.04529 16.7596L7.10531 16.7987C5.70027 16.8571 5.81503 16.5902 5.78736 19.8646C5.77165 21.7333 5.79158 22.6002 5.85396 22.7507C6.00859 23.124 6.2224 23.2005 7.17849 23.2247L8.05241 23.2469L8.30742 23.9987C8.44766 24.4121 8.72127 25.0682 8.91546 25.4566L9.26858 26.1628L8.6961 26.7314C8.06968 27.3534 7.91412 27.625 7.9955 27.9546C8.07 28.2566 11.658 31.8536 11.996 31.9651C12.3605 32.0854 12.6697 31.9221 13.3062 31.2733L13.8448 30.7243L14.4788 31.0449C14.8275 31.2211 15.4822 31.4956 15.9336 31.6548L16.7545 31.9443L16.7738 32.7541C16.7986 33.7924 16.8246 33.8893 17.1279 34.0742C17.3652 34.2189 17.5329 34.2279 19.9988 34.2279C23.3762 34.2279 23.1864 34.3145 23.2237 32.7541L23.243 31.9443L24.0711 31.6531C24.5266 31.493 25.1818 31.219 25.5272 31.0444L26.1552 30.7268L26.6926 31.2746C27.3279 31.9221 27.6372 32.0853 28.0015 31.9651C28.3395 31.8536 31.9275 28.2566 32.002 27.9546C32.0834 27.625 31.9278 27.3534 31.3014 26.7314L30.7289 26.1628L31.082 25.4566C31.2762 25.0682 31.5498 24.4121 31.6901 23.9987L31.9451 23.2469L32.819 23.2247C33.7751 23.2005 33.9889 23.124 34.1435 22.7507C34.2059 22.6002 34.2259 21.7333 34.2101 19.8646C34.1825 16.5902 34.2972 16.8571 32.8922 16.7987L31.9522 16.7596L31.7171 16.0562C31.5877 15.6693 31.3143 15.0113 31.1094 14.5941L30.737 13.8355L31.2786 13.3045C31.9201 12.6754 32.0829 12.3655 31.9629 12.002C31.8514 11.6641 28.2537 8.07681 27.9516 8.00233C27.6227 7.9212 27.3505 8.07634 26.7352 8.69569L26.1736 9.26094L25.4367 8.89914C25.0314 8.70014 24.372 8.42846 23.9714 8.29551L23.243 8.05368L23.2237 7.24808C23.1989 6.21434 23.1727 6.11711 22.8696 5.93233C22.6323 5.78766 22.4646 5.77867 19.9988 5.77867C17.5329 5.77867 17.3652 5.78766 17.1279 5.93233ZM21.6529 8.16045C21.6776 8.91915 21.6944 8.99434 21.8814 9.18114C22.0157 9.31534 22.2861 9.43469 22.6899 9.5381C23.6621 9.78711 25.069 10.3932 25.7446 10.8538C25.8803 10.9465 26.1061 11.0141 26.2807 11.0143C26.5483 11.0148 26.6454 10.9535 27.1465 10.4677C27.4569 10.1668 27.7438 9.92061 27.7841 9.92061C27.8244 9.92061 28.3646 10.4287 28.9845 11.0496L30.1116 12.1784L29.5503 12.7693C28.8279 13.5296 28.8146 13.6792 29.3816 14.6677C29.8185 15.4296 30.1372 16.2073 30.4362 17.2416C30.7263 18.2447 30.8169 18.3161 31.8439 18.3495L32.6631 18.3761V20.0104V21.6446H31.9166C30.7645 21.6446 30.7595 21.6492 30.3187 23.1297C30.082 23.9242 29.7522 24.6904 29.3361 25.4122C28.8308 26.2887 28.8482 26.4403 29.5361 27.1496C29.8371 27.46 30.0834 27.7468 30.0834 27.7871C30.0834 27.8274 29.5752 28.3675 28.9542 28.9873L27.8251 30.1141L27.2461 29.5643C26.561 28.9137 26.359 28.8462 25.8619 29.102C25.6684 29.2016 25.1935 29.4473 24.8065 29.648C24.4196 29.8487 23.7512 30.1205 23.3212 30.2518C21.9279 30.6774 21.8696 30.7049 21.7497 30.9917C21.6835 31.1503 21.6404 31.5314 21.6404 31.9593V32.6652H19.9988H18.3571V31.9593C18.3571 31.5314 18.314 31.1503 18.2478 30.9917C18.1285 30.7063 18.1106 30.6978 16.6523 30.2401C16.2092 30.101 15.5408 29.8288 15.167 29.6351C14.7932 29.4415 14.3291 29.2016 14.1356 29.102C13.6385 28.8462 13.4365 28.9137 12.7514 29.5643L12.1724 30.1141L11.0433 28.9873C10.4223 28.3675 9.91415 27.8274 9.91415 27.7871C9.91415 27.7468 10.1604 27.46 10.4614 27.1496C11.1493 26.4403 11.1668 26.2887 10.6614 25.4122C10.2453 24.6904 9.91548 23.9242 9.67884 23.1297C9.23801 21.6492 9.23301 21.6446 8.08094 21.6446H7.33437V20.0104V18.3761L8.15364 18.3495C9.18055 18.3161 9.27124 18.2447 9.56127 17.2416C9.86029 16.2073 10.179 15.4296 10.6159 14.6677C11.1792 13.6856 11.1668 13.5448 10.4484 12.7758L9.88827 12.1761L11.0142 11.0483C11.6335 10.4281 12.1731 9.92061 12.2134 9.92061C12.2537 9.92061 12.5406 10.1668 12.851 10.4677C13.3521 10.9535 13.4492 11.0148 13.7168 11.0143C13.8914 11.0141 14.1171 10.9465 14.2529 10.8538C14.9268 10.394 16.5171 9.73349 17.6195 9.4554C17.7943 9.41132 18.023 9.28415 18.1276 9.17285C18.2996 8.98996 18.3206 8.89202 18.3446 8.15591L18.3713 7.34133H19.9988H21.6262L21.6529 8.16045ZM19.1477 13.5962C17.7477 13.7895 16.4957 14.4226 15.4577 15.462C14.6824 16.2383 14.212 16.981 13.8915 17.9346C12.3886 22.4063 16.042 26.9401 20.7216 26.4103C24.2366 26.0123 26.8062 22.8041 26.4101 19.3081C26.1077 16.639 24.1782 14.4108 21.5968 13.7496C20.9124 13.5742 19.8078 13.505 19.1477 13.5962ZM21.1714 15.2491C21.8966 15.4165 22.8206 15.9433 23.4066 16.5234C24.3989 17.5059 24.8637 18.6158 24.8637 20.0033C24.8637 21.3677 24.4002 22.493 23.4446 23.4484C22.4889 24.4038 21.3635 24.8672 19.9988 24.8672C18.611 24.8672 17.5009 24.4026 16.5182 23.4104C15.9171 22.8035 15.4092 21.8965 15.2228 21.0975C15.0941 20.5459 15.0941 19.4606 15.2228 18.909C15.4092 18.1101 15.9171 17.203 16.5182 16.5961C17.7646 15.3377 19.4464 14.8508 21.1714 15.2491ZM7.93069 32.7882C8.40662 33.0823 8.74152 33.6772 8.74152 34.2284C8.74152 35.3334 7.63652 36.1616 6.55191 35.8696C6.07575 35.7413 5.50843 35.1741 5.38014 34.6981C5.07401 33.5611 5.96404 32.4457 7.11337 32.5261C7.43021 32.5482 7.66356 32.6231 7.93069 32.7882ZM12.5106 37.16C12.2148 37.2884 11.9949 37.7164 12.0704 38.0169C12.2173 38.6023 12.9342 38.8025 13.3599 38.3769C13.7704 37.9665 13.622 37.3263 13.0677 37.1156C12.8269 37.024 12.8226 37.0243 12.5106 37.16Z" fill="#C305D3"/>
</svg>
