<svg width="40" height="41" viewBox="0 0 40 41" fill="none" xmlns="http://www.w3.org/2000/svg">
<path fill-rule="evenodd" clip-rule="evenodd" d="M33.2657 0.0942859C32.8942 0.27063 32.5798 0.657561 31.7441 1.96633C29.9283 4.80992 28.6788 7.15549 28.197 8.62473C27.5579 10.5734 27.8721 11.9464 29.3655 13.7306L29.8985 14.3676V16.743C29.8985 19.0026 29.9071 19.1363 30.0725 19.4848C30.2749 19.9108 30.7823 20.2796 31.2772 20.3603L31.6024 20.4133V25.8127C31.6024 31.6795 31.5993 31.7255 31.1441 32.578C30.8755 33.0811 30.1564 33.8142 29.6628 34.0881C28.559 34.7006 27.099 34.6998 25.9932 34.0863C25.5889 33.862 24.9007 33.2044 24.6229 32.7769C24.5342 32.6404 24.3797 32.3241 24.2795 32.0739L24.0973 31.6189L24.0521 20.7422C24.0076 10.0514 24.0039 9.85343 23.8364 9.16236C23.3804 7.28072 22.6573 5.93109 21.3829 4.58337C20.1997 3.33217 18.7215 2.45417 17.0117 1.98734C16.3162 1.79743 16.0661 1.77237 14.8073 1.76633C13.1773 1.75855 12.6122 1.85822 11.2655 2.39106C9.68826 3.01513 7.98806 4.39801 7.03026 5.83581C6.2374 7.02605 5.65736 8.60123 5.48551 10.0308C5.42904 10.5007 5.39594 12.6865 5.39577 15.9561L5.39553 21.137L5.01014 21.1943C4.45395 21.2771 3.47659 21.6241 2.97233 21.9178C1.58556 22.7256 0.554076 24.1264 0.14215 25.7613C0.0147667 26.2667 0 26.8199 0 31.0813C0 35.3427 0.0147667 35.8959 0.14215 36.4013C0.702149 38.624 2.33176 40.2916 4.48649 40.8471C5.09939 41.005 5.33736 41.0149 7.92746 40.9891C10.7023 40.9615 10.7117 40.9609 11.359 40.7381C12.295 40.4161 12.9726 39.9819 13.7146 39.2285C14.4381 38.494 14.8924 37.7108 15.2257 36.6231L15.4158 36.0027V31.1227C15.4158 25.8951 15.4147 25.8795 14.992 24.8408C14.2397 22.9926 12.4857 21.5464 10.6053 21.2238L10.0138 21.1224L10.0382 15.7007C10.0625 10.3181 10.064 10.275 10.2465 9.72431C10.4917 8.98428 11.1441 8.00868 11.7102 7.53556C13.133 6.34648 15.042 6.09784 16.714 6.88395C17.8463 7.41637 18.7204 8.40446 19.17 9.66054L19.3915 10.279L19.4365 21.1971C19.4705 29.4448 19.5059 32.2063 19.5811 32.4874C20.3161 35.2347 21.7216 37.1127 23.9188 38.2836C28.5041 40.7271 34.1212 38.4425 35.7897 33.4552C36.2099 32.1994 36.2271 31.903 36.2271 25.9554V20.4376L36.6836 20.3335C37.2757 20.1984 37.7773 19.7173 37.9174 19.15C37.9781 18.9045 38.0121 17.9591 38.0121 16.5228V14.2791L38.4787 13.7479C39.6074 12.4629 40.153 11.0128 39.9628 9.80339C39.7048 8.16253 38.4226 5.56898 36.024 1.8363C34.9806 0.212731 34.7937 0.0435828 33.9985 0.00338428C33.7005 -0.0115868 33.4139 0.0238971 33.2657 0.0942859ZM33.271 7.13267C33.5639 7.58825 34.2277 7.59726 34.5556 7.15003C34.7148 6.93283 34.7288 6.7856 34.7667 4.91819L34.8073 2.91885L35.4232 3.91075C36.6628 5.90678 37.7036 7.89007 38.1357 9.07965C38.2996 9.53076 38.3626 9.86037 38.3669 10.2879C38.372 10.8053 38.3368 10.9499 38.0737 11.4927C37.5538 12.5651 36.3609 13.684 35.1131 14.2699C34.7263 14.4514 34.5252 14.4903 33.9553 14.4935C33.3245 14.497 33.2125 14.4715 32.6423 14.1939C31.2468 13.5146 30.0808 12.3432 29.6286 11.1665C29.4299 10.6493 29.456 9.92382 29.7001 9.18271C30.0793 8.03085 31.1538 5.96393 32.4783 3.83821L33.1034 2.83482L33.1252 4.88709C33.1428 6.56352 33.1696 6.97477 33.271 7.13267ZM16.7545 3.61538C19.6547 4.46757 21.8006 6.88701 22.313 9.88238C22.416 10.4842 22.4343 12.1398 22.4354 20.9391C22.4371 32.3567 22.4171 31.8885 22.9493 33.0227C23.5197 34.2385 24.3675 35.1027 25.5601 35.6843C28.2211 36.9818 31.4091 35.795 32.7099 33.0227C33.2165 31.9428 33.2221 31.8645 33.2237 25.8497L33.2251 20.4113H33.9179H34.6106L34.5834 26.2219C34.5528 32.762 34.5875 32.373 33.91 33.7695C33.2416 35.147 32.1734 36.2391 30.8438 36.9045C29.8563 37.3985 29.3185 37.5355 28.1488 37.5906C27.4061 37.6256 27.0046 37.6031 26.4855 37.497C24.4048 37.0722 22.6337 35.6613 21.7024 33.6868C21.0557 32.3156 21.108 33.3284 21.0543 21.1144C21.0004 8.83788 21.0526 9.80702 20.3684 8.37659C19.5956 6.76071 18.3151 5.6363 16.5923 5.06079C15.9741 4.85425 15.7849 4.83002 14.7667 4.82696C13.4569 4.82299 12.958 4.93209 11.927 5.4483C10.3292 6.24822 9.11472 7.75583 8.62117 9.55219C8.44891 10.1792 8.44348 10.3417 8.41662 15.676L8.38904 21.1557H7.69995H7.01086L7.03942 15.5519C7.06458 10.621 7.08445 9.88602 7.20454 9.43076C8.02806 6.31017 10.1636 4.19387 13.1937 3.49536C13.9781 3.31455 15.958 3.3813 16.7545 3.61538ZM32.8482 16.0181C33.8017 16.3178 34.7497 16.2169 35.8776 15.6955L36.3894 15.4589V17.108V18.7571H33.9553H31.5213V17.1014V15.4457L31.9067 15.6445C32.1187 15.7538 32.5424 15.9219 32.8482 16.0181ZM6.91764 26.5114L6.93873 30.2542H4.26044H1.58215V28.5738C1.58215 26.2536 1.71408 25.6409 2.44121 24.5829C3.28202 23.3596 4.65833 22.7198 6.36916 22.7571L6.89654 22.7686L6.91764 26.5114ZM10.921 23.0093C12.0135 23.3951 12.8949 24.1945 13.3821 25.2412C13.7765 26.0887 13.8337 26.4984 13.8337 28.4799V30.2542H11.1967H8.55983V26.479V22.7037L9.47261 22.7619C10.088 22.8012 10.5599 22.8818 10.921 23.0093ZM13.8337 33.6827C13.8337 35.6634 13.776 36.0769 13.384 36.9126C12.872 38.0037 12.0528 38.735 10.8634 39.1624L10.2231 39.3926L7.74847 39.3933C5.57281 39.3939 5.21533 39.3755 4.78945 39.2416C3.77379 38.9222 2.97566 38.3573 2.44121 37.5797C1.71408 36.5217 1.58215 35.909 1.58215 33.5888V31.9084H7.7079H13.8337V33.6827Z" fill="#C7CB12"/>
</svg>
