<svg width="42" height="40" viewBox="0 0 42 40" fill="none" xmlns="http://www.w3.org/2000/svg">
<path fill-rule="evenodd" clip-rule="evenodd" d="M16.0698 0.127848C13.4931 0.479958 10.6799 1.54037 8.52099 2.9734C2.96111 6.664 -0.239677 12.8331 0.0140293 19.3695C0.188145 23.8556 2.01677 28.1681 5.17825 31.5485C5.84961 32.2664 6.08132 32.4121 6.55173 32.4121C7.35568 32.4121 7.91364 31.708 7.74133 30.9111C7.70686 30.7517 7.45537 30.3942 7.10665 30.0087C4.84438 27.5077 3.45663 24.9325 2.82933 22.0714C1.10484 14.2061 5.58072 6.13063 13.1732 3.40876C14.709 2.85822 16.0382 2.5942 17.7685 2.49603C18.6736 2.44461 18.9923 2.3951 19.1958 2.27401C20.0015 1.79481 20.0445 0.702141 19.2782 0.182186C19.0231 0.00908946 18.9116 -0.00624503 17.9654 0.00158889C17.3967 0.00625591 16.5437 0.0630934 16.0698 0.127848ZM26.3474 0.657388C25.3887 0.922741 24.5123 1.20118 24.3998 1.27602C24.1148 1.46562 23.9387 1.76505 23.894 2.13583C23.8477 2.51978 24.7728 6.09296 24.9993 6.40499C25.2732 6.78235 25.5466 6.92886 25.9897 6.93561C26.8802 6.94928 27.3969 6.1288 27.1238 5.13489C27.0652 4.92162 27.0735 4.90887 27.2193 4.98813C27.3072 5.03588 27.7422 5.34999 28.186 5.68626C30.2489 7.2488 31.8411 9.19628 32.9679 11.5355C35.974 17.7757 34.7623 25.2244 29.9405 30.1458C27.1155 33.0292 23.4971 34.6729 19.4428 34.9142C18.7385 34.9561 14.2629 34.9915 9.49725 34.993L0.832339 34.9956L0.553525 35.1848C-0.220805 35.7102 -0.169686 36.7955 0.652562 37.2875C0.926782 37.4516 1.07866 37.4541 10.3672 37.4541C20.4676 37.4541 20.4953 37.4531 22.5109 37.0245C24.5258 36.596 26.9447 35.5779 28.6649 34.4343C32.5305 31.8646 35.3862 27.8264 36.4896 23.3698C36.9122 21.663 37.0296 20.648 37.0296 18.7027C37.0296 16.7224 36.9108 15.7304 36.4609 13.9554C35.6621 10.8035 34.1174 8.03419 31.8074 5.61226C30.9501 4.71328 29.6001 3.56919 28.7633 3.03207C28.5513 2.89614 28.3779 2.76096 28.3779 2.73163C28.3778 2.70237 28.5078 2.65362 28.6666 2.62337C29.0534 2.5497 29.5029 2.134 29.6181 1.74347C29.8634 0.911741 29.295 0.148933 28.4433 0.167268C28.2493 0.171435 27.3061 0.392035 26.3474 0.657388ZM16.6852 7.62874C12.2211 8.44664 8.77018 11.8487 7.77004 16.4177C7.49689 17.6657 7.49689 19.7397 7.77004 20.9878C8.65014 25.0085 11.4362 28.1593 15.2083 29.3998C17.3115 30.0915 19.9204 30.0933 21.9986 29.4045C24.8708 28.4526 27.1667 26.4453 28.5206 23.7024C28.959 22.8141 29.2274 22.0361 29.4569 20.9878C29.73 19.7397 29.73 17.6657 29.4569 16.4177C28.4518 11.8263 24.9676 8.40463 20.5067 7.62816C19.5465 7.46106 17.5991 7.46131 16.6852 7.62874ZM20.388 10.1529C21.95 10.4804 23.3561 11.2397 24.5353 12.3927C25.7382 13.569 26.5313 14.9312 26.9616 16.5604C27.1496 17.2725 27.1752 17.5289 27.1752 18.7027C27.1752 19.8766 27.1496 20.133 26.9616 20.8451C26.5283 22.4854 25.7249 23.8596 24.5157 25.0284C23.3065 26.1971 21.9453 26.9263 20.3463 27.2617C19.283 27.4848 17.423 27.439 16.4391 27.1655C14.9573 26.7534 13.7847 26.0741 12.6513 24.9711C11.4933 23.844 10.6909 22.4564 10.2653 20.8451C10.0773 20.133 10.0517 19.8766 10.0517 18.7027C10.0517 17.5289 10.0773 17.2725 10.2653 16.5604C10.6646 15.0487 11.3689 13.774 12.4126 12.6741C13.667 11.3523 15.1265 10.5158 16.8083 10.1551C17.7775 9.94717 19.4018 9.94617 20.388 10.1529ZM21.7725 16.2381C21.6822 16.2798 20.6694 17.271 19.5217 18.4407L17.4349 20.5676L16.5049 19.6596C15.5071 18.6852 15.3332 18.5941 14.6495 18.6873C14.2182 18.7461 13.7295 19.2391 13.644 19.7017C13.5311 20.3134 13.6681 20.5181 15.289 22.1613L16.8099 23.7031H17.3681C17.9034 23.7031 17.9429 23.6889 18.3314 23.3563C18.5542 23.1654 19.794 21.9278 21.0864 20.6061C23.0356 18.6126 23.4537 18.1437 23.5381 17.8565C23.684 17.3604 23.5835 16.9554 23.2145 16.5538C22.9278 16.2416 22.8652 16.2128 22.42 16.1886C22.1541 16.1742 21.8627 16.1966 21.7725 16.2381ZM37.6746 32.6585C36.9773 33.0903 36.887 34.0381 37.4874 34.6224C37.6217 34.7532 37.7317 34.8906 37.7317 34.9279C37.7317 34.9651 36.467 34.9959 34.9214 34.9962C32.3066 34.9967 32.0948 35.0076 31.8765 35.1538C31.5086 35.4002 31.3327 35.7363 31.3322 36.1942C31.3315 36.6788 31.5307 37.0487 31.9208 37.2875C32.1766 37.444 32.3646 37.4558 35.0085 37.4809L37.824 37.5076L37.4957 37.8693C37.0114 38.4029 36.9498 39.0388 37.3343 39.5354C37.6779 39.9789 38.3809 40.1333 38.8751 39.8738C39.003 39.8066 39.7221 39.1034 40.473 38.3112C42.5057 36.1666 42.5053 36.2384 40.4942 34.1766C39.7194 33.3823 38.9859 32.6791 38.864 32.6139C38.548 32.4449 37.9853 32.466 37.6746 32.6585Z" fill="#FB5A5A"/>
</svg>
