<svg width="37" height="37" viewBox="0 0 37 37" fill="none" xmlns="http://www.w3.org/2000/svg">
<path fill-rule="evenodd" clip-rule="evenodd" d="M25.2993 0.0150309C24.0356 0.175858 22.7361 0.562771 21.6787 1.09308C20.7487 1.5595 19.3632 2.52352 19.3729 2.69744C19.3747 2.72921 19.5216 2.91752 19.6992 3.11597C19.9409 3.38576 20.0471 3.45875 20.1207 3.40536C20.1748 3.36608 20.397 3.19555 20.6146 3.02641C21.6709 2.20505 23.0541 1.56543 24.4316 1.26143C25.4263 1.04193 27.2432 1.02391 28.1918 1.22417C32.0872 2.04647 34.9396 4.90034 35.76 8.79616C35.936 9.63163 35.9371 11.4749 35.7622 12.3543C35.1809 15.2766 33.3579 17.7117 30.7468 19.0535C29.5109 19.6887 28.4951 19.9676 26.9987 20.0826L26.1309 20.1493L25.7513 19.898C25.5425 19.7599 25.3716 19.62 25.3716 19.5874C25.3716 19.5548 25.5135 19.4261 25.6869 19.3015C25.9809 19.0903 26.0645 19.0699 26.9211 19.0004C27.4265 18.9593 28.0432 18.8785 28.2916 18.8209C31.4457 18.0891 33.9265 15.5827 34.6336 12.4135C35.4679 8.67382 33.6069 4.75536 30.1882 3.05397C28.8902 2.40806 27.892 2.17872 26.384 2.17995C24.8942 2.18118 23.8532 2.4265 22.5515 3.0832C20.4869 4.12471 18.6908 6.29737 17.9319 8.67144C17.5685 9.80815 17.4624 10.5546 17.4669 11.9433C17.4727 13.7896 17.8081 15.4005 18.5724 17.2534C18.7628 17.715 19.1158 18.5696 19.3568 19.1524C21.2356 23.6959 21.05 27.9802 18.8308 31.2973C18.6102 31.6272 18.4296 31.9236 18.4296 31.956C18.4296 32.0609 19.235 32.6266 19.2854 32.5571C19.6444 32.0628 20.2174 31.121 20.4865 30.5831C22.2092 27.1391 22.1153 22.6908 20.2292 18.3937C18.8326 15.2117 18.3666 13.1318 18.571 10.991C18.7761 8.84246 19.5785 7.09289 21.0659 5.55168C22.1161 4.46344 23.2882 3.7807 24.7208 3.42272C25.6699 3.18557 27.2493 3.20532 28.2263 3.46657C33.138 4.77996 35.3085 10.4643 32.5068 14.6769C32.0646 15.3418 31.1288 16.2808 30.4836 16.7072C29.5758 17.3069 28.4031 17.7485 27.3774 17.8767L26.9625 17.9285V17.5223C26.9625 17.2989 26.9382 17.1168 26.9083 17.1177C26.8135 17.1204 23.5277 19.5101 23.5277 19.5762C23.5277 19.6381 26.6931 21.9476 26.8721 22.0164C26.9382 22.0418 26.9625 21.935 26.9625 21.6187V21.1862L27.5436 21.1355C29.3109 20.9812 31.2296 20.2202 32.7718 19.0617C37.2509 15.6971 38.3325 9.41647 35.2399 4.72939C34.5796 3.72875 33.2641 2.41015 32.2735 1.75599C30.5259 0.601983 28.7893 0.0605372 26.6733 0.00967717C26.0568 -0.00508164 25.4385 -0.00269419 25.2993 0.0150309ZM18.2004 3.83033C16.7331 5.54836 15.8034 7.55961 15.4202 9.84519C15.2546 10.8331 15.2565 12.8956 15.424 13.969C15.6836 15.6318 16.2149 17.3598 17.0368 19.2141C19.2552 24.2188 18.8872 28.3411 15.9473 31.4177C14.5647 32.8647 12.927 33.6216 10.9453 33.7297C9.2287 33.8233 7.56703 33.3064 6.14963 32.2378C3.05595 29.9055 2.33774 25.5512 4.50827 22.2875C4.94056 21.6375 5.88077 20.6967 6.5203 20.2741C7.42804 19.6744 8.60074 19.2329 9.6265 19.1046L10.0414 19.0528V19.459C10.0414 19.6824 10.0628 19.8653 10.0889 19.8653C10.1746 19.8653 13.4762 17.4681 13.4762 17.406C13.4762 17.3446 10.1722 14.9457 10.0875 14.9457C10.0621 14.9457 10.0414 15.1363 10.0414 15.3693V15.7931L9.52518 15.841C6.52356 16.1201 3.59721 17.8509 1.88159 20.3618C-0.29857 23.5523 -0.605682 27.6084 1.07284 31.0429C3.27382 35.5466 8.29992 37.893 13.158 36.6847C14.0093 36.473 14.5932 36.2562 15.384 35.8583C15.9555 35.5708 16.7664 35.0723 16.7664 35.0087C16.7664 34.9588 16.1853 34.19 16.1475 34.19C16.1278 34.19 15.8178 34.3673 15.4585 34.584C14.4251 35.2073 13.2421 35.6238 11.9576 35.8169C7.95369 36.4184 3.93136 34.3151 2.09404 30.6591C1.40006 29.2781 1.11536 28.0441 1.11457 26.4127C1.11348 24.336 1.58026 22.775 2.71029 21.0768C4.39199 18.5495 7.39442 16.899 10.3102 16.899C10.9627 16.899 11.0085 16.9095 11.3131 17.1284C11.4886 17.2545 11.6322 17.3807 11.6322 17.4089C11.6322 17.4372 11.4611 17.5781 11.2519 17.7222C10.8916 17.9706 10.8411 17.9842 10.2852 17.9842C8.70465 17.9842 6.98122 18.5789 5.60569 19.5987C1.44055 22.6868 0.988163 28.6952 4.64516 32.354C7.95397 35.6644 13.2795 35.6562 16.5791 32.3357C19.5441 29.352 20.317 25.2988 18.7916 20.7334C18.5988 20.1565 18.2724 19.31 18.0663 18.8524C16.2109 14.7343 15.8657 11.0762 17.0354 7.928C17.4864 6.71408 18.1728 5.53649 18.9722 4.60524L19.3093 4.21247L18.9237 3.86679C18.7116 3.67666 18.5218 3.52075 18.5019 3.52032C18.4821 3.51989 18.3463 3.65944 18.2004 3.83033ZM24.7931 5.86068V6.54255L24.4135 6.75062C24.2047 6.865 23.9656 7.00239 23.8822 7.05592C23.7462 7.14318 23.6684 7.11829 23.1287 6.81465C22.6705 6.5568 22.5123 6.4982 22.4659 6.56896C22.4323 6.62011 22.1326 7.13399 21.7999 7.71096C21.4672 8.28792 21.1252 8.87791 21.0399 9.0221L20.8849 9.28414L21.4831 9.62736L22.0814 9.9705L22.0755 10.5869L22.0696 11.2034L21.6416 11.4529C20.7917 11.9486 20.7869 11.7158 21.6785 13.2595C22.1088 14.0045 22.4953 14.6255 22.5376 14.6396C22.5799 14.6537 22.8623 14.5201 23.1652 14.3427L23.7159 14.0202L24.122 14.2649C24.3454 14.3994 24.5878 14.5284 24.6607 14.5516C24.7774 14.5887 24.7931 14.6791 24.7931 15.3122V16.0309H26.4202H28.0472V15.3218V14.6128L28.3545 14.4575C28.5235 14.372 28.7595 14.2376 28.8788 14.1587L29.0958 14.0154L29.6888 14.3662L30.2818 14.717L31.0434 13.3935C31.4623 12.6656 31.8221 12.0252 31.8428 11.9705C31.8681 11.904 31.6884 11.7625 31.3035 11.5454L30.7262 11.2198L30.7245 10.5965L30.7228 9.97325L31.3013 9.63698C31.6195 9.45199 31.8798 9.28299 31.8798 9.26143C31.8798 9.23987 31.7008 8.91474 31.4821 8.5389C31.2633 8.16313 30.9032 7.54448 30.6818 7.16416L30.2793 6.47266L29.9044 6.68558C29.6983 6.80271 29.4308 6.95587 29.3101 7.0259L29.0905 7.15323L28.5689 6.84199L28.0472 6.53068V5.85475V5.17881H26.4202H24.7931V5.86068ZM26.9776 6.81696L26.9987 7.36984L27.2879 7.45615C27.721 7.58536 28.1417 7.8194 28.5742 8.17173L28.9618 8.48767L29.3755 8.24401C29.603 8.11002 29.8179 8.00034 29.8529 8.00034C29.925 8.00034 30.3612 8.73503 30.3612 8.85643C30.3612 8.89976 30.1652 9.04229 29.9255 9.17316L29.4899 9.41111L29.5459 9.7005C29.6203 10.0848 29.6173 11.1529 29.5411 11.4838L29.4801 11.7479L29.9553 12.0137L30.4304 12.2795L30.2126 12.654C30.0927 12.86 29.9674 13.074 29.934 13.1297C29.8852 13.2111 29.7884 13.1793 29.4389 12.9669C29.2 12.8217 28.9799 12.7029 28.9498 12.7029C28.9196 12.7029 28.756 12.8311 28.5861 12.9877C28.2494 13.2983 27.7512 13.5751 27.2699 13.7191L26.9625 13.811V14.3783V14.9457H26.4232H25.8839L25.8628 14.3879L25.8417 13.8303L25.3961 13.677C24.8965 13.5051 24.6923 13.3856 24.1989 12.9763L23.8576 12.6933L23.3949 12.9521C22.88 13.2402 22.9229 13.2551 22.5901 12.673C22.3584 12.2677 22.3445 12.2934 22.992 11.9267L23.324 11.7387L23.2295 11.2984C23.1097 10.7401 23.1095 10.4638 23.2284 9.89613L23.3238 9.44063L22.8834 9.18336C22.6411 9.04185 22.4315 8.91517 22.4175 8.90193C22.3746 8.86127 22.8698 8.00034 22.936 8.00034C22.9701 8.00034 23.201 8.11393 23.449 8.25269L23.9 8.50504L24.1099 8.2859C24.4156 7.96663 24.929 7.65655 25.4348 7.48567L25.8778 7.33591V6.79996V6.26401H26.4171H26.9565L26.9776 6.81696ZM25.7596 8.51321C25.3782 8.62383 24.8415 9.03107 24.5993 9.39375C23.6435 10.8245 24.6894 12.7389 26.4244 12.7347C27.577 12.7318 28.4536 11.9046 28.5371 10.7411C28.5875 10.0382 28.4177 9.58923 27.9091 9.08092C27.6341 8.80607 27.391 8.63816 27.1485 8.55568C26.7666 8.42575 26.1285 8.40621 25.7596 8.51321ZM26.9451 9.66397C27.6761 10.1098 27.634 11.1401 26.8686 11.5345C26.606 11.6698 26.4781 11.6942 26.2419 11.6543C25.7383 11.5692 25.2993 11.0699 25.2993 10.5823C25.2993 10.2945 25.6086 9.79868 25.8785 9.65384C26.2045 9.47897 26.6488 9.48317 26.9451 9.66397ZM8.95666 21.6595V22.3686L8.64933 22.5239C8.48027 22.6093 8.24438 22.7433 8.12507 22.8217L7.90813 22.9642L7.36578 22.6459C7.06749 22.4708 6.7909 22.3272 6.75112 22.3269C6.71135 22.3265 6.32296 22.947 5.888 23.7057C5.24601 24.8257 5.11671 25.0981 5.20103 25.1538C5.25816 25.1914 5.52427 25.3436 5.79247 25.4919L6.28015 25.7616L6.28059 26.3882L6.28109 27.015L5.70259 27.3488C5.38441 27.5324 5.12409 27.7005 5.12409 27.7222C5.12409 27.759 6.38544 29.9692 6.61886 30.3414L6.72336 30.508L7.20727 30.2388C7.47346 30.0906 7.74 29.9399 7.79966 29.9038C7.87667 29.8572 8.06013 29.9264 8.43239 30.1424L8.95666 30.4467V31.1246V31.8025H10.5837H12.2107V31.1163V30.43L12.6265 30.2114C12.8552 30.0911 13.095 29.9552 13.1595 29.9092C13.2546 29.8414 13.3883 29.89 13.8709 30.1686C14.1978 30.3573 14.4757 30.5009 14.4884 30.4879C14.5012 30.4748 14.7939 29.9758 15.1387 29.3789C15.4837 28.7821 15.8443 28.1582 15.9401 27.9925L16.1143 27.6913L15.5164 27.3556L14.9185 27.0198L14.9274 26.3966L14.9363 25.7734L15.4898 25.4535C15.7943 25.2776 16.0433 25.0985 16.0433 25.0556C16.0433 24.9396 14.5222 22.3251 14.4547 22.3251C14.4229 22.3251 14.1465 22.4677 13.8407 22.6421L13.2847 22.9592L12.8802 22.7155C12.6578 22.5815 12.4161 22.4529 12.3432 22.4298C12.2265 22.3926 12.2107 22.3022 12.2107 21.6691V20.9505H10.5837H8.95666V21.6595ZM11.126 22.6145C11.126 23.0789 11.1473 23.1932 11.2337 23.1932C11.4938 23.1932 12.2904 23.5885 12.7022 23.9218L13.1512 24.2853L13.6114 24.0278C13.9673 23.8287 14.0875 23.791 14.1411 23.8616C14.2425 23.9948 14.5971 24.623 14.5971 24.6693C14.5971 24.691 14.3849 24.831 14.1255 24.9801C13.8556 25.1355 13.6684 25.289 13.6876 25.3393C13.8724 25.821 13.8908 26.6771 13.7296 27.2989C13.6698 27.5296 13.6769 27.5388 14.1148 27.7947C14.3602 27.938 14.5728 28.0665 14.5873 28.0804C14.6018 28.0941 14.4957 28.3164 14.3516 28.5743L14.0895 29.0432L13.6075 28.7614L13.1254 28.4796L12.8263 28.7555C12.4546 29.0982 12.0002 29.3617 11.5057 29.5213L11.126 29.6438V30.1805V30.7173H10.5867H10.0474L10.0263 30.1644L10.0052 29.6115L9.71595 29.5252C9.26732 29.3914 8.81016 29.1368 8.41193 28.7989L8.04791 28.4902L7.63131 28.7356C7.40216 28.8706 7.18515 28.981 7.14906 28.981C7.09953 28.981 6.56991 28.1663 6.57042 28.0908C6.57049 28.083 6.78367 27.9627 7.04414 27.8235L7.51778 27.5702L7.45986 27.317C7.38567 26.9927 7.38487 25.842 7.45856 25.4951L7.51511 25.2287L7.04095 24.9634L6.56673 24.6981L6.78692 24.3255C6.90804 24.1206 7.03488 23.9073 7.06879 23.8517C7.11855 23.7701 7.21472 23.8016 7.56493 24.0145C7.80385 24.1597 8.02397 24.2784 8.05413 24.2784C8.08428 24.2784 8.24793 24.1502 8.41779 23.9936C8.75448 23.6831 9.25264 23.4063 9.73402 23.2623L10.0414 23.1703V22.603V22.0357H10.5837H11.126V22.6145ZM10.0378 24.3007C8.83453 24.6399 8.16491 25.9131 8.56147 27.1076C8.7398 27.6447 9.35229 28.2575 9.88906 28.4359C10.4428 28.6198 11.1268 28.562 11.629 28.2885C12.8997 27.5966 13.1446 25.8788 12.1161 24.8716C11.5713 24.338 10.7275 24.1062 10.0378 24.3007ZM11.1691 25.4834C11.6542 25.8013 11.8101 26.3785 11.5452 26.8753C11.2509 27.4268 10.5701 27.6293 10.0588 27.3174C9.33515 26.876 9.3695 25.8522 10.1213 25.4508C10.4747 25.2621 10.8493 25.2737 11.1691 25.4834ZM17.3078 33.1781L16.9508 33.5408L17.3287 33.9188L17.7065 34.2968L18.0843 33.9188L18.4622 33.5408L18.1052 33.1781C17.9088 32.9786 17.7294 32.8154 17.7065 32.8154C17.6836 32.8154 17.5042 32.9786 17.3078 33.1781Z" fill="#5BCF00"/>
</svg>
