<svg width="40" height="40" viewBox="0 0 40 40" fill="none" xmlns="http://www.w3.org/2000/svg">
<path fill-rule="evenodd" clip-rule="evenodd" d="M18.4176 0.0258335C17.1381 0.179699 16.6964 0.247689 15.8937 0.414081C12.5847 1.10005 9.25105 2.77011 6.83317 4.95314C3.09125 8.33155 0.895406 12.4153 0.146069 17.3895C-0.0484416 18.6808 -0.0487545 21.5816 0.145521 22.8227C0.899629 27.6403 2.84567 31.4965 6.10487 34.6317C8.84545 37.2679 11.9787 38.9732 15.6169 39.8085C16.0767 39.9141 16.5871 39.9997 16.7509 39.9987C17.5585 39.9941 18.3385 39.2014 18.3385 38.3854C18.3385 37.8646 17.9385 37.2066 17.4751 36.9652C17.3567 36.9036 16.9131 36.7778 16.4895 36.6859C10.0205 35.2819 5.01516 30.2524 3.59767 23.7316C3.31775 22.4442 3.22624 21.523 3.22585 19.9894C3.22523 17.409 3.73461 15.1675 4.85295 12.8303C7.33403 7.64495 12.0792 4.19185 17.8701 3.3576C18.8659 3.21414 21.3323 3.23659 22.3672 3.39849C24.6988 3.76326 26.6875 4.48138 28.6442 5.66519L29.29 6.05588L28.5855 7.08944C28.1981 7.65795 27.8811 8.19943 27.8811 8.29279C27.8811 8.38615 27.9511 8.5263 28.0366 8.60422C28.1864 8.74083 28.2938 8.73697 31.0281 8.49479C32.588 8.3566 33.9618 8.22448 34.0812 8.201C34.4034 8.13774 34.7513 7.80614 34.8065 7.50952C34.8425 7.31665 34.6526 6.51928 34.0626 4.38471C33.6268 2.80848 33.2137 1.45584 33.1445 1.37879C32.9726 1.1875 32.7113 1.20302 32.5199 1.41605C32.4323 1.51359 32.1056 1.96557 31.794 2.42055C31.4823 2.87553 31.2004 3.27685 31.1677 3.31238C31.1348 3.34799 30.9186 3.25519 30.6873 3.10628C28.403 1.63618 25.659 0.605919 22.8756 0.173475C22.0909 0.0515959 19.0431 -0.0493263 18.4176 0.0258335ZM18.3333 7.24795C18.1881 7.34643 17.9893 7.5467 17.8915 7.69293L17.7137 7.95874L17.7164 14.7028L17.7189 21.4469L23.6799 24.5466C27.0845 26.317 29.7645 27.6642 29.9292 27.688C30.3953 27.7552 30.7535 27.6477 31.0466 27.3524C31.5614 26.8339 31.5768 26.0156 31.0808 25.5369C30.957 25.4175 28.4883 24.087 25.5948 22.5803L20.3338 19.8409L20.2946 13.8623L20.2555 7.88366L20.0364 7.59437C19.9159 7.43522 19.7153 7.25181 19.5906 7.1869C19.2433 7.00593 18.6471 7.03492 18.3333 7.24795ZM36.4445 11.7852C35.8218 12.0702 35.4116 12.7635 35.4887 13.4006C35.5463 13.8775 36.0026 15.0778 36.2295 15.3495C36.8868 16.1364 38.1773 16.0714 38.7701 15.2218C39.1153 14.727 39.1341 14.2621 38.8429 13.4209C38.4881 12.3964 38.2824 12.0852 37.7996 11.8429C37.3183 11.6012 36.8867 11.5829 36.4445 11.7852ZM37.9428 17.8643C37.6098 17.9648 37.2367 18.2467 37.0247 18.558C36.856 18.8057 36.8334 18.9344 36.8097 19.7848C36.7804 20.8359 36.851 21.1939 37.161 21.565C37.8444 22.3831 39.1038 22.314 39.7239 21.4242C39.9405 21.1134 39.9619 21.0223 39.9912 20.2887C40.0351 19.1869 39.9213 18.7203 39.5071 18.3037C39.0567 17.8506 38.5031 17.6951 37.9428 17.8643ZM36.7124 24.3097C36.2873 24.5813 36.1738 24.7481 35.9063 25.4952C35.4842 26.6739 35.4951 27.1849 35.9544 27.7462C36.6681 28.6185 38.0685 28.4971 38.5734 27.5192C38.8085 27.0638 39.1434 25.971 39.1434 25.6594C39.1434 24.7507 38.4574 24.0861 37.5195 24.0861C37.1517 24.0861 36.994 24.1299 36.7124 24.3097ZM34.009 29.8317C33.6505 29.9956 32.8379 30.916 32.5737 31.4576C32.0965 32.4352 32.7524 33.6549 33.8105 33.7573C34.5522 33.8291 34.9729 33.5693 35.7322 32.5707C36.2495 31.8904 36.3972 31.4107 36.254 30.8767C36.1478 30.4809 35.7329 29.9862 35.3561 29.8061C35.004 29.6377 34.4082 29.6491 34.009 29.8317ZM29.3427 34.204C28.3089 34.7632 27.8442 35.1865 27.6584 35.7382C27.2424 36.9736 28.5841 38.1786 29.8073 37.6682C30.3061 37.4599 31.2725 36.7816 31.4573 36.51C31.6859 36.1739 31.7765 35.709 31.698 35.2734C31.6247 34.8662 31.4718 34.6324 31.0587 34.2955C30.8109 34.0936 30.6857 34.0526 30.2426 34.0287C29.7965 34.0046 29.6634 34.0305 29.3427 34.204ZM23.384 36.6976C23.0398 36.7813 22.6766 36.8924 22.5768 36.9445C22.1245 37.1806 21.7071 37.8323 21.7046 38.3066C21.6998 39.1937 22.4617 39.9977 23.3094 40C23.5768 40.0008 24.9131 39.6873 25.1348 39.5718C26.2771 38.9768 26.2865 37.3211 25.151 36.7173C24.7263 36.4914 24.2531 36.4862 23.384 36.6976Z" fill="#FF0FCA"/>
</svg>
