<svg width="38" height="40" viewBox="0 0 38 40" fill="none" xmlns="http://www.w3.org/2000/svg">
<path d="M37.4645 25.3667C37.4205 25.2467 37.3467 25.1401 37.25 25.0569C37.1534 24.9736 37.0372 24.9167 36.9124 24.8914L29.5422 23.8223L26.2309 17.0897C26.1733 16.9709 26.0836 16.8707 25.9721 16.8006C25.8606 16.7305 25.7317 16.6934 25.6001 16.6934C25.4686 16.6934 25.3397 16.7305 25.2282 16.8006C25.1166 16.8707 25.0269 16.9709 24.9694 17.0897L21.6587 23.7826L14.2885 24.8517C14.1613 24.8709 14.0421 24.9257 13.9445 25.0097C13.8469 25.0938 13.7747 25.2038 13.7364 25.3271C13.6954 25.4522 13.6922 25.5867 13.7274 25.7136C13.7625 25.8404 13.8344 25.954 13.9338 26.0398L19.2548 31.2676L17.9927 38.6315C17.9746 38.7583 17.9906 38.8875 18.0391 39.0059C18.0876 39.1243 18.1668 39.2274 18.2684 39.3046C18.3779 39.3789 18.5054 39.4218 18.6374 39.4288C18.7693 39.4358 18.9006 39.4066 19.0173 39.3443L25.5978 35.8593L32.1784 39.3443C32.2952 39.4061 32.4264 39.435 32.5582 39.428C32.69 39.421 32.8176 39.3784 32.9272 39.3046C33.0328 39.231 33.115 39.1283 33.1639 39.0089C33.2128 38.8895 33.2264 38.7585 33.2029 38.6315L31.9415 31.2656L37.2625 26.0775C37.3576 25.9886 37.4265 25.8749 37.4613 25.7491C37.4962 25.6233 37.4957 25.4903 37.4599 25.3648L37.4645 25.3667ZM30.6866 30.5548C30.6063 30.6373 30.5465 30.7377 30.5122 30.8477C30.4779 30.9578 30.47 31.0745 30.4891 31.1882L31.5532 37.5248L25.9143 34.5548C25.8123 34.4965 25.6968 34.4658 25.5794 34.4658C25.4619 34.4658 25.3465 34.4965 25.2444 34.5548L19.6082 37.5248L20.6723 31.1882C20.6915 31.0745 20.6836 30.9578 20.6493 30.8477C20.615 30.7376 20.5552 30.6373 20.4749 30.5548L15.9415 26.0795L22.2483 25.1684C22.3601 25.151 22.4657 25.1056 22.5553 25.0362C22.645 24.9669 22.7157 24.8759 22.7609 24.7717L25.5991 19.0296L28.4373 24.7717C28.4923 24.8687 28.5659 24.9537 28.6539 25.0218C28.7419 25.0899 28.8426 25.1398 28.9499 25.1684L35.2567 26.0795L30.6866 30.5548Z" fill="#0BB326" stroke="#0BB326" stroke-width="1.5"/>
<path d="M15.3517 39.5044H1.24105C1.14269 39.5045 1.04527 39.4851 0.95437 39.4473C0.863474 39.4095 0.780886 39.3541 0.71133 39.2842C0.641774 39.2143 0.586619 39.1313 0.549015 39.04C0.511412 38.9487 0.492101 38.8508 0.492188 38.752V1.24851C0.492101 1.14968 0.511412 1.0518 0.549015 0.960479C0.586619 0.869155 0.641774 0.786177 0.71133 0.716293C0.780886 0.646409 0.863474 0.590992 0.95437 0.553211C1.04527 0.51543 1.14269 0.496028 1.24105 0.496115H24.8935C25.0832 0.49467 25.2664 0.56555 25.4061 0.694462L32.2222 7.42636C32.2992 7.49612 32.3603 7.58185 32.401 7.67763C32.4418 7.77341 32.4614 7.87694 32.4585 7.98107V14.832C32.4586 14.9308 32.4393 15.0287 32.4017 15.12C32.3641 15.2113 32.3089 15.2943 32.2393 15.3642C32.1698 15.4341 32.0872 15.4895 31.9963 15.5273C31.9054 15.5651 31.808 15.5845 31.7096 15.5844C31.6134 15.5888 31.5173 15.5737 31.4271 15.54C31.3368 15.5063 31.2542 15.4546 31.1843 15.388C31.1144 15.3215 31.0586 15.2415 31.0202 15.1527C30.9817 15.064 30.9615 14.9684 30.9608 14.8717V8.29777L24.5776 2.00091H1.99321V37.9983H15.3517C15.4501 37.9982 15.5475 38.0176 15.6384 38.0554C15.7293 38.0931 15.8119 38.1486 15.8814 38.2184C15.951 38.2883 16.0061 38.3713 16.0437 38.4626C16.0814 38.554 16.1007 38.6518 16.1006 38.7507C16.094 38.9481 16.013 39.1357 15.874 39.2754C15.7349 39.4151 15.5482 39.4965 15.3517 39.5031V39.5044Z" fill="#0BB326" stroke="#0BB326" stroke-width="1.5"/>
<path d="M6.40638 13.3678H22.2122C22.4422 13.3678 22.6628 13.276 22.8255 13.1126C22.9881 12.9492 23.0795 12.7275 23.0795 12.4964C23.0795 12.2653 22.9881 12.0436 22.8255 11.8802C22.6628 11.7168 22.4422 11.625 22.2122 11.625H6.40638C6.17636 11.625 5.95575 11.7168 5.79309 11.8802C5.63044 12.0436 5.53906 12.2653 5.53906 12.4964C5.53906 12.7275 5.63044 12.9492 5.79309 13.1126C5.95575 13.276 6.17636 13.3678 6.40638 13.3678Z" fill="#0BB326" stroke="#0BB326" stroke-width="1.5"/>
<path d="M6.4845 8.57484H22.2903C22.5203 8.57484 22.7409 8.48303 22.9036 8.31961C23.0662 8.15619 23.1576 7.93455 23.1576 7.70344C23.1576 7.47233 23.0662 7.25068 22.9036 7.08726C22.7409 6.92384 22.5203 6.83203 22.2903 6.83203H6.4845C6.25447 6.83203 6.03387 6.92384 5.87122 7.08726C5.70856 7.25068 5.61719 7.47233 5.61719 7.70344C5.61719 7.93455 5.70856 8.15619 5.87122 8.31961C6.03387 8.48303 6.25447 8.57484 6.4845 8.57484Z" fill="#0BB326" stroke="#0BB326" stroke-width="1.5"/>
<path d="M6.4845 18.278H15.7078C15.9378 18.278 16.1584 18.1862 16.3211 18.0227C16.4837 17.8593 16.5751 17.6377 16.5751 17.4066C16.5751 17.1755 16.4837 16.9538 16.3211 16.7904C16.1584 16.627 15.9378 16.5352 15.7078 16.5352H6.4845C6.25511 16.5372 6.03571 16.6297 5.8735 16.7927C5.71129 16.9556 5.61925 17.1761 5.61719 17.4066C5.62582 17.6349 5.71996 17.8515 5.88078 18.0131C6.0416 18.1747 6.25723 18.2693 6.4845 18.278Z" fill="#0BB326" stroke="#0BB326" stroke-width="1.5"/>
<path d="M12.2396 23.3502H6.44544C6.21541 23.3502 5.99481 23.2584 5.83216 23.095C5.6695 22.9316 5.57812 22.71 5.57812 22.4788C5.57812 22.2477 5.6695 22.0261 5.83216 21.8627C5.99481 21.6992 6.21541 21.6074 6.44544 21.6074H12.2001C12.4295 21.6095 12.6489 21.702 12.8111 21.8649C12.9733 22.0279 13.0654 22.2484 13.0674 22.4788C13.0708 22.5909 13.0519 22.7024 13.012 22.8071C12.972 22.9117 12.9118 23.0073 12.8348 23.0884C12.7578 23.1695 12.6655 23.2344 12.5634 23.2793C12.4612 23.3243 12.3511 23.3484 12.2396 23.3502Z" fill="#0BB326" stroke="#0BB326" stroke-width="1.5"/>
</svg>
