<svg width="40" height="40" viewBox="0 0 40 40" fill="none" xmlns="http://www.w3.org/2000/svg">
<path fill-rule="evenodd" clip-rule="evenodd" d="M2.48373 0.114802C1.30067 0.441039 0.32976 1.46584 0.0746284 2.65775C0.00555147 2.98055 -0.0113271 6.52775 0.00672359 16.915L0.030713 30.7426L0.214892 31.1991C0.564887 32.0666 1.33364 32.809 2.23438 33.1494L2.68752 33.3206L12.0059 33.342L21.3242 33.3633L21.3256 34.5529C21.3279 36.5842 21.658 37.5391 22.7237 38.5965C23.4054 39.2728 24.0082 39.621 24.8872 39.8457C25.4584 39.9917 25.7679 40 30.6621 40C35.517 40 35.8696 39.9908 36.4238 39.8491C37.3411 39.6145 37.9279 39.2778 38.5961 38.6027C39.2725 37.9192 39.6212 37.3151 39.8457 36.438C39.992 35.8658 40 35.5566 40 30.4617C40 26.8457 39.9727 25.017 39.9166 24.869C39.7136 24.3332 39.1319 23.9895 38.4237 23.9867L37.9805 23.985L37.9503 21.6609C37.9207 19.391 37.915 19.3204 37.7055 18.6375C37.4388 17.7678 36.9734 16.864 36.4307 16.1619L36.0148 15.6236V9.38568C36.0148 5.52224 35.9848 2.98976 35.936 2.73274C35.6912 1.44178 34.6353 0.352136 33.3737 0.0882405C32.7348 -0.045426 2.97195 -0.0197239 2.48373 0.114802ZM33.5645 1.54185C34.0043 1.777 34.4315 2.29659 34.571 2.76618C34.6485 3.02711 34.6864 3.50959 34.6864 4.2344V5.31389H17.9965H1.3066L1.33349 4.04441C1.35576 2.99406 1.38537 2.72774 1.50524 2.5015C1.7846 1.97426 2.26563 1.56717 2.80426 1.40225C2.91194 1.36928 9.80424 1.34827 18.1204 1.35553L33.2408 1.36874L33.5645 1.54185ZM3.70336 2.74798C3.29929 2.96891 3.22232 3.47295 3.54356 3.79403C3.71344 3.96394 3.80291 3.98582 4.32849 3.98582C4.85406 3.98582 4.94354 3.96394 5.11342 3.79403C5.4359 3.4717 5.35198 2.96844 4.93924 2.7486C4.7249 2.63454 3.9116 2.63408 3.70336 2.74798ZM7.02436 2.75884C6.59998 2.97344 6.54879 3.53381 6.92645 3.83082C7.08203 3.95316 7.24081 3.98527 7.67958 3.98332C8.25509 3.98074 8.41723 3.91488 8.57445 3.6199C8.72097 3.34475 8.68072 3.12984 8.43692 2.8861C8.23227 2.6815 8.1571 2.6579 7.71412 2.65892C7.44218 2.65954 7.13181 2.70454 7.02436 2.75884ZM10.2221 2.8861C9.96756 3.14062 9.93849 3.33991 10.1081 3.66771C10.2533 3.94855 10.3576 3.98582 10.9986 3.98582C11.8022 3.98582 12.1464 3.64536 11.9115 3.0832C11.7743 2.75509 11.5475 2.65775 10.9203 2.65775C10.5053 2.65775 10.424 2.68439 10.2221 2.8861ZM13.7054 2.74798C13.3014 2.96891 13.2244 3.47295 13.5456 3.79403L13.7374 3.98582H23.0043H32.2711L32.4629 3.79403C32.7318 3.52529 32.7178 3.17749 32.4263 2.8861L32.1979 2.65775L23.0298 2.66009C16.5446 2.66181 13.816 2.68751 13.7054 2.74798ZM34.6676 10.6024L34.6878 14.5237L34.0424 14.1811C33.6875 13.9928 33.0806 13.7417 32.6938 13.6232C32.0437 13.424 31.89 13.4078 30.6621 13.4078C29.4401 13.4078 29.2788 13.4247 28.6475 13.6189C26.153 14.3861 24.3799 16.159 23.6149 18.6507C23.41 19.3176 23.4033 19.4016 23.3739 21.6609L23.3437 23.985L22.9005 23.9867C22.1923 23.9895 21.6106 24.3332 21.4076 24.869C21.3531 25.0127 21.3242 26.2916 21.3242 28.5621V32.0352L12.084 32.0139L2.8438 31.9925L2.47052 31.8071C2.26516 31.7052 1.97698 31.4814 1.83007 31.3097C1.28488 30.673 1.32004 31.5588 1.32004 18.4634V6.64157L17.9837 6.66134L34.6473 6.68102L34.6676 10.6024ZM5.06403 9.37084C4.66301 9.44919 4.29403 9.74012 4.12571 10.1107C3.99224 10.4045 3.98029 10.6693 3.98029 13.3214C3.98029 15.9608 3.99271 16.239 4.12383 16.5244C4.29457 16.8961 4.46883 17.0626 4.85625 17.2245C5.09747 17.3253 5.60868 17.3447 8.02113 17.3447C10.8497 17.3447 10.9042 17.3417 11.2463 17.1689C11.9187 16.8293 12.0593 16.3784 12.0128 14.7112C11.9883 13.8341 11.9722 13.7481 11.7969 13.5618C11.5463 13.2954 11.108 13.2847 10.8692 13.5389C10.7161 13.7018 10.6996 13.8157 10.6797 14.8474L10.6579 15.9775L7.98159 15.9981L5.30525 16.0186V13.3615V10.7043L6.65319 10.7041C8.1585 10.7041 8.47927 10.6245 8.62094 10.216C8.73058 9.90019 8.59539 9.59606 8.27376 9.43498C8.04379 9.31975 7.79343 9.29975 6.67273 9.30725C5.9421 9.31209 5.2182 9.34076 5.06403 9.37084ZM11.0877 9.39857C10.9321 9.47677 9.06455 11.6245 8.15468 12.7717L7.97104 13.0032L7.46539 12.5178C7.03491 12.1046 6.91754 12.0324 6.67593 12.0324C6.30695 12.0324 6.00852 12.3153 6.00852 12.6652C6.00852 12.876 6.13167 13.0399 6.80947 13.7311C7.25003 14.1802 7.692 14.5795 7.79163 14.6182C8.18163 14.77 8.32581 14.6383 10.1195 12.4908C11.084 11.3361 11.906 10.3049 11.9462 10.1992C12.0606 9.89824 11.8967 9.53599 11.5876 9.40685C11.2775 9.2774 11.3273 9.27818 11.0877 9.39857ZM14.2073 10.2296C14.0697 10.3672 13.9789 10.5402 13.9789 10.6652C13.9789 10.7902 14.0697 10.9633 14.2073 11.1009L14.4358 11.3293H17.2991C19.1978 11.3293 20.2154 11.3009 20.3199 11.245C20.556 11.1187 20.6978 10.7241 20.6039 10.4547C20.4451 9.99909 20.4605 10.0012 17.3157 10.0012H14.4358L14.2073 10.2296ZM14.2153 13.5147C13.8866 13.8434 13.9641 14.3824 14.3696 14.5874C14.5202 14.6636 15.5881 14.6865 19.0326 14.6873L23.5002 14.6885L23.7406 14.4863C24.0513 14.2249 24.0716 13.8346 23.7892 13.5522L23.5974 13.3604H18.9835C14.4937 13.3604 14.3655 13.3646 14.2153 13.5147ZM31.8878 14.8019C34.1503 15.2813 35.8997 16.9758 36.4818 19.2516C36.6209 19.7951 36.6399 20.1175 36.6399 21.9273V23.985H30.6621H24.6843L24.6856 21.9734C24.6871 19.8147 24.7451 19.3215 25.1008 18.4411C25.4219 17.6464 25.787 17.1044 26.444 16.4477C27.3158 15.5761 28.255 15.0544 29.4013 14.8052C30.0392 14.6665 31.2411 14.6649 31.8878 14.8019ZM4.69176 20.8364C4.54775 20.9073 4.33677 21.1061 4.22292 21.278L4.01592 21.5907L3.99373 24.5477C3.97286 27.3193 3.98083 27.5261 4.12118 27.8431C4.20346 28.0292 4.40413 28.2831 4.56697 28.4073L4.86305 28.6333L7.8375 28.6564C11.127 28.6819 11.2741 28.6642 11.6695 28.1945C11.9704 27.8369 12.0392 27.4375 12.0115 26.2079C11.9877 25.1504 11.9763 25.0801 11.7969 24.8895C11.5625 24.6403 11.1913 24.6232 10.9049 24.8484C10.7038 25.0065 10.7008 25.0239 10.6795 26.157L10.6579 27.3052L7.98159 27.3257L5.30525 27.3463V24.6891V22.032H6.63616C8.0677 22.032 8.41551 21.9621 8.58805 21.6397C8.71362 21.4052 8.61876 20.9692 8.41043 20.8233C8.15014 20.6411 5.0663 20.652 4.69176 20.8364ZM10.7637 20.9969C10.611 21.158 9.94778 21.9402 9.29007 22.7351C8.63228 23.53 8.06513 24.213 8.02973 24.2529C7.99238 24.2949 7.75412 24.1226 7.46258 23.8428C7.03483 23.4321 6.91739 23.36 6.67593 23.36C6.30679 23.36 6.00852 23.643 6.00852 23.9931C6.00852 24.2055 6.13363 24.3697 6.84706 25.0934C7.68669 25.9453 7.88548 26.0758 8.19429 25.9778C8.38238 25.9181 11.8338 21.8226 11.9471 21.5246C12.0939 21.1387 11.7639 20.7039 11.3244 20.7039C11.0987 20.7039 10.985 20.7634 10.7637 20.9969ZM14.2073 21.5572C14.0697 21.6949 13.9789 21.8679 13.9789 21.9929C13.9789 22.1179 14.0697 22.2909 14.2073 22.4286L14.4358 22.6569H17.3286C20.2187 22.6569 20.2217 22.6568 20.4169 22.4812C20.7143 22.2138 20.7194 21.8108 20.4291 21.5207L20.2374 21.3289H17.3366H14.4358L14.2073 21.5572ZM14.2291 24.8465C14.0008 25.0591 13.9426 25.3332 14.0696 25.598C14.2622 25.9996 14.3633 26.0138 17.052 26.015L19.539 26.0162L19.777 25.7782C19.9829 25.5725 20.0088 25.5011 19.9688 25.2509C19.8778 24.683 19.9046 24.6881 16.9935 24.6881C14.4953 24.6881 14.3928 24.694 14.2291 24.8465ZM38.6716 25.9713V26.6296L37.5316 26.6549C36.3926 26.6802 36.3914 26.6804 36.2032 26.8994C35.957 27.1859 35.9583 27.5293 36.2066 27.7774C36.3927 27.9635 36.4325 27.9692 37.535 27.9692H38.6716V28.6259V29.2826L37.5317 29.3095C36.3936 29.3363 36.3914 29.3368 36.2033 29.5556C35.9624 29.8356 35.9624 30.1652 36.2033 30.4452C36.3914 30.664 36.3936 30.6645 37.5317 30.6913L38.6716 30.7182V31.3749V32.0316H37.535C36.4325 32.0316 36.3927 32.0373 36.2066 32.2234C35.9583 32.4716 35.957 32.8149 36.2032 33.1014C36.3914 33.3204 36.3926 33.3206 37.5316 33.3459L38.6716 33.3712V34.0295V34.6877H37.535C36.4325 34.6877 36.3927 34.6934 36.2066 34.8795C35.9242 35.1618 35.9445 35.5521 36.2552 35.8135C36.4879 36.0092 36.5297 36.0158 37.5498 36.0158H38.604L38.5521 36.1916C38.31 37.0121 37.6558 37.852 36.967 38.2268C36.1549 38.6687 36.1093 38.6719 30.6621 38.6719C25.3301 38.6719 25.1998 38.6638 24.4578 38.2854C23.732 37.9152 23.0025 37.0101 22.7701 36.1916L22.7202 36.0158H23.7464C24.7749 36.0158 25.0126 35.9661 25.2093 35.7101C25.3733 35.4965 25.3284 35.0902 25.1176 34.8795C24.9315 34.6934 24.8918 34.6877 23.7892 34.6877H22.6526V34.0295V33.3712L23.7796 33.3459C24.8475 33.3219 24.9172 33.3107 25.108 33.1312C25.3766 32.8786 25.3807 32.4864 25.1176 32.2234C24.9315 32.0373 24.8918 32.0316 23.7892 32.0316H22.6526V31.3749V30.7182L23.7926 30.6913C24.9306 30.6645 24.9328 30.664 25.121 30.4452C25.2261 30.323 25.3094 30.1263 25.3094 30.0004C25.3094 29.8745 25.2261 29.6778 25.121 29.5556C24.9328 29.3368 24.9306 29.3363 23.7926 29.3095L22.6526 29.2826V28.6259V27.9692H23.7892C24.8918 27.9692 24.9315 27.9635 25.1176 27.7774C25.3807 27.5144 25.3766 27.1222 25.108 26.8696C24.9172 26.6901 24.8475 26.6789 23.7796 26.6549L22.6526 26.6296V25.9713V25.3131H30.6621H38.6716V25.9713ZM29.9388 28.8023C29.4737 28.9669 28.9475 29.5165 28.7841 30.0084C28.4726 30.9458 28.9281 32.065 29.7731 32.439L29.9979 32.5384V33.3743C29.9979 34.1412 30.0132 34.228 30.1831 34.4255C30.3242 34.5895 30.4384 34.6408 30.6621 34.6408C30.8858 34.6408 31 34.5895 31.1411 34.4255C31.311 34.228 31.3263 34.1412 31.3263 33.3743V32.5384L31.5721 32.4297C31.941 32.2665 32.392 31.7591 32.5311 31.3507C33.0856 29.7239 31.5634 28.2275 29.9388 28.8023ZM30.9657 30.0887C31.1996 30.1952 31.3619 30.5514 31.296 30.8137C31.1043 31.5772 29.9979 31.4085 29.9979 30.6157C29.9979 30.5285 30.1007 30.3544 30.2263 30.2288C30.4713 29.9838 30.658 29.9485 30.9657 30.0887Z" fill="#1E1A6F"/>
</svg>
