<svg width="49" height="40" viewBox="0 0 49 40" fill="none" xmlns="http://www.w3.org/2000/svg">
<path d="M0 30.596C0.2117 29.676 0.484577 28.7709 0.816836 27.8867C1.26252 26.8671 1.91409 25.9494 2.73117 25.1904C3.54825 24.4314 4.51343 23.8472 5.56693 23.4741C5.69219 23.4372 5.8033 23.3635 5.88569 23.2627C5.96808 23.1619 6.0179 23.0387 6.02861 22.9093C6.68624 19.7147 8.42603 16.8408 10.9577 14.7671C13.4895 12.6934 16.66 11.5453 19.9404 11.5143C23.2208 11.4833 26.4127 12.5714 28.9836 14.5969C31.5545 16.6224 33.3489 19.4629 34.0674 22.6445C34.0674 22.7857 34.1474 22.9181 34.1917 23.0681C35.3261 22.8332 36.4965 22.8285 37.6328 23.0542C38.769 23.2799 39.8477 23.7315 40.8041 24.3818C41.7605 25.032 42.5748 25.8676 43.1983 26.8384C43.8218 27.8092 44.2416 28.8952 44.4325 30.0312C44.6234 31.1673 44.5814 32.3299 44.3091 33.4494C44.0369 34.5689 43.5399 35.6222 42.848 36.5461C42.1562 37.47 41.2837 38.2455 40.2829 38.826C39.2821 39.4065 38.1736 39.7801 37.024 39.9243C36.579 39.9744 36.1313 39.998 35.6834 39.9949H8.86979C6.73591 40.0647 4.65254 39.341 3.027 37.9652C1.40145 36.5893 0.350603 34.6603 0.0799081 32.5552C0.0588744 32.4969 0.0321091 32.4407 0 32.3876V30.596ZM22.2588 37.1532C26.8313 37.1532 31.4038 37.1532 35.9675 37.1532C37.2281 37.1472 38.4517 36.7293 39.4497 35.9637C40.4477 35.1982 41.1646 34.1276 41.49 32.9171C41.821 31.699 41.7315 30.4057 41.2357 29.2442C40.7399 28.0826 39.8666 27.1199 38.7554 26.51C37.9882 26.0665 37.1257 25.8112 36.2394 25.7651C35.3531 25.7191 34.4686 25.8837 33.659 26.2452C33.4378 26.3681 33.1877 26.4308 32.9343 26.4267C32.6808 26.4227 32.4329 26.3522 32.2157 26.2223C31.9985 26.0924 31.8197 25.9077 31.6974 25.687C31.5751 25.4663 31.5136 25.2175 31.5193 24.9656C31.475 24.4621 31.4039 23.9613 31.3062 23.4653C30.7588 20.833 29.2934 18.4775 27.1688 16.8147C25.0441 15.1519 22.3967 14.2886 19.694 14.3773C16.9913 14.466 14.4069 15.5009 12.3972 17.2993C10.3875 19.0978 9.08154 21.5441 8.70997 24.2066C8.56791 25.4068 8.32819 25.6716 7.14733 25.9716C5.79457 26.323 4.61751 27.1533 3.83741 28.3067C3.05731 29.46 2.72791 30.8568 2.91113 32.2346C3.09434 33.6124 3.77756 34.8762 4.83234 35.7884C5.88712 36.7007 7.24081 37.1986 8.63894 37.1885L22.2588 37.1532Z" fill="#FF7A00"/>
<path d="M48.9996 11.6494C48.9778 11.9576 48.8652 12.2526 48.6757 12.4975C48.4862 12.7424 48.2282 12.9262 47.9341 13.0262C47.6346 13.1184 47.3129 13.1095 47.019 13.001C46.7251 12.8924 46.4756 12.6903 46.3093 12.426C46.114 12.126 45.9542 11.7906 45.7766 11.4729C43.8458 8.07355 41.2351 5.10316 38.1054 2.74478C37.8505 2.59695 37.6416 2.38181 37.5022 2.12322C37.3627 1.86464 37.298 1.5727 37.3152 1.2798C37.3397 1.02157 37.4352 0.775027 37.5913 0.567207C37.7474 0.359387 37.9581 0.19832 38.2003 0.10168C38.4424 0.00503996 38.7067 -0.0234413 38.964 0.0193608C39.2214 0.0621629 39.4619 0.174597 39.6592 0.344324C40.9466 1.39453 42.2251 2.4712 43.406 3.63613C45.523 5.74665 47.299 8.16985 48.671 10.8199C48.7988 11.0889 48.9086 11.366 48.9996 11.6494Z" fill="#FF7A00"/>
<path d="M43.4604 13.4345C43.4831 13.7584 43.3969 14.0807 43.2153 14.3507C43.0337 14.6207 42.767 14.823 42.4571 14.9259C42.152 15.0215 41.8234 15.0125 41.524 14.9005C41.2246 14.7885 40.9717 14.58 40.8057 14.3082C40.1541 13.2461 39.4396 12.2235 38.6659 11.2458C37.6093 10.0279 36.4107 8.93359 35.2654 7.79514C35.0497 7.61703 34.891 7.38013 34.809 7.11357C34.727 6.84702 34.7251 6.56244 34.8037 6.29485C34.855 6.03472 34.9902 5.79832 35.1889 5.62153C35.3876 5.44473 35.6389 5.3372 35.9046 5.31525C36.3258 5.28551 36.7449 5.39741 37.0944 5.63296C39.6024 7.62728 41.6953 10.0883 43.2562 12.8785C43.3468 13.0548 43.4154 13.2415 43.4604 13.4345Z" fill="#FF7A00"/>
<path d="M33.6314 10.459C33.9786 10.5849 34.3026 10.7668 34.5903 10.9973C35.638 12.1799 36.659 13.389 37.6357 14.6333C37.7558 14.7879 37.8419 14.9659 37.8884 15.1557C37.9349 15.3455 37.9408 15.5429 37.9057 15.7351C37.8705 15.9273 37.7951 16.11 37.6843 16.2714C37.5736 16.4328 37.43 16.5693 37.2628 16.6719C36.9342 16.8709 36.5404 16.9343 36.1655 16.8485C35.7906 16.7628 35.4642 16.5347 35.2562 16.213C34.3683 15.1275 33.4804 14.0685 32.5926 13.0095C32.3846 12.8017 32.2445 12.5365 32.1907 12.2483C32.1368 11.9602 32.1717 11.6626 32.2907 11.3945C32.4151 11.1377 32.6037 10.9168 32.8384 10.7531C33.0731 10.5893 33.3461 10.4881 33.6314 10.459Z" fill="#FF7A00"/>
<path d="M15.6775 27.1813C15.6775 25.7957 15.6775 24.419 15.6775 23.0422C15.6468 22.7673 15.6976 22.4894 15.8235 22.2428C15.9494 21.9961 16.1451 21.7913 16.3864 21.6535C16.6278 21.5158 16.9043 21.4511 17.1821 21.4673C17.46 21.4835 17.727 21.58 17.9504 21.7449C20.3181 23.1099 22.662 24.4866 24.9823 25.8751C25.2313 25.9898 25.4422 26.1728 25.5899 26.4027C25.7377 26.6326 25.8162 26.8997 25.8162 27.1724C25.8162 27.4452 25.7377 27.7123 25.5899 27.9422C25.4422 28.1721 25.2313 28.3551 24.9823 28.4697C22.6472 29.8641 20.3033 31.232 17.9504 32.5999C17.7277 32.7669 17.4606 32.8655 17.1822 32.8835C16.9038 32.9014 16.6261 32.838 16.3835 32.701C16.1409 32.564 15.944 32.3595 15.8169 32.1125C15.6899 31.8656 15.6383 31.5872 15.6686 31.3115C15.6686 29.9347 15.6775 28.558 15.6775 27.1813ZM18.5719 25.4162V28.9463L21.564 27.1813L18.5719 25.4162Z" fill="#FF7A00"/>
</svg>
