<svg width="104" height="116" viewBox="0 0 104 116" fill="none" xmlns="http://www.w3.org/2000/svg">
<g filter="url(#filter0_d_808_85)">
<path d="M53 4L85.8369 19.8134L93.947 55.3459L71.2231 83.8407H34.7769L12.053 55.3459L20.1631 19.8134L53 4Z" fill="white"/>
</g>
<path d="M4.89662 112H1.36501V101.091H5.00848C6.07737 101.091 6.99534 101.309 7.76238 101.746C8.52943 102.179 9.11714 102.803 9.52552 103.616C9.93746 104.425 10.1434 105.397 10.1434 106.529C10.1434 107.666 9.93568 108.642 9.5202 109.459C9.10827 110.276 8.51167 110.904 7.73042 111.345C6.94917 111.782 6.00457 112 4.89662 112ZM3.01096 110.562H4.80606C5.63703 110.562 6.32773 110.406 6.87815 110.093C7.42858 109.777 7.84051 109.321 8.11395 108.724C8.38738 108.124 8.5241 107.392 8.5241 106.529C8.5241 105.674 8.38738 104.947 8.11395 104.351C7.84406 103.754 7.44101 103.301 6.90479 102.993C6.36856 102.684 5.70273 102.529 4.90727 102.529H3.01096V110.562ZM12.0624 112V103.818H13.6551V112H12.0624ZM12.8667 102.556C12.5897 102.556 12.3518 102.463 12.1529 102.279C11.9576 102.091 11.86 101.867 11.86 101.608C11.86 101.345 11.9576 101.121 12.1529 100.936C12.3518 100.748 12.5897 100.654 12.8667 100.654C13.1437 100.654 13.3798 100.748 13.5752 100.936C13.774 101.121 13.8734 101.345 13.8734 101.608C13.8734 101.867 13.774 102.091 13.5752 102.279C13.3798 102.463 13.1437 102.556 12.8667 102.556ZM19.2281 115.239C18.5783 115.239 18.019 115.153 17.5502 114.983C17.085 114.813 16.705 114.587 16.4103 114.306C16.1155 114.026 15.8954 113.719 15.7498 113.385L17.1187 112.82C17.2146 112.977 17.3425 113.142 17.5023 113.316C17.6656 113.493 17.8858 113.644 18.1628 113.768C18.4433 113.893 18.8038 113.955 19.2441 113.955C19.8478 113.955 20.3467 113.808 20.7409 113.513C21.1351 113.222 21.3322 112.756 21.3322 112.117V110.509H21.231C21.1351 110.683 20.9966 110.876 20.8155 111.089C20.6379 111.302 20.3929 111.487 20.0804 111.643C19.7679 111.799 19.3613 111.877 18.8606 111.877C18.2143 111.877 17.6319 111.727 17.1134 111.425C16.5985 111.119 16.1901 110.67 15.8883 110.077C15.59 109.48 15.4408 108.747 15.4408 107.877C15.4408 107.007 15.5882 106.261 15.8829 105.64C16.1812 105.018 16.5896 104.543 17.1081 104.212C17.6266 103.879 18.2143 103.712 18.8712 103.712C19.379 103.712 19.7892 103.797 20.1017 103.967C20.4142 104.134 20.6574 104.33 20.8315 104.553C21.009 104.777 21.1457 104.974 21.2416 105.145H21.3588V103.818H22.9195V112.181C22.9195 112.884 22.7562 113.461 22.4295 113.912C22.1028 114.363 21.6606 114.697 21.1031 114.914C20.5491 115.13 19.9241 115.239 19.2281 115.239ZM19.2121 110.556C19.6702 110.556 20.0573 110.45 20.3734 110.237C20.693 110.02 20.9344 109.711 21.0978 109.31C21.2647 108.905 21.3481 108.42 21.3481 107.856C21.3481 107.305 21.2665 106.821 21.1031 106.402C20.9398 105.983 20.7001 105.656 20.384 105.422C20.068 105.184 19.6773 105.065 19.2121 105.065C18.7327 105.065 18.3332 105.189 18.0136 105.438C17.694 105.683 17.4525 106.016 17.2892 106.439C17.1294 106.862 17.0495 107.334 17.0495 107.856C17.0495 108.392 17.1312 108.863 17.2945 109.267C17.4579 109.672 17.6994 109.988 18.019 110.216C18.3421 110.443 18.7398 110.556 19.2121 110.556ZM25.0555 112V103.818H26.6482V112H25.0555ZM25.8599 102.556C25.5829 102.556 25.3449 102.463 25.1461 102.279C24.9508 102.091 24.8531 101.867 24.8531 101.608C24.8531 101.345 24.9508 101.121 25.1461 100.936C25.3449 100.748 25.5829 100.654 25.8599 100.654C26.1369 100.654 26.373 100.748 26.5683 100.936C26.7672 101.121 26.8666 101.345 26.8666 101.608C26.8666 101.867 26.7672 102.091 26.5683 102.279C26.373 102.463 26.1369 102.556 25.8599 102.556ZM32.6101 103.818V105.097H28.141V103.818H32.6101ZM29.3395 101.858H30.9322V109.598C30.9322 109.907 30.9784 110.139 31.0707 110.295C31.163 110.448 31.282 110.553 31.4276 110.61C31.5767 110.663 31.7383 110.69 31.9123 110.69C32.0402 110.69 32.152 110.681 32.2479 110.663C32.3438 110.645 32.4184 110.631 32.4716 110.62L32.7593 111.936C32.6669 111.972 32.5356 112.007 32.3651 112.043C32.1946 112.082 31.9816 112.103 31.7259 112.107C31.3069 112.114 30.9162 112.039 30.554 111.883C30.1918 111.727 29.8988 111.485 29.6751 111.158C29.4514 110.832 29.3395 110.422 29.3395 109.928V101.858ZM36.753 112.181C36.2345 112.181 35.7658 112.085 35.3467 111.893C34.9277 111.698 34.5957 111.416 34.3506 111.047C34.1092 110.677 33.9884 110.224 33.9884 109.688C33.9884 109.227 34.0772 108.847 34.2547 108.548C34.4323 108.25 34.672 108.014 34.9739 107.84C35.2757 107.666 35.6131 107.534 35.9859 107.446C36.3588 107.357 36.7388 107.289 37.1258 107.243C37.6159 107.186 38.0136 107.14 38.319 107.105C38.6244 107.066 38.8464 107.004 38.9849 106.918C39.1234 106.833 39.1926 106.695 39.1926 106.503V106.466C39.1926 106 39.0612 105.64 38.7984 105.384C38.5392 105.129 38.1521 105.001 37.6372 105.001C37.101 105.001 36.6784 105.12 36.3695 105.358C36.0641 105.592 35.8528 105.853 35.7356 106.141L34.2388 105.8C34.4163 105.303 34.6756 104.901 35.0165 104.596C35.3609 104.287 35.7569 104.063 36.2043 103.925C36.6518 103.783 37.1223 103.712 37.6159 103.712C37.9426 103.712 38.2888 103.751 38.6546 103.829C39.0239 103.903 39.3684 104.042 39.688 104.244C40.0111 104.447 40.2757 104.736 40.4817 105.113C40.6876 105.485 40.7906 105.97 40.7906 106.567V112H39.2352V110.881H39.1713C39.0683 111.087 38.9138 111.29 38.7079 111.489C38.5019 111.687 38.2373 111.853 37.9142 111.984C37.591 112.115 37.204 112.181 36.753 112.181ZM37.0992 110.903C37.5396 110.903 37.916 110.816 38.2285 110.642C38.5445 110.468 38.7842 110.24 38.9476 109.96C39.1145 109.676 39.1979 109.372 39.1979 109.049V107.994C39.1411 108.051 39.031 108.104 38.8677 108.154C38.7079 108.2 38.525 108.241 38.319 108.277C38.1131 108.309 37.9124 108.339 37.7171 108.367C37.5218 108.392 37.3584 108.413 37.2271 108.431C36.9181 108.47 36.6358 108.536 36.3801 108.628C36.128 108.721 35.9256 108.854 35.7729 109.028C35.6237 109.198 35.5491 109.425 35.5491 109.71C35.5491 110.104 35.6947 110.402 35.9859 110.604C36.2771 110.803 36.6482 110.903 37.0992 110.903ZM44.5047 101.091V112H42.912V101.091H44.5047ZM50.6171 112V103.818H52.2097V112H50.6171ZM51.4214 102.556C51.1444 102.556 50.9065 102.463 50.7076 102.279C50.5123 102.091 50.4146 101.867 50.4146 101.608C50.4146 101.345 50.5123 101.121 50.7076 100.936C50.9065 100.748 51.1444 100.654 51.4214 100.654C51.6984 100.654 51.9345 100.748 52.1298 100.936C52.3287 101.121 52.4281 101.345 52.4281 101.608C52.4281 101.867 52.3287 102.091 52.1298 102.279C51.9345 102.463 51.6984 102.556 51.4214 102.556ZM57.4153 112.16C56.7547 112.16 56.1653 111.991 55.6468 111.654C55.1319 111.313 54.7271 110.828 54.4323 110.2C54.1411 109.567 53.9955 108.809 53.9955 107.925C53.9955 107.041 54.1429 106.284 54.4376 105.656C54.7359 105.027 55.1443 104.546 55.6628 104.212C56.1812 103.879 56.769 103.712 57.4259 103.712C57.9337 103.712 58.3421 103.797 58.6511 103.967C58.9636 104.134 59.205 104.33 59.3755 104.553C59.5495 104.777 59.6844 104.974 59.7803 105.145H59.8762V101.091H61.4689V112H59.9135V110.727H59.7803C59.6844 110.901 59.5459 111.1 59.3648 111.324C59.1873 111.547 58.9422 111.743 58.6297 111.909C58.3172 112.076 57.9124 112.16 57.4153 112.16ZM57.7668 110.801C58.2249 110.801 58.612 110.681 58.928 110.439C59.2476 110.194 59.4891 109.855 59.6525 109.422C59.8194 108.989 59.9028 108.484 59.9028 107.909C59.9028 107.341 59.8212 106.844 59.6578 106.418C59.4945 105.991 59.2547 105.659 58.9387 105.422C58.6226 105.184 58.232 105.065 57.7668 105.065C57.2874 105.065 56.8879 105.189 56.5683 105.438C56.2487 105.686 56.0072 106.025 55.8439 106.455C55.6841 106.885 55.6042 107.369 55.6042 107.909C55.6042 108.456 55.6859 108.948 55.8492 109.385C56.0126 109.821 56.254 110.168 56.5736 110.423C56.8968 110.675 57.2945 110.801 57.7668 110.801ZM67.2683 112.165C66.4622 112.165 65.768 111.993 65.1856 111.648C64.6068 111.3 64.1593 110.812 63.8433 110.184C63.5308 109.551 63.3745 108.811 63.3745 107.962C63.3745 107.124 63.5308 106.386 63.8433 105.746C64.1593 105.107 64.5997 104.608 65.1643 104.25C65.7325 103.891 66.3965 103.712 67.1565 103.712C67.6181 103.712 68.0656 103.788 68.4988 103.941C68.932 104.093 69.3209 104.333 69.6653 104.66C70.0098 104.987 70.2815 105.411 70.4803 105.933C70.6792 106.451 70.7786 107.082 70.7786 107.824V108.388H64.2747V107.195H69.2179C69.2179 106.776 69.1327 106.405 68.9622 106.082C68.7918 105.755 68.5521 105.498 68.2431 105.31C67.9377 105.121 67.5791 105.027 67.1671 105.027C66.7197 105.027 66.3291 105.137 65.9953 105.358C65.665 105.574 65.4093 105.858 65.2282 106.21C65.0506 106.558 64.9619 106.936 64.9619 107.344V108.277C64.9619 108.824 65.0578 109.289 65.2495 109.672C65.4448 110.056 65.7165 110.349 66.0645 110.551C66.4125 110.75 66.8191 110.849 67.2843 110.849C67.5862 110.849 67.8614 110.807 68.11 110.722C68.3585 110.633 68.5734 110.501 68.7545 110.327C68.9356 110.153 69.0741 109.939 69.17 109.683L70.6774 109.955C70.5567 110.398 70.3401 110.787 70.0276 111.121C69.7186 111.451 69.3298 111.709 68.861 111.893C68.3958 112.075 67.8649 112.165 67.2683 112.165ZM74.1385 107.142V112H72.5458V103.818H74.0745V105.15H74.1757C74.3639 104.717 74.6587 104.369 75.06 104.106C75.4648 103.843 75.9744 103.712 76.5887 103.712C77.1463 103.712 77.6345 103.829 78.0536 104.063C78.4726 104.294 78.7975 104.638 79.0284 105.097C79.2592 105.555 79.3746 106.121 79.3746 106.796V112H77.7819V106.988C77.7819 106.395 77.6274 105.931 77.3185 105.597C77.0095 105.26 76.5852 105.091 76.0454 105.091C75.6761 105.091 75.3476 105.171 75.06 105.331C74.7759 105.491 74.5504 105.725 74.3835 106.034C74.2201 106.339 74.1385 106.709 74.1385 107.142ZM85.3299 103.818V105.097H80.8608V103.818H85.3299ZM82.0593 101.858H83.6519V109.598C83.6519 109.907 83.6981 110.139 83.7904 110.295C83.8828 110.448 84.0017 110.553 84.1473 110.61C84.2965 110.663 84.4581 110.69 84.6321 110.69C84.7599 110.69 84.8718 110.681 84.9676 110.663C85.0635 110.645 85.1381 110.631 85.1914 110.62L85.479 111.936C85.3867 111.972 85.2553 112.007 85.0848 112.043C84.9144 112.082 84.7013 112.103 84.4456 112.107C84.0266 112.114 83.636 112.039 83.2737 111.883C82.9115 111.727 82.6186 111.485 82.3948 111.158C82.1711 110.832 82.0593 110.422 82.0593 109.928V101.858ZM87.0917 112V103.818H88.6843V112H87.0917ZM87.896 102.556C87.619 102.556 87.3811 102.463 87.1822 102.279C86.9869 102.091 86.8892 101.867 86.8892 101.608C86.8892 101.345 86.9869 101.121 87.1822 100.936C87.3811 100.748 87.619 100.654 87.896 100.654C88.173 100.654 88.4091 100.748 88.6044 100.936C88.8033 101.121 88.9027 101.345 88.9027 101.608C88.9027 101.867 88.8033 102.091 88.6044 102.279C88.4091 102.463 88.173 102.556 87.896 102.556ZM94.6463 103.818V105.097H90.1772V103.818H94.6463ZM91.3757 101.858H92.9684V109.598C92.9684 109.907 93.0145 110.139 93.1068 110.295C93.1992 110.448 93.3181 110.553 93.4637 110.61C93.6129 110.663 93.7745 110.69 93.9485 110.69C94.0763 110.69 94.1882 110.681 94.284 110.663C94.3799 110.645 94.4545 110.631 94.5078 110.62L94.7954 111.936C94.7031 111.972 94.5717 112.007 94.4012 112.043C94.2308 112.082 94.0177 112.103 93.762 112.107C93.343 112.114 92.9524 112.039 92.5902 111.883C92.2279 111.727 91.935 111.485 91.7112 111.158C91.4875 110.832 91.3757 110.422 91.3757 109.928V101.858ZM97.4148 115.068C97.1769 115.068 96.9603 115.049 96.765 115.01C96.5696 114.974 96.4241 114.935 96.3282 114.892L96.7117 113.587C97.0029 113.665 97.2621 113.699 97.4894 113.689C97.7167 113.678 97.9173 113.593 98.0913 113.433C98.2689 113.273 98.4251 113.012 98.5601 112.65L98.7571 112.107L95.7635 103.818H97.4681L99.5402 110.168H99.6254L101.697 103.818H103.407L100.036 113.092C99.8793 113.518 99.6804 113.879 99.439 114.173C99.1975 114.472 98.9098 114.695 98.576 114.844C98.2422 114.994 97.8552 115.068 97.4148 115.068Z" fill="black"/>
<path fill-rule="evenodd" clip-rule="evenodd" d="M40.9502 22.1197C39.4965 22.4136 38.2803 23.0792 37.186 24.1797C36.3866 24.9835 35.9188 25.6856 35.5187 26.6816C34.9642 28.062 34.9826 27.3524 35.0117 46.3601C35.037 62.82 35.0495 63.9259 35.2158 64.4902C35.8426 66.6177 37.2425 68.325 39.1218 69.254C40.7301 70.0489 39.8411 69.9994 52.519 69.9994C65.1968 69.9994 64.3079 70.0489 65.9161 69.254C67.8202 68.3128 69.2489 66.5525 69.823 64.4401C69.9895 63.8277 70 62.7334 70 46.0095C70 29.2856 69.9895 28.1913 69.823 27.5789C69.2488 25.4662 67.8193 23.7051 65.9161 22.7656C64.3025 21.9689 65.2596 22.0244 52.768 22.004C43.8005 21.9894 41.4822 22.0121 40.9502 22.1197ZM63.5639 25.281C65.091 25.635 66.4048 26.9562 66.7568 28.4919C66.821 28.772 66.8584 32.5989 66.86 39.0585L66.8624 49.1859L65.5924 48.3384C63.2772 46.7935 60.2275 45.4906 57.5919 44.9206C54.5337 44.2591 50.8192 44.235 47.7876 44.8569C44.8279 45.4641 41.9956 46.6517 39.3994 48.374L38.1756 49.1859L38.178 39.0585C38.1795 32.5989 38.2169 28.772 38.2811 28.4919C38.6262 26.9866 39.9564 25.6347 41.4381 25.2834C41.9748 25.1562 63.0157 25.1539 63.5639 25.281ZM51.0249 26.9214C48.2405 27.5153 45.9959 29.4346 45.0671 32.0159C43.7822 35.5867 45.0554 39.4405 48.2024 41.5063C51.8552 43.9043 56.7907 42.8383 59.1969 39.1317C60.0823 37.7678 60.4333 36.5356 60.4333 34.7909C60.4333 33.0493 60.0809 31.8093 59.2034 30.463C58.0659 28.7177 56.49 27.5826 54.413 27.0126C53.6381 26.8 51.8232 26.7511 51.0249 26.9214ZM53.6603 30.1362C55.3783 30.5863 56.7016 31.9213 57.1515 33.6583C57.7966 36.1491 56.2112 38.7773 53.6603 39.4455C51.1678 40.0984 48.5567 38.5113 47.8903 35.9386C47.0025 32.5111 50.2519 29.2434 53.6603 30.1362ZM54.2621 47.7133C58.7509 48.1271 62.9761 49.9355 66.1673 52.8087L66.8624 53.4345L66.86 58.2612C66.8585 61.1482 66.8171 63.2644 66.7568 63.5271C66.3992 65.0871 65.0619 66.4121 63.508 66.746C63.1903 66.8143 59.3663 66.8399 52.2201 66.8216L41.4128 66.7941L40.6603 66.4327C39.4405 65.8469 38.5689 64.7824 38.2811 63.5271C38.2209 63.2645 38.1794 61.1529 38.178 58.2757L38.1756 53.4635L38.5989 53.0554C39.6726 52.0202 41.4379 50.7863 43.0563 49.9399C46.4365 48.172 50.4935 47.366 54.2621 47.7133Z" fill="#410EAD"/>
<defs>
<filter id="filter0_d_808_85" x="8.05469" y="0" width="89.8906" height="87.8408" filterUnits="userSpaceOnUse" color-interpolation-filters="sRGB">
<feFlood flood-opacity="0" result="BackgroundImageFix"/>
<feColorMatrix in="SourceAlpha" type="matrix" values="0 0 0 0 0 0 0 0 0 0 0 0 0 0 0 0 0 0 127 0" result="hardAlpha"/>
<feOffset/>
<feGaussianBlur stdDeviation="2"/>
<feComposite in2="hardAlpha" operator="out"/>
<feColorMatrix type="matrix" values="0 0 0 0 0 0 0 0 0 0 0 0 0 0 0 0 0 0 0.25 0"/>
<feBlend mode="normal" in2="BackgroundImageFix" result="effect1_dropShadow_808_85"/>
<feBlend mode="normal" in="SourceGraphic" in2="effect1_dropShadow_808_85" result="shape"/>
</filter>
</defs>
</svg>
