<svg width="18" height="18" viewBox="0 0 18 18" fill="none" xmlns="http://www.w3.org/2000/svg">
<path d="M1.60577 4.73094L9 0.46188L16.3942 4.73094V13.2691L9 17.5381L1.60577 13.2691V4.73094Z" stroke="#410EAD" stroke-width="0.8"/>
<path fill-rule="evenodd" clip-rule="evenodd" d="M7.777 5.01322C7.65842 5.06275 7.60827 5.17369 7.63589 5.32547C7.65278 5.41843 7.64839 5.45012 7.61858 5.45012C7.59306 5.45012 7.29763 5.5889 7.16035 5.66537C6.62889 5.96142 6.12958 6.42471 5.80773 6.92037C5.42035 7.51701 5.22083 8.15222 5.19365 8.87549C5.18096 9.2134 5.20551 9.47822 5.25992 9.59002C5.32587 9.72552 5.47523 9.8005 5.62796 9.77479C5.71923 9.75941 5.83081 9.67827 5.87414 9.59576C5.91027 9.52694 5.91057 9.52222 5.90031 9.17345C5.8919 8.88797 5.89498 8.78149 5.91639 8.61477C5.97848 8.13176 6.14488 7.67936 6.40157 7.29575C6.53634 7.09434 6.61646 6.99696 6.81015 6.79917C6.96963 6.6363 6.99776 6.60018 6.99776 6.5582C6.99776 6.49759 6.94609 6.45114 6.87869 6.45114C6.78975 6.45114 6.41923 6.84312 6.20598 7.1628C5.99584 7.47786 5.80928 7.92399 5.72884 8.30383C5.66915 8.58577 5.6538 8.78686 5.66411 9.15245L5.67348 9.48413L5.63272 9.5161C5.58017 9.5573 5.54481 9.55647 5.49489 9.51286C5.45882 9.48136 5.45276 9.45964 5.43718 9.30562C5.41619 9.09803 5.42861 8.69725 5.46315 8.46883C5.55303 7.87427 5.79966 7.29567 6.16422 6.82416C6.54821 6.32751 7.10736 5.90488 7.68286 5.67625C7.76484 5.64369 7.84917 5.60083 7.87027 5.58101L7.90863 5.54498L7.88401 5.39196C7.87047 5.30781 7.86079 5.23727 7.8625 5.23521C7.86955 5.22665 8.76542 5.56558 8.76542 5.57681C8.76542 5.59126 8.0474 6.18524 8.02992 6.18524C8.02335 6.18524 8.00951 6.13101 7.99917 6.06474C7.95927 5.80889 7.91184 5.80438 7.49186 6.01644C7.26637 6.13029 7.21218 6.1734 7.21218 6.23895C7.21218 6.29787 7.26928 6.35729 7.3259 6.35729C7.34297 6.35729 7.41792 6.32312 7.49244 6.28136C7.56696 6.23959 7.66097 6.19094 7.70133 6.17325L7.7747 6.14109L7.78547 6.20617C7.80511 6.32488 7.87317 6.39973 7.98546 6.42611C8.07922 6.44814 8.13637 6.41213 8.55361 6.06829C8.97021 5.72499 9.01552 5.67664 9.01569 5.57524C9.01579 5.51787 8.96186 5.40923 8.91971 5.38187C8.85631 5.34074 7.94476 5.00846 7.87898 5.00252C7.84446 4.99939 7.79857 5.00421 7.777 5.01322ZM11.8091 5.02446C11.753 5.03932 11.6718 5.07182 11.6287 5.09668C11.5332 5.15172 10.7945 5.87758 10.719 5.99057C10.69 6.03406 10.6499 6.115 10.63 6.17045C10.5945 6.26897 10.5936 6.28694 10.5882 6.95947C10.5843 7.44691 10.5881 7.67197 10.6011 7.73096C10.6242 7.83541 10.719 7.94088 10.8129 7.96659C10.8519 7.97729 11.0523 7.98382 11.3436 7.98386L11.8115 7.98396L11.859 7.93664C11.8971 7.89871 11.9045 7.88087 11.8963 7.84671C11.8735 7.75033 11.868 7.74934 11.3524 7.74934C10.9044 7.74934 10.8821 7.74795 10.8521 7.71806C10.8217 7.68779 10.8207 7.66654 10.8216 7.06505C10.8222 6.62615 10.828 6.42738 10.8412 6.38912C10.8519 6.35815 10.8828 6.3196 10.9132 6.29919C10.9644 6.26487 10.9793 6.26345 11.2864 6.26345C11.6276 6.26345 11.6803 6.25422 11.7595 6.18058C11.8468 6.09936 11.8561 6.05542 11.8571 5.72055C11.8581 5.37163 11.8684 5.32075 11.9487 5.26688C12.0004 5.23227 12.0133 5.23114 12.3581 5.23114C12.6832 5.23114 12.7165 5.23363 12.7402 5.25975C12.7639 5.28584 12.7662 5.3941 12.7662 6.4945V7.70065L12.7313 7.72499C12.704 7.74405 12.6513 7.74934 12.4881 7.74934C12.3007 7.74934 12.2767 7.75249 12.2484 7.78062C12.2017 7.8272 12.2066 7.91091 12.2584 7.95153C12.2955 7.98061 12.321 7.98394 12.5055 7.98386C12.7476 7.98377 12.8101 7.96952 12.8919 7.8959C13.0078 7.79148 13.0029 7.8575 12.998 6.46678C12.9937 5.24032 12.9932 5.22246 12.9609 5.16076C12.9429 5.12635 12.8982 5.07708 12.8615 5.05127L12.7949 5.00435L12.353 5.00089C11.9765 4.99795 11.896 5.00144 11.8091 5.02446ZM11.5947 6.00923C11.5754 6.02326 11.4852 6.02883 11.2768 6.02883H10.9857L11.2994 5.71584L11.613 5.40285L11.6173 5.69624C11.6211 5.95829 11.6187 5.99172 11.5947 6.00923ZM11.2401 6.61146C11.1734 6.66168 11.1813 6.77585 11.2537 6.80872C11.2804 6.82088 11.457 6.82652 11.8106 6.82652H12.3283L12.3668 6.78812C12.388 6.76701 12.4053 6.7315 12.4053 6.70922C12.4053 6.68693 12.388 6.65142 12.3668 6.63031L12.3283 6.59191H11.7972C11.3965 6.59191 11.2596 6.59671 11.2401 6.61146ZM11.2382 7.11197C11.1814 7.1628 11.1776 7.22928 11.2286 7.28011C11.2588 7.31017 11.2809 7.31139 11.7941 7.31139H12.3283L12.3668 7.27299C12.388 7.25188 12.4053 7.21637 12.4053 7.19409C12.4053 7.1718 12.388 7.13629 12.3668 7.11518L12.3283 7.07678H11.8029C11.2801 7.07678 11.2772 7.07695 11.2382 7.11197ZM8.78683 7.24723C8.71451 7.26569 8.64733 7.31896 8.61756 7.38148C8.59864 7.42122 8.54577 7.73473 8.54577 7.80718C8.54577 7.80953 8.50165 7.83362 8.44771 7.86069C8.39379 7.88776 8.32022 7.93004 8.28424 7.95463L8.21882 7.99936L8.05071 7.92777C7.84495 7.84015 7.79695 7.83133 7.70861 7.86498C7.62048 7.89853 7.59693 7.92587 7.47823 8.13242C7.31222 8.42129 7.32693 8.49732 7.58599 8.68955L7.74173 8.80511L7.74168 9.00062L7.74163 9.19613L7.5865 9.31063C7.32719 9.50199 7.31211 9.57974 7.47823 9.86882C7.59693 10.0754 7.62048 10.1027 7.70861 10.1363C7.79695 10.1699 7.84495 10.1611 8.05071 10.0735L8.21882 10.0019L8.28424 10.0466C8.32022 10.0712 8.39379 10.1135 8.44771 10.1406C8.50165 10.1676 8.54577 10.1917 8.54577 10.1941C8.54577 10.1964 8.55603 10.2808 8.56856 10.3815C8.59536 10.5969 8.62235 10.6622 8.70789 10.7186C8.76942 10.7592 8.77701 10.7602 9.0153 10.7602C9.24298 10.7602 9.26358 10.7578 9.31768 10.7243C9.4094 10.6674 9.435 10.6103 9.46254 10.401C9.47606 10.2982 9.48712 10.209 9.48712 10.2027C9.48712 10.1965 9.53077 10.1692 9.58413 10.1422C9.63747 10.1152 9.71104 10.0725 9.7476 10.0475L9.81407 10.0019L9.98218 10.0735C10.1879 10.1611 10.2359 10.1699 10.3243 10.1363C10.4118 10.103 10.4349 10.0762 10.5547 9.87024C10.6334 9.73487 10.655 9.6833 10.6598 9.61999C10.6685 9.50414 10.6324 9.45102 10.4506 9.31149L10.2951 9.19222L10.2935 9.00142L10.2918 8.81063L10.4436 8.69604C10.6332 8.55293 10.656 8.52097 10.656 8.39844C10.656 8.31149 10.6486 8.29194 10.5558 8.13255C10.4348 7.92483 10.4118 7.89831 10.3243 7.86498C10.2359 7.83133 10.1879 7.84015 9.98218 7.92777L9.81407 7.99936L9.7476 7.95377C9.71104 7.9287 9.63747 7.88606 9.58413 7.85903C9.53077 7.832 9.48712 7.80477 9.48712 7.79852C9.48712 7.79226 9.47606 7.70304 9.46254 7.60025C9.435 7.39091 9.40934 7.33368 9.31768 7.27722C9.26565 7.24515 9.23771 7.2411 9.04782 7.23807C8.93133 7.23621 8.81388 7.24034 8.78683 7.24723ZM9.20054 7.48735C9.209 7.49812 9.22729 7.60476 9.24119 7.72435C9.26233 7.90606 9.27216 7.94781 9.30108 7.97851C9.32013 7.99871 9.3433 8.01524 9.35257 8.01525C9.38927 8.01529 9.5629 8.10861 9.65401 8.17728C9.71018 8.2196 9.767 8.24985 9.79036 8.24985C9.81239 8.24985 9.92046 8.21114 10.0305 8.16383C10.1406 8.11651 10.2355 8.0778 10.2416 8.0778C10.2545 8.0778 10.4285 8.37775 10.4285 8.40005C10.4285 8.40844 10.3438 8.47809 10.2402 8.55485C10.1367 8.6316 10.048 8.7067 10.0433 8.72171C10.0385 8.73673 10.0423 8.80562 10.0518 8.87482C10.0643 8.96552 10.0644 9.03502 10.0522 9.12392C10.0399 9.21326 10.04 9.25743 10.0526 9.28424C10.0621 9.3046 10.1506 9.38084 10.2492 9.45366C10.3478 9.52649 10.4285 9.5929 10.4285 9.60123C10.4285 9.62351 10.2545 9.92344 10.2416 9.92344C10.2355 9.92344 10.1406 9.88473 10.0305 9.83741C9.92046 9.7901 9.81239 9.75139 9.79036 9.75139C9.767 9.75139 9.71018 9.78164 9.65401 9.82396C9.5629 9.89263 9.38927 9.98596 9.35257 9.98599C9.3433 9.986 9.32013 10.0025 9.30108 10.0227C9.27216 10.0534 9.26233 10.0952 9.24119 10.2769C9.22729 10.3965 9.209 10.5031 9.20054 10.5139C9.18995 10.5274 9.13278 10.5334 9.01645 10.5334C8.90005 10.5334 8.84297 10.5274 8.83244 10.5139C8.82406 10.5031 8.80593 10.3963 8.79215 10.2766C8.76317 10.0245 8.75906 10.0177 8.59284 9.94939C8.53675 9.92632 8.44497 9.87259 8.38888 9.82998C8.32977 9.78509 8.27003 9.75228 8.24679 9.75195C8.22474 9.75164 8.11665 9.7901 8.00661 9.83741C7.89655 9.88473 7.80061 9.92344 7.79341 9.92344C7.77944 9.92344 7.60405 9.62287 7.60495 9.60045C7.60523 9.59313 7.68702 9.52733 7.78666 9.45421C7.88632 9.38109 7.97481 9.30851 7.98332 9.29292C7.99352 9.27421 7.99329 9.21967 7.9826 9.1326C7.97146 9.04188 7.97146 8.95936 7.9826 8.86864C7.99329 8.78157 7.99352 8.72703 7.98332 8.70832C7.97481 8.69273 7.88632 8.62015 7.78666 8.54703C7.68702 8.47391 7.60523 8.40811 7.60495 8.40079C7.60405 8.37838 7.77944 8.0778 7.79341 8.0778C7.80061 8.0778 7.89655 8.11651 8.00661 8.16383C8.11665 8.21114 8.22474 8.2496 8.24679 8.24929C8.27003 8.24896 8.32977 8.21615 8.38888 8.17126C8.44497 8.12865 8.53675 8.07492 8.59284 8.05185C8.75906 7.98352 8.76317 7.97678 8.79215 7.72468C8.80593 7.6049 8.82406 7.49812 8.83244 7.48735C8.84297 7.47387 8.90005 7.4678 9.01645 7.4678C9.13278 7.4678 9.18995 7.47387 9.20054 7.48735ZM12.3702 8.23323C12.2938 8.25781 12.2224 8.31082 12.1761 8.3775L12.1308 8.44271L12.1301 8.91327C12.1295 9.33401 12.1258 9.40238 12.0947 9.5591C11.9699 10.1896 11.6971 10.7146 11.2606 11.1647C11.0129 11.42 10.7255 11.6315 10.4151 11.7867L10.2642 11.8622L10.2471 11.7868C10.2242 11.6852 10.1755 11.6215 10.0966 11.59C9.99203 11.5484 9.92914 11.5679 9.77965 11.6885C9.07936 12.2536 9.01645 12.3144 9.01645 12.426C9.01645 12.4818 9.06643 12.5823 9.10926 12.6128C9.13247 12.6292 9.37333 12.7249 9.64453 12.8253C10.1741 13.0214 10.2105 13.029 10.3006 12.9619C10.3979 12.8895 10.4209 12.8087 10.3922 12.641C10.3799 12.5692 10.3809 12.5662 10.4236 12.5502C10.5257 12.512 10.7599 12.3989 10.8957 12.3223C11.8392 11.7896 12.5186 10.8802 12.7522 9.83741C12.8322 9.48016 12.8631 9.01664 12.83 8.67216C12.8073 8.43665 12.7674 8.34745 12.6529 8.27632C12.5761 8.22857 12.4463 8.2088 12.3702 8.23323ZM8.82982 8.30489C8.49464 8.39871 8.27292 8.71233 8.29926 9.05536C8.32033 9.32982 8.5017 9.57294 8.76165 9.6752C8.89073 9.72597 9.14205 9.72602 9.271 9.67529C9.46745 9.598 9.63311 9.42723 9.7015 9.23153C9.74097 9.1186 9.74097 8.88264 9.7015 8.76971C9.63283 8.5732 9.46502 8.40074 9.271 8.32729C9.1534 8.28276 8.94639 8.27225 8.82982 8.30489ZM12.5385 8.48838C12.5746 8.5195 12.5812 8.54165 12.5959 8.67998C12.632 9.01984 12.5881 9.54458 12.4932 9.9078C12.4046 10.247 12.2221 10.6593 12.0328 10.9479C11.8378 11.2453 11.5286 11.5835 11.2504 11.8037C10.9994 12.0024 10.6439 12.2082 10.35 12.325C10.2681 12.3576 10.1837 12.4004 10.1626 12.4202L10.1243 12.4563L10.1489 12.6093C10.1624 12.6934 10.1723 12.7638 10.1708 12.7656C10.1647 12.7732 9.26747 12.4353 9.26747 12.4254C9.26747 12.4125 9.96582 11.8336 9.9947 11.8225C10.009 11.8171 10.0201 11.8495 10.0336 11.9359C10.0669 12.1491 10.1114 12.1762 10.2997 12.098C11.0557 11.7844 11.6691 11.2101 12.0295 10.4787C12.2912 9.94757 12.3866 9.49197 12.369 8.85654L12.3596 8.51694L12.4003 8.48506C12.4527 8.44396 12.488 8.4448 12.5385 8.48838ZM9.17546 8.54243C9.23908 8.56259 9.28279 8.5922 9.35445 8.66365C9.45959 8.76846 9.50281 8.86662 9.50281 9.00062C9.50281 9.13462 9.45959 9.23278 9.35445 9.33759C9.24932 9.4424 9.15086 9.48549 9.01645 9.48549C8.8409 9.48549 8.66628 9.37654 8.58043 9.21346C8.54439 9.14502 8.53836 9.11453 8.53836 9.00062C8.53836 8.88671 8.54439 8.85622 8.58043 8.78778C8.63452 8.68503 8.75756 8.57501 8.85431 8.54287C8.95421 8.5097 9.07167 8.50952 9.17546 8.54243ZM5.22688 10.5628C5.14707 10.599 5.04258 10.716 5.01845 10.7963C5.00698 10.8345 5 10.976 5 11.1707C5 11.4983 5.01076 11.5666 5.07661 11.6567C5.10609 11.697 5.10603 11.6979 5.07106 11.745C5.00832 11.8294 5 11.8844 5 12.2152C5 12.5565 5.00992 12.6141 5.08562 12.7131C5.10749 12.7417 5.16248 12.7856 5.20782 12.8106L5.29025 12.8561H6.04864H6.80702L6.83702 12.8192C6.8725 12.7755 6.87584 12.7099 6.84477 12.6675C6.82342 12.6384 6.79201 12.6368 6.0747 12.6293L5.32687 12.6215L5.2811 12.5704L5.23534 12.5193V12.2134V11.9074L5.2812 11.8617L5.32706 11.816H6.66097H7.99489L8.03891 11.8537L8.08294 11.8915V12.2131V12.5348L8.03946 12.5781L7.99599 12.6215L7.6201 12.6264L7.24424 12.6314L7.21251 12.6716C7.17098 12.7242 7.1725 12.7587 7.21869 12.8122L7.25658 12.8561H7.63054C8.04811 12.8561 8.08612 12.8494 8.1881 12.7576C8.31259 12.6454 8.31827 12.6217 8.31827 12.2148C8.31827 11.8351 8.31358 11.807 8.2355 11.7182C8.21386 11.6936 8.21386 11.6881 8.2355 11.6635C8.31018 11.5786 8.31766 11.54 8.32339 11.2108C8.32786 10.9534 8.32416 10.8788 8.30334 10.8074C8.27309 10.7037 8.19588 10.6117 8.10052 10.5656C8.03472 10.5339 8.01508 10.5334 6.66202 10.5338C5.3654 10.5341 5.28678 10.5357 5.22688 10.5628ZM8.02238 10.7909C8.08438 10.8342 8.09306 10.8878 8.08785 11.1957L8.08294 11.4869L8.03943 11.5302L7.99594 11.5736H6.66141H5.3269L5.28112 11.5225L5.23534 11.4714V11.1654V10.8595L5.2812 10.8138L5.32706 10.7681H6.65837C7.80022 10.7681 7.99432 10.7713 8.02238 10.7909ZM5.5805 10.8555C5.44057 10.9158 5.34866 11.0746 5.3703 11.2189C5.38436 11.3125 5.46335 11.4231 5.54766 11.4671C5.73896 11.5669 5.98593 11.4524 6.03282 11.2421C6.09095 10.9814 5.82194 10.7515 5.5805 10.8555ZM6.28463 10.8743C6.17878 10.9295 6.11569 11.024 6.10394 11.1452C6.08169 11.3748 6.32169 11.5611 6.54498 11.4877C6.67762 11.444 6.77312 11.3113 6.77254 11.1714C6.77146 10.9104 6.51508 10.7543 6.28463 10.8743ZM7.03105 11.088C6.98163 11.1372 6.9807 11.2051 7.02884 11.2502C7.06412 11.2832 7.07627 11.2842 7.45756 11.2842C7.84746 11.2842 7.85019 11.284 7.88409 11.248C7.92934 11.2 7.92757 11.1357 7.87968 11.088L7.84118 11.0496H7.45537H7.06955L7.03105 11.088ZM5.76899 11.0935C5.83854 11.1497 5.7949 11.2686 5.70473 11.2686C5.66114 11.2686 5.59619 11.2077 5.59619 11.1669C5.59619 11.1303 5.66107 11.0652 5.69758 11.0652C5.71756 11.0652 5.74971 11.078 5.76899 11.0935ZM6.50267 11.0896C6.54498 11.1191 6.54966 11.198 6.51158 11.24C6.47731 11.2777 6.40417 11.2764 6.36496 11.2373C6.32488 11.1973 6.32521 11.1583 6.36611 11.1064C6.4029 11.0598 6.45144 11.0538 6.50267 11.0896ZM5.57266 11.9078C5.3114 12.0268 5.29817 12.3844 5.55039 12.5097C5.65892 12.5636 5.75203 12.5642 5.85806 12.5115C6.05201 12.4152 6.10209 12.1677 5.96092 12.0033C5.85933 11.885 5.70575 11.8472 5.57266 11.9078ZM6.28463 11.9223C6.05918 12.0397 6.0409 12.3475 6.25067 12.4943C6.37088 12.5785 6.54465 12.5676 6.65749 12.4688C6.84587 12.3039 6.79632 11.999 6.5655 11.9029C6.47578 11.8655 6.38108 11.872 6.28463 11.9223ZM7.03105 12.1359C7.00987 12.1571 6.99253 12.1926 6.99253 12.2148C6.99253 12.2371 7.00987 12.2726 7.03105 12.2938L7.06955 12.3322H7.45976C7.84736 12.3322 7.8502 12.3319 7.88409 12.296C7.92934 12.2479 7.92757 12.1837 7.87968 12.1359L7.84118 12.0975H7.45537H7.06955L7.03105 12.1359ZM5.76899 12.1415C5.83854 12.1976 5.7949 12.3165 5.70473 12.3165C5.66114 12.3165 5.59619 12.2557 5.59619 12.2148C5.59619 12.1782 5.66107 12.1132 5.69758 12.1132C5.71756 12.1132 5.74971 12.1259 5.76899 12.1415ZM6.50267 12.1375C6.54498 12.1671 6.54966 12.246 6.51158 12.2879C6.45681 12.3482 6.33359 12.3011 6.33359 12.2198C6.33359 12.1754 6.39264 12.1132 6.43481 12.1132C6.45296 12.1132 6.4835 12.1241 6.50267 12.1375Z" fill="#410EAD"/>
</svg>
