<svg width="46" height="46" viewBox="0 0 46 46" fill="none" xmlns="http://www.w3.org/2000/svg">
<path fill-rule="evenodd" clip-rule="evenodd" d="M1.49203 0.114179C1.03701 0.257723 0.260932 1.06201 0.121404 1.53468C-0.0404679 2.08296 -0.0404679 15.7182 0.121404 16.2665C0.271872 16.7762 1.03988 17.5449 1.54914 17.6955C2.0889 17.855 9.79533 17.855 10.3351 17.6955C10.8443 17.5449 11.6124 16.7762 11.7628 16.2665C11.8415 15.9998 11.8756 14.9428 11.8756 12.7637V9.6429H15.7272H19.5789L19.8064 9.8707L20.034 10.0984V15.0668V20.0352H20.7757H21.5174V15.0586C21.5174 11.4822 21.4864 9.97842 21.4072 9.71379C21.3465 9.51133 21.1166 9.14491 20.8962 8.89948C20.2307 8.15866 20.228 8.15829 15.7529 8.15829H11.8756V5.03744C11.8756 2.89477 11.841 1.80117 11.7653 1.54841C11.7047 1.34595 11.4748 0.979524 11.2543 0.734098C10.5837 -0.0124771 10.6122 -0.00857997 5.90243 0.00236906C3.20754 0.00858588 1.706 0.0467219 1.49203 0.114179ZM37.1854 0.126149C34.1354 0.773626 31.8623 3.05464 31.3076 6.02415L31.1949 6.62728L28.6507 6.67367C26.4072 6.71459 26.0652 6.74066 25.7565 6.89414C25.2977 7.1223 24.7301 7.77563 24.5931 8.23317C24.5147 8.4952 24.4841 10.2014 24.4841 14.3163V20.0352H25.2258H25.9675V14.3245V8.61378L26.1966 8.3845L26.4257 8.15513L28.8103 8.1799L31.1948 8.20468L31.3075 8.8078C31.7843 11.3587 33.6262 13.5195 36.058 14.3808C39.3493 15.5464 42.8819 14.3517 44.7978 11.4251C45.6145 10.1775 45.9424 9.02911 45.9424 7.41598C45.9424 5.80285 45.6145 4.65441 44.7978 3.40687C43.7459 1.80014 42.2609 0.735583 40.3389 0.210679C39.6176 0.0136892 37.9285 -0.0315915 37.1854 0.126149ZM10.1646 1.70531C10.3515 1.89228 10.3922 2.02497 10.3922 2.44762V2.96213H5.94211H1.49203V2.44762C1.49203 2.02497 1.53273 1.89228 1.71963 1.70531L1.94714 1.47752H5.94211H9.93708L10.1646 1.70531ZM38.9085 1.80451C39.0455 1.98433 39.273 2.4749 39.414 2.89477L39.6702 3.65805L39.1231 3.6857C38.8223 3.70082 38.3298 3.70082 38.029 3.6857L37.4819 3.65805L37.7381 2.89477C37.98 2.17427 38.3919 1.47752 38.5761 1.47752C38.6218 1.47752 38.7715 1.62468 38.9085 1.80451ZM36.3072 2.47499C36.1912 2.81943 36.0668 3.23697 36.0308 3.40288L35.9654 3.70444H34.9994C34.468 3.70444 34.0333 3.66798 34.0333 3.62344C34.0333 3.51005 34.7359 2.87528 35.262 2.5135C35.5964 2.28367 36.3712 1.87011 36.5041 1.85071C36.5118 1.8496 36.4231 2.13056 36.3072 2.47499ZM41.8088 2.46386C42.3647 2.83167 43.1188 3.4991 43.1188 3.62344C43.1188 3.66798 42.6841 3.70444 42.1527 3.70444H41.1867L41.1213 3.40288C41.0853 3.23697 40.9614 2.82082 40.846 2.47806L40.6362 1.8547L40.9735 1.99463C41.1591 2.07155 41.535 2.28274 41.8088 2.46386ZM10.3922 8.90059V13.3544H5.94211H1.49203V8.90059V4.44675H5.94211H10.3922V8.90059ZM35.702 5.50083C35.702 5.67239 35.6755 6.00643 35.6431 6.24313L35.5841 6.67367H34.1597C32.8646 6.67367 32.7354 6.65892 32.7364 6.51129C32.7377 6.31393 32.968 5.43049 33.0547 5.2901C33.0948 5.22506 33.5776 5.18906 34.4096 5.18906H35.702V5.50083ZM39.9667 5.50083C39.9667 5.67239 39.9932 6.00643 40.0257 6.24313L40.0846 6.67367H38.5761H37.0675L37.1264 6.24313C37.1589 6.00643 37.1854 5.67239 37.1854 5.50083V5.18906H38.5761H39.9667V5.50083ZM44.208 5.59111C44.272 5.7868 44.3505 6.11035 44.3824 6.31022L44.4405 6.67367H43.0043H41.568L41.509 6.24313C41.4766 6.00643 41.4501 5.67118 41.4501 5.49832V5.18395L42.7709 5.20975L44.0917 5.23545L44.208 5.59111ZM35.6431 8.58882C35.6755 8.82553 35.702 9.16077 35.702 9.33364V9.648L34.3812 9.62221L33.0604 9.59651L32.9441 9.24085C32.8801 9.04516 32.8016 8.7216 32.7697 8.52174L32.7116 8.15829H34.1479H35.5841L35.6431 8.58882ZM40.0257 8.58882C39.9932 8.82553 39.9667 9.15956 39.9667 9.33113V9.6429H38.5761H37.1854V9.33113C37.1854 9.15956 37.1589 8.82553 37.1264 8.58882L37.0675 8.15829H38.5761H40.0846L40.0257 8.58882ZM44.3824 8.52174C44.3505 8.7216 44.272 9.04516 44.208 9.24085L44.0917 9.59651L42.7709 9.62221L41.4501 9.648V9.33364C41.4501 9.16077 41.4766 8.82553 41.509 8.58882L41.568 8.15829H43.0043H44.4405L44.3824 8.52174ZM36.0308 11.4291C36.0668 11.5949 36.1907 12.0111 36.3061 12.3539L36.5159 12.9773L36.1786 12.8373C35.503 12.5573 34.0333 11.4413 34.0333 11.2085C34.0333 11.164 34.468 11.1275 34.9994 11.1275H35.9654L36.0308 11.4291ZM39.5035 11.6829C39.2879 12.3958 38.9914 13.007 38.7592 13.2174C38.5833 13.3766 38.5688 13.3766 38.3929 13.2174C38.1607 13.007 37.8642 12.3958 37.6486 11.6829L37.4805 11.1275H38.5761H39.6716L39.5035 11.6829ZM43.1188 11.2085C43.1188 11.4413 41.6491 12.5573 40.9735 12.8373L40.6362 12.9773L40.846 12.3539C40.9614 12.0111 41.0853 11.5949 41.1213 11.4291L41.1867 11.1275H42.1527C42.6841 11.1275 43.1188 11.164 43.1188 11.2085ZM10.3922 15.3536C10.3922 15.7762 10.3515 15.9089 10.1646 16.0959L9.93708 16.3237H5.94211H1.94714L1.71963 16.0959C1.53273 15.9089 1.49203 15.7762 1.49203 15.3536V14.8391H5.94211H10.3922V15.3536ZM29.6759 16.4449C29.2209 16.5885 28.4448 17.3928 28.3053 17.8654C28.2232 18.1435 28.1925 19.5407 28.1925 23.0044C28.1925 26.4681 28.2232 27.8653 28.3053 28.1434C28.4557 28.6531 29.2237 29.4218 29.733 29.5724C29.9811 29.6457 30.8165 29.6852 32.1203 29.6852H34.126V30.4275V31.1698H33.3843H32.6426V31.9121V32.6544H34.4968H36.351V34.6536V36.6528L36.1219 36.8821L35.8927 37.1114L33.509 37.0867L31.1252 37.0619L31.013 36.4124C30.6345 34.2203 29.26 32.1754 27.3435 30.9529C26.7479 30.573 25.9403 30.1987 25.5141 30.105L25.2258 30.0416V29.3407C25.2258 28.3533 25.0852 27.9607 24.5336 27.4087C23.5957 26.47 22.4058 26.47 21.4679 27.4087C20.9164 27.9607 20.7757 28.3533 20.7757 29.3407V30.0416L20.4744 30.1053C19.9106 30.2245 18.6894 30.8878 17.9355 31.4844C16.4104 32.6915 15.3147 34.5236 14.9885 36.4124L14.8763 37.0619L12.1215 37.0865L9.36673 37.1111L9.13319 36.8773C8.92895 36.6729 8.90309 36.5766 8.92737 36.1104C8.95306 35.6188 8.97327 35.5753 9.18696 35.5526C10.8494 35.3757 12.6641 34.4734 13.9488 33.185C17.0925 30.0321 17.0992 24.922 13.9637 21.7407C10.7756 18.5059 5.62606 18.4886 2.41561 21.7019C0.506614 23.6124 -0.315539 26.2227 0.150051 28.8949C0.729767 32.2219 3.4115 34.9045 6.73015 35.4771L7.37912 35.589L7.43076 36.279C7.45913 36.6585 7.55721 37.1247 7.64881 37.3149C7.83358 37.6984 8.41219 38.2623 8.79777 38.4345C8.96761 38.5103 9.98585 38.5612 11.9683 38.5928L14.8886 38.6393L14.9133 38.8713C15.09 40.5358 16.0126 42.393 17.2879 43.652C20.4651 46.7884 25.5742 46.7818 28.7226 43.6371C30.01 42.3514 30.9115 40.5351 31.0882 38.8713L31.1129 38.6393L33.6624 38.5929C36.5491 38.5404 36.6263 38.5233 37.2642 37.798C37.7841 37.2068 37.8344 36.9304 37.8344 34.6618V32.6544H39.6886H41.5428V31.9121V31.1698H40.8011H40.0594V30.4275V29.6852H42.0651C43.3689 29.6852 44.2043 29.6457 44.4524 29.5724C44.9616 29.4218 45.7297 28.6531 45.8801 28.1434C46.0384 27.6073 46.0407 18.407 45.8826 17.8792C45.822 17.6767 45.5921 17.3103 45.3716 17.0649C44.6722 16.2863 45.0828 16.3224 37.053 16.3331C32.1944 16.3396 29.8994 16.3744 29.6759 16.4449ZM44.2819 18.0361L44.5095 18.2638V21.7476V25.2314H37.0927H29.6759V21.7476V18.2638L29.9035 18.0361L30.131 17.8083H37.0927H44.0544L44.2819 18.0361ZM10.1604 21.0931C11.2125 21.4284 11.9947 21.9169 12.8493 22.7722C13.6965 23.6201 14.1838 24.3974 14.5362 25.4633C14.753 26.1188 14.7817 26.3522 14.7817 27.4583C14.7817 28.5643 14.753 28.7978 14.5362 29.4532C14.1838 30.5192 13.6965 31.2965 12.8493 32.1444C12.0021 32.9923 11.2255 33.48 10.1604 33.8327C9.50552 34.0497 9.27226 34.0784 8.16715 34.0784C7.06205 34.0784 6.82879 34.0497 6.17389 33.8327C5.10883 33.48 4.3322 32.9923 3.48502 32.1444C2.63783 31.2965 2.15055 30.5192 1.79807 29.4532C1.58131 28.7978 1.55257 28.5643 1.55257 27.4583C1.55257 26.3522 1.58131 26.1188 1.79807 25.4633C2.15064 24.3972 2.63793 23.62 3.48502 22.7725C4.52782 21.7291 5.66723 21.1125 6.99558 20.8725C7.82413 20.7228 9.32733 20.8276 10.1604 21.0931ZM20.034 22.2621V23.0044H20.7757H21.5174V22.2621V21.5198H20.7757H20.034V22.2621ZM24.4841 22.2621V23.0044H25.2258H25.9675V22.2621V21.5198H25.2258H24.4841V22.2621ZM7.14734 22.3163C5.35989 22.6366 3.88794 23.3103 2.74362 24.3314L2.37277 24.6624L2.90382 25.199L3.43486 25.7357L3.73821 25.4464C5.23316 24.0209 7.73874 23.4207 9.88229 23.9745C10.6596 24.1754 11.841 24.7865 12.403 25.2786L12.8768 25.6934L13.4115 25.1668L13.9462 24.6401L13.583 24.3229C12.0973 23.025 10.4339 22.373 8.44528 22.3091C7.85889 22.2901 7.27482 22.2934 7.14734 22.3163ZM20.034 25.2314V25.9737H20.7757H21.5174V25.2314V24.489H20.7757H20.034V25.2314ZM24.4841 25.2314V25.9737H25.2258H25.9675V25.2314V24.489H25.2258H24.4841V25.2314ZM7.1937 25.32C6.32037 25.51 5.45372 25.9302 4.82662 26.4677L4.52087 26.7297L5.03615 27.2455L5.55143 27.7612L5.86655 27.5206C6.03992 27.3883 6.43023 27.164 6.73404 27.0222C7.21623 26.7971 7.3984 26.7643 8.16715 26.7643C8.9359 26.7643 9.11808 26.7971 9.60027 27.0222C9.90408 27.164 10.2918 27.3864 10.462 27.5163C10.8074 27.78 10.7844 27.7882 11.4315 27.1676C11.6247 26.9822 11.7828 26.7924 11.7828 26.7459C11.7828 26.6397 11.007 26.0497 10.5857 25.8357C9.62891 25.3495 8.11561 25.1194 7.1937 25.32ZM44.5095 27.2305C44.5095 27.6531 44.4688 27.7858 44.2819 27.9728L44.0544 28.2006H37.0927H30.131L29.9035 27.9728C29.7166 27.7858 29.6759 27.6531 29.6759 27.2305V26.716H37.0927H44.5095V27.2305ZM7.42547 28.3219C7.24701 28.3782 6.891 28.6349 6.63429 28.8923C5.9791 29.5495 5.79813 30.243 6.05485 31.1127C6.20532 31.6223 6.97333 32.391 7.48258 32.5416C8.35183 32.7986 9.04484 32.6174 9.70002 31.9617C10.606 31.0549 10.6331 29.9015 9.77094 28.9418C9.17093 28.2739 8.30409 28.0447 7.42547 28.3219ZM23.5148 28.4284L23.7424 28.6561V32.6544V36.6528L23.5148 36.8805C23.3714 37.0241 23.1814 37.1083 23.0008 37.1083C22.8202 37.1083 22.6301 37.0241 22.4867 36.8805L22.2591 36.6528V32.6544V28.6561L22.4867 28.4284C22.6301 28.2847 22.8202 28.2006 23.0008 28.2006C23.1814 28.2006 23.3714 28.2847 23.5148 28.4284ZM8.68123 29.913C9.14116 30.3732 8.81529 31.1698 8.16715 31.1698C7.78602 31.1698 7.42547 30.809 7.42547 30.4275C7.42547 30.0461 7.78602 29.6852 8.16715 29.6852C8.34775 29.6852 8.53781 29.7694 8.68123 29.913ZM38.5761 30.4275V31.1698H37.0927H35.6093V30.4275V29.6852H37.0927H38.5761V30.4275ZM20.7757 32.355V33.1689L20.4316 33.3525C19.9406 33.6142 18.9874 34.5302 18.6366 35.0775C16.2638 38.7784 19.3961 43.6103 23.7556 42.9744C27.4401 42.4369 29.3725 38.2087 27.3649 35.0775C27.0141 34.5302 26.0609 33.6142 25.5699 33.3525L25.2258 33.1689V32.3561V31.5433L25.7469 31.774C28.2319 32.8739 29.8387 35.576 29.6435 38.3272C29.5272 39.968 28.8965 41.3221 27.6829 42.5367C26.8357 43.3846 26.0591 43.8723 24.994 44.2251C24.3391 44.442 24.1059 44.4708 23.0008 44.4708C21.8957 44.4708 21.6624 44.442 21.0075 44.2251C20.5996 44.09 19.9946 43.8219 19.6632 43.6293C18.8899 43.1802 17.6757 41.9649 17.2269 41.191C15.5441 38.2891 16.3355 34.4991 19.0421 32.497C19.3911 32.2388 20.637 31.5426 20.7525 31.5412C20.7652 31.5411 20.7757 31.9073 20.7757 32.355ZM20.7757 35.8217C20.7757 36.2878 20.8264 36.841 20.8885 37.0511C21.0389 37.5608 21.8069 38.3295 22.3162 38.4801C23.1854 38.7371 23.8784 38.5559 24.5336 37.9001C25.1019 37.3313 25.2258 36.9594 25.2258 35.8217C25.2258 35.3555 25.2643 34.9741 25.3113 34.9741C25.4788 34.9741 26.0879 35.7727 26.373 36.366C26.6353 36.9118 26.6628 37.0532 26.6628 37.8554C26.6628 38.6919 26.6433 38.7811 26.3165 39.4428C25.8995 40.2874 25.3627 40.8134 24.5008 41.222C23.9408 41.4876 23.7972 41.5157 23.0008 41.5157C22.2043 41.5157 22.0608 41.4876 21.5007 41.222C20.6388 40.8134 20.102 40.2874 19.685 39.4428C19.3582 38.7811 19.3387 38.6919 19.3387 37.8554C19.3387 37.0532 19.3663 36.9118 19.6285 36.366C19.9136 35.7727 20.5227 34.9741 20.6902 34.9741C20.7372 34.9741 20.7757 35.3555 20.7757 35.8217Z" fill="black"/>
</svg>
