<svg width="52" height="40" viewBox="0 0 52 40" fill="none" xmlns="http://www.w3.org/2000/svg">
<path d="M39.05 33.752H37.1765C36.1256 33.7509 35.1181 33.3312 34.375 32.5852C33.6319 31.8392 33.214 30.8276 33.2129 29.7726V23.6923C33.214 22.6372 33.6319 21.6257 34.375 20.8797C35.1181 20.1336 36.1256 19.714 37.1765 19.7129H39.05C40.1008 19.7142 41.108 20.1339 41.8509 20.88C42.5938 21.626 43.0116 22.6374 43.0127 23.6923V29.7726C43.0116 30.8275 42.5938 31.8389 41.8509 32.5849C41.108 33.3309 40.1008 33.7506 39.05 33.752ZM37.1765 23.0069C36.9952 23.0071 36.8215 23.0795 36.6934 23.2081C36.5653 23.3368 36.4932 23.5112 36.4929 23.6931V29.7734C36.4932 29.9553 36.5653 30.1298 36.6934 30.2584C36.8215 30.3871 36.9952 30.4594 37.1765 30.4597H39.05C39.2313 30.4594 39.405 30.3871 39.5331 30.2584C39.6612 30.1298 39.7333 29.9553 39.7336 29.7734V23.6931C39.7336 23.5111 39.6616 23.3366 39.5334 23.2079C39.4052 23.0792 39.2313 23.0069 39.05 23.0069H37.1765Z" fill="#0092FF"/>
<path d="M46.9487 4.59956H44.8277V1.64658C44.8277 1.20988 44.6549 0.791061 44.3474 0.482267C44.0398 0.173473 43.6227 0 43.1877 0C42.7527 0 42.3356 0.173473 42.028 0.482267C41.7205 0.791061 41.5477 1.20988 41.5477 1.64658V4.59956H11.5233V1.64658C11.5233 1.20988 11.3505 0.791061 11.043 0.482267C10.7354 0.173473 10.3182 0 9.88329 0C9.44833 0 9.03118 0.173473 8.72362 0.482267C8.41605 0.791061 8.24327 1.20988 8.24327 1.64658V4.59956H5.05633C3.71632 4.6 2.43124 5.1343 1.48323 6.08516C0.535226 7.03601 0.00177743 8.3257 0 9.67107V34.9175C0.000442839 36.2643 0.5331 37.5559 1.48108 38.5088C2.42907 39.4617 3.7149 39.998 5.05633 40H46.9487C48.2896 39.9978 49.5748 39.4612 50.5219 38.5082C51.4691 37.5553 52.0007 36.2638 52 34.9175V9.67107C51.9993 8.32623 51.4669 7.03666 50.5198 6.08571C49.5726 5.13476 48.2882 4.60023 46.9487 4.59956ZM24.0866 36.1578H5.05718C4.73027 36.1569 4.41707 36.0258 4.18639 35.7933C3.9557 35.5607 3.82639 35.2457 3.82684 34.9175V16.6456H24.0866V36.1578ZM24.0866 12.8051H3.82768V9.67107C3.82857 9.34428 3.95867 9.03122 4.18938 8.80069C4.42009 8.57017 4.7325 8.44105 5.058 8.44172H24.0874L24.0866 12.8051ZM48.1715 34.9175C48.1724 35.0798 48.1413 35.2407 48.0802 35.3909C48.0191 35.5411 47.929 35.6777 47.8152 35.793C47.7014 35.9082 47.566 35.9997 47.4169 36.0623C47.2678 36.1249 47.1078 36.1574 46.9462 36.1578H27.9109V16.6464H48.1698L48.1715 34.9175ZM48.1715 12.8051H27.9109V8.44172H46.9487C47.1097 8.44139 47.2691 8.47295 47.4178 8.5346C47.5666 8.59626 47.7017 8.68679 47.8156 8.801C47.9294 8.91521 48.0197 9.05086 48.0812 9.20017C48.1427 9.34948 48.1743 9.5095 48.174 9.67107L48.1715 12.8051Z" fill="#0092FF"/>
<path d="M15.4914 33.752H13.6179C12.567 33.7509 11.5595 33.3312 10.8164 32.5852C10.0734 31.8392 9.65541 30.8276 9.6543 29.7726V23.6923C9.65541 22.6372 10.0734 21.6257 10.8164 20.8797C11.5595 20.1336 12.567 19.714 13.6179 19.7129H15.4914C16.5423 19.714 17.5498 20.1336 18.2929 20.8797C19.0359 21.6257 19.4539 22.6372 19.455 23.6923V29.7726C19.4539 30.8276 19.0359 31.8392 18.2929 32.5852C17.5498 33.3312 16.5423 33.7509 15.4914 33.752ZM13.6187 23.0069C13.4374 23.0069 13.2635 23.0792 13.1354 23.2079C13.0072 23.3366 12.9352 23.5111 12.9352 23.6931V29.7734C12.9354 29.9553 13.0075 30.1298 13.1356 30.2584C13.2638 30.3871 13.4375 30.4594 13.6187 30.4597H15.4923C15.6736 30.4597 15.8474 30.3874 15.9756 30.2587C16.1038 30.13 16.1758 29.9554 16.1758 29.7734V23.6931C16.1758 23.5111 16.1038 23.3366 15.9756 23.2079C15.8474 23.0792 15.6736 23.0069 15.4923 23.0069H13.6187Z" fill="#0092FF"/>
</svg>
