<svg width="40" height="40" viewBox="0 0 40 40" fill="none" xmlns="http://www.w3.org/2000/svg">
<path d="M20.5455 0L21.1869 0.192279C21.9739 0.442158 22.6635 0.930608 23.16 1.58984C23.6566 2.24908 23.9355 3.0464 23.9579 3.87118C23.9579 4.33905 23.9579 4.80692 23.9579 5.2748C23.9649 5.36475 23.9537 5.45519 23.925 5.54073C23.8963 5.62627 23.8507 5.70517 23.7908 5.77273C23.731 5.8403 23.6582 5.89515 23.5767 5.93403C23.4952 5.97291 23.4067 5.99502 23.3165 5.99904C23.2247 5.99743 23.1341 5.97742 23.0502 5.94021C22.9663 5.903 22.8907 5.84933 22.8279 5.78239C22.7651 5.71546 22.7163 5.63662 22.6846 5.55053C22.6528 5.46444 22.6387 5.37285 22.643 5.2812C22.643 4.81333 22.643 4.34545 22.643 3.87758C22.6155 3.19875 22.3302 2.55587 21.8453 2.07965C21.3603 1.60344 20.7121 1.32963 20.0323 1.31389C19.9372 1.30186 19.8409 1.32347 19.76 1.37498C19.6792 1.42649 19.6189 1.50465 19.5897 1.5959C19.1984 2.40346 18.7815 3.1918 18.3966 3.99936C18.2291 4.41232 17.9358 4.76211 17.5581 4.9991C17.1805 5.23609 16.7377 5.34824 16.2927 5.31966C13.4105 5.31966 10.5325 5.31966 7.65884 5.31966C7.22575 5.346 6.79522 5.23667 6.42727 5.00689C6.05933 4.77711 5.77231 4.43834 5.60622 4.03781C5.20853 3.22384 4.77876 2.41628 4.39389 1.5959C4.35747 1.49412 4.28551 1.40891 4.19123 1.35592C4.09695 1.30293 3.98669 1.28573 3.88074 1.30748C3.21659 1.33789 2.58715 1.61259 2.11349 2.07876C1.63983 2.54494 1.35542 3.16965 1.31496 3.83272C1.31496 3.98654 1.31496 4.14036 1.31496 4.30059V35.6674C1.31496 37.5901 2.38617 38.6477 4.27843 38.6477H19.7052C20.0765 38.6853 20.4516 38.6447 20.8062 38.5285C21.1608 38.4123 21.4871 38.223 21.7639 37.973C22.0408 37.7229 22.2621 37.4176 22.4135 37.0768C22.5649 36.7359 22.6431 36.3671 22.643 35.9942C22.6532 35.8183 22.7329 35.6536 22.8647 35.5364C22.9964 35.4192 23.1693 35.3591 23.3454 35.3693C23.5215 35.3795 23.6863 35.4592 23.8035 35.5908C23.9208 35.7224 23.981 35.8952 23.9708 36.0711C23.9539 36.9811 23.6269 37.8581 23.0438 38.5573C22.4606 39.2564 21.6563 39.736 20.7636 39.9167C20.6784 39.9387 20.5948 39.9665 20.5134 40H3.43814C3.35714 39.9655 3.27348 39.9377 3.18798 39.9167C2.49486 39.7709 1.85267 39.4445 1.32657 38.9706C0.800476 38.4967 0.409193 37.8922 0.19243 37.2184C0.121872 37.0069 0.0641445 36.7826 0 36.5775V3.43535C0 3.35203 0.0641427 3.27512 0.083386 3.1918C0.195586 2.62512 0.432881 2.09058 0.777983 1.62712C1.12308 1.16367 1.5673 0.782963 2.07828 0.51274C2.51792 0.307678 2.97252 0.13627 3.43814 0H20.5455ZM18.2491 1.35235H5.75376C6.15787 2.1535 6.52349 2.92902 6.94043 3.66609C7.00811 3.75713 7.09479 3.83238 7.19448 3.88661C7.29417 3.94084 7.40447 3.97275 7.51773 3.98013C10.5069 3.98013 13.496 3.98013 16.498 3.98013C16.5995 3.97919 16.6996 3.95637 16.7915 3.91323C16.8833 3.87009 16.9648 3.80765 17.0304 3.73017C17.4473 2.98029 17.8322 2.17914 18.2491 1.35235Z" fill="#1ECBA1"/>
<path d="M39.9939 30.5406C39.9091 30.8897 39.7998 31.2323 39.6668 31.5661C39.3845 32.2821 38.891 32.8955 38.2518 33.3247C37.6125 33.754 36.8577 33.9789 36.0875 33.9695C29.8142 34.0037 23.5388 34.0037 17.2611 33.9695C16.2354 33.9664 15.2517 33.5622 14.5204 32.8435C13.7891 32.1248 13.3684 31.1487 13.3483 30.124C13.3483 28.7845 13.3483 27.4449 13.3483 26.1054C13.3589 25.9916 13.332 25.8775 13.2718 25.7804C13.2116 25.6833 13.1214 25.6084 13.0148 25.567C10.7505 24.3685 8.4926 23.1572 6.2283 21.965C5.96549 21.8688 5.73859 21.6943 5.57829 21.465C5.41799 21.2358 5.33203 20.9629 5.33203 20.6832C5.33203 20.4035 5.41799 20.1306 5.57829 19.9014C5.73859 19.6721 5.96549 19.4976 6.2283 19.4014C8.48618 18.2092 10.7184 17.0043 12.9827 15.8186C13.1006 15.7729 13.2001 15.6899 13.2662 15.5822C13.3322 15.4745 13.3611 15.3482 13.3483 15.2225C13.3483 13.9856 13.3483 12.7486 13.3483 11.518C13.3228 10.9664 13.4127 10.4155 13.6121 9.90049C13.8116 9.38549 14.1163 8.91769 14.5068 8.52691C14.8972 8.13613 15.365 7.83097 15.8801 7.63088C16.3952 7.4308 16.9464 7.34018 17.4985 7.36482H35.8181C36.7981 7.31346 37.7624 7.62713 38.5242 8.24515C39.2861 8.86316 39.7915 9.74158 39.9426 10.7104C39.9571 10.7451 39.9765 10.7775 40.0004 10.8066L39.9939 30.5406ZM6.68372 20.6447L7.05576 20.8562C9.38421 22.0932 11.7062 23.3494 14.0411 24.5736C14.2495 24.6605 14.4244 24.8121 14.54 25.006C14.6555 25.1999 14.7055 25.4258 14.6825 25.6503C14.6825 27.0283 14.6825 28.4063 14.6825 29.7907C14.6526 30.172 14.7058 30.5553 14.8383 30.9141C14.9709 31.2729 15.1797 31.5988 15.4504 31.8692C15.721 32.1397 16.0472 32.3483 16.4063 32.4807C16.7654 32.6132 17.1489 32.6663 17.5306 32.6364H35.8117C36.1942 32.6651 36.5783 32.611 36.938 32.4779C37.2977 32.3448 37.6244 32.1357 37.8959 31.8651C38.1674 31.5944 38.3773 31.2684 38.5114 30.9093C38.6454 30.5503 38.7004 30.1665 38.6726 29.7843V11.5244C38.7011 11.1428 38.6471 10.7596 38.5143 10.4007C38.3815 10.0418 38.1729 9.71568 37.9027 9.4445C37.6325 9.17332 37.3071 8.96342 36.9485 8.82907C36.5899 8.69472 36.2066 8.63907 35.8245 8.66589H17.4985C17.1201 8.64012 16.7406 8.69583 16.3856 8.82926C16.0306 8.96269 15.7084 9.17073 15.4408 9.43931C15.1732 9.70788 14.9665 10.0307 14.8346 10.386C14.7027 10.7413 14.6486 11.1208 14.6761 11.4988C14.6761 12.9152 14.6761 14.3381 14.6761 15.7545C14.6946 15.9478 14.6511 16.142 14.5519 16.309C14.4528 16.4761 14.3031 16.6073 14.1245 16.6838C12.9763 17.2735 11.8474 17.8888 10.712 18.4977L6.68372 20.6447Z" fill="#1ECBA1"/>
<path d="M11.9885 35.9743H17.2226C17.3785 35.9456 17.5394 35.9756 17.6744 36.0585C17.8094 36.1413 17.909 36.2711 17.9539 36.4229C17.9846 36.5061 17.9978 36.5947 17.9925 36.6831C17.9872 36.7716 17.9637 36.858 17.9233 36.9369C17.8829 37.0158 17.8266 37.0855 17.7579 37.1416C17.6892 37.1976 17.6096 37.2388 17.5241 37.2626C17.398 37.2915 17.2686 37.3044 17.1393 37.301H6.6388C6.54889 37.3015 6.45988 37.283 6.37756 37.2469C6.29524 37.2107 6.22144 37.1577 6.16095 37.0912C6.10047 37.0248 6.05465 36.9463 6.02647 36.861C5.99828 36.7757 5.98836 36.6854 5.99736 36.596C5.99736 36.426 6.06494 36.263 6.18523 36.1428C6.30553 36.0226 6.46868 35.9551 6.6388 35.9551C7.49192 35.9551 8.35145 35.9551 9.20457 35.9551L11.9885 35.9743Z" fill="#1ECBA1"/>
<path d="M30.0318 26.6358C29.6982 28.77 28.4474 29.9814 26.6322 29.975C24.8169 29.9686 23.6238 28.7508 23.3095 26.655H22.9054H19.4672C19.2317 26.6816 18.9933 26.6447 18.7769 26.5482C18.5604 26.4517 18.3738 26.299 18.2363 26.1061C18.0989 25.9131 18.0156 25.687 17.9952 25.451C17.9747 25.215 18.0179 24.9779 18.1202 24.7643C18.6718 23.0851 19.2876 21.4251 19.7559 19.7266C19.9246 18.8356 20.0318 17.934 20.0766 17.0283C20.356 15.4083 21.2252 13.9489 22.5169 12.9308C23.8086 11.9127 25.4316 11.408 27.0734 11.5138C28.7152 11.6196 30.2598 12.3285 31.4099 13.5039C32.56 14.6794 33.2344 16.2383 33.3032 17.8808C33.3296 18.855 33.507 19.8193 33.8292 20.7393C34.2974 22.0596 34.7336 23.3927 35.1826 24.7194C35.2898 24.9361 35.3362 25.1778 35.3171 25.4188C35.2979 25.6598 35.2139 25.8911 35.0738 26.0882C34.9337 26.2853 34.7429 26.4409 34.5215 26.5384C34.3001 26.636 34.0564 26.6718 33.8163 26.6422H30.0318V26.6358ZM33.9959 25.3091C33.7265 24.5207 33.4764 23.7965 33.2454 23.0658C32.7185 21.7537 32.3231 20.3925 32.0652 19.0024C31.9818 18.2909 32.001 17.5667 31.8663 16.8681C31.6046 15.6478 30.9218 14.5584 29.9374 13.7903C28.953 13.0222 27.7296 12.6243 26.4814 12.6663C25.2331 12.7083 24.0393 13.1875 23.1089 14.0201C22.1784 14.8526 21.5705 15.9855 21.3915 17.2206C21.3289 18.215 21.2004 19.2042 21.0067 20.1817C20.5897 21.7583 20.006 23.2966 19.4865 24.8476L19.3453 25.3091H33.9959ZM24.7014 26.6934C24.6861 26.9609 24.7256 27.2286 24.8175 27.4802C24.9094 27.7318 25.0517 27.962 25.2358 28.1568C25.4199 28.3515 25.6418 28.5066 25.8879 28.6126C26.1341 28.7187 26.3994 28.7733 26.6674 28.7733C26.9355 28.7733 27.2007 28.7187 27.4469 28.6126C27.6931 28.5066 27.915 28.3515 28.0991 28.1568C28.2831 27.962 28.4255 27.7318 28.5173 27.4802C28.6092 27.2286 28.6487 26.9609 28.6335 26.6934H24.7014Z" fill="#1ECBA1"/>
</svg>
