<svg width="39" height="40" viewBox="0 0 39 40" fill="none" xmlns="http://www.w3.org/2000/svg">
<path d="M19.5116 0.0123342H28.4368C28.8696 -0.0273059 29.3057 0.028878 29.7143 0.176891C30.1229 0.324904 30.4938 0.561104 30.8007 0.86869C31.1076 1.17628 31.3428 1.54769 31.4898 1.95649C31.6367 2.3653 31.6918 2.80146 31.6509 3.23393C31.6509 6.97476 31.6509 10.7185 31.6509 14.4653C31.6329 14.6151 31.6615 14.7668 31.7328 14.8998C31.804 15.0329 31.9146 15.1407 32.0494 15.2087C34.1567 16.492 36.2374 17.8019 38.3359 19.1118C39.2214 19.6605 39.2214 20.3155 38.3359 20.8819C36.2463 22.1918 34.1567 23.5371 32.0582 24.785C31.9233 24.8512 31.812 24.957 31.7392 25.0884C31.6663 25.2197 31.6355 25.3702 31.6509 25.5196C31.6509 29.3017 31.6509 33.0779 31.6509 36.8483C31.6944 37.5629 31.4769 38.269 31.0388 38.8355C30.6008 39.402 29.9719 39.7903 29.2691 39.9283C29.0121 39.9753 28.7511 39.996 28.4899 39.9902H10.5422C10.1128 40.0252 9.68096 39.9662 9.27668 39.8174C8.87241 39.6686 8.50541 39.4336 8.2012 39.1287C7.897 38.8238 7.66289 38.4563 7.51516 38.0518C7.36743 37.6473 7.30964 37.2154 7.34578 36.7863C7.34578 33.0396 7.34578 29.2929 7.34578 25.5461C7.36078 25.3899 7.32824 25.2328 7.2524 25.0954C7.17656 24.958 7.06097 24.8468 6.92077 24.7761C4.80458 23.484 2.70611 22.121 0.607633 20.8465C-0.198111 20.3509 -0.206965 19.6694 0.607633 19.1649C2.72087 17.8432 4.84 16.5274 6.96504 15.2176C7.0914 15.152 7.1957 15.0508 7.26497 14.9265C7.33424 14.8022 7.36542 14.6603 7.35463 14.5184C7.35463 10.7421 7.35463 6.96591 7.35463 3.18967C7.30741 2.46724 7.52626 1.7525 7.96991 1.18024C8.41356 0.60798 9.05135 0.21775 9.763 0.0831401C10.0203 0.0390349 10.2813 0.0212374 10.5422 0.0300323L19.5116 0.0123342ZM31.6598 16.9434V17.5364C31.6598 18.7224 31.6598 19.9083 31.6598 21.0766C31.6728 21.1915 31.6606 21.3077 31.6241 21.4174C31.5877 21.5271 31.5277 21.6275 31.4486 21.7117C31.3694 21.7959 31.2728 21.8619 31.1655 21.9051C31.0583 21.9482 30.9429 21.9675 30.8275 21.9617C30.7092 21.9695 30.5905 21.952 30.4796 21.9103C30.3686 21.8685 30.2678 21.8036 30.184 21.7198C30.1001 21.636 30.0352 21.5353 29.9935 21.4244C29.9517 21.3134 29.9342 21.1949 29.942 21.0766C29.942 20.9439 29.942 20.8023 29.942 20.6606V3.30474C29.942 2.13646 29.4904 1.68509 28.3217 1.68509H10.613C9.41769 1.68509 8.97497 2.13646 8.97497 3.34013V20.8996C8.97497 21.6077 8.68278 22.0059 8.14267 22.0148C7.60255 22.0236 7.25724 21.6254 7.25724 20.8996V16.9434L2.3962 19.9792C2.56444 20.0942 2.67069 20.1827 2.7858 20.2535L19.0158 30.3697C19.1316 30.4616 19.2752 30.5116 19.4231 30.5116C19.571 30.5116 19.7145 30.4616 19.8304 30.3697L36.0338 20.2978C36.1843 20.2093 36.3348 20.1119 36.5385 19.9703L31.6598 16.9434ZM9.03695 26.1037V36.7244C9.03695 37.8661 9.49738 38.3263 10.6307 38.3263H28.3394C29.4462 38.3263 29.9155 37.8572 29.9155 36.7686V26.564C29.9155 26.4312 29.9155 26.3073 29.9155 26.1214L29.4462 26.3958C26.3737 28.3075 23.3013 30.2104 20.2377 32.1398C20.0194 32.3077 19.7517 32.3988 19.4762 32.3988C19.2007 32.3988 18.933 32.3077 18.7147 32.1398C15.6688 30.2192 12.6052 28.3252 9.5505 26.4223C9.41769 26.3161 9.25831 26.2276 9.03695 26.1037Z" fill="#BCAC19"/>
<path d="M25.7643 20.0405C25.7643 20.9255 25.7643 21.8902 25.7643 22.8107C25.7706 23.0232 25.7155 23.2331 25.6056 23.4152C25.4957 23.5973 25.3356 23.7439 25.1445 23.8373C23.471 24.8552 21.8064 25.873 20.1506 26.9173C19.9536 27.0639 19.7145 27.143 19.4688 27.143C19.2232 27.143 18.9841 27.0639 18.7871 26.9173C17.1756 25.8995 15.4932 24.8817 13.8198 23.8373C13.636 23.7404 13.4835 23.5932 13.3801 23.4131C13.2766 23.2329 13.2264 23.0271 13.2354 22.8195C13.2354 20.9255 13.2354 19.0285 13.2354 17.1286C13.2275 16.9292 13.2756 16.7315 13.3742 16.5579C13.4727 16.3843 13.6179 16.2417 13.7932 16.1462C15.4844 15.1284 17.1756 14.1017 18.849 13.0131C19.0392 12.8702 19.2707 12.793 19.5087 12.793C19.7466 12.793 19.9781 12.8702 20.1683 13.0131C21.8506 14.0752 23.5359 15.1255 25.2241 16.1639C25.3997 16.2624 25.5437 16.4086 25.6393 16.5857C25.7349 16.7627 25.7783 16.9633 25.7643 17.164C25.7554 18.1287 25.7643 19.0846 25.7643 20.0405ZM23.3116 16.987L19.6725 14.7213C19.6156 14.6951 19.5536 14.6815 19.491 14.6815C19.4283 14.6815 19.3664 14.6951 19.3095 14.7213C18.1141 15.4559 16.9365 16.1993 15.7057 16.9693L19.3714 19.2351C19.4172 19.2564 19.4671 19.2675 19.5175 19.2675C19.568 19.2675 19.6179 19.2564 19.6636 19.2351L23.3116 16.987ZM18.6631 24.8463C18.6631 23.5187 18.6631 22.2885 18.6631 21.0583C18.6486 20.9737 18.6168 20.8931 18.5695 20.8215C18.5223 20.7499 18.4607 20.6889 18.3886 20.6423C17.7511 20.2263 17.087 19.828 16.4318 19.4209L14.962 18.5359C14.962 19.89 14.962 21.191 14.962 22.4035C14.9691 22.462 14.9886 22.5182 15.0192 22.5686C15.0497 22.6189 15.0906 22.6622 15.1391 22.6956C16.2901 23.386 17.4235 24.0852 18.6631 24.8463ZM20.3454 24.8463C20.4183 24.8186 20.4893 24.786 20.5579 24.7489C21.647 24.0852 22.7361 23.4302 23.8163 22.7399C23.8854 22.6783 23.9413 22.6035 23.9809 22.5198C24.0204 22.4362 24.0427 22.3455 24.0465 22.2531C24.0465 21.368 24.0465 20.3856 24.0465 19.4475V18.527C22.7892 19.3059 21.6293 20.0139 20.5048 20.7485C20.4577 20.7943 20.4208 20.8495 20.3964 20.9105C20.3719 20.9715 20.3606 21.0369 20.3631 21.1025C20.3366 22.3062 20.3454 23.5187 20.3454 24.8109V24.8463Z" fill="#BCAC19"/>
<path d="M10.1427 13.7034C10.14 13.5256 10.191 13.3512 10.2889 13.2028C10.3868 13.0544 10.5271 12.9389 10.6916 12.8714C12.675 11.6323 14.6613 10.3962 16.6506 9.16304C17.4032 8.68511 18.1647 8.22488 18.9173 7.7381C19.0857 7.61511 19.2888 7.54883 19.4973 7.54883C19.7058 7.54883 19.9089 7.61511 20.0772 7.7381L28.418 12.9511C28.5305 13.0008 28.6315 13.0734 28.7143 13.1643C28.7972 13.2552 28.8603 13.3623 28.8994 13.4789C28.9386 13.5955 28.953 13.7189 28.9418 13.8414C28.9305 13.9638 28.8939 14.0826 28.8342 14.1901C28.5685 14.6327 28.055 14.7035 27.506 14.3672C24.9737 12.7918 22.4325 11.2164 19.909 9.62327C19.7924 9.52915 19.6471 9.47781 19.4973 9.47781C19.3474 9.47781 19.2021 9.52915 19.0856 9.62327C16.6418 11.1633 14.1803 12.6856 11.7276 14.2167C11.5858 14.3065 11.4378 14.3864 11.2849 14.4557C11.1602 14.508 11.0246 14.5288 10.89 14.5163C10.7554 14.5038 10.6259 14.4584 10.513 14.3841C10.4001 14.3097 10.3073 14.2087 10.2427 14.09C10.1781 13.9713 10.1438 13.8385 10.1427 13.7034Z" fill="#BCAC19"/>
<path d="M19.5008 5.39408C18.27 5.39408 17.0393 5.39408 15.8085 5.39408C15.1444 5.39408 14.7726 5.07546 14.7814 4.50902C14.7903 3.94259 15.171 3.69477 15.7996 3.68592H23.2816C23.4838 3.68003 23.682 3.74356 23.8431 3.86595C24.0042 3.98833 24.1185 4.16219 24.167 4.35856C24.2054 4.53769 24.1794 4.72463 24.0936 4.8865C24.0077 5.04837 23.8676 5.17482 23.6977 5.24361C23.5267 5.31356 23.342 5.34382 23.1576 5.33212C21.9623 5.40292 20.7138 5.39408 19.5008 5.39408Z" fill="#BCAC19"/>
<path d="M19.476 36.1766C18.9802 36.1766 18.4843 36.1766 17.9973 36.1766C17.7714 36.177 17.5539 36.0911 17.3893 35.9364C17.2247 35.7817 17.1255 35.57 17.1119 35.3446C17.1026 35.226 17.1191 35.1068 17.1603 34.9952C17.2015 34.8836 17.2664 34.7822 17.3506 34.6981C17.4347 34.614 17.5361 34.5491 17.6478 34.5079C17.7594 34.4667 17.8787 34.4502 17.9973 34.4596C19.0156 34.4596 20.0338 34.4596 21.0432 34.4596C21.1619 34.4502 21.2811 34.4667 21.3928 34.5079C21.5045 34.5491 21.6058 34.614 21.69 34.6981C21.7742 34.7822 21.8391 34.8836 21.8803 34.9952C21.9215 35.1068 21.938 35.226 21.9287 35.3446C21.9151 35.57 21.8159 35.7817 21.6513 35.9364C21.4867 36.0911 21.2691 36.177 21.0432 36.1766H19.476Z" fill="#BCAC19"/>
</svg>
