<svg width="40" height="40" viewBox="0 0 40 40" fill="none" xmlns="http://www.w3.org/2000/svg">
<path d="M0 26.4409V3.64321C0.299898 2.77182 0.932129 2.05462 1.75859 1.64828C2.17656 1.41702 2.6112 1.21733 3.05888 1.05087C6.69654 -0.15026 10.6012 -0.287199 14.3139 0.656145C15.5154 0.892674 16.6462 1.4038 17.6179 2.14968C17.952 2.39515 18.2228 2.71668 18.4082 3.08768C18.5935 3.45869 18.688 3.86852 18.6837 4.2833C18.6837 6.0542 18.6837 7.8251 18.6837 9.61734V10.0441H21.3483V9.60666C21.3483 7.84642 21.3483 6.07552 21.3483 4.27262C21.3357 3.86316 21.4199 3.45652 21.594 3.08578C21.7681 2.71503 22.0272 2.39065 22.3501 2.13901C23.16 1.50309 24.0926 1.04181 25.0893 0.784165C27.58 0.0667923 30.1858 -0.161429 32.7631 0.112079C34.489 0.227598 36.1811 0.646493 37.7618 1.34957C38.2733 1.54391 38.7375 1.84522 39.1235 2.23338C39.5095 2.62154 39.8083 3.08763 40 3.60054V26.3982C39.8337 26.8727 39.5706 27.3074 39.2275 27.6747C38.8844 28.042 38.4688 28.3339 38.0069 28.5318C37.6158 28.7367 37.2096 28.9114 36.7919 29.0546C34.5379 29.7912 32.1684 30.1093 29.8002 29.9933H29.3419V30.4947C29.3419 32.2656 29.3419 34.0259 29.3419 35.8288C29.3561 36.2011 29.2847 36.5718 29.1332 36.9121C28.9817 37.2524 28.7541 37.5534 28.4679 37.7917C28.0902 38.109 27.6792 38.3844 27.2422 38.6131C26.1248 39.159 24.9261 39.5193 23.693 39.68C22.883 39.808 22.073 39.8933 21.263 40H18.769C18.6818 39.9724 18.5927 39.951 18.5025 39.936C17.4367 39.776 16.3176 39.6586 15.2411 39.4346C14.0215 39.2197 12.8664 38.7309 11.8625 38.0051C11.4846 37.7477 11.1786 37.398 10.9735 36.9892C10.7683 36.5803 10.6708 36.1259 10.6901 35.6688C10.6901 33.9299 10.6901 32.191 10.6901 30.4414C10.6901 30.292 10.6901 30.1427 10.6901 29.9293C9.6243 29.9293 8.62243 29.9827 7.60991 29.9293C5.78812 29.8522 3.99766 29.4286 2.33414 28.6812C1.80561 28.5003 1.32291 28.2061 0.919748 27.8192C0.51659 27.4322 0.202699 26.9618 0 26.4409ZM27.9563 16.2209C25.507 17.5226 22.7545 18.1451 19.984 18.0238C17.2173 18.1548 14.4666 17.5356 12.0224 16.2315C12.0224 16.3169 12.0224 16.3596 12.0224 16.4129C12.0224 18.0344 12.0224 19.6666 12.0224 21.2882C12.0252 21.4413 12.061 21.592 12.1272 21.7301C12.1934 21.8681 12.2885 21.9903 12.4061 22.0883C12.9764 22.533 13.6083 22.8924 14.2819 23.1551C17.7348 24.2723 21.4376 24.3612 24.94 23.4111C25.8054 23.2179 26.624 22.8554 27.3488 22.3443C27.5589 22.2033 27.7292 22.0104 27.8431 21.7843C27.9569 21.5582 28.0106 21.3065 27.9989 21.0535C27.9989 19.6027 27.9989 18.1411 27.9989 16.6796L27.9563 16.2209ZM27.9563 23.5498C25.4587 24.7381 22.7281 25.3547 19.9627 25.3547C17.1973 25.3547 14.4667 24.7381 11.9691 23.5498C11.9664 23.596 11.9664 23.6423 11.9691 23.6885C11.9691 25.3314 11.9691 26.9849 11.9691 28.6385C11.9841 28.9102 12.1023 29.1659 12.2995 29.3533C12.7256 29.7093 13.1947 30.0104 13.6957 30.2494C15.2666 30.912 16.9476 31.2739 18.6517 31.3162C20.8486 31.4831 23.0577 31.2555 25.1745 30.6441C26.0504 30.4345 26.8601 30.0091 27.53 29.4066C27.7251 29.2227 27.8528 28.9785 27.8924 28.7132C27.967 27.017 27.9563 25.3101 27.9563 23.5498ZM11.9691 30.8788V31.3589C11.9691 32.799 11.9691 34.2392 11.9691 35.6901C11.9427 35.9474 11.9922 36.2068 12.1115 36.4362C12.2309 36.6657 12.4148 36.855 12.6406 36.9809C13.3138 37.3867 14.0284 37.7193 14.7722 37.9731C17.9261 38.8753 21.2592 38.9488 24.4498 38.1864C25.4712 37.9851 26.44 37.5747 27.2955 36.9809C27.5056 36.8399 27.6759 36.647 27.7898 36.4209C27.9037 36.1948 27.9573 35.9431 27.9456 35.6901C27.9456 34.2286 27.9456 32.767 27.9456 31.3162C27.9456 31.1775 27.9456 31.0388 27.9456 30.8788C25.4506 32.076 22.719 32.6975 19.952 32.6975C17.1851 32.6975 14.4535 32.076 11.9584 30.8788H11.9691ZM17.2982 6.22488C14.852 7.53506 12.0972 8.15806 9.32587 8.02779C6.54649 8.15815 3.78385 7.53137 1.33227 6.21422V6.63027C1.33227 8.08113 1.33227 9.54265 1.33227 10.9935C1.3147 11.2597 1.3687 11.5258 1.48866 11.7641C1.60862 12.0023 1.79015 12.2041 2.01439 12.3484C2.19012 12.4794 2.37538 12.597 2.56862 12.7004C5.05157 13.7993 7.7732 14.2472 10.477 14.0019C10.5516 14.0019 10.6688 13.8739 10.6795 13.7992C10.7345 13.416 10.8789 13.0511 11.1011 12.7341C11.3234 12.4172 11.6171 12.1571 11.9584 11.975C12.7233 11.5146 13.5342 11.1356 14.3778 10.8442C15.3158 10.5348 16.3176 10.3748 17.3088 10.1507L17.2982 6.22488ZM22.6272 10.1934C23.1068 10.2787 23.5651 10.3428 24.0234 10.4388C25.4375 10.6625 26.7886 11.1824 27.9883 11.9643C28.3195 12.1603 28.6044 12.4259 28.8234 12.7426C29.0423 13.0594 29.1901 13.4198 29.2566 13.7992C29.2566 13.8846 29.4484 14.0019 29.5444 14.0126C31.7017 14.1661 33.8689 13.9239 35.9393 13.2978C36.686 13.0198 37.4006 12.6621 38.0709 12.231C38.2798 12.1092 38.4492 11.9297 38.5589 11.714C38.6685 11.4983 38.7137 11.2556 38.6891 11.0148C38.6891 9.53199 38.6891 8.04913 38.6891 6.56627V6.16087C36.1929 7.35434 33.4617 7.97376 30.6954 7.97376C27.9292 7.97376 25.1979 7.35434 22.7018 6.16087L22.6272 10.1934ZM9.30455 6.70494V6.81163C10.6795 6.64094 12.065 6.51292 13.4293 6.27822C14.584 6.11412 15.6814 5.67108 16.6267 4.98738C17.4474 4.35796 17.4794 3.71788 16.6267 3.14181C16.0354 2.72416 15.3852 2.39698 14.6976 2.17102C11.1978 1.10829 7.46435 1.08975 3.95418 2.11767C3.11735 2.32039 2.34206 2.72304 1.69465 3.29116C1.12977 3.8139 1.10845 4.35797 1.69465 4.77402C2.11812 5.13322 2.59217 5.42799 3.10152 5.64881C5.08314 6.42024 7.20097 6.77958 9.32587 6.70494H9.30455ZM30.6208 6.70494C32.216 6.73444 33.8078 6.54784 35.3531 6.15021C36.3097 5.93676 37.2127 5.53018 38.0069 4.95538C38.785 4.3473 38.8063 3.73922 38.0069 3.16315C37.4851 2.77413 36.9062 2.46825 36.291 2.25636C32.6962 1.09611 28.8336 1.0589 25.2172 2.14968C24.3807 2.35657 23.6082 2.76699 22.9683 3.3445C22.8562 3.42202 22.7645 3.52562 22.7012 3.6464C22.6379 3.76718 22.6048 3.90153 22.6048 4.03792C22.6048 4.17431 22.6379 4.30868 22.7012 4.42946C22.7645 4.55024 22.8562 4.65384 22.9683 4.73136C23.4147 5.10256 23.9095 5.41121 24.4391 5.64881C26.4143 6.41681 28.5244 6.77608 30.6422 6.70494H30.6208ZM19.9627 16.7009C21.7661 16.7401 23.5644 16.4953 25.2918 15.9755C26.1633 15.7594 26.9662 15.3264 27.6259 14.7167C27.7296 14.6392 27.8137 14.5386 27.8717 14.4228C27.9297 14.3071 27.9599 14.1794 27.9599 14.0499C27.9599 13.9204 27.9297 13.7927 27.8717 13.677C27.8137 13.5612 27.7296 13.4606 27.6259 13.3832C27.3079 13.0877 26.9489 12.8398 26.5601 12.6471C25.1761 11.985 23.6784 11.5939 22.1476 11.4949C19.6751 11.2045 17.1698 11.4002 14.7722 12.071C13.8553 12.285 13.008 12.7292 12.3102 13.3618C12.2024 13.4388 12.1145 13.5404 12.0539 13.6582C11.9932 13.7761 11.9616 13.9067 11.9616 14.0392C11.9616 14.1718 11.9932 14.3024 12.0539 14.4202C12.1145 14.5381 12.2024 14.6397 12.3102 14.7167C12.7265 15.0943 13.1971 15.4072 13.7064 15.6448C15.7009 16.4376 17.8398 16.8011 19.984 16.7116L19.9627 16.7009ZM29.2992 15.3567C29.2957 15.4278 29.2957 15.499 29.2992 15.5701C29.2992 17.3943 29.2992 19.2186 29.2992 21.0322C29.2992 21.3202 29.4484 21.3415 29.6616 21.3522C31.597 21.4563 33.537 21.2693 35.417 20.7975C36.382 20.588 37.2908 20.1733 38.0815 19.5813C38.2595 19.4479 38.4028 19.2735 38.4992 19.073C38.5957 18.8725 38.6425 18.6516 38.6358 18.4292C38.6358 16.9356 38.6358 15.4421 38.6358 13.9486C38.6358 13.8206 38.6358 13.7032 38.6358 13.5645C35.6941 15.2074 32.5606 15.4208 29.3205 15.3567H29.2992ZM10.6048 15.3567C7.4074 15.4314 4.20997 15.2181 1.34293 13.5752C1.3394 13.6142 1.3394 13.6535 1.34293 13.6925C1.34293 15.3461 1.34293 16.989 1.34293 18.6425C1.36218 18.9375 1.49609 19.2132 1.71596 19.4106C2.11358 19.762 2.56295 20.0498 3.04823 20.2641C5.38186 21.1648 7.8878 21.5293 10.381 21.3309C10.6581 21.3309 10.6475 21.1602 10.6475 20.9682V15.6341C10.6581 15.5808 10.6368 15.4741 10.6262 15.3567H10.6048ZM10.6048 28.6918V22.6857C7.4074 22.7604 4.20997 22.547 1.33227 20.8935C1.32831 20.9503 1.32831 21.0073 1.33227 21.0642C1.33227 22.6964 1.33227 24.3393 1.33227 25.9715C1.33823 26.1183 1.37445 26.2624 1.43864 26.3945C1.50284 26.5267 1.59362 26.6442 1.7053 26.7396C2.13276 27.0961 2.6059 27.3939 3.11217 27.625C4.80582 28.3125 6.61371 28.6744 8.44125 28.6918C9.21929 28.7238 9.91207 28.6918 10.6262 28.6918H10.6048ZM38.5931 20.8828C35.6621 22.547 32.5073 22.7604 29.2992 22.6857V28.6385H29.555C31.7618 28.8007 33.9793 28.5401 36.0885 27.8704C36.7794 27.5953 37.4344 27.2371 38.0389 26.8036C38.1807 26.7048 38.3011 26.5782 38.3927 26.4315C38.4842 26.2848 38.5452 26.1211 38.5718 25.9501C38.6358 24.3393 38.6144 22.6324 38.6144 20.8828H38.5931Z" fill="#06811A"/>
<path d="M16.5501 21.8116C15.8467 21.6409 15.1433 21.4809 14.4185 21.2888C14.2517 21.2422 14.1103 21.1311 14.0254 20.98C13.9404 20.829 13.9189 20.6503 13.9655 20.4834C14.0122 20.3165 14.1232 20.1749 14.2741 20.0899C14.425 20.0049 14.6035 19.9833 14.7702 20.03C15.431 20.1687 16.0918 20.3074 16.7526 20.4674C16.9188 20.5011 17.0656 20.5974 17.1628 20.7364C17.26 20.8753 17.3001 21.0464 17.2749 21.2142C17.2407 21.3818 17.1501 21.5325 17.0182 21.6413C16.8862 21.75 16.721 21.8101 16.5501 21.8116Z" fill="#06811A"/>
<path d="M23.3721 21.8232C23.2028 21.8184 23.0404 21.7553 22.9122 21.6445C22.7841 21.5337 22.698 21.3821 22.6687 21.2151C22.6368 21.0597 22.6669 20.8979 22.7525 20.7644C22.8381 20.6308 22.9725 20.5361 23.127 20.5004C23.8091 20.319 24.5125 20.1697 25.2053 20.031C25.2858 20.0139 25.369 20.0131 25.4498 20.0287C25.5307 20.0442 25.6076 20.0758 25.6761 20.1215C25.7446 20.1672 25.8033 20.2262 25.8488 20.2949C25.8942 20.3636 25.9255 20.4407 25.9407 20.5217C25.9878 20.6717 25.9739 20.8342 25.9021 20.974C25.8302 21.1137 25.7063 21.2196 25.557 21.2685C24.8323 21.4818 24.0969 21.6418 23.3721 21.8232Z" fill="#06811A"/>
<path d="M19.9628 22.0473C19.7176 22.0473 19.4725 22.0473 19.2274 22.0473C19.0643 22.0363 18.912 21.9622 18.8026 21.8408C18.6931 21.7193 18.6353 21.56 18.6412 21.3965C18.6339 21.3177 18.6426 21.2383 18.6668 21.1629C18.6909 21.0876 18.7301 21.018 18.7819 20.9582C18.8337 20.8984 18.897 20.8497 18.968 20.815C19.0391 20.7803 19.1164 20.7604 19.1954 20.7564C19.71 20.7244 20.2262 20.7244 20.7408 20.7564C20.8976 20.7766 21.0416 20.8533 21.146 20.9721C21.2503 21.0909 21.3079 21.2437 21.3079 21.4019C21.3079 21.56 21.2503 21.7128 21.146 21.8316C21.0416 21.9504 20.8976 22.0271 20.7408 22.0473C20.4637 22.0473 20.2079 22.0473 19.9628 22.0473Z" fill="#06811A"/>
<path d="M16.5932 29.1528C15.8684 28.9714 15.133 28.8114 14.4083 28.6087C14.3302 28.5834 14.2579 28.5428 14.1956 28.4892C14.1334 28.4357 14.0824 28.3702 14.0457 28.2967C14.009 28.2233 13.9873 28.1432 13.9818 28.0612C13.9764 27.9792 13.9873 27.897 14.0139 27.8193C14.0611 27.6639 14.1655 27.5322 14.306 27.451C14.4465 27.3698 14.6126 27.3451 14.7706 27.3819C15.4315 27.5206 16.0923 27.6699 16.7424 27.8299C16.9105 27.8612 17.0599 27.9565 17.1593 28.0958C17.2587 28.235 17.3003 28.4074 17.2753 28.5767C17.2373 28.7327 17.1507 28.8726 17.0281 28.9761C16.9055 29.0797 16.7532 29.1415 16.5932 29.1528Z" fill="#06811A"/>
<path d="M23.3619 29.1528C23.2003 29.1467 23.0454 29.0867 22.9218 28.9823C22.7982 28.8779 22.713 28.7351 22.6798 28.5767C22.6592 28.4968 22.6547 28.4136 22.6667 28.332C22.6787 28.2503 22.7069 28.1719 22.7496 28.1013C22.7923 28.0308 22.8486 27.9695 22.9154 27.921C22.9821 27.8726 23.0578 27.838 23.1381 27.8193C23.8202 27.6486 24.5237 27.4885 25.2697 27.3499C25.4265 27.3183 25.5895 27.3498 25.7231 27.4377C25.8568 27.5256 25.9505 27.6627 25.9838 27.8193C26.0365 27.9694 26.0294 28.1341 25.9639 28.2792C25.8984 28.4242 25.7796 28.5384 25.6321 28.598C24.8434 28.8114 24.0973 28.9714 23.3619 29.1528Z" fill="#06811A"/>
<path d="M19.9734 29.3423C19.7283 29.3423 19.4832 29.3423 19.238 29.3423C19.0814 29.337 18.9327 29.2724 18.8219 29.1615C18.7111 29.0506 18.6465 28.9017 18.6412 28.7449C18.6292 28.6634 18.634 28.5802 18.6552 28.5006C18.6763 28.4209 18.7135 28.3464 18.7643 28.2815C18.8152 28.2166 18.8786 28.1628 18.9509 28.1233C19.0232 28.0837 19.1027 28.0593 19.1847 28.0515C19.699 28.0089 20.2159 28.0089 20.7302 28.0515C20.8115 28.0582 20.8906 28.081 20.9631 28.1184C21.0355 28.1559 21.0999 28.2074 21.1524 28.2698C21.2049 28.3323 21.2446 28.4046 21.269 28.4825C21.2935 28.5603 21.3023 28.6423 21.295 28.7236C21.2923 28.8077 21.273 28.8904 21.2383 28.967C21.2036 29.0436 21.1541 29.1126 21.0928 29.1701C21.0314 29.2275 20.9593 29.2723 20.8806 29.3019C20.802 29.3315 20.7182 29.3452 20.6342 29.3423C20.4211 29.3423 20.1973 29.3423 19.9734 29.3423Z" fill="#06811A"/>
<path d="M23.2983 36.4799C23.1321 36.4691 22.974 36.4036 22.8488 36.2936C22.7235 36.1837 22.638 36.0354 22.6055 35.8719C22.5799 35.7084 22.6174 35.5413 22.7105 35.4046C22.8035 35.2679 22.9451 35.1717 23.1065 35.1358C23.7673 34.9758 24.4387 34.8264 25.1102 34.6877C25.2769 34.6456 25.4536 34.6714 25.6014 34.7594C25.7492 34.8473 25.8562 34.9904 25.8989 35.1571C25.9459 35.317 25.9288 35.4889 25.8512 35.6363C25.7735 35.7837 25.6415 35.895 25.4832 35.9465C24.8118 36.1492 24.0763 36.3093 23.2983 36.4799Z" fill="#06811A"/>
<path d="M16.5831 36.4804C15.8477 36.2991 15.1122 36.139 14.4514 35.9257C14.3743 35.8993 14.3031 35.8579 14.2421 35.8039C14.181 35.7498 14.1312 35.6843 14.0955 35.6109C14.0598 35.5375 14.039 35.4578 14.0343 35.3763C14.0295 35.2949 14.0409 35.2133 14.0677 35.1363C14.1128 34.9783 14.2158 34.8433 14.3561 34.7582C14.4965 34.6731 14.6638 34.6443 14.8245 34.6775L16.8389 35.1256C16.9985 35.1634 17.1392 35.2576 17.2351 35.3908C17.3311 35.5241 17.3758 35.6874 17.3611 35.851C17.3281 36.0317 17.2314 36.1946 17.0886 36.3101C16.9459 36.4255 16.7665 36.486 16.5831 36.4804Z" fill="#06811A"/>
<path d="M19.9637 36.6828C19.7293 36.6828 19.4948 36.6828 19.271 36.6828C19.106 36.6828 18.9477 36.618 18.83 36.5022C18.7124 36.3865 18.6449 36.2291 18.6421 36.0641C18.6363 35.98 18.6472 35.8955 18.6741 35.8157C18.701 35.7358 18.7434 35.662 18.7988 35.5986C18.8543 35.5351 18.9217 35.4833 18.9973 35.446C19.0728 35.4087 19.1549 35.3867 19.239 35.3813C19.7147 35.3547 20.1915 35.3547 20.6672 35.3813C20.7549 35.3854 20.841 35.4069 20.9204 35.4447C20.9997 35.4824 21.0707 35.5356 21.1293 35.6012C21.1878 35.6668 21.2327 35.7434 21.2614 35.8265C21.29 35.9096 21.3018 35.9976 21.296 36.0854C21.2877 36.2561 21.2126 36.4167 21.087 36.5325C20.9613 36.6483 20.7952 36.71 20.6246 36.7041L19.9637 36.6828Z" fill="#06811A"/>
<path d="M5.96668 11.8387C5.22061 11.6467 4.45322 11.4867 3.71781 11.2626C3.64157 11.2393 3.57112 11.2 3.51113 11.1474C3.45113 11.0948 3.40294 11.0302 3.36972 10.9576C3.3365 10.885 3.319 10.8063 3.31838 10.7264C3.31775 10.6466 3.33401 10.5676 3.36609 10.4945C3.37894 10.4194 3.40658 10.3475 3.44739 10.2831C3.4882 10.2187 3.54138 10.1631 3.60384 10.1194C3.6663 10.0757 3.73679 10.0449 3.81124 10.0287C3.8857 10.0126 3.96262 10.0113 4.03754 10.0251C4.77296 10.1638 5.50838 10.3238 6.23314 10.5265C6.30965 10.547 6.3811 10.5831 6.44304 10.6326C6.50498 10.682 6.55607 10.7437 6.59309 10.8138C6.6301 10.8839 6.65227 10.9609 6.65819 11.04C6.66411 11.119 6.65365 11.1985 6.62748 11.2733C6.59486 11.4272 6.51241 11.566 6.39294 11.6683C6.27346 11.7705 6.12364 11.8304 5.96668 11.8387Z" fill="#06811A"/>
<path d="M9.32354 12.0631C9.07841 12.0631 8.83327 12.0631 8.58813 12.0631C8.42319 12.0522 8.26858 11.9789 8.15573 11.858C8.04287 11.7371 7.98027 11.5778 7.98062 11.4123C7.97713 11.2541 8.03331 11.1003 8.138 10.9817C8.24269 10.8631 8.38819 10.7883 8.5455 10.7722C9.05997 10.7348 9.57647 10.7348 10.0909 10.7722C10.1705 10.776 10.2484 10.7962 10.3198 10.8316C10.3911 10.8671 10.4543 10.917 10.5054 10.9781C10.5565 11.0393 10.5944 11.1104 10.6166 11.187C10.6388 11.2636 10.6449 11.3439 10.6345 11.423C10.6378 11.5801 10.5812 11.7325 10.4763 11.8494C10.3714 11.9663 10.226 12.0389 10.0696 12.0524H9.32354V12.0631Z" fill="#06811A"/>
<path d="M33.9547 11.8289C33.7936 11.821 33.6396 11.7603 33.5163 11.6562C33.3931 11.5521 33.3074 11.4104 33.2726 11.2528C33.2371 11.0903 33.2662 10.9204 33.3537 10.779C33.4413 10.6376 33.5803 10.5359 33.7415 10.4953C34.4236 10.3247 35.1164 10.1753 35.8198 10.0366C35.9752 10.0013 36.1383 10.0284 36.2738 10.1122C36.4094 10.196 36.5066 10.3298 36.5446 10.4847C36.5734 10.5617 36.5865 10.6436 36.5833 10.7258C36.58 10.8079 36.5605 10.8886 36.5258 10.9631C36.491 11.0375 36.4418 11.1044 36.381 11.1596C36.3202 11.2148 36.249 11.2574 36.1716 11.2848C35.4681 11.4875 34.7221 11.6475 33.9547 11.8289Z" fill="#06811A"/>
<path d="M30.672 12.0622C30.3949 12.0622 30.1498 12.0622 29.9046 12.0622C29.7524 12.0448 29.6113 11.9742 29.506 11.8629C29.4008 11.7515 29.3381 11.6065 29.3292 11.4535C29.3203 11.3005 29.3657 11.1492 29.4573 11.0263C29.5489 10.9035 29.6809 10.817 29.83 10.782C30.3692 10.7393 30.9109 10.7393 31.45 10.782C31.526 10.7884 31.5999 10.8104 31.667 10.8467C31.734 10.8829 31.7929 10.9326 31.84 10.9927C31.887 11.0528 31.9211 11.1219 31.9402 11.1958C31.9593 11.2697 31.963 11.3467 31.951 11.4221C31.9572 11.5737 31.9057 11.722 31.8067 11.8369C31.7077 11.9518 31.5688 12.0247 31.4181 12.0408C31.1623 12.0515 30.8958 12.0408 30.672 12.0622Z" fill="#06811A"/>
<path d="M33.9549 19.1552C33.7884 19.1505 33.6287 19.0885 33.5025 18.9797C33.3763 18.8709 33.2914 18.7219 33.2621 18.5578C33.2301 18.3954 33.2621 18.2269 33.3516 18.0877C33.441 17.9484 33.5808 17.8493 33.7417 17.811C34.4523 17.6546 35.1344 17.5052 35.7881 17.363C35.949 17.3271 36.1175 17.3548 36.2585 17.4402C36.3995 17.5257 36.5021 17.6624 36.5448 17.8217C36.5952 17.9802 36.5808 18.1521 36.505 18.3C36.4291 18.4479 36.2978 18.5598 36.1398 18.6112C35.4683 18.8458 34.7329 18.9845 33.9549 19.1552Z" fill="#06811A"/>
<path d="M5.93559 19.1556C5.20018 18.9742 4.47542 18.8142 3.75067 18.6115C3.59409 18.5559 3.46585 18.4406 3.39396 18.2906C3.32206 18.1407 3.31237 17.9684 3.36698 17.8114C3.40965 17.6548 3.51108 17.5208 3.6501 17.4374C3.78911 17.3539 3.95496 17.3273 4.11304 17.3633C4.80582 17.502 5.48794 17.6514 6.1594 17.822C6.32171 17.8578 6.46327 17.9564 6.55315 18.0964C6.64302 18.2363 6.67389 18.4062 6.63902 18.5688C6.60532 18.7318 6.51743 18.8786 6.38967 18.9851C6.26191 19.0917 6.10185 19.1518 5.93559 19.1556Z" fill="#06811A"/>
<path d="M5.93507 26.4835C5.21032 26.3022 4.4749 26.1421 3.75015 25.9395C3.66972 25.9109 3.5958 25.8666 3.53276 25.809C3.46972 25.7515 3.41883 25.6819 3.38307 25.6043C3.34732 25.5268 3.32743 25.4429 3.32458 25.3575C3.32172 25.2722 3.33596 25.1871 3.36645 25.1073C3.4243 24.9534 3.53651 24.8261 3.68186 24.7494C3.82721 24.6727 3.99559 24.652 4.15515 24.6913L6.12691 25.1287C6.29321 25.1647 6.43921 25.2636 6.53451 25.4047C6.62981 25.5458 6.66705 25.7182 6.63849 25.8861C6.60693 26.0511 6.51997 26.2003 6.39201 26.309C6.26406 26.4176 6.10282 26.4792 5.93507 26.4835Z" fill="#06811A"/>
<path d="M33.9564 26.4942C33.7881 26.4846 33.628 26.4182 33.5022 26.3058C33.3764 26.1935 33.2923 26.0417 33.2637 25.8754C33.235 25.7132 33.27 25.5461 33.3613 25.409C33.4526 25.2718 33.5933 25.1753 33.7539 25.1393C34.4361 24.9793 35.1182 24.8193 35.8003 24.6806C35.9561 24.655 36.116 24.6861 36.2509 24.7683C36.3858 24.8505 36.4869 24.9783 36.5357 25.1287C36.5647 25.205 36.5784 25.2863 36.5759 25.3679C36.5733 25.4496 36.5547 25.5299 36.521 25.6043C36.4873 25.6786 36.4393 25.7456 36.3796 25.8013C36.3199 25.857 36.2498 25.9003 36.1733 25.9288C35.4806 26.1421 34.7345 26.3128 33.9564 26.4942Z" fill="#06811A"/>
</svg>
