<svg width="45" height="40" viewBox="0 0 45 40" fill="none" xmlns="http://www.w3.org/2000/svg">
<path d="M0 24.2318C0.146109 23.3959 0.335423 22.5679 0.5672 21.7511C1.56112 18.8535 3.56451 16.3989 6.22008 14.8251C8.57676 13.3143 11.2823 12.4175 14.0844 12.2184C14.5178 12.187 14.6452 12.0421 14.7217 11.5888C15.0608 8.81849 16.3735 6.25368 18.4308 4.34174C21.0482 1.79946 24.5108 0.282516 28.1752 0.0728395C30.5241 -0.147105 32.8935 0.132439 35.1239 0.892669C37.3543 1.6529 39.3941 2.87619 41.1061 4.48026C43.2709 6.38818 44.6349 9.02721 44.9299 11.8784C44.9446 11.9482 44.9682 12.0159 45 12.0799V13.9688C44.8407 14.7307 44.7323 15.5051 44.5156 16.2544C43.9942 18.0389 43.0704 19.6835 41.8135 21.0648C41.6542 21.2432 41.5463 21.4607 41.5012 21.6944C41.3591 22.4881 41.4073 23.3037 41.6419 24.0757C41.8766 24.8476 42.2911 25.5545 42.8523 26.1396C42.8786 26.176 42.9085 26.2098 42.9415 26.2403C43.0811 26.3597 43.1782 26.5202 43.2183 26.6982C43.2585 26.8762 43.2396 27.0623 43.1646 27.2289C43.0911 27.4044 42.9618 27.5515 42.7963 27.648C42.6307 27.7446 42.4379 27.7853 42.2468 27.7641C39.924 27.744 37.688 26.889 35.9567 25.3589C35.8613 25.268 35.7423 25.2052 35.6128 25.1774C35.4834 25.1496 35.3487 25.1579 35.2238 25.2014C33.8854 25.4785 32.528 25.7115 31.1769 25.9507C30.922 25.9948 30.6607 26.0011 30.4504 26.02C30.24 26.9392 30.119 27.8333 29.8131 28.677C28.5384 32.4548 25.9128 35.0615 22.2993 36.7237C19.0754 38.1849 15.4681 38.6078 11.9877 37.9326C11.1974 37.7941 10.4263 37.5548 9.6424 37.3974C9.54935 37.385 9.45472 37.3908 9.36395 37.4146C9.27318 37.4384 9.18805 37.4796 9.11344 37.5359C7.38013 39.0603 5.15587 39.9282 2.836 39.9852C2.63488 40.0217 2.42718 39.9903 2.24632 39.896C2.06545 39.8018 1.92192 39.6502 1.8388 39.4656C1.75569 39.281 1.73782 39.0742 1.78807 38.8784C1.83832 38.6825 1.95376 38.5091 2.11584 38.3859C2.67685 37.8076 3.09434 37.1085 3.33543 36.3437C3.57651 35.5789 3.63462 34.7693 3.50517 33.9785C3.46224 33.7477 3.36144 33.5313 3.21201 33.3489C1.46612 31.4507 0.367199 29.0591 0.0701038 26.5111C0.0551062 26.4127 0.0316531 26.3159 0 26.2214V24.2318ZM4.69055 37.9641C4.62045 37.92 4.63319 37.9641 4.64594 37.9641L4.81164 37.9263C6.17366 37.5518 7.40577 36.8158 8.37417 35.7982C8.50058 35.6354 8.67687 35.5175 8.87673 35.4618C9.07659 35.4062 9.28929 35.416 9.48308 35.4896C11.0539 36.0537 12.7018 36.3806 14.3712 36.4593C16.3115 36.6341 18.2674 36.4076 20.1142 35.794C21.9609 35.1804 23.658 34.1932 25.097 32.8955C26.1951 31.9601 27.0805 30.8059 27.6954 29.5086C28.3102 28.2114 28.6405 26.8003 28.6645 25.3681C28.6886 23.9358 28.4059 22.5147 27.835 21.198C27.2641 19.8813 26.4179 18.6987 25.3519 17.7277C23.023 15.4705 19.9422 14.1277 16.6846 13.9499C14.5547 13.7388 12.4038 13.9925 10.3841 14.6932C8.36441 15.3939 6.52517 16.5244 4.99646 18.0048C3.94975 18.9415 3.11941 20.0899 2.56188 21.3719C2.00434 22.6539 1.73268 24.0395 1.76533 25.4344C1.84609 27.9636 2.86178 30.3759 4.62045 32.2155C4.87334 32.4719 5.04976 32.7921 5.13029 33.1411C5.27392 33.8623 5.32318 34.5987 5.27687 35.3322C5.13148 36.2197 4.93573 37.0983 4.69055 37.9641ZM25.6451 15.631C26.9824 16.687 28.0916 17.9973 28.9072 19.4844C29.7227 20.9714 30.228 22.605 30.393 24.2885C32.0967 24.2254 33.7811 23.9091 35.3895 23.3503C35.604 23.2586 35.8421 23.2354 36.0707 23.284C36.2992 23.3325 36.5067 23.4504 36.6641 23.6211C37.1614 24.0834 37.6965 24.5046 38.2637 24.8803C38.9202 25.3222 39.6624 25.6245 40.4433 25.7681C40.3275 25.5305 40.2253 25.2867 40.1374 25.0377C39.5001 23.0166 39.3344 21.1529 40.9276 19.327C41.8993 18.2411 42.5993 16.945 42.9713 15.543C43.3432 14.141 43.3767 12.6722 43.069 11.2551C42.5752 8.76708 41.1651 6.54835 39.1113 5.02805C37.1732 3.45014 34.8615 2.38389 32.3927 1.9291C29.9238 1.47431 27.3785 1.64585 24.995 2.42767C23.3929 2.86698 21.8994 3.62759 20.6078 4.6621C19.3162 5.69661 18.254 6.98284 17.4876 8.44065C16.8668 9.5834 16.4976 10.8429 16.4042 12.1366C16.5826 12.1366 16.7228 12.1933 16.863 12.2058C18.8506 12.3604 20.7937 12.868 22.5988 13.7044C22.8494 13.8148 23.121 13.8706 23.3954 13.8681C27.9075 13.8681 32.4196 13.8681 36.9317 13.8681C37.569 13.8681 37.9705 14.2081 37.9769 14.737C37.9833 15.2659 37.5754 15.6059 36.9381 15.6059H25.6451V15.631Z" fill="#C73232"/>
<path d="M15.1607 29.5272H8.04836C7.82803 29.5538 7.60545 29.5 7.4224 29.376C7.23935 29.2519 7.1084 29.0661 7.05416 28.8535C7.02935 28.7366 7.02883 28.616 7.05261 28.499C7.0764 28.382 7.12401 28.2709 7.19254 28.1726C7.26107 28.0743 7.34911 27.9907 7.45131 27.927C7.55351 27.8633 7.66773 27.8208 7.78707 27.802C7.93349 27.7926 8.08038 27.7926 8.22681 27.802H22.5406C22.7624 27.8129 22.9719 27.9057 23.1276 28.0619C23.2834 28.2182 23.3742 28.4265 23.3819 28.6457C23.3871 28.8724 23.3017 29.0919 23.1443 29.2569C22.9868 29.4219 22.77 29.519 22.5406 29.5272C22.1136 29.5272 21.6867 29.5272 21.266 29.5272H15.1607Z" fill="#C73232"/>
<path d="M16.9386 24.3213H11.5789C10.9416 24.3213 10.5464 23.975 10.5528 23.4461C10.5592 22.9173 10.9543 22.5961 11.598 22.5898H22.3047C22.9802 22.5898 23.3817 22.9235 23.3817 23.465C23.3817 24.0065 22.9675 24.3213 22.2919 24.3276L16.9386 24.3213Z" fill="#C73232"/>
<path d="M7.88963 22.5828C8.01056 22.5703 8.13279 22.5828 8.24862 22.6193C8.36444 22.6559 8.47134 22.7157 8.56255 22.7952C8.65377 22.8746 8.72733 22.9718 8.77858 23.0808C8.82983 23.1897 8.85766 23.308 8.86031 23.4281C8.86296 23.5482 8.84038 23.6675 8.79399 23.7785C8.7476 23.8896 8.67841 23.9899 8.59078 24.0732C8.50316 24.1565 8.399 24.2209 8.2849 24.2624C8.1708 24.3039 8.04923 24.3216 7.92787 24.3143C7.70754 24.3011 7.50028 24.2066 7.34725 24.0494C7.19421 23.8923 7.10659 23.684 7.10177 23.466C7.09696 23.2479 7.1753 23.0361 7.32125 22.8725C7.4672 22.7089 7.67009 22.6055 7.88963 22.5828Z" fill="#C73232"/>
<path d="M31.5535 8.6856C33.3379 8.6856 35.1287 8.6856 36.9132 8.6856C37.1849 8.67261 37.4522 8.75763 37.6652 8.92485C37.8486 9.16981 37.9388 9.47074 37.9201 9.77486C37.8955 9.9428 37.8129 10.0972 37.6863 10.2119C37.5597 10.3266 37.3969 10.3946 37.2255 10.4045C37.0941 10.4172 36.9617 10.4172 36.8303 10.4045H26.079C25.9582 10.4114 25.8373 10.3937 25.7238 10.3523C25.6102 10.311 25.5065 10.247 25.4192 10.1642C25.3319 10.0815 25.2628 9.98183 25.2162 9.8715C25.1696 9.76117 25.1466 9.64254 25.1486 9.52301C25.1501 9.40699 25.1754 9.29247 25.2228 9.18631C25.2702 9.08015 25.3388 8.98454 25.4244 8.90518C25.5101 8.82582 25.6111 8.76436 25.7214 8.72446C25.8317 8.68457 25.949 8.66707 26.0663 8.67301C26.8565 8.67301 27.6468 8.67301 28.437 8.67301L31.5535 8.6856Z" fill="#C73232"/>
<path d="M23.3834 9.5988C23.3877 9.71833 23.3669 9.83744 23.3224 9.94868C23.2779 10.0599 23.2107 10.1609 23.1249 10.2453C23.0391 10.3296 22.9366 10.3956 22.8238 10.439C22.711 10.4824 22.5903 10.5024 22.4693 10.4976C22.3484 10.4928 22.2297 10.4634 22.1208 10.4112C22.0118 10.359 21.915 10.2852 21.8363 10.1943C21.7576 10.1035 21.6987 9.9975 21.6633 9.88311C21.628 9.76872 21.6169 9.64835 21.6308 9.52954C21.6365 9.41456 21.6652 9.30182 21.715 9.19779C21.7649 9.09375 21.8351 9.00046 21.9215 8.92325C22.008 8.84605 22.1089 8.78645 22.2187 8.74787C22.3285 8.70929 22.4449 8.69249 22.5613 8.69843C22.7889 8.71609 23.001 8.81928 23.1539 8.98677C23.3069 9.15426 23.389 9.3733 23.3834 9.5988Z" fill="#C73232"/>
</svg>
