<svg width="40" height="40" viewBox="0 0 40 40" fill="none" xmlns="http://www.w3.org/2000/svg">
<path d="M31.2244 39.9648L30.1699 39.73C29.1402 39.4872 28.1693 39.0405 27.3145 38.4161C26.4596 37.7917 25.738 37.0023 25.1922 36.0943C24.6463 35.1863 24.2872 34.178 24.136 33.1289C23.9848 32.0797 24.0446 31.0109 24.3117 29.9852L24.4523 29.4921C24.6515 28.9285 24.6515 28.9285 24.1477 28.6585L17.9263 25.3241L17.5514 25.1128C17.2585 25.4768 17.0007 25.8407 16.6961 26.1812C15.6315 27.4062 14.2719 28.3379 12.7466 28.8877C11.2213 29.4376 9.58094 29.5872 7.98161 29.3224C6.38228 29.0577 4.87712 28.3873 3.60931 27.3751C2.34149 26.3629 1.35317 25.0426 0.738335 23.5396C0.197355 22.2631 -0.0518527 20.8816 0.00896534 19.4961C0.0697834 18.1106 0.439091 16.7563 1.08983 15.5324C1.12645 15.4271 1.18501 15.3308 1.26163 15.2498C1.33824 15.1689 1.43115 15.1052 1.5342 15.063C1.63725 15.0208 1.74808 15.0011 1.85933 15.0051C1.97057 15.0091 2.0797 15.0368 2.17946 15.0863C2.27764 15.1325 2.36483 15.1993 2.43518 15.2821C2.50553 15.3648 2.55742 15.4617 2.58737 15.5662C2.61733 15.6707 2.62465 15.7804 2.60886 15.888C2.59306 15.9955 2.55451 16.0985 2.4958 16.1899C1.96867 17.2563 1.66182 18.4183 1.59364 19.6064C1.54566 21.0401 1.88573 22.46 2.57781 23.7157C2.87331 22.9579 3.36019 22.2901 3.99073 21.7776C4.62127 21.2651 5.37385 20.9256 6.17474 20.7922C5.94275 20.293 5.75458 19.7744 5.61236 19.2425C5.42161 18.4955 5.4092 17.714 5.57612 16.9613C5.74303 16.2086 6.08459 15.5059 6.57311 14.9102C6.99503 14.4431 7.52129 14.0827 8.10885 13.8585C8.69641 13.6343 9.32858 13.5526 9.95368 13.6202C10.5788 13.6877 11.179 13.9026 11.7054 14.2472C12.2317 14.5918 12.6692 15.0564 12.982 15.6029C13.4026 16.3626 13.6233 17.2172 13.6233 18.086C13.6233 18.9549 13.4026 19.8094 12.982 20.5692L12.8648 20.8157C13.6856 20.94 14.4588 21.2805 15.1051 21.8024C15.7515 22.3243 16.248 23.0089 16.5438 23.7861C17.0302 22.9255 17.3371 21.9749 17.4459 20.9918C17.7273 18.926 17.1836 16.8323 15.9331 15.1659C14.6826 13.4995 12.8262 12.395 10.7676 12.0924C9.23083 11.836 7.65257 12.0572 6.24505 12.7264C6.0693 12.7968 5.91699 12.8908 5.74124 12.9495C5.5581 13.0152 5.35694 13.0094 5.1779 12.9331C4.99885 12.8569 4.85508 12.7158 4.77524 12.538C4.69541 12.3602 4.68538 12.1588 4.74716 11.9739C4.80893 11.7891 4.93798 11.6343 5.10856 11.5406C5.77385 11.2236 6.46342 10.9606 7.17065 10.754C9.03603 10.2469 11.0122 10.3301 12.8286 10.9921C14.645 11.6542 16.2127 12.8628 17.317 14.4523L17.5748 14.781L24.6046 11.0123C24.4406 10.2491 24.2297 9.52119 24.1243 8.78152C23.9672 7.55492 24.1162 6.30843 24.5578 5.15366C24.5767 5.04104 24.6199 4.93389 24.6843 4.83967C24.7487 4.74545 24.8328 4.66641 24.9307 4.60805C25.0287 4.54969 25.1382 4.51341 25.2516 4.50172C25.3649 4.49003 25.4795 4.50322 25.5872 4.54037C25.695 4.57752 25.7934 4.63773 25.8756 4.71684C25.9578 4.79595 26.0219 4.89204 26.0633 4.99844C26.1047 5.10485 26.1225 5.21901 26.1154 5.33299C26.1083 5.44698 26.0766 5.55806 26.0223 5.65851C25.5441 6.93704 25.4825 8.33458 25.8466 9.65034C25.9872 10.1434 26.2098 10.6131 26.409 11.1414C27.5806 9.45075 27.5806 9.45075 29.174 8.79327C28.9121 8.27392 28.7554 7.70768 28.7132 7.12729C28.671 6.54691 28.744 5.96389 28.928 5.41195C29.1615 4.71662 29.6228 4.12085 30.2369 3.72141C30.851 3.32197 31.5819 3.14235 32.3108 3.21172C33.0396 3.28108 33.7237 3.59536 34.2517 4.1035C34.7798 4.61164 35.121 5.28378 35.2197 6.01073C35.4002 6.95944 35.2643 7.94129 34.8331 8.80501C35.4396 8.94583 36.0024 9.23352 36.4722 9.64289C36.942 10.0523 37.3045 10.5708 37.5278 11.1531C37.9444 10.4908 38.2122 9.74571 38.3128 8.96938C38.4499 8.11787 38.413 7.24735 38.2046 6.41052C37.9961 5.57369 37.6204 4.78794 37.1001 4.10084C36.5798 3.41374 35.9258 2.83958 35.1777 2.41311C34.4295 1.98664 33.6028 1.71672 32.7475 1.61971C31.8699 1.50918 30.9788 1.58927 30.1348 1.85453C29.9389 1.924 29.7395 1.98279 29.5373 2.03063C29.3478 2.08229 29.1457 2.05862 28.9732 1.96455C28.8008 1.87048 28.6712 1.71329 28.6117 1.52579C28.5784 1.43334 28.5639 1.33518 28.569 1.23705C28.574 1.13892 28.5985 1.04277 28.641 0.954237C28.6836 0.865702 28.7433 0.786548 28.8167 0.721398C28.8901 0.656248 28.9757 0.60641 29.0686 0.574792C29.6373 0.357099 30.2259 0.195875 30.8261 0.0934285C32.5698 -0.177882 34.354 0.145689 35.8923 1.01223C37.4306 1.87877 38.6337 3.23803 39.3087 4.87188C39.5494 5.54195 39.7413 6.22863 39.8828 6.9265C39.8828 7.04391 39.8828 7.14958 39.9649 7.26698V8.67586C39.9306 8.77162 39.9032 8.86971 39.8828 8.96938C39.6599 10.6158 38.9357 12.1532 37.809 13.3721C36.4905 14.7812 34.7056 15.6618 32.7871 15.8497C30.8686 16.0377 28.9473 15.5201 27.3814 14.3936C26.6316 13.8183 25.9989 13.1021 25.2725 12.4211L18.2426 16.1782C18.766 17.3775 19.0333 18.6732 19.0276 19.9821C19.0269 21.2779 18.7638 22.56 18.2544 23.7509L25.3662 27.5666L25.5185 27.3788C26.344 26.1891 27.484 25.2535 28.8106 24.6769C30.1372 24.1004 31.5979 23.9058 33.0287 24.1149C33.6446 24.2036 34.2493 24.357 34.8331 24.5727C34.9343 24.5988 35.0289 24.6461 35.1105 24.7115C35.1922 24.7769 35.259 24.8589 35.3066 24.9521C35.3543 25.0454 35.3816 25.1477 35.3868 25.2523C35.392 25.3569 35.375 25.4614 35.3369 25.559C35.2677 25.7519 35.1262 25.9101 34.9424 26C34.7586 26.0899 34.547 26.1044 34.3527 26.0403C34.1894 26.0002 34.0289 25.9492 33.8723 25.8877C32.8951 25.5987 31.863 25.5478 30.8622 25.7393C29.8613 25.9307 28.9206 26.3589 28.1182 26.9883C27.3159 27.6177 26.6753 28.4301 26.2495 29.3578C25.8238 30.2854 25.6254 31.3016 25.6708 32.3216C25.706 33.3326 25.9963 34.3181 26.5144 35.1863C26.7409 34.6017 27.1072 34.0819 27.5812 33.6724C28.0551 33.263 28.6223 32.9765 29.2326 32.8382C29.1715 32.7337 29.1205 32.6237 29.0803 32.5094C28.7729 31.8281 28.6626 31.074 28.7621 30.333C28.8615 29.5919 29.1666 28.8938 29.6427 28.318C30.0294 27.8525 30.546 27.5132 31.1263 27.3438C31.7066 27.1744 32.3242 27.1824 32.8999 27.367C33.5108 27.5149 34.0624 27.8458 34.481 28.3156C34.8996 28.7854 35.1655 29.3719 35.2431 29.9969C35.4519 30.9652 35.3108 31.9763 34.8448 32.8499C35.4573 32.9865 36.0268 33.2722 36.5029 33.6817C36.979 34.0913 37.3472 34.6121 37.5747 35.1981L37.727 34.9398C38.1094 34.1978 38.3414 33.3874 38.4098 32.5552C38.4782 31.723 38.3815 30.8855 38.1254 30.0909C38.0435 29.8585 37.9846 29.6186 37.9496 29.3747C37.9302 29.2112 37.9705 29.0462 38.0631 28.9102C38.1558 28.7742 38.2944 28.6764 38.4534 28.635C38.6065 28.5701 38.7776 28.5615 38.9363 28.611C39.095 28.6604 39.2311 28.7646 39.3204 28.9051C39.4076 29.0351 39.4748 29.1776 39.5196 29.3277C39.6837 29.9617 39.836 30.5957 40 31.2414V32.7208C40 32.8499 39.9414 32.9791 39.918 33.0965C39.7073 34.6442 39.0475 36.0957 38.0206 37.2708C36.9937 38.446 35.645 39.2929 34.1418 39.7065L32.8178 40L31.2244 39.9648ZM9.53736 27.9306C11.596 27.9272 13.5719 27.1183 15.0441 25.6764C15.1424 25.5848 15.2013 25.4585 15.2081 25.3241C15.2097 24.7267 15.0287 24.1432 14.6894 23.652C14.35 23.1608 13.8686 22.7856 13.31 22.5768C12.7337 22.3769 12.1471 22.2084 11.5526 22.072C11.4339 22.0377 11.308 22.0377 11.1894 22.072C10.6707 22.3013 10.1101 22.4198 9.54321 22.4198C8.97633 22.4198 8.41568 22.3013 7.89706 22.072C7.75231 22.0253 7.59659 22.0253 7.45184 22.072C6.9949 22.1659 6.54967 22.295 6.10445 22.4242C5.4825 22.5813 4.92818 22.9362 4.52468 23.4358C4.12117 23.9354 3.89026 24.5527 3.86661 25.195C3.86094 25.2803 3.87254 25.3659 3.90073 25.4466C3.92892 25.5273 3.97312 25.6015 4.03065 25.6646C5.5051 27.1046 7.47856 27.9166 9.53736 27.9306ZM31.6814 14.3231C33.2269 14.3789 34.7421 13.8839 35.9578 12.926C36.0769 12.8367 36.1601 12.7076 36.1922 12.562C36.2284 12.0909 36.1078 11.621 35.8491 11.2259C35.5905 10.8307 35.2085 10.5326 34.7628 10.3783C34.4455 10.265 34.1205 10.1748 33.7903 10.1082C33.5827 10.0555 33.3652 10.0555 33.1576 10.1082C32.4912 10.3484 31.762 10.3484 31.0955 10.1082C30.7172 9.97002 30.3023 9.97002 29.9239 10.1082C29.801 10.1504 29.6758 10.1856 29.549 10.2139C29.0686 10.3189 28.6388 10.5861 28.3316 10.9709C28.0244 11.3556 27.8586 11.8345 27.8618 12.3272C27.8483 12.4284 27.863 12.5313 27.9044 12.6246C27.9458 12.7179 28.0121 12.7978 28.0961 12.8555C29.105 13.7145 30.3609 14.2286 31.6814 14.3231ZM32.0446 38.4033C33.4686 38.3913 34.8471 37.8991 35.9578 37.0061C36.0769 36.9168 36.1601 36.7877 36.1922 36.6422C36.2274 36.1635 36.1026 35.6867 35.8374 35.287C35.5722 34.8873 35.1817 34.5875 34.7276 34.4349C34.4201 34.3349 34.1072 34.2526 33.7903 34.1884C33.5827 34.1357 33.3652 34.1357 33.1576 34.1884C32.4942 34.4229 31.7707 34.4229 31.1072 34.1884C30.6962 34.0302 30.2412 34.0302 29.8302 34.1884L29.5255 34.2705C29.0306 34.368 28.5866 34.639 28.2731 35.0349C27.9595 35.4308 27.7971 35.9257 27.8149 36.4308C27.8272 36.6133 27.9065 36.7849 28.0376 36.9122C29.1646 37.8524 30.5783 38.3785 32.0446 38.4033ZM12.0095 18.0684C12.0095 17.8453 12.0095 17.6223 12.0095 17.4109C11.9845 16.849 11.759 16.3148 11.3741 15.9054C10.9893 15.496 10.4705 15.2387 9.91228 15.1802C9.32656 15.0653 8.71916 15.1787 8.21403 15.4972C7.7089 15.8158 7.3441 16.3155 7.19408 16.8943C7.07888 17.4819 7.05124 18.0833 7.11206 18.6789C7.151 19.0725 7.28522 19.4507 7.50308 19.7805C7.72093 20.1103 8.01583 20.3819 8.36217 20.5716C8.70852 20.7614 9.09585 20.8635 9.49053 20.8692C9.88521 20.8749 10.2753 20.784 10.627 20.6044C11.0845 20.3692 11.4609 20.0016 11.7074 19.5494C11.9539 19.0972 12.0592 18.5813 12.0095 18.0684ZM30.2871 6.73865V7.05565C30.2871 7.51027 30.4673 7.94626 30.7881 8.26773C31.1089 8.58919 31.544 8.76979 31.9977 8.76979C32.4514 8.76979 32.8865 8.58919 33.2073 8.26773C33.5281 7.94626 33.7083 7.51027 33.7083 7.05565C33.7083 6.80518 33.7083 6.55862 33.7083 6.31598C33.6908 6.05555 33.6143 5.80256 33.4844 5.57629C33.3545 5.35002 33.1748 5.15646 32.959 5.01037C32.7431 4.86427 32.4968 4.76951 32.2388 4.7333C31.9809 4.6971 31.7181 4.7204 31.4705 4.80143C31.0816 4.93604 30.7513 5.20138 30.5356 5.55238C30.3199 5.90338 30.2321 6.31839 30.2871 6.7269V6.73865ZM30.2871 30.8188V31.124C30.2871 31.5787 30.4673 32.0147 30.7881 32.3361C31.1089 32.6576 31.544 32.8382 31.9977 32.8382C32.4514 32.8382 32.8865 32.6576 33.2073 32.3361C33.5281 32.0147 33.7083 31.5787 33.7083 31.124C33.7258 30.8778 33.7258 30.6306 33.7083 30.3844C33.6901 30.1207 33.6116 29.8648 33.4791 29.6363C33.3465 29.4078 33.1634 29.2129 32.9438 29.0666C32.7241 28.9202 32.4739 28.8264 32.2124 28.7923C31.9508 28.7582 31.685 28.7847 31.4353 28.8698C31.0534 29.0148 30.7318 29.2854 30.5233 29.6373C30.3147 29.9892 30.2314 30.4016 30.2871 30.807V30.8188Z" fill="#C400D6"/>
<path d="M3.39848 12.982C3.55211 12.9894 3.70004 13.0426 3.82336 13.1347C3.94667 13.2269 4.03976 13.3537 4.09074 13.4991C4.14173 13.6446 4.14827 13.8019 4.10954 13.9511C4.07082 14.1002 3.98859 14.2344 3.87335 14.3365C3.75812 14.4386 3.61512 14.504 3.46263 14.5242C3.31015 14.5444 3.15512 14.5186 3.01735 14.4501C2.87958 14.3815 2.76533 14.2734 2.68921 14.1395C2.6131 14.0055 2.57857 13.8519 2.59005 13.6982C2.59601 13.5979 2.62168 13.4998 2.66558 13.4095C2.70948 13.3191 2.77073 13.2384 2.84584 13.1719C2.92095 13.1053 3.00844 13.0543 3.10327 13.0217C3.19811 12.9891 3.29843 12.9756 3.39848 12.982Z" fill="#C400D6"/>
<path d="M26.9256 2.05273C27.1288 2.05864 27.3221 2.14218 27.4659 2.28624C27.6096 2.4303 27.693 2.62397 27.6989 2.82761C27.6903 3.03035 27.6061 3.22248 27.4629 3.36596C27.3197 3.50945 27.1279 3.59386 26.9256 3.6025C26.7224 3.5966 26.5291 3.51306 26.3854 3.369C26.2416 3.22494 26.1582 3.03126 26.1523 2.82761C26.1554 2.62305 26.2378 2.42772 26.3822 2.28305C26.5265 2.13838 26.7215 2.05577 26.9256 2.05273Z" fill="#C400D6"/>
<path d="M37.8552 26.8959C37.8522 27.0985 37.7714 27.2921 37.6295 27.4365C37.4877 27.5808 37.2957 27.6647 37.0936 27.6708C36.9402 27.6731 36.7895 27.6296 36.6608 27.5459C36.5321 27.4622 36.4312 27.342 36.3709 27.2007C36.3105 27.0593 36.2936 26.9031 36.3221 26.752C36.3506 26.601 36.4233 26.4618 36.5309 26.3522C36.6386 26.2427 36.7763 26.1677 36.9267 26.1369C37.077 26.106 37.233 26.1206 37.375 26.1789C37.517 26.2372 37.6385 26.3365 37.724 26.4642C37.8095 26.5919 37.8551 26.7421 37.8552 26.8959Z" fill="#C400D6"/>
</svg>
