<svg width="40" height="56" viewBox="0 0 40 56" fill="none" xmlns="http://www.w3.org/2000/svg">
<path d="M21.0738 0.017665C21.7767 0.114839 22.4881 0.203182 23.191 0.318024C27.4281 1.02605 31.3344 3.13724 34.3327 6.33957C37.3309 9.54191 39.2619 13.6655 39.8404 18.1009C40.3056 22.4095 39.7502 26.7715 38.2229 30.8041C36.2414 36.1651 33.4636 41.1674 29.9914 45.6276C27.4227 49.0654 24.5905 52.2797 21.5227 55.239C21.3419 55.4763 21.112 55.668 20.8503 55.7998C20.5885 55.9316 20.3017 56 20.011 56C19.7204 56 19.4335 55.9316 19.1718 55.7998C18.91 55.668 18.6802 55.4763 18.4994 55.239C13.611 50.5608 9.35464 45.2115 5.84719 39.3378C3.28212 35.2044 1.45987 30.6184 0.46958 25.8041C-0.631347 19.8942 0.14777 14.3199 3.39974 9.28453C6.18635 4.86142 10.5096 1.73882 15.4591 0.574211C16.433 0.335693 17.4493 0.256186 18.4486 0.0971745L18.9651 0L21.0738 0.017665ZM20.0407 51.3962C24.8442 46.6078 28.96 41.1212 32.2609 35.1063C34.1956 31.6351 35.5045 27.8237 36.1227 23.8606C36.7271 20.0568 36.0952 16.1513 34.3273 12.7651C32.7447 9.71587 30.3022 7.24752 27.3302 5.6943C24.3583 4.14108 21.0006 3.57801 17.7118 4.08131C14.1801 4.55482 10.9105 6.27575 8.44706 8.95766C4.34823 13.3747 3.06099 18.6751 4.05182 24.6645C4.77092 28.4924 6.1113 32.1642 8.01517 35.5215C10.8547 40.6318 14.2973 45.3506 18.2622 49.5675C18.8296 50.1771 19.4225 50.7601 20.0407 51.3962Z" fill="#FFB300"/>
<path d="M29.2779 20.901C29.2662 22.8072 28.7139 24.6672 27.6904 26.2465C26.667 27.8259 25.2183 29.0538 23.5269 29.7757C21.8355 30.4975 19.9772 30.681 18.186 30.3029C16.3949 29.9248 14.7511 29.0021 13.4618 27.6511C12.1726 26.3001 11.2955 24.5812 10.9412 22.711C10.587 20.8409 10.7713 18.9032 11.471 17.1422C12.1707 15.3812 13.3544 13.8756 14.8731 12.8152C16.3917 11.7549 18.1773 11.1871 20.0048 11.1836C22.468 11.1953 24.8266 12.2242 26.5645 14.0453C28.3023 15.8664 29.278 18.3314 29.2779 20.901ZM25.5771 20.901C25.5638 19.7583 25.2268 18.6453 24.6087 17.7018C23.9906 16.7583 23.1188 16.0266 22.1031 15.5985C21.0874 15.1704 19.973 15.0652 18.9 15.296C17.8271 15.5268 16.8436 16.0834 16.073 16.8957C15.3025 17.708 14.7794 18.7398 14.5696 19.8614C14.3597 20.983 14.4724 22.1443 14.8935 23.1993C15.3146 24.2542 16.0253 25.1558 16.9362 25.7905C17.8472 26.4253 18.9177 26.7649 20.0132 26.7668C21.4936 26.7482 22.9074 26.1223 23.9487 25.0245C24.99 23.9267 25.575 22.4453 25.5771 20.901Z" fill="#FFB300"/>
</svg>
