<svg width="38" height="38" viewBox="0 0 38 38" fill="none" xmlns="http://www.w3.org/2000/svg">
<path fill-rule="evenodd" clip-rule="evenodd" d="M17.2259 0.0441209C10.7683 0.66697 5.00058 4.57676 2.07781 10.3126C1.04417 12.3412 0.433425 14.2972 0.0992373 16.6493C-0.0488939 17.6923 -0.027403 20.3907 0.138427 21.5536C0.432904 23.6188 1.04223 25.5757 1.97609 27.4556C3.8301 31.1876 6.78611 34.1412 10.5286 36.0008C16.5913 39.0132 23.7564 38.599 29.4113 34.9091C31.6223 33.4663 33.7178 31.3275 35.1483 29.0532C35.692 28.1888 36.5129 26.5084 36.8857 25.4967C37.2614 24.4772 37.6995 22.7079 37.862 21.5536C38.0266 20.3844 38.0488 17.6794 37.9023 16.6493C37.4633 13.5635 36.484 10.9364 34.8582 8.4829C34.1668 7.43947 33.4763 6.59763 32.5142 5.62531C29.5483 2.62773 25.859 0.768623 21.6403 0.145848C20.7307 0.011574 18.1741 -0.0473522 17.2259 0.0441209ZM21.0826 1.68224C26.5865 2.33593 31.4917 5.62517 34.2424 10.5066C35.7462 13.1752 36.6004 16.7362 36.4378 19.6587C36.2309 23.3776 35.0893 26.5856 32.9538 29.4493C32.1903 30.4731 30.4921 32.17 29.4675 32.933C25.2221 36.0941 19.8368 37.1781 14.7618 35.8929C9.85864 34.6513 5.75596 31.3907 3.46372 26.9138C1.54233 23.1612 1.05688 18.8431 2.09246 14.7173C3.22115 10.2205 6.11922 6.36096 10.162 3.9704C13.4293 2.0384 17.2829 1.23097 21.0826 1.68224ZM16.9183 3.27748C10.4753 4.16732 5.24233 8.8054 3.64509 15.0418C3.25617 16.5603 3.2007 17.0536 3.2007 18.99C3.2007 20.4084 3.22947 20.9664 3.3312 21.5164C3.9789 25.0183 5.40839 27.7886 7.80183 30.1803C10.1861 32.5629 13.0012 34.0164 16.4349 34.6378C17.3347 34.8007 19.7188 34.8617 20.7167 34.7475C25.1081 34.2447 29.0945 31.9668 31.6968 28.4731C33.2336 26.4098 34.1719 24.2147 34.6544 21.5536C34.8204 20.6381 34.8825 18.4102 34.7716 17.3488C33.9993 9.95524 28.1446 4.06425 20.748 3.23832C19.8408 3.13704 17.7828 3.15807 16.9183 3.27748ZM18.1825 5.57976C18.1825 6.08803 18.2195 6.45102 18.2881 6.61517C18.3974 6.87651 18.7263 7.1007 19.0005 7.1007C19.2746 7.1007 19.6035 6.87651 19.7128 6.61517C19.7817 6.45021 19.8185 6.08654 19.8185 5.56884V4.77523L20.4519 4.8239C20.8003 4.85065 21.4871 4.95729 21.9782 5.06087C27.4857 6.2229 31.8441 10.5769 32.9831 16.0548C33.107 16.6505 33.2782 17.8242 33.2782 18.0778C33.2782 18.1489 33.0735 18.1726 32.4578 18.1726C31.5125 18.1726 31.1904 18.27 31.015 18.6089C30.8679 18.8932 30.8679 19.0867 31.015 19.371C31.1904 19.7099 31.5125 19.8074 32.4578 19.8074C33.1245 19.8074 33.2782 19.8275 33.2782 19.915C33.2782 19.9742 33.2276 20.4081 33.1658 20.8792C32.7572 23.9933 31.3455 26.8452 29.1036 29.0856C26.8615 31.3259 24.0075 32.7366 20.8911 33.1448C20.4196 33.2066 19.9855 33.2571 19.9262 33.2571C19.8386 33.2571 19.8185 33.1036 19.8185 32.4373C19.8185 31.4927 19.721 31.1709 19.3818 30.9956C19.0973 30.8486 18.9036 30.8486 18.6191 30.9956C18.28 31.1709 18.1825 31.4927 18.1825 32.4373C18.1825 33.0526 18.1588 33.2571 18.0876 33.2571C18.0354 33.2571 17.7091 33.222 17.3625 33.1791C11.8606 32.4986 7.3091 28.8262 5.51175 23.6174C5.19221 22.6913 4.88948 21.2931 4.82389 20.4403L4.77518 19.8074H5.56938C6.48687 19.8074 6.81191 19.7073 6.98592 19.371C7.13301 19.0867 7.13301 18.8932 6.98592 18.6089C6.81251 18.2739 6.48628 18.1726 5.58031 18.1726H4.79712L4.79742 17.8568C4.79831 16.9031 5.28398 14.8895 5.83753 13.5442C7.31632 9.95026 10.2699 7.09364 13.9913 5.65823C15.1007 5.23029 16.9402 4.81647 17.7921 4.80325L18.1825 4.79715V5.57976ZM21.0662 13.6842C18.5599 14.9348 16.4089 16.0344 16.2862 16.128C16.1154 16.2582 15.516 17.3942 13.73 20.9725C11.183 26.0755 11.2603 25.8739 11.6858 26.2992C12.1101 26.7232 11.9301 26.7913 16.7944 24.368C19.2453 23.147 21.3966 22.057 21.5751 21.9457C21.8915 21.7483 21.9571 21.6283 24.2425 17.0579C25.5312 14.4809 26.5855 12.3199 26.5855 12.2557C26.5855 11.8765 26.1192 11.4106 25.7398 11.4106C25.6756 11.4106 23.5724 12.4337 21.0662 13.6842ZM22.2097 17.4027L20.577 20.6619L17.3264 22.2822C15.5386 23.1733 14.0663 23.8922 14.0546 23.8798C14.043 23.8673 14.7746 22.388 15.6804 20.5924L17.3273 17.3278L20.5621 15.7138C22.3412 14.8261 23.8071 14.1096 23.8197 14.1218C23.8323 14.1338 23.1078 15.6103 22.2097 17.4027ZM18.6525 18.2924C18.3615 18.4359 18.1541 18.8401 18.2192 19.1367C18.2795 19.4109 18.5792 19.7104 18.8537 19.7706C19.1582 19.8374 19.5578 19.6278 19.7012 19.326C19.7657 19.1901 19.8185 19.0389 19.8185 18.99C19.8185 18.7676 19.5638 18.3975 19.3367 18.2898C19.0318 18.1452 18.9507 18.1455 18.6525 18.2924Z" fill="#0693E3"/>
</svg>
