<svg width="46" height="46" viewBox="0 0 46 46" fill="none" xmlns="http://www.w3.org/2000/svg">
<path fill-rule="evenodd" clip-rule="evenodd" d="M11.6941 0.207898C11.4998 0.414809 11.4988 0.436281 11.4988 4.28016V8.14443L11.7067 8.33984C11.9135 8.53399 11.9369 8.53516 15.7111 8.53516C18.0157 8.53516 19.5721 8.50057 19.6719 8.4472C19.9562 8.29509 20.0348 7.84399 20.0348 6.36552V4.94141H22.5507H25.0666V12.5283V20.1151L24.5665 19.894C24.2915 19.7724 23.8682 19.5725 23.6261 19.4497C23.3839 19.327 23.1095 19.2266 23.0164 19.2266C22.9233 19.2266 21.8403 19.7057 20.6098 20.2912L18.3726 21.3559L18.3276 19.5368C18.2875 17.9113 18.2645 17.6974 18.1115 17.5287C17.9476 17.3478 17.8579 17.3398 15.9841 17.3398H14.0277L13.8415 17.5766C13.5991 17.8847 13.6065 18.0816 13.872 18.3905L14.0887 18.6426L15.5363 18.6729L16.9837 18.7033L16.9593 20.3749L16.9349 22.0464L14.0774 23.4064C12.5057 24.1544 11.1309 24.8552 11.0224 24.9638L10.8249 25.1613V32.6137V40.0663L11.0495 40.2816C11.3562 40.5756 16.7568 43.125 17.073 43.125C17.3723 43.125 17.6987 42.7636 17.6987 42.4322C17.6987 42.3116 17.6064 42.1308 17.4935 42.0303C17.3807 41.9297 16.1576 41.3118 14.7755 40.6569L12.2625 39.4662L12.2394 32.9851C12.2268 29.4204 12.2327 26.5039 12.2527 26.5039C12.2725 26.5039 14.527 27.5704 17.2625 28.8741L22.2362 31.2442L22.2593 37.7237C22.272 41.2873 22.2674 44.2031 22.2492 44.2031C22.2309 44.2031 21.6177 43.9183 20.8864 43.5703C19.8433 43.0737 19.5018 42.9494 19.3017 42.9934C18.8242 43.0982 18.629 43.6418 18.9341 44.0174C19.104 44.2264 22.7423 46 23.0013 46C23.1394 46 24.3057 45.4594 28.6608 43.3768C29.2785 43.0814 30.8959 42.3133 32.2549 41.6698C33.6139 41.0263 34.8168 40.4164 34.928 40.3143L35.1302 40.1288V35.7112C35.1302 31.3981 35.1259 31.2896 34.9493 31.1298C34.7014 30.9055 34.2666 30.9213 34.0245 31.1632C33.8288 31.3589 33.827 31.3893 33.7824 35.4121L33.7375 39.4639L28.7645 41.8335C26.0294 43.1368 23.7549 44.2031 23.7103 44.2031C23.6626 44.2031 23.629 41.555 23.629 37.7903C23.629 32.7673 23.6533 31.3583 23.7413 31.2887C23.8031 31.2399 25.0464 30.6326 26.5043 29.939C27.9621 29.2455 30.1813 28.1888 31.4359 27.5909C32.6904 26.9931 33.7315 26.5039 33.7496 26.5039C33.7677 26.5039 33.7824 26.983 33.7824 27.5686C33.7824 28.6967 33.8774 29.1476 34.1453 29.2909C34.4096 29.4324 34.7568 29.3928 34.9505 29.1992C35.1192 29.0305 35.1302 28.8998 35.1302 27.0586C35.1302 25.1401 35.1258 25.0937 34.928 24.9117C34.8168 24.8095 34.0488 24.4082 33.2213 24.0201L31.7169 23.3145L31.7163 18.2158L31.7158 13.1172H34.5911H37.4664L37.4692 14.667C37.4723 16.336 37.4994 16.4458 37.9513 16.6176C38.2853 16.7445 45.1835 16.7445 45.5175 16.6176C46.0057 16.432 45.9965 16.513 45.9995 12.393C46.0023 8.66687 45.9978 8.564 45.8192 8.37245C45.6362 8.17596 45.6323 8.17578 41.7344 8.17578C37.8365 8.17578 37.8326 8.17596 37.6496 8.37245C37.4794 8.55501 37.4664 8.68304 37.4664 10.1693V11.7695H34.096C30.8191 11.7695 30.7213 11.7746 30.5692 11.9521C30.4257 12.1197 30.4092 12.5649 30.368 17.388L30.323 22.6413L28.4137 21.7276L26.5043 20.8139V12.6301C26.5043 7.65604 26.4704 4.32786 26.4178 4.14458C26.2596 3.59294 26.3017 3.59977 23.0225 3.59663L20.0348 3.59375V2.16964C20.0348 0.691168 19.9562 0.240062 19.6719 0.087957C19.5721 0.0345898 18.0113 0 15.6985 0H11.8896L11.6941 0.207898ZM18.687 2.91992V4.49219H15.7668H12.8466V2.91992V1.34766H15.7668H18.687V2.91992ZM14.5947 2.46666C14.4734 2.58795 14.3741 2.79189 14.3741 2.91992C14.3741 3.04795 14.4734 3.25189 14.5947 3.37318C14.7996 3.57821 14.8791 3.59375 15.7219 3.59375C16.5647 3.59375 16.6441 3.57821 16.8491 3.37318C17.1303 3.09215 17.1303 2.74769 16.8491 2.46666C16.6441 2.26164 16.5647 2.24609 15.7219 2.24609C14.8791 2.24609 14.7996 2.26164 14.5947 2.46666ZM18.687 6.51367V7.1875H15.7668H12.8466V6.51367V5.83984H15.7668H18.687V6.51367ZM44.6546 11.0957V12.668H41.7344H38.8142V11.0957V9.52344H41.7344H44.6546V11.0957ZM40.5802 10.5862C40.3668 10.8219 40.3887 11.3435 40.6207 11.5535C40.7809 11.6985 40.9512 11.7246 41.7344 11.7246C42.823 11.7246 43.0373 11.6137 43.0373 11.0508C43.0373 10.5034 42.8665 10.4219 41.7188 10.4219C40.874 10.4219 40.7072 10.446 40.5802 10.5862ZM0.180787 13.9428C0.00224906 14.1343 -0.00233346 14.2372 0.00045199 17.9633C0.003507 22.0833 -0.00574792 22.0023 0.482514 22.1879C0.816499 22.3149 7.71471 22.3149 8.04869 22.1879C8.5003 22.0162 8.5277 21.9058 8.53076 20.2446L8.53363 18.7021L10.1417 18.6723C11.9814 18.6383 12.1278 18.5864 12.1278 17.9688C12.1278 17.3743 12.0204 17.3398 10.1664 17.3398H8.53363V15.7396C8.53363 14.2534 8.5206 14.1253 8.35042 13.9428C8.16739 13.7463 8.16353 13.7461 4.2656 13.7461C0.367682 13.7461 0.363818 13.7463 0.180787 13.9428ZM44.6546 14.6895V15.3633H41.7344H38.8142V14.6895V14.0156H41.7344H44.6546V14.6895ZM7.18583 16.666V18.2383H4.2656H1.34537V16.666V15.0938H4.2656H7.18583V16.666ZM3.11144 16.1565C2.89804 16.3923 2.91987 16.9138 3.15187 17.1238C3.31208 17.2688 3.48244 17.2949 4.2656 17.2949C5.35418 17.2949 5.56848 17.1841 5.56848 16.6211C5.56848 16.0737 5.39767 15.9922 4.24997 15.9922C3.40517 15.9922 3.2384 16.0163 3.11144 16.1565ZM7.18583 20.2598V20.9336H4.2656H1.34537V20.2598V19.5859H4.2656H7.18583V20.2598ZM22.2812 25.3883C22.2812 28.0495 22.2485 29.7416 22.1973 29.7233C22.1512 29.7068 21.2627 29.2891 20.2226 28.7949L18.3318 27.8965L18.3309 25.3809L18.3301 22.8652L20.2382 21.9524C21.2878 21.4503 22.1768 21.0359 22.2138 21.0315C22.2508 21.027 22.2812 22.9876 22.2812 25.3883ZM24.4399 21.3391L25.0666 21.6546V25.3809V29.1071L24.4399 29.4227C24.0952 29.5962 23.792 29.7383 23.766 29.7383C23.74 29.7383 23.7188 27.7774 23.7188 25.3809C23.7188 22.9843 23.74 21.0234 23.766 21.0234C23.792 21.0234 24.0952 21.1655 24.4399 21.3391ZM28.481 23.2564L30.323 24.1382V25.3809V26.6235L28.481 27.5053C27.468 27.9903 26.6088 28.3878 26.5717 28.3888C26.5346 28.3898 26.5043 27.0362 26.5043 25.3809C26.5043 23.7255 26.5346 22.3719 26.5717 22.3729C26.6088 22.3739 27.468 22.7714 28.481 23.2564ZM16.9798 25.3786V27.2182L16.7777 27.1392C16.6664 27.0958 15.7913 26.6818 14.8328 26.2192L13.0901 25.3783L15.0118 24.4586C16.0687 23.9529 16.9439 23.5391 16.9567 23.5391C16.9694 23.5391 16.9798 24.3669 16.9798 25.3786ZM32.8585 25.3737C32.8693 25.3827 32.6165 25.519 32.2969 25.6766L31.7158 25.9631V25.3787V24.7943L32.2773 25.0758C32.5863 25.2306 32.8477 25.3646 32.8585 25.3737Z" fill="#EA24B2"/>
</svg>
