<svg width="42" height="50" viewBox="0 0 42 50" fill="none" xmlns="http://www.w3.org/2000/svg">
<path fill-rule="evenodd" clip-rule="evenodd" d="M5.46916 0.117969C5.06737 0.346191 5.03188 0.492187 5.02862 1.92871L5.02547 3.32031H2.84979C0.646794 3.32031 0.391818 3.35605 0.123333 3.70243C0.0296647 3.82323 0.00255 8.8824 8.50329e-05 26.6277C-0.00168974 39.1514 0.0245372 49.4691 0.0581594 49.5561C0.237215 50.0182 -0.521206 49.9999 18.4858 49.9999C31.8359 49.9999 36.3481 49.9715 36.5096 49.8863C36.9504 49.6538 36.9651 49.5691 36.9683 47.2411L36.9715 45.0194H39.0849C41.2195 45.0194 41.6229 44.9657 41.8656 44.6494C41.9695 44.514 41.9943 41.4251 41.9968 28.3211L42 12.1599L35.8613 6.07997L29.7227 0L17.6945 0.00292968C8.83325 0.00517577 5.6144 0.0354491 5.46916 0.117969ZM28.5906 7.22108V12.782L28.8285 13.056L29.0664 13.3301L34.6951 13.3576L40.3238 13.385V28.3722V43.3593H23.5127H6.70165V22.5097V1.66015H17.6461H28.5906V7.22108ZM34.7037 7.27538L39.0905 11.6211H34.6786H30.2667V7.27538C30.2667 4.88524 30.278 2.92968 30.2918 2.92968C30.3056 2.92968 32.291 4.88524 34.7037 7.27538ZM5.02547 24.7015V44.4226L5.26339 44.6966L5.5014 44.9706L20.3983 44.996L35.2953 45.0213V46.6806V48.3398H18.4842H1.67311V26.6601V4.98046H3.34929H5.02547V24.7015ZM10.4398 7.64471C10.0811 7.91747 10.054 8.14559 10.054 10.8897V13.5892L10.3422 13.8747L10.6304 14.1601H13.4337H16.2369L16.4978 13.9207L16.7587 13.6811V10.84V7.99891L16.5167 7.75926L16.2747 7.51952L13.4354 7.52264C11.3592 7.52489 10.5543 7.5577 10.4398 7.64471ZM15.0825 10.8398V12.5H13.4064H11.7302V10.8398V9.17967H13.4064H15.0825V10.8398ZM10.547 15.9423C10.0249 16.2132 9.93628 16.8826 10.3696 17.2824C10.5601 17.4583 10.7151 17.4804 11.7533 17.4804C12.863 17.4804 12.9346 17.4682 13.1643 17.2407C13.4964 16.9119 13.4911 16.4216 13.1522 16.1058C12.9208 15.8903 12.8037 15.8667 11.8457 15.8417C11.1213 15.8228 10.7167 15.8542 10.547 15.9423ZM15.5958 15.9218C15.2918 16.0437 15.0542 16.6128 15.1755 16.9288C15.4001 17.5137 14.7421 17.4804 26.0848 17.4804H36.4516L36.7116 17.223C37.0393 16.8983 37.0474 16.5045 36.7335 16.1431L36.4955 15.8691L26.1588 15.8502C19.9821 15.8388 15.731 15.8677 15.5958 15.9218ZM10.5709 20.9412C10.0277 21.1842 9.91971 21.8396 10.3523 22.268C10.5246 22.4387 10.6836 22.4609 11.7346 22.4609C12.8642 22.4609 12.9342 22.4492 13.1643 22.2211C13.4768 21.9118 13.4793 21.4816 13.1709 21.1264C12.9454 20.8669 12.8919 20.8541 11.9138 20.8263C11.1728 20.8053 10.8038 20.8369 10.5709 20.9412ZM15.6134 20.9399C15.4195 21.0241 15.2665 21.186 15.1986 21.3792C15.0759 21.7276 15.125 21.9273 15.4102 22.2412L15.6099 22.4609H26.0487H36.4874L36.7294 22.2211C37.0429 21.9108 37.0444 21.4816 36.7335 21.1236L36.4956 20.8496L26.2081 20.828C17.6929 20.8102 15.8677 20.8295 15.6134 20.9399ZM10.3523 26.0717C10.0707 26.3506 10.014 26.6907 10.1921 27.0321C10.4093 27.448 10.8611 27.5701 12.0006 27.5207C12.8787 27.4827 12.9544 27.4626 13.1728 27.2111C13.4793 26.8582 13.476 26.4272 13.1643 26.1186C12.9342 25.8906 12.8642 25.8789 11.7346 25.8789C10.6836 25.8789 10.5246 25.901 10.3523 26.0717ZM15.4561 26.012C14.9243 26.4123 15.0917 27.2532 15.7404 27.44C16.0098 27.5175 19.0364 27.5403 26.3067 27.5195L36.4956 27.4902L36.7335 27.2162C37.0444 26.8582 37.0429 26.429 36.7294 26.1186L36.4874 25.8789L26.0561 25.882C17.6544 25.8844 15.592 25.9097 15.4561 26.012ZM10.3696 31.0574C10.0816 31.3231 10.0082 31.6658 10.1684 31.9967C10.3839 32.4418 10.6741 32.5286 11.8457 32.4981C12.8037 32.4731 12.9208 32.4494 13.1522 32.2339C13.4911 31.9182 13.4964 31.4279 13.1643 31.0991C12.9346 30.8715 12.863 30.8593 11.7533 30.8593C10.7151 30.8593 10.5601 30.8815 10.3696 31.0574ZM15.4102 31.079C15.3003 31.1999 15.1821 31.3782 15.1475 31.4751C15.0474 31.7551 15.3221 32.2775 15.6374 32.4065C15.8513 32.4942 18.4383 32.5161 26.2081 32.4966L36.4955 32.4706L36.7335 32.1966C37.0389 31.8451 37.0374 31.4466 36.7297 31.1177L36.4878 30.8593H26.0489H15.6099L15.4102 31.079ZM10.3422 36.1252C10.1685 36.2973 10.054 36.5136 10.054 36.6699C10.054 36.8261 10.1685 37.0424 10.3422 37.2145C10.6247 37.4942 10.6514 37.4999 11.6798 37.4999C12.7265 37.4999 13.0421 37.4245 13.28 37.1178C13.4904 36.8463 13.4289 36.3771 13.1465 36.0972C12.8958 35.8491 12.8457 35.8398 11.7585 35.8398C10.6431 35.8398 10.6272 35.843 10.3422 36.1252ZM15.4134 36.0712C15.2065 36.2476 15.1417 36.3903 15.1417 36.6699C15.1417 36.9494 15.2065 37.0921 15.4134 37.2685L15.6852 37.4999H25.9897C36.6164 37.4999 36.5469 37.5024 36.8451 37.1178C36.9997 36.9184 36.9997 36.4213 36.8451 36.2219C36.5469 35.8373 36.6164 35.8398 25.9897 35.8398H15.6852L15.4134 36.0712Z" fill="#EAD411"/>
</svg>
