<svg width="59" height="72" viewBox="0 0 59 72" fill="none" xmlns="http://www.w3.org/2000/svg">
<path fill-rule="evenodd" clip-rule="evenodd" d="M7.68287 0.169875C7.11845 0.498515 7.06859 0.708749 7.06401 2.77734L7.05958 4.78124H4.00327C0.908591 4.78124 0.550411 4.83271 0.173254 5.33151C0.0416718 5.50546 0.00358215 12.7907 0.000119451 38.3439C-0.00237369 56.378 0.0344689 71.2356 0.0817001 71.3607C0.33323 72.0262 -0.73217 71.9999 25.9681 71.9999C44.7219 71.9999 51.0605 71.9589 51.2873 71.8363C51.9065 71.5015 51.9271 71.3796 51.9317 68.0272L51.9361 64.828H54.905C57.9036 64.828 58.4702 64.7507 58.8112 64.2952C58.9572 64.1001 58.992 59.6522 58.9956 40.7824L59 17.5103L50.3766 8.75515L41.7533 0L24.8566 0.00421874C12.4086 0.00745311 7.88689 0.0510468 7.68287 0.169875ZM40.1629 10.3984V18.4061L40.4972 18.8007L40.8314 19.1953L48.7384 19.2349L56.6454 19.2744V40.856V62.4374H33.0298H9.41422V32.414V2.39062H24.7886H40.1629V10.3984ZM48.7504 10.4765L54.9129 16.7343H48.7152H42.5176V10.4765C42.5176 7.03475 42.5334 4.21874 42.5528 4.21874C42.5721 4.21874 45.3611 7.03475 48.7504 10.4765ZM7.05958 35.5702V63.9685L7.3938 64.3631L7.72816 64.7577L28.6547 64.7943L49.5815 64.8307V67.22V69.6092H25.9659H2.35032V38.3906V7.17186H4.70495H7.05958V35.5702ZM14.6655 11.0084C14.1616 11.4011 14.1235 11.7296 14.1235 15.6812V19.5685L14.5283 19.9795L14.9332 20.3906H18.8711H22.809L23.1755 20.0458L23.542 19.7008V15.6096V11.5184L23.202 11.1733L22.8621 10.8281L18.8736 10.8326C15.9569 10.8358 14.8263 10.8831 14.6655 11.0084ZM21.1874 15.6093V18H18.8327H16.4781V15.6093V13.2187H18.8327H21.1874V15.6093ZM14.816 22.9568C14.0826 23.3469 13.9581 24.3109 14.5668 24.8866C14.8344 25.1399 15.0522 25.1718 16.5105 25.1718C18.0694 25.1718 18.17 25.1542 18.4927 24.8266C18.9592 24.3531 18.9517 23.647 18.4757 23.1924C18.1506 22.882 17.9862 22.848 16.6404 22.812C15.6228 22.7849 15.0544 22.83 14.816 22.9568ZM21.9084 22.9275C21.4813 23.103 21.1476 23.9224 21.318 24.3774C21.6335 25.2198 20.7091 25.1718 36.6429 25.1718H51.2057L51.571 24.8011C52.0314 24.3336 52.0428 23.7664 51.6019 23.2461L51.2675 22.8515L36.7469 22.8242C28.0701 22.8079 22.0983 22.8495 21.9084 22.9275ZM14.8495 30.1553C14.0865 30.5053 13.9348 31.449 14.5425 32.066C14.7846 32.3118 15.0079 32.3437 16.4843 32.3437C18.0711 32.3437 18.1694 32.3268 18.4927 31.9985C18.9316 31.553 18.9352 30.9335 18.502 30.4221C18.1852 30.0483 18.11 30.0298 16.736 29.9899C15.6951 29.9597 15.1768 30.0051 14.8495 30.1553ZM21.9331 30.1535C21.6607 30.2747 21.4458 30.5078 21.3504 30.786C21.1781 31.2877 21.2471 31.5753 21.6476 32.0273L21.9283 32.3437H36.5922H51.2562L51.5961 31.9985C52.0364 31.5515 52.0386 30.9335 51.6019 30.418L51.2677 30.0234L36.8162 29.9923C24.8544 29.9667 22.2903 29.9944 21.9331 30.1535ZM14.5425 37.5433C14.1469 37.9449 14.0672 38.4346 14.3175 38.9262C14.6225 39.5251 15.2573 39.7009 16.858 39.6297C18.0914 39.575 18.1978 39.5462 18.5046 39.184C18.9352 38.6757 18.9305 38.0552 18.4927 37.6108C18.1694 37.2824 18.0711 37.2656 16.4843 37.2656C15.0079 37.2656 14.7846 37.2975 14.5425 37.5433ZM21.7122 37.4572C20.9651 38.0336 21.2003 39.2446 22.1115 39.5136C22.4899 39.6252 26.7415 39.658 36.9547 39.628L51.2677 39.5859L51.6019 39.1913C52.0386 38.6757 52.0364 38.0577 51.5961 37.6108L51.2562 37.2656L36.6026 37.2701C24.8002 37.2736 21.903 37.31 21.7122 37.4572ZM14.5668 44.7226C14.1623 45.1052 14.0591 45.5987 14.2841 46.0753C14.5869 46.7162 14.9946 46.8411 16.6404 46.7972C17.9862 46.7612 18.1506 46.7272 18.4757 46.4168C18.9517 45.9622 18.9592 45.2561 18.4927 44.7826C18.17 44.455 18.0694 44.4374 16.5105 44.4374C15.0522 44.4374 14.8344 44.4693 14.5668 44.7226ZM21.6476 44.7538C21.4933 44.9279 21.3273 45.1846 21.2787 45.3242C21.1381 45.7274 21.5239 46.4796 21.9668 46.6653C22.2673 46.7916 25.9015 46.8233 36.8162 46.7951L51.2675 46.7577L51.6019 46.3631C52.0308 45.8569 52.0288 45.2831 51.5965 44.8095L51.2567 44.4374H36.5925H21.9283L21.6476 44.7538ZM14.5283 52.0203C14.2843 52.2681 14.1235 52.5796 14.1235 52.8046C14.1235 53.0296 14.2843 53.3411 14.5283 53.5889C14.9252 53.9916 14.9627 53.9999 16.4073 53.9999C17.8777 53.9999 18.3211 53.8913 18.6552 53.4496C18.9508 53.0587 18.8645 52.383 18.4676 51.98C18.1155 51.6226 18.0452 51.6093 16.5179 51.6093C14.9511 51.6093 14.9286 51.6139 14.5283 52.0203ZM21.6522 51.9426C21.3615 52.1965 21.2705 52.402 21.2705 52.8046C21.2705 53.2072 21.3615 53.4126 21.6522 53.6666L22.0339 53.9999H36.5094C51.4373 53.9999 51.3397 54.0034 51.7585 53.4496C51.9757 53.1625 51.9757 52.4467 51.7585 52.1595C51.3397 51.6058 51.4373 51.6093 36.5094 51.6093H22.0339L21.6522 51.9426Z" fill="#33CFD9"/>
</svg>
