<svg width="41" height="50" viewBox="0 0 41 50" fill="none" xmlns="http://www.w3.org/2000/svg">
<path fill-rule="evenodd" clip-rule="evenodd" d="M5.33894 0.117969C4.94672 0.346191 4.91207 0.492187 4.90889 1.92871L4.90581 3.32031H2.78193C0.631394 3.32031 0.382489 3.35605 0.120397 3.70243C0.0289584 3.82323 0.00248929 8.8824 8.30083e-05 26.6277C-0.00164951 39.1514 0.023953 49.4691 0.0567746 49.5561C0.231567 50.0182 -0.508796 49.9999 18.0456 49.9999C31.0779 49.9999 35.4827 49.9715 35.6404 49.8863C36.0706 49.6538 36.0849 49.5691 36.0881 47.2411L36.0912 45.0194H38.1543C40.2381 45.0194 40.6318 44.9657 40.8688 44.6494C40.9703 44.514 40.9944 41.4251 40.9969 28.3211L41 12.1599L35.0075 6.07997L29.015 0L17.2732 0.00292968C8.62294 0.00517577 5.48072 0.0354491 5.33894 0.117969ZM27.9098 7.22108V12.782L28.1421 13.056L28.3743 13.3301L33.869 13.3576L39.3637 13.385V28.3722V43.3593H22.9529H6.54208V22.5097V1.66015H17.226H27.9098V7.22108ZM33.8774 7.27538L38.1598 11.6211H33.853H29.5461V7.27538C29.5461 4.88524 29.5571 2.92968 29.5706 2.92968C29.584 2.92968 31.5221 4.88524 33.8774 7.27538ZM4.90581 24.7015V44.4226L5.13807 44.6966L5.37042 44.9706L19.9126 44.996L34.4549 45.0213V46.6806V48.3398H18.0441H1.63327V26.6601V4.98046H3.26954H4.90581V24.7015ZM10.1913 7.64471C9.84109 7.91747 9.81462 8.14559 9.81462 10.8897V13.5892L10.096 13.8747L10.3773 14.1601H13.1138H15.8503L16.105 13.9207L16.3597 13.6811V10.84V7.99891L16.1234 7.75926L15.8872 7.51952L13.1156 7.52264C11.0887 7.52489 10.303 7.5577 10.1913 7.64471ZM14.7234 10.8398V12.5H13.0872H11.4509V10.8398V9.17967H13.0872H14.7234V10.8398ZM10.2959 15.9423C9.78623 16.2132 9.6997 16.8826 10.1227 17.2824C10.3087 17.4583 10.46 17.4804 11.4734 17.4804C12.5567 17.4804 12.6266 17.4682 12.8509 17.2407C13.175 16.9119 13.1698 16.4216 12.839 16.1058C12.6131 15.8903 12.4989 15.8667 11.5637 15.8417C10.8565 15.8228 10.4615 15.8542 10.2959 15.9423ZM15.2245 15.9218C14.9277 16.0437 14.6958 16.6128 14.8142 16.9288C15.0335 17.5137 14.3911 17.4804 25.4637 17.4804H35.5837L35.8375 17.223C36.1574 16.8983 36.1653 16.5045 35.8589 16.1431L35.6266 15.8691L25.536 15.8502C19.5063 15.8388 15.3565 15.8677 15.2245 15.9218ZM10.3192 20.9412C9.78892 21.1842 9.68353 21.8396 10.1058 22.268C10.274 22.4387 10.4292 22.4609 11.4552 22.4609C12.5579 22.4609 12.6262 22.4492 12.8509 22.2211C13.1559 21.9118 13.1584 21.4816 12.8573 21.1264C12.6372 20.8669 12.5849 20.8541 11.6301 20.8263C10.9068 20.8053 10.5466 20.8369 10.3192 20.9412ZM15.2416 20.9399C15.0523 21.0241 14.903 21.186 14.8367 21.3792C14.717 21.7276 14.7649 21.9273 15.0433 22.2412L15.2383 22.4609H25.4285H35.6187L35.8549 22.2211C36.1609 21.9108 36.1624 21.4816 35.8589 21.1236L35.6267 20.8496L25.5841 20.828C17.2717 20.8102 15.4899 20.8295 15.2416 20.9399ZM10.1058 26.0717C9.83089 26.3506 9.77554 26.6907 9.94947 27.0321C10.1614 27.448 10.6025 27.5701 11.7149 27.5207C12.572 27.4827 12.6459 27.4626 12.8591 27.2111C13.1584 26.8582 13.1551 26.4272 12.8509 26.1186C12.6262 25.8906 12.5579 25.8789 11.4552 25.8789C10.4292 25.8789 10.274 25.901 10.1058 26.0717ZM15.0881 26.012C14.5689 26.4123 14.7324 27.2532 15.3656 27.44C15.6286 27.5175 18.5831 27.5403 25.6804 27.5195L35.6267 27.4902L35.8589 27.2162C36.1624 26.8582 36.1609 26.429 35.8549 26.1186L35.6187 25.8789L25.4357 25.882C17.234 25.8844 15.2208 25.9097 15.0881 26.012ZM10.1227 31.0574C9.84157 31.3231 9.76987 31.6658 9.92627 31.9967C10.1367 32.4418 10.4199 32.5286 11.5637 32.4981C12.4989 32.4731 12.6131 32.4494 12.839 32.2339C13.1698 31.9182 13.175 31.4279 12.8509 31.0991C12.6266 30.8715 12.5567 30.8593 11.4734 30.8593C10.46 30.8593 10.3087 30.8815 10.1227 31.0574ZM15.0433 31.079C14.936 31.1999 14.8206 31.3782 14.7869 31.4751C14.6892 31.7551 14.9573 32.2775 15.265 32.4065C15.4739 32.4942 17.9993 32.5161 25.5841 32.4966L35.6266 32.4706L35.8589 32.1966C36.157 31.8451 36.1556 31.4466 35.8552 31.1177L35.6191 30.8593H25.4287H15.2383L15.0433 31.079ZM10.096 36.1252C9.92637 36.2973 9.81462 36.5136 9.81462 36.6699C9.81462 36.8261 9.92637 37.0424 10.096 37.2145C10.3717 37.4942 10.3978 37.4999 11.4017 37.4999C12.4235 37.4999 12.7316 37.4245 12.9638 37.1178C13.1692 36.8463 13.1092 36.3771 12.8334 36.0972C12.5888 35.8491 12.5399 35.8398 11.4785 35.8398C10.3897 35.8398 10.3741 35.843 10.096 36.1252ZM15.0465 36.0712C14.8444 36.2476 14.7812 36.3903 14.7812 36.6699C14.7812 36.9494 14.8444 37.0921 15.0465 37.2685L15.3117 37.4999H25.3709C35.7446 37.4999 35.6767 37.5024 35.9678 37.1178C36.1187 36.9184 36.1187 36.4213 35.9678 36.2219C35.6767 35.8373 35.7446 35.8398 25.3709 35.8398H15.3117L15.0465 36.0712Z" fill="black"/>
</svg>
