<svg width="50" height="50" viewBox="0 0 50 50" fill="none" xmlns="http://www.w3.org/2000/svg">
<path fill-rule="evenodd" clip-rule="evenodd" d="M21.4256 0.115312C21.1827 0.253046 21.6344 -0.1627 9.63698 10.9676C3.25319 16.89 0.331856 19.6627 0.212566 19.9121C-0.258923 20.8983 0.0764581 22.0579 0.995579 22.6192L1.47646 22.9129L3.85277 22.945L6.229 22.9771L6.25628 30.7164L6.28356 38.4558L6.51402 39.027C6.95217 40.1132 7.91519 41.0428 9.04102 41.4666C9.58418 41.6711 9.77641 41.6813 13.617 41.7123C18.0442 41.748 18.2445 41.7278 18.5591 41.212C18.7882 40.8364 18.8002 40.5465 18.6027 40.1645C18.3265 39.6306 18.3437 39.6326 13.8452 39.5799L9.67335 39.5311L9.24958 39.2335C9.01647 39.0698 8.7158 38.7398 8.58136 38.5003L8.33691 38.0647L8.28802 29.7462C8.23561 20.8354 8.26162 21.2659 7.75826 20.9769C7.62 20.8976 6.68543 20.8444 4.84699 20.8112L2.1393 20.7623L5.67205 17.4876C7.61511 15.6865 12.0381 11.5846 15.501 8.37207C18.9638 5.15969 21.8363 2.53129 21.884 2.53129C21.9318 2.53129 23.5248 3.97199 25.4241 5.73273C27.3232 7.49356 29.0836 9.12106 29.3361 9.34961C29.7269 9.70348 29.857 9.76477 30.2128 9.76291C30.6547 9.76057 30.9692 9.5762 31.1568 9.20943C31.2285 9.06925 31.266 8.1706 31.266 6.59452V4.19311H33.3683H35.4705V9.59155V14.99L36.3261 15.825C38.3746 17.8243 39.7456 19.0302 40.0449 19.0958C40.4299 19.1804 40.9658 18.9403 41.1468 18.6023C41.219 18.4675 41.2735 18.2007 41.2681 18.0095C41.2565 17.599 41.1628 17.495 39.015 15.5058L37.5239 14.1248V8.5187C37.5239 2.2959 37.5399 2.45505 36.885 2.18143C36.4135 1.98446 30.3384 1.97811 29.8696 2.174C29.2854 2.41809 29.2661 2.48672 29.2127 4.50836L29.1638 6.35825L25.9371 3.36064C24.1624 1.71192 22.5784 0.279147 22.4171 0.176701C22.0829 -0.0355223 21.73 -0.0573214 21.4256 0.115312ZM34.2972 23.0997C28.3623 24.1548 23.8823 28.7648 23.045 34.6783C22.8975 35.7197 22.978 38.2074 23.191 39.1889C23.753 41.7798 24.9401 43.9972 26.7746 45.8821C28.7449 47.9068 30.994 49.1529 33.7874 49.7679C35.2029 50.0795 37.7648 50.077 39.1745 49.7626C41.965 49.1403 44.0821 47.9909 46.0363 46.0373C47.9904 44.0836 49.1401 41.9671 49.7626 39.1773C50.077 37.768 50.0795 35.2067 49.7679 33.7915C49.4732 32.4543 49.1228 31.4772 48.5198 30.3127C47.7981 28.919 47.0499 27.9174 45.881 26.7806C44.0133 24.9638 41.8236 23.7851 39.235 23.2027C38.287 22.9894 35.2715 22.9265 34.2972 23.0997ZM38.9906 25.2958C43.1824 26.252 46.5325 29.5125 47.5965 33.6712C48.5885 37.5492 47.4338 41.7087 44.5702 44.5716C40.6294 48.5113 34.6197 49.0568 29.9462 45.8989C28.5666 44.9667 26.991 43.1458 26.1949 41.5636C25.2493 39.6841 24.8351 37.2433 25.1022 35.1229C25.742 30.0404 29.6376 25.9827 34.6673 25.1594C35.7931 24.9751 37.8724 25.0407 38.9906 25.2958ZM35.9424 28.3046C35.5766 28.5391 35.4705 28.831 35.4705 29.6028V30.2715L35.1528 30.3322C34.1789 30.5181 33.1479 31.3403 32.6738 32.3092C32.1403 33.3993 32.2596 34.9059 32.9603 35.927C33.7024 37.0085 34.8216 37.5271 36.4136 37.5271C37.1383 37.5271 37.417 37.5684 37.7135 37.7196C38.8098 38.2787 38.8098 39.9036 37.7135 40.4627C37.3725 40.6366 37.132 40.6552 35.2206 40.6552C33.4224 40.6552 33.0638 40.6797 32.8295 40.818C32.2967 41.1326 32.1713 41.9123 32.5773 42.3849C32.8088 42.6544 32.8355 42.66 34.1173 42.708L35.4216 42.7569L35.4705 43.5046C35.5252 44.3412 35.6675 44.5838 36.2073 44.762C36.4584 44.8448 36.6051 44.8366 36.8735 44.7245C37.3365 44.5311 37.5239 44.1367 37.5239 43.3553V42.7219L38.0494 42.5692C39.5287 42.1392 40.6528 40.6369 40.6528 39.0896C40.6528 38.0801 40.078 36.8851 39.2938 36.2641C38.5768 35.6964 38.0831 35.5443 36.7332 35.4752C35.3049 35.402 34.9199 35.24 34.5767 34.5674C34.2083 33.8454 34.4418 33.0658 35.1762 32.5661C35.4866 32.355 35.583 32.3462 37.5904 32.3462C39.1763 32.3462 39.7617 32.3126 40.0139 32.2073C40.3578 32.0636 40.6528 31.6313 40.6528 31.2709C40.6528 30.9104 40.3578 30.4782 40.0139 30.3345C39.7953 30.2432 39.3151 30.1956 38.6132 30.1956H37.5453L37.5082 29.4627C37.4765 28.8326 37.4359 28.6947 37.2191 28.4779C36.8936 28.1525 36.3044 28.0726 35.9424 28.3046Z" fill="#B11919"/>
</svg>
