<svg width="46" height="45" viewBox="0 0 46 45" fill="none" xmlns="http://www.w3.org/2000/svg">
<path opacity="0.07" fill-rule="evenodd" clip-rule="evenodd" d="M19.8497 0.241699C19.531 0.399814 19.2691 0.615059 19.0923 0.864141L18.8223 1.24497L18.7773 3.16846C18.741 4.7214 18.7065 5.11638 18.5977 5.21886C18.5235 5.28873 18.1597 5.43226 17.7891 5.53799C16.8791 5.79744 15.2807 6.44071 14.4987 6.86215C14.1467 7.05182 13.7456 7.20703 13.6072 7.20703C13.4042 7.20703 13.1117 6.97052 12.0909 5.98087C11.3386 5.25155 10.6909 4.6996 10.4921 4.61856C10.0151 4.42406 9.32273 4.44516 8.86848 4.66796C8.36481 4.91502 5.02424 8.18297 4.77169 8.67568C4.54394 9.12006 4.52238 9.79734 4.7212 10.264C4.80404 10.4585 5.36825 11.0921 6.11378 11.8281C7.12542 12.8267 7.36719 13.1128 7.36719 13.3114C7.36719 13.4467 7.20852 13.8392 7.01464 14.1835C6.59525 14.9281 5.93121 16.4986 5.67121 17.3606C5.36125 18.388 5.52827 18.3184 3.2492 18.3691L1.27264 18.4131L0.883344 18.6773C0.628727 18.8502 0.408699 19.1064 0.24707 19.4182L0 19.8948V22.5V25.1052L0.24707 25.5818C0.408699 25.8936 0.628727 26.1498 0.883344 26.3227L1.27264 26.5869L3.23887 26.6309C4.82632 26.6664 5.23007 26.7002 5.33483 26.8066C5.40626 26.8792 5.55297 27.2351 5.66105 27.5977C5.92627 28.4878 6.58384 30.0515 7.01464 30.8165C7.20852 31.1608 7.36719 31.5533 7.36719 31.6886C7.36719 31.8872 7.12542 32.1733 6.11378 33.1719C5.36825 33.9079 4.80404 34.5415 4.7212 34.736C4.52238 35.2027 4.54394 35.8799 4.77169 36.3243C5.02424 36.817 8.36481 40.085 8.86848 40.332C9.32273 40.5548 10.0151 40.5759 10.4921 40.3814C10.6909 40.3004 11.3386 39.7484 12.0909 39.0191C13.1117 38.0295 13.4042 37.793 13.6072 37.793C13.7456 37.793 14.1467 37.9482 14.4987 38.1379C15.2807 38.5593 16.8791 39.2026 17.7891 39.462C18.1597 39.5677 18.5235 39.7113 18.5977 39.7811C18.7065 39.8836 18.741 40.2786 18.7773 41.8315L18.8223 43.755L19.0923 44.1359C19.2691 44.3849 19.531 44.6002 19.8497 44.7583L20.3369 45H23H25.6631L26.1503 44.7583C26.469 44.6002 26.7309 44.3849 26.9077 44.1359L27.1777 43.755L27.2227 41.8315C27.259 40.2766 27.2934 39.8844 27.4023 39.7843C27.4765 39.7163 27.8403 39.5729 28.2109 39.4658C29.1286 39.2005 30.7249 38.5562 31.5013 38.1379C31.8533 37.9482 32.2544 37.793 32.3928 37.793C32.5958 37.793 32.8883 38.0295 33.9091 39.0191C34.6614 39.7484 35.3091 40.3004 35.5079 40.3814C35.9849 40.5759 36.6773 40.5548 37.1315 40.332C37.6352 40.085 40.9758 36.817 41.2283 36.3243C41.4561 35.8799 41.4776 35.2027 41.2788 34.736C41.196 34.5415 40.6317 33.9079 39.8862 33.1719C38.4528 31.7569 38.452 31.7551 38.9382 30.902C39.372 30.1407 40.0177 28.6287 40.2982 27.7169C40.43 27.2888 40.5955 26.8792 40.6663 26.8066C40.7702 26.7001 41.173 26.6664 42.7611 26.6309L44.7274 26.5869L45.1167 26.3227C45.697 25.9287 46 25.2891 46 24.4578C46 23.8876 45.9737 23.7846 45.7794 23.5947C45.4984 23.3197 45.1539 23.3197 44.8729 23.5947C44.6836 23.7798 44.6523 23.892 44.6523 24.3857C44.6523 25.3092 44.6454 25.3124 42.6084 25.313C40.8331 25.3135 40.4612 25.3666 39.972 25.689C39.5224 25.9855 39.3307 26.3233 38.9582 27.4762C38.7726 28.0506 38.3332 29.094 37.9816 29.7949C36.9145 31.9228 36.9516 32.1148 38.7811 33.9318C39.8513 34.9946 40.0703 35.2561 40.0703 35.4706C40.0703 35.6895 39.7978 35.9955 38.2951 37.4642C36.7982 38.9271 36.4786 39.1992 36.2573 39.1992C36.04 39.1992 35.7685 38.9813 34.6858 37.938C32.8285 36.1483 32.6321 36.112 30.457 37.1559C29.7405 37.4999 28.6739 37.9297 28.0868 38.1113C26.9083 38.4757 26.5629 38.6632 26.2599 39.1031C25.9303 39.5816 25.876 39.9454 25.8755 41.6821C25.875 43.2126 25.8622 43.3426 25.6953 43.5059C25.5242 43.6733 25.3959 43.6816 23 43.6816C20.6041 43.6816 20.4758 43.6733 20.3047 43.5059C20.1378 43.3426 20.125 43.2126 20.1245 41.6821C20.124 39.9454 20.0697 39.5816 19.7401 39.1031C19.4371 38.6632 19.0917 38.4757 17.9132 38.1113C17.3261 37.9297 16.2595 37.4999 15.543 37.1559C13.3679 36.112 13.1715 36.1483 11.3142 37.938C10.2277 38.9849 9.96044 39.1992 9.74113 39.1992C9.51742 39.1992 9.20458 38.9326 7.70329 37.4626C6.20784 35.9982 5.92969 35.6856 5.92969 35.4691C5.92969 35.2565 6.15241 34.9909 7.21895 33.9318C9.04843 32.1148 9.08554 31.9228 8.01838 29.7949C7.66682 29.094 7.22739 28.0506 7.04177 27.4762C6.66928 26.3233 6.47764 25.9855 6.02798 25.689C5.53878 25.3666 5.16691 25.3135 3.3916 25.313C1.82715 25.3125 1.69418 25.2999 1.52734 25.1367C1.35619 24.9693 1.34766 24.8438 1.34766 22.5C1.34766 20.1562 1.35619 20.0307 1.52734 19.8633C1.69418 19.7001 1.82715 19.6875 3.3916 19.687C5.16691 19.6865 5.53878 19.6334 6.02798 19.311C6.47729 19.0147 6.66901 18.6771 7.04285 17.5238C7.22901 16.9494 7.66736 15.906 8.01694 15.2051C9.08186 13.0698 9.04574 12.8826 7.21895 11.0682C6.14873 10.0054 5.92969 9.74391 5.92969 9.52936C5.92969 9.31052 6.20218 9.00448 7.70491 7.53583C9.2018 6.07289 9.52137 5.80078 9.74275 5.80078C9.95999 5.80078 10.2315 6.01866 11.3142 7.06201C13.1688 8.84909 13.3602 8.88442 15.543 7.84266C16.2595 7.50067 17.3261 7.07186 17.9132 6.88975C19.0922 6.52403 19.4372 6.33647 19.7401 5.89693C20.0697 5.41837 20.124 5.05459 20.1245 3.31787C20.125 1.78743 20.1378 1.65735 20.3047 1.49414C20.4758 1.32671 20.6041 1.31836 23 1.31836C25.3959 1.31836 25.5242 1.32671 25.6953 1.49414C25.8622 1.65735 25.875 1.78743 25.8755 3.31787C25.876 5.05459 25.9303 5.41837 26.2599 5.89693C26.5629 6.33683 26.9083 6.5243 28.0868 6.88869C28.6739 7.07027 29.7405 7.50015 30.457 7.84406C32.6321 8.88803 32.8285 8.85173 34.6858 7.06201C35.7723 6.01506 36.0396 5.80078 36.2589 5.80078C36.4826 5.80078 36.7954 6.06735 38.2967 7.53741C39.7922 9.00176 40.0703 9.31438 40.0703 9.53095C40.0703 9.74347 39.8476 10.0091 38.7811 11.0682C36.9516 12.8852 36.9145 13.0772 37.9816 15.2051C38.3332 15.906 38.7726 16.9494 38.9582 17.5238C39.3307 18.6767 39.5224 19.0145 39.972 19.311C40.4612 19.6334 40.8331 19.6865 42.6084 19.687C44.6454 19.6876 44.6523 19.6908 44.6523 20.6143C44.6523 21.108 44.6836 21.2202 44.8729 21.4053C45.1539 21.6803 45.4984 21.6803 45.7794 21.4053C45.9737 21.2154 46 21.1124 46 20.5422C46 19.7109 45.697 19.0713 45.1167 18.6773L44.7274 18.4131L42.7611 18.3691C41.1737 18.3336 40.7699 18.2998 40.6652 18.1934C40.5937 18.1208 40.447 17.7649 40.3389 17.4023C40.0737 16.5122 39.4162 14.9485 38.9854 14.1835C38.7915 13.8392 38.6328 13.4467 38.6328 13.3114C38.6328 13.1128 38.8746 12.8267 39.8862 11.8281C40.6317 11.0921 41.196 10.4585 41.2788 10.264C41.4776 9.79734 41.4561 9.12006 41.2283 8.67568C40.9758 8.18297 37.6352 4.91502 37.1315 4.66796C36.6773 4.44516 35.9849 4.42406 35.5079 4.61856C35.3091 4.6996 34.6614 5.25155 33.9091 5.98087C32.8883 6.97052 32.5958 7.20703 32.3928 7.20703C32.2544 7.20703 31.8533 7.05182 31.5013 6.86215C30.7249 6.44379 29.1286 5.79946 28.2109 5.53421C27.8403 5.42707 27.4765 5.28372 27.4023 5.21569C27.2934 5.11559 27.259 4.72342 27.2227 3.16846L27.1777 1.24497L26.9077 0.864141C26.7309 0.615059 26.469 0.399814 26.1503 0.241699L25.6631 0H23H20.3369L19.8497 0.241699ZM21.0684 10.2576C20.9201 10.2773 20.4058 10.3894 19.9255 10.5065C15.1097 11.6812 11.516 15.4509 10.5445 20.3467C10.3319 21.4184 10.3307 23.5708 10.5421 24.6533C11.2155 28.1014 13.1441 30.9397 16.114 32.8533C20.8728 35.9193 27.1782 35.4452 31.4347 31.7014C33.5245 29.8631 34.8976 27.4565 35.456 24.6533C35.692 23.469 35.6688 21.3376 35.4069 20.127C34.8764 17.6748 33.8084 15.6865 32.0927 13.9569C30.3773 12.2275 28.4771 11.1158 26.2693 10.5498C25.0702 10.2423 24.5413 10.1838 24.2579 10.3271C23.855 10.5309 23.7835 10.9077 24.0783 11.2742C24.221 11.4516 24.3927 11.5196 24.9094 11.6032C25.8866 11.7613 27.1634 12.1835 28.1359 12.67C31.2105 14.2079 33.4389 17.1122 34.1089 20.4543C34.3177 21.4963 34.3177 23.5037 34.1089 24.5457C33.6649 26.7608 32.624 28.6582 30.9595 30.2865C28.7376 32.4601 26.1304 33.52 23 33.5223C19.8867 33.5245 17.258 32.4559 15.0405 30.2865C12.8177 28.1121 11.7338 25.5596 11.7338 22.5C11.7338 19.4404 12.8177 16.8879 15.0405 14.7135C16.7188 13.0717 18.7062 12.0347 20.941 11.6347C21.5948 11.5177 21.7814 11.4485 21.9247 11.2704C22.2183 10.9054 22.1433 10.5301 21.7357 10.3239C21.5959 10.2531 21.4492 10.2012 21.4098 10.2085C21.3702 10.2157 21.2166 10.2379 21.0684 10.2576ZM27.4018 17.6602C26.8258 17.8316 26.398 18.1862 24.2553 20.2686L21.9619 22.4975L20.7065 21.2623C19.1936 19.7737 18.9032 19.5863 18.0266 19.5329C17.4335 19.4969 17.3404 19.5164 16.8008 19.7903C15.5901 20.4049 15.1232 21.7759 15.7247 22.9502C16.0221 23.5309 20.306 27.7166 20.8887 27.9958C21.5248 28.3006 22.0538 28.3521 22.6944 28.1716C23.2153 28.0248 23.2844 27.9641 26.6263 24.7118C30.4082 21.0313 30.4546 20.9736 30.4561 19.9464C30.4572 19.2331 30.1646 18.602 29.6219 18.1477C29.0536 17.6717 28.0808 17.4582 27.4018 17.6602ZM28.5223 19.0214C28.8946 19.1735 29.1094 19.5514 29.1094 20.0539V20.4289L25.8543 23.6177C23.6091 25.8171 22.5081 26.8358 22.3052 26.9013C21.6973 27.0976 21.5645 27.0044 19.2532 24.7613C18.0572 23.6006 17.0117 22.5129 16.9299 22.3442C16.7147 21.9004 16.8099 21.4687 17.2007 21.1157C17.5407 20.8085 17.976 20.738 18.3565 20.9282C18.4644 20.9821 19.2628 21.7138 20.1307 22.5541C21.5457 23.9244 21.7398 24.082 22.011 24.082C22.287 24.082 22.5412 23.8606 24.9253 21.5437C26.3618 20.1477 27.5978 18.9841 27.6719 18.9579C27.9147 18.8722 28.2115 18.8944 28.5223 19.0214Z" fill="black"/>
</svg>
