<svg width="38" height="38" viewBox="0 0 38 38" fill="none" xmlns="http://www.w3.org/2000/svg">
<path d="M19 38C29.4934 38 38 29.4934 38 19C38 8.50661 29.4934 0 19 0C8.50658 0 0 8.50661 0 19C0 29.4934 8.50658 38 19 38Z" fill="url(#paint0_linear_2703_7)"/>
<path fill-rule="evenodd" clip-rule="evenodd" d="M15.0877 9.0602C14.3484 9.22065 13.6417 9.77181 13.3001 10.4544C13.0533 10.9478 13.0016 11.2411 13.0007 12.1551L13 12.9181L12.8795 13.072C12.7163 13.2805 12.6516 13.5052 12.6788 13.7689C12.7062 14.0345 12.7859 14.1968 12.9829 14.3881C13.1306 14.5316 13.4293 14.6636 13.6063 14.6636C13.6812 14.6636 13.7027 14.6947 13.7253 14.8361C13.7639 15.0776 13.9995 15.567 14.1809 15.7824L14.3333 15.9635V16.6418V17.3201L14.0332 17.3497C13.1548 17.4363 12.3023 17.9594 11.8333 18.6998L11.6458 18.9958L11.2548 18.9968C10.7323 18.9983 10.5672 19.0529 10.3111 19.309C10.0245 19.5956 10 19.7023 10 20.6612C10 21.4543 10.0008 21.4613 10.1023 21.5628C10.2376 21.6982 10.4291 21.6982 10.5644 21.5628C10.6658 21.4614 10.6667 21.4541 10.6667 20.6649C10.6667 19.8757 10.6675 19.8684 10.769 19.767L10.8712 19.6647H16H21.1288L21.231 19.767L21.3333 19.8693V22.7676V25.666H16H10.6667V24.9348C10.6667 24.2139 10.6652 24.2021 10.5644 24.1013C10.4999 24.0367 10.4145 23.9989 10.3333 23.9989C10.2522 23.9989 10.1668 24.0367 10.1023 24.1013L10 24.2035V25.3449C10 26.4581 10.014 26.6107 10.1453 26.9266C10.1731 26.9937 10.1362 26.9996 9.69008 26.9996C9.23013 26.9996 9.19917 27.005 9.10229 27.1019C9.00083 27.2033 9 27.2106 9 27.9998C9 28.789 9.00083 28.7962 9.10229 28.8977L9.20454 29H19H28.7955L28.8977 28.8977C28.9992 28.7962 29 28.789 29 27.9998C29 27.2106 28.9992 27.2033 28.8977 27.1019L28.7955 26.9996H27.5675H26.3395L26.4823 26.7256C26.5608 26.575 26.625 26.425 26.625 26.3922C26.625 26.3472 26.687 26.3328 26.8806 26.3328C27.2635 26.3328 27.4494 26.2612 27.6889 26.0216C27.9522 25.7583 28 25.6017 28 25.0029C28 24.5637 27.9941 24.5311 27.8977 24.4347C27.7992 24.3361 27.7748 24.3323 27.231 24.3323H26.6667V24.1013C26.6667 23.9114 26.6484 23.8518 26.5644 23.7679L26.4621 23.6655H24.6667H22.8712L22.769 23.7679L22.6667 23.8701L22.6672 25.0285C22.6677 26.2826 22.691 26.4663 22.894 26.8126L23.0035 26.9996H22.414C21.8687 26.9996 21.8267 26.9941 21.8547 26.9266C21.9982 26.5813 22 26.5345 22 23.1741C22 20.6954 21.9873 19.8187 21.9493 19.6904C21.8817 19.4614 21.5365 19.1162 21.3077 19.0486C21.2133 19.0207 20.9602 18.9974 20.7452 18.9968L20.3542 18.9958L20.1667 18.6998C19.6977 17.9594 18.8453 17.4363 17.9668 17.3497L17.6667 17.3201V16.6521V15.9841L17.8316 15.7703C18.0245 15.5202 18.1896 15.1765 18.2608 14.8766C18.3016 14.7047 18.3281 14.6636 18.3983 14.6636C18.8613 14.6636 19.3333 14.1536 19.3333 13.6534C19.3333 13.4553 19.2265 13.1663 19.1061 13.0389C19.0094 12.9365 19.0068 12.9136 18.9912 12.0381C18.9763 11.197 18.9685 11.1233 18.8656 10.8364C18.707 10.3944 18.5197 10.101 18.1785 9.76006C17.8283 9.41015 17.3643 9.1563 16.8958 9.05824C16.5204 8.97968 15.4535 8.98085 15.0877 9.0602ZM16.8108 9.72638C17.3812 9.875 17.8555 10.2558 18.1067 10.767C18.2926 11.1452 18.3333 11.3822 18.3333 12.0854C18.3333 12.653 18.3317 12.6632 18.2416 12.6632C18.1803 12.6632 17.9823 12.4974 17.6442 12.1631C17.038 11.5637 17.0191 11.5583 16.6308 11.87C16.15 12.256 15.5933 12.5292 15.1069 12.6181C14.971 12.6429 14.5912 12.6632 14.2632 12.6632H13.6667V12.0468C13.6667 11.6349 13.6873 11.3513 13.7288 11.1918C13.9146 10.4783 14.467 9.91788 15.1713 9.72847C15.4865 9.64366 16.4884 9.64241 16.8108 9.72638ZM17.656 13.9343C17.638 14.8184 17.6047 14.9612 17.3332 15.3205C16.9985 15.7635 16.5657 15.9764 16 15.9764C15.4343 15.9764 15.0015 15.7635 14.6668 15.3205C14.4052 14.9743 14.3633 14.808 14.3432 14.0345L14.3252 13.3429L14.7772 13.3175C15.4987 13.277 16.1102 13.0645 16.7083 12.6462L16.9792 12.4568L17.3257 12.7997L17.6722 13.1425L17.656 13.9343ZM13.6667 13.6634C13.6667 13.9364 13.655 13.9968 13.6023 13.9968C13.4901 13.9968 13.3333 13.8025 13.3333 13.6634C13.3333 13.5244 13.4901 13.33 13.6023 13.33C13.655 13.33 13.6667 13.3905 13.6667 13.6634ZM18.5644 13.4323C18.6289 13.4968 18.6667 13.5822 18.6667 13.6634C18.6667 13.8025 18.5099 13.9968 18.3977 13.9968C18.345 13.9968 18.3333 13.9364 18.3333 13.6634C18.3333 13.2897 18.3776 13.2455 18.5644 13.4323ZM15.2747 16.5458C15.4737 16.6186 15.6125 16.6359 16 16.6359C16.3875 16.6359 16.5263 16.6186 16.7253 16.5458C16.8606 16.4962 16.9778 16.4557 16.9857 16.4557C16.9935 16.4557 16.9997 16.676 16.9993 16.9454C16.9985 17.5471 16.9326 17.7018 16.6053 17.8702C16.4255 17.9627 16.3453 17.9768 16 17.9768C15.6548 17.9768 15.5745 17.9627 15.3947 17.8702C15.0674 17.7018 15.0015 17.5471 15.0007 16.9454C15.0003 16.676 15.0065 16.4557 15.0143 16.4557C15.0222 16.4557 15.1394 16.4962 15.2747 16.5458ZM14.6831 18.165C14.9922 18.4914 15.4466 18.6632 16 18.6632C16.5534 18.6632 17.0078 18.4914 17.3169 18.165C17.4651 18.0086 17.4906 17.9977 17.7065 17.9983C18.2665 17.9998 18.8828 18.2622 19.2955 18.675C19.4309 18.8104 19.5417 18.9385 19.5417 18.9595C19.5417 18.9826 18.1191 18.9979 15.9772 18.9979H12.4128L12.5473 18.8303C12.9361 18.3465 13.6364 18.0099 14.2727 18.0011C14.5143 17.9978 14.5309 18.0044 14.6831 18.165ZM23.769 21.1006C23.6675 21.2021 23.6667 21.2094 23.6667 21.9985C23.6667 22.7877 23.6675 22.795 23.769 22.8964C23.8334 22.9609 23.9188 22.9987 24 22.9987C24.0812 22.9987 24.1666 22.9609 24.231 22.8964C24.3325 22.795 24.3333 22.7877 24.3333 21.9985C24.3333 21.2094 24.3325 21.2021 24.231 21.1006C24.1666 21.0361 24.0812 20.9983 24 20.9983C23.9188 20.9983 23.8334 21.0361 23.769 21.1006ZM25.1023 21.1006C25.0008 21.2021 25 21.2094 25 21.9985C25 22.7877 25.0008 22.795 25.1023 22.8964C25.1667 22.9609 25.2522 22.9987 25.3333 22.9987C25.4145 22.9987 25.4999 22.9609 25.5644 22.8964C25.6658 22.795 25.6667 22.7877 25.6667 21.9985C25.6667 21.2094 25.6658 21.2021 25.5644 21.1006C25.4999 21.0361 25.4145 20.9983 25.3333 20.9983C25.2522 20.9983 25.1667 21.0361 25.1023 21.1006ZM15.6667 21.7196C15.4622 21.7841 15.1134 22.1453 15.0507 22.3576C14.9353 22.7483 15.0166 23.0599 15.3111 23.3544C15.7375 23.7809 16.326 23.7719 16.7208 23.3326C17.0801 22.9329 17.0938 22.4289 16.756 22.0342C16.4875 21.7204 16.0578 21.5963 15.6667 21.7196ZM10.1023 22.4342C10.0129 22.5236 10 22.5739 10 22.832C10 23.0902 10.0129 23.1405 10.1023 23.2298C10.1668 23.2943 10.2522 23.3321 10.3333 23.3321C10.4145 23.3321 10.4999 23.2943 10.5644 23.2298C10.6537 23.1405 10.6667 23.0902 10.6667 22.832C10.6667 22.5739 10.6537 22.5236 10.5644 22.4342C10.4999 22.3697 10.4145 22.3319 10.3333 22.3319C10.2522 22.3319 10.1668 22.3697 10.1023 22.4342ZM16.231 22.4342C16.4378 22.6409 16.2913 22.9987 16 22.9987C15.8287 22.9987 15.6667 22.8367 15.6667 22.6653C15.6667 22.494 15.8287 22.3319 16 22.3319C16.0812 22.3319 16.1666 22.3697 16.231 22.4342ZM26 25.2418C26 26.287 25.9696 26.4367 25.7034 26.7029C25.4695 26.9369 25.2504 26.9996 24.6667 26.9996C24.0969 26.9996 23.8698 26.9381 23.6495 26.7241C23.3608 26.4435 23.3556 26.4202 23.341 25.3221L23.3279 24.3323H24.664H26V25.2418ZM27.3333 25.2302C27.3333 25.4201 27.315 25.4797 27.231 25.5637C27.1471 25.6477 27.0875 25.666 26.8977 25.666H26.6667V25.3326V24.9992H27H27.3333V25.2302ZM21.3172 26.4682C21.2861 26.6272 21.1859 26.7731 21.0256 26.8928C20.9109 26.9784 20.8946 26.9787 16 26.9787C11.1054 26.9787 11.0891 26.9784 10.9744 26.8928C10.8141 26.7731 10.7139 26.6272 10.6828 26.4682L10.6562 26.3328H16H21.3438L21.3172 26.4682ZM28.3333 27.9998V28.3332H19H9.66667V27.9998V27.6664H19H28.3333V27.9998Z" fill="black"/>
<defs>
<linearGradient id="paint0_linear_2703_7" x1="-22.0126" y1="46.2182" x2="52.0346" y2="-2.92824" gradientUnits="userSpaceOnUse">
<stop stop-color="#4BB52D"/>
<stop offset="0.284" stop-color="#71C660"/>
<stop offset="0.9306" stop-color="#CFF1E0"/>
<stop offset="1" stop-color="#D9F6EE"/>
</linearGradient>
</defs>
</svg>
