<svg width="38" height="38" viewBox="0 0 38 38" fill="none" xmlns="http://www.w3.org/2000/svg">
<path d="M19 38C29.4934 38 38 29.4934 38 19C38 8.50661 29.4934 0 19 0C8.50659 0 0 8.50661 0 19C0 29.4934 8.50659 38 19 38Z" fill="url(#paint0_linear_2703_4)"/>
<path fill-rule="evenodd" clip-rule="evenodd" d="M17.8821 9.02935C17.5181 9.08287 16.9182 9.29135 16.5877 9.47918C15.7167 9.97431 15.0587 10.8103 14.7568 11.8057L14.6678 12.0991L14.6556 15.7082C14.6453 18.8035 14.6356 19.3172 14.5875 19.3172C14.4364 19.3172 14.0839 19.4935 13.9228 19.6496C13.7688 19.799 13.6974 19.834 13.3628 19.9246C13.1518 19.9817 12.8557 20.0926 12.7047 20.171C12.3564 20.3519 11.9281 20.773 11.7495 21.11C11.5887 21.4133 10.5081 24.7215 10.4482 25.0935C10.3534 25.6827 10.5267 26.3255 10.9233 26.8549L11.0747 27.0571L10.3796 27.0702C9.75453 27.082 9.66835 27.092 9.52389 27.1689C9.337 27.2684 9.12903 27.4918 9.05204 27.6755C8.98265 27.8411 8.98265 28.2419 9.05204 28.4075C9.12896 28.5911 9.33692 28.8145 9.52389 28.9143L9.68451 29H19H28.3155L28.4761 28.9143C28.6631 28.8145 28.871 28.5911 28.948 28.4075C29.0173 28.2419 29.0173 27.8411 28.948 27.6755C28.871 27.4918 28.663 27.2684 28.4761 27.1689C28.3316 27.092 28.2455 27.082 27.6204 27.0702L26.9253 27.0571L27.0767 26.8549C27.4707 26.3288 27.638 25.7181 27.5524 25.1184C27.5 24.7516 26.4229 21.4353 26.2505 21.11C26.0719 20.773 25.6436 20.3519 25.2953 20.171C25.1443 20.0926 24.8482 19.9817 24.6372 19.9246C24.3026 19.834 24.2312 19.799 24.0772 19.6496C23.9155 19.4929 23.5635 19.3172 23.4111 19.3172C23.363 19.3172 23.3538 19.2083 23.3538 18.6413C23.3538 17.8572 23.3328 17.7914 23.083 17.7914C22.8101 17.7914 22.7869 17.8547 22.7727 18.6366L22.7604 19.3172H22.4936C22.1512 19.3172 21.3794 19.1205 21.2515 19.0006C21.1534 18.9087 21.1217 18.7838 21.0155 18.0722L20.9494 17.6293L21.1578 17.4475C21.6275 17.0376 22.1018 16.281 22.2218 15.7503L22.272 15.5283L22.5163 15.5155L22.7607 15.5028L22.7728 16.1541C22.7836 16.7294 22.7937 16.815 22.8597 16.8876C22.9581 16.9958 23.1697 16.997 23.277 16.8899C23.3563 16.8109 23.3571 16.783 23.3446 14.4741C23.3323 12.2098 23.3293 12.1289 23.2461 11.8337C22.8594 10.4628 21.8069 9.44401 20.4024 9.08118C20.1175 9.0076 18.2863 8.96992 17.8821 9.02935ZM20.1988 9.64995C20.8465 9.78328 21.4113 10.1018 21.8882 10.6027C22.2349 10.9669 22.4495 11.3234 22.6123 11.8057C22.7197 12.124 22.7404 12.2494 22.7569 12.6792L22.776 13.1811L21.3685 13.1654C19.7963 13.1478 19.7403 13.1402 19.1765 12.864C18.263 12.4166 17.6714 11.4853 17.6582 10.4741C17.6548 10.2119 17.6685 10.1464 17.7585 9.99305C17.8692 9.80483 18.0326 9.66696 18.2073 9.61438C18.2658 9.59682 18.6578 9.58117 19.0784 9.5796C19.6814 9.57737 19.9186 9.59224 20.1988 9.64995ZM17.1375 9.92607C17.0242 10.2821 17.0586 10.912 17.219 11.4184C17.2929 11.6521 17.3113 11.7733 17.2921 11.901C17.2345 12.284 17.0028 12.4856 16.524 12.5693C16.1417 12.6361 15.9295 12.7618 15.7956 13.0006C15.7118 13.15 15.7004 13.1561 15.4674 13.1752L15.2261 13.195L15.243 12.6862C15.2578 12.2422 15.2761 12.13 15.3866 11.8057C15.6597 11.0037 16.1921 10.3711 16.9408 9.95897C17.1759 9.82952 17.1677 9.83089 17.1375 9.92607ZM18.6784 13.2675C19.0652 13.4985 19.5498 13.6665 19.9866 13.7211C20.1655 13.7435 20.6367 13.7618 21.0336 13.7618H21.7553L21.7352 14.5736C21.721 15.1482 21.6964 15.454 21.6511 15.6201C21.4346 16.4136 20.7967 17.1363 19.928 17.5721C19.1822 17.9462 18.7875 17.9354 17.9886 17.5188C17.3415 17.1814 16.8318 16.6889 16.5498 16.1287C16.3133 15.6588 16.2854 15.4919 16.2645 14.4176C16.2541 13.8853 16.2566 13.4061 16.2701 13.3527C16.3019 13.2261 16.4024 13.1759 16.7108 13.1323C16.8496 13.1127 17.0467 13.0545 17.1489 13.0028C17.3346 12.9089 17.7056 12.5529 17.7056 12.4685C17.7056 12.444 17.8528 12.5708 18.0326 12.7505C18.2317 12.9494 18.4843 13.1516 18.6784 13.2675ZM15.666 14.3487V14.9355H15.5375C15.4668 14.9355 15.3697 14.9081 15.3218 14.8746C15.2402 14.8176 15.2346 14.7845 15.2346 14.3593C15.2346 13.8308 15.267 13.7618 15.5152 13.7618H15.666V14.3487ZM22.6937 13.8266C22.7555 13.8823 22.7654 13.9554 22.7654 14.3525C22.7654 14.7847 22.7599 14.8175 22.6782 14.8746C22.6303 14.9081 22.5332 14.9355 22.4625 14.9355H22.334V14.3487V13.7618H22.478C22.5571 13.7618 22.6542 13.791 22.6937 13.8266ZM15.7782 15.7503C15.8987 16.2833 16.3866 17.0595 16.8419 17.4425L17.0456 17.6138L17.0187 17.8298C16.9316 18.5291 16.847 18.9004 16.7535 18.9936C16.6194 19.1274 15.8955 19.3171 15.5189 19.3172L15.2346 19.3172L15.2345 17.41L15.2344 15.5028L15.4812 15.5155L15.728 15.5283L15.7782 15.7503ZM18.2798 18.293C18.9303 18.5149 19.4691 18.4607 20.1825 18.1015C20.3088 18.0379 20.412 17.9994 20.412 18.0158C20.4121 18.1916 20.5879 19.0444 20.6485 19.1629L20.7274 19.3172H19H17.2726L17.3515 19.1629C17.4121 19.0444 17.5879 18.1916 17.588 18.0158C17.588 17.9994 17.6895 18.0365 17.8135 18.0984C17.9375 18.1602 18.1474 18.2478 18.2798 18.293ZM23.5529 19.993C23.6257 20.0419 23.7254 20.1414 23.7745 20.214L23.8637 20.346V23.157V25.968H19H14.1363V24.7924C14.1363 23.8371 14.1256 23.596 14.079 23.5061C13.9859 23.3267 13.8194 23.296 13.6519 23.4274L13.5491 23.5081L13.5387 24.7283L13.5284 25.9485L13.1094 25.968C12.6606 25.9889 12.5656 26.0268 12.3974 26.2515C12.3123 26.3652 12.2914 26.6243 12.3453 26.8972L12.3782 27.0634L12.11 27.0614L11.8418 27.0595L11.5748 26.7387C11.1162 26.1877 10.9435 25.6893 11.0332 25.1755C11.0937 24.829 12.1606 21.5629 12.2807 21.3565C12.4989 20.9816 12.8279 20.7153 13.2533 20.5693C13.379 20.5262 13.4967 20.4909 13.5149 20.4909C13.5331 20.4909 13.548 20.9209 13.548 21.4465V22.4022L13.6513 22.4833C13.8194 22.6151 13.9858 22.5847 14.079 22.4051C14.1248 22.3166 14.1363 22.0987 14.1363 21.3202C14.1363 20.3716 14.1387 20.3425 14.2255 20.214C14.2746 20.1414 14.3743 20.0419 14.4471 19.993L14.5794 19.904H19H23.4206L23.5529 19.993ZM24.7498 20.5703C25.1709 20.7145 25.5699 21.0517 25.7651 21.4281C25.8558 21.603 26.9193 24.91 26.9641 25.1562C27.0574 25.6697 26.8811 26.1866 26.4239 26.7391L26.1582 27.0603L25.8911 27.0618L25.6239 27.0634L25.6557 26.8776C25.7284 26.4534 25.6706 26.257 25.4177 26.0682C25.3295 26.0024 25.2329 25.984 24.8906 25.968L24.4716 25.9485L24.4615 23.2197C24.456 21.7188 24.4665 20.4909 24.4848 20.4909C24.5032 20.4909 24.6224 20.5266 24.7498 20.5703ZM18.5841 21.6786C18.1939 21.806 17.8378 22.1699 17.7205 22.5613C17.6337 22.8508 17.6623 23.2718 17.786 23.527C17.9048 23.7722 18.181 24.0474 18.4313 24.1701C18.5978 24.2517 18.6836 24.2662 19 24.2662C19.3289 24.2662 19.3989 24.2533 19.5967 24.1564C19.8472 24.0337 20.0874 23.7861 20.2239 23.5096C20.3543 23.2457 20.3543 22.6655 20.2239 22.4015C20.0881 22.1266 19.8471 21.8773 19.601 21.7572C19.3386 21.6292 18.851 21.5915 18.5841 21.6786ZM19.3566 22.2923C19.7326 22.4837 19.8626 22.9904 19.6296 23.3569C19.229 23.987 18.2548 23.7026 18.2548 22.9556C18.2548 22.6829 18.3702 22.4715 18.5976 22.3276C18.8255 22.1835 19.1162 22.17 19.3566 22.2923ZM25.0932 26.682C25.0802 26.7519 25.0433 26.8663 25.0113 26.9363L24.953 27.0634H19H13.047L12.9887 26.9363C12.9567 26.8663 12.9198 26.7519 12.9068 26.682L12.8832 26.5549H19H25.1168L25.0932 26.682ZM28.3189 27.7796C28.4473 27.9285 28.4473 28.1545 28.3189 28.3034L28.2242 28.4132H19H9.77578L9.6811 28.3034C9.51519 28.111 9.57786 27.7773 9.79657 27.6889C9.84344 27.67 13.9374 27.6583 19.0524 27.6624L28.2242 27.6698L28.3189 27.7796Z" fill="black"/>
<defs>
<linearGradient id="paint0_linear_2703_4" x1="-17.1095" y1="37.46" x2="70.0433" y2="-7.09939" gradientUnits="userSpaceOnUse">
<stop stop-color="#FFCCBB"/>
<stop offset="0.4058" stop-color="#E79984"/>
<stop offset="0.8032" stop-color="#D16C54"/>
<stop offset="1" stop-color="#C95B41"/>
</linearGradient>
</defs>
</svg>
