<svg width="18" height="18" viewBox="0 0 18 18" fill="none" xmlns="http://www.w3.org/2000/svg">
<path d="M1.60577 4.73094L9 0.46188L16.3942 4.73094V13.2691L9 17.5381L1.60577 13.2691V4.73094Z" stroke="#410EAD" stroke-width="0.8"/>
<path d="M13 11.5434C12.9947 11.5519 12.9903 11.561 12.9869 11.5706C12.9604 11.6878 12.8947 11.7915 12.8015 11.8633C12.7082 11.9351 12.5934 11.9703 12.4775 11.9627H10.1368L10.2318 12.7572H10.602C10.6937 12.7572 10.7478 12.8048 10.7461 12.8795C10.7445 12.9542 10.6905 13 10.6004 13H7.40632C7.31132 13 7.25399 12.9508 7.25726 12.8744C7.26054 12.798 7.31296 12.7572 7.40468 12.7572H7.77159L7.86659 11.9627H5.55213C5.47772 11.9709 5.4025 11.9616 5.33202 11.9355C5.26154 11.9095 5.1976 11.8674 5.14493 11.8123C5.09225 11.7572 5.05219 11.6906 5.0277 11.6173C5.0032 11.544 4.99491 11.466 5.00341 11.3889V6.56923C4.99464 6.4925 5.00283 6.41471 5.02735 6.34175C5.05188 6.26879 5.0921 6.20256 5.14497 6.14809C5.19784 6.09362 5.26197 6.05234 5.33251 6.02735C5.40306 6.00237 5.47816 5.99436 5.55213 6.00391H12.3858C12.751 6.00391 12.864 6.0803 13 6.42493V11.5434ZM9.00171 6.24667H5.55213C5.33265 6.24667 5.23764 6.34344 5.23764 6.56923V11.3872C5.23437 11.6181 5.33101 11.7132 5.56196 11.7132H12.4513C12.6708 11.7132 12.769 11.6181 12.769 11.3923V6.57602C12.769 6.34344 12.6773 6.24667 12.4513 6.24667H9.00171ZM8.00909 12.7487H9.99432L9.90095 11.9644H9.84854H9.47017C9.45379 12.0272 9.44068 12.0867 9.4243 12.1461C9.39949 12.2426 9.34461 12.3279 9.26819 12.3888C9.19177 12.4497 9.09809 12.4827 9.00171 12.4827C8.90533 12.4827 8.81165 12.4497 8.73523 12.3888C8.6588 12.3279 8.60392 12.2426 8.57911 12.1461C8.57015 12.1013 8.55866 12.0571 8.54471 12.0137C8.54032 12.0027 8.53363 11.9929 8.52513 11.985C8.51663 11.9771 8.50653 11.9712 8.49557 11.9678C8.37928 11.9678 8.26134 11.9678 8.14505 11.9678C8.1344 11.9711 8.12467 11.9769 8.11669 11.9849C8.1087 11.9929 8.1027 12.0027 8.09918 12.0137C8.06642 12.2513 8.03858 12.4975 8.00909 12.7487ZM8.78386 11.9627C8.80843 12.1512 8.88869 12.2428 9.01317 12.2344C9.13766 12.2259 9.20973 12.1257 9.21464 11.9627H8.78386Z" fill="#410EAD"/>
<path d="M8.06689 9.89822H10.1782C10.2115 9.89484 10.2449 9.89484 10.2782 9.89822C10.2937 9.90032 10.3086 9.90599 10.3217 9.91482C10.3348 9.92366 10.3459 9.93542 10.354 9.94926C10.3622 9.9631 10.3673 9.97866 10.3689 9.9948C10.3705 10.0109 10.3686 10.0272 10.3633 10.0425C10.347 10.0897 10.347 10.1413 10.3633 10.1885C10.3796 10.2597 10.3756 10.3343 10.3518 10.4032C10.328 10.4721 10.2855 10.5324 10.2293 10.5768C10.1732 10.6211 10.1058 10.6477 10.0354 10.6532C9.96501 10.6587 9.89458 10.643 9.83263 10.6078C9.76938 10.5746 9.71735 10.5222 9.68343 10.4576C9.6495 10.3931 9.63528 10.3194 9.64262 10.2462C9.64262 10.214 9.64262 10.1817 9.65573 10.1427H8.60251C8.60251 10.18 8.61398 10.214 8.61561 10.2479C8.62122 10.3236 8.60467 10.3992 8.56814 10.4649C8.53161 10.5306 8.4768 10.5834 8.41087 10.6163C8.346 10.6486 8.27344 10.6605 8.20213 10.6506C8.13082 10.6406 8.06387 10.6092 8.00956 10.5603C7.95402 10.5105 7.9144 10.4444 7.89597 10.3707C7.87754 10.297 7.88117 10.2193 7.90637 10.1478C7.91563 10.1309 7.91935 10.1113 7.91699 10.092C7.91462 10.0728 7.9063 10.0548 7.89327 10.0408C7.86106 10.0048 7.8407 9.95906 7.83511 9.91026C7.82952 9.86146 7.83898 9.81208 7.86215 9.7692C7.90637 9.67753 7.95223 9.58755 7.99482 9.49418C8.00521 9.4745 8.00869 9.4517 8.00465 9.42967C7.95387 9.2599 7.89654 9.09862 7.84904 8.93055C7.74585 8.56725 7.64593 8.20055 7.54766 7.83556C7.54159 7.80829 7.53017 7.78261 7.51411 7.76012C7.49804 7.73763 7.47768 7.71881 7.45429 7.70483C7.36912 7.65051 7.29049 7.59109 7.20204 7.53507C7.18654 7.52778 7.17274 7.5171 7.1616 7.50377C7.15046 7.49043 7.14223 7.47476 7.13749 7.45781C7.13274 7.44087 7.13159 7.42306 7.13412 7.40561C7.13664 7.38817 7.14278 7.37149 7.15211 7.35674C7.16144 7.34198 7.17375 7.3295 7.18817 7.32014C7.2026 7.31078 7.21882 7.30476 7.2357 7.30251C7.25258 7.30026 7.26973 7.30182 7.28598 7.3071C7.30222 7.31237 7.31717 7.32122 7.32981 7.33305C7.43464 7.40265 7.53783 7.47565 7.64102 7.54865C7.66231 7.56393 7.69016 7.57921 7.69835 7.60128C7.73438 7.69804 7.81301 7.69465 7.88999 7.69804L10.4551 7.81688C10.5976 7.81688 10.6369 7.87121 10.6189 8.01551C10.5566 8.33976 10.4944 8.66572 10.4305 8.98997C10.4118 9.09181 10.3627 9.18497 10.2901 9.25627C10.2174 9.32756 10.125 9.37338 10.0259 9.38722C9.64426 9.43985 9.26261 9.48399 8.87933 9.52983C8.70843 9.56247 8.53541 9.58176 8.36173 9.58755C8.31296 9.5796 8.26312 9.59163 8.22277 9.6211C8.18241 9.65057 8.1547 9.69516 8.14552 9.74543C8.12095 9.79297 8.09474 9.8456 8.06689 9.89822ZM7.8212 7.95269C7.86542 8.12246 7.90965 8.27525 7.95551 8.43483C7.95884 8.44264 7.9638 8.44958 7.97003 8.45515C7.97627 8.46073 7.98361 8.46481 7.99155 8.46709C8.11276 8.46709 8.2356 8.46709 8.36664 8.46709L8.28311 7.95779L7.8212 7.95269ZM9.00709 8.462V7.98835H8.5288C8.55173 8.13435 8.57303 8.28374 8.59923 8.43144C8.60221 8.44042 8.6074 8.44844 8.6143 8.4547C8.6212 8.46096 8.62956 8.46523 8.63855 8.46709C8.75976 8.47048 8.88097 8.46879 9.00218 8.46879L9.00709 8.462ZM8.49604 9.33629C8.49726 9.32615 8.49726 9.31588 8.49604 9.30574C8.46492 9.1122 8.4338 8.91867 8.40104 8.72174H8.0325C8.07181 8.86774 8.10948 9.00695 8.14879 9.14616C8.20776 9.36176 8.21595 9.36685 8.42889 9.34309L8.49604 9.33629ZM9.24951 8.00872V8.47218C9.38055 8.47218 9.5034 8.47218 9.62788 8.47218C9.63698 8.47075 9.64556 8.46685 9.65275 8.46089C9.65994 8.45493 9.66548 8.44712 9.66883 8.43823C9.68357 8.30581 9.6934 8.17169 9.70487 8.03249L9.24951 8.00872ZM8.64346 8.72004L8.73682 9.30743L9.00545 9.27348V8.71665L8.64346 8.72004ZM9.64426 8.72004H9.25279V9.23953C9.35762 9.22764 9.45589 9.21916 9.55254 9.20218C9.57383 9.20218 9.60495 9.17162 9.60659 9.15295C9.62297 9.01034 9.6328 8.86944 9.64426 8.72004ZM10.3617 8.05795L9.9391 8.03928L9.9047 8.46879C10.0243 8.46879 10.1291 8.46879 10.2323 8.46879C10.2798 8.46879 10.2863 8.43993 10.2929 8.40427C10.3126 8.29562 10.3388 8.18528 10.3617 8.05795ZM10.2274 8.71834H9.88177C9.88177 8.79813 9.86703 8.86944 9.86211 8.94074C9.8572 9.01204 9.85065 9.08674 9.84409 9.16144C10.1488 9.16653 10.1979 9.02902 10.2274 8.71834ZM10.1373 10.2785C10.1371 10.2604 10.1334 10.2426 10.1266 10.226C10.1197 10.2094 10.1097 10.1944 10.0973 10.1818C10.0848 10.1691 10.0701 10.1592 10.0539 10.1525C10.0377 10.1458 10.0204 10.1425 10.003 10.1427C9.98606 10.1425 9.96927 10.1457 9.95358 10.1523C9.93789 10.1588 9.92361 10.1685 9.91158 10.1809C9.89954 10.1932 9.88998 10.2079 9.88346 10.224C9.87693 10.2402 9.87358 10.2576 9.87358 10.2751C9.87292 10.2931 9.87572 10.311 9.8818 10.3279C9.88789 10.3447 9.89715 10.3601 9.90903 10.3732C9.92092 10.3864 9.9352 10.3969 9.95105 10.4042C9.96689 10.4116 9.98399 10.4156 10.0013 10.416C10.019 10.4162 10.0365 10.4129 10.0529 10.4061C10.0692 10.3993 10.0842 10.3892 10.0968 10.3764C10.1094 10.3637 10.1195 10.3485 10.1264 10.3316C10.1334 10.3148 10.1371 10.2968 10.1373 10.2785ZM8.24871 10.1427C8.23114 10.1429 8.2138 10.1467 8.19767 10.154C8.18155 10.1612 8.16697 10.1717 8.15478 10.1848C8.14259 10.1979 8.13303 10.2134 8.12666 10.2303C8.12029 10.2473 8.11724 10.2654 8.11767 10.2836C8.11932 10.3187 8.13375 10.3519 8.15806 10.3765C8.18237 10.4011 8.21476 10.4152 8.24871 10.416C8.26619 10.4162 8.28354 10.4128 8.29974 10.406C8.31594 10.3992 8.33065 10.3891 8.34301 10.3762C8.35538 10.3634 8.36514 10.3482 8.37173 10.3314C8.37832 10.3146 8.3816 10.2966 8.38138 10.2785C8.38161 10.2605 8.37832 10.2426 8.37171 10.2259C8.3651 10.2092 8.35531 10.194 8.34292 10.1813C8.33054 10.1687 8.31581 10.1587 8.29962 10.1521C8.28343 10.1454 8.26611 10.1422 8.24871 10.1427Z" fill="#410EAD"/>
<path d="M5.74153 6.7662V11.2039H5.86765C5.88255 11.2028 5.89751 11.2047 5.91166 11.2097C5.92581 11.2147 5.93885 11.2225 5.95 11.2328C5.96116 11.2431 5.9702 11.2556 5.9766 11.2696C5.98299 11.2836 5.9866 11.2988 5.98722 11.3143C5.98904 11.3299 5.98772 11.3457 5.98334 11.3608C5.97895 11.3758 5.9716 11.3898 5.96175 11.4018C5.9519 11.4137 5.93976 11.4234 5.9261 11.4303C5.91244 11.4371 5.89756 11.441 5.88239 11.4416C5.79188 11.4484 5.701 11.4484 5.61049 11.4416C5.59586 11.4409 5.58149 11.4373 5.56822 11.4309C5.55495 11.4245 5.54302 11.4154 5.53313 11.4042C5.52325 11.393 5.51558 11.3799 5.51059 11.3656C5.50559 11.3514 5.50336 11.3362 5.50402 11.3211V6.71188C5.50402 6.554 5.53514 6.52344 5.68747 6.52344H11.5662C11.6906 6.52344 11.7512 6.56248 11.7496 6.64567C11.748 6.72886 11.6923 6.7662 11.5645 6.7662H5.74153Z" fill="#410EAD"/>
<path d="M12.2624 11.2041V6.76468C12.2182 6.76468 12.1756 6.76468 12.133 6.76468C12.118 6.76513 12.1031 6.76249 12.0891 6.75691C12.0751 6.75133 12.0624 6.74293 12.0515 6.73218C12.0407 6.72144 12.0321 6.70858 12.0261 6.69434C12.0201 6.6801 12.0169 6.66476 12.0167 6.64923C12.0156 6.63366 12.0175 6.61801 12.0224 6.60324C12.0273 6.58846 12.0351 6.57487 12.0452 6.56328C12.0553 6.5517 12.0675 6.54236 12.0812 6.53583C12.0949 6.5293 12.1097 6.52572 12.1248 6.5253C12.2132 6.52021 12.3018 6.52021 12.3902 6.5253C12.4193 6.52662 12.4468 6.53954 12.4669 6.56136C12.4871 6.58319 12.4983 6.61224 12.4983 6.64244C12.4999 6.66675 12.4999 6.69114 12.4983 6.71544V11.2482C12.4983 11.4095 12.4671 11.4401 12.3115 11.4401H6.44104C6.40731 11.4443 6.37321 11.4443 6.33949 11.4401C6.31322 11.4351 6.28984 11.4197 6.27426 11.3972C6.25869 11.3748 6.25212 11.3469 6.25595 11.3195C6.25551 11.2905 6.26608 11.2625 6.28539 11.2416C6.3047 11.2206 6.33119 11.2084 6.35914 11.2075C6.39024 11.2058 6.42141 11.2058 6.45251 11.2075H12.2624V11.2041Z" fill="#410EAD"/>
</svg>
