<svg width="18" height="18" viewBox="0 0 18 18" fill="none" xmlns="http://www.w3.org/2000/svg">
<path d="M1.60577 4.73094L9 0.46188L16.3942 4.73094V13.2691L9 17.5381L1.60577 13.2691V4.73094Z" stroke="#410EAD" stroke-width="0.8"/>
<path d="M13 11.1506C12.934 11.2378 12.872 11.332 12.7936 11.4147C12.6264 11.6076 12.4572 11.7959 12.2838 11.9819C12.2621 12.0048 12.2451 12.0327 12.2341 12.0637C12.223 12.0946 12.2181 12.1278 12.2198 12.1611C12.2198 12.3333 12.2198 12.5055 12.2198 12.6801C12.223 12.7207 12.2186 12.7617 12.2069 12.8003C12.1951 12.8389 12.1763 12.8744 12.1515 12.9045C12.1268 12.9346 12.0966 12.9586 12.0631 12.9751C12.0295 12.9915 11.9933 13 11.9566 13C11.92 13 11.8837 12.9915 11.8501 12.9751C11.8166 12.9586 11.7865 12.9346 11.7617 12.9045C11.737 12.8744 11.7181 12.8389 11.7064 12.8003C11.6946 12.7617 11.6902 12.7207 11.6935 12.6801C11.6935 12.4987 11.6935 12.3149 11.6935 12.1335C11.6902 12.0843 11.6728 12.0376 11.6439 12.0003C11.4375 11.7706 11.2311 11.541 11.0247 11.3113C10.9906 11.2834 10.9628 11.2469 10.9437 11.2048C10.9246 11.1627 10.9146 11.1162 10.9146 11.069C10.9146 11.0219 10.9246 10.9754 10.9437 10.9333C10.9628 10.8912 10.9906 10.8547 11.0247 10.8268C11.2311 10.5971 11.4375 10.3675 11.6439 10.1378C11.6713 10.1062 11.6874 10.0645 11.6893 10.0207C11.6893 9.25515 11.6893 8.48963 11.6893 7.72411C11.6893 7.70574 11.6893 7.68507 11.6893 7.65522L11.5964 7.69196C11.4396 7.75397 11.2827 7.81827 11.1258 7.87798C11.1138 7.88021 11.1022 7.88507 11.0918 7.89228C11.0814 7.8995 11.0724 7.90893 11.0653 7.92002C11.0582 7.93112 11.0532 7.94367 11.0505 7.95695C11.0477 7.97023 11.0474 7.98398 11.0495 7.9974C11.0495 8.57614 11.0495 9.14568 11.0495 9.7359C11.0528 9.80589 11.0417 9.87581 11.017 9.9403C10.9923 10.0048 10.9547 10.0621 10.907 10.1079C10.6176 10.3847 10.2752 10.5842 9.90598 10.6913C9.27207 10.8848 8.61285 10.9547 7.9575 10.898C7.49172 10.8791 7.03172 10.7767 6.59523 10.5948C6.32251 10.4829 6.07166 10.3137 5.85629 10.0965C5.80729 10.048 5.76855 9.98806 5.74286 9.92095C5.71716 9.85384 5.70515 9.78123 5.70768 9.70834C5.70768 9.12731 5.70768 8.54858 5.70768 7.96755C5.71098 7.93795 5.70439 7.90803 5.68917 7.88347C5.67395 7.85892 5.65116 7.84144 5.62512 7.83435C5.15245 7.64373 4.68184 7.44853 4.20917 7.25332C4.14989 7.23884 4.09682 7.20225 4.05878 7.14963C4.02074 7.097 4 7.03149 4 6.96395C4 6.89642 4.02074 6.83091 4.05878 6.77828C4.09682 6.72565 4.14989 6.68907 4.20917 6.67459L8.30839 5.02107C8.39772 4.98883 8.49452 4.99372 8.58085 5.03485L12.1599 6.47708C12.3251 6.54368 12.4902 6.60799 12.6532 6.67688C12.7115 6.69225 12.7635 6.72886 12.8009 6.78088C12.8383 6.8329 12.859 6.89734 12.8596 6.96395C12.8579 7.03025 12.8368 7.09412 12.7996 7.14591C12.7624 7.1977 12.711 7.2346 12.6532 7.25102C12.5315 7.30155 12.4117 7.34978 12.29 7.39571C12.27 7.39911 12.2521 7.41116 12.2401 7.42924C12.2281 7.44731 12.223 7.46994 12.226 7.49216C12.226 8.335 12.226 9.18013 12.226 10.0184C12.229 10.0588 12.2443 10.0968 12.2693 10.1263C12.4551 10.3353 12.6429 10.5397 12.8266 10.751C12.8885 10.8222 12.9401 10.9048 12.9959 10.9806L13 11.1506ZM11.8028 6.96395L11.7265 6.92721C10.6532 6.49393 9.57779 6.05988 8.50035 5.62506C8.45751 5.60896 8.4111 5.60896 8.36825 5.62506L5.36711 6.82846L5.03893 6.96395L5.12149 6.9984L8.29395 8.30514C8.34422 8.32355 8.39847 8.32355 8.44875 8.30514C9.03288 8.07549 9.61701 7.84583 10.1991 7.61618L11.8028 6.96395ZM6.22989 8.08697C6.22989 8.5991 6.22989 9.09516 6.22989 9.59121C6.22551 9.62451 6.23051 9.6585 6.24418 9.68851C6.25785 9.71853 6.27954 9.7431 6.30626 9.75886C6.47864 9.87788 6.66033 9.97934 6.84911 10.062C7.71765 10.3677 8.64343 10.412 9.53238 10.1906C9.8526 10.1239 10.1573 9.98558 10.4282 9.78413C10.4641 9.76115 10.4936 9.7275 10.5133 9.68693C10.5329 9.64636 10.5421 9.60049 10.5396 9.55447C10.5396 9.11123 10.5396 8.668 10.5396 8.22476C10.5396 8.18802 10.5396 8.15127 10.5396 8.10764L10.4447 8.14209L8.53957 8.90914C8.44684 8.95053 8.34333 8.95053 8.2506 8.90914C7.81921 8.72771 7.38576 8.55087 6.95231 8.37174L6.22989 8.08697ZM11.97 10.6499L11.5964 11.0656L11.9638 11.4744L12.3354 11.061L11.97 10.6499Z" fill="#410EAD"/>
</svg>
