<svg width="48" height="46" viewBox="0 0 48 46" fill="none" xmlns="http://www.w3.org/2000/svg">
<path fill-rule="evenodd" clip-rule="evenodd" d="M22.02 0.0500444C21.9007 0.072324 20.5972 0.499852 19.1234 1.00027C17.6496 1.5006 16.4285 1.90997 16.4098 1.90997C16.391 1.90997 16.308 2.03797 16.2252 2.19447C16.1004 2.43001 16.0942 2.52518 16.1887 2.74807C16.3064 3.0256 16.5314 3.19357 16.7857 3.19357C16.8658 3.19357 18.1595 2.78098 19.6605 2.27671C21.4935 1.66095 22.5248 1.35986 22.8008 1.35986C23.0978 1.35986 26.0021 2.30294 33.2832 4.76349C38.8225 6.63552 43.3722 8.18271 43.3938 8.20169C43.4153 8.22076 43.4117 8.25689 43.386 8.2821C43.3602 8.30731 41.8854 8.81956 40.1088 9.42056C38.3322 10.0215 36.8104 10.5395 36.7271 10.5717C36.6046 10.619 36.5664 10.5499 36.5273 10.2108C36.4621 9.64665 36.0941 9.12771 35.5942 8.89538C34.8849 8.56559 30.4413 7.98449 26.9907 7.77022C25.033 7.64874 18.7311 7.70696 17.0749 7.86191C13.7706 8.17098 10.4043 8.66654 9.90911 8.91665C9.48788 9.12945 9.13996 9.62877 9.06121 10.1334C9.01222 10.4474 8.95347 10.5661 8.85698 10.5457C8.60807 10.4934 2.26835 8.33491 2.21748 8.28522C2.18989 8.25826 2.18491 8.21994 2.20641 8.19995C2.22799 8.17996 4.88413 7.27219 8.10913 6.18269C11.5953 5.0049 14.0467 4.12949 14.1551 4.02359C14.5482 3.63971 14.2668 2.91851 13.7239 2.91851C13.5746 2.91851 10.7619 3.82665 7.47354 4.93669C1.70409 6.88408 1.4824 6.96742 1.14273 7.31693C0.926581 7.53927 0.785327 7.77774 0.776598 7.9347C0.735958 8.66919 0.910719 9.13706 1.32453 9.40203C1.46109 9.48941 3.24465 10.125 5.288 10.8144L9.00321 12.0677L9.0278 15.4511L9.05239 18.8343L8.13616 19.0379C5.4407 19.6366 3.35333 21.6183 2.66161 24.2353C2.39694 25.2367 2.39741 26.7102 2.66264 27.7194C3.03769 29.146 4.03445 30.6876 5.09071 31.4744C5.35839 31.6739 5.5767 31.8595 5.57576 31.8869C5.57482 31.9144 5.25956 32.0342 4.87503 32.153C3.21508 32.6662 1.55777 34.0816 0.76083 35.6667C0.149449 36.8825 0.00519199 37.4881 0.000123739 38.8591C-0.0047568 40.1873 0.133212 40.8055 0.685463 41.9306C1.7467 44.0925 3.74518 45.5518 6.14059 45.9139C6.66187 45.9926 11.6792 46.0131 25.475 45.9925C42.7039 45.9669 44.1271 45.9532 44.3928 45.8109C44.7841 45.6014 45.2358 45.136 45.4354 44.7369C45.668 44.2716 45.6482 43.4136 45.3937 42.9304C45.0685 42.3131 44.6362 42.0024 43.7301 41.7346C43.4102 41.64 43.2876 41.3657 43.0659 40.2493C42.8912 39.3695 42.8966 38.3298 43.0808 37.3815C43.3052 36.2258 43.4034 36.0482 43.8595 35.9729C44.9226 35.7975 45.7784 34.6323 45.6024 33.5998C45.4258 32.5634 44.6665 31.8708 43.5688 31.7447L43.0627 31.6866L43.1019 31.1568C43.1513 30.4903 43.0013 30.0408 42.576 29.581C42.1839 29.1569 41.8444 28.9695 41.3062 28.88L40.9144 28.8149L40.6957 28.0837C40.3218 26.8339 40.3164 25.1753 40.6823 23.8978L40.7789 23.5602L41.302 23.829L41.8251 24.0978L44.1386 24.0958C46.1731 24.0941 46.4973 24.0737 46.8282 23.9268C47.5326 23.6142 47.9987 22.8877 48 22.1003C48.0004 21.9328 47.6273 20.8925 47.1611 19.7605L46.3217 17.7222L46.6214 17.1308C46.8798 16.6211 46.9208 16.444 46.9184 15.8489C46.9137 14.7078 46.3592 13.8312 45.3307 13.3393L44.8094 13.0899V10.4474C44.8094 7.85769 44.8052 7.79883 44.598 7.49837C44.4816 7.32976 44.2589 7.11898 44.103 7.03005C43.9471 6.94111 41.6665 6.14106 39.035 5.25218C32.5379 3.05751 29.8322 2.14203 26.789 1.10873C25.3694 0.626745 23.9968 0.17712 23.7387 0.109548C23.2897 -0.0079007 22.4809 -0.0359564 22.02 0.0500444ZM27.1264 9.15797C30.0915 9.34959 34.7384 9.94839 35.0177 10.1748C35.1154 10.2541 35.1422 10.7961 35.1422 12.6942V15.1127H32.8427C30.6684 15.1127 30.533 15.1226 30.3556 15.296C30.076 15.5691 30.1052 16.0598 30.4152 16.2979C30.6496 16.4781 30.7784 16.4879 32.9023 16.4879H35.1422V17.6798V18.8717H22.8001H10.458V17.6798V16.4879H19.0801C27.6607 16.4879 27.7034 16.487 27.9495 16.2979C28.2595 16.0598 28.2886 15.5691 28.0091 15.296C27.8242 15.1153 27.6963 15.1127 19.1382 15.1127H10.455L10.4799 12.6142L10.5049 10.1158L11.9929 9.87275C13.6515 9.60182 16.5787 9.27093 18.295 9.16044C20.0024 9.05051 25.441 9.04895 27.1264 9.15797ZM43.4016 11.4727V13.1504L43.0518 13.274C42.5323 13.4575 41.6845 14.3298 41.4941 14.8768C41.2066 15.7027 41.3124 16.7073 41.7541 17.3431L41.9811 17.6698L41.737 18.2708L41.4929 18.8717H39.0204H36.5478L36.5724 15.4686L36.597 12.0654L39.9289 10.9346C41.7615 10.3127 43.2924 9.80188 43.3312 9.7994C43.37 9.79692 43.4016 10.5499 43.4016 11.4727ZM44.9034 14.6771C46.0621 15.4498 45.5456 17.2221 44.162 17.221C42.7255 17.2199 42.198 15.384 43.4242 14.6538C43.8489 14.4007 44.5044 14.4112 44.9034 14.6771ZM45.8687 20.2994C46.2669 21.261 46.5927 22.1171 46.5927 22.2019C46.5927 22.2865 46.5082 22.4383 46.405 22.5392C46.2286 22.7115 46.0922 22.7225 44.1364 22.7225C41.8679 22.7225 41.7122 22.6885 41.7122 22.1935C41.7122 22.0694 42.03 21.1991 42.4184 20.2594L43.1246 18.5509H44.1347H45.1447L45.8687 20.2994ZM40.8211 20.4287C40.7886 20.5285 40.663 20.8483 40.5418 21.1392L40.3215 21.6682L24.6155 21.7143L8.90935 21.7605L8.31186 21.9784C7.06995 22.4315 5.97193 23.5449 5.60354 24.7247C5.39199 25.402 5.39199 26.5527 5.60354 27.2301C5.98075 28.4381 7.09924 29.5527 8.36123 29.9784C8.98979 30.1904 9.07398 30.1949 12.3955 30.1949C15.5995 30.1949 15.7987 30.1852 15.9855 30.0202C16.2313 29.8031 16.2565 29.2225 16.0283 29.0371C15.9057 28.9376 15.1656 28.9018 12.4852 28.8654C9.23119 28.8214 9.07914 28.8115 8.64374 28.6152C7.89664 28.2784 7.48818 27.9002 7.15283 27.2348C6.89275 26.7188 6.84451 26.5219 6.84451 25.9774C6.84451 25.4328 6.89275 25.2359 7.15283 24.7199C7.48912 24.0525 7.90105 23.6721 8.64374 23.343C9.05201 23.1621 9.25568 23.1417 10.6926 23.1386L12.2882 23.1351L12.3351 25.198C12.3609 26.3326 12.4178 27.315 12.4615 27.3812C12.6747 27.7036 12.9752 27.6827 14.0883 27.2681L15.1745 26.8635L16.2446 27.2723C17.2107 27.6413 17.3394 27.6695 17.5675 27.5627C18.0171 27.3521 18.0574 27.1448 18.0589 25.0376L18.0604 23.0893H28.7131C37.1733 23.0893 39.3655 23.1128 39.3646 23.2039C39.3639 23.267 39.28 23.7104 39.1781 24.1895C38.9363 25.3264 38.9363 26.6283 39.1781 27.7652C39.28 28.2443 39.3639 28.6879 39.3646 28.7508C39.3655 28.8419 37.2244 28.8654 28.9686 28.8654C17.351 28.8654 18.1542 28.8184 18.1542 29.4983C18.1542 29.7349 18.2172 29.9012 18.3518 30.0202C18.5434 30.1897 18.8888 30.1956 29.9371 30.2189L41.3248 30.2429L41.5186 30.4834C41.781 30.8094 41.7665 31.2045 41.4818 31.4826L41.2514 31.7077H25.0767C7.20117 31.7077 8.45011 31.7489 7.12608 31.1157C5.12093 30.1567 3.86645 28.1792 3.86645 25.9774C3.86645 23.7757 5.12018 21.7993 7.12608 20.8386C8.41933 20.2192 7.19516 20.2597 24.8478 20.2531C40.7868 20.247 40.8798 20.2481 40.8211 20.4287ZM16.6316 24.544C16.6559 25.8626 16.6468 25.9488 16.4908 25.8885C15.233 25.4021 15.0867 25.3919 14.2357 25.732L13.743 25.9289V24.5066V23.0845L15.1743 23.1098L16.6056 23.1351L16.6316 24.544ZM43.9599 33.3125C44.0633 33.4135 44.175 33.6285 44.2081 33.7901C44.2587 34.0373 44.2227 34.1285 43.9829 34.3629L43.6976 34.6416L25.2711 34.643C9.15976 34.6442 6.76886 34.6618 6.24261 34.7829C3.6075 35.3897 2.19561 38.2584 3.35662 40.6466C3.80722 41.5737 4.49228 42.2401 5.45731 42.6902L6.18752 43.0308L20.7573 43.0551C35.2556 43.0793 35.328 43.0786 35.5162 42.8947C35.7972 42.6203 35.7687 42.1301 35.4581 41.8914L35.2107 41.7014H20.9608H6.71077L6.17316 41.5049C4.76503 40.9902 4.00554 39.3503 4.50805 37.9096C4.71322 37.3214 5.44718 36.5554 6.06832 36.2811L6.56294 36.0627L17.99 36.0384L29.417 36.0141L29.4184 37.9637C29.4199 40.0725 29.4602 40.2797 29.9098 40.4903C30.138 40.5971 30.2669 40.5688 31.2355 40.1988L32.3083 39.789L33.2795 40.1631C34.4033 40.596 34.7233 40.6278 34.9692 40.3312C35.1258 40.1422 35.1422 39.928 35.1422 38.0696V36.0169H38.5514H41.9605L41.7736 36.6816C41.5041 37.6395 41.5041 40.0787 41.7736 41.0367L41.9605 41.7014H40.0658C38.2909 41.7014 38.1553 41.7134 37.9237 41.8914C37.6417 42.108 37.5884 42.5572 37.8094 42.8529C37.9348 43.0206 38.1098 43.0335 40.8573 43.0767C43.7158 43.1216 43.7762 43.1264 43.9811 43.3268C44.2897 43.6284 44.2657 44.137 43.9298 44.4193L43.6696 44.638L24.8817 44.6137L6.09366 44.5895L5.48359 44.3856C3.13446 43.6006 1.52501 41.5619 1.38 39.1877C1.27957 37.5436 1.86167 36.0715 3.08922 34.8656C4.11169 33.8611 5.07166 33.3808 6.46909 33.1745C6.72719 33.1363 15.2259 33.1105 25.3551 33.117C43.6492 33.1287 43.7731 33.13 43.9599 33.3125ZM33.7344 37.4366V38.8565L33.2416 38.6596C32.4869 38.3581 32.2141 38.3518 31.5283 38.6199C31.1919 38.7515 30.8961 38.8591 30.8707 38.8591C30.8455 38.8591 30.8248 38.2196 30.8248 37.438V36.0169H32.2796H33.7344V37.4366Z" fill="#0073A8"/>
</svg>
