<svg width="46" height="45" viewBox="0 0 46 45" fill="none" xmlns="http://www.w3.org/2000/svg">
<path fill-rule="evenodd" clip-rule="evenodd" d="M12.7074 0.104256C7.2903 1.01203 3.15616 4.91448 1.89117 10.3143C1.67586 11.2332 1.65402 11.4968 1.65195 13.1944C1.64943 15.2791 1.73789 15.8882 2.28529 17.5565C2.65829 18.6931 3.23383 19.8475 3.93694 20.8693L4.45764 21.6258L2.60219 23.54C0.615759 25.5893 0.310908 26.0231 0.0856182 27.1221C-0.295648 28.9814 0.627896 31.0099 2.23001 31.8325C2.7321 32.0903 3.52987 32.3361 3.86448 32.3361C4.08384 32.3361 4.11979 32.3772 4.16331 32.6779C4.31767 33.7428 4.89285 34.8757 5.59227 35.4926C6.07225 35.9159 7.08749 36.4145 7.6179 36.4874C8.32532 36.5845 8.31948 36.5794 8.38376 37.1555C8.57255 38.8471 10.0795 40.3961 11.8597 40.7284L12.4505 40.8386L12.5507 41.4319C13.041 44.3342 16.1475 45.846 18.8206 44.4831C19.1312 44.3247 19.8465 43.6745 21.1355 42.3787L23.001 40.5036L24.8664 42.3787C26.7956 44.3181 27.1053 44.5541 28.1192 44.8591C28.7344 45.0443 29.6398 45.0472 30.3247 44.8663C31.9249 44.4438 33.1743 43.0713 33.4512 41.4319L33.5515 40.8386L34.1422 40.7284C35.782 40.4224 37.1065 39.1912 37.5323 37.5773C37.5984 37.3266 37.6531 37.0115 37.6536 36.8769C37.6548 36.6115 37.7152 36.5793 38.384 36.4874C38.9145 36.4145 39.9297 35.9159 40.4097 35.4926C41.1091 34.8757 41.6843 33.7428 41.8386 32.6779C41.8821 32.3772 41.9181 32.3361 42.1375 32.3361C42.4721 32.3361 43.2698 32.0903 43.7719 31.8325C45.421 30.9859 46.3485 28.8574 45.8777 27.0001C45.598 25.8964 45.3634 25.5698 43.3889 23.5341L41.5265 21.614L41.9223 21.0774C43.0834 19.5035 43.9306 17.4281 44.2648 15.3391C44.4198 14.3703 44.4375 12.4075 44.3003 11.4071C43.6134 6.40024 40.1395 2.19089 35.4072 0.6312C33.8624 0.122122 33.1959 0.0230407 31.3167 0.0230407C29.8568 0.0230407 29.4731 0.0538498 28.6754 0.234876C26.8629 0.646331 25.1045 1.42157 23.752 2.40536C23.3824 2.67426 23.0444 2.8943 23.001 2.8943C22.9576 2.8943 22.6195 2.67426 22.2499 2.40536C20.9324 1.44691 19.2774 0.704212 17.5171 0.281272C16.3449 -0.000293905 13.874 -0.0912627 12.7074 0.104256ZM16.404 2.85109C17.8763 3.10759 19.212 3.64657 20.5287 4.51569C21.3652 5.06789 28.3381 12.0681 28.5831 12.6019C28.9526 13.4064 28.6433 14.2797 27.8376 14.7065C27.5506 14.8585 26.892 14.8746 26.5354 14.7385C26.3962 14.6852 24.7653 13.1098 22.9111 11.2374C19.2325 7.52267 19.2391 7.52778 18.4639 7.73451C18.1498 7.81818 17.3191 8.62305 12.2425 13.7626L6.38366 19.6941L5.96239 19.0338C5.16533 17.7845 4.59168 16.2598 4.38842 14.85C4.21994 13.6823 4.31829 11.7105 4.59887 10.6266C5.09197 8.72249 6.05193 7.04905 7.41589 5.71597C9.45096 3.72696 11.8026 2.74754 14.606 2.72138C15.1558 2.71619 15.9649 2.77462 16.404 2.85109ZM33.0876 2.85127C37.1229 3.56699 40.3188 6.55237 41.4112 10.6266C41.629 11.4395 41.6472 11.6463 41.645 13.2855C41.6423 15.2304 41.5747 15.6299 40.9858 17.178C40.7381 17.8294 40.0559 19.069 39.6195 19.6611L39.4716 19.8616L38.8683 19.6727C37.6983 19.3063 36.281 19.4821 35.2958 20.1159C34.3592 20.7185 33.511 21.9641 33.3822 22.9263C33.2856 23.6471 33.2948 23.6368 32.6416 23.7584C30.8895 24.0844 29.5162 25.4773 29.1945 27.2544C29.1332 27.5928 29.0598 27.8704 29.0312 27.8712C29.0027 27.8721 28.7055 27.9317 28.3707 28.0036C26.6665 28.3697 25.3554 29.7342 25.0394 31.4704L24.9234 32.1072L24.4654 32.174C21.7692 32.5675 20.1458 35.3625 21.0815 38.0005L21.2405 38.4488L19.626 40.0968C17.7987 41.962 17.3997 42.2715 16.8223 42.2715C15.6582 42.2715 14.8427 41.0933 15.2961 40.0664C15.3557 39.9315 16.1658 39.0375 17.0963 38.0799C19.1171 36.0002 19.2497 35.7636 18.8703 34.9165C18.5952 34.3021 17.843 34.0065 17.1858 34.2546C17.0466 34.3072 16.1641 35.126 15.2246 36.0743C13.5098 37.8052 13.1492 38.0786 12.5813 38.0786C12.0357 38.0786 11.4518 37.6937 11.1711 37.1488C11.0088 36.8338 11.0082 36.1515 11.1699 35.7741C11.2391 35.6128 12.0306 34.7425 12.9291 33.8401C13.8275 32.9377 14.6238 32.082 14.6988 31.9386C14.8953 31.5623 14.8714 30.9379 14.6464 30.5686C14.3065 30.0111 13.5094 29.8031 12.9052 30.1144C12.747 30.1959 11.8489 31.0328 10.9094 31.9741C9.47613 33.4103 9.13982 33.7023 8.81923 33.7891C7.68631 34.0961 6.59385 32.9534 6.90715 31.7892C7.00217 31.4361 7.25875 31.1316 8.7501 29.6015C9.70304 28.624 10.5281 27.7345 10.5837 27.625C10.7275 27.3415 10.7086 26.8089 10.5421 26.4532C10.2856 25.9052 9.63624 25.6182 9.02645 25.7832C8.72699 25.8644 8.3487 26.1967 6.90751 27.6447C5.94261 28.6142 5.03992 29.4511 4.90139 29.5045C4.54709 29.6411 3.88776 29.6251 3.60053 29.4729C2.8238 29.0616 2.47193 28.1213 2.81804 27.3821C2.89203 27.2241 6.53262 23.4653 10.9082 19.029L18.8639 10.9633L21.764 13.8877C23.359 15.4963 24.8057 16.8972 24.9788 17.0009C26.6172 17.9829 28.8642 17.6808 30.192 16.3001C31.2667 15.1826 31.6808 13.6814 31.3139 12.2336C31.0159 11.0581 30.8744 10.8763 27.8362 7.76623L24.9824 4.84475L25.5424 4.47312C26.7502 3.67182 28.1371 3.10859 29.5187 2.85857C30.4816 2.68429 32.1271 2.68091 33.0876 2.85127ZM38.1658 22.3137C38.5379 22.4541 42.9393 26.9213 43.1459 27.3683C43.5171 28.1713 43.2076 29.0459 42.4014 29.4729C42.1144 29.625 41.4558 29.6411 41.0992 29.5048C40.8169 29.3969 36.3602 24.9466 36.1756 24.5882C35.7546 23.7712 36.0955 22.6957 36.886 22.3466C37.2189 22.1995 37.822 22.1841 38.1658 22.3137ZM34.0998 26.5917C34.3318 26.7055 35.3007 27.6219 36.7259 29.0755C38.5887 30.9753 39.0018 31.4429 39.0833 31.7436C39.2174 32.2392 39.2066 32.4113 39.014 32.8411C38.6814 33.5836 37.9078 33.9845 37.1827 33.7904C36.8539 33.7023 36.4699 33.3551 34.4311 31.303C33.1279 29.9912 32.0053 28.7859 31.9364 28.6246C31.5088 27.6228 32.2969 26.4135 33.3785 26.4118C33.573 26.4115 33.8976 26.4925 34.0998 26.5917ZM29.8783 30.7791C30.3192 30.9886 34.7251 35.4513 34.8636 35.8285C34.9968 36.1917 34.9802 36.8589 34.8308 37.1488C34.4098 37.9659 33.548 38.2797 32.7551 37.9043C32.3162 37.6966 27.9125 33.2344 27.7712 32.8543C27.4624 32.0237 27.8187 31.1513 28.6197 30.7765C29.0762 30.5628 29.4248 30.5636 29.8783 30.7791ZM25.8877 35.1004C26.3562 35.4266 30.5832 39.7795 30.7059 40.0621C30.9545 40.6353 30.7898 41.3839 30.3164 41.8327C29.7669 42.3538 29.0197 42.4223 28.3901 42.0095C28.1703 41.8654 27.0154 40.7476 25.8237 39.5256C23.8911 37.544 23.6462 37.2595 23.5581 36.8936C23.3836 36.1695 23.6349 35.5238 24.2587 35.0934C24.6794 34.8031 25.4654 34.8065 25.8877 35.1004Z" fill="#42A646"/>
</svg>
