<svg width="90" height="116" viewBox="0 0 90 116" fill="none" xmlns="http://www.w3.org/2000/svg">
<g filter="url(#filter0_d_808_84)">
<path d="M45 4L77.8369 19.8134L85.947 55.3459L63.2231 83.8407H26.7769L4.05303 55.3459L12.1631 19.8134L45 4Z" fill="white"/>
</g>
<path d="M20.6863 112V101.091H27.5258V102.508H22.3323V105.832H27.1689V107.243H22.3323V110.583H27.5897V112H20.6863ZM31.1892 107.142V112H29.5965V103.818H31.1253V105.15H31.2265C31.4147 104.717 31.7095 104.369 32.1108 104.106C32.5156 103.843 33.0252 103.712 33.6395 103.712C34.197 103.712 34.6853 103.829 35.1044 104.063C35.5234 104.294 35.8483 104.638 36.0791 105.097C36.31 105.555 36.4254 106.121 36.4254 106.796V112H34.8327V106.988C34.8327 106.395 34.6782 105.931 34.3693 105.597C34.0603 105.26 33.636 105.091 33.0962 105.091C32.7269 105.091 32.3984 105.171 32.1108 105.331C31.8267 105.491 31.6012 105.725 31.4343 106.034C31.2709 106.339 31.1892 106.709 31.1892 107.142ZM42.0877 112.165C41.2816 112.165 40.5873 111.993 40.0049 111.648C39.4261 111.3 38.9786 110.812 38.6626 110.184C38.3501 109.551 38.1938 108.811 38.1938 107.962C38.1938 107.124 38.3501 106.386 38.6626 105.746C38.9786 105.107 39.419 104.608 39.9836 104.25C40.5518 103.891 41.2159 103.712 41.9758 103.712C42.4375 103.712 42.8849 103.788 43.3181 103.941C43.7514 104.093 44.1402 104.333 44.4847 104.66C44.8291 104.987 45.1008 105.411 45.2997 105.933C45.4985 106.451 45.598 107.082 45.598 107.824V108.388H39.0941V107.195H44.0372C44.0372 106.776 43.952 106.405 43.7816 106.082C43.6111 105.755 43.3714 105.498 43.0625 105.31C42.7571 105.121 42.3984 105.027 41.9865 105.027C41.539 105.027 41.1484 105.137 40.8146 105.358C40.4843 105.574 40.2286 105.858 40.0475 106.21C39.87 106.558 39.7812 106.936 39.7812 107.344V108.277C39.7812 108.824 39.8771 109.289 40.0688 109.672C40.2642 110.056 40.5358 110.349 40.8838 110.551C41.2318 110.75 41.6384 110.849 42.1036 110.849C42.4055 110.849 42.6807 110.807 42.9293 110.722C43.1779 110.633 43.3927 110.501 43.5738 110.327C43.7549 110.153 43.8934 109.939 43.9893 109.683L45.4968 109.955C45.376 110.398 45.1594 110.787 44.8469 111.121C44.538 111.451 44.1491 111.709 43.6804 111.893C43.2152 112.075 42.6843 112.165 42.0877 112.165ZM47.3651 112V103.818H48.9045V105.118H48.9897C49.1389 104.678 49.4017 104.331 49.7781 104.079C50.1581 103.824 50.5878 103.696 51.0672 103.696C51.1666 103.696 51.2838 103.699 51.4187 103.706C51.5572 103.713 51.6655 103.722 51.7437 103.733V105.256C51.6797 105.239 51.5661 105.219 51.4027 105.198C51.2394 105.173 51.076 105.161 50.9127 105.161C50.5363 105.161 50.2007 105.24 49.9059 105.4C49.6147 105.556 49.3839 105.775 49.2135 106.055C49.043 106.332 48.9578 106.648 48.9578 107.004V112H47.3651ZM56.2594 115.239C55.6095 115.239 55.0502 115.153 54.5815 114.983C54.1163 114.813 53.7363 114.587 53.4415 114.306C53.1468 114.026 52.9266 113.719 52.781 113.385L54.15 112.82C54.2459 112.977 54.3737 113.142 54.5335 113.316C54.6969 113.493 54.917 113.644 55.194 113.768C55.4746 113.893 55.835 113.955 56.2753 113.955C56.879 113.955 57.378 113.808 57.7722 113.513C58.1663 113.222 58.3634 112.756 58.3634 112.117V110.509H58.2622C58.1663 110.683 58.0278 110.876 57.8467 111.089C57.6692 111.302 57.4241 111.487 57.1116 111.643C56.7991 111.799 56.3925 111.877 55.8918 111.877C55.2455 111.877 54.6631 111.727 54.1447 111.425C53.6297 111.119 53.2214 110.67 52.9195 110.077C52.6212 109.48 52.4721 108.747 52.4721 107.877C52.4721 107.007 52.6195 106.261 52.9142 105.64C53.2125 105.018 53.6209 104.543 54.1393 104.212C54.6578 103.879 55.2455 103.712 55.9025 103.712C56.4103 103.712 56.8204 103.797 57.1329 103.967C57.4454 104.134 57.6887 104.33 57.8627 104.553C58.0403 104.777 58.177 104.974 58.2729 105.145H58.39V103.818H59.9508V112.181C59.9508 112.884 59.7874 113.461 59.4607 113.912C59.134 114.363 58.6919 114.697 58.1344 114.914C57.5804 115.13 56.9554 115.239 56.2594 115.239ZM56.2434 110.556C56.7015 110.556 57.0886 110.45 57.4046 110.237C57.7242 110.02 57.9657 109.711 58.129 109.31C58.2959 108.905 58.3794 108.42 58.3794 107.856C58.3794 107.305 58.2977 106.821 58.1344 106.402C57.971 105.983 57.7313 105.656 57.4153 105.422C57.0992 105.184 56.7086 105.065 56.2434 105.065C55.764 105.065 55.3645 105.189 55.0449 105.438C54.7253 105.683 54.4838 106.016 54.3204 106.439C54.1606 106.862 54.0807 107.334 54.0807 107.856C54.0807 108.392 54.1624 108.863 54.3258 109.267C54.4891 109.672 54.7306 109.988 55.0502 110.216C55.3734 110.443 55.7711 110.556 56.2434 110.556ZM63.0935 115.068C62.8556 115.068 62.639 115.049 62.4437 115.01C62.2484 114.974 62.1028 114.935 62.0069 114.892L62.3904 113.587C62.6816 113.665 62.9408 113.699 63.1681 113.689C63.3954 113.678 63.596 113.593 63.77 113.433C63.9476 113.273 64.1038 113.012 64.2388 112.65L64.4359 112.107L61.4422 103.818H63.1468L65.2189 110.168H65.3041L67.3762 103.818H69.0861L65.7143 113.092C65.558 113.518 65.3592 113.879 65.1177 114.173C64.8762 114.472 64.5886 114.695 64.2547 114.844C63.9209 114.994 63.5339 115.068 63.0935 115.068Z" fill="black"/>
<path fill-rule="evenodd" clip-rule="evenodd" d="M43.2422 21.0463C38.203 21.5183 33.9911 23.1276 30.0097 26.1022C29.319 26.6182 28.2263 27.5887 27.3486 28.4657L25.8593 29.9537V29.0312C25.8593 28.2995 25.8187 28.0289 25.6627 27.7231C25.4416 27.2895 24.879 26.9439 24.3945 26.9439C23.9064 26.9439 23.3473 27.2894 23.1228 27.7299C22.9303 28.1073 22.9236 28.2577 22.9505 31.6304C22.9822 35.6132 22.9551 35.4787 23.8136 35.9059L24.248 36.1221L27.373 35.9284C29.9919 35.7661 30.5646 35.7038 30.9095 35.5442C31.987 35.0454 31.9618 33.4674 30.8685 32.9835C30.475 32.8094 30.297 32.793 29.3855 32.8474C28.8157 32.8813 28.0905 32.9352 27.7739 32.967L27.1983 33.0249L27.5297 32.5569C27.9931 31.9025 30.0428 29.7915 30.9495 29.0349C33.9579 26.524 37.8589 24.7843 41.9238 24.1407C43.4139 23.9048 46.5841 23.9052 48.125 24.1416C51.036 24.588 53.9856 25.6482 56.3282 27.09C62.7725 31.0565 66.6741 37.6171 67.0375 45.098C67.1091 46.5724 67.256 46.9655 67.8491 47.2682C68.3372 47.5174 68.7333 47.5174 69.2214 47.2682C69.7594 46.9935 70.0001 46.489 70 45.6366C69.9996 42.3097 68.9432 37.9949 67.361 34.8591C66.0146 32.1904 63.8843 29.3969 61.7356 27.4827C57.521 23.7279 52.6488 21.5973 47.0996 21.0827C46.1059 20.9906 44.0446 20.971 43.2422 21.0463ZM50.2735 30.0299C49.8625 30.2064 35.4566 44.5529 35.0283 45.2121C34.8599 45.4713 34.7461 45.7783 34.7461 45.9734C34.7461 46.4625 35.063 46.9973 35.4928 47.2335C35.6998 47.3474 37.4292 47.9576 39.3359 48.5899C41.2427 49.222 42.823 49.7571 42.8477 49.779C42.8726 49.801 41.7367 52.1366 40.3237 54.9693C37.5215 60.5868 37.47 60.7215 37.8891 61.3388C38.1869 61.7771 38.7033 62.1229 39.0605 62.1229C39.2154 62.1229 39.5055 62.0551 39.7053 61.9725C40.1337 61.7949 54.5151 47.4891 54.9717 46.7862C55.1401 46.527 55.2539 46.22 55.2539 46.025C55.2539 45.5358 54.937 45.001 54.5072 44.7648C54.3002 44.6509 52.5708 44.0407 50.6641 43.4084C48.7573 42.7763 47.177 42.2412 47.1523 42.2193C47.1275 42.1973 48.2633 39.8617 49.6763 37.029C52.4785 31.4115 52.53 31.2768 52.1109 30.6595C51.6246 29.9436 50.9849 29.7243 50.2735 30.0299ZM20.7578 44.7349C20.2412 45.0078 19.9999 45.526 20 46.3617C20.0004 49.6886 21.0568 54.0034 22.639 57.1392C24.3702 60.5708 26.9832 63.682 30.1075 66.0317C34.6168 69.4232 40.3125 71.2103 45.8789 70.9803C52.2749 70.7159 58.0115 68.1687 62.6514 63.5326L64.1407 62.0446V62.9671C64.1407 63.6988 64.1813 63.9694 64.3373 64.2752C64.5584 64.7088 65.121 65.0544 65.6056 65.0544C66.0936 65.0544 66.6527 64.7089 66.8772 64.2684C67.0696 63.8911 67.0764 63.7405 67.0495 60.3853L67.0216 56.8949L66.7864 56.565C66.6571 56.3835 66.3709 56.1552 66.1504 56.0576C65.7623 55.8858 65.6497 55.8863 62.6258 56.0719C59.0599 56.2907 58.8325 56.3435 58.4801 57.0346C58.3708 57.2491 58.2813 57.5632 58.2813 57.7327C58.2813 58.2226 58.6492 58.772 59.1347 59.0072C59.5186 59.1931 59.6666 59.2076 60.606 59.1515C61.1804 59.1172 61.9095 59.0631 62.2261 59.0313L62.8017 58.9734L62.4703 59.4414C62.0069 60.0958 59.9572 62.2068 59.0505 62.9634C56.0421 65.4743 52.1411 67.214 48.0762 67.8576C46.5861 68.0935 43.4159 68.0931 41.875 67.8567C38.964 67.4103 36.0144 66.3501 33.6718 64.9083C27.2275 60.9418 23.3259 54.3812 22.9625 46.9003C22.8909 45.4259 22.744 45.0328 22.1509 44.7301C21.6697 44.4845 21.229 44.486 20.7578 44.7349Z" fill="#B32323"/>
<defs>
<filter id="filter0_d_808_84" x="0.0546875" y="0" width="89.8906" height="87.8408" filterUnits="userSpaceOnUse" color-interpolation-filters="sRGB">
<feFlood flood-opacity="0" result="BackgroundImageFix"/>
<feColorMatrix in="SourceAlpha" type="matrix" values="0 0 0 0 0 0 0 0 0 0 0 0 0 0 0 0 0 0 127 0" result="hardAlpha"/>
<feOffset/>
<feGaussianBlur stdDeviation="2"/>
<feComposite in2="hardAlpha" operator="out"/>
<feColorMatrix type="matrix" values="0 0 0 0 0 0 0 0 0 0 0 0 0 0 0 0 0 0 0.25 0"/>
<feBlend mode="normal" in2="BackgroundImageFix" result="effect1_dropShadow_808_84"/>
<feBlend mode="normal" in="SourceGraphic" in2="effect1_dropShadow_808_84" result="shape"/>
</filter>
</defs>
</svg>
