<svg width="46" height="46" viewBox="0 0 46 46" fill="none" xmlns="http://www.w3.org/2000/svg">
<path fill-rule="evenodd" clip-rule="evenodd" d="M21.9675 0.0251626C18.7026 0.21163 15.2603 1.23351 12.3612 2.87686C7.58066 5.58677 3.61423 9.88462 0.471878 15.7596L0 16.642L0.692016 17.9103C2.51515 21.2517 4.27356 23.6335 6.69912 26.0473C8.11942 27.4608 9.54529 28.6348 10.9472 29.5452L11.7776 30.0845V38.0423C11.7776 42.4192 11.808 46.0002 11.845 46C11.882 45.9999 14.3938 44.6419 17.4267 42.9823C20.4596 41.3227 22.9676 39.9648 23 39.9648C23.0324 39.9648 25.5404 41.3227 28.5733 42.9823C31.6062 44.6419 34.1179 45.9999 34.155 46C34.1921 46.0002 34.2224 42.4192 34.2224 38.0423V30.0845L35.0528 29.5452C36.4547 28.6348 37.8806 27.4608 39.3009 26.0473C41.7264 23.6335 43.4848 21.2517 45.308 17.9103L46 16.642L45.5281 15.7596C41.5151 8.25677 36.0726 3.24475 29.6094 1.10001C27.1874 0.296307 24.309 -0.108518 21.9675 0.0251626ZM25.6199 2.89307C27.9465 3.24718 30.1643 4.0289 32.3648 5.27076C33.5009 5.91187 35.6307 7.46496 36.5117 8.29469L37.0504 8.80203L36.4189 8.49278C33.2229 6.92789 29.6752 5.9261 25.9627 5.54028C25.3949 5.48128 24.0616 5.433 23 5.433C21.9384 5.433 20.6051 5.48128 20.0373 5.54028C16.3248 5.9261 12.7771 6.92789 9.58111 8.49278L8.94961 8.80203L9.48828 8.29469C10.949 6.91906 13.6325 5.14005 15.4586 4.33671C17.0859 3.62084 19.1418 3.03855 20.675 2.8592C21.139 2.80497 21.66 2.74399 21.8329 2.72381C22.4152 2.65571 24.7438 2.75975 25.6199 2.89307ZM24.2569 8.20776C27.503 8.70483 30.1282 10.9538 31.1098 14.0787C32.6069 18.8446 29.7352 23.8297 24.8307 24.9793C23.8649 25.2057 22.1351 25.2057 21.1693 24.9793C16.2648 23.8297 13.3931 18.8446 14.8902 14.0787C15.8589 10.995 18.4818 8.72095 21.6533 8.21524C22.67 8.05318 23.2364 8.05156 24.2569 8.20776ZM14.1658 9.72013C13.029 11.2824 12.3692 12.7389 11.9929 14.5169C11.7635 15.6016 11.779 17.772 12.0243 18.8859C12.3712 20.4619 12.9095 21.7208 13.7929 23.0227C14.0645 23.4228 14.2484 23.7503 14.2014 23.7503C13.992 23.7503 12.2492 23.043 11.0856 22.486C9.18959 21.5781 7.56953 20.5571 6.03197 19.3008C5.13957 18.5716 3.33843 16.8188 3.33843 16.6794C3.33843 16.3841 5.29866 14.5193 6.79662 13.3897C8.62093 12.0139 10.8419 10.7832 13.0345 9.93318C14.2595 9.45827 14.3718 9.4371 14.1658 9.72013ZM32.9243 9.9257C35.1109 10.7571 37.3521 11.9935 39.2034 13.3897C40.7013 14.5193 42.6616 16.3841 42.6616 16.6794C42.6616 16.8188 40.8604 18.5716 39.968 19.3008C38.4305 20.5571 36.8104 21.5781 34.9144 22.486C33.7508 23.043 32.008 23.7503 31.7986 23.7503C31.7516 23.7503 31.9355 23.4228 32.2071 23.0227C33.0905 21.7208 33.6288 20.4619 33.9757 18.8859C34.221 17.772 34.2365 15.6016 34.0071 14.5169C33.6308 12.7389 32.971 11.2824 31.8342 9.72013C31.753 9.6087 31.7235 9.51745 31.7687 9.51745C31.8139 9.51745 32.3339 9.70113 32.9243 9.9257ZM22.192 11.2848C21.0049 11.5137 20.0262 12.0355 19.1831 12.8887C17.0857 15.0116 17.1023 18.2995 19.2211 20.4255C21.3608 22.5724 24.6392 22.5724 26.7789 20.4255C28.8977 18.2995 28.9143 15.0116 26.8169 12.8887C25.7755 11.8348 24.6596 11.3334 23.2244 11.2747C22.78 11.2565 22.3154 11.2611 22.192 11.2848ZM24.1553 14.2177C24.6799 14.4725 25.1607 14.9625 25.4282 15.5148C25.7197 16.1171 25.7315 17.1222 25.4542 17.7282C24.5753 19.6491 21.9254 19.8642 20.7665 18.1086C19.7839 16.6201 20.5612 14.5362 22.2813 14.0477C22.8138 13.8966 23.6503 13.9724 24.1553 14.2177ZM11.7776 25.7578C19.475 28.8049 28.4735 28.5399 35.8384 25.0493L37.0504 24.4749L36.4668 25.0216C34.6441 26.7292 32.0628 28.3592 29.7334 29.2736C24.6337 31.2755 19.2042 30.9585 14.2914 28.372C12.654 27.5099 10.7557 26.1715 9.53317 25.0172L8.94961 24.4663L9.84739 24.9077C10.3412 25.1505 11.2098 25.5331 11.7776 25.7578ZM15.3823 31.8226C17.0665 32.4754 19.3227 33.0195 20.9575 33.1671L21.6533 33.2299V35.4106V37.5912L18.1295 39.5132C16.1913 40.5702 14.5753 41.4513 14.5383 41.471C14.5014 41.4907 14.471 39.2546 14.471 36.502C14.471 33.7494 14.4872 31.4972 14.5069 31.4972C14.5266 31.4972 14.9205 31.6436 15.3823 31.8226ZM31.529 36.502C31.529 39.2546 31.4987 41.4907 31.4617 41.471C31.4246 41.4513 29.8086 40.5702 27.8705 39.5132L24.3467 37.5912V35.4106V33.2299L25.0425 33.1671C26.682 33.0191 28.9732 32.4659 30.5863 31.8284C31.0307 31.6528 31.4246 31.5064 31.4617 31.5032C31.4987 31.4999 31.529 33.7494 31.529 36.502Z" fill="#0693E3"/>
</svg>
