<svg width="51" height="46" viewBox="0 0 51 46" fill="none" xmlns="http://www.w3.org/2000/svg">
<path fill-rule="evenodd" clip-rule="evenodd" d="M21.5947 0.142623C19.6514 0.577273 18.0427 1.69792 16.9603 3.37087C16.5384 4.02309 15.9547 5.41251 15.9547 5.76458C15.9547 6.09243 16.2151 6.51024 16.5003 6.64005C17.1495 6.93563 17.6555 6.67323 17.949 5.8888C18.8251 3.547 20.4729 2.19812 22.6855 2.01143C25.0738 1.80989 27.3694 3.52309 28.4188 6.28998C28.7739 7.22653 29.0726 7.55607 29.5659 7.55607C30.0623 7.55607 30.3768 7.22075 30.7502 6.29337C31.2329 5.09432 31.6707 4.4165 32.5075 3.5725C33.5978 2.47268 34.6866 1.97726 36.0136 1.97726C37.2229 1.97726 38.6013 2.48652 39.4998 3.26507C40.1367 3.81707 40.8374 4.87764 41.1515 5.76517C41.4987 6.74605 41.5838 8.44918 41.3381 9.4987C40.7565 11.9827 38.702 14.3601 32.6705 19.5286L29.6926 22.0805L27.0366 19.8333C22.7692 16.2227 21.0681 14.6396 19.4877 12.8081C19.131 12.3947 19.0347 12.3382 18.69 12.3401C18.1038 12.3434 17.6498 12.7928 17.6498 13.3698C17.6498 14.1074 20.1739 16.651 24.6299 20.4041C25.6994 21.3049 27.1696 22.5475 27.8971 23.1656C29.2247 24.2936 29.5173 24.4634 29.9479 24.3555C30.1998 24.2923 35.8791 19.4475 37.871 17.5965C41.3269 14.3852 42.9273 12.0281 43.378 9.48535C43.5555 8.48415 43.4562 6.52728 43.179 5.56364C42.5962 3.53803 41.0899 1.64681 39.3879 0.803614C38.3627 0.295742 37.6205 0.0941074 36.4902 0.0164025C33.9582 -0.157537 31.6404 1.05745 30.0396 3.39806C29.6356 3.98882 29.5534 4.06284 29.4672 3.9137C29.4117 3.81797 29.1064 3.38959 28.7885 2.96182C27.8167 1.65398 26.628 0.784187 25.1784 0.320149C24.153 -0.0081045 22.6105 -0.0845143 21.5947 0.142623ZM16.194 9.09025C15.8209 9.46293 15.7655 9.78401 15.997 10.2314C16.4651 11.1357 17.8493 10.7333 17.8493 9.69296C17.8493 9.30573 17.2623 8.75153 16.8521 8.75153C16.6222 8.75153 16.4383 8.84618 16.194 9.09025ZM0.343924 22.4348L0.000103214 22.7783V32.0082C0.000103214 42.0332 -0.0211362 41.6481 0.545749 41.9061C0.873515 42.0554 7.25234 42.0731 7.78144 41.9263C8.53698 41.7166 9.21056 41.1449 9.73058 40.2722C9.83469 40.0974 9.86699 40.0974 10.6778 40.2715C12.0687 40.57 12.6306 40.8414 15.8606 42.7742C17.5655 43.7944 19.3273 44.7863 19.7759 44.9787C22.5845 46.1827 25.7871 46.3279 28.7192 45.3839C29.13 45.2516 32.495 43.8091 36.197 42.1781C39.8989 40.5472 44.0047 38.7427 45.321 38.168C49.1497 36.4966 49.4583 36.3353 50.0354 35.7044C50.7446 34.9291 50.9969 34.2502 50.9999 33.109C51.002 32.3093 50.9686 32.1412 50.6906 31.5527C50.5192 31.1897 50.2177 30.7144 50.0206 30.4966C49.2622 29.6579 47.766 29.1527 46.6506 29.3587C46.3515 29.4139 43.9407 30.2019 41.2936 31.1097C38.6463 32.0176 36.4727 32.7601 36.4633 32.7597C36.454 32.7594 36.4438 32.388 36.4408 31.9345C36.4362 31.2286 36.3915 31.0172 36.1307 30.4657C35.5578 29.2547 34.5632 28.4473 33.3253 28.1886C32.9966 28.1199 31.4695 28.0779 29.2868 28.0776L25.7767 28.0769L23.2838 26.6725C21.9127 25.9001 20.4543 25.0975 20.043 24.8888C18.6262 24.1701 18.5781 24.164 13.9447 24.1196L9.79081 24.0797L9.66736 23.7819C9.48289 23.3371 8.73193 22.614 8.19875 22.3678C7.74763 22.1597 7.5816 22.1495 4.20792 22.121L0.687744 22.0913L0.343924 22.4348ZM7.63834 24.432L7.97738 24.7707V31.9986C7.97738 37.3902 7.94706 39.2928 7.85822 39.4876C7.62588 39.9972 7.41269 40.0328 4.59202 40.0328H1.99442V32.063V24.0933H4.64686H7.29931L7.63834 24.432ZM4.32777 26.4244C3.95474 26.7971 3.89929 27.1182 4.13084 27.5656C4.5989 28.4699 5.98306 28.0675 5.98306 27.0271C5.98306 26.6399 5.39613 26.0857 4.9859 26.0857C4.75595 26.0857 4.57208 26.1804 4.32777 26.4244ZM18.4521 26.3513C18.7563 26.4656 20.3024 27.2891 21.8879 28.1814C23.4734 29.0736 24.9706 29.8637 25.2148 29.9371C25.5505 30.038 26.5377 30.0706 29.263 30.0706H32.8672L33.3661 30.3189C33.6405 30.4556 33.9564 30.6909 34.0679 30.842C34.7791 31.8044 34.5349 33.149 33.5363 33.7692L33.1556 34.0056L27.5488 34.0555L21.942 34.1053L21.6679 34.3792C21.2599 34.7869 21.2808 35.3697 21.7171 35.7592L22.0405 36.0479L27.5981 36.0458L33.1556 36.0437L33.8537 35.7913C34.2376 35.6525 36.6382 34.8202 39.1885 33.9419C41.7387 33.0635 44.4759 32.1206 45.2711 31.8463C46.8745 31.2935 47.4822 31.2227 48.1018 31.5164C48.9301 31.9091 49.291 33.0939 48.8431 33.95C48.7158 34.1933 48.4988 34.4744 48.361 34.5745C48.2232 34.6745 43.6687 36.7108 38.2399 39.0995C31.3811 42.1174 28.0802 43.5202 27.422 43.6969C26.6008 43.9174 26.2623 43.9522 24.8792 43.9582C23.1988 43.9653 22.6697 43.8886 21.3393 43.4449C20.3126 43.1025 20.0165 42.9442 16.7628 41.0004C15.194 40.0631 13.7086 39.1984 13.4618 39.0788C12.8268 38.771 11.5432 38.3829 10.6946 38.242L9.9717 38.1219V32.0976V26.0733L13.9354 26.1084C17.6618 26.1415 17.9322 26.156 18.4521 26.3513Z" fill="#F00101"/>
</svg>
