<svg width="46" height="56" viewBox="0 0 46 56" fill="none" xmlns="http://www.w3.org/2000/svg">
<path fill-rule="evenodd" clip-rule="evenodd" d="M0 21.4622V42.9245H3.29077H6.58154V46.2095V49.4945H15.3377H24.0938L24.7439 50.5555C26.0196 52.6379 28.1791 54.4337 30.416 55.2725C32.0053 55.8684 32.7604 55.9994 34.6079 56C35.9749 56.0005 36.4191 55.9576 37.2332 55.7467C41.524 54.6351 44.5773 51.5769 45.7678 47.1984C45.9462 46.5424 45.9936 46.0266 45.9996 44.6765C46.008 42.7714 45.886 42.0549 45.2773 40.4371C44.4366 38.203 42.6292 36.0351 40.5563 34.7748L39.4893 34.1259V20.4576V6.78907H36.1985H32.9077V3.39454V0H16.4539H0V21.4622ZM29.6169 18.7055V34.1259L28.555 34.7748C27.1037 35.6616 25.6161 37.1446 24.7439 38.5742L24.0938 39.6394H13.6923H3.29077V21.4622V3.28504H16.4539H29.6169V18.7055ZM6.58154 11.7166V16.6442H11.5177H16.4539V11.7166V6.78907H11.5177H6.58154V11.7166ZM19.7446 8.43159V10.0741H23.0354H26.3262V8.43159V6.78907H23.0354H19.7446V8.43159ZM13.1631 11.7166V13.3591H11.5177H9.87231V11.7166V10.0741H11.5177H13.1631V11.7166ZM36.1985 21.5991V33.1241H34.5531H32.9077V21.5991V10.0741H34.5531H36.1985V21.5991ZM19.7446 15.0017V16.6442H23.0354H26.3262V15.0017V13.3591H23.0354H19.7446V15.0017ZM6.58154 24.8568V26.4993H16.4539H26.3262V24.8568V23.2142H16.4539H6.58154V24.8568ZM6.58154 31.4268V33.0694H16.4539H26.3262V31.4268V29.7843H16.4539H6.58154V31.4268ZM36.1754 36.5287C39.2385 37.1603 41.6814 39.4681 42.5286 42.5304C42.782 43.4466 42.782 45.6874 42.5286 46.6036C41.6814 49.6659 39.2385 51.9736 36.1754 52.6052C30.4826 53.7791 25.3309 48.637 26.4995 42.9472C27.4101 38.5132 31.771 35.6205 36.1754 36.5287ZM31.0429 41.1177L29.8951 42.2675L31.0429 43.4172L32.1908 44.567L31.0423 45.7174L29.8938 46.8678L31.071 48.043L32.2482 49.2181L33.4007 48.0717L34.5531 46.9252L35.7055 48.0717L36.8579 49.2181L38.0352 48.043L39.2124 46.8678L38.0639 45.7174L36.9154 44.567L38.0639 43.4166L39.2124 42.2661L38.0352 41.091L36.8579 39.9158L35.7055 41.0623L34.5531 42.2088L33.4269 41.0883C32.8074 40.4721 32.2759 39.9679 32.2457 39.9679C32.2155 39.9679 31.6742 40.4853 31.0429 41.1177ZM23.0902 44.567V46.2095H16.4813H9.87231V44.567V42.9245H16.4813H23.0902V44.567Z" fill="#FCB900"/>
</svg>
