<svg width="41" height="42" viewBox="0 0 41 42" fill="none" xmlns="http://www.w3.org/2000/svg">
<path fill-rule="evenodd" clip-rule="evenodd" d="M2.49211 0.0888315C1.9685 0.223604 1.2233 0.675391 0.861538 1.07742C0.675776 1.2839 0.405863 1.70772 0.261887 2.01905C0.0247407 2.53178 0 2.66172 0 3.39492C0 4.15906 0.0173764 4.24052 0.309051 4.84505C0.681237 5.61656 1.16033 6.09708 1.92961 6.47037C2.43071 6.71364 2.55574 6.73848 3.26842 6.73704C3.95851 6.7356 4.11837 6.70534 4.57802 6.48944L5.10154 6.24346L7.63849 8.84229L10.1754 11.4412L9.53037 12.1059L8.88529 12.7706L9.51324 13.8574L10.1413 14.9441L9.81634 15.6305C9.63761 16.008 9.42297 16.5171 9.33931 16.7619C9.25566 17.0067 9.16745 17.2069 9.14329 17.2069C9.11921 17.2069 8.63888 16.734 8.07605 16.156L7.05258 15.1051L7.14641 14.8295C7.55608 13.6255 6.54072 12.2059 5.26985 12.2059C4.22892 12.2059 3.26842 13.1821 3.26842 14.2402C3.26842 14.7733 3.45765 15.2026 3.88619 15.6416C4.45911 16.2284 5.15276 16.4201 5.82953 16.1784L6.09845 16.0824L7.04166 17.0459C7.56038 17.5757 7.98486 18.0313 7.98486 18.0581C7.98486 18.0849 7.67763 18.1819 7.30222 18.2737L6.61958 18.4406L6.59616 19.3918L6.57274 20.3431H5.84087H5.10891L5.0049 20.0859C4.77453 19.5161 3.93823 18.9869 3.26842 18.9869C2.24313 18.9869 1.28254 19.9709 1.28254 21.0212C1.28254 22.0715 2.24313 23.0555 3.26842 23.0555C3.93823 23.0555 4.77453 22.5262 5.0049 21.9565L5.10891 21.6993H5.84087H6.57274L6.59616 22.6478L6.61958 23.5962L7.73663 23.8817C8.35101 24.0387 8.89448 24.2127 8.94437 24.2683C8.99427 24.3239 9.11987 24.6363 9.22355 24.9627C9.32715 25.289 9.57596 25.9032 9.77637 26.3275L10.1408 27.0991L9.51299 28.1854L8.88529 29.2718L9.5302 29.9363L10.1752 30.6009L9.29306 31.5046L8.41092 32.4082L7.88756 32.1623C7.42824 31.9465 7.26821 31.9163 6.5782 31.9148C5.86552 31.9134 5.7405 31.9382 5.23939 32.1815C4.47012 32.5548 3.99103 33.0353 3.61884 33.8068C3.32683 34.412 3.30979 34.4921 3.30979 35.2614C3.30979 36.0306 3.32683 36.1107 3.61884 36.7159C3.99103 37.4874 4.47012 37.9679 5.23939 38.3412C5.73926 38.5838 5.86734 38.6095 6.5782 38.6095C7.28906 38.6095 7.41715 38.5838 7.91701 38.3412C8.68629 37.9679 9.16538 37.4874 9.53757 36.7159C9.82982 36.1102 9.84654 36.0315 9.84505 35.2658C9.84364 34.554 9.81443 34.3913 9.60343 33.9201L9.36339 33.3839L10.2455 32.4803L11.1277 31.5766L11.7786 32.2396L12.4296 32.9025L13.4919 32.2545L14.5542 31.6064L15.3034 31.9817C15.7154 32.1882 16.3131 32.4429 16.6317 32.5478C16.9503 32.6528 17.2538 32.7817 17.3061 32.8345C17.3585 32.8872 17.5293 33.4453 17.6855 34.0747L17.9697 35.219L18.8935 35.243L19.8174 35.2669V36.0167V36.7665L19.5663 36.873C19.0101 37.109 18.4934 37.9657 18.4934 38.6519C18.4934 39.7022 19.454 40.6862 20.4793 40.6862C21.5046 40.6862 22.4652 39.7022 22.4652 38.6519C22.4652 37.9657 21.9485 37.109 21.3923 36.873L21.1413 36.7665V36.0167V35.2669L22.0662 35.243L22.991 35.219L23.2867 34.0383C23.4492 33.3889 23.6197 32.8453 23.6656 32.8302C23.7113 32.8152 24.5448 33.619 25.5177 34.6164L27.2867 36.43L27.1928 36.706C26.9567 37.3997 27.1437 38.1101 27.7167 38.6971C28.5538 39.5547 29.6157 39.5547 30.4529 38.6971C31.29 37.8396 31.29 36.7517 30.4529 35.8942C29.8799 35.3072 29.1863 35.1157 28.5092 35.3576L28.2399 35.4537L26.6793 33.8567L25.1187 32.2597L25.7649 31.9354L26.4111 31.611L27.4722 32.2546L28.5334 32.898L29.1823 32.2372L29.8312 31.5764L32.3682 34.1752L34.9052 36.774L34.6651 37.3103C34.454 37.7818 34.4248 37.9444 34.4234 38.6563C34.4219 39.422 34.4386 39.5007 34.7308 40.1064C35.103 40.8779 35.5821 41.3584 36.3514 41.7317C36.8519 41.9747 36.9788 42 37.6945 42C38.4405 42 38.52 41.9822 39.1101 41.6834C39.8633 41.3021 40.3323 40.8114 40.6967 40.0233C40.9339 39.5106 40.9586 39.3807 40.9586 38.6475C40.9586 37.8833 40.9413 37.8019 40.6496 37.1973C40.2774 36.4258 39.7983 35.9453 39.029 35.572C38.5279 35.3287 38.4029 35.3039 37.6902 35.3053C37.0001 35.3068 36.8403 35.337 36.3806 35.5529L35.8571 35.7989L33.3201 33.2001L30.7832 30.6012L31.4283 29.9365L32.0733 29.2718L31.4456 28.1854L30.8179 27.0991L31.1814 26.3275C31.3813 25.9032 31.629 25.289 31.7318 24.9627C31.8345 24.6363 31.9528 24.3312 31.9946 24.2846C32.0364 24.2379 32.5811 24.0627 33.2049 23.8951L34.3391 23.5904L34.3625 22.6448L34.3859 21.6993H35.7797H37.1736L37.2776 21.9565C37.508 22.5262 38.3443 23.0555 39.0141 23.0555C40.0394 23.0555 41 22.0715 41 21.0212C41 19.9647 40.0529 18.9869 39.0297 18.9869C38.3444 18.9869 37.5106 19.51 37.2776 20.0859L37.1736 20.3431H35.7771H34.3804V19.6424V18.9416L35.2823 18.0206C36.1835 17.1002 36.1844 17.0996 36.4531 17.1956C37.1298 17.4372 37.8234 17.2456 38.3964 16.6588C39.2049 15.8305 39.2291 14.7768 38.4597 13.9001C37.6757 13.0069 36.5087 12.9885 35.6584 13.8558C35.074 14.452 34.9156 15.132 35.1644 15.9778C35.2039 16.112 35.0085 16.3573 34.2262 17.1549L33.2381 18.1626L32.6715 18.0108C32.3599 17.9273 32.0628 17.8172 32.0114 17.766C31.9598 17.7149 31.8339 17.4061 31.7314 17.0797C31.6288 16.7534 31.3813 16.1392 31.1814 15.7149L30.8179 14.9433L31.4456 13.8569L32.0733 12.7706L31.4284 12.1061L30.7834 11.4415L31.6656 10.5378L32.5477 9.63415L33.0711 9.88004C33.531 10.0962 33.6899 10.1261 34.3847 10.1276C35.1322 10.1291 35.209 10.112 35.8003 9.81257C36.5535 9.43131 37.0225 8.94053 37.387 8.15249C37.6238 7.64044 37.6488 7.50923 37.6488 6.78103C37.6488 6.05283 37.6238 5.92162 37.387 5.40957C37.0225 4.62153 36.5535 4.13075 35.8003 3.74949C35.2095 3.45036 35.1313 3.4329 34.3804 3.4329C33.6295 3.4329 33.5513 3.45036 32.9605 3.74949C32.2074 4.13075 31.7383 4.62153 31.3739 5.40957C31.1364 5.92289 31.1122 6.05097 31.1136 6.78103C31.115 7.48787 31.1445 7.6518 31.3552 8.12232L31.5952 8.65844L30.7131 9.5621L29.831 10.4658L29.1822 9.80503L28.5334 9.14439L27.4784 9.78409L26.4234 10.4239L25.6648 10.0555C25.2476 9.85283 24.6455 9.60084 24.3269 9.49547C24.0084 9.39003 23.7034 9.26068 23.6491 9.20787C23.5948 9.15515 23.425 8.59707 23.2717 7.96771L22.993 6.82341L22.0672 6.79942L21.1413 6.77543V5.3476V3.91969L21.3923 3.81314C21.9485 3.57716 22.4652 2.72046 22.4652 2.03431C22.4652 0.984012 21.5046 0 20.4793 0C19.454 0 18.4934 0.984012 18.4934 2.03431C18.4934 2.72046 19.0101 3.57716 19.5663 3.81314L19.8174 3.91969V5.3476V6.77543L18.8887 6.79942L17.9602 6.82341L17.7972 7.5227C17.7076 7.90727 17.613 8.222 17.5871 8.222C17.5612 8.222 16.9675 7.63476 16.2679 6.91699L14.996 5.61198L15.0898 5.33625C15.499 4.1338 14.474 2.71241 13.1978 2.71241C12.6773 2.71241 12.2582 2.90626 11.8297 3.34525C10.9926 4.2028 10.9926 5.29064 11.8297 6.14819C12.4027 6.73517 13.0963 6.92665 13.7733 6.68491L14.0425 6.5887L15.3992 7.97652C16.1453 8.73981 16.7558 9.38444 16.7558 9.40902C16.7558 9.4336 16.5604 9.52379 16.3214 9.60948C16.0825 9.69518 15.5854 9.91514 15.2168 10.0982L14.5464 10.4313L13.488 9.78553L12.4296 9.1399L11.7785 9.80299L11.1274 10.466L8.59039 7.86718L6.05344 5.26835L6.29356 4.73206C6.50464 4.26061 6.53385 4.09795 6.53526 3.38611C6.53675 2.62036 6.52003 2.5417 6.22778 1.93598C5.66867 0.777021 4.67532 0.0969687 3.45451 0.0374652C3.10185 0.0202584 2.66876 0.0433986 2.49211 0.0888315ZM3.8794 1.45928C4.33392 1.59685 5.01938 2.29902 5.15367 2.76463C5.38287 3.55936 5.22127 4.19296 4.63652 4.79198C3.79939 5.64953 2.73744 5.64953 1.90031 4.79198C1.06319 3.93444 1.06319 2.84752 1.90031 1.98811C2.48077 1.39223 3.10599 1.22516 3.8794 1.45928ZM20.9381 1.5643C21.3486 1.98472 21.0578 2.71241 20.4793 2.71241C20.3181 2.71241 20.1485 2.63553 20.0205 2.50432C19.61 2.08389 19.9008 1.35621 20.4793 1.35621C20.6405 1.35621 20.8101 1.43309 20.9381 1.5643ZM13.6566 4.27671C14.0671 4.69713 13.7762 5.42482 13.1978 5.42482C13.0366 5.42482 12.867 5.34794 12.739 5.21673C12.3285 4.79631 12.6193 4.06862 13.1978 4.06862C13.359 4.06862 13.5286 4.1455 13.6566 4.27671ZM34.9914 4.84979C35.7025 5.06501 36.3663 5.9974 36.3663 6.78103C36.3663 7.83133 35.4057 8.81534 34.3804 8.81534C33.3551 8.81534 32.3946 7.83133 32.3946 6.78103C32.3946 6.24829 32.5839 5.81846 33.0123 5.37863C33.5928 4.78274 34.218 4.61568 34.9914 4.84979ZM22.2107 9.17558C22.3555 9.74663 22.4863 10.2532 22.5013 10.3011C22.5164 10.3491 22.7934 10.4534 23.117 10.533C23.9512 10.738 24.882 11.122 25.6509 11.5782C26.0149 11.7942 26.35 11.9718 26.3956 11.9729C26.4411 11.974 26.8993 11.7189 27.4139 11.4061L28.3495 10.8374L29.3754 11.9154L30.4015 12.9935L30.1813 13.3837C30.0602 13.5983 29.8041 14.04 29.6121 14.3653L29.2632 14.9567L29.4706 15.2977C30.0304 16.2181 30.8224 18.2626 30.8224 18.7871C30.8224 18.9293 30.7638 18.9073 32.0429 19.2475L33.0565 19.5172V21.0212V22.5251L32.0429 22.7949C31.4854 22.9432 30.9895 23.0777 30.9409 23.0938C30.8922 23.1099 30.8048 23.3463 30.7464 23.6191C30.5933 24.336 30.052 25.7163 29.6545 26.4036C29.4658 26.73 29.3112 27.0351 29.3108 27.0817C29.3102 27.1545 29.6792 27.8233 30.2484 28.7816L30.4021 29.0404L29.3504 30.1109L28.2987 31.1814L27.3471 30.602L26.3956 30.0226L26.0646 30.2336C25.4125 30.6493 24.1847 31.2001 23.435 31.4132C23.0154 31.5325 22.6348 31.6416 22.5893 31.6555C22.5438 31.6695 22.3807 32.1814 22.2269 32.7931L21.9472 33.9051H20.4805H19.0137L18.7274 32.7888L18.441 31.6726L17.7432 31.481C16.8729 31.242 15.9867 30.8685 15.191 30.4054C14.8538 30.2091 14.5479 30.0575 14.5115 30.0685C14.4751 30.0796 14.2112 30.234 13.925 30.4116C13.6388 30.5891 13.2343 30.8353 13.0261 30.9584L12.6475 31.1825L11.6025 30.1068L10.5576 29.0313L11.1245 28.0565L11.6916 27.0817L11.486 26.7427C11.0796 26.0728 10.5426 24.8162 10.3347 24.049C10.2182 23.6192 10.1118 23.2293 10.0982 23.1826C10.0845 23.136 9.58482 22.969 8.98773 22.8114L7.90212 22.5249V21.0212V19.5175L8.98773 19.231C9.58482 19.0734 10.0845 18.9064 10.0982 18.8597C10.1118 18.8131 10.2182 18.4232 10.3347 17.9934C10.5426 17.2262 11.0796 15.9696 11.486 15.2997L11.6916 14.9606L11.1245 13.9859L10.5576 13.0111L11.6025 11.9355L12.6475 10.8599L13.0261 11.0839C13.2343 11.2071 13.6388 11.4532 13.925 11.6308C14.2112 11.8084 14.4751 11.9628 14.5115 11.9739C14.5479 11.9849 14.8538 11.8333 15.191 11.637C15.9867 11.1739 16.8729 10.8004 17.7432 10.5614L18.441 10.3698L18.7274 9.25356L19.0137 8.13723H20.4806H21.9475L22.2107 9.17558ZM18.9899 11.6581C16.0841 12.1287 13.5308 14.0717 12.1732 16.8454C10.4131 20.4413 11.1282 24.8325 13.9435 27.7164C16.7035 30.5438 20.8751 31.3062 24.3573 29.6199C25.7916 28.9253 26.8529 28.0615 27.7771 26.8364C30.6515 23.0265 30.3283 17.7199 27.0152 14.3259C24.8922 12.1512 21.9612 11.1768 18.9899 11.6581ZM22.3945 13.126C23.8695 13.5231 25.0263 14.2097 26.1089 15.3311C27.1745 16.4346 27.8607 17.6887 28.2317 19.2104C28.4281 20.0162 28.4282 22.0259 28.2319 22.8311C27.8478 24.4064 27.1966 25.5808 26.0635 26.7416C24.9297 27.9029 23.7799 28.5718 22.2462 28.962C21.4354 29.1683 19.5728 29.1683 18.7417 28.9619C15.7308 28.2143 13.4798 25.9201 12.727 22.832C12.5304 22.0258 12.5304 20.0166 12.727 19.2104C13.1044 17.6621 13.7888 16.4234 14.8899 15.2955C16.1898 13.9637 17.4116 13.3365 19.4864 12.9357C19.9716 12.8418 21.7782 12.9602 22.3945 13.126ZM5.71311 13.7702C5.8412 13.9013 5.91625 14.075 5.91625 14.2402C5.91625 14.4053 5.8412 14.579 5.71311 14.7102C5.5851 14.8414 5.41548 14.9183 5.25429 14.9183C5.0931 14.9183 4.92348 14.8414 4.79547 14.7102C4.66738 14.579 4.59233 14.4053 4.59233 14.2402C4.59233 14.075 4.66738 13.9013 4.79547 13.7702C4.92348 13.6389 5.0931 13.5621 5.25429 13.5621C5.41548 13.5621 5.5851 13.6389 5.71311 13.7702ZM37.4871 14.7873C37.8976 15.2077 37.6067 15.9354 37.0283 15.9354C36.6881 15.9354 36.3663 15.6058 36.3663 15.2573C36.3663 14.9089 36.6881 14.5792 37.0283 14.5792C37.1894 14.5792 37.3591 14.6561 37.4871 14.7873ZM19.3295 15.7274C18.4162 15.9304 17.4615 16.4776 16.754 17.2038C14.6838 19.3286 14.6667 22.7092 16.7158 24.7931C17.7277 25.8222 18.836 26.3423 20.1821 26.4197C22.5971 26.5583 24.812 24.9778 25.5498 22.5893C25.8098 21.7479 25.8098 20.2945 25.5498 19.4531C24.7163 16.7547 22.0077 15.1323 19.3295 15.7274ZM21.4274 17.0823C22.8546 17.4632 23.9538 18.5929 24.3276 20.0628C24.8635 22.1706 23.5465 24.3946 21.4274 24.96C19.3603 25.5116 17.1869 24.166 16.6343 21.9924C15.8974 19.0944 18.5984 16.3275 21.4274 17.0823ZM3.72724 20.5512C4.13773 20.9716 3.84688 21.6993 3.26842 21.6993C2.92825 21.6993 2.60646 21.3696 2.60646 21.0212C2.60646 20.6727 2.92825 20.3431 3.26842 20.3431C3.4296 20.3431 3.59923 20.42 3.72724 20.5512ZM39.4729 20.5512C39.601 20.6823 39.6761 20.8561 39.6761 21.0212C39.6761 21.1863 39.601 21.3601 39.4729 21.4912C39.3449 21.6224 39.1753 21.6993 39.0141 21.6993C38.8529 21.6993 38.6833 21.6224 38.5553 21.4912C38.1448 21.0708 38.4357 20.3431 39.0141 20.3431C39.1753 20.3431 39.3449 20.42 39.4729 20.5512ZM7.18919 33.3301C7.9003 33.5453 8.56408 34.4777 8.56408 35.2614C8.56408 36.3116 7.60349 37.2957 6.5782 37.2957C6.05774 37.2957 5.63864 37.1018 5.2101 36.6628C4.37297 35.8053 4.37297 34.7184 5.2101 33.8589C5.79056 33.2631 6.41578 33.096 7.18919 33.3301ZM29.5436 36.8256C29.6717 36.9568 29.7467 37.1305 29.7467 37.2957C29.7467 37.4608 29.6717 37.6345 29.5436 37.7657C29.4156 37.8969 29.2459 37.9738 29.0848 37.9738C28.9236 37.9738 28.7539 37.8969 28.6259 37.7657C28.4979 37.6345 28.4228 37.4608 28.4228 37.2957C28.4228 37.1305 28.4979 36.9568 28.6259 36.8256C28.7539 36.6944 28.9236 36.6176 29.0848 36.6176C29.2459 36.6176 29.4156 36.6944 29.5436 36.8256ZM38.3012 36.7206C39.0123 36.9358 39.6761 37.8682 39.6761 38.6519C39.6761 39.7022 38.7155 40.6862 37.6902 40.6862C37.1697 40.6862 36.7506 40.4923 36.3221 40.0533C35.485 39.1958 35.485 38.1089 36.3221 37.2495C36.9026 36.6536 37.5278 36.4865 38.3012 36.7206ZM20.9381 38.1819C21.0662 38.313 21.1413 38.4867 21.1413 38.6519C21.1413 38.817 21.0662 38.9907 20.9381 39.1219C20.5277 39.5424 19.8174 39.2444 19.8174 38.6519C19.8174 38.3034 20.1392 37.9738 20.4793 37.9738C20.6405 37.9738 20.8101 38.0506 20.9381 38.1819Z" fill="#0BC66C"/>
</svg>
