<svg width="28" height="41" viewBox="0 0 28 41" fill="none" xmlns="http://www.w3.org/2000/svg">
<path fill-rule="evenodd" clip-rule="evenodd" d="M3.28793 0.161569C1.77769 0.566409 0.544283 1.84284 0.15411 3.40477C0.00165488 4.01512 -0.00116131 4.32666 0.000168473 20.4515C0.0016547 38.5399 -0.0271312 37.469 0.486946 38.5184C0.797958 39.1533 1.6559 40.0674 2.27879 40.4277C2.52174 40.5681 2.99382 40.7547 3.32775 40.8421C3.91817 40.9967 4.21377 41.0011 13.9936 40.9999C25.0532 40.9986 24.5082 41.0218 25.5707 40.5069C26.2633 40.1711 27.1615 39.246 27.5176 38.5013C28.0286 37.433 27.9997 38.5102 27.9997 20.4988C27.9997 2.48738 28.0286 3.56463 27.5176 2.49627C27.2074 1.84772 26.2829 0.859368 25.6812 0.532933C25.4585 0.412162 25.0041 0.242057 24.6713 0.154922C24.0834 0.000994972 23.7806 -0.00332973 13.9686 0.000914883C4.21401 0.0051595 3.85105 0.0106054 3.28793 0.161569ZM8.05574 2.11882C8.05574 2.85297 8.07561 2.98007 8.21218 3.1199C8.36558 3.27696 8.4729 3.28008 13.7238 3.28008H19.079L19.2385 3.10477C19.3776 2.95188 19.398 2.82406 19.398 2.10368V1.2779H21.6986C23.7581 1.2779 24.0504 1.29424 24.4881 1.43375C25.4468 1.7392 26.2489 2.52246 26.571 3.4678C26.7048 3.86023 26.7118 4.70587 26.7118 20.4988C26.7118 36.2917 26.7048 37.1374 26.571 37.5298C26.2744 38.4001 25.5247 39.1791 24.6389 39.5373C24.3078 39.6712 23.6734 39.6796 14.0006 39.6796C4.3279 39.6796 3.69344 39.6712 3.3624 39.5373C2.47661 39.1791 1.72685 38.4001 1.43023 37.5298C1.29647 37.1374 1.28951 36.2917 1.28951 20.4988C1.28951 4.70587 1.29647 3.86023 1.43023 3.4678C1.74805 2.53535 2.54975 1.74409 3.48732 1.43752C3.88954 1.30601 4.21369 1.28599 6.0024 1.28223L8.05574 1.2779V2.11882ZM5.76664 14.5123C5.39 14.8052 5.49537 15.4415 5.94718 15.6028C6.08954 15.6535 6.67871 15.6936 7.28369 15.6936C8.3418 15.6936 8.36652 15.6976 8.40539 15.8738C8.42722 15.9729 8.67456 17.4415 8.95506 19.1373C9.23557 20.8332 9.48698 22.3282 9.51373 22.4597C9.56324 22.7028 9.82685 22.9924 10.5072 23.5514L10.8858 23.8624H14.8153H18.7449L18.9076 23.6823C19.0166 23.5614 19.3872 22.411 20.0321 20.1909C20.9398 17.0663 20.9875 16.8678 20.8781 16.6682C20.6479 16.2483 20.7646 16.2567 15.0545 16.2554L9.73338 16.2542L9.60611 15.4881C9.41767 14.3544 9.52796 14.4122 7.55011 14.4122C6.34721 14.4122 5.86027 14.4395 5.76664 14.5123ZM12.7245 18.7508C12.8983 18.918 12.9055 18.9734 12.9055 20.1435C12.9055 21.5052 12.8565 21.6552 12.3807 21.7493C12.1697 21.791 12.0907 21.7591 11.8861 21.5497L11.6427 21.3005L11.6679 20.0915C11.6921 18.9326 11.7007 18.8762 11.8778 18.7296C12.1249 18.525 12.4995 18.5344 12.7245 18.7508ZM15.1683 18.7311C15.3689 18.9365 15.4323 19.4295 15.3963 20.5058C15.3676 21.3637 15.3585 21.4033 15.1486 21.5882C14.8808 21.824 14.6339 21.8322 14.3632 21.6142L14.1571 21.4482V20.1726C14.1571 19.0038 14.1701 18.8837 14.3135 18.7369C14.5182 18.5274 14.9665 18.5244 15.1683 18.7311ZM17.6097 18.7296C17.7868 18.8762 17.7954 18.9326 17.8196 20.0915L17.8448 21.3005L17.6014 21.5497C17.3968 21.7591 17.3178 21.791 17.1068 21.7493C16.6318 21.6553 16.582 21.504 16.582 20.1547C16.582 19.0254 16.5929 18.9354 16.752 18.762C16.9631 18.532 17.3533 18.5173 17.6097 18.7296ZM11.5284 24.4287C11.2162 24.5225 10.9027 24.8452 10.793 25.1857C10.5829 25.837 11.1096 26.5854 11.7779 26.5854C12.4442 26.5854 12.905 26.1434 12.905 25.5042C12.905 24.7575 12.2187 24.2214 11.5284 24.4287ZM16.7182 24.4574C16.3408 24.5952 16.2335 24.69 16.0807 25.0195C15.7299 25.7765 16.2364 26.5858 17.0605 26.5851C18.2329 26.584 18.5672 24.9965 17.4994 24.5003C17.1097 24.319 17.0986 24.3185 16.7182 24.4574ZM8.20616 36.51C7.95812 36.764 7.92785 36.9118 8.06849 37.1822C8.26663 37.563 8.09423 37.5521 13.9376 37.5548L19.4674 37.5573L19.6804 37.3698C19.8326 37.2358 19.8934 37.1064 19.8934 36.9166C19.8934 36.7268 19.8326 36.5975 19.6804 36.4635L19.4674 36.2759H13.9511H8.43481L8.20616 36.51Z" fill="#5744CC"/>
</svg>
