<svg width="42" height="41" viewBox="0 0 42 41" fill="none" xmlns="http://www.w3.org/2000/svg">
<path fill-rule="evenodd" clip-rule="evenodd" d="M6.26948 0.147159C5.91851 0.380939 4.84082 1.62542 4.14422 2.60137C0.402661 7.84338 -0.892704 14.588 0.615901 20.9719C1.45565 24.525 3.19621 27.8855 5.54472 30.4873C6.24297 31.2608 6.47755 31.3921 7.05637 31.3332C7.81641 31.2559 8.34065 30.4557 8.12659 29.6996C8.06322 29.4757 7.81756 29.1068 7.44673 28.6789C4.7786 25.5993 3.21279 22.0465 2.69922 17.9064C2.58415 16.9788 2.58415 14.3663 2.69922 13.4386C2.96113 11.3274 3.51328 9.31773 4.32183 7.53246C5.14623 5.71226 6.11599 4.20212 7.44673 2.66618C8.32842 1.64861 8.41099 1.01886 7.75149 0.342279C7.50378 0.0881709 7.39609 0.04178 6.99013 0.0141539C6.62906 -0.0103448 6.45867 0.0211039 6.26948 0.147159ZM34.5836 0.074966C34.3135 0.19077 33.9032 0.743814 33.8454 1.07003C33.7613 1.54445 33.947 1.95693 34.5665 2.672C37.2292 5.7451 38.7958 9.30166 39.3091 13.4386C39.4242 14.3663 39.4242 16.9788 39.3091 17.9064C39.0472 20.0176 38.495 22.0273 37.6865 23.8126C36.8621 25.6328 35.8923 27.1429 34.5616 28.6789C33.6814 29.6946 33.5975 30.3264 34.253 30.9989C34.4792 31.2309 34.6231 31.2998 34.9519 31.3332C35.5308 31.3921 35.7653 31.2608 36.4636 30.4873C41.4085 25.0091 43.209 17.0194 41.1814 9.55229C40.5419 7.19703 39.3292 4.65543 37.8647 2.60137C37.1461 1.59327 36.0056 0.291284 35.6897 0.118403C35.4394 -0.018598 34.8555 -0.0415329 34.5836 0.074966ZM11.9345 5.92788C11.6405 6.06914 10.8784 6.92338 10.294 7.7665C8.6546 10.1318 7.87453 12.6809 7.87453 15.6725C7.87453 19.177 8.99465 22.2191 11.2233 24.7675C11.9052 25.5471 12.3473 25.6942 13.0015 25.359C13.5679 25.0689 13.8474 24.3061 13.6196 23.6721C13.5759 23.5503 13.2804 23.1326 12.963 22.7439C12.2538 21.8753 11.8191 21.1852 11.4068 20.2739C10.0897 17.3629 10.0897 13.9821 11.4068 11.0711C11.8191 10.1598 12.2538 9.46976 12.963 8.60119C13.2804 8.21243 13.5759 7.79473 13.6196 7.67293C13.9143 6.85258 13.3667 5.92615 12.5389 5.84483C12.3388 5.82511 12.072 5.86186 11.9345 5.92788ZM29.13 5.90981C28.6647 6.10624 28.3091 6.64295 28.3091 7.14882C28.3091 7.61525 28.4218 7.83756 29.0453 8.60119C29.7545 9.46976 30.1892 10.1598 30.6015 11.0711C31.9186 13.9821 31.9186 17.3629 30.6015 20.2739C30.1892 21.1852 29.7545 21.8753 29.0453 22.7439C28.7279 23.1326 28.4324 23.5503 28.3887 23.6721C28.1609 24.3061 28.4404 25.0689 29.0068 25.359C29.661 25.6942 30.1031 25.5471 30.785 24.7675C33.0136 22.2191 34.1338 19.177 34.1338 15.6725C34.1338 12.1885 33.0079 9.11931 30.8063 6.60194C30.158 5.86064 29.6973 5.67039 29.13 5.90981ZM20.3065 10.3846C17.8023 10.7943 15.9998 13.0076 15.9998 15.6725C15.9998 18.0869 17.4327 20.101 19.6534 20.8082C20.3208 21.0207 21.6875 21.0207 22.3549 20.8082C24.5756 20.101 26.0085 18.0869 26.0085 15.6725C26.0085 13.2781 24.5698 11.2378 22.3995 10.5545C21.9375 10.409 20.7477 10.3124 20.3065 10.3846ZM19.7094 31.89C19.7318 40.0811 19.7327 40.1161 19.9036 40.3603C20.5008 41.2132 21.5075 41.2132 22.1047 40.3603C22.2756 40.1161 22.2765 40.0811 22.2989 31.89L22.3214 23.665H21.0042H19.6869L19.7094 31.89Z" fill="#0693E3"/>
</svg>
