<svg width="18" height="18" viewBox="0 0 18 18" fill="none" xmlns="http://www.w3.org/2000/svg">
<path d="M1.60577 4.73094L9 0.46188L16.3942 4.73094V13.2691L9 17.5381L1.60577 13.2691V4.73094Z" stroke="#410EAD" stroke-width="0.8"/>
<path d="M13 9.1797C12.9771 9.35054 12.9457 9.52007 12.9059 9.68763C12.7771 10.2195 12.4998 10.7015 12.1078 11.0747C11.7159 11.4479 11.2263 11.6963 10.6989 11.7894C10.6166 11.7961 10.5338 11.7864 10.4551 11.761C10.3866 11.7478 10.3203 11.7259 10.2412 11.7062C10.2412 11.7303 10.2177 11.7522 10.207 11.7763C10.035 12.13 9.79831 12.4466 9.5098 12.709C9.35483 12.8512 9.16054 12.9407 8.95376 12.9651C8.34626 13.0629 7.72418 12.9537 7.18323 12.6543C6.64227 12.3548 6.21239 11.8817 5.95972 11.3078C5.65176 10.651 5.34807 9.97006 5.03798 9.30231C5.00785 9.24802 4.99515 9.18542 5.00167 9.12334C5.00819 9.06127 5.03361 9.00286 5.07433 8.95639C5.29188 8.67728 5.55097 8.43495 5.84209 8.23827C6.57014 7.72113 7.3872 7.3497 8.25016 7.14359C8.26687 7.13871 8.28329 7.13286 8.29935 7.12608C8.29935 6.97939 8.29935 6.8327 8.29935 6.68821C8.29719 6.63269 8.31186 6.57786 8.34134 6.53122C8.37082 6.48457 8.41367 6.4484 8.46402 6.42767C8.7563 6.27621 9.06919 6.17067 9.39218 6.11459C10.0172 5.9998 10.6545 5.97108 11.287 6.02921C11.718 6.05725 12.1433 6.14565 12.5509 6.29193C12.63 6.32039 12.7049 6.35761 12.7797 6.39045C12.8728 6.42831 12.949 6.50004 12.9936 6.59187L13 9.1797ZM10.0273 10.5984C10.0332 10.2383 9.96015 9.88144 9.81348 9.55408C9.51835 8.89727 9.21895 8.2536 8.92382 7.60336C8.91833 7.58445 8.90594 7.56843 8.8892 7.55864C8.87247 7.54886 8.8527 7.54605 8.834 7.55082C8.66719 7.5749 8.49824 7.58803 8.33357 7.62525C7.70273 7.77561 7.09778 8.02289 6.53928 8.35869C6.18303 8.55868 5.85676 8.81011 5.57049 9.10526C5.55928 9.11597 5.55026 9.12886 5.54397 9.14317C5.53767 9.15749 5.53423 9.17294 5.53383 9.18863C5.53343 9.20433 5.53609 9.21994 5.54165 9.23457C5.54721 9.2492 5.55556 9.26255 5.56621 9.27384C5.85065 9.88686 6.1308 10.5043 6.42165 11.1195C6.62476 11.5806 6.96536 11.9639 7.39454 12.2145C7.82372 12.465 8.31942 12.5699 8.81047 12.5141C8.99468 12.5035 9.16912 12.4258 9.30235 12.2952C9.52802 12.0765 9.70848 11.8136 9.83302 11.5221C9.95756 11.2306 10.0236 10.9165 10.0273 10.5984ZM10.4315 11.2552C10.5309 11.3105 10.647 11.3253 10.7566 11.2968C11.2596 11.1693 11.7068 10.8739 12.0274 10.4572C12.3481 10.0405 12.524 9.52627 12.5274 8.99579C12.5274 8.28863 12.5274 7.57928 12.5274 6.87211C12.5274 6.82395 12.5145 6.79767 12.4696 6.78454C12.2878 6.7298 12.1103 6.65755 11.9264 6.61815C11.1341 6.45327 10.3185 6.44362 9.52263 6.58968C9.29237 6.64081 9.06528 6.70588 8.84255 6.78454C8.82913 6.78917 8.81694 6.79692 8.80692 6.80717C8.79691 6.81743 8.78934 6.82991 8.78481 6.84365C8.78481 6.92028 8.78481 6.99691 8.78481 7.0801H9.04144C9.09394 7.07841 9.14565 7.09354 9.18935 7.12336C9.23305 7.15319 9.26658 7.19623 9.28524 7.24649C9.35582 7.40194 9.43067 7.55738 9.49911 7.71502C9.52905 7.7931 9.58027 7.86073 9.64667 7.90987C9.80493 8.02153 9.88619 8.0281 10.0359 7.90987C10.083 7.87206 10.1424 7.85405 10.202 7.85951C10.2616 7.86496 10.317 7.89348 10.3568 7.93924C10.3966 7.98501 10.4178 8.04458 10.4162 8.10584C10.4146 8.16709 10.3903 8.22541 10.3481 8.26893C10.2607 8.36213 10.1484 8.42686 10.0252 8.45502C9.97174 8.47035 9.91613 8.47691 9.85411 8.49005L9.88833 8.56668C10.006 8.82502 10.1257 9.08118 10.2412 9.34171C10.2626 9.39426 10.2861 9.40083 10.3396 9.38988C10.5589 9.33351 10.7888 9.33571 11.0071 9.39627C11.2254 9.45684 11.4248 9.57374 11.5864 9.7358C11.6091 9.75722 11.6275 9.78302 11.6405 9.81172C11.6536 9.84042 11.6609 9.87146 11.6622 9.90307C11.6635 9.93469 11.6587 9.96625 11.6481 9.99596C11.6374 10.0257 11.6212 10.053 11.6003 10.0762C11.5794 10.0995 11.5542 10.1184 11.5261 10.1317C11.4981 10.145 11.4678 10.1525 11.4369 10.1539C11.406 10.1552 11.3752 10.1503 11.3461 10.1394C11.3171 10.1285 11.2905 10.1119 11.2677 10.0905C11.149 9.97257 11.0011 9.89006 10.84 9.85184C10.7111 9.81653 10.5754 9.81653 10.4465 9.85184C10.4679 10.0949 10.5021 10.3247 10.5 10.5546C10.4978 10.7845 10.4551 11.0253 10.4315 11.2443V11.2552Z" fill="#410EAD"/>
<path d="M8.01709 11.5335C7.87595 11.5028 7.73266 11.4809 7.58937 11.4415C7.55754 11.4343 7.52753 11.4203 7.50125 11.4005C7.47497 11.3808 7.45299 11.3556 7.4367 11.3267C7.42042 11.2978 7.41019 11.2657 7.40666 11.2325C7.40313 11.1993 7.40637 11.1658 7.41619 11.1339C7.42601 11.1021 7.44219 11.0727 7.4637 11.0476C7.48521 11.0225 7.51158 11.0023 7.54114 10.9882C7.57069 10.9741 7.60279 10.9664 7.63539 10.9657C7.668 10.9649 7.70039 10.9712 7.73052 10.9839C7.94707 11.0607 8.18432 11.0481 8.39194 10.9488C8.59956 10.8495 8.76121 10.6712 8.84259 10.4519C8.85242 10.4202 8.86869 10.3909 8.89033 10.366C8.91197 10.3412 8.9385 10.3213 8.96818 10.3076C8.99786 10.294 9.03002 10.2869 9.06256 10.2869C9.09509 10.2868 9.12726 10.2938 9.15697 10.3074C9.18633 10.3204 9.21282 10.3393 9.23485 10.3631C9.25688 10.3868 9.27401 10.4148 9.28519 10.4455C9.29638 10.4762 9.30139 10.5088 9.29994 10.5415C9.29849 10.5743 9.29059 10.6063 9.27673 10.6358C9.17651 10.8958 9.00348 11.1198 8.77938 11.2795C8.55528 11.4392 8.29008 11.5275 8.01709 11.5335Z" fill="#410EAD"/>
<path d="M8.93919 9.37659L8.87075 9.36345C8.84016 9.35201 8.80764 9.3469 8.7751 9.34843C8.74256 9.34995 8.71064 9.35808 8.6812 9.37234C8.65175 9.3866 8.62536 9.4067 8.60357 9.43148C8.58177 9.45627 8.56501 9.48524 8.55424 9.51671C8.5341 9.57739 8.49125 9.62739 8.4351 9.65572C8.37895 9.68405 8.31411 9.68839 8.25483 9.66778C8.19556 9.64716 8.14672 9.60329 8.11904 9.54581C8.09137 9.48833 8.08713 9.42194 8.10727 9.36127C8.13912 9.26914 8.18843 9.18436 8.25236 9.11179C8.3163 9.03923 8.3936 8.9803 8.47984 8.9384C8.56608 8.89649 8.65955 8.87243 8.75489 8.86761C8.85023 8.86278 8.94557 8.87727 9.03542 8.91026C9.08659 8.93052 9.1295 8.96801 9.1571 9.01655C9.18469 9.06509 9.19533 9.1218 9.18727 9.17736C9.17566 9.23526 9.14435 9.28707 9.09892 9.32356C9.05349 9.36004 8.99689 9.37884 8.93919 9.37659Z" fill="#410EAD"/>
<path d="M7.38077 10.1233H7.32089C7.2891 10.1105 7.2551 10.1046 7.22098 10.1058C7.18686 10.107 7.15334 10.1153 7.12249 10.1303C7.09163 10.1453 7.0641 10.1666 7.04158 10.1928C7.01907 10.2191 7.00204 10.2498 6.99155 10.2831C6.97291 10.33 6.94043 10.3698 6.89863 10.3968C6.85684 10.4239 6.80783 10.437 6.75844 10.4341C6.70841 10.4352 6.65961 10.4182 6.62053 10.3862C6.58146 10.3542 6.55458 10.3092 6.54458 10.259C6.53071 10.2082 6.53071 10.1544 6.54458 10.1036C6.6097 9.92209 6.74217 9.77429 6.91318 9.69229C7.08419 9.61029 7.2799 9.60073 7.45776 9.66568C7.51357 9.68245 7.56124 9.71997 7.59141 9.77088C7.62158 9.82179 7.63207 9.88241 7.62081 9.94083C7.60956 9.99925 7.57738 10.0512 7.5306 10.0866C7.48381 10.122 7.42579 10.1382 7.36794 10.132L7.38077 10.1233Z" fill="#410EAD"/>
<path d="M11.569 8.47265C11.3826 8.47226 11.2034 8.39858 11.0685 8.26685C11.0455 8.24572 11.0268 8.22015 11.0134 8.1916C11 8.16306 10.9923 8.13209 10.9906 8.10048C10.9889 8.06887 10.9933 8.03722 11.0036 8.00735C11.0138 7.97749 11.0297 7.94998 11.0504 7.9264C11.071 7.90283 11.096 7.88364 11.1239 7.86995C11.1518 7.85625 11.182 7.84832 11.2129 7.84659C11.2438 7.84486 11.2747 7.84938 11.3038 7.85988C11.333 7.87038 11.3599 7.88666 11.3829 7.90779C11.4067 7.93357 11.4354 7.9541 11.4672 7.96813C11.499 7.98217 11.5333 7.9894 11.5679 7.9894C11.6025 7.9894 11.6368 7.98217 11.6686 7.96813C11.7004 7.9541 11.7291 7.93357 11.7529 7.90779C11.7753 7.88408 11.8023 7.86534 11.8321 7.85274C11.8618 7.84013 11.8938 7.83393 11.9261 7.83451C11.9583 7.83509 11.9901 7.84245 12.0194 7.85613C12.0488 7.86981 12.075 7.88951 12.0966 7.91401C12.1182 7.93852 12.1346 7.96731 12.1449 7.99859C12.1552 8.02987 12.1591 8.06298 12.1563 8.09586C12.1536 8.12874 12.1442 8.16069 12.1289 8.18973C12.1136 8.21876 12.0926 8.24427 12.0673 8.26466C11.9338 8.39745 11.7551 8.47201 11.569 8.47265Z" fill="#410EAD"/>
</svg>
