<svg width="50" height="50" viewBox="0 0 50 50" fill="none" xmlns="http://www.w3.org/2000/svg">
<path fill-rule="evenodd" clip-rule="evenodd" d="M4.05214 0.16025C2.15221 0.621232 0.68224 2.04864 0.198577 3.90206C0.021614 4.58052 0.00631797 5.92448 0.000400585 21.3586C-0.00417702 33.158 0.0302109 38.2542 0.117297 38.672C0.541674 40.7079 2.17912 42.3461 4.21414 42.7707C4.59553 42.8502 6.55977 42.8932 9.74075 42.8916C14.3872 42.8893 14.7037 42.8764 15.154 42.672C16.3585 42.125 16.3585 40.0888 15.154 39.5418C14.7043 39.3376 14.385 39.3243 9.81902 39.3197C5.25303 39.3151 4.93371 39.3018 4.48399 39.0977C4.1189 38.9319 3.95433 38.7673 3.78864 38.402C3.59449 37.9741 3.57138 37.6578 3.56914 35.4096L3.56669 32.8957L7.13677 29.3253L10.7069 25.7549L12.9715 28.0034C14.882 29.9002 15.3014 30.2642 15.6538 30.3303C16.6747 30.5219 16.4986 30.6643 21.8459 25.3268L26.7833 20.3989L28.1633 21.7525C29.6374 23.1985 29.9044 23.3459 30.7594 23.1855C31.2868 23.0864 32.0002 22.3727 32.0992 21.8451C32.2742 20.9115 32.1823 20.7729 29.8232 18.4129C27.9598 16.5486 27.5636 16.2039 27.2083 16.1385C26.1841 15.95 26.3624 15.8059 21.0134 21.1448L16.0745 26.0746L13.8109 23.8272C10.5035 20.5433 10.9739 20.484 6.72077 24.7202L3.56669 27.8617L3.56914 16.4171C3.57149 5.32298 3.5783 4.95762 3.78864 4.49373C3.95433 4.12847 4.1189 3.96383 4.48399 3.79807C4.9508 3.58617 5.35809 3.58092 21.4305 3.58092C37.5029 3.58092 37.9102 3.58617 38.377 3.79807C38.7421 3.96383 38.9067 4.12847 39.0723 4.49373C39.274 4.93818 39.2897 5.25474 39.2943 8.93757C39.2989 12.6204 39.3146 12.937 39.5163 13.3814C40.063 14.5864 42.0984 14.5864 42.6451 13.3814C42.8471 12.9361 42.8624 12.6227 42.8646 8.85927C42.8662 6.32895 42.8208 4.59415 42.7437 4.22375C42.3193 2.18781 40.6819 0.549633 38.6469 0.125065C37.7466 -0.0627012 4.83312 -0.0293034 4.05214 0.16025ZM14.7704 7.30899C12.8705 7.76998 11.4005 9.19738 10.9169 11.0508C9.87987 15.0254 13.2212 18.5823 17.2103 17.7501C19.6553 17.2399 21.4305 15.0366 21.4305 12.5119C21.4305 9.0295 18.1716 6.48354 14.7704 7.30899ZM16.9404 10.9468C17.3055 11.1126 17.4701 11.2772 17.6358 11.6425C18.0794 12.6203 17.771 13.7 16.9404 14.0771C15.9631 14.5208 14.8839 14.2123 14.5069 13.3814C14.0633 12.4036 14.3717 11.3239 15.2023 10.9468C15.8086 10.6715 16.3341 10.6715 16.9404 10.9468ZM41.918 17.9494C41.1653 18.1179 40.2186 18.5057 39.608 18.8954C38.727 19.4578 20.1932 37.9201 19.8532 38.574C19.7191 38.8319 19.26 40.8547 18.6952 43.6755C17.6588 48.8518 17.6587 48.8532 18.3443 49.4554C18.5475 49.6339 18.9588 49.8486 19.2581 49.9325C19.7842 50.0798 19.9616 50.0536 24.5521 49.1492L29.3017 48.2134L38.8263 38.7122C45.7326 31.8228 48.4986 28.9917 48.8883 28.4132C49.616 27.3331 49.9082 26.4501 49.9822 25.1077C50.0589 23.719 49.8965 22.8773 49.319 21.6713C48.4881 19.9358 46.6964 18.4771 44.8652 18.0452C44.2061 17.8898 42.4407 17.8324 41.918 17.9494ZM44.6534 21.7197C45.1973 21.9974 45.8571 22.6487 46.132 23.1792C46.2773 23.4596 46.3828 23.9222 46.4154 24.4214C46.4915 25.5871 46.2533 26.2052 45.3716 27.1297L44.6648 27.8706L42.3424 25.5471L40.02 23.2237L40.76 22.5172C41.1981 22.099 41.6993 21.7375 41.9882 21.6315C42.6368 21.3934 44.1097 21.4422 44.6534 21.7197ZM39.8529 28.0943L42.14 30.3845L34.9037 37.6247L27.6675 44.8648L24.8695 45.3916C23.3306 45.6813 22.0507 45.8976 22.0254 45.8721C21.9999 45.8466 22.2126 44.5756 22.4981 43.0476L23.017 40.2692L30.2342 33.0366C34.2037 29.0587 37.4772 25.8041 37.5086 25.8041C37.5401 25.8041 38.5949 26.8347 39.8529 28.0943Z" fill="#FF01E6"/>
</svg>
