<svg width="44" height="41" viewBox="0 0 44 41" fill="none" xmlns="http://www.w3.org/2000/svg">
<path fill-rule="evenodd" clip-rule="evenodd" d="M15.4583 0.126084C15.3347 0.191648 15.1887 0.351524 15.1337 0.481306C15.0607 0.653454 15.0401 2.00861 15.0574 5.49333L15.0809 10.2695L15.3223 10.4723L15.5636 10.6752H18.2696H20.9756L20.9526 12.7135L20.9295 14.7519L14.1348 14.7939C6.70252 14.8399 7.26803 14.801 6.17528 15.3421C5.17216 15.8389 4.15355 17.1862 3.98412 18.2402C3.9092 18.7061 3.83343 18.8024 3.48526 18.8743C2.57486 19.0625 1.27896 20.0969 0.802471 21.0158C-0.031129 22.6235 0.278675 24.5549 1.5775 25.848C2.16219 26.4302 2.68108 26.7379 3.48913 26.9818C5.61511 27.6236 8.00865 26.3993 8.73061 24.3009L8.92155 23.7459L10.5155 23.7039C11.9784 23.6653 12.1238 23.6476 12.2862 23.4887C12.3835 23.3935 12.4851 23.1833 12.5119 23.0218C12.5514 22.784 12.5166 22.6767 12.3295 22.4594L12.0983 22.1909H10.5172H8.93609L8.80208 21.7405C8.64632 21.2167 8.17852 20.4225 7.78606 20.0154C7.377 19.591 6.54443 19.089 5.98374 18.9286C5.49951 18.7901 5.48859 18.7804 5.53959 18.5344C5.70421 17.7413 6.30258 17.0119 7.10538 16.6257L7.68053 16.349H21.7466H35.8127L36.3878 16.6257C37.1907 17.0119 37.789 17.7413 37.9536 18.5344C38.0046 18.7804 37.9937 18.7901 37.5095 18.9286C36.9488 19.089 36.1162 19.591 35.7072 20.0154C35.3147 20.4225 34.8469 21.2167 34.6911 21.7405L34.5571 22.1909H30.5379H26.5188L24.4122 20.123C23.2537 18.9857 22.1798 18.0018 22.0261 17.9364C21.7853 17.8341 21.7079 17.8341 21.4671 17.9364C21.3134 18.0018 20.2396 18.9857 19.081 20.123L16.9744 22.1909H15.6152C14.2868 22.1909 14.2513 22.1956 14.0449 22.3972C13.7793 22.6567 13.7424 22.9656 13.9327 23.3374C14.0896 23.644 14.3798 23.7039 15.7092 23.7039H16.9745L18.9735 25.6589L20.9725 27.6138V29.4834V31.353H14.6873H8.40197L8.15057 31.5987C7.83121 31.9109 7.82029 32.2572 8.119 32.6041L8.33884 32.8595L16.2684 32.8838L24.1979 32.9081L24.6843 33.1309C25.2591 33.3942 25.7511 33.8635 26.0478 34.4313C26.3367 34.984 26.3503 35.9929 26.077 36.5748C25.8155 37.1314 25.3322 37.6164 24.7708 37.8859L24.2839 38.1195L22.0476 38.1421C20.8177 38.1544 19.7254 38.1833 19.6203 38.2061C19.0846 38.3226 18.8887 39.0747 19.2915 39.4682L19.5026 39.6746H21.8991C24.4826 39.6746 24.7525 39.64 25.6576 39.192C26.524 38.7632 27.4762 37.5933 27.7204 36.6576L27.8214 36.2703L30.2281 36.248L32.6348 36.2258L32.7373 36.7107C32.9695 37.8093 33.8274 39.1191 34.7725 39.8182C35.9431 40.6839 37.2057 41.0699 38.6044 40.9896C40.1148 40.9029 41.1976 40.4203 42.3066 39.3399C42.8955 38.766 43.1124 38.482 43.3986 37.9094C45.3265 34.0537 42.3755 29.6427 38.0132 29.8597C36.0725 29.9562 34.3444 30.9711 33.3728 32.5849C33.0161 33.1774 32.6698 34.0889 32.6698 34.4349V34.6312H30.2342H27.7986L27.6515 34.1749C27.4666 33.6019 26.9189 32.7929 26.4494 32.3996C25.9786 32.0052 25.0042 31.5423 24.4227 31.437C24.1679 31.3908 23.6356 31.353 23.2401 31.353H22.5207V29.4821V27.6112L24.522 25.6567L26.5232 23.7022L30.5473 23.7241L34.5713 23.7459L34.7624 24.3009C35.5916 26.7089 38.4171 27.8325 40.7863 26.6964C41.8043 26.2083 42.1074 25.6705 41.6586 25.1492C41.3384 24.7772 41.0245 24.7943 40.1658 25.2306C39.5329 25.5522 39.4247 25.5803 38.8335 25.5765C38.3362 25.5734 38.0858 25.5252 37.7306 25.3645C36.0108 24.5858 35.5706 22.4138 36.8692 21.1142C37.4734 20.5097 37.9788 20.2991 38.8194 20.3017C39.6595 20.3043 40.2177 20.5196 40.7344 21.04C41.2088 21.5178 41.4383 21.9852 41.5456 22.6921C41.6213 23.1902 41.6769 23.3197 41.8899 23.495C42.2375 23.7808 42.5945 23.7679 42.9115 23.4582C43.1125 23.2617 43.1626 23.1396 43.1616 22.8488C43.1599 22.3407 42.9459 21.5079 42.6908 21.0158C42.2143 20.0969 40.9184 19.0625 40.008 18.8743C39.6598 18.8024 39.584 18.7061 39.5091 18.2402C39.3397 17.1862 38.3211 15.8389 37.3179 15.3421C36.2252 14.801 36.7907 14.8399 29.3584 14.7939L22.5637 14.7519L22.5407 12.7135L22.5176 10.6752H25.2236H27.9296L28.171 10.4723L28.4123 10.2695L28.4359 5.49333C28.4532 2.00214 28.4325 0.653538 28.3593 0.480718C28.1686 0.0307646 27.9881 0 25.5394 0C24.0832 0 23.2298 0.0325298 23.0933 0.0933025C22.6325 0.298484 22.5319 0.943196 22.9039 1.30666C23.1149 1.51301 23.1152 1.51301 24.9681 1.51301H26.8211V4.07673V6.64045H21.7466H16.6721V4.07673V1.51301H18.8106H20.9491L21.1759 1.29144C21.4938 0.980601 21.4842 0.571163 21.1512 0.245697L20.8998 0L18.2914 0.00336225C16.2063 0.00605205 15.6379 0.0306806 15.4583 0.126084ZM18.8157 3.27172C18.5894 3.49288 18.5643 3.57197 18.5643 4.06379C18.5643 4.52895 18.5974 4.64865 18.787 4.86879C19.08 5.20914 19.5825 5.23267 19.9013 4.92108C20.0875 4.73918 20.1124 4.64117 20.1124 4.09203C20.1124 3.53121 20.0899 3.44715 19.8857 3.2476C19.5677 2.93684 19.1487 2.94626 18.8157 3.27172ZM21.2372 3.24365C20.9863 3.44992 20.9725 3.49313 20.9725 4.07278C20.9725 4.62133 20.9958 4.70699 21.1993 4.90586C21.5114 5.21082 21.9819 5.21082 22.294 4.90586C22.4954 4.709 22.5207 4.61906 22.5207 4.10086C22.5207 3.56811 22.4988 3.49607 22.2693 3.27172C21.9487 2.95853 21.5956 2.94886 21.2372 3.24365ZM23.6075 3.2476C23.4033 3.44715 23.3808 3.53121 23.3808 4.09203C23.3808 4.64117 23.4057 4.73918 23.5919 4.92108C23.9107 5.23267 24.4132 5.20914 24.7063 4.86879C24.8958 4.64865 24.9289 4.52895 24.9289 4.06379C24.9289 3.57197 24.9038 3.49288 24.6775 3.27172C24.3445 2.94626 23.9256 2.93684 23.6075 3.2476ZM26.8211 8.6578V9.16214H21.7466H16.6721V8.6578V8.15346H21.7466H26.8211V8.6578ZM23.424 21.3506L25.0568 22.948L23.4017 24.5655L21.7466 26.183L20.0915 24.5655L18.4364 22.948L20.0692 21.3506C20.9672 20.472 21.722 19.7532 21.7466 19.7532C21.7712 19.7532 22.526 20.472 23.424 21.3506ZM5.80424 20.5149C7.18038 21.1639 7.77161 22.8027 7.09678 24.0979C6.09168 26.027 3.32408 26.094 2.27735 24.2144C1.44126 22.7131 2.19745 20.9214 3.89974 20.37C4.401 20.2077 5.29747 20.2759 5.80424 20.5149ZM3.25467 31.4869C2.47165 31.6902 1.86735 32.0338 1.27518 32.6126C0.178819 33.684 -0.230842 35.06 0.125149 36.4751C0.497052 37.9535 1.55101 39.0396 3.08266 39.5229C3.51915 39.6605 4.07735 39.6722 10.3097 39.6733C16.3648 39.6744 17.0842 39.6606 17.2605 39.54C17.5425 39.3469 17.6429 39.0358 17.5304 38.7027C17.3399 38.1386 17.7302 38.169 10.3358 38.143L3.64171 38.1195L3.16866 37.8999C2.20218 37.4512 1.68664 36.6875 1.63461 35.6274C1.60734 35.0709 1.63409 34.9167 1.8338 34.482C2.37128 33.3114 3.29579 32.8677 5.19968 32.8665C5.93153 32.866 5.99853 32.8513 6.21029 32.6445C6.52826 32.3336 6.51863 31.9242 6.1856 31.5987L5.9342 31.353L4.83096 31.3586C4.1545 31.3619 3.5447 31.4116 3.25467 31.4869ZM39.5861 31.6027C40.2113 31.8129 40.6006 32.0453 41.1223 32.5195C41.9536 33.2754 42.3888 34.2689 42.3888 35.4111C42.3888 36.566 42.0208 37.4363 41.1887 38.2496C40.36 39.0594 39.4334 39.4345 38.272 39.4303C37.1028 39.4261 36.1059 38.9961 35.275 38.1375C34.0396 36.861 33.821 34.951 34.7325 33.3982C35.0741 32.8162 35.7402 32.19 36.3455 31.8816C36.78 31.6603 37.0128 31.583 37.7873 31.4024C38.1121 31.3267 39.0887 31.4355 39.5861 31.6027ZM38.8228 34.5471C38.2487 35.1019 37.7406 35.5558 37.6938 35.5558C37.6471 35.5558 37.4198 35.3683 37.1888 35.1391C36.7065 34.6605 36.411 34.5618 36.033 34.7528C35.7188 34.9116 35.5941 35.117 35.5941 35.4756C35.5941 35.701 35.7251 35.8719 36.4327 36.5688C37.3159 37.4388 37.575 37.5781 37.9948 37.4082C38.1306 37.3531 38.8459 36.7104 39.5842 35.98C40.865 34.7128 40.9266 34.6365 40.9266 34.3168C40.9266 33.8711 40.6032 33.5385 40.17 33.5385C39.898 33.5385 39.7597 33.642 38.8228 34.5471ZM5.77981 34.752C5.27726 34.967 5.21602 35.6253 5.66207 36.0181C5.84957 36.1833 5.99208 36.1867 13.6923 36.2108C18.0039 36.2243 21.6617 36.2124 21.8208 36.1842C22.4761 36.0683 22.7375 35.3913 22.3132 34.9091L22.1056 34.6732L14.0778 34.6548C7.42362 34.6396 6.0037 34.6562 5.77981 34.752Z" fill="#FF6900"/>
</svg>
