<svg width="41" height="41" viewBox="0 0 41 41" fill="none" xmlns="http://www.w3.org/2000/svg">
<path fill-rule="evenodd" clip-rule="evenodd" d="M0.202933 0.202933L0 0.405784V9.91936V19.4329L0.202933 19.6358C0.398345 19.8313 0.446867 19.8387 1.52551 19.8387H2.64516V21.6196C2.64516 23.4004 2.64516 23.4007 2.84809 23.6035C2.98019 23.7357 3.1446 23.8065 3.31951 23.8065C3.55973 23.8065 3.79796 23.5972 5.57798 21.8226L7.56789 19.8387H13.5004H19.4329L19.6358 19.6358L19.8387 19.4329V9.91936V0.405784L19.6358 0.202933L19.4329 0H9.91936H0.405784L0.202933 0.202933ZM18.5161 9.91936V18.5161H12.7555H6.99505L5.48135 20.0218L3.96774 21.5274V20.2247C3.96774 18.9518 3.96311 18.9173 3.76481 18.7191C3.5694 18.5236 3.52087 18.5161 2.44223 18.5161H1.32258V9.91936V1.32258H9.91936H18.5161V9.91936ZM11.0983 5.90962L7.85489 7.26022L6.46924 7.28792C5.18047 7.31362 5.0616 7.32925 4.76815 7.51168C4.23647 7.84224 4.02577 8.25257 3.98494 9.03703C3.96534 9.41264 3.99238 9.87067 4.04577 10.0684C4.16704 10.5174 4.6745 11.0379 5.10367 11.1535L5.42167 11.2391L5.70611 12.7078C6.08238 14.6511 5.97641 14.5484 7.60484 14.5484C8.81905 14.5484 8.85765 14.543 9.05513 14.3455C9.30642 14.0942 9.30626 14.0685 9.04463 12.7774C8.92725 12.1979 8.8436 11.7134 8.85865 11.7006C8.87377 11.6878 10.1281 12.1931 11.6461 12.8235C13.1641 13.454 14.4956 13.9698 14.605 13.9698C14.7144 13.9698 14.8952 13.8784 15.0067 13.7668L15.2097 13.564V9.25807V4.95216L15.0067 4.7493C14.8827 4.62515 14.7142 4.54885 14.5728 4.55265C14.4457 4.55613 12.8822 5.16674 11.0983 5.90962ZM21.3642 5.49326L21.1613 5.69611V10.5806V15.4652L21.3642 15.668L21.5671 15.871H29.0968H36.6265L36.8293 15.668L37.0323 15.4652V10.5806V5.69611L36.8293 5.49326L36.6265 5.29032H29.0968H21.5671L21.3642 5.49326ZM13.8683 10.7787L13.8458 12.2993L11.2213 11.2207L8.59677 10.1421V9.26038V8.37863L11.2213 7.29676L13.8458 6.21489L13.8683 7.73644C13.8806 8.57338 13.8806 9.94234 13.8683 10.7787ZM35.7097 10.5806V14.5484H29.0968H22.4839V10.5806V6.6129H29.0968H35.7097V10.5806ZM24.0094 8.13842C23.8814 8.26629 23.8065 8.43575 23.8065 8.59677C23.8065 8.7578 23.8814 8.92725 24.0094 9.05513L24.2122 9.25807H29.0968H33.9813L34.1842 9.05513C34.3121 8.92725 34.3871 8.7578 34.3871 8.59677C34.3871 8.43575 34.3121 8.26629 34.1842 8.13842L33.9813 7.93548H29.0968H24.2122L24.0094 8.13842ZM7.27419 9.25807V9.91936H6.38145C5.79728 9.91936 5.45441 9.88505 5.38952 9.82016C5.33496 9.76561 5.29032 9.51266 5.29032 9.25807C5.29032 9.00347 5.33496 8.75052 5.38952 8.69597C5.45441 8.63108 5.79728 8.59677 6.38145 8.59677H7.27419V9.25807ZM24.0094 10.1223C23.8814 10.2502 23.8065 10.4196 23.8065 10.5806C23.8065 10.7417 23.8814 10.9111 24.0094 11.039L24.2122 11.2419H29.0968H33.9813L34.1842 11.039C34.3121 10.9111 34.3871 10.7417 34.3871 10.5806C34.3871 10.4196 34.3121 10.2502 34.1842 10.1223L33.9813 9.91936H29.0968H24.2122L24.0094 10.1223ZM7.55384 12.0066C7.63435 12.4271 7.72065 12.8735 7.74553 12.9985C7.78876 13.2156 7.77628 13.2258 7.46589 13.2258H7.14094L6.99455 12.4612C6.91404 12.0406 6.82774 11.5942 6.80286 11.4693C6.75963 11.2521 6.77211 11.2419 7.0825 11.2419H7.40744L7.55384 12.0066ZM24.0094 12.1062C23.8814 12.234 23.8065 12.4035 23.8065 12.5645C23.8065 12.7255 23.8814 12.895 24.0094 13.0229L24.2122 13.2258H27.0716H29.9309L30.1338 13.0229C30.2617 12.895 30.3367 12.7255 30.3367 12.5645C30.3367 12.4035 30.2617 12.234 30.1338 12.1062L29.9309 11.9032H27.0716H24.2122L24.0094 12.1062ZM31.2836 12.1062C31.1556 12.234 31.0806 12.4035 31.0806 12.5645C31.0806 12.7255 31.1556 12.895 31.2836 13.0229C31.4608 13.2002 31.5605 13.2258 32.0726 13.2258C32.5847 13.2258 32.6844 13.2002 32.8616 13.0229C32.9895 12.895 33.0645 12.7255 33.0645 12.5645C33.0645 12.4035 32.9895 12.234 32.8616 12.1062C32.6844 11.9289 32.5847 11.9032 32.0726 11.9032C31.5605 11.9032 31.4608 11.9289 31.2836 12.1062ZM21.3642 17.3965L21.1613 17.5993V27.1129V36.6265L21.3642 36.8293L21.5671 37.0323H27.4996H33.4321L35.422 39.0161C37.202 40.7907 37.4403 41 37.6805 41C37.8554 41 38.0198 40.9292 38.1519 40.7971C38.3548 40.5942 38.3548 40.594 38.3548 38.8132V37.0323H39.4745C40.5531 37.0323 40.6017 37.0248 40.7971 36.8293L41 36.6265V27.1129V17.5993L40.7971 17.3965L40.5942 17.1935H31.0806H21.5671L21.3642 17.3965ZM39.6774 27.1129V35.7097H38.5578C37.4791 35.7097 37.4306 35.7171 37.2352 35.9126C37.0369 36.1108 37.0323 36.1453 37.0323 37.4182V38.7209L35.5186 37.2154L34.005 35.7097H28.2445H22.4839V27.1129V18.5161H31.0806H39.6774V27.1129ZM6.15455 22.0255L5.95161 22.2284V26.4516V30.6749L6.15455 30.8777L6.3574 31.0806H13.2258H20.0942L20.2971 30.8777L20.5 30.6749V26.4516V22.2284L20.2971 22.0255L20.0942 21.8226H13.2258H6.3574L6.15455 22.0255ZM26.6545 22.6868L26.4516 22.8897V27.1129V31.3362L26.6545 31.539C26.7769 31.6614 26.9491 31.7402 27.0885 31.7376C27.2194 31.7352 29.1112 30.8304 31.4526 29.6504C35.0522 27.8364 35.5958 27.5382 35.6636 27.3402C35.8547 26.7832 35.9247 26.8291 31.4526 24.5754C29.1112 23.3954 27.2194 22.4906 27.0885 22.4882C26.9491 22.4856 26.7769 22.5644 26.6545 22.6868ZM19.1774 26.4516V29.7581H13.2258H7.27419V26.4516V23.1452H13.2258H19.1774V26.4516ZM8.13842 24.0094C8.01046 24.1373 7.93548 24.3067 7.93548 24.4677C7.93548 24.6288 8.01046 24.7982 8.13842 24.9261L8.34127 25.129H13.2258H18.1103L18.3132 24.9261C18.5817 24.6577 18.5817 24.2778 18.3132 24.0094L18.1103 23.8065H13.2258H8.34127L8.13842 24.0094ZM33.4778 27.1129C33.4778 27.1362 32.1945 27.7967 30.626 28.5806L27.7742 30.0057V27.1129V24.2201L30.626 25.6453C32.1945 26.4291 33.4778 27.0896 33.4778 27.1129ZM8.13842 25.9933C8.01046 26.1211 7.93548 26.2906 7.93548 26.4516C7.93548 26.6126 8.01046 26.7821 8.13842 26.91L8.34127 27.1129H13.2258H18.1103L18.3132 26.91C18.5817 26.6416 18.5817 26.2617 18.3132 25.9933L18.1103 25.7903H13.2258H8.34127L8.13842 25.9933ZM8.13842 27.9771C8.01046 28.105 7.93548 28.2745 7.93548 28.4355C7.93548 28.5965 8.01046 28.766 8.13842 28.8938L8.34127 29.0968H11.2006H14.0599L14.2628 28.8938C14.3908 28.766 14.4657 28.5965 14.4657 28.4355C14.4657 28.2745 14.3908 28.105 14.2628 27.9771L14.0599 27.7742H11.2006H8.34127L8.13842 27.9771ZM15.4126 27.9771C15.2847 28.105 15.2097 28.2745 15.2097 28.4355C15.2097 28.5965 15.2847 28.766 15.4126 28.8938C15.5898 29.0712 15.6895 29.0968 16.2016 29.0968C16.7137 29.0968 16.8134 29.0712 16.9906 28.8938C17.1186 28.766 17.1935 28.5965 17.1935 28.4355C17.1935 28.2745 17.1186 28.105 16.9906 27.9771C16.8134 27.7998 16.7137 27.7742 16.2016 27.7742C15.6895 27.7742 15.5898 27.7998 15.4126 27.9771Z" fill="#FCB900"/>
</svg>
