<svg width="52" height="50" viewBox="0 0 52 50" fill="none" xmlns="http://www.w3.org/2000/svg">
<path fill-rule="evenodd" clip-rule="evenodd" d="M13.7086 0.0282061C12.8899 0.143269 12.2143 0.650529 11.868 1.41019C11.7031 1.77173 11.6813 2.11569 11.6793 4.3907L11.6771 6.96245L9.92494 7.54462C8.9613 7.86487 7.98609 8.23397 7.75795 8.36498C7.22357 8.67175 6.63352 9.33178 6.35836 9.93039L6.14129 10.4027L6.11407 24.1214L6.08695 37.8401H5.7545C5.22032 37.8401 4.26968 38.1213 3.44957 38.5218C2.37329 39.0475 1.18273 40.2505 0.66694 41.3334C0.0873562 42.5502 -0.000505693 43.1605 2.17963e-06 45.964C0.000408477 48.1405 0.0218407 48.4638 0.190353 48.8371C0.425091 49.3571 0.923415 49.7513 1.52169 49.8899C2.1548 50.0367 49.8434 50.0367 50.4765 49.8899C51.0748 49.7513 51.5731 49.3571 51.8078 48.8371C51.9796 48.4566 51.9979 48.1238 51.9999 45.3468C52.0023 42.0127 51.9571 41.6368 51.4173 40.515C51.0815 39.8171 50.1116 38.8137 49.4031 38.431C48.6832 38.0423 47.8274 37.8401 46.9021 37.8401H46.1108V31.3674C46.1108 24.3574 46.1087 24.3281 45.5569 23.6003C45.4056 23.4007 45.0479 23.1201 44.7621 22.9768L44.2426 22.7163H37.3047H30.3668V13.1384V3.56042L31.2556 4.43627C31.7444 4.91799 33.0814 6.21986 34.2266 7.32931C35.3719 8.43876 36.387 9.49221 36.4824 9.67022C36.6391 9.96268 36.6563 10.4805 36.6601 15.0313L36.6644 20.0687L36.9138 20.3195C37.2349 20.6426 37.6744 20.6474 37.9698 20.3309L38.1934 20.0916L38.1654 14.8384L38.1372 9.5852L37.8604 9.01827C37.6304 8.54698 36.9555 7.83994 33.8615 4.82857C31.8142 2.83602 30.012 1.14205 29.8565 1.06418C29.5897 0.930523 29.2035 1.04702 23.0632 3.11243L16.5527 5.30231V3.75795C16.5527 2.6952 16.5061 2.05663 16.4033 1.70981C16.0517 0.524531 14.9717 -0.149498 13.7086 0.0282061ZM14.4733 1.62284C14.6852 1.72401 14.8524 1.90161 14.9204 2.09791C14.9808 2.27235 15.0291 3.1716 15.0291 4.12429V5.83706L14.1149 6.14557L13.2007 6.45397V4.27799C13.2007 2.24956 13.2146 2.08422 13.4059 1.83958C13.5187 1.69519 13.713 1.55734 13.8376 1.53312C13.9621 1.5089 14.08 1.48285 14.0995 1.47518C14.1191 1.46752 14.2873 1.53394 14.4733 1.62284ZM28.8432 4.87609V6.96235L24.5517 8.40238C15.1633 11.5525 11.9445 12.6795 11.8111 12.8632C11.4698 13.3327 11.8099 14.0304 12.3801 14.0304C12.5433 14.0304 16.2799 12.812 20.6838 11.3228C25.0877 9.83372 28.725 8.61513 28.767 8.61483C28.8089 8.61462 28.8432 9.48434 28.8432 10.5475V12.4805L23.9422 14.1248C14.743 17.2111 11.9491 18.1914 11.8107 18.3818C11.4705 18.8499 11.81 19.5485 12.3778 19.5485C12.5396 19.5485 16.2829 18.3299 20.6962 16.8405C25.1095 15.3511 28.748 14.1326 28.7818 14.1326C28.8155 14.1326 28.8432 15.0025 28.8432 16.0656V17.9986L23.4851 19.7963C14.381 22.8508 11.9529 23.7044 11.8105 23.9004C11.4701 24.3686 11.8104 25.0666 12.3789 25.0666C12.5414 25.0666 16.2825 23.848 20.6924 22.3587C25.1024 20.8693 28.7403 19.6507 28.7768 19.6507C28.8133 19.6507 28.8432 20.5171 28.8432 21.5762V23.5016L20.4379 26.3364C14.5994 28.3054 11.9784 29.2343 11.8549 29.3783C11.4649 29.8329 11.7945 30.5848 12.3837 30.5848C12.5444 30.5848 16.2817 29.3662 20.6887 27.8768C25.0956 26.3874 28.7333 25.1688 28.7723 25.1688C28.8113 25.1688 28.8432 26.0179 28.8432 27.0557C28.8432 28.7903 28.8279 28.9508 28.6544 29.0443C28.5504 29.1002 26.2097 29.9076 23.4526 30.8385C20.6955 31.7694 18.3407 32.5963 18.2197 32.6761C17.9129 32.8784 17.8248 33.3055 18.0262 33.6147C18.395 34.1809 18.2723 34.2077 23.6594 32.3824C26.4118 31.45 28.7042 30.6869 28.754 30.6869C28.8062 30.6869 28.8333 34.4251 28.8184 39.5517L28.7924 48.4165L25.5166 48.4435L22.2408 48.4705L22.2402 44.4071C22.2399 42.0556 22.1976 40.1911 22.1397 39.9815C21.9449 39.2759 20.9858 38.6686 20.3171 38.8273C19.2524 39.08 12.8583 40.92 12.6274 41.0402C12.4677 41.1234 12.2629 41.2766 12.1724 41.3807C11.7431 41.8748 11.7295 41.9809 11.6771 45.2487L11.6263 48.4165H9.64561H7.66491L7.63921 29.6617L7.61362 10.907L7.84236 10.4565C7.96821 10.2086 8.19228 9.91721 8.34028 9.80889C8.48827 9.70047 12.3506 8.34812 16.9233 6.80355C21.496 5.25899 26.0143 3.7276 26.9641 3.4004C27.9138 3.07319 28.725 2.80199 28.767 2.79759C28.8089 2.7933 28.8432 3.72862 28.8432 4.87609ZM44.3242 24.5636L44.5872 24.8779L44.5852 31.5379L44.5832 38.1977L44.0654 38.5043C42.505 39.4282 41.5475 41.1633 41.5417 43.0772L41.54 43.6648H35.9534H30.3668V33.957V24.2491H37.214H44.0613L44.3242 24.5636ZM32.9988 26.3215C32.4717 26.6788 32.4014 26.9135 32.3998 28.3209C32.3982 29.7076 32.4894 30.0049 33.0118 30.3154C33.2596 30.4627 33.7805 30.4826 37.4014 30.4826H41.5099L41.8551 30.2489C42.3485 29.9148 42.4787 29.4375 42.4322 28.1323C42.3881 26.8933 42.2399 26.51 41.7069 26.2556C41.4013 26.1098 40.8482 26.0885 37.3497 26.0885C33.3467 26.0885 33.3421 26.0887 32.9988 26.3215ZM40.9305 28.2855V28.9498H37.4262H33.9219V28.2855V27.6213H37.4262H40.9305V28.2855ZM32.9988 32.1462C32.8099 32.2743 32.5981 32.4928 32.5282 32.6316C32.3362 33.0132 32.3544 35.3123 32.5524 35.6975C32.8636 36.303 32.8979 36.3073 37.4642 36.3073H41.626L41.9365 36.0443C42.3575 35.688 42.484 35.1443 42.4341 33.9065C42.3865 32.7217 42.2306 32.3303 41.7069 32.0803C41.4013 31.9345 40.8482 31.9132 37.3497 31.9132C33.3467 31.9132 33.3421 31.9134 32.9988 32.1462ZM40.9305 34.1102V34.7745H37.4262H33.9219V34.1102V33.446H37.4262H40.9305V34.1102ZM13.52 34.1986C12.5679 34.5234 11.9049 34.8065 11.8186 34.9254C11.4843 35.3853 11.8183 36.1029 12.3666 36.1029C12.7607 36.1029 15.7 35.0995 15.8545 34.9122C15.9257 34.826 15.9839 34.5928 15.9839 34.3941C15.9839 33.9872 15.6642 33.6449 15.2971 33.6585C15.1777 33.6629 14.3779 33.906 13.52 34.1986ZM32.9948 38.0122C32.4869 38.3294 32.3982 38.6258 32.3998 40.0018C32.4014 41.4141 32.471 41.6433 33.0085 42.0077C33.3489 42.2385 33.4223 42.2461 35.0211 42.2151L36.6806 42.1831L37.0279 41.8014L37.3754 41.4196V40.0846C37.3754 37.9333 37.2696 37.8388 34.8665 37.8428C33.5631 37.845 33.2116 37.8768 32.9948 38.0122ZM6.09051 41.5188V43.6648H3.80315H1.5158L1.57766 43.3838C1.83058 42.2346 2.3096 41.3499 3.05526 40.6554C3.85455 39.911 4.92758 39.4156 5.81118 39.3831L6.09051 39.3729V41.5188ZM35.8518 40.0371V40.7013H34.8869H33.9219V40.0371V39.3729H34.8869H35.8518V40.0371ZM48.5267 39.7142C49.7335 40.341 50.3847 41.3877 50.4598 42.8217L50.504 43.6648H46.7693H43.0345L43.0899 42.8529C43.1557 41.8869 43.4955 41.0498 44.0592 40.465C44.8835 39.6099 45.5607 39.3638 46.9742 39.4055C47.8467 39.4312 48.0656 39.4748 48.5267 39.7142ZM20.6931 44.4375L20.6664 48.4165H19.1936H17.7208L17.6942 44.7821L17.6675 41.1477L19.1162 40.7329C19.913 40.5047 20.5997 40.3496 20.6423 40.3882C20.6848 40.4269 20.7077 42.2491 20.6931 44.4375ZM16.1464 45.0443V48.4676H14.672H13.1977L13.2246 45.4288L13.2515 42.3902L14.572 42.0117C15.2982 41.8034 15.9496 41.6304 16.0194 41.627C16.1185 41.6223 16.1464 42.3706 16.1464 45.0443ZM6.09051 46.8326V48.4676H4.06562C2.95196 48.4676 1.92352 48.4227 1.7802 48.368L1.51966 48.2683V46.733V45.1976H3.80508H6.09051V46.8326ZM41.54 46.8326V48.4676H35.9534H30.3668V46.8326V45.1976H35.9534H41.54V46.8326ZM50.477 46.6538C50.4761 47.4546 50.4321 48.1789 50.3792 48.2632C50.2966 48.3947 49.7741 48.4165 46.6986 48.4165H43.1144L43.0865 46.807L43.0584 45.1976H46.7685H50.4785L50.477 46.6538Z" fill="#970FB9"/>
</svg>
