<svg width="51" height="41" viewBox="0 0 51 41" fill="none" xmlns="http://www.w3.org/2000/svg">
<path fill-rule="evenodd" clip-rule="evenodd" d="M4.88227 0.101379C3.44604 0.232412 1.79152 1.25423 0.974043 2.5151C0.782928 2.80982 0.485555 3.41231 0.313237 3.85391L0 4.6568L0.00206434 19.3766L0.00412868 34.0964L0.284336 34.8566C1.02131 36.8559 2.80131 38.3742 4.72995 38.6488C5.12717 38.7054 10.1175 38.7498 16.2142 38.751L26.9959 38.7532L27.3508 38.4408C27.6533 38.1745 27.7056 38.0564 27.7056 37.6404C27.7056 37.2523 27.6452 37.0928 27.411 36.8619L27.1162 36.5715L15.9019 36.4837L4.68768 36.3961L4.19822 36.1135C3.15355 35.5102 2.33596 34.3174 2.33596 33.3965V33.0794H14.7017H27.0674L27.3634 32.7749C27.9834 32.1373 27.7899 31.1529 27.0022 30.9373C26.7628 30.8717 22.0661 30.8322 14.4746 30.8319L2.33021 30.8312L2.36019 17.744L2.39029 4.6568L2.71276 4.08311C3.07989 3.42998 3.67409 2.8839 4.43366 2.50129L4.95594 2.23826L24.3165 2.26995L43.6771 2.30164L44.2901 2.59817C45.0056 2.94449 45.7249 3.66881 46.0316 4.35213C46.2224 4.77702 46.2584 5.18554 46.3341 7.79035L46.42 10.7463L46.7614 11.047C47.2575 11.4837 47.768 11.4331 48.3762 10.8874C48.6115 10.6762 48.6203 10.602 48.6132 8.89353C48.609 7.91753 48.5684 6.4205 48.5229 5.56675C48.4424 4.05527 48.4293 3.99361 48.0299 3.21855C47.3216 1.84388 46.1577 0.821096 44.6768 0.271914L43.9437 0L24.7967 0.0157368C14.2659 0.024301 5.30438 0.0629471 4.88227 0.101379ZM17.9825 8.44166C17.4253 8.73606 16.9837 9.33341 16.8847 9.92648C16.8377 10.2076 16.7963 13.5834 16.7929 17.4282C16.7857 25.0982 16.7506 24.6796 17.4562 25.3319C17.9743 25.811 18.215 25.9068 18.901 25.9068C19.6695 25.9068 19.7821 25.8513 24.8264 22.9872C32.472 18.6461 32.6188 18.5493 32.8617 17.6872C33.0026 17.1873 33.0026 16.9625 32.8617 16.4627C32.6244 15.6208 32.6518 15.6387 24.4461 10.9641C22.2949 9.73861 20.2658 8.62622 19.9372 8.49208C19.2078 8.19437 18.4857 8.17574 17.9825 8.44166ZM23.3265 12.966C27.8788 15.5559 29.9945 16.7723 30.2828 16.9654C30.4445 17.0738 30.3278 17.174 29.4136 17.7116C27.6106 18.7719 19.4044 23.4474 19.2316 23.5127C19.087 23.5674 19.068 22.8219 19.068 17.0864C19.068 13.5179 19.0897 10.5982 19.1163 10.5982C19.143 10.5982 21.0376 11.6637 23.3265 12.966ZM38.5434 11.7817L38.1903 12.1078V19.7435V27.3791L36.9137 27.4281C35.4143 27.4857 34.4624 27.7655 33.3625 28.4715C31.439 29.7063 30.3035 31.5818 30.1799 33.7284C30.102 35.0791 30.2782 36.0318 30.8021 37.0938C31.5176 38.5442 32.5853 39.6165 34.0073 40.3131C35.064 40.8308 35.7945 40.9985 36.9995 41C38.2596 41.0016 39.0429 40.817 40.2514 40.234C42.0295 39.3761 43.582 37.3585 43.8319 35.5808C43.8887 35.1765 43.97 31.9914 44.0125 28.5028C44.055 25.0142 44.1147 22.16 44.1453 22.16C44.1758 22.16 45.4641 22.5701 47.0081 23.0714C49.7224 23.9527 49.8277 23.9778 50.1874 23.8298C50.9229 23.5269 50.948 23.4148 50.9911 20.2408C51.0333 17.1189 50.9289 15.8176 50.6121 15.5185C50.404 15.3222 49.3035 14.8966 45.3156 13.4709C41.7126 12.1827 39.4962 11.4546 39.1799 11.4552C39.0143 11.4554 38.7497 11.5913 38.5434 11.7817ZM44.6549 15.6685L48.5663 17.0953L48.5973 18.905C48.6143 19.9004 48.6022 20.8194 48.5701 20.9475C48.5136 21.1738 48.4346 21.1546 45.6522 20.2394L42.7925 19.2988L42.3961 19.4991C42.1782 19.6093 41.9371 19.8075 41.8606 19.9395C41.7529 20.1251 41.7061 21.8779 41.6539 27.6732C41.6132 32.2021 41.5428 35.3245 41.476 35.5652C41.18 36.6317 39.8711 38.0192 38.768 38.4359C36.9629 39.1176 35.0363 38.6757 33.7158 37.2768C33.0711 36.5939 32.7969 36.1281 32.5989 35.3791C32.1691 33.7531 32.6679 32.0796 33.9284 30.9177C34.5579 30.3375 35.1213 30.0348 35.9825 29.8137C36.8223 29.5982 37.4454 29.6122 38.3812 29.8678C39.3976 30.1453 39.7414 30.1383 40.1022 29.8325C40.3709 29.6047 40.4039 29.4909 40.4832 28.5211C40.5309 27.937 40.5724 24.4844 40.5753 20.8486C40.5782 17.2127 40.6172 14.2389 40.6621 14.2399C40.7069 14.2408 42.5037 14.8838 44.6549 15.6685Z" fill="#09C928"/>
</svg>
