<svg width="37" height="41" viewBox="0 0 37 41" fill="none" xmlns="http://www.w3.org/2000/svg">
<path d="M21.2537 40.7982C20.3301 40.9326 19.3975 41 18.4637 41C13.7986 40.9914 9.30917 39.2715 5.89456 36.1848C2.47995 33.098 0.392358 28.8723 0.0499331 24.3542C-0.292492 19.8361 1.13554 15.3592 4.04799 11.8202C6.96044 8.28118 11.1422 5.94148 15.7557 5.26973C16.1932 5.20388 16.6307 5.15609 17.0681 5.12529L15.4068 2.73556C15.2741 2.54475 15.1813 2.33041 15.1338 2.10479C15.0863 1.87916 15.085 1.64666 15.1301 1.42056C15.1751 1.19446 15.2656 0.979192 15.3963 0.787043C15.527 0.594893 15.6954 0.429627 15.8919 0.30068C16.0884 0.171733 16.3091 0.0816319 16.5414 0.0355184C16.7737 -0.0105951 17.0132 -0.0118199 17.246 0.0319206C17.4788 0.075661 17.7005 0.16351 17.8983 0.290446C18.0962 0.417381 18.2664 0.580914 18.3992 0.77172L22.7553 7.04558L17.3252 13.7092C17.1794 13.8933 16.9975 14.0474 16.79 14.1625C16.5824 14.2777 16.3533 14.3517 16.1161 14.3802C15.8788 14.4087 15.6381 14.3911 15.4079 14.3285C15.1777 14.2659 14.9626 14.1595 14.7751 14.0155C14.5876 13.8715 14.4314 13.6927 14.3157 13.4896C14.1999 13.2864 14.1269 13.063 14.1008 12.8322C14.0747 12.6015 14.0961 12.3679 14.1637 12.1453C14.2313 11.9226 14.3438 11.7152 14.4947 11.5351L16.8286 8.66741C16.6525 8.68547 16.4721 8.70671 16.296 8.73326C13.3843 9.15758 10.6676 10.4109 8.48944 12.3346C6.31125 14.2584 4.76943 16.7662 4.05893 19.541C3.34844 22.3157 3.50119 25.2328 4.49788 27.9232C5.49456 30.6136 7.29042 32.9566 9.65833 34.6559C12.0262 36.3551 14.8599 37.3343 17.8008 37.4696C20.7418 37.6049 23.658 36.8902 26.1807 35.4159C28.7034 33.9416 30.7193 31.774 31.9734 29.1871C33.2275 26.6002 33.6635 23.7102 33.2263 20.8827C33.1876 20.6535 33.1962 20.4192 33.2515 20.1932C33.3068 19.9673 33.4078 19.7543 33.5486 19.5666C33.6894 19.3789 33.8672 19.2202 34.0717 19.0998C34.2761 18.9793 34.5032 18.8995 34.7396 18.865C34.9761 18.8305 35.2173 18.8419 35.4492 18.8986C35.681 18.9553 35.899 19.0562 36.0904 19.1954C36.2819 19.3346 36.4429 19.5093 36.5642 19.7095C36.6855 19.9096 36.7647 20.1311 36.7971 20.3612C37.521 25.0721 36.291 29.8696 33.377 33.7009C30.463 37.5323 26.1031 40.0847 21.2537 40.7982Z" fill="#FC7754"/>
</svg>
