<svg width="50" height="50" viewBox="0 0 50 50" fill="none" xmlns="http://www.w3.org/2000/svg">
<path fill-rule="evenodd" clip-rule="evenodd" d="M30.0633 3.65936C20.3129 5.66675 12.235 7.33436 12.1123 7.36506C11.8187 7.43859 11.2267 7.96297 11.0481 8.30774C10.9261 8.54319 10.9062 10.5465 10.9062 22.5705V36.5593L10.4384 36.3227C9.41038 35.8028 8.60058 35.6271 7.23235 35.6271C5.79516 35.6271 5.01807 35.809 3.85098 36.4183C0.348611 38.2472 -1.01746 42.6106 0.81298 46.1222C1.76259 47.9438 3.42932 49.282 5.42307 49.8235C6.285 50.0576 8.16883 50.0591 9.04476 49.8265C11.555 49.1596 13.4568 47.277 14.2518 44.6716L14.4755 43.9382L14.5278 33.8738L14.58 23.8093L16.1964 23.4791C17.0855 23.2975 19.8188 22.7363 22.2705 22.232C24.7221 21.7278 29.2189 20.8044 32.2632 20.1802C35.3076 19.5559 39.7162 18.651 42.0601 18.1693C44.404 17.6876 46.3547 17.2936 46.3952 17.2936C46.4356 17.2937 46.4686 20.3517 46.4686 24.0893C46.4686 27.8268 46.4451 30.8848 46.4164 30.8848C46.3876 30.8848 46.1551 30.7791 45.8996 30.6499C44.8958 30.1422 44.0613 29.9599 42.7459 29.9609C41.3106 29.962 40.6594 30.1094 39.4149 30.7145C38.7271 31.049 38.4197 31.282 37.6481 32.0533C36.1763 33.5247 35.6116 34.7889 35.5227 36.8119C35.4578 38.2914 35.631 39.1534 36.2337 40.351C37.4372 42.7424 39.6607 44.2062 42.309 44.3506C43.6642 44.4245 44.6594 44.2173 45.9298 43.5967C47.5307 42.8148 48.7222 41.5575 49.398 39.9374C50.0112 38.4673 49.9861 39.3221 49.999 19.4801C50.0055 9.53857 49.9788 1.31669 49.9397 1.20914C49.6881 0.517158 48.9123 -0.0167112 48.1831 0.000400036C47.9676 0.00538673 39.8137 1.65197 30.0633 3.65936ZM46.3707 8.78998C46.3707 12.4576 46.3438 13.4964 46.2482 13.532C46.1086 13.5841 14.7175 20.0313 14.6035 20.0314C14.5626 20.0315 14.5406 17.9115 14.5545 15.3205L14.58 10.6096L15.9515 10.3279C16.7059 10.1731 19.4392 9.61112 22.0256 9.07921C24.6119 8.5472 28.1388 7.82276 29.863 7.46919C31.5873 7.11573 35.9518 6.21597 39.5619 5.46982C43.172 4.72368 46.1809 4.10885 46.2482 4.10337C46.3446 4.09565 46.3707 5.09279 46.3707 8.78998ZM44.224 33.9408C46.6832 35.1417 46.9533 38.5622 44.7071 40.0593C43.9622 40.5556 43.4162 40.6985 42.4768 40.6428C40.5746 40.53 39.1924 39.0571 39.1924 37.1427C39.1924 35.5697 40.0881 34.3359 41.6529 33.7533C42.2515 33.5303 43.5821 33.6274 44.224 33.9408ZM8.50565 39.4976C9.27489 39.7849 10.1114 40.5807 10.472 41.3684C10.7109 41.8903 10.7533 42.1076 10.7541 42.8138C10.7548 43.5093 10.7125 43.7361 10.4945 44.204C10.1512 44.941 9.47779 45.6453 8.7781 45.9988C8.26455 46.2583 8.12112 46.2849 7.23235 46.2849C6.30449 46.2849 6.22024 46.2674 5.64017 45.9534C4.89473 45.5499 4.31299 44.9398 3.96824 44.1998C3.75242 43.7365 3.7099 43.5077 3.71059 42.8138C3.71137 42.1076 3.75379 41.8903 3.99274 41.3684C4.34415 40.6007 5.18962 39.7868 5.93124 39.5024C6.64915 39.2271 7.77559 39.2249 8.50565 39.4976Z" fill="#0148FF"/>
</svg>
