<svg width="44" height="41" viewBox="0 0 44 41" fill="none" xmlns="http://www.w3.org/2000/svg">
<path fill-rule="evenodd" clip-rule="evenodd" d="M33.3495 0.0269779C31.5721 0.331114 30.9417 0.516432 29.8589 1.05332C26.9297 2.50573 25.0024 5.29391 24.7867 8.39112C24.6883 9.80387 25.0659 11.1397 26.1342 13.1583C27.4133 15.5756 29.719 18.6561 32.5881 21.781C33.7576 23.0548 34.1851 23.2613 34.9507 22.9227C35.663 22.6077 39.496 18.0644 41.2207 15.491C43.5022 12.0866 44.2717 9.82807 43.8892 7.65754C43.2172 3.84246 40.3078 0.96911 36.3151 0.176963C35.652 0.0454055 33.7916 -0.0486555 33.3495 0.0269779ZM36.3151 2.82021C38.7776 3.4973 40.5913 5.36386 41.1216 7.76682C41.1965 8.10645 41.2578 8.59342 41.2578 8.849C41.2578 10.4532 39.6389 13.3763 36.7191 17.0441C35.7902 18.211 34.4537 19.7682 34.381 19.7682C34.2301 19.7682 31.5391 16.4722 30.4561 14.961C29.0897 13.0542 27.9806 11.0455 27.6691 9.9134C27.2333 8.33007 27.82 6.30022 29.1342 4.84404C30.8949 2.89328 33.7027 2.10185 36.3151 2.82021ZM33.4571 5.22765C31.4185 5.64043 29.996 7.59905 30.3302 9.53283C30.6892 11.6106 32.8063 13.0576 35.0042 12.7276C37.2334 12.393 38.786 10.4197 38.4319 8.37109C38.2915 7.55907 37.8988 6.84953 37.2671 6.26721C36.6378 5.68706 36.045 5.3782 35.2647 5.22405C34.5573 5.0844 34.161 5.0852 33.4571 5.22765ZM34.9312 7.78172C35.0889 7.84318 35.3195 8.01744 35.4435 8.16894C35.8946 8.72033 35.8508 9.34471 35.3266 9.83328C34.7612 10.3602 34.0263 10.3663 33.4427 9.84882C32.3441 8.87488 33.5256 7.23426 34.9312 7.78172ZM7.81348 12.8616C3.95698 14.3027 0.694812 15.5477 0.564153 15.6282C0.433495 15.7087 0.253323 15.9251 0.163753 16.1089C0.00636102 16.4321 0.000945557 16.8339 0.000429798 28.2208L0 39.9985L0.192378 40.319C0.404097 40.6717 0.981746 41 1.39091 41C1.52278 41 4.66718 39.8678 8.37841 38.4841L15.1261 35.9681L21.8737 38.4841C25.585 39.8678 28.7375 41 28.8794 41C29.1995 41 43.0891 35.8396 43.4636 35.5816C44.0387 35.1853 44.0157 35.573 43.9894 26.7244C43.9657 18.8008 43.9642 18.7366 43.7883 18.5171C43.4515 18.0966 43.1768 17.9655 42.6332 17.9655C42.0896 17.9655 41.8148 18.0966 41.478 18.5171C41.3027 18.7359 41.3004 18.8197 41.2578 26.2395L41.2148 33.7406L35.8853 35.7285C32.9541 36.8218 30.4888 37.7364 30.4068 37.7607C30.2663 37.8027 30.2564 37.4065 30.2349 30.8356C30.2123 23.938 30.2102 23.8637 30.0347 23.6448C29.698 23.2243 29.4232 23.0932 28.8796 23.0932C28.336 23.0932 28.0613 23.2243 27.7245 23.6448C27.5491 23.8637 27.547 23.938 27.5244 30.8356C27.5028 37.4065 27.4929 37.8027 27.3525 37.7607C27.2705 37.7364 24.8051 36.8218 21.8739 35.7285L16.5444 33.7406L16.5226 23.5897C16.5106 18.0067 16.52 13.4387 16.5435 13.4387C16.5671 13.4387 18.0469 13.9831 19.8318 14.6486C22.8116 15.7594 23.113 15.8557 23.5132 15.8249C23.7568 15.8062 24.05 15.7231 24.1781 15.6366C24.4663 15.4418 24.7536 14.9103 24.7536 14.5719C24.7536 14.2403 24.4798 13.7403 24.2069 13.5736C23.7751 13.3099 15.3819 10.2339 15.1042 10.2376C14.9459 10.2397 11.7918 11.3749 7.81348 12.8616ZM13.7296 23.5897L13.7077 33.7406L8.37823 35.7285C5.44701 36.8218 2.98091 37.7366 2.89796 37.7613C2.75475 37.8039 2.7483 37.2999 2.76902 27.6495L2.79085 17.4929L8.20631 15.4695C11.1848 14.3566 13.6509 13.4445 13.6866 13.4424C13.7222 13.4404 13.7415 18.0067 13.7296 23.5897Z" fill="#B7BB09"/>
</svg>
