<svg width="42" height="41" viewBox="0 0 42 41" fill="none" xmlns="http://www.w3.org/2000/svg">
<path fill-rule="evenodd" clip-rule="evenodd" d="M17.4723 0.151634C15.8032 0.679426 14.6862 2.18722 14.6862 3.91237C14.6862 5.66556 15.6205 6.99959 17.333 7.69125L17.6415 7.81588L17.6201 11.4559L17.5988 15.0961L16.9852 15.2526C15.2729 15.6894 14.0446 16.6328 12.8328 18.442C12.8186 18.4631 8.82663 15.3766 8.59042 15.162C8.55448 15.1293 8.55998 14.8836 8.60256 14.6159C8.80579 13.3385 8.14262 12.0865 6.97404 11.5419C6.31439 11.2345 5.31926 11.2367 4.66052 11.5469C4.1287 11.7973 3.53436 12.3544 3.29397 12.8277C2.71587 13.9663 2.984 15.395 3.93761 16.2564C4.70712 16.9515 5.86897 17.175 6.82168 16.8114C7.05477 16.7223 7.2859 16.6741 7.33529 16.7041C7.38468 16.734 8.47777 17.5801 9.76441 18.5842L12.1037 20.4096L12.0731 21.3783C12.0556 21.9323 12.0847 22.5642 12.1409 22.8542C12.2722 23.5304 12.6407 24.4702 13.0103 25.0719L13.3112 25.5618L10.4297 28.4643C8.33378 30.5755 7.54475 31.4216 7.5354 31.568C7.49692 32.1755 7.71147 32.5672 8.16518 32.7177C8.76206 32.9156 8.787 32.896 11.8556 29.8299L14.7272 26.9608L15.0143 27.1654C15.5546 27.5504 16.5063 27.9356 17.4142 28.1367L17.6398 28.1866V31.8521V35.5175L17.3617 35.6342C17.0105 35.7816 16.4429 36.2934 16.1975 36.6841C15.4923 37.8063 15.6953 39.3493 16.6685 40.2639C17.2787 40.8373 17.6981 40.9985 18.5833 41C19.2121 41.001 19.3905 40.9688 19.7851 40.7829C20.3498 40.517 20.8397 40.0395 21.1444 39.4585C21.3501 39.0662 21.3727 38.941 21.3727 38.1986C21.3727 37.4563 21.3501 37.3311 21.1444 36.9388C20.8697 36.4148 20.3918 35.9176 19.9404 35.6863L19.6089 35.5163V31.8515V28.1866L19.8345 28.1369C22.3463 27.5833 24.2776 25.7871 24.9405 23.3885C25.863 20.051 23.9844 16.5011 20.7109 15.396C20.3261 15.2661 19.9207 15.1597 19.8101 15.1597H19.6089V11.4634V7.76725L19.9229 7.6727C20.3892 7.53232 21.163 7 21.5611 6.54565C22.3764 5.61511 22.7167 4.27803 22.4394 3.09501C22.0067 1.24901 20.4081 -0.0222091 18.5479 0.00029404C18.2064 0.00441549 17.7224 0.0725018 17.4723 0.151634ZM19.3449 2.09894C20.0767 2.40557 20.5464 3.12889 20.5464 3.94938C20.5464 5.92356 17.9785 6.6641 16.9467 4.98741C16.6076 4.43646 16.552 3.62362 16.8178 3.10622C17.074 2.60736 17.2932 2.38958 17.7629 2.16702C18.2481 1.93713 18.8926 1.90943 19.3449 2.09894ZM37.4128 12.1127C36.5418 12.2681 35.6937 12.7476 35.107 13.4162C34.5282 14.0758 34.2256 14.8013 34.1438 15.7259L34.0899 16.3334L31.3414 17.2711C26.4086 18.9541 26.4893 18.9181 26.384 19.4825C26.2811 20.0336 26.7715 20.6812 27.2923 20.6821C27.3893 20.6823 29.0962 20.1267 31.0856 19.4475L34.7025 18.2125L35.2577 18.7693C36.0981 19.612 36.9451 19.9647 38.1102 19.9568C39.9077 19.9446 41.4145 18.7306 41.8852 16.9152C42.4259 14.8293 40.9988 12.6105 38.8176 12.146C38.2226 12.0193 37.9699 12.0133 37.4128 12.1127ZM6.22193 13.3805C6.43237 13.4898 6.56636 13.6807 6.67843 14.0309C6.74431 14.2368 6.53813 14.6985 6.30791 14.8604C6.01952 15.0634 5.55358 15.032 5.26782 14.7904C4.82502 14.4161 4.87392 13.7216 5.36422 13.4213C5.66935 13.2344 5.91787 13.2225 6.22193 13.3805ZM38.6335 14.134C39.8389 14.4936 40.395 15.9179 39.757 17.0117C39.3781 17.6613 38.8281 17.9759 38.0692 17.9773C37.455 17.9785 36.9821 17.7693 36.5919 17.3241C35.9121 16.5481 35.9229 15.4057 36.617 14.6788C37.1913 14.0773 37.8483 13.8998 38.6335 14.134ZM19.855 17.1938C21.4305 17.6257 22.7584 19.049 23.101 20.673C23.4352 22.2567 22.9924 23.7216 21.8274 24.8869C20.6569 26.0577 19.2429 26.4931 17.6808 26.1637C15.9764 25.8041 14.5944 24.4968 14.1516 22.825C13.9949 22.2333 13.9971 21.0905 14.1561 20.4771C14.8031 17.9817 17.3585 16.5095 19.855 17.1938ZM3.03569 32.5187C2.01135 32.792 1.04395 33.517 0.536824 34.3912C0.253603 34.8795 0 35.8203 0 36.3829C0 37.3405 0.467824 38.4363 1.17859 39.143C1.95999 39.9201 2.86741 40.2988 3.95009 40.2999C6.53969 40.3025 8.4306 37.8159 7.73764 35.3191C7.1698 33.2731 5.01586 31.9902 3.03569 32.5187ZM4.61383 34.4946C5.06615 34.6495 5.54366 35.0941 5.75164 35.5542C6.04865 36.2113 5.88571 37.1927 5.38941 37.7355C5.09249 38.0604 4.44548 38.3208 3.93819 38.3196C2.54046 38.3166 1.57446 36.8568 2.13983 35.6021C2.36423 35.104 2.66574 34.7963 3.15876 34.5621C3.63692 34.335 4.08669 34.3142 4.61383 34.4946ZM19.2575 37.6181C19.7219 38.1605 19.3231 39.0641 18.6193 39.0641C18.1709 39.0641 17.81 38.7325 17.7473 38.2628C17.7048 37.9441 17.7262 37.8893 18.0007 37.6135C18.2803 37.3325 18.3266 37.3152 18.6854 37.3558C18.9667 37.3876 19.1206 37.4582 19.2575 37.6181Z" fill="#0037FC"/>
</svg>
