<svg width="51" height="41" viewBox="0 0 51 41" fill="none" xmlns="http://www.w3.org/2000/svg">
<path fill-rule="evenodd" clip-rule="evenodd" d="M0.772883 0.194755C0.545274 0.310659 0.322546 0.531519 0.200125 0.762847C0.00140307 1.13841 -0.000190675 1.29541 8.54533e-06 20.5185C0.000108155 38.7748 0.0101688 39.915 0.174326 40.2299C0.270052 40.4137 0.500749 40.6622 0.68692 40.782L1.0254 41H25.5H49.9746L50.3131 40.782C50.4992 40.6622 50.7299 40.4137 50.8257 40.2299C50.9898 39.915 50.9999 38.7748 51 20.5185C51.0002 1.28763 50.9987 1.1386 50.7997 0.762463C50.6706 0.51846 50.459 0.3145 50.2059 0.19005C49.815 -0.00219495 49.6749 -0.0032514 25.4791 0.00097376C1.44854 0.00519892 1.14064 0.00759974 0.772883 0.194755ZM8.06823 4.12588V5.37422H5.52817H2.98811V4.12588V2.87754H5.52817H8.06823V4.12588ZM16.1367 4.12588V5.37422H13.5966H11.0565V4.12588V2.87754H13.5966H16.1367V4.12588ZM24.1055 4.12588V5.37422H21.6152H19.125V4.12588V2.87754H21.6152H24.1055V4.12588ZM32.0743 4.12588V5.37422H29.584H27.0938V4.12588V2.87754H29.584H32.0743V4.12588ZM40.1427 4.12588V5.37422H37.6026H35.0626V4.12588V2.87754H37.6026H40.1427V4.12588ZM48.0119 4.12588V5.37422H45.5714H43.131V4.12588V2.87754H45.5714H48.0119V4.12588ZM48.0119 20.4984V32.7417H25.5H2.98811V20.4984V8.25501H25.5H48.0119V20.4984ZM20.3701 14.0006C19.9034 14.2159 19.4799 14.6261 19.3305 15.0071C19.2603 15.1862 19.2246 17.0675 19.2246 20.5818V25.8862L19.5121 26.3233C20.0678 27.1681 21.2154 27.4186 22.2411 26.9192C23.4561 26.3276 30.9565 22.0401 31.2506 21.7691C31.6593 21.3925 31.8101 20.9505 31.7536 20.2946C31.6772 19.4054 31.6106 19.3571 26.5193 16.4939C22.1936 14.0612 21.8756 13.8994 21.3396 13.8594C20.9125 13.8274 20.6681 13.863 20.3701 14.0006ZM25.0194 18.9789C27.1243 20.1612 27.6716 20.5082 27.5708 20.5964C27.5002 20.6583 26.4114 21.2852 25.1514 21.9898C23.8913 22.6943 22.7146 23.3534 22.5366 23.4544L22.2129 23.6382V20.5559C22.2129 18.8605 22.2415 17.4735 22.2763 17.4735C22.3112 17.4735 23.5456 18.1509 25.0194 18.9789ZM8.06823 36.8709V38.1192H5.52817H2.98811V36.8709V35.6225H5.52817H8.06823V36.8709ZM16.1147 36.8949L16.1426 38.1192H13.5996H11.0565V36.8692V35.6193L13.5717 35.6449L16.0868 35.6705L16.1147 36.8949ZM24.1055 36.8709V38.1192H21.6152H19.125V36.8709V35.6225H21.6152H24.1055V36.8709ZM32.0743 36.8709V38.1192H29.584H27.0938V36.8709V35.6225H29.584H32.0743V36.8709ZM40.1208 36.8949L40.1487 38.1192H37.6056H35.0626V36.8692V35.6193L37.5777 35.6449L40.0929 35.6705L40.1208 36.8949ZM48.0119 36.8709V38.1192H45.5714H43.131V36.8709V35.6225H45.5714H48.0119V36.8709Z" fill="#CF2ABA"/>
</svg>
