<svg width="44" height="41" viewBox="0 0 44 41" fill="none" xmlns="http://www.w3.org/2000/svg">
<path fill-rule="evenodd" clip-rule="evenodd" d="M28.2721 0.23098C27.2553 0.632166 26.486 1.42648 26.0356 2.54039C25.8943 2.88983 25.7139 3.19809 25.6346 3.22535C25.5553 3.25261 21.119 4.33349 15.7761 5.62729C10.3162 6.94945 5.94891 8.05411 5.80405 8.14963C5.66238 8.24306 5.45932 8.46932 5.35272 8.65231C5.18147 8.94653 5.15903 9.10951 5.15903 10.06V11.135L2.97295 11.1647C0.531364 11.1978 0.501189 11.2062 0.160067 11.9423C0.012202 12.2615 0.00102609 12.5884 0.00231561 16.5658C0.00429288 22.3717 -0.211745 21.9902 3.07293 21.9902H5.15903L5.15921 23.209C5.15938 25.1306 5.30587 25.3319 7.0077 25.7486L8.12494 26.0222L8.17214 31.792C8.22157 37.8284 8.22311 37.8532 8.61685 38.7487C8.84269 39.2621 9.55983 40.1328 10.0054 40.4344C11.5877 41.5056 13.6851 41.0135 14.7898 39.3118C15.3562 38.4393 15.4984 37.8619 15.5418 36.2574L15.5797 34.8535L16.2913 34.7901C18.7358 34.5727 20.8756 32.6868 21.7138 30.0111C21.8805 29.4788 21.9295 29.4068 22.107 29.4339C22.2185 29.4509 23.0822 29.6524 24.0263 29.8816L25.7429 30.2984L26.0269 30.9787C27.197 33.7815 30.4187 34.3918 32.2585 32.1593C32.7845 31.521 33.0145 31.0622 33.2213 30.2389C33.346 29.7426 33.3574 28.3797 33.3367 16.5109L33.3136 3.3338L33.0371 2.6581C32.5222 1.40001 31.7891 0.62749 30.7112 0.207199C29.9812 -0.0774715 29.0304 -0.0681183 28.2721 0.23098ZM40.449 1.33723C40.127 1.50568 37.5152 4.0321 37.2797 4.40304C37.0429 4.77587 37.0422 5.57386 37.2784 5.93992C37.7064 6.60329 38.3982 6.83881 38.9206 6.49901C39.4018 6.18589 41.8771 3.76802 42.0475 3.44455C42.675 2.25353 41.5451 0.763905 40.449 1.33723ZM30.1551 3.18406C30.3092 3.29281 30.5121 3.52763 30.6061 3.70604C30.7742 4.02513 30.777 4.23329 30.7772 16.7765L30.7776 29.5227L30.5824 29.8608C30.0295 30.8188 28.8008 30.7304 28.3705 29.7014C28.2013 29.2971 28.1985 29.0872 28.1985 16.7868C28.1985 2.83849 28.16 3.72335 28.7883 3.22913C29.1798 2.92128 29.7558 2.90227 30.1551 3.18406ZM25.6195 16.7166C25.6195 25.5364 25.601 27.1642 25.5008 27.1642C25.4355 27.1642 24.7488 27.0089 23.9748 26.819C23.2008 26.6292 20.8848 26.0663 18.828 25.5682C16.7712 25.0701 13.4479 24.2627 11.443 23.7741C9.43793 23.2854 7.78416 22.8857 7.76783 22.8857C7.75141 22.8857 7.73808 20.1306 7.73808 16.7633C7.73808 11.9518 7.76112 10.6328 7.84554 10.603C7.90469 10.5821 10.7771 9.88333 14.2287 9.05011C17.6803 8.21679 21.6263 7.25562 22.9974 6.91423C24.3686 6.57275 25.5195 6.28788 25.555 6.28121C25.5905 6.27454 25.6195 10.9705 25.6195 16.7166ZM5.15903 16.5674V19.0051H3.86951H2.57999V16.5674V14.1296H3.86951H5.15903V16.5674ZM36.859 15.1648C36.4179 15.3505 36.279 15.5008 36.0877 16.0001C35.8335 16.6638 36.035 17.421 36.567 17.8015C36.8492 18.0034 36.9605 18.0101 39.9951 18.0101C43.1128 18.0101 43.1334 18.0087 43.4237 17.7843C44.2087 17.1773 44.1888 15.9776 43.382 15.28C43.1543 15.0831 43.0241 15.074 40.1634 15.0519C37.8185 15.0338 37.1133 15.058 36.859 15.1648ZM37.763 26.6314C37.1809 26.9635 36.9033 28.0759 37.2499 28.688C37.3938 28.9423 39.6406 31.1533 40.2078 31.5986C40.6556 31.9504 41.0062 31.9944 41.4695 31.7571C42.022 31.4743 42.23 31.061 42.1893 30.327C42.1682 29.9448 42.1033 29.6878 41.9912 29.5424C41.7757 29.2629 39.4514 27.0197 39.0535 26.7071C38.6933 26.4242 38.1789 26.394 37.763 26.6314ZM12.058 26.9776L12.9821 27.192V32.0568C12.9821 37.335 12.9797 37.3647 12.5081 37.794C11.9951 38.2612 11.0751 37.9354 10.8592 37.2103C10.7852 36.9615 10.7553 35.4423 10.7518 31.7544L10.747 26.6435L10.9404 26.7034C11.0468 26.7363 11.5497 26.8597 12.058 26.9776ZM17.4829 28.2947C18.4618 28.5335 19.285 28.7545 19.3122 28.7858C19.3392 28.8173 19.2635 29.0906 19.1437 29.3934C18.8867 30.043 18.2528 30.8605 17.7318 31.2139C17.235 31.5509 16.4066 31.8407 15.9404 31.8407H15.5612V29.8507C15.5612 28.7562 15.5931 27.8607 15.6321 27.8607C15.6711 27.8607 16.504 28.056 17.4829 28.2947Z" fill="#9B51E0"/>
</svg>
