<svg width="50" height="50" viewBox="0 0 50 50" fill="none" xmlns="http://www.w3.org/2000/svg">
<path fill-rule="evenodd" clip-rule="evenodd" d="M4.0506 0.190432C2.16495 0.69754 0.685934 2.19789 0.188503 4.10805C-0.0628343 5.07296 -0.0628343 44.9407 0.188503 45.9056C0.692405 47.8405 2.17444 49.3275 4.09857 49.8288C4.67576 49.9792 7.18155 49.9996 25.0108 49.9996C47.0954 49.9996 45.8168 50.0358 47.1227 49.3739C47.9092 48.9754 48.8968 48.0064 49.3134 47.2247C50.0445 45.8529 49.9995 47.3119 49.9995 25.0068C49.9995 7.17469 49.979 4.6685 49.8287 4.09121C49.3274 2.16676 47.8406 0.684486 45.9061 0.180501C44.9582 -0.0664142 4.97027 -0.0570418 4.0506 0.190432ZM10.7315 6.26223V8.94003H7.16169H3.59187V6.99472C3.59187 4.97834 3.6539 4.61293 4.07346 4.15603C4.55684 3.62951 4.79769 3.59347 7.85892 3.58878L10.7315 3.58443V6.26223ZM23.2259 6.26223V8.94003H18.7636H14.3013V6.26223V3.58443H18.7636H23.2259V6.26223ZM35.7202 6.26223V8.94003H31.2579H26.7957V6.26223V3.58443H31.2579H35.7202V6.26223ZM45.606 3.87029C46.3449 4.42247 46.3706 4.5172 46.4086 6.82792L46.4431 8.94003H42.8666H39.29V6.2571V3.57417L42.2941 3.60719C45.1264 3.63832 45.3159 3.65339 45.606 3.87029ZM46.4296 25.0068V37.5032H25.0108H3.59187V25.0068V12.5104H25.0108H46.4296V25.0068ZM18.9253 16.2378C18.4768 16.4332 18.0076 17.0031 17.9267 17.4509C17.8909 17.6486 17.8764 21.1832 17.8943 25.3055C17.9264 32.6759 17.9307 32.8059 18.1569 33.1089C18.532 33.6113 18.9367 33.8493 19.5099 33.9043C20.0343 33.9547 20.2632 33.8495 27.5323 30.2164C33.1297 27.4188 35.0885 26.389 35.3072 26.129C35.8411 25.4944 35.8411 24.5193 35.3072 23.8847C35.0885 23.6246 33.1349 22.5975 27.5556 19.8089C19.6854 15.8754 19.7222 15.8906 18.9253 16.2378ZM29.8077 25.0068C29.8077 25.0383 27.9252 26.005 25.6243 27.1551L21.4409 29.2464V25.0068V20.7673L25.6243 22.8586C27.9252 24.0087 29.8077 24.9754 29.8077 25.0068ZM10.7315 43.7566V46.4395L7.72739 46.4065C4.89508 46.3754 4.70566 46.3603 4.4155 46.1434C3.67666 45.5912 3.65089 45.4965 3.61296 43.1858L3.57838 41.0736H7.15488H10.7315V43.7566ZM23.2259 43.7514V46.4292H18.7636H14.3013V43.7514V41.0736H18.7636H23.2259V43.7514ZM35.7202 43.7514V46.4292H31.2579H26.7957V43.7514V41.0736H31.2579H35.7202V43.7514ZM46.4086 43.1858C46.3706 45.4965 46.3449 45.5912 45.606 46.1434C45.3159 46.3603 45.1264 46.3754 42.2941 46.4065L39.29 46.4395V43.7566V41.0736H42.8666H46.4431L46.4086 43.1858Z" fill="#FB5A5A"/>
</svg>
