<svg width="42" height="46" viewBox="0 0 42 46" fill="none" xmlns="http://www.w3.org/2000/svg">
<path fill-rule="evenodd" clip-rule="evenodd" d="M20.2337 0.093486C19.1016 0.513244 18.5081 1.71018 18.8581 2.868C18.9927 3.31331 19.577 3.99088 19.9632 4.14948L20.2475 4.26626V6.94926V9.63235H20.9974H21.7472V6.94926V4.26626L22.0316 4.14948C22.6685 3.88794 23.2469 2.95171 23.2469 2.18224C23.2469 1.42049 22.6974 0.545112 21.9924 0.183793C21.6042 -0.0152163 20.6579 -0.0638072 20.2337 0.093486ZM21.5171 1.68454C21.9821 2.14536 21.6527 2.94297 20.9974 2.94297C20.8148 2.94297 20.6226 2.85871 20.4776 2.71488C20.0126 2.25406 20.3421 1.45645 20.9974 1.45645C21.18 1.45645 21.3721 1.54071 21.5171 1.68454ZM8.99983 4.55093C8.5398 4.69466 7.75518 5.49999 7.61411 5.97326C7.35448 6.84437 7.53753 7.53885 8.19993 8.19543C8.84864 8.83845 9.63467 9.0487 10.4005 8.7841C10.6987 8.68106 10.7168 8.69119 11.3518 9.31581L11.9992 9.95251V12.3939V14.8352H12.7491H13.4989V12.0819V9.32863L12.6441 8.4645C11.7984 7.60984 11.7903 7.5972 11.8942 7.30185C12.1441 6.59119 11.9531 5.81318 11.3711 5.17165C10.7645 4.5029 9.88812 4.27342 8.99983 4.55093ZM31.4952 4.55093C31.0352 4.69466 30.2506 5.49999 30.1095 5.97326C29.9673 6.45016 29.9642 6.91423 30.1005 7.30185C30.2045 7.5972 30.1963 7.60984 29.3507 8.4645L28.4959 9.32863V12.0819V14.8352H29.2457H29.9955V12.3939V9.95251L30.6429 9.31581C31.278 8.69119 31.2961 8.68106 31.5942 8.7841C32.9229 9.24316 34.4946 8.09175 34.4946 6.65929C34.4946 6.0749 34.2803 5.60432 33.7948 5.12315C33.1353 4.46945 32.3676 4.27843 31.4952 4.55093ZM10.2694 6.14412C10.7344 6.60494 10.4049 7.40256 9.74968 7.40256C9.56709 7.40256 9.37494 7.31829 9.22994 7.17447C9.08484 7.03074 8.99983 6.84028 8.99983 6.65929C8.99983 6.47831 9.08484 6.28785 9.22994 6.14412C9.37494 6.0003 9.56709 5.91603 9.74968 5.91603C9.93226 5.91603 10.1244 6.0003 10.2694 6.14412ZM32.7648 6.14412C33.2298 6.60494 32.9004 7.40256 32.2451 7.40256C31.8598 7.40256 31.4952 7.04124 31.4952 6.65929C31.4952 6.27735 31.8598 5.91603 32.2451 5.91603C32.4277 5.91603 32.6198 6.0003 32.7648 6.14412ZM15.9786 10.6037L15.7485 10.8317V12.9224V15.0131L15.1158 15.1975C14.7677 15.299 13.6606 15.6139 12.6553 15.8972C11.331 16.2706 10.7824 16.4668 10.6636 16.6097C10.5119 16.792 10.4995 17.1801 10.4995 21.7672V26.7274H6.60547H2.71133L2.46754 26.9692C2.22393 27.2106 2.22374 27.2119 2.28476 28.3396C2.31841 28.9603 2.40952 29.8654 2.48722 30.3508C2.6774 31.5387 2.79934 31.6515 3.89234 31.6515C4.32519 31.6515 4.79019 31.7016 4.92563 31.7628C5.18198 31.8785 5.4224 32.2713 5.62524 32.9058C5.69057 33.1102 5.95179 33.731 6.20571 34.2854C6.77466 35.5274 6.76257 35.629 5.9428 36.4942C5.14018 37.3412 5.14187 37.4673 5.97185 38.5732C6.77963 39.6497 8.71676 41.5687 9.79654 42.3623C10.9148 43.1842 11.0422 43.1861 11.894 42.3931C12.7668 41.5805 12.8693 41.5685 14.1223 42.1325C14.6816 42.3842 15.3079 42.6424 15.5141 42.7063C16.6248 43.0504 16.7795 43.2595 16.7795 44.4166C16.7795 45.5151 16.8852 45.6255 18.1386 45.8362C19.4376 46.0546 22.5572 46.0546 23.8562 45.8362C25.1095 45.6255 25.2153 45.5151 25.2153 44.4166C25.2153 43.2595 25.3699 43.0504 26.4806 42.7063C26.6868 42.6424 27.3132 42.3842 27.8724 42.1325C29.1254 41.5685 29.228 41.5805 30.1008 42.3931C30.9553 43.1887 31.0825 43.187 32.1982 42.3643C33.2843 41.5636 35.2203 39.6435 36.0209 38.5732C36.8501 37.4647 36.852 37.3384 36.052 36.4942C35.2258 35.6222 35.2128 35.5132 35.7879 34.2764C36.0434 33.7269 36.3048 33.1102 36.3688 32.9058C36.713 31.8064 36.9259 31.6515 38.0934 31.6515C39.1966 31.6515 39.317 31.5408 39.5075 30.3508C39.5852 29.8654 39.6764 28.9603 39.71 28.3396C39.771 27.2119 39.7708 27.2106 39.5272 26.9692L39.2834 26.7274H35.3893H31.4952V21.7672C31.4952 17.1692 31.4832 16.7921 31.3302 16.6047C31.1826 16.4241 29.5021 15.8929 26.5978 15.1087L26.2463 15.0139V12.9228V10.8317L26.0162 10.6037L25.7862 10.3756H20.9974H16.2086L15.9786 10.6037ZM24.7466 19.2948V26.7274H23.9968H23.2469V25.0973C23.2469 22.8765 23.3921 23.0111 20.9974 23.0111C18.6027 23.0111 18.7478 22.8765 18.7478 25.0973V26.7274H17.998H17.2481V19.2948V11.8621H20.9974H24.7466V19.2948ZM1.51757 12.7233C1.34595 12.7777 1.00177 13.0039 0.75273 13.2259C-0.250003 14.1195 -0.251034 15.5499 0.750386 16.4424C1.48589 17.0979 2.30369 17.2336 3.15355 16.8414C3.41797 16.7194 3.66251 16.5742 3.6971 16.5186C3.73778 16.4535 4.15657 16.6148 4.88026 16.9743L6.00044 17.5309V20.2711V23.0111H6.75029H7.50013V19.939C7.50013 17.9833 7.46461 16.8011 7.40237 16.6858C7.34857 16.5861 6.67371 16.1915 5.90268 15.8087C4.54443 15.1345 4.50075 15.1037 4.50075 14.8222C4.50075 14.306 4.28713 13.8045 3.87266 13.3476C3.26987 12.683 2.38449 12.4483 1.51757 12.7233ZM38.9937 12.7268C38.8133 12.7832 38.4534 13.0403 38.1938 13.298C37.7118 13.7768 37.494 14.2513 37.494 14.8222C37.494 15.1037 37.4503 15.1345 36.0921 15.8087C35.3211 16.1915 34.6462 16.5861 34.5924 16.6858C34.5302 16.8011 34.4946 17.9833 34.4946 19.939V23.0111H35.2445H35.9943V20.2711V17.5309L37.0973 16.983L38.2003 16.4349L38.4666 16.6453C39.2949 17.3 40.4715 17.186 41.2933 16.3713C42.2092 15.4634 42.2366 14.3085 41.365 13.3476C40.7584 12.6788 39.882 12.4493 38.9937 12.7268ZM2.77094 14.32C3.23594 14.7808 2.90648 15.5785 2.25121 15.5785C1.86588 15.5785 1.50136 15.2171 1.50136 14.8352C1.50136 14.4533 1.86588 14.0919 2.25121 14.0919C2.43379 14.0919 2.62594 14.1762 2.77094 14.32ZM18.7478 14.8352V15.5785H20.9974H23.2469V14.8352V14.0919H20.9974H18.7478V14.8352ZM40.2633 14.32C40.7283 14.7808 40.3988 15.5785 39.7436 15.5785C39.3582 15.5785 38.9937 15.2171 38.9937 14.8352C38.9937 14.4533 39.3582 14.0919 39.7436 14.0919C39.9261 14.0919 40.1183 14.1762 40.2633 14.32ZM15.7485 21.6639V26.7274H13.8738H11.9992V22.1786V17.6296L12.3507 17.5352C12.5441 17.4833 13.3349 17.2544 14.1082 17.0265C14.8814 16.7987 15.5669 16.6096 15.6313 16.6064C15.7236 16.6017 15.7485 17.672 15.7485 21.6639ZM27.5615 16.9313C28.2043 17.1132 29.0149 17.3449 29.3629 17.4462L29.9955 17.6303V22.1788V26.7274H28.1209H26.2463V21.6639C26.2463 18.879 26.2793 16.6004 26.3196 16.6004C26.3598 16.6004 26.9187 16.7493 27.5615 16.9313ZM18.7478 17.8083V18.5515H20.9974H23.2469V17.8083V17.065H20.9974H18.7478V17.8083ZM12.7491 19.2948V20.038H13.8738H14.9986V19.2948V18.5515H13.8738H12.7491V19.2948ZM26.9962 19.2948V20.038H28.1209H29.2457V19.2948V18.5515H28.1209H26.9962V19.2948ZM18.7478 20.7813V21.5246H20.9974H23.2469V20.7813V20.038H20.9974H18.7478V20.7813ZM12.7491 22.2678V23.0111H13.8738H14.9986V22.2678V21.5246H13.8738H12.7491V22.2678ZM26.9962 22.2678V23.0111H28.1209H29.2457V22.2678V21.5246H28.1209H26.9962V22.2678ZM6.00044 25.2409V25.9842H6.75029H7.50013V25.2409V24.4976H6.75029H6.00044V25.2409ZM21.7472 25.6125V26.7274H20.9974H20.2475V25.6125V24.4976H20.9974H21.7472V25.6125ZM34.4946 25.2409V25.9842H35.2445H35.9943V25.2409V24.4976H35.2445H34.4946V25.2409ZM9.26471 29.0417C9.48207 30.66 10.0865 32.3222 10.983 33.7671C11.6738 34.8805 13.5226 36.7128 14.6466 37.398C18.9806 40.0401 24.3067 39.7858 28.2806 36.7469C29.0932 36.1255 30.4698 34.6182 31.0118 33.7564C31.9014 32.3418 32.5118 30.6669 32.7301 29.0417L32.8412 28.2139H35.5508H38.2604L38.2098 28.5624C38.1821 28.754 38.1334 29.1875 38.1018 29.5258L38.0441 30.1409L37.4175 30.1855C36.3547 30.2611 35.5486 30.847 35.1962 31.7998C34.8935 32.6181 34.3964 33.8034 34.1708 34.2446C33.6754 35.2136 33.7979 36.1671 34.5328 37.0613L34.9455 37.5635L34.374 38.2541C33.6475 39.1322 32.763 40.0091 31.8788 40.7278L31.1845 41.2922L30.6831 40.8874C29.7831 40.1608 28.8078 40.0381 27.8313 40.5284C27.3862 40.7521 26.1904 41.2448 25.3649 41.5448C24.4036 41.8942 23.8125 42.6932 23.7362 43.7467L23.6913 44.3678L23.0707 44.4435C22.2701 44.5413 19.7247 44.5413 18.9241 44.4435L18.3035 44.3678L18.2586 43.7467C18.1823 42.6932 17.5912 41.8942 16.6299 41.5448C15.8044 41.2448 14.6086 40.7521 14.1635 40.5284C13.187 40.0381 12.2117 40.1608 11.3117 40.8874L10.8102 41.2922L10.116 40.7278C9.23116 40.0086 8.34718 39.1321 7.61917 38.2522L7.0461 37.5597L7.41456 37.1235C7.83925 36.6207 8.01865 36.2377 8.10817 35.6427C8.17912 35.1711 8.08567 34.8595 7.38447 33.231C7.15342 32.6944 6.8892 32.0504 6.79725 31.7998C6.4481 30.8484 5.64061 30.2612 4.57723 30.1855L3.95064 30.1409L3.893 29.5258C3.86131 29.1875 3.81267 28.754 3.78492 28.5624L3.7344 28.2139H6.44398H9.15355L9.26471 29.0417ZM31.2661 28.7482C30.8159 32.5491 28.0262 35.9463 24.3315 37.1929C22.7742 37.7183 20.7083 37.8654 19.1161 37.5641C15.3998 36.8609 12.3854 34.2704 11.1958 30.7579C10.9472 30.0239 10.687 28.8374 10.687 28.438V28.2139H21.0082H31.3293L31.2661 28.7482Z" fill="#39A894"/>
</svg>
