<svg width="42" height="50" viewBox="0 0 42 50" fill="none" xmlns="http://www.w3.org/2000/svg">
<path fill-rule="evenodd" clip-rule="evenodd" d="M21.0766 0.0663386C17.0017 0.422885 12.9139 2.00747 9.63642 4.50095C5.50221 7.64629 2.67688 12.6885 2.22462 17.7284C2.08973 19.2316 2.17113 20.0318 2.676 22.1677C2.86012 22.9465 3.05538 24.0209 3.10984 24.555C3.29134 26.3341 3.0141 27.1505 1.32536 29.8118C0.245748 31.5131 0 32.0646 0 32.7855C0 33.4358 0.266292 33.903 0.882311 34.3331C1.2487 34.589 2.05378 34.8597 2.46795 34.8663C2.97902 34.8743 3.19783 35.3422 3.19783 36.4272C3.19783 37.423 3.34987 38.1185 3.64485 38.4718C3.84185 38.7077 3.87054 38.8191 3.8186 39.1467C3.69669 39.9151 4.26029 40.6624 5.22584 41.0124C5.66472 41.1715 5.66879 41.1771 5.65754 41.607C5.58894 44.2421 5.58535 44.1707 5.81162 44.6999C6.21251 45.637 7.18504 46.31 8.51863 46.5731C9.86657 46.8389 13.556 46.3121 16.1982 45.4763L16.9402 45.2417L17.2816 45.985C17.7027 46.9019 17.8919 47.5464 18.0731 48.6816C18.1885 49.4051 18.2576 49.5994 18.4633 49.7803L18.7133 50H29.3232H39.9333L40.1711 49.7603C40.5394 49.3892 40.4924 48.9511 40.0229 48.3786C38.8872 46.9935 36.6769 41.2313 36.3931 38.9159C36.3361 38.4508 36.3658 38.365 37.0182 37.1093C39.748 31.8547 40.8294 28.9078 41.7307 24.2673C41.9807 22.9799 41.9965 22.7406 41.9998 20.1657C42.0027 17.975 41.9699 17.2469 41.8346 16.5036C41.1775 12.8914 40.2215 10.3957 38.4867 7.76328C37.6411 6.48017 35.4012 4.20183 34.1335 3.33531C30.7077 0.993593 25.4687 -0.31804 21.0766 0.0663386ZM26.0672 1.95679C28.8212 2.4564 31.208 3.38111 33.1865 4.71472C34.4652 5.57664 36.3208 7.47881 37.2082 8.83751C38.8729 11.3863 39.949 14.4369 40.3084 17.6267C40.4363 18.7622 40.437 21.5002 40.3095 22.5609C39.9676 25.4085 38.9164 29.1477 37.6015 32.1945C37.2962 32.902 36.5862 34.3522 36.0238 35.4172C34.8108 37.7138 34.6916 37.9893 34.6916 38.4975C34.6916 40.2137 36.2892 44.9813 37.9651 48.2666C37.9857 48.3069 33.883 48.3398 28.848 48.3398H19.6935L19.6255 47.8828C19.5347 47.2722 19.0641 45.8378 18.7495 45.212C18.6098 44.9342 18.5094 44.6958 18.5264 44.6818C18.5433 44.6679 18.9549 44.4811 19.4411 44.2667C21.3785 43.4126 23.148 42.2594 23.8239 41.4104C24.2522 40.8724 24.2793 40.4032 23.901 40.0753C23.754 39.9479 23.5381 39.8438 23.4211 39.844C23.1479 39.8445 22.6198 40.1687 22.4602 40.4339C22.2987 40.7025 21.364 41.4116 20.5063 41.9164C17.872 43.4669 12.6794 44.9424 9.7873 44.9624C8.67852 44.97 8.53549 44.95 8.0972 44.7265C7.32914 44.3349 7.23233 44.1313 7.27555 42.9992C7.34028 41.3015 7.30898 40.6919 7.14027 40.365C6.93251 39.9624 6.56253 39.6758 6.06764 39.5342C5.84835 39.4715 5.63225 39.3884 5.58748 39.3496C5.54271 39.3109 5.70096 39.144 5.93924 38.9789C6.56137 38.5476 6.67087 38.1103 6.27347 37.6447C6.09516 37.4358 5.9437 37.3778 5.46122 37.3338L4.86816 37.2796L4.82785 36.1384C4.79064 35.0881 4.76399 34.955 4.49324 34.4664C4.12036 33.7935 3.51102 33.3603 2.74374 33.2226C1.30278 32.964 1.30239 32.9323 2.71205 30.7195C3.73012 29.1212 4.30195 28.0228 4.57125 27.1482C4.76467 26.5198 4.79403 26.2354 4.77756 25.1463C4.76709 24.448 4.69606 23.5919 4.6199 23.244C4.4601 22.5145 4.38646 22.6292 5.49339 21.8814C5.87645 21.6225 6.52106 21.289 6.92563 21.1403C7.59398 20.8946 7.7372 20.8757 8.4885 20.9339C9.31015 20.9976 9.31741 20.9961 9.59989 20.7114C10.2133 20.0933 9.79534 19.4361 8.66816 19.2467C7.49242 19.0491 6.03082 19.4945 4.55681 20.4996C4.31823 20.6623 4.09235 20.7636 4.05495 20.7247C4.01744 20.6859 3.9375 20.2873 3.87722 19.8392C3.69272 18.4682 3.91385 16.6727 4.51224 14.6833C5.98169 9.79768 9.20665 6.07538 13.9735 3.76305C16.0576 2.7521 18.216 2.10796 20.5436 1.80249C21.9518 1.61762 24.6066 1.69184 26.0672 1.95679ZM21.7549 3.40787C20.9654 3.61237 20.415 4.0696 20.0269 4.84373C19.878 5.1408 19.843 5.1532 18.2659 5.46844L16.6568 5.79002L16.3957 5.59549C15.8249 5.17019 15.4623 5.04187 14.8263 5.04002C13.7966 5.03689 12.9518 5.60496 12.5521 6.56913C12.3657 7.01845 12.3603 7.97657 12.5416 8.41368L12.6794 8.7462L11.8754 9.82258C11.1988 10.7283 11.012 10.9169 10.6959 11.0129C9.77858 11.2914 9.08455 12.2882 9.08504 13.3261C9.08523 13.6504 9.1519 14.0756 9.23311 14.2712C9.45163 14.7968 10.0278 15.3892 10.5182 15.5924L10.9501 15.7712L11.5959 17.4023L12.2417 19.0336L12 19.4043C10.906 21.0829 11.8774 23.1327 13.8526 23.3131C14.3166 23.3556 14.507 23.3222 14.9358 23.1233C15.511 22.8565 16.01 22.3933 16.1875 21.9613L16.3034 21.6794H18.5688C20.4061 21.6794 20.8344 21.7043 20.8344 21.8113C20.8344 22.0649 21.4114 22.7428 21.8454 22.9991C22.1315 23.1681 22.4987 23.2802 22.9061 23.323L23.5291 23.3884L24.8592 25.4201L26.1892 27.4517L25.9271 27.9369C25.0028 29.6485 26.1507 31.6405 28.0616 31.6405C29.0962 31.6405 30.0584 30.965 30.3749 30.0167C30.4721 29.7252 30.7204 29.4548 31.4577 28.8374C31.9839 28.3968 32.4854 28.0343 32.5721 28.0317C32.6589 28.0292 32.8864 28.0931 33.0778 28.1736C34.4257 28.7412 36.0586 27.715 36.2909 26.1544C36.445 25.1191 35.7366 23.9042 34.7792 23.5615C34.3401 23.4043 34.2327 23.2963 33.5223 22.2993C32.8825 21.4012 32.7564 21.1649 32.8074 20.9599C32.8876 20.6381 32.9573 20.5887 33.7862 20.2657L34.4799 19.9955L34.8582 20.3019C35.8221 21.0825 37.3306 20.9307 38.1687 19.9686C38.618 19.4529 38.7616 19.0567 38.7616 18.3325C38.7616 17.2576 38.1305 16.3372 37.1759 16.0197C36.9032 15.929 36.7909 15.7649 36.252 14.6682L35.6386 13.4201L35.8917 13.0441C36.7274 11.8031 36.2939 10.173 34.9339 9.44221C34.4433 9.17863 33.3389 9.1505 32.9025 9.39054L32.6153 9.54846L31.9089 8.96681C31.2658 8.43712 31.209 8.36173 31.2741 8.12305C31.5657 7.0538 31.0444 5.88211 30.0296 5.32547C29.1878 4.86365 27.9957 4.97869 27.3572 5.58319L27.1426 5.78641L25.8934 5.47342L24.6443 5.16033L24.477 4.778C24.0501 3.80299 22.7522 3.14967 21.7549 3.40787ZM22.8451 5.30125C23.3386 5.75653 22.953 6.64023 22.2608 6.64023C21.9302 6.64023 21.607 6.38769 21.4827 6.0326C21.3786 5.73455 21.6143 5.2618 21.9375 5.12097C22.287 4.96853 22.5386 5.01853 22.8451 5.30125ZM15.5112 7.09209C15.8106 7.65576 15.4523 8.3004 14.8399 8.3004C14.3703 8.3004 14.0511 7.98418 14.0511 7.51914C14.0511 6.71171 15.1401 6.39325 15.5112 7.09209ZM29.6137 7.18506C29.6873 7.36279 29.7198 7.5876 29.6857 7.68457C29.3666 8.59308 28.1021 8.46095 28.1021 7.51914C28.1021 6.65048 29.2837 6.38935 29.6137 7.18506ZM20.1049 7.02236C20.1372 7.12509 20.3534 7.39434 20.5853 7.6208L21.0068 8.03262L20.2805 9.24718C19.7986 10.053 19.5102 10.4449 19.4233 10.4113C19.3514 10.3834 18.7656 10.0215 18.1213 9.60695C17.2173 9.02521 16.9657 8.81798 17.0185 8.69884C17.0562 8.61398 17.153 8.27423 17.2336 7.94375L17.3802 7.34297L18.5501 7.09961C20.0089 6.79619 20.0332 6.79501 20.1049 7.02236ZM26.4548 7.72969C26.4548 8.50831 27.0711 9.40539 27.8599 9.77473C28.3404 9.99983 29.2988 10.018 29.7897 9.81125L30.1443 9.66193L30.8197 10.222L31.4951 10.782L31.4329 11.2745C31.3986 11.5455 31.3563 11.784 31.3387 11.8044C31.3212 11.8249 30.7148 11.9621 29.9912 12.1091L28.6755 12.3766L28.5368 12.1061C28.3313 11.7058 27.657 11.1643 27.146 10.9893C26.7848 10.8657 26.4176 10.5545 25.2677 9.39826C24.4815 8.60782 23.8384 7.91241 23.8384 7.85284C23.8384 7.79336 23.93 7.66113 24.0421 7.55889C24.1542 7.45674 24.3055 7.25693 24.3783 7.11494L24.5108 6.85683L25.4827 7.10244L26.4548 7.34805V7.72969ZM24.5702 11.7256C24.3918 11.9247 24.2167 12.1802 24.1809 12.2935C24.1205 12.4855 24.0482 12.4997 23.1271 12.4997H22.1382L21.95 12.1476C21.8465 11.9538 21.6012 11.6569 21.4049 11.4875L21.048 11.1797L21.7329 10.0266L22.4179 8.87355L23.6562 10.1187L24.8945 11.3639L24.5702 11.7256ZM16.7159 10.6696C18.1219 11.5713 18.112 11.5613 17.8603 11.8384C17.7494 11.9604 17.6291 12.1591 17.5927 12.2799C17.5271 12.4977 17.51 12.4997 15.7012 12.4997H13.8757L13.6254 12.0692C13.4877 11.8325 13.2596 11.5539 13.1184 11.4503L12.8618 11.2619L13.367 10.5816L13.8723 9.9011L14.7612 9.94358L15.65 9.98596L16.7159 10.6696ZM34.4442 11.1327C34.7355 11.4262 34.6975 11.9812 34.3664 12.2682C34.0221 12.5666 33.6257 12.5637 33.3007 12.2602C32.7215 11.7193 33.1908 10.7504 33.9646 10.8897C34.1242 10.9184 34.34 11.0278 34.4442 11.1327ZM11.9122 12.6425C12.0631 12.7211 12.2135 12.8565 12.2466 12.9435C12.5715 13.7967 11.6606 14.5305 11.0094 13.9401C10.6024 13.5711 10.6602 12.9044 11.121 12.6525C11.4583 12.4681 11.5747 12.4665 11.9122 12.6425ZM20.3931 12.7928C20.6844 13.0864 20.6465 13.6414 20.3153 13.9284C19.7761 14.3959 18.9896 14.0561 18.9963 13.3586C19.0035 12.6021 19.8597 12.2553 20.3931 12.7928ZM27.012 12.8505C27.4677 13.3646 27.1002 14.1494 26.4004 14.1567C25.83 14.1627 25.418 13.4878 25.6918 12.9961C25.9907 12.4595 26.6052 12.3917 27.012 12.8505ZM32.1319 13.5116C32.2143 13.7279 30.716 17.4031 30.5864 17.3028C29.8519 16.7351 28.1021 15.3002 28.1021 15.2656C28.1021 15.2408 28.233 15.0288 28.3929 14.7946C28.5528 14.5604 28.6836 14.3244 28.6836 14.2701C28.6836 14.2158 28.7364 14.1384 28.8009 14.0983C28.8907 14.0423 31.614 13.439 32.0055 13.3883C32.0472 13.383 32.1041 13.4384 32.1319 13.5116ZM17.7225 14.6457C17.8943 14.913 18.0767 15.1576 18.1277 15.1894C18.1788 15.2212 17.3848 15.9496 16.3631 16.808C14.5836 18.3034 14.4897 18.3676 14.1226 18.3396L13.7394 18.3103L13.2018 16.9547L12.6643 15.5991L13.0706 15.2589C13.2942 15.0717 13.5635 14.7479 13.6691 14.5392L13.8612 14.1598H15.6356H17.4101L17.7225 14.6457ZM24.2339 14.4722C24.3046 14.644 24.5335 14.9519 24.7427 15.1565L25.1229 15.5284L24.2823 16.9437C23.5259 18.2172 23.4149 18.3591 23.1752 18.3591C22.9239 18.3591 22.8683 18.2672 22.2006 16.7496L21.4924 15.1401L21.7381 14.8458C21.8733 14.684 22.0115 14.4633 22.0455 14.3556C22.102 14.1763 22.1914 14.1598 23.1064 14.1598H24.1055L24.2339 14.4722ZM34.6417 15.1335L35.1171 16.1071L34.6808 16.5405C34.2219 16.9965 33.9689 17.4804 33.87 18.0911C33.8203 18.3974 33.7521 18.4824 33.4573 18.6066C32.7963 18.885 32.7251 18.8755 32.4521 18.4738L32.199 18.1015L32.9784 16.1306C33.9386 13.7028 33.9422 13.7006 34.6417 15.1335ZM20.9149 17.9298L21.3936 19.0142L21.114 19.4337C20.9602 19.6646 20.8344 19.8906 20.8344 19.9362C20.8344 19.982 19.8176 20.0193 18.575 20.0193H16.3157L16.1473 19.6632C16.0546 19.4673 16.0138 19.2735 16.0566 19.2325C16.0994 19.1916 17.0066 18.4267 18.0726 17.5327L20.0107 15.9074L20.2234 16.3764C20.3404 16.6344 20.6516 17.3334 20.9149 17.9298ZM27.7881 17.1897C28.3871 17.6745 28.8774 18.0946 28.8774 18.1232C28.8774 18.1519 28.751 18.3374 28.5965 18.5357C28.442 18.734 28.2883 18.9891 28.2551 19.1024C28.2028 19.2803 28.0171 19.3444 26.9128 19.5664C26.2079 19.7081 25.5657 19.8222 25.4857 19.8198C25.4058 19.8176 25.2442 19.6636 25.1266 19.4777L24.9128 19.1398L25.7562 17.724C26.2201 16.9454 26.6219 16.3083 26.6492 16.3083C26.6764 16.3083 27.1889 16.705 27.7881 17.1897ZM36.6339 17.5778C36.8314 17.5778 37.1142 18.0226 37.1142 18.3331C37.1142 19.0287 36.2339 19.4189 35.7889 18.9206C35.5086 18.6067 35.4604 18.407 35.5809 18.0586C35.6895 17.7445 36.168 17.4443 36.4196 17.5325C36.4905 17.5574 36.587 17.5778 36.6339 17.5778ZM31.261 19.6852C31.4932 20.2452 31.1218 20.8005 30.5149 20.8005C30.0736 20.8005 29.7495 20.4506 29.7495 19.9742C29.7495 19.1468 30.9431 18.9186 31.261 19.6852ZM14.4471 20.1445C14.8916 20.4884 14.9312 21.0029 14.5431 21.394C14.1755 21.7644 13.8297 21.7644 13.4622 21.394C13.1591 21.0885 13.1146 20.8544 13.2869 20.4733C13.4697 20.0691 14.1138 19.8865 14.4471 20.1445ZM23.6634 20.3161C23.9097 20.5644 23.9482 20.6644 23.8983 20.9265C23.8301 21.2843 23.4365 21.6794 23.1482 21.6794C22.3918 21.6794 22.016 20.8081 22.5434 20.2767C22.8944 19.9229 23.2869 19.9367 23.6634 20.3161ZM28.4179 21.2751C28.6854 21.7316 29.3218 22.2469 29.7682 22.3687C30.0004 22.432 30.4855 22.461 30.8616 22.4342C31.6103 22.3808 31.5164 22.3232 32.1379 23.2168L32.494 23.7288L32.13 24.0851C31.5761 24.6272 31.3685 25.1975 31.4247 26.0228C31.458 26.5134 31.4356 26.732 31.3446 26.8041C31.275 26.8591 30.977 27.0945 30.6824 27.3272L30.1468 27.7504L29.8176 27.4187C29.3767 26.9743 28.8733 26.7475 28.1889 26.685L27.6215 26.6332L26.2944 24.586L24.9674 22.5389L25.2023 22.0847C25.3316 21.835 25.4471 21.6134 25.4591 21.5924C25.4785 21.5583 27.9045 21.0301 28.1539 21.0057C28.209 21.0002 28.3278 21.1215 28.4179 21.2751ZM34.4442 25.2929C34.7355 25.5865 34.6975 26.1415 34.3664 26.4285C34.0221 26.7269 33.6257 26.724 33.3007 26.4205C32.7215 25.8796 33.1908 24.9107 33.9646 25.05C34.1242 25.0787 34.34 25.1881 34.4442 25.2929ZM28.6593 28.671C28.9532 29.0023 28.9388 29.4034 28.6219 29.7229C27.983 30.3667 26.9014 29.6026 27.3391 28.8166C27.6381 28.28 28.2525 28.2122 28.6593 28.671Z" fill="#14D41C"/>
</svg>
