<svg width="50" height="44" viewBox="0 0 50 44" fill="none" xmlns="http://www.w3.org/2000/svg">
<path fill-rule="evenodd" clip-rule="evenodd" d="M24.253 0.127359C22.9961 0.431381 21.6142 1.49794 21.0574 2.59372C20.545 3.60223 20.3731 4.89127 20.6127 5.92842C20.987 7.54808 22.3666 9.00906 23.9748 9.48881L24.3655 9.60532L24.3925 11.0144L24.4193 12.4234L23.4645 12.5476C20.0557 12.9912 17.0297 14.4761 14.6036 16.8955C12.4918 19.0015 11.0688 21.6208 10.3995 24.6342C10.2974 25.0935 10.2175 26.0339 10.1843 27.1669C10.1393 28.704 10.1609 29.1409 10.3318 30.1379C10.552 31.4233 10.9034 32.6284 11.3369 33.5851C11.492 33.9274 11.6184 34.2562 11.6177 34.3157C11.617 34.3753 10.9509 34.8053 10.1375 35.2712L8.65839 36.1184L8.20957 35.6759C6.34202 33.8348 3.27686 33.8759 1.42337 35.767C-0.485309 37.7142 -0.473002 40.6469 1.45189 42.5666C2.95521 44.0658 5.04567 44.4147 6.99459 43.4917C8.8515 42.6122 10.0189 40.4114 9.66396 38.4593C9.60428 38.1308 9.56912 37.8502 9.58592 37.8359C9.72589 37.7166 12.588 36.1301 12.6551 36.1348C12.7029 36.1381 12.9619 36.4471 13.2305 36.8214C13.8152 37.6364 15.5229 39.3133 16.4055 39.9393C17.4098 40.6515 18.7123 41.3599 19.7907 41.7803C21.1505 42.3106 21.6081 42.2897 21.9226 41.6832C22.2748 41.0039 21.9302 40.4794 20.898 40.1239C17.8777 39.0833 15.0978 36.646 13.588 33.7144C12.5646 31.7277 12.1081 29.8562 12.1075 27.6467C12.1067 24.0697 13.3524 20.996 15.8388 18.4402C17.6993 16.5278 19.6705 15.3989 22.3143 14.7316C23.6364 14.398 25.9671 14.3096 27.4153 14.5384C32.2235 15.2979 36.271 18.6486 37.8817 23.2034C38.4257 24.7413 38.6115 25.8588 38.6134 27.6052C38.6161 29.9704 38.2138 31.6405 37.1446 33.703C35.5885 36.7048 32.6622 39.234 29.6494 40.1812C28.9675 40.3956 28.6144 40.7628 28.6144 41.2579C28.6144 41.7304 29.0542 42.1683 29.5289 42.1683C30.3663 42.1683 32.9602 40.942 34.4261 39.853C35.4807 39.0696 36.8847 37.6901 37.547 36.7863C37.8121 36.4247 38.0587 36.1287 38.0951 36.1287C38.1315 36.1287 38.6834 36.4326 39.3216 36.8038C40.1968 37.313 40.4756 37.5224 40.4563 37.6562C40.4421 37.7537 40.3853 38.0911 40.33 38.4059C40.0906 39.7697 40.6412 41.3738 41.7169 42.4466C43.6427 44.3673 46.6825 44.3548 48.589 42.4182C50.4856 40.4917 50.4682 37.5473 48.5489 35.633C46.7621 33.8512 44.1888 33.7078 42.1129 35.2744C41.7742 35.5301 41.4716 35.7391 41.4404 35.7391C41.3958 35.7391 39.227 34.5199 39.0791 34.4118C39.0596 34.3975 39.199 34.0218 39.3889 33.577C40.2411 31.58 40.5682 29.9258 40.5701 27.6052C40.5714 25.7457 40.3734 24.4676 39.833 22.8488C37.9929 17.3368 33.0504 13.2836 27.2713 12.5473L26.3678 12.4322V11.0022V9.5722L26.8543 9.4479C27.7566 9.21723 28.9359 8.28149 29.5275 7.32696C30.1612 6.30433 30.3708 4.67629 30.0216 3.48923C29.3066 1.05891 26.6947 -0.463345 24.253 0.127359ZM26.2719 2.10238C26.9568 2.32292 27.7371 3.03704 28.0267 3.70841C28.337 4.42779 28.28 5.60326 27.9039 6.24335C26.9471 7.87158 24.9039 8.22285 23.4313 7.01232C23.2431 6.85753 22.9588 6.49623 22.7994 6.20935C22.5415 5.74489 22.5099 5.59673 22.511 4.85962C22.5122 4.15387 22.5505 3.95973 22.7706 3.54456C23.4579 2.24752 24.8905 1.6574 26.2719 2.10238ZM21.4841 20.6425C19.3496 21.6679 17.7295 22.5043 17.6015 22.6469L17.3817 22.8917V27.1284C17.3817 31.9645 17.3493 31.761 18.183 32.1614C18.4676 32.298 20.1502 33.1195 21.9223 33.9868C24.6953 35.344 25.1921 35.5568 25.4875 35.5144C25.6762 35.4872 27.4431 34.6747 29.4138 33.7088C32.1365 32.3744 33.0396 31.8878 33.1743 31.6827C33.3389 31.4322 33.3517 31.1038 33.3517 27.1335V22.8541L33.0098 22.5712C32.5989 22.2311 25.8574 18.9833 25.4399 18.9243C25.2112 18.892 24.3438 19.2686 21.4841 20.6425ZM28.419 22.4235L30.1284 23.251L27.7353 24.4154L25.3423 25.5797L22.998 24.4166C21.7087 23.7769 20.6481 23.2464 20.6409 23.2376C20.6338 23.2288 21.6887 22.715 22.9851 22.0955L25.3423 20.9694L26.026 21.2826C26.402 21.455 27.4789 21.9683 28.419 22.4235ZM21.9142 26.06L24.4143 27.2909V30.1513C24.4143 31.7245 24.3955 33.0116 24.3723 33.0116C24.3493 33.0116 23.2065 32.4562 21.8328 31.7775L19.3352 30.5434V27.6862C19.3352 26.1147 19.353 24.829 19.3747 24.829C19.3964 24.829 20.5392 25.383 21.9142 26.06ZM31.3493 27.7013V30.5735L30.7388 30.8814C30.4031 31.0507 29.2822 31.5963 28.2481 32.0937L26.3678 32.9981V30.1252V27.2522L28.8342 26.0482C30.1906 25.3861 31.3115 24.8408 31.3249 24.8366C31.3383 24.8324 31.3493 26.1216 31.3493 27.7013ZM46.434 36.4624C48.0616 37.2566 48.5381 39.369 47.4195 40.8301C46.6695 41.8096 45.1305 42.1985 43.9983 41.6945C41.9206 40.7696 41.6304 38.0333 43.4671 36.6862C44.3113 36.0671 45.4481 35.9814 46.434 36.4624ZM6.1159 36.5738C8.31057 37.6302 8.2799 40.7112 6.06374 41.8001C5.38157 42.1352 4.33459 42.1142 3.59167 41.7504C1.19227 40.5752 1.53208 37.0905 4.11599 36.3735C4.77569 36.1905 5.46235 36.2593 6.1159 36.5738ZM24.9376 40.9986C24.6345 41.1205 24.4143 41.481 24.4143 41.8554C24.4143 42.2884 24.5525 42.5234 24.9175 42.7116C25.568 43.0471 26.3146 42.5924 26.3146 41.8605C26.3146 41.1716 25.6074 40.7289 24.9376 40.9986Z" fill="#A5CB0D"/>
</svg>
