<svg width="50" height="16" viewBox="0 0 50 16" fill="none" xmlns="http://www.w3.org/2000/svg">
<path fill-rule="evenodd" clip-rule="evenodd" d="M6.00544 0.0707089C3.30124 0.591895 1.09049 2.80321 0.244892 5.83289C-0.0816307 7.0026 -0.0816307 9.01275 0.244892 10.1825C1.01216 12.9313 2.76877 14.8851 5.2463 15.7453C5.97973 16 5.98012 16 11.6027 16C17.9124 16 17.7731 16.0147 19.2792 15.1899C21.0056 14.2444 22.3883 12.4696 22.9896 10.4271L23.1577 9.85623H25H26.8423L27.0104 10.4271C27.6117 12.4696 28.9944 14.2444 30.7208 15.1899C32.2269 16.0147 32.0876 16 38.3973 16C44.0199 16 44.0203 16 44.7537 15.7453C47.2312 14.8851 48.9878 12.9313 49.7551 10.1825C50.0816 9.01275 50.0816 7.0026 49.7551 5.83289C48.9878 3.08408 47.2312 1.13026 44.7537 0.270027C44.0203 0.01536 44.0199 0.0153605 38.3973 0.0153605C32.0876 0.0153605 32.2269 0.000680386 30.7208 0.825465C28.9944 1.77095 27.6117 3.54579 27.0104 5.58823L26.8423 6.15911H25L23.1577 6.15911L22.9896 5.58823C22.3882 3.54535 21.0049 1.76986 19.2792 0.826009C17.7786 0.00513924 17.9646 0.0259078 11.8961 0.00242021C8.911 -0.00910612 6.26029 0.0216677 6.00544 0.0707089ZM17.3681 3.90811C18.1271 4.24106 18.7568 4.76812 19.2064 5.44687L19.6421 6.10474L18.4094 6.13519L17.1768 6.16563V8.00767V9.84971L18.4094 9.88016L19.6421 9.9106L19.2064 10.5685C18.7567 11.2474 18.1267 11.7746 17.3681 12.107C16.9776 12.2782 16.4307 12.3017 12.1 12.3333C9.16076 12.3548 7.01914 12.3257 6.63326 12.2588C4.95224 11.9678 3.6747 10.5653 3.37664 8.68348C3.02469 6.46162 4.48353 4.15407 6.48335 3.76946C6.74425 3.71934 9.20193 3.68693 11.945 3.69759C16.4477 3.7151 16.9746 3.73554 17.3681 3.90811ZM44.0692 3.90887C45.1464 4.37438 46.0278 5.34281 46.4421 6.51588C46.6979 7.24052 46.7147 8.70088 46.4755 9.42128C46.0766 10.6225 45.1048 11.6924 44.0355 12.1072C43.5743 12.2861 43.0845 12.3029 38.2995 12.3029C33.5132 12.3029 33.0307 12.2864 32.6319 12.1094C31.8686 11.7708 31.2421 11.2456 30.7936 10.5685L30.3579 9.9106L31.5906 9.88016L32.8232 9.84971V8.00441V6.15911H31.5953H30.3674L30.544 5.81724C31.035 4.86707 32.1334 3.99608 33.121 3.77381C33.3606 3.71988 35.823 3.68541 38.5929 3.69726C43.1259 3.71662 43.6731 3.73771 44.0692 3.90887Z" fill="#7D39EC"/>
</svg>
