<svg width="105" height="83" viewBox="0 0 105 83" fill="none" xmlns="http://www.w3.org/2000/svg">
<path fill-rule="evenodd" clip-rule="evenodd" d="M38.9958 9.08316L32.4153 18.1751L28.9381 32.6672C27.0256 40.6379 25.4644 47.1774 25.4687 47.1994C25.4731 47.2213 29.9999 49.8474 35.5283 53.035C44.7812 58.3701 45.5848 58.8276 45.6416 58.7915C45.7045 58.7515 46.2389 58.4444 47.8746 57.5083C48.3818 57.218 49.2385 56.7274 49.7783 56.418C50.3182 56.1086 51.0945 55.6638 51.5035 55.4296C51.9125 55.1954 52.6889 54.7506 53.2288 54.4412C53.7686 54.1318 54.4312 53.7522 54.7011 53.5977C54.9711 53.4431 56.9454 52.3118 59.0885 51.0836C61.2317 49.8553 63.3666 48.6319 63.8329 48.3648C64.2991 48.0977 64.9349 47.7332 65.2458 47.5549C65.67 47.3115 65.8087 47.2181 65.802 47.1805C65.7971 47.1529 64.2599 40.6185 62.3859 32.6597L58.9787 18.189L52.2856 9.09889C48.6044 4.09929 45.5888 0.00480068 45.5844 4.21706e-06C45.58 -0.00479224 42.6151 4.08263 38.9958 9.08316ZM40.8362 21.0868C38.3637 25.2822 36.3316 28.7148 36.3205 28.7148C36.2998 28.7148 32.9773 18.3596 32.9773 18.2948C32.9773 18.275 35.7537 14.4231 39.1469 9.73513L45.3166 1.21147L45.3241 7.33519L45.3316 13.4589L40.8362 21.0868ZM52.1542 9.76996L58.4199 18.2812L56.7056 23.5489C55.7628 26.4461 54.983 28.8309 54.9727 28.8485C54.9624 28.8661 52.9027 25.4155 50.3955 21.1805L45.8371 13.4805V7.34196C45.8371 3.8815 45.8484 1.21551 45.8629 1.2311C45.877 1.24627 48.7082 5.08879 52.1542 9.76996ZM50.2108 21.869C52.7012 26.0738 54.7393 29.5293 54.7398 29.5477C54.7404 29.5661 53.484 33.4414 51.948 38.1595L49.1552 46.7379H45.6087H42.0623L42.0348 46.6434C42.0197 46.5914 40.7736 42.6937 39.2656 37.9818L36.5238 29.4147L40.9905 21.8337C43.4472 17.6642 45.4843 14.209 45.5174 14.1555L45.5777 14.0584L45.6302 14.141C45.6591 14.1865 47.7204 17.6641 50.2108 21.869ZM34.2946 24.3315L35.9309 29.4102L31.1946 37.4467C28.5896 41.8667 26.4553 45.4802 26.4516 45.4766C26.448 45.473 27.824 39.6235 29.5094 32.4777C31.1948 25.3318 32.5886 19.4198 32.6065 19.3399C32.6246 19.26 32.6436 19.2076 32.6489 19.2236C32.6541 19.2396 33.3947 21.5381 34.2946 24.3315ZM61.8525 32.6101C63.5439 39.7808 64.9247 45.6509 64.9211 45.6547C64.9143 45.6616 60.9837 39.05 57.3414 32.9049L55.3537 29.5516L57.0085 24.4167C57.9187 21.5925 58.6711 19.2692 58.6808 19.2538C58.6904 19.2385 58.716 19.3039 58.7378 19.3992C58.7595 19.4945 60.1611 25.4394 61.8525 32.6101ZM56.8513 33.0898C57.8093 34.7046 60.0184 38.4327 61.7603 41.3746L64.9275 46.7233L57.3257 46.7307C53.1447 46.7347 49.7198 46.734 49.7148 46.7291C49.7098 46.7242 50.92 42.9905 52.4041 38.432C53.8882 33.8735 55.104 30.146 55.106 30.1488C55.1079 30.1515 55.8933 31.4749 56.8513 33.0898ZM38.8771 38.4676C40.3179 42.9763 41.5017 46.6798 41.5079 46.6976C41.5161 46.7213 39.5002 46.7296 33.953 46.7286C29.7917 46.7279 26.3907 46.7199 26.3952 46.7108C26.3996 46.7017 28.6108 42.9757 31.3089 38.4308C34.9011 32.3798 36.2204 30.181 36.2361 30.2187C36.2479 30.2469 37.4364 33.9589 38.8771 38.4676ZM43.4047 52.6073C44.3501 55.5557 45.1175 57.974 45.1101 57.9812C45.0977 57.9933 26.7342 47.3143 26.6679 47.2566C26.6523 47.243 30.0249 47.2352 34.1626 47.2393L41.6857 47.2466L43.4047 52.6073ZM48.9503 47.2975C48.9136 47.4384 45.5838 57.7196 45.5768 57.7134C45.5728 57.7097 44.8531 55.3728 43.9775 52.5203C43.1019 49.6677 42.3782 47.3109 42.3693 47.2829C42.3538 47.2347 42.524 47.232 45.6601 47.232H48.9673L48.9503 47.2975ZM64.6349 47.2719C64.5655 47.3354 46.0727 57.9951 46.0576 57.9804C46.0501 57.973 46.8303 55.5517 47.7914 52.5995L49.5389 47.232H57.1087C63.5193 47.232 64.6718 47.2381 64.6349 47.2719ZM44.796 60.421C42.7705 60.5412 40.8508 61.1117 39.4419 62.0121C38.5907 62.5562 37.6865 63.4486 37.0695 64.3539C36.0167 65.8984 35.4911 67.6625 35.3358 70.1718C35.2871 70.9598 35.3146 73.3588 35.3796 73.9905C35.6431 76.5489 36.35 78.3332 37.7178 79.8916C37.9996 80.2127 38.5722 80.7575 38.8918 81.0086C40.2313 82.0612 42.1292 82.7373 44.3796 82.9635C44.8626 83.0121 46.3641 83.0122 46.8484 82.9637C48.0376 82.8446 49.1205 82.6098 50.046 82.2703C50.5714 82.0777 51.4231 81.6593 51.8307 81.3937C52.3287 81.0692 52.6318 80.8249 53.0807 80.3863C54.674 78.8294 55.5533 76.9009 55.8445 74.3248C56.0075 72.8828 56.0201 70.7515 55.8741 69.3103C55.64 67.0002 54.9759 65.2444 53.7795 63.7726C53.45 63.3671 52.6455 62.5873 52.2855 62.3243C50.7983 61.2377 48.8251 60.5861 46.551 60.4306C46.153 60.4033 45.1822 60.398 44.796 60.421ZM84.4386 60.4758C82.8041 60.6341 81.4758 61.076 80.4013 61.8188C80.0383 62.0698 79.4594 62.6349 79.2039 62.9877C78.9532 63.3339 78.6183 63.9833 78.4844 64.383C78.2632 65.0432 78.1531 65.759 78.1786 66.3712C78.2691 68.5458 79.6166 70.2129 82.1409 71.2736C82.7564 71.5322 83.7456 71.8339 84.8924 72.1127C86.6731 72.5457 87.5034 72.8123 88.3874 73.2349C89.7235 73.8736 90.5458 74.7128 90.851 75.7492C90.9918 76.2271 91.0372 77.073 90.947 77.534C90.8873 77.839 90.6921 78.3968 90.5431 78.6884C90.2307 79.2998 89.6922 79.8999 89.1302 80.2631C87.5339 81.2946 85.0344 81.513 81.9476 80.8905C80.2814 80.5546 78.895 80.0833 78.1774 79.609L78.051 79.5254V80.5131V81.5007L78.222 81.6013C78.9398 82.0233 80.2248 82.4116 81.6948 82.6507C84.4724 83.1024 87.151 82.9896 88.7942 82.3517C90.73 81.6001 92.1007 80.1032 92.5775 78.2198C93.1158 76.094 92.3656 73.9447 90.6175 72.6038C89.4751 71.7276 87.9296 71.0909 85.5834 70.5299C84.0313 70.1588 83.0848 69.8528 82.3031 69.4695C80.8303 68.7472 80.0642 67.7963 79.9231 66.5154C79.8578 65.9228 80.0014 65.1742 80.3057 64.5211C80.6337 63.817 81.3262 63.15 82.1061 62.7867C83.4661 62.1533 85.3886 62.0191 87.7458 62.393C89.2799 62.6364 90.1605 62.9097 91.1611 63.453L91.4363 63.6024V62.6293V61.6562L91.0421 61.4673C89.9703 60.9536 88.4121 60.5847 86.7843 60.4591C86.2565 60.4184 84.934 60.4279 84.4386 60.4758ZM0 71.6503V82.6386H6.93059H13.8612V81.7956V80.9526H7.7932H1.72521V76.7375V72.5225H7.06445H12.4037V71.6649V70.8074H7.06445H1.72521V66.5923V62.3774L7.78576 62.37L13.8463 62.3627V61.5197V60.6767L6.92316 60.6693L0 60.662V71.6503ZM97.4745 60.9377V61.2133L98.1066 61.2211L98.7387 61.229L98.7463 62.8641L98.754 64.4993H99.081H99.4079V62.8569V61.2144H100.047H100.687V60.9383V60.6621H99.0807H97.4745V60.9377ZM101.133 62.5807V64.4993H101.431H101.728L101.729 62.8932C101.729 62.0099 101.741 61.3067 101.755 61.3307C101.768 61.3547 102.005 62.0773 102.282 62.9366L102.784 64.4989L103.087 64.4991L103.391 64.4993L103.447 64.3176C103.478 64.2177 103.703 63.5019 103.947 62.7271L104.39 61.3182L104.398 62.9088L104.406 64.4993H104.703H105V62.5807V60.6621H104.525H104.051L103.978 60.8874C103.939 61.0113 103.729 61.6817 103.513 62.3772C103.296 63.0727 103.11 63.6517 103.098 63.6639C103.087 63.6761 102.858 63.0057 102.589 62.1741L102.1 60.6621H101.617H101.133V62.5807ZM47.1392 62.1846C48.2924 62.3379 49.2129 62.5869 50.0438 62.9705C50.7005 63.2737 51.2064 63.617 51.7381 64.1202C53.0632 65.3743 53.8391 66.9853 54.119 69.0632C54.2835 70.2846 54.2909 72.5642 54.1346 73.9016C53.9651 75.3523 53.6363 76.4929 53.0909 77.5223C52.5384 78.5652 51.8064 79.3736 50.8491 79.9981C50.5314 80.2053 49.7465 80.5877 49.3404 80.7332C48.7141 80.9574 47.8533 81.1402 46.9872 81.233C46.4054 81.2954 44.8461 81.3043 44.3499 81.2482C42.3808 81.0253 40.8634 80.4525 39.8007 79.5311C38.4194 78.3333 37.5997 76.8416 37.2571 74.9026C37.1013 74.0211 37.0336 73.0739 37.033 71.7667C37.0319 69.4064 37.272 67.8677 37.8528 66.5128C38.4461 65.1289 39.5196 63.9078 40.7539 63.2129C41.7641 62.6442 43.1512 62.2627 44.6324 62.1461C45.1305 62.1069 46.7406 62.1317 47.1392 62.1846Z" fill="#394155"/>
</svg>
