<svg width="46" height="50" viewBox="0 0 46 50" fill="none" xmlns="http://www.w3.org/2000/svg">
<path d="M44.9412 38.8785C44.9423 38.9597 44.9184 39.0392 44.873 39.1062C44.8275 39.1731 44.7626 39.2243 44.6872 39.2527L39.0606 42.1083C38.9828 42.1514 38.8954 42.174 38.8066 42.174C38.7178 42.174 38.6305 42.1514 38.5527 42.1083C36.599 41.1433 34.8211 40.1389 32.9456 39.2527C32.633 39.0952 32.5744 38.9376 32.7502 38.6028C34.7039 35.0186 36.6576 31.4148 38.455 27.8306C38.455 27.673 38.6113 27.5352 38.8066 27.5352C39.002 27.5352 39.0802 27.673 39.1778 27.8306L44.8435 38.5438C44.8435 38.5438 44.9021 38.7801 44.9412 38.8785ZM33.7075 38.2484H33.8443L38.3378 36.279C38.5136 36.1805 38.5136 36.0427 38.5136 36.0427V29.4257C38.5136 29.4257 38.5136 29.4257 38.5136 29.2091L33.7075 38.2484ZM39.1583 29.2288C39.152 29.2613 39.152 29.2947 39.1583 29.3273C39.1583 31.5526 39.1583 33.778 39.1583 36.0033C39.1583 36.1609 39.1583 36.2002 39.3537 36.2396L43.7494 38.209H43.9643L39.1583 29.2288ZM43.8862 38.9573L39.1388 36.988V41.4781L43.8862 38.9573ZM38.4745 36.988L33.7466 38.9573L38.5136 41.3796L38.4745 36.988Z" fill="#410EAD"/>
<path d="M45.0002 41.0212C45.0002 41.0212 45.0002 41.1984 44.8634 41.2772L39.1196 49.8241C39.0885 49.8772 39.0442 49.9212 38.9911 49.9518C38.938 49.9823 38.8779 49.9984 38.8168 49.9984C38.7556 49.9984 38.6955 49.9823 38.6424 49.9518C38.5893 49.9212 38.545 49.8772 38.5139 49.8241L32.8092 41.3363C32.692 41.1787 32.6334 41.0212 32.8092 40.8636C32.985 40.7061 33.1218 40.7258 33.2976 40.8636L38.5139 43.5813C38.5845 43.6248 38.6657 43.6479 38.7484 43.6479C38.8311 43.6479 38.9123 43.6248 38.9828 43.5813L44.375 40.7849C44.5508 40.7849 44.7071 40.6273 44.8634 40.7849C45.0197 40.9424 44.9415 40.9424 45.0002 41.0212ZM38.5139 48.5244V44.4872C38.52 44.4179 38.5044 44.3484 38.4694 44.2883C38.4343 44.2283 38.3816 44.1808 38.3186 44.1524L34.2159 41.9468H33.9814L38.5139 48.5244ZM39.2173 48.5244L43.5935 41.9468C43.5626 41.9338 43.5294 41.9271 43.4958 41.9271C43.4623 41.9271 43.4291 41.9338 43.3981 41.9468L39.315 44.054C39.2484 44.0834 39.1933 44.134 39.158 44.198C39.1227 44.262 39.1092 44.336 39.1196 44.4084C39.1196 45.6688 39.1196 46.9292 39.1196 48.2093L39.2173 48.5244Z" fill="#410EAD"/>
<path d="M24.0957 13.234C24.0957 13.6672 24.0957 14.1202 23.9199 14.5731C23.5736 16.8872 22.5674 19.05 21.0239 20.7981C19.4804 22.5463 17.4661 23.8046 15.2261 24.4198C13.5918 24.8183 11.894 24.8755 10.2371 24.5881C8.58008 24.3007 6.99894 23.6747 5.59086 22.7485C4.18279 21.8223 2.97755 20.6155 2.04926 19.2025C1.12097 17.7894 0.489244 16.1998 0.192942 14.5315C-0.103361 12.8632 -0.0579836 11.1515 0.326285 9.50152C0.710554 7.85157 1.42559 6.29828 2.42743 4.93719C3.42926 3.5761 4.69671 2.43597 6.15185 1.58691C7.60698 0.737852 9.21904 0.197809 10.8889 0H11.0843H12.6277L13.9171 0.177241C14.9716 0.348232 15.9974 0.666379 16.9648 1.12252C17.2774 1.26038 17.3751 1.47701 17.2774 1.71333C17.1797 1.94965 16.9257 2.00873 16.6327 1.87087C15.2213 1.20475 13.6901 0.83509 12.1325 0.784388C10.5748 0.733685 9.02319 1.003 7.57206 1.57594C6.12093 2.14889 4.80064 3.01348 3.69152 4.1171C2.58239 5.22073 1.70764 6.5403 1.1205 7.99552C0.27554 9.93118 -0.00776066 12.0686 0.30345 14.16C0.614661 16.2514 1.50763 18.211 2.87882 19.8115C3.78449 20.987 4.91879 21.9636 6.21218 22.6815C7.50557 23.3995 8.93079 23.8435 10.4005 23.9865C12.1982 24.2268 14.0269 24.0225 15.7287 23.3912C17.4306 22.7599 18.9545 21.7206 20.1689 20.363C21.8742 18.5978 22.929 16.2975 23.158 13.8445C23.4507 11.8078 23.1912 9.72934 22.407 7.82936C21.6228 5.92937 20.3431 4.27873 18.7036 3.05248C18.6539 3.02233 18.6107 2.98235 18.5768 2.93495C18.5428 2.88755 18.5187 2.8337 18.5059 2.77666C18.4931 2.71962 18.4919 2.66056 18.5024 2.60304C18.5129 2.54552 18.5348 2.49074 18.5668 2.44198C18.6053 2.39959 18.6521 2.36573 18.7042 2.34257C18.7563 2.31941 18.8127 2.30745 18.8697 2.30745C18.9266 2.30745 18.983 2.31941 19.0351 2.34257C19.0873 2.36573 19.134 2.39959 19.1725 2.44198L19.6609 2.81615C20.9796 3.873 22.0666 5.19388 22.8534 6.69544C23.6403 8.19701 24.1099 9.84666 24.2325 11.5403C24.2419 11.6188 24.2419 11.6982 24.2325 11.7766L24.0957 13.234Z" fill="#410EAD"/>
<path d="M20.0711 12.3913C20.0709 14.2789 19.4362 16.1108 18.2705 17.5881C17.1048 19.0654 15.4769 20.101 13.6524 20.5259C11.8278 20.9509 9.91427 20.7401 8.22381 19.9281C6.53335 19.116 5.16573 17.7505 4.34403 16.0543C4.18773 15.7589 4.34403 15.5225 4.48079 15.4044C4.61754 15.2862 4.93013 15.4044 5.08642 15.6998C5.62708 16.8415 6.45036 17.8236 7.47693 18.5514C8.5035 19.2792 9.69873 19.7282 10.9475 19.8551C12.4016 20.0115 13.8691 19.7326 15.167 19.0533C16.4648 18.3741 17.5354 17.3245 18.2451 16.0357C18.9549 14.7469 19.2722 13.2759 19.1576 11.8063C19.0431 10.3368 18.5016 8.9338 17.6008 7.77257C16.7001 6.61133 15.4799 5.74327 14.0928 5.27675C12.7056 4.81023 11.2128 4.76593 9.80078 5.14937C8.38877 5.53281 7.12008 6.32701 6.15311 7.43282C5.18614 8.53862 4.56372 9.90705 4.36356 11.3672C4.36356 11.8005 4.36356 12.2338 4.36356 12.6473C4.36356 13.0609 4.24634 13.1593 3.99237 13.179C3.73839 13.1987 3.56256 13.0215 3.54302 12.6867C3.50817 11.5495 3.70371 10.417 4.11771 9.35848C4.5317 8.29999 5.15546 7.33769 5.95085 6.53039C6.74625 5.72309 7.69658 5.08774 8.74379 4.66316C9.791 4.23859 10.9131 4.03369 12.0415 4.06101C13.9959 4.12237 15.8653 4.88025 17.3176 6.19995C18.7699 7.51965 19.7109 9.31567 19.9734 11.2688C20.0125 11.6627 20.0321 12.0171 20.0711 12.3913Z" fill="#410EAD"/>
<path d="M8.56364 8.6847L12.0412 11.6387L13.6041 9.66937L14.6396 8.34992C14.874 8.05452 15.0889 8.03482 15.3624 8.34992L17.9999 10.9888C18.0563 11.0288 18.1024 11.0819 18.1342 11.1436C18.166 11.2053 18.1826 11.2738 18.1826 11.3433C18.1826 11.4128 18.166 11.4813 18.1342 11.543C18.1024 11.6047 18.0563 11.6578 17.9999 11.6978L11.4355 18.748C11.3924 18.8229 11.3269 18.8823 11.2485 18.9177C11.1701 18.9531 11.0826 18.9627 10.9984 18.9453C10.9142 18.9279 10.8376 18.8843 10.7793 18.8206C10.721 18.757 10.6841 18.6765 10.6736 18.5905C9.42326 15.2032 8.19244 11.7766 6.98116 8.38931C6.82487 7.95605 6.98116 7.71973 7.46958 7.73942L12.725 7.97575C12.7837 7.97 12.843 7.97709 12.8988 7.99656C12.9546 8.01602 13.0055 8.04739 13.0482 8.08852C13.0909 8.12965 13.1242 8.17956 13.146 8.23487C13.1677 8.29018 13.1774 8.34958 13.1743 8.409C13.1694 8.46598 13.1534 8.52142 13.1271 8.57212C13.1008 8.62282 13.0649 8.66778 13.0213 8.70439C12.9777 8.74101 12.9273 8.76857 12.8731 8.78547C12.8189 8.80237 12.7619 8.80828 12.7054 8.80287C11.7872 8.80287 10.8885 8.80286 9.97028 8.6847H8.56364ZM12.471 12.6234C12.471 13.1748 12.3147 13.6868 12.217 14.1989C12.1193 14.7109 12.1193 14.8487 12.0607 15.1638C12.0462 15.2717 11.9918 15.3701 11.9086 15.4394C11.8253 15.5087 11.7192 15.5439 11.6114 15.538C11.5573 15.5308 11.5051 15.5127 11.458 15.485C11.4109 15.4572 11.3698 15.4202 11.337 15.3762C11.3043 15.3321 11.2806 15.282 11.2673 15.2286C11.254 15.1752 11.2514 15.1197 11.2597 15.0654C11.2597 15.0654 11.2597 14.9275 11.2597 14.8684C11.3769 14.1201 11.4942 13.3914 11.6309 12.6431C11.647 12.5819 11.6444 12.5172 11.6235 12.4575C11.6026 12.3977 11.5643 12.3458 11.5137 12.3083L8.44642 9.70876L8.23151 9.55122L11.2402 17.783L17.1012 11.3827L14.9912 9.17704L13.0376 11.6781H13.3111L15.2648 11.3236C15.3734 11.2997 15.487 11.3191 15.5818 11.3779C15.6765 11.4367 15.7449 11.5301 15.7727 11.6387C15.7839 11.6945 15.7835 11.7521 15.7716 11.8078C15.7597 11.8635 15.7365 11.9161 15.7035 11.9623C15.6705 12.0085 15.6284 12.0473 15.5798 12.0764C15.5312 12.1054 15.4771 12.124 15.421 12.131H15.1671L12.471 12.6234Z" fill="#410EAD"/>
<path d="M2.05757 10.9289C1.99768 10.9291 1.9384 10.9168 1.88353 10.8926C1.82866 10.8684 1.77942 10.8329 1.73895 10.7884C1.69848 10.7439 1.66769 10.6913 1.64854 10.6341C1.62939 10.5769 1.62231 10.5163 1.62776 10.4562C1.65456 10.2425 1.70034 10.0316 1.76452 9.82604C1.792 9.7278 1.85624 9.64415 1.94371 9.59271C2.03117 9.54128 2.13504 9.52609 2.2334 9.55034C2.33552 9.57398 2.42481 9.63612 2.48293 9.724C2.54105 9.81189 2.56362 9.91885 2.54599 10.023C2.54599 10.2199 2.54598 10.4168 2.42876 10.6138C2.40558 10.6979 2.35774 10.773 2.29151 10.8292C2.22527 10.8854 2.14373 10.9202 2.05757 10.9289Z" fill="#410EAD"/>
<path d="M8.11449 3.38803C8.10751 3.47849 8.07122 3.56412 8.0112 3.63173C7.95118 3.69935 7.87077 3.74519 7.78236 3.7622C7.50884 3.86067 7.2744 4.15607 6.94227 3.93944C6.88585 3.90172 6.83957 3.85051 6.80756 3.79037C6.77554 3.73024 6.75879 3.66306 6.75879 3.59481C6.75879 3.52656 6.77554 3.45938 6.80756 3.39925C6.83957 3.33911 6.88585 3.2879 6.94227 3.25018C7.1301 3.1428 7.32608 3.05061 7.52838 2.97447C7.59402 2.94264 7.66689 2.929 7.7395 2.93496C7.8121 2.94091 7.88182 2.96624 7.94149 3.00835C8.00117 3.05046 8.04865 3.10783 8.07905 3.17456C8.10945 3.24128 8.12168 3.31496 8.11449 3.38803Z" fill="#410EAD"/>
<path d="M3.95279 18.083C4.01019 18.0661 4.07121 18.0661 4.12862 18.083C4.31318 18.2801 4.48296 18.4908 4.63657 18.7132C4.68065 18.7922 4.69308 18.8852 4.67128 18.9731C4.64948 19.061 4.59511 19.1371 4.51935 19.1859C4.48653 19.2204 4.4471 19.2479 4.40345 19.2667C4.3598 19.2855 4.31283 19.2952 4.26537 19.2952C4.21791 19.2952 4.17095 19.2855 4.1273 19.2667C4.08365 19.2479 4.04422 19.2204 4.01139 19.1859C3.82854 19.0119 3.67072 18.8131 3.54251 18.5951C3.52278 18.5329 3.51868 18.4668 3.53058 18.4026C3.54248 18.3385 3.57001 18.2783 3.61069 18.2275C3.65137 18.1768 3.70393 18.137 3.76364 18.1118C3.82336 18.0865 3.88835 18.0767 3.95279 18.083Z" fill="#410EAD"/>
<path d="M19.1922 5.35179C19.4853 5.35179 20.0128 5.98199 19.9542 6.27739C19.9482 6.34525 19.924 6.41018 19.8842 6.46519C19.8443 6.5202 19.7903 6.5632 19.728 6.58954C19.6656 6.61589 19.5974 6.62458 19.5305 6.61469C19.4636 6.60479 19.4007 6.57668 19.3485 6.53339C19.1491 6.36499 18.9776 6.16555 18.8406 5.94259C18.8057 5.88173 18.7875 5.81256 18.7881 5.74225C18.7887 5.67195 18.8079 5.60308 18.8438 5.54279C18.8797 5.4825 18.9309 5.43299 18.9922 5.39941C19.0534 5.36582 19.1225 5.34938 19.1922 5.35179Z" fill="#410EAD"/>
<path d="M1.6479 14.4925C1.63564 14.3863 1.66278 14.2793 1.7241 14.192C1.78541 14.1048 1.87656 14.0434 1.98002 14.0199C2.07323 13.9954 2.17222 14.0085 2.25606 14.0562C2.33991 14.104 2.40205 14.1828 2.42937 14.2759C2.49965 14.4876 2.55194 14.705 2.58566 14.9257C2.58645 15.0165 2.55763 15.1049 2.50362 15.1775C2.44961 15.2501 2.37341 15.3028 2.28678 15.3274C2.20015 15.352 2.10788 15.3473 2.02421 15.3138C1.94053 15.2804 1.87009 15.2201 1.82373 15.1424C1.75434 14.9289 1.69566 14.712 1.6479 14.4925Z" fill="#410EAD"/>
<path d="M19.7583 17.8449C19.8319 17.8394 19.9056 17.8539 19.9716 17.887C20.0377 17.9202 20.0936 17.9706 20.1336 18.0331C20.1736 18.0956 20.1962 18.1678 20.1989 18.2421C20.2016 18.3164 20.1844 18.3901 20.149 18.4554C20.0343 18.6601 19.8894 18.846 19.7192 19.0068C19.6537 19.0706 19.5661 19.1062 19.475 19.1062C19.3839 19.1062 19.2964 19.0706 19.2308 19.0068C19.1469 18.9608 19.0839 18.8839 19.0548 18.7922C19.0257 18.7005 19.0327 18.601 19.0745 18.5145C19.2199 18.3027 19.3764 18.0989 19.5434 17.904C19.6112 17.8722 19.6839 17.8523 19.7583 17.8449Z" fill="#410EAD"/>
<path d="M16.867 21.2168C16.859 21.3165 16.821 21.4113 16.7582 21.4887C16.6954 21.5661 16.6107 21.6224 16.5153 21.6501C16.2614 21.6501 16.0269 21.9849 15.7339 21.8076C15.6814 21.7693 15.6387 21.7189 15.6093 21.6608C15.5798 21.6026 15.5645 21.5382 15.5645 21.4728C15.5645 21.4075 15.5798 21.3431 15.6093 21.2849C15.6387 21.2267 15.6814 21.1764 15.7339 21.1381C15.932 21.0135 16.1413 20.908 16.359 20.823C16.419 20.8039 16.4827 20.7997 16.5447 20.8107C16.6066 20.8217 16.665 20.8477 16.7149 20.8864C16.7648 20.925 16.8047 20.9753 16.8311 21.0328C16.8576 21.0903 16.8699 21.1535 16.867 21.2168Z" fill="#410EAD"/>
<path d="M4.61711 5.93183C4.58423 6.02629 4.54507 6.1184 4.49989 6.20754C4.38052 6.38013 4.24999 6.5446 4.10915 6.69987C4.03611 6.77204 3.93791 6.81246 3.83564 6.81246C3.73336 6.81246 3.63516 6.77204 3.56212 6.69987C3.4986 6.62226 3.46387 6.52478 3.46387 6.42417C3.46387 6.32355 3.4986 6.22607 3.56212 6.14846C3.68387 5.96055 3.82824 5.78856 3.99193 5.63643C4.12964 5.57952 4.28403 5.57952 4.42174 5.63643C4.44128 5.65612 4.51943 5.83337 4.61711 5.93183Z" fill="#410EAD"/>
<path d="M21.9464 14.242C21.9056 14.4483 21.8535 14.6521 21.7901 14.8525C21.7789 14.9 21.7581 14.9447 21.729 14.9838C21.6999 15.0228 21.6631 15.0554 21.6209 15.0795C21.5787 15.1035 21.532 15.1185 21.4838 15.1235C21.4356 15.1285 21.3869 15.1234 21.3407 15.1085C21.2925 15.1038 21.2458 15.0891 21.2035 15.0654C21.1612 15.0416 21.1242 15.0093 21.0949 14.9705C21.0655 14.9317 21.0445 14.8872 21.033 14.8397C21.0215 14.7923 21.0199 14.743 21.0281 14.6949C21.0454 14.4604 21.0913 14.2289 21.1649 14.0057C21.1649 13.789 21.3994 13.73 21.6143 13.7496C21.8292 13.7693 21.9464 13.9466 21.9464 14.242Z" fill="#410EAD"/>
<path d="M8.2516 21.5076C8.25747 21.5775 8.24639 21.6479 8.21931 21.7126C8.19223 21.7773 8.14996 21.8343 8.09613 21.8789C8.04231 21.9235 7.97855 21.9542 7.91034 21.9684C7.84212 21.9826 7.7715 21.9799 7.70456 21.9605C7.49363 21.8821 7.2908 21.7832 7.09893 21.6651C7.05257 21.6392 7.01226 21.6036 6.9807 21.5607C6.94914 21.5177 6.92706 21.4685 6.91595 21.4163C6.90485 21.364 6.90497 21.31 6.91631 21.2578C6.92765 21.2056 6.94995 21.1565 6.9817 21.1137C6.99277 21.0686 7.013 21.0264 7.04112 20.9897C7.06924 20.9529 7.10463 20.9225 7.14505 20.9003C7.18547 20.878 7.23003 20.8645 7.2759 20.8606C7.32177 20.8566 7.36795 20.8624 7.41151 20.8774C7.66451 20.9604 7.90708 21.0727 8.13437 21.2122C8.13437 21.2122 8.21252 21.4682 8.2516 21.5076Z" fill="#410EAD"/>
<path d="M11.7678 1.99609H12.0804C12.1773 2.00087 12.269 2.04182 12.3376 2.11098C12.4062 2.18014 12.4469 2.27257 12.4516 2.37027C12.4599 2.42095 12.4577 2.4728 12.4452 2.5226C12.4327 2.5724 12.4102 2.61908 12.379 2.65972C12.3479 2.70036 12.3088 2.73411 12.2641 2.75885C12.2194 2.78359 12.1702 2.79879 12.1195 2.80352H11.3966C11.3459 2.79879 11.2966 2.78359 11.252 2.75885C11.2073 2.73411 11.1682 2.70036 11.137 2.65972C11.1059 2.61908 11.0834 2.5724 11.0709 2.5226C11.0584 2.4728 11.0562 2.42095 11.0645 2.37027C11.0738 2.27086 11.1185 2.17821 11.1904 2.10943C11.2622 2.04066 11.3563 2.0004 11.4552 1.99609H11.7678Z" fill="#410EAD"/>
<path d="M11.9044 22.7879H11.6114C11.561 22.7906 11.5106 22.7829 11.4633 22.7653C11.416 22.7477 11.3728 22.7205 11.3362 22.6855C11.2996 22.6505 11.2705 22.6083 11.2507 22.5616C11.2308 22.5149 11.2206 22.4646 11.2207 22.4137C11.2095 22.3122 11.2379 22.2102 11.2998 22.1294C11.3618 22.0486 11.4525 21.9952 11.5528 21.9805H12.2561C12.305 21.9854 12.3524 22 12.3956 22.0235C12.4388 22.047 12.4769 22.0789 12.5078 22.1174C12.5387 22.1558 12.5617 22.2001 12.5755 22.2476C12.5893 22.2951 12.5936 22.3449 12.5882 22.394C12.5884 22.4952 12.5499 22.5925 12.4808 22.6658C12.4117 22.7391 12.3172 22.7828 12.217 22.7879H11.9044Z" fill="#410EAD"/>
<path d="M16.5153 3.38598C16.5153 3.72076 16.2613 3.9177 16.0073 3.81923C15.7826 3.75261 15.5663 3.6601 15.3626 3.54353C15.2821 3.49426 15.2232 3.41599 15.1978 3.32457C15.1724 3.23315 15.1825 3.13543 15.2259 3.05119C15.2369 3.00615 15.2572 2.96391 15.2853 2.92716C15.3134 2.89042 15.3488 2.85997 15.3892 2.83775C15.4296 2.81553 15.4742 2.80202 15.5201 2.79808C15.5659 2.79414 15.6121 2.79986 15.6557 2.81487C15.9049 2.89954 16.1467 3.00493 16.3786 3.12996C16.446 3.20143 16.4933 3.28984 16.5153 3.38598Z" fill="#410EAD"/>
<path d="M20.9108 9.74743C20.8984 9.64638 20.9235 9.5443 20.9812 9.46072C21.0389 9.37715 21.1251 9.31796 21.2234 9.29448C21.2694 9.2761 21.3187 9.26771 21.3681 9.26986C21.4176 9.27201 21.466 9.28465 21.5102 9.30696C21.5545 9.32926 21.5936 9.36073 21.6249 9.3993C21.6563 9.43787 21.6792 9.48268 21.6923 9.5308C21.769 9.74875 21.8278 9.9727 21.8681 10.2004C21.8764 10.2956 21.8518 10.3908 21.7984 10.4698C21.745 10.5488 21.666 10.6067 21.575 10.6336C21.4843 10.6658 21.3846 10.6612 21.2972 10.6208C21.2097 10.5804 21.1412 10.5073 21.1062 10.417C21.0284 10.1978 20.9632 9.9742 20.9108 9.74743Z" fill="#410EAD"/>
<path d="M23.8613 11.7812H38.5139V28.5206" stroke="#410EAD" stroke-dasharray="2 2"/>
<path d="M45.9412 38.8785C45.9423 38.9597 45.9184 39.0392 45.873 39.1062C45.8275 39.1731 45.7626 39.2243 45.6872 39.2527L40.0606 42.1083C39.9828 42.1514 39.8954 42.174 39.8066 42.174C39.7178 42.174 39.6305 42.1514 39.5527 42.1083C37.599 41.1433 35.8211 40.1389 33.9456 39.2527C33.633 39.0952 33.5744 38.9376 33.7502 38.6028C35.7039 35.0186 37.6576 31.4148 39.455 27.8306C39.455 27.673 39.6113 27.5352 39.8066 27.5352C40.002 27.5352 40.0802 27.673 40.1778 27.8306L45.8435 38.5438C45.8435 38.5438 45.9021 38.7801 45.9412 38.8785ZM34.7075 38.2484H34.8443L39.3378 36.279C39.5136 36.1805 39.5136 36.0427 39.5136 36.0427V29.4257C39.5136 29.4257 39.5136 29.4257 39.5136 29.2091L34.7075 38.2484ZM40.1583 29.2288C40.152 29.2613 40.152 29.2947 40.1583 29.3273C40.1583 31.5526 40.1583 33.778 40.1583 36.0033C40.1583 36.1609 40.1583 36.2002 40.3537 36.2396L44.7494 38.209H44.9643L40.1583 29.2288ZM44.8862 38.9573L40.1388 36.988V41.4781L44.8862 38.9573ZM39.4745 36.988L34.7466 38.9573L39.5136 41.3796L39.4745 36.988Z" fill="url(#paint0_linear_1511_427)"/>
<path d="M46.0002 41.0212C46.0002 41.0212 46.0002 41.1984 45.8634 41.2772L40.1196 49.8241C40.0885 49.8772 40.0442 49.9212 39.9911 49.9518C39.938 49.9823 39.8779 49.9984 39.8168 49.9984C39.7556 49.9984 39.6955 49.9823 39.6424 49.9518C39.5893 49.9212 39.545 49.8772 39.5139 49.8241L33.8092 41.3363C33.692 41.1787 33.6334 41.0212 33.8092 40.8636C33.985 40.7061 34.1218 40.7258 34.2976 40.8636L39.5139 43.5813C39.5845 43.6248 39.6657 43.6479 39.7484 43.6479C39.8311 43.6479 39.9123 43.6248 39.9828 43.5813L45.375 40.7849C45.5508 40.7849 45.7071 40.6273 45.8634 40.7849C46.0197 40.9424 45.9415 40.9424 46.0002 41.0212ZM39.5139 48.5244V44.4872C39.52 44.4179 39.5044 44.3484 39.4694 44.2883C39.4343 44.2283 39.3816 44.1808 39.3186 44.1524L35.2159 41.9468H34.9814L39.5139 48.5244ZM40.2173 48.5244L44.5935 41.9468C44.5626 41.9338 44.5294 41.9271 44.4958 41.9271C44.4623 41.9271 44.4291 41.9338 44.3981 41.9468L40.315 44.054C40.2484 44.0834 40.1933 44.134 40.158 44.198C40.1227 44.262 40.1092 44.336 40.1196 44.4084C40.1196 45.6688 40.1196 46.9292 40.1196 48.2093L40.2173 48.5244Z" fill="url(#paint1_linear_1511_427)"/>
<path d="M25.0957 13.234C25.0957 13.6672 25.0957 14.1202 24.9199 14.5731C24.5736 16.8872 23.5674 19.05 22.0239 20.7981C20.4804 22.5463 18.4661 23.8046 16.2261 24.4198C14.5918 24.8183 12.894 24.8755 11.2371 24.5881C9.58008 24.3007 7.99894 23.6747 6.59086 22.7485C5.18279 21.8223 3.97755 20.6155 3.04926 19.2025C2.12097 17.7894 1.48924 16.1998 1.19294 14.5315C0.896639 12.8632 0.942016 11.1515 1.32629 9.50152C1.71055 7.85157 2.42559 6.29828 3.42743 4.93719C4.42926 3.5761 5.69671 2.43597 7.15185 1.58691C8.60698 0.737852 10.219 0.197809 11.8889 0H12.0843H13.6277L14.9171 0.177241C15.9716 0.348232 16.9974 0.666379 17.9648 1.12252C18.2774 1.26038 18.3751 1.47701 18.2774 1.71333C18.1797 1.94965 17.9257 2.00873 17.6327 1.87087C16.2213 1.20475 14.6901 0.83509 13.1325 0.784388C11.5748 0.733685 10.0232 1.003 8.57206 1.57594C7.12093 2.14889 5.80064 3.01348 4.69152 4.1171C3.58239 5.22073 2.70764 6.5403 2.1205 7.99552C1.27554 9.93118 0.992239 12.0686 1.30345 14.16C1.61466 16.2514 2.50763 18.211 3.87882 19.8115C4.78449 20.987 5.91879 21.9636 7.21218 22.6815C8.50557 23.3995 9.93079 23.8435 11.4005 23.9865C13.1982 24.2268 15.0269 24.0225 16.7287 23.3912C18.4306 22.7599 19.9545 21.7206 21.1689 20.363C22.8742 18.5978 23.929 16.2975 24.158 13.8445C24.4507 11.8078 24.1912 9.72934 23.407 7.82936C22.6228 5.92937 21.3431 4.27873 19.7036 3.05248C19.6539 3.02233 19.6107 2.98235 19.5768 2.93495C19.5428 2.88755 19.5187 2.8337 19.5059 2.77666C19.4931 2.71962 19.4919 2.66056 19.5024 2.60304C19.5129 2.54552 19.5348 2.49074 19.5668 2.44198C19.6053 2.39959 19.6521 2.36573 19.7042 2.34257C19.7563 2.31941 19.8127 2.30745 19.8697 2.30745C19.9266 2.30745 19.983 2.31941 20.0351 2.34257C20.0873 2.36573 20.134 2.39959 20.1725 2.44198L20.6609 2.81615C21.9796 3.873 23.0666 5.19388 23.8534 6.69544C24.6403 8.19701 25.1099 9.84666 25.2325 11.5403C25.2419 11.6188 25.2419 11.6982 25.2325 11.7766L25.0957 13.234Z" fill="url(#paint2_linear_1511_427)"/>
<path d="M21.0711 12.3913C21.0709 14.2789 20.4362 16.1108 19.2705 17.5881C18.1048 19.0654 16.4769 20.101 14.6524 20.5259C12.8278 20.9509 10.9143 20.7401 9.22381 19.9281C7.53335 19.116 6.16573 17.7505 5.34403 16.0543C5.18773 15.7589 5.34403 15.5225 5.48079 15.4044C5.61754 15.2862 5.93013 15.4044 6.08642 15.6998C6.62708 16.8415 7.45036 17.8236 8.47693 18.5514C9.5035 19.2792 10.6987 19.7282 11.9475 19.8551C13.4016 20.0115 14.8691 19.7326 16.167 19.0533C17.4648 18.3741 18.5354 17.3245 19.2451 16.0357C19.9549 14.7469 20.2722 13.2759 20.1576 11.8063C20.0431 10.3368 19.5016 8.9338 18.6008 7.77257C17.7001 6.61133 16.4799 5.74327 15.0928 5.27675C13.7056 4.81023 12.2128 4.76593 10.8008 5.14937C9.38877 5.53281 8.12008 6.32701 7.15311 7.43282C6.18614 8.53862 5.56372 9.90705 5.36356 11.3672C5.36356 11.8005 5.36356 12.2338 5.36356 12.6473C5.36356 13.0609 5.24634 13.1593 4.99237 13.179C4.73839 13.1987 4.56256 13.0215 4.54302 12.6867C4.50817 11.5495 4.70371 10.417 5.11771 9.35848C5.5317 8.29999 6.15546 7.33769 6.95085 6.53039C7.74625 5.72309 8.69658 5.08774 9.74379 4.66316C10.791 4.23859 11.9131 4.03369 13.0415 4.06101C14.9959 4.12237 16.8653 4.88025 18.3176 6.19995C19.7699 7.51965 20.7109 9.31567 20.9734 11.2688C21.0125 11.6627 21.0321 12.0171 21.0711 12.3913Z" fill="url(#paint3_linear_1511_427)"/>
<path d="M9.56364 8.6847L13.0412 11.6387L14.6041 9.66937L15.6396 8.34992C15.874 8.05452 16.0889 8.03482 16.3624 8.34992L18.9999 10.9888C19.0563 11.0288 19.1024 11.0819 19.1342 11.1436C19.166 11.2053 19.1826 11.2738 19.1826 11.3433C19.1826 11.4128 19.166 11.4813 19.1342 11.543C19.1024 11.6047 19.0563 11.6578 18.9999 11.6978L12.4355 18.748C12.3924 18.8229 12.3269 18.8823 12.2485 18.9177C12.1701 18.9531 12.0826 18.9627 11.9984 18.9453C11.9142 18.9279 11.8376 18.8843 11.7793 18.8206C11.721 18.757 11.6841 18.6765 11.6736 18.5905C10.4233 15.2032 9.19244 11.7766 7.98116 8.38931C7.82487 7.95605 7.98116 7.71973 8.46958 7.73942L13.725 7.97575C13.7837 7.97 13.843 7.97709 13.8988 7.99656C13.9546 8.01602 14.0055 8.04739 14.0482 8.08852C14.0909 8.12965 14.1242 8.17956 14.146 8.23487C14.1677 8.29018 14.1774 8.34958 14.1743 8.409C14.1694 8.46598 14.1534 8.52142 14.1271 8.57212C14.1008 8.62282 14.0649 8.66778 14.0213 8.70439C13.9777 8.74101 13.9273 8.76857 13.8731 8.78547C13.8189 8.80237 13.7619 8.80828 13.7054 8.80287C12.7872 8.80287 11.8885 8.80286 10.9703 8.6847H9.56364ZM13.471 12.6234C13.471 13.1748 13.3147 13.6868 13.217 14.1989C13.1193 14.7109 13.1193 14.8487 13.0607 15.1638C13.0462 15.2717 12.9918 15.3701 12.9086 15.4394C12.8253 15.5087 12.7192 15.5439 12.6114 15.538C12.5573 15.5308 12.5051 15.5127 12.458 15.485C12.4109 15.4572 12.3698 15.4202 12.337 15.3762C12.3043 15.3321 12.2806 15.282 12.2673 15.2286C12.254 15.1752 12.2514 15.1197 12.2597 15.0654C12.2597 15.0654 12.2597 14.9275 12.2597 14.8684C12.3769 14.1201 12.4942 13.3914 12.6309 12.6431C12.647 12.5819 12.6444 12.5172 12.6235 12.4575C12.6026 12.3977 12.5643 12.3458 12.5137 12.3083L9.44642 9.70876L9.23151 9.55122L12.2402 17.783L18.1012 11.3827L15.9912 9.17704L14.0376 11.6781H14.3111L16.2648 11.3236C16.3734 11.2997 16.487 11.3191 16.5818 11.3779C16.6765 11.4367 16.7449 11.5301 16.7727 11.6387C16.7839 11.6945 16.7835 11.7521 16.7716 11.8078C16.7597 11.8635 16.7365 11.9161 16.7035 11.9623C16.6705 12.0085 16.6284 12.0473 16.5798 12.0764C16.5312 12.1054 16.4771 12.124 16.421 12.131H16.1671L13.471 12.6234Z" fill="url(#paint4_linear_1511_427)"/>
<path d="M3.05757 10.9289C2.99768 10.9291 2.9384 10.9168 2.88353 10.8926C2.82866 10.8684 2.77942 10.8329 2.73895 10.7884C2.69848 10.7439 2.66769 10.6913 2.64854 10.6341C2.62939 10.5769 2.62231 10.5163 2.62776 10.4562C2.65456 10.2425 2.70034 10.0316 2.76452 9.82604C2.792 9.7278 2.85624 9.64415 2.94371 9.59271C3.03117 9.54128 3.13504 9.52609 3.2334 9.55034C3.33552 9.57398 3.42481 9.63612 3.48293 9.724C3.54105 9.81189 3.56362 9.91885 3.54599 10.023C3.54599 10.2199 3.54598 10.4168 3.42876 10.6138C3.40558 10.6979 3.35774 10.773 3.29151 10.8292C3.22527 10.8854 3.14373 10.9202 3.05757 10.9289Z" fill="url(#paint5_linear_1511_427)"/>
<path d="M9.11449 3.38803C9.10751 3.47849 9.07122 3.56412 9.0112 3.63173C8.95118 3.69935 8.87077 3.74519 8.78236 3.7622C8.50884 3.86067 8.2744 4.15607 7.94227 3.93944C7.88585 3.90172 7.83957 3.85051 7.80756 3.79037C7.77554 3.73024 7.75879 3.66306 7.75879 3.59481C7.75879 3.52656 7.77554 3.45938 7.80756 3.39925C7.83957 3.33911 7.88585 3.2879 7.94227 3.25018C8.1301 3.1428 8.32608 3.05061 8.52838 2.97447C8.59402 2.94264 8.66689 2.929 8.7395 2.93496C8.8121 2.94091 8.88182 2.96624 8.94149 3.00835C9.00117 3.05046 9.04865 3.10783 9.07905 3.17456C9.10945 3.24128 9.12168 3.31496 9.11449 3.38803Z" fill="url(#paint6_linear_1511_427)"/>
<path d="M4.95279 18.083C5.01019 18.0661 5.07121 18.0661 5.12862 18.083C5.31318 18.2801 5.48296 18.4908 5.63657 18.7132C5.68065 18.7922 5.69308 18.8852 5.67128 18.9731C5.64948 19.061 5.59511 19.1371 5.51935 19.1859C5.48653 19.2204 5.4471 19.2479 5.40345 19.2667C5.3598 19.2855 5.31283 19.2952 5.26537 19.2952C5.21791 19.2952 5.17095 19.2855 5.1273 19.2667C5.08365 19.2479 5.04422 19.2204 5.01139 19.1859C4.82854 19.0119 4.67072 18.8131 4.54251 18.5951C4.52278 18.5329 4.51868 18.4668 4.53058 18.4026C4.54248 18.3385 4.57001 18.2783 4.61069 18.2275C4.65137 18.1768 4.70393 18.137 4.76364 18.1118C4.82336 18.0865 4.88835 18.0767 4.95279 18.083Z" fill="url(#paint7_linear_1511_427)"/>
<path d="M20.1922 5.35179C20.4853 5.35179 21.0128 5.98199 20.9542 6.27739C20.9482 6.34525 20.924 6.41018 20.8842 6.46519C20.8443 6.5202 20.7903 6.5632 20.728 6.58954C20.6656 6.61589 20.5974 6.62458 20.5305 6.61469C20.4636 6.60479 20.4007 6.57668 20.3485 6.53339C20.1491 6.36499 19.9776 6.16555 19.8406 5.94259C19.8057 5.88173 19.7875 5.81256 19.7881 5.74225C19.7887 5.67195 19.8079 5.60308 19.8438 5.54279C19.8797 5.4825 19.9309 5.43299 19.9922 5.39941C20.0534 5.36582 20.1225 5.34938 20.1922 5.35179Z" fill="url(#paint8_linear_1511_427)"/>
<path d="M2.6479 14.4925C2.63564 14.3863 2.66278 14.2793 2.7241 14.192C2.78541 14.1048 2.87656 14.0434 2.98002 14.0199C3.07323 13.9954 3.17222 14.0085 3.25606 14.0562C3.33991 14.104 3.40205 14.1828 3.42937 14.2759C3.49965 14.4876 3.55194 14.705 3.58566 14.9257C3.58645 15.0165 3.55763 15.1049 3.50362 15.1775C3.44961 15.2501 3.37341 15.3028 3.28678 15.3274C3.20015 15.352 3.10788 15.3473 3.02421 15.3138C2.94053 15.2804 2.87009 15.2201 2.82373 15.1424C2.75434 14.9289 2.69566 14.712 2.6479 14.4925Z" fill="url(#paint9_linear_1511_427)"/>
<path d="M20.7583 17.8449C20.8319 17.8394 20.9056 17.8539 20.9716 17.887C21.0377 17.9202 21.0936 17.9706 21.1336 18.0331C21.1736 18.0956 21.1962 18.1678 21.1989 18.2421C21.2016 18.3164 21.1844 18.3901 21.149 18.4554C21.0343 18.6601 20.8894 18.846 20.7192 19.0068C20.6537 19.0706 20.5661 19.1062 20.475 19.1062C20.3839 19.1062 20.2964 19.0706 20.2308 19.0068C20.1469 18.9608 20.0839 18.8839 20.0548 18.7922C20.0257 18.7005 20.0327 18.601 20.0745 18.5145C20.2199 18.3027 20.3764 18.0989 20.5434 17.904C20.6112 17.8722 20.6839 17.8523 20.7583 17.8449Z" fill="url(#paint10_linear_1511_427)"/>
<path d="M17.867 21.2168C17.859 21.3165 17.821 21.4113 17.7582 21.4887C17.6954 21.5661 17.6107 21.6224 17.5153 21.6501C17.2614 21.6501 17.0269 21.9849 16.7339 21.8076C16.6814 21.7693 16.6387 21.7189 16.6093 21.6608C16.5798 21.6026 16.5645 21.5382 16.5645 21.4728C16.5645 21.4075 16.5798 21.3431 16.6093 21.2849C16.6387 21.2267 16.6814 21.1764 16.7339 21.1381C16.932 21.0135 17.1413 20.908 17.359 20.823C17.419 20.8039 17.4827 20.7997 17.5447 20.8107C17.6066 20.8217 17.665 20.8477 17.7149 20.8864C17.7648 20.925 17.8047 20.9753 17.8311 21.0328C17.8576 21.0903 17.8699 21.1535 17.867 21.2168Z" fill="url(#paint11_linear_1511_427)"/>
<path d="M5.61711 5.93183C5.58423 6.02629 5.54507 6.1184 5.49989 6.20754C5.38052 6.38013 5.24999 6.5446 5.10915 6.69987C5.03611 6.77204 4.93791 6.81246 4.83564 6.81246C4.73336 6.81246 4.63516 6.77204 4.56212 6.69987C4.4986 6.62226 4.46387 6.52478 4.46387 6.42417C4.46387 6.32355 4.4986 6.22607 4.56212 6.14846C4.68387 5.96055 4.82824 5.78856 4.99193 5.63643C5.12964 5.57952 5.28403 5.57952 5.42174 5.63643C5.44128 5.65612 5.51943 5.83337 5.61711 5.93183Z" fill="url(#paint12_linear_1511_427)"/>
<path d="M22.9464 14.242C22.9056 14.4483 22.8535 14.6521 22.7901 14.8525C22.7789 14.9 22.7581 14.9447 22.729 14.9838C22.6999 15.0228 22.6631 15.0554 22.6209 15.0795C22.5787 15.1035 22.532 15.1185 22.4838 15.1235C22.4356 15.1285 22.3869 15.1234 22.3407 15.1085C22.2925 15.1038 22.2458 15.0891 22.2035 15.0654C22.1612 15.0416 22.1242 15.0093 22.0949 14.9705C22.0655 14.9317 22.0445 14.8872 22.033 14.8397C22.0215 14.7923 22.0199 14.743 22.0281 14.6949C22.0454 14.4604 22.0913 14.2289 22.1649 14.0057C22.1649 13.789 22.3994 13.73 22.6143 13.7496C22.8292 13.7693 22.9464 13.9466 22.9464 14.242Z" fill="url(#paint13_linear_1511_427)"/>
<path d="M9.2516 21.5076C9.25747 21.5775 9.24639 21.6479 9.21931 21.7126C9.19223 21.7773 9.14996 21.8343 9.09613 21.8789C9.04231 21.9235 8.97855 21.9542 8.91034 21.9684C8.84212 21.9826 8.7715 21.9799 8.70456 21.9605C8.49363 21.8821 8.2908 21.7832 8.09893 21.6651C8.05257 21.6392 8.01226 21.6036 7.9807 21.5607C7.94914 21.5177 7.92706 21.4685 7.91595 21.4163C7.90485 21.364 7.90497 21.31 7.91631 21.2578C7.92765 21.2056 7.94995 21.1565 7.9817 21.1137C7.99277 21.0686 8.013 21.0264 8.04112 20.9897C8.06924 20.9529 8.10463 20.9225 8.14505 20.9003C8.18547 20.878 8.23003 20.8645 8.2759 20.8606C8.32177 20.8566 8.36795 20.8624 8.41151 20.8774C8.66451 20.9604 8.90708 21.0727 9.13437 21.2122C9.13437 21.2122 9.21252 21.4682 9.2516 21.5076Z" fill="url(#paint14_linear_1511_427)"/>
<path d="M12.7678 1.99609H13.0804C13.1773 2.00087 13.269 2.04182 13.3376 2.11098C13.4062 2.18014 13.4469 2.27257 13.4516 2.37027C13.4599 2.42095 13.4577 2.4728 13.4452 2.5226C13.4327 2.5724 13.4102 2.61908 13.379 2.65972C13.3479 2.70036 13.3088 2.73411 13.2641 2.75885C13.2194 2.78359 13.1702 2.79879 13.1195 2.80352H12.3966C12.3459 2.79879 12.2966 2.78359 12.252 2.75885C12.2073 2.73411 12.1682 2.70036 12.137 2.65972C12.1059 2.61908 12.0834 2.5724 12.0709 2.5226C12.0584 2.4728 12.0562 2.42095 12.0645 2.37027C12.0738 2.27086 12.1185 2.17821 12.1904 2.10943C12.2622 2.04066 12.3563 2.0004 12.4552 1.99609H12.7678Z" fill="url(#paint15_linear_1511_427)"/>
<path d="M12.9044 22.7879H12.6114C12.561 22.7906 12.5106 22.7829 12.4633 22.7653C12.416 22.7477 12.3728 22.7205 12.3362 22.6855C12.2996 22.6505 12.2705 22.6083 12.2507 22.5616C12.2308 22.5149 12.2206 22.4646 12.2207 22.4137C12.2095 22.3122 12.2379 22.2102 12.2998 22.1294C12.3618 22.0486 12.4525 21.9952 12.5528 21.9805H13.2561C13.305 21.9854 13.3524 22 13.3956 22.0235C13.4388 22.047 13.4769 22.0789 13.5078 22.1174C13.5387 22.1558 13.5617 22.2001 13.5755 22.2476C13.5893 22.2951 13.5936 22.3449 13.5882 22.394C13.5884 22.4952 13.5499 22.5925 13.4808 22.6658C13.4117 22.7391 13.3172 22.7828 13.217 22.7879H12.9044Z" fill="url(#paint16_linear_1511_427)"/>
<path d="M17.5153 3.38598C17.5153 3.72076 17.2613 3.9177 17.0073 3.81923C16.7826 3.75261 16.5663 3.6601 16.3626 3.54353C16.2821 3.49426 16.2232 3.41599 16.1978 3.32457C16.1724 3.23315 16.1825 3.13543 16.2259 3.05119C16.2369 3.00615 16.2572 2.96391 16.2853 2.92716C16.3134 2.89042 16.3488 2.85997 16.3892 2.83775C16.4296 2.81553 16.4742 2.80202 16.5201 2.79808C16.5659 2.79414 16.6121 2.79986 16.6557 2.81487C16.9049 2.89954 17.1467 3.00493 17.3786 3.12996C17.446 3.20143 17.4933 3.28984 17.5153 3.38598Z" fill="url(#paint17_linear_1511_427)"/>
<path d="M21.9108 9.74743C21.8984 9.64638 21.9235 9.5443 21.9812 9.46072C22.0389 9.37715 22.1251 9.31796 22.2234 9.29448C22.2694 9.2761 22.3187 9.26771 22.3681 9.26986C22.4176 9.27201 22.466 9.28465 22.5102 9.30696C22.5545 9.32926 22.5936 9.36073 22.6249 9.3993C22.6563 9.43787 22.6792 9.48268 22.6923 9.5308C22.769 9.74875 22.8278 9.9727 22.8681 10.2004C22.8764 10.2956 22.8518 10.3908 22.7984 10.4698C22.745 10.5488 22.666 10.6067 22.575 10.6336C22.4843 10.6658 22.3846 10.6612 22.2972 10.6208C22.2097 10.5804 22.1412 10.5073 22.1062 10.417C22.0284 10.1978 21.9632 9.9742 21.9108 9.74743Z" fill="url(#paint18_linear_1511_427)"/>
<path d="M24.8613 11.7812H39.5139V28.5206" stroke="url(#paint19_linear_1511_427)" stroke-dasharray="2 2"/>
<defs>
<linearGradient id="paint0_linear_1511_427" x1="35.0178" y1="28.2671" x2="45.1693" y2="41.3559" gradientUnits="userSpaceOnUse">
<stop stop-color="white" stop-opacity="0.66"/>
<stop offset="1" stop-color="#CECECE" stop-opacity="0"/>
</linearGradient>
<linearGradient id="paint1_linear_1511_427" x1="35.0651" y1="41.179" x2="40.3266" y2="51.8875" gradientUnits="userSpaceOnUse">
<stop stop-color="white" stop-opacity="0.66"/>
<stop offset="1" stop-color="#CECECE" stop-opacity="0"/>
</linearGradient>
<linearGradient id="paint2_linear_1511_427" x1="3.69328" y1="1.23845" x2="20.0496" y2="25.8239" gradientUnits="userSpaceOnUse">
<stop stop-color="white" stop-opacity="0.66"/>
<stop offset="1" stop-color="#CECECE" stop-opacity="0"/>
</linearGradient>
<linearGradient id="paint3_linear_1511_427" x1="6.37596" y1="4.89271" x2="17.3381" y2="21.5784" gradientUnits="userSpaceOnUse">
<stop stop-color="white" stop-opacity="0.66"/>
<stop offset="1" stop-color="#CECECE" stop-opacity="0"/>
</linearGradient>
<linearGradient id="paint4_linear_1511_427" x1="9.17393" y1="8.29907" x2="16.5057" y2="19.6043" gradientUnits="userSpaceOnUse">
<stop stop-color="white" stop-opacity="0.66"/>
<stop offset="1" stop-color="#CECECE" stop-opacity="0"/>
</linearGradient>
<linearGradient id="paint5_linear_1511_427" x1="2.72885" y1="9.60856" x2="3.72367" y2="10.6264" gradientUnits="userSpaceOnUse">
<stop stop-color="white" stop-opacity="0.66"/>
<stop offset="1" stop-color="#CECECE" stop-opacity="0"/>
</linearGradient>
<linearGradient id="paint6_linear_1511_427" x1="7.90964" y1="2.98777" x2="8.54438" y2="4.20943" gradientUnits="userSpaceOnUse">
<stop stop-color="white" stop-opacity="0.66"/>
<stop offset="1" stop-color="#CECECE" stop-opacity="0"/>
</linearGradient>
<linearGradient id="paint7_linear_1511_427" x1="4.65258" y1="18.1316" x2="5.47193" y2="19.3212" gradientUnits="userSpaceOnUse">
<stop stop-color="white" stop-opacity="0.66"/>
<stop offset="1" stop-color="#CECECE" stop-opacity="0"/>
</linearGradient>
<linearGradient id="paint8_linear_1511_427" x1="19.9182" y1="5.41492" x2="20.7725" y2="6.62721" gradientUnits="userSpaceOnUse">
<stop stop-color="white" stop-opacity="0.66"/>
<stop offset="1" stop-color="#CECECE" stop-opacity="0"/>
</linearGradient>
<linearGradient id="paint9_linear_1511_427" x1="2.74954" y1="14.0746" x2="3.7025" y2="15.1058" gradientUnits="userSpaceOnUse">
<stop stop-color="white" stop-opacity="0.66"/>
<stop offset="1" stop-color="#CECECE" stop-opacity="0"/>
</linearGradient>
<linearGradient id="paint10_linear_1511_427" x1="20.1662" y1="17.9069" x2="21.0185" y2="19.1118" gradientUnits="userSpaceOnUse">
<stop stop-color="white" stop-opacity="0.66"/>
<stop offset="1" stop-color="#CECECE" stop-opacity="0"/>
</linearGradient>
<linearGradient id="paint11_linear_1511_427" x1="16.7092" y1="20.8574" x2="17.3322" y2="22.0394" gradientUnits="userSpaceOnUse">
<stop stop-color="white" stop-opacity="0.66"/>
<stop offset="1" stop-color="#CECECE" stop-opacity="0"/>
</linearGradient>
<linearGradient id="paint12_linear_1511_427" x1="4.59201" y1="5.65469" x2="5.40695" y2="6.83912" gradientUnits="userSpaceOnUse">
<stop stop-color="white" stop-opacity="0.66"/>
<stop offset="1" stop-color="#CECECE" stop-opacity="0"/>
</linearGradient>
<linearGradient id="paint13_linear_1511_427" x1="22.1256" y1="13.8151" x2="23.1127" y2="14.8301" gradientUnits="userSpaceOnUse">
<stop stop-color="white" stop-opacity="0.66"/>
<stop offset="1" stop-color="#CECECE" stop-opacity="0"/>
</linearGradient>
<linearGradient id="paint14_linear_1511_427" x1="8.0572" y1="20.9153" x2="8.72723" y2="22.1537" gradientUnits="userSpaceOnUse">
<stop stop-color="white" stop-opacity="0.66"/>
<stop offset="1" stop-color="#CECECE" stop-opacity="0"/>
</linearGradient>
<linearGradient id="paint15_linear_1511_427" x1="12.2148" y1="2.03647" x2="12.5959" y2="3.04924" gradientUnits="userSpaceOnUse">
<stop stop-color="white" stop-opacity="0.66"/>
<stop offset="1" stop-color="#CECECE" stop-opacity="0"/>
</linearGradient>
<linearGradient id="paint16_linear_1511_427" x1="12.3707" y1="22.0209" x2="12.7574" y2="23.0296" gradientUnits="userSpaceOnUse">
<stop stop-color="white" stop-opacity="0.66"/>
<stop offset="1" stop-color="#CECECE" stop-opacity="0"/>
</linearGradient>
<linearGradient id="paint17_linear_1511_427" x1="16.332" y1="2.84926" x2="16.9409" y2="4.03757" gradientUnits="userSpaceOnUse">
<stop stop-color="white" stop-opacity="0.66"/>
<stop offset="1" stop-color="#CECECE" stop-opacity="0"/>
</linearGradient>
<linearGradient id="paint18_linear_1511_427" x1="22.0146" y1="9.3388" x2="23.0044" y2="10.3945" gradientUnits="userSpaceOnUse">
<stop stop-color="white" stop-opacity="0.66"/>
<stop offset="1" stop-color="#CECECE" stop-opacity="0"/>
</linearGradient>
<linearGradient id="paint19_linear_1511_427" x1="25" y1="12" x2="39.5" y2="28.5" gradientUnits="userSpaceOnUse">
<stop stop-color="white" stop-opacity="0.66"/>
<stop offset="1" stop-color="#CECECE" stop-opacity="0"/>
</linearGradient>
</defs>
</svg>
