<svg width="30" height="30" viewBox="0 0 30 30" fill="none" xmlns="http://www.w3.org/2000/svg">
<path fill-rule="evenodd" clip-rule="evenodd" d="M7.94186 0.0522197C7.52515 0.151442 6.91802 0.50989 6.62248 0.831105C6.47217 0.99453 6.25377 1.32997 6.13727 1.57638L5.92537 2.02452L5.90622 6.20139L5.88707 10.3782L6.05385 10.5453C6.27366 10.7656 6.58037 10.7666 6.79877 10.5477L6.96314 10.383V6.41278C6.96314 3.49173 6.98463 2.36962 7.04456 2.16648C7.15322 1.79797 7.70786 1.24222 8.07564 1.13333C8.2463 1.08282 8.80061 1.05176 9.53187 1.05176H10.7125V1.42973C10.7125 1.63763 10.7491 1.93194 10.7939 2.08383C10.9026 2.45234 11.4572 3.00809 11.825 3.11698C12.0229 3.17554 12.9214 3.19855 15.0101 3.19855C18.364 3.19855 18.3515 3.2003 18.8339 2.66266C19.1646 2.29415 19.2825 1.96991 19.2825 1.42973V1.05176H20.4632C21.1945 1.05176 21.7488 1.08282 21.9194 1.13333C22.2872 1.24222 22.8419 1.79797 22.9505 2.16648C23.0104 2.36962 23.0319 3.49173 23.0319 6.41278V10.383L23.1963 10.5477C23.4147 10.7666 23.7214 10.7656 23.9412 10.5453L24.108 10.3782L24.0889 6.19777L24.0697 2.01735L23.8196 1.5105C23.5185 0.900004 23.1307 0.519618 22.5084 0.224232L22.0611 0.0119001L15.1314 0.00109902C11.0887 -0.0052072 8.09351 0.0161267 7.94186 0.0522197ZM18.2113 1.42376C18.2113 1.72934 18.1819 1.82527 18.0469 1.96046L17.8826 2.12516H14.9975H12.1125L11.9481 1.96046C11.8132 1.82527 11.7838 1.72934 11.7838 1.42376V1.05176H14.9975H18.2113V1.42376ZM1.02271 7.60312C0.48501 7.79391 0 8.50484 0 9.10225C0 9.93843 0.766347 10.7124 1.59429 10.7124C2.1488 10.7124 2.82349 10.2984 3.01196 9.8425C3.08943 9.65519 3.1221 9.63895 3.42272 9.63895H3.74938V11.0844C3.74938 12.5296 3.74938 12.5298 3.91375 12.6945L4.07806 12.8592H6.1597H8.24135L8.40565 12.6945C8.62311 12.4766 8.62311 12.1683 8.40565 11.9505L8.24135 11.7858H6.53096H4.82064V10.3404C4.82064 8.89509 4.82064 8.89489 4.65627 8.73025C4.50281 8.57642 4.44577 8.56555 3.79404 8.56555H3.09612L3.01196 8.36201C2.9657 8.25004 2.79811 8.04401 2.63957 7.9042C2.18013 7.499 1.61357 7.39347 1.02271 7.60312ZM27.8526 7.57984C27.591 7.66249 26.9152 8.2974 26.9152 8.46056C26.9152 8.54918 26.8052 8.56555 26.2092 8.56555C25.5488 8.56555 25.4925 8.57622 25.3388 8.73025C25.1744 8.89489 25.1744 8.89509 25.1744 10.3404V11.7858H23.4641H21.7537L21.5894 11.9505C21.372 12.1683 21.372 12.4766 21.5894 12.6945L21.7537 12.8592H23.8354H25.917L26.0813 12.6945C26.2457 12.5298 26.2457 12.5296 26.2457 11.0844V9.63895H26.5724C26.873 9.63895 26.9056 9.65519 26.9831 9.8425C27.0294 9.95446 27.197 10.1605 27.3555 10.3003C28.0034 10.8718 28.8823 10.8423 29.5073 10.2282C30.7123 9.04449 29.4767 7.06689 27.8526 7.57984ZM1.97813 8.73025C2.31029 9.06301 2.07495 9.63895 1.60688 9.63895C1.33163 9.63895 1.07125 9.37805 1.07125 9.10225C1.07125 8.82646 1.33163 8.56555 1.60688 8.56555C1.7373 8.56555 1.87456 8.6264 1.97813 8.73025ZM28.7595 8.73025C29.0916 9.06301 28.8563 9.63895 28.3882 9.63895C28.1129 9.63895 27.8526 9.37805 27.8526 9.10225C27.8526 8.82646 28.1129 8.56555 28.3882 8.56555C28.5186 8.56555 28.6559 8.6264 28.7595 8.73025ZM14.2276 9.14888C13.8273 9.20181 13.0136 9.43393 12.6257 9.60594C9.83289 10.8442 8.45694 14.0076 9.43834 16.934C9.99077 18.5812 11.4294 20.0228 13.0734 20.5763C16.8112 21.8349 20.642 19.2451 20.8668 15.3078C21.0346 12.3672 18.9312 9.7108 16.0342 9.20456C15.4918 9.10977 14.7066 9.08562 14.2276 9.14888ZM15.8788 10.2704C16.563 10.4023 17.0533 10.5997 17.6226 10.9725C18.5939 11.6086 19.356 12.6633 19.6646 13.7984C19.8519 14.4872 19.8222 15.7592 19.6032 16.426C19.3411 17.2238 18.989 17.7942 18.3846 18.3998C17.7802 19.0054 17.2109 19.3582 16.4147 19.6208C15.7493 19.8403 14.4798 19.8701 13.7924 19.6824C12.6595 19.3731 11.607 18.6096 10.9722 17.6362C9.9828 16.1195 9.92636 14.147 10.8278 12.5908C11.139 12.0535 12.0201 11.1588 12.5375 10.8548C13.556 10.2563 14.7355 10.05 15.8788 10.2704ZM14.6263 11.4138C14.4921 11.5481 14.4619 11.6453 14.4619 11.9429V12.3073L13.9954 12.3337C13.4968 12.362 13.2888 12.4659 13.0266 12.8179C12.9027 12.9841 12.8885 13.0985 12.8885 13.9326C12.8885 14.7666 12.9027 14.881 13.0266 15.0472C13.3577 15.4917 13.4147 15.5072 14.8014 15.53L16.0688 15.5508V16.0834V16.616H14.9975C14.0759 16.616 13.9263 16.6016 13.9263 16.5124C13.9263 16.4554 13.8523 16.3346 13.7619 16.244C13.5411 16.0227 13.2369 16.0261 13.0112 16.2522C12.8624 16.4013 12.8434 16.4667 12.873 16.7294C12.9393 17.3183 13.3197 17.6399 13.9954 17.6782L14.4619 17.7046V18.069C14.4619 18.5087 14.6581 18.7628 14.9975 18.7628C15.3369 18.7628 15.5332 18.5087 15.5332 18.069V17.7046L15.9997 17.6782C16.4982 17.6499 16.7063 17.546 16.9685 17.194C17.0924 17.0278 17.1066 16.9134 17.1066 16.0793C17.1066 15.2453 17.0924 15.1309 16.9685 14.9647C16.6374 14.5202 16.5804 14.5047 15.1937 14.4819L13.9263 14.4611V13.9285V13.3959H14.9975C15.9191 13.3959 16.0688 13.4103 16.0688 13.4995C16.0688 13.5565 16.1428 13.6773 16.2332 13.7679C16.454 13.9892 16.7582 13.9858 16.9838 13.7597C17.1327 13.6106 17.1516 13.5452 17.122 13.2825C17.0558 12.6936 16.6754 12.372 15.9997 12.3337L15.5332 12.3073V11.9429C15.5332 11.5032 15.3369 11.2491 14.9975 11.2491C14.8671 11.2491 14.7299 11.3099 14.6263 11.4138ZM1.02271 13.5068C0.48501 13.6976 0 14.4085 0 15.0059C0 15.8421 0.766347 16.616 1.59429 16.616C2.1488 16.616 2.82349 16.2021 3.01196 15.7462L3.09612 15.5427H5.40092H7.70572L7.87002 15.378C7.97367 15.2742 8.03439 15.1366 8.03439 15.0059C8.03439 14.8753 7.97367 14.7377 7.87002 14.634L7.70572 14.4693H5.40092H3.09612L3.01196 14.2657C2.9657 14.1537 2.79811 13.9477 2.63957 13.8079C2.18013 13.4027 1.61357 13.2972 1.02271 13.5068ZM27.867 13.4802C27.5795 13.5725 27.0898 14.0077 26.9831 14.2657L26.899 14.4693H24.5942H22.2894L22.125 14.634C22.0214 14.7377 21.9607 14.8753 21.9607 15.0059C21.9607 15.1366 22.0214 15.2742 22.125 15.378L22.2894 15.5427H24.5978C26.8719 15.5427 26.9069 15.5447 26.9501 15.6813C27.0288 15.9297 27.4092 16.2985 27.7517 16.4583C28.3814 16.7522 28.9763 16.635 29.4952 16.1152C30.1495 15.4596 30.169 14.6256 29.5464 13.9317C29.1166 13.4527 28.4831 13.2823 27.867 13.4802ZM1.97813 14.634C2.31029 14.9667 2.07495 15.5427 1.60688 15.5427C1.33163 15.5427 1.07125 15.2817 1.07125 15.0059C1.07125 14.7302 1.33163 14.4693 1.60688 14.4693C1.7373 14.4693 1.87456 14.5301 1.97813 14.634ZM28.7595 14.634C28.8631 14.7377 28.9238 14.8753 28.9238 15.0059C28.9238 15.1366 28.8631 15.2742 28.7595 15.378C28.6559 15.4818 28.5186 15.5427 28.3882 15.5427C28.2578 15.5427 28.1205 15.4818 28.0169 15.378C27.6848 15.0452 27.9201 14.4693 28.3882 14.4693C28.5186 14.4693 28.6559 14.5301 28.7595 14.634ZM3.91375 17.3174C3.74938 17.4821 3.74938 17.4823 3.74938 18.9275V20.3729H3.42272C3.1221 20.3729 3.08943 20.3567 3.01196 20.1694C2.82349 19.7135 2.1488 19.2995 1.59429 19.2995C0.754162 19.2995 0.000736592 20.0608 0.000736592 20.9096C0.000736592 21.7585 0.754162 22.5197 1.59429 22.5197C2.1488 22.5197 2.82349 22.1057 3.01196 21.6499L3.09612 21.4463H3.79404C4.44577 21.4463 4.50281 21.4355 4.65627 21.2816C4.82064 21.117 4.82064 21.1168 4.82064 19.6715V18.2261H6.53096H8.24135L8.40565 18.0614C8.50929 17.9577 8.57002 17.8201 8.57002 17.6894C8.57002 17.5588 8.50929 17.4212 8.40565 17.3174L8.24135 17.1528H6.1597H4.07806L3.91375 17.3174ZM21.5894 17.3174C21.4858 17.4212 21.4251 17.5588 21.4251 17.6894C21.4251 17.8201 21.4858 17.9577 21.5894 18.0614L21.7537 18.2261H23.4641H25.1744V19.6715C25.1744 21.1168 25.1744 21.117 25.3388 21.2816C25.4923 21.4355 25.5491 21.4463 26.2046 21.4463C26.8548 21.4463 26.9094 21.4565 26.9501 21.5849C27.0866 22.016 27.837 22.5178 28.347 22.5191C29.2166 22.5213 29.9951 21.7611 29.9951 20.9096C29.9951 20.0735 29.2287 19.2995 28.4008 19.2995C27.8463 19.2995 27.1716 19.7135 26.9831 20.1694C26.9056 20.3567 26.873 20.3729 26.5724 20.3729H26.2457V18.9275C26.2457 17.4823 26.2457 17.4821 26.0813 17.3174L25.917 17.1528H23.8354H21.7537L21.5894 17.3174ZM6.05385 19.4666L5.88707 19.6337L5.90622 23.8105L5.92537 27.9874L6.13727 28.4355C6.43214 29.0592 6.81169 29.4477 7.4211 29.7494L7.927 30H14.9975H22.0681L22.574 29.7494C23.1834 29.4477 23.5629 29.0592 23.8578 28.4355L24.0697 27.9874L24.0889 23.8105L24.108 19.6337L23.9412 19.4666C23.7214 19.2463 23.4147 19.2453 23.1963 19.4642L23.0319 19.6289V23.2211V26.8133H14.9975H6.96314V23.2211V19.6289L6.79877 19.4642C6.58037 19.2453 6.27366 19.2463 6.05385 19.4666ZM1.97813 20.5376C2.31029 20.8704 2.07495 21.4463 1.60688 21.4463C1.33163 21.4463 1.07125 21.1854 1.07125 20.9096C1.07125 20.6339 1.33163 20.3729 1.60688 20.3729C1.7373 20.3729 1.87456 20.4338 1.97813 20.5376ZM28.7595 20.5376C28.8631 20.6414 28.9238 20.779 28.9238 20.9096C28.9238 21.0403 28.8631 21.1779 28.7595 21.2816C28.6559 21.3855 28.5186 21.4463 28.3882 21.4463C28.2578 21.4463 28.1205 21.3855 28.0169 21.2816C27.9133 21.1779 27.8526 21.0403 27.8526 20.9096C27.8526 20.779 27.9133 20.6414 28.0169 20.5376C28.1205 20.4338 28.2578 20.3729 28.3882 20.3729C28.5186 20.3729 28.6559 20.4338 28.7595 20.5376ZM22.898 27.9236C22.898 28.1862 22.299 28.7634 21.9032 28.8823C21.5332 28.9934 8.46189 28.9934 8.09184 28.8823C7.69608 28.7634 7.09705 28.1862 7.09705 27.9236C7.09705 27.9033 10.6523 27.8867 14.9975 27.8867C19.3428 27.8867 22.898 27.9033 22.898 27.9236Z" fill="#00D084"/>
</svg>
