<svg width="21" height="30" viewBox="0 0 21 30" fill="none" xmlns="http://www.w3.org/2000/svg">
<path fill-rule="evenodd" clip-rule="evenodd" d="M9.31843 0.0648071C4.53774 0.601813 0.699816 4.35558 0.0802367 9.10045C-0.1737 11.0447 0.149846 12.5579 1.41445 15.3407C2.6075 17.9662 3.99479 20.4124 7.59224 26.234C8.46487 27.6462 9.29847 28.9993 9.4446 29.2411C9.72564 29.7059 9.97084 29.9175 10.2992 29.9787C10.8102 30.0738 11.1829 29.8547 11.5539 29.2411C11.7 28.9993 12.5278 27.6545 13.3933 26.2525C16.0765 21.9063 17.13 20.1189 18.298 17.9313C19.6254 15.4448 20.4469 13.49 20.8096 11.9542C21.4224 9.35928 20.5257 6.09183 18.5582 3.75008C16.3084 1.07243 12.8013 -0.326404 9.31843 0.0648071ZM12.158 2.2787C13.825 2.62408 15.1952 3.36232 16.4049 4.56695C17.1625 5.32148 17.5608 5.86177 17.9972 6.72693C18.5335 7.79016 18.8067 8.82743 18.8648 10.0204C18.9039 10.8257 18.8095 11.4042 18.4736 12.4177C17.7733 14.5303 15.8534 18.2052 13.1436 22.6193C11.2465 25.7096 10.5525 26.8092 10.4991 26.8092C10.4436 26.8092 10.0925 26.2547 8.19853 23.176C5.1533 18.2257 3.38224 14.8855 2.56381 12.5489C2.21411 11.5504 2.09786 10.8736 2.13458 10.0497C2.22952 7.91932 3.04848 6.09248 4.59093 4.57047C5.97569 3.2041 7.5724 2.42174 9.49555 2.1673C10.1062 2.08649 11.5148 2.14544 12.158 2.2787ZM9.69393 5.76649C8.88879 5.91926 8.34856 6.1594 7.68452 6.65972C6.9194 7.23616 6.33673 8.09687 6.06183 9.05685C5.88766 9.66512 5.87183 10.791 6.02942 11.3682C6.16657 11.8706 6.48551 12.5326 6.8038 12.9753C7.60139 14.0846 9.05398 14.8214 10.4498 14.8246C12.5603 14.8293 14.3566 13.4766 14.9391 11.4438C15.1266 10.7898 15.1274 9.70754 14.9409 9.06576C14.4805 7.48082 13.2345 6.25726 11.6506 5.83458C11.1525 5.70168 10.2087 5.66886 9.69393 5.76649ZM11.3683 7.95711C12.0246 8.20604 12.615 8.8054 12.8433 9.45457C12.9971 9.89219 12.9822 10.7067 12.8126 11.1338C12.3366 12.3326 11.0044 12.9772 9.7822 12.6003C7.7164 11.9631 7.40154 9.21355 9.27025 8.12946C9.87318 7.77967 10.7175 7.71035 11.3683 7.95711Z" fill="#2F3AA5"/>
</svg>
