<svg width="50" height="35" viewBox="0 0 50 35" fill="none" xmlns="http://www.w3.org/2000/svg">
<path fill-rule="evenodd" clip-rule="evenodd" d="M19.4861 0.108547C15.6169 0.733518 12.461 2.24189 9.78327 4.7461C9.22756 5.26583 9.18091 5.34147 9.18091 5.72281C9.18091 6.26811 9.58369 6.69789 10.0948 6.69789C10.4558 6.69789 10.6346 6.58074 11.6295 5.69216C13.1969 4.2921 15.6632 2.98584 17.8078 2.41968C21.8945 1.3409 25.7281 1.75512 29.5204 3.68519C30.4895 4.1784 30.8026 4.29575 31.0314 4.25173C31.6438 4.13391 32.0002 3.49712 31.7654 2.94009C31.4576 2.20969 28.1314 0.790893 25.4623 0.251455C24.1966 -0.00428074 20.7024 -0.0878921 19.4861 0.108547ZM20.6708 4.64826C17.7503 5.005 14.7633 6.37556 13.0431 8.14802C12.5927 8.61212 12.5056 8.75868 12.5056 9.05276C12.5056 9.55375 12.9368 9.96547 13.4615 9.96547C13.7926 9.96547 13.9388 9.88464 14.52 9.38038C17.6332 6.67925 21.7906 5.81988 25.6295 7.08395C27.091 7.56515 28.2248 8.21232 29.554 9.32406C30.2042 9.86792 30.3768 9.96547 30.6887 9.96547C31.1156 9.96547 31.5283 9.64938 31.632 9.24276C31.7342 8.84258 31.4643 8.41347 30.7084 7.77398C28.7119 6.08523 26.4868 5.0889 23.8977 4.72467C23.0019 4.59867 21.3893 4.56042 20.6708 4.64826ZM33.3732 5.10255C32.9981 5.47121 32.9489 5.7947 33.2035 6.21833C33.7163 7.07155 34.9964 6.69107 34.9964 5.68552C34.9964 5.31033 34.4219 4.77579 34.0186 4.77579C33.7931 4.77579 33.6128 4.86709 33.3732 5.10255ZM3.05021 8.14658C1.9375 8.29266 0.814137 9.13079 0.318949 10.1844L0.0379113 10.7824L0.0101401 17.2064C-0.0208581 24.3834 -0.0219338 24.369 0.639785 25.3191C1.76873 26.9397 3.97224 27.3469 5.63088 26.2413C6.22591 25.8447 6.55125 25.4517 6.91345 24.6921L7.1763 24.141V17.5097V10.8785L6.951 10.3305C6.3238 8.80481 4.74954 7.92352 3.05021 8.14658ZM37.7084 8.24403C36.3229 8.56483 35.3753 9.69945 35.3072 11.1187C35.2622 12.0577 35.5187 12.7631 36.1299 13.381C36.7782 14.0367 37.4831 14.3202 38.5869 14.369L39.4881 14.409L39.5158 19.5152L39.5435 24.6215L39.7871 25.0903C40.1244 25.7395 40.6839 26.276 41.3374 26.5771C42.0828 26.9206 43.2081 26.9333 43.9535 26.6067C44.8586 26.2102 45.5541 25.3153 45.7513 24.2938C45.8101 23.9886 45.8507 21.8673 45.8507 19.0938V14.4093L46.7552 14.3678C47.8551 14.3175 48.4372 14.0902 49.0967 13.4536C49.7571 12.8161 50.0037 12.2181 50 11.2629C49.9978 10.6938 49.9439 10.3786 49.7928 10.0498C49.5527 9.52752 48.9999 8.89947 48.5279 8.61279C47.7948 8.16744 47.4597 8.1412 42.6238 8.15023C40.1229 8.15494 37.9111 8.19713 37.7084 8.24403ZM20.4366 9.44131C18.8074 9.78873 17.5349 10.4322 16.4045 11.4801C15.1973 12.5993 14.3887 13.9267 13.9609 15.4915C13.6665 16.5687 13.6673 18.4352 13.9628 19.5279C14.7496 22.4371 17.1318 24.7417 20.0841 25.4499C21.2823 25.7374 22.9813 25.736 24.0933 25.4466C27.0348 24.6814 29.2811 22.5069 30.1284 19.6046C30.311 18.9788 30.3464 18.6254 30.343 17.4617C30.3393 16.2234 30.309 15.9717 30.0706 15.2032C29.2627 12.5986 27.3373 10.6144 24.7587 9.72895C23.4625 9.28389 21.7192 9.16789 20.4366 9.44131ZM4.40523 10.2176C4.7468 10.3862 5.04925 10.7727 5.17677 11.2038C5.24522 11.4354 5.26966 13.6048 5.25001 17.709L5.22057 23.8669L4.97611 24.2216C4.69145 24.6346 4.08352 24.9579 3.59165 24.9579C3.04914 24.9579 2.43132 24.5825 2.16789 24.093L1.94063 23.6707L1.96713 17.3632L1.99363 11.0556L2.26655 10.704C2.79929 10.0177 3.62148 9.83063 4.40523 10.2176ZM47.4794 10.2631C48.2884 10.7545 48.2908 11.7923 47.4838 12.2758C47.2165 12.4361 46.988 12.4635 45.9176 12.4638C44.6217 12.4642 44.3664 12.5222 44.0683 12.8839C43.9128 13.0726 43.8992 13.5184 43.8971 18.5043C43.8952 23.3611 43.8782 23.9546 43.7317 24.2579C43.3665 25.0143 42.4089 25.1754 41.8051 24.5822L41.4992 24.2816L41.4503 18.6634L41.4014 13.0451L41.1305 12.7787C40.8645 12.5172 40.8329 12.5113 39.4192 12.4627C38.4216 12.4283 37.9148 12.3716 37.7702 12.2783C37.4559 12.0753 37.2455 11.6613 37.2455 11.2454C37.2455 10.8126 37.438 10.5038 37.8681 10.2459C38.158 10.0722 38.4169 10.0622 42.6611 10.062C47.0462 10.0616 47.1553 10.0661 47.4794 10.2631ZM23.5937 11.4044C24.7647 11.6987 25.6363 12.1944 26.5474 13.0844C27.9 14.4054 28.5147 15.9733 28.4159 17.8505C28.3313 19.4572 27.7428 20.7358 26.5379 21.9296C25.3416 23.115 23.8136 23.7381 22.0887 23.744C20.9524 23.7477 20.3194 23.6077 19.3018 23.1273C17.9385 22.4839 16.9766 21.5386 16.3235 20.2007C15.8171 19.1632 15.6836 18.5602 15.6958 17.3656C15.7087 16.1029 16.009 15.1154 16.6931 14.0854C18.1933 11.8269 20.975 10.7461 23.5937 11.4044ZM21.4804 14.0038C20.347 14.194 19.3122 14.9621 18.795 15.9971C18.5515 16.4847 18.5195 16.6547 18.5195 17.4631C18.5195 18.3005 18.5463 18.4311 18.8373 19.0126C19.4258 20.1884 20.5268 20.9135 21.8507 20.997C24.1488 21.1419 25.9498 19.1698 25.5882 16.9043C25.285 15.004 23.4101 13.68 21.4804 14.0038ZM22.8925 16.0791C23.333 16.303 23.6758 16.8995 23.6758 17.4424C23.6758 18.8089 22.1527 19.5833 21.0666 18.7691C20.4805 18.3298 20.2447 17.4093 20.5643 16.8081C21.0239 15.9436 22.015 15.6332 22.8925 16.0791ZM13.0924 25.0643C12.4538 25.3106 12.3094 26.077 12.7985 26.6244C13.4368 27.3389 15.0207 28.4461 16.3428 29.102C19.3026 30.5704 23.5145 30.7612 26.67 29.5697C28.6336 28.8283 30.9692 27.2794 31.505 26.3632C31.9307 25.6354 31.1732 24.747 30.3798 25.0435C30.2421 25.0949 29.8535 25.379 29.5162 25.6748C26.7156 28.1307 22.8199 29.0336 19.1551 28.0761C17.4038 27.6185 16.1621 26.9554 14.5591 25.6217C13.7452 24.9445 13.5728 24.8791 13.0924 25.0643ZM9.89739 28.3014C9.21299 28.403 8.92931 29.4016 9.44982 29.8762C9.80371 30.1989 10.1162 30.2637 10.52 30.0979C10.899 29.9423 11.1758 29.4216 11.0797 29.0451C10.9545 28.5548 10.4267 28.2227 9.89739 28.3014ZM33.6763 28.3694C33.515 28.442 33.0309 28.8094 32.6007 29.186C28.4167 32.848 22.3703 34.0626 17.044 32.3109C15.9972 31.9666 14.7132 31.3915 13.9059 30.9053C13.5039 30.6632 13.0758 30.4854 12.8281 30.4578C12.4689 30.4177 12.3797 30.4487 12.1192 30.7047C11.677 31.1393 11.7016 31.6033 12.1911 32.0605C12.5771 32.4211 14.4411 33.4064 15.5388 33.8301C16.4631 34.1869 18.079 34.6243 19.204 34.8222C20.5583 35.0605 23.3936 35.059 24.8756 34.8193C28.421 34.2456 31.7587 32.6351 34.2915 30.2756C34.921 29.6891 34.9964 29.5805 34.9964 29.26C34.9964 29.0007 34.9219 28.8234 34.7275 28.6206C34.3974 28.2763 34.0621 28.1961 33.6763 28.3694Z" fill="#48C5AE"/>
</svg>
