<svg width="30" height="30" viewBox="0 0 30 30" fill="none" xmlns="http://www.w3.org/2000/svg">
<path fill-rule="evenodd" clip-rule="evenodd" d="M10.3158 0.0546721C7.38719 0.383613 4.59466 1.86906 2.73966 4.08475C0.874861 6.31211 -0.102464 9.07474 0.00851445 11.8049C0.0477178 12.7684 0.185047 13.4738 0.653609 15.1177C1.094 16.6629 1.15351 16.9328 1.19635 17.5804C1.27118 18.7113 1.02762 19.8094 0.446676 20.9599C0.119493 21.6078 0.0902076 21.6961 0.118671 21.9487C0.135867 22.1012 0.200951 22.2955 0.263277 22.3805C0.486408 22.6848 1.4554 23.1089 2.34651 23.2922C2.86601 23.3991 3.91059 23.4144 4.42159 23.3228C5.26411 23.1716 6.19325 22.7958 6.79978 22.3608L7.0691 22.1677L7.82682 22.4205C10.7432 23.3936 13.7813 23.1743 16.5629 21.79C22.2847 18.9424 24.6546 12.2555 21.9364 6.62821C20.1688 2.96887 16.7125 0.509677 12.6927 0.0512127C12.0818 -0.0184453 10.9521 -0.0168035 10.3158 0.0546721ZM12.8687 1.87205C14.483 2.08437 16.2276 2.83659 17.5529 3.89184C21.1526 6.75808 22.2823 11.5756 20.3181 15.6836C19.4467 17.5061 17.7146 19.2469 15.8381 20.1862C15.1186 20.5464 14.3266 20.8284 13.5143 21.0139C12.9298 21.1473 12.6284 21.1794 11.7415 21.2023C10.1808 21.2427 9.2024 21.0707 7.79947 20.5096C7.39992 20.3497 7.00953 20.219 6.93195 20.219C6.7141 20.219 6.44349 20.3585 6.09272 20.6516C5.2215 21.3796 4.01852 21.7281 2.91731 21.5714C2.64083 21.5321 2.3809 21.4791 2.3397 21.4536C2.28195 21.418 2.31482 21.2746 2.48314 20.8278C2.60327 20.5091 2.76671 19.9317 2.84635 19.5447C2.97811 18.9047 2.98861 18.7455 2.9625 17.7856C2.93057 16.6125 2.90868 16.4999 2.30924 14.4279C1.88487 12.9609 1.79673 12.4556 1.79549 11.4824C1.79344 9.90741 2.0955 8.62782 2.80985 7.18535C4.30175 4.17282 7.30062 2.12776 10.6915 1.81049C11.2613 1.75719 12.1966 1.78363 12.8687 1.87205ZM6.00228 10.1859C5.70186 10.2637 5.4647 10.4143 5.25219 10.6624C4.70041 11.3064 4.85975 12.2914 5.58841 12.7415C5.84271 12.8985 5.92733 12.9189 6.32506 12.9189C6.72279 12.9189 6.80741 12.8985 7.06171 12.7415C8.19268 12.0429 7.78973 10.3043 6.46562 10.1695C6.30763 10.1534 6.09911 10.1608 6.00228 10.1859ZM11.1416 10.2021C10.7765 10.3069 10.4534 10.5791 10.2842 10.9247C10.1481 11.2025 10.1297 11.3031 10.1496 11.6553C10.1686 11.9925 10.2033 12.1073 10.3486 12.3138C10.6321 12.7168 10.9557 12.9093 11.397 12.9374C11.8607 12.9669 12.1409 12.8784 12.4405 12.6081C12.8803 12.2111 13.0301 11.7058 12.8706 11.1576C12.6584 10.4284 11.8705 9.99296 11.1416 10.2021ZM16.2826 10.2257C15.4922 10.4775 15.0956 11.438 15.4767 12.1767C15.9212 13.0381 17.0325 13.2184 17.7121 12.5395C18.0035 12.2482 18.1213 11.9543 18.1213 11.5177C18.1213 10.6054 17.1759 9.94112 16.2826 10.2257ZM26.3026 10.48C25.9564 10.6371 25.7881 10.9327 25.8208 11.3267C25.8429 11.5924 25.8932 11.6947 26.2017 12.1C27.6977 14.0663 28.3843 16.3546 28.2109 18.7968C28.1398 19.7987 28.0197 20.3479 27.5986 21.5969C27.1387 22.9607 27.0339 23.5122 27.0306 24.5872C27.0273 25.6898 27.1857 26.5439 27.5774 27.5352C27.6702 27.7698 27.746 27.9839 27.746 28.0109C27.746 28.1219 27.035 28.2074 26.3554 28.178C25.3049 28.1327 24.6492 27.8595 23.648 27.05C23.2943 26.7641 23.0567 26.773 22.2468 27.1026C21.5475 27.3873 21.0025 27.5481 20.2047 27.7051C19.4695 27.8499 17.614 27.8504 16.8358 27.7061C15.204 27.4036 13.809 26.7924 12.5058 25.809C11.8328 25.3011 11.6544 25.2285 11.308 25.3216C10.7182 25.4803 10.4763 26.0919 10.7795 26.6579C10.9379 26.9536 12.2718 27.8808 13.2334 28.3636C14.9386 29.2198 16.5767 29.6034 18.5352 29.6051C19.9485 29.6064 21.1948 29.3972 22.4274 28.9516L22.9203 28.7734L23.3421 29.046C25.1192 30.1945 27.3825 30.315 29.2132 29.3585C29.725 29.0912 29.8678 28.9237 29.9039 28.5487C29.9272 28.3064 29.888 28.1914 29.5423 27.4875C28.6766 25.725 28.5806 24.1998 29.2213 22.3884C29.8336 20.6576 30.0039 19.715 29.9999 18.0788C29.9961 16.4568 29.7655 15.2138 29.2071 13.8043C28.6523 12.404 27.5833 10.7472 27.0673 10.4881C26.7741 10.341 26.6128 10.3392 26.3026 10.48Z" fill="#38CF2B"/>
</svg>
