<svg width="37" height="50" viewBox="0 0 37 50" fill="none" xmlns="http://www.w3.org/2000/svg">
<path d="M29.5595 31.4732H28.0525C28.7517 30.3274 29.1225 29.0042 29.123 27.6538V14.2507C29.1222 12.3254 28.3744 10.4791 27.0434 9.11682C25.7125 7.75456 23.907 6.98768 22.0235 6.98438H15.4206C13.5372 6.98796 11.732 7.75494 10.4011 9.11714C9.07021 10.4793 8.32238 12.3255 8.3213 14.2507V27.6538C8.32176 29.0042 8.69262 30.3274 9.39177 31.4732H7.61503C7.38591 31.4733 7.15912 31.5197 6.94751 31.6094C6.73589 31.6992 6.54371 31.8307 6.38184 31.9965C6.21997 32.1623 6.09145 32.359 6.00399 32.5755C5.91652 32.792 5.8718 33.0239 5.87207 33.2581V48.2152C5.8718 48.6881 6.05523 49.1418 6.38209 49.4765C6.70895 49.8112 7.15237 49.9995 7.61503 50H29.5637C29.7928 49.9999 30.0196 49.9537 30.2312 49.8639C30.4428 49.7741 30.635 49.6426 30.7969 49.4768C30.9588 49.3111 31.0873 49.1143 31.1747 48.8978C31.2622 48.6814 31.3069 48.4494 31.3067 48.2152V33.2581C31.3069 33.0235 31.262 32.7912 31.1742 32.5745C31.0865 32.3577 30.9577 32.1609 30.7954 31.995C30.6331 31.8292 30.4406 31.6978 30.2285 31.6082C30.0164 31.5187 29.7889 31.4728 29.5595 31.4732ZM15.4156 10.553H22.0185C22.977 10.5547 23.8957 10.9449 24.5731 11.6381C25.2505 12.3313 25.6313 13.2709 25.6319 14.2507V27.6538C25.6313 28.6336 25.2505 29.5732 24.5731 30.2664C23.8957 30.9596 22.977 31.3499 22.0185 31.3516H15.4156C14.4571 31.3499 13.5384 30.9596 12.861 30.2664C12.1836 29.5732 11.8028 28.6336 11.8022 27.6538V24.0987H18.859C19.3147 24.0874 19.748 23.8945 20.0664 23.5611C20.3848 23.2277 20.563 22.7802 20.563 22.3143C20.563 21.8484 20.3848 21.401 20.0664 21.0676C19.748 20.7342 19.3147 20.5412 18.859 20.53H11.8022V17.471H18.859C19.3147 17.4597 19.748 17.2668 20.0664 16.9334C20.3848 16.6 20.563 16.1525 20.563 15.6866C20.563 15.2207 20.3848 14.7732 20.0664 14.4398C19.748 14.1064 19.3147 13.9135 18.859 13.9023H11.8206C11.9056 12.9872 12.3209 12.1372 12.9855 11.5181C13.6501 10.8989 14.5164 10.5549 15.4156 10.553ZM27.8155 46.4303H9.35401V35.0419H27.8155V46.4303Z" fill="#0092FF"/>
<path d="M1.92282 20.9023H1.70395C1.24829 20.9136 0.814989 21.1065 0.496603 21.4399C0.178217 21.7733 0 22.2208 0 22.6867C0 23.1526 0.178217 23.6 0.496603 23.9334C0.814989 24.2668 1.24829 24.4598 1.70395 24.471H1.92282C2.37848 24.4598 2.81178 24.2668 3.13017 23.9334C3.44855 23.6 3.62677 23.1526 3.62677 22.6867C3.62677 22.2208 3.44855 21.7733 3.13017 21.4399C2.81178 21.1065 2.37848 20.9136 1.92282 20.9023Z" fill="#0092FF"/>
<path d="M35.2959 10.1953H35.077C34.6213 10.2066 34.188 10.3995 33.8697 10.7329C33.5513 11.0663 33.373 11.5138 33.373 11.9797C33.373 12.4456 33.5513 12.893 33.8697 13.2264C34.188 13.5598 34.6213 13.7527 35.077 13.764H35.2959C35.7515 13.7527 36.1848 13.5598 36.5032 13.2264C36.8216 12.893 36.9998 12.4456 36.9998 11.9797C36.9998 11.5138 36.8216 11.0663 36.5032 10.7329C36.1848 10.3995 35.7515 10.2066 35.2959 10.1953Z" fill="#0092FF"/>
<path d="M10.1717 3.56866H10.3906C10.8463 3.55742 11.2796 3.36448 11.5979 3.03107C11.9163 2.69767 12.0945 2.25021 12.0945 1.7843C12.0945 1.31838 11.9163 0.870929 11.5979 0.537524C11.2796 0.20412 10.8463 0.0112465 10.3906 0H10.1717C9.71606 0.0112465 9.28276 0.20412 8.96438 0.537524C8.64599 0.870929 8.46777 1.31838 8.46777 1.7843C8.46777 2.25021 8.64599 2.69767 8.96438 3.03107C9.28276 3.36448 9.71606 3.55742 10.1717 3.56866Z" fill="#0092FF"/>
</svg>
