<svg width="30" height="30" viewBox="0 0 30 30" fill="none" xmlns="http://www.w3.org/2000/svg">
<path fill-rule="evenodd" clip-rule="evenodd" d="M14.1009 0.131687C13.1708 0.521263 12.6727 1.17871 12.5077 2.23494C12.4757 2.43982 12.446 2.46791 12.0912 2.6288C11.5465 2.87591 11.054 3.18612 10.5329 3.61048L10.08 3.97918H6.21563C3.86503 3.97918 2.22922 4.00235 2.03972 4.0383C1.05861 4.22441 0.253454 5.01465 0.0512871 5.98988C0.00701899 6.20326 -0.00746342 8.83586 0.00350099 14.6834L0.0192147 23.0709L0.157413 23.4136C0.420969 24.0673 1.00232 24.6278 1.67273 24.8745C1.96988 24.9839 2.16941 25.0026 3.25577 25.0235L4.49879 25.0473L4.51638 26.9625C4.53198 28.6624 4.54564 28.8989 4.63769 29.0674C4.81324 29.3888 5.09603 29.6697 5.40819 29.833C5.80672 30.0414 6.46236 30.0571 6.82377 29.867C6.95453 29.7982 8.5412 28.6837 10.3498 27.3902L13.6381 25.0385L20.8127 25.0225L27.9873 25.0064L28.3273 24.8779C29.0031 24.6224 29.58 24.065 29.8426 23.4136L29.9808 23.0709L29.9965 14.6834C30.0075 8.83586 29.993 6.20326 29.9487 5.98988C29.7465 5.01465 28.9414 4.22441 27.9603 4.0383C27.789 4.00575 27.1296 3.97918 26.4951 3.97918H25.3414L25.1692 3.79723C24.7013 3.30296 23.853 2.8325 23.0673 2.6315C21.9012 2.33313 20.4296 2.60164 19.4588 3.28982L19.2563 3.43341L18.8725 3.17434C18.6614 3.03181 18.2719 2.80969 18.0068 2.68059C17.5537 2.45994 17.523 2.43313 17.4914 2.23013C17.3417 1.26769 16.8594 0.581677 16.0695 0.20735C15.7146 0.0391907 15.6115 0.0184274 15.0586 0.00423327C14.5167 -0.00972625 14.402 0.00552365 14.1009 0.131687ZM15.4811 1.079C16.0964 1.28874 16.4807 1.8405 16.4798 2.51284C16.4791 3.07433 16.5507 3.17181 17.124 3.38989C17.5265 3.54303 18.0495 3.81776 18.4502 4.08669C18.5124 4.12839 18.486 4.19995 18.3251 4.42594C17.8092 5.1509 17.579 5.85181 17.5369 6.82569C17.5111 7.42085 17.526 7.60877 17.6314 8.02597C18.0212 9.56815 19.0594 10.7202 20.526 11.2384L20.9803 11.3988L20.9804 13.2043C20.9805 14.6216 20.9982 15.0504 21.0626 15.1985C21.1077 15.3023 21.675 15.9149 22.3232 16.5598L23.5018 17.7323V18.1288V18.5252H15H6.49818V18.1288V17.7323L7.67677 16.5598C8.32502 15.9149 8.8923 15.3023 8.93738 15.1985C9.00446 15.0442 9.01953 14.3978 9.02017 11.65C9.02088 8.58981 9.03079 8.24246 9.1314 7.75488C9.54377 5.75608 10.9397 4.12904 12.876 3.39041C13.4492 3.1717 13.5209 3.07416 13.5202 2.51284C13.5187 1.45767 14.4959 0.743208 15.4811 1.079ZM22.8299 3.59846C24.3909 3.99372 25.4953 5.40305 25.4953 6.99983C25.4953 8.51725 24.5167 9.84898 23.0327 10.3509C22.5772 10.505 21.4346 10.5047 20.9806 10.3504C20.4004 10.1532 19.9642 9.88412 19.5385 9.46087C18.8701 8.79633 18.518 7.94708 18.518 6.99983C18.518 5.40188 19.5974 4.01197 21.1565 3.60239C21.5833 3.49024 22.3951 3.48837 22.8299 3.59846ZM9.19531 5.01007C9.19531 5.0286 9.08854 5.22662 8.95808 5.45009C8.63536 6.00284 8.39145 6.59219 8.20852 7.26078L8.05531 7.82098L8.02429 11.2985L7.99333 14.7761L6.83814 15.9329C6.10821 16.6639 5.64953 17.1698 5.59218 17.3071C5.48535 17.5628 5.46624 18.6003 5.56363 18.8587C5.65621 19.1043 5.96667 19.3984 6.20244 19.4639C6.32545 19.4981 7.55874 19.5218 9.22533 19.522L12.0405 19.5223L12.1496 19.9036C12.4078 20.8052 13.1832 21.5837 14.1078 21.8694C14.6167 22.0266 15.3833 22.0266 15.8922 21.8694C16.8108 21.5855 17.5944 20.7978 17.8515 19.8995L17.9595 19.5223L20.7747 19.522C22.4413 19.5218 23.6745 19.4981 23.7976 19.4639C24.0333 19.3984 24.3438 19.1043 24.4364 18.8587C24.5334 18.6012 24.5146 17.5629 24.4084 17.3085C24.3518 17.173 23.8817 16.6545 23.1471 15.9173L21.976 14.7421L21.9913 13.1291L22.0067 11.5161L22.4464 11.4729C24.1134 11.3086 25.5494 10.2301 26.1798 8.66893C26.5625 7.72103 26.5955 6.54169 26.266 5.58517C26.1646 5.29102 26.0817 5.03083 26.0817 5.00702C26.0817 4.98321 26.4841 4.97359 26.9758 4.98555C28.005 5.01066 28.2688 5.09535 28.6289 5.51619C29.0388 5.99527 29.0133 5.39847 29.0133 14.5075C29.0133 23.6127 29.0385 23.02 28.6306 23.4967C28.5204 23.6256 28.3042 23.7936 28.1501 23.8701L27.87 24.0093L20.5677 24.0387L13.2655 24.068L12.359 24.7171C11.8605 25.0741 10.3218 26.1763 8.93973 27.1664C7.55757 28.1564 6.36368 28.9824 6.28658 29.0017C6.07163 29.0557 5.8524 28.977 5.66841 28.78L5.50142 28.6012V26.5223C5.50142 24.2803 5.48301 24.134 5.19254 24.0703C5.12054 24.0546 4.40205 24.0336 3.59584 24.0238C2.1958 24.0068 2.11746 23.9998 1.84992 23.8684C1.69583 23.7928 1.47959 23.6256 1.36936 23.4967C0.961392 23.02 0.986604 23.6124 0.987014 14.5117C0.98719 9.18884 1.00806 6.22126 1.04623 6.08378C1.1757 5.6176 1.61251 5.1865 2.08387 5.05969C2.2967 5.00245 3.18992 4.98327 5.77993 4.98022C7.65842 4.97805 9.19531 4.99148 9.19531 5.01007ZM21.8308 5.03142C21.7663 5.05905 21.443 5.35765 21.1125 5.69497C20.604 6.21393 20.5115 6.33711 20.5115 6.49541C20.5115 6.90581 21.0149 7.11561 21.3558 6.84733L21.5124 6.72416L21.4957 7.36055L21.479 7.99694L21.1071 8.0265C20.8083 8.05031 20.7133 8.08328 20.6234 8.19431C20.4712 8.38235 20.4828 8.63157 20.653 8.82947L20.7945 8.99405H22.0067H23.2188L23.3603 8.82947C23.5452 8.61444 23.5443 8.35666 23.3579 8.17026C23.2369 8.04914 23.1577 8.02627 22.8595 8.02627H22.505V6.68052C22.505 5.3678 22.5018 5.33114 22.3731 5.18703C22.224 5.02004 22.0044 4.95705 21.8308 5.03142ZM16.8451 19.7423C16.617 20.2917 16.1786 20.7156 15.6492 20.8988C15.285 21.0249 14.6579 21.0142 14.2938 20.8758C13.7688 20.6762 13.336 20.2333 13.1288 19.6836L13.068 19.5223H15.0022H16.9365L16.8451 19.7423Z" fill="#EB4747"/>
</svg>
