<svg width="30" height="30" viewBox="0 0 30 30" fill="none" xmlns="http://www.w3.org/2000/svg">
<path fill-rule="evenodd" clip-rule="evenodd" d="M7.851 0.0785794C6.90101 0.334654 6.17744 1.15729 6.03493 2.14312C6.00375 2.3592 5.97768 3.30592 5.97703 4.24701L5.97586 5.95814L4.316 5.97685L2.65621 5.99561L2.42521 6.14866C2.18631 6.30698 2.07222 6.49022 1.89976 6.99246C1.76071 7.39736 1.35427 7.78737 0.933301 7.91989C0.456956 8.06977 0.240845 8.22375 0.113921 8.50364C0.0101437 8.73238 0.00129536 8.90613 0.000123399 10.7415C-0.00110716 12.6357 0.00469408 12.7434 0.120191 12.9822C0.25696 13.2649 0.492759 13.4335 0.934825 13.565C1.53757 13.744 1.99 14.3579 1.99 14.9966C1.99 15.6389 1.5269 16.2552 0.90869 16.4356C0.467445 16.5644 0.240376 16.7274 0.113921 17.0062C0.0100265 17.2352 0.00141256 17.4071 0.00141256 19.2479C0.00141256 21.067 0.0109641 21.2627 0.110464 21.482C0.243306 21.7746 0.445822 21.9235 0.905115 22.066C1.35533 22.2057 1.75608 22.5824 1.89976 23.0008C2.07222 23.503 2.18631 23.6862 2.42521 23.8446L2.65621 23.9976L4.316 24.0164L5.97586 24.0351L5.97703 25.7462C5.97768 26.6873 6.00375 27.634 6.03493 27.8501C6.18002 28.8536 6.91044 29.6699 7.88634 29.9191C8.20189 29.9997 9.0559 30.0085 15.1525 29.9946L22.0611 29.9787L22.4035 29.8405C23.0596 29.5757 23.573 29.0388 23.856 28.3215C23.9826 28.0004 23.9897 27.895 24.0116 26.01L24.0347 24.035L25.6892 24.0163L27.3438 23.9976L27.5748 23.8446C27.8137 23.6862 27.9278 23.503 28.1002 23.0008C28.2393 22.5959 28.6457 22.2059 29.0667 22.0733C29.543 21.9235 29.7591 21.7695 29.8861 21.4896C29.9898 21.2608 29.9987 21.0871 29.9999 19.2518C30.0011 17.338 29.9964 17.252 29.8759 17.0031C29.7347 16.7111 29.5272 16.5628 29.0758 16.4311C28.4647 16.2528 28.01 15.6408 28.01 14.9966C28.01 14.3543 28.4731 13.7381 29.0913 13.5576C29.5271 13.4304 29.7361 13.2793 29.8759 12.9901C29.9964 12.7412 30.0011 12.6552 29.9999 10.7415C29.9987 8.92777 29.9889 8.73033 29.8895 8.51126C29.7567 8.21859 29.5542 8.06977 29.0949 7.92722C28.6447 7.78748 28.2439 7.41085 28.1002 6.99246C27.9278 6.49022 27.8137 6.30698 27.5748 6.14866L27.3438 5.99561L25.6892 5.9769L24.0347 5.9582L24.0116 3.9832C23.9892 2.05264 23.9855 2.00004 23.8453 1.64552C23.5655 0.938161 23.0634 0.419503 22.3981 0.150705L22.0611 0.0144876L15.1172 0.00311169C9.14192 -0.00673957 8.12835 0.00381536 7.851 0.0785794ZM11.0153 1.41032C11.0153 2.09967 11.3225 2.592 11.9236 2.86625C12.1401 2.965 12.3745 2.97315 15 2.97315C17.6255 2.97315 17.8599 2.965 18.0764 2.86625C18.6775 2.592 18.9847 2.09967 18.9847 1.41032V0.982022H20.3513C21.8827 0.982022 22.0812 1.01756 22.4855 1.36382C22.6149 1.4747 22.7806 1.70116 22.8583 1.87368C22.9951 2.17696 22.9988 2.22762 23.0175 4.0752L23.0366 5.96629H14.9995H6.9623L6.98234 4.04588L7.00233 2.12547L7.16095 1.82354C7.2482 1.65748 7.41837 1.44011 7.53914 1.34054C7.92783 1.0199 8.09389 0.991756 9.6236 0.986655L11.0153 0.982022V1.41032ZM17.9885 1.33649C17.9885 1.63473 17.9657 1.71389 17.8446 1.83492L17.7008 1.97888H15H12.2991L12.1553 1.83492C12.0343 1.71389 12.0115 1.63473 12.0115 1.33649V0.982022H15H17.9885V1.33649ZM18.677 7.02172C25.3533 7.02178 27.0712 7.03679 27.0713 7.09508C27.0714 7.26314 27.4332 7.91526 27.668 8.17063C27.967 8.49572 28.2766 8.70148 28.6811 8.84403L28.9757 8.94788V10.749V12.5502L28.7413 12.6201C28.2368 12.7706 27.7541 13.1367 27.4204 13.6221C26.9597 14.2922 26.8828 15.2623 27.2313 16.0076C27.5377 16.6628 28.1161 17.1891 28.7288 17.3701L28.9757 17.4431V19.2479V21.0527L28.7288 21.1257C27.983 21.346 27.3564 22.0209 27.0469 22.9371C27.0099 23.0465 26.9219 23.0483 23.4853 23.0104C21.5472 22.989 16.1292 22.9714 11.4451 22.9714C4.67111 22.9714 2.92875 22.9564 2.92869 22.8981C2.92857 22.7301 2.56679 22.078 2.33198 21.8226C2.03302 21.4975 1.72338 21.2917 1.31894 21.1492L1.0243 21.0453V19.2442V17.4431L1.27124 17.3701C1.88289 17.1894 2.45967 16.6651 2.77141 16.0065C2.94434 15.6413 2.95805 15.567 2.95805 14.9966C2.95805 14.4262 2.94434 14.3519 2.77141 13.9867C2.45967 13.3281 1.88289 12.8038 1.27124 12.6231L1.0243 12.5502V10.7453V8.94049L1.27124 8.86755C2.01702 8.64718 2.64355 7.97237 2.95313 7.05614C2.9901 6.94667 3.07987 6.94491 6.63691 6.98279C8.6422 7.00419 14.0603 7.02172 18.677 7.02172ZM19.6335 8.17315C19.5269 8.30878 19.5121 8.4087 19.5121 8.9908C19.5121 9.60399 19.5226 9.66614 19.6509 9.81555C19.8306 10.0245 20.1561 10.039 20.3484 9.84651C20.4695 9.72531 20.4789 9.6628 20.4789 8.97937C20.4789 8.27606 20.4727 8.23777 20.3406 8.13075C20.1301 7.96017 19.7847 7.98087 19.6335 8.17315ZM22.1756 8.6317C21.958 8.84949 21.9618 9.15194 22.1848 9.35266C22.3295 9.48296 22.3522 9.4846 23.9948 9.4846H25.6583L25.8198 9.34562C25.9428 9.23972 25.9813 9.15405 25.9813 8.98617C25.9813 8.81829 25.9428 8.73262 25.8198 8.62672L25.6583 8.48774H23.9889H22.3194L22.1756 8.6317ZM5.27385 10.5567C4.96814 10.7115 4.91992 11.0782 5.17002 11.3464L5.29313 11.4783H10.5008H15.7085L15.8523 11.3343C16.0539 11.1326 16.0435 10.8716 15.8249 10.6529L15.6536 10.4815L10.5364 10.4823C6.54948 10.483 5.38706 10.4995 5.27385 10.5567ZM22.2523 10.5732C21.9737 10.7245 21.9387 11.1248 22.1848 11.3464C22.3283 11.4756 22.3606 11.4783 23.7664 11.4783H25.2014L25.3452 11.3343C25.557 11.1224 25.5418 10.8295 25.3088 10.6333L25.1285 10.4815L23.7706 10.4838C22.684 10.4857 22.3806 10.5036 22.2523 10.5732ZM19.6559 11.1532C19.5192 11.2899 19.5122 11.3313 19.5139 11.9888C19.5159 12.7082 19.5439 12.8054 19.7865 12.9347C19.9929 13.0447 20.1541 13.0145 20.337 12.8315C20.5048 12.6635 20.5082 12.6476 20.5082 12.036C20.5082 11.2297 20.4002 11.015 19.9929 11.0111C19.8642 11.0098 19.7517 11.0572 19.6559 11.1532ZM22.2955 12.5412C21.9955 12.7096 21.9299 13.1212 22.1674 13.3445C22.2991 13.4683 22.3449 13.472 23.7522 13.472H25.2014L25.3452 13.3281C25.5315 13.1417 25.5325 12.884 25.3477 12.669L25.2064 12.5045L23.8095 12.49C22.8605 12.4801 22.3751 12.4966 22.2955 12.5412ZM19.6559 14.1437C19.519 14.2806 19.5121 14.322 19.5121 14.9966C19.5121 15.6712 19.519 15.7126 19.6559 15.8495C19.8575 16.0513 20.1184 16.0408 20.337 15.8221C20.5058 15.6531 20.5082 15.6413 20.5082 14.9966C20.5082 14.3519 20.5058 14.3401 20.337 14.1712C20.1184 13.9524 19.8575 13.9419 19.6559 14.1437ZM5.34394 14.5344C5.20998 14.5735 5.12208 14.6522 5.05475 14.7935C4.96492 14.9821 4.96486 15.0111 5.0544 15.199C5.12847 15.3544 5.20494 15.4159 5.3839 15.4641C5.54329 15.5071 7.21263 15.5219 10.6651 15.511L15.7134 15.495L15.8548 15.3305C16.0355 15.1202 16.0355 14.873 15.8548 14.6627L15.7134 14.4982L10.6249 14.4882C7.52174 14.4821 5.46131 14.5001 5.34394 14.5344ZM22.4127 14.5089C22.0303 14.6078 21.8999 15.0868 22.183 15.3529L22.3342 15.495H23.7702H25.2062L25.3477 15.3305C25.5283 15.1203 25.5284 14.873 25.3477 14.6627L25.2064 14.4982L23.8681 14.4884C23.1321 14.483 22.4771 14.4922 22.4127 14.5089ZM22.1592 16.6569C21.9039 16.9288 22.0393 17.4002 22.3987 17.4904C22.4732 17.5092 23.1354 17.5164 23.8703 17.5066L25.2065 17.4887L25.3477 17.3242C25.5325 17.1092 25.5315 16.8515 25.3452 16.6652L25.2014 16.5212H23.744C22.2964 16.5212 22.2858 16.5222 22.1592 16.6569ZM19.7758 17.0612C19.5431 17.1947 19.5159 17.293 19.5139 18.0045C19.5122 18.6619 19.5192 18.7033 19.6559 18.8401C19.7517 18.936 19.8642 18.9834 19.9929 18.9822C20.4002 18.9782 20.5082 18.7635 20.5082 17.9572C20.5082 17.3456 20.5048 17.3297 20.337 17.1617C20.1571 16.9818 19.9719 16.9486 19.7758 17.0612ZM5.15396 18.6631C4.97072 18.8583 4.9668 19.1731 5.1454 19.3518L5.2759 19.4825L10.4638 19.4981L15.6517 19.5137L15.8239 19.3413C16.0435 19.1217 16.0543 18.8609 15.8523 18.6589L15.7085 18.5149H10.5008H5.29313L5.15396 18.6631ZM22.1848 18.6469C22.0226 18.7929 21.9868 18.9327 22.0501 19.1735C22.1301 19.4788 22.2993 19.5118 23.7824 19.5118H25.1285L25.3088 19.36C25.5418 19.1638 25.557 18.8708 25.3452 18.6589L25.2014 18.5149H23.7664C22.3606 18.5149 22.3283 18.5176 22.1848 18.6469ZM19.826 20.0378C19.5667 20.1451 19.5121 20.3148 19.5121 21.0122C19.5121 21.5844 19.5271 21.6848 19.6335 21.8201C19.87 22.1209 20.3857 21.986 20.483 21.598C20.503 21.5182 20.5103 21.1884 20.4992 20.865C20.4822 20.3711 20.4602 20.2587 20.3617 20.162C20.2178 20.0206 19.9932 19.9686 19.826 20.0378ZM22.1848 20.6406C21.9618 20.8413 21.958 21.1437 22.1756 21.3615L22.3194 21.5055H23.9889H25.6583L25.8198 21.3665C25.9428 21.2606 25.9813 21.1749 25.9813 21.0071C25.9813 20.8392 25.9428 20.7535 25.8198 20.6476L25.6583 20.5086H23.9948C22.3522 20.5086 22.3295 20.5103 22.1848 20.6406ZM23.0175 25.918C22.9988 27.7656 22.9951 27.8163 22.8583 28.1195C22.6861 28.5014 22.3391 28.8091 21.9505 28.9246C21.5039 29.0573 8.40903 29.0545 8.0193 28.9216C7.65769 28.7983 7.34929 28.5281 7.16095 28.1697L7.00233 27.8678L6.98234 25.9473L6.9623 24.0269H14.9995H23.0366L23.0175 25.918ZM11.1592 27.1615C10.9173 27.4034 10.9803 27.7811 11.2898 27.9462C11.4724 28.0434 18.5276 28.0434 18.7102 27.9462C19.0197 27.7811 19.0827 27.4034 18.8408 27.1615L18.697 27.0175H15H11.303L11.1592 27.1615Z" fill="#C915B7"/>
</svg>
