<svg width="18" height="18" viewBox="0 0 18 18" fill="none" xmlns="http://www.w3.org/2000/svg">
<path d="M1.60577 4.73094L9 0.46188L16.3942 4.73094V13.2691L9 17.5381L1.60577 13.2691V4.73094Z" stroke="#410EAD" stroke-width="0.8"/>
<path d="M12.3375 13H5.66201C5.56076 12.9676 5.46279 12.9263 5.36933 12.8767C5.24858 12.7941 5.1515 12.6834 5.08714 12.5549C5.02279 12.4264 4.99325 12.2842 5.00129 12.1418V6.61382C4.99659 6.51528 5.0132 6.41688 5.05006 6.32486C5.08692 6.23284 5.14324 6.14922 5.21543 6.07931C5.28762 6.0094 5.37411 5.95473 5.46939 5.91878C5.56468 5.88282 5.66668 5.86636 5.76891 5.87045H6.31221H6.40334C6.40334 5.69137 6.40334 5.52242 6.40334 5.35516C6.4003 5.29323 6.41719 5.2319 6.4517 5.17958C6.48621 5.12726 6.53665 5.0865 6.59612 5.06289C6.66952 5.03067 6.74864 5.01232 6.82921 5.00882C7.0255 5.00882 7.22354 5.00882 7.41982 5.00882C7.47172 5.00422 7.52403 5.01084 7.57294 5.02819C7.62185 5.04554 7.66614 5.07318 7.70257 5.10911C7.739 5.14504 7.76666 5.18834 7.78353 5.23588C7.80041 5.28341 7.80608 5.33397 7.80013 5.38388C7.80013 5.54438 7.80013 5.70657 7.80013 5.87214H10.1959V5.3653C10.1902 5.31853 10.1952 5.27113 10.2105 5.22639C10.2257 5.18166 10.2509 5.14067 10.2843 5.10627C10.3176 5.07186 10.3583 5.04487 10.4036 5.02717C10.4489 5.00947 10.4976 5.00148 10.5464 5.00375C10.7707 5.00375 10.995 4.99531 11.2194 5.00375C11.272 5.00202 11.3244 5.0112 11.373 5.03066C11.4217 5.05012 11.4654 5.07942 11.5013 5.11658C11.5372 5.15373 11.5644 5.19788 11.581 5.24603C11.5977 5.29419 11.6035 5.34523 11.5979 5.39571V5.86876H11.6961C11.8836 5.86876 12.0694 5.86876 12.2551 5.86876C12.353 5.86718 12.4501 5.8845 12.5409 5.9197C12.6316 5.95491 12.7142 6.00728 12.7836 6.07374C12.853 6.14019 12.9079 6.21938 12.9451 6.30662C12.9823 6.39387 13.0009 6.48741 13 6.58172C13 8.44351 13 10.3047 13 12.1654C13.0012 12.336 12.9526 12.5034 12.8598 12.6486C12.8018 12.7381 12.7256 12.8154 12.6359 12.8758C12.5461 12.9361 12.4446 12.9784 12.3375 13V13ZM5.40263 8.08703V12.1418C5.40263 12.1705 5.40263 12.1992 5.40263 12.2279C5.40122 12.2788 5.41044 12.3295 5.42973 12.3769C5.44903 12.4243 5.47801 12.4675 5.51495 12.5039C5.5519 12.5403 5.59605 12.5692 5.6448 12.5888C5.69354 12.6084 5.74588 12.6184 5.79871 12.6182C7.93215 12.6182 10.065 12.6182 12.1973 12.6182C12.2733 12.6223 12.3486 12.6024 12.4118 12.5615C12.4751 12.5207 12.5228 12.4611 12.5478 12.3918C12.5791 12.3118 12.5957 12.2272 12.5969 12.1418C12.5969 10.8217 12.5969 9.50224 12.5969 8.18333V8.08703H5.40263ZM12.5986 7.69507V6.59523C12.6006 6.55035 12.5929 6.50556 12.576 6.4637C12.5591 6.42184 12.5333 6.38382 12.5004 6.35205C12.4674 6.32029 12.428 6.29547 12.3846 6.27916C12.3411 6.26286 12.2947 6.25543 12.2481 6.25734H11.675H11.5979V6.40939C11.6022 6.46476 11.5943 6.52037 11.5745 6.57253C11.5548 6.62468 11.5237 6.67218 11.4834 6.71183C11.4431 6.75149 11.3945 6.7824 11.3408 6.8025C11.2871 6.8226 11.2296 6.83142 11.172 6.82838C10.9723 6.82838 10.7725 6.82838 10.5727 6.82838C10.523 6.83 10.4736 6.82183 10.4273 6.80437C10.3811 6.7869 10.339 6.76051 10.3037 6.72681C10.2685 6.69312 10.2407 6.65282 10.2221 6.60841C10.2036 6.56399 10.1947 6.51639 10.1959 6.46852V6.25903H7.80013C7.80013 6.33843 7.80013 6.41446 7.80013 6.4888C7.79772 6.57538 7.7619 6.65799 7.69967 6.72048C7.63745 6.78296 7.55328 6.82083 7.46364 6.82669C7.23931 6.83345 7.01498 6.83345 6.79066 6.82669C6.7378 6.82584 6.68566 6.81476 6.63734 6.79411C6.58902 6.77345 6.5455 6.74364 6.50936 6.70644C6.47323 6.66925 6.44523 6.62543 6.42701 6.57759C6.4088 6.52975 6.40075 6.47887 6.40334 6.42797C6.40334 6.37222 6.40334 6.31647 6.40334 6.25903C6.15798 6.25903 5.92314 6.24889 5.69005 6.25903C5.60807 6.26634 5.53225 6.3041 5.47861 6.36431C5.42498 6.42453 5.39773 6.50249 5.40263 6.58172C5.40263 6.93144 5.40263 7.27947 5.40263 7.62919C5.40263 7.65115 5.40263 7.67311 5.40263 7.69507H12.5986ZM10.5867 5.39233V6.44149H11.1931V5.39233H10.5867ZM7.39178 5.39233H6.83096V6.44318H7.39178V5.39233Z" fill="#410EAD"/>
<path d="M7.70844 11.6924C7.75225 11.4576 7.78205 11.2143 7.84514 10.9777C7.87649 10.898 7.87901 10.8105 7.85229 10.7292C7.82557 10.648 7.77118 10.5778 7.69792 10.53C7.52267 10.3915 7.35968 10.2242 7.19144 10.0705C7.15402 10.0464 7.12579 10.0111 7.11103 9.97014C7.09628 9.92914 7.0958 9.88462 7.10968 9.84334C7.12356 9.80205 7.15103 9.76626 7.18793 9.7414C7.22482 9.71654 7.26913 9.70396 7.31411 9.70558C7.60504 9.66503 7.89421 9.61941 8.19039 9.58225C8.21791 9.58058 8.24434 9.57123 8.26643 9.55533C8.28853 9.53943 8.30535 9.51767 8.31482 9.4927C8.44276 9.23759 8.57596 8.98586 8.70389 8.73075C8.71626 8.68864 8.74255 8.65156 8.77877 8.62516C8.81499 8.59876 8.85915 8.58447 8.90456 8.58447C8.94997 8.58447 8.99413 8.59876 9.03035 8.62516C9.06657 8.65156 9.09286 8.68864 9.10523 8.73075C9.23667 8.99262 9.37337 9.2528 9.50481 9.51467C9.51257 9.53344 9.5258 9.54966 9.5429 9.56135C9.56001 9.57304 9.58025 9.57971 9.6012 9.58056C9.90089 9.6211 10.1988 9.66672 10.4985 9.70896C10.5422 9.7102 10.5844 9.72431 10.6195 9.74938C10.6546 9.77445 10.6809 9.80928 10.6948 9.84918C10.7053 9.88963 10.7033 9.93217 10.689 9.97151C10.6746 10.0109 10.6486 10.0453 10.6142 10.0705C10.4004 10.2665 10.1901 10.4658 9.97625 10.6584C9.95461 10.6749 9.93855 10.6972 9.93012 10.7224C9.92169 10.7477 9.92128 10.7748 9.92893 10.8004C9.98326 11.074 10.0358 11.3477 10.0814 11.6214C10.0933 11.6871 10.0847 11.7547 10.0569 11.8157C10.0078 11.9103 9.89213 11.9255 9.77295 11.8664C9.51182 11.7363 9.24718 11.6079 8.99306 11.4711C8.96681 11.4552 8.93644 11.4467 8.90544 11.4467C8.87443 11.4467 8.84406 11.4552 8.81781 11.4711C8.55492 11.6079 8.29204 11.7414 8.02215 11.8715C7.99067 11.8929 7.95343 11.9051 7.91493 11.9066C7.87643 11.908 7.83831 11.8988 7.80516 11.8798C7.772 11.8609 7.74523 11.8331 7.72807 11.7999C7.71091 11.7666 7.7041 11.7293 7.70844 11.6924V11.6924ZM8.18163 11.3545C8.38668 11.2464 8.57596 11.1518 8.76173 11.0521C8.80297 11.0272 8.85065 11.014 8.8993 11.014C8.94796 11.014 8.99563 11.0272 9.03688 11.0521C9.21213 11.1433 9.37687 11.2295 9.54862 11.319C9.5679 11.3292 9.58893 11.3359 9.61697 11.3477C9.59651 11.1774 9.56667 11.0082 9.52759 10.8409C9.49664 10.7564 9.49549 10.6643 9.52433 10.5791C9.55317 10.4939 9.61037 10.4202 9.68708 10.3695C9.80993 10.2578 9.92415 10.1375 10.0288 10.0097C10.0288 10.0181 10.0043 10.0097 9.98151 10.0097L9.38914 9.94548C9.35133 9.94289 9.31499 9.93033 9.28408 9.90918C9.25317 9.88802 9.22889 9.85909 9.21389 9.82553C9.12275 9.64645 9.02812 9.46736 8.93523 9.28828L8.89667 9.22577C8.78801 9.43357 8.68461 9.63124 8.58472 9.82891C8.57121 9.85876 8.55019 9.8849 8.52357 9.90496C8.49695 9.92502 8.46556 9.93837 8.43225 9.94379L8.18338 9.97589L7.74174 10.03L7.72947 10.0519C7.75248 10.0652 7.77419 10.0805 7.79431 10.0975C7.93627 10.2259 8.07472 10.356 8.21668 10.4861C8.24969 10.513 8.274 10.5485 8.28674 10.5883C8.29948 10.6281 8.3001 10.6707 8.28854 10.7108C8.28854 10.7412 8.27802 10.7733 8.27276 10.8037C8.24647 10.9828 8.21493 11.1619 8.18163 11.3613V11.3545Z" fill="#410EAD"/>
</svg>
