<svg width="30" height="30" viewBox="0 0 30 30" fill="none" xmlns="http://www.w3.org/2000/svg">
<path fill-rule="evenodd" clip-rule="evenodd" d="M5.65077 0.131503C5.29791 0.33399 5.11898 0.70994 5.11898 1.24859V1.66433L4.13362 1.69861C3.36997 1.72519 3.04971 1.76347 2.71031 1.86888C1.52693 2.23645 0.564082 3.18064 0.158862 4.37098L0.0200968 4.77851L0.00339249 13.657C-0.00768117 19.5405 0.00839751 22.6529 0.0510029 22.8837C0.335227 24.4228 1.5823 25.6693 3.12216 25.9536C3.3467 25.9951 5.05905 26.012 7.9193 26.0012C12.3007 25.9846 12.3698 25.9824 12.5399 25.8553C12.8682 25.6102 12.9706 25.4103 12.9706 25.0147C12.9706 24.6191 12.8682 24.4193 12.54 24.1741C12.3702 24.0473 12.29 24.0446 7.85161 24.0139L3.33594 23.9826L2.97745 23.8066C2.55628 23.5998 2.28625 23.2969 2.11471 22.8386C1.99402 22.5165 1.99083 22.3315 1.99083 15.6918V8.8758H12.9991H24.0074L24.0258 10.6229C24.0433 12.2744 24.0514 12.3794 24.1733 12.5425C24.4185 12.8708 24.6184 12.9731 25.014 12.9731C25.4097 12.9731 25.6097 12.8706 25.8547 12.5424C25.9817 12.3724 25.9837 12.3096 25.9837 8.60532C25.9837 4.8983 25.9816 4.83444 25.8458 4.40319C25.4715 3.21535 24.5364 2.27104 23.361 1.89396C22.937 1.75791 22.6981 1.72638 21.8777 1.69829L20.8999 1.66483L20.872 1.18172C20.8386 0.605412 20.7057 0.338307 20.3496 0.131315C19.8915 -0.134914 19.3506 0.012588 19.0236 0.49294C18.9071 0.664025 18.8828 0.784504 18.8828 1.19092V1.68209H16.4495H14.0162L13.9939 1.1973C13.976 0.808025 13.942 0.670906 13.821 0.501322C13.6215 0.221581 13.19 0.0301031 12.8861 0.0864643C12.3045 0.194245 12.0047 0.60291 12.0023 1.29113L12.0009 1.68209H9.56096H7.121V1.19092C7.121 0.784504 7.09672 0.664025 6.98023 0.49294C6.65296 0.0121501 6.11405 -0.134351 5.65077 0.131503ZM5.13062 4.20471C5.16434 4.84689 5.3058 5.11293 5.71996 5.31348C6.18543 5.53873 6.62875 5.41732 6.96071 4.97375C7.05987 4.84132 7.09697 4.67568 7.121 4.25825L7.15228 3.7151L9.57053 3.69871L11.9888 3.68238L12.0105 4.27289C12.0281 4.75199 12.0569 4.8968 12.1631 5.03993C12.6185 5.6539 13.3854 5.6539 13.8408 5.03993C13.9469 4.8968 13.9757 4.75199 13.9934 4.27289L14.0151 3.68238L16.4333 3.69871L18.8516 3.7151L18.8828 4.25825C18.9069 4.67568 18.944 4.84132 19.0431 4.97375C19.3751 5.41732 19.8184 5.53873 20.2839 5.31348C20.6997 5.11218 20.8394 4.84751 20.8736 4.19695L20.9014 3.66831L21.7534 3.69702C22.7907 3.73205 23.1147 3.8454 23.545 4.32394C23.9261 4.74774 24.013 5.07233 24.013 6.07226V6.87407H13.0019H1.99083V6.07226C1.99083 5.09329 2.07861 4.75324 2.43609 4.34714C2.89055 3.83101 3.27844 3.70177 4.40733 3.6907L5.10328 3.68382L5.13062 4.20471ZM19.6649 14.0092C18.0399 14.2269 16.4301 15.1269 15.4262 16.3792C12.4419 20.1019 14.2534 25.5816 18.8754 26.8128C19.4003 26.9526 19.6051 26.9733 20.4782 26.9746C21.363 26.9759 21.5497 26.9571 22.0864 26.8129C22.7519 26.6341 23.589 26.2663 24.0462 25.9517L24.3393 25.7501L26.4128 27.8166C28.1781 29.576 28.5258 29.8947 28.7522 29.961C29.4791 30.1739 30.1739 29.4792 29.961 28.7523C29.8947 28.526 29.5759 28.1784 27.8163 26.4133L25.7494 24.3402L25.9512 24.0471C26.2657 23.5899 26.6336 22.753 26.8125 22.0876C26.9567 21.5509 26.9755 21.3642 26.9742 20.4796C26.9729 19.5991 26.9528 19.404 26.8074 18.8576C26.0654 16.0686 23.6489 14.113 20.7823 13.9817C20.4086 13.9646 19.9058 13.977 19.6649 14.0092ZM21.8338 16.2129C22.0975 16.2969 22.5057 16.4725 22.7409 16.603C23.2548 16.8884 24.0776 17.6957 24.3799 18.2113C25.2485 19.6922 25.2046 21.5463 24.2674 22.9634C23.3548 24.3433 21.8168 25.1085 20.1881 24.9929C19.0818 24.9144 18.1688 24.4888 17.3499 23.67C16.7772 23.0974 16.4482 22.5726 16.2127 21.8558C16.0726 21.4293 16.0475 21.2399 16.0429 20.5734C16.0366 19.6487 16.1309 19.2259 16.5141 18.4602C17.1077 17.2744 18.2842 16.3828 19.6336 16.0964C20.235 15.9687 21.2331 16.0215 21.8338 16.2129Z" fill="#919D06"/>
</svg>
