<svg width="50" height="49" viewBox="0 0 50 49" fill="none" xmlns="http://www.w3.org/2000/svg">
<path fill-rule="evenodd" clip-rule="evenodd" d="M19.9498 2.90297L14.946 5.79978L14.9444 10.8046L14.9428 15.8093H15.6753H16.4078V11.2342V6.65904L20.6657 4.20314C23.0077 2.85229 24.9744 1.74792 25.0363 1.74889C25.0982 1.74987 27.0387 2.84252 29.3485 4.17706L33.5481 6.60357L33.597 11.182L33.6458 15.7605H34.3783H35.1108V10.7851V5.80974L30.081 2.9018C27.3146 1.30242 25.0293 -0.00331392 25.0024 6.31808e-06C24.9755 0.00342421 22.7019 1.30974 19.9498 2.90297ZM24.4652 3.12816C24.1967 3.29534 23.9644 3.4427 23.9491 3.45569C23.9337 3.46868 24.083 3.7509 24.2808 4.08292C24.5474 4.53047 24.681 4.6709 24.797 4.62559C24.8831 4.59209 24.9765 4.55694 25.0046 4.54746C25.0327 4.53799 25.9674 5.05312 27.0818 5.69217C28.1963 6.33112 29.1214 6.83648 29.1378 6.81519C29.3724 6.50943 29.7896 5.70154 29.7562 5.61756C29.7167 5.51844 25.4348 3.00023 25.0931 2.87524C25.0164 2.84711 24.7338 2.96098 24.4652 3.12816ZM22.3489 4.34962L21.7953 4.68926L22.1479 5.29335C22.3419 5.62557 22.5087 5.91023 22.5185 5.92595C22.555 5.98415 23.7327 5.25009 23.7327 5.16913C23.7327 5.00214 23.1032 3.99338 23.0041 4.00148C22.9483 4.00607 22.6534 4.16271 22.3489 4.34962ZM20.3854 5.49822C20.0789 5.67205 19.8018 5.84031 19.77 5.87224C19.6984 5.94382 20.3323 7.11538 20.4436 7.11694C20.5251 7.11811 21.3385 6.67144 21.5577 6.50504C21.6494 6.43541 21.6163 6.30651 21.4178 5.96032C20.9277 5.10595 21.0116 5.14345 20.3854 5.49822ZM17.6177 7.37533C17.4152 7.73724 17.2909 8.04807 17.3415 8.06584C17.392 8.08372 18.9715 8.98809 20.8516 10.0756L24.2699 12.0529L24.2954 16.1284L24.3209 20.2038H25.0523H25.7837L25.7843 16.1267L25.785 12.0496L26.0529 11.8955C28.7266 10.3585 32.6787 8.0678 32.7094 8.03753C32.7632 7.9845 32.5867 7.60638 32.2859 7.12983L32.0404 6.74097L28.6435 8.70284C26.7751 9.78182 25.1772 10.6828 25.0924 10.7049C25.0076 10.7272 24.4143 10.4412 23.774 10.0693C23.1336 9.69755 21.7306 8.88663 20.6563 8.2673C19.582 7.64798 18.5416 7.04585 18.3443 6.92925L17.9858 6.71724L17.6177 7.37533ZM29.7366 14.3161C29.4157 14.5042 29.1363 14.674 29.1157 14.6934C29.0951 14.7129 29.4153 15.3215 29.8274 16.0461L30.5765 17.3636L30.2853 17.7655C29.8786 18.3268 29.7196 19.0935 29.8657 19.7894C30.0068 20.4624 30.9124 22.0805 31.417 22.5611C31.975 23.0927 32.3774 23.2583 33.2341 23.3091C33.8462 23.3454 34.0205 23.3915 34.1284 23.5454C34.2466 23.7142 34.2307 23.7842 33.9928 24.143C33.632 24.6872 33.4993 25.1115 33.4993 25.7212C33.4993 26.3649 33.6145 26.6897 34.2087 27.721C34.8819 28.8893 35.0651 29.1052 35.6606 29.4315C36.0936 29.6687 36.3129 29.7222 36.9176 29.738L37.6501 29.7572L38.3564 30.9618C38.7448 31.6243 39.08 32.2103 39.1011 32.264C39.1336 32.3465 40.4336 31.7522 40.4336 31.655C40.4336 31.6366 40.1001 31.0415 39.6927 30.3324C38.9672 29.0702 38.9552 29.0382 39.1125 28.7983C39.7585 27.8132 39.8702 26.7695 39.4248 25.8826C38.3022 23.6479 37.5636 23.0052 36.1335 23.0186C35.5296 23.0243 35.4705 23.0061 35.3692 22.7838C35.2746 22.5763 35.2985 22.4889 35.542 22.1527C35.6975 21.9382 35.8777 21.5418 35.9424 21.272C36.1391 20.452 36.006 19.8801 35.3445 18.7034C34.4193 17.0577 33.9167 16.6748 32.5941 16.608L31.8355 16.5698L31.4326 15.8721C31.2111 15.4884 30.8701 14.9045 30.675 14.5743L30.3202 13.974L29.7366 14.3161ZM18.9332 15.3208L18.2146 16.5899L17.5257 16.5903C16.9883 16.5905 16.7297 16.6439 16.35 16.8331C15.6791 17.1674 15.3463 17.5474 14.6831 18.7359L14.1127 19.7584V20.6489C14.1127 21.4878 14.1314 21.5696 14.4374 22.0617C14.7061 22.4938 14.7448 22.6223 14.6614 22.8053C14.5705 23.0047 14.4935 23.0263 13.8778 23.0243C13.1199 23.0219 12.5701 23.2135 12.0335 23.6669C11.6661 23.9774 10.7077 25.553 10.4802 26.2203C10.2035 27.0323 10.4155 28.1691 10.9536 28.7586C11.1401 28.963 11.1373 28.9706 10.405 30.2306C10.0002 30.9273 9.66889 31.5447 9.66889 31.6027C9.66889 31.707 10.658 32.3129 10.8282 32.3129C10.8765 32.3129 11.2472 31.7307 11.6518 31.0189L12.3875 29.725L12.8768 29.7584C13.5554 29.8046 14.3315 29.5562 14.8236 29.135C15.335 28.6972 16.3592 26.9142 16.5064 26.2053C16.6565 25.4821 16.4126 24.5252 15.9411 23.9875C15.8206 23.8501 15.8128 23.7678 15.9019 23.5724C16.0047 23.347 16.0634 23.3287 16.6831 23.3287C17.2351 23.3287 17.4586 23.2761 17.9509 23.0301C18.6702 22.6707 18.8723 22.442 19.5895 21.1755C20.0604 20.3439 20.1494 20.1068 20.1926 19.5689C20.2531 18.8144 20.0999 18.1954 19.7297 17.699L19.4631 17.3414L20.1818 16.091C20.5771 15.4032 20.9004 14.798 20.9004 14.7462C20.9004 14.6453 19.9183 14.0516 19.7515 14.0516C19.6966 14.0516 19.3284 14.6226 18.9332 15.3208ZM17.1725 18.4034C16.9406 18.7966 16.9371 18.7911 17.6871 19.2113L18.2341 19.5176L18.4175 19.1771C18.6591 18.7284 18.7518 18.7473 18.7518 19.2454C18.7518 19.7799 17.8375 21.4371 17.4015 21.693C16.9437 21.9615 16.8517 21.9065 17.0885 21.5053C17.2563 21.2208 17.2734 21.1306 17.1714 21.0692C17.1006 21.0266 16.8156 20.8596 16.538 20.6981L16.0334 20.4043L15.8055 20.7679L15.5777 21.1315L15.5483 20.6757C15.5226 20.278 15.584 20.1052 16.0302 19.3205C16.3538 18.7514 16.6516 18.3541 16.841 18.2387C17.3042 17.9562 17.4065 18.0069 17.1725 18.4034ZM33.2977 18.3093C33.6592 18.6134 34.5705 20.2495 34.5706 20.5944C34.5706 20.7287 34.5318 20.8998 34.4844 20.9748C34.4177 21.0799 34.3616 21.0408 34.2391 20.8039C34.1518 20.635 34.0318 20.4967 33.9726 20.4967C33.7792 20.4967 32.8155 21.094 32.8188 21.2118C32.8204 21.2751 32.8864 21.4121 32.9653 21.5163C33.1693 21.786 33.1429 21.8874 32.8889 21.8104C32.5157 21.6973 32.2311 21.3614 31.7342 20.4479C31.2798 19.6126 31.1305 19.0215 31.3411 18.8914C31.3895 18.8614 31.5191 18.9893 31.629 19.1756L31.8289 19.5142L32.464 19.151L33.0993 18.788L32.9086 18.4649C32.8037 18.2872 32.718 18.1224 32.718 18.0986C32.718 17.9723 33.0335 18.0869 33.2977 18.3093ZM21.3393 20.3157C21.1459 20.6457 21.0229 20.9478 21.0661 20.9868C21.2352 21.1396 24.9255 23.231 25.026 23.231C25.1498 23.231 28.6953 21.2123 28.8981 21.0265C29.0126 20.9215 28.9842 20.8138 28.7152 20.3333C28.5399 20.0204 28.3826 19.7486 28.3655 19.7294C28.3484 19.7101 27.6191 20.1056 26.7447 20.6082C25.8704 21.1109 25.1228 21.5361 25.0835 21.553C25.044 21.5701 24.2842 21.1636 23.3947 20.6497C22.5054 20.1359 21.7582 19.7155 21.7344 19.7155C21.7106 19.7155 21.5328 19.9856 21.3393 20.3157ZM13.4835 24.8546C13.3686 25.0494 13.2874 25.2186 13.3029 25.2306C13.3186 25.2427 13.6035 25.41 13.9359 25.6025L14.5406 25.9524L14.754 25.5927C14.9631 25.2403 14.9691 25.2375 15.0526 25.4608C15.1753 25.7885 15.0727 26.0986 14.5189 27.0764C14.2103 27.6209 13.9164 28.0111 13.7284 28.1258C13.2651 28.4083 13.1629 28.3575 13.3968 27.961C13.6304 27.5652 13.629 27.5631 12.8831 27.1475L12.3371 26.8433L12.156 27.1796C11.938 27.5846 11.8175 27.5434 11.8175 27.0641C11.8175 26.5809 12.7328 24.9258 13.136 24.6799C13.6109 24.3904 13.724 24.4472 13.4835 24.8546ZM36.9451 24.6965C37.2152 24.909 38.0624 26.3112 38.1906 26.7581C38.234 26.9097 38.2376 27.1529 38.1987 27.2987L38.1278 27.5638L37.904 27.2018L37.6803 26.8398L37.3722 27.0237C37.2028 27.1249 36.9243 27.2874 36.7534 27.3849L36.4427 27.562L36.6377 27.9441L36.8327 28.3262L36.6065 28.2576C36.2382 28.1458 35.9589 27.8265 35.4474 26.9328C35.0826 26.2953 34.9643 25.9899 34.9643 25.6852C34.9643 25.1932 35.0703 25.173 35.3107 25.6194L35.4925 25.9569L36.0341 25.6535C36.7629 25.2453 36.7606 25.2485 36.5841 24.9073C36.4989 24.7426 36.4293 24.5837 36.4293 24.5542C36.4293 24.4346 36.7109 24.5124 36.9451 24.6965ZM4.3217 28.9749L0 31.4797V37.3057V43.1319L5.01435 46.023C7.77233 47.6131 10.0604 48.9141 10.0992 48.9141C10.2342 48.9141 19.3378 43.6205 19.3378 43.5421C19.3378 43.4073 18.7151 42.3712 18.6342 42.3712C18.5921 42.3712 16.7445 43.419 14.5283 44.6994C12.3122 45.9799 10.4043 47.0779 10.2886 47.1392C10.102 47.2382 9.59184 46.9699 5.79597 44.7767L1.51382 42.3025L1.48852 37.3183L1.46323 32.3343L5.46937 30.0203L9.47542 27.7064L9.13701 27.1059C8.95086 26.7756 8.76363 26.4974 8.72095 26.4877C8.67827 26.478 6.69869 27.5972 4.3217 28.9749ZM40.9296 27.1521C40.6364 27.6854 40.6166 27.7656 40.7536 27.8657C40.8385 27.9278 42.6242 28.9648 44.722 30.1701L48.5361 32.3617L48.5379 37.3459L48.5398 42.33L44.3263 44.7676C42.0089 46.1083 40.0526 47.2195 39.9788 47.2369C39.9052 47.2544 37.9706 46.187 35.68 44.8648C33.3892 43.5426 31.4846 42.4957 31.4474 42.5381C31.4103 42.5806 31.2406 42.8641 31.0703 43.168L30.7605 43.7206L31.8614 44.3582C32.4668 44.7088 34.5223 45.8966 36.4293 46.9979L39.8964 49L40.5463 48.6397C40.9037 48.4415 43.1771 47.1368 45.5981 45.7403L50 43.2013L49.978 37.3478L49.956 31.4942L45.6676 29.0228C43.309 27.6635 41.3524 26.5513 41.3196 26.5513C41.2868 26.5513 41.1114 26.8217 40.9296 27.1521ZM15.8819 29.8351C15.6794 30.187 15.5281 30.4864 15.5457 30.5004C15.5633 30.5145 16.2919 30.9342 17.1647 31.4333L18.7518 32.3407V33.9869V35.6331H19.4843H20.2168V33.5837V31.5344L19.8505 31.3C19.6491 31.171 18.891 30.7252 18.1658 30.3092C17.4406 29.8932 16.7129 29.4723 16.5487 29.374L16.2499 29.1952L15.8819 29.8351ZM31.715 30.4286L29.784 31.5531L29.8105 33.5199L29.8368 35.4866L30.5425 35.5152L31.2481 35.5439L31.275 33.9644L31.3018 32.3849L32.8623 31.4764C33.7207 30.9766 34.4381 30.5222 34.4566 30.4666C34.5028 30.328 33.8685 29.2833 33.745 29.2949C33.6904 29.2999 32.7769 29.8101 31.715 30.4286ZM2.69342 33.0206C2.38802 33.5599 2.36546 33.6446 2.50043 33.7455C2.58443 33.8084 4.16554 34.7313 6.01405 35.7963L9.37492 37.7327L9.37541 41.814L9.3759 45.8954L10.084 45.8667L10.792 45.838L10.8175 41.7812L10.843 37.7245L14.3518 35.6971L17.8606 33.6696L17.5103 33.0645C17.3176 32.7316 17.1502 32.4468 17.1385 32.4314C17.1266 32.416 15.5472 33.3091 13.6286 34.416C11.7101 35.523 10.0787 36.4052 10.0034 36.3763C9.9281 36.3473 8.42659 35.4934 6.66675 34.4786C4.90701 33.4639 3.37083 32.5834 3.25324 32.5218C3.05508 32.4181 3.01386 32.4549 2.69342 33.0206ZM32.4899 33.1185L32.1463 33.7289L32.7008 34.0434C33.0057 34.2164 34.5736 35.1194 36.1851 36.0503L39.1151 37.7425L39.1406 41.8147L39.1661 45.8868H39.8975H40.6289V41.8431V37.7996L41.9718 37.019C42.7104 36.5898 44.2816 35.6805 45.4633 34.9984C46.6451 34.3161 47.6277 33.7431 47.6469 33.7248C47.6662 33.7065 47.5184 33.4224 47.3187 33.0935C47.0752 32.6928 46.9094 32.5133 46.8159 32.5491C46.7392 32.5786 45.1786 33.4676 43.348 34.5247C41.5173 35.5819 39.9698 36.4462 39.9091 36.4453C39.8484 36.4444 38.2648 35.5582 36.39 34.4759C34.5153 33.3937 32.9481 32.5082 32.9074 32.5082C32.8667 32.5082 32.6789 32.7829 32.4899 33.1185ZM2.44164 36.0725V36.805H3.17413H3.90662V36.0725V35.3401H3.17413H2.44164V36.0725ZM46.0982 36.3655V37.0979H46.8307H47.5631V36.3655V35.6331H46.8307H46.0982V36.3655ZM20.9493 36.7003C19.836 36.7705 19.3939 36.9393 18.847 37.5027C18.6531 37.7025 18.4138 38.0448 18.3152 38.2632L18.1361 38.6604H16.5883H15.0405V39.3928V40.1252L16.5787 40.1254L18.117 40.1257L18.3986 40.6647C18.6973 41.2362 19.1772 41.6804 19.7931 41.9555C20.0902 42.0881 20.4517 42.1225 21.5353 42.121C22.7517 42.1193 22.9589 42.094 23.4131 41.8923C23.9999 41.6316 24.6276 41.0002 24.815 40.4818C24.9258 40.1754 24.9868 40.1252 25.2481 40.1252C25.5015 40.1252 25.5804 40.1843 25.7209 40.4788C26.0242 41.1148 26.3786 41.4815 26.9806 41.7824C27.5533 42.0685 27.6171 42.0783 28.9073 42.0783C30.5484 42.0783 31 41.9499 31.6521 41.2979C31.9023 41.0478 32.1653 40.6816 32.2368 40.4842L32.3666 40.1252H33.9096H35.4526V39.3928V38.6604H33.9405H32.4283L32.1901 38.1904C31.9177 37.6529 31.329 37.0826 30.7912 36.8352C30.4968 36.6998 30.1386 36.665 29.0067 36.6621C27.6484 36.6587 27.5677 36.6697 27.0315 36.933C26.4178 37.2343 25.8494 37.8235 25.6814 38.3328C25.5917 38.6045 25.5248 38.6604 25.2894 38.6604C25.0493 38.6604 24.9693 38.5891 24.7686 38.1965C24.3097 37.2989 23.5049 36.7707 22.4631 36.6836C22.1677 36.6589 21.4864 36.6664 20.9493 36.7003ZM2.44164 38.5139V39.2463H3.17413H3.90662V38.5139V37.7815H3.17413H2.44164V38.5139ZM30.2062 38.2058C30.3791 38.2781 30.5809 38.4099 30.6545 38.4988C30.776 38.6451 30.7461 38.6604 30.3371 38.6604H29.8857V39.3874V40.1145L30.3496 40.1442L30.8135 40.174L30.4717 40.3934C30.1653 40.59 30.0065 40.6128 28.9389 40.6131C27.8115 40.6135 27.7333 40.6006 27.4739 40.3725L27.1999 40.1313L27.6149 40.1283L28.03 40.1252V39.3928V38.6604H27.6394C27.4245 38.6604 27.2487 38.6215 27.2487 38.574C27.2487 38.4669 27.6304 38.211 27.8876 38.1456C28.3141 38.0373 29.9017 38.0786 30.2062 38.2058ZM46.0982 38.8069V39.5393H46.8307H47.5631V38.8069V38.0745H46.8307H46.0982V38.8069ZM23.1169 38.4131L23.3909 38.6542L22.927 38.6573L22.4631 38.6604V39.3928V40.1252H22.9243H23.3854L23.1832 40.3274C22.9259 40.5848 22.4012 40.7059 21.5353 40.7083C20.7183 40.7103 20.2115 40.5845 19.9721 40.3199C19.7987 40.1283 19.8024 40.1252 20.2016 40.1252H20.6074V39.3928V38.6604L20.1924 38.6573L19.7773 38.6542L20.0513 38.4131C20.3124 38.1835 20.3849 38.1721 21.5841 38.1721C22.7833 38.1721 22.8558 38.1835 23.1169 38.4131ZM2.44467 40.9797L2.4476 41.7365L5.12617 43.2671L7.80475 44.7978L8.15967 44.1631C8.355 43.814 8.49974 43.5155 8.48138 43.4997C8.46312 43.484 7.4262 42.8847 6.17735 42.1679C3.93993 40.8838 3.90662 40.8599 3.90662 40.5437V40.2228H3.17413H2.44164L2.44467 40.9797ZM46.0806 40.7301C46.0566 40.895 45.5826 41.2142 44.0237 42.1155L41.9982 43.2866L42.3009 43.8299C42.4674 44.1287 42.6398 44.4119 42.6841 44.4594C42.729 44.5076 43.8203 43.9342 45.1638 43.1563L47.5631 41.7671V41.1414V40.5158H46.8375C46.1649 40.5158 46.1095 40.5315 46.0806 40.7301Z" fill="#FF5353"/>
</svg>
