<svg width="30" height="30" viewBox="0 0 30 30" fill="none" xmlns="http://www.w3.org/2000/svg">
<path fill-rule="evenodd" clip-rule="evenodd" d="M8.20576 0.043787C7.5218 0.180002 6.85869 0.707257 6.55564 1.35588C6.31752 1.86547 6.26391 2.32242 6.28289 3.67988L6.29883 4.82218L6.78223 4.8392L7.26562 4.85628V4.35502V3.85383H15H22.7344V4.35502V4.85628L23.2178 4.8392L23.7012 4.82218L23.6968 3.38432C23.6927 2.04934 23.6832 1.92293 23.5639 1.61751C23.288 0.911199 22.8076 0.412643 22.1375 0.137571L21.8262 0.00974777L15.1465 0.000768468C11.4623 -0.00416134 8.34973 0.0151471 8.20576 0.043787ZM21.8848 1.08791C22.4125 1.32935 22.6897 1.78254 22.7238 2.45998L22.7468 2.91482H15H7.2532L7.27617 2.45998C7.31033 1.78254 7.58754 1.32935 8.11523 1.08791C8.33783 0.986085 8.68412 0.980686 15 0.980686C21.3159 0.980686 21.6622 0.986085 21.8848 1.08791ZM0 14.0362V22.2819H15H30V14.0362V5.79054H15H0V14.0362ZM29.0039 14.0362V21.2842H15H0.996094V14.0362V6.78824H15H29.0039V14.0362ZM7.41779 7.79005C5.95793 7.99229 4.68369 8.65042 3.66211 9.72969C2.32605 11.1412 1.71504 13.0945 2.02014 14.9787C2.28861 16.6366 3.13881 18.0657 4.45312 19.0681C4.92668 19.4293 5.98078 19.9495 6.55875 20.1074C8.09648 20.5274 9.7715 20.3345 11.1914 19.5741C14.2382 17.9422 15.3935 14.1187 13.7603 11.0725C12.8785 9.42768 11.3262 8.26266 9.49219 7.8691C8.98746 7.76082 7.92182 7.72021 7.41779 7.79005ZM24.1992 10.1628V12.5984H23.2324H22.2656V11.1312V9.66396H20.332H18.3984V10.6323V11.6007H16.9336H15.4688V15.9729V20.3452H21.7676H28.0664V14.0362V7.72725H26.1328H24.1992V10.1628ZM7.73438 9.95042V11.1759L7.4635 11.2443C6.79506 11.4128 6.02648 12.0215 5.69455 12.6453C5.13211 13.7022 5.251 15.0189 5.98441 15.8556C6.12516 16.0161 6.15609 16.0911 6.11637 16.175C6.00076 16.419 4.82936 18.0527 4.76877 18.0545C4.5883 18.0597 3.79225 17.0395 3.46482 16.3834C3.10676 15.666 2.98189 15.1565 2.94604 14.2662C2.89787 13.0722 3.12803 12.1756 3.73559 11.1899C4.0759 10.6378 4.88977 9.8297 5.42543 9.51208C6.08326 9.12204 7.0776 8.77442 7.66113 8.73047C7.71756 8.72624 7.73438 9.00624 7.73438 9.95042ZM9.1152 8.78663C11.1246 9.1431 12.7683 10.6144 13.3216 12.5516C13.398 12.8195 13.4749 13.1507 13.4923 13.288L13.524 13.5374H12.3074H11.0907L10.9614 13.1412C10.7947 12.6309 10.556 12.2613 10.1573 11.8964C9.83566 11.6019 9.2741 11.295 8.9209 11.2206L8.73047 11.1805V9.95277C8.73047 9.27744 8.73879 8.72495 8.74898 8.72495C8.75918 8.72495 8.924 8.75271 9.1152 8.78663ZM27.0703 14.0362V19.3475H26.1035H25.1367V14.0362V8.72495H26.1035H27.0703V14.0362ZM21.2695 15.0046V19.3475H20.3027H19.3359V15.0046V10.6617H20.3027H21.2695V15.0046ZM9.11936 12.3356C9.7374 12.6385 10.1367 13.306 10.1367 14.0362C10.1367 15.4868 8.62617 16.3997 7.32422 15.736C6.45381 15.2923 6.06281 14.1591 6.47115 13.2635C6.9409 12.2332 8.08922 11.8308 9.11936 12.3356ZM18.3984 15.9729V19.3475H17.4316H16.4648V15.9729V12.5984H17.4316H18.3984V15.9729ZM24.1992 16.4425V19.3475H23.2324H22.2656V16.4425V13.5374H23.2324H24.1992V16.4425ZM13.4923 14.7845C13.4404 15.1933 13.1953 15.9825 12.9993 16.3719C12.3039 17.7533 11.1646 18.7075 9.68537 19.1477C9.06105 19.3334 7.949 19.4035 7.36939 19.2936C6.59027 19.1459 5.59629 18.7443 5.65172 18.5995C5.66912 18.554 5.97521 18.0995 6.33182 17.5894L6.98021 16.662L7.26439 16.7702C8.19938 17.126 9.38643 16.8818 10.1589 16.1747C10.5561 15.8111 10.7949 15.441 10.9614 14.9312L11.0907 14.5351H12.3074H13.524L13.4923 14.7845ZM6.30861 23.2601C6.28711 23.2816 6.26953 23.5061 6.26953 23.7589V24.2186H6.76758H7.26562V23.7198V23.2209H6.80666C6.55418 23.2209 6.33006 23.2386 6.30861 23.2601ZM22.7344 23.7174V24.2186H23.2348H23.7352L23.7182 23.7345L23.7012 23.2503L23.2178 23.2333L22.7344 23.2162V23.7174ZM6.29027 25.2469C6.27141 25.2961 6.26801 25.9498 6.28266 26.6996C6.30662 27.9216 6.32262 28.0968 6.43699 28.3917C6.62988 28.889 6.89906 29.255 7.27664 29.5335C7.95732 30.0354 7.36236 29.9994 15 29.9994C22.6376 29.9994 22.0427 30.0354 22.7234 29.5335C23.1004 29.2554 23.3692 28.8903 23.5639 28.3917C23.6832 28.0863 23.6927 27.9598 23.6968 26.6249L23.7012 25.187L15.0129 25.1722C7.2682 25.1589 6.32086 25.167 6.29027 25.2469ZM22.7238 27.0797C22.7087 27.8246 22.6846 28.0451 22.5998 28.2158C22.4552 28.5066 22.1648 28.7932 21.8848 28.9213C21.6622 29.0231 21.3159 29.0285 15 29.0285C8.68412 29.0285 8.33783 29.0231 8.11523 28.9213C7.83516 28.7932 7.54477 28.5066 7.40016 28.2158C7.31537 28.0451 7.29129 27.8246 7.27623 27.0797L7.25754 26.1554H15H22.7425L22.7238 27.0797ZM12.5977 27.5932V28.0921H15H17.4023V27.5932V27.0944H15H12.5977V27.5932Z" fill="#100E65"/>
</svg>
