<svg width="44" height="50" viewBox="0 0 44 50" fill="none" xmlns="http://www.w3.org/2000/svg">
<path fill-rule="evenodd" clip-rule="evenodd" d="M16.6114 0.160837C16.1811 0.371659 15.914 0.726383 15.8403 1.18486L15.7798 1.56097H14.5772C13.9159 1.56097 12.9963 1.62662 12.534 1.70673C9.63316 2.20975 7.08038 4.07618 5.78488 6.64101C5.38544 7.43184 4.90023 8.85132 4.90023 9.2292C4.90023 9.50586 4.83627 9.551 4.06292 9.82005C2.54746 10.3473 1.20913 11.5979 0.53284 13.1186C-0.0102347 14.3396 -0.0231039 14.5661 0.0110838 22.2737C0.0400648 28.8092 0.0562745 29.3961 0.221319 29.892C0.846915 31.772 2.20195 33.1896 4.05909 33.9073L4.75286 34.1752L4.92361 35.3307C5.31686 37.9919 6.36146 40.588 7.92417 42.7875C8.77061 43.9788 10.7768 45.9736 11.9736 46.8138C14.7492 48.7625 17.904 49.834 21.3064 49.9836C27.276 50.2462 32.9974 47.3357 36.3655 42.3226C37.7852 40.2097 38.7273 37.7067 39.1107 35.0296L39.2353 34.1592L39.7499 33.9858C41.3506 33.4463 42.526 32.429 43.2486 30.9573C44.0037 29.4193 44 29.4652 44 21.8323C44 14.3856 43.9896 14.2409 43.3588 12.9422C42.6537 11.4904 41.4827 10.4147 39.9855 9.8433C39.5336 9.67087 39.1521 9.48427 39.1378 9.42869C39.1234 9.3731 39.0385 8.99786 38.949 8.59488C38.7552 7.72228 38.077 6.26392 37.4781 5.43245C36.5197 4.10178 34.8696 2.81809 33.3865 2.24932C32.1144 1.76154 31.4892 1.64685 29.7903 1.5896L28.2044 1.53616L28.1459 1.17245C28.0729 0.718958 27.7979 0.36316 27.3606 0.156832C27.0629 0.0163494 26.4376 -0.00182153 21.9793 0.000132327C17.5277 0.00208619 16.8967 0.020941 16.6114 0.160837ZM25.236 6.15255V9.37642H21.9941H18.7522V6.15255V2.92868H21.9941H25.236V6.15255ZM15.8049 6.93409V9.37642H11.8309H7.85688L7.98812 8.96123C8.53051 7.24642 9.60487 6.00992 11.2367 5.22222C12.3451 4.68725 13.1833 4.50984 14.6506 4.49978L15.8049 4.49177V6.93409ZM31.7199 4.73737C33.0039 5.13459 34.1189 5.90802 34.9166 6.955C35.3566 7.53237 35.9499 8.666 36.069 9.15661L36.1224 9.37642H32.1528H28.1833V6.921V4.46559L29.6814 4.51795C30.6867 4.55302 31.3573 4.62522 31.7199 4.73737ZM38.9196 12.5374C39.57 12.7883 40.3948 13.5654 40.7292 14.2425L41.0037 14.7984L41.0315 21.6333C41.0587 28.347 41.0555 28.4802 40.852 29.1465C40.6785 29.7148 40.5543 29.9148 40.0867 30.3798C39.689 30.7753 39.3629 30.9965 38.952 31.1494C38.3812 31.3618 38.324 31.3636 33.1566 31.3362L27.9377 31.3085L27.3973 31.0532C27.1002 30.9129 26.5131 30.5116 26.0928 30.1617C25.1458 29.3731 24.3911 28.967 23.4092 28.7172C22.446 28.4723 21.5422 28.4723 20.579 28.7172C19.5971 28.967 18.8424 29.3731 17.8954 30.1617C17.4751 30.5116 16.888 30.9129 16.5909 31.0532L16.0505 31.3085L10.8316 31.3362C5.74519 31.3631 5.59881 31.3586 5.06468 31.1599C4.3435 30.8917 3.60561 30.2216 3.25961 29.5209L2.98453 28.9639V21.8811C2.98453 14.8103 2.98493 14.7976 3.1986 14.3376C3.64108 13.3852 4.61886 12.6081 5.62789 12.4071C5.84903 12.363 13.3244 12.3335 22.2397 12.3415C37.7767 12.3555 38.469 12.3636 38.9196 12.5374ZM23.0093 31.6528C23.3016 31.7615 23.7902 32.0676 24.0952 32.3329C24.8566 32.9956 25.4307 33.3761 26.1762 33.7122C27.3888 34.2589 27.6607 34.2851 32.1419 34.2867L36.2479 34.2882L36.1872 34.6545C35.6796 37.7216 34.7338 39.8491 32.9193 42.0059C30.8611 44.4523 28.0545 46.1159 24.8124 46.8107C23.3478 47.1247 20.6136 47.1199 19.1481 46.8008C16.3006 46.1807 13.8728 44.8719 11.8768 42.8808C9.62806 40.6378 8.3302 38.0355 7.79823 34.7034L7.73191 34.2882L11.8421 34.2867C16.3279 34.2851 16.5992 34.259 17.812 33.7122C18.5576 33.376 19.1316 32.9956 19.8934 32.3326C20.8636 31.4883 21.9375 31.254 23.0093 31.6528ZM16.5163 37.9023C15.5898 38.464 15.5779 39.6962 16.4926 40.3584C17.1515 40.8354 19.9264 41.3209 21.9941 41.3209C24.0618 41.3209 26.8367 40.8354 27.4956 40.3584C28.4105 39.6961 28.3988 38.4752 27.4719 37.8965C27.0848 37.6549 26.453 37.6827 25.3508 37.9899C24.1835 38.3154 23.0632 38.4215 21.4047 38.3639C20.1386 38.32 19.6832 38.2602 18.703 38.0095C17.3241 37.6568 16.9513 37.6385 16.5163 37.9023Z" fill="#0092FF"/>
</svg>
