<svg width="68" height="50" viewBox="0 0 68 50" fill="none" xmlns="http://www.w3.org/2000/svg">
<path fill-rule="evenodd" clip-rule="evenodd" d="M43.6289 0.146145C43.2637 0.237281 42.8251 0.387622 42.6543 0.480487C42.0549 0.806049 41.2806 1.61456 40.9291 2.28192L40.5742 2.95553L40.5341 7.08778L40.4941 11.2202L37.3134 14.4043C34.5436 17.1773 34.1328 17.6411 34.1328 17.9964C34.1328 18.2209 34.2175 18.5206 34.3211 18.6627C34.495 18.9013 34.7353 18.926 37.474 18.9875L40.4385 19.054L40.5263 19.6699C40.7378 21.1544 41.7669 22.4686 43.1127 22.973C43.8402 23.2457 43.9981 23.249 54.4311 23.2139L65.0117 23.1784L65.6094 22.8679C66.4505 22.4308 67.2677 21.5921 67.6271 20.7968L67.9336 20.1184L67.9756 12.0691C68.0061 6.21527 67.9745 3.82032 67.8599 3.28814C67.5737 1.95995 66.6577 0.888403 65.2773 0.267481C64.7826 0.0448966 64.0435 0.0269357 54.5195 0.00458413C46.7404 -0.0136431 44.134 0.0202839 43.6289 0.146145ZM64.8178 2.26409C65.2149 2.47444 65.4929 2.7537 65.705 3.15536L66.0138 3.74036L65.9775 11.8199C65.9419 19.7808 65.9373 19.905 65.6636 20.275C65.5107 20.4816 65.1881 20.7852 64.9466 20.9499L64.5076 21.2492H54.2855C44.1562 21.2492 44.0591 21.2467 43.5686 20.9706C42.8355 20.5578 42.5826 20.0355 42.4936 18.7503C42.3781 17.0808 42.3588 17.0688 39.6885 17.0156L37.5477 16.9729L39.9574 14.5462C41.2828 13.2113 42.3785 12.0931 42.3924 12.061C42.4062 12.0288 42.451 10.046 42.492 7.65481C42.5764 2.72629 42.5499 2.8447 43.698 2.25704L44.2829 1.95769H54.2612H64.2394L64.8178 2.26409ZM7.53498 2.23549C6.27167 2.53364 5.23348 3.39138 4.66437 4.60715L4.31641 5.35034L4.28134 24.0099L4.24641 42.6695H2.90501C0.5525 42.6695 0 43.2629 0 45.7894C0 46.581 0.0726484 47.4751 0.1615 47.7763C0.397375 48.5761 1.48498 49.6284 2.28398 49.8299C3.18298 50.0567 64.817 50.0567 65.716 49.8299C66.515 49.6284 67.6026 48.5761 67.8385 47.7763C67.9274 47.4751 68 46.581 68 45.7894C68 43.2624 67.4476 42.6695 65.0933 42.6695H63.75V34.5052C63.75 26.447 63.7464 26.3362 63.4747 25.9903C63.1191 25.5374 62.4212 25.5088 62.0286 25.931C61.7622 26.2174 61.7578 26.3536 61.7578 34.4459V42.6695H36.5811C19.0886 42.6695 11.3241 42.7126 11.1411 42.8107C10.5041 43.1522 10.564 44.2074 11.2379 44.5148C11.4718 44.6217 14.0652 44.6652 20.1937 44.6652C27.7732 44.6652 28.8203 44.6894 28.8203 44.8648C28.8203 44.9745 28.9398 45.1841 29.0859 45.3304C29.3415 45.5864 29.5286 45.5965 34 45.5965C38.4714 45.5965 38.6585 45.5864 38.9141 45.3304C39.0602 45.1841 39.1797 44.9745 39.1797 44.8648C39.1797 44.6887 40.7587 44.6652 52.5938 44.6652H66.0078V45.9217C66.0078 47.0581 65.9771 47.2139 65.6873 47.5515L65.3667 47.9248H34H2.63327L2.31266 47.5515C2.02313 47.2142 1.99219 47.0577 1.99219 45.9289V44.6796L4.92602 44.6391C7.82651 44.5991 7.86277 44.5951 8.11352 44.2845C8.44223 43.8776 8.43505 43.457 8.09187 43.0201C7.84988 42.7118 7.72172 42.6695 7.02937 42.6695H6.24219V24.305C6.24219 9.00709 6.27273 5.86895 6.42507 5.51239C6.6462 4.99458 7.23616 4.42049 7.74496 4.22797C8.00089 4.13098 12.7654 4.08641 22.8524 4.08641C37.4089 4.08641 37.5891 4.08322 37.8516 3.82032C38.2832 3.38792 38.2513 2.82248 37.7709 2.39008L37.4383 2.09073L22.7367 2.10404C14.6508 2.11149 7.81017 2.17056 7.53498 2.23549ZM46.4844 5.37815C45.7766 5.63891 45.5897 6.48388 46.1276 6.99025C46.402 7.24836 46.5815 7.27949 47.7966 7.27949C48.5454 7.27949 49.2765 7.21603 49.4214 7.13833C50.0368 6.80838 49.9772 5.73191 49.327 5.43522C48.9944 5.28342 46.8581 5.24058 46.4844 5.37815ZM52.7684 5.41779C52.1539 5.66579 52.0087 6.52526 52.5026 6.99025C52.8061 7.27577 52.8696 7.27949 57.4228 7.27949H62.0355L62.3614 6.95287C62.5407 6.77326 62.6875 6.5367 62.6875 6.42707C62.6875 6.05322 62.3932 5.57958 62.069 5.4315C61.6757 5.25202 53.21 5.23951 52.7684 5.41779ZM9.07959 6.50278C8.92354 6.57901 8.72937 6.78776 8.64795 6.96671C8.43505 7.43489 8.43811 39.3278 8.65114 39.7961C8.73428 39.9789 8.98224 40.1913 9.20218 40.268C9.76185 40.4635 58.2382 40.4635 58.7978 40.268C59.0178 40.1913 59.2657 39.9789 59.3489 39.7961C59.4552 39.5621 59.5 37.5233 59.5 32.9024C59.5 26.4657 59.4948 26.3342 59.2247 25.9903C58.8691 25.5374 58.1712 25.5088 57.7786 25.931C57.5143 26.2152 57.5078 26.3672 57.5078 32.3171V38.4121H47.8789H38.25L38.2473 36.7157C38.2424 33.6292 37.8513 32.3014 36.5968 31.1129C35.7554 30.3159 35.4273 30.1446 32.7638 29.1129C31.6091 28.6656 30.4951 28.2118 30.288 28.1045C29.7948 27.8491 29.6172 27.2981 29.6172 26.0234V24.9834L30.2138 24.3105C31.4499 22.9163 31.7422 21.9216 31.7422 19.1104C31.7422 17.4082 31.6937 16.8627 31.4813 16.1742C30.0911 11.668 24.3885 10.2613 21.0537 13.6021C19.6942 14.9638 19.1327 16.6122 19.1285 19.2536C19.1249 21.4374 19.6115 22.9844 20.7186 24.3091L21.25 24.945V26.2669C21.25 27.466 21.2222 27.6152 20.9512 27.8701C20.7867 28.0246 19.6529 28.5421 18.4313 29.02C17.2097 29.498 15.9174 30.0378 15.5594 30.2195C14.2238 30.8974 13.1746 32.3308 12.8847 33.8734C12.8106 34.2676 12.75 35.4501 12.75 36.501V38.4121H11.6211H10.4922V23.378V8.34386H24.0391C37.4089 8.34386 37.5894 8.3404 37.8516 8.07777C38.2095 7.71921 38.2025 6.9989 37.8376 6.66815C37.5668 6.42255 37.1184 6.4139 23.4607 6.38942C13.9083 6.37239 9.27177 6.40898 9.07959 6.50278ZM46.3934 10.7396C45.8011 10.9787 45.628 11.8765 46.0859 12.3352C46.3456 12.5953 46.5286 12.6013 54.2442 12.6013H62.137L62.4122 12.2507C62.5636 12.0579 62.6875 11.8213 62.6875 11.7248C62.6875 11.3314 62.3616 10.8766 61.9853 10.7453C61.4903 10.5724 46.8209 10.567 46.3934 10.7396ZM26.9957 14.0186C27.9016 14.3075 28.9545 15.3158 29.4087 16.3296C29.765 17.1251 29.7716 17.1866 29.7262 19.2953C29.6827 21.3229 29.6594 21.4877 29.3281 22.114C28.553 23.5789 27.158 24.4389 25.553 24.441C24.4649 24.4426 23.9555 24.2953 23.0766 23.7252C22.3622 23.2618 21.7388 22.4631 21.4343 21.6216C21.1503 20.8357 21.0447 18.5827 21.2395 17.462C21.432 16.3549 21.7244 15.7562 22.4269 15.0311C23.6275 13.7918 25.1947 13.4444 26.9957 14.0186ZM46.5188 16.0187C45.861 16.1513 45.5935 17.1637 46.0859 17.657C46.3416 17.9131 46.5286 17.9231 51.0458 17.9231C55.3481 17.9231 55.7576 17.9037 55.9495 17.6903C56.3434 17.2524 56.3615 16.7977 56.0019 16.3786L55.6717 15.994L51.2441 15.9763C48.8089 15.9665 46.6824 15.9857 46.5188 16.0187ZM59.1547 16.1174C58.4933 16.4059 58.3582 17.1449 58.8776 17.6339C59.1552 17.895 59.3284 17.9231 60.661 17.9231C62.0973 17.9231 62.1444 17.9137 62.4122 17.5725C62.5636 17.3798 62.6875 17.1431 62.6875 17.0466C62.6875 16.6532 62.3616 16.1984 61.9853 16.0671C61.4237 15.871 59.6474 15.9026 59.1547 16.1174ZM25.4336 26.3682C26.1641 26.37 26.9479 26.3236 27.1756 26.265L27.5894 26.1586L27.681 27.0909C27.736 27.649 27.8938 28.2523 28.0742 28.5943L28.3757 29.1654L26.9374 30.4101L25.4991 31.6548L24.3561 30.6762C23.7275 30.138 23.0695 29.5779 22.8941 29.4315L22.5749 29.1654L22.9086 28.511C23.1629 28.0119 23.2422 27.6523 23.2422 26.9976V26.1387L23.6738 26.2517C23.9112 26.3139 24.7031 26.3663 25.4336 26.3682ZM22.8593 32.0351C24.934 33.8321 25.3169 34.081 25.7555 33.9179C25.8976 33.8653 26.9396 33.0288 28.0711 32.0592C29.2027 31.0895 30.1637 30.2963 30.2069 30.2963C30.25 30.2963 31.2414 30.6654 32.41 31.1165C34.7708 32.0279 35.3834 32.4411 35.8782 33.4565C36.1607 34.0359 36.1864 34.264 36.1888 36.2168L36.1914 38.3455H35.0625H33.9336L33.8672 36.9707C33.7953 35.4844 33.6595 35.219 32.9698 35.219C32.1578 35.219 31.875 35.7739 31.875 37.3675V38.4121H25.4336H18.9922V37.1068C18.9922 35.5924 18.7981 35.219 18.0115 35.219C17.2604 35.219 17.0736 35.5729 17.0207 37.0953L16.9752 38.4121H15.8475H14.7197L14.7654 36.1836C14.8058 34.2077 14.8434 33.8948 15.0969 33.4229C15.6336 32.4242 16.1598 32.0655 18.4091 31.1647C19.5698 30.6998 20.5943 30.3143 20.6858 30.3079C20.7772 30.3015 21.7554 31.0788 22.8593 32.0351Z" fill="#919D06"/>
</svg>
