<svg width="50" height="49" viewBox="0 0 50 49" fill="none" xmlns="http://www.w3.org/2000/svg">
<path fill-rule="evenodd" clip-rule="evenodd" d="M7.27004 0.125154C6.77531 0.27815 5.93149 1.1354 5.77978 1.63919C5.68684 1.94795 5.65721 4.66498 5.65721 12.8889V23.7315H3.87966C1.73035 23.7315 1.44971 23.798 0.764863 24.4699C-0.254954 25.4704 -0.254954 26.7397 0.764863 27.7402C1.38792 28.3514 1.78539 28.4786 3.07324 28.4786H4.04437V36.3833V44.2881L2.53929 44.3199C0.90135 44.3545 0.750448 44.402 0.270528 45.0327C0.084044 45.2778 0.0626739 45.4464 0.0626739 46.6759C0.0626739 48.1717 0.112571 48.3242 0.756698 48.7961L1.03511 49H25.0113H48.9874L49.2658 48.7961C49.8779 48.3477 49.957 48.1412 49.9943 46.8943C50.014 46.2335 49.9812 45.5862 49.9174 45.3774C49.7793 44.925 49.2229 44.4323 48.7523 44.3456L48.3974 44.2803V43.7342C48.3974 42.9489 48.2179 42.4688 47.7219 41.9276C47.2106 41.3696 46.6341 41.1376 45.7586 41.1376H45.1717V39.1596V37.1817H46.1618C47.4596 37.1817 47.9564 37.0158 48.5284 36.3917C48.7681 36.1301 49.0181 35.7395 49.084 35.5237C49.2586 34.9522 49.2559 14.087 49.0813 13.507C48.9177 12.9637 48.0826 12.1445 47.5289 11.984C47.2921 11.9153 46.5241 11.8637 45.7397 11.8637H44.3653V6.95497C44.3653 3.44873 44.331 1.9341 44.2455 1.65383C44.1795 1.43803 43.9296 1.04748 43.6898 0.785894C42.9016 -0.0743235 44.556 -0.00539139 24.9681 0.00598192C12.63 0.0132015 7.52104 0.0476181 7.27004 0.125154ZM42.505 1.82106L42.7525 2.06376V6.96377V11.8637H41.9495H41.1464L41.1179 8.01378C41.0902 4.30252 41.0818 4.15407 40.8814 3.8909C40.7671 3.74078 40.5483 3.52617 40.3952 3.41402C40.1169 3.21019 40.1105 3.21009 25.0113 3.21009C9.91197 3.21009 9.90562 3.21019 9.62731 3.41402C9.47419 3.52617 9.25545 3.74078 9.14114 3.891C8.93489 4.16189 8.93308 4.241 8.90667 13.9478L8.87996 23.7315H8.07505H7.27004V12.8977V2.06376L7.51751 1.82106L7.76488 1.57827H25.0113H42.2576L42.505 1.82106ZM39.5268 8.30335V11.8637H38.9589C38.6465 11.8637 38.2043 11.9178 37.9761 11.984C37.4224 12.1445 36.5873 12.9637 36.4237 13.507C36.3329 13.8084 36.3011 15.5978 36.3011 20.4051V26.8962H35.0458H33.7905L33.85 26.404C33.933 25.7165 33.7308 25.1013 33.243 24.5576C32.5456 23.7803 32.586 23.7875 28.5452 23.7315L24.9726 23.682L24.8506 23.0392C24.3977 20.6525 22.6022 18.3749 20.3924 17.384L19.9568 17.1888L20.4577 16.6691C22.2994 14.7585 22.1977 11.8063 20.2281 10.0063C19.5359 9.37353 18.9936 9.07822 18.1093 8.85224C15.5795 8.20574 12.9383 9.76912 12.2629 12.3129C11.8596 13.8321 12.2817 15.4206 13.4109 16.6328L13.9177 17.1767L13.2903 17.4982C12.4239 17.9423 11.8629 18.3612 11.1257 19.1145L10.4957 19.7584V12.2507V4.74301H25.0113H39.5268V8.30335ZM23.6459 6.56818L23.3984 6.81088V9.49013V12.1694L23.6459 12.4121L23.8933 12.6549H29.0434H34.1935L34.4408 12.4121L34.6883 12.1694V9.49013V6.81088L34.4408 6.56818L34.1935 6.32539H29.0434H23.8933L23.6459 6.56818ZM28.2369 9.49013V11.0725H26.6241H25.0113V9.49013V7.90776H26.6241H28.2369V9.49013ZM33.0755 9.49013V11.0725H31.4626H29.8498V9.49013V7.90776H31.4626H33.0755V9.49013ZM18.3079 10.5859C20.6995 11.6993 20.7869 14.9508 18.4591 16.2071C17.8514 16.5351 17.7418 16.5606 16.9471 16.5592C16.1654 16.5578 16.0343 16.528 15.4527 16.2204C12.9456 14.894 13.2398 11.4027 15.9396 10.4402C16.5757 10.2135 17.6499 10.2795 18.3079 10.5859ZM47.3435 13.6889L47.591 13.9316V24.5227V35.1138L47.3435 35.3565L47.0962 35.5993H42.7525H38.4088L38.1614 35.3565L37.914 35.1138V24.5227V13.9316L38.1614 13.6889L38.4088 13.4461H42.7525H47.0962L47.3435 13.6889ZM26.6241 15.0284V15.8196H30.6562H34.6883V15.0284V14.2372H30.6562H26.6241V15.0284ZM39.5268 15.8196V16.6108H42.7525H45.9782V15.8196V15.0284H42.7525H39.5268V15.8196ZM26.6241 18.1932V18.9844H30.6562H34.6883V18.1932V17.402H30.6562H26.6241V18.1932ZM18.305 18.3426C20.601 18.8198 22.5505 20.641 23.1567 22.8749C23.4161 23.8306 24.1341 23.7315 16.9471 23.7315H10.5965V23.4937C10.5965 23.1188 11.0539 21.8897 11.421 21.2778C11.6052 20.9709 12.0832 20.3991 12.4832 20.0069C14.0027 18.5177 16.1684 17.8986 18.305 18.3426ZM41.745 18.3521C40.302 18.8666 39.4227 20.1742 39.5587 21.6036C39.6677 22.7494 40.2324 23.5896 41.2581 24.1322C41.8397 24.4399 41.9709 24.4697 42.7525 24.471C43.5472 24.4724 43.6568 24.4469 44.2645 24.119C46.59 22.8639 46.5024 19.6101 44.1133 18.4978C43.4553 18.1914 42.3811 18.1253 41.745 18.3521ZM43.3905 19.9104C44.4341 20.3383 44.6769 21.6456 43.8613 22.4458C43.1945 23.1 42.2916 23.1048 41.6318 22.4575C40.3852 21.2344 41.7607 19.2424 43.3905 19.9104ZM32.0216 25.5567C32.1776 25.7096 32.269 25.9124 32.269 26.105C32.269 26.2977 32.1776 26.5004 32.0216 26.6534L31.7742 26.8962H16.9471H2.11995L1.87258 26.6534C1.71654 26.5004 1.62511 26.2977 1.62511 26.105C1.62511 25.9124 1.71654 25.7096 1.87258 25.5567L2.11995 25.3139H16.9471H31.7742L32.0216 25.5567ZM41.1396 26.8962V27.6874H43.5589H45.9782V26.8962V26.105H43.5589H41.1396V26.8962ZM28.2369 36.3905V44.3023H16.9471H5.65721V36.3905V28.4786H16.9471H28.2369V36.3905ZM36.3011 29.2698V30.061H33.0755H29.8498V29.2698V28.4786H33.0755H36.3011V29.2698ZM39.5268 30.061V30.8522H42.7525H45.9782V30.061V29.2698H42.7525H39.5268V30.061ZM8.88288 30.9814C8.38814 31.1344 7.54433 31.9917 7.39262 32.4955C7.22065 33.0667 7.22065 39.7142 7.39262 40.2855C7.55622 40.8287 8.39127 41.648 8.94497 41.8085C9.25464 41.8983 11.2888 41.9288 16.966 41.9288C25.6246 41.9288 25.1897 41.967 25.9486 41.1388C26.1883 40.8772 26.4383 40.4866 26.5042 40.2708C26.6716 39.7229 26.6716 33.058 26.5042 32.5101C26.4383 32.2943 26.1883 31.9037 25.9486 31.6422C25.1882 30.8123 25.6346 30.8508 16.9039 30.8622C11.6213 30.8692 9.12592 30.9063 8.88288 30.9814ZM36.3011 33.3873C36.3011 35.496 36.369 35.7714 37.0537 36.4433C37.6768 37.0545 38.0742 37.1817 39.3621 37.1817H40.3332V39.1596V41.1376H39.7653C38.8903 41.1376 38.4315 41.3154 37.8601 41.876C37.2888 42.4365 37.1075 42.8867 37.1075 43.7451V44.3023H33.4787H29.8498V37.9728V31.6433H33.0755H36.3011V33.3873ZM24.7638 32.6773L25.0113 32.92V36.3905V39.8609L24.7638 40.1036L24.5164 40.3464H16.9471H9.37772L9.13035 40.1036L8.88288 39.8609V36.3905V32.92L9.13035 32.6773L9.37772 32.4345H16.9471H24.5164L24.7638 32.6773ZM39.5268 33.2257V34.0169H42.7525H45.9782V33.2257V32.4345H42.7525H39.5268V33.2257ZM43.5589 39.1596V41.1376H42.7525H41.9461V39.1596V37.1817H42.7525H43.5589V39.1596ZM46.5371 42.9627C46.7403 43.162 46.7846 43.3035 46.7846 43.7539V44.3023H42.7525H38.7204V43.7539C38.7204 43.3035 38.7646 43.162 38.9679 42.9627L39.2152 42.72H42.7525H46.2897L46.5371 42.9627ZM48.3974 46.6759V47.4671H25.0113H1.62511V46.6759V45.8847H25.0113H48.3974V46.6759Z" fill="#0CB194"/>
</svg>
