<svg width="41" height="50" viewBox="0 0 41 50" fill="none" xmlns="http://www.w3.org/2000/svg">
<path d="M22.4412 21.0918V17.014C22.4412 16.5545 22.2609 16.1137 21.9401 15.7888C21.6193 15.4638 21.1841 15.2812 20.7304 15.2812C20.2766 15.2812 19.8415 15.4638 19.5206 15.7888C19.1998 16.1137 19.0195 16.5545 19.0195 17.014V21.0918C19.0195 21.5513 19.1998 21.992 19.5206 22.317C19.8415 22.642 20.2766 22.8246 20.7304 22.8246C21.1841 22.8246 21.6193 22.642 21.9401 22.317C22.2609 21.992 22.4412 21.5513 22.4412 21.0918Z" fill="#FFB300"/>
<path d="M33.7176 28.4652C33.7176 28.2376 33.6734 28.0123 33.5874 27.8021C33.5014 27.5918 33.3754 27.4008 33.2166 27.2399C33.0577 27.079 32.8691 26.9514 32.6615 26.8643C32.454 26.7772 32.2315 26.7324 32.0068 26.7324H27.0516C26.5979 26.7324 26.1628 26.915 25.8419 27.2399C25.5211 27.5649 25.3408 28.0056 25.3408 28.4652C25.3408 28.9247 25.5211 29.3655 25.8419 29.6905C26.1628 30.0154 26.5979 30.198 27.0516 30.198H32.0068C32.4605 30.198 32.8957 30.0154 33.2166 29.6905C33.5374 29.3655 33.7176 28.9247 33.7176 28.4652Z" fill="#FFB300"/>
<path d="M7.2832 28.4652C7.2832 28.9247 7.46345 29.3655 7.78429 29.6905C8.10513 30.0154 8.54027 30.198 8.99401 30.198H13.9492C14.4029 30.198 14.8381 30.0154 15.1589 29.6905C15.4798 29.3655 15.66 28.9247 15.66 28.4652C15.66 28.0056 15.4798 27.5649 15.1589 27.2399C14.8381 26.915 14.4029 26.7324 13.9492 26.7324H8.99401C8.54027 26.7324 8.10513 26.915 7.78429 27.2399C7.46345 27.5649 7.2832 28.0056 7.2832 28.4652Z" fill="#FFB300"/>
<path d="M14.875 24.5834C15.2133 24.5834 15.544 24.4817 15.8253 24.2913C16.1066 24.1009 16.3258 23.8303 16.4552 23.5137C16.5847 23.1971 16.6186 22.8488 16.5526 22.5127C16.4866 22.1766 16.3237 21.8679 16.0845 21.6256L13.2375 18.742C12.9166 18.417 12.4814 18.2344 12.0275 18.2344C11.5737 18.2344 11.1385 18.417 10.8176 18.742C10.4967 19.067 10.3164 19.5078 10.3164 19.9675C10.3164 20.4271 10.4967 20.8679 10.8176 21.1929L13.6646 24.0757C13.8234 24.237 14.012 24.3649 14.2198 24.452C14.4275 24.5391 14.6501 24.5838 14.875 24.5834Z" fill="#FFB300"/>
<path d="M27.3622 24.0778L30.2085 21.1942C30.3673 21.0333 30.4933 20.8423 30.5792 20.632C30.6652 20.4218 30.7094 20.1964 30.7094 19.9689C30.7094 19.7413 30.6651 19.516 30.5791 19.3058C30.493 19.0956 30.367 18.9046 30.2081 18.7437C30.0492 18.5828 29.8606 18.4552 29.653 18.3681C29.4454 18.2811 29.2229 18.2363 28.9983 18.2363C28.7736 18.2364 28.5511 18.2812 28.3436 18.3684C28.136 18.4555 27.9474 18.5831 27.7886 18.7441L24.9423 21.6277C24.6215 21.9527 24.4413 22.3934 24.4414 22.853C24.4415 23.3126 24.6218 23.7533 24.9427 24.0782C25.2636 24.4031 25.6988 24.5856 26.1525 24.5856C26.6063 24.5855 27.0414 24.4028 27.3622 24.0778Z" fill="#FFB300"/>
<path d="M20.6217 31.1456C22.2983 31.1456 23.6575 29.769 23.6575 28.0708C23.6575 26.3727 22.2983 24.9961 20.6217 24.9961C18.9451 24.9961 17.5859 26.3727 17.5859 28.0708C17.5859 29.769 18.9451 31.1456 20.6217 31.1456Z" fill="#FFB300"/>
<path d="M25.222 46.307H22.5194V35.309C22.5194 34.8494 22.3392 34.4086 22.0183 34.0837C21.6975 33.7587 21.2623 33.5762 20.8086 33.5762C20.3549 33.5762 19.9197 33.7587 19.5989 34.0837C19.278 34.4086 19.0978 34.8494 19.0978 35.309V46.307H16.3768C15.9231 46.307 15.4879 46.4895 15.1671 46.8145C14.8462 47.1394 14.666 47.5802 14.666 48.0397C14.666 48.4993 14.8462 48.9401 15.1671 49.265C15.4879 49.59 15.9231 49.7725 16.3768 49.7725H25.222C25.6758 49.7725 26.1109 49.59 26.4318 49.265C26.7526 48.9401 26.9329 48.4993 26.9329 48.0397C26.9329 47.5802 26.7526 47.1394 26.4318 46.8145C26.1109 46.4895 25.6758 46.307 25.222 46.307Z" fill="#FFB300"/>
<path d="M41 1.73279C41.0001 1.50521 40.9559 1.27983 40.87 1.06956C40.784 0.859281 40.6581 0.668235 40.4992 0.507311C40.3403 0.346387 40.1516 0.218738 39.944 0.131693C39.7364 0.0446488 39.5139 -0.000101539 39.2892 1.72995e-07H1.71081C1.25707 1.72995e-07 0.821908 0.182588 0.501067 0.507547C0.180226 0.832507 0 1.27323 0 1.73279V48.2672C0 48.7268 0.180226 49.1675 0.501067 49.4925C0.821908 49.8174 1.25707 50 1.71081 50H8.14987C8.60361 50 9.03877 49.8174 9.35961 49.4925C9.68045 49.1675 9.8607 48.7268 9.8607 48.2672C9.8607 47.8076 9.68045 47.3669 9.35961 47.0419C9.03877 46.717 8.60361 46.5344 8.14987 46.5344H3.42163V3.46559H37.5165V46.5344H32.5063C32.2816 46.5344 32.0592 46.5792 31.8516 46.6663C31.644 46.7534 31.4554 46.881 31.2966 47.0419C31.1377 47.2028 31.0117 47.3938 30.9257 47.6041C30.8397 47.8143 30.7955 48.0397 30.7955 48.2672C30.7955 48.4948 30.8397 48.7201 30.9257 48.9303C31.0117 49.1405 31.1377 49.3315 31.2966 49.4925C31.4554 49.6534 31.644 49.781 31.8516 49.8681C32.0592 49.9552 32.2816 50 32.5063 50H38.9446C38.9927 50 39.0386 49.9899 39.0859 49.9853C39.1333 49.9806 39.1792 50 39.2273 50C39.681 50 40.1162 49.8174 40.437 49.4925C40.7579 49.1675 40.9381 48.7268 40.9381 48.2672V2.17005C40.9772 2.02759 40.998 1.88063 41 1.73279Z" fill="#FFB300"/>
</svg>
