<svg width="31" height="30" viewBox="0 0 31 30" fill="none" xmlns="http://www.w3.org/2000/svg">
<path fill-rule="evenodd" clip-rule="evenodd" d="M25.0413 0.116857C24.7901 0.295021 20.2725 4.88701 20.1911 5.04692C20.1514 5.125 20.1189 5.31797 20.1189 5.47574C20.1189 6.20983 20.9362 6.71425 21.581 6.37818C21.7208 6.30524 22.4328 5.64409 23.163 4.90897L24.4908 3.57231L24.5232 8.01745C24.5551 12.4004 24.5574 12.4651 24.691 12.6459C25.1623 13.2836 25.9566 13.2836 26.4279 12.6459C26.5615 12.4651 26.5638 12.4004 26.5958 8.01745L26.6281 3.57231L27.9559 4.90897C28.6861 5.64409 29.3981 6.30524 29.5379 6.37818C30.1828 6.71425 31 6.20983 31 5.47574C31 5.31797 30.9674 5.125 30.9275 5.04692C30.8451 4.88565 26.326 0.291189 26.0776 0.116143C25.8574 -0.0390278 25.2605 -0.0386381 25.0413 0.116857ZM5.5784 3.06043C4.5311 3.21034 3.32181 3.75171 2.43494 4.46768C1.24248 5.43027 0.452958 6.7603 0.0931693 8.41249C-0.0310564 8.98316 -0.0310564 24.0149 0.0931693 24.5856C0.452699 26.2366 1.24255 27.5678 2.43273 28.5286C3.21222 29.1579 3.92675 29.517 5.02787 29.8327C5.51228 29.9716 5.5387 29.972 14.5164 29.9939C21.0183 30.0098 23.6628 29.9953 24.0358 29.9419C26.5667 29.579 28.6272 27.8203 29.3998 25.3635C29.6929 24.4315 29.7125 24.0684 29.6917 19.9625C29.6726 16.1972 29.6695 16.1151 29.5387 15.9394C29.2849 15.5986 29.0779 15.4923 28.6683 15.4923C28.2588 15.4923 28.0519 15.5985 27.798 15.9393C27.6739 16.1058 27.663 16.2221 27.6447 17.5799L27.6251 19.0413L27.1727 18.6134C23.0449 14.7083 18.7042 14.4378 14.4939 17.8233C12.1962 19.6709 9.43361 23.2129 7.12592 27.2702L6.74424 27.9413L6.20225 27.9025C4.64963 27.7914 3.25685 26.8452 2.56298 25.43C2.04827 24.38 2.08091 24.9848 2.08091 16.499C2.08091 8.01186 2.0482 8.61657 2.56376 7.56811C3.10503 6.46736 3.96956 5.71522 5.18979 5.28335L5.70794 5.09993L11.3543 5.06745C16.9306 5.03536 17.0028 5.03328 17.1795 4.90104C17.5176 4.64779 17.6253 4.43845 17.6253 4.03464C17.6253 3.72281 17.5944 3.62018 17.4387 3.41546C17.0977 2.96709 17.4012 2.98813 11.3934 2.9969C8.40891 3.00126 5.79214 3.02983 5.5784 3.06043ZM8.75691 8.575C7.89342 8.7301 7.25617 9.06149 6.63931 9.67613C5.15786 11.1524 5.17425 13.5401 6.67623 15.0385C7.43195 15.7925 8.31001 16.1447 9.39974 16.131C11.5433 16.1039 13.2465 14.256 13.1016 12.1148C13.0188 10.8913 12.4295 9.85163 11.448 9.1973C10.6779 8.68386 9.57319 8.4284 8.75691 8.575ZM10.0481 10.777C10.3679 10.9187 10.6866 11.231 10.8742 11.5864C11.073 11.963 11.0743 12.7188 10.8769 13.0925C10.3474 14.0951 9.1463 14.3682 8.25716 13.6881C7.62709 13.2062 7.42515 12.2731 7.79672 11.5609C8.22808 10.7339 9.19287 10.3981 10.0481 10.777ZM21.8353 17.7316C23.5373 18.1924 25.5677 19.6864 27.3322 21.7761L27.6473 22.1493L27.6168 23.205C27.5905 24.1175 27.5633 24.3314 27.4166 24.7804C27.1811 25.5008 26.8367 26.0632 26.3033 26.5981C25.7752 27.1277 25.2185 27.4726 24.4908 27.7212L23.9726 27.8981L16.5728 27.916C12.5029 27.9258 9.17305 27.9133 9.17305 27.8882C9.17305 27.8181 10.026 26.4572 10.8033 25.2871C13.8454 20.7076 16.6341 18.2073 19.3417 17.6317C19.9458 17.5033 21.1737 17.5524 21.8353 17.7316Z" fill="#C73D3D"/>
</svg>
