<svg width="50" height="50" viewBox="0 0 50 50" fill="none" xmlns="http://www.w3.org/2000/svg">
<path fill-rule="evenodd" clip-rule="evenodd" d="M23.1239 0.029077C22.9356 0.0509661 22.3636 0.116535 21.8527 0.174874C16.4926 0.786594 11.2598 3.35289 7.29655 7.31382C3.33298 11.275 0.923897 16.1659 0.131397 21.861C-0.0634765 23.2612 -0.0364894 27.0071 0.178527 28.4082C1.04827 34.0757 3.38304 38.7513 7.29655 42.6623C13.7276 49.0894 23.0058 51.5139 31.7773 49.0595C40.8607 46.5179 47.871 38.8672 49.5675 29.6442C51.0871 21.384 48.5587 13.202 42.6668 7.31382C38.7732 3.42256 34.0715 1.06685 28.5017 0.216697C27.527 0.0678714 23.8845 -0.0591631 23.1239 0.029077ZM28.2493 3.14611C28.7827 3.23054 29.5189 3.36774 29.8854 3.451L30.5515 3.60246L31.8197 7.47643L33.088 11.3504L31.0757 14.1627L29.0636 16.9751H24.9817H20.8998L18.8876 14.1627L16.8753 11.3504L18.1436 7.47643L19.4119 3.60246L20.07 3.45559C20.7173 3.31126 22.4052 3.04351 23.1728 2.96357C23.9859 2.87885 27.3177 2.99866 28.2493 3.14611ZM15.0394 7.52959L14.1892 10.1348H11.3996H8.60982L9.19337 9.53947C10.6497 8.05414 12.8676 6.42243 14.8165 5.40274C15.3766 5.10958 15.8471 4.88209 15.8622 4.89714C15.8772 4.91209 15.507 6.09673 15.0394 7.52959ZM36.5144 6.15673C37.6798 6.88064 39.3241 8.16535 40.3491 9.15289L41.3597 10.1266L38.567 10.1307L35.7742 10.1348L34.9569 7.61851C34.5074 6.23462 34.119 5.04381 34.0939 4.97238C34.0412 4.82238 35.5724 5.57159 36.5144 6.15673ZM16.499 15.8653L18.4977 18.6642L17.7656 20.9223C17.3629 22.1642 16.7867 23.923 16.4852 24.8309L15.9371 26.4816L12.7298 27.4815L9.52249 28.4815L6.22753 26.0879L2.93248 23.6942L2.96132 23.2418C3.06418 21.6267 3.54526 19.3557 4.15432 17.6103C4.51601 16.5736 5.54552 14.4031 6.04752 13.6188L6.40119 13.0663H10.4507H14.5003L16.499 15.8653ZM43.8902 13.5794C44.7009 14.8473 45.602 16.8837 46.1498 18.686C46.509 19.8683 46.9384 22.1254 46.9983 23.148L47.0309 23.702L43.7377 26.0927L40.4445 28.4832L37.2353 27.4807L34.0262 26.4783L33.4781 24.8292C33.1766 23.9223 32.6004 22.1642 32.1978 20.9223L31.4656 18.6642L33.4643 15.8653L35.463 13.0663H39.5126H43.5621L43.8902 13.5794ZM29.1231 20.9571C30.4241 24.9271 31.044 26.8746 31.044 26.9926C31.044 27.0676 29.68 28.1189 28.0129 29.3286L24.9819 31.5283L21.9506 29.3257C20.2834 28.1143 18.9194 27.063 18.9194 26.9896C18.9194 26.8742 19.5454 24.908 20.8402 20.9571L21.1844 19.9067H24.9817H28.7789L29.1231 20.9571ZM5.2559 29.0086C6.45184 29.8762 7.44948 30.6027 7.47295 30.6229C7.53015 30.6721 5.92012 35.6634 5.80972 35.7791C5.6961 35.8983 4.56822 33.5458 4.12391 32.2629C3.69418 31.0225 3.3144 29.4989 3.14485 28.3349C3.0724 27.8378 3.02849 27.431 3.04727 27.431C3.06604 27.431 4.05997 28.1409 5.2559 29.0086ZM46.8204 28.2861C46.6007 29.6826 46.3957 30.5331 45.9481 31.9038C45.4698 33.369 44.2883 35.9204 44.1536 35.7791C44.1059 35.7292 43.7011 34.5521 43.2539 33.1635C42.5712 31.0432 42.4641 30.625 42.5848 30.5523C42.6638 30.5049 43.6526 29.7865 44.7819 28.9561C45.9113 28.1256 46.8622 27.4427 46.8951 27.4385C46.928 27.4344 46.8944 27.8158 46.8204 28.2861ZM20.2149 31.6875L23.515 34.0833V37.4305V40.7775L20.2905 43.1189C18.517 44.4065 17.0006 45.474 16.9208 45.491C16.841 45.508 16.2349 45.2628 15.5741 44.9463C13.1433 43.7817 11.2137 42.4079 9.25253 40.4452C8.02012 39.2121 7.94864 39.1196 7.99714 38.821C8.0254 38.647 8.58 36.8784 9.22965 34.8909L10.4108 31.2772L12.8317 30.5206C14.1633 30.1045 15.5606 29.6604 15.9371 29.5335C16.3135 29.4068 16.6876 29.3006 16.7682 29.2974C16.8489 29.2943 18.4 30.3699 20.2149 31.6875ZM36.2147 30.2213C37.8613 30.7347 39.2841 31.177 39.3766 31.204C39.5007 31.2404 39.8545 32.2011 40.7298 34.8789C41.3816 36.873 41.9375 38.6445 41.9653 38.8157C42.0126 39.1069 41.9324 39.211 40.71 40.4429C39.3568 41.8066 37.7942 43.0464 36.3127 43.9317C35.245 44.5698 33.2288 45.5308 33.0421 45.4907C32.964 45.4739 31.4485 44.4051 29.6742 43.1156L26.4484 40.7709V37.4316V34.0923L29.7484 31.6919C31.5635 30.3718 33.0873 29.2908 33.1347 29.2896C33.1821 29.2885 34.5681 29.7078 36.2147 30.2213ZM27.1817 44.9279C28.3648 45.7884 29.3452 46.5278 29.3601 46.5711C29.4289 46.7694 26.9688 47.0236 24.9817 47.0236C22.9985 47.0236 20.534 46.7695 20.6032 46.5721C20.6314 46.4917 24.8947 43.3695 24.9817 43.3656C25.0086 43.3644 25.9986 44.0675 27.1817 44.9279Z" fill="#C915B7"/>
</svg>
