<svg width="33" height="30" viewBox="0 0 33 30" fill="none" xmlns="http://www.w3.org/2000/svg">
<path fill-rule="evenodd" clip-rule="evenodd" d="M7.29694 0.104573C6.89823 0.245104 6.55944 0.501456 6.33167 0.835022C5.9834 1.34517 5.97358 1.45345 5.97358 4.77941V7.84659L3.69716 7.86606C1.52601 7.88467 1.40686 7.89208 1.12051 8.02645C0.73672 8.20651 0.31618 8.63335 0.138781 9.02289L0 9.32761V15.8495V22.3714L0.138781 22.6761C0.31618 23.0656 0.73672 23.4925 1.12051 23.6725C1.41254 23.8095 1.50547 23.8139 4.51958 23.8322L7.61835 23.8511L8.88042 25.1218C9.6597 25.9065 10.2098 26.4098 10.3183 26.4375C10.6246 26.5155 10.8119 26.4118 11.3939 25.8424L11.9614 25.2872L11.9997 25.6154C12.0797 26.3018 12.5224 26.9259 13.1323 27.212C13.4243 27.349 13.5172 27.3534 16.5313 27.3717L19.6301 27.3906L20.8922 28.6613C22.1704 29.9483 22.3308 30.0663 22.6817 29.977C22.7902 29.9493 23.3403 29.446 24.1196 28.6613L25.3816 27.3906L28.4804 27.3717C31.4945 27.3534 31.5875 27.349 31.8795 27.212C32.2633 27.032 32.6838 26.6051 32.8612 26.2156L33 25.9109V19.389V12.8671L32.8612 12.5624C32.6838 12.1729 32.2633 11.746 31.8795 11.566C31.5931 11.4316 31.4739 11.4242 29.3044 11.4056L27.0295 11.3861L27.0118 6.42404C26.9943 1.50432 26.993 1.45942 26.8553 1.15731C26.6779 0.767772 26.2574 0.340933 25.8736 0.160877L25.5734 0.0200177L16.5969 0.00526975C8.21448 -0.00842946 7.59898 -0.00187473 7.29694 0.104573ZM25.5235 1.51271L25.7025 1.6944V7.98391V14.2734L25.5235 14.4551L25.3445 14.6369L22.0685 14.6717C20.2668 14.6909 18.7815 14.713 18.7678 14.7209C18.7542 14.7288 18.2384 15.2422 17.6215 15.8618L16.5 16.9885L15.3785 15.8618C14.7616 15.2422 14.2458 14.7288 14.2322 14.7209C14.2185 14.713 12.7332 14.6909 10.9315 14.6717L7.65548 14.6369L7.47647 14.4551L7.29746 14.2734V7.98929C7.29746 1.79751 7.29933 1.70305 7.42661 1.55951C7.49765 1.47934 7.61389 1.38948 7.68493 1.35979C7.75597 1.33003 11.7584 1.31141 16.5792 1.31836L25.3445 1.33095L25.5235 1.51271ZM10.2681 3.71979C9.85699 3.8906 9.74772 4.43759 10.0611 4.75575L10.2387 4.936L16.4671 4.95337L22.6955 4.97067L22.9059 4.7798C23.0804 4.62164 23.1165 4.54167 23.1165 4.31331C23.1165 4.08521 23.0803 4.00498 22.907 3.8478L22.6975 3.65785L16.5474 3.66198C13.1648 3.66427 10.3391 3.69029 10.2681 3.71979ZM10.2681 7.39039C9.85699 7.5612 9.74772 8.10819 10.0611 8.42635L10.2387 8.6066L14.7739 8.62509C17.2684 8.63531 19.3771 8.62673 19.46 8.60608C19.543 8.58543 19.681 8.4917 19.7667 8.39777C20.0445 8.09357 19.9401 7.60125 19.5556 7.40166C19.3879 7.31462 10.4766 7.3038 10.2681 7.39039ZM22.2798 7.38796C21.8683 7.56677 21.7595 8.10825 22.0714 8.42484C22.4636 8.82291 23.1165 8.54741 23.1165 7.98391C23.1165 7.55229 22.6561 7.22436 22.2798 7.38796ZM5.98701 11.8348C6.00516 14.4081 6.01097 14.5169 6.14465 14.8105C6.32205 15.2001 6.74259 15.6269 7.12639 15.8069C7.41841 15.9439 7.51134 15.9483 10.5254 15.9666L13.6242 15.9855L14.8863 17.2562C16.1645 18.5432 16.3249 18.6612 16.6758 18.5719C16.7843 18.5442 17.3352 18.0402 18.1161 17.2538C19.1377 16.2252 19.4145 15.9806 19.5566 15.9806H19.7326L19.7147 19.0598L19.6967 22.1391L19.5177 22.3208L19.3386 22.5024L16.0627 22.5373C14.2609 22.5565 12.7756 22.5785 12.762 22.5865C12.7483 22.5943 12.2325 23.1078 11.6157 23.7274L10.4941 24.8541L9.37258 23.7274C8.75572 23.1078 8.23993 22.5943 8.2263 22.5865C8.21267 22.5785 6.72735 22.5565 4.92559 22.5373L1.64961 22.5024L1.4706 22.3207L1.29159 22.139V15.8549C1.29159 9.66308 1.29346 9.56863 1.42074 9.42508C1.49178 9.34492 1.60802 9.25525 1.67906 9.22569C1.7501 9.19619 2.74423 9.17017 3.88819 9.16788L5.96816 9.16375L5.98701 11.8348ZM10.2609 11.0603C10.0558 11.1489 9.84834 11.4517 9.84834 11.6623C9.84834 11.776 9.92202 11.9328 10.0368 12.0631C10.1974 12.2456 10.2687 12.2772 10.5196 12.2772C11.3269 12.2772 11.4185 11.1372 10.6198 11.0309C10.4974 11.0146 10.3359 11.0278 10.2609 11.0603ZM13.4325 11.061C13.0214 11.2318 12.9121 11.7788 13.2255 12.097L13.4031 12.2772L18.0489 12.2948L22.6948 12.3125L22.9056 12.1213C23.0804 11.9628 23.1165 11.8829 23.1165 11.6545C23.1165 11.4264 23.0803 11.3462 22.907 11.189L22.6975 10.999L18.1296 11.0032C15.6172 11.0055 13.5035 11.0315 13.4325 11.061ZM31.5294 12.9178L31.7084 13.0995V19.389V25.6785L31.5294 25.8602L31.3504 26.042L28.0744 26.0768C26.2726 26.096 24.7873 26.1181 24.7737 26.126C24.7601 26.1339 24.2443 26.6473 23.6274 27.2669L22.5059 28.3936L21.3843 27.2669C20.7675 26.6473 20.2517 26.1339 20.238 26.126C20.2244 26.1181 18.7391 26.096 16.9373 26.0768L13.6614 26.042L13.4823 25.8604C13.3041 25.6796 13.3033 25.675 13.3033 24.7789V23.8789L16.4354 23.8461C19.4683 23.8144 19.577 23.8089 19.8677 23.6725C20.2515 23.4925 20.6721 23.0656 20.8495 22.6761C20.9846 22.3794 20.9888 22.2866 21.0067 19.1791L21.0252 15.9868L23.2993 15.9673C25.8788 15.9452 25.9033 15.9407 26.4452 15.3907C26.8967 14.9324 26.9873 14.6477 27.015 13.602L27.0389 12.6983L29.1947 12.7172L31.3505 12.736L31.5294 12.9178Z" fill="#FF0505"/>
</svg>
