<svg width="30" height="30" viewBox="0 0 30 30" fill="none" xmlns="http://www.w3.org/2000/svg">
<path fill-rule="evenodd" clip-rule="evenodd" d="M6.25054 0.0826068C5.9641 0.169809 5.51628 0.49887 5.38654 0.717522C5.33663 0.801618 5.30117 1.24806 5.28102 2.0456L5.25066 3.24698L3.67212 3.27869C1.95073 3.31326 1.84794 3.33096 1.26042 3.69489C0.671805 4.05953 0.195937 4.75105 0.0609714 5.43824C0.0201723 5.6457 -0.000652274 9.41698 1.55699e-05 16.4555C0.000926265 25.667 0.0135545 27.2143 0.0907208 27.5659C0.280935 28.4326 0.837066 29.233 1.52549 29.6309C2.2073 30.025 1.28246 29.9997 14.9951 29.9997C28.7078 29.9997 27.7829 30.025 28.4647 29.6309C29.1531 29.233 29.7093 28.4326 29.8995 27.5659C30.0307 26.9679 30.0348 5.975 29.9038 5.37835C29.7041 4.46905 29.0712 3.75244 28.1672 3.41225C27.9445 3.32838 27.6174 3.30477 26.3181 3.27869L24.7395 3.24698L24.7092 2.0456C24.689 1.24806 24.6536 0.801618 24.6037 0.717522C24.464 0.482051 24.0172 0.166762 23.6952 0.0763948C23.4386 0.00442914 23.0877 -0.00951859 21.9025 0.00530821C20.519 0.022655 20.4136 0.03168 20.1785 0.153049C19.8657 0.314561 19.6328 0.5774 19.5513 0.860691C19.5168 0.980536 19.4884 1.57314 19.4882 2.17746L19.4879 3.27629H14.9951H10.5023L10.502 2.17746C10.5018 1.57314 10.4734 0.980536 10.439 0.860691C10.3574 0.5774 10.1245 0.314561 9.81167 0.153049C9.57483 0.0307423 9.4792 0.0231238 8.04346 0.0113444C6.8683 0.00173336 6.46353 0.0178494 6.25054 0.0826068ZM8.98451 3.4535V5.44738L7.93721 5.43139L6.88991 5.41533L6.87395 3.43745L6.85792 1.45956H7.92125H8.98451V3.4535ZM23.2377 3.43745L23.2217 5.41533H22.0682H20.9146L20.8987 3.43745L20.8826 1.45956H22.0682H23.2537L23.2377 3.43745ZM5.28102 5.29812C5.31435 5.94142 5.38229 6.11658 5.71603 6.41968C6.14745 6.81151 6.19056 6.81995 7.85744 6.84028C9.60518 6.86156 9.73796 6.83642 10.1263 6.4106C10.4211 6.08728 10.5023 5.82345 10.5023 5.18877V4.68278H14.9951H19.4879V5.18877C19.4879 5.82345 19.5691 6.08728 19.8639 6.4106C20.2522 6.83642 20.385 6.86156 22.1328 6.84028C23.7996 6.81995 23.8428 6.81151 24.2742 6.41968C24.6079 6.11658 24.6759 5.94142 24.7092 5.29812L24.7395 4.71208L26.0339 4.69626C27.4744 4.67862 27.6972 4.71173 28.0284 4.99244C28.4687 5.36557 28.4705 5.37812 28.4721 7.89134L28.4734 10.1329H14.9951H1.51681L1.51814 7.89134C1.5196 5.409 1.52361 5.38093 1.92729 5.01512C2.25708 4.7163 2.45045 4.68553 3.91497 4.69942L5.25066 4.71208L5.28102 5.29812ZM28.4593 19.4949C28.444 26.9692 28.4365 27.4638 28.3354 27.6715C28.1881 27.974 27.816 28.3602 27.5798 28.4556C27.2871 28.5739 2.70102 28.573 2.40765 28.4547C2.29873 28.4107 2.09929 28.2539 1.96451 28.106C1.48572 27.581 1.51681 28.1861 1.51681 19.3856V11.5394H14.9961H28.4755L28.4593 19.4949ZM14.3576 13.4937C14.2574 13.5371 14.1344 13.6192 14.0844 13.6761C14.0343 13.733 13.5972 14.5347 13.113 15.4578L12.2327 17.1361L10.3212 17.4119C9.26987 17.5636 8.34332 17.7219 8.26221 17.7635C7.92301 17.9379 7.79933 18.3878 7.99793 18.7246C8.05639 18.8238 8.71203 19.4664 9.45504 20.1528C10.198 20.8392 10.8061 21.4433 10.8065 21.4954C10.8068 21.5474 10.6541 22.4095 10.4672 23.4111C10.1456 25.1351 10.1324 25.2434 10.2188 25.443C10.269 25.559 10.3863 25.7021 10.4794 25.761C10.8361 25.9866 11.0117 25.9304 12.8487 25.0025C13.7885 24.5277 14.5869 24.1393 14.6229 24.1393C14.6589 24.1393 15.4237 24.5095 16.3223 24.9619C17.221 25.4144 18.0479 25.8099 18.1598 25.8409C18.596 25.9616 19.0629 25.6247 19.0629 25.1892C19.0629 25.0625 18.9148 24.17 18.7338 23.2059L18.4046 21.453L19.1739 20.7305C21.2121 18.8162 21.2981 18.7278 21.3406 18.5043C21.3926 18.231 21.251 17.93 21.0044 17.7893C20.8818 17.7194 20.1983 17.5954 18.8985 17.4071L16.974 17.1284L16.0908 15.4082C15.5183 14.2932 15.1542 13.6504 15.0558 13.5813C14.8462 13.4341 14.574 13.3999 14.3576 13.4937ZM15.2611 17.0336C15.608 17.7024 15.9491 18.2994 16.0192 18.3603C16.1184 18.4466 16.4505 18.5134 17.5177 18.6622C18.2718 18.7672 18.9015 18.8654 18.917 18.8803C18.9325 18.8953 18.514 19.3101 17.987 19.8022C17.4601 20.2943 16.9958 20.7529 16.9552 20.8212C16.8423 21.0114 16.8599 21.2365 17.0919 22.5695C17.21 23.2479 17.2987 23.8098 17.2892 23.8181C17.2797 23.8264 16.7391 23.5532 16.0879 23.2109C15.0857 22.6842 14.8621 22.5885 14.6308 22.5876C14.3982 22.5867 14.1795 22.6792 13.1585 23.2103C12.499 23.5534 11.9589 23.8039 11.9583 23.767C11.9576 23.73 12.0573 23.1146 12.1797 22.3995C12.3736 21.2668 12.3923 21.0758 12.3243 20.9173C12.2814 20.8173 11.7977 20.317 11.2494 19.8055C10.2934 18.9137 10.2596 18.8744 10.423 18.8437C10.5167 18.8261 11.1262 18.7413 11.7773 18.6552C12.4285 18.5692 13.0369 18.4615 13.1295 18.416C13.2618 18.3509 13.4366 18.0648 13.9485 17.0753C14.3063 16.3835 14.6062 15.8175 14.6147 15.8175C14.6233 15.8175 14.9141 16.3647 15.2611 17.0336Z" fill="#0092FF"/>
</svg>
