<svg width="35" height="50" viewBox="0 0 35 50" fill="none" xmlns="http://www.w3.org/2000/svg">
<path d="M33.1801 0H1.82007C1.33737 0 0.874519 0.188304 0.533203 0.523471C0.191887 0.858638 0 1.31324 0 1.78724V48.2128C0 48.6868 0.191887 49.1414 0.533203 49.4765C0.874519 49.8117 1.33737 50 1.82007 50H33.1801C33.6628 50 34.1257 49.8117 34.467 49.4765C34.8083 49.1414 35 48.6868 35 48.2128V1.78652C34.9998 1.31264 34.8081 0.858238 34.4668 0.52322C34.1255 0.188201 33.6627 -3.50502e-08 33.1801 0ZM3.0801 8.12838H31.9201V41.453H3.0801V8.12838ZM31.9201 3.02591V5.10251H3.0801V3.02797L31.9201 3.02591ZM3.0801 46.5026V44.4775H31.9201V46.5012L3.0801 46.5026Z" fill="#FC7754"/>
<path d="M21.6232 18.3586C21.6649 18.6399 21.8084 18.8971 22.0275 19.0832C22.2465 19.2692 22.5264 19.3715 22.8159 19.3715C23.1055 19.3715 23.3854 19.2692 23.6044 19.0832C23.8235 18.8971 23.967 18.6399 24.0087 18.3586H26.9873V19.6282H8.45684V18.3586H11.0426C11.0844 18.6399 11.2279 18.8971 11.4469 19.0832C11.666 19.2692 11.9459 19.3715 12.2354 19.3715C12.525 19.3715 12.8049 19.2692 13.024 19.0832C13.243 18.8971 13.3865 18.6399 13.4283 18.3586L13.4422 15.9884V15.1443C13.4487 14.8333 13.3348 14.5314 13.1236 14.2995C12.9124 14.0676 12.6196 13.9229 12.304 13.8947C12.1401 13.8855 11.976 13.9093 11.8217 13.9646C11.6675 14.0199 11.5264 14.1056 11.407 14.2163C11.2877 14.3271 11.1926 14.4606 11.1277 14.6087C11.0627 14.7568 11.0293 14.9164 11.0294 15.0776V15.9884H7.31374C7.14699 15.9884 6.98187 16.0207 6.82781 16.0834C6.67375 16.146 6.53377 16.2379 6.41586 16.3537C6.29795 16.4694 6.20442 16.6069 6.14061 16.7582C6.0768 16.9095 6.04395 17.0716 6.04395 17.2354V35.7901C6.04395 35.9538 6.0768 36.1159 6.14061 36.2672C6.20442 36.4185 6.29795 36.556 6.41586 36.6718C6.53377 36.7875 6.67375 36.8794 6.82781 36.9421C6.98187 37.0047 7.14699 37.037 7.31374 37.037H28.1324C28.4691 37.0368 28.7919 36.9053 29.0299 36.6715C29.2679 36.4377 29.4016 36.1206 29.4016 35.7901V17.2354C29.4016 16.9048 29.2679 16.5877 29.0299 16.3539C28.7919 16.1201 28.4691 15.9886 28.1324 15.9884H24.0234V15.0776C24.0234 14.7633 23.8963 14.4619 23.67 14.2397C23.4437 14.0174 23.1367 13.8926 22.8166 13.8926C22.4966 13.8926 22.1896 14.0174 21.9633 14.2397C21.737 14.4619 21.6098 14.7633 21.6098 15.0776V15.9884L21.6232 18.3586ZM26.988 34.6669H8.45684V21.9983H26.988V34.6669Z" fill="#FC7754"/>
<path d="M19.3729 26.3812L21.3826 26.641C21.4742 26.6528 21.5606 26.6895 21.632 26.747C21.7034 26.8045 21.7569 26.8805 21.7866 26.9663C21.8163 27.0522 21.8208 27.1445 21.7998 27.2328C21.7787 27.3211 21.7329 27.4019 21.6675 27.4659L20.2346 28.8744C20.1773 28.9296 20.1346 28.9977 20.1103 29.0728C20.0859 29.1479 20.0805 29.2277 20.0946 29.3053L20.4642 31.263C20.4811 31.3521 20.4722 31.4441 20.4386 31.5285C20.405 31.6129 20.348 31.6864 20.2741 31.7406C20.2001 31.7949 20.1122 31.8277 20.0202 31.8353C19.9282 31.843 19.8359 31.8253 19.7537 31.7841L17.947 30.8808C17.8756 30.8451 17.7965 30.8269 17.7164 30.8278C17.6363 30.8288 17.5576 30.8489 17.4871 30.8863L15.7049 31.8363C15.6239 31.8794 15.5322 31.8994 15.4402 31.8941C15.3482 31.8888 15.2596 31.8583 15.1843 31.8061C15.109 31.7539 15.0501 31.6821 15.0142 31.5988C14.9783 31.5155 14.9668 31.4239 14.9811 31.3345L15.2975 29.3679C15.31 29.2902 15.3031 29.2107 15.2774 29.1362C15.2517 29.0617 15.2079 28.9945 15.1498 28.9403L13.6798 27.5697C13.6128 27.5074 13.5649 27.4279 13.5415 27.3402C13.5181 27.2525 13.5202 27.1602 13.5475 27.0736C13.5749 26.987 13.6263 26.9097 13.6961 26.8504C13.7659 26.7911 13.8512 26.7521 13.9423 26.7379L15.945 26.4259C16.0242 26.4134 16.099 26.3823 16.1632 26.3351C16.2273 26.2879 16.2788 26.2261 16.3132 26.155L17.1861 24.3582C17.2259 24.2765 17.2882 24.2074 17.3659 24.1586C17.4436 24.1098 17.5337 24.0833 17.6259 24.0821C17.7181 24.0809 17.8088 24.105 17.8878 24.1517C17.9668 24.1984 18.031 24.2659 18.073 24.3465L18.9942 26.12C19.0309 26.1905 19.0846 26.2512 19.1506 26.2967C19.2166 26.3423 19.2929 26.3712 19.3729 26.3812Z" fill="#FC7754"/>
<path d="M20.192 15.9902H14.8335C14.3823 15.9902 14.0166 16.3494 14.0166 16.7924V17.5582C14.0166 18.0012 14.3823 18.3604 14.8335 18.3604H20.192C20.6432 18.3604 21.0089 18.0012 21.0089 17.5582V16.7924C21.0089 16.3494 20.6432 15.9902 20.192 15.9902Z" fill="#FC7754"/>
</svg>
