<svg width="41" height="44" viewBox="0 0 41 44" fill="none" xmlns="http://www.w3.org/2000/svg">
<path fill-rule="evenodd" clip-rule="evenodd" d="M2.21608 0.101511C1.31728 0.388024 0.557325 1.09187 0.22649 1.94418C0.0548768 2.38647 0.037393 2.58365 0.0327249 4.13722C0.0276326 5.83031 0.0291603 5.84572 0.227933 6.00916C0.464644 6.20401 0.820771 6.2226 1.05103 6.0521C1.20143 5.94073 1.2195 5.78556 1.25906 4.26624C1.29988 2.69545 1.31414 2.5809 1.51367 2.21882C1.62987 2.00796 1.8906 1.71748 2.09302 1.57332L2.46103 1.31134H16.2668H30.0726L30.4121 1.49113C30.8818 1.73986 31.232 2.26813 31.2828 2.80441L31.3235 3.23388L30.9526 3.42331C30.7487 3.52745 30.2572 3.85476 29.8604 4.15056C29.4636 4.44637 29.0569 4.73142 28.9566 4.7841C28.8563 4.83677 28.2834 4.95898 27.6835 5.05581C25.6062 5.39095 25.1018 5.89753 24.8048 7.94753C24.6384 9.09496 24.5155 9.39 23.8147 10.3212C23.1687 11.1799 22.9435 11.715 22.9523 12.3708C22.9605 12.988 23.1901 13.5009 23.8765 14.4359C24.5622 15.3698 24.6342 15.5466 24.8046 16.7171C25.1023 18.7602 25.665 19.322 27.703 19.6111L28.4137 19.712L28.4368 24.8132L28.46 29.9145L28.6646 30.1352C28.8856 30.3738 29.3124 30.4947 29.6395 30.4115C29.752 30.3828 30.0291 30.2124 30.2554 30.0327C30.4816 29.8529 30.8107 29.5958 30.9866 29.4613L31.3066 29.2167L31.2837 35.4098L31.2608 41.6028L31.022 41.9688C30.8566 42.2222 30.6477 42.3987 30.343 42.5426L29.9029 42.7503L16.357 42.7512C6.4543 42.7518 2.73364 42.7257 2.52273 42.6541C2.08648 42.506 1.70243 42.1802 1.49084 41.7788L1.30064 41.418L1.27841 24.7482L1.25608 8.07835L1.03355 7.9008C0.743452 7.66937 0.557155 7.67668 0.265701 7.93092L0.0275477 8.13869L0.00437738 24.4771C-0.0101359 34.7015 0.011931 41.0191 0.0632792 41.3595C0.224538 42.4268 0.812963 43.2499 1.74894 43.7171L2.31555 44H16.3214H30.3272L30.8042 43.7732C31.4499 43.4661 31.9003 43.0333 32.2454 42.3878L32.5339 41.8484L32.5573 35.544C32.5701 32.0766 32.605 29.2397 32.6347 29.2397C32.6644 29.2397 32.9785 29.4662 33.3327 29.7431C34.3102 30.5071 34.5314 30.581 35.0405 30.3141C35.5472 30.0484 35.5469 30.0508 35.5469 25.8444C35.5469 22.1249 35.5418 22.005 35.3772 21.838C35.1489 21.6065 34.6606 21.608 34.4639 21.8408C34.3307 21.9986 34.3121 22.3473 34.2738 25.4153L34.2314 28.815L33.3042 28.0849C32.0254 27.078 31.9053 27.0765 30.6922 28.0535C30.258 28.4031 29.8552 28.7185 29.7968 28.7544C29.7125 28.8062 29.6907 27.9519 29.6907 24.5945V20.3693L30.1363 20.7067C30.9353 21.3117 31.2722 21.4468 31.9822 21.4468C32.7321 21.4468 33.0007 21.3276 34.1041 20.505C35.0568 19.7948 35.0547 19.7956 36.0694 19.6428C36.5522 19.5702 37.1407 19.4544 37.3771 19.3857C38.4418 19.0758 38.9233 18.3426 39.158 16.6741C39.3261 15.4787 39.3758 15.355 40.0376 14.4794C40.7809 13.4962 41 13.0095 41 12.3416C41 11.644 40.8351 11.2756 40.0193 10.1509C39.3344 9.20685 39.3072 9.13257 39.1109 7.68021C38.9477 6.47211 38.4592 5.70379 37.6316 5.35308C37.4711 5.28517 36.8562 5.15082 36.265 5.05469C35.674 4.95846 35.1082 4.83677 35.0079 4.7841C34.9076 4.73142 34.5008 4.44551 34.1041 4.14867C33.7073 3.85183 33.206 3.52237 32.9902 3.41651L32.5977 3.22407L32.5552 2.68727C32.4743 1.66481 31.7951 0.718259 30.8042 0.247134L30.3272 0.0203508L16.4505 0.00391217C5.13436 -0.00942803 2.50771 0.00855972 2.21608 0.101511ZM15.5197 4.0688C14.6446 4.31727 14.027 4.83436 13.5815 5.69149C13.3608 6.11614 13.352 6.18568 13.3249 7.74536C13.2932 9.57306 13.3625 9.9372 13.8701 10.6115C14.1385 10.9682 14.1589 11.0401 14.1589 11.633V12.2707L13.615 12.4543C12.6769 12.7708 11.9712 13.381 11.5321 14.2552C11.3222 14.6731 10.9337 16.4014 10.9337 16.9173C10.9337 17.7449 11.415 18.5002 12.1873 18.8848L12.6736 19.127L15.9225 19.1549C19.5159 19.1857 20.0841 19.1388 20.6872 18.7615C21.1476 18.4736 21.594 17.7782 21.6765 17.2206C21.7533 16.7014 21.4211 14.8735 21.1395 14.2666C20.8107 13.5574 20.0925 12.8857 19.3099 12.5553C18.9574 12.4065 18.6311 12.2847 18.5849 12.2847C18.5387 12.2847 18.4883 11.9856 18.4729 11.6199C18.4482 11.0311 18.467 10.9285 18.6372 10.7237C18.743 10.5965 18.9339 10.2663 19.0616 9.99005C19.2883 9.49938 19.2937 9.45033 19.2937 7.89538C19.2937 6.32261 19.2908 6.29662 19.0493 5.76662C18.4359 4.41987 16.8943 3.67841 15.5197 4.0688ZM32.5096 4.61231C32.6792 4.70001 33.0609 4.96767 33.3576 5.20711C34.3193 5.98316 34.6209 6.10194 36.3481 6.38483C37.1405 6.51462 37.4666 6.68038 37.6418 7.04246C37.697 7.1565 37.8214 7.7291 37.9183 8.31478C38.1308 9.59982 38.2682 9.93247 38.9962 10.924C39.3055 11.3452 39.6061 11.8303 39.6644 12.0021C39.8361 12.5086 39.7848 12.6215 38.6453 14.2463C38.2182 14.8552 38.0662 15.312 37.89 16.5163C37.6741 17.992 37.5448 18.1122 35.911 18.3556C34.8113 18.5194 34.3243 18.7295 33.348 19.4614C32.4596 20.1275 32.3207 20.2028 31.9822 20.2028C31.6438 20.2028 31.5049 20.1275 30.6165 19.4614C29.6293 18.7214 29.1587 18.5216 28.0033 18.3517C26.4258 18.1198 26.2847 17.9893 26.0796 16.5724C25.8816 15.205 25.7625 14.881 25.1472 14.0361C24.8423 13.6172 24.4945 13.0683 24.3742 12.8163C24.1619 12.371 24.1596 12.3478 24.2919 11.9987C24.3668 11.801 24.6605 11.3294 24.9446 10.9507C25.759 9.86482 25.853 9.62711 26.0785 8.08317C26.1498 7.59466 26.2743 7.08154 26.3551 6.9428C26.5415 6.62272 26.9505 6.46772 28.0356 6.30591C29.2189 6.12948 29.5342 5.99883 30.4545 5.30359C31.6455 4.40377 31.9246 4.30987 32.5096 4.61231ZM17.0986 5.45894C17.4406 5.6389 17.841 6.09557 17.933 6.41065C18.0004 6.64131 17.8008 6.74261 16.9949 6.88651C16.5627 6.96371 16.4213 6.95545 16.1269 6.83599C15.7272 6.67384 15.4166 6.74218 15.2674 7.02491C14.8645 7.7884 15.8304 8.38939 17.1124 8.17285C17.4252 8.12001 17.767 8.05081 17.8721 8.01905C18.0549 7.9638 18.0631 7.98282 18.0626 8.46625C18.062 9.16433 17.9323 9.57246 17.5886 9.9582C17.2076 10.3859 16.8254 10.5634 16.2857 10.5634C15.5944 10.5634 15.045 10.2074 14.715 9.5456C14.5945 9.30402 14.5764 9.03463 14.599 7.81766C14.6242 6.45808 14.6373 6.35867 14.8303 6.07353C15.3582 5.293 16.299 5.03816 17.0986 5.45894ZM31.6427 7.48553C31.526 7.54664 31.121 8.05959 30.7427 8.62547L30.0548 9.6543L28.8384 10.0138C27.6126 10.3761 27.446 10.4734 27.3438 10.8862C27.261 11.2203 27.3748 11.4407 28.1259 12.402L28.8565 13.3368L28.828 14.668L28.7995 15.9992L29.0767 16.2506C29.2291 16.3889 29.4299 16.502 29.5227 16.502C29.6156 16.502 30.2046 16.3105 30.8318 16.0765L31.972 15.651L33.1354 16.0805C34.3997 16.5473 34.6187 16.5613 34.9559 16.1973C35.143 15.9955 35.1495 15.938 35.1318 14.6555L35.1134 13.3233L35.8407 12.3952C36.6008 11.4253 36.7037 11.2215 36.6149 10.8625C36.5197 10.478 36.2788 10.3422 35.0844 10.0005L33.9129 9.66532L33.2565 8.67178C32.8956 8.12534 32.5434 7.63055 32.4741 7.5722C32.2762 7.40566 31.8752 7.36392 31.6427 7.48553ZM32.5265 9.88074C32.8025 10.3085 33.1024 10.6986 33.1929 10.7477C33.2833 10.7968 33.6877 10.932 34.0914 11.0483C35.1556 11.3546 35.0885 11.3139 34.8931 11.5339C34.7996 11.6392 34.5265 11.989 34.2863 12.3114L33.8494 12.8975V13.9251C33.8494 14.4903 33.8337 14.9528 33.8143 14.9528C33.795 14.9528 33.4288 14.8172 33.0007 14.6515C32.5726 14.4859 32.1206 14.3505 31.9962 14.3507C31.8718 14.351 31.4116 14.4866 30.9734 14.652C30.5353 14.8174 30.1629 14.9528 30.1459 14.9528C30.129 14.9528 30.115 14.4909 30.115 13.9266V12.9004L29.8042 12.485C29.6333 12.2565 29.3617 11.9054 29.2007 11.7047C28.99 11.4422 28.9403 11.3287 29.0235 11.2998C29.087 11.2777 29.4693 11.1645 29.8731 11.0483C30.2768 10.932 30.6811 10.7968 30.7716 10.7477C30.8621 10.6986 31.1619 10.3085 31.438 9.88074C31.714 9.453 31.9589 9.10297 31.9822 9.10297C32.0056 9.10297 32.2505 9.453 32.5265 9.88074ZM17.2143 12.2612C17.2143 12.653 17.1852 12.7304 16.9893 12.8606C16.7317 13.0318 16.0319 13.0536 15.6654 12.902C15.4487 12.8123 15.432 12.7698 15.432 12.3084V11.8114H16.3232H17.2143V12.2612ZM14.5877 13.751C15.5786 14.4665 16.8776 14.4949 17.9094 13.8235C18.2738 13.5863 18.3409 13.5701 18.5994 13.6566C19.1167 13.8298 19.6541 14.2394 19.8825 14.6345C20.139 15.0783 20.471 16.655 20.3969 17.0777C20.3691 17.2363 20.2398 17.4453 20.0906 17.5726L19.8324 17.7929H16.2866H12.7408L12.5197 17.5851C12.398 17.4708 12.2735 17.2763 12.243 17.1529C12.1724 16.8675 12.4315 15.3628 12.6292 14.9097C12.8311 14.4476 13.2619 14.023 13.777 13.7787C14.2934 13.5337 14.2871 13.534 14.5877 13.751ZM3.50352 22.1354C3.38894 22.2516 3.29516 22.447 3.29516 22.5696C3.29516 22.8565 3.64874 23.2151 3.93171 23.2151C4.21467 23.2151 4.56825 22.8565 4.56825 22.5696C4.56825 22.2827 4.21467 21.9241 3.93171 21.9241C3.81076 21.9241 3.6181 22.0192 3.50352 22.1354ZM5.89524 22.1025C5.58597 22.3492 5.58597 22.79 5.89524 23.0367C6.11863 23.2149 6.12932 23.2151 16.235 23.2151H26.351L26.5356 23.0159C26.7967 22.7341 26.7794 22.3281 26.4965 22.1025C26.2731 21.9243 26.262 21.9241 16.1959 21.9241C6.12975 21.9241 6.11863 21.9243 5.89524 22.1025ZM3.72682 25.4669C3.28837 25.6314 3.17693 26.0517 3.4711 26.4309C3.81025 26.8682 4.56825 26.6346 4.56825 26.0926C4.56825 25.6177 4.15136 25.3077 3.72682 25.4669ZM6.04505 25.4889C5.63613 25.6706 5.53335 26.1733 5.84135 26.4856C6.00923 26.6558 6.12423 26.6577 16.1959 26.6577C26.2675 26.6577 26.3825 26.6558 26.5504 26.4856C26.7648 26.2681 26.7682 25.8764 26.5579 25.613L26.3956 25.4098L16.3519 25.3909C8.04499 25.3753 6.26266 25.3922 6.04505 25.4889ZM3.50352 29.1067C3.38894 29.2229 3.29516 29.4183 3.29516 29.5409C3.29516 29.8279 3.64874 30.1864 3.93171 30.1864C4.20822 30.1864 4.56825 29.8301 4.56825 29.5564C4.56825 28.9763 3.90726 28.6972 3.50352 29.1067ZM5.85612 29.0946C5.59505 29.3765 5.61236 29.7824 5.89524 30.008C6.11863 30.1863 6.12975 30.1864 16.1959 30.1864C26.262 30.1864 26.2731 30.1863 26.4965 30.008C26.7888 29.7749 26.8013 29.3471 26.5237 29.0826L26.3272 28.8954H16.184H6.04072L5.85612 29.0946ZM3.67709 32.4354C3.26257 32.6704 3.18516 33.0337 3.4711 33.4023C3.81458 33.8451 4.56825 33.575 4.56825 33.009C4.56825 32.5639 4.04484 32.2269 3.67709 32.4354ZM6.03783 32.4242C5.65921 32.58 5.54879 33.1603 5.84135 33.4569C6.00923 33.6272 6.12423 33.6291 16.1959 33.6291C26.2675 33.6291 26.3825 33.6272 26.5504 33.4569C26.7791 33.225 26.7746 32.759 26.5415 32.5451C26.3681 32.386 26.064 32.3806 16.293 32.3645C10.5914 32.3551 6.14282 32.381 6.03783 32.4242ZM3.4711 36.0936C3.14264 36.5169 3.33395 37.0206 3.86245 37.1241C4.4294 37.2351 4.79826 36.4602 4.37186 36.0539C4.0939 35.7891 3.69355 35.8067 3.4711 36.0936ZM5.85612 36.0659C5.61134 36.3302 5.62093 36.6838 5.87997 36.9465L6.08824 37.1578H16.1806C26.2621 37.1578 26.2731 37.1576 26.4965 36.9794C26.7767 36.7558 26.8031 36.2952 26.5504 36.0389C26.3825 35.8687 26.2675 35.8668 16.2106 35.8668H6.04072L5.85612 36.0659ZM3.66139 39.3961C3.06855 39.6384 3.27751 40.6004 3.92305 40.6004C4.49696 40.6004 4.76686 39.9333 4.35989 39.5207C4.14202 39.2997 3.97168 39.2693 3.66139 39.3961ZM5.87997 39.5207C5.61262 39.7917 5.60761 40.1652 5.868 40.4133L6.06448 40.6004H16.2225C26.2675 40.6004 26.3825 40.5985 26.5504 40.4283C26.8031 40.172 26.7767 39.7113 26.4965 39.4878C26.2731 39.3096 26.2621 39.3094 16.1806 39.3094H6.08824L5.87997 39.5207Z" fill="#398BEC"/>
</svg>
