<svg width="44" height="50" viewBox="0 0 44 50" fill="none" xmlns="http://www.w3.org/2000/svg">
<path fill-rule="evenodd" clip-rule="evenodd" d="M31.162 0.179227C29.0205 0.749995 27.4193 2.39842 26.8904 4.57687C26.71 5.31986 26.7348 6.73921 26.9407 7.45855C27.3431 8.86374 28.1694 10.0138 29.357 10.8212C30.2703 11.4422 31.1041 11.7148 32.2803 11.777C33.8972 11.8625 35.4354 11.2854 36.5564 10.1728C37.7384 8.99962 38.2319 7.87684 38.3082 6.1868C38.3642 4.94475 38.2378 4.29261 37.7367 3.23811C37.2828 2.28276 36.1244 1.11045 35.1631 0.633751C33.869 -0.0081317 32.4641 -0.167748 31.162 0.179227ZM33.8551 2.62748C34.6064 2.91321 35.3488 3.62689 35.7008 4.40192C35.9469 4.94377 35.9799 5.12625 35.9799 5.94445C35.9799 7.05033 35.7851 7.55184 35.0453 8.35002C33.8865 9.60028 32.0363 9.79662 30.6018 8.82154C28.845 7.62735 28.5617 5.07848 30.0124 3.51915C31.0497 2.40428 32.4276 2.08456 33.8551 2.62748ZM10.0061 8.09565C8.10177 8.60282 6.55688 10.1055 5.89076 12.0985C5.63736 12.8565 5.63736 14.7596 5.89076 15.5175C6.22257 16.5102 6.65153 17.2087 7.39116 17.9606C8.22295 18.806 8.96719 19.245 10.0439 19.525C13.682 20.4708 17.2864 17.6256 17.2864 13.808C17.2864 11.0882 15.3128 8.59433 12.7253 8.04446C11.8191 7.85193 10.8529 7.8701 10.0061 8.09565ZM12.5987 10.4335C13.4735 10.6995 14.4473 11.6916 14.7603 12.6358C14.9562 13.2269 14.9782 14.2352 14.8083 14.8337C14.5226 15.8399 13.4738 16.9058 12.4851 17.1949C11.8843 17.3707 10.8948 17.3501 10.323 17.1501C9.36896 16.8164 8.4183 15.8364 8.13858 14.8985C8.07189 14.6748 8.01913 14.1401 8.02134 13.7103C8.02461 13.0816 8.074 12.8215 8.27426 12.3799C8.72234 11.3915 9.55547 10.6579 10.5564 10.3703C11.0375 10.232 12.0376 10.2631 12.5987 10.4335ZM27.8452 13.6646C25.9295 13.8826 24.1063 14.8347 22.8952 16.2497C22.1322 17.141 22.0665 17.8671 22.6997 18.4088C22.9546 18.6267 23.0662 18.6577 23.4577 18.6196C23.8858 18.5777 23.9708 18.5189 24.7113 17.7524C25.5727 16.8608 26.2894 16.423 27.3277 16.1542C28.1651 15.9373 36.8729 15.935 37.6901 16.1514C39.0467 16.5106 40.4498 17.6411 41.0974 18.8967C41.6573 19.9822 41.6945 20.335 41.6961 24.5777L41.6975 28.4118H40.6405H39.5834V24.8414C39.5834 20.9687 39.569 20.853 39.0576 20.6161C38.6563 20.4302 38.3604 20.4784 38.0235 20.7843L37.7096 21.0693L37.6822 24.7357L37.6549 28.402L34.4408 28.4313L31.2268 28.4606L30.9339 28.7586C30.5615 29.1372 30.4724 29.6311 30.6917 30.1009C31.0047 30.7714 30.862 30.7565 36.9554 30.7541C42.0742 30.752 42.4424 30.7405 42.8026 30.5704C43.3073 30.3322 43.6011 30.0363 43.8204 29.5454C43.9865 29.1734 43.9995 28.8298 44 24.7975C44.0005 20.1316 43.9695 19.7521 43.4916 18.5491C43.0817 17.5176 42.6387 16.8647 41.6977 15.9051C40.9249 15.117 40.6443 14.9029 39.8717 14.5113C38.1664 13.6469 38.0607 13.6331 33.001 13.6052C30.5699 13.5918 28.2498 13.6185 27.8452 13.6646ZM23.8435 19.4205C21.768 19.9927 20.159 21.6216 19.6458 23.6702C19.4585 24.4176 19.4587 25.8622 19.6462 26.6086C20.078 28.3282 21.2522 29.7429 22.8814 30.5067C24.8588 31.4338 27.1143 31.1551 28.8876 29.7647C30.4372 28.5497 31.3067 26.3822 31.0327 24.4179C30.7048 22.0675 29.2736 20.3165 27.0216 19.5104C26.1906 19.213 24.7445 19.1721 23.8435 19.4205ZM6.81556 21.5805C5.06868 21.7701 3.55453 22.5244 2.24122 23.8594C1.26693 24.8498 0.738896 25.7057 0.306379 26.9954L0.0442361 27.7769L0.0134862 32.4349C-0.0162067 36.929 -0.0105372 37.1066 0.174347 37.4749C0.42073 37.966 0.94886 38.4354 1.40867 38.5721C1.65899 38.6466 3.45248 38.6705 7.22213 38.6498L12.6737 38.6198L12.9667 38.3219C13.3391 37.9433 13.4281 37.4493 13.2089 36.9796C12.9135 36.3467 12.7818 36.3242 9.37155 36.3242H6.33509V32.7979C6.33509 29.817 6.31213 29.2224 6.18634 28.953C5.84896 28.2302 4.88716 28.2383 4.52056 28.967C4.44734 29.1127 4.41322 30.314 4.41322 32.7523V36.3242H3.35619H2.29917V32.4374C2.29917 29.3102 2.32713 28.4414 2.44225 27.9921C2.91849 26.1334 4.47818 24.5479 6.30655 24.0638C7.13632 23.8441 15.8578 23.8498 16.6202 24.0704C16.9091 24.1541 17.3665 24.2469 17.6366 24.2767C18.0797 24.3257 18.157 24.3038 18.4312 24.0514C18.986 23.5405 18.9889 22.7885 18.4378 22.3172C18.0421 21.9787 17.0468 21.6812 15.9444 21.5719C14.8487 21.4631 7.8354 21.4698 6.81556 21.5805ZM26.7454 21.9472C29.4339 23.2324 29.4109 27.0486 26.7069 28.3527C26.1604 28.6162 25.9801 28.6538 25.2655 28.6528C24.5759 28.6519 24.359 28.6095 23.8722 28.3802C22.5752 27.7691 21.8097 26.5641 21.8072 25.1295C21.8056 24.182 22.1249 23.3925 22.8043 22.6647C23.8056 21.592 25.3966 21.3024 26.7454 21.9472ZM20.9413 32.8707C19.4223 33.0017 17.6428 33.7382 16.5028 34.7079C15.3339 35.7022 14.4268 37.1564 14.0019 38.7175C13.7969 39.4709 13.7891 39.6605 13.7858 43.9999L13.7823 48.5009L14.0711 48.9818C14.288 49.3431 14.4895 49.5296 14.8811 49.7314L15.4024 50H25.2639H35.1254L35.6139 49.7526C36.178 49.4668 36.5495 48.9805 36.6933 48.3394C36.8209 47.771 36.8247 41.1689 36.6981 39.9475C36.5017 38.0512 35.769 36.4517 34.5108 35.1726C33.7957 34.4458 33.2416 34.0578 32.2489 33.5896C30.7762 32.8946 30.5565 32.8698 25.6979 32.8506C23.3196 32.8411 21.1791 32.8502 20.9413 32.8707ZM30.9846 35.57C32.3527 36.1209 33.5373 37.3252 34.0793 38.7159L34.3463 39.4013L34.3743 43.5284L34.4023 47.6556H33.3413H32.2803V43.9828V40.3099L31.9819 40.0265C31.579 39.644 31.1428 39.6446 30.7204 40.0281L30.4065 40.3131L30.3781 43.9843L30.3497 47.6556H25.213H20.0765V44.0852C20.0765 40.2124 20.062 40.0968 19.5506 39.8599C19.1494 39.674 18.8534 39.7222 18.5165 40.0281L18.2026 40.3131L18.1742 43.9843L18.1458 47.6556H17.0848H16.0238L16.066 43.7238C16.1104 39.5907 16.1267 39.4239 16.5884 38.3751C17.0525 37.3208 18.1873 36.1716 19.2116 35.7187C20.2377 35.2649 20.3357 35.258 25.4577 35.2788L30.3104 35.2985L30.9846 35.57Z" fill="#4AD158"/>
</svg>
