<svg width="40" height="25" viewBox="0 0 40 25" fill="none" xmlns="http://www.w3.org/2000/svg">
<path d="M10.8342 6.34629C7.16709 6.39316 4.37233 8.91262 4.39072 12.6501C4.41406 14.3149 5.1004 15.905 6.30376 17.0823C7.50712 18.2596 9.13255 18.9311 10.8342 18.9539C14.0027 18.9539 17.3317 16.229 17.2777 12.6501C17.2236 9.07121 14.5013 6.29942 10.8342 6.34629ZM15.358 13.6894L13.8301 13.9619L13.0541 13.3346L13.3326 12.1106L14.1587 11.6501L15.5458 12.1455C15.5614 12.4339 15.5614 12.723 15.5458 13.0114C15.5087 13.2435 15.4449 13.4707 15.3558 13.6888L15.358 13.6894ZM10.0627 9.11155L9.99916 10.213L9.06552 10.7661L8.15588 10.5301L7.7219 9.20365C8.05128 8.80995 8.49066 8.51853 8.98643 8.36493L10.0627 9.11155ZM9.67276 17.2083C8.74303 17.0667 8.64663 16.8814 7.97371 16.2939L8.28569 14.8769H9.75068L10.4253 15.9293L9.67276 17.2083ZM11.1656 17.3315L11.9149 16.071C11.9642 15.9878 11.986 15.8918 11.9772 15.796C11.9684 15.7003 11.9296 15.6096 11.8659 15.5363L10.4253 13.8829C10.3808 13.8316 10.3254 13.7905 10.2629 13.7622C10.2005 13.734 10.1325 13.7194 10.0638 13.7194H7.72415C7.62054 13.7193 7.51976 13.7524 7.43719 13.8136C7.35461 13.8748 7.29474 13.9607 7.26678 14.0583L6.90135 15.3309C6.36924 14.5854 6.07051 13.7044 6.04162 12.7956C6.01274 11.8868 6.25495 10.9894 6.73869 10.213L7.09855 11.346C7.12093 11.4163 7.1601 11.4805 7.21279 11.5332C7.26547 11.5859 7.33019 11.6256 7.40162 11.649L8.91789 12.1444C8.98038 12.1649 9.04662 12.1723 9.11223 12.1663C9.17785 12.1603 9.24144 12.1409 9.29896 12.1095L11.067 11.147C11.1373 11.1088 11.1966 11.0538 11.2391 10.9871C11.2817 10.9203 11.3062 10.8441 11.3105 10.7656L11.4146 8.87285C11.4191 8.7928 11.4024 8.71296 11.366 8.64114C11.3295 8.56932 11.2747 8.50797 11.2068 8.46302L10.4665 7.97252C10.5891 7.96326 10.7117 7.95729 10.8364 7.95729C11.7781 7.95823 12.6987 8.22985 13.4839 8.73844C14.2691 9.24702 14.8842 9.97012 15.2528 10.8179L14.2657 10.3541C14.1978 10.3221 14.1231 10.3065 14.0479 10.3084C13.9726 10.3103 13.8989 10.3297 13.8328 10.365L12.4296 11.1144C12.3717 11.1453 12.3211 11.1876 12.2809 11.2388C12.2407 11.2899 12.2118 11.3487 12.1962 11.4114L11.7127 13.3335C11.6931 13.4102 11.6938 13.4904 11.7147 13.5667C11.7357 13.643 11.7762 13.7128 11.8324 13.7695L13.1783 15.132C13.2349 15.1893 13.3056 15.2313 13.3837 15.2541C13.4617 15.277 13.5444 15.2798 13.6239 15.2622L15.0165 14.9483C14.6264 15.6263 14.0702 16.1989 13.398 16.6147C12.7258 17.0305 11.9585 17.2764 11.1651 17.3304L11.1656 17.3315Z" fill="#C73232"/>
<path d="M37.1339 24.9989H16.0471C15.5823 25.001 15.1302 24.8505 14.7632 24.5715C14.3962 24.2925 14.1355 23.901 14.0228 23.4599L13.9454 23.2746C13.8333 23.0153 13.6457 22.7941 13.4058 22.6386C13.166 22.4831 12.8847 22.4002 12.597 22.4002C12.3093 22.4002 12.028 22.4831 11.7881 22.6386C11.5483 22.7941 11.3607 23.0153 11.2486 23.2746C11.0399 23.7786 10.6838 24.2112 10.2249 24.5182C9.76603 24.8251 9.22475 24.9927 8.66891 25H2.8655C2.10584 24.999 1.37759 24.7033 0.840423 24.1778C0.303262 23.6523 0.00103165 22.9398 0 22.1966V2.80396C0.00088458 2.06072 0.303068 1.34817 0.840262 0.82262C1.37746 0.29707 2.10579 0.00143805 2.8655 0.00057264H8.66947C9.22512 0.00775165 9.76625 0.175196 10.225 0.481931C10.6838 0.788666 11.0399 1.22104 11.2486 1.72489C11.3607 1.98414 11.5483 2.20534 11.7881 2.36085C12.028 2.51637 12.3093 2.59932 12.597 2.59932C12.8847 2.59932 13.166 2.51637 13.4058 2.36085C13.6457 2.20534 13.8333 1.98414 13.9454 1.72489L14.0233 1.53906C14.136 1.09785 14.3967 0.70638 14.7637 0.427338C15.1307 0.148296 15.5829 -0.00217683 16.0477 2.3799e-05H37.1345C37.8942 0.000745224 38.6227 0.296332 39.1599 0.821913C39.6971 1.34749 39.9993 2.06013 40 2.80341V22.195C39.9993 22.9384 39.6971 23.6512 39.1597 24.1769C38.6224 24.7025 37.8938 24.9982 37.1339 24.9989ZM16.2694 22.662H37.1339C37.2605 22.6619 37.3819 22.6126 37.4713 22.5251C37.5608 22.4375 37.6112 22.3188 37.6113 22.195V2.80396C37.6112 2.68014 37.5608 2.56142 37.4713 2.47387C37.3819 2.38631 37.2605 2.33705 37.1339 2.33691H16.2699L16.2382 2.41429L16.1446 2.63556C15.8499 3.31762 15.3563 3.8996 14.7254 4.30877C14.0946 4.71795 13.3545 4.93617 12.5976 4.93617C11.8406 4.93617 11.1005 4.71795 10.4697 4.30877C9.83881 3.8996 9.34519 3.31762 9.0505 2.63556C9.02347 2.55527 8.97317 2.48439 8.90572 2.43156C8.83827 2.37873 8.75658 2.34622 8.67058 2.33799H2.8655C2.73893 2.33814 2.61759 2.3874 2.52809 2.47496C2.43859 2.56251 2.38825 2.68122 2.3881 2.80505V22.195C2.38839 22.3188 2.43879 22.4374 2.52825 22.5249C2.61772 22.6124 2.73898 22.6617 2.8655 22.662H8.66947C8.75563 22.6534 8.83739 22.6205 8.90489 22.5674C8.9724 22.5143 9.02277 22.4433 9.04994 22.3628C9.34464 21.6808 9.83825 21.0988 10.4691 20.6896C11.1 20.2804 11.8401 20.0622 12.597 20.0622C13.3539 20.0622 14.094 20.2804 14.7249 20.6896C15.3557 21.0988 15.8494 21.6808 16.1441 22.3628L16.2371 22.5808C16.2471 22.6086 16.2588 22.6353 16.2694 22.662Z" fill="#C73232"/>
<path d="M34.1901 8.29492H20.1405C19.5031 8.29492 18.9863 8.80048 18.9863 9.42413C18.9863 10.0478 19.5031 10.5533 20.1405 10.5533H34.1901C34.8275 10.5533 35.3443 10.0478 35.3443 9.42413C35.3443 8.80048 34.8275 8.29492 34.1901 8.29492Z" fill="#C73232"/>
<path d="M31.2845 14.0957H20.1405C19.5031 14.0957 18.9863 14.6013 18.9863 15.2249C18.9863 15.8485 19.5031 16.3541 20.1405 16.3541H31.2845C31.9219 16.3541 32.4387 15.8485 32.4387 15.2249C32.4387 14.6013 31.9219 14.0957 31.2845 14.0957Z" fill="#C73232"/>
</svg>
