<svg width="40" height="40" viewBox="0 0 40 40" fill="none" xmlns="http://www.w3.org/2000/svg">
<path d="M21.2539 40H18.7531C18.6548 39.9707 18.5544 39.9488 18.4528 39.9344C16.3029 39.7983 14.1939 39.2844 12.2225 38.4164C5.69186 35.4837 1.69479 30.5102 0.314106 23.4804C0.167409 22.7438 0.103551 21.9916 0 21.2378V18.7467C0.0224361 18.6467 0.0517764 18.5483 0.0655833 18.4465C0.203651 17.5219 0.288219 16.5852 0.481514 15.6726C2.12798 7.85957 8.67587 1.6078 16.5596 0.307068C17.2879 0.186311 18.0231 0.101781 18.7548 0H21.2556C21.3399 0.0285571 21.4265 0.0499098 21.5145 0.0638287C22.9693 0.165553 24.408 0.431177 25.8032 0.855652C27.7362 1.4362 29.5689 2.30884 31.2379 3.44331C31.6659 3.73485 31.7557 4.1782 31.5106 4.55773C31.2656 4.93725 30.8203 5.01143 30.3785 4.74576C30.3101 4.70729 30.2449 4.66345 30.1834 4.61465C30.0961 4.5387 29.9898 4.48785 29.8758 4.4675C29.7619 4.44714 29.6445 4.45805 29.5362 4.49907C28.0037 4.92805 26.4711 5.34035 24.9386 5.73597C24.833 5.75406 24.7357 5.80442 24.6599 5.88011C24.5842 5.95581 24.5338 6.05311 24.5157 6.15862C24.0026 8.12064 23.4785 10.0786 22.9435 12.0326C22.9054 12.1267 22.8978 12.2304 22.9216 12.3291C22.9454 12.4278 22.9996 12.5165 23.0764 12.5829C24.5284 14.0217 25.9729 15.4667 27.41 16.9181C27.4747 16.9962 27.5624 17.052 27.6605 17.0777C27.7586 17.1033 27.8624 17.0976 27.9571 17.0613C29.9004 16.53 31.8454 16.0038 33.7974 15.5087C33.9221 15.4874 34.0368 15.4272 34.1252 15.3367C34.2136 15.2462 34.271 15.1301 34.2892 15.005C34.6344 13.6594 34.9882 12.3138 35.3662 10.9768C35.5129 10.4593 35.5888 10.016 35.2091 9.5312C34.8743 9.10338 35.1781 8.47889 35.6975 8.37883C36.1135 8.29948 36.3879 8.51167 36.6036 8.84289C38.6766 11.8976 39.8476 15.4738 39.9828 19.1625C40.1554 23.5753 39.0284 27.6483 36.5052 31.283C33.3107 35.8874 28.9305 38.701 23.406 39.6964C22.695 39.8275 21.9718 39.893 21.2539 40ZM26.5195 18.3258C26.4611 18.2213 26.3923 18.1231 26.3141 18.0325C24.873 16.5869 23.4233 15.1464 21.9856 13.6956C21.9201 13.6176 21.8317 13.5622 21.7329 13.5371C21.6341 13.5121 21.5299 13.5186 21.4351 13.5559C19.4676 14.093 17.4979 14.6203 15.5258 15.1378C15.4258 15.1541 15.3336 15.2016 15.2623 15.2735C15.191 15.3454 15.1443 15.438 15.1288 15.538C14.6111 17.5098 14.0726 19.4764 13.56 21.4499C13.5433 21.538 13.5459 21.6287 13.5677 21.7156C13.5894 21.8026 13.6298 21.8838 13.686 21.9537C15.1265 23.4154 16.5803 24.8668 18.0472 26.3078C18.1164 26.3649 18.1971 26.4063 18.2838 26.4292C18.3705 26.4522 18.4611 26.4561 18.5495 26.4407C20.5238 25.9231 22.4913 25.3901 24.464 24.8726C24.5699 24.8534 24.6672 24.8017 24.7423 24.7248C24.8175 24.6478 24.8668 24.5493 24.8833 24.443C25.1992 23.2113 25.5357 21.983 25.8654 20.7547L26.5195 18.3258ZM1.6085 18.6932C1.44454 19.0797 1.68789 19.3833 2.0089 19.6886C3.08238 20.7323 4.13514 21.7967 5.18619 22.8628C5.25062 22.9419 5.33806 22.999 5.43639 23.0262C5.53472 23.0534 5.63908 23.0493 5.73501 23.0146C7.70363 22.4787 9.67456 21.9502 11.6478 21.4292C11.7493 21.4134 11.8431 21.3655 11.9155 21.2926C11.9878 21.2196 12.0349 21.1255 12.0499 21.0238C12.5677 19.0515 13.0952 17.0814 13.6325 15.1136C13.6675 15.0183 13.6717 14.9144 13.6444 14.8166C13.6172 14.7188 13.5599 14.632 13.4806 14.5685C12.039 13.1378 10.6008 11.7002 9.16601 10.2557C9.0968 10.1727 9.00333 10.1135 8.89872 10.0862C8.7941 10.059 8.68359 10.0652 8.58267 10.1039C7.05356 10.5226 5.52158 10.9314 3.98672 11.3305C3.87524 11.3564 3.77174 11.4091 3.68515 11.4839C3.59856 11.5588 3.53147 11.6535 3.48967 11.76C2.41917 13.9275 1.78027 16.2822 1.6085 18.6932ZM18.6944 1.6147C16.2855 1.79033 13.9333 2.4294 11.7669 3.49679C11.656 3.54431 11.5582 3.61791 11.4819 3.71132C11.4056 3.80473 11.3529 3.91519 11.3285 4.03329C10.9316 5.55484 10.5254 7.0735 10.11 8.5893C10.0715 8.69034 10.0656 8.80092 10.0931 8.90551C10.1207 9.01009 10.1803 9.10342 10.2636 9.17238C11.7065 10.6008 13.1447 12.0384 14.5783 13.4851C14.6486 13.5667 14.7425 13.6243 14.8471 13.6499C14.9516 13.6756 15.0616 13.668 15.1616 13.6283C17.1176 13.0935 19.0736 12.5697 21.0295 12.0568C21.1297 12.0407 21.2222 11.9936 21.2941 11.9221C21.3659 11.8506 21.4134 11.7583 21.4299 11.6583C21.9477 9.68474 22.4764 7.71467 23.016 5.74805C23.0509 5.65233 23.0552 5.54813 23.0283 5.44985C23.0014 5.35158 22.9446 5.26408 22.8658 5.19946C21.7993 4.14888 20.7361 3.09484 19.692 2.02355C19.3831 1.68888 19.0862 1.44736 18.6996 1.60952L18.6944 1.6147ZM38.4865 21.0238C38.4234 20.8561 38.3368 20.6981 38.2294 20.5546C37.0972 19.4057 35.9478 18.2706 34.8139 17.1217C34.7477 17.0445 34.6591 16.9899 34.5605 16.9655C34.4618 16.941 34.3579 16.948 34.2634 16.9854C32.2959 17.5236 30.325 18.0509 28.3506 18.5673C28.251 18.5845 28.1594 18.6329 28.089 18.7054C28.0186 18.778 27.973 18.8709 27.9588 18.971C27.4445 20.9318 26.9204 22.887 26.3866 24.8363C26.3484 24.9366 26.3424 25.0462 26.3693 25.1501C26.3962 25.2539 26.4547 25.3468 26.5367 25.416C27.9703 26.834 29.397 28.2607 30.8168 29.6959C30.8943 29.7876 30.9987 29.8525 31.1153 29.8813C31.2318 29.9102 31.3545 29.9014 31.4658 29.8564C32.9684 29.4424 34.4756 29.0398 35.9875 28.6488C36.1053 28.622 36.2149 28.5674 36.3074 28.4897C36.3998 28.412 36.4724 28.3134 36.5191 28.202C37.6149 25.9521 38.2821 23.5179 38.4865 21.0238ZM20.9053 38.4095C23.4629 38.2824 25.9658 37.6232 28.2539 36.4739C28.4379 36.3718 28.5774 36.2053 28.6457 36.0064C29.0772 34.4676 29.4776 32.9202 29.9004 31.3797C29.9342 31.2835 29.9372 31.1792 29.909 31.0812C29.8809 30.9832 29.823 30.8964 29.7433 30.8328C28.3005 29.4021 26.8623 27.9645 25.4287 26.52C25.3594 26.4377 25.2662 26.379 25.1619 26.3521C25.0577 26.3252 24.9476 26.3314 24.8471 26.3699C22.8796 26.9099 20.9053 27.4257 18.9395 27.9674C18.8613 27.9952 18.79 28.0394 18.7305 28.0972C18.6709 28.1549 18.6245 28.2248 18.5943 28.3021C18.0432 30.2928 17.5071 32.2876 16.9858 34.2865C16.9713 34.3693 16.9748 34.4543 16.9963 34.5356C17.0177 34.6169 17.0566 34.6926 17.1101 34.7574C18.2607 35.9293 19.4193 37.0897 20.586 38.2387C20.6803 38.3158 20.7887 38.3739 20.9053 38.4095ZM17.1325 27.7017C17.0643 27.5935 16.9875 27.4908 16.903 27.3947C15.4705 25.9559 14.0295 24.5241 12.6005 23.0819C12.5365 23.0033 12.4494 22.9467 12.3516 22.9201C12.2538 22.8935 12.1501 22.8982 12.0551 22.9335C10.0876 23.4729 8.11669 23.9997 6.14231 24.5137C6.04212 24.5289 5.94934 24.5755 5.87737 24.6468C5.8054 24.7182 5.75796 24.8105 5.74191 24.9105C5.33461 26.4631 4.90833 28.0243 4.50448 29.5838C4.46627 29.7533 4.49209 29.9308 4.57696 30.0824C5.96284 32.2224 7.78618 34.0449 9.92711 35.4302C10.0667 35.5149 10.2331 35.5438 10.3931 35.5113C11.9653 35.1042 13.5324 34.6729 15.1047 34.2623C15.2047 34.2428 15.2961 34.1923 15.3658 34.118C15.4355 34.0437 15.48 33.9493 15.493 33.8483C15.8209 32.5786 16.1643 31.3124 16.5061 30.0444C16.7097 29.2854 16.9065 28.5332 17.1325 27.7017ZM21.5714 1.63367C21.5961 1.68063 21.6244 1.72561 21.656 1.76823C22.1784 2.29496 22.7024 2.81997 23.2283 3.34325C23.551 3.6624 23.834 4.13163 24.2206 4.24376C24.6072 4.35589 25.0663 4.09022 25.4909 3.97809C26.2589 3.77625 27.0251 3.56234 27.8812 3.32945C25.8958 2.39304 23.7589 1.81876 21.5714 1.63367ZM38.3778 18.4914C38.1995 16.2829 37.6224 14.1251 36.6744 12.1223C36.3913 13.1694 36.1739 14.1493 35.8563 15.0947C35.6734 15.6381 35.8011 15.9572 36.2015 16.3316C36.9281 16.994 37.6012 17.7134 38.3778 18.4914ZM3.3309 27.876C3.58805 26.9203 3.76063 26.0336 4.07301 25.1986C4.35951 24.4378 4.18865 23.9427 3.5846 23.4338C2.91324 22.8697 2.33335 22.1986 1.7155 21.5742C1.83222 23.7608 2.38126 25.9026 3.3309 27.876ZM18.4149 38.2749C17.7245 37.5849 17.0031 36.9293 16.3525 36.2048C15.9728 35.7838 15.6276 35.6734 15.0805 35.8597C14.1399 36.1685 13.17 36.3911 12.1293 36.6723C14.0968 37.6196 16.2338 38.1644 18.4149 38.2749ZM4.89625 9.42942C4.94805 9.44277 5.00161 9.448 5.05502 9.44495C6.13541 9.16031 7.21579 8.87911 8.28927 8.58239C8.36044 8.54928 8.42373 8.50138 8.47492 8.44188C8.52611 8.38239 8.56401 8.31267 8.58612 8.23737C8.87088 7.23854 9.13149 6.2328 9.399 5.22879C9.42316 5.13909 9.43351 5.04593 9.4663 4.88377C7.68975 6.12141 6.14315 7.65975 4.89625 9.42942ZM35.0331 30.5292C33.9061 30.8293 32.7774 31.1226 31.6539 31.4383C31.5538 31.4676 31.4554 31.6281 31.4192 31.7471C31.2466 32.3457 31.093 32.9547 30.9325 33.5516L30.5044 35.149C32.2999 33.9178 33.8382 32.3486 35.0331 30.5292Z" fill="#C305D3"/>
<path d="M34.376 6.39892C34.3749 6.60133 34.2963 6.79565 34.1564 6.94195C34.0164 7.08825 33.8257 7.17543 33.6235 7.18557C33.4247 7.18143 33.235 7.1014 33.0934 6.9619C32.9517 6.82239 32.8689 6.63399 32.8618 6.43536C32.8548 6.23672 32.924 6.04292 33.0554 5.89371C33.1867 5.7445 33.3703 5.65121 33.5683 5.63297C33.7766 5.62878 33.9783 5.70682 34.1294 5.8502C34.2806 5.99357 34.3692 6.19072 34.376 6.39892Z" fill="#C305D3"/>
</svg>
