<svg width="31" height="42" viewBox="0 0 31 42" fill="none" xmlns="http://www.w3.org/2000/svg">
<path d="M21.3422 38.9463C21.3419 39.1703 21.2532 39.385 21.0956 39.5434C20.938 39.7018 20.7243 39.791 20.5015 39.7913H3.04206C2.81919 39.791 2.60553 39.7018 2.44794 39.5434C2.29034 39.385 2.20166 39.1703 2.20135 38.9463V34.5969H19.167V33.3894H2.20135V3.05196C2.20166 2.82794 2.29034 2.61318 2.44794 2.45478C2.60553 2.29637 2.81919 2.20724 3.04206 2.20693H20.5009C20.7238 2.20724 20.9374 2.29637 21.095 2.45478C21.2526 2.61318 21.3413 2.82794 21.3416 3.05196V6.10122H4.45017V7.30875H21.3416V8.95879H22.5429V3.05255C22.5423 2.50838 22.327 1.98667 21.9441 1.60188C21.5613 1.21709 21.0423 1.00063 20.5009 1H3.04206C2.50071 1.00079 1.98176 1.21729 1.59897 1.60205C1.21618 1.98681 1.00079 2.50842 1 3.05255V38.9475C1.00063 39.4916 1.21598 40.0133 1.5988 40.3981C1.98163 40.7829 2.50066 40.9994 3.04206 41H20.5009C21.0423 40.9994 21.5613 40.7829 21.9441 40.3981C22.327 40.0133 22.5423 39.4916 22.5429 38.9475V32.2027H21.3416L21.3422 38.9463Z" fill="#FDB32B" stroke="#F9B02A" stroke-width="1.5"/>
<path d="M10.2617 3.52539H13.2859V4.73292H10.2617V3.52539Z" fill="#FDB32B" stroke="#F9B02A" stroke-width="1.5"/>
<path d="M9.81055 37.252C9.81055 37.6418 9.92554 38.0228 10.141 38.3469C10.3564 38.6709 10.6626 38.9235 11.0209 39.0727C11.3792 39.2219 11.7734 39.2609 12.1537 39.1849C12.5341 39.1088 12.8834 38.9211 13.1576 38.6455C13.4318 38.3699 13.6186 38.0187 13.6942 37.6365C13.7699 37.2542 13.731 36.8579 13.5826 36.4978C13.4342 36.1377 13.1829 35.8299 12.8605 35.6134C12.5381 35.3968 12.159 35.2812 11.7712 35.2812C11.2515 35.2822 10.7534 35.4901 10.3859 35.8595C10.0184 36.2289 9.81149 36.7296 9.81055 37.252ZM12.5335 37.252C12.5335 37.4032 12.4889 37.551 12.4053 37.6767C12.3218 37.8024 12.203 37.9004 12.064 37.9582C11.9251 38.0161 11.7722 38.0312 11.6246 38.0017C11.4771 37.9722 11.3416 37.8994 11.2352 37.7925C11.1289 37.6856 11.0565 37.5494 11.0271 37.4011C10.9978 37.2528 11.0128 37.0991 11.0704 36.9595C11.128 36.8198 11.2254 36.7004 11.3505 36.6164C11.4756 36.5324 11.6226 36.4876 11.773 36.4876C11.9746 36.4879 12.1679 36.5685 12.3104 36.7118C12.453 36.8551 12.5332 37.0493 12.5335 37.252Z" fill="#FDB32B" stroke="#F9B02A" stroke-width="1.5"/>
<path d="M19.7091 10.125C17.6737 10.125 15.684 10.7317 13.9916 11.8683C12.2993 13.0049 10.9802 14.6204 10.2013 16.5105C9.42242 18.4006 9.21863 20.4805 9.61572 22.487C10.0128 24.4935 10.9929 26.3367 12.4322 27.7833C13.8714 29.2299 15.7051 30.2151 17.7014 30.6142C19.6977 31.0133 21.7669 30.8085 23.6473 30.0256C25.5278 29.2427 27.135 27.9169 28.2658 26.2158C29.3966 24.5147 30.0002 22.5148 30.0002 20.469C29.9974 17.7265 28.9122 15.0971 26.9829 13.1578C25.0535 11.2186 22.4376 10.1278 19.7091 10.125ZM10.6187 20.469C10.6183 18.0866 11.5473 15.7991 13.2062 14.0975C14.8674 15.7977 15.7981 18.0854 15.7981 20.4684C15.7981 22.8514 14.8674 25.1391 13.2062 26.8392C11.5476 25.1381 10.6188 22.8509 10.6193 20.469H10.6187ZM14.1099 27.6514C15.9638 25.7248 17.0001 23.1493 17.0001 20.469C17.0001 17.7886 15.9638 15.2132 14.1099 13.2865C15.7354 11.9981 17.7512 11.3086 19.8211 11.3329C21.8911 11.3573 23.8903 12.094 25.4853 13.4203C23.7023 15.3299 22.7099 17.8504 22.7099 20.4693C22.7099 23.0881 23.7023 25.6087 25.4853 27.5183C23.8901 28.8444 21.891 29.5809 19.821 29.6052C17.7511 29.6294 15.7354 28.9398 14.1099 27.6514ZM26.3528 26.684C24.784 24.9985 23.9113 22.7767 23.9113 20.4687C23.9113 18.1606 24.784 15.9389 26.3528 14.2534C27.9244 15.9374 28.7991 18.1597 28.7991 20.4687C28.7991 22.7776 27.9244 25 26.3528 26.684Z" fill="#FDB32B" stroke="#F9B02A" stroke-width="1.5"/>
<path d="M4.45117 11.6562H9.9238V12.8638H4.45117V11.6562Z" fill="#FDB32B" stroke="#F9B02A" stroke-width="1.5"/>
<path d="M4.45117 20.4297H7.65953V21.6372H4.45117V20.4297Z" fill="#FDB32B" stroke="#F9B02A" stroke-width="1.5"/>
<path d="M4.45117 28.5605H9.9238V29.7681H4.45117V28.5605Z" fill="#FDB32B" stroke="#F9B02A" stroke-width="1.5"/>
</svg>
