<svg width="40" height="40" viewBox="0 0 40 40" fill="none" xmlns="http://www.w3.org/2000/svg">
<path d="M15.3921 0C16.0904 0.210343 16.7144 0.615038 17.1913 1.16681C21.1645 5.15167 25.14 9.13071 29.1179 13.1039C30.2707 14.2603 30.2673 15.717 29.1179 16.8699C28.96 17.0044 28.8295 17.1681 28.7336 17.352H37.2297C38.7004 17.352 39.4725 17.9144 39.9476 19.3223C39.9476 19.3432 39.9825 19.3607 40 19.3782V37.9738C39.9581 38.0786 39.9092 38.1834 39.8742 38.2917C39.7178 38.7865 39.4081 39.2186 38.9898 39.5257C38.5716 39.8328 38.0665 39.9989 37.5476 40C31.6367 40 25.7269 40 19.8183 40C19.4881 40.0011 19.1609 39.9357 18.8564 39.8078C18.5519 39.6799 18.2762 39.492 18.0458 39.2554C17.8154 39.0188 17.6349 38.7382 17.5151 38.4304C17.3953 38.1226 17.3386 37.7939 17.3485 37.4638C17.3485 34.7039 17.3485 31.9441 17.3485 29.1843V28.6463L16.8105 29.1738C16.5793 29.4282 16.2975 29.6315 15.9832 29.7706C15.6688 29.9097 15.3289 29.9815 14.9852 29.9815C14.6414 29.9815 14.3015 29.9097 13.9871 29.7706C13.6728 29.6315 13.391 29.4282 13.1598 29.1738C9.0329 25.0539 4.91295 20.9269 0.799998 16.793C0.450653 16.4227 0.262009 15.8672 0 15.3956V14.5362C0.249413 13.8111 0.69139 13.1674 1.2786 12.6742C2.32663 11.6472 3.37467 10.5956 4.40524 9.55808C4.8 9.16332 5.24017 9.13537 5.58253 9.46026C5.92489 9.78515 5.89694 10.2568 5.50568 10.6655C5.43581 10.7424 5.35895 10.8157 5.28559 10.8891L2.0262 14.152C1.39738 14.7808 1.39738 15.2 2.0262 15.8393L14.152 27.9651C14.7598 28.5729 15.2 28.5764 15.8148 27.9651C19.8672 23.9173 23.9185 19.8661 27.9686 15.8114C28.5659 15.214 28.5624 14.7633 27.9686 14.1485L15.8463 2.02271C15.214 1.39388 14.7983 1.39388 14.1555 2.02271C13.0061 3.17205 11.8603 4.32838 10.6969 5.46376C10.5136 5.645 10.2798 5.76674 10.0262 5.8131C9.87569 5.82665 9.725 5.78925 9.59829 5.70689C9.47159 5.62453 9.37623 5.502 9.32751 5.35895C9.25811 5.21666 9.23661 5.05574 9.2662 4.90022C9.29579 4.7447 9.3749 4.60293 9.4917 4.49607C10.7773 3.20349 12.0524 1.90044 13.3729 0.653273C13.7371 0.389753 14.134 0.17484 14.5537 0.0139715L15.3921 0ZM38.4489 28.6917V20.0594C38.4489 19.2524 38.117 18.9135 37.317 18.9135C34.0215 18.9135 30.7272 18.9135 27.4341 18.9135C27.3197 18.9088 27.2057 18.9291 27.1001 18.9732C26.9944 19.0172 26.8998 19.0839 26.8227 19.1686C24.2795 21.7304 21.7304 24.2806 19.1755 26.8192C19.0902 26.8961 19.0226 26.9905 18.9773 27.0961C18.9321 27.2016 18.9103 27.3158 18.9135 27.4306C18.9135 30.7214 18.9135 34.0157 18.9135 37.31C18.9135 38.1065 19.2629 38.4454 20.0559 38.4454H37.2821C38.1135 38.4454 38.4384 38.1205 38.4419 37.2891L38.4489 28.6917Z" fill="#0092FF"/>
<path d="M20.9641 12.1033C21.7125 12.1293 22.4216 12.4449 22.9418 12.9836C23.462 13.5222 23.7528 14.2418 23.7528 14.9906C23.7528 15.7395 23.462 16.4591 22.9418 16.9977C22.4216 17.5363 21.7125 17.8519 20.9641 17.878C20.5765 17.8915 20.1901 17.8268 19.8281 17.6877C19.466 17.5487 19.1356 17.3382 18.8566 17.0687C18.5776 16.7993 18.3558 16.4764 18.2042 16.1194C18.0527 15.7624 17.9746 15.3785 17.9746 14.9906C17.9746 14.6028 18.0527 14.2189 18.2042 13.8619C18.3558 13.5049 18.5776 13.182 18.8566 12.9125C19.1356 12.6431 19.466 12.4326 19.8281 12.2936C20.1901 12.1545 20.5765 12.0898 20.9641 12.1033ZM22.2742 14.9854C22.2756 14.8134 22.243 14.6427 22.1785 14.4833C22.1139 14.3238 22.0186 14.1786 21.8979 14.056C21.7772 13.9334 21.6336 13.8357 21.4752 13.7686C21.3167 13.7015 21.1467 13.6663 20.9746 13.6649C20.7988 13.6621 20.6242 13.6943 20.461 13.7595C20.2977 13.8248 20.149 13.9218 20.0236 14.045C19.8981 14.1682 19.7984 14.315 19.7302 14.4771C19.662 14.6391 19.6266 14.8131 19.6261 14.9889C19.6305 15.3366 19.7694 15.6691 20.0137 15.9166C20.2579 16.1641 20.5886 16.3074 20.9362 16.3164C21.1115 16.3178 21.2854 16.2843 21.4477 16.218C21.61 16.1516 21.7575 16.0537 21.8817 15.9299C22.0058 15.8061 22.1042 15.6588 22.1709 15.4967C22.2377 15.3345 22.2716 15.1608 22.2707 14.9854H22.2742Z" fill="#0092FF"/>
<path d="M14.98 23.837C14.2317 23.8109 13.5226 23.4953 13.0024 22.9567C12.4822 22.4181 12.1914 21.6985 12.1914 20.9496C12.1914 20.2008 12.4822 19.4812 13.0024 18.9426C13.5226 18.4039 14.2317 18.0883 14.98 18.0623C15.3677 18.0488 15.754 18.1135 16.1161 18.2525C16.4782 18.3916 16.8086 18.6021 17.0876 18.8715C17.3665 19.141 17.5884 19.4638 17.7399 19.8209C17.8915 20.1779 17.9696 20.5618 17.9696 20.9496C17.9696 21.3375 17.8915 21.7214 17.7399 22.0784C17.5884 22.4354 17.3665 22.7583 17.0876 23.0277C16.8086 23.2972 16.4782 23.5077 16.1161 23.6467C15.754 23.7857 15.3677 23.8505 14.98 23.837ZM14.98 22.2754C15.3277 22.2746 15.6611 22.1378 15.9092 21.8943C16.1573 21.6508 16.3003 21.3199 16.3076 20.9723C16.3076 20.6177 16.1679 20.2773 15.9188 20.0249C15.6697 19.7726 15.3312 19.6285 14.9765 19.6239C14.6284 19.6266 14.2951 19.7656 14.0483 20.0112C13.8014 20.2567 13.6606 20.5892 13.656 20.9374C13.6522 21.1139 13.6841 21.2893 13.7498 21.4531C13.8155 21.6169 13.9136 21.7657 14.0382 21.8907C14.1628 22.0157 14.3115 22.1142 14.4751 22.1803C14.6387 22.2464 14.8141 22.2787 14.9905 22.2754H14.98Z" fill="#0092FF"/>
<path d="M12.1055 9.02298C12.1041 8.45053 12.2728 7.89058 12.5902 7.41418C12.9076 6.93778 13.3594 6.56641 13.8882 6.34719C14.417 6.12798 14.999 6.07079 15.5604 6.1829C16.1217 6.29501 16.6371 6.57136 17.0412 6.97687C17.4452 7.38239 17.7197 7.8988 17.8297 8.46056C17.9398 9.02233 17.8805 9.60413 17.6594 10.1321C17.4382 10.6601 17.0652 11.1105 16.5876 11.4262C16.1101 11.7419 15.5495 11.9085 14.9771 11.9051C14.5991 11.9051 14.2248 11.8305 13.8758 11.6855C13.5267 11.5405 13.2096 11.3281 12.9429 11.0603C12.6761 10.7925 12.4648 10.4747 12.3211 10.1251C12.1774 9.7755 12.1041 9.40096 12.1055 9.02298ZM14.9806 10.3435C15.154 10.3435 15.3257 10.3093 15.4859 10.243C15.6462 10.1766 15.7917 10.0793 15.9143 9.95672C16.037 9.8341 16.1342 9.68853 16.2006 9.52831C16.267 9.3681 16.3011 9.19639 16.3011 9.02298C16.3011 8.84956 16.267 8.67784 16.2006 8.51763C16.1342 8.35742 16.037 8.21184 15.9143 8.08922C15.7917 7.9666 15.6462 7.86933 15.4859 7.80296C15.3257 7.7366 15.154 7.70245 14.9806 7.70245C14.8072 7.70245 14.6355 7.7366 14.4753 7.80296C14.315 7.86933 14.1695 7.9666 14.0468 8.08922C13.9242 8.21184 13.827 8.35742 13.7606 8.51763C13.6942 8.67784 13.6601 8.84956 13.6601 9.02298C13.6601 9.19639 13.6942 9.3681 13.7606 9.52831C13.827 9.68853 13.9242 9.8341 14.0468 9.95672C14.1695 10.0793 14.315 10.1766 14.4753 10.243C14.6355 10.3093 14.8072 10.3435 14.9806 10.3435Z" fill="#0092FF"/>
<path d="M11.9009 15.0016C11.8981 15.5721 11.7261 16.1289 11.4066 16.6015C11.0872 17.0742 10.6346 17.4413 10.1063 17.6566C9.57804 17.8719 8.99775 17.9255 8.43895 17.8107C7.88015 17.6959 7.36798 17.4179 6.9673 17.0119C6.56662 16.6058 6.29546 16.09 6.18816 15.5297C6.08086 14.9694 6.14225 14.3899 6.36454 13.8645C6.58683 13.3391 6.96004 12.8915 7.43689 12.5784C7.91374 12.2653 8.47279 12.1007 9.04324 12.1056C9.80551 12.113 10.5339 12.4217 11.0693 12.9643C11.6047 13.5069 11.9037 14.2393 11.9009 15.0016ZM10.3393 14.9702C10.3455 14.7914 10.3154 14.6132 10.2506 14.4464C10.1859 14.2797 10.0879 14.1278 9.96272 14C9.8375 13.8723 9.68763 13.7713 9.5222 13.7032C9.35676 13.6351 9.17922 13.6013 9.00034 13.6039C8.82147 13.6065 8.64498 13.6454 8.4816 13.7183C8.31822 13.7912 8.17136 13.8965 8.04992 14.0279C7.92848 14.1593 7.835 14.3139 7.77515 14.4825C7.7153 14.6511 7.69032 14.8301 7.70175 15.0086C7.69553 15.1874 7.72571 15.3656 7.79044 15.5324C7.85518 15.6992 7.95313 15.851 8.07834 15.9788C8.20356 16.1066 8.35343 16.2076 8.51886 16.2757C8.6843 16.3438 8.86184 16.3775 9.04072 16.3749C9.2196 16.3723 9.39608 16.3334 9.55946 16.2605C9.72284 16.1876 9.8697 16.0823 9.99114 15.9509C10.1126 15.8196 10.2061 15.6649 10.2659 15.4963C10.3258 15.3277 10.3507 15.1487 10.3393 14.9702Z" fill="#0092FF"/>
<path d="M8.29968 7.5162C8.30248 7.6172 8.28505 7.71775 8.24842 7.81193C8.2118 7.90611 8.15672 7.99201 8.08641 8.06459C8.01611 8.13717 7.932 8.19497 7.83904 8.23458C7.74608 8.27419 7.64614 8.29481 7.54509 8.29523C7.44077 8.29808 7.33695 8.27975 7.23991 8.24135C7.14287 8.20295 7.05462 8.14527 6.9805 8.0718C6.90638 7.99833 6.84792 7.9106 6.80866 7.8139C6.7694 7.71721 6.75016 7.61355 6.75208 7.50921C6.75753 7.305 6.84226 7.11093 6.98833 6.96812C7.1344 6.82531 7.33033 6.74498 7.53461 6.74414C7.73816 6.74598 7.93275 6.82814 8.07603 6.97273C8.21931 7.11732 8.29969 7.31264 8.29968 7.5162Z" fill="#0092FF"/>
<path d="M31.5633 28.6587C31.5667 29.2306 31.4004 29.7906 31.0854 30.2678C30.7703 30.7451 30.3207 31.1181 29.7935 31.3396C29.2664 31.5612 28.6853 31.6213 28.1239 31.5124C27.5625 31.4034 27.0461 31.1304 26.64 30.7277C26.234 30.3251 25.9565 29.811 25.8428 29.2506C25.7291 28.6901 25.7843 28.1085 26.0014 27.5795C26.2185 27.0504 26.5877 26.5977 27.0622 26.2786C27.5368 25.9596 28.0953 25.7885 28.6672 25.7871C29.4313 25.7862 30.1648 26.0876 30.7074 26.6257C31.2501 27.1637 31.5577 27.8946 31.5633 28.6587ZM30.0017 28.6587C29.9996 28.3968 29.9201 28.1413 29.7731 27.9244C29.6262 27.7076 29.4183 27.5391 29.1758 27.4401C28.9332 27.3411 28.6668 27.3161 28.4101 27.3682C28.1534 27.4204 27.9178 27.5473 27.7331 27.733C27.5483 27.9187 27.4227 28.1549 27.3719 28.4119C27.3211 28.6689 27.3475 28.9352 27.4478 29.1772C27.548 29.4192 27.7176 29.6262 27.9352 29.772C28.1528 29.9178 28.4087 29.996 28.6707 29.9967C28.8458 29.9967 29.0191 29.9622 29.1808 29.8951C29.3426 29.828 29.4895 29.7296 29.6131 29.6056C29.7367 29.4817 29.8347 29.3345 29.9014 29.1726C29.9681 29.0108 30.0022 28.8373 30.0017 28.6622V28.6587Z" fill="#0092FF"/>
</svg>
