<svg width="36" height="40" viewBox="0 0 36 40" fill="none" xmlns="http://www.w3.org/2000/svg">
<path d="M12.5814 40.0006C12.1472 39.8563 11.7768 39.5668 11.5333 39.1814C11.2898 38.7959 11.1884 38.3385 11.2464 37.887C11.2464 36.1372 11.2464 34.3972 11.2464 32.6474C11.2222 31.2158 11.6947 29.8195 12.5844 28.6934C13.4741 27.5673 14.7268 26.7801 16.1317 26.4641C16.5909 26.3499 17.0627 26.2938 17.536 26.297C19.7908 26.297 22.0456 26.297 24.2905 26.297C25.7693 26.3969 27.1623 27.0235 28.214 28.0617C29.2657 29.0999 29.9057 30.4802 30.0164 31.9495C30.1054 34.0434 30.0164 36.1372 30.0164 38.2311C30.0276 38.6249 29.9048 39.0108 29.6679 39.3266C29.431 39.6424 29.0939 39.8694 28.711 39.9711L12.5814 40.0006ZM24.8641 38.1131V32.8834C24.8495 32.7166 24.8495 32.5488 24.8641 32.382C24.9058 32.2113 25.006 32.0604 25.1474 31.9551C25.2889 31.8498 25.4627 31.7967 25.6392 31.8048C25.8158 31.8129 25.9839 31.8818 26.1149 31.9997C26.246 32.1176 26.3317 32.277 26.3574 32.4508C26.3672 32.5948 26.3672 32.7394 26.3574 32.8834V38.0935H28.088C28.088 36.1274 28.088 34.1613 28.088 32.1952C28.0368 31.1412 27.59 30.1445 26.8357 29.402C26.0813 28.6595 25.0744 28.225 24.0136 28.1844C21.772 28.1255 19.5205 28.1255 17.2591 28.1844C16.193 28.2152 15.1776 28.644 14.4152 29.3854C13.6529 30.1269 13.1994 31.1266 13.1451 32.1854C13.0561 34.1515 13.1451 36.0094 13.1451 37.9264C13.1371 37.9785 13.1371 38.0315 13.1451 38.0836H14.8164V32.8735C14.8166 32.6917 14.8365 32.5104 14.8758 32.3329C14.919 32.1677 15.0185 32.0225 15.1574 31.9221C15.2962 31.8217 15.4659 31.7723 15.6373 31.7824C15.808 31.7884 15.9715 31.8521 16.1009 31.9629C16.2303 32.0736 16.3179 32.225 16.3493 32.3918C16.364 32.5324 16.364 32.674 16.3493 32.8146V38.0935L24.8641 38.1131Z" fill="#441ABB"/>
<path d="M30.8257 22.7378V20.2409C30.8257 19.2579 30.8257 18.2748 30.8257 17.3508C30.8257 16.7708 31.1421 16.4169 31.6069 16.4169C32.0717 16.4169 32.3882 16.7708 32.3882 17.3508V22.7181H34.0793C34.0793 22.7181 34.0793 22.6592 34.0793 22.6395C34.0793 20.6734 34.0793 18.7074 34.0793 16.7413C34.0004 15.7161 33.5517 14.7538 32.8158 14.0313C32.0799 13.3088 31.1063 12.8748 30.0741 12.8091C27.7204 12.76 25.3568 12.8091 23.0032 12.8091C22.4441 12.8341 21.8968 12.9767 21.3973 13.2275C20.8978 13.4783 20.4575 13.8316 20.1056 14.264L19.8484 14.5688C19.6898 14.7484 19.4708 14.8645 19.2324 14.8952C18.994 14.926 18.7524 14.8693 18.5529 14.7359C18.447 14.6627 18.3579 14.568 18.2916 14.458C18.2253 14.3481 18.1832 14.2253 18.1683 14.098C18.1533 13.9706 18.1657 13.8415 18.2048 13.7193C18.2438 13.5971 18.3086 13.4846 18.3947 13.3891C18.9082 12.8193 19.4781 12.3022 20.0957 11.8457C21.0652 11.1807 22.2211 10.8367 23.3987 10.8627C25.6832 10.8627 27.9577 10.8627 30.2323 10.8627C31.7443 10.9693 33.1644 11.6237 34.2235 12.7018C35.2825 13.7798 35.9068 15.2067 35.978 16.7118C36.0275 18.7565 35.978 20.8012 35.978 22.8459C36.0037 23.0728 35.9799 23.3025 35.9084 23.5194C35.8369 23.7364 35.7194 23.9355 35.5637 24.1033C35.408 24.2711 35.2178 24.4037 35.0061 24.492C34.7943 24.5804 34.5659 24.6225 34.3364 24.6154H26.0689C25.8456 24.623 25.6263 24.5553 25.4468 24.4232C25.2672 24.2911 25.1379 24.1024 25.0799 23.888C25.0364 23.6961 25.0585 23.4952 25.1427 23.3172C25.2269 23.1392 25.3683 22.9941 25.5447 22.9049C25.7615 22.8182 25.9934 22.7748 26.2271 22.7771H30.8751L30.8257 22.7378Z" fill="#441ABB"/>
<path d="M1.90042 29.0584H3.62117V23.6812C3.59953 23.5258 3.6213 23.3675 3.68409 23.2236C3.74689 23.0797 3.84828 22.9558 3.97719 22.8653C4.07344 22.7981 4.1844 22.7546 4.30089 22.7384C4.41739 22.7222 4.53608 22.7338 4.64718 22.7723C4.75828 22.8107 4.85859 22.8748 4.93984 22.9593C5.02109 23.0439 5.08095 23.1464 5.11447 23.2585C5.16171 23.4349 5.18499 23.6167 5.18369 23.7992V29.0683H9.9306C10.1552 29.0612 10.3755 29.1304 10.5552 29.2644C10.735 29.3984 10.8635 29.5893 10.9195 29.8056C10.9638 29.9964 10.9432 30.1964 10.8609 30.3743C10.7786 30.5522 10.6392 30.6979 10.4646 30.7886C10.2766 30.8791 10.0703 30.9262 9.86137 30.9262C7.15168 30.9262 4.43869 30.9262 1.72241 30.9262C1.4958 30.9417 1.26846 30.9094 1.05529 30.8314C0.842119 30.7534 0.647936 30.6316 0.485465 30.4738C0.322993 30.316 0.195904 30.1258 0.112526 29.9158C0.0291488 29.7058 -0.00863382 29.4806 0.00165451 29.2551C0.00165451 27.1415 0.00165451 25.028 0.00165451 22.9243C0.112809 21.5704 0.668666 20.2904 1.58361 19.2815C2.49855 18.2725 3.72183 17.5905 5.06502 17.3406C5.44977 17.2673 5.84026 17.2279 6.23197 17.2227C8.49664 17.2227 10.7712 17.2227 13.0359 17.2718C13.6211 17.315 14.1972 17.4407 14.7467 17.6454C14.8697 17.6791 14.9844 17.7373 15.084 17.8165C15.1836 17.8957 15.2659 17.9943 15.3259 18.1062C15.3859 18.218 15.4224 18.3409 15.4331 18.4672C15.4438 18.5935 15.4286 18.7207 15.3882 18.841C15.3479 18.9612 15.2834 19.0721 15.1985 19.1668C15.1137 19.2614 15.0104 19.3379 14.8948 19.3916C14.7793 19.4453 14.654 19.4751 14.5265 19.4791C14.399 19.4831 14.2721 19.4612 14.1534 19.4148C13.3814 19.1672 12.57 19.0639 11.7601 19.1101C9.78226 19.1101 7.90328 19.1101 5.98473 19.1101C4.89778 19.1546 3.86837 19.6076 3.10465 20.3778C2.34094 21.1479 1.89991 22.1775 1.87075 23.2585C1.87075 25.1066 1.87075 26.9547 1.87075 28.8029C1.88064 28.9012 1.89053 28.9601 1.90042 29.0584Z" fill="#441ABB"/>
<path d="M4.66806 11.0387C4.67201 10.1027 4.95534 9.18887 5.48217 8.41305C6.00899 7.63724 6.75561 7.0343 7.62744 6.68062C8.49927 6.32694 9.45709 6.23843 10.3796 6.4263C11.302 6.61417 12.1477 7.06997 12.8093 7.73596C13.471 8.40195 13.9189 9.24817 14.0964 10.1674C14.2738 11.0867 14.1728 12.0376 13.8062 12.8997C13.4395 13.7619 12.8236 14.4964 12.0366 15.0104C11.2497 15.5243 10.3269 15.7945 9.3853 15.7868C8.76192 15.7829 8.14542 15.657 7.57098 15.4163C6.99655 15.1756 6.47543 14.8248 6.03739 14.3839C5.59936 13.943 5.25297 13.4206 5.01802 12.8467C4.78307 12.2727 4.66415 11.6583 4.66806 11.0387ZM9.37541 8.20752C8.80905 8.2114 8.25652 8.3819 7.7875 8.6975C7.31848 9.0131 6.95398 9.45968 6.73994 9.98093C6.5259 10.5022 6.47192 11.0748 6.58481 11.6265C6.69769 12.1782 6.97238 12.6843 7.37424 13.081C7.7761 13.4777 8.28714 13.7473 8.84292 13.8557C9.3987 13.9641 9.97432 13.9065 10.4972 13.6902C11.0201 13.4739 11.4669 13.1085 11.7811 12.6401C12.0954 12.1717 12.2631 11.6213 12.2631 11.0583C12.2579 10.3005 11.9513 9.57538 11.4104 9.0413C10.8694 8.50723 10.1379 8.2075 9.37541 8.20752Z" fill="#441ABB"/>
<path d="M31.3693 4.74817C31.3673 5.68614 31.0853 6.60242 30.5591 7.38095C30.0328 8.15949 29.2859 8.76523 28.413 9.12147C27.5401 9.4777 26.5805 9.5684 25.6557 9.38206C24.7309 9.19572 23.8825 8.74074 23.2181 8.07474C22.5536 7.40874 22.103 6.5617 21.9232 5.64091C21.7435 4.72011 21.8427 3.767 22.2083 2.90231C22.5739 2.03761 23.1895 1.30023 23.9771 0.783583C24.7646 0.266934 25.6887 -0.00574418 26.6323 9.17536e-05C27.8931 0.00788946 29.0994 0.511887 29.9872 1.40176C30.875 2.29164 31.3719 3.4949 31.3693 4.74817ZM29.4606 4.74817C29.4587 4.18545 29.2886 3.63599 28.972 3.16948C28.6555 2.70296 28.2067 2.3404 27.6825 2.12778C27.1584 1.91516 26.5825 1.86205 26.028 1.97519C25.4735 2.08832 24.9652 2.36262 24.5677 2.76328C24.1702 3.16393 23.9014 3.67291 23.7953 4.22566C23.6891 4.77841 23.7506 5.35004 23.9717 5.86804C24.1929 6.38605 24.5638 6.8271 25.0375 7.13526C25.5112 7.44343 26.0662 7.60482 26.6323 7.59899C27.0102 7.5977 27.3842 7.52243 27.7328 7.37747C28.0815 7.23252 28.398 7.02073 28.6643 6.75418C28.9306 6.48763 29.1415 6.17155 29.2849 5.82398C29.4284 5.47642 29.5015 5.10418 29.5002 4.72851L29.4606 4.74817Z" fill="#441ABB"/>
<path d="M15.9338 20.0834C15.9401 19.1414 16.2288 18.2226 16.763 17.4445C17.2972 16.6663 18.0526 16.0641 18.9328 15.7148C19.8129 15.3654 20.7778 15.2848 21.7043 15.4832C22.6308 15.6817 23.4767 16.1501 24.134 16.8287C24.7914 17.5073 25.2303 18.3653 25.3947 19.2931C25.5592 20.2208 25.4417 21.1763 25.0572 22.0373C24.6728 22.8984 24.0388 23.626 23.2364 24.1272C22.4339 24.6284 21.4994 24.8805 20.5521 24.8512C19.3078 24.8152 18.1273 24.2958 17.2638 23.4044C16.4004 22.5131 15.9229 21.3208 15.9338 20.0834ZM17.8325 20.0834C17.8228 20.6456 17.9811 21.198 18.2874 21.6708C18.5938 22.1435 19.0343 22.5152 19.5533 22.7388C20.0723 22.9625 20.6463 23.0281 21.2028 22.9272C21.7593 22.8263 22.2731 22.5636 22.6793 22.1723C23.0855 21.7809 23.3657 21.2786 23.4845 20.7288C23.6032 20.1791 23.5552 19.6067 23.3465 19.084C23.1378 18.5614 22.7778 18.1121 22.312 17.7931C21.8463 17.474 21.2957 17.2995 20.7301 17.2916C19.977 17.2862 19.2517 17.5744 18.71 18.0946C18.1682 18.6147 17.8532 19.3252 17.8325 20.0736V20.0834Z" fill="#441ABB"/>
</svg>
