<svg width="40" height="40" viewBox="0 0 40 40" fill="none" xmlns="http://www.w3.org/2000/svg">
<path d="M18.8648 0H21.1832C21.8732 0.0827901 22.5287 0.144879 23.1911 0.255266C28.2197 1.07923 32.7458 3.7865 35.85 7.82698C38.9541 11.8675 40.4033 16.938 39.9031 22.0084C39.5404 26.1677 37.8244 30.0936 35.0179 33.185C33.2526 35.2318 31.0827 36.891 28.6447 38.0582C26.2067 39.2254 23.5535 39.8753 20.852 39.9669C16.9765 40.1958 13.1238 39.2328 9.8119 37.2072C7.31823 35.752 5.17472 33.7668 3.5329 31.392C1.89107 29.0172 0.791016 26.3108 0.310501 23.4641C0.1725 22.7121 0.103501 21.9532 0 21.1943V18.8485C0.0345004 18.5726 0.0621002 18.2897 0.0966006 18.0068C0.549636 13.6748 2.40037 9.60775 5.36923 6.42023C8.33809 3.2327 12.2638 1.09781 16.5533 0.338058C17.3399 0.179377 18.1058 0.103488 18.8648 0ZM31.2159 6.76119C27.9286 3.97775 23.7218 2.51909 19.4168 2.66998C19.4392 6.63776 18.0694 10.4878 15.5459 13.55L20.0033 18.0344C23.7247 14.2951 27.4623 10.5373 31.2159 6.76119ZM6.81037 31.1912L17.9747 19.9662L13.5931 15.5852C10.577 18.2341 6.70532 19.7041 2.69102 19.7247C2.63655 23.9185 4.09948 27.9906 6.81037 31.1912ZM33.1755 8.76885L22.0319 19.9593L25.3647 23.3399C28.7159 20.5871 32.9966 19.2263 37.3225 19.5385C37.6192 16.5511 35.3077 10.6109 33.1755 8.76885ZM23.3291 25.3269L19.955 21.9256L8.76309 33.1574C11.693 35.6702 15.3811 37.1277 19.2374 37.2969C18.9843 32.9214 20.4528 28.6204 23.3291 25.3131V25.3269ZM25.2543 27.1827C22.8789 29.9733 21.6814 33.5778 21.9146 37.2349C25.3594 36.8601 28.6121 35.4587 31.2504 33.2126L25.2543 27.1827ZM37.2259 22.2222C33.6536 21.9317 30.1038 23.004 27.2898 25.2234L33.2514 31.2119C35.4175 28.6571 36.7979 25.5302 37.2259 22.2084V22.2222ZM11.6956 13.7018L6.86557 8.82404C5.20955 10.4247 3.00153 15.1506 3.04983 17.0548C6.22729 16.9512 9.27353 15.7631 11.6818 13.688L11.6956 13.7018ZM13.6345 11.6941C15.6145 9.22254 16.7121 6.16062 16.7534 2.99424C13.8026 3.55534 11.0489 4.87498 8.76309 6.82328L13.6345 11.6941Z" fill="#BCAC19"/>
</svg>
