<svg width="232" height="34" viewBox="0 0 232 34" fill="none" xmlns="http://www.w3.org/2000/svg">
<path d="M29.8137 0C30.4352 0.195915 31.0618 0.386925 31.6743 0.609289C31.9359 0.729539 32.1871 0.870413 32.4256 1.03051C26.2549 5.31983 20.9065 10.648 16.6278 16.7683C14.5315 14.4874 12.2638 12.3643 9.8438 10.4168L7.0005 13.3496L18.3308 25.943C18.4305 25.7373 18.4934 25.607 18.5533 25.4738C21.0632 19.7853 24.0889 14.33 27.5939 9.17369C29.2207 6.75571 31.1049 4.51456 33.2147 2.48811C33.3264 2.38329 33.4432 2.28436 33.5888 2.15506C34.3816 3.13786 34.8023 4.36042 34.779 5.61394C34.779 10.2506 34.779 14.8895 34.779 19.5307C34.779 22.4126 34.7381 25.2945 34.79 28.1755C34.8553 29.5383 34.4084 30.8772 33.5342 31.9377C32.6599 32.9982 31.4193 33.7063 30.0482 33.9275C29.9948 33.9439 29.9443 33.9684 29.8985 34H4.89845C4.77674 33.9647 4.65703 33.9236 4.53432 33.8952C3.51688 33.7025 2.57435 33.235 1.81264 32.5452C1.05094 31.8555 0.500258 30.9708 0.222483 29.9906C0.137683 29.7271 0.0738259 29.4567 0 29.1903V4.89296C0.0329224 4.77345 0.0728344 4.65493 0.0997709 4.53444C0.268322 3.58374 0.692412 2.69449 1.32821 1.95862C1.964 1.22275 2.78842 0.666975 3.71624 0.348731C4.12428 0.194938 4.56125 0.11461 4.98525 0H29.8137Z" fill="#394155"/>
<path d="M232 32.2314C228.964 32.2281 225.929 32.2252 222.893 32.2225C219.729 32.2225 216.564 32.2225 213.399 32.2225H212.642V1.11719H231.444V6.64882H219.56V13.6038H229.748V19.2148H219.541V26.6449H231.443C231.629 26.6449 231.814 26.6576 232 26.6644V32.2314Z" fill="#394155"/>
<path d="M160.188 32.203V1.12215C160.287 1.10686 160.387 1.09671 160.487 1.09177C164.477 1.09177 168.476 1.081 172.471 1.11038C174.151 1.10169 175.817 1.41238 177.377 2.02531C178.552 2.45882 179.579 3.20583 180.345 4.18215C181.11 5.15847 181.583 6.32527 181.709 7.55107C181.913 8.71932 181.87 9.91627 181.584 11.0678C181.324 12.0741 180.828 13.0068 180.135 13.791C179.442 14.5751 178.572 15.1891 177.593 15.5836C177.457 15.6433 177.322 15.707 177.186 15.7677V15.8853C177.353 15.9235 177.519 15.9676 177.685 15.9989C178.639 16.1291 179.553 16.4607 180.364 16.9709C181.175 17.4811 181.864 18.1577 182.383 18.9543C183.255 20.4127 183.58 22.1245 183.302 23.7934C182.795 27.9526 180.342 30.5681 176.034 31.63C174.392 32.0242 172.707 32.2215 171.016 32.2177C167.508 32.2304 164.001 32.2177 160.493 32.2177C160.412 32.2177 160.327 32.2099 160.188 32.203ZM167.06 19.0689C167.037 19.1658 167.02 19.2639 167.008 19.3628C167.008 21.6814 167.008 24.001 166.998 26.3177C166.998 26.6381 167.173 26.64 167.407 26.64C168.766 26.64 170.126 26.6528 171.486 26.6322C172.088 26.6354 172.688 26.5869 173.282 26.4872C174.093 26.3823 174.841 26.0027 175.398 25.4141C175.955 24.8254 176.285 24.0645 176.331 23.2624C176.447 22.4508 176.26 21.6255 175.805 20.9384C175.35 20.2514 174.658 19.7488 173.855 19.5234C173.592 19.4132 173.314 19.341 173.029 19.3089C171.05 19.2168 169.067 19.1473 167.061 19.0699L167.06 19.0689ZM167.022 13.5706C168.313 13.5706 169.554 13.595 170.795 13.5598C171.351 13.5391 171.904 13.4593 172.444 13.3217C173.218 13.1747 173.914 12.7649 174.412 12.1643C174.909 11.5636 175.176 10.8103 175.164 10.0363C175.196 9.23764 174.915 8.45733 174.379 7.85598C173.843 7.25462 173.092 6.87801 172.282 6.80367C172.13 6.76511 171.974 6.7405 171.817 6.73019C170.259 6.70734 168.702 6.68905 167.144 6.67534C167.107 6.67534 167.07 6.70962 167.021 6.73411L167.022 13.5706Z" fill="#394155"/>
<path d="M138.907 4.23707L134.485 8.96155L133.794 8.32776C131 5.76814 126.339 6.14332 124.125 7.75472C122.811 8.71137 121.883 10.0922 121.503 11.6544C120.543 15.2266 120.656 18.9951 121.827 22.5061C122.886 25.7054 125.301 27.2433 128.866 27.164C129.706 27.1049 130.543 27.0025 131.372 26.8574C131.72 26.8133 131.819 26.6281 131.817 26.2833C131.803 23.1056 131.809 19.9288 131.809 16.7511V16.227H138.71C138.718 16.3554 138.734 16.4896 138.734 16.6189C138.734 20.9212 138.736 25.2234 138.741 29.5257C138.751 29.6487 138.725 29.772 138.664 29.8803C138.604 29.9886 138.513 30.0772 138.402 30.135C136.499 31.2973 134.365 32.0446 132.142 32.3263C129.553 32.7486 126.913 32.7842 124.313 32.4321C122.061 32.1927 119.94 31.2772 118.238 29.8104C116.536 28.3436 115.337 26.3969 114.803 24.236C113.3 19.4978 113.359 14.4143 114.972 9.71092C116.775 4.60637 120.559 1.71565 125.953 0.870279C129.101 0.311148 132.347 0.628412 135.321 1.78618C136.549 2.26502 137.665 2.98387 138.602 3.89911C138.7 4.00197 138.785 4.10776 138.907 4.23707Z" fill="#394155"/>
<path d="M70.4786 1.11719V6.66255H58.5687V13.6018H68.7896V19.2011H58.5617C58.5497 19.3882 58.5338 19.5371 58.5328 19.685C58.5328 21.8401 58.5418 23.9873 58.5218 26.1384C58.5218 26.5528 58.6535 26.6497 59.0575 26.6478C62.8665 26.6341 66.6756 26.64 70.4846 26.64H71.0213V32.1971H51.6919V1.11719H70.4786Z" fill="#394155"/>
<path d="M77.2749 1.10938H84.1876V26.637H95.879V32.1863H77.2749V1.10938Z" fill="#394155"/>
<path d="M196.459 1.125V1.58344C196.459 9.73871 196.459 17.8937 196.459 26.0483C196.459 26.6419 196.459 26.6429 197.058 26.6429H208.16V32.1863H189.57V1.125H196.459Z" fill="#394155"/>
<path d="M100.747 1.10938H107.617V32.1834H100.747V1.10938Z" fill="#394155"/>
<path d="M152.568 32.198H145.685V1.125H152.568V32.198Z" fill="#394155"/>
</svg>
