<svg width="217" height="61" viewBox="0 0 217 61" fill="none" xmlns="http://www.w3.org/2000/svg">
<path d="M53.6335 0C54.0435 0.218979 54.4435 0.456781 54.8645 0.65297C56.6347 1.3594 58.1464 2.58234 59.199 4.15959C60.2516 5.73685 60.7955 7.59389 60.7585 9.48446C60.8392 23.4952 60.8392 37.5062 60.7585 51.5175C60.7959 53.408 60.2521 55.2651 59.1994 56.8423C58.1467 58.4194 56.6349 59.6421 54.8645 60.348C54.4435 60.5462 54.0435 60.782 53.6335 61H7.19149C6.78049 60.783 6.37749 60.5472 5.95649 60.351C2.17549 58.5962 0.0805 55.6315 0.0565 51.5245C-0.0188333 37.5091 -0.0188333 23.4932 0.0565 9.47653C0.0785 5.36944 2.17549 2.4048 5.95649 0.649009C6.37749 0.450838 6.78049 0.216997 7.19149 0H53.6335ZM27.1065 22.4072C25.8415 22.2269 24.8985 22.0554 23.9475 21.9643C17.5255 21.3519 12.5345 24.7991 10.9405 30.987C10.1267 34.111 10.1116 37.3868 10.8965 40.518C12.1735 45.6794 15.8965 49.1642 21.2365 49.4615C24.4025 49.6379 27.6265 48.9126 30.8135 48.5113C32.2025 48.3359 32.6755 47.5026 32.6665 46.0252C32.5945 34.6185 32.6275 23.2118 32.6275 11.805V9.97097H27.1065V22.4072ZM52.6395 21.8127C48.5957 21.3519 44.4993 21.7377 40.6155 22.9452C40.1521 23.0257 39.7395 23.2841 39.4673 23.6642C39.195 24.0443 39.0852 24.5155 39.1615 24.9755C39.2155 32.5169 39.1875 40.0593 39.1945 47.6007C39.1945 48.0565 39.2685 48.5123 39.3115 49.0136H44.6585V26.4836L51.6515 26.0516L52.6395 21.8127Z" fill="#394155"/>
<path d="M216.001 38.1725C215.767 38.9543 215.518 39.7331 215.302 40.5188C213.737 46.1806 209.756 49.3067 204.158 49.2631C198.738 49.2205 194.765 45.9814 193.308 40.3801C192.278 36.6275 192.425 32.6529 193.73 28.9853C194.484 26.7861 195.915 24.8772 197.823 23.5284C199.731 22.1796 202.019 21.4591 204.363 21.4688C206.706 21.4786 208.988 22.2181 210.884 23.5827C212.78 24.9474 214.196 26.8681 214.931 29.0735C215.361 30.2972 215.651 31.5684 216.005 32.8189L216.001 38.1725ZM210.912 35.3059C210.558 33.3043 210.09 31.3241 209.511 29.3747C209.177 28.2798 208.483 27.3273 207.539 26.669C206.595 26.0106 205.455 25.6844 204.302 25.7422C203.15 25.7074 202.018 26.046 201.077 26.7065C200.136 27.367 199.438 28.3135 199.089 29.4024C197.55 33.2517 197.571 37.5412 199.146 41.3759C199.504 42.4303 200.192 43.3437 201.111 43.9827C202.029 44.6217 203.13 44.9526 204.252 44.9271C205.405 44.9935 206.546 44.6751 207.495 44.0229C208.443 43.3707 209.143 42.4223 209.484 41.3294C210.08 39.3515 210.557 37.3401 210.911 35.3059H210.912Z" fill="#394155"/>
<path d="M94.2496 9.87109H99.3706V22.346C102.295 22.1419 105.077 21.6236 107.802 21.8317C109.819 21.8867 111.733 22.7326 113.122 24.1838C114.511 25.635 115.262 27.5729 115.211 29.5723C115.361 35.6878 115.27 41.8083 115.272 47.9269C115.241 48.1749 115.185 48.419 115.103 48.6552H109.926V40.757C109.926 37.727 109.935 34.698 109.926 31.6679C109.91 27.431 107.741 25.4989 103.455 25.8932C103.036 25.9266 102.62 25.9825 102.208 26.0607C99.5916 26.5898 99.4156 26.8058 99.4156 29.4296V48.6264H94.2476L94.2496 9.87109Z" fill="#394155"/>
<path d="M136.693 34.9909C136.905 33.2642 137.211 31.5501 137.609 29.8563C139.122 24.5166 143.173 21.4647 148.509 21.4727C153.765 21.4806 157.754 24.4859 159.335 29.7354C160.459 33.4016 160.459 37.3155 159.335 40.9816C157.635 46.6295 153.346 49.5763 147.463 49.2364C142.263 48.9392 138.294 45.1383 137.221 39.3725C136.971 38.0348 136.889 36.6664 136.693 34.9909ZM141.88 35.2971C142.241 37.3457 142.725 39.3713 143.328 41.3631C143.665 42.4255 144.343 43.3495 145.26 43.9937C146.177 44.6378 147.281 44.9668 148.404 44.9302C149.526 44.9882 150.636 44.6861 151.57 44.0688C152.504 43.4514 153.212 42.5518 153.588 41.5038C154.418 39.5596 154.849 37.471 154.855 35.36C154.861 33.2491 154.442 31.1581 153.623 29.2093C153.252 28.1584 152.55 27.2538 151.62 26.6293C150.69 26.0047 149.582 25.6933 148.459 25.7413C147.337 25.6894 146.228 26.004 145.303 26.6367C144.378 27.2694 143.688 28.1853 143.338 29.2439C142.73 31.2308 142.243 33.2521 141.88 35.2971Z" fill="#394155"/>
<path d="M186.877 48.6898H181.707C181.677 48.0428 181.624 47.4166 181.623 46.7913C181.616 41.6805 181.634 36.5697 181.613 31.4588C181.597 27.5291 179.678 25.702 175.713 25.7703C171.282 25.8466 171.091 26.0339 171.091 30.2946V48.6125H165.943C165.902 48.1736 165.824 47.7208 165.823 47.264C165.815 39.7761 165.844 32.2882 165.79 24.8003C165.751 24.5727 165.759 24.3398 165.812 24.1151C165.866 23.8905 165.964 23.6787 166.101 23.4922C166.239 23.3057 166.412 23.1482 166.611 23.029C166.811 22.9097 167.032 22.8311 167.263 22.7978C171.827 21.473 176.426 20.8468 181.08 22.1716C184.449 23.1307 186.72 25.3631 186.824 28.9015C187.013 35.4252 186.877 41.9589 186.877 48.6898Z" fill="#394155"/>
<path d="M88.9295 47.3497C83.6445 51.1626 75.5035 49.3701 72.5185 43.6172C71.1585 41.1177 70.4372 38.3261 70.4179 35.4865C70.3985 32.647 71.0817 29.846 72.4075 27.3285C75.3585 21.4369 83.3075 19.5999 88.9425 23.4028L87.2625 27.0689C86.6725 26.8103 86.1975 26.5735 85.7015 26.3892C84.8886 26.0273 84.0084 25.8374 83.1172 25.8317C82.226 25.8259 81.3434 26.0044 80.5258 26.3558C79.7082 26.7072 78.9735 27.2237 78.3688 27.8723C77.764 28.5209 77.3024 29.2874 77.0135 30.1227C75.7584 33.2487 75.6793 36.7176 76.7905 39.8965C78.3165 44.5 82.2165 45.8902 87.2625 43.5984L88.9295 47.3497Z" fill="#394155"/>
<path d="M134.221 26.0316C132.392 26.0316 130.784 25.9949 129.178 26.0425C127.837 26.0821 127.262 26.6737 127.278 28.1619C127.367 34.9196 127.317 41.6802 127.317 48.6023H121.996V46.8187C121.996 39.5855 122.053 32.3443 121.949 25.1091C121.9 24.8266 121.911 24.5374 121.98 24.2591C122.049 23.9809 122.175 23.7196 122.35 23.4915C122.524 23.2633 122.745 23.0731 122.997 22.9326C123.249 22.7921 123.527 22.7043 123.815 22.6746C127.498 21.599 131.359 21.2549 135.177 21.6619L134.221 26.0316Z" fill="#394155"/>
<path d="M27.0814 35.734C27.0814 38.2904 27.0494 40.8468 27.0984 43.4022C27.1318 43.5884 27.1255 43.7794 27.0801 43.963C27.0346 44.1467 26.9509 44.3189 26.8343 44.4686C26.7178 44.6183 26.5709 44.7422 26.4032 44.8325C26.2355 44.9227 26.0506 44.9772 25.8604 44.9925C20.8604 46.2241 17.1154 43.9154 16.1604 38.9106C15.5249 36.0422 15.7973 33.0493 16.9404 30.3397C17.6905 28.6226 19.0884 27.2642 20.8357 26.5548C22.583 25.8453 24.541 25.841 26.2914 26.5428C26.5118 26.6955 26.6941 26.896 26.8246 27.129C26.9551 27.3619 27.0302 27.6213 27.0444 27.8874C27.1194 30.5013 27.0814 33.1181 27.0814 35.734Z" fill="#394155"/>
</svg>
