<svg width="243" height="55" viewBox="0 0 243 55" fill="none" xmlns="http://www.w3.org/2000/svg">
<path d="M160.449 55H4.20527C3.42667 54.7373 2.69731 54.3488 2.04675 53.8502C1.28271 52.9013 0.598184 51.8921 0 50.8328V4.16818C0.265131 3.39681 0.657295 2.67422 1.16059 2.02972C2.11811 1.27228 3.13637 0.593456 4.20527 0H178.533C178.679 0.0870585 178.829 0.165624 178.984 0.235299C179.47 0.38955 179.918 0.640806 180.302 0.973542C180.686 1.30628 180.996 1.71343 181.215 2.16984C181.434 2.62625 181.556 3.12224 181.573 3.62715C181.591 4.13206 181.504 4.63518 181.317 5.10543C176.12 20.2161 170.916 35.3247 165.707 50.4314C165.294 51.8466 164.377 53.0655 163.126 53.8621C162.262 54.3038 161.367 54.6841 160.449 55ZM72.5612 42.3145C73.6001 42.3145 74.5072 42.3234 75.4153 42.3145C77.3732 42.2908 77.1716 42.5874 77.1746 40.621C77.1833 35.1708 77.1833 29.7207 77.1746 24.2705V23.1929C77.4667 23.4212 77.6953 23.7192 77.8393 24.059C79.5617 27.5845 81.4048 31.0597 82.9516 34.6594C83.729 36.4676 84.705 37.2566 86.6789 36.9511C86.9625 36.9558 87.241 36.8764 87.4787 36.7231C87.7165 36.5699 87.9026 36.3497 88.0131 36.0909C89.9152 32.0374 91.8671 28.0047 93.8011 23.967C93.9328 23.6942 94.0885 23.4322 94.2332 23.1652C94.4088 28.9093 94.4088 34.5664 94.4088 40.2235C94.3788 40.7083 94.3881 41.1946 94.4368 41.6778C94.4747 41.9082 94.7491 42.271 94.9287 42.2799C96.2799 42.3304 97.6341 42.3076 99.0103 42.3076V12.4571C97.8287 12.4571 96.715 12.5134 95.6013 12.4393C95.2477 12.3798 94.8843 12.4511 94.5803 12.6398C94.2763 12.8285 94.053 13.1213 93.9528 13.4626C91.4779 18.9002 88.9482 24.3042 86.4354 29.721C86.2857 30.0423 86.122 30.3577 85.9035 30.8006C85.675 30.332 85.5213 30.0236 85.3726 29.7131C82.7693 24.261 80.1624 18.8109 77.5518 13.3627C77.3882 13.0236 77.0699 12.5243 76.7984 12.5085C75.3854 12.4225 73.9633 12.468 72.5542 12.468L72.5612 42.3145ZM151.233 32.7602L151 32.8116C150.788 32.5011 150.57 32.1946 150.362 31.8812C146.237 25.6856 142.112 19.4901 137.987 13.2945C137.773 12.9732 137.438 12.5233 137.134 12.5036C135.857 12.4146 134.569 12.466 133.242 12.466V42.2562H137.842V21.9344C138.165 22.142 138.434 22.4221 138.627 22.752C142.788 29.0075 146.951 35.2611 151.118 41.5127C151.331 41.8301 151.682 42.2532 151.993 42.275C153.238 42.363 154.488 42.3106 155.775 42.3106V12.5283H151.233V32.7602ZM19.4496 42.273C19.4725 41.7559 19.5055 41.3466 19.5065 40.9364C19.5065 37.4652 19.5434 33.992 19.4875 30.5218C19.4715 29.5411 19.8029 29.2949 20.7439 29.3088C24.0021 29.3582 27.2623 29.3493 30.5236 29.3088C31.3369 29.2999 31.6213 29.5352 31.6103 30.3676C31.5704 33.908 31.5914 37.4503 31.5973 40.9907C31.5973 41.3981 31.6403 41.8044 31.6652 42.2493H36.1868V12.5164H31.5963V25.107H19.4556V12.5352H14.939V42.273H19.4496ZM43.779 12.5075C43.7481 12.7665 43.7172 12.903 43.7172 13.0364C43.7172 19.6328 43.6722 26.2311 43.7671 32.8254C43.8138 34.1759 44.1281 35.5042 44.6921 36.7346C47.1151 42.1544 54.5307 44.2424 60.1171 41.1835C64.0848 39.0085 65.3762 35.4325 65.4121 31.2445C65.462 25.3769 65.425 19.5092 65.425 13.6464V12.5441H60.7438C60.7438 13.0384 60.7438 13.4546 60.7438 13.8669C60.7438 20.047 60.7737 26.2251 60.7188 32.4072C60.7842 33.5661 60.4821 34.7162 59.8547 35.6965C59.2273 36.6767 58.3061 37.4379 57.2201 37.8735C56.091 38.4195 54.8224 38.6172 53.5785 38.4409C52.3347 38.2647 51.173 37.7226 50.2436 36.8848C49.5953 36.2696 49.0933 35.5192 48.7738 34.688C48.4543 33.8568 48.3254 32.9656 48.3964 32.079C48.3898 25.9684 48.3878 19.8578 48.3904 13.7473V12.5075H43.779ZM103.428 42.3145C104.844 42.3145 106.134 42.2789 107.42 42.3284C107.555 42.351 107.693 42.3462 107.826 42.3143C107.959 42.2824 108.084 42.2241 108.193 42.1428C108.303 42.0615 108.394 41.959 108.463 41.8415C108.531 41.724 108.574 41.594 108.59 41.4594C109.036 39.9655 109.588 38.5033 110.056 37.0153C110.096 36.7807 110.227 36.5709 110.422 36.4317C110.617 36.2924 110.859 36.235 111.096 36.2719C114.493 36.3048 117.89 36.3048 121.288 36.2719C121.413 36.2544 121.541 36.2618 121.663 36.2936C121.785 36.3254 121.9 36.3811 122 36.4573C122.1 36.5335 122.184 36.6287 122.247 36.7374C122.31 36.8462 122.35 36.9662 122.366 37.0905C122.827 38.5794 123.331 40.0565 123.855 41.5246C123.954 41.8133 124.223 42.2552 124.428 42.2641C125.945 42.3274 127.466 42.2987 129.097 42.2987C128.919 41.7411 128.809 41.3437 128.667 40.9591C125.464 32.2754 122.259 23.592 119.053 14.909C118.146 12.4521 118.148 12.4887 115.55 12.4373C115.199 12.3782 114.838 12.4562 114.544 12.6549C114.249 12.8536 114.044 13.1576 113.971 13.5031C110.602 22.753 107.207 31.9943 103.788 41.227C103.67 41.5424 103.576 41.8667 103.428 42.3145Z" fill="#394155"/>
<path d="M202.547 42.4163C201.978 40.7267 201.375 39.0321 200.846 37.3148C200.823 37.1733 200.772 37.0377 200.696 36.9158C200.62 36.7939 200.52 36.688 200.403 36.6043C200.286 36.5206 200.153 36.4607 200.012 36.4281C199.871 36.3954 199.725 36.3907 199.582 36.4141C196.189 36.4543 192.793 36.4543 189.394 36.4141C189.252 36.3912 189.106 36.3966 188.966 36.4303C188.825 36.4639 188.693 36.5249 188.577 36.6098C188.461 36.6948 188.363 36.8018 188.289 36.9247C188.215 37.0477 188.167 37.184 188.147 37.3257C187.71 38.784 187.164 40.2116 186.713 41.6659C186.534 42.2433 186.284 42.5043 185.628 42.4746C184.372 42.4173 183.11 42.4578 181.645 42.4578L192.68 12.6152C192.795 12.5846 192.914 12.5638 193.033 12.5529C194.081 12.5638 195.375 12.2148 196.106 12.6992C196.838 13.1837 197.005 14.4847 197.36 15.4507C200.563 24.0955 203.758 32.7426 206.946 41.392C207.064 41.7104 207.163 42.0356 207.29 42.4163H202.547ZM199.296 32.6572L194.796 19.4231L194.544 19.4616L189.953 32.6572H199.296Z" fill="#394155"/>
<path d="M216.425 30.5807V42.2143H211.981C211.958 41.7901 211.922 41.4234 211.922 41.0477C211.922 31.952 211.936 22.8663 211.897 13.7755C211.897 12.7434 212.145 12.4023 213.233 12.427C216.838 12.5081 220.449 12.4152 224.052 12.5259C225.271 12.5939 226.47 12.865 227.598 13.3277C228.943 13.7505 230.135 14.5496 231.032 15.6285C231.929 16.7074 232.492 18.0203 232.653 19.4089C233.052 22.4876 232.797 25.3883 230.558 27.7789C228.589 29.8768 226.002 30.5214 223.226 30.5689C221.02 30.6104 218.82 30.5807 216.425 30.5807ZM216.182 16.6733V26.6281C218.749 26.6281 221.241 26.7932 223.702 26.5856C224.922 26.4809 226.06 25.938 226.904 25.0591C227.748 24.1802 228.238 23.026 228.282 21.814C228.327 20.6019 227.922 19.4156 227.145 18.4786C226.367 17.5416 225.271 16.9185 224.062 16.7267C221.473 16.4835 218.84 16.6733 216.183 16.6733H216.182Z" fill="#394155"/>
<path d="M243 42.4085H238.585V12.6094H243V42.4085Z" fill="#394155"/>
<path d="M120.646 32.4038H111.635L116.203 19.4297L120.646 32.4038Z" fill="#394155"/>
</svg>
