<svg width="55" height="55" viewBox="0 0 55 55" fill="none" xmlns="http://www.w3.org/2000/svg">
<path fill-rule="evenodd" clip-rule="evenodd" d="M45.2291 1.39987C41.3771 2.44725 40.0684 2.84458 39.8747 3.02541C39.4412 3.43016 39.2874 3.83802 39.3443 4.43069C39.3886 4.89185 39.4598 5.02938 39.8355 5.37998C40.2625 5.77828 40.5378 5.86166 41.1963 5.79182C41.3145 5.77935 42.75 5.41114 44.3865 4.97362C46.023 4.5361 47.4173 4.1782 47.4851 4.1782C47.6334 4.1782 47.2728 4.81202 46.2623 6.32711C42.9619 11.2757 38.4002 15.9827 33.0322 19.9783C25.1924 25.814 16.2006 29.7016 7.72138 30.9217C5.63073 31.2226 5.1816 31.2635 3.02393 31.3498C1.31313 31.4183 1.03823 31.4544 0.785146 31.6434C-0.220322 32.3942 -0.236006 33.6807 0.751953 34.3536C1.12481 34.6075 1.14555 34.6092 3.22266 34.5496C13.1498 34.265 24.1998 30.2468 33.7305 23.4555C40.2927 18.7794 45.6633 13.2521 49.5823 7.14133C49.9935 6.5001 50.2873 6.13607 50.3195 6.22804C50.349 6.31207 50.6934 7.58573 51.0848 9.05838C51.918 12.1928 51.9209 12.2013 52.2893 12.5875C53.1342 13.4733 54.7252 12.9694 54.9552 11.7433C55.0609 11.1799 52.3256 0.934519 51.9669 0.550401C51.6123 0.170473 51.1989 -0.0139036 50.7354 0.000816415C50.5108 0.00790783 48.033 0.63754 45.2291 1.39987ZM43.7299 18.5455C43.4691 18.6377 43.0536 18.9151 42.8068 19.1621C41.9408 20.0283 42.002 18.7324 42.002 36.2161V51.7766H40.3906H38.7793V41.5884C38.7793 30.1234 38.8227 30.7551 37.9764 29.9086C37.2453 29.1773 36.8854 29.1056 33.9453 29.1056C31.0052 29.1056 30.6453 29.1773 29.9142 29.9086C29.0679 30.7551 29.1113 30.1234 29.1113 41.5884V51.7766H27.5H25.8887V44.5432C25.8887 36.382 25.9129 36.6454 25.0858 35.8182C24.3547 35.0868 23.9948 35.0151 21.0547 35.0151C18.1146 35.0151 17.7547 35.0868 17.0236 35.8182C16.1964 36.6454 16.2207 36.382 16.2207 44.5432V51.7766H14.6094H12.998V46.4772C12.998 40.4743 13.0001 40.4912 12.1952 39.6862C11.4641 38.9548 11.1042 38.8831 8.16406 38.8831C5.22393 38.8831 4.86406 38.9548 4.13295 39.6862C3.32804 40.4912 3.33008 40.4743 3.33008 46.4772V51.7766H2.30527C1.49026 51.7766 1.19378 51.8209 0.856582 51.9929C0.379951 52.2362 0 52.8552 0 53.3883C0 53.9215 0.379951 54.5405 0.856582 54.7837C1.278 54.9987 1.43408 55 27.5 55C53.5659 55 53.722 54.9987 54.1434 54.7837C54.62 54.5405 55 53.9215 55 53.3883C55 52.8552 54.62 52.2362 54.1434 51.9929C53.8062 51.8209 53.5097 51.7766 52.6947 51.7766H51.6699V36.2161C51.6699 18.7361 51.7307 20.0279 50.8671 19.1641C50.1309 18.4277 49.782 18.3597 46.79 18.3695C44.7387 18.3763 44.106 18.4126 43.7299 18.5455ZM48.4473 36.6805V51.7766H46.8359H45.2246V36.6805V21.5844H46.8359H48.4473V36.6805ZM35.5566 42.0528V51.7766H33.9453H32.334V42.0528V32.329H33.9453H35.5566V42.0528ZM22.666 45.0076V51.7766H21.0547H19.4434V45.0076V38.2385H21.0547H22.666V45.0076ZM9.77539 46.9416V51.7766H8.16406H6.55273V46.9416V42.1065H8.16406H9.77539V46.9416Z" fill="#FF6900"/>
</svg>
