<svg width="236" height="36" viewBox="0 0 236 36" fill="none" xmlns="http://www.w3.org/2000/svg">
<path d="M41.5108 15.8895L20.7848 36L0 15.8953C0.629874 14.9789 1.24577 14.081 1.86367 13.1841C4.77912 8.95426 7.69224 4.72312 10.603 0.490694C10.6952 0.330176 10.8326 0.198905 10.999 0.112486C11.1653 0.0260674 11.3536 -0.01186 11.5414 0.00323699C17.7968 0.0201355 24.0497 0.0220821 30.2998 0.00908326C30.4362 -0.00446157 30.5737 0.0208237 30.6958 0.0818865C30.8178 0.142949 30.9192 0.237194 30.9876 0.35324C34.4361 5.45789 37.8916 10.558 41.3541 15.6535C41.396 15.7159 41.4409 15.7832 41.5108 15.8895ZM20.6331 27.8166L20.8627 27.759L33.6618 14.9994C33.7407 15.0374 33.7137 14.977 33.6768 14.9224C31.6843 11.982 29.6932 9.04102 27.7035 6.09938C27.6463 6.01259 27.5645 5.9439 27.4681 5.90166C27.3717 5.85943 27.2648 5.84547 27.1604 5.8615C22.9679 5.8654 18.7734 5.86345 14.5769 5.85565C14.4393 5.84616 14.3017 5.87523 14.1804 5.93948C14.0591 6.00373 13.9591 6.10046 13.8922 6.21832C11.9283 9.08261 9.95553 11.9404 7.97374 14.7917C7.7741 15.0842 7.82101 15.2197 8.0516 15.441C11.3437 18.6166 14.6292 21.7987 17.908 24.9874C18.8363 25.9038 19.7217 26.8729 20.6331 27.8166Z" fill="#394155"/>
<path d="M181.638 8.44531H185.739C185.747 8.6091 185.762 8.77484 185.762 8.9396C185.762 12.112 185.753 15.2853 185.772 18.4577C185.768 19.1172 185.833 19.7754 185.966 20.4221C186.486 22.7961 188.373 23.6257 190.473 23.38C191.384 23.3246 192.241 22.9359 192.873 22.2913C193.505 21.6468 193.865 20.7936 193.882 19.9015C193.925 19.4687 193.951 19.0319 193.951 18.5971C193.957 15.3851 193.957 12.1731 193.951 8.96103V8.45604H198.058C198.066 8.55353 198.085 8.66466 198.085 8.77678C198.085 12.3196 198.093 15.8625 198.069 19.4034C198.063 20.529 197.845 21.644 197.426 22.6927C197.064 23.6672 196.466 24.5421 195.684 25.2434C194.902 25.9447 193.959 26.4519 192.934 26.722C191.043 27.2718 189.034 27.3112 187.122 26.8361C185.772 26.5579 184.543 25.8793 183.603 24.8932C182.663 23.9071 182.058 22.6616 181.87 21.3269C181.716 20.5232 181.639 19.7072 181.64 18.8896C181.615 15.5749 181.63 12.2543 181.63 8.9357L181.638 8.44531Z" fill="#394155"/>
<path d="M176.952 26.8645C175.548 26.8645 174.21 26.8723 172.872 26.8518C172.752 26.8518 172.58 26.6861 172.527 26.5594C172.023 25.3895 171.534 24.2166 171.057 23.0409C171.031 22.9346 170.965 22.8414 170.873 22.7786C170.782 22.7158 170.67 22.6878 170.558 22.6997C168.136 22.7107 165.713 22.7107 163.291 22.6997C163.173 22.6878 163.054 22.7189 162.957 22.787C162.86 22.8552 162.793 22.9556 162.767 23.0692C162.3 24.2225 161.811 25.367 161.345 26.5204C161.317 26.633 161.247 26.7316 161.149 26.7969C161.051 26.8623 160.931 26.8898 160.814 26.8743C159.678 26.8557 158.541 26.8674 157.404 26.8655C157.286 26.8655 157.167 26.8538 156.985 26.844C157.085 26.5925 157.174 26.3771 157.266 26.1616C159.815 20.3121 162.364 14.4597 164.911 8.60437C164.941 8.49883 165.01 8.40756 165.103 8.34749C165.197 8.28742 165.31 8.26265 165.421 8.27777C166.463 8.29434 167.506 8.29239 168.548 8.27777C168.653 8.26439 168.759 8.2885 168.847 8.34565C168.935 8.40279 169 8.48912 169.028 8.58876C171.629 14.576 174.235 20.561 176.846 26.5438C176.878 26.6296 176.901 26.7134 176.952 26.8645ZM166.97 13.2693L166.861 13.2762L164.414 19.113H169.42L166.97 13.2693Z" fill="#394155"/>
<path d="M136.72 8.42032C138.229 8.42032 139.648 8.42715 141.067 8.41448C141.342 8.41448 141.358 8.59288 141.421 8.75862C142.442 11.4409 143.463 14.1236 144.483 16.8065C145.005 18.1786 145.526 19.5509 146.048 20.9236C146.097 21.0552 146.16 21.1819 146.247 21.3828C146.683 20.2392 147.094 19.1668 147.502 18.0924C148.681 14.989 149.857 11.8845 151.031 8.77909C151.056 8.66063 151.128 8.55644 151.23 8.48817C151.333 8.41991 151.458 8.39282 151.581 8.41253C152.905 8.43105 154.231 8.42032 155.611 8.42032C155.569 8.55681 155.546 8.66405 155.504 8.76446C153.054 14.7251 150.606 20.686 148.159 26.6473C148.134 26.7531 148.07 26.846 147.978 26.9076C147.887 26.9692 147.775 26.9949 147.665 26.9798C146.704 26.9612 145.743 26.9573 144.783 26.9798C144.647 27.0003 144.508 26.9702 144.395 26.8954C144.281 26.8206 144.2 26.7066 144.168 26.5762C142.038 21.3701 139.904 16.1673 137.763 10.9678C137.427 10.1381 137.088 9.30847 136.72 8.42032Z" fill="#394155"/>
<path d="M226.141 12.1363H220.443V8.44922H236V12.1246H230.33C230.319 12.3323 230.303 12.4971 230.303 12.6618C230.303 17.2348 230.306 21.8078 230.31 26.3808C230.31 26.7513 230.227 26.8848 229.824 26.8741C228.769 26.8468 227.713 26.8653 226.658 26.8653C226.142 26.8653 226.142 26.8653 226.142 26.3399V12.1363H226.141Z" fill="#394155"/>
<path d="M205.025 8.44531H209.167V23.1665H218.573C218.586 23.3137 218.605 23.4268 218.605 23.5399C218.605 24.5148 218.594 25.4956 218.613 26.4734C218.619 26.7874 218.523 26.877 218.201 26.877C213.952 26.8673 209.704 26.8673 205.455 26.877C205.074 26.877 205.017 26.7435 205.018 26.4169C205.028 22.8887 205.024 19.3605 205.024 15.8322V8.44531H205.025Z" fill="#394155"/>
<path d="M72.6543 8.41724H74.6757C76.8269 8.41724 78.98 8.38118 81.1301 8.43968C82.854 8.42295 84.523 9.0308 85.8148 10.1458C86.3906 10.6974 86.8244 11.3745 87.0806 12.1215C87.3368 12.8684 87.4082 13.6641 87.2889 14.4432C87.1696 15.2223 86.863 15.9627 86.3942 16.6038C85.9254 17.2448 85.3078 17.7683 84.592 18.1313C84.1689 18.3369 83.7305 18.5106 83.2803 18.6509C82.8331 18.7933 82.3659 18.8791 81.8289 19.0077L88.0308 26.8548C87.4129 26.8548 86.8689 26.8714 86.3289 26.8412C86.221 26.8353 86.1112 26.6598 86.0224 26.5487C84.181 24.2154 82.343 21.8795 80.5083 19.541C80.434 19.4273 80.3302 19.3349 80.2075 19.2733C80.0847 19.2116 79.9474 19.1829 79.8095 19.1901C78.0636 19.2076 76.3157 19.1979 74.5729 19.1979H74.0848C74.0748 19.3772 74.0578 19.5284 74.0578 19.6804C74.0578 21.9227 74.0498 24.1738 74.0638 26.421C74.0638 26.7583 73.9909 26.8821 73.6186 26.8743C72.6573 26.8539 72.6563 26.8743 72.6563 25.9423V8.41724H72.6543ZM74.0768 17.9441C74.1315 17.9663 74.1888 17.9817 74.2475 17.9899C76.6432 17.9724 79.0339 17.9899 81.4236 17.9149C82.5141 17.8701 83.5622 17.49 84.4183 16.8288C84.8791 16.4767 85.2551 16.03 85.5196 15.5203C85.7842 15.0106 85.9308 14.4503 85.949 13.8792C85.9673 13.308 85.8569 12.7399 85.6255 12.215C85.3941 11.6902 85.0474 11.2214 84.6099 10.8419C83.498 10.023 82.128 9.6092 80.7369 9.67196C78.6546 9.65344 76.5723 9.66709 74.49 9.67196C74.3583 9.67196 74.2265 9.68366 74.0748 9.69048L74.0768 17.9441Z" fill="#394155"/>
<path d="M131.495 8.45312V9.66787H119.502V16.928H130.272V18.1681H119.996C119.478 18.1681 119.478 18.1681 119.478 18.6897C119.478 20.8313 119.478 22.9725 119.478 25.1134V25.5941H131.619V26.8381H118.133V8.45312H131.495Z" fill="#394155"/>
<path d="M108.684 8.4375H110.028C110.039 8.54084 110.057 8.63248 110.057 8.71827C110.057 12.3528 110.067 15.9872 110.041 19.6217C110.036 20.869 109.752 22.1002 109.208 23.2289C108.815 24.0894 108.231 24.8543 107.499 25.4686C106.767 26.083 105.905 26.5316 104.975 26.7825C103.241 27.299 101.388 27.2956 99.6553 26.7727C98.3304 26.4007 97.1515 25.6465 96.2728 24.609C95.3942 23.5716 94.8568 22.2991 94.7311 20.9583C94.6274 20.2529 94.5793 19.5408 94.5874 18.8281C94.5734 15.5378 94.5814 12.2465 94.5814 8.95519V8.45309H95.9789V8.91911C95.9789 12.3554 95.9789 15.7916 95.9789 19.2278C95.956 20.4069 96.1986 21.5764 96.6896 22.6537C97.0153 23.3835 97.5061 24.0316 98.1253 24.5493C98.7444 25.0671 99.4758 25.4409 100.264 25.6428C101.61 26.0228 103.038 26.0323 104.389 25.6701C105.488 25.3973 106.473 24.7998 107.211 23.9592C107.949 23.1186 108.402 22.076 108.51 20.9739C108.624 20.2971 108.678 19.6123 108.674 18.9266C108.69 15.5963 108.682 12.266 108.682 8.9347L108.684 8.4375Z" fill="#394155"/>
<path d="M57.6902 26.8654V9.6903H51.1499V8.45703H65.663V9.6669H59.1127V26.298C59.1127 26.8634 59.1126 26.8634 58.5137 26.8634L57.6902 26.8654Z" fill="#394155"/>
<path d="M31.8574 14.8545L20.8291 25.8535C20.6444 25.6907 20.5216 25.5912 20.4098 25.482C17.125 22.3019 13.8406 19.121 10.5564 15.9396C10.3159 15.7075 10.0873 15.4609 9.82575 15.2571C9.56421 15.0534 9.58917 14.8896 9.76685 14.6361C11.0645 12.7838 12.3413 10.9178 13.626 9.05667C13.9813 8.54192 14.3457 8.03302 14.6881 7.51144C14.7374 7.42013 14.8128 7.34473 14.9051 7.29438C14.9974 7.24404 15.1026 7.22089 15.2081 7.22774C18.9554 7.23554 22.7017 7.22774 26.448 7.24236C26.5347 7.24513 26.6198 7.26545 26.698 7.30203C26.7762 7.33862 26.8457 7.39067 26.9022 7.45488C28.5506 9.85642 30.189 12.2641 31.8174 14.678C31.8763 14.7648 31.9172 14.8594 31.9731 14.95L31.8574 14.8545ZM16.7484 17.4985C17.7027 16.9915 18.616 16.5118 19.5224 16.0195C19.6052 15.9741 19.6982 15.9494 19.7932 15.9477C19.8881 15.946 19.982 15.9673 20.0664 16.0098C20.4188 16.1287 20.9089 16.2788 21.1735 16.1306C21.3862 16.0166 21.63 15.9699 21.8711 15.9971C22.1122 16.0244 22.3386 16.1242 22.5191 16.2827C22.9383 16.5226 23.3695 16.7419 23.7968 16.9652C24.1242 17.1387 24.4546 17.3074 24.805 17.4907L25.3121 16.5742C25.1693 16.4914 25.0575 16.4212 24.9417 16.3598C24.1252 15.922 23.3007 15.497 22.4961 15.0407C22.3364 14.95 22.2435 14.7424 22.1297 14.5815C21.9648 14.2894 21.7691 14.0149 21.5458 13.7626C21.4638 13.702 21.3981 13.6229 21.3543 13.532C21.3105 13.4412 21.2899 13.3413 21.2942 13.241C21.3062 12.4611 21.3002 11.6811 21.2942 10.9012C21.2942 10.7618 21.2823 10.6224 21.2753 10.4888H20.2052C20.2052 11.414 20.1982 12.31 20.2052 13.2059C20.2139 13.3202 20.1936 13.4348 20.146 13.5396C20.0985 13.6443 20.0252 13.736 19.9327 13.8064C19.7251 14.0401 19.5477 14.2977 19.4046 14.5737C19.2938 14.7355 19.205 14.9481 19.0453 15.0378C18.2287 15.5018 17.3922 15.9318 16.5637 16.3754C16.4509 16.4358 16.3441 16.506 16.2233 16.5772L16.7484 17.4985Z" fill="#394155"/>
</svg>
