<svg width="253" height="67" viewBox="0 0 253 67" fill="none" xmlns="http://www.w3.org/2000/svg">
<path d="M52.9443 43.3274V43.427C52.9072 43.4977 52.8638 43.5674 52.832 43.6411C52.3646 44.7305 51.9354 45.8319 51.4256 46.9074C50.1297 49.5146 48.4947 51.9607 46.5581 54.1898C45.5967 55.4 44.4712 56.487 43.2102 57.4233C41.9757 58.3347 40.4854 58.8883 38.9213 59.0166C37.6849 59.0763 36.448 58.9071 35.281 58.5187C34.1841 58.1871 33.1148 57.7758 32.0232 57.4233C30.5329 56.9258 28.9582 56.6896 27.3771 56.7262C25.764 56.8037 24.1735 57.1157 22.6622 57.6513C21.453 58.0566 20.2374 58.448 19.0144 58.8164C18.5392 58.934 18.0573 59.0264 17.571 59.0932H16.1933C16.1731 59.0778 16.1502 59.066 16.1255 59.0584C14.7134 58.8595 13.3865 58.3005 12.2891 57.4422C11.134 56.5678 10.0826 55.5788 9.15317 54.4926C5.30065 50.1901 2.5383 45.1217 1.07449 39.6698C0.0518252 36.1156 -0.244498 32.4115 0.201228 28.7536C0.506472 26.2778 1.35138 23.8875 2.68324 21.7321C4.70217 18.3808 8.02051 15.8917 11.9457 14.7843C13.5793 14.2886 15.2996 14.0952 17.0114 14.2147C18.2041 14.3277 19.3782 14.5741 20.5087 14.9486C22.0383 15.4266 23.5623 15.9202 25.0806 16.4294C26.1721 16.832 27.3832 16.8426 28.4825 16.4592C29.9821 15.9285 31.505 15.4545 33.0258 14.9794C34.7869 14.3795 36.6414 14.0565 38.5144 14.0234C40.0065 14.0459 41.4897 14.244 42.9294 14.613C46.1946 15.3538 49.076 17.1555 51.0643 19.6996C51.1247 19.7763 51.1798 19.857 51.2381 19.9356C50.8141 20.2005 50.4178 20.4415 50.031 20.7004C48.2136 21.8634 46.7228 23.4224 45.6859 25.2443C44.1635 28.0347 43.7863 31.2536 44.6261 34.2884C45.7209 38.6381 48.7052 41.5091 52.9443 43.3274Z" fill="#394155"/>
<path d="M39.6804 0C39.6804 0.683132 39.7165 1.30353 39.6741 1.91895C39.5185 3.67853 38.9937 5.39177 38.1301 6.95989C37.2665 8.52801 36.0811 9.91998 34.6423 11.0556C33.1806 12.3788 31.3774 13.3216 29.4101 13.7911C28.5423 13.9807 27.6508 14.0571 26.7607 14.0182C26.5784 14.0122 26.5297 13.9465 26.5138 13.7831C26.3297 11.5966 26.8312 9.40737 27.9561 7.48558C28.9391 5.66347 30.3423 4.07032 32.0634 2.82223C33.7846 1.57414 35.7803 0.702533 37.9053 0.270866C38.4596 0.14141 39.0403 0.099582 39.6804 0Z" fill="#394155"/>
<path d="M88.6719 34.0586H85.9473L83.7207 28.1699H74.8145L72.7197 34.0586H69.9805L78.0371 13.0527H80.5859L88.6719 34.0586ZM82.915 25.958L79.6191 17.0078C79.5117 16.7148 79.4043 16.2461 79.2969 15.6016H79.2383C79.1406 16.1973 79.0283 16.666 78.9014 17.0078L75.6348 25.958H82.915ZM93.916 31.8906H93.8574V40.958H91.4551V19.0586H93.8574V21.6953H93.916C95.0977 19.7031 96.8262 18.707 99.1016 18.707C101.035 18.707 102.544 19.3809 103.628 20.7285C104.712 22.0664 105.254 23.8633 105.254 26.1191C105.254 28.6289 104.644 30.6406 103.423 32.1543C102.202 33.6582 100.532 34.4102 98.4131 34.4102C96.4697 34.4102 94.9707 33.5703 93.916 31.8906ZM93.8574 25.8408V27.9355C93.8574 29.1758 94.2578 30.2305 95.0586 31.0996C95.8691 31.959 96.8945 32.3887 98.1348 32.3887C99.5898 32.3887 100.728 31.832 101.548 30.7188C102.378 29.6055 102.793 28.0576 102.793 26.0752C102.793 24.4053 102.407 23.0967 101.636 22.1494C100.864 21.2021 99.8193 20.7285 98.501 20.7285C97.1045 20.7285 95.9814 21.2168 95.1318 22.1934C94.2822 23.1602 93.8574 24.376 93.8574 25.8408ZM111.553 31.8906H111.494V40.958H109.092V19.0586H111.494V21.6953H111.553C112.734 19.7031 114.463 18.707 116.738 18.707C118.672 18.707 120.181 19.3809 121.265 20.7285C122.349 22.0664 122.891 23.8633 122.891 26.1191C122.891 28.6289 122.28 30.6406 121.06 32.1543C119.839 33.6582 118.169 34.4102 116.05 34.4102C114.106 34.4102 112.607 33.5703 111.553 31.8906ZM111.494 25.8408V27.9355C111.494 29.1758 111.895 30.2305 112.695 31.0996C113.506 31.959 114.531 32.3887 115.771 32.3887C117.227 32.3887 118.364 31.832 119.185 30.7188C120.015 29.6055 120.43 28.0576 120.43 26.0752C120.43 24.4053 120.044 23.0967 119.272 22.1494C118.501 21.2021 117.456 20.7285 116.138 20.7285C114.741 20.7285 113.618 21.2168 112.769 22.1934C111.919 23.1602 111.494 24.376 111.494 25.8408ZM129.131 34.0586H126.729V11.8516H129.131V34.0586ZM146.05 27.1592H135.459C135.498 28.8291 135.947 30.1182 136.807 31.0264C137.666 31.9346 138.848 32.3887 140.352 32.3887C142.041 32.3887 143.594 31.832 145.01 30.7188V32.9746C143.691 33.9316 141.948 34.4102 139.78 34.4102C137.661 34.4102 135.996 33.7314 134.785 32.374C133.574 31.0068 132.969 29.0879 132.969 26.6172C132.969 24.2832 133.628 22.3838 134.946 20.9189C136.274 19.4443 137.92 18.707 139.883 18.707C141.846 18.707 143.364 19.3418 144.438 20.6113C145.513 21.8809 146.05 23.6436 146.05 25.8994V27.1592ZM143.589 25.123C143.579 23.7363 143.242 22.6572 142.578 21.8857C141.924 21.1143 141.011 20.7285 139.839 20.7285C138.706 20.7285 137.744 21.1338 136.953 21.9443C136.162 22.7549 135.674 23.8145 135.488 25.123H143.589ZM174.043 34.0586H171.582V24.4785H160.713V34.0586H158.252V13.0527H160.713V22.2666H171.582V13.0527H174.043V34.0586ZM191.284 27.1592H180.693C180.732 28.8291 181.182 30.1182 182.041 31.0264C182.9 31.9346 184.082 32.3887 185.586 32.3887C187.275 32.3887 188.828 31.832 190.244 30.7188V32.9746C188.926 33.9316 187.183 34.4102 185.015 34.4102C182.896 34.4102 181.23 33.7314 180.02 32.374C178.809 31.0068 178.203 29.0879 178.203 26.6172C178.203 24.2832 178.862 22.3838 180.181 20.9189C181.509 19.4443 183.154 18.707 185.117 18.707C187.08 18.707 188.599 19.3418 189.673 20.6113C190.747 21.8809 191.284 23.6436 191.284 25.8994V27.1592ZM188.823 25.123C188.813 23.7363 188.477 22.6572 187.812 21.8857C187.158 21.1143 186.245 20.7285 185.073 20.7285C183.94 20.7285 182.979 21.1338 182.188 21.9443C181.396 22.7549 180.908 23.8145 180.723 25.123H188.823ZM205.669 34.0586H203.267V31.7148H203.208C202.163 33.5117 200.625 34.4102 198.594 34.4102C197.1 34.4102 195.928 34.0146 195.078 33.2236C194.238 32.4326 193.818 31.3828 193.818 30.0742C193.818 27.2715 195.469 25.6406 198.77 25.1816L203.267 24.5518C203.267 22.0029 202.236 20.7285 200.176 20.7285C198.369 20.7285 196.738 21.3438 195.283 22.5742V20.1133C196.758 19.1758 198.457 18.707 200.381 18.707C203.906 18.707 205.669 20.5723 205.669 24.3027V34.0586ZM203.267 26.4707L199.648 26.9688C198.535 27.125 197.695 27.4033 197.129 27.8037C196.562 28.1943 196.279 28.8926 196.279 29.8984C196.279 30.6309 196.538 31.2314 197.056 31.7002C197.583 32.1592 198.281 32.3887 199.15 32.3887C200.342 32.3887 201.323 31.9736 202.095 31.1436C202.876 30.3037 203.267 29.2441 203.267 27.9648V26.4707ZM212.598 34.0586H210.195V11.8516H212.598V34.0586ZM224.419 33.9121C223.853 34.2246 223.105 34.3809 222.178 34.3809C219.551 34.3809 218.237 32.916 218.237 29.9863V21.1094H215.659V19.0586H218.237V15.3965L220.64 14.6201V19.0586H224.419V21.1094H220.64V29.5615C220.64 30.5674 220.811 31.2852 221.152 31.7148C221.494 32.1445 222.061 32.3594 222.852 32.3594C223.457 32.3594 223.979 32.1934 224.419 31.8613V33.9121ZM240.078 34.0586H237.676V25.416C237.676 22.291 236.514 20.7285 234.189 20.7285C233.018 20.7285 232.031 21.1826 231.23 22.0908C230.43 22.9893 230.029 24.1465 230.029 25.5625V34.0586H227.627V11.8516H230.029V21.5488H230.088C231.24 19.6543 232.881 18.707 235.01 18.707C238.389 18.707 240.078 20.7432 240.078 24.8154V34.0586Z" fill="#394155"/>
<path d="M82.127 62.1172H80.0762L77.6152 57.9951C77.3896 57.6123 77.1709 57.2876 76.959 57.021C76.7471 56.7476 76.5283 56.5254 76.3027 56.3545C76.084 56.1836 75.8447 56.0605 75.585 55.9854C75.332 55.9033 75.0449 55.8623 74.7236 55.8623H73.3086V62.1172H71.5859V47.4131H75.9746C76.6172 47.4131 77.2085 47.4951 77.7485 47.6592C78.2954 47.8164 78.7671 48.0591 79.1636 48.3872C79.5669 48.7153 79.8813 49.1255 80.1069 49.6177C80.3325 50.103 80.4453 50.6738 80.4453 51.3301C80.4453 51.8428 80.3667 52.3145 80.2095 52.7451C80.0591 53.1689 79.8403 53.5483 79.5532 53.8833C79.2729 54.2183 78.9312 54.5054 78.5278 54.7446C78.1313 54.9771 77.6836 55.1582 77.1846 55.2881V55.3291C77.4307 55.4385 77.6426 55.5649 77.8203 55.7085C78.0049 55.8452 78.1792 56.0093 78.3433 56.2007C78.5073 56.3921 78.668 56.6108 78.8252 56.8569C78.9893 57.0962 79.1704 57.3765 79.3687 57.6978L82.127 62.1172ZM73.3086 48.9717V54.3037H75.6465C76.0771 54.3037 76.4736 54.2388 76.8359 54.1089C77.2051 53.979 77.5229 53.7944 77.7896 53.5552C78.0562 53.3091 78.2646 53.0117 78.415 52.6631C78.5654 52.3076 78.6406 51.9111 78.6406 51.4736C78.6406 50.6875 78.3843 50.0757 77.8716 49.6382C77.3657 49.1938 76.6309 48.9717 75.667 48.9717H73.3086ZM91.7554 57.2876H84.3418C84.3691 58.4565 84.6836 59.3589 85.2852 59.9946C85.8867 60.6304 86.7139 60.9482 87.7666 60.9482C88.9492 60.9482 90.0361 60.5586 91.0273 59.7793V61.3584C90.1045 62.0283 88.8843 62.3633 87.3667 62.3633C85.8833 62.3633 84.7178 61.8882 83.8701 60.938C83.0225 59.981 82.5986 58.6377 82.5986 56.9082C82.5986 55.2744 83.0601 53.9448 83.9829 52.9194C84.9126 51.8872 86.0645 51.3711 87.4385 51.3711C88.8125 51.3711 89.8755 51.8154 90.6274 52.7041C91.3794 53.5928 91.7554 54.8267 91.7554 56.4058V57.2876ZM90.0327 55.8623C90.0259 54.8916 89.79 54.1362 89.3252 53.5962C88.8672 53.0562 88.228 52.7861 87.4077 52.7861C86.6147 52.7861 85.9414 53.0698 85.3877 53.6372C84.834 54.2046 84.4922 54.9463 84.3623 55.8623H90.0327ZM101.466 61.6353C100.659 62.1206 99.7021 62.3633 98.5947 62.3633C97.0977 62.3633 95.8877 61.8779 94.9648 60.9072C94.0488 59.9297 93.5908 58.665 93.5908 57.1133C93.5908 55.3838 94.0864 53.9961 95.0776 52.9502C96.0688 51.8975 97.3916 51.3711 99.0459 51.3711C99.9688 51.3711 100.782 51.542 101.486 51.8838V53.6064C100.707 53.0596 99.873 52.7861 98.9844 52.7861C97.9111 52.7861 97.0293 53.1724 96.3389 53.9448C95.6553 54.7104 95.3135 55.7188 95.3135 56.9697C95.3135 58.2002 95.6348 59.1709 96.2773 59.8818C96.9268 60.5928 97.7949 60.9482 98.8818 60.9482C99.7979 60.9482 100.659 60.644 101.466 60.0356V61.6353ZM108.397 62.3633C106.846 62.3633 105.605 61.8745 104.675 60.897C103.752 59.9126 103.291 58.6104 103.291 56.9902C103.291 55.2266 103.773 53.8491 104.737 52.8579C105.701 51.8667 107.003 51.3711 108.644 51.3711C110.209 51.3711 111.429 51.853 112.304 52.8169C113.186 53.7808 113.627 55.1172 113.627 56.8262C113.627 58.501 113.152 59.8442 112.202 60.856C111.258 61.8608 109.99 62.3633 108.397 62.3633ZM108.521 52.7861C107.44 52.7861 106.586 53.1553 105.957 53.8936C105.328 54.625 105.014 55.6367 105.014 56.9287C105.014 58.1729 105.332 59.1538 105.967 59.8716C106.603 60.5894 107.454 60.9482 108.521 60.9482C109.607 60.9482 110.441 60.5962 111.022 59.8921C111.61 59.188 111.904 58.1865 111.904 56.8877C111.904 55.5752 111.61 54.5635 111.022 53.8525C110.441 53.1416 109.607 52.7861 108.521 52.7861ZM121.789 53.3193C121.495 53.0938 121.071 52.981 120.518 52.981C119.8 52.981 119.198 53.3193 118.713 53.9961C118.234 54.6729 117.995 55.5957 117.995 56.7646V62.1172H116.313V51.6172H117.995V53.7808H118.036C118.275 53.0425 118.641 52.4683 119.133 52.0581C119.625 51.6411 120.176 51.4326 120.784 51.4326C121.222 51.4326 121.557 51.4805 121.789 51.5762V53.3193ZM132.576 62.1172H130.895V60.333H130.854C130.074 61.6865 128.871 62.3633 127.244 62.3633C125.925 62.3633 124.869 61.895 124.076 60.9585C123.29 60.0151 122.896 58.7334 122.896 57.1133C122.896 55.377 123.334 53.9858 124.209 52.9399C125.084 51.894 126.25 51.3711 127.706 51.3711C129.148 51.3711 130.197 51.9385 130.854 53.0732H130.895V46.5723H132.576V62.1172ZM130.895 57.3696V55.8213C130.895 54.9736 130.614 54.2559 130.054 53.668C129.493 53.0801 128.782 52.7861 127.921 52.7861C126.896 52.7861 126.089 53.1621 125.501 53.9141C124.913 54.666 124.619 55.7051 124.619 57.0312C124.619 58.2412 124.899 59.1982 125.46 59.9023C126.027 60.5996 126.786 60.9482 127.736 60.9482C128.673 60.9482 129.432 60.6099 130.013 59.9331C130.601 59.2563 130.895 58.4019 130.895 57.3696ZM135.345 61.7378V59.9331C136.261 60.6099 137.269 60.9482 138.37 60.9482C139.846 60.9482 140.584 60.4561 140.584 59.4717C140.584 59.1914 140.52 58.9556 140.39 58.7642C140.267 58.5659 140.096 58.3916 139.877 58.2412C139.665 58.0908 139.412 57.9575 139.118 57.8413C138.831 57.7183 138.52 57.5918 138.185 57.4619C137.72 57.2773 137.31 57.0928 136.955 56.9082C136.606 56.7168 136.312 56.5049 136.073 56.2725C135.84 56.0332 135.663 55.7632 135.54 55.4624C135.423 55.1616 135.365 54.8096 135.365 54.4062C135.365 53.9141 135.478 53.48 135.704 53.104C135.929 52.7212 136.23 52.4033 136.606 52.1504C136.982 51.8906 137.409 51.6958 137.888 51.5659C138.373 51.436 138.872 51.3711 139.385 51.3711C140.294 51.3711 141.107 51.5283 141.825 51.8428V53.5449C141.053 53.0391 140.164 52.7861 139.159 52.7861C138.845 52.7861 138.561 52.8237 138.308 52.8989C138.055 52.9673 137.836 53.0664 137.652 53.1963C137.474 53.3262 137.334 53.4834 137.231 53.668C137.136 53.8457 137.088 54.0439 137.088 54.2627C137.088 54.5361 137.136 54.7651 137.231 54.9497C137.334 55.1343 137.481 55.2983 137.672 55.4419C137.864 55.5854 138.096 55.7153 138.37 55.8315C138.643 55.9478 138.954 56.0742 139.303 56.2109C139.768 56.3887 140.185 56.5732 140.554 56.7646C140.923 56.9492 141.237 57.1611 141.497 57.4004C141.757 57.6328 141.955 57.9028 142.092 58.2104C142.235 58.5181 142.307 58.8838 142.307 59.3076C142.307 59.8271 142.191 60.2783 141.958 60.6611C141.733 61.0439 141.429 61.3618 141.046 61.6147C140.663 61.8677 140.222 62.0557 139.723 62.1787C139.224 62.3018 138.701 62.3633 138.154 62.3633C137.074 62.3633 136.138 62.1548 135.345 61.7378Z" fill="#394155"/>
</svg>
