<svg width="34" height="40" viewBox="0 0 34 40" fill="none" xmlns="http://www.w3.org/2000/svg">
<path d="M17.2264 0C22.1663 2.94026 27.4653 5.22481 32.9908 6.79645C33.8635 7.04755 33.9802 7.20379 33.9802 8.11333C33.9802 11.1209 34.0247 14.1286 33.9802 17.1362C33.9088 23.2449 31.54 29.1008 27.3487 33.5302C25.2422 35.8443 22.7187 37.7376 19.9112 39.1102C19.2166 39.4306 18.4995 39.6992 17.7656 39.9138C16.9104 40.0986 16.018 39.9844 15.2364 39.5901C12.9226 38.6539 10.7822 37.3335 8.90501 35.6841C5.93655 33.1948 3.59099 30.0414 2.05671 26.4771C0.921561 23.991 0.263412 21.3123 0.116732 18.5814C-0.0111179 14.9879 0.0277934 11.3944 0 7.80085C0 7.27633 0.211228 7.03081 0.767097 6.87457C3.26145 6.16953 5.71478 5.32564 8.11568 4.34682C10.87 3.20522 13.5443 1.87787 16.1202 0.373859L16.7539 0.0055812L17.2264 0ZM32.3571 13.459H32.3015C32.3015 11.8966 32.3015 10.3342 32.3015 8.77177C32.3015 8.48161 32.2404 8.34769 31.9402 8.25841C26.8238 6.76308 21.9031 4.66136 17.282 1.99764C17.1918 1.93881 17.0865 1.90749 16.979 1.90749C16.8715 1.90749 16.7662 1.93881 16.676 1.99764C12.0541 4.6836 7.12209 6.79177 1.99001 8.27515C1.71208 8.35327 1.63981 8.48161 1.63981 8.7606C1.63981 11.2437 1.63981 13.7324 1.63981 16.2211C1.62238 19.0887 2.10783 21.937 3.07395 24.6357C4.19003 27.5831 5.87961 30.2778 8.04413 32.5627C10.2087 34.8476 12.8048 36.677 15.681 37.944C16.0612 38.1417 16.4805 38.2518 16.9084 38.2663C17.3363 38.2808 17.7621 38.1993 18.1547 38.0277C18.5215 37.8547 18.8995 37.7208 19.2664 37.5367C23.5765 35.3992 27.1362 31.9951 29.4721 27.7773C31.0395 25.0066 31.9737 21.9208 32.207 18.7432C32.3015 16.9967 32.3126 15.2222 32.3571 13.459Z" fill="#480C95"/>
<path d="M14.2758 21.472C14.385 21.3089 14.5038 21.1524 14.6316 21.0033L22.5527 13.0462C23.0067 12.4837 23.6644 12.1249 24.3816 12.0485C25.0988 11.9721 25.8168 12.1843 26.3784 12.6386C26.9399 13.093 27.299 13.7523 27.3769 14.472C27.4548 15.1918 27.2452 15.9131 26.794 16.4779C26.6772 16.6174 26.5661 16.7569 26.4382 16.8853L16.3659 27.0018C16.0065 27.4194 15.5274 27.7153 14.9941 27.8492C14.4608 27.983 13.8993 27.9482 13.3864 27.7496C12.9894 27.5988 12.6279 27.367 12.3247 27.0688C10.7016 25.4729 9.09326 23.8622 7.49977 22.2365C7.17165 21.9354 6.92245 21.5579 6.77417 21.1372C6.62589 20.7165 6.5831 20.2656 6.64958 19.8244C6.71607 19.3831 6.88977 18.9651 7.15535 18.6073C7.42094 18.2494 7.77023 17.9627 8.17237 17.7725C8.61973 17.5215 9.13409 17.4172 9.64343 17.4743C10.1528 17.5313 10.6316 17.7468 11.0129 18.0906C12.0245 18.9834 12.9473 19.9766 13.9034 20.9308C14.0427 21.1002 14.1673 21.2813 14.2758 21.472ZM14.3481 26.3601C14.6581 26.1817 14.952 25.9763 15.2263 25.7463C18.5615 22.4281 21.8838 19.0987 25.1931 15.7581C25.282 15.6633 25.3765 15.574 25.4543 15.4735C25.567 15.3377 25.6432 15.1753 25.6758 15.0016C25.7084 14.828 25.6963 14.6488 25.6407 14.4812C25.585 14.3135 25.4876 14.1629 25.3577 14.0436C25.2278 13.9244 25.0697 13.8403 24.8985 13.7995C24.6837 13.7439 24.4572 13.754 24.2482 13.8286C24.0392 13.9031 23.8572 14.0388 23.7256 14.218C20.8647 17.1159 17.9983 20.0026 15.1263 22.8782C14.4926 23.5143 14.109 23.5143 13.4865 22.8782C12.3747 21.7622 11.263 20.6462 10.1513 19.5302C10.0545 19.4324 9.93957 19.3546 9.81292 19.3014C9.68626 19.2482 9.55041 19.2205 9.41311 19.22C9.27581 19.2195 9.13975 19.2461 9.0127 19.2984C8.88565 19.3507 8.7701 19.4275 8.67265 19.5246C8.5752 19.6217 8.49776 19.7371 8.44474 19.8643C8.39172 19.9914 8.36416 20.1278 8.36364 20.2656C8.36313 20.4034 8.38966 20.54 8.44172 20.6676C8.49379 20.7951 8.57037 20.9111 8.66709 21.0089C10.2902 22.6569 11.9226 24.2937 13.5643 25.9193C13.8067 26.0978 14.0699 26.2458 14.3481 26.3601Z" fill="#480C95"/>
<path d="M3.3066 11.8195C3.3066 11.3507 3.3066 10.882 3.3066 10.4133C3.27385 10.1767 3.33288 9.93646 3.4715 9.74228C3.61012 9.54809 3.81773 9.41477 4.05147 9.36983C5.47449 8.86763 6.90863 8.37659 8.32609 7.84649C8.46603 7.76958 8.6245 7.73319 8.78383 7.74136C8.94316 7.74954 9.0971 7.80196 9.2285 7.89279C9.3599 7.98361 9.4636 8.10928 9.52804 8.25579C9.59248 8.40229 9.61513 8.56388 9.59347 8.72255C9.553 8.90087 9.46318 9.06409 9.33435 9.19341C9.20552 9.32274 9.04292 9.41291 8.86528 9.45353C7.69796 9.87203 6.53064 10.3017 5.35776 10.7035C5.29951 10.7129 5.24373 10.7339 5.19364 10.7652C5.14356 10.7965 5.10018 10.8375 5.06604 10.8858C5.03189 10.9341 5.00766 10.9887 4.99476 11.0465C4.98186 11.1043 4.98054 11.1641 4.99088 11.2224C4.99088 11.9366 4.99088 12.6509 4.99088 13.3707C5.00382 13.5472 4.96288 13.7234 4.8735 13.876C4.78412 14.0285 4.65055 14.15 4.4906 14.2244C4.35393 14.3048 4.19399 14.336 4.03728 14.3126C3.88058 14.2893 3.73653 14.2129 3.62901 14.0961C3.45319 13.8644 3.34537 13.5881 3.31772 13.2982C3.28898 12.8058 3.28526 12.3122 3.3066 11.8195Z" fill="#480C95"/>
<path d="M26.5312 27.0293C26.6844 27.0285 26.8347 27.0709 26.965 27.1518C27.0954 27.2326 27.2004 27.3486 27.2682 27.4865C27.336 27.6243 27.3639 27.7786 27.3486 27.9316C27.3332 28.0846 27.2754 28.2302 27.1816 28.3518C26.7925 28.9488 26.37 29.5236 25.9253 30.0816C24.8149 31.4577 23.5503 32.7009 22.1565 33.7867C22.0764 33.8793 21.9773 33.9533 21.8659 34.0036C21.7545 34.054 21.6336 34.0796 21.5115 34.0785C21.3893 34.0775 21.2689 34.0498 21.1584 33.9975C21.0479 33.9452 20.95 33.8695 20.8715 33.7756C20.793 33.6817 20.7357 33.5717 20.7036 33.4534C20.6715 33.3351 20.6653 33.2113 20.6854 33.0903C20.7056 32.9694 20.7516 32.8543 20.8204 32.7529C20.8892 32.6516 20.979 32.5664 21.0837 32.5033C22.3604 31.4996 23.5253 30.3602 24.5579 29.1051C24.9692 28.5861 25.3472 28.0449 25.7363 27.5092C25.8144 27.3655 25.9292 27.2453 26.0689 27.1609C26.2086 27.0766 26.3682 27.0312 26.5312 27.0293Z" fill="#480C95"/>
<path d="M19.4732 33.7773C19.6884 33.777 19.8954 33.8597 20.0516 34.0081C20.2078 34.1566 20.3012 34.3597 20.3126 34.5753C20.3092 34.8045 20.2206 35.0242 20.0644 35.1914C19.9081 35.3586 19.6954 35.4612 19.4677 35.4792C19.3575 35.4822 19.2479 35.4631 19.1452 35.423C19.0425 35.3829 18.9488 35.3226 18.8696 35.2457C18.7904 35.1688 18.7273 35.0768 18.6839 34.9751C18.6406 34.8734 18.6179 34.764 18.6172 34.6534C18.6157 34.4235 18.7049 34.2023 18.8653 34.0382C19.0257 33.8741 19.2442 33.7803 19.4732 33.7773Z" fill="#480C95"/>
<path d="M12.0007 7.57419C11.9952 7.79697 11.9053 8.00927 11.7494 8.16788C11.5935 8.32649 11.3832 8.41949 11.1613 8.42793C10.9386 8.42649 10.7254 8.33743 10.5674 8.17989C10.4094 8.02234 10.3193 7.80888 10.3164 7.58535C10.3281 7.37056 10.4177 7.16747 10.5682 7.01434C10.7187 6.8612 10.9197 6.76859 11.1335 6.75393C11.3555 6.7522 11.5696 6.83653 11.7311 6.98934C11.8927 7.14216 11.9892 7.35166 12.0007 7.57419Z" fill="#480C95"/>
</svg>
