<svg width="32" height="40" viewBox="0 0 32 40" fill="none" xmlns="http://www.w3.org/2000/svg">
<path d="M15.6635 4.9722e-05C23.9804 4.9722e-05 30.7185 5.96894 31.8749 13.9311C32.2432 16.6374 31.7938 19.3937 30.5864 21.8341C28.9258 25.2318 26.8692 28.4137 24.461 31.3112C22.2173 34.1168 19.8159 36.7879 17.2688 39.311C16.3447 40.2243 15.7163 40.235 14.8081 39.311C10.6153 35.0989 6.67069 30.6558 3.52347 25.5626C2.56224 23.9676 1.71006 22.3071 0.972946 20.593C-0.373601 17.5199 -0.225744 14.3501 0.825091 11.2394C2.67857 5.73793 6.40138 2.17056 11.9143 0.537304C13.1325 0.177466 14.395 -0.00344663 15.6635 4.9722e-05ZM15.9909 36.6623C16.1282 36.5334 16.2074 36.4689 16.2761 36.3937C18.1718 34.2447 20.1203 32.1816 21.9527 29.9896C24.2176 27.3516 26.1756 24.4563 27.7877 21.3613C29.0474 19.0768 29.5037 16.4236 29.0815 13.8397C27.8564 6.80169 21.055 1.76224 14.0899 2.93346C9.05223 3.77695 5.53537 6.69424 3.64492 11.5295C2.66273 14.0439 2.33533 16.6657 3.38089 19.2606C3.97888 20.7448 4.68492 22.1814 5.49312 23.5587C7.48561 26.8219 9.78464 29.8806 12.3579 32.692C13.5513 34.0405 14.7658 35.3299 15.9909 36.6677V36.6623Z" fill="#13B497"/>
<path d="M15.9848 23.24C14.6247 23.2335 13.2971 22.8161 12.1705 22.0406C11.0439 21.2652 10.1692 20.1668 9.6572 18.8847C9.14523 17.6026 9.01915 16.1947 9.29495 14.8396C9.57076 13.4845 10.236 12.2433 11.2063 11.2735C12.1766 10.3037 13.4082 9.64899 14.7448 9.3925C16.0814 9.13601 17.4627 9.28928 18.7136 9.83286C19.9644 10.3764 21.0283 11.2858 21.7704 12.4456C22.5124 13.6054 22.899 14.9633 22.8813 16.347C22.8576 18.1891 22.1196 19.9471 20.8279 21.2381C19.5362 22.5292 17.7955 23.2487 15.9848 23.24ZM16.0112 20.4463C16.8253 20.4495 17.6219 20.2069 18.3004 19.7492C18.9788 19.2915 19.5085 18.6393 19.8224 17.8751C20.1364 17.111 20.2204 16.2693 20.0639 15.4565C19.9074 14.6437 19.5174 13.8965 18.9433 13.3093C18.3691 12.7222 17.6367 12.3216 16.8387 12.1582C16.0406 11.9948 15.2129 12.0759 14.4602 12.3914C13.7075 12.7069 13.0638 13.2424 12.6104 13.9303C12.1571 14.6182 11.9146 15.4275 11.9135 16.2557C11.9121 16.8046 12.017 17.3484 12.2222 17.8561C12.4274 18.3638 12.7288 18.8253 13.1093 19.2145C13.4898 19.6036 13.942 19.9127 14.4399 20.124C14.9378 20.3354 15.4717 20.4449 16.0112 20.4463Z" fill="#13B497"/>
</svg>
