<svg width="40" height="40" viewBox="0 0 40 40" fill="none" xmlns="http://www.w3.org/2000/svg">
<path d="M40 17.5437V18.5791C39.9678 18.6321 39.944 18.69 39.9297 18.7505C39.7608 19.6513 39.2693 20.4564 38.5501 21.0104C37.8309 21.5644 36.9351 21.8278 36.0358 21.7497C35.6085 21.6855 35.1859 21.5924 34.7707 21.4712V37.2456C34.7779 37.4963 34.7638 37.7472 34.7285 37.9954C34.6168 38.5863 34.2966 39.1155 33.8282 39.4836C33.3597 39.8517 32.7752 40.0335 32.1842 39.9949C24.1012 39.9949 16.0183 39.9949 7.94236 39.9949C7.58064 40.0122 7.21934 39.9526 6.88161 39.8198C6.54388 39.6871 6.23716 39.4841 5.9811 39.2239C5.72503 38.9638 5.52527 38.6522 5.3946 38.3091C5.26393 37.9659 5.20524 37.5988 5.22228 37.2313C5.27148 32.1327 5.22228 27.0269 5.22228 21.9283V21.4212L4.90599 21.5212C4.21337 21.7894 3.45558 21.831 2.73854 21.6402C2.02151 21.4495 1.38106 21.0359 0.906695 20.4572C0.464329 19.9063 0.153944 19.2585 0 18.5649V17.5294C0.188044 16.621 0.664664 15.8006 1.35653 15.1943C6.97944 10.3956 12.5883 5.58974 18.1831 0.776733C18.4177 0.530986 18.6984 0.335605 19.0087 0.20218C19.319 0.0687544 19.6525 0 19.9895 0C20.3264 0 20.6599 0.0687544 20.9702 0.20218C21.2805 0.335605 21.5613 0.530986 21.7958 0.776733C27.2079 5.4136 32.6199 10.0481 38.032 14.6802C39.0055 15.3632 39.7042 16.3798 40 17.5437ZM20.0176 8.88172L19.8348 9.02454C15.8941 12.4094 11.944 15.7894 7.98454 19.1647C7.89644 19.2385 7.82736 19.333 7.78327 19.44C7.73918 19.547 7.72142 19.6633 7.73151 19.7788C7.73151 25.5202 7.73151 31.2591 7.73151 36.9957V37.4313H32.2474C32.2474 37.2885 32.2474 37.1742 32.2474 37.06C32.2474 31.2758 32.2474 25.4964 32.2474 19.7217C32.2532 19.6124 32.2318 19.5034 32.1851 19.4048C32.1384 19.3062 32.068 19.2211 31.9803 19.1576C30.8417 18.1935 29.7101 17.2152 28.5785 16.2441L20.0176 8.88172ZM37.4978 18.1221C37.494 17.9212 37.4437 17.7241 37.3509 17.5467C37.2581 17.3692 37.1254 17.2165 36.9636 17.101C31.4251 12.3403 25.8865 7.57969 20.3479 2.81905C20.0738 2.5834 19.9192 2.59768 19.6451 2.81905C15.5591 6.34192 11.4661 9.85528 7.36601 13.3591L2.98014 17.1224C2.85709 17.2051 2.75262 17.3132 2.67357 17.4398C2.59453 17.5663 2.54269 17.7084 2.52146 17.8567C2.50022 18.0051 2.51007 18.1563 2.55035 18.3004C2.59064 18.4446 2.66046 18.5785 2.75523 18.6934C2.8476 18.8345 2.97062 18.9521 3.1148 19.0372C3.25898 19.1224 3.42048 19.1728 3.58684 19.1845C3.75321 19.1962 3.92 19.169 4.07437 19.1049C4.22875 19.0408 4.36658 18.9416 4.47724 18.8148L18.2955 6.98223C18.7474 6.54111 19.3475 6.2912 19.9741 6.28325C20.6007 6.27529 21.2068 6.50987 21.6693 6.93938L30.6519 14.6302L35.572 18.9148C35.726 19.07 35.9233 19.1732 36.1372 19.2102C36.351 19.2473 36.5709 19.2164 36.7668 19.1219C36.9662 19.0378 37.1394 18.9005 37.2681 18.7245C37.3968 18.5485 37.4762 18.3403 37.4978 18.1221Z" fill="#FF03B8"/>
<path d="M22.3089 26.6568C23.2901 26.9834 24.1961 27.508 24.9727 28.1993C25.7816 28.9089 26.4325 29.7853 26.8821 30.7704C27.3317 31.7554 27.5698 32.8263 27.5804 33.9121C27.5998 34.0872 27.5836 34.2645 27.5327 34.4329C27.4819 34.6014 27.3975 34.7575 27.2848 34.8914C27.1721 35.0253 27.0334 35.1343 26.8775 35.2115C26.7216 35.2887 26.5517 35.3326 26.3785 35.3403C26.2085 35.3452 26.0394 35.3148 25.8815 35.2508C25.7237 35.1868 25.5804 35.0906 25.4605 34.9681C25.3406 34.8457 25.2467 34.6996 25.1846 34.5388C25.1225 34.3781 25.0934 34.2061 25.0992 34.0335C25.082 32.9484 24.7351 31.8954 24.106 31.0184C23.4769 30.1415 22.5963 29.4836 21.5849 29.1348C20.8449 28.8859 20.0587 28.812 19.2863 28.9189C18.5139 29.0258 17.7758 29.3105 17.1282 29.7514C16.4807 30.1923 15.9408 30.7777 15.5499 31.4629C15.159 32.1481 14.9273 32.9149 14.8726 33.705C14.8726 33.8621 14.8726 34.0192 14.8726 34.1763C14.8427 34.4957 14.6964 34.7923 14.4623 35.0077C14.2282 35.2231 13.9232 35.3417 13.6074 35.3403C13.2853 35.3311 12.9792 35.1961 12.7527 34.9633C12.5262 34.7305 12.3968 34.4179 12.3915 34.0906C12.3728 32.8465 12.6655 31.6179 13.2419 30.5201C14.103 28.8189 15.5599 27.5069 17.3256 26.8425L17.6911 26.6926C17.0712 26.2878 16.5644 25.7275 16.2197 25.0659C15.875 24.4042 15.7039 23.6634 15.723 22.915C15.728 22.3443 15.8477 21.7807 16.075 21.2588C16.3022 20.7368 16.6321 20.2677 17.0444 19.8801C17.8639 19.0888 18.9575 18.6578 20.0878 18.6805C21.2181 18.7033 22.294 19.1779 23.082 20.0015C23.5067 20.4696 23.8267 21.0255 24.02 21.6311C24.2134 22.2367 24.2754 22.8776 24.202 23.5098C24.1285 24.142 23.9213 24.7507 23.5945 25.2939C23.2678 25.8371 22.8292 26.3021 22.3089 26.6568ZM20.0105 21.1726C19.6597 21.1669 19.3151 21.2673 19.0204 21.4609C18.7258 21.6546 18.4944 21.9328 18.3556 22.2602C18.2169 22.5876 18.1769 22.9496 18.2409 23.3001C18.305 23.6506 18.47 23.974 18.7151 24.229C18.9603 24.4841 19.2745 24.6595 19.6178 24.7329C19.9612 24.8063 20.3183 24.7744 20.6439 24.6412C20.9694 24.5081 21.2486 24.2797 21.4462 23.9851C21.6438 23.6905 21.7508 23.3429 21.7536 22.9864C21.7557 22.5169 21.5779 22.0651 21.2578 21.7265C20.9377 21.388 20.5004 21.1893 20.0386 21.1726H20.0105Z" fill="#FF03B8"/>
</svg>
