<svg width="36" height="40" viewBox="0 0 36 40" fill="none" xmlns="http://www.w3.org/2000/svg">
<path d="M26.24 0.00745841C26.416 0.0447425 26.5919 0.0894824 26.7678 0.123038C29.7622 0.738225 31.8133 3.22507 31.8357 6.38676C31.8582 9.48507 31.8357 12.5834 31.8357 15.6817C31.8357 16.5318 31.4615 17.1097 30.784 17.3371C30.4792 17.4414 30.1495 17.4493 29.84 17.3599C29.5305 17.2705 29.2562 17.088 29.0547 16.8375C28.7832 16.4796 28.6503 16.0361 28.6804 15.5885C28.6804 12.5685 28.6804 9.54845 28.6804 6.52844C28.7127 6.00708 28.6175 5.48571 28.403 5.00906C28.1886 4.5324 27.8612 4.1147 27.449 3.79179C26.8879 3.35437 26.1927 3.12266 25.4802 3.13559C19.0923 3.13559 12.7018 3.13559 6.30883 3.13559C5.49322 3.1165 4.7031 3.41931 4.11066 3.97802C3.51822 4.53673 3.17149 5.30605 3.14604 6.11832C3.14604 6.24881 3.14604 6.3793 3.14604 6.5098C3.14604 15.5027 3.14604 24.4981 3.14604 33.496C3.11696 34.0175 3.21475 34.5384 3.43111 35.0142C3.64746 35.49 3.97597 35.9067 4.38869 36.2289C4.97643 36.6724 5.69918 36.9014 6.43609 36.8777C8.12416 36.8777 9.80474 36.8777 11.4966 36.8777C11.8332 36.8677 12.1638 36.9681 12.4377 37.1635C12.7115 37.3588 12.9134 37.6382 13.0125 37.9589C13.119 38.2554 13.127 38.5782 13.0353 38.8796C12.9437 39.181 12.7572 39.4451 12.5034 39.633C12.1934 39.8415 11.8326 39.9626 11.4591 39.9834C9.73363 40.0207 8.00813 39.9834 6.28263 39.9834C5.44198 39.9768 4.61108 39.8034 3.83838 39.4736C3.06568 39.1437 2.36664 38.6639 1.78203 38.0621C1.19742 37.4603 0.738934 36.7487 0.433316 35.9685C0.127698 35.1884 -0.0189379 34.3555 0.00195655 33.5184C0.046872 28.3508 0.00195655 23.1795 0.00195655 18.0119V6.45387C0.00195655 4.00058 1.02378 2.09164 3.15352 0.861264C3.8445 0.534148 4.56514 0.273226 5.30572 0.0820254C5.40303 0.0484697 5.50035 0.0260988 5.60141 0L26.24 0.00745841Z" fill="#C28A36"/>
<path d="M35.9978 25.8122C36.0161 26.4538 35.902 27.0922 35.6625 27.688C35.423 28.2838 35.0632 28.8243 34.6054 29.2759C31.7907 32.0871 28.9672 34.8884 26.1351 37.6797C25.8505 37.9452 25.5067 38.1394 25.132 38.2465C23.1669 38.8169 21.1906 39.365 19.2144 39.8907C18.2187 40.1629 17.3841 39.7937 17.1333 38.9176C17.0415 38.5806 17.0415 38.2254 17.1333 37.8885C17.7097 35.9 18.3111 33.924 18.9374 31.9604C19.0472 31.6279 19.2329 31.3254 19.4801 31.0767C22.2798 28.2705 25.0896 25.4742 27.9092 22.6878C28.5023 22.0439 29.2717 21.587 30.1224 21.3737C30.9732 21.1603 31.868 21.1998 32.6965 21.4873C34.4819 22.0465 35.5411 23.3067 35.9154 25.1299C35.9553 25.3557 35.9828 25.5835 35.9978 25.8122ZM20.9324 36.1697C21.9355 35.8976 22.8637 35.6515 23.7845 35.3793C23.993 35.3173 24.184 35.2075 24.3422 35.0587C26.1089 33.3175 27.8606 31.5689 29.6198 29.8203C29.7021 29.7382 29.777 29.6525 29.8294 29.5966L27.5649 27.3371C27.5026 27.4545 27.4273 27.5646 27.3403 27.6652C25.9105 29.0969 24.5069 30.5548 23.0284 31.9305C22.1797 32.6443 21.5958 33.621 21.3703 34.7045C21.25 35.2001 21.1038 35.6892 20.9324 36.1697ZM32.1201 27.3036C32.4048 27.122 32.625 26.8558 32.7493 26.5426C32.8736 26.2294 32.8957 25.8851 32.8125 25.5587C32.7472 25.2627 32.593 24.9936 32.3703 24.7871C32.1477 24.5806 31.8671 24.4466 31.5661 24.4029C31.2532 24.352 30.9321 24.3958 30.6445 24.5288C30.3568 24.6617 30.1159 24.8776 29.9529 25.1486L32.1201 27.3036Z" fill="#C28A36"/>
<path d="M15.9359 9.38109H23.8896C24.2976 9.3597 24.6978 9.49769 25.0051 9.7657C25.3124 10.0337 25.5027 10.4106 25.5354 10.8162C25.568 11.2218 25.4405 11.624 25.18 11.9374C24.9195 12.2508 24.5465 12.4506 24.1404 12.4943C24.0369 12.4999 23.9332 12.4999 23.8298 12.4943H8.0345C7.04262 12.4943 6.37638 11.9313 6.30526 11.0551C6.28498 10.8341 6.31281 10.6112 6.38685 10.4018C6.4609 10.1924 6.57941 10.0014 6.73432 9.8418C6.88923 9.68219 7.07687 9.55774 7.28446 9.47695C7.49204 9.39615 7.71468 9.36091 7.93719 9.37363C9.90972 9.37363 11.8823 9.37363 13.8585 9.37363L15.9359 9.38109Z" fill="#C28A36"/>
<path d="M15.9026 18.7543C13.2526 18.7543 10.5989 18.7543 7.94885 18.7543C7.5349 18.7859 7.12528 18.6525 6.81011 18.3833C6.49494 18.1141 6.30003 17.7312 6.26826 17.3189C6.2365 16.9065 6.37048 16.4985 6.64072 16.1845C6.91097 15.8706 7.29535 15.6765 7.7093 15.6448C7.81403 15.6392 7.91898 15.6392 8.02371 15.6448H23.8601C24.8632 15.6448 25.5557 16.2786 25.5669 17.1884C25.5713 17.4005 25.5318 17.6112 25.4509 17.8075C25.37 18.0038 25.2495 18.1814 25.0968 18.3293C24.9441 18.4772 24.7625 18.5923 24.5633 18.6673C24.3641 18.7423 24.1515 18.7758 23.9387 18.7655C22.2918 18.7655 20.6487 18.7655 19.0018 18.7655L15.9026 18.7543Z" fill="#C28A36"/>
<path d="M12.7672 25.0018C11.1502 25.0018 9.5295 25.0018 7.90132 25.0018C7.48637 24.9974 7.0902 24.8289 6.79994 24.5335C6.50969 24.2381 6.34914 23.8399 6.35361 23.4266C6.35807 23.0132 6.5272 22.6186 6.82377 22.3295C7.12033 22.0403 7.52006 21.8804 7.935 21.8849C9.54073 21.8849 11.1465 21.8849 12.7522 21.8849C14.3579 21.8849 15.9898 21.8849 17.618 21.8849C17.8235 21.8873 18.0264 21.93 18.2153 22.0106C18.4042 22.0912 18.5753 22.2081 18.7188 22.3545C18.8624 22.501 18.9756 22.6741 19.0519 22.8642C19.1283 23.0542 19.1663 23.2573 19.1639 23.462C19.1614 23.6666 19.1185 23.8688 19.0376 24.057C18.9567 24.2451 18.8394 24.4155 18.6924 24.5585C18.5454 24.7015 18.3715 24.8143 18.1807 24.8903C17.99 24.9664 17.786 25.0043 17.5806 25.0018C15.9749 25.0055 14.3691 25.0018 12.7672 25.0018Z" fill="#C28A36"/>
</svg>
