<svg width="40" height="40" viewBox="0 0 40 40" fill="none" xmlns="http://www.w3.org/2000/svg">
<path d="M34.6797 40H33.4539C33.4238 39.9752 33.388 39.9583 33.3497 39.951C31.9082 39.7471 30.5811 39.0524 29.5924 37.9841C26.8097 35.1716 24.0025 32.3836 21.2075 29.5833C21.0851 29.4297 20.9764 29.2657 20.8826 29.0931C20.6926 29.3382 20.6068 29.473 20.5026 29.5833C17.5483 32.5368 14.5817 35.4841 11.6396 38.4498C11.0122 39.2013 10.1693 39.7423 9.22464 40H8.28686C7.35021 39.7634 6.51177 39.2382 5.89029 38.4988C4.45194 37.0159 2.98907 35.5535 1.50169 34.1115C0.761741 33.4916 0.238016 32.6526 0.00613064 31.7157V30.7782C0.257548 29.8454 0.78789 29.0117 1.52621 28.3885C4.51119 25.4289 7.47778 22.4448 10.4566 19.4792C10.575 19.3856 10.7048 19.3074 10.8428 19.2463L10.4444 18.8297C8.37267 16.7586 6.30095 14.6875 4.22924 12.6164C3.02628 11.4445 2.17677 9.95828 1.77751 8.3272C1.45265 7.01593 1.11554 5.70466 0.778427 4.39951C0.527125 3.41912 0.257432 2.44485 0 1.47059V0.857844C0.172457 0.477292 0.477438 0.172404 0.858107 0H1.47104C1.57524 0.0367647 1.67944 0.0919099 1.78976 0.122547C3.70211 0.606616 5.60834 1.12745 7.53908 1.55637C9.66527 2.00475 11.6032 3.09315 13.0922 4.67524C14.9678 6.64828 16.9292 8.53554 18.8538 10.4596L19.2032 10.7904C19.2783 10.6793 19.3602 10.5729 19.4484 10.4718C22.4272 7.48774 25.4183 4.51593 28.3911 1.51961C29.0134 0.780319 29.8478 0.249886 30.7815 0H31.7193C32.6555 0.234164 33.494 0.757302 34.1158 1.49509C35.5501 2.96568 37.0028 4.41993 38.4738 5.85784C39.2354 6.48738 39.7711 7.34776 40 8.30882V9.24632C39.7512 10.2034 39.2115 11.0597 38.4554 11.6973C35.4766 14.6446 32.5222 17.6164 29.5556 20.576C29.4101 20.6905 29.2542 20.791 29.0898 20.8762C29.2622 20.9935 29.428 21.1204 29.5863 21.2561L38.1673 29.8346C38.9585 30.5986 39.5246 31.5651 39.8039 32.6287C39.8774 32.9167 39.9326 33.2108 39.9939 33.4988V34.7243C39.9939 34.8162 39.9387 34.8958 39.9264 34.9877C39.7652 36.134 39.2664 37.2063 38.4936 38.0684C37.7209 38.9304 36.709 39.543 35.5869 39.8284C35.2927 39.8775 34.9678 39.9326 34.6797 40ZM25.8658 20.8027L27.7046 18.9645C27.5983 18.8881 27.496 18.8063 27.3981 18.7194C26.3275 17.6614 25.259 16.5952 24.1925 15.5208C24.0725 15.4147 23.9755 15.2852 23.9074 15.1402C23.8393 14.9953 23.8015 14.838 23.7964 14.6779C23.7912 14.5179 23.8188 14.3585 23.8774 14.2094C23.936 14.0604 24.0245 13.9249 24.1373 13.8113C24.2501 13.6968 24.3854 13.607 24.5346 13.5473C24.6838 13.4877 24.8438 13.4596 25.0044 13.4648C25.165 13.4699 25.3229 13.5083 25.4679 13.5774C25.613 13.6466 25.7422 13.745 25.8474 13.8664C26.3296 14.3362 26.8076 14.8141 27.2816 15.3002C27.9743 15.9926 28.6546 16.6851 29.3227 17.3591L31.1615 15.5208L30.9163 15.2635C30.4015 14.7426 29.8743 14.2402 29.3717 13.7132C29.2621 13.6029 29.1755 13.4718 29.1172 13.3276C29.0588 13.1834 29.0297 13.029 29.0317 12.8735C29.0337 12.718 29.0667 12.5644 29.1287 12.4217C29.1908 12.2791 29.2807 12.1502 29.3931 12.0427C29.5055 11.9352 29.6383 11.8512 29.7836 11.7955C29.9289 11.7399 30.0839 11.7138 30.2394 11.7187C30.3949 11.7236 30.5479 11.7595 30.6894 11.8242C30.8309 11.8889 30.958 11.9812 31.0634 12.0956L32.798 13.8419L34.6368 12.0037C34.5241 11.9376 34.4175 11.8617 34.3181 11.777C33.2455 10.7169 32.1728 9.65073 31.1125 8.5723C30.9124 8.39094 30.7816 8.14569 30.7425 7.87854C30.7033 7.61139 30.7583 7.33894 30.898 7.10784C31.0207 6.89013 31.2134 6.72024 31.4448 6.62571C31.6762 6.53117 31.9327 6.51754 32.1729 6.58701C32.4291 6.67396 32.6618 6.81861 32.8532 7.0098C33.9136 8.04534 34.9556 9.10539 36.0098 10.1532C36.1017 10.2512 36.2059 10.337 36.3347 10.4596L37.2295 9.52206C37.3547 9.43657 37.4571 9.32185 37.5279 9.18784C37.5986 9.05383 37.6356 8.90459 37.6356 8.75306C37.6356 8.60153 37.5986 8.45229 37.5279 8.31828C37.4571 8.18428 37.3547 8.06956 37.2295 7.98407C35.497 6.25204 33.7644 4.52001 32.0319 2.78799C31.4189 2.17524 31.0205 2.17524 30.4321 2.78799L2.72142 30.4963C2.59117 30.5816 2.4842 30.6979 2.41016 30.8349C2.33613 30.9718 2.29737 31.125 2.29737 31.2806C2.29737 31.4363 2.33613 31.5895 2.41016 31.7264C2.4842 31.8633 2.59117 31.9797 2.72142 32.065L6.69936 36.0417C7.15293 36.4951 7.59424 36.9547 8.05394 37.3958C8.19553 37.563 8.39764 37.6671 8.61596 37.6855C8.83427 37.7039 9.05096 37.635 9.21852 37.4939C9.62305 37.1324 9.97855 36.7157 10.3586 36.3113L10.1011 36.0355C9.58627 35.5208 9.05915 35.0123 8.55655 34.4853C8.38543 34.313 8.27314 34.0911 8.23572 33.8512C8.19829 33.6113 8.23764 33.3657 8.34814 33.1495C8.45166 32.9227 8.62977 32.7382 8.85282 32.6267C9.07587 32.5152 9.3304 32.4835 9.57401 32.5368C9.86113 32.6071 10.1251 32.7507 10.3402 32.9534C10.9531 33.5049 11.4925 34.1054 12.0441 34.663L13.8829 32.8247C13.7726 32.7467 13.6681 32.6607 13.5703 32.5674C12.5161 31.5196 11.4557 30.4841 10.426 29.4118C10.2155 29.1885 10.0675 28.9138 9.99693 28.6152C9.95775 28.3817 9.99654 28.1417 10.1073 27.9324C10.2181 27.7231 10.3947 27.5561 10.6099 27.4571C10.8353 27.3345 11.0957 27.292 11.3484 27.3366C11.6011 27.3811 11.8313 27.51 12.0012 27.7022C13.0882 28.7765 14.1669 29.8529 15.2375 30.9314C15.317 31.0349 15.383 31.1481 15.4337 31.2684L17.3215 29.375C16.7698 28.8297 16.1937 28.2659 15.6237 27.6961C15.4952 27.5924 15.39 27.4629 15.315 27.316C15.2399 27.169 15.1965 27.0079 15.1878 26.8431C15.179 26.6784 15.205 26.5136 15.2641 26.3595C15.3232 26.2054 15.4141 26.0655 15.5308 25.9488C15.6475 25.8321 15.7875 25.7413 15.9416 25.6822C16.0957 25.6232 16.2605 25.5971 16.4254 25.6059C16.5902 25.6147 16.7514 25.658 16.8983 25.7331C17.0453 25.8081 17.1749 25.9133 17.2786 26.0417L18.958 27.7206L20.76 25.8824L17.3889 22.5245C17.2555 22.4203 17.1452 22.2896 17.0649 22.1406C16.9845 21.9917 16.9359 21.8277 16.9221 21.659C16.9083 21.4904 16.9295 21.3207 16.9846 21.1606C17.0396 21.0006 17.1272 20.8537 17.2418 20.7292C17.3648 20.6132 17.5104 20.5239 17.6695 20.4669C17.8287 20.4099 17.9979 20.3864 18.1666 20.3979C18.3352 20.4094 18.4997 20.4556 18.6496 20.5337C18.7995 20.6119 18.9316 20.7201 19.0377 20.8517C20.0736 21.8811 21.1033 22.9105 22.133 23.9522C22.2225 24.0603 22.3006 24.1773 22.3659 24.3015L24.2047 22.4632C23.6715 21.9363 23.1014 21.3787 22.5437 20.8211C22.4101 20.7181 22.3002 20.5877 22.2211 20.4387C22.1421 20.2897 22.0959 20.1256 22.0856 19.9573C22.0752 19.789 22.101 19.6204 22.1612 19.4629C22.2214 19.3053 22.3145 19.1625 22.4345 19.0439C22.5544 18.9254 22.6983 18.8338 22.8566 18.7754C23.0148 18.717 23.1837 18.6931 23.3519 18.7053C23.5202 18.7175 23.6838 18.7655 23.832 18.8461C23.9801 18.9268 24.1093 19.0382 24.2108 19.1728C24.7502 19.712 25.2957 20.2451 25.8474 20.8027H25.8658ZM32.4487 27.4694L27.582 22.6042L22.6234 27.5613L27.4839 32.4326L32.4487 27.4694ZM29.1204 34.2463C30.0766 35.1593 31.0144 36.0846 32.0196 36.9976C32.5607 37.441 33.245 37.6719 33.9442 37.6471C34.6529 37.6877 35.3568 37.5081 35.9592 37.1329C36.5617 36.7577 37.0333 36.2053 37.3092 35.5515C37.6249 34.9209 37.7355 34.2074 37.6256 33.5109C37.5157 32.8143 37.1908 32.1695 36.6963 31.6667C35.9608 30.8395 35.1517 30.0858 34.3672 29.3015C34.3121 29.2512 34.2526 29.2061 34.1894 29.1667L29.1204 34.2463ZM11.6948 6.67279C10.6956 5.35472 9.27036 4.4236 7.66166 4.03799C6.12933 3.6397 4.597 3.2598 3.05241 2.87377C2.96053 2.86906 2.86846 2.86906 2.77659 2.87377C3.24241 4.71201 3.67147 6.47059 4.15568 8.24142C4.61533 9.63589 5.48203 10.8609 6.64419 11.7586L11.6948 6.67279ZM13.4416 8.42525L8.45235 13.4069L12.3935 17.3529L17.3889 12.3652L13.4416 8.42525Z" fill="#FFA8A7"/>
</svg>
