<svg width="39" height="40" viewBox="0 0 39 40" fill="none" xmlns="http://www.w3.org/2000/svg">
<path d="M37.4992 18.7949H30.3308C29.9421 18.7949 29.5693 18.9501 29.2944 19.2263C29.0196 19.5024 28.8652 19.877 28.8652 20.2676C28.8652 20.6582 29.0196 21.0328 29.2944 21.3089C29.5693 21.5851 29.9421 21.7403 30.3308 21.7403H37.4992C37.888 21.7403 38.2608 21.5851 38.5356 21.3089C38.8105 21.0328 38.9648 20.6582 38.9648 20.2676C38.9648 19.877 38.8105 19.5024 38.5356 19.2263C38.2608 18.9501 37.888 18.7949 37.4992 18.7949Z" fill="#4200FF"/>
<path d="M1.49682 21.7383H10.2152C10.6039 21.7383 10.9767 21.5832 11.2516 21.307C11.5264 21.0308 11.681 20.6562 11.681 20.2656C11.681 19.8751 11.5264 19.5005 11.2516 19.2243C10.9767 18.9481 10.6039 18.793 10.2152 18.793H1.49682C1.10812 18.793 0.735311 18.9481 0.460455 19.2243C0.1856 19.5005 0.03125 19.8751 0.03125 20.2656C0.03125 20.6562 0.1856 21.0308 0.460455 21.307C0.735311 21.5832 1.10812 21.7383 1.49682 21.7383Z" fill="#4200FF"/>
<path d="M26.751 11.3899L29.4261 13.5101C29.6846 13.7151 30.0044 13.8267 30.3338 13.8267H37.5023C37.6974 13.8311 37.8914 13.7962 38.0729 13.7241C38.2544 13.6521 38.4198 13.5443 38.5593 13.4072C38.6988 13.27 38.8097 13.1062 38.8854 12.9255C38.9611 12.7447 39.0001 12.5505 39.0001 12.3544C39.0001 12.1583 38.9611 11.9642 38.8854 11.7834C38.8097 11.6026 38.6988 11.4388 38.5593 11.3017C38.4198 11.1645 38.2544 11.0568 38.0729 10.9847C37.8914 10.9127 37.6974 10.8778 37.5023 10.8821H30.8441L29.1266 9.52068V1.47268C29.1266 1.0821 28.9721 0.707519 28.6973 0.431339C28.4224 0.155159 28.0496 0 27.6609 0C27.2722 0 26.8994 0.155159 26.6245 0.431339C26.3497 0.707519 26.1953 1.0821 26.1953 1.47268V10.2338C26.1951 10.4562 26.245 10.6757 26.3412 10.8759C26.4375 11.0761 26.5775 11.2518 26.751 11.3899Z" fill="#4200FF"/>
<path d="M12.1821 6.90751e-07C11.7935 0.000189773 11.4209 0.15543 11.1462 0.43159C10.8715 0.707749 10.7172 1.08222 10.7172 1.47268V9.65404L9.58154 10.8814H1.49975C1.30462 10.8771 1.11069 10.912 0.929155 10.984C0.747623 11.0561 0.582119 11.1638 0.442595 11.301C0.303071 11.4381 0.192346 11.6019 0.116662 11.7827C0.0409785 11.9634 0.00195313 12.1576 0.00195312 12.3537C0.00195313 12.5498 0.0409785 12.744 0.116662 12.9248C0.192346 13.1055 0.303071 13.2693 0.442595 13.4064C0.582119 13.5436 0.747623 13.6513 0.929155 13.7234C1.11069 13.7954 1.30462 13.8303 1.49975 13.826H10.2182C10.4193 13.8259 10.6185 13.7843 10.803 13.7037C10.9874 13.6231 11.1535 13.5053 11.2907 13.3575L13.2559 11.2373C13.5086 10.9646 13.6492 10.6058 13.6492 10.2331V1.47268C13.6492 1.27916 13.6112 1.08754 13.5374 0.908774C13.4637 0.730008 13.3555 0.567597 13.2193 0.430828C13.0831 0.294059 12.9213 0.185618 12.7433 0.111693C12.5653 0.0377681 12.3747 -0.000186732 12.1821 6.90751e-07Z" fill="#4200FF"/>
<path d="M37.4982 26.7074H29.9132C29.5592 26.7074 29.2171 26.836 28.9501 27.0697L26.6939 29.0451C26.5361 29.1835 26.4096 29.3541 26.3229 29.5456C26.2363 29.7372 26.1915 29.9451 26.1914 30.1555V38.4952C26.1914 38.8858 26.3458 39.2604 26.6206 39.5365C26.8955 39.8127 27.2683 39.9679 27.657 39.9679C28.0457 39.9679 28.4185 39.8127 28.6933 39.5365C28.9682 39.2604 29.1225 38.8858 29.1225 38.4952V30.8252L30.459 29.652H37.4954C37.6906 29.6563 37.8845 29.6214 38.066 29.5494C38.2476 29.4773 38.4131 29.3696 38.5526 29.2324C38.6921 29.0953 38.8028 28.9315 38.8785 28.7507C38.9542 28.57 38.9932 28.3758 38.9932 28.1797C38.9932 27.9836 38.9542 27.7894 38.8785 27.6087C38.8028 27.4279 38.6921 27.2641 38.5526 27.127C38.4131 26.9898 38.2476 26.8821 38.066 26.81C37.8845 26.738 37.6906 26.7031 37.4954 26.7074H37.4982Z" fill="#4200FF"/>
<path d="M20.2021 11.7058C20.5908 11.7058 20.9634 11.5506 21.2383 11.2745C21.5131 10.9983 21.6676 10.6237 21.6676 10.2331V1.47268C21.6676 1.0821 21.5131 0.707519 21.2383 0.431339C20.9634 0.155159 20.5908 0 20.2021 0C19.8134 0 19.4406 0.155159 19.1657 0.431339C18.8909 0.707519 18.7363 1.0821 18.7363 1.47268V10.2338C18.7365 10.6243 18.891 10.9987 19.1659 11.2747C19.4407 11.5507 19.8135 11.7058 20.2021 11.7058Z" fill="#4200FF"/>
<path d="M20.2021 28.2617C19.8134 28.2617 19.4406 28.4169 19.1657 28.6931C18.8909 28.9692 18.7363 29.3438 18.7363 29.7344V38.4956C18.7363 38.8861 18.8909 39.2607 19.1657 39.5369C19.4406 39.8131 19.8134 39.9682 20.2021 39.9682C20.5908 39.9682 20.9634 39.8131 21.2383 39.5369C21.5131 39.2607 21.6676 38.8861 21.6676 38.4956V29.7344C21.6676 29.541 21.6297 29.3495 21.5561 29.1708C21.4824 28.9922 21.3744 28.8298 21.2383 28.6931C21.1022 28.5563 20.9406 28.4478 20.7628 28.3738C20.585 28.2998 20.3945 28.2617 20.2021 28.2617Z" fill="#4200FF"/>
<path d="M22.7075 15.7754H17.4128C17.0241 15.7754 16.6513 15.9305 16.3765 16.2067C16.1016 16.4829 15.9473 16.8575 15.9473 17.2481V22.7173C15.9473 23.1079 16.1016 23.4824 16.3765 23.7586C16.6513 24.0348 17.0241 24.19 17.4128 24.19H22.7075C23.0962 24.19 23.469 24.0348 23.7438 23.7586C24.0187 23.4824 24.1732 23.1079 24.1732 22.7173V17.2481C24.1732 16.8575 24.0187 16.4829 23.7438 16.2067C23.469 15.9305 23.0962 15.7754 22.7075 15.7754ZM21.2426 21.2446H18.8777V18.72H21.2426V21.2446Z" fill="#4200FF"/>
<path d="M11.4839 27.1003C11.3355 26.9644 11.1606 26.8608 10.9705 26.796C10.7803 26.7312 10.5788 26.7066 10.3787 26.7238C10.3249 26.7153 10.2706 26.7098 10.2162 26.7074H1.4978C1.30267 26.7031 1.10856 26.738 0.927028 26.81C0.745496 26.8821 0.580166 26.9898 0.440642 27.127C0.301118 27.2641 0.190219 27.4279 0.114536 27.6087C0.0388521 27.7894 0 27.9836 0 28.1797C0 28.3758 0.0388521 28.57 0.114536 28.7507C0.190219 28.9315 0.301118 29.0953 0.440642 29.2324C0.580166 29.3696 0.745496 29.4773 0.927028 29.5494C1.10856 29.6214 1.30267 29.6563 1.4978 29.652H9.91886L10.7166 30.3837V38.4952C10.7123 38.6913 10.747 38.8862 10.8187 39.0686C10.8904 39.251 10.9977 39.4172 11.1342 39.5574C11.2707 39.6976 11.4336 39.809 11.6135 39.8851C11.7934 39.9611 11.9867 40.0003 12.1818 40.0003C12.377 40.0003 12.5703 39.9611 12.7502 39.8851C12.9301 39.809 13.093 39.6976 13.2295 39.5574C13.366 39.4172 13.4733 39.251 13.545 39.0686C13.6167 38.8862 13.6514 38.6913 13.6471 38.4952V29.7347C13.6471 29.5301 13.6048 29.3277 13.5227 29.1405C13.4405 28.9532 13.3205 28.7852 13.1702 28.6472L11.4839 27.1003Z" fill="#4200FF"/>
</svg>
