<svg width="40" height="40" viewBox="0 0 40 40" fill="none" xmlns="http://www.w3.org/2000/svg">
<path d="M12.3926 32.8574C13.4091 32.2239 14.6072 31.9295 15.8084 32.0181C17.1547 32.0554 18.5058 31.9808 19.8522 32.0414C22.0004 32.1195 24.1458 31.8243 26.1891 31.1695C27.8494 30.6566 29.5193 30.2369 31.2129 29.7707C31.4036 29.7175 31.5873 29.6424 31.76 29.5468C33.9199 28.3019 36.075 27.0476 38.2444 25.8167C38.5393 25.6488 38.6012 25.4996 38.4679 25.2012C38.3273 24.8416 38.0818 24.5305 37.762 24.3066C37.4422 24.0828 37.0624 23.956 36.6696 23.9422C35.487 23.9016 34.3157 24.179 33.2824 24.7442C32.8066 24.9634 32.3309 25.2105 31.8884 25.453C31.3366 25.7327 30.7943 26.0358 30.2281 26.2876C29.662 26.5394 29.1054 26.7212 28.4679 26.959C28.5059 26.8984 28.4679 26.9217 28.4679 26.959C28.4298 27.9475 28.3299 28.0454 27.3213 28.0454H18.1015C17.973 28.0454 17.8446 28.0454 17.7209 28.0454C17.5417 28.0406 17.3716 27.967 17.2471 27.8406C17.1225 27.7142 17.0535 27.545 17.0548 27.3693C17.0595 27.2005 17.1294 27.0397 17.2504 26.9194C17.3714 26.7991 17.5344 26.7282 17.7066 26.7212C17.8334 26.7142 17.9604 26.7142 18.0872 26.7212H27.0597C27.0196 26.2776 26.8683 25.8506 26.6193 25.478C26.3704 25.1055 26.0314 24.799 25.6325 24.5857C24.9366 24.231 24.1617 24.0516 23.3774 24.0635C21.817 24.0635 20.2566 24.0635 18.7009 24.0635C18.1688 24.0921 17.6394 23.9725 17.1738 23.7184C16.0528 23.1006 14.7681 22.8277 13.4868 22.9351C12.5062 22.9767 11.5446 23.2136 10.6604 23.6313C9.7763 24.0489 8.98816 24.6386 8.34402 25.3644C8.28883 25.4416 8.21777 25.5066 8.13541 25.5553C8.05306 25.604 7.96122 25.6353 7.86579 25.6472C7.77037 25.659 7.67347 25.6512 7.58131 25.6242C7.48916 25.5971 7.40379 25.5515 7.33069 25.4903C7.25937 25.4273 7.20234 25.3504 7.1633 25.2644C7.12426 25.1785 7.10409 25.0854 7.10409 24.9913C7.10409 24.8973 7.12426 24.8042 7.1633 24.7183C7.20234 24.6323 7.25937 24.5554 7.33069 24.4924C8.64039 23.0372 10.415 22.0603 12.3645 21.7215C14.314 21.3828 16.3231 21.7021 18.0634 22.6273C18.2124 22.6947 18.3751 22.7281 18.5392 22.7253C20.1139 22.7253 21.6886 22.6926 23.2633 22.7253C24.0389 22.7561 24.8075 22.8814 25.5516 23.0983C26.1149 23.2511 26.6354 23.5273 27.0739 23.9062C27.5123 24.285 27.8572 24.7565 28.0825 25.2851C28.1872 25.5136 28.3061 25.5789 28.5345 25.4996C28.8696 25.397 29.1984 25.2756 29.5193 25.1359C31.0131 24.4365 32.4784 23.6718 33.9912 23.0237C35.0373 22.5686 36.2055 22.4574 37.3214 22.7066C39.0769 23.0983 39.8381 24.4971 39.9951 25.8819C40.0379 26.255 39.7953 26.4554 39.4908 26.628C37.3309 27.8729 35.1568 29.0946 33.0207 30.3582C32.0912 30.8592 31.0931 31.2267 30.0569 31.4492C28.1539 31.9761 26.2224 32.5403 24.2861 33.0113C23.4193 33.214 22.5321 33.3219 21.641 33.333C19.4573 33.3796 17.2737 33.333 15.09 33.333C14.4956 33.3341 13.913 33.4954 13.4059 33.7993C13.6771 34.0417 13.9197 34.2376 14.1385 34.452C14.2243 34.5162 14.2942 34.5985 14.343 34.6928C14.3918 34.7871 14.4184 34.8909 14.4207 34.9966C14.423 35.1024 14.4009 35.2072 14.3562 35.3034C14.3115 35.3997 14.2452 35.4848 14.1623 35.5525C13.8198 35.9208 13.4487 36.2659 13.0872 36.6202C12.0358 37.6507 10.9844 38.6858 9.92824 39.7116C9.87433 39.7856 9.80605 39.8484 9.72732 39.8964C9.64859 39.9444 9.56095 39.9767 9.46945 39.9914C9.37795 40.0062 9.28438 40.003 9.19411 39.9822C9.10385 39.9614 9.01866 39.9233 8.94345 39.8702C8.85863 39.8066 8.78989 39.7248 8.74257 39.631C8.69526 39.5372 8.67065 39.4339 8.67065 39.3293C8.67065 39.2246 8.69526 39.1214 8.74257 39.0276C8.78989 38.9338 8.85863 38.8519 8.94345 38.7884C10.1043 37.6414 11.2667 36.5005 12.4306 35.3659C12.5452 35.2677 12.6677 35.1788 12.797 35.1002C10.1709 32.5357 7.61138 30.0411 5.00432 27.5046C4.82829 27.6911 4.62372 27.9195 4.40488 28.134L1.24596 31.2301C1.18616 31.3076 1.11034 31.3718 1.02347 31.4186C0.936588 31.4654 0.840608 31.4937 0.741808 31.5016C0.643008 31.5095 0.543615 31.4969 0.450132 31.4646C0.356649 31.4323 0.271186 31.381 0.199333 31.314C0.129032 31.244 0.0750418 31.1598 0.041074 31.0673C0.00710615 30.9749 -0.0060356 30.8763 0.00255283 30.7784C0.0111413 30.6805 0.0412577 30.5856 0.0908287 30.5001C0.1404 30.4147 0.20825 30.3408 0.289721 30.2836L4.43818 26.2176C4.91393 25.7747 5.28976 25.784 5.76074 26.2456L12.0738 32.4377C12.1884 32.5714 12.2948 32.7115 12.3926 32.8574Z" fill="#0092FF"/>
<path d="M28.6257 9.59314C28.5924 10.2086 28.5924 10.7495 28.5305 11.2857C28.4231 12.1066 28.0378 12.8684 27.4363 13.4492C27.1176 13.7756 27.1366 13.9155 27.5505 14.074L30.7142 15.3936C31.141 15.5677 31.5219 15.8344 31.8285 16.1736C32.135 16.5128 32.3591 16.9157 32.4839 17.3519C32.5114 17.482 32.509 17.6164 32.4769 17.7454C32.4448 17.8745 32.3838 17.9949 32.2984 18.098C31.2976 19.1139 30.1004 19.9241 28.7767 20.4815C27.4529 21.0389 26.0291 21.3323 24.5884 21.3444C23.1477 21.3566 21.7189 21.0873 20.3856 20.5523C19.0522 20.0174 17.8409 19.2274 16.8225 18.2285C16.6613 18.1029 16.5502 17.9258 16.5085 17.7282C16.4668 17.5305 16.4971 17.3248 16.5942 17.1468C16.7627 16.7406 17.013 16.372 17.3302 16.0627C17.6473 15.7535 18.0248 15.5101 18.44 15.347C19.4724 14.9273 20.4952 14.489 21.5228 14.0554C21.8606 13.9108 21.8987 13.7616 21.637 13.5005C21.2227 13.0992 20.9005 12.6159 20.6921 12.0827C20.4837 11.5496 20.3939 10.979 20.4286 10.4091C20.4524 9.53252 20.4286 8.65593 20.519 7.78866C20.6903 6.01216 21.7417 4.93972 23.5638 4.76254C24.3779 4.68071 25.1998 4.71369 26.0043 4.86046C27.4315 5.13556 28.3212 6.18001 28.502 7.70939C28.5686 8.34819 28.5686 9.0103 28.6257 9.59314ZM17.8929 17.3659C21.9034 21.1521 27.9596 20.5832 31.109 17.338C30.8196 17.0666 30.5005 16.8273 30.1575 16.6246C29.0966 16.135 28.0024 15.7153 26.9273 15.249C26.8293 15.1992 26.7197 15.1756 26.6094 15.1805C26.4992 15.1854 26.3922 15.2187 26.2993 15.277C25.765 15.5996 25.1499 15.7705 24.5224 15.7705C23.8949 15.7705 23.2797 15.5996 22.7455 15.277C22.6495 15.2221 22.5403 15.1932 22.4291 15.1932C22.318 15.1932 22.2088 15.2221 22.1128 15.277C21.0519 15.7433 19.9719 16.149 18.9205 16.6339C18.5536 16.8431 18.2093 17.0884 17.8929 17.3659ZM27.2317 9.63044H27.265C27.227 9.01962 27.2175 8.4088 27.1413 7.80265C27.1296 7.35688 26.9449 6.93226 26.625 6.61522C26.305 6.29818 25.8738 6.11254 25.4192 6.09608C24.8171 6.02616 24.2087 6.02616 23.6066 6.09608C23.1434 6.10826 22.7035 6.29749 22.3808 6.62335C22.0581 6.94921 21.8782 7.38585 21.8796 7.83995C21.7988 8.7352 21.813 9.63977 21.7893 10.5397C21.774 10.958 21.8566 11.3741 22.0306 11.7564C22.2045 12.1386 22.4653 12.4768 22.7931 12.7452C22.9784 12.9248 23.0988 13.159 23.1356 13.4119C23.2022 14.0461 23.2355 14.1347 23.8587 14.3445C24.1299 14.4289 24.4155 14.4596 24.699 14.4347C24.9824 14.4099 25.2579 14.3301 25.5096 14.1999C25.7617 14.0787 25.9234 13.9435 25.8759 13.6404C25.8458 13.4544 25.8706 13.2639 25.9473 13.0913C26.024 12.9186 26.1494 12.771 26.3088 12.6659C26.6042 12.4244 26.8405 12.1209 27.0002 11.7779C27.16 11.435 27.2391 11.0612 27.2317 10.6842C27.2365 10.3252 27.2317 9.97548 27.2317 9.63044Z" fill="#0092FF"/>
<path d="M13.5957 10.6795C13.5968 9.08882 13.9603 7.51847 14.6594 6.08298C15.3586 4.6475 16.3759 3.38309 17.6372 2.38199C18.8984 1.38089 20.3717 0.66835 21.9497 0.296354C23.5276 -0.0756422 25.1704 -0.0977142 26.7582 0.231748C28.3459 0.56121 29.8386 1.2339 31.1274 2.20074C32.4161 3.16758 33.4684 4.40418 34.2075 5.82034C34.9465 7.2365 35.3537 8.7965 35.3994 10.3865C35.445 11.9766 35.1279 13.5565 34.4712 15.0112C34.1953 15.608 33.8813 15.8132 33.4674 15.6453C33.0535 15.4774 32.9441 15.0904 33.2153 14.4843C34.0338 12.7102 34.2587 10.7278 33.858 8.82079C33.4572 6.91378 32.4513 5.17988 30.984 3.86722C28.1962 1.3913 24.9279 0.687225 21.3836 1.89954C17.8393 3.11185 15.7318 5.68568 15.0895 9.32729C14.7935 11.0824 15.049 12.8842 15.8222 14.4936C15.8595 14.5696 15.8928 14.6474 15.9221 14.7267C15.9651 14.807 15.9908 14.895 15.9977 14.9854C16.0046 15.0757 15.9925 15.1665 15.9621 15.2521C15.9318 15.3377 15.8838 15.4163 15.8212 15.483C15.7586 15.5497 15.6827 15.6031 15.5982 15.6398C15.5137 15.6766 15.4224 15.696 15.3299 15.6968C15.2375 15.6976 15.1458 15.6798 15.0607 15.6444C14.9755 15.6091 14.8987 15.557 14.8349 15.4914C14.7711 15.4258 14.7218 15.348 14.6899 15.263C14.1733 14.2251 13.8403 13.1089 13.7051 11.9617C13.6528 11.5188 13.6338 11.0898 13.5957 10.6795Z" fill="#0092FF"/>
<path d="M22.4723 37.3638H21.497C20.7215 37.3638 20.4028 37.1633 20.4123 36.6831C20.4218 36.2028 20.7263 36.0629 21.516 36.021C23.1669 35.937 24.8462 35.923 26.4637 35.6852C30.3175 35.1148 33.9627 33.6027 37.0633 31.2883L37.539 30.9386C37.9862 30.6168 38.3573 30.6168 38.6237 30.9386C38.8901 31.2603 38.8187 31.6613 38.3478 31.9923C37.5342 32.5705 36.7302 33.1627 35.8692 33.6756C31.8389 36.0988 27.2005 37.3757 22.4723 37.3638Z" fill="#0092FF"/>
<path d="M18.3382 37.359C18.168 37.3411 18.011 37.261 17.8984 37.1347C17.7858 37.0083 17.7259 36.8451 17.7307 36.6774C17.7355 36.5097 17.8047 36.3499 17.9243 36.23C18.044 36.11 18.2053 36.0387 18.3763 36.0302C18.47 36.0255 18.5637 36.0399 18.6515 36.0724C18.7393 36.105 18.8192 36.155 18.8863 36.2193C18.9535 36.2836 19.0063 36.3608 19.0415 36.4461C19.0766 36.5313 19.0935 36.6228 19.0908 36.7148C19.0882 36.8067 19.0662 36.8971 19.0262 36.9804C18.9861 37.0636 18.929 37.1378 18.8583 37.1983C18.7876 37.2588 18.7049 37.3043 18.6154 37.332C18.5259 37.3596 18.4315 37.3689 18.3382 37.359Z" fill="#0092FF"/>
</svg>
