<svg width="32" height="40" viewBox="0 0 32 40" fill="none" xmlns="http://www.w3.org/2000/svg">
<path d="M11.7544 31.0286C12.5021 30.2425 13.0054 29.2513 13.2019 28.1781C13.3984 27.1049 13.2795 25.9968 12.8598 24.9914C12.4402 23.986 11.7383 23.1276 10.8413 22.5226C9.9443 21.9175 8.89167 21.5925 7.81396 21.5879C6.73625 21.5834 5.68093 21.8994 4.77894 22.4968C3.87696 23.0941 3.16802 23.9466 2.74007 24.9484C2.31212 25.9502 2.18399 27.0572 2.37161 28.132C2.55922 29.2069 3.05432 30.2023 3.79546 30.9948C3.60953 31.1446 3.43291 31.3059 3.26663 31.4778C0.875972 33.9812 0.984472 38.0673 1.00474 38.525C1.02239 38.9218 1.19048 39.2964 1.474 39.5708C1.75751 39.8452 2.13462 39.9983 2.5268 39.9982H13.0385C13.4299 39.9982 13.8063 39.8457 14.0896 39.5721C14.3728 39.2986 14.5413 38.9251 14.56 38.5292C14.5683 38.348 14.7388 34.1424 12.3541 31.5804C12.1669 31.3828 11.9665 31.1984 11.7544 31.0286ZM7.79042 24.6885C8.27608 24.6887 8.75081 24.8346 9.15456 25.108C9.55831 25.3814 9.87295 25.7698 10.0587 26.2243C10.2445 26.6788 10.293 27.1788 10.1982 27.6612C10.1034 28.1437 9.86945 28.5868 9.526 28.9345C9.18255 29.2823 8.745 29.5191 8.26866 29.615C7.79233 29.7109 7.29862 29.6616 6.84994 29.4733C6.40127 29.2851 6.01778 28.9664 5.74798 28.5574C5.47818 28.1484 5.33418 27.6675 5.33418 27.1757C5.33497 26.5162 5.59403 25.8839 6.05451 25.4177C6.51499 24.9514 7.13928 24.6892 7.79042 24.6885ZM4.13826 36.9146C4.24404 35.7063 4.70552 34.5579 5.46296 33.6183C5.76508 33.3158 6.1272 33.0818 6.52537 32.9316C6.92353 32.7815 7.34862 32.7189 7.77252 32.7477C8.209 32.7291 8.64447 32.8036 9.05074 32.9663C9.45701 33.129 9.82505 33.3762 10.131 33.692C10.8659 34.6141 11.3166 35.7349 11.4271 36.9146H4.13826Z" fill="#0092FF"/>
<path d="M29.7871 31.5822C29.6 31.3841 29.3996 31.1992 29.1874 31.0291C29.9349 30.2429 30.438 29.2519 30.6344 28.1788C30.8308 27.1057 30.7118 25.9978 30.2921 24.9925C29.8724 23.9873 29.1706 23.129 28.2736 22.5241C27.3767 21.9193 26.3241 21.5944 25.2465 21.5899C24.169 21.5854 23.1138 21.9015 22.212 22.4989C21.3101 23.0962 20.6013 23.9486 20.1735 24.9503C19.7456 25.952 19.6176 27.0589 19.8052 28.1336C19.9929 29.2083 20.488 30.2036 21.229 30.9959C21.0429 31.1455 20.8663 31.3068 20.7002 31.4789C18.3096 33.9823 18.4181 38.0683 18.4383 38.526C18.456 38.9228 18.6241 39.2974 18.9076 39.5719C19.1911 39.8463 19.5682 39.9995 19.9604 39.9994H30.4709C30.8623 39.9994 31.2387 39.8467 31.522 39.5732C31.8052 39.2997 31.9737 38.9263 31.9924 38.5303C32.0019 38.3522 32.1712 34.1435 29.7871 31.5822ZM25.2246 24.6878C25.7103 24.6878 26.185 24.8337 26.5889 25.107C26.9927 25.3803 27.3075 25.7687 27.4933 26.2232C27.6792 26.6776 27.7278 27.1777 27.6331 27.6602C27.5383 28.1426 27.3044 28.5858 26.961 28.9336C26.6176 29.2814 26.18 29.5183 25.7037 29.6142C25.2273 29.7102 24.7336 29.661 24.2849 29.4727C23.8362 29.2845 23.4526 28.9657 23.1828 28.5567C22.913 28.1477 22.769 27.6669 22.769 27.175C22.7698 26.5156 23.0287 25.8834 23.4891 25.4172C23.9494 24.9509 24.5736 24.6886 25.2246 24.6878ZM21.5724 36.9139C21.6779 35.7056 22.1392 34.5572 22.8966 33.6176C23.1986 33.3149 23.5607 33.0808 23.9589 32.9306C24.357 32.7805 24.7822 32.718 25.2061 32.747C25.6426 32.7285 26.078 32.8029 26.4843 32.9656C26.8906 33.1283 27.2586 33.3755 27.5646 33.6913C28.2993 34.6135 28.75 35.7342 28.8607 36.9139H21.5724Z" fill="#0092FF"/>
<path d="M15.1074 0.427771L6.99289 14.5323C6.91208 14.6726 6.87206 14.8332 6.87743 14.9956C6.8828 15.1579 6.93335 15.3155 7.02326 15.45C7.11316 15.5845 7.23877 15.6906 7.3856 15.756C7.53243 15.8214 7.69451 15.8434 7.85317 15.8196L12.5755 15.1138C12.7221 15.0919 12.8718 15.1091 13.0098 15.1638C13.1478 15.2184 13.2693 15.3086 13.3624 15.4253L15.3471 17.9142C15.4293 18.0175 15.5339 18.1001 15.6527 18.1557C15.7715 18.2113 15.9014 18.2384 16.0323 18.2349C16.1632 18.2314 16.2915 18.1974 16.4073 18.1355C16.523 18.0736 16.6231 17.9855 16.6998 17.878L18.5086 15.342C18.6 15.2139 18.7244 15.1137 18.8683 15.0523C19.0121 14.991 19.1698 14.9709 19.3242 14.9942L24.1532 15.723C24.3133 15.7472 24.477 15.7247 24.6249 15.6581C24.7728 15.5914 24.8989 15.4835 24.9884 15.3468C25.0779 15.2102 25.1271 15.0505 25.1301 14.8866C25.1332 14.7226 25.09 14.5612 25.0057 14.4212L16.5693 0.41268C16.4924 0.285357 16.3843 0.180409 16.2555 0.108082C16.1266 0.0357553 15.9814 -0.00147641 15.8341 4.48135e-05C15.6868 0.00156603 15.5424 0.0417885 15.415 0.116761C15.2877 0.191734 15.1817 0.298889 15.1074 0.427771ZM21.344 12.9014L19.1787 12.5735L16.9919 5.6719L21.344 12.9014ZM12.6488 12.7033L10.5771 13.0125L14.8797 5.54088L12.6488 12.7033ZM15.9433 14.8867L14.8511 13.5197L15.9242 10.0743L16.9836 13.4303L15.9433 14.8867Z" fill="#0092FF"/>
<path d="M13.7421 24.2188C13.5728 24.2188 13.4052 24.1851 13.2488 24.1195C13.0924 24.0538 12.9503 23.9577 12.8306 23.8365C12.711 23.7152 12.616 23.5713 12.5512 23.4129C12.4865 23.2545 12.4531 23.0848 12.4531 22.9134V18.6414C12.4531 18.2952 12.5889 17.9631 12.8306 17.7183C13.0724 17.4735 13.4002 17.3359 13.7421 17.3359C14.0839 17.3359 14.4117 17.4735 14.6535 17.7183C14.8952 17.9631 15.031 18.2952 15.031 18.6414V22.9134C15.031 23.2596 14.8952 23.5916 14.6535 23.8365C14.4117 24.0813 14.0839 24.2188 13.7421 24.2188Z" fill="#0092FF"/>
<path d="M17.9081 26.5938C17.7388 26.5938 17.5712 26.5601 17.4148 26.4945C17.2584 26.4288 17.1163 26.3327 16.9967 26.2115C16.877 26.0902 16.782 25.9463 16.7173 25.7879C16.6525 25.6295 16.6191 25.4598 16.6191 25.2884V21.0164C16.6191 20.6702 16.7549 20.3381 16.9967 20.0933C17.2384 19.8485 17.5662 19.7109 17.9081 19.7109C18.2499 19.7109 18.5778 19.8485 18.8195 20.0933C19.0612 20.3381 19.197 20.6702 19.197 21.0164V25.2884C19.197 25.4598 19.1637 25.6295 19.0989 25.7879C19.0341 25.9463 18.9392 26.0902 18.8195 26.2115C18.6998 26.3327 18.5577 26.4288 18.4013 26.4945C18.2449 26.5601 18.0773 26.5938 17.9081 26.5938Z" fill="#0092FF"/>
</svg>
