<svg width="26" height="40" viewBox="0 0 26 40" fill="none" xmlns="http://www.w3.org/2000/svg">
<path d="M13.8105 0C14.2825 0.101378 14.7633 0.176307 15.2309 0.304131C16.9635 0.772861 18.4941 1.78911 19.5896 3.19822C20.6852 4.60733 21.2857 6.33215 21.2998 8.11022C21.322 12.0772 21.3309 16.0794 21.2998 20.064C21.2735 22.0997 20.4822 24.0528 19.0802 25.5424C17.6781 27.0319 15.7659 27.9511 13.7164 28.1206C11.6669 28.2901 9.62704 27.6979 7.99472 26.4593C6.3624 25.2208 5.25464 23.4248 4.88747 21.4215C4.79382 20.9095 4.74466 20.3904 4.74053 19.87C4.74053 16.0059 4.74053 12.1389 4.74053 8.26889C4.72339 6.25676 5.45518 4.3088 6.79627 2.79668C8.13736 1.28456 9.99389 0.314124 12.0116 0.0705219C12.089 0.0546017 12.1649 0.0324932 12.2387 0.00440867L13.8105 0ZM10.6358 21.0954H7.26515C7.52285 22.4234 8.24362 23.6197 9.30159 24.4753C10.3596 25.3309 11.6875 25.7914 13.0535 25.7764C15.8275 25.7764 18.6059 23.5152 18.7885 21.0821H15.4223V18.7416H18.9221V15.2155H15.4268V12.8706H18.931V9.36642H15.4312V7.00828H18.7885C18.5103 5.62424 17.7319 4.38806 16.5992 3.53126C15.4665 2.67446 14.0571 2.25582 12.635 2.35372C10.0391 2.50359 7.29187 4.89258 7.29187 7.03914H10.6313V9.39286H7.13158V12.919H10.6269V15.2507H7.13603V18.7769H10.6402L10.6358 21.0954Z" fill="#0E9EAC"/>
<path d="M3.55321 40V37.6595H11.8217V32.7713C9.95533 32.5974 8.14902 32.026 6.52662 31.0963C4.90423 30.1666 3.50411 28.9006 2.42225 27.385C0.841399 25.2221 -0.00657327 22.6189 3.83711e-05 19.9492H2.35101C2.35581 21.5422 2.7272 23.1133 3.43699 24.543C4.14678 25.9727 5.17631 27.2235 6.44741 28.2005C8.46255 29.8226 11.025 30.6261 13.6161 30.4484C16.3286 30.2938 18.8798 29.1222 20.7508 27.1718C22.6218 25.2214 23.672 22.6388 23.6879 19.9492H25.9899C26.2348 25.2385 22.0271 31.9294 14.2306 32.7669V37.6462H22.4901V40H3.55321Z" fill="#0E9EAC"/>
</svg>
