<svg width="34" height="40" viewBox="0 0 34 40" fill="none" xmlns="http://www.w3.org/2000/svg">
<path d="M4.63372 39.9274C4.05524 39.7868 3.48872 39.6066 2.93881 39.3884C2.07682 39.0047 1.34627 38.4062 0.828495 37.6595C0.310722 36.9127 0.0260423 36.0469 0.00617988 35.1586V5.14632C-0.0540395 3.9929 0.327389 2.85695 1.08273 1.94024C1.83806 1.02352 2.91843 0.385356 4.13194 0.139085C4.55233 0.0481663 4.98265 0.00293491 5.41426 0.00431H24.7718C24.9817 -0.0121824 25.1927 0.0188115 25.3869 0.0946348C25.5811 0.170458 25.7526 0.288855 25.8869 0.43972C28.4516 3.1213 31.0199 5.79598 33.592 8.46374C33.7298 8.60297 33.8363 8.7664 33.9053 8.94443C33.9742 9.12245 34.0042 9.31149 33.9935 9.50044C33.9935 17.9184 33.9935 26.3364 33.9935 34.7543C34.0589 35.9868 33.6316 37.1983 32.7936 38.1553C31.9557 39.1124 30.7665 39.7473 29.4551 39.9378C29.4551 39.9378 29.3882 39.9378 29.3548 40L4.63372 39.9274ZM24.1028 1.63193H23.6568C17.5797 1.63193 11.5025 1.63193 5.42541 1.63193C5.09178 1.626 4.7586 1.65733 4.433 1.72523C3.63436 1.89303 2.92533 2.31814 2.43146 2.9253C1.93758 3.53246 1.6907 4.28251 1.73454 5.04265V34.8269C1.70399 35.2863 1.77826 35.7466 1.95248 36.1775C2.1267 36.6084 2.39692 37.0001 2.74544 37.3271C3.09396 37.654 3.5129 37.9088 3.97476 38.0747C4.43663 38.2405 4.93098 38.3137 5.42541 38.2895C13.0859 38.2895 20.7464 38.2895 28.407 38.2895C28.9906 38.2796 29.5664 38.1634 30.1019 37.9473C30.7322 37.6755 31.2599 37.2334 31.6159 36.6786C31.972 36.1238 32.1399 35.4821 32.0978 34.8373V10.4749C32.0978 10.3505 32.0978 10.2261 32.0978 10.0602H25.3294C24.3704 10.0602 24.0805 9.80107 24.0805 8.90951V1.65265L24.1028 1.63193ZM25.8869 3.0211V8.39117H31.0162L25.8869 3.0211Z" fill="#13CDD9"/>
<path d="M16.7559 23.5907H6.72026C6.51268 23.6109 6.3034 23.6109 6.09582 23.5907C5.90694 23.5499 5.73848 23.4508 5.61788 23.3095C5.49728 23.1682 5.43164 22.9932 5.43164 22.8128C5.43164 22.6324 5.49728 22.4574 5.61788 22.3161C5.73848 22.1749 5.90694 22.0757 6.09582 22.0349C6.28594 21.9938 6.48047 21.9729 6.67566 21.9727H26.8361C27.6501 21.9727 28.0626 22.2527 28.0626 22.8024C28.0626 23.3522 27.6389 23.6322 26.8472 23.6322L16.7559 23.5907Z" fill="#13CDD9"/>
<path d="M16.7439 17.8944H26.7238C26.9169 17.8841 27.1105 17.8841 27.3036 17.8944C27.4988 17.9191 27.6781 18.008 27.809 18.145C27.9399 18.2819 28.0138 18.458 28.0173 18.6412C28.0311 18.8182 27.9802 18.9944 27.873 19.1413C27.7657 19.2881 27.6083 19.397 27.4263 19.4502C27.2265 19.5008 27.0201 19.5252 26.813 19.5228H6.60798C5.84974 19.5228 5.43715 19.222 5.426 18.693C5.41485 18.1641 5.83859 17.8633 6.60798 17.8633L16.7439 17.8944Z" fill="#13CDD9"/>
<path d="M16.6977 15.4597H6.66211C5.84811 15.4597 5.43555 15.1797 5.43555 14.6403C5.43555 14.101 5.85926 13.8105 6.66211 13.8105H26.8894C27.6031 13.8105 28.0045 14.1217 28.0045 14.6403C28.0045 15.1589 27.5919 15.4597 26.8894 15.4597H16.6977Z" fill="#13CDD9"/>
<path d="M16.7543 27.6239H6.71865C5.86005 27.6239 5.45863 27.3646 5.44747 26.8149C5.43632 26.2651 5.87121 25.9747 6.70751 25.9747H26.7787C26.9894 25.9727 27.1995 25.9971 27.4032 26.0473C27.5834 26.0979 27.7404 26.2028 27.8494 26.3455C27.9585 26.4882 28.0133 26.6607 28.0053 26.8356C28.0009 27.0192 27.9286 27.1957 27.8007 27.3355C27.6727 27.4753 27.4969 27.5698 27.3028 27.6032C27.1208 27.6135 26.9384 27.6135 26.7564 27.6032L16.7543 27.6239Z" fill="#13CDD9"/>
<path d="M10.1649 9.99028C8.93831 9.99028 7.70058 9.99028 6.47401 9.99028C6.18704 9.98507 5.90949 9.89416 5.68232 9.73098C5.57724 9.63528 5.50073 9.5158 5.46033 9.38427C5.41993 9.25274 5.41704 9.11369 5.45191 8.9808C5.48678 8.84791 5.55823 8.72574 5.65923 8.62631C5.76024 8.52689 5.88732 8.45362 6.02799 8.41372C6.19197 8.37545 6.36076 8.358 6.52977 8.36185H13.9004C14.4802 8.36185 14.8259 8.54855 14.9374 8.91157C14.9837 9.04135 14.9949 9.17979 14.9699 9.31455C14.9449 9.44931 14.8844 9.57622 14.7939 9.68401C14.7034 9.79179 14.5857 9.8771 14.4512 9.93234C14.3167 9.98759 14.1696 10.011 14.023 10.0006L10.1649 9.99028Z" fill="#13CDD9"/>
<path d="M10.2771 29.9733H14.0014C14.2114 29.9542 14.422 30.0025 14.5984 30.11C14.7748 30.2175 14.9065 30.3779 14.9716 30.5645C15.0114 30.6896 15.0182 30.8218 14.9912 30.9498C14.9643 31.0779 14.9045 31.198 14.8168 31.2999C14.7292 31.4017 14.6164 31.4824 14.488 31.535C14.3596 31.5875 14.2195 31.6104 14.0795 31.6017C13.4439 31.6017 12.8195 31.6017 12.195 31.6017H6.49704C5.828 31.6017 5.38196 31.249 5.46002 30.7304C5.53807 30.2118 5.86145 29.9629 6.46359 29.9629L10.2771 29.9733Z" fill="#13CDD9"/>
</svg>
