<svg width="35" height="40" viewBox="0 0 35 40" fill="none" xmlns="http://www.w3.org/2000/svg">
<path d="M29.1118 0C29.4237 0.0758098 29.7426 0.137836 30.0545 0.220537C31.5218 0.603973 32.8107 1.47991 33.7029 2.69998C34.5951 3.92004 35.0356 5.40921 34.95 6.91525C34.8643 8.42129 34.2577 9.85159 33.2329 10.9639C32.2081 12.0762 30.8281 12.8021 29.3267 13.0186C28.3454 13.1685 27.3425 13.091 26.3962 12.7921C25.45 12.4933 24.586 11.9811 23.8715 11.2957L23.5527 10.9993H23.4834L12.6909 17.643C13.2799 19.1717 13.2799 20.8628 12.6909 22.3915L23.4972 29.042C23.719 28.8491 23.9339 28.6423 24.1904 28.4493C24.9699 27.7982 25.8908 27.3358 26.8806 27.0986C27.8704 26.8614 28.9021 26.8559 29.8944 27.0825C30.8867 27.3091 31.8126 27.7616 32.5991 28.4044C33.3856 29.0472 34.0113 29.8628 34.4269 30.7869C34.8426 31.711 35.0368 32.7184 34.9943 33.7299C34.9518 34.7413 34.6737 35.7291 34.182 36.6155C33.6903 37.5019 32.9983 38.2627 32.1606 38.8381C31.3229 39.4134 30.3623 39.7876 29.3544 39.9311C29.2815 39.9499 29.2098 39.9729 29.1395 40H27.7532C27.0474 39.8405 26.3528 39.6356 25.6737 39.3866C24.2158 38.733 23.0506 37.569 22.4 36.1164C21.7494 34.6638 21.6588 33.024 22.1456 31.5093C22.1828 31.4498 22.2061 31.3828 22.2138 31.3132C22.2216 31.2435 22.2135 31.1731 22.1902 31.107C22.1669 31.0408 22.1291 30.9808 22.0793 30.9311C22.0296 30.8815 21.9694 30.8436 21.903 30.8201C18.4996 28.7526 15.117 26.6506 11.7274 24.5624L11.464 24.4108C10.7306 25.2151 9.80738 25.8252 8.77758 26.1862C7.74778 26.5471 6.64382 26.6475 5.56524 26.4783C3.95234 26.2471 2.49058 25.4081 1.48254 24.1351C0.433926 22.8639 -0.0911875 21.2449 0.012997 19.6041C0.117181 17.9634 0.842919 16.4228 2.044 15.2929C2.68041 14.6907 3.43103 14.2205 4.25209 13.9097C5.07315 13.5988 5.94822 13.4536 6.8263 13.4825C7.70438 13.5114 8.56789 13.7137 9.36651 14.0778C10.1651 14.4419 10.8829 14.9604 11.4779 15.603L12.7949 14.7898C15.8586 12.9014 18.927 11.0131 22 9.12475C22.0458 9.10632 22.0872 9.07856 22.1215 9.04327C22.1558 9.00797 22.1823 8.96592 22.1993 8.91982C22.2162 8.87372 22.2233 8.82461 22.22 8.77562C22.2168 8.72664 22.2032 8.67888 22.1802 8.63542C21.8723 7.72301 21.7711 6.75418 21.884 5.79833C21.9968 4.84248 22.3209 3.92328 22.833 3.10657C23.345 2.28986 24.0324 1.59585 24.8459 1.07427C25.6594 0.552682 26.5788 0.216426 27.5383 0.0895915C27.6026 0.0751553 27.6653 0.0543795 27.7255 0.0275678L29.1118 0ZM28.3771 37.581C29.1975 37.5809 29.9997 37.3396 30.6825 36.8873C31.3654 36.435 31.8984 35.7921 32.2146 35.0393C32.5307 34.2865 32.6159 33.4576 32.4593 32.6568C32.3027 31.856 31.9114 31.1191 31.3346 30.539C30.7578 29.9588 30.0213 29.5612 29.2178 29.3962C28.4142 29.2313 27.5796 29.3063 26.8188 29.6119C26.0581 29.9175 25.4053 30.44 24.9425 31.1136C24.4797 31.7873 24.2277 32.5819 24.2181 33.3977C24.2117 33.9447 24.3145 34.4876 24.5207 34.9949C24.7268 35.5022 25.0321 35.9637 25.419 36.3528C25.8058 36.7419 26.2664 37.0509 26.7742 37.2617C27.282 37.4725 27.8268 37.581 28.3771 37.581ZM28.3771 2.39834C27.5563 2.39838 26.7539 2.6399 26.0709 3.09247C25.3878 3.54503 24.8548 4.18842 24.5388 4.9416C24.2229 5.69478 24.1381 6.52407 24.2952 7.32505C24.4524 8.12603 24.8444 8.86287 25.4219 9.44278C25.9993 10.0227 26.7365 10.4198 27.5405 10.5839C28.3445 10.7481 29.1794 10.6721 29.94 10.3655C30.7006 10.0588 31.353 9.53528 31.815 8.86073C32.2769 8.18618 32.5278 7.3908 32.536 6.57477C32.5415 6.03001 32.4387 5.48954 32.2334 4.98442C32.0282 4.4793 31.7245 4.01949 31.34 3.63139C30.9555 3.2433 30.4976 2.93457 29.9927 2.72296C29.4878 2.51136 28.9458 2.40104 28.3979 2.39834H28.3771ZM2.36285 19.9931C2.36285 20.8109 2.60677 21.6104 3.06376 22.2904C3.52075 22.9704 4.17029 23.5004 4.93024 23.8134C5.69019 24.1264 6.52641 24.2083 7.33317 24.0487C8.13993 23.8892 8.88098 23.4954 9.46262 22.9171C10.0443 22.3388 10.4404 21.602 10.6008 20.7998C10.7613 19.9977 10.6789 19.1663 10.3642 18.4107C10.0494 17.6551 9.51632 17.0093 8.83238 16.5549C8.14845 16.1005 7.34436 15.858 6.5218 15.858C5.42238 15.8635 4.36988 16.3016 3.59442 17.0764C2.81895 17.8513 2.38363 18.9 2.38364 19.9931H2.36285Z" fill="#A8033F"/>
</svg>
