<svg width="37" height="40" viewBox="0 0 37 40" fill="none" xmlns="http://www.w3.org/2000/svg">
<path d="M0 19.9542V1.82168C0 1.62887 0 1.43605 0 1.24324C0.014499 0.927886 0.143609 0.628532 0.363296 0.400922C0.582984 0.173313 0.878269 0.0329624 1.19416 0.0060116C1.32851 -0.00200387 1.46323 -0.00200387 1.59759 0.0060116C12.8453 0.0060116 24.0876 0.0060116 35.3246 0.0060116C35.7366 0.0101533 36.1382 0.135978 36.4784 0.367542C36.7366 0.544288 36.8415 0.945984 36.9786 1.25931C37.0071 1.42143 37.0071 1.58725 36.9786 1.74938V38.2314C36.9786 38.4001 36.9786 38.5608 36.9786 38.7215C36.9723 39.0611 36.8329 39.3848 36.5902 39.6234C36.3475 39.8621 36.0207 39.9968 35.6796 39.9989H1.70249C1.46409 40.0054 1.22575 39.9838 0.992441 39.9346C0.728289 39.8783 0.490186 39.7368 0.315108 39.5319C0.140029 39.3271 0.0377731 39.0705 0.024205 38.8018C0.0121277 38.5931 0.0121277 38.3839 0.024205 38.1752L0 19.9542ZM2.90472 2.86609V37.1067H34.1223V2.86609H2.90472Z" fill="#FC7754"/>
<path d="M9.90044 10.7091L14.2575 6.24223C14.3624 6.12975 14.4592 6.02531 14.5722 5.92087C14.8382 5.6985 15.1769 5.58092 15.5241 5.59037C15.8713 5.59982 16.203 5.73564 16.4564 5.97214C16.7098 6.20864 16.8674 6.52942 16.8993 6.8738C16.9313 7.21818 16.8353 7.56227 16.6297 7.84098C16.5576 7.93679 16.4766 8.02556 16.3876 8.1061C14.5561 9.93783 12.6922 11.7455 10.8848 13.6174C10.7357 13.7814 10.552 13.9106 10.3468 13.9958C10.1417 14.0809 9.92024 14.1199 9.69824 14.1099C9.47623 14.0999 9.25918 14.0412 9.06259 13.938C8.86601 13.8348 8.69475 13.6897 8.56105 13.5129C7.71384 12.4766 6.81014 11.4884 5.92259 10.4761C5.78586 10.3413 5.67896 10.1795 5.60877 10.0011C5.53857 9.8227 5.50662 9.63166 5.51497 9.44025C5.52333 9.24883 5.57181 9.06127 5.6573 8.88962C5.74278 8.71796 5.86338 8.56601 6.01135 8.44352C6.1389 8.31597 6.29135 8.2158 6.45929 8.14919C6.62722 8.08257 6.80708 8.05092 6.98777 8.05618C7.16847 8.06145 7.34616 8.10354 7.50989 8.17983C7.67362 8.25612 7.81992 8.365 7.93976 8.49976C8.41581 8.9577 8.83538 9.49596 9.27916 9.99407L9.90044 10.7091Z" fill="#FC7754"/>
<path d="M9.93252 20.7425C10.1423 20.5015 10.3037 20.2926 10.4893 20.1079C11.8125 18.7501 13.1277 17.3843 14.459 16.0346C14.6631 15.8025 14.94 15.646 15.2447 15.5906C15.5494 15.5352 15.8641 15.5841 16.1373 15.7294C16.4102 15.8592 16.632 16.0756 16.7679 16.3447C16.9037 16.6137 16.9459 16.9201 16.8877 17.2156C16.8258 17.5188 16.6773 17.7978 16.4601 18.019C14.5666 19.9418 12.657 21.8485 10.7313 23.7392C10.6096 23.8722 10.4613 23.9785 10.296 24.0512C10.1306 24.1239 9.95189 24.1614 9.77115 24.1614C9.59041 24.1614 9.41166 24.1239 9.24632 24.0512C9.08099 23.9785 8.93272 23.8722 8.81098 23.7392C7.76205 22.5984 6.7454 21.4254 5.74489 20.2444C5.58198 20.0011 5.50613 19.7102 5.52956 19.4187C5.55298 19.1272 5.67431 18.8521 5.87399 18.6376C6.03031 18.3959 6.2693 18.2188 6.54671 18.139C6.82411 18.0593 7.12115 18.0823 7.38282 18.2038C7.68918 18.3351 7.96416 18.5295 8.18969 18.7742C8.74643 19.3607 9.28703 20.0114 9.93252 20.7425Z" fill="#FC7754"/>
<path d="M9.8268 30.7687C10.4239 30.2144 11.021 29.6922 11.5696 29.1619C12.5217 28.2139 13.4416 27.2418 14.3856 26.2858C14.505 26.1273 14.6573 25.9965 14.8322 25.9021C15.0071 25.8078 15.2005 25.7523 15.399 25.7393C15.5975 25.7263 15.7964 25.7562 15.9822 25.827C16.168 25.8977 16.3362 26.0077 16.4754 26.1492C16.6237 26.2874 16.7403 26.4559 16.8173 26.6431C16.8942 26.8303 16.9297 27.0318 16.9213 27.234C16.9128 27.4361 16.8607 27.634 16.7684 27.8142C16.6762 27.9944 16.5459 28.1527 16.3866 28.2782C14.5201 30.1421 12.6508 32.0006 10.7789 33.8537C10.6541 34.008 10.4962 34.1324 10.3168 34.2179C10.1374 34.3034 9.941 34.3478 9.74209 34.3478C9.54317 34.3478 9.34679 34.3034 9.16737 34.2179C8.98795 34.1324 8.83004 34.008 8.70526 33.8537C7.73164 32.7825 6.76878 31.6846 5.81668 30.5598C5.60656 30.3112 5.49611 29.9941 5.50654 29.6693C5.51696 29.3446 5.64753 29.0351 5.87317 28.8004C6.04714 28.5493 6.30867 28.3716 6.60691 28.3018C6.90516 28.232 7.21881 28.2751 7.4869 28.4228C7.7687 28.5876 8.02205 28.7965 8.23728 29.0414C8.81015 29.5877 9.33461 30.2063 9.8268 30.7687Z" fill="#FC7754"/>
<path d="M24.974 11.2702C23.3038 11.2702 21.6336 11.2702 19.9553 11.2702C19.7564 11.2845 19.5567 11.255 19.3705 11.1836C19.1843 11.1122 19.0162 11.0008 18.8783 10.8573C18.7403 10.7138 18.6359 10.5418 18.5724 10.3534C18.5089 10.1651 18.488 9.96516 18.5111 9.76785C18.5115 9.43671 18.6357 9.11759 18.8594 8.87257C19.0831 8.62756 19.3903 8.47416 19.7214 8.44225C19.8101 8.44225 19.8989 8.44225 19.9876 8.44225C23.3038 8.44225 26.6201 8.44225 29.9363 8.44225C30.1479 8.4213 30.3615 8.44963 30.5603 8.52502C30.759 8.6004 30.9374 8.72077 31.0814 8.87661C31.2254 9.03246 31.3311 9.21951 31.39 9.42298C31.4489 9.62646 31.4595 9.84078 31.4209 10.049C31.4098 10.228 31.3627 10.4029 31.2822 10.5632C31.2017 10.7236 31.0895 10.8662 30.9525 10.9824C30.8154 11.0987 30.6562 11.1862 30.4843 11.2398C30.3125 11.2934 30.1316 11.3119 29.9524 11.2943C28.4597 11.2943 26.967 11.2943 25.4743 11.2943H24.974V11.2702Z" fill="#FC7754"/>
<path d="M24.9715 28.7196C26.6256 28.7196 28.2878 28.7196 29.9418 28.7196C30.148 28.6988 30.3563 28.7252 30.5506 28.797C30.7449 28.8688 30.9201 28.984 31.0627 29.1337C31.2053 29.2835 31.3115 29.4638 31.3731 29.6608C31.4348 29.8578 31.4503 30.0663 31.4184 30.2702C31.4089 30.5864 31.2855 30.8886 31.0707 31.1217C30.8559 31.3547 30.564 31.503 30.2484 31.5395C30.1008 31.5518 29.9523 31.5518 29.8047 31.5395H20.1223C19.9292 31.5599 19.7339 31.541 19.5483 31.484C19.3628 31.4271 19.1907 31.3332 19.0426 31.2082C18.8945 31.0832 18.7734 30.9295 18.6866 30.7566C18.5998 30.5836 18.5491 30.3949 18.5377 30.2019C18.5262 30.0088 18.5542 29.8155 18.6199 29.6336C18.6856 29.4516 18.7876 29.2848 18.9199 29.1433C19.0522 29.0017 19.2119 28.8884 19.3895 28.81C19.567 28.7317 19.7587 28.69 19.9528 28.6875C21.6069 28.7116 23.2933 28.7196 24.9715 28.7196Z" fill="#FC7754"/>
<path d="M24.9735 21.4246H19.9951C19.7583 21.4423 19.5209 21.3998 19.305 21.3013C19.0891 21.2027 18.9019 21.0512 18.7609 20.861C18.6198 20.6708 18.5295 20.448 18.4984 20.2136C18.4673 19.9792 18.4965 19.7408 18.5831 19.5206C18.6587 19.2435 18.8254 18.9996 19.0564 18.8278C19.2875 18.656 19.5697 18.5661 19.858 18.5726C23.2629 18.5726 26.6706 18.5726 30.0809 18.5726C30.2652 18.5687 30.4482 18.6033 30.6183 18.6739C30.7884 18.7446 30.9418 18.8499 31.0686 18.983C31.1955 19.1161 31.293 19.2741 31.355 19.4469C31.4169 19.6198 31.4419 19.8036 31.4284 19.9866C31.4422 20.1738 31.4161 20.3618 31.3519 20.5382C31.2877 20.7147 31.1868 20.8757 31.0558 21.0107C30.9248 21.1457 30.7666 21.2516 30.5917 21.3216C30.4168 21.3915 30.229 21.4239 30.0406 21.4166C28.3462 21.4246 26.6598 21.4246 24.9735 21.4246Z" fill="#FC7754"/>
</svg>
