<svg width="40" height="41" viewBox="0 0 40 41" fill="none" xmlns="http://www.w3.org/2000/svg">
<path d="M14.6698 0C14.9565 0.0813482 15.2509 0.139455 15.5298 0.240172C16.1548 0.453196 16.7185 0.815332 17.1721 1.29524C17.6256 1.77514 17.9554 2.35835 18.1329 2.99439C18.1393 3.05032 18.1573 3.10432 18.1856 3.15296C18.214 3.2016 18.2521 3.24382 18.2976 3.27696C18.3431 3.31009 18.395 3.33342 18.45 3.34546C18.505 3.3575 18.5619 3.35799 18.6171 3.3469C19.3066 3.3469 19.9962 3.3469 20.6857 3.3469C21.3752 3.3469 21.6309 3.64517 21.6386 4.30371C21.6386 4.52451 21.6386 4.74144 21.6386 5.00485C22.5102 5.00485 23.3392 5.00485 24.1682 5.00485C24.8287 5.00202 25.4801 5.1595 26.0665 5.4638C26.6528 5.76809 27.1565 6.2101 27.5344 6.7519C28.055 7.47665 28.3268 8.35054 28.3092 9.24271C28.3092 10.8309 28.3092 12.4192 28.3092 14.0074C28.3092 14.0577 28.3092 14.112 28.3092 14.1623C28.3077 14.2732 28.2843 14.3828 28.2405 14.4846C28.1966 14.5865 28.1331 14.6787 28.0536 14.7561C27.9741 14.8334 27.8802 14.8944 27.7771 14.9354C27.6741 14.9764 27.564 14.9967 27.4531 14.9952C27.3447 14.9937 27.2377 14.9708 27.1382 14.928C27.0387 14.8851 26.9486 14.823 26.873 14.7453C26.7975 14.6676 26.738 14.5758 26.6979 14.4751C26.6579 14.3744 26.6381 14.2668 26.6396 14.1585C26.6164 13.589 26.6396 13.0157 26.6396 12.4424C26.6396 11.35 26.6396 10.2537 26.6396 9.16136C26.6573 8.54102 26.4353 7.93771 26.0198 7.47675C25.6043 7.01579 25.0272 6.73262 24.4083 6.68605C23.5213 6.60857 22.6187 6.68605 21.658 6.68605V7.34071C21.658 8.9638 20.6121 10.002 18.9967 10.002H9.30081C8.94806 10.0215 8.59514 9.96652 8.26506 9.84054C7.93499 9.71455 7.63518 9.52041 7.38518 9.27077C7.13517 9.02113 6.94059 8.7216 6.81412 8.39172C6.68765 8.06183 6.63214 7.70899 6.65119 7.3562C6.65119 7.13928 6.65119 6.92235 6.65119 6.73253C5.63796 6.68191 4.62265 6.68967 3.61031 6.75578C2.50243 6.88361 1.71994 7.91789 1.65408 9.11875C1.65408 9.26208 1.65408 9.4054 1.65408 9.54873V30.5985C1.65408 31.9389 2.32423 32.9228 3.48635 33.2288C3.80165 33.3075 4.12601 33.344 4.45091 33.3373C8.11804 33.3373 11.789 33.3373 15.4639 33.3373C15.6071 33.3295 15.7507 33.3295 15.8939 33.3373C16.0953 33.3433 16.2865 33.4276 16.4268 33.5722C16.5671 33.7169 16.6455 33.9105 16.6454 34.112C16.6541 34.3153 16.5866 34.5144 16.4562 34.6706C16.3258 34.8268 16.1419 34.9287 15.9404 34.9565C15.8114 34.9641 15.682 34.9641 15.553 34.9565C11.8304 34.9565 8.10771 34.9294 4.38506 34.9565C3.36086 34.9983 2.35654 34.6654 1.56009 34.0201C0.763646 33.3748 0.229666 32.4614 0.0581065 31.4508C0.0581065 31.4159 0.0193686 31.3849 0 31.3539V8.59579C0.0232423 8.52219 0.0581068 8.45634 0.0736017 8.38274C0.259077 7.43752 0.765047 6.58524 1.50608 5.96984C2.24711 5.35443 3.1778 5.01359 4.14101 5.00485C4.96999 5.00485 5.79897 5.00485 6.65893 5.00485V4.41992C6.65893 3.62193 6.93784 3.3469 7.74358 3.3469H10.0678C10.1027 3.23456 10.1375 3.13772 10.1685 3.037C10.346 2.40893 10.6694 1.8317 11.1123 1.35239C11.5553 0.873075 12.1053 0.505248 12.7174 0.278909C13.0041 0.162697 13.3062 0.0968448 13.6006 0.0077491L14.6698 0ZM19.9768 5.00098H17.5828C17.4636 5.01081 17.3435 4.99541 17.2306 4.95577C17.1177 4.91613 17.0143 4.85315 16.9274 4.77093C16.8404 4.6887 16.7717 4.58908 16.7258 4.47854C16.6799 4.36801 16.6578 4.24904 16.6609 4.12939C16.6511 3.96056 16.6317 3.79243 16.6028 3.62581C16.4773 3.03876 16.1443 2.51667 15.6649 2.15532C15.1855 1.79396 14.5919 1.61759 13.993 1.65855C13.3941 1.69951 12.83 1.95507 12.4043 2.37833C11.9786 2.80158 11.7198 3.36416 11.6754 3.96282C11.5747 4.82279 11.3733 5.00098 10.5133 5.00098H8.34788V7.22837C8.34788 8.08059 8.61516 8.34013 9.47513 8.34013H18.8805C19.0363 8.34412 19.192 8.33243 19.3454 8.30526C19.5228 8.28036 19.6854 8.19291 19.804 8.05867C19.9227 7.92443 19.9894 7.75224 19.9923 7.57313C19.9923 6.73253 19.9768 5.88806 19.9768 5.00098Z" fill="#FF03B8"/>
<path d="M28.2826 40.0015C27.5311 39.8466 26.7719 39.7381 26.0397 39.5289C23.7391 38.8329 21.7354 37.3912 20.3445 35.4309C18.9537 33.4706 18.2546 31.1032 18.3576 28.7018C18.4606 26.3004 19.3597 24.0015 20.9133 22.1675C22.4669 20.3334 24.5866 19.0685 26.9384 18.5721C32.8265 17.2395 38.9237 21.3921 39.8457 27.3654C39.8922 27.6714 39.9464 27.9775 40.0006 28.2835V30.0809C39.9715 30.1657 39.9482 30.2524 39.9309 30.3404C39.2801 34.8688 36.8009 37.9174 32.5011 39.4553C31.7057 39.6907 30.8956 39.8732 30.0761 40.0015H28.2826ZM38.3311 28.9653C38.303 27.7423 38.0306 26.5373 37.5298 25.4212C37.0291 24.3051 36.3102 23.3004 35.4154 22.4662C34.5206 21.6321 33.4681 20.9853 32.3196 20.564C31.1711 20.1428 29.95 19.9554 28.7281 20.0131C23.7426 20.1952 19.8185 24.5144 20.0083 29.6083C20.1904 34.4969 24.5057 38.5179 29.3711 38.3358C34.4806 38.146 38.486 33.943 38.3117 28.9614L38.3311 28.9653Z" fill="#FF03B8"/>
<path d="M14.169 13.3416H22.1334C22.2612 13.3416 22.3929 13.3416 22.5207 13.3416C22.7284 13.3533 22.9238 13.4435 23.0676 13.5937C23.2114 13.744 23.2929 13.9432 23.2955 14.1512C23.2951 14.3625 23.2152 14.566 23.0717 14.721C22.9281 14.8761 22.7314 14.9714 22.5207 14.9879C22.4045 14.9879 22.2883 14.9879 22.1682 14.9879H5.86758C5.75347 14.9932 5.63948 14.9752 5.53251 14.9351C5.42554 14.895 5.32782 14.8336 5.24525 14.7547C5.16268 14.6758 5.09699 14.5809 5.05215 14.4758C5.00731 14.3708 4.98426 14.2577 4.98438 14.1434C4.98466 14.0322 5.00774 13.9222 5.05221 13.8203C5.09667 13.7183 5.16157 13.6266 5.24289 13.5507C5.32422 13.4748 5.42024 13.4165 5.52502 13.3791C5.6298 13.3418 5.74111 13.3264 5.85209 13.3338C6.90574 13.3338 7.9594 13.3338 9.01305 13.3338L14.169 13.3416Z" fill="#FF03B8"/>
<path d="M11.6512 18.3406C13.5377 18.3406 15.428 18.3406 17.3145 18.3406C17.5942 18.354 17.8638 18.4497 18.0893 18.6156C18.205 18.7149 18.2848 18.8495 18.3163 18.9987C18.3478 19.1478 18.3293 19.3032 18.2636 19.4407C18.2149 19.5833 18.1268 19.7091 18.0096 19.8037C17.8924 19.8983 17.7508 19.9578 17.6012 19.9753C17.4723 19.987 17.3427 19.987 17.2138 19.9753H5.84444C5.62076 19.9784 5.40489 19.8931 5.24383 19.7378C5.08277 19.5826 4.98956 19.37 4.98447 19.1463C4.98276 19.0352 5.00384 18.9249 5.04641 18.8222C5.08899 18.7195 5.15215 18.6267 5.23201 18.5494C5.31187 18.472 5.40673 18.4119 5.51073 18.3727C5.61473 18.3334 5.72566 18.3159 5.83669 18.3212C7.27772 18.3212 8.72261 18.3212 10.1675 18.3212L11.6512 18.3406Z" fill="#FF03B8"/>
<path d="M9.97741 24.9954H5.88289C5.67976 25.0082 5.4788 24.9475 5.31666 24.8245C5.15453 24.7015 5.04202 24.5243 4.99968 24.3252C4.96056 24.1387 4.98844 23.9445 5.07842 23.7766C5.16841 23.6086 5.31473 23.4778 5.49164 23.4071C5.66501 23.356 5.84562 23.3337 6.02622 23.3413C7.45562 23.3413 8.88502 23.3413 10.3144 23.3413H13.9015C14.5949 23.3413 14.9861 23.6512 14.9784 24.1819C14.9706 24.7126 14.591 24.9992 13.9131 24.9992L9.97741 24.9954Z" fill="#FF03B8"/>
<path d="M27.3954 31.3251L30.6183 27.6451C31.304 26.8703 31.9819 26.0762 32.6753 25.3015C32.7932 25.1509 32.9611 25.0475 33.1486 25.0098C33.3362 24.9722 33.531 25.0028 33.6979 25.0962C33.8593 25.1731 33.9891 25.3034 34.0653 25.4651C34.1416 25.6268 34.1596 25.8098 34.1163 25.9833C34.0628 26.1693 33.9689 26.3413 33.8413 26.4868C31.9715 28.6329 30.0967 30.7764 28.2166 32.9172C27.7479 33.4518 27.2792 33.4712 26.7833 32.9792C25.7258 31.9256 24.6644 30.868 23.6146 29.8066C23.4697 29.6827 23.3712 29.5133 23.3354 29.326C23.2995 29.1388 23.3283 28.9449 23.4171 28.7762C23.4951 28.6171 23.6253 28.4895 23.7861 28.4148C23.9468 28.34 24.1283 28.3227 24.3003 28.3656C24.5103 28.4296 24.7008 28.5455 24.8542 28.7026C25.629 29.4425 26.3688 30.2017 27.1165 30.961C27.2175 31.076 27.3107 31.1976 27.3954 31.3251Z" fill="#FF03B8"/>
</svg>
