<svg width="40" height="40" viewBox="0 0 40 40" fill="none" xmlns="http://www.w3.org/2000/svg">
<path d="M20.0142 0.00877181H35.5267C36.1225 -0.0297751 36.7196 0.05902 37.2784 0.26925C37.8371 0.47948 38.3446 0.806313 38.7671 1.22798C39.1895 1.64964 39.5173 2.15646 39.7284 2.71466C39.9396 3.27286 40.0293 3.86963 39.9916 4.46522C39.9916 11.3061 39.9916 18.1492 39.9916 24.9945C40.0282 25.946 39.7367 26.8812 39.1657 27.6434C38.5947 28.4056 37.7791 28.9486 36.8554 29.1813C36.4651 29.2791 36.0639 29.3267 35.6616 29.3229H4.34653C3.77095 29.3466 3.19669 29.2509 2.65989 29.0419C2.12309 28.833 1.63537 28.5152 1.2274 28.1087C0.819422 27.7021 0.500032 27.2156 0.289318 26.6796C0.0786039 26.1437 -0.0188759 25.57 0.00301582 24.9945C0.00301582 18.1132 0.00301582 11.2297 0.00301582 4.34386C-0.0186983 3.76931 0.0783959 3.19647 0.288227 2.66114C0.498058 2.12581 0.816112 1.6395 1.22251 1.23263C1.6289 0.825756 2.1149 0.507074 2.65011 0.296491C3.18532 0.085908 3.75823 -0.0120397 4.33304 0.00877181H20.0142ZM20.0142 2.67185H4.50165C3.2539 2.67185 2.68736 3.23818 2.68736 4.47196V24.8327C2.68736 26.1002 3.24716 26.6598 4.5084 26.6598H35.5335C36.7745 26.6598 37.341 26.1002 37.341 24.8664V4.46522C37.3797 4.22271 37.3606 3.97452 37.2855 3.74073C37.2103 3.50693 37.0812 3.29411 36.9084 3.11949C36.7357 2.94487 36.5243 2.81335 36.2913 2.73558C36.0583 2.65781 35.8102 2.63598 35.5672 2.67185H20.0142Z" fill="#15D186"/>
<path d="M12.05 33.9948C15.6044 33.9948 19.1588 33.9948 22.7132 33.9948C22.8316 34.0135 22.9527 33.9872 23.0525 33.921C23.1524 33.8549 23.2239 33.7537 23.2528 33.6374C23.5849 32.7627 24.1753 32.0096 24.9457 31.4781C25.7161 30.9467 26.63 30.6621 27.566 30.6621C28.502 30.6621 29.4158 30.9467 30.1862 31.4781C30.9566 32.0096 31.547 32.7627 31.8791 33.6374C31.9036 33.7543 31.9715 33.8576 32.0691 33.9264C32.1668 33.9952 32.2868 34.0244 32.4052 34.0083C33.916 34.0083 35.4335 34.0083 36.9443 34.0083C37.137 33.9775 37.334 33.9889 37.5219 34.0417C37.7097 34.0945 37.8839 34.1874 38.0323 34.3139C38.1808 34.4405 38.3 34.5978 38.3818 34.7749C38.4635 34.952 38.5058 35.1447 38.5058 35.3398C38.5058 35.5348 38.4635 35.7276 38.3818 35.9047C38.3 36.0818 38.1808 36.2391 38.0323 36.3657C37.8839 36.4922 37.7097 36.5851 37.5219 36.6379C37.334 36.6907 37.137 36.7021 36.9443 36.6713C35.42 36.6713 33.889 36.6713 32.3647 36.6713C32.2658 36.6552 32.1644 36.6778 32.0816 36.7342C31.9987 36.7907 31.9408 36.8768 31.9196 36.9747C31.5935 37.8622 31.0028 38.6283 30.2272 39.1694C29.4517 39.7106 28.5286 40.0007 27.5828 40.0007C26.637 40.0007 25.714 39.7106 24.9384 39.1694C24.1629 38.6283 23.5721 37.8622 23.2461 36.9747C23.1247 36.6646 22.9425 36.6848 22.7065 36.6848H1.66339C1.47059 36.7053 1.27616 36.7053 1.08336 36.6848C0.787052 36.5957 0.530401 36.4075 0.356434 36.1517C0.182468 35.8959 0.101763 35.5881 0.127852 35.2799C0.153941 34.9717 0.285237 34.6818 0.499727 34.4589C0.714217 34.236 0.998859 34.0935 1.30593 34.0555C1.43408 34.0555 1.56222 34.0555 1.68363 34.0555L12.05 33.9948ZM25.5797 35.3095C25.5742 35.5766 25.6227 35.8421 25.7225 36.0899C25.8222 36.3378 25.971 36.563 26.16 36.7519C26.349 36.9408 26.5743 37.0896 26.8223 37.1893C27.0702 37.289 27.3358 37.3376 27.6031 37.3321C27.8927 37.3798 28.1893 37.364 28.4722 37.2857C28.7552 37.2074 29.0177 37.0685 29.2415 36.8786C29.4654 36.6887 29.6452 36.4525 29.7685 36.1861C29.8919 35.9198 29.9557 35.6299 29.9557 35.3364C29.9557 35.043 29.8919 34.753 29.7685 34.4867C29.6452 34.2204 29.4654 33.9841 29.2415 33.7942C29.0177 33.6044 28.7552 33.4655 28.4722 33.3872C28.1893 33.3089 27.8927 33.293 27.6031 33.3408C27.0756 33.3406 26.569 33.5463 26.1911 33.914C25.8131 34.2817 25.5937 34.7824 25.5797 35.3095Z" fill="#15D186"/>
<path d="M14.6798 14.6806C14.6798 12.5165 14.6798 10.3523 14.6798 8.18812C14.6513 7.92241 14.6997 7.65409 14.8193 7.41506C14.9388 7.17604 15.1245 6.97634 15.3543 6.83973C15.5909 6.70096 15.8642 6.63759 16.1377 6.65806C16.4113 6.67854 16.6721 6.78189 16.8853 6.95434L27.2517 13.4334C27.4835 13.5423 27.6794 13.7148 27.8167 13.9309C27.9539 14.147 28.0268 14.3977 28.0268 14.6537C28.0268 14.9097 27.9539 15.1603 27.8167 15.3764C27.6794 15.5925 27.4835 15.7651 27.2517 15.874L16.8651 22.3935C16.6583 22.547 16.4118 22.6381 16.1548 22.656C15.8979 22.6739 15.6412 22.6179 15.415 22.4946C15.181 22.3625 14.9918 22.1637 14.8717 21.9234C14.7515 21.6832 14.7058 21.4125 14.7406 21.1462C14.6866 19.0157 14.6798 16.8516 14.6798 14.6806ZM24.1627 14.6806L17.3777 10.44V18.9281L24.1627 14.6806Z" fill="#15D186"/>
</svg>
