<svg width="40" height="40" viewBox="0 0 40 40" fill="none" xmlns="http://www.w3.org/2000/svg">
<path d="M11.3805 31.3984C11.8388 30.7037 12.2693 30.0855 12.6859 29.4533C13.1025 28.8212 13.54 28.1752 13.9427 27.5222C14.0423 27.3378 14.1928 27.1861 14.3763 27.0851C14.5598 26.9841 14.7684 26.938 14.9774 26.9525C16.6956 26.9357 18.3665 27.5158 19.705 28.5939C21.0435 29.672 21.9666 31.1812 22.317 32.8642C22.532 33.8977 22.6528 34.9486 22.678 36.004C22.7405 36.9974 22.678 37.9977 22.678 38.9981C22.6976 39.1324 22.6857 39.2695 22.6432 39.3985C22.6007 39.5275 22.5288 39.6448 22.4331 39.7412C22.3375 39.8376 22.2207 39.9103 22.0921 39.9538C21.9634 39.9972 21.8265 40.0101 21.692 39.9914H0.985625C0.40929 39.9914 0.0134941 39.6788 0.0204379 39.1578C-0.0381113 37.3376 0.029173 35.5156 0.221809 33.7047C0.756481 30.4189 2.56186 28.0779 5.91572 27.1887C6.52488 27.0667 7.14226 26.9901 7.76277 26.9595C7.93599 26.9333 8.11307 26.9574 8.27305 27.0288C8.43303 27.1002 8.56922 27.216 8.66546 27.3624C9.41539 28.4252 10.1514 29.502 10.8805 30.5787C11.0472 30.8218 11.193 31.1136 11.3805 31.3984ZM20.956 38.2339C20.9143 36.6015 21.0948 34.9759 20.6852 33.3713C20.4363 32.1785 19.825 31.0918 18.935 30.2599C18.045 29.428 16.9198 28.8915 15.7134 28.7239C15.5827 28.6806 15.4409 28.6855 15.3135 28.7378C15.1862 28.79 15.0817 28.8861 15.019 29.0088C14.0747 30.4537 13.1095 31.8777 12.1443 33.3087C11.5888 34.1354 10.9153 34.0937 10.4014 33.2393C9.63759 31.9611 8.86683 30.6829 8.0683 29.4325C7.51974 28.5711 7.49196 28.585 6.48511 28.8143C4.152 29.3561 2.78407 30.8982 2.08275 33.1073C1.76521 34.2976 1.64326 35.5317 1.72167 36.7612C1.72167 37.2475 1.72167 37.7338 1.72167 38.2061H3.45762C3.45762 37.3309 3.45762 36.4903 3.45762 35.6498C3.4538 35.5335 3.47376 35.4176 3.51629 35.3093C3.55882 35.201 3.62301 35.1025 3.70493 35.0199C3.78685 34.9373 3.88477 34.8723 3.99269 34.8289C4.10061 34.7855 4.21626 34.7646 4.33253 34.7675C4.55975 34.7729 4.77595 34.8666 4.93536 35.0287C5.09477 35.1907 5.18488 35.4085 5.18662 35.6359C5.18662 35.8512 5.18662 36.0735 5.18662 36.2888V38.22H17.3591V37.7824C17.3591 37.0877 17.3591 36.3583 17.3591 35.6498C17.3483 35.5297 17.3627 35.4086 17.4012 35.2944C17.4398 35.1802 17.5017 35.0752 17.583 34.9862C17.6643 34.8973 17.7633 34.8262 17.8736 34.7776C17.9839 34.7289 18.1031 34.7038 18.2236 34.7038C18.3441 34.7038 18.4633 34.7289 18.5736 34.7776C18.6839 34.8262 18.7829 34.8973 18.8642 34.9862C18.9455 35.0752 19.0074 35.1802 19.046 35.2944C19.0845 35.4086 19.0989 35.5297 19.0881 35.6498C19.0881 36.0735 19.0881 36.4903 19.0881 36.9141V38.2339H20.956Z" fill="#0092FF"/>
<path d="M28.6576 15.7336L28.9353 15.3585C29.7061 14.1914 30.4907 13.0244 31.2545 11.8435C31.3545 11.6676 31.502 11.5236 31.6801 11.4277C31.8582 11.3319 32.0596 11.2882 32.2614 11.3016C33.9874 11.2842 35.6657 11.868 37.0086 12.9529C38.3515 14.0378 39.2754 15.5563 39.6218 17.248C39.8232 18.1052 39.9418 18.9799 39.9759 19.8599C40.0315 21.0061 39.9759 22.1523 39.9759 23.2985C39.9759 23.9932 39.6565 24.3474 38.9483 24.3474H18.3321C17.6378 24.3474 17.2975 24.021 17.3045 23.3471C17.2614 21.7694 17.2985 20.1904 17.4156 18.6164C17.7766 15.5669 19.1932 13.1633 22.1304 11.8851C23.04 11.5004 24.0175 11.302 25.0051 11.3016C25.1925 11.2804 25.3822 11.3098 25.5544 11.3868C25.7265 11.4637 25.875 11.5855 25.9842 11.7393C26.7156 12.7813 27.4378 13.8279 28.1507 14.8792C28.3451 15.1362 28.477 15.421 28.6576 15.7336ZM34.6848 22.5899C34.6848 21.7008 34.6848 20.8463 34.6848 19.9988C34.6798 19.797 34.747 19.6001 34.8743 19.4434C35.0016 19.2868 35.1807 19.1807 35.3792 19.1444C35.5661 19.1095 35.7594 19.1402 35.9264 19.2313C36.0934 19.3224 36.2238 19.4684 36.2957 19.6446C36.3577 19.8208 36.3882 20.0065 36.386 20.1933C36.386 20.9853 36.386 21.7772 36.386 22.576H38.2955C38.2053 21.0895 38.24 19.6168 38.0178 18.1858C37.8579 16.8931 37.2733 15.6901 36.3558 14.7659C35.4383 13.8418 34.2399 13.2487 32.9488 13.08C32.8149 13.0371 32.6699 13.0454 32.5417 13.1031C32.4135 13.1608 32.3112 13.2639 32.2544 13.3926C31.3286 14.7819 30.3866 16.1874 29.4283 17.6092C28.8173 18.5192 28.1784 18.4775 27.616 17.5536C26.7688 16.1643 25.887 14.7749 25.0329 13.3856C24.96 13.2547 24.8443 13.1529 24.7052 13.0973C24.5661 13.0416 24.4121 13.0355 24.2691 13.08C23.145 13.2129 22.0849 13.6737 21.2206 14.405C20.3563 15.1362 19.7261 16.1055 19.4084 17.1924C18.7835 18.9291 18.9848 20.7421 18.9779 22.5274C18.9779 22.5274 19.0196 22.576 19.0265 22.583H20.7069C20.7069 21.7008 20.7069 20.8533 20.7069 19.9988C20.7034 19.7974 20.7711 19.6011 20.8982 19.4448C21.0252 19.2884 21.2034 19.182 21.4013 19.1444C21.5883 19.1095 21.7816 19.1402 21.9485 19.2313C22.1155 19.3224 22.246 19.4684 22.3179 19.6446C22.3832 19.8199 22.4139 20.0063 22.4081 20.1933C22.4081 20.9853 22.4081 21.7772 22.4081 22.5899H34.6848Z" fill="#0092FF"/>
<path d="M11.2908 15.6504C12.3216 15.6477 13.33 15.9506 14.1888 16.521C15.0476 17.0913 15.7181 17.9035 16.1158 18.8549C16.5134 19.8063 16.6203 20.8543 16.4229 21.8664C16.2255 22.8785 15.7326 23.8094 15.0067 24.5415C14.2807 25.2736 13.3541 25.774 12.344 25.9796C11.3339 26.1851 10.2856 26.0866 9.33144 25.6964C8.37728 25.3062 7.56012 24.6419 6.98317 23.7873C6.40622 22.9328 6.09536 21.9263 6.08986 20.8951C6.08617 19.5102 6.63161 18.1804 7.60657 17.1972C8.58153 16.214 9.90644 15.6578 11.2908 15.6504ZM11.2908 17.394C10.6041 17.394 9.93284 17.5977 9.36189 17.9794C8.79094 18.361 8.34593 18.9035 8.08315 19.5382C7.82037 20.1728 7.75162 20.8712 7.88558 21.545C8.01954 22.2187 8.35021 22.8376 8.83576 23.3234C9.32132 23.8091 9.93995 24.1399 10.6134 24.2739C11.2869 24.408 11.985 24.3392 12.6194 24.0763C13.2538 23.8134 13.796 23.3682 14.1775 22.797C14.559 22.2258 14.7627 21.5543 14.7627 20.8673C14.7627 19.951 14.4007 19.0717 13.7556 18.4211C13.1105 17.7705 12.2345 17.4013 11.3185 17.394H11.2908Z" fill="#0092FF"/>
<path d="M28.6015 10.4339C27.5707 10.4339 26.563 10.1283 25.7058 9.55562C24.8485 8.98299 24.1801 8.16903 23.785 7.21657C23.3899 6.26411 23.2858 5.21587 23.4859 4.20427C23.686 3.19266 24.1813 2.26307 24.9092 1.53292C25.6371 0.802765 26.565 0.304807 27.5757 0.101944C28.5863 -0.100919 29.6344 0.000412687 30.5875 0.393141C31.5406 0.785869 32.356 1.45238 32.9307 2.30847C33.5054 3.16456 33.8135 4.17183 33.8163 5.20304C33.8163 6.58794 33.2673 7.91633 32.2898 8.8969C31.3122 9.87747 29.9858 10.4302 28.6015 10.4339ZM25.1296 5.20304C25.1296 5.89 25.3332 6.56153 25.7147 7.13272C26.0962 7.7039 26.6385 8.14909 27.2729 8.41198C27.9073 8.67487 28.6053 8.74366 29.2788 8.60964C29.9523 8.47562 30.5709 8.14481 31.0565 7.65906C31.542 7.17331 31.8727 6.55441 32.0067 5.88065C32.1406 5.2069 32.0719 4.50853 31.8091 3.87386C31.5463 3.23919 31.1013 2.69673 30.5304 2.31508C29.9594 1.93342 29.2882 1.72972 28.6015 1.72972C27.6807 1.72972 26.7976 2.09566 26.1465 2.74703C25.4954 3.39841 25.1296 4.28186 25.1296 5.20304Z" fill="#0092FF"/>
<path d="M18.268 6.15418C18.1221 6.06388 18.011 5.9944 17.9069 5.91799C17.7341 5.79569 17.6129 5.61357 17.5667 5.40693C17.5205 5.20029 17.5526 4.98385 17.6569 4.79958C17.7511 4.60819 17.9172 4.46197 18.119 4.39295C18.3207 4.32394 18.5416 4.33776 18.7332 4.4314C19.6081 4.89451 20.4691 5.35763 21.3163 5.82074C21.4938 5.92871 21.6212 6.1027 21.6707 6.30454C21.7202 6.50638 21.6876 6.71961 21.5801 6.89747C21.1496 7.73107 20.6983 8.55772 20.2261 9.37048C20.1733 9.46632 20.102 9.55072 20.0163 9.61876C19.9306 9.68681 19.8322 9.73716 19.727 9.76689C19.6217 9.79661 19.5115 9.80513 19.4029 9.79193C19.2943 9.77874 19.1894 9.7441 19.0943 9.69003C18.8937 9.58487 18.7425 9.40487 18.6737 9.18903C18.6048 8.97319 18.6237 8.73888 18.7262 8.53688C18.8373 8.2868 18.9762 8.05061 19.1429 7.74496C18.1273 7.99156 17.1505 8.37726 16.2404 8.89116C14.3138 9.95642 12.6523 11.4429 11.3797 13.2398C10.9075 13.8997 10.4562 14.0525 9.99097 13.726C9.52573 13.3995 9.49102 12.8855 9.99097 12.2117C11.9582 9.4371 14.7538 7.35775 17.9763 6.27227C18.0319 6.26533 18.1291 6.2167 18.268 6.15418Z" fill="#0092FF"/>
<path d="M27.8222 34.7131C28.0166 34.7964 28.1416 34.8381 28.2527 34.9006C28.4317 35.0019 28.5678 35.1649 28.6355 35.3592C28.7032 35.5535 28.698 35.7658 28.6207 35.9565C28.5566 36.1523 28.4206 36.3165 28.2401 36.4158C28.0597 36.5151 27.8482 36.5421 27.6486 36.4914C26.7112 36.2066 25.7738 35.894 24.8711 35.5606C24.6758 35.4885 24.5168 35.3424 24.4284 35.1538C24.34 34.9653 24.3294 34.7496 24.3989 34.5533C24.6767 33.6572 24.9683 32.768 25.2877 31.8788C25.3226 31.7713 25.3791 31.672 25.4535 31.587C25.528 31.5019 25.619 31.433 25.721 31.3842C25.823 31.3355 25.9338 31.308 26.0467 31.3035C26.1597 31.2989 26.2723 31.3174 26.3779 31.3578C26.4847 31.3931 26.5834 31.4492 26.6682 31.523C26.7531 31.5968 26.8225 31.6867 26.8722 31.7876C26.922 31.8884 26.9512 31.9982 26.9581 32.1105C26.965 32.2228 26.9496 32.3353 26.9126 32.4415C26.8431 32.7055 26.7528 32.9625 26.6487 33.289C26.7876 33.2404 26.8778 33.2195 26.9542 33.1848C29.7922 31.8963 32.0876 29.6516 33.4397 26.8425C33.4744 26.7661 33.5092 26.6897 33.5508 26.6133C33.5965 26.5061 33.6635 26.4093 33.7476 26.3288C33.8318 26.2482 33.9314 26.1856 34.0405 26.1447C34.1495 26.1038 34.2658 26.0854 34.3821 26.0907C34.4985 26.0961 34.6125 26.1249 34.7174 26.1756C34.824 26.2226 34.9196 26.2914 34.9979 26.3777C35.0763 26.4639 35.1357 26.5656 35.1724 26.6763C35.209 26.7869 35.222 26.904 35.2107 27.0199C35.1993 27.1359 35.1637 27.2482 35.1062 27.3496C34.5919 28.3361 34.0168 29.2896 33.3842 30.2047C32.0237 32.0215 30.2568 33.4941 28.2249 34.5047L27.8222 34.7131Z" fill="#0092FF"/>
</svg>
