<svg width="21" height="40" viewBox="0 0 21 40" fill="none" xmlns="http://www.w3.org/2000/svg">
<path d="M6.65461 39.2543C6.54077 39.2546 6.42842 39.2276 6.3263 39.1754C6.22418 39.1232 6.13502 39.0471 6.06593 38.9532L2.90554 34.6605C2.78647 34.4984 2.73434 34.2938 2.76053 34.0918C2.78672 33.8898 2.88909 33.7069 3.0452 33.5832C3.20131 33.4596 3.3984 33.4055 3.59299 33.4327C3.78757 33.4598 3.9637 33.5662 4.08277 33.7282L7.24315 38.021C7.32698 38.1348 7.37854 38.2706 7.39182 38.4132C7.40511 38.5558 7.37966 38.6994 7.3184 38.8277C7.25715 38.9561 7.16255 39.064 7.04523 39.1394C6.92791 39.2148 6.79258 39.2546 6.65461 39.2543Z" fill="#FFB300"/>
<path d="M14.5851 40.0009C14.389 40.0009 14.201 39.9201 14.0623 39.7761C13.9236 39.6321 13.8457 39.4368 13.8457 39.2332V30.885C13.8457 30.6813 13.9236 30.486 14.0623 30.3421C14.201 30.1981 14.389 30.1172 14.5851 30.1172C14.7813 30.1172 14.9694 30.1981 15.1081 30.3421C15.2468 30.486 15.3247 30.6813 15.3247 30.885V39.2326C15.3248 39.3335 15.3057 39.4334 15.2685 39.5266C15.2314 39.6198 15.177 39.7045 15.1084 39.7759C15.0397 39.8472 14.9581 39.9038 14.8684 39.9424C14.7786 39.9811 14.6823 40.0009 14.5851 40.0009Z" fill="#FFB300"/>
<path d="M12.3023 35.921C12.2052 35.9211 12.109 35.9013 12.0192 35.8627C11.9295 35.8241 11.8479 35.7676 11.7792 35.6963C11.7106 35.625 11.6561 35.5403 11.6189 35.4471C11.5818 35.3539 11.5627 35.2541 11.5628 35.1532V30.8822C11.5601 30.7796 11.5772 30.6776 11.6132 30.5821C11.6492 30.4865 11.7033 30.3995 11.7722 30.326C11.8411 30.2525 11.9234 30.1941 12.0144 30.1542C12.1054 30.1143 12.2033 30.0938 12.3021 30.0938C12.4009 30.0938 12.4986 30.1143 12.5896 30.1542C12.6806 30.1941 12.7631 30.2525 12.832 30.326C12.9009 30.3995 12.9549 30.4865 12.9908 30.5821C13.0268 30.6776 13.0439 30.7796 13.0413 30.8822V35.1532C13.0413 35.3567 12.9635 35.5519 12.8249 35.6959C12.6863 35.8399 12.4984 35.9208 12.3023 35.921Z" fill="#FFB300"/>
<path d="M9.97785 35.9227C9.78172 35.9227 9.59358 35.8418 9.45489 35.6978C9.3162 35.5538 9.23828 35.3585 9.23828 35.1549V30.8838C9.24346 30.6839 9.32361 30.4939 9.46168 30.3543C9.59975 30.2148 9.7849 30.1367 9.97759 30.1367C10.1703 30.1367 10.3553 30.2148 10.4934 30.3543C10.6314 30.4939 10.7116 30.6839 10.7168 30.8838V35.1549C10.7168 35.2557 10.6978 35.3555 10.6607 35.4487C10.6236 35.5418 10.5692 35.6264 10.5006 35.6977C10.4319 35.769 10.3504 35.8256 10.2607 35.8642C10.171 35.9028 10.0749 35.9227 9.97785 35.9227Z" fill="#FFB300"/>
<path d="M5.53779 9.12891H3.52148V11.2222H5.53779V9.12891Z" fill="#FFB300"/>
<path d="M19.1319 0H1.8654C1.37097 0.00102766 0.897077 0.205393 0.54746 0.568361C0.197842 0.93133 0.000989858 1.42333 0 1.93664V30.1407C0.000989858 30.654 0.197842 31.146 0.54746 31.509C0.897077 31.872 1.37097 32.0763 1.8654 32.0774H4.98031V29.9918H2.00882V27.9546H4.98031V25.8691H2.00882V5.69715H18.9885V25.8691H16.3129L16.3215 27.9546H18.9912V29.9918H16.3595V32.0774H19.1346C19.629 32.0763 20.1029 31.872 20.4525 31.509C20.8022 31.146 20.999 30.654 21 30.1407V1.93664C20.999 1.42285 20.8018 0.93043 20.4516 0.567382C20.1014 0.204335 19.6268 0.000293154 19.1319 0ZM18.9885 3.61106H2.00882V2.08608H18.9885V3.61106Z" fill="#FFB300"/>
<path d="M16.3846 13.6678H4.11657C3.93647 13.6678 3.76375 13.5935 3.6364 13.4613C3.50906 13.3291 3.4375 13.1498 3.4375 12.9628C3.4375 12.7758 3.50906 12.5965 3.6364 12.4643C3.76375 12.3321 3.93647 12.2578 4.11657 12.2578H16.3846C16.5647 12.2578 16.7374 12.3321 16.8647 12.4643C16.9921 12.5965 17.0636 12.7758 17.0636 12.9628C17.0636 13.1498 16.9921 13.3291 16.8647 13.4613C16.7374 13.5935 16.5647 13.6678 16.3846 13.6678Z" fill="#FFB300"/>
<path d="M16.3846 16.4881H4.11657C3.93647 16.4881 3.76375 16.4138 3.6364 16.2816C3.50906 16.1494 3.4375 15.9701 3.4375 15.7831C3.4375 15.5961 3.50906 15.4168 3.6364 15.2846C3.76375 15.1524 3.93647 15.0781 4.11657 15.0781H16.3846C16.5647 15.0781 16.7374 15.1524 16.8647 15.2846C16.9921 15.4168 17.0636 15.5961 17.0636 15.7831C17.0636 15.9701 16.9921 16.1494 16.8647 16.2816C16.7374 16.4138 16.5647 16.4881 16.3846 16.4881Z" fill="#FFB300"/>
<path d="M16.3846 19.3084H4.11657C3.93647 19.3084 3.76375 19.2341 3.6364 19.1019C3.50906 18.9697 3.4375 18.7904 3.4375 18.6034C3.4375 18.4165 3.50906 18.2371 3.6364 18.1049C3.76375 17.9727 3.93647 17.8984 4.11657 17.8984H16.3846C16.5647 17.8984 16.7374 17.9727 16.8647 18.1049C16.9921 18.2371 17.0636 18.4165 17.0636 18.6034C17.0636 18.7904 16.9921 18.9697 16.8647 19.1019C16.7374 19.2341 16.5647 19.3084 16.3846 19.3084Z" fill="#FFB300"/>
<path d="M16.3846 22.1287H4.11657C3.93647 22.1287 3.76375 22.0545 3.6364 21.9222C3.50906 21.79 3.4375 21.6107 3.4375 21.4237C3.4375 21.2368 3.50906 21.0574 3.6364 20.9252C3.76375 20.793 3.93647 20.7188 4.11657 20.7188H16.3846C16.5647 20.7188 16.7374 20.793 16.8647 20.9252C16.9921 21.0574 17.0636 21.2368 17.0636 21.4237C17.0636 21.6107 16.9921 21.79 16.8647 21.9222C16.7374 22.0545 16.5647 22.1287 16.3846 22.1287Z" fill="#FFB300"/>
<path d="M7.70737 36.9197C7.51207 36.9197 7.32465 36.8394 7.1861 36.6965C7.04755 36.5536 6.96907 36.3596 6.9678 36.1569L6.90627 25.9148C6.90563 25.814 6.92416 25.7141 6.96074 25.6207C6.99733 25.5273 7.05137 25.4423 7.11961 25.3706C7.18784 25.2989 7.26894 25.2419 7.35842 25.2027C7.4479 25.1636 7.54391 25.1432 7.641 25.1426H7.64531C7.84062 25.1426 8.02803 25.2228 8.16658 25.3657C8.30513 25.5086 8.38361 25.7026 8.38488 25.9053L8.44694 36.1474C8.44808 36.351 8.37124 36.5466 8.23347 36.6914C8.0957 36.8362 7.90825 36.9183 7.7122 36.9197H7.70737Z" fill="#FFB300"/>
</svg>
