<svg width="40" height="40" viewBox="0 0 40 40" fill="none" xmlns="http://www.w3.org/2000/svg">
<path d="M9.24515 4.84279C10.0212 5.26023 10.704 5.66994 11.4257 6.04873C11.6046 6.125 11.7544 6.25602 11.8534 6.42282C11.9525 6.58961 11.9957 6.7835 11.9767 6.97637C11.9767 7.50204 11.9767 8.02771 11.9767 8.52245C11.9393 8.80591 11.8238 9.0735 11.643 9.29549C11.2162 9.78251 10.7196 10.2154 10.2772 10.6947C10.16 10.832 10.1014 11.0096 10.1143 11.1895C10.2229 11.844 10.3548 12.4933 10.51 13.1375C10.534 13.2204 10.5764 13.2969 10.6342 13.3611C10.692 13.4254 10.7636 13.4758 10.8437 13.5086C11.3326 13.6632 11.9068 13.9647 12.3181 13.8178C12.7294 13.6709 12.9079 13.0447 13.195 12.6582L13.3813 12.3877C13.4329 12.275 13.515 12.179 13.6184 12.1103C13.7219 12.0417 13.8425 12.0032 13.9667 11.9992C14.091 11.9951 14.2139 12.0258 14.3216 12.0876C14.4292 12.1494 14.5175 12.2399 14.5763 12.349C15.0962 13.0216 15.6084 13.6864 16.1283 14.3821C16.2167 14.509 16.332 14.615 16.4661 14.6925C16.6002 14.77 16.7498 14.8171 16.9043 14.8305C17.7346 14.9851 18.565 15.1474 19.3875 15.3329C19.601 15.3845 19.7984 15.4881 19.9618 15.6344C20.4274 16.0673 20.8852 16.508 21.3198 16.9795C21.5764 17.2711 21.9337 17.456 22.3208 17.4974C22.8795 17.5825 23.4305 17.7139 24.0591 17.8376C24.0591 17.3738 24.0591 16.9409 24.0591 16.508C24.0591 16.4307 23.9116 16.3302 23.8107 16.2761C23.1822 15.9514 22.5459 15.6499 21.9173 15.3252C21.2887 15.0005 21.2577 14.6604 21.6302 14.1502C22.2277 13.3772 22.8175 12.55 23.4305 11.7692C23.5865 11.5783 23.7861 11.4272 24.0125 11.3286C24.9049 10.9498 25.8128 10.6097 26.713 10.2386C26.8896 10.1649 27.0464 10.0511 27.1709 9.9062C27.846 9.07905 28.5211 8.2519 29.1652 7.40929C29.2738 7.22934 29.3327 7.02398 29.3359 6.81404C29.3474 6.63385 29.3474 6.45311 29.3359 6.27292C29.3316 6.19255 29.344 6.11216 29.3722 6.03674C29.4004 5.96133 29.4439 5.89249 29.4999 5.83451C29.556 5.77652 29.6234 5.73063 29.6979 5.69966C29.7725 5.66869 29.8526 5.65331 29.9334 5.65448C30.0095 5.63768 30.0882 5.63648 30.1648 5.65094C30.2413 5.66541 30.3141 5.69524 30.3787 5.73863C30.4434 5.78202 30.4984 5.83806 30.5406 5.90334C30.5828 5.96861 30.6112 6.04174 30.6241 6.1183C30.7567 6.48724 30.7893 6.88454 30.7184 7.27003C30.6476 7.65552 30.4758 8.01556 30.2206 8.31374C29.4445 9.08678 28.8005 10.0531 28.0865 10.9112C27.9172 11.1102 27.705 11.2687 27.4657 11.375C26.5889 11.746 25.6887 12.0784 24.804 12.4495C24.6192 12.5344 24.457 12.6616 24.3307 12.8206C23.9271 13.323 23.5547 13.8564 23.1123 14.4285C23.6633 14.7068 24.1755 15.0005 24.7187 15.2015C24.9589 15.2734 25.1647 15.4299 25.2975 15.6419C25.4304 15.8539 25.4811 16.1068 25.4404 16.3534C25.3938 17.0723 25.4404 17.7912 25.4404 18.5101C25.4655 18.63 25.4576 18.7544 25.4177 18.8702C25.3777 18.986 25.3071 19.0889 25.2134 19.168C25.1196 19.2472 25.0061 19.2997 24.8849 19.3199C24.7637 19.3402 24.6392 19.3275 24.5247 19.2832C23.5003 19.0822 22.4838 18.8889 21.4672 18.6647C21.2402 18.6117 21.0314 18.4997 20.8619 18.3401C20.3886 17.9149 19.9385 17.4665 19.5039 16.995C19.2519 16.7207 18.9115 16.543 18.5417 16.4925C17.7657 16.3611 16.9897 16.2065 16.2137 16.0055C15.93 15.9257 15.6763 15.7644 15.4842 15.5417C15.0264 15.0083 14.6229 14.4285 14.1805 13.841C13.9167 14.2275 13.6761 14.614 13.4045 14.9387C13.3151 15.0944 13.174 15.2143 13.0055 15.2778C12.837 15.3412 12.6516 15.3443 12.4811 15.2866C11.7051 15.0778 10.9291 14.8768 10.1531 14.7068C9.96727 14.6834 9.79486 14.5981 9.66384 14.4648C9.53283 14.3315 9.45091 14.1579 9.43138 13.9724C9.24514 12.952 9.02787 11.9393 8.81834 10.8802C8.78373 10.7411 8.78862 10.5951 8.83247 10.4586C8.87632 10.3221 8.9574 10.2004 9.06666 10.1072C9.53226 9.65109 9.97459 9.17182 10.4557 8.73892C10.5667 8.62989 10.6548 8.49988 10.7148 8.35652C10.7747 8.21317 10.8054 8.05934 10.8049 7.90403C10.864 7.63482 10.8162 7.35328 10.6715 7.11839C10.5269 6.88351 10.2966 6.7135 10.0289 6.64397C9.51052 6.41206 9.01219 6.138 8.53898 5.82455C8.44452 5.74967 8.32456 5.71426 8.20439 5.7258C8.08423 5.73734 7.97326 5.79492 7.8949 5.8864C4.7695 8.49349 2.60216 12.0611 1.73342 16.0287C0.851296 20.0003 1.30387 24.1507 3.02149 27.841C4.73912 31.5313 7.62658 34.557 11.2395 36.4524C11.418 36.5529 11.6042 36.6379 11.9224 36.8003C11.9136 36.4197 11.8799 36.0401 11.8215 35.6639C11.7097 35.2216 11.5671 34.7877 11.3947 34.3652C11.3149 34.1959 11.2945 34.0048 11.3367 33.8226C11.3789 33.6404 11.4813 33.4776 11.6275 33.3602C12.031 32.9814 12.4035 32.5872 12.8148 32.1929C13.0553 31.9765 13.1019 31.8064 12.8924 31.5436C12.6828 31.2808 12.4112 30.8247 12.1629 30.4768C12.0595 30.3466 11.9981 30.1882 11.987 30.0226C11.976 29.8569 12.0156 29.6918 12.1008 29.5491C12.4423 28.8998 12.776 28.2427 13.0786 27.5779C13.1558 27.3683 13.1558 27.1382 13.0786 26.9285C12.7046 26.0312 12.5376 25.0617 12.5897 24.0915C12.5897 23.9987 12.5897 23.8209 12.5121 23.8055C11.9767 23.6586 11.4956 23.2721 10.8825 23.4421C10.2385 23.5311 9.61109 23.7134 9.0201 23.9833C8.53661 24.4312 8.12796 24.9531 7.80954 25.5293C6.73865 26.9131 7.21201 26.6657 5.48152 26.6966H4.70552C4.23991 26.6966 3.96831 26.4493 3.96831 26.0395C3.96831 25.6298 4.23216 25.3825 4.69776 25.3747C5.07258 25.3554 5.44815 25.3554 5.82297 25.3747C5.97464 25.3961 6.12925 25.3722 6.26734 25.3062C6.40543 25.2402 6.52083 25.1349 6.59897 25.0037C7.04905 24.3543 7.53017 23.7282 8.02682 23.1175C8.1936 22.9231 8.41117 22.7786 8.65538 22.7C9.2917 22.5068 9.95907 22.3985 10.5876 22.1975C11.0955 22.0264 11.6493 22.0512 12.1396 22.2671C12.5635 22.4345 12.9961 22.579 13.4356 22.7C13.6088 22.7371 13.7622 22.8364 13.8667 22.979C13.9712 23.1215 14.0193 23.2974 14.002 23.4731V23.6045C13.8983 24.7221 14.0826 25.8476 14.5375 26.8744C14.6155 27.0444 14.6493 27.2313 14.6357 27.4177C14.6222 27.6042 14.5617 27.7842 14.4599 27.9412C14.1805 28.4592 13.9555 29.0158 13.6839 29.526C13.5896 29.6585 13.5443 29.8194 13.5556 29.9815C13.5669 30.1435 13.6342 30.2967 13.746 30.4149C14.0331 30.786 14.2737 31.188 14.522 31.5822C14.5799 31.6519 14.6233 31.7324 14.6496 31.819C14.6759 31.9056 14.6846 31.9965 14.6752 32.0865C14.6658 32.1765 14.6385 32.2637 14.5949 32.343C14.5513 32.4224 14.4922 32.4922 14.4211 32.5485C13.94 33.0278 13.4511 33.4994 12.9855 33.9941C12.8937 34.1304 12.8551 34.2953 12.8768 34.4579C12.9039 34.6488 12.9615 34.8341 13.0476 35.0068C13.3438 35.6215 13.4018 36.3234 13.2105 36.9781C13.1329 37.2564 13.2105 37.3955 13.4977 37.496C17.1053 38.8263 21.0367 39.018 24.7575 38.0448C24.8816 38.0448 24.998 37.9753 25.1222 37.9521C25.2046 37.9236 25.2921 37.9123 25.3791 37.9189C25.466 37.9256 25.5507 37.9499 25.6279 37.9905C25.705 38.0311 25.773 38.0871 25.8275 38.1549C25.882 38.2228 25.9219 38.3011 25.9448 38.385C25.9798 38.4693 25.9955 38.5604 25.9906 38.6515C25.9857 38.7426 25.9604 38.8315 25.9164 38.9116C25.8725 38.9917 25.8111 39.061 25.7368 39.1143C25.6625 39.1676 25.5771 39.2037 25.4869 39.2199C24.7536 39.4248 24.0102 39.5925 23.2598 39.7223C18.2805 40.5695 13.1653 39.4611 8.98907 36.6302C6.63784 35.1324 4.64053 33.1446 3.13474 30.8038C1.62895 28.463 0.650488 25.8249 0.26677 23.0711C-0.409627 19.0237 0.207895 14.8668 2.03206 11.1881C3.85622 7.50929 6.79477 4.4946 10.4324 2.57005C17.2147 -1.05551 24.0668 -0.839056 30.6086 3.18075C33.0311 4.63379 35.1027 6.60063 36.6759 8.94142C38.2491 11.2822 39.2854 13.9395 39.7111 16.7244C40.3487 20.3739 39.926 24.1288 38.4928 27.547C38.3065 28.0185 37.9961 28.1886 37.5926 28.0417C37.1891 27.8948 37.0649 27.5315 37.2667 27.0445C38.2725 24.6624 38.7413 22.0896 38.6402 19.5074C38.2988 12.4572 35.0939 7.02276 28.8625 3.6755C22.3596 0.189087 15.8412 0.629725 9.57882 4.55677L9.37707 4.69591L9.24515 4.84279Z" fill="#FF03B8"/>
<path d="M35.3112 21.2386C35.3112 23.233 35.3112 25.2274 35.3112 27.2219C35.3015 27.335 35.3249 27.4485 35.3787 27.5487C35.4324 27.6488 35.5141 27.7313 35.6139 27.7862C36.8505 28.5786 37.7866 29.7591 38.2743 31.1409C38.762 32.5228 38.7733 34.0271 38.3066 35.4161C37.9659 36.4479 37.3763 37.3807 36.5895 38.1327C35.8028 38.8848 34.8428 39.433 33.7938 39.7295C32.7449 40.026 31.6389 40.0616 30.5729 39.8332C29.5069 39.6048 28.5135 39.1194 27.6796 38.4196C26.8457 37.7197 26.1969 36.8268 25.79 35.819C25.3832 34.8113 25.2307 33.7195 25.3459 32.6394C25.4612 31.5593 25.8406 30.5238 26.451 29.6238C27.0615 28.7237 27.8842 27.9866 28.8471 27.477C29.3437 27.2141 29.724 27.276 29.9335 27.647C30.143 28.0181 29.9956 28.3583 29.4912 28.6443C28.7355 29.0472 28.0885 29.6257 27.605 30.3308C27.1215 31.0359 26.8158 31.8466 26.7137 32.6944C26.6117 33.5422 26.7164 34.402 27.019 35.201C27.3215 35.9999 27.8129 36.7143 28.4516 37.2838C29.0903 37.8532 29.8574 38.2609 30.6879 38.4722C31.5184 38.6834 32.3878 38.6921 33.2223 38.4974C34.0569 38.3028 34.8321 37.9105 35.4821 37.354C36.1321 36.7974 36.6378 36.0929 36.9563 35.3001C37.4349 34.1112 37.4626 32.7893 37.0342 31.5815C36.6057 30.3736 35.7505 29.3625 34.6283 28.737C34.4112 28.6373 34.2304 28.473 34.1109 28.2668C33.9914 28.0605 33.939 27.8224 33.961 27.5852C33.961 23.5422 33.961 19.4992 33.961 15.4639C33.961 14.935 33.75 14.4277 33.3746 14.0537C32.9991 13.6796 32.4899 13.4695 31.9589 13.4695C31.4279 13.4695 30.9186 13.6796 30.5432 14.0537C30.1677 14.4277 29.9568 14.935 29.9568 15.4639V24.9723C29.9568 25.7454 29.7783 26.0005 29.3049 26.0082C28.8316 26.0159 28.6221 25.7144 28.6221 24.9491C28.6221 21.7719 28.6221 18.587 28.6221 15.4021C28.6149 14.5226 28.9587 13.6762 29.5779 13.0492C30.1971 12.4222 31.041 12.0659 31.9239 12.0587C32.8069 12.0515 33.6565 12.394 34.2859 13.0109C34.9153 13.6278 35.273 14.4684 35.2802 15.348C35.319 17.3115 35.3112 19.275 35.3112 21.2386Z" fill="#FF03B8"/>
<path d="M31.3067 29.3801V16.7332C31.3067 16.5569 31.377 16.3878 31.5021 16.2631C31.6273 16.1384 31.797 16.0684 31.974 16.0684C32.151 16.0684 32.3208 16.1384 32.4459 16.2631C32.5711 16.3878 32.6414 16.5569 32.6414 16.7332C32.6414 16.8414 32.6414 16.9574 32.6414 17.0656V29.813C32.6414 30.4469 32.4551 30.6402 31.8111 30.6865C31.233 30.7241 30.6828 30.9479 30.2436 31.3243C29.8045 31.7007 29.5002 32.2092 29.3766 32.7731C29.2531 33.3369 29.317 33.9255 29.5588 34.45C29.8006 34.9744 30.2071 35.4063 30.7169 35.6804C31.2319 35.956 31.8237 36.055 32.4008 35.9621C32.9779 35.8693 33.5083 35.5897 33.9101 35.1666C34.3118 34.7436 34.5625 34.2005 34.6236 33.6213C34.6846 33.0421 34.5525 32.459 34.2477 31.9621C33.883 31.3514 33.8908 31.0267 34.2943 30.7793C34.6978 30.5319 35.0703 30.6865 35.404 31.2972C35.8334 32.0103 36.0279 32.8395 35.9601 33.6683C35.8924 34.4972 35.5658 35.2841 35.0263 35.9186C34.4867 36.5531 33.7612 37.0033 32.9517 37.2062C32.1421 37.409 31.2891 37.3542 30.5124 37.0495C29.7357 36.7448 29.0743 36.2054 28.621 35.5071C28.1677 34.8088 27.9453 33.9867 27.985 33.156C28.0247 32.3254 28.3244 31.528 28.8422 30.8758C29.36 30.2235 30.0699 29.7491 30.8721 29.5192L31.3067 29.3801Z" fill="#FF03B8"/>
</svg>
