<svg width="46" height="40" viewBox="0 0 46 40" fill="none" xmlns="http://www.w3.org/2000/svg">
<path d="M30.4765 19.9441C32.424 18.5819 33.8761 16.6567 34.6244 14.4449C35.3727 12.233 35.3787 9.84824 34.6415 7.63286C33.9043 5.41748 32.4619 3.48543 30.5213 2.11409C28.5807 0.742756 26.2416 0.00266268 23.84 7.17103e-06C21.4383 -0.00264834 19.0976 0.732283 17.1537 2.09932C15.2099 3.46636 13.7628 5.39517 13.0204 7.60891C12.278 9.82265 12.2784 12.2075 13.0215 14.421C13.7645 16.6345 15.2122 18.5629 17.1565 19.9294C10.4216 23.2885 7.82205 31.493 7.41068 36.3312C7.36995 36.8055 7.52525 37.2761 7.84249 37.6394C8.15972 38.0027 8.61288 38.2289 9.10225 38.2684C9.59162 38.3079 10.0771 38.1573 10.452 37.8498C10.8268 37.5424 11.0603 37.1032 11.1011 36.6289C11.1532 36.0387 12.4958 22.3385 23.4605 22.0282C23.5842 22.0282 23.7057 22.046 23.8306 22.046C23.9554 22.046 24.0781 22.0313 24.2018 22.0282C27.0313 22.2319 29.6727 23.4788 31.5826 25.5124C32.973 26.6696 35.5823 24.0922 34.2842 22.754C33.1867 21.6169 31.8994 20.667 30.4765 19.9441V19.9441ZM16.1623 11.0337C16.1604 9.58099 16.598 8.15962 17.421 6.9455C18.244 5.73138 19.4162 4.77778 20.7926 4.20275C22.169 3.62772 23.6891 3.45651 25.1649 3.71026C26.6407 3.96402 28.0074 4.63161 29.0958 5.63044C30.1841 6.62926 30.9463 7.91549 31.2882 9.32991C31.6301 10.7443 31.5366 12.2248 31.0192 13.5883C30.5019 14.9517 29.5835 16.1382 28.3775 17.0008C27.1716 17.8635 25.7311 18.3645 24.2344 18.4419C24.0987 18.4419 23.9673 18.4292 23.8295 18.4292C23.6917 18.4292 23.5571 18.4387 23.4193 18.4419C21.4615 18.3407 19.618 17.5165 18.2679 16.1386C16.9177 14.7608 16.1635 12.934 16.1601 11.0337H16.1623Z" fill="#0092FF"/>
<path d="M12.9031 21.0902C12.8991 20.7885 12.8168 20.4926 12.6637 20.2298C12.5106 19.9671 12.2917 19.746 12.0272 19.5869C11.8191 19.4218 11.576 19.3032 11.3153 19.2396C11.0545 19.176 10.7825 19.1688 10.5186 19.2187C10.079 19.3008 9.62894 19.3157 9.18463 19.2629C8.16207 19.1422 7.21948 18.6657 6.53221 17.922C5.84493 17.1783 5.45967 16.2179 5.44813 15.2195C5.43659 14.2212 5.7995 13.2528 6.4694 12.4943C7.13931 11.7359 8.07064 11.239 9.09016 11.0962C9.57565 11.0281 10.0134 10.7759 10.307 10.395C10.6006 10.0141 10.7261 9.53584 10.6559 9.0653C10.5856 8.59475 10.3254 8.17049 9.93243 7.8859C9.53948 7.60131 9.04593 7.4797 8.56044 7.54778C6.99919 7.76545 5.54024 8.42871 4.36935 9.45305C3.19847 10.4774 2.3687 11.8164 1.9859 13.2995C1.60309 14.7826 1.68458 16.3425 2.21988 17.7806C2.75519 19.2186 3.7201 20.4697 4.99168 21.3742C1.615 24.0042 0.247377 28.5657 0.00641824 31.3893C-0.0137991 31.6235 0.0138618 31.8594 0.0877703 32.0833C0.161679 32.3072 0.2804 32.5148 0.43716 32.6942C0.593921 32.8736 0.785624 33.0212 1.00133 33.1287C1.21703 33.2363 1.45254 33.3015 1.69428 33.3207C1.74746 33.3207 1.80281 33.3271 1.85274 33.3271C2.31611 33.3272 2.76268 33.1589 3.10429 32.8555C3.4459 32.552 3.65767 32.1354 3.69787 31.688C3.73043 31.3335 4.55428 22.9975 11.0851 22.9059C11.3276 22.9025 11.5669 22.8528 11.7895 22.7597C12.0121 22.6666 12.2136 22.5318 12.3824 22.3632C12.5512 22.1946 12.684 21.9953 12.7734 21.7769C12.8628 21.5585 12.9068 21.3251 12.9031 21.0902Z" fill="#0092FF"/>
<path d="M46 31.1796V32.2316C45.9997 32.3921 45.9668 32.5509 45.9032 32.699C45.8395 32.8471 45.7463 32.9815 45.629 33.0947C45.5116 33.2078 45.3724 33.2974 45.2193 33.3584C45.0662 33.4193 44.9021 33.4504 44.7366 33.4499H39.2488V38.7761C39.2482 39.1007 39.115 39.4119 38.8782 39.6414C38.6413 39.871 38.3203 40.0001 37.9854 40.0007H36.9C36.734 40.0011 36.5695 39.9697 36.416 39.9083C36.2626 39.847 36.1231 39.7568 36.0057 39.643C35.8883 39.5292 35.7952 39.394 35.7319 39.2453C35.6686 39.0965 35.6362 38.9371 35.6366 38.7761V33.4499H30.1423C29.8084 33.4499 29.488 33.3217 29.2513 33.0935C29.0145 32.8652 28.8806 32.5553 28.8789 32.2316V31.1796C28.8789 30.8542 29.0117 30.542 29.2485 30.3111C29.4852 30.0803 29.8065 29.9497 30.1423 29.9478H35.6366V24.6288C35.6362 24.4679 35.6686 24.3085 35.7319 24.1597C35.7952 24.011 35.8883 23.8759 36.0057 23.7621C36.1231 23.6483 36.2626 23.5581 36.416 23.4967C36.5695 23.4353 36.734 23.4039 36.9 23.4043H37.9854C38.3203 23.4049 38.6413 23.5341 38.8782 23.7636C39.115 23.9931 39.2482 24.3042 39.2488 24.6288V29.9478H44.7366C44.903 29.9482 45.0677 29.9804 45.2213 30.0426C45.3749 30.1047 45.5144 30.1955 45.6317 30.3099C45.749 30.4243 45.8419 30.5601 45.9051 30.7093C45.9683 30.8585 46.0006 31.0183 46 31.1796Z" fill="#0092FF"/>
</svg>
