<svg width="33" height="40" viewBox="0 0 33 40" fill="none" xmlns="http://www.w3.org/2000/svg">
<path d="M2.86959 40C2.54606 39.893 2.22856 39.7649 1.91874 39.6164C1.37938 39.3468 0.917579 38.9184 0.583918 38.3781C0.250257 37.8378 0.0576169 37.2064 0.0271017 36.5532C0.0271017 36.3308 0.0271017 36.1084 0.0271017 35.886V10.2571C0.0222736 10.0714 0.0306783 9.88548 0.0522503 9.70118C0.0685787 9.56994 0.129879 9.45062 0.223493 9.36787C0.317107 9.28511 0.435891 9.24522 0.555346 9.25642C0.674543 9.24226 0.794011 9.28034 0.888082 9.36246C0.982152 9.44458 1.04332 9.56421 1.05844 9.69562C1.08413 9.8795 1.09423 10.0656 1.08863 10.2516V35.8916C1.07811 36.2181 1.10345 36.5448 1.16409 36.8645C1.27841 37.4149 1.55893 37.9058 1.95946 38.2564C2.36 38.6071 2.85666 38.7965 3.36766 38.7936C8.39861 38.7936 13.448 38.7936 18.5159 38.7936C19.0935 38.7948 19.6497 38.5519 20.0705 38.1147C20.4914 37.6775 20.7451 37.0791 20.7798 36.442C20.7798 36.2585 20.7798 36.0751 20.7798 35.886V26.1515H20.005V31.3996C20.0085 31.5543 19.9967 31.7091 19.9698 31.861C19.9467 31.9861 19.8826 32.0974 19.7897 32.1734C19.6968 32.2493 19.5817 32.2846 19.4667 32.2724C19.3522 32.2861 19.2372 32.2521 19.1441 32.177C19.0511 32.102 18.9867 31.9913 18.9636 31.8666C18.9367 31.7128 18.9249 31.5562 18.9284 31.3996V26.1015H7.09056C6.80886 26.1064 6.52741 26.0803 6.25039 26.0236C5.87002 25.9191 5.52854 25.6863 5.27339 25.3576C5.01824 25.0288 4.86209 24.6204 4.82663 24.189C4.82663 24.0612 4.82663 23.9277 4.82663 23.7999V8.51702C4.80024 8.02061 4.92221 7.52837 5.17377 7.11605C5.3665 6.81911 5.6237 6.58049 5.92172 6.42214C6.21975 6.26379 6.54903 6.19079 6.87926 6.20987H18.9536C18.9536 5.32592 18.9536 4.49757 18.9536 3.66921C18.9548 3.60265 18.943 3.53657 18.919 3.47551C18.895 3.41445 18.8592 3.35987 18.8143 3.3155C18.7694 3.27114 18.7163 3.23804 18.6587 3.21849C18.6011 3.19893 18.5404 3.19338 18.4806 3.20222H15.7841C15.6784 3.5469 15.5778 3.87491 15.4671 4.20292C15.414 4.44036 15.2861 4.64914 15.1063 4.79178C14.9265 4.93442 14.7066 5.00159 14.4861 4.98124H7.44273C7.21429 5.00479 6.98594 4.93528 6.80064 4.7858C6.61533 4.63632 6.48584 4.41716 6.43653 4.16956C6.34095 3.88047 6.25039 3.61362 6.1548 3.29117C6.14174 3.26085 6.12479 3.23277 6.10449 3.20778C5.21401 3.20778 4.30844 3.20778 3.40287 3.20778C3.34328 3.20549 3.28389 3.21668 3.22835 3.24066C3.17281 3.26464 3.12229 3.30091 3.07989 3.34725C3.03749 3.39358 3.00411 3.449 2.98179 3.5101C2.95947 3.5712 2.94868 3.6367 2.95009 3.70257C2.95009 3.81932 2.95009 3.94162 2.95009 4.05837V36.214C2.94564 36.2883 2.9556 36.3628 2.97931 36.4325C3.00302 36.5021 3.03993 36.5654 3.08757 36.6181C3.1352 36.6707 3.19246 36.7115 3.25552 36.7377C3.31857 36.7639 3.38596 36.7749 3.45318 36.77H18.2291C18.8378 36.77 18.9485 36.6477 18.9485 35.9694C18.9485 35.5024 18.9485 35.0354 18.9485 34.5684C18.9485 34.1015 19.1397 33.8568 19.4868 33.8624C19.834 33.868 19.9899 34.0903 19.9899 34.5462C19.9899 35.1022 19.9899 35.6915 19.9899 36.2585C19.9901 36.4833 19.9492 36.7057 19.8696 36.9126C19.79 37.1194 19.6734 37.3063 19.5267 37.4621C19.3801 37.6179 19.2066 37.7393 19.0164 37.8191C18.8263 37.8988 18.6235 37.9353 18.4203 37.9263C13.4195 37.9263 8.41706 37.9263 3.41293 37.9263C3.20971 37.9353 3.00694 37.8988 2.8168 37.8191C2.62666 37.7393 2.45307 37.6179 2.30646 37.4621C2.15985 37.3063 2.04325 37.1194 1.96365 36.9126C1.88406 36.7057 1.84311 36.4833 1.84327 36.2585C1.84327 36.1362 1.84327 36.0195 1.84327 35.9027C1.84327 25.2916 1.84327 14.6769 1.84327 4.05837C1.83291 3.78609 1.85319 3.51345 1.90365 3.2467C1.98325 2.90983 2.15874 2.61017 2.40424 2.39194C2.64973 2.17372 2.95221 2.04849 3.26703 2.03474C4.24304 2.03474 5.22407 2.03474 6.20008 2.03474C6.38459 2.02998 6.56564 2.09054 6.71679 2.20756C6.86795 2.32458 6.98128 2.49194 7.04025 2.68519L7.08553 2.79639C7.19118 3.12439 7.22136 3.59694 7.43266 3.74148C7.64396 3.88603 8.09172 3.81376 8.43885 3.81376C10.3355 3.81376 12.2322 3.81376 14.1238 3.81376C14.3653 3.81376 14.4861 3.7526 14.5464 3.48575C14.6161 3.21119 14.7018 2.94192 14.803 2.67964C14.8622 2.48545 14.9763 2.31743 15.1285 2.20032C15.2807 2.08321 15.4629 2.02322 15.6482 2.02918C16.6142 2.02918 17.5801 2.02918 18.546 2.02918C18.9278 2.03637 19.2921 2.20754 19.5616 2.50642C19.8311 2.80529 19.9848 3.20839 19.9899 3.6303C20.0201 4.33078 19.9899 5.03127 19.9899 5.73732V6.17651H20.7043C20.7565 5.16148 20.7481 4.14376 20.6792 3.12995C20.5923 2.57012 20.3258 2.06362 19.9285 1.70321C19.5312 1.34281 19.0297 1.15262 18.5159 1.16748C13.438 1.16748 8.36339 1.16748 3.29219 1.16748C2.72538 1.1708 2.18111 1.4132 1.77061 1.84512C1.36011 2.27704 1.11437 2.86588 1.0836 3.49131C1.03329 4.54204 1.0836 5.59833 1.05844 6.64906C1.06605 6.79163 1.06605 6.93457 1.05844 7.07713C1.05853 7.15254 1.04473 7.22718 1.01789 7.29651C0.991052 7.36584 0.951728 7.4284 0.902314 7.48041C0.8529 7.53241 0.794429 7.57277 0.730457 7.59901C0.666486 7.62526 0.59835 7.63685 0.530197 7.63308C0.396768 7.63308 0.268803 7.5745 0.174455 7.47025C0.0801058 7.36599 0.0271017 7.22458 0.0271017 7.07713C-0.0224863 5.76502 -0.00401659 4.45084 0.0824348 3.14107C0.151725 2.434 0.416315 1.76764 0.840256 1.23252C1.2642 0.697411 1.82694 0.319489 2.45202 0.150102L2.87965 0H18.9787C19.4446 0.165524 19.8959 0.37766 20.327 0.633773C20.8128 0.973224 21.2084 1.44896 21.4736 2.01248C21.7387 2.57601 21.8639 3.20715 21.8363 3.84155V6.21543H22.8978C23.8638 6.21543 24.8297 6.21543 25.7957 6.21543C26.2032 6.21543 26.4094 6.42113 26.4044 6.77137C26.4172 6.90309 26.3828 7.0351 26.3084 7.13905C26.2341 7.243 26.1259 7.3106 26.007 7.32731C25.8406 7.35589 25.6721 7.36706 25.5039 7.36067C19.3359 7.36067 13.168 7.36067 7 7.36067C6.72145 7.34438 6.44481 7.41984 6.20511 7.57748C6.1086 7.66666 6.02975 7.77686 5.97349 7.90121C5.91722 8.02555 5.88475 8.16138 5.8781 8.3002C5.8781 11.458 5.8781 14.6213 5.8781 17.7846C5.8854 17.8376 5.8972 17.8897 5.91332 17.9402H6.3158C8.01123 17.9402 9.70665 17.9402 11.4021 17.9402C11.9548 17.8951 12.504 18.0698 12.9505 18.4327C13.397 18.7956 13.7114 19.3229 13.8371 19.9194C13.9323 20.2911 13.9493 20.6819 13.8869 21.062C13.8245 21.4422 13.6843 21.8015 13.4771 22.1126C13.2698 22.4237 13.001 22.6783 12.691 22.857C12.3811 23.0358 12.0383 23.1339 11.6889 23.1438C9.91293 23.1994 8.13196 23.1438 6.35604 23.1438H5.85294C5.83736 23.5176 5.86954 23.8919 5.94853 24.2557C6.09714 24.5036 6.30902 24.6971 6.55728 24.8117C6.71884 24.8735 6.89198 24.8888 7.06038 24.8561C14.959 24.8561 22.8576 24.8561 30.7562 24.8561C30.9244 24.8596 31.0926 24.8485 31.2593 24.8228C31.4295 24.7939 31.5869 24.7053 31.7082 24.5703C31.8296 24.4352 31.9085 24.2606 31.9334 24.0723C31.9434 23.9168 31.9434 23.7607 31.9334 23.6053C31.9334 18.587 31.9334 13.565 31.9334 8.53926C31.9334 8.45031 31.9334 8.3558 31.9334 8.26685C31.9395 8.13564 31.9202 8.00451 31.8768 7.88221C31.8333 7.75992 31.7667 7.64928 31.6815 7.5577C31.5962 7.46613 31.4943 7.39573 31.3824 7.3512C31.2706 7.30667 31.1514 7.28905 31.0329 7.29951C30.2531 7.29951 29.4783 7.29951 28.6985 7.29951C28.5812 7.30782 28.4636 7.30782 28.3463 7.29951C28.2768 7.29976 28.2079 7.28405 28.1441 7.25337C28.0802 7.22269 28.0229 7.17771 27.9756 7.12128C27.9283 7.06485 27.8921 6.9982 27.8693 6.92553C27.8466 6.85286 27.8377 6.77575 27.8433 6.69909C27.8371 6.62438 27.8458 6.54907 27.8689 6.47852C27.892 6.40796 27.9289 6.34388 27.9769 6.29083C28.0249 6.23778 28.0829 6.19705 28.1467 6.17152C28.2106 6.146 28.2787 6.13632 28.3463 6.14315C29.3525 6.14315 30.3587 6.1098 31.3649 6.14315C31.7733 6.19074 32.1548 6.3907 32.4466 6.71006C32.7383 7.02942 32.9229 7.44911 32.9698 7.89993C32.9905 8.08435 33.0005 8.27004 33 8.45587C33 13.5261 33 18.5981 33 23.672C33 24.8395 32.4969 25.6623 31.6014 25.9236C31.3258 25.9922 31.0435 26.022 30.7612 26.0125C27.959 26.0125 25.1567 26.0125 22.3545 26.0125H21.8514V26.6574C21.8514 29.7929 21.8514 32.9284 21.8514 36.0584C21.8911 36.8711 21.6888 37.6759 21.2754 38.3496C20.862 39.0232 20.2603 39.5287 19.5623 39.7887C19.351 39.8666 19.1347 39.9222 18.9183 39.9889L2.86959 40ZM5.88816 22.0653H6.28058C8.01122 22.0653 9.74187 22.0653 11.4675 22.0653C11.6483 22.08 11.8299 22.0529 12.0008 21.9859C12.1717 21.9188 12.3281 21.8133 12.4601 21.6759C12.592 21.5385 12.6967 21.3723 12.7675 21.1878C12.8382 21.0033 12.8735 20.8046 12.8711 20.6042C12.8686 20.4039 12.8285 20.2063 12.7532 20.024C12.678 19.8417 12.5693 19.6786 12.434 19.5452C12.2987 19.4118 12.1398 19.311 11.9673 19.249C11.7949 19.1871 11.6127 19.1655 11.4323 19.1855C9.66641 19.1855 7.91061 19.1855 6.13971 19.1855C6.05921 19.1855 5.98375 19.1855 5.88816 19.2189V22.0653Z" fill="#FB5A5A"/>
<path d="M11.1349 14.4873H9.12248C8.34268 14.4873 7.99555 14.0981 7.99052 13.2475C7.98549 12.3969 7.99052 11.3962 7.99052 10.4678C7.99052 9.6339 8.34269 9.25586 9.10236 9.25586H13.1623C13.917 9.25586 14.2692 9.63946 14.2742 10.4678C14.2742 11.4074 14.2742 12.3413 14.2742 13.2809C14.2938 13.4427 14.2795 13.6074 14.2325 13.7621C14.1855 13.9169 14.107 14.0577 14.003 14.1737C13.899 14.2897 13.7723 14.3778 13.6327 14.4312C13.493 14.4846 13.3442 14.5019 13.1976 14.4817C12.4983 14.4984 11.8191 14.4873 11.1349 14.4873ZM13.1976 10.4623H9.05205C9.05205 11.3573 9.05205 12.2079 9.05205 13.0641C9.05205 13.2864 9.1577 13.3198 9.31869 13.3198H13.0567C13.1071 13.3132 13.1563 13.2982 13.2026 13.2753L13.1976 10.4623Z" fill="#FB5A5A"/>
<path d="M26.9026 22.9602C26.8121 23.0714 26.7014 23.3105 26.5404 23.3772C26.3508 23.3945 26.1607 23.3521 25.992 23.2549C25.9523 23.2279 25.9186 23.1914 25.8934 23.1481C25.8681 23.1048 25.852 23.0558 25.8461 23.0047C25.7656 22.3598 25.3983 22.2375 24.8953 22.332H24.7695C24.211 22.2597 23.7633 22.2931 23.6124 23.0881C23.5914 23.16 23.5565 23.2261 23.5102 23.2817C23.4639 23.3373 23.4073 23.3811 23.3441 23.4102C23.281 23.4393 23.2129 23.4529 23.1446 23.45C23.0762 23.4472 23.0093 23.428 22.9483 23.3939C22.8839 23.3676 22.825 23.3271 22.7753 23.2748C22.7256 23.2226 22.6861 23.1596 22.6593 23.0898C22.6324 23.02 22.6188 22.9449 22.6191 22.8691C22.6195 22.7933 22.6339 22.7183 22.6615 22.6489C23.1646 21.1534 23.6677 19.6579 24.2161 18.2014C24.272 18.094 24.3498 18.0025 24.4432 17.934C24.5366 17.8655 24.6431 17.8219 24.7544 17.8066C24.8664 17.8146 24.9751 17.8521 25.0714 17.9159C25.1676 17.9798 25.2487 18.0681 25.3078 18.1736C25.8562 19.6746 26.3643 21.1979 26.8825 22.7212C26.8941 22.8003 26.9008 22.8801 26.9026 22.9602ZM25.2072 21.1423L24.7494 19.8025L24.2966 21.1423H25.2072Z" fill="#FB5A5A"/>
<path d="M20.6946 21.4638C20.6946 21.9086 20.6946 22.3089 20.6946 22.7092C20.6946 23.1928 20.5185 23.4208 20.1915 23.4263C19.8645 23.4319 19.6632 23.1928 19.6582 22.7147C19.6582 21.2989 19.6582 19.8831 19.6582 18.4673C19.6582 17.9559 19.8444 17.7557 20.3072 17.7502C20.7184 17.7352 21.13 17.7482 21.5398 17.7891C21.9617 17.8261 22.3534 18.0451 22.6302 18.3989C22.907 18.7526 23.0467 19.2126 23.0189 19.6793C23.0101 20.1466 22.8391 20.5924 22.5414 20.9245C22.2437 21.2566 21.8419 21.4497 21.419 21.4638C21.1776 21.4805 20.9562 21.4638 20.6946 21.4638ZM20.6946 20.2908C21.1423 20.2908 21.6203 20.4465 21.8467 19.9017C21.8828 19.791 21.8966 19.6729 21.887 19.5557C21.8774 19.4386 21.8448 19.3251 21.7913 19.2234C21.5247 18.7953 21.1021 18.9232 20.6946 18.9399V20.2908Z" fill="#FB5A5A"/>
<path d="M28.3174 19.4571C28.5589 19.0568 28.7753 18.6899 28.9916 18.3452C29.3085 17.7893 29.5752 17.6725 29.8871 17.8838C30.199 18.0951 30.204 18.4397 29.8871 18.9957C29.5701 19.5516 29.2985 19.9686 29.0268 20.4689C28.936 20.6381 28.8825 20.8286 28.8708 21.0249C28.8457 21.5808 28.8708 22.1367 28.8708 22.6927C28.8708 23.2486 28.6847 23.4154 28.3677 23.421C28.0508 23.4265 27.7841 23.1708 27.8646 22.6816C27.955 22.0232 27.9116 21.3508 27.7375 20.7133C27.5635 20.0758 27.2632 19.489 26.8585 18.9957C26.777 18.8835 26.7062 18.7624 26.6472 18.6343C26.5769 18.5046 26.555 18.3498 26.586 18.2026C26.6169 18.0553 26.6984 17.9271 26.8132 17.8449C26.8693 17.8009 26.9329 17.77 27.0002 17.7543C27.0675 17.7385 27.1371 17.7382 27.2045 17.7533C27.2719 17.7684 27.3358 17.7986 27.3923 17.8421C27.4487 17.8856 27.4965 17.9414 27.5326 18.0061C27.764 18.3675 27.9703 18.7455 28.1917 19.118C28.1615 19.2236 28.2319 19.3237 28.3174 19.4571Z" fill="#FB5A5A"/>
<path d="M23.5661 11.7459C23.5736 11.9015 23.5736 12.0574 23.5661 12.2129C23.5661 12.3655 23.5112 12.5119 23.4135 12.6198C23.3159 12.7277 23.1835 12.7883 23.0454 12.7883C22.9073 12.7883 22.7748 12.7277 22.6772 12.6198C22.5795 12.5119 22.5246 12.3655 22.5246 12.2129C22.497 11.8633 22.497 11.5118 22.5246 11.1622C22.527 11.09 22.5428 11.0191 22.5712 10.954C22.5996 10.8889 22.6399 10.831 22.6895 10.784C22.7391 10.737 22.7971 10.7019 22.8596 10.6808C22.9222 10.6598 22.988 10.6533 23.0529 10.6618C23.1813 10.6616 23.3049 10.7156 23.3984 10.8127C23.4919 10.9099 23.5483 11.0428 23.556 11.1844C23.556 11.3679 23.556 11.5513 23.556 11.7404L23.5661 11.7459Z" fill="#FB5A5A"/>
<path d="M26.5255 11.6959C26.5148 11.5108 26.5148 11.3251 26.5255 11.14C26.5332 11.0083 26.5868 10.8849 26.6749 10.7958C26.763 10.7067 26.8789 10.6587 26.9984 10.6619C27.0598 10.6483 27.1232 10.6492 27.1844 10.6645C27.2455 10.6797 27.3031 10.709 27.3534 10.7504C27.4037 10.7918 27.4455 10.8444 27.4762 10.9048C27.5069 10.9652 27.5258 11.0321 27.5316 11.1011C27.5694 11.4854 27.5694 11.8731 27.5316 12.2574C27.5282 12.3296 27.5111 12.4001 27.4815 12.4645C27.4518 12.5289 27.4103 12.5857 27.3596 12.6312C27.3089 12.6768 27.2501 12.7101 27.187 12.729C27.1239 12.748 27.0579 12.7521 26.9933 12.7411C26.8599 12.7411 26.7319 12.6825 26.6376 12.5783C26.5432 12.474 26.4902 12.3326 26.4902 12.1852C26.4902 12.0184 26.4902 11.8516 26.4902 11.6793L26.5255 11.6959Z" fill="#FB5A5A"/>
<path d="M17.7767 11.6911C17.7767 11.5243 17.7767 11.352 17.7767 11.1852C17.788 11.0466 17.846 10.9177 17.9392 10.824C18.0323 10.7304 18.1539 10.6787 18.2798 10.6793C18.3415 10.6675 18.4048 10.6698 18.4656 10.6861C18.5265 10.7024 18.5837 10.7323 18.6337 10.774C18.6836 10.8157 18.7254 10.8682 18.7562 10.9285C18.7871 10.9887 18.8064 11.0552 18.8131 11.124C18.8533 11.5212 18.8533 11.9221 18.8131 12.3193C18.8053 12.3883 18.7848 12.4547 18.7527 12.5145C18.7207 12.5743 18.6778 12.6261 18.6268 12.6668C18.5759 12.7075 18.5178 12.7362 18.4564 12.751C18.395 12.7658 18.3314 12.7665 18.2697 12.7529C18.1422 12.7533 18.0193 12.7001 17.9259 12.6041C17.8325 12.5081 17.7756 12.3765 17.7667 12.2359C17.7616 12.0525 17.7767 11.8746 17.7767 11.6911Z" fill="#FB5A5A"/>
<path d="M20.5221 11.697C20.5221 11.5302 20.5221 11.3579 20.5221 11.1911C20.5232 11.0602 20.5698 10.9347 20.6522 10.8406C20.7345 10.7465 20.8464 10.6909 20.9648 10.6852C21.2465 10.6518 21.4679 10.7686 21.5232 11.0799C21.5685 11.5028 21.5685 11.9301 21.5232 12.353C21.493 12.6643 21.2465 12.7811 20.9698 12.7477C20.8505 12.7434 20.7374 12.6884 20.654 12.5942C20.5705 12.4999 20.5233 12.3737 20.5221 12.2418C20.512 12.0584 20.5221 11.8805 20.5221 11.697Z" fill="#FB5A5A"/>
<path d="M29.4457 11.6813C29.4457 11.8647 29.4457 12.0482 29.4457 12.2372C29.4498 12.3081 29.4408 12.3792 29.4192 12.4461C29.3976 12.5131 29.3639 12.5744 29.3201 12.6265C29.2763 12.6785 29.2233 12.7201 29.1645 12.7488C29.1056 12.7774 29.0421 12.7925 28.9778 12.7931C28.9136 12.8075 28.8473 12.8067 28.7834 12.7907C28.7195 12.7746 28.6594 12.7438 28.6071 12.7002C28.5548 12.6565 28.5114 12.6011 28.4799 12.5376C28.4485 12.4741 28.4295 12.4039 28.4244 12.3317C28.3924 11.9619 28.3924 11.5896 28.4244 11.2198C28.4265 11.1475 28.4425 11.0764 28.4713 11.0114C28.5 10.9463 28.541 10.8888 28.5914 10.8425C28.6418 10.7963 28.7005 10.7624 28.7637 10.7431C28.8268 10.7238 28.893 10.7196 28.9577 10.7306C29.0249 10.7257 29.0923 10.7367 29.1554 10.7629C29.2184 10.7891 29.2757 10.8299 29.3233 10.8825C29.371 10.9352 29.4079 10.9984 29.4316 11.0681C29.4553 11.1378 29.4653 11.2123 29.4608 11.2865C29.4507 11.3699 29.4457 11.5312 29.4457 11.6813Z" fill="#FB5A5A"/>
<path d="M10.9461 28.4645C11.8366 28.4645 12.7321 28.4645 13.6276 28.4645C13.9509 28.4499 14.2725 28.5228 14.5643 28.6771C14.8562 28.8314 15.1095 29.0623 15.302 29.3496C15.4946 29.637 15.6205 29.972 15.6689 30.3255C15.7173 30.679 15.6866 31.0403 15.5796 31.3777C15.4772 31.7681 15.2734 32.1168 14.9935 32.3806C14.7137 32.6444 14.37 32.8118 14.0049 32.862C13.8202 32.8936 13.6334 32.9085 13.4465 32.9065H8.41552C7.2584 32.9065 6.50878 32.3228 6.25221 31.2387C6.17152 30.9274 6.15446 30.6002 6.20227 30.2807C6.25008 29.9612 6.36155 29.6574 6.52863 29.3914C6.6957 29.1254 6.9142 28.9037 7.16831 28.7425C7.42243 28.5812 7.70581 28.4844 7.99795 28.459C8.05832 28.459 8.11366 28.459 8.17403 28.459L10.9461 28.4645ZM10.9159 31.739C11.7863 31.739 12.6566 31.739 13.527 31.739C13.7636 31.7655 14.001 31.6985 14.1972 31.5499C14.3934 31.4013 14.5356 31.1808 14.5986 30.9274C14.6344 30.7688 14.636 30.6031 14.6031 30.4438C14.5701 30.2845 14.5037 30.136 14.4091 30.0103C14.3145 29.8847 14.1945 29.7855 14.0587 29.7207C13.9229 29.6559 13.7752 29.6275 13.6276 29.6376C12.6516 29.6376 11.6756 29.6376 10.6996 29.6376C9.87449 29.6376 9.04941 29.6376 8.22937 29.6376C8.08967 29.6215 7.94848 29.6409 7.81662 29.6943C7.68476 29.7478 7.56572 29.8339 7.46861 29.9461C7.37149 30.0582 7.29889 30.1934 7.25635 30.3413C7.21381 30.4893 7.20246 30.646 7.22318 30.7995C7.27349 31.3832 7.65584 31.7279 8.29477 31.739C9.17519 31.7446 10.0455 31.739 10.9159 31.739Z" fill="#FB5A5A"/>
</svg>
