<svg width="38" height="40" viewBox="0 0 38 40" fill="none" xmlns="http://www.w3.org/2000/svg">
<path d="M24.9098 20.736C25.953 21.2722 26.9961 21.7686 28.0067 22.3313C28.3542 22.5215 28.6269 22.8272 28.7788 23.1972C28.9307 23.5672 28.9528 23.9789 28.8412 24.3635C28.7713 24.6429 28.6363 24.9012 28.4476 25.1166C28.2589 25.332 28.0221 25.4983 27.7569 25.6014C27.4918 25.7045 27.2061 25.7415 26.924 25.7093C26.6418 25.677 26.3714 25.5764 26.1355 25.416C24.9038 24.6646 23.5767 24.0877 22.1911 23.7015C20.1885 23.1615 18.0964 23.0546 16.0505 23.3878C14.0046 23.721 12.0505 24.4869 10.3147 25.6357C8.57896 26.7846 7.10026 28.2909 5.97443 30.057C4.8486 31.8232 4.10075 33.8097 3.77933 35.888C3.67502 36.6426 3.65546 37.4105 3.6033 38.1717C3.59923 38.5502 3.48072 38.9183 3.26382 39.2261C3.04692 39.5339 2.74211 39.7667 2.39063 39.8928C2.05034 40.0177 1.68056 40.0339 1.33094 39.9392C0.981319 39.8445 0.668583 39.6436 0.43471 39.3632C0.125813 38.9963 -0.0287207 38.5209 0.00440986 38.0393C0.0182045 35.4828 0.555018 32.957 1.58082 30.6222C2.60663 28.2874 4.09904 26.1944 5.96345 24.476C7.50975 23.0176 9.29752 21.8479 11.2444 21.0206C11.3448 20.9802 11.4428 20.9338 11.5378 20.8816C8.27795 18.3464 6.60238 15.0366 6.79145 10.8663C6.8535 9.40426 7.19867 7.96891 7.80723 6.64231C8.41579 5.3157 9.27582 4.12383 10.3382 3.13477C12.4795 1.0789 15.3275 -0.045582 18.2742 0.00141606C21.221 0.0484141 24.0328 1.26317 26.1094 3.38632C30.9145 8.26488 30.5233 16.5922 24.9098 20.736ZM18.1228 3.64448C16.5891 3.64318 15.0895 4.1034 13.8133 4.96699C12.5372 5.83059 11.5417 7.05882 10.9527 8.49653C10.3638 9.93424 10.2077 11.5169 10.5042 13.0447C10.8007 14.5724 11.5365 15.9766 12.6187 17.08C13.7009 18.1833 15.0809 18.9363 16.5843 19.2438C18.0878 19.5512 19.6472 19.3994 21.0657 18.8074C22.4843 18.2155 23.6981 17.21 24.5541 15.9179C25.41 14.6259 25.8696 13.1053 25.8747 11.5481C25.8808 10.5113 25.6846 9.4835 25.2976 8.52398C24.9105 7.56446 24.3403 6.69221 23.6197 5.9575C22.899 5.22279 22.0423 4.64015 21.0989 4.24317C20.1555 3.84619 19.144 3.64271 18.1228 3.64448Z" fill="#229210"/>
<path d="M28.5619 35.5886C28.6793 35.4165 28.7771 35.2841 28.8684 35.1451L34.6709 26.3213C34.8838 25.9431 35.2233 25.655 35.6277 25.5092C36.032 25.3634 36.4744 25.3698 36.8746 25.527C37.1191 25.6237 37.3393 25.7744 37.5193 25.9683C37.6992 26.1622 37.8344 26.3944 37.9149 26.6479C37.9954 26.9015 38.0193 27.1701 37.9849 27.4342C37.9504 27.6983 37.8584 27.9513 37.7156 28.1748C37.1875 29.0353 36.6138 29.876 36.0596 30.7233C34.2819 33.4284 32.5042 36.1336 30.7265 38.8388C29.9506 40.017 28.9987 40.2156 27.8447 39.4411L22.8376 36.052C22.6208 35.9314 22.431 35.7666 22.2799 35.5679C22.1289 35.3693 22.02 35.1411 21.9599 34.8977C21.8999 34.6542 21.8901 34.4008 21.9311 34.1534C21.9722 33.9059 22.0632 33.6697 22.1984 33.4596C22.3336 33.2496 22.5101 33.0702 22.7169 32.9327C22.9237 32.7952 23.1562 32.7026 23.3999 32.6607C23.6436 32.6189 23.8932 32.6286 24.133 32.6893C24.3729 32.75 24.5977 32.8605 24.7935 33.0136C26.0453 33.9006 27.2775 34.7215 28.5619 35.5886Z" fill="#229210"/>
</svg>
