<svg width="55" height="40" viewBox="0 0 55 40" fill="none" xmlns="http://www.w3.org/2000/svg">
<path d="M55 36.5708C54.541 38.1516 53.2203 38.9314 51.9492 39.7042C51.4642 39.9297 50.9295 40.0288 50.3955 39.9922C41.7514 39.9922 33.1097 39.9922 24.4703 39.9922C17.9167 39.9922 11.3701 39.9922 4.81638 39.9922C3.80839 40.0505 2.81818 39.7096 2.06215 39.0438C1.94557 38.9335 1.82041 38.8324 1.68785 38.7417C0.875726 38.2367 0.275854 37.4551 0 36.5427V34.6178C0.150966 34.1926 0.443189 33.8315 0.828393 33.5939C1.2136 33.3563 1.66874 33.2565 2.11864 33.311C18.983 33.311 35.8475 33.311 52.7119 33.311C53.1821 33.2535 53.6584 33.3508 54.0678 33.5881C54.4772 33.8254 54.7972 34.1895 54.9788 34.6248L55 36.5708ZM27.5494 34.4632H2.25989C2.06929 34.4201 1.8714 34.4201 1.68079 34.4632C1.47599 34.5686 1.21469 34.7794 1.18644 34.969C1.03107 36.1001 1.18644 37.1469 2.32345 37.7792C2.46037 37.8613 2.58615 37.9604 2.69774 38.0743C2.99139 38.3476 3.3388 38.5573 3.71804 38.6903C4.09728 38.8234 4.50012 38.8767 4.90113 38.8471C19.774 38.8471 34.6445 38.8471 49.5127 38.8471C50.7098 38.9068 51.8839 38.5041 52.7895 37.723C53.1442 37.4721 53.4284 37.1351 53.615 36.744C53.8017 36.353 53.8846 35.9209 53.8559 35.4889C53.7994 34.4983 53.7783 34.4281 52.7825 34.4281L27.5494 34.4632Z" fill="#FB5A5A"/>
<path d="M27.4996 0.0184329C34.6748 0.0184329 41.857 0.0184329 49.0321 0.0184329C49.4678 -0.0103606 49.9046 0.0535643 50.3135 0.205946C50.7224 0.358328 51.0939 0.595665 51.4033 0.902137C51.7127 1.20861 51.9529 1.57717 52.1079 1.98326C52.2628 2.38935 52.3289 2.82363 52.3019 3.25715C52.2595 12.5869 52.3019 21.9167 52.3019 31.2464C52.3019 31.394 52.3513 31.5696 52.3019 31.668C52.1536 31.8787 51.977 32.1387 51.7581 32.2019C51.405 32.2932 51.2073 32.0263 51.1649 31.675C51.1543 31.4972 51.1543 31.3189 51.1649 31.1411V3.39063C51.1649 3.15879 51.1649 2.92695 51.1649 2.68809C51.1461 2.31113 50.9941 1.95289 50.7356 1.67655C50.4772 1.40021 50.129 1.22351 49.7525 1.17762C49.5043 1.14588 49.2541 1.1318 49.0039 1.13547H6.01659C5.76637 1.13201 5.51622 1.14609 5.268 1.17762C4.89142 1.22351 4.54322 1.40021 4.28481 1.67655C4.02641 1.95289 3.87439 2.31113 3.85557 2.68809C3.85557 2.90588 3.85557 3.11664 3.85557 3.33443V31.1621C3.85557 31.5977 3.96151 32.1176 3.29766 32.1808C2.85275 32.23 2.69738 31.9419 2.69738 31.1551V3.05342C2.63976 2.36965 2.83562 1.68854 3.24801 1.13852C3.66041 0.588505 4.26084 0.207592 4.93608 0.0676106C5.26953 0.0111613 5.60804 -0.0100357 5.94597 0.00437902L27.4996 0.0184329Z" fill="#FB5A5A"/>
<path d="M27.5001 3.43359H46.2431C47.9945 3.43359 48.8773 4.31879 48.8773 6.06109V31.2472C48.8773 31.3667 48.8773 31.4931 48.8773 31.6196C48.8773 31.9709 48.7007 32.2097 48.3264 32.2097C48.2454 32.2186 48.1634 32.2093 48.0865 32.1825C48.0096 32.1556 47.9397 32.1119 47.8821 32.0546C47.8245 31.9972 47.7805 31.9277 47.7535 31.8512C47.7265 31.7747 47.7172 31.6932 47.7261 31.6126C47.7261 31.451 47.7261 31.2894 47.7261 31.1278V6.21565C47.7261 4.88785 47.4083 4.56469 46.0948 4.56469H8.91962C8.72202 4.55417 8.524 4.55417 8.3264 4.56469C8.04724 4.58084 7.78488 4.70265 7.59315 4.90514C7.40142 5.10763 7.29486 5.37545 7.29533 5.65363C7.29533 5.90654 7.29533 6.15243 7.29533 6.40534V31.2472C7.29533 31.4439 7.35182 31.6828 7.29533 31.8233C7.23883 31.9638 6.92103 32.2659 6.73742 32.2589C6.5538 32.2519 6.33488 31.9919 6.19363 31.8022C6.05239 31.6126 6.19363 31.4861 6.19363 31.3315V6.04002C6.19363 4.33284 7.09053 3.44764 8.81369 3.44764L27.5001 3.43359Z" fill="#FB5A5A"/>
<path d="M29.7746 18.6012V28.3665H30.8622C31.2435 28.3665 31.4907 28.5211 31.4907 28.9286C31.4907 29.336 31.2365 29.4836 30.8692 29.4976H10.7915C10.6009 29.4976 10.3607 29.5538 10.2124 29.4625C10.0641 29.3712 9.78872 29.0901 9.79578 28.9075C9.82113 28.7908 9.87593 28.6826 9.95501 28.5928C10.0341 28.5031 10.1348 28.4349 10.2478 28.3946C10.6517 28.3555 11.0585 28.3555 11.4624 28.3946V18.559C11.1023 18.9525 10.8339 19.2616 10.5585 19.5426C10.5136 19.6106 10.4539 19.6677 10.3838 19.7096C10.3137 19.7515 10.2349 19.7771 10.1535 19.7845C10.072 19.7919 9.98996 19.781 9.91336 19.7525C9.83675 19.724 9.76759 19.6787 9.71103 19.6199C9.40736 19.3248 9.49211 19.0157 9.77459 18.7347C12.9949 15.5311 16.2153 12.3134 19.4568 9.11687C19.6151 8.95735 19.8037 8.83069 20.0116 8.74425C20.2195 8.6578 20.4426 8.61328 20.668 8.61328C20.8933 8.61328 21.1164 8.6578 21.3243 8.74425C21.5322 8.83069 21.7208 8.95735 21.8791 9.11687C25.1348 12.3275 28.3622 15.5522 31.6037 18.7768C31.6699 18.8241 31.7252 18.8849 31.7658 18.9551C31.8065 19.0254 31.8316 19.1034 31.8395 19.1841C31.8474 19.2648 31.8378 19.3462 31.8115 19.4229C31.7852 19.4996 31.7427 19.5699 31.6869 19.6289C31.6311 19.688 31.5632 19.7345 31.4879 19.7654C31.4125 19.7962 31.3314 19.8107 31.25 19.8078C31.1686 19.805 31.0887 19.7849 31.0157 19.7488C30.9427 19.7128 30.8784 19.6616 30.8269 19.5988L29.7746 18.6012ZM17.0627 28.3525V22.4441C17.0627 21.1233 17.7124 20.491 19.0472 20.484H22.324C23.6941 20.484 24.3438 21.1233 24.3438 22.4722C24.3438 24.2356 24.3438 25.9849 24.3438 27.7623C24.3438 27.952 24.3438 28.1417 24.3438 28.3314H28.6235C28.6288 28.2331 28.6288 28.1346 28.6235 28.0363C28.6235 24.6009 28.6235 21.1655 28.6235 17.73C28.5996 17.4925 28.492 17.271 28.3198 17.1048C25.9657 14.763 23.6258 12.4212 21.3 10.0794C20.7845 9.55947 20.5232 9.55947 20.0006 10.0794C17.6465 12.4212 15.309 14.763 12.9879 17.1048C12.793 17.3194 12.6805 17.5956 12.6701 17.8846C12.6701 21.2006 12.6701 24.5096 12.6701 27.8185C12.6701 27.9872 12.6701 28.1628 12.6701 28.3454L17.0627 28.3525ZM23.1856 28.2963C23.1856 26.273 23.1856 24.2637 23.1856 22.2544C23.1856 21.7978 22.9172 21.6362 22.4794 21.6362H19.026C18.3622 21.6362 18.2421 21.7626 18.235 22.423C18.235 23.6665 18.235 24.917 18.235 26.1605V28.2682L23.1856 28.2963Z" fill="#FB5A5A"/>
<path d="M35.1274 26.8283C35.1206 26.6453 35.1584 26.4633 35.2374 26.2979C35.3165 26.1325 35.4345 25.9885 35.5815 25.8781C35.7284 25.7678 35.9 25.6944 36.0816 25.6641C36.2632 25.6338 36.4494 25.6476 36.6245 25.7043C37.8533 26.1258 39.068 26.5895 40.2827 27.0602C40.5128 27.1377 40.7088 27.2919 40.8375 27.4968C40.9662 27.7017 41.0197 27.9446 40.9889 28.1842C40.9738 28.4263 40.8803 28.657 40.7224 28.8419C40.5646 29.0267 40.3509 29.1558 40.1132 29.2099C40.0642 29.2315 40.0114 29.2434 39.9579 29.2451C38.9833 29.1748 38.7008 29.7368 38.6302 30.5799C38.607 30.824 38.4966 31.0517 38.3191 31.2219C38.1416 31.392 37.9087 31.4932 37.6627 31.5072C37.4393 31.554 37.2066 31.523 37.0034 31.4194C36.8003 31.3158 36.6391 31.1459 36.5469 30.9382C36.0313 29.6315 35.5864 28.3037 35.1344 26.9829C35.125 26.9319 35.1226 26.8799 35.1274 26.8283ZM39.6401 27.9664L36.3279 26.7932L37.4649 30.1232C37.5884 29.5729 37.8109 29.0493 38.1217 28.5776C38.5841 28.2796 39.0995 28.0722 39.6401 27.9664Z" fill="#FB5A5A"/>
<path d="M41.1217 18.4106C42.3011 18.4106 43.4805 18.4106 44.6528 18.4106C45.0553 18.4106 45.359 18.5019 45.4084 18.9586C45.4579 19.4152 45.0695 19.5627 44.6457 19.5627H37.5836C37.1669 19.5627 36.7997 19.4784 36.8067 18.9796C36.8138 18.4808 37.174 18.4035 37.5977 18.4106C38.7983 18.4176 39.9423 18.4106 41.1217 18.4106Z" fill="#FB5A5A"/>
<path d="M41.0946 23.6537H37.507C37.0903 23.6537 36.8008 23.5273 36.8008 23.0706C36.8008 22.614 37.1186 22.5156 37.507 22.5156H44.7386C45.12 22.5156 45.4449 22.6421 45.4449 23.0777C45.4449 23.5132 45.1271 23.6608 44.7386 23.6537H41.0946Z" fill="#FB5A5A"/>
<path d="M41.977 10.2754H44.71C45.0984 10.2754 45.4162 10.3808 45.4162 10.8093C45.4162 11.2379 45.1126 11.4065 44.71 11.4065H39.1945C38.8061 11.4065 38.4883 11.273 38.4883 10.8445C38.4883 10.4159 38.7708 10.2754 39.1945 10.2754C40.1196 10.2824 41.0448 10.2754 41.977 10.2754Z" fill="#FB5A5A"/>
<path d="M41.8925 15.4397H39.216C38.8276 15.4397 38.5098 15.3273 38.5098 14.8917C38.5098 14.4561 38.8134 14.3086 39.216 14.3086H44.675C45.0846 14.3086 45.3812 14.414 45.3812 14.8777C45.3812 15.3413 45.0352 15.4397 44.6326 15.4397H41.8925Z" fill="#FB5A5A"/>
<path d="M48.7441 36.164H49.069C49.4433 36.164 49.6975 36.3115 49.7187 36.6979C49.7399 37.0843 49.4644 37.288 49.076 37.3021C48.8289 37.3021 48.5817 37.3021 48.3274 37.3021C47.9531 37.3021 47.713 37.0984 47.7272 36.712C47.7269 36.6315 47.7444 36.552 47.7785 36.479C47.8126 36.4061 47.8624 36.3415 47.9245 36.2899C47.9865 36.2382 48.0592 36.2008 48.1373 36.1803C48.2155 36.1597 48.2973 36.1566 48.3769 36.171L48.7441 36.164Z" fill="#FB5A5A"/>
<path d="M45.6204 36.1641C46.3831 36.1641 46.6232 36.2975 46.6232 36.7261C46.6232 37.1546 46.369 37.3092 45.6133 37.3022C45.4535 37.3128 45.293 37.3128 45.1331 37.3022C44.9833 37.2947 44.8426 37.2284 44.7419 37.1177C44.6413 37.007 44.5889 36.8611 44.5964 36.712C44.6039 36.563 44.6706 36.423 44.7819 36.3229C44.8931 36.2227 45.0398 36.1707 45.1896 36.1781L45.6204 36.1641Z" fill="#FB5A5A"/>
<path d="M42.556 37.2815C42.4147 37.2815 42.2664 37.2815 42.1252 37.2815C41.7509 37.2815 41.5249 37.0637 41.5532 36.6703C41.5814 36.2769 41.8145 36.1504 42.1676 36.1504H42.8738C43.2693 36.1504 43.5376 36.312 43.5306 36.7405C43.5235 37.1691 43.2481 37.2745 42.8879 37.2885L42.556 37.2815Z" fill="#FB5A5A"/>
</svg>
