<svg width="41" height="40" viewBox="0 0 41 40" fill="none" xmlns="http://www.w3.org/2000/svg">
<path d="M6.66018 31.3548C4.97181 31.1369 3.39591 30.4084 2.15403 29.2718C1.54704 28.7661 1.05376 28.1436 0.705141 27.4432C0.356525 26.7428 0.160106 25.9797 0.128201 25.2017C0.0962958 24.4238 0.229596 23.6478 0.51974 22.9225C0.809885 22.1972 1.2506 21.5382 1.81425 20.9869C2.67938 20.0494 3.73762 19.3006 4.91979 18.7894C6.10196 18.2782 7.38144 18.016 8.6746 18.0201H9.57259C9.57259 17.523 9.57259 17.018 9.57259 16.5209C9.69692 15.5597 10.0181 14.6328 10.517 13.7951C11.0159 12.9574 11.6824 12.2261 12.4769 11.6446C13.9605 10.4187 15.7207 9.55298 17.6134 9.11823C19.5061 8.68347 21.4775 8.69209 23.3661 9.14338C24.8164 9.42528 26.2153 9.91731 27.5163 10.6031C27.8237 10.7688 27.9855 10.6899 28.212 10.4769C31.6206 7.13133 35.0346 3.79632 38.454 0.471838C38.6244 0.268632 38.8545 0.121158 39.1133 0.0492231C39.3722 -0.0227116 39.6474 -0.0156568 39.9021 0.0694319C40.1807 0.153701 40.4297 0.31204 40.6212 0.526679C40.8127 0.741318 40.9391 1.00376 40.9861 1.28455C41.0205 1.52076 40.9907 1.76162 40.8999 1.98313C40.8091 2.20464 40.6603 2.39906 40.4684 2.54701L31.0192 11.7551C30.7846 11.9839 30.5257 12.197 30.2588 12.4337C31.0807 13.1228 31.7393 13.9779 32.1891 14.9397C32.6389 15.9015 32.8691 16.9472 32.8638 18.0043C33.4867 18.0043 34.1096 18.0043 34.7164 18.1226C36.3834 18.3117 37.9249 19.0801 39.0585 20.2871C40.1921 21.4942 40.842 23.0591 40.8891 24.6953C40.8989 25.5849 40.7261 26.4674 40.3808 27.2908C40.0356 28.1142 39.5248 28.8619 38.8787 29.4898C38.2327 30.1178 37.4642 30.6133 36.6188 30.9471C35.7733 31.281 34.8679 31.4464 33.9559 31.4337C26.3675 31.4337 18.779 31.4337 11.1825 31.4337C10.9661 31.4536 10.7632 31.5456 10.6081 31.6941C7.92222 34.2901 5.26061 36.9018 2.58281 39.5056C2.42256 39.6903 2.21587 39.8312 1.983 39.9145C1.75012 39.9979 1.49904 40.0208 1.25436 39.981C1.00967 39.9412 0.77978 39.8401 0.587202 39.6876C0.394625 39.5352 0.245977 39.3365 0.155803 39.1111C0.00969292 38.8446 -0.035524 38.5364 0.0280877 38.2406C0.0916995 37.9448 0.260071 37.6803 0.503668 37.4936L6.36085 31.7888C6.49516 31.6915 6.64204 31.6119 6.79771 31.5521L6.66018 31.3548ZM28.2929 14.5641L13.9493 28.5537H33.6485C33.9982 28.5461 34.3469 28.5144 34.6921 28.4591C35.6949 28.3273 36.604 27.8151 37.222 27.0336C37.8399 26.2522 38.1169 25.2645 37.9928 24.285C37.7501 22.557 36.5609 21.5944 34.9591 21.0737C34.3912 20.893 33.79 20.834 33.1967 20.9007C32.6033 20.9674 32.0316 21.1583 31.5208 21.4603C31.2492 21.6157 30.9335 21.6815 30.6205 21.6481C30.3075 21.6147 30.0139 21.4837 29.7832 21.2747C29.5526 21.0656 29.3971 20.7896 29.34 20.4876C29.2828 20.1856 29.327 19.8737 29.466 19.5981C29.5145 19.4719 29.5792 19.3535 29.6278 19.2273C29.957 18.4144 30.0047 17.5188 29.7638 16.6769C29.5228 15.8351 29.0063 15.0931 28.2929 14.5641ZM25.7769 12.8282C24.8142 12.5284 23.9647 12.2049 23.0829 11.9997C21.6192 11.5894 20.0755 11.5308 18.5835 11.829C17.0916 12.1271 15.6958 12.7732 14.5156 13.7119C13.7649 14.2314 13.17 14.9369 12.7924 15.7555C12.5413 16.356 12.4286 17.0029 12.4621 17.6506C12.4957 18.2982 12.6747 18.9308 12.9866 19.5035C13.1122 19.7088 13.1822 19.9419 13.1902 20.1808C13.1982 20.4198 13.1439 20.6569 13.0323 20.8698C12.9208 21.0827 12.7556 21.2644 12.5523 21.3981C12.3491 21.5317 12.1143 21.6129 11.8702 21.6339C11.5384 21.6446 11.2095 21.5712 10.9155 21.4208C9.64124 20.8784 8.21126 20.7931 6.87871 21.1801C5.54615 21.5671 4.39695 22.4015 3.6345 23.5355C3.24899 24.0616 3.07331 24.7068 3.14032 25.3502C3.20733 25.9936 3.51245 26.5911 3.99856 27.0309C4.59109 27.6096 5.31827 28.04 6.11815 28.2855C7.13821 28.5342 8.1916 28.6273 9.2409 28.5616C9.3914 28.5717 9.5423 28.5486 9.68237 28.494C9.82244 28.4393 9.94806 28.3546 10.0499 28.246C15.1628 23.2435 20.2865 18.2463 25.4209 13.2543C25.4614 13.1596 25.5585 13.0491 25.7769 12.8282Z" fill="#4200FF"/>
</svg>
