<svg width="42" height="30" viewBox="0 0 42 30" fill="none" xmlns="http://www.w3.org/2000/svg">
<path d="M38.1779 1H3.82207C3.07369 1.00099 2.35626 1.31395 1.82719 1.8702C1.29812 2.42645 1.00063 3.18056 1 3.96705V26.0342C1.00079 26.8205 1.29836 27.5744 1.82743 28.1304C2.3565 28.6864 3.07385 28.9992 3.82207 29H38.1779C38.9261 28.999 39.6434 28.6862 40.1724 28.1302C40.7014 27.5743 40.9991 26.8205 41 26.0342V3.96455C40.9983 3.17854 40.7003 2.42526 40.1712 1.86964C39.6422 1.31402 38.9252 1.00132 38.1773 1H38.1779ZM38.9242 26.0342C38.9237 26.2421 38.845 26.4413 38.7051 26.5882C38.5653 26.7352 38.3757 26.818 38.1779 26.8185H3.82207C3.62424 26.8182 3.43461 26.7354 3.29472 26.5884C3.15483 26.4414 3.0761 26.2421 3.07579 26.0342V3.96455C3.0761 3.75659 3.15481 3.55723 3.29468 3.41012C3.43455 3.263 3.62419 3.18013 3.82207 3.17963H38.1779C38.3758 3.18029 38.5653 3.26322 38.7051 3.4103C38.845 3.55737 38.9237 3.75664 38.9242 3.96455V26.0342Z" fill="#FDB32B" stroke="#FDB32B"/>
<path d="M18.7108 11.9896H16.7022V8.38963C16.7016 7.81429 16.4839 7.2627 16.0969 6.85576C15.7099 6.44882 15.1852 6.21974 14.6378 6.21875H7.72897C7.18106 6.21892 6.65562 6.44764 6.26807 6.85469C5.88053 7.26174 5.66258 7.81381 5.66211 8.38963V15.6515C5.66305 16.2271 5.88117 16.7789 6.26863 17.1857C6.65609 17.5925 7.18125 17.8213 7.72897 17.8218H9.73513V21.4218C9.73591 21.9972 9.95382 22.5488 10.3411 22.9557C10.7283 23.3625 11.2533 23.5914 11.8008 23.592H18.7114C18.9829 23.5924 19.2518 23.5366 19.5028 23.4278C19.7538 23.3189 19.9819 23.1591 20.1742 22.9576C20.3664 22.756 20.5189 22.5167 20.6231 22.2532C20.7272 21.9896 20.781 21.7071 20.7812 21.4218V14.1592C20.7804 13.5831 20.5619 13.0309 20.1738 12.624C19.7856 12.2171 19.2596 11.989 18.7114 11.9896H18.7108ZM7.72897 8.40151L14.627 8.39088V15.6378L10.804 15.644C10.7927 15.644 10.7843 15.6378 10.773 15.6378C10.7617 15.6378 10.7534 15.644 10.7421 15.644H7.73789L7.72897 8.40151ZM11.8115 21.4243V17.8243H14.6389C15.1863 17.8233 15.7109 17.5943 16.0979 17.1875C16.4849 16.7807 16.7026 16.2293 16.7034 15.654V14.1699L18.7007 14.1624L18.712 21.413L11.8115 21.4243Z" fill="#FDB32B" stroke="#FDB32B"/>
<path d="M25.7977 8.39831H32.9284C33.2037 8.39831 33.4677 8.28339 33.6623 8.07883C33.857 7.87428 33.9663 7.59684 33.9663 7.30755C33.9663 7.01827 33.857 6.74083 33.6623 6.53627C33.4677 6.33172 33.2037 6.2168 32.9284 6.2168H25.7977C25.5224 6.2168 25.2584 6.33172 25.0638 6.53627C24.8691 6.74083 24.7598 7.01827 24.7598 7.30755C24.7598 7.59684 24.8691 7.87428 25.0638 8.07883C25.2584 8.28339 25.5224 8.39831 25.7977 8.39831Z" fill="#FDB32B" stroke="#FDB32B"/>
<path d="M33.1569 11.1621H23.407C23.1318 11.1621 22.8678 11.277 22.6731 11.4816C22.4785 11.6861 22.3691 11.9636 22.3691 12.2529C22.3691 12.5422 22.4785 12.8196 22.6731 13.0241C22.8678 13.2287 23.1318 13.3436 23.407 13.3436H33.1569C33.4322 13.3436 33.6962 13.2287 33.8908 13.0241C34.0855 12.8196 34.1948 12.5422 34.1948 12.2529C34.1948 11.9636 34.0855 11.6861 33.8908 11.4816C33.6962 11.277 33.4322 11.1621 33.1569 11.1621Z" fill="#FDB32B" stroke="#FDB32B"/>
<path d="M33.1569 16.3145H23.407C23.1318 16.3145 22.8678 16.4294 22.6731 16.6339C22.4785 16.8385 22.3691 17.1159 22.3691 17.4052C22.3691 17.6945 22.4785 17.9719 22.6731 18.1765C22.8678 18.381 23.1318 18.496 23.407 18.496H33.1569C33.4322 18.496 33.6962 18.381 33.8908 18.1765C34.0855 17.9719 34.1948 17.6945 34.1948 17.4052C34.1948 17.1159 34.0855 16.8385 33.8908 16.6339C33.6962 16.4294 33.4322 16.3145 33.1569 16.3145Z" fill="#FDB32B" stroke="#FDB32B"/>
<path d="M28.1287 21.0605H23.407C23.1318 21.0605 22.8678 21.1755 22.6731 21.38C22.4785 21.5846 22.3691 21.862 22.3691 22.1513C22.3691 22.4406 22.4785 22.718 22.6731 22.9226C22.8678 23.1271 23.1318 23.2421 23.407 23.2421H28.1287C28.404 23.2421 28.668 23.1271 28.8626 22.9226C29.0573 22.718 29.1666 22.4406 29.1666 22.1513C29.1666 21.862 29.0573 21.5846 28.8626 21.38C28.668 21.1755 28.404 21.0605 28.1287 21.0605Z" fill="#FDB32B" stroke="#FDB32B"/>
<path d="M32.9136 21.3795C32.8187 21.2762 32.705 21.194 32.5793 21.1378C32.4535 21.0817 32.3182 21.0527 32.1816 21.0527C32.045 21.0527 31.9097 21.0817 31.7839 21.1378C31.6582 21.194 31.5445 21.2762 31.4496 21.3795C31.3504 21.4813 31.2725 21.6038 31.2211 21.7391C31.1242 22.0062 31.1242 22.3014 31.2211 22.5685C31.2753 22.6987 31.3529 22.8168 31.4496 22.9162C31.5457 23.0194 31.6604 23.1014 31.787 23.1576C31.9136 23.2137 32.0496 23.2429 32.187 23.2433C32.3228 23.2428 32.4571 23.2136 32.5819 23.1574C32.7068 23.1012 32.8196 23.0192 32.9136 22.9162C33.0134 22.8197 33.0914 22.7009 33.1415 22.5685C33.1963 22.4378 33.2246 22.2966 33.2246 22.1538C33.2246 22.011 33.1963 21.8698 33.1415 21.7391C33.0945 21.6016 33.0162 21.4782 32.9136 21.3795Z" fill="#FDB32B" stroke="#FDB32B"/>
</svg>
