<svg width="32" height="40" viewBox="0 0 32 40" fill="none" xmlns="http://www.w3.org/2000/svg">
<path d="M3.28119 0H23.6827C23.9139 0.131715 24.1323 0.285285 24.335 0.458661C26.7245 2.88542 29.1308 5.31218 31.5537 7.73893C31.6979 7.87847 31.8119 8.047 31.8884 8.23377C31.965 8.42053 32.0023 8.62145 31.9981 8.8237C31.9981 17.9289 31.9981 27.0365 31.9981 36.1466C32.0141 36.6573 31.9267 37.166 31.7414 37.6411C31.556 38.1161 31.2766 38.5475 30.9205 38.9085C30.5643 39.2695 30.139 39.5525 29.6709 39.7399C29.2028 39.9272 28.7017 40.015 28.1989 39.9978H3.82601C2.98889 40.0265 2.16634 39.7703 1.48907 39.2698C0.999227 38.888 0.608182 38.391 0.349668 37.8215C0.0911537 37.252 -0.0270634 36.6272 0.00520089 36.0009V8.9329C0.00520089 7.26572 0.00520089 5.59853 0.00520089 3.92407C-0.0152136 3.31005 0.11182 2.70021 0.37534 2.14719C0.63886 1.59417 1.03095 1.1146 1.51775 0.749867C2.04273 0.368721 2.64543 0.112435 3.28119 0ZM22.1128 2.50442H3.91919C2.87976 2.50442 2.43532 2.96308 2.43532 4.03328V36.0082C2.43532 37.0712 2.87976 37.5298 3.92636 37.5298H28.0555C29.0734 37.5298 29.5322 37.0712 29.5322 36.0301V10.0104C27.8978 10.0104 26.3207 10.0104 24.7436 10.0104C24.3989 10.029 24.0542 9.97418 23.7316 9.84935C23.409 9.72453 23.1157 9.5325 22.8706 9.28563C22.6255 9.03875 22.434 8.74251 22.3084 8.41594C22.1829 8.08937 22.126 7.73972 22.1415 7.38948C22.1415 6.6105 22.1415 5.82422 22.1415 5.04524L22.1128 2.50442Z" fill="#959817"/>
<path d="M27.0517 17.5449V19.9984H4.9082V17.5449H27.0517Z" fill="#959817"/>
<path d="M27.0517 23.7988V26.2523H4.9082V23.7988H27.0517Z" fill="#959817"/>
<path d="M4.9082 32.5057V30.0449H22.1126V32.5057H4.9082Z" fill="#959817"/>
<path d="M27.0447 32.5129H24.6289V30.0449H27.0447V32.5129Z" fill="#959817"/>
</svg>
