<svg width="39" height="40" viewBox="0 0 39 40" fill="none" xmlns="http://www.w3.org/2000/svg">
<path d="M28.1129 40H26.283C26.1843 40 26.0922 39.946 25.9934 39.9325C24.2335 39.7454 22.5361 39.1598 21.0238 38.218C20.7804 38.0697 20.5038 37.9884 20.2208 37.9818C14.6653 37.9818 9.10987 37.9818 3.54785 37.9818C2.80704 38.0064 2.07826 37.7852 1.46987 37.351C0.861493 36.9169 0.406002 36.293 0.171136 35.5721C0.105313 35.3628 0.0592405 35.1468 0 34.9376V3.04421C0 2.93621 0.0592387 2.82821 0.0855678 2.71346C0.188709 2.24138 0.389619 1.79757 0.674675 1.41208C0.95973 1.0266 1.32227 0.708464 1.73772 0.479243C2.13552 0.287584 2.54701 0.127371 2.9686 0H34.0567C34.0761 0.0173999 34.0984 0.0311173 34.1225 0.040503C36.0972 0.553497 37.0253 1.76848 37.0253 3.87445C37.0253 9.52638 37.0253 15.1738 37.0253 20.8167C37.0225 21.0543 37.084 21.288 37.203 21.4917C37.8186 22.4942 38.2824 23.5866 38.5787 24.7317C38.7565 25.4742 38.8618 26.2302 39 26.9794V28.8559C38.9724 28.9671 38.9504 29.0798 38.9342 29.1934C38.681 31.5396 37.7667 33.7594 36.3032 35.5815C34.8397 37.4035 32.8902 38.7489 30.6932 39.4533C29.8375 39.703 28.9686 39.8245 28.1129 40ZM27.1848 37.6578C29.0689 37.6604 30.9114 37.0901 32.4793 36.0188C34.0472 34.9475 35.27 33.4234 35.9931 31.6393C36.7162 29.8552 36.9071 27.8913 36.5416 25.996C36.1761 24.1006 35.2707 22.359 33.9398 20.9914C32.609 19.6238 30.9125 18.6917 29.065 18.313C27.2175 17.9343 25.302 18.126 23.5607 18.8638C21.8194 19.6016 20.3307 20.8524 19.2827 22.458C18.2348 24.0636 17.6747 25.9519 17.6734 27.8839C17.6769 30.4715 18.6795 32.9524 20.4619 34.784C22.2443 36.6156 24.6615 37.6489 27.1848 37.6578V37.6578ZM2.28405 17.7995H17.3443V2.34223H3.64C3.45589 2.31242 3.26753 2.32757 3.09021 2.38646C2.91289 2.44535 2.75162 2.54631 2.6195 2.68113C2.48739 2.81596 2.38816 2.98083 2.32987 3.16238C2.27158 3.34393 2.25588 3.53701 2.28405 3.72595V17.7995ZM34.7413 18.4745V3.7057C34.7638 3.52292 34.7452 3.33729 34.687 3.163C34.6288 2.98871 34.5325 2.83038 34.4054 2.70011C34.2784 2.56984 34.124 2.47108 33.954 2.41139C33.7841 2.3517 33.603 2.33266 33.4248 2.35572H19.6876V18.4745C24.7033 14.8498 29.6992 14.8498 34.7413 18.4745ZM18.0947 35.6058L17.838 35.2481C16.3784 33.3081 15.5304 30.9579 15.4069 28.5109C15.2834 26.064 15.8904 23.6366 17.1468 21.5525C17.35 21.1207 17.4233 20.6367 17.3575 20.162H2.28405V34.1546C2.28405 35.1806 2.69873 35.6058 3.68608 35.6058H18.0947Z" fill="#BCAC19"/>
<path d="M27.1599 27.1054C26.3239 27.1054 25.488 27.1054 24.652 27.1054C24.4947 27.1176 24.3367 27.0964 24.1878 27.0431C24.0389 26.9898 23.9023 26.9056 23.7867 26.7956C23.671 26.6857 23.5787 26.5524 23.5156 26.4042C23.4525 26.256 23.4199 26.096 23.4199 25.9342C23.4199 25.7725 23.4525 25.6125 23.5156 25.4643C23.5787 25.3161 23.671 25.1828 23.7867 25.0729C23.9023 24.9629 24.0389 24.8787 24.1878 24.8254C24.3367 24.7721 24.4947 24.7509 24.652 24.7631H29.7862C29.9434 24.7509 30.1015 24.7721 30.2504 24.8254C30.3993 24.8787 30.5359 24.9629 30.6515 25.0729C30.7672 25.1828 30.8595 25.3161 30.9226 25.4643C30.9857 25.6125 31.0183 25.7725 31.0183 25.9342C31.0183 26.096 30.9857 26.256 30.9226 26.4042C30.8595 26.5524 30.7672 26.6857 30.6515 26.7956C30.5359 26.9056 30.3993 26.9898 30.2504 27.0431C30.1015 27.0964 29.9434 27.1176 29.7862 27.1054C28.8844 27.1121 28.0221 27.1054 27.1599 27.1054Z" fill="#BCAC19"/>
<path d="M27.2393 28.6733H29.7471C29.9044 28.661 30.0624 28.6822 30.2113 28.7355C30.3602 28.7888 30.4968 28.8731 30.6125 28.983C30.7281 29.093 30.8204 29.2262 30.8835 29.3745C30.9466 29.5227 30.9792 29.6827 30.9792 29.8444C30.9792 30.0061 30.9466 30.1661 30.8835 30.3144C30.8204 30.4626 30.7281 30.5958 30.6125 30.7058C30.4968 30.8157 30.3602 30.9 30.2113 30.9533C30.0624 31.0066 29.9044 31.0278 29.7471 31.0155H24.6129C24.4557 31.0278 24.2976 31.0066 24.1487 30.9533C23.9998 30.9 23.8633 30.8157 23.7476 30.7058C23.6319 30.5958 23.5396 30.4626 23.4765 30.3144C23.4134 30.1661 23.3809 30.0061 23.3809 29.8444C23.3809 29.6827 23.4134 29.5227 23.4765 29.3745C23.5396 29.2262 23.6319 29.093 23.7476 28.983C23.8633 28.8731 23.9998 28.7888 24.1487 28.7355C24.2976 28.6822 24.4557 28.661 24.6129 28.6733H27.2393Z" fill="#BCAC19"/>
<path d="M8.68076 11.2489H7.29849C7.13591 11.2709 6.97064 11.257 6.81372 11.2082C6.65679 11.1594 6.51184 11.0768 6.38854 10.966C6.26525 10.8551 6.16646 10.7185 6.09878 10.5653C6.0311 10.4122 5.99609 10.246 5.99609 10.0778C5.99609 9.90965 6.0311 9.74343 6.09878 9.59026C6.16646 9.4371 6.26525 9.30052 6.38854 9.18965C6.51184 9.07879 6.65679 8.9962 6.81372 8.9474C6.97064 8.8986 7.13591 8.88472 7.29849 8.90669H8.61494L8.72025 8.85944C8.72025 8.40045 8.72025 7.92121 8.72025 7.44196C8.70859 7.28276 8.7287 7.12279 8.77936 6.97182C8.83002 6.82085 8.91016 6.68206 9.01489 6.56393C9.11961 6.44579 9.24673 6.35079 9.38846 6.28474C9.5302 6.21868 9.68359 6.18294 9.83925 6.17972C9.99822 6.17848 10.1557 6.21081 10.302 6.27468C10.4483 6.33856 10.5802 6.43263 10.6895 6.55103C10.7987 6.66943 10.8831 6.80964 10.9373 6.96291C10.9914 7.11619 11.0142 7.27925 11.0043 7.44196V8.79195C11.0018 8.83916 11.0018 8.88648 11.0043 8.93369C11.4453 8.93369 11.8929 8.93369 12.3208 8.93369C12.4833 8.91172 12.6486 8.92561 12.8055 8.9744C12.9625 9.0232 13.1074 9.10579 13.2307 9.21666C13.354 9.32752 13.4528 9.4641 13.5205 9.61726C13.5881 9.77042 13.6232 9.93664 13.6232 10.1048C13.6232 10.273 13.5881 10.4392 13.5205 10.5923C13.4528 10.7455 13.354 10.8821 13.2307 10.993C13.1074 11.1038 12.9625 11.1864 12.8055 11.2352C12.6486 11.284 12.4833 11.2979 12.3208 11.2759H10.9451V12.6866C10.9623 12.8515 10.9456 13.0181 10.8959 13.1759C10.8462 13.3336 10.7647 13.4789 10.6566 13.6022C10.5486 13.7255 10.4165 13.8241 10.2689 13.8916C10.1212 13.9591 9.96139 13.994 9.79975 13.994C9.6381 13.994 9.47827 13.9591 9.33064 13.8916C9.18301 13.8241 9.05089 13.7255 8.94286 13.6022C8.83484 13.4789 8.75332 13.3336 8.70363 13.1759C8.65394 13.0181 8.63718 12.8515 8.65444 12.6866L8.68076 11.2489Z" fill="#BCAC19"/>
<path d="M27.193 8.90963C27.9236 8.90963 28.6608 8.90963 29.3981 8.90963C29.5553 8.89737 29.7134 8.91856 29.8623 8.97186C30.0112 9.02515 30.1477 9.10942 30.2634 9.21936C30.3791 9.32931 30.4714 9.46257 30.5345 9.61079C30.5976 9.75901 30.6301 9.919 30.6301 10.0807C30.6301 10.2425 30.5976 10.4025 30.5345 10.5507C30.4714 10.6989 30.3791 10.8322 30.2634 10.9421C30.1477 11.0521 30.0112 11.1363 29.8623 11.1896C29.7134 11.2429 29.5553 11.2641 29.3981 11.2518H24.9879C24.8307 11.2641 24.6726 11.2429 24.5237 11.1896C24.3748 11.1363 24.2383 11.0521 24.1226 10.9421C24.0069 10.8322 23.9146 10.6989 23.8515 10.5507C23.7884 10.4025 23.7559 10.2425 23.7559 10.0807C23.7559 9.919 23.7884 9.75901 23.8515 9.61079C23.9146 9.46257 24.0069 9.32931 24.1226 9.21936C24.2383 9.10942 24.3748 9.02515 24.5237 8.97186C24.6726 8.91856 24.8307 8.89737 24.9879 8.90963C25.7186 8.90288 26.4558 8.90963 27.193 8.90963Z" fill="#BCAC19"/>
<path d="M11.4091 27.922C11.7843 28.2865 12.12 28.597 12.4426 28.9278C12.5695 29.0318 12.6736 29.1621 12.7479 29.3103C12.8223 29.4584 12.8652 29.6211 12.8739 29.7874C12.8826 29.9538 12.8569 30.1202 12.7984 30.2757C12.74 30.4311 12.6501 30.5722 12.5347 30.6895C12.4175 30.8054 12.2778 30.8949 12.1247 30.9521C11.9717 31.0092 11.8086 31.0329 11.6461 31.0214C11.4836 31.01 11.3253 30.9637 11.1813 30.8856C11.0373 30.8075 10.9108 30.6993 10.8102 30.568L9.85572 29.5488C9.46079 29.9538 9.10534 30.3318 8.72357 30.6895C8.58105 30.8357 8.40307 30.9401 8.20801 30.9922C8.01294 31.0442 7.80787 31.0419 7.61397 30.9855C7.42007 30.929 7.24437 30.8206 7.10502 30.6712C6.96567 30.5219 6.86772 30.3371 6.82129 30.136C6.76774 29.9333 6.77016 29.7192 6.82827 29.5178C6.88639 29.3164 6.99791 29.1355 7.15041 28.9953C7.49269 28.6443 7.84155 28.3203 8.2299 27.9288C7.83496 27.5238 7.45978 27.1593 7.11092 26.7678C6.96839 26.6216 6.8665 26.4391 6.81576 26.2391C6.76502 26.0391 6.76727 25.8288 6.82229 25.6299C6.87731 25.4311 6.98309 25.2509 7.12871 25.108C7.27434 24.9651 7.45453 24.8647 7.65067 24.8171C7.84846 24.7637 8.05672 24.7669 8.25284 24.8264C8.44896 24.8859 8.62543 24.9994 8.76306 25.1546C9.10534 25.4988 9.4213 25.8296 9.81623 26.2481C10.2046 25.8566 10.5534 25.4718 10.9352 25.1208C11.0798 24.9728 11.2607 24.8676 11.4588 24.8165C11.6569 24.7653 11.8649 24.7701 12.0605 24.8303C12.2562 24.8905 12.4324 25.0039 12.5703 25.1584C12.7083 25.3129 12.8029 25.5029 12.8441 25.7081C12.8899 25.9055 12.8829 26.1119 12.8238 26.3055C12.7647 26.4992 12.6557 26.6729 12.5084 26.8083C12.1727 27.1525 11.8238 27.49 11.4091 27.922Z" fill="#BCAC19"/>
</svg>
