<svg width="42" height="40" viewBox="0 0 42 40" fill="none" xmlns="http://www.w3.org/2000/svg">
<path d="M0.0677392 24.9926L0.237096 24.5222C0.425491 23.9822 0.762808 23.5121 1.20671 23.1711C1.65062 22.8301 2.18133 22.6332 2.73226 22.6052C3.46613 22.5464 4.21129 22.6052 4.99032 22.6052C5.69893 22.5165 6.41454 22.6957 7.00709 23.11C7.59965 23.5244 8.0298 24.1465 8.21935 24.8632L10.15 23.9577C10.0597 23.5108 9.95805 23.0168 9.86773 22.5229C9.46505 20.2607 9.55768 17.9331 10.1387 15.7135C10.1744 15.6031 10.1785 15.4842 10.1504 15.3714C10.1224 15.2587 10.0634 15.1568 9.98064 15.0784C7.55268 12.4416 6.13848 8.96814 6.00644 5.31712C5.96955 4.86783 6.06832 4.41775 6.28896 4.02978C6.5096 3.64181 6.84109 3.33534 7.2371 3.15318C9.02097 2.17705 10.7936 1.16563 12.5661 0.154221C12.7241 0.0533726 12.9058 0 13.0911 0C13.2764 0 13.4581 0.0533726 13.6161 0.154221L19.0581 3.21197C19.3523 3.34103 19.6102 3.54577 19.8076 3.807C20.0051 4.06824 20.1357 4.37742 20.1871 4.70557C20.9323 4.54092 21.6435 4.34099 22.3661 4.22338C25.2282 3.72655 28.1672 4.11076 30.8226 5.32888C30.9219 5.37367 31.0118 5.4384 31.0871 5.51938C31.1625 5.60036 31.2217 5.69599 31.2616 5.80083C31.3014 5.90567 31.321 6.01766 31.3193 6.1304C31.3176 6.24314 31.2946 6.35442 31.2516 6.4579C31.2086 6.56137 31.1465 6.65501 31.0687 6.73347C30.991 6.81193 30.8992 6.87368 30.7985 6.91518C30.6979 6.95668 30.5904 6.97712 30.4822 6.97534C30.3739 6.97356 30.2671 6.94958 30.1677 6.9048C27.1168 5.52414 23.6849 5.36089 20.5258 6.44613C20.4032 6.47699 20.2937 6.54895 20.2141 6.65093C20.1346 6.75292 20.0894 6.8793 20.0855 7.01065C19.5925 10.3954 17.9981 13.5011 15.5693 15.8076C15.1755 16.1579 14.7566 16.4764 14.3161 16.7602C13.9917 17.0177 13.595 17.1572 13.1871 17.1572C12.7792 17.1572 12.3825 17.0177 12.0581 16.7602L11.7758 16.5955H11.6403C11.55 17.4305 11.4145 18.2655 11.3581 19.1005C11.2856 20.5382 11.4304 21.9788 11.7871 23.3696C11.8661 23.6989 11.979 23.8165 12.329 23.8165H24.7484C25.5748 23.7911 26.3804 24.089 27.0065 24.6515C27.0658 24.6835 27.1316 24.7002 27.1984 24.7002C27.2652 24.7002 27.331 24.6835 27.3903 24.6515C27.7308 24.42 27.9982 24.0889 28.1588 23.6998C28.3195 23.3107 28.3664 22.8808 28.2935 22.4641C28.2299 21.9997 28.0183 21.571 27.6928 21.2469C27.3673 20.9227 26.9466 20.7218 26.4984 20.6764C25.3694 20.6764 24.3193 20.6764 23.2242 20.6764C22.5713 20.7051 21.9227 20.5538 21.3438 20.2379C20.765 19.922 20.2764 19.4526 19.9274 18.8771C19.5521 18.308 19.3364 17.6412 19.3044 16.9516C19.2725 16.2619 19.4257 15.5766 19.7468 14.9726C20.0447 14.3493 20.5013 13.8233 21.0668 13.452C21.6323 13.0807 22.2849 12.8785 22.9532 12.8674C23.2242 12.8674 23.4952 12.8674 23.8226 12.8674C23.8226 12.1735 23.8226 11.5267 23.8226 10.8799C23.8056 10.6722 23.8597 10.4649 23.9755 10.2948C24.0912 10.1247 24.261 10.0029 24.4548 9.95079C24.5754 9.92026 24.7011 9.91889 24.8222 9.94677C24.9434 9.97466 25.0568 10.0311 25.1538 10.1117C25.2508 10.1923 25.3288 10.2949 25.3818 10.4118C25.4348 10.5286 25.4615 10.6566 25.4597 10.7858C25.4597 11.4444 25.4597 12.1147 25.4597 12.8321H25.9113H29.0274C29.1504 12.8177 29.2749 12.8319 29.392 12.8737C29.5091 12.9156 29.6158 12.984 29.7044 13.074C29.793 13.1641 29.8612 13.2735 29.9043 13.3943C29.9473 13.5152 29.964 13.6446 29.9532 13.773C29.9476 13.8833 29.9207 13.9913 29.8741 14.0905C29.8275 14.1898 29.7623 14.2782 29.6822 14.3506C29.6022 14.4231 29.5089 14.478 29.4081 14.5121C29.3072 14.5462 29.2008 14.5588 29.0952 14.5492C28.3161 14.5492 27.5371 14.5492 26.7581 14.5492C25.5274 14.5492 24.2968 14.5492 23.0661 14.5492C22.5792 14.5468 22.1068 14.7216 21.7306 15.0435C21.3543 15.3654 21.0978 15.814 21.0054 16.312C20.913 16.8099 20.9906 17.3259 21.2246 17.7706C21.4586 18.2154 21.8344 18.561 22.2871 18.7477C22.5983 18.8464 22.9215 18.8979 23.2468 18.9006C24.2177 18.9006 25.1887 18.9006 26.1597 18.9006C26.9967 18.8868 27.8142 19.1653 28.4816 19.6917C29.1491 20.218 29.6281 20.962 29.8425 21.805C30.0568 22.648 29.994 23.5414 29.6642 24.3429C29.3344 25.1444 28.7565 25.8079 28.0226 26.2274C27.9609 26.2681 27.9093 26.3234 27.872 26.3888C27.8347 26.4542 27.8128 26.5279 27.8081 26.6038C27.8232 27.0104 27.7608 27.4161 27.6245 27.7975C27.4882 28.1789 27.2808 28.5283 27.0142 28.8258C26.7476 29.1232 26.427 29.3626 26.0711 29.5303C25.7151 29.698 25.3308 29.7906 24.9403 29.8027C23.1903 29.8027 21.4403 29.8027 19.6903 29.8027C19.4162 29.7998 19.1441 29.8517 18.8887 29.9555C18.7054 30.0191 18.5469 30.1429 18.437 30.3083C18.327 30.4737 18.2716 30.6718 18.279 30.8729C18.2836 31.0807 18.3502 31.2818 18.4696 31.4483C18.5889 31.6148 18.7552 31.7385 18.9452 31.802C19.153 31.8723 19.3702 31.908 19.5887 31.9078H29.2645C29.9222 31.9111 30.5548 31.645 31.0258 31.1669C32.6177 29.5792 34.1758 27.9445 35.8919 26.5215C36.9905 25.4865 37.6756 24.0593 37.8113 22.5229C38.1978 20.6295 38.1965 18.6725 37.8074 16.7797C37.4183 14.8869 36.6502 13.1009 35.5532 11.5385C35.4108 11.3816 35.3268 11.1769 35.3164 10.9613C35.3061 10.7457 35.37 10.5333 35.4968 10.3624C35.603 10.2099 35.7569 10.1007 35.932 10.0535C36.1071 10.0063 36.2925 10.0241 36.4564 10.1037C36.6332 10.2015 36.7843 10.3428 36.8968 10.5153C39.1062 13.6499 40.0799 17.5467 39.6177 21.4056C39.4823 22.6758 39.1548 23.9106 38.9064 25.2043H39.1887C39.8495 25.3041 40.4655 25.6105 40.9555 26.083C41.4454 26.5555 41.786 27.1718 41.9323 27.8504C41.9498 27.9188 41.9724 27.9856 42 28.0503V28.9912C41.8265 29.7713 41.4334 30.4798 40.871 31.0258C38.3081 33.4837 35.7226 35.9182 33.2048 38.4232C32.7116 38.9349 32.1245 39.3382 31.4787 39.6089C30.8328 39.8796 30.1413 40.0123 29.4452 39.9991C25.3016 39.9991 21.1581 39.9991 17.0258 39.8933C15.5166 39.9225 14.0202 39.6011 12.6452 38.9524C11.3016 38.2703 9.9129 37.6587 8.53548 37.0237C8.41458 36.9677 8.29008 36.9205 8.1629 36.8825C8.12616 37.6402 7.81618 38.3555 7.29495 38.8854C6.77372 39.4152 6.07966 39.7206 5.3516 39.7404C4.50483 39.7404 3.65805 39.7404 2.81128 39.7404C2.19076 39.7283 1.59063 39.5076 1.1003 39.1113C0.609968 38.715 0.255707 38.1642 0.090316 37.5411C0.0646633 37.48 0.0344705 37.421 0 37.3647L0.0677392 24.9926ZM18.1323 25.4983C15.9645 25.4983 13.8081 25.4983 11.6516 25.4983C10.459 25.4973 9.31448 25.9877 8.46774 26.8625C8.31808 27.034 8.23028 27.2544 8.21935 27.4858C8.21935 29.838 8.21935 32.2724 8.21935 34.6598C8.20348 34.7758 8.22769 34.8938 8.28766 34.9929C8.34764 35.092 8.43947 35.1657 8.54677 35.2008C10.1726 35.9417 11.7984 36.6826 13.4016 37.4706C14.2986 37.9297 15.2814 38.1786 16.2806 38.1997C20.6613 38.2821 25.0306 38.3291 29.4 38.3761C29.9286 38.3991 30.456 38.3063 30.948 38.1037C31.44 37.9012 31.8858 37.5933 32.2564 37.2001C33.4871 35.9182 34.7968 34.7304 36.0726 33.5073C37.3484 32.2841 38.6355 31.061 39.9 29.8262C40.0994 29.649 40.2504 29.4202 40.3379 29.1628C40.4253 28.9054 40.446 28.6286 40.3979 28.3602C40.3498 28.0918 40.2346 27.8414 40.0639 27.6342C39.8933 27.427 39.6732 27.2704 39.4258 27.18C39.075 27.0084 38.6819 26.9536 38.3 27.023C37.9182 27.0925 37.5662 27.2828 37.2919 27.5682C35.5871 29.2146 33.9048 30.8258 32.1774 32.5076C31.4636 33.2502 30.4991 33.6723 29.4903 33.6837C28.6323 33.6837 27.7742 33.6837 26.9048 33.6837C24.4097 33.6837 21.9032 33.6837 19.4081 33.6837C19.013 33.6902 18.6214 33.6055 18.2614 33.4356C17.9015 33.2658 17.5821 33.015 17.3263 32.7013C17.0705 32.3876 16.8845 32.0187 16.7818 31.6212C16.6791 31.2238 16.6622 30.8075 16.7323 30.4025C16.8696 29.7565 17.2162 29.1795 17.7137 28.7684C18.2112 28.3572 18.8294 28.1369 19.4645 28.1444C20.5935 28.1444 21.7226 28.1444 22.8516 28.1444C23.5403 28.1444 24.229 28.1444 24.9065 28.1444C25.2383 28.1448 25.5574 28.0116 25.7972 27.7727C26.037 27.5339 26.179 27.2078 26.1935 26.8625C26.1738 26.5243 26.033 26.2061 25.7988 25.9709C25.5646 25.7357 25.2542 25.6006 24.929 25.5924H18.1548L18.1323 25.4983ZM18.471 5.77578C18.6516 5.08191 18.3468 4.74085 17.771 4.43507C16.2919 3.65888 14.8355 2.80036 13.379 1.97712C13.2891 1.91341 13.1829 1.87934 13.0742 1.87934C12.9655 1.87934 12.8592 1.91341 12.7694 1.97712C11.1774 2.88268 9.58548 3.78825 7.98225 4.67029C7.85901 4.72518 7.75614 4.82013 7.68898 4.94095C7.62183 5.06178 7.594 5.20199 7.60967 5.34065C7.64454 6.96999 8.01009 8.5732 8.68226 10.0449C9.46679 12.0023 10.7323 13.7099 12.3516 14.9961C13.1532 15.5841 12.9839 15.6076 13.7516 14.9961C15.1105 13.8855 16.2321 12.492 17.0447 10.9043C17.8573 9.31673 18.3431 7.57001 18.471 5.77578ZM6.55968 31.2257V25.6747C6.57477 25.4936 6.55203 25.3113 6.493 25.1402C6.43398 24.9692 6.34007 24.8134 6.21776 24.6838C6.09544 24.5542 5.94763 24.4537 5.78446 24.3892C5.6213 24.3248 5.44666 24.2979 5.27258 24.3105H3.01451C2.83998 24.2981 2.66493 24.325 2.50127 24.3894C2.3376 24.4538 2.18914 24.5541 2.06598 24.6835C1.94281 24.8129 1.84782 24.9684 1.78746 25.1394C1.72709 25.3104 1.70277 25.493 1.71613 25.6747V36.7414C1.6983 36.9202 1.71744 37.1009 1.77228 37.2714C1.82712 37.4418 1.91638 37.5981 2.03405 37.7295C2.15173 37.861 2.29509 37.9647 2.45448 38.0337C2.61386 38.1026 2.78558 38.1352 2.95806 38.1292C3.71075 38.1292 4.50108 38.1292 5.32903 38.1292C5.50162 38.1374 5.67386 38.1063 5.83368 38.038C5.99351 37.9696 6.13705 37.8657 6.25428 37.7335C6.37151 37.6013 6.45958 37.444 6.51233 37.2726C6.56509 37.1013 6.58125 36.92 6.55968 36.7414V31.2257Z" fill="#9365F5"/>
</svg>
