<svg width="40" height="40" viewBox="0 0 40 40" fill="none" xmlns="http://www.w3.org/2000/svg">
<g clip-path="url(#clip0_1206_643)">
<path d="M35.5434 0.000444174C35.7347 0.201579 35.9083 0.41871 36.0626 0.64945C36.8847 2.25032 37.6635 3.82953 38.4639 5.43039C38.7019 5.94959 38.637 6.31736 38.2476 6.51206C37.8582 6.70676 37.512 6.51206 37.2741 6.03612C36.7116 4.93283 36.1491 3.8728 35.6083 2.72623L35.392 2.33685L34.5699 4.69487C32.608 10.6297 29.1742 15.9706 24.5891 20.219C20.004 24.4673 14.4173 27.4846 8.35031 28.9891C6.49203 29.4652 4.59538 29.7765 2.68239 29.9193L2.57422 28.6213C11.6149 27.826 20.0107 23.6088 26.0464 16.8312C29.8134 12.5527 32.5514 7.46889 34.0507 1.96908L30.6543 3.65648L30.1567 3.89445C30.0098 3.94686 29.8486 3.94266 29.7046 3.88266C29.5606 3.82267 29.4441 3.71116 29.3779 3.56993C29.3029 3.42751 29.2836 3.26231 29.3235 3.1064C29.3635 2.9505 29.46 2.815 29.5942 2.72623C29.7096 2.64852 29.8329 2.58326 29.962 2.53154L35.1107 -0.0644531L35.5434 0.000444174Z" fill="#410EAD"/>
<path d="M0 38.6797H40V39.9993H0V38.6797Z" fill="#410EAD"/>
<path d="M37.9885 25.0521V36.2798C37.9885 37.1668 37.8154 37.3398 36.9501 37.3398H32.9263C32.234 37.3398 31.9961 37.1235 31.9961 36.4312V13.5648C31.9961 12.8942 32.2341 12.6562 32.9047 12.6562H37.0799C37.7722 12.6562 37.9885 12.8726 37.9885 13.6081V25.0521ZM33.3806 14.0191V35.977H36.6256V14.0191H33.3806Z" fill="#410EAD"/>
<path d="M24.6834 29.6602C24.6834 27.4968 24.6834 25.1821 24.6834 22.9322C24.6834 22.1967 24.8781 22.002 25.592 22.002H29.7673C30.4596 22.002 30.6759 22.2183 30.6759 22.8889V36.4314C30.6759 37.102 30.4379 37.34 29.7673 37.34H25.5704C24.8998 37.34 24.6834 37.102 24.6834 36.453C24.6618 34.1815 24.6834 31.91 24.6834 29.6602ZM26.0464 23.3649V35.9771H29.313V23.3649H26.0464Z" fill="#410EAD"/>
<path d="M17.3494 31.9957C17.3494 30.503 17.3494 29.032 17.3494 27.5393C17.3494 26.9119 17.5657 26.674 18.2147 26.6523H22.5414C23.1688 26.6523 23.4284 26.9119 23.4284 27.5393V36.4306C23.4284 37.1012 23.1904 37.3392 22.5198 37.3392H18.3229C17.6523 37.3392 17.436 37.1012 17.436 36.4306C17.3278 34.9595 17.3494 33.4668 17.3494 31.9957ZM18.6907 35.9763H22.0006V29.0104C22.0006 27.9936 22.0006 27.9936 21.0055 27.9936H18.6907V35.9763Z" fill="#410EAD"/>
<path d="M9.99414 33.6619V30.8496C9.99414 30.2438 10.2537 30.0059 10.8595 30.0059H15.1861C15.7702 30.0059 16.0298 30.2438 16.0298 30.8712V36.4742C16.0298 37.08 15.7702 37.3396 15.1645 37.3396H10.8378C10.2321 37.3396 9.99414 37.08 9.99414 36.4742V33.6619ZM14.6453 35.9767V31.3688H11.357V35.9767H14.6453Z" fill="#410EAD"/>
<path d="M5.68867 37.3395H3.52534C2.94124 37.3395 2.68164 37.0799 2.68164 36.4958V32.8398C2.68164 32.2557 2.94124 32.0177 3.52534 31.9961H7.852C8.45773 31.9961 8.6957 32.2557 8.6957 32.8614V36.4526C8.6957 37.1016 8.45772 37.3395 7.80873 37.3395H5.68867ZM7.31117 35.9766V33.359H4.0229V35.9766H7.31117Z" fill="#410EAD"/>
<path d="M3.35352 5.29979V4.02344H12.0068V5.29979H3.35352Z" fill="#410EAD"/>
<path d="M3.35352 7.9619V6.68555H12.0068V7.9619H3.35352Z" fill="#410EAD"/>
<path d="M3.35352 10.6437V9.3457H9.30268V10.6437H3.35352Z" fill="#410EAD"/>
<path d="M3.35352 13.3037V12.0273H9.30268V13.3037H3.35352Z" fill="#410EAD"/>
</g>
<defs>
<clipPath id="clip0_1206_643">
<rect width="40" height="40" fill="white"/>
</clipPath>
</defs>
</svg>
