<svg width="40" height="40" viewBox="0 0 40 40" fill="none" xmlns="http://www.w3.org/2000/svg">
<path d="M28.1344 0C28.4486 0.0802122 28.7628 0.147058 29.0702 0.247323C30.0624 0.566581 30.9285 1.19068 31.5454 2.03077C32.1623 2.87087 32.4984 3.88414 32.506 4.92637C32.506 9.99311 32.506 15.0598 32.506 20.1266C32.5001 20.7871 32.3623 21.4398 32.1007 22.0463C31.8391 22.6529 31.459 23.2011 30.9827 23.6587C30.5064 24.1164 29.9434 24.4742 29.3269 24.7114C28.7104 24.9485 28.0527 25.0601 27.3925 25.0396C21.4746 25.0396 15.5612 25.0396 9.6522 25.0396C9.36818 25.0282 9.09063 25.1263 8.87682 25.3136C6.73782 27.0961 4.5877 28.8898 2.42642 30.6945C2.18507 30.9087 1.91229 31.0845 1.61762 31.2159C1.45051 31.2726 1.27325 31.2931 1.09762 31.2759C0.921993 31.2588 0.752022 31.2045 0.599007 31.1166C0.445992 31.0287 0.313441 30.9093 0.210161 30.7662C0.106881 30.6231 0.0352379 30.4597 0 30.2868V4.37825C0.0301039 4.32285 0.0547303 4.26464 0.0735283 4.20446C0.212733 3.30281 0.598588 2.45724 1.18843 1.76123C1.77826 1.06522 2.5491 0.545896 3.4157 0.260689C3.72987 0.147055 4.08414 0.0868966 4.37825 0H28.1344ZM2.49995 27.3189L2.84753 27.0315C4.45846 25.6946 6.07608 24.3578 7.67364 23.0209C8.06767 22.6782 8.57531 22.4947 9.0974 22.5062H27.1919C29.0101 22.5062 30.0127 21.4969 30.0127 19.672V5.33411C30.0127 3.50929 29.0101 2.49995 27.1919 2.49995H5.31406C3.50929 2.49995 2.49995 3.50928 2.49995 5.30069V27.359V27.3189Z" fill="#959817"/>
<path d="M37.5195 36.1473V35.6794C37.5195 28.8948 37.5195 22.1035 37.5195 15.3189C37.5459 14.9616 37.4991 14.6026 37.382 14.2639C37.2649 13.9253 37.0799 13.6141 36.8384 13.3494C36.5969 13.0847 36.3039 12.8721 35.9773 12.7246C35.6508 12.5771 35.2976 12.4977 34.9393 12.4914C34.7751 12.4882 34.6133 12.4516 34.4637 12.3838C34.314 12.3161 34.1798 12.2186 34.0691 12.0972C33.9584 11.9759 33.8736 11.8333 33.8198 11.6781C33.766 11.523 33.7443 11.3585 33.7562 11.1947C33.7718 10.8654 33.9168 10.5557 34.1597 10.3329C34.4025 10.11 34.7236 9.99213 35.0529 10.0048C36.3129 10.0236 37.5199 10.515 38.4348 11.3816C39.3497 12.2481 39.9057 13.4267 39.9927 14.6839C39.9927 14.851 39.9927 15.0181 39.9927 15.1919V38.4802C40.0151 38.7015 39.9877 38.925 39.9125 39.1343C39.8374 39.3437 39.7163 39.5336 39.5582 39.69C39.3123 39.9023 38.9944 40.0123 38.6699 39.9974C38.3454 39.9825 38.0389 39.8438 37.8136 39.6098C36.0222 38.1794 34.2308 36.7556 32.4661 35.3118C32.2118 35.0939 31.885 34.9794 31.5503 34.9909C26.0647 34.9909 20.5791 34.9909 15.0935 34.9909C13.9365 35.0239 12.8049 34.6479 11.8977 33.929C10.9906 33.2102 10.3659 32.1945 10.1337 31.0605C9.99985 30.2389 9.95948 29.4047 10.0133 28.574C10.0423 28.2636 10.1912 27.9768 10.4284 27.7745C10.6656 27.5723 10.9723 27.4706 11.2834 27.4911C11.592 27.5006 11.886 27.6252 12.1074 27.8404C12.3288 28.0556 12.4617 28.3459 12.4799 28.6542C12.4799 28.9683 12.4799 29.2825 12.4799 29.59C12.4799 31.5017 13.4625 32.491 15.3608 32.491H32.1252C32.6466 32.4741 33.156 32.6503 33.5556 32.9856C34.7388 33.9549 35.9353 34.8974 37.1251 35.8465L37.5195 36.1473Z" fill="#959817"/>
<path d="M16.2563 10.007H8.83669C8.6273 10.0224 8.4174 9.9846 8.22658 9.89701C8.03576 9.80941 7.87022 9.67492 7.74542 9.50607C7.62062 9.33722 7.54061 9.13952 7.51286 8.93139C7.48511 8.72327 7.51052 8.5115 7.58672 8.31585C7.66706 8.0941 7.81047 7.90067 7.99929 7.75935C8.18812 7.61803 8.41413 7.53498 8.64953 7.52041C8.78091 7.51373 8.91253 7.51373 9.04391 7.52041C13.8477 7.52041 18.6538 7.52041 23.4621 7.52041C23.6421 7.50361 23.8234 7.50361 24.0035 7.52041C24.3106 7.57604 24.5856 7.74516 24.7738 7.99418C24.962 8.24319 25.0496 8.55387 25.0193 8.86452C24.989 9.17517 24.843 9.46306 24.6102 9.671C24.3774 9.87894 24.0749 9.99172 23.7628 9.98694C22.3792 9.98694 20.9955 9.98694 19.6186 9.98694L16.2563 10.007Z" fill="#959817"/>
<path d="M13.7984 12.5067C15.4361 12.5067 17.0804 12.5067 18.7181 12.5067C18.9273 12.4969 19.1356 12.5406 19.3232 12.6339C19.5108 12.7271 19.6714 12.8667 19.7899 13.0395C19.9084 13.2122 19.9808 13.4123 20.0003 13.6209C20.0198 13.8295 19.9857 14.0396 19.9012 14.2312C19.8081 14.4704 19.6414 14.6738 19.4251 14.812C19.2088 14.9502 18.9542 15.016 18.698 14.9999H14.6874C12.6821 14.9999 10.7503 14.9999 8.78513 14.9999C8.45361 14.9999 8.13568 14.8683 7.90127 14.6338C7.66685 14.3994 7.53516 14.0815 7.53516 13.75C7.53516 13.4185 7.66685 13.1005 7.90127 12.8661C8.13568 12.6317 8.45361 12.5 8.78513 12.5L13.7984 12.5067Z" fill="#959817"/>
</svg>
