<svg width="41" height="42" viewBox="0 0 41 42" fill="none" xmlns="http://www.w3.org/2000/svg">
<path d="M2.208 40.6382C2.04922 40.6427 1.89136 40.6126 1.74534 40.5498C1.59931 40.4871 1.46861 40.3933 1.36228 40.2749C1.2478 40.1655 1.15665 40.0338 1.09438 39.888C1.0321 39.7421 1 39.5851 1 39.4265C1 39.2678 1.0321 39.1108 1.09438 38.9649C1.15665 38.8191 1.2478 38.6875 1.36228 38.578L37.959 2.4569C38.1832 2.23188 38.4873 2.10547 38.8044 2.10547C38.9614 2.10547 39.1169 2.13651 39.2619 2.1968C39.407 2.2571 39.5388 2.34548 39.6498 2.4569C39.7608 2.56831 39.8489 2.70059 39.909 2.84616C39.9691 2.99173 40 3.14775 40 3.30532C40 3.46289 39.9691 3.61891 39.909 3.76449C39.8489 3.91006 39.7608 4.04233 39.6498 4.15375L3.05126 40.2749C2.82281 40.4953 2.52215 40.6247 2.20553 40.6388L2.208 40.6382Z" fill="#FC7754" stroke="#FC7754"/>
<path d="M30.833 17.6056C30.6718 17.5958 30.5105 17.6205 30.3595 17.6779C30.2086 17.7354 30.0715 17.8243 29.9574 17.9389C29.8432 18.0535 29.7546 18.191 29.6973 18.3425C29.6401 18.494 29.6155 18.6559 29.6252 18.8176V32.9994H13.5632C13.2451 33.0065 12.942 33.1365 12.717 33.3622C12.4921 33.588 12.3625 33.8922 12.3555 34.2114V36.3931C12.3552 36.998 12.4738 37.597 12.7043 38.1559C12.9349 38.7148 13.2729 39.2226 13.6991 39.6504C14.1253 40.0781 14.6314 40.4173 15.1883 40.6487C15.7452 40.8801 16.3421 40.9991 16.9449 40.9988H27.4507C28.0534 40.9991 28.6503 40.8801 29.2073 40.6487C29.7642 40.4173 30.2702 40.0781 30.6964 39.6504C31.1226 39.2226 31.4607 38.7148 31.6913 38.1559C31.9218 37.597 32.0404 36.998 32.0401 36.3931V18.8176C32.0191 18.5031 31.8851 18.2069 31.663 17.984C31.4409 17.7611 31.1458 17.6267 30.8324 17.6056H30.833ZM29.6252 36.3906C29.6268 36.6775 29.5716 36.9619 29.4629 37.2273C29.3542 37.4927 29.1942 37.7338 28.992 37.9367C28.7898 38.1396 28.5495 38.3003 28.2851 38.4094C28.0206 38.5184 27.7372 38.5738 27.4513 38.5723H16.825C16.5391 38.5738 16.2557 38.5184 15.9913 38.4094C15.7268 38.3003 15.4866 38.1396 15.2844 37.9367C15.0822 37.7338 14.9221 37.4927 14.8134 37.2273C14.7047 36.9619 14.6495 36.6775 14.6511 36.3906V35.4241H29.5072V36.3937L29.6252 36.3906Z" fill="#FC7754" stroke="#FC7754"/>
<path d="M13.5633 22.3343C13.4022 22.3441 13.2408 22.3194 13.0899 22.262C12.9389 22.2045 12.8019 22.1156 12.6877 22.001C12.5736 21.8864 12.4849 21.7489 12.4277 21.5974C12.3704 21.4459 12.3459 21.284 12.3556 21.1223V5.60697C12.3552 5.00197 12.4736 4.40282 12.7041 3.84377C12.9346 3.28472 13.2726 2.77675 13.6988 2.34888C14.1251 1.92102 14.6311 1.58166 15.1881 1.35021C15.7451 1.11876 16.3422 0.999756 16.945 1H27.4533C28.056 0.999756 28.6529 1.11872 29.2099 1.35009C29.7668 1.58147 30.2728 1.92071 30.699 2.34844C31.1252 2.77618 31.4633 3.284 31.6938 3.84291C31.9244 4.40181 32.0429 5.00083 32.0427 5.60574C32.0427 5.92719 31.9155 6.23547 31.689 6.46277C31.4625 6.69007 31.1553 6.81777 30.8349 6.81777C30.5146 6.81777 30.2074 6.69007 29.981 6.46277C29.7545 6.23547 29.6272 5.92719 29.6272 5.60574C29.6288 5.3188 29.5736 5.0344 29.4649 4.76901C29.3562 4.50361 29.1961 4.26248 28.9939 4.05958C28.7918 3.85668 28.5515 3.69604 28.287 3.58696C28.0226 3.47787 27.7392 3.42251 27.4533 3.42407H16.8245C16.5386 3.42251 16.2552 3.47787 15.9908 3.58696C15.7263 3.69604 15.4861 3.85668 15.2839 4.05958C15.0817 4.26248 14.9216 4.50361 14.8129 4.76901C14.7042 5.0344 14.649 5.3188 14.6506 5.60574V21.121C14.6741 21.2752 14.6632 21.4327 14.6186 21.5821C14.5741 21.7316 14.4971 21.8692 14.3932 21.9852C14.2892 22.1011 14.1609 22.1925 14.0175 22.2526C13.8741 22.3128 13.7192 22.3403 13.5639 22.3331L13.5633 22.3343Z" fill="#FC7754" stroke="#FC7754"/>
</svg>
