<svg width="31" height="40" viewBox="0 0 31 40" fill="none" xmlns="http://www.w3.org/2000/svg">
<path d="M30.0307 3.8093H27.7707V0.952325C27.7707 0.827213 27.7456 0.70333 27.6969 0.58775C27.6482 0.472169 27.5768 0.367157 27.4867 0.278718C27.3967 0.190278 27.2899 0.120144 27.1723 0.0723208C27.0547 0.0244975 26.9287 -7.90438e-05 26.8014 1.90979e-07H4.19739C3.94048 1.90979e-07 3.69409 0.100334 3.51243 0.278929C3.33076 0.457525 3.22871 0.699753 3.22871 0.952325V3.8093H0.96868C0.84142 3.8093 0.715405 3.83395 0.59784 3.88185C0.480275 3.92974 0.373461 3.99994 0.283503 4.08844C0.193545 4.17693 0.122211 4.28199 0.0735671 4.3976C0.0249228 4.51321 -8.04009e-05 4.63711 1.94222e-07 4.76222V39.0483C1.94222e-07 39.1733 0.0250552 39.2972 0.0737356 39.4127C0.122416 39.5283 0.193769 39.6332 0.283718 39.7217C0.373668 39.8101 0.480456 39.8803 0.597981 39.9281C0.715505 39.976 0.841472 40.0006 0.96868 40.0006H30.0307C30.158 40.0007 30.284 39.9761 30.4016 39.9283C30.5192 39.8805 30.6261 39.8103 30.7161 39.7219C30.8061 39.6335 30.8775 39.5284 30.9262 39.4129C30.9749 39.2973 31 39.1734 31 39.0483V4.76283C31 4.51009 30.8979 4.26772 30.7161 4.08901C30.5343 3.9103 30.2878 3.8099 30.0307 3.8099V3.8093ZM5.16667 1.90465H25.8327V3.8093H5.16667V1.90465ZM29.062 38.0954H1.93735V5.71394H29.062V38.0954Z" fill="#0057FF"/>
<path d="M8.71813 10.793H5.48882C5.36156 10.7929 5.23553 10.8175 5.11793 10.8653C5.00034 10.9131 4.89348 10.9832 4.80346 11.0717C4.71345 11.1601 4.64204 11.2651 4.59332 11.3807C4.5446 11.4963 4.51953 11.6202 4.51953 11.7453V14.9201C4.51945 15.0452 4.54444 15.1691 4.59309 15.2847C4.64173 15.4003 4.71308 15.5054 4.80303 15.5939C4.89299 15.6824 4.99981 15.7526 5.11737 15.8005C5.23494 15.8484 5.36094 15.873 5.4882 15.873H8.71752C8.97459 15.873 9.22114 15.7726 9.40292 15.5939C9.58469 15.4152 9.68681 15.1728 9.68681 14.9201V11.7453C9.68681 11.4927 9.58475 11.2505 9.40309 11.0719C9.22143 10.8933 8.97504 10.793 8.71813 10.793ZM7.74947 13.9678H6.45811V12.6982H7.74947V13.9678Z" fill="#0057FF"/>
<path d="M8.71813 18.4121H5.48882C5.36156 18.412 5.23553 18.4366 5.11793 18.4844C5.00034 18.5322 4.89348 18.6024 4.80346 18.6908C4.71345 18.7793 4.64204 18.8843 4.59332 18.9999C4.5446 19.1154 4.51953 19.2393 4.51953 19.3644V22.5392C4.51945 22.6644 4.54444 22.7883 4.59309 22.9039C4.64173 23.0195 4.71308 23.1245 4.80303 23.213C4.89299 23.3015 4.99981 23.3717 5.11737 23.4196C5.23494 23.4675 5.36094 23.4922 5.4882 23.4922H8.71752C8.97459 23.4922 9.22114 23.3918 9.40292 23.2131C9.58469 23.0344 9.68681 22.792 9.68681 22.5392V19.3644C9.68681 19.1119 9.58475 18.8696 9.40309 18.691C9.22143 18.5124 8.97504 18.4121 8.71813 18.4121ZM7.74947 21.5869H6.45811V20.3174H7.74947V21.5869Z" fill="#0057FF"/>
<path d="M8.71813 26.0313H5.48882C5.36151 26.0312 5.23543 26.0558 5.11779 26.1036C5.00016 26.1515 4.89327 26.2217 4.80325 26.3102C4.71323 26.3987 4.64183 26.5038 4.59315 26.6194C4.54446 26.7351 4.51945 26.859 4.51953 26.9842V30.159C4.51953 30.4116 4.62159 30.6538 4.80325 30.8324C4.98491 31.011 5.23129 31.1113 5.4882 31.1113H8.71752C8.84478 31.1114 8.97082 31.0868 9.08841 31.039C9.20601 30.9912 9.31287 30.921 9.40288 30.8326C9.4929 30.7442 9.56429 30.6391 9.61301 30.5236C9.66173 30.408 9.68681 30.2841 9.68681 30.159V26.9842C9.68681 26.7315 9.58477 26.4892 9.40312 26.3106C9.22148 26.1319 8.9751 26.0314 8.71813 26.0313ZM7.74947 29.2061H6.45811V27.9365H7.74947V29.2061Z" fill="#0057FF"/>
<path d="M25.5098 12.0625H11.9472C11.6903 12.0625 11.4439 12.1628 11.2622 12.3414C11.0806 12.52 10.9785 12.7622 10.9785 13.0148C10.9785 13.2674 11.0806 13.5096 11.2622 13.6882C11.4439 13.8668 11.6903 13.9671 11.9472 13.9671H25.5098C25.7667 13.9671 26.0131 13.8668 26.1948 13.6882C26.3765 13.5096 26.4785 13.2674 26.4785 13.0148C26.4785 12.7622 26.3765 12.52 26.1948 12.3414C26.0131 12.1628 25.7667 12.0625 25.5098 12.0625Z" fill="#0057FF"/>
<path d="M25.5098 19.6836H11.9472C11.6903 19.6836 11.4439 19.7839 11.2622 19.9625C11.0806 20.1411 10.9785 20.3833 10.9785 20.6359C10.9785 20.8885 11.0806 21.1307 11.2622 21.3093C11.4439 21.4879 11.6903 21.5882 11.9472 21.5882H25.5098C25.7667 21.5882 26.0131 21.4879 26.1948 21.3093C26.3765 21.1307 26.4785 20.8885 26.4785 20.6359C26.4785 20.3833 26.3765 20.1411 26.1948 19.9625C26.0131 19.7839 25.7667 19.6836 25.5098 19.6836Z" fill="#0057FF"/>
<path d="M25.5098 27.3008H11.9472C11.6903 27.3008 11.4439 27.4011 11.2622 27.5797C11.0806 27.7583 10.9785 28.0005 10.9785 28.2531C10.9785 28.5057 11.0806 28.7479 11.2622 28.9265C11.4439 29.1051 11.6903 29.2054 11.9472 29.2054H25.5098C25.7667 29.2054 26.0131 29.1051 26.1948 28.9265C26.3765 28.7479 26.4785 28.5057 26.4785 28.2531C26.4785 28.0005 26.3765 27.7583 26.1948 27.5797C26.0131 27.4011 25.7667 27.3008 25.5098 27.3008Z" fill="#0057FF"/>
</svg>
