<svg width="44" height="40" viewBox="0 0 44 40" fill="none" xmlns="http://www.w3.org/2000/svg">
<path d="M0.000835053 21.9807C0.000835053 16.8967 0.000835053 11.8038 0.000835053 6.71983C-0.0238918 5.15907 0.501228 3.6402 1.48251 2.43417C2.4638 1.22815 3.83742 0.413415 5.35834 0.135321C5.83057 0.0431369 6.31072 -0.00121635 6.79167 0.00292351C16.9415 0.00292351 27.0855 0.00292351 37.2237 0.00292351C38.1204 -0.0239448 39.0131 0.134621 39.8469 0.468877C40.6807 0.803133 41.4381 1.30603 42.0724 1.94666C42.7068 2.58729 43.2047 3.35213 43.5357 4.1942C43.8667 5.03628 44.0237 5.93781 43.9971 6.8434C43.9971 13.4102 43.9971 19.9742 43.9971 26.5351C44.0237 27.4361 43.8676 28.333 43.5384 29.1708C43.2092 30.0086 42.7138 30.7696 42.0827 31.4069C41.4516 32.0443 40.6981 32.5445 39.8685 32.877C39.0389 33.2095 38.1508 33.3671 37.2587 33.3403C28.9733 33.3403 20.6851 33.3403 12.3939 33.3403C11.9687 33.3243 11.5523 33.4655 11.2228 33.7375C8.70569 35.6616 6.17697 37.577 3.6366 39.4835C3.35976 39.7182 3.0296 39.8798 2.6757 39.954C2.32179 40.0281 1.95519 40.0125 1.60875 39.9084C1.26231 39.8043 0.946856 39.615 0.690641 39.3576C0.434427 39.1001 0.245456 38.7825 0.140669 38.4331C0.0593096 38.0984 0.0269194 37.7534 0.0445301 37.4092C-0.00790877 32.2811 0.000835053 27.1353 0.000835053 21.9807ZM4.37074 33.3226C4.59798 33.1726 4.73782 33.0843 4.86891 32.9784C6.32846 31.8839 7.79675 30.7983 9.23882 29.6685C9.86816 29.154 10.658 28.8818 11.4675 28.9006C19.9917 28.9006 28.5159 28.9006 37.0402 28.9006C37.3888 28.9488 37.7438 28.9149 38.0773 28.8016C38.4108 28.6882 38.7138 28.4985 38.9627 28.2472C39.2115 27.9959 39.3994 27.6898 39.5116 27.353C39.6239 27.0162 39.6574 26.6577 39.6097 26.3056V7.06406C39.6593 6.71161 39.627 6.35233 39.5154 6.01464C39.4038 5.67696 39.216 5.37013 38.9667 5.11841C38.7175 4.86668 38.4137 4.67697 38.0793 4.56428C37.7449 4.45158 37.3892 4.419 37.0402 4.46909C27.0506 4.46909 17.0697 4.46909 7.08009 4.46909C6.71429 4.42761 6.34393 4.46939 5.99622 4.59139C5.64851 4.71339 5.33227 4.91249 5.07073 5.17408C4.80919 5.43567 4.60899 5.75311 4.48483 6.10307C4.36068 6.45304 4.31572 6.82664 4.35326 7.19645C4.35326 15.6875 4.35326 24.1785 4.35326 32.6695L4.37074 33.3226Z" fill="#88E43F"/>
<path d="M12.0781 20.0204C11.4247 20.0187 10.7865 19.8213 10.2442 19.4532C9.70186 19.0852 9.27979 18.563 9.03134 17.9526C8.7829 17.3423 8.71923 16.6713 8.8484 16.0245C8.97757 15.3776 9.29377 14.784 9.75701 14.3186C10.2203 13.8533 10.8097 13.5371 11.4509 13.4101C12.0921 13.283 12.7562 13.3509 13.3592 13.605C13.9622 13.8591 14.477 14.2881 14.8386 14.8378C15.2002 15.3874 15.3922 16.033 15.3905 16.6928C15.3905 17.1313 15.3047 17.5655 15.138 17.9703C14.9713 18.3752 14.7271 18.7428 14.4193 19.0521C14.1114 19.3613 13.7462 19.606 13.3444 19.7722C12.9426 19.9384 12.5123 20.0227 12.0781 20.0204Z" fill="#88E43F"/>
<path d="M21.999 20.0204C21.3456 20.0204 20.7068 19.8248 20.1636 19.4581C19.6203 19.0915 19.1968 18.5705 18.9468 17.9608C18.6967 17.3512 18.6313 16.6803 18.7588 16.0331C18.8863 15.3859 19.2009 14.7915 19.6629 14.3249C20.125 13.8583 20.7136 13.5405 21.3545 13.4118C21.9953 13.283 22.6596 13.3491 23.2632 13.6016C23.8669 13.8541 24.3828 14.2818 24.7458 14.8304C25.1089 15.3791 25.3026 16.0242 25.3026 16.684C25.3038 17.1225 25.2191 17.5569 25.0535 17.9622C24.8879 18.3675 24.6446 18.7358 24.3376 19.0458C24.0306 19.3559 23.6659 19.6016 23.2646 19.7688C22.8632 19.9361 22.4331 20.0216 21.999 20.0204Z" fill="#88E43F"/>
<path d="M31.8926 20.0204C31.2392 20.0187 30.6009 19.8213 30.0586 19.4532C29.5163 19.0852 29.0942 18.563 28.8458 17.9526C28.5973 17.3423 28.5337 16.6713 28.6629 16.0245C28.792 15.3776 29.1082 14.784 29.5715 14.3186C30.0347 13.8533 30.6242 13.5371 31.2654 13.4101C31.9065 13.283 32.5706 13.3509 33.1736 13.605C33.7766 13.8591 34.2915 14.2881 34.653 14.8378C35.0146 15.3874 35.2067 16.033 35.2049 16.6928C35.2061 17.1317 35.1211 17.5663 34.9548 17.9717C34.7886 18.3771 34.5444 18.7452 34.2363 19.0547C33.9283 19.3641 33.5625 19.6088 33.1602 19.7746C32.7579 19.9404 32.327 20.0239 31.8926 20.0204Z" fill="#88E43F"/>
</svg>
