<svg width="40" height="40" viewBox="0 0 40 40" fill="none" xmlns="http://www.w3.org/2000/svg">
<path d="M34.5423 10.9633H6.27624C6.4321 11.1333 6.53836 11.2396 6.63754 11.3388C7.87019 12.5717 9.10994 13.8047 10.3355 15.0447C10.5256 15.2212 10.676 15.4362 10.7767 15.6754C10.8773 15.9145 10.9259 16.1724 10.9192 16.4318C10.9125 16.6912 10.8507 16.9462 10.7378 17.1798C10.625 17.4135 10.4637 17.6204 10.2647 17.7869C9.92428 18.0753 9.48825 18.2259 9.04245 18.2088C8.59666 18.1918 8.1734 18.0084 7.85603 17.6948C5.40016 15.2573 2.95373 12.8103 0.516757 10.3539C0.353112 10.193 0.22314 10.0011 0.134418 9.78939C0.0456968 9.57771 0 9.35047 0 9.12094C0 8.89141 0.0456968 8.66418 0.134418 8.45249C0.22314 8.24081 0.353112 8.04893 0.516757 7.88802C2.95846 5.42215 5.41669 2.96573 7.89145 0.518759C8.23152 0.183309 8.69089 -0.00327851 9.16851 4.36135e-05C9.64612 0.00336574 10.1029 0.196326 10.4382 0.536475C10.7736 0.876624 10.9601 1.3361 10.9568 1.81382C10.9535 2.29154 10.7606 2.74838 10.4205 3.08383C9.18077 4.36636 7.89853 5.62054 6.63754 6.88182L6.22665 7.31405H6.79339C15.9557 7.31405 25.118 7.31405 34.2802 7.31405C34.8843 7.28198 35.4869 7.39976 36.0344 7.6569C36.5819 7.91403 37.0574 8.30256 37.4185 8.78791C37.8759 9.37539 38.1251 10.0982 38.127 10.8428C38.127 12.7985 38.127 14.7542 38.127 16.7099C38.127 17.1872 37.9374 17.645 37.5999 17.9825C37.2625 18.32 36.8048 18.5096 36.3276 18.5096C35.8503 18.5096 35.3927 18.32 35.0552 17.9825C34.7178 17.645 34.5282 17.1872 34.5282 16.7099C34.5282 14.9597 34.5282 13.2165 34.5282 11.4734L34.5423 10.9633Z" fill="#C305D3"/>
<path d="M5.46989 29.0882H33.7502L33.3889 28.7126C32.1279 27.4514 30.8598 26.1901 29.6059 24.9147C29.3594 24.6849 29.1858 24.3879 29.1064 24.0605C29.0271 23.733 29.0456 23.3894 29.1596 23.0723C29.2545 22.7543 29.4383 22.47 29.6893 22.2528C29.9403 22.0356 30.2481 21.8947 30.5764 21.8465C30.8551 21.7861 31.1446 21.798 31.4174 21.8811C31.6902 21.9642 31.9372 22.1157 32.135 22.3212C34.5932 24.7658 37.0443 27.2034 39.4742 29.6621C39.6407 29.8251 39.7729 30.0197 39.8632 30.2344C39.9534 30.4492 39.9999 30.6798 39.9999 30.9128C39.9999 31.1458 39.9534 31.3764 39.8632 31.5911C39.7729 31.8059 39.6407 32.0005 39.4742 32.1634C37.0231 34.6435 34.5554 37.1093 32.0712 39.561C31.7219 39.8627 31.2705 40.0192 30.8095 39.9985C30.3485 39.9778 29.9129 39.7814 29.5921 39.4496C29.2712 39.1179 29.0895 38.6759 29.0842 38.2143C29.0789 37.7528 29.2503 37.3067 29.5634 36.9676C30.8244 35.6851 32.1066 34.4167 33.3818 33.1413C33.5033 33.0441 33.6338 32.9587 33.7714 32.8862L33.6793 32.7232H33.1976C24.0542 32.7232 14.9061 32.7232 5.75325 32.7232C5.12743 32.7542 4.50383 32.6278 3.93948 32.3554C3.37514 32.0831 2.88808 31.6736 2.52284 31.1643C2.11229 30.6314 1.88381 29.9806 1.87109 29.3079C1.87109 27.4089 1.87109 25.5099 1.87109 23.6392C1.87109 23.1619 2.06067 22.7041 2.39812 22.3666C2.73557 22.029 3.19326 21.8394 3.67049 21.8394C4.14771 21.8394 4.6054 22.029 4.94285 22.3666C5.2803 22.7041 5.46989 23.1619 5.46989 23.6392C5.46989 25.2831 5.46989 26.927 5.46989 28.5993V29.0882Z" fill="#C305D3"/>
</svg>
