<svg width="56" height="40" viewBox="0 0 56 40" fill="none" xmlns="http://www.w3.org/2000/svg">
<path d="M48.3558 3.31315V3.14207H36.8343V15.193H48.3558V13.444C48.3558 13.027 48.5141 12.6271 48.7959 12.3322C49.0776 12.0373 49.4598 11.8717 49.8583 11.8717C50.2567 11.8717 50.6389 12.0373 50.9206 12.3322C51.2024 12.6271 51.3607 13.027 51.3607 13.444V16.7653C51.3611 16.9719 51.3224 17.1766 51.247 17.3675C51.1716 17.5584 51.061 17.7319 50.9214 17.878C50.7819 18.0241 50.6161 18.1399 50.4336 18.2188C50.2512 18.2977 50.0557 18.3381 49.8583 18.3377H35.3267C35.1295 18.3381 34.9342 18.2978 34.7519 18.219C34.5696 18.1403 34.404 18.0247 34.2644 17.8789C34.1249 17.7332 34.0142 17.56 33.9387 17.3694C33.8631 17.1788 33.8242 16.9744 33.8242 16.7681V1.5724C33.8239 1.36581 33.8625 1.16119 33.9379 0.970257C34.0133 0.779325 34.1239 0.60584 34.2635 0.459759C34.4031 0.313678 34.5689 0.197865 34.7513 0.118971C34.9337 0.0400783 35.1293 -0.000355378 35.3267 2.35311e-06H49.8583C50.0557 -0.000355378 50.2512 0.0400783 50.4336 0.118971C50.6161 0.197865 50.7819 0.313678 50.9214 0.459759C51.061 0.60584 51.1716 0.779325 51.247 0.970257C51.3224 1.16119 51.3611 1.36581 51.3607 1.5724V3.31315C51.3607 3.73017 51.2024 4.13012 50.9206 4.425C50.6389 4.71988 50.2567 4.88554 49.8583 4.88554C49.4598 4.88554 49.0776 4.71988 48.7959 4.425C48.5141 4.13012 48.3558 3.73017 48.3558 3.31315Z" fill="#FFC603"/>
<path d="M55.8003 4.57585C55.6009 4.21521 55.2729 3.95214 54.8882 3.84444C54.5036 3.73675 54.0939 3.79324 53.749 4.00147L43.8883 9.97599L42.0355 7.30103C41.7981 6.97333 41.4473 6.75604 41.0586 6.69576C40.6698 6.63549 40.274 6.73703 39.9559 6.9786C39.6379 7.22017 39.4229 7.58255 39.3571 7.98804C39.2914 8.39352 39.38 8.80982 39.6041 9.1477L42.2522 12.97C42.4706 13.2851 42.7928 13.5042 43.1566 13.585C43.5204 13.6658 43.9 13.6024 44.2217 13.4073L55.2502 6.72125C55.5948 6.51255 55.8461 6.16924 55.949 5.76672C56.0519 5.3642 55.998 4.93539 55.799 4.57448L55.8003 4.57585Z" fill="#FFC603"/>
<path d="M48.3558 24.7389V24.5679H36.8343V36.6187H48.3558V34.8698C48.3558 34.4528 48.5141 34.0529 48.7959 33.758C49.0776 33.4631 49.4598 33.2975 49.8583 33.2975C50.2567 33.2975 50.6389 33.4631 50.9206 33.758C51.2024 34.0529 51.3607 34.4528 51.3607 34.8698V38.1911C51.3611 38.3977 51.3224 38.6023 51.247 38.7933C51.1716 38.9842 51.061 39.1577 50.9214 39.3038C50.7819 39.4499 50.6161 39.5657 50.4336 39.6446C50.2512 39.7235 50.0557 39.7639 49.8583 39.7635H35.3267C35.1295 39.7639 34.9342 39.7235 34.7519 39.6448C34.5696 39.5661 34.404 39.4505 34.2644 39.3047C34.1249 39.1589 34.0142 38.9858 33.9387 38.7952C33.8631 38.6045 33.8242 38.4002 33.8242 38.1939V22.9982C33.8239 22.7916 33.8625 22.587 33.9379 22.396C34.0133 22.2051 34.1239 22.0316 34.2635 21.8855C34.4031 21.7395 34.5689 21.6236 34.7513 21.5448C34.9337 21.4659 35.1293 21.4254 35.3267 21.4258H49.8583C50.0557 21.4254 50.2512 21.4659 50.4336 21.5448C50.6161 21.6236 50.7819 21.7395 50.9214 21.8855C51.061 22.0316 51.1716 22.2051 51.247 22.396C51.3224 22.587 51.3611 22.7916 51.3607 22.9982V24.7389C51.3607 25.156 51.2024 25.5559 50.9206 25.8508C50.6389 26.1457 50.2567 26.3113 49.8583 26.3113C49.4598 26.3113 49.0776 26.1457 48.7959 25.8508C48.5141 25.5559 48.3558 25.156 48.3558 24.7389Z" fill="#FFC603"/>
<path d="M55.8003 26.0016C55.6009 25.641 55.2729 25.3779 54.8882 25.2702C54.5036 25.1625 54.0939 25.219 53.749 25.4273L43.8883 31.4018L42.0355 28.7268C41.7981 28.3991 41.4473 28.1818 41.0586 28.1215C40.6698 28.0613 40.274 28.1628 39.9559 28.4044C39.6379 28.646 39.4229 29.0083 39.3571 29.4138C39.2914 29.8193 39.38 30.2356 39.6041 30.5735L42.2522 34.3958C42.4706 34.7109 42.7928 34.93 43.1566 35.0108C43.5204 35.0915 43.9 35.0282 44.2217 34.8331L55.2502 28.147C55.5948 27.9383 55.8461 27.595 55.949 27.1925C56.0519 26.79 55.998 26.3612 55.799 26.0003L55.8003 26.0016Z" fill="#FFC603"/>
<path d="M21.4673 22.8295C23.5419 21.2732 25.0898 19.0668 25.8874 16.5293C26.6849 13.9917 26.6907 11.2544 25.904 8.71319C25.1172 6.17194 23.5786 3.95835 21.5107 2.39244C19.4427 0.826519 16.9524 -0.0105966 14.4 0.00209534C11.8475 0.0147873 9.36497 0.876635 7.31131 2.46305C5.25765 4.04946 3.73924 6.27824 2.97559 8.82721C2.21194 11.3762 2.2426 14.1132 3.06316 16.6428C3.88371 19.1723 5.45165 21.3632 7.54029 22.8988C2.38288 26.345 0.344562 33.3881 0.00722176 37.6464C-0.0155213 37.931 0.0155768 38.2175 0.0987663 38.4896C0.181956 38.7616 0.315599 39.0138 0.492028 39.2318C0.668456 39.4497 0.884214 39.6291 1.12696 39.7597C1.36971 39.8902 1.63467 39.9694 1.90669 39.9927C1.96508 39.9927 2.02348 39.9995 2.08446 39.9995C2.60567 39.9993 3.10773 39.7938 3.49089 39.424C3.87404 39.0542 4.11027 38.5471 4.15262 38.0035C4.19414 37.4821 5.26973 25.2098 14.4635 25.2071C23.9662 25.2071 25.0456 37.4766 25.0872 37.9953C25.1302 38.5702 25.3897 39.1037 25.8085 39.4785C26.2274 39.8532 26.7714 40.0384 27.3207 39.9934C27.8701 39.9484 28.3799 39.6768 28.7379 39.2384C29.096 38.8001 29.273 38.2308 29.23 37.6558C28.9082 33.3623 26.831 26.2554 21.4673 22.8295ZM14.4609 4.3628C16.0193 4.3628 17.5428 4.84643 18.8386 5.75254C20.1343 6.65864 21.1442 7.94652 21.7406 9.45332C22.337 10.9601 22.4931 12.6181 22.189 14.2178C21.885 15.8174 21.1346 17.2867 20.0326 18.44C18.9306 19.5932 17.5266 20.3786 15.9981 20.6968C14.4697 21.0149 12.8854 20.8517 11.4456 20.2275C10.0058 19.6034 8.77521 18.5464 7.9094 17.1903C7.04359 15.8343 6.58145 14.2399 6.58145 12.609C6.58145 10.422 7.41161 8.32453 8.8893 6.77807C10.367 5.23161 12.3712 4.3628 14.4609 4.3628Z" fill="#FFC603"/>
</svg>
