<svg width="40" height="40" viewBox="0 0 40 40" fill="none" xmlns="http://www.w3.org/2000/svg">
<path d="M6.95575 0.0305835H7.73881C7.7958 0.058306 7.85517 0.0808244 7.91622 0.0978634C8.48029 0.227172 8.98749 0.535188 9.36229 0.976035C9.73709 1.41688 9.95943 1.96698 9.99621 2.54439C10.0214 3.11346 9.86241 3.67549 9.54282 4.14706C9.22323 4.61863 8.76007 4.97461 8.2221 5.16218C8.00798 5.24781 7.99575 5.37013 7.99575 5.55362C7.99575 6.48942 7.99575 7.42522 7.99575 8.36102C7.99575 8.63625 8.09974 8.69129 8.34445 8.75857C9.09899 8.93768 9.84085 9.16652 10.5652 9.4436C11.1009 9.71109 11.6162 10.0177 12.1068 10.361C13.3303 9.29681 14.6089 8.22645 15.8569 7.14387C15.9535 7.0473 16.0121 6.91922 16.0221 6.783C16.141 5.24597 16.7411 3.7854 17.737 2.6085C18.733 1.4316 20.0743 0.598126 21.5708 0.226306C21.9072 0.140677 22.2498 0.0733959 22.5863 0H24.0729C24.1299 0.0277225 24.1892 0.0502409 24.2503 0.0672799C25.7944 0.257964 27.2379 0.93416 28.3726 1.9983C29.5074 3.06244 30.2746 4.4595 30.5637 5.98788C30.5824 6.05731 30.6155 6.12204 30.6608 6.17788C30.7061 6.23372 30.7627 6.27943 30.8267 6.31205C32.3317 7.05212 33.8427 7.78608 35.3599 8.49558C35.4378 8.52184 35.5203 8.53212 35.6022 8.52581C35.6842 8.51951 35.7641 8.49675 35.8371 8.45888C36.3697 8.12472 36.9972 7.97432 37.6234 8.03073C38.0765 8.07851 38.5097 8.24206 38.8813 8.50565C39.2529 8.76923 39.5504 9.12398 39.7451 9.53577C39.9399 9.94756 40.0254 10.4025 39.9934 10.8569C39.9615 11.3113 39.8131 11.7498 39.5625 12.1303C39.312 12.5107 38.9677 12.8203 38.5629 13.0293C38.158 13.2383 37.7062 13.3395 37.2509 13.3234C36.7956 13.3073 36.3521 13.1743 35.963 12.9372C35.574 12.7001 35.2525 12.3669 35.0296 11.9696C34.8435 11.6315 34.7305 11.2581 34.6978 10.8735C34.6652 10.489 34.7136 10.1019 34.8399 9.73719L30.6738 7.73104C30.4291 9.89621 30.062 10.7158 28.294 12.7709C28.294 12.7709 28.294 12.8259 28.294 12.8443C29.3748 14.2959 30.4617 15.7434 31.5547 17.1869C31.6524 17.2754 31.7779 17.3273 31.9096 17.3337C32.3745 17.3887 32.8517 17.3826 33.3105 17.4682C35.092 17.8215 36.6792 18.8225 37.7654 20.2777C38.8517 21.7329 39.3599 23.539 39.1917 25.347C39.0236 27.155 38.1911 28.8365 36.8551 30.0665C35.5192 31.2965 33.7746 31.9878 31.9585 32.0067C30.7541 32.0153 29.5669 31.7205 28.5063 31.1498C27.4457 30.579 26.5459 29.7505 25.8898 28.7406C25.7919 28.5999 25.7002 28.447 25.6023 28.288C24.7458 28.9302 23.9322 29.5113 23.1552 30.1596C23.1078 30.2083 23.072 30.2673 23.0508 30.332C23.0296 30.3966 23.0235 30.4653 23.0329 30.5327C23.1185 31.2177 23.2654 31.8905 23.3265 32.5755C23.3254 32.6882 23.3596 32.7983 23.4243 32.8905C23.4891 32.9827 23.5811 33.0522 23.6875 33.0893C25.119 33.7703 26.5464 34.4594 27.9698 35.1566C28.0619 35.218 28.1714 35.2476 28.2819 35.241C28.3923 35.2343 28.4975 35.1918 28.5816 35.1199C29.1058 34.7896 29.7304 34.6562 30.3439 34.7438C30.9573 34.8314 31.5196 35.1342 31.9304 35.598C32.3412 36.0619 32.5737 36.6567 32.5863 37.2761C32.5989 37.8955 32.3909 38.4992 31.9993 38.9794C31.6078 39.4596 31.0583 39.785 30.4489 39.8975C29.8395 40.01 29.21 39.9023 28.6727 39.5935C28.1355 39.2848 27.7255 38.7951 27.5161 38.212C27.3066 37.6289 27.3113 36.9904 27.5293 36.4105L23.2042 34.3187C22.8097 36.0191 21.822 37.5234 20.4182 38.5614C19.0145 39.5994 17.2867 40.1032 15.5449 39.9824C11.5868 39.5665 9.42727 37.1934 8.66257 33.3401H5.60375C5.50493 33.322 5.40294 33.3432 5.31952 33.3992C5.2361 33.4551 5.17785 33.5415 5.15717 33.6398C5.02017 33.9888 4.81076 34.3049 4.54273 34.5672C4.2747 34.8295 3.95413 35.032 3.60214 35.1614C3.25015 35.2909 2.87472 35.3443 2.50059 35.3181C2.12645 35.292 1.7621 35.1869 1.43153 35.0098C1.06839 34.8052 0.753989 34.5243 0.51001 34.1863C0.266031 33.8484 0.0982884 33.4616 0.0183568 33.0526V32.2697C0.0464962 32.2101 0.0710083 32.1488 0.0917654 32.0862C0.217174 31.5219 0.523031 31.0137 0.963054 30.6386C1.40308 30.2636 1.95333 30.042 2.53053 30.0074C3.10774 29.9729 3.6805 30.1272 4.16215 30.4471C4.6438 30.767 5.00811 31.2351 5.19999 31.7804C5.24204 31.8433 5.29827 31.8954 5.36415 31.9326C5.43003 31.9698 5.50372 31.991 5.57929 31.9945C6.50305 31.9945 7.41458 31.9945 8.35057 31.9945C8.66869 31.9945 8.72986 31.8783 8.77881 31.603C8.93958 30.3002 9.46119 29.0681 10.2848 28.0458C11.1085 27.0235 12.2014 26.2515 13.4404 25.817C14.6722 25.3093 16.0239 25.1656 17.3349 25.403C18.6459 25.6404 19.8613 26.249 20.8367 27.1565C21.4264 27.7299 21.9762 28.343 22.4823 28.9914C23.2225 28.4409 23.9934 27.8476 24.7886 27.2788C24.8937 27.2216 24.9727 27.1261 25.0092 27.0122C25.0456 26.8983 25.0367 26.7747 24.9844 26.6672C24.5292 25.0908 24.6205 23.4068 25.2436 21.8889C25.8667 20.371 26.9848 19.1084 28.4164 18.3062C28.9853 18.0107 29.5693 17.7452 30.166 17.511L27.2173 13.5905C26.2069 14.2226 25.0555 14.5942 23.8661 14.6721C22.6767 14.75 21.4866 14.5318 20.4023 14.037C19.305 13.5633 18.3408 12.8276 17.5942 11.8945C16.8476 10.9614 16.3414 9.85943 16.12 8.68518L13.0061 11.3458C13.9575 12.5228 14.5311 13.9597 14.6517 15.4682C14.6927 15.6246 14.7854 15.7626 14.9148 15.8596C15.9609 16.6853 17.0131 17.4866 18.0531 18.3062C18.1295 18.3905 18.2349 18.4431 18.3482 18.4533C18.4616 18.4635 18.5747 18.4306 18.6649 18.3612C18.9481 18.1837 19.2646 18.0661 19.595 18.0156C19.9253 17.9651 20.2626 17.9828 20.5858 18.0676C21.106 18.1867 21.5783 18.4593 21.9415 18.8501C22.3048 19.2409 22.5421 19.7319 22.6227 20.2592C22.7033 20.7866 22.6235 21.326 22.3936 21.8074C22.1637 22.2889 21.7944 22.6901 21.3335 22.959C20.8727 23.2279 20.3416 23.3521 19.8093 23.3155C19.2769 23.2788 18.7679 23.083 18.3483 22.7535C17.9286 22.4239 17.6178 21.9759 17.4561 21.4675C17.2943 20.9591 17.2892 20.4139 17.4414 19.9025C17.4829 19.8095 17.4877 19.7042 17.4548 19.6077C17.4218 19.5113 17.3537 19.4309 17.264 19.3826C16.6522 18.9422 16.1138 18.4896 15.5388 18.0432L14.56 17.3275C14.4988 17.5539 14.456 17.7251 14.407 17.9025C13.9987 19.39 13.1321 20.7112 11.93 21.6783C10.728 22.6454 9.25182 23.2092 7.71104 23.2898C6.17026 23.3704 4.64325 22.9636 3.34689 22.1271C2.05052 21.2907 1.0507 20.0672 0.489412 18.6303C0.269178 18.0187 0.159058 17.4071 0 16.7526V15.2663C0.0298988 15.197 0.0544427 15.1254 0.0734133 15.0523C0.274847 13.5995 0.907022 12.2403 1.8884 11.1501C2.86978 10.0599 4.15535 9.28873 5.57929 8.93595C5.91576 8.85032 6.26446 8.79527 6.63763 8.72188C6.63763 7.6821 6.63763 6.65456 6.63763 5.62702C6.65245 5.52774 6.62915 5.42652 6.57241 5.34371C6.51568 5.26089 6.4297 5.20259 6.33175 5.18053C5.98272 5.04442 5.66661 4.83568 5.40441 4.56814C5.1422 4.30061 4.93988 3.98039 4.81088 3.62873C4.68187 3.27708 4.62912 2.90202 4.65612 2.52843C4.68313 2.15484 4.78928 1.79126 4.96752 1.4618C5.17168 1.09048 5.45608 0.769349 5.80002 0.521767C6.14395 0.274185 6.53878 0.106387 6.95575 0.0305835ZM20.1331 37.0282C21.791 35.701 22.4823 32.8447 21.6319 30.6122C21.183 29.4079 20.3592 28.3795 19.2817 27.6785C18.2043 26.9775 16.9301 26.6409 15.647 26.7183C14.3638 26.7957 13.1394 27.283 12.154 28.1084C11.1687 28.9338 10.4745 30.0538 10.1736 31.3033C9.91947 32.3414 9.95628 33.4295 10.28 34.448C10.6038 35.4665 11.202 36.3762 12.0089 37.0772C12.0089 36.9426 12.0089 36.8325 12.0089 36.7163C12.0079 36.4482 12.0611 36.1826 12.1651 35.9355C12.2691 35.6884 12.422 35.4648 12.6144 35.278C12.8069 35.0913 13.035 34.9454 13.2852 34.8488C13.5354 34.7523 13.8025 34.7072 14.0706 34.7162C15.3736 34.7162 16.6767 34.7162 17.9797 34.7162C18.3007 34.7037 18.6194 34.7756 18.9039 34.9248C19.1884 35.074 19.4287 35.2952 19.6009 35.5664C19.8269 36.0346 20.0052 36.5243 20.1331 37.0282ZM11.3482 20.4102C12.1849 19.6763 12.795 18.7193 13.107 17.6512C13.4191 16.5831 13.4201 15.4482 13.1101 14.3795C12.75 13.0972 11.9735 11.9711 10.9028 11.1787C9.83206 10.3863 8.52808 9.97254 7.19628 10.0027C5.86448 10.0328 4.58057 10.5051 3.54682 11.3452C2.51307 12.1852 1.78826 13.3452 1.48658 14.6425C0.874822 17.089 2.04329 19.505 3.32188 20.3979C3.32188 20.3062 3.32188 20.2328 3.32188 20.1594C3.30391 19.8844 3.34351 19.6087 3.43816 19.3498C3.53281 19.091 3.68042 18.8547 3.87156 18.6561C4.0627 18.4576 4.29316 18.301 4.54823 18.1965C4.80331 18.092 5.07737 18.0419 5.35293 18.0493C6.6621 17.9942 7.98351 17.9881 9.29268 18.0493C10.6019 18.1104 11.2748 18.9117 11.3176 20.2144C11.336 20.2695 11.3421 20.3307 11.3482 20.4102ZM36.039 29.077C36.8924 28.3214 37.5071 27.3336 37.808 26.2344C38.109 25.1351 38.0831 23.9721 37.7336 22.8873C37.3381 21.6397 36.5454 20.5555 35.4765 19.8002C34.4075 19.0448 33.1207 18.6595 31.8124 18.7032C30.5041 18.7468 29.2459 19.217 28.2297 20.0419C27.2135 20.8669 26.4949 22.0014 26.1835 23.2726C25.5717 25.7191 26.6973 28.1657 27.9882 29.0587C27.9882 28.9241 27.9882 28.7956 27.9882 28.6672C27.9897 28.1566 28.192 27.6672 28.5514 27.3044C28.9108 26.9417 29.3985 26.7348 29.9091 26.7283C31.31 26.6672 32.7171 26.6733 34.118 26.7283C34.6212 26.7473 35.0973 26.9606 35.4464 27.3233C35.7955 27.686 35.9904 28.1699 35.99 28.6733C36.0267 28.8079 36.0267 28.9302 36.039 29.077ZM27.407 11.7372C28.2941 10.9303 28.9161 9.87393 29.1913 8.70691C29.4664 7.53989 29.3819 6.31692 28.9486 5.19887C28.4789 3.98729 27.6284 2.96091 26.5251 2.27406C25.4218 1.58721 24.1253 1.27702 22.8305 1.39013C21.5358 1.50323 20.3127 2.03352 19.3453 2.90125C18.3778 3.76899 17.7183 4.92728 17.4658 6.20195C17.0009 8.5078 18.0776 10.8259 19.3317 11.7066C19.3317 11.5904 19.3317 11.4926 19.3317 11.3886C19.3259 11.1233 19.3738 10.8595 19.4725 10.6131C19.5712 10.3668 19.7187 10.1429 19.9061 9.95493C20.0935 9.76698 20.317 9.61885 20.5631 9.51942C20.8092 9.41999 21.0729 9.37132 21.3383 9.37633C22.7331 9.3274 24.1259 9.3274 25.5166 9.37633C25.9122 9.39188 26.2921 9.53488 26.5997 9.78399C26.9073 10.0331 27.1261 10.375 27.2235 10.7586C27.3115 11.0792 27.3728 11.4065 27.407 11.7372V11.7372ZM32.0503 28.0311C31.4385 28.0311 30.8267 28.0311 30.215 28.0311C29.6032 28.0311 29.3708 28.3002 29.3585 28.8935C29.3585 29.181 29.3585 29.4684 29.3585 29.7559C29.3436 29.8504 29.365 29.947 29.4183 30.0264C29.4716 30.1058 29.553 30.1621 29.646 30.1841C31.0538 30.7901 32.6394 30.8382 34.0813 30.3186C34.6931 30.0984 34.6931 30.0923 34.6931 29.4134V28.9424C34.6931 28.3308 34.4361 28.0433 33.7999 28.0311C33.1637 28.0189 32.6192 28.0311 32.038 28.0311H32.0503ZM7.35951 19.3643C6.74775 19.3643 6.13599 19.3643 5.48752 19.3643C4.83905 19.3643 4.68611 19.6334 4.67387 20.1839C4.67387 20.4836 4.67387 20.7955 4.67387 21.083C4.66041 21.1772 4.68235 21.2732 4.73544 21.3522C4.78854 21.4313 4.86903 21.4879 4.9614 21.5111C6.38165 22.1234 7.98324 22.165 9.43339 21.6273C10.0146 21.4194 10.0084 21.4071 10.0084 20.7772V20.2695C10.0084 19.6579 9.76374 19.3704 9.12139 19.3582C8.47904 19.3459 7.9468 19.3643 7.35951 19.3643ZM16.0221 36.0435H14.2296C13.6179 36.0435 13.3548 36.282 13.3426 36.9059C13.3578 37.1789 13.3578 37.4525 13.3426 37.7255C13.326 37.8329 13.3509 37.9426 13.4123 38.0323C13.4736 38.1221 13.5668 38.1851 13.6729 38.2087C15.1142 38.8059 16.7293 38.8299 18.1877 38.276C18.5548 38.1414 18.7628 37.9824 18.6894 37.5603C18.674 37.3261 18.674 37.0912 18.6894 36.857C18.7037 36.7457 18.6921 36.6325 18.6555 36.5264C18.6189 36.4204 18.5582 36.3242 18.4783 36.2454C18.3983 36.1666 18.3012 36.1074 18.1945 36.0724C18.0879 36.0374 17.9746 36.0275 17.8635 36.0435H16.0221ZM23.3632 10.6974C22.7515 10.6974 22.1397 10.6974 21.4912 10.6974C20.8428 10.6974 20.7204 10.9604 20.7021 11.4987C20.7021 11.8106 20.7021 12.1103 20.7021 12.4345C20.6906 12.5231 20.7124 12.6127 20.7633 12.6862C20.8141 12.7596 20.8904 12.8116 20.9774 12.832C22.3741 13.4349 23.9468 13.4895 25.3821 12.985C26.0489 12.7587 26.0489 12.7525 26.0489 12.0369V11.6455C26.0489 10.9299 25.8103 10.6975 25.0823 10.6913L23.3632 10.6974ZM2.71012 34.0251C3.0622 34.0202 3.39793 33.8757 3.64344 33.6234C3.88896 33.371 4.02416 33.0315 4.01929 32.6795C4.01442 32.3275 3.86988 31.9919 3.61748 31.7464C3.36508 31.5009 3.02549 31.3658 2.67341 31.3706C2.49908 31.373 2.32692 31.4097 2.16678 31.4787C2.00664 31.5476 1.86165 31.6474 1.74008 31.7723C1.61851 31.8973 1.52275 32.045 1.45826 32.2069C1.39378 32.3689 1.36182 32.5419 1.36423 32.7162C1.36664 32.8905 1.40337 33.0626 1.47231 33.2227C1.54125 33.3828 1.64106 33.5278 1.76603 33.6493C1.89101 33.7709 2.03871 33.8666 2.20069 33.9311C2.36268 33.9956 2.53578 34.0275 2.71012 34.0251V34.0251ZM7.36563 4.01842C7.71352 4.01848 8.04752 3.88201 8.29579 3.63837C8.54406 3.39474 8.68675 3.0634 8.69316 2.71565C8.69479 2.35983 8.55538 2.01784 8.30545 1.76452C8.05551 1.5112 7.7154 1.36717 7.35951 1.36394C7.0106 1.36553 6.67634 1.5044 6.42905 1.75049C6.18176 1.99659 6.04132 2.33013 6.03811 2.67895C6.03404 2.85288 6.06469 3.02588 6.12827 3.18782C6.19186 3.34977 6.2871 3.49741 6.40843 3.62213C6.52975 3.74685 6.67474 3.84613 6.83489 3.91417C6.99504 3.98222 7.16715 4.01766 7.34116 4.01842H7.36563ZM21.3628 20.716C21.3676 20.451 21.2934 20.1906 21.1496 19.968C21.0058 19.7454 20.7988 19.5707 20.5553 19.4662C20.3117 19.3617 20.0425 19.3322 19.782 19.3813C19.5215 19.4305 19.2816 19.5561 19.0929 19.7422C18.9042 19.9282 18.7752 20.1663 18.7224 20.426C18.6696 20.6857 18.6955 20.9553 18.7966 21.2002C18.8977 21.4452 19.0695 21.6545 19.2902 21.8014C19.5108 21.9482 19.7702 22.0261 20.0352 22.0249C20.3804 22.0201 20.71 21.8805 20.9535 21.6359C21.197 21.3913 21.3351 21.0611 21.3383 20.716H21.3628ZM28.7039 37.3585C28.7016 37.6205 28.7768 37.8773 28.9201 38.0966C29.0635 38.3159 29.2685 38.4878 29.5094 38.5909C29.7503 38.6939 30.0164 38.7233 30.274 38.6754C30.5316 38.6275 30.7693 38.5045 30.9571 38.3218C31.1449 38.1392 31.2745 37.905 31.3294 37.6489C31.3844 37.3927 31.3623 37.126 31.2659 36.8824C31.1695 36.6388 31.0032 36.4292 30.7879 36.2799C30.5726 36.1306 30.3179 36.0483 30.0559 36.0435C29.8786 36.0361 29.7017 36.0646 29.5357 36.1273C29.3697 36.1901 29.2181 36.2858 29.0901 36.4086C28.9621 36.5315 28.8602 36.679 28.7907 36.8422C28.7212 37.0055 28.6854 37.1811 28.6856 37.3585H28.7039ZM37.3787 9.37633C37.1972 9.36399 37.0151 9.38907 36.8437 9.45003C36.6723 9.51099 36.5153 9.60652 36.3824 9.73069C36.2494 9.85486 36.1435 10.005 36.071 10.1719C35.9985 10.3387 35.9611 10.5186 35.9611 10.7005C35.9611 10.8824 35.9985 11.0623 36.071 11.2292C36.1435 11.396 36.2494 11.5462 36.3824 11.6703C36.5153 11.7945 36.6723 11.89 36.8437 11.951C37.0151 12.0119 37.1972 12.037 37.3787 12.0247C37.7274 12.0249 38.0625 11.8899 38.3135 11.648C38.5646 11.4062 38.7119 11.0764 38.7246 10.728C38.728 10.5486 38.6949 10.3703 38.6274 10.2039C38.5599 10.0376 38.4593 9.88669 38.3318 9.76033C38.2043 9.63398 38.0524 9.53479 37.8854 9.46879C37.7185 9.40278 37.5399 9.37133 37.3604 9.37633H37.3787Z" fill="#FF03B8"/>
<path d="M16.1391 28.0477C16.8359 28.0892 17.4883 28.4033 17.9551 28.9221C18.4219 29.4409 18.6656 30.1227 18.6335 30.8198C18.6013 31.5169 18.2958 32.1733 17.7832 32.6469C17.2706 33.1206 16.592 33.3733 15.8944 33.3505C15.5429 33.339 15.1972 33.2578 14.8774 33.1117C14.5576 32.9655 14.27 32.7572 14.0313 32.499C13.7926 32.2408 13.6077 31.9378 13.4871 31.6075C13.3665 31.2772 13.3128 30.9263 13.329 30.5751C13.3452 30.2239 13.431 29.8794 13.5815 29.5616C13.732 29.2439 13.9441 28.9592 14.2055 28.724C14.4669 28.4889 14.7725 28.308 15.1044 28.1919C15.4364 28.0758 15.788 28.0268 16.1391 28.0477ZM14.6831 30.7083C14.6847 31.0571 14.8236 31.3913 15.0697 31.6385C15.3159 31.8858 15.6495 32.0262 15.9984 32.0294C16.3538 32.0278 16.6943 31.8863 16.9461 31.6357C17.198 31.385 17.341 31.0452 17.3443 30.6899C17.3395 30.3405 17.1977 30.007 16.9494 29.7611C16.7011 29.5151 16.3662 29.3765 16.0167 29.3749C15.8409 29.3724 15.6664 29.4052 15.5035 29.4714C15.3405 29.5375 15.1925 29.6356 15.0682 29.7599C14.9439 29.8842 14.8457 30.0322 14.7796 30.1951C14.7134 30.358 14.6806 30.5325 14.6831 30.7083Z" fill="#FF03B8"/>
<path d="M7.34091 16.6845C6.99254 16.6861 6.64727 16.619 6.32487 16.487C6.00247 16.355 5.70928 16.1607 5.46209 15.9153C5.21489 15.6698 5.01855 15.3781 4.8843 15.0567C4.75006 14.7353 4.68055 14.3905 4.67975 14.0422C4.67612 13.5152 4.82909 12.9991 5.11929 12.5591C5.40948 12.1192 5.82382 11.7753 6.30975 11.5711C6.79568 11.3669 7.33133 11.3116 7.84874 11.4122C8.36616 11.5128 8.84205 11.7647 9.21606 12.1361C9.59007 12.5074 9.84536 12.9814 9.94953 13.498C10.0537 14.0146 10.0021 14.5505 9.80122 15.0378C9.60036 15.525 9.25928 15.9416 8.82127 16.2348C8.38325 16.528 7.86802 16.6845 7.34091 16.6845ZM7.34091 15.3511C7.68878 15.3495 8.02213 15.2115 8.26925 14.9667C8.51637 14.722 8.65752 14.39 8.66233 14.0422C8.65916 13.6874 8.51718 13.3479 8.26678 13.0964C8.01638 12.8449 7.67746 12.7014 7.32256 12.6966C6.97416 12.7014 6.64146 12.8423 6.39565 13.0892C6.14984 13.3361 6.01044 13.6694 6.00728 14.0178C6.00393 14.1943 6.03633 14.3697 6.10256 14.5334C6.16878 14.6971 6.26744 14.8457 6.39261 14.9702C6.51777 15.0948 6.66685 15.1928 6.83087 15.2582C6.9949 15.3237 7.17048 15.3553 7.34704 15.3511H7.34091Z" fill="#FF03B8"/>
<path d="M32.0144 25.3583C31.4878 25.3571 30.9734 25.1997 30.5363 24.9061C30.0993 24.6124 29.7591 24.1958 29.559 23.7088C29.3589 23.2218 29.3078 22.6864 29.4122 22.1704C29.5165 21.6544 29.7717 21.1809 30.1453 20.8099C30.519 20.4389 30.9943 20.1871 31.5111 20.0863C32.028 19.9855 32.5631 20.0403 33.0488 20.2437C33.5345 20.4472 33.9489 20.7901 34.2396 21.2291C34.5302 21.6681 34.6841 22.1835 34.6817 22.7099C34.6768 23.414 34.3937 24.0876 33.894 24.5837C33.3943 25.0799 32.7186 25.3583 32.0144 25.3583ZM32.0144 24.0249C32.1903 24.0274 32.3649 23.9948 32.5281 23.9292C32.6913 23.8636 32.8398 23.7662 32.965 23.6428C33.0902 23.5193 33.1896 23.3721 33.2575 23.2099C33.3254 23.0477 33.3603 22.8736 33.3603 22.6977C33.3572 22.3492 33.2191 22.0155 32.9749 21.7668C32.7307 21.5181 32.3995 21.3738 32.0511 21.3643C31.7132 21.3821 31.3946 21.5277 31.16 21.7715C30.9254 22.0153 30.7923 22.3392 30.7876 22.6775C30.7829 23.0158 30.9071 23.3432 31.1349 23.5934C31.3627 23.8436 31.6771 23.9979 32.0144 24.0249Z" fill="#FF03B8"/>
<path d="M23.3328 8.01723C22.9834 8.01804 22.6373 7.94972 22.3144 7.81623C21.9915 7.68273 21.6982 7.48669 21.4514 7.23939C21.2047 6.99208 21.0092 6.69841 20.8765 6.37528C20.7437 6.05216 20.6761 5.70595 20.6778 5.35662C20.6753 4.8279 20.8302 4.3104 21.1226 3.86986C21.415 3.42932 21.8319 3.08564 22.3201 2.88247C22.8083 2.67931 23.346 2.62583 23.8647 2.72883C24.3834 2.83184 24.8597 3.08668 25.2332 3.46097C25.6068 3.83527 25.8606 4.31213 25.9624 4.83096C26.0642 5.34979 26.0095 5.88717 25.8052 6.37484C25.6008 6.8625 25.2561 7.27843 24.8148 7.56978C24.3735 7.86112 23.8555 8.01474 23.3267 8.0111L23.3328 8.01723ZM23.3328 6.68386C23.5082 6.68467 23.682 6.65074 23.8441 6.58402C24.0063 6.5173 24.1536 6.41911 24.2776 6.29514C24.4017 6.17116 24.4999 6.02385 24.5666 5.86172C24.6333 5.69958 24.6673 5.52583 24.6665 5.3505C24.6665 4.9985 24.5266 4.66091 24.2776 4.41201C24.0287 4.1631 23.691 4.02326 23.3389 4.02326C22.9869 4.02326 22.6492 4.1631 22.4002 4.41201C22.1513 4.66091 22.0114 4.9985 22.0114 5.3505C22.0081 5.52599 22.0401 5.70035 22.1056 5.86321C22.1711 6.02607 22.2686 6.1741 22.3925 6.2985C22.5163 6.4229 22.664 6.52112 22.8266 6.58732C22.9891 6.65353 23.1634 6.68635 23.3389 6.68386H23.3328Z" fill="#FF03B8"/>
</svg>
