<svg width="40" height="40" viewBox="0 0 40 40" fill="none" xmlns="http://www.w3.org/2000/svg">
<path d="M37.995 40H11.2775C9.69872 39.3418 9.32509 38.8153 9.32509 37.0515V21.8613H8.79884C7.00487 21.9096 5.24107 21.3928 3.75664 20.3837C2.2722 19.3747 1.14218 17.9245 0.526247 16.238C0.278911 15.5324 0.157874 14.7795 0 14.0529V12.4733C0 12.3364 0.0631475 12.1995 0.0841974 12.0574C0.388813 9.94489 1.46691 8.02093 3.1093 6.65885C4.75169 5.29677 6.84125 4.5937 8.9725 4.68606H9.37245V2.44307C9.3645 1.85231 9.56585 1.2778 9.9408 0.821375C10.3189 0.426781 10.7974 0.142806 11.3248 0H31.559C31.775 0.137712 31.9807 0.290801 32.1747 0.458077C34.6305 2.91519 37.0863 5.3723 39.5422 7.82941C39.7094 8.02349 39.8624 8.22937 40 8.44544V38.0677C39.9211 38.273 39.8526 38.4783 39.7632 38.6784C39.5873 39.018 39.3369 39.3133 39.0306 39.5422C38.7244 39.7711 38.3703 39.9276 37.995 40ZM30.5697 1.56378H30.3486H11.7984C11.6737 1.54786 11.547 1.56102 11.4282 1.60221C11.3094 1.6434 11.2017 1.71152 11.1136 1.80124C11.0254 1.89095 10.9592 1.99985 10.9201 2.11941C10.881 2.23897 10.87 2.36595 10.888 2.49045C10.888 3.196 10.888 3.90154 10.888 4.59655C10.8698 4.71725 10.9 4.84025 10.9719 4.93884C11.0439 5.03743 11.1518 5.10363 11.2722 5.12307C12.9795 5.69211 14.4645 6.78425 15.5168 8.24475C16.5691 9.70526 17.1354 11.46 17.1354 13.2605C17.1354 15.0609 16.5691 16.8157 15.5168 18.2762C14.4645 19.7367 12.9795 20.8289 11.2722 21.3979C11.1511 21.4174 11.0422 21.4832 10.9686 21.5814C10.895 21.6797 10.8623 21.8026 10.8775 21.9244C10.8775 27.0598 10.8775 32.1917 10.8775 37.32C10.8775 38.1677 11.1249 38.4152 11.9721 38.4152H37.2793C38.1266 38.4152 38.3739 38.1677 38.3739 37.32V9.36159H31.6906C30.8117 9.36159 30.5697 9.12465 30.5697 8.25589V1.56378ZM7.76214 6.30249C6.44754 6.44338 5.19957 6.95338 4.1623 7.77361C3.12504 8.59384 2.34077 9.69085 1.90004 10.938C1.45932 12.1852 1.3801 13.5316 1.67154 14.8219C1.96298 16.1121 2.6132 17.2936 3.54712 18.23C4.48104 19.1663 5.66058 19.8193 6.94958 20.1135C8.23858 20.4077 9.58446 20.3312 10.8319 19.8928C12.0793 19.4544 13.1773 18.672 13.9992 17.6358C14.8211 16.5997 15.3334 15.3521 15.4769 14.0371H8.8462C8.02 14.0371 7.76214 13.7844 7.76214 12.9841V6.31828V6.30249ZM15.498 12.447C15.1822 8.94037 12.0353 6.40779 9.34088 6.31828V12.447H15.498ZM37.1162 7.76622L32.1694 2.82217V7.78728L37.1162 7.76622Z" fill="#2B7788"/>
<path d="M32.2904 24.4313C31.9883 23.9856 31.8489 23.4494 31.8957 22.9129C31.9425 22.3764 32.1725 21.8725 32.5471 21.4858C32.9217 21.0991 33.418 20.8533 33.9524 20.7898C34.4869 20.7263 35.0269 20.8489 35.4816 21.137C35.9363 21.4252 36.278 21.8612 36.449 22.3718C36.6201 22.8824 36.6101 23.4363 36.4209 23.9405C36.2316 24.4446 35.8745 24.8681 35.4098 25.1397C34.945 25.4113 34.4009 25.5144 33.8691 25.4317C33.7919 25.4212 33.7133 25.4265 33.6382 25.4473C33.5631 25.4681 33.4931 25.504 33.4323 25.5528C31.701 27.3904 29.9801 29.2385 28.2593 31.0919C28.2593 31.1182 28.2172 31.155 28.1856 31.2024C28.4779 31.646 28.6111 32.1756 28.5637 32.7047C28.5162 33.2339 28.2908 33.7313 27.9243 34.1157C27.5578 34.5001 27.0719 34.7488 26.5458 34.8212C26.0198 34.8936 25.4848 34.7854 25.0281 34.5143C24.5633 34.2529 24.2039 33.8376 24.0118 33.3399C23.8198 32.8421 23.807 32.293 23.9757 31.7869C24.0289 31.6726 24.0448 31.5445 24.0212 31.4207C23.9976 31.2969 23.9356 31.1837 23.8441 31.0971C23.1705 30.2863 22.5127 29.4596 21.8602 28.633C21.8049 28.5591 21.7284 28.5039 21.641 28.4748C21.5535 28.4456 21.4592 28.4439 21.3707 28.4698C20.9253 28.5277 20.4742 28.5277 20.0288 28.4698C19.9341 28.4463 19.8347 28.4496 19.7418 28.4793C19.6489 28.5091 19.566 28.5641 19.5026 28.6382C18.7097 29.5158 17.9063 30.3933 17.0924 31.2709C17.0186 31.3343 16.9679 31.4202 16.9479 31.5154C16.9279 31.6106 16.9398 31.7097 16.9818 31.7974C17.1656 32.3103 17.1605 32.8719 16.9676 33.3815C16.7747 33.891 16.4066 34.315 15.9293 34.5774C15.4566 34.8476 14.904 34.9429 14.3682 34.8466C13.8324 34.7504 13.3474 34.4687 12.9982 34.0509C12.6353 33.6332 12.4355 33.0984 12.4355 32.5451C12.4355 31.9917 12.6353 31.4569 12.9982 31.0392C13.2815 30.6837 13.6674 30.4242 14.1034 30.2961C14.5394 30.168 15.0042 30.1774 15.4347 30.3231C15.5316 30.3672 15.6409 30.376 15.7437 30.3481C15.8464 30.3203 15.9363 30.2574 15.9978 30.1704C16.7924 29.2911 17.5765 28.4171 18.408 27.5378C18.4807 27.4736 18.53 27.387 18.5481 27.2917C18.5662 27.1964 18.5521 27.0977 18.508 27.0113C18.3433 26.5415 18.3353 26.031 18.4852 25.5563C18.6351 25.0817 18.9348 24.6684 19.3394 24.3787C19.7403 24.0828 20.2253 23.9231 20.7235 23.9231C21.2216 23.9231 21.7066 24.0828 22.1075 24.3787C22.5065 24.6725 22.7988 25.0885 22.9403 25.5636C23.0818 26.0386 23.0647 26.5468 22.8916 27.0113C22.854 27.1047 22.8439 27.2068 22.8626 27.3058C22.8812 27.4047 22.9278 27.4962 22.9968 27.5694C23.6862 28.4013 24.3598 29.2437 25.0334 30.0915C25.0818 30.1729 25.1579 30.2342 25.2478 30.2641C25.3376 30.2941 25.4352 30.2907 25.5228 30.2547C25.8361 30.1682 26.1627 30.1415 26.4859 30.1757C26.6015 30.2034 26.7227 30.1978 26.8353 30.1596C26.948 30.1214 27.0476 30.0521 27.1226 29.9598C28.7382 28.2065 30.3696 26.469 31.9904 24.7209L32.2904 24.4313ZM35.0163 23.115C35.0153 22.9619 34.9689 22.8126 34.883 22.6859C34.7971 22.5592 34.6757 22.4608 34.5339 22.4032C34.3922 22.3456 34.2365 22.3313 34.0867 22.3622C33.9368 22.3931 33.7995 22.4678 33.692 22.5767C33.5846 22.6857 33.5119 22.8241 33.483 22.9745C33.4542 23.1248 33.4706 23.2803 33.5301 23.4213C33.5896 23.5624 33.6896 23.6826 33.8173 23.7667C33.9451 23.8509 34.095 23.8953 34.248 23.8943C34.4514 23.8876 34.6446 23.803 34.7875 23.658C34.9305 23.513 35.0124 23.3186 35.0163 23.115ZM20.7392 25.4686C20.5356 25.4737 20.3415 25.5559 20.1959 25.6985C20.0504 25.8412 19.9644 26.0337 19.9551 26.2373C19.9541 26.3902 19.9983 26.5399 20.0823 26.6676C20.1662 26.7953 20.286 26.8954 20.4266 26.955C20.5673 27.0147 20.7224 27.0314 20.8726 27.003C21.0227 26.9746 21.161 26.9023 21.2701 26.7953C21.3792 26.6883 21.4543 26.5514 21.4857 26.4019C21.5172 26.2523 21.5036 26.0967 21.4469 25.9548C21.3901 25.8129 21.2926 25.691 21.1667 25.6045C21.0407 25.518 20.892 25.4707 20.7392 25.4686ZM14.8032 33.2717C14.9562 33.2706 15.1054 33.2242 15.2321 33.1383C15.3587 33.0524 15.457 32.9308 15.5146 32.789C15.5722 32.6472 15.5864 32.4915 15.5556 32.3415C15.5247 32.1916 15.4501 32.0542 15.3412 31.9467C15.2323 31.8392 15.0939 31.7664 14.9437 31.7376C14.7934 31.7087 14.638 31.7251 14.497 31.7846C14.3561 31.8442 14.2359 31.9442 14.1518 32.0721C14.0677 32.1999 14.0233 32.3499 14.0243 32.5029C14.031 32.7065 14.1156 32.8997 14.2605 33.0427C14.4054 33.1858 14.5997 33.2677 14.8032 33.2717ZM26.9753 32.4924C26.9742 32.3391 26.9277 32.1896 26.8416 32.0628C26.7555 31.936 26.6337 31.8376 26.4916 31.7802C26.3495 31.7227 26.1936 31.7088 26.0437 31.7401C25.8937 31.7714 25.7564 31.8466 25.6491 31.9561C25.5419 32.0656 25.4696 32.2045 25.4414 32.3552C25.4131 32.5058 25.4303 32.6615 25.4906 32.8024C25.5509 32.9433 25.6517 33.0632 25.7802 33.1467C25.9086 33.2303 26.059 33.2737 26.2122 33.2717C26.4134 33.2611 26.6032 33.175 26.7437 33.0305C26.8841 32.8861 26.965 32.6939 26.97 32.4924H26.9753Z" fill="#2B7788"/>
<path d="M28.5368 14.0519H22.9165C22.7869 14.0625 22.6566 14.0625 22.527 14.0519C22.3349 14.0359 22.1558 13.9483 22.0253 13.8064C21.8947 13.6645 21.8223 13.4786 21.8223 13.2858C21.8223 13.0929 21.8947 12.9071 22.0253 12.7652C22.1558 12.6232 22.3349 12.5356 22.527 12.5197C22.6566 12.5091 22.7869 12.5091 22.9165 12.5197H34.2413C34.8728 12.5197 35.2517 12.8145 35.2517 13.3042C35.2517 13.7939 34.8728 14.0834 34.2413 14.0834L28.5368 14.0519Z" fill="#2B7788"/>
<path d="M28.5421 17.1866H22.9165C22.7869 17.1972 22.6566 17.1972 22.527 17.1866C22.3349 17.1707 22.1558 17.083 22.0253 16.9411C21.8947 16.7992 21.8223 16.6134 21.8223 16.4205C21.8223 16.2277 21.8947 16.0418 22.0253 15.8999C22.1558 15.758 22.3349 15.6704 22.527 15.6544C22.6566 15.6438 22.7869 15.6438 22.9165 15.6544H34.2413C34.8728 15.6544 35.2517 15.9493 35.2517 16.4337C35.2517 16.9181 34.8728 17.2182 34.2413 17.2182L28.5421 17.1866Z" fill="#2B7788"/>
<path d="M24.086 6.23835C22.7757 6.23835 21.4548 6.23835 20.1444 6.23835C19.9145 6.25513 19.6858 6.19189 19.4972 6.05933C19.4054 5.96646 19.333 5.85626 19.2842 5.73513C19.2354 5.614 19.2112 5.48437 19.213 5.35379C19.3019 5.1076 19.4704 4.89819 19.6919 4.75882C19.857 4.68563 20.0393 4.6601 20.2181 4.68511H28.1802C28.3915 4.68086 28.5958 4.76043 28.7487 4.90643C28.9015 5.05243 28.9904 5.25301 28.9959 5.46436C28.9945 5.56898 28.9724 5.67229 28.9308 5.76829C28.8892 5.86429 28.829 5.95106 28.7536 6.02356C28.6782 6.09606 28.5891 6.15285 28.4916 6.19063C28.3941 6.2284 28.29 6.24642 28.1855 6.24362C27.5698 6.24362 26.9593 6.24362 26.3489 6.24362L24.086 6.23835Z" fill="#2B7788"/>
<path d="M24.1245 7.80265C25.4295 7.80265 26.7294 7.80265 28.0292 7.80265C28.2605 7.78884 28.4899 7.85176 28.6817 7.98167C28.7735 8.07454 28.8459 8.18475 28.8947 8.30587C28.9435 8.427 28.9677 8.55663 28.9659 8.68721C28.8781 8.93535 28.7094 9.14674 28.487 9.28745C28.3221 9.36119 28.1396 9.38675 27.9608 9.36116C25.3874 9.36116 22.8088 9.36116 20.2302 9.36116C20.1513 9.36116 20.0724 9.36116 19.9987 9.36116C19.7869 9.36543 19.582 9.28603 19.4283 9.14017C19.2746 8.9943 19.1846 8.79373 19.1777 8.58191C19.1791 8.47706 19.2014 8.37354 19.2434 8.27747C19.2854 8.1814 19.3462 8.09472 19.4222 8.02256C19.4983 7.95041 19.588 7.89424 19.6861 7.85737C19.7842 7.8205 19.8887 7.80369 19.9934 7.80792C20.567 7.80792 21.1354 7.80792 21.709 7.80792C22.5141 7.79739 23.3193 7.80265 24.1245 7.80265Z" fill="#2B7788"/>
<path d="M19.4927 12.4941C19.6469 12.4963 19.797 12.5442 19.924 12.6318C20.051 12.7194 20.1492 12.8427 20.206 12.9862C20.2629 13.1297 20.2758 13.2868 20.2433 13.4377C20.2108 13.5885 20.1342 13.7263 20.0233 13.8336C19.9124 13.9409 19.7721 14.0128 19.6203 14.0402C19.4685 14.0676 19.312 14.0493 19.1706 13.9876C19.0292 13.9259 18.9093 13.8236 18.8261 13.6936C18.7429 13.5637 18.7002 13.4119 18.7033 13.2576C18.7139 13.054 18.8013 12.8621 18.9477 12.7204C19.0942 12.5787 19.2889 12.4979 19.4927 12.4941Z" fill="#2B7788"/>
<path d="M19.4727 17.1854C19.3185 17.1844 19.168 17.1375 19.0404 17.0508C18.9128 16.9641 18.8138 16.8414 18.756 16.6983C18.6982 16.5552 18.6841 16.3981 18.7156 16.2471C18.7471 16.096 18.8228 15.9576 18.933 15.8496C19.0431 15.7416 19.1829 15.6687 19.3345 15.6403C19.4862 15.6119 19.6428 15.6291 19.7846 15.6898C19.9264 15.7506 20.047 15.8521 20.1311 15.9815C20.2151 16.1109 20.2589 16.2624 20.2568 16.4167C20.2488 16.6207 20.1632 16.814 20.0174 16.9569C19.8716 17.0998 19.6768 17.1816 19.4727 17.1854Z" fill="#2B7788"/>
<path d="M8.30545 18.7338C6.9271 18.6684 5.62396 18.0859 4.65556 17.1023C3.68717 16.1188 3.12457 14.8064 3.07982 13.4265C3.05217 13.2239 3.10102 13.0183 3.21683 12.8498C3.33264 12.6814 3.50709 12.5622 3.70605 12.5156C4.2323 12.405 4.60593 12.7736 4.64277 13.3896C4.67481 14.2404 4.98336 15.0575 5.5216 15.7169C5.86732 16.1509 6.30243 16.5054 6.79734 16.7562C7.29224 17.0069 7.83533 17.1481 8.38964 17.1701C8.56574 17.1574 8.74165 17.1971 8.89523 17.2842C9.04881 17.3714 9.17318 17.502 9.25269 17.6597C9.50529 18.2389 9.04745 18.7654 8.30545 18.7338Z" fill="#2B7788"/>
</svg>
