<svg width="40" height="40" viewBox="0 0 40 40" fill="none" xmlns="http://www.w3.org/2000/svg">
<path d="M18.8007 39.9995C18.2406 39.9284 17.6734 39.8716 17.1134 39.7792C14.4702 39.4088 11.9295 38.505 9.64471 37.1223C7.35996 35.7396 5.37869 33.9069 3.82072 31.7348L3.52296 31.3226C3.52296 31.55 3.52296 31.6779 3.52296 31.8129C3.52296 33.0068 3.52296 34.2078 3.52296 35.3661C3.52274 35.6347 3.45444 35.8988 3.32446 36.1336C3.23639 36.2738 3.10428 36.3806 2.94897 36.4372C2.79366 36.4938 2.62396 36.497 2.46664 36.4463C2.31837 36.42 2.18101 36.3508 2.07144 36.2473C1.96186 36.1437 1.88485 36.0104 1.84986 35.8636C1.80996 35.6864 1.79092 35.5051 1.79314 35.3235C1.79314 33.1916 1.79314 31.0597 1.79314 28.9278C1.79314 28.075 2.11217 27.7552 2.97707 27.7552H9.35756C9.53926 27.7511 9.72065 27.7726 9.89636 27.8192C10.0795 27.8704 10.2398 27.9826 10.3508 28.1374C10.4618 28.2922 10.5168 28.4802 10.5069 28.6705C10.497 28.8609 10.4227 29.0422 10.2963 29.1845C10.1698 29.3269 9.99875 29.4218 9.81128 29.4536C9.6438 29.468 9.47541 29.468 9.30794 29.4536H4.52966C4.89122 29.9866 5.17479 30.4485 5.50091 30.8749C7.01187 32.9145 8.93644 34.6105 11.1481 35.8512C13.3597 37.0919 15.8082 37.8493 18.3328 38.0736C22.7386 38.5 27.1481 37.299 30.7329 34.6963C34.3176 32.0936 36.8308 28.2683 37.8003 23.9391C38.0626 22.7523 38.1193 21.5229 38.2682 20.3077C38.2682 20.1656 38.2682 20.0235 38.2682 19.8814C38.2682 19.6533 38.3586 19.4346 38.5195 19.2733C38.6803 19.1121 38.8985 19.0215 39.126 19.0215C39.3536 19.0215 39.5717 19.1121 39.7326 19.2733C39.8935 19.4346 39.9839 19.6533 39.9839 19.8814C40.0052 20.2198 40.0052 20.5592 39.9839 20.8976C39.438 28.1887 36.028 33.689 29.7255 37.3772C27.2302 38.8206 24.4342 39.6624 21.5585 39.836C21.4462 39.8505 21.3349 39.8718 21.2253 39.9L18.8007 39.9995Z" fill="#2BB1FD"/>
<path d="M0 18.8311C0.0992519 18.0707 0.170141 17.3103 0.30484 16.557C0.780731 13.7098 1.87599 11.0026 3.51289 8.62733C5.14978 6.2521 7.28818 4.26713 9.77631 2.81332C13.0848 0.76917 16.9423 -0.201214 20.8216 0.0347382C23.8255 0.143428 26.7645 0.941887 29.412 2.36861C32.0595 3.79533 34.345 5.81222 36.0923 8.2639L36.4042 8.66186C36.4042 8.43445 36.4042 8.29943 36.4042 8.16441C36.4042 6.97765 36.4042 5.79089 36.4042 4.61123C36.4063 4.34153 36.4718 4.07613 36.5956 3.83664C36.6787 3.69318 36.8093 3.58339 36.9646 3.52628C37.12 3.46917 37.2904 3.46835 37.4463 3.52396C37.5957 3.54673 37.7348 3.61368 37.846 3.71624C37.9571 3.81879 38.0352 3.95227 38.0702 4.09958C38.1163 4.27336 38.1378 4.45277 38.134 4.63255C38.134 6.75972 38.134 8.89163 38.134 11.0283C38.134 11.8953 37.815 12.2079 36.9643 12.2079H30.5342C29.889 12.2079 29.5204 11.9237 29.4707 11.4191C29.4568 11.3122 29.4642 11.2036 29.4923 11.0996C29.5205 10.9955 29.5689 10.8981 29.6348 10.8128C29.7007 10.7276 29.7828 10.6563 29.8763 10.6031C29.9698 10.5498 30.0729 10.5156 30.1797 10.5024C30.3472 10.4881 30.5155 10.4881 30.683 10.5024C32.1009 10.5024 33.5188 10.5024 34.8871 10.5024H35.4471C35.2982 10.2395 35.1919 10.0405 35.0643 9.85573C33.7135 7.80747 31.9552 6.06094 29.8996 4.7256C27.8441 3.39026 25.5355 2.49488 23.1186 2.09558C19.0754 1.364 14.9041 2.0309 11.2886 3.98697C7.67298 5.94304 4.82753 9.07225 3.21859 12.8617C2.30466 14.9803 1.80642 17.2555 1.75109 19.563C1.75109 19.6554 1.75109 19.7478 1.75109 19.8402C1.75109 20.4797 1.51005 20.8066 1.04215 20.899C0.574244 20.9914 0.28358 20.7782 0.0141819 20.1884L0 18.8311Z" fill="#2BB1FD"/>
<path d="M19.143 10.4445C19.143 10.1247 19.143 9.86179 19.143 9.60596C19.143 9.37791 19.2334 9.1592 19.3943 8.99794C19.5552 8.83669 19.7734 8.74609 20.0009 8.74609C20.2284 8.74609 20.4466 8.83669 20.6074 8.99794C20.7683 9.1592 20.8587 9.37791 20.8587 9.60596C20.8587 9.86179 20.8587 10.1247 20.8587 10.3948C21.3337 10.4445 21.7945 10.4445 22.234 10.5369C23.0257 10.7045 23.7603 11.0757 24.3656 11.6139C24.9709 12.1521 25.4261 12.8389 25.6866 13.6068C25.7346 13.7106 25.7614 13.823 25.7652 13.9373C25.769 14.0516 25.7498 14.1656 25.7088 14.2723C25.6678 14.3791 25.6058 14.4765 25.5265 14.5587C25.4471 14.6409 25.3521 14.7063 25.247 14.751C25.038 14.8428 24.8015 14.8488 24.5881 14.7678C24.3747 14.6867 24.2015 14.5251 24.1056 14.3175C23.876 13.8668 23.5978 13.4426 23.2762 13.0525C22.983 12.7219 22.6099 12.4725 22.1927 12.3281C21.7756 12.1838 21.3284 12.1493 20.8941 12.2282V19.1569C21.635 19.09 22.3808 19.2082 23.0649 19.5009C23.7491 19.7935 24.3502 20.2516 24.8146 20.834C25.6635 21.8761 26.1086 23.1902 26.0683 24.5349C26.0279 25.8796 25.5047 27.1646 24.5948 28.1536C24.1237 28.6614 23.5423 29.0537 22.8957 29.3001C22.249 29.5466 21.5545 29.6406 20.8658 29.5748C20.8658 29.8733 20.8658 30.1291 20.8658 30.385C20.8745 30.5023 20.8592 30.6202 20.821 30.7314C20.7828 30.8427 20.7224 30.945 20.6434 31.0321C20.5645 31.1192 20.4687 31.1892 20.3619 31.238C20.2551 31.2868 20.1395 31.3133 20.0221 31.3159C19.9018 31.3161 19.7826 31.2916 19.6721 31.2438C19.5616 31.196 19.462 31.126 19.3796 31.038C19.2972 30.9501 19.2336 30.8461 19.193 30.7326C19.1523 30.619 19.1353 30.4983 19.143 30.3779C19.143 30.1291 19.143 29.8804 19.143 29.6104C18.7374 29.6057 18.3325 29.5748 17.9308 29.518C17.1134 29.3708 16.3496 29.0092 15.717 28.4699C15.0844 27.9307 14.6056 27.233 14.3293 26.448C14.2738 26.3433 14.2403 26.2283 14.231 26.11C14.2216 25.9918 14.2365 25.8729 14.2748 25.7607C14.3131 25.6484 14.374 25.5453 14.4536 25.4576C14.5333 25.3699 14.63 25.2995 14.7379 25.2508C14.8458 25.2021 14.9625 25.1761 15.0808 25.1744C15.1991 25.1727 15.3165 25.1954 15.4258 25.241C15.535 25.2866 15.6337 25.3542 15.7158 25.4396C15.7979 25.525 15.8617 25.6263 15.9032 25.7374C16.133 26.1842 16.4086 26.6057 16.7256 26.9952C17.0182 27.3287 17.3923 27.58 17.8112 27.7246C18.2301 27.8691 18.6793 27.9018 19.1147 27.8196V20.898C18.374 20.9636 17.6286 20.8448 16.9446 20.5522C16.2607 20.2597 15.6595 19.8023 15.1942 19.2209C14.3508 18.214 13.9044 16.9323 13.9394 15.6179C13.9406 14.701 14.1722 13.7992 14.6129 12.9957C15.0416 12.1877 15.6843 11.514 16.4703 11.0485C17.2832 10.5896 18.2124 10.3796 19.143 10.4445ZM19.143 12.2069C18.5601 12.1209 17.9649 12.2191 17.4402 12.4878C16.9154 12.7566 16.4873 13.1825 16.2151 13.7063C15.8258 14.361 15.6426 15.1182 15.6894 15.8788C15.7362 16.6395 16.0108 17.3684 16.4774 17.9701C16.7796 18.3811 17.1866 18.7028 17.6556 18.9016C18.1247 19.1005 18.6385 19.169 19.143 19.1001V12.2069ZM20.9083 27.7769C21.4807 27.8667 22.0667 27.7787 22.5877 27.5246C23.1086 27.2705 23.5394 26.8625 23.8221 26.3557C24.2076 25.6883 24.3883 24.9219 24.3416 24.1521C24.295 23.3824 24.023 22.6435 23.5598 22.0279C23.2622 21.6183 22.856 21.3005 22.3873 21.1108C21.9186 20.9211 21.4062 20.8671 20.9083 20.9548V27.7769Z" fill="#2BB1FD"/>
</svg>
