<svg width="40" height="40" viewBox="0 0 40 40" fill="none" xmlns="http://www.w3.org/2000/svg">
<path d="M39.9687 17.3859V18.3251C39.9351 18.3911 39.9105 18.4613 39.8955 18.5338C39.7857 19.1079 39.5335 19.6453 39.162 20.097C38.7905 20.5486 38.3116 20.9 37.769 21.1191C37.2264 21.3381 36.6375 21.4178 36.0561 21.3508C35.4747 21.2838 34.9194 21.0724 34.441 20.7357C34.3794 20.7045 34.3114 20.6883 34.2424 20.6883C34.1734 20.6883 34.1054 20.7045 34.0439 20.7357C32.8945 21.4036 31.7659 22.0924 30.6374 22.8228C30.5841 22.8596 30.5396 22.9076 30.5071 22.9636C30.4745 23.0195 30.4548 23.0819 30.4493 23.1464C30.4493 25.8388 30.4493 28.5207 30.4493 31.2132C30.4497 31.2724 30.4641 31.3306 30.4914 31.3832C30.5186 31.4358 30.5579 31.4812 30.6061 31.5158C31.8077 32.2672 33.0199 32.9872 34.232 33.7282L34.4932 33.5403C34.9245 33.2461 35.4161 33.0517 35.9321 32.9712C36.4482 32.8908 36.9757 32.9263 37.4763 33.0753C37.9768 33.2243 38.4378 33.4829 38.8256 33.8323C39.2134 34.1818 39.5182 34.6132 39.7179 35.0952C39.8328 35.377 39.906 35.6901 40 35.9823V36.9215L39.9059 37.2137C39.7894 37.7688 39.5378 38.2867 39.1733 38.7217C38.8088 39.1567 38.3427 39.4954 37.8161 39.7078C37.5495 39.807 37.2774 39.8907 37.001 39.9582H36.071H35.9979C35.0763 39.8118 34.2501 39.3071 33.6999 38.5543C33.1498 37.8014 32.9203 36.8618 33.0617 35.9405C33.0634 35.8937 33.055 35.8471 33.037 35.8038C33.0189 35.7606 32.9917 35.7218 32.9572 35.6901C32.1735 35.1996 31.3793 34.73 30.5225 34.2082V34.6569C30.5225 35.9197 30.5225 37.1719 30.5225 38.4346C30.5684 38.7543 30.5086 39.0802 30.352 39.3628C30.1955 39.6454 29.9508 39.8691 29.6552 40H0.856844C0.478582 39.8254 0.174861 39.522 0 39.1443V0.855726C0.174861 0.477958 0.478582 0.174633 0.856844 0H20.209C20.4739 0.180512 20.7286 0.375611 20.9718 0.584396C23.9603 3.58292 26.9523 6.58144 29.9477 9.57996C30.1113 9.73565 30.2404 9.92377 30.3267 10.1322C30.4131 10.3407 30.4549 10.5649 30.4493 10.7905C30.4493 13.7542 30.4493 16.718 30.4493 19.6817V20.1513C31.3062 19.6295 32.1108 19.1599 32.8945 18.659C32.9676 18.659 32.9885 18.4399 32.9676 18.3355C32.858 17.4721 33.0729 16.5987 33.5707 15.8843C34.0685 15.1699 34.8139 14.6652 35.6627 14.4679C36.5115 14.2705 37.4035 14.3946 38.166 14.816C38.9286 15.2374 39.5075 15.9262 39.791 16.7493C39.8537 16.958 39.906 17.1771 39.9687 17.3859ZM2.3511 2.35847V37.5476H28.0878C28.0878 35.9823 28.0878 34.4169 28.0878 32.9246C28.0615 32.7971 27.9865 32.6848 27.8788 32.6115C26.4786 31.7454 25.0575 30.9001 23.6991 30.0443C23.6284 29.982 23.5373 29.9476 23.4431 29.9476C23.3488 29.9476 23.2577 29.982 23.187 30.0443C22.6551 30.4229 22.0218 30.6337 21.3689 30.6496C20.6272 30.6794 19.8951 30.4736 19.2778 30.0619C18.6605 29.6502 18.1898 29.0536 17.9332 28.358C17.6766 27.6623 17.6475 26.9034 17.8498 26.1901C18.0522 25.4769 18.4757 24.846 19.0596 24.3882C19.6475 23.9145 20.3749 23.6467 21.13 23.6259C21.8851 23.6052 22.6262 23.8327 23.2393 24.2734C23.3118 24.3319 23.4021 24.3637 23.4953 24.3637C23.5885 24.3637 23.6788 24.3319 23.7513 24.2734C25.1411 23.4281 26.5308 22.5828 27.931 21.7584C28.0295 21.7123 28.1102 21.6354 28.1611 21.5394C28.212 21.4434 28.2303 21.3335 28.2132 21.2262V11.7402H20.2821C19.2372 11.7402 18.8506 11.3018 18.8506 10.3105C18.8506 7.80589 18.8506 5.30133 18.8506 2.79677V2.34803L2.3511 2.35847ZM21.0763 9.36082H26.3009L21.0763 4.14297V9.36082ZM28.0669 24.3256L27.7743 24.4926C26.8025 25.077 25.8412 25.6718 24.8694 26.2353C24.7701 26.2751 24.6898 26.3513 24.6451 26.4484C24.6004 26.5455 24.5946 26.6559 24.629 26.7571C24.6708 27.0268 24.6708 27.3014 24.629 27.5711C24.602 27.6556 24.6087 27.7472 24.6476 27.8269C24.6865 27.9066 24.7547 27.9682 24.838 27.999L27.8056 29.7939C27.8932 29.8419 27.984 29.8837 28.0773 29.9191L28.0669 24.3256ZM36.4263 19.0243C36.5786 19.027 36.73 18.9998 36.8718 18.9441C37.0136 18.8885 37.143 18.8054 37.2527 18.6998C37.3623 18.5942 37.45 18.468 37.5109 18.3285C37.5717 18.189 37.6044 18.0389 37.6071 17.8868C37.6099 17.573 37.4885 17.2709 37.2693 17.0461C37.0501 16.8213 36.7509 16.6922 36.4368 16.6867C36.1297 16.6971 35.838 16.8236 35.6208 17.0405C35.4035 17.2575 35.2769 17.5488 35.2665 17.8555C35.2651 18.0103 35.2943 18.1639 35.3523 18.3075C35.4104 18.4511 35.4962 18.5819 35.6049 18.6924C35.7136 18.8029 35.843 18.8909 35.9857 18.9514C36.1284 19.0119 36.2817 19.0438 36.4368 19.0451L36.4263 19.0243ZM21.1599 28.3016C21.4667 28.2908 21.7575 28.1622 21.9717 27.9425C22.1858 27.7228 22.3068 27.429 22.3093 27.1224C22.3065 26.8142 22.182 26.5196 21.9628 26.3026C21.7437 26.0857 21.4476 25.964 21.139 25.964C20.8286 25.964 20.5309 26.0871 20.3114 26.3063C20.092 26.5255 19.9686 26.8228 19.9686 27.1328C19.9686 27.4428 20.092 27.7401 20.3114 27.9593C20.5309 28.1785 20.8286 28.3016 21.139 28.3016H21.1599ZM37.6071 36.4206C37.6099 36.1123 37.4907 35.8155 37.2754 35.5947C37.0602 35.3738 36.7663 35.2468 36.4577 35.2413C36.1473 35.2413 35.8496 35.3645 35.6301 35.5837C35.4107 35.8028 35.2873 36.1001 35.2873 36.4101C35.2873 36.7201 35.4107 37.0174 35.6301 37.2366C35.8496 37.4558 36.1473 37.5789 36.4577 37.5789C36.7636 37.5736 37.0555 37.4498 37.2719 37.2337C37.4883 37.0176 37.6122 36.7261 37.6176 36.4206H37.6071Z" fill="#13CDD9"/>
<path d="M10.5328 21.1332H5.93509C5.77281 21.1485 5.60911 21.1299 5.45447 21.0784C5.29984 21.0269 5.15768 20.9437 5.03711 20.8342C4.91653 20.7246 4.82019 20.5911 4.75427 20.4422C4.68835 20.2934 4.6543 20.1324 4.6543 19.9696C4.6543 19.8068 4.68835 19.6458 4.75427 19.4969C4.82019 19.348 4.91653 19.2145 5.03711 19.105C5.15768 18.9954 5.29984 18.9123 5.45447 18.8608C5.60911 18.8093 5.77281 18.7906 5.93509 18.806H15.1409C15.3407 18.7922 15.5406 18.8303 15.7212 18.9165C15.9018 19.0028 16.057 19.1343 16.1716 19.2982C16.2863 19.462 16.3565 19.6528 16.3755 19.8518C16.3945 20.0509 16.3615 20.2514 16.2799 20.434C16.1834 20.6573 16.0202 20.8453 15.8126 20.9723C15.6049 21.0994 15.363 21.1592 15.12 21.1436L10.5328 21.1332Z" fill="#13CDD9"/>
<path d="M10.4921 16.3734H6.00939C5.84258 16.3957 5.67292 16.3822 5.51179 16.3337C5.35065 16.2851 5.20176 16.2028 5.0751 16.0921C4.94844 15.9814 4.84694 15.845 4.7774 15.6919C4.70785 15.5388 4.67188 15.3727 4.67188 15.2046C4.67188 15.0365 4.70785 14.8704 4.7774 14.7173C4.84694 14.5643 4.94844 14.4278 5.0751 14.3172C5.20176 14.2065 5.35065 14.1241 5.51179 14.0756C5.67292 14.0271 5.84258 14.0135 6.00939 14.0358H15.0898C15.2566 14.0135 15.4263 14.0271 15.5874 14.0756C15.7486 14.1241 15.8975 14.2065 16.0241 14.3172C16.1508 14.4278 16.2523 14.5643 16.3218 14.7173C16.3914 14.8704 16.4274 15.0365 16.4274 15.2046C16.4274 15.3727 16.3914 15.5388 16.3218 15.6919C16.2523 15.845 16.1508 15.9814 16.0241 16.0921C15.8975 16.2028 15.7486 16.2851 15.5874 16.3337C15.4263 16.3822 15.2566 16.3957 15.0898 16.3734H10.4921Z" fill="#13CDD9"/>
<path d="M10.5242 25.807H5.99962C5.83281 25.8293 5.66315 25.8158 5.50202 25.7672C5.34089 25.7187 5.192 25.6364 5.06534 25.5257C4.93868 25.415 4.83717 25.2786 4.76763 25.1255C4.69809 24.9724 4.66211 24.8063 4.66211 24.6382C4.66211 24.4701 4.69809 24.304 4.76763 24.1509C4.83717 23.9979 4.93868 23.8614 5.06534 23.7507C5.192 23.6401 5.34089 23.5577 5.50202 23.5092C5.66315 23.4607 5.83281 23.4471 5.99962 23.4694H15.0801C15.2469 23.4471 15.4166 23.4607 15.5777 23.5092C15.7388 23.5577 15.8877 23.6401 16.0144 23.7507C16.141 23.8614 16.2425 23.9979 16.3121 24.1509C16.3816 24.304 16.4176 24.4701 16.4176 24.6382C16.4176 24.8063 16.3816 24.9724 16.3121 25.1255C16.2425 25.2786 16.141 25.415 16.0144 25.5257C15.8877 25.6364 15.7388 25.7187 15.5777 25.7672C15.4166 25.8158 15.2469 25.8293 15.0801 25.807H10.5242Z" fill="#13CDD9"/>
<path d="M10.5428 30.4105H6.01829C5.8546 30.426 5.68948 30.4071 5.53352 30.3551C5.37756 30.3031 5.2342 30.2192 5.1126 30.1087C4.991 29.9981 4.89385 29.8635 4.82737 29.7133C4.7609 29.5631 4.72656 29.4007 4.72656 29.2365C4.72656 29.0723 4.7609 28.9099 4.82737 28.7597C4.89385 28.6096 4.991 28.4749 5.1126 28.3644C5.2342 28.2539 5.37756 28.1699 5.53352 28.1179C5.68948 28.066 5.8546 28.0471 6.01829 28.0625H15.0674C15.2326 28.0434 15.4 28.0594 15.5586 28.1093C15.7172 28.1593 15.8634 28.2422 15.9877 28.3526C16.112 28.4629 16.2116 28.5982 16.2798 28.7497C16.3481 28.9011 16.3836 29.0652 16.384 29.2313C16.3806 29.3974 16.3427 29.5609 16.2727 29.7116C16.2027 29.8623 16.1022 29.9968 15.9774 30.1067C15.8527 30.2165 15.7065 30.2994 15.548 30.3499C15.3896 30.4004 15.2224 30.4175 15.0569 30.4001L10.5428 30.4105Z" fill="#13CDD9"/>
<path d="M10.5739 32.6628H15.0566C15.2234 32.6405 15.3931 32.654 15.5542 32.7025C15.7154 32.7511 15.8643 32.8334 15.9909 32.9441C16.1176 33.0548 16.2191 33.1912 16.2886 33.3443C16.3582 33.4974 16.3941 33.6635 16.3941 33.8316C16.3941 33.9997 16.3582 34.1658 16.2886 34.3189C16.2191 34.4719 16.1176 34.6084 15.9909 34.719C15.8643 34.8297 15.7154 34.9121 15.5542 34.9606C15.3931 35.0091 15.2234 35.0227 15.0566 35.0004H5.97618C5.80937 35.0227 5.63971 35.0091 5.47857 34.9606C5.31744 34.9121 5.16856 34.8297 5.0419 34.719C4.91524 34.6084 4.81374 34.4719 4.74419 34.3189C4.67465 34.1658 4.63867 33.9997 4.63867 33.8316C4.63867 33.6635 4.67465 33.4974 4.74419 33.3443C4.81374 33.1912 4.91524 33.0548 5.0419 32.9441C5.16856 32.8334 5.31744 32.7511 5.47857 32.7025C5.63971 32.654 5.80937 32.6405 5.97618 32.6628H10.5739Z" fill="#13CDD9"/>
</svg>
