<svg width="40" height="41" viewBox="0 0 40 41" fill="none" xmlns="http://www.w3.org/2000/svg">
<path d="M40.0005 21.8825C39.8762 22.6121 39.7738 23.3929 39.6202 24.1444C38.8999 27.6142 37.2377 30.8198 34.8152 33.4111L34.4788 33.7905H34.9176C35.7953 33.7905 36.6656 33.7467 37.5432 33.7394C37.6571 33.7248 37.7728 33.7347 37.8826 33.7685C37.9923 33.8022 38.0936 33.8591 38.1795 33.9351C38.2654 34.0111 38.334 34.1046 38.3807 34.2093C38.4273 34.314 38.451 34.4275 38.4501 34.542C38.4544 34.6562 38.4347 34.77 38.3922 34.8762C38.3496 34.9823 38.2853 35.0783 38.2033 35.1581C38.1213 35.2378 38.0234 35.2995 37.916 35.3392C37.8086 35.3789 37.6941 35.3957 37.5798 35.3884L32.8479 35.5125C32.6943 35.5125 32.5334 35.5125 32.3798 35.5125C31.5461 35.4468 31.3267 35.1695 31.4876 34.3377C31.8021 32.7033 32.1312 31.0762 32.4676 29.4417C32.5846 28.858 32.9942 28.5442 33.4696 28.6391C33.5914 28.6627 33.7068 28.7121 33.808 28.7839C33.9092 28.8557 33.9938 28.9483 34.0561 29.0554C34.1185 29.1626 34.1571 29.2818 34.1695 29.405C34.1818 29.5283 34.1676 29.6528 34.1278 29.7701C33.9888 30.5508 33.8352 31.3242 33.6817 32.105L33.7767 32.1634C34.3545 31.3826 34.9688 30.6311 35.4881 29.8211C37.538 26.6028 38.5255 22.8244 38.3116 19.0171C38.0978 15.2098 36.6935 11.5651 34.296 8.59538C31.5085 4.99171 27.4347 2.60014 22.9234 1.919C19.4351 1.30713 15.8428 1.76243 12.6187 3.22509C12.3823 3.33599 12.1378 3.42868 11.8873 3.50236C11.3022 3.68477 10.9292 3.50236 10.7537 3.07916C10.7089 2.9724 10.687 2.8574 10.6897 2.74166C10.6923 2.62593 10.7193 2.51204 10.769 2.40742C10.8187 2.3028 10.8899 2.20978 10.978 2.13443C11.0661 2.05908 11.1691 2.00308 11.2803 1.97008C12.2995 1.51094 13.3475 1.11853 14.4178 0.795325C15.7196 0.459682 17.0726 0.299157 18.4037 0.0656666C18.5061 0.0656666 18.6011 0.0218898 18.7035 0H21.2121L21.5924 0.0729648C22.9106 0.234311 24.2175 0.478009 25.5051 0.802624C33.177 3.15942 37.748 8.40566 39.5983 16.1255C39.7885 16.8551 39.8689 17.6869 39.9932 18.4677L40.0005 21.8825Z" fill="#C73232"/>
<path d="M19.3404 40.0013C18.6529 39.9283 17.9654 39.8699 17.2853 39.7751C13.6965 39.2783 10.3099 37.8202 7.4858 35.5558C4.66169 33.2914 2.50575 30.3054 1.24741 26.9157C-0.0109243 23.526 -0.324582 19.8593 0.339816 16.3059C1.00421 12.7525 2.62181 9.44525 5.02047 6.73614L5.43733 6.26916H2.90685C2.70939 6.26916 2.51192 6.26916 2.31446 6.26916C2.09527 6.26916 1.88507 6.1823 1.73009 6.02767C1.5751 5.87304 1.48803 5.66332 1.48803 5.44464C1.48803 5.22597 1.5751 5.01625 1.73009 4.86162C1.88507 4.707 2.09527 4.62013 2.31446 4.62013L4.62553 4.55447L7.55094 4.49609C8.2823 4.49609 8.65529 4.89011 8.51634 5.59787C8.19454 7.28339 7.8508 8.9616 7.50707 10.6471C7.49854 10.7656 7.46512 10.8809 7.40897 10.9857C7.35282 11.0904 7.27521 11.1822 7.18117 11.255C7.08714 11.3279 6.97878 11.3802 6.86316 11.4085C6.74754 11.4368 6.62724 11.4405 6.51008 11.4194C6.39292 11.3983 6.28153 11.3528 6.18315 11.286C6.08477 11.2191 6.0016 11.1323 5.93905 11.0312C5.87649 10.9302 5.83596 10.8171 5.82008 10.6994C5.80421 10.5816 5.81334 10.4619 5.84689 10.3479C5.98585 9.54532 6.14675 8.7427 6.24183 7.8963C5.94197 8.26842 5.62017 8.62596 5.33494 9.01998C2.53534 12.6632 1.23996 17.2374 1.71475 21.8036C2.09517 25.759 3.75972 29.4823 6.45535 32.4074C9.15098 35.3325 12.7302 37.2995 16.649 38.0093C20.3413 38.7201 24.1642 38.2529 27.5754 36.674L27.9338 36.5135C28.0348 36.4532 28.1473 36.4145 28.2641 36.3999C28.381 36.3853 28.4996 36.3951 28.6124 36.4288C28.7252 36.4624 28.8298 36.5191 28.9194 36.5952C29.0091 36.6714 29.0819 36.7653 29.1332 36.8711C29.1871 36.9803 29.216 37.1001 29.218 37.2219C29.2199 37.3436 29.1949 37.4643 29.1445 37.5752C29.0942 37.6861 29.0198 37.7845 28.9268 37.8634C28.8338 37.9422 28.7245 37.9995 28.6066 38.0312C27.4876 38.4763 26.3614 38.9214 25.2058 39.2789C23.8531 39.6782 22.4544 39.9013 21.0444 39.9429C20.9166 39.9552 20.7897 39.9747 20.6641 40.0013H19.3404Z" fill="#C73232"/>
<path d="M30.4711 14.2716C30.7517 14.7037 30.8756 15.2187 30.8221 15.7309C30.8221 16.4605 30.8221 17.1902 30.8221 17.8761C30.7546 18.2547 30.6593 18.6278 30.5369 18.9924C30.504 19.1291 30.504 19.2717 30.5369 19.4083C30.6583 19.7067 30.7465 20.0175 30.8002 20.335C30.8002 21.3055 30.8002 22.2832 30.7636 23.2537C30.7636 23.5747 30.4564 23.8812 30.4491 24.1949C30.4418 24.5087 30.7417 24.7859 30.7563 25.0924C30.8245 26.0783 30.8416 27.0671 30.8075 28.0548C30.798 28.3232 30.7357 28.587 30.624 28.8313C30.5122 29.0756 30.3533 29.2955 30.1563 29.4785C29.9594 29.6615 29.7282 29.8039 29.476 29.8976C29.2238 29.9914 28.9555 30.0346 28.6866 30.0249C25.8099 30.0249 22.9405 30.0249 20.0785 30.0249C19.4236 30.1094 18.7612 29.9396 18.2282 29.5506C18.1551 29.4849 17.9576 29.5506 17.8333 29.5506C16.378 30.0629 14.8138 30.1862 13.296 29.9085C11.7781 29.6307 10.3596 28.9615 9.18136 27.9673C7.74767 26.8979 6.6807 25.4122 6.12683 23.7139C5.57295 22.0156 5.5593 20.188 6.08773 18.4817C7.09699 14.7385 9.67868 12.5204 13.511 11.8199C14.1682 11.7116 14.8357 11.6798 15.5003 11.725C16.1438 11.725 16.7874 11.8856 17.4603 11.9804V10.5211C17.4415 10.2325 17.4839 9.94323 17.5847 9.6721C17.6855 9.40096 17.8425 9.15406 18.0453 8.94751C18.2482 8.74097 18.4925 8.57942 18.7621 8.47338C19.0318 8.36735 19.3209 8.31922 19.6105 8.33213H28.6939C28.9596 8.32039 29.225 8.36116 29.4749 8.45211C29.7248 8.54305 29.9542 8.68238 30.1499 8.86206C30.3457 9.04175 30.5039 9.25825 30.6155 9.49914C30.7271 9.74003 30.7898 10.0006 30.8002 10.2657C30.8549 11.1867 30.8549 12.1101 30.8002 13.0311C30.7361 13.4553 30.6257 13.8713 30.4711 14.2716ZM14.9737 13.3522C13.4913 13.3494 12.0412 13.7843 10.8061 14.6022C9.57096 15.42 8.60603 16.5842 8.03282 17.9481C7.4596 19.3121 7.30373 20.8147 7.58485 22.2668C7.86597 23.719 8.5715 25.0556 9.61258 26.1085C10.6537 27.1613 11.9837 27.8833 13.4353 28.1834C14.8868 28.4836 16.395 28.3485 17.7697 27.7951C19.1444 27.2418 20.3243 26.295 21.1607 25.0739C21.9972 23.8529 22.4527 22.4122 22.47 20.9333C22.4816 19.9432 22.2964 18.9605 21.9251 18.0422C21.5537 17.1238 21.0036 16.288 20.3065 15.5831C19.6095 14.8781 18.7793 14.318 17.8639 13.9351C16.9486 13.5522 15.9662 13.354 14.9737 13.3522ZM24.1522 10.0103H19.6909C19.2887 10.0103 19.1351 10.149 19.1278 10.543C19.1278 11.1778 19.1278 11.8126 19.1278 12.4547C19.1323 12.514 19.1489 12.5718 19.1766 12.6245C19.2042 12.6772 19.2424 12.7237 19.2887 12.7612C19.8111 13.1809 20.4689 13.3962 21.139 13.3668C22.5286 13.3668 23.9254 13.3668 25.3223 13.3668H28.533C29.0083 13.3668 29.1327 13.2427 29.1327 12.7685C29.1327 12.0388 29.1327 11.3602 29.1327 10.6597C29.1327 10.0906 29.0449 10.0322 28.4891 10.0322L24.1522 10.0103ZM20.3345 28.3394H28.6207C28.6924 28.3506 28.7658 28.3447 28.8348 28.3223C28.9039 28.2999 28.9666 28.2615 29.0179 28.2103C29.0692 28.1591 29.1077 28.0965 29.1302 28.0276C29.1527 27.9588 29.1585 27.8856 29.1473 27.814C29.1473 27.0844 29.1473 26.3036 29.1473 25.5521C29.1473 25.1289 29.0157 25.0048 28.5768 25.0048C26.8509 25.0048 25.1322 25.0048 23.4135 25.0048C23.3254 25.0008 23.2381 25.0229 23.1626 25.0684C23.0871 25.1138 23.0268 25.1806 22.9893 25.2602C22.677 25.7831 22.3275 26.283 21.9435 26.756C21.4608 27.3033 20.8976 27.7921 20.3345 28.3394ZM22.0459 15.0085C22.8011 15.9503 23.374 17.0242 23.7353 18.1752C23.7629 18.2203 23.8001 18.2588 23.8444 18.2878C23.8887 18.3168 23.9388 18.3357 23.9913 18.3431H28.6427C28.7114 18.3518 28.7812 18.3445 28.8465 18.3217C28.9119 18.2989 28.971 18.2613 29.0193 18.2117C29.0676 18.1621 29.1036 18.1021 29.1245 18.0362C29.1455 17.9704 29.1508 17.9005 29.14 17.8323V15.5339C29.154 15.4632 29.1506 15.3901 29.1301 15.321C29.1096 15.2519 29.0726 15.1888 29.0222 15.1371C28.9719 15.0854 28.9097 15.0467 28.841 15.0243C28.7724 15.0019 28.6993 14.9965 28.628 15.0085H22.0459ZM23.823 23.3412C25.4613 23.3412 27.0776 23.3412 28.6866 23.3412C29.0084 23.3412 29.1473 23.1369 29.14 22.8232C29.14 22.0935 29.14 21.3638 29.14 20.5977C29.14 20.1234 29.023 20.0067 28.533 20.0067H24.1448C24.1448 20.5977 24.1814 21.1449 24.1448 21.6849C24.1083 22.2248 23.9328 22.7502 23.823 23.3412Z" fill="#C73232"/>
<path d="M15.7991 16.6654H17.313C17.9054 16.6654 18.293 17.0011 18.293 17.4972C18.2909 17.6183 18.2632 17.7375 18.2118 17.8472C18.1604 17.9568 18.0864 18.0545 17.9946 18.1336C17.9028 18.2128 17.7953 18.2718 17.6791 18.3067C17.5629 18.3417 17.4406 18.3518 17.3203 18.3363H14.2705C13.6489 18.3363 13.2978 18.6355 13.2978 19.1536C13.2978 19.6716 13.6635 19.9854 14.2632 19.9927H15.7259C16.3731 19.9779 17.001 20.2133 17.4782 20.6497C17.9555 21.086 18.2452 21.6896 18.2867 22.3341C18.3283 22.9786 18.1185 23.6142 17.7012 24.108C17.2839 24.6017 16.6915 24.9155 16.0477 24.9835H15.8064C15.8064 25.2389 15.8064 25.4797 15.8064 25.7132C15.8173 25.8295 15.8037 25.9467 15.7666 26.0575C15.7295 26.1682 15.6696 26.27 15.5908 26.3564C15.512 26.4427 15.4159 26.5117 15.3089 26.5589C15.2018 26.6061 15.086 26.6305 14.969 26.6305C14.8519 26.6305 14.7362 26.6061 14.6291 26.5589C14.522 26.5117 14.426 26.4427 14.3472 26.3564C14.2683 26.27 14.2085 26.1682 14.1713 26.0575C14.1342 25.9467 14.1207 25.8295 14.1316 25.7132C14.1316 25.487 14.1316 25.2535 14.1316 24.9835C13.5538 24.9835 13.0053 24.9835 12.4641 24.9835C12.2726 24.9885 12.0856 24.925 11.9367 24.8046C11.7879 24.6842 11.6871 24.5148 11.6523 24.3268C11.6094 24.1469 11.6314 23.9577 11.7143 23.7923C11.7972 23.6269 11.9357 23.4958 12.1057 23.4221C12.2882 23.3554 12.4821 23.3256 12.6762 23.3345H15.6894C15.8981 23.3572 16.1078 23.3019 16.2781 23.1793C16.4483 23.0566 16.5668 22.8753 16.6109 22.6705C16.6381 22.5451 16.636 22.4152 16.6046 22.2908C16.5732 22.1664 16.5133 22.0509 16.4298 21.9534C16.3462 21.8559 16.2412 21.779 16.1229 21.7287C16.0046 21.6785 15.8762 21.6562 15.7479 21.6636C15.1774 21.6636 14.5996 21.6636 14.0292 21.6636C13.4174 21.6436 12.8346 21.3985 12.3931 20.9755C11.9515 20.5525 11.6825 19.9815 11.6377 19.3725C11.5945 18.7893 11.7574 18.2095 12.0981 17.7336C12.4388 17.2578 12.9357 16.916 13.5026 16.7676C13.6854 16.7165 13.8829 16.6946 14.1316 16.6508C14.1316 16.41 14.1316 16.1693 14.1316 15.9212C14.1207 15.8049 14.1342 15.6876 14.1713 15.5769C14.2085 15.4661 14.2683 15.3643 14.3472 15.278C14.426 15.1916 14.522 15.1227 14.6291 15.0755C14.7362 15.0283 14.8519 15.0039 14.969 15.0039C15.086 15.0039 15.2018 15.0283 15.3089 15.0755C15.4159 15.1227 15.512 15.1916 15.5908 15.278C15.6696 15.3643 15.7295 15.4661 15.7666 15.5769C15.8037 15.6876 15.8173 15.8049 15.8064 15.9212C15.8064 16.162 15.7991 16.3954 15.7991 16.6654Z" fill="#C73232"/>
</svg>
