<svg width="60" height="41" viewBox="0 0 60 41" fill="none" xmlns="http://www.w3.org/2000/svg">
<path fill-rule="evenodd" clip-rule="evenodd" d="M5.16634 0.0811458C2.88669 0.551814 1.03679 2.18157 0.271468 4.39361L0 5.17806V16.9624V28.7467L0.271468 29.5311C0.935342 31.4499 2.36114 32.8852 4.35382 33.6407L5.04892 33.9043L14.7081 33.9383L24.3672 33.9723L26.5785 37.281C28.9209 40.7858 29.118 41 30 41C30.882 41 31.0791 40.7858 33.4215 37.281L35.6328 33.9723L45.2919 33.9383L54.9511 33.9043L55.6462 33.6407C57.6389 32.8852 59.0647 31.4499 59.7285 29.5311L60 28.7467V16.9624V5.17806L59.7285 4.39361C59.0649 2.47529 57.6412 1.04195 55.6462 0.283179L54.9511 0.0187655L30.2935 0.0015284C16.7319 -0.0079694 5.42466 0.027794 5.16634 0.0811458ZM54.5993 3.67202C54.9369 3.78693 55.3697 4.06565 55.6586 4.35422C56.5829 5.27726 56.5362 4.60503 56.5362 16.9624C56.5362 29.3197 56.5829 28.6475 55.6586 29.5705C54.7405 30.4875 55.2712 30.4469 44.1818 30.4469C34.7139 30.4469 34.3181 30.4556 33.8945 30.6713C33.5355 30.8542 33.1418 31.3643 31.7679 33.4269C30.8407 34.8189 30.0451 35.958 30 35.958C29.9549 35.958 29.1593 34.8189 28.2321 33.4269C26.8582 31.3643 26.4645 30.8542 26.1055 30.6713C25.6819 30.4556 25.2861 30.4469 15.8182 30.4469C4.72885 30.4469 5.25945 30.4875 4.34137 29.5705C3.41706 28.6475 3.4638 29.3197 3.4638 16.9624C3.4638 4.60175 3.41671 5.27761 4.34348 4.35211C5.27507 3.42179 3.03452 3.49742 29.9497 3.4871C52.0694 3.47854 54.075 3.49367 54.5993 3.67202ZM12.4462 10.1452C11.8988 10.4828 11.7399 10.7147 11.0469 12.1876C10.6913 12.9434 10.3747 13.5619 10.3436 13.5619C9.9944 13.5619 7.03374 14.0601 6.87335 14.1459C6.50102 14.3448 6.05918 14.9607 5.97769 15.3942C5.83397 16.1595 6.07268 16.5848 7.36978 17.8743L8.58188 19.0793L8.29867 20.7234C8.02603 22.3059 8.02286 22.3869 8.21448 22.8879C8.46329 23.5386 8.95785 23.9013 9.69217 23.9717C10.207 24.0212 10.3823 23.9588 11.7736 23.2317L13.2928 22.4378L14.7652 23.2178C16.3321 24.0478 16.7461 24.142 17.4814 23.8351C17.9098 23.6564 18.3161 23.1622 18.44 22.669C18.4848 22.4908 18.3993 21.6316 18.2453 20.7113L17.9708 19.0712L19.1654 17.8702C19.8223 17.2097 20.4154 16.5207 20.4832 16.3391C20.7595 15.6 20.5564 14.8918 19.9131 14.3513C19.5601 14.0546 19.1977 13.9665 17.1333 13.6748L16.1845 13.5407L15.5482 12.2411C14.8491 10.8134 14.5248 10.3576 14.0232 10.0986C13.5676 9.86341 12.8696 9.88393 12.4462 10.1452ZM29.0487 10.1941C28.7515 10.3929 28.4543 10.8399 27.8837 11.9459C27.4624 12.7626 27.0891 13.4592 27.0541 13.4941C27.0193 13.529 26.2928 13.6598 25.44 13.7849C23.7355 14.0349 23.2679 14.2298 22.9114 14.8395C22.6269 15.3259 22.6248 16.1542 22.9068 16.5859C23.0212 16.7607 23.6116 17.3786 24.2189 17.959L25.3229 19.0144L25.0784 20.4345C24.9438 21.2155 24.8339 22.0598 24.8341 22.3106C24.835 23.2058 25.6301 23.9965 26.5305 23.9973C26.8688 23.9977 27.4091 23.7893 28.5265 23.2273L30.0587 22.4567L31.409 23.181C32.9932 24.0307 33.6796 24.17 34.3161 23.7709C34.8267 23.4508 35.1654 22.8687 35.1659 22.3106C35.1661 22.0598 35.0562 21.2155 34.9216 20.4345L34.6771 19.0144L35.7811 17.959C36.3884 17.3786 36.9788 16.7607 37.0932 16.5859C37.3752 16.1542 37.3731 15.3259 37.0886 14.8395C36.7321 14.2298 36.2645 14.0349 34.56 13.7849C33.7072 13.6598 32.9807 13.529 32.9459 13.4941C32.9109 13.4592 32.5376 12.7626 32.1163 11.9459C31.5457 10.8399 31.2485 10.3929 30.9513 10.1941C30.4099 9.83163 29.5901 9.83163 29.0487 10.1941ZM46.0274 10.0634C45.4993 10.3545 45.1686 10.8064 44.5086 12.1394L43.815 13.5401L42.5142 13.7337C40.4817 14.0361 40.4535 14.0433 40.0853 14.3527C39.4436 14.8918 39.2407 15.6007 39.5168 16.3391C39.5846 16.5207 40.1777 17.2097 40.8346 17.8702L42.0292 19.0712L41.7547 20.7113C41.6007 21.6316 41.5152 22.4908 41.56 22.669C41.6839 23.1622 42.0902 23.6564 42.5186 23.8351C43.2573 24.1434 43.6752 24.0487 45.2452 23.2168L46.7192 22.4359L48.2331 23.2308C49.62 23.9591 49.7939 24.0211 50.3085 23.9717C51.042 23.9013 51.5367 23.5384 51.7855 22.8879C51.9771 22.3869 51.974 22.3059 51.7013 20.7234L51.4181 19.0793L52.6302 17.8743C53.9389 16.5732 54.1665 16.162 54.0171 15.3672C53.964 15.0839 53.7769 14.7659 53.503 14.4931C53.0447 14.0365 52.9315 14.0048 50.5657 13.6701L49.5855 13.5316L48.9446 12.1694C48.2784 10.7535 48.0061 10.3694 47.4716 10.0917C47.0955 9.89624 46.357 9.88182 46.0274 10.0634ZM14.2231 16.697C14.4082 16.7663 14.6561 16.8543 14.774 16.8925C14.9782 16.9585 14.9771 16.9759 14.7513 17.2625C14.4265 17.6748 14.2287 18.3217 14.3183 18.6782C14.3859 18.9473 14.3681 18.9656 14.124 18.8772C13.8025 18.7607 12.7757 18.7644 12.4462 18.883C12.2321 18.9601 12.2106 18.9161 12.203 18.3846C12.1966 17.9382 12.1193 17.703 11.8733 17.3809C11.5808 16.998 11.5711 16.9545 11.7642 16.8969C12.3026 16.7364 12.8148 16.4039 13.0302 16.075L13.2658 15.7151L13.5762 16.143C13.7468 16.3783 14.038 16.6276 14.2231 16.697ZM47.6162 16.6342C47.8402 16.7439 48.1191 16.8621 48.2358 16.8969C48.4289 16.9545 48.4192 16.998 48.1267 17.3809C47.8807 17.703 47.8034 17.9382 47.797 18.3846C47.7894 18.9161 47.7679 18.9601 47.5538 18.883C47.2243 18.7644 46.1975 18.7607 45.876 18.8772C45.6319 18.9656 45.6141 18.9473 45.6817 18.6782C45.7713 18.3217 45.5735 17.6748 45.2487 17.2625C45.023 16.976 45.022 16.9586 45.226 16.8948C45.8499 16.7002 46.2232 16.46 46.4577 16.1028L46.7186 15.7053L46.9638 16.07C47.0986 16.2706 47.3921 16.5245 47.6162 16.6342ZM30.1174 15.898C30.1174 16.1355 30.862 16.7296 31.3107 16.8503L31.7871 16.9783L31.554 17.2342C31.186 17.6381 31.0568 17.9649 31.0568 18.4915C31.0568 18.9166 31.0297 18.968 30.8513 18.8831C30.7383 18.8294 30.3552 18.7855 30 18.7855C29.6448 18.7855 29.2618 18.8294 29.1487 18.8831C28.9703 18.968 28.9432 18.9166 28.9432 18.4915C28.9432 17.9649 28.814 17.6381 28.446 17.2342L28.2129 16.9783L28.6826 16.852C29.1107 16.737 29.8826 16.1147 29.8826 15.8848C29.8826 15.8326 29.9354 15.7898 30 15.7898C30.0646 15.7898 30.1174 15.8385 30.1174 15.898Z" fill="#0693E3"/>
</svg>
