<svg width="37" height="41" viewBox="0 0 37 41" fill="none" xmlns="http://www.w3.org/2000/svg">
<path fill-rule="evenodd" clip-rule="evenodd" d="M8.55878 0.0997487C5.02296 0.601766 1.73428 3.31757 0.588902 6.68157C0.0248347 8.33824 0.0534742 7.68413 0.0134385 19.8039C-0.0252098 31.4527 -0.00320966 32.2605 0.391301 33.7023C1.4029 37.3991 4.80048 40.3581 8.64441 40.8899C9.70624 41.0367 27.3301 41.0367 28.3919 40.8899C32.0853 40.3789 35.3161 37.6967 36.4921 34.1651C37.0053 32.624 37 32.7473 37 22.4653V12.8547L36.7297 12.0662C36.581 11.6325 36.2827 11.0115 36.0667 10.6862C35.8242 10.3209 33.9191 8.35845 31.0848 5.55403C26.0693 0.591416 26.0564 0.580968 24.5041 0.185998C23.7735 0.000192814 23.4061 -0.00808677 16.446 0.00334737C12.4351 0.00995157 8.88581 0.0533221 8.55878 0.0997487ZM23.2937 6.07803C23.3276 8.97905 23.3309 9.01838 23.5967 9.7475C24.113 11.1641 25.1529 12.3533 26.4406 12.9997C27.6104 13.5871 27.8381 13.6205 30.9836 13.6683L33.886 13.7124L33.8546 22.8941C33.8195 33.1614 33.8665 32.4751 33.0911 34.0473C32.2412 35.7705 30.7326 37.0163 28.7748 37.6121C28.2153 37.7823 27.608 37.793 18.4686 37.793H8.75698L7.96419 37.515C6.11512 36.8667 4.76134 35.6987 3.94507 34.0473C3.15753 32.4539 3.20748 33.3718 3.20748 20.4939C3.20748 7.78171 3.17012 8.56298 3.84616 7.1207C4.22948 6.30287 4.53787 5.8659 5.21164 5.18607C5.89472 4.49686 6.62627 4.00056 7.45027 3.6672C8.6885 3.16636 8.7662 3.16183 16.2559 3.15335L23.2594 3.14557L23.2937 6.07803ZM31.5 10.4742C31.5 10.5211 30.8199 10.5418 29.9888 10.5204C28.2983 10.4767 27.8733 10.3558 27.2557 9.74277C26.5812 9.07338 26.5014 8.79521 26.4657 6.9898L26.4336 5.36339L28.9668 7.87624C30.3601 9.2583 31.5 10.4273 31.5 10.4742ZM17.9792 14.822C17.6919 14.9262 16.9901 15.5571 15.3216 17.2112C14.0748 18.4475 12.9828 19.592 12.8951 19.7546C12.6726 20.1673 12.6888 20.8788 12.9303 21.2902C13.169 21.6967 13.7896 22.0672 14.2353 22.0695C14.7788 22.0721 15.1606 21.8345 16.0407 20.9457L16.883 20.095L16.9326 23.7374C16.98 27.2216 16.991 27.3916 17.1865 27.6518C17.5749 28.1689 17.8916 28.3302 18.5182 28.3302C19.1448 28.3302 19.4614 28.1689 19.8498 27.6518C20.0454 27.3916 20.0564 27.2216 20.1037 23.7374L20.1533 20.095L20.9956 20.9457C22.1413 22.1027 22.6476 22.2928 23.4705 21.8752C24.1494 21.5307 24.4602 20.8231 24.2612 20.075C24.166 19.717 23.816 19.3218 21.8542 17.357C20.5917 16.0925 19.4456 14.9984 19.3075 14.9258C18.8951 14.7089 18.3982 14.6701 17.9792 14.822Z" fill="#B548AA"/>
</svg>
