<svg width="18" height="18" viewBox="0 0 18 18" fill="none" xmlns="http://www.w3.org/2000/svg">
<path d="M1.60577 4.73094L9 0.46188L16.3942 4.73094V13.2691L9 17.5381L1.60577 13.2691V4.73094Z" stroke="#410EAD" stroke-width="0.8"/>
<path d="M8.53062 5C8.68732 5.02496 8.84541 5.0416 8.99933 5.07627C9.62052 5.21722 10.1873 5.53587 10.6305 5.99337C11.0737 6.45087 11.3742 7.02744 11.4954 7.65279C11.5099 7.73172 11.5056 7.81295 11.4829 7.88992C11.4582 7.95085 11.4137 8.00171 11.3567 8.03439C11.2996 8.06708 11.2332 8.07968 11.1682 8.07019C11.0975 8.06193 11.0316 8.03006 10.9813 7.97972C10.931 7.92939 10.8991 7.86355 10.8908 7.79285C10.8482 7.54659 10.7688 7.30817 10.6551 7.08562C10.2002 6.22863 9.49162 5.7308 8.52646 5.6365C7.85047 5.56458 7.17319 5.76012 6.63956 6.18127C6.10593 6.60242 5.75835 7.21573 5.67121 7.88992C5.57263 8.47321 5.67579 9.07269 5.96367 9.58948C6.25156 10.1063 6.70699 10.5095 7.25484 10.7327L7.34082 10.7687C7.41476 10.8019 7.47289 10.8625 7.50292 10.9378C7.53295 11.0131 7.53251 11.0971 7.5017 11.172C7.47089 11.247 7.41212 11.307 7.33784 11.3394C7.26355 11.3718 7.17958 11.374 7.10369 11.3456C6.67996 11.1884 6.29601 10.9398 5.97906 10.6176C5.59881 10.2449 5.31553 9.78488 5.15393 9.27758C4.99233 8.77028 4.95732 8.23114 5.05196 7.7072C5.1466 7.18327 5.36801 6.69045 5.69688 6.27174C6.02575 5.85303 6.45207 5.52116 6.93867 5.30508C7.28868 5.14461 7.6642 5.04697 8.04804 5.01664C8.06589 5.0138 8.08351 5.00963 8.10074 5.00416L8.53062 5Z" fill="#410EAD"/>
<path d="M12.999 10.4206C12.968 10.4833 12.9289 10.5416 12.8825 10.594C12.838 10.6351 12.782 10.6615 12.7219 10.6697C12.6619 10.6779 12.6008 10.6674 12.5469 10.6397C12.4932 10.6164 12.4477 10.5776 12.4163 10.5281C12.3849 10.4787 12.369 10.4209 12.3708 10.3624C12.3708 10.1891 12.3708 10.0143 12.3708 9.8396V9.74946C12.3375 9.77997 12.3167 9.798 12.2973 9.81741C12.002 10.1142 11.7038 10.4095 11.4098 10.7077C11.3716 10.7482 11.3254 10.7802 11.274 10.8017C11.2226 10.8232 11.1673 10.8337 11.1117 10.8325C10.6263 10.8325 10.141 10.8325 9.65841 10.8325C9.63263 10.8309 9.60682 10.8351 9.58284 10.8447C9.55887 10.8543 9.53731 10.869 9.51973 10.888C8.86151 11.549 8.20004 12.2137 7.53534 12.8821C7.49646 12.9295 7.44503 12.965 7.38692 12.9847C7.32881 13.0043 7.26636 13.0072 7.20669 12.993C7.1551 12.9808 7.10752 12.9555 7.06852 12.9196C7.02952 12.8837 7.00041 12.8383 6.98398 12.7879C6.96755 12.7375 6.96435 12.6837 6.9747 12.6317C6.98504 12.5797 7.00858 12.5313 7.04306 12.491C7.06184 12.4692 7.08174 12.4484 7.10269 12.4286C7.79882 11.7325 8.49218 11.0363 9.18276 10.3402C9.22395 10.2951 9.27437 10.2593 9.3306 10.2354C9.38683 10.2114 9.44755 10.1999 9.50864 10.2015C9.98844 10.2015 10.4669 10.2015 10.9453 10.2015C10.9712 10.2036 10.9973 10.1995 11.0214 10.1896C11.0455 10.1797 11.0669 10.1643 11.084 10.1447C11.3474 9.87843 11.6137 9.61357 11.8785 9.3487L11.9396 9.28491C11.9077 9.28491 11.8869 9.28491 11.8647 9.28491H11.3058C11.263 9.28777 11.2201 9.2818 11.1797 9.26737C11.1392 9.25295 11.1022 9.23038 11.0709 9.20106C11.0395 9.17175 11.0146 9.13631 10.9975 9.09694C10.9804 9.05757 10.9716 9.01512 10.9716 8.97221C10.9716 8.9293 10.9804 8.88684 10.9975 8.84748C11.0146 8.80811 11.0395 8.77267 11.0709 8.74335C11.1022 8.71404 11.1392 8.69147 11.1797 8.67705C11.2201 8.66262 11.263 8.65665 11.3058 8.6595C11.7413 8.6595 12.1753 8.6595 12.6093 8.6595C12.6937 8.64711 12.7796 8.66572 12.8513 8.71188C12.9229 8.75803 12.9754 8.8286 12.999 8.9105V10.4206Z" fill="#410EAD"/>
<path d="M12.9982 12.7435C12.9841 12.7989 12.9559 12.8498 12.9162 12.8911C12.8766 12.9324 12.827 12.9628 12.7722 12.9792C12.7276 12.9933 12.6805 12.997 12.6343 12.9899C12.5881 12.9828 12.5442 12.9651 12.506 12.9383C12.4677 12.9115 12.4362 12.8762 12.4138 12.8352C12.3914 12.7941 12.3788 12.7485 12.377 12.7019C12.377 12.3302 12.377 11.9572 12.377 11.5925C12.3805 11.5227 12.408 11.4562 12.4547 11.4042C12.5013 11.3522 12.5645 11.3178 12.6335 11.3068C12.7008 11.2952 12.7702 11.3059 12.8308 11.3375C12.8914 11.3691 12.94 11.4197 12.9691 11.4815C12.9802 11.5051 12.9899 11.5287 12.9996 11.5523L12.9982 12.7435Z" fill="#410EAD"/>
<path d="M7.74304 8.84255C7.79926 8.84756 7.85314 8.8674 7.89919 8.90005C7.94523 8.93269 7.98179 8.97697 8.00513 9.02837C8.03454 9.09456 8.08551 9.14883 8.14973 9.18233C8.21395 9.21582 8.28763 9.22657 8.35874 9.2128C8.43477 9.19829 8.5027 9.15604 8.54932 9.09425C8.59594 9.03246 8.61793 8.95554 8.61101 8.87845C8.6041 8.80136 8.56877 8.72958 8.5119 8.67708C8.45503 8.62457 8.38067 8.59508 8.30327 8.59432C8.11497 8.59367 7.93092 8.53827 7.77355 8.43485C7.63545 8.34398 7.52468 8.21725 7.45311 8.06824C7.38153 7.91923 7.35185 7.75355 7.36724 7.58895C7.37268 7.41966 7.42723 7.25559 7.52423 7.11673C7.62124 6.97788 7.75652 6.87021 7.9136 6.80685C7.93803 6.8 7.959 6.78423 7.97236 6.76265C7.98571 6.74108 7.99048 6.71528 7.98571 6.69036C7.98225 6.64143 7.98225 6.59231 7.98571 6.54337C7.99303 6.46605 8.02892 6.39424 8.08636 6.34197C8.1438 6.28971 8.21868 6.26074 8.29634 6.26074C8.374 6.26074 8.44887 6.28971 8.50632 6.34197C8.56376 6.39424 8.59965 6.46605 8.60696 6.54337C8.60696 6.61825 8.58616 6.70978 8.61944 6.76524C8.65273 6.82071 8.74425 6.84013 8.80665 6.87896C8.95271 6.97319 9.06794 7.10819 9.13808 7.26724C9.15565 7.30429 9.16575 7.34445 9.16781 7.38541C9.16986 7.42638 9.16382 7.46734 9.15005 7.50597C9.13627 7.5446 9.11502 7.58014 9.0875 7.61056C9.05999 7.64098 9.02676 7.66568 8.9897 7.68325C8.95264 7.70082 8.91248 7.71093 8.87152 7.71298C8.83056 7.71503 8.78959 7.709 8.75096 7.69522C8.71233 7.68144 8.67679 7.66019 8.64637 7.63268C8.61596 7.60517 8.59126 7.57193 8.57368 7.53487C8.55 7.47224 8.50556 7.41962 8.44776 7.3858C8.38997 7.35199 8.32233 7.33901 8.25612 7.34905C8.17843 7.35943 8.10754 7.39879 8.05765 7.45924C8.00776 7.5197 7.98257 7.59677 7.98714 7.67502C7.9917 7.75327 8.02567 7.8269 8.08224 7.88115C8.13882 7.9354 8.21381 7.96625 8.29218 7.96753C8.48063 7.96859 8.66469 8.02449 8.82191 8.12839C8.95935 8.22032 9.06932 8.34778 9.14013 8.49721C9.21094 8.64664 9.23994 8.81246 9.22405 8.97706C9.21861 9.14636 9.16406 9.31042 9.06706 9.44928C8.97005 9.58814 8.83477 9.6958 8.67769 9.75917C8.65385 9.76682 8.63358 9.78282 8.62059 9.80421C8.6076 9.82561 8.60276 9.85097 8.60696 9.87565C8.61073 9.94023 8.60607 10.005 8.5931 10.0684C8.57425 10.1396 8.53037 10.2017 8.46951 10.2432C8.40864 10.2847 8.33486 10.3029 8.26167 10.2944C8.1871 10.2902 8.11693 10.2578 8.06542 10.2037C8.01391 10.1496 7.98491 10.0779 7.98433 10.0032C7.99633 9.93917 7.98467 9.87293 7.95152 9.81682C7.91836 9.7607 7.86596 9.71854 7.80405 9.69815C7.63108 9.61106 7.49665 9.46279 7.42687 9.28214C7.405 9.23208 7.39653 9.17719 7.4023 9.12286C7.40807 9.06854 7.42787 9.01666 7.45977 8.97231C7.49167 8.92796 7.53456 8.89267 7.58423 8.86992C7.63389 8.84717 7.68862 8.83774 7.74304 8.84255Z" fill="#410EAD"/>
<path d="M10.4993 12.1443C10.4993 12.3232 10.4993 12.5035 10.4993 12.6824C10.499 12.7355 10.4852 12.7876 10.4592 12.8339C10.4331 12.8802 10.3957 12.9191 10.3504 12.9469C10.3052 12.9746 10.2536 12.9904 10.2005 12.9926C10.1474 12.9949 10.0947 12.9836 10.0472 12.9597C9.99555 12.9367 9.95189 12.8988 9.92177 12.8509C9.89165 12.803 9.87643 12.7472 9.87805 12.6907C9.87805 12.3209 9.87805 11.9543 9.87805 11.591C9.88332 11.5121 9.91841 11.438 9.97622 11.384C10.034 11.3299 10.1102 11.2998 10.1894 11.2998C10.2685 11.2998 10.3447 11.3299 10.4025 11.384C10.4603 11.438 10.4954 11.5121 10.5007 11.591C10.5021 11.7796 10.4993 11.9627 10.4993 12.1443Z" fill="#410EAD"/>
<path d="M11.7494 12.1471C11.7494 12.319 11.7494 12.4896 11.7494 12.6615C11.7535 12.705 11.7485 12.7488 11.7347 12.7902C11.7209 12.8316 11.6986 12.8696 11.6692 12.9019C11.6398 12.9342 11.604 12.96 11.5641 12.9776C11.5242 12.9953 11.4811 13.0044 11.4374 13.0044C11.3938 13.0044 11.3506 12.9953 11.3107 12.9776C11.2708 12.96 11.235 12.9342 11.2056 12.9019C11.1763 12.8696 11.154 12.8316 11.1401 12.7902C11.1263 12.7488 11.1213 12.705 11.1254 12.6615C11.1254 12.3162 11.1254 11.9682 11.1254 11.6243C11.1254 11.5415 11.1583 11.4622 11.2168 11.4036C11.2753 11.3451 11.3547 11.3123 11.4374 11.3123C11.5202 11.3123 11.5995 11.3451 11.658 11.4036C11.7166 11.4622 11.7494 11.5415 11.7494 11.6243C11.7508 11.799 11.7494 11.9723 11.7494 12.1471Z" fill="#410EAD"/>
<path d="M8.62604 12.6215C8.62604 12.3996 8.7342 12.2609 8.91586 12.2498C8.9919 12.2435 9.06755 12.2659 9.12787 12.3127C9.1882 12.3594 9.22882 12.427 9.24174 12.5022C9.25421 12.5817 9.25421 12.6626 9.24174 12.7421C9.23008 12.8176 9.19028 12.8859 9.13034 12.9332C9.0704 12.9805 8.99476 13.0034 8.91864 12.9973C8.8412 12.9938 8.76796 12.9611 8.71367 12.9058C8.65938 12.8504 8.62807 12.7766 8.62604 12.6991C8.62465 12.6733 8.62465 12.6473 8.62604 12.6215Z" fill="#410EAD"/>
</svg>
