<svg width="93" height="91" viewBox="0 0 93 91" fill="none" xmlns="http://www.w3.org/2000/svg">
<path d="M89.681 62.9292C89.4106 64.5538 89.1942 66.1785 88.8156 67.749C87.1048 74.6476 82.9141 80.6726 77.0451 84.6717C71.1762 88.6708 64.0408 90.3633 57.0038 89.4254C49.9668 88.4875 43.522 84.9851 38.9021 79.5881C34.2823 74.1911 31.8116 67.2782 31.9626 60.1717C32.1136 53.0652 34.8757 46.2638 39.7207 41.0684C44.5656 35.8731 51.1533 32.6483 58.2238 32.011C65.2943 31.3736 72.3513 33.3684 78.0451 37.6138C83.7389 41.8593 87.6698 48.0573 89.086 55.0226C89.3565 56.241 89.4917 57.4866 89.681 58.7322V62.9292ZM63.4762 55.537H68.6955C68.647 53.8983 68.1044 52.3127 67.1391 50.9885C66.1738 49.6643 64.8309 48.6636 63.2869 48.1178V42.4857H58.1487V48.1449C57.8412 48.2675 57.5429 48.4123 57.2563 48.5781C55.6857 49.3836 54.431 50.6943 53.6939 52.2997C52.9567 53.9051 52.7799 55.712 53.1917 57.4301C53.6035 59.1482 54.5801 60.6779 55.9647 61.7734C57.3492 62.8689 59.0613 63.4667 60.826 63.4707C61.503 63.468 62.1564 63.7196 62.6571 64.1758C63.1578 64.632 63.4694 65.2597 63.5303 65.9348C63.464 66.5212 63.2081 67.0699 62.8016 67.4973C62.3952 67.9247 61.8604 68.2075 61.2786 68.3025C60.6969 68.3976 60.1001 68.2997 59.579 68.0238C59.0579 67.7479 58.6412 67.3091 58.3921 66.7742C58.3921 66.5576 58.3921 66.341 58.2028 66.0973H53.0105C52.9849 67.5172 53.3594 68.9156 54.0913 70.132C54.8231 71.3485 55.8826 72.3338 57.1481 72.975C57.5329 73.0999 57.8584 73.3619 58.0628 73.7114C58.2672 74.0608 58.3363 74.4733 58.2569 74.8704C58.2569 76.3326 58.2569 77.7677 58.2569 79.2028H63.6655C63.6655 77.5781 63.6655 76.0076 63.6655 74.4371C63.6207 74.1589 63.6783 73.8738 63.8275 73.6348C63.9767 73.3957 64.2074 73.219 64.4768 73.1374C65.5479 72.6319 66.4897 71.8885 67.2307 70.9637C67.9718 70.0389 68.4924 68.9572 68.7532 67.8007C69.0139 66.6442 69.0078 65.4433 68.7354 64.2895C68.463 63.1357 67.9314 62.0593 67.1811 61.1421C66.4356 60.217 65.4921 59.4715 64.4202 58.9607C63.3482 58.4498 62.1754 58.1867 60.9883 58.1906C60.331 58.1526 59.7102 57.8759 59.2422 57.4123C58.7742 56.9487 58.4912 56.33 58.4462 55.6724C58.4334 55.0389 58.6429 54.4211 59.0382 53.9263C59.4335 53.4315 59.9896 53.0913 60.6097 52.9647C61.2422 52.8775 61.8851 53.0173 62.4246 53.3593C62.9641 53.7012 63.3654 54.2233 63.5574 54.833C63.5472 55.0693 63.5201 55.3046 63.4762 55.537Z" fill="#0F4FE3"/>
<path d="M32.2407 0C34.0796 0.21662 35.9456 0.379081 37.6493 0.704011C42.7448 1.38525 47.6136 3.23885 51.874 6.11951C53.1814 7.04508 54.3791 8.11707 55.4437 9.31466C57.2444 11.2013 58.2243 13.7261 58.1685 16.3352C58.1128 18.9442 57.0259 21.4247 55.1462 23.2325C52.4325 26.0851 49.0201 28.1762 45.2484 29.2979C34.0479 33.1513 21.8355 32.8341 10.8496 28.4043C7.88553 27.2873 5.21985 25.4986 3.06114 23.1783C2.09804 22.2626 1.33111 21.1602 0.807037 19.9383C0.282961 18.7163 0.0126953 17.4004 0.0126953 16.0705C0.0126953 14.7406 0.282961 13.4247 0.807037 12.2027C1.33111 10.9808 2.09804 9.8784 3.06114 8.96265C5.84606 6.07037 9.30194 3.91235 13.1212 2.68067C17.0539 1.25408 21.17 0.397008 25.3447 0.135386C25.5874 0.16116 25.8321 0.16116 26.0748 0.135386L32.2407 0Z" fill="#0F4FE3"/>
<path d="M0.000687249 27.707C6.08671 32.7982 13.5758 35.9147 21.4729 36.6426C23.9581 36.9532 26.4594 37.116 28.9639 37.13C31.4518 37.13 33.9127 36.9405 36.4277 36.8322C36.4277 36.8322 36.2385 37.1029 36.1032 37.2383C33.3802 40.0668 31.1823 43.3585 29.6129 46.9591C29.5432 47.2031 29.3859 47.4127 29.1713 47.5477C28.9567 47.6826 28.6998 47.7334 28.45 47.6902C21.6939 47.727 15.0177 46.2271 8.92491 43.3037C6.18939 42.0012 3.80596 40.0605 1.97483 37.6445C0.669145 35.9051 -0.0249835 33.782 0.000687249 31.6062C0.0277304 30.3606 0.000687249 29.1151 0.000687249 27.707Z" fill="#0F4FE3"/>
<path d="M32.0518 79.2228C30.6455 79.2228 29.3475 79.2228 28.3198 79.2228C21.9118 79.2341 15.5761 77.8675 9.74121 75.2153C6.69372 73.904 4.03813 71.8235 2.03393 69.1771C0.728238 67.4377 0.0340986 65.3145 0.0597693 63.1388C0.0597693 61.8932 0.0597693 60.6476 0.0597693 59.375C1.54714 60.4581 2.92634 61.5683 4.41371 62.4889C8.99423 65.2822 14.0893 67.1239 19.3956 67.9044C21.8565 68.3106 24.3715 68.4189 26.8595 68.7167C27.157 68.7167 27.6437 68.9604 27.6978 69.1771C28.636 72.726 30.1038 76.1127 32.0518 79.2228Z" fill="#0F4FE3"/>
<path d="M27.3158 52.9113L26.4504 63.309L23.9625 63.1195C18.6614 62.7159 13.4898 61.2811 8.7372 58.8954C6.22735 57.6954 4.01859 55.9465 2.2739 53.7777C0.757367 51.9364 -0.0487121 49.6111 0.00227916 47.225C0.00227916 46.0336 0.00227916 44.8422 0.00227916 43.4883C7.95295 50.366 17.4721 52.3697 27.3158 52.9113Z" fill="#0F4FE3"/>
<path d="M92.003 64.2529C91.7325 65.8775 91.5162 67.5022 91.1376 69.0727C89.4267 75.9712 85.2359 81.9961 79.3668 85.9951C73.4976 89.9941 66.3621 91.6866 59.3248 90.7487C52.2876 89.8108 45.8427 86.3085 41.2227 80.9116C36.6027 75.5146 34.1319 68.6019 34.2829 61.4955C34.4339 54.3891 37.1961 47.5878 42.0412 42.3925C46.8863 37.1972 53.4742 33.9725 60.5449 33.3352C67.6156 32.6978 74.6728 34.6926 80.3668 38.938C86.0607 43.1833 89.9917 49.3813 91.408 56.3464C91.6784 57.5649 91.8137 58.8104 92.003 60.056V64.2529ZM65.7974 56.8609H71.0169C70.9684 55.2222 70.4258 53.6366 69.4604 52.3124C68.4951 50.9882 67.1521 49.9875 65.6081 49.4418V43.8097H60.4698V49.4688C60.1622 49.5914 59.864 49.7362 59.5774 49.9021C58.0067 50.7076 56.752 52.0183 56.0148 53.6236C55.2776 55.229 55.1008 57.0358 55.5126 58.7539C55.9245 60.472 56.9011 62.0017 58.2857 63.0972C59.6703 64.1927 61.3824 64.7904 63.1471 64.7945C63.8242 64.7917 64.4776 65.0433 64.9783 65.4995C65.479 65.9557 65.7906 66.5834 65.8515 67.2585C65.7852 67.8449 65.5293 68.3936 65.1229 68.821C64.7164 69.2484 64.1816 69.5311 63.5998 69.6262C63.0181 69.7212 62.4212 69.6233 61.9001 69.3474C61.379 69.0716 60.9623 68.6328 60.7132 68.0979C60.7132 67.8813 60.7132 67.6646 60.5239 67.4209H55.3315C55.3058 68.8408 55.6804 70.2392 56.4122 71.4557C57.1441 72.6721 58.2036 73.6574 59.4692 74.2985C59.8539 74.4234 60.1794 74.6855 60.3839 75.0349C60.5883 75.3844 60.6574 75.7968 60.578 76.1939C60.578 77.6561 60.578 79.0912 60.578 80.5263H65.9868C65.9868 78.9016 65.9868 77.3312 65.9868 75.7607C65.942 75.4824 65.9995 75.1973 66.1487 74.9583C66.2979 74.7193 66.5286 74.5426 66.7981 74.461C67.8692 73.9555 68.811 73.2121 69.5521 72.2873C70.2931 71.3626 70.8138 70.2808 71.0745 69.1243C71.3353 67.9678 71.3292 66.767 71.0568 65.6132C70.7844 64.4594 70.2528 63.383 69.5025 62.4658C68.7569 61.5408 67.8134 60.7953 66.7414 60.2845C65.6695 59.7736 64.4966 59.5105 63.3094 59.5144C62.6522 59.4764 62.0313 59.1997 61.5633 58.7361C61.0953 58.2725 60.8123 57.6539 60.7673 56.9963C60.7545 56.3628 60.964 55.7449 61.3593 55.2502C61.7547 54.7554 62.3107 54.4151 62.9308 54.2886C63.5634 54.2014 64.2063 54.3412 64.7458 54.6832C65.2853 55.0251 65.6866 55.5472 65.8786 56.1569C65.8685 56.3932 65.8413 56.6285 65.7974 56.8609Z" fill="url(#paint0_linear_1501_321)"/>
<path d="M34.56 1.32422C36.3989 1.54084 38.265 1.70329 39.9687 2.02822C45.0645 2.70945 49.9334 4.56301 54.1938 7.44364C55.5013 8.36919 56.699 9.44116 57.7636 10.6387C59.5644 12.5254 60.5444 15.0501 60.4886 17.6591C60.4328 20.2682 59.3459 22.7486 57.4661 24.5564C54.7524 27.4089 51.3398 29.5 47.5681 30.6216C36.3672 34.475 24.1545 34.1578 13.1682 29.7281C10.2041 28.6111 7.53837 26.8224 5.37959 24.5022C4.41646 23.5865 3.64951 22.4841 3.12542 21.2622C2.60133 20.0402 2.33105 18.7243 2.33105 17.3945C2.33105 16.0646 2.60133 14.7487 3.12542 13.5268C3.64951 12.3048 4.41646 11.2025 5.37959 10.2867C8.16459 7.3945 11.6206 5.23651 15.4399 4.00484C19.3728 2.57828 23.4889 1.72122 27.6638 1.4596C27.9065 1.48538 28.1512 1.48538 28.394 1.4596L34.56 1.32422Z" fill="url(#paint1_linear_1501_321)"/>
<path d="M2.31953 29.0312C8.40574 34.1223 15.895 37.2388 23.7924 37.9667C26.2776 38.2773 28.7791 38.44 31.2835 38.4541C33.7716 38.4541 36.2326 38.2645 38.7477 38.1562C38.7477 38.1562 38.5584 38.427 38.4231 38.5624C35.7 41.3908 33.5021 44.6825 31.9326 48.2831C31.8629 48.5271 31.7056 48.7366 31.491 48.8716C31.2764 49.0065 31.0195 49.0573 30.7697 49.0141C24.0134 49.0509 17.337 47.551 11.244 44.6276C8.50842 43.3252 6.12492 41.3845 4.29374 38.9685C2.98801 37.2292 2.29386 35.1061 2.31953 32.9303C2.34658 31.6848 2.31953 30.4393 2.31953 29.0312Z" fill="url(#paint2_linear_1501_321)"/>
<path d="M34.3711 80.5506C32.9648 80.5506 31.6667 80.5506 30.639 80.5506C24.2308 80.5619 17.895 79.1953 12.0598 76.5432C9.01227 75.2319 6.3566 73.1514 4.35234 70.505C3.04662 68.7657 2.35246 66.6426 2.37813 64.4668C2.37813 63.2213 2.37813 61.9757 2.37813 60.7031C3.86554 61.7862 5.24478 62.8964 6.7322 63.817C11.3128 66.6102 16.4081 68.452 21.7145 69.2324C24.1755 69.6386 26.6906 69.7469 29.1786 70.0447C29.4761 70.0447 29.9629 70.2884 30.017 70.505C30.9551 74.0539 32.423 77.4406 34.3711 80.5506Z" fill="url(#paint3_linear_1501_321)"/>
<path d="M29.6355 54.2353L28.7701 64.6329L26.282 64.4434C20.9808 64.0398 15.809 62.605 11.0563 60.2194C8.54637 59.0194 6.33756 57.2706 4.59281 55.1018C3.07624 53.2605 2.27013 50.9353 2.32113 48.5491C2.32113 47.3577 2.32113 46.1664 2.32113 44.8125C10.272 51.6901 19.7915 53.6938 29.6355 54.2353Z" fill="url(#paint4_linear_1501_321)"/>
<defs>
<linearGradient id="paint0_linear_1501_321" x1="38.6166" y1="36.7973" x2="82.346" y2="89.6806" gradientUnits="userSpaceOnUse">
<stop stop-color="white" stop-opacity="0.66"/>
<stop offset="1" stop-color="#C8C8C8" stop-opacity="0"/>
</linearGradient>
<linearGradient id="paint1_linear_1501_321" x1="6.7039" y1="3.30435" x2="25.2543" y2="44.1508" gradientUnits="userSpaceOnUse">
<stop stop-color="white" stop-opacity="0.66"/>
<stop offset="1" stop-color="#C8C8C8" stop-opacity="0"/>
</linearGradient>
<linearGradient id="paint2_linear_1501_321" x1="5.05781" y1="30.2697" x2="16.6492" y2="55.8299" gradientUnits="userSpaceOnUse">
<stop stop-color="white" stop-opacity="0.66"/>
<stop offset="1" stop-color="#C8C8C8" stop-opacity="0"/>
</linearGradient>
<linearGradient id="paint3_linear_1501_321" x1="4.78293" y1="61.9323" x2="17.1969" y2="86.1556" gradientUnits="userSpaceOnUse">
<stop stop-color="white" stop-opacity="0.66"/>
<stop offset="1" stop-color="#C8C8C8" stop-opacity="0"/>
</linearGradient>
<linearGradient id="paint4_linear_1501_321" x1="4.37269" y1="46.04" x2="17.8414" y2="68.5102" gradientUnits="userSpaceOnUse">
<stop stop-color="white" stop-opacity="0.66"/>
<stop offset="1" stop-color="#C8C8C8" stop-opacity="0"/>
</linearGradient>
</defs>
</svg>
