<svg width="40" height="43" viewBox="0 0 40 43" fill="none" xmlns="http://www.w3.org/2000/svg">
<path d="M5.06635 31.9576C5.02285 31.6001 5.07065 31.2375 5.20534 30.9031C5.34002 30.5687 5.55727 30.2734 5.83706 30.0443C7.51253 28.68 11.852 26.9663 20.6147 30.976C20.8854 31.087 21.107 31.2908 21.2392 31.5503C21.3714 31.8099 21.4054 32.1079 21.3351 32.3902C21.3115 32.4663 21.2705 32.5359 21.2153 32.5937C21.1601 32.6514 21.0921 32.6957 21.0168 32.7229C20.6649 32.8727 19.157 33.2387 14.7505 31.342L14.2982 31.1424C13.9249 30.9747 13.4999 30.9611 13.1165 31.1047C12.7332 31.2482 12.423 31.5371 12.2541 31.9077C12.0852 32.2784 12.0716 32.7004 12.2161 33.0811C12.3606 33.4618 12.6516 33.7698 13.0248 33.9375L13.5107 34.1538C17.5988 35.9174 20.3801 36.3499 22.2734 35.5181C22.7354 35.3214 23.1503 35.03 23.491 34.663C23.8317 34.296 24.0905 33.8617 24.2504 33.3885C24.5774 32.3861 24.5185 31.2989 24.0853 30.3371C23.652 29.3753 22.8752 28.6071 21.9048 28.1809C12.1536 23.7387 6.82559 25.4357 3.94379 27.6485C3.25058 28.1918 2.70831 28.9016 2.36824 29.7109C2.02816 30.5202 1.90151 31.4023 2.00025 32.2737L2.85474 39.6442L1.39708 39.7939C0.990673 39.8319 0.616033 40.0284 0.35533 40.3403C0.0946272 40.6522 -0.0308397 41.054 0.00644949 41.4577C0.0437514 41.8387 0.221972 42.1925 0.506678 42.4506C0.791384 42.7088 1.16236 42.8529 1.54788 42.8553H1.71542L4.7145 42.5558C5.11613 42.5096 5.48396 42.3103 5.74032 41.9998C5.99668 41.6894 6.1215 41.2921 6.08839 40.892L5.06635 31.9576Z" fill="#09A59B"/>
<path d="M38.9945 30.6098V30.4934C38.8822 30.0517 38.674 29.6397 38.3846 29.2862C38.0952 28.9327 37.7315 28.6463 37.319 28.4469C36.7863 28.2202 36.2097 28.1131 35.6305 28.1333C35.0512 28.1534 34.4836 28.3003 33.9681 28.5634C29.88 30.2271 27.6181 31.1589 27.6013 31.1589C27.4039 31.2294 27.223 31.3393 27.0698 31.4817C26.9166 31.6241 26.7943 31.7961 26.7104 31.9871C26.6265 32.1781 26.5828 32.3841 26.5819 32.5925C26.581 32.8009 26.623 33.0073 26.7052 33.199C26.7875 33.3907 26.9083 33.5638 27.0602 33.7075C27.2122 33.8512 27.3921 33.9626 27.589 34.0348C27.7858 34.1071 27.9954 34.1386 28.205 34.1276C28.4146 34.1166 28.6196 34.0631 28.8077 33.9706C28.8077 33.9706 31.0696 33.0223 35.1242 31.3918C35.363 31.2881 35.6181 31.2262 35.8781 31.2088V31.3585V31.4916C36.0256 31.9245 36.1322 32.3701 36.1965 32.8226L18.0512 39.827L10.6624 36.4163C10.4798 36.3322 10.2822 36.2846 10.0811 36.2763C9.87997 36.268 9.67915 36.2991 9.49012 36.3679C9.30109 36.4366 9.12755 36.5417 8.9794 36.677C8.83125 36.8124 8.71141 36.9754 8.6267 37.1567C8.54199 37.338 8.49408 37.5342 8.4857 37.7339C8.47733 37.9337 8.50865 38.1331 8.57788 38.3208C8.64711 38.5085 8.7529 38.6808 8.8892 38.8279C9.02551 38.975 9.18966 39.0941 9.37228 39.1782L17.3475 42.8884C17.7357 43.0371 18.1657 43.0371 18.5538 42.8884L37.3861 35.6843C40.2008 34.6528 39.4134 32.024 38.9945 30.6098Z" fill="#09A59B"/>
<path d="M35.7943 24.4699H37.1682C37.251 24.4722 37.3334 24.4579 37.4105 24.428C37.4877 24.398 37.558 24.353 37.6174 24.2956C37.6767 24.2383 37.7239 24.1696 37.7561 24.0938C37.7883 24.018 37.8049 23.9366 37.8048 23.8544V10.9103L38.1399 11.2264C38.3407 11.4235 38.6116 11.5341 38.8939 11.5341C39.1762 11.5341 39.4471 11.4235 39.6478 11.2264C39.7593 11.118 39.8478 10.9886 39.9083 10.8457C39.9687 10.7029 39.9999 10.5495 39.9999 10.3945C39.9999 10.2396 39.9687 10.0862 39.9083 9.94337C39.8478 9.80053 39.7593 9.6711 39.6478 9.56266L29.7794 0.41198C29.4991 0.147484 29.1272 0 28.7406 0C28.3539 0 27.982 0.147484 27.7018 0.41198L17.7495 9.56266C17.6324 9.66545 17.5372 9.79045 17.4694 9.9303C17.4017 10.0702 17.3628 10.222 17.355 10.377C17.3472 10.532 17.3706 10.687 17.424 10.8329C17.4774 10.9787 17.5596 11.1125 17.6657 11.2264C17.7532 11.3347 17.8619 11.4243 17.9851 11.4898C18.1083 11.5554 18.2436 11.5956 18.3828 11.6081C18.522 11.6205 18.6624 11.6049 18.7954 11.5622C18.9284 11.5195 19.0514 11.4505 19.1569 11.3595L19.2909 11.2431V24.9524C19.2909 25.1069 19.3527 25.255 19.4627 25.3642C19.5727 25.4734 19.7218 25.5347 19.8774 25.5347H37.2184C37.2969 25.5348 37.3745 25.5192 37.4468 25.4889C37.519 25.4586 37.5844 25.4142 37.6391 25.3584C37.6938 25.3025 37.7366 25.2363 37.7651 25.1638C37.7936 25.0912 37.8071 25.0137 37.8048 24.9358V22.906C37.8049 22.7412 37.7401 22.5828 37.6243 22.4647C37.5085 22.3466 37.3508 22.2781 37.1849 22.2738H35.9283C35.5765 22.2738 35.6267 22.5566 35.6267 22.906H21.8041V9.18L28.7238 3.09063L35.4257 8.9637V23.9375C35.3754 24.1871 35.4592 24.4699 35.7943 24.4699Z" fill="#09A59B"/>
<path d="M31.6716 20.9263C31.1937 20.9296 30.7256 20.7919 30.3267 20.5307C29.9277 20.2694 29.6159 19.8964 29.4307 19.4589C29.2455 19.0215 29.1953 18.5392 29.2865 18.0734C29.3777 17.6076 29.6062 17.1791 29.9429 16.8424C30.2797 16.5057 30.7095 16.2758 31.178 16.182C31.6464 16.0882 32.1324 16.1347 32.5742 16.3155C33.0161 16.4964 33.3939 16.8034 33.6597 17.1978C33.9256 17.5921 34.0675 18.056 34.0675 18.5305C34.0697 18.8444 34.0094 19.1555 33.89 19.4461C33.7706 19.7367 33.5944 20.0009 33.3717 20.2236C33.149 20.4463 32.8842 20.623 32.5924 20.7437C32.3006 20.8643 31.9877 20.9263 31.6716 20.9263ZM31.6716 17.5988C31.5276 17.5804 31.3812 17.5927 31.2423 17.6348C31.1034 17.677 30.9752 17.748 30.8661 17.8433C30.757 17.9385 30.6696 18.0558 30.6098 18.1872C30.5499 18.3186 30.519 18.4612 30.519 18.6054C30.519 18.7496 30.5499 18.8922 30.6098 19.0236C30.6696 19.155 30.757 19.2723 30.8661 19.3675C30.9752 19.4627 31.1034 19.5338 31.2423 19.576C31.3812 19.6181 31.5276 19.6304 31.6716 19.612C31.8157 19.6304 31.962 19.6181 32.1009 19.576C32.2398 19.5338 32.3681 19.4627 32.4771 19.3675C32.5862 19.2723 32.6736 19.155 32.7334 19.0236C32.7933 18.8922 32.8242 18.7496 32.8242 18.6054C32.8242 18.4612 32.7933 18.3186 32.7334 18.1872C32.6736 18.0558 32.5862 17.9385 32.4771 17.8433C32.3681 17.748 32.2398 17.677 32.1009 17.6348C31.962 17.5927 31.8157 17.5804 31.6716 17.5988Z" fill="#09A59B"/>
<path d="M25.9087 14.9713C25.4308 14.9713 24.9637 14.8304 24.5666 14.5664C24.1695 14.3024 23.8602 13.9272 23.6781 13.4885C23.496 13.0497 23.4492 12.5671 23.5437 12.102C23.6382 11.6368 23.8696 11.2099 24.2087 10.8755C24.5478 10.5411 24.9793 10.3143 25.4484 10.2237C25.9175 10.1332 26.4031 10.183 26.8437 10.3669C27.2842 10.5508 27.6599 10.8604 27.9229 11.2566C28.186 11.6528 28.3247 12.1176 28.3214 12.5921C28.3214 12.906 28.2589 13.2167 28.1374 13.5065C28.016 13.7962 27.838 14.0592 27.6137 14.2804C27.3895 14.5015 27.1234 14.6764 26.8307 14.795C26.5381 14.9136 26.2248 14.9735 25.9087 14.9713ZM25.9087 11.6438C25.7647 11.6254 25.6183 11.6376 25.4794 11.6798C25.3405 11.7219 25.2122 11.793 25.1032 11.8883C24.9941 11.9835 24.9068 12.1008 24.8469 12.2322C24.787 12.3636 24.7561 12.5061 24.7561 12.6504C24.7561 12.7946 24.787 12.9372 24.8469 13.0686C24.9068 13.2 24.9941 13.3172 25.1032 13.4125C25.2122 13.5077 25.3405 13.5788 25.4794 13.6209C25.6183 13.6631 25.7647 13.6754 25.9087 13.6569C26.0528 13.6754 26.1991 13.6631 26.338 13.6209C26.4769 13.5788 26.6052 13.5077 26.7142 13.4125C26.8233 13.3172 26.9107 13.2 26.9705 13.0686C27.0304 12.9372 27.0613 12.7946 27.0613 12.6504C27.0613 12.5061 27.0304 12.3636 26.9705 12.2322C26.9107 12.1008 26.8233 11.9835 26.7142 11.8883C26.6052 11.793 26.4769 11.7219 26.338 11.6798C26.1991 11.6376 26.0528 11.6254 25.9087 11.6438Z" fill="#09A59B"/>
<path d="M25.154 19.8445C24.9096 19.8445 24.6752 19.7481 24.5024 19.5765C24.3295 19.4049 24.2325 19.1722 24.2325 18.9295C24.2312 18.8075 24.2559 18.6866 24.305 18.5748C24.3541 18.463 24.4264 18.3627 24.5173 18.2806L31.6883 11.3261C31.868 11.1878 32.0922 11.119 32.3192 11.1325C32.5461 11.146 32.7604 11.2409 32.9222 11.3996C33.084 11.5582 33.1823 11.7698 33.1988 11.995C33.2153 12.2201 33.1489 12.4436 33.0119 12.6238L25.8074 19.595C25.6284 19.7559 25.3954 19.8449 25.154 19.8445Z" fill="#09A59B"/>
</svg>
