<svg width="45" height="40" viewBox="0 0 45 40" fill="none" xmlns="http://www.w3.org/2000/svg">
<path d="M38.8501 2.56394V2.43383H29.5894V11.7271H38.8501V10.3889C38.8501 10.0685 38.977 9.76119 39.2028 9.53462C39.4285 9.30805 39.7347 9.18077 40.054 9.18077C40.3733 9.18077 40.6795 9.30805 40.9053 9.53462C41.1311 9.76119 41.2579 10.0685 41.2579 10.3889V12.9538C41.2532 13.2728 41.1248 13.5773 40.9 13.8028C40.6753 14.0284 40.3718 14.1572 40.054 14.162H28.3855C28.2274 14.162 28.0709 14.1307 27.9248 14.07C27.7788 14.0093 27.6461 13.9203 27.5343 13.8081C27.4225 13.6959 27.3338 13.5628 27.2733 13.4162C27.2128 13.2696 27.1816 13.1125 27.1816 12.9538V1.22571C27.1816 1.06705 27.2128 0.90995 27.2733 0.763374C27.3338 0.616797 27.4225 0.483615 27.5343 0.37143C27.6461 0.259245 27.7788 0.170256 27.9248 0.109542C28.0709 0.0488277 28.2274 0.0175781 28.3855 0.0175781H40.054C40.3733 0.0175781 40.6795 0.144862 40.9053 0.37143C41.1311 0.597998 41.2579 0.90529 41.2579 1.22571V2.56394C41.2579 2.88435 41.1311 3.19165 40.9053 3.41821C40.6795 3.64478 40.3733 3.77207 40.054 3.77207C39.7347 3.77207 39.4285 3.64478 39.2028 3.41821C38.977 3.19165 38.8501 2.88435 38.8501 2.56394Z" fill="#FC7754"/>
<path d="M44.8319 32.9544C44.7532 32.8161 44.648 32.6949 44.5224 32.5976C44.3968 32.5003 44.2533 32.4288 44.1001 32.3874C43.9469 32.3459 43.7871 32.3353 43.6298 32.356C43.4725 32.3768 43.3208 32.4285 43.1835 32.5083L35.2748 37.1178L33.7746 35.0546C33.5785 34.8224 33.3022 34.6731 33.001 34.6365C32.6999 34.5999 32.3961 34.6787 32.1504 34.8572C31.9046 35.0357 31.7351 35.3007 31.6757 35.5992C31.6162 35.8977 31.6713 36.2077 31.8298 36.4672L33.9598 39.4968C34.1321 39.7411 34.3899 39.9113 34.6817 39.9733C34.9735 40.0353 35.2779 39.9846 35.5341 39.8314L44.4059 34.6829C44.5421 34.6024 44.6612 34.4957 44.7563 34.369C44.8514 34.2422 44.9207 34.0979 44.9603 33.9443C44.9998 33.7907 45.0089 33.6308 44.9868 33.4737C44.9648 33.3166 44.9122 33.1654 44.8319 33.0287V32.9544Z" fill="#FC7754"/>
<path d="M38.8503 19.0522V18.9221H29.5896V28.2154H38.8503V26.8772C38.8503 26.5568 38.9771 26.2495 39.2029 26.0229C39.4287 25.7963 39.7349 25.669 40.0542 25.669C40.3735 25.669 40.6797 25.7963 40.9055 26.0229C41.1313 26.2495 41.2581 26.5568 41.2581 26.8772V29.4235C41.2581 29.744 41.1313 30.0512 40.9055 30.2778C40.6797 30.5044 40.3735 30.6317 40.0542 30.6317H28.3857C28.2278 30.6367 28.0705 30.6095 27.9234 30.5518C27.7763 30.494 27.6424 30.4069 27.5298 30.2957C27.4173 30.1845 27.3284 30.0515 27.2685 29.9047C27.2087 29.758 27.1792 29.6006 27.1818 29.4421V17.7326C27.1818 17.4104 27.308 17.1012 27.5333 16.8717C27.7585 16.6421 28.0647 16.5107 28.3857 16.5059H40.0542C40.3735 16.5059 40.6797 16.6331 40.9055 16.8597C41.1313 17.0863 41.2581 17.3936 41.2581 17.714V19.0522C41.2581 19.3726 41.1313 19.6799 40.9055 19.9065C40.6797 20.1331 40.3735 20.2604 40.0542 20.2604C39.7349 20.2604 39.4287 20.1331 39.2029 19.9065C38.9771 19.6799 38.8503 19.3726 38.8503 19.0522Z" fill="#FC7754"/>
<path d="M44.833 20.0383C44.7542 19.9001 44.6491 19.7788 44.5235 19.6815C44.3979 19.5842 44.2544 19.5128 44.1012 19.4714C43.948 19.4299 43.7881 19.4192 43.6308 19.44C43.4735 19.4607 43.3219 19.5125 43.1846 19.5923L35.2759 24.2017L33.7757 22.1386C33.6824 22.0096 33.5643 21.9008 33.4282 21.8185C33.2922 21.7362 33.1411 21.6822 32.9839 21.6597C32.8267 21.6371 32.6666 21.6465 32.5131 21.6873C32.3595 21.7281 32.2157 21.7994 32.0902 21.897C31.8372 22.0861 31.6683 22.3674 31.6198 22.6802C31.5713 22.993 31.6471 23.3125 31.8309 23.5698L33.9609 26.4879C34.1332 26.7322 34.391 26.9023 34.6828 26.9643C34.9746 27.0263 35.279 26.9757 35.5352 26.8224L44.407 21.674C44.5432 21.5934 44.6622 21.4867 44.7574 21.36C44.8525 21.2333 44.9218 21.089 44.9614 20.9354C45.0009 20.7818 45.0099 20.6219 44.9879 20.4648C44.9659 20.3076 44.9132 20.1564 44.833 20.0198V20.0383Z" fill="#FC7754"/>
<path d="M17.2542 17.6027C18.8114 16.4889 20.0045 14.9367 20.6825 13.1423C21.3605 11.348 21.4931 9.39225 21.0635 7.52232C20.6338 5.6524 19.6613 3.95232 18.2688 2.63711C16.8763 1.32189 15.1264 0.450606 13.2404 0.13344C11.3544 -0.183726 9.41711 0.0674732 7.67342 0.85527C5.92972 1.64307 4.45799 2.93207 3.44434 4.55928C2.4307 6.18648 1.92066 8.0788 1.97875 9.9969C2.03683 11.915 2.66041 13.7727 3.77065 15.3352C4.39662 16.2265 5.17404 17.0004 6.06732 17.6213C1.91852 20.2792 0.288624 25.7065 0.0108022 28.9963C-0.0147559 29.2205 0.00515103 29.4476 0.0693317 29.6639C0.133512 29.8802 0.240644 30.0812 0.384263 30.2548C0.527883 30.4284 0.705028 30.5711 0.905037 30.6743C1.10505 30.7774 1.32378 30.8389 1.54808 30.855H1.69626C2.11358 30.8516 2.51446 30.6912 2.81967 30.4056C3.12488 30.12 3.31222 29.7298 3.34467 29.3123C3.34467 28.922 4.25222 19.4614 11.6237 19.4614C19.2546 19.4614 20.1251 28.922 20.1621 29.3123C20.1965 29.7559 20.4051 30.1677 20.742 30.457C21.0789 30.7463 21.5166 30.8895 21.9587 30.855C22.4008 30.8205 22.8111 30.6111 23.0994 30.273C23.3877 29.9349 23.5304 29.4957 23.496 29.0521C23.2367 25.7065 21.5697 20.242 17.2542 17.6027ZM11.6978 3.36542C12.9458 3.38009 14.1616 3.76439 15.1927 4.47009C16.2238 5.17578 17.0242 6.17141 17.4933 7.332C17.9625 8.49258 18.0796 9.76638 17.8299 10.9935C17.5801 12.2206 16.9747 13.3464 16.0897 14.2294C15.2046 15.1125 14.0793 15.7134 12.8551 15.9569C11.6308 16.2004 10.3622 16.0755 9.20842 15.598C8.05465 15.1205 7.06716 14.3115 6.36993 13.2727C5.6727 12.234 5.29679 11.0116 5.28941 9.7592C5.28452 8.92132 5.44476 8.09073 5.76091 7.31522C6.07705 6.5397 6.54286 5.83456 7.13155 5.24035C7.72023 4.64614 8.42017 4.17459 9.19111 3.85282C9.96205 3.53104 10.7888 3.3654 11.6237 3.36542H11.6978Z" fill="#FC7754"/>
</svg>
