<svg width="40" height="38" viewBox="0 0 40 38" fill="none" xmlns="http://www.w3.org/2000/svg">
<path d="M31.4262 21.204C30.4235 21.1922 29.4277 21.3714 28.4927 21.7317C28.3597 21.0085 27.9731 20.3557 27.4016 19.8895C26.8301 19.4233 26.1108 19.174 25.3719 19.186C22.532 19.186 16.0095 19.186 13.0447 19.186C12.4204 19.3901 11.8767 19.7852 11.4913 20.3148C11.1059 20.8444 10.8984 21.4815 10.8984 22.1354C10.8984 22.7892 11.1059 23.4263 11.4913 23.9559C11.8767 24.4855 12.4204 24.8806 13.0447 25.0847C13.4947 25.8676 13.7129 26.761 13.6743 27.6619C13.6356 28.5628 13.3416 29.4345 12.8263 30.1763C13.3398 30.7179 13.6259 31.4343 13.6259 32.1788C13.6259 32.9233 13.3398 33.6397 12.8263 34.1813C12.8641 34.9514 13.1886 35.6799 13.7366 36.2251C14.2847 36.7702 15.017 37.0931 15.791 37.1307H27.8372C28.9761 37.6912 30.2276 37.9883 31.4982 37.9996C32.7688 38.011 34.0254 37.7363 35.1742 37.1962C36.323 36.6561 37.3341 35.8645 38.1319 34.8807C38.9297 33.8969 39.4935 32.7464 39.7811 31.5152C40.0688 30.2839 40.0728 29.004 39.7929 27.771C39.513 26.538 38.9565 25.384 38.1649 24.3952C37.3733 23.4064 36.3672 22.6086 35.2218 22.0613C34.0765 21.5141 32.8216 21.2316 31.551 21.235L31.4262 21.204ZM14.6051 30.1763C14.611 29.9056 14.7155 29.6462 14.8992 29.4463C15.0829 29.2465 15.3333 29.1197 15.6038 29.0897H23.0313C23.0313 29.276 23.0313 29.4312 23.0313 29.5865C23.0318 30.1402 23.0946 30.6921 23.2185 31.2319H15.6349C15.3671 31.2091 15.1171 31.0887 14.9328 30.894C14.7486 30.6992 14.6431 30.4437 14.6364 30.1763H14.6051ZM23.3745 27.0717H15.6038C15.3193 27.0404 15.0585 26.8992 14.8776 26.6786C14.6967 26.4579 14.6101 26.1755 14.6364 25.8919C14.6493 25.6512 14.7471 25.4228 14.9127 25.2468C15.0782 25.0707 15.3008 24.9584 15.5413 24.9295H24.342C23.9159 25.5858 23.58 26.2958 23.3433 27.0407L23.3745 27.0717ZM11.9213 22.0112C11.9213 21.723 12.0364 21.4466 12.2412 21.2428C12.446 21.039 12.7238 20.9246 13.0135 20.9246H25.7464C26.0278 20.9246 26.2977 21.0358 26.4966 21.2337C26.6956 21.4317 26.8074 21.7002 26.8074 21.9801C26.8074 22.2601 26.6956 22.5286 26.4966 22.7265C26.2977 22.9245 26.0278 23.0357 25.7464 23.0357H12.9511C12.8077 23.0357 12.6656 23.0076 12.5331 22.953C12.4006 22.8984 12.2802 22.8183 12.1787 22.7174C12.0773 22.6165 11.9969 22.4967 11.942 22.3649C11.8871 22.2331 11.8588 22.0918 11.8588 21.9491L11.9213 22.0112ZM14.6051 34.0571C14.6118 33.7897 14.7174 33.5342 14.9017 33.3395C15.086 33.1447 15.3359 33.0244 15.6038 33.0015H23.8115C24.1717 33.7874 24.6564 34.5107 25.247 35.1437H15.6974C15.554 35.1437 15.4119 35.1156 15.2794 35.061C15.1469 35.0064 15.0265 34.9264 14.925 34.8255C14.8236 34.7246 14.7432 34.6048 14.6883 34.4729C14.6334 34.3411 14.6051 34.1998 14.6051 34.0571ZM31.4262 35.982C30.0735 35.9928 28.75 35.5909 27.634 34.8304C26.518 34.0699 25.6631 32.9873 25.1846 31.7286C24.7412 30.5153 24.6697 29.1983 24.9795 27.9446C25.2892 26.6908 25.9662 25.5568 26.9245 24.6862C27.8829 23.8157 29.0794 23.2478 30.3626 23.0545C31.6457 22.8612 32.9577 23.0513 34.1321 23.6006C35.3066 24.1499 36.2906 25.0337 36.9596 26.14C37.6285 27.2463 37.9523 28.5253 37.8898 29.8148C37.8272 31.1044 37.3812 32.3464 36.6083 33.3836C35.8354 34.4207 34.7704 35.2062 33.5483 35.6405C32.849 35.8995 32.1099 36.0361 31.3637 36.0441L31.4262 35.982Z" fill="#FF1203"/>
<path d="M30.9875 27.6H32.9848C33.2331 27.6 33.4712 27.5019 33.6468 27.3272C33.8224 27.1525 33.921 26.9156 33.921 26.6686C33.921 26.4216 33.8224 26.1847 33.6468 26.01C33.4712 25.8354 33.2331 25.7372 32.9848 25.7372H32.7351V25.0232C32.7351 24.7762 32.6365 24.5393 32.4609 24.3646C32.2853 24.1899 32.0472 24.0918 31.7989 24.0918C31.5531 24.0996 31.3194 24.2002 31.1455 24.3732C30.9716 24.5462 30.8704 24.7786 30.8626 25.0232V25.8614C29.7703 25.8614 28.959 26.5444 28.959 27.4137V29.0902C28.959 29.9595 29.8328 30.6426 30.9875 30.6426H32.0173V31.5429H29.8952C29.6494 31.5507 29.4158 31.6513 29.2418 31.8243C29.0679 31.9973 28.9668 32.2297 28.959 32.4743C28.959 32.7213 29.0576 32.9582 29.2332 33.1329C29.4088 33.3075 29.6469 33.4057 29.8952 33.4057H30.8626V34.1197C30.8704 34.3643 30.9716 34.5967 31.1455 34.7697C31.3194 34.9427 31.5531 35.0433 31.7989 35.0511C32.0472 35.0511 32.2853 34.953 32.4609 34.7783C32.6365 34.6036 32.7351 34.3667 32.7351 34.1197V33.2815C33.0608 33.2018 33.3521 33.0199 33.5657 32.7627C33.7793 32.5054 33.9039 32.1866 33.921 31.8534V30.3321C33.921 29.4317 33.0472 28.7798 31.8925 28.7798H30.8315V27.7863L30.9875 27.6Z" fill="#FF1203"/>
<path d="M11.4241 16.9525H6.21234C5.9048 16.9495 5.60815 16.839 5.37424 16.6404C5.14033 16.4417 4.98405 16.1676 4.9328 15.8659C4.91555 15.7068 4.93017 15.5458 4.97585 15.3923C5.02154 15.2388 5.09742 15.0959 5.199 14.9717C5.30057 14.8476 5.42586 14.7447 5.56767 14.669C5.70947 14.5934 5.86494 14.5464 6.0251 14.5309H11.3616C11.6844 14.5062 12.0039 14.6101 12.2497 14.8197C12.4955 15.0293 12.6476 15.3275 12.6724 15.6486C12.6972 15.9697 12.5928 16.2875 12.3821 16.532C12.1714 16.7766 11.8716 16.9278 11.5489 16.9525H11.4241Z" fill="#FF1203"/>
<path d="M10.4234 35.0512H1.21706C0.89426 35.0512 0.58473 34.9236 0.356479 34.6966C0.128227 34.4695 0 34.1615 0 33.8404V1.2108C0 0.889676 0.128227 0.581702 0.356479 0.354633C0.58473 0.127563 0.89426 6.07383e-08 1.21706 6.07383e-08H23.718C24.0437 -0.00010122 24.3566 0.126465 24.5898 0.352684C24.823 0.578904 24.9581 0.886853 24.9663 1.2108V16.2993C24.9696 16.6069 24.8608 16.9054 24.66 17.1394C24.4592 17.3734 24.1799 17.5271 23.874 17.5722C23.7133 17.5938 23.5498 17.5824 23.3937 17.5387C23.2376 17.495 23.0922 17.4199 22.9664 17.318C22.8407 17.2162 22.7372 17.0898 22.6624 16.9466C22.5877 16.8034 22.5434 16.6465 22.5321 16.4855V2.4216H2.40297V32.6296H10.4858C10.6468 32.6253 10.807 32.6537 10.9566 32.713C11.1063 32.7724 11.2421 32.8614 11.356 32.9747C11.4699 33.088 11.5594 33.2232 11.619 33.372C11.6787 33.5209 11.7072 33.6802 11.7029 33.8404C11.6869 34.1671 11.545 34.4751 11.3067 34.7006C11.0685 34.926 10.7522 35.0516 10.4234 35.0512Z" fill="#FF1203"/>
<path d="M18.5353 7.32686H6.05218C5.74465 7.32385 5.44799 7.21337 5.21408 7.01472C4.98017 6.81608 4.82389 6.54193 4.77265 6.24025C4.75539 6.0811 4.77001 5.92012 4.8157 5.76663C4.86138 5.61314 4.93717 5.47018 5.03875 5.34603C5.14032 5.22188 5.26571 5.119 5.40751 5.04335C5.54931 4.96769 5.70479 4.92075 5.86494 4.90526H18.3481C18.6709 4.87644 18.9919 4.97637 19.2407 5.18306C19.4894 5.38975 19.6454 5.68627 19.6744 6.0074C19.7033 6.32852 19.6029 6.64794 19.3951 6.89539C19.1874 7.14284 18.8893 7.29804 18.5665 7.32686H18.5353Z" fill="#FF1203"/>
<path d="M18.5353 12.1394H6.05218C5.74465 12.1364 5.44799 12.0259 5.21408 11.8272C4.98017 11.6286 4.82389 11.3544 4.77265 11.0527C4.75539 10.8936 4.77001 10.7326 4.8157 10.5791C4.86138 10.4256 4.93717 10.2827 5.03875 10.1585C5.14032 10.0344 5.26571 9.93151 5.40751 9.85585C5.54931 9.78019 5.70479 9.73325 5.86494 9.71776H18.3481C18.6709 9.68894 18.9919 9.78887 19.2407 9.99557C19.4894 10.2023 19.6454 10.4988 19.6744 10.8199C19.7033 11.141 19.6029 11.4604 19.3951 11.7079C19.1874 11.9553 18.8893 12.1105 18.5665 12.1394H18.5353Z" fill="#FF1203"/>
<path d="M28.9004 17.7557L34.1434 13.4092C34.7675 12.8814 35.2356 12.1363 34.7051 11.4843C34.1746 10.8323 33.3008 11.1739 32.6766 11.7016L27.4337 16.0481C26.8096 16.5449 26.4975 17.2279 27.028 17.8488C27.5585 18.4697 28.2762 18.2524 28.9004 17.7557Z" fill="#FF1203"/>
<path d="M29.5569 10.7397C29.4085 10.7225 29.2581 10.7358 29.115 10.7788C28.972 10.8218 28.8392 10.8935 28.7251 10.9895C28.611 11.0856 28.518 11.2039 28.4517 11.3371C28.3854 11.4704 28.3473 11.6157 28.3398 11.7642C28.3225 12.064 28.4239 12.3585 28.6223 12.5848C28.8206 12.8111 29.1 12.9512 29.4008 12.975C29.6812 12.9691 29.9499 12.8619 30.1567 12.6734C30.3634 12.4848 30.4941 12.2279 30.5244 11.9505C30.5372 11.8036 30.5207 11.6557 30.4758 11.5152C30.4309 11.3747 30.3585 11.2444 30.2627 11.1319C30.167 11.0193 30.0498 10.9267 29.918 10.8594C29.7861 10.7921 29.6422 10.7514 29.4945 10.7397H29.5569Z" fill="#FF1203"/>
<path d="M32.5824 15.7071C32.2778 15.6895 31.978 15.7893 31.7455 15.9859C31.5131 16.1825 31.3657 16.4607 31.3341 16.7626C31.3214 16.912 31.3389 17.0623 31.3857 17.2047C31.4326 17.3472 31.5077 17.4788 31.6067 17.5917C31.7057 17.7047 31.8265 17.7967 31.9619 17.8623C32.0974 17.9279 32.2447 17.9657 32.3952 17.9734C32.6776 17.9744 32.95 17.8695 33.1582 17.6797C33.3664 17.4898 33.4951 17.2289 33.5186 16.9489C33.5314 16.802 33.5149 16.6541 33.47 16.5136C33.4251 16.3731 33.3527 16.2428 33.257 16.1303C33.1613 16.0177 33.0441 15.9251 32.9122 15.8578C32.7804 15.7905 32.6365 15.7498 32.4888 15.7381L32.5824 15.7071Z" fill="#FF1203"/>
</svg>
