<svg width="40" height="40" viewBox="0 0 40 40" fill="none" xmlns="http://www.w3.org/2000/svg">
<path d="M19.6032 0C14.4092 0.0555615 9.44488 2.11793 5.77867 5.74328C2.11245 9.36863 0.0373794 14.2672 0 19.3847V19.7861C0.00187138 19.9765 0.0593331 20.1624 0.165577 20.3215C0.271821 20.4806 0.422353 20.6062 0.59912 20.6833H0.862697C1.74939 21.0611 2.34853 20.4944 2.82783 20.0458C3.30712 19.5972 5.82342 17.1889 7.42906 17.1889C8.39828 17.1861 9.34688 17.4645 10.1566 17.9894C10.9663 18.5142 11.6013 19.2623 11.9824 20.1403C12.1776 20.5753 12.5361 20.919 12.9828 21.0995C13.4296 21.2799 13.9298 21.2831 14.3789 21.1083C14.8151 20.9143 15.1645 20.5701 15.3614 20.1403C15.6572 19.4677 16.1079 18.8721 16.6778 18.4008C17.2476 17.9296 17.921 17.5955 18.6446 17.425V29.7736C18.631 30.1253 18.7553 30.4686 18.9918 30.7324C19.2283 30.9962 19.5588 31.1602 19.9147 31.1902C20.7535 31.1902 21.4485 25.3819 21.4485 24.5791V17.425C22.1438 17.6204 22.7853 17.9683 23.3248 18.4426C23.8643 18.9169 24.2879 19.5054 24.5639 20.1639C24.7058 20.4995 24.9454 20.7862 25.2525 20.9879C25.5595 21.1896 25.9203 21.2972 26.2893 21.2972C26.6584 21.2972 27.0192 21.1896 27.3262 20.9879C27.6333 20.7862 27.8729 20.4995 28.0148 20.1639C28.3959 19.2859 29.0309 18.5378 29.8406 18.013C30.6503 17.4881 31.5989 17.2097 32.5681 17.2125C34.1738 17.2125 36.4265 19.3611 37.1694 20.0694C37.9123 20.7777 38.2478 21.0847 39.1345 20.7069H39.3981C39.5731 20.6275 39.722 20.5013 39.8279 20.3427C39.9338 20.1841 39.9925 19.9995 39.9972 19.8097C39.9941 17.2187 39.4726 14.6536 38.4625 12.2613C37.4525 9.869 35.9738 7.6963 34.1108 5.86745C32.2479 4.03861 30.0374 2.58949 27.6056 1.60296C25.1738 0.616432 22.5685 0.111846 19.9387 0.118054L19.6032 0ZM32.5202 14.4264C31.3286 14.4254 30.1529 14.6955 29.0846 15.2156C28.0163 15.7357 27.0843 16.4918 26.3613 17.425C25.1211 15.7916 23.2736 14.7101 21.2246 14.4179C19.1756 14.1257 17.0926 14.6468 15.4333 15.8666C14.8292 16.3123 14.2891 16.8365 13.8277 17.425C13.0959 16.4895 12.1555 15.7325 11.0792 15.2125C10.0029 14.6925 8.81953 14.4235 7.62079 14.4264C6.06841 14.5362 4.58771 15.1131 3.37901 16.0791C4.24637 12.3349 6.37845 8.99173 9.42608 6.59717C12.4737 4.20261 16.2563 2.89855 20.1544 2.89855C24.0524 2.89855 27.835 4.20261 30.8826 6.59717C33.9303 8.99173 36.0623 12.3349 36.9297 16.0791C35.721 15.1131 34.2404 14.5362 32.688 14.4264H32.5202Z" fill="#FF03B8"/>
<path d="M27.4667 40.0006C25.6967 40.0052 23.9652 39.4921 22.4915 38.5262C21.0179 37.5602 19.8685 36.185 19.1889 34.5748C18.5094 32.9646 18.3304 31.1919 18.6745 29.4813C19.0186 27.7707 19.8705 26.1993 21.1221 24.9662C22.3736 23.7331 23.9686 22.8939 25.7048 22.5548C27.441 22.2157 29.2403 22.3921 30.8746 23.0616C32.509 23.7311 33.9048 24.8636 34.8851 26.3155C35.8655 27.7674 36.3864 29.4734 36.3816 31.2172C36.3753 33.5448 35.434 35.7753 33.7635 37.4211C32.093 39.0669 29.8292 39.9943 27.4667 40.0006ZM27.4667 24.5353C26.1244 24.5306 24.8108 24.9185 23.6923 25.6499C22.5739 26.3813 21.7009 27.4232 21.1839 28.6438C20.6669 29.8643 20.5292 31.2086 20.7881 32.5063C21.0471 33.804 21.6911 34.9968 22.6387 35.9337C23.5862 36.8705 24.7946 37.5093 26.1108 37.769C27.427 38.0287 28.7919 37.8978 30.0326 37.3928C31.2732 36.8877 32.3339 36.0313 33.0801 34.932C33.8264 33.8326 34.2248 32.5398 34.2248 31.2172C34.2536 30.3625 34.1107 29.5106 33.8043 28.7105C33.498 27.9103 33.0342 27.1776 32.4397 26.5546C31.8451 25.9315 31.1315 25.4303 30.3397 25.0797C29.548 24.7291 28.6938 24.5361 27.8262 24.5117L27.4667 24.5353Z" fill="#FF03B8"/>
<path d="M28.1567 33.0554H26.1197C25.9185 33.0887 25.7359 33.1912 25.6042 33.3447C25.4725 33.4981 25.4002 33.6926 25.4002 33.8936C25.4002 34.0945 25.4725 34.289 25.6042 34.4424C25.7359 34.5959 25.9185 34.6984 26.1197 34.7318H27.222V36.0776C27.2559 36.2757 27.3599 36.4557 27.5157 36.5854C27.6714 36.7152 27.8688 36.7864 28.0728 36.7864C28.2768 36.7864 28.4741 36.7152 28.6299 36.5854C28.7856 36.4557 28.8897 36.2757 28.9235 36.0776V34.6137C29.2401 34.5435 29.5252 34.3746 29.7367 34.1322C29.9482 33.8898 30.0748 33.5867 30.0978 33.2679V31.7331C30.0978 30.8831 29.2591 30.2692 28.1567 30.2692H27.222H26.9824V29.0651H29.1871C29.3883 29.0317 29.5709 28.9292 29.7026 28.7758C29.8343 28.6223 29.9066 28.4279 29.9066 28.2269C29.9066 28.0259 29.8343 27.8315 29.7026 27.678C29.5709 27.5246 29.3883 27.4221 29.1871 27.3887H28.8516V26.1845C28.8725 26.0627 28.8661 25.9378 28.8329 25.8186C28.7998 25.6995 28.7407 25.5889 28.6597 25.4945C28.5787 25.4001 28.4778 25.3243 28.364 25.2723C28.2502 25.2203 28.1263 25.1934 28.0009 25.1934C27.8755 25.1934 27.7516 25.2203 27.6378 25.2723C27.524 25.3243 27.4231 25.4001 27.3421 25.4945C27.2612 25.5889 27.202 25.6995 27.1688 25.8186C27.1357 25.9378 27.1293 26.0627 27.1501 26.1845V27.3887C26.0477 27.3887 25.209 28.0262 25.209 28.8526V30.529C25.209 31.379 26.0477 31.9929 27.1501 31.9929H28.0848H28.3244V33.0554H28.1567Z" fill="#FF03B8"/>
</svg>
