<svg width="40" height="41" viewBox="0 0 40 41" fill="none" xmlns="http://www.w3.org/2000/svg">
<path d="M32.1189 31.5263C30.5649 33.1657 28.6916 34.4702 26.614 35.3596C24.5364 36.2489 22.2987 36.7042 20.0384 36.6975C16.2361 36.6893 12.5496 35.39 9.58423 33.0129C6.61888 30.6358 4.55098 27.3223 3.72006 23.6163L7.11409 26.1061C7.28764 26.2394 7.48631 26.3365 7.69823 26.3914C7.91014 26.4463 8.13097 26.458 8.34752 26.4259C8.56407 26.3937 8.77191 26.3183 8.95863 26.2041C9.14536 26.09 9.30714 25.9394 9.43433 25.7614C9.56577 25.5855 9.66113 25.3855 9.71493 25.1727C9.76873 24.9599 9.77992 24.7386 9.74785 24.5215C9.71578 24.3044 9.64109 24.0957 9.52805 23.9075C9.41502 23.7193 9.26588 23.5553 9.08919 23.4248L2.6654 18.675C2.30801 18.4148 1.86264 18.3051 1.42512 18.3696C0.987605 18.4341 0.592916 18.6675 0.325992 19.0197C0.112935 19.3081 -0.00137624 19.6573 1.25055e-05 20.0157C0.0057309 24.0092 1.20743 27.9097 3.45058 31.2155C5.69372 34.5214 8.87575 37.0814 12.5874 38.5663C16.299 40.0512 20.3706 40.3932 24.2783 39.5482C28.1861 38.7032 31.7515 36.7099 34.5158 33.8246C34.8239 33.5097 34.9963 33.0869 34.9963 32.6467C34.9963 32.2065 34.8239 31.7837 34.5158 31.4688C34.203 31.1566 33.7788 30.9811 33.3365 30.9811C32.8942 30.9811 32.4701 31.1566 32.1573 31.4688L32.1189 31.5263Z" fill="#0092FF"/>
<path d="M20.038 0C14.9224 0.00242871 10.0021 1.96269 6.28923 5.4776C6.13058 5.62851 6.00325 5.80915 5.9145 6.00921C5.82575 6.20927 5.77732 6.42482 5.77198 6.64358C5.76664 6.86233 5.80449 7.07999 5.88337 7.28413C5.96225 7.48827 6.08061 7.6749 6.2317 7.83335C6.38279 7.99181 6.56363 8.11898 6.76393 8.20762C6.96423 8.29627 7.18005 8.34464 7.39907 8.34997C7.61808 8.35531 7.83602 8.31751 8.04041 8.23872C8.24479 8.15994 8.43163 8.04172 8.59028 7.89081C10.7535 5.84526 13.4257 4.41555 16.3292 3.75022C19.2326 3.08489 22.2615 3.20821 25.1011 4.10735C27.9408 5.0065 30.4876 6.64868 32.4769 8.8633C34.4663 11.0779 35.8257 13.7842 36.4139 16.7009L32.1569 13.8664C31.7882 13.6124 31.3336 13.5151 30.8931 13.5959C30.4525 13.6767 30.0622 13.929 29.8079 14.2973C29.5536 14.6656 29.4562 15.1196 29.5372 15.5596C29.6181 15.9996 29.8707 16.3895 30.2394 16.6435L37.4302 21.4124C37.7994 21.6521 38.2484 21.7362 38.6795 21.6465C39.1105 21.5568 39.4886 21.3006 39.7312 20.9336C39.9059 20.6587 39.9989 20.3399 39.9997 20.0143C39.9997 14.7194 37.8991 9.64029 34.1577 5.88907C30.4164 2.13786 25.3392 0.0202675 20.038 0Z" fill="#0092FF"/>
<path d="M20.5549 24.4377H16.5664C16.1239 24.4377 15.6996 24.6132 15.3867 24.9257C15.0738 25.2382 14.8981 25.662 14.8981 26.104C14.8981 26.5459 15.0738 26.9697 15.3867 27.2822C15.6996 27.5947 16.1239 27.7702 16.5664 27.7702H18.714V30.4516C18.714 30.8935 18.8898 31.3173 19.2026 31.6298C19.5155 31.9423 19.9398 32.1178 20.3823 32.1178C20.8247 32.1178 21.249 31.9423 21.5619 31.6298C21.8748 31.3173 22.0505 30.8935 22.0505 30.4516V27.5595C22.6826 27.4201 23.2523 27.0796 23.6741 26.5892C24.0959 26.0988 24.3471 25.485 24.3899 24.8399V21.8138C24.3899 20.1284 22.7409 18.8835 20.5549 18.8835H18.7332C18.5683 18.9125 18.3995 18.9125 18.2346 18.8835V16.4128C18.3995 16.3838 18.5683 16.3838 18.7332 16.4128H22.7217C23.1641 16.4128 23.5885 16.2373 23.9013 15.9248C24.2142 15.6123 24.3899 15.1885 24.3899 14.7466C24.3899 14.3046 24.2142 13.8808 23.9013 13.5683C23.5885 13.2558 23.1641 13.0803 22.7217 13.0803H22.0505V10.6096C22.0505 10.1677 21.8748 9.74388 21.5619 9.43139C21.249 9.11891 20.8247 8.94336 20.3823 8.94336C19.9398 8.94336 19.5155 9.11891 19.2026 9.43139C18.8898 9.74388 18.714 10.1677 18.714 10.6096V13.0228C16.528 13.0228 14.8789 14.2869 14.8789 15.934V19.3048C14.8789 20.9903 16.528 22.2352 18.714 22.2352H20.5357C20.7008 22.2087 20.8691 22.2087 21.0342 22.2352V24.3419L20.5549 24.4377Z" fill="#0092FF"/>
</svg>
