<svg width="40" height="39" viewBox="0 0 40 39" fill="none" xmlns="http://www.w3.org/2000/svg">
<path d="M26.797 8.90642L28.5354 6.02597L29.0831 5.12002C29.4164 4.60897 29.6784 4.51606 30.2261 4.81804L35.4887 7.86109L37.6795 9.11548C38.2034 9.41746 38.2748 9.69622 37.9891 10.2073L37.37 11.2294H37.9653C38.2326 11.2163 38.4998 11.2576 38.7498 11.3507C38.9999 11.4438 39.2274 11.5867 39.4177 11.7703C39.6081 11.9538 39.7573 12.174 39.8557 12.4168C39.9541 12.6596 39.9996 12.9197 39.9894 13.1806V31.137C40.0199 31.4209 39.9846 31.7078 39.8861 31.9766C39.7876 32.2454 39.6285 32.4891 39.4204 32.6898C39.2124 32.8905 38.9608 33.0431 38.6842 33.1362C38.4076 33.2293 38.113 33.2605 37.8224 33.2276H24.511V35.5506C24.5545 36.0107 24.494 36.4744 24.3339 36.9093C24.1737 37.3441 23.9177 37.7393 23.5839 38.0671C23.2501 38.3949 22.8467 38.6473 22.4021 38.8065C21.9574 38.9657 21.4824 39.0279 21.0105 38.9885H3.48422C3.01948 39.0194 2.55334 38.9529 2.11716 38.7934C1.68099 38.6339 1.2849 38.3851 0.955514 38.0638C0.626131 37.7425 0.371097 37.3561 0.207582 36.9306C0.0440673 36.5051 -0.0241247 36.0504 0.00755493 35.597V3.40104C-0.0241247 2.94769 0.0440673 2.49298 0.207582 2.06749C0.371097 1.642 0.626131 1.2556 0.955514 0.934289C1.2849 0.612976 1.68099 0.3642 2.11716 0.204691C2.55334 0.0451828 3.01948 -0.0213561 3.48422 0.00954737H21.0581C21.5197 -0.0257996 21.9837 0.0372639 22.4178 0.194368C22.8519 0.351472 23.2457 0.598853 23.572 0.919331C23.8982 1.23981 24.1491 1.62571 24.3071 2.05025C24.4652 2.47479 24.5266 2.92779 24.4872 3.37781C24.3856 4.60761 24.7313 5.83303 25.4635 6.839C25.9428 7.50619 26.3879 8.19618 26.797 8.90642ZM16.3194 11.392L15.6526 10.277C15.2954 9.69622 15.3669 9.41747 15.9622 9.09226C18.3435 7.74495 20.6057 6.42087 22.9393 5.09679C23.0306 5.0516 23.1063 4.98132 23.1571 4.89463C23.2079 4.80793 23.2315 4.70863 23.2251 4.60897C23.2251 4.12116 23.2251 3.63334 23.2251 3.14552C23.2353 2.87851 23.1885 2.61234 23.0877 2.3639C22.9869 2.11546 22.8343 1.89018 22.6395 1.70234C22.4447 1.51449 22.212 1.3682 21.9562 1.27274C21.7003 1.17727 21.4269 1.13473 21.1534 1.14779H16.1288V1.82144C16.1227 2.30011 15.925 2.75749 15.578 3.09599C15.231 3.43449 14.7621 3.62732 14.2714 3.63334C12.9379 3.63334 11.5806 3.63334 10.2471 3.63334C9.75637 3.62732 9.28751 3.43449 8.94051 3.09599C8.59351 2.75749 8.39584 2.30011 8.38966 1.82144V1.0781H3.36514C3.08855 1.06108 2.81143 1.10169 2.55217 1.19723C2.29291 1.29277 2.05744 1.44106 1.86147 1.63223C1.6655 1.8234 1.5135 2.05307 1.41556 2.30598C1.31762 2.55889 1.27599 2.82924 1.29343 3.09906V35.6203C1.27202 35.894 1.31153 36.1691 1.40927 36.4266C1.50701 36.6841 1.66066 36.9179 1.85969 37.1121C2.05872 37.3062 2.29843 37.4561 2.56238 37.5515C2.82634 37.6468 3.10832 37.6853 3.38898 37.6645H21.201C21.6774 37.6917 22.1466 37.5412 22.5136 37.2436C22.8806 36.946 23.1179 36.5235 23.1775 36.0616C23.1775 35.1557 23.1775 34.2033 23.1775 33.2509H17.4862C17.047 33.2672 16.6091 33.1948 16.2 33.0383C15.7908 32.8818 15.4193 32.6446 15.1085 32.3414C14.7978 32.0383 14.5545 31.6758 14.3941 31.2766C14.2337 30.8775 14.1595 30.4504 14.1762 30.022V14.4583C14.1751 14.1356 14.2233 13.8146 14.3191 13.5058C14.4554 13.0234 14.7081 12.5797 15.0561 12.212C15.4041 11.8442 15.8372 11.563 16.3194 11.392ZM15.5097 16.8973C15.5132 16.9515 15.5132 17.0058 15.5097 17.06V30.1381C15.5128 30.3822 15.5652 30.6232 15.6638 30.8475C15.7624 31.0718 15.9054 31.275 16.0845 31.4454C16.2636 31.6158 16.4754 31.7502 16.7077 31.8407C16.94 31.9313 17.1884 31.9763 17.4386 31.9732H37.9415C38.4892 31.9732 38.7035 31.741 38.7035 31.2067C38.7035 30.6724 38.7035 29.72 38.7035 28.9999V27.5597H34.8934C34.5497 27.5659 34.2081 27.5048 33.889 27.3801C33.5699 27.2553 33.2797 27.0694 33.0355 26.8334C32.7913 26.5973 32.598 26.3159 32.4672 26.0057C32.3365 25.6956 32.2707 25.363 32.274 25.0277V23.8662C32.2606 23.5241 32.3199 23.1829 32.448 22.8642C32.5761 22.5455 32.7703 22.256 33.0184 22.0139C33.2666 21.7718 33.5634 21.5824 33.8901 21.4574C34.2169 21.3324 34.5665 21.2747 34.9172 21.2877H38.6796V17.5013H17.9148C17.0673 17.5589 16.2234 17.347 15.5097 16.8973ZM29.9642 6.14212L23.868 16.2469H24.9634C25.089 16.2678 25.2182 16.2471 25.3304 16.1882C25.4425 16.1293 25.5313 16.0355 25.5826 15.9217C26.9161 13.5988 28.2972 11.392 29.6784 9.11548C29.9094 8.81597 30.2381 8.60215 30.6104 8.50926C30.9826 8.41637 31.3762 8.44993 31.7263 8.60444L33.5599 9.64976C33.8748 9.87975 34.1005 10.2072 34.2 10.5785C34.2995 10.9498 34.2669 11.343 34.1076 11.6939L31.5834 15.852L31.3691 16.2469H32.5121C32.6157 16.2643 32.7222 16.2461 32.8135 16.1952C32.9047 16.1443 32.975 16.0641 33.0122 15.9682L36.4889 10.2073L36.6317 9.95174L29.9642 6.14212ZM25.2016 11.392L25.7969 10.4163C25.8608 10.3413 25.8958 10.2468 25.8958 10.1492C25.8958 10.0516 25.8608 9.95712 25.7969 9.88206L24.1062 6.95515L23.6299 6.14212L16.9623 9.97497L20.6533 16.0843C20.6802 16.1301 20.7181 16.1688 20.7637 16.1972C20.8093 16.2255 20.8614 16.2426 20.9153 16.2469H22.225C22.1478 16.0868 22.0603 15.9316 21.963 15.7823C21.1534 14.435 20.3438 13.0877 19.5817 11.7404C19.3929 11.3791 19.3492 10.962 19.4593 10.5709C19.5695 10.1798 19.8255 9.84299 20.1771 9.62653L21.9392 8.62767C22.2912 8.4626 22.6914 8.42334 23.0701 8.51674C23.4487 8.61014 23.7817 8.83027 24.0109 9.13871L25.2016 11.392ZM26.7732 16.2469H29.5831C29.5831 16.2469 29.8213 16.1075 29.8927 16.0146L32.7264 11.3687C32.9407 11.0203 32.8931 10.8345 32.5359 10.6254L31.3215 9.92851C30.8928 9.69622 30.7262 9.74268 30.4642 10.1376C29.5117 11.7636 28.5354 13.3665 27.559 14.9693L26.7732 16.2469ZM38.6796 22.5421C37.3223 22.5421 36.0126 22.5421 34.7029 22.5421C34.3911 22.5596 34.0976 22.6914 33.8812 22.9111C33.6649 23.1308 33.5416 23.4222 33.5361 23.7268C33.5361 24.1682 33.5361 24.5863 33.5361 25.0277C33.5327 25.1953 33.5645 25.3618 33.6294 25.517C33.6943 25.6722 33.7911 25.8128 33.9137 25.9303C34.0364 26.0477 34.1823 26.1395 34.3425 26.2C34.5028 26.2605 34.674 26.2884 34.8458 26.282H38.6796V22.5421ZM34.3695 16.2237H38.6796C38.6796 15.1784 38.6796 14.133 38.6796 13.1109C38.6874 13.0246 38.6753 12.9377 38.6442 12.8566C38.6131 12.7754 38.5638 12.7021 38.4999 12.642C38.4359 12.5818 38.359 12.5364 38.2748 12.509C38.1905 12.4817 38.101 12.473 38.0129 12.4838C37.6243 12.4605 37.2347 12.4605 36.8461 12.4838C36.7867 12.48 36.7272 12.4907 36.6731 12.5151C36.6191 12.5394 36.5721 12.5766 36.5365 12.6231L34.3695 16.2237ZM23.0584 15.0158C23.5585 14.2027 24.0109 13.4826 24.4396 12.6928C24.4689 12.6351 24.4842 12.5715 24.4842 12.507C24.4842 12.4425 24.4689 12.3789 24.4396 12.3211C23.9633 11.4849 23.4632 10.6719 22.987 9.88206C22.9628 9.82379 22.9255 9.77158 22.8777 9.72932C22.83 9.68707 22.7732 9.65585 22.7114 9.63799C22.6496 9.62014 22.5845 9.6161 22.5209 9.62618C22.4573 9.63626 22.3968 9.6602 22.344 9.69622C21.8678 9.97497 21.3677 10.2305 20.9391 10.5325C20.8613 10.5969 20.8027 10.6804 20.7692 10.7743C20.7357 10.8682 20.7286 10.9692 20.7486 11.0668C21.4629 12.4837 22.2488 13.7614 23.0584 15.0158ZM19.2007 16.154C19.1927 16.1079 19.1927 16.0608 19.2007 16.0146L17.129 12.6928C17.129 12.4605 16.8671 12.507 16.6766 12.5767C16.2941 12.7379 15.9746 13.0143 15.7646 13.3654C15.5547 13.7164 15.4654 14.1238 15.5097 14.5279C15.5465 14.9494 15.7333 15.3451 16.0378 15.6463C16.3422 15.9475 16.7451 16.1354 17.1766 16.1772C17.8496 16.2355 18.5252 16.2587 19.2007 16.2469V16.154ZM9.67558 1.0781V1.61238C9.66409 1.70659 9.67466 1.80212 9.7065 1.89177C9.73834 1.98142 9.79063 2.06286 9.8594 2.12995C9.92817 2.19704 10.0116 2.24803 10.1035 2.27909C10.1954 2.31015 10.2934 2.32047 10.39 2.30926H14.1286C14.223 2.31986 14.3186 2.30992 14.4086 2.28016C14.4986 2.25039 14.5807 2.20154 14.649 2.13713C14.7173 2.07271 14.7701 1.99432 14.8037 1.9076C14.8372 1.82088 14.8506 1.72799 14.843 1.63561V1.0781H9.67558Z" fill="#122FCB"/>
</svg>
