<svg width="40" height="40" viewBox="0 0 40 40" fill="none" xmlns="http://www.w3.org/2000/svg">
<path d="M0.565676 39.9986C-0.0154333 39.5934 -0.177606 39.0938 0.214305 38.6481C0.49079 38.4713 0.791141 38.3349 1.10624 38.243V30.6942C1.10624 29.938 1.36301 29.6814 2.11981 29.6814H7.89035C8.66066 29.6814 8.90391 29.938 8.90391 30.7212V38.3916H11.0932V24.8199C11.0932 24.0097 11.3365 23.7666 12.1473 23.7666H17.9179C18.6341 23.7666 18.9044 24.0367 18.9044 24.7659V38.4186H21.0802V20.3366C21.0802 19.4858 21.3099 19.2562 22.1613 19.2562H27.9319C28.6481 19.2562 28.9184 19.5263 28.9184 20.242V38.4051H31.0942V16.1233C31.0942 15.2725 31.3239 15.043 32.1888 15.043H37.8783C38.6486 15.043 38.9054 15.2995 38.9054 16.0693V38.4456C39.1221 38.3973 39.3489 38.4245 39.548 38.5228C39.7471 38.621 39.9066 38.7844 40 38.9857V39.9986H0.565676ZM32.6618 16.6229V38.4051H37.2972V16.6229H32.6618ZM27.2562 38.4186V20.8632H22.6613V38.4186H27.2562ZM17.2692 38.4186V25.3601H12.6338V38.4186H17.2692ZM7.28222 38.4186V31.2884H2.64686V38.4186H7.28222Z" fill="#959817"/>
<path d="M35.2 0.0675246C35.4003 0.15559 35.5644 0.309378 35.6651 0.503406C35.7659 0.697433 35.7973 0.92005 35.7541 1.13435C35.7541 1.35042 35.8217 1.43144 36.0244 1.49896C36.4171 1.63661 36.7969 1.80832 37.1596 2.01212C37.2562 2.06097 37.3414 2.12961 37.4096 2.21358C37.4779 2.29755 37.5277 2.39495 37.5557 2.49943C37.5838 2.60392 37.5895 2.71314 37.5724 2.81997C37.5554 2.92681 37.5161 3.02885 37.4569 3.11946C37.3997 3.20984 37.3246 3.28756 37.2362 3.34783C37.1477 3.40809 37.0479 3.44962 36.9428 3.46986C36.8377 3.49011 36.7296 3.48863 36.6251 3.46553C36.5206 3.44242 36.422 3.39817 36.3352 3.33552L35.7541 3.02493C35.7541 3.70013 35.7541 4.37533 35.7541 4.929C35.7221 5.05853 35.7165 5.19316 35.7374 5.32492C35.7583 5.45668 35.8054 5.58292 35.876 5.69619C35.9465 5.80946 36.039 5.90748 36.1481 5.98445C36.2571 6.06143 36.3805 6.1158 36.5109 6.14437C37.0645 6.35177 37.5348 6.73484 37.8497 7.23485C38.1645 7.73487 38.3066 8.32427 38.2542 8.91272C38.2377 9.56093 38.0301 10.1899 37.6575 10.7207C37.2849 11.2516 36.7638 11.6608 36.1595 11.8971H35.9703C35.9703 11.8971 35.8487 11.8971 35.8757 12.0052C35.7691 12.4148 35.6336 12.8165 35.4703 13.207C35.4703 13.3286 35.1595 13.3826 34.9973 13.3961C34.8465 13.4159 34.6935 13.3822 34.565 13.3007C34.4365 13.2193 34.3408 13.0953 34.2946 12.9504C34.2262 12.7086 34.1899 12.4589 34.1865 12.2077C33.4702 11.8971 32.835 11.654 32.1864 11.3435C32.0826 11.3029 31.989 11.2399 31.9124 11.1591C31.8357 11.0782 31.7779 10.9814 31.743 10.8756C31.7082 10.7698 31.6971 10.6577 31.7107 10.5471C31.7243 10.4366 31.7621 10.3304 31.8215 10.2361C31.8813 10.1429 31.9595 10.063 32.0514 10.0012C32.1433 9.93938 32.2469 9.89705 32.3558 9.8768C32.4647 9.85656 32.5766 9.85882 32.6846 9.88346C32.7926 9.9081 32.8944 9.95459 32.9837 10.0201C33.3486 10.2091 33.7405 10.3712 34.2 10.5737C34.2 9.22331 34.2 8.11598 34.2 6.94112C34.2 6.8601 34.0784 6.76556 33.9838 6.71154C33.8892 6.65753 33.5243 6.46847 33.308 6.33343C32.8358 6.12015 32.4473 5.75695 32.2029 5.30028C31.9585 4.84361 31.8719 4.31906 31.9566 3.80816C31.9987 3.28505 32.1924 2.78552 32.514 2.37063C32.8356 1.95573 33.2712 1.64345 33.7675 1.47195C34.0919 1.36392 34.1865 1.21538 34.1594 0.904783C34.1394 0.715826 34.1813 0.52547 34.2787 0.362319C34.3762 0.199168 34.524 0.0720245 34.7 0L35.2 0.0675246ZM35.7676 10.3441C36.0726 10.1742 36.321 9.91856 36.4819 9.6089C36.6429 9.29924 36.7094 8.94917 36.6731 8.60212C36.6363 8.3562 36.5323 8.1252 36.3725 7.93458C36.2128 7.74396 36.0035 7.60111 35.7676 7.52179V10.3441ZM34.173 3.05193C33.9596 3.18377 33.7872 3.37234 33.675 3.59653C33.5629 3.82072 33.5153 4.07168 33.5378 4.32132C33.5491 4.50011 33.6166 4.67077 33.7306 4.80898C33.8447 4.9472 33.9995 5.04591 34.173 5.09105V3.05193Z" fill="#959817"/>
<path d="M18.335 10.6835L23.8758 5.11982L23.2812 4.59316C23.1659 4.48365 23.0867 4.34168 23.0541 4.18612C23.0214 4.03055 23.037 3.86875 23.0986 3.72221C23.1601 3.57567 23.2649 3.45132 23.3989 3.36568C23.5329 3.28004 23.6898 3.23717 23.8488 3.24275H28.4976C28.6184 3.22733 28.7412 3.23977 28.8564 3.27911C28.9717 3.31845 29.0763 3.38364 29.1625 3.46969C29.2486 3.55574 29.3138 3.66036 29.3532 3.77552C29.3925 3.89068 29.405 4.01331 29.3896 4.13403V8.76593C29.4101 8.93581 29.3735 9.1077 29.2854 9.25443C29.1973 9.40116 29.0627 9.51437 28.9031 9.57618C28.748 9.64956 28.5727 9.66813 28.4057 9.62888C28.2388 9.58962 28.0901 9.49485 27.9841 9.36011C27.8084 9.17105 27.6598 8.95499 27.403 8.6579C27.3082 8.81239 27.2044 8.9612 27.0922 9.10354L19.1053 17.098C18.4836 17.7192 18.1593 17.7192 17.5376 17.098C16.916 16.4768 15.997 15.545 15.1862 14.7483C15.0781 14.8563 14.9564 14.9508 14.8618 15.0588L6.38845 23.5259C5.79383 24.1201 5.45598 24.1201 4.84784 23.5259L2.69909 21.3788C2.58138 21.3096 2.48378 21.2109 2.41598 21.0925C2.34817 20.9741 2.3125 20.84 2.3125 20.7036C2.3125 20.5671 2.34817 20.433 2.41598 20.3146C2.48378 20.1962 2.58138 20.0975 2.69909 20.0284L14.524 8.19875C14.5957 8.08435 14.6953 7.99004 14.8135 7.92466C14.9317 7.85928 15.0646 7.82498 15.1997 7.82498C15.3348 7.82498 15.4677 7.85928 15.5859 7.92466C15.7041 7.99004 15.8037 8.08435 15.8754 8.19875C16.6998 9.09002 17.5106 9.85976 18.335 10.6835ZM15.2808 9.81925L4.46944 20.6225L5.82086 21.9729L6.0506 21.7704L10.267 17.5436L14.578 13.1413C14.6521 13.0408 14.7488 12.9591 14.8603 12.9028C14.9718 12.8464 15.095 12.8171 15.22 12.8171C15.3449 12.8171 15.4681 12.8464 15.5796 12.9028C15.6911 12.9591 15.7878 13.0408 15.8619 13.1413L17.7404 15.0048C17.9431 15.2074 18.1323 15.4235 18.3215 15.6395L18.6323 15.3559L26.7408 7.25347C26.8641 7.06959 27.0464 6.93324 27.2577 6.86695C27.469 6.80066 27.6967 6.80838 27.903 6.88886V4.75521H25.7407C25.8224 4.94404 25.8402 5.15433 25.7914 5.35417C25.7426 5.55401 25.6299 5.7325 25.4704 5.86255C23.3352 7.96919 21.2135 10.1028 19.0918 12.223C19.0158 12.3316 18.9147 12.4204 18.797 12.4816C18.6794 12.5429 18.5487 12.5749 18.4161 12.5749C18.2834 12.5749 18.1527 12.5429 18.0351 12.4816C17.9174 12.4204 17.8163 12.3316 17.7404 12.223L15.2808 9.81925Z" fill="#959817"/>
</svg>
