<svg width="40" height="39" viewBox="0 0 40 39" fill="none" xmlns="http://www.w3.org/2000/svg">
<path d="M17.6802 8.03594C17.6636 8.16622 17.6636 8.29808 17.6802 8.42836V8.92315H15.6658C15.5509 8.92323 15.4406 8.87884 15.3578 8.7993C15.275 8.71977 15.2263 8.61127 15.2219 8.4966V7.11461H13.5147C13.4236 7.30651 13.2829 7.47064 13.1071 7.59008C12.9313 7.70951 12.7268 7.77992 12.5147 7.79405C12.3026 7.80818 12.0906 7.76551 11.9005 7.67045C11.7104 7.5754 11.5491 7.43138 11.4333 7.25327C11.3174 7.07515 11.2512 6.86937 11.2415 6.65716C11.2317 6.44495 11.2788 6.23397 11.3778 6.046C11.4768 5.85802 11.6242 5.69984 11.8048 5.58777C11.9854 5.4757 12.1926 5.4138 12.4051 5.40844C12.645 5.4036 12.8805 5.47319 13.0793 5.60763C13.278 5.74207 13.4301 5.93474 13.5147 6.15915H15.734C15.793 6.15674 15.8518 6.16657 15.9067 6.18801C15.9616 6.20945 16.0115 6.24204 16.0532 6.28373C16.095 6.32541 16.1276 6.37528 16.149 6.43019C16.1705 6.4851 16.1803 6.54386 16.1779 6.60276V7.98475L17.6802 8.03594Z" fill="#C7CB12"/>
<path d="M17.6286 18.3594V19.2466H16.058V20.6115C16.0604 20.6704 16.0506 20.7292 16.0291 20.7841C16.0077 20.839 15.9751 20.8889 15.9334 20.9305C15.8917 20.9722 15.8418 21.0048 15.7868 21.0263C15.7319 21.0477 15.6731 21.0575 15.6141 21.0551H13.3949C13.3176 21.2566 13.1872 21.4333 13.0175 21.5666C12.8479 21.7 12.6452 21.7849 12.4311 21.8123C12.217 21.8398 11.9995 21.8088 11.8016 21.7226C11.6037 21.6364 11.4329 21.4983 11.3073 21.3229C11.1816 21.1475 11.1059 20.9413 11.0881 20.7263C11.0702 20.5113 11.111 20.2955 11.2061 20.1019C11.3011 19.9082 11.4469 19.7438 11.6279 19.6263C11.8088 19.5087 12.0183 19.4424 12.234 19.4343C12.4709 19.4329 12.7029 19.5018 12.9004 19.6325C13.098 19.7631 13.2523 19.9495 13.3437 20.1679H15.0508V18.803C15.0508 18.6853 15.0975 18.5725 15.1808 18.4893C15.264 18.4061 15.3769 18.3594 15.4947 18.3594H17.5091H17.6286Z" fill="#C7CB12"/>
<path d="M17.6282 13.2044V14.0745H11.5508C11.4353 14.3664 11.2086 14.6005 10.9205 14.7253C10.6323 14.85 10.3064 14.8553 10.0143 14.7399C9.72231 14.6246 9.4881 14.3979 9.36324 14.11C9.23838 13.822 9.2331 13.4962 9.34855 13.2044C9.43342 12.9812 9.5842 12.7891 9.78086 12.6535C9.97752 12.5179 10.2108 12.4453 10.4497 12.4453C10.6886 12.4453 10.9218 12.5179 11.1185 12.6535C11.3152 12.7891 11.4659 12.9812 11.5508 13.2044H17.6282Z" fill="#C7CB12"/>
<path d="M13.1699 15.8013V16.6714C13.3151 16.7279 13.4475 16.8125 13.5597 16.9205C13.6719 17.0285 13.7615 17.1576 13.8234 17.3004C13.8853 17.4432 13.9183 17.5968 13.9204 17.7524C13.9225 17.908 13.8937 18.0625 13.8357 18.207C13.7651 18.3929 13.6492 18.5583 13.4985 18.6881C13.3477 18.818 13.1668 18.9081 12.9724 18.9504C12.7779 18.9926 12.576 18.9857 12.3849 18.9302C12.1938 18.8747 12.0196 18.7723 11.8781 18.6325C11.7366 18.4926 11.6323 18.3197 11.5747 18.1293C11.517 17.9389 11.5079 17.7372 11.548 17.5424C11.5881 17.3476 11.6763 17.1659 11.8045 17.0138C11.9328 16.8617 12.0969 16.744 12.2822 16.6714V15.3577C12.2822 15.24 12.329 15.1272 12.4122 15.044C12.4955 14.9608 12.6084 14.9141 12.7261 14.9141H17.5744V15.8013H13.1699Z" fill="#C7CB12"/>
<path d="M17.6278 11.4832V12.3704H12.7795C12.6618 12.3704 12.5489 12.3236 12.4657 12.2404C12.3824 12.1572 12.3357 12.0444 12.3357 11.9268V10.613C12.0779 10.4731 11.8806 10.2433 11.7814 9.96745C11.6822 9.69156 11.6879 9.38885 11.7976 9.11694C11.9073 8.84504 12.1132 8.62294 12.3761 8.49296C12.639 8.36297 12.9406 8.33418 13.2234 8.41205C13.4467 8.49687 13.639 8.64754 13.7746 8.84409C13.9103 9.04064 13.9829 9.27376 13.9829 9.51253C13.9829 9.75129 13.9103 9.98442 13.7746 10.181C13.639 10.3775 13.4467 10.5282 13.2234 10.613V11.4832H17.6278Z" fill="#C7CB12"/>
<path d="M30.2409 12.3333H28.5338C28.4369 11.9824 28.3113 11.64 28.1582 11.3096L29.302 10.1665C29.3824 10.0811 29.4272 9.96818 29.4272 9.85087C29.4272 9.73356 29.3824 9.62067 29.302 9.53523L26.8266 7.07834C26.7873 7.03598 26.7398 7.00204 26.687 6.97857C26.6342 6.95511 26.5771 6.94262 26.5193 6.94185C26.4612 6.94044 26.4035 6.95195 26.3503 6.97556C26.2972 6.99916 26.25 7.03427 26.212 7.07834L25.1536 8.13617C24.7868 7.93964 24.4042 7.77413 24.0098 7.64138V6.17407C24.0099 6.05932 23.9655 5.949 23.8859 5.86628C23.8063 5.78356 23.6978 5.73488 23.583 5.73047H20.1687C20.051 5.73047 19.9381 5.77721 19.8549 5.8604C19.7716 5.94359 19.7249 6.05642 19.7249 6.17407V7.64138C19.4215 7.75465 19.1251 7.88568 18.8372 8.0338C18.7626 8.06782 18.7 8.1234 18.6574 8.19335C18.6148 8.26331 18.5941 8.34442 18.5981 8.42622V20.0452C18.5941 20.127 18.6148 20.2081 18.6574 20.2781C18.7 20.348 18.7626 20.4036 18.8372 20.4376C19.1217 20.5928 19.4186 20.724 19.7249 20.8301V22.8604C19.7249 22.9781 19.7716 23.0909 19.8549 23.1741C19.9381 23.2573 20.051 23.304 20.1687 23.304H23.583C23.6979 23.3041 23.8082 23.2597 23.891 23.1802C23.9738 23.1006 24.0225 22.9921 24.0269 22.8775V20.8301C24.2897 20.7455 24.5464 20.6428 24.7951 20.523L26.2291 21.9391C26.2689 21.9804 26.3167 22.0132 26.3695 22.0356C26.4223 22.058 26.479 22.0696 26.5364 22.0696C26.5938 22.0696 26.6506 22.058 26.7034 22.0356C26.7562 22.0132 26.8039 21.9804 26.8437 21.9391L29.2678 19.4481C29.3434 19.3636 29.3852 19.2543 29.3852 19.141C29.3852 19.0276 29.3434 18.9183 29.2678 18.8338L27.9363 17.486C28.0788 17.2095 28.2042 16.9246 28.3118 16.6329H30.2409C30.2999 16.6353 30.3586 16.6255 30.4136 16.604C30.4685 16.5826 30.5184 16.55 30.5601 16.5083C30.6018 16.4666 30.6345 16.4168 30.6559 16.3619C30.6774 16.3069 30.6872 16.2482 30.6848 16.1893V12.7769C30.6848 12.6593 30.638 12.5465 30.5548 12.4633C30.4715 12.3801 30.3586 12.3333 30.2409 12.3333ZM21.893 19.0556C20.8454 19.0537 19.829 18.6991 19.0079 18.049V10.7295C19.4899 10.3509 20.0418 10.0708 20.6321 9.90533C21.2224 9.73985 21.8395 9.69218 22.4482 9.76506C23.057 9.83794 23.6454 10.0299 24.1799 10.3301C24.7143 10.6302 25.1844 11.0327 25.5633 11.5144C25.9422 11.9961 26.2224 12.5477 26.388 13.1377C26.5536 13.7276 26.6013 14.3444 26.5284 14.9528C26.4554 15.5612 26.2633 16.1492 25.963 16.6834C25.6627 17.2176 25.26 17.6874 24.778 18.0661C23.9566 18.7136 22.9392 19.0626 21.893 19.0556Z" fill="#C7CB12"/>
<path d="M22.1177 18.1527V17.4873C21.2909 17.4038 20.5129 17.0569 19.8984 16.4977L20.5472 15.7129C20.9848 16.1192 21.5299 16.3916 22.1177 16.4977V14.7916C21.5768 14.6838 21.0648 14.4628 20.6154 14.1432C20.4545 13.9938 20.3283 13.811 20.2457 13.6076C20.1631 13.4042 20.1262 13.1852 20.1374 12.966C20.1356 12.725 20.1849 12.4864 20.282 12.2658C20.3791 12.0453 20.5218 11.8478 20.7008 11.6863C21.0884 11.334 21.5938 11.1393 22.1177 11.1404V10.6797H22.6982V11.1404C23.3797 11.1937 24.0342 11.4294 24.5931 11.8228L23.9956 12.6588C23.6128 12.3793 23.1674 12.1977 22.6982 12.1299V13.8361C23.2551 13.9354 23.7812 14.1633 24.2346 14.5015C24.4013 14.6545 24.5321 14.8424 24.6177 15.0518C24.7033 15.2613 24.7415 15.487 24.7297 15.7129C24.7339 15.9567 24.6859 16.1986 24.5887 16.4223C24.4915 16.646 24.3475 16.8462 24.1663 17.0096C23.7401 17.3511 23.2103 17.5377 22.664 17.5385V18.2039L22.1177 18.1527ZM21.4861 12.3005C21.4115 12.3597 21.3513 12.4349 21.3099 12.5206C21.2685 12.6063 21.247 12.7002 21.2471 12.7953C21.2475 12.9776 21.3142 13.1534 21.4349 13.2901C21.6401 13.444 21.8714 13.5596 22.1177 13.6314V12.0617C21.886 12.0663 21.6628 12.1506 21.4861 12.3005ZM23.4152 16.2759C23.4802 16.211 23.5318 16.1338 23.567 16.0489C23.6022 15.964 23.6203 15.873 23.6203 15.7811C23.6203 15.6892 23.6022 15.5982 23.567 15.5133C23.5318 15.4284 23.4802 15.3513 23.4152 15.2863C23.1874 15.1284 22.9329 15.0128 22.664 14.9451V16.6513C22.9491 16.6128 23.2133 16.4808 23.4152 16.2759Z" fill="#C7CB12"/>
<path d="M36.9691 0H3.03092C2.61377 0.0196838 2.20461 0.121413 1.82685 0.299362C1.4491 0.477312 1.11019 0.727986 0.829515 1.03703C0.548836 1.34608 0.331906 1.70742 0.191157 2.10037C0.0504078 2.49333 -0.0114152 2.91017 0.00925655 3.32703V27.0769C-0.0231907 27.5007 0.0298664 27.9266 0.165264 28.3295C0.300662 28.7324 0.515652 29.104 0.797475 29.4222C1.0793 29.7405 1.42223 29.9989 1.80589 30.1822C2.18955 30.3655 2.60612 30.4699 3.03092 30.4892H36.9691C37.3939 30.4699 37.8105 30.3655 38.1941 30.1822C38.5778 29.9989 38.9207 29.7405 39.2025 29.4222C39.4843 29.104 39.6993 28.7324 39.8347 28.3295C39.9701 27.9266 40.0232 27.5007 39.9907 27.0769V3.32703C40.0114 2.91017 39.9496 2.49333 39.8088 2.10037C39.6681 1.70742 39.4512 1.34608 39.1705 1.03703C38.8898 0.727986 38.5509 0.477312 38.1731 0.299362C37.7954 0.121413 37.3862 0.0196838 36.9691 0ZM36.9691 27.0769H3.32113V3.71945H36.9691V27.0769Z" fill="#C7CB12"/>
<path d="M8.49576 35.7422C6.78861 35.7422 6.37891 36.4076 6.37891 37.4484C6.37891 38.4891 6.82275 39.001 8.49576 39.001H31.952C33.6592 39.001 34.1884 38.5574 34.1884 37.4484C34.1884 36.3393 33.625 35.7422 31.952 35.7422" fill="#C7CB12"/>
</svg>
