<svg width="29" height="40" viewBox="0 0 29 40" fill="none" xmlns="http://www.w3.org/2000/svg">
<path d="M23.6227 0C24.178 0.118354 24.724 0.278845 25.2562 0.480149C26.3707 0.913955 27.3276 1.69152 27.996 2.7064C28.6643 3.72128 29.0115 4.92387 28.9899 6.14955C28.9899 11.1726 28.9899 16.1772 28.9899 21.1818C29.0194 21.409 28.984 21.6402 28.8881 21.8472C28.7921 22.0541 28.6397 22.2278 28.4495 22.3472C28.2592 22.4666 28.0393 22.5265 27.8165 22.5196C27.5938 22.5127 27.3778 22.4393 27.1948 22.3083L25.5973 21.4957C25.4511 21.4489 25.2946 21.4489 25.1485 21.4957C24.2869 21.7543 24.0176 22.2898 24.0356 23.2501C24.0356 27.5714 24.0356 31.8927 24.0356 36.1771C24.0654 37.0061 23.8231 37.8212 23.3476 38.4912C22.8722 39.1612 22.1914 39.6471 21.4148 39.8705C21.0686 39.9601 20.7127 40.0036 20.3557 39.9998H3.59008C2.63793 39.9998 1.72478 39.6106 1.05151 38.918C0.378237 38.2253 0 37.2859 0 36.3063C0 27.9592 0 19.6121 0 11.2649C0 10.2854 0.378237 9.34595 1.05151 8.6533C1.72478 7.96065 2.63793 7.57153 3.59008 7.57153C3.98499 7.57153 4.3799 7.57153 4.82866 7.57153C4.82866 7.33145 4.82866 7.10984 4.82866 6.88824C4.7599 5.82196 4.93192 4.75378 5.33127 3.76729C5.73164 2.79202 6.36994 1.9396 7.18443 1.29255C7.99892 0.645498 8.962 0.225722 9.98042 0.0738701H10.1958L23.6227 0ZM19.2249 9.95377V12.2068C19.2249 13.2779 18.812 13.6841 17.7529 13.6841H5.88773C5.73159 13.6894 5.57608 13.6614 5.431 13.6017C5.28592 13.5421 5.15442 13.4522 5.0448 13.3377C4.93517 13.2232 4.8498 13.0865 4.79407 12.9364C4.73833 12.7862 4.71344 12.6258 4.72096 12.4653C4.72096 11.7635 4.72096 11.0433 4.72096 10.3416C4.72922 10.194 4.72922 10.046 4.72096 9.89837H3.59008C3.39807 9.88109 3.20473 9.90759 3.02382 9.97599C2.84291 10.0444 2.6789 10.153 2.54348 10.2941C2.40805 10.4352 2.30453 10.6053 2.24032 10.7923C2.17611 10.9792 2.15279 11.1784 2.17201 11.3757V36.2694C2.15191 36.4701 2.17584 36.6729 2.24207 36.8628C2.30831 37.0528 2.41514 37.225 2.55468 37.3667C2.69422 37.5085 2.86291 37.6163 3.04833 37.6821C3.23375 37.7478 3.43116 37.77 3.62599 37.7468H20.4455C20.5946 37.765 20.7452 37.765 20.8943 37.7468C21.2131 37.6715 21.493 37.4763 21.679 37.1995C21.865 36.9227 21.9436 36.5844 21.8995 36.2509V11.4311C21.9084 11.302 21.9084 11.1724 21.8995 11.0433C21.8733 10.7786 21.7648 10.5297 21.5902 10.3334C21.4156 10.1372 21.1841 10.004 20.9302 9.95377C20.3199 9.89837 19.7455 9.95377 19.2249 9.95377ZM18.2376 2.34533H11.0575C10.5299 2.31331 10.0017 2.39631 9.50753 2.58891C9.01333 2.7815 8.56424 3.07934 8.18971 3.46291C7.81518 3.84648 7.52365 4.30711 7.3342 4.81466C7.14476 5.32221 7.06167 5.86521 7.0904 6.40809C7.0904 7.90393 7.0904 9.39977 7.0904 10.9141V11.3019H17.017V10.8402C17.017 9.36283 17.017 7.90393 17.017 6.42656C17.0164 5.96877 17.0524 5.51171 17.1247 5.06C17.2857 4.07846 17.6667 3.14901 18.2376 2.34533ZM26.7281 19.4643V11.9482C26.7281 10.1015 26.7281 8.2548 26.7281 6.27882C26.7388 5.62047 26.5848 4.97035 26.2809 4.39087C25.977 3.81139 25.5334 3.32203 24.9927 2.96973C24.452 2.61743 23.8323 2.41402 23.1932 2.37906C22.5541 2.3441 21.917 2.47874 21.343 2.77007C20.5246 3.20891 19.877 3.92288 19.508 4.79312C19.1389 5.66336 19.0707 6.63737 19.3146 7.55306C19.6198 7.55306 19.9609 7.55306 20.284 7.55306C20.6365 7.52489 20.9905 7.52489 21.343 7.55306C22.1529 7.74069 22.8745 8.21126 23.3851 8.88466C23.8956 9.55807 24.1636 10.3927 24.1433 11.2465C24.1433 13.7395 24.1433 16.2326 24.1433 18.6333V19.2243C24.326 19.0601 24.5391 18.9357 24.7698 18.8586C25.0005 18.7816 25.244 18.7534 25.4856 18.7758C25.7272 18.7983 25.9619 18.8709 26.1754 18.9892C26.389 19.1075 26.577 19.2692 26.7281 19.4643Z" fill="#480C95"/>
<path d="M11.9395 23.7677H6.05173C5.15421 23.7677 4.72342 23.343 4.72342 22.4196C4.72342 20.8684 4.72342 19.3172 4.72342 17.7475C4.69916 17.5629 4.71697 17.3751 4.77543 17.1989C4.83389 17.0227 4.9314 16.8628 5.06026 16.7321C5.18912 16.6013 5.34579 16.5032 5.51787 16.4454C5.68995 16.3877 5.8727 16.3719 6.05173 16.3994H17.9529C18.1349 16.3679 18.3216 16.3814 18.4977 16.4386C18.6737 16.4959 18.834 16.5953 18.9654 16.7287C19.0969 16.8621 19.1956 17.0257 19.2536 17.206C19.3116 17.3863 19.3272 17.5782 19.2991 17.7659V22.4196C19.2991 23.343 18.8504 23.7677 17.9529 23.7677H11.9395ZM7.02106 18.7632V21.367H16.9117V18.7262L7.02106 18.7632Z" fill="#480C95"/>
<path d="M11.9531 31.4669C12.1032 31.4645 12.2521 31.4928 12.3914 31.5502C12.5307 31.6075 12.6575 31.6928 12.7644 31.8011C12.8713 31.9094 12.9562 32.0385 13.0142 32.1808C13.0721 32.3232 13.102 32.476 13.102 32.6304C13.102 32.9407 12.9834 33.2385 12.7719 33.4596C12.5603 33.6808 12.2727 33.8074 11.9711 33.8123C11.6678 33.8075 11.3783 33.6815 11.1639 33.4608C10.9494 33.2402 10.8269 32.9424 10.8223 32.6304C10.8223 32.3218 10.9414 32.0259 11.1535 31.8077C11.3656 31.5895 11.6532 31.4669 11.9531 31.4669Z" fill="#480C95"/>
<path d="M16.9081 31.4682C17.0574 31.4728 17.2043 31.5083 17.34 31.5726C17.4757 31.6369 17.5975 31.7287 17.698 31.8424C17.7985 31.9562 17.8757 32.0896 17.925 32.2347C17.9744 32.3798 17.9948 32.5336 17.9851 32.687C17.9711 32.9973 17.8389 33.2894 17.6172 33.5002C17.3955 33.711 17.1021 33.8235 16.8004 33.8135C16.5004 33.7899 16.2209 33.648 16.0203 33.4174C15.8196 33.1869 15.7132 32.8855 15.7233 32.5762C15.7302 32.4234 15.7664 32.2734 15.8297 32.135C15.893 31.9965 15.9822 31.8723 16.0923 31.7694C16.2023 31.6664 16.331 31.5869 16.471 31.5352C16.611 31.4835 16.7595 31.4607 16.9081 31.4682Z" fill="#480C95"/>
<path d="M11.9711 26.4238C12.2727 26.4287 12.5603 26.5553 12.7719 26.7765C12.9834 26.9976 13.102 27.2954 13.102 27.6057C13.0671 27.8914 12.932 28.1541 12.7221 28.3446C12.5122 28.5351 12.242 28.6402 11.9621 28.6402C11.6822 28.6402 11.412 28.5351 11.2021 28.3446C10.9923 28.1541 10.8572 27.8914 10.8223 27.6057C10.8223 27.4505 10.852 27.2968 10.9097 27.1534C10.9675 27.01 11.0521 26.8797 11.1588 26.77C11.2654 26.6602 11.3921 26.5732 11.5315 26.5138C11.6708 26.4544 11.8202 26.4238 11.9711 26.4238Z" fill="#480C95"/>
<path d="M17.95 27.5887C17.9524 27.7415 17.9255 27.8932 17.8708 28.0353C17.8162 28.1774 17.7349 28.307 17.6315 28.4168C17.5282 28.5266 17.4048 28.6143 17.2685 28.675C17.1322 28.7357 16.9856 28.7682 16.8371 28.7706C16.6754 28.7915 16.5112 28.7768 16.3555 28.7274C16.1997 28.678 16.056 28.5951 15.9338 28.4842C15.8115 28.3733 15.7137 28.2369 15.6466 28.0841C15.5796 27.9313 15.5449 27.7656 15.5449 27.5979C15.5449 27.4302 15.5796 27.2645 15.6466 27.1117C15.7137 26.9589 15.8115 26.8225 15.9338 26.7116C16.056 26.6007 16.1997 26.5178 16.3555 26.4684C16.5112 26.419 16.6754 26.4043 16.8371 26.4253C17.1339 26.4301 17.4169 26.5548 17.6251 26.7725C17.8334 26.9901 17.95 27.2833 17.95 27.5887Z" fill="#480C95"/>
<path d="M7.17827 28.7706C6.87666 28.7706 6.58714 28.6486 6.3722 28.431C6.15726 28.2133 6.03415 27.9174 6.02944 27.6071C6.02707 27.4544 6.05398 27.3026 6.10863 27.1605C6.16327 27.0184 6.24459 26.8888 6.34793 26.779C6.45128 26.6693 6.57463 26.5815 6.71094 26.5208C6.84725 26.4601 6.99384 26.4277 7.14236 26.4253C7.30405 26.4043 7.46822 26.419 7.62396 26.4684C7.7797 26.5178 7.92345 26.6007 8.04566 26.7116C8.16787 26.8225 8.26575 26.9589 8.33279 27.1117C8.39983 27.2645 8.43451 27.4302 8.43451 27.5979C8.43451 27.7656 8.39983 27.9313 8.33279 28.0841C8.26575 28.2369 8.16787 28.3733 8.04566 28.4842C7.92345 28.5951 7.7797 28.678 7.62396 28.7274C7.46822 28.7768 7.30405 28.7915 7.14236 28.7706H7.17827Z" fill="#480C95"/>
<path d="M7.05552 31.467C7.35718 31.462 7.64867 31.5792 7.86698 31.7935C8.08529 32.0077 8.21292 32.3017 8.22231 32.6119C8.21386 32.9212 8.09306 33.2161 7.88372 33.4383C7.67438 33.6605 7.39169 33.7939 7.09143 33.8123C6.81375 33.7764 6.55837 33.6374 6.37323 33.4215C6.18809 33.2056 6.08594 32.9275 6.08594 32.6396C6.08594 32.3517 6.18809 32.0737 6.37323 31.8578C6.55837 31.6418 6.81375 31.5029 7.09143 31.467H7.05552Z" fill="#480C95"/>
</svg>
