<svg width="40" height="28" viewBox="0 0 40 28" fill="none" xmlns="http://www.w3.org/2000/svg">
<path d="M0.0633488 15.973C0.221717 15.294 0.316737 14.5991 0.522615 13.9358C1.21621 11.7556 2.67733 9.89907 4.63627 8.70903C6.59522 7.519 8.91975 7.07575 11.1808 7.46112H11.3867V7.06632L11.2917 3.68682C11.2729 3.38723 11.3264 3.08752 11.4476 2.81277C11.5688 2.53802 11.7543 2.29622 11.9885 2.10762C12.7518 1.46544 13.659 1.01587 14.6332 0.796882C17.216 0.129015 19.8894 -0.121574 22.5516 0.0546581C24.4397 0.0992163 26.3094 0.434818 28.0945 1.04955C28.6511 1.25789 29.1823 1.52806 29.6782 1.85495C30.0464 2.07943 30.3467 2.39907 30.5475 2.77995C30.7482 3.16085 30.8418 3.5888 30.8185 4.01846C30.8185 6.52939 30.8185 9.02453 30.8185 11.5355V12.0092C31.5786 12.0092 32.3071 12.104 33.0356 12.1829C34.6177 12.2973 36.175 12.6377 37.66 13.1936C38.0235 13.3354 38.3733 13.5098 38.7052 13.7148C39.1162 13.9301 39.4559 14.2593 39.6835 14.6628C39.9111 15.0663 40.0169 15.5268 39.988 15.9888C39.988 18.6577 39.988 21.3423 39.988 24.0112C40.031 24.4334 39.9579 24.8593 39.7766 25.2432C39.5952 25.6272 39.3124 25.9546 38.9586 26.1905C38.118 26.7462 37.1765 27.1324 36.1872 27.3275C32.2574 28.2501 28.1634 28.2231 24.2462 27.2485C23.472 27.0282 22.7235 26.7264 22.0132 26.3484C21.7211 26.2134 21.4596 26.0206 21.2445 25.7817C21.0294 25.5428 20.8653 25.2628 20.7621 24.9587C20.7301 24.9108 20.6881 24.8704 20.6388 24.8404C20.5896 24.8104 20.5344 24.7915 20.477 24.785C18.8812 24.7486 17.2916 24.5743 15.726 24.2638C15.5903 24.2556 15.4559 24.2947 15.3459 24.3744C14.0522 25.3763 12.5208 26.0278 10.9002 26.2656C9.27965 26.5034 7.62494 26.3193 6.09671 25.7314C4.56847 25.1434 3.21861 24.1715 2.17813 22.91C1.13765 21.6484 0.441888 20.1401 0.158369 18.5313C0.158369 18.2471 0.0475105 17.9628 0 17.6944L0.0633488 15.973ZM9.56545 8.91399C8.00614 8.9143 6.48164 9.37368 5.18312 10.2345C3.88459 11.0954 2.86985 12.3193 2.26615 13.753C1.66245 15.1866 1.49666 16.7661 1.78958 18.2933C2.0825 19.8205 2.82108 21.2275 3.91271 22.3378C5.00433 23.4481 6.4004 24.2123 7.92584 24.5346C9.45129 24.8568 11.0382 24.7228 12.4876 24.1493C13.9369 23.5758 15.1842 22.5884 16.0731 21.3108C16.9619 20.0333 17.4527 18.5225 17.4839 16.9679C17.5049 15.9204 17.3166 14.8793 16.9301 13.905C16.5436 12.9308 15.9665 12.0431 15.2325 11.2935C14.4984 10.5439 13.6221 9.94745 12.6546 9.53893C11.6871 9.1304 10.6478 8.91797 9.59712 8.91399H9.56545ZM20.9046 5.55028C23.0449 5.6032 25.1808 5.33164 27.2393 4.74489C27.8708 4.51563 28.4804 4.23023 29.0606 3.89212C29.3298 3.74999 29.3456 3.49732 29.0606 3.3394C28.593 3.04843 28.1 2.80002 27.5878 2.59718C25.7774 2.00795 23.8859 1.70424 21.9815 1.69703C19.6607 1.55867 17.333 1.80413 15.0925 2.42346C14.423 2.65951 13.7764 2.9555 13.1604 3.30781C12.8595 3.46573 12.8595 3.7342 13.1604 3.90791C13.6607 4.21432 14.1914 4.46834 14.7441 4.66593C16.7487 5.2835 18.8384 5.58195 20.9363 5.55028H20.9046ZM29.6465 13.699C28.9656 13.699 27.762 13.8411 26.4792 13.9674C25.9449 14.0307 25.4158 14.1309 24.8955 14.2675C23.9841 14.4319 23.1162 14.7813 22.3458 15.294C22.0132 15.5466 21.9974 15.7361 22.3458 15.9572C22.8377 16.2827 23.3701 16.5428 23.9295 16.731C27.8161 17.8193 31.9193 17.8846 35.8387 16.9205C36.6204 16.6933 37.3746 16.3808 38.0876 15.9888C38.531 15.7519 38.5152 15.5466 38.0876 15.2782C37.6793 15.0207 37.2438 14.8088 36.789 14.6465C34.4843 13.9557 32.0839 13.6358 29.6782 13.699H29.6465ZM38.4835 22.1477C35.9148 23.2221 33.1431 23.7286 30.3592 23.6322C27.6015 23.7449 24.8505 23.2824 22.2824 22.274C22.2824 22.9531 22.2824 23.569 22.2824 24.1849C22.2596 24.355 22.2918 24.5279 22.3744 24.6785C22.457 24.829 22.5857 24.9493 22.7417 25.0219C23.3256 25.3267 23.9349 25.5804 24.5629 25.7799C28.2222 26.711 32.0533 26.7435 35.7279 25.8746C36.5374 25.6466 37.3224 25.3398 38.0717 24.9587C38.1758 24.9009 38.2663 24.8218 38.3373 24.7265C38.4083 24.6312 38.4581 24.5219 38.4835 24.406C38.5152 23.6006 38.4835 22.8741 38.4835 22.1477ZM22.2032 17.7575C22.2032 18.484 22.2032 19.1788 22.2032 19.8579C22.1821 19.9868 22.2049 20.1192 22.2681 20.2337C22.3313 20.3482 22.4311 20.4383 22.5516 20.4895C23.1515 20.7997 23.7766 21.0586 24.4204 21.2633C27.9936 22.1701 31.7293 22.2349 35.332 21.4529C36.2172 21.2356 37.0811 20.9396 37.9134 20.5685C38.0388 20.5079 38.1501 20.4218 38.2401 20.3157C38.3301 20.2097 38.3968 20.086 38.436 19.9526C38.436 19.2262 38.436 18.4997 38.436 17.7417C35.873 18.7952 33.1139 19.2905 30.3434 19.1946C27.5588 19.2926 24.7848 18.8029 22.2032 17.7575ZM13.002 5.83454C13.002 6.38726 13.002 7.01894 13.002 7.63483C12.9949 7.72965 13.021 7.824 13.0759 7.90176C13.1308 7.97952 13.211 8.03588 13.3029 8.06122C13.9681 8.40864 14.6016 8.80344 15.2667 9.16666C15.4448 9.28616 15.6434 9.37182 15.8527 9.41933C19.1747 10.1063 22.6028 10.1063 25.9249 9.41933C26.9314 9.26826 27.8993 8.9251 28.7755 8.40864C28.9497 8.29809 29.1873 8.12438 29.219 7.95067C29.219 7.17686 29.314 6.37147 29.3615 5.66083C24.0826 7.54867 18.3201 7.60986 13.002 5.83454ZM17.5314 11.3775C17.9273 12.2619 18.3232 13.1462 18.735 14.0306C18.7683 14.0945 18.8154 14.1503 18.8729 14.194C18.9304 14.2377 18.9969 14.2682 19.0675 14.2833C19.5585 14.2833 20.0336 14.2833 20.5087 14.2833C20.6742 14.2983 20.8411 14.2795 20.9991 14.2279C21.157 14.1763 21.3027 14.093 21.4272 13.9832C21.7562 13.7089 22.1245 13.4854 22.52 13.32C24.1063 12.6572 25.7922 12.2623 27.5086 12.1514L29.2981 12.025V10.0984C25.5392 11.4755 21.4995 11.9146 17.5314 11.3775ZM16.9929 22.9215L20.6196 23.2374V20.379L18.8458 20.2685C18.7949 20.2568 18.7421 20.2553 18.6906 20.2641C18.639 20.2729 18.5897 20.2918 18.5456 20.3197C18.5014 20.3476 18.4632 20.384 18.4332 20.4267C18.4032 20.4694 18.382 20.5176 18.3707 20.5685C18.1977 20.9636 18.002 21.3485 17.7848 21.7213C17.563 22.1477 17.2938 22.4635 16.9929 22.9215ZM19.1784 15.8309L19.0359 18.6261H20.5404V15.9572L19.1784 15.8309Z" fill="#C305D3"/>
<path d="M8.86956 21.6911C8.23694 21.4919 7.683 21.0997 7.28588 20.5698C6.88985 20.0816 6.66709 19.4763 6.65241 18.8485C6.65241 18.3116 6.92163 17.9642 7.3809 17.9484C7.84017 17.9326 8.17274 18.2168 8.22025 18.7695C8.23104 19.0105 8.30314 19.2447 8.42976 19.4502C8.55639 19.6557 8.73337 19.8257 8.94404 19.9442C9.15472 20.0626 9.39217 20.1257 9.63403 20.1274C9.87589 20.1291 10.1142 20.0694 10.3266 19.954C10.5985 19.8014 10.8134 19.565 10.9391 19.2802C11.0647 18.9955 11.0943 18.6777 11.0234 18.3747C10.9513 18.0775 10.7839 17.8119 10.5467 17.6181C10.3095 17.4243 10.0153 17.3129 9.70892 17.3009C9.00636 17.3138 8.32143 17.0811 7.7729 16.6432C7.22438 16.2052 6.84685 15.5897 6.70579 14.9032C6.56473 14.2168 6.66903 13.5028 7.00061 12.885C7.33219 12.2673 7.87014 11.7847 8.52116 11.521C8.75871 11.4263 8.86956 11.3473 8.86956 11.063C8.86956 10.8536 8.95299 10.6528 9.10149 10.5047C9.24999 10.3566 9.4514 10.2734 9.66141 10.2734C9.87142 10.2734 10.0728 10.3566 10.2213 10.5047C10.3698 10.6528 10.4532 10.8536 10.4532 11.063C10.4426 11.1769 10.4735 11.2908 10.5405 11.3837C10.6074 11.4766 10.7058 11.5422 10.8175 11.5684C11.3335 11.7736 11.7795 12.1223 12.1024 12.5731C12.4253 13.0238 12.6115 13.5576 12.6387 14.1109C12.6639 14.2235 12.665 14.3401 12.642 14.4531C12.619 14.5662 12.5723 14.6731 12.5051 14.767C12.4378 14.8608 12.3515 14.9395 12.2518 14.9979C12.152 15.0563 12.041 15.093 11.9261 15.1058C11.451 15.1058 11.1026 14.8215 11.055 14.2688C11.0492 14.0538 10.9939 13.8429 10.8935 13.6525C10.7931 13.4621 10.6501 13.2972 10.4757 13.1706C10.3013 13.044 10.1 12.959 9.88746 12.9221C9.6749 12.8853 9.45669 12.8976 9.24965 12.9581C8.93381 13.051 8.65941 13.249 8.47212 13.5191C8.28482 13.7892 8.19594 14.1151 8.22025 14.4425C8.2457 14.7692 8.38735 15.076 8.61966 15.3076C8.85197 15.5393 9.15965 15.6805 9.4872 15.7059C10.3279 15.7002 11.1386 16.0168 11.7519 16.5902C12.101 16.9326 12.3605 17.3552 12.5077 17.8209C12.6549 18.2866 12.6853 18.7812 12.5962 19.2613C12.5071 19.7415 12.3012 20.1925 11.9966 20.5748C11.692 20.9571 11.298 21.2591 10.8492 21.4542C10.7753 21.4703 10.7057 21.5017 10.6448 21.5463C10.5839 21.591 10.5331 21.648 10.4958 21.7135C10.4584 21.7791 10.4353 21.8517 10.428 21.9268C10.4207 22.0018 10.4293 22.0775 10.4532 22.149C10.4769 22.2902 10.4769 22.4343 10.4532 22.5754C10.4119 22.7536 10.3074 22.9108 10.159 23.0182C10.0106 23.1256 9.82823 23.1759 9.64557 23.1597C9.45579 23.1526 9.27521 23.0764 9.13804 22.9454C9.00086 22.8144 8.91661 22.6378 8.90124 22.4491C8.86957 22.149 8.86956 21.928 8.86956 21.6911Z" fill="#C305D3"/>
</svg>
