<svg width="41" height="40" viewBox="0 0 41 40" fill="none" xmlns="http://www.w3.org/2000/svg">
<path d="M33.5565 40H7.44357C5.4701 39.9978 3.57809 39.212 2.18263 37.8152C0.787172 36.4183 0.00221366 34.5243 0 32.5488V5.07256C0 3.98977 0.400527 3.24652 1.48686 3.24652C1.72087 3.23798 1.9539 3.28089 2.16956 3.37224C2.38521 3.46358 2.57824 3.60114 2.73505 3.77522C2.89186 3.94931 3.00865 4.1557 3.07718 4.37984C3.1457 4.60398 3.1643 4.84044 3.13168 5.07256V32.546C3.13168 34.4921 5.80338 37.4428 7.74744 37.4428H33.8603C35.8053 37.4428 38.1406 34.4912 38.1406 32.546L38.0886 2.79999H9.06239L9.11443 29.5163C9.11443 30.5991 8.8217 31.1907 7.74001 31.1907C6.65833 31.1907 6.2643 30.6028 6.2643 29.5163V2.29488C6.26504 1.6863 6.50695 1.10288 6.93693 0.672636C7.36691 0.242395 7.94983 0.000492325 8.55779 0H38.7065C39.3146 0.000246318 39.8977 0.242072 40.3277 0.672366C40.7577 1.10266 40.9995 1.68623 41 2.29488V32.546C40.9985 34.522 40.2139 36.4167 38.8184 37.8142C37.4228 39.2117 35.5304 39.9978 33.5565 40Z" fill="#FC7754"/>
<path d="M32.6412 15.9343V20.4664H25.718V14.2292H32.6412M33.5222 12.5176H24.5936C24.3383 12.5176 24.0934 12.6191 23.9128 12.7998C23.7323 12.9806 23.6309 13.2257 23.6309 13.4813V21.6515C23.6311 21.907 23.7327 22.1519 23.9132 22.3324C24.0937 22.5129 24.3384 22.6143 24.5936 22.6143H33.5222C33.7773 22.6143 34.0221 22.5129 34.2026 22.3324C34.3831 22.1519 34.4847 21.907 34.4849 21.6515V13.4813C34.4849 13.2257 34.3835 12.9806 34.2029 12.7998C34.0224 12.6191 33.7775 12.5176 33.5222 12.5176Z" fill="#FC7754"/>
<path d="M34.0781 8.83975H13.7714C13.5868 8.88884 13.3935 8.89483 13.2063 8.85726C13.0191 8.81969 12.843 8.73956 12.6916 8.62306C12.5403 8.50655 12.4177 8.3568 12.3333 8.18534C12.249 8.01387 12.2051 7.82529 12.2051 7.63416C12.2051 7.44303 12.249 7.25446 12.3333 7.083C12.4177 6.91154 12.5403 6.76177 12.6916 6.64526C12.843 6.52876 13.0191 6.44863 13.2063 6.41106C13.3935 6.37349 13.5868 6.37948 13.7714 6.42857H34.0781C34.2626 6.37948 34.4559 6.37349 34.6431 6.41106C34.8303 6.44863 35.0064 6.52876 35.1578 6.64526C35.3092 6.76177 35.4318 6.91154 35.5161 7.083C35.6005 7.25446 35.6444 7.44303 35.6444 7.63416C35.6444 7.82529 35.6005 8.01387 35.5161 8.18534C35.4318 8.3568 35.3092 8.50655 35.1578 8.62306C35.0064 8.73956 34.8303 8.81969 34.6431 8.85726C34.4559 8.89483 34.2626 8.88884 34.0781 8.83975Z" fill="#FC7754"/>
<path d="M33.36 28.1965H13.7717C13.5741 28.2175 13.3743 28.1966 13.1852 28.1353C12.9962 28.0739 12.8222 27.9735 12.6745 27.8404C12.5267 27.7074 12.4086 27.5448 12.3277 27.3631C12.2469 27.1814 12.2051 26.9847 12.2051 26.7858C12.2051 26.5869 12.2469 26.3902 12.3277 26.2085C12.4086 26.0268 12.5267 25.8642 12.6745 25.7311C12.8222 25.5981 12.9962 25.4977 13.1852 25.4363C13.3743 25.375 13.5741 25.3541 13.7717 25.3751H33.3591C33.5567 25.3541 33.7565 25.375 33.9455 25.4363C34.1345 25.4977 34.3086 25.5981 34.4563 25.7311C34.604 25.8642 34.7222 26.0268 34.803 26.2085C34.8839 26.3902 34.9257 26.5869 34.9257 26.7858C34.9257 26.9847 34.8839 27.1814 34.803 27.3631C34.7222 27.5448 34.604 27.7074 34.4563 27.8404C34.3086 27.9735 34.1345 28.0739 33.9455 28.1353C33.7565 28.1966 33.5567 28.2175 33.3591 28.1965H33.36Z" fill="#FC7754"/>
<path d="M30.1271 32.8117H13.7717C13.5741 32.8327 13.3743 32.8118 13.1852 32.7505C12.9962 32.6892 12.8222 32.5887 12.6745 32.4557C12.5267 32.3227 12.4086 32.16 12.3277 31.9783C12.2469 31.7966 12.2051 31.5999 12.2051 31.401C12.2051 31.2021 12.2469 31.0054 12.3277 30.8237C12.4086 30.642 12.5267 30.4794 12.6745 30.3464C12.8222 30.2133 12.9962 30.1129 13.1852 30.0515C13.3743 29.9902 13.5741 29.9694 13.7717 29.9903H30.1271C30.3247 29.9694 30.5245 29.9902 30.7135 30.0515C30.9025 30.1129 31.0765 30.2133 31.2243 30.3464C31.372 30.4794 31.4901 30.642 31.571 30.8237C31.6518 31.0054 31.6936 31.2021 31.6936 31.401C31.6936 31.5999 31.6518 31.7966 31.571 31.9783C31.4901 32.16 31.372 32.3227 31.2243 32.4557C31.0765 32.5887 30.9025 32.6892 30.7135 32.7505C30.5245 32.8118 30.3247 32.8327 30.1271 32.8117Z" fill="#FC7754"/>
<path d="M19.6194 15.5477H13.7723C13.5749 15.5699 13.375 15.5501 13.1858 15.4897C12.9965 15.4293 12.8221 15.3295 12.6739 15.197C12.5258 15.0644 12.4073 14.9021 12.3262 14.7205C12.2451 14.539 12.2031 14.3424 12.2031 14.1435C12.2031 13.9446 12.2451 13.748 12.3262 13.5664C12.4073 13.3849 12.5258 13.2226 12.6739 13.09C12.8221 12.9575 12.9965 12.8577 13.1858 12.7973C13.375 12.7369 13.5749 12.7171 13.7723 12.7393H19.6194C19.8168 12.7171 20.0167 12.7369 20.206 12.7973C20.3953 12.8577 20.5697 12.9575 20.7178 13.09C20.8659 13.2226 20.9844 13.3849 21.0655 13.5664C21.1467 13.748 21.1886 13.9446 21.1886 14.1435C21.1886 14.3424 21.1467 14.539 21.0655 14.7205C20.9844 14.9021 20.8659 15.0644 20.7178 15.197C20.5697 15.3295 20.3953 15.4293 20.206 15.4897C20.0167 15.5501 19.8168 15.5699 19.6194 15.5477Z" fill="#FC7754"/>
<path d="M19.6194 20.3192H13.7723C13.5749 20.3414 13.375 20.3216 13.1858 20.2612C12.9965 20.2007 12.8221 20.101 12.6739 19.9684C12.5258 19.8359 12.4073 19.6736 12.3262 19.492C12.2451 19.3105 12.2031 19.1139 12.2031 18.915C12.2031 18.7161 12.2451 18.5195 12.3262 18.3379C12.4073 18.1564 12.5258 17.9941 12.6739 17.8615C12.8221 17.729 12.9965 17.6292 13.1858 17.5688C13.375 17.5084 13.5749 17.4886 13.7723 17.5108H19.6194C19.8168 17.4886 20.0167 17.5084 20.206 17.5688C20.3953 17.6292 20.5697 17.729 20.7178 17.8615C20.8659 17.9941 20.9844 18.1564 21.0655 18.3379C21.1467 18.5195 21.1886 18.7161 21.1886 18.915C21.1886 19.1139 21.1467 19.3105 21.0655 19.492C20.9844 19.6736 20.8659 19.8359 20.7178 19.9684C20.5697 20.101 20.3953 20.2007 20.206 20.2612C20.0167 20.3216 19.8168 20.3414 19.6194 20.3192Z" fill="#FC7754"/>
</svg>
