<svg width="36" height="40" viewBox="0 0 36 40" fill="none" xmlns="http://www.w3.org/2000/svg">
<path d="M19.0411 0C19.8122 0.202562 20.5332 0.560925 21.1592 1.0528C21.6453 1.44115 22.0496 1.92113 22.3491 2.46527C22.6486 3.00941 22.8374 3.60701 22.9046 4.22387C23.0543 5.68574 23.0607 7.14126 22.2198 8.45092C22.0478 8.72363 21.844 8.97732 21.637 9.26271C22.1179 9.38321 22.5925 9.472 23.0575 9.62738C24.1905 9.98421 25.2213 10.6056 26.064 11.4396C26.9068 12.2737 27.537 13.2962 27.9021 14.4221C28.5805 16.3469 29.2239 18.2844 29.8578 20.2219C30.0614 20.8808 30.3619 21.5059 30.7496 22.077C30.9326 22.3304 31.0955 22.5976 31.2369 22.8761C31.3273 23.0532 31.3446 23.2585 31.2851 23.4481C31.2256 23.6377 31.094 23.7966 30.9184 23.8909C30.754 23.9924 30.5562 24.0257 30.3674 23.9836C30.1786 23.9415 30.0139 23.8274 29.9087 23.6657C29.3895 22.8476 28.7939 22.0802 28.4913 21.1289C27.8543 19.1089 27.1472 17.108 26.4656 15.1038C25.8286 13.2361 24.6437 11.8567 22.7549 11.2002C22.0244 10.9615 21.2622 10.8322 20.4935 10.8165C18.8372 10.7626 17.1746 10.788 15.5152 10.8165C13.1646 10.8387 11.3299 11.8027 10.1005 13.8322C9.86403 14.2507 9.66985 14.6916 9.52077 15.1482C8.7882 17.276 8.07792 19.407 7.35171 21.5348C7.26784 21.781 7.15448 22.0163 7.01408 22.2356C5.30686 24.931 3.59008 27.6264 1.88604 30.3155C1.73483 30.5541 1.63706 30.8223 1.59938 31.1019C1.57904 31.2927 1.62269 31.4848 1.72352 31.6483C1.82435 31.8118 1.97669 31.9374 2.15678 32.0057C2.33297 32.095 2.53268 32.1278 2.72835 32.0994C2.92403 32.071 3.10603 31.9828 3.24927 31.8471C3.36158 31.7383 3.46097 31.617 3.54549 31.4856C5.49478 28.7373 7.44089 25.9806 9.38381 23.2154C9.50173 23.0446 9.60103 22.8618 9.68003 22.67C10.3521 21.0845 11.0305 19.4989 11.6739 17.9134C11.838 17.494 11.9452 17.0546 11.9924 16.6069C12.0689 15.9727 12.4861 15.5954 13.0276 15.7729C13.1697 15.8116 13.2961 15.8935 13.3892 16.0072C13.4823 16.1209 13.5374 16.2608 13.5468 16.4071C13.5648 16.5746 13.5733 16.7429 13.5722 16.9113C13.5722 20.0824 13.5722 23.2588 13.5722 26.4404V26.9256H22.4173V26.4499C22.4173 23.2598 22.4173 20.0708 22.4173 16.8828C22.4089 16.6756 22.4315 16.4683 22.4842 16.2676C22.5271 16.1074 22.6253 15.9675 22.7617 15.8723C22.898 15.7772 23.0637 15.733 23.2295 15.7476C23.3128 15.7378 23.3972 15.7446 23.4778 15.7674C23.5584 15.7902 23.6338 15.8286 23.6994 15.8805C23.7651 15.9323 23.8199 15.9966 23.8606 16.0695C23.9013 16.1425 23.9271 16.2227 23.9366 16.3057C23.9812 17.8658 24.924 19.1026 25.389 20.5105C25.4527 20.7071 25.5547 20.891 25.6247 21.0845C26.1075 22.3622 26.7714 23.5646 27.5963 24.6551C29.243 26.9224 30.8388 29.2246 32.4505 31.5142C32.7244 31.9042 33.0524 32.1769 33.5557 32.1008C34.3042 31.9835 34.6354 31.1939 34.2182 30.5153C33.8009 29.8367 33.4092 29.2468 33.0047 28.6126C32.9245 28.4943 32.8553 28.3691 32.7976 28.2384C32.7257 28.071 32.7156 27.8835 32.7692 27.7094C32.8229 27.5352 32.9368 27.3856 33.0907 27.2871C33.2428 27.1796 33.4312 27.1359 33.6154 27.1656C33.7996 27.1952 33.9646 27.2958 34.0749 27.4457C34.7235 28.3406 35.2997 29.2853 35.798 30.2711C36.4032 31.6283 35.5878 33.1441 34.1609 33.6007C34.0653 33.6324 33.9634 33.661 33.9029 33.6768C33.9985 34.2616 34.0612 34.8513 34.0908 35.4431C34.0303 38.3351 31.2465 40.5422 28.4213 39.8826C25.8445 39.2738 23.3028 38.5159 20.7356 37.8658C19.7355 37.6153 18.764 37.0699 17.7161 37.2316C16.6923 37.4367 15.681 37.6992 14.687 38.018C12.3555 38.6522 10.0368 39.3182 7.67978 39.8636C6.87136 40.0548 6.0265 40.0294 5.23113 39.79C4.43576 39.5506 3.71827 39.1058 3.15163 38.5007C2.58499 37.8957 2.18943 37.152 2.00517 36.3453C1.82092 35.5387 1.85454 34.6978 2.10263 33.9083C2.12493 33.8354 2.14085 33.7624 2.16952 33.6578C1.79366 33.5907 1.43716 33.4423 1.12513 33.2231C0.813103 33.004 0.55314 32.7194 0.363554 32.3894C0.135967 32.021 0.010733 31.5991 0.000659677 31.1667C-0.00941364 30.7344 0.0960353 30.3071 0.306222 29.9286C0.662955 29.2659 1.09613 28.6412 1.50064 28.0038C2.87024 25.8517 4.23878 23.6975 5.60626 21.5411C5.73903 21.3339 5.84598 21.1113 5.92477 20.8784C6.63824 18.7854 7.33578 16.6894 8.05243 14.5996C8.42493 13.3867 9.09946 12.2872 10.0133 11.4035C10.9271 10.5197 12.0506 9.8804 13.2792 9.54494C13.6264 9.44029 13.9927 9.38955 14.394 9.30076C14.3144 9.19612 14.2507 9.10733 14.1838 9.02488C13.4647 8.16079 13.0705 7.07425 13.069 5.95211C13.069 5.02933 13.0085 4.10337 13.3461 3.2123C13.6029 2.48371 14.029 1.82587 14.5898 1.29242C15.1505 0.758969 15.8299 0.36502 16.5726 0.142699C16.6937 0.104646 16.8083 0.0475661 16.9262 0H19.0411ZM20.6782 36.1503C20.726 36.1978 20.7419 36.2232 20.7611 36.2295C23.3824 36.9335 25.9974 37.6597 28.6251 38.3288C29.1984 38.4988 29.81 38.4913 30.3789 38.3072C30.9477 38.1232 31.4469 37.7713 31.8102 37.2982C33.1671 35.6587 32.6607 33.4295 30.7209 32.4306C28.2302 31.1463 25.7235 29.8937 23.2232 28.6253C23.0727 28.5504 22.9072 28.5103 22.739 28.508C19.6027 28.508 16.4654 28.508 13.327 28.508C13.1592 28.5078 12.9936 28.5458 12.8429 28.619C10.3393 29.8874 7.83585 31.1558 5.34827 32.4242C4.91783 32.6415 4.53383 32.9398 4.21755 33.3026C3.79818 33.8153 3.55282 34.447 3.51671 35.1072C3.4806 35.7673 3.6556 36.4219 4.01657 36.9768C4.37754 37.5317 4.9059 37.9585 5.52574 38.1957C6.14558 38.4329 6.825 38.4684 7.46637 38.2971C11.3522 37.2802 15.2317 36.2412 19.1048 35.1799C19.4004 35.0851 19.6639 34.9105 19.866 34.6757C19.9988 34.496 20.0703 34.2788 20.0703 34.0558C20.0703 33.8327 19.9988 33.6155 19.866 33.4358C19.7246 33.2291 19.5195 33.0737 19.2817 32.9931C19.0439 32.9125 18.7862 32.9109 18.5474 32.9887L9.59403 35.0911C9.03663 35.2211 8.61301 35.0023 8.51427 34.5457C8.41554 34.0891 8.67672 33.7149 9.24048 33.5754C9.80425 33.4358 10.4349 33.29 11.0305 33.1504C13.4448 32.5839 15.8581 32.0194 18.2703 31.4571C18.6978 31.3505 19.1448 31.3487 19.5731 31.452C20.0014 31.5553 20.3981 31.7605 20.7292 32.0501C20.8618 32.1503 21.0152 32.2197 21.1783 32.253C23.0416 32.7001 24.9113 33.1346 26.7746 33.5785C27.3256 33.7085 27.5963 34.1049 27.4817 34.5647C27.367 35.0245 26.9434 35.218 26.4242 35.0975C25.905 34.977 25.3062 34.8343 24.7456 34.7043L21.6306 33.9781C21.6356 34.3848 21.5532 34.7879 21.389 35.1604C21.2247 35.5328 20.9824 35.866 20.6782 36.1376V36.1503ZM14.6265 5.35278C14.6265 5.66988 14.6265 5.98699 14.6743 6.3041C14.7648 7.06523 15.1156 7.77218 15.6677 8.30629C16.2199 8.8404 16.9397 9.16915 17.7065 9.23734C18.4815 9.32668 19.2629 9.13424 19.9067 8.69548C20.5505 8.25671 21.0134 7.60116 21.2102 6.84952C21.3791 6.03825 21.4146 5.20504 21.3153 4.38243C21.264 3.80713 21.0493 3.25826 20.6962 2.80002C20.3431 2.34178 19.8662 1.99312 19.3214 1.79483C18.792 1.5459 18.2039 1.44705 17.6218 1.50915C17.0397 1.57125 16.486 1.79188 16.0216 2.14682C14.9482 2.94276 14.5692 4.04946 14.6297 5.34009L14.6265 5.35278ZM29.4055 29.9952L29.4405 29.9381C28.3225 28.3526 27.2269 26.767 26.0802 25.1815C25.3559 24.2296 24.7754 23.1772 24.3571 22.058C24.2806 21.836 24.1723 21.6267 24.0768 21.4238C24.0003 23.2694 24.0067 25.0832 23.994 26.9002C23.9797 27.0121 24.0032 27.1255 24.0609 27.2226C24.1186 27.3196 24.2071 27.3948 24.3125 27.4361C25.905 28.2289 27.4976 29.0439 29.0902 29.8493C29.2016 29.8906 29.3131 29.935 29.4087 29.9825L29.4055 29.9952ZM11.9829 21.4777C11.9351 21.5094 11.9064 21.5157 11.8969 21.5316C11.8427 21.6489 11.7886 21.7694 11.7408 21.8899C11.3456 22.9474 10.818 23.951 10.1705 24.8771C9.00478 26.4404 7.9091 28.0482 6.78157 29.6496L6.54269 30.0174C6.66054 29.973 6.70831 29.9603 6.74972 29.9381C8.42509 29.0914 10.0941 28.2384 11.7727 27.4013C11.9988 27.2903 12.0084 27.1317 12.0084 26.9288C12.0084 25.2259 12.0084 23.523 12.0084 21.8202C12.0084 21.6997 11.9956 21.5887 11.9861 21.465L11.9829 21.4777Z" fill="#C305D3"/>
<path d="M31.9276 26.2474C31.827 26.2458 31.7276 26.2243 31.6353 26.1844C31.543 26.1444 31.4595 26.0866 31.3897 26.0144C31.3198 25.9423 31.265 25.857 31.2283 25.7637C31.1916 25.6704 31.1738 25.5707 31.1759 25.4705C31.1839 25.2622 31.2707 25.0647 31.4191 24.9176C31.5674 24.7705 31.7662 24.6848 31.9754 24.6777C32.1855 24.6835 32.3849 24.7712 32.5308 24.9218C32.6768 25.0724 32.7575 25.2739 32.7558 25.4832C32.7405 25.6912 32.6465 25.8858 32.4928 26.0276C32.3391 26.1694 32.1372 26.248 31.9276 26.2474Z" fill="#C305D3"/>
</svg>
