<svg width="51" height="40" viewBox="0 0 51 40" fill="none" xmlns="http://www.w3.org/2000/svg">
<path d="M8.02653 10.3515C7.93917 10.3516 7.85193 10.3452 7.76558 10.3322L7.56921 10.3021C7.12697 10.2325 6.73073 9.9932 6.46712 9.63663C6.20351 9.28007 6.094 8.83521 6.16254 8.39934C6.23108 7.96347 6.4721 7.57207 6.83287 7.31073C7.19364 7.04939 7.64481 6.93939 8.08772 7.00477L8.28405 7.0349C8.70486 7.09978 9.08542 7.31839 9.34991 7.64719C9.61439 7.97599 9.74341 8.39084 9.71125 8.80911C9.67909 9.22738 9.48812 9.61838 9.17637 9.9042C8.86463 10.19 8.455 10.3497 8.02907 10.3515H8.02653Z" fill="#959817"/>
<path d="M14.921 10.3523C14.8334 10.3521 14.7459 10.3454 14.6593 10.3322L14.4637 10.3021C14.0215 10.2325 13.6253 9.9932 13.3617 9.63663C13.098 9.28007 12.9885 8.83521 13.0571 8.39934C13.1256 7.96347 13.3666 7.57207 13.7274 7.31073C14.0881 7.04939 14.5393 6.93939 14.9822 7.00477L15.1777 7.0349C15.5997 7.09859 15.9817 7.3168 16.2473 7.64589C16.5129 7.97499 16.6425 8.39071 16.6103 8.8099C16.5781 9.2291 16.3864 9.62085 16.0735 9.90682C15.7606 10.1928 15.3496 10.3519 14.9227 10.3523H14.921Z" fill="#959817"/>
<path d="M10.5547 17.1402C10.1015 16.9712 9.68993 16.7095 9.34707 16.3722C9.00421 16.035 8.73792 15.63 8.56575 15.1839C8.4139 14.7869 8.42136 14.3478 8.5866 13.956C8.75184 13.5642 9.06243 13.2491 9.45521 13.0748C9.84799 12.9005 10.2935 12.8802 10.7009 13.0179C11.1084 13.1556 11.4473 13.441 11.6486 13.8161L11.675 13.7642C11.8423 13.3535 12.1683 13.025 12.5815 12.8511C12.9947 12.6772 13.4611 12.672 13.8782 12.8367C14.2952 13.0014 14.6287 13.3226 14.8053 13.7295C14.982 14.1364 14.9872 14.5957 14.8199 15.0065C14.5882 15.6604 14.1648 16.232 13.6034 16.6491C13.042 17.0663 12.3677 17.3103 11.6656 17.3503C11.6254 17.3525 11.5852 17.3525 11.545 17.3503C11.206 17.3296 10.8722 17.2587 10.5547 17.1402Z" fill="#959817"/>
<path d="M35.0786 10.3234C34.673 10.3242 34.2807 10.1809 33.9737 9.91992L33.8232 9.79184C33.652 9.64973 33.511 9.47558 33.4085 9.27947C33.306 9.08336 33.244 8.86918 33.2261 8.64932C33.2082 8.42947 33.2347 8.2083 33.3042 7.99861C33.3737 7.78892 33.4847 7.59488 33.6308 7.4277C33.7768 7.26053 33.9551 7.12354 34.1553 7.02467C34.3555 6.9258 34.5737 6.867 34.7971 6.85168C35.0205 6.83637 35.2448 6.86483 35.4569 6.93543C35.6691 7.00603 35.865 7.11737 36.0332 7.26299L36.1836 7.39191C36.4451 7.61413 36.6313 7.90977 36.7172 8.23918C36.8032 8.56858 36.7848 8.916 36.6646 9.23483C36.5443 9.55366 36.3279 9.82866 36.0445 10.0229C35.761 10.2172 35.424 10.3215 35.0786 10.3217V10.3234Z" fill="#959817"/>
<path d="M42.0213 10.324C41.6156 10.3249 41.2233 10.1816 40.9163 9.92048L40.765 9.79241C40.4299 9.50227 40.2245 9.09365 40.1935 8.65528C40.1626 8.21691 40.3084 7.78421 40.5995 7.45114C40.8906 7.11808 41.3033 6.91156 41.7481 6.87644C42.1928 6.84131 42.6337 6.98043 42.975 7.26356L43.1263 7.39247C43.3877 7.61469 43.5739 7.91033 43.6598 8.23974C43.7458 8.56915 43.7274 8.91657 43.6072 9.2354C43.4869 9.55423 43.2706 9.82922 42.9871 10.0235C42.7036 10.2178 42.3666 10.322 42.0213 10.3223V10.324Z" fill="#959817"/>
<path d="M40.5665 16.8067C40.1946 16.856 39.8166 16.7823 39.4918 16.5971C39.1671 16.412 38.914 16.1259 38.7722 15.7838C38.7594 15.8014 38.7492 15.8198 38.7407 15.8348C38.5245 16.2186 38.1648 16.5042 37.7381 16.6307C37.3113 16.7572 36.8513 16.7146 36.4559 16.512C36.0639 16.3109 35.7682 15.9656 35.6331 15.5511C35.4979 15.1365 35.5343 14.6862 35.7343 14.2979C36.0296 13.671 36.506 13.1437 37.1039 12.782C37.7018 12.4202 38.3947 12.24 39.096 12.2638C39.1368 12.2638 39.181 12.2713 39.2167 12.278C39.8654 12.3804 40.4705 12.6647 40.9595 13.0968C41.4485 13.529 41.8007 14.0907 41.9741 14.7148C42.0325 14.9262 42.0481 15.1469 42.02 15.3642C41.9918 15.5816 41.9204 15.7913 41.8099 15.9814C41.6994 16.1716 41.5519 16.3384 41.3759 16.4724C41.1999 16.6064 40.9988 16.7049 40.7841 16.7623C40.7125 16.7814 40.6398 16.7962 40.5665 16.8067Z" fill="#959817"/>
<path d="M11.3711 22.3972C9.12212 22.3972 6.92362 21.7404 5.05365 20.5099C3.18368 19.2794 1.72624 17.5304 0.865583 15.4841C0.00493094 13.4378 -0.22026 11.1862 0.218496 9.01386C0.657253 6.84155 1.74023 4.84615 3.33051 3.28C4.92079 1.71385 6.94693 0.647284 9.15271 0.215183C11.3585 -0.216917 13.6448 0.00485144 15.7226 0.852447C17.8004 1.70004 19.5764 3.13539 20.8259 4.97699C22.0753 6.81859 22.7422 8.98373 22.7422 11.1986C22.7388 14.1676 21.5397 17.0141 19.408 19.1135C17.2762 21.213 14.3859 22.3939 11.3711 22.3972ZM11.3711 2.78082C9.68062 2.78098 8.02814 3.27482 6.62263 4.19988C5.21711 5.12494 4.1217 6.43967 3.47489 7.97783C2.82808 9.516 2.65893 11.2085 2.98884 12.8413C3.31874 14.4742 4.13288 15.974 5.3283 17.1512C6.52371 18.3283 8.04674 19.13 9.70476 19.4547C11.3628 19.7794 13.0813 19.6127 14.6431 18.9755C16.2049 18.3384 17.5398 17.2595 18.479 15.8752C19.4181 14.4909 19.9194 12.8634 19.9194 11.1986C19.917 8.96659 19.0155 6.8267 17.4129 5.24843C15.8104 3.67016 13.6375 2.78242 11.3711 2.77998V2.78082Z" fill="#959817"/>
<path d="M38.5313 22.3972C36.2823 22.3972 34.0838 21.7404 32.2138 20.5099C30.3438 19.2794 28.8864 17.5304 28.0257 15.4841C27.1651 13.4378 26.9399 11.1862 27.3787 9.01386C27.8174 6.84155 28.9004 4.84615 30.4907 3.28C32.0809 1.71385 34.1071 0.647284 36.3129 0.215183C38.5186 -0.216917 40.805 0.00485144 42.8828 0.852447C44.9606 1.70004 46.7365 3.13539 47.986 4.97699C49.2355 6.81859 49.9024 8.98373 49.9024 11.1986C49.899 14.1676 48.6999 17.0141 46.5681 19.1135C44.4364 21.213 41.546 22.3939 38.5313 22.3972ZM38.5313 2.78082C36.8408 2.78098 35.1883 3.27482 33.7828 4.19988C32.3773 5.12494 31.2819 6.43967 30.635 7.97783C29.9882 9.516 29.8191 11.2085 30.149 12.8413C30.4789 14.4742 31.293 15.974 32.4885 17.1512C33.6839 18.3283 35.2069 19.13 36.8649 19.4547C38.5229 19.7794 40.2415 19.6127 41.8033 18.9755C43.3651 18.3384 44.7 17.2595 45.6391 15.8752C46.5783 14.4909 47.0796 12.8634 47.0796 11.1986C47.0771 8.96659 46.1757 6.8267 44.5731 5.24843C42.9705 3.67016 40.7977 2.78242 38.5313 2.77998V2.78082Z" fill="#959817"/>
<path d="M26.4073 40.0002C26.3452 40.0002 26.2824 40.0002 26.2186 39.991C25.7396 39.952 25.2885 39.7533 24.9395 39.4278C24.5906 39.1023 24.3648 38.6694 24.2993 38.2004L22.6045 26.4276L21.0524 30.1024H2.02802C1.57873 30.1024 1.14785 29.9267 0.830155 29.6138C0.512465 29.3009 0.333984 28.8766 0.333984 28.4341C0.333984 27.9916 0.512465 27.5673 0.830155 27.2544C1.14785 26.9415 1.57873 26.7658 2.02802 26.7658H18.7906L21.2453 20.9597C21.4244 20.5364 21.7397 20.1828 22.1428 19.9532C22.5458 19.7235 23.0142 19.6306 23.4761 19.6887C23.938 19.7469 24.3677 19.9528 24.6991 20.2748C25.0306 20.5968 25.2455 21.0172 25.3108 21.4712L26.8875 32.417L28.7516 26.7666H49.3059C49.7552 26.7666 50.1861 26.9424 50.5038 27.2553C50.8215 27.5681 50.9999 27.9925 50.9999 28.4349C50.9999 28.8774 50.8215 29.3017 50.5038 29.6146C50.1861 29.9275 49.7552 30.1033 49.3059 30.1033H31.2131L28.4226 38.5579C28.285 38.9774 28.0157 39.3431 27.6535 39.6023C27.2913 39.8615 26.855 40.0008 26.4073 40.0002Z" fill="#959817"/>
</svg>
