<svg width="39" height="40" viewBox="0 0 39 40" fill="none" xmlns="http://www.w3.org/2000/svg">
<path d="M20.711 0.0078125C21.4524 0.112139 22.1938 0.198478 22.9282 0.327986C23.4781 0.416836 24.0227 0.536939 24.5594 0.687732C24.9499 0.793161 25.2832 1.05232 25.4862 1.4082C25.6891 1.76408 25.745 2.18753 25.6415 2.58539C25.5381 2.98326 25.2837 3.32294 24.9344 3.52972C24.5852 3.7365 24.1696 3.79344 23.7791 3.68801C21.9488 3.20809 20.0528 3.04154 18.1689 3.19516C14.7468 3.46158 11.4986 4.83838 8.90084 7.12359C5.81927 9.75635 3.79804 13.4539 3.22351 17.5095C2.18549 24.1756 5.43018 31.1798 11.164 34.5147C16.7284 37.7272 22.3315 37.6696 27.91 34.5147C28.6832 34.0758 29.4423 34.1549 29.9507 34.7521C30.1861 35.0211 30.3214 35.3658 30.333 35.7261C30.3446 36.0863 30.2318 36.4393 30.0143 36.7235C29.8612 36.9143 29.6744 37.0741 29.4635 37.1948C26.9086 38.7614 24.03 39.6988 21.057 39.9324C20.9447 39.9462 20.8337 39.969 20.7251 40.0008H18.2889C18.19 39.9792 18.0947 39.9504 17.9959 39.936C17.0779 39.7993 16.1528 39.713 15.249 39.5187C7.68628 37.8855 1.5535 31.3057 0.300107 23.4956C0.180064 22.7546 0.098859 22.0063 0 21.2616V18.7614C0.123574 17.8764 0.215371 16.9878 0.377782 16.1064C1.83242 8.14167 8.31475 1.64466 16.107 0.331585C16.8131 0.209271 17.5616 0.126529 18.2889 0.0222027L20.711 0.0078125Z" fill="#1EB676"/>
<path d="M39.0003 11.2529C38.6931 12.1882 38.047 12.5264 37.1008 12.512C34.7776 12.4796 32.4579 12.512 30.1347 12.512C29.8096 12.5466 29.4821 12.4763 29.1983 12.3111C28.9145 12.1458 28.6888 11.894 28.553 11.591C28.2494 10.9219 28.44 10.3391 28.8814 9.79229C30.5831 7.69617 32.279 5.59166 33.9691 3.47875C34.0397 3.39241 34.1068 3.29887 34.2056 3.16577C34.0609 3.16577 33.9549 3.14058 33.8525 3.14058C32.6097 3.14058 31.3811 3.14058 30.1242 3.14058C29.2026 3.14058 28.5812 2.65852 28.433 1.8419C28.2847 1.02528 28.7189 0.402917 29.5698 0.0431705C29.5914 0.03125 29.6116 0.0167579 29.6299 0H37.7857C38.0756 0.0891633 38.3388 0.251234 38.5511 0.471275C38.7633 0.691316 38.9178 0.962249 39.0003 1.25911V1.88147C38.8625 2.17049 38.7031 2.4483 38.5236 2.71249C36.843 4.8158 35.1565 6.91432 33.4642 9.00804C33.383 9.11237 33.3053 9.22029 33.1923 9.36779C34.541 9.36779 35.8227 9.39657 37.1008 9.36779C38.047 9.33901 38.6931 9.69156 39.0003 10.6269V11.2529Z" fill="#1EB676"/>
<path d="M38.9994 21.1685C38.897 21.9383 38.8229 22.7118 38.6922 23.4745C38.2282 26.1935 37.2094 28.7831 35.7018 31.0759C35.5947 31.2506 35.4541 31.4015 35.2883 31.5195C35.1226 31.6375 34.9352 31.7201 34.7373 31.7624C34.5395 31.8048 34.3353 31.8059 34.137 31.7658C33.9387 31.7258 33.7504 31.6453 33.5834 31.5292C33.4149 31.4172 33.2699 31.2723 33.1569 31.1028C33.0439 30.9333 32.965 30.7425 32.925 30.5417C32.8849 30.3409 32.8844 30.134 32.9235 29.9329C32.9625 29.7319 33.0404 29.5408 33.1526 29.3707C34.2468 27.6775 35.0425 25.8026 35.504 23.8306C35.9929 21.7251 36.0744 19.5428 35.7441 17.4055C35.6714 17.0797 35.7004 16.7388 35.827 16.4306C35.9536 16.1223 36.1715 15.862 36.4503 15.686C36.7113 15.5234 37.0145 15.445 37.3201 15.461C37.6257 15.4771 37.9194 15.5868 38.1626 15.7759C38.3386 15.9165 38.4836 16.0933 38.5882 16.2947C38.6929 16.4961 38.7548 16.7177 38.7699 16.9451C38.8441 17.5746 38.9217 18.2006 38.9994 18.8301V21.1685Z" fill="#1EB676"/>
<path d="M14.9219 28.2822C14.9219 27.3572 15.1911 26.453 15.6954 25.6839C16.1997 24.9149 16.9166 24.3154 17.7553 23.9615C18.594 23.6075 19.5168 23.5149 20.4072 23.6953C21.2975 23.8758 22.1154 24.3212 22.7573 24.9752C23.3992 25.6293 23.8363 26.4626 24.0134 27.3698C24.1905 28.277 24.0997 29.2173 23.7523 30.0719C23.4049 30.9264 22.8166 31.6568 22.0618 32.1707C21.307 32.6846 20.4195 32.9589 19.5118 32.9589C18.2944 32.9589 17.127 32.4661 16.2662 31.5891C15.4054 30.712 14.9219 29.5225 14.9219 28.2822ZM21.0158 28.2822C21.0116 27.976 20.9186 27.678 20.7484 27.4256C20.5782 27.1733 20.3384 26.9779 20.0594 26.8642C19.7804 26.7505 19.4746 26.7235 19.1805 26.7866C18.8865 26.8497 18.6174 27.0001 18.4071 27.2189C18.1968 27.4376 18.0548 27.7149 17.999 28.0158C17.9432 28.3167 17.976 28.6276 18.0934 28.9095C18.2108 29.1914 18.4075 29.4315 18.6587 29.5996C18.9098 29.7678 19.2042 29.8564 19.5047 29.8543C19.7067 29.851 19.9061 29.8071 20.0914 29.7252C20.2768 29.6433 20.4444 29.5249 20.5848 29.3769C20.7252 29.2289 20.8355 29.054 20.9095 28.8625C20.9834 28.6709 21.0196 28.4664 21.0158 28.2606V28.2822Z" fill="#1EB676"/>
<path d="M12.7928 21.0075C11.792 21.0001 10.8338 20.5939 10.1232 19.8759C9.41253 19.1579 9.00589 18.185 8.99024 17.1654C8.9898 16.766 9.14028 16.3818 9.41045 16.0924C9.68063 15.8031 10.0498 15.6308 10.4413 15.6114C10.8328 15.5919 11.2166 15.7268 11.5131 15.988C11.8096 16.2493 11.996 16.6167 12.0337 17.0143C12.0831 17.5719 12.3867 17.8921 12.8104 17.8849C13.2341 17.8777 13.5166 17.5611 13.5625 17.0251C13.5653 16.8157 13.6096 16.609 13.6927 16.4175C13.7759 16.226 13.8962 16.0535 14.0464 15.9106C14.1966 15.7676 14.3736 15.6571 14.5668 15.5856C14.76 15.5141 14.9654 15.4831 15.1706 15.4945C15.3758 15.5059 15.5767 15.5594 15.7611 15.6519C15.9455 15.7444 16.1097 15.8739 16.2438 16.0327C16.3778 16.1914 16.479 16.3761 16.5412 16.5757C16.6035 16.7753 16.6255 16.9857 16.6059 17.1942C16.5838 18.2109 16.1728 19.1786 15.4605 19.891C14.7481 20.6033 13.7909 21.004 12.7928 21.0075Z" fill="#1EB676"/>
<path d="M26.2584 21.0086C25.2618 20.9985 24.3084 20.5931 23.6004 19.8785C22.8924 19.1638 22.4856 18.1962 22.4664 17.1809C22.4481 16.7697 22.591 16.368 22.8634 16.064C23.1359 15.7601 23.5157 15.5789 23.9193 15.5603C24.3229 15.5417 24.7172 15.6872 25.0155 15.9648C25.3137 16.2424 25.4916 16.6294 25.5098 17.0406C25.5557 17.5695 25.8417 17.886 26.2725 17.886C26.7032 17.886 26.9963 17.5695 27.0386 17.0442C27.042 16.835 27.0868 16.6287 27.1703 16.4376C27.2538 16.2465 27.3744 16.0745 27.5247 15.932C27.675 15.7894 27.852 15.6793 28.0451 15.6082C28.2383 15.5371 28.4435 15.5064 28.6485 15.518C28.8535 15.5297 29.0541 15.5834 29.2383 15.6759C29.4224 15.7684 29.5863 15.8979 29.7202 16.0565C29.8541 16.2152 29.9551 16.3997 30.0173 16.5991C30.0795 16.7985 30.1015 17.0086 30.0821 17.2169C30.0536 18.2314 29.6385 19.1948 28.9246 19.9026C28.2108 20.6105 27.2544 21.0072 26.2584 21.0086Z" fill="#1EB676"/>
</svg>
