<svg width="40" height="40" viewBox="0 0 40 40" fill="none" xmlns="http://www.w3.org/2000/svg">
<path d="M28.3266 21.9529C29.0245 21.9936 29.7116 21.7656 30.2466 21.3156C30.9578 20.7244 34.8332 17.1929 34.8332 17.1929C35.0157 16.9761 35.1254 16.7074 35.1466 16.4249C35.1678 16.1423 35.0996 15.8602 34.9515 15.6187C34.7535 15.4493 34.5029 15.3537 34.2424 15.348C33.9819 15.3423 33.7274 15.4269 33.5222 15.5875L28.876 19.912C28.8546 19.928 28.8354 19.9469 28.819 19.968C28.5719 20.1911 28.1408 20.4267 27.1568 19.7227L31.6608 15.2631C32.0022 14.9244 31.8164 14.2249 31.4778 13.8835C31.3041 13.7013 31.0709 13.5874 30.8204 13.5623C30.57 13.5372 30.3188 13.6026 30.1124 13.7466L25.5692 18.2444C25.4284 18.0781 25.324 17.8841 25.2628 17.675C25.2016 17.4658 25.1849 17.2462 25.2138 17.0302C25.2958 16.4732 25.5861 15.968 26.0262 15.6169C26.0574 15.5952 26.087 15.5714 26.115 15.5457L29.7479 12.0791C29.9246 11.923 30.0339 11.7045 30.053 11.4695C30.072 11.2345 29.9994 11.0012 29.8502 10.8186C29.6573 10.6546 29.4123 10.5645 29.1591 10.5645C28.9058 10.5645 28.6608 10.6546 28.4679 10.8186L24.9479 14.1075C24.1295 14.8205 23.6068 15.8133 23.4822 16.8916C23.4072 17.3235 23.431 17.7669 23.552 18.1883C23.673 18.6097 23.888 18.9981 24.1808 19.3244L13.9701 29.4338C13.8618 29.5639 13.7824 29.7156 13.7371 29.8787C13.6917 30.0419 13.6815 30.2128 13.7071 30.3801C13.7328 30.5475 13.7937 30.7075 13.8857 30.8496C13.9778 30.9917 14.0989 31.1127 14.2412 31.2045C14.4763 31.4143 14.7804 31.5303 15.0955 31.5303C15.4106 31.5303 15.7146 31.4143 15.9496 31.2045L26.1915 21.064C26.7903 21.5802 27.5384 21.8916 28.3266 21.9529Z" fill="#FFC603"/>
<path d="M20.0001 40C16.0444 40 12.1776 38.8272 8.88863 36.6296C5.59964 34.4319 3.03619 31.3082 1.52243 27.6536C0.00867644 23.9991 -0.387405 19.9779 0.3843 16.0983C1.15601 12.2186 3.06083 8.65486 5.85789 5.8578C8.65494 3.06075 12.2186 1.15598 16.0982 0.384272C19.9779 -0.387433 23.9992 0.00875686 27.6537 1.52251C31.3082 3.03627 34.4318 5.59964 36.6295 8.88863C38.8271 12.1776 40.0001 16.0443 40.0001 20C39.9944 25.3026 37.8855 30.3865 34.136 34.1361C30.3865 37.8856 25.3027 39.9944 20.0001 40ZM20.0001 3.24365C16.6859 3.24365 13.4462 4.22622 10.6907 6.06744C7.93507 7.90867 5.78736 10.5258 4.5191 13.5876C3.25084 16.6495 2.91899 20.0186 3.56554 23.2691C4.21209 26.5195 5.80799 29.5053 8.15143 31.8487C10.4949 34.1922 13.4806 35.7879 16.731 36.4345C19.9814 37.081 23.3507 36.7492 26.4125 35.4809C29.4743 34.2126 32.0913 32.065 33.9325 29.3094C35.7738 26.5539 36.7565 23.3141 36.7565 20C36.7514 15.5575 34.9843 11.2984 31.843 8.15707C28.7016 5.01574 24.4426 3.24883 20.0001 3.24365Z" fill="#FFC603"/>
<path d="M27.8124 30.1268C27.9389 30.0327 28.0438 29.9125 28.1199 29.7744C28.196 29.6363 28.2417 29.4835 28.2537 29.3263C28.2658 29.1691 28.244 29.0111 28.1898 28.863C28.1356 28.7149 28.0503 28.5802 27.9396 28.4679L17.8442 19.6065C18.3067 18.7155 18.4709 17.6996 18.3125 16.7083C18.1541 15.7169 17.6815 14.8027 16.9644 14.1002C15.8071 13.098 14.4294 12.3833 12.9436 12.0142C10.9619 11.49 9.38078 11.7016 8.49222 12.6118C8.17309 12.9801 7.94062 13.4152 7.81193 13.8852C7.68323 14.3552 7.66158 14.8481 7.74858 15.3276C7.81464 15.896 7.94534 16.4549 8.13813 16.9937C8.62226 18.4083 9.40189 19.7036 10.4252 20.7937C12.1791 22.5072 14.1726 23.0927 15.9909 21.5102L26.0183 30.3125C26.2876 30.5084 26.6198 30.5978 26.951 30.5635C27.2821 30.5292 27.589 30.3737 27.8124 30.1268ZM11.8425 19.2329C11.0467 18.5252 10.4367 17.633 10.0659 16.6346C9.64313 15.4165 9.66808 14.5089 10.067 14.1028C10.4786 13.6811 11.1927 13.5664 12.4824 13.9069C13.69 14.1787 14.8047 14.7637 15.7145 15.603C16.1112 16.1066 16.3169 16.7343 16.2951 17.3749C16.2734 18.0156 16.0256 18.6279 15.5956 19.1033C15.3601 19.3622 15.0751 19.5712 14.7575 19.7182C14.4399 19.8652 14.0961 19.9472 13.7464 19.9592C13.3966 19.9713 13.048 19.9133 12.721 19.7885C12.394 19.6638 12.0953 19.4749 11.8425 19.2329Z" fill="#FFC603"/>
</svg>
