<svg width="50" height="50" viewBox="0 0 50 50" fill="none" xmlns="http://www.w3.org/2000/svg">
<path fill-rule="evenodd" clip-rule="evenodd" d="M20.2557 0.255729C20.1151 0.396354 19.9992 0.572083 19.9982 0.646354C19.9952 0.882083 19.3819 5.75708 19.3518 5.7851C19.3359 5.79979 18.9479 5.93958 18.4896 6.09573C18.0312 6.25187 17.1689 6.60823 16.5732 6.88771C15.9775 7.16719 15.4561 7.39583 15.4148 7.39583C15.3733 7.39583 14.4079 6.66927 13.2696 5.78125C11.5009 4.40167 11.1468 4.16667 10.8361 4.16667C10.4982 4.16667 10.2496 4.38969 7.31958 7.31958C4.38469 10.2545 4.16677 10.4976 4.16875 10.8352C4.17062 11.1432 4.41406 11.5098 5.78333 13.2666C6.67021 14.4044 7.39583 15.371 7.39583 15.4147C7.39583 15.4583 7.16552 15.9805 6.88406 16.5751C6.6026 17.1698 6.24469 18.039 6.08865 18.5067C5.82521 19.2965 5.78177 19.3611 5.48062 19.4132C5.30219 19.4441 4.10156 19.5983 2.8125 19.7559C0.73375 20.0102 0.442292 20.0692 0.234375 20.277L0 20.5114V25V29.4886L0.234375 29.723C0.442292 29.9308 0.73375 29.9898 2.8125 30.2441C4.10156 30.4017 5.30219 30.5559 5.48062 30.5868C5.78177 30.6389 5.82521 30.7035 6.08865 31.4933C6.24469 31.961 6.6026 32.8302 6.88406 33.4249C7.16552 34.0195 7.39583 34.5417 7.39583 34.5853C7.39583 34.629 6.67021 35.5956 5.78333 36.7334C4.41406 38.4902 4.17062 38.8568 4.16875 39.1648C4.16677 39.5024 4.38469 39.7455 7.31958 42.6804C10.2496 45.6103 10.4982 45.8333 10.8361 45.8333C11.1468 45.8333 11.5009 45.5983 13.2696 44.2188C14.4079 43.3307 15.3733 42.6042 15.4148 42.6042C15.4561 42.6042 15.9775 42.8332 16.5732 43.1132C17.1689 43.3931 18.0395 43.7486 18.5079 43.903C19.3423 44.1781 19.3608 44.1917 19.4182 44.5659C19.4505 44.776 19.5987 45.9547 19.7475 47.1852C19.8964 48.4157 20.062 49.5045 20.1156 49.6047C20.1693 49.7049 20.3027 49.8348 20.4122 49.8934C20.539 49.9612 22.2238 50 25.05 50H29.4886L29.723 49.7656C29.9308 49.5577 29.9898 49.2663 30.2441 47.1875C30.4017 45.8984 30.5551 44.7023 30.5849 44.5295C30.6352 44.2379 30.7109 44.1898 31.6327 43.8641C32.1792 43.6709 33.0464 43.3084 33.5598 43.0585C34.0733 42.8086 34.532 42.6042 34.5791 42.6042C34.6261 42.6042 35.5956 43.3298 36.7334 44.2167C38.4902 45.5859 38.8568 45.8294 39.1648 45.8312C39.5024 45.8332 39.7455 45.6153 42.6804 42.6804C45.6153 39.7455 45.8332 39.5024 45.8312 39.1648C45.8294 38.8568 45.5859 38.4902 44.2167 36.7334C43.3298 35.5956 42.6042 34.6299 42.6042 34.5873C42.6042 34.5447 42.8332 34.0225 43.1132 33.4268C43.3931 32.8311 43.7498 31.957 43.9056 31.4844C44.0615 31.0117 44.2191 30.6246 44.2559 30.6241C44.2928 30.6235 45.4233 30.4829 46.7683 30.3116C48.1134 30.1402 49.2756 30 49.3512 30C49.4268 30 49.6036 29.8849 49.7443 29.7443L50 29.4886V25V20.5114L49.7443 20.2557C49.6036 20.1151 49.427 20 49.3517 20C49.1622 20 44.2328 19.3722 44.2081 19.3449C44.1972 19.3328 44.0604 18.9479 43.9043 18.4896C43.7481 18.0312 43.3918 17.1689 43.1123 16.5732C42.8328 15.9775 42.6042 15.4553 42.6042 15.4127C42.6042 15.3701 43.3298 14.4044 44.2167 13.2666C45.5859 11.5098 45.8294 11.1432 45.8312 10.8352C45.8332 10.4976 45.6153 10.2545 42.6804 7.31958C39.7455 4.38469 39.5024 4.16677 39.1648 4.16875C38.8568 4.17062 38.4902 4.41406 36.7334 5.78333C35.5956 6.67021 34.6285 7.39583 34.5842 7.39583C34.5399 7.39583 34.0285 7.16812 33.4479 6.8899C32.8672 6.61167 31.9978 6.2501 31.5159 6.08656C30.7079 5.81219 30.6356 5.76448 30.5853 5.47271C30.5553 5.29865 30.4017 4.10156 30.2441 2.8125C29.9898 0.73375 29.9308 0.442292 29.723 0.234375L29.4886 0H25H20.5114L20.2557 0.255729ZM28.4381 1.74479C28.4432 2.37 29.0942 6.75156 29.2076 6.92469C29.3154 7.08927 29.7392 7.27896 30.6948 7.59042C31.4299 7.83 32.5858 8.30615 33.2636 8.64844C33.9415 8.99073 34.6011 9.27083 34.7297 9.27083C34.8722 9.27083 35.7475 8.66094 36.9723 7.70833C38.0772 6.84896 39.0108 6.14583 39.047 6.14583C39.1343 6.14583 43.8542 10.8641 43.8542 10.9513C43.8542 10.9884 43.151 11.9228 42.2917 13.0277C41.3109 14.2886 40.7292 15.1259 40.7292 15.2767C40.7292 15.4086 41.0155 16.0875 41.3656 16.7852C41.7156 17.4828 42.1921 18.6361 42.4244 19.3481C42.7198 20.2534 42.9144 20.6869 43.0716 20.7899C43.2023 20.8756 44.1865 21.046 45.4243 21.1973C46.5946 21.3402 47.7279 21.485 47.9427 21.5191L48.3333 21.5808V25V28.4192L47.9427 28.4801C47.7279 28.5135 46.5911 28.6606 45.4167 28.807C44.2356 28.9542 43.1842 29.1367 43.064 29.2152C42.9159 29.3121 42.7122 29.7697 42.4244 30.6519C42.1921 31.3639 41.7156 32.5172 41.3656 33.2148C41.0155 33.9125 40.7292 34.5914 40.7292 34.7233C40.7292 34.8741 41.3109 35.7114 42.2917 36.9723C43.151 38.0772 43.8542 39.0116 43.8542 39.0488C43.8542 39.0858 42.7814 40.1883 41.4701 41.4986C39.753 43.2145 39.0464 43.8567 38.9441 43.7939C38.8659 43.7459 37.9406 43.0368 36.8877 42.2179C35.6944 41.2899 34.8831 40.7292 34.734 40.7292C34.6023 40.7292 33.928 41.0128 33.2356 41.3594C32.5431 41.706 31.3852 42.1856 30.6624 42.4252C29.7552 42.7258 29.3031 42.9296 29.2025 43.083C29.094 43.2487 28.443 47.6529 28.4381 48.2552C28.4378 48.2982 26.8948 48.3333 25.0092 48.3333H21.5808L21.5199 47.9427C21.4865 47.7279 21.3394 46.5911 21.193 45.4167C21.0458 44.2356 20.8633 43.1842 20.7848 43.064C20.6879 42.9159 20.2303 42.7122 19.3481 42.4244C18.6361 42.1921 17.4828 41.7156 16.7852 41.3656C16.0875 41.0155 15.4086 40.7292 15.2767 40.7292C15.1259 40.7292 14.2886 41.3109 13.0277 42.2917C11.9228 43.151 10.9892 43.8542 10.953 43.8542C10.8657 43.8542 6.14583 39.1359 6.14583 39.0488C6.14583 39.0116 6.84896 38.0772 7.70833 36.9723C8.66094 35.7475 9.27083 34.8722 9.27083 34.7297C9.27083 34.6011 8.99073 33.9415 8.64844 33.2636C8.30615 32.5858 7.83 31.4299 7.59042 30.6948C7.27896 29.7392 7.08927 29.3154 6.92469 29.2076C6.75156 29.0942 2.37 28.4432 1.74479 28.4381C1.70177 28.4378 1.66667 26.8906 1.66667 25C1.66667 23.1094 1.70312 21.5625 1.7476 21.5625C2.31292 21.5625 6.765 20.8971 6.93198 20.7876C7.0876 20.6856 7.28625 20.2385 7.59042 19.3052C7.83 18.5701 8.30615 17.4142 8.64844 16.7364C8.99073 16.0585 9.27083 15.3989 9.27083 15.2703C9.27083 15.1278 8.66094 14.2525 7.70833 13.0277C6.84896 11.9228 6.14583 10.9892 6.14583 10.953C6.14583 10.8657 10.8641 6.14583 10.9513 6.14583C10.9884 6.14583 11.9228 6.84896 13.0277 7.70833C14.2886 8.68906 15.1259 9.27083 15.2767 9.27083C15.4086 9.27083 16.0875 8.98448 16.7852 8.63437C17.4828 8.28438 18.6361 7.80792 19.3481 7.57562C20.2666 7.27594 20.6862 7.08667 20.7929 6.92396C20.9058 6.75146 21.5568 2.36771 21.5619 1.74479C21.5622 1.70177 23.1094 1.66667 25 1.66667C26.8906 1.66667 28.4378 1.70177 28.4381 1.74479ZM24.1667 5.83333V6.66667H25H25.8333V5.83333V5H25H24.1667V5.83333ZM23.4896 9.22833C19.2745 9.82906 16.5698 11.1248 13.8473 13.8473C11.4428 16.2517 10.0348 18.9169 9.41354 22.2396C9.145 23.6754 9.14469 26.3206 9.41271 27.7604C10.032 31.0873 11.4328 33.7383 13.8473 36.1527C16.2517 38.5572 18.9169 39.9652 22.2396 40.5865C23.6781 40.8554 26.3219 40.8554 27.7604 40.5865C31.0831 39.9652 33.7483 38.5572 36.1527 36.1527C38.5572 33.7483 39.9652 31.0831 40.5865 27.7604C40.8486 26.358 40.8502 23.5756 40.5895 22.2396C39.9233 18.8253 38.3866 15.9605 35.9754 13.6381C33.6635 11.4115 30.9985 10.0357 27.8125 9.42417C26.9675 9.26198 24.1492 9.13427 23.4896 9.22833ZM10.8321 10.8867L10.2651 11.4607L10.8618 12.0574L11.4583 12.654L12.0549 12.0574L12.6516 11.4607L12.0846 10.8867C11.7727 10.5708 11.4909 10.3125 11.4583 10.3125C11.4257 10.3125 11.144 10.5708 10.8321 10.8867ZM37.9154 10.8867L37.3484 11.4607L37.9451 12.0574L38.5417 12.654L39.1382 12.0574L39.7349 11.4607L39.1679 10.8867C38.856 10.5708 38.5743 10.3125 38.5417 10.3125C38.5091 10.3125 38.2273 10.5708 37.9154 10.8867ZM27.8646 11.129C33.5164 12.3508 37.7919 16.7045 38.9295 22.3958C39.1827 23.6629 39.1751 26.3975 38.9148 27.6562C37.865 32.7326 34.4205 36.7039 29.6285 38.3627C27.9267 38.9518 26.9513 39.1087 25 39.1075C23.8036 39.1068 23.0122 39.0526 22.3958 38.9295C16.626 37.7762 12.2302 33.3879 11.0729 27.626C10.8217 26.3751 10.8214 23.6262 11.0724 22.3769C12.2704 16.4132 16.8786 11.9698 22.8821 10.9895C24.1245 10.7867 26.6019 10.856 27.8646 11.129ZM21.6667 13.4695C21.4661 13.5327 21.0661 13.8209 20.7777 14.1099C20.0461 14.843 19.8374 15.631 20.1225 16.5826C20.2721 17.0819 20.9215 17.8416 21.3506 18.0194L21.6667 18.1503V20.2351V22.3199L19.7499 26.7069C18.6956 29.1197 17.7818 31.2812 17.7192 31.5104C17.5423 32.1578 17.5827 33.0677 17.8195 33.7707C18.2186 34.9557 18.9223 35.7336 20.0993 36.2914L20.7812 36.6146H25.0054H29.2296L30.0167 36.2255C30.9572 35.7607 31.5579 35.1516 31.9933 34.2212C32.3634 33.4302 32.4886 32.3536 32.2983 31.5978C32.2287 31.3218 31.3082 29.1212 30.2526 26.7079L28.3333 22.3199V20.2351V18.1503L28.6494 18.0194C29.3496 17.7294 30 16.6766 30 15.8333C30 14.8703 29.1644 13.7245 28.2692 13.46C27.7104 13.2949 22.1954 13.3028 21.6667 13.4695ZM28.0776 15.2557C28.2389 15.4169 28.3333 15.6304 28.3333 15.8333C28.3333 16.0362 28.2389 16.2498 28.0776 16.4109L27.822 16.6667H25H22.178L21.9224 16.4109C21.7611 16.2498 21.6667 16.0362 21.6667 15.8333C21.6667 15.6304 21.7611 15.4169 21.9224 15.2557L22.178 15H25H27.822L28.0776 15.2557ZM26.6667 20.5058V22.6782L27.2777 24.0735L27.8887 25.4688L26.7308 25.5283C25.8861 25.5718 25.339 25.6633 24.7081 25.8669C24.0554 26.0774 23.6341 26.1454 22.9894 26.1443C22.5197 26.1433 22.0797 26.1072 22.0116 26.064C21.9231 26.0077 22.0941 25.513 22.6105 24.3306L23.3333 22.676V20.5047V18.3333H25H26.6667V20.5058ZM5 25V25.8333H5.83333H6.66667V25V24.1667H5.83333H5V25ZM43.3333 25V25.8333H44.1667H45V25V24.1667H44.1667H43.3333V25ZM28.4444 27.4163C28.7947 27.5683 28.8685 27.6979 29.7465 29.7002C30.6316 31.7191 30.6769 31.8585 30.6733 32.5521C30.6692 33.3604 30.5202 33.7346 29.992 34.2628C29.2958 34.959 29.3901 34.9447 25.2604 34.9796C22.5772 35.0022 21.3829 34.9757 21.0622 34.8864C20.402 34.7025 19.6399 33.9741 19.4223 33.3189C19.1443 32.482 19.2476 32.0359 20.2585 29.7086L21.1769 27.5945L21.4999 27.6774C21.6776 27.723 22.4323 27.755 23.1771 27.7483C24.356 27.7378 24.6323 27.7006 25.3125 27.4607C25.9903 27.2217 26.2248 27.1899 27.0833 27.2202C27.6726 27.2409 28.2232 27.3203 28.4444 27.4163ZM25 30.8333V31.6667H25.8333H26.6667V30.8333V30H25.8333H25V30.8333ZM21.6667 32.5V33.3333H22.5H23.3333V32.5V31.6667H22.5H21.6667V32.5ZM10.8321 37.97L10.2651 38.5441L10.8618 39.1407L11.4583 39.7373L12.0549 39.1407L12.6516 38.5441L12.0846 37.97C11.7727 37.6542 11.4909 37.3958 11.4583 37.3958C11.4257 37.3958 11.144 37.6542 10.8321 37.97ZM37.9154 37.97L37.3484 38.5441L37.9451 39.1407L38.5417 39.7373L39.1382 39.1407L39.7349 38.5441L39.1679 37.97C38.856 37.6542 38.5743 37.3958 38.5417 37.3958C38.5091 37.3958 38.2273 37.6542 37.9154 37.97ZM24.1667 44.1667V45H25H25.8333V44.1667V43.3333H25H24.1667V44.1667Z" fill="#22C58A"/>
</svg>
