<svg width="18" height="18" viewBox="0 0 18 18" fill="none" xmlns="http://www.w3.org/2000/svg">
<path d="M1.60577 4.73094L9 0.46188L16.3942 4.73094V13.2691L9 17.5381L1.60577 13.2691V4.73094Z" stroke="#410EAD" stroke-width="0.8"/>
<path fill-rule="evenodd" clip-rule="evenodd" d="M7.4688 6.25L5 8.50005L5.75314 9.18513L6.50633 9.87022L9.727 6.93509L12.9477 4H11.4426H9.93754L7.4688 6.25ZM9.93796 8.18554C9.87988 8.20815 9.25612 8.75369 8.55177 9.39787L7.27119 10.5691L8.60579 11.7845L9.94039 13L11.4264 12.9872L12.9124 12.9744L11.6159 11.7785L10.3193 10.5825L11.6596 9.36044L13 8.13833L11.5218 8.14136C10.7088 8.14304 9.99605 8.16292 9.93796 8.18554Z" fill="#410EAD"/>
</svg>
