<svg width="51" height="50" viewBox="0 0 51 50" fill="none" xmlns="http://www.w3.org/2000/svg">
<path d="M50 26.5671C49.883 27.4769 49.7921 28.3997 49.6231 29.3096C49.024 32.8678 47.6493 36.2505 45.5966 39.2178C43.5439 42.1851 40.8634 44.6643 37.7453 46.4794C33.7948 48.9117 29.2178 50.1318 24.581 49.9887C18.4641 49.8753 12.6 47.5273 8.09464 43.3875C3.58931 39.2478 0.754091 33.6023 0.123668 27.5159C-0.489117 21.3704 1.18989 15.2151 4.83819 10.2324C8.4865 5.24957 13.8468 1.79064 19.8897 0.519903C20.9033 0.311942 21.9559 0.233956 22.9826 0.0909827L23.4114 0H26.5303C27.362 0.116978 28.2067 0.194964 29.0384 0.337938C34.1552 1.18448 38.8833 3.59828 42.5703 7.24635C46.2573 10.8944 48.7216 15.5969 49.6231 20.7052C49.7791 21.602 49.87 22.5248 50 23.4476V26.5671ZM25.0099 1.66369C20.3801 1.66372 15.8545 3.03784 12.006 5.61205C8.15763 8.18626 5.15951 11.8448 3.39137 16.1243C1.62322 20.4039 1.16456 25.1119 2.07347 29.6524C2.98239 34.1928 5.21798 38.3614 8.49718 41.6302C11.7764 44.899 15.9517 47.121 20.4943 48.0149C25.037 48.9088 29.7427 48.4344 34.0156 46.6516C38.2885 44.8689 41.9364 41.8581 44.4973 38.0005C47.0582 34.1428 48.417 29.6119 48.4016 24.9814C48.3809 18.79 45.9074 12.8592 41.5228 8.48853C37.1382 4.11784 31.2002 1.66366 25.0099 1.66369Z" fill="#410EAD"/>
<path d="M7.02335 31.5464L9.11561 30.6885C9.72639 30.4416 10.1812 30.5846 10.4151 31.0915C10.6491 31.5984 10.4151 31.9753 9.80437 32.2223L7.01035 33.379C6.89172 33.4535 6.75665 33.4978 6.61697 33.508C6.47728 33.5182 6.33722 33.494 6.20902 33.4376C6.08082 33.3812 5.96838 33.2943 5.88153 33.1843C5.79469 33.0744 5.73607 32.9449 5.71081 32.8072C4.65823 30.1085 4.18095 27.2196 4.30958 24.3257C4.4382 21.4318 5.16988 18.5967 6.45774 16.0021C7.74559 13.4074 9.5612 11.1105 11.7882 9.25854C14.0153 7.40654 16.6046 6.0403 19.3902 5.24738C22.1759 4.45446 25.0964 4.25235 27.9647 4.654C30.833 5.05566 33.5858 6.05221 36.0466 7.5798C38.5074 9.1074 40.622 11.1323 42.2549 13.5248C43.8877 15.9173 45.0028 18.6247 45.5287 21.4733C46.2085 25.2787 45.7986 29.1988 44.3461 32.7812C44.0732 33.47 43.6834 33.626 43.0466 33.3531L40.2396 32.1833C39.6548 31.9363 39.4339 31.5074 39.6418 31.0395C39.6879 30.9262 39.7581 30.8243 39.8475 30.7408C39.9369 30.6572 40.0434 30.5942 40.1595 30.5558C40.2757 30.5175 40.3988 30.5049 40.5203 30.5188C40.6418 30.5328 40.7589 30.5729 40.8634 30.6366L43.0076 31.5204C43.6729 29.6832 44.0499 27.754 44.1252 25.8015H41.981C41.2402 25.8015 40.8374 25.4895 40.8504 24.9566C40.8634 24.4237 41.2532 24.1378 41.955 24.1248H44.1512C44.0767 22.1752 43.6952 20.2495 43.0206 18.4188L40.9283 19.2767C40.3176 19.5366 39.8627 19.3936 39.6288 18.8997C39.3949 18.4058 39.6288 18.0029 40.2786 17.743L42.3448 16.8721C41.5217 15.0924 40.4255 13.4522 39.096 12.011C38.5112 12.5959 37.9654 13.1808 37.3936 13.7267C37.3182 13.8155 37.225 13.8875 37.12 13.938C37.0151 13.9885 36.9006 14.0164 36.7842 14.0199C36.6678 14.0233 36.5519 14.0023 36.4441 13.9581C36.3363 13.9139 36.239 13.8476 36.1585 13.7634C36.078 13.6792 36.016 13.579 35.9767 13.4694C35.9373 13.3597 35.9215 13.243 35.9301 13.1268C35.9387 13.0106 35.9716 12.8975 36.0268 12.7949C36.0819 12.6922 36.1579 12.6023 36.25 12.5309C36.7958 11.972 37.3676 11.4391 37.9394 10.8672C36.5024 9.53515 34.8671 8.43455 33.0921 7.60484C32.9102 8.02076 32.7542 8.42369 32.5853 8.81361C32.4164 9.20354 32.2994 9.54148 32.1305 9.89241C32.092 9.9918 32.0338 10.0824 31.9595 10.1588C31.8853 10.2352 31.7963 10.2959 31.6981 10.3371C31.5998 10.3784 31.4942 10.3994 31.3877 10.3989C31.2811 10.3984 31.1757 10.3765 31.0778 10.3343C30.9741 10.2972 30.8791 10.2391 30.7986 10.1638C30.7182 10.0885 30.6541 9.99742 30.6102 9.8963C30.5664 9.79519 30.5437 9.68615 30.5437 9.57594C30.5437 9.46573 30.5662 9.35668 30.61 9.25553C30.8179 8.68364 31.0648 8.13774 31.2858 7.57884L31.5457 6.96795C29.7097 6.29342 27.7815 5.90333 25.8277 5.81117V7.48786C25.8277 7.7868 25.8277 8.07275 25.8277 8.3717C25.8148 8.57877 25.725 8.77355 25.576 8.91783C25.4269 9.06211 25.2293 9.14547 25.022 9.15155C24.9151 9.15501 24.8086 9.13716 24.7087 9.09903C24.6087 9.0609 24.5174 9.00325 24.44 8.92945C24.3626 8.85565 24.3006 8.76718 24.2578 8.66919C24.2149 8.5712 24.1919 8.46565 24.1903 8.3587C24.1903 7.73481 24.1903 7.05894 24.1903 6.46105V5.83717C22.2421 5.92066 20.3181 6.30201 18.4853 6.96795L19.2 8.78762C19.265 8.95659 19.343 9.11256 19.395 9.28153C19.4365 9.38371 19.457 9.49324 19.4552 9.60354C19.4533 9.71383 19.4292 9.82263 19.3843 9.92338C19.3394 10.0241 19.2746 10.1148 19.1938 10.1899C19.113 10.2649 19.0179 10.3229 18.9141 10.3603C18.8174 10.4042 18.7127 10.4276 18.6065 10.4289C18.5003 10.4302 18.395 10.4094 18.2972 10.3678C18.1995 10.3263 18.1114 10.2649 18.0387 10.1875C17.9659 10.1102 17.91 10.0185 17.8745 9.91841C17.6016 9.32052 17.3677 8.72263 17.1078 8.12474C17.0482 7.95619 16.9787 7.79127 16.8999 7.63083C15.1397 8.4768 13.5184 9.58561 12.0916 10.9192C12.6893 11.4911 13.2611 12.024 13.8069 12.5829C13.8977 12.6562 13.972 12.7478 14.0251 12.8517C14.0782 12.9556 14.1088 13.0695 14.115 13.186C14.1212 13.3025 14.1028 13.419 14.061 13.528C14.0193 13.6369 13.9551 13.7358 13.8726 13.8183C13.7901 13.9008 13.6912 13.9651 13.5823 14.0068C13.4733 14.0486 13.3568 14.067 13.2403 14.0608C13.1239 14.0546 13.01 14.024 12.9061 13.9709C12.8022 13.9178 12.7106 13.8435 12.6374 13.7527C12.0786 13.2068 11.5457 12.6479 10.961 12.05C9.6276 13.4861 8.52702 15.1219 7.69911 16.8981L9.79137 17.7819C10.4022 18.0419 10.6361 18.4708 10.4151 18.9517C10.1942 19.4326 9.75238 19.5626 9.11561 19.3157L7.03634 18.4448C6.35713 20.2798 5.96696 22.2091 5.87975 24.1638H7.81607C8.02812 24.1507 8.24078 24.1507 8.45284 24.1638C8.65635 24.1857 8.84494 24.2809 8.98358 24.4315C9.12222 24.5821 9.20146 24.778 9.20657 24.9826C9.20682 25.1897 9.1273 25.389 8.98453 25.5391C8.84176 25.6891 8.6467 25.7784 8.43984 25.7885C7.82906 25.7885 7.1403 25.7885 6.5815 25.7885H5.97072C5.97218 27.7555 6.32877 29.7061 7.02335 31.5464Z" fill="#410EAD"/>
<path d="M33.3295 42.5022C32.5579 42.5488 31.7961 42.3095 31.1896 41.83C30.5831 41.3505 30.1745 40.6644 30.0417 39.9027C30.0088 39.7891 29.9997 39.6699 30.0151 39.5526C30.0304 39.4354 30.0698 39.3225 30.1308 39.2212C30.1918 39.1199 30.2731 39.0323 30.3696 38.9639C30.4661 38.8956 30.5757 38.8479 30.6915 38.8239C30.8078 38.8034 30.9271 38.808 31.0415 38.8373C31.1559 38.8665 31.2627 38.9198 31.3549 38.9936C31.4471 39.0674 31.5226 39.16 31.5762 39.2651C31.6299 39.3703 31.6605 39.4858 31.6661 39.6037C31.7088 39.9513 31.8731 40.2726 32.1301 40.5105C32.387 40.7484 32.7199 40.8877 33.0696 40.9035C33.4328 40.9556 33.8031 40.895 34.1308 40.73C34.4584 40.565 34.7276 40.3035 34.902 39.9807C34.9587 39.8749 34.994 39.759 35.0057 39.6396C35.0175 39.5202 35.0055 39.3996 34.9705 39.2848C34.9354 39.1701 34.8781 39.0634 34.8016 38.9709C34.7252 38.8784 34.6312 38.8019 34.5251 38.7459C34.0869 38.5125 33.604 38.3751 33.1086 38.343C32.4043 38.3227 31.7263 38.0711 31.179 37.6272C30.6318 37.1832 30.2459 36.5715 30.0807 35.8864C29.9782 35.2144 30.1162 34.5277 30.4705 33.9475C30.8247 33.3673 31.3724 32.9308 32.017 32.715C32.4481 32.521 32.9155 32.421 33.3882 32.4219C33.8609 32.4227 34.328 32.5243 34.7584 32.7198C35.1887 32.9154 35.5725 33.2004 35.8841 33.5559C36.1957 33.9114 36.4279 34.3293 36.5654 34.7816C36.5654 34.8596 36.5654 34.9376 36.6304 35.0286C36.7343 35.6785 36.4874 36.1074 35.9806 36.1984C35.4738 36.2893 35.1099 35.9774 34.993 35.3145C34.9293 35.1024 34.824 34.9051 34.6831 34.7342C34.5422 34.5634 34.3687 34.4223 34.1726 34.3194C33.9765 34.2165 33.7618 34.1538 33.5412 34.135C33.3206 34.1161 33.0984 34.1416 32.8877 34.2097C32.16 34.3917 31.5882 34.8986 31.6791 35.4315C31.731 35.7462 31.8876 36.0341 32.1234 36.2488C32.3592 36.4634 32.6606 36.5922 32.9787 36.6143C33.2386 36.6143 33.4985 36.6143 33.7584 36.6143C34.5304 36.6522 35.2558 36.9953 35.7749 37.5681C36.294 38.1409 36.5643 38.8965 36.5264 39.6687C36.4885 40.4409 36.1455 41.1664 35.5727 41.6856C35 42.2047 34.2445 42.4751 33.4725 42.4372L33.3295 42.5022Z" fill="#410EAD"/>
<path d="M24.9715 27.504C24.5053 27.5091 24.0477 27.3776 23.6552 27.1259C23.2627 26.8742 22.9523 26.5132 22.7623 26.0873C22.5339 25.658 22.445 25.1682 22.5079 24.686C22.5708 24.2038 22.7824 23.7532 23.1132 23.3968C23.4077 23.008 23.8183 22.7229 24.2855 22.5827C24.7527 22.4426 25.2523 22.4545 25.7122 22.617C25.8508 22.6683 26.002 22.6746 26.1444 22.6349C26.2867 22.5952 26.4129 22.5116 26.505 22.396L33.7694 15.1173C33.9007 14.9704 34.0491 14.8395 34.2112 14.7274C34.3661 14.6154 34.5573 14.5653 34.7472 14.587C34.9371 14.6086 35.1121 14.7004 35.2379 14.8444C35.3671 14.971 35.4492 15.138 35.4705 15.3177C35.4918 15.4974 35.451 15.6789 35.3548 15.8322C35.2303 16.0042 35.0912 16.1651 34.939 16.3131L27.6486 23.5918C27.5378 23.6757 27.4576 23.7935 27.4201 23.9272C27.3825 24.061 27.3898 24.2034 27.4406 24.3326C27.5497 24.7093 27.5679 25.1065 27.4939 25.4916C27.4199 25.8767 27.2557 26.2388 27.0148 26.5482C26.7739 26.8576 26.4631 27.1055 26.108 27.2717C25.7528 27.4378 25.3634 27.5175 24.9715 27.504ZM24.9715 25.8274C25.0807 25.8275 25.1887 25.8054 25.2891 25.7625C25.3895 25.7196 25.4801 25.6567 25.5555 25.5777C25.6308 25.4987 25.6893 25.4052 25.7274 25.3029C25.7656 25.2006 25.7825 25.0916 25.7772 24.9825C25.7746 24.8175 25.7229 24.657 25.6287 24.5214C25.5346 24.3858 25.4023 24.2813 25.2486 24.2212C25.0949 24.1611 24.9268 24.1481 24.7657 24.1838C24.6045 24.2195 24.4577 24.3023 24.3438 24.4218C24.2299 24.5412 24.1541 24.6918 24.126 24.8545C24.098 25.0171 24.1189 25.1845 24.1862 25.3352C24.2535 25.4859 24.3641 25.6131 24.504 25.7008C24.6438 25.7884 24.8065 25.8325 24.9715 25.8274Z" fill="#410EAD"/>
<path d="M24.1623 38.3177C24.1623 39.2926 24.1623 40.1894 24.1623 41.0732C24.1819 41.3154 24.1819 41.5589 24.1623 41.8011C24.1388 41.9893 24.0498 42.1632 23.9108 42.2922C23.7718 42.4212 23.5917 42.497 23.4023 42.5063C23.2129 42.5157 23.0263 42.4579 22.8753 42.3431C22.7243 42.2284 22.6186 42.0641 22.5768 41.8791C22.5577 41.7367 22.5577 41.5925 22.5768 41.4502V33.5866C22.5768 32.7808 22.8497 32.5208 23.6684 32.5078H26.3585C27.0994 32.5203 27.8073 32.8162 28.3369 33.3346C28.8664 33.853 29.1772 34.5546 29.2055 35.2952C29.2338 36.0358 28.9774 36.7591 28.4889 37.3164C28.0005 37.8737 27.3172 38.2227 26.5794 38.2917C25.7477 38.3697 24.981 38.3177 24.1623 38.3177ZM24.1623 34.1845V36.641C24.916 36.641 25.6437 36.641 26.3715 36.641C26.5287 36.628 26.6818 36.5839 26.8219 36.5114C26.962 36.4389 27.0864 36.3393 27.1879 36.2185C27.2893 36.0977 27.3659 35.958 27.4131 35.8074C27.4604 35.6568 27.4774 35.4984 27.4631 35.3413C27.4464 35.0336 27.321 34.7418 27.1091 34.518C26.8973 34.2942 26.6128 34.153 26.3065 34.1195C25.6437 34.1585 24.942 34.1845 24.2013 34.1845H24.1623Z" fill="#410EAD"/>
<path d="M16.7079 34.1715V36.667H19.7884C20.4642 36.667 20.8282 36.966 20.8282 37.4989C20.8282 38.0318 20.4772 38.3307 19.8014 38.3437H16.6819C16.6819 39.3705 16.6819 40.3324 16.6819 41.3072C16.6932 41.5173 16.6713 41.7278 16.617 41.9311C16.5705 42.1177 16.4545 42.2796 16.2926 42.3835C16.1307 42.4874 15.9352 42.5255 15.7461 42.49C15.5646 42.4785 15.3931 42.403 15.2622 42.2768C15.1312 42.1506 15.0494 41.982 15.0312 41.8011C15.0313 41.6581 15.0312 41.5021 15.0312 41.3592V33.6516C15.0312 32.7548 15.2652 32.5078 16.149 32.5078H19.8923C20.5292 32.5078 20.8802 32.8198 20.8802 33.3397C20.8802 33.8596 20.5162 34.1715 19.8923 34.1715H16.7079Z" fill="#410EAD"/>
<path d="M51 26.5671C50.883 27.4769 50.7921 28.3997 50.6231 29.3096C50.024 32.8678 48.6493 36.2505 46.5966 39.2178C44.5439 42.1851 41.8634 44.6643 38.7453 46.4794C34.7948 48.9117 30.2178 50.1318 25.581 49.9887C19.4641 49.8753 13.6 47.5273 9.09464 43.3875C4.58931 39.2478 1.75409 33.6023 1.12367 27.5159C0.510883 21.3704 2.18989 15.2151 5.83819 10.2324C9.4865 5.24957 14.8468 1.79064 20.8897 0.519903C21.9033 0.311942 22.9559 0.233956 23.9826 0.0909827L24.4114 0H27.5303C28.362 0.116978 29.2067 0.194964 30.0384 0.337938C35.1552 1.18448 39.8833 3.59828 43.5703 7.24635C47.2573 10.8944 49.7216 15.5969 50.6231 20.7052C50.7791 21.602 50.87 22.5248 51 23.4476V26.5671ZM26.0099 1.66369C21.3801 1.66372 16.8545 3.03784 13.006 5.61205C9.15763 8.18626 6.15951 11.8448 4.39137 16.1243C2.62322 20.4039 2.16456 25.1119 3.07347 29.6524C3.98239 34.1928 6.21798 38.3614 9.49718 41.6302C12.7764 44.899 16.9517 47.121 21.4943 48.0149C26.037 48.9088 30.7427 48.4344 35.0156 46.6516C39.2885 44.8689 42.9364 41.8581 45.4973 38.0005C48.0582 34.1428 49.417 29.6119 49.4016 24.9814C49.3809 18.79 46.9074 12.8592 42.5228 8.48853C38.1382 4.11784 32.2002 1.66366 26.0099 1.66369Z" fill="url(#paint0_linear_1407_1397)"/>
<path d="M8.02335 31.5464L10.1156 30.6885C10.7264 30.4416 11.1812 30.5846 11.4151 31.0915C11.6491 31.5984 11.4151 31.9753 10.8044 32.2223L8.01035 33.379C7.89172 33.4535 7.75665 33.4978 7.61697 33.508C7.47728 33.5182 7.33722 33.494 7.20902 33.4376C7.08082 33.3812 6.96838 33.2943 6.88153 33.1843C6.79469 33.0744 6.73607 32.9449 6.71081 32.8072C5.65823 30.1085 5.18095 27.2196 5.30958 24.3257C5.4382 21.4318 6.16988 18.5967 7.45774 16.0021C8.74559 13.4074 10.5612 11.1105 12.7882 9.25854C15.0153 7.40654 17.6046 6.0403 20.3902 5.24738C23.1759 4.45446 26.0964 4.25235 28.9647 4.654C31.833 5.05566 34.5858 6.05221 37.0466 7.5798C39.5074 9.1074 41.622 11.1323 43.2549 13.5248C44.8877 15.9173 46.0028 18.6247 46.5287 21.4733C47.2085 25.2787 46.7986 29.1988 45.3461 32.7812C45.0732 33.47 44.6834 33.626 44.0466 33.3531L41.2396 32.1833C40.6548 31.9363 40.4339 31.5074 40.6418 31.0395C40.6879 30.9262 40.7581 30.8243 40.8475 30.7408C40.9369 30.6572 41.0434 30.5942 41.1595 30.5558C41.2757 30.5175 41.3988 30.5049 41.5203 30.5188C41.6418 30.5328 41.7589 30.5729 41.8634 30.6366L44.0076 31.5204C44.6729 29.6832 45.0499 27.754 45.1252 25.8015H42.981C42.2402 25.8015 41.8374 25.4895 41.8504 24.9566C41.8634 24.4237 42.2532 24.1378 42.955 24.1248H45.1512C45.0767 22.1752 44.6952 20.2495 44.0206 18.4188L41.9283 19.2767C41.3176 19.5366 40.8627 19.3936 40.6288 18.8997C40.3949 18.4058 40.6288 18.0029 41.2786 17.743L43.3448 16.8721C42.5217 15.0924 41.4255 13.4522 40.096 12.011C39.5112 12.5959 38.9654 13.1808 38.3936 13.7267C38.3182 13.8155 38.225 13.8875 38.12 13.938C38.0151 13.9885 37.9006 14.0164 37.7842 14.0199C37.6678 14.0233 37.5519 14.0023 37.4441 13.9581C37.3363 13.9139 37.239 13.8476 37.1585 13.7634C37.078 13.6792 37.016 13.579 36.9767 13.4694C36.9373 13.3597 36.9215 13.243 36.9301 13.1268C36.9387 13.0106 36.9716 12.8975 37.0268 12.7949C37.0819 12.6922 37.1579 12.6023 37.25 12.5309C37.7958 11.972 38.3676 11.4391 38.9394 10.8672C37.5024 9.53515 35.8671 8.43455 34.0921 7.60484C33.9102 8.02076 33.7542 8.42369 33.5853 8.81361C33.4164 9.20354 33.2994 9.54148 33.1305 9.89241C33.092 9.9918 33.0338 10.0824 32.9595 10.1588C32.8853 10.2352 32.7963 10.2959 32.6981 10.3371C32.5998 10.3784 32.4942 10.3994 32.3877 10.3989C32.2811 10.3984 32.1757 10.3765 32.0778 10.3343C31.9741 10.2972 31.8791 10.2391 31.7986 10.1638C31.7182 10.0885 31.6541 9.99742 31.6102 9.8963C31.5664 9.79519 31.5437 9.68615 31.5437 9.57594C31.5437 9.46573 31.5662 9.35668 31.61 9.25553C31.8179 8.68364 32.0648 8.13774 32.2858 7.57884L32.5457 6.96795C30.7097 6.29342 28.7815 5.90333 26.8277 5.81117V7.48786C26.8277 7.7868 26.8277 8.07275 26.8277 8.3717C26.8148 8.57877 26.725 8.77355 26.576 8.91783C26.4269 9.06211 26.2293 9.14547 26.022 9.15155C25.9151 9.15501 25.8086 9.13716 25.7087 9.09903C25.6087 9.0609 25.5174 9.00325 25.44 8.92945C25.3626 8.85565 25.3006 8.76718 25.2578 8.66919C25.2149 8.5712 25.1919 8.46565 25.1903 8.3587C25.1903 7.73481 25.1903 7.05894 25.1903 6.46105V5.83717C23.2421 5.92066 21.3181 6.30201 19.4853 6.96795L20.2 8.78762C20.265 8.95659 20.343 9.11256 20.395 9.28153C20.4365 9.38371 20.457 9.49324 20.4552 9.60354C20.4533 9.71383 20.4292 9.82263 20.3843 9.92338C20.3394 10.0241 20.2746 10.1148 20.1938 10.1899C20.113 10.2649 20.0179 10.3229 19.9141 10.3603C19.8174 10.4042 19.7127 10.4276 19.6065 10.4289C19.5003 10.4302 19.395 10.4094 19.2972 10.3678C19.1995 10.3263 19.1114 10.2649 19.0387 10.1875C18.9659 10.1102 18.91 10.0185 18.8745 9.91841C18.6016 9.32052 18.3677 8.72263 18.1078 8.12474C18.0482 7.95619 17.9787 7.79127 17.8999 7.63083C16.1397 8.4768 14.5184 9.58561 13.0916 10.9192C13.6893 11.4911 14.2611 12.024 14.8069 12.5829C14.8977 12.6562 14.972 12.7478 15.0251 12.8517C15.0782 12.9556 15.1088 13.0695 15.115 13.186C15.1212 13.3025 15.1028 13.419 15.061 13.528C15.0193 13.6369 14.9551 13.7358 14.8726 13.8183C14.7901 13.9008 14.6912 13.9651 14.5823 14.0068C14.4733 14.0486 14.3568 14.067 14.2403 14.0608C14.1239 14.0546 14.01 14.024 13.9061 13.9709C13.8022 13.9178 13.7106 13.8435 13.6374 13.7527C13.0786 13.2068 12.5457 12.6479 11.961 12.05C10.6276 13.4861 9.52702 15.1219 8.69911 16.8981L10.7914 17.7819C11.4022 18.0419 11.6361 18.4708 11.4151 18.9517C11.1942 19.4326 10.7524 19.5626 10.1156 19.3157L8.03634 18.4448C7.35713 20.2798 6.96696 22.2091 6.87975 24.1638H8.81607C9.02812 24.1507 9.24078 24.1507 9.45284 24.1638C9.65635 24.1857 9.84494 24.2809 9.98358 24.4315C10.1222 24.5821 10.2015 24.778 10.2066 24.9826C10.2068 25.1897 10.1273 25.389 9.98453 25.5391C9.84176 25.6891 9.6467 25.7784 9.43984 25.7885C8.82906 25.7885 8.1403 25.7885 7.5815 25.7885H6.97072C6.97218 27.7555 7.32877 29.7061 8.02335 31.5464Z" fill="url(#paint1_linear_1407_1397)"/>
<path d="M34.3295 42.5022C33.5579 42.5488 32.7961 42.3095 32.1896 41.83C31.5831 41.3505 31.1745 40.6644 31.0417 39.9027C31.0088 39.7891 30.9997 39.6699 31.0151 39.5526C31.0304 39.4354 31.0698 39.3225 31.1308 39.2212C31.1918 39.1199 31.2731 39.0323 31.3696 38.9639C31.4661 38.8956 31.5757 38.8479 31.6915 38.8239C31.8078 38.8034 31.9271 38.808 32.0415 38.8373C32.1559 38.8665 32.2627 38.9198 32.3549 38.9936C32.4471 39.0674 32.5226 39.16 32.5762 39.2651C32.6299 39.3703 32.6605 39.4858 32.6661 39.6037C32.7088 39.9513 32.8731 40.2726 33.1301 40.5105C33.387 40.7484 33.7199 40.8877 34.0696 40.9035C34.4328 40.9556 34.8031 40.895 35.1308 40.73C35.4584 40.565 35.7276 40.3035 35.902 39.9807C35.9587 39.8749 35.994 39.759 36.0057 39.6396C36.0175 39.5202 36.0055 39.3996 35.9705 39.2848C35.9354 39.1701 35.8781 39.0634 35.8016 38.9709C35.7252 38.8784 35.6312 38.8019 35.5251 38.7459C35.0869 38.5125 34.604 38.3751 34.1086 38.343C33.4043 38.3227 32.7263 38.0711 32.179 37.6272C31.6318 37.1832 31.2459 36.5715 31.0807 35.8864C30.9782 35.2144 31.1162 34.5277 31.4705 33.9475C31.8247 33.3673 32.3724 32.9308 33.017 32.715C33.4481 32.521 33.9155 32.421 34.3882 32.4219C34.8609 32.4227 35.328 32.5243 35.7584 32.7198C36.1887 32.9154 36.5725 33.2004 36.8841 33.5559C37.1957 33.9114 37.4279 34.3293 37.5654 34.7816C37.5654 34.8596 37.5654 34.9376 37.6304 35.0286C37.7343 35.6785 37.4874 36.1074 36.9806 36.1984C36.4738 36.2893 36.1099 35.9774 35.993 35.3145C35.9293 35.1024 35.824 34.9051 35.6831 34.7342C35.5422 34.5634 35.3687 34.4223 35.1726 34.3194C34.9765 34.2165 34.7618 34.1538 34.5412 34.135C34.3206 34.1161 34.0984 34.1416 33.8877 34.2097C33.16 34.3917 32.5882 34.8986 32.6791 35.4315C32.731 35.7462 32.8876 36.0341 33.1234 36.2488C33.3592 36.4634 33.6606 36.5922 33.9787 36.6143C34.2386 36.6143 34.4985 36.6143 34.7584 36.6143C35.5304 36.6522 36.2558 36.9953 36.7749 37.5681C37.294 38.1409 37.5643 38.8965 37.5264 39.6687C37.4885 40.4409 37.1455 41.1664 36.5727 41.6856C36 42.2047 35.2445 42.4751 34.4725 42.4372L34.3295 42.5022Z" fill="url(#paint2_linear_1407_1397)"/>
<path d="M25.9715 27.504C25.5053 27.5091 25.0477 27.3776 24.6552 27.1259C24.2627 26.8742 23.9523 26.5132 23.7623 26.0873C23.5339 25.658 23.445 25.1682 23.5079 24.686C23.5708 24.2038 23.7824 23.7532 24.1132 23.3968C24.4077 23.008 24.8183 22.7229 25.2855 22.5827C25.7527 22.4426 26.2523 22.4545 26.7122 22.617C26.8508 22.6683 27.002 22.6746 27.1444 22.6349C27.2867 22.5952 27.4129 22.5116 27.505 22.396L34.7694 15.1173C34.9007 14.9704 35.0491 14.8395 35.2112 14.7274C35.3661 14.6154 35.5573 14.5653 35.7472 14.587C35.9371 14.6086 36.1121 14.7004 36.2379 14.8444C36.3671 14.971 36.4492 15.138 36.4705 15.3177C36.4918 15.4974 36.451 15.6789 36.3548 15.8322C36.2303 16.0042 36.0912 16.1651 35.939 16.3131L28.6486 23.5918C28.5378 23.6757 28.4576 23.7935 28.4201 23.9272C28.3825 24.061 28.3898 24.2034 28.4406 24.3326C28.5497 24.7093 28.5679 25.1065 28.4939 25.4916C28.4199 25.8767 28.2557 26.2388 28.0148 26.5482C27.7739 26.8576 27.4631 27.1055 27.108 27.2717C26.7528 27.4378 26.3634 27.5175 25.9715 27.504ZM25.9715 25.8274C26.0807 25.8275 26.1887 25.8054 26.2891 25.7625C26.3895 25.7196 26.4801 25.6567 26.5555 25.5777C26.6308 25.4987 26.6893 25.4052 26.7274 25.3029C26.7656 25.2006 26.7825 25.0916 26.7772 24.9825C26.7746 24.8175 26.7229 24.657 26.6287 24.5214C26.5346 24.3858 26.4023 24.2813 26.2486 24.2212C26.0949 24.1611 25.9268 24.1481 25.7657 24.1838C25.6045 24.2195 25.4577 24.3023 25.3438 24.4218C25.2299 24.5412 25.1541 24.6918 25.126 24.8545C25.098 25.0171 25.1189 25.1845 25.1862 25.3352C25.2535 25.4859 25.3641 25.6131 25.504 25.7008C25.6438 25.7884 25.8065 25.8325 25.9715 25.8274Z" fill="url(#paint3_linear_1407_1397)"/>
<path d="M25.1623 38.3177C25.1623 39.2926 25.1623 40.1894 25.1623 41.0732C25.1819 41.3154 25.1819 41.5589 25.1623 41.8011C25.1388 41.9893 25.0498 42.1632 24.9108 42.2922C24.7718 42.4212 24.5917 42.497 24.4023 42.5063C24.2129 42.5157 24.0263 42.4579 23.8753 42.3431C23.7243 42.2284 23.6186 42.0641 23.5768 41.8791C23.5577 41.7367 23.5577 41.5925 23.5768 41.4502V33.5866C23.5768 32.7808 23.8497 32.5208 24.6684 32.5078H27.3585C28.0994 32.5203 28.8073 32.8162 29.3369 33.3346C29.8664 33.853 30.1772 34.5546 30.2055 35.2952C30.2338 36.0358 29.9774 36.7591 29.4889 37.3164C29.0005 37.8737 28.3172 38.2227 27.5794 38.2917C26.7477 38.3697 25.981 38.3177 25.1623 38.3177ZM25.1623 34.1845V36.641C25.916 36.641 26.6437 36.641 27.3715 36.641C27.5287 36.628 27.6818 36.5839 27.8219 36.5114C27.962 36.4389 28.0864 36.3393 28.1879 36.2185C28.2893 36.0977 28.3659 35.958 28.4131 35.8074C28.4604 35.6568 28.4774 35.4984 28.4631 35.3413C28.4464 35.0336 28.321 34.7418 28.1091 34.518C27.8973 34.2942 27.6128 34.153 27.3065 34.1195C26.6437 34.1585 25.942 34.1845 25.2013 34.1845H25.1623Z" fill="url(#paint4_linear_1407_1397)"/>
<path d="M17.7079 34.1715V36.667H20.7884C21.4642 36.667 21.8282 36.966 21.8282 37.4989C21.8282 38.0318 21.4772 38.3307 20.8014 38.3437H17.6819C17.6819 39.3705 17.6819 40.3324 17.6819 41.3072C17.6932 41.5173 17.6713 41.7278 17.617 41.9311C17.5705 42.1177 17.4545 42.2796 17.2926 42.3835C17.1307 42.4874 16.9352 42.5255 16.7461 42.49C16.5646 42.4785 16.3931 42.403 16.2622 42.2768C16.1312 42.1506 16.0494 41.982 16.0312 41.8011C16.0313 41.6581 16.0312 41.5021 16.0312 41.3592V33.6516C16.0312 32.7548 16.2652 32.5078 17.149 32.5078H20.8923C21.5292 32.5078 21.8802 32.8198 21.8802 33.3397C21.8802 33.8596 21.5162 34.1715 20.8923 34.1715H17.7079Z" fill="url(#paint5_linear_1407_1397)"/>
<defs>
<linearGradient id="paint0_linear_1407_1397" x1="17" y1="1.13934e-06" x2="42" y2="46.5" gradientUnits="userSpaceOnUse">
<stop stop-color="white" stop-opacity="0.66"/>
<stop offset="1" stop-color="#C9C9C9" stop-opacity="0"/>
</linearGradient>
<linearGradient id="paint1_linear_1407_1397" x1="18.588" y1="4.45313" x2="30.061" y2="34.9746" gradientUnits="userSpaceOnUse">
<stop stop-color="white" stop-opacity="0.66"/>
<stop offset="1" stop-color="#C9C9C9" stop-opacity="0"/>
</linearGradient>
<linearGradient id="paint2_linear_1407_1397" x1="33.1345" y1="32.4219" x2="39.0572" y2="39.6807" gradientUnits="userSpaceOnUse">
<stop stop-color="white" stop-opacity="0.66"/>
<stop offset="1" stop-color="#C9C9C9" stop-opacity="0"/>
</linearGradient>
<linearGradient id="paint3_linear_1407_1397" x1="27.6443" y1="14.582" x2="34.0884" y2="26.6275" gradientUnits="userSpaceOnUse">
<stop stop-color="white" stop-opacity="0.66"/>
<stop offset="1" stop-color="#C9C9C9" stop-opacity="0"/>
</linearGradient>
<linearGradient id="paint4_linear_1407_1397" x1="25.6889" y1="32.5078" x2="31.5506" y2="39.7531" gradientUnits="userSpaceOnUse">
<stop stop-color="white" stop-opacity="0.66"/>
<stop offset="1" stop-color="#C9C9C9" stop-opacity="0"/>
</linearGradient>
<linearGradient id="paint5_linear_1407_1397" x1="17.9029" y1="32.5078" x2="23.8726" y2="39.0054" gradientUnits="userSpaceOnUse">
<stop stop-color="white" stop-opacity="0.66"/>
<stop offset="1" stop-color="#C9C9C9" stop-opacity="0"/>
</linearGradient>
</defs>
</svg>
