<svg width="18" height="18" viewBox="0 0 18 18" fill="none" xmlns="http://www.w3.org/2000/svg">
<path d="M1.60577 4.73094L9 0.46188L16.3942 4.73094V13.2691L9 17.5381L1.60577 13.2691V4.73094Z" stroke="#410EAD" stroke-width="0.8"/>
<path fill-rule="evenodd" clip-rule="evenodd" d="M7.475 5.05313C7.40372 5.12441 7.40298 5.18741 7.47266 5.25525L7.52344 5.30469L7.26444 5.43219C6.45319 5.83153 5.82459 6.4563 5.42955 7.25591C5.1817 7.75758 5.03175 8.37139 5.03137 8.88584C5.03127 9.04831 5.03394 9.06388 5.06895 9.10459C5.09984 9.1405 5.11934 9.14844 5.17669 9.14844C5.30208 9.14844 5.34341 9.07502 5.3438 8.85156C5.34455 8.41436 5.4888 7.84195 5.7113 7.39327C6.05469 6.70078 6.59222 6.14312 7.27227 5.77391C7.39714 5.70609 7.61345 5.60778 7.68598 5.58584L7.72355 5.5745L7.68989 5.62894C7.61634 5.74795 7.67812 5.89062 7.80323 5.89062C7.8825 5.89062 7.92717 5.84278 8.1008 5.57195C8.26903 5.30953 8.28053 5.26802 8.20703 5.1882C8.1692 5.14713 8.13006 5.13309 7.87953 5.07078C7.72305 5.03184 7.57997 5 7.56156 5C7.54317 5 7.50422 5.02391 7.475 5.05313ZM8.89834 5.06644C8.84055 5.11614 8.82916 5.21181 8.87422 5.269C8.91714 5.32344 8.99183 5.34355 9.15155 5.34366C9.57639 5.34395 10.1343 5.48359 10.592 5.70416C10.7156 5.76375 10.833 5.8125 10.853 5.8125C10.9576 5.8125 11.0318 5.71369 10.9999 5.61686C10.9795 5.555 10.9433 5.52641 10.784 5.4465C10.2734 5.19028 9.63411 5.03125 9.11462 5.03125C8.95523 5.03125 8.93552 5.03445 8.89834 5.06644ZM11.3269 5.95192C11.2938 5.985 11.2812 6.01267 11.2812 6.05228C11.2812 6.11661 11.3394 6.19472 11.3983 6.2095C11.459 6.22475 11.5428 6.18155 11.5723 6.1197C11.6467 5.96366 11.4498 5.82903 11.3269 5.95192ZM8.39234 6.28744C8.32741 6.32342 8.31364 6.37011 8.31305 6.55656L8.3125 6.73033L8.19141 6.77323C8.12481 6.79684 8.02911 6.83692 7.97875 6.8623L7.88719 6.90844L7.75908 6.78339C7.62336 6.65092 7.57327 6.62591 7.50245 6.65523C7.43805 6.68192 6.66067 7.4673 6.64809 7.51841C6.63141 7.58625 6.65372 7.62575 6.78452 7.76L6.90844 7.88719L6.8623 7.97875C6.83692 8.02911 6.79684 8.12481 6.77323 8.19141L6.73033 8.3125H6.5597C6.371 8.3125 6.31537 8.32977 6.2843 8.398C6.25487 8.46256 6.25811 9.54953 6.28789 9.60711C6.32153 9.67216 6.37372 9.6875 6.5612 9.6875H6.73033L6.77323 9.80859C6.79684 9.87519 6.83692 9.97089 6.8623 10.0212L6.90844 10.1128L6.78339 10.2409C6.65092 10.3766 6.62591 10.4267 6.65523 10.4975C6.68192 10.562 7.4673 11.3393 7.51841 11.3519C7.58625 11.3686 7.62575 11.3463 7.76 11.2155L7.88719 11.0916L7.97875 11.1377C8.02911 11.1631 8.12481 11.2032 8.19141 11.2268L8.3125 11.2697V11.4403C8.3125 11.629 8.32977 11.6846 8.398 11.7157C8.45598 11.7421 9.54402 11.7421 9.602 11.7157C9.67008 11.6847 9.6875 11.6289 9.6875 11.4419V11.273L9.76953 11.2443C9.81464 11.2285 9.91075 11.1881 9.98309 11.1545L10.1146 11.0933L10.2409 11.2164C10.3743 11.3463 10.4138 11.3686 10.4816 11.3519C10.5327 11.3393 11.3181 10.562 11.3448 10.4975C11.3741 10.4267 11.3491 10.3766 11.2166 10.2409L11.0916 10.1128L11.1377 10.0212C11.1631 9.97089 11.2032 9.87519 11.2268 9.80859L11.2697 9.6875H11.4403C11.629 9.6875 11.6846 9.67023 11.7157 9.602C11.7421 9.54402 11.7421 8.45598 11.7157 8.398C11.6846 8.32977 11.629 8.3125 11.4403 8.3125H11.2697L11.2268 8.19141C11.2032 8.12481 11.1631 8.02911 11.1377 7.97875L11.0916 7.88719L11.2166 7.75908C11.3491 7.62336 11.3741 7.57327 11.3448 7.50245C11.3181 7.43805 10.5327 6.66067 10.4816 6.64809C10.4138 6.63142 10.3743 6.6537 10.2409 6.78364L10.1146 6.90667L9.98309 6.84553C9.91075 6.81191 9.81464 6.77148 9.76953 6.75572L9.6875 6.72705V6.55956C9.6875 6.3738 9.67202 6.32145 9.60711 6.28789C9.54625 6.25642 8.44905 6.256 8.39234 6.28744ZM11.8232 6.45008C11.7519 6.52453 11.7637 6.59167 11.8728 6.733C12.1026 7.03039 12.3364 7.44245 12.4136 7.68598L12.4255 7.72355L12.3711 7.68989C12.252 7.61634 12.1094 7.67812 12.1094 7.80323C12.1094 7.88222 12.1565 7.92619 12.4282 8.10055C12.6907 8.26902 12.732 8.28048 12.8118 8.20703C12.8529 8.1692 12.8669 8.13006 12.9292 7.87953C12.9682 7.72305 13 7.57997 13 7.56156C13 7.54317 12.9761 7.50422 12.9469 7.475C12.8756 7.40373 12.8125 7.40302 12.7432 7.47266L12.6927 7.52344L12.5929 7.31397C12.436 6.98511 12.1674 6.56564 12.0351 6.44302C11.9765 6.3887 11.8789 6.39195 11.8232 6.45008ZM9.37506 6.73047C9.37514 6.95109 9.38612 6.96528 9.61191 7.03644C9.70934 7.06714 9.85938 7.12828 9.94531 7.17231C10.1608 7.28272 10.1787 7.28128 10.3187 7.14219C10.3802 7.08117 10.4372 7.03125 10.4455 7.03125C10.4655 7.03125 10.9688 7.53422 10.9688 7.55414C10.9688 7.56262 10.9204 7.61897 10.8612 7.67931C10.8021 7.73967 10.7495 7.80733 10.7444 7.82967C10.7374 7.85992 10.7569 7.91366 10.8211 8.04061C10.8684 8.13428 10.9324 8.29066 10.9633 8.38809C11.0348 8.61387 11.049 8.62486 11.2695 8.62494L11.4219 8.625V9V9.375L11.2695 9.37506C11.049 9.37514 11.0348 9.38612 10.9633 9.61191C10.9324 9.70934 10.8684 9.86572 10.8211 9.95939C10.7569 10.0863 10.7374 10.1401 10.7444 10.1703C10.7495 10.1927 10.8021 10.2603 10.8612 10.3207C10.9204 10.381 10.9688 10.4372 10.9688 10.4455C10.9688 10.4655 10.4658 10.9688 10.4459 10.9688C10.4374 10.9688 10.381 10.9204 10.3207 10.8612C10.2603 10.8021 10.1927 10.7495 10.1703 10.7444C10.1401 10.7374 10.0863 10.7569 9.95939 10.8211C9.86572 10.8684 9.70934 10.9324 9.61191 10.9633C9.38612 11.0348 9.37514 11.049 9.37506 11.2695L9.375 11.4219H9H8.625L8.62494 11.2695C8.62486 11.049 8.61387 11.0348 8.38809 10.9633C8.29066 10.9324 8.13428 10.8684 8.04061 10.8211C7.91366 10.7569 7.85992 10.7374 7.82967 10.7444C7.80733 10.7495 7.73967 10.8021 7.67931 10.8612C7.61897 10.9204 7.56262 10.9688 7.55414 10.9688C7.53422 10.9688 7.03125 10.4655 7.03125 10.4455C7.03125 10.4372 7.08117 10.3802 7.14219 10.3187C7.28175 10.1782 7.28322 10.1602 7.17267 9.94531C7.12845 9.85938 7.06716 9.70934 7.03645 9.61191C6.96528 9.38612 6.95109 9.37514 6.73047 9.37506L6.57812 9.375V9V8.625L6.73047 8.62494C6.95109 8.62486 6.96528 8.61387 7.03644 8.38809C7.06714 8.29066 7.12828 8.14062 7.17231 8.05469C7.28272 7.8392 7.28128 7.82128 7.14219 7.68127C7.08117 7.61983 7.03125 7.56262 7.03125 7.55414C7.03125 7.53422 7.53455 7.03125 7.5545 7.03125C7.5628 7.03125 7.61983 7.08117 7.68127 7.14219C7.82128 7.28128 7.8392 7.28272 8.05469 7.17231C8.14062 7.12828 8.29066 7.06714 8.38809 7.03644C8.61387 6.96528 8.62486 6.95109 8.62494 6.73047L8.625 6.57812H9H9.375L9.37506 6.73047ZM8.32031 7.84834C7.73891 8.18566 7.69402 8.21475 7.67666 8.26562C7.6503 8.34294 7.6503 9.65706 7.67666 9.73438C7.69402 9.78525 7.73891 9.81434 8.32031 10.1517C8.78733 10.4226 8.9585 10.5144 8.9975 10.5149C9.03773 10.5155 9.19106 10.4342 9.66711 10.1602C10.0322 9.94998 10.295 9.789 10.3102 9.76631C10.3332 9.73206 10.3359 9.64962 10.3359 9C10.3359 8.35037 10.3332 8.26794 10.3102 8.23369C10.295 8.211 10.0322 8.05002 9.66711 7.83984C9.19106 7.56577 9.03773 7.48453 8.9975 7.48506C8.9585 7.48558 8.78733 7.57741 8.32031 7.84834ZM9.42761 8.06373C9.65219 8.19331 9.84153 8.30472 9.84836 8.31131C9.85934 8.32189 9.03009 8.8125 9.0012 8.8125C8.98334 8.8125 8.15494 8.33248 8.15148 8.32014C8.14769 8.30648 8.96861 7.83011 8.99792 7.82897C9.00967 7.8285 9.20303 7.93414 9.42761 8.06373ZM8.42036 8.84375L8.84242 9.08594L8.84308 9.5887L8.84375 10.0915L8.50391 9.89555C8.31698 9.7878 8.12013 9.67431 8.06641 9.64336L7.96875 9.58709V9.08913C7.96875 8.78297 7.97444 8.59316 7.98353 8.59636C7.99166 8.59922 8.18823 8.71055 8.42036 8.84375ZM10.0312 9.09037V9.58702L9.98828 9.61233C9.96466 9.62627 9.76777 9.73995 9.55078 9.865L9.15625 10.0923L9.15688 9.58914L9.15748 9.08594L9.58266 8.84122C9.81648 8.70662 10.0131 8.59589 10.0195 8.59512C10.026 8.59437 10.0312 8.81723 10.0312 9.09037ZM12.731 8.87422C12.6769 8.91691 12.6565 8.99166 12.6562 9.14844C12.6555 9.56545 12.5192 10.1264 12.3148 10.5537C11.9798 11.2541 11.4697 11.8018 10.7891 12.1921C10.6652 12.2631 10.3231 12.4219 10.2939 12.4219C10.2855 12.4219 10.2933 12.3982 10.3112 12.3692C10.3837 12.252 10.3209 12.1094 10.1968 12.1094C10.1175 12.1094 10.0728 12.1572 9.8992 12.428C9.73097 12.6905 9.71947 12.732 9.79297 12.8118C9.8308 12.8529 9.86994 12.8669 10.1205 12.9292C10.277 12.9682 10.42 13 10.4384 13C10.4568 13 10.4958 12.9761 10.525 12.9469C10.5968 12.8751 10.597 12.8127 10.5259 12.7415L10.4736 12.6893L10.522 12.6702C10.7785 12.5689 11.1973 12.322 11.4688 12.112C11.775 11.8751 12.1545 11.4493 12.3833 11.0859C12.7398 10.5194 12.9682 9.75034 12.9686 9.11416C12.9687 8.95516 12.9655 8.93552 12.9336 8.89834C12.8839 8.84055 12.7882 8.82916 12.731 8.87422ZM5.1882 9.79297C5.14713 9.8308 5.13309 9.86994 5.07078 10.1205C5.03184 10.277 5 10.42 5 10.4384C5 10.4568 5.02391 10.4958 5.05313 10.525C5.12441 10.5963 5.18741 10.597 5.25525 10.5273L5.30469 10.4766L5.43219 10.7356C5.76989 11.4216 6.27034 11.9781 6.91406 12.3833C7.48056 12.7398 8.24966 12.9682 8.88584 12.9686C9.04831 12.9687 9.06388 12.9661 9.10459 12.931C9.1405 12.9002 9.14844 12.8807 9.14844 12.8233C9.14844 12.6979 9.07502 12.6566 8.85156 12.6562C8.56781 12.6557 8.17525 12.585 7.84528 12.4748C7.08173 12.2199 6.41511 11.7121 5.96939 11.0458C5.79756 10.7889 5.64386 10.4952 5.58641 10.314L5.5745 10.2765L5.62894 10.3101C5.74795 10.3837 5.89062 10.3219 5.89062 10.1968C5.89062 10.1174 5.84244 10.0723 5.57236 9.89903C5.31017 9.73083 5.26825 9.71927 5.1882 9.79297Z" fill="#410EAD"/>
</svg>
