<svg width="40" height="41" viewBox="0 0 40 41" fill="none" xmlns="http://www.w3.org/2000/svg">
<path d="M13.3512 35.3325C12.8218 35.3325 12.3479 35.3065 11.8704 35.3325C11.5779 35.3521 11.2939 35.4388 11.0403 35.5858C10.7867 35.7328 10.5703 35.9362 10.408 36.1803C9.91557 36.8689 9.39726 37.5427 8.92707 38.2461C8.58512 38.8237 8.08736 39.2933 7.49085 39.601C6.89434 39.9088 6.2232 40.0423 5.55432 39.9862C5.02861 39.9603 4.49178 40.0195 3.97346 39.9455C3.20833 39.8466 2.50175 39.4836 1.97583 38.9192C1.4499 38.3547 1.13768 37.6243 1.09312 36.8541C0.737704 33.1099 0.379823 29.3657 0.0194709 25.6215C-0.228579 23.0299 1.92613 20.6864 4.61396 20.6605C7.30179 20.6346 10.0563 20.6605 12.7774 20.6605H13.3364V3.63015C13.3364 1.37548 14.71 0.00195312 16.9683 0.00195312H36.3829C38.6042 0.00195312 40 1.38289 40 3.60423C40 14.5333 40 25.4635 40 36.395C40 38.6164 38.6191 40.0047 36.3903 40.0047H16.9498C14.7285 40.0047 13.3512 38.6164 13.3512 36.4246V35.3325ZM28.2713 36.6394C28.3787 36.6394 28.4342 36.6579 28.486 36.6579H35.8905C36.4384 36.6579 36.6717 36.4024 36.6717 35.8138V4.13736C36.6717 3.5413 36.4347 3.30805 35.835 3.30805C34.6688 3.30805 33.5026 3.30805 32.3364 3.30805C30.874 3.30805 31.1405 3.14516 30.3334 4.35209C30.1447 4.65443 29.8798 4.90183 29.5653 5.06948C29.2508 5.23713 28.8978 5.31913 28.5416 5.30726H24.806C24.4568 5.31885 24.1107 5.23924 23.8016 5.07629C23.4926 4.91334 23.2314 4.67267 23.0437 4.378C22.903 4.17068 22.7513 3.97076 22.6254 3.75603C22.5413 3.60459 22.415 3.48088 22.2618 3.40002C22.1086 3.31916 21.9352 3.28463 21.7627 3.30065C20.3855 3.30065 19.012 3.30065 17.6385 3.30065C16.8758 3.30065 16.6833 3.49317 16.6833 4.25953V20.6346H17.2386C19.7524 20.6346 22.2663 20.6086 24.7764 20.6346C27.3679 20.6679 29.5264 22.9374 29.3338 25.4253C29.1672 27.5726 28.9303 29.7088 28.723 31.8524C28.5749 33.4406 28.4268 35.0141 28.2713 36.6208V36.6394ZM14.7248 21.9933H4.76574C4.30599 21.9796 3.84851 22.0628 3.42305 22.2376C2.99759 22.4124 2.6137 22.6748 2.29635 23.0077C1.48926 23.8444 1.28934 24.8588 1.40781 25.9991C1.77804 29.6014 2.10013 33.2111 2.44444 36.8171C2.47944 37.3248 2.7078 37.7997 3.08248 38.1441C3.45715 38.4884 3.94963 38.676 4.45846 38.6682C4.91754 38.6682 5.37291 38.6682 5.83199 38.6682C6.19587 38.6873 6.55837 38.6104 6.88324 38.4454C7.2081 38.2804 7.48392 38.0329 7.68311 37.7278C8.20143 36.9874 8.73455 36.2469 9.25657 35.5065C9.57865 35.0199 10.0199 34.624 10.5384 34.3563C11.0569 34.0887 11.6352 33.9582 12.2184 33.9774C13.8597 33.9774 15.4986 33.9774 17.1349 33.9774C17.7184 33.959 18.2968 34.0902 18.8153 34.3584C19.3337 34.6267 19.7748 35.0232 20.0967 35.5102C20.6336 36.2506 21.1778 37.0207 21.722 37.7759C21.9108 38.0533 22.1665 38.2784 22.4656 38.4305C22.7646 38.5826 23.0972 38.6567 23.4325 38.646C23.9175 38.646 24.4024 38.646 24.8874 38.646C25.373 38.6631 25.8479 38.5008 26.2214 38.1901C26.5949 37.8794 26.841 37.442 26.9126 36.9614C26.9792 36.5912 26.9977 36.1877 27.0347 35.8027C27.3013 32.9963 27.5666 30.1913 27.8307 27.3874C27.9559 26.578 28.0117 25.7592 27.9973 24.9403C27.9241 24.1149 27.5384 23.3487 26.9191 22.7982C26.2997 22.2477 25.4936 21.9545 24.6653 21.9785C21.337 21.9674 18.0272 21.9748 14.7248 21.9748V21.9933ZM15.3505 20.6531V20.1273C15.3505 14.7912 15.3505 9.45872 15.3505 4.12995C15.3307 3.84434 15.3725 3.55781 15.4728 3.28969C15.5732 3.02157 15.7299 2.77807 15.9323 2.57563C16.1348 2.37319 16.3783 2.2165 16.6464 2.11613C16.9145 2.01575 17.201 1.97402 17.4867 1.99376C18.6973 1.99376 19.9116 2.0604 21.1111 1.97524C22.4736 1.87158 23.4658 2.31585 24.0729 3.545C24.152 3.70052 24.2776 3.82756 24.4322 3.90849C24.5868 3.98943 24.7627 4.02025 24.9356 3.99667C25.8796 3.99667 26.8311 3.93373 27.7678 3.99667C28.7045 4.05961 29.2487 3.80785 29.6522 3.00447C29.8339 2.66408 30.1122 2.38507 30.4522 2.20257C30.7921 2.02008 31.1785 1.94227 31.5626 1.97895C32.9916 1.97895 34.4244 1.97895 35.8535 1.97895C37.1752 1.97895 38.0045 2.81195 38.0045 4.14476V35.8064C38.0045 37.154 37.1752 37.9759 35.8165 37.9759C33.3878 37.9759 30.9554 37.9944 28.5267 37.9759C28.4243 37.9603 28.3198 37.9656 28.2194 37.9916C28.1191 38.0176 28.0251 38.0636 27.9431 38.1269C27.8611 38.1903 27.7928 38.2696 27.7423 38.3601C27.6918 38.4505 27.6601 38.5503 27.6493 38.6534H36.4014C37.8823 38.6534 38.6709 37.8648 38.6709 36.3987V3.5561C38.6709 2.10853 37.8749 1.30884 36.4496 1.30884H16.9165C15.4986 1.30884 14.6952 2.11223 14.6952 3.53019V20.6346L15.3505 20.6531ZM14.6952 35.3325C14.6952 35.7508 14.6952 36.1507 14.6952 36.5468C14.6809 36.8253 14.7251 37.1036 14.8249 37.364C14.9246 37.6244 15.0777 37.8611 15.2744 38.0588C15.471 38.2564 15.7068 38.4108 15.9667 38.5119C16.2265 38.6131 16.5047 38.6587 16.7832 38.646C17.9754 38.646 19.1675 38.646 20.3633 38.646C20.4625 38.6418 20.5614 38.6319 20.6595 38.6164C20.604 38.3968 20.4662 38.207 20.2746 38.0864C20.0829 37.9657 19.8522 37.9235 19.6303 37.9685C18.9527 38.0203 18.2715 37.9685 17.5903 37.9685C16.1761 37.9685 15.369 37.1651 15.369 35.7471V35.3325H14.6952ZM16.6981 35.3547C16.6981 35.5842 16.6981 35.7915 16.6981 35.9989C16.6931 36.1613 16.7526 36.319 16.8636 36.4377C16.9746 36.5563 17.1281 36.6262 17.2904 36.632C17.9309 36.6653 18.5751 36.632 19.2378 36.632C18.6751 35.5657 17.9272 35.1881 16.687 35.3325L16.6981 35.3547Z" fill="#25D193"/>
<path d="M30.6811 17.7995C30.6811 17.7773 30.6811 17.8736 30.6811 17.9735C30.6802 18.149 30.61 18.317 30.486 18.441C30.3619 18.5651 30.1939 18.6352 30.0184 18.6362C29.8432 18.6344 29.6755 18.5647 29.5505 18.4418C29.4256 18.3189 29.3531 18.1524 29.3483 17.9772C29.295 17.2883 29.1923 16.6041 29.041 15.9299C28.6143 14.4299 27.7169 13.1067 26.481 12.1555C25.2452 11.2043 23.7363 10.6754 22.1771 10.6468C22.0281 10.6635 21.8775 10.6346 21.7453 10.5638C21.613 10.4931 21.5054 10.3839 21.4366 10.2506C21.3858 10.143 21.3648 10.0237 21.376 9.90523C21.3871 9.78673 21.43 9.67343 21.5001 9.57723C21.5702 9.48102 21.6648 9.40546 21.7742 9.35849C21.8835 9.31151 22.0035 9.29486 22.1215 9.31027C23.6272 9.32084 25.1034 9.7282 26.4013 10.4913C27.6758 11.2467 28.7372 12.3137 29.4859 13.5922C30.2346 14.8706 30.6459 16.3184 30.6811 17.7995Z" fill="#25D193"/>
<path d="M22.2588 11.9766C23.7787 12.0439 25.217 12.6829 26.2858 13.7655C27.3547 14.8481 27.9752 16.2944 28.0232 17.815C28.0232 18.3111 27.79 18.6184 27.3901 18.6369C26.9903 18.6554 26.7126 18.3592 26.6867 17.8446C26.6531 16.6528 26.1644 15.519 25.3209 14.6763C24.4775 13.8335 23.3433 13.3457 22.1515 13.3131C21.6368 13.2872 21.337 13.0169 21.3629 12.6059C21.3888 12.195 21.685 11.9766 22.1848 11.9766H22.2588Z" fill="#25D193"/>
<path d="M25.3468 17.8396C25.3468 18.3172 25.0988 18.6282 24.6952 18.6356C24.2917 18.643 24.0548 18.369 24.014 17.8951C23.9977 17.3909 23.7913 16.9116 23.4363 16.5532C23.0813 16.1947 22.604 15.9838 22.1 15.9626C21.615 15.9255 21.3299 15.6553 21.3595 15.2591C21.3891 14.863 21.6927 14.6186 22.1814 14.6334C23.0126 14.6804 23.7967 15.0344 24.3817 15.6269C24.9666 16.2193 25.3105 17.0079 25.3468 17.8396Z" fill="#25D193"/>
<path d="M9.34865 26.64C10.0039 26.64 10.6 26.64 11.1998 26.64C11.7995 26.64 12.0143 26.8807 12.018 27.4434C12.018 28.2505 12.018 29.0539 12.018 29.8573C12.018 30.3978 11.7662 30.6347 11.2183 30.6384C10.6111 30.6384 10.0039 30.6384 9.36716 30.6384C9.36716 31.2678 9.36716 31.8602 9.36716 32.4525C9.36716 33.0449 9.13762 33.3004 8.51194 33.3041H6.17953C5.60939 33.3041 5.37244 33.0634 5.36874 32.4896C5.36504 31.9157 5.36874 31.2974 5.36874 30.6384H3.62499C2.91045 30.6384 2.70312 30.4311 2.70312 29.7277C2.70312 29.0243 2.70312 28.2838 2.70312 27.5619C2.70312 26.8399 2.90305 26.6363 3.6472 26.6363H5.36874C5.36874 26.0254 5.36874 25.4331 5.36874 24.8444C5.36874 24.1891 5.58718 23.9707 6.24247 23.9707H8.57488C9.11911 23.9707 9.35975 24.2188 9.36716 24.7593C9.35235 25.3739 9.34865 25.981 9.34865 26.64ZM6.70895 25.3146V26.6104H7.98252V25.3146H6.70895ZM4.03223 29.276H5.32801V27.9987H4.03223V29.276ZM8.00104 28.0062H6.70526V29.2797H8.00104V28.0062ZM10.6741 28.0062H9.37828V29.2723H10.6741V28.0062ZM7.99733 30.657H6.70895V31.9416H7.99733V30.657Z" fill="#25D193"/>
<path d="M18.0293 25.9828C18.0272 25.5882 18.1419 25.2017 18.3589 24.8722C18.576 24.5426 18.8857 24.2847 19.2491 24.1309C19.6125 23.977 20.0132 23.9341 20.4009 24.0077C20.7886 24.0812 21.1459 24.2678 21.4278 24.544C21.7096 24.8201 21.9034 25.1736 21.9848 25.5597C22.0661 25.9458 22.0314 26.3474 21.8849 26.7138C21.7385 27.0802 21.4869 27.3951 21.1618 27.6188C20.8367 27.8425 20.4527 27.965 20.0582 27.9709C19.7942 27.9743 19.5322 27.9255 19.2871 27.8273C19.0421 27.7291 18.8189 27.5834 18.6303 27.3987C18.4418 27.2139 18.2916 26.9937 18.1885 26.7507C18.0854 26.5077 18.0313 26.2467 18.0293 25.9828ZM20.6912 25.9605C20.6897 25.8281 20.6487 25.6992 20.5736 25.5902C20.4985 25.4811 20.3925 25.397 20.2694 25.3484C20.1462 25.2998 20.0113 25.289 19.882 25.3174C19.7526 25.3458 19.6347 25.4121 19.5432 25.5078C19.4517 25.6035 19.3908 25.7243 19.3682 25.8548C19.3457 25.9853 19.3625 26.1195 19.4165 26.2404C19.4706 26.3613 19.5595 26.4633 19.6718 26.5335C19.7841 26.6036 19.9147 26.6388 20.0471 26.6344C20.2193 26.6249 20.3813 26.5497 20.4997 26.4244C20.6182 26.299 20.6841 26.133 20.6838 25.9605H20.6912Z" fill="#25D193"/>
<path d="M24.7226 23.9788C25.1189 23.9863 25.5039 24.1114 25.8289 24.3382C26.1539 24.565 26.4042 24.8833 26.5479 25.2526C26.6916 25.6219 26.7223 26.0257 26.6361 26.4125C26.5499 26.7993 26.3507 27.1518 26.0638 27.4251C25.7769 27.6985 25.4152 27.8804 25.0246 27.9478C24.6341 28.0151 24.2324 27.9649 23.8704 27.8035C23.5085 27.6421 23.2027 27.3767 22.9919 27.0411C22.7811 26.7056 22.6747 26.3149 22.6864 25.9188C22.7029 25.3927 22.9257 24.8943 23.3068 24.5313C23.6878 24.1683 24.1964 23.9698 24.7226 23.9788ZM24.6819 25.3116C24.5505 25.3124 24.4224 25.3522 24.3136 25.4259C24.2049 25.4997 24.1206 25.6041 24.0713 25.7259C24.0221 25.8477 24.0102 25.9814 24.0371 26.11C24.064 26.2386 24.1285 26.3563 24.2224 26.4481C24.3164 26.54 24.4355 26.6019 24.5646 26.6259C24.6938 26.6499 24.8272 26.6349 24.9479 26.583C25.0685 26.531 25.171 26.4443 25.2423 26.334C25.3136 26.2236 25.3505 26.0946 25.3483 25.9632C25.3427 25.7915 25.2718 25.6285 25.15 25.5074C25.0282 25.3863 24.8647 25.3162 24.693 25.3116H24.6819Z" fill="#25D193"/>
<path d="M18.0275 28.6426C18.4221 28.6463 18.8068 28.7666 19.1331 28.9885C19.4594 29.2104 19.7128 29.5239 19.8613 29.8895C20.0098 30.2551 20.0467 30.6565 19.9675 31.0431C19.8883 31.4297 19.6964 31.7842 19.4161 32.0619C19.1358 32.3397 18.7795 32.5282 18.3922 32.6039C18.005 32.6795 17.6039 32.6389 17.2397 32.487C16.8755 32.3352 16.5643 32.079 16.3455 31.7506C16.1266 31.4222 16.0098 31.0365 16.0098 30.6418C16.0102 30.3779 16.0629 30.1166 16.1647 29.8731C16.2665 29.6295 16.4154 29.4085 16.603 29.2227C16.7905 29.0369 17.0128 28.89 17.2573 28.7905C17.5018 28.6909 17.7635 28.6407 18.0275 28.6426ZM17.9868 31.3045C18.1191 31.309 18.2498 31.2738 18.3621 31.2037C18.4744 31.1335 18.5632 31.0315 18.6173 30.9106C18.6713 30.7897 18.6882 30.6555 18.6656 30.525C18.643 30.3945 18.5821 30.2737 18.4906 30.178C18.3991 30.0823 18.2812 30.016 18.1518 29.9876C18.0225 29.9592 17.8876 29.97 17.7645 30.0186C17.6413 30.0672 17.5354 30.1513 17.4602 30.2604C17.3851 30.3694 17.3441 30.4983 17.3426 30.6307C17.3425 30.8063 17.411 30.9749 17.5333 31.1008C17.6557 31.2266 17.8224 31.2997 17.9979 31.3045H17.9868Z" fill="#25D193"/>
<path d="M22.7144 28.6428C23.109 28.6486 23.493 28.7711 23.8181 28.9948C24.1431 29.2185 24.3947 29.5334 24.5412 29.8998C24.6876 30.2663 24.7224 30.6678 24.641 31.054C24.5597 31.4401 24.3659 31.7935 24.084 32.0697C23.8022 32.3459 23.4449 32.5325 23.0572 32.606C22.6695 32.6795 22.2687 32.6367 21.9053 32.4828C21.5419 32.329 21.2322 32.071 21.0152 31.7415C20.7981 31.4119 20.6834 31.0255 20.6856 30.6309C20.687 30.3668 20.7408 30.1056 20.8437 29.8624C20.9467 29.6191 21.0969 29.3987 21.2855 29.2139C21.4742 29.029 21.6976 28.8834 21.9428 28.7854C22.1881 28.6873 22.4503 28.6389 22.7144 28.6428ZM22.6959 31.3047C22.8283 31.3024 22.957 31.2607 23.0656 31.185C23.1742 31.1092 23.2577 31.0028 23.3056 30.8794C23.3535 30.7559 23.3635 30.621 23.3344 30.4918C23.3052 30.3627 23.2383 30.2451 23.1421 30.1541C23.0459 30.0632 22.9247 30.0029 22.7941 29.9811C22.6635 29.9593 22.5294 29.9769 22.4088 30.0316C22.2883 30.0863 22.1867 30.1757 22.1172 30.2884C22.0477 30.4011 22.0133 30.5319 22.0184 30.6642C22.027 30.8377 22.1022 31.0012 22.2285 31.1206C22.3547 31.2399 22.5222 31.3059 22.6959 31.3047Z" fill="#25D193"/>
<path d="M26.7202 3.30361C26.4721 3.30361 26.2204 3.30361 25.9797 3.30361C25.8108 3.29499 25.6519 3.22103 25.5365 3.09736C25.4211 2.9737 25.3583 2.81001 25.3614 2.64091C25.3585 2.47166 25.4226 2.30812 25.5398 2.18602C25.6571 2.06392 25.8179 1.9932 25.9871 1.98932C26.4573 1.9671 26.9312 1.9671 27.4014 1.98932C27.5709 1.99607 27.731 2.06946 27.8468 2.19355C27.9625 2.31763 28.0247 2.48239 28.0196 2.65202C28.0189 2.82053 27.9537 2.98236 27.8373 3.10424C27.7209 3.22612 27.5623 3.2988 27.394 3.30731C27.1644 3.31842 26.9423 3.30361 26.7202 3.30361Z" fill="#25D193"/>
</svg>
