<svg width="35" height="40" viewBox="0 0 35 40" fill="none" xmlns="http://www.w3.org/2000/svg">
<path d="M16.4754 39.9981C15.8763 39.8972 15.2714 39.8196 14.6762 39.6936C11.8276 39.1012 9.24178 37.6161 7.29405 35.454C5.34633 33.2918 4.13803 30.565 3.84451 27.6693C3.84871 27.5635 3.81543 27.4595 3.75052 27.3758C3.68562 27.2921 3.59327 27.2339 3.48973 27.2116C1.25824 26.465 0 24.7079 0 22.3515C0 19.1088 0 15.8662 0 12.6235C0 10.2478 1.34161 8.44024 3.60217 7.71491C3.67191 7.68214 3.73338 7.63409 3.78204 7.57434C3.8307 7.51458 3.86531 7.44464 3.88329 7.3697C4.15198 5.88645 4.86545 4.52009 5.9289 3.45211C6.99236 2.38414 8.35546 1.66511 9.83715 1.39055C10.3378 1.3126 10.8429 1.26661 11.3494 1.25285C11.7371 1.23346 12.1249 1.25285 12.5126 1.25285C12.7375 0.263758 13.069 0 14.0636 0H20.9248C21.9194 0 22.2644 0.273454 22.4758 1.31685C23.1931 1.31685 23.9376 1.25285 24.6685 1.32849C26.2312 1.50845 27.6954 2.18407 28.8466 3.25647C29.9978 4.32887 30.7757 5.74172 31.0663 7.28824C31.0714 7.4012 31.1147 7.50909 31.189 7.59432C31.2633 7.67955 31.3642 7.73709 31.4754 7.75757C32.4602 8.04257 33.329 8.63332 33.9563 9.44452C34.5835 10.2557 34.9368 11.2454 34.9651 12.2705C35.0116 15.7317 35.0116 19.1948 34.9651 22.6599C34.938 24.8281 33.5401 26.5891 31.4618 27.2349C31.3711 27.251 31.2891 27.2989 31.2305 27.37C31.1719 27.441 31.1405 27.5307 31.1419 27.6228C30.4575 33.7377 26.1516 38.4834 20.1551 39.7382C19.6103 39.8526 19.0558 39.9147 18.5072 40L16.4754 39.9981ZM17.5126 9.86182C13.387 9.86182 9.2607 9.86182 5.13377 9.86182C3.44901 9.86182 2.34587 10.9537 2.34393 12.608C2.34393 15.8649 2.34393 19.1205 2.34393 22.3748C2.34393 23.9787 3.4335 25.0802 5.0349 25.0899C7.31291 25.0899 9.59093 25.0899 11.8689 25.0899C12.7248 25.1013 13.5502 24.7729 14.1644 24.1765C16.1361 22.3399 18.8348 22.336 20.8123 24.1765C21.4359 24.7786 22.2722 25.1097 23.1388 25.0977C25.4052 25.0977 27.6696 25.0977 29.9341 25.0977C31.5374 25.0977 32.6309 23.9922 32.6328 22.3825C32.6328 19.1153 32.6328 15.8468 32.6328 12.577C32.6331 12.2782 32.59 11.9809 32.5048 11.6945C32.1559 10.5309 31.1671 9.86376 29.8158 9.86376C25.716 9.85988 21.615 9.85923 17.5126 9.86182ZM28.7883 27.4366H28.3501C26.6441 27.4366 24.938 27.423 23.2338 27.4366C22.4828 27.4566 21.7354 27.3254 21.036 27.0509C20.3366 26.7764 19.6995 26.3641 19.1625 25.8385C18.9447 25.6171 18.685 25.4412 18.3986 25.3211C18.1122 25.201 17.8047 25.1392 17.4942 25.1392C17.1836 25.1392 16.8762 25.201 16.5898 25.3211C16.3033 25.4412 16.0437 25.6171 15.8259 25.8385C15.2852 26.3679 14.6435 26.7829 13.939 27.0588C13.2345 27.3347 12.4817 27.4658 11.7255 27.4444C10.0213 27.425 8.31524 27.4444 6.61109 27.4444H6.1962C6.63048 32.6361 11.0527 37.471 17.1501 37.6495C20.022 37.737 22.8202 36.7317 24.9802 34.8362C27.1401 32.9408 28.501 30.2964 28.7883 27.4366ZM14.9244 2.34861V7.48412H20.0523V2.34861H14.9244ZM22.4428 3.63442V7.4977H28.6875C27.9857 4.78255 25.7193 3.21358 22.4428 3.63442ZM6.2912 7.4977H12.5339C12.5436 7.37745 12.5591 7.27661 12.5591 7.17576C12.5591 5.99402 12.5591 4.81487 12.5591 3.6383C9.1392 3.2 6.77007 5.08121 6.2912 7.4977Z" fill="#C305D3"/>
</svg>
