<svg width="40" height="40" viewBox="0 0 40 40" fill="none" xmlns="http://www.w3.org/2000/svg">
<path d="M39.9935 22.9768C39.876 23.3589 39.7264 23.7302 39.5463 24.087C38.8734 25.2058 37.8499 25.7416 36.5599 25.6103C35.2698 25.4791 34.3668 24.7325 33.9067 23.4953C33.8658 23.3856 33.8357 23.2802 33.797 23.1489H31.2449C31.2148 23.7411 31.2191 24.3345 31.2578 24.9261C31.3502 25.733 31.017 26.1676 30.3268 26.557C27.8929 27.9319 25.4977 29.3756 23.0875 30.7935C22.9686 30.8724 22.8418 30.9388 22.7091 30.9914C22.5682 31.0506 22.4099 31.0527 22.2675 30.9974C22.1251 30.942 22.0097 30.8334 21.9458 30.6945C21.8716 30.5693 21.8481 30.4204 21.8801 30.2784C21.9121 30.1363 21.9971 30.0119 22.1178 29.9307C22.2101 29.8594 22.3087 29.7967 22.4124 29.7435C24.8226 28.3235 27.2286 26.8991 29.6452 25.492C29.7662 25.4372 29.8663 25.3447 29.9306 25.2285C29.9949 25.1122 30.02 24.9782 30.0021 24.8465C29.9785 24.2893 30.0021 23.732 30.0021 23.1253H27.4393C27.2694 23.1253 27.1017 23.1253 26.9318 23.1253C26.5018 23.1102 26.2374 22.852 26.2481 22.4798C26.2504 22.3948 26.2701 22.3111 26.3059 22.234C26.3417 22.1568 26.3929 22.0878 26.4563 22.0312C26.5198 21.9746 26.5941 21.9315 26.6748 21.9047C26.7554 21.8779 26.8407 21.8678 26.9254 21.8752C27.8241 21.8752 28.7228 21.8752 29.6194 21.8752H29.972V15.5216C29.871 15.5711 29.7699 15.612 29.6775 15.6658C26.752 17.387 23.8286 19.1083 20.9073 20.8296C20.8369 20.8733 20.7767 20.9317 20.7307 21.0007C20.6847 21.0698 20.654 21.1479 20.6407 21.2297C20.6278 25.3844 20.6407 29.5391 20.6407 33.6959C20.6451 33.7335 20.6515 33.7709 20.6601 33.8078L20.9245 33.8982C21.5796 34.1018 22.1494 34.5157 22.5457 35.076C22.942 35.6364 23.1427 36.3118 23.1168 36.9977C23.0908 37.6837 22.8397 38.342 22.4022 38.8707C21.9647 39.3994 21.3652 39.7691 20.6966 39.9225C20.6235 39.9419 20.5526 39.9742 20.4816 40H19.5442C19.1292 39.8279 18.6734 39.7138 18.3036 39.4707C17.8083 39.171 17.4124 38.7315 17.1657 38.2075C16.919 37.6835 16.8324 37.0983 16.9168 36.5252C17.0651 35.2343 17.8069 34.3737 19.026 33.9089C19.1357 33.8702 19.241 33.8401 19.3894 33.7949V33.4528C19.3894 29.415 19.3894 25.3765 19.3894 21.3373C19.4084 21.2379 19.3958 21.1351 19.3534 21.0433C19.3109 20.9514 19.2408 20.8752 19.1529 20.8253C16.1872 19.0925 13.2265 17.3526 10.2709 15.6056C10.2064 15.5668 10.1376 15.5367 10.0387 15.4851V21.886H12.808C13.453 21.886 13.7476 22.071 13.7605 22.4927C13.7734 22.9144 13.4659 23.1382 12.8037 23.1382H10.1312C10.1075 23.1382 10.0817 23.1489 10 23.164C10 23.8224 9.98495 24.4937 10.0129 25.165C10.0129 25.2704 10.1978 25.393 10.3204 25.464C12.7399 26.8984 15.1602 28.3249 17.5812 29.7435C17.6733 29.7921 17.7617 29.8474 17.8456 29.9092C17.9773 29.9967 18.07 30.1319 18.104 30.2864C18.1381 30.4409 18.111 30.6026 18.0284 30.7375C17.9494 30.8747 17.8199 30.9755 17.6675 31.0181C17.5151 31.0608 17.3521 31.0419 17.2135 30.9656C16.9813 30.8515 16.7598 30.7095 16.5362 30.5783C14.1496 29.1733 11.7695 27.7554 9.37002 26.372C9.15811 26.2763 8.9824 26.1152 8.86864 25.9123C8.75488 25.7094 8.70907 25.4754 8.73791 25.2446C8.77661 24.5582 8.73791 23.8697 8.73791 23.1597H6.19651C6.17501 23.2221 6.14491 23.3017 6.11911 23.3749C5.92481 24.0431 5.51294 24.6272 4.94892 25.0344C4.38491 25.4416 3.7011 25.6486 3.00611 25.6224C2.31112 25.5961 1.64481 25.3383 1.11302 24.8898C0.581225 24.4413 0.214447 23.8278 0.0709496 23.1468C0.0514031 23.0864 0.0276983 23.0275 0 22.9704V22.0323C0.0494517 21.8731 0.0989028 21.7138 0.150505 21.5546C0.348105 20.9286 0.737886 20.3809 1.26444 19.9893C1.79099 19.5977 2.4275 19.3821 3.08349 19.3733C3.73948 19.3645 4.38155 19.5628 4.91842 19.9402C5.45529 20.3175 5.85963 20.8545 6.07396 21.475C6.11696 21.5977 6.15136 21.7246 6.19437 21.8623H8.74865V21.4557C8.74865 19.1772 8.74865 16.8965 8.74865 14.618C8.73493 14.4322 8.77691 14.2466 8.86922 14.0848C8.96153 13.9231 9.09997 13.7926 9.26682 13.71C12.5328 11.7994 15.7902 9.87378 19.0561 7.96104C19.1619 7.91805 19.2508 7.84155 19.309 7.74324C19.3673 7.64493 19.3917 7.53023 19.3786 7.4167C19.3507 7.0165 19.3786 6.61201 19.3786 6.22043C17.4995 5.49104 16.6308 4.1958 16.9297 2.59073C17.0544 1.86571 17.4311 1.20809 17.9933 0.734039C18.5555 0.259987 19.267 0 20.0021 0C20.7373 0 21.4488 0.259987 22.011 0.734039C22.5732 1.20809 22.9499 1.86571 23.0746 2.59073C23.3713 4.19795 22.507 5.49104 20.6278 6.22043C20.6278 6.66365 20.6106 7.11978 20.6386 7.57376C20.6546 7.64141 20.684 7.70518 20.725 7.76134C20.766 7.81749 20.8177 7.86491 20.8772 7.9008C23.6537 9.54459 26.4316 11.1827 29.2109 12.815C29.7162 13.1119 30.2129 13.4217 30.7267 13.7014C30.897 13.7814 31.0387 13.9118 31.1325 14.0749C31.2264 14.2381 31.2678 14.4262 31.2513 14.6137C31.2363 16.8793 31.2513 19.147 31.2513 21.4126V21.8559H33.8013C33.8293 21.7762 33.8615 21.6837 33.8916 21.5891C34.0919 20.9287 34.5051 20.3534 35.0668 19.953C35.6284 19.5526 36.3068 19.3497 36.9959 19.376C37.6849 19.4023 38.3459 19.6564 38.8754 20.0984C39.4049 20.5405 39.7732 21.1456 39.9226 21.8193C39.9441 21.8925 39.97 21.9643 40 22.0344L39.9935 22.9768ZM19.3722 9.22186L10.6214 14.3706C10.7482 14.4545 10.7998 14.4932 10.8557 14.5276C13.8142 16.2704 16.772 18.0139 19.7291 19.7581C19.8139 19.8152 19.9147 19.8437 20.0168 19.8394C20.1189 19.8352 20.217 19.7984 20.2967 19.7344C23.2208 18.0132 26.1456 16.2919 29.0712 14.5707C29.1572 14.5212 29.2346 14.4609 29.3657 14.3727L20.6214 9.22401V13.4411C20.6214 13.766 20.6343 14.0865 20.6214 14.4179C20.6158 14.5762 20.549 14.7261 20.4351 14.8361C20.3212 14.9461 20.169 15.0075 20.0108 15.0074C19.8524 15.0089 19.6995 14.9498 19.5832 14.8422C19.4669 14.7347 19.396 14.5867 19.3851 14.4286C19.3722 14.2996 19.3851 14.1683 19.3851 14.0371L19.3722 9.22186ZM21.8684 3.10926C21.8654 2.73946 21.7532 2.3788 21.5458 2.0727C21.3384 1.7666 21.0452 1.52874 20.703 1.38908C20.3608 1.24942 19.9849 1.2142 19.6228 1.28786C19.2606 1.36151 18.9283 1.54074 18.6678 1.80299C18.4072 2.06524 18.23 2.39877 18.1585 2.76159C18.0869 3.12442 18.1243 3.50031 18.2658 3.84194C18.4073 4.18357 18.6467 4.47566 18.9537 4.68144C19.2608 4.88721 19.6218 4.99748 19.9914 4.99834C20.2387 4.99806 20.4835 4.94892 20.7119 4.85376C20.9402 4.75859 21.1474 4.61926 21.3218 4.44376C21.4962 4.26826 21.6343 4.06003 21.728 3.83103C21.8218 3.60203 21.8695 3.35675 21.8684 3.10926ZM1.25134 22.4841C1.24676 22.854 1.35166 23.2169 1.55283 23.5272C1.75399 23.8375 2.04242 24.0813 2.38179 24.2279C2.72116 24.3745 3.09628 24.4173 3.45992 24.3509C3.82355 24.2846 4.15942 24.112 4.42523 23.855C4.69104 23.5979 4.8749 23.2679 4.95364 22.9066C5.03238 22.5452 5.00249 22.1685 4.86773 21.8241C4.73297 21.4797 4.49937 21.1828 4.19635 20.971C3.89333 20.7592 3.53445 20.6419 3.16491 20.6338C2.91784 20.6295 2.67235 20.674 2.44247 20.7646C2.21258 20.8553 2.00279 20.9904 1.82509 21.1623C1.6474 21.3341 1.50526 21.5393 1.40682 21.7661C1.30837 21.9929 1.25554 22.2369 1.25134 22.4841ZM36.8738 20.6338C36.5037 20.6325 36.1416 20.7409 35.8329 20.9452C35.5243 21.1496 35.283 21.4408 35.1394 21.7821C34.9959 22.1234 34.9565 22.4997 35.0262 22.8634C35.0959 23.2271 35.2716 23.562 35.5312 23.8259C35.7908 24.0899 36.1226 24.271 36.4849 24.3466C36.8472 24.4222 37.2237 24.3888 37.5671 24.2506C37.9104 24.1124 38.2052 23.8756 38.4143 23.5701C38.6235 23.2645 38.7375 22.9039 38.7422 22.5336C38.7445 22.286 38.6979 22.0404 38.6052 21.8108C38.5125 21.5813 38.3754 21.3723 38.2018 21.1958C38.0283 21.0193 37.8217 20.8788 37.5938 20.7824C37.3659 20.686 37.1212 20.6354 36.8738 20.6338ZM21.8684 36.891C21.8684 36.5213 21.7591 36.1598 21.5542 35.8521C21.3494 35.5444 21.0582 35.3042 20.7172 35.1618C20.3763 35.0193 20.0009 34.981 19.6382 35.0516C19.2755 35.1221 18.9418 35.2985 18.6791 35.5584C18.4163 35.8184 18.2363 36.1503 18.1616 36.5124C18.087 36.8745 18.121 37.2506 18.2594 37.5934C18.3979 37.9361 18.6346 38.2303 18.9397 38.4388C19.2448 38.6473 19.6048 38.7608 19.9742 38.765C20.2218 38.7673 20.4674 38.7205 20.6968 38.6274C20.9262 38.5343 21.135 38.3967 21.3111 38.2225C21.4871 38.0483 21.627 37.841 21.7227 37.6125C21.8183 37.3839 21.8679 37.1387 21.8684 36.891Z" fill="#FC7754"/>
<path d="M7.43345 11.9312C7.25929 11.7719 7.00343 11.645 6.94323 11.4578C6.88303 11.2706 7.01203 11.0081 7.09374 10.793C7.12384 10.7112 7.25284 10.666 7.33885 10.6101C9.09044 9.43965 10.8442 8.27063 12.6001 7.10305C12.7484 7.00623 12.9376 6.87283 13.086 6.88789C13.1956 6.9009 13.3015 6.93601 13.3972 6.99111C13.493 7.04621 13.5765 7.12015 13.6429 7.20847C13.7267 7.3892 13.6429 7.66676 13.5848 7.88622C13.5569 7.98734 13.3999 8.06049 13.2924 8.13149C11.5408 9.30768 9.79065 10.4781 8.04192 11.6428C7.84588 11.7527 7.64258 11.849 7.43345 11.9312Z" fill="#FC7754"/>
<path d="M26.7866 6.79492C26.9718 6.87099 27.1521 6.95866 27.3263 7.05741C29.1238 8.24938 30.9198 9.44637 32.7144 10.6484C33.1186 10.9173 33.2239 11.2508 33.0283 11.5671C32.8326 11.8834 32.4005 11.9393 32.0242 11.6897C30.2153 10.4863 28.4085 9.28141 26.6039 8.0751C26.3265 7.89007 26.1437 7.64479 26.29 7.32205C26.3846 7.1155 26.6146 6.97135 26.7866 6.79492Z" fill="#FC7754"/>
<path d="M13.7455 32.9839C13.7455 33.4938 13.4208 33.7907 13.0403 33.7283C12.8858 33.699 12.7393 33.6374 12.6102 33.5476C10.8329 32.3686 9.05689 31.1852 7.28236 29.9975C7.18268 29.9394 7.09212 29.8669 7.0136 29.7824C6.92809 29.6762 6.8801 29.5447 6.8771 29.4084C6.87411 29.2721 6.91629 29.1386 6.99705 29.0288C7.07782 28.919 7.19264 28.839 7.32359 28.8014C7.45454 28.7637 7.59427 28.7705 7.72098 28.8206C7.80458 28.8574 7.88449 28.9021 7.95964 28.954C9.74635 30.1438 11.5352 31.3315 13.3133 32.5321C13.477 32.6626 13.6223 32.8146 13.7455 32.9839Z" fill="#FC7754"/>
<path d="M26.8171 33.832C26.6408 33.6792 26.387 33.5652 26.3268 33.3844C26.2893 33.1661 26.317 32.9416 26.4064 32.739C26.4365 32.6486 26.5741 32.5841 26.6709 32.5238C28.4425 31.339 30.217 30.16 31.9944 28.9866C32.1529 28.8583 32.3518 28.7904 32.5556 28.7952C32.6633 28.8225 32.7638 28.8728 32.8502 28.9426C32.9367 29.0125 33.0071 29.1001 33.0566 29.1997C33.1168 29.3761 33.0071 29.63 32.9211 29.8322C32.876 29.9355 32.7255 29.9957 32.6158 30.0689C30.8872 31.2164 29.1571 32.3682 27.4255 33.5243C27.228 33.6371 27.025 33.7398 26.8171 33.832Z" fill="#FC7754"/>
</svg>
