<svg width="40" height="40" viewBox="0 0 40 40" fill="none" xmlns="http://www.w3.org/2000/svg">
<path d="M20.0048 0H38.3071C39.4583 0 40 0.540476 40 1.69048V38.2964C40 39.4762 39.469 40 38.275 40H1.71429C0.530952 40 0 39.4679 0 38.2857V1.72381C0 0.511905 0.519047 0 1.74643 0H20.0048ZM2.87738 37.1119H37.1071V11.4512H2.87738V37.1119ZM20.9024 8.54048H37.1214V2.88333C37.0598 2.87049 36.9973 2.86174 36.9345 2.85714C32.6345 2.85714 28.3341 2.86071 24.0333 2.86786C23.9408 2.8837 23.853 2.9199 23.7762 2.97384C23.6994 3.02779 23.6356 3.09812 23.5893 3.17976C22.875 4.56667 22.1845 5.96667 21.4881 7.3619L20.9024 8.54048ZM14.8119 2.88929H2.87976V8.54643C2.94238 8.55756 3.00557 8.56511 3.06905 8.56905C5.94048 8.56905 8.8119 8.57619 11.6833 8.55714C11.776 8.54141 11.864 8.50512 11.9409 8.45095C12.0177 8.39677 12.0814 8.32607 12.1274 8.24405C12.8667 6.80357 13.5833 5.35119 14.306 3.90119C14.4702 3.57143 14.6345 3.24524 14.8119 2.88929ZM15.169 8.57143C15.9393 8.57143 16.6345 8.55595 17.3274 8.57857C17.6119 8.58809 17.744 8.47738 17.8643 8.23452C18.6893 6.55833 19.531 4.88929 20.3643 3.21667C20.4143 3.11548 20.4536 3.00833 20.5179 2.85952C19.7167 2.85952 18.9631 2.85119 18.2095 2.86905C18.1492 2.88109 18.0923 2.90634 18.0429 2.94298C17.9935 2.97961 17.9528 3.02673 17.9238 3.08095C17.0131 4.88095 16.1143 6.68333 15.169 8.57143Z" fill="#1473E6"/>
<path d="M16.8832 15.7133C18.638 15.7133 20.3939 15.7204 22.1499 15.7061C22.3976 15.7006 22.6413 15.6417 22.8642 15.5335C24.4916 14.7359 26.1166 13.9311 27.7285 13.1038C28.2939 12.8145 28.8142 12.799 29.382 13.0883C31.1686 13.9978 32.9614 14.895 34.7606 15.78C35.4249 16.1073 35.7213 16.6133 35.713 17.3454C35.6995 19.5923 35.6995 21.8387 35.713 24.0847C35.713 24.8204 35.4178 25.3228 34.7606 25.6478C33.2797 26.374 31.8118 27.1252 30.332 27.8514C30.088 27.9704 29.9856 28.1073 29.9916 28.3907C30.0106 29.3264 29.9999 30.2645 29.9987 31.2014C29.9987 32.3002 29.4487 32.855 28.3594 32.8561C24.863 32.8561 21.3666 32.8561 17.8701 32.8633C17.6227 32.8668 17.379 32.924 17.1559 33.0311C15.5285 33.8276 13.9047 34.6311 12.2928 35.4585C11.6975 35.7657 11.1547 35.7573 10.5582 35.4514C8.8003 34.549 7.03323 33.6649 5.25704 32.799C4.59752 32.4752 4.27966 31.9859 4.28323 31.2514C4.29593 28.9895 4.29593 26.7276 4.28323 24.4657C4.28323 23.7252 4.5999 23.2395 5.263 22.918C6.73204 22.2038 8.18323 21.4526 9.65228 20.7347C9.91776 20.605 10.0166 20.4585 10.0094 20.1597C9.98919 19.2073 9.9999 18.255 10.0035 17.3026C10.0035 16.2931 10.5725 15.7192 11.5737 15.718C13.3436 15.7149 15.1134 15.7133 16.8832 15.7133ZM27.1428 29.9811C27.1428 29.4264 27.1237 28.9204 27.1499 28.4169C27.1654 28.118 27.0618 27.9704 26.7928 27.8407C25.3118 27.1169 23.8451 26.3645 22.3654 25.6371C21.7189 25.3204 21.413 24.83 21.4237 24.1109C21.4356 22.43 21.4237 20.749 21.4237 19.0692V18.605H12.8523C12.8523 19.1442 12.8725 19.6502 12.8451 20.1526C12.8285 20.4526 12.9368 20.5954 13.2023 20.7252C14.6832 21.449 16.1499 22.2014 17.6297 22.9288C18.2737 23.2466 18.5761 23.7383 18.5701 24.4561C18.5582 26.1371 18.5701 27.818 18.5701 29.499V29.9752L27.1428 29.9811ZM24.3392 19.4788C24.3179 19.5162 24.3015 19.5562 24.2904 19.5978C24.2904 20.4442 24.363 21.2978 24.2654 22.1323C24.1523 23.1038 24.457 23.6692 25.4035 23.974C25.9987 24.1645 26.5344 24.5157 27.1428 24.818C27.1428 23.5383 27.1499 22.3371 27.132 21.1359C27.1242 21.0619 27.0999 20.9906 27.061 20.9271C27.0221 20.8637 26.9695 20.8098 26.907 20.7692C26.0689 20.3335 25.2178 19.918 24.3392 19.4788ZM32.857 19.4597C32.2987 19.7371 31.7987 19.9835 31.3011 20.2359C30.8797 20.449 30.2951 20.5716 30.088 20.9169C29.8701 21.2811 30.0058 21.8609 30.0023 22.3454C29.9951 23.1526 30.0023 23.9585 30.0023 24.83C30.9463 24.3538 31.8189 23.924 32.6856 23.4764C32.7316 23.4466 32.7704 23.4068 32.7991 23.3601C32.8277 23.3133 32.8455 23.2607 32.8511 23.2061C32.8606 21.9823 32.857 20.7561 32.857 19.4597ZM7.14276 26.5942C7.14276 27.5097 7.2249 28.3621 7.12252 29.1919C6.99157 30.2335 7.34752 30.8347 8.34157 31.1609C8.90347 31.3454 9.413 31.6764 9.9999 31.9633C9.9999 30.6823 10.007 29.4811 9.98919 28.2811C9.98111 28.2072 9.95661 28.136 9.91747 28.0728C9.87834 28.0096 9.82556 27.9559 9.76299 27.9157C8.9249 27.4752 8.07371 27.0597 7.14276 26.5942ZM12.857 31.9728C13.7868 31.5085 14.6487 31.0847 15.5011 30.643C15.5546 30.6127 15.6007 30.5707 15.6359 30.5202C15.6711 30.4698 15.6946 30.4121 15.7047 30.3514C15.7189 29.1252 15.7142 27.899 15.7142 26.6014C14.7713 27.0716 13.8856 27.5073 13.0082 27.9597C12.9646 27.9935 12.929 28.0365 12.9041 28.0857C12.8792 28.1349 12.8656 28.1891 12.8642 28.2442C12.8535 29.4597 12.857 30.6764 12.857 31.9728ZM26.0582 17.1419C26.5475 17.38 26.9761 17.5359 27.3285 17.7907C28.1761 18.4014 28.9737 18.4026 29.8225 17.7907C30.1797 17.5323 30.6166 17.3788 31.0892 17.1419C30.2439 16.7192 29.5047 16.3419 28.7558 15.9835C28.6392 15.9352 28.5082 15.9352 28.3916 15.9835C27.6487 16.3407 26.9035 16.7169 26.0582 17.1419ZM13.9499 24.2847C13.0951 23.8585 12.3416 23.48 11.5844 23.1097C11.5097 23.0672 11.4212 23.0556 11.338 23.0776C10.557 23.4585 9.78204 23.8514 8.91895 24.2847C9.78323 24.718 10.5582 25.1109 11.338 25.4919C11.4216 25.5138 11.5104 25.5022 11.5856 25.4597C12.3416 25.0883 13.0951 24.7109 13.9499 24.2847Z" fill="#1473E6"/>
<path d="M5.70447 7.14228C5.42133 7.14083 5.145 7.05528 4.91058 6.89648C4.67616 6.73768 4.49421 6.5128 4.38784 6.2504C4.28147 5.98799 4.25548 5.6999 4.31316 5.42269C4.37085 5.14548 4.50961 4.89167 4.71183 4.69348C4.91404 4.49528 5.17059 4.36165 5.4489 4.30955C5.72721 4.25745 6.01473 4.28923 6.27494 4.40085C6.53516 4.51247 6.75634 4.6989 6.91039 4.93647C7.06445 5.17404 7.14443 5.45203 7.14019 5.73514C7.1315 6.11055 6.97656 6.46772 6.70838 6.73057C6.4402 6.99341 6.07998 7.14114 5.70447 7.14228Z" fill="#1473E6"/>
</svg>
