<svg width="40" height="40" viewBox="0 0 40 40" fill="none" xmlns="http://www.w3.org/2000/svg">
<path d="M19.6914 0.00585938H20.3073L20.803 0.295271C26.0932 3.35769 31.3833 6.41909 36.6734 9.47945C36.9345 9.61086 37.1512 9.81596 37.2968 10.0694C37.4424 10.3227 37.5105 10.6133 37.4925 10.905C37.4925 16.9703 37.4925 23.0366 37.4925 29.104C37.5112 29.3957 37.4431 29.6865 37.2968 29.9396C37.1505 30.1928 36.9325 30.3969 36.6703 30.5264C35.2108 31.3515 33.7635 32.2013 32.3132 33.0418L20.3042 40H19.6883L19.1926 39.7106C13.9086 36.64 8.62668 33.5806 3.34681 30.5326C3.08177 30.3959 2.86212 30.1853 2.71453 29.9262C2.56694 29.6672 2.49777 29.3708 2.51541 29.0732C2.52773 23.0264 2.52773 16.9775 2.51541 10.9265C2.49456 10.6284 2.56236 10.3307 2.7103 10.0711C2.85824 9.81138 3.0797 9.60126 3.34681 9.46714C5.07734 8.48499 6.79248 7.48129 8.51377 6.48374L19.6914 0.00585938ZM6.05346 10.6125C6.16123 10.6894 6.2105 10.7264 6.26592 10.7602C10.7616 13.3444 15.2614 15.9255 19.7653 18.5035C19.8482 18.5372 19.9374 18.5525 20.0267 18.5482C20.116 18.544 20.2034 18.5203 20.2826 18.4789C24.7537 15.9235 29.2186 13.3578 33.6773 10.7818C33.7605 10.7325 33.8344 10.6679 33.9267 10.6032L33.7666 10.4893C29.2648 7.89077 24.7701 5.28505 20.2826 2.67214C20.1902 2.6162 20.0827 2.59058 19.975 2.59886C19.8673 2.60714 19.7649 2.64891 19.6822 2.71832L11.0449 7.72759L6.05346 10.6125ZM18.8077 36.7826C18.8191 36.7215 18.8273 36.6598 18.8323 36.5979C18.8323 31.3762 18.8323 26.1565 18.8323 20.9389C18.8323 20.6834 18.6999 20.6064 18.5244 20.5079L5.22822 12.8754C5.11737 12.8138 5.00344 12.7584 4.87103 12.6876V27.3275C5.03115 27.2413 5.15432 27.1766 5.27749 27.1058L14.4598 21.8656C14.6034 21.7772 14.7537 21.7 14.9093 21.6347C15.1605 21.5382 15.4374 21.5321 15.6925 21.6175C15.9476 21.7029 16.165 21.8744 16.3073 22.1027C16.4573 22.3352 16.5175 22.6144 16.4767 22.888C16.4359 23.1617 16.2969 23.4111 16.0856 23.5898C15.9337 23.7078 15.7708 23.8109 15.5991 23.8977L6.463 29.1317C6.33675 29.2025 6.21358 29.2795 6.0473 29.3811L18.8077 36.7826ZM21.1756 36.7826L33.9637 29.3718L33.5264 29.1132L24.4242 23.8792C24.2644 23.794 24.1111 23.6973 23.9654 23.5898C23.7718 23.4428 23.6309 23.2372 23.5638 23.0036C23.4966 22.77 23.5068 22.5209 23.5928 22.2936C23.6655 22.0617 23.814 21.861 24.0144 21.7236C24.2149 21.5863 24.4558 21.5202 24.6983 21.5362C24.98 21.5682 25.2518 21.6595 25.4958 21.8041C28.575 23.559 31.6543 25.3211 34.7335 27.0904C34.8536 27.1582 34.9798 27.2197 35.1215 27.2936V12.6845C34.9922 12.7492 34.8998 12.7923 34.8136 12.8415C30.361 15.4011 25.9074 17.9576 21.4527 20.5109C21.3562 20.5569 21.2767 20.6324 21.2258 20.7265C21.1749 20.8205 21.1551 20.9283 21.1695 21.0343C21.1695 26.1514 21.1695 31.2664 21.1695 36.3793L21.1756 36.7826Z" fill="#C7CB12"/>
<path d="M0.943145 39.9953C0.247237 39.7244 -0.0175768 39.2164 0.000898632 38.4744C0.031691 37.0181 0.000898632 35.5618 0.000898632 34.1055C0.000898619 33.9519 0.0311607 33.7997 0.0899643 33.6578C0.148768 33.5158 0.234961 33.3869 0.343615 33.2782C0.45227 33.1696 0.581261 33.0834 0.723225 33.0246C0.865189 32.9658 1.01734 32.9355 1.17101 32.9355C1.32467 32.9355 1.47683 32.9658 1.61879 33.0246C1.76076 33.0834 1.88975 33.1696 1.9984 33.2782C2.10706 33.3869 2.19324 33.5158 2.25205 33.6578C2.31085 33.7997 2.34112 33.9519 2.34112 34.1055V37.6462H4.90613C5.21405 37.6462 5.5035 37.6462 5.80219 37.6462C6.08475 37.632 6.36283 37.721 6.5847 37.8965C6.80657 38.072 6.95711 38.3222 7.00831 38.6004C7.05952 38.8786 7.0079 39.1659 6.86307 39.4089C6.71824 39.6519 6.49005 39.8341 6.22096 39.9214C6.1746 39.9418 6.13026 39.9666 6.08855 39.9953H0.943145Z" fill="#C7CB12"/>
<path d="M33.9081 39.9958L33.7018 39.8973C33.4539 39.7945 33.2483 39.6105 33.1185 39.3756C32.9887 39.1407 32.9425 38.8688 32.9874 38.6042C33.0352 38.3322 33.1789 38.0864 33.3925 37.9113C33.606 37.7362 33.8753 37.6434 34.1514 37.6498C35.1614 37.6498 36.1744 37.6498 37.1875 37.6498H37.6555V35.8733C37.6555 35.3006 37.6555 34.731 37.6555 34.1584C37.6327 33.8703 37.7154 33.5837 37.8882 33.3521C38.061 33.1204 38.3121 32.9594 38.5947 32.8991C39.152 32.7883 39.6293 33.0623 39.9249 33.6657C39.9462 33.6953 39.971 33.7222 39.9988 33.7458V39.0568C39.9243 39.2703 39.8025 39.4643 39.6426 39.6242C39.4826 39.7842 39.2886 39.9059 39.0751 39.9804L33.9081 39.9958Z" fill="#C7CB12"/>
<path d="M6.17721 0.00615665C6.19261 0.0277085 6.20492 0.0554189 6.2234 0.0646554C6.86388 0.37254 7.14717 0.855916 7.01476 1.41934C6.88236 1.98277 6.39891 2.343 5.703 2.343C4.60064 2.343 3.49827 2.343 2.35279 2.343V3.65458C2.35279 4.42121 2.35279 5.194 2.35279 5.95756C2.34241 6.2561 2.21761 6.53922 2.00423 6.7483C1.79085 6.95739 1.50523 7.07643 1.2065 7.08078C0.907768 7.08513 0.618805 6.97446 0.399424 6.77168C0.180043 6.5689 0.0470456 6.28954 0.0279664 5.99143C0.0033325 4.36272 0.00949098 2.73709 0.0279664 1.11146C0.0279664 0.55111 0.425188 0.243228 0.874757 0L6.17721 0.00615665Z" fill="#C7CB12"/>
<path d="M39.9912 6.16437C39.9299 6.37035 39.8197 6.55851 39.6702 6.71287C39.5206 6.86724 39.336 6.98325 39.1321 7.05107C38.9565 7.10222 38.7714 7.11107 38.5917 7.0769C38.4121 7.04273 38.2431 6.9665 38.0987 6.85447C37.9542 6.74244 37.8383 6.59778 37.7605 6.43234C37.6826 6.26691 37.6451 6.08539 37.651 5.90267C37.6356 4.87741 37.651 3.84908 37.651 2.82383V2.3466H37.2199C36.2437 2.3466 35.2676 2.3466 34.2915 2.3466C33.5894 2.3466 33.1152 2.00177 32.9859 1.42295C32.8566 0.84413 33.1368 0.388461 33.7773 0.068262C33.7957 0.068262 33.8081 0.0313175 33.8235 0.00976562H39.1351C39.3328 0.0972243 39.5105 0.223921 39.6577 0.382169C39.8048 0.540417 39.9183 0.726914 39.9912 0.930338V6.16437Z" fill="#C7CB12"/>
</svg>
