<svg width="103" height="70" viewBox="0 0 103 70" fill="none" xmlns="http://www.w3.org/2000/svg">
<path d="M101 49.3357C100.781 51.1628 100.708 52.9899 100.379 54.7805C100.034 57.0869 99.4966 59.3604 98.7728 61.5773C98.2004 63.3724 96.9968 64.8988 95.3853 65.8732C93.7738 66.8476 91.8638 67.2039 90.0098 66.8759C88.7905 66.6671 87.6243 66.2201 86.5776 65.5603C82.994 63.2152 79.7399 60.4009 76.9018 57.1922C75.1127 55.3286 73.2506 53.538 71.6806 51.4186C71.0074 50.6257 70.1672 49.9918 69.2203 49.5622C68.2734 49.1325 67.2433 48.9179 66.2037 48.9337H34.8761C33.8062 48.9275 32.748 49.1567 31.7763 49.605C30.8047 50.0534 29.9433 50.7099 29.2532 51.5282C25.5615 55.9537 21.48 60.0385 17.0581 63.7332C16.1453 64.4641 15.1595 65.0853 14.1736 65.7431C13.1998 66.3597 12.1057 66.7615 10.9644 66.9215C9.82314 67.0816 8.66087 66.9962 7.55516 66.6711C6.44945 66.3461 5.42571 65.7888 4.55222 65.0364C3.67874 64.2841 2.9756 63.3539 2.4897 62.3081C1.50762 60.0447 0.89139 57.6395 0.66408 55.1824C-0.77695 44.8564 0.134247 34.3378 3.32948 24.4141C4.97425 19.0719 7.43774 14.0176 10.6319 9.43186C13.2888 5.19482 17.4265 2.09929 22.239 0.748271C27.0515 -0.602752 32.1941 -0.112521 36.6652 2.12346C38.582 2.96941 40.426 3.97159 42.1786 5.1199C44.0439 6.38179 46.2438 7.05629 48.4952 7.05662C49.7002 7.05662 50.9416 7.05662 52.1465 7.05662C54.6389 7.12281 57.0856 6.37921 59.1203 4.93718C62.8374 2.30819 67.1578 0.661595 71.6806 0.15019C74.9445 -0.224616 78.2499 0.251336 81.2759 1.53186C84.3019 2.81239 86.9457 4.854 88.9509 7.45859C93.1771 12.769 96.3049 18.8682 98.152 25.4007C99.7267 30.4164 100.671 35.6087 100.963 40.858C100.946 41.211 100.946 41.5647 100.963 41.9177L101 49.3357ZM31.6265 22.7331C31.6265 20.6137 31.6265 18.6404 31.6265 16.6672C31.6265 16.119 31.6265 15.8267 30.9328 15.6805C29.1992 15.0485 27.3145 14.9593 25.529 15.4247C25.3762 15.4424 25.2287 15.491 25.0954 15.5677C24.962 15.6443 24.8457 15.7473 24.7535 15.8704C24.6612 15.9935 24.595 16.1341 24.5588 16.2836C24.5227 16.4332 24.5173 16.5886 24.5431 16.7403C24.5431 18.7135 24.5431 20.6502 24.5431 22.7331C22.4619 22.7331 20.4903 22.7331 18.5551 22.7331C18.2514 22.6896 17.9425 22.7636 17.6915 22.9402C17.4404 23.1167 17.2661 23.3825 17.2042 23.6832C16.6153 25.2999 16.6153 27.0728 17.2042 28.6895C17.2348 28.8733 17.302 29.049 17.4019 29.2062C17.5018 29.3635 17.6323 29.4989 17.7856 29.6046C17.9389 29.7103 18.1119 29.7841 18.2943 29.8215C18.4767 29.8589 18.6647 29.8591 18.8472 29.8223C20.1617 29.8223 21.4761 29.8223 22.7906 29.8223H24.3606C24.3606 31.8686 24.3606 33.7323 24.3606 35.5959C24.3269 35.8737 24.3879 36.1547 24.5337 36.3935C24.6795 36.6322 24.9015 36.8147 25.1639 36.9114C25.9414 37.302 26.7939 37.5205 27.6633 37.552C28.5328 37.5836 29.3988 37.4274 30.2026 37.0941C30.5838 37.0145 30.9204 36.7927 31.1441 36.4737C31.3679 36.1547 31.462 35.7625 31.4075 35.3767C31.4075 33.5496 31.4075 31.7225 31.4075 29.8223H37.6511C37.8165 29.8171 37.9793 29.7789 38.1298 29.7099C38.2803 29.6409 38.4155 29.5424 38.5274 29.4203C39.0479 28.5408 39.3225 27.5374 39.3225 26.5152C39.3225 25.493 39.0479 24.4896 38.5274 23.6101C38.446 23.3275 38.2722 23.0803 38.034 22.9081C37.7957 22.7359 37.5066 22.6485 37.2129 22.6601C35.5334 22.7331 33.5617 22.6966 31.7361 22.6966L31.6265 22.7331ZM89.097 24.8891C89.0969 23.8019 88.7737 22.7393 88.1686 21.8364C87.5636 20.9335 86.7038 20.2311 85.6988 19.8184C84.6938 19.4058 83.5889 19.3016 82.5245 19.5191C81.4602 19.7366 80.4845 20.2659 79.7215 21.0398C78.9585 21.8137 78.4428 22.7972 78.2397 23.8653C78.0367 24.9333 78.1557 26.0376 78.5814 27.0378C79.0072 28.0381 79.7205 28.889 80.6307 29.4824C81.5409 30.0758 82.6069 30.3849 83.6931 30.3704C84.4185 30.3753 85.1376 30.2359 85.8088 29.9603C86.4799 29.6847 87.0896 29.2784 87.6025 28.7651C88.1154 28.2517 88.5214 27.6415 88.7967 26.9699C89.0721 26.2982 89.2114 25.5785 89.2065 24.8526L89.097 24.8891ZM75.5509 16.7768C75.5437 15.7031 75.2194 14.6554 74.6188 13.7657C74.0183 12.8759 73.1683 12.1837 72.1757 11.7762C71.1831 11.3686 70.0922 11.2639 69.0403 11.4751C67.9884 11.6864 67.0224 12.2042 66.2638 12.9634C65.5051 13.7227 64.9878 14.6895 64.7767 15.7422C64.5656 16.795 64.6702 17.8867 65.0775 18.8801C65.4847 19.8735 66.1763 20.7242 67.0654 21.3253C67.9544 21.9263 69.0012 22.2509 70.074 22.2581C70.7946 22.2629 71.509 22.1245 72.1757 21.8507C72.8423 21.577 73.448 21.1734 73.9576 20.6635C74.4671 20.1535 74.8704 19.5473 75.1439 18.8801C75.4174 18.2129 75.5557 17.498 75.5509 16.7768ZM75.5509 31.8321C75.5413 30.3847 74.96 28.9999 73.9339 27.9798C72.9078 26.9598 71.5203 26.3873 70.074 26.3873C68.6215 26.3873 67.2284 26.9648 66.2013 27.9928C65.1742 29.0207 64.5972 30.4149 64.5972 31.8686C64.5972 33.3224 65.1742 34.7165 66.2013 35.7445C67.2284 36.7724 68.6215 37.3499 70.074 37.3499C70.7994 37.3548 71.5185 37.2154 72.1897 36.9398C72.8607 36.6642 73.4705 36.258 73.9834 35.7446C74.4963 35.2313 74.9023 34.6211 75.1776 33.9494C75.453 33.2778 75.5923 32.5581 75.5874 31.8321H75.5509Z" fill="#7D5EEA"/>
<path d="M103 52.3357C102.781 54.1628 102.708 55.9899 102.379 57.7805C102.034 60.0869 101.497 62.3604 100.773 64.5773C100.2 66.3724 98.9968 67.8988 97.3853 68.8732C95.7738 69.8476 93.8638 70.2039 92.0098 69.8759C90.7905 69.6671 89.6243 69.2201 88.5776 68.5603C84.994 66.2152 81.7399 63.4009 78.9018 60.1922C77.1127 58.3286 75.2506 56.538 73.6806 54.4186C73.0074 53.6257 72.1672 52.9918 71.2203 52.5622C70.2734 52.1325 69.2433 51.9179 68.2037 51.9337H36.8761C35.8062 51.9275 34.748 52.1567 33.7763 52.605C32.8047 53.0534 31.9433 53.7099 31.2532 54.5282C27.5615 58.9537 23.48 63.0385 19.0581 66.7332C18.1453 67.4641 17.1595 68.0853 16.1736 68.7431C15.1998 69.3597 14.1057 69.7615 12.9644 69.9215C11.8231 70.0816 10.6609 69.9962 9.55516 69.6711C8.44945 69.3461 7.42571 68.7888 6.55222 68.0364C5.67874 67.2841 4.9756 66.3539 4.4897 65.3081C3.50762 63.0447 2.89139 60.6395 2.66408 58.1824C1.22305 47.8564 2.13425 37.3378 5.32948 27.4141C6.97425 22.0719 9.43774 17.0176 12.6319 12.4319C15.2888 8.19482 19.4265 5.09929 24.239 3.74827C29.0515 2.39725 34.1941 2.88748 38.6652 5.12346C40.582 5.96941 42.426 6.97159 44.1786 8.1199C46.0439 9.38179 48.2438 10.0563 50.4952 10.0566C51.7002 10.0566 52.9416 10.0566 54.1465 10.0566C56.6389 10.1228 59.0856 9.37921 61.1203 7.93718C64.8374 5.30819 69.1578 3.66159 73.6806 3.15019C76.9445 2.77538 80.2499 3.25134 83.2759 4.53186C86.3019 5.81239 88.9457 7.854 90.9509 10.4586C95.1771 15.769 98.3049 21.8682 100.152 28.4007C101.727 33.4164 102.671 38.6087 102.963 43.858C102.946 44.211 102.946 44.5647 102.963 44.9177L103 52.3357ZM33.6265 25.7331C33.6265 23.6137 33.6265 21.6404 33.6265 19.6672C33.6265 19.119 33.6265 18.8267 32.9328 18.6805C31.1992 18.0485 29.3145 17.9593 27.529 18.4247C27.3762 18.4424 27.2287 18.491 27.0954 18.5677C26.962 18.6443 26.8457 18.7473 26.7535 18.8704C26.6612 18.9935 26.595 19.1341 26.5588 19.2836C26.5227 19.4332 26.5173 19.5886 26.5431 19.7403C26.5431 21.7135 26.5431 23.6502 26.5431 25.7331C24.4619 25.7331 22.4903 25.7331 20.5551 25.7331C20.2514 25.6896 19.9425 25.7636 19.6915 25.9402C19.4404 26.1167 19.2661 26.3825 19.2042 26.6832C18.6153 28.2999 18.6153 30.0728 19.2042 31.6895C19.2348 31.8733 19.302 32.049 19.4019 32.2062C19.5018 32.3635 19.6323 32.4989 19.7856 32.6046C19.9389 32.7103 20.1119 32.7841 20.2943 32.8215C20.4767 32.8589 20.6647 32.8591 20.8472 32.8223C22.1617 32.8223 23.4761 32.8223 24.7906 32.8223H26.3606C26.3606 34.8686 26.3606 36.7323 26.3606 38.5959C26.3269 38.8737 26.3879 39.1547 26.5337 39.3935C26.6795 39.6322 26.9015 39.8147 27.1639 39.9114C27.9414 40.302 28.7939 40.5205 29.6633 40.552C30.5328 40.5836 31.3988 40.4274 32.2026 40.0941C32.5838 40.0145 32.9204 39.7927 33.1441 39.4737C33.3679 39.1547 33.462 38.7625 33.4075 38.3767C33.4075 36.5496 33.4075 34.7225 33.4075 32.8223H39.6511C39.8165 32.8171 39.9793 32.7789 40.1298 32.7099C40.2803 32.6409 40.4155 32.5424 40.5274 32.4203C41.0479 31.5408 41.3225 30.5374 41.3225 29.5152C41.3225 28.493 41.0479 27.4896 40.5274 26.6101C40.446 26.3275 40.2722 26.0803 40.034 25.9081C39.7957 25.7359 39.5066 25.6485 39.2129 25.6601C37.5334 25.7331 35.5617 25.6966 33.7361 25.6966L33.6265 25.7331ZM91.097 27.8891C91.0969 26.8019 90.7737 25.7393 90.1686 24.8364C89.5636 23.9335 88.7038 23.2311 87.6988 22.8184C86.6938 22.4058 85.5889 22.3016 84.5245 22.5191C83.4602 22.7366 82.4845 23.2659 81.7215 24.0398C80.9585 24.8137 80.4428 25.7972 80.2397 26.8653C80.0367 27.9333 80.1557 29.0376 80.5814 30.0378C81.0072 31.0381 81.7205 31.889 82.6307 32.4824C83.5409 33.0758 84.6069 33.3849 85.6931 33.3704C86.4185 33.3753 87.1376 33.2359 87.8088 32.9603C88.4799 32.6847 89.0896 32.2784 89.6025 31.7651C90.1154 31.2517 90.5214 30.6415 90.7967 29.9699C91.0721 29.2982 91.2114 28.5785 91.2065 27.8526L91.097 27.8891ZM77.5509 19.7768C77.5437 18.7031 77.2194 17.6554 76.6188 16.7657C76.0183 15.8759 75.1683 15.1837 74.1757 14.7762C73.1831 14.3686 72.0922 14.2639 71.0403 14.4751C69.9884 14.6864 69.0224 15.2042 68.2638 15.9634C67.5051 16.7227 66.9878 17.6895 66.7767 18.7422C66.5656 19.795 66.6702 20.8867 67.0775 21.8801C67.4847 22.8735 68.1763 23.7242 69.0654 24.3253C69.9544 24.9263 71.0012 25.2509 72.074 25.2581C72.7946 25.2629 73.509 25.1245 74.1757 24.8507C74.8423 24.577 75.448 24.1734 75.9576 23.6635C76.4671 23.1535 76.8704 22.5473 77.1439 21.8801C77.4174 21.2129 77.5557 20.498 77.5509 19.7768ZM77.5509 34.8321C77.5413 33.3847 76.96 31.9999 75.9339 30.9798C74.9078 29.9598 73.5203 29.3873 72.074 29.3873C70.6215 29.3873 69.2284 29.9648 68.2013 30.9928C67.1742 32.0207 66.5972 33.4149 66.5972 34.8686C66.5972 36.3224 67.1742 37.7165 68.2013 38.7445C69.2284 39.7724 70.6215 40.3499 72.074 40.3499C72.7994 40.3548 73.5185 40.2154 74.1897 39.9398C74.8607 39.6642 75.4705 39.258 75.9834 38.7446C76.4963 38.2313 76.9023 37.6211 77.1776 36.9494C77.453 36.2778 77.5923 35.5581 77.5874 34.8321H77.5509Z" fill="url(#paint0_linear_1503_325)"/>
<defs>
<linearGradient id="paint0_linear_1503_325" x1="22.5" y1="10.5" x2="86.5" y2="60" gradientUnits="userSpaceOnUse">
<stop stop-color="white" stop-opacity="0.66"/>
<stop offset="1" stop-color="#CECECE" stop-opacity="0"/>
</linearGradient>
</defs>
</svg>
