<svg width="50" height="50" viewBox="0 0 50 50" fill="none" xmlns="http://www.w3.org/2000/svg">
<path d="M34.4148 43.4473C34.7283 43.4449 35.0305 43.5631 35.2583 43.7771C35.4861 43.9911 35.6218 44.2845 35.6369 44.5957C35.652 44.9069 35.5454 45.2118 35.3394 45.4467C35.1334 45.6816 34.844 45.8281 34.5318 45.8557L34.4148 45.8613H30.3671C30.0536 45.8637 29.7513 45.7455 29.5235 45.5315C29.2957 45.3174 29.1601 45.0241 29.145 44.7129C29.1299 44.4017 29.2364 44.0968 29.4424 43.8619C29.6484 43.627 29.9378 43.4805 30.2501 43.4529L30.3671 43.4473H34.4148Z" fill="#B5C123"/>
<path d="M45.7479 0.000795994C46.4725 0.000729628 47.1697 0.276589 47.696 0.771652C48.2223 1.26672 48.5377 1.94336 48.5775 2.66247L48.5815 2.81698V31.7784C48.5839 32.09 48.465 32.3904 48.2497 32.6168C48.0343 32.8432 47.7391 32.978 47.426 32.993C47.1129 33.008 46.8061 32.9021 46.5697 32.6974C46.3334 32.4927 46.1859 32.205 46.1582 31.8947L46.1526 31.7784V2.81618C46.153 2.72168 46.1201 2.63002 46.0594 2.55723C45.9988 2.48444 45.9143 2.43515 45.8208 2.41797L45.7479 2.41159H2.84286C2.74778 2.41114 2.65555 2.44391 2.58231 2.50418C2.50907 2.56446 2.45947 2.64839 2.44218 2.74132L2.43577 2.81379V43.0415C2.43532 43.136 2.46829 43.2277 2.52894 43.3005C2.58958 43.3733 2.67404 43.4226 2.76754 43.4398L2.84047 43.4461H26.3204C26.6339 43.4437 26.9362 43.5619 27.164 43.7759C27.3918 43.99 27.5274 44.2833 27.5425 44.5945C27.5577 44.9057 27.4511 45.2106 27.2451 45.4455C27.0391 45.6804 26.7497 45.8269 26.4374 45.8545L26.3204 45.8601H2.84047C2.11581 45.8602 1.41866 45.5843 0.892364 45.0893C0.366063 44.5942 0.0506043 43.9175 0.0108467 43.1984L0.00683595 43.0439V2.81618C0.00676917 2.09599 0.284343 1.40313 0.782472 0.880071C1.2806 0.35701 1.96144 0.0434929 2.685 0.00397997L2.84047 0L45.7479 0.000795994Z" fill="#B5C123"/>
<path d="M47.3701 9.65629C47.6836 9.65386 47.9858 9.77203 48.2136 9.98608C48.4414 10.2001 48.5771 10.4935 48.5922 10.8047C48.6073 11.1159 48.5007 11.4208 48.2947 11.6557C48.0887 11.8905 47.7993 12.0371 47.4871 12.0647L47.3701 12.0703H1.22354C0.910055 12.0727 0.607784 11.9545 0.379988 11.7405C0.152192 11.5264 0.0165316 11.2331 0.00141372 10.9219C-0.0137042 10.6107 0.0928923 10.3057 0.29888 10.0709C0.504868 9.83602 0.794282 9.68946 1.10654 9.66186L1.22354 9.65629H47.3701Z" fill="#B5C123"/>
<path d="M40.891 16.0918C41.2045 16.0894 41.5067 16.2076 41.7345 16.4216C41.9623 16.6357 42.098 16.929 42.1131 17.2402C42.1282 17.5514 42.0216 17.8563 41.8156 18.0912C41.6097 18.3261 41.3202 18.4726 41.008 18.5002L40.891 18.5058H7.7001C7.38662 18.5083 7.08435 18.3901 6.85655 18.176C6.62875 17.962 6.49309 17.6687 6.47798 17.3575C6.46286 17.0463 6.56945 16.7413 6.77544 16.5064C6.98143 16.2716 7.27084 16.125 7.5831 16.0974L7.7001 16.0918H40.891Z" fill="#B5C123"/>
<path d="M16.6049 22.5293C16.9183 22.5269 17.2206 22.6451 17.4484 22.8591C17.6762 23.0732 17.8119 23.3665 17.827 23.6777C17.8421 23.9889 17.7355 24.2939 17.5295 24.5287C17.3235 24.7636 17.0341 24.9101 16.7218 24.9377L16.6049 24.9433H7.7001C7.38662 24.9458 7.08435 24.8276 6.85655 24.6135C6.62875 24.3995 6.49309 24.1062 6.47798 23.795C6.46286 23.4838 6.56945 23.1788 6.77544 22.9439C6.98143 22.7091 7.27084 22.5625 7.5831 22.5349L7.7001 22.5293H16.6049Z" fill="#B5C123"/>
<path d="M16.6049 35.4004C16.9183 35.398 17.2206 35.5162 17.4484 35.7302C17.6762 35.9443 17.8119 36.2376 17.827 36.5488C17.8421 36.86 17.7355 37.165 17.5295 37.3998C17.3235 37.6347 17.0341 37.7812 16.7218 37.8088L16.6049 37.8144H7.7001C7.38662 37.8168 7.08435 37.6987 6.85655 37.4846C6.62875 37.2706 6.49309 36.9772 6.47798 36.666C6.46286 36.3548 6.56945 36.0499 6.77544 35.815C6.98143 35.5802 7.27084 35.4336 7.5831 35.406L7.7001 35.4004H16.6049Z" fill="#B5C123"/>
<path d="M33.8084 23.5015C32.3209 24.3551 31.2355 25.761 30.791 27.4099C30.3464 29.0589 30.5792 30.8157 31.438 32.2941C31.7692 32.9671 32.3085 33.517 32.9768 33.8634C33.6452 34.2097 34.4075 34.3344 35.1523 34.2191C36.0263 34.0765 36.8676 33.7798 37.6365 33.343L38.0757 33.1113C38.1521 33.0704 38.2298 33.0279 38.3089 32.9838L38.8065 32.7043L40.0462 31.9931C40.1782 31.9161 40.3067 31.8402 40.4317 31.7653L40.7947 31.5407L41.1345 31.3177L41.4551 31.0971C43.5386 29.5918 44.001 28.1575 42.6571 25.851C41.7982 24.3727 40.3836 23.2939 38.7245 22.8521C37.0654 22.4103 35.2976 22.6416 33.81 23.4952L33.8084 23.5015ZM35.0225 25.5922C35.4829 25.328 35.991 25.1565 36.5181 25.0876C37.0451 25.0186 37.5806 25.0535 38.0941 25.1903C38.6075 25.327 39.0889 25.5629 39.5106 25.8846C39.9323 26.2062 40.2861 26.6072 40.5519 27.0648L40.608 27.1627L40.7074 27.3475C41.1 28.1192 40.9927 28.5159 40.0022 29.1912L39.7618 29.3505L39.6271 29.4349L39.1752 29.7089L38.8306 29.9104L37.5981 30.6176L37.2022 30.8406L36.8352 31.0405L36.6621 31.1321L36.3343 31.2986C34.7084 32.095 34.0777 32.001 33.5464 31.0859C33.0098 30.1626 32.864 29.0652 33.1411 28.0351C33.4182 27.0049 34.0954 26.1262 35.0241 25.5922H35.0225Z" fill="#B5C123"/>
<path d="M46.7608 45.7981C45.2733 46.6514 43.5057 46.8825 41.8468 46.4407C40.1879 45.9989 38.7734 44.9204 37.9145 43.4423C37.4842 42.8083 37.274 42.0519 37.3158 41.2883C37.3576 40.5247 37.6491 39.7955 38.1461 39.2116C38.6856 38.5739 39.3296 38.0313 40.051 37.6068L40.4516 37.3575L40.8964 37.0915L41.39 36.804L42.3228 36.2688L42.7235 36.0434C42.8549 35.9717 42.9837 35.9027 43.1098 35.8363L43.4816 35.6476L43.6619 35.56L44.0129 35.4007C46.3641 34.3701 47.7937 34.703 49.1328 37.0071C49.558 37.739 49.834 38.5471 49.945 39.385C50.056 40.223 49.9999 41.0745 49.7797 41.8909C49.5596 42.7073 49.1799 43.4726 48.6621 44.1431C48.1444 44.8137 47.4989 45.3763 46.7624 45.7989L46.7608 45.7981ZM45.5467 43.7075C46.0071 43.4433 46.4106 43.0917 46.7342 42.6726C47.0578 42.2534 47.2952 41.7751 47.4328 41.2648C47.5704 40.7545 47.6055 40.2222 47.5361 39.6985C47.4667 39.1747 47.2942 38.6696 47.0284 38.2121L46.9194 38.0297L46.8145 37.8704L46.7103 37.7287C46.3096 37.2245 45.9089 37.1711 45.017 37.5694L44.7766 37.6849L44.5081 37.8218L44.2132 37.9811L43.5377 38.3602L42.4054 39.0109L42.0279 39.2339L41.6825 39.4442L41.3684 39.6425L41.0855 39.8312C39.6992 40.7782 39.5092 41.3548 40.0221 42.2373C40.2879 42.6948 40.6417 43.0958 41.0634 43.4174C41.4851 43.7391 41.9665 43.975 42.4799 44.1117C42.9934 44.2485 43.5289 44.2834 44.0559 44.2144C44.583 44.1455 45.0912 43.974 45.5515 43.7099L45.5467 43.7075Z" fill="#B5C123"/>
<path d="M34.9135 23.7982C35.0719 24.0668 35.1198 24.3858 35.047 24.6887C34.9742 24.9915 34.7865 25.2547 34.523 25.4231C34.2596 25.5916 33.9408 25.6523 33.6333 25.5926C33.3258 25.5329 33.0535 25.3574 32.8732 25.1027L32.8099 25.0048L31.1911 22.2172C31.0327 21.9486 30.9849 21.6296 31.0576 21.3267C31.1304 21.0239 31.3181 20.7607 31.5816 20.5923C31.8451 20.4238 32.1639 20.3631 32.4713 20.4228C32.7788 20.4825 33.0511 20.658 33.2314 20.9127L33.2947 21.0106L34.9135 23.7982Z" fill="#B5C123"/>
<path d="M49.0814 48.1829C49.2399 48.4515 49.2877 48.7706 49.2149 49.0735C49.1422 49.3763 48.9544 49.6394 48.691 49.8079C48.4275 49.9764 48.1087 50.0371 47.8012 49.9774C47.4937 49.9177 47.2214 49.7421 47.0412 49.4875L46.9778 49.3895L45.3591 46.602C45.2007 46.3334 45.1528 46.0143 45.2256 45.7115C45.2984 45.4087 45.4861 45.1455 45.7495 44.977C46.013 44.8086 46.3318 44.7478 46.6393 44.8076C46.9467 44.8673 47.2191 45.0428 47.3994 45.2975L47.4627 45.3954L49.0814 48.1829Z" fill="#B5C123"/>
<path d="M37.737 37.5063C37.5786 37.2377 37.5308 36.9186 37.6035 36.6158C37.6763 36.3129 37.864 36.0498 38.1275 35.8813C38.391 35.7129 38.7098 35.6521 39.0173 35.7119C39.3247 35.7716 39.5971 35.9471 39.7773 36.2018L39.8406 36.2997L41.0547 38.3904C41.2132 38.659 41.261 38.978 41.1882 39.2809C41.1155 39.5837 40.9277 39.8469 40.6642 40.0153C40.4008 40.1838 40.082 40.2445 39.7745 40.1848C39.467 40.1251 39.1947 39.9496 39.0144 39.6949L38.9511 39.5969L37.737 37.5063Z" fill="#B5C123"/>
<path d="M41.9421 35.0922C41.7837 34.8236 41.7358 34.5046 41.8086 34.2017C41.8814 33.8989 42.0691 33.6357 42.3326 33.4673C42.596 33.2988 42.9148 33.2381 43.2223 33.2978C43.5298 33.3575 43.8021 33.533 43.9824 33.7877L44.0457 33.8857L45.2598 35.9763C45.4182 36.2449 45.4661 36.564 45.3933 36.8668C45.3205 37.1697 45.1328 37.4328 44.8693 37.6013C44.6058 37.7697 44.287 37.8305 43.9796 37.7707C43.6721 37.711 43.3998 37.5355 43.2195 37.2809L43.1562 37.1829L41.9421 35.0922Z" fill="#B5C123"/>
<path d="M24.7001 22.5293C25.0136 22.5269 25.3159 22.6451 25.5437 22.8591C25.7715 23.0732 25.9071 23.3665 25.9222 23.6777C25.9374 23.9889 25.8308 24.2939 25.6248 24.5287C25.4188 24.7636 25.1294 24.9101 24.8171 24.9377L24.7001 24.9433H21.4618C21.1483 24.9458 20.846 24.8276 20.6182 24.6135C20.3904 24.3995 20.2548 24.1062 20.2397 23.795C20.2246 23.4838 20.3312 23.1788 20.5371 22.9439C20.7431 22.7091 21.0325 22.5625 21.3448 22.5349L21.4618 22.5293H24.7001Z" fill="#B5C123"/>
<path d="M10.9384 28.9649C11.2519 28.9625 11.5542 29.0806 11.782 29.2947C12.0098 29.5087 12.1454 29.8021 12.1605 30.1133C12.1757 30.4245 12.0691 30.7294 11.8631 30.9643C11.6571 31.1991 11.3677 31.3457 11.0554 31.3733L10.9384 31.3789H7.7001C7.38662 31.3813 7.08435 31.2631 6.85655 31.0491C6.62875 30.835 6.49309 30.5417 6.47798 30.2305C6.46286 29.9193 6.56945 29.6143 6.77544 29.3795C6.98143 29.1446 7.27084 28.998 7.5831 28.9704L7.7001 28.9649H10.9384Z" fill="#B5C123"/>
<path d="M19.0341 28.9649C19.3476 28.9625 19.6499 29.0806 19.8777 29.2947C20.1054 29.5087 20.2411 29.8021 20.2562 30.1133C20.2713 30.4245 20.1648 30.7294 19.9588 30.9643C19.7528 31.1991 19.4634 31.3457 19.1511 31.3733L19.0341 31.3789H15.7958C15.4823 31.3813 15.18 31.2631 14.9522 31.0491C14.7244 30.835 14.5888 30.5417 14.5737 30.2305C14.5586 29.9193 14.6651 29.6143 14.8711 29.3795C15.0771 29.1446 15.3665 28.998 15.6788 28.9704L15.7958 28.9649H19.0341Z" fill="#B5C123"/>
<path fill-rule="evenodd" clip-rule="evenodd" d="M6.89122 6.03291C6.89122 6.19201 6.84374 6.34753 6.7548 6.47981C6.66587 6.61209 6.53947 6.71519 6.39157 6.77607C6.24368 6.83696 6.08094 6.85289 5.92393 6.82185C5.76693 6.79081 5.62271 6.7142 5.50952 6.6017C5.39633 6.48921 5.31924 6.34588 5.28801 6.18984C5.25678 6.0338 5.27281 5.87207 5.33407 5.72508C5.39533 5.5781 5.49906 5.45247 5.63216 5.36408C5.76527 5.2757 5.92175 5.22852 6.08183 5.22852C6.29649 5.22852 6.50237 5.31326 6.65416 5.46412C6.80594 5.61497 6.89122 5.81957 6.89122 6.03291Z" fill="#B5C123"/>
<path fill-rule="evenodd" clip-rule="evenodd" d="M10.1285 6.03291C10.1285 6.19201 10.081 6.34753 9.99211 6.47981C9.90317 6.61209 9.77677 6.71519 9.62888 6.77607C9.48099 6.83696 9.31824 6.85289 9.16124 6.82185C9.00423 6.79081 8.86002 6.7142 8.74682 6.6017C8.63363 6.48921 8.55655 6.34588 8.52532 6.18984C8.49409 6.0338 8.51012 5.87207 8.57138 5.72508C8.63264 5.5781 8.73637 5.45247 8.86947 5.36408C9.00257 5.2757 9.15906 5.22852 9.31914 5.22852C9.5338 5.22852 9.73967 5.31326 9.89146 5.46412C10.0432 5.61497 10.1285 5.81957 10.1285 6.03291Z" fill="#B5C123"/>
<path fill-rule="evenodd" clip-rule="evenodd" d="M13.3668 6.03291C13.3668 6.19201 13.3193 6.34753 13.2304 6.47981C13.1415 6.61209 13.0151 6.71519 12.8672 6.77607C12.7193 6.83696 12.5565 6.85289 12.3995 6.82185C12.2425 6.79081 12.0983 6.7142 11.9851 6.6017C11.8719 6.48921 11.7948 6.34588 11.7636 6.18984C11.7324 6.0338 11.7484 5.87207 11.8097 5.72508C11.8709 5.5781 11.9746 5.45247 12.1078 5.36408C12.2409 5.2757 12.3973 5.22852 12.5574 5.22852C12.7721 5.22852 12.978 5.31326 13.1297 5.46412C13.2815 5.61497 13.3668 5.81957 13.3668 6.03291Z" fill="#B5C123"/>
</svg>
