<svg width="120" height="76" viewBox="0 0 120 76" fill="none" xmlns="http://www.w3.org/2000/svg">
<path d="M9.57022 29.3077C9.34022 29.3077 9.28022 29.1885 9.40022 29.0196L10.6102 27.4698C10.6892 27.3782 10.7874 27.3049 10.898 27.2551C11.0086 27.2054 11.1288 27.1803 11.2502 27.1817H31.8902C32.1202 27.1817 32.1802 27.3506 32.0602 27.5294L31.0602 29.0196C30.9915 29.1128 30.9048 29.1914 30.8052 29.2511C30.7057 29.3108 30.5952 29.3503 30.4802 29.3673L9.57022 29.3077Z" fill="white"/>
<path d="M0.831938 34.5923C0.601938 34.5923 0.541938 34.4731 0.661938 34.3042L1.87194 32.7842C1.95091 32.6926 2.04916 32.6194 2.15974 32.5696C2.27032 32.5198 2.39054 32.4947 2.51194 32.4961H28.8819C28.9269 32.4907 28.9724 32.4965 29.0145 32.5131C29.0565 32.5298 29.0937 32.5566 29.1226 32.5912C29.1515 32.6259 29.1711 32.6671 29.1797 32.7113C29.1884 32.7554 29.1857 32.801 29.1719 32.8438L28.7119 34.2248C28.6766 34.3319 28.6062 34.4244 28.5121 34.4873C28.4179 34.5503 28.3052 34.5803 28.1919 34.5725L0.831938 34.5923Z" fill="white"/>
<path d="M14.8319 39.878C14.6019 39.878 14.5419 39.7091 14.6619 39.5303L15.4719 38.0897C15.5313 37.9995 15.6093 37.9228 15.7006 37.8646C15.7919 37.8063 15.8946 37.768 16.0019 37.752H27.6119C27.8419 37.752 27.9619 37.9208 27.9619 38.1493L27.8419 39.5303C27.8349 39.6334 27.7905 39.7304 27.717 39.8035C27.6434 39.8766 27.5457 39.9207 27.4419 39.9276L14.8319 39.878Z" fill="white"/>
<path d="M74.8691 28.2747C71.2291 29.1986 68.7391 29.8841 65.1491 30.808C64.2791 31.0365 64.2191 31.0961 63.4691 30.2318C62.7423 29.3066 61.8118 28.559 60.7491 28.0462C57.1091 26.2679 53.5791 26.7845 50.2791 28.9105C48.4037 30.0434 46.8676 31.6542 45.8301 33.5758C44.7926 35.4974 44.2917 37.6598 44.3791 39.8386C44.3554 42.0282 45.135 44.1516 46.5723 45.8117C48.0097 47.4718 50.0063 48.5552 52.1891 48.8593C54.0159 49.1212 55.8798 48.9084 57.599 48.2415C59.3183 47.5747 60.8343 46.4766 61.9991 45.0543C62.5191 44.4185 62.9991 43.733 63.5591 42.9283H52.4291C51.2191 42.9283 50.9291 42.1832 51.3291 41.1996C52.0791 39.4214 53.4691 36.431 54.2791 34.9408C54.4028 34.6624 54.6063 34.4263 54.8641 34.262C55.122 34.0977 55.4228 34.0125 55.7291 34.0169H76.7791C76.6591 35.5667 76.6591 37.1165 76.4291 38.6763C75.8311 42.7687 74.2005 46.6443 71.6891 49.9421C69.7607 52.6055 67.3018 54.8467 64.4652 56.5266C61.6285 58.2066 58.4746 59.2894 55.1991 59.7079C52.4819 60.1461 49.7037 60.036 47.0303 59.3839C44.3569 58.7319 41.8431 57.5514 39.6391 55.9129C37.5838 54.4168 35.8682 52.5079 34.6036 50.3103C33.3391 48.1127 32.5539 45.6754 32.2991 43.1568C31.9459 40.1658 32.1993 37.1348 33.0443 34.2427C33.8893 31.3505 35.3089 28.6558 37.2191 26.3176C41.1378 21.0656 46.937 17.5092 53.4191 16.3829C58.8591 15.3895 64.0591 16.0352 68.7491 19.1944C71.7463 21.175 74.0821 23.997 75.4591 27.3011C75.7891 27.8177 75.5591 28.0959 74.8691 28.2747Z" fill="white"/>
<path d="M93.9983 60.0445C88.8429 60.0765 83.8445 58.2839 79.8984 54.9878C76.5291 52.1686 74.3075 48.2277 73.6484 43.9007C73.1524 40.8428 73.3139 37.7152 74.1223 34.7238C74.9306 31.7324 76.3675 28.9449 78.3383 26.5449C82.5583 21.0312 87.6483 18.1601 94.5383 16.9481C100.428 15.895 105.998 16.4911 110.998 19.8688C113.221 21.2805 115.103 23.1602 116.513 25.3748C117.924 27.5894 118.826 30.0849 119.158 32.6845C119.716 36.224 119.402 39.8448 118.244 43.2375C117.086 46.6302 115.118 49.6938 112.508 52.1664C108.737 55.956 103.897 58.5195 98.6283 59.518C97.0783 59.816 95.5183 59.8756 93.9983 60.0445ZM107.768 36.8273C107.748 36.192 107.692 35.5585 107.598 34.9298C107.385 33.6301 106.901 32.3889 106.177 31.2856C105.454 30.1823 104.506 29.241 103.396 28.5221C102.285 27.8031 101.036 27.3221 99.7279 27.11C98.4197 26.8979 97.0814 26.9592 95.7984 27.29C93.295 27.7519 90.9904 28.9542 89.1865 30.7393C87.3825 32.5243 86.1632 34.8091 85.6884 37.2942C85.1631 39.4352 85.406 41.6912 86.3753 43.6733C87.3446 45.6555 88.9796 47.2396 90.9983 48.1528C92.4904 48.8222 94.1184 49.1392 95.7544 49.0789C97.3905 49.0186 98.9903 48.5826 100.428 47.805C102.549 46.834 104.357 45.2993 105.654 43.3707C106.952 41.4421 107.687 39.1947 107.778 36.8769L107.768 36.8273Z" fill="white"/>
</svg>
