<svg width="123" height="45" viewBox="0 0 123 45" fill="none" xmlns="http://www.w3.org/2000/svg">
<path fill-rule="evenodd" clip-rule="evenodd" d="M57.0898 0.0212874C54.6994 0.300282 53.0158 0.64664 51.0817 1.25725C45.7805 2.93084 41.3265 6.10069 37.8118 10.701C35.0662 14.2947 33.5152 17.8087 32.8772 21.8812C32.6445 23.3661 32.644 26.5955 32.8763 28.1168C33.5745 32.6896 35.4478 36.3448 38.5895 39.2646C42.3666 42.7749 46.9181 44.654 52.2312 44.8967C57.2998 45.1282 62.6917 43.6642 66.9909 40.8893C70.314 38.7445 73.6576 35.1542 75.6103 31.6339C75.8749 31.1569 76.1153 30.7657 76.1446 30.7644C76.1738 30.7632 76.2956 31.0705 76.4151 31.4471C77.9172 36.1802 81.6677 40.3397 86.5783 42.7185C89.3754 44.0735 92.4542 44.8347 95.7664 44.9904C97.1455 45.0552 100.229 44.7818 101.867 44.4496C106.075 43.5958 110.336 41.6332 113.662 39.0164C114.817 38.1076 116.951 35.995 117.897 34.8247C120.768 31.2729 122.389 27.507 122.899 23.2039C123.035 22.0602 123.033 19.0004 122.896 17.7714C122.401 13.3248 120.682 9.65335 117.708 6.68957C114.513 3.50537 110.661 1.50724 106.301 0.772485C105.02 0.556413 102.784 0.41753 101.635 0.48272C96.9951 0.745558 93.008 1.69563 89.5608 3.35987C86.8827 4.6528 84.9696 6.02614 82.8261 8.19451C80.172 10.8794 78.0125 14.1506 76.7848 17.3463L76.3673 18.4328L66.4117 18.48C55.2151 18.5331 56.1931 18.4619 55.6774 19.2618C55.1488 20.0817 52.555 25.6225 52.4276 26.2036C52.3216 26.6872 52.452 27.0685 52.7936 27.273C53.0846 27.4472 53.3474 27.4548 59.1824 27.4551C62.5294 27.4552 65.2677 27.4822 65.2677 27.5148C65.2677 27.5475 64.8889 28.0842 64.4259 28.7077C62.183 31.7275 59.3612 33.3962 56.0203 33.6785C52.9234 33.9402 50.2295 33.0619 48.2349 31.1401C46.5176 29.4854 45.6148 27.6191 45.34 25.1547C45.1471 23.4258 45.5224 20.8823 46.2252 19.1542C47.4174 16.2233 49.883 13.7361 53.0781 12.2416C56.2367 10.764 59.3276 10.7805 62.3814 12.2912C63.3402 12.7655 63.9931 13.2727 64.9814 14.3114C65.6954 15.0618 65.8427 15.1733 66.1199 15.1733C66.6063 15.1733 77.1132 12.4458 77.3902 12.2476C77.5386 12.1414 77.6218 11.9982 77.6074 11.8739C77.5691 11.5439 76.4547 9.43076 75.8098 8.46529C72.896 4.10294 68.3196 1.18063 62.8625 0.197678C62.1997 0.0782579 61.3271 0.0260114 59.6875 0.0074936C58.444 -0.00648919 57.275 -0.00034811 57.0898 0.0212874ZM102.801 11.3439C106.876 12.0445 109.979 15.0193 110.837 19.0469C111.09 20.2298 111.067 22.1969 110.786 23.4833C109.957 27.2881 107.723 30.1756 103.993 32.2656C100.638 34.1452 96.8556 34.372 93.5863 32.8897C90.5991 31.5354 88.4928 28.8129 87.97 25.6305C87.7862 24.5118 87.8981 22.4253 88.199 21.3616C89.3025 17.4595 91.164 14.948 94.3232 13.0989C95.6565 12.3185 97.9207 11.5332 99.4835 11.3091C100.395 11.1784 101.933 11.1946 102.801 11.3439ZM10.6589 11.4862C10.4175 11.582 9.15784 13.1397 9.14081 13.3633C9.12984 13.5082 9.95571 13.5217 20.1371 13.5439C30.515 13.5666 31.156 13.5584 31.3345 13.4022C31.65 13.1262 32.571 11.6629 32.5168 11.5239C32.4741 11.4148 30.7415 11.3951 21.6634 11.4001C15.722 11.4034 10.7699 11.4421 10.6589 11.4862ZM1.45428 16.992C1.19143 17.1872 -0.0490108 18.7975 0.00149966 18.8778C0.0550888 18.963 20.7265 18.9551 25.6772 18.8681L28.9483 18.8107L29.2603 17.9266C29.4319 17.4404 29.5484 17.0045 29.5192 16.9582C29.4884 16.9094 23.6027 16.8739 15.5397 16.8739C4.54744 16.8739 1.57973 16.8987 1.45428 16.992ZM15.5576 22.4404C15.3164 22.661 14.4289 24.2356 14.5041 24.3095C14.5334 24.3382 17.5575 24.3838 21.2244 24.4107C27.3395 24.4556 27.9022 24.4467 28.0231 24.3037C28.1125 24.1978 28.1586 23.8527 28.1667 23.2272L28.1786 22.3064L21.9679 22.2821C15.9437 22.2585 15.7511 22.2633 15.5576 22.4404Z" fill="#606060"/>
</svg>
