<svg width="51" height="39" viewBox="0 0 51 39" fill="none" xmlns="http://www.w3.org/2000/svg">
<path d="M33.9121 10.7629L38.345 6.54546L38.6402 4.76928C36.6747 3.11506 34.3858 1.84558 31.9044 1.03343C29.4229 0.221266 26.7976 -0.117655 24.1784 0.0360368C21.5592 0.189728 18.9975 0.833018 16.6397 1.92913C14.282 3.02525 12.1744 4.5527 10.4375 6.42417C8.40209 8.64843 6.92356 11.283 6.11328 14.1296L7.70129 13.9172L16.568 12.526L17.2525 11.8602C19.1492 9.86535 21.7742 8.63381 24.5923 8.41661C27.4104 8.19941 30.2095 9.0129 32.419 10.6912L33.9121 10.7629Z" fill="#EA4335"/>
<path d="M44.6643 14.0042C43.6439 10.4347 41.5504 7.22627 38.6408 4.77246L32.4188 10.692C33.7156 11.7001 34.7548 12.9752 35.4581 14.4211C36.1614 15.867 36.5104 17.446 36.4787 19.0389V20.0898C37.2018 20.0898 37.9179 20.2253 38.586 20.4886C39.2541 20.7519 39.8612 21.1378 40.3725 21.6243C40.8839 22.1107 41.2895 22.6883 41.5662 23.3239C41.843 23.9595 41.9854 24.6408 41.9854 25.3288C41.9854 26.0168 41.843 26.698 41.5662 27.3337C41.2895 27.9693 40.8839 28.5468 40.3725 29.0333C39.8612 29.5198 39.2541 29.9057 38.586 30.169C37.9179 30.4323 37.2018 30.5678 36.4787 30.5678H25.3883L24.3008 31.6887V38.0079L25.39 38.9994H36.4804C39.57 39.0313 42.588 38.1145 45.0865 36.3851C47.5849 34.6557 49.4306 32.2059 50.3495 29.3993C51.2684 26.5928 51.2116 23.5792 50.1874 20.8058C49.1633 18.0324 47.2264 15.6472 44.6643 14.0042Z" fill="#4285F4"/>
<path d="M14.3108 38.9983H25.3858V30.5626H14.3108C13.5268 30.5624 12.7522 30.4008 12.04 30.0889L10.4691 30.5472L6.00454 34.7646L5.61523 36.2005C8.11456 38.0119 11.1689 38.9943 14.3108 38.9974" fill="#34A853"/>
<path d="M14.3127 11.6348C11.3128 11.6529 8.39367 12.5617 5.96284 14.2343C3.53202 15.9069 1.71077 18.2599 0.753311 20.9647C-0.204145 23.6696 -0.250028 26.5913 0.622068 29.3222C1.49416 32.0531 3.24072 34.4567 5.61793 36.1977L12.0419 30.0926C11.2256 29.7416 10.511 29.2075 9.95932 28.536C9.4077 27.8645 9.03552 27.0758 8.87473 26.2374C8.71394 25.399 8.76934 24.536 9.03617 23.7225C9.30299 22.9089 9.77328 22.1691 10.4067 21.5665C11.0401 20.9639 11.8177 20.5164 12.6728 20.2626C13.528 20.0087 14.435 19.956 15.3163 20.109C16.1975 20.262 17.0266 20.616 17.7324 21.1409C18.4381 21.6657 18.9996 22.3455 19.3685 23.1222L25.7932 17.0105C24.4449 15.3334 22.707 13.9757 20.7155 13.0437C18.724 12.1117 16.5329 11.6306 14.3135 11.638" fill="#FBBC05"/>
</svg>
