<svg width="131" height="43" viewBox="0 0 131 43" fill="none" xmlns="http://www.w3.org/2000/svg">
<path d="M32.1941 15.1862H16.9011V19.7262H27.7443C27.209 26.0931 21.916 28.8084 16.92 28.8084C13.7068 28.8066 10.626 27.5273 8.35523 25.252C6.08449 22.9768 4.80983 19.8919 4.81168 16.676C4.81352 13.4601 6.09171 10.3767 8.36507 8.10404C10.6384 5.83138 13.7207 4.55567 16.9339 4.55751C19.98 4.55059 22.91 5.7263 25.1077 7.83734L28.2855 4.54556C26.7592 3.06796 24.9568 1.90614 22.9813 1.12658C21.0058 0.347023 18.8962 -0.0349571 16.773 0.00251231C14.5653 -0.0116187 12.3767 0.413386 10.3345 1.25288C8.29222 2.09238 6.43698 3.32962 4.8765 4.89273C3.31602 6.45585 2.08139 8.31369 1.24433 10.3584C0.407267 12.403 -0.0155478 14.5938 0.00043687 16.8034C0.0164216 19.013 0.470887 21.1973 1.33744 23.2297C2.204 25.262 3.46538 27.1018 5.04832 28.6421C6.63125 30.1824 8.50418 31.3926 10.5584 32.2025C12.6125 33.0123 14.807 33.4055 17.0143 33.3594C25.9359 33.3594 32.4672 27.242 32.4672 18.1966C32.487 17.1856 32.3941 16.1756 32.1902 15.1852L32.1941 15.1862Z" fill="#386DB4"/>
<path d="M44.7163 11.8988C42.6008 11.906 40.5348 12.5401 38.7789 13.7209C37.0229 14.9018 35.6556 16.5765 34.8494 18.534C34.0432 20.4915 33.8342 22.6441 34.2486 24.7204C34.6631 26.7967 35.6826 28.7036 37.1785 30.2007C38.6744 31.6979 40.5797 32.7182 42.6542 33.1331C44.7287 33.5479 46.8795 33.3387 48.8354 32.5318C50.7913 31.7249 52.4646 30.3565 53.6445 28.599C54.8243 26.8416 55.4578 24.7739 55.4651 22.6566C55.4872 21.2378 55.2243 19.8289 54.6919 18.5137C54.1596 17.1985 53.3687 16.0038 52.3661 15.0003C51.3636 13.9969 50.1698 13.2054 48.8557 12.6726C47.5416 12.1398 46.1339 11.8766 44.7163 11.8988ZM44.7788 16.1099C46.0831 16.0322 47.3806 16.3486 48.5029 17.0181C49.6252 17.6876 50.5206 18.6793 51.0728 19.8644C51.625 21.0495 51.8086 22.3734 51.5996 23.6642C51.3907 24.9551 50.799 26.1533 49.9012 27.1033C49.0034 28.0534 47.8411 28.7114 46.565 28.9921C45.2889 29.2728 43.9579 29.1631 42.7449 28.6773C41.5318 28.1915 40.4927 27.352 39.7622 26.2678C39.0318 25.1836 38.6439 23.9046 38.6487 22.597C38.6047 21.7631 38.7305 20.9289 39.0185 20.1452C39.3064 19.3615 39.7506 18.6445 40.3239 18.0378C40.8972 17.4311 41.5877 16.9473 42.3535 16.6159C43.1194 16.2845 43.9445 16.1123 44.7788 16.1099Z" fill="#D01B28"/>
<path d="M68.1372 11.8988C66.0217 11.906 63.9557 12.5401 62.1997 13.7209C60.4438 14.9018 59.0765 16.5765 58.2703 18.534C57.4641 20.4915 57.255 22.6441 57.6695 24.7204C58.084 26.7967 59.1035 28.7036 60.5994 30.2007C62.0953 31.6979 64.0006 32.7182 66.0751 33.1331C68.1496 33.5479 70.3004 33.3387 72.2563 32.5318C74.2122 31.7249 75.8855 30.3565 77.0654 28.599C78.2452 26.8416 78.8787 24.7739 78.886 22.6566C78.9081 21.2378 78.6452 19.8289 78.1129 18.5137C77.5805 17.1985 76.7896 16.0038 75.787 15.0003C74.7845 13.9969 73.5907 13.2054 72.2766 12.6726C70.9625 12.1398 69.5549 11.8766 68.1372 11.8988ZM68.1997 16.1099C69.504 16.0322 70.8015 16.3486 71.9238 17.0181C73.0461 17.6876 73.9415 18.6793 74.4937 19.8644C75.0459 21.0495 75.2294 22.3734 75.0205 23.6642C74.8116 24.9551 74.2199 26.1533 73.3221 27.1033C72.4243 28.0534 71.262 28.7114 69.9859 28.9921C68.7098 29.2728 67.3788 29.1631 66.1658 28.6773C64.9527 28.1915 63.9136 27.352 63.1831 26.2678C62.4527 25.1836 62.0648 23.9046 62.0696 22.597C62.0256 21.7631 62.1514 20.9289 62.4394 20.1452C62.7273 19.3615 63.1715 18.6445 63.7448 18.0378C64.3181 17.4311 65.0086 16.9473 65.7744 16.6159C66.5402 16.2845 67.3654 16.1123 68.1997 16.1099Z" fill="#F7B300"/>
<path d="M91.1096 11.9095C85.3499 11.9095 80.8255 16.9575 80.8255 22.6227C80.7824 25.3898 81.8247 28.0635 83.7288 30.0702C85.6329 32.077 88.247 33.2569 91.0103 33.3567C92.1255 33.4173 93.2391 33.2129 94.2602 32.7601C95.2813 32.3074 96.1808 31.6191 96.8852 30.7517V32.8657C96.8852 36.5639 94.6419 38.7793 91.2546 38.7793C90.0636 38.7667 88.9039 38.396 87.926 37.7154C86.9482 37.0348 86.1973 36.0758 85.7709 34.9628L81.6537 36.6852C82.4493 38.5775 83.7909 40.1893 85.5069 41.3141C87.2229 42.4389 89.2352 43.0257 91.2863 42.9994C97.0113 42.9994 101.375 39.3905 101.375 31.8211V12.5546H96.8832V14.3704C96.152 13.5712 95.2581 12.9381 94.2618 12.5138C93.2655 12.0895 92.19 11.8838 91.1076 11.9105L91.1096 11.9095ZM91.5267 16.1127C94.3499 16.1127 97.2486 18.5258 97.2486 22.6455C97.2486 26.8338 94.3559 29.1416 91.4641 29.1416C88.3946 29.1416 85.5385 26.6469 85.5385 22.6813C85.5385 18.5656 88.5048 16.1087 91.5277 16.1087L91.5267 16.1127Z" fill="#386DB4"/>
<path d="M121.346 11.8838C115.915 11.8838 111.354 16.2092 111.354 22.591C111.301 23.9981 111.535 25.4013 112.042 26.7151C112.548 28.0288 113.317 29.2254 114.301 30.232C115.284 31.2387 116.463 32.0342 117.764 32.57C119.065 33.1059 120.462 33.3709 121.869 33.3488C123.634 33.3528 125.373 32.9265 126.936 32.1067C128.5 31.287 129.84 30.0984 130.842 28.6438L127.139 26.1749C126.602 27.0863 125.833 27.8393 124.911 28.3576C123.99 28.8758 122.947 29.1408 121.89 29.1258C120.79 29.1714 119.702 28.8863 118.766 28.3073C117.829 27.7282 117.087 26.8816 116.636 25.8768L131 19.9134L130.254 18.1652C129.569 16.3456 128.353 14.774 126.765 13.654C125.177 12.534 123.289 11.9173 121.346 11.8838ZM121.534 16.0074C122.343 15.9728 123.146 16.1694 123.848 16.5742C124.55 16.979 125.122 17.5752 125.498 18.2934L115.906 22.3057C115.859 21.5214 115.968 20.7355 116.226 19.9934C116.484 19.2513 116.886 18.5676 117.41 17.9818C117.933 17.396 118.567 16.9196 119.275 16.58C119.983 16.2405 120.751 16.0445 121.535 16.0034L121.534 16.0074Z" fill="#D01B28"/>
<path d="M104.506 32.713H109.224V1.1123H104.506V32.713Z" fill="#4BAA3F"/>
</svg>
