<svg width="46" height="53" viewBox="0 0 46 53" fill="none" xmlns="http://www.w3.org/2000/svg">
<path fill-rule="evenodd" clip-rule="evenodd" d="M22.5957 0.160308C22.4223 0.311254 22.4144 0.469551 22.371 4.68642L22.3261 9.0562L21.9667 9.08229C21.2204 9.13654 19.868 9.45541 18.9948 9.78308C17.501 10.3437 15.9042 11.3496 15.7038 11.8563C15.5648 12.2079 15.7575 12.6894 16.0907 12.8232C16.3166 12.9139 16.4294 12.8791 16.9133 12.5692C19.1635 11.1277 20.7426 10.6228 23 10.6228C24.8959 10.6228 26.3152 10.989 27.9867 11.9092C30.7041 13.4052 32.8905 16.2762 33.8652 19.6281C34.1304 20.5403 34.4111 22.1114 34.4111 22.6839V22.9809H23H11.5889V22.6839C11.5889 22.1158 11.8687 20.5433 12.1292 19.6474C12.5858 18.0772 13.2008 16.7941 14.1639 15.4029C14.6959 14.6344 14.7754 14.229 14.4641 13.8703C14.1453 13.5029 13.7669 13.5967 13.315 14.155C12.3929 15.2948 11.3321 17.4457 10.8642 19.1245L10.655 19.8751H7.52502C4.11696 19.8751 4.00591 19.8915 3.47156 20.4758C3.03929 20.9487 2.87333 21.4413 2.87333 22.2521V22.9809H2.37403C1.54875 22.9809 1.09518 23.1661 0.620674 23.6965C0.347886 24.0014 0.160547 24.3198 0.0973812 24.5857C-0.0281409 25.1144 -0.0311959 28.601 0.0933379 29.1179C0.203046 29.5731 0.598931 30.1271 1.03767 30.4395L1.34586 30.659V34.1189C1.34586 37.4406 1.35305 37.5869 1.52557 37.7857C1.75262 38.0473 2.16153 38.0514 2.43657 37.7949L2.64871 37.5972L2.67575 34.1714L2.70271 30.7457H23.0046H43.3064V39.028V47.3104H42.2327H41.1591L41.1321 42.0563C41.1058 36.9604 41.0993 36.7859 40.9126 36.2618C40.3027 34.55 38.964 33.553 37.4278 33.6667C36.2095 33.7567 35.1111 34.6114 34.5292 35.9222L34.2763 36.4916L34.2314 41.8751L34.1865 47.2587L32.6815 47.287L31.1765 47.3154V42.2617C31.1765 38.0466 31.1535 37.1056 31.0381 36.591C30.7834 35.4554 30.0296 34.445 29.062 33.9422C28.6996 33.7537 28.4465 33.7088 27.7156 33.7032C26.8762 33.6968 26.7756 33.7188 26.2236 34.0318C25.5109 34.436 24.88 35.1761 24.5436 36.0031L24.3028 36.5951L24.2766 41.9528L24.2504 47.3104H22.7297H21.2092L21.1836 41.9528L21.1581 36.5951L20.9172 36.0031C19.4916 32.4984 15.0796 33.059 14.3853 36.8331C14.3188 37.1954 14.2844 39.0681 14.2844 42.3461V47.3104H12.8065H11.3285L11.3015 42.0563C11.2752 36.9604 11.2687 36.7859 11.082 36.2618C10.4721 34.55 9.13344 33.553 7.59717 33.6667C6.37888 33.7567 5.28054 34.6114 4.69857 35.9222L4.44573 36.4916L4.4008 41.8751L4.35588 47.2587L3.52826 47.2884L2.70064 47.3181L2.67467 43.8887L2.64871 40.4593L2.39658 40.2095C2.08776 39.9036 1.89081 39.8951 1.58262 40.1744L1.34586 40.3889V43.886V47.383L0.910894 47.6945C0.588688 47.9253 0.414107 48.1492 0.23701 48.5586C0.0254104 49.048 -0.0016348 49.23 7.2371e-05 50.1519C0.00285776 51.6265 0.329916 52.3442 1.21109 52.81C1.55647 52.9926 2.40359 53 23 53C43.5964 53 44.4435 52.9926 44.7889 52.81C45.6701 52.3442 45.9971 51.6265 45.9999 50.1519C46.0016 49.23 45.9746 49.048 45.763 48.5586C45.5859 48.1492 45.4113 47.9253 45.0891 47.6945L44.6541 47.383V39.0152V30.6474L44.908 30.4962C45.2896 30.2688 45.798 29.5686 45.9056 29.1224C46.0298 28.607 46.0291 25.117 45.9048 24.6007C45.6688 23.6219 44.7763 22.9809 43.6494 22.9809H43.1267V22.2521C43.1267 21.4413 42.9607 20.9487 42.5284 20.4758C41.9941 19.8915 41.8829 19.8751 38.4758 19.8751H35.3466L35.091 18.9692C34.2546 16.0056 32.2336 13.0749 29.7756 11.2616C28.2372 10.1265 25.9302 9.24462 24.0782 9.08353L23.7637 9.0562L23.7381 7.99502L23.7125 6.93384H27.5187H31.3248L31.5202 6.69427C31.8343 6.30904 31.7646 5.97039 31.1165 4.73104C30.7871 4.10106 30.5176 3.53155 30.5176 3.4656C30.5176 3.39965 30.7871 2.83013 31.1165 2.20015C31.7752 0.940404 31.845 0.587679 31.5076 0.222426C31.3 -0.00223353 31.2918 -0.00264765 27.0376 0.000665302C23.378 0.0034606 22.7499 0.0260301 22.5957 0.160308ZM29.8287 1.6148C29.8287 1.65031 29.6467 2.02467 29.4244 2.44676C29.202 2.86875 29.02 3.33463 29.02 3.48206C29.02 3.62938 29.202 4.09526 29.4244 4.51736C29.6467 4.93934 29.8287 5.30635 29.8287 5.33276C29.8287 5.35926 28.454 5.3809 26.7737 5.3809H23.7188V3.4656V1.5503H26.7737C28.454 1.5503 29.8287 1.57939 29.8287 1.6148ZM10.2983 21.9084C10.2668 22.1725 10.2411 22.5219 10.2411 22.6848V22.9809H7.23112H4.2211V22.3657C4.2211 21.3952 4.10672 21.428 7.48791 21.428H10.3554L10.2983 21.9084ZM41.5792 21.5892C41.7474 21.7249 41.7789 21.8472 41.7789 22.3657V22.9809H38.7689H35.7589V22.6848C35.7589 22.5219 35.7332 22.1725 35.7017 21.9084L35.6446 21.428H38.5121C40.9619 21.428 41.4086 21.4515 41.5792 21.5892ZM44.4336 24.7881C44.651 25.0386 44.6541 25.0678 44.6541 26.8633C44.6541 28.6588 44.651 28.688 44.4336 28.9386L44.2131 29.1927H23H1.78694L1.56645 28.9386C1.34901 28.688 1.34586 28.6588 1.34586 26.8633C1.34586 25.0678 1.34901 25.0386 1.56645 24.7881L1.78694 24.5339H23H44.2131L44.4336 24.7881ZM8.60422 35.358C9.02571 35.5605 9.48144 36.0603 9.73239 36.5951C9.92297 37.0015 9.92719 37.1062 9.95307 42.1598L9.97939 47.3104H7.86403H5.74857L5.75055 42.1598C5.75235 37.3801 5.76448 36.979 5.91803 36.5893C6.10932 36.1042 6.74062 35.4406 7.13767 35.3076C7.57444 35.1613 8.24275 35.1843 8.60422 35.358ZM18.4303 35.3176C18.8963 35.4785 19.4378 36.0293 19.6676 36.5763C19.8501 37.0108 19.8552 37.1622 19.8552 42.1667V47.3104H17.7437H15.6322V42.3575C15.6322 38.4594 15.6584 37.304 15.7555 36.9327C16.0997 35.6146 17.2604 34.9138 18.4303 35.3176ZM28.806 35.5667C29.0727 35.7567 29.3447 36.071 29.5119 36.3825L29.7838 36.8891L29.8094 42.0998L29.835 47.3104H27.7203H25.6057L25.6077 42.2116C25.6095 37.3032 25.6165 37.0954 25.7929 36.6469C26.0383 36.0233 26.2815 35.7365 26.8187 35.4378C27.4501 35.0868 28.2005 35.1354 28.806 35.5667ZM38.4348 35.358C38.8563 35.5605 39.312 36.0603 39.563 36.5951C39.7536 37.0015 39.7578 37.1062 39.7837 42.1598L39.81 47.3104H37.6946H35.5792L35.5811 42.1598C35.5829 37.3801 35.5951 36.979 35.7486 36.5893C35.9399 36.1042 36.5712 35.4406 36.9683 35.3076C37.405 35.1613 38.0733 35.1843 38.4348 35.358ZM44.4462 49.0884C44.6294 49.2868 44.6541 49.4105 44.6541 50.1285C44.6541 50.8556 44.6304 50.9707 44.4336 51.1974L44.2131 51.4516H23H1.78694L1.56645 51.1974C1.3703 50.9715 1.34586 50.8548 1.34586 50.143C1.34586 49.4637 1.37542 49.3064 1.5412 49.1029L1.73663 48.8634H22.9874H44.2382L44.4462 49.0884Z" fill="black"/>
</svg>
