<svg width="28" height="40" viewBox="0 0 28 40" fill="none" xmlns="http://www.w3.org/2000/svg">
<path fill-rule="evenodd" clip-rule="evenodd" d="M12.9337 0.0192311C11.8526 0.140797 11.2246 0.242819 10.5117 0.41262C5.62017 1.57809 1.64192 5.36407 0.417692 10.0189C-0.00192146 11.6143 -0.113582 13.4609 0.12004 14.9441C0.666229 18.4126 2.97649 23.4338 6.73843 29.3288C7.80666 31.0028 10.6353 35.0622 11.8046 36.5993L12.5777 37.6156L10.3247 37.6364L8.07176 37.6572V38.8286V40H14.0484H20.0251L20.0023 38.8469L19.9795 37.6938L17.7015 37.6547L15.4236 37.6156L15.9967 36.8729C16.8172 35.8097 18.6013 33.3196 19.7496 31.635C23.7562 25.7573 26.5152 20.4076 27.5577 16.4955C28.7862 11.8851 27.4228 7.20703 23.8776 3.86768C21.75 1.86367 19.2042 0.62925 16.23 0.159325C15.5204 0.0472187 13.4626 -0.040262 12.9337 0.0192311ZM15.3647 2.40474C17.9979 2.70971 20.3652 3.81592 22.2284 5.61213C24.4821 7.78468 25.6448 10.5995 25.5207 13.5825C25.4598 15.0478 25.0935 16.5423 24.3123 18.5135C22.8565 22.187 19.744 27.5576 16.2973 32.3437C14.3933 34.9876 14.0452 35.4609 14.005 35.4605C13.9824 35.4602 13.3463 34.6082 12.5918 33.5671C9.01787 28.6363 6.16999 23.9855 4.47349 20.309C2.53397 16.1058 2.0687 13.4021 2.80303 10.6009C4.18844 5.31607 9.66245 1.74445 15.3647 2.40474ZM13.181 4.58918C8.91437 4.95419 5.47291 8.24257 5.11205 12.2992C4.6458 17.5416 9.24803 21.9077 14.774 21.4654C19.0798 21.1207 22.5347 17.8431 22.898 13.7583C23.1213 11.2471 22.1883 8.82437 20.3126 7.04489C18.9052 5.70985 16.9275 4.78884 15.1149 4.62451C14.1288 4.53516 13.8685 4.53039 13.181 4.58918ZM15.6431 7.09703C17.7065 7.5901 19.4602 9.13911 20.1292 11.0598C21.3181 14.4721 19.2639 18.0642 15.6019 18.977C14.2142 19.3228 12.504 19.1551 11.1586 18.5413C6.97378 16.6317 6.2847 11.0942 9.8847 8.30363C11.525 7.03215 13.5744 6.60272 15.6431 7.09703Z" fill="#107042"/>
</svg>
