<svg width="52" height="50" viewBox="0 0 52 50" fill="none" xmlns="http://www.w3.org/2000/svg">
<path d="M49.4045 2.64481e-07H32.1056V5.17232H43.1458L29.7049 18.5679C29.5659 18.7069 29.4008 18.8171 29.219 18.8924C29.0372 18.9676 28.8422 19.0063 28.6454 19.0063C28.4485 19.0063 28.2536 18.9676 28.0718 18.8924C27.8899 18.8171 27.7248 18.7069 27.5858 18.5679L23.0707 14.068C21.7945 12.7969 20.0641 12.0829 18.2599 12.0829C16.4557 12.0829 14.7253 12.7969 13.4491 14.068L0 27.4812L3.66676 31.1356L17.1253 17.7225C17.4271 17.422 17.8362 17.2533 18.2628 17.2533C18.6894 17.2533 19.0986 17.422 19.4004 17.7225L23.9155 22.2223C25.1705 23.4692 26.8703 24.1694 28.6424 24.1694C30.4145 24.1694 32.1143 23.4692 33.3693 22.2223L46.8102 8.82673V19.825H52V2.58557C52 2.24593 51.9329 1.90962 51.8024 1.59584C51.672 1.28207 51.4808 0.996989 51.2397 0.756882C50.9987 0.516774 50.7126 0.326347 50.3977 0.196479C50.0828 0.0666102 49.7453 -0.000153349 49.4045 2.64481e-07Z" fill="#FF6900"/>
<path d="M2.69922 37.0656V43.9651C2.69906 44.7576 2.85557 45.5423 3.15978 46.2745C3.464 47.0067 3.90996 47.6719 4.47221 48.2323C5.03446 48.7926 5.70197 49.2371 6.43661 49.5403C7.17126 49.8435 7.95864 49.9995 8.75378 49.9993H43.3504C44.1456 49.9995 44.9329 49.8435 45.6676 49.5403C46.4022 49.2371 47.0697 48.7926 47.632 48.2323C48.1942 47.6719 48.6402 47.0067 48.9444 46.2745C49.2486 45.5423 49.4051 44.7576 49.405 43.9651V24.9961H44.2152V43.9605C44.2152 44.0737 44.1928 44.1857 44.1494 44.2903C44.1059 44.3948 44.0422 44.4898 43.9619 44.5699C43.8816 44.6499 43.7863 44.7134 43.6814 44.7567C43.5764 44.8 43.464 44.8223 43.3504 44.8223H35.5663V31.8956H30.3765V44.8258H21.7277V28.4459H16.5379V44.8235H8.75378C8.64022 44.8235 8.52776 44.8012 8.42284 44.7579C8.31793 44.7146 8.22259 44.6511 8.14229 44.5711C8.06199 44.491 7.99829 44.396 7.95483 44.2914C7.91137 44.1869 7.88902 44.0748 7.88902 43.9616V37.0621L2.69922 37.0656Z" fill="#FF6900"/>
</svg>
