<svg width="90" height="116" viewBox="0 0 90 116" fill="none" xmlns="http://www.w3.org/2000/svg">
<g filter="url(#filter0_d_834_699)">
<path d="M45 4L77.8369 19.8134L85.947 55.3459L63.2231 83.8407H26.7769L4.05303 55.3459L12.1631 19.8134L45 4Z" fill="white"/>
</g>
<path d="M7.25564 112V101.091H11.2507C12.0248 101.091 12.6658 101.219 13.1736 101.474C13.6814 101.727 14.0614 102.069 14.3135 102.502C14.5657 102.932 14.6917 103.417 14.6917 103.957C14.6917 104.411 14.6083 104.795 14.4414 105.107C14.2745 105.416 14.0507 105.665 13.7702 105.853C13.4932 106.038 13.1878 106.173 12.854 106.258V106.364C13.2162 106.382 13.5696 106.499 13.914 106.716C14.262 106.929 14.5497 107.233 14.7769 107.627C15.0042 108.021 15.1179 108.5 15.1179 109.065C15.1179 109.623 14.9865 110.123 14.7237 110.567C14.4644 111.007 14.0632 111.357 13.5198 111.616C12.9765 111.872 12.2823 112 11.4371 112H7.25564ZM8.90159 110.588H11.2773C12.0657 110.588 12.6303 110.436 12.9712 110.13C13.3121 109.825 13.4826 109.443 13.4826 108.985C13.4826 108.641 13.3956 108.325 13.2215 108.037C13.0475 107.749 12.799 107.52 12.4758 107.35C12.1562 107.179 11.7762 107.094 11.3359 107.094H8.90159V110.588ZM8.90159 105.81H11.1068C11.4762 105.81 11.8082 105.739 12.1029 105.597C12.4012 105.455 12.6374 105.256 12.8114 105.001C12.9889 104.741 13.0777 104.436 13.0777 104.085C13.0777 103.634 12.9197 103.255 12.6036 102.95C12.2876 102.645 11.8029 102.492 11.1495 102.492H8.90159V105.81ZM18.5349 101.091V112H16.9422V101.091H18.5349ZM24.124 112.165C23.3569 112.165 22.6875 111.989 22.1158 111.638C21.5441 111.286 21.1002 110.794 20.7841 110.162C20.4681 109.53 20.3101 108.792 20.3101 107.946C20.3101 107.098 20.4681 106.355 20.7841 105.72C21.1002 105.084 21.5441 104.591 22.1158 104.239C22.6875 103.887 23.3569 103.712 24.124 103.712C24.891 103.712 25.5604 103.887 26.1321 104.239C26.7039 104.591 27.1478 105.084 27.4638 105.72C27.7799 106.355 27.9379 107.098 27.9379 107.946C27.9379 108.792 27.7799 109.53 27.4638 110.162C27.1478 110.794 26.7039 111.286 26.1321 111.638C25.5604 111.989 24.891 112.165 24.124 112.165ZM24.1293 110.828C24.6265 110.828 25.0384 110.697 25.3651 110.434C25.6918 110.171 25.9333 109.821 26.0895 109.385C26.2493 108.948 26.3292 108.467 26.3292 107.941C26.3292 107.419 26.2493 106.94 26.0895 106.503C25.9333 106.062 25.6918 105.709 25.3651 105.443C25.0384 105.176 24.6265 105.043 24.1293 105.043C23.6286 105.043 23.2131 105.176 22.8829 105.443C22.5562 105.709 22.3129 106.062 22.1531 106.503C21.9968 106.94 21.9187 107.419 21.9187 107.941C21.9187 108.467 21.9968 108.948 22.1531 109.385C22.3129 109.821 22.5562 110.171 22.8829 110.434C23.2131 110.697 23.6286 110.828 24.1293 110.828ZM33.1621 112.165C32.3702 112.165 31.6883 111.986 31.1166 111.627C30.5484 111.265 30.1116 110.766 29.8062 110.13C29.5008 109.495 29.3481 108.767 29.3481 107.946C29.3481 107.115 29.5044 106.382 29.8169 105.746C30.1294 105.107 30.5697 104.608 31.1379 104.25C31.7061 103.891 32.3755 103.712 33.1461 103.712C33.7675 103.712 34.3215 103.827 34.808 104.058C35.2945 104.285 35.6869 104.605 35.9852 105.017C36.2871 105.429 36.4664 105.91 36.5232 106.46H34.9731C34.8879 106.077 34.6926 105.746 34.3872 105.469C34.0854 105.192 33.6805 105.054 33.1727 105.054C32.7288 105.054 32.34 105.171 32.0062 105.406C31.6759 105.636 31.4185 105.967 31.2338 106.396C31.0491 106.822 30.9568 107.327 30.9568 107.909C30.9568 108.506 31.0474 109.021 31.2285 109.454C31.4096 109.887 31.6653 110.223 31.9955 110.461C32.3293 110.699 32.7217 110.817 33.1727 110.817C33.4746 110.817 33.748 110.762 33.993 110.652C34.2416 110.539 34.4494 110.377 34.6163 110.168C34.7867 109.958 34.9057 109.706 34.9731 109.411H36.5232C36.4664 109.94 36.2942 110.413 36.0065 110.828C35.7189 111.244 35.3336 111.57 34.8506 111.808C34.3712 112.046 33.8084 112.165 33.1621 112.165ZM39.6913 109.225L39.6806 107.281H39.9576L43.2176 103.818H45.1245L41.4065 107.76H41.1561L39.6913 109.225ZM38.2264 112V101.091H39.8191V112H38.2264ZM43.3933 112L40.4636 108.112L41.5609 106.998L45.3482 112H43.3933ZM49.6855 112.165C48.8936 112.165 48.2118 111.986 47.64 111.627C47.0719 111.265 46.6351 110.766 46.3297 110.13C46.0243 109.495 45.8716 108.767 45.8716 107.946C45.8716 107.115 46.0278 106.382 46.3403 105.746C46.6528 105.107 47.0932 104.608 47.6614 104.25C48.2295 103.891 48.8989 103.712 49.6695 103.712C50.291 103.712 50.8449 103.827 51.3315 104.058C51.818 104.285 52.2104 104.605 52.5087 105.017C52.8105 105.429 52.9898 105.91 53.0467 106.46H51.4966C51.4114 106.077 51.216 105.746 50.9106 105.469C50.6088 105.192 50.204 105.054 49.6962 105.054C49.2523 105.054 48.8634 105.171 48.5296 105.406C48.1994 105.636 47.9419 105.967 47.7572 106.396C47.5726 106.822 47.4802 107.327 47.4802 107.909C47.4802 108.506 47.5708 109.021 47.7519 109.454C47.933 109.887 48.1887 110.223 48.519 110.461C48.8528 110.699 49.2452 110.817 49.6962 110.817C49.998 110.817 50.2714 110.762 50.5165 110.652C50.765 110.539 50.9728 110.377 51.1397 110.168C51.3101 109.958 51.4291 109.706 51.4966 109.411H53.0467C52.9898 109.94 52.8176 110.413 52.53 110.828C52.2423 111.244 51.857 111.57 51.3741 111.808C50.8947 112.046 50.3318 112.165 49.6855 112.165ZM56.3426 107.142V112H54.7499V101.091H56.3212V105.15H56.4225C56.6142 104.71 56.9072 104.36 57.3014 104.1C57.6955 103.841 58.2104 103.712 58.8461 103.712C59.4072 103.712 59.8972 103.827 60.3163 104.058C60.7389 104.289 61.0656 104.633 61.2964 105.091C61.5308 105.546 61.6479 106.114 61.6479 106.796V112H60.0553V106.988C60.0553 106.387 59.9008 105.922 59.5918 105.592C59.2829 105.258 58.8532 105.091 58.3028 105.091C57.9264 105.091 57.589 105.171 57.2907 105.331C56.996 105.491 56.7634 105.725 56.5929 106.034C56.426 106.339 56.3426 106.709 56.3426 107.142ZM66.1543 112.181C65.6359 112.181 65.1671 112.085 64.7481 111.893C64.3291 111.698 63.997 111.416 63.752 111.047C63.5105 110.677 63.3898 110.224 63.3898 109.688C63.3898 109.227 63.4786 108.847 63.6561 108.548C63.8337 108.25 64.0734 108.014 64.3752 107.84C64.6771 107.666 65.0144 107.534 65.3873 107.446C65.7602 107.357 66.1401 107.289 66.5272 107.243C67.0173 107.186 67.415 107.14 67.7204 107.105C68.0258 107.066 68.2477 107.004 68.3862 106.918C68.5247 106.833 68.594 106.695 68.594 106.503V106.466C68.594 106 68.4626 105.64 68.1998 105.384C67.9406 105.129 67.5535 105.001 67.0386 105.001C66.5024 105.001 66.0798 105.12 65.7708 105.358C65.4654 105.592 65.2541 105.853 65.1369 106.141L63.6401 105.8C63.8177 105.303 64.0769 104.901 64.4178 104.596C64.7623 104.287 65.1582 104.063 65.6057 103.925C66.0531 103.783 66.5237 103.712 67.0173 103.712C67.344 103.712 67.6902 103.751 68.056 103.829C68.4253 103.903 68.7698 104.042 69.0894 104.244C69.4125 104.447 69.6771 104.736 69.883 105.113C70.089 105.485 70.192 105.97 70.192 106.567V112H68.6366V110.881H68.5727C68.4697 111.087 68.3152 111.29 68.1092 111.489C67.9033 111.687 67.6387 111.853 67.3156 111.984C66.9924 112.115 66.6053 112.181 66.1543 112.181ZM66.5006 110.903C66.9409 110.903 67.3173 110.816 67.6298 110.642C67.9459 110.468 68.1856 110.24 68.3489 109.96C68.5158 109.676 68.5993 109.372 68.5993 109.049V107.994C68.5425 108.051 68.4324 108.104 68.269 108.154C68.1092 108.2 67.9264 108.241 67.7204 108.277C67.5144 108.309 67.3138 108.339 67.1185 108.367C66.9232 108.392 66.7598 108.413 66.6284 108.431C66.3195 108.47 66.0372 108.536 65.7815 108.628C65.5293 108.721 65.3269 108.854 65.1742 109.028C65.0251 109.198 64.9505 109.425 64.9505 109.71C64.9505 110.104 65.0961 110.402 65.3873 110.604C65.6785 110.803 66.0496 110.903 66.5006 110.903ZM72.3133 112V103.818H73.906V112H72.3133ZM73.1177 102.556C72.8407 102.556 72.6028 102.463 72.4039 102.279C72.2086 102.091 72.1109 101.867 72.1109 101.608C72.1109 101.345 72.2086 101.121 72.4039 100.936C72.6028 100.748 72.8407 100.654 73.1177 100.654C73.3947 100.654 73.6308 100.748 73.8261 100.936C74.025 101.121 74.1244 101.345 74.1244 101.608C74.1244 101.867 74.025 102.091 73.8261 102.279C73.6308 102.463 73.3947 102.556 73.1177 102.556ZM77.6414 107.142V112H76.0487V103.818H77.5775V105.15H77.6787C77.8669 104.717 78.1616 104.369 78.5629 104.106C78.9677 103.843 79.4773 103.712 80.0917 103.712C80.6492 103.712 81.1375 103.829 81.5565 104.063C81.9755 104.294 82.3005 104.638 82.5313 105.097C82.7621 105.555 82.8775 106.121 82.8775 106.796V112H81.2848V106.988C81.2848 106.395 81.1304 105.931 80.8214 105.597C80.5125 105.26 80.0881 105.091 79.5483 105.091C79.179 105.091 78.8505 105.171 78.5629 105.331C78.2788 105.491 78.0533 105.725 77.8864 106.034C77.7231 106.339 77.6414 106.709 77.6414 107.142Z" fill="black"/>
<path fill-rule="evenodd" clip-rule="evenodd" d="M26.0054 39.0663C23.3012 39.5549 21.0905 41.628 20.2449 44.4683C19.9184 45.5649 19.9184 47.4494 20.2449 48.546C21.0122 51.1231 22.7688 52.9548 25.2463 53.7612C25.9797 54 25.9801 54 31.6027 54C37.9124 54 37.7731 54.0137 39.2792 53.2405C41.0056 52.3541 42.3883 50.6902 42.9896 48.7754L43.1577 48.2402H45H46.8423L47.0104 48.7754C47.6117 50.6902 48.9944 52.3541 50.7208 53.2405C52.2269 54.0137 52.0876 54 58.3973 54C64.0199 54 64.0203 54 64.7537 53.7612C67.2312 52.9548 68.9878 51.1231 69.7551 48.546C70.0816 47.4494 70.0816 45.5649 69.7551 44.4683C68.9878 41.8913 67.2312 40.0596 64.7537 39.2531C64.0203 39.0144 64.0199 39.0144 58.3973 39.0144C52.0876 39.0144 52.2269 39.0006 50.7208 39.7739C48.9944 40.6603 47.6117 42.3242 47.0104 44.239L46.8423 44.7742H45H43.1577L42.9896 44.239C42.3882 42.3238 41.0049 40.6592 39.2792 39.7744C37.7786 39.0048 37.9646 39.0243 31.8961 39.0023C28.911 38.9915 26.2603 39.0203 26.0054 39.0663ZM37.3681 42.6638C38.1271 42.976 38.7568 43.4701 39.2064 44.1064L39.6421 44.7232L38.4094 44.7517L37.1768 44.7803V46.5072V48.2341L38.4094 48.2626L39.6421 48.2912L39.2064 48.9079C38.7567 49.5445 38.1267 50.0387 37.3681 50.3503C36.9776 50.5108 36.4307 50.5328 32.1 50.5625C29.1608 50.5827 27.0191 50.5553 26.6333 50.4926C24.9522 50.2198 23.6747 48.905 23.3766 47.1408C23.0247 45.0578 24.4835 42.8944 26.4833 42.5339C26.7443 42.4869 29.2019 42.4565 31.945 42.4665C36.4477 42.4829 36.9746 42.5021 37.3681 42.6638ZM64.0692 42.6646C65.1464 43.101 66.0278 44.0089 66.4421 45.1086C66.6979 45.788 66.7147 47.1571 66.4755 47.8324C66.0766 48.9586 65.1048 49.9616 64.0355 50.3505C63.5743 50.5182 63.0845 50.5339 58.2995 50.5339C53.5132 50.5339 53.0307 50.5185 52.6319 50.3526C51.8686 50.0351 51.2421 49.5427 50.7936 48.9079L50.3579 48.2912L51.5906 48.2626L52.8232 48.2341V46.5041V44.7742H51.5953H50.3674L50.544 44.4537C51.035 43.5629 52.1334 42.7463 53.121 42.5379C53.3606 42.4874 55.823 42.4551 58.5929 42.4662C63.1259 42.4843 63.6731 42.5041 64.0692 42.6646Z" fill="#398BEC"/>
<defs>
<filter id="filter0_d_834_699" x="0.0546875" y="0" width="89.8906" height="87.8408" filterUnits="userSpaceOnUse" color-interpolation-filters="sRGB">
<feFlood flood-opacity="0" result="BackgroundImageFix"/>
<feColorMatrix in="SourceAlpha" type="matrix" values="0 0 0 0 0 0 0 0 0 0 0 0 0 0 0 0 0 0 127 0" result="hardAlpha"/>
<feOffset/>
<feGaussianBlur stdDeviation="2"/>
<feComposite in2="hardAlpha" operator="out"/>
<feColorMatrix type="matrix" values="0 0 0 0 0 0 0 0 0 0 0 0 0 0 0 0 0 0 0.25 0"/>
<feBlend mode="normal" in2="BackgroundImageFix" result="effect1_dropShadow_834_699"/>
<feBlend mode="normal" in="SourceGraphic" in2="effect1_dropShadow_834_699" result="shape"/>
</filter>
</defs>
</svg>
