<svg width="126" height="116" viewBox="0 0 126 116" fill="none" xmlns="http://www.w3.org/2000/svg">
<g filter="url(#filter0_d_834_701)">
<path d="M63 4L95.8369 19.8134L103.947 55.3459L81.2231 83.8407H44.7769L22.053 55.3459L30.1631 19.8134L63 4Z" fill="white"/>
</g>
<path d="M10.6958 104.638H9.03382C8.9699 104.283 8.85094 103.971 8.67694 103.701C8.50293 103.431 8.28986 103.202 8.03773 103.014C7.7856 102.826 7.50328 102.684 7.19078 102.588C6.88184 102.492 6.55336 102.444 6.20534 102.444C5.57679 102.444 5.01394 102.602 4.51678 102.918C4.02317 103.234 3.63255 103.697 3.3449 104.308C3.06081 104.919 2.91877 105.665 2.91877 106.545C2.91877 107.433 3.06081 108.183 3.3449 108.793C3.63255 109.404 4.02495 109.866 4.52211 110.178C5.01927 110.491 5.57857 110.647 6.20002 110.647C6.54448 110.647 6.87118 110.601 7.18013 110.509C7.49263 110.413 7.77495 110.272 8.02708 110.088C8.27921 109.903 8.49228 109.678 8.66628 109.411C8.84384 109.141 8.96635 108.832 9.03382 108.484L10.6958 108.49C10.607 109.026 10.4347 109.52 10.1791 109.971C9.92694 110.418 9.60201 110.805 9.20428 111.132C8.8101 111.455 8.35911 111.705 7.8513 111.883C7.34348 112.06 6.78951 112.149 6.18936 112.149C5.24476 112.149 4.40314 111.925 3.66451 111.478C2.92587 111.027 2.34348 110.382 1.91735 109.544C1.49476 108.706 1.28347 107.707 1.28347 106.545C1.28347 105.381 1.49654 104.381 1.92267 103.547C2.34881 102.708 2.9312 102.066 3.66983 101.618C4.40847 101.167 5.24831 100.942 6.18936 100.942C6.7682 100.942 7.30797 101.025 7.80868 101.192C8.31294 101.355 8.76571 101.597 9.16699 101.917C9.56827 102.233 9.9003 102.62 10.1631 103.078C10.4259 103.532 10.6034 104.053 10.6958 104.638ZM14.1301 101.091V112H12.5375V101.091H14.1301ZM19.7192 112.165C18.9521 112.165 18.2828 111.989 17.711 111.638C17.1393 111.286 16.6954 110.794 16.3794 110.162C16.0633 109.53 15.9053 108.792 15.9053 107.946C15.9053 107.098 16.0633 106.355 16.3794 105.72C16.6954 105.084 17.1393 104.591 17.711 104.239C18.2828 103.887 18.9521 103.712 19.7192 103.712C20.4862 103.712 21.1556 103.887 21.7274 104.239C22.2991 104.591 22.743 105.084 23.059 105.72C23.3751 106.355 23.5331 107.098 23.5331 107.946C23.5331 108.792 23.3751 109.53 23.059 110.162C22.743 110.794 22.2991 111.286 21.7274 111.638C21.1556 111.989 20.4862 112.165 19.7192 112.165ZM19.7245 110.828C20.2217 110.828 20.6336 110.697 20.9603 110.434C21.287 110.171 21.5285 109.821 21.6847 109.385C21.8445 108.948 21.9244 108.467 21.9244 107.941C21.9244 107.419 21.8445 106.94 21.6847 106.503C21.5285 106.062 21.287 105.709 20.9603 105.443C20.6336 105.176 20.2217 105.043 19.7245 105.043C19.2238 105.043 18.8083 105.176 18.4781 105.443C18.1514 105.709 17.9081 106.062 17.7483 106.503C17.5921 106.94 17.5139 107.419 17.5139 107.941C17.5139 108.467 17.5921 108.948 17.7483 109.385C17.9081 109.821 18.1514 110.171 18.4781 110.434C18.8083 110.697 19.2238 110.828 19.7245 110.828ZM30.4938 108.607V103.818H32.0918V112H30.5257V110.583H30.4405C30.2523 111.02 29.9505 111.384 29.535 111.675C29.123 111.963 28.6099 112.107 27.9956 112.107C27.47 112.107 27.0048 111.991 26.6 111.76C26.1987 111.526 25.8826 111.18 25.6518 110.722C25.4245 110.263 25.3109 109.697 25.3109 109.022V103.818H26.9036V108.831C26.9036 109.388 27.0581 109.832 27.367 110.162C27.676 110.493 28.0772 110.658 28.5708 110.658C28.8691 110.658 29.1657 110.583 29.4604 110.434C29.7587 110.285 30.0055 110.059 30.2008 109.757C30.3997 109.456 30.4973 109.072 30.4938 108.607ZM37.2947 112.16C36.6341 112.16 36.0447 111.991 35.5262 111.654C35.0113 111.313 34.6064 110.828 34.3117 110.2C34.0205 109.567 33.8749 108.809 33.8749 107.925C33.8749 107.041 34.0223 106.284 34.317 105.656C34.6153 105.027 35.0237 104.546 35.5422 104.212C36.0606 103.879 36.6483 103.712 37.3053 103.712C37.8131 103.712 38.2215 103.797 38.5305 103.967C38.843 104.134 39.0844 104.33 39.2549 104.553C39.4289 104.777 39.5638 104.974 39.6597 105.145H39.7556V101.091H41.3483V112H39.7929V110.727H39.6597C39.5638 110.901 39.4253 111.1 39.2442 111.324C39.0667 111.547 38.8216 111.743 38.5091 111.909C38.1966 112.076 37.7918 112.16 37.2947 112.16ZM37.6462 110.801C38.1043 110.801 38.4914 110.681 38.8074 110.439C39.127 110.194 39.3685 109.855 39.5319 109.422C39.6988 108.989 39.7822 108.484 39.7822 107.909C39.7822 107.341 39.7006 106.844 39.5372 106.418C39.3738 105.991 39.1341 105.659 38.8181 105.422C38.502 105.184 38.1114 105.065 37.6462 105.065C37.1668 105.065 36.7673 105.189 36.4477 105.438C36.1281 105.686 35.8866 106.025 35.7233 106.455C35.5635 106.885 35.4836 107.369 35.4836 107.909C35.4836 108.456 35.5653 108.948 35.7286 109.385C35.892 109.821 36.1334 110.168 36.453 110.423C36.7762 110.675 37.1739 110.801 37.6462 110.801ZM56.7797 104.638H55.1178C55.0539 104.283 54.9349 103.971 54.7609 103.701C54.5869 103.431 54.3738 103.202 54.1217 103.014C53.8696 102.826 53.5873 102.684 53.2748 102.588C52.9658 102.492 52.6373 102.444 52.2893 102.444C51.6608 102.444 51.0979 102.602 50.6008 102.918C50.1072 103.234 49.7165 103.697 49.4289 104.308C49.1448 104.919 49.0028 105.665 49.0028 106.545C49.0028 107.433 49.1448 108.183 49.4289 108.793C49.7165 109.404 50.1089 109.866 50.6061 110.178C51.1032 110.491 51.6626 110.647 52.284 110.647C52.6285 110.647 52.9552 110.601 53.2641 110.509C53.5766 110.413 53.8589 110.272 54.1111 110.088C54.3632 109.903 54.5763 109.678 54.7503 109.411C54.9278 109.141 55.0503 108.832 55.1178 108.484L56.7797 108.49C56.691 109.026 56.5187 109.52 56.2631 109.971C56.0109 110.418 55.686 110.805 55.2883 111.132C54.8941 111.455 54.4431 111.705 53.9353 111.883C53.4275 112.06 52.8735 112.149 52.2733 112.149C51.3287 112.149 50.4871 111.925 49.7485 111.478C49.0099 111.027 48.4275 110.382 48.0013 109.544C47.5787 108.706 47.3675 107.707 47.3675 106.545C47.3675 105.381 47.5805 104.381 48.0067 103.547C48.4328 102.708 49.0152 102.066 49.7538 101.618C50.4925 101.167 51.3323 100.942 52.2733 100.942C52.8522 100.942 53.392 101.025 53.8927 101.192C54.3969 101.355 54.8497 101.597 55.251 101.917C55.6523 102.233 55.9843 102.62 56.2471 103.078C56.5099 103.532 56.6874 104.053 56.7797 104.638ZM62.0678 112.165C61.3008 112.165 60.6314 111.989 60.0597 111.638C59.4879 111.286 59.044 110.794 58.728 110.162C58.4119 109.53 58.2539 108.792 58.2539 107.946C58.2539 107.098 58.4119 106.355 58.728 105.72C59.044 105.084 59.4879 104.591 60.0597 104.239C60.6314 103.887 61.3008 103.712 62.0678 103.712C62.8349 103.712 63.5043 103.887 64.076 104.239C64.6477 104.591 65.0916 105.084 65.4077 105.72C65.7237 106.355 65.8817 107.098 65.8817 107.946C65.8817 108.792 65.7237 109.53 65.4077 110.162C65.0916 110.794 64.6477 111.286 64.076 111.638C63.5043 111.989 62.8349 112.165 62.0678 112.165ZM62.0732 110.828C62.5703 110.828 62.9822 110.697 63.3089 110.434C63.6357 110.171 63.8771 109.821 64.0334 109.385C64.1932 108.948 64.2731 108.467 64.2731 107.941C64.2731 107.419 64.1932 106.94 64.0334 106.503C63.8771 106.062 63.6357 105.709 63.3089 105.443C62.9822 105.176 62.5703 105.043 62.0732 105.043C61.5724 105.043 61.157 105.176 60.8267 105.443C60.5 105.709 60.2567 106.062 60.0969 106.503C59.9407 106.94 59.8626 107.419 59.8626 107.941C59.8626 108.467 59.9407 108.948 60.0969 109.385C60.2567 109.821 60.5 110.171 60.8267 110.434C61.157 110.697 61.5724 110.828 62.0732 110.828ZM67.6595 112V103.818H69.1883V105.15H69.2895C69.46 104.699 69.7387 104.347 70.1258 104.095C70.5129 103.839 70.9763 103.712 71.5161 103.712C72.0629 103.712 72.521 103.839 72.8904 104.095C73.2632 104.351 73.5384 104.702 73.716 105.15H73.8012C73.9965 104.713 74.3073 104.365 74.7334 104.106C75.1595 103.843 75.6673 103.712 76.2568 103.712C76.999 103.712 77.6045 103.944 78.0732 104.409C78.5455 104.875 78.7817 105.576 78.7817 106.513V112H77.189V106.663C77.189 106.109 77.0381 105.707 76.7362 105.459C76.4344 105.21 76.074 105.086 75.6549 105.086C75.1365 105.086 74.7334 105.246 74.4458 105.565C74.1581 105.881 74.0143 106.288 74.0143 106.785V112H72.4269V106.561C72.4269 106.118 72.2884 105.761 72.0115 105.491C71.7345 105.221 71.374 105.086 70.9301 105.086C70.6283 105.086 70.3495 105.166 70.0938 105.326C69.8417 105.482 69.6375 105.7 69.4813 105.981C69.3286 106.261 69.2522 106.586 69.2522 106.956V112H67.6595ZM80.9164 115.068V103.818H82.4718V105.145H82.6049C82.6973 104.974 82.8304 104.777 83.0044 104.553C83.1784 104.33 83.4199 104.134 83.7289 103.967C84.0378 103.797 84.4462 103.712 84.954 103.712C85.6145 103.712 86.204 103.879 86.7225 104.212C87.2409 104.546 87.6475 105.027 87.9423 105.656C88.2406 106.284 88.3897 107.041 88.3897 107.925C88.3897 108.809 88.2424 109.567 87.9476 110.2C87.6529 110.828 87.248 111.313 86.7331 111.654C86.2182 111.991 85.6305 112.16 84.97 112.16C84.4728 112.16 84.0662 112.076 83.7502 111.909C83.4377 111.743 83.1926 111.547 83.0151 111.324C82.8375 111.1 82.7008 110.901 82.6049 110.727H82.5091V115.068H80.9164ZM82.4771 107.909C82.4771 108.484 82.5605 108.989 82.7275 109.422C82.8944 109.855 83.1358 110.194 83.4519 110.439C83.7679 110.681 84.155 110.801 84.6131 110.801C85.089 110.801 85.4867 110.675 85.8063 110.423C86.1259 110.168 86.3674 109.821 86.5307 109.385C86.6976 108.948 86.7811 108.456 86.7811 107.909C86.7811 107.369 86.6994 106.885 86.536 106.455C86.3762 106.025 86.1348 105.686 85.8116 105.438C85.492 105.189 85.0925 105.065 84.6131 105.065C84.1515 105.065 83.7608 105.184 83.4412 105.422C83.1252 105.659 82.8855 105.991 82.7221 106.418C82.5588 106.844 82.4771 107.341 82.4771 107.909ZM95.3571 108.607V103.818H96.9551V112H95.389V110.583H95.3038C95.1156 111.02 94.8137 111.384 94.3983 111.675C93.9863 111.963 93.4732 112.107 92.8588 112.107C92.3333 112.107 91.8681 111.991 91.4632 111.76C91.062 111.526 90.7459 111.18 90.5151 110.722C90.2878 110.263 90.1742 109.697 90.1742 109.022V103.818H91.7669V108.831C91.7669 109.388 91.9213 109.832 92.2303 110.162C92.5392 110.493 92.9405 110.658 93.4341 110.658C93.7324 110.658 94.0289 110.583 94.3237 110.434C94.622 110.285 94.8688 110.059 95.0641 109.757C95.263 109.456 95.3606 109.072 95.3571 108.607ZM102.914 103.818V105.097H98.4452V103.818H102.914ZM99.6437 101.858H101.236V109.598C101.236 109.907 101.283 110.139 101.375 110.295C101.467 110.448 101.586 110.553 101.732 110.61C101.881 110.663 102.043 110.69 102.217 110.69C102.344 110.69 102.456 110.681 102.552 110.663C102.648 110.645 102.723 110.631 102.776 110.62L103.063 111.936C102.971 111.972 102.84 112.007 102.669 112.043C102.499 112.082 102.286 112.103 102.03 112.107C101.611 112.114 101.22 112.039 100.858 111.883C100.496 111.727 100.203 111.485 99.9793 111.158C99.7556 110.832 99.6437 110.422 99.6437 109.928V101.858ZM104.676 112V103.818H106.269V112H104.676ZM105.48 102.556C105.203 102.556 104.966 102.463 104.767 102.279C104.571 102.091 104.474 101.867 104.474 101.608C104.474 101.345 104.571 101.121 104.767 100.936C104.966 100.748 105.203 100.654 105.48 100.654C105.757 100.654 105.994 100.748 106.189 100.936C106.388 101.121 106.487 101.345 106.487 101.608C106.487 101.867 106.388 102.091 106.189 102.279C105.994 102.463 105.757 102.556 105.48 102.556ZM110.004 107.142V112H108.411V103.818H109.94V105.15H110.041C110.23 104.717 110.524 104.369 110.926 104.106C111.331 103.843 111.84 103.712 112.454 103.712C113.012 103.712 113.5 103.829 113.919 104.063C114.338 104.294 114.663 104.638 114.894 105.097C115.125 105.555 115.24 106.121 115.24 106.796V112H113.648V106.988C113.648 106.395 113.493 105.931 113.184 105.597C112.875 105.26 112.451 105.091 111.911 105.091C111.542 105.091 111.213 105.171 110.926 105.331C110.642 105.491 110.416 105.725 110.249 106.034C110.086 106.339 110.004 106.709 110.004 107.142ZM120.807 115.239C120.157 115.239 119.598 115.153 119.129 114.983C118.664 114.813 118.284 114.587 117.989 114.306C117.694 114.026 117.474 113.719 117.328 113.385L118.697 112.82C118.793 112.977 118.921 113.142 119.081 113.316C119.244 113.493 119.464 113.644 119.741 113.768C120.022 113.893 120.382 113.955 120.823 113.955C121.426 113.955 121.925 113.808 122.32 113.513C122.714 113.222 122.911 112.756 122.911 112.117V110.509H122.81C122.714 110.683 122.575 110.876 122.394 111.089C122.217 111.302 121.972 111.487 121.659 111.643C121.347 111.799 120.94 111.877 120.439 111.877C119.793 111.877 119.21 111.727 118.692 111.425C118.177 111.119 117.769 110.67 117.467 110.077C117.169 109.48 117.019 108.747 117.019 107.877C117.019 107.007 117.167 106.261 117.462 105.64C117.76 105.018 118.168 104.543 118.687 104.212C119.205 103.879 119.793 103.712 120.45 103.712C120.958 103.712 121.368 103.797 121.68 103.967C121.993 104.134 122.236 104.33 122.41 104.553C122.588 104.777 122.724 104.974 122.82 105.145H122.937V103.818H124.498V112.181C124.498 112.884 124.335 113.461 124.008 113.912C123.681 114.363 123.239 114.697 122.682 114.914C122.128 115.13 121.503 115.239 120.807 115.239ZM120.791 110.556C121.249 110.556 121.636 110.45 121.952 110.237C122.272 110.02 122.513 109.711 122.676 109.31C122.843 108.905 122.927 108.42 122.927 107.856C122.927 107.305 122.845 106.821 122.682 106.402C122.518 105.983 122.279 105.656 121.963 105.422C121.647 105.184 121.256 105.065 120.791 105.065C120.311 105.065 119.912 105.189 119.592 105.438C119.273 105.683 119.031 106.016 118.868 106.439C118.708 106.862 118.628 107.334 118.628 107.856C118.628 108.392 118.71 108.863 118.873 109.267C119.036 109.672 119.278 109.988 119.598 110.216C119.921 110.443 120.318 110.556 120.791 110.556Z" fill="black"/>
<path fill-rule="evenodd" clip-rule="evenodd" d="M64.8015 25.0804C61.4431 25.5207 58.4066 27.2885 56.3945 29.975C56.049 30.4363 55.5846 31.1668 55.3624 31.5984C55.1403 32.0299 54.9503 32.3939 54.9402 32.4073C54.9302 32.4205 54.6836 32.3598 54.3923 32.2723C53.6786 32.058 52.2682 32.0619 51.5146 32.2802C49.6234 32.8283 48.2026 34.3008 47.6783 36.2562L47.5078 36.8928L46.8586 37.0109C43.6522 37.5941 40.7128 39.8168 39.1909 42.809C36.482 48.1347 38.549 54.6555 43.8229 57.4215C45.7768 58.4464 47.1045 58.7174 50.1733 58.718L52.25 58.7183V57.9827V57.2471H50.2105C47.3426 57.2471 46.1757 57.0196 44.4966 56.1333C40.9185 54.2447 38.9079 50.1774 39.5957 46.219C40.3119 42.0975 43.5437 38.9272 47.559 38.4075C49.1627 38.2 49.0509 38.2352 48.9974 37.9545C48.9139 37.5167 49.0928 36.4877 49.3502 35.9233C49.9713 34.5619 51.0555 33.7855 52.641 33.5671C53.292 33.4775 54.0595 33.6548 54.9309 34.0963C55.3573 34.3122 55.7112 34.4786 55.7176 34.4658C55.7239 34.4532 55.893 34.0198 56.0933 33.503C57.1543 30.7635 59.2905 28.5489 62.0101 27.3688C66.0805 25.6027 70.8922 26.4946 74.0334 29.5976C75.0263 30.5784 75.6466 31.4406 76.2493 32.6773C76.9813 34.1795 77.2682 35.2965 77.3381 36.9171C77.4011 38.3749 77.325 38.26 78.295 38.3637C80.2133 38.5687 82.0897 39.4698 83.6089 40.9159C87.4476 44.5697 87.5228 50.6975 83.7749 54.4588C82.3819 55.857 80.6043 56.7855 78.7553 57.0808L78.0291 57.1967L78.0879 57.6878C78.1203 57.9579 78.1471 58.2839 78.1475 58.4122C78.1484 58.6398 78.1632 58.6439 78.7444 58.5779C80.1171 58.422 81.9601 57.6889 83.3363 56.7512C84.1342 56.2075 85.4088 54.9362 86.0009 54.0931C88.5347 50.486 88.6703 45.7462 86.348 41.9589C85.7366 40.9618 84.3446 39.4847 83.4017 38.8325C82.189 37.9936 80.84 37.3865 79.5189 37.0848C78.8397 36.9298 78.8325 36.9248 78.8325 36.6056C78.8325 36.0639 78.5479 34.5851 78.2842 33.7562C76.996 29.7082 73.7577 26.5962 69.5971 25.408C68.3054 25.039 66.2093 24.8959 64.8015 25.0804ZM82.8481 42.5213C82.2716 43.035 82.2736 42.9866 82.8 43.6804L83.111 44.0906L83.6838 43.7371C83.9988 43.5427 84.2739 43.3701 84.2952 43.3534C84.3412 43.3176 83.9259 42.6949 83.6041 42.3169L83.377 42.05L82.8481 42.5213ZM84.1256 44.5968C83.7297 44.7806 83.5246 44.9295 83.5578 45.0092C83.5863 45.0777 83.6791 45.358 83.7641 45.6319L83.9186 46.1301L84.6006 45.983C85.0943 45.8767 85.283 45.7933 85.2837 45.6811C85.2849 45.4767 84.8714 44.2989 84.8004 44.3046C84.77 44.3071 84.4664 44.4386 84.1256 44.5968ZM52.8854 49.6702L48.9186 54.5498L51.1707 54.5761L53.4228 54.6025V60.6327V66.6631H56.8922H60.3616V60.631V54.5989H62.6175C63.8583 54.5989 64.8588 54.5609 64.8409 54.5146C64.781 54.3599 56.991 44.7997 56.921 44.7951C56.8831 44.7926 55.0671 46.9863 52.8854 49.6702ZM65.639 51.2132V57.2435L63.3856 57.2699L61.1321 57.2961L65.0735 62.1449C67.2414 64.8118 69.0477 66.9966 69.0877 67C69.1276 67.0035 70.9366 64.8216 73.1075 62.1513L77.0548 57.2961L74.8163 57.2699L72.5778 57.2435V51.2132V45.1829H69.1084H65.639V51.2132ZM71.1119 52.6836V58.7132L72.5408 58.7402L73.9697 58.7674L71.5572 61.7344C70.2304 63.3662 69.1146 64.6987 69.0777 64.6953C69.0409 64.692 67.9232 63.3458 66.5942 61.7038L64.1778 58.7183H65.6414H67.105V52.6862V46.6541H69.1084H71.1119V52.6836ZM84.6963 46.939L84.1588 46.9974L84.0899 48.0329C84.0086 49.2536 83.6987 50.3315 83.1608 51.264C82.6926 52.0759 81.4093 53.3623 80.59 53.8413C79.8426 54.2781 78.7134 54.6563 77.8713 54.752L77.2688 54.8203V55.5433C77.2688 56.3898 77.1994 56.3595 78.5835 56.1172C82.0476 55.5109 84.8316 52.711 85.4299 49.2312C85.6211 48.119 85.5955 46.9063 85.3804 46.8909C85.2998 46.8851 84.9919 46.9068 84.6963 46.939ZM59.3777 50.087C60.6712 51.6784 61.7296 53.0135 61.7296 53.0541C61.7297 53.0946 61.0921 53.1276 60.3127 53.1276H58.8957V59.1597V65.1918H56.8922H54.8887V59.1597V53.1276H53.4636C52.6797 53.1276 52.0529 53.0889 52.0709 53.0416C52.1597 52.8068 56.9015 47.0691 56.959 47.1268C56.9957 47.1635 58.0841 48.4956 59.3777 50.087ZM68.6686 49.0572V49.7928H69.4016H70.1346V49.0572V48.3215H69.4016H68.6686V49.0572ZM68.6686 51.5092V52.2449H69.4016H70.1346V51.5092V50.7736H69.4016H68.6686V51.5092ZM68.6686 55.1383V57.0509H69.4016H70.1346V55.1383V53.2257H69.4016H68.6686V55.1383ZM56.4524 54.9422V55.6778H57.1854H57.9184V54.9422V54.2065H57.1854H56.4524V54.9422ZM56.4524 57.3942V58.1299H57.1854H57.9184V57.3942V56.6586H57.1854H56.4524V57.3942ZM56.4524 61.2685V63.4263H57.1854H57.9184V61.2685V59.1107H57.1854H56.4524V61.2685Z" fill="#11D8CC"/>
<defs>
<filter id="filter0_d_834_701" x="18.0547" y="0" width="89.8906" height="87.8408" filterUnits="userSpaceOnUse" color-interpolation-filters="sRGB">
<feFlood flood-opacity="0" result="BackgroundImageFix"/>
<feColorMatrix in="SourceAlpha" type="matrix" values="0 0 0 0 0 0 0 0 0 0 0 0 0 0 0 0 0 0 127 0" result="hardAlpha"/>
<feOffset/>
<feGaussianBlur stdDeviation="2"/>
<feComposite in2="hardAlpha" operator="out"/>
<feColorMatrix type="matrix" values="0 0 0 0 0 0 0 0 0 0 0 0 0 0 0 0 0 0 0.25 0"/>
<feBlend mode="normal" in2="BackgroundImageFix" result="effect1_dropShadow_834_701"/>
<feBlend mode="normal" in="SourceGraphic" in2="effect1_dropShadow_834_701" result="shape"/>
</filter>
</defs>
</svg>
