<svg width="40" height="40" viewBox="0 0 40 40" fill="none" xmlns="http://www.w3.org/2000/svg">
<circle cx="20" cy="20" r="20" fill="black"/>
<path d="M24.4159 6.00023C24.3535 6.16681 24.4706 6.29374 24.5955 6.42859C26.3524 8.34038 28.1093 10.2601 29.874 12.1639C30.8579 13.2216 31.847 14.2793 32.8413 15.337C32.9182 15.4103 33.0173 15.455 33.1224 15.464C33.3428 15.4816 33.5504 15.5767 33.7094 15.7328C33.8684 15.889 33.969 16.0964 33.9939 16.3197C34.0189 16.5429 33.9666 16.768 33.846 16.9563C33.7255 17.1447 33.5442 17.2845 33.3332 17.3519C33.2668 17.3599 33.2048 17.3899 33.1568 17.4372C33.1089 17.4845 33.0775 17.5465 33.0677 17.6137C31.9589 21.3791 30.8423 25.1313 29.7179 28.8702C29.698 28.9655 29.7147 29.0648 29.7647 29.1479C29.8838 29.2935 29.9631 29.4684 29.9947 29.6549C30.0262 29.8415 30.0088 30.0333 29.9443 30.2109C29.8983 30.3479 29.8191 30.4709 29.714 30.5687C29.609 30.6666 29.4815 30.736 29.3431 30.7708C29.2048 30.8055 29.0601 30.8044 28.9223 30.7676C28.7845 30.7307 28.658 30.6593 28.5544 30.5599C28.5135 30.5128 28.46 30.4787 28.4004 30.4618C28.3408 30.4449 28.2777 30.4459 28.2187 30.4647L17.7553 32.9715L16.3966 33.3126C16.3603 33.3215 16.3262 33.3381 16.2965 33.3613C16.2669 33.3846 16.2425 33.4139 16.2248 33.4474C16.1426 33.6555 15.9854 33.8239 15.7851 33.9183C15.5849 34.0126 15.3568 34.0258 15.1473 33.9551C14.9387 33.8856 14.7627 33.7403 14.6532 33.547C14.5436 33.3537 14.5082 33.1262 14.5538 32.908C14.5643 32.8512 14.5597 32.7926 14.5405 32.7382C14.5213 32.6839 14.4881 32.6357 14.4445 32.5986C13.2732 31.3294 12.102 30.0602 10.9385 28.7989C9.32996 27.0537 7.71881 25.3137 6.10506 23.5791C6.02779 23.5137 5.93212 23.4748 5.83177 23.4681C5.62435 23.4548 5.42804 23.3682 5.27686 23.2233C5.12569 23.0784 5.02918 22.8844 5.00407 22.6748C4.96503 22.0322 5.20709 21.6673 5.72245 21.5563C5.76399 21.5422 5.80213 21.5193 5.83442 21.4893C5.86671 21.4592 5.89241 21.4226 5.90985 21.3818C6.55015 19.232 7.19044 17.0902 7.82293 14.9404C8.29144 13.3539 8.76775 11.7673 9.24407 10.1808C9.26952 10.1192 9.27569 10.0511 9.26171 9.9858C9.24774 9.92051 9.21432 9.86117 9.16599 9.81586C9.0623 9.68943 8.99122 9.53877 8.95915 9.37747C8.92708 9.21616 8.93504 9.04928 8.98229 8.89188C9.02955 8.73448 9.11462 8.5915 9.22984 8.47583C9.34506 8.36016 9.48681 8.27545 9.6423 8.22932C9.78141 8.19207 9.92794 8.19457 10.0657 8.23657C10.2035 8.27856 10.3272 8.35841 10.4231 8.4673C10.4554 8.51427 10.5016 8.54959 10.5549 8.56813C10.6083 8.58667 10.666 8.58748 10.7199 8.57043C12.3753 8.16586 14.0385 7.77715 15.6939 7.38845L21.4721 6.00023L22.5887 5.72258C22.623 5.7136 22.6552 5.69774 22.6834 5.67595C22.7115 5.65415 22.7351 5.62685 22.7527 5.59566C22.8224 5.38859 22.9655 5.21531 23.1541 5.10958C23.3427 5.00386 23.5633 4.97327 23.7729 5.02378C23.9825 5.07428 24.1661 5.20227 24.2878 5.38279C24.4096 5.56331 24.4608 5.78342 24.4315 6.00023H24.4159ZM18.5283 14.8849C18.4405 14.9419 18.3569 15.0055 18.2785 15.0753L14.9599 18.2483C14.905 18.2908 14.8644 18.3493 14.8434 18.416C14.8225 18.4827 14.8222 18.5543 14.8427 18.6212C15.1395 19.9063 15.444 21.1914 15.7329 22.4844C15.7423 22.5483 15.7716 22.6075 15.8166 22.6532C15.8616 22.6989 15.9198 22.7288 15.9828 22.7383L20.2618 24.0551C20.3128 24.0734 20.3679 24.0765 20.4205 24.0638C20.4732 24.0512 20.5211 24.0233 20.5585 23.9837C21.7298 22.8572 22.9011 21.7387 24.0802 20.6044C24.1086 20.5742 24.1298 20.5377 24.142 20.4977C24.1542 20.4578 24.1571 20.4156 24.1504 20.3743C23.8615 19.0971 23.557 17.82 23.2681 16.5428C23.2633 16.4734 23.235 16.4079 23.188 16.3573C23.141 16.3067 23.0783 16.2741 23.0104 16.2652L19.8167 15.2894L18.5283 14.8849ZM21.6517 28.4419C21.7257 28.4127 21.7964 28.3755 21.8626 28.3308C22.8308 27.6592 23.7965 26.977 24.7595 26.2842C24.8142 26.2842 24.9001 26.1414 24.8844 26.1097C24.8665 26.07 24.8406 26.0347 24.8083 26.006C24.776 25.9773 24.7381 25.9559 24.697 25.9431L20.7928 24.7452C20.729 24.719 20.6589 24.7134 20.5919 24.729C20.5248 24.7446 20.4641 24.7807 20.418 24.8325C19.5669 25.713 18.6142 26.5698 17.7085 27.4186C17.6455 27.4963 17.6147 27.5958 17.6226 27.6962C17.6226 27.7438 17.7553 27.7993 17.8334 27.8152C18.5127 27.9342 19.1921 28.0373 19.8792 28.1484L21.6517 28.4419ZM21.4019 11.4024C21.4019 11.1406 21.2691 11.1168 21.1208 11.093L17.4586 10.5219C17.3824 10.509 17.3042 10.526 17.2399 10.5695C16.2327 11.2755 15.2175 11.9894 14.2103 12.7113C14.1852 12.7314 14.1646 12.7566 14.1498 12.7853C14.135 12.814 14.1263 12.8455 14.1244 12.8779C14.1244 12.8779 14.2024 12.9731 14.2493 12.981L18.3097 14.2265C18.3437 14.2327 18.3786 14.2316 18.4122 14.2234C18.4458 14.2153 18.4774 14.2001 18.5049 14.1789C19.4471 13.2904 20.3868 12.3966 21.3238 11.4976C21.3238 11.4976 21.3862 11.4103 21.394 11.4103L21.4019 11.4024ZM32.6382 17.4551H32.5836C32.5367 17.5185 32.4821 17.5661 32.4352 17.6296L28.6872 22.4765C28.6298 22.5511 28.5995 22.6436 28.6013 22.7383C28.6715 23.4284 28.7574 24.1185 28.8355 24.8087C28.9526 25.8717 29.062 26.9347 29.1791 27.9818C29.1791 28.196 29.2416 28.4102 29.2728 28.6243H29.3275C30.4258 24.9012 31.5268 21.1808 32.6304 17.463L32.6382 17.4551ZM9.736 10.3156H9.68134L6.37836 21.4214C6.44396 21.4002 6.50133 21.3586 6.54234 21.3024C7.77608 19.7159 9.00982 18.1294 10.2592 16.5428C10.3213 16.4681 10.3656 16.3799 10.3887 16.2849C10.4117 16.19 10.4128 16.0909 10.3919 15.9954L10.1108 13.5204C10.0093 12.5923 9.9156 11.6642 9.80628 10.7361C9.78285 10.6091 9.75162 10.4743 9.7282 10.3394L9.736 10.3156ZM27.2036 18.3753C26.4227 19.1685 25.6419 19.8983 24.822 20.644C24.7654 20.6921 24.7251 20.757 24.7069 20.8297C24.6887 20.9023 24.6934 20.9789 24.7205 21.0486C24.9938 22.2147 25.2749 23.3808 25.5013 24.5548C25.556 24.8246 25.634 25.007 25.923 24.9911C25.9961 24.997 26.0687 24.9743 26.126 24.9277C26.7507 24.1344 27.3675 23.3411 27.9766 22.5479C28.0132 22.503 28.0403 22.451 28.0564 22.3951C28.0726 22.3391 28.0773 22.2805 28.0703 22.2226C27.961 21.1438 27.8282 20.0649 27.7267 18.9861C27.7267 18.7402 27.6564 18.5736 27.391 18.526C27.3753 18.4943 27.2894 18.4308 27.2036 18.3753ZM10.8058 16.6777C10.8058 16.876 10.8058 17.0346 10.8526 17.1854C10.8995 17.6217 10.9541 18.058 11.0088 18.4943C11.0634 18.9306 11.1415 19.4462 11.1571 19.9221C11.1384 20.0593 11.1714 20.1985 11.2497 20.3118C11.3279 20.4252 11.4455 20.5042 11.5788 20.533C11.6313 20.5585 11.6902 20.5669 11.7476 20.5569C11.8049 20.547 11.8578 20.5192 11.899 20.4774C12.6798 19.7556 13.3904 19.0416 14.1478 18.3277C14.1862 18.2943 14.214 18.2501 14.2279 18.2008C14.2418 18.1514 14.2411 18.099 14.2259 18.05C13.9213 16.7808 13.6324 15.5036 13.3279 14.2344C13.3279 14.163 13.2498 14.044 13.203 14.044C13.1561 14.044 12.9062 13.8933 12.7579 14.0995C12.1488 14.8928 11.5163 15.6861 10.8917 16.4793C10.8589 16.5404 10.8402 16.6082 10.837 16.6777H10.8058ZM6.90153 23.6664L14.6475 32.0195C14.6719 31.9449 14.6719 31.8642 14.6475 31.7895C14.015 30.0602 13.3904 28.3388 12.7735 26.6094C12.7453 26.5156 12.6971 26.4293 12.6323 26.3567C12.5675 26.284 12.4878 26.2267 12.3987 26.189C10.8995 25.4988 9.41586 24.7928 7.92444 24.0948L6.90153 23.6664ZM31.9979 15.3291L24.2519 6.90456C24.2519 6.96008 24.2519 6.97595 24.2519 6.99975C24.9235 8.84014 25.5872 10.6885 26.2665 12.5526C26.3119 12.6436 26.3862 12.7163 26.4774 12.7589L29.101 13.9964L31.9979 15.3291ZM27.3129 16.7887C27.3129 16.7253 27.2738 16.6697 27.2582 16.6142C26.8522 15.5116 26.4774 14.4089 26.0557 13.2983C26.0331 13.2208 25.9931 13.1497 25.9389 13.0905C25.8848 13.0314 25.8178 12.9857 25.7434 12.9572L23.1197 11.7356C23.0182 11.688 22.9245 11.6087 22.7996 11.7356C22.7331 11.7777 22.6824 11.8412 22.6556 11.9159C22.6287 11.9906 22.6272 12.0724 22.6512 12.1481C22.9323 13.3063 23.2056 14.4803 23.4321 15.6464C23.441 15.7113 23.4701 15.7716 23.515 15.8187C23.5599 15.8657 23.6184 15.8971 23.6819 15.9082L25.3217 16.4079L27.0005 16.9236C27.1723 16.9474 27.266 16.9236 27.3129 16.7887ZM16.0921 27.3234C16.1311 27.1647 16.3732 27.1726 16.3107 26.9109C16.014 25.7051 15.7485 24.4835 15.4596 23.2698C15.4454 23.2256 15.422 23.185 15.391 23.1508C15.36 23.1166 15.3222 23.0895 15.28 23.0714C14.1634 22.7224 13.039 22.3813 11.9146 22.0481C11.8716 22.0432 11.8281 22.047 11.7865 22.0592C11.745 22.0715 11.7062 22.092 11.6725 22.1195C11.6725 22.1195 11.6725 22.2464 11.6725 22.302C12.0551 23.3729 12.4534 24.4359 12.8203 25.475C12.8479 25.5939 12.9057 25.7033 12.9879 25.7924C13.0701 25.8815 13.1739 25.9471 13.2889 25.9827C13.4838 26.0586 13.6741 26.146 13.8589 26.2445L16.0921 27.3234ZM16.8183 32.5431V32.5986L27.594 30.0205C27.5711 29.9957 27.541 29.979 27.5081 29.9729C25.6809 29.6794 23.8537 29.3859 22.0422 29.0765C21.9481 29.0587 21.8513 29.0615 21.7584 29.0847C21.6655 29.108 21.5785 29.1512 21.5034 29.2114L17.2868 32.1782C17.1228 32.3051 16.9745 32.4241 16.8183 32.5431ZM11.3524 8.96706L13.4919 9.32403C14.5304 9.49062 15.5689 9.67307 16.6153 9.8238C16.8417 9.8238 17.0603 9.98245 17.3024 9.8238L21.9875 6.49999L22.1124 6.38893L11.3524 8.96706ZM10.4934 17.106C10.4452 17.1468 10.4008 17.1919 10.3607 17.2409L6.73755 21.9133C6.69639 21.9587 6.67355 22.0181 6.67355 22.0798C6.67355 22.1416 6.69639 22.201 6.73755 22.2464C6.75776 22.2537 6.77981 22.2537 6.80002 22.2464L10.2279 21.4532C10.3607 21.4532 10.3841 21.3421 10.3685 21.231C10.3593 21.0862 10.3893 20.9416 10.4554 20.8129C10.5215 20.6842 10.6211 20.5764 10.7433 20.5012C10.7947 20.4729 10.8351 20.4276 10.8578 20.3728C10.8805 20.318 10.8842 20.257 10.8682 20.1998C10.7667 19.3193 10.673 18.4467 10.5793 17.5741C10.5481 17.4551 10.5169 17.3043 10.4934 17.106ZM28.6793 17.5265C28.6013 18.0659 28.5622 18.2325 28.3358 18.3832C28.1093 18.5339 28.1562 18.6926 28.1562 18.875C28.2265 19.4779 28.2967 20.0808 28.3592 20.6837C28.4061 21.0724 28.4529 21.477 28.4998 21.8736L28.5856 21.7943C29.8038 20.2077 31.0219 18.6212 32.2322 17.0346C32.2947 16.9632 32.2791 16.8363 32.3103 16.6856L28.6793 17.5265ZM22.8699 6.57931L18.0052 10.0459L21.2379 10.5695C21.2922 10.5798 21.3483 10.5741 21.3995 10.553C21.4507 10.5319 21.4949 10.4963 21.5268 10.4505C21.669 10.3019 21.8426 10.188 22.0343 10.1173C22.0941 10.1083 22.1496 10.0806 22.193 10.0379C22.2365 9.99517 22.2656 9.93973 22.2764 9.87932C22.5263 8.89567 22.7761 7.90408 23.0573 6.92042C23.0745 6.85002 23.0647 6.77558 23.0299 6.71222C22.9951 6.64887 22.9379 6.60135 22.8699 6.57931ZM16.1233 32.4003L21.0349 28.9258L20.5663 28.8464L17.7241 28.4022C17.6813 28.4001 17.6385 28.4067 17.5982 28.4217C17.558 28.4367 17.5211 28.4597 17.4898 28.4895C17.3398 28.6806 17.1307 28.8147 16.8964 28.8702C16.8619 28.8816 16.8302 28.9001 16.8033 28.9247C16.7764 28.9493 16.7549 28.9794 16.7402 29.013C16.4825 30.0284 16.2327 31.0359 15.9594 32.0433C15.9445 32.0775 15.9371 32.1144 15.9375 32.1517C15.9379 32.189 15.9461 32.2258 15.9616 32.2596C15.9772 32.2934 15.9996 32.3234 16.0275 32.3477C16.0554 32.372 16.0881 32.3899 16.1233 32.4003ZM12.3987 25.594C12.3987 25.4671 12.3518 25.4037 12.3284 25.3323C11.9848 24.3962 11.6257 23.4681 11.3133 22.5161C11.1884 22.1195 10.7589 22.2782 10.5793 22.0084C10.5793 22.0084 10.431 22.0084 10.3607 22.0084L6.80783 22.8017C6.74497 22.8272 6.6848 22.8591 6.62823 22.8969L12.3987 25.594ZM26.6413 13.3856L26.6023 13.4332L27.7501 16.6063C27.7501 16.6063 27.836 16.6856 27.8829 16.7094L28.3514 16.9156C28.418 16.9533 28.4941 16.9698 28.57 16.9632L31.5451 16.3128L32.3259 16.1462V16.0668L26.6413 13.3856ZM21.0349 24.2455L21.2301 24.3248L24.5877 25.3561C24.8064 25.4195 24.9547 25.4512 25.1031 25.2133C25.1493 25.1599 25.182 25.0959 25.1984 25.0268C25.2147 24.9576 25.2141 24.8855 25.1968 24.8166C24.9859 23.9282 24.7829 23.0397 24.5721 22.1512L24.33 21.0962L21.0349 24.2455ZM17.9115 14.7262L17.6928 14.6469L14.2649 13.5918C14.1965 13.573 14.1243 13.5727 14.0557 13.591C13.9871 13.6092 13.9244 13.6455 13.8739 13.696C13.8233 13.7466 13.7867 13.8097 13.7676 13.8791C13.7485 13.9485 13.7477 14.0218 13.7652 14.0916L14.3508 16.6063L14.6397 17.8517L17.9115 14.7262ZM16.4669 10.4187V10.3632L15.3113 10.1808L10.7823 9.45889C10.7277 9.45889 10.6184 9.45889 10.6027 9.52235C10.5913 9.55855 10.5889 9.59706 10.5957 9.63443C10.6025 9.67181 10.6184 9.70689 10.6418 9.73654C11.3367 10.5298 12.0395 11.3231 12.7423 12.1163C12.7702 12.1397 12.8031 12.1561 12.8383 12.1643C12.8735 12.1726 12.9101 12.1725 12.9453 12.1639C13.19 12.0918 13.4525 12.1174 13.6793 12.2353C13.7123 12.2509 13.7483 12.259 13.7847 12.259C13.8211 12.259 13.8571 12.2509 13.8901 12.2353C14.2337 12.0053 14.5616 11.7673 14.8974 11.5373L16.4669 10.4187ZM22.4404 28.545L22.5341 28.6005L24.7205 28.9496L28.1093 29.489C28.1789 29.5038 28.2506 29.5038 28.3202 29.489C28.2967 29.4268 28.2652 29.3681 28.2265 29.3145C27.5237 28.5212 26.8209 27.7279 26.1104 26.9347C26.0415 26.8846 25.9605 26.8544 25.8761 26.8474C25.6713 26.8253 25.4679 26.7908 25.267 26.7443C25.2252 26.7166 25.1764 26.7019 25.1265 26.7019C25.0766 26.7019 25.0278 26.7166 24.9859 26.7443L22.6434 28.4102L22.4404 28.545ZM23.0104 15.6781C23.0186 15.6256 23.0186 15.572 23.0104 15.5195C22.7527 14.393 22.495 13.2666 22.2296 12.1481C22.2296 12.0767 22.1202 12.0212 22.0578 11.9736C21.9953 11.926 21.9328 11.9736 21.8782 11.918C21.8235 11.8625 21.6127 11.8784 21.4956 11.9894L19.2936 14.0995C19.1921 14.2027 19.0827 14.2978 18.9344 14.4248L23.0104 15.6781ZM15.8891 23.2618L16.2327 24.7611C16.3966 25.4433 16.545 26.1255 16.709 26.8077C16.7325 26.8818 16.7827 26.9441 16.8495 26.9823C16.9823 27.0326 17.1179 27.075 17.2556 27.1092L19.9729 24.5073L15.8891 23.2618ZM25.6965 12.3464V12.2036C25.064 10.4663 24.4394 8.73701 23.8069 7.00768C23.7897 6.97075 23.7634 6.93894 23.7305 6.91532C23.6977 6.8917 23.6595 6.87707 23.6195 6.87282C23.557 6.87282 23.4711 6.96009 23.4477 7.02355C23.1822 8.031 22.9245 9.03053 22.6668 10.03C22.6622 10.0725 22.666 10.1154 22.6781 10.1563C22.6902 10.1972 22.7102 10.2352 22.7371 10.268C22.8312 10.3307 22.9092 10.4151 22.9649 10.5144C23.0205 10.6137 23.0522 10.725 23.0573 10.8392C23.0573 11.1168 23.2134 11.1882 23.4008 11.2596L23.5336 11.3231L25.6965 12.3464ZM13.2576 26.6253C13.2576 26.7205 13.2576 26.7839 13.3201 26.8395L15.1317 31.8609C15.2019 32.0671 15.3034 32.1227 15.5065 32.0513C15.772 30.9962 16.0452 29.9412 16.2873 28.8782C16.293 28.8437 16.2903 28.8083 16.2794 28.7751C16.2685 28.7419 16.2498 28.7119 16.2248 28.6878C16.1227 28.6069 16.04 28.5034 15.9832 28.3852C15.9264 28.267 15.8969 28.1372 15.8969 28.0056C15.8969 27.8787 15.8344 27.8231 15.7251 27.7755L13.4606 26.7125L13.2576 26.6253ZM28.203 23.1111C28.1686 23.1364 28.1372 23.1657 28.1093 23.1984C27.5705 23.8806 27.0396 24.5628 26.5476 25.2609C26.5476 25.3085 26.5476 25.4116 26.5476 25.4909C26.5627 25.7551 26.5627 26.02 26.5476 26.2842C26.5309 26.335 26.5272 26.3893 26.5368 26.4421C26.5463 26.4948 26.5689 26.5442 26.6023 26.5856C27.1255 27.1647 27.6408 27.7517 28.164 28.3388C28.328 28.5291 28.4998 28.7275 28.6715 28.9099C28.693 28.9279 28.7182 28.9408 28.7452 28.9476C28.7722 28.9545 28.8004 28.9552 28.8277 28.9496C28.8668 28.9496 28.8902 28.8623 28.9058 28.8068C28.9097 28.7513 28.9097 28.6957 28.9058 28.6402C28.7496 27.2678 28.6013 25.8955 28.4529 24.5311C28.3124 24.0789 28.2577 23.6188 28.203 23.1111ZM10.7433 15.8527L10.8214 15.8051C11.368 15.0991 11.9146 14.401 12.4534 13.695C12.4667 13.6651 12.4736 13.6326 12.4736 13.5998C12.4736 13.5669 12.4667 13.5345 12.4534 13.5046C12.3476 13.2236 12.3476 12.9129 12.4534 12.632C12.4669 12.6007 12.4739 12.567 12.4739 12.5328C12.4739 12.4987 12.4669 12.4649 12.4534 12.4337C11.7584 11.6404 11.0556 10.8471 10.3529 10.0538C10.336 10.0273 10.3129 10.0054 10.2857 9.99015C10.2584 9.97491 10.2278 9.96681 10.1967 9.96658C10.1704 9.98545 10.1489 10.0104 10.134 10.0394C10.119 10.0683 10.1111 10.1005 10.1108 10.1332C10.1174 10.3035 10.1357 10.4731 10.1655 10.6409C10.2123 11.0851 10.267 11.5373 10.3138 11.9815C10.3607 12.4257 10.3997 12.87 10.4544 13.3063C10.509 13.7426 10.5559 14.2344 10.6106 14.6945C10.6652 15.1546 10.7043 15.464 10.7433 15.8527ZM15.2878 22.5241L14.4211 18.7798L14.2181 18.9623L12.2972 20.8027C12.1488 20.9455 11.9848 21.0565 12.0239 21.3262C12.0629 21.5959 12.0239 21.5484 12.2113 21.588L13.1327 21.8657L15.2878 22.5241ZM26.9303 17.463L23.6585 16.4635L24.5174 20.1601C24.5643 20.1601 24.5877 20.1601 24.6033 20.1205C25.3842 19.3986 26.1104 18.6846 26.86 17.9548C26.9 17.9113 26.9247 17.8555 26.9303 17.7962C26.9381 17.701 26.9303 17.5979 26.9303 17.463Z" fill="white"/>
</svg>
