<svg width="147" height="116" viewBox="0 0 147 116" fill="none" xmlns="http://www.w3.org/2000/svg">
<g filter="url(#filter0_d_834_700)">
<path d="M73 4L105.837 19.8134L113.947 55.3459L91.2231 83.8407H54.7769L32.053 55.3459L40.1631 19.8134L73 4Z" fill="white"/>
</g>
<path d="M2.31925 112H0.572088L4.49787 101.091H6.3995L10.3253 112H8.57812L5.49396 103.072H5.40874L2.31925 112ZM2.61222 107.728H8.27983V109.113H2.61222V107.728ZM11.7728 112V103.818H13.3122V105.118H13.3975C13.5466 104.678 13.8094 104.331 14.1858 104.079C14.5658 103.824 14.9955 103.696 15.4749 103.696C15.5743 103.696 15.6915 103.699 15.8264 103.706C15.9649 103.713 16.0732 103.722 16.1514 103.733V105.256C16.0874 105.239 15.9738 105.219 15.8105 105.198C15.6471 105.173 15.4838 105.161 15.3204 105.161C14.944 105.161 14.6084 105.24 14.3137 105.4C14.0225 105.556 13.7916 105.775 13.6212 106.055C13.4507 106.332 13.3655 106.648 13.3655 107.004V112H11.7728ZM21.8323 103.818V105.097H17.3632V103.818H21.8323ZM18.5617 101.858H20.1544V109.598C20.1544 109.907 20.2006 110.139 20.2929 110.295C20.3852 110.448 20.5042 110.553 20.6498 110.61C20.7989 110.663 20.9605 110.69 21.1345 110.69C21.2623 110.69 21.3742 110.681 21.4701 110.663C21.566 110.645 21.6405 110.631 21.6938 110.62L21.9814 111.936C21.8891 111.972 21.7577 112.007 21.5873 112.043C21.4168 112.082 21.2037 112.103 20.9481 112.107C20.529 112.114 20.1384 112.039 19.7762 111.883C19.414 111.727 19.121 111.485 18.8973 111.158C18.6736 110.832 18.5617 110.422 18.5617 109.928V101.858ZM23.5941 112V103.818H25.1868V112H23.5941ZM24.3984 102.556C24.1214 102.556 23.8835 102.463 23.6847 102.279C23.4893 102.091 23.3917 101.867 23.3917 101.608C23.3917 101.345 23.4893 101.121 23.6847 100.936C23.8835 100.748 24.1214 100.654 24.3984 100.654C24.6754 100.654 24.9116 100.748 25.1069 100.936C25.3058 101.121 25.4052 101.345 25.4052 101.608C25.4052 101.867 25.3058 102.091 25.1069 102.279C24.9116 102.463 24.6754 102.556 24.3984 102.556ZM31.2233 103.818V105.097H26.5997V103.818H31.2233ZM27.8675 112V102.87C27.8675 102.359 27.9793 101.934 28.203 101.597C28.4268 101.256 28.7233 101.002 29.0926 100.835C29.4619 100.665 29.8632 100.58 30.2964 100.58C30.616 100.58 30.8895 100.606 31.1167 100.659C31.344 100.709 31.5127 100.755 31.6228 100.798L31.2499 102.087C31.1753 102.066 31.0795 102.041 30.9623 102.012C30.8451 101.98 30.703 101.964 30.5361 101.964C30.1491 101.964 29.8721 102.06 29.7052 102.252C29.5418 102.444 29.4601 102.721 29.4601 103.083V112H27.8675ZM32.8666 112V103.818H34.4593V112H32.8666ZM33.6709 102.556C33.3939 102.556 33.156 102.463 32.9571 102.279C32.7618 102.091 32.6642 101.867 32.6642 101.608C32.6642 101.345 32.7618 101.121 32.9571 100.936C33.156 100.748 33.3939 100.654 33.6709 100.654C33.9479 100.654 34.184 100.748 34.3794 100.936C34.5782 101.121 34.6776 101.345 34.6776 101.608C34.6776 101.867 34.5782 102.091 34.3794 102.279C34.184 102.463 33.9479 102.556 33.6709 102.556ZM40.0483 112.165C39.2564 112.165 38.5746 111.986 38.0028 111.627C37.4347 111.265 36.9979 110.766 36.6925 110.13C36.3871 109.495 36.2344 108.767 36.2344 107.946C36.2344 107.115 36.3906 106.382 36.7031 105.746C37.0156 105.107 37.456 104.608 38.0241 104.25C38.5923 103.891 39.2617 103.712 40.0323 103.712C40.6538 103.712 41.2077 103.827 41.6942 104.058C42.1808 104.285 42.5732 104.605 42.8714 105.017C43.1733 105.429 43.3526 105.91 43.4094 106.46H41.8594C41.7741 106.077 41.5788 105.746 41.2734 105.469C40.9716 105.192 40.5668 105.054 40.0589 105.054C39.6151 105.054 39.2262 105.171 38.8924 105.406C38.5621 105.636 38.3047 105.967 38.12 106.396C37.9354 106.822 37.843 107.327 37.843 107.909C37.843 108.506 37.9336 109.021 38.1147 109.454C38.2958 109.887 38.5515 110.223 38.8817 110.461C39.2156 110.699 39.608 110.817 40.0589 110.817C40.3608 110.817 40.6342 110.762 40.8793 110.652C41.1278 110.539 41.3356 110.377 41.5025 110.168C41.6729 109.958 41.7919 109.706 41.8594 109.411H43.4094C43.3526 109.94 43.1804 110.413 42.8928 110.828C42.6051 111.244 42.2198 111.57 41.7369 111.808C41.2575 112.046 40.6946 112.165 40.0483 112.165ZM45.1127 112V103.818H46.7053V112H45.1127ZM45.917 102.556C45.64 102.556 45.4021 102.463 45.2032 102.279C45.0079 102.091 44.9102 101.867 44.9102 101.608C44.9102 101.345 45.0079 101.121 45.2032 100.936C45.4021 100.748 45.64 100.654 45.917 100.654C46.194 100.654 46.4301 100.748 46.6254 100.936C46.8243 101.121 46.9237 101.345 46.9237 101.608C46.9237 101.867 46.8243 102.091 46.6254 102.279C46.4301 102.463 46.194 102.556 45.917 102.556ZM51.229 112.181C50.7106 112.181 50.2418 112.085 49.8228 111.893C49.4038 111.698 49.0717 111.416 48.8267 111.047C48.5852 110.677 48.4645 110.224 48.4645 109.688C48.4645 109.227 48.5533 108.847 48.7308 108.548C48.9084 108.25 49.1481 108.014 49.4499 107.84C49.7518 107.666 50.0891 107.534 50.462 107.446C50.8349 107.357 51.2148 107.289 51.6019 107.243C52.092 107.186 52.4897 107.14 52.7951 107.105C53.1005 107.066 53.3224 107.004 53.4609 106.918C53.5994 106.833 53.6687 106.695 53.6687 106.503V106.466C53.6687 106 53.5373 105.64 53.2745 105.384C53.0153 105.129 52.6282 105.001 52.1133 105.001C51.5771 105.001 51.1545 105.12 50.8455 105.358C50.5401 105.592 50.3288 105.853 50.2116 106.141L48.7148 105.8C48.8924 105.303 49.1516 104.901 49.4925 104.596C49.837 104.287 50.233 104.063 50.6804 103.925C51.1278 103.783 51.5984 103.712 52.092 103.712C52.4187 103.712 52.7649 103.751 53.1307 103.829C53.5 103.903 53.8445 104.042 54.1641 104.244C54.4872 104.447 54.7518 104.736 54.9577 105.113C55.1637 105.485 55.2667 105.97 55.2667 106.567V112H53.7113V110.881H53.6474C53.5444 111.087 53.3899 111.29 53.1839 111.489C52.978 111.687 52.7134 111.853 52.3903 111.984C52.0671 112.115 51.68 112.181 51.229 112.181ZM51.5753 110.903C52.0156 110.903 52.392 110.816 52.7045 110.642C53.0206 110.468 53.2603 110.24 53.4237 109.96C53.5906 109.676 53.674 109.372 53.674 109.049V107.994C53.6172 108.051 53.5071 108.104 53.3438 108.154C53.1839 108.2 53.0011 108.241 52.7951 108.277C52.5891 108.309 52.3885 108.339 52.1932 108.367C51.9979 108.392 51.8345 108.413 51.7031 108.431C51.3942 108.47 51.1119 108.536 50.8562 108.628C50.604 108.721 50.4016 108.854 50.2489 109.028C50.0998 109.198 50.0252 109.425 50.0252 109.71C50.0252 110.104 50.1708 110.402 50.462 110.604C50.7532 110.803 51.1243 110.903 51.5753 110.903ZM58.9807 101.091V112H57.3881V101.091H58.9807ZM66.7937 101.091V112H65.1477V101.091H66.7937ZM70.6555 107.142V112H69.0629V103.818H70.5916V105.15H70.6928C70.881 104.717 71.1758 104.369 71.5771 104.106C71.9819 103.843 72.4915 103.712 73.1058 103.712C73.6634 103.712 74.1516 103.829 74.5707 104.063C74.9897 104.294 75.3146 104.638 75.5455 105.097C75.7763 105.555 75.8917 106.121 75.8917 106.796V112H74.299V106.988C74.299 106.395 74.1445 105.931 73.8356 105.597C73.5266 105.26 73.1023 105.091 72.5625 105.091C72.1932 105.091 71.8647 105.171 71.5771 105.331C71.293 105.491 71.0675 105.725 70.9006 106.034C70.7372 106.339 70.6555 106.709 70.6555 107.142ZM81.8469 103.818V105.097H77.3778V103.818H81.8469ZM78.5763 101.858H80.169V109.598C80.169 109.907 80.2152 110.139 80.3075 110.295C80.3999 110.448 80.5188 110.553 80.6644 110.61C80.8136 110.663 80.9751 110.69 81.1491 110.69C81.277 110.69 81.3888 110.681 81.4847 110.663C81.5806 110.645 81.6552 110.631 81.7085 110.62L81.9961 111.936C81.9038 111.972 81.7724 112.007 81.6019 112.043C81.4315 112.082 81.2184 112.103 80.9627 112.107C80.5437 112.114 80.1531 112.039 79.7908 111.883C79.4286 111.727 79.1357 111.485 78.9119 111.158C78.6882 110.832 78.5763 110.422 78.5763 109.928V101.858ZM87.0471 112.165C86.241 112.165 85.5468 111.993 84.9644 111.648C84.3856 111.3 83.9381 110.812 83.6221 110.184C83.3096 109.551 83.1533 108.811 83.1533 107.962C83.1533 107.124 83.3096 106.386 83.6221 105.746C83.9381 105.107 84.3785 104.608 84.9431 104.25C85.5113 103.891 86.1753 103.712 86.9353 103.712C87.3969 103.712 87.8444 103.788 88.2776 103.941C88.7108 104.093 89.0997 104.333 89.4442 104.66C89.7886 104.987 90.0603 105.411 90.2591 105.933C90.458 106.451 90.5574 107.082 90.5574 107.824V108.388H84.0535V107.195H88.9967C88.9967 106.776 88.9115 106.405 88.741 106.082C88.5706 105.755 88.3309 105.498 88.0219 105.31C87.7165 105.121 87.3579 105.027 86.9459 105.027C86.4985 105.027 86.1079 105.137 85.7741 105.358C85.4438 105.574 85.1881 105.858 85.007 106.21C84.8295 106.558 84.7407 106.936 84.7407 107.344V108.277C84.7407 108.824 84.8366 109.289 85.0283 109.672C85.2236 110.056 85.4953 110.349 85.8433 110.551C86.1913 110.75 86.5979 110.849 87.0631 110.849C87.365 110.849 87.6402 110.807 87.8888 110.722C88.1373 110.633 88.3522 110.501 88.5333 110.327C88.7144 110.153 88.8529 109.939 88.9488 109.683L90.4562 109.955C90.3355 110.398 90.1189 110.787 89.8064 111.121C89.4974 111.451 89.1086 111.709 88.6398 111.893C88.1746 112.075 87.6437 112.165 87.0471 112.165ZM93.9173 101.091V112H92.3246V101.091H93.9173ZM97.6526 101.091V112H96.0599V101.091H97.6526ZM99.7953 112V103.818H101.388V112H99.7953ZM100.6 102.556C100.323 102.556 100.085 102.463 99.8858 102.279C99.6905 102.091 99.5929 101.867 99.5929 101.608C99.5929 101.345 99.6905 101.121 99.8858 100.936C100.085 100.748 100.323 100.654 100.6 100.654C100.877 100.654 101.113 100.748 101.308 100.936C101.507 101.121 101.606 101.345 101.606 101.608C101.606 101.867 101.507 102.091 101.308 102.279C101.113 102.463 100.877 102.556 100.6 102.556ZM106.961 115.239C106.311 115.239 105.752 115.153 105.283 114.983C104.818 114.813 104.438 114.587 104.143 114.306C103.848 114.026 103.628 113.719 103.483 113.385L104.852 112.82C104.948 112.977 105.075 113.142 105.235 113.316C105.399 113.493 105.619 113.644 105.896 113.768C106.176 113.893 106.537 113.955 106.977 113.955C107.581 113.955 108.08 113.808 108.474 113.513C108.868 113.222 109.065 112.756 109.065 112.117V110.509H108.964C108.868 110.683 108.729 110.876 108.548 111.089C108.371 111.302 108.126 111.487 107.813 111.643C107.501 111.799 107.094 111.877 106.593 111.877C105.947 111.877 105.365 111.727 104.846 111.425C104.331 111.119 103.923 110.67 103.621 110.077C103.323 109.48 103.174 108.747 103.174 107.877C103.174 107.007 103.321 106.261 103.616 105.64C103.914 105.018 104.323 104.543 104.841 104.212C105.359 103.879 105.947 103.712 106.604 103.712C107.112 103.712 107.522 103.797 107.835 103.967C108.147 104.134 108.39 104.33 108.564 104.553C108.742 104.777 108.879 104.974 108.975 105.145H109.092V103.818H110.652V112.181C110.652 112.884 110.489 113.461 110.162 113.912C109.836 114.363 109.394 114.697 108.836 114.914C108.282 115.13 107.657 115.239 106.961 115.239ZM106.945 110.556C107.403 110.556 107.79 110.45 108.106 110.237C108.426 110.02 108.667 109.711 108.831 109.31C108.998 108.905 109.081 108.42 109.081 107.856C109.081 107.305 108.999 106.821 108.836 106.402C108.673 105.983 108.433 105.656 108.117 105.422C107.801 105.184 107.41 105.065 106.945 105.065C106.466 105.065 106.066 105.189 105.747 105.438C105.427 105.683 105.185 106.016 105.022 106.439C104.862 106.862 104.782 107.334 104.782 107.856C104.782 108.392 104.864 108.863 105.027 109.267C105.191 109.672 105.432 109.988 105.752 110.216C106.075 110.443 106.473 110.556 106.945 110.556ZM116.315 112.165C115.509 112.165 114.814 111.993 114.232 111.648C113.653 111.3 113.206 110.812 112.89 110.184C112.577 109.551 112.421 108.811 112.421 107.962C112.421 107.124 112.577 106.386 112.89 105.746C113.206 105.107 113.646 104.608 114.211 104.25C114.779 103.891 115.443 103.712 116.203 103.712C116.665 103.712 117.112 103.788 117.545 103.941C117.978 104.093 118.367 104.333 118.712 104.66C119.056 104.987 119.328 105.411 119.527 105.933C119.726 106.451 119.825 107.082 119.825 107.824V108.388H113.321V107.195H118.264C118.264 106.776 118.179 106.405 118.009 106.082C117.838 105.755 117.598 105.498 117.29 105.31C116.984 105.121 116.625 105.027 116.214 105.027C115.766 105.027 115.375 105.137 115.042 105.358C114.711 105.574 114.456 105.858 114.275 106.21C114.097 106.558 114.008 106.936 114.008 107.344V108.277C114.008 108.824 114.104 109.289 114.296 109.672C114.491 110.056 114.763 110.349 115.111 110.551C115.459 110.75 115.866 110.849 116.331 110.849C116.633 110.849 116.908 110.807 117.156 110.722C117.405 110.633 117.62 110.501 117.801 110.327C117.982 110.153 118.12 109.939 118.216 109.683L119.724 109.955C119.603 110.398 119.386 110.787 119.074 111.121C118.765 111.451 118.376 111.709 117.907 111.893C117.442 112.075 116.911 112.165 116.315 112.165ZM123.185 107.142V112H121.592V103.818H123.121V105.15H123.222C123.41 104.717 123.705 104.369 124.106 104.106C124.511 103.843 125.021 103.712 125.635 103.712C126.193 103.712 126.681 103.829 127.1 104.063C127.519 104.294 127.844 104.638 128.075 105.097C128.306 105.555 128.421 106.121 128.421 106.796V112H126.828V106.988C126.828 106.395 126.674 105.931 126.365 105.597C126.056 105.26 125.632 105.091 125.092 105.091C124.722 105.091 124.394 105.171 124.106 105.331C123.822 105.491 123.597 105.725 123.43 106.034C123.267 106.339 123.185 106.709 123.185 107.142ZM134.003 112.165C133.211 112.165 132.53 111.986 131.958 111.627C131.39 111.265 130.953 110.766 130.648 110.13C130.342 109.495 130.189 108.767 130.189 107.946C130.189 107.115 130.346 106.382 130.658 105.746C130.971 105.107 131.411 104.608 131.979 104.25C132.547 103.891 133.217 103.712 133.987 103.712C134.609 103.712 135.163 103.827 135.649 104.058C136.136 104.285 136.528 104.605 136.827 105.017C137.128 105.429 137.308 105.91 137.365 106.46H135.814C135.729 106.077 135.534 105.746 135.229 105.469C134.927 105.192 134.522 105.054 134.014 105.054C133.57 105.054 133.181 105.171 132.847 105.406C132.517 105.636 132.26 105.967 132.075 106.396C131.89 106.822 131.798 107.327 131.798 107.909C131.798 108.506 131.889 109.021 132.07 109.454C132.251 109.887 132.507 110.223 132.837 110.461C133.171 110.699 133.563 110.817 134.014 110.817C134.316 110.817 134.589 110.762 134.834 110.652C135.083 110.539 135.291 110.377 135.458 110.168C135.628 109.958 135.747 109.706 135.814 109.411H137.365C137.308 109.94 137.135 110.413 136.848 110.828C136.56 111.244 136.175 111.57 135.692 111.808C135.213 112.046 134.65 112.165 134.003 112.165ZM142.594 112.165C141.788 112.165 141.094 111.993 140.511 111.648C139.932 111.3 139.485 110.812 139.169 110.184C138.856 109.551 138.7 108.811 138.7 107.962C138.7 107.124 138.856 106.386 139.169 105.746C139.485 105.107 139.925 104.608 140.49 104.25C141.058 103.891 141.722 103.712 142.482 103.712C142.944 103.712 143.391 103.788 143.824 103.941C144.258 104.093 144.647 104.333 144.991 104.66C145.335 104.987 145.607 105.411 145.806 105.933C146.005 106.451 146.104 107.082 146.104 107.824V108.388H139.6V107.195H144.544C144.544 106.776 144.458 106.405 144.288 106.082C144.117 105.755 143.878 105.498 143.569 105.31C143.263 105.121 142.905 105.027 142.493 105.027C142.045 105.027 141.655 105.137 141.321 105.358C140.991 105.574 140.735 105.858 140.554 106.21C140.376 106.558 140.288 106.936 140.288 107.344V108.277C140.288 108.824 140.383 109.289 140.575 109.672C140.771 110.056 141.042 110.349 141.39 110.551C141.738 110.75 142.145 110.849 142.61 110.849C142.912 110.849 143.187 110.807 143.436 110.722C143.684 110.633 143.899 110.501 144.08 110.327C144.261 110.153 144.4 109.939 144.496 109.683L146.003 109.955C145.882 110.398 145.666 110.787 145.353 111.121C145.044 111.451 144.655 111.709 144.187 111.893C143.722 112.075 143.191 112.165 142.594 112.165Z" fill="black"/>
<path fill-rule="evenodd" clip-rule="evenodd" d="M73.0766 21.0663C69.0017 21.4229 64.9139 23.0075 61.6364 25.5009C57.5022 28.6463 54.6769 33.6885 54.2246 38.7284C54.0897 40.2316 54.1711 41.0318 54.676 43.1677C54.8601 43.9465 55.0554 45.0209 55.1098 45.555C55.2913 47.3341 55.0141 48.1505 53.3254 50.8118C52.2457 52.5131 52 53.0646 52 53.7855C52 54.4358 52.2663 54.903 52.8823 55.3331C53.2487 55.589 54.0538 55.8597 54.468 55.8663C54.979 55.8743 55.1978 56.3422 55.1978 57.4272C55.1978 58.423 55.3499 59.1185 55.6448 59.4718C55.8419 59.7077 55.8705 59.8191 55.8186 60.1467C55.6967 60.9151 56.2603 61.6624 57.2258 62.0124C57.6647 62.1715 57.6688 62.1771 57.6575 62.607C57.5889 65.2421 57.5854 65.1707 57.8116 65.6999C58.2125 66.637 59.185 67.31 60.5186 67.5731C61.8666 67.8389 65.556 67.3121 68.1982 66.4763L68.9402 66.2417L69.2816 66.985C69.7027 67.9019 69.8919 68.5464 70.0731 69.6816C70.1885 70.4051 70.2576 70.5994 70.4633 70.7803L70.7133 71H81.3232H91.9333L92.1711 70.7603C92.5394 70.3892 92.4924 69.9511 92.0229 69.3786C90.8872 67.9935 88.6769 62.2313 88.3931 59.9159C88.3361 59.4508 88.3658 59.365 89.0182 58.1093C91.748 52.8547 92.8294 49.9078 93.7307 45.2673C93.9807 43.9799 93.9965 43.7406 93.9998 41.1657C94.0027 38.975 93.9699 38.2469 93.8346 37.5036C93.1775 33.8914 92.2215 31.3957 90.4867 28.7633C89.6411 27.4802 87.4012 25.2018 86.1335 24.3353C82.7077 21.9936 77.4687 20.682 73.0766 21.0663ZM78.0672 22.9568C80.8212 23.4564 83.208 24.3811 85.1865 25.7147C86.4652 26.5766 88.3208 28.4788 89.2082 29.8375C90.8729 32.3863 91.949 35.4369 92.3084 38.6267C92.4363 39.7622 92.437 42.5002 92.3095 43.5609C91.9676 46.4085 90.9164 50.1477 89.6015 53.1945C89.2962 53.902 88.5862 55.3522 88.0238 56.4172C86.8108 58.7138 86.6916 58.9893 86.6916 59.4975C86.6916 61.2137 88.2892 65.9813 89.9651 69.2666C89.9857 69.3069 85.883 69.3398 80.848 69.3398H71.6935L71.6255 68.8828C71.5347 68.2722 71.0641 66.8378 70.7495 66.212C70.6098 65.9342 70.5094 65.6958 70.5264 65.6818C70.5433 65.6679 70.9549 65.4811 71.4411 65.2667C73.3785 64.4126 75.148 63.2594 75.8239 62.4104C76.2522 61.8724 76.2793 61.4032 75.901 61.0753C75.754 60.9479 75.5381 60.8438 75.4211 60.844C75.1479 60.8445 74.6198 61.1687 74.4602 61.4339C74.2987 61.7025 73.364 62.4116 72.5063 62.9164C69.872 64.4669 64.6794 65.9424 61.7873 65.9624C60.6785 65.97 60.5355 65.95 60.0972 65.7265C59.3291 65.3349 59.2323 65.1313 59.2755 63.9992C59.3403 62.3015 59.309 61.6919 59.1403 61.365C58.9325 60.9624 58.5625 60.6758 58.0676 60.5342C57.8483 60.4715 57.6323 60.3884 57.5875 60.3496C57.5427 60.3109 57.701 60.144 57.9392 59.9789C58.5614 59.5476 58.6709 59.1103 58.2735 58.6447C58.0952 58.4358 57.9437 58.3778 57.4612 58.3338L56.8682 58.2796L56.8279 57.1384C56.7906 56.0881 56.764 55.955 56.4932 55.4664C56.1204 54.7935 55.511 54.3603 54.7437 54.2226C53.3028 53.964 53.3024 53.9323 54.7121 51.7195C55.7301 50.1212 56.302 49.0228 56.5713 48.1482C56.7647 47.5198 56.794 47.2354 56.7776 46.1463C56.7671 45.448 56.6961 44.5919 56.6199 44.244C56.4601 43.5145 56.3865 43.6292 57.4934 42.8814C57.8765 42.6225 58.5211 42.289 58.9256 42.1403C59.594 41.8946 59.7372 41.8757 60.4885 41.9339C61.3101 41.9976 61.3174 41.9961 61.5999 41.7114C62.2133 41.0933 61.7953 40.4361 60.6682 40.2467C59.4924 40.0491 58.0308 40.4945 56.5568 41.4996C56.3182 41.6623 56.0924 41.7636 56.0549 41.7247C56.0174 41.6859 55.9375 41.2873 55.8772 40.8392C55.6927 39.4682 55.9139 37.6727 56.5122 35.6833C57.9817 30.7977 61.2067 27.0754 65.9735 24.7631C68.0576 23.7521 70.216 23.108 72.5436 22.8025C73.9518 22.6176 76.6066 22.6918 78.0672 22.9568ZM73.7549 24.4079C72.9654 24.6124 72.415 25.0696 72.0269 25.8437C71.878 26.1408 71.843 26.1532 70.2659 26.4684L68.6568 26.79L68.3957 26.5955C67.8249 26.1702 67.4623 26.0419 66.8263 26.04C65.7966 26.0369 64.9518 26.605 64.5521 27.5691C64.3657 28.0185 64.3603 28.9766 64.5416 29.4137L64.6794 29.7462L63.8754 30.8226C63.1988 31.7283 63.012 31.9169 62.6959 32.0129C61.7786 32.2914 61.0846 33.2882 61.085 34.3261C61.0852 34.6504 61.1519 35.0756 61.2331 35.2712C61.4516 35.7968 62.0278 36.3892 62.5182 36.5924L62.9501 36.7712L63.5959 38.4023L64.2417 40.0336L64 40.4043C62.906 42.0829 63.8774 44.1327 65.8526 44.3131C66.3166 44.3556 66.507 44.3222 66.9358 44.1233C67.511 43.8565 68.01 43.3933 68.1875 42.9613L68.3034 42.6794H70.5688C72.4061 42.6794 72.8344 42.7043 72.8344 42.8113C72.8344 43.0649 73.4114 43.7428 73.8454 43.9991C74.1315 44.1681 74.4987 44.2802 74.9061 44.323L75.5291 44.3884L76.8592 46.4201L78.1892 48.4517L77.9271 48.9369C77.0028 50.6485 78.1507 52.6405 80.0616 52.6405C81.0962 52.6405 82.0584 51.965 82.3749 51.0167C82.4721 50.7252 82.7204 50.4548 83.4577 49.8374C83.9839 49.3968 84.4854 49.0343 84.5721 49.0317C84.6589 49.0292 84.8864 49.0931 85.0778 49.1736C86.4257 49.7412 88.0586 48.715 88.2909 47.1544C88.445 46.1191 87.7366 44.9042 86.7792 44.5615C86.3401 44.4043 86.2327 44.2963 85.5223 43.2993C84.8825 42.4012 84.7564 42.1649 84.8074 41.9599C84.8876 41.6381 84.9573 41.5887 85.7862 41.2657L86.4799 40.9955L86.8582 41.3019C87.8221 42.0825 89.3306 41.9307 90.1687 40.9686C90.618 40.4529 90.7616 40.0567 90.7616 39.3325C90.7616 38.2576 90.1305 37.3372 89.1759 37.0197C88.9032 36.929 88.7909 36.7649 88.252 35.6682L87.6386 34.4201L87.8917 34.0441C88.7274 32.8031 88.2939 31.173 86.9339 30.4422C86.4433 30.1786 85.3389 30.1505 84.9025 30.3905L84.6153 30.5485L83.9089 29.9668C83.2658 29.4371 83.209 29.3617 83.2741 29.1231C83.5657 28.0538 83.0444 26.8821 82.0296 26.3255C81.1878 25.8636 79.9957 25.9787 79.3572 26.5832L79.1426 26.7864L77.8934 26.4734L76.6443 26.1603L76.477 25.778C76.0501 24.803 74.7522 24.1497 73.7549 24.4079ZM74.8451 26.3012C75.3386 26.7565 74.953 27.6402 74.2608 27.6402C73.9302 27.6402 73.607 27.3877 73.4827 27.0326C73.3786 26.7346 73.6143 26.2618 73.9375 26.121C74.287 25.9685 74.5386 26.0185 74.8451 26.3012ZM67.5112 28.0921C67.8106 28.6558 67.4523 29.3004 66.8399 29.3004C66.3703 29.3004 66.0511 28.9842 66.0511 28.5191C66.0511 27.7117 67.1401 27.3933 67.5112 28.0921ZM81.6137 28.1851C81.6873 28.3628 81.7198 28.5876 81.6857 28.6846C81.3666 29.5931 80.1021 29.4609 80.1021 28.5191C80.1021 27.6505 81.2837 27.3893 81.6137 28.1851ZM72.1049 28.0224C72.1372 28.1251 72.3534 28.3943 72.5853 28.6208L73.0068 29.0326L72.2805 30.2472C71.7986 31.053 71.5102 31.4449 71.4233 31.4113C71.3514 31.3834 70.7656 31.0215 70.1213 30.607C69.2173 30.0252 68.9657 29.818 69.0185 29.6988C69.0562 29.614 69.153 29.2742 69.2336 28.9438L69.3802 28.343L70.5501 28.0996C72.0089 27.7962 72.0332 27.795 72.1049 28.0224ZM78.4548 28.7297C78.4548 29.5083 79.0711 30.4054 79.8599 30.7747C80.3404 30.9998 81.2988 31.018 81.7897 30.8113L82.1443 30.6619L82.8197 31.222L83.4951 31.782L83.4329 32.2745C83.3986 32.5455 83.3563 32.784 83.3387 32.8044C83.3212 32.8249 82.7148 32.9621 81.9912 33.1091L80.6755 33.3766L80.5368 33.1061C80.3313 32.7058 79.657 32.1643 79.146 31.9893C78.7848 31.8657 78.4176 31.5545 77.2677 30.3983C76.4815 29.6078 75.8384 28.9124 75.8384 28.8528C75.8384 28.7934 75.93 28.6611 76.0421 28.5589C76.1542 28.4567 76.3055 28.2569 76.3783 28.1149L76.5108 27.8568L77.4827 28.1024L78.4548 28.348V28.7297ZM76.5702 32.7256C76.3918 32.9247 76.2167 33.1802 76.1809 33.2935C76.1205 33.4855 76.0482 33.4997 75.1271 33.4997H74.1382L73.95 33.1476C73.8465 32.9538 73.6012 32.6569 73.4049 32.4875L73.048 32.1797L73.7329 31.0266L74.4179 29.8735L75.6562 31.1187L76.8945 32.3639L76.5702 32.7256ZM68.7159 31.6696C70.1219 32.5713 70.112 32.5613 69.8603 32.8384C69.7494 32.9604 69.6291 33.1591 69.5927 33.2799C69.5271 33.4977 69.51 33.4997 67.7012 33.4997H65.8757L65.6254 33.0692C65.4877 32.8325 65.2596 32.5539 65.1184 32.4503L64.8618 32.2619L65.367 31.5816L65.8723 30.9011L66.7612 30.9436L67.65 30.986L68.7159 31.6696ZM86.4442 32.1327C86.7355 32.4262 86.6975 32.9812 86.3664 33.2682C86.0221 33.5666 85.6257 33.5637 85.3007 33.2602C84.7215 32.7193 85.1908 31.7504 85.9646 31.8897C86.1242 31.9184 86.34 32.0278 86.4442 32.1327ZM63.9122 33.6425C64.0631 33.7211 64.2135 33.8565 64.2466 33.9435C64.5715 34.7967 63.6606 35.5305 63.0094 34.9401C62.6024 34.5711 62.6602 33.9044 63.121 33.6525C63.4583 33.4681 63.5747 33.4665 63.9122 33.6425ZM72.3931 33.7928C72.6844 34.0864 72.6465 34.6414 72.3153 34.9284C71.7761 35.3959 70.9896 35.0561 70.9963 34.3586C71.0035 33.6021 71.8597 33.2553 72.3931 33.7928ZM79.012 33.8505C79.4677 34.3646 79.1002 35.1494 78.4004 35.1567C77.83 35.1627 77.418 34.4878 77.6918 33.9961C77.9907 33.4595 78.6052 33.3917 79.012 33.8505ZM84.1319 34.5116C84.2143 34.7279 82.716 38.4031 82.5864 38.3028C81.8519 37.7351 80.1021 36.3002 80.1021 36.2656C80.1021 36.2408 80.233 36.0288 80.3929 35.7946C80.5528 35.5604 80.6836 35.3244 80.6836 35.2701C80.6836 35.2158 80.7364 35.1384 80.8009 35.0983C80.8907 35.0423 83.614 34.439 84.0055 34.3883C84.0472 34.383 84.1041 34.4384 84.1319 34.5116ZM69.7225 35.6457C69.8943 35.913 70.0767 36.1576 70.1277 36.1894C70.1788 36.2212 69.3848 36.9496 68.3631 37.808C66.5836 39.3034 66.4897 39.3676 66.1226 39.3396L65.7394 39.3103L65.2018 37.9547L64.6643 36.5991L65.0706 36.2589C65.2942 36.0717 65.5635 35.7479 65.6691 35.5392L65.8612 35.1598H67.6356H69.4101L69.7225 35.6457ZM76.2339 35.4722C76.3046 35.644 76.5335 35.9519 76.7427 36.1565L77.1229 36.5284L76.2823 37.9437C75.5259 39.2172 75.4149 39.3591 75.1752 39.3591C74.9239 39.3591 74.8683 39.2672 74.2006 37.7496L73.4924 36.1401L73.7381 35.8458C73.8733 35.684 74.0115 35.4633 74.0455 35.3556C74.102 35.1763 74.1914 35.1598 75.1064 35.1598H76.1055L76.2339 35.4722ZM86.6417 36.1335L87.1171 37.1071L86.6808 37.5405C86.2219 37.9965 85.9689 38.4804 85.87 39.0911C85.8203 39.3974 85.7521 39.4824 85.4573 39.6066C84.7963 39.885 84.7251 39.8755 84.4521 39.4738L84.199 39.1015L84.9784 37.1306C85.9386 34.7028 85.9422 34.7006 86.6417 36.1335ZM72.9149 38.9298L73.3936 40.0142L73.114 40.4337C72.9602 40.6646 72.8344 40.8906 72.8344 40.9362C72.8344 40.982 71.8176 41.0193 70.575 41.0193H68.3157L68.1473 40.6632C68.0546 40.4673 68.0138 40.2735 68.0566 40.2325C68.0994 40.1916 69.0066 39.4267 70.0726 38.5327L72.0107 36.9074L72.2234 37.3764C72.3404 37.6344 72.6516 38.3334 72.9149 38.9298ZM79.7881 38.1897C80.3871 38.6745 80.8774 39.0946 80.8774 39.1232C80.8774 39.1519 80.751 39.3374 80.5965 39.5357C80.442 39.734 80.2883 39.9891 80.2551 40.1024C80.2028 40.2803 80.0171 40.3444 78.9128 40.5664C78.2079 40.7081 77.5657 40.8222 77.4857 40.8198C77.4058 40.8176 77.2442 40.6636 77.1266 40.4777L76.9128 40.1398L77.7562 38.724C78.2201 37.9454 78.6219 37.3083 78.6492 37.3083C78.6764 37.3083 79.1889 37.705 79.7881 38.1897ZM88.6339 38.5778C88.8314 38.5778 89.1142 39.0226 89.1142 39.3331C89.1142 40.0287 88.2339 40.4189 87.7889 39.9206C87.5086 39.6067 87.4604 39.407 87.5809 39.0586C87.6895 38.7445 88.168 38.4443 88.4196 38.5325C88.4905 38.5574 88.587 38.5778 88.6339 38.5778ZM83.261 40.6852C83.4932 41.2452 83.1218 41.8005 82.5149 41.8005C82.0736 41.8005 81.7495 41.4506 81.7495 40.9742C81.7495 40.1468 82.9431 39.9186 83.261 40.6852ZM66.4471 41.1445C66.8916 41.4884 66.9312 42.0029 66.5431 42.394C66.1755 42.7644 65.8297 42.7644 65.4622 42.394C65.1591 42.0885 65.1146 41.8544 65.2869 41.4733C65.4697 41.0691 66.1138 40.8865 66.4471 41.1445ZM75.6634 41.3161C75.9097 41.5644 75.9482 41.6644 75.8983 41.9265C75.8301 42.2843 75.4365 42.6794 75.1482 42.6794C74.3918 42.6794 74.016 41.8081 74.5434 41.2767C74.8944 40.9229 75.2869 40.9367 75.6634 41.3161ZM80.4179 42.2751C80.6854 42.7316 81.3218 43.2469 81.7682 43.3687C82.0004 43.432 82.4855 43.461 82.8616 43.4342C83.6103 43.3808 83.5164 43.3232 84.1379 44.2168L84.494 44.7288L84.13 45.0851C83.5761 45.6272 83.3685 46.1975 83.4247 47.0228C83.458 47.5134 83.4356 47.732 83.3446 47.8041C83.275 47.8591 82.977 48.0945 82.6824 48.3272L82.1468 48.7504L81.8176 48.4187C81.3767 47.9743 80.8733 47.7475 80.1889 47.685L79.6215 47.6332L78.2944 45.586L76.9674 43.5389L77.2023 43.0847C77.3316 42.835 77.4471 42.6134 77.4591 42.5924C77.4785 42.5583 79.9045 42.0301 80.1539 42.0057C80.209 42.0002 80.3278 42.1215 80.4179 42.2751ZM86.4442 46.2929C86.7355 46.5865 86.6975 47.1415 86.3664 47.4285C86.0221 47.7269 85.6257 47.724 85.3007 47.4205C84.7215 46.8796 85.1908 45.9107 85.9646 46.05C86.1242 46.0787 86.34 46.1881 86.4442 46.2929ZM80.6593 49.671C80.9532 50.0023 80.9388 50.4034 80.6219 50.7229C79.983 51.3667 78.9014 50.6026 79.3391 49.8166C79.6381 49.28 80.2525 49.2122 80.6593 49.671Z" fill="#D4C114"/>
<defs>
<filter id="filter0_d_834_700" x="28.0547" y="0" width="89.8906" height="87.8408" filterUnits="userSpaceOnUse" color-interpolation-filters="sRGB">
<feFlood flood-opacity="0" result="BackgroundImageFix"/>
<feColorMatrix in="SourceAlpha" type="matrix" values="0 0 0 0 0 0 0 0 0 0 0 0 0 0 0 0 0 0 127 0" result="hardAlpha"/>
<feOffset/>
<feGaussianBlur stdDeviation="2"/>
<feComposite in2="hardAlpha" operator="out"/>
<feColorMatrix type="matrix" values="0 0 0 0 0 0 0 0 0 0 0 0 0 0 0 0 0 0 0.25 0"/>
<feBlend mode="normal" in2="BackgroundImageFix" result="effect1_dropShadow_834_700"/>
<feBlend mode="normal" in="SourceGraphic" in2="effect1_dropShadow_834_700" result="shape"/>
</filter>
</defs>
</svg>
