<svg width="54" height="54" viewBox="0 0 54 54" fill="none" xmlns="http://www.w3.org/2000/svg">
<path d="M10.3335 35.3331C11.9818 35.3331 13.5931 34.8443 14.9635 33.9286C16.334 33.0128 17.4021 31.7112 18.0328 30.1884C18.6635 28.6656 18.8285 26.9899 18.5069 25.3733C18.1852 23.7567 17.3914 22.2718 16.2258 21.1064C15.0602 19.941 13.5752 19.1474 11.9586 18.826C10.3419 18.5046 8.66631 18.6698 7.14357 19.3007C5.62084 19.9317 4.31941 21 3.40386 22.3706C2.4883 23.7412 1.99976 25.3525 2 27.0008C2.00262 29.2101 2.8815 31.3281 4.44381 32.8902C6.00611 34.4522 8.12427 35.3308 10.3335 35.3331Z" stroke="#B11919" stroke-width="4"/>
<path d="M43.6656 2C42.0174 2 40.4062 2.48875 39.0357 3.40446C37.6653 4.32016 36.5971 5.62167 35.9664 7.14443C35.3356 8.66718 35.1706 10.3428 35.4922 11.9593C35.8137 13.5759 36.6074 15.0608 37.7729 16.2262C38.9383 17.3917 40.4233 18.1854 42.0398 18.5069C43.6563 18.8285 45.3319 18.6635 46.8547 18.0327C48.3774 17.402 49.679 16.3338 50.5947 14.9634C51.5104 13.593 51.9991 11.9818 51.9991 10.3335C51.9968 8.12405 51.1181 6.00571 49.5558 4.44337C47.9934 2.88102 45.8751 2.00229 43.6656 2V2Z" stroke="#B11919" stroke-width="4"/>
<path d="M19.6523 20.0097L21.525 23.7316L34.3465 17.3214L32.4738 13.5996L19.6523 20.0097Z" fill="#B11919"/>
<path d="M43.6656 35.334C42.0174 35.334 40.4062 35.8227 39.0357 36.7384C37.6653 37.6541 36.5971 38.9557 35.9664 40.4784C35.3356 42.0012 35.1706 43.6768 35.4922 45.2933C35.8137 46.9099 36.6074 48.3948 37.7729 49.5602C38.9383 50.7257 40.4233 51.5194 42.0398 51.8409C43.6563 52.1625 45.3319 51.9975 46.8547 51.3667C48.3774 50.736 49.679 49.6678 50.5947 48.2974C51.5104 46.927 51.9991 45.3157 51.9991 43.6675C51.9968 41.458 51.1181 39.3397 49.5558 37.7773C47.9934 36.215 45.8751 35.3363 43.6656 35.334Z" stroke="#B11919" stroke-width="4"/>
<path d="M19.6523 33.9894L32.4738 40.4008L34.3465 36.6777L21.525 30.2676L19.6523 33.9894Z" fill="#B11919"/>
</svg>
