<svg width="50" height="50" viewBox="0 0 50 50" fill="none" xmlns="http://www.w3.org/2000/svg">
<path d="M25.0014 17.8194C34.9472 17.8194 43.9774 15.16 49.0816 10.7715C49.3551 10.5445 49.5782 10.2613 49.7362 9.94037C49.8942 9.61947 49.9835 9.26822 49.9983 8.90972C50.0126 8.54598 49.9361 8.18447 49.7758 7.85892C49.6155 7.53336 49.3767 7.25432 49.0816 7.04788C43.9774 2.65941 34.9483 0 25.0014 0C15.0544 0 6.02529 2.65941 0.921162 7.04788C0.647657 7.27487 0.424555 7.55813 0.266544 7.87903C0.108534 8.19993 0.0191994 8.55122 0.00440753 8.90972C0.00440753 9.0436 0.00440331 9.17518 0.136166 9.17518C0.136166 9.30906 0.00440753 9.44069 0.00440753 9.57457V41.0881C-0.0152839 41.2757 0.0314224 41.4643 0.136166 41.6202C0.127371 41.6925 0.134645 41.7659 0.157447 41.835C0.180249 41.9042 0.217994 41.9672 0.267925 42.0195C0.267925 42.1534 0.399697 42.285 0.529227 42.4189C0.658756 42.5527 0.660982 42.6844 0.790511 42.8183V42.9521C5.89464 47.3406 14.9237 50 24.8696 50C34.8154 50 43.8457 47.3406 48.9498 42.9521V42.8183C49.0816 42.6844 49.2111 42.5527 49.2111 42.4189C49.3429 42.285 49.3429 42.1534 49.4724 42.0195C49.4724 41.8856 49.6041 41.754 49.6041 41.6202C49.6041 41.4863 49.7359 41.2208 49.7359 41.0881V17.6855C49.7359 17.0506 49.4877 16.4417 49.0458 15.9927C48.604 15.5438 48.0047 15.2916 47.3798 15.2916C46.7549 15.2916 46.1557 15.5438 45.7138 15.9927C45.272 16.4417 45.0237 17.0506 45.0237 17.6855V18.3492C40.5739 21.5407 33.1148 23.668 24.8696 23.668C16.7561 23.668 9.16526 21.6735 4.71548 18.3492V13.4298C11.0752 16.3966 18.0027 17.8953 25.0002 17.8183L25.0014 17.8194ZM25.0014 4.78784C32.0685 4.78784 38.7426 6.25031 43.1924 8.77697C38.7426 11.3036 32.0685 12.7661 25.0014 12.7661C17.9342 12.7661 11.2601 11.3036 6.81029 8.77697C11.2601 6.38419 17.9342 4.78784 25.0014 4.78784ZM4.84725 39.6256V34.7062C10.082 37.4983 17.2798 39.0946 25.0014 39.0946C32.7229 39.0946 39.9196 37.4995 45.1555 34.7062V39.6256C40.7057 42.8171 33.2466 44.9444 25.0014 44.9444C16.8879 44.9444 9.29703 42.9487 4.84836 39.6256H4.84725ZM25.0014 28.4559C32.7229 28.4559 39.9196 26.8607 45.1555 24.0674V28.988C40.7057 32.1795 33.2466 34.3068 25.0014 34.3068C16.8879 34.3068 9.29704 32.3122 4.84725 28.988V24.0674C10.082 26.8607 17.281 28.4559 25.0014 28.4559Z" fill="#0073A8"/>
</svg>
