<svg width="40" height="40" viewBox="0 0 40 40" fill="none" xmlns="http://www.w3.org/2000/svg">
<circle cx="20" cy="20" r="20" fill="black"/>
<path d="M27.2493 19.9771C28.3976 20.7666 29.5705 21.5454 30.7064 22.3565C31.9897 23.23 33.1355 24.2483 34.114 25.3849C34.4405 25.784 34.7023 26.2207 34.8918 26.6828C34.9626 26.8153 34.9953 26.9609 34.9871 27.107C34.9789 27.2531 34.9301 27.3953 34.8449 27.5211C34.7597 27.6469 34.6407 27.7526 34.4983 27.8289C34.3558 27.9052 34.1942 27.9499 34.0276 27.959C33.1529 28.0892 32.2568 28.0561 31.3978 27.8617C28.8398 27.3333 26.3556 26.5607 23.9899 25.558L23.6195 25.4174C23.5454 25.9798 23.4837 26.4989 23.4096 27.0397C23.2066 28.9762 22.7467 30.8854 22.0391 32.7287C21.794 33.324 21.4664 33.8906 21.0637 34.4159C20.4341 35.2055 19.6809 35.1838 19.0019 34.4159C18.4213 33.6593 18.0029 32.8163 17.7672 31.9283C17.7048 31.773 17.6553 31.614 17.6191 31.4525C17.6048 31.2709 17.5385 31.0954 17.4263 30.9423C17.3141 30.7892 17.1595 30.6633 16.977 30.5764C16.8475 30.4862 16.74 30.3741 16.6609 30.2467C16.5818 30.1194 16.5327 29.9794 16.5166 29.8352C16.5005 29.6909 16.5176 29.5452 16.567 29.4069C16.6164 29.2685 16.6971 29.1403 16.8042 29.0298C16.9022 28.9147 16.9503 28.7729 16.94 28.6296C16.8165 27.548 16.6684 26.5638 16.5326 25.5255C16.5326 25.5255 16.5326 25.4606 16.4708 25.3957L14.9646 25.969C12.8645 26.8214 10.6551 27.4496 8.38386 27.84C7.61827 27.9374 6.84065 27.9374 6.07506 27.84C5.89252 27.8393 5.71351 27.7959 5.55655 27.7143C5.39959 27.6326 5.27037 27.5157 5.18225 27.3757C5.09413 27.2356 5.05032 27.0775 5.05534 26.9177C5.06036 26.7578 5.11403 26.6021 5.2108 26.4665C5.46238 25.9549 5.79037 25.4748 6.18618 25.0388C7.60548 23.5846 9.22253 22.2879 11.0013 21.1776C11.594 20.7775 12.236 20.3989 12.8286 19.9987L10.4704 18.4521C10.2976 18.3331 10.1247 18.225 9.96421 18.0952C9.8556 17.9903 9.71753 17.9122 9.56374 17.8685C9.40995 17.8249 9.2458 17.8173 9.08761 17.8464C8.92718 17.8588 8.76559 17.8411 8.61355 17.7946C8.46151 17.7481 8.3225 17.6738 8.20575 17.5766C8.08899 17.4795 7.99715 17.3617 7.93633 17.231C7.87551 17.1004 7.84709 16.9599 7.85296 16.819C7.85358 16.7172 7.82972 16.6164 7.78292 16.5232C7.73612 16.43 7.66743 16.3465 7.58134 16.2782C6.91462 15.6184 6.24791 14.9695 5.63058 14.2773C5.39285 13.981 5.2134 13.652 5.09968 13.3039C5.02724 13.1736 4.99334 13.0294 5.00108 12.8846C5.00883 12.7398 5.05798 12.599 5.14401 12.4752C5.23005 12.3514 5.35022 12.2485 5.49348 12.176C5.63675 12.1034 5.79852 12.0636 5.96394 12.0601C6.74194 11.9628 7.53178 11.9628 8.30978 12.0601C10.9716 12.5422 13.5523 13.32 15.9893 14.3746L16.4214 14.5369C16.5202 13.7798 16.6066 13.0551 16.7178 12.3737C16.9378 10.5075 17.4231 8.67269 18.1623 6.91186C18.3862 6.42182 18.6764 5.95704 19.0266 5.52746C19.12 5.36858 19.2617 5.2353 19.4359 5.14226C19.6101 5.04922 19.8102 5 20.0143 5C20.2183 5 20.4184 5.04922 20.5927 5.14226C20.7669 5.2353 20.9085 5.36858 21.002 5.52746C21.6379 6.29906 22.0913 7.17425 22.3354 8.10158C22.9563 10.1054 23.3695 12.1543 23.5701 14.2232C23.5701 14.3314 23.5701 14.4503 23.5701 14.6018L24.0392 14.4395C24.9529 14.1042 25.8542 13.7581 26.7802 13.4337C26.8671 13.414 26.9438 13.3691 26.9977 13.3062C27.0515 13.2433 27.0793 13.1662 27.0765 13.0876C27.0905 12.8868 27.1752 12.6948 27.3189 12.5379C27.4627 12.381 27.6583 12.267 27.879 12.2115C28.0816 12.1396 28.3054 12.1271 28.5168 12.1758C28.7282 12.2246 28.916 12.3319 29.0519 12.4819C29.2124 12.6549 29.3606 12.6225 29.5705 12.5901C30.6693 12.3954 31.7558 12.1682 32.867 12.0385C33.3593 12.0033 33.8547 12.0548 34.3239 12.1899C34.4416 12.2103 34.553 12.2527 34.6504 12.3141C34.7479 12.3754 34.8292 12.4544 34.8889 12.5456C34.9486 12.6368 34.9852 12.7382 34.9964 12.8429C35.0075 12.9476 34.9929 13.0531 34.9536 13.1525C34.7808 13.6643 34.5184 14.1496 34.1757 14.5909C33.1506 15.7972 31.937 16.8712 30.5706 17.7815C29.4964 18.5494 28.3605 19.2308 27.2493 19.9771ZM16.2733 23.3083C16.2733 22.919 16.2733 22.5188 16.2733 22.1186C16.2682 22.0527 16.2468 21.9886 16.2106 21.9307C16.1743 21.8728 16.1241 21.8225 16.0634 21.7833C15.3349 21.3507 14.5942 20.9289 13.841 20.5287C13.7772 20.4964 13.7048 20.4794 13.6311 20.4794C13.5574 20.4794 13.4851 20.4964 13.4212 20.5287C11.1869 21.7588 9.14486 23.2386 7.34675 24.9307C6.83423 25.4697 6.37959 26.0489 5.98863 26.6611C5.71701 27.0505 5.85282 27.2344 6.38372 27.2668C6.87663 27.3048 7.3724 27.3048 7.86531 27.2668C10.7689 26.773 13.5813 25.9323 16.2239 24.7684C16.2745 24.7422 16.3175 24.7061 16.3497 24.663C16.3818 24.6198 16.4021 24.5708 16.4091 24.5197C16.3474 24.087 16.3474 23.6977 16.2733 23.3083ZM17.1499 14.8181C18.0882 15.2399 18.9525 15.6401 19.8291 16.0186C19.8971 16.0451 19.9707 16.0589 20.0451 16.0589C20.1196 16.0589 20.1932 16.0451 20.2612 16.0186C21.0514 15.6833 21.8292 15.3156 22.6194 14.937C22.7063 14.9121 22.779 14.859 22.8226 14.7886C22.8662 14.7182 22.8774 14.6359 22.854 14.5585C22.6441 13.3255 22.4959 12.0925 22.2367 10.8704C22.0171 9.44404 21.6026 8.046 21.002 6.70636C20.8589 6.41663 20.6809 6.14108 20.4711 5.88438C20.1501 5.49502 19.9155 5.49502 19.6192 5.88438C19.4074 6.17036 19.2216 6.47052 19.0636 6.78208C18.4683 8.1344 18.054 9.54262 17.8289 10.9785C17.582 12.2764 17.3598 13.5418 17.1499 14.8181ZM23.7553 23.3299C23.7553 23.6977 23.7553 24.0654 23.6812 24.4115C23.6071 24.7576 23.6812 24.736 23.9652 24.8333C26.2625 25.7534 28.646 26.4989 31.0891 27.0613C31.9499 27.2206 32.8268 27.3039 33.7066 27.3101C34.2128 27.3101 34.3609 27.083 34.114 26.6936C33.8856 26.3095 33.6125 25.947 33.2991 25.612C31.3355 23.6817 29.104 21.974 26.6567 20.5287C26.5997 20.5022 26.5361 20.4883 26.4715 20.4883C26.4069 20.4883 26.3433 20.5022 26.2863 20.5287C25.5332 20.9397 24.78 21.3507 24.0516 21.7833C23.9851 21.8315 23.9302 21.8907 23.8899 21.9575C23.8497 22.0243 23.8249 22.0974 23.817 22.1727C23.7553 22.562 23.7553 22.9406 23.7553 23.3299ZM26.5703 19.631C27.6197 18.9172 28.6939 18.2142 29.7186 17.4679C31.1379 16.5205 32.4265 15.4316 33.5584 14.2232C33.8132 13.9092 34.0284 13.5719 34.2004 13.2174C34.2353 13.1697 34.2542 13.1145 34.255 13.0579C34.2559 13.0013 34.2386 12.9457 34.2052 12.8973C34.1718 12.8489 34.1235 12.8096 34.066 12.784C34.0084 12.7584 33.9438 12.7474 33.8794 12.7523C33.5475 12.7146 33.2113 12.7146 32.8794 12.7523C31.7929 12.9253 30.7064 13.1416 29.6322 13.358C29.5676 13.3797 29.509 13.4131 29.4601 13.4559C29.4111 13.4988 29.373 13.5501 29.3482 13.6067C29.2817 13.749 29.1813 13.8772 29.0538 13.9828C28.9262 14.0884 28.7744 14.169 28.6085 14.2191C28.4426 14.2693 28.2664 14.2878 28.0916 14.2736C27.9169 14.2594 27.7476 14.2127 27.595 14.1367C27.4678 14.0943 27.3272 14.0943 27.2 14.1367C26.0888 14.526 24.9776 14.937 23.8664 15.348C23.8136 15.3799 23.7697 15.4217 23.7376 15.4704C23.7056 15.519 23.6863 15.5733 23.6812 15.6292C23.6812 16.3971 23.7429 17.1759 23.8047 17.9438C23.8132 18.0143 23.8384 18.0825 23.8788 18.144C23.9192 18.2054 23.9739 18.2588 24.0392 18.3007C24.8541 18.636 25.669 19.0902 26.5703 19.631ZM22.8663 25.2768C22.8103 25.1763 22.7252 25.0905 22.6194 25.028C21.8416 24.6603 21.0514 24.3033 20.2612 23.9464C20.1225 23.8977 19.9678 23.8977 19.8291 23.9464C19.0389 24.2817 18.2487 24.6386 17.4832 25.028C17.4228 25.0649 17.3727 25.1133 17.3363 25.1694C17.3 25.2255 17.2785 25.2881 17.2734 25.3525C17.3845 26.434 17.5203 27.4182 17.6437 28.4565C17.6391 28.5428 17.6704 28.6276 17.7317 28.6952C17.793 28.7628 17.8802 28.8087 17.9771 28.8243C18.1552 28.8792 18.3154 28.9714 18.4436 29.0929C18.5718 29.2144 18.6643 29.3614 18.7129 29.5212C18.7616 29.6811 18.765 29.8489 18.7228 30.0102C18.6806 30.1714 18.5942 30.3212 18.471 30.4466C18.3304 30.5546 18.2364 30.7017 18.205 30.8632C18.1735 31.0247 18.2064 31.1907 18.2981 31.3335C18.3424 31.447 18.3795 31.5625 18.4092 31.6796C18.6589 32.5332 19.0767 33.3421 19.6439 34.0698C19.9279 34.4051 20.1254 34.4267 20.3723 34.0698C20.7396 33.5617 21.0458 33.0217 21.286 32.4583C22.1193 30.1145 22.6372 27.6934 22.8293 25.2443L22.8663 25.2768ZM16.2733 16.6243C16.2733 16.2674 16.2733 15.8996 16.2733 15.5427C16.2962 15.4639 16.2832 15.3803 16.2372 15.3097C16.1911 15.2391 16.1155 15.1869 16.0264 15.1642C13.8165 14.1877 11.4947 13.4191 9.09996 12.8713C8.16654 12.6545 7.19941 12.5705 6.23557 12.6225C5.79109 12.6225 5.69232 12.7847 5.84048 13.1525C5.87479 13.2552 5.92461 13.3534 5.98863 13.4445C6.54864 14.3147 7.27054 15.097 8.12458 15.759C8.17564 15.7836 8.23298 15.7965 8.29126 15.7965C8.34954 15.7965 8.40688 15.7836 8.45794 15.759C8.65852 15.6774 8.88174 15.6483 9.10076 15.6752C9.31979 15.702 9.5253 15.7837 9.69259 15.9104C9.87433 16.0353 10.0083 16.2056 10.0767 16.3989C10.1451 16.5921 10.1446 16.799 10.0753 16.992C10.0416 17.0704 10.0404 17.1567 10.072 17.2358C10.1036 17.3149 10.166 17.3818 10.2482 17.4246L13.2237 19.4039C13.2855 19.4548 13.3672 19.4832 13.4521 19.4832C13.537 19.4832 13.6187 19.4548 13.6805 19.4039C14.2855 19.047 14.9152 18.6792 15.5078 18.3764C15.7321 18.3075 15.9205 18.17 16.0384 17.9892C16.1564 17.8084 16.1959 17.5964 16.1498 17.3922C16.1605 17.1349 16.1894 16.8784 16.2362 16.6243H16.2733ZM17.0264 20.0204C17.0264 20.4422 17.0264 20.864 17.0264 21.2858C17.0157 21.3833 17.0396 21.4813 17.0948 21.5665C17.1501 21.6517 17.234 21.7198 17.3351 21.7617C18.1376 22.151 18.9401 22.5512 19.7303 22.973C19.816 23.0237 19.917 23.0508 20.0205 23.0508C20.1239 23.0508 20.2249 23.0237 20.3106 22.973C21.1502 22.5296 22.0144 22.1186 22.7799 21.6752C22.858 21.631 22.924 21.5722 22.9731 21.503C23.0222 21.4338 23.0532 21.3559 23.0639 21.275C23.0639 20.4205 23.0639 19.5661 23.0639 18.7117C23.0573 18.6464 23.0339 18.5832 22.9954 18.527C22.9569 18.4708 22.9043 18.423 22.8416 18.3872C21.965 17.9221 21.0637 17.4787 20.1624 17.0461C20.0944 17.0195 20.0208 17.0058 19.9464 17.0058C19.8719 17.0058 19.7983 17.0195 19.7303 17.0461C18.8784 17.4679 18.0388 17.8897 17.261 18.344C17.1887 18.3939 17.1286 18.456 17.0841 18.5265C17.0395 18.5971 17.0115 18.6748 17.0017 18.7549C16.9647 19.1768 16.9894 19.631 16.9894 20.0204H17.0264ZM22.9527 24.4223L23.1256 22.2592L20.7798 23.4381L22.9527 24.4223ZM22.9527 15.5211L20.8168 16.5053L23.0886 17.6518L22.9527 15.5211ZM25.8912 19.9879L23.8417 18.9064V21.2101L25.8912 19.9879ZM19.2364 23.4489L17.0388 22.3674L17.1499 24.3682L19.2364 23.4489ZM19.1377 16.5269L17.0511 15.586V17.576L19.1377 16.5269ZM14.1991 19.9879L16.1251 21.1236V18.9604L14.1991 19.9879Z" fill="white"/>
<path d="M19.9741 18.1602C20.3721 18.1623 20.7605 18.2678 21.09 18.4633C21.4196 18.6588 21.6756 18.9355 21.8257 19.2585C21.9757 19.5814 22.0131 19.9361 21.9331 20.2776C21.853 20.6192 21.6592 20.9323 21.376 21.1773C21.0928 21.4223 20.7331 21.5883 20.3422 21.6542C19.9514 21.7202 19.547 21.6831 19.1802 21.5477C18.8134 21.4123 18.5007 21.1846 18.2816 20.8935C18.0625 20.6025 17.9468 20.261 17.9493 19.9123C17.9509 19.6808 18.0045 19.4518 18.1072 19.2385C18.2098 19.0251 18.3594 18.8316 18.5474 18.6689C18.7354 18.5062 18.9582 18.3775 19.203 18.2902C19.4478 18.203 19.7098 18.1588 19.9741 18.1602Z" fill="white"/>
</svg>
