<svg width="128" height="116" viewBox="0 0 128 116" fill="none" xmlns="http://www.w3.org/2000/svg">
<g filter="url(#filter0_d_834_698)">
<path d="M64 4L96.8369 19.8134L104.947 55.3459L82.2231 83.8407H45.7769L23.053 55.3459L31.1631 19.8134L64 4Z" fill="white"/>
</g>
<path d="M2.9846 101.091V112H1.33865V101.091H2.9846ZM6.84646 107.142V112H5.25377V103.818H6.78254V105.15H6.88374C7.07195 104.717 7.3667 104.369 7.76798 104.106C8.17281 103.843 8.6824 103.712 9.29674 103.712C9.85427 103.712 10.3426 103.829 10.7616 104.063C11.1806 104.294 11.5055 104.638 11.7364 105.097C11.9672 105.555 12.0826 106.121 12.0826 106.796V112H10.4899V106.988C10.4899 106.395 10.3354 105.931 10.0265 105.597C9.71755 105.26 9.29319 105.091 8.75342 105.091C8.3841 105.091 8.05562 105.171 7.76798 105.331C7.48389 105.491 7.25839 105.725 7.09149 106.034C6.92813 106.339 6.84646 106.709 6.84646 107.142ZM18.0379 103.818V105.097H13.5688V103.818H18.0379ZM14.7673 101.858H16.36V109.598C16.36 109.907 16.4061 110.139 16.4984 110.295C16.5908 110.448 16.7097 110.553 16.8553 110.61C17.0045 110.663 17.1661 110.69 17.3401 110.69C17.4679 110.69 17.5798 110.681 17.6756 110.663C17.7715 110.645 17.8461 110.631 17.8994 110.62L18.187 111.936C18.0947 111.972 17.9633 112.007 17.7928 112.043C17.6224 112.082 17.4093 112.103 17.1536 112.107C16.7346 112.114 16.344 112.039 15.9818 111.883C15.6195 111.727 15.3266 111.485 15.1028 111.158C14.8791 110.832 14.7673 110.422 14.7673 109.928V101.858ZM23.2381 112.165C22.432 112.165 21.7377 111.993 21.1553 111.648C20.5765 111.3 20.129 110.812 19.813 110.184C19.5005 109.551 19.3442 108.811 19.3442 107.962C19.3442 107.124 19.5005 106.386 19.813 105.746C20.129 105.107 20.5694 104.608 21.134 104.25C21.7022 103.891 22.3663 103.712 23.1262 103.712C23.5878 103.712 24.0353 103.788 24.4685 103.941C24.9018 104.093 25.2906 104.333 25.6351 104.66C25.9795 104.987 26.2512 105.411 26.4501 105.933C26.6489 106.451 26.7484 107.082 26.7484 107.824V108.388H20.2445V107.195H25.1876C25.1876 106.776 25.1024 106.405 24.932 106.082C24.7615 105.755 24.5218 105.498 24.2128 105.31C23.9074 105.121 23.5488 105.027 23.1369 105.027C22.6894 105.027 22.2988 105.137 21.965 105.358C21.6347 105.574 21.379 105.858 21.1979 106.21C21.0204 106.558 20.9316 106.936 20.9316 107.344V108.277C20.9316 108.824 21.0275 109.289 21.2192 109.672C21.4146 110.056 21.6862 110.349 22.0342 110.551C22.3822 110.75 22.7888 110.849 23.254 110.849C23.5559 110.849 23.8311 110.807 24.0797 110.722C24.3283 110.633 24.5431 110.501 24.7242 110.327C24.9053 110.153 25.0438 109.939 25.1397 109.683L26.6472 109.955C26.5264 110.398 26.3098 110.787 25.9973 111.121C25.6883 111.451 25.2995 111.709 24.8307 111.893C24.3655 112.075 23.8347 112.165 23.2381 112.165ZM28.5155 112V103.818H30.0549V105.118H30.1401C30.2893 104.678 30.5521 104.331 30.9285 104.079C31.3085 103.824 31.7381 103.696 32.2176 103.696C32.317 103.696 32.4342 103.699 32.5691 103.706C32.7076 103.713 32.8159 103.722 32.894 103.733V105.256C32.8301 105.239 32.7165 105.219 32.5531 105.198C32.3898 105.173 32.2264 105.161 32.0631 105.161C31.6867 105.161 31.3511 105.24 31.0563 105.4C30.7651 105.556 30.5343 105.775 30.3639 106.055C30.1934 106.332 30.1082 106.648 30.1082 107.004V112H28.5155ZM35.865 107.142V112H34.2723V103.818H35.8011V105.15H35.9023C36.0905 104.717 36.3853 104.369 36.7865 104.106C37.1914 103.843 37.7009 103.712 38.3153 103.712C38.8728 103.712 39.3611 103.829 39.7801 104.063C40.1992 104.294 40.5241 104.638 40.7549 105.097C40.9858 105.555 41.1012 106.121 41.1012 106.796V112H39.5085V106.988C39.5085 106.395 39.354 105.931 39.0451 105.597C38.7361 105.26 38.3117 105.091 37.772 105.091C37.4027 105.091 37.0742 105.171 36.7865 105.331C36.5024 105.491 36.2769 105.725 36.11 106.034C35.9467 106.339 35.865 106.709 35.865 107.142ZM46.7634 112.165C45.9573 112.165 45.2631 111.993 44.6807 111.648C44.1019 111.3 43.6544 110.812 43.3384 110.184C43.0259 109.551 42.8696 108.811 42.8696 107.962C42.8696 107.124 43.0259 106.386 43.3384 105.746C43.6544 105.107 44.0948 104.608 44.6594 104.25C45.2276 103.891 45.8916 103.712 46.6516 103.712C47.1132 103.712 47.5607 103.788 47.9939 103.941C48.4272 104.093 48.816 104.333 49.1605 104.66C49.5049 104.987 49.7766 105.411 49.9755 105.933C50.1743 106.451 50.2737 107.082 50.2737 107.824V108.388H43.7698V107.195H48.713C48.713 106.776 48.6278 106.405 48.4573 106.082C48.2869 105.755 48.0472 105.498 47.7382 105.31C47.4328 105.121 47.0742 105.027 46.6622 105.027C46.2148 105.027 45.8242 105.137 45.4904 105.358C45.1601 105.574 44.9044 105.858 44.7233 106.21C44.5458 106.558 44.457 106.936 44.457 107.344V108.277C44.457 108.824 44.5529 109.289 44.7446 109.672C44.9399 110.056 45.2116 110.349 45.5596 110.551C45.9076 110.75 46.3142 110.849 46.7794 110.849C47.0813 110.849 47.3565 110.807 47.6051 110.722C47.8536 110.633 48.0685 110.501 48.2496 110.327C48.4307 110.153 48.5692 109.939 48.6651 109.683L50.1725 109.955C50.0518 110.398 49.8352 110.787 49.5227 111.121C49.2137 111.451 48.8249 111.709 48.3561 111.893C47.8909 112.075 47.36 112.165 46.7634 112.165ZM55.8601 103.818V105.097H51.391V103.818H55.8601ZM52.5895 101.858H54.1822V109.598C54.1822 109.907 54.2284 110.139 54.3207 110.295C54.413 110.448 54.532 110.553 54.6776 110.61C54.8267 110.663 54.9883 110.69 55.1623 110.69C55.2902 110.69 55.402 110.681 55.4979 110.663C55.5938 110.645 55.6684 110.631 55.7216 110.62L56.0093 111.936C55.9169 111.972 55.7856 112.007 55.6151 112.043C55.4446 112.082 55.2316 112.103 54.9759 112.107C54.5569 112.114 54.1662 112.039 53.804 111.883C53.4418 111.727 53.1488 111.485 52.9251 111.158C52.7014 110.832 52.5895 110.422 52.5895 109.928V101.858ZM65.038 112.165C64.271 112.165 63.6016 111.989 63.0299 111.638C62.4581 111.286 62.0142 110.794 61.6982 110.162C61.3821 109.53 61.2241 108.792 61.2241 107.946C61.2241 107.098 61.3821 106.355 61.6982 105.72C62.0142 105.084 62.4581 104.591 63.0299 104.239C63.6016 103.887 64.271 103.712 65.038 103.712C65.8051 103.712 66.4745 103.887 67.0462 104.239C67.6179 104.591 68.0618 105.084 68.3779 105.72C68.6939 106.355 68.852 107.098 68.852 107.946C68.852 108.792 68.6939 109.53 68.3779 110.162C68.0618 110.794 67.6179 111.286 67.0462 111.638C66.4745 111.989 65.8051 112.165 65.038 112.165ZM65.0434 110.828C65.5405 110.828 65.9525 110.697 66.2792 110.434C66.6059 110.171 66.8473 109.821 67.0036 109.385C67.1634 108.948 67.2433 108.467 67.2433 107.941C67.2433 107.419 67.1634 106.94 67.0036 106.503C66.8473 106.062 66.6059 105.709 66.2792 105.443C65.9525 105.176 65.5405 105.043 65.0434 105.043C64.5427 105.043 64.1272 105.176 63.7969 105.443C63.4702 105.709 63.227 106.062 63.0672 106.503C62.9109 106.94 62.8328 107.419 62.8328 107.941C62.8328 108.467 62.9109 108.948 63.0672 109.385C63.227 109.821 63.4702 110.171 63.7969 110.434C64.1272 110.697 64.5427 110.828 65.0434 110.828ZM74.5236 103.818V105.097H69.9V103.818H74.5236ZM71.1677 112V102.87C71.1677 102.359 71.2796 101.934 71.5033 101.597C71.7271 101.256 72.0236 101.002 72.3929 100.835C72.7622 100.665 73.1635 100.58 73.5967 100.58C73.9163 100.58 74.1898 100.606 74.417 100.659C74.6443 100.709 74.813 100.755 74.9231 100.798L74.5502 102.087C74.4756 102.066 74.3797 102.041 74.2626 102.012C74.1454 101.98 74.0033 101.964 73.8364 101.964C73.4494 101.964 73.1724 102.06 73.0055 102.252C72.8421 102.444 72.7604 102.721 72.7604 103.083V112H71.1677ZM79.7264 102.508V101.091H88.1693V102.508H84.7655V112H83.1249V102.508H79.7264ZM91.4998 107.142V112H89.9071V101.091H91.4785V105.15H91.5797C91.7714 104.71 92.0644 104.36 92.4586 104.1C92.8528 103.841 93.3677 103.712 94.0033 103.712C94.5644 103.712 95.0545 103.827 95.4735 104.058C95.8961 104.289 96.2228 104.633 96.4536 105.091C96.688 105.546 96.8052 106.114 96.8052 106.796V112H95.2125V106.988C95.2125 106.387 95.058 105.922 94.7491 105.592C94.4401 105.258 94.0104 105.091 93.46 105.091C93.0836 105.091 92.7462 105.171 92.4479 105.331C92.1532 105.491 91.9206 105.725 91.7501 106.034C91.5832 106.339 91.4998 106.709 91.4998 107.142ZM98.9305 112V103.818H100.523V112H98.9305ZM99.7349 102.556C99.4579 102.556 99.2199 102.463 99.0211 102.279C98.8258 102.091 98.7281 101.867 98.7281 101.608C98.7281 101.345 98.8258 101.121 99.0211 100.936C99.2199 100.748 99.4579 100.654 99.7349 100.654C100.012 100.654 100.248 100.748 100.443 100.936C100.642 101.121 100.742 101.345 100.742 101.608C100.742 101.867 100.642 102.091 100.443 102.279C100.248 102.463 100.012 102.556 99.7349 102.556ZM104.259 107.142V112H102.666V103.818H104.195V105.15H104.296C104.484 104.717 104.779 104.369 105.18 104.106C105.585 103.843 106.095 103.712 106.709 103.712C107.266 103.712 107.755 103.829 108.174 104.063C108.593 104.294 108.918 104.638 109.148 105.097C109.379 105.555 109.495 106.121 109.495 106.796V112H107.902V106.988C107.902 106.395 107.748 105.931 107.439 105.597C107.13 105.26 106.705 105.091 106.166 105.091C105.796 105.091 105.468 105.171 105.18 105.331C104.896 105.491 104.67 105.725 104.504 106.034C104.34 106.339 104.259 106.709 104.259 107.142ZM115.061 115.239C114.411 115.239 113.852 115.153 113.383 114.983C112.918 114.813 112.538 114.587 112.243 114.306C111.949 114.026 111.728 113.719 111.583 113.385L112.952 112.82C113.048 112.977 113.175 113.142 113.335 113.316C113.499 113.493 113.719 113.644 113.996 113.768C114.276 113.893 114.637 113.955 115.077 113.955C115.681 113.955 116.18 113.808 116.574 113.513C116.968 113.222 117.165 112.756 117.165 112.117V110.509H117.064C116.968 110.683 116.83 110.876 116.648 111.089C116.471 111.302 116.226 111.487 115.913 111.643C115.601 111.799 115.194 111.877 114.694 111.877C114.047 111.877 113.465 111.727 112.946 111.425C112.432 111.119 112.023 110.67 111.721 110.077C111.423 109.48 111.274 108.747 111.274 107.877C111.274 107.007 111.421 106.261 111.716 105.64C112.014 105.018 112.423 104.543 112.941 104.212C113.46 103.879 114.047 103.712 114.704 103.712C115.212 103.712 115.622 103.797 115.935 103.967C116.247 104.134 116.49 104.33 116.664 104.553C116.842 104.777 116.979 104.974 117.075 105.145H117.192V103.818H118.753V112.181C118.753 112.884 118.589 113.461 118.262 113.912C117.936 114.363 117.494 114.697 116.936 114.914C116.382 115.13 115.757 115.239 115.061 115.239ZM115.045 110.556C115.503 110.556 115.89 110.45 116.206 110.237C116.526 110.02 116.767 109.711 116.931 109.31C117.098 108.905 117.181 108.42 117.181 107.856C117.181 107.305 117.099 106.821 116.936 106.402C116.773 105.983 116.533 105.656 116.217 105.422C115.901 105.184 115.51 105.065 115.045 105.065C114.566 105.065 114.166 105.189 113.847 105.438C113.527 105.683 113.286 106.016 113.122 106.439C112.962 106.862 112.883 107.334 112.883 107.856C112.883 108.392 112.964 108.863 113.128 109.267C113.291 109.672 113.532 109.988 113.852 110.216C114.175 110.443 114.573 110.556 115.045 110.556ZM127.02 105.816L125.576 106.071C125.516 105.887 125.42 105.711 125.288 105.544C125.161 105.377 124.987 105.24 124.766 105.134C124.546 105.027 124.271 104.974 123.941 104.974C123.49 104.974 123.113 105.075 122.811 105.278C122.51 105.477 122.359 105.734 122.359 106.05C122.359 106.324 122.46 106.544 122.662 106.711C122.865 106.877 123.191 107.014 123.642 107.121L124.942 107.419C125.695 107.593 126.256 107.861 126.625 108.223C126.995 108.586 127.179 109.056 127.179 109.635C127.179 110.125 127.037 110.562 126.753 110.945C126.473 111.325 126.08 111.624 125.576 111.84C125.075 112.057 124.495 112.165 123.834 112.165C122.918 112.165 122.17 111.97 121.592 111.579C121.013 111.185 120.658 110.626 120.526 109.901L122.066 109.667C122.162 110.068 122.359 110.372 122.657 110.578C122.955 110.78 123.344 110.881 123.824 110.881C124.346 110.881 124.763 110.773 125.075 110.556C125.388 110.336 125.544 110.068 125.544 109.752C125.544 109.496 125.448 109.282 125.256 109.108C125.068 108.934 124.779 108.802 124.388 108.713L123.003 108.41C122.24 108.236 121.675 107.959 121.309 107.579C120.947 107.199 120.766 106.718 120.766 106.135C120.766 105.652 120.901 105.23 121.171 104.868C121.441 104.505 121.814 104.223 122.289 104.021C122.765 103.815 123.31 103.712 123.925 103.712C124.809 103.712 125.505 103.903 126.013 104.287C126.521 104.667 126.856 105.176 127.02 105.816Z" fill="black"/>
<path fill-rule="evenodd" clip-rule="evenodd" d="M58.4861 28.1085C54.6169 28.7335 51.461 30.2419 48.7833 32.7461C48.2276 33.2658 48.1809 33.3415 48.1809 33.7228C48.1809 34.2681 48.5837 34.6979 49.0948 34.6979C49.4558 34.6979 49.6346 34.5807 50.6295 33.6922C52.1969 32.2921 54.6632 30.9858 56.8078 30.4197C60.8945 29.3409 64.7281 29.7551 68.5204 31.6852C69.4895 32.1784 69.8026 32.2957 70.0314 32.2517C70.6438 32.1339 71.0002 31.4971 70.7654 30.9401C70.4576 30.2097 67.1314 28.7909 64.4623 28.2515C63.1966 27.9957 59.7024 27.9121 58.4861 28.1085ZM59.6708 32.6483C56.7503 33.005 53.7633 34.3756 52.0431 36.148C51.5927 36.6121 51.5056 36.7587 51.5056 37.0528C51.5056 37.5538 51.9368 37.9655 52.4615 37.9655C52.7926 37.9655 52.9388 37.8846 53.52 37.3804C56.6332 34.6793 60.7906 33.8199 64.6295 35.0839C66.091 35.5651 67.2248 36.2123 68.554 37.3241C69.2042 37.8679 69.3768 37.9655 69.6887 37.9655C70.1156 37.9655 70.5283 37.6494 70.632 37.2428C70.7342 36.8426 70.4643 36.4135 69.7084 35.774C67.7119 34.0852 65.4868 33.0889 62.8977 32.7247C62.0019 32.5987 60.3893 32.5604 59.6708 32.6483ZM72.3732 33.1026C71.9981 33.4712 71.9489 33.7947 72.2035 34.2183C72.7163 35.0716 73.9964 34.6911 73.9964 33.6855C73.9964 33.3103 73.4219 32.7758 73.0186 32.7758C72.7931 32.7758 72.6128 32.8671 72.3732 33.1026ZM42.0502 36.1466C40.9375 36.2927 39.8141 37.1308 39.3189 38.1844L39.0379 38.7824L39.0101 45.2064C38.9791 52.3834 38.9781 52.369 39.6398 53.3191C40.7687 54.9397 42.9722 55.3469 44.6309 54.2413C45.2259 53.8447 45.5512 53.4517 45.9134 52.6921L46.1763 52.141V45.5097V38.8785L45.951 38.3305C45.3238 36.8048 43.7495 35.9235 42.0502 36.1466ZM76.7084 36.244C75.3229 36.5648 74.3753 37.6994 74.3072 39.1187C74.2622 40.0577 74.5187 40.7631 75.1299 41.381C75.7782 42.0367 76.4831 42.3202 77.5869 42.369L78.4881 42.409L78.5158 47.5152L78.5435 52.6215L78.7871 53.0903C79.1244 53.7395 79.6839 54.276 80.3374 54.5771C81.0828 54.9206 82.2081 54.9333 82.9535 54.6067C83.8586 54.2102 84.5541 53.3153 84.7513 52.2938C84.8101 51.9886 84.8507 49.8673 84.8507 47.0938V42.4093L85.7552 42.3678C86.8551 42.3175 87.4372 42.0902 88.0967 41.4536C88.7571 40.8161 89.0037 40.2181 89 39.2629C88.9978 38.6938 88.9439 38.3786 88.7928 38.0498C88.5527 37.5275 87.9999 36.8995 87.5279 36.6128C86.7948 36.1674 86.4597 36.1412 81.6238 36.1502C79.1229 36.1549 76.9111 36.1971 76.7084 36.244ZM59.4366 37.4413C57.8074 37.7887 56.5349 38.4322 55.4045 39.4801C54.1973 40.5993 53.3887 41.9267 52.9609 43.4915C52.6665 44.5687 52.6673 46.4352 52.9628 47.5279C53.7496 50.4371 56.1318 52.7417 59.0841 53.4499C60.2823 53.7374 61.9813 53.736 63.0933 53.4466C66.0348 52.6814 68.2811 50.5069 69.1284 47.6046C69.311 46.9788 69.3464 46.6254 69.343 45.4617C69.3393 44.2234 69.309 43.9717 69.0706 43.2032C68.2627 40.5986 66.3373 38.6144 63.7587 37.729C62.4625 37.2839 60.7192 37.1679 59.4366 37.4413ZM43.4052 38.2176C43.7468 38.3862 44.0493 38.7727 44.1768 39.2038C44.2452 39.4354 44.2697 41.6048 44.25 45.709L44.2206 51.8669L43.9761 52.2216C43.6915 52.6346 43.0835 52.9579 42.5917 52.9579C42.0491 52.9579 41.4313 52.5825 41.1679 52.093L40.9406 51.6707L40.9671 45.3632L40.9936 39.0556L41.2666 38.704C41.7993 38.0177 42.6215 37.8306 43.4052 38.2176ZM86.4794 38.2631C87.2884 38.7545 87.2908 39.7923 86.4838 40.2758C86.2165 40.4361 85.988 40.4635 84.9176 40.4638C83.6217 40.4642 83.3664 40.5222 83.0683 40.8839C82.9128 41.0726 82.8992 41.5184 82.8971 46.5043C82.8952 51.3611 82.8782 51.9546 82.7317 52.2579C82.3665 53.0143 81.4089 53.1754 80.8051 52.5822L80.4992 52.2816L80.4503 46.6634L80.4014 41.0451L80.1305 40.7787C79.8645 40.5172 79.8329 40.5113 78.4192 40.4627C77.4216 40.4283 76.9148 40.3716 76.7702 40.2783C76.4559 40.0753 76.2455 39.6613 76.2455 39.2454C76.2455 38.8126 76.438 38.5038 76.8681 38.2459C77.158 38.0722 77.4169 38.0622 81.6611 38.062C86.0462 38.0616 86.1553 38.0661 86.4794 38.2631ZM62.5937 39.4044C63.7647 39.6987 64.6363 40.1944 65.5474 41.0844C66.9 42.4054 67.5147 43.9733 67.4159 45.8505C67.3313 47.4572 66.7428 48.7358 65.5379 49.9296C64.3416 51.115 62.8136 51.7381 61.0887 51.744C59.9524 51.7477 59.3194 51.6077 58.3018 51.1273C56.9385 50.4839 55.9766 49.5386 55.3235 48.2007C54.8171 47.1632 54.6836 46.5602 54.6958 45.3656C54.7087 44.1029 55.009 43.1154 55.6931 42.0854C57.1933 39.8269 59.975 38.7461 62.5937 39.4044ZM60.4804 42.0038C59.347 42.194 58.3122 42.9621 57.795 43.9971C57.5515 44.4847 57.5195 44.6547 57.5195 45.4631C57.5195 46.3005 57.5463 46.4311 57.8373 47.0126C58.4258 48.1884 59.5268 48.9135 60.8507 48.997C63.1488 49.1419 64.9498 47.1698 64.5882 44.9043C64.285 43.004 62.4101 41.68 60.4804 42.0038ZM61.8925 44.0791C62.333 44.303 62.6758 44.8995 62.6758 45.4424C62.6758 46.8089 61.1527 47.5833 60.0666 46.7691C59.4805 46.3298 59.2447 45.4093 59.5643 44.8081C60.0239 43.9436 61.015 43.6332 61.8925 44.0791ZM52.0924 53.0643C51.4538 53.3106 51.3094 54.077 51.7985 54.6244C52.4368 55.3389 54.0207 56.4461 55.3428 57.102C58.3026 58.5704 62.5145 58.7612 65.67 57.5697C67.6336 56.8283 69.9692 55.2794 70.505 54.3632C70.9307 53.6354 70.1732 52.747 69.3798 53.0435C69.2421 53.0949 68.8535 53.379 68.5162 53.6748C65.7156 56.1307 61.8199 57.0336 58.1551 56.0761C56.4038 55.6185 55.1621 54.9554 53.5591 53.6217C52.7452 52.9445 52.5728 52.8791 52.0924 53.0643ZM48.8974 56.3014C48.213 56.403 47.9293 57.4016 48.4498 57.8762C48.8037 58.1989 49.1162 58.2637 49.52 58.0979C49.899 57.9423 50.1758 57.4216 50.0797 57.0451C49.9545 56.5548 49.4267 56.2227 48.8974 56.3014ZM72.6763 56.3694C72.515 56.442 72.0309 56.8094 71.6007 57.186C67.4167 60.848 61.3703 62.0626 56.044 60.3109C54.9972 59.9666 53.7132 59.3915 52.9059 58.9053C52.5039 58.6632 52.0758 58.4854 51.8281 58.4578C51.4689 58.4177 51.3797 58.4487 51.1192 58.7047C50.677 59.1393 50.7016 59.6033 51.1911 60.0605C51.5771 60.4211 53.4411 61.4064 54.5388 61.8301C55.4631 62.1869 57.079 62.6243 58.204 62.8222C59.5583 63.0605 62.3936 63.059 63.8756 62.8193C67.421 62.2456 70.7587 60.6351 73.2915 58.2756C73.921 57.6891 73.9964 57.5805 73.9964 57.26C73.9964 57.0007 73.9219 56.8234 73.7275 56.6206C73.3974 56.2763 73.0621 56.1961 72.6763 56.3694Z" fill="#FE4EE2"/>
<defs>
<filter id="filter0_d_834_698" x="19.0547" y="0" width="89.8906" height="87.8408" filterUnits="userSpaceOnUse" color-interpolation-filters="sRGB">
<feFlood flood-opacity="0" result="BackgroundImageFix"/>
<feColorMatrix in="SourceAlpha" type="matrix" values="0 0 0 0 0 0 0 0 0 0 0 0 0 0 0 0 0 0 127 0" result="hardAlpha"/>
<feOffset/>
<feGaussianBlur stdDeviation="2"/>
<feComposite in2="hardAlpha" operator="out"/>
<feColorMatrix type="matrix" values="0 0 0 0 0 0 0 0 0 0 0 0 0 0 0 0 0 0 0.25 0"/>
<feBlend mode="normal" in2="BackgroundImageFix" result="effect1_dropShadow_834_698"/>
<feBlend mode="normal" in="SourceGraphic" in2="effect1_dropShadow_834_698" result="shape"/>
</filter>
</defs>
</svg>
