<svg width="90" height="116" viewBox="0 0 90 116" fill="none" xmlns="http://www.w3.org/2000/svg">
<g filter="url(#filter0_d_834_702)">
<path d="M45 4L77.8369 19.8134L85.947 55.3459L63.2231 83.8407H26.7769L4.05303 55.3459L12.1631 19.8134L45 4Z" fill="white"/>
</g>
<path d="M19.5384 112V101.091H26.3033V102.508H21.1843V105.832H25.8185V107.243H21.1843V112H19.5384ZM28.1996 112V103.818H29.7923V112H28.1996ZM29.0039 102.556C28.7269 102.556 28.489 102.463 28.2901 102.279C28.0948 102.091 27.9972 101.867 27.9972 101.608C27.9972 101.345 28.0948 101.121 28.2901 100.936C28.489 100.748 28.7269 100.654 29.0039 100.654C29.2809 100.654 29.517 100.748 29.7124 100.936C29.9112 101.121 30.0107 101.345 30.0107 101.608C30.0107 101.867 29.9112 102.091 29.7124 102.279C29.517 102.463 29.2809 102.556 29.0039 102.556ZM33.5276 107.142V112H31.9349V103.818H33.4637V105.15H33.5649C33.7531 104.717 34.0479 104.369 34.4491 104.106C34.854 103.843 35.3635 103.712 35.9779 103.712C36.5354 103.712 37.0237 103.829 37.4427 104.063C37.8618 104.294 38.1867 104.638 38.4175 105.097C38.6483 105.555 38.7638 106.121 38.7638 106.796V112H37.1711V106.988C37.1711 106.395 37.0166 105.931 36.7077 105.597C36.3987 105.26 35.9743 105.091 35.4346 105.091C35.0653 105.091 34.7368 105.171 34.4491 105.331C34.165 105.491 33.9395 105.725 33.7726 106.034C33.6093 106.339 33.5276 106.709 33.5276 107.142ZM44.719 103.818V105.097H40.2499V103.818H44.719ZM41.4484 101.858H43.0411V109.598C43.0411 109.907 43.0873 110.139 43.1796 110.295C43.2719 110.448 43.3909 110.553 43.5365 110.61C43.6856 110.663 43.8472 110.69 44.0212 110.69C44.1491 110.69 44.2609 110.681 44.3568 110.663C44.4527 110.645 44.5273 110.631 44.5805 110.62L44.8682 111.936C44.7758 111.972 44.6444 112.007 44.474 112.043C44.3035 112.082 44.0905 112.103 43.8348 112.107C43.4157 112.114 43.0251 112.039 42.6629 111.883C42.3007 111.727 42.0077 111.485 41.784 111.158C41.5603 110.832 41.4484 110.422 41.4484 109.928V101.858ZM49.9192 112.165C49.1131 112.165 48.4189 111.993 47.8365 111.648C47.2576 111.3 46.8102 110.812 46.4941 110.184C46.1816 109.551 46.0254 108.811 46.0254 107.962C46.0254 107.124 46.1816 106.386 46.4941 105.746C46.8102 105.107 47.2505 104.608 47.8152 104.25C48.3833 103.891 49.0474 103.712 49.8074 103.712C50.269 103.712 50.7164 103.788 51.1497 103.941C51.5829 104.093 51.9718 104.333 52.3162 104.66C52.6607 104.987 52.9324 105.411 53.1312 105.933C53.3301 106.451 53.4295 107.082 53.4295 107.824V108.388H46.9256V107.195H51.8688C51.8688 106.776 51.7836 106.405 51.6131 106.082C51.4426 105.755 51.2029 105.498 50.894 105.31C50.5886 105.121 50.2299 105.027 49.818 105.027C49.3706 105.027 48.9799 105.137 48.6461 105.358C48.3159 105.574 48.0602 105.858 47.8791 106.21C47.7015 106.558 47.6127 106.936 47.6127 107.344V108.277C47.6127 108.824 47.7086 109.289 47.9004 109.672C48.0957 110.056 48.3674 110.349 48.7154 110.551C49.0634 110.75 49.47 110.849 49.9352 110.849C50.237 110.849 50.5123 110.807 50.7608 110.722C51.0094 110.633 51.2243 110.501 51.4054 110.327C51.5865 110.153 51.725 109.939 51.8208 109.683L53.3283 109.955C53.2076 110.398 52.9909 110.787 52.6784 111.121C52.3695 111.451 51.9806 111.709 51.5119 111.893C51.0467 112.075 50.5158 112.165 49.9192 112.165ZM58.643 112.165C57.8511 112.165 57.1693 111.986 56.5976 111.627C56.0294 111.265 55.5926 110.766 55.2872 110.13C54.9818 109.495 54.8291 108.767 54.8291 107.946C54.8291 107.115 54.9854 106.382 55.2979 105.746C55.6104 105.107 56.0507 104.608 56.6189 104.25C57.1871 103.891 57.8564 103.712 58.627 103.712C59.2485 103.712 59.8025 103.827 60.289 104.058C60.7755 104.285 61.1679 104.605 61.4662 105.017C61.768 105.429 61.9474 105.91 62.0042 106.46H60.4541C60.3689 106.077 60.1736 105.746 59.8682 105.469C59.5663 105.192 59.1615 105.054 58.6537 105.054C58.2098 105.054 57.8209 105.171 57.4871 105.406C57.1569 105.636 56.8994 105.967 56.7148 106.396C56.5301 106.822 56.4378 107.327 56.4378 107.909C56.4378 108.506 56.5283 109.021 56.7094 109.454C56.8905 109.887 57.1462 110.223 57.4765 110.461C57.8103 110.699 58.2027 110.817 58.6537 110.817C58.9555 110.817 59.229 110.762 59.474 110.652C59.7226 110.539 59.9303 110.377 60.0972 110.168C60.2677 109.958 60.3866 109.706 60.4541 109.411H62.0042C61.9474 109.94 61.7751 110.413 61.4875 110.828C61.1998 111.244 60.8145 111.57 60.3316 111.808C59.8522 112.046 59.2893 112.165 58.643 112.165ZM65.3001 107.142V112H63.7074V101.091H65.2788V105.15H65.38C65.5717 104.71 65.8647 104.36 66.2589 104.1C66.6531 103.841 67.168 103.712 67.8036 103.712C68.3647 103.712 68.8548 103.827 69.2738 104.058C69.6964 104.289 70.0231 104.633 70.2539 105.091C70.4883 105.546 70.6055 106.114 70.6055 106.796V112H69.0128V106.988C69.0128 106.387 68.8583 105.922 68.5494 105.592C68.2404 105.258 67.8107 105.091 67.2603 105.091C66.8839 105.091 66.5465 105.171 66.2482 105.331C65.9535 105.491 65.7209 105.725 65.5504 106.034C65.3835 106.339 65.3001 106.709 65.3001 107.142Z" fill="black"/>
<path fill-rule="evenodd" clip-rule="evenodd" d="M22.4326 25.1098C21.2874 25.429 20.3386 26.4476 20.0917 27.6231C20.0077 28.0228 19.9859 31.7835 20.0082 42.0658L20.0382 55.9681L20.3118 56.528C20.6486 57.2174 21.3347 57.9132 21.9099 58.1489C22.3516 58.3299 22.3631 58.3492 22.4849 59.1121C22.6338 60.0453 23.567 61.1554 24.4626 61.4649C25.0024 61.6513 24.0057 61.5331 46.4835 64.0786C59.1835 65.5169 64.0943 66.0394 64.5211 65.9977C65.7021 65.8826 66.7736 65.1168 67.2657 64.0364C67.4771 63.572 67.5935 62.4742 68.777 49.7784C69.61 40.8441 70.0377 35.8535 69.9974 35.5384C69.8667 34.5145 69.0489 33.3715 68.1258 32.9224C67.876 32.801 67.2537 32.6483 66.6896 32.5701C66.1422 32.4942 65.5558 32.4101 65.3867 32.3831L65.079 32.334L65.0375 30.0031C64.9998 27.8888 64.9758 27.6207 64.7797 27.1174C64.4762 26.3387 63.9092 25.7304 63.1249 25.3425L62.4722 25.0195L42.6728 25.0033C27.0919 24.9904 22.7795 25.0131 22.4326 25.1098ZM62.4221 26.8617C62.6616 26.9832 62.9539 27.2286 63.0718 27.407C63.2803 27.7223 63.4522 28.5877 63.3807 28.9611C63.3462 29.1414 62.821 29.1466 42.4876 29.1707L21.6299 29.1956L21.6666 28.4657C21.6986 27.8285 21.7413 27.6881 22.002 27.3601C22.1662 27.1536 22.4515 26.9072 22.6359 26.8128C22.9518 26.6508 24.0998 26.6409 42.4789 26.6408L61.9867 26.6406L62.4221 26.8617ZM63.3968 33.3707V35.8761H42.5241H21.6513V33.3707V30.8654H42.5241H63.3968V33.3707ZM66.3531 34.0599C67.49 34.1385 67.8274 34.3161 68.1739 35.0179L68.4048 35.4857L67.1188 49.3091C65.6696 64.8866 65.8471 63.6855 64.9249 64.1614L64.4487 64.4071L57.2992 63.599C28.4215 60.3353 25.302 59.9696 25.0011 59.8133C24.6378 59.6245 24.236 59.125 24.1416 58.7446L24.0747 58.4754L43.3203 58.4499L62.5658 58.4243L63.023 58.212C64.0282 57.7451 64.745 56.8029 64.9523 55.6759C65.0249 55.2811 65.0588 51.7242 65.0588 44.4974C65.0588 34.4498 65.0677 33.9004 65.2299 33.946C65.324 33.9724 65.8295 34.0237 66.3531 34.0599ZM63.3748 46.5607C63.3505 54.7326 63.3328 55.6026 63.1861 55.8699C62.9765 56.2517 62.6358 56.567 62.2906 56.6984C62.099 56.7714 56.0855 56.8032 42.4997 56.8032C23.2313 56.8032 22.979 56.8008 22.5865 56.6082C22.3679 56.5009 22.079 56.25 21.9446 56.0504L21.7002 55.6878L21.6743 46.6171L21.6483 37.5463H42.525H63.4017L63.3748 46.5607ZM23.6804 41.0811C23.2357 41.4327 23.2431 42.0817 23.6959 42.4311C23.8112 42.5201 24.7814 42.5516 27.4795 42.5539C31.0048 42.5569 31.1154 42.5512 31.3657 42.3534C31.6862 42.1001 31.7208 41.5209 31.4365 41.1679L31.2496 40.9359L27.5923 40.908C24.0333 40.8808 23.928 40.8855 23.6804 41.0811ZM33.8049 40.9857C33.3177 41.183 33.2173 42.0187 33.6407 42.3534C33.891 42.5512 34.0015 42.5569 37.5268 42.5539C41.4357 42.5506 41.3912 42.5564 41.5916 42.0264C41.7267 41.6694 41.6288 41.3206 41.3267 41.0817C41.0907 40.8953 40.9278 40.8871 37.5493 40.893C35.6074 40.8964 33.9224 40.9382 33.8049 40.9857ZM23.8021 44.3544C23.2947 44.6123 23.1978 45.2901 23.609 45.7035C23.797 45.8923 23.9573 45.8975 29.5746 45.8975H35.3473L35.5872 45.6563C35.9951 45.2464 35.8427 44.5169 35.3103 44.3304C34.853 44.1702 24.1206 44.1926 23.8021 44.3544ZM37.978 44.3544C37.4706 44.6123 37.3736 45.2901 37.7849 45.7035C37.9612 45.8806 38.1151 45.8975 39.5487 45.8975C40.4125 45.8975 41.2009 45.8536 41.3006 45.8001C41.4003 45.7464 41.5324 45.5487 41.5941 45.3607C41.7313 44.9432 41.5764 44.5436 41.2042 44.3544C40.8681 44.1836 38.3141 44.1836 37.978 44.3544ZM46.3081 44.3292C45.8166 44.5297 45.7884 44.8017 45.8194 49.057L45.8481 52.9887L46.1224 53.2258L46.3967 53.4627L53.357 53.4596C58.6742 53.4572 60.3539 53.4283 60.4724 53.3368C60.84 53.0531 60.8549 52.8765 60.8549 48.8079V44.8278L60.619 44.5521L60.3831 44.2764L53.4578 44.2571C49.3591 44.2457 46.4408 44.275 46.3081 44.3292ZM59.1929 48.845V51.7925H53.3759H47.5589V48.845V45.8975H53.3759H59.1929V48.845Z" fill="#1BA329"/>
<defs>
<filter id="filter0_d_834_702" x="0.0546875" y="0" width="89.8906" height="87.8408" filterUnits="userSpaceOnUse" color-interpolation-filters="sRGB">
<feFlood flood-opacity="0" result="BackgroundImageFix"/>
<feColorMatrix in="SourceAlpha" type="matrix" values="0 0 0 0 0 0 0 0 0 0 0 0 0 0 0 0 0 0 127 0" result="hardAlpha"/>
<feOffset/>
<feGaussianBlur stdDeviation="2"/>
<feComposite in2="hardAlpha" operator="out"/>
<feColorMatrix type="matrix" values="0 0 0 0 0 0 0 0 0 0 0 0 0 0 0 0 0 0 0.25 0"/>
<feBlend mode="normal" in2="BackgroundImageFix" result="effect1_dropShadow_834_702"/>
<feBlend mode="normal" in="SourceGraphic" in2="effect1_dropShadow_834_702" result="shape"/>
</filter>
</defs>
</svg>
