<svg width="42" height="52" viewBox="0 0 42 52" fill="none" xmlns="http://www.w3.org/2000/svg">
<path d="M2.10495 42.4328H10.1844V49.8768C10.1847 50.1746 10.3012 50.4601 10.5084 50.6707C10.7155 50.8813 10.9964 50.9997 11.2894 51H39.8951C40.188 50.9997 40.4689 50.8813 40.676 50.6707C40.8832 50.4601 40.9997 50.1746 41 49.8768V10.6905C40.9997 10.3927 40.8832 10.1072 40.676 9.89657C40.4689 9.68599 40.188 9.56755 39.8951 9.56725H31.81V2.12324C31.8097 1.82543 31.6932 1.5399 31.4861 1.32932C31.2789 1.11874 30.998 1.0003 30.7051 1H2.10495C1.81199 1.0003 1.53112 1.11874 1.32397 1.32932C1.11682 1.5399 1.0003 1.82543 1 2.12324V41.3095C1 41.457 1.02858 41.6031 1.08411 41.7394C1.13964 41.8756 1.22102 41.9995 1.32363 42.1038C1.42623 42.2081 1.54804 42.2908 1.6821 42.3473C1.81616 42.4037 1.95984 42.4328 2.10495 42.4328ZM38.789 11.8149V48.7535H12.3954V42.4328H30.6995C30.9924 42.4324 31.2733 42.314 31.4805 42.1034C31.6876 41.8929 31.8041 41.6073 31.8044 41.3095V11.8103L38.789 11.8149ZM3.20877 3.24761H29.5979V40.1851H3.2099L3.20877 3.24761Z" fill="#56A409" stroke="#56A409"/>
<path d="M7.17915 20.118H15.676C15.969 20.1177 16.2499 19.9993 16.457 19.7887C16.6642 19.5781 16.7807 19.2926 16.781 18.9948V8.10956C16.7807 7.81176 16.6642 7.52623 16.457 7.31564C16.2499 7.10506 15.969 6.98663 15.676 6.98633H7.17915C6.88619 6.98663 6.60532 7.10506 6.39817 7.31564C6.19102 7.52623 6.07451 7.81176 6.07422 8.10956V18.9948C6.07407 19.1424 6.10255 19.2886 6.15801 19.425C6.21347 19.5614 6.29484 19.6853 6.39746 19.7898C6.50007 19.8942 6.62192 19.977 6.75605 20.0335C6.89018 20.0901 7.03395 20.1191 7.17915 20.1191V20.118ZM8.2841 9.2328H14.57V17.8704H8.2841V9.2328Z" fill="#56A409"/>
<path d="M20.3745 9.2328H25.6202C25.9132 9.2328 26.1943 9.11446 26.4015 8.90381C26.6087 8.69317 26.7251 8.40747 26.7251 8.10956C26.7251 7.81166 26.6087 7.52596 26.4015 7.31532C26.1943 7.10467 25.9132 6.98633 25.6202 6.98633H20.3745C20.0814 6.98633 19.8004 7.10467 19.5932 7.31532C19.386 7.52596 19.2695 7.81166 19.2695 8.10956C19.2695 8.40747 19.386 8.69317 19.5932 8.90381C19.8004 9.11446 20.0814 9.2328 20.3745 9.2328Z" fill="#56A409"/>
<path d="M20.3745 14.6723H25.6202C25.9132 14.6723 26.1943 14.5539 26.4015 14.3433C26.6087 14.1326 26.7251 13.8469 26.7251 13.549C26.7251 13.2511 26.6087 12.9654 26.4015 12.7548C26.1943 12.5441 25.9132 12.4258 25.6202 12.4258H20.3745C20.0814 12.4258 19.8004 12.5441 19.5932 12.7548C19.386 12.9654 19.2695 13.2511 19.2695 13.549C19.2695 13.8469 19.386 14.1326 19.5932 14.3433C19.8004 14.5539 20.0814 14.6723 20.3745 14.6723Z" fill="#56A409"/>
<path d="M20.3745 20.1195H25.6202C25.9132 20.1195 26.1943 20.0012 26.4015 19.7905C26.6087 19.5799 26.7251 19.2942 26.7251 18.9963C26.7251 18.6984 26.6087 18.4127 26.4015 18.202C26.1943 17.9914 25.9132 17.873 25.6202 17.873H20.3745C20.0814 17.873 19.8004 17.9914 19.5932 18.202C19.386 18.4127 19.2695 18.6984 19.2695 18.9963C19.2695 19.2942 19.386 19.5799 19.5932 19.7905C19.8004 20.0012 20.0814 20.1195 20.3745 20.1195Z" fill="#56A409"/>
<path d="M7.17915 25.5551H25.6272C25.9203 25.5551 26.2013 25.4367 26.4085 25.2261C26.6157 25.0154 26.7321 24.7297 26.7321 24.4318C26.7321 24.1339 26.6157 23.8482 26.4085 23.6376C26.2013 23.4269 25.9203 23.3086 25.6272 23.3086H7.17915C6.8861 23.3086 6.60506 23.4269 6.39785 23.6376C6.19063 23.8482 6.07422 24.1339 6.07422 24.4318C6.07422 24.7297 6.19063 25.0154 6.39785 25.2261C6.60506 25.4367 6.8861 25.5551 7.17915 25.5551Z" fill="#56A409"/>
<path d="M7.17971 31.0043H25.6278C25.9208 31.0043 26.2019 30.8859 26.4091 30.6753C26.6163 30.4646 26.7327 30.1789 26.7327 29.881C26.7327 29.5831 26.6163 29.2974 26.4091 29.0868C26.2019 28.8761 25.9208 28.7578 25.6278 28.7578H7.17971C6.88651 28.7578 6.60534 28.8762 6.39802 29.087C6.1907 29.2977 6.07422 29.5836 6.07422 29.8816C6.07422 30.1797 6.1907 30.4655 6.39802 30.6763C6.60534 30.887 6.88651 31.0054 7.17971 31.0054V31.0043Z" fill="#56A409"/>
<path d="M26.7338 35.3225C26.7335 35.0247 26.617 34.7392 26.4099 34.5286C26.2027 34.318 25.9218 34.1995 25.6289 34.1992H7.18307C6.89002 34.1992 6.60897 34.3176 6.40175 34.5282C6.19454 34.7389 6.07812 35.0246 6.07812 35.3225C6.07812 35.6204 6.19454 35.9061 6.40175 36.1167C6.60897 36.3274 6.89002 36.4457 7.18307 36.4457H25.63C25.9229 36.4454 26.2036 36.3269 26.4106 36.1163C26.6176 35.9057 26.7338 35.6202 26.7338 35.3225Z" fill="#56A409"/>
</svg>
