<svg width="137" height="67" viewBox="0 0 137 67" fill="none" xmlns="http://www.w3.org/2000/svg">
<path fill-rule="evenodd" clip-rule="evenodd" d="M67.0638 0.866312L58.5699 1.71568L58.1944 1.28924C57.2229 0.186171 55.7625 1.4306 56.4842 2.74675C56.6927 3.12685 56.6137 3.3282 53.0838 11.4214C51.0962 15.9784 49.4397 19.8133 49.4027 19.9436C49.3612 20.0896 50.3095 21.632 51.8823 23.9763C59.0053 34.5931 59.5955 35.512 59.4942 35.8263C59.2361 36.6259 59.7494 37.5243 60.4645 37.5243C60.8729 37.5243 61.3738 37.1382 61.5298 36.7029C61.6037 36.4966 61.7681 36.3511 61.9271 36.3511C62.195 36.3511 74.2852 35.1766 77.4913 34.8392L79.1486 34.6647L81.2242 29.8898C86.4013 17.981 86.574 17.5999 86.757 17.6744C87.0006 17.7735 87.7384 17.3578 87.8458 17.0607C88.0905 16.3843 87.8975 15.7388 87.363 15.4456C87.1448 15.3258 86.8257 15.2609 86.654 15.3012C86.3763 15.3663 85.7762 14.5234 81.2284 7.67872C77.2395 1.67535 76.054 -0.0132664 75.8363 7.8318e-05C75.683 0.00931698 71.7354 0.399247 67.0638 0.866312ZM71.2392 2.76933C69.1704 3.97915 67.4056 4.96901 67.3173 4.96901C66.9879 4.96901 58.4889 2.27411 58.564 2.19345C58.655 2.09579 73.1132 0.615256 74.2421 0.58798L75.0004 0.569649L71.2392 2.76933ZM76.0287 1.11957C76.4447 2.79983 77.9958 10.2773 77.9406 10.3358C77.9048 10.3739 76.8174 9.70873 75.5246 8.8576L73.1737 7.3102L73.1884 6.7116C73.2171 5.5575 71.9784 5.0064 71.3012 5.87205L71.0543 6.18763L69.7113 5.77512C67.8625 5.20731 67.8755 5.21889 68.5899 4.77852C69.9409 3.94587 75.7025 0.586806 75.7942 0.578594C75.8484 0.573608 75.9539 0.817186 76.0287 1.11957ZM80.7453 7.60863C82.9729 10.9558 85.0732 14.1099 85.4125 14.6177C85.7517 15.1255 85.9977 15.5745 85.9591 15.6156C85.8778 15.7017 78.9863 11.2054 78.656 10.8508C78.5214 10.7064 78.0764 8.90849 77.5084 6.2155C76.9981 3.79585 76.5456 1.68415 76.5029 1.52284C76.452 1.33059 76.4718 1.28015 76.5603 1.3762C76.6345 1.45685 78.5177 4.26145 80.7453 7.60863ZM62.7421 3.80435C65.0723 4.53509 66.9959 5.15085 67.0168 5.17299C67.0678 5.22725 61.5076 8.45697 61.2625 8.51563C61.1381 8.5454 60.542 7.57651 59.5834 5.78553C58.3349 3.45328 58.1223 2.96657 58.2542 2.74264C58.3404 2.59599 58.4324 2.47604 58.4584 2.47604C58.4842 2.47604 60.4121 3.07377 62.7421 3.80435ZM57.2356 7.79193L57.2327 12.3746L53.8306 15.6741C51.9594 17.4889 50.3746 18.9955 50.3087 19.0223C50.1697 19.0786 50.1033 19.2364 53.8386 10.6338C56.8615 3.67179 57.0692 3.20927 57.173 3.20927C57.2091 3.20927 57.2373 5.27154 57.2356 7.79193ZM59.3153 6.07442L60.8075 8.85511L59.818 9.84688C59.2738 10.3924 58.5329 11.108 58.1718 11.437L57.515 12.0353V7.61009C57.515 4.42408 57.5582 3.20003 57.6691 3.23933C57.7537 3.26924 58.4945 4.54506 59.3153 6.07442ZM69.4701 5.89566C70.9653 6.37153 70.9884 6.38575 71.0886 6.88361C71.1852 7.36344 71.1475 7.43148 70.3323 8.24551L69.4743 9.10236L70.373 8.31032C71.2504 7.53706 71.2831 7.5224 71.7535 7.69192C72.065 7.80425 72.2678 7.98858 72.3272 8.21369C72.4167 8.55214 72.4196 8.55082 72.433 8.16368C72.4414 7.9223 72.5588 7.70204 72.7316 7.60393C72.9779 7.46418 73.3521 7.66406 75.5011 9.08344C76.8676 9.98604 78.0373 10.8317 78.1005 10.963C78.2633 11.3017 79.1227 15.3879 79.0476 15.4674C78.9982 15.5199 69.465 11.9636 67.8152 11.2771L67.4004 11.1045L68.4374 10.0753L69.4743 9.04619L68.3984 10.0139C67.8066 10.5461 67.2395 10.9815 67.1382 10.9815C66.8039 10.9815 61.7782 8.99824 61.7781 8.86626C61.7778 8.6828 67.3428 5.43417 67.677 5.42258C67.829 5.4173 68.636 5.63023 69.4701 5.89566ZM72.4687 8.92843C72.4687 9.13007 72.5001 9.21263 72.5384 9.11174C72.5768 9.011 72.5768 8.84602 72.5384 8.74513C72.5001 8.64438 72.4687 8.7268 72.4687 8.92843ZM61.5273 12.5918L62.1055 15.7413L61.2983 16.4776C60.8544 16.8825 60.2415 17.4676 59.9363 17.7778C59.6312 18.0879 59.96 17.8239 60.6669 17.1912C61.3739 16.5584 61.998 16.0236 62.0538 16.0026C62.1465 15.9677 63.2005 21.2763 63.2696 22.1265C63.286 22.3282 63.3094 22.4931 63.3217 22.4931C63.365 22.4931 64.5175 28.653 64.4833 28.7022C64.4489 28.7521 58.823 25.4282 58.5437 25.1932C58.4631 25.1253 58.2492 24.2406 58.0682 23.2271L57.7392 21.3843L58.1488 20.9855C58.5157 20.6284 58.5487 20.5256 58.464 20.0002C58.378 19.4652 58.4141 19.362 58.8756 18.8271L59.3815 18.2409L58.8766 18.732C58.4499 19.1471 58.3055 19.2078 57.9434 19.1235L57.515 19.0236V15.8233V12.6227L59.191 10.9889C60.1128 10.0905 60.8853 9.37482 60.9079 9.39873C60.9305 9.42263 61.2091 10.8595 61.5273 12.5918ZM64.1688 10.3282C65.5602 10.8561 66.7248 11.3158 66.7568 11.3498C66.7889 11.3839 66.5388 11.6943 66.2011 12.0398C65.8633 12.3853 65.7772 12.5009 66.0098 12.2967C66.2424 12.0926 66.563 11.8112 66.7223 11.6713C67.0016 11.4262 67.1111 11.4547 69.7639 12.4613C71.2776 13.0357 72.8581 13.6353 73.2764 13.7938C73.6946 13.9525 75.0945 14.4801 76.3872 14.9664C77.6799 15.4527 78.7844 15.897 78.8418 15.9536C78.9322 16.0429 74.7958 19.9268 74.6104 19.9268C74.5723 19.9268 74.5125 19.8114 74.4777 19.6702C74.4375 19.5064 74.4087 19.5545 74.3985 19.8028C74.3858 20.1116 73.9914 20.5515 72.493 21.9291C71.4537 22.8845 70.4117 23.8451 70.1772 24.0636C69.9427 24.2822 69.6383 24.4636 69.5007 24.4668C69.3631 24.4702 69.2845 24.5309 69.3258 24.602C69.3976 24.7251 65.0102 28.8172 64.9262 28.7058C64.8875 28.6543 63.9303 23.5994 63.7999 22.7572C63.765 22.5313 63.4508 20.8287 63.1019 18.9736L62.4676 15.6008L63.4077 14.7209C63.9249 14.237 64.5992 13.586 64.9064 13.2744C65.2135 12.9628 64.7928 13.3169 63.9715 14.0612C63.1501 14.8055 62.459 15.3905 62.4358 15.361C62.3737 15.2824 61.3862 9.8545 61.3862 9.59186C61.3862 9.46897 61.4432 9.36837 61.5127 9.36837C61.5823 9.36837 62.7775 9.80024 64.1688 10.3282ZM72.6069 9.66166C72.6069 9.8633 72.6383 9.94586 72.6766 9.84497C72.715 9.74422 72.715 9.57925 72.6766 9.47836C72.6383 9.37761 72.6069 9.46002 72.6069 9.66166ZM72.7343 10.4804C72.7409 10.6512 72.7737 10.686 72.8178 10.5691C72.8577 10.4632 72.8528 10.3367 72.8069 10.288C72.761 10.2393 72.7283 10.3258 72.7343 10.4804ZM72.8834 11.2748C72.8834 11.4764 72.9148 11.559 72.9531 11.4581C72.9916 11.3573 72.9916 11.1923 72.9531 11.0915C72.9148 10.9907 72.8834 11.0731 72.8834 11.2748ZM82.3119 13.5649C86.2753 16.1756 85.9066 15.9117 85.813 16.0723C85.7437 16.191 79.7008 15.7951 79.584 15.6642C79.5166 15.5886 78.6684 11.6729 78.6684 11.4377C78.6684 11.3481 78.7059 11.2748 78.7518 11.2748C78.7977 11.2748 80.3997 12.3054 82.3119 13.5649ZM73.0217 12.008C73.0217 12.2096 73.0531 12.2922 73.0914 12.1913C73.1298 12.0905 73.1298 11.9256 73.0914 11.8247C73.0531 11.7239 73.0217 11.8064 73.0217 12.008ZM73.149 12.8267C73.1557 12.9976 73.1884 13.0323 73.2325 12.9154C73.2725 12.8096 73.2675 12.683 73.2216 12.6343C73.1757 12.5856 73.1431 12.6721 73.149 12.8267ZM57.2385 15.9674C57.2385 18.2439 57.1958 19.047 57.0746 19.047C56.7371 19.047 56.2707 19.6821 56.2751 20.1357C56.2807 20.7074 56.5069 21.0218 57.096 21.2769C57.5569 21.4763 57.5661 21.4984 57.8694 23.159C58.0383 24.0834 58.1542 24.8647 58.1271 24.8955C58.0999 24.9263 56.5356 24.0386 54.651 22.9228C52.7663 21.8071 50.9294 20.7261 50.5689 20.5205C50.2084 20.315 49.9284 20.0983 49.9467 20.039C49.9752 19.9468 57.1076 12.9295 57.204 12.8989C57.223 12.8928 57.2385 14.2737 57.2385 15.9674ZM73.4365 14.3543C73.4365 14.556 73.4679 14.6385 73.5062 14.5376C73.5446 14.4369 73.5446 14.2719 73.5062 14.171C73.4679 14.0703 73.4365 14.1527 73.4365 14.3543ZM73.5747 15.0875C73.5747 15.2892 73.6061 15.3717 73.6444 15.2708C73.6828 15.1701 73.6828 15.0051 73.6444 14.9042C73.6061 14.8035 73.5747 14.8859 73.5747 15.0875ZM73.713 15.8208C73.713 16.0224 73.7444 16.105 73.7827 16.0041C73.8211 15.9033 73.8211 15.7384 73.7827 15.6375C73.7444 15.5367 73.713 15.6191 73.713 15.8208ZM83.5074 16.4222C85.5553 16.5832 85.8503 16.6669 85.8557 17.0885C85.8568 17.1808 84.4424 18.5903 82.7124 20.2207L79.5671 23.185L79.528 19.9795C79.5065 18.2165 79.525 16.6181 79.569 16.4277C79.6455 16.0978 79.6897 16.0855 80.5068 16.1674C80.9786 16.2148 82.3288 16.3295 83.5074 16.4222ZM73.8513 16.7006C73.8513 16.9023 73.8826 16.9848 73.9209 16.8839C73.9594 16.7832 73.9594 16.6182 73.9209 16.5173C73.8826 16.4166 73.8513 16.499 73.8513 16.7006ZM79.133 20.0879L79.0409 23.6669L77.8147 24.8134C76.6022 25.9469 76.5831 25.9581 76.116 25.7946C75.7327 25.6604 75.564 25.6728 75.2204 25.8613C74.9877 25.989 74.7972 26.1578 74.7972 26.2364C74.7972 26.315 74.6883 26.3845 74.5553 26.3908C74.4108 26.3977 74.3828 26.4322 74.4861 26.4763C74.5812 26.5171 74.6584 26.7593 74.6578 27.0146C74.6569 27.3992 74.5676 27.531 74.1394 27.7803C73.8548 27.946 72.6712 28.665 71.509 29.3778L69.396 30.6742L67.8452 30.1146C66.9923 29.8068 66.0501 29.4465 65.7514 29.314L65.2085 29.0731L67.5803 26.9091C69.0269 25.5893 70.0157 24.7865 70.1148 24.8515C70.2125 24.9154 70.2407 24.895 70.1855 24.8003C70.0841 24.6264 74.3652 20.6315 74.5342 20.7423C74.5913 20.7797 74.6583 20.719 74.683 20.6073C74.7297 20.397 79.093 16.3689 79.1773 16.4584C79.2035 16.4861 79.1836 18.1194 79.133 20.0879ZM73.9895 17.4339C73.9895 17.6355 74.0209 17.7181 74.0592 17.6172C74.0976 17.5164 74.0976 17.3515 74.0592 17.2506C74.0209 17.1498 73.9895 17.2322 73.9895 17.4339ZM86.1354 17.5439C86.1372 17.7204 79.4703 33.0366 79.3213 33.1982C79.2331 33.2939 79.2163 32.5586 79.2729 31.0852C79.3206 29.8424 79.3597 27.6616 79.3597 26.239V23.6525L82.6433 20.5495C84.4494 18.8428 85.9735 17.4437 86.0306 17.4402C86.0877 17.4367 86.1349 17.4834 86.1354 17.5439ZM74.1278 18.1671C74.1278 18.3687 74.1591 18.4513 74.1974 18.3504C74.2359 18.2497 74.2359 18.0847 74.1974 17.9838C74.1591 17.883 74.1278 17.9655 74.1278 18.1671ZM74.2551 18.9858C74.2617 19.1567 74.2945 19.1914 74.3386 19.0745C74.3786 18.9687 74.3736 18.8421 74.3277 18.7934C74.2818 18.7447 74.2491 18.8312 74.2551 18.9858ZM52.8143 22.3047C53.6888 22.8254 54.7775 23.4669 55.2338 23.7301C57.483 25.0275 58.3446 25.5648 58.3446 25.6699C58.3446 25.7333 58.7211 27.8404 59.181 30.3524C59.6412 32.8646 59.9988 35.018 59.976 35.1376C59.9532 35.2574 58.7547 33.5832 57.3125 31.4172C55.8705 29.2513 53.7084 26.0156 52.508 24.2266C51.3077 22.4378 50.3257 20.9312 50.3257 20.8786C50.3257 20.8259 50.5278 20.9121 50.775 21.0702C51.0222 21.2285 51.9398 21.784 52.8143 22.3047ZM74.6808 21.2466C74.6808 21.4483 74.7122 21.5308 74.7505 21.43C74.7889 21.3292 74.7889 21.1642 74.7505 21.0633C74.7122 20.9626 74.6808 21.045 74.6808 21.2466ZM61.1789 21.5967C61.407 21.7068 61.7492 21.8375 61.9393 21.8869C62.2169 21.9592 62.2032 21.9373 61.8701 21.7765C61.642 21.6663 61.2998 21.5357 61.1097 21.4863C60.8321 21.414 60.8458 21.4358 61.1789 21.5967ZM74.8081 22.0654C74.8148 22.2362 74.8475 22.271 74.8916 22.1541C74.9316 22.0482 74.9266 21.9217 74.8807 21.873C74.8348 21.8243 74.8022 21.9108 74.8081 22.0654ZM74.9573 22.8597C74.9573 23.0614 74.9887 23.1439 75.027 23.0431C75.0654 22.9423 75.0654 22.7773 75.027 22.6764C74.9887 22.5757 74.9573 22.6581 74.9573 22.8597ZM64.9809 23.0064C65.095 23.0846 65.2505 23.1485 65.3266 23.1485C65.4026 23.1485 65.3715 23.0846 65.2575 23.0064C65.1434 22.9282 64.9878 22.8643 64.9118 22.8643C64.8358 22.8643 64.8669 22.9282 64.9809 23.0064ZM75.0956 23.593C75.0956 23.7946 75.1269 23.8772 75.1652 23.7763C75.2037 23.6755 75.2037 23.5106 75.1652 23.4097C75.1269 23.3089 75.0956 23.3913 75.0956 23.593ZM75.2338 24.3262C75.2338 24.5278 75.2652 24.6104 75.3035 24.5095C75.3419 24.4088 75.3419 24.2438 75.3035 24.1429C75.2652 24.0421 75.2338 24.1246 75.2338 24.3262ZM79.0081 27.0025C78.8957 31.6847 78.7854 34.1516 78.6886 34.1498C78.6395 34.1489 76.9195 33.5149 74.8663 32.741C72.8132 31.967 70.8367 31.2289 70.4742 31.1006C70.1117 30.9725 69.8336 30.8084 69.8564 30.7359C69.8791 30.6635 70.9759 29.9439 72.2938 29.1368L74.6896 27.6693L75.198 27.9123C75.5846 28.0972 75.7943 28.1199 76.074 28.0071C76.6139 27.7894 76.9248 27.2109 76.8122 26.6341C76.7245 26.186 76.7798 26.0999 77.7975 25.1003C78.3906 24.5179 78.9217 24.0395 78.9777 24.0372C79.0337 24.0348 79.0474 25.3693 79.0081 27.0025ZM75.3612 25.1449C75.3678 25.3158 75.4006 25.3505 75.4447 25.2336C75.4846 25.1278 75.4796 25.0012 75.4337 24.9525C75.3878 24.9038 75.3552 24.9904 75.3612 25.1449ZM61.6588 27.5257C63.1393 28.4135 64.3707 29.2032 64.395 29.2808C64.4193 29.3582 63.6658 30.7003 62.7207 32.2631C61.1681 34.83 60.9651 35.1046 60.6196 35.1046H60.237L59.4306 30.7053C58.9872 28.2856 58.6236 26.1833 58.6226 26.0336C58.6207 25.6881 58.473 25.6155 61.6588 27.5257ZM72.9999 25.9393C73.1139 26.0175 73.2695 26.0814 73.3455 26.0814C73.4215 26.0814 73.3904 26.0175 73.2764 25.9393C73.1623 25.8611 73.0068 25.7972 72.9307 25.7972C72.8547 25.7972 72.8858 25.8611 72.9999 25.9393ZM66.8926 30.1634C67.906 30.5476 68.7338 30.9154 68.732 30.9808C68.7277 31.1468 61.399 35.6117 61.3287 35.491C61.2972 35.4371 61.8283 34.4738 62.5086 33.3505C63.1891 32.2272 63.9936 30.892 64.2964 30.3834C64.5992 29.8748 64.8926 29.4601 64.9484 29.4619C65.0043 29.4635 65.8792 29.7792 66.8926 30.1634ZM70.2528 31.4218C70.7371 31.6143 72.5955 32.3151 74.3824 32.9793C77.7144 34.2176 78.2221 34.432 77.8409 34.4403C77.6467 34.4444 70.0795 35.1822 64.3588 35.7546C61.9066 35.9999 61.2378 35.9791 61.6836 35.6711C62.4847 35.1177 69.0937 31.0924 69.2159 31.0833C69.3019 31.077 69.7685 31.2294 70.2528 31.4218ZM104.126 51.8282C101.617 52.4056 99.7994 54.0924 98.9784 56.6047C98.5443 57.9332 98.5345 60.2121 98.9567 61.6536C99.6813 64.1274 101.259 65.7158 103.768 66.4976C105.467 67.027 108.654 66.7297 110.719 65.8494L111.643 65.4554L111.68 61.7282C111.7 59.6783 111.665 57.946 111.601 57.8787C111.538 57.8113 110.321 57.8008 108.898 57.8553L106.31 57.9545L106.35 59.3609L106.389 60.7676L107.599 60.81L108.809 60.8523V62.0038V63.1554L108.263 63.3867C107.396 63.7547 106.128 63.9197 105.284 63.7739C103.83 63.523 102.816 62.7589 102.216 61.4612C101.871 60.7179 101.827 60.4602 101.828 59.2278C101.83 57.5945 102.139 56.6747 102.976 55.8098C103.832 54.9254 104.668 54.6073 106.112 54.6161C107.429 54.6243 108.348 54.9406 108.886 55.5712C109.019 55.7272 109.172 55.855 109.225 55.855C109.278 55.855 109.774 55.3244 110.326 54.6758C111.305 53.5258 111.324 53.4894 111.082 53.2058C110.657 52.7076 109.181 52.0356 108.037 51.8194C106.672 51.5615 105.271 51.5647 104.126 51.8282ZM114.234 59.1178L114.27 66.3401L115.86 66.3878C116.734 66.4139 118.898 66.39 120.669 66.3345L123.888 66.2336L123.849 64.8204L123.809 63.4072H120.56H117.311V61.9407V60.4743L120.254 60.4347L123.197 60.3951L123.158 58.9682L123.118 57.5414L120.18 57.5018L117.242 57.4622V56.1453V54.8284H120.353H123.464V53.362V51.8955H118.831H114.198L114.234 59.1178ZM125.999 53.3145C126.049 54.1068 126.09 57.3453 126.09 60.5109L126.091 66.2668H127.624H129.158L129.11 63.407L129.063 60.5475L129.824 60.5508L130.584 60.5542L131.967 63.3542C132.727 64.8943 133.415 66.1819 133.495 66.2153C133.575 66.2489 134.397 66.2577 135.32 66.2348L137 66.1934L135.276 63.2014C134.328 61.5558 133.569 60.1983 133.589 60.1845C133.609 60.1709 133.922 60.0433 134.284 59.901C135.529 59.4117 136.299 58.1941 136.426 56.5132C136.529 55.1541 136.187 54.0854 135.375 53.2243C134.289 52.0716 133.947 51.9945 129.629 51.9297L125.909 51.8738L125.999 53.3145ZM84.9937 52.124C84.8478 52.284 84.8679 66.1493 85.0143 66.3945C85.195 66.6969 90.9958 66.543 92.1485 66.2052C94.1762 65.6111 95.8958 64.3098 96.6846 62.7728C97.7176 60.7597 97.7445 57.8945 96.75 55.7956C95.9748 54.1591 94.5524 53.0333 92.5391 52.462C91.641 52.2073 90.9173 52.1429 88.2773 52.0828C86.5283 52.0429 85.0508 52.0615 84.9937 52.124ZM52.7452 52.3227L50.533 52.4088L50.538 53.252C50.5407 53.7158 50.5563 56.9328 50.5726 60.401L50.6022 66.7067H52.123H53.6438V63.8471V60.9875L54.3697 60.9893L55.0955 60.9911L56.524 63.8489L57.9524 66.7067H59.7516H61.5508L61.166 66.0101C60.9545 65.627 60.1723 64.2601 59.4281 62.9725L58.0748 60.6315L58.7612 60.3599C59.547 60.049 60.1564 59.4605 60.5967 58.5875C60.8519 58.0813 60.9015 57.7515 60.8975 56.5882C60.8921 55.0197 60.6721 54.3886 59.843 53.5617C58.6817 52.4037 57.2215 52.1488 52.7452 52.3227ZM62.9714 59.4111C63.0272 63.3833 63.0875 66.65 63.1052 66.67C63.123 66.6903 65.0144 66.6632 67.3082 66.6098L71.479 66.5127V65.07V63.6272H68.7139H65.9487V57.908V52.1888H64.4092H62.8697L62.9714 59.4111ZM73.051 52.5188C73.0968 52.7003 73.1352 55.9338 73.1362 59.7044L73.1381 66.5601H77.908H82.6779V65.0936V63.6272H79.4288H76.1798V62.1607V60.6942H79.0832H81.9866V59.2278V57.7613H79.0141H76.0415V56.4443V55.1273L79.1869 55.0879L82.3322 55.0484L82.3787 54.5351C82.4043 54.2528 82.3837 53.6095 82.3331 53.1053L82.2411 52.1888H77.6044H72.9676L73.051 52.5188ZM27.0639 52.432L26.6837 52.5016V59.6774V66.8534H28.2045H29.7253V64.0671V61.2808L30.1747 61.2763C30.4219 61.2739 31.3948 61.2125 32.3367 61.1399C33.8403 61.0239 34.1585 60.9509 34.9415 60.542C36.3846 59.7886 36.9967 58.4954 36.8854 56.436C36.7788 54.4659 35.9028 53.2926 34.0804 52.679C33.5586 52.5034 32.6601 52.4359 30.4166 52.4042C28.7817 52.3812 27.2729 52.3937 27.0639 52.432ZM38.7362 59.5091C38.761 63.4544 38.8178 66.7212 38.8625 66.7686C38.9073 66.816 41.0692 66.8108 43.6669 66.757L48.3901 66.6592V65.2076V63.7558L45.1064 63.7848L41.8228 63.8138V62.3639V60.9142L44.7608 60.8746L47.6988 60.835V59.3715V57.908H44.7262H41.7537V56.5882V55.2684H44.8645H47.9753V53.8019V52.3355H43.3333H38.6913L38.7362 59.5091ZM8.84847 55.1901V57.908H5.94506H3.04166V55.2684V52.6288H1.52083H0V59.8144V67H1.51807H3.03613L3.07346 63.8838L3.11079 60.7676L5.97687 60.728L8.84294 60.6884L8.88027 63.8075L8.9176 66.9267H10.3693H11.821V59.7411V52.5554L10.3347 52.5138L8.84847 52.4721V55.1901ZM12.7589 52.6654C12.7968 52.7663 13.9544 54.6494 15.3315 56.8502L17.8352 60.8517V63.8525V66.8534H19.3682H20.9012L20.8012 63.9304L20.7014 61.0073L21.0909 60.3009C21.3052 59.9123 22.4334 58.0319 23.5982 56.1221C24.7629 54.2124 25.7159 52.6122 25.7159 52.566C25.7159 52.5199 24.9448 52.4821 24.0026 52.4821H22.2892L20.8001 55.142C19.4698 57.5183 19.2919 57.7738 19.13 57.539C19.0303 57.3944 18.3715 56.1978 17.6661 54.8799L16.3835 52.4837L14.5368 52.4828C13.1147 52.4823 12.7058 52.5242 12.7589 52.6654ZM132.202 54.6877C132.877 54.8864 133.28 55.4439 133.28 56.1777C133.28 57.4493 132.736 57.7613 130.519 57.7613H128.994V56.1482V54.5351L130.342 54.536C131.083 54.5365 131.921 54.6047 132.202 54.6877ZM56.7802 55.1315C57.4875 55.4157 57.7916 55.8422 57.7916 56.55C57.7916 57.8801 57.2719 58.2013 55.1188 58.2013H53.6814L53.5935 57.5208C53.4783 56.6298 53.4808 55.1968 53.5978 55.0729C53.7479 54.9135 56.3574 54.9616 56.7802 55.1315ZM91.8555 55.416C93.5254 56.089 94.3465 57.3485 94.3352 59.2199C94.3169 62.2123 92.557 63.6116 88.7958 63.6242L87.9316 63.6272V59.2807V54.9342L89.487 55.0113C90.625 55.0678 91.2606 55.1764 91.8555 55.416ZM32.8297 55.3294C33.4182 55.5903 33.7624 56.1361 33.7624 56.8081C33.7624 58.0253 33.0058 58.4946 31.0432 58.4946H29.7253V56.8081V55.1217H31.0432C31.8673 55.1217 32.5366 55.1996 32.8297 55.3294Z" fill="#606060"/>
</svg>
