<svg width="91" height="91" viewBox="0 0 91 91" fill="none" xmlns="http://www.w3.org/2000/svg">
<path d="M45.5 91C70.629 91 91 70.629 91 45.5C91 20.371 70.629 0 45.5 0C20.371 0 0 20.371 0 45.5C0 70.629 20.371 91 45.5 91Z" fill="#606060"/>
<path d="M32.7784 25.0858V37.2405H58.0996V36.0483C58.0996 32.7527 58.1341 29.4572 58.0777 26.1625C58.0617 25.2143 58.379 24.9686 59.2483 25.0031C60.7565 25.0643 62.268 25.0203 63.9091 25.0203C63.9335 25.5591 63.9722 26.0091 63.9722 26.4591C63.9722 39.1369 63.9621 51.8148 64 64.4918C64 65.6314 63.7744 66.0866 62.5735 65.9866C61.152 65.8676 59.7121 65.959 58.1442 65.959V53.4992H32.7801C32.7801 55.7689 32.7801 57.9697 32.7801 60.1705C32.7801 61.7988 32.7717 63.4272 32.7801 65.0556C32.7801 65.5728 32.738 65.9719 32.0757 65.9642C30.4169 65.9435 28.7581 65.9573 27 65.9573V25.0229C28.546 25.0229 30.0163 25.0229 31.4874 25.0229C31.8619 25.0272 32.2322 25.0591 32.7784 25.0858ZM33.0679 48.402H58.2637V42.1954H40.2535C38.1722 42.1954 36.0909 42.1756 34.0114 42.2221C33.6932 42.229 33.1159 42.5385 33.1083 42.7256C33.0418 44.6117 33.0688 46.4995 33.0688 48.402H33.0679Z" fill="white"/>
</svg>
