<svg width="46" height="46" viewBox="0 0 46 46" fill="none" xmlns="http://www.w3.org/2000/svg">
<path fill-rule="evenodd" clip-rule="evenodd" d="M25.8362 0.0234494C25.7619 0.0413036 25.3973 0.105005 25.026 0.165027C22.7076 0.539787 20.4001 1.96624 18.8978 3.95335C18.2018 4.87388 17.5276 6.25565 17.2229 7.3863C17.0046 8.19611 16.9816 8.43109 16.9816 9.85153C16.9816 11.2706 17.0048 11.5079 17.2225 12.3188C17.9619 15.0721 19.8758 17.4277 22.4153 18.7101C23.1695 19.0909 24.4343 19.4938 25.3143 19.6338C26.3249 19.7944 28.2895 19.7027 29.257 19.4497C30.983 18.9985 32.3677 18.2189 33.6834 16.9579C35.0053 15.6909 35.9558 14.0856 36.4302 12.3188C36.648 11.5079 36.6711 11.2706 36.6711 9.85153C36.6711 8.44105 36.6473 8.19288 36.4361 7.41061C35.4487 3.75283 32.5484 0.991526 28.8566 0.194186C28.2721 0.0679504 26.1501 -0.0520049 25.8362 0.0234494ZM28.8519 2.04143C32.2961 2.93459 34.7309 5.93383 34.901 9.49265C35.1806 15.3454 29.3576 19.4938 23.8369 17.375C21.3785 16.4315 19.4357 14.1268 18.8941 11.5115C17.9778 7.087 20.8957 2.75676 25.3621 1.91268C26.3011 1.73521 27.8982 1.79416 28.8519 2.04143ZM26.1806 3.72475C25.8447 3.93245 25.7461 4.20143 25.7461 4.9103C25.7461 5.51116 25.7406 5.52551 25.467 5.63847C25.3135 5.70181 24.9955 5.94038 24.7605 6.16862C23.4421 7.44839 23.7939 9.64356 25.4496 10.4697C25.6578 10.5736 26.1034 10.6972 26.4398 10.7443C26.9512 10.816 27.092 10.8751 27.299 11.1048C27.5774 11.4138 27.6108 11.7105 27.4106 12.0963C27.0867 12.7205 26.2612 12.6985 25.6561 12.0497C25.1426 11.4991 24.5397 11.4311 24.1197 11.8767C23.8151 12.1998 23.8308 12.6742 24.1605 13.1049C24.4214 13.4459 25.4032 14.1581 25.6121 14.1581C25.6947 14.1581 25.7367 14.3777 25.7594 14.9285C25.7888 15.6428 25.8095 15.7146 26.0437 15.9154C26.3863 16.2091 26.9064 16.2091 27.249 15.9154C27.4828 15.7149 27.5039 15.6422 27.533 14.9359C27.562 14.2338 27.5804 14.169 27.7656 14.1227C27.8761 14.0951 28.1576 13.9049 28.3911 13.7001C30.1381 12.1675 29.3262 9.37521 27.0317 9.02566C26.2684 8.90929 26.0346 8.80136 25.8735 8.49093C25.6654 8.08979 25.7158 7.80027 26.0522 7.46498C26.4949 7.02374 26.9641 7.08215 27.666 7.66605C28.3033 8.19611 29.2991 7.60513 29.1221 6.80187C29.0531 6.48865 28.4992 5.97052 27.9483 5.70379L27.5466 5.50918V4.89048C27.5466 4.20439 27.3893 3.83062 27.0324 3.66849C26.7333 3.53275 26.4622 3.5506 26.1806 3.72475ZM41.4017 19.2577C40.6993 19.4888 40.2428 19.8299 39.2031 20.9007C38.7072 21.4114 37.4395 22.7107 36.3858 23.7882L34.4701 25.7474L34.0623 25.3727C33.5376 24.8906 32.8207 24.5666 32.0638 24.4693C31.7331 24.4268 29.2387 24.3907 26.5206 24.3891L21.5788 24.3861L20.7375 24.1176C19.4682 23.7123 18.4904 23.5685 17.0141 23.57C14.4716 23.5724 12.4296 24.1506 10.4622 25.4254C9.45333 26.079 8.09275 27.4335 7.44036 28.4337L6.93633 29.2066L6.31348 29.251C5.24249 29.3274 5.07082 29.4526 2.40807 32.1008L0 34.4958V34.9228V35.35L5.18902 40.5671C8.04297 43.4366 10.4635 45.8334 10.5678 45.8933C10.8226 46.0396 11.1205 46.0353 11.4147 45.8812C11.5484 45.811 12.7361 44.6705 14.0539 43.3466C16.7866 40.6014 16.7915 40.5938 16.731 39.295L16.699 38.6064L17.3789 37.9786C18.4727 36.9683 17.9072 37.0356 25.2984 37.0362C29.192 37.0364 31.9384 37.0002 32.4002 36.9425C33.911 36.7537 35.4469 36.0952 36.6143 35.1356C37.2791 34.5892 45.5254 24.7263 45.7894 24.1618C45.9706 23.7742 45.9993 23.5728 46 22.6815C46.0008 21.7331 45.9802 21.6062 45.745 21.1114C45.398 20.3809 44.7835 19.7733 44.0423 19.4276C43.2676 19.0662 42.1933 18.9971 41.4017 19.2577ZM43.3368 21.0904C43.9199 21.4229 44.2282 21.8821 44.2718 22.4839C44.2964 22.8232 44.2618 23.1148 44.171 23.3312C44.004 23.7297 36.4144 32.8159 35.6007 33.5916C34.9465 34.2153 34.1048 34.6893 33.1265 34.985C32.458 35.187 32.3981 35.189 25.4311 35.2411C20.5675 35.2776 18.3207 35.3249 18.1209 35.3951C17.4976 35.6142 16.7405 36.0874 16.1417 36.632L15.5144 37.2027L11.9884 33.6876L8.46238 30.1726L8.89637 29.4999C10.6213 26.8262 13.4815 25.367 17.0004 25.3656C18.3743 25.365 19.2341 25.4992 20.3078 25.8818L21.02 26.1357L26.5563 26.1805C32.077 26.2253 32.0937 26.2259 32.47 26.4264C33.767 27.1174 33.767 28.9222 32.47 29.6131C32.0988 29.8109 32.0253 29.8149 27.9662 29.859L23.8398 29.9039L23.6227 30.1556C23.3165 30.5107 23.3333 30.942 23.6682 31.3155L23.9308 31.6086L27.6807 31.6348C31.6981 31.6629 32.3963 31.6156 33.1676 31.2637C34.4171 30.6935 35.3859 29.1228 35.2755 27.846C35.2505 27.5561 35.399 27.3872 38.2891 24.4159C40.0765 22.5785 41.4813 21.2076 41.6988 21.0889C42.1933 20.8188 42.8614 20.8194 43.3368 21.0904ZM20.0647 29.8142C19.5906 30.071 19.5146 30.7526 19.9127 31.1777C20.3029 31.5944 21.0393 31.5088 21.2943 31.0172C21.7348 30.1684 20.9066 29.3581 20.0647 29.8142ZM10.9097 35.1259L14.9436 39.1492L14.9448 39.5508L14.9462 39.9525L13.015 41.8591C11.9529 42.9077 11.0509 43.7656 11.0104 43.7656C10.97 43.7656 8.95209 41.7868 6.5262 39.3683L2.1155 34.9711L4.11281 32.9857L6.11003 31.0003L6.49289 31.0514C6.85738 31.1001 7.06957 31.2959 10.9097 35.1259Z" fill="#FF8E4E"/>
</svg>
