<svg width="50" height="50" viewBox="0 0 50 50" fill="none" xmlns="http://www.w3.org/2000/svg">
<path fill-rule="evenodd" clip-rule="evenodd" d="M39.8426 0.0962154C39.2466 0.319431 38.9274 0.611998 38.396 1.42221L37.8855 2.20053L37.0862 2.25687C36.6467 2.28778 34.4619 2.38139 32.2314 2.46483C27.6862 2.63493 26.8907 2.72521 24.3683 3.35808C21.6121 4.04964 17.053 5.58926 16.0948 6.15219C15.4921 6.50619 14.8308 7.11049 14.2699 7.81995C13.582 8.68973 9.48326 14.9644 9.25546 15.4963C8.60892 17.0061 9.1767 18.5986 10.6135 19.3048C11.0747 19.5314 11.2996 19.5793 11.9049 19.5793C13.13 19.5793 13.1513 19.5624 16.6668 15.8073L19.7716 12.4909L20.8466 12.4882C21.4378 12.4867 22.0894 12.4577 22.2947 12.4238L22.6679 12.362L22.2838 12.9107C21.7865 13.6214 21.6397 14.1621 21.698 15.0699C21.802 16.694 23.0216 17.7303 24.8044 17.7093C25.3963 17.7024 25.8476 17.6042 27.1498 17.1986C32.7187 15.4645 32.535 15.5013 34.2836 15.7676C35.6861 15.9812 38.009 16.011 38.4667 15.8213C39.0927 15.5617 39.2472 14.8388 38.7869 14.3232L38.5018 14.0038L37.0523 13.9924C36.2551 13.9863 35.0532 13.905 34.3813 13.812C32.3777 13.5344 32.1615 13.5732 27.3941 15.0639C24.9827 15.818 24.7344 15.87 24.2736 15.7178C23.3524 15.4135 23.42 14.2426 24.4001 13.5263C25.1471 12.9803 27.3669 11.7491 29.4665 10.7163C30.5713 10.1729 31.5077 9.64999 31.592 9.52948C31.7647 9.28269 31.7901 8.74832 31.6421 8.4718C31.4873 8.18226 30.984 7.96188 30.6316 8.02928C30.4634 8.06146 29.3143 8.5969 28.0781 9.21911L25.8305 10.3505L22.3613 10.4803C20.4532 10.5518 18.884 10.6144 18.874 10.6196C18.8641 10.6248 17.5066 12.0706 15.8572 13.8326C14.2079 15.5945 12.7105 17.1792 12.5297 17.354C12.1456 17.7253 11.8077 17.761 11.3456 17.4789C10.9493 17.2371 10.8503 16.8732 11.0395 16.3544C11.1865 15.9516 15.0156 10.0501 15.7796 9.0491C16.5182 8.08122 16.8923 7.84705 18.8513 7.12644C22.074 5.94101 25.1666 5.06516 27.3649 4.71518C27.9007 4.62988 30.3948 4.48727 33.4426 4.36764C36.9663 4.22933 38.6842 4.12662 38.8398 4.04504C38.9654 3.97921 39.3658 3.48622 39.7297 2.94941C40.0936 2.41269 40.4577 1.96107 40.5387 1.94591C40.6953 1.91657 47.8304 7.33606 48.0005 7.61346C48.153 7.86201 47.5419 8.709 46.2419 10.0514C45.2362 11.0898 45.1309 11.2325 45.1309 11.5571C45.1309 12.0709 45.5608 12.4876 46.0911 12.4876C46.4153 12.4876 46.5755 12.4066 47.0565 11.9994C47.723 11.4353 48.8948 10.1112 49.4428 9.30294C49.9006 8.62781 50.0567 8.09589 49.9822 7.46459C49.8705 6.51783 49.7275 6.37834 45.6976 3.28932C43.6401 1.71223 41.8137 0.337429 41.639 0.234234C41.2313 -0.00658898 40.3066 -0.0776033 39.8426 0.0962154ZM41.8841 13.0265C41.3256 13.34 41.2372 14.083 41.7031 14.5493C42.3927 15.2396 43.5771 14.5313 43.2734 13.6103C43.216 13.4362 43.0882 13.2206 42.9894 13.1311C42.7331 12.8988 42.2011 12.8486 41.8841 13.0265ZM21.7868 18.8581C21.0111 18.9871 20.1097 19.4589 19.5139 20.0478C18.0743 21.4707 17.7652 23.5377 18.7219 25.3431C19.0062 25.8798 23.6074 30.6258 24.199 30.9927C24.6316 31.261 25.3681 31.261 25.8007 30.9927C25.9784 30.8826 27.2266 29.6781 28.5746 28.316C30.6045 26.265 31.0777 25.7339 31.329 25.2251C32.1005 23.6634 31.9674 21.9875 30.96 20.5794C29.7698 18.9159 27.4086 18.3204 25.5677 19.2195L25.0119 19.491L24.5553 19.2588C24.0816 19.0178 22.9823 18.744 22.5567 18.7609C22.4224 18.7663 22.0759 18.81 21.7868 18.8581ZM23.6408 21.0022C23.8364 21.1022 24.1415 21.306 24.3188 21.4553C24.7547 21.8225 25.245 21.8225 25.6809 21.4553C26.4641 20.7956 27.3877 20.5941 28.262 20.892C28.7435 21.0561 29.3508 21.6028 29.6215 22.1158C29.9152 22.6725 29.915 23.7275 29.6211 24.2744C29.5055 24.4896 28.4184 25.6557 27.2054 26.8658L24.9998 29.0657L22.7943 26.8658C21.5813 25.6557 20.4942 24.4896 20.3786 24.2744C20.0847 23.7275 20.0845 22.6725 20.3782 22.1158C20.7493 21.4121 21.3368 20.9808 22.2147 20.7671C22.5364 20.6889 23.2611 20.8083 23.6408 21.0022ZM37.237 30.5257C37.0071 30.6009 36.6772 30.7715 36.5041 30.9049C36.3309 31.0382 34.848 32.5825 33.2086 34.3366L30.2281 37.5258L29.1531 37.5283C28.5619 37.5296 27.9086 37.5587 27.7014 37.5929L27.3248 37.6552L27.6635 37.1761C28.2026 36.4136 28.355 35.8954 28.3032 34.9999C28.2681 34.394 28.2027 34.1335 27.998 33.7838C27.4801 32.8993 26.6425 32.3987 25.4885 32.2845C24.8463 32.2209 24.1523 32.3941 20.7489 33.4673C17.5913 34.4629 17.5082 34.476 15.7877 34.2504C14.1292 34.0328 11.9879 34.0062 11.5269 34.1974C10.9068 34.4545 10.7544 35.1795 11.2128 35.6929L11.4979 36.0123L12.9474 36.0237C13.7446 36.0298 14.9465 36.1112 15.6184 36.2045C17.6 36.4797 17.898 36.4269 22.4306 34.998C23.6244 34.6216 24.793 34.2849 25.0275 34.2497C25.5392 34.1729 26.1008 34.3749 26.2735 34.6979C26.4472 35.0228 26.3343 35.6969 26.0417 36.0808C25.6581 36.5843 22.9049 38.1756 20.051 39.5436C19.2005 39.9512 18.5044 40.3483 18.4141 40.4774C18.2358 40.7322 18.2076 41.264 18.3576 41.5443C18.5123 41.8339 19.0157 42.0543 19.3681 41.9867C19.5363 41.9545 20.6853 41.4185 21.9215 40.7957L24.1692 39.6633L27.5407 39.5406C29.395 39.4731 30.9903 39.3838 31.0858 39.342C31.1814 39.3003 32.5827 37.8518 34.2 36.1232C35.8174 34.3945 37.2887 32.837 37.4697 32.6621C37.854 32.2908 38.1921 32.2552 38.6541 32.5372C39.0504 32.779 39.1494 33.1429 38.9602 33.6617C38.79 34.1281 34.8725 40.1306 34.1376 41.0507C33.5342 41.8064 33.0851 42.1356 32.1184 42.5312C30.8592 43.0466 27.1525 44.2562 25.5862 44.6629C22.9076 45.3584 22.3405 45.4207 16.5937 45.65C13.1354 45.788 11.3001 45.8974 11.1533 45.9745C11.0314 46.0385 10.6334 46.5302 10.2689 47.0672C9.79001 47.7727 9.55225 48.0415 9.41182 48.0361C9.30491 48.0318 7.6783 46.8505 5.79712 45.4109C2.07765 42.5644 1.93703 42.4493 1.93703 42.2513C1.93703 42.0143 2.72595 41.0295 3.81127 39.9119C4.76877 38.9257 4.86874 38.7886 4.86874 38.4615C4.86874 37.9437 4.44022 37.5285 3.90596 37.5285C3.56774 37.5285 3.4238 37.6076 2.84791 38.1102C2.11293 38.7515 1.10999 39.8895 0.546318 40.7215C0.101577 41.378 -0.0564422 41.9248 0.017437 42.5515C0.128158 43.4901 0.275134 43.6338 4.24116 46.6798C6.26854 48.2369 8.1076 49.621 8.32806 49.7555C8.65476 49.9548 8.85528 50 9.4129 50C10.3979 50 10.8612 49.707 11.5756 48.6324L12.119 47.8152L12.9159 47.7596C13.3542 47.7291 15.076 47.6571 16.7422 47.5997C21.2945 47.4427 22.5114 47.3465 24.1236 47.0159C26.9664 46.433 32.6516 44.6002 33.9105 43.8607C34.5078 43.5098 35.1705 42.9035 35.7298 42.1962C36.4177 41.3264 40.5164 35.0517 40.7442 34.5198C41.3856 33.022 40.8212 31.4151 39.4112 30.7245C38.7659 30.4086 37.8517 30.3249 37.237 30.5257ZM7.00068 35.4619C6.75637 35.6804 6.6864 35.8219 6.6864 36.0971C6.6864 36.7386 7.27832 37.2405 7.86192 37.0939C8.59309 36.9102 8.83476 36.0055 8.2966 35.4668C7.90834 35.0782 7.43174 35.0764 7.00068 35.4619Z" fill="#2DBED2"/>
</svg>
