<svg width="18" height="18" viewBox="0 0 18 18" fill="none" xmlns="http://www.w3.org/2000/svg">
<path d="M1.60577 4.73094L9 0.46188L16.3942 4.73094V13.2691L9 17.5381L1.60577 13.2691V4.73094Z" stroke="#410EAD" stroke-width="0.8"/>
<path d="M5.78719 6.88488C5.78719 6.8598 5.81021 6.8368 5.82067 6.81171C5.86398 6.72081 5.93658 6.64707 6.02683 6.6023C6.11709 6.55754 6.21977 6.54434 6.31843 6.56482C6.41708 6.58531 6.506 6.63829 6.57093 6.71528C6.63585 6.79227 6.67303 6.8888 6.67651 6.98942C6.67651 7.11276 6.67651 7.23611 6.67651 7.35109C6.7609 7.3376 6.84636 7.332 6.93179 7.33437C7.03978 7.3477 7.1391 7.40022 7.21086 7.48193C7.28262 7.56365 7.32182 7.66887 7.321 7.77758C7.321 8.02218 7.321 8.26679 7.321 8.51139C7.4088 8.49702 7.4979 8.49212 7.58675 8.49675C7.6964 8.50926 7.79738 8.56234 7.86981 8.64554C7.94224 8.72873 7.98085 8.83601 7.97805 8.94624C7.97805 9.33509 7.97805 9.72395 7.97805 10.1128C7.98043 10.159 7.9981 10.2031 8.02827 10.2382C8.19776 10.4264 8.36935 10.6104 8.54512 10.7923C8.61458 10.8621 8.66898 10.9455 8.70497 11.0372C8.74096 11.1289 8.75777 11.2269 8.75437 11.3254C8.75437 11.825 8.75437 12.3226 8.75437 12.8223C8.75437 12.9581 8.71461 13 8.57651 13H7.11175C6.97574 13 6.93598 12.9581 6.93598 12.8202C6.93598 12.6822 6.93598 12.5087 6.93598 12.354C6.93891 12.2898 6.92789 12.2257 6.90369 12.1661C6.87949 12.1066 6.84268 12.053 6.79578 12.009C6.48051 11.6982 6.16663 11.3846 5.85415 11.0682C5.8202 11.0345 5.79067 10.9965 5.76626 10.9553C5.52353 10.5121 5.28289 10.071 5.04435 9.62569C5.01714 9.57713 5.00274 9.52245 5.0025 9.4668C5.0025 8.77899 5.01505 8.09117 5.0025 7.40545C4.99315 7.30923 5.01016 7.21227 5.05172 7.12497C5.09328 7.03766 5.15782 6.96329 5.23843 6.90982C5.31904 6.85634 5.41269 6.82577 5.50935 6.82138C5.60601 6.81699 5.70205 6.83894 5.78719 6.88488ZM7.42353 10.7295L7.21428 10.8863C7.20152 10.8732 7.18964 10.8592 7.17871 10.8445C6.72115 10.2633 6.26498 9.68284 5.81021 9.10304C5.78143 9.062 5.76608 9.01307 5.76626 8.96296C5.76626 8.42776 5.76626 7.89256 5.76626 7.35946C5.7661 7.30047 5.75175 7.24239 5.72441 7.19011C5.69753 7.14325 5.65576 7.1067 5.60572 7.08625C5.55569 7.0658 5.50025 7.06262 5.4482 7.07722C5.39116 7.09287 5.34119 7.12752 5.30656 7.17542C5.27193 7.22333 5.25472 7.28162 5.25778 7.34064C5.25778 8.03751 5.25778 8.73439 5.25778 9.43126C5.25914 9.46793 5.26918 9.50376 5.28708 9.53579L5.97761 10.7902C5.99914 10.8273 6.02514 10.8617 6.05503 10.8926C6.35217 11.1916 6.6493 11.4905 6.95063 11.7853C7.03208 11.8578 7.09618 11.9477 7.13819 12.0483C7.18021 12.1489 7.19906 12.2576 7.19336 12.3665C7.19336 12.4836 7.19336 12.6006 7.19336 12.7219H8.48444V12.6299C8.48444 12.1888 8.48444 11.7498 8.48444 11.3086C8.48582 11.2418 8.47376 11.1753 8.44896 11.1132C8.42416 11.051 8.38712 10.9945 8.34005 10.947C7.98433 10.5727 7.63488 10.1943 7.28333 9.81803C7.1243 9.6466 6.96527 9.47517 6.80415 9.30583C6.79055 9.28725 6.77276 9.27214 6.75221 9.26172C6.73167 9.25131 6.70896 9.24588 6.68592 9.24588C6.66289 9.24588 6.64017 9.25131 6.61963 9.26172C6.59909 9.27214 6.5813 9.28725 6.5677 9.30583C6.53165 9.4168 6.53685 9.53705 6.58234 9.64451C6.65767 9.74277 6.7351 9.83894 6.81043 9.9351L7.42353 10.7295ZM6.29148 9.2891C6.32706 9.23265 6.36263 9.18248 6.39402 9.13021C6.40803 9.10586 6.4166 9.07875 6.41913 9.05077V7.03332C6.42082 7.007 6.4172 6.9806 6.40847 6.95571C6.39974 6.93081 6.38608 6.90793 6.36832 6.88842C6.35055 6.86891 6.32903 6.85318 6.30504 6.84215C6.28106 6.83113 6.2551 6.82504 6.22871 6.82426C6.17542 6.82746 6.12536 6.85089 6.0888 6.88975C6.05223 6.92862 6.03192 6.97998 6.03201 7.03332C6.03201 7.66051 6.03201 8.28769 6.03201 8.91488C6.02947 8.93793 6.03384 8.96121 6.04457 8.98178C6.12827 9.08213 6.21197 9.18666 6.29148 9.2891ZM7.06571 9.22429V8.91488C7.06571 8.53857 7.06571 8.16435 7.06571 7.78803C7.06771 7.76165 7.0643 7.73513 7.05568 7.7101C7.04706 7.68508 7.03342 7.66208 7.01559 7.64251C6.99777 7.62293 6.97613 7.6072 6.95201 7.59628C6.92788 7.58535 6.90178 7.57946 6.8753 7.57897C6.84855 7.5792 6.82213 7.58488 6.79766 7.59565C6.77318 7.60643 6.75117 7.62208 6.73295 7.64165C6.71474 7.66122 6.70071 7.68429 6.69172 7.70946C6.68274 7.73463 6.67898 7.76137 6.68069 7.78803V8.94624C6.67875 8.965 6.67875 8.98392 6.68069 9.00269C6.75817 9.0051 6.83385 9.0266 6.90101 9.06525C6.96818 9.10391 7.02475 9.15854 7.06571 9.22429ZM7.71021 9.91002V8.95669C7.71303 8.92961 7.71013 8.90223 7.70168 8.87634C7.69324 8.85045 7.67945 8.82662 7.66121 8.80639C7.64296 8.78616 7.62066 8.76999 7.59576 8.75892C7.57086 8.74785 7.54391 8.74213 7.51665 8.74213C7.48939 8.74213 7.46244 8.74785 7.43754 8.75892C7.41264 8.76999 7.39034 8.78616 7.3721 8.80639C7.35385 8.82662 7.34006 8.85045 7.33162 8.87634C7.32317 8.90223 7.32027 8.92961 7.32309 8.95669C7.32309 9.11767 7.32309 9.27656 7.32309 9.43754C7.32407 9.46613 7.33354 9.49378 7.3503 9.51698C7.46329 9.6466 7.57838 9.76994 7.71021 9.91002Z" fill="#410EAD"/>
<path d="M10.6775 8.52192C10.6775 8.27105 10.6775 8.02227 10.6775 7.77348C10.6779 7.71216 10.6909 7.65157 10.7158 7.59548C10.7406 7.5394 10.7767 7.48901 10.8218 7.44744C10.8669 7.40588 10.9201 7.37403 10.9781 7.35387C11.0361 7.33372 11.0976 7.32568 11.1588 7.33027C11.2111 7.33027 11.2634 7.35117 11.322 7.36163V7.0334C11.3134 6.9236 11.3452 6.81443 11.4115 6.72643C11.4777 6.63843 11.5739 6.57766 11.6819 6.55557C11.7899 6.53347 11.9023 6.55157 11.9979 6.60646C12.0934 6.66135 12.1656 6.74925 12.2009 6.85361C12.2009 6.85361 12.2009 6.86615 12.2155 6.87869C12.3319 6.8114 12.47 6.79192 12.6005 6.82434C12.7113 6.84852 12.8107 6.90897 12.8831 6.99608C12.9555 7.0832 12.9968 7.19199 13.0002 7.30518C13.0002 8.0369 13.0002 8.76862 13.0002 9.50452C12.9972 9.54409 12.9858 9.58257 12.9667 9.61741C12.7212 10.0662 12.475 10.5157 12.2281 10.9659C12.2077 11.0032 12.1816 11.0371 12.1506 11.0662C11.8389 11.3798 11.5229 11.6934 11.2153 12.0007C11.1654 12.0456 11.126 12.1009 11.1 12.1627C11.0739 12.2245 11.0619 12.2912 11.0646 12.3582C11.0646 12.5192 11.0646 12.6802 11.0646 12.8412C11.0646 12.952 11.0186 12.9979 10.9077 13H9.41573C9.30482 13 9.25879 12.952 9.25879 12.8432V11.2711C9.25974 11.1044 9.32581 10.9446 9.44293 10.8258C9.62707 10.6293 9.81121 10.4348 9.99117 10.2362C10.0193 10.2025 10.0362 10.1609 10.0393 10.1171C10.0393 9.73867 10.0393 9.36026 10.0393 8.98186C10.0332 8.90518 10.0466 8.8282 10.0783 8.75809C10.11 8.68799 10.1589 8.62703 10.2205 8.58091C10.2821 8.53479 10.3544 8.50501 10.4307 8.49433C10.5069 8.48365 10.5846 8.49242 10.6566 8.51983L10.6775 8.52192ZM10.5771 10.7275C10.8345 10.3993 11.0793 10.0732 11.3429 9.76166C11.3873 9.71236 11.4198 9.65357 11.4379 9.5898C11.456 9.52603 11.4593 9.45896 11.4476 9.39371C11.4439 9.37004 11.4351 9.34747 11.4217 9.3276C11.4083 9.30772 11.3907 9.29104 11.3701 9.27873C11.32 9.2701 11.2685 9.2759 11.2216 9.29545C11.2027 9.29545 11.1881 9.32891 11.1713 9.34563L9.65218 10.9763C9.60947 11.019 9.57594 11.0699 9.55363 11.126C9.53132 11.1821 9.52071 11.2421 9.52245 11.3025C9.52245 11.754 9.52245 12.2035 9.52245 12.6551V12.7366H10.8135C10.8135 12.6049 10.8135 12.4795 10.8135 12.354C10.8102 12.2545 10.8282 12.1554 10.8665 12.0634C10.9048 11.9715 10.9623 11.8888 11.0353 11.8209C11.3262 11.5178 11.6401 11.2146 11.9539 10.9052C11.9799 10.8784 12.003 10.8489 12.023 10.8174C12.256 10.3854 12.4868 9.96027 12.7156 9.54215C12.7307 9.51446 12.7392 9.48372 12.7407 9.45225C12.7407 8.75538 12.7407 8.05432 12.7407 7.34908C12.7375 7.29371 12.721 7.23993 12.6926 7.19229C12.6636 7.14637 12.6199 7.11152 12.5687 7.09333C12.5175 7.07513 12.4616 7.07464 12.4101 7.09194C12.3553 7.10778 12.3074 7.14151 12.274 7.18774C12.2406 7.23397 12.2237 7.29004 12.226 7.34699C12.226 7.88847 12.226 8.42785 12.226 8.96723C12.2214 9.02464 12.1995 9.07932 12.1632 9.12402C11.8305 9.55469 11.4936 9.97909 11.1588 10.4056L10.7738 10.8948L10.5771 10.7275ZM11.7091 9.28709C11.7886 9.18674 11.8702 9.07803 11.9498 8.97977C11.9618 8.95961 11.9676 8.93633 11.9665 8.91287C11.9665 8.2815 11.9665 7.65083 11.9665 7.02086C11.9665 6.96985 11.9462 6.92092 11.9101 6.88485C11.874 6.84878 11.825 6.82852 11.774 6.82852C11.7229 6.82852 11.674 6.84878 11.6379 6.88485C11.6018 6.92092 11.5815 6.96985 11.5815 7.02086C11.5815 7.69613 11.5815 8.37349 11.5815 9.04876C11.5805 9.07287 11.5863 9.09676 11.5982 9.11775C11.6317 9.1742 11.6694 9.22855 11.7091 9.28709ZM11.3262 9.00277C11.3262 8.58464 11.3262 8.18115 11.3262 7.77766C11.3262 7.72701 11.3062 7.6784 11.2705 7.64239C11.2349 7.60638 11.1865 7.58588 11.1358 7.58532C11.1089 7.58525 11.0824 7.59072 11.0578 7.60139C11.0331 7.61207 11.011 7.62771 10.9927 7.64734C10.9744 7.66698 10.9604 7.69018 10.9516 7.71548C10.9427 7.74079 10.9391 7.76765 10.9412 7.79439C10.9412 8.25432 10.9412 8.71217 10.9412 9.17211C10.9412 9.17211 10.9412 9.19092 10.9412 9.21601C10.9828 9.15156 11.0398 9.09837 11.1069 9.06118C11.1741 9.02398 11.2494 9.00391 11.3262 9.00277ZM10.2946 9.90801C10.4285 9.76794 10.5457 9.6425 10.6608 9.51706C10.6728 9.50289 10.6801 9.48537 10.6817 9.46689C10.6817 9.285 10.6817 9.10312 10.6817 8.91914C10.6767 8.87186 10.6544 8.82808 10.6191 8.79626C10.5837 8.76444 10.5378 8.74683 10.4902 8.74683C10.4426 8.74683 10.3967 8.76444 10.3614 8.79626C10.326 8.82808 10.3037 8.87186 10.2988 8.91914C10.2799 9.24528 10.2904 9.56515 10.2904 9.90801H10.2946Z" fill="#410EAD"/>
<path d="M8.98473 5.34206C9.11436 5.25032 9.25076 5.16855 9.39277 5.09745C9.57131 5.01591 9.7692 4.9862 9.96383 5.01171C10.1585 5.03722 10.342 5.11692 10.4934 5.24171C10.6248 5.34426 10.7322 5.47425 10.8081 5.62259C10.8839 5.77094 10.9264 5.93405 10.9326 6.10052C10.9388 6.26699 10.9085 6.43279 10.8438 6.58634C10.7792 6.73989 10.6817 6.87748 10.5583 6.98947C10.0707 7.43059 9.59156 7.86962 9.10819 8.30656C9.09588 8.3226 9.08004 8.3356 9.0619 8.34454C9.04376 8.35349 9.0238 8.35814 9.00357 8.35814C8.98334 8.35814 8.96337 8.35349 8.94523 8.34454C8.92709 8.3356 8.91125 8.3226 8.89894 8.30656C8.40929 7.86335 7.91546 7.42223 7.43418 6.97274C7.29417 6.844 7.18876 6.68219 7.12762 6.50216C7.06649 6.32212 7.05159 6.12963 7.08429 5.94235C7.11699 5.75507 7.19624 5.57899 7.31478 5.43027C7.43331 5.28155 7.58733 5.16495 7.76271 5.09118C7.94975 5.00868 8.15652 4.98137 8.3586 5.01249C8.56068 5.04361 8.74962 5.13185 8.90313 5.26679L8.98473 5.34206ZM9.00147 8.05987C9.47857 7.62502 9.95147 7.2048 10.4139 6.76995C10.5765 6.61195 10.6715 6.39713 10.6789 6.17063C10.6863 5.94413 10.6056 5.72358 10.4537 5.5553C10.381 5.47072 10.2922 5.40149 10.1924 5.3517C10.0926 5.3019 9.98388 5.27254 9.87256 5.26533C9.76125 5.25813 9.64961 5.27322 9.54422 5.30973C9.43883 5.34625 9.34181 5.40344 9.25885 5.47795L9.10401 5.60757C9.0917 5.62361 9.07586 5.6366 9.05772 5.64555C9.03957 5.65449 9.01961 5.65915 8.99938 5.65915C8.97915 5.65915 8.95919 5.65449 8.94105 5.64555C8.9229 5.6366 8.90707 5.62361 8.89476 5.60757C8.8278 5.55321 8.76293 5.49467 8.69597 5.4445C8.59673 5.36455 8.48004 5.30907 8.35534 5.28255C8.23065 5.25604 8.10146 5.25923 7.97824 5.29188C7.82461 5.3257 7.68388 5.40271 7.57265 5.51385C7.46142 5.62498 7.38433 5.76558 7.35048 5.91907C7.30516 6.0741 7.30575 6.23892 7.35216 6.39363C7.39858 6.54833 7.48884 6.6863 7.61205 6.79086C7.89872 7.05846 8.19167 7.31979 8.48044 7.5832L9.00147 8.05987Z" fill="#410EAD"/>
</svg>
