<svg width="50" height="50" viewBox="0 0 50 50" fill="none" xmlns="http://www.w3.org/2000/svg">
<path fill-rule="evenodd" clip-rule="evenodd" d="M2.01697 0.173099C1.0759 0.498797 0.437908 1.15596 0.162851 2.08292C-0.0502034 2.80116 -0.0561596 18.7243 0.156504 19.1359C0.492588 19.7862 1.49498 19.7862 1.83106 19.1359C1.94823 18.9092 1.9702 17.5899 1.9702 10.7951C1.9702 2.03064 1.95253 2.31999 2.5045 2.06826C2.69842 1.97983 5.55522 1.95149 14.2729 1.95149H25.7852L25.8144 5.24951C25.8427 8.43251 25.8512 8.5616 26.0587 8.94974C26.3891 9.56791 26.707 9.8979 27.2758 10.2132L27.7965 10.5019L31.0919 10.5311L34.3873 10.5604L34.3859 16.9806L34.3846 23.4008L30.9441 24.4663C26.5413 25.8296 26.5099 25.8414 26.3305 26.1886C26.2507 26.3429 26.1854 26.5374 26.1854 26.6207C26.1854 26.7564 25.1796 26.7721 16.4746 26.7721C9.15372 26.7721 6.70085 26.8009 6.50782 26.8889C6.22797 27.0165 5.97352 27.4263 5.97352 27.7493C5.97352 28.0724 6.22797 28.4821 6.50782 28.6097C6.70085 28.6978 9.15372 28.7265 16.4746 28.7265H26.1854V30.4855V32.2444H16.4746C9.15372 32.2444 6.70085 32.2731 6.50782 32.3612C6.22797 32.4888 5.97352 32.8985 5.97352 33.2216C5.97352 33.5446 6.22797 33.9544 6.50782 34.082C6.70085 34.17 9.15079 34.1988 16.4614 34.1988H26.1591L26.2154 35.9333C26.2773 37.8397 26.461 38.9583 26.9545 40.4326C27.2712 41.3785 28.0315 42.9523 28.5222 43.6775L28.8197 44.1173L15.81 44.1427C6.17085 44.1615 2.72937 44.139 2.52705 44.0556C1.95009 43.818 1.9702 44.1336 1.9702 35.3225C1.9702 26.5581 1.98788 26.8475 1.43591 26.5957C0.920259 26.3605 0.323374 26.5618 0.126626 27.0372C0.042654 27.2402 0.0200011 29.4733 0.0396271 35.6167C0.0658928 43.8265 0.0685291 43.9269 0.27182 44.3665C0.572361 45.0167 1.03099 45.4901 1.65951 45.799L2.21431 46.0716L16.3535 46.0973L30.4928 46.123L31.1985 46.7391C32.9261 48.247 35.2048 49.413 37.341 49.8826C38.0536 50.0391 38.1418 50.0391 38.8544 49.8826C40.4583 49.5301 42.3215 48.6977 43.8586 47.6471C44.9295 46.9151 46.7297 45.0811 47.4627 43.9753C48.6138 42.2389 49.3124 40.592 49.7404 38.6061C49.9283 37.734 49.9455 37.2758 49.9829 32.1094C50.026 26.1401 50.0234 26.103 49.5324 25.8498C49.2017 25.679 38.3193 22.2766 38.1103 22.2785C38.0228 22.2793 37.5997 22.3892 37.1701 22.5228C36.7405 22.6564 36.3779 22.7656 36.3646 22.7656C36.3512 22.7656 36.3401 19.7381 36.3401 16.0377V9.30973L36.0571 8.92863C35.7209 8.476 27.6117 0.388179 27.2621 0.156878C27.0419 0.011081 25.9474 -0.00259971 14.7639 0.000331861C3.3865 0.00326343 2.47208 0.0156738 2.01697 0.173099ZM30.384 6.00683L32.9701 8.59638H30.6443H28.3185L28.0331 8.31075L27.7477 8.02512V5.7212C27.7477 4.45407 27.759 3.41727 27.7728 3.41727C27.7865 3.41727 28.9616 4.58257 30.384 6.00683ZM15.8461 9.70999C15.41 9.95185 15.3543 10.1976 15.3506 11.8944L15.3471 13.4823H13.78C12.0677 13.4823 11.7688 13.5543 11.5581 14.0171C11.395 14.3754 11.395 19.2342 11.5581 19.5925C11.7688 20.0553 12.0677 20.1272 13.78 20.1272H15.3471V21.6861C15.3471 23.3863 15.4117 23.6701 15.8495 23.8967C16.2417 24.0997 21.0922 24.0997 21.4844 23.8967C21.9222 23.6701 21.9868 23.3863 21.9868 21.6861V20.1272H23.5539C25.2662 20.1272 25.5652 20.0553 25.7758 19.5925C25.9572 19.194 25.9378 14.3421 25.7533 13.9851C25.5269 13.5469 25.2432 13.4823 23.5445 13.4823H21.9868V11.9234C21.9868 10.2233 21.9222 9.93944 21.4844 9.71282C21.1077 9.51788 16.1969 9.51534 15.8461 9.70999ZM20.034 13.0869C20.034 15.4392 20.0315 15.4367 22.3725 15.4367H23.9396V16.8048V18.1729H22.3819C20.0315 18.1729 20.034 18.1704 20.034 20.5132V22.0816H18.667H17.3V20.5132C17.3 18.1704 17.3024 18.1729 14.952 18.1729H13.3943V16.8048V15.4367H14.9615C17.3024 15.4367 17.3 15.4392 17.3 13.0869V11.528H18.667H20.034V13.0869ZM0.516315 22.218C-0.330143 22.6876 0.0240044 24.036 0.993784 24.036C1.48854 24.036 1.9702 23.5586 1.9702 23.0683C1.9702 22.3346 1.16007 21.8609 0.516315 22.218ZM43.1568 25.8591L48.0696 27.3936L48.0306 32.4819C47.9883 37.9983 47.9831 38.0581 47.3763 39.8592C46.3635 42.8656 43.9812 45.5757 41.0758 47.0268C40.1074 47.5106 38.6146 47.9952 38.0977 47.9939C37.1403 47.9913 34.5822 46.8878 33.2644 45.9087C31.2407 44.4053 29.5653 42.1034 28.7812 39.7488C28.2124 38.0408 28.2066 37.9722 28.1647 32.4819L28.1258 27.3936L32.9898 25.8682C35.6649 25.0293 37.9415 24.3388 38.0489 24.3338C38.1563 24.3289 40.4549 25.0152 43.1568 25.8591ZM34.2055 27.5376C31.0403 28.5318 30.5257 28.7204 30.3176 28.9624L30.0778 29.2414L30.1173 33.3081C30.1604 37.7389 30.1708 37.8378 30.7759 39.5021C31.817 42.3661 34.3384 44.8112 37.261 45.791C37.9757 46.0306 38.0737 46.0413 38.5304 45.9283C39.206 45.7613 40.7022 45.049 41.5197 44.5051C43.2603 43.347 44.7738 41.3597 45.4988 39.2802C46.0334 37.747 46.1043 37.0006 46.1043 32.9128V29.2182L45.8358 28.9315C45.6038 28.6838 45.0729 28.4911 41.9282 27.513C39.9266 26.8906 38.191 26.3836 38.0713 26.3864C37.9515 26.3893 36.2119 26.9073 34.2055 27.5376ZM41.2222 29.3453L44.1027 30.2514L44.1286 33.3219C44.1573 36.7425 44.0753 37.5585 43.5734 38.8525C42.9302 40.5099 41.7572 41.9756 40.3013 42.9406C39.4785 43.4862 38.4418 43.9707 38.0977 43.9707C37.7526 43.9707 36.7162 43.4856 35.8879 42.9365C34.4264 41.9676 33.1571 40.3602 32.5654 38.7289C32.1164 37.4906 32.0389 36.6511 32.0668 33.3239L32.0927 30.2554L34.9732 29.3487C36.5574 28.85 37.9634 28.4414 38.0977 28.4406C38.232 28.4398 39.638 28.8469 41.2222 29.3453ZM39.0062 34.8068L37.2175 36.5874L36.3639 35.7402C35.3518 34.7357 35.0988 34.6092 34.5962 34.8561C34.141 35.0798 33.9486 35.4258 34.032 35.871C34.0831 36.1433 34.3704 36.4847 35.4456 37.551C37.3614 39.4508 37.0168 39.521 39.8998 36.6435L42.1498 34.3977V33.9477C42.1498 33.3606 41.8045 33.0261 41.1984 33.0261C40.8056 33.0261 40.747 33.0737 39.0062 34.8068ZM6.47247 37.8531C5.81807 38.216 5.83956 39.2496 6.50782 39.5543C6.69753 39.6408 8.33001 39.671 12.8085 39.671C17.2869 39.671 18.9194 39.6408 19.1091 39.5543C19.3889 39.4266 19.6434 39.0169 19.6434 38.6939C19.6434 38.3708 19.3889 37.9611 19.1091 37.8334C18.7182 37.6552 6.79576 37.6737 6.47247 37.8531Z" fill="#FCB900"/>
</svg>
