<svg width="40" height="33" viewBox="0 0 40 33" fill="none" xmlns="http://www.w3.org/2000/svg">
<path fill-rule="evenodd" clip-rule="evenodd" d="M10.5078 0.102387C5.23156 0.940429 1.39695 5.67907 1.66367 11.0317C1.7307 12.3782 2.05211 13.7312 2.60742 15.0047L2.73648 15.3007H1.83391C1.08344 15.3007 0.879297 15.3275 0.622969 15.4596C0.276328 15.6383 0 16.0931 0 16.4847C0 16.8764 0.276328 17.3311 0.622969 17.5099C0.903984 17.6547 1.08164 17.6687 2.63266 17.6687H4.33406L11.8741 25.2805C20.0723 33.5567 19.5507 33.0818 20.293 32.9459C20.5534 32.8982 21.4241 32.0461 28.1259 25.2805L35.6659 17.6687H37.3673C38.9184 17.6687 39.096 17.6547 39.377 17.5099C39.7237 17.3311 40 16.8764 40 16.4847C40 16.0931 39.7237 15.6383 39.377 15.4596C39.1207 15.3275 38.9166 15.3007 38.1661 15.3007H37.2635L37.3926 15.0047C39.2677 10.7042 38.3275 5.93671 34.9843 2.79285C33.4334 1.33455 31.5655 0.429647 29.4141 0.0943359C28.4574 -0.0546915 26.7366 -0.0126198 25.8203 0.182347C23.8726 0.596672 22.1568 1.50307 20.7033 2.88544L20 3.55441L19.2804 2.86997C17.6862 1.35373 15.8175 0.431621 13.6719 0.102387C12.7823 -0.0341685 11.3675 -0.0340896 10.5078 0.102387ZM13.6496 2.50593C14.8856 2.74912 15.947 3.21523 16.9388 3.95042C17.183 4.13149 17.8223 4.71229 18.3594 5.24107C18.8965 5.76985 19.4127 6.24274 19.5066 6.29184C19.7267 6.40708 20.2744 6.40676 20.4934 6.29121C20.5873 6.24171 21.1211 5.75327 21.6798 5.20586C23.2238 3.69278 24.2377 3.06044 25.8373 2.61304C26.5199 2.4221 26.7351 2.39913 27.8516 2.39802C28.8906 2.39692 29.2177 2.42652 29.7896 2.5731C31.8135 3.09177 33.5119 4.29678 34.6457 6.01849C36.4318 8.73058 36.4594 12.2116 34.7169 15.0005L34.5293 15.3007H31.4544H28.3794L26.993 13.0874C25.798 11.1798 25.5652 10.8528 25.3064 10.7194C24.9154 10.5179 24.5642 10.5255 24.1887 10.7436C23.9173 10.9013 23.6804 11.2813 21.9384 14.3535C20.8677 16.242 19.967 17.8117 19.9372 17.8417C19.9073 17.8716 18.7402 15.6166 17.3438 12.8306C14.9073 7.96958 14.792 7.7578 14.4922 7.58746C13.9307 7.26849 13.2453 7.4273 12.9437 7.94614C12.8655 8.0808 12.1404 9.78174 11.3324 11.726L9.86336 15.2613L7.67227 15.2822L5.48109 15.3032L5.32844 15.0848C5.24445 14.9648 5.03492 14.5824 4.86273 14.2351C2.92812 10.3315 4.32422 5.64434 8.08469 3.41769C9.63859 2.49764 11.8039 2.14283 13.6496 2.50593ZM18.4283 20.2324C18.8768 21.1212 18.9867 21.2805 19.2578 21.4348C19.6538 21.6604 20.0344 21.661 20.4205 21.4366C20.6923 21.2786 20.9339 20.8901 22.737 17.7108C23.8441 15.7587 24.7798 14.153 24.8164 14.1425C24.8529 14.1321 25.3348 14.8514 25.8872 15.7409C26.7379 17.111 26.9376 17.3821 27.1927 17.5136C27.4727 17.6579 27.6616 17.6687 29.8991 17.6687H32.3045L26.1523 23.8847L20 30.1007L13.8477 23.8847L7.69547 17.6687H9.28055C10.7149 17.6687 10.8949 17.6537 11.1739 17.5099C11.5545 17.3136 11.5359 17.3502 12.8005 14.3066C13.3597 12.9605 13.861 11.7622 13.9144 11.6437C14.0075 11.4373 14.0927 11.5901 15.9614 15.3182C17.0338 17.4575 18.1439 19.6689 18.4283 20.2324Z" fill="#CD0000"/>
</svg>
