<svg width="50" height="60" viewBox="0 0 50 60" fill="none" xmlns="http://www.w3.org/2000/svg">
<path fill-rule="evenodd" clip-rule="evenodd" d="M24.302 0.0789897C24.1428 0.135103 18.8551 2.35488 12.5516 5.01171C3.58222 8.79221 1.00905 9.92247 0.715689 10.2107C-0.0506947 10.9637 -0.032635 10.7298 0.023744 19.1753C0.0763026 27.0587 0.118211 27.847 0.63141 30.6098C2.09263 38.4773 5.82499 45.6664 11.365 51.2848C14.6971 54.664 18.3924 57.2576 22.8549 59.3491C24.0897 59.9278 24.3278 60.0001 24.9966 60C25.665 60 25.909 59.9258 27.1783 59.3373C40.1993 53.3004 48.7726 40.8412 49.8863 26.3373C49.9502 25.5047 50.0014 21.8068 50 18.1199C49.9975 11.8452 49.9838 11.3861 49.783 10.9466C49.6652 10.6883 49.4163 10.3321 49.2301 10.1549C48.9963 9.93245 45.3132 8.32394 37.3204 4.95371C25.5022 -0.0297158 25.0695 -0.191717 24.302 0.0789897ZM35.2421 9.16458L45.3139 13.4156L45.308 19.9877C45.3025 26.2029 45.288 26.6522 45.0417 28.262C44.8985 29.1982 44.6558 30.5189 44.5024 31.1968C42.1901 41.4134 35.445 50.0289 26.1684 54.615L24.9845 55.2003L23.4567 54.4169C14.0834 49.6108 7.40013 40.7854 5.32163 30.4693C4.73006 27.5329 4.68144 26.7301 4.6804 19.8723L4.67935 13.4197L14.7512 9.16881C20.2907 6.83082 24.9011 4.91697 24.9966 4.9158C25.0921 4.91462 29.7026 6.82659 35.2421 9.16458ZM33.1004 20.8176C32.847 20.9281 30.7773 22.9365 27.5744 26.1798L22.4537 31.3654L19.8759 28.7743C17.7827 26.6704 17.1949 26.1441 16.7491 25.9745C14.9935 25.3065 13.2714 26.9674 13.7662 28.8512C13.8889 29.3182 14.2963 29.7766 17.3957 32.9352C19.3158 34.8921 21.0691 36.6081 21.2918 36.7487C21.8108 37.0761 22.9 37.102 23.4954 36.801C23.7203 36.6874 26.6432 33.8083 29.9906 30.4031C35.6123 24.6847 36.0881 24.1697 36.2232 23.6588C36.7359 21.7199 34.887 20.0377 33.1004 20.8176Z" fill="#1992FB"/>
</svg>
