<svg width="50" height="37" viewBox="0 0 50 37" fill="none" xmlns="http://www.w3.org/2000/svg">
<path d="M14.0622 12.3326C13.6479 12.3326 13.2505 12.4949 12.9576 12.784C12.6646 13.073 12.5 13.465 12.5 13.8738V23.1229C12.5 23.5316 12.6646 23.9237 12.9576 24.2127C13.2505 24.5017 13.6479 24.6641 14.0622 24.6641H35.9393C36.3536 24.6641 36.751 24.5017 37.044 24.2127C37.337 23.9237 37.5015 23.5316 37.5015 23.1229V13.8738C37.5015 13.465 37.337 13.073 37.044 12.784C36.751 12.4949 36.3536 12.3326 35.9393 12.3326H31.2519V9.24929H32.8141C33.2286 9.24929 33.626 9.08686 33.9191 8.79775C34.2121 8.50863 34.3767 8.11652 34.3767 7.70765C34.3767 7.29879 34.2121 6.90666 33.9191 6.61755C33.626 6.32844 33.2286 6.16602 32.8141 6.16602H17.1874C16.773 6.16602 16.3755 6.32844 16.0825 6.61755C15.7894 6.90666 15.6248 7.29879 15.6248 7.70765C15.6248 8.11652 15.7894 8.50863 16.0825 8.79775C16.3755 9.08686 16.773 9.24929 17.1874 9.24929H18.7496V12.3326H14.0622ZM15.6244 15.4158H18.7496V21.5824H15.6244V15.4158ZM34.3748 15.4158V21.5824H31.2496V15.4151L34.3748 15.4158ZM28.1244 9.24929V21.5816H26.5622V20.0403C26.5622 19.6315 26.3976 19.2394 26.1045 18.9503C25.8115 18.6611 25.414 18.4987 24.9996 18.4987C24.5852 18.4987 24.1877 18.6611 23.8947 18.9503C23.6016 19.2394 23.437 19.6315 23.437 20.0403V21.5816H21.8748V9.24929H28.1244Z" fill="#6C54FC"/>
<path d="M48.4378 27.7479H10.9386C10.5241 27.7479 10.1267 27.9103 9.83364 28.1994C9.54059 28.4886 9.37596 28.8807 9.37596 29.2895C9.37596 29.6984 9.54059 30.0905 9.83364 30.3797C10.1267 30.6688 10.5241 30.8312 10.9386 30.8312H46.8763V32.3755C46.8763 32.5779 46.8359 32.7783 46.7574 32.9653C46.6789 33.1523 46.5639 33.3222 46.4188 33.4653C46.2737 33.6084 46.1015 33.722 45.912 33.7994C45.7224 33.8769 45.5193 33.9167 45.3141 33.9167H4.6874C4.48225 33.9167 4.2791 33.8769 4.08957 33.7994C3.90003 33.722 3.72782 33.6084 3.58275 33.4653C3.43769 33.3222 3.32262 33.1523 3.24411 32.9653C3.1656 32.7783 3.12519 32.5779 3.12519 32.3755V30.8342H4.6874C5.10173 30.8342 5.49908 30.6718 5.79205 30.3828C6.08502 30.0938 6.24961 29.7017 6.24961 29.293V4.62452C6.24961 4.42212 6.29002 4.2217 6.36853 4.03471C6.44704 3.84772 6.56211 3.67781 6.70717 3.53469C6.85224 3.39157 7.02446 3.27805 7.214 3.20059C7.40353 3.12314 7.60667 3.08327 7.81182 3.08327H42.1874C42.3926 3.08327 42.5957 3.12314 42.7852 3.20059C42.9748 3.27805 43.147 3.39157 43.292 3.53469C43.4371 3.67781 43.5522 3.84772 43.6307 4.03471C43.7092 4.2217 43.7496 4.42212 43.7496 4.62452V23.1234C43.7496 23.3258 43.79 23.5263 43.8686 23.7133C43.9471 23.9004 44.0622 24.0703 44.2073 24.2135C44.3524 24.3566 44.5247 24.4702 44.7142 24.5477C44.9038 24.6251 45.107 24.665 45.3122 24.665C45.5174 24.665 45.7206 24.6251 45.9102 24.5477C46.0998 24.4702 46.272 24.3566 46.4171 24.2135C46.5622 24.0703 46.6773 23.9004 46.7559 23.7133C46.8344 23.5263 46.8748 23.3258 46.8748 23.1234V4.62452C46.8749 4.01726 46.7538 3.41592 46.5183 2.85485C46.2828 2.29378 45.9376 1.78398 45.5024 1.35454C45.0672 0.925103 44.5505 0.584448 43.9818 0.352035C43.4132 0.119621 42.8037 5.42697e-08 42.1882 6.24726e-08H7.81259C7.19701 -9.97698e-05 6.58743 0.119451 6.01869 0.35182C5.44994 0.584189 4.93316 0.924821 4.49787 1.35427C4.06259 1.78371 3.71732 2.29356 3.4818 2.85468C3.24627 3.4158 3.12509 4.0172 3.12519 4.62452V27.7479H1.56221C1.35699 27.7479 1.15379 27.7878 0.9642 27.8653C0.774614 27.9428 0.602365 28.0564 0.45729 28.1996C0.312215 28.3428 0.197157 28.5128 0.118694 28.6999C0.0402306 28.887 -0.000101002 29.0875 1.89946e-07 29.2899V32.3755C-0.000101 32.9828 0.121076 33.5842 0.356604 34.1453C0.592132 34.7064 0.937395 35.2163 1.37268 35.6457C1.80797 36.0752 2.32475 36.4158 2.89349 36.6482C3.46224 36.8806 4.07182 37.0001 4.6874 37H45.3126C45.9282 37.0001 46.5378 36.8806 47.1065 36.6482C47.6752 36.4158 48.192 36.0752 48.6273 35.6457C49.0626 35.2163 49.4079 34.7064 49.6434 34.1453C49.8789 33.5842 50.0001 32.9828 50 32.3755V29.2899C50 28.8812 49.8354 28.4891 49.5424 28.2001C49.2495 27.9111 48.8521 27.7487 48.4378 27.7487V27.7479Z" fill="#6C54FC"/>
</svg>
