<svg width="31" height="40" viewBox="0 0 31 40" fill="none" xmlns="http://www.w3.org/2000/svg">
<path fill-rule="evenodd" clip-rule="evenodd" d="M15.0325 0.0789003C14.808 0.169101 14.5147 0.430478 14.3853 0.65551C14.3229 0.764157 14.2837 1.82436 14.2567 4.13377C14.219 7.36215 14.213 7.46634 14.045 7.83324C13.6688 8.65465 13.0489 9.18398 12.2034 9.40588C11.5892 9.56713 11.272 9.55869 10.6489 9.36477C10.2182 9.2308 10.0517 9.12551 9.69054 8.759C9.45006 8.51513 9.15297 8.17997 9.03033 8.01434C8.65349 7.50542 7.95248 7.34143 7.45641 7.64619C7.02822 7.90929 5.25944 10.2427 4.14676 12.0124C0.576082 17.6916 -0.664901 22.7665 0.33212 27.6113C1.30339 32.331 4.49397 36.3955 8.88038 38.501C13.1064 40.5295 18.0818 40.4976 22.2853 38.4152C28.5131 35.3299 31.9194 28.6207 30.7834 21.6771C29.9304 16.4627 26.9237 11.1009 21.613 5.32318C19.7973 3.34776 16.7786 0.543112 16.0212 0.127909C15.7478 -0.0220084 15.3346 -0.0424872 15.0325 0.0789003ZM19.6375 6.86542C23.7773 11.2591 26.7055 15.9355 27.8694 20.0119C28.9459 23.7825 28.6877 27.1592 27.078 30.3575C24.6549 35.1724 19.4409 38.016 14.1179 37.426C9.3047 36.8924 5.25897 33.8037 3.41092 29.2516C2.85148 27.8737 2.56958 26.533 2.49302 24.8861C2.34408 21.6796 3.48446 17.9446 5.78646 14.0996C6.50314 12.9024 7.95915 10.7866 8.07023 10.7807C8.10211 10.7791 8.2941 10.8966 8.49687 11.0421C9.92061 12.0632 11.7334 12.2838 13.4195 11.6411C13.9891 11.424 14.9042 10.8141 15.3158 10.3771C15.8071 9.85555 16.253 9.09925 16.4815 8.39977C16.6768 7.80213 16.6896 7.66675 16.7214 5.86993L16.7549 3.97151L17.6972 4.88883C18.2154 5.39337 19.0886 6.28279 19.6375 6.86542ZM10.5672 17.5681C10.1609 17.6745 9.51864 18.0682 9.28445 18.3545C8.85284 18.8822 8.71826 19.2735 8.71826 20.0009C8.71826 20.7847 8.90086 21.2518 9.40662 21.7615C9.91185 22.2705 10.376 22.455 11.1538 22.4559C11.7171 22.4566 11.871 22.4265 12.2093 22.2493C12.7939 21.9432 13.0373 21.7063 13.3309 21.1578C13.5722 20.7068 13.5943 20.6093 13.5928 20.0009C13.5913 19.4363 13.5601 19.2766 13.3852 18.9373C13.0829 18.3512 12.846 18.1026 12.3214 17.8209C11.8203 17.5517 11.0525 17.441 10.5672 17.5681ZM19.2988 17.6366C18.9181 17.8282 10.0194 29.3403 9.94551 29.7367C9.78455 30.6012 10.4711 31.3483 11.321 31.2334C11.4883 31.2108 11.7099 31.1363 11.8137 31.0679C12.1349 30.8558 20.9487 19.3781 21.0321 19.0633C21.3028 18.0414 20.2372 17.1642 19.2988 17.6366ZM19.26 26.3218C18.5461 26.5108 17.9194 27.0286 17.5918 27.7C17.4334 28.0245 17.4016 28.2035 17.4042 28.7552C17.4079 29.5396 17.5922 30.0095 18.0946 30.5157C18.5998 31.0248 19.0639 31.2093 19.8418 31.2102C20.405 31.2108 20.5589 31.1807 20.8973 31.0035C21.4819 30.6975 21.7253 30.4606 22.0188 29.9121C22.2602 29.4611 22.2823 29.3636 22.2807 28.7552C22.2792 28.1906 22.2481 28.0308 22.0731 27.6916C21.7708 27.1055 21.5339 26.8568 21.0094 26.5751C20.5094 26.3066 19.7389 26.195 19.26 26.3218Z" fill="#FC7754"/>
</svg>
