<svg width="301" height="301" viewBox="0 0 301 301" fill="none" xmlns="http://www.w3.org/2000/svg">
<path d="M201.524 10.3817C200.876 12.1107 202.091 13.4281 203.388 14.8278C221.623 34.6708 239.859 54.5962 258.175 74.3568C268.387 85.335 278.653 96.3131 288.973 107.291C289.772 108.052 290.8 108.516 291.891 108.609C294.179 108.792 296.333 109.779 297.984 111.399C299.634 113.02 300.678 115.173 300.937 117.49C301.196 119.807 300.653 122.143 299.402 124.098C298.15 126.053 296.269 127.505 294.079 128.205C293.39 128.287 292.747 128.598 292.249 129.089C291.751 129.58 291.425 130.224 291.323 130.922C279.815 170.004 268.225 208.949 256.555 247.757C256.348 248.745 256.522 249.776 257.041 250.638C258.277 252.15 259.1 253.965 259.427 255.901C259.755 257.838 259.574 259.828 258.905 261.672C258.427 263.093 257.605 264.371 256.515 265.386C255.424 266.401 254.101 267.122 252.665 267.483C251.229 267.843 249.727 267.832 248.297 267.45C246.867 267.067 245.554 266.326 244.479 265.294C244.054 264.805 243.499 264.452 242.88 264.276C242.262 264.101 241.606 264.111 240.994 264.306L132.391 290.324L118.289 293.865C117.912 293.957 117.558 294.13 117.25 294.371C116.943 294.612 116.689 294.917 116.506 295.265C115.653 297.425 114.021 299.173 111.942 300.152C109.864 301.131 107.496 301.268 105.322 300.534C103.157 299.813 101.33 298.305 100.193 296.298C99.0561 294.292 98.689 291.93 99.1622 289.666C99.2708 289.076 99.2229 288.468 99.0235 287.904C98.8241 287.34 98.4803 286.839 98.0275 286.455C85.8705 273.281 73.7136 260.107 61.6376 247.016C44.942 228.902 28.2194 210.843 11.4698 192.839C10.6678 192.16 9.67481 191.756 8.63318 191.686C6.48032 191.548 4.44274 190.649 2.87366 189.146C1.30458 187.642 0.302885 185.628 0.0422387 183.452C-0.362994 176.783 2.14946 172.996 7.49854 171.843C7.92965 171.696 8.32559 171.459 8.6607 171.147C8.9958 170.835 9.26255 170.455 9.44364 170.031C16.0895 147.718 22.7353 125.488 29.3 103.174C34.1628 86.7073 39.1067 70.24 44.0505 53.7728C44.3147 53.1334 44.3787 52.4268 44.2337 51.7491C44.0887 51.0715 43.7417 50.4556 43.2401 49.9854C42.1639 48.6731 41.4261 47.1093 41.0933 45.4351C40.7604 43.7608 40.843 42.0288 41.3335 40.395C41.8239 38.7613 42.7069 37.2773 43.9029 36.0767C45.0988 34.8762 46.57 33.9969 48.1839 33.5181C49.6277 33.1315 51.1486 33.1575 52.5787 33.5933C54.0089 34.0292 55.2927 34.858 56.2886 35.9882C56.6235 36.4757 57.1025 36.8423 57.6562 37.0347C58.21 37.2272 58.8096 37.2355 59.3683 37.0586C76.5502 32.8594 93.8131 28.825 110.995 24.7905L170.969 10.3817L182.559 7.49991C182.915 7.4067 183.249 7.24211 183.541 7.01587C183.833 6.78963 184.078 6.50631 184.261 6.18253C184.984 4.03332 186.47 2.23473 188.427 1.13738C190.385 0.0400254 192.674 -0.277461 194.85 0.246781C197.025 0.771023 198.93 2.09943 200.194 3.97308C201.458 5.84674 201.99 8.13137 201.686 10.3817H201.524ZM140.415 102.598C139.503 103.19 138.636 103.85 137.821 104.574L103.377 137.509C102.807 137.949 102.386 138.556 102.168 139.249C101.951 139.941 101.948 140.685 102.161 141.378C105.241 154.717 108.401 168.055 111.4 181.476C111.497 182.14 111.802 182.754 112.269 183.228C112.736 183.703 113.34 184.012 113.994 184.111L158.407 197.779C158.936 197.969 159.508 198.001 160.055 197.869C160.601 197.738 161.098 197.449 161.487 197.038C173.644 185.346 185.801 173.737 198.039 161.962C198.334 161.649 198.554 161.27 198.681 160.856C198.807 160.442 198.837 160.003 198.768 159.575C195.77 146.319 192.609 133.062 189.61 119.806C189.56 119.086 189.266 118.406 188.779 117.881C188.291 117.356 187.64 117.018 186.936 116.925L153.788 106.797L140.415 102.598ZM172.833 243.311C173.602 243.008 174.335 242.621 175.022 242.158C185.071 235.187 195.094 228.106 205.09 220.915C205.657 220.915 206.549 219.433 206.387 219.104C206.201 218.693 205.931 218.326 205.596 218.028C205.261 217.73 204.867 217.507 204.442 217.375L163.918 204.942C163.257 204.67 162.529 204.611 161.833 204.773C161.137 204.935 160.507 205.31 160.028 205.848C151.194 214.987 141.306 223.879 131.905 232.689C131.252 233.496 130.932 234.529 131.013 235.571C131.013 236.065 132.391 236.641 133.202 236.806C140.253 238.041 147.304 239.111 154.436 240.264L172.833 243.311ZM170.24 66.4526C170.24 63.7355 168.862 63.4884 167.322 63.2414L129.311 57.3133C128.521 57.1796 127.71 57.3562 127.042 57.8073C116.587 65.1352 106.051 72.5454 95.5961 80.038C95.336 80.2462 95.1221 80.5078 94.9685 80.8058C94.8149 81.1037 94.7249 81.4313 94.7046 81.7671C94.7046 81.7671 95.5151 82.7551 96.0013 82.8374L138.146 95.7642C138.499 95.8287 138.861 95.8181 139.21 95.733C139.558 95.648 139.886 95.4904 140.172 95.2702C149.951 86.0486 159.704 76.772 169.43 67.4406C169.43 67.4406 170.078 66.5349 170.159 66.5349L170.24 66.4526ZM286.866 129.275H286.299C285.812 129.934 285.245 130.428 284.759 131.086L245.856 181.394C245.261 182.169 244.946 183.128 244.965 184.111C245.694 191.274 246.586 198.437 247.396 205.601C248.612 216.634 249.747 227.667 250.962 238.535C250.962 240.758 251.611 242.981 251.935 245.204H252.502C263.903 206.561 275.33 167.946 286.785 129.357L286.866 129.275ZM49.1565 55.1725H48.5891L14.3064 170.443C14.9873 170.223 15.5827 169.791 16.0084 169.208C28.8138 152.741 41.6191 136.274 54.5866 119.806C55.2316 119.031 55.6915 118.115 55.9305 117.13C56.1695 116.144 56.1811 115.116 55.9644 114.125L53.0467 88.4363C51.9931 78.803 51.0205 69.1697 49.8859 59.5363C49.6427 58.219 49.3186 56.8192 49.0754 55.4195L49.1565 55.1725ZM230.458 138.826C222.353 147.06 214.248 154.635 205.738 162.374C205.151 162.873 204.733 163.547 204.544 164.301C204.355 165.055 204.404 165.85 204.685 166.573C207.521 178.677 210.439 190.78 212.789 202.966C213.357 205.765 214.167 207.659 217.166 207.494C217.925 207.555 218.679 207.319 219.273 206.836C225.757 198.602 232.16 190.368 238.481 182.135C238.861 181.669 239.143 181.129 239.31 180.549C239.477 179.968 239.526 179.359 239.454 178.759C238.319 167.561 236.941 156.364 235.888 145.166C235.888 142.613 235.158 140.884 232.403 140.39C232.241 140.061 231.349 139.402 230.458 138.826ZM60.2598 121.206C60.2598 123.264 60.2598 124.911 60.7461 126.476C61.2324 131.004 61.7997 135.533 62.367 140.061C62.9344 144.59 63.7448 149.941 63.9069 154.882C63.712 156.305 64.0552 157.75 64.8673 158.926C65.6794 160.103 66.9 160.923 68.2834 161.221C68.8279 161.486 69.44 161.573 70.0351 161.47C70.6303 161.367 71.1792 161.079 71.6063 160.645C79.711 153.153 87.0862 145.742 94.9478 138.332C95.3461 137.985 95.6353 137.527 95.7794 137.015C95.9236 136.503 95.9162 135.958 95.7582 135.45C92.5974 122.276 89.5987 109.02 86.4378 95.8466C86.4378 95.1055 85.6274 93.8705 85.1411 93.8705C84.6548 93.8705 82.0613 92.3061 80.5215 94.4468C74.1998 102.68 67.6351 110.914 61.1513 119.148C60.8116 119.781 60.6176 120.485 60.584 121.206H60.2598ZM19.7365 193.744L100.135 280.444C100.388 279.669 100.388 278.832 100.135 278.056C93.57 260.107 87.0862 242.24 80.6835 224.291C80.3911 223.318 79.8908 222.422 79.2183 221.667C78.5459 220.913 77.7178 220.319 76.7933 219.927C61.2324 212.764 45.8335 205.436 30.3537 198.19L19.7365 193.744ZM280.22 107.209L199.822 19.768C199.822 20.3443 199.822 20.509 199.822 20.756C206.792 39.858 213.681 59.0423 220.732 78.3913C221.203 79.3351 221.974 80.0895 222.92 80.532L250.152 93.3765L280.22 107.209ZM231.592 122.359C231.592 121.7 231.187 121.124 231.025 120.547C226.81 109.103 222.92 97.658 218.544 86.1309C218.309 85.3266 217.894 84.5884 217.332 83.9742C216.769 83.3599 216.075 82.8863 215.302 82.5904L188.07 69.9107C187.017 69.4167 186.044 68.5933 184.747 69.9107C184.058 70.3479 183.532 71.0067 183.253 71.7824C182.974 72.5581 182.958 73.4062 183.207 74.1922C186.125 86.2132 188.962 98.399 191.312 110.502C191.405 111.176 191.707 111.802 192.173 112.29C192.639 112.779 193.246 113.104 193.906 113.219L210.925 118.407L228.35 123.759C230.133 124.006 231.106 123.758 231.592 122.359ZM115.128 231.701C115.534 230.054 118.046 230.137 117.398 227.42C114.318 214.905 111.562 202.225 108.564 189.627C108.416 189.169 108.173 188.748 107.851 188.393C107.53 188.038 107.137 187.757 106.699 187.569C95.1098 183.946 83.4391 180.406 71.7684 176.948C71.3222 176.897 70.8705 176.936 70.4393 177.063C70.0081 177.19 69.606 177.403 69.256 177.689C69.256 177.689 69.256 179.006 69.256 179.582C73.2273 190.698 77.3606 201.731 81.1698 212.517C81.4559 213.751 82.0555 214.886 82.9088 215.811C83.7621 216.736 84.8392 217.417 86.0326 217.786C88.0555 218.573 90.0311 219.481 91.949 220.503L115.128 231.701ZM122.666 285.878V286.455L234.51 259.695C234.272 259.438 233.96 259.265 233.618 259.201C214.653 256.155 195.689 253.109 176.886 249.897C175.909 249.712 174.905 249.742 173.941 249.983C172.976 250.224 172.074 250.673 171.294 251.297L127.528 282.091C125.826 283.408 124.287 284.643 122.666 285.878ZM65.9331 41.1754L88.1398 44.8805C98.919 46.6095 109.698 48.5033 120.558 50.0677C122.909 50.0677 125.178 51.7144 127.691 50.0677L176.318 15.5688L177.615 14.4161L65.9331 41.1754ZM57.018 125.652C56.5178 126.075 56.0566 126.544 55.6402 127.052L18.0346 175.548C17.6074 176.019 17.3703 176.636 17.3703 177.277C17.3703 177.918 17.6074 178.535 18.0346 179.006C18.2443 179.081 18.4732 179.081 18.683 179.006L54.2624 170.772C55.6402 170.772 55.8833 169.62 55.7212 168.467C55.6255 166.964 55.9376 165.462 56.6235 164.127C57.3094 162.791 58.3429 161.672 59.6115 160.892C60.1452 160.598 60.5643 160.127 60.8 159.559C61.0357 158.99 61.0738 158.357 60.9082 157.763C59.8546 148.624 58.882 139.567 57.9095 130.51C57.5853 129.275 57.2611 127.711 57.018 125.652ZM245.775 130.016C244.965 135.615 244.56 137.344 242.209 138.908C239.859 140.473 240.345 142.119 240.345 144.013C241.075 150.271 241.804 156.528 242.452 162.786C242.939 166.82 243.425 171.019 243.911 175.136L244.803 174.313C257.446 157.846 270.089 141.378 282.652 124.911C283.3 124.17 283.138 122.853 283.462 121.288L245.775 130.016ZM185.477 16.3922L134.985 52.3731L168.538 57.8073C169.102 57.9143 169.684 57.8548 170.215 57.6359C170.747 57.417 171.205 57.0479 171.537 56.5722C173.013 55.0302 174.814 53.8479 176.805 53.1141C177.425 53.021 178.001 52.7327 178.452 52.2896C178.903 51.8465 179.205 51.271 179.317 50.644C181.911 40.4343 184.504 30.1423 187.422 19.9326C187.601 19.2019 187.5 18.4293 187.138 17.7717C186.777 17.1141 186.183 16.6209 185.477 16.3922ZM115.453 284.396L166.431 248.333L161.568 247.51L132.067 242.899C131.623 242.877 131.179 242.946 130.761 243.101C130.343 243.257 129.961 243.496 129.636 243.805C128.078 245.788 125.908 247.181 123.476 247.757C123.119 247.874 122.789 248.067 122.51 248.322C122.231 248.578 122.008 248.89 121.855 249.239C119.181 259.778 116.587 270.234 113.751 280.691C113.597 281.045 113.519 281.429 113.524 281.816C113.528 282.203 113.613 282.585 113.774 282.936C113.936 283.287 114.169 283.599 114.458 283.85C114.747 284.102 115.087 284.288 115.453 284.396ZM76.7933 213.752C76.7933 212.435 76.307 211.776 76.0639 211.035C72.4978 201.319 68.7697 191.686 65.5279 181.805C64.2311 177.689 59.7736 179.335 57.9095 176.536C57.9095 176.536 56.3696 176.536 55.6402 176.536L18.764 184.77C18.1115 185.034 17.487 185.365 16.8999 185.758L76.7933 213.752ZM224.622 87.0366L224.217 87.5306L236.131 120.465C236.131 120.465 237.022 121.288 237.509 121.535L242.371 123.676C243.063 124.067 243.853 124.239 244.641 124.17L275.519 117.419L283.624 115.69V114.866L224.622 87.0366ZM166.431 199.755L168.457 200.578L203.307 211.282C205.576 211.941 207.116 212.27 208.656 209.8C209.136 209.246 209.476 208.581 209.645 207.864C209.815 207.146 209.809 206.398 209.629 205.683C207.44 196.461 205.333 187.24 203.145 178.018L200.632 167.067L166.431 199.755ZM134.012 100.951L131.743 100.128L96.1634 89.1773C95.4529 88.9817 94.7043 88.9786 93.9921 89.1683C93.28 89.3579 92.6292 89.7338 92.1045 90.2585C91.5798 90.7832 91.1996 91.4383 91.0017 92.1587C90.8038 92.8791 90.7951 93.6396 90.9765 94.3645L97.0549 120.465L100.054 133.392L134.012 100.951ZM119.019 56.2429V55.6665L107.024 53.7728L60.0167 46.2802C59.4494 46.2802 58.3147 46.2802 58.1526 46.9389C58.0341 47.3146 58.0091 47.7143 58.0798 48.1022C58.1505 48.4902 58.3148 48.8543 58.5578 49.162C65.771 57.3956 73.0652 65.6292 80.3594 73.8628C80.6493 74.1047 80.9904 74.2752 81.3559 74.3609C81.7215 74.4466 82.1016 74.4452 82.4666 74.3568C85.0062 73.6084 87.7313 73.8735 90.0849 75.0979C90.4277 75.2599 90.8011 75.3438 91.1791 75.3438C91.5571 75.3438 91.9305 75.2599 92.2732 75.0979C95.8392 72.7101 99.2432 70.24 102.728 67.8523L119.019 56.2429ZM181.019 244.381L181.992 244.957L204.685 248.58L239.859 254.179C240.581 254.332 241.326 254.332 242.047 254.179C241.804 253.534 241.477 252.925 241.075 252.368C233.78 244.134 226.486 235.9 219.111 227.667C218.396 227.147 217.556 226.834 216.68 226.761C214.553 226.531 212.443 226.174 210.358 225.691C209.924 225.404 209.417 225.251 208.899 225.251C208.381 225.251 207.874 225.404 207.44 225.691L183.126 242.981L181.019 244.381ZM186.936 110.832C187.02 110.286 187.02 109.731 186.936 109.185C184.261 97.4933 181.586 85.8016 178.831 74.1922C178.831 73.4511 177.696 72.8748 177.048 72.3808C176.399 71.8867 175.751 72.3808 175.184 71.8044C174.616 71.2281 172.428 71.3927 171.213 72.5454L148.357 94.4468C147.304 95.5172 146.169 96.5052 144.629 97.8226L186.936 110.832ZM113.021 189.545L116.587 205.107C118.289 212.188 119.829 219.268 121.531 226.349C121.776 227.118 122.297 227.765 122.99 228.161C124.368 228.684 125.775 229.123 127.204 229.478L155.408 202.472L113.021 189.545ZM214.816 76.2506V74.7685C208.251 56.7369 201.767 38.7876 195.202 20.8384C195.024 20.455 194.751 20.1249 194.41 19.8797C194.069 19.6346 193.672 19.4827 193.257 19.4386C192.609 19.4386 191.717 20.3443 191.474 21.003C188.719 31.4597 186.044 41.8341 183.37 52.2084C183.321 52.6488 183.361 53.0946 183.486 53.519C183.612 53.9434 183.82 54.3378 184.099 54.6785C185.075 55.3289 185.885 56.2055 186.463 57.2361C187.041 58.2667 187.369 59.4219 187.422 60.6067C187.422 63.4885 189.043 64.2295 190.988 64.9705L192.366 65.6292L214.816 76.2506ZM85.7084 224.456C85.7084 225.444 85.7084 226.102 86.3568 226.679L105.16 278.797C105.889 280.938 106.943 281.514 109.05 280.773C111.805 269.823 114.642 258.872 117.154 247.839C117.213 247.481 117.185 247.114 117.072 246.769C116.959 246.425 116.765 246.114 116.506 245.863C115.446 245.024 114.588 243.949 113.998 242.722C113.408 241.495 113.102 240.148 113.102 238.782C113.102 237.465 112.454 236.888 111.319 236.394L87.8157 225.361L85.7084 224.456ZM240.832 187.981C240.474 188.244 240.148 188.548 239.859 188.886C234.267 195.967 228.756 203.048 223.65 210.294C223.65 210.788 223.65 211.858 223.65 212.682C223.806 215.424 223.806 218.173 223.65 220.915C223.476 221.443 223.438 222.007 223.537 222.554C223.636 223.101 223.87 223.614 224.217 224.044C229.647 230.054 234.996 236.147 240.426 242.24C242.128 244.216 243.911 246.275 245.694 248.168C245.917 248.355 246.179 248.489 246.459 248.56C246.739 248.631 247.032 248.638 247.315 248.58C247.72 248.58 247.964 247.674 248.126 247.098C248.166 246.522 248.166 245.945 248.126 245.369C246.505 231.125 244.965 216.881 243.425 202.719C241.966 198.026 241.399 193.25 240.832 187.981ZM59.6115 112.643L60.4219 112.149C66.0952 104.821 71.7684 97.5756 77.3606 90.2477C77.4995 89.9374 77.5713 89.6005 77.5713 89.2597C77.5713 88.9188 77.4995 88.5819 77.3606 88.2716C76.2631 85.3556 76.2631 82.1307 77.3606 79.2147C77.5013 78.8904 77.5739 78.5399 77.5739 78.1855C77.5739 77.8311 77.5013 77.4806 77.3606 77.1563C70.1475 68.9227 62.8533 60.689 55.5591 52.4554C55.3842 52.1796 55.1444 51.9524 54.8614 51.7943C54.5784 51.6362 54.2612 51.5521 53.9382 51.5497C53.6653 51.7455 53.4422 52.0044 53.2872 52.305C53.1322 52.6056 53.0497 52.9394 53.0467 53.2788C53.1155 55.0465 53.305 56.8072 53.614 58.5483C54.1003 63.1591 54.6676 67.8523 55.1539 72.4631C55.6402 77.0739 56.0454 81.6847 56.6127 86.2132C57.1801 90.7417 57.6663 95.8465 58.2337 100.622C58.801 105.398 59.2062 108.609 59.6115 112.643ZM106.781 181.888L97.7844 143.025L95.6772 144.919L75.7397 164.021C74.1998 165.503 72.4979 166.656 72.9031 169.455C73.3083 172.254 72.9031 171.76 74.8482 172.172L84.4117 175.054L106.781 181.888ZM227.621 129.357L193.662 118.983L202.578 157.352C203.064 157.352 203.307 157.352 203.469 156.94C211.574 149.447 219.111 142.037 226.891 134.462C227.307 134.01 227.563 133.431 227.621 132.815C227.702 131.827 227.621 130.757 227.621 129.357Z" fill="white"/>
</svg>
