<svg width="48" height="50" viewBox="0 0 48 50" fill="none" xmlns="http://www.w3.org/2000/svg">
<path fill-rule="evenodd" clip-rule="evenodd" d="M21.4145 0.113804C20.8801 0.30455 20.3005 0.775798 20.0265 1.24236C19.7619 1.693 19.7553 1.74213 19.724 3.46587L19.6922 5.22868L18.9923 5.40585C17.887 5.68577 16.5428 6.21425 15.1868 6.90203L13.9348 7.53706L12.7899 6.40499C12.1301 5.75267 11.4889 5.20768 11.2765 5.1189C11.0738 5.03412 10.6494 4.96351 10.3334 4.96205C9.36078 4.95736 8.9555 5.21911 7.01094 7.1081C5.12627 8.93879 4.95632 9.19146 4.95573 10.1641C4.95515 11.0396 5.22979 11.5212 6.40291 12.7019L7.4329 13.7385L6.98245 14.5332C6.3671 15.6188 5.84279 16.8372 5.41194 18.1827L5.05008 19.3126L3.47587 19.3477C1.65492 19.3882 1.26124 19.5136 0.602678 20.2625C0.0391435 20.9034 -0.00105324 21.1482 1.99769e-05 23.934C0.000898061 26.338 0.00792272 26.428 0.231932 26.9015C0.359059 27.1701 0.611069 27.5305 0.792052 27.7023C1.3791 28.2599 1.7278 28.3482 3.52875 28.3951L5.15584 28.4375L5.27418 28.9393C5.57058 30.1951 6.43852 32.3246 7.18128 33.618L7.44881 34.0837L6.31188 35.236C5.0453 36.5199 4.85368 36.8512 4.85319 37.7598C4.8527 38.6978 5.0771 39.042 6.93805 40.9581C8.7874 42.8623 9.11209 43.0851 10.0387 43.0851C10.9802 43.0851 11.3916 42.8357 12.8524 41.379L14.1445 40.0909L13.5873 39.5272C13.2808 39.2172 12.9869 38.9635 12.9341 38.9635C12.8812 38.9635 12.2834 39.5129 11.6055 40.1844C10.5925 41.1877 10.3221 41.4052 10.0874 41.4052C9.84851 41.4052 9.55348 41.1545 8.27703 39.8669C7.43817 39.0208 6.70331 38.2327 6.6439 38.1154C6.40984 37.6531 6.50506 37.5014 7.95058 36.0335C9.64363 34.3141 9.62109 34.3886 8.84662 33.0632C7.89946 31.4424 7.18255 29.6931 6.88166 28.2689C6.79093 27.8391 6.66985 27.3649 6.61277 27.215C6.41228 26.6886 6.27627 26.6576 4.14819 26.6542C2.04459 26.6509 1.94878 26.6299 1.75902 26.1302C1.61911 25.7619 1.62506 21.8547 1.76594 21.5451C1.94751 21.1463 2.23445 21.0903 4.09501 21.0903C5.05486 21.0903 5.95021 21.0485 6.08456 20.9973C6.4034 20.8759 6.49179 20.6956 6.7839 19.5701C7.21397 17.9131 7.98014 16.1448 8.93013 14.6166C9.61943 13.508 9.61914 13.5071 7.99936 11.8606C6.86293 10.7054 6.63346 10.4235 6.63346 10.1829C6.63346 9.93989 6.86605 9.66242 8.08727 8.4486C9.64753 6.89773 9.96949 6.63705 10.3254 6.63608C10.4871 6.63559 10.9836 7.04882 12.0261 8.05158C13.7227 9.68351 13.7408 9.69074 14.6883 9.11645C16.469 8.03712 18.5419 7.20929 20.4014 6.83493C21.3461 6.64477 21.3495 6.63598 21.3845 4.20902C21.4141 2.1536 21.4177 2.12254 21.6449 1.93854C21.8572 1.76664 22.0572 1.75199 24.1988 1.75199H26.5225L26.7247 2.00935C26.9138 2.2499 26.927 2.39211 26.927 4.19369C26.927 6.59681 26.8698 6.48977 28.3604 6.87673C30.1657 7.34554 31.831 8.05861 33.3937 9.03217C34.4946 9.71799 34.4911 9.71916 36.1434 8.10041C37.264 7.00262 37.5928 6.73306 37.8116 6.73306C38.0321 6.73306 38.37 7.01659 39.5867 8.2225C41.0962 9.71867 41.3666 10.0576 41.3666 10.4538C41.3666 10.5986 40.9075 11.1344 39.9519 12.1048C38.283 13.7995 38.2932 13.7705 38.9708 14.9286C40.0022 16.6911 40.7266 18.4823 41.0842 20.1543C41.3745 21.5116 41.3127 21.4809 43.7569 21.4809C45.7185 21.4809 45.7499 21.4842 46.0198 21.7165L46.2936 21.952L46.3235 24.0806C46.3399 25.2513 46.3285 26.3088 46.298 26.4306C46.2674 26.5523 46.1468 26.741 46.0301 26.8499C45.8323 27.0344 45.6912 27.048 43.9776 27.048C41.5089 27.048 41.6323 26.979 41.2104 28.5951C40.7835 30.2308 40.0125 32.0053 39.0699 33.5216C38.3806 34.6303 38.3809 34.6312 40.0006 36.2776C41.1573 37.4534 41.3666 37.7119 41.3666 37.9651C41.3666 38.2217 41.1513 38.4762 39.8473 39.7614C39.0117 40.5849 38.2324 41.3121 38.1155 41.3774C37.5989 41.6657 37.4268 41.5693 36.042 40.2153L34.7251 38.9278L34.1424 39.5051L33.5596 40.0823L34.8532 41.3833C35.5647 42.0989 36.2838 42.7702 36.4512 42.8751C37.2026 43.3458 38.4662 43.2687 39.2013 42.7075C39.383 42.5688 40.2366 41.7685 41.0982 40.9292C42.8365 39.2357 43.0447 38.921 43.0447 37.9868C43.0447 37.097 42.775 36.6218 41.5971 35.4363L40.5671 34.3998L41.0176 33.605C41.6342 32.5172 42.1574 31.3006 42.5912 29.9457L42.9562 28.806H44.3389C46.1447 28.806 46.6022 28.6789 47.2713 27.9911C47.5707 27.6833 47.8078 27.3312 47.8811 27.0855C47.9623 26.813 48.0007 25.8845 48 24.2043C47.9991 21.8018 47.9919 21.71 47.7685 21.2368C47.4842 20.6347 47.1236 20.2873 46.4887 20.0039C46.065 19.8147 45.7871 19.7803 44.3734 19.7422L42.746 19.6983L42.6287 19.1978C42.3521 18.0185 41.5255 15.9819 40.7693 14.6165L40.4565 14.0517L41.5919 12.9008C42.8183 11.6579 43.0292 11.309 43.0387 10.5072C43.05 9.55869 42.8825 9.23991 41.6997 7.95977C40.1697 6.30381 39.1984 5.38749 38.7935 5.21813C38.2901 5.00756 37.3133 5.035 36.781 5.27458C36.508 5.39755 35.9543 5.85805 35.3171 6.49221L34.2922 7.51206L32.7805 6.7525C31.4033 6.06062 30.0946 5.54678 29.0002 5.26833L28.5856 5.16285L28.5846 3.53062C28.5837 2.02273 28.5661 1.86089 28.3539 1.40468C28.0853 0.827171 27.476 0.267826 26.9408 0.107358C26.451 -0.0395348 21.8291 -0.0340654 21.4145 0.113804ZM22.878 10.9917C21.7864 11.1024 20.4324 11.3776 19.5413 11.6696C14.9136 13.1865 11.612 16.9013 10.6635 21.6585C10.3979 22.9904 10.4241 25.5278 10.7172 26.8527C11.336 29.6498 12.4991 31.6627 14.837 33.9833C16.7172 35.8495 17.3273 36.8203 17.8026 38.7026L18.0204 39.565L17.5127 40.0731C16.8154 40.7711 16.6481 41.2946 16.7013 42.6104C16.7446 43.6832 16.8433 43.969 17.3831 44.5844C17.5516 44.7765 17.8999 45.0405 18.1569 45.1709C18.6103 45.4009 18.6214 45.4167 18.5229 45.6994C18.3597 46.1681 18.4568 48.0296 18.6665 48.4538C18.9384 49.0035 19.5874 49.587 20.1694 49.805C20.6523 49.9858 20.9308 50 24 50C27.0838 50 27.3459 49.9865 27.8375 49.8023C28.4856 49.5597 29.0232 49.0526 29.3284 48.3964C29.5233 47.9774 29.5594 47.7452 29.5602 46.9054C29.5608 46.3582 29.5185 45.7981 29.4662 45.6605C29.3775 45.427 29.4029 45.3943 29.8455 45.1697C30.4267 44.8749 30.9635 44.2658 31.1658 43.6716C31.3719 43.066 31.3656 41.6793 31.1539 41.0572C31.0458 40.7398 30.8187 40.4049 30.4849 40.0709L29.9797 39.565L30.1974 38.7026C30.6728 36.8204 31.2761 35.8605 33.1605 33.9889C35.5571 31.6085 36.7521 29.4884 37.3382 26.5774C37.5713 25.4196 37.57 22.8389 37.3358 21.6585C36.7966 18.942 35.474 16.5196 33.5179 14.666C31.0743 12.3504 28.0208 11.1131 24.4515 10.9922C23.8008 10.9701 23.0927 10.9699 22.878 10.9917ZM26.6343 12.9238C30.9551 13.9109 34.0388 16.6445 35.2959 20.6019C35.687 21.8332 35.8178 22.7426 35.8158 24.2156C35.8137 25.6155 35.638 26.6765 35.204 27.9089C34.5306 29.8207 33.7406 31.0128 32.0531 32.6639C31.3394 33.3622 30.5287 34.2353 30.2514 34.604C29.4221 35.7069 28.7968 37.1077 28.4579 38.6217L28.3267 39.2077L27.5293 39.236L26.7318 39.2644V34.7778V30.2912L27.927 30.2524C29.331 30.2069 29.8736 30.0203 30.5174 29.362C31.9281 27.9193 31.5065 25.5877 29.6712 24.6825C29.2881 24.4935 29.0646 24.4598 28.1953 24.4598C27.3084 24.4598 27.1064 24.4916 26.6906 24.6965C25.5768 25.2453 25.0702 26.1021 24.9972 27.5608L24.9496 28.513H23.9869H23.0244V27.6514C23.0244 27.1235 22.9648 26.615 22.8707 26.3384C22.6688 25.7454 22.0492 25.0526 21.4265 24.7238C20.9753 24.4855 20.8272 24.4598 19.9023 24.4598C19.0154 24.4598 18.8134 24.4916 18.3975 24.6965C16.5878 25.5881 16.1612 27.8951 17.5411 29.3272C17.7398 29.5333 18.1217 29.8162 18.39 29.9559C18.8224 30.181 19.0192 30.2146 20.1218 30.252L21.3658 30.2941V34.7791V39.2641L20.5196 39.2359L19.6733 39.2077L19.5422 38.6217C19.2037 37.11 18.5792 35.7099 17.75 34.604C17.4736 34.2353 16.6628 33.3622 15.9485 32.6639C13.8856 30.6477 12.823 28.7577 12.3414 26.2485C12.1425 25.2123 12.1388 23.1645 12.3337 22.0625C13.1936 17.202 16.9978 13.5906 22.0975 12.7934C22.9266 12.6638 25.8657 12.7483 26.6343 12.9238ZM20.3957 26.1689C20.5865 26.222 20.8719 26.4004 21.0298 26.5654C21.2934 26.8407 21.3198 26.9332 21.3514 27.6892L21.3858 28.513L20.327 28.5123C19.4447 28.5119 19.2204 28.4802 18.982 28.323C18.6216 28.0851 18.4467 27.7732 18.4422 27.3605C18.4323 26.4297 19.3406 25.8755 20.3957 26.1689ZM29.0734 26.3155C29.6153 26.596 29.8219 27.3763 29.4992 27.9231C29.2129 28.4083 28.9053 28.513 27.7656 28.513H26.7318V27.7756C26.7318 26.7553 27.0148 26.2838 27.7146 26.1376C28.0799 26.0615 28.7527 26.1495 29.0734 26.3155ZM24.9757 34.7638V39.2565H24H23.0244V34.7638V30.2711H24H24.9757V34.7638ZM29.2913 41.2997C29.6019 41.5777 29.61 41.6053 29.61 42.3822C29.61 43.159 29.6019 43.1866 29.2913 43.4642L28.9727 43.7492H24H19.0273L18.7087 43.4642C18.3981 43.1865 18.39 43.1589 18.39 42.3819C18.39 41.6048 18.3981 41.5773 18.7087 41.2995L19.0273 41.0145H24H28.9727L29.2913 41.2997ZM27.5709 45.8393C27.8816 46.1504 27.9026 46.2125 27.9026 46.8209C27.9026 47.5165 27.7362 47.9721 27.4201 48.1414C27.1651 48.2781 20.8349 48.2781 20.5799 48.1414C20.2639 47.9721 20.0974 47.5165 20.0974 46.8209C20.0974 46.2125 20.1184 46.1504 20.4291 45.8393L20.7609 45.5073H24H27.2392L27.5709 45.8393Z" fill="#FF0FCA"/>
</svg>
