<svg width="34" height="34" viewBox="0 0 34 34" fill="none" xmlns="http://www.w3.org/2000/svg">
<path fill-rule="evenodd" clip-rule="evenodd" d="M6.98674 0.0905865C6.37162 0.23964 5.77237 0.582583 5.30599 1.05266C4.57546 1.78896 4.24774 2.6067 4.24581 3.69823L4.24481 4.24622H3.71658C3.0216 4.24622 2.59136 4.3412 1.986 4.62822C1.37851 4.91623 0.721862 5.54778 0.407688 6.14612C-0.0252066 6.97063 -0.0125174 6.71091 0.00774545 14.3605L0.0261481 21.2838L0.194961 21.7165C0.413867 22.2778 0.791354 22.8417 1.17867 23.186C1.61117 23.5705 2.44401 23.9568 3.01575 24.038C3.28701 24.0766 5.37116 24.1047 8.01716 24.1054C12.967 24.1069 12.9078 24.1113 13.1005 23.7301C13.1527 23.6267 13.3232 23.1536 13.4794 22.6786C13.8302 21.6118 13.897 21.4777 14.1415 21.3513C14.4317 21.2013 19.5685 21.2009 19.8585 21.3508C20.1082 21.48 20.1442 21.5524 20.5286 22.6997C20.7056 23.2278 20.8958 23.7293 20.9515 23.8141C21.007 23.899 21.1647 24.0015 21.3019 24.0419C21.4771 24.0936 22.9743 24.1093 26.3347 24.0945L31.118 24.0735L31.5392 23.9214C32.6491 23.5204 33.4044 22.7756 33.83 21.6625L33.9748 21.2838L33.995 14.409C34.0093 9.49757 33.9936 7.42031 33.94 7.13562C33.8166 6.48102 33.4498 5.80092 32.9506 5.30135C32.2305 4.58059 31.3985 4.24914 30.3042 4.24721L29.7561 4.24622V3.71809C29.7561 3.02324 29.6611 2.59308 29.374 1.98783C29.0775 1.36246 28.4417 0.702676 27.8459 0.401978C27.0026 -0.0236613 27.5541 -0.00333584 16.9672 0.00177874C9.43284 0.00543202 7.2584 0.0247612 6.98674 0.0905865ZM27.0353 1.596C27.5567 1.84057 27.8612 2.13356 28.1021 2.62277C28.2748 2.97348 28.3169 3.15097 28.3452 3.64662L28.3794 4.24622H17.0005H5.62156L5.65511 3.65704C5.72068 2.50779 6.28924 1.75362 7.29613 1.48029C7.53231 1.41619 9.71858 1.40065 17.1333 1.41055L26.6668 1.42323L27.0353 1.596ZM31.2872 5.84708C31.813 6.09371 32.1134 6.38538 32.3623 6.89086L32.5796 7.3321V14.1751V21.0181L32.4037 21.3932C32.1894 21.8503 31.8153 22.2365 31.3787 22.4513L31.0516 22.6122L26.5233 22.6302L21.995 22.6481L21.7166 21.8128C21.5451 21.2984 21.357 20.8705 21.2268 20.6989C20.9801 20.3737 20.4827 20.0209 20.1347 19.9243C19.806 19.8329 14.1949 19.8329 13.8662 19.9243C13.5182 20.0209 13.0208 20.3737 12.7741 20.6989C12.6439 20.8705 12.4558 21.2984 12.2843 21.8128L12.0059 22.6481L7.47757 22.6302L2.94932 22.6122L2.62225 22.4513C2.18564 22.2365 1.81154 21.8503 1.59722 21.3932L1.4213 21.0181V14.1765V7.33489L1.59337 6.96957C1.90435 6.30932 2.36674 5.91483 3.04425 5.73171C3.28143 5.66761 6.36657 5.65233 17.1333 5.66196L30.9187 5.67432L31.2872 5.84708ZM7.42216 8.6073C7.21874 8.73775 7.10154 8.95748 7.10154 9.20856C7.10154 9.37641 9.07847 16.0559 9.27226 16.5427C9.45722 17.0074 10.0759 17.1368 10.4105 16.7807C10.6206 16.557 12.7755 9.35921 12.7203 9.06515C12.6353 8.61195 12.0911 8.36804 11.6914 8.60404C11.4339 8.75608 11.4132 8.81188 10.5874 11.574C10.2172 12.8119 9.91483 13.7162 9.88766 13.6663C9.86135 13.6181 9.52193 12.5176 9.13348 11.2206C8.60552 9.45831 8.38814 8.82364 8.27274 8.70819C8.06858 8.50401 7.65907 8.45539 7.42216 8.6073ZM15.9259 8.61102C15.8282 8.67166 15.7161 8.79182 15.6768 8.8781C15.5749 9.10162 15.5775 16.4009 15.6796 16.6248C15.8628 17.0268 16.4862 17.102 16.8071 16.7608C16.9626 16.5955 16.9678 16.5549 16.988 15.3669L17.0087 14.1433H17.1879C17.3323 14.1433 17.6187 14.3955 18.662 15.4416C19.3741 16.1558 20.0559 16.802 20.1769 16.8778C20.7216 17.2185 21.4107 16.6753 21.2159 16.0587C21.189 15.9734 20.7541 15.4844 20.2496 14.9723L19.3323 14.0411L19.711 13.845C20.1918 13.5962 20.7224 13.0602 20.9515 12.5922C21.7362 10.9886 20.8423 9.05293 19.1031 8.58996C18.8668 8.52706 18.3501 8.49916 17.4323 8.49982C16.3115 8.50069 16.0758 8.51809 15.9259 8.61102ZM25.5178 8.61905C25.0782 8.77594 24.7362 9.04582 24.4588 9.45479C24.1758 9.87179 24.0878 10.2229 24.1244 10.7889C24.1742 11.5585 24.5972 12.1883 25.2942 12.5305C25.6118 12.6864 25.753 12.7149 26.2018 12.7135C26.8965 12.7113 27.3111 12.5328 27.7588 12.043C28.5157 11.2149 28.5157 10.0308 27.7588 9.20271C27.1897 8.58019 26.2861 8.34486 25.5178 8.61905ZM18.7795 9.97023C19.2194 10.081 19.6771 10.5476 19.7844 10.9949C19.9411 11.6479 19.6494 12.2762 19.0514 12.5742C18.7288 12.7349 18.6358 12.7484 17.8511 12.7484H17.0005V11.3203V9.89219H17.735C18.1391 9.89219 18.6091 9.92732 18.7795 9.97023ZM26.461 9.98478C27.0763 10.2418 27.0409 11.076 26.4058 11.2855C25.9857 11.4242 25.5042 11.0702 25.5042 10.6228C25.5042 10.3849 25.7024 10.0857 25.9238 9.98943C26.1904 9.87345 26.1944 9.87339 26.461 9.98478ZM0.471865 25.7385C0.0291377 26.0486 -0.124063 27.0603 0.173303 27.7103C1.16027 29.8672 6.5765 31.446 14.2434 31.8116C15.0107 31.8481 15.7851 31.8781 15.9642 31.8781L16.2899 31.8782L15.7236 32.3053C14.9828 32.864 14.8518 33.0314 14.896 33.3627C14.9575 33.8241 15.4477 34.1272 15.842 33.9475C16.0377 33.8585 18.8585 31.7437 18.9829 31.5928C19.0319 31.5335 19.087 31.3716 19.1055 31.2332C19.1314 31.0388 19.105 30.9384 18.9895 30.7918C18.9072 30.6874 18.1671 30.097 17.3448 29.4799C15.7689 28.2972 15.6624 28.2439 15.2493 28.4321C15.007 28.5425 14.8462 28.8836 14.9004 29.1724C14.9492 29.4323 15.0987 29.5847 15.8281 30.118C16.2202 30.4048 16.2612 30.4533 16.128 30.4733C15.6712 30.5421 11.7718 30.2577 9.82541 30.0136C5.58894 29.4825 2.14425 28.3233 1.52401 27.2199C1.3829 26.9688 1.3817 26.9501 1.48614 26.6355C1.58174 26.3479 1.58307 26.2842 1.4981 26.0808C1.44535 25.9545 1.33254 25.8024 1.24743 25.7428C1.05138 25.6055 0.66486 25.6033 0.471865 25.7385ZM32.7535 25.7428C32.6684 25.8024 32.5556 25.9545 32.5028 26.0808C32.4179 26.284 32.4192 26.3479 32.5137 26.6325C32.6089 26.919 32.6098 26.9753 32.5222 27.1447C32.2673 27.6376 31.3259 28.2258 30.007 28.7163C28.3196 29.3437 25.1349 29.9695 22.5146 30.1884C21.8135 30.247 21.5459 30.3275 21.3888 30.5271C21.1152 30.8749 21.2825 31.4598 21.701 31.6189C22.0709 31.7596 25.7082 31.2784 27.8295 30.8083C31.7781 29.9331 33.8664 28.6639 33.9902 27.0638C34.0276 26.5815 33.8283 25.9775 33.563 25.7688C33.3551 25.6053 32.9676 25.5928 32.7535 25.7428Z" fill="white"/>
</svg>
