<svg width="38" height="38" viewBox="0 0 38 38" fill="none" xmlns="http://www.w3.org/2000/svg">
<path d="M19 38C29.4934 38 38 29.4934 38 19C38 8.50661 29.4934 0 19 0C8.50655 0 0 8.50661 0 19C0 29.4934 8.50655 38 19 38Z" fill="url(#paint0_linear_2703_9)"/>
<path fill-rule="evenodd" clip-rule="evenodd" d="M16.5625 9.15853C16.1602 9.37297 15.5728 9.96785 15.3671 10.369C15.0945 10.9006 15.0203 11.22 15.0247 11.8426C15.028 12.3138 15.0438 12.4368 15.1382 12.7268C15.2856 13.1795 15.5023 13.54 15.8611 13.9298C16.2833 14.3884 16.3063 14.443 16.3257 15.032L16.3421 15.5267H16.1267C16.0081 15.5267 15.8745 15.5466 15.8298 15.5708C15.7277 15.626 14.3333 18.4308 14.3333 18.5809C14.3333 18.64 14.3794 18.7348 14.4356 18.7917C14.5341 18.8912 14.5586 18.895 15.1023 18.895H15.6667V20.9529V23.0108L15.3333 23.0954L15 23.18V22.825C15 22.5043 14.9901 22.4601 14.8977 22.3667L14.7955 22.2634H13.3333H11.8712L11.769 22.3667C11.685 22.4516 11.6667 22.5118 11.6667 22.7036V22.937H10.4356H9.20454L9.10229 23.0404L9 23.1437V25.6317V28.1196L9.10229 28.223L9.20454 28.3263H10.4356H11.6667V28.5598C11.6667 28.7516 11.685 28.8118 11.769 28.8966L11.8712 29H13.3333H14.7955L14.8977 28.8966C14.987 28.8064 15 28.7555 15 28.4961V28.199L15.2964 28.3498C15.9175 28.6659 15.8867 28.6632 18.9754 28.6625C21.9653 28.6619 22.0148 28.6585 22.4695 28.426C22.5894 28.3647 23.5969 27.784 24.7083 27.1354C25.8198 26.4868 27.0854 25.7494 27.5208 25.4968C28.6602 24.8357 28.8755 24.5798 28.8746 23.8874C28.8738 23.276 28.4905 22.7772 27.9054 22.6259L27.6875 22.5695L27.6766 20.7323L27.6658 18.895H28.2306C28.7748 18.895 28.7992 18.8912 28.8977 18.7917C28.954 18.7348 29 18.64 29 18.5809C29 18.4308 27.6056 15.626 27.5036 15.5708C27.4588 15.5466 27.3403 15.5267 27.2404 15.5267C27.0832 15.5267 27.0365 15.5039 26.8958 15.3583L26.7331 15.1899H27.0976C27.4291 15.1899 27.4714 15.1805 27.5644 15.0865C27.6658 14.984 27.6667 14.9767 27.6667 14.1794C27.6667 13.3821 27.6658 13.3747 27.5644 13.2723C27.4714 13.1782 27.4291 13.1689 27.0968 13.1689H26.7316L26.9908 12.9046C27.386 12.5017 27.3813 12.484 26.6962 11.7917C26.0111 11.0994 25.9936 11.0947 25.5949 11.494L25.3333 11.756V11.3869C25.3333 11.0511 25.3241 11.0084 25.231 10.9144C25.1296 10.8119 25.1223 10.8111 24.3333 10.8111C23.5443 10.8111 23.537 10.8119 23.4356 10.9144C23.3426 11.0084 23.3333 11.0511 23.3333 11.3869V11.756L23.0718 11.494C22.673 11.0947 22.6555 11.0994 21.9705 11.7917C21.2854 12.484 21.2807 12.5017 21.6759 12.9046L21.9351 13.1689H21.5698C21.2375 13.1689 21.1953 13.1782 21.1023 13.2723C21.0008 13.3747 21 13.3821 21 14.1794C21 14.9767 21.0008 14.984 21.1023 15.0865C21.1953 15.1805 21.2376 15.1899 21.569 15.1899H21.9336L21.7708 15.3583L21.6081 15.5267H20.633H19.6579L19.6743 15.032C19.6938 14.4401 19.7216 14.3742 20.1411 13.9253C20.4944 13.5472 20.7128 13.1843 20.8621 12.7268C20.957 12.4359 20.9725 12.3153 20.9754 11.8426C20.9792 11.2193 20.9043 10.8974 20.6324 10.369C20.424 9.96415 19.8774 9.40838 19.4583 9.17542C19.0765 8.96317 18.8822 8.94557 18.753 9.11154C18.6702 9.21794 18.6667 9.27209 18.6667 10.4325V11.6425L18.3333 11.8637L18 12.0848L17.6667 11.8637L17.3333 11.6425V10.4325C17.3333 9.27209 17.3298 9.21794 17.247 9.11154C17.1226 8.95172 16.925 8.96527 16.5625 9.15853ZM16.6997 12.0211C16.7045 12.0267 16.9754 12.2114 17.3019 12.4317C17.658 12.6719 17.9373 12.8321 18 12.8321C18.0627 12.8321 18.342 12.6719 18.6981 12.4317C19.0246 12.2114 19.2955 12.0267 19.3003 12.0211C19.305 12.0156 19.3191 11.5289 19.3315 10.9396L19.3542 9.86824L19.6353 10.1524C20.273 10.797 20.4941 11.7594 20.1955 12.5906C20.0543 12.9838 19.9254 13.1851 19.5481 13.6019C19.101 14.0956 19.0323 14.2725 19.009 14.9899L18.9916 15.5267H18.6625H18.3333V14.9564C18.3333 14.407 18.3296 14.3823 18.231 14.2828C18.1666 14.2176 18.0812 14.1794 18 14.1794C17.9188 14.1794 17.8334 14.2176 17.769 14.2828C17.6704 14.3823 17.6667 14.407 17.6667 14.9564V15.5267H17.3333H17V15.068C17 14.3227 16.8625 13.993 16.325 13.4489C15.9172 13.0361 15.6657 12.3987 15.6673 11.7822C15.6688 11.1998 15.9346 10.582 16.3748 10.1374L16.6458 9.86373L16.6685 10.9374C16.6809 11.5279 16.695 12.0156 16.6997 12.0211ZM24.668 11.9374C24.6689 12.2442 24.6869 12.4134 24.724 12.4628C24.7876 12.5474 25.1099 12.7035 25.2238 12.7048C25.2668 12.7053 25.4552 12.5545 25.6426 12.3697L25.9833 12.0336L26.2207 12.2761L26.4582 12.5186L26.1442 12.8332C25.9715 13.0062 25.8199 13.1888 25.8074 13.2388C25.7804 13.3462 25.9277 13.7045 26.0316 13.7842C26.081 13.8221 26.2468 13.8403 26.5521 13.8412L27 13.8426V14.1794V14.5162L26.5521 14.5176C26.0433 14.5191 26.0013 14.5376 25.8768 14.815C25.7604 15.0742 25.7687 15.1245 25.9636 15.3382L26.1356 15.5267L25.3282 15.5224C24.8842 15.52 24.5783 15.5042 24.6484 15.4872C24.8469 15.4392 25.2044 15.2278 25.3183 15.0911C25.3749 15.023 25.4709 14.8706 25.5315 14.7523C25.625 14.5701 25.642 14.4827 25.6431 14.1794C25.6442 13.8828 25.6268 13.7855 25.5419 13.611C25.4112 13.3424 25.1613 13.0899 24.8958 12.9584C24.5967 12.8102 24.07 12.8102 23.7708 12.9584C22.6886 13.4946 22.7798 15.0545 23.9169 15.4565C24.0998 15.5212 24.0857 15.5228 23.3176 15.5247L22.531 15.5267L22.703 15.3382C22.898 15.1245 22.9063 15.0742 22.7899 14.815C22.6654 14.5376 22.6233 14.5191 22.1146 14.5176L21.6667 14.5162V14.1794V13.8426H22.0814C22.3095 13.8426 22.5426 13.8212 22.5994 13.795C22.7015 13.748 22.875 13.4187 22.875 13.2717C22.875 13.2327 22.7253 13.0458 22.5424 12.8564L22.2099 12.5121L22.4498 12.2722L22.6897 12.0323L23.0011 12.3495C23.1724 12.524 23.3525 12.677 23.4013 12.6896C23.5337 12.7236 23.8973 12.5506 23.9529 12.4273C23.9788 12.3698 24 12.1343 24 11.9038V11.4847H24.3333H24.6667L24.668 11.9374ZM24.597 13.5632C25.0251 13.7439 25.1295 14.3111 24.7966 14.6475C24.5263 14.9206 24.1404 14.9206 23.8701 14.6475C23.3548 14.1268 23.9234 13.2787 24.597 13.5632ZM20.625 17.2109L20.1247 18.2214H17.6663H15.208L15.7083 17.2109L16.2087 16.2004H18.667H21.1253L20.625 17.2109ZM27.625 17.2109L28.1253 18.2214H25.667H23.2087L22.7083 17.2109L22.208 16.2004H24.6663H27.1247L27.625 17.2109ZM21.3154 23.6428C21.3053 23.6531 20.513 23.4482 19.5548 23.1875C17.5561 22.6436 17.3088 22.6068 16.6771 22.7584L16.3333 22.8409V20.868V18.895H18.3865C20.078 18.895 20.4543 18.8847 20.522 18.8362C20.5672 18.8038 20.7635 18.4524 20.9583 18.0553L21.3125 17.3332L21.3232 20.4787C21.329 22.2087 21.3256 23.6326 21.3154 23.6428ZM22.8299 18.8511C22.8832 18.8799 23.615 18.895 24.956 18.895H27.0008L26.99 20.7964L26.9792 22.6977L25.3219 23.6642L23.6646 24.6307L23.4638 24.441C23.1989 24.1905 23.1124 24.1495 22.5104 23.9888L22 23.8525L22.0022 20.5843L22.0044 17.3161L22.3765 18.0616C22.5812 18.4716 22.7852 18.8269 22.8299 18.8511ZM14.3333 25.6317V28.3263H13.3333H12.3333V25.6317V22.937H13.3333H14.3333V25.6317ZM27.8957 23.353C27.9644 23.393 28.0645 23.4911 28.1181 23.5709C28.1986 23.6905 28.2129 23.757 28.1995 23.9503C28.1892 24.0994 28.1516 24.2295 28.0961 24.3081C28.0354 24.3942 27.1316 24.9437 25.1228 26.1159C23.5354 27.0422 22.1506 27.8379 22.0454 27.8842C21.8616 27.9652 21.7469 27.969 19.1042 27.9818C17.0889 27.9916 16.2929 27.9818 16.125 27.9451C15.999 27.9175 15.6943 27.7929 15.4479 27.6682L15 27.4414V25.6576V23.8738L16.0202 23.616C16.7624 23.4283 17.1166 23.3581 17.3198 23.3581C17.5488 23.3581 18.0499 23.4797 20.1016 24.0333C21.478 24.4047 22.6842 24.7379 22.782 24.7739C23.028 24.8643 23.1768 25.0714 23.1965 25.3505C23.2241 25.7436 22.9449 26.0531 22.5632 26.0524C22.4711 26.0523 21.4884 25.806 20.3792 25.5051C19.2701 25.2042 18.3305 24.958 18.2911 24.958C18.2517 24.958 18.1702 24.9973 18.1098 25.0453C17.9713 25.1554 17.9561 25.41 18.0812 25.5244C18.1725 25.6079 18.191 25.6134 20.6025 26.2644C22.2251 26.7024 22.372 26.7349 22.6442 26.7169C23.301 26.6733 23.7991 26.1816 23.8712 25.5056L23.8958 25.2743L25.6042 24.2769C26.5438 23.7284 27.35 23.2708 27.3958 23.2601C27.5259 23.2299 27.7586 23.2731 27.8957 23.353ZM11.6667 25.6317V27.6527H10.6667H9.66667V25.6317V23.6107H10.6667H11.6667V25.6317Z" fill="black"/>
<defs>
<linearGradient id="paint0_linear_2703_9" x1="33.7033" y1="2.21306" x2="1.2665" y2="39.2368" gradientUnits="userSpaceOnUse">
<stop stop-color="#7452FF"/>
<stop offset="0.1547" stop-color="#8663FF"/>
<stop offset="0.7275" stop-color="#C39FFF"/>
<stop offset="1" stop-color="#DBB7FF"/>
</linearGradient>
</defs>
</svg>
