<svg width="41" height="41" viewBox="0 0 41 41" fill="none" xmlns="http://www.w3.org/2000/svg">
<path fill-rule="evenodd" clip-rule="evenodd" d="M19.678 1.60253V3.20507L20.941 3.25442C24.5039 3.3935 27.4793 4.37105 30.3393 6.3422C33.7997 8.72705 36.361 12.4589 37.3071 16.4946C37.438 17.0525 37.7207 18.6876 37.7207 18.8863C37.7207 18.9614 40.8578 21.7355 40.9427 21.7355C41.0521 21.7355 40.9846 19.005 40.8497 17.9701C40.0259 11.6524 36.4022 6.15168 30.9054 2.87515C28.583 1.49077 25.7942 0.536047 23.046 0.184584C22.6711 0.136595 21.7599 0.075468 21.0212 0.0487097L19.678 0V1.60253ZM0.753349 5.31072V6.91173L2.9175 6.93304L5.08173 6.95435L4.55561 7.59527C2.17006 10.5013 0.613339 14.152 0.0974 18.0502C-0.0324266 19.0316 -0.0325068 22.0355 0.0974 23.0173C0.757118 28.0059 2.95022 32.2344 6.66748 35.6855C9.68997 38.4914 13.6586 40.3181 17.9941 40.8988C18.921 41.023 22.4609 41.0371 22.6664 40.9174C22.7888 40.8462 22.6313 40.6664 21.5036 39.5911C19.4945 37.675 19.7398 37.841 18.7793 37.7479C14.4315 37.3263 10.222 35.1343 7.379 31.8111C3.69462 27.5046 2.35626 21.9426 3.67665 16.4252C4.27174 13.9385 5.44475 11.6034 7.12191 9.56689L7.60954 8.97476L7.63079 11.3895L7.65196 13.8042H9.25463H10.8572V8.75693V3.70971H5.80528H0.753349V5.31072ZM19.678 13.3235V19.7326H15.1874H10.6968V21.3349V22.9372H16.7912H22.8856V14.9258V6.91429H21.2818H19.678V13.3235ZM33.0296 30.2315C29.9864 33.622 27.4741 36.3872 27.4467 36.3763C27.4194 36.3653 25.999 35.0252 24.2903 33.3981L21.1836 30.4398L20.0719 31.5955L18.9601 32.7513L19.4265 33.1919C19.683 33.4342 21.6155 35.2729 23.721 37.2777C25.8263 39.2826 27.5913 40.9298 27.643 40.938C27.7155 40.9496 33.9091 34.1024 40.5833 26.6321L41 26.1656L39.8413 25.1322C39.2039 24.5639 38.6555 24.0917 38.6225 24.0829C38.5896 24.074 36.0728 26.841 33.0296 30.2315Z" fill="#0073A8"/>
</svg>
