<svg width="38" height="38" viewBox="0 0 38 38" fill="none" xmlns="http://www.w3.org/2000/svg">
<path d="M19 38C29.4934 38 38 29.4934 38 19C38 8.50661 29.4934 0 19 0C8.5066 0 0 8.50661 0 19C0 29.4934 8.5066 38 19 38Z" fill="url(#paint0_linear_2703_8)"/>
<path fill-rule="evenodd" clip-rule="evenodd" d="M18.2562 9.00975C17.7336 9.05644 17.4086 9.11431 17.3448 9.172C17.3064 9.20675 17.1923 9.49817 17.0912 9.81961C16.9901 10.141 16.8894 10.4084 16.8674 10.4138C16.8453 10.4191 16.5631 10.5082 16.2401 10.6117C15.8459 10.738 15.4441 10.905 15.0179 11.1195L14.3828 11.4391L13.8301 11.1484C13.4205 10.933 13.253 10.8638 13.1836 10.8812C12.8231 10.9716 10.9646 12.8298 10.8741 13.1902C10.8568 13.259 10.9268 13.4281 11.1415 13.836L11.4323 14.3885L11.1126 15.0234C10.8469 15.5508 10.522 16.4017 10.4063 16.8728C10.4008 16.8952 10.133 16.9963 9.81109 17.0975C9.48919 17.1988 9.19777 17.3125 9.16352 17.3504C9.05884 17.466 9 18.0611 9 19.004C9 19.947 9.05884 20.542 9.16356 20.6577C9.19781 20.6955 9.45642 20.7975 9.7382 20.8843C10.3852 21.0837 10.4267 21.1015 10.4267 21.1803C10.4267 21.3652 10.8253 22.4135 11.1128 22.9847L11.4323 23.6195L11.1415 24.172C10.9268 24.5799 10.8568 24.7491 10.8741 24.8178C10.9646 25.1783 12.8231 27.0364 13.1836 27.1269C13.253 27.1443 13.4205 27.075 13.8301 26.8596L14.3828 26.5689L15.0179 26.8889C15.5538 27.1589 16.2777 27.4346 16.868 27.5936C16.8904 27.5996 16.9916 27.8678 17.0928 28.1896C17.1941 28.5113 17.3084 28.803 17.3468 28.8378C17.4585 28.9389 18.0815 29 19 29C19.9185 29 20.5415 28.9389 20.6532 28.8378C20.6916 28.803 20.8059 28.5113 20.9072 28.1896C21.0084 27.8678 21.1096 27.5996 21.132 27.5936C21.7223 27.4346 22.4462 27.1589 22.9821 26.8889L23.6172 26.5689L24.1699 26.8596C24.5795 27.075 24.747 27.1443 24.8164 27.1269C25.1769 27.0364 27.0354 25.1783 27.1259 24.8178C27.1432 24.7491 27.0732 24.5799 26.8585 24.172L26.5677 23.6195L26.8874 22.9847C27.102 22.5586 27.269 22.1569 27.3954 21.7629C27.499 21.44 27.5881 21.1579 27.5934 21.1359C27.5988 21.1139 27.8662 21.0132 28.1878 20.9121C28.5093 20.8111 28.8009 20.697 28.8356 20.6586C28.9412 20.5419 29 19.9505 29 19.004C29 18.0575 28.9412 17.4661 28.8356 17.3494C28.8009 17.311 28.5093 17.197 28.1878 17.0959C27.8662 16.9948 27.5988 16.8942 27.5934 16.8722C27.5881 16.8501 27.499 16.568 27.3954 16.2451C27.269 15.8511 27.102 15.4494 26.8874 15.0234L26.5677 14.3885L26.8585 13.836C27.0732 13.4281 27.1432 13.259 27.1259 13.1902C27.0355 12.8299 25.1769 10.9716 24.8166 10.8812C24.7474 10.8639 24.5769 10.9345 24.1601 11.1534L23.5972 11.449L23.4615 11.3665C22.9636 11.0635 22.0838 10.6889 21.4215 10.4979L21.0944 10.4036L20.9098 9.82446C20.8083 9.50592 20.6938 9.21453 20.6554 9.17696C20.6115 9.13415 20.4686 9.09212 20.2723 9.06438C19.9509 9.01898 18.5714 8.98157 18.2562 9.00975ZM20.1198 9.63564C20.2384 9.65787 20.2456 9.67215 20.4229 10.2355C20.5228 10.5529 20.6354 10.8389 20.6733 10.8712C20.7111 10.9034 20.9006 10.9703 21.0944 11.0198C21.7922 11.1979 22.5785 11.5245 23.2018 11.8951C23.3705 11.9954 23.5445 12.0775 23.5885 12.0775C23.6325 12.0775 23.9104 11.9506 24.206 11.7955L24.7435 11.5136L25.0525 11.7723C25.3894 12.0543 26.0457 12.7165 26.3209 13.052L26.4944 13.2634L26.2117 13.8014C26.0563 14.0974 25.9291 14.373 25.9291 14.4139C25.9291 14.4549 26.0418 14.6858 26.1796 14.9272C26.4928 15.476 26.7931 16.2014 26.9606 16.8138C27.0314 17.0729 27.1167 17.3122 27.1502 17.3456C27.1836 17.379 27.4635 17.4848 27.7722 17.5807C28.0809 17.6766 28.3388 17.7604 28.3455 17.7671C28.3521 17.7737 28.3768 17.9799 28.4005 18.2252C28.4418 18.6544 28.4246 19.8016 28.3722 20.104L28.3478 20.2452L27.7694 20.4271C27.4513 20.5271 27.1674 20.6374 27.1385 20.6721C27.1097 20.7069 27.0289 20.9445 26.9589 21.2002C26.7933 21.806 26.5002 22.5131 26.1832 23.0716C26.0434 23.3179 25.9291 23.5529 25.9291 23.594C25.9291 23.635 26.0562 23.9106 26.2116 24.2064L26.4942 24.7443L26.2349 25.0537C25.9525 25.3908 25.2901 26.0469 24.9548 26.3218L24.7439 26.4947L24.2062 26.2126C23.9105 26.0575 23.6345 25.9306 23.5929 25.9306C23.5513 25.9306 23.3198 26.0432 23.0783 26.1809C22.5311 26.4931 21.804 26.7942 21.197 26.96C20.9412 27.03 20.7031 27.1111 20.6678 27.1403C20.6326 27.1696 20.5217 27.4544 20.4214 27.7732L20.2391 28.3529L20.0208 28.384C19.7376 28.4245 18.262 28.4244 17.9786 28.384L17.7597 28.3527L17.5776 27.7741C17.4775 27.4558 17.3646 27.1685 17.3267 27.1354C17.2889 27.1024 17.1611 27.0532 17.0426 27.0261C16.3998 26.8788 15.5175 26.5237 14.8739 26.1535C14.6608 26.0309 14.4521 25.9306 14.4101 25.9306C14.3681 25.9306 14.0915 26.0577 13.7955 26.2131L13.2572 26.4956L13.0458 26.3223C12.7099 26.0469 12.0477 25.391 11.7651 25.0537L11.5058 24.7443L11.7884 24.2064C11.9438 23.9106 12.0709 23.6351 12.0709 23.5941C12.0709 23.5532 11.9582 23.3222 11.8205 23.0809C11.5082 22.5338 11.207 21.807 11.0411 21.2002C10.9711 20.9445 10.89 20.7065 10.8607 20.6712C10.8314 20.636 10.5466 20.5251 10.2276 20.4249L9.64769 20.2426L9.61638 20.0244C9.59915 19.9044 9.58506 19.4452 9.58506 19.004C9.58506 18.5628 9.59915 18.1036 9.61638 17.9836L9.64769 17.7654L10.2276 17.5832C10.5466 17.4829 10.8314 17.372 10.8607 17.3368C10.89 17.3016 10.9711 17.0635 11.0411 16.8078C11.207 16.201 11.5082 15.4743 11.8205 14.9272C11.9582 14.6858 12.0709 14.4549 12.0709 14.4139C12.0709 14.373 11.9437 14.0974 11.7883 13.8014L11.5056 13.2634L11.6791 13.052C11.9546 12.7161 12.6108 12.0542 12.9485 11.7714L13.2584 11.512L13.7977 11.7947C14.0944 11.9502 14.37 12.0775 14.41 12.0775C14.4502 12.0775 14.6846 11.9632 14.9309 11.8234C15.4897 11.5066 16.197 11.2136 16.803 11.048C17.0588 10.9781 17.2963 10.8975 17.3308 10.8689C17.3653 10.8403 17.4749 10.559 17.5744 10.2438C17.674 9.92863 17.7601 9.66574 17.7658 9.65959C17.833 9.58727 19.7574 9.56767 20.1198 9.63564ZM18.1821 11.3787C15.5825 11.6503 13.2298 13.3134 12.0915 15.684C11.0728 17.8053 11.0785 20.25 12.1069 22.3499C13.9699 26.1537 18.5133 27.7373 22.3212 25.91C22.785 25.6875 23.4038 25.3015 23.7741 25.0039C23.8936 24.9078 24.1648 24.6588 24.377 24.4505C25.0252 23.8139 25.4927 23.1661 25.8928 22.3499C27.3281 19.4222 26.736 15.9071 24.417 13.589C22.7747 11.9473 20.4903 11.1375 18.1821 11.3787ZM19.7355 11.9622C21.4278 12.1461 22.921 12.8819 24.1093 14.1173C25.1015 15.1489 25.725 16.3858 25.9916 17.8512C26.0892 18.3879 26.0909 19.6127 25.9948 20.1389C25.7867 21.2787 25.3846 22.2381 24.7265 23.1653C24.4551 23.5478 23.6286 24.3884 23.2477 24.6697C22.3335 25.3444 21.3057 25.7824 20.1353 25.9962C19.6176 26.0908 18.3827 26.0908 17.8647 25.9963C15.8306 25.6251 14.1393 24.5146 13.051 22.8356C11.54 20.5043 11.5436 17.4693 13.0602 15.1552C14.5262 12.9185 17.1195 11.678 19.7355 11.9622ZM18.1388 12.5642C17.1738 12.7034 16.243 13.0528 15.4458 13.5749C14.8939 13.9364 14.7721 14.052 14.7721 14.2143C14.7721 14.3787 14.888 14.5037 15.0405 14.5037C15.1065 14.5037 15.2227 14.4505 15.3243 14.3737C16.118 13.7737 16.9073 13.4115 17.8647 13.2079C18.4224 13.0893 19.4593 13.0796 20.0374 13.1877C22.4846 13.6451 24.3609 15.5207 24.8185 17.967C24.9196 18.5074 24.9196 19.5006 24.8185 20.041C24.5224 21.6239 23.6201 23.0051 22.2948 23.9035C22.0084 24.0976 21.2782 24.4826 21.1963 24.4826C21.1652 24.4826 21.1531 23.6501 21.1531 21.5085V18.5344H21.7147C22.3473 18.5344 22.4058 18.5109 22.4058 18.2563C22.4058 18.1307 22.2931 18.0089 20.7694 16.4887C19.2563 14.9789 19.123 14.8559 19 14.8559C18.877 14.8559 18.7437 14.9789 17.2306 16.4887C15.6766 18.0392 15.5942 18.1285 15.5942 18.2631C15.5942 18.5094 15.6584 18.5344 16.2921 18.5344H16.8469V21.5085C16.8469 23.504 16.8337 24.4826 16.807 24.4826C16.785 24.4826 16.6045 24.4013 16.4057 24.3019C13.8631 23.0299 12.5912 20.2741 13.283 17.5358C13.4728 16.7847 13.7632 16.1736 14.2589 15.482C14.4115 15.2692 14.4975 15.1107 14.4977 15.0418C14.4982 14.8933 14.3715 14.7776 14.2085 14.7776C14.0462 14.7776 13.9305 14.8994 13.5689 15.4512C12.1599 17.6008 12.1518 20.3682 13.5483 22.526C14.8782 24.581 17.27 25.7219 19.6964 25.4589C20.4664 25.3754 21.1344 25.1773 21.8773 24.812C22.5476 24.4824 23.031 24.1337 23.5802 23.5835C24.1324 23.0304 24.4821 22.5464 24.8109 21.8803C25.5948 20.2921 25.7084 18.6171 25.1467 16.9256C24.4059 14.6945 22.46 13.0232 20.1157 12.6047C19.6284 12.5178 18.6058 12.4968 18.1388 12.5642ZM20.2179 16.7636L21.3982 17.9279L21.1876 17.9376C20.8519 17.9532 20.7276 17.9844 20.644 18.074C20.5672 18.1564 20.5659 18.2141 20.5659 21.4344V24.7109L20.3799 24.7507C19.8246 24.8692 19.5937 24.893 19 24.893C18.4063 24.893 18.1754 24.8692 17.6201 24.7507L17.4341 24.7109L17.4329 21.4368C17.4319 18.8127 17.4215 18.1493 17.3807 18.0957C17.303 17.9934 17.1419 17.9476 16.8541 17.9459L16.5924 17.9443L17.7781 16.7719C18.4303 16.127 18.9805 15.5994 19.0007 15.5994C19.021 15.5994 19.5688 16.1233 20.2179 16.7636Z" fill="black"/>
<defs>
<linearGradient id="paint0_linear_2703_8" x1="5.45427" y1="6.15804" x2="30.6828" y2="30.076" gradientUnits="userSpaceOnUse">
<stop stop-color="#69ACCE"/>
<stop offset="0.8137" stop-color="#9CCFF5"/>
<stop offset="1" stop-color="#A8D8FF"/>
</linearGradient>
</defs>
</svg>
