<svg width="50" height="50" viewBox="0 0 50 50" fill="none" xmlns="http://www.w3.org/2000/svg">
<path fill-rule="evenodd" clip-rule="evenodd" d="M0.255729 0.255729L0 0.511354V3.33333V6.15531L0.255729 6.41094C0.491458 6.64677 0.588854 6.66667 1.50573 6.66667H2.5V24.1667V41.6667H1.50573C0.588854 41.6667 0.491458 41.6866 0.255729 41.9224C0.00208333 42.1759 0 42.1942 0 44.1667C0 46.1392 0.00208333 46.1574 0.255729 46.4109L0.511354 46.6667H10.6724H20.8333V47.2535C20.8333 48.1577 21.0206 48.6319 21.611 49.2223C22.3289 49.9401 22.5914 50 25.0196 50C27.4592 50 27.793 49.9195 28.4686 49.1679C28.9831 48.5957 29.1667 48.0923 29.1667 47.2535V46.6667H39.3276H49.4886L49.7443 46.4109C49.9979 46.1574 50 46.1392 50 44.1667C50 42.1942 49.9979 42.1759 49.7443 41.9224C49.5085 41.6866 49.4111 41.6667 48.4943 41.6667H47.5V24.1667V6.66667H48.4943C49.4111 6.66667 49.5085 6.64677 49.7443 6.41094L50 6.15531V3.33333V0.511354L49.7443 0.255729L49.4886 0H25H0.511354L0.255729 0.255729ZM48.3333 3.33333V5H25H1.66667V3.33333V1.66667H25H48.3333V3.33333ZM45.8333 24.1667V41.6667H25H4.16667V24.1667V6.66667H25H45.8333V24.1667ZM15 9.15323V9.97312L15.7504 10.047C17.4834 10.2178 18.954 10.9325 20.2607 12.2393C21.2126 13.1911 21.7601 14.0637 22.1561 15.2604C22.3997 15.9962 22.432 16.2583 22.432 17.5C22.432 18.7417 22.3997 19.0037 22.1561 19.7396C21.7601 20.9362 21.2126 21.8089 20.2607 22.7607C19.3089 23.7126 18.4362 24.2601 17.2396 24.6561C16.5037 24.8997 16.2417 24.932 15 24.932C13.7583 24.932 13.4963 24.8997 12.7604 24.6561C11.5697 24.2621 10.6984 23.7152 9.74 22.7604C8.43469 21.46 7.71802 19.9862 7.54698 18.2504L7.47312 17.5H6.65323H5.83333V17.8509C5.83333 18.044 5.90479 18.6118 5.99219 19.1128C6.84833 24.0223 11.6313 27.3798 16.5457 26.5209C21.5275 25.6504 24.8853 20.9006 24.02 15.9483C23.3569 12.1538 20.3691 9.14719 16.6096 8.49167C16.1103 8.40458 15.544 8.33333 15.3509 8.33333H15V9.15323ZM36.9224 9.4224L36.6667 9.67802V12.7557V15.8333H35.8333H35V14.8391C35 13.9222 34.9801 13.8248 34.7443 13.5891C34.4907 13.3354 34.4725 13.3333 32.5 13.3333C29.8005 13.3333 30 13.1134 30 16.0891V18.3333H28.5891C27.2298 18.3333 27.1686 18.3427 26.9224 18.5891C26.6667 18.8447 26.6667 18.845 26.6667 21.0891V23.3333H25.8333H25V24.1667V25H34.1667H43.3333V24.1667V23.3333H42.5H41.6667V16.5057V9.67802L41.4109 9.4224C41.1574 9.16875 41.1392 9.16667 39.1667 9.16667C37.1942 9.16667 37.1759 9.16875 36.9224 9.4224ZM40 17.0833V23.3333H39.1667H38.3333V17.0833V10.8333H39.1667H40V17.0833ZM13.8021 11.7878C12.861 11.9647 11.6749 12.6229 10.899 13.399C9.1151 15.1827 8.68094 17.7696 9.78302 20.0465C11.5199 23.6348 16.3306 24.4296 19.1253 21.59C21.3832 19.2957 21.3785 15.6911 19.1147 13.4049C17.7366 12.0132 15.7769 11.4167 13.8021 11.7878ZM14.1667 15.6297C14.1667 17.8184 14.1671 17.8224 14.4224 18.0776C14.588 18.2433 14.7961 18.3333 15.0138 18.3333C15.3071 18.3333 15.5489 18.1354 16.929 16.7656L18.5085 15.1979L18.8096 15.8542C19.0739 16.4305 19.1108 16.6316 19.1126 17.5054C19.1145 18.4465 19.0934 18.5431 18.7255 19.2875C18.257 20.2356 17.6539 20.8261 16.6854 21.2849C16.0561 21.583 15.8949 21.6146 15 21.6146C14.1051 21.6146 13.9439 21.583 13.3146 21.2849C12.3461 20.8261 11.743 20.2356 11.2745 19.2875C10.9073 18.5446 10.8854 18.4445 10.8854 17.5054C10.8854 16.6044 10.9166 16.4447 11.2151 15.8146C11.6614 14.8726 12.2631 14.2475 13.1512 13.8031C13.5532 13.6021 13.9461 13.4375 14.0244 13.4375C14.1401 13.4375 14.1667 13.8464 14.1667 15.6297ZM16.697 13.7243L17.3003 14.0104L16.5668 14.7368L15.8333 15.4631V14.4503C15.8333 13.7094 15.8682 13.4376 15.9635 13.4378C16.0352 13.438 16.3652 13.5669 16.697 13.7243ZM33.3333 19.1667V23.3333H32.5H31.6667V19.1667V15H32.5H33.3333V19.1667ZM36.6667 20.4167V23.3333H35.8333H35V20.4167V17.5H35.8333H36.6667V20.4167ZM30 21.6667V23.3333H29.1667H28.3333V21.6667V20H29.1667H30V21.6667ZM40.8333 28.4695C40.3221 28.6306 39.4501 29.5335 39.2933 30.0642C39.1421 30.5762 39.1304 31.141 39.264 31.4922C39.3543 31.7299 39.2572 31.8392 37.8926 33.0354C37.085 33.7435 36.3701 34.3555 36.3042 34.3955C36.2382 34.4354 35.9764 34.3958 35.7223 34.3077C35.1809 34.1198 34.4593 34.1616 33.962 34.4097L33.6151 34.5827L32.176 33.5153L30.737 32.4479L30.7986 31.9528C30.9748 30.538 29.771 29.1667 28.3529 29.1667C27.678 29.1667 27.1554 29.4 26.611 29.9444C25.9136 30.6418 25.6462 31.5776 25.9306 32.3255C26.0209 32.5632 25.9239 32.6725 24.5593 33.8688C23.7517 34.5769 23.0369 35.1889 22.9709 35.2288C22.9051 35.2686 22.6667 35.2355 22.4411 35.1552C21.5935 34.8532 20.7611 35.0226 20.06 35.6398C19.8133 35.8569 19.5526 36.1768 19.4806 36.3506L19.3497 36.6667H15.9249H12.5V37.5V38.3333H15.9249H19.3497L19.4806 38.6494C19.7739 39.3572 20.8235 40 21.6863 40C23.2435 40 24.5912 38.2136 24.0694 36.8411C23.9791 36.6034 24.0761 36.4942 25.4407 35.2979C26.2483 34.5898 26.9632 33.9778 27.0292 33.9378C27.0951 33.8979 27.357 33.9375 27.611 34.0256C28.1524 34.2135 28.8741 34.1718 29.3714 33.9236L29.7182 33.7506L31.1573 34.818L32.5964 35.8854L32.5347 36.3805C32.437 37.1651 32.6637 37.7798 33.2755 38.389C34.0422 39.1524 34.8566 39.3449 35.8656 39.001C36.996 38.6158 37.7995 37.0514 37.4027 36.0078C37.3124 35.7701 37.4095 35.6608 38.7741 34.4646C39.5817 33.7565 40.2965 33.1445 40.3624 33.1046C40.4282 33.0647 40.6667 33.0978 40.8922 33.1781C41.818 33.508 42.642 33.3026 43.389 32.5556C44.4069 31.5377 44.4373 30.2428 43.4686 29.1654C42.7945 28.4156 41.8205 28.1583 40.8333 28.4695ZM42.2443 30.2557C42.4055 30.4169 42.5 30.6304 42.5 30.8333C42.5 31.0362 42.4055 31.2498 42.2443 31.4109C42.0831 31.5722 41.8696 31.6667 41.6667 31.6667C41.4637 31.6667 41.2502 31.5722 41.0891 31.4109C40.9278 31.2498 40.8333 31.0362 40.8333 30.8333C40.8333 30.6304 40.9278 30.4169 41.0891 30.2557C41.2502 30.0945 41.4637 30 41.6667 30C41.8696 30 42.0831 30.0945 42.2443 30.2557ZM28.9109 31.0891C29.0722 31.2502 29.1667 31.4637 29.1667 31.6667C29.1667 31.8696 29.0722 32.0831 28.9109 32.2443C28.7498 32.4055 28.5362 32.5 28.3333 32.5C28.1304 32.5 27.9169 32.4055 27.7557 32.2443C27.5945 32.0831 27.5 31.8696 27.5 31.6667C27.5 31.4637 27.5945 31.2502 27.7557 31.0891C27.9169 30.9278 28.1304 30.8333 28.3333 30.8333C28.5362 30.8333 28.7498 30.9278 28.9109 31.0891ZM35.5776 36.0891C35.7389 36.2502 35.8333 36.4637 35.8333 36.6667C35.8333 36.8696 35.7389 37.0831 35.5776 37.2443C35.4165 37.4055 35.2029 37.5 35 37.5C34.7971 37.5 34.5835 37.4055 34.4224 37.2443C34.2611 37.0831 34.1667 36.8696 34.1667 36.6667C34.1667 36.4637 34.2611 36.2502 34.4224 36.0891C34.5835 35.9278 34.7971 35.8333 35 35.8333C35.2029 35.8333 35.4165 35.9278 35.5776 36.0891ZM5.83333 37.5V38.3333H6.66667H7.5V37.5V36.6667H6.66667H5.83333V37.5ZM9.16667 37.5V38.3333H10H10.8333V37.5V36.6667H10H9.16667V37.5ZM22.2443 36.9224C22.761 37.4391 22.3949 38.3333 21.6667 38.3333C21.2384 38.3333 20.8333 37.9282 20.8333 37.5C20.8333 37.0718 21.2384 36.6667 21.6667 36.6667C21.8696 36.6667 22.0831 36.7611 22.2443 36.9224ZM48.3333 44.1667V45H25H1.66667V44.1667V43.3333H25H48.3333V44.1667ZM27.5 47.2443C27.5 47.7188 27.4543 47.8677 27.2443 48.0776C26.9907 48.3312 26.9725 48.3333 25 48.3333C23.0275 48.3333 23.0093 48.3312 22.7557 48.0776C22.5457 47.8677 22.5 47.7188 22.5 47.2443V46.6667H25H27.5V47.2443Z" fill="#1F31CF"/>
</svg>
