<svg width="90" height="116" viewBox="0 0 90 116" fill="none" xmlns="http://www.w3.org/2000/svg">
<g filter="url(#filter0_d_808_73)">
<path d="M45 4L77.8369 19.8134L85.947 55.3459L63.2231 83.8407H26.7769L4.05303 55.3459L12.1631 19.8134L45 4Z" fill="white"/>
</g>
<path d="M12.1076 101.091V112H10.4617V101.091H12.1076ZM15.9695 107.142V112H14.3768V103.818H15.9056V105.15H16.0068C16.195 104.717 16.4897 104.369 16.891 104.106C17.2959 103.843 17.8054 103.712 18.4198 103.712C18.9773 103.712 19.4656 103.829 19.8846 104.063C20.3037 104.294 20.6286 104.638 20.8594 105.097C21.0902 105.555 21.2057 106.121 21.2057 106.796V112H19.613V106.988C19.613 106.395 19.4585 105.931 19.1495 105.597C18.8406 105.26 18.4162 105.091 17.8765 105.091C17.5071 105.091 17.1787 105.171 16.891 105.331C16.6069 105.491 16.3814 105.725 16.2145 106.034C16.0512 106.339 15.9695 106.709 15.9695 107.142ZM29.4727 105.816L28.0292 106.071C27.9688 105.887 27.8729 105.711 27.7415 105.544C27.6137 105.377 27.4397 105.24 27.2195 105.134C26.9993 105.027 26.7241 104.974 26.3939 104.974C25.9429 104.974 25.5665 105.075 25.2646 105.278C24.9628 105.477 24.8118 105.734 24.8118 106.05C24.8118 106.324 24.913 106.544 25.1155 106.711C25.3179 106.877 25.6446 107.014 26.0956 107.121L27.3953 107.419C28.1481 107.593 28.7092 107.861 29.0785 108.223C29.4478 108.586 29.6325 109.056 29.6325 109.635C29.6325 110.125 29.4905 110.562 29.2064 110.945C28.9258 111.325 28.5334 111.624 28.0292 111.84C27.5285 112.057 26.9478 112.165 26.2873 112.165C25.3711 112.165 24.6236 111.97 24.0448 111.579C23.466 111.185 23.1108 110.626 22.9794 109.901L24.5189 109.667C24.6147 110.068 24.8118 110.372 25.1101 110.578C25.4084 110.78 25.7973 110.881 26.2767 110.881C26.7987 110.881 27.216 110.773 27.5285 110.556C27.841 110.336 27.9972 110.068 27.9972 109.752C27.9972 109.496 27.9013 109.282 27.7096 109.108C27.5214 108.934 27.2319 108.802 26.8413 108.713L25.4564 108.41C24.6929 108.236 24.1282 107.959 23.7625 107.579C23.4003 107.199 23.2191 106.718 23.2191 106.135C23.2191 105.652 23.3541 105.23 23.624 104.868C23.8939 104.505 24.2667 104.223 24.7426 104.021C25.2184 103.815 25.7635 103.712 26.3779 103.712C27.2621 103.712 27.9581 103.903 28.466 104.287C28.9738 104.667 29.3093 105.176 29.4727 105.816ZM36.5665 108.607V103.818H38.1646V112H36.5985V110.583H36.5133C36.3251 111.02 36.0232 111.384 35.6077 111.675C35.1958 111.963 34.6827 112.107 34.0683 112.107C33.5427 112.107 33.0775 111.991 32.6727 111.76C32.2714 111.526 31.9554 111.18 31.7246 110.722C31.4973 110.263 31.3837 109.697 31.3837 109.022V103.818H32.9763V108.831C32.9763 109.388 33.1308 109.832 33.4398 110.162C33.7487 110.493 34.15 110.658 34.6436 110.658C34.9419 110.658 35.2384 110.583 35.5332 110.434C35.8315 110.285 36.0783 110.059 36.2736 109.757C36.4724 109.456 36.5701 109.072 36.5665 108.607ZM40.3046 112V103.818H41.844V105.118H41.9292C42.0783 104.678 42.3411 104.331 42.7176 104.079C43.0975 103.824 43.5272 103.696 44.0066 103.696C44.106 103.696 44.2232 103.699 44.3582 103.706C44.4967 103.713 44.605 103.722 44.6831 103.733V105.256C44.6192 105.239 44.5055 105.219 44.3422 105.198C44.1788 105.173 44.0155 105.161 43.8521 105.161C43.4757 105.161 43.1401 105.24 42.8454 105.4C42.5542 105.556 42.3234 105.775 42.1529 106.055C41.9825 106.332 41.8972 106.648 41.8972 107.004V112H40.3046ZM48.3692 112.181C47.8507 112.181 47.382 112.085 46.9629 111.893C46.5439 111.698 46.2119 111.416 45.9668 111.047C45.7254 110.677 45.6046 110.224 45.6046 109.688C45.6046 109.227 45.6934 108.847 45.871 108.548C46.0485 108.25 46.2882 108.014 46.5901 107.84C46.8919 107.666 47.2293 107.534 47.6021 107.446C47.975 107.357 48.355 107.289 48.7421 107.243C49.2321 107.186 49.6298 107.14 49.9352 107.105C50.2406 107.066 50.4626 107.004 50.6011 106.918C50.7396 106.833 50.8088 106.695 50.8088 106.503V106.466C50.8088 106 50.6774 105.64 50.4146 105.384C50.1554 105.129 49.7683 105.001 49.2534 105.001C48.7172 105.001 48.2946 105.12 47.9857 105.358C47.6803 105.592 47.469 105.853 47.3518 106.141L45.855 105.8C46.0325 105.303 46.2918 104.901 46.6327 104.596C46.9771 104.287 47.3731 104.063 47.8205 103.925C48.268 103.783 48.7385 103.712 49.2321 103.712C49.5588 103.712 49.9051 103.751 50.2708 103.829C50.6401 103.903 50.9846 104.042 51.3042 104.244C51.6274 104.447 51.8919 104.736 52.0979 105.113C52.3038 105.485 52.4068 105.97 52.4068 106.567V112H50.8514V110.881H50.7875C50.6845 111.087 50.5301 111.29 50.3241 111.489C50.1181 111.687 49.8536 111.853 49.5304 111.984C49.2073 112.115 48.8202 112.181 48.3692 112.181ZM48.7154 110.903C49.1558 110.903 49.5322 110.816 49.8447 110.642C50.1607 110.468 50.4004 110.24 50.5638 109.96C50.7307 109.676 50.8141 109.372 50.8141 109.049V107.994C50.7573 108.051 50.6472 108.104 50.4839 108.154C50.3241 108.2 50.1412 108.241 49.9352 108.277C49.7293 108.309 49.5286 108.339 49.3333 108.367C49.138 108.392 48.9747 108.413 48.8433 108.431C48.5343 108.47 48.252 108.536 47.9963 108.628C47.7442 108.721 47.5418 108.854 47.3891 109.028C47.2399 109.198 47.1653 109.425 47.1653 109.71C47.1653 110.104 47.3109 110.402 47.6021 110.604C47.8933 110.803 48.2644 110.903 48.7154 110.903ZM56.1209 107.142V112H54.5282V103.818H56.057V105.15H56.1582C56.3464 104.717 56.6411 104.369 57.0424 104.106C57.4472 103.843 57.9568 103.712 58.5712 103.712C59.1287 103.712 59.617 103.829 60.036 104.063C60.455 104.294 60.78 104.638 61.0108 105.097C61.2416 105.555 61.357 106.121 61.357 106.796V112H59.7643V106.988C59.7643 106.395 59.6099 105.931 59.3009 105.597C58.992 105.26 58.5676 105.091 58.0278 105.091C57.6585 105.091 57.33 105.171 57.0424 105.331C56.7583 105.491 56.5328 105.725 56.3659 106.034C56.2025 106.339 56.1209 106.709 56.1209 107.142ZM66.9394 112.165C66.1475 112.165 65.4657 111.986 64.894 111.627C64.3258 111.265 63.889 110.766 63.5836 110.13C63.2782 109.495 63.1255 108.767 63.1255 107.946C63.1255 107.115 63.2817 106.382 63.5942 105.746C63.9067 105.107 64.3471 104.608 64.9153 104.25C65.4834 103.891 66.1528 103.712 66.9234 103.712C67.5449 103.712 68.0989 103.827 68.5854 104.058C69.0719 104.285 69.4643 104.605 69.7626 105.017C70.0644 105.429 70.2437 105.91 70.3006 106.46H68.7505C68.6653 106.077 68.4699 105.746 68.1646 105.469C67.8627 105.192 67.4579 105.054 66.9501 105.054C66.5062 105.054 66.1173 105.171 65.7835 105.406C65.4533 105.636 65.1958 105.967 65.0111 106.396C64.8265 106.822 64.7342 107.327 64.7342 107.909C64.7342 108.506 64.8247 109.021 65.0058 109.454C65.1869 109.887 65.4426 110.223 65.7729 110.461C66.1067 110.699 66.4991 110.817 66.9501 110.817C67.2519 110.817 67.5253 110.762 67.7704 110.652C68.019 110.539 68.2267 110.377 68.3936 110.168C68.5641 109.958 68.683 109.706 68.7505 109.411H70.3006C70.2437 109.94 70.0715 110.413 69.7839 110.828C69.4962 111.244 69.1109 111.57 68.628 111.808C68.1486 112.046 67.5857 112.165 66.9394 112.165ZM75.5301 112.165C74.7239 112.165 74.0297 111.993 73.4473 111.648C72.8685 111.3 72.421 110.812 72.105 110.184C71.7925 109.551 71.6362 108.811 71.6362 107.962C71.6362 107.124 71.7925 106.386 72.105 105.746C72.421 105.107 72.8614 104.608 73.426 104.25C73.9942 103.891 74.6582 103.712 75.4182 103.712C75.8798 103.712 76.3273 103.788 76.7605 103.941C77.1938 104.093 77.5826 104.333 77.9271 104.66C78.2715 104.987 78.5432 105.411 78.7421 105.933C78.9409 106.451 79.0404 107.082 79.0404 107.824V108.388H72.5364V107.195H77.4796C77.4796 106.776 77.3944 106.405 77.2239 106.082C77.0535 105.755 76.8138 105.498 76.5048 105.31C76.1994 105.121 75.8408 105.027 75.4288 105.027C74.9814 105.027 74.5908 105.137 74.257 105.358C73.9267 105.574 73.671 105.858 73.4899 106.21C73.3124 106.558 73.2236 106.936 73.2236 107.344V108.277C73.2236 108.824 73.3195 109.289 73.5112 109.672C73.7065 110.056 73.9782 110.349 74.3262 110.551C74.6742 110.75 75.0808 110.849 75.546 110.849C75.8479 110.849 76.1231 110.807 76.3717 110.722C76.6203 110.633 76.8351 110.501 77.0162 110.327C77.1973 110.153 77.3358 109.939 77.4317 109.683L78.9391 109.955C78.8184 110.398 78.6018 110.787 78.2893 111.121C77.9803 111.451 77.5915 111.709 77.1227 111.893C76.6575 112.075 76.1266 112.165 75.5301 112.165Z" fill="black"/>
<path fill-rule="evenodd" clip-rule="evenodd" d="M30.5593 22.1123C30.1192 22.3443 30.0261 22.5734 30.0237 23.4291L30.0216 24.2454L26.0374 24.2728C22.1167 24.2997 22.0466 24.3035 21.6404 24.5116C20.993 24.8434 20.5685 25.2525 20.2728 25.8298L20 26.3625V47.1266V67.8908L20.2059 68.3174C20.5068 68.9411 20.9661 69.3953 21.5954 69.6916L22.151 69.9531L26.6436 69.9802C31.3645 70.0086 31.5389 69.9956 31.8342 69.5913C32 69.3643 32.0217 68.849 31.8763 68.5887C31.6247 68.1379 31.489 68.1251 26.9418 68.1251C22.3181 68.1251 22.2645 68.1195 22.0234 67.6122C21.9339 67.424 21.9065 62.617 21.9065 47.1175C21.9065 25.0876 21.8707 26.4895 22.4415 26.2401C22.6257 26.1596 23.7289 26.1281 26.3597 26.1281H30.0216V26.8484C30.0216 27.9812 30.538 28.7501 31.4805 29.0209C32.0057 29.1718 44.6585 29.1718 45.1837 29.0209C46.1263 28.7501 46.6427 27.9812 46.6427 26.8484V26.1281H50.314C54.3225 26.1281 54.4225 26.1405 54.6476 26.6627C54.7277 26.8485 54.7531 27.9057 54.7347 30.29L54.7088 33.6549L52.2645 34.3892L49.8203 35.1234L43.8731 35.1254L37.926 35.1275L37.6402 35.4015C37.3351 35.6941 37.2558 36.1816 37.4551 36.5388C37.7051 36.9869 37.8619 37.0023 42.1403 37.0023H46.1538V41.1739V45.3455H42.0399H37.926L37.6402 45.6195C37.3351 45.9121 37.2558 46.3996 37.4551 46.7568C37.7053 47.2052 37.8596 47.2204 42.1696 47.2204H46.2122L46.3894 48.1344C46.9323 50.9355 48.2806 53.3862 50.4038 55.4302C51.5828 56.5654 52.4664 57.2039 53.8533 57.923L54.7577 58.392V60.2988V62.2055L52.7778 62.2358C50.8394 62.2655 50.7863 62.2716 50.2424 62.5277C49.6131 62.824 49.1538 63.2782 48.8529 63.9019C48.6692 64.2826 48.6436 64.5329 48.6153 66.2268L48.5837 68.1251H44.0461H39.5085L39.1914 68.3968C38.929 68.6216 38.8743 68.7363 38.8743 69.0626C38.8743 69.3888 38.929 69.5035 39.1914 69.7283L39.5085 70H44.6447C48.9179 70 49.8254 69.9774 50.0451 69.8656C50.3632 69.7036 56.4513 63.8529 56.6051 63.5613C56.6747 63.4293 56.7131 62.5842 56.7131 61.1843C56.7131 59.3617 56.7351 59.02 56.8499 59.0623C56.9251 59.09 57.2457 59.1615 57.5623 59.2212C58.0624 59.3155 58.2495 59.3044 58.9872 59.1365C64.3513 57.9149 68.5326 53.7225 69.7401 48.3549C69.9282 47.5182 69.9454 47.0786 69.9829 42.1225C70.0261 36.3958 70.0233 36.3592 69.5318 36.1188C69.1902 35.9517 58.3098 32.6898 58.0999 32.6916C58.0094 32.6923 57.6713 32.772 57.3486 32.8686L56.762 33.0442L56.7131 29.7033L56.6642 26.3625L56.3894 25.8259C56.0595 25.1818 55.4978 24.6968 54.7863 24.4415C54.2938 24.2649 54.0272 24.2533 50.4521 24.2533H46.6427L46.6405 23.433C46.6382 22.5631 46.5412 22.3309 46.087 22.1081C45.7876 21.9613 30.838 21.9653 30.5593 22.1123ZM44.6873 25.5657V27.253H38.3321H31.977V25.5657V23.8783H38.3321H44.6873V25.5657ZM63.1478 36.1268L68.067 37.5979L68.028 42.4794C67.9857 47.7718 67.9804 47.8291 67.3729 49.5569C66.3355 52.5071 63.8522 55.1712 60.9063 56.4944C59.8395 56.9736 58.6229 57.3554 58.1304 57.3656C57.2109 57.3846 54.5563 56.2957 53.2423 55.3604C51.2158 53.9181 49.5382 51.7098 48.7531 49.4511C48.1836 47.8126 48.1777 47.7467 48.1358 42.4802L48.0968 37.5995L52.9672 36.1355C55.6459 35.3303 57.9255 34.668 58.033 34.6636C58.1406 34.6592 60.4422 35.3177 63.1478 36.1268ZM32.9058 35.4227C32.7983 35.4787 31.931 36.2664 30.9785 37.173L29.2469 38.8212L28.5683 38.193C28.0236 37.6888 27.8288 37.5648 27.582 37.5648C26.9031 37.5648 26.4123 38.0856 26.545 38.665C26.5849 38.8392 27.0008 39.3108 27.7269 40.0049C29.3516 41.5584 29.0438 41.6423 31.9523 38.8535C34.228 36.6716 34.2702 36.6241 34.2702 36.2447C34.2702 35.5732 33.5031 35.1111 32.9058 35.4227ZM54.1846 37.7366C51.0152 38.6904 50.4999 38.8713 50.2915 39.1035L50.0514 39.3711L50.091 43.2724C50.1341 47.523 50.1446 47.6178 50.7505 49.2144C51.7929 51.9619 54.3176 54.3075 57.2441 55.2474C57.9598 55.4773 58.0579 55.4875 58.5152 55.3791C59.1917 55.2189 60.6899 54.5356 61.5084 54.0139C63.2514 52.9029 64.7669 50.9964 65.4928 49.0015C66.0281 47.5307 66.0992 46.8146 66.0992 42.8932V39.3489L65.8303 39.0739C65.598 38.8363 65.0664 38.6514 61.9175 37.7131C59.9133 37.116 58.1754 36.6296 58.0555 36.6323C57.9356 36.6351 56.1937 37.132 54.1846 37.7366ZM61.2106 39.4708L64.0949 40.3401L64.1208 43.2857C64.1495 46.5671 64.0675 47.3498 63.5649 48.5912C62.9208 50.1812 61.7463 51.5872 60.2884 52.513C59.4645 53.0364 58.4265 53.5012 58.0819 53.5012C57.7364 53.5012 56.6986 53.0358 55.8692 52.5091C54.4057 51.5796 53.1348 50.0375 52.5423 48.4727C52.0927 47.2848 52.0151 46.4794 52.0431 43.2876L52.069 40.3439L54.9533 39.4741C56.5396 38.9957 57.9475 38.6037 58.0819 38.6029C58.2164 38.6022 59.6243 38.9927 61.2106 39.4708ZM37.6402 39.5262C37.0841 40.0594 37.3682 40.9188 38.1502 41.0687C38.3175 41.1008 39.4277 41.127 40.6175 41.1269C42.4811 41.1268 42.8281 41.1041 43.1229 40.9628C43.7138 40.6798 43.823 39.949 43.3431 39.4888L43.0962 39.2522H40.5112H37.926L37.6402 39.5262ZM58.9916 44.8976L57.2005 46.6058L56.3458 45.793C55.3324 44.8294 55.0791 44.708 54.5758 44.9449C54.1199 45.1595 53.9273 45.4915 54.0108 45.9186C54.062 46.1797 54.3497 46.5073 55.4264 47.5302C57.3446 49.3527 56.9996 49.4201 59.8864 46.6596L62.1394 44.5052V44.0735C62.1394 43.5103 61.7936 43.1894 61.1868 43.1894C60.7934 43.1894 60.7348 43.2351 58.9916 44.8976ZM32.9058 45.6407C32.7983 45.6968 31.931 46.4844 30.9785 47.391L29.2469 49.0392L28.5683 48.411C28.0236 47.9069 27.8288 47.7828 27.582 47.7828C26.9031 47.7828 26.4123 48.3036 26.545 48.883C26.5849 49.0573 27.0008 49.5288 27.7269 50.2229C29.3516 51.7764 29.0438 51.8603 31.9523 49.0715C34.228 46.8896 34.2702 46.8421 34.2702 46.4627C34.2702 45.7913 33.5031 45.3291 32.9058 45.6407ZM37.6402 49.7442C37.0841 50.2774 37.3682 51.1368 38.1502 51.2868C38.3175 51.3188 39.4622 51.3451 40.694 51.3451C43.2031 51.3451 43.4831 51.293 43.7626 50.7747C43.8988 50.5222 43.9077 50.4108 43.8151 50.1146C43.6152 49.4745 43.5936 49.4702 40.6005 49.4702H37.926L37.6402 49.7442ZM37.6402 55.8375C37.3351 56.1301 37.2558 56.6177 37.4551 56.9748C37.7083 57.4285 37.8192 57.4384 42.6829 57.4384C46.5555 57.4384 47.2819 57.4171 47.5246 57.2968C48.1231 57 48.2257 56.2523 47.7264 55.8245L47.4217 55.5635H42.6739H37.926L37.6402 55.8375ZM32.9058 55.854C32.7983 55.9127 31.931 56.7024 30.9785 57.609L29.2469 59.2572L28.5683 58.629C28.0236 58.1249 27.8288 58.0009 27.582 58.0009C26.9031 58.0009 26.4123 58.5216 26.545 59.101C26.6238 59.4451 28.6921 61.4334 29.06 61.5189C29.2192 61.5559 29.4494 61.5208 29.6515 61.4289C30.0847 61.2317 34.0834 57.3791 34.2235 57.0237C34.3629 56.6702 34.2741 56.296 33.9903 56.0403C33.7218 55.7985 33.1785 55.7052 32.9058 55.854ZM37.6402 59.9622C37.0816 60.4978 37.3708 61.3776 38.1504 61.5148C38.331 61.5466 40.0333 61.5599 41.9333 61.5444L45.3879 61.5162L45.6731 61.2101C46.0628 60.7917 46.0626 60.3363 45.6725 59.9622L45.3867 59.6882H41.6563H37.926L37.6402 59.9622ZM51.97 65.4083L50.6024 66.7223L50.5742 65.8114C50.5268 64.284 50.7097 64.1038 52.3122 64.0979L53.3374 64.0942L51.97 65.4083ZM34.7917 68.3968C34.5293 68.6216 34.4746 68.7363 34.4746 69.0626C34.4746 69.3888 34.5293 69.5035 34.7917 69.7283C35.1455 70.0314 35.4646 70.0692 35.8898 69.8584C36.2342 69.6876 36.3767 69.4548 36.3767 69.0626C36.3767 68.6703 36.2342 68.4375 35.8898 68.2667C35.4646 68.056 35.1455 68.0937 34.7917 68.3968Z" fill="#9C07F8"/>
<defs>
<filter id="filter0_d_808_73" x="0.0546875" y="0" width="89.8906" height="87.8408" filterUnits="userSpaceOnUse" color-interpolation-filters="sRGB">
<feFlood flood-opacity="0" result="BackgroundImageFix"/>
<feColorMatrix in="SourceAlpha" type="matrix" values="0 0 0 0 0 0 0 0 0 0 0 0 0 0 0 0 0 0 127 0" result="hardAlpha"/>
<feOffset/>
<feGaussianBlur stdDeviation="2"/>
<feComposite in2="hardAlpha" operator="out"/>
<feColorMatrix type="matrix" values="0 0 0 0 0 0 0 0 0 0 0 0 0 0 0 0 0 0 0.25 0"/>
<feBlend mode="normal" in2="BackgroundImageFix" result="effect1_dropShadow_808_73"/>
<feBlend mode="normal" in="SourceGraphic" in2="effect1_dropShadow_808_73" result="shape"/>
</filter>
</defs>
</svg>
