<svg width="50" height="50" viewBox="0 0 50 50" fill="none" xmlns="http://www.w3.org/2000/svg">
<path fill-rule="evenodd" clip-rule="evenodd" d="M22.6284 0.0598579C16.7889 0.659273 11.475 3.1766 7.34424 7.30049C-2.44808 17.0764 -2.44808 32.9357 7.34424 42.7116C11.3196 46.6803 16.1526 49.0525 21.9439 49.8775C23.1054 50.0429 26.9467 50.0402 28.1528 49.8731C33.8276 49.0869 38.7805 46.647 42.7166 42.6986C46.6727 38.73 49.0548 33.8696 49.8772 28.0882C50.0409 26.9372 50.0409 23.0749 49.8772 21.9238C49.0528 16.1279 46.6696 11.2657 42.7119 7.30519C38.837 3.42738 34.0012 1.0079 28.495 0.19205C27.2993 0.0148479 23.8287 -0.0633324 22.6284 0.0598579ZM28.2016 4.11193C34.1311 5.03894 39.3298 8.36576 42.6278 13.3438C46.531 19.2356 47.223 26.7997 44.4501 33.2642C41.5244 40.0846 35.4878 44.7579 28.1039 45.9185C26.6468 46.1475 23.3378 46.1454 21.9047 45.9143C12.5917 44.4136 5.58094 37.3836 4.1273 28.0882C3.89547 26.6059 3.89547 23.4061 4.1273 21.9238C5.06556 15.9243 8.32396 10.7729 13.2822 7.45049C16.2321 5.47377 19.4825 4.33336 23.3128 3.93111C24.1082 3.84754 27.2549 3.96398 28.2016 4.11193ZM19.0106 18.0042C18.5493 18.2139 7.75432 29.0918 7.57421 29.5284C7.0559 30.7846 7.99583 32.1489 9.37966 32.1489C9.68022 32.1489 10.0195 32.0743 10.2391 31.9598C10.4386 31.8558 12.6694 29.6985 15.1965 27.1657L19.7911 22.5608L24.4364 27.2039C27.6207 30.3867 29.1959 31.8945 29.4452 31.9979C29.8649 32.1723 30.5595 32.1946 30.9575 32.0466C31.1088 31.9902 32.9156 30.2622 34.9727 28.2064L38.7126 24.4689V26.0126C38.7126 27.6964 38.7905 28.046 39.28 28.5617C39.6782 28.9812 40.0718 29.1472 40.6682 29.1472C41.4942 29.1472 42.1442 28.705 42.4718 27.9201C42.6982 27.3779 42.6987 19.6019 42.4723 19.06C42.2797 18.5987 41.9863 18.2847 41.5276 18.0494C41.1875 17.8748 40.9008 17.8632 36.9526 17.8632C33.0045 17.8632 32.7177 17.8748 32.3777 18.0494C31.1805 18.6637 30.9248 20.1516 31.849 21.1253C32.3613 21.665 32.5688 21.7186 34.3017 21.7597L35.9041 21.7977L33.0805 24.6246L30.2569 27.4515L25.6115 22.8083C22.4273 19.6254 20.8519 18.1176 20.6026 18.0141C20.1578 17.8294 19.4055 17.8247 19.0106 18.0042Z" fill="#E9AE3C"/>
</svg>
