<svg width="39" height="38" viewBox="0 0 39 38" fill="none" xmlns="http://www.w3.org/2000/svg">
<path fill-rule="evenodd" clip-rule="evenodd" d="M25.1546 0.0990975C25.0031 0.145603 24.701 0.357596 24.4831 0.570126C23.9262 1.11371 23.764 1.72816 24.0046 2.38383L24.1066 2.66179L22.457 4.45244C21.5497 5.43732 20.7677 6.2273 20.719 6.20792C20.6704 6.18861 20.3931 6.16999 20.1029 6.16655L19.5752 6.16026L19.0531 5.4862C18.725 5.0626 18.5463 4.7648 18.5725 4.68481C18.5953 4.61486 18.6678 4.41965 18.7337 4.25109C18.9963 3.57903 18.8425 2.96435 18.2729 2.40973C17.7169 1.86829 17.1288 1.71866 16.3911 1.93089C15.9589 2.05523 15.3072 2.68991 15.1795 3.11076C15.0512 3.53382 15.0589 3.81378 15.2121 4.2753L15.3402 4.6619L14.0199 6.08832C13.0431 7.14369 12.6669 7.50156 12.5738 7.46417C12.2964 7.35278 11.759 7.3396 11.4056 7.4356C10.9248 7.56615 10.2817 8.17355 10.1441 8.62704C9.92616 9.34538 10.0798 9.91808 10.6358 10.4595C11.4318 11.2346 12.4416 11.2346 13.2376 10.4595C13.7947 9.917 13.9567 9.30255 13.7159 8.64619L13.6137 8.36777L14.9421 6.92235L16.2705 5.47693H16.8711H17.4716L18.0143 6.19229L18.557 6.90764L18.4201 7.18828C17.8329 8.39129 18.7501 9.80231 20.1192 9.80231C21.4182 9.80231 22.3526 8.50361 21.8805 7.35446L21.7534 7.0454L22.0575 6.7207C22.2247 6.54219 22.9599 5.748 23.6913 4.95595C24.6757 3.88978 25.0537 3.52892 25.1469 3.56631C25.4243 3.67771 25.9617 3.69089 26.3151 3.59489C26.7959 3.46433 27.439 2.85693 27.5766 2.40345C27.7945 1.6851 27.6409 1.11241 27.0849 0.570969C26.5312 0.0319061 25.8868 -0.125614 25.1546 0.0990975ZM32.865 0.117485C30.8597 0.5345 29.2062 2.32331 28.9723 4.32871C28.93 4.69117 24.1569 19.4528 23.9984 19.7112C23.978 19.7444 23.7916 19.5362 23.5841 19.2484C22.7083 18.0341 21.3266 17.2881 19.7651 17.1865C17.796 17.0584 15.853 18.1757 14.9708 19.9433L14.71 20.4658L12.3911 17.1852L10.072 13.9046L9.97879 13.3374C9.62907 11.2093 7.86291 9.55124 5.63491 9.25926C3.29086 8.95204 0.961916 10.3932 0.248543 12.5922C-0.600312 15.2087 0.784576 17.847 3.49652 18.7796C4.14444 19.0024 5.43892 19.0589 6.11453 18.8938C7.57369 18.5373 8.85142 17.5671 9.47919 16.339L9.8013 15.7088L10.1474 16.1858C10.3377 16.4481 11.3846 17.9256 12.4739 19.469C13.9226 21.5217 14.4548 22.3343 14.4557 22.4953C14.4587 22.9714 14.7033 23.8189 15.016 24.4365C15.8268 26.0383 17.631 27.1207 19.4898 27.1207C21.3485 27.1207 23.1528 26.0383 23.9636 24.4365C24.2877 23.7963 24.5211 22.9681 24.5238 22.4486C24.5248 22.2422 29.3104 7.50899 29.4582 7.25708C29.4771 7.22491 29.676 7.44763 29.9003 7.75217C30.6152 8.72304 31.7069 9.42123 32.9198 9.68333C35.5404 10.2496 38.1721 8.65033 38.8467 6.0815C39.6506 3.02073 37.1868 -0.021801 33.9272 0.00639331C33.6243 0.00899822 33.1463 0.0590278 32.865 0.117485ZM26.2203 1.41289C26.6106 1.7929 26.334 2.45064 25.784 2.45064C25.4606 2.45064 25.1546 2.15269 25.1546 1.83772C25.1546 1.52276 25.4606 1.2248 25.784 1.2248C25.9373 1.2248 26.0986 1.29429 26.2203 1.41289ZM34.868 1.3421C36.8829 1.8532 38.1352 3.86342 37.6256 5.76861C37.511 6.19727 37.2333 6.79387 37.0192 7.07122C36.9186 7.20154 36.8803 7.18897 36.3784 6.86121C34.9382 5.92077 32.9947 5.92077 31.5545 6.86121C30.9491 7.25655 30.983 7.26712 30.6158 6.57C29.876 5.16595 30.1289 3.52724 31.2644 2.36805C32.1997 1.4132 33.5889 1.01771 34.868 1.3421ZM33.3371 1.93786C32.9509 2.05638 32.2923 2.72048 32.1739 3.11076C31.956 3.8291 32.1096 4.4018 32.6656 4.94323C33.4616 5.71835 34.4714 5.71835 35.2674 4.94323C36.0362 4.19455 36.0592 3.24215 35.3275 2.44972C34.8183 1.89825 34.0827 1.70901 33.3371 1.93786ZM17.4083 3.25165C17.7987 3.63166 17.5221 4.2894 16.9721 4.2894C16.6486 4.2894 16.3427 3.99145 16.3427 3.67648C16.3427 3.36152 16.6486 3.06356 16.9721 3.06356C17.1253 3.06356 17.2866 3.13305 17.4083 3.25165ZM34.4028 3.25165C34.7931 3.63166 34.5165 4.2894 33.9665 4.2894C33.6431 4.2894 33.3371 3.99145 33.3371 3.67648C33.3371 3.36152 33.6431 3.06356 33.9665 3.06356C34.1198 3.06356 34.2811 3.13305 34.4028 3.25165ZM20.5555 7.54209C20.9458 7.9221 20.6692 8.57984 20.1192 8.57984C19.7957 8.57984 19.4898 8.28189 19.4898 7.96692C19.4898 7.65196 19.7957 7.354 20.1192 7.354C20.2725 7.354 20.4337 7.42349 20.5555 7.54209ZM35.3674 7.70291C36.0434 8.02821 36.038 8.05403 35.2301 8.36501C34.6039 8.60604 33.3291 8.60604 32.7029 8.36501C31.928 8.06675 31.9141 8.03266 32.4535 7.75263C33.0829 7.42594 33.4181 7.35423 34.1541 7.38855C34.6768 7.41299 34.8679 7.46249 35.3674 7.70291ZM12.373 8.76793C12.4948 8.88646 12.5661 9.04352 12.5661 9.19276C12.5661 9.34201 12.4948 9.49907 12.373 9.61759C12.2512 9.73619 12.09 9.80568 11.9367 9.80568C11.7834 9.80568 11.6221 9.73619 11.5004 9.61759C11.3786 9.49907 11.3073 9.34201 11.3073 9.19276C11.3073 9.04352 11.3786 8.88646 11.5004 8.76793C11.6221 8.64933 11.7834 8.57984 11.9367 8.57984C12.09 8.57984 12.2512 8.64933 12.373 8.76793ZM5.91453 10.5359C7.92947 11.047 9.18179 13.0572 8.67219 14.9624C8.55756 15.3911 8.27982 15.9877 8.06574 16.265C7.96519 16.3953 7.92687 16.3828 7.42499 16.055C5.98479 15.1146 4.04129 15.1146 2.60109 16.055C1.99566 16.4503 2.02957 16.4609 1.66231 15.7638C0.922498 14.3598 1.17545 12.721 2.31093 11.5619C3.24625 10.607 4.63546 10.2115 5.91453 10.5359ZM4.38362 11.1317C3.99747 11.2502 3.33885 11.9143 3.22044 12.3046C3.00251 13.0229 3.15616 13.5956 3.71218 14.137C4.50816 14.9121 5.51792 14.9121 6.3139 14.137C7.08274 13.3884 7.10571 12.436 6.37409 11.6435C5.86488 11.092 5.12925 10.9028 4.38362 11.1317ZM31.0125 11.2196L30.8194 11.4076V24.0909V36.7742H26.7281H22.6369V32.6718V28.5694L22.4437 28.3814L22.2507 28.1933H19.4898H16.7289L16.5358 28.3814L16.3427 28.5694V32.6718V36.7742H12.2514H8.16015V28.6878V20.6014L7.967 20.4134L7.77393 20.2253H5.01304H2.25215L2.05908 20.4134L1.86592 20.6014V28.6878V36.7742H1.2365H0.607078V37.3871V38H19.4898H38.3725V37.3871V36.7742H37.743H37.1136V24.0909V11.4076L36.9205 11.2196L36.7274 11.0315H33.9665H31.2056L31.0125 11.2196ZM5.44931 12.4455C5.5711 12.564 5.64246 12.721 5.64246 12.8703C5.64246 13.0195 5.5711 13.1766 5.44931 13.2951C5.32759 13.4137 5.1663 13.4832 5.01304 13.4832C4.85978 13.4832 4.69849 13.4137 4.57677 13.2951C4.45498 13.1766 4.38362 13.0195 4.38362 12.8703C4.38362 12.721 4.45498 12.564 4.57677 12.4455C4.69849 12.3269 4.85978 12.2574 5.01304 12.2574C5.1663 12.2574 5.32759 12.3269 5.44931 12.4455ZM35.8548 24.5158V36.7742H33.9665H32.0782V24.5158V12.2574H33.9665H35.8548V24.5158ZM6.4139 16.8967C7.0899 17.222 7.08455 17.2478 6.27661 17.5588C5.65049 17.7998 4.37559 17.7998 3.74947 17.5588C2.9745 17.2606 2.96065 17.2265 3.50006 16.9464C4.12949 16.6197 4.46465 16.548 5.20069 16.5824C5.72334 16.6068 5.91445 16.6563 6.4139 16.8967ZM20.3913 18.5039C22.4062 19.015 23.6585 21.0252 23.1489 22.9304C23.0343 23.359 22.7566 23.9556 22.5425 24.233C22.4419 24.3633 22.4036 24.3507 21.9017 24.023C20.4615 23.0825 18.518 23.0825 17.0778 24.023C16.4724 24.4183 16.5063 24.4289 16.139 23.7318C15.3992 22.3277 15.6522 20.689 16.7877 19.5298C17.723 18.575 19.1122 18.1795 20.3913 18.5039ZM18.8603 19.0996C18.4742 19.2181 17.8156 19.8822 17.6972 20.2725C17.4792 20.9909 17.6329 21.5636 18.1889 22.105C18.5964 22.5018 18.9949 22.677 19.4898 22.677C19.9847 22.677 20.3832 22.5018 20.7906 22.105C21.5595 21.3563 21.5824 20.4039 20.8508 19.6115C20.3416 19.06 19.606 18.8708 18.8603 19.0996ZM19.926 20.4134C20.0478 20.5319 20.1192 20.689 20.1192 20.8382C20.1192 20.9875 20.0478 21.1445 19.926 21.2631C19.5358 21.6432 18.8603 21.3739 18.8603 20.8382C18.8603 20.5233 19.1663 20.2253 19.4898 20.2253C19.643 20.2253 19.8043 20.2948 19.926 20.4134ZM6.90131 29.1127V36.7742H5.01304H3.12477V29.1127V21.4512H5.01304H6.90131V29.1127ZM20.8906 24.8647C21.5666 25.19 21.5613 25.2158 20.7533 25.5268C20.1272 25.7678 18.8523 25.7678 18.2262 25.5268C17.4512 25.2285 17.4374 25.1944 17.9768 24.9144C18.6062 24.5877 18.9414 24.516 19.6774 24.5503C20.2001 24.5748 20.3912 24.6242 20.8906 24.8647ZM21.378 33.0966V36.7742H19.4898H17.6015V33.0966V29.4191H19.4898H21.378V33.0966Z" fill="#0693E3"/>
</svg>
