<svg width="40" height="26" viewBox="0 0 40 26" fill="none" xmlns="http://www.w3.org/2000/svg">
<path d="M20.2898 2.25353C20.233 2.08811 20.1446 1.93629 20.03 1.80717C19.9154 1.67805 19.7768 1.5743 19.6226 1.50212C16.2018 -0.0984186 9.26431 -1.53049 5.75259 3.41097L1.87161 1.36397C1.72365 1.27815 1.56064 1.22425 1.39211 1.20551C1.22358 1.18676 1.05313 1.20355 0.891009 1.25489C0.728891 1.30623 0.578312 1.39106 0.448561 1.50425C0.318811 1.61745 0.212505 1.75669 0.135896 1.91362C0.0592863 2.07056 0.0139476 2.24192 0.00274523 2.41747C-0.00845719 2.59301 0.0147093 2.76909 0.0707074 2.93514C0.126706 3.10119 0.214453 3.2538 0.328686 3.38377C0.44292 3.51374 0.58129 3.61841 0.735469 3.69149L4.57107 5.71322C2.40252 11.8306 7.76461 17.179 11.0742 19.231C11.223 19.3233 11.3887 19.3827 11.5607 19.4055C11.7326 19.4283 11.9071 19.4139 12.0735 19.3633C12.2398 19.3126 12.3945 19.2269 12.5274 19.1113C12.6603 18.9958 12.7688 18.853 12.846 18.6919L20.2386 3.27618C20.3132 3.11811 20.3561 2.94603 20.3649 2.77028C20.3736 2.59453 20.3481 2.41876 20.2898 2.25353ZM11.2341 16.1782C9.13133 14.5196 5.01 10.5089 7.20615 5.92888C8.45436 3.32505 10.7349 2.5829 12.9302 2.5829C14.4392 2.61602 15.9342 2.89196 17.3616 3.40086L11.2341 16.1782Z" fill="#FFC603"/>
<path d="M39.2609 22.6689L35.564 20.7188C38.3347 14.3284 32.5766 8.93461 29.0762 6.9491C28.9277 6.86483 28.7644 6.81254 28.596 6.79534C28.4275 6.77814 28.2575 6.79637 28.096 6.84899C27.9346 6.90161 27.7849 6.98751 27.6562 7.10154C27.5274 7.21558 27.4221 7.35541 27.3467 7.51266L25.9102 10.5082L22.7118 8.82342C22.5638 8.7376 22.4006 8.6837 22.2321 8.66495C22.0635 8.64621 21.8931 8.663 21.731 8.71434C21.5689 8.76568 21.4185 8.85051 21.2887 8.9637C21.159 9.0769 21.0527 9.21614 20.9761 9.37307C20.8995 9.53001 20.8541 9.70137 20.8429 9.87692C20.8317 10.0525 20.8549 10.2285 20.9109 10.3946C20.9669 10.5606 21.0546 10.7132 21.1689 10.8432C21.2831 10.9732 21.4215 11.0779 21.5756 11.1509L24.7934 12.8484L22.4879 17.6559L19.2893 15.9711C18.9938 15.831 18.6576 15.815 18.3511 15.9264C18.0445 16.0378 17.7915 16.2679 17.6447 16.5686C17.4979 16.8694 17.4687 17.2174 17.5635 17.5398C17.6583 17.8623 17.8696 18.1341 18.1532 18.2986L21.371 19.996L19.9614 22.9351C19.8842 23.0962 19.8399 23.272 19.8312 23.4516C19.8225 23.6313 19.8497 23.8109 19.9111 23.9791C19.9724 24.1473 20.0666 24.3006 20.1877 24.4293C20.3087 24.5579 20.4541 24.6593 20.6147 24.7269C22.6147 25.5486 24.7437 25.9801 26.8947 25.9997C29.5608 25.9997 32.3144 25.2416 34.2265 22.9427L38.1279 25.0007C38.2759 25.0865 38.4389 25.1404 38.6074 25.1591C38.7759 25.1779 38.9464 25.161 39.1085 25.1097C39.2706 25.0584 39.4212 24.9736 39.5509 24.8604C39.6807 24.7472 39.787 24.6079 39.8636 24.451C39.9402 24.2941 39.9856 24.1227 39.9968 23.9471C40.008 23.7716 39.9848 23.5955 39.9288 23.4295C39.8728 23.2634 39.7851 23.1108 39.6708 22.9809C39.5566 22.8509 39.4182 22.7462 39.264 22.6731L39.2609 22.6689ZM22.8497 22.7532L28.9772 9.97497C31.1019 11.5165 35.353 15.3283 33.1609 19.9008C30.9396 24.5323 25.3916 23.5113 22.8497 22.7532Z" fill="#FFC603"/>
</svg>
