<svg width="37" height="38" viewBox="0 0 37 38" fill="none" xmlns="http://www.w3.org/2000/svg">
<path fill-rule="evenodd" clip-rule="evenodd" d="M21.4519 0.0805034C16.6486 0.600293 12.3774 3.67159 10.2594 8.12881C7.91482 13.0627 8.47115 18.8845 11.7014 23.2199L12.1996 23.8886L11.0536 25.0627L9.90749 26.2368L9.44147 25.7777C9.18516 25.5252 8.88869 25.2847 8.7826 25.2433C8.50914 25.1366 8.11845 25.1501 7.88993 25.2741C7.78247 25.3324 6.0789 27.0446 4.10425 29.0791C0.166971 33.1356 0.227829 33.0596 0.0463418 34.1452C-0.129718 35.1989 0.200403 36.2366 0.959565 37.0155C1.71873 37.7944 2.73007 38.1331 3.75705 37.9525C4.81515 37.7662 4.74112 37.8287 8.69475 33.789C10.6777 31.763 12.3466 30.0151 12.4034 29.9049C12.5242 29.6704 12.5373 29.2696 12.4333 28.989C12.393 28.8802 12.1586 28.576 11.9125 28.313L11.465 27.8349L12.6076 26.6609L13.75 25.4869L14.5336 26.0885C20.2334 30.465 28.2731 29.7367 33.1783 24.3997C35.0722 22.339 36.331 19.7676 36.8364 16.9269C37.0545 15.7011 37.0545 13.2525 36.8364 12.0267C35.4928 4.47492 28.8084 -0.715626 21.4519 0.0805034ZM24.9453 2.40653C27.4276 2.87056 29.5808 4.01415 31.3179 5.79121C33.1058 7.62001 34.2256 9.81544 34.6978 12.4175C34.8702 13.3673 34.8702 15.5862 34.6978 16.536C33.8119 21.4178 30.4122 25.1644 25.7853 26.3578C19.9519 27.8624 13.8548 24.5624 11.753 18.7628C9.04456 11.2893 13.8174 3.31016 21.6009 2.29954C22.2941 2.20948 24.2211 2.27118 24.9453 2.40653ZM21.8054 6.76271C20.2435 6.99146 18.7215 7.83503 16.7776 9.54935C15.7249 10.4779 12.5277 13.7001 12.3919 13.9694C12.2605 14.2301 12.2607 14.7239 12.3924 14.985C12.5054 15.2093 14.8541 17.5946 16.0589 18.7087C19.1363 21.5545 20.8662 22.3888 23.3974 22.248C25.4123 22.136 26.8347 21.3775 29.4397 19.0264C30.677 17.9096 33.3311 15.244 33.4596 14.9891C33.593 14.7244 33.5942 14.2315 33.4621 13.9694C33.3239 13.6953 30.1211 10.4705 29.0403 9.5172C28.0619 8.65425 26.9701 7.86539 26.2195 7.47902C24.9058 6.80287 23.3051 6.54309 21.8054 6.76271ZM24.4876 9.16171C25.8039 9.59011 26.9089 10.447 29.7265 13.224L30.9901 14.4695L29.9797 15.4624C26.3128 19.0656 25.0329 19.9335 23.2479 20.027C22.0016 20.0922 21.1066 19.843 20.0441 19.1349C19.4767 18.7568 18.7303 18.1693 18.151 17.6452C17.5194 17.0736 14.8947 14.5177 14.8947 14.4742C14.8947 14.4019 17.7284 11.6442 18.4335 11.0305C19.7534 9.88144 20.8547 9.24338 21.9139 9.01396C22.6219 8.86057 23.7637 8.92613 24.4876 9.16171ZM22.1672 11.2412C21.2582 11.4746 20.3841 12.1888 20.01 13.004C19.4064 14.3194 19.6532 15.8086 20.6423 16.8188C22.521 18.7375 25.6748 17.6953 26.1241 15.0072C26.5106 12.6951 24.3848 10.6719 22.1672 11.2412ZM23.4189 13.5039C23.731 13.6673 24.0124 14.126 24.0124 14.4713C24.0124 15.0441 23.4799 15.5904 22.9216 15.5904C22.5851 15.5904 22.138 15.3017 21.9788 14.9815C21.7116 14.444 21.8793 13.8573 22.391 13.5394C22.7331 13.327 23.0593 13.3157 23.4189 13.5039ZM6.95326 32.4669C5.33117 34.134 3.88318 35.5627 3.73556 35.6417C3.39212 35.8251 3.09442 35.8233 2.73579 35.6356C2.23721 35.3747 2.02504 34.7163 2.27433 34.2037C2.33787 34.073 3.72963 32.5881 5.36706 30.9039L8.3443 27.8418L9.12343 28.6386L9.90257 29.4355L6.95326 32.4669Z" fill="#DB3CAE"/>
</svg>
