<svg width="38" height="38" viewBox="0 0 38 38" fill="none" xmlns="http://www.w3.org/2000/svg">
<path fill-rule="evenodd" clip-rule="evenodd" d="M16.5832 1.82858L14.7524 3.65724L14.6605 3.34974C14.5279 2.90618 14.0146 2.1456 13.6097 1.7924C13.4176 1.62485 12.9936 1.35924 12.6676 1.20215C12.1372 0.946539 11.993 0.913139 11.2986 0.885214C10.4159 0.849672 10.0059 0.934956 9.30311 1.30053C8.36301 1.78947 7.58884 2.81939 7.37057 3.87144C7.01805 5.57063 7.86465 7.26981 9.45662 8.05832L10.0637 8.35899L8.27917 10.1494C6.87531 11.558 6.48359 11.9959 6.44274 12.2027C6.39184 12.4597 6.43134 12.5064 8.23785 14.3227C9.25371 15.3442 10.0691 16.1914 10.0497 16.2057C10.0304 16.2199 9.74526 16.3623 9.416 16.5221C8.31456 17.0569 7.56263 18.0811 7.34888 19.3378C7.09943 20.8047 7.85167 22.3926 9.16394 23.1691L9.6391 23.4502L8.80349 25.8268L7.96781 28.2034L7.9633 28.9967L7.95878 29.7901L9.33153 33.0031C10.7036 36.2144 10.7044 36.2166 10.7565 36.9579C10.8021 37.6063 10.8321 37.7188 10.9944 37.8505C11.2534 38.0608 11.6035 38.0425 11.839 37.8064C12.0123 37.6328 12.0333 37.5448 12.0324 36.9932C12.0319 36.6531 11.9813 36.1963 11.92 35.9782C11.8587 35.76 11.2687 34.3141 10.6089 32.7651C9.94911 31.2161 9.35845 29.8104 9.2963 29.6412C9.0763 29.0426 9.1394 28.746 10.0344 26.1707L10.8854 23.7219L11.1319 23.7214C12.4823 23.7191 13.8623 22.8346 14.467 21.5838C14.6264 21.2539 14.7685 20.9681 14.7827 20.9487C14.7969 20.9294 15.0391 21.1425 15.3209 21.4224L15.8333 21.9314V25.3289V28.7263L16.0277 28.921C16.2847 29.1786 16.6486 29.1786 16.9056 28.921L17.1 28.7263V24.0313C17.1 20.577 17.1254 19.25 17.1963 19.0098C17.3248 18.574 17.9806 17.9168 18.4154 17.788C19.0956 17.5866 19.6976 17.717 20.2218 18.1795C20.8895 18.7685 20.8549 18.4894 20.9037 23.6813C20.9523 28.8508 20.9255 28.6004 21.5781 29.981C22.0285 30.9338 22.1667 31.4756 22.1667 32.2891C22.1667 33.1674 22.0086 33.7213 21.4333 34.8591L20.9477 35.8195L20.9155 36.7072C20.884 37.5739 20.888 37.5998 21.086 37.798C21.3515 38.0642 21.7118 38.0676 21.9723 37.8064C22.1479 37.6305 22.1667 37.5472 22.1667 36.9431C22.1667 36.2885 22.1766 36.2539 22.6399 35.2933C23.2341 34.0612 23.4333 33.3071 23.4333 32.2891C23.4333 31.3453 23.2571 30.6104 22.7744 29.5414C22.368 28.6412 22.2232 28.2183 22.2597 28.0379C22.2803 27.936 22.3484 27.9619 22.6021 28.1675C23.4996 28.8951 25.019 29.2854 25.9179 29.0193C26.3528 28.8905 27.0086 28.2333 27.1371 27.7975C27.2011 27.5802 27.2333 26.8231 27.2333 25.5353V23.5995L27.6203 23.4618C28.5853 23.1184 29.4829 22.2409 29.8514 21.2809C30.0704 20.7103 30.1422 19.668 30.005 19.0504C29.8793 18.484 29.5494 17.8301 29.1629 17.3812C28.8145 16.9765 28.0559 16.4617 27.6115 16.3282L27.3047 16.2361L29.1295 14.4014C30.8049 12.7169 30.9542 12.5444 30.9542 12.2925C30.9542 12.039 30.7867 11.8504 28.7567 9.81708C26.9426 8 26.5213 7.61611 26.3411 7.61611C25.973 7.61611 25.814 7.78057 25.6502 8.33067C25.4484 9.00835 25.1129 9.52545 24.6828 9.82208C23.0414 10.9538 20.8609 9.9721 20.6844 8.0219C20.5705 6.76358 21.316 5.70018 22.5625 5.34294C23.108 5.18657 23.3542 4.96998 23.3542 4.64654C23.3542 4.4321 23.0836 4.13094 21.1567 2.20098C19.1305 0.171362 18.9382 0 18.6867 0C18.4367 0 18.2615 0.152322 16.5832 1.82858ZM20.1362 2.92363L21.5478 4.33983L21.203 4.54229C21.0134 4.65368 20.6753 4.93865 20.4518 5.17554C19.0214 6.69107 19.0451 8.99732 20.5061 10.4614C21.6887 11.6465 23.4302 11.9119 24.9521 11.1391C25.4523 10.885 26.1502 10.2357 26.4215 9.77186L26.6235 9.42628L28.0362 10.8403L29.4489 12.2545L27.3515 14.3615C25.4003 16.3218 25.2542 16.4882 25.2542 16.7489C25.2542 17.2073 25.4829 17.35 26.2833 17.3911C27.401 17.4484 28.1574 17.9238 28.5914 18.8419C28.7772 19.2349 28.8166 19.423 28.8166 19.9201C28.8167 20.4321 28.7806 20.5944 28.5763 21.0043C28.1089 21.9417 27.3604 22.4089 26.3229 22.4108C25.7881 22.4118 25.6194 22.3775 25.2381 22.1898C24.6656 21.908 24.1229 21.3121 23.9392 20.7634C23.8557 20.5139 23.8034 20.1312 23.8078 19.8005C23.8144 19.2991 23.7957 19.2325 23.5906 19.027C23.2546 18.6902 23.0107 18.7401 22.472 19.2557L22.1837 19.5318L22.129 19.1336C22.0611 18.6387 21.716 17.8947 21.3729 17.5029C20.0532 15.9966 17.6839 16.0969 16.4669 17.7105C16.0785 18.2255 15.9061 18.7292 15.8546 19.4997L15.8106 20.1574L15.1095 19.4699C14.453 18.8261 14.3922 18.7857 14.1522 18.8338C13.7324 18.9179 13.6621 19.0503 13.6095 19.8557C13.5548 20.6938 13.3412 21.215 12.8517 21.7057C11.8995 22.6598 10.2625 22.6551 9.3047 21.6953C8.81378 21.2034 8.58863 20.6256 8.59465 19.8733C8.60075 19.119 8.79922 18.6282 9.30224 18.1238C9.79727 17.6274 10.2652 17.4375 11.1311 17.3814C11.947 17.3285 12.0759 17.2598 12.1613 16.8322C12.2126 16.5752 12.1718 16.528 10.0862 14.4328L7.95878 12.2955L9.98767 10.2533C11.1036 9.13012 12.056 8.13313 12.1041 8.03785C12.2411 7.76676 12.2097 7.62206 11.9603 7.37199C11.7441 7.15541 11.688 7.14002 11.1092 7.13931C10.6229 7.13875 10.402 7.09773 10.0827 6.94866C9.51528 6.68393 9.06759 6.25227 8.81339 5.72485C8.50329 5.08153 8.50329 4.2006 8.81339 3.55728C9.06221 3.04097 9.51781 2.59495 10.0445 2.35203C10.5612 2.11371 11.6054 2.11371 12.1222 2.35203C13.0469 2.77853 13.5461 3.5618 13.6007 4.67216C13.6407 5.48375 13.7813 5.71208 14.241 5.71208C14.5017 5.71208 14.6661 5.5669 16.622 3.61011C17.7775 2.45405 18.7233 1.50799 18.7237 1.50775C18.7242 1.50751 19.3598 2.14465 20.1362 2.92363ZM1.44091 2.9376C1.34615 3.02605 1.24838 3.17917 1.22368 3.27786C1.1191 3.69524 1.26659 3.8213 3.09985 4.88105C4.07273 5.44353 4.96098 5.91732 5.07379 5.93406C5.56692 6.00696 5.92373 5.29795 5.58347 4.92119C5.35752 4.67097 2.02128 2.77671 1.8065 2.77671C1.70018 2.77671 1.53568 2.84906 1.44091 2.9376ZM34.2857 3.76672C33.3531 4.30834 32.5188 4.82282 32.4318 4.91009C32.0675 5.2751 32.4222 6.00927 32.9262 5.93358C33.039 5.91668 33.9201 5.44821 34.8841 4.89263C36.7159 3.83701 36.9058 3.67247 36.7739 3.25589C36.6942 3.00432 36.4122 2.77639 36.184 2.77932C36.0721 2.78075 35.2223 3.22272 34.2857 3.76672ZM0.194354 12.1743C0.0718042 12.297 0 12.4596 0 12.6142C0 12.7687 0.0718042 12.9314 0.194354 13.0541L0.388629 13.2488H2.53333H4.67804L4.87231 13.0541C5.12945 12.7965 5.12945 12.4319 4.87231 12.1743L4.67804 11.9795H2.53333H0.388629L0.194354 12.1743ZM33.1277 12.1743C33.0051 12.297 32.9333 12.4596 32.9333 12.6142C32.9333 12.7687 33.0051 12.9314 33.1277 13.0541L33.322 13.2488H35.4667H37.6114L37.8056 13.0541C37.9282 12.9314 38 12.7687 38 12.6142C38 12.4596 37.9282 12.297 37.8056 12.1743L37.6114 11.9795H35.4667H33.322L33.1277 12.1743ZM3.16667 20.3057C1.31702 21.3716 1.12021 21.5374 1.22202 21.9438C1.29184 22.2228 1.54953 22.4516 1.79384 22.4516C2.05984 22.4516 5.40217 20.5305 5.62075 20.252C5.8022 20.0208 5.81424 19.9182 5.69129 19.6477C5.60065 19.4484 5.31945 19.2779 5.08274 19.2787C5.00856 19.279 4.14635 19.7411 3.16667 20.3057ZM32.5629 19.3726C32.3555 19.4731 32.188 19.8428 32.2546 20.0532C32.2811 20.1368 32.3823 20.2768 32.4795 20.3644C32.8213 20.6725 36.0006 22.4516 36.2092 22.4516C36.4502 22.4516 36.7084 22.2218 36.7775 21.9458C36.8788 21.5411 36.6716 21.3664 34.8274 20.3026C33.851 19.7393 32.9808 19.2808 32.8937 19.2837C32.8067 19.2866 32.6578 19.3266 32.5629 19.3726ZM22.9153 21.5479C23.4243 22.58 24.3231 23.3168 25.3831 23.5709C25.5952 23.6217 25.8133 23.6751 25.8677 23.6897C25.9433 23.7098 25.9667 24.157 25.9667 25.5865V27.4569L25.7615 27.6625C25.57 27.8544 25.5222 27.8648 25.0371 27.8194C23.9519 27.7179 23.0039 27.052 22.5049 26.0408L22.2062 25.4356L22.1804 23.4188L22.1545 21.402L22.3733 21.1732C22.4936 21.0473 22.5979 20.9443 22.6049 20.9443C22.6118 20.9443 22.7515 21.2159 22.9153 21.5479Z" fill="#FF6900"/>
</svg>
