<svg width="18" height="18" viewBox="0 0 18 18" fill="none" xmlns="http://www.w3.org/2000/svg">
<path d="M1.60577 4.73094L9 0.46188L16.3942 4.73094V13.2691L9 17.5381L1.60577 13.2691V4.73094Z" stroke="#410EAD" stroke-width="0.8"/>
<path fill-rule="evenodd" clip-rule="evenodd" d="M9.93946 5.00716C9.84831 5.01918 9.65541 5.07693 9.52592 5.13099C8.95291 5.37016 8.52517 5.87084 8.39875 6.45041C8.37638 6.55293 8.36772 6.84899 8.38574 6.89479C8.40359 6.94016 8.59276 6.92355 8.81698 6.85692C9.35454 6.69718 9.81631 6.22102 9.98471 5.65282C10.0382 5.47241 10.0655 5.25211 10.052 5.11113C10.0401 4.98758 10.0461 4.9931 9.93946 5.00716ZM6.79808 6.89661C6.35969 6.97772 5.95538 7.20937 5.60783 7.57851C5.29336 7.91254 5.11049 8.30832 5.03445 8.81947C4.93614 9.48048 5.05002 10.257 5.35323 10.9931C5.59644 11.5835 5.99372 12.1976 6.37069 12.5658C6.7034 12.8907 6.98568 13.0196 7.31633 12.9976C7.4843 12.9864 7.56512 12.9636 7.85951 12.8439C8.1363 12.7313 8.28127 12.6932 8.50731 12.6734C8.82951 12.6453 9.08649 12.692 9.44668 12.8441C9.7216 12.9602 9.81004 12.986 9.97153 12.9969C10.4548 13.0296 10.898 12.6956 11.4463 11.8855C11.5457 11.7387 11.671 11.5412 11.7248 11.4466C11.8187 11.2813 12 10.9072 12 10.8786C12 10.8711 11.9538 10.8457 11.8972 10.8222C11.6545 10.7216 11.3441 10.4694 11.1823 10.2412C10.7511 9.63282 10.737 8.84094 11.1467 8.23448C11.243 8.09199 11.4701 7.87427 11.6285 7.77264L11.7727 7.68007L11.677 7.57507C11.3533 7.21983 10.9118 6.97056 10.4778 6.89792C10.1124 6.83675 9.7805 6.88227 9.29003 7.06083C8.96335 7.17975 8.84745 7.20548 8.64059 7.20496C8.42436 7.20441 8.31827 7.18146 7.9246 7.04999C7.76009 6.99506 7.56166 6.93615 7.48363 6.91908C7.28947 6.87662 6.96383 6.86594 6.79808 6.89661Z" fill="#410EAD"/>
</svg>
