<svg width="34" height="34" viewBox="0 0 34 34" fill="none" xmlns="http://www.w3.org/2000/svg">
<path fill-rule="evenodd" clip-rule="evenodd" d="M15.6214 0.126412C13.9133 0.486853 12.39 1.67301 11.5934 3.26294C11.3557 3.73754 11.0363 4.77218 11.0363 5.06803C11.0363 5.46481 11.0124 5.47736 10.2565 5.47736H9.55996L8.90999 6.5726C8.55258 7.17493 8.24466 7.66805 8.22581 7.66839C8.20696 7.66866 8.007 7.35327 7.78141 6.96739C7.55581 6.58151 7.25269 6.13639 7.10778 5.97822C6.4175 5.22463 5.18301 5.36601 4.6288 6.26207L4.42137 6.59756L4.40067 8.78002L4.37997 10.9625H4.93192H5.48387V8.93676V6.91096L5.65216 6.74271C5.82888 6.56588 6.0278 6.53043 6.23153 6.63952C6.2985 6.67538 6.76689 7.39962 7.27244 8.24892C7.77791 9.09822 8.20696 9.79305 8.22581 9.79305C8.24466 9.79298 8.69152 9.06874 9.21887 8.18365L10.1777 6.57438H10.607C10.9782 6.57438 11.0363 6.59145 11.0363 6.70054C11.0363 7.14867 11.3729 8.03911 12.1032 9.52263L12.8964 11.1339L12.5617 11.4805C12.1692 11.8869 12.0235 12.2943 12.0903 12.7982L12.1337 13.1259L11.7221 13.5333C11.4957 13.7574 11.3105 13.9624 11.3105 13.9889C11.3105 14.0154 11.4647 14.3042 11.6532 14.6307C11.8417 14.9572 11.996 15.2622 11.996 15.3086C11.996 15.5282 11.7782 15.66 11.1299 15.833L10.4536 16.0135V17.5439V19.0744L11.1276 19.2524C11.7762 19.4236 11.996 19.5573 11.996 19.7806C11.996 19.8271 11.8417 20.1321 11.6532 20.4586C11.4647 20.7851 11.3105 21.0733 11.3105 21.0991C11.3105 21.1592 13.3878 23.2354 13.448 23.2354C13.4729 23.2354 13.7603 23.0812 14.0867 22.8926C14.4131 22.7041 14.7181 22.5498 14.7645 22.5498C14.984 22.5498 15.1158 22.7676 15.2888 23.416L15.4692 24.0925H17H18.5308L18.708 23.4411C18.9137 22.6844 18.9332 22.647 19.1487 22.5929C19.2659 22.5634 19.4857 22.6498 19.943 22.9048L20.5752 23.2574L21.6324 22.2016C22.2138 21.621 22.6895 21.1248 22.6895 21.0991C22.6895 21.0733 22.5353 20.7851 22.3468 20.4586C22.1583 20.1321 22.004 19.8271 22.004 19.7806C22.004 19.5611 22.2218 19.4292 22.8701 19.2563L23.5464 19.0758V17.5446V16.0135L22.8701 15.833C22.2218 15.66 22.004 15.5282 22.004 15.3086C22.004 15.2622 22.1583 14.9572 22.3468 14.6307C22.5353 14.3042 22.6895 14.0154 22.6895 13.9889C22.6895 13.9624 22.5055 13.7586 22.2806 13.536L21.8717 13.1312L21.9118 12.7472C21.9632 12.2556 21.7614 11.7545 21.3694 11.4003L21.094 11.1514L21.892 9.53141C22.6271 8.03891 22.9637 7.14984 22.9637 6.70054C22.9637 6.59145 23.0218 6.57438 23.393 6.57438H23.8223L24.7811 8.18365C25.3085 9.06874 25.7553 9.79298 25.7742 9.79305C25.793 9.79305 26.2221 9.09822 26.7276 8.24892C27.2331 7.39962 27.7015 6.67538 27.7685 6.63952C27.9722 6.53043 28.1711 6.56588 28.3478 6.74271L28.5161 6.91096V8.93676V10.9625H29.0681H29.62L29.5993 8.78002L29.5786 6.59756L29.3712 6.26207C28.817 5.36601 27.5825 5.22463 26.8922 5.97822C26.7473 6.13639 26.4442 6.58151 26.2186 6.96739C25.993 7.35327 25.793 7.66866 25.7742 7.66839C25.7553 7.66805 25.4474 7.17493 25.09 6.5726L24.44 5.47736H23.7435C22.9876 5.47736 22.9637 5.46481 22.9637 5.06803C22.9637 4.77218 22.6443 3.73754 22.4066 3.26294C21.7557 1.96386 20.6238 0.929091 19.2562 0.382842C18.286 -0.00461383 16.7545 -0.112671 15.6214 0.126412ZM18.6109 1.32368C20.1245 1.83688 21.1777 2.88913 21.7048 4.41461C21.8712 4.89634 21.8947 5.06748 21.8977 5.82018C21.9023 6.9473 21.8053 7.24754 20.7645 9.32839L19.947 10.9625H18.7477H17.5484V9.56192V8.16143L17.9142 7.99386C18.3625 7.78858 18.7218 7.43897 18.9703 6.96636C19.133 6.65686 19.1582 6.53016 19.157 6.02587C19.1558 5.49539 19.1348 5.40434 18.9233 5.01105C18.6645 4.53001 18.4495 4.32226 17.9327 4.05362C17.6337 3.89819 17.4977 3.87179 17 3.87234C16.3126 3.87316 15.9025 4.03497 15.456 4.48153C15.0126 4.92507 14.8493 5.33783 14.8452 6.02587C14.8421 6.53263 14.8662 6.65536 15.0297 6.96636C15.2782 7.43897 15.6375 7.78858 16.0858 7.99386L16.4516 8.16143V9.56192V10.9625H15.2523H14.053L13.2355 9.32839C12.1947 7.24754 12.0977 6.9473 12.1023 5.82018C12.1053 5.06844 12.129 4.89573 12.2947 4.41461C12.7741 3.02345 13.7788 1.94734 15.0806 1.43084C15.7642 1.15967 16.2237 1.09015 17.1714 1.11469C17.9209 1.13403 18.1496 1.16721 18.6109 1.32368ZM17.4338 5.02237C18.1381 5.31671 18.3098 6.24027 17.7621 6.78816C17.3174 7.23287 16.6826 7.23287 16.2379 6.78816C15.3902 5.94023 16.3256 4.55922 17.4338 5.02237ZM4.3871 12.608V13.1565H4.93548H5.48387V12.608V12.0595H4.93548H4.3871V12.608ZM20.6704 12.2278C20.7765 12.3339 20.8387 12.4745 20.8387 12.608C20.8387 12.7416 20.7765 12.8821 20.6704 12.9882L20.5022 13.1565H17H13.4978L13.3296 12.9882C13.2235 12.8821 13.1613 12.7416 13.1613 12.608C13.1613 12.4745 13.2235 12.3339 13.3296 12.2278L13.4978 12.0595H17H20.5022L20.6704 12.2278ZM28.5161 12.608V13.1565H29.0645H29.6129V12.608V12.0595H29.0645H28.5161V12.608ZM13.0182 14.079C13.1636 14.1543 13.2199 14.2426 13.2475 14.439C13.3009 14.8207 13.5519 15.4433 13.8024 15.8155L14.0216 16.1413L13.894 16.483C13.4737 17.6085 13.8192 19.0281 14.7236 19.8908C16.5863 21.668 19.5521 20.7957 20.1978 18.2807C20.3303 17.7644 20.289 16.9781 20.1031 16.4773L19.9784 16.1413L20.1976 15.8155C20.4481 15.4433 20.6991 14.8207 20.7525 14.439C20.7807 14.2384 20.8358 14.1545 20.9931 14.0732C21.1461 13.994 21.2167 13.9873 21.275 14.046C21.3331 14.1046 21.278 14.2629 21.0567 14.6721L20.7606 15.2198L20.9966 15.7823C21.1265 16.0916 21.2494 16.3944 21.2697 16.455C21.2901 16.5156 21.4029 16.5845 21.5205 16.608C21.6381 16.6315 21.9029 16.6998 22.1091 16.7597L22.4839 16.8687V17.5468V18.225L22.2268 18.2931C22.0855 18.3304 21.8194 18.4008 21.6357 18.4493C21.4519 18.4978 21.2861 18.5841 21.2671 18.641C21.2482 18.6979 21.1265 18.9976 20.9966 19.3069L20.7606 19.8694L21.0567 20.4181L21.3528 20.9668L20.9092 21.4155C20.6653 21.6622 20.4335 21.8642 20.394 21.8642C20.3546 21.8642 20.1081 21.7389 19.8461 21.5857C19.5841 21.4326 19.3224 21.3226 19.2646 21.3413C19.2066 21.3599 18.8986 21.4835 18.5799 21.6159C17.9414 21.8811 18.0029 21.7972 17.7565 22.7384L17.6802 23.0298H17H16.3198L16.2517 22.7726C16.2144 22.6313 16.144 22.3652 16.0955 22.1813C16.047 21.9976 15.9608 21.8317 15.9039 21.8127C15.8469 21.7938 15.5473 21.6721 15.2381 21.5422L14.6757 21.3061L14.1262 21.6022L13.5767 21.8984L13.1119 21.4336L12.6472 20.9687L12.9433 20.419L13.2394 19.8694L13.0034 19.3069C12.8735 18.9976 12.7518 18.6979 12.7329 18.641C12.7139 18.5841 12.5481 18.4978 12.3643 18.4493C12.1806 18.4008 11.9146 18.3304 11.7732 18.2931L11.5161 18.225V17.5446V16.8643L11.7732 16.7962C11.9146 16.7588 12.1806 16.6885 12.3643 16.6399C12.5481 16.5915 12.7139 16.5052 12.7329 16.4483C12.7518 16.3913 12.8739 16.0909 13.0041 15.7805L13.2409 15.2162L12.9549 14.6979C12.7976 14.4128 12.6862 14.1345 12.7073 14.0795C12.7549 13.9552 12.7787 13.9552 13.0182 14.079ZM4.3871 14.8021V15.3506H4.93548H5.48387V14.8021V14.2536H4.93548H4.3871V14.8021ZM19.6734 14.3472C19.6734 14.3987 19.5651 14.6573 19.4328 14.9219C19.1404 15.5065 18.729 15.9026 18.1091 16.1963C17.695 16.3925 17.5889 16.4133 17 16.4133C16.4111 16.4133 16.305 16.3925 15.8909 16.1963C15.271 15.9026 14.8596 15.5065 14.5672 14.9219C14.4349 14.6573 14.3266 14.3987 14.3266 14.3472C14.3266 14.2697 14.7862 14.2536 17 14.2536C19.2138 14.2536 19.6734 14.2697 19.6734 14.3472ZM28.5161 14.8021V15.3506H29.0645H29.6129V14.8021V14.2536H29.0645H28.5161V14.8021ZM4.12058 16.556C2.38768 17.0221 1.30729 18.8239 1.74744 20.5139C1.88597 21.0461 2.14687 21.5423 2.47556 21.899L2.74906 22.1957L2.24852 22.4575C1.52452 22.8359 0.854593 23.525 0.488476 24.2679C0.00630648 25.2462 0.0025363 25.2898 0.00116534 29.9033L0 34H4.66129H9.32258V32.903V31.806H10.5314C11.993 31.806 12.1838 31.7598 12.6495 31.2941C13.3194 30.624 13.3394 29.7717 12.7019 29.0626C12.2475 28.5569 12.0581 28.5149 10.2358 28.5149H8.70565L8.70585 28.3606C8.70592 28.2757 8.65753 27.6201 8.5983 26.9036C8.47937 25.4651 8.33206 24.7918 7.99919 24.165C7.7897 23.7705 6.97137 22.8562 6.68347 22.6951L6.54637 22.6184L6.68347 22.5374C7.00092 22.3499 7.60777 21.6933 7.80423 21.3245C8.505 20.0094 8.30875 18.5393 7.28971 17.4707C6.47741 16.6189 5.22771 16.2582 4.12058 16.556ZM28.2496 16.556C26.5116 17.0235 25.4363 18.8236 25.8791 20.5243C25.9369 20.746 26.0794 21.1061 26.1958 21.3245C26.3922 21.6933 26.9991 22.3499 27.3165 22.5374L27.4536 22.6184L27.3165 22.6951C27.2411 22.7373 26.9586 22.9973 26.6886 23.273C26.1481 23.8248 25.7787 24.4802 25.6082 25.1895C25.5247 25.5367 25.2936 27.8708 25.2942 28.3606L25.2944 28.5149H23.7771C22.7862 28.5149 22.162 28.5438 21.9777 28.5983C21.6012 28.7095 21.0333 29.2775 20.9221 29.6541C20.7322 30.297 20.8661 30.8095 21.3505 31.2941C21.8162 31.7598 22.007 31.806 23.4686 31.806H24.6774V32.903V34H29.3387H34L33.9988 29.9033C33.9975 25.2898 33.9937 25.2462 33.5115 24.2679C33.1454 23.525 32.4755 22.8359 31.7515 22.4575L31.2509 22.1957L31.5244 21.899C32.2233 21.1407 32.5141 19.968 32.2526 18.9634C31.7898 17.1863 29.9716 16.0928 28.2496 16.556ZM15.9032 17.3799C16.1776 17.4733 16.4763 17.5084 17 17.5084C17.7569 17.5084 18.1378 17.4196 18.7954 17.0904L19.1168 16.9293L19.163 17.237C19.2526 17.8342 19.0419 18.5282 18.6182 19.0319C18.5238 19.144 18.2522 19.3407 18.0146 19.4689C17.6191 19.6822 17.5336 19.7017 17 19.7004C16.5049 19.6991 16.3648 19.6715 16.0673 19.5169C15.5557 19.251 15.3353 19.0406 15.094 18.5878C14.8628 18.1539 14.7583 17.5831 14.835 17.1738L14.8811 16.9283L15.2036 17.0898C15.381 17.1787 15.6959 17.3092 15.9032 17.3799ZM5.96727 17.8264C6.4308 18.0735 6.64015 18.2916 6.90728 18.8057C7.06185 19.1033 7.08941 19.2434 7.09071 19.7387C7.09208 20.2724 7.07255 20.3579 6.85929 20.7535C6.59991 21.2347 6.3848 21.4424 5.86822 21.7109C5.56969 21.8661 5.43239 21.8929 4.93548 21.8929C4.43858 21.8929 4.30127 21.8661 4.00275 21.7109C3.48617 21.4424 3.27106 21.2347 3.01167 20.7535C2.79815 20.3574 2.77895 20.2731 2.78101 19.7387C2.78354 19.051 2.94621 18.6396 3.3915 18.1945C4.07582 17.5106 5.10034 17.3641 5.96727 17.8264ZM30.0963 17.8264C30.5598 18.0735 30.7692 18.2916 31.0363 18.8057C31.1909 19.1033 31.2184 19.2434 31.2197 19.7387C31.2211 20.2724 31.2016 20.3579 30.9883 20.7535C30.7289 21.2347 30.5138 21.4424 29.9973 21.7109C29.6987 21.8661 29.5614 21.8929 29.0645 21.8929C28.5676 21.8929 28.4303 21.8661 28.1318 21.7109C27.6152 21.4424 27.4001 21.2347 27.1407 20.7535C26.9272 20.3574 26.908 20.2731 26.91 19.7387C26.9126 19.051 27.0752 18.6396 27.5205 18.1945C28.2049 17.5106 29.2294 17.3641 30.0963 17.8264ZM5.03591 23.1349C5.9195 23.365 6.66578 23.9735 7.07975 24.801C7.35209 25.3456 7.36203 25.4023 7.53498 27.3974C7.67858 29.0546 7.72945 29.2066 8.22478 29.4576C8.51446 29.6045 8.6057 29.6119 10.1285 29.6119H11.728L11.8962 29.7802C12.1189 30.0029 12.1189 30.318 11.8962 30.5406L11.728 30.7089L9.71982 30.7074C7.84804 30.706 7.69079 30.6964 7.40323 30.5662C7.23357 30.4895 7.00708 30.3435 6.89994 30.2421C6.48447 29.8485 6.44739 29.689 6.23057 27.3621C6.11959 26.1716 6.02191 25.1927 6.01341 25.1868C5.98057 25.1642 4.99937 25.2742 4.96969 25.3038C4.95248 25.3211 5.02919 26.3088 5.14017 27.4989C5.36357 29.894 5.42965 30.1803 5.89537 30.7695C6.35485 31.351 7.0269 31.7138 7.77352 31.7835L8.22581 31.8258V32.3644V32.903H4.66129H1.09677V29.4096C1.09677 25.7091 1.11288 25.4833 1.42505 24.8124C1.64537 24.3388 2.38117 23.5938 2.84476 23.3748C3.56925 23.0327 4.32575 22.9498 5.03591 23.1349ZM30.3807 23.1062C30.9894 23.2342 31.4651 23.5007 31.9488 23.9844C32.4324 24.4682 32.6988 24.944 32.8268 25.5528C32.8772 25.7926 32.9032 27.1042 32.9032 29.4096V32.903H29.3387H25.7742V32.3644V31.8258L26.2265 31.7835C26.9735 31.7137 27.6902 31.3174 28.144 30.7228C28.5717 30.1627 28.6401 29.8541 28.8598 27.4989C28.9708 26.3088 29.0475 25.3211 29.0303 25.3038C29.0006 25.2742 28.0194 25.1642 27.9866 25.1868C27.9781 25.1927 27.8804 26.1716 27.7694 27.3621C27.5526 29.689 27.5155 29.8485 27.1001 30.2421C26.9929 30.3435 26.7664 30.4895 26.5968 30.5662C26.3092 30.6964 26.152 30.706 24.2802 30.7074L22.272 30.7089L22.1038 30.5406C21.8811 30.318 21.8811 30.0029 22.1038 29.7802L22.272 29.6119H23.8715C25.3943 29.6119 25.4855 29.6045 25.7752 29.4576C26.2706 29.2066 26.3214 29.0546 26.465 27.3974C26.638 25.4023 26.6479 25.3456 26.9203 24.801C27.5714 23.4992 28.9768 22.8108 30.3807 23.1062Z" fill="#D01B28"/>
</svg>
