<svg width="34" height="34" viewBox="0 0 34 34" fill="none" xmlns="http://www.w3.org/2000/svg">
<path fill-rule="evenodd" clip-rule="evenodd" d="M0.515475 0.134051C0.24555 0.276598 0 0.671357 0 0.962694C0 1.29355 1.64751 7.6214 1.88589 8.2062C2.40628 9.48274 2.54038 9.64328 5.96107 13.0861C7.68709 14.8233 9.09935 16.2728 9.09935 16.3074C9.09935 16.342 7.1582 18.3133 4.78566 20.6881C0.121281 25.3568 0.194739 25.2723 0.045696 26.1425C-0.0075053 26.4529 -0.00684111 26.6842 0.0479542 27.0043C0.202112 27.9044 0.241299 27.9532 3.14698 30.8591C6.05259 33.765 6.10141 33.8042 7.00138 33.9584C7.32152 34.0132 7.55272 34.0138 7.86316 33.9606C8.73325 33.8116 8.64876 33.885 13.3171 29.2203C15.6917 26.8475 17.6644 24.9062 17.701 24.9062C17.7375 24.9062 19.5307 26.6719 21.6859 28.8301C23.841 30.9883 25.7883 32.887 26.0131 33.0493C26.9143 33.7004 27.7676 33.9659 28.9585 33.9659C29.9227 33.9659 30.3757 33.8658 31.1835 33.4744C32.4704 32.8508 33.4651 31.6363 33.8489 30.2201C34.0106 29.6234 34.0102 28.2889 33.8482 27.6999C33.6829 27.0993 33.3947 26.4905 33.0494 26.0124C32.8871 25.7876 30.9886 23.8401 28.8306 21.6848C26.6726 19.5295 24.907 17.7361 24.907 17.6996C24.907 17.663 26.8481 15.6901 29.2207 13.3154C33.885 8.64659 33.8116 8.73108 33.9606 7.86092C34.0138 7.55046 34.0132 7.31923 33.9584 6.99907C33.8042 6.09902 33.765 6.0502 30.8593 3.14433C27.9537 0.238404 27.9049 0.199213 27.0049 0.0450426C26.6848 -0.00975745 26.4536 -0.0104217 26.1432 0.0427842C25.2731 0.19184 25.3576 0.118375 20.6892 4.78315C18.3147 7.1559 16.343 9.09721 16.3078 9.09721C16.2726 9.09721 14.853 7.71054 13.1531 6.01572C10.6154 3.48555 9.96139 2.86907 9.49786 2.57003C8.81242 2.12771 8.54276 1.99021 7.92978 1.77028C7.30578 1.54643 1.19673 -0.00377926 0.953306 6.92376e-06C0.849095 0.00166753 0.652031 0.0619808 0.515475 0.134051ZM29.435 4.55871C32.1042 7.22743 32.1305 7.26018 31.9518 7.69161C31.9093 7.7941 31.6516 8.09952 31.3791 8.37026L30.8835 8.86253L29.3066 7.29306C28.4394 6.42988 27.6645 5.69058 27.5847 5.65019C27.5049 5.6098 27.2956 5.57692 27.1198 5.57719C26.7594 5.57765 26.4905 5.7214 26.295 6.01785C26.1357 6.2595 26.1263 6.81122 26.2776 7.03985C26.3374 7.13019 27.0767 7.89898 27.9206 8.74822L29.4551 10.2923L28.694 11.0555L27.933 11.8187L27.0344 10.9288C26.2871 10.1888 26.0927 10.0308 25.8803 9.99115C25.154 9.85578 24.5482 10.4821 24.7102 11.2008C24.7533 11.3919 24.9561 11.6358 25.6491 12.3303L26.533 13.2161L25.7539 13.9952L24.9748 14.7744L23.3303 13.1365C21.4998 11.3135 21.4723 11.2953 20.8867 11.5189C20.4145 11.6992 20.1899 12.1295 20.2881 12.6652C20.3278 12.8817 20.5595 13.1429 21.9561 14.5454L23.5779 16.1742L22.8156 16.9345L22.0532 17.6948L21.2036 16.8541C20.7364 16.3917 20.2707 15.9818 20.1687 15.943C19.3344 15.6257 18.5497 16.4105 18.8669 17.2449C18.9057 17.3468 19.3159 17.8127 19.7784 18.2802L20.6193 19.1302L19.874 19.8756L19.1287 20.621L17.5512 19.0508C16.6836 18.1872 15.9084 17.4477 15.8286 17.4073C15.7488 17.3669 15.5396 17.334 15.3637 17.3343C15.0033 17.3348 14.7344 17.4785 14.5389 17.7749C14.3796 18.0166 14.3702 18.5683 14.5215 18.797C14.5813 18.8873 15.3206 19.6561 16.1646 20.5053L17.699 22.0494L16.9379 22.8126L16.1769 23.5758L15.2783 22.6859C14.5311 21.9459 14.3366 21.7879 14.1242 21.7482C13.3979 21.6129 12.7921 22.2392 12.9541 22.9579C12.9973 23.149 13.2 23.3929 13.893 24.0874L14.7769 24.9732L13.9978 25.7523L13.2187 26.5315L11.5742 24.8936C9.74367 23.0706 9.71618 23.0524 9.13056 23.276C8.65839 23.4564 8.43377 23.8866 8.532 24.4223C8.57172 24.6388 8.80345 24.9 10.2 26.3025L11.8218 27.9313L11.0595 28.6916L10.2971 29.4519L9.44751 28.6112C8.98032 28.1488 8.5146 27.7389 8.41265 27.7001C7.57829 27.3828 6.79362 28.1676 7.11084 29.002C7.14963 29.1039 7.55943 29.5696 8.02164 30.0367L8.86197 30.886L8.37107 31.3802C8.10114 31.652 7.79635 31.9091 7.69386 31.9516C7.26227 32.1304 7.22953 32.104 4.56967 29.4397C2.90615 27.7734 2.05154 26.8708 2.02225 26.7495C1.998 26.649 1.998 26.4846 2.02225 26.3841C2.0526 26.2585 5.80512 22.4592 14.0346 14.2218C20.6172 7.63302 26.0925 2.18384 26.2021 2.1125C26.3453 2.01937 26.4748 1.99181 26.6619 2.01479C26.9026 2.04421 27.1149 2.2391 29.435 4.55871ZM4.70888 2.95722C7.18344 3.58931 7.66231 3.75232 8.33713 4.19244C8.8348 4.51706 9.96279 5.53906 9.96279 5.66533C9.96279 5.76643 5.76905 9.96073 5.66796 9.96073C5.5425 9.96073 4.52829 8.83988 4.19692 8.33493C4.02968 8.08006 3.8117 7.66158 3.71253 7.40499C3.57007 7.0362 2.39107 2.59753 2.39107 2.42987C2.39107 2.36451 2.3655 2.35873 4.70888 2.95722ZM13.1843 8.83171L14.9104 10.5589L12.7355 12.734L10.5606 14.9091L8.81733 13.1657L7.07411 11.4223L9.23205 9.2634C10.419 8.076 11.4053 7.10448 11.4241 7.10448C11.4429 7.10448 12.2349 7.88171 13.1843 8.83171ZM25.5542 21.2026C26.696 22.3441 27.6301 23.3079 27.6301 23.3444C27.6301 23.4318 23.4335 27.6296 23.3461 27.6296C23.3091 27.6296 22.3378 26.688 21.1875 25.5372L19.0961 23.4449L21.2539 21.2861C22.4408 20.0987 23.4267 19.1273 23.445 19.1273C23.4632 19.1273 24.4123 20.0612 25.5542 21.2026ZM30.2946 25.9534C31.5858 27.273 31.8171 27.6233 31.9601 28.4765C32.2183 30.0175 31.2006 31.5535 29.6846 31.9109C29.139 32.0396 28.7983 32.0392 28.2276 31.9094C27.556 31.7566 27.0823 31.414 25.8368 30.1802L24.7409 29.0946L26.8991 26.934C28.0862 25.7456 29.0759 24.7733 29.0987 24.7733C29.1214 24.7733 29.6596 25.3043 30.2946 25.9534Z" fill="#F7BB21"/>
</svg>
