<svg width="34" height="34" viewBox="0 0 34 34" fill="none" xmlns="http://www.w3.org/2000/svg">
<path fill-rule="evenodd" clip-rule="evenodd" d="M16.5165 0.0746989C14.4009 0.476695 12.6788 1.77187 11.7211 3.68117L11.4915 4.13899L5.9925 5.85323C2.96801 6.79605 0.413784 7.6134 0.316413 7.66956C0.0248313 7.83769 -0.0833661 8.20101 0.0686682 8.50166C0.109051 8.58148 1.05407 9.56264 2.16872 10.682L4.19532 12.7171L2.89236 14.8933C1.914 16.5274 1.58934 17.1233 1.58934 17.2852C1.58934 17.7276 1.70086 17.7886 3.78185 18.4826L5.70736 19.1248V24.3092C5.70736 29.0659 5.71666 29.5094 5.82007 29.6846C5.88204 29.7896 5.97921 29.8946 6.03593 29.918C6.75964 30.2165 16.9152 34 16.9924 34C17.0507 34 19.8398 33.0856 23.1906 31.9681C28.6932 30.1329 29.2991 29.9169 29.4506 29.7367L29.6184 29.5372V24.1967V18.8562L30.6645 18.5252C31.2398 18.3431 32.1455 18.0575 32.677 17.8904C33.2086 17.7233 33.7088 17.5257 33.7887 17.4512C33.9648 17.287 34.0319 17.0499 33.9717 16.8044C33.9424 16.6851 33.231 15.9233 31.923 14.6108L29.9191 12.5999L31.8872 10.6234C32.9697 9.53626 33.8883 8.58148 33.9287 8.50166C34.1108 8.14147 33.9329 7.7426 33.5219 7.58975C33.3659 7.53166 31.3403 6.89993 29.0206 6.18578C23.4119 4.45911 23.9957 4.66585 23.9018 4.37278C23.7835 4.00348 23.4073 3.27093 23.1138 2.8385C22.223 1.52598 20.8133 0.557772 19.2237 0.166608C18.5037 -0.010565 17.1983 -0.0548915 16.5165 0.0746989ZM18.9913 1.47162C20.8203 1.94034 22.3439 3.47449 22.8172 5.32397C22.9841 5.97591 22.9841 7.28537 22.8172 7.91578C22.0998 10.6257 19.4589 12.3295 16.731 11.8425C14.8772 11.5115 13.2395 10.0997 12.6475 8.3223C11.6015 5.18202 13.5428 1.97257 16.8546 1.36701C17.3035 1.28494 18.4894 1.34302 18.9913 1.47162ZM20.65 4.07034C20.5596 4.13008 19.7024 4.95859 18.7449 5.91138L17.004 7.64371L16.553 7.20888C16.305 6.96977 16.0316 6.73664 15.9456 6.69092C15.7141 6.56778 15.3747 6.65696 15.1761 6.89308C14.8333 7.30066 14.9755 7.58729 16.0201 8.59424C16.6689 9.21966 16.8601 9.32712 17.1813 9.24691C17.3712 9.19952 21.0873 5.56421 21.4565 5.06479C21.7165 4.71304 21.7071 4.4726 21.4222 4.18757C21.1678 3.93297 20.9154 3.89462 20.65 4.07034ZM11.0428 6.21303C10.9708 7.14761 11.2396 8.59683 11.6263 9.35855C11.6952 9.49419 11.7515 9.61887 11.7515 9.63575C11.7515 9.65256 10.2869 10.1544 8.49671 10.7511L5.24189 11.8359L3.58233 10.1749L1.92277 8.51389L6.42203 7.10667C8.89662 6.33265 10.9577 5.69719 11.0023 5.69447C11.0626 5.69075 11.0729 5.82233 11.0428 6.21303ZM28.3384 7.36512L32.0731 8.51389L30.4144 10.1748L28.7556 11.8357L26.0819 10.9467C24.6114 10.4579 23.3987 10.0499 23.3872 10.0402C23.3757 10.0306 23.462 9.83279 23.5791 9.60086C24.0093 8.74795 24.216 7.93685 24.2833 6.83706C24.3237 6.17655 24.3321 6.14631 24.4647 6.18047C24.5412 6.2002 26.2843 6.73332 28.3384 7.36512ZM12.977 11.2996C14.9751 13.2988 17.9643 13.8198 20.4857 12.6083C21.1265 12.3005 22.0476 11.6705 22.3668 11.3219L22.5211 11.1534L24.6417 11.8599C25.808 12.2486 26.7624 12.5819 26.7624 12.6008C26.7624 12.6198 24.5655 13.3674 21.8805 14.2624L16.9987 15.8896L12.1168 14.2624C9.43183 13.3674 7.23501 12.6198 7.23501 12.6008C7.23501 12.5773 11.8249 11.0079 12.4666 10.812C12.4763 10.8091 12.706 11.0285 12.977 11.2996ZM10.7717 15.2089L16.0022 16.9539L14.9664 18.6818C14.3968 19.6321 13.9204 20.4202 13.908 20.4331C13.8955 20.4461 11.4926 19.6587 8.56818 18.6833L3.25116 16.91L3.33352 16.7578C3.37882 16.6742 3.8488 15.8843 4.3779 15.0025C5.07777 13.8362 5.36735 13.4082 5.44062 13.4317C5.49601 13.4495 7.89502 14.2492 10.7717 15.2089ZM30.432 15.0433L32.0748 16.6881L26.4795 18.4438C23.4021 19.4094 20.8543 20.208 20.8178 20.2184C20.7499 20.2378 18.1516 17.0111 18.1726 16.9335C18.1858 16.8852 28.5338 13.4118 28.6891 13.4037C28.7441 13.4008 29.5284 14.1386 30.432 15.0433ZM18.9555 20.0938C20.2694 21.7422 20.2912 21.7591 20.8842 21.5898C21.0669 21.5376 22.7773 21.0039 24.6851 20.404C26.5929 19.804 28.1844 19.3131 28.2219 19.3131C28.2678 19.3131 28.29 20.8713 28.29 24.0924V28.8717L23.0595 30.615C20.1827 31.5737 17.7916 32.3719 17.7459 32.3887C17.6798 32.413 17.6629 30.9982 17.6629 25.4541C17.6629 21.5626 17.688 18.5169 17.72 18.5522C17.7514 18.5869 18.3074 19.2807 18.9555 20.0938ZM16.3073 32.3214C16.292 32.3368 14.2071 31.5733 11.6742 30.6248L7.06896 28.9003L7.05189 24.2397C7.04252 21.6762 7.04285 19.5789 7.05262 19.5789C7.06238 19.5789 8.63892 20.1023 10.556 20.7419C12.4731 21.3816 14.1078 21.9049 14.1886 21.9049C14.5492 21.9049 14.6739 21.7606 15.4917 20.3967L16.3013 19.0464L16.3182 25.67C16.3275 29.313 16.3226 32.3062 16.3073 32.3214ZM10.1243 24.6235C9.91324 24.7139 9.75636 24.9265 9.71571 25.1772C9.68436 25.3702 9.71139 25.4462 9.87777 25.6324C10.043 25.8175 10.1245 25.8561 10.3499 25.8561C11.1283 25.8561 11.2238 24.7274 10.4564 24.5997C10.3468 24.5814 10.1973 24.5921 10.1243 24.6235ZM12.574 25.5315C12.1774 25.7289 12.0908 26.2542 12.4066 26.5468C12.6167 26.7414 14.0288 27.2935 14.3391 27.3024C14.8869 27.3179 15.1818 26.6672 14.8243 26.2317C14.7135 26.0968 13.4143 25.5601 12.9803 25.4698C12.8566 25.4441 12.7026 25.4675 12.574 25.5315ZM10.0172 27.454C9.66523 27.6454 9.60897 28.1884 9.91185 28.4704C10.1059 28.651 14.0997 30.1455 14.3885 30.1455C14.9642 30.1455 15.2038 29.3519 14.734 29.001C14.5142 28.8367 10.5675 27.3551 10.3567 27.3577C10.2654 27.3587 10.1126 27.4021 10.0172 27.454Z" fill="#8ED14B"/>
</svg>
