<svg width="34" height="38" viewBox="0 0 34 38" fill="none" xmlns="http://www.w3.org/2000/svg">
<path fill-rule="evenodd" clip-rule="evenodd" d="M4.79271 0.109959C3.68432 0.350768 2.90797 0.723387 2.09609 1.40398C1.23273 2.12782 0.548597 3.16484 0.207124 4.26739L0 4.9361V19.0161V33.0961L0.207124 33.7648C0.803051 35.6892 2.30722 37.1957 4.22854 37.7926L4.8962 38H9.90909H14.9219L15.2227 37.8006C15.6874 37.4927 15.8756 37.131 15.8756 36.5457C15.8756 36.1402 15.8417 36.0061 15.6765 35.7561C15.5671 35.5905 15.3501 35.3755 15.1943 35.2786L14.9112 35.1023L10.0891 35.0651L5.26712 35.028L4.84041 34.8554C4.01592 34.522 3.39166 33.868 3.1007 33.0329C2.97429 32.6701 2.96739 31.9454 2.96739 19.0161C2.96739 6.08687 2.97429 5.36214 3.1007 4.99933C3.39166 4.16426 4.01592 3.51027 4.84041 3.17688L5.26712 3.00428H15.0224H24.7777L25.1973 3.17413C25.9696 3.48693 26.5956 4.11389 26.9079 4.88743L27.0775 5.3076L27.1146 13.7463L27.1517 22.1848L27.3507 22.486C27.6118 22.8812 27.9854 23.1041 28.4671 23.1521C28.7991 23.1852 28.9189 23.1589 29.2634 22.9772C29.5933 22.8031 29.7073 22.6894 29.8754 22.3672L30.082 21.9712L30.081 13.7137C30.08 5.90758 30.0723 5.41898 29.9397 4.77561C29.6848 3.5385 29.123 2.52682 28.2069 1.65519C27.3258 0.817006 26.4539 0.363548 25.2399 0.112411C24.7391 0.00883528 23.5374 -0.00424167 14.9699 0.000959398C6.98955 0.00586326 5.18293 0.0251815 4.79271 0.109959ZM6.91292 8.98676C6.348 9.15661 5.8977 9.78743 5.8977 10.409C5.8977 10.8581 6.16172 11.343 6.55891 11.6232L6.87486 11.8461L14.9066 11.8659L22.9383 11.8858L23.3362 11.6776C23.659 11.5088 23.7731 11.3947 23.9406 11.0734C24.2044 10.5676 24.2044 10.2268 23.9406 9.721C23.7734 9.4004 23.6587 9.28553 23.3386 9.11805L22.9433 8.9112L15.0325 8.91759C10.6816 8.92108 7.02775 8.95221 6.91292 8.98676ZM6.91292 14.9308C6.348 15.1007 5.8977 15.7315 5.8977 16.353C5.8977 16.8022 6.16172 17.2871 6.55891 17.5673L6.87486 17.7902L14.9066 17.81L22.9383 17.8299L23.3362 17.6217C23.659 17.4528 23.7731 17.3388 23.9406 17.0175C24.2044 16.5117 24.2044 16.1709 23.9406 15.6651C23.7734 15.3445 23.6587 15.2296 23.3386 15.0621L22.9433 14.8553L15.0325 14.8617C10.6816 14.8652 7.02775 14.8963 6.91292 14.9308ZM6.91292 20.8739C6.34637 21.047 5.8977 21.6759 5.8977 22.2971C5.8977 22.7463 6.16172 23.2311 6.55891 23.5113L6.87486 23.7342H12.0112H17.1475L17.4483 23.5349C17.9113 23.2279 18.1011 22.8648 18.1011 22.2854C18.1011 21.706 17.9113 21.3428 17.4484 21.0358L17.1477 20.8365L12.1347 20.8233C9.37756 20.816 7.02775 20.8388 6.91292 20.8739ZM32.0479 24.0145C31.9255 24.0647 31.7521 24.1477 31.6626 24.199C31.5732 24.2502 29.7921 26.6823 27.7047 29.6036C24.1544 34.5722 23.8912 34.9206 23.627 34.9999C23.4716 35.0465 23.2558 35.0623 23.1474 35.035C23.0316 35.0059 22.2561 34.3193 21.2694 33.3721C20.345 32.4847 19.2011 31.3875 18.7275 30.9338C17.5381 29.7943 17.067 29.6385 16.2537 30.1159C15.8752 30.3381 15.5411 30.9161 15.5427 31.3461C15.5448 31.9454 15.7555 32.1975 18.2866 34.6279C20.962 37.197 21.1316 37.3466 21.662 37.608C22.2607 37.903 22.7217 38.0005 23.4795 37.9927C24.0237 37.9871 24.2857 37.9464 24.6294 37.8144C25.2076 37.5923 25.7408 37.2436 26.1214 36.8386C26.5596 36.3722 33.7122 26.3275 33.8856 25.9349C34.1628 25.3071 33.9217 24.5617 33.3204 24.1877C32.9271 23.943 32.398 23.871 32.0479 24.0145Z" fill="#511CE9"/>
</svg>
