<svg width="90" height="116" viewBox="0 0 90 116" fill="none" xmlns="http://www.w3.org/2000/svg">
<g filter="url(#filter0_d_808_76)">
<path d="M45 4L77.8369 19.8134L85.947 55.3459L63.2231 83.8407H26.7769L4.05303 55.3459L12.1631 19.8134L45 4Z" fill="white"/>
</g>
<path d="M36.219 101.091V112H34.573V101.091H36.219ZM41.9345 112.165C41.1675 112.165 40.4981 111.989 39.9264 111.638C39.3546 111.286 38.9107 110.794 38.5947 110.162C38.2786 109.53 38.1206 108.792 38.1206 107.946C38.1206 107.098 38.2786 106.355 38.5947 105.72C38.9107 105.084 39.3546 104.591 39.9264 104.239C40.4981 103.887 41.1675 103.712 41.9345 103.712C42.7016 103.712 43.371 103.887 43.9427 104.239C44.5144 104.591 44.9583 105.084 45.2744 105.72C45.5904 106.355 45.7484 107.098 45.7484 107.946C45.7484 108.792 45.5904 109.53 45.2744 110.162C44.9583 110.794 44.5144 111.286 43.9427 111.638C43.371 111.989 42.7016 112.165 41.9345 112.165ZM41.9399 110.828C42.437 110.828 42.8489 110.697 43.1756 110.434C43.5024 110.171 43.7438 109.821 43.9001 109.385C44.0599 108.948 44.1398 108.467 44.1398 107.941C44.1398 107.419 44.0599 106.94 43.9001 106.503C43.7438 106.062 43.5024 105.709 43.1756 105.443C42.8489 105.176 42.437 105.043 41.9399 105.043C41.4391 105.043 41.0237 105.176 40.6934 105.443C40.3667 105.709 40.1234 106.062 39.9636 106.503C39.8074 106.94 39.7293 107.419 39.7293 107.941C39.7293 108.467 39.8074 108.948 39.9636 109.385C40.1234 109.821 40.3667 110.171 40.6934 110.434C41.0237 110.697 41.4391 110.828 41.9399 110.828ZM46.5155 102.508V101.091H54.9583V102.508H51.5546V112H49.9139V102.508H46.5155Z" fill="black"/>
<path fill-rule="evenodd" clip-rule="evenodd" d="M39.4861 29.1085C35.6169 29.7335 32.461 31.2419 29.7833 33.7461C29.2276 34.2658 29.1809 34.3415 29.1809 34.7228C29.1809 35.2681 29.5837 35.6979 30.0948 35.6979C30.4558 35.6979 30.6346 35.5807 31.6295 34.6922C33.1969 33.2921 35.6632 31.9858 37.8078 31.4197C41.8945 30.3409 45.7281 30.7551 49.5204 32.6852C50.4895 33.1784 50.8026 33.2957 51.0314 33.2517C51.6438 33.1339 52.0002 32.4971 51.7654 31.9401C51.4576 31.2097 48.1314 29.7909 45.4623 29.2515C44.1966 28.9957 40.7024 28.9121 39.4861 29.1085ZM40.6708 33.6483C37.7503 34.005 34.7633 35.3756 33.0431 37.148C32.5927 37.6121 32.5056 37.7587 32.5056 38.0528C32.5056 38.5538 32.9368 38.9655 33.4615 38.9655C33.7926 38.9655 33.9388 38.8846 34.52 38.3804C37.6332 35.6793 41.7906 34.8199 45.6295 36.0839C47.091 36.5651 48.2248 37.2123 49.554 38.3241C50.2042 38.8679 50.3768 38.9655 50.6887 38.9655C51.1156 38.9655 51.5283 38.6494 51.632 38.2428C51.7342 37.8426 51.4643 37.4135 50.7084 36.774C48.7119 35.0852 46.4868 34.0889 43.8977 33.7247C43.0019 33.5987 41.3893 33.5604 40.6708 33.6483ZM53.3732 34.1026C52.9981 34.4712 52.9489 34.7947 53.2035 35.2183C53.7163 36.0716 54.9964 35.6911 54.9964 34.6855C54.9964 34.3103 54.4219 33.7758 54.0186 33.7758C53.7931 33.7758 53.6128 33.8671 53.3732 34.1026ZM23.0502 37.1466C21.9375 37.2927 20.8141 38.1308 20.3189 39.1844L20.0379 39.7824L20.0101 46.2064C19.9791 53.3834 19.9781 53.369 20.6398 54.3191C21.7687 55.9397 23.9722 56.3469 25.6309 55.2413C26.2259 54.8447 26.5512 54.4517 26.9134 53.6921L27.1763 53.141V46.5097V39.8785L26.951 39.3305C26.3238 37.8048 24.7495 36.9235 23.0502 37.1466ZM57.7084 37.244C56.3229 37.5648 55.3753 38.6994 55.3072 40.1187C55.2622 41.0577 55.5187 41.7631 56.1299 42.381C56.7782 43.0367 57.4831 43.3202 58.5869 43.369L59.4881 43.409L59.5158 48.5152L59.5435 53.6215L59.7871 54.0903C60.1244 54.7395 60.6839 55.276 61.3374 55.5771C62.0828 55.9206 63.2081 55.9333 63.9535 55.6067C64.8586 55.2102 65.5541 54.3153 65.7513 53.2938C65.8101 52.9886 65.8507 50.8673 65.8507 48.0938V43.4093L66.7552 43.3678C67.8551 43.3175 68.4372 43.0902 69.0967 42.4536C69.7571 41.8161 70.0037 41.2181 70 40.2629C69.9978 39.6938 69.9439 39.3786 69.7928 39.0498C69.5527 38.5275 68.9999 37.8995 68.5279 37.6128C67.7948 37.1674 67.4597 37.1412 62.6238 37.1502C60.1229 37.1549 57.9111 37.1971 57.7084 37.244ZM40.4366 38.4413C38.8074 38.7887 37.5349 39.4322 36.4045 40.4801C35.1973 41.5993 34.3887 42.9267 33.9609 44.4915C33.6665 45.5687 33.6673 47.4352 33.9628 48.5279C34.7496 51.4371 37.1318 53.7417 40.0841 54.4499C41.2823 54.7374 42.9813 54.736 44.0933 54.4466C47.0348 53.6814 49.2811 51.5069 50.1284 48.6046C50.311 47.9788 50.3464 47.6254 50.343 46.4617C50.3393 45.2234 50.309 44.9717 50.0706 44.2032C49.2627 41.5986 47.3373 39.6144 44.7587 38.729C43.4625 38.2839 41.7192 38.1679 40.4366 38.4413ZM24.4052 39.2176C24.7468 39.3862 25.0493 39.7727 25.1768 40.2038C25.2452 40.4354 25.2697 42.6048 25.25 46.709L25.2206 52.8669L24.9761 53.2216C24.6915 53.6346 24.0835 53.9579 23.5917 53.9579C23.0491 53.9579 22.4313 53.5825 22.1679 53.093L21.9406 52.6707L21.9671 46.3632L21.9936 40.0556L22.2666 39.704C22.7993 39.0177 23.6215 38.8306 24.4052 39.2176ZM67.4794 39.2631C68.2884 39.7545 68.2908 40.7923 67.4838 41.2758C67.2165 41.4361 66.988 41.4635 65.9176 41.4638C64.6217 41.4642 64.3664 41.5222 64.0683 41.8839C63.9128 42.0726 63.8992 42.5184 63.8971 47.5043C63.8952 52.3611 63.8782 52.9546 63.7317 53.2579C63.3665 54.0143 62.4089 54.1754 61.8051 53.5822L61.4992 53.2816L61.4503 47.6634L61.4014 42.0451L61.1305 41.7787C60.8645 41.5172 60.8329 41.5113 59.4192 41.4627C58.4216 41.4283 57.9148 41.3716 57.7702 41.2783C57.4559 41.0753 57.2455 40.6613 57.2455 40.2454C57.2455 39.8126 57.438 39.5038 57.8681 39.2459C58.158 39.0722 58.4169 39.0622 62.6611 39.062C67.0462 39.0616 67.1553 39.0661 67.4794 39.2631ZM43.5937 40.4044C44.7647 40.6987 45.6363 41.1944 46.5474 42.0844C47.9 43.4054 48.5147 44.9733 48.4159 46.8505C48.3313 48.4572 47.7428 49.7358 46.5379 50.9296C45.3416 52.115 43.8136 52.7381 42.0887 52.744C40.9524 52.7477 40.3194 52.6077 39.3018 52.1273C37.9385 51.4839 36.9766 50.5386 36.3235 49.2007C35.8171 48.1632 35.6836 47.5602 35.6958 46.3656C35.7087 45.1029 36.009 44.1154 36.6931 43.0854C38.1933 40.8269 40.975 39.7461 43.5937 40.4044ZM41.4804 43.0038C40.347 43.194 39.3122 43.9621 38.795 44.9971C38.5515 45.4847 38.5195 45.6547 38.5195 46.4631C38.5195 47.3005 38.5463 47.4311 38.8373 48.0126C39.4258 49.1884 40.5268 49.9135 41.8507 49.997C44.1488 50.1419 45.9498 48.1698 45.5882 45.9043C45.285 44.004 43.4101 42.68 41.4804 43.0038ZM42.8925 45.0791C43.333 45.303 43.6758 45.8995 43.6758 46.4424C43.6758 47.8089 42.1527 48.5833 41.0666 47.7691C40.4805 47.3298 40.2447 46.4093 40.5643 45.8081C41.0239 44.9436 42.015 44.6332 42.8925 45.0791ZM33.0924 54.0643C32.4538 54.3106 32.3094 55.077 32.7985 55.6244C33.4368 56.3389 35.0207 57.4461 36.3428 58.102C39.3026 59.5704 43.5145 59.7612 46.67 58.5697C48.6336 57.8283 50.9692 56.2794 51.505 55.3632C51.9307 54.6354 51.1732 53.747 50.3798 54.0435C50.2421 54.0949 49.8535 54.379 49.5162 54.6748C46.7156 57.1307 42.8199 58.0336 39.1551 57.0761C37.4038 56.6185 36.1621 55.9554 34.5591 54.6217C33.7452 53.9445 33.5728 53.8791 33.0924 54.0643ZM29.8974 57.3014C29.213 57.403 28.9293 58.4016 29.4498 58.8762C29.8037 59.1989 30.1162 59.2637 30.52 59.0979C30.899 58.9423 31.1758 58.4216 31.0797 58.0451C30.9545 57.5548 30.4267 57.2227 29.8974 57.3014ZM53.6763 57.3694C53.515 57.442 53.0309 57.8094 52.6007 58.186C48.4167 61.848 42.3703 63.0626 37.044 61.3109C35.9972 60.9666 34.7132 60.3915 33.9059 59.9053C33.5039 59.6632 33.0758 59.4854 32.8281 59.4578C32.4689 59.4177 32.3797 59.4487 32.1192 59.7047C31.677 60.1393 31.7016 60.6033 32.1911 61.0605C32.5771 61.4211 34.4411 62.4064 35.5388 62.8301C36.4631 63.1869 38.079 63.6243 39.204 63.8222C40.5583 64.0605 43.3936 64.059 44.8756 63.8193C48.421 63.2456 51.7587 61.6351 54.2915 59.2756C54.921 58.6891 54.9964 58.5805 54.9964 58.26C54.9964 58.0007 54.9219 57.8234 54.7275 57.6206C54.3974 57.2763 54.0621 57.1961 53.6763 57.3694Z" fill="#FE4EE2"/>
<defs>
<filter id="filter0_d_808_76" x="0.0546875" y="0" width="89.8906" height="87.8408" filterUnits="userSpaceOnUse" color-interpolation-filters="sRGB">
<feFlood flood-opacity="0" result="BackgroundImageFix"/>
<feColorMatrix in="SourceAlpha" type="matrix" values="0 0 0 0 0 0 0 0 0 0 0 0 0 0 0 0 0 0 127 0" result="hardAlpha"/>
<feOffset/>
<feGaussianBlur stdDeviation="2"/>
<feComposite in2="hardAlpha" operator="out"/>
<feColorMatrix type="matrix" values="0 0 0 0 0 0 0 0 0 0 0 0 0 0 0 0 0 0 0.25 0"/>
<feBlend mode="normal" in2="BackgroundImageFix" result="effect1_dropShadow_808_76"/>
<feBlend mode="normal" in="SourceGraphic" in2="effect1_dropShadow_808_76" result="shape"/>
</filter>
</defs>
</svg>
