<svg width="18" height="18" viewBox="0 0 18 18" fill="none" xmlns="http://www.w3.org/2000/svg">
<path d="M1.60577 4.73094L9 0.46188L16.3942 4.73094V13.2691L9 17.5381L1.60577 13.2691V4.73094Z" stroke="#410EAD" stroke-width="0.8"/>
<path fill-rule="evenodd" clip-rule="evenodd" d="M9.82342 5.0324L9.78226 5.06478V5.31968V5.57456L9.64558 5.61624C9.57042 5.63915 9.42626 5.69755 9.32526 5.74603L9.1416 5.83416L8.96448 5.65931C8.80931 5.50614 8.78083 5.48448 8.73463 5.48448C8.68693 5.48448 8.65245 5.51395 8.37298 5.79357C8.09307 6.07363 8.06404 6.10764 8.06404 6.1556C8.06404 6.20215 8.08544 6.2302 8.24061 6.38703L8.41718 6.5655L8.3425 6.71043C8.30142 6.79013 8.24333 6.92842 8.2134 7.01776L8.15898 7.18015L7.90706 7.18796L7.65514 7.19578L7.61748 7.23963C7.58344 7.27925 7.57982 7.29766 7.57982 7.43064V7.5778L6.56061 7.58214C5.54964 7.58646 5.54089 7.58675 5.47891 7.62028C5.44455 7.63887 5.39394 7.67755 5.36646 7.70623C5.26145 7.81585 5.26804 7.67632 5.26804 9.7877V11.7008L5.17196 11.7078C5.09046 11.7136 5.07013 11.7214 5.03794 11.7588L5 11.803L5.00515 12.1571L5.01031 12.5112L5.06851 12.6289C5.13966 12.7729 5.24363 12.875 5.38952 12.9441L5.49453 12.9939L8.43112 12.9987C10.6163 13.0022 11.3897 12.9988 11.4536 12.9853C11.6998 12.9334 11.8995 12.7343 11.9515 12.4891C11.9612 12.4435 11.9691 12.2699 11.9691 12.1032C11.9691 11.8076 11.9682 11.799 11.9324 11.7574C11.9016 11.7216 11.8802 11.7136 11.7996 11.7078L11.7035 11.7008V10.7884C11.7035 10.2866 11.7077 9.87604 11.7128 9.87604C11.7179 9.87604 11.7399 9.8901 11.7617 9.90729C11.7836 9.92448 11.8232 9.93855 11.8497 9.93855C11.8915 9.93855 11.9388 9.89768 12.2068 9.62945C12.4863 9.34983 12.5158 9.31534 12.5158 9.26761C12.5158 9.22138 12.4941 9.19289 12.341 9.03764L12.1663 8.86043L12.2544 8.67667C12.3028 8.57562 12.3612 8.4314 12.3841 8.35618L12.4257 8.21943H12.6805H12.9353L12.9676 8.17825C12.9986 8.13889 13 8.1184 13 7.71028V7.28348L12.9623 7.23963L12.9247 7.19578L12.6696 7.18796C12.43 7.18062 12.4143 7.17826 12.4091 7.14889C12.3947 7.06727 12.3188 6.86772 12.2469 6.72237L12.1673 6.56152L12.3416 6.38486C12.4942 6.2301 12.5158 6.20163 12.5158 6.15542C12.5158 6.10769 12.4863 6.0732 12.2068 5.79357C11.9274 5.51395 11.8929 5.48448 11.8452 5.48448C11.799 5.48448 11.7705 5.50611 11.6159 5.65878L11.4393 5.8331L11.2785 5.75319C11.1901 5.70924 11.0497 5.65125 10.9665 5.62432L10.8153 5.57537L10.8103 5.32537L10.8054 5.07536L10.7615 5.03768L10.7177 5H10.2911C9.88324 5 9.86276 5.00142 9.82342 5.0324ZM10.5476 5.49142C10.5476 5.77568 10.5502 5.77973 10.7662 5.83718C10.9626 5.88941 11.149 5.96672 11.289 6.05401C11.4627 6.16236 11.4732 6.15976 11.676 5.95741L11.8443 5.78957L12.0276 5.97294L12.2108 6.15631L12.0431 6.32466C11.8408 6.52764 11.8383 6.53809 11.9465 6.71194C12.0338 6.85197 12.1111 7.0385 12.1633 7.23499C12.2207 7.45108 12.2247 7.45365 12.5088 7.45365H12.7345V7.71151V7.96938H12.5031C12.2385 7.96938 12.2182 7.97768 12.1878 8.09838C12.1245 8.3494 12.0115 8.62182 11.9075 8.77424C11.89 8.80003 11.8755 8.84503 11.8755 8.87424C11.8754 8.92077 11.8957 8.94806 12.0391 9.09359L12.2028 9.25981L12.0193 9.44293L11.8358 9.62604L11.6798 9.46843C11.5941 9.38174 11.5068 9.30407 11.486 9.29582C11.4559 9.28394 11.4331 9.28908 11.3766 9.32051C11.0979 9.47543 10.9261 9.54514 10.661 9.61073C10.5607 9.63555 10.5476 9.67316 10.5476 9.93777V10.1573H10.2899H10.0322V9.92222C10.0322 9.69654 10.0307 9.6856 9.99563 9.65052C9.97485 9.62972 9.92938 9.60893 9.89019 9.6023C9.77293 9.58249 9.52816 9.49331 9.39841 9.42313C9.33032 9.38629 9.24527 9.34037 9.2094 9.32111C9.17173 9.30085 9.12815 9.28911 9.1062 9.2933C9.0848 9.2974 8.99739 9.37166 8.90612 9.46331L8.74403 9.62603L8.56025 9.44262L8.37646 9.25922L8.54142 9.09363C8.67288 8.96172 8.70665 8.91879 8.70764 8.8824C8.7084 8.85433 8.6781 8.78308 8.62896 8.69743C8.52457 8.51547 8.46434 8.36845 8.41635 8.17857C8.36272 7.96624 8.36781 7.96938 8.07793 7.96938H7.84536V7.71151V7.45365H8.06507C8.34113 7.45365 8.37838 7.43717 8.40083 7.30518C8.42901 7.13953 8.52848 6.8987 8.67949 6.63046C8.70133 6.59168 8.71326 6.54981 8.70895 6.5272C8.70486 6.50577 8.63069 6.41838 8.53903 6.327L8.3764 6.16483L8.55942 5.98124L8.74242 5.79765L8.90856 5.96144C9.0952 6.14546 9.13116 6.1594 9.23583 6.08828C9.38538 5.98663 9.66457 5.87117 9.90325 5.81225C10.0238 5.78249 10.0322 5.76194 10.0322 5.49715V5.26568H10.2899H10.5476V5.49142ZM10.0556 6.04774C9.81642 6.08492 9.55587 6.1866 9.34925 6.32337C9.23024 6.40217 9.04984 6.57462 8.95278 6.70236C8.85492 6.83117 8.71567 7.11234 8.67398 7.26532C8.46101 8.04674 8.83904 8.87059 9.57138 9.22108C9.93604 9.39561 10.3496 9.43368 10.7359 9.32829C10.8889 9.28653 11.1698 9.14724 11.2989 9.04909C12.1246 8.42109 12.1936 7.21033 11.4442 6.49977C11.2043 6.27232 10.9494 6.13652 10.635 6.06859C10.4996 6.03933 10.183 6.02794 10.0556 6.04774ZM10.5756 6.32192C11.1308 6.43616 11.5675 6.87671 11.6808 7.43675C11.7164 7.61288 11.7054 7.92706 11.6579 8.09144C11.5798 8.36131 11.3977 8.63629 11.1823 8.80964C11.0605 8.90767 10.8153 9.04019 10.7234 9.05763L10.6726 9.06727V8.80793V8.54858L10.7591 8.49321C10.9374 8.37912 11.077 8.19894 11.1428 7.99795C11.1967 7.83329 11.1967 7.55848 11.1428 7.39382C11.0703 7.17251 10.9051 6.97448 10.7053 6.86943C10.5724 6.79959 10.5013 6.79521 10.4551 6.85407C10.4243 6.89314 10.4227 6.9145 10.4227 7.27278V7.65031L10.3546 7.71719L10.2864 7.78408L10.2219 7.70873L10.1573 7.63337L10.1572 7.25929C10.1571 6.89681 10.1561 6.8841 10.1232 6.84905C10.0738 6.79649 10.0021 6.80237 9.87454 6.86941C9.71345 6.95412 9.57712 7.09857 9.49336 7.27328C9.41454 7.43771 9.39166 7.53412 9.39199 7.70056C9.39228 7.86092 9.42584 7.99473 9.50284 8.14282C9.5751 8.28181 9.72465 8.44286 9.83661 8.50229L9.90722 8.53977V8.80156C9.90722 9.10637 9.9191 9.09206 9.73335 9.01091C9.28365 8.81447 8.96828 8.41022 8.89107 7.93128C8.86739 7.78445 8.87976 7.49983 8.91589 7.35988C8.95492 7.20872 9.06946 6.97648 9.16932 6.84602C9.37056 6.58309 9.6724 6.39145 9.99313 6.32303C10.1408 6.29152 10.4253 6.29099 10.5756 6.32192ZM10.0758 7.92478C10.2955 8.14681 10.2829 8.14678 10.5039 7.92562L10.6726 7.75683V7.45352V7.15021L10.7418 7.21819C10.7799 7.25559 10.8324 7.32959 10.8585 7.38265C11.0309 7.73303 10.8972 8.13665 10.5508 8.31164C10.4981 8.33821 10.4478 8.37358 10.4389 8.39025C10.4291 8.40861 10.4227 8.55946 10.4227 8.77321V9.12588H10.2899H10.1571V8.77321C10.1571 8.55946 10.1508 8.40861 10.1409 8.39025C10.132 8.37358 10.0826 8.33868 10.0311 8.31267C9.81712 8.20459 9.68333 8.01316 9.64924 7.76621C9.62624 7.59979 9.70662 7.36183 9.83169 7.22604L9.89941 7.1525L9.90366 7.45382L9.9079 7.75513L10.0758 7.92478ZM7.58226 8.00204C7.58975 8.22204 7.58583 8.21943 7.90748 8.21943H8.15358L8.2037 8.37762C8.23127 8.46463 8.29082 8.6083 8.33602 8.69689L8.41821 8.85799L8.24839 9.0271C8.155 9.12011 8.07452 9.21216 8.06954 9.23166C8.06457 9.25118 8.06871 9.28697 8.07876 9.31123C8.10211 9.36765 8.65353 9.91567 8.70169 9.93033C8.76678 9.95014 8.80364 9.92636 8.97501 9.7541L9.14403 9.58419L9.30505 9.66643C9.3936 9.71166 9.53719 9.77123 9.62415 9.79882L9.78226 9.84897V10.0952C9.78226 10.3143 9.78555 10.3455 9.81209 10.3783L9.84194 10.4152L10.279 10.4198L10.7161 10.4244L10.7607 10.386L10.8054 10.3477L10.8132 10.0956L10.821 9.84356L10.9833 9.78911C11.0726 9.75917 11.2113 9.70078 11.2917 9.65933C11.372 9.6179 11.4413 9.58758 11.4456 9.59197C11.45 9.59635 11.4536 10.0735 11.4536 10.6522V11.7045H8.48579H5.51796V9.81282V7.92107L5.55631 7.88272L5.59464 7.84435H6.58577H7.5769L7.58226 8.00204ZM5.85091 8.11014C5.83215 8.11771 5.80929 8.1379 5.80014 8.15501C5.78868 8.17644 5.78351 8.68267 5.78351 9.78195V11.3778L5.82185 11.4161L5.86018 11.4545H8.48579H11.1114L11.1497 11.4161L11.1881 11.3778V11.0254V10.6731H11.0631H10.9381V10.9309V11.1888H8.48579H6.03343V9.77462V8.36043L6.67776 8.35635L7.32209 8.35227L7.32662 8.22334L7.33116 8.09441L6.60809 8.09539C6.21042 8.09594 5.86968 8.10258 5.85091 8.11014ZM6.81443 12.0801C6.81443 12.1406 6.8241 12.2132 6.83591 12.2415C6.86654 12.3148 6.94936 12.404 7.02382 12.4439L7.08779 12.4781H8.48579H9.88379L9.9485 12.4435C10.0303 12.3997 10.1155 12.3009 10.139 12.2225C10.149 12.1892 10.1571 12.1188 10.1571 12.0661V11.9702H10.9314H11.7056L11.7007 12.2255C11.6958 12.4785 11.6953 12.4814 11.6485 12.5572C11.6192 12.6045 11.572 12.6516 11.5247 12.6809L11.4483 12.7282L8.49834 12.7322L5.54844 12.7363L5.48243 12.7031C5.39207 12.6577 5.34959 12.6161 5.30555 12.5295C5.27073 12.461 5.26804 12.4384 5.26804 12.213V11.9702H6.04124H6.81443V12.0801ZM9.90403 12.0663C9.8918 12.2353 10.0307 12.2203 8.48335 12.2203H7.14103L7.1027 12.1819C7.07121 12.1504 7.06436 12.1281 7.06436 12.0569V11.9702H8.48766H9.91097L9.90403 12.0663Z" fill="#410EAD"/>
</svg>
