<svg width="35" height="35" viewBox="0 0 35 35" fill="none" xmlns="http://www.w3.org/2000/svg">
<path fill-rule="evenodd" clip-rule="evenodd" d="M2.64002 0.114718C1.73822 0.333025 0.858641 1.01296 0.427976 1.82481C-0.0272286 2.68293 0.00114051 1.64355 4.676e-05 17.4832C-0.000705193 27.8385 0.0204179 31.9513 0.0756522 32.2124C0.275603 33.1572 1.005 34.1379 1.83816 34.5819C2.67085 35.0256 1.67013 34.9989 17.4786 35C27.8354 35.0007 31.9489 34.9796 32.21 34.9244C33.155 34.7245 34.1358 33.9952 34.5798 33.1621C35.0236 32.3296 34.9969 33.3301 34.998 17.5241C34.9987 7.36142 34.9771 3.05113 34.924 2.79489C34.6537 1.48942 33.6136 0.414907 32.3266 0.111574C31.6869 -0.0392035 3.26359 -0.0361961 2.64002 0.114718ZM28.0947 16.0004C28.5574 16.1018 29.4889 16.5278 29.9123 16.8319C30.2651 17.0852 30.9266 17.8355 31.1544 18.2409L31.304 18.5069L30.0326 19.3169L28.7614 20.1268L28.6172 19.9259C28.0182 19.0911 27.4891 18.7843 26.6487 18.7843C25.6916 18.7843 25.1594 19.2129 25.1002 20.0315C25.0612 20.571 25.1704 20.8527 25.5603 21.2173C25.9255 21.5588 26.3565 21.7903 27.9865 22.5203C29.2881 23.1032 29.8908 23.4458 30.5845 23.997C31.7639 24.934 32.3366 26.2918 32.2421 27.9269C32.1713 29.1518 31.8507 29.8765 31.0003 30.7342C30.3872 31.3524 29.7333 31.7206 28.7413 32.0062C28.2506 32.1474 28.0566 32.1626 26.7617 32.1614C25.3951 32.1601 25.2966 32.1511 24.7109 31.9731C23.5107 31.6084 22.4918 30.9948 21.7637 30.1983C21.3737 29.7716 20.9033 29.0913 20.891 28.9361C20.8858 28.8714 21.3607 28.5528 22.1732 28.0757L23.4636 27.3182L23.6725 27.5884C24.1317 28.1822 24.78 28.7563 25.2563 28.9907C25.732 29.2248 25.736 29.2255 26.6919 29.2233C27.7693 29.2207 27.9632 29.1665 28.4425 28.7335C28.8253 28.3878 28.9386 28.1403 28.9397 27.6472C28.9409 27.1234 28.7092 26.6941 28.2573 26.3833C27.9403 26.1653 26.9414 25.6759 25.4785 25.0221C23.4932 24.1349 22.3559 23.0045 21.9663 21.5313C21.825 20.9968 21.808 19.5367 21.9377 19.0757C22.1315 18.3875 22.5056 17.7574 23.0345 17.2289C23.7075 16.5563 24.3695 16.2044 25.4287 15.9564C25.8807 15.8505 27.5353 15.8778 28.0947 16.0004ZM19.0656 20.6648C19.0625 23.1929 19.0367 26.0456 19.0083 27.0042C18.9574 28.7278 18.9545 28.7533 18.7448 29.3125C18.4862 30.0023 18.0106 30.734 17.5805 31.1034C17.1926 31.4366 16.3833 31.8674 15.8242 32.0382C15.3018 32.1978 13.241 32.2191 12.6455 32.071C11.7247 31.8421 10.6156 31.1639 10.0176 30.4639C9.72567 30.1223 9.22754 29.3578 9.22754 29.2515C9.22754 29.2058 11.7843 27.6193 11.858 27.6193C11.8752 27.6193 12.0012 27.7961 12.1377 28.0123C12.4581 28.5192 12.8151 28.8918 13.1582 29.0775C13.3851 29.2003 13.5422 29.2252 14.0811 29.2233C14.9705 29.2204 15.2804 29.0412 15.5843 28.3545C15.7243 28.038 15.7278 27.9194 15.7697 22.0501L15.8123 16.0683H17.4418H19.0713L19.0656 20.6648Z" fill="white"/>
</svg>
