<svg width="79" height="148" viewBox="0 0 79 148" fill="none" xmlns="http://www.w3.org/2000/svg">
<path fill-rule="evenodd" clip-rule="evenodd" d="M49.4792 0.104625C49.5477 0.337668 49.7904 1.60958 49.8878 2.24553C49.9446 2.61643 49.9786 3.47954 49.9778 4.52683C49.9766 5.94853 49.9527 6.34295 49.8246 7.0538C49.1541 10.7762 47.2464 14.0226 43.7054 17.4675C42.4754 18.6641 41.1243 19.834 39.0822 21.4708C32.7164 26.5731 32.4751 26.776 30.8261 28.4151C27.6046 31.6169 26.2752 33.9195 26.138 36.5351C25.9194 40.7044 28.8167 45.4611 35.527 51.9493C37.177 53.5447 39.3781 55.5912 39.4098 55.5592C39.4484 55.5203 38.7452 54.1551 38.3374 53.4776C37.7427 52.4895 37.4064 51.9785 36.2861 50.3616C33.5752 46.449 32.5919 44.7472 31.9414 42.8416C31.4738 41.472 31.375 40.8471 31.3771 39.2727C31.3787 38.0383 31.3987 37.7883 31.5429 37.202C32.1911 34.5656 33.6454 32.2128 36.2321 29.6159C37.2068 28.6374 38.0313 27.9044 39.4845 26.7244C42.9919 23.8764 45.6181 21.2837 47.6206 18.6923C50.1701 15.3927 51.6945 11.9698 52.0432 8.76147C52.2161 7.1706 52.0181 5.17478 51.5408 3.69861C51.1456 2.47612 50.1105 0.569237 49.5861 0.0974649C49.4404 -0.033727 49.4387 -0.0335867 49.4792 0.104625ZM61.7547 20.7418C61.7164 20.7551 61.0934 20.9435 60.3704 21.1605C54.0877 23.0454 48.1679 26.0517 44.571 29.184C41.9028 31.5077 40.3447 33.9299 39.757 36.6682C39.5376 37.6904 39.5378 39.4447 39.7574 40.55C40.2558 43.0588 41.5605 45.5216 43.8721 48.3169C44.8862 49.543 45.351 50.352 45.6616 51.4311C46.3261 53.7396 45.5142 56.3293 43.438 58.5244L42.8024 59.1963L43.1508 58.9968C43.3424 58.8872 43.8911 58.5381 44.3701 58.2212C47.8463 55.9214 50.0754 53.2554 50.7281 50.6172C50.9464 49.7348 50.9441 48.3529 50.7229 47.4853C50.4625 46.4645 49.9375 45.4738 48.8244 43.9037C45.9543 39.8549 45.2796 38.4331 45.2776 36.4298C45.2766 35.3637 45.4636 34.6314 46.0202 33.5217C47.6215 30.3289 52.3422 26.4579 60.7444 21.4477C61.3767 21.0707 61.9072 20.7496 61.9231 20.7343C61.9568 20.702 61.8563 20.7065 61.7547 20.7418ZM66.5017 55.0012C64.926 55.2481 63.794 55.6987 63.153 56.3342C62.934 56.5513 62.7676 56.7419 62.7834 56.7577C62.7991 56.7734 62.9905 56.7245 63.2087 56.6489C64.754 56.1132 66.3376 55.9814 67.538 56.2886C69.1407 56.6988 70.5362 57.6579 71.3658 58.9196C72.1041 60.0425 72.349 60.9416 72.2926 62.3225C72.2522 63.3114 72.0717 64.0565 71.6492 64.9777C70.2499 68.0286 66.772 71.1361 61.6139 73.9439C61.0838 74.2326 60.8011 74.4323 60.6951 74.5932C60.6108 74.7211 60.5517 74.8258 60.5638 74.8258C60.6471 74.8258 62.6746 74.2225 63.3573 73.9945C66.8782 72.8191 69.6299 71.4495 71.8929 69.7461C72.7349 69.1124 74.317 67.5194 74.8332 66.7857C75.8942 65.2775 76.4916 63.5608 76.4916 62.0196C76.4916 61.3922 76.3189 60.4743 76.0708 59.7837C75.3241 57.7047 73.2817 55.9106 70.8984 55.2401C69.6501 54.8889 67.8449 54.7908 66.5017 55.0012ZM26.2539 55.8545C22.1219 56.0279 17.2627 57.2544 13.0007 59.1995C11.2369 60.0045 10.633 60.4097 10.3647 60.968C10.2288 61.2508 10.2196 61.3243 10.2901 61.5613C10.8474 63.4355 19.2204 64.753 30.5739 64.753C32.6815 64.753 36.7568 64.6676 37.1585 64.615C37.2734 64.6 37.7908 64.5687 38.3082 64.5456C43.8783 64.2964 50.6818 63.3956 55.1353 62.3176C56.1175 62.0798 56.3853 61.9868 56.7031 61.7729C57.3229 61.3556 58.1397 60.9027 59.4902 60.2274C60.1872 59.8789 60.741 59.5938 60.7208 59.5938C60.7006 59.5938 60.0157 59.7024 59.1987 59.8353C50.7392 61.211 43.8859 61.8784 35.2075 62.1718C32.7878 62.2537 26.6939 62.2295 24.9997 62.1313C20.88 61.8927 18.4853 61.4265 17.7474 60.7194C17.4288 60.414 17.4019 60.2144 17.6329 59.8691C18.2899 58.8868 21.7512 57.4627 26.502 56.2197C27.1128 56.0599 27.6596 55.9007 27.7171 55.8661C27.8145 55.8074 27.446 55.8044 26.2539 55.8545ZM22.7352 67.7069C21.6513 68.1172 20.3151 68.7672 19.6989 69.1837C19.4304 69.3651 19.0401 69.6993 18.8315 69.9263C18.0477 70.7792 18.0885 71.6108 18.9537 72.4143C20.6609 73.9995 25.8574 75.2389 31.9326 75.5099C33.7142 75.5894 38.3756 75.5637 39.8759 75.466C45.1488 75.1228 50.0154 74.3687 54.644 73.1772C55.6041 72.9301 56.5306 72.6824 56.7031 72.6267L57.0166 72.5255L56.7031 72.3973C55.5938 71.9437 54.329 71.182 53.3853 70.3994L52.8894 69.9882L51.9569 70.1624C47.9688 70.9074 43.8785 71.4604 40.8514 71.6638C40.2382 71.705 39.5484 71.7545 39.3185 71.7735C38.5003 71.8416 34.2098 71.864 32.8667 71.8072C29.8534 71.6798 25.4419 71.2764 24.4692 71.0394C23.2837 70.7505 22.675 70.4044 22.4203 69.8743C22.14 69.2911 22.3487 68.7172 23.1402 67.8942C23.4094 67.6143 23.6165 67.3864 23.6005 67.3878C23.5845 67.3892 23.195 67.5328 22.7352 67.7069ZM25.0345 78.8289C22.8331 79.5682 21.4589 80.5708 21.2721 81.574C21.1644 82.1521 21.5871 82.9458 22.3093 83.5218C24.3413 85.1421 28.463 86.2955 33.9184 86.7705C35.4006 86.8996 39.5557 86.8789 41.2178 86.7343C46.0411 86.3144 50.2198 85.3673 54.1916 83.7933C55.2558 83.3716 55.2662 83.3654 55.0626 83.2737C54.9493 83.2225 54.5117 83.0354 54.0902 82.8578C53.1981 82.482 51.1397 81.4556 50.302 80.9688L49.7217 80.6316L48.1085 80.9226C45.093 81.4665 42.3927 81.8252 40.1198 81.9838C36.9866 82.2025 31.3045 81.9216 27.8913 81.3793C26.5423 81.165 25.5278 80.782 25.1681 80.3513C24.8239 79.9392 25.0361 79.3104 25.697 78.7834C25.8608 78.6529 25.9669 78.5465 25.9327 78.5471C25.8986 78.5477 25.4944 78.6745 25.0345 78.8289ZM14.5275 85.9178C11.6981 86.1728 7.86445 87.3258 5.28679 88.6972C2.71547 90.0651 1.65636 91.4749 2.40157 92.5375C3.04163 93.4503 4.78316 94.0551 8.38153 94.6146C15.1539 95.6677 21.9272 96.3108 29.1107 96.5827C30.737 96.6444 40.3816 96.6253 40.7817 96.5597C40.8967 96.5409 41.5081 96.5059 42.1404 96.4821C48.1321 96.2561 55.506 95.358 60.6399 94.2288C68.6823 92.4598 73.0963 90.0313 71.8832 88.0428C71.68 87.7097 71.1315 87.2396 70.6355 86.9732L70.1982 86.7384L70.3753 86.9766C70.7857 87.5284 70.8979 87.9722 70.7513 88.4631C70.289 90.0103 67.3439 91.1697 61.3715 92.1555C55.5225 93.1211 46.6857 93.8131 38.8307 93.9208C34.9426 93.9741 28.4173 93.9124 27.6823 93.8154C27.5673 93.8002 26.9872 93.7687 26.3932 93.7452C25.7992 93.7218 24.6548 93.6559 23.85 93.5986C17.6225 93.1554 13.0341 92.3872 10.1943 91.312C9.25612 90.9568 8.75716 90.6478 8.60826 90.3296C8.43839 89.9665 8.52353 89.7254 8.98145 89.2732C9.53267 88.729 10.9444 88.0311 12.6319 87.4688C14.4511 86.8626 15.3914 86.6685 17.6835 86.4262C18.1575 86.3761 18.1914 86.3625 18.0479 86.2808C17.4925 85.9644 15.8685 85.797 14.5275 85.9178ZM76.1084 92.4261C75.2421 93.39 73.1762 94.5237 70.6419 95.4257C64.4533 97.6281 54.459 99.2635 44.2656 99.7416C43.3842 99.7829 42.4279 99.8331 42.1404 99.8531C41.853 99.873 39.5798 99.9011 37.0888 99.9153C32.9669 99.939 31.1137 99.9106 28.5184 99.7841C27.5845 99.7386 27.3443 99.7242 25.4526 99.6003C22.805 99.4269 19.2806 99.0614 17.0266 98.7265C16.3779 98.6301 15.7978 98.5528 15.7376 98.5546C15.5639 98.5599 16.3346 98.9351 17.0216 99.1797C20.3234 100.355 26.4815 101.162 34.0578 101.412C37.2293 101.517 47.3766 101.455 48.2188 101.326C48.3056 101.313 48.7999 101.281 49.3172 101.257C50.6864 101.191 52.9062 101.025 54.5431 100.865C67.0296 99.644 74.6504 96.9351 76.2147 93.1616C76.3823 92.7575 76.5595 92.0076 76.4821 92.0308C76.4682 92.035 76.3 92.2128 76.1084 92.4261ZM4.9129 122.996C4.88684 138.904 4.89485 138.523 4.5549 139.99C4.26169 141.256 3.675 142.24 2.53898 143.372C1.82652 144.082 0.730137 144.914 0.175153 145.166C0.0687553 145.215 -0.00963229 145.278 0.000958741 145.307C0.0115498 145.337 0.52187 145.962 1.13504 146.697C2.12955 147.888 2.26869 148.029 2.42407 147.996C2.51988 147.976 2.95495 147.787 3.39085 147.577C6.96602 145.854 9.06883 143.263 9.62625 139.895C9.90322 138.222 9.90176 138.305 9.9283 122.996L9.95415 108.098H7.44575H4.93735L4.9129 122.996ZM21.8164 116.033C20.3171 116.152 18.6944 116.463 17.1958 116.919C16.2082 117.219 14.6177 117.843 14.6177 117.93C14.6177 118.008 15.2569 120.758 15.2822 120.789C15.292 120.802 15.75 120.668 16.3001 120.493C19.3552 119.518 22.2432 119.234 24.1263 119.722C25.1329 119.983 25.9741 120.6 26.3546 121.357C26.7245 122.092 26.8113 122.643 26.8113 124.253V125.716L25.8184 125.721C25.2723 125.724 24.653 125.738 24.4423 125.751C24.2315 125.765 23.6985 125.795 23.2577 125.818C19.2522 126.028 16.0195 127.446 14.5517 129.638C13.0541 131.875 12.9943 135.4 14.4177 137.544C15.0413 138.483 15.9062 139.156 17.0442 139.586C18.1199 139.992 18.6542 140.071 20.3313 140.07C21.6552 140.068 21.902 140.05 22.4547 139.909C24.104 139.49 25.4702 138.784 26.9491 137.588C27.2357 137.356 27.4759 137.172 27.4827 137.18C27.4896 137.187 27.5469 137.556 27.6101 138C27.6732 138.444 27.7577 139.005 27.7978 139.246L27.8708 139.685H29.7101H31.5494L31.5491 130.928C31.5489 123.387 31.534 122.079 31.4417 121.505C30.9636 118.528 29.0449 116.743 25.6979 116.163C24.7857 116.005 22.9414 115.943 21.8164 116.033ZM64.947 116.033C63.4476 116.152 61.825 116.463 60.3263 116.919C59.2891 117.234 57.7483 117.844 57.7483 117.94C57.7483 118.029 58.3847 120.757 58.4132 120.791C58.4239 120.803 58.7883 120.698 59.2228 120.556C60.3994 120.172 61.7733 119.837 62.8696 119.668C64.1579 119.47 66.0861 119.455 66.9104 119.639C68.455 119.982 69.3236 120.702 69.7472 121.991C69.8812 122.399 69.902 122.642 69.926 124.084L69.9531 125.716L68.9546 125.721C68.4054 125.724 67.7523 125.738 67.5032 125.752C67.2541 125.766 66.721 125.796 66.3186 125.819C63.3874 125.987 60.66 126.869 59.056 128.167C57.1983 129.67 56.312 131.909 56.5547 134.485C56.7131 136.165 57.1973 137.305 58.1672 138.281C58.8363 138.954 59.299 139.255 60.1747 139.586C61.237 139.987 61.7913 140.071 63.3922 140.071C65.3069 140.071 66.2284 139.869 67.7122 139.125C68.682 138.639 69.0152 138.416 70.4627 137.283L70.617 137.162L70.7698 138.23C70.8538 138.818 70.9396 139.385 70.9604 139.492L70.9981 139.685H72.8408H74.6835L74.6614 130.647C74.641 122.253 74.6305 121.572 74.5147 121.083C73.8636 118.334 71.9952 116.712 68.8518 116.167C67.9157 116.005 66.0861 115.942 64.947 116.033ZM34.4026 116.573C34.4339 116.679 34.9514 118.377 35.5525 120.346C36.1537 122.315 37.618 127.117 38.8066 131.016C39.995 134.915 41.0764 138.461 41.2095 138.895L41.4514 139.685H44.3997H47.3479L47.8895 138.474C50.4632 132.719 52.6184 125.804 54.0222 118.796C54.2704 117.556 54.4734 116.506 54.4734 116.462C54.4734 116.402 53.8196 116.38 51.9777 116.38H49.4819L49.3234 117.486C48.8259 120.954 47.951 125.009 46.9113 128.664C46.2635 130.942 44.9543 134.962 44.8834 134.891C44.8687 134.876 44.6234 133.856 44.3382 132.624C43.8845 130.664 43.5507 129.513 41.6636 123.4L39.5072 116.416L36.9265 116.397L34.3458 116.379L34.4026 116.573ZM75.1677 116.587C75.1677 116.693 75.2243 116.728 75.429 116.745L75.6903 116.766L75.6902 117.521L75.6901 118.276H75.8819H76.0735V117.504V116.731H76.3522C76.5845 116.731 76.631 116.708 76.631 116.591C76.631 116.46 76.5845 116.451 75.8993 116.451C75.2218 116.451 75.1677 116.461 75.1677 116.587ZM76.9306 117.363L76.9387 118.276H77.1307H77.3227L77.3427 117.596L77.3626 116.917L77.6025 117.596C77.8004 118.157 77.8675 118.276 77.9857 118.276C78.1036 118.276 78.1723 118.155 78.3729 117.598L78.6168 116.92L78.6367 117.598C78.6563 118.266 78.6591 118.276 78.8283 118.276H79V117.363V116.451H78.7358H78.4716L78.2374 117.082C78.1085 117.43 77.996 117.714 77.9872 117.714C77.9784 117.714 77.8656 117.43 77.7365 117.083L77.5019 116.452L77.2123 116.451L76.9227 116.451L76.9306 117.363ZM26.8113 131.572V134.34L26.2671 134.753C24.6031 136.016 23.1653 136.599 21.7089 136.602C20.5513 136.604 19.7226 136.314 19.1017 135.688C18.4907 135.073 18.2186 134.395 18.1351 133.279C17.9727 131.108 19.1036 129.69 21.4461 129.125C22.4886 128.874 23.0638 128.824 25.0519 128.814L26.8113 128.805V131.572ZM69.9419 131.573V134.341L69.3511 134.787C67.7109 136.027 66.2687 136.601 64.7838 136.602C63.0332 136.604 61.8907 135.829 61.4243 134.323C61.2206 133.666 61.2067 132.357 61.3967 131.718C61.8803 130.09 63.3243 129.182 65.9006 128.883C66.188 128.85 67.2149 128.819 68.1825 128.814L69.9419 128.805V131.573Z" fill="#606060"/>
</svg>
