<svg width="64" height="123" viewBox="0 0 64 123" fill="none" xmlns="http://www.w3.org/2000/svg">
<path d="M21.8512 65.2328C21.8512 65.2328 18.6092 67.2053 24.1064 67.7691C30.7317 68.6142 34.2532 68.473 41.5868 67.0642C43.0599 67.9659 44.6179 68.7211 46.2384 69.319C29.7448 76.3641 8.88118 68.8965 21.8502 65.2328H21.8512ZM19.7363 56.075C19.7363 56.075 16.2118 58.7515 21.7099 59.3152C29.2377 60.2258 36.8657 59.8462 44.2657 58.1927C45.2118 59.1526 46.3704 59.8766 47.648 60.3064C27.7712 66.224 5.49692 60.8702 19.7353 56.08L19.7363 56.075ZM58.6444 72.1367C58.6444 72.1367 61.0408 74.1092 55.9654 75.6592C46.5209 78.4768 16.352 79.3219 7.89336 75.6592C4.93287 74.3916 10.5723 72.5592 12.4047 72.2788C13.3277 72.0429 14.2723 71.9013 15.2239 71.8563C11.9819 69.6024 -6.34503 76.5063 5.9197 78.4778C39.6121 83.9729 67.3836 76.0827 58.6434 72.1377L58.6444 72.1367ZM23.4011 46.4947C23.4011 46.4947 8.03561 50.1574 17.9029 51.4261C22.1317 51.9898 30.4492 51.8486 38.2025 51.2849C44.5463 50.7212 50.89 49.5947 50.89 49.5947C49.581 50.1713 48.3098 50.8301 47.084 51.5672C31.436 55.6525 1.40934 53.8211 10.0083 49.5947C14.1624 47.5127 18.7531 46.45 23.4001 46.4947H23.4011ZM50.891 61.8515C66.6803 53.68 59.3467 45.7898 54.2733 46.7761C53.6438 46.8968 53.0294 47.0858 52.4409 47.3398C52.7474 46.7962 53.2526 46.3921 53.8505 46.2124C63.8601 42.6898 71.7567 56.7789 50.6085 62.274C50.7224 62.1476 50.8172 62.0052 50.89 61.8515H50.891ZM24.952 84.1121C40.1722 85.0983 63.4373 83.5483 64.0013 76.3631C64.0013 76.3631 62.8742 79.1807 51.4551 81.2944C38.7299 83.4371 25.7522 83.6272 12.9698 81.8582C12.9698 81.8582 14.9434 83.5483 24.952 84.1121Z" fill="white"/>
<path d="M41.3055 0C41.3055 0 50.0457 8.8764 32.9881 22.2606C19.3138 33.1095 29.8864 39.3085 32.9881 46.3535C24.9522 39.1683 19.1725 32.8321 23.1198 26.9106C28.8995 18.1753 44.8301 13.9489 41.3055 0ZM36.7942 40.4359C40.8818 45.0859 35.6661 49.3123 35.6661 49.3123C35.6661 49.3123 46.0984 43.9595 41.3055 37.337C36.9384 30.9968 33.5561 27.8968 51.8781 17.3303C51.8781 17.3303 22.9786 24.5155 36.7942 40.4359ZM26.3618 116.096V102.288C26.3618 98.7659 24.3882 96.3708 19.454 96.3708C16.9328 96.4054 14.4427 96.932 12.1235 97.9208L12.8288 100.457C14.6288 99.7579 16.5366 99.3764 18.4672 99.3296C21.1452 99.3296 22.4145 100.457 22.4145 102.71V104.541H21.0049C14.2404 104.541 11.1366 107.078 11.1366 111.163C11.1366 114.543 13.2516 116.517 17.0576 116.517C19.275 116.423 21.3812 115.52 22.9786 113.98L23.2601 116.094H26.3618V116.096ZM22.4145 111.586C21.2456 112.752 19.6924 113.453 18.0444 113.559C17.636 113.587 17.2263 113.526 16.8446 113.378C16.4628 113.23 16.1183 113 15.8356 112.704C15.5529 112.408 15.339 112.053 15.2091 111.665C15.0792 111.277 15.0365 110.865 15.0839 110.459C15.0839 108.486 16.212 107.079 20.7224 107.079H22.4135V111.587L22.4145 111.586ZM39.6134 116.095H34.6793L28.7583 96.7933H32.9871L36.6519 108.625L37.4975 112.147C39.3598 107.194 40.6371 102.04 41.3035 96.7904H45.5324C44.3793 103.448 42.3899 109.933 39.6114 116.092L39.6134 116.095ZM62.4507 116.095V102.288C62.4507 98.7659 60.4771 96.3708 55.5429 96.3708C53.0217 96.4054 50.5316 96.9319 48.2123 97.9208L48.7764 100.457C50.6295 99.7721 52.5813 99.3914 54.5561 99.3296C57.2341 99.3296 58.5034 100.457 58.5034 102.71V104.541H57.0938C50.3292 104.541 47.2255 107.078 47.2255 111.163C47.2255 114.543 49.1992 116.517 53.0052 116.517C55.2705 116.451 57.4306 115.547 59.0674 113.98L59.349 116.094L62.4507 116.095ZM58.5034 111.586C57.3345 112.752 55.7812 113.453 54.1333 113.559C53.7249 113.587 53.3152 113.526 52.9334 113.378C52.5517 113.23 52.2072 113 51.9245 112.704C51.6418 112.408 51.4279 112.053 51.298 111.665C51.1681 111.277 51.1253 110.865 51.1728 110.459C51.1728 108.486 52.3009 107.079 56.8113 107.079H58.5024V111.587L58.5034 111.586ZM6.76654 119.336C5.58054 121.077 3.84235 122.368 1.8324 123L0 120.746C1.3833 119.969 2.54696 118.854 3.38227 117.506C3.94632 116.52 4.08758 115.111 4.08758 111.871V89.8925H8.31642V111.59C8.31642 115.958 7.89363 117.648 6.76554 119.339L6.76654 119.336Z" fill="white"/>
</svg>
