<svg width="48" height="75" viewBox="0 0 48 75" fill="none" xmlns="http://www.w3.org/2000/svg">
<path d="M47.9988 15.5814C48.0173 14.7596 47.8151 13.9476 47.4125 13.2268C46.9961 12.5298 46.3963 11.9557 45.676 11.5648C39.2854 7.94455 32.8949 4.32689 26.5043 0.71179C25.7393 0.238171 24.8513 -0.00887713 23.9469 0.000243727C23.0424 0.00936458 22.1599 0.274268 21.4049 0.763215C18.858 2.23377 6.12441 9.40707 2.33021 11.5615C1.59757 11.9495 0.990908 12.5321 0.579554 13.2426C0.1682 13.953 -0.0312561 14.7628 0.0039767 15.5792C0.0039767 22.8598 0.0039767 30.1392 0.0039767 37.4176C-0.0144085 38.2216 0.17747 39.0168 0.561292 39.7273C0.977367 40.445 1.58717 41.036 2.32352 41.4353C6.11327 43.5952 18.8535 50.7619 21.396 52.2368C22.1515 52.7261 23.0348 52.991 23.94 52.9998C24.8451 53.0085 25.7335 52.7607 26.4987 52.2861C32.8893 48.6622 39.2798 45.0446 45.6704 41.4331C46.4066 41.0342 47.0164 40.4435 47.4326 39.7262C47.8161 39.0156 48.008 38.2205 47.9899 37.4165C47.9899 37.4165 47.9899 22.8641 47.9899 15.5792" fill="#A9B9CB"/>
<path d="M26.4586 0.758449C25.6946 0.285339 24.808 0.0383665 23.9048 0.0470988C23.0016 0.0558311 22.1201 0.319898 21.3658 0.807686C18.8267 2.27824 6.11433 9.42747 2.3257 11.5819C1.59469 11.9686 0.989291 12.5495 0.578713 13.258C0.168134 13.9666 -0.0310514 14.7742 0.00392856 15.5887C0.00392856 22.8503 0.00392856 30.1118 0.00392856 37.3734C-0.0140559 38.1753 0.177832 38.9683 0.561244 39.6766C0.976899 40.3927 1.58595 40.9823 2.32124 41.3802C3.58078 42.0951 4.84068 42.8081 6.10096 43.5193L41.1817 9.085C36.2736 6.31313 31.3663 3.53761 26.4597 0.758449" fill="#7F8B99"/>
<path d="M28.9592 23.1785L36.4272 23.2299C36.1638 20.2746 34.7522 17.5321 32.485 15.5706C30.2177 13.6092 27.2686 12.5793 24.2487 12.6942C18.495 12.6942 10.7617 16.2853 10.7617 26.6098C10.7617 36.9342 18.3412 40.301 24.2487 40.301C33.8145 40.301 36.0995 33.8038 36.0995 30.1318L28.9737 29.7314C28.9737 29.7314 29.1643 33.9778 24.2097 33.9778C19.6398 33.9778 18.874 28.4786 18.874 26.6087C18.874 23.7638 19.9039 19.2023 24.2097 19.2023C25.3646 19.1617 26.493 19.5476 27.3722 20.2837C28.2515 21.0198 28.8177 22.0526 28.9592 23.1785Z" fill="white"/>
<path d="M23.8395 68.0923H22.7315C22.6889 67.8556 22.6096 67.6473 22.4936 67.4673C22.3776 67.2874 22.2356 67.1347 22.0675 67.0092C21.8994 66.8838 21.7112 66.7891 21.5028 66.7251C21.2969 66.6612 21.0779 66.6293 20.8459 66.6293C20.4268 66.6293 20.0516 66.7346 19.7202 66.9453C19.3911 67.156 19.1307 67.465 18.9389 67.8722C18.7495 68.2794 18.6548 68.7765 18.6548 69.3636C18.6548 69.9555 18.7495 70.455 18.9389 70.8622C19.1307 71.2694 19.3923 71.5772 19.7237 71.7855C20.0552 71.9938 20.428 72.098 20.8423 72.098C21.072 72.098 21.2898 72.0672 21.4957 72.0057C21.7041 71.9418 21.8923 71.8482 22.0604 71.7251C22.2285 71.602 22.3705 71.4517 22.4865 71.2741C22.6049 71.0942 22.6866 70.8883 22.7315 70.6562L23.8395 70.6598C23.7803 71.0173 23.6655 71.3464 23.495 71.647C23.3269 71.9453 23.1103 72.2034 22.8452 72.4212C22.5824 72.6366 22.2817 72.8035 21.9432 72.9219C21.6046 73.0402 21.2353 73.0994 20.8352 73.0994C20.2055 73.0994 19.6444 72.9503 19.152 72.652C18.6596 72.3513 18.2713 71.9216 17.9872 71.3629C17.7055 70.8042 17.5646 70.1378 17.5646 69.3636C17.5646 68.5871 17.7067 67.9207 17.9908 67.3643C18.2749 66.8056 18.6631 66.3771 19.1555 66.0788C19.648 65.7782 20.2079 65.6278 20.8352 65.6278C21.2211 65.6278 21.581 65.6835 21.9148 65.7947C22.2509 65.9036 22.5528 66.0646 22.8203 66.2777C23.0878 66.4884 23.3092 66.7464 23.4844 67.0518C23.6596 67.3549 23.7779 67.7017 23.8395 68.0923ZM27.7946 73L28.9877 65.7273H29.84L28.6468 73H27.7946ZM24.5027 71.054L24.6412 70.2017H30.1525L30.014 71.054H24.5027ZM25.2377 73L26.4309 65.7273H27.2832L26.09 73H25.2377ZM24.9252 68.5256L25.0637 67.6733H30.5751L30.4366 68.5256H24.9252Z" fill="black"/>
</svg>
