<svg width="48" height="75" viewBox="0 0 48 75" fill="none" xmlns="http://www.w3.org/2000/svg">
<path d="M47.9961 15.5816C48.0143 14.7598 47.8119 13.9478 47.4093 13.2273C46.993 12.5304 46.3933 11.9564 45.6733 11.5656C39.284 7.94519 32.8947 4.32775 26.5054 0.713215C25.7395 0.238491 24.8504 -0.00906066 23.9448 0.00025348C23.0393 0.00956762 22.1557 0.275352 21.4 0.765727C18.8567 2.23604 6.12824 9.40822 2.33007 11.5623C1.59766 11.9499 0.991087 12.5322 0.579726 13.2426C0.168366 13.953 -0.0311667 14.7628 0.0039515 15.5794C0.0039515 22.8588 0.0039515 30.1371 0.0039515 37.4143C-0.014764 38.2182 0.176941 39.0134 0.560705 39.7237C0.976968 40.4415 1.58696 41.0325 2.32339 41.4314C6.11822 43.5909 18.8523 50.7576 21.3955 52.2312C22.1512 52.7204 23.0343 52.9853 23.9392 52.994C24.8441 53.0027 25.7324 52.755 26.4976 52.2804C32.8817 48.6572 39.2733 45.0401 45.6722 41.4292C46.4085 41.0306 47.0185 40.44 47.4349 39.7226C47.8183 39.0122 48.01 38.2171 47.9917 37.4132C47.9917 37.4132 47.9917 22.8632 47.9917 15.5794" fill="#A179DC"/>
<path d="M24.0748 26.4277L0.566406 39.7295C0.982669 40.4474 1.59266 41.0383 2.32909 41.4372C6.12392 43.5968 18.858 50.7635 21.4012 52.2371C22.1569 52.7263 23.04 52.9911 23.9449 52.9998C24.8498 53.0086 25.7381 52.7608 26.5033 52.2863C32.8874 48.663 39.279 45.0459 45.6779 41.435C46.4142 41.0365 47.0242 40.4459 47.4406 39.7284L24.0748 26.4277Z" fill="#280068"/>
<path d="M47.9996 15.5808C48.0178 14.7591 47.8154 13.9471 47.4128 13.2266L24.0781 26.4277L47.4417 39.7251C47.8252 39.0147 48.0169 38.2196 47.9985 37.4157C47.9985 37.4157 47.9985 22.8657 47.9985 15.5819" fill="#390091"/>
<path d="M37.9198 21.4553V23.9409H40.4497V21.4553H41.7169V23.9409H44.2468V25.1814H41.7169V27.667H44.2468V28.9097H41.7169V31.3953H40.4519V28.9097H37.9198V31.3953H36.6549V28.9097H34.125V27.667H36.6549V25.1814H34.125V23.9387H36.6549V21.4531L37.9198 21.4553ZM40.4497 25.1836H37.9198V27.6692H40.4497V25.1836Z" fill="white"/>
<path d="M24.1286 8.97266C27.2588 8.97113 30.3342 9.77911 33.0458 11.3154C35.7574 12.8517 38.0097 15.0621 39.5763 17.7245L39.5462 17.6742L31.7817 22.072C31.006 20.7776 29.9033 19.7019 28.5802 18.949C27.2572 18.1962 25.7587 17.7917 24.2299 17.7749H24.1286C22.565 17.7747 21.029 18.1799 19.6758 18.9497C18.3227 19.7196 17.2003 20.8266 16.4222 22.1591C15.644 23.4915 15.2375 25.0021 15.2439 26.5383C15.2503 28.0745 15.6693 29.5819 16.4585 30.908C17.2478 32.2342 18.3793 33.3322 19.7388 34.0911C21.0983 34.85 22.6376 35.243 24.2011 35.2302C25.7647 35.2175 27.2972 34.7995 28.6436 34.0185C29.9901 33.2375 31.103 32.1212 31.8697 30.7824L31.8329 30.8458L39.5863 35.259C38.0385 37.8972 35.8176 40.0936 33.1425 41.6316C30.4674 43.1695 27.4305 43.996 24.3312 44.0294H24.133C19.4015 44.0294 14.8639 42.1828 11.5182 38.8958C8.17254 35.6088 6.29297 31.1507 6.29297 26.5021C6.29297 21.8536 8.17254 17.3955 11.5182 14.1085C14.8639 10.8215 19.4015 8.97485 24.133 8.97485L24.1286 8.97266Z" fill="white"/>
<path d="M14.8395 68.0923H13.7315C13.6889 67.8556 13.6096 67.6473 13.4936 67.4673C13.3776 67.2874 13.2356 67.1347 13.0675 67.0092C12.8994 66.8838 12.7112 66.7891 12.5028 66.7251C12.2969 66.6612 12.0779 66.6293 11.8459 66.6293C11.4268 66.6293 11.0516 66.7346 10.7202 66.9453C10.3911 67.156 10.1307 67.465 9.93892 67.8722C9.74953 68.2794 9.65483 68.7765 9.65483 69.3636C9.65483 69.9555 9.74953 70.455 9.93892 70.8622C10.1307 71.2694 10.3923 71.5772 10.7237 71.7855C11.0552 71.9938 11.428 72.098 11.8423 72.098C12.072 72.098 12.2898 72.0672 12.4957 72.0057C12.7041 71.9418 12.8923 71.8482 13.0604 71.7251C13.2285 71.602 13.3705 71.4517 13.4865 71.2741C13.6049 71.0942 13.6866 70.8883 13.7315 70.6562L14.8395 70.6598C14.7803 71.0173 14.6655 71.3464 14.495 71.647C14.3269 71.9453 14.1103 72.2034 13.8452 72.4212C13.5824 72.6366 13.2817 72.8035 12.9432 72.9219C12.6046 73.0402 12.2353 73.0994 11.8352 73.0994C11.2055 73.0994 10.6444 72.9503 10.152 72.652C9.65956 72.3513 9.27131 71.9216 8.98722 71.3629C8.70549 70.8042 8.56463 70.1378 8.56463 69.3636C8.56463 68.5871 8.70668 67.9207 8.99077 67.3643C9.27486 66.8056 9.66312 66.3771 10.1555 66.0788C10.648 65.7782 11.2079 65.6278 11.8352 65.6278C12.2211 65.6278 12.581 65.6835 12.9148 65.7947C13.2509 65.9036 13.5528 66.0646 13.8203 66.2777C14.0878 66.4884 14.3092 66.7464 14.4844 67.0518C14.6596 67.3549 14.7779 67.7017 14.8395 68.0923ZM18.8372 65.3864L16.4934 74.0938H15.5453L17.889 65.3864H18.8372ZM25.8649 68.0923H24.7569C24.7143 67.8556 24.635 67.6473 24.519 67.4673C24.403 67.2874 24.2609 67.1347 24.0929 67.0092C23.9248 66.8838 23.7366 66.7891 23.5282 66.7251C23.3223 66.6612 23.1033 66.6293 22.8713 66.6293C22.4522 66.6293 22.077 66.7346 21.7456 66.9453C21.4165 67.156 21.1561 67.465 20.9643 67.8722C20.7749 68.2794 20.6802 68.7765 20.6802 69.3636C20.6802 69.9555 20.7749 70.455 20.9643 70.8622C21.1561 71.2694 21.4177 71.5772 21.7491 71.7855C22.0806 71.9938 22.4534 72.098 22.8677 72.098C23.0974 72.098 23.3152 72.0672 23.5211 72.0057C23.7295 71.9418 23.9177 71.8482 24.0858 71.7251C24.2538 71.602 24.3959 71.4517 24.5119 71.2741C24.6303 71.0942 24.7119 70.8883 24.7569 70.6562L25.8649 70.6598C25.8057 71.0173 25.6909 71.3464 25.5204 71.647C25.3523 71.9453 25.1357 72.2034 24.8706 72.4212C24.6078 72.6366 24.3071 72.8035 23.9686 72.9219C23.63 73.0402 23.2607 73.0994 22.8606 73.0994C22.2309 73.0994 21.6698 72.9503 21.1774 72.652C20.685 72.3513 20.2967 71.9216 20.0126 71.3629C19.7309 70.8042 19.59 70.1378 19.59 69.3636C19.59 68.5871 19.7321 67.9207 20.0162 67.3643C20.3002 66.8056 20.6885 66.3771 21.1809 66.0788C21.6734 65.7782 22.2333 65.6278 22.8606 65.6278C23.2465 65.6278 23.6064 65.6835 23.9402 65.7947C24.2763 65.9036 24.5782 66.0646 24.8457 66.2777C25.1132 66.4884 25.3346 66.7464 25.5098 67.0518C25.685 67.3549 25.8033 67.7017 25.8649 68.0923ZM29.2305 71.7784V66.9773H30.1857V71.7784H29.2305ZM27.3093 69.8537V68.902H32.1104V69.8537H27.3093ZM35.8906 71.7784V66.9773H36.8459V71.7784H35.8906ZM33.9695 69.8537V68.902H38.7706V69.8537H33.9695Z" fill="black"/>
</svg>
