<svg width="48" height="71" viewBox="0 0 48 71" fill="none" xmlns="http://www.w3.org/2000/svg">
<path d="M47.6743 23.4126L45.654 22.1635C45.637 21.9674 45.618 21.7716 45.5969 21.5762L47.3332 19.9614C47.4197 19.8809 47.4842 19.7796 47.5205 19.6671C47.5569 19.5546 47.5639 19.4347 47.5408 19.3188C47.5178 19.2028 47.4655 19.0947 47.389 19.0046C47.3124 18.9146 47.2141 18.8456 47.1034 18.8042L44.8901 17.9759C44.8349 17.7839 44.7767 17.5939 44.7164 17.4039L46.0973 15.4858C46.1664 15.3899 46.2098 15.278 46.2234 15.1606C46.2371 15.0432 46.2205 14.9243 46.1753 14.8151C46.13 14.7059 46.0577 14.6101 45.965 14.5368C45.8724 14.4634 45.7625 14.415 45.6459 14.396L43.311 14.0161C43.2201 13.8394 43.1252 13.6647 43.0302 13.4921L44.0107 11.3391C44.0598 11.2316 44.0807 11.1133 44.0713 10.9954C44.0619 10.8776 44.0225 10.7641 43.9569 10.6658C43.8913 10.5675 43.8017 10.4875 43.6965 10.4336C43.5913 10.3796 43.4741 10.3534 43.356 10.3575L40.9864 10.4403C40.8638 10.2871 40.7392 10.1356 40.6126 9.98576L41.16 7.68054C41.1872 7.56546 41.1846 7.44534 41.1523 7.33158C41.12 7.21783 41.0591 7.11422 40.9755 7.0306C40.8919 6.94699 40.7883 6.88614 40.6745 6.85385C40.5608 6.82155 40.4407 6.81888 40.3256 6.84608L38.0183 7.39047C37.8692 7.26382 37.7119 7.13819 37.5638 7.01665L37.6466 4.64709C37.6507 4.529 37.6247 4.4118 37.5709 4.3066C37.517 4.20141 37.4372 4.11171 37.339 4.04603C37.2408 3.98034 37.1274 3.94084 37.0096 3.93127C36.8918 3.92171 36.7736 3.94239 36.666 3.99137L34.513 4.9729C34.3394 4.87791 34.1647 4.78293 33.989 4.69203L33.6019 2.35617C33.583 2.23953 33.5345 2.12967 33.4612 2.03702C33.3878 1.94437 33.292 1.872 33.1828 1.82677C33.0737 1.78155 32.9548 1.76497 32.8374 1.77861C32.72 1.79225 32.608 1.83566 32.5122 1.90472L30.5971 3.28561C30.4085 3.22569 30.2185 3.16815 30.0272 3.113L29.1988 0.898678C29.1576 0.787877 29.0887 0.689465 28.9987 0.612791C28.9087 0.536118 28.8006 0.483728 28.6846 0.460599C28.5687 0.43747 28.4487 0.44437 28.3362 0.480644C28.2236 0.516918 28.1223 0.58136 28.0416 0.66785L26.4258 2.40417C26.2308 2.38272 26.0347 2.36331 25.8386 2.34697L24.5915 0.328757C24.5293 0.228241 24.4425 0.145277 24.3393 0.0877394C24.236 0.030202 24.1198 0 24.0016 0C23.8834 0 23.7672 0.030202 23.664 0.0877394C23.5608 0.145277 23.474 0.228241 23.4118 0.328757L22.1627 2.34902C21.9666 2.36536 21.7705 2.38476 21.5754 2.40621L19.9616 0.66785C19.881 0.581602 19.7797 0.517372 19.6672 0.481244C19.5548 0.445116 19.4351 0.438287 19.3193 0.461404C19.2035 0.484521 19.0955 0.536818 19.0056 0.613341C18.9157 0.689864 18.8468 0.788078 18.8054 0.898678L17.9751 3.113C17.7831 3.16815 17.5931 3.22637 17.4041 3.28561L15.487 1.90472C15.3911 1.83566 15.2792 1.79225 15.1618 1.77861C15.0444 1.76497 14.9255 1.78155 14.8163 1.82677C14.7072 1.872 14.6114 1.94437 14.538 2.03702C14.4647 2.12967 14.4162 2.23953 14.3972 2.35617L14.0163 4.691C13.8406 4.78191 13.6659 4.87587 13.4923 4.97188L11.3362 3.99137C11.2287 3.94239 11.1104 3.92171 10.9926 3.93127C10.8748 3.94084 10.7615 3.98034 10.6632 4.04603C10.565 4.11171 10.4852 4.20141 10.4314 4.3066C10.3776 4.4118 10.3515 4.529 10.3557 4.64709L10.4384 7.01665C10.2852 7.13922 10.132 7.26382 9.98391 7.39047L7.67869 6.84302C7.5632 6.81548 7.44258 6.818 7.32835 6.85035C7.21411 6.8827 7.11008 6.94379 7.02618 7.0278C6.94227 7.1118 6.88131 7.21591 6.8491 7.33019C6.81689 7.44446 6.81451 7.56508 6.8422 7.68054L7.38556 9.98882C7.25959 10.1386 7.13499 10.2901 7.01174 10.4433L4.64218 10.3606C4.52395 10.3563 4.4066 10.3824 4.30128 10.4362C4.19596 10.4901 4.10617 10.57 4.04046 10.6684C3.97474 10.7668 3.93528 10.8803 3.92583 10.9982C3.91638 11.1162 3.93725 11.2346 3.98646 11.3421L4.96799 13.4952C4.873 13.6678 4.77802 13.8424 4.68712 14.0191L2.35534 14.4011C2.2387 14.4201 2.12885 14.4685 2.0362 14.5419C1.94354 14.6152 1.87117 14.711 1.82595 14.8202C1.78072 14.9294 1.76415 15.0483 1.77779 15.1657C1.79143 15.2831 1.83484 15.395 1.9039 15.4909L3.28478 17.409C3.22452 17.598 3.1663 17.789 3.11115 17.981L0.897854 18.8063C0.787129 18.8476 0.688817 18.9166 0.612253 19.0067C0.535689 19.0967 0.483413 19.2049 0.460389 19.3208C0.437365 19.4367 0.444357 19.5566 0.480701 19.6691C0.517044 19.7816 0.581534 19.8829 0.668047 19.9635L2.40437 21.5782C2.38292 21.7733 2.36351 21.9694 2.34717 22.1655L0.327932 23.4126C0.227643 23.4748 0.144889 23.5616 0.0875034 23.6647C0.0301181 23.7679 0 23.8839 0 24.0019C0 24.12 0.0301181 24.236 0.0875034 24.3392C0.144889 24.4423 0.227643 24.5291 0.327932 24.5913L2.34308 25.8404C2.35943 26.0365 2.37849 26.2323 2.40028 26.4277L0.663961 28.0435C0.577782 28.1243 0.513692 28.2259 0.477775 28.3385C0.441857 28.451 0.435303 28.5709 0.458734 28.6868C0.482165 28.8026 0.534804 28.9105 0.611656 29.0003C0.688508 29.09 0.787023 29.1587 0.897854 29.1997L3.11217 30.028C3.16733 30.22 3.22554 30.41 3.2858 30.5989L1.9039 32.5171C1.8358 32.613 1.79322 32.7246 1.78016 32.8415C1.7671 32.9584 1.78399 33.0767 1.82924 33.1853C1.87449 33.2939 1.94661 33.3892 2.03882 33.4622C2.13103 33.5352 2.24031 33.5836 2.35636 33.6028L4.69018 33.9827C4.78108 34.1594 4.87505 34.3341 4.97106 34.5077L3.98952 36.6669C3.94031 36.7744 3.91944 36.8928 3.92889 37.0107C3.93835 37.1287 3.97781 37.2422 4.04352 37.3406C4.10924 37.439 4.19902 37.5189 4.30434 37.5728C4.40967 37.6266 4.52702 37.6527 4.64524 37.6484L7.01378 37.5657C7.13737 37.7199 7.26095 37.8721 7.3876 38.0202L6.8422 40.3254C6.8152 40.4404 6.81803 40.5604 6.85042 40.674C6.88281 40.7876 6.94369 40.8911 7.02727 40.9745C7.11086 41.058 7.21438 41.1188 7.32803 41.151C7.44167 41.1833 7.56168 41.186 7.67665 41.1588L9.98391 40.6155C10.1341 40.7431 10.2903 40.8667 10.4384 40.9893L10.3557 43.3588C10.3514 43.4769 10.3774 43.5942 10.4312 43.6994C10.485 43.8046 10.5649 43.8943 10.6632 43.9599C10.7615 44.0255 10.8749 44.0649 10.9927 44.0743C11.1105 44.0837 11.2288 44.0628 11.3362 44.0135L13.4892 43.033C13.6629 43.129 13.8365 43.223 14.0132 43.3139L14.3942 45.6477C14.4132 45.7643 14.4617 45.8741 14.5351 45.9667C14.6084 46.0593 14.7042 46.1317 14.8133 46.177C14.9224 46.2223 15.0412 46.239 15.1586 46.2256C15.2759 46.2121 15.3879 46.169 15.484 46.1002L17.4021 44.7183C17.591 44.7785 17.782 44.8368 17.974 44.8919L18.8014 47.1052C18.8427 47.2159 18.9117 47.3143 19.0018 47.3908C19.0918 47.4674 19.2 47.5197 19.3159 47.5427C19.4318 47.5657 19.5517 47.5587 19.6642 47.5224C19.7767 47.486 19.878 47.4215 19.9586 47.335L21.5744 45.5987C21.7694 45.6212 21.9655 45.6396 22.1616 45.6569L23.4087 47.6721C23.4709 47.7724 23.5577 47.8551 23.6608 47.9125C23.764 47.9699 23.88 48 23.9981 48C24.1161 48 24.2321 47.9699 24.3353 47.9125C24.4384 47.8551 24.5252 47.7724 24.5874 47.6721L25.8396 45.66C26.0357 45.6426 26.2318 45.6242 26.4269 45.6018L28.0427 47.3381C28.1232 47.4244 28.2245 47.4886 28.3368 47.5248C28.4492 47.561 28.5689 47.5679 28.6847 47.5449C28.8005 47.5219 28.9085 47.4697 28.9984 47.3933C29.0884 47.3169 29.1574 47.2188 29.1988 47.1083L30.0272 44.895C30.2192 44.8398 30.4092 44.7816 30.5991 44.7213L32.5173 46.1033C32.6132 46.1723 32.7252 46.2157 32.8427 46.2293C32.9601 46.2429 33.0791 46.2262 33.1883 46.1809C33.2975 46.1356 33.3933 46.063 33.4666 45.9703C33.5399 45.8775 33.5882 45.7675 33.6071 45.6508L33.988 43.317C34.1637 43.2261 34.3384 43.1311 34.512 43.0361L36.665 44.0166C36.7725 44.0658 36.8907 44.0868 37.0085 44.0774C37.1263 44.068 37.2398 44.0286 37.338 43.963C37.4363 43.8974 37.5162 43.8077 37.57 43.7025C37.6238 43.5972 37.6498 43.48 37.6455 43.3619L37.5628 40.9923C37.716 40.8698 37.8692 40.7462 38.0173 40.6185L40.3246 41.1619C40.4395 41.189 40.5595 41.1863 40.6732 41.1541C40.7868 41.1218 40.8904 41.0611 40.9739 40.9776C41.0575 40.8941 41.1184 40.7907 41.1508 40.6771C41.1832 40.5635 41.186 40.4435 41.159 40.3285L40.6157 38.0202C40.7423 37.87 40.8669 37.7189 40.9895 37.5657L43.359 37.6484C43.4772 37.6525 43.5944 37.6263 43.6996 37.5724C43.8048 37.5184 43.8944 37.4385 43.96 37.3401C44.0256 37.2418 44.065 37.1283 44.0744 37.0105C44.0838 36.8927 44.0629 36.7744 44.0137 36.6669L43.0322 34.5149C43.1282 34.3412 43.2222 34.1666 43.3131 33.9899L45.6479 33.6099C45.7646 33.591 45.8744 33.5425 45.9671 33.4692C46.0597 33.3958 46.1321 33.3 46.1773 33.1908C46.2225 33.0816 46.2391 32.9627 46.2255 32.8453C46.2118 32.728 46.1684 32.616 46.0994 32.5201L44.7185 30.602C44.7777 30.413 44.8359 30.2221 44.8921 30.0311L47.1054 29.2027C47.2161 29.1614 47.3144 29.0924 47.391 29.0023C47.4676 28.9123 47.5198 28.8041 47.5429 28.6882C47.5659 28.5722 47.5589 28.4523 47.5226 28.3399C47.4862 28.2274 47.4217 28.1261 47.3352 28.0455L45.5989 26.4297C45.6203 26.2346 45.6387 26.0385 45.6561 25.8424L47.6712 24.5954C47.7715 24.5331 47.8543 24.4464 47.9117 24.3432C47.9691 24.2401 47.9992 24.124 47.9992 24.006C47.9992 23.888 47.9691 23.7719 47.9117 23.6688C47.8543 23.5657 47.7715 23.4789 47.6712 23.4167L47.6743 23.4126ZM34.1862 40.1313C33.9091 40.073 33.6556 39.9337 33.4578 39.7311C33.26 39.5285 33.1268 39.2717 33.0751 38.9934C33.0234 38.715 33.0555 38.4275 33.1673 38.1674C33.2791 37.9073 33.4656 37.6862 33.7032 37.5322C33.9408 37.3782 34.2188 37.2982 34.5019 37.3024C34.785 37.3065 35.0605 37.3946 35.2935 37.5555C35.5265 37.7164 35.7064 37.9428 35.8106 38.2061C35.9148 38.4694 35.9384 38.7577 35.8786 39.0344C35.7987 39.4038 35.5758 39.7265 35.2587 39.9321C34.9416 40.1376 34.556 40.2092 34.1862 40.1313ZM33.5019 35.5005C33.3349 35.4646 33.1624 35.4621 32.9944 35.493C32.8265 35.5238 32.6662 35.5875 32.5229 35.6804C32.3795 35.7733 32.2559 35.8935 32.1591 36.0342C32.0622 36.1749 31.9941 36.3333 31.9586 36.5004L31.2436 39.8392C28.9418 40.8784 26.4433 41.41 23.9179 41.3979C21.3924 41.3857 18.8991 40.8301 16.6075 39.7688L15.8925 36.4299C15.857 36.2628 15.7888 36.1044 15.692 35.9637C15.5952 35.823 15.4716 35.7028 15.3282 35.6099C15.1849 35.5171 15.0246 35.4534 14.8566 35.4225C14.6886 35.3916 14.5162 35.3942 14.3492 35.43L11.4016 36.0632C10.8538 35.4993 10.3447 34.8991 9.87769 34.2667H24.2197C24.3821 34.2667 24.4904 34.237 24.4904 34.09V29.0158C24.4904 28.8687 24.3821 28.8391 24.2197 28.8391H20.0249V25.6229H24.5618C25.2382 25.6298 25.8901 25.877 26.401 26.3202C26.912 26.7634 27.2488 27.3739 27.3512 28.0425C27.532 28.7503 27.9272 31.0524 28.1979 31.7888C28.4675 32.6151 29.5655 34.2667 30.736 34.2667H37.8856C37.9726 34.2659 38.0594 34.2573 38.145 34.2411C37.649 34.9146 37.1056 35.5518 36.519 36.148L33.4998 35.4994L33.5019 35.5005ZM13.6639 40.0609C13.3873 40.1212 13.099 40.098 12.8356 39.9943C12.5722 39.8906 12.3455 39.7111 12.1842 39.4785C12.0229 39.2458 11.9343 38.9706 11.9296 38.6875C11.9249 38.4045 12.0043 38.1264 12.1578 37.8886C12.3113 37.6507 12.5319 37.4637 12.7917 37.3513C13.0515 37.239 13.3388 37.2062 13.6173 37.2573C13.8957 37.3084 14.1527 37.4409 14.3558 37.6382C14.5588 37.8355 14.6987 38.0885 14.7578 38.3654C14.7975 38.5486 14.8008 38.7378 14.7673 38.9222C14.7338 39.1066 14.6643 39.2826 14.5626 39.4401C14.461 39.5976 14.3293 39.7335 14.1751 39.84C14.0209 39.9466 13.8472 40.0216 13.6639 40.0609ZM8.22308 17.9994C8.33848 18.2579 8.37451 18.5449 8.32662 18.824C8.27872 19.1031 8.14906 19.3616 7.95406 19.5669C7.75905 19.7722 7.50749 19.915 7.23126 19.9772C6.95502 20.0393 6.66655 20.0181 6.4024 19.9161C6.13825 19.8142 5.91032 19.6361 5.74749 19.4044C5.58467 19.1728 5.49428 18.898 5.48778 18.615C5.48128 18.3319 5.55896 18.0533 5.71099 17.8144C5.86302 17.5755 6.08254 17.3872 6.34173 17.2732C6.68764 17.1211 7.07969 17.1121 7.43222 17.2482C7.78475 17.3842 8.06908 17.6543 8.22308 17.9994ZM6.55111 21.9592L9.62133 20.5947C9.93639 20.4543 10.1829 20.1948 10.3068 19.8729C10.4307 19.551 10.4218 19.1931 10.2822 18.8778L9.64993 17.4478H12.1369V28.6614H7.11899C6.67405 27.0956 6.44889 25.4755 6.44999 23.8477C6.4506 23.2179 6.4847 22.5885 6.55213 21.9623L6.55111 21.9592ZM20.026 20.8704V17.5673H25.9499C26.2563 17.5673 28.1101 17.9207 28.1101 19.3037C28.1101 20.4547 26.6873 20.8674 25.5178 20.8674H20.026V20.8704ZM41.5512 23.8447C41.5512 24.2832 41.5352 24.7176 41.5032 25.1479H39.7026C39.5228 25.1479 39.4503 25.2664 39.4503 25.4431V26.2704C39.4503 28.2171 38.3523 28.64 37.3912 28.7482C36.472 28.8504 35.4598 28.3652 35.3352 27.8045C34.7949 24.7659 33.8941 24.1163 32.4754 22.9949C34.2393 21.8714 36.0757 20.2219 36.0757 18.0086C36.0392 17.0677 35.7678 16.1509 35.2861 15.3418C34.8044 14.5328 34.1278 13.8572 33.318 13.3767C32.1895 12.6465 30.8918 12.2198 29.5502 12.1378H10.9277C13.5009 9.25994 16.9523 7.31217 20.746 6.59687L22.9409 8.90005C23.0588 9.02377 23.1998 9.12302 23.3561 9.1921C23.5123 9.26119 23.6807 9.29875 23.8515 9.30264C24.0223 9.30653 24.1922 9.27667 24.3514 9.21477C24.5106 9.15287 24.6561 9.06015 24.7794 8.94192L27.2307 6.59279C29.7339 7.06291 32.1049 8.07171 34.1794 9.54927C36.254 11.0268 37.9824 12.9378 39.245 15.1498L37.5638 18.9472C37.4245 19.2627 37.4159 19.6206 37.54 19.9424C37.664 20.2642 37.9106 20.5238 38.2257 20.6641L41.4634 22.1022C41.5192 22.6769 41.5478 23.2581 41.5492 23.8457L41.5512 23.8447ZM22.942 4.63994C23.1464 4.44418 23.4042 4.31348 23.683 4.26438C23.9617 4.21529 24.2487 4.25001 24.5077 4.36415C24.7667 4.4783 24.986 4.66672 25.1378 4.90557C25.2896 5.14442 25.3671 5.42295 25.3605 5.70589C25.354 5.98883 25.2635 6.26346 25.1008 6.49498C24.938 6.72651 24.7102 6.90453 24.4462 7.0065C24.1822 7.10846 23.8939 7.12979 23.6177 7.06778C23.3416 7.00577 23.09 6.86321 22.895 6.65815C22.7651 6.52279 22.6633 6.36309 22.5953 6.18824C22.5273 6.01338 22.4946 5.82682 22.4989 5.63928C22.5033 5.45173 22.5447 5.2669 22.6207 5.0954C22.6968 4.9239 22.8059 4.76911 22.942 4.63994ZM39.628 18.0678C39.7425 17.809 39.9312 17.59 40.1702 17.4385C40.4093 17.2871 40.6879 17.2099 40.9708 17.2169C41.2537 17.2238 41.5282 17.3146 41.7595 17.4776C41.9908 17.6407 42.1685 17.8687 42.2702 18.1328C42.3718 18.3969 42.3928 18.6852 42.3304 18.9613C42.2681 19.2373 42.1253 19.4887 41.92 19.6835C41.7148 19.8783 41.4563 20.0078 41.1774 20.0557C40.8985 20.1035 40.6116 20.0675 40.3532 19.9522C40.1815 19.8765 40.0264 19.7676 39.897 19.6318C39.7675 19.496 39.6662 19.3359 39.5988 19.1608C39.5314 18.9857 39.4993 18.799 39.5043 18.6114C39.5093 18.4238 39.5513 18.2391 39.628 18.0678Z" fill="black"/>
<path d="M10.799 69V61.7273H13.3913C13.9548 61.7273 14.4223 61.8243 14.794 62.0185C15.1681 62.2126 15.4474 62.4813 15.6321 62.8246C15.8168 63.1655 15.9091 63.5597 15.9091 64.0071C15.9091 64.4522 15.8156 64.844 15.6286 65.1825C15.4439 65.5187 15.1645 65.7803 14.7905 65.9673C14.4188 66.1544 13.9512 66.2479 13.3878 66.2479H11.424V65.3033H13.2884C13.6435 65.3033 13.9323 65.2524 14.1548 65.1506C14.3797 65.0488 14.5443 64.9008 14.6484 64.7067C14.7526 64.5125 14.8047 64.2794 14.8047 64.0071C14.8047 63.7325 14.7514 63.4946 14.6449 63.2933C14.5407 63.0921 14.3762 62.9382 14.1513 62.8317C13.9287 62.7228 13.6364 62.6683 13.2741 62.6683H11.8963V69H10.799ZM14.3892 65.7188L16.1861 69H14.9361L13.1747 65.7188H14.3892ZM21.9212 61.7273H23.022V66.5107C23.022 67.0196 22.9025 67.4706 22.6634 67.8636C22.4242 68.2543 22.0881 68.562 21.6548 68.7869C21.2216 69.0095 20.7138 69.1207 20.1314 69.1207C19.5514 69.1207 19.0447 69.0095 18.6115 68.7869C18.1783 68.562 17.8421 68.2543 17.603 67.8636C17.3639 67.4706 17.2443 67.0196 17.2443 66.5107V61.7273H18.3416V66.4219C18.3416 66.7509 18.4138 67.0433 18.5582 67.299C18.705 67.5547 18.9122 67.7559 19.1797 67.9027C19.4472 68.0471 19.7644 68.1193 20.1314 68.1193C20.5007 68.1193 20.8191 68.0471 21.0866 67.9027C21.3565 67.7559 21.5625 67.5547 21.7045 67.299C21.849 67.0433 21.9212 66.7509 21.9212 66.4219V61.7273ZM28.584 63.6378C28.5461 63.3016 28.3899 63.0412 28.1152 62.8565C27.8406 62.6695 27.495 62.576 27.0783 62.576C26.78 62.576 26.522 62.6233 26.3042 62.718C26.0864 62.8104 25.9171 62.9382 25.7963 63.1016C25.678 63.2625 25.6188 63.446 25.6188 63.652C25.6188 63.8248 25.659 63.974 25.7395 64.0994C25.8224 64.2249 25.9301 64.3303 26.0627 64.4155C26.1976 64.4983 26.342 64.5682 26.4959 64.625C26.6498 64.6795 26.7978 64.7244 26.9398 64.7599L27.65 64.9446C27.882 65.0014 28.12 65.0784 28.3638 65.1754C28.6077 65.2725 28.8337 65.4003 29.0421 65.5589C29.2504 65.7176 29.4185 65.9141 29.5463 66.1484C29.6766 66.3828 29.7417 66.6634 29.7417 66.9901C29.7417 67.402 29.6351 67.7678 29.4221 68.0874C29.2114 68.407 28.9048 68.6591 28.5023 68.8438C28.1022 69.0284 27.6181 69.1207 27.0499 69.1207C26.5054 69.1207 26.0343 69.0343 25.6365 68.8615C25.2388 68.6887 24.9275 68.4437 24.7026 68.1264C24.4777 67.8068 24.3534 67.428 24.3297 66.9901H25.4306C25.4519 67.2528 25.5371 67.4718 25.6863 67.647C25.8378 67.8198 26.0307 67.9489 26.2651 68.0341C26.5018 68.117 26.7611 68.1584 27.0428 68.1584C27.3529 68.1584 27.6287 68.1098 27.8702 68.0128C28.1141 67.9134 28.3058 67.776 28.4455 67.6009C28.5852 67.4233 28.655 67.2161 28.655 66.9794C28.655 66.764 28.5935 66.5876 28.4703 66.4503C28.3496 66.313 28.1851 66.1993 27.9767 66.1094C27.7708 66.0194 27.5376 65.9401 27.2772 65.8714L26.4178 65.6371C25.8354 65.4785 25.3738 65.2453 25.0328 64.9375C24.6943 64.6297 24.525 64.2225 24.525 63.7159C24.525 63.2969 24.6387 62.9311 24.8659 62.6186C25.0932 62.3061 25.401 62.0634 25.7892 61.8906C26.1775 61.7154 26.6155 61.6278 27.1032 61.6278C27.5956 61.6278 28.03 61.7143 28.4064 61.8871C28.7852 62.0599 29.0835 62.2978 29.3013 62.6009C29.5191 62.9015 29.6328 63.2472 29.6422 63.6378H28.584ZM30.6942 62.6719V61.7273H36.3228V62.6719H34.0536V69H32.9599V62.6719H30.6942Z" fill="black"/>
</svg>
