<svg width="34" height="78" viewBox="0 0 34 78" fill="none" xmlns="http://www.w3.org/2000/svg">
<path d="M1 31.9999V35.9998C1 36.6739 15.5473 37.803 25.025 39.9997C29.6038 38.938 33 37.6285 33 35.9998V31.9999C33 30.3722 29.6038 29.0617 25.025 28C15.5473 30.1967 1 31.3258 1 31.9999Z" fill="url(#paint0_linear_741_128)"/>
<path d="M1 15.9999V19.9998C1 20.6739 15.5473 21.803 25.025 23.9997C29.6038 22.938 33 21.6285 33 19.9998V15.9999C33 14.3722 29.6038 13.0617 25.025 12C15.5473 14.1967 1 15.3258 1 15.9999Z" fill="url(#paint1_linear_741_128)"/>
<path d="M1 23.9988V35.9985C1 34.9983 33 32.9989 33 27.9988V15.999C33 20.9992 1 22.9986 1 23.9988Z" fill="url(#paint2_linear_741_128)"/>
<path d="M1 31.2V78C1 74.099 33 66.3009 33 46.8V0C33 19.501 1 27.2991 1 31.2Z" fill="url(#paint3_linear_741_128)"/>
<path d="M1 39.9998V51.9995C1 50.9993 33 48.9999 33 43.9997V32C33 37.0001 1 38.9996 1 39.9998Z" fill="url(#paint4_linear_741_128)"/>
<path d="M4.76562 65.6378C4.72775 65.3016 4.5715 65.0412 4.29688 64.8565C4.02225 64.6695 3.67661 64.576 3.25994 64.576C2.96165 64.576 2.7036 64.6233 2.4858 64.718C2.26799 64.8104 2.09872 64.9382 1.97798 65.1016C1.85961 65.2625 1.80043 65.446 1.80043 65.652C1.80043 65.8248 1.84067 65.974 1.92116 66.0994C2.00402 66.2249 2.11174 66.3303 2.24432 66.4155C2.37926 66.4983 2.52367 66.5682 2.67756 66.625C2.83144 66.6795 2.9794 66.7244 3.12145 66.7599L3.83168 66.9446C4.06368 67.0014 4.30161 67.0784 4.54545 67.1754C4.7893 67.2725 5.01539 67.4003 5.22372 67.5589C5.43206 67.7176 5.60014 67.9141 5.72798 68.1484C5.85819 68.3828 5.9233 68.6634 5.9233 68.9901C5.9233 69.402 5.81676 69.7678 5.60369 70.0874C5.39299 70.407 5.08641 70.6591 4.68395 70.8438C4.28385 71.0284 3.79972 71.1207 3.23153 71.1207C2.68703 71.1207 2.21591 71.0343 1.81818 70.8615C1.42045 70.6887 1.10914 70.4437 0.884233 70.1264C0.659328 69.8068 0.535038 69.428 0.511364 68.9901H1.61222C1.63352 69.2528 1.71875 69.4718 1.8679 69.647C2.01941 69.8198 2.21236 69.9489 2.44673 70.0341C2.68348 70.117 2.94271 70.1584 3.22443 70.1584C3.53456 70.1584 3.81037 70.1098 4.05185 70.0128C4.29569 69.9134 4.48745 69.776 4.62713 69.6009C4.76681 69.4233 4.83665 69.2161 4.83665 68.9794C4.83665 68.764 4.77509 68.5876 4.65199 68.4503C4.53125 68.313 4.36671 68.1993 4.15838 68.1094C3.95241 68.0194 3.71922 67.9401 3.45881 67.8714L2.59943 67.6371C2.01705 67.4785 1.5554 67.2453 1.21449 66.9375C0.875947 66.6297 0.706676 66.2225 0.706676 65.7159C0.706676 65.2969 0.820313 64.9311 1.04759 64.6186C1.27486 64.3061 1.58262 64.0634 1.97088 63.8906C2.35914 63.7154 2.79711 63.6278 3.2848 63.6278C3.77723 63.6278 4.21165 63.7143 4.58807 63.8871C4.96686 64.0599 5.26515 64.2978 5.48295 64.6009C5.70076 64.9015 5.81439 65.2472 5.82386 65.6378H4.76562ZM13.275 66.0923H12.1671C12.1245 65.8556 12.0452 65.6473 11.9292 65.4673C11.8132 65.2874 11.6711 65.1347 11.503 65.0092C11.3349 64.8838 11.1467 64.7891 10.9384 64.7251C10.7324 64.6612 10.5134 64.6293 10.2814 64.6293C9.86239 64.6293 9.48716 64.7346 9.15572 64.9453C8.82665 65.156 8.56623 65.465 8.37447 65.8722C8.18507 66.2794 8.09038 66.7765 8.09038 67.3636C8.09038 67.9555 8.18507 68.455 8.37447 68.8622C8.56623 69.2694 8.82783 69.5772 9.15927 69.7855C9.49071 69.9938 9.86358 70.098 10.2779 70.098C10.5075 70.098 10.7253 70.0672 10.9313 70.0057C11.1396 69.9418 11.3278 69.8482 11.4959 69.7251C11.664 69.602 11.806 69.4517 11.9221 69.2741C12.0404 69.0942 12.1221 68.8883 12.1671 68.6562L13.275 68.6598C13.2159 69.0173 13.101 69.3464 12.9306 69.647C12.7625 69.9453 12.5459 70.2034 12.2807 70.4212C12.0179 70.6366 11.7173 70.8035 11.3787 70.9219C11.0402 71.0402 10.6709 71.0994 10.2708 71.0994C9.64104 71.0994 9.07996 70.9503 8.58754 70.652C8.09511 70.3513 7.70685 69.9216 7.42276 69.3629C7.14104 68.8042 7.00018 68.1378 7.00018 67.3636C7.00018 66.5871 7.14222 65.9207 7.42631 65.3643C7.7104 64.8056 8.09866 64.3771 8.59109 64.0788C9.08351 63.7782 9.64341 63.6278 10.2708 63.6278C10.6567 63.6278 11.0165 63.6835 11.3503 63.7947C11.6865 63.9036 11.9883 64.0646 12.2559 64.2777C12.5234 64.4884 12.7447 64.7464 12.9199 65.0518C13.0951 65.3549 13.2135 65.7017 13.275 66.0923ZM15.1536 71H13.9888L16.606 63.7273H17.8738L20.4909 71H19.3262L17.2701 65.0483H17.2132L15.1536 71ZM15.3489 68.152H19.1273V69.0753H15.3489V68.152ZM21.5412 71V63.7273H22.6385V70.0554H25.9339V71H21.5412ZM28.1712 71H27.0064L29.6236 63.7273H30.8913L33.5085 71H32.3438L30.2876 65.0483H30.2308L28.1712 71ZM28.3665 68.152H32.1449V69.0753H28.3665V68.152Z" fill="black"/>
<defs>
<linearGradient id="paint0_linear_741_128" x1="1" y1="33.9999" x2="33" y2="33.9999" gradientUnits="userSpaceOnUse">
<stop stop-color="#4F4F4F"/>
<stop offset="1"/>
</linearGradient>
<linearGradient id="paint1_linear_741_128" x1="1" y1="17.9999" x2="33" y2="17.9999" gradientUnits="userSpaceOnUse">
<stop stop-color="#4F4F4F"/>
<stop offset="1"/>
</linearGradient>
<linearGradient id="paint2_linear_741_128" x1="1" y1="25.9988" x2="33" y2="25.9988" gradientUnits="userSpaceOnUse">
<stop stop-color="#C40000"/>
<stop offset="1" stop-color="#FF0000"/>
</linearGradient>
<linearGradient id="paint3_linear_741_128" x1="1" y1="39" x2="33" y2="39" gradientUnits="userSpaceOnUse">
<stop stop-color="#C40000"/>
<stop offset="1" stop-color="#FF0000"/>
</linearGradient>
<linearGradient id="paint4_linear_741_128" x1="1" y1="41.9998" x2="33" y2="41.9998" gradientUnits="userSpaceOnUse">
<stop stop-color="#C40000"/>
<stop offset="1" stop-color="#FF0000"/>
</linearGradient>
</defs>
</svg>
