<svg width="35" height="79" viewBox="0 0 35 79" fill="none" xmlns="http://www.w3.org/2000/svg">
<path d="M11.2706 37.1201C11.2706 37.1201 9.45731 38.1873 12.5607 38.5479C15.8343 39.0134 19.1644 38.8703 22.3872 38.1258C23.2197 38.6293 24.0931 39.0602 24.9979 39.4139C15.7082 43.4407 3.97246 39.1801 11.2696 37.1182" fill="#5382A1"/>
<path d="M10.1398 31.8662C10.1398 31.8662 8.10608 33.3891 11.2124 33.7141C15.4432 34.2231 19.7284 34.0151 23.8916 33.0988C24.4542 33.6315 25.1191 34.0416 25.8449 34.3037C14.6127 37.6259 2.10203 34.5653 10.1398 31.8672" fill="#5382A1"/>
<path d="M19.7012 22.9511C21.9905 25.6165 19.0997 28.0153 19.0997 28.0153C19.0997 28.0153 24.9117 24.9804 22.2423 21.1785C19.7492 17.6343 17.834 15.8736 28.1875 9.80176C28.1875 9.80176 11.9416 13.9058 19.7012 22.9491" fill="#E76F00"/>
<path d="M31.9943 41.0075C31.9943 41.0075 33.3363 42.1261 30.516 42.9891C25.1536 44.6319 8.19752 45.1284 3.48656 43.0545C1.79281 42.3094 4.96871 41.271 5.96792 41.059C6.50368 40.9283 7.05382 40.8676 7.60485 40.8787C5.72203 39.5371 -4.56684 43.5133 2.37862 44.6518C21.3204 47.759 36.907 43.2527 31.9943 41.0114" fill="#5382A1"/>
<path d="M12.1441 26.4219C12.1441 26.4219 3.52356 28.4937 9.08972 29.2467C12.8888 29.545 16.7064 29.5035 20.4983 29.1229C24.068 28.8187 27.6495 28.1707 27.6495 28.1707C26.8962 28.5019 26.1709 28.8946 25.4806 29.3448C16.7219 31.6753 -0.19799 30.5913 4.67264 28.2073C6.98663 27.0209 9.54693 26.4095 12.1412 26.4239" fill="#5382A1"/>
<path d="M27.6197 35.1684C36.5234 30.4887 32.4071 25.9913 29.5329 26.5977C29.1869 26.6625 28.8466 26.7549 28.5151 26.8742C28.7035 26.6027 28.9689 26.3955 29.2762 26.2797C34.958 24.2584 39.3319 32.2415 27.4414 35.4033C27.5156 35.337 27.5764 35.257 27.6207 35.1674" fill="#5382A1"/>
<path d="M22.2482 0C22.2482 0 27.1796 4.98886 17.5715 12.6609C9.86689 18.815 15.8151 22.3235 17.5715 26.3344C13.0741 22.2304 9.77382 18.6178 11.9877 15.2549C15.2342 10.3186 24.2368 7.92569 22.2482 0Z" fill="#E76F00"/>
<path d="M13.018 47.8485C21.5641 48.4024 34.688 47.5413 34.9985 43.4512C34.9985 43.4512 34.4009 45.0018 27.9355 46.2335C20.7869 47.474 13.4915 47.5877 6.30859 46.5703C6.30859 46.5703 7.40086 47.4849 13.018 47.8495" fill="#5382A1"/>
<path d="M8.62571 69.7273H9.71946V74.8835C9.71946 75.3499 9.62713 75.7488 9.44247 76.0803C9.26018 76.4117 9.00331 76.665 8.67188 76.8402C8.34044 77.013 7.95218 77.0994 7.5071 77.0994C7.09754 77.0994 6.7294 77.0249 6.4027 76.8757C6.07836 76.7266 5.8215 76.5099 5.6321 76.2259C5.44508 75.9394 5.35156 75.5914 5.35156 75.1818H6.44176C6.44176 75.383 6.48793 75.5571 6.58026 75.7038C6.67495 75.8506 6.80398 75.9654 6.96733 76.0483C7.13305 76.1288 7.32244 76.169 7.53551 76.169C7.76752 76.169 7.96402 76.1205 8.125 76.0234C8.28835 75.924 8.41264 75.7784 8.49787 75.5866C8.5831 75.3949 8.62571 75.1605 8.62571 74.8835V69.7273ZM11.9309 77H10.7662L13.3833 69.7273H14.6511L17.2683 77H16.1035L14.0474 71.0483H13.9906L11.9309 77ZM12.1262 74.152H15.9047V75.0753H12.1262V74.152ZM18.1925 69.7273L20.2166 75.6506H20.2983L22.3224 69.7273H23.5085L20.8913 77H19.6236L17.0064 69.7273H18.1925ZM24.4309 77H23.2662L25.8833 69.7273H27.1511L29.7683 77H28.6035L26.5474 71.0483H26.4906L24.4309 77ZM24.6262 74.152H28.4047V75.0753H24.6262V74.152Z" fill="black"/>
</svg>
