<svg width="35" height="35" viewBox="0 0 35 35" fill="none" xmlns="http://www.w3.org/2000/svg">
<path fill-rule="evenodd" clip-rule="evenodd" d="M0 3C0 1.34315 1.34315 0 3 0H32C33.6569 0 35 1.34315 35 3V32C35 33.6569 33.6569 35 32 35H3C1.34315 35 0 33.6569 0 32V3ZM24.1936 11.9796C24.2888 11.8808 24.3978 11.7963 24.5172 11.7286L24.5005 11.7309L24.5249 11.7211C24.5469 11.7835 24.5822 11.8403 24.6283 11.8877C24.6341 11.8936 24.64 11.8994 24.6461 11.905C24.4965 11.9373 24.3454 11.9622 24.1936 11.9796ZM24.7921 11.9954C24.741 11.9759 24.694 11.9474 24.6531 11.9113C24.5437 11.9586 24.2407 12.0979 24.2228 12.1981C24.2009 12.3204 24.526 12.4723 24.526 12.4723C24.0299 12.4541 23.5377 12.3765 23.0601 12.2412C22.7772 12.121 22.5062 11.9759 22.2501 11.808C22.2213 11.8035 22.1926 11.7986 22.164 11.7932C22.0266 11.7658 21.892 11.7244 21.7565 11.6826C21.6787 11.6586 21.6006 11.6345 21.5214 11.613C21.2467 11.5384 20.9667 11.4853 20.6838 11.4539C20.2908 11.4282 19.8969 11.4873 19.5288 11.6271C19.1734 11.7386 18.826 11.8616 18.4779 11.9848L18.4779 11.9849L18.4778 11.9849C18.3517 12.0295 18.2255 12.0742 18.0988 12.1184C17.6337 12.2837 17.1408 12.3572 16.6476 12.3347C16.3947 12.3278 16.1442 12.284 15.904 12.2047C15.6313 12.0863 15.3722 11.9386 15.1314 11.7643C14.8987 11.5907 14.6197 11.4902 14.3298 11.4752C14.2793 11.4823 14.2288 11.495 14.1782 11.5077C14.1277 11.5204 14.0771 11.5331 14.0266 11.5402C13.9827 11.5481 13.9379 11.5549 13.8928 11.5618C13.8119 11.5742 13.7301 11.5867 13.6512 11.6053C13.5354 11.6255 13.4217 11.657 13.3119 11.6993C12.7492 11.114 12.3732 10.7966 11.7886 11.0419V10.9769C11.7749 10.8862 11.7548 10.796 11.7346 10.7058C11.7087 10.5896 11.6827 10.4734 11.6704 10.3556C11.628 10.1605 11.6534 9.9568 11.7425 9.77811C11.8268 9.62068 11.9462 9.48475 12.0915 9.38082C12.2367 9.27689 12.4039 9.20774 12.5801 9.17871C12.6951 9.15085 12.8149 9.15008 12.9302 9.17644C13.0455 9.2028 13.1531 9.25559 13.2445 9.33063C13.3901 9.43091 13.5299 9.53946 13.6631 9.65574C13.7241 9.72332 13.8007 9.77501 13.8862 9.80635C13.9717 9.83769 14.0636 9.84775 14.1538 9.83564C14.2441 9.82353 14.3301 9.78964 14.4043 9.73687C14.4785 9.68411 14.5388 9.61406 14.5799 9.53279C16.0311 6.83668 22.3502 8.05262 24.5373 10.4425C24.8957 10.8437 25.2172 11.2764 25.4979 11.7353C25.5762 11.8365 25.6439 11.9455 25.7001 12.0604H25.7042C25.7099 12.0734 25.7172 12.0855 25.7261 12.0965C25.7008 12.1647 25.6604 12.2264 25.6079 12.2768C25.5598 12.2951 25.5074 12.2987 25.4573 12.2871C25.4072 12.2756 25.3616 12.2493 25.3265 12.2118C25.2788 12.1687 25.2341 12.1226 25.1885 12.0754L25.1885 12.0753L25.1884 12.0753L25.1884 12.0753L25.1884 12.0753L25.1884 12.0753L25.1884 12.0753L25.1884 12.0752L25.1884 12.0752L25.1884 12.0752L25.1883 12.0752L25.1883 12.0752L25.1883 12.0752L25.1883 12.0752L25.1883 12.0752L25.1883 12.0752L25.1883 12.0751C25.165 12.0511 25.1415 12.0268 25.1172 12.0025C25.0445 12.1036 24.8713 12.0315 24.7921 11.9954ZM22.7556 11.8469L22.7552 11.8467L22.7602 11.8469L22.7556 11.8469ZM12.5393 10.6672C12.4789 10.684 12.4144 10.6778 12.3584 10.6497C12.3023 10.6216 12.2587 10.5737 12.2361 10.5152C12.2087 10.4625 12.2032 10.4011 12.2208 10.3443C12.2384 10.2875 12.2777 10.24 12.3301 10.212C12.332 10.212 12.3338 10.2112 12.3351 10.2099C12.3364 10.2086 12.3372 10.2068 12.3372 10.2049C12.3976 10.188 12.4621 10.1943 12.5181 10.2223C12.5742 10.2504 12.6178 10.2984 12.6404 10.3568C12.6678 10.4096 12.6733 10.471 12.6557 10.5277C12.6381 10.5845 12.5989 10.6321 12.5464 10.6601C12.5445 10.6601 12.5427 10.6608 12.5414 10.6621C12.5401 10.6635 12.5393 10.6653 12.5393 10.6672ZM11.3735 11.8949C11.5842 11.6835 11.7282 11.4148 11.7873 11.1223L11.7867 11.1211C12.35 10.8752 12.6964 11.1643 13.2527 11.7347C13.0777 11.7981 12.9139 11.8889 12.7674 12.0037C12.5177 12.2756 12.2419 12.5223 11.9439 12.7402C11.8518 12.8004 11.7477 12.84 11.6388 12.8562C11.5299 12.8723 11.4187 12.8647 11.3131 12.8338C11.2074 12.8029 11.1097 12.7495 11.0266 12.6772C10.9436 12.6049 10.8772 12.5155 10.832 12.4151C11.0264 12.2567 11.2075 12.0827 11.3735 11.8949ZM19.0997 24.0439C19.1369 24.1738 19.1552 24.3084 19.1541 24.4436L19.1616 24.4251L19.1577 24.4526C19.0934 24.4406 19.0273 24.4427 18.9639 24.4588C18.9564 24.4607 18.949 24.4628 18.9416 24.4651C18.9875 24.3221 19.0403 24.1815 19.0997 24.0439ZM19.4387 22.9374C19.6816 22.7549 19.9399 22.5949 20.2104 22.4588C20.2281 22.437 20.246 22.4154 20.2643 22.394C20.3578 22.2862 20.4627 22.1887 20.5684 22.0906L20.5685 22.0905C20.6246 22.0384 20.6809 21.986 20.7359 21.9319C20.9354 21.7336 21.1192 21.5203 21.2859 21.2938C21.5024 20.9697 21.6467 20.6028 21.709 20.218C21.7874 19.8671 21.8522 19.5178 21.9173 19.1671L21.9173 19.167C21.943 19.0283 21.9688 18.8894 21.9955 18.75C22.0838 18.2696 22.2645 17.8108 22.5276 17.3992C22.6586 17.1859 22.8202 16.9929 23.0072 16.8263C23.2435 16.6512 23.4981 16.5023 23.7666 16.3822C24.0296 16.2694 24.2534 16.0813 24.4098 15.8416C24.4288 15.7944 24.443 15.7446 24.4572 15.6948C24.4713 15.6454 24.4853 15.596 24.5041 15.5494C24.5185 15.5098 24.5341 15.4699 24.5497 15.4297C24.5798 15.3524 24.6102 15.274 24.6339 15.1957C24.6739 15.0864 24.7032 14.9735 24.7214 14.8585C25.5013 14.6651 25.9593 14.5008 26.0382 13.8782L26.0961 13.9116C26.1844 13.9476 26.2753 13.9765 26.3661 14.0053C26.4741 14.0395 26.5819 14.0737 26.685 14.1199C26.8732 14.1801 27.0353 14.3028 27.1443 14.4676C27.237 14.6176 27.294 14.7869 27.311 14.9623C27.328 15.1378 27.3046 15.3149 27.2424 15.4799C27.2094 15.5921 27.1508 15.6952 27.0712 15.7809C26.9916 15.8667 26.8932 15.9328 26.7837 15.9741C26.6258 16.0491 26.4638 16.1151 26.2983 16.1716C26.2102 16.1905 26.128 16.2305 26.0588 16.2882C25.9895 16.3459 25.9354 16.4197 25.9011 16.503C25.8667 16.5863 25.8532 16.6768 25.8617 16.7665C25.8701 16.8563 25.9003 16.9426 25.9496 17.018C27.5406 19.5919 23.3759 24.4055 20.245 25.0981C19.7242 25.2066 19.1946 25.268 18.6627 25.2815C18.5374 25.2984 18.4106 25.3025 18.2844 25.2938L18.2834 25.2918C18.2697 25.2902 18.2557 25.2905 18.2421 25.2925C18.1963 25.238 18.1633 25.174 18.1455 25.1051C18.1536 25.0548 18.1765 25.0082 18.2112 24.971C18.246 24.9338 18.291 24.9077 18.3405 24.8962C18.4001 24.8771 18.461 24.8619 18.5232 24.8464L18.5233 24.8464L18.5234 24.8464C18.5564 24.8381 18.5898 24.8298 18.6237 24.8207C18.5729 24.7088 18.7206 24.5961 18.7906 24.5458C18.8331 24.5113 18.8815 24.4848 18.9333 24.4677C18.9468 24.3527 18.9784 24.0195 18.9007 23.9543C18.8064 23.8753 18.5156 24.0787 18.5156 24.0787C18.7766 23.6628 19.0865 23.2796 19.4387 22.9374ZM25.9905 14.7045C26.0059 14.6444 26.0431 14.5922 26.0949 14.558C26.1467 14.5238 26.2093 14.5101 26.2707 14.5195C26.3293 14.5222 26.3845 14.5479 26.4244 14.5909C26.4643 14.634 26.4856 14.6911 26.4838 14.7498C26.4829 14.7514 26.4826 14.7533 26.4831 14.7551C26.4836 14.757 26.4848 14.7585 26.4864 14.7594C26.4711 14.8196 26.4339 14.8719 26.3821 14.9061C26.3303 14.9403 26.2676 14.954 26.2062 14.9444C26.1474 14.9419 26.092 14.9163 26.052 14.8731C26.012 14.8299 25.9906 14.7727 25.9926 14.7139C25.9935 14.7123 25.9938 14.7104 25.9933 14.7085C25.9928 14.7067 25.9916 14.7052 25.99 14.7042L25.9905 14.7045ZM25.5125 13.0997C25.5891 13.385 25.748 13.6415 25.9693 13.8371C25.9025 14.4388 25.4833 14.5926 24.7193 14.787C24.7516 14.6064 24.7551 14.4219 24.7298 14.2402C24.6202 13.8918 24.5452 13.5335 24.5059 13.1703C24.4998 13.0616 24.5174 12.9528 24.5574 12.8515C24.5974 12.7501 24.6589 12.6587 24.7377 12.5834C24.8164 12.5082 24.9105 12.4509 25.0136 12.4155C25.1166 12.3801 25.2261 12.3674 25.3344 12.3784C25.3741 12.6233 25.4337 12.8645 25.5125 13.0997ZM11.0737 14.044C10.9447 14.0148 10.8205 13.9672 10.705 13.9027L10.7052 13.9029L10.6944 13.8948C10.7354 13.8453 10.7652 13.7875 10.7815 13.7254L10.7842 13.715L10.7861 13.7063C10.8875 13.8142 10.9835 13.9269 11.0737 14.044ZM10.7893 13.5351C10.7989 13.589 10.7984 13.6441 10.7879 13.6977C10.8813 13.7646 11.1512 13.949 11.2438 13.9126C11.3565 13.8683 11.3201 13.5219 11.3201 13.5219C11.5527 13.944 11.7339 14.3924 11.8598 14.8575C11.9009 15.1516 11.9157 15.4482 11.9042 15.7439C11.9149 15.7701 11.9252 15.7965 11.9351 15.823C11.9772 15.9449 12.0081 16.0709 12.0391 16.1974C12.0596 16.2813 12.0803 16.3655 12.1043 16.4489C12.1791 16.7149 12.2743 16.9747 12.3891 17.226C12.5644 17.5665 12.8109 17.8652 13.112 18.1019C13.3863 18.3455 13.6664 18.5765 13.947 18.8079C14.0431 18.8871 14.1392 18.9664 14.2352 19.0463C14.6055 19.3505 14.9131 19.7238 15.1411 20.1453C15.2619 20.3591 15.3508 20.5894 15.4049 20.8288C15.4437 21.1154 15.4512 21.4052 15.4272 21.6934C15.3988 21.9736 15.4542 22.2559 15.5863 22.5046C15.6182 22.5438 15.6544 22.58 15.6905 22.6161C15.7262 22.6517 15.7617 22.6872 15.7928 22.7254C15.8211 22.7579 15.8492 22.7917 15.8775 22.8257L15.8775 22.8257L15.8775 22.8257L15.8776 22.8257L15.8776 22.8258C15.9287 22.8873 15.9803 22.9494 16.0348 23.0054C16.1096 23.0917 16.1925 23.1705 16.2825 23.2407C16.077 24.0007 16.0019 24.4713 16.4969 24.836L16.4426 24.8685C16.37 24.9273 16.3023 24.9913 16.2346 25.0552L16.2346 25.0553L16.2346 25.0553C16.1536 25.1319 16.0727 25.2083 15.9837 25.2754C15.8424 25.4083 15.66 25.4889 15.4666 25.504C15.2935 25.5125 15.1208 25.4811 14.9617 25.4123C14.8027 25.3434 14.6616 25.2389 14.5494 25.1069C14.4687 25.0252 14.4081 24.9259 14.3724 24.8168C14.3366 24.7077 14.3267 24.5918 14.3434 24.4783C14.354 24.3068 14.3744 24.1362 14.4045 23.9671C14.4304 23.8825 14.4352 23.7929 14.4187 23.7061C14.4021 23.6192 14.3647 23.5377 14.3096 23.4685C14.2544 23.3994 14.1833 23.3447 14.1023 23.3092C14.0213 23.2737 13.9329 23.2585 13.8447 23.2649C10.8772 23.4025 8.72781 17.5391 9.62298 14.5241C9.77753 14.0255 9.9767 13.5419 10.2181 13.079C10.2632 12.9633 10.3199 12.8524 10.3876 12.7482L10.3871 12.7464C10.395 12.7352 10.4014 12.7231 10.4061 12.7102C10.4755 12.696 10.5473 12.6977 10.6159 12.7151C10.6552 12.746 10.6844 12.7878 10.6998 12.8353C10.7152 12.8828 10.7161 12.9338 10.7024 12.9818C10.6905 13.0433 10.6744 13.1034 10.6579 13.165L10.6579 13.165L10.6579 13.165L10.6579 13.1651L10.6579 13.1651L10.6579 13.1651C10.6494 13.1965 10.6409 13.2283 10.6328 13.2608C10.7531 13.2706 10.7796 13.4512 10.7893 13.5351ZM11.6696 15.2155C11.6747 15.2445 11.6791 15.2736 11.6828 15.3028L11.6827 15.3025C11.6789 15.2734 11.6745 15.2444 11.6696 15.2155ZM15.8081 24.3967C15.8528 24.4384 15.8802 24.4953 15.885 24.5563C15.8899 24.6172 15.8717 24.6777 15.8342 24.7259C15.8041 24.7754 15.7556 24.811 15.6994 24.8249C15.6431 24.8388 15.5837 24.8299 15.534 24.8001C15.533 24.7985 15.5314 24.7973 15.5296 24.7969C15.5278 24.7964 15.5258 24.7967 15.5242 24.7977C15.4796 24.756 15.4521 24.699 15.4473 24.6381C15.4425 24.5772 15.4606 24.5167 15.4982 24.4685C15.5283 24.419 15.5767 24.3834 15.633 24.3695C15.6892 24.3556 15.7487 24.3645 15.7984 24.3943C15.7989 24.3952 15.7996 24.3959 15.8004 24.3964C15.8011 24.3969 15.8019 24.3973 15.8028 24.3975C15.8046 24.398 15.8065 24.3977 15.8081 24.3967ZM17.4122 24.7511C17.1311 24.6823 16.836 24.6975 16.5634 24.795C16.0776 24.449 16.145 24.016 16.3413 23.2685C16.481 23.3819 16.6376 23.4726 16.8055 23.5371C17.1565 23.6089 17.4996 23.7151 17.8297 23.8541C17.926 23.9006 18.011 23.9674 18.0789 24.0499C18.1468 24.1324 18.1961 24.2286 18.2233 24.332C18.2504 24.4353 18.2549 24.5433 18.2363 24.6486C18.2177 24.7538 18.1765 24.8538 18.1156 24.9416C17.8867 24.8591 17.6515 24.7954 17.4122 24.7511Z" fill="white"/>
</svg>
