<svg width="46" height="42" viewBox="0 0 46 42" fill="none" xmlns="http://www.w3.org/2000/svg">
<path fill-rule="evenodd" clip-rule="evenodd" d="M11.4971 5.57656C5.34342 8.64095 0.256122 11.211 0.191979 11.2879C0.127835 11.3648 0.0549772 11.5801 0.0300025 11.7664C-0.0049441 12.0269 0.0306314 12.1631 0.183893 12.3566C0.329699 12.5406 3.39755 14.1073 11.6031 18.1881C17.774 21.2571 22.9026 23.7681 23 23.7681C23.0974 23.7681 28.226 21.2571 34.3969 18.1881C42.6025 14.1073 45.6703 12.5406 45.8161 12.3566C45.9694 12.1631 46.0049 12.0269 45.97 11.7664C45.945 11.5801 45.8722 11.3648 45.808 11.2879C45.7439 11.211 40.6465 8.63872 34.4806 5.57165C26.3158 1.51022 23.1905 -0.00356857 22.9777 6.31511e-06C22.7773 0.00340246 19.1711 1.7551 11.4971 5.57656ZM32.9721 6.83215C38.4566 9.56023 42.9438 11.8124 42.9438 11.8369C42.9438 11.8614 38.4565 14.1136 32.9719 16.8417L23 21.8021L13.0281 16.8417C7.54353 14.1136 3.05617 11.8614 3.05617 11.8369C3.05617 11.8036 22.8596 1.90256 22.9777 1.87682C22.9901 1.87414 27.4876 4.10398 32.9721 6.83215ZM2.97073 18.9427C0.162153 20.3402 0.00170385 20.4513 0.00170385 20.9975C0.00170385 21.5983 -0.408582 21.3735 11.5043 27.2993C18.837 30.9468 22.8247 32.884 23 32.884C23.1753 32.884 27.163 30.9468 34.4957 27.2993C46.4086 21.3735 45.9983 21.5983 45.9983 20.9975C45.9983 20.4513 45.8378 20.3402 43.0293 18.9427C40.2948 17.5822 39.959 17.4624 39.5251 17.6935C39.3088 17.8086 39.0808 18.237 39.0808 18.5286C39.0808 18.9487 39.4709 19.2346 41.2279 20.1019C42.1716 20.5678 42.9438 20.9702 42.9438 20.996C42.9438 21.0218 38.4565 23.2747 32.9719 26.0024L23 30.9619L13.0281 26.0024C7.54353 23.2747 3.05617 21.0218 3.05617 20.996C3.05617 20.9702 3.82841 20.5678 4.77214 20.1019C6.52909 19.2346 6.91916 18.9487 6.91916 18.5286C6.91916 18.237 6.69124 17.8086 6.47492 17.6935C6.041 17.4624 5.70519 17.5822 2.97073 18.9427ZM3.0735 28.0508C0.133046 29.5094 -0.0489643 29.6397 0.0300025 30.2287C0.0549772 30.415 0.127835 30.6303 0.191979 30.7072C0.399413 30.9557 22.7052 42 23 42C23.2948 42 45.6006 30.9557 45.808 30.7072C45.8722 30.6303 45.945 30.415 45.97 30.2287C46.0049 29.9678 45.9694 29.832 45.815 29.6372C45.5626 29.3185 40.3652 26.7174 39.9809 26.7174C39.6302 26.7174 39.1904 27.103 39.1209 27.4716C39.0059 28.081 39.1819 28.2327 41.1471 29.2176C42.1353 29.7129 42.9438 30.1371 42.9438 30.1604C42.9438 30.1837 38.4565 32.4349 32.9719 35.163L23 40.1234L13.0281 35.163C7.54353 32.4349 3.05617 30.1837 3.05617 30.1604C3.05617 30.1371 3.8647 29.7129 4.85291 29.2176C6.81809 28.2327 6.99408 28.081 6.87909 27.4716C6.80965 27.103 6.36981 26.7174 6.01908 26.7174C5.86735 26.7174 4.65805 27.2649 3.0735 28.0508Z" fill="black"/>
</svg>
