<svg width="50" height="50" viewBox="0 0 50 50" fill="none" xmlns="http://www.w3.org/2000/svg">
<path fill-rule="evenodd" clip-rule="evenodd" d="M24.3652 0.153653C24.0185 0.338975 0.927832 14.7986 0.616992 15.025C0.30459 15.2525 -9.76562e-05 15.8425 0.000390625 16.2193C0.00078125 16.5828 0.305664 17.1517 0.621582 17.3783C0.733887 17.4589 1.90342 18.1976 3.22051 19.02C4.5376 19.8424 5.62617 20.5457 5.63955 20.5831C5.65293 20.6204 4.75205 21.2196 3.6376 21.9147C0.478906 23.8847 0.351465 23.9745 0.166699 24.3621C-0.0568359 24.831 -0.0427734 25.2688 0.208984 25.6821C0.46582 26.1036 0.328418 26.0065 3.22051 27.8123C4.5376 28.6346 5.62617 29.338 5.63955 29.3753C5.65293 29.4126 4.75205 30.0119 3.6376 30.707C0.478906 32.6769 0.351465 32.7668 0.166699 33.1543C0.075 33.3467 0 33.6395 0 33.805C0 34.1577 0.313477 34.7504 0.616992 34.9715C0.98252 35.2377 24.0548 49.678 24.3848 49.8472C24.7824 50.0509 25.2176 50.0509 25.6152 49.8472C25.9452 49.678 49.0175 35.2377 49.383 34.9715C49.6865 34.7504 50 34.1577 50 33.805C50 33.6395 49.925 33.3467 49.8333 33.1543C49.6485 32.7668 49.5211 32.6769 46.3624 30.707C45.248 30.0119 44.3471 29.4126 44.3605 29.3753C44.3738 29.338 45.4624 28.6346 46.7795 27.8123C49.6716 26.0065 49.5342 26.1036 49.791 25.6821C50.0428 25.2688 50.0568 24.831 49.8333 24.3621C49.6485 23.9745 49.5211 23.8847 46.3624 21.9147C45.248 21.2196 44.3471 20.6204 44.3605 20.5831C44.3738 20.5457 45.4624 19.8424 46.7795 19.02C48.0966 18.1976 49.2661 17.4589 49.3784 17.3783C49.6943 17.1517 49.9992 16.5828 49.9996 16.2193C50.0001 15.8425 49.6954 15.2525 49.383 15.025C49.0175 14.7588 25.9452 0.318459 25.6152 0.149257C25.2237 -0.0513041 24.7454 -0.0496434 24.3652 0.153653ZM35.4452 9.7295C41.0865 13.2647 45.7016 16.1791 45.7009 16.206C45.6987 16.2982 25.1465 29.0445 25 29.0445C24.8535 29.0445 4.30137 16.2982 4.29902 16.206C4.29639 16.0977 24.9598 3.2158 25.0697 3.25722C25.135 3.28175 29.8039 6.19433 35.4452 9.7295ZM16.2747 27.1567C20.5097 29.7947 24.1377 32.0367 24.3369 32.139C24.8357 32.3953 25.2559 32.3697 25.8301 32.0484C26.0986 31.8981 29.6582 29.6941 33.7402 27.1507C37.8223 24.6073 41.2338 22.4816 41.3214 22.4272C41.4475 22.3487 41.9224 22.6018 43.5919 23.6369C44.7531 24.3568 45.7022 24.9686 45.7012 24.9965C45.6975 25.0905 25.1479 37.8367 25 37.8367C24.8524 37.8367 4.30254 25.0906 4.29883 24.9968C4.29658 24.9399 8.41211 22.3664 8.51103 22.3629C8.54609 22.3616 12.0397 24.5189 16.2747 27.1567ZM16.2747 35.949C20.5097 38.587 24.1377 40.829 24.3369 40.9313C24.8357 41.1875 25.2559 41.1619 25.8301 40.8406C26.0986 40.6904 29.6582 38.4864 33.7402 35.943C37.8223 33.3995 41.2343 31.2737 41.3225 31.2188C41.4498 31.1395 41.9164 31.3888 43.5915 32.4303C44.7514 33.1516 45.7008 33.7636 45.7014 33.7905C45.7034 33.8815 25.1476 46.7251 25 46.7251C24.8523 46.7251 4.29648 33.8814 4.29873 33.7905C4.3001 33.7334 8.4167 31.1573 8.51103 31.1547C8.54609 31.1536 12.0397 33.3111 16.2747 35.949Z" fill="#B548AA"/>
</svg>
