<svg width="46" height="46" viewBox="0 0 46 46" fill="none" xmlns="http://www.w3.org/2000/svg">
<path fill-rule="evenodd" clip-rule="evenodd" d="M32.8431 0.13074C31.1473 0.397276 29.6373 0.983459 28.1957 1.93485C27.382 2.47188 26.7424 3.07091 22.8811 6.91161C20.4668 9.31313 18.2423 11.5872 17.9378 11.9654C17.2071 12.8727 16.6145 13.8825 16.1818 14.9574L15.8291 15.8338L14.9526 16.1865C13.8775 16.6191 12.8676 17.2116 11.9601 17.9422C11.5819 18.2467 9.30745 20.4708 6.90557 22.8848C3.0643 26.7455 2.46518 27.3851 1.92807 28.1986C-1.10385 32.7913 -0.510753 38.7729 3.36035 42.6434C6.79394 46.0766 12.0398 46.975 16.415 44.8793C18.0586 44.0921 18.4353 43.7641 23.415 38.7853C28.8159 33.3851 28.9916 33.1693 29.9261 30.7914L30.1682 30.1753L31.0165 29.8418C32.0538 29.4339 33.1301 28.8031 34.0429 28.0681C34.4212 27.7636 36.6954 25.5395 39.0969 23.1256C43.739 18.4595 44.1122 18.026 44.8814 16.4051C46.9721 12.0002 46.0798 6.8035 42.6427 3.36692C40.0796 0.804091 36.3645 -0.422643 32.8431 0.13074ZM36.6179 1.56048C43.0495 2.977 46.4771 9.89617 43.6716 15.7994C42.9613 17.294 42.6168 17.689 37.9253 22.3884C35.4761 24.8417 33.2121 27.0376 32.8942 27.2682C32.269 27.7217 31.4249 28.2141 30.8887 28.4382L30.5525 28.5786L30.6084 27.3869C30.6499 26.5034 30.6264 25.9391 30.5177 25.2043L30.3711 24.2132L34.9447 19.6328L39.5183 15.0522L39.935 14.1985C40.8485 12.3274 40.8476 10.5746 39.9323 8.72066C39.3445 7.53014 38.4788 6.66466 37.2882 6.07695C35.433 5.16133 33.6783 5.16079 31.8095 6.07524L30.9557 6.49311L26.5682 10.8625C21.8368 15.5745 21.5542 15.9031 21.0802 17.2433C20.8321 17.945 20.806 18.1232 20.8029 19.141C20.7999 20.142 20.8277 20.3505 21.0589 21.0557C21.3557 21.961 21.7458 22.6065 22.5298 23.4892C23.5434 24.6304 23.9593 25.7473 23.8724 27.094C23.8469 27.4894 23.7568 28.0216 23.6723 28.2768L23.5186 28.7407L23.1891 28.6245C21.111 27.8913 19.0275 26.0479 17.9159 23.9585C16.1321 20.6057 16.3616 16.592 18.5189 13.4143C19.1594 12.4707 27.681 3.92354 28.6638 3.23878C29.8802 2.39136 31.3642 1.75863 32.6633 1.53343C32.9599 1.48193 33.3037 1.422 33.4273 1.40016C33.8836 1.31955 36.0086 1.42622 36.6179 1.56048ZM36.0519 6.99788C37.4945 7.50067 38.5563 8.58523 39.0545 10.0648C39.1724 10.415 39.221 10.8209 39.221 11.4576C39.221 12.4499 39.0833 12.9912 38.6153 13.839C38.4138 14.2042 37.2488 15.4313 34.1578 18.5344C31.8562 20.8451 29.9516 22.735 29.9251 22.7345C29.8987 22.7339 29.7643 22.4545 29.6263 22.1137C29.3059 21.3221 28.3067 19.8111 27.5833 19.024C27.0345 18.427 25.8883 17.4819 25.2378 17.0902C24.7885 16.8197 24.4101 16.8343 24.1765 17.1312C23.8145 17.5913 23.9533 17.8331 25.001 18.5666C28.0589 20.7075 29.7097 24.4894 29.1966 28.1783C28.9854 29.6963 28.364 31.2996 27.4845 32.5961C26.8156 33.5822 18.2173 42.1812 17.2327 42.8488C13.1363 45.6264 7.8109 45.1576 4.34478 41.7145C2.89146 40.2707 1.95602 38.5324 1.50636 36.4398C1.35564 35.7385 1.35564 33.3668 1.50636 32.6656C1.81896 31.2108 2.40487 29.8535 3.23255 28.6666C3.88254 27.7344 12.363 19.2554 13.2948 18.6061C13.9299 18.1634 14.7477 17.7057 15.2338 17.521L15.4502 17.4386L15.3945 18.6268C15.3531 19.5068 15.3768 20.0721 15.4853 20.806L15.6319 21.7971L11.0583 26.3776L6.48476 30.9581L6.068 31.8118C5.15458 33.6829 5.15547 35.4357 6.07079 37.2897C6.65858 38.4802 7.52419 39.3457 8.71489 39.9334C10.57 40.849 12.3247 40.8496 14.1935 39.9351L15.0474 39.5172L19.4348 35.1479C24.1662 30.4358 24.4488 30.1072 24.9228 28.7671C25.171 28.0653 25.197 27.8871 25.2001 26.8693C25.2032 25.8683 25.1753 25.6598 24.9441 24.9547C24.6474 24.0493 24.2572 23.4038 23.4732 22.5212C22.813 21.7778 22.4241 21.0769 22.2412 20.3009C21.9752 19.1727 22.0913 18.1834 22.6201 17.0741C22.927 16.4303 23.1383 16.2033 27.353 11.9893C31.5504 7.79245 31.7973 7.56258 32.4386 7.25363C32.8094 7.07507 33.3149 6.88824 33.5621 6.83846C34.209 6.70816 35.4485 6.78751 36.0519 6.99788ZM16.3767 23.8966C16.7698 24.8676 17.8069 26.3603 18.7264 27.2787C19.6326 28.1835 20.9559 29.111 22.0568 29.6125L22.7694 29.9373L18.5489 34.1407C15.4285 37.2483 14.1995 38.4151 13.834 38.6167C12.9858 39.0846 12.4446 39.2222 11.4523 39.2222C10.8154 39.2222 10.4094 39.1737 10.0592 39.0558C8.56362 38.5524 7.45202 37.4409 6.94853 35.9456C6.71916 35.2645 6.71916 33.8409 6.94853 33.1598C7.32538 32.0405 7.49696 31.8413 11.8452 27.4759C14.1468 25.1653 16.0515 23.2753 16.0779 23.2758C16.1043 23.2765 16.2388 23.5559 16.3767 23.8966Z" fill="black"/>
</svg>
