<svg width="34" height="39" viewBox="0 0 34 39" fill="none" xmlns="http://www.w3.org/2000/svg">
<path fill-rule="evenodd" clip-rule="evenodd" d="M16.2967 0.0509228C15.4617 0.264572 14.6136 0.984797 14.2345 1.80223C14.0618 2.17497 14.0406 2.31148 14.0462 3.02308C14.0495 3.46373 14.0664 3.88264 14.0836 3.95398C14.1081 4.05569 13.1676 4.64162 9.73154 6.66526L5.34819 9.24682L4.97265 8.93718C4.14498 8.25488 3.10609 8.04261 2.11396 8.35316C0.0417189 9.00174 -0.693859 11.6736 0.755343 13.2884C1.16663 13.7466 1.57147 14.0208 2.11575 14.2097L2.46342 14.3303V19.5046V24.6788L2.11575 24.7995C1.26696 25.094 0.500659 25.8112 0.211433 26.5819C-0.590532 28.7188 0.992718 30.9323 3.21226 30.7774C3.88355 30.7306 4.33283 30.5524 4.92184 30.0995C5.25857 29.8407 5.35359 29.8011 5.48726 29.8644C5.5756 29.9062 7.55298 31.0619 9.88139 32.4326C13.2043 34.3887 14.1081 34.9527 14.0836 35.0547C14.0664 35.1263 14.0495 35.5454 14.0462 35.986C14.0406 36.6976 14.0618 36.8341 14.2345 37.2069C14.5366 37.8583 15.0469 38.3793 15.7091 38.7126C16.2495 38.9846 16.3186 39 16.9996 39C17.6807 39 17.7498 38.9846 18.2901 38.7126C18.9492 38.381 19.4253 37.8946 19.7499 37.2215C19.9368 36.8339 19.9593 36.7051 19.9593 36.0242C19.9593 35.6045 19.9336 35.1897 19.9021 35.1024C19.8505 34.959 20.0322 34.8337 21.7753 33.811C22.8371 33.1881 24.7744 32.0489 26.0806 31.2793C27.3868 30.5098 28.5057 29.8606 28.5671 29.8366C28.6315 29.8114 28.8488 29.9237 29.0804 30.1018C29.6647 30.5511 30.1171 30.7306 30.7812 30.777C32.0849 30.868 33.1606 30.2122 33.7359 28.9755C33.9493 28.5171 33.9708 28.4029 33.9681 27.7453C33.9644 26.8298 33.7822 26.3206 33.2439 25.7207C32.8327 25.2625 32.4278 24.9883 31.8835 24.7995L31.5359 24.6788V19.5046V14.3303L31.8835 14.2097C32.7323 13.9151 33.4986 13.1979 33.7879 12.4272C34.5885 10.2938 33.0213 8.09571 30.7931 8.22703C30.1321 8.26602 29.4621 8.5456 28.9574 8.99319L28.6643 9.25315L26.185 7.79172C24.8215 6.98802 22.8371 5.82073 21.7753 5.19795C20.0322 4.17533 19.8505 4.05012 19.9021 3.90675C19.9336 3.81938 19.9592 3.4046 19.959 2.98493C19.9587 2.32285 19.933 2.16635 19.7645 1.80223C19.2808 0.757642 18.2752 0.0589346 17.1784 0.00536986C16.8534 -0.0105012 16.4566 0.0100243 16.2967 0.0509228ZM17.9254 1.37203C18.5971 1.77286 18.911 2.38771 18.8601 3.20247C18.8192 3.85555 18.5312 4.34267 17.9906 4.67275C17.311 5.08784 16.6883 5.08784 16.0087 4.67275C15.444 4.32794 15.1732 3.85105 15.1409 3.14494C15.1192 2.67178 15.1428 2.55092 15.3273 2.18756C15.5595 1.73035 15.926 1.39203 16.3723 1.22286C16.8052 1.05873 17.5146 1.12687 17.9254 1.37203ZM14.8634 5.23503C15.0684 5.4657 15.6635 5.83394 16.0457 5.96655L16.3873 6.08505L16.4124 7.29316C16.4414 8.68088 16.4957 8.82212 16.9996 8.82212C17.4776 8.82212 17.5173 8.71308 17.5409 7.33779L17.5616 6.12808L18.0748 5.9165C18.3571 5.80006 18.7525 5.56367 18.9534 5.39107L19.3189 5.07724L23.7077 7.65544L28.0966 10.2337L28.038 10.6152C27.9631 11.1037 27.9627 11.5166 28.0366 11.9602L28.0955 12.3131L27.2119 12.8304C26.1196 13.47 25.9911 13.583 25.9911 13.9041C25.9911 14.1791 26.2704 14.4685 26.5356 14.4685C26.618 14.4685 27.127 14.2077 27.6669 13.8887C28.2768 13.5284 28.6802 13.3335 28.7324 13.3737C28.7786 13.4093 28.9815 13.5655 29.1833 13.7208C29.4931 13.9591 29.8457 14.1334 30.3188 14.282C30.3934 14.3054 30.409 15.3883 30.3937 19.5076L30.3745 24.7037L29.9983 24.8334C29.6071 24.9682 29.2445 25.1937 28.8981 25.5175L28.6956 25.7068L27.6885 25.1237C27.1346 24.803 26.6088 24.5406 26.5202 24.5406C26.2875 24.5406 25.9911 24.8731 25.9911 25.1342C25.9911 25.4214 26.1434 25.5513 27.2122 26.1762L28.096 26.6931L28.0368 27.0475C27.9626 27.493 27.963 27.9057 28.0383 28.3939L28.0972 28.7754L23.7104 31.352L19.3236 33.9286L18.9146 33.5893C18.6896 33.4027 18.3045 33.1754 18.0588 33.0841L17.612 32.9183L17.5868 31.7131C17.5579 30.3285 17.5034 30.187 16.9996 30.187C16.4959 30.187 16.4414 30.3285 16.4125 31.7131L16.3873 32.9183L15.9405 33.0841C15.6948 33.1754 15.3099 33.4025 15.0852 33.5889L14.6767 33.9277L10.2896 31.3515L5.90244 28.7754L5.96111 28.3939C6.03626 27.9054 6.03664 27.4927 5.96246 27.0475L5.90334 26.6931L6.78713 26.1762C7.85591 25.5513 8.00817 25.4214 8.00817 25.1342C8.00817 24.8675 7.7098 24.5401 7.46831 24.5417C7.37374 24.5424 6.85801 24.8024 6.32227 25.1196C5.734 25.4679 5.31545 25.6714 5.26554 25.6334C5.22006 25.599 5.01775 25.4425 4.81597 25.286C4.50621 25.0457 4.11299 24.8514 3.68102 24.7253C3.54382 24.6852 3.54382 14.3248 3.68102 14.2818C4.15262 14.1339 4.50636 13.959 4.81597 13.7208C5.01775 13.5655 5.22066 13.4093 5.26689 13.3737C5.31912 13.3335 5.72246 13.5284 6.33238 13.8887C6.87225 14.2077 7.38131 14.4685 7.46366 14.4685C7.72891 14.4685 8.00817 14.1791 8.00817 13.9041C8.00817 13.583 7.87974 13.47 6.78735 12.8304L5.90379 12.3131L5.96268 11.9602C6.03679 11.5158 6.03619 11.1027 5.96081 10.6152L5.90177 10.2337L7.76045 9.14694C8.78271 8.54926 10.7487 7.39197 12.1293 6.57522C13.5098 5.75855 14.6595 5.08868 14.684 5.08678C14.7085 5.08487 14.7892 5.15156 14.8634 5.23503ZM3.61613 9.45002C4.1028 9.59797 4.66993 10.2095 4.82339 10.7516C5.09358 11.7063 4.62707 12.6673 3.70252 13.0607C3.34721 13.2118 2.64026 13.2168 2.29641 13.0705C1.15142 12.5833 0.761412 11.1082 1.51243 10.1054C1.98972 9.46817 2.82248 9.20867 3.61613 9.45002ZM31.8444 9.56935C33.0331 10.2017 33.2401 11.8161 32.2463 12.7046C31.8582 13.0516 31.5296 13.179 31.0163 13.1815C30.2798 13.1851 29.6833 12.8367 29.3488 12.2077C28.9858 11.5248 29.0199 10.7942 29.4443 10.1634C29.9577 9.40049 31.0287 9.13542 31.8444 9.56935ZM12.3052 10.3039C10.5457 10.7385 9.36835 12.477 9.63682 14.2437C9.72989 14.8555 10.0556 15.6148 10.3929 16.006L10.6267 16.2772L10.2114 16.5686C9.56812 17.0197 9.01177 17.6969 8.64566 18.4745C8.27454 19.2627 8.14904 19.7487 8.13233 20.4624C8.12191 20.9082 8.14117 20.984 8.29747 21.1133C8.66882 21.4204 9.20553 21.1665 9.20831 20.6824C9.21085 20.2494 9.43324 19.3851 9.66672 18.901C9.95602 18.3011 10.6586 17.5665 11.2372 17.2589L11.6563 17.0361L12.1038 17.164C12.3518 17.2348 12.8178 17.2918 13.1494 17.2918H13.7476L13.8368 17.5397C13.8859 17.6761 14.059 17.9657 14.2215 18.1831L14.5169 18.5785L14.0239 18.9462C12.8487 19.8225 12.0588 21.3556 12.0555 22.7665C12.0542 23.3164 12.2071 23.5486 12.5705 23.5486C12.971 23.5486 13.1122 23.3444 13.1792 22.6678C13.243 22.0248 13.4182 21.4689 13.7251 20.9356C13.9842 20.4855 14.7186 19.7918 15.1976 19.5446C15.5956 19.3393 15.6003 19.3387 16.0227 19.4595C16.5662 19.6147 17.4331 19.6147 17.9766 19.4595C18.3984 19.339 18.4043 19.3395 18.797 19.5422C19.5604 19.9361 20.3617 20.8834 20.6317 21.7112C20.6972 21.9122 20.7807 22.3469 20.8171 22.677C20.8695 23.1531 20.9172 23.3053 21.0477 23.413C21.2704 23.5965 21.61 23.5845 21.8049 23.386C21.9504 23.2379 21.9611 23.1646 21.9253 22.5658C21.8377 21.1012 21.037 19.6903 19.7933 18.809L19.4774 18.5852L19.7753 18.1864C19.9392 17.9671 20.1134 17.6761 20.1625 17.5397L20.2517 17.2918H20.8499C21.1815 17.2918 21.6475 17.2348 21.8955 17.164L22.343 17.0361L22.7621 17.2589C23.3407 17.5665 24.0433 18.3011 24.3326 18.901C24.5684 19.3899 24.7885 20.2506 24.791 20.6931C24.7936 21.1691 25.3332 21.418 25.7018 21.1133C25.8581 20.984 25.8774 20.9082 25.867 20.4624C25.8503 19.7487 25.7248 19.2627 25.3536 18.4745C24.9875 17.6969 24.4312 17.0197 23.7879 16.5686L23.3726 16.2772L23.6064 16.006C23.9437 15.6148 24.2694 14.8555 24.3625 14.2437C24.7089 11.9638 22.6386 9.87892 20.4028 10.2562C19.3223 10.4385 18.2629 11.2167 17.8128 12.1586L17.6365 12.5273L16.9919 12.5278L16.3472 12.5282L16.1828 12.1636C15.9213 11.5829 15.2698 10.9247 14.6502 10.6153C13.8274 10.2044 13.0994 10.1077 12.3052 10.3039ZM14.0324 11.5577C14.4696 11.7547 14.9152 12.1771 15.1341 12.602C15.3119 12.9475 15.3122 12.9518 15.1639 13.0368C15.0815 13.084 14.8197 13.311 14.5822 13.5412C14.089 14.019 13.6628 14.8031 13.5899 15.3664C13.5643 15.565 13.525 15.8263 13.5026 15.9469L13.4619 16.1662L12.9267 16.1307C11.7617 16.0531 10.8693 15.1869 10.736 14.0041C10.6472 13.2169 11.0537 12.2761 11.6702 11.8421C12.3988 11.3294 13.2877 11.2223 14.0324 11.5577ZM21.8909 11.5896C23.3933 12.2901 23.7451 14.3849 22.5455 15.4885C22.0847 15.9124 21.6763 16.0904 21.0726 16.1307L20.5373 16.1662L20.4967 15.9469C20.4743 15.8263 20.435 15.565 20.4094 15.3664C20.3365 14.8031 19.9103 14.019 19.4171 13.5412C19.1796 13.311 18.9187 13.085 18.8373 13.039C18.6956 12.9589 18.6945 12.944 18.8132 12.6908C19.3522 11.5397 20.728 11.0474 21.8909 11.5896ZM17.8606 13.8329C18.3852 14.0097 19.0274 14.6718 19.2065 15.2204C19.587 16.3874 19.1395 17.5926 18.11 18.1734C17.7473 18.3779 17.6476 18.3982 16.9996 18.3982C16.3517 18.3982 16.252 18.3779 15.8893 18.1734C14.5794 17.4345 14.2435 15.6329 15.2076 14.5176C15.9071 13.7083 16.8039 13.4769 17.8606 13.8329ZM19.8538 25.4592C19.465 25.6257 19.3541 26.0613 19.6251 26.3574C19.7686 26.5144 19.8432 26.5244 20.8614 26.5244C21.8451 26.5244 21.9587 26.5104 22.0948 26.3718C22.2842 26.179 22.2872 25.8318 22.1015 25.5982C21.966 25.4277 21.9064 25.4171 20.9963 25.4C20.4672 25.39 19.953 25.4167 19.8538 25.4592ZM11.8713 25.6258C11.5939 26.029 11.8364 26.5244 12.3111 26.5244C12.586 26.5244 12.8786 26.249 12.8786 25.9903C12.8786 25.9177 12.8086 25.7678 12.7232 25.6573C12.5161 25.389 12.046 25.3717 11.8713 25.6258ZM13.8194 25.6258C13.542 26.029 13.7846 26.5244 14.2593 26.5244C14.5341 26.5244 14.8267 26.249 14.8267 25.9903C14.8267 25.9177 14.7568 25.7678 14.6714 25.6573C14.4643 25.389 13.9942 25.3717 13.8194 25.6258ZM15.7676 25.6258C15.7035 25.7191 15.6509 25.8831 15.6509 25.9903C15.6509 26.3244 15.8469 26.5244 16.1742 26.5244C16.3983 26.5244 16.4996 26.4787 16.6195 26.3234C16.705 26.2128 16.7749 26.063 16.7749 25.9903C16.7749 25.9177 16.705 25.7678 16.6195 25.6573C16.4124 25.389 15.9423 25.3717 15.7676 25.6258ZM3.9148 26.0553C4.70065 26.4821 5.0714 27.3809 4.82339 28.2575C4.72508 28.6048 4.61583 28.7808 4.31147 29.0822C3.68454 29.703 2.89554 29.8338 2.15487 29.4398C1.25954 28.9635 0.870509 27.8823 1.27063 26.9823C1.7495 25.905 2.89741 25.5025 3.9148 26.0553ZM31.7287 25.9527C32.0981 26.1049 32.52 26.5315 32.7084 26.9436C33.1334 27.8728 32.7595 28.9529 31.8444 29.4398C31.1038 29.8338 30.3148 29.703 29.6878 29.0822C29.0102 28.4113 28.9028 27.5658 29.3899 26.7386C29.8715 25.9209 30.8518 25.5915 31.7287 25.9527ZM11.9175 27.8456C11.687 28.0954 11.7023 28.4554 11.9521 28.6554C12.1472 28.8117 12.2063 28.8135 16.9996 28.8135C21.793 28.8135 21.8521 28.8117 22.0472 28.6554C22.3053 28.4487 22.3164 28.0694 22.0713 27.8349L21.8978 27.669H16.9892H12.0805L11.9175 27.8456ZM17.9061 34.2807C18.5443 34.6343 18.8734 35.208 18.8721 35.9645C18.8687 37.9944 16.1428 38.6252 15.3038 36.7903C14.8091 35.7086 15.3723 34.4357 16.5025 34.0808C16.8857 33.9605 17.4815 34.0453 17.9061 34.2807Z" fill="#FCB900"/>
</svg>
