<svg width="50" height="50" viewBox="0 0 50 50" fill="none" xmlns="http://www.w3.org/2000/svg">
<path fill-rule="evenodd" clip-rule="evenodd" d="M36.6756 0.139899C35.8286 0.326336 35.1075 0.634329 34.3809 1.12026C33.9576 1.40333 31.8216 3.47476 28.0155 7.2932C21.9117 13.4167 21.8801 13.453 21.3766 14.9064C20.8005 16.5691 21.0683 19.1906 21.8845 19.8772C22.5662 20.4508 23.1092 20.3389 24.069 19.4274C24.9716 18.5701 25.1571 18.1592 25.0071 17.3487C24.8881 16.705 24.9968 16.2736 25.4478 15.5996C25.5986 15.3742 28.1206 12.7803 31.0523 9.83561C36.919 3.94242 36.8706 3.98316 37.9865 3.98854C38.3591 3.9903 38.7334 4.06163 38.9954 4.18093C39.5768 4.44545 45.6388 10.5331 45.8671 11.0816C46.0945 11.6279 46.0737 12.473 45.8187 13.0527C45.6491 13.4382 44.65 14.4896 40.5561 18.5907C35.3262 23.8297 34.5226 24.5777 33.7647 24.913C33.3588 25.0925 33.2516 25.1008 32.6411 25.0001C32.0537 24.903 31.9205 24.9103 31.6123 25.0565C31.0722 25.3128 29.9084 26.5859 29.8294 27.007C29.6289 28.0755 30.4703 28.6956 32.4229 28.9183C33.7887 29.074 34.9742 28.8188 36.314 28.0804C36.8691 27.7744 37.8434 26.848 42.7168 21.992C48.9539 15.7771 49.2245 15.468 49.6746 14.0431C50.2673 12.1676 50.0503 10.3598 49.0239 8.61859C48.6754 8.02752 43.9179 3.11889 42.4024 1.78666C40.7044 0.294188 38.6537 -0.295512 36.6756 0.139899ZM30.2256 17.4849C30.0643 17.5213 29.8005 17.6215 29.6392 17.7076C29.2153 17.9341 17.8163 29.3916 17.6155 29.7931C17.36 30.3039 17.4007 31.0756 17.7111 31.6052C18.2046 32.4471 19.3692 32.8126 20.2133 32.3906C20.6836 32.1554 32.0919 20.7625 32.346 20.2743C33.0747 18.8738 31.7565 17.1395 30.2256 17.4849ZM16.0551 21.1077C15.3024 21.2096 14.4831 21.4972 13.6706 21.9448C13.128 22.2438 12.113 23.2096 7.27758 28.0278C3.13063 32.16 1.39627 33.9535 1.05071 34.4671C-0.0607456 36.1191 -0.318647 38.4655 0.412449 40.2752C0.895319 41.4706 1.25505 41.9135 4.03471 44.7344C7.39241 48.1422 8.16807 48.834 9.20447 49.3453C11.2427 50.3507 13.6843 50.189 15.578 48.9231C16.0468 48.6098 17.986 46.7325 21.9789 42.7266C28.0826 36.6031 28.1143 36.5669 28.6178 35.1135C29.1939 33.4507 28.926 30.8292 28.1099 30.1426C27.4281 29.569 26.8852 29.6809 25.9254 30.5925C25.0093 31.4625 24.8382 31.8525 24.9943 32.7137C25.0922 33.2532 25.0826 33.3641 24.9028 33.7706C24.5647 34.5346 23.8249 35.3293 18.5771 40.5667C14.4979 44.6375 13.4226 45.6595 13.0426 45.8266C12.4345 46.094 11.5709 46.0992 10.9989 45.8389C10.4176 45.5744 4.35554 39.4868 4.12725 38.9383C3.89984 38.392 3.92066 37.5468 4.17563 36.9671C4.34528 36.5816 5.34435 35.5302 9.43823 31.4291C14.6681 26.1901 15.4717 25.4421 16.2297 25.1069C16.6355 24.9274 16.7428 24.919 17.3533 25.0198C17.9407 25.1168 18.0739 25.1095 18.382 24.9633C18.9222 24.707 20.086 23.4339 20.165 23.0129C20.3658 21.9428 19.526 21.3255 17.5624 21.0997C17.1096 21.0477 16.7172 21.0104 16.6904 21.0168C16.6635 21.0232 16.3776 21.0642 16.0551 21.1077Z" fill="black"/>
</svg>
