<svg width="50" height="15" viewBox="0 0 50 15" fill="none" xmlns="http://www.w3.org/2000/svg">
<path fill-rule="evenodd" clip-rule="evenodd" d="M6.00544 0.0662896C3.30124 0.554901 1.09049 2.62801 0.244892 5.46834C-0.0816307 6.56494 -0.0816307 8.44945 0.244892 9.54605C1.01216 12.1231 2.76877 13.9548 5.2463 14.7612C5.97972 15 5.98012 15 11.6027 15C17.9124 15 17.7731 15.0137 19.2792 14.2405C21.0056 13.3541 22.3883 11.6902 22.9896 9.77542L23.1577 9.24022H25H26.8423L27.0104 9.77542C27.6117 11.6902 28.9944 13.3541 30.7208 14.2405C32.2269 15.0137 32.0876 15 38.3973 15C44.0199 15 44.0203 15 44.7537 14.7612C47.2312 13.9548 48.9878 12.1231 49.7551 9.54605C50.0816 8.44945 50.0816 6.56494 49.7551 5.46834C48.9878 2.89133 47.2312 1.05962 44.7537 0.25315C44.0203 0.0144 44.0199 0.0144005 38.3973 0.0144005C32.0876 0.0144005 32.2269 0.000637862 30.7208 0.773874C28.9944 1.66027 27.6117 3.32418 27.0104 5.23897L26.8423 5.77417H25H23.1577L22.9896 5.23897C22.3882 3.32377 21.0049 1.65925 19.2792 0.774384C17.7786 0.00481804 17.9646 0.0242886 11.8961 0.00226895C8.911 -0.00853698 6.26029 0.0203134 6.00544 0.0662896ZM17.3681 3.66385C18.1271 3.976 18.7568 4.47011 19.2064 5.10644L19.6421 5.72319L18.4094 5.75174L17.1768 5.78028V7.50719V9.2341L18.4094 9.26265L19.6421 9.29119L19.2064 9.90794C18.7567 10.5445 18.1267 11.0387 17.3681 11.3503C16.9776 11.5108 16.4307 11.5328 12.1 11.5625C9.16076 11.5827 7.01914 11.5553 6.63326 11.4926C4.95224 11.2198 3.6747 9.90499 3.37664 8.14077C3.02469 6.05777 4.48353 3.89444 6.48335 3.53387C6.74425 3.48688 9.20193 3.4565 11.945 3.46649C16.4477 3.4829 16.9746 3.50207 17.3681 3.66385ZM44.0692 3.66456C45.1464 4.10098 46.0278 5.00888 46.4421 6.10864C46.6979 6.78799 46.7147 8.15708 46.4755 8.83245C46.0766 9.95861 45.1048 10.9616 44.0355 11.3505C43.5743 11.5182 43.0845 11.5339 38.2995 11.5339C33.5132 11.5339 33.0307 11.5185 32.6319 11.3526C31.8686 11.0351 31.2421 10.5427 30.7936 9.90794L30.3579 9.29119L31.5906 9.26265L32.8232 9.2341V7.50413V5.77417H31.5953H30.3674L30.544 5.45366C31.035 4.56288 32.1334 3.74632 33.121 3.53795C33.3606 3.48739 35.823 3.45507 38.5929 3.46618C43.1259 3.48433 43.6731 3.5041 44.0692 3.66456Z" fill="#7D39EC"/>
</svg>
