<svg width="35" height="35" viewBox="0 0 35 35" fill="none" xmlns="http://www.w3.org/2000/svg">
<path fill-rule="evenodd" clip-rule="evenodd" d="M0 3C0 1.34277 1.34375 0 3 0H32C33.6562 0 35 1.34277 35 3V32C35 33.6572 33.6562 35 32 35H3C1.34375 35 0 33.6572 0 32V3ZM8 9H9.77148V20.5439H16.7754V21.9678H8V9ZM21.6055 12.4004C22.8145 12.2422 24.1016 12.4795 25.0684 13.2695C26.1152 13.9814 26.6777 15.2471 26.7578 16.4326C26.9199 17.8555 26.7578 19.2793 25.9531 20.4658C25.2285 21.4141 24.1016 22.0469 22.8145 22.126C21.6055 22.2842 20.2383 22.0469 19.1914 21.2559C18.2246 20.4658 17.7422 19.2793 17.5801 18.0928C17.4199 16.8281 17.5801 15.4043 18.3848 14.2979C19.0293 13.1904 20.3184 12.4795 21.6055 12.4004ZM21.8477 13.7441C22.6523 13.665 23.5391 13.9023 24.1816 14.4561C24.7461 15.0889 25.0684 15.8789 25.1484 16.6699C25.2285 17.54 25.1484 18.4883 24.7461 19.2793C24.3438 20.0703 23.6191 20.623 22.7324 20.7812C21.9277 20.9395 21.043 20.7021 20.4785 20.2285C19.834 19.7539 19.4316 19.042 19.2715 18.3301C19.1094 17.3027 19.1914 16.2744 19.5938 15.3262C19.9961 14.4561 20.8809 13.8232 21.8477 13.7441ZM27 24.0234H8V26H27V24.0234Z" fill="white"/>
</svg>
