<svg width="90" height="116" viewBox="0 0 90 116" fill="none" xmlns="http://www.w3.org/2000/svg">
<g filter="url(#filter0_d_808_72)">
<path d="M45 4L77.8369 19.8134L85.947 55.3459L63.2231 83.8407H26.7769L4.05303 55.3459L12.1631 19.8134L45 4Z" fill="white"/>
</g>
<path d="M13.4939 112V101.091H15.1399V110.583H20.0831V112H13.4939ZM25.2793 112.165C24.5122 112.165 23.8428 111.989 23.2711 111.638C22.6994 111.286 22.2555 110.794 21.9394 110.162C21.6234 109.53 21.4653 108.792 21.4653 107.946C21.4653 107.098 21.6234 106.355 21.9394 105.72C22.2555 105.084 22.6994 104.591 23.2711 104.239C23.8428 103.887 24.5122 103.712 25.2793 103.712C26.0463 103.712 26.7157 103.887 27.2874 104.239C27.8592 104.591 28.303 105.084 28.6191 105.72C28.9351 106.355 29.0932 107.098 29.0932 107.946C29.0932 108.792 28.9351 109.53 28.6191 110.162C28.303 110.794 27.8592 111.286 27.2874 111.638C26.7157 111.989 26.0463 112.165 25.2793 112.165ZM25.2846 110.828C25.7817 110.828 26.1937 110.697 26.5204 110.434C26.8471 110.171 27.0886 109.821 27.2448 109.385C27.4046 108.948 27.4845 108.467 27.4845 107.941C27.4845 107.419 27.4046 106.94 27.2448 106.503C27.0886 106.062 26.8471 105.709 26.5204 105.443C26.1937 105.176 25.7817 105.043 25.2846 105.043C24.7839 105.043 24.3684 105.176 24.0381 105.443C23.7114 105.709 23.4682 106.062 23.3084 106.503C23.1521 106.94 23.074 107.419 23.074 107.941C23.074 108.467 23.1521 108.948 23.3084 109.385C23.4682 109.821 23.7114 110.171 24.0381 110.434C24.3684 110.697 24.7839 110.828 25.2846 110.828ZM34.3014 115.239C33.6515 115.239 33.0922 115.153 32.6234 114.983C32.1582 114.813 31.7783 114.587 31.4835 114.306C31.1888 114.026 30.9686 113.719 30.823 113.385L32.192 112.82C32.2879 112.977 32.4157 113.142 32.5755 113.316C32.7389 113.493 32.959 113.644 33.236 113.768C33.5166 113.893 33.877 113.955 34.3173 113.955C34.921 113.955 35.42 113.808 35.8141 113.513C36.2083 113.222 36.4054 112.756 36.4054 112.117V110.509H36.3042C36.2083 110.683 36.0698 110.876 35.8887 111.089C35.7112 111.302 35.4661 111.487 35.1536 111.643C34.8411 111.799 34.4345 111.877 33.9338 111.877C33.2875 111.877 32.7051 111.727 32.1867 111.425C31.6717 111.119 31.2634 110.67 30.9615 110.077C30.6632 109.48 30.5141 108.747 30.5141 107.877C30.5141 107.007 30.6614 106.261 30.9562 105.64C31.2545 105.018 31.6629 104.543 32.1813 104.212C32.6998 103.879 33.2875 103.712 33.9445 103.712C34.4523 103.712 34.8624 103.797 35.1749 103.967C35.4874 104.134 35.7307 104.33 35.9047 104.553C36.0823 104.777 36.219 104.974 36.3149 105.145H36.432V103.818H37.9928V112.181C37.9928 112.884 37.8294 113.461 37.5027 113.912C37.176 114.363 36.7339 114.697 36.1764 114.914C35.6224 115.13 34.9974 115.239 34.3014 115.239ZM34.2854 110.556C34.7435 110.556 35.1305 110.45 35.4466 110.237C35.7662 110.02 36.0077 109.711 36.171 109.31C36.3379 108.905 36.4214 108.42 36.4214 107.856C36.4214 107.305 36.3397 106.821 36.1764 106.402C36.013 105.983 35.7733 105.656 35.4573 105.422C35.1412 105.184 34.7506 105.065 34.2854 105.065C33.806 105.065 33.4065 105.189 33.0869 105.438C32.7673 105.683 32.5258 106.016 32.3624 106.439C32.2026 106.862 32.1227 107.334 32.1227 107.856C32.1227 108.392 32.2044 108.863 32.3678 109.267C32.5311 109.672 32.7726 109.988 33.0922 110.216C33.4153 110.443 33.8131 110.556 34.2854 110.556ZM40.1288 112V103.818H41.7215V112H40.1288ZM40.9331 102.556C40.6561 102.556 40.4182 102.463 40.2193 102.279C40.024 102.091 39.9264 101.867 39.9264 101.608C39.9264 101.345 40.024 101.121 40.2193 100.936C40.4182 100.748 40.6561 100.654 40.9331 100.654C41.2101 100.654 41.4462 100.748 41.6416 100.936C41.8404 101.121 41.9399 101.345 41.9399 101.608C41.9399 101.867 41.8404 102.091 41.6416 102.279C41.4462 102.463 41.2101 102.556 40.9331 102.556ZM49.9952 105.816L48.5516 106.071C48.4913 105.887 48.3954 105.711 48.264 105.544C48.1361 105.377 47.9621 105.24 47.742 105.134C47.5218 105.027 47.2466 104.974 46.9163 104.974C46.4653 104.974 46.0889 105.075 45.7871 105.278C45.4852 105.477 45.3343 105.734 45.3343 106.05C45.3343 106.324 45.4355 106.544 45.6379 106.711C45.8403 106.877 46.167 107.014 46.618 107.121L47.9177 107.419C48.6706 107.593 49.2317 107.861 49.601 108.223C49.9703 108.586 50.155 109.056 50.155 109.635C50.155 110.125 50.0129 110.562 49.7288 110.945C49.4483 111.325 49.0559 111.624 48.5516 111.84C48.0509 112.057 47.4703 112.165 46.8098 112.165C45.8936 112.165 45.1461 111.97 44.5672 111.579C43.9884 111.185 43.6333 110.626 43.5019 109.901L45.0413 109.667C45.1372 110.068 45.3343 110.372 45.6326 110.578C45.9309 110.78 46.3197 110.881 46.7991 110.881C47.3212 110.881 47.7384 110.773 48.0509 110.556C48.3634 110.336 48.5197 110.068 48.5197 109.752C48.5197 109.496 48.4238 109.282 48.232 109.108C48.0438 108.934 47.7544 108.802 47.3638 108.713L45.9788 108.41C45.2153 108.236 44.6507 107.959 44.2849 107.579C43.9227 107.199 43.7416 106.718 43.7416 106.135C43.7416 105.652 43.8766 105.23 44.1464 104.868C44.4163 104.505 44.7892 104.223 45.265 104.021C45.7409 103.815 46.286 103.712 46.9003 103.712C47.7846 103.712 48.4806 103.903 48.9884 104.287C49.4962 104.667 49.8318 105.176 49.9952 105.816ZM55.7254 103.818V105.097H51.2563V103.818H55.7254ZM52.4548 101.858H54.0475V109.598C54.0475 109.907 54.0936 110.139 54.1859 110.295C54.2783 110.448 54.3972 110.553 54.5428 110.61C54.692 110.663 54.8536 110.69 55.0276 110.69C55.1554 110.69 55.2673 110.681 55.3631 110.663C55.459 110.645 55.5336 110.631 55.5869 110.62L55.8745 111.936C55.7822 111.972 55.6508 112.007 55.4803 112.043C55.3099 112.082 55.0968 112.103 54.8411 112.107C54.4221 112.114 54.0315 112.039 53.6693 111.883C53.307 111.727 53.0141 111.485 52.7903 111.158C52.5666 110.832 52.4548 110.422 52.4548 109.928V101.858ZM57.4872 112V103.818H59.0799V112H57.4872ZM58.2915 102.556C58.0145 102.556 57.7766 102.463 57.5777 102.279C57.3824 102.091 57.2848 101.867 57.2848 101.608C57.2848 101.345 57.3824 101.121 57.5777 100.936C57.7766 100.748 58.0145 100.654 58.2915 100.654C58.5685 100.654 58.8046 100.748 59 100.936C59.1988 101.121 59.2983 101.345 59.2983 101.608C59.2983 101.867 59.1988 102.091 59 102.279C58.8046 102.463 58.5685 102.556 58.2915 102.556ZM64.6689 112.165C63.877 112.165 63.1952 111.986 62.6234 111.627C62.0553 111.265 61.6185 110.766 61.3131 110.13C61.0077 109.495 60.855 108.767 60.855 107.946C60.855 107.115 61.0112 106.382 61.3237 105.746C61.6362 105.107 62.0766 104.608 62.6448 104.25C63.2129 103.891 63.8823 103.712 64.6529 103.712C65.2744 103.712 65.8283 103.827 66.3149 104.058C66.8014 104.285 67.1938 104.605 67.4921 105.017C67.7939 105.429 67.9732 105.91 68.0301 106.46H66.48C66.3948 106.077 66.1994 105.746 65.894 105.469C65.5922 105.192 65.1874 105.054 64.6796 105.054C64.2357 105.054 63.8468 105.171 63.513 105.406C63.1828 105.636 62.9253 105.967 62.7406 106.396C62.556 106.822 62.4636 107.327 62.4636 107.909C62.4636 108.506 62.5542 109.021 62.7353 109.454C62.9164 109.887 63.1721 110.223 63.5024 110.461C63.8362 110.699 64.2286 110.817 64.6796 110.817C64.9814 110.817 65.2548 110.762 65.4999 110.652C65.7484 110.539 65.9562 110.377 66.1231 110.168C66.2935 109.958 66.4125 109.706 66.48 109.411H68.0301C67.9732 109.94 67.801 110.413 67.5134 110.828C67.2257 111.244 66.8404 111.57 66.3575 111.808C65.8781 112.046 65.3152 112.165 64.6689 112.165ZM75.8643 105.816L74.4208 106.071C74.3604 105.887 74.2645 105.711 74.1331 105.544C74.0053 105.377 73.8313 105.24 73.6111 105.134C73.3909 105.027 73.1157 104.974 72.7855 104.974C72.3345 104.974 71.9581 105.075 71.6562 105.278C71.3544 105.477 71.2034 105.734 71.2034 106.05C71.2034 106.324 71.3046 106.544 71.5071 106.711C71.7095 106.877 72.0362 107.014 72.4872 107.121L73.7869 107.419C74.5397 107.593 75.1008 107.861 75.4701 108.223C75.8394 108.586 76.0241 109.056 76.0241 109.635C76.0241 110.125 75.8821 110.562 75.598 110.945C75.3174 111.325 74.925 111.624 74.4208 111.84C73.9201 112.057 73.3394 112.165 72.6789 112.165C71.7627 112.165 71.0152 111.97 70.4364 111.579C69.8576 111.185 69.5024 110.626 69.371 109.901L70.9105 109.667C71.0063 110.068 71.2034 110.372 71.5017 110.578C71.8 110.78 72.1889 110.881 72.6683 110.881C73.1903 110.881 73.6076 110.773 73.9201 110.556C74.2326 110.336 74.3888 110.068 74.3888 109.752C74.3888 109.496 74.2929 109.282 74.1012 109.108C73.913 108.934 73.6235 108.802 73.2329 108.713L71.848 108.41C71.0845 108.236 70.5198 107.959 70.1541 107.579C69.7919 107.199 69.6108 106.718 69.6108 106.135C69.6108 105.652 69.7457 105.23 70.0156 104.868C70.2855 104.505 70.6583 104.223 71.1342 104.021C71.61 103.815 72.1551 103.712 72.7695 103.712C73.6537 103.712 74.3497 103.903 74.8576 104.287C75.3654 104.667 75.701 105.176 75.8643 105.816Z" fill="black"/>
<path fill-rule="evenodd" clip-rule="evenodd" d="M45.5061 27.5756C43.8101 28.4422 42.3239 29.2604 42.2038 29.3936C41.7917 29.8505 41.7716 30.0681 41.7716 34.0912C41.7716 38.1144 41.7917 38.332 42.2038 38.7889C42.3239 38.9221 43.8101 39.7403 45.5061 40.6068C47.8967 41.8283 48.6774 42.1825 48.9791 42.1825C49.2809 42.1825 50.0616 41.8283 52.4522 40.6068C54.1482 39.7403 55.6344 38.9221 55.7545 38.7889C56.1219 38.3816 56.1867 38.0294 56.1867 36.4403V34.9106H55.3858H54.585V36.2929V37.6751L52.1825 38.905L49.78 40.1349V36.9598V33.7848L52.1825 32.5549L54.585 31.3251V32.2985V33.2719H55.3858H56.1867V31.7422C56.1867 30.1531 56.1219 29.8008 55.7545 29.3936C55.6344 29.2604 54.1482 28.4422 52.4522 27.5756C50.0616 26.3542 49.2809 26 48.9791 26C48.6774 26 47.8967 26.3542 45.5061 27.5756ZM49.6279 27.968C49.9868 28.1491 50.2805 28.3224 50.2805 28.3531C50.2805 28.3838 49.2672 28.9268 48.0289 29.5595L45.7771 30.7101L45.1258 30.3815C44.7676 30.2008 44.4745 30.0277 44.4745 29.997C44.4745 29.9561 48.8028 27.6822 48.9522 27.6446C48.9649 27.6414 49.269 27.7869 49.6279 27.968ZM52.8313 29.6067C53.1901 29.7878 53.4838 29.9611 53.4838 29.9918C53.4838 30.0226 52.4706 30.5655 51.2322 31.1983L48.9804 32.3489L48.3292 32.0202C47.9709 31.8395 47.6778 31.6664 47.6778 31.6357C47.6778 31.5948 52.0061 29.3209 52.1556 29.2833C52.1683 29.2801 52.4724 29.4257 52.8313 29.6067ZM44.975 33.5291V34.9106H45.7758H46.5766V33.9365V32.9624L47.3775 33.3743L48.1783 33.7862V36.9606V40.1349L45.7758 38.905L43.3733 37.6751V34.4994V31.3236L44.1741 31.7356L44.975 32.1475V33.5291ZM36.9666 35.0445C36.4753 35.2029 35.6373 36.0907 35.4867 36.6124C35.4076 36.8865 35.365 37.8094 35.365 39.2498V41.4655L32.2868 41.4678C28.8253 41.4704 28.5859 41.5129 28.1873 42.196C28.0767 42.3857 27.3457 44.185 26.563 46.1945L25.1399 49.848L23.6143 50.4738C21.9879 51.1409 21.5462 51.4541 21.1863 52.1947C21.013 52.5514 21 52.8975 21 57.1439V61.7096L21.2885 62.0966C21.712 62.6648 22.049 62.7687 23.4744 62.7711L24.7039 62.7732L25.0042 63.2962C25.6457 64.4137 26.8045 65.3346 28.1575 65.802C28.9214 66.066 30.5969 66.066 31.3608 65.802C32.7275 65.3298 33.8686 64.4234 34.5141 63.2971L34.8144 62.7732H41.7716H48.7289L49.0292 63.2962C49.6708 64.4137 50.8296 65.3346 52.1825 65.802C52.9464 66.066 54.6219 66.066 55.3858 65.802C56.7525 65.3298 57.8936 64.4234 58.5391 63.2971L58.8394 62.7732L59.6787 62.7711C60.1403 62.77 60.7034 62.713 60.93 62.6445C61.4799 62.4783 62.3091 61.6298 62.4716 61.0672C62.5552 60.7778 62.5933 59.6942 62.5933 57.6105V54.5754H61.7925H60.9917V57.6014V60.6275L60.7459 60.8789C60.5417 61.0879 60.4024 61.1303 59.92 61.1304L59.3399 61.1306L59.3745 60.5627C59.4657 59.0635 58.8249 57.3885 57.7327 56.2711C55.5472 54.0349 52.0527 54.0323 49.8488 56.2652C48.7438 57.3847 48.1019 59.0516 48.1938 60.5627L48.2284 61.1306L42.5975 61.1304L36.9666 61.1303V55.3948V49.6592H36.1658H35.365L35.3538 54.6522C35.346 58.0936 35.3133 59.4861 35.2485 59.1331C35.08 58.2159 34.4319 57.012 33.7076 56.2711C31.5222 54.0349 28.0277 54.0323 25.8237 56.2652C24.7188 57.3847 24.0769 59.0516 24.1688 60.5627L24.2033 61.1306L23.3775 61.1304L22.5516 61.1303V58.2625V55.3948H23.7529H24.9541V54.5754V53.756H23.7529H22.5516V53.3692C22.5516 53.1564 22.6182 52.8849 22.6996 52.7661C22.7878 52.6373 23.4245 52.3075 24.2762 51.9495L25.7049 51.3491L29.2265 51.2979C32.5856 51.2491 32.7608 51.237 33.0242 51.0355C33.6939 50.5235 33.7103 50.4586 33.7439 48.1774C33.7787 45.8134 33.7298 45.5763 33.1064 45.0894L32.7285 44.7942L30.8059 44.743L28.8833 44.6918L29.1864 43.898L29.4896 43.1043H32.4273H35.365V45.5624V48.0205H36.1658H36.9666V42.5363V37.0521L37.2124 36.8008C37.449 36.5586 37.5078 36.5493 38.8141 36.5493H40.17V35.73V34.9106L38.7435 34.9211C37.9589 34.9268 37.1593 34.9824 36.9666 35.0445ZM57.7883 35.73V36.5493H59.1442C60.4505 36.5493 60.5093 36.5586 60.7459 36.8008L60.9917 37.0521V40.0782V43.1043H61.7925H62.5933V40.0691C62.5933 38.0205 62.5547 36.9019 62.4743 36.6276C62.4088 36.4041 62.1606 35.9996 61.9225 35.7287C61.3122 35.0342 60.8968 34.9106 59.172 34.9106H57.7883V35.73ZM40.9544 46.0438C40.2476 46.7593 39.6744 47.3929 39.6803 47.4521C39.6862 47.5112 39.9354 47.7868 40.234 48.0646L40.777 48.5696L41.2743 48.0685L41.7716 47.5673V49.4326V51.2979H42.5725H43.3733V49.4326V47.5673L43.8706 48.0685L44.3679 48.5696L44.9109 48.0646C45.2095 47.7868 45.4588 47.5112 45.4647 47.4521C45.4706 47.3929 44.8973 46.7593 44.1906 46.0438C43.0623 44.9016 42.865 44.743 42.5725 44.743C42.28 44.743 42.0827 44.9016 40.9544 46.0438ZM49.78 45.5624V46.3817H56.1867H62.5933V45.5624V44.743H56.1867H49.78V45.5624ZM64.195 45.5624V46.3817H64.9958H65.7967V45.5624V44.743H64.9958H64.195V45.5624ZM32.1616 48.0205V49.6592H29.5506C28.0942 49.6592 26.9543 49.6195 26.9729 49.5693C26.9912 49.5199 27.2765 48.7827 27.6069 47.9311L28.2075 46.3827L30.1846 46.3822L32.1616 46.3817V48.0205ZM54.585 48.8398V49.6592H55.3858H56.1867V48.8398V48.0205H55.3858H54.585V48.8398ZM57.7883 48.8398V49.6592H63.3942H69V48.8398V48.0205H63.3942H57.7883V48.8398ZM48.1783 50.4786V51.2979H48.9791H49.78V50.4786V49.6592H48.9791H48.1783V50.4786ZM54.585 52.1173V52.9367H60.1908H65.7967V52.1173V51.2979H60.1908H54.585V52.1173ZM67.3983 55.3948V56.2141H68.1992H69V55.3948V54.5754H68.1992H67.3983V55.3948ZM31.4037 56.6054C32.307 57.0379 32.8914 57.626 33.3394 58.5534C33.6926 59.2847 33.7132 59.3815 33.7132 60.311C33.7132 61.2404 33.6926 61.3372 33.3394 62.0685C32.8891 63.0007 32.3095 63.5814 31.3788 64.0324C30.7741 64.3255 30.6191 64.3566 29.7591 64.3566C28.8991 64.3566 28.7442 64.3255 28.1394 64.0324C27.2088 63.5814 26.6292 63.0007 26.1789 62.0685C25.826 61.338 25.805 61.2396 25.805 60.3163C25.805 59.4303 25.8349 59.2733 26.1218 58.6538C26.5241 57.7851 27.0968 57.1491 27.8437 56.7418C28.6322 56.3118 29.0637 56.2145 29.9843 56.2594C30.5851 56.2887 30.9051 56.3666 31.4037 56.6054ZM55.4288 56.6054C56.332 57.0379 56.9164 57.626 57.3644 58.5534C57.7176 59.2847 57.7383 59.3815 57.7383 60.311C57.7383 61.2404 57.7176 61.3372 57.3644 62.0685C56.9141 63.0007 56.3345 63.5814 55.4038 64.0324C54.7991 64.3255 54.6441 64.3566 53.7841 64.3566C52.9242 64.3566 52.7692 64.3255 52.1645 64.0324C51.2338 63.5814 50.6542 63.0007 50.2039 62.0685C49.8511 61.338 49.83 61.2396 49.83 60.3163C49.83 59.4303 49.86 59.2733 50.1469 58.6538C50.5491 57.7851 51.1218 57.1491 51.8688 56.7418C52.6573 56.3118 53.0887 56.2145 54.0093 56.2594C54.6101 56.2887 54.9301 56.3666 55.4288 56.6054ZM28.9583 57.9867C28.7656 58.0489 28.3812 58.3323 28.104 58.6164C27.3966 59.3419 27.2012 60.1072 27.4783 61.0672C27.6408 61.6298 28.4701 62.4783 29.02 62.6445C29.9585 62.9282 30.7068 62.7282 31.4142 62.0044C32.3925 61.0035 32.4217 59.7303 31.4908 58.671C30.843 57.9338 29.907 57.6808 28.9583 57.9867ZM52.9833 57.9867C52.492 58.1452 51.654 59.033 51.5034 59.5547C51.2261 60.515 51.4216 61.2806 52.129 62.0044C52.6475 62.5348 53.1545 62.7691 53.7841 62.7691C54.4138 62.7691 54.9208 62.5348 55.4393 62.0044C56.4175 61.0035 56.4467 59.7303 55.5159 58.671C54.868 57.9338 53.932 57.6808 52.9833 57.9867ZM30.3142 59.743C30.8108 60.251 30.459 61.1303 29.7591 61.1303C29.3476 61.1303 28.9583 60.732 28.9583 60.311C28.9583 59.8899 29.3476 59.4916 29.7591 59.4916C29.9541 59.4916 30.1593 59.5845 30.3142 59.743ZM54.3392 59.743C54.4942 59.9015 54.585 60.1114 54.585 60.311C54.585 60.5105 54.4942 60.7204 54.3392 60.8789C54.1844 61.0374 53.9792 61.1303 53.7841 61.1303C53.5891 61.1303 53.3839 61.0374 53.2291 60.8789C53.0741 60.7204 52.9833 60.5105 52.9833 60.311C52.9833 60.1114 53.0741 59.9015 53.2291 59.743C53.3839 59.5845 53.5891 59.4916 53.7841 59.4916C53.9792 59.4916 54.1844 59.5845 54.3392 59.743Z" fill="#1BA329"/>
<defs>
<filter id="filter0_d_808_72" x="0.0546875" y="0" width="89.8906" height="87.8408" filterUnits="userSpaceOnUse" color-interpolation-filters="sRGB">
<feFlood flood-opacity="0" result="BackgroundImageFix"/>
<feColorMatrix in="SourceAlpha" type="matrix" values="0 0 0 0 0 0 0 0 0 0 0 0 0 0 0 0 0 0 127 0" result="hardAlpha"/>
<feOffset/>
<feGaussianBlur stdDeviation="2"/>
<feComposite in2="hardAlpha" operator="out"/>
<feColorMatrix type="matrix" values="0 0 0 0 0 0 0 0 0 0 0 0 0 0 0 0 0 0 0.25 0"/>
<feBlend mode="normal" in2="BackgroundImageFix" result="effect1_dropShadow_808_72"/>
<feBlend mode="normal" in="SourceGraphic" in2="effect1_dropShadow_808_72" result="shape"/>
</filter>
</defs>
</svg>
