<svg width="18" height="18" viewBox="0 0 18 18" fill="none" xmlns="http://www.w3.org/2000/svg">
<path d="M1.60577 4.73094L9 0.46188L16.3942 4.73094V13.2691L9 17.5381L1.60577 13.2691V4.73094Z" stroke="#410EAD" stroke-width="0.8"/>
<path d="M4 5.74346C4.04187 5.70462 4.08839 5.67128 4.13847 5.64423C4.68147 5.44576 5.20005 5.25281 5.73491 5.05985C5.82222 5.01973 5.91706 4.99931 6.0129 5.00002C6.10873 5.00072 6.20328 5.02253 6.29 5.06394C6.37673 5.10534 6.45358 5.16536 6.51524 5.23984C6.5769 5.31433 6.62191 5.40151 6.64716 5.49538C7.26981 7.22278 7.88883 8.9511 8.50424 10.6803C8.51012 10.7088 8.52608 10.7341 8.54911 10.7513C8.57214 10.7686 8.60062 10.7767 8.62913 10.7741C8.69683 10.7784 8.76404 10.7885 8.83005 10.8044C8.8029 10.7217 8.77846 10.6473 8.75131 10.5756C8.27708 9.25064 7.80195 7.92293 7.32592 6.59246C7.2689 6.43534 7.29062 6.38848 7.44809 6.33059L10.2934 5.28037C10.4509 5.22248 10.4944 5.24178 10.565 5.40166L10.7523 5.9309C10.7621 5.95325 10.7702 5.97628 10.7767 5.99982C10.784 6.01691 10.7877 6.03537 10.7875 6.05399C10.7873 6.07262 10.7832 6.09099 10.7755 6.10791C10.7678 6.12482 10.7567 6.13989 10.7429 6.15214C10.729 6.16439 10.7128 6.17354 10.6953 6.17899C10.6785 6.18488 10.6608 6.18717 10.6431 6.18572C10.6255 6.18426 10.6083 6.17909 10.5927 6.17054C10.5772 6.16198 10.5635 6.15023 10.5526 6.13602C10.5418 6.12181 10.534 6.10547 10.5297 6.08802C10.4754 5.94193 10.4238 5.79583 10.3722 5.6525C10.3722 5.62218 10.3505 5.59185 10.3342 5.55602L9.41649 5.8868C9.43821 5.95296 9.45722 6.0136 9.47894 6.07148C9.50066 6.12937 9.53596 6.2286 9.56311 6.30854C9.64999 6.54836 9.64184 6.5649 9.40835 6.65035L8.90335 6.83503C8.78661 6.87914 8.72959 6.85157 8.68615 6.73304C8.62642 6.57317 8.5694 6.41053 8.50967 6.2479V6.22585L7.59742 6.55938L8.28975 8.48893L11.0048 7.48281C10.9776 7.40287 10.9532 7.32844 10.9261 7.25402C10.8527 7.04453 10.7767 6.83228 10.7007 6.62278C10.6838 6.59272 10.6791 6.55713 10.6878 6.52363C10.6964 6.49013 10.7176 6.46141 10.7469 6.44361C10.8256 6.38848 10.9098 6.42707 10.9505 6.53733C11.0455 6.79644 11.1378 7.05555 11.222 7.31742L12.1777 9.98294L12.2157 10.0767L12.5849 9.9416C12.737 9.88647 12.7804 9.90852 12.8374 10.0629C12.8945 10.2172 12.9325 10.3385 12.9786 10.4571C13.0248 10.5756 13.0003 10.6445 12.8646 10.6941L9.72601 11.8601C9.69197 11.8681 9.66149 11.8873 9.63937 11.9147C9.61725 11.9421 9.60475 11.9763 9.60383 12.0117C9.58591 12.2261 9.50408 12.4298 9.36924 12.5958C9.23439 12.7617 9.05294 12.882 8.84905 12.9407C8.63727 13.015 8.40777 13.0196 8.19326 12.9538C7.97876 12.888 7.79019 12.7551 7.65444 12.574C7.48875 12.3652 7.40369 12.1023 7.41519 11.8344C7.42668 11.5665 7.53394 11.312 7.71688 11.1186C7.74412 11.0964 7.76285 11.0653 7.76979 11.0305C7.77674 10.9958 7.77146 10.9596 7.75489 10.9284C7.15759 9.27453 6.56118 7.6142 5.96569 5.94744L5.93039 5.84545L5.83808 5.87577L4.40726 6.39951C4.2715 6.44912 4.22263 6.42707 4.17376 6.28925L4 5.83167V5.74346ZM8.37935 8.74252C8.38736 8.77527 8.39733 8.80749 8.40922 8.839C8.64542 9.4978 8.88435 10.1566 9.11784 10.8182C9.14991 10.9244 9.21 11.0197 9.2916 11.0938C9.30677 11.1105 9.32677 11.1219 9.34872 11.1264C9.37067 11.1308 9.39345 11.1281 9.41378 11.1186L11.0238 10.5177L11.9795 10.1649L11.1052 7.72814L10.1957 8.06443C10.2582 8.24084 10.3179 8.40348 10.3776 8.56886C10.4211 8.69291 10.3939 8.75079 10.2717 8.7949L9.70157 9.00715C9.56582 9.05676 9.51152 9.03195 9.46265 8.89137C9.41378 8.75079 9.3459 8.56886 9.28617 8.40072L8.37935 8.74252ZM4.39096 6.10732L4.47242 6.07975L5.91138 5.55602C6.04985 5.5064 6.10144 5.52845 6.15031 5.67179C6.69331 7.17316 7.23632 8.67637 7.77933 10.1814C7.86078 10.4102 7.94495 10.639 8.0264 10.8705L8.27075 10.7796C8.27075 10.7548 8.27075 10.7355 8.25446 10.7162C7.63543 9.00531 7.01459 7.28985 6.39195 5.5698C6.37806 5.51293 6.3522 5.4598 6.31613 5.41406C6.28007 5.36832 6.23466 5.33106 6.18304 5.30486C6.13143 5.27866 6.07483 5.26413 6.01715 5.26228C5.95947 5.26044 5.90208 5.27131 5.84894 5.29415L4.81451 5.67455L4.31494 5.85648L4.39096 6.10732ZM7.68159 11.8959C7.68485 12.0634 7.73698 12.2261 7.83137 12.3634C7.92576 12.5008 8.05816 12.6066 8.21182 12.6675C8.36548 12.7284 8.53348 12.7416 8.69456 12.7056C8.85564 12.6695 9.00255 12.5857 9.11669 12.4648C9.23083 12.3439 9.30707 12.1913 9.33575 12.0264C9.36444 11.8614 9.34428 11.6916 9.27783 11.5383C9.21139 11.385 9.10164 11.2552 8.96248 11.1653C8.82332 11.0754 8.66101 11.0294 8.4961 11.0332C8.2755 11.0382 8.06587 11.1319 7.91319 11.2936C7.76051 11.4554 7.67722 11.672 7.68159 11.8959ZM9.58211 11.6203L12.7071 10.4653L12.6148 10.2145L9.49794 11.375L9.58211 11.6203ZM8.90335 6.55111L9.31332 6.39951L9.164 5.98052L8.75131 6.13213L8.90335 6.55111ZM9.94321 8.16642L9.53595 8.31802L9.68528 8.73701L10.098 8.58816C10.0518 8.45861 10.0084 8.33456 9.96222 8.21328C9.95825 8.19677 9.95184 8.18097 9.94321 8.16642Z" fill="#410EAD"/>
<path d="M16.5212 9.47975C16.5997 9.4803 16.6763 9.50451 16.7412 9.54931C16.8062 9.59411 16.8566 9.65748 16.886 9.73139C16.9154 9.80529 16.9225 9.8864 16.9065 9.96443C16.8904 10.0425 16.8519 10.1139 16.7959 10.1697C16.7398 10.2255 16.6686 10.2631 16.5915 10.2777C16.5143 10.2924 16.4346 10.2835 16.3624 10.2521C16.2902 10.2207 16.2289 10.1683 16.1861 10.1015C16.1433 10.0346 16.121 9.95638 16.1221 9.87668C16.1235 9.77042 16.1663 9.66905 16.2411 9.59469C16.3158 9.52033 16.4166 9.47901 16.5212 9.47975ZM16.3855 9.89598C16.3875 9.93061 16.4023 9.96318 16.427 9.98719C16.4517 10.0112 16.4843 10.0249 16.5185 10.0255C16.5519 10.0229 16.5833 10.0081 16.6068 9.98372C16.6303 9.95938 16.6442 9.92723 16.6461 9.89322C16.6461 9.87537 16.6426 9.8577 16.6357 9.84128C16.6288 9.82486 16.6187 9.81002 16.606 9.79766C16.5934 9.7853 16.5783 9.77567 16.5619 9.76935C16.5455 9.76304 16.5279 9.76016 16.5104 9.76091C16.4765 9.76302 16.4447 9.77817 16.4215 9.80328C16.3983 9.82838 16.3854 9.86154 16.3855 9.89598Z" fill="black"/>
</svg>
