<svg width="50" height="49" viewBox="0 0 50 49" fill="none" xmlns="http://www.w3.org/2000/svg">
<path fill-rule="evenodd" clip-rule="evenodd" d="M16.191 0.0215988C14.2608 0.245555 13.0193 0.513881 11.5269 1.02935C6.80777 2.65943 2.69273 6.68767 1.02753 11.3073C0.276184 13.3917 0.00276179 14.9638 2.07127e-05 17.2146C-0.00272036 19.448 0.266296 21.0276 0.98759 23.0123C2.49675 27.1654 5.64272 30.6355 9.71017 32.6336C13.8402 34.6624 18.7231 35.0078 23.1712 33.5857C23.7202 33.4101 24.8068 32.9534 25.5859 32.5709L27.0024 31.8751L27.2114 32.0915C27.3265 32.2105 30.6856 35.8079 34.6764 40.0858C38.6671 44.3636 42.0628 47.9546 42.2222 48.0658C42.7802 48.4548 43.7956 48.8541 44.4789 48.9534C46.2982 49.2177 48.2888 48.3377 49.2752 46.833C49.8009 46.031 49.993 45.3561 49.9998 44.2867C50.0071 43.1482 49.7732 42.3476 49.198 41.5415C48.9641 41.2137 45.9448 38.4508 40.8353 33.8891C36.4372 29.9624 32.7707 26.6828 32.6876 26.6011C32.5514 26.4671 32.6067 26.3167 33.2501 25.0678C34.46 22.7201 35.0381 20.5748 35.1468 18.0291C35.2735 15.0654 34.7218 12.4159 33.4307 9.7877C32.4665 7.82499 31.5042 6.50387 29.926 4.97614C27.2191 2.35594 23.9742 0.763232 20.1068 0.156432C19.4195 0.048623 16.7501 -0.0432785 16.191 0.0215988ZM19.1419 1.98162C22.7376 2.336 26.0085 3.85703 28.6007 6.37996C31.4796 9.18205 33.0538 12.7065 33.1964 16.6694C33.352 20.9931 31.8782 24.7745 28.8247 27.8867C25.8731 30.8948 21.8792 32.5475 17.5611 32.5475C12.7024 32.5475 8.08051 30.301 5.12299 26.5019C0.85553 21.0203 0.855627 13.4081 5.12309 7.92724C8.411 3.70447 13.7308 1.44823 19.1419 1.98162ZM16.4846 3.90216C10.4941 4.35008 5.41589 8.72359 4.19837 14.4834C3.27923 18.8317 4.61158 23.3516 7.74737 26.5228C9.97645 28.777 12.6016 30.0729 15.8842 30.5397C16.9182 30.6867 19.2986 30.6054 20.3007 30.3888C23.0353 29.7976 25.3175 28.5941 27.203 26.7489C28.8063 25.1799 29.8463 23.5732 30.5212 21.6228C30.9889 20.2708 31.167 19.3264 31.2366 17.8286C31.373 14.8931 30.6223 12.2412 28.9568 9.77476C28.0171 8.38311 27.3813 8.06629 26.7561 8.67827C26.3694 9.0568 26.3737 9.4797 26.7698 10.0369C28.0121 11.7842 28.5493 12.8495 28.9828 14.4252C29.3221 15.659 29.4085 17.8068 29.1733 19.1579C28.4511 23.3054 25.3902 26.7969 21.3006 28.1381C17.8764 29.2612 14.0663 28.7411 10.9742 26.7286C9.99877 26.0939 8.5087 24.616 7.8298 23.6104C4.77301 19.0818 5.3502 13.0954 9.21707 9.22297C10.8731 7.56452 12.9024 6.48633 15.3099 5.9859C16.6218 5.71317 18.6147 5.72007 19.994 6.00229C21.1004 6.22855 21.4334 6.18514 21.726 5.77623C21.933 5.48682 21.9048 4.92295 21.6687 4.62904C21.2455 4.10245 18.658 3.73963 16.4846 3.90216ZM24.1694 5.89774C23.8039 6.05097 23.5865 6.38236 23.5865 6.78647C23.5865 7.10022 23.6456 7.22365 23.904 7.44962C24.3451 7.83544 24.73 7.82068 25.1582 7.40151C25.5811 6.98753 25.6013 6.60315 25.2218 6.19529C24.9358 5.88797 24.492 5.76243 24.1694 5.89774ZM14.1307 9.90749C13.8475 10.1554 13.7758 10.3818 12.9241 13.7168L12.0186 17.2625L10.2399 17.3104L8.46113 17.3583L8.19221 17.6219C7.79191 18.0141 7.81237 18.5747 8.24076 18.9493L8.55824 19.227H10.7547C12.1255 19.227 13.0388 19.1879 13.1844 19.123C13.5541 18.9581 13.6868 18.6283 14.1927 16.6156C14.4544 15.5746 14.6932 14.723 14.7234 14.723C14.7537 14.723 14.9963 15.5963 15.2627 16.6635C15.6961 18.3999 15.7796 18.6369 16.0571 18.9156C16.356 19.2158 16.3955 19.227 17.152 19.227H17.9368L18.8332 21.8599C19.6041 24.1234 19.771 24.5266 20.0237 24.7348C20.3582 25.0103 20.6765 25.0403 21.083 24.8344C21.4077 24.6701 21.4158 24.6507 22.4999 21.4551L23.2557 19.227H25.0195H26.7832L27.1161 18.9012C27.545 18.4814 27.5595 18.1054 27.1635 17.6713L26.878 17.3583L24.5826 17.3296L22.2872 17.3007L21.9859 17.5489C21.7367 17.7542 21.5951 18.0617 21.1672 19.3266C20.8826 20.1679 20.6257 20.8561 20.5962 20.8561C20.5668 20.8561 20.3116 20.1729 20.029 19.3377C19.3889 17.4452 19.3282 17.3772 18.2205 17.3104L17.426 17.2625L16.532 13.7647C16.0404 11.8409 15.5776 10.1729 15.5037 10.058C15.2019 9.58904 14.5735 9.52004 14.1307 9.90749ZM32.4301 28.9726C33.0018 29.4837 33.5017 29.927 33.5411 29.9578C33.5804 29.9887 32.9416 30.6679 32.1216 31.4673L30.6305 32.9206L29.618 31.8223L28.6056 30.724L29.1285 30.2769C29.7467 29.7484 30.9254 28.5654 31.139 28.259C31.2217 28.1404 31.3122 28.0434 31.3401 28.0434C31.368 28.0434 31.8585 28.4615 32.4301 28.9726ZM41.2522 36.8475C44.4558 39.6983 47.2431 42.2364 47.4461 42.4879C48.3742 43.6372 48.2809 45.2165 47.2238 46.2512C46.6245 46.8379 46.059 47.0614 45.168 47.0638C43.7697 47.0676 44.083 47.3439 37.6421 40.4277L31.9544 34.3203L33.4914 32.8135C35.0131 31.3217 35.0305 31.3084 35.228 31.4855C35.3376 31.5838 38.0486 33.9968 41.2522 36.8475Z" fill="#B7BB09"/>
</svg>
