<svg width="50" height="47" viewBox="0 0 50 47" fill="none" xmlns="http://www.w3.org/2000/svg">
<path fill-rule="evenodd" clip-rule="evenodd" d="M10.9784 0.0529134C8.9121 0.245334 6.97259 0.91488 5.34042 1.99932C4.50259 2.55593 2.86553 4.20658 2.27998 5.08512C0.291874 8.06827 -0.450624 11.8627 0.268894 15.3629C0.837037 18.1264 2.09174 20.3387 4.46513 22.7617C6.67189 25.0147 8.30728 26.2134 13.5087 29.3907C18.9238 32.6986 20.7135 33.9332 22.3451 35.4863L23.1597 36.2618L22.73 36.795C22.1181 37.5541 20.9125 39.3629 20.5987 39.9925C19.447 42.3036 19.4599 45.0346 20.6281 46.1811C22.3043 47.8263 24.7244 46.9525 26.8908 43.9198C28.3055 41.9394 28.662 39.726 27.8918 37.7032C27.7523 37.3369 27.6165 36.9703 27.5899 36.8884C27.5122 36.6494 29.2652 35.1838 34.2518 31.3188C39.8551 26.9758 42.3963 24.7829 44.4613 22.5083C45.813 21.0197 46.2697 20.4485 47.068 19.2484C48.4144 17.2247 49.3724 15.0297 49.8179 12.9484C50.0945 11.6561 50.0506 9.50197 49.7227 8.27542C49.246 6.49265 48.3844 4.98615 47.1497 3.77598C45.0572 1.72537 42.1587 0.636088 38.7989 0.637542C36.2392 0.638706 34.0939 1.21064 32.0222 2.44436C30.2657 3.49031 28.2417 5.36566 26.9629 7.13215C26.6348 7.58533 26.3526 7.95611 26.3357 7.95611C26.3189 7.95611 25.9895 7.5514 25.604 7.05683C21.9504 2.37068 16.1124 -0.425181 10.9784 0.0529134ZM13.1095 3.45095C15.4137 3.66761 17.2764 4.33163 19.2903 5.65443C21.1184 6.8552 22.5684 8.33717 23.771 10.2341C25.0081 12.1855 25.7977 12.9484 26.5802 12.9484C27.1823 12.9484 27.5245 12.625 28.1701 11.4459C29.6226 8.79297 31.1635 7.01747 33.1272 5.73373C35.882 3.93283 39.2773 3.43602 42.0068 4.43448C43.4479 4.96162 45.0902 6.29868 45.8275 7.54491C47.7539 10.8011 46.7112 14.8633 42.7855 19.3947C41.5304 20.8435 38.6728 23.5928 36.8911 25.0656C36.0849 25.7321 33.9324 27.4333 32.1079 28.8462C30.2834 30.259 28.1189 31.9668 27.298 32.6414C26.4772 33.3159 25.7554 33.8985 25.6941 33.9361C25.6285 33.9763 25.2342 33.6701 24.7345 33.1907C22.6961 31.2354 20.4393 29.6316 15.8189 26.8549C11.1435 24.0451 9.36955 22.8027 7.52939 21.0491C4.26164 17.9354 3.01231 14.7957 3.50173 10.9269C4.02333 6.80304 7.04837 3.84869 11.1523 3.45512C11.5945 3.41266 11.9783 3.37214 12.0052 3.36487C12.0321 3.3577 12.529 3.39638 13.1095 3.45095ZM24.7598 40.8003C24.5403 41.4696 23.708 42.8051 23.5101 42.8051C23.4193 42.8051 23.568 42.0987 23.8052 41.4034C23.9317 41.0325 24.2217 40.4222 24.4497 40.0472L24.8642 39.3655L24.8943 39.8318C24.9108 40.0888 24.8505 40.5234 24.7598 40.8003Z" fill="#0073A8"/>
</svg>
