<svg width="137" height="26" viewBox="0 0 137 26" fill="none" xmlns="http://www.w3.org/2000/svg">
<path fill-rule="evenodd" clip-rule="evenodd" d="M10.5279 0.213989C7.58562 0.867331 5.5151 2.01085 3.52452 4.08208C1.84824 5.82601 0.778561 7.82841 0.215047 10.2767C-0.0662949 11.4988 -0.0729441 14.5676 0.203134 15.7442C0.830507 18.4183 1.95435 20.4248 3.89133 22.3286C5.68438 24.0912 7.80144 25.2361 10.294 25.7915C11.514 26.0634 14.6115 26.0708 15.8866 25.805C20.4104 24.8616 24.2709 21.4089 25.6905 17.0364C27.1802 12.448 25.922 7.21647 22.5211 3.8579C20.7491 2.10806 18.369 0.781498 16.0899 0.273633C14.5682 -0.065584 11.9146 -0.0939661 10.5279 0.213989ZM8.70378 3.8712C9.16506 4.19108 9.07946 5.00389 8.5539 5.2936C8.21174 5.48213 8.13417 5.48213 7.79202 5.2936C7.26646 5.00389 7.18085 4.19108 7.64213 3.8712C8.04039 3.59505 8.30552 3.59505 8.70378 3.8712ZM64.7542 4.09812C64.7178 4.19245 64.7042 7.97155 64.724 12.4963L64.7599 20.723L65.8334 20.7631L66.907 20.8031V12.3649V3.92673H65.8638C65.1568 3.92673 64.7991 3.98198 64.7542 4.09812ZM97.0302 4.09812C96.9938 4.19245 96.9802 7.97155 97 12.4963L97.0359 20.723L98.1095 20.7631L99.183 20.8031V16.7044C99.183 11.7412 99.2283 11.5405 100.499 10.8738C101.181 10.5162 103.006 10.4523 103.396 10.7724C104.064 11.3212 104.097 11.5525 104.17 16.2669L104.239 20.723L105.313 20.7631L106.386 20.8031L106.383 16.3755C106.381 13.8889 106.318 11.6839 106.239 11.3458C105.888 9.8378 104.887 9.13701 103.084 9.13701C101.754 9.13701 100.7 9.45045 99.8877 10.0873C99.5925 10.3188 99.3131 10.5081 99.267 10.5081C99.2208 10.5081 99.183 9.02732 99.183 7.21743V3.92673H98.1398C97.4328 3.92673 97.0751 3.98198 97.0302 4.09812ZM88.8143 4.60681C85.6135 5.10809 83.7637 7.20057 83.1731 10.988C82.7824 13.4943 83.0895 16.0378 84.0206 18.0067C84.3423 18.6868 85.513 19.8744 86.2534 20.2718C87.9136 21.1628 90.4484 21.3677 92.7342 20.7961C94.417 20.3752 94.4732 20.3319 94.4732 19.456C94.4732 18.6605 94.386 18.6027 93.7113 18.9514C93.1082 19.2632 91.1902 19.6926 90.3959 19.6937C89.3843 19.6951 88.2302 19.3245 87.4636 18.7519C86.6746 18.1626 86.0305 17.0218 85.73 15.6815C85.484 14.5844 85.4847 11.1342 85.7311 10.0282C86.1086 8.33422 87.0873 6.90756 88.2439 6.36542C89.4476 5.8012 91.8722 5.82135 93.4343 6.40847C93.8152 6.55175 94.1736 6.66885 94.2308 6.66885C94.288 6.66898 94.3347 6.32812 94.3347 5.91143C94.3347 5.21956 94.3031 5.14209 93.9702 5.01677C92.8777 4.60571 90.1872 4.39168 88.8143 4.60681ZM78.0632 4.79739C77.8867 4.92518 77.788 5.21257 77.7452 5.72441C77.6569 6.7784 77.9713 7.14888 78.9543 7.14888C79.8501 7.14888 80.1975 6.78525 80.2022 5.8426C80.2068 4.90448 79.9324 4.61229 79.0464 4.61229C78.6463 4.61229 78.2038 4.69566 78.0632 4.79739ZM122.094 4.71718C122.009 4.77258 121.858 5.04543 121.757 5.32336C121.496 6.0469 121.75 6.84805 122.315 7.07964C122.814 7.28421 123.582 7.16547 123.878 6.83763C124.238 6.44028 124.251 5.17569 123.9 4.8277C123.672 4.60256 122.388 4.52399 122.094 4.71718ZM32.6408 5.60636C32.5469 6.70998 32.2693 16.9138 32.2732 19.1185L32.2761 20.8046L33.1419 20.7639L34.0076 20.723L34.0936 18.6663C34.1409 17.5352 34.1921 14.6044 34.2072 12.1535C34.2225 9.7026 34.2826 7.57681 34.3408 7.42941C34.4167 7.23745 35.0917 9.08491 36.7206 13.9423L38.9945 20.723H40.0334H41.0723L41.3699 19.8318C42.3077 17.0229 44.1664 11.2465 44.7118 9.44552C45.0602 8.29541 45.3966 7.35455 45.4597 7.35455C45.5228 7.35455 45.5744 9.2574 45.5744 11.5831C45.5744 13.9088 45.6154 16.9321 45.6655 18.3016L45.7567 20.7916H46.9122H48.0678L48.0683 20.346C48.0706 18.3921 47.7676 5.2995 47.7145 5.05791C47.6494 4.76078 47.591 4.7494 46.1224 4.7494H44.5978L44.4512 5.12646C44.3707 5.33392 44.0561 6.27478 43.7522 7.21743C42.2251 11.9543 41.6131 13.905 41.0722 15.7601C40.5231 17.6428 40.3714 18.0487 40.2721 17.9008C40.251 17.8694 39.2733 14.9746 38.0998 11.4679C36.926 7.96127 35.9071 5.01513 35.8354 4.9208C35.7454 4.80219 35.2442 4.7494 34.2095 4.7494H32.7137L32.6408 5.60636ZM10.2946 6.90961C10.6991 7.65661 10.6992 8.08275 10.2953 8.23618C9.92944 8.37521 9.6082 8.19738 9.25233 7.65866C8.76639 6.92333 8.72262 6.73617 8.95866 6.40271C9.32935 5.87894 9.84189 6.07336 10.2946 6.90961ZM16.8425 6.88123C17.0339 7.3348 17.0281 7.39527 16.7567 7.77247C16.427 8.2307 16.0058 8.2987 15.8044 7.92631C15.6706 7.67882 15.6909 7.61383 16.1874 6.70326C16.424 6.2693 16.6049 6.31852 16.8425 6.88123ZM71.0131 6.90893C70.9659 7.19179 70.9265 7.83842 70.9257 8.34601C70.9241 9.37161 70.931 9.36517 69.7467 9.44318C69.2529 9.47582 69.1878 9.52175 69.148 9.86508C69.0798 10.4543 69.3323 10.6453 70.1792 10.6453H70.9242L70.9303 14.7244C70.9367 18.9865 70.9969 19.4977 71.569 20.1344C72.1881 20.8237 73.7416 21.1107 75.3916 20.8407C75.9101 20.7558 75.911 20.7544 75.911 20.0789C75.911 19.4478 75.8908 19.4084 75.612 19.496C74.6182 19.8081 73.4286 19.48 73.2029 18.8313C73.1451 18.6652 73.0712 16.7554 73.0388 14.5872L72.9797 10.6453H74.2377H75.4955V10.0282V9.41124H74.4679C72.9419 9.41124 73.002 9.4765 73.002 7.81977V6.39476H72.0505H71.099L71.0131 6.90893ZM11.2975 9.10479C11.529 9.26412 12.6057 11.5461 12.6057 11.8773C12.6057 12.3858 12.3073 12.12 11.3972 10.8007C10.669 9.74511 10.5488 9.49172 10.6697 9.26795C10.82 8.98989 11.0455 8.93134 11.2975 9.10479ZM15.5572 9.2914C15.655 9.44483 15.4794 9.81311 14.8746 10.7229C13.9808 12.0671 13.8495 12.2055 13.6523 12.0102C13.5668 11.9256 13.7408 11.4272 14.1358 10.6236C14.9498 8.9685 15.2014 8.73267 15.5572 9.2914ZM111.789 9.35365C110.291 9.74415 110.265 9.76485 110.265 10.5831V11.3104L111.131 10.9591C111.86 10.6632 112.229 10.6054 113.474 10.5923C114.868 10.5775 114.973 10.596 115.327 10.9195C115.875 11.4194 116.083 12.0209 116.083 13.1089V14.0731H114.544C112.444 14.0731 110.794 14.5159 109.973 15.3002C108.672 16.5429 108.899 19.32 110.387 20.3685C111.863 21.4089 114.342 21.2494 115.529 20.0377C115.787 19.7737 116.045 19.5576 116.102 19.5576C116.159 19.5576 116.258 19.8197 116.322 20.1403L116.438 20.723H117.473C118.327 20.723 118.497 20.6873 118.446 20.5174C118.413 20.4042 118.349 18.3373 118.304 15.9241C118.227 11.7409 118.208 11.5039 117.906 10.8361C117.56 10.0698 117.07 9.63884 116.199 9.33473C115.456 9.07545 112.813 9.08669 111.789 9.35365ZM131.821 9.47554C131.372 9.65818 130.768 9.99602 130.478 10.2264C130.189 10.4567 129.924 10.6453 129.89 10.6453C129.856 10.6453 129.786 10.3676 129.735 10.0282L129.641 9.41124H128.589H127.538L127.628 11.1594C127.677 12.121 127.718 14.6816 127.718 16.8496L127.719 20.7916H128.758H129.797L129.798 17.2609C129.798 13.281 129.903 12.3321 130.415 11.668C131.096 10.7848 131.531 10.5857 132.792 10.5809C133.8 10.5772 133.968 10.6134 134.279 10.9018C134.832 11.4149 134.922 12.2262 134.922 16.6849V20.7916H135.961H137L136.997 16.0269C136.994 11.688 136.971 11.2133 136.738 10.7138C136.214 9.58921 135.342 9.13537 133.714 9.1403C132.896 9.14277 132.44 9.22353 131.821 9.47554ZM51.6716 13.696C51.674 18.4688 51.7684 19.2291 52.4647 20.0822C53.0214 20.7643 53.8248 21.0499 55.2018 21.0551C56.4264 21.0598 57.45 20.7362 58.3426 20.0623C58.9405 19.6109 59.0112 19.6071 59.0112 20.0262C59.0112 20.7302 59.1084 20.7916 60.2235 20.7916H61.2676L61.1793 19.8661C61.1307 19.357 61.0905 16.7939 61.09 14.1701L61.089 9.39972L60.0155 9.43976L58.9419 9.47979L58.8726 13.8123C58.7992 18.4078 58.8192 18.2742 58.1108 18.9121C57.243 19.6936 55.6326 19.9382 54.7819 19.4179C53.9398 18.9027 53.8858 18.5594 53.8858 13.7275V9.41124H52.7776H51.6694L51.6716 13.696ZM77.8504 15.1014V20.7916H78.9586H80.0668V15.1014V9.41124H78.9586H77.8504V15.1014ZM121.901 15.1014V20.7916H122.94H123.979V15.1014V9.41124H122.94H121.901V15.1014ZM3.87872 13.0534C3.87872 13.416 3.61968 13.6381 3.47215 13.4019C3.41785 13.3151 3.40095 13.0588 3.43461 12.8325C3.48379 12.5004 3.53269 12.4512 3.68714 12.5781C3.79256 12.6646 3.87872 12.8785 3.87872 13.0534ZM7.26272 12.6431C7.49862 12.8768 7.53409 13.0955 7.37437 13.3333C7.23751 13.5372 5.98082 13.6641 5.5827 13.5142C5.23196 13.3823 5.14746 12.8721 5.43019 12.5923C5.67856 12.3464 6.9998 12.383 7.26272 12.6431ZM11.8843 12.8787C12.2442 13.1614 11.7782 13.2801 10.2328 13.2995C8.80075 13.3173 8.66084 13.2967 8.61332 13.0612C8.58465 12.9194 8.63867 12.756 8.73328 12.6981C8.97224 12.5519 11.6649 12.7062 11.8843 12.8787ZM17.3734 12.6481C17.4939 12.6939 17.5926 12.879 17.5926 13.0594C17.5926 13.368 17.5446 13.3875 16.7818 13.3875C15.3748 13.3875 14.268 13.2291 14.268 13.0279C14.268 12.7905 14.6395 12.7118 15.9995 12.6612C16.609 12.6386 17.1183 12.6076 17.131 12.5924C17.1439 12.5773 17.2529 12.6023 17.3734 12.6481ZM19.4826 13.0461C19.4696 13.2716 19.3991 13.3661 19.2781 13.3203C19.1767 13.2819 19.0676 13.2504 19.0357 13.2504C19.0038 13.2504 18.9778 13.127 18.9778 12.9762C18.9778 12.7985 19.0702 12.7019 19.2402 12.7019C19.4333 12.7019 19.4973 12.7928 19.4826 13.0461ZM12.6057 14.1508C12.6057 14.269 12.3198 14.9513 11.9704 15.667C11.4308 16.7725 11.29 16.962 11.0354 16.9261C10.533 16.8554 10.6897 16.2894 11.5503 15.0671C12.3305 13.9593 12.6057 13.7203 12.6057 14.1508ZM14.8178 15.2428C15.6999 16.5805 15.7987 17.0114 15.2036 16.9278C14.966 16.8944 14.7314 16.578 14.2226 15.6053C13.6126 14.4394 13.4945 13.936 13.8305 13.936C13.8995 13.936 14.3438 14.524 14.8178 15.2428ZM116.083 16.3951C116.083 17.7663 115.958 18.2148 115.416 18.7818C114.546 19.6924 113.164 19.9655 112.252 19.4072C111.396 18.8838 111.049 17.748 111.437 16.7427C111.852 15.6651 112.904 15.1957 114.94 15.1792L116.083 15.17V16.3951ZM10.4428 18.1265C10.4885 18.2445 10.4312 18.5221 10.3155 18.7435C10.144 19.0718 10.0163 19.1462 9.62385 19.1462C9.06657 19.1462 9.03291 19.0116 9.43103 18.374C9.74229 17.8753 10.2932 17.7407 10.4428 18.1265ZM16.8156 18.3799C17.0242 18.8151 17.0228 18.877 16.7967 19.2703C16.6631 19.5027 16.5168 19.6933 16.4718 19.6939C16.3086 19.6955 15.7001 18.386 15.7553 18.1522C15.7927 17.9938 15.9446 17.9122 16.2017 17.9122C16.5089 17.9122 16.6388 18.0112 16.8156 18.3799Z" fill="#606060"/>
</svg>
