<svg width="36" height="36" viewBox="0 0 36 36" fill="none" xmlns="http://www.w3.org/2000/svg">
<path fill-rule="evenodd" clip-rule="evenodd" d="M18 0.0804711C16.1753 0.287036 14.1052 0.997038 12.5645 1.94473C10.9842 2.9168 9.39503 4.41864 8.40158 5.87892L8.15078 6.24757L8.34937 6.40396C8.45858 6.48999 8.6817 6.63633 8.8452 6.72918L9.1425 6.89802L9.67875 6.17504C10.5909 4.9454 11.8304 3.81409 13.1625 2.99563C17.821 0.13335 23.9003 0.762946 27.8684 4.51862C30.17 6.69701 31.4327 9.27914 31.7286 12.4122C31.8083 13.256 31.8961 13.5764 33.1679 17.6612C33.9128 20.0538 34.5377 22.0537 34.5566 22.1052C34.5836 22.1788 34.1371 22.199 32.4797 22.199H30.3682L30.1841 22.3831C30.0026 22.5646 30 22.5859 30 23.8832V25.1992H28.9775C28.3938 25.1992 27.8224 25.1601 27.6462 25.108C27.0611 24.9351 26.4 24.0936 26.4 23.5216C26.4 23.4183 26.3045 23.3991 25.7903 23.3991H25.1807L25.2314 23.7929C25.2995 24.3224 25.6426 25.0381 26.0292 25.4576C26.2266 25.6717 26.5601 25.9073 26.9128 26.0816L27.4794 26.3618L28.7397 26.3881L30 26.4144V28.207V29.9996H25.9841H21.9682L21.7841 30.1837L21.6 30.3678V32.5839V34.7999H17.4116H13.2233L13.1757 33.5061C13.0039 28.8407 11.7266 24.5866 9.18368 20.2113C8.47328 18.989 8.06828 18.1254 7.79445 17.2486C7.69778 16.9392 7.61325 16.6763 7.60643 16.6644C7.59188 16.6387 6.5163 16.9323 6.47543 16.9732C6.4599 16.9887 6.5505 17.3186 6.67673 17.7063C6.942 18.5208 7.57088 19.8641 8.07323 20.6895C10.6123 24.8612 12 29.7468 12 34.5142C12 35.6007 12.0051 35.6369 12.1841 35.8159L12.3682 36H17.4H22.4318L22.6159 35.8159L22.8 35.6318V33.4157V31.1996H26.8159H30.8318L31.0159 31.0155L31.2 30.8314V27.1152V23.3991H33.4159H35.6318L35.8159 23.2149C35.9171 23.1137 36 22.9583 36 22.8695C36 22.7808 35.3255 20.55 34.5011 17.9121C33.116 13.4805 32.9961 13.0523 32.9233 12.2759C32.5351 8.14004 30.3786 4.53092 26.9206 2.2299C24.3567 0.523829 21.0732 -0.267329 18 0.0804711ZM18.6161 3.69191C18.2814 3.79917 17.7482 4.28198 17.5853 4.6255C17.5118 4.78047 17.4315 5.09249 17.4071 5.31885L17.3625 5.73033L16.1914 6.38258L15.0203 7.0349L14.5871 6.81634C14.1162 6.57887 13.7412 6.54204 13.2605 6.68605C12.9011 6.79376 12.3541 7.26135 12.2261 7.57037L12.1318 7.79794H9.50003H6.8682L5.66025 6.59785L4.45223 5.39776H3.96023C3.483 5.39776 3.46538 5.39093 3.37395 5.17019C3.16515 4.66601 2.40713 4.19767 1.8 4.19767C0.870675 4.19767 0 5.06841 0 5.9978C0 6.9272 0.870675 7.79794 1.8 7.79794C2.40713 7.79794 3.16515 7.3296 3.37395 6.82541C3.45015 6.64143 3.51255 6.59785 3.69998 6.59785C3.89903 6.59785 4.10235 6.76728 5.13975 7.79794L6.34778 8.99802H9.23978H12.1318L12.2247 9.22221C12.33 9.47663 12.8042 9.93259 13.0417 10.008C13.1746 10.0501 13.2 10.1176 13.2 10.4282V10.7982H8.33408H3.46823L3.37395 10.5706C3.16515 10.0664 2.40713 9.59807 1.8 9.59807C0.870675 9.59807 0 10.4688 0 11.3982C0 12.3276 0.870675 13.1983 1.8 13.1983C2.40713 13.1983 3.16515 12.73 3.37395 12.2258L3.46823 11.9982H8.33408H13.2V12.3642C13.2 12.6998 13.1814 12.7378 12.9758 12.823C12.7214 12.9283 12.2655 13.4025 12.1901 13.64C12.1402 13.7976 12.1246 13.7984 9.24383 13.7984H6.34778L5.13975 14.9985C4.10235 16.0291 3.89903 16.1986 3.69998 16.1986C3.51255 16.1986 3.45015 16.155 3.37395 15.971C3.16515 15.4668 2.40713 14.9985 1.8 14.9985C0.870675 14.9985 0 15.8692 0 16.7986C0 17.728 0.870675 18.5987 1.8 18.5987C2.40713 18.5987 3.16515 18.1304 3.37395 17.6262C3.46538 17.4055 3.483 17.3986 3.96023 17.3986H4.45223L5.66025 16.1986L6.8682 14.9985H9.50003H12.1318L12.2261 15.226C12.3541 15.5351 12.9011 16.0026 13.2605 16.1103C13.7412 16.2544 14.1162 16.2175 14.5871 15.9801L15.0203 15.7615L16.1914 16.4138L17.3625 17.0661L17.4071 17.4775C17.4664 18.0263 17.6516 18.3933 18.0425 18.7375C18.5357 19.1716 19.1125 19.2985 19.7395 19.1106C20.1125 18.9988 20.6411 18.5368 20.8148 18.1709C20.8883 18.0159 20.9685 17.7039 20.993 17.4775L21.0375 17.0661L22.2086 16.4138L23.3798 15.7615L23.813 15.9801C24.5645 16.3591 25.2319 16.2468 25.8401 15.6386C26.3667 15.1118 26.5172 14.5444 26.3118 13.8589C26.2041 13.4994 25.7366 12.9524 25.4276 12.8244L25.2 12.7301V11.3982V10.0663L25.4276 9.97204C25.7366 9.84401 26.2041 9.29699 26.3118 8.93749C26.5172 8.25202 26.3667 7.6846 25.8401 7.15784C25.1898 6.50754 24.3277 6.41213 23.611 6.91107L23.4094 7.05141L22.2235 6.39091L21.0375 5.73033L20.99 5.32028C20.9257 4.76464 20.8324 4.55665 20.4726 4.16624C20.0064 3.66048 19.2875 3.47672 18.6161 3.69191ZM19.6159 4.98185C19.988 5.35388 19.7243 5.9978 19.2 5.9978C18.8917 5.9978 18.6 5.70611 18.6 5.39776C18.6 5.08941 18.8917 4.79772 19.2 4.79772C19.3461 4.79772 19.4999 4.86575 19.6159 4.98185ZM2.21587 5.5819C2.58795 5.95393 2.32433 6.59785 1.8 6.59785C1.49168 6.59785 1.2 6.30615 1.2 5.9978C1.2 5.68946 1.49168 5.39776 1.8 5.39776C1.9461 5.39776 2.09985 5.46579 2.21587 5.5819ZM18.3188 6.93245L18.6 7.07563L18.5994 8.3931L18.5988 9.71058L18.2945 9.87574L17.9902 10.041L16.8139 9.38558L15.6375 8.73018V8.39798V8.06571L16.8 7.41196C17.4394 7.05246 17.9794 6.76526 18 6.77381C18.0206 6.78229 18.1641 6.85369 18.3188 6.93245ZM21.6 7.41166L22.7625 8.06571V8.39798V8.73018L21.5861 9.38558L20.4098 10.041L20.1055 9.87574L19.8012 9.71058L19.8008 8.39798L19.8004 7.08538L20.0815 6.92472C20.236 6.83644 20.3794 6.76271 20.4 6.76091C20.4206 6.75918 20.9606 7.05201 21.6 7.41166ZM14.2159 7.98207C14.332 8.09811 14.4 8.25187 14.4 8.39798C14.4 8.54409 14.332 8.69785 14.2159 8.81388C14.0999 8.92999 13.9461 8.99802 13.8 8.99802C13.6539 8.99802 13.5002 8.92999 13.3841 8.81388C13.268 8.69785 13.2 8.54409 13.2 8.39798C13.2 8.25187 13.268 8.09811 13.3841 7.98207C13.5002 7.86597 13.6539 7.79794 13.8 7.79794C13.9461 7.79794 14.0999 7.86597 14.2159 7.98207ZM25.0159 7.98207C25.388 8.3541 25.1243 8.99802 24.6 8.99802C24.2917 8.99802 24 8.70633 24 8.39798C24 8.08963 24.2917 7.79794 24.6 7.79794C24.7461 7.79794 24.8999 7.86597 25.0159 7.98207ZM16.2 10.4119L17.3625 11.0659V11.3982V11.7304L16.1861 12.3858L15.0098 13.0412L14.7055 12.876L14.4012 12.7108L14.4008 11.3982L14.4004 10.0856L14.6815 9.92494C14.8361 9.83666 14.9794 9.76293 15 9.76113C15.0206 9.7594 15.5606 10.0522 16.2 10.4119ZM23.7188 9.93267L24 10.0759L23.9994 11.3933L23.9988 12.7108L23.6945 12.876L23.3903 13.0412L22.2139 12.3858L21.0375 11.7304V11.3982V11.0659L22.2 10.4122C22.8394 10.0527 23.3794 9.76548 23.4 9.77403C23.4206 9.78251 23.5641 9.85391 23.7188 9.93267ZM2.21587 10.9823C2.58795 11.3543 2.32433 11.9982 1.8 11.9982C1.49168 11.9982 1.2 11.7065 1.2 11.3982C1.2 11.0899 1.49168 10.7982 1.8 10.7982C1.9461 10.7982 2.09985 10.8662 2.21587 10.9823ZM19.6159 10.9823C19.988 11.3543 19.7243 11.9982 19.2 11.9982C18.8917 11.9982 18.6 11.7065 18.6 11.3982C18.6 11.0899 18.8917 10.7982 19.2 10.7982C19.3461 10.7982 19.4999 10.8662 19.6159 10.9823ZM18.3188 12.9329L18.6 13.0761L18.5994 14.3935L18.5988 15.711L18.2945 15.8762L17.9902 16.0414L16.8139 15.386L15.6375 14.7306V14.3984V14.0661L16.8 13.4124C17.4394 13.0529 17.9794 12.7657 18 12.7742C18.0206 12.7827 18.1641 12.8541 18.3188 12.9329ZM21.6 13.4121L22.7625 14.0661V14.3984V14.7306L21.5861 15.386L20.4098 16.0414L20.1055 15.8762L19.8012 15.711L19.8008 14.3984L19.8004 13.0858L20.0815 12.9252C20.236 12.8369 20.3794 12.7631 20.4 12.7613C20.4206 12.7596 20.9606 13.0524 21.6 13.4121ZM14.2159 13.9825C14.588 14.3545 14.3243 14.9985 13.8 14.9985C13.6539 14.9985 13.5002 14.9304 13.3841 14.8143C13.268 14.6983 13.2 14.5445 13.2 14.3984C13.2 14.2523 13.268 14.0985 13.3841 13.9825C13.5002 13.8664 13.6539 13.7984 13.8 13.7984C13.9461 13.7984 14.0999 13.8664 14.2159 13.9825ZM25.0159 13.9825C25.388 14.3545 25.1243 14.9985 24.6 14.9985C24.2917 14.9985 24 14.7068 24 14.3984C24 14.0901 24.2917 13.7984 24.6 13.7984C24.7461 13.7984 24.8999 13.8664 25.0159 13.9825ZM2.21587 16.3827C2.58795 16.7547 2.32433 17.3986 1.8 17.3986C1.49168 17.3986 1.2 17.1069 1.2 16.7986C1.2 16.4902 1.49168 16.1986 1.8 16.1986C1.9461 16.1986 2.09985 16.2666 2.21587 16.3827ZM19.6159 16.9827C19.988 17.3548 19.7243 17.9987 19.2 17.9987C18.8917 17.9987 18.6 17.707 18.6 17.3986C18.6 17.0903 18.8917 16.7986 19.2 16.7986C19.3461 16.7986 19.4999 16.8666 19.6159 16.9827Z" fill="#75CB08"/>
</svg>
