<svg width="54" height="53" viewBox="0 0 54 53" fill="none" xmlns="http://www.w3.org/2000/svg">
<path fill-rule="evenodd" clip-rule="evenodd" d="M25.2807 0.146768C25.0577 0.225243 24.7564 0.398741 24.6114 0.532481C24.1155 0.989382 24.0513 1.2425 24.0513 2.73768V4.13774L23.3392 4.35224C22.9475 4.47016 22.2285 4.75742 21.7413 4.99055L20.8553 5.41446L19.948 4.54062C18.8903 3.52222 18.5511 3.32541 17.8533 3.32541C17.1885 3.32541 16.6609 3.65731 15.6012 4.74201C14.6622 5.70317 14.4518 6.06078 14.4518 6.69597C14.4518 7.41192 14.5963 7.65775 15.6241 8.69187L16.5764 9.64991L16.1604 10.4686C15.9316 10.9189 15.6342 11.627 15.4993 12.0419L15.2542 12.7965H13.8457C12.2956 12.7965 12.0399 12.8666 11.5663 13.4219C11.1357 13.9268 11.0514 14.3822 11.0921 15.9846C11.1262 17.3363 11.1483 17.4715 11.3909 17.8205C11.8743 18.5161 12.3093 18.6712 13.8928 18.7127L15.2852 18.7491L15.5545 19.5456C15.7026 19.9837 15.9897 20.6671 16.1924 21.0642L16.5611 21.7862L15.6795 22.6774C15.1947 23.1675 14.7201 23.7184 14.625 23.9016C14.4286 24.2794 14.3982 25.029 14.5619 25.4538C14.6931 25.7942 16.4647 27.6029 16.9676 27.91C17.3779 28.1604 18.2692 28.2029 18.6765 27.9914C18.8187 27.9177 19.3654 27.4424 19.8913 26.9355L20.8476 26.0138L21.5791 26.3808C21.9815 26.5826 22.6905 26.8758 23.1546 27.0324L23.9985 27.3168L24.0513 28.7732C24.1103 30.4035 24.2024 30.667 24.8713 31.119C25.2355 31.365 25.314 31.3744 27.0052 31.3744C28.6966 31.3744 28.7751 31.365 29.1389 31.119C29.807 30.6672 29.8995 30.4027 29.9586 28.7785L30.0113 27.3273L30.8324 27.0436C31.2841 26.8875 31.9926 26.5929 32.4068 26.3891L33.1601 26.0183L34.1861 27.0005C34.8091 27.597 35.33 28.0083 35.5125 28.048C35.6779 28.084 35.8759 28.1327 35.9526 28.1563C36.0293 28.1799 36.3141 28.1441 36.5854 28.0767C36.9947 27.975 37.2617 27.7785 38.1522 26.9237C39.3343 25.7889 39.558 25.4382 39.558 24.7185C39.558 24.0526 39.3516 23.7099 38.3276 22.6747L37.4434 21.7808L37.8554 20.9574C38.0821 20.5045 38.3703 19.8224 38.4959 19.4416L38.7245 18.7491L40.117 18.7127C41.7006 18.6712 42.1356 18.5161 42.6189 17.8205C42.8615 17.4715 42.8836 17.3363 42.9178 15.9846C42.9584 14.3822 42.8741 13.9268 42.4435 13.4219C41.97 12.8666 41.7143 12.7965 40.1641 12.7965H38.7556L38.5105 12.0419C38.3757 11.627 38.0782 10.9189 37.8494 10.4686L37.4335 9.64991L38.3857 8.69187C39.4136 7.65775 39.558 7.41192 39.558 6.69597C39.558 6.06078 39.3476 5.70317 38.4086 4.74201C37.349 3.65731 36.8213 3.32541 36.1565 3.32541C35.4587 3.32541 35.1196 3.52222 34.0618 4.54062L33.1545 5.41446L32.2686 4.99055C31.7813 4.75742 31.0622 4.47016 30.6706 4.35224L29.9586 4.13774V2.73768C29.9586 1.19785 29.8881 0.94619 29.3262 0.479713C29.1482 0.331923 28.8261 0.162692 28.6103 0.103576C28.0337 -0.0544144 25.769 -0.0250644 25.2807 0.146768ZM28.3763 3.34071C28.4387 5.39042 28.4422 5.3975 29.547 5.66248C30.4788 5.88593 31.5903 6.33586 32.3807 6.80952C33.3734 7.40453 33.4843 7.36977 34.8591 6.03143C35.506 5.40176 36.0792 4.88658 36.133 4.88658C36.2998 4.88658 37.9757 6.58992 37.9757 6.75946C37.9757 6.84751 37.4535 7.43326 36.8153 8.06095C35.8922 8.96893 35.6549 9.26159 35.6549 9.49265C35.6549 9.6523 35.8671 10.1449 36.1264 10.5872C36.6508 11.482 37.0392 12.4414 37.2415 13.3414C37.4516 14.2765 37.4983 14.2971 39.5424 14.3577L41.2985 14.4097L41.3284 15.6439C41.3482 16.4648 41.3174 16.9265 41.2363 17.0229C41.1419 17.1352 40.7485 17.1678 39.4854 17.1678C38.5757 17.1678 37.7672 17.2148 37.6544 17.2743C37.5328 17.3386 37.3867 17.6175 37.2866 17.9769C36.9687 19.1185 36.5901 20.0597 36.124 20.8665C35.4343 22.0606 35.4411 22.0856 36.8153 23.4599C37.4535 24.0981 37.9757 24.6914 37.9757 24.7785C37.9757 24.8655 37.5748 25.3227 37.0849 25.7946C36.3429 26.5091 36.1623 26.635 36.0037 26.5485C35.8989 26.4914 35.3156 25.9497 34.7074 25.3448C33.5068 24.1507 33.2806 24.0478 32.7175 24.4401C31.9813 24.9531 30.6556 25.4956 29.1536 25.8984C28.46 26.0844 28.4352 26.1542 28.3763 28.0857L28.3235 29.8132H27.0049H25.6863L25.6336 28.148C25.5999 27.0858 25.5324 26.3993 25.4473 26.2522C25.3689 26.1171 25.1289 25.972 24.8671 25.9017C23.3485 25.4934 22.0304 24.9545 21.2923 24.4401C20.7292 24.0478 20.5031 24.1507 19.3024 25.3448C18.6943 25.9497 18.1109 26.4914 18.0062 26.5485C17.8475 26.635 17.6669 26.5091 16.9249 25.7946C16.435 25.3227 16.0342 24.8655 16.0342 24.7785C16.0342 24.6914 16.5563 24.0981 17.1945 23.4599C18.5687 22.0856 18.5755 22.0606 17.8858 20.8665C17.4198 20.0597 17.0412 19.1185 16.7232 17.9769C16.6231 17.6175 16.477 17.3386 16.3554 17.2743C16.2426 17.2148 15.4342 17.1678 14.5244 17.1678C13.2613 17.1678 12.8679 17.1352 12.7735 17.0229C12.6924 16.9265 12.6616 16.4648 12.6814 15.6439L12.7113 14.4097L14.4675 14.3577C16.5117 14.2971 16.5588 14.2763 16.7674 13.3414C16.9621 12.4689 17.4514 11.2676 17.9332 10.4796C18.5657 9.44487 18.5503 9.3944 17.1945 8.06095C16.5563 7.43326 16.0342 6.84959 16.0342 6.76393C16.0342 6.59408 17.706 4.88658 17.8723 4.88658C17.9285 4.88658 18.5039 5.40176 19.1507 6.03143C20.5255 7.36977 20.6364 7.40453 21.6291 6.80952C22.4196 6.33586 23.531 5.88593 24.4629 5.66248C25.5648 5.39822 25.575 5.37855 25.6119 3.44479C25.6291 2.54909 25.6637 1.75633 25.6891 1.68296C25.7238 1.58211 26.0501 1.55681 27.0292 1.57888L28.3235 1.60813L28.3763 3.34071ZM7.11569 6.39102C6.92602 6.57805 6.85672 6.75925 6.85672 7.06753C6.85672 7.48728 6.85556 7.48852 6.44647 7.48852C5.89699 7.48852 5.55573 7.76776 5.55573 8.21728C5.55573 8.66877 5.98486 9.04969 6.49342 9.04969C6.8372 9.04969 6.85672 9.06895 6.85672 9.40814C6.85672 10.1831 7.70589 10.6057 8.22806 10.0905C8.36635 9.95402 8.43904 9.74358 8.43904 9.47953V9.07675L8.93599 9.02149C9.74508 8.93156 10.0528 8.34103 9.5917 7.76277C9.41438 7.54025 9.28494 7.48852 8.90603 7.48852H8.43904V7.03828C8.43904 6.22471 7.66697 5.84701 7.11569 6.39102ZM25.288 8.99869C24.0617 9.30364 23.1258 9.85151 22.0956 10.8674C21.0512 11.8975 20.5324 12.7649 20.1949 14.0454C19.9633 14.9248 19.9598 16.4895 20.1875 17.3759C20.985 20.4798 23.7759 22.6248 27.0049 22.6154C29.8021 22.6074 32.2419 21.0697 33.3926 18.5897C33.7867 17.7405 33.8223 17.3829 33.5471 17.0377C33.3812 16.8296 33.2246 16.7515 32.9736 16.7515C32.5481 16.7515 32.439 16.8768 31.8861 18.0004C30.5431 20.7295 27.4424 21.8302 24.7032 20.5502C23.794 20.1253 22.7462 19.1876 22.3226 18.4198C21.3105 16.5851 21.3598 14.4873 22.4538 12.841C23.5179 11.2398 25.0777 10.4027 26.9969 10.4027C29.2237 10.4027 31.0188 11.5484 31.968 13.5755C32.4285 14.5588 32.6751 14.7645 33.192 14.5962C33.3582 14.5421 33.5588 14.364 33.6409 14.1974C33.7715 13.9327 33.7673 13.8332 33.6054 13.3725C32.9469 11.4977 31.2009 9.81414 29.2202 9.14399C28.3365 8.84507 26.2201 8.76681 25.288 8.99869ZM27.4627 14.7949L26.265 15.9608L25.7955 15.5062C25.4498 15.1713 25.2418 15.0515 25.0064 15.0515C24.5585 15.0515 24.2622 15.3487 24.2622 15.7978C24.2622 16.1171 24.3694 16.2706 25.0869 16.9785C26.2943 18.1698 26.2446 18.1814 28.193 16.2558C29.5548 14.91 29.7476 14.6776 29.7476 14.3824C29.7476 13.9486 29.4276 13.6291 28.9929 13.6291C28.7109 13.6291 28.4785 13.8062 27.4627 14.7949ZM2.03929 27.1511C1.53622 27.2752 0.779978 27.7459 0.532081 28.0895C0.22258 28.5184 0 29.1916 0 29.6989C0 30.0135 0.411614 31.1371 1.51438 33.8334C2.34732 35.8698 3.16622 37.7875 3.33405 38.0949C3.50199 38.4023 3.93038 38.9479 4.28619 39.3073C4.84179 39.8687 4.9862 39.9608 5.31058 39.9608C5.77251 39.9608 6.1183 39.6357 6.1183 39.2014C6.1183 38.9778 5.99657 38.7835 5.65795 38.4665C5.40468 38.2294 5.0727 37.8674 4.92017 37.6621C4.58693 37.2137 1.58232 29.9656 1.58232 29.6102C1.58232 29.2917 2.03075 28.7626 2.37232 28.6779C2.51842 28.6417 2.80102 28.6811 3.00799 28.7664C3.31042 28.8911 3.43659 29.0433 3.67847 29.5748C5.40679 33.3735 5.6858 33.8445 6.5815 34.4736C6.7564 34.5965 8.39705 35.3586 10.2274 36.1671L13.5552 37.6371L13.9266 38.694C14.1308 39.2754 14.3796 39.845 14.4794 39.96C14.752 40.274 15.3289 40.2406 15.6045 39.8947C15.7248 39.7439 15.8232 39.5612 15.8232 39.4886C15.8232 39.4161 15.1807 37.4671 14.3953 35.1574C13.4815 32.4698 12.9887 30.8728 13.0266 30.7213C13.1715 30.142 13.8311 29.8955 14.3241 30.2363C14.4537 30.3258 14.9133 30.9933 15.3452 31.7194C16.0734 32.9434 16.3215 33.2408 18.7463 35.7977C21.0804 38.2589 21.5569 38.8246 23.1741 41.0536C24.1709 42.4275 25.1588 43.9099 25.3695 44.348C26.0531 45.7689 26.0805 45.9464 26.1503 49.4032C26.212 52.4614 26.2202 52.5552 26.4452 52.7771C26.7245 53.0523 27.2387 53.0767 27.5174 52.8277C27.7003 52.6644 27.7203 52.4212 27.7686 49.7662C27.8489 45.3651 27.9825 44.9852 30.8317 41.0591C32.4504 38.8288 32.9334 38.2551 35.2619 35.7977C37.6777 33.2481 37.9347 32.9398 38.6626 31.7194C39.0957 30.9933 39.5561 30.3258 39.6857 30.2363C40.1788 29.8955 40.8383 30.142 40.9832 30.7213C41.0211 30.8728 40.5284 32.4698 39.6145 35.1574C38.8292 37.4671 38.1866 39.4161 38.1866 39.4886C38.1866 39.5612 38.2851 39.7439 38.4053 39.8947C38.681 40.2406 39.2579 40.274 39.5304 39.96C39.6302 39.845 39.879 39.2749 40.0832 38.693L40.4546 37.6352L43.6755 36.2185C45.4471 35.4393 47.0708 34.6954 47.2839 34.5655C48.235 33.9856 48.5865 33.4098 50.3314 29.5748C50.5732 29.0433 50.6994 28.8911 51.0018 28.7664C51.2088 28.6811 51.4914 28.6417 51.6375 28.6779C51.976 28.7617 52.4275 29.2906 52.4275 29.6033C52.4275 30.0256 49.4087 37.2247 49.0028 37.7702C48.7348 38.1305 47.17 39.3704 43.3675 42.2353C40.4721 44.4168 37.9721 46.3547 37.8117 46.5419C37.1319 47.3356 37.0813 47.5865 37.0802 50.1831C37.079 52.4793 37.0857 52.5542 37.3105 52.7764C37.592 53.0546 38.1043 53.0764 38.389 52.8221C38.5779 52.6535 38.5967 52.4614 38.6277 50.3849C38.6561 48.4824 38.6899 48.0793 38.8448 47.8001C38.964 47.585 40.3491 46.4756 42.8006 44.6316C49.1007 39.8925 49.6846 39.4345 50.1221 38.8885C50.7147 38.1488 50.8062 37.9538 52.4979 33.8229C54.0997 29.9115 54.1605 29.6882 53.8557 28.8359C53.5421 27.9589 52.7264 27.2827 51.7829 27.1177C50.9104 26.9652 49.7167 27.4909 49.2592 28.2292C49.145 28.4135 48.66 29.4298 48.1815 30.4876C46.9917 33.1175 47.081 33.0365 43.7859 34.4726C42.3716 35.0889 41.201 35.58 41.1845 35.5638C41.1682 35.5476 41.4868 34.5749 41.8927 33.4023C42.5305 31.5597 42.6239 31.198 42.5802 30.7372C42.3909 28.7399 40.1132 27.8204 38.5342 29.1038C38.4063 29.2078 37.9054 29.938 37.421 30.7265C36.6092 32.0481 36.34 32.372 33.9787 34.868C31.6857 37.2916 31.2175 37.8506 29.5152 40.1956C28.4692 41.6366 27.4904 43.0631 27.3399 43.3656C27.1895 43.6682 27.0388 43.9158 27.0049 43.9158C26.9711 43.9158 26.821 43.6698 26.6716 43.3694C26.5221 43.0689 25.5515 41.6521 24.5148 40.221C22.8198 37.8815 22.371 37.3461 20.0656 34.913C17.7343 32.4527 17.4257 32.0836 16.6677 30.8475C16.2092 30.0998 15.701 29.3555 15.5385 29.1934C14.4224 28.0806 12.4187 28.389 11.6971 29.7845C11.255 30.6394 11.3026 31.0496 12.1171 33.4023C12.523 34.5749 12.8417 35.5476 12.8252 35.5638C12.8088 35.5802 11.6371 35.0857 10.2216 34.4651C7.01358 33.0586 6.96927 33.0216 6.07284 31.0094C4.78958 28.1288 4.47807 27.6552 3.63933 27.3095C3.19966 27.1283 2.43772 27.0529 2.03929 27.1511ZM7.70832 40.9636C7.44112 41.2987 7.42888 41.639 7.67425 41.9139C7.77583 42.0278 9.4609 43.3232 11.419 44.7925C13.746 46.5389 15.043 47.5796 15.1638 47.7976C15.3202 48.0799 15.3537 48.476 15.3821 50.3849C15.4132 52.4614 15.4319 52.6535 15.6209 52.8221C15.9056 53.0764 16.4178 53.0546 16.6994 52.7764C16.9241 52.5543 16.9308 52.4786 16.9308 50.1831C16.9308 47.8235 16.9303 47.8175 16.6453 47.245C16.4882 46.9294 16.2034 46.5226 16.0123 46.3409C15.8213 46.1592 14.0748 44.8132 12.1314 43.3499C8.28133 40.451 8.16635 40.389 7.70832 40.9636Z" fill="#058849"/>
</svg>
