<svg width="63" height="62" viewBox="0 0 63 62" fill="none" xmlns="http://www.w3.org/2000/svg">
<path fill-rule="evenodd" clip-rule="evenodd" d="M32.3703 0.0206503C21.876 0.699858 13.7729 9.31924 13.7875 19.7874C13.7889 20.7508 13.8451 21.9234 13.9127 22.3931C13.9801 22.8628 14.0093 23.2734 13.9773 23.3056C13.9454 23.3378 13.6715 23.2179 13.3687 23.0394C12.4466 22.496 11.7268 22.6779 11.3664 23.5453C11.207 23.9288 11.2114 24.0177 11.4101 24.4258C11.5953 24.8062 11.9467 25.0673 13.5796 26.0379C15.5626 27.2165 16.0139 27.3714 16.5788 27.0675C16.7101 26.9967 17.4099 26.0582 18.1338 24.9817C19.5877 22.8196 19.684 22.5224 19.1404 21.8726C18.5147 21.1249 17.6349 21.3156 16.9427 22.3493L16.5101 22.9954L16.4092 22.5147C16.3536 22.2504 16.3086 21.0037 16.3091 19.7442C16.3097 17.9785 16.362 17.2147 16.5375 16.4085C17.244 13.1628 18.7346 10.264 20.8569 8.00923C23.255 5.46124 26.1453 3.76885 29.4705 2.96549C35.4602 1.51857 41.695 3.3772 45.9777 7.88631C48.207 10.2334 49.6921 13.0891 50.4256 16.4397C50.5993 17.2324 50.6474 17.9951 50.6458 19.9298C50.644 22.22 50.6184 22.5072 50.3039 23.7605C49.5265 26.8591 48.3447 29.1101 46.1861 31.6036C45.447 32.4575 45.2938 32.7081 45.2938 33.0636C45.2938 33.6364 45.5897 34.0596 46.1112 34.2327C46.6805 34.4217 47.0662 34.2545 47.7814 33.5083C51.1977 29.9441 53.171 24.9716 53.171 19.9265C53.171 17.896 53.0364 16.7294 52.6015 14.9891C50.6914 7.34487 44.3971 1.52699 36.6781 0.270572C35.4116 0.0644702 33.4509 -0.0492881 32.3703 0.0206503ZM29.2933 7.17121C27.5747 7.77738 25.9063 8.79439 24.7086 9.96577C23.7961 10.8583 23.754 11.2726 24.4889 12.1266C25.4072 13.1937 25.425 14.2847 24.5374 15.1266C24.0202 15.6172 23.4346 15.7403 22.5894 15.5365C21.3968 15.2487 20.9187 15.728 20.6244 17.5069C20.2208 19.9467 20.5234 22.9425 21.247 23.6702C21.5422 23.9671 21.5915 23.975 22.6396 23.8916C23.4049 23.8307 23.8122 23.8496 24.0173 23.9559C24.5442 24.2291 24.9873 24.738 25.1157 25.2175C25.3088 25.9385 25.1427 26.5053 24.5383 27.1898C23.6757 28.1666 23.8128 28.7849 25.127 29.8431C27.1892 31.5038 29.445 32.5783 30.7227 32.5082C31.114 32.4868 31.5871 31.9367 31.7402 31.3255C31.9069 30.6596 32.4626 30.0746 33.1153 29.8779C34.1221 29.5745 35.2711 30.2976 35.5496 31.4099C35.8957 32.7923 37.0406 32.839 39.5145 31.5714C40.982 30.8196 42.6084 29.6104 43.0369 28.9528C43.3705 28.4407 43.2801 27.8209 42.7975 27.313C42.2165 26.7012 42.0936 26.4238 42.0942 25.7249C42.0947 25.0163 42.4079 24.4335 42.9849 24.0675C43.3417 23.8411 43.5101 23.8215 44.5103 23.8893C45.566 23.961 45.6548 23.9481 45.9673 23.6778C46.4619 23.2497 46.6661 22.3185 46.7376 20.1632C46.7861 18.7021 46.7543 18.0663 46.592 17.2608C46.3403 16.0115 46.2564 15.842 45.7637 15.5857C45.4304 15.4124 45.2832 15.4064 44.6545 15.5405C43.739 15.736 43.1697 15.584 42.5993 14.9923C42.2944 14.6759 42.1728 14.4224 42.1261 14.0061C42.0403 13.2406 42.1503 12.8868 42.6456 12.3356C43.5748 11.301 43.4874 10.7207 42.2426 9.6625C40.6919 8.34419 38.3962 7.12342 37.0944 6.92463C36.4304 6.82337 35.9001 7.09532 35.7032 7.63837C35.1789 9.08343 34.6299 9.5938 33.5999 9.5938C32.6638 9.5938 32.0546 9.07836 31.6915 7.97915C31.4559 7.26553 31.0153 6.86682 30.4767 6.87969C30.2659 6.88477 29.7333 7.01598 29.2933 7.17121ZM29.8426 9.95079C29.9616 10.3277 31.2133 11.4418 31.8471 11.7347C32.3171 11.952 32.6615 12.0052 33.6029 12.0062C34.6782 12.0075 34.8411 11.9744 35.5925 11.6027C36.3677 11.2192 36.7573 10.8757 37.3803 10.0259L37.6517 9.65569L38.5823 10.1435C39.0942 10.4118 39.6791 10.7738 39.8822 10.9481L40.2514 11.2649L39.9278 12.0612C39.6436 12.7602 39.6104 12.987 39.6552 13.918C39.6991 14.83 39.7645 15.0881 40.122 15.7615C40.829 17.0927 42.0697 17.9348 43.554 18.0909L44.3163 18.171L44.2819 19.7312L44.2476 21.2915L43.5091 21.3636C43.1029 21.4034 42.5093 21.5525 42.1901 21.6952C41.385 22.0551 40.4381 22.9852 40.0336 23.8136C39.7311 24.4331 39.6936 24.6464 39.6937 25.7477C39.694 26.7855 39.7387 27.0743 39.9707 27.5349C40.1229 27.8371 40.2475 28.1255 40.2475 28.176C40.2475 28.2964 38.5914 29.3323 38.0046 29.5787C37.5481 29.7705 37.5456 29.7699 37.3679 29.4241C37.096 28.8954 36.1191 28.0495 35.4073 27.7264C33.5552 26.8858 31.2619 27.4994 30.0818 29.1513L29.6439 29.7644L28.8224 29.346C28.3706 29.116 27.7679 28.7567 27.4832 28.5477L26.9654 28.1678L27.2633 27.5136C27.427 27.1539 27.597 26.5517 27.6409 26.1754C27.7997 24.8177 27.0746 23.0902 26.0002 22.266C25.36 21.775 24.2718 21.3597 23.6162 21.3563C23.0779 21.3535 23.0427 21.3323 22.97 20.9665C22.8743 20.4859 22.872 18.7836 22.9664 18.4297C23.0235 18.2158 23.1593 18.1548 23.7035 18.0982C25.1741 17.9456 26.5445 16.957 27.2317 15.5533C27.585 14.8314 27.6309 14.6202 27.6254 13.7432C27.6206 12.9667 27.5497 12.581 27.3001 11.9736L26.9808 11.1968L27.4936 10.842C28.1139 10.4129 29.422 9.72377 29.6235 9.72018C29.7035 9.71882 29.8021 9.82255 29.8426 9.95079ZM32.7756 14.4226C31.3368 14.6341 29.7773 15.7126 29.0128 17.025C27.7929 19.1188 28.2153 21.9226 30.0039 23.6052C32.4094 25.8682 36.205 25.4373 38.0262 22.6943C40.1817 19.4478 38.2816 15.0532 34.4521 14.4283C34.0178 14.3574 33.6073 14.306 33.5396 14.314C33.4719 14.322 33.1281 14.3709 32.7756 14.4226ZM34.4095 16.9554C35.6701 17.3337 36.4566 18.3987 36.4566 19.7276C36.4566 20.603 36.1588 21.2491 35.4649 21.8797C34.0894 23.1295 31.8604 22.6506 31.0659 20.9346C30.2737 19.2236 31.1951 17.3426 33.0472 16.8891C33.6092 16.7514 33.7531 16.7585 34.4095 16.9554ZM0.786241 31.8726C0.643344 31.9306 0.40789 32.1297 0.263147 32.3147L0 32.6512V43.8312C0 51.8053 0.0393859 55.0982 0.137605 55.3148C0.213176 55.4818 0.44863 55.7106 0.660699 55.8231C1.00459 56.0057 1.58688 56.0236 6.05903 55.9895L11.0719 55.9512L11.409 55.6122C11.6986 55.3208 11.7529 55.1507 11.7948 54.4053L11.8436 53.5374H14.4854H17.1272L17.487 53.1756C17.9781 52.6817 17.9783 52.0803 17.4878 51.5279L17.1289 51.1236L14.4724 51.0839L11.8158 51.0441V44.121V37.1978H17.5724H23.3291L29.6036 39.8087C33.0546 41.2447 36.0568 42.5556 36.2754 42.7218C36.9032 43.1995 37.3129 44.0171 37.3865 44.9393C37.4441 45.6601 37.4111 45.8194 37.0528 46.5511C36.4199 47.8442 35.4487 48.4131 34.0505 48.3099C33.454 48.2659 32.3687 47.8953 28.935 46.5632C26.538 45.6334 24.4998 44.8725 24.4057 44.8725C24.1097 44.8725 23.5215 45.2357 23.3768 45.5076C23.1347 45.9625 23.2079 46.6069 23.5394 46.9404C23.7447 47.1469 25.877 48.0306 30.2075 49.7038C33.709 51.0568 36.8605 52.2474 37.2107 52.3497C39.1545 52.9172 41.793 53.0743 43.7084 52.7366C44.2758 52.6366 47.5314 51.9125 50.9432 51.1274C54.3551 50.3424 57.4014 49.7006 57.7127 49.7013C58.4646 49.7029 59.4495 50.175 59.8769 50.7386C60.9808 52.1943 60.6958 53.9403 59.1746 55.04C58.8604 55.2673 44.6578 58.9936 42.7091 59.3601C41.6068 59.5675 39.2625 59.5412 38.2166 59.3099C37.053 59.0524 36.3264 58.79 31.3551 56.8314C29.0029 55.9048 26.9924 55.1466 26.8874 55.1466C26.5846 55.1466 25.9893 55.498 25.8507 55.7587C25.631 56.1714 25.7019 56.8409 26.0009 57.1783C26.3447 57.5664 35.5022 61.2066 37.0866 61.585C38.6437 61.957 40.3275 62.0835 41.8869 61.9459C42.9423 61.8528 44.5968 61.4799 49.5857 60.2113C60.6296 57.4026 60.3473 57.4947 61.4733 56.3327C64.0769 53.646 63.2368 49.2582 59.8173 47.6838C59.1918 47.3958 58.789 47.3029 57.9711 47.2582C56.9764 47.2037 56.607 47.2741 50.4632 48.6889C46.9092 49.5073 43.6728 50.2367 43.2711 50.3098C41.8075 50.5762 39.0046 50.3902 37.8538 49.9501C37.5781 49.8447 37.5886 49.8226 38.2248 49.162C40.3501 46.9552 40.4176 43.5893 38.3814 41.347C38.066 40.9995 37.5193 40.5572 37.1666 40.3641C36.8139 40.1711 33.6672 38.8226 30.174 37.3676L23.8227 34.7221H17.8193H11.8158L11.8153 33.7628C11.8148 32.6803 11.5596 32.083 11.0076 31.872C10.6168 31.7226 1.15413 31.7231 0.786241 31.8726ZM9.35415 43.8822V53.5374H5.90789H2.46162V43.8822V34.227H5.90789H9.35415V43.8822ZM41.4004 34.9415C40.4616 35.7063 40.9253 37.1303 42.1133 37.1303C42.5232 37.1303 42.6766 37.0567 42.9817 36.7132C43.3031 36.3515 43.3432 36.2288 43.2844 35.7879C43.161 34.863 42.0883 34.3811 41.4004 34.9415ZM21.2067 53.2299C20.3751 53.5817 20.1701 54.5315 20.7912 55.1561C21.3968 55.765 22.3319 55.6312 22.718 54.8804C23.2313 53.8823 22.2356 52.7949 21.2067 53.2299Z" fill="#F78DA7"/>
</svg>
