<svg width="46" height="46" viewBox="0 0 46 46" fill="none" xmlns="http://www.w3.org/2000/svg">
<path fill-rule="evenodd" clip-rule="evenodd" d="M23.6354 0.0153212C15.973 0.519249 10.0564 6.91428 10.0671 14.6809C10.0681 15.3957 10.1091 16.2657 10.1585 16.6143C10.2077 16.9627 10.229 17.2673 10.2057 17.2912C10.1824 17.3151 9.98234 17.2262 9.76126 17.0938C9.08797 16.6906 8.56241 16.8255 8.29928 17.4691C8.1829 17.7536 8.18613 17.8196 8.33118 18.1224C8.46643 18.4046 8.72301 18.5983 9.9153 19.3184C11.3632 20.1929 11.6927 20.3078 12.1051 20.0823C12.201 20.0298 12.712 19.3335 13.2405 18.5348C14.3021 16.9307 14.3724 16.7102 13.9756 16.2281C13.5187 15.6733 12.8763 15.8148 12.3709 16.5818L12.055 17.0611L11.9813 16.7045C11.9408 16.5084 11.9079 15.5834 11.9082 14.6489C11.9087 13.3389 11.9469 12.7722 12.075 12.1741C12.5909 9.76592 13.6793 7.6152 15.2289 5.94233C16.9799 4.05189 19.0903 2.79625 21.5181 2.2002C25.8916 1.12668 30.444 2.50566 33.5711 5.85113C35.1988 7.59252 36.2831 9.71128 36.8187 12.1972C36.9455 12.7854 36.9807 13.3512 36.9795 14.7866C36.9782 16.4858 36.9595 16.6989 36.7298 17.6287C36.1622 19.9277 35.2993 21.5978 33.7232 23.4478C33.1835 24.0814 33.0717 24.2673 33.0717 24.5311C33.0717 24.956 33.2877 25.27 33.6685 25.3984C34.0842 25.5387 34.3658 25.4146 34.888 24.861C37.3825 22.2166 38.8232 18.5273 38.8232 14.7842C38.8232 13.2777 38.725 12.4121 38.4074 11.1209C37.0128 5.44942 32.417 1.13293 26.7809 0.200747C25.8561 0.0478327 24.4245 -0.0365686 23.6354 0.0153212ZM21.3887 5.32057C20.1339 5.77031 18.9157 6.52487 18.0412 7.39396C17.3749 8.05613 17.3442 8.36352 17.8808 8.99712C18.5513 9.78888 18.5643 10.5984 17.9162 11.223C17.5386 11.5869 17.111 11.6783 16.4939 11.5271C15.623 11.3135 15.274 11.6691 15.0591 12.989C14.7644 14.7991 14.9853 17.0219 15.5137 17.5618C15.7293 17.782 15.7652 17.7879 16.5305 17.726C17.0893 17.6808 17.3867 17.6949 17.5364 17.7738C17.9212 17.9764 18.2447 18.354 18.3384 18.7098C18.4794 19.2447 18.3582 19.6652 17.9168 20.1731C17.287 20.8978 17.3872 21.3565 18.3467 22.1417C19.8524 23.3738 21.4995 24.171 22.4325 24.119C22.7182 24.1031 23.0636 23.695 23.1754 23.2415C23.2971 22.7475 23.7029 22.3134 24.1794 22.1675C24.9146 21.9424 25.7535 22.4788 25.9568 23.3041C26.2096 24.3298 27.0455 24.3644 28.8519 23.424C29.9234 22.8661 31.1109 21.969 31.4237 21.4811C31.6674 21.1011 31.6013 20.6413 31.2489 20.2645C30.8248 19.8106 30.735 19.6048 30.7354 19.0862C30.7358 18.5605 30.9645 18.1281 31.3858 17.8565C31.6463 17.6885 31.7693 17.674 32.4995 17.7243C33.2704 17.7775 33.3352 17.768 33.5634 17.5674C33.9246 17.2498 34.0737 16.5589 34.1259 14.9598C34.1613 13.8758 34.138 13.404 34.0196 12.8064C33.8358 11.8795 33.7745 11.7537 33.4148 11.5636C33.1714 11.435 33.0639 11.4305 32.6049 11.5301C31.9364 11.6751 31.5207 11.5623 31.1043 11.1233C30.8816 10.8886 30.7929 10.7005 30.7587 10.3916C30.6961 9.82369 30.7764 9.56121 31.138 9.15224C31.8166 8.38464 31.7527 7.95409 30.8438 7.16895C29.7116 6.19085 28.0353 5.28512 27.0848 5.13763C26.5999 5.0625 26.2128 5.26427 26.069 5.66718C25.6862 6.73932 25.2853 7.11798 24.5332 7.11798C23.8498 7.11798 23.4049 6.73556 23.1398 5.92001C22.9678 5.39055 22.6461 5.09474 22.2528 5.10429C22.0989 5.10805 21.71 5.2054 21.3887 5.32057ZM21.7898 7.38285C21.8767 7.6625 22.7907 8.48906 23.2534 8.70636C23.5966 8.86763 23.8481 8.90712 24.5355 8.90786C25.3206 8.90877 25.4396 8.88425 25.9882 8.60846C26.5542 8.32393 26.8386 8.06908 27.2936 7.43859L27.4917 7.1639L28.1712 7.52584C28.545 7.72486 28.972 7.99349 29.1203 8.1228L29.3899 8.35782L29.1537 8.94863C28.9461 9.46725 28.9219 9.63551 28.9546 10.3262C28.9867 11.0029 29.0344 11.1944 29.2955 11.694C29.8117 12.6817 30.7175 13.3065 31.8014 13.4223L32.3579 13.4817L32.3328 14.6392L32.3078 15.7969L31.7686 15.8504C31.472 15.8799 31.0386 15.9906 30.8054 16.0965C30.2176 16.3635 29.5262 17.0535 29.2308 17.6681C29.01 18.1278 28.9826 18.286 28.9827 19.1031C28.9829 19.8731 29.0155 20.0874 29.1849 20.4291C29.2961 20.6533 29.387 20.8673 29.387 20.9048C29.387 20.9941 28.1779 21.7627 27.7494 21.9455C27.416 22.0878 27.4142 22.0873 27.2845 21.8308C27.086 21.4386 26.3727 20.8109 25.853 20.5712C24.5006 19.9475 22.8262 20.4028 21.9645 21.6284L21.6448 22.0833L21.0449 21.7729C20.7151 21.6022 20.275 21.3356 20.0671 21.1806L19.689 20.8987L19.9065 20.4133C20.0261 20.1465 20.1502 19.6996 20.1822 19.4205C20.2982 18.4131 19.7688 17.1314 18.9843 16.52C18.5168 16.1556 17.7223 15.8475 17.2435 15.845C16.8505 15.8429 16.8248 15.8272 16.7717 15.5558C16.7019 15.1992 16.7002 13.9362 16.7691 13.6736C16.8108 13.5149 16.91 13.4697 17.3074 13.4277C18.3811 13.3144 19.3817 12.581 19.8834 11.5395C20.1414 11.0039 20.175 10.8472 20.1709 10.1966C20.1674 9.62045 20.1157 9.33427 19.9334 8.88361L19.7003 8.30731L20.0747 8.0441C20.5276 7.72569 21.4827 7.21441 21.6299 7.21175C21.6883 7.21074 21.7603 7.2877 21.7898 7.38285ZM23.9314 10.7007C22.8808 10.8575 21.7422 11.6577 21.1839 12.6314C20.2932 14.1849 20.6017 16.2652 21.9076 17.5136C23.664 19.1925 26.4354 18.8728 27.7652 16.8377C29.3391 14.429 27.9517 11.1685 25.1555 10.7049C24.8384 10.6523 24.5386 10.6142 24.4892 10.62C24.4398 10.626 24.1888 10.6623 23.9314 10.7007ZM25.1244 12.5798C26.0448 12.8605 26.6191 13.6507 26.6191 14.6366C26.6191 15.2861 26.4017 15.7655 25.895 16.2333C24.8906 17.1606 23.2631 16.8053 22.683 15.5321C22.1046 14.2627 22.7774 12.8671 24.1297 12.5306C24.5401 12.4285 24.6451 12.4337 25.1244 12.5798ZM0.574081 23.6474C0.469743 23.6905 0.297825 23.8382 0.192139 23.9755L0 24.2251V32.5199C0 38.4362 0.028758 40.8793 0.100473 41.04C0.155652 41.1639 0.327571 41.3337 0.482415 41.4171C0.733508 41.5526 1.15868 41.5659 4.42405 41.5406L8.08422 41.5122L8.33037 41.2606C8.54183 41.0444 8.58147 40.9183 8.61211 40.3652L8.6477 39.7213H10.5766H12.5056L12.7683 39.4529C13.1268 39.0864 13.127 38.6403 12.7689 38.2304L12.5068 37.9304L10.5671 37.9009L8.62739 37.8715V32.7349V27.5984H12.8306H17.034L21.6153 29.5355C24.1351 30.6009 26.3272 31.5735 26.4868 31.6968C26.9452 32.0513 27.2443 32.6579 27.298 33.3421C27.3401 33.8769 27.316 33.9951 27.0544 34.5379C26.5923 35.4973 25.8832 35.9194 24.8622 35.8428C24.4267 35.8102 23.6343 35.5352 21.1271 34.5469C19.3769 33.857 17.8887 33.2925 17.82 33.2925C17.6039 33.2925 17.1744 33.5619 17.0687 33.7637C16.892 34.1012 16.9454 34.5793 17.1875 34.8268C17.3374 34.98 18.8943 35.6356 22.0563 36.877C24.6129 37.8808 26.914 38.7642 27.1697 38.8401C28.589 39.2612 30.5155 39.3777 31.9141 39.1272C32.3284 39.053 34.7055 38.5157 37.1966 37.9333C39.6879 37.3508 41.9121 36.8746 42.1394 36.8752C42.6884 36.8764 43.4075 37.2266 43.7197 37.6448C44.5257 38.7248 44.3175 40.0202 43.2069 40.8362C42.9774 41.0048 32.6073 43.7694 31.1844 44.0414C30.3796 44.1952 28.6678 44.1757 27.9042 44.0041C27.0546 43.8131 26.524 43.6184 22.8942 42.1653C21.1767 41.4777 19.7087 40.9152 19.6321 40.9152C19.411 40.9152 18.9763 41.176 18.8751 41.3694C18.7147 41.6756 18.7665 42.1722 18.9847 42.4226C19.2358 42.7105 25.9222 45.4114 27.0791 45.6921C28.2161 45.9681 29.4455 46.062 30.5841 45.9598C31.3547 45.8908 32.5627 45.6142 36.2055 44.6729C44.2692 42.589 44.0631 42.6573 44.8852 41.7952C46.7863 39.8018 46.1729 36.5464 43.6762 35.3783C43.2194 35.1646 42.9253 35.0957 42.3281 35.0625C41.6018 35.0221 41.3321 35.0744 36.8461 36.124C34.2512 36.7313 31.8881 37.2724 31.5948 37.3267C30.5261 37.5243 28.4795 37.3863 27.6393 37.0598C27.438 36.9815 27.4456 36.9652 27.9101 36.475C29.462 34.8377 29.5112 32.3405 28.0245 30.6768C27.7942 30.419 27.395 30.0908 27.1375 29.9476C26.88 29.8044 24.5824 28.8039 22.0318 27.7244L17.3943 25.7616H13.0109H8.62739L8.62703 25.0498C8.62667 24.2467 8.44037 23.8035 8.03731 23.6469C7.75198 23.5361 0.842698 23.5365 0.574081 23.6474ZM6.83002 32.5578V39.7213H4.31369H1.79737V32.5578V25.3942H4.31369H6.83002V32.5578ZM30.2288 25.9243C29.5434 26.4918 29.8819 27.5483 30.7494 27.5483C31.0487 27.5483 31.1607 27.4937 31.3835 27.2388C31.6181 26.9705 31.6474 26.8794 31.6045 26.5523C31.5144 25.8661 30.7311 25.5086 30.2288 25.9243ZM15.4843 39.4932C14.877 39.7542 14.7274 40.4589 15.1809 40.9223C15.623 41.3741 16.3059 41.2748 16.5878 40.7177C16.9625 39.9772 16.2355 39.1704 15.4843 39.4932Z" fill="#FFB800"/>
</svg>
