<svg width="50" height="50" viewBox="0 0 50 50" fill="none" xmlns="http://www.w3.org/2000/svg">
<path d="M41.2917 0.0215065C41.9499 0.172048 42.6188 0.295708 43.2716 0.483885C44.2156 0.758086 44.4153 1.55918 43.7301 2.2635C42.5595 3.45708 41.3834 4.65066 40.1966 5.82811C39.9715 6.05361 39.8388 6.35453 39.8243 6.67222C39.7318 7.14872 39.7811 7.64179 39.9661 8.09075C40.151 8.53971 40.4637 8.92499 40.8655 9.19918C40.8912 9.21837 40.9131 9.24205 40.9302 9.26907C41.1933 9.70664 41.5912 10.0478 42.0647 10.2415C42.5382 10.4353 43.0618 10.4714 43.5575 10.3444C43.8025 10.3125 44.034 10.2139 44.2264 10.0594C45.4241 8.88734 46.5947 7.68838 47.7816 6.50555C48.6124 5.6722 49.3461 5.88188 49.7237 6.98944C50.1013 8.097 49.9287 9.10777 49.9934 10.1723C50.0477 11.5881 49.7179 12.9923 49.0386 14.2369C48.0736 16.1098 46.5247 17.6198 44.6247 18.5399C42.7247 19.46 40.5763 19.7405 38.5026 19.3392C38.2863 19.269 38.0539 19.2653 37.8354 19.3286C37.617 19.3919 37.4228 19.5193 37.278 19.6941C35.6596 21.35 34.0412 22.963 32.3796 24.5867C32.2293 24.7064 32.0686 24.8126 31.8994 24.9039L33.5179 26.4093C33.6375 26.1779 33.7842 25.9613 33.9548 25.7641C34.0433 25.6626 34.1518 25.5805 34.2737 25.5228C34.3955 25.4652 34.5281 25.4334 34.6629 25.4293C34.7977 25.4253 34.9319 25.4491 35.057 25.4994C35.1821 25.5496 35.2955 25.6251 35.3898 25.7211C35.4829 25.8139 35.5557 25.9248 35.604 26.0468C35.6522 26.1689 35.6747 26.2995 35.6702 26.4306C35.6656 26.5617 35.6341 26.6904 35.5775 26.8088C35.5209 26.9273 35.4405 27.0329 35.3413 27.119C35.1735 27.2816 34.9931 27.4309 34.8018 27.5653L38.9989 31.4041C41.9121 34.0923 44.8091 36.7806 47.7546 39.3936C48.493 39.9906 49.0804 40.7522 49.4692 41.617C49.8581 42.4818 50.0377 43.4255 49.9934 44.3722C50.0039 45.4319 49.703 46.4715 49.1278 47.3628C48.5527 48.2542 47.7284 48.9583 46.7566 49.3884C45.617 49.9582 44.3195 50.1332 43.0689 49.8859C41.8184 49.6386 40.6862 48.983 39.8513 48.0228C35.9491 43.7969 32.0433 39.5584 28.1339 35.3074L27.7886 34.9418C27.3165 35.1941 26.8281 35.415 26.3267 35.6031C26.1648 35.6515 25.8627 35.4472 25.7117 35.2859C25.2585 34.8128 25.3934 34.4042 26.3321 33.3611L25.0427 31.9632L24.8539 32.1192C23.079 33.888 21.2988 35.6515 19.5401 37.4311C19.4652 37.5156 19.4088 37.6147 19.3744 37.722C19.34 37.8294 19.3285 37.9427 19.3405 38.0548C20.1659 42.2377 18.8388 45.641 15.4509 48.1519C12.829 50.0981 9.84572 50.4476 6.72755 49.4798C6.55116 49.4358 6.39083 49.343 6.26502 49.2122C6.1392 49.0813 6.05302 48.9177 6.01638 48.7402C5.97974 48.5627 5.99414 48.3785 6.05792 48.2088C6.1217 48.039 6.23227 47.8907 6.37689 47.7809C7.56734 46.5837 8.77036 45.3955 9.98598 44.2163C10.2487 43.961 10.4015 43.614 10.4122 43.2485C10.4998 42.8042 10.4527 42.344 10.2769 41.9265C10.101 41.509 9.80446 41.1532 9.42493 40.9043C9.35959 40.8553 9.30148 40.7974 9.25229 40.7323C8.97367 40.2927 8.56285 39.9521 8.07847 39.759C7.59408 39.5659 7.06087 39.5302 6.55492 39.657C6.3097 39.6931 6.0797 39.7975 5.89137 39.9581C4.70453 41.114 3.54465 42.2969 2.37399 43.4743C1.51623 44.3345 0.755568 44.1464 0.40491 43.0012C-0.0817653 41.3674 -0.130625 39.6351 0.263192 37.9766C0.65701 36.3182 1.47977 34.7915 2.64959 33.5484C3.81941 32.3053 5.2955 31.3892 6.93093 30.8914C8.56637 30.3935 10.3041 30.3311 11.9712 30.7105C12.0623 30.7362 12.158 30.7413 12.2513 30.7255C12.3447 30.7097 12.4333 30.6734 12.5107 30.6191C14.8466 28.3126 17.1718 25.99 19.5239 23.6297C19.4106 23.506 19.3027 23.3824 19.1948 23.2748C15.4221 19.5077 11.6458 15.7442 7.86585 11.9842C7.75491 11.859 7.61622 11.7612 7.46078 11.6987C7.30533 11.6361 7.13741 11.6106 6.97032 11.624C6.38229 11.624 5.79426 11.624 5.21163 11.624C5.02097 11.6315 4.83208 11.585 4.66688 11.4898C4.50169 11.3946 4.36696 11.2547 4.27834 11.0863C2.91167 8.81744 1.5486 6.55036 0.189123 4.28506C0.0593611 4.10276 -0.00104745 3.88038 0.0187224 3.65773C0.0384922 3.43509 0.137147 3.22673 0.297017 3.06998C1.21412 2.12909 2.1582 1.20433 3.0915 0.279576C3.21375 0.174371 3.34559 0.0807739 3.48531 0H4.06794C4.06794 0 4.06794 0.0645176 4.12189 0.0752705C6.42545 1.44628 8.729 2.82266 11.038 4.18291C11.241 4.28828 11.4091 4.44992 11.522 4.64834C11.635 4.84675 11.6879 5.07349 11.6745 5.30122C11.6745 5.83887 11.6745 6.37652 11.6745 6.9518C11.6609 7.11964 11.6869 7.28832 11.7507 7.44428C11.8144 7.60023 11.914 7.73909 12.0414 7.84968C15.8069 11.5953 19.5671 15.3588 23.3218 19.1403C23.4236 19.2588 23.5139 19.3866 23.5915 19.522C23.6669 19.479 23.7391 19.4305 23.8073 19.3769C26.1001 17.0972 28.3983 14.8176 30.6748 12.5165C30.7389 12.4324 30.7841 12.3357 30.8074 12.2327C30.8306 12.1297 30.8314 12.023 30.8097 11.9197C30.5584 10.8286 30.5054 9.70138 30.6533 8.59163C30.8403 6.93733 31.4593 5.36081 32.4485 4.01932C33.4377 2.67782 34.7625 1.61825 36.2908 0.946264C37.3431 0.553285 38.4255 0.245818 39.5276 0.02688L41.2917 0.0215065ZM9.06348 47.9153C9.10124 47.9475 9.12282 47.9798 9.14979 47.9852C9.22963 48.0021 9.31095 48.0111 9.39256 48.0121C11.1631 48.1143 12.9146 47.6034 14.3503 46.5658C15.6841 45.6208 16.6855 44.2813 17.2123 42.7371C17.7391 41.193 17.7645 39.5228 17.2851 37.9634C17.1853 37.7151 17.1655 37.442 17.2283 37.1819C17.2911 36.9218 17.4335 36.6876 17.6357 36.5118C23.9764 30.2033 30.3098 23.8931 36.636 17.5811C36.8127 17.3814 37.0461 17.24 37.3053 17.1757C37.5645 17.1113 37.8372 17.1271 38.0872 17.2209C39.1187 17.5319 40.2036 17.6269 41.2737 17.4998C42.3437 17.3728 43.3759 17.0264 44.3051 16.4826C45.2344 15.9387 46.0407 15.2091 46.6733 14.3397C47.306 13.4702 47.7513 12.4797 47.9812 11.4304C48.1773 10.6355 48.2176 9.81037 48.0999 9.00025C47.1234 9.95726 46.1739 10.8713 45.246 11.8014C45.0989 11.9636 44.9178 12.0915 44.7154 12.1761C44.5131 12.2606 44.2946 12.2998 44.0754 12.2907C43.3255 12.2907 42.5756 12.2907 41.8312 12.2907C41.6114 12.2985 41.3927 12.2571 41.191 12.1697C40.9894 12.0822 40.81 11.9509 40.6659 11.7853C39.8945 10.968 39.0853 10.1723 38.3462 9.34972C38.0957 9.04249 37.9418 8.66843 37.9038 8.27442C37.8391 7.53246 37.9038 6.78513 37.9038 6.0378C37.8989 5.81908 37.94 5.60177 38.0245 5.39988C38.1091 5.19799 38.2352 5.01602 38.3947 4.86572C39.2309 4.04312 40.0455 3.20439 40.8655 2.37103C40.9572 2.27425 41.0381 2.16673 41.1676 2.01618C40.2553 1.88349 39.3252 1.94395 38.4379 2.19361C37.4214 2.44765 36.4667 2.9035 35.6311 3.53386C34.7955 4.16423 34.0961 4.95615 33.5748 5.86221C33.0535 6.76828 32.721 7.76986 32.5972 8.807C32.4734 9.84414 32.5608 10.8955 32.8543 11.8982C32.9593 12.1849 32.9736 12.4967 32.8955 12.7918C32.8174 13.0868 32.6505 13.351 32.4173 13.5488C26.145 19.7819 19.8817 26.024 13.6274 32.2751C13.427 32.5064 13.1612 32.6722 12.8648 32.7508C12.5685 32.8294 12.2552 32.8173 11.9659 32.716C10.9709 32.4231 9.92719 32.3317 8.89624 32.4472C7.8653 32.5626 6.86796 32.8825 5.963 33.3881C5.05805 33.8937 4.26379 34.5746 3.62701 35.3909C2.99024 36.2071 2.52385 37.1421 2.25531 38.1408C1.98853 39.0586 1.91506 40.0214 2.03952 40.9689L2.14202 40.9097C3.07531 39.9796 4.014 39.0548 4.9365 38.1139C5.07311 37.9657 5.24024 37.8486 5.42645 37.7706C5.61267 37.6927 5.81358 37.6557 6.01545 37.6623C6.7815 37.6838 7.54756 37.6838 8.31361 37.6623C8.53305 37.6531 8.75177 37.6932 8.9535 37.7798C9.15523 37.8664 9.3348 37.9971 9.47887 38.1623C9.98059 38.7 10.5147 39.1892 11.0272 39.7108C12.5485 41.2538 12.2787 40.7 12.3759 42.9367C12.4368 43.4724 12.3604 44.0149 12.1537 44.5132C11.9471 45.0116 11.617 45.4496 11.1944 45.7862C10.4466 46.4576 9.73529 47.1683 9.06348 47.9153ZM29.105 33.4579C29.1222 33.4882 29.142 33.517 29.1643 33.5439C33.2427 37.9562 37.323 42.3703 41.405 46.7862C41.7948 47.2275 42.2858 47.5684 42.8362 47.7799C43.3866 47.9915 43.9801 48.0674 44.5663 48.0013C45.322 47.9654 46.0485 47.7 46.6483 47.2406C47.2481 46.7812 47.6926 46.1498 47.9218 45.4313C48.2153 44.6869 48.2632 43.8686 48.0585 43.0952C47.8539 42.3218 47.4073 41.6335 46.7836 41.1302C42.5972 37.3021 38.3983 33.4704 34.1868 29.6352L33.5394 29.0492L29.105 33.4579ZM22.259 20.8662C22.1188 20.7156 22.0001 20.5866 21.876 20.4629C18.3083 16.9037 14.7441 13.3444 11.1836 9.78521C9.37098 7.9572 9.74861 8.77443 9.70546 6.20984C9.70275 6.17764 9.70275 6.14527 9.70546 6.11307C9.77019 5.79048 9.60295 5.62381 9.33322 5.46789C7.62308 4.46249 5.92913 3.43558 4.22439 2.41942C4.12189 2.36028 4.00321 2.30651 3.87913 2.242C3.41518 2.70975 2.9836 3.1775 2.51426 3.60225C2.24992 3.83881 2.2715 4.01624 2.44413 4.30119C3.23716 5.5808 3.99781 6.88191 4.78005 8.17227C5.08216 8.67228 5.31952 9.34972 5.74031 9.59704C6.1611 9.84435 6.87861 9.69919 7.46124 9.67768C7.73602 9.66164 8.01087 9.70799 8.26505 9.81323C8.51924 9.91847 8.74613 10.0799 8.92861 10.2852C12.7697 14.1384 16.6179 17.9879 20.4734 21.8339C20.5994 21.9878 20.7131 22.1514 20.8132 22.3232L22.259 20.8662ZM27.6538 31.888L31.9696 27.5868L30.6856 26.4254L26.4777 30.6245L27.6538 31.888Z" fill="#441ABB"/>
<path d="M19.1513 32.0658C18.2288 32.0658 17.7487 31.3023 18.0993 30.6625C18.2092 30.482 18.3436 30.3173 18.4985 30.1733L30.2699 18.4418C30.4036 18.3006 30.5539 18.176 30.7176 18.0708C30.8917 17.9605 31.0982 17.9126 31.3032 17.9351C31.5082 17.9576 31.6994 18.0491 31.8451 18.1945C32.0052 18.3349 32.1115 18.5263 32.1459 18.7361C32.1804 18.9459 32.1408 19.1611 32.034 19.345C31.924 19.5239 31.7896 19.6868 31.6348 19.8289C27.7146 23.743 23.789 27.6535 19.858 31.5604C19.6407 31.7528 19.4038 31.9222 19.1513 32.0658Z" fill="#441ABB"/>
<path d="M33.9432 15.1797C34.1328 15.1787 34.3186 15.2336 34.477 15.3377C34.6353 15.4417 34.7593 15.5902 34.8331 15.7643C34.9069 15.9385 34.9273 16.1305 34.8917 16.3162C34.8561 16.5019 34.7662 16.6729 34.6332 16.8077C34.5002 16.9425 34.3301 17.035 34.1444 17.0736C33.9587 17.1122 33.7657 17.0951 33.5897 17.0244C33.4138 16.9538 33.2628 16.8328 33.1557 16.6768C33.0487 16.5207 32.9904 16.3365 32.9883 16.1475C32.9882 15.8936 33.0883 15.6498 33.267 15.4688C33.4456 15.2878 33.6884 15.1839 33.9432 15.1797Z" fill="#441ABB"/>
<path d="M16.158 32.9102C16.3479 32.9091 16.5339 32.9642 16.6924 33.0685C16.8509 33.1728 16.9748 33.3215 17.0485 33.496C17.1221 33.6704 17.1422 33.8628 17.1062 34.0486C17.0702 34.2345 16.9797 34.4055 16.8462 34.5401C16.7126 34.6747 16.5421 34.7668 16.356 34.8047C16.1699 34.8427 15.9768 34.8248 15.8009 34.7534C15.625 34.6819 15.4744 34.5601 15.368 34.4033C15.2616 34.2465 15.2042 34.0618 15.2031 33.8726C15.2045 33.6196 15.3052 33.3772 15.4837 33.1973C15.6622 33.0175 15.9042 32.9144 16.158 32.9102Z" fill="#441ABB"/>
<path d="M44.5309 43.2558C44.5309 44.1644 43.7594 44.6214 43.1336 44.2881C42.9513 44.1802 42.7858 44.0462 42.6427 43.8902L34.3132 35.6212C34.2165 35.5329 34.1263 35.4376 34.0435 35.3362C33.8727 35.1581 33.7773 34.9213 33.7773 34.6749C33.7773 34.4286 33.8727 34.1917 34.0435 34.0136C34.2204 33.829 34.4627 33.7206 34.7187 33.7116C34.9747 33.7025 35.2242 33.7935 35.4138 33.9652C35.5109 34.0459 35.6026 34.1373 35.6943 34.2287C38.4708 36.9922 41.2455 39.7539 44.0184 42.5138C44.2148 42.7426 44.3866 42.9913 44.5309 43.2558Z" fill="#441ABB"/>
</svg>
