<svg width="34" height="33" viewBox="0 0 34 33" fill="none" xmlns="http://www.w3.org/2000/svg">
<path fill-rule="evenodd" clip-rule="evenodd" d="M17.4697 0.0109913C11.8061 0.372505 7.43298 4.96024 7.44089 10.532C7.44162 11.0448 7.47197 11.6689 7.50844 11.9189C7.54484 12.1689 7.56059 12.3874 7.54331 12.4046C7.52611 12.4217 7.37825 12.3579 7.21484 12.2629C6.71719 11.9737 6.32874 12.0705 6.13425 12.5322C6.04823 12.7363 6.05062 12.7836 6.15783 13.0008C6.2578 13.2033 6.44744 13.3423 7.3287 13.8589C8.39886 14.4862 8.64244 14.5687 8.94727 14.4069C9.01814 14.3692 9.39583 13.8697 9.78648 13.2967C10.5711 12.1459 10.6231 11.9877 10.3298 11.6419C9.99206 11.2439 9.51726 11.3454 9.14368 11.8956L8.9102 12.2395L8.85573 11.9836C8.82578 11.843 8.80146 11.1794 8.80173 10.509C8.80206 9.56919 8.83029 9.16268 8.92501 8.73357C9.30629 7.00599 10.1108 5.46308 11.2561 4.26298C12.5503 2.90679 14.1102 2.006 15.9047 1.57841C19.1373 0.808271 22.5021 1.79754 24.8134 4.19755C26.0165 5.44681 26.818 6.96678 27.2138 8.75017C27.3076 9.1721 27.3335 9.57802 27.3327 10.6078C27.3317 11.8268 27.3179 11.9796 27.1481 12.6467C26.7286 14.2959 26.0908 15.4941 24.9258 16.8213C24.527 17.2758 24.4443 17.4092 24.4443 17.5984C24.4443 17.9032 24.604 18.1285 24.8854 18.2206C25.1927 18.3212 25.4008 18.2322 25.7868 17.8351C27.6305 15.938 28.6954 13.2913 28.6954 10.606C28.6954 9.52532 28.6228 8.90434 28.3881 7.97806C27.3573 3.90937 23.9604 0.812752 19.7945 0.144014C19.111 0.0343148 18.0529 -0.026234 17.4697 0.0109913ZM15.8091 3.81693C14.8816 4.13957 13.9812 4.68089 13.3348 5.30436C12.8423 5.7794 12.8196 5.99991 13.2162 6.45446C13.7118 7.02246 13.7214 7.60317 13.2424 8.05126C12.9633 8.31236 12.6473 8.37792 12.1911 8.26941C11.5475 8.11622 11.2895 8.37133 11.1306 9.31817C10.9128 10.6168 11.0761 12.2113 11.4666 12.5987C11.626 12.7567 11.6525 12.7609 12.2182 12.7165C12.6312 12.6841 12.851 12.6941 12.9617 12.7507C13.2461 12.8961 13.4852 13.167 13.5545 13.4222C13.6587 13.806 13.5691 14.1076 13.2429 14.472C12.7774 14.9919 12.8514 15.321 13.5606 15.8843C14.6735 16.7682 15.891 17.3401 16.5805 17.3028C16.7917 17.2914 17.047 16.9986 17.1297 16.6732C17.2196 16.3188 17.5195 16.0075 17.8717 15.9028C18.4151 15.7413 19.0352 16.1261 19.1855 16.7182C19.3723 17.454 19.9902 17.4788 21.3253 16.8041C22.1173 16.404 22.995 15.7604 23.2262 15.4103C23.4063 15.1378 23.3575 14.8079 23.097 14.5376C22.7835 14.2119 22.7172 14.0643 22.7175 13.6923C22.7178 13.3151 22.8868 13.0049 23.1982 12.8101C23.3908 12.6896 23.4816 12.6792 24.0214 12.7153C24.5912 12.7534 24.6391 12.7466 24.8077 12.6027C25.0747 12.3749 25.1849 11.8792 25.2235 10.732C25.2497 9.95436 25.2325 9.61591 25.1449 9.18719C25.0091 8.52227 24.9638 8.43201 24.6979 8.29563C24.518 8.20339 24.4386 8.20016 24.0993 8.27158C23.6052 8.37561 23.2979 8.29471 22.9901 7.97977C22.8256 7.81137 22.7599 7.67644 22.7347 7.45486C22.6884 7.04743 22.7478 6.85913 23.0151 6.56574C23.5166 6.01507 23.4694 5.7062 22.7976 5.14294C21.9607 4.44126 20.7218 3.7915 20.0192 3.68569C19.6608 3.63179 19.3747 3.77654 19.2684 4.06558C18.9854 4.83473 18.6892 5.10638 18.1333 5.10638C17.6281 5.10638 17.2993 4.83203 17.1033 4.24697C16.9762 3.86714 16.7384 3.65492 16.4477 3.66177C16.334 3.66447 16.0465 3.73431 15.8091 3.81693ZM16.1055 5.29639C16.1698 5.49701 16.8453 6.08998 17.1873 6.24586C17.441 6.36156 17.6268 6.38989 18.1349 6.39042C18.7152 6.39108 18.8032 6.37348 19.2087 6.17563C19.627 5.97152 19.8373 5.78869 20.1735 5.33638L20.32 5.13932L20.8222 5.39897C21.0985 5.54175 21.4141 5.73446 21.5237 5.82723L21.723 5.99583L21.5484 6.41967C21.395 6.79173 21.377 6.91243 21.4012 7.40795C21.4249 7.8934 21.4602 8.03077 21.6532 8.38918C22.0347 9.09772 22.7043 9.54594 23.5054 9.62902L23.9167 9.67165L23.8982 10.5021L23.8797 11.3326L23.4811 11.371C23.2619 11.3921 22.9415 11.4715 22.7692 11.5475C22.3348 11.739 21.8237 12.2341 21.6054 12.675C21.4422 13.0047 21.4219 13.1182 21.422 13.7044C21.4221 14.2568 21.4463 14.4105 21.5715 14.6557C21.6536 14.8165 21.7209 14.97 21.7209 14.9969C21.7209 15.061 20.8271 15.6123 20.5104 15.7435C20.264 15.8456 20.2627 15.8452 20.1668 15.6612C20.0201 15.3798 19.4928 14.9296 19.1087 14.7576C18.1091 14.3102 16.8715 14.6368 16.2346 15.516L15.9983 15.8423L15.5549 15.6197C15.3111 15.4972 14.9859 15.306 14.8322 15.1948L14.5528 14.9926L14.7135 14.6444C14.8019 14.4529 14.8936 14.1324 14.9173 13.9321C15.003 13.2094 14.6117 12.2899 14.0319 11.8513C13.6863 11.5899 13.0991 11.3689 12.7452 11.3671C12.4548 11.3656 12.4358 11.3543 12.3965 11.1596C12.3449 10.9038 12.3436 9.99771 12.3946 9.80935C12.4254 9.6955 12.4987 9.66302 12.7924 9.63291C13.586 9.55167 14.3256 9.02551 14.6965 8.27837C14.8872 7.89412 14.9119 7.78172 14.9089 7.31492C14.9064 6.90162 14.8681 6.69632 14.7334 6.37302L14.5611 5.95959L14.8378 5.77076C15.1726 5.54234 15.8785 5.17556 15.9873 5.17365C16.0305 5.17292 16.0837 5.22813 16.1055 5.29639ZM17.6884 7.67657C16.9119 7.7891 16.0703 8.36316 15.6577 9.06168C14.9993 10.1761 15.2273 11.6685 16.1926 12.5641C17.4908 13.7685 19.5392 13.5392 20.5221 12.0792C21.6854 10.3513 20.6599 8.01219 18.5932 7.6796C18.3588 7.64185 18.1372 7.6145 18.1007 7.61872C18.0642 7.623 17.8787 7.64903 17.6884 7.67657ZM18.5702 9.02465C19.2505 9.226 19.675 9.79288 19.675 10.5002C19.675 10.9661 19.5143 11.31 19.1398 11.6456C18.3974 12.3109 17.1945 12.056 16.7657 11.1426C16.3382 10.2319 16.8355 9.23074 17.835 8.98934C18.1383 8.91607 18.216 8.91983 18.5702 9.02465ZM0.424321 16.9644C0.347202 16.9953 0.220131 17.1013 0.142016 17.1998L0 17.3789V23.3295C0 27.5738 0.0212559 29.3265 0.0742627 29.4418C0.115047 29.5306 0.242118 29.6524 0.356567 29.7123C0.542158 29.8095 0.856413 29.819 3.26995 29.8008L5.97529 29.7805L6.15723 29.6C6.31353 29.4449 6.34282 29.3544 6.36547 28.9576L6.39178 28.4957H7.81752H9.24325L9.43741 28.3031C9.70245 28.0403 9.70258 27.7202 9.43788 27.4261L9.24418 27.211L7.81047 27.1898L6.37677 27.1687V23.4837V19.7988H9.48351H12.5903L15.9765 21.1885C17.839 21.9528 19.4592 22.6506 19.5772 22.739C19.916 22.9933 20.1371 23.4285 20.1768 23.9193C20.2079 24.303 20.1901 24.3878 19.9967 24.7772C19.6552 25.4654 19.131 25.7683 18.3764 25.7133C18.0545 25.6899 17.4688 25.4927 15.6157 24.7837C14.3221 24.2887 13.2221 23.8837 13.1713 23.8837C13.0116 23.8837 12.6941 24.077 12.616 24.2218C12.4854 24.4639 12.5249 24.8069 12.7038 24.9844C12.8146 25.0943 13.9654 25.5647 16.3025 26.4552C18.1922 27.1754 19.893 27.8091 20.082 27.8635C21.131 28.1656 22.555 28.2492 23.5886 28.0695C23.8949 28.0163 25.6519 27.6308 27.4932 27.213C29.3345 26.7951 30.9785 26.4535 31.1465 26.4539C31.5523 26.4548 32.0838 26.7061 32.3145 27.006C32.9103 27.7809 32.7564 28.7102 31.9355 29.2955C31.7659 29.4165 24.1011 31.3998 23.0493 31.5949C22.4545 31.7053 21.1893 31.6913 20.6248 31.5682C19.9969 31.4311 19.6047 31.2914 16.9218 30.249C15.6524 29.7558 14.5673 29.3522 14.5107 29.3522C14.3473 29.3522 14.026 29.5393 13.9512 29.678C13.8326 29.8977 13.8709 30.254 14.0322 30.4336C14.2178 30.6402 19.1599 32.5777 20.015 32.7791C20.8553 32.9771 21.764 33.0444 22.6056 32.9712C23.1752 32.9216 24.0681 32.7232 26.7606 32.0479C32.7207 30.553 32.5684 30.602 33.1761 29.9835C34.5812 28.5535 34.1278 26.2181 32.2824 25.3801C31.9448 25.2268 31.7274 25.1773 31.286 25.1535C30.7492 25.1246 30.5498 25.162 27.2341 25.915C25.3161 26.3507 23.5695 26.7389 23.3526 26.7778C22.5628 26.9196 21.0501 26.8206 20.429 26.5864C20.2802 26.5302 20.2859 26.5185 20.6292 26.1669C21.7763 24.9923 21.8127 23.2008 20.7138 22.0072C20.5435 21.8223 20.2485 21.5869 20.0582 21.4841C19.8678 21.3814 18.1696 20.6636 16.2844 19.8892L12.8567 18.4811H9.61676H6.37677L6.3765 17.9705C6.37623 17.3943 6.23854 17.0764 5.94062 16.9641C5.72972 16.8846 0.622864 16.8849 0.424321 16.9644ZM5.04827 23.3566V28.4957H3.18838H1.32849V23.3566V18.2176H3.18838H5.04827V23.3566ZM22.3431 18.5979C21.8364 19.005 22.0867 19.7629 22.7278 19.7629C22.949 19.7629 23.0318 19.7237 23.1965 19.5409C23.3699 19.3484 23.3916 19.2831 23.3598 19.0484C23.2933 18.5561 22.7143 18.2996 22.3431 18.5979ZM11.4449 28.3321C10.9961 28.5193 10.8855 29.0248 11.2206 29.3573C11.5475 29.6814 12.0522 29.6102 12.2605 29.2105C12.5375 28.6793 12.0001 28.1005 11.4449 28.3321Z" fill="#75CB08"/>
</svg>
