<svg width="42" height="46" viewBox="0 0 42 46" fill="none" xmlns="http://www.w3.org/2000/svg">
<path fill-rule="evenodd" clip-rule="evenodd" d="M28.793 0.131139C27.2545 0.535423 25.857 1.63824 25.1495 3.00617C24.644 3.98366 24.4722 4.69297 24.4757 5.78851C24.4792 6.8648 24.74 7.8012 25.2901 8.71217C25.4835 9.03249 25.6303 9.30695 25.6161 9.32197C25.602 9.33698 23.7523 9.68651 21.5057 10.0987C17.0033 10.9249 16.7234 11.0087 16.1066 11.7162C15.6831 12.2018 12.4575 17.8858 12.3279 18.3746C12.2007 18.855 12.2129 19.6485 12.3538 20.0443C12.4714 20.3745 12.3639 20.7797 10.2229 28.0841L10.091 28.5338L8.94568 28.538C7.69543 28.5427 7.0712 28.6688 6.09238 29.1144C4.62953 29.7805 3.33318 31.0615 2.69695 32.4694C2.49607 32.9142 0.265035 39.8923 0.0513487 40.7444C-0.154101 41.5637 0.274255 42.6031 1.0273 43.1128C1.18755 43.2212 2.25347 43.6226 3.39575 44.0047C5.13424 44.5862 5.53852 44.7547 5.87565 45.0382C7.4471 46.3596 9.56704 46.3153 11.0248 44.9308C12.2363 43.7801 12.5524 41.9438 11.7943 40.4598L11.5492 39.98L14.1754 30.94L16.8016 21.9002L17.3117 21.396C17.7158 20.9968 18.0763 20.4426 19.0435 18.7342L20.2651 16.5766L21.2839 16.3834C21.8443 16.2771 22.3139 16.2006 22.3275 16.2135C22.3412 16.2264 20.5989 22.1156 18.4557 29.3007C14.9801 40.9532 14.5592 42.4304 14.5592 42.9747C14.5592 44.1873 15.1518 45.1404 16.2405 45.6787C16.7657 45.9383 16.9253 45.9742 17.5562 45.9741C18.1448 45.9741 18.365 45.9313 18.7774 45.7372C19.4188 45.4352 19.9239 44.9763 20.2179 44.4282C20.3453 44.1907 21.3053 41.124 22.3511 37.6134C23.3969 34.1028 24.2632 31.2175 24.2761 31.2017C24.2891 31.1858 25.24 31.9461 26.3893 32.8912L28.4791 34.6095L29.1714 39.1603C29.5521 41.6632 29.9321 43.8912 30.0158 44.1115C30.2307 44.6764 30.9411 45.4222 31.5511 45.723C31.9877 45.9383 32.1694 45.9742 32.8233 45.9742C33.505 45.9742 33.6497 45.9427 34.1847 45.6782C34.8369 45.3557 35.2928 44.894 35.6166 44.2279C35.9846 43.4706 35.9502 43.0114 35.1147 37.5235C34.6932 34.7545 34.2875 32.2857 34.2132 32.0371C34.1389 31.7885 33.9529 31.4142 33.7998 31.2052C33.5976 30.929 30.0186 27.8964 28.0888 26.3659C28.0517 26.3365 29.5922 20.4142 29.6822 20.2396C29.7193 20.168 30.2101 20.6517 31.029 21.567C31.7377 22.3591 32.5014 23.1234 32.7261 23.2653C33.5004 23.7544 33.6163 23.7689 36.7155 23.7658C39.9009 23.7626 39.9544 23.7544 40.7899 23.1385C41.3318 22.7391 41.7259 22.1265 41.9129 21.3935C42.2627 20.0223 41.5317 18.5291 40.2068 17.9087C39.6777 17.6608 39.6401 17.6566 37.6781 17.6251L35.6863 17.5931L32.9492 14.569L30.2121 11.5449L30.9071 11.437C32.9161 11.125 34.4338 10.0431 35.3094 8.29854C35.7398 7.44115 35.8984 6.72491 35.8953 5.65365C35.8929 4.84275 35.8548 4.60047 35.625 3.93493C35.2982 2.98882 34.6821 2.03578 34.0023 1.42517C33.4265 0.907882 32.3214 0.327752 31.5269 0.125655C30.8593 -0.0441675 29.4493 -0.0413806 28.793 0.131139ZM30.9512 1.61001C32.9235 1.98561 34.3432 3.71566 34.3432 5.74356C34.3432 7.85389 32.8567 9.57791 30.7554 9.90452C29.022 10.174 27.1852 9.18873 26.4122 7.57492C24.9294 4.4791 27.5986 0.971442 30.9512 1.61001ZM27.3896 10.8888C27.5449 10.948 29.0082 12.4961 31.1852 14.9046C33.1337 17.0604 34.7837 18.8848 34.8518 18.959C34.9532 19.0694 35.3776 19.102 37.1885 19.1388C39.2918 19.1815 39.4173 19.1938 39.7276 19.3876C40.3169 19.7557 40.5873 20.4131 40.4202 21.0716C40.311 21.5015 40.1162 21.757 39.7058 22.0082C39.4151 22.1862 39.2761 22.1948 36.6693 22.195C34.2359 22.1954 33.9064 22.1782 33.6517 22.0381C33.4945 21.9515 32.6772 21.1121 31.8355 20.1726C29.8195 17.9223 29.6792 17.7903 29.3044 17.7903C28.7304 17.7903 28.6983 17.872 27.5374 22.2936C26.9479 24.5388 26.4655 26.4995 26.4655 26.6508C26.4654 26.802 26.5158 26.9886 26.5773 27.0655C26.6389 27.1424 28.0034 28.2817 29.6096 29.5974C31.6056 31.2323 32.5739 32.0828 32.6688 32.2842C32.8163 32.5976 34.3432 42.341 34.3432 42.9689C34.3432 44.0259 33.3137 44.7384 32.3307 44.3613C31.8823 44.1894 31.5389 43.8307 31.4023 43.3918C31.3519 43.2298 31.0016 41.0543 30.6238 38.5573C30.2334 35.9776 29.8825 33.9303 29.8109 33.8157C29.7416 33.7049 28.4516 32.6024 26.9443 31.3659C24.4635 29.3307 24.1725 29.1178 23.8732 29.1178C23.6449 29.1178 23.4849 29.1804 23.3567 29.32C23.2288 29.4593 22.5201 31.7046 21.0807 36.5314C19.931 40.3865 18.9095 43.6633 18.8107 43.8134C18.5969 44.1378 17.9426 44.4916 17.5615 44.4888C17.153 44.4858 16.5819 44.1891 16.3469 43.8577C15.872 43.1879 15.6863 43.9143 20.1461 28.9907C22.3908 21.4793 24.2274 15.2373 24.2274 15.1194C24.2274 14.8025 23.8471 14.4637 23.4929 14.4651C22.8663 14.4676 19.4881 15.1504 19.3124 15.3101C19.217 15.3968 18.5861 16.4454 17.9103 17.6404C16.5334 20.075 16.3575 20.3403 15.9587 20.5845C15.6194 20.7923 14.9259 20.8126 14.5653 20.6254C13.9787 20.3207 13.6047 19.563 13.7429 18.959C13.8537 18.4748 17.1243 12.7899 17.4071 12.5899C17.5394 12.4964 17.735 12.3926 17.8417 12.3594C18.3781 12.1922 26.7203 10.7112 26.913 10.7489C27.0361 10.773 27.2506 10.8359 27.3896 10.8888ZM14.5144 22.0939C14.8098 22.1715 15.0633 22.2413 15.0778 22.2491C15.1091 22.2658 12.9617 29.6733 12.9105 29.7245C12.8911 29.744 12.7151 29.6586 12.5195 29.5345C12.3239 29.4106 12.0233 29.2501 11.8514 29.178L11.539 29.0469L12.5479 25.5742C13.1027 23.6643 13.5812 22.0376 13.6111 21.9594C13.6478 21.8635 13.7162 21.8392 13.8213 21.885C13.9071 21.9223 14.219 22.0162 14.5144 22.0939ZM10.3546 30.2506C11.2353 30.5132 12.4107 31.1828 12.4107 31.4219C12.4107 31.6156 10.3398 38.6877 10.2579 38.7738C10.2116 38.8225 10.1335 38.8168 10.0645 38.7598C9.78538 38.5292 8.8865 38.3567 8.16255 38.3949C6.16642 38.5001 4.62236 40.1258 4.62236 42.1225C4.62236 42.4856 4.61082 42.7827 4.59667 42.7827C4.58244 42.7827 3.97227 42.5813 3.2407 42.3352C1.86226 41.8714 1.63031 41.7429 1.54321 41.3943C1.4775 41.1315 3.79555 33.7034 4.18864 32.9171C4.89084 31.5126 6.39837 30.392 7.96569 30.1094C8.57497 29.9995 9.74411 30.0686 10.3546 30.2506ZM9.41172 40.1084C9.78234 40.3038 10.2446 40.7774 10.4399 41.1619C11.1439 42.5476 10.2108 44.2771 8.65966 44.4616C7.31962 44.621 6.14126 43.5622 6.14619 42.2032C6.14959 41.2549 6.60364 40.5232 7.44227 40.1144C7.81807 39.9313 7.9904 39.9019 8.51651 39.9315C8.86117 39.9509 9.26401 40.0305 9.41172 40.1084Z" fill="#FF6900"/>
</svg>
