<svg width="49" height="46" viewBox="0 0 49 46" fill="none" xmlns="http://www.w3.org/2000/svg">
<path fill-rule="evenodd" clip-rule="evenodd" d="M13.9277 0.116023C13.5305 0.309066 13.4817 0.620272 13.4817 2.96109V5.19862L12.6896 5.50952C12.2539 5.68051 11.6556 5.92699 11.36 6.05736L10.8227 6.2943L9.21357 4.6917C8.27139 3.75336 7.49265 3.0611 7.33453 3.02151C6.90514 2.91401 6.59145 3.15198 4.87523 4.8869C3.12548 6.65587 2.91278 6.9481 3.06886 7.36916C3.12354 7.51687 3.88317 8.35776 4.75677 9.23794L6.34523 10.8382L6.01458 11.4945C5.83274 11.8555 5.58294 12.4509 5.45947 12.8176L5.23501 13.4844L2.87108 13.5356C0.192437 13.5938 0.155436 13.6048 0.0407558 14.3746C0.0043687 14.6183 -0.0104519 15.8436 0.00784382 17.0974C0.0400403 19.3104 0.0477061 19.3838 0.27349 19.6104C0.498763 19.8365 0.580532 19.8455 2.87006 19.8952L5.23399 19.9465L5.5581 20.8183C5.73636 21.2979 5.98667 21.8931 6.11423 22.141L6.34615 22.5917L4.68543 24.2608C3.18936 25.7641 3.02552 25.9633 3.03421 26.2676C3.04259 26.5647 3.27042 26.8321 4.92082 28.4816C6.61261 30.1724 6.83206 30.3576 7.14319 30.3576C7.45238 30.3576 7.66058 30.1859 9.13968 28.7114L10.791 27.0652L11.5784 27.4254C12.0115 27.6234 12.6169 27.8649 12.9237 27.962L13.4817 28.1385V30.4651C13.4817 32.6636 13.4934 32.8065 13.6936 33.062L13.9054 33.3322H16.6419C19.2928 33.3322 19.3843 33.3255 19.573 33.1166C19.7492 32.9214 19.7726 32.6755 19.8188 30.5285L19.8699 28.156L20.7387 27.8399C21.2165 27.6659 21.8087 27.4189 22.0547 27.2908L22.5021 27.0578L24.1571 28.7077C25.6519 30.1979 25.8462 30.3576 26.1639 30.3576C26.4844 30.3576 26.6806 30.1908 28.3665 28.4857C29.3844 27.456 30.2458 26.5303 30.2809 26.4285C30.4065 26.0628 30.0372 25.5644 28.5244 24.0579L26.9879 22.5277L27.3023 21.9039C27.4751 21.5607 27.7175 20.9799 27.841 20.6132L28.0654 19.9465L30.4298 19.8952C32.7199 19.8455 32.8017 19.8365 33.027 19.6104C33.2535 19.383 33.2603 19.3157 33.2911 16.9948C33.3257 14.3865 33.2939 14.0317 32.9983 13.7351C32.8131 13.5492 32.6409 13.5356 30.4572 13.5356H28.1147L27.939 13.0484C27.8423 12.7804 27.5866 12.1689 27.3707 11.6893L26.9782 10.8175L28.5977 9.1763C29.4883 8.27365 30.2449 7.45399 30.2789 7.3547C30.4044 6.98893 30.0955 6.57494 28.4761 4.93819C26.8621 3.30676 26.4547 2.97063 26.0913 2.97063C25.994 2.97063 25.1644 3.71828 24.2477 4.63211C22.7169 6.15819 22.561 6.28558 22.3341 6.19635C22.1981 6.1428 21.5767 5.89314 20.9529 5.64132L19.8188 5.18364L19.8155 2.87185C19.8121 0.449796 19.7965 0.359327 19.34 0.115305C19.0516 -0.0388618 14.2452 -0.0382464 13.9277 0.116023ZM18.2856 3.8824C18.2856 5.87304 18.3059 6.15132 18.4645 6.33595C18.5677 6.45616 19.0325 6.65977 19.5632 6.81742C20.0692 6.9678 20.9152 7.31767 21.4433 7.59503C21.9713 7.87239 22.5228 8.09928 22.6686 8.09928C22.8747 8.09928 23.2934 7.73894 24.5446 6.48519L26.1553 4.8712L27.2787 5.9951L28.4022 7.11909L26.8191 8.71903C25.4837 10.0687 25.236 10.3672 25.236 10.6263C25.236 10.7952 25.4814 11.418 25.7813 12.0104C26.0811 12.6027 26.4252 13.4537 26.5457 13.9013C26.8723 15.114 26.7742 15.0742 29.438 15.0742H31.6752V16.6586V18.2429L29.4371 18.2741C27.421 18.3022 27.1781 18.3243 26.9883 18.4969C26.8706 18.6038 26.6419 19.1251 26.4705 19.6765C26.3016 20.2199 25.9547 21.0702 25.6997 21.5662C25.4447 22.0621 25.236 22.5924 25.236 22.7447C25.236 22.9648 25.5597 23.3467 26.8205 24.6138L28.4051 26.2063L27.2817 27.3302L26.1584 28.454L24.5984 26.9051C23.7404 26.0531 22.9357 25.3247 22.8102 25.2862C22.6443 25.2353 22.2389 25.3846 21.3281 25.8318C20.6385 26.1703 19.7753 26.5263 19.4099 26.6228C18.2592 26.927 18.2939 26.8407 18.262 29.4762L18.2345 31.7424L16.6758 31.7707L15.1171 31.799V29.7088C15.1171 28.5164 15.0711 27.4864 15.01 27.3105C14.8847 26.9498 14.7162 26.8535 13.6915 26.5569C13.2729 26.4357 12.446 26.085 11.8538 25.7775C11.0484 25.3593 10.7124 25.2348 10.5196 25.2831C10.378 25.3186 9.56017 26.0465 8.70211 26.9008L7.14207 28.454L6.01877 27.3302L4.89537 26.2063L6.49579 24.5979C7.83485 23.2521 8.09467 22.9421 8.08711 22.6989C8.0821 22.539 7.84885 21.9697 7.5688 21.4338C7.28864 20.8978 6.9403 20.067 6.79465 19.5875C6.649 19.1079 6.49568 18.6648 6.45398 18.6028C6.25181 18.3022 5.88221 18.254 3.77841 18.254H1.62523V16.6641V15.0742H3.85108C5.66624 15.0742 6.1175 15.0458 6.29637 14.9201C6.44417 14.8162 6.62069 14.4235 6.83809 13.7148C7.01553 13.1367 7.36397 12.2834 7.61254 11.8186C8.30829 10.5173 8.3362 10.5935 6.48137 8.71903L4.89823 7.11909L6.02173 5.9951L7.14513 4.8712L8.75587 6.48519C10.0188 7.75074 10.4247 8.09928 10.6356 8.09928C10.7836 8.09928 11.3407 7.87177 11.8735 7.5937C12.4063 7.31562 13.2506 6.96492 13.7497 6.81435C15.1312 6.39749 15.06 6.55156 15.0987 3.89112L15.1314 1.63718H16.7085H18.2856V3.8824ZM14.8615 8.14728C12.1663 8.73739 9.96247 10.5119 8.78613 13.0388C8.1423 14.422 8.01995 15.0136 8.02588 16.7154C8.03048 18.0306 8.06329 18.3096 8.30921 19.1259C10.1084 25.0973 17.2899 27.3702 22.0966 23.4896C23.4458 22.4005 24.6417 20.5693 25.0804 18.9207C25.3454 17.9247 25.3979 16.0988 25.1909 15.0735C24.4776 11.5408 21.882 8.88448 18.4255 8.14954C17.5654 7.96665 15.6918 7.96552 14.8615 8.14728ZM18.49 9.78671C20.8256 10.42 22.7748 12.3442 23.4816 14.7139C23.7942 15.7622 23.8292 17.444 23.5596 18.4592C22.7152 21.6385 19.9244 23.7929 16.6502 23.7929C11.7516 23.7929 8.34519 18.975 9.95409 14.3219C10.3068 13.3018 10.7753 12.5696 11.6419 11.6839C12.6981 10.6045 14.0022 9.90877 15.4748 9.6389C16.1493 9.5153 17.7849 9.59551 18.49 9.78671ZM15.1694 10.5214C13.2393 10.9897 11.5381 12.4813 10.7959 14.3562C9.16594 18.4742 12.1491 22.9592 16.548 23.0042C17.7485 23.0164 18.3968 22.8677 19.5121 22.3248C20.707 21.743 21.6693 20.7819 22.259 19.5815C23.2021 17.6616 23.2171 15.7246 22.3034 13.8566C21.8241 12.8766 20.5908 11.5951 19.6464 11.0955C18.3466 10.4081 16.5739 10.1807 15.1694 10.5214ZM17.9885 12.1509C19.0407 12.4495 20.1709 13.3082 20.6969 14.2091C21.3354 15.3025 21.5406 16.8612 21.1983 18.0179C20.476 20.4589 17.9204 21.9148 15.4784 21.2765C13.3871 20.7299 11.9485 18.8721 11.9485 16.718C11.9485 13.5172 14.9104 11.2776 17.9885 12.1509ZM34.325 22.5189L34.0772 22.7834L34.0477 26.1089L34.018 29.4345H31.883H29.7481L29.5363 29.7047C29.332 29.9653 29.3244 30.0922 29.3244 33.2435V36.512L16.6758 36.5126C9.14376 36.5129 3.78648 36.5527 3.43222 36.611C2.13812 36.8236 1.01554 37.6504 0.452461 38.8053C-0.133412 40.007 -0.139749 42.4593 0.439685 43.7542C0.793642 44.545 1.57791 45.332 2.39181 45.713L3.00508 46H24.5716H46.1381L46.7261 45.7235C47.5487 45.3367 48.3463 44.5482 48.7062 43.7662C48.9953 43.1381 49 43.0987 49 41.2816C49 39.4596 48.9961 39.4275 48.7089 38.8403C48.1825 37.7647 47.0114 36.8277 45.9848 36.6608C45.788 36.6289 45.5253 36.582 45.4011 36.5564L45.1752 36.5102L45.1455 33.1682L45.116 29.8264L44.8747 29.6305C44.6778 29.4706 44.4669 29.4345 43.7289 29.4345H42.8243L42.7947 26.0918L42.7651 22.7493L42.4783 22.5018L42.1915 22.2544H38.3822H34.5728L34.325 22.5189ZM41.1809 26.6137V29.4345H38.4212H35.6615V26.6137V23.7929H38.4212H41.1809V26.6137ZM36.4792 33.7425V36.512H33.6684H30.8576V33.7425V30.9731H33.6684H36.4792V33.7425ZM43.5317 33.7425V36.512H40.772H38.0123V33.7425V30.9731H40.772H43.5317V33.7425ZM46.1423 38.396C46.7424 38.6764 47.1216 39.0902 47.3651 39.7301C47.602 40.3524 47.5499 42.6541 47.288 43.1427C47.0494 43.5877 46.5842 44.0353 46.1197 44.2668C45.7401 44.456 45.1425 44.4614 24.5716 44.4614C4.00071 44.4614 3.40309 44.456 3.02348 44.2668C2.55893 44.0353 2.09376 43.5877 1.8552 43.1427C1.59324 42.6541 1.54121 40.3524 1.77803 39.7301C2.0216 39.0902 2.40081 38.6764 3.00089 38.396L3.51613 38.1552H24.5716H45.627L46.1423 38.396ZM7.70525 39.1897C7.14074 39.489 6.87509 39.7553 6.6261 40.2714C6.1773 41.2018 6.41995 42.3699 7.20646 43.0648C8.49094 44.1993 10.4438 43.6635 10.9852 42.0278C11.361 40.8922 10.774 39.5927 9.67761 39.133C9.1225 38.9004 8.20107 38.9269 7.70525 39.1897ZM15.6792 39.1686C14.5034 39.7161 13.9849 41.0883 14.5124 42.2561C14.7927 42.8764 15.0703 43.1601 15.6792 43.4483C16.3381 43.76 16.9608 43.7599 17.6285 43.4479C19.9158 42.3791 19.1715 38.9783 16.6502 38.9783C16.3176 38.9783 15.9212 39.056 15.6792 39.1686ZM23.5261 39.1831C21.9003 40.0114 21.7729 42.2681 23.2942 43.2934C25.0086 44.4489 27.2991 42.8664 26.8634 40.8272C26.725 40.1797 26.4256 39.7323 25.8668 39.3382C25.4946 39.0756 25.3154 39.0234 24.6929 38.9956C24.1 38.9692 23.8749 39.0054 23.5261 39.1831ZM31.4002 39.2336C30.6025 39.6325 30.1421 40.4044 30.1421 41.3429C30.1421 42.2704 30.646 43.0419 31.5177 43.4493C32.1823 43.7599 32.8061 43.7595 33.4639 43.4483C34.0729 43.1601 34.3505 42.8764 34.6308 42.2561C35.0122 41.4116 34.8658 40.4572 34.2492 39.771C33.508 38.946 32.3951 38.7361 31.4002 39.2336ZM39.4433 39.1372C38.4236 39.5806 37.7933 40.8947 38.1134 41.9099C38.6614 43.6476 40.6104 44.2363 41.9367 43.0648C42.4699 42.5937 42.7286 42.0033 42.7286 41.2575C42.7286 39.9445 41.7391 38.9691 40.4158 38.9777C40.0777 38.98 39.64 39.0517 39.4433 39.1372ZM9.22615 40.725C9.77563 41.1587 9.46266 42.0509 8.76098 42.0509C8.0496 42.0509 7.71475 41.2643 8.21324 40.7642C8.51977 40.4564 8.86892 40.4429 9.22615 40.725ZM16.9919 40.6262C17.7305 40.964 17.4699 42.0509 16.6502 42.0509C15.9192 42.0509 15.6224 41.233 16.1789 40.7526C16.4909 40.4832 16.6314 40.4615 16.9919 40.6262ZM25.0872 40.7642C25.5888 41.2674 25.2723 42.0509 24.5676 42.0509C24.1232 42.0509 23.805 41.7495 23.805 41.3283C23.805 40.9391 24.2061 40.5123 24.5716 40.5123C24.7172 40.5123 24.9493 40.6257 25.0872 40.7642ZM32.9642 40.7526C33.5208 41.233 33.2239 42.0509 32.4929 42.0509C31.4601 42.0509 31.4794 40.5608 32.5128 40.5193C32.608 40.5154 32.8112 40.6205 32.9642 40.7526ZM40.9299 40.7642C41.4232 41.2591 41.0949 42.0509 40.3965 42.0509C39.6811 42.0509 39.3605 41.1642 39.917 40.725C40.2743 40.4429 40.6234 40.4564 40.9299 40.7642Z" fill="#3734DF"/>
</svg>
