<svg width="40" height="42" viewBox="0 0 40 42" fill="none" xmlns="http://www.w3.org/2000/svg">
<path fill-rule="evenodd" clip-rule="evenodd" d="M18.0606 0.112612C11.6269 1.20271 7.1437 7.01657 7.92701 13.2537C8.52968 18.0529 11.4615 23.7282 16.2972 29.4567C17.8303 31.2729 19.018 32.5236 19.3634 32.6858C20.0509 33.0086 21.0182 32.6742 21.2952 32.018C21.4374 31.6814 21.4474 31.0448 21.3144 30.7982C21.2606 30.6986 20.8176 30.1866 20.3299 29.6604C15.8442 24.8212 12.5634 19.6162 11.3172 15.3617C10.5972 12.9035 10.5724 10.6052 11.2445 8.61088C11.8448 6.82981 13.1682 5.11025 14.7712 4.02869C17.4988 2.18844 21.0738 1.92634 24.0513 3.34841C27.3989 4.9472 29.4667 8.43507 29.2591 12.1326C29.1299 14.4319 28.4407 16.6894 27.0196 19.4684C26.0767 21.3122 24.638 23.6132 23.5472 25.022C22.9394 25.8072 22.8371 26.0197 22.8367 26.4975C22.8363 27.026 22.9875 27.3418 23.3844 27.6413C23.7998 27.9547 24.3777 28.0024 24.875 27.7642C25.1891 27.6138 25.3898 27.3896 26.1304 26.3621C29.911 21.117 31.9472 16.3271 32.1089 12.2984C32.17 10.7766 32.0186 9.68257 31.5523 8.27584C30.9307 6.40061 30.0094 4.92333 28.5792 3.50847C26.7425 1.69126 24.4296 0.510321 21.9467 0.121813C20.9342 -0.0366734 18.9688 -0.0413153 18.0606 0.112612ZM19.2336 6.71269C18.4576 6.83562 17.4887 7.36553 16.8982 7.99012C16.0793 8.85599 15.7146 9.74905 15.7146 10.8877C15.7146 13.4401 18.0612 15.4561 20.5951 15.0809C22.2434 14.8368 23.6653 13.5977 24.1074 12.0202C24.6379 10.1275 23.7435 8.07201 21.9934 7.1622C21.0839 6.6894 20.2443 6.55263 19.2336 6.71269ZM20.3412 9.52516C21.4543 9.83103 21.7855 11.2247 20.917 11.9477C20.2675 12.4883 19.367 12.3875 18.8496 11.7165C18.2712 10.9662 18.6165 9.88516 19.5383 9.56006C19.9357 9.41998 19.9551 9.41906 20.3412 9.52516ZM6.41443 23.1461C2.87726 24.6557 0.882071 26.6552 0.20014 29.3738C-0.0492897 30.3682 -0.0688955 32.1525 0.160007 33.021C1.62441 38.576 10.1962 42.2643 20.9931 41.9852C27.22 41.8242 32.2449 40.5092 35.8651 38.0932C36.896 37.4051 38.3509 35.9537 38.9037 35.0616C39.7236 33.7385 40.0823 32.3342 39.9842 30.8307C39.7848 27.7751 38.131 25.4727 34.9015 23.7544C33.2669 22.8846 32.3568 22.6789 31.8006 23.0534C30.7189 23.7817 30.9262 25.1736 32.1855 25.6383C32.9324 25.914 34.3471 26.6705 34.932 27.107C35.9654 27.8781 36.727 28.9714 37.002 30.0784C37.164 30.7303 37.1515 31.9272 36.9771 32.4822C36.3401 34.5082 33.8132 36.467 30.3012 37.6571C27.1511 38.7245 24.236 39.1452 19.9877 39.1452C17.2325 39.1452 15.9578 39.0523 13.8295 38.6967C7.90891 37.7073 3.70355 35.2102 2.92769 32.2232C2.63151 31.0831 2.93423 29.6092 3.69157 28.5047C4.41908 27.4435 5.53477 26.6319 7.34412 25.8474C8.39906 25.3901 8.69943 25.1396 8.84807 24.5934C9.01488 23.9804 8.68812 23.3016 8.07339 22.9839C7.70163 22.7917 7.10893 22.8497 6.41443 23.1461Z" fill="#4823B1"/>
</svg>
