<svg width="50" height="53" viewBox="0 0 50 53" fill="none" xmlns="http://www.w3.org/2000/svg">
<path fill-rule="evenodd" clip-rule="evenodd" d="M0 26.5V53H23.4372H46.8744L46.9007 34.6087L46.9271 16.2175L48.4635 15.7085L50 15.1995V7.59981V0H25H0V26.5ZM37.5 26.5V49.8945H20.3125H3.125V26.5V3.10547H20.3125H37.5V26.5ZM46.85 8.03954L46.8229 12.9735L43.9062 13.9408C42.3021 14.4727 40.9075 14.934 40.8073 14.9659C40.6351 15.0205 40.625 14.693 40.625 9.06455V3.10547H43.751H46.877L46.85 8.03954ZM9.375 20.2891V31.1582H20.3125H31.25V20.2891V9.41992H20.3125H9.375V20.2891ZM28.125 20.2891V28.0527H20.3125H12.5V20.2891V12.5254H20.3125H28.125V20.2891ZM18.75 17.1836V18.7363H17.1875H15.625V20.2891V21.8418H17.1875H18.75V23.3945V24.9473H20.3125H21.875V23.3945V21.8418H23.4375H25V20.2891V18.7363H23.4375H21.875V17.1836V15.6309H20.3125H18.75V17.1836ZM43.75 33.5908V49.8945H42.1872H40.6244L40.6507 34.0912L40.6771 18.2878L42.1354 17.7956C42.9375 17.5249 43.6289 17.2997 43.6719 17.2953C43.7149 17.2907 43.75 24.6238 43.75 33.5908ZM9.375 39.0254V40.5781H17.1875H25V39.0254V37.4727H17.1875H9.375V39.0254ZM9.375 45.2363V46.7891H20.3125H31.25V45.2363V43.6836H20.3125H9.375V45.2363Z" fill="#09C928"/>
</svg>
