<svg width="50" height="40" viewBox="0 0 50 40" fill="none" xmlns="http://www.w3.org/2000/svg">
<path fill-rule="evenodd" clip-rule="evenodd" d="M18.6912 0.0261378C17.7793 0.100048 16.1408 0.369901 15.6466 0.527603C13.1747 1.31621 11.0624 3.67621 10.1938 6.61979L9.98409 7.33044L7.36452 7.33242C5.28513 7.334 4.59823 7.36818 4.03379 7.49782C1.63433 8.04929 0.180071 9.70338 0.0145799 12.0694C-0.0259825 12.6482 0.0156603 13.1774 0.170151 14.0456C0.407239 15.3782 1.16634 18.4067 1.69335 20.1225C1.88526 20.7475 2.35463 22.4371 2.73619 23.8773C3.90071 28.2716 5.2707 32.8909 5.91596 34.5983C6.8379 37.0381 8.94213 38.9608 11.4234 39.6304C12.4202 39.8995 16.605 40.0001 26.7939 40C37.1325 39.9999 41.1213 39.9039 42.0171 39.6336C43.8392 39.0837 45.1075 37.6946 45.4923 35.8269C45.5756 35.4229 45.825 34.3365 46.0467 33.4126C47.2687 28.3203 48.741 20.9515 49.7387 14.9349C50.2038 12.1297 50.0594 10.4488 49.214 8.82871C48.492 7.44516 47.1038 6.41871 45.6505 6.19402C44.7796 6.05943 37.7723 5.89709 32.6867 5.89373C30.391 5.89225 28.4152 5.86478 28.2961 5.83256C28.1169 5.78425 28.0519 5.64374 27.9198 5.01876C27.6649 3.81287 27.4111 3.11892 26.9848 2.46262C26.1491 1.1758 25.1521 0.572068 23.3444 0.258443C22.2549 0.0693184 19.7193 -0.0572586 18.6912 0.0261378ZM22.7433 3.95545C23.436 4.08213 23.7619 4.26374 23.958 4.63221C24.0087 4.72766 24.1572 5.29246 24.2881 5.8874C24.4189 6.48235 24.6363 7.18845 24.7714 7.45652C25.3032 8.51241 26.4999 9.3448 27.776 9.54627C28.134 9.60279 30.2479 9.64815 32.5885 9.64953C34.8843 9.65101 38.6152 9.69568 40.8796 9.74894C45.5358 9.85842 45.517 9.85526 45.9248 10.6054C46.312 11.3175 46.3838 12.0582 46.1939 13.3808C45.8481 15.7896 43.9894 25.8254 43.805 26.28C43.7553 26.4022 43.5497 25.8205 43.159 24.452C42.2504 21.2697 41.1609 17.7413 40.8478 16.9673C40.4411 15.9619 40.0015 15.2637 39.2781 14.474C37.9472 13.0212 36.3241 12.1595 34.4633 11.9177C34.063 11.8658 29.9086 11.7767 25.2312 11.7199C15.3289 11.5996 16.3419 11.7345 15.2689 10.3929C14.7371 9.72789 14.0506 9.05064 13.5446 8.69136C13.4536 8.62674 13.8776 7.27293 14.197 6.60863C14.6112 5.7468 15.5814 4.65217 16.2117 4.33548C17.3322 3.77246 20.6784 3.5778 22.7433 3.95545ZM9.33116 11.1246C10.6238 11.2408 11.2147 11.5192 12.0026 12.3833C13.4195 13.9372 13.9856 14.4568 14.5949 14.762C15.7989 15.3651 15.8079 15.3656 25.2225 15.48C29.949 15.5373 34.0297 15.6264 34.2908 15.6781C35.2893 15.8755 36.4046 16.6802 37.0267 17.6522C37.842 18.9262 41.8206 33.1187 41.8206 34.7532C41.8206 35.6105 41.5397 35.9246 40.6401 36.0733C40.45 36.1046 37.2457 36.1727 33.5196 36.2244C26.0905 36.3277 13.6204 36.2079 12.6097 36.0236C12.2882 35.9649 11.805 35.8046 11.536 35.6674C10.938 35.3626 10.0641 34.5472 9.7412 33.9927C9.26909 33.1822 7.81856 28.4716 6.42854 23.235C5.96694 21.496 5.51859 19.873 5.43226 19.6284C4.85113 17.9833 3.71214 13.2241 3.71509 12.4533C3.71803 11.6652 4.13908 11.2636 5.09244 11.1395C5.95211 11.0276 8.16654 11.0198 9.33116 11.1246ZM20.6334 19.7247C20.2034 19.8271 19.8856 20.0501 19.5627 20.476C19.1475 21.0238 19.1465 21.6778 19.559 23.0868L19.8916 24.2232L18.5964 24.2726C17.3977 24.3183 17.2713 24.3417 16.9032 24.5872C15.9809 25.2019 15.8134 26.5672 16.5614 27.3729C17.0871 27.9392 17.437 28.0228 19.2916 28.0252L20.9725 28.0274L21.323 29.2378C21.5157 29.9036 21.7468 30.7069 21.8364 31.0232C22.0207 31.6739 22.4593 32.2395 22.9343 32.4392C23.7037 32.7626 24.6759 32.4966 25.1866 31.8228C25.6056 31.2702 25.6068 30.619 25.1912 29.1884L24.854 28.0274L26.0449 28.0252C27.6581 28.0222 28.2154 27.7597 28.6061 26.8187C28.8957 26.1215 28.6989 25.3038 28.1076 24.7482C27.6547 24.3226 27.384 24.2726 25.5317 24.2726H23.7912L23.2831 22.4966C23.0037 21.5199 22.7007 20.6066 22.6099 20.467C22.2611 19.9315 21.2924 19.5677 20.6334 19.7247Z" fill="#0E3E9A"/>
</svg>
