<svg width="50" height="60" viewBox="0 0 50 60" fill="none" xmlns="http://www.w3.org/2000/svg">
<path fill-rule="evenodd" clip-rule="evenodd" d="M4.19535 0.108309C3.32809 0.314396 2.06508 1.05789 1.45036 1.72402C1.13764 2.063 0.683252 2.75877 0.440875 3.26988L0 4.19942V30.0196V55.8399L0.520275 56.8913C1.14683 58.1579 1.95336 58.9467 3.24841 59.5596L4.17891 60H17.7604H31.3418L32.2724 59.5596C33.567 58.9469 34.3739 58.1579 35.0005 56.8919L35.5208 55.8408L35.5639 51.069L35.607 46.2973L35.2568 45.9474C34.796 45.4871 34.1594 45.4838 33.7036 45.9392L33.3617 46.2807V50.6195C33.3617 53.6193 33.3094 55.1349 33.1923 55.5309C32.9662 56.2953 31.8123 57.4481 31.0471 57.6739C30.2211 57.9177 5.2997 57.9177 4.47367 57.6739C3.70851 57.4481 2.55457 56.2953 2.32849 55.5309C2.08249 54.6991 2.08249 5.32573 2.32849 4.49387C2.55457 3.7295 3.70851 2.57675 4.47367 2.35091C4.81299 2.25072 5.90689 2.1817 7.1543 2.1817H9.26145L10.3049 4.26302C10.8788 5.40769 11.4706 6.4096 11.62 6.48947C11.9932 6.68888 23.5276 6.68888 23.9007 6.48947C24.0502 6.4096 24.6419 5.40769 25.2158 4.26302L26.2593 2.1817H28.3665C29.6139 2.1817 30.7078 2.25072 31.0471 2.35091C31.8123 2.57675 32.9662 3.7295 33.1923 4.49387C33.3038 4.8714 33.3617 6.16636 33.3617 8.29207V11.5176L33.7036 11.8591C34.1602 12.3154 34.796 12.3112 35.2587 11.849L35.6109 11.4972L35.5658 7.84052L35.5208 4.18384L35.0005 3.13281C34.3739 1.86693 33.5668 1.07779 32.2724 0.465238L31.3418 0.0248173L18.039 0.00227457C10.2988 -0.0108059 4.51002 0.0335837 4.19535 0.108309ZM23.193 3.29493L22.6327 4.40815H17.7604H12.888L12.3278 3.29493L11.7675 2.1817H17.7604H23.7532L23.193 3.29493ZM32.3197 13.4691C29.7427 13.844 26.7902 15.1102 24.7796 16.7028C20.8806 19.791 18.6349 24.7574 18.9184 29.6645C19.0455 31.8644 19.5522 33.8624 20.4256 35.6075L20.8231 36.4019L19.2917 39.7678C18.4495 41.6189 17.7604 43.2838 17.7604 43.4674C17.7604 43.8774 18.3408 44.4844 18.7328 44.4844C18.8916 44.4844 20.7881 44.0423 22.9472 43.5021L26.8732 42.5198L27.9235 43.0087C35.5527 46.5599 44.6515 43.3575 48.4414 35.7873C49.549 33.5749 50 31.5814 50 28.8992C50 26.0481 49.5361 24.141 48.2332 21.6349C45.2429 15.8837 38.7222 12.5376 32.3197 13.4691ZM37.7002 15.9379C42.6079 17.226 46.2865 20.9652 47.5268 25.9264C47.8576 27.2499 47.8576 30.5484 47.5268 31.8719C46.0674 37.7101 41.1797 41.8477 35.3118 42.2123C32.8982 42.3623 30.7873 41.9237 28.4183 40.7798L27.1317 40.1586L24.0526 40.93C22.3591 41.3543 20.9458 41.7013 20.9121 41.7013C20.8784 41.7013 21.3778 40.5465 22.0219 39.135C22.666 37.7236 23.193 36.4775 23.193 36.3657C23.193 36.2541 22.9407 35.6712 22.6322 35.0705C18.5182 27.0569 23.2323 17.4289 32.0932 15.7476C33.5394 15.4732 36.2849 15.5665 37.7002 15.9379ZM31.4749 21.4482C31.1378 21.7848 31.1329 21.8245 31.1329 24.2313V26.6727H28.6889C25.3592 26.6727 25.561 26.4572 25.561 30.0124C25.561 33.5676 25.3592 33.3521 28.6889 33.3521H31.1329V35.7935C31.1329 39.1199 30.9171 38.9182 34.476 38.9182C38.0349 38.9182 37.8192 39.1199 37.8192 35.7935V33.3521H40.2631C43.5929 33.3521 43.391 33.5676 43.391 30.0124C43.391 26.4572 43.5929 26.6727 40.2631 26.6727H37.8192V24.2313C37.8192 20.9049 38.0349 21.1066 34.476 21.1066C31.8383 21.1066 31.8139 21.1094 31.4749 21.4482ZM35.5904 25.7745C35.5904 29.0797 35.4097 28.8992 38.7183 28.8992H41.1623V30.0124V31.1256H38.7183C35.4097 31.1256 35.5904 30.9452 35.5904 34.2503V36.6918H34.476H33.3617V34.2503C33.3617 30.9452 33.5423 31.1256 30.2337 31.1256H27.7898V30.0124V28.8992H30.2337C33.5423 28.8992 33.3617 29.0797 33.3617 25.7745V23.333H34.476H35.5904V25.7745ZM13.6448 53.7318C13.4292 53.9471 13.3029 54.2324 13.3029 54.5034C13.3029 54.7745 13.4292 55.0598 13.6448 55.275L13.9867 55.6167H17.7604H21.5341L21.8759 55.275C22.0915 55.0598 22.2179 54.7745 22.2179 54.5034C22.2179 54.2324 22.0915 53.9471 21.8759 53.7318L21.5341 53.3902H17.7604H13.9867L13.6448 53.7318Z" fill="#F77C5F"/>
</svg>
