<svg width="50" height="50" viewBox="0 0 50 50" fill="none" xmlns="http://www.w3.org/2000/svg">
<path fill-rule="evenodd" clip-rule="evenodd" d="M24.082 0.0658507C23.4628 0.22139 22.5816 0.742789 22.1538 1.20677C21.9341 1.44506 21.615 1.93418 21.4447 2.29348C21.1647 2.88444 21.135 3.03587 21.135 3.87627C21.135 4.71667 21.1647 4.8681 21.4447 5.45905C21.8639 6.34367 22.4292 6.93071 23.2634 7.34802C23.641 7.53682 24.0101 7.69138 24.0836 7.69138C24.188 7.69138 24.2169 7.91109 24.2158 8.69407L24.2143 9.69676L17.6564 13.5496C14.0494 15.6687 11.056 17.4816 11.0041 17.5784C10.9475 17.6842 10.91 19.666 10.91 22.5541V27.3539H9.2955C7.99618 27.3539 7.68102 27.3278 7.68102 27.2203C7.68102 27.1468 7.52642 26.7778 7.33757 26.4003C6.92016 25.5663 6.33297 25.0011 5.44814 24.5821C4.85626 24.3017 4.70626 24.2724 3.85988 24.2724C2.97779 24.2724 2.88376 24.293 2.18591 24.6378C1.2953 25.0778 0.740607 25.6442 0.309687 26.5537C0.0292564 27.1454 0 27.2954 0 28.1416C0 29.0234 0.0205479 29.1174 0.36546 29.8151C0.805577 30.7055 1.37211 31.2601 2.2818 31.6909C2.8729 31.9709 3.02436 32.0005 3.86497 32.0005C4.70558 32.0005 4.85705 31.9709 5.44814 31.6909C6.33297 31.2718 6.92016 30.7067 7.33757 29.8726C7.52642 29.4951 7.68102 29.1261 7.68102 29.0527C7.68102 28.9452 7.99618 28.9191 9.2955 28.9191H10.91V30.6201C10.91 32.1 10.9323 32.3468 11.0812 32.5181C11.3632 32.8423 21.4927 38.7403 21.8388 38.7818C22.1979 38.8249 22.6517 38.4574 22.6517 38.1236C22.6517 37.5997 22.4703 37.4742 17.458 34.5316L12.4804 31.6092L12.478 30.2641L12.4755 28.9191H14.5837C16.6916 28.9191 16.6919 28.9191 16.932 28.6789C17.2498 28.3613 17.2498 27.9117 16.932 27.594C16.6919 27.3539 16.6916 27.3539 14.5837 27.3539H12.4755V23.3375V19.3213L12.8914 19.5707C13.1202 19.7078 15.7613 21.262 18.7609 23.0245L24.2145 26.2289L24.2159 34.2749C24.217 41.0105 24.1955 42.3209 24.0836 42.3209C24.0101 42.3209 23.641 42.4754 23.2634 42.6642C22.4292 43.0815 21.8639 43.6686 21.4447 44.5532C21.1643 45.1449 21.135 45.2949 21.135 46.1411C21.135 47.0229 21.1556 47.1169 21.5005 47.8146C21.9406 48.705 22.5071 49.2596 23.4168 49.6904C24.0079 49.9704 24.1594 50 25 50C25.8406 50 25.9921 49.9704 26.5832 49.6904C27.4929 49.2596 28.0594 48.705 28.4995 47.8146C28.8444 47.1169 28.865 47.0229 28.865 46.1411C28.865 45.2949 28.8357 45.1449 28.5553 44.5532C28.1361 43.6686 27.5708 43.0815 26.7366 42.6642C26.359 42.4754 25.9899 42.3209 25.9164 42.3209C25.8045 42.3209 25.783 41.0104 25.784 34.2749L25.7853 26.2289L30.7498 23.3161C33.4802 21.7141 36.1216 20.1636 36.6194 19.8705L37.5245 19.3375V23.3458V27.3539H35.4163C33.3084 27.3539 33.3081 27.3539 33.068 27.594C32.7502 27.9117 32.7502 28.3613 33.068 28.6789C33.3081 28.9191 33.3084 28.9191 35.4163 28.9191H37.5245L37.523 30.2641L37.5216 31.6092L32.6164 34.4899C29.9186 36.0743 27.6296 37.4583 27.5297 37.5654C27.0991 38.0275 27.5297 38.8574 28.1612 38.782C28.5438 38.7363 38.8543 32.6983 38.9933 32.4384C39.0466 32.3392 39.09 31.5067 39.09 30.5885V28.9191H40.7045C42.0038 28.9191 42.319 28.9452 42.319 29.0527C42.319 29.1261 42.4736 29.4951 42.6624 29.8726C43.0798 30.7067 43.667 31.2718 44.5519 31.6909C45.1437 31.9712 45.2937 32.0005 46.1401 32.0005C47.0222 32.0005 47.1162 31.98 47.8141 31.6351C48.7047 31.1951 49.2594 30.6287 49.6903 29.7193C49.9704 29.1283 50 28.9769 50 28.1365C50 27.2961 49.9704 27.1446 49.6903 26.5537C49.2594 25.6442 48.7047 25.0778 47.8141 24.6378C47.1162 24.293 47.0222 24.2724 46.1401 24.2724C45.2937 24.2724 45.1437 24.3017 44.5519 24.5821C43.667 25.0011 43.0798 25.5663 42.6624 26.4003C42.4736 26.7778 42.319 27.1468 42.319 27.2203C42.319 27.3278 42.0038 27.3539 40.7045 27.3539H39.09V22.5072V17.6605L38.8671 17.4449C38.7445 17.3262 35.7514 15.5344 32.2159 13.463L25.7875 9.69676L25.7851 8.69407C25.7833 7.9107 25.812 7.69138 25.9164 7.69138C25.9899 7.69138 26.359 7.53682 26.7366 7.34802C27.5708 6.93071 28.1361 6.34367 28.5553 5.45905C28.8357 4.86732 28.865 4.71735 28.865 3.87118C28.865 2.9893 28.8444 2.89529 28.4995 2.19762C27.8384 0.860079 26.6637 0.0752418 25.2201 0.00656972C24.803 -0.0132884 24.2909 0.0134174 24.082 0.0658507ZM25.7225 1.64746C26.5634 1.89583 27.3483 2.97189 27.3483 3.87627C27.3483 5.0884 26.2124 6.22403 25 6.22403C23.7876 6.22403 22.6517 5.0884 22.6517 3.87627C22.6517 3.26145 22.8755 2.76539 23.3822 2.25778C24.0686 1.57008 24.8079 1.37727 25.7225 1.64746ZM12.4041 11.0652C8.49256 13.6728 8.45401 13.7056 8.60137 14.2927C8.6772 14.5947 9.18112 14.8701 9.50773 14.7882C9.85362 14.7014 17.0347 9.89221 17.1096 9.69725C17.3093 9.17673 16.9377 8.57179 16.4181 8.57179C16.2234 8.57179 15.0653 9.29118 12.4041 11.0652ZM33.078 8.80187C32.8332 9.04672 32.7652 9.37091 32.8904 9.69725C32.9641 9.88928 40.1049 14.6724 40.4509 14.7616C40.802 14.852 41.3217 14.5988 41.3966 14.3009C41.546 13.7056 41.5122 13.6768 37.6447 11.0943C35.2214 9.47617 33.8457 8.61591 33.6406 8.59048C33.4036 8.56103 33.2678 8.61209 33.078 8.80187ZM24.4972 18.5585C24.6242 18.6613 24.8505 18.7454 25 18.7454C25.1495 18.7454 25.3758 18.6613 25.5028 18.5585L25.7339 18.3716L25.7828 14.9529L25.8317 11.5341L31.2132 14.6994C34.1731 16.4403 36.6072 17.9019 36.6223 17.9473C36.6668 18.0806 25.1042 24.8353 24.9195 24.784C24.6179 24.7 13.4051 18.0584 13.4051 17.9637C13.4051 17.9124 15.8268 16.4462 18.7867 14.7056L24.1683 11.5409L24.2172 14.9563L24.2661 18.3716L24.4972 18.5585ZM4.58748 25.9077C5.42838 26.156 6.21331 27.2321 6.21331 28.1365C6.21331 29.3486 5.0774 30.4842 3.86497 30.4842C3.24951 30.4842 2.75391 30.2605 2.24716 29.7539C1.25724 28.7642 1.25724 27.5098 2.24716 26.518C2.93356 25.8303 3.6729 25.6375 4.58748 25.9077ZM46.8575 25.9077C47.6984 26.156 48.4834 27.2321 48.4834 28.1365C48.4834 29.3486 47.3475 30.4842 46.135 30.4842C45.5196 30.4842 45.024 30.2605 44.5172 29.7539C43.5273 28.7642 43.5273 27.5098 44.5172 26.518C45.2036 25.8303 45.943 25.6375 46.8575 25.9077ZM8.81184 36.1924C8.56703 36.4373 8.49902 36.7615 8.62427 37.0878C8.69912 37.2828 15.8802 42.092 16.2261 42.1787C16.5527 42.2607 17.0567 41.9852 17.1325 41.6832C17.2795 41.0974 17.2378 41.0617 13.3786 38.4848C10.9553 36.8667 9.57955 36.0065 9.37446 35.981C9.13748 35.9516 9.00166 36.0026 8.81184 36.1924ZM36.682 38.4479C34.6312 39.8151 32.9251 41.0072 32.8906 41.0972C32.765 41.4244 32.8332 41.7482 33.0795 41.9945C33.2812 42.1961 33.3961 42.2359 33.6558 42.1937C34.0358 42.1321 41.2781 37.342 41.3757 37.0878C41.5754 36.5673 41.2038 35.9623 40.6842 35.9623C40.4895 35.9623 39.3345 36.6797 36.682 38.4479ZM25.7225 43.9072C26.5634 44.1555 27.3483 45.2316 27.3483 46.136C27.3483 47.3481 26.2124 48.4837 25 48.4837C23.7876 48.4837 22.6517 47.3481 22.6517 46.136C22.6517 45.5212 22.8755 45.0251 23.3822 44.5175C24.0686 43.8298 24.8079 43.637 25.7225 43.9072Z" fill="#FF0FCA"/>
</svg>
