<svg width="18" height="18" viewBox="0 0 18 18" fill="none" xmlns="http://www.w3.org/2000/svg">
<path d="M1.60577 4.73094L9 0.46188L16.3942 4.73094V13.2691L9 17.5381L1.60577 13.2691V4.73094Z" stroke="#410EAD" stroke-width="0.8"/>
<path fill-rule="evenodd" clip-rule="evenodd" d="M8.86015 5.00953C8.83935 5.01385 8.7968 5.02642 8.7656 5.03746C8.71354 5.05587 6.41146 6.3048 6.36074 6.34215C6.34446 6.35413 6.35348 6.37949 6.39452 6.43697C6.4736 6.54777 6.52588 6.7008 6.53799 6.85697C6.57679 7.35735 6.15037 7.7867 5.61466 7.7867H5.46491L5.47011 9.13252L5.47529 10.4783L5.53563 10.5942C5.56884 10.6579 5.62415 10.7356 5.65855 10.767C5.69296 10.7983 6.23168 11.1029 6.85571 11.4438C7.47973 11.7848 8.01692 12.079 8.04946 12.0977L8.10865 12.1317L8.16154 12.0287C8.23525 11.8853 8.43589 11.6987 8.58887 11.6312C8.84555 11.518 9.13803 11.5168 9.38938 11.628C9.55712 11.7023 9.74057 11.8693 9.81836 12.0188L9.87727 12.1319L9.94546 12.0937C9.98295 12.0727 10.2094 11.9488 10.4486 11.8183C11.9654 10.9908 12.2342 10.8409 12.3055 10.7827C12.3532 10.7439 12.4099 10.67 12.4473 10.5982L12.5097 10.4783L12.5148 9.13252L12.5199 7.7867H12.3797C11.8539 7.7867 11.4275 7.35284 11.466 6.85697C11.4781 6.70081 11.5303 6.54777 11.6094 6.43702L11.6654 6.3586L10.4625 5.70141C9.69791 5.28362 9.22507 5.0357 9.16456 5.02086C9.07254 4.99828 8.93821 4.99329 8.86015 5.00953ZM5.48896 6.33861C5.30302 6.37548 5.13584 6.50291 5.04519 6.67682C4.9856 6.79114 4.98481 7.02538 5.0436 7.14619C5.10112 7.26443 5.22512 7.38431 5.34969 7.44217C5.44086 7.48449 5.47976 7.49169 5.61712 7.49169C5.75436 7.49169 5.79339 7.48447 5.88422 7.44231C6.24808 7.27335 6.35365 6.84049 6.10227 6.54827C5.95891 6.38163 5.70677 6.29545 5.48896 6.33861ZM12.245 6.33611C12.0694 6.37974 11.9277 6.48737 11.8375 6.64553C11.7784 6.74912 11.773 6.77142 11.7733 6.91061C11.7735 7.02695 11.783 7.08218 11.8138 7.14619C11.8677 7.2584 11.9955 7.38606 12.1119 7.44404C12.1956 7.48577 12.2289 7.49151 12.3868 7.49151C12.5447 7.49151 12.578 7.48577 12.6618 7.44404C12.7788 7.38574 12.9048 7.25951 12.9582 7.14698C12.9876 7.08504 12.9987 7.02441 12.9998 6.91918C13.0012 6.79152 12.9945 6.76262 12.9391 6.65621C12.8354 6.45689 12.6551 6.34174 12.4268 6.32899C12.358 6.32515 12.2762 6.32835 12.245 6.33611ZM9.08328 6.97546C9.27656 7.06834 10.7831 7.93755 10.8072 7.97009C10.8324 8.00408 10.8362 8.13734 10.8362 8.98518C10.8362 9.73856 10.8308 9.96778 10.8126 9.99016C10.7863 10.0224 9.11673 11.0165 9.04637 11.0418C9.02111 11.0509 8.98346 11.0511 8.95903 11.0423C8.93541 11.0338 8.70779 10.9042 8.45319 10.7543C8.19861 10.6043 7.82011 10.3815 7.6121 10.259C7.40409 10.1366 7.21902 10.0201 7.20081 10.0002C7.17016 9.96671 7.16772 9.89165 7.16772 8.98364V8.00326L7.21027 7.95892C7.24362 7.92416 8.73952 7.07144 8.94511 6.96999C9.00534 6.94026 9.01046 6.94047 9.08328 6.97546ZM8.31643 7.65071C7.94459 7.85996 7.63553 8.03573 7.62963 8.04131C7.61758 8.05268 8.97879 8.82979 9.01023 8.82947C9.03281 8.82925 10.3206 8.09868 10.361 8.06315C10.3824 8.0444 10.2671 7.97277 9.7029 7.65431C9.32669 7.44195 9.01294 7.26866 9.0057 7.26922C8.99845 7.26979 8.68828 7.44145 8.31643 7.65071ZM7.47028 9.07007V9.83905L8.11794 10.2195C8.47416 10.4287 8.78473 10.6115 8.80814 10.6257L8.85069 10.6515V9.86672V9.08194L8.20303 8.71697C7.84681 8.51624 7.53623 8.34055 7.51282 8.32655L7.47028 8.30109V9.07007ZM9.84346 8.69653L9.1627 9.08493L9.15777 9.85857C9.15361 10.5125 9.15692 10.6313 9.17919 10.6264C9.19368 10.6232 9.50427 10.4436 9.8694 10.2272L10.5332 9.8339L10.5335 9.06955C10.5336 8.64917 10.5315 8.30587 10.5289 8.30669C10.5263 8.3075 10.2179 8.48293 9.84346 8.69653ZM8.8034 11.8512C8.5328 11.9352 8.36272 12.1803 8.38201 12.4585C8.39714 12.6765 8.53753 12.8662 8.75281 12.9597C8.87681 13.0134 9.10822 13.0134 9.23222 12.9597C9.35123 12.908 9.48604 12.7872 9.54723 12.6774C9.59133 12.5983 9.59746 12.5667 9.59753 12.4175C9.59761 12.2733 9.59063 12.2342 9.55134 12.1587C9.49228 12.0452 9.37635 11.9356 9.2581 11.8815C9.14599 11.8302 8.91975 11.8151 8.8034 11.8512Z" fill="#410EAD"/>
</svg>
