<svg width="46" height="27" viewBox="0 0 46 27" fill="none" xmlns="http://www.w3.org/2000/svg">
<path fill-rule="evenodd" clip-rule="evenodd" d="M27.1933 0.100622C26.889 0.245351 26.8008 0.560786 26.8008 1.50347V2.38289H13.62H0.439057L0.218335 2.5998C0.00345935 2.8108 -0.002387 2.85198 0.000401261 4.12397C0.00246997 5.06859 0.0362888 5.47397 0.122365 5.5853C0.187844 5.67004 2.50372 6.99495 5.26877 8.52963C8.03382 10.0642 10.329 11.3513 10.3693 11.3897C10.4096 11.4282 10.2275 11.5287 9.96455 11.6131C7.64031 12.3596 5.68242 14.2588 4.89631 16.5291C4.58133 17.4388 4.47438 18.1219 4.48212 19.1737C4.49912 21.4683 5.3239 23.3059 7.04596 24.8858C9.85437 27.4623 14.0408 27.7094 17.226 25.4869C18.2879 24.7458 19.3097 23.5039 19.8387 22.3112L20.095 21.7331H23.706H27.3169L27.5546 22.2715C28.3094 23.9813 29.6841 25.3762 31.4329 26.2072C32.6378 26.7797 33.4572 26.9664 34.8058 26.9758C36.8376 26.9899 38.4265 26.4616 39.9392 25.2691C40.9543 24.4687 41.8739 23.2797 42.3283 22.1797L42.5311 21.6889L43.6962 21.6447C44.6758 21.6076 44.8915 21.5738 45.0504 21.4322C45.2382 21.2648 45.2392 21.2363 45.2392 15.9457C45.2392 10.6538 45.2383 10.6267 45.0502 10.4592C44.8849 10.312 44.6873 10.2873 43.4762 10.2626L42.0912 10.2342V7.19217V4.15003H43.5303C44.7812 4.15003 44.99 4.1298 45.1268 3.99532C45.2232 3.90051 45.4379 3.21636 45.6811 2.22862C46.115 0.466509 46.111 0.260019 45.6392 0.0838351C45.3123 -0.0382745 27.4511 -0.0221056 27.1933 0.100622ZM44.5197 1.36996C44.5197 1.39603 44.4338 1.75387 44.3287 2.16518L44.1378 2.91303H38.8561C33.6018 2.91303 33.5735 2.914 33.4031 3.09893C33.2424 3.27326 33.229 3.50158 33.1868 6.77556L33.1418 10.2664L32.3983 10.4772C29.9023 11.1848 27.9038 12.81 26.7484 15.0717L26.3735 15.8054L24.6155 14.7571C23.6486 14.1806 22.7812 13.6852 22.688 13.6561C22.5947 13.627 21.7802 13.7625 20.8779 13.9571C19.9756 14.1518 19.1725 14.3111 19.0934 14.3111C19.0142 14.3111 18.6418 14.0081 18.2655 13.6377C17.1701 12.5593 16.1059 11.9296 14.7053 11.5309C14.2813 11.4102 13.671 11.285 13.3489 11.2525C12.7857 11.1958 12.546 11.0729 7.07754 8.03713L1.39165 4.88066L1.36503 4.29449L1.33849 3.70824H3.90594H6.47347V5.07433C6.47347 6.36585 6.48418 6.45023 6.67036 6.62058C6.92184 6.85075 7.28432 6.85075 7.5358 6.62058C7.72198 6.45023 7.73269 6.36585 7.73269 5.07433V3.70824H8.76704H9.80139V5.72729C9.80139 6.97348 9.83944 7.85352 9.90078 8.02643C10.0699 8.50294 10.5724 8.62885 10.9424 8.28744C11.1491 8.09659 11.1505 8.08042 11.1505 5.9018V3.70824H12.1849H13.2193V6.6121C13.2193 9.41612 13.2256 9.524 13.4057 9.74878C13.6635 10.0708 14.1242 10.0708 14.382 9.74878C14.562 9.524 14.5684 9.41612 14.5684 6.6121V3.70824H15.6028H16.6371V7.17061C16.6371 10.6038 16.6387 10.6347 16.8327 10.8374C17.0714 11.087 17.4414 11.1017 17.7289 10.873L17.9413 10.7042L17.9668 7.20622L17.9922 3.70824H19.0236H20.055V7.97987C20.055 12.1484 20.0594 12.2554 20.236 12.4125C20.4682 12.6188 20.901 12.6188 21.1331 12.4125C21.3098 12.2554 21.3142 12.1484 21.3142 7.97987V3.70824H22.346H23.3779L23.4029 7.947C23.4278 12.1775 23.4282 12.1861 23.6252 12.3796C23.8919 12.6414 24.3472 12.6379 24.5662 12.3722C24.7223 12.1828 24.7321 11.9202 24.7321 7.93958V3.70824H25.7635H26.795L26.8204 7.3217C26.8443 10.7317 26.8554 10.9456 27.0171 11.1211C27.2673 11.3925 27.7268 11.3697 27.9635 11.0741C28.1469 10.8452 28.1499 10.7631 28.1499 6.08196V1.3226H36.3348C40.8365 1.3226 44.5197 1.3439 44.5197 1.36996ZM40.742 7.68432V10.2467H38.5384H36.3348V8.54297V6.83927L38.471 5.98512C39.6459 5.51533 40.6374 5.12894 40.6746 5.12646C40.7117 5.12399 40.742 6.27502 40.742 7.68432ZM43.98 15.9457V20.3194H43.4572H42.9343L42.9342 19.1487C42.9341 18.231 42.8914 17.8156 42.7367 17.2269C42.3387 15.7117 41.3374 14.1044 40.1937 13.1451C39.5578 12.6116 38.4863 11.9667 37.9394 11.7882C37.7 11.7101 37.5041 11.6295 37.5041 11.6091C37.5041 11.5887 38.9612 11.572 40.742 11.572H43.98V15.9457ZM13.9838 12.6778C15.3006 12.9515 16.8018 13.8646 17.6699 14.9201C18.6953 16.1668 19.1887 17.5429 19.1782 19.1266C19.1663 20.9231 18.5928 22.3346 17.352 23.6208C16.0566 24.9634 14.3427 25.7033 12.5184 25.7077C9.10945 25.7156 6.26049 23.2173 5.82615 19.8392C5.64095 18.3982 6.02483 16.7888 6.85564 15.5238C7.78917 14.1023 9.49585 12.9657 11.1955 12.6336C11.8 12.5155 13.3184 12.5395 13.9838 12.6778ZM37.0094 12.8431C39.2095 13.5806 40.8279 15.2808 41.4344 17.492C41.6512 18.282 41.6483 19.9758 41.429 20.7612C40.782 23.0781 38.963 24.8654 36.6046 25.5019C35.7005 25.7459 33.9754 25.7234 33.0968 25.4561C31.8942 25.0903 31.0663 24.6049 30.2186 23.7686C29.3555 22.9171 28.8858 22.1898 28.5331 21.1588C28.3142 20.519 28.2909 20.3263 28.288 19.1266C28.2852 17.9678 28.3113 17.7235 28.4949 17.1827C29.2211 15.0453 30.823 13.4653 32.9169 12.821C33.7522 12.5641 33.826 12.5561 35.1206 12.5802C36.1219 12.5988 36.3932 12.6366 37.0094 12.8431ZM11.6902 15.3189C10.1605 15.6572 9.07042 16.6853 8.68006 18.1577C8.19931 19.9709 9.10496 21.834 10.859 22.6404C11.9422 23.1383 13.4094 23.0694 14.4596 22.4714C16.2954 21.4259 16.9641 19.1571 15.9893 17.2803C15.4997 16.3374 14.3056 15.4914 13.1802 15.2901C12.5315 15.1741 12.327 15.1781 11.6902 15.3189ZM34.2259 15.2835C33.4922 15.4125 32.5411 15.93 32.0322 16.4769C30.0684 18.5877 30.9568 21.9186 33.7161 22.7901C34.242 22.9562 34.4959 22.9851 35.1567 22.9541C35.8563 22.9212 36.0442 22.875 36.6258 22.5926C37.4534 22.1908 38.1223 21.5211 38.5203 20.6957C38.7913 20.1337 38.808 20.0412 38.804 19.1266C38.7991 18.0044 38.6798 17.6332 38.0522 16.7865C37.2054 15.6441 35.6499 15.0331 34.2259 15.2835ZM13.6048 16.7759C14.0879 17.0057 14.6099 17.5025 14.8676 17.9779C15.158 18.5136 15.1445 19.6769 14.8412 20.2602C14.3844 21.1386 13.5011 21.6707 12.4997 21.6707C11.5087 21.6707 10.7116 21.2094 10.1829 20.3297C9.87658 19.82 9.79501 18.7739 10.0201 18.2423C10.5085 17.089 11.4528 16.4831 12.6514 16.5541C12.9729 16.5732 13.3752 16.6668 13.6048 16.7759ZM35.9851 16.7608C36.9425 17.1769 37.4343 17.9125 37.4889 19.0104C37.5177 19.5906 37.4901 19.7578 37.2999 20.159C36.8477 21.1129 35.9694 21.6681 34.904 21.6735C33.1357 21.6825 31.8947 20.0013 32.4285 18.3197C32.6458 17.6349 33.3986 16.8643 34.0497 16.6601C34.6099 16.4843 35.4494 16.5281 35.9851 16.7608Z" fill="black"/>
</svg>
