<svg width="39" height="50" viewBox="0 0 39 50" fill="none" xmlns="http://www.w3.org/2000/svg">
<path fill-rule="evenodd" clip-rule="evenodd" d="M3.0798 0.135261C1.56201 0.556247 0.36405 1.87203 0.0769397 3.43364C0.0156726 3.76685 -0.0119024 5.78831 0.00479796 8.72848L0.0317904 13.4843L0.261032 13.6709C0.556881 13.9117 0.864673 13.9075 1.17975 13.6584L1.43142 13.4593L1.45987 8.4595L1.48822 3.45971L1.71833 2.994C2.02195 2.37932 2.7023 1.78757 3.31633 1.60422C3.73675 1.47867 5.23435 1.45836 14.0069 1.45885C20.6507 1.45914 24.333 1.49409 24.5655 1.55912C25.1378 1.71884 25.8281 2.24654 26.1476 2.76848L26.4417 3.24892L26.4685 8.19922L26.4954 13.1495L25.7606 13.2595C25.3566 13.3199 24.984 13.3693 24.9327 13.3693C24.8753 13.3693 24.8396 12.1931 24.8396 10.2977C24.8396 7.26362 24.837 7.22369 24.6271 7.02706C24.416 6.82926 24.3467 6.82799 14.0059 6.82799C3.90239 6.82799 3.59052 6.83345 3.36808 7.01466L3.13884 7.20123L3.11369 23.8496L3.08864 40.498L3.3238 40.7728L3.55897 41.0478H13.9949C24.1211 41.0478 24.437 41.0422 24.6352 40.8618C24.8306 40.684 24.8396 40.5857 24.8396 38.6407C24.8396 37.4068 24.8763 36.6055 24.9327 36.6055C24.984 36.6055 25.3566 36.6549 25.7606 36.7154L26.4954 36.8253L26.4685 41.7756L26.4417 46.7259L26.1476 47.2064C25.8281 47.7283 25.1378 48.256 24.5655 48.4157C24.333 48.4807 20.6507 48.5157 14.0069 48.516C5.23435 48.5165 3.73675 48.4962 3.31633 48.3706C2.7023 48.1873 2.02195 47.5955 1.71833 46.9808L1.48822 46.5151L1.46249 31.1197L1.43676 15.7243L1.18237 15.5231C0.864867 15.2719 0.557561 15.267 0.261032 15.5086L0.0317904 15.6952L0.00664287 30.8585C-0.00966913 40.6819 0.0156728 46.2082 0.0786876 46.5511C0.372789 48.1508 1.55376 49.4154 3.14224 49.8314C3.99172 50.0539 24.0224 50.0573 24.8707 49.8351C26.1022 49.5125 26.9705 48.803 27.5325 47.6599L27.8981 46.9161L27.9257 41.8719L27.9533 36.8277L28.9484 36.6729C31.5725 36.2647 33.9131 35.0381 35.726 33.1208C37.6791 31.0554 38.7296 28.6411 38.9675 25.6708C39.0283 24.9113 39.0161 24.8182 38.8235 24.5725C38.6714 24.3785 38.5259 24.304 38.2989 24.304C37.7146 24.304 37.6377 24.4448 37.4941 25.7778C37.4226 26.4427 37.2741 27.3167 37.1643 27.72C36.9205 28.6158 36.2668 30.0273 35.7219 30.834C34.3751 32.8281 32.1911 34.3778 29.8331 35.0124C28.9822 35.2413 28.6811 35.2727 27.267 35.2788C25.8827 35.2849 25.5474 35.2547 24.8007 35.057C21.2978 34.1294 18.5076 31.5447 17.4613 28.2581C17.3416 27.8822 17.1638 27.4905 17.0662 27.3875C16.8268 27.1353 16.3384 27.1462 16.0764 27.4096C15.7864 27.7013 15.8216 28.0922 16.2348 29.1683C17.3411 32.0483 19.3988 34.2929 22.1695 35.6418C22.7035 35.9018 23.1951 36.1152 23.2618 36.116C23.3544 36.1171 23.3832 36.5348 23.3832 37.8752V39.6331L13.9892 39.6082L4.59527 39.5833L4.5707 23.9379L4.54614 8.29246H13.9647H23.3832V11.0749C23.3832 13.0845 23.3526 13.8574 23.2731 13.8574C23.0422 13.8574 21.3436 14.7306 20.6222 15.2201C19.1923 16.1902 17.7939 17.7227 16.9442 19.2503C16.1163 20.739 15.5553 22.7436 15.4986 24.4156C15.4644 25.4239 15.602 25.6708 16.1981 25.6708C16.7608 25.6708 16.8595 25.4821 16.9721 24.1903C17.2591 20.8975 18.9002 18.1208 21.6237 16.3194C23.2157 15.2665 24.8027 14.7591 26.7815 14.6704C29.8362 14.5334 32.6012 15.6548 34.7077 17.8848C35.7763 19.0162 36.4375 20.1223 37.0185 21.7501C37.2613 22.4305 37.3728 22.62 37.5924 22.7258C37.9554 22.9008 38.3739 22.7305 38.5337 22.3425C38.6364 22.0933 38.6118 21.9438 38.3389 21.1549C37.6934 19.2895 36.7474 17.8144 35.3171 16.4429C33.5274 14.727 31.248 13.6188 28.7988 13.2739L27.9517 13.1546L27.9249 8.10666L27.8981 3.05873L27.5325 2.31498C27.1441 1.52495 26.4871 0.829029 25.7944 0.473651C24.8417 -0.0150912 25.0494 -0.00679249 13.9203 0.00248249C5.83731 0.00931668 3.42779 0.0388014 3.0798 0.135261ZM9.94434 3.69392C9.70413 3.96085 9.71655 4.45457 9.96997 4.70929C10.1385 4.87878 10.3218 4.92769 10.8992 4.95698C11.7637 5.00091 12.2447 4.86257 12.3972 4.52623C12.5525 4.18335 12.538 4.06072 12.3072 3.76578C12.1133 3.5177 12.0705 3.50852 11.1086 3.50852C10.2521 3.50852 10.0877 3.53469 9.94434 3.69392ZM13.3824 3.70378C13.137 3.9505 13.1331 4.39492 13.3738 4.69367C13.5588 4.92339 13.5669 4.92418 15.7127 4.92418C17.8585 4.92418 17.8665 4.92339 18.0515 4.69367C18.2922 4.39492 18.2883 3.9505 18.043 3.70378C17.8605 3.52033 17.7193 3.50852 15.7127 3.50852C13.706 3.50852 13.5648 3.52033 13.3824 3.70378ZM13.0825 12.9662C12.921 13.0976 12.8581 13.2505 12.8581 13.511C12.8581 13.8454 12.9541 13.9687 14.1227 15.1344C15.2105 16.2193 15.4306 16.3959 15.6957 16.3959C16.099 16.3959 16.3923 16.0972 16.3923 15.6867C16.3923 15.4078 16.2314 15.2064 15.1046 14.0757C13.727 12.6935 13.542 12.5919 13.0825 12.9662ZM25.6649 16.4431C23.0202 16.9382 20.6919 18.7015 19.4752 21.131C19.3407 21.3995 19.1072 21.9926 18.9561 22.449C18.6967 23.2332 18.6816 23.3729 18.6816 24.9874C18.6816 26.6019 18.6967 26.7417 18.9561 27.5258C19.5542 29.3334 20.4948 30.7092 21.8748 31.795C24.7152 34.0296 28.6118 34.2888 31.6457 32.4445C35.4832 30.1118 36.937 25.3147 35.0279 21.2837C33.3357 17.7106 29.4967 15.7258 25.6649 16.4431ZM29.2575 18.0559C32.6363 19.121 34.8098 22.4217 34.3619 25.8067C33.9683 28.7803 32.0771 31.0278 29.2055 31.9345C28.1688 32.2618 26.2847 32.2617 25.228 31.9344C22.7894 31.1789 20.8888 29.2025 20.273 26.7816C20.0136 25.7615 20.0136 24.2133 20.273 23.1932C20.9599 20.4931 23.2436 18.3584 25.9818 17.8572C26.7751 17.712 28.4982 17.8165 29.2575 18.0559ZM9.63985 18.1C9.34274 18.3987 9.33545 18.7542 9.61994 19.0623C9.89424 19.3593 12.5473 20.4979 12.9626 20.4971C13.1798 20.4966 13.3308 20.4202 13.4724 20.2391C13.9551 19.6221 13.637 19.3026 11.737 18.4966C10.9122 18.1467 10.1565 17.8603 10.0577 17.8603C9.9589 17.8603 9.77093 17.9682 9.63985 18.1ZM26.9272 18.8494C26.5846 19.042 26.4902 19.2521 26.4902 19.8223V20.3801L25.9699 20.6753C24.2325 21.6613 24.2705 24.5101 26.0326 25.3679C26.2612 25.4792 26.8104 25.6337 27.2529 25.7114C28.201 25.8779 28.4726 26.0324 28.6231 26.4908C28.7419 26.8528 28.6404 27.4306 28.4063 27.7256C27.7746 28.5214 26.5666 28.3108 25.8033 27.2719C25.3491 26.6536 25.0418 26.5306 24.6613 26.815C24.3432 27.0526 24.2811 27.4913 24.5043 27.9249C24.7455 28.3942 25.5072 29.1156 26.029 29.3693L26.4902 29.5935V30.1137C26.4902 30.3999 26.5174 30.7052 26.5505 30.7921C26.6404 31.0274 27.1315 31.2493 27.4078 31.1795C27.7715 31.0877 27.8935 30.8724 27.9467 30.228C27.9921 29.6784 28.0142 29.6341 28.2865 29.5448C28.7459 29.3945 29.3414 28.9437 29.6254 28.5317C29.7688 28.3239 29.9587 27.8573 30.0476 27.4949C30.4553 25.8338 29.5226 24.6132 27.5891 24.2776C26.6148 24.1085 26.3362 23.9378 26.1991 23.4256C25.9698 22.5698 26.4248 21.869 27.2622 21.7881C27.8983 21.7266 28.1834 21.9151 28.4972 22.6042C28.7496 23.1586 28.9445 23.3277 29.3312 23.3277C29.6458 23.3277 29.9862 22.9423 29.9835 22.5892C29.9781 21.8643 29.2201 20.8465 28.4314 20.5054L27.9467 20.2956V19.7722C27.9467 19.1865 27.7636 18.8788 27.3641 18.7926C27.2306 18.7638 27.034 18.7894 26.9272 18.8494ZM8.29993 24.4826C8.06953 24.7386 8.09293 25.3054 8.34334 25.5337C8.52209 25.6965 8.7356 25.7236 10.0621 25.7512C11.798 25.7874 12.1422 25.7437 12.4118 25.4526C12.6604 25.1844 12.6579 24.8852 12.4043 24.5613L12.2032 24.304H10.3318C8.64239 24.304 8.44499 24.3214 8.29993 24.4826ZM11.1977 30.1182C9.70549 30.7659 9.40148 30.9824 9.40148 31.3975C9.40148 31.6905 9.80549 32.1145 10.0846 32.1145C10.3404 32.1145 13.2482 30.8686 13.4381 30.6778C13.8644 30.2491 13.5914 29.5446 12.9844 29.5067C12.7597 29.4927 12.1886 29.6882 11.1977 30.1182ZM14.2387 34.7261C12.7296 36.2102 12.5788 36.4899 13.0382 36.9516C13.1935 37.1079 13.3865 37.1913 13.5923 37.1913C13.8676 37.1913 14.068 37.0306 15.1503 35.9424C16.2902 34.7961 16.3923 34.664 16.3923 34.3353C16.3923 33.8996 16.093 33.579 15.6862 33.579C15.4582 33.579 15.1846 33.7958 14.2387 34.7261ZM13.5054 41.9858C11.3238 42.3911 10.4439 44.9981 11.9186 46.6871C12.9308 47.8462 14.8741 47.8889 15.9806 46.7762C16.78 45.9723 17.0251 44.6037 16.5518 43.5862C16.0206 42.4444 14.7187 41.7604 13.5054 41.9858ZM14.9694 43.8188C15.2159 44.0667 15.2694 44.2079 15.3052 44.7041C15.3467 45.2818 15.3397 45.3022 14.9718 45.6704C14.4736 46.1691 14.0123 46.2612 13.4304 45.9779C13.1123 45.823 12.9529 45.6615 12.7954 45.3345C12.5282 44.7794 12.5981 44.3327 13.0257 43.8636C13.5582 43.2792 14.4131 43.2595 14.9694 43.8188Z" fill="#0073A8"/>
</svg>
