<svg width="52" height="14" viewBox="0 0 52 14" fill="none" xmlns="http://www.w3.org/2000/svg">
<path d="M4.12165 10.8027C4.12165 11.2026 4.18504 11.5143 4.31188 11.7377C4.43871 11.9611 4.61485 12.1317 4.8403 12.2493C5.07984 12.3669 5.34052 12.4433 5.62236 12.4786C5.91825 12.5022 6.22827 12.5139 6.55238 12.5139V13.8194C6.36919 13.8429 6.18601 13.8605 6.00282 13.8723C5.84781 13.884 5.65758 13.8899 5.43213 13.8899C5.22077 13.9017 5.0094 13.9076 4.79804 13.9076C4.58664 13.9076 4.36823 13.9017 4.14278 13.8899C3.93142 13.8781 3.74823 13.8605 3.59323 13.837C3.11413 13.7664 2.74072 13.5959 2.47299 13.3254C2.20526 13.0431 2.00093 12.7374 1.86002 12.4081C1.73321 12.067 1.64866 11.7377 1.60639 11.4202C1.57821 11.1026 1.56411 10.8557 1.56411 10.6792V5.31632H0V3.86975H1.56411V1.04718H4.12165V3.86975H6.02395V5.31632H4.12165V10.8027ZM11.6252 10.8203C11.6252 11.3496 11.752 11.7436 12.0056 12.0023C12.2733 12.261 12.6538 12.4139 13.147 12.461V13.8899C13.0906 13.9017 12.999 13.9076 12.8722 13.9076C12.3931 13.9076 11.9281 13.8546 11.4772 13.7488C11.0404 13.6429 10.6529 13.4724 10.3147 13.2372C9.97649 13.002 9.70877 12.6903 9.5115 12.3022C9.32831 11.9141 9.2367 11.4378 9.2367 10.8733C9.2367 10.3323 9.37058 9.86776 9.63833 9.47963C9.92014 9.07978 10.2724 8.75636 10.6951 8.50937C11.132 8.25062 11.6252 8.06246 12.1747 7.94487C12.7243 7.8155 13.2808 7.75079 13.8445 7.75079H14.7745V9.00332H14.3095C14.0277 9.00332 13.7318 9.02684 13.4218 9.0739C13.1118 9.12094 12.8229 9.20913 12.5552 9.3385C12.2874 9.46788 12.062 9.65604 11.8788 9.90303C11.7097 10.1382 11.6252 10.444 11.6252 10.8203ZM18.1987 10.8733C18.1987 10.9674 18.2057 11.1085 18.2198 11.2967C18.2339 11.4731 18.2621 11.6554 18.3043 11.8436C18.3466 12.0317 18.41 12.2023 18.4946 12.3551C18.5932 12.508 18.72 12.608 18.875 12.655L18.1987 13.837C18.0155 13.837 17.8182 13.8017 17.6068 13.7311C17.4096 13.6606 17.2123 13.5606 17.015 13.4313C16.8318 13.3019 16.6698 13.1608 16.5289 13.0079C16.4021 12.8432 16.3034 12.6668 16.233 12.4786C16.092 12.7727 15.8102 13.0373 15.3875 13.2725C14.9788 13.4959 14.5209 13.6606 14.0136 13.7664V12.4257C14.3518 12.3669 14.6548 12.2552 14.9225 12.0905C15.2043 11.9141 15.4439 11.7083 15.6411 11.4731V7.75079C15.6411 7.17454 15.6059 6.71586 15.5354 6.3748C15.465 6.03375 15.3452 5.78676 15.1761 5.63386C15.007 5.46921 14.7956 5.36927 14.542 5.33396C14.3025 5.28693 14.0136 5.26341 13.6754 5.26341C13.3654 5.26341 13.0695 5.29868 12.7877 5.36927C12.5199 5.42806 12.2663 5.50449 12.0268 5.59859C11.8013 5.68093 11.597 5.775 11.4138 5.88085C11.2447 5.98668 11.1179 6.06902 11.0333 6.12781L10.0822 4.91059C10.2231 4.78122 10.4345 4.65184 10.7163 4.52247C10.9981 4.38134 11.3222 4.25787 11.6886 4.15201C12.0549 4.04616 12.4495 3.96385 12.8722 3.90506C13.3091 3.83447 13.76 3.7992 14.225 3.7992C14.6477 3.7992 15.0564 3.83447 15.4509 3.90506C15.8595 3.97561 16.2259 4.09322 16.55 4.25787C16.8882 4.42252 17.1771 4.64596 17.4166 4.92823C17.6702 5.19874 17.8464 5.5398 17.945 5.95141C18.0437 6.36305 18.107 6.78053 18.1353 7.20393C18.1775 7.61557 18.1987 8.02718 18.1987 8.43882V10.7322V10.8733ZM24.5185 3.86975L24.7933 4.87532V13.8194H22.2358V3.86975H24.5185ZM31.1132 4.96351C31.3527 5.16343 31.5359 5.39866 31.6627 5.66914C31.8036 5.92789 31.9023 6.20427 31.9586 6.4983C32.0291 6.78053 32.0714 7.06868 32.0855 7.3627C32.0995 7.65673 32.1066 7.94487 32.1066 8.22711V13.4665V13.8194H29.5279V8.40351C29.5279 8.00366 29.5068 7.62145 29.4645 7.25684C29.4222 6.89227 29.3236 6.56885 29.1686 6.28658C29.0136 6.00435 28.8022 5.78676 28.5345 5.63386C28.2668 5.46921 27.8933 5.38691 27.4143 5.38691C27.217 5.38691 26.9492 5.4163 26.611 5.47509C26.287 5.52216 25.9699 5.60447 25.6599 5.72208V4.3637C26.0403 4.19905 26.449 4.05791 26.8858 3.94033C27.3367 3.82272 27.7735 3.76392 28.1963 3.76392C28.8304 3.76392 29.3659 3.87563 29.8027 4.0991C30.2395 4.31079 30.6763 4.59893 31.1132 4.96351ZM46.0166 14C44.2276 14 42.9073 13.3798 42.0558 12.1394C41.2191 10.8989 40.8004 9.18883 40.8004 7.00903C40.8004 5.5398 40.9736 4.28129 41.3199 3.23355C41.6662 2.18581 42.2218 1.38494 42.9864 0.830968C43.7656 0.276989 44.7758 0 46.0166 0C47.8205 0 49.1479 0.614194 49.9991 1.84258C50.8648 3.05891 51.2977 4.78109 51.2977 7.00903C51.2977 8.46625 51.1175 9.71871 50.7566 10.7665C50.4103 11.8021 49.8476 12.603 49.0684 13.169C48.3038 13.723 47.2865 14 46.0166 14ZM42.7267 6.19613H49.3498C49.2777 4.55827 48.9818 3.34194 48.4624 2.5471C47.9429 1.74021 47.1279 1.33677 46.0166 1.33677C44.9202 1.33677 44.1119 1.74021 43.5925 2.5471C43.0876 3.34194 42.7991 4.55827 42.7267 6.19613ZM46.0166 12.6813C47.1421 12.6813 47.972 12.2718 48.5056 11.4529C49.0397 10.6219 49.3281 9.27915 49.3714 7.42452H42.7267C42.7558 9.2671 43.0226 10.6039 43.5275 11.4348C44.047 12.2658 44.8769 12.6813 46.0166 12.6813Z" fill="#410EAD"/>
</svg>
