<svg width="19" height="22" viewBox="0 0 19 22" fill="none" xmlns="http://www.w3.org/2000/svg">
<path d="M18.4284 17.0833L10.2009 21.8367C10.0274 21.9377 9.83027 21.9908 9.62955 21.9908C9.42882 21.9908 9.23168 21.9377 9.05819 21.8367L0.829175 17.0833C0.65564 16.9826 0.511389 16.8383 0.410674 16.6648C0.361288 16.5798 0.323127 16.4888 0.297145 16.394C0.270729 16.2973 0.2575 16.1974 0.257818 16.0972V6.59187C0.257775 6.49164 0.270999 6.39183 0.297145 6.29507C0.322922 6.20042 0.361095 6.10961 0.410674 6.02497C0.460238 5.94034 0.520601 5.86252 0.590244 5.79346C0.661682 5.72214 0.741982 5.6603 0.829175 5.60944L9.05745 0.855307C9.23094 0.754355 9.42808 0.701172 9.62881 0.701172C9.82953 0.701172 10.0267 0.754355 10.2002 0.855307L18.4284 5.60944C18.602 5.71015 18.7462 5.8544 18.8469 6.02794C18.8963 6.11293 18.9345 6.20397 18.9605 6.29878C18.9869 6.39549 19.0001 6.49533 18.9998 6.59558V16.1001C18.9971 16.2006 18.9817 16.3004 18.9538 16.3969C18.898 16.5873 18.7961 16.7609 18.657 16.9023C18.5878 16.9733 18.5097 17.0352 18.4247 17.0863L18.4284 17.0833Z" fill="#2E027B"/>
<path d="M9.61147 2.1459C9.56853 2.14601 9.52564 2.14899 9.4831 2.15481C9.44051 2.1606 9.39837 2.16928 9.35696 2.18078C9.3173 2.1913 9.27838 2.20444 9.24046 2.22011C9.20073 2.23737 9.1623 2.25745 9.12545 2.28021L2.01466 6.38581C1.9387 6.42812 1.86902 6.48081 1.80763 6.54238C1.74735 6.60324 1.69545 6.67187 1.65329 6.74644C1.56868 6.89421 1.52394 7.06144 1.52344 7.23172V15.437C1.52333 15.5239 1.53456 15.6105 1.55683 15.6945C1.57854 15.7763 1.61097 15.8549 1.65329 15.9282C1.69556 16.0014 1.74747 16.0685 1.80763 16.1278C1.86934 16.1884 1.93898 16.2403 2.01466 16.2822L9.12248 20.3848C9.15933 20.4075 9.19777 20.4276 9.23749 20.4449C9.27701 20.462 9.31767 20.4764 9.35918 20.4879C9.4006 20.4994 9.44274 20.5081 9.48533 20.5139C9.57052 20.5253 9.65687 20.5253 9.74207 20.5139C9.78465 20.5081 9.8268 20.4994 9.86821 20.4879C9.90972 20.4764 9.95038 20.462 9.9899 20.4449C10.0296 20.4276 10.0681 20.4075 10.1049 20.3848L17.2127 16.2822C17.2887 16.2399 17.3584 16.1872 17.4198 16.1256C17.4799 16.0652 17.5318 15.9971 17.5741 15.923C17.659 15.7748 17.7037 15.607 17.704 15.4362V7.23172C17.7041 7.1448 17.6928 7.05825 17.6706 6.97424C17.6489 6.89241 17.6164 6.81382 17.5741 6.7405C17.5318 6.66735 17.4799 6.60021 17.4198 6.5409C17.3581 6.48032 17.2884 6.4284 17.2127 6.38656L10.1057 2.28318C10.0689 2.2594 10.0305 2.23832 9.99064 2.22011C9.95113 2.20296 9.91046 2.18858 9.86895 2.17707C9.82754 2.16557 9.78539 2.15689 9.74281 2.1511C9.6992 2.14638 9.65532 2.14465 9.61147 2.1459ZM9.61147 2.48872C9.63953 2.4886 9.66756 2.49059 9.69532 2.49465C9.72352 2.50005 9.7513 2.50749 9.77843 2.51691C9.80521 2.52496 9.83147 2.53462 9.85708 2.54585C9.8828 2.55723 9.90754 2.57009 9.93128 2.58444L17.0391 6.68707C17.0875 6.7157 17.132 6.75063 17.1712 6.79096C17.2498 6.87167 17.3067 6.97097 17.3367 7.0796C17.3517 7.13423 17.3595 7.19063 17.3597 7.2473V15.4481C17.3595 15.5048 17.3517 15.5612 17.3367 15.6158C17.3067 15.7245 17.2498 15.8237 17.1712 15.9045C17.132 15.9448 17.0875 15.9797 17.0391 16.0083L9.93128 20.111C9.90556 20.1253 9.88082 20.1382 9.85708 20.1496C9.83147 20.1608 9.80521 20.1705 9.77843 20.1785C9.75192 20.1863 9.72489 20.1923 9.69754 20.1963C9.66978 20.2004 9.64175 20.2024 9.6137 20.2023C9.58515 20.2023 9.55663 20.2003 9.52836 20.1963C9.47232 20.1882 9.41765 20.1725 9.36586 20.1496C9.34023 20.1385 9.31544 20.1256 9.29166 20.111L2.18606 16.0083C2.13763 15.9797 2.09321 15.9448 2.05398 15.9045C1.97536 15.8237 1.91843 15.7245 1.88851 15.6158C1.87342 15.5612 1.86569 15.5048 1.86551 15.4481V7.24285C1.86569 7.18618 1.87342 7.12978 1.88851 7.07515C1.91843 6.96652 1.97536 6.86722 2.05398 6.78651C2.09321 6.74618 2.13763 6.71125 2.18606 6.68262L9.29388 2.58073C9.31938 2.56644 9.34564 2.55356 9.37254 2.54214C9.39924 2.53217 9.42649 2.52375 9.45416 2.51691C9.48135 2.5079 9.50912 2.50071 9.53727 2.4954C9.56181 2.4914 9.58661 2.48916 9.61147 2.48872ZM8.95701 9.64032H9.91718C9.92508 9.64109 9.93303 9.64109 9.94093 9.64032C9.94809 9.6389 9.95506 9.63666 9.9617 9.63364C9.96824 9.63084 9.97445 9.62736 9.98026 9.62325C9.98631 9.61875 9.99202 9.61379 9.99732 9.60841C10.1443 9.43497 10.2591 9.23671 10.3364 9.02296C10.4206 8.79824 10.484 8.56624 10.5256 8.32991C10.5646 8.11536 10.5921 7.89887 10.608 7.68138C10.6221 7.48994 10.6258 7.33115 10.6258 7.23098C10.6258 7.21648 10.6231 7.20212 10.6177 7.18868C10.6123 7.17525 10.6045 7.16293 10.5946 7.15232C10.5844 7.14131 10.572 7.13248 10.5583 7.12635C10.5436 7.11986 10.5276 7.11657 10.5115 7.1167H8.35968C8.34519 7.1167 8.33083 7.11947 8.31739 7.12487C8.30396 7.13024 8.29163 7.13804 8.28103 7.14787C8.27002 7.15812 8.26118 7.17049 8.25505 7.18423C8.24856 7.19895 8.24528 7.21489 8.24541 7.23098C8.24541 7.32818 8.24541 7.48475 8.26322 7.67619C8.27918 7.89293 8.30668 8.10867 8.34558 8.32249C8.38743 8.55951 8.45076 8.79223 8.5348 9.01776C8.61225 9.23394 8.72702 9.43486 8.8739 9.61138C8.8792 9.61676 8.88491 9.62172 8.89097 9.62622C8.89677 9.63033 8.90299 9.63381 8.90952 9.63661C8.91616 9.63963 8.92314 9.64187 8.93029 9.64329C8.93928 9.64328 8.94824 9.64228 8.95701 9.64032ZM8.69433 7.47139H10.2051C10.2196 7.47139 10.2339 7.47416 10.2474 7.47955C10.2608 7.48493 10.2731 7.49272 10.2837 7.50256C10.2948 7.51281 10.3036 7.52517 10.3097 7.53892C10.3162 7.55364 10.3195 7.56957 10.3194 7.58566C10.3194 7.6658 10.3194 7.7823 10.3045 7.91883C10.2919 8.07195 10.2711 8.22428 10.2422 8.37517C10.2114 8.54031 10.1662 8.70244 10.1071 8.85971C10.0521 9.01034 9.97316 9.15115 9.8734 9.27673L9.84966 9.29157L9.82814 9.30196C9.8212 9.30487 9.81399 9.30711 9.80662 9.30864C9.79872 9.30938 9.79077 9.30938 9.78288 9.30864H9.10838C9.10048 9.3094 9.09253 9.3094 9.08463 9.30864C9.07748 9.30722 9.0705 9.30498 9.06386 9.30196C9.05732 9.29916 9.05111 9.29568 9.04531 9.29157C9.03925 9.28706 9.03354 9.2821 9.02824 9.27673C8.92793 9.15356 8.84916 9.01433 8.79525 8.86491C8.73653 8.70714 8.69183 8.5445 8.66168 8.37888C8.63126 8.21638 8.61197 8.05759 8.60009 7.91957C8.58822 7.78156 8.58303 7.66432 8.58006 7.58492C8.58006 7.57043 8.58283 7.55607 8.58822 7.54262C8.5936 7.5292 8.60139 7.51687 8.61123 7.50627C8.6214 7.49587 8.63349 7.48755 8.64684 7.48178C8.66174 7.47493 8.67794 7.47138 8.69433 7.47139ZM9.65451 6.8889C9.67568 6.87566 9.69577 6.86077 9.71461 6.84438C9.75914 6.80722 9.79768 6.76342 9.82888 6.71453C9.86939 6.65116 9.89243 6.5782 9.89566 6.50305C9.89693 6.40107 9.86885 6.30088 9.81478 6.21441C9.7801 6.16141 9.74815 6.10668 9.71906 6.05042C9.69488 6.00434 9.67429 5.95646 9.65748 5.90721C9.64426 5.86994 9.63651 5.83095 9.63447 5.79145C9.63236 5.76328 9.63938 5.73518 9.65451 5.71132C9.61741 5.75732 9.57363 5.80333 9.53356 5.85378C9.49183 5.90372 9.45804 5.95978 9.43338 6.02C9.40742 6.08652 9.39998 6.15883 9.41187 6.22925C9.43107 6.32689 9.47105 6.41926 9.52911 6.50009C9.55347 6.52973 9.57346 6.56271 9.58847 6.59803C9.60537 6.63443 9.61927 6.67215 9.63002 6.71082C9.63997 6.74561 9.64741 6.78107 9.65228 6.81693C9.6561 6.84073 9.65684 6.86492 9.65451 6.8889ZM9.19742 6.92304C9.21252 6.91485 9.22692 6.90542 9.24046 6.89484C9.26959 6.86968 9.29462 6.84014 9.31466 6.80728C9.34137 6.76417 9.35622 6.71477 9.3577 6.66407C9.3577 6.59454 9.33816 6.5264 9.30131 6.46744C9.27709 6.43271 9.25504 6.39653 9.23526 6.3591C9.21866 6.32821 9.20475 6.29593 9.19371 6.26264C9.18543 6.23875 9.18093 6.21371 9.18036 6.18844C9.17981 6.16999 9.18616 6.152 9.19816 6.13798C9.17219 6.16914 9.14325 6.20105 9.11654 6.23444C9.08894 6.26807 9.0669 6.3059 9.05124 6.34649C9.03484 6.39185 9.03074 6.44075 9.03937 6.48821C9.053 6.55524 9.08001 6.61884 9.11877 6.6752C9.13417 6.69195 9.14648 6.71129 9.15513 6.73234C9.16537 6.75634 9.17356 6.78116 9.17961 6.80654C9.18571 6.83099 9.19042 6.85576 9.19371 6.88074C9.19572 6.89476 9.19696 6.90888 9.19742 6.92304ZM9.16626 9.17433H9.73761H9.75468L9.77175 9.16765L9.78881 9.15726L9.80588 9.14242C9.85542 9.0833 9.89823 9.01884 9.93351 8.95024C9.97054 8.87854 10.002 8.80412 10.0277 8.72763C10.0539 8.64945 10.076 8.56995 10.0938 8.48944C10.1116 8.40931 10.1264 8.32917 10.1376 8.252C10.1365 8.2582 10.1345 8.2642 10.1316 8.26981C10.1228 8.28712 10.1113 8.3029 10.0975 8.31655C10.072 8.34213 10.0433 8.36433 10.0122 8.38259C9.96115 8.41224 9.90749 8.43708 9.85188 8.4568C9.74791 8.49182 9.63999 8.51376 9.53059 8.52209C9.41759 8.53197 9.30412 8.53519 9.19074 8.53174C9.08463 8.53174 8.98966 8.52209 8.92139 8.51542C8.85312 8.50874 8.81157 8.50354 8.81157 8.50354C8.82567 8.56365 8.84199 8.62301 8.86129 8.68089C8.88058 8.73876 8.90136 8.79516 8.92436 8.84933C8.94748 8.90277 8.97374 8.95481 9.00301 9.00515C9.03099 9.05364 9.06249 9.10002 9.09725 9.14391C9.10037 9.14969 9.10466 9.15474 9.10986 9.15875C9.11529 9.16302 9.12128 9.16652 9.12767 9.16914C9.1341 9.17204 9.14082 9.17428 9.14771 9.17581L9.16626 9.17433ZM4.86253 12.3858V10.1004H4.43958L3.7495 11.1741L3.04903 10.1004H2.62608V12.4006H3.02603V10.7682L3.73466 11.8308H3.7495L4.46926 10.7563V12.3888L4.86253 12.3858ZM7.42251 10.1456C7.38541 10.1313 7.34756 10.1184 7.30898 10.1071C7.27039 10.0957 7.23107 10.086 7.191 10.0781C7.15093 10.0702 7.11012 10.0643 7.06856 10.0603C7.02701 10.0563 6.98496 10.0544 6.94242 10.0544C6.89938 10.0544 6.85709 10.0544 6.81628 10.0588C6.77546 10.0633 6.73391 10.067 6.69384 10.0744C6.65399 10.0814 6.61459 10.0908 6.57586 10.1026C6.53708 10.1143 6.49915 10.1287 6.46233 10.1456C6.42576 10.1598 6.39008 10.1761 6.35548 10.1946C6.32152 10.2126 6.28857 10.2324 6.25679 10.254C6.22563 10.2755 6.1952 10.2985 6.16701 10.3222C6.13881 10.346 6.11136 10.3712 6.08538 10.3964C6.05746 10.4243 6.03096 10.4535 6.00599 10.484C5.98194 10.5135 5.9594 10.5442 5.93846 10.576C5.91769 10.6077 5.89864 10.6398 5.88133 10.6725C5.86402 10.7051 5.84819 10.7388 5.83384 10.7734C5.81949 10.8105 5.80663 10.8476 5.79525 10.8847C5.78388 10.9218 5.77423 10.9594 5.76632 10.9975C5.7584 11.0356 5.75246 11.0739 5.74851 11.1125C5.74445 11.1517 5.74247 11.1911 5.74257 11.2305V11.2416C5.7425 11.2815 5.74448 11.3214 5.74851 11.3611C5.75296 11.4004 5.7589 11.4397 5.76632 11.4783C5.77374 11.5169 5.78412 11.5525 5.79525 11.5918C5.80639 11.6312 5.819 11.666 5.83384 11.6987C5.84868 11.7313 5.86352 11.7729 5.88133 11.8055C5.89817 11.8394 5.91675 11.8723 5.93698 11.9042C5.95687 11.9353 5.97842 11.9653 6.00154 11.994C6.02473 12.0226 6.0495 12.0498 6.07574 12.0756C6.10171 12.1016 6.12842 12.1261 6.15736 12.1498C6.1863 12.1736 6.21598 12.1966 6.24715 12.2181C6.27893 12.2397 6.31187 12.2595 6.34583 12.2775C6.38043 12.2959 6.41611 12.3123 6.45269 12.3264C6.48979 12.3408 6.52763 12.3536 6.56621 12.365C6.6048 12.3764 6.64413 12.386 6.6842 12.394C6.72427 12.4019 6.76508 12.4078 6.80663 12.4118C6.84818 12.4157 6.89023 12.4177 6.93277 12.4177C6.97581 12.4177 7.01811 12.4177 7.05892 12.4133C7.09973 12.4088 7.14128 12.4051 7.18135 12.3977C7.22121 12.3906 7.2606 12.3812 7.29933 12.3695C7.33811 12.3577 7.37604 12.3433 7.41286 12.3264C7.44943 12.3123 7.48512 12.2959 7.51971 12.2775C7.55367 12.2595 7.58662 12.2397 7.6184 12.2181C7.64957 12.1966 7.67999 12.1736 7.70819 12.1498C7.73638 12.1261 7.76384 12.1009 7.78981 12.0756C7.81773 12.0478 7.84423 12.0186 7.8692 11.9881C7.89325 11.9586 7.91579 11.9279 7.93673 11.8961C7.9575 11.8644 7.97655 11.8323 7.99386 11.7996C8.01118 11.767 8.02701 11.7333 8.04135 11.6987C8.0557 11.6616 8.06856 11.6245 8.07994 11.5874C8.09132 11.5503 8.10096 11.5127 8.10888 11.4746C8.11679 11.4365 8.12273 11.3982 8.12669 11.3596C8.13074 11.3204 8.13273 11.281 8.13262 11.2416V11.2305C8.1327 11.1906 8.13072 11.1507 8.12669 11.111C8.12223 11.0717 8.1163 11.0324 8.10888 10.9938C8.10146 10.9552 8.09107 10.9196 8.07994 10.8802C8.06881 10.8409 8.05619 10.806 8.04135 10.7734C8.02651 10.7407 8.01167 10.6992 7.99386 10.6665C7.97702 10.6327 7.95845 10.5998 7.93821 10.5678C7.91833 10.5368 7.89678 10.5068 7.87366 10.4781C7.85046 10.4495 7.82569 10.4222 7.79945 10.3964C7.77348 10.3705 7.74677 10.346 7.71783 10.3222C7.68889 10.2985 7.65921 10.2755 7.62805 10.254C7.59627 10.2324 7.56332 10.2126 7.52936 10.1946C7.49573 10.1763 7.46104 10.1599 7.42548 10.1456H7.42251ZM7.69705 11.2542C7.69681 11.279 7.69533 11.3038 7.6926 11.3284C7.6926 11.3544 7.68593 11.3796 7.68073 11.4026C7.67554 11.4256 7.6696 11.4538 7.66292 11.4768C7.65624 11.4998 7.64808 11.528 7.63918 11.551L7.6043 11.6193C7.59243 11.6416 7.58056 11.6638 7.5672 11.6853C7.55463 11.7065 7.54101 11.7271 7.52639 11.7469C7.51193 11.7666 7.49606 11.7852 7.4789 11.8026C7.46159 11.8199 7.44378 11.8362 7.42548 11.8515C7.40717 11.8669 7.38788 11.882 7.3676 11.8968C7.34781 11.9112 7.32703 11.9248 7.30527 11.9376C7.2835 11.9505 7.26124 11.9626 7.23849 11.974C7.21442 11.9855 7.18963 11.9954 7.16428 12.0037C7.14 12.0123 7.11522 12.0195 7.09008 12.0252C7.06388 12.0309 7.03737 12.0351 7.01069 12.0378C6.98283 12.0407 6.95485 12.0422 6.92684 12.0422C6.90056 12.0422 6.8743 12.0407 6.84818 12.0378C6.82127 12.035 6.79452 12.0308 6.76804 12.0252C6.74293 12.0194 6.71816 12.0122 6.69384 12.0037C6.66845 11.9955 6.64366 11.9856 6.61964 11.974C6.59688 11.9626 6.57462 11.9505 6.55286 11.9376C6.53109 11.9248 6.5118 11.9151 6.49498 11.9087C6.47519 11.8943 6.4559 11.8792 6.4371 11.8634C6.41831 11.8476 6.4005 11.8313 6.38368 11.8144C6.36661 11.7944 6.35029 11.7744 6.3347 11.7543C6.31912 11.7343 6.30428 11.7135 6.29093 11.692C6.27731 11.6705 6.26492 11.6482 6.25382 11.6252C6.24232 11.6012 6.23241 11.5764 6.22414 11.551C6.21524 11.5251 6.20782 11.4998 6.2004 11.4768C6.19298 11.4538 6.18704 11.4249 6.18259 11.3982C6.17814 11.3715 6.17369 11.3447 6.17072 11.3173C6.16775 11.2898 6.16627 11.2624 6.16627 11.2334V11.2223C6.16651 11.1975 6.16799 11.1728 6.17072 11.1481C6.17072 11.1221 6.1774 11.0969 6.18259 11.0739C6.18778 11.0509 6.19372 11.0227 6.2004 10.9997C6.20708 10.9767 6.21524 10.9485 6.22414 10.9255L6.25902 10.8572C6.27089 10.835 6.28276 10.8127 6.29612 10.7912C6.30869 10.77 6.32231 10.7494 6.33693 10.7296C6.35139 10.7099 6.36726 10.6913 6.38442 10.674C6.40173 10.6566 6.41954 10.6403 6.43785 10.625C6.45615 10.6096 6.47544 10.5946 6.49572 10.5797C6.51551 10.5654 6.53629 10.5518 6.55805 10.5389C6.57982 10.526 6.60208 10.5139 6.62483 10.5025C6.6489 10.4911 6.67369 10.4812 6.69904 10.4729C6.72332 10.4642 6.7481 10.457 6.77324 10.4513C6.79944 10.4456 6.82595 10.4414 6.85263 10.4387C6.90814 10.433 6.96408 10.433 7.01959 10.4387C7.04627 10.4414 7.07278 10.4456 7.09899 10.4513C7.12413 10.457 7.1489 10.4642 7.17319 10.4729C7.19854 10.4812 7.22332 10.4911 7.24739 10.5025C7.27015 10.5139 7.29241 10.526 7.31417 10.5389C7.33594 10.5518 7.35671 10.5654 7.3765 10.5797C7.39629 10.5941 7.41558 10.6092 7.43438 10.625C7.45318 10.6408 7.47099 10.6571 7.48781 10.674C7.50487 10.694 7.5212 10.714 7.53678 10.7341C7.55236 10.7541 7.5672 10.7749 7.58056 10.7964C7.59418 10.8179 7.60657 10.8402 7.61766 10.8632C7.62917 10.8872 7.63908 10.912 7.64734 10.9374C7.65624 10.9633 7.66366 10.9886 7.67108 11.0116C7.6785 11.0346 7.68444 11.0635 7.68889 11.0902C7.69335 11.1169 7.6978 11.1437 7.70077 11.1711C7.70373 11.1986 7.70522 11.226 7.70522 11.255L7.69705 11.2542ZM9.38812 10.9114L9.423 10.8431C9.43487 10.8209 9.44674 10.7986 9.4601 10.7771C9.47267 10.7559 9.48629 10.7353 9.50091 10.7155C9.51537 10.6958 9.53124 10.6772 9.5484 10.6599C9.56571 10.6425 9.58352 10.6262 9.60182 10.6109C9.62013 10.5955 9.63942 10.5805 9.6597 10.5656C9.67949 10.5513 9.70026 10.5377 9.72203 10.5248C9.7438 10.5119 9.76581 10.4998 9.78807 10.4885C9.81051 10.4773 9.83355 10.4674 9.85708 10.4588C9.88133 10.45 9.90611 10.4428 9.93128 10.4373C9.95574 10.4316 9.98052 10.4274 10.0055 10.4246C10.0326 10.4217 10.0598 10.4202 10.0871 10.4202C10.1212 10.4202 10.1539 10.4202 10.1858 10.4246C10.2165 10.4275 10.247 10.4322 10.2771 10.4387C10.3058 10.4449 10.3341 10.4531 10.3617 10.4632C10.389 10.4733 10.4155 10.4855 10.441 10.4996C10.4668 10.5139 10.4915 10.529 10.5153 10.5448C10.539 10.5607 10.5637 10.577 10.5895 10.5938C10.6132 10.6111 10.6364 10.6289 10.6592 10.6472C10.682 10.6655 10.705 10.6848 10.7282 10.7051L10.9909 10.4083L10.9471 10.3675L10.9041 10.3297L10.861 10.294L10.818 10.2599C10.8039 10.2488 10.7891 10.2376 10.7735 10.2273C10.7579 10.2169 10.7416 10.2072 10.7252 10.1983L10.6748 10.1716L10.6236 10.1456L10.565 10.1286L10.5078 10.1115L10.4485 10.0944L10.3839 10.0774L10.3149 10.0692L10.2452 10.0618L10.171 10.0566H10.0968C10.0507 10.0566 10.0077 10.0566 9.96541 10.0625C9.92312 10.0685 9.88305 10.0729 9.84372 10.0803C9.8044 10.0878 9.76952 10.0981 9.72871 10.1093C9.6879 10.1204 9.65451 10.133 9.61666 10.1479C9.58009 10.162 9.54441 10.1784 9.50981 10.1968C9.47585 10.2148 9.44291 10.2346 9.41112 10.2562C9.37996 10.2777 9.34954 10.3007 9.32134 10.3245C9.29314 10.3482 9.26569 10.3734 9.23972 10.3987C9.21375 10.4239 9.19 10.4565 9.16551 10.4862C9.14103 10.5159 9.12099 10.5471 9.10096 10.5782C9.08092 10.6094 9.06237 10.642 9.04531 10.6747C9.02824 10.7073 9.01266 10.7415 8.99782 10.7756C8.98298 10.8097 8.97036 10.8454 8.95923 10.8825C8.9481 10.9196 8.93846 10.9567 8.93029 10.996C8.92213 11.0353 8.9162 11.0702 8.91249 11.1132C8.90846 11.1529 8.90648 11.1928 8.90655 11.2327V11.2438C8.90645 11.2832 8.90843 11.3226 8.91249 11.3618C8.91644 11.4004 8.92238 11.4387 8.93029 11.4768C8.93821 11.5149 8.94786 11.5525 8.95923 11.5896C8.97061 11.6267 8.98347 11.6638 8.99782 11.7009C9.01216 11.738 9.02799 11.7736 9.04531 11.8078C9.06215 11.8416 9.08072 11.8745 9.10096 11.9065C9.12084 11.9375 9.14239 11.9675 9.16551 11.9962C9.18871 12.0248 9.21348 12.0521 9.23972 12.0779C9.26569 12.1038 9.2924 12.1283 9.3206 12.1521C9.34879 12.1758 9.37848 12.1988 9.40964 12.2203C9.44028 12.2417 9.47198 12.2615 9.50462 12.2797C9.53706 12.2979 9.5705 12.3142 9.60479 12.3287C9.63892 12.343 9.67405 12.3559 9.71016 12.3672C9.74627 12.3786 9.78312 12.3883 9.82072 12.3962C9.85947 12.4041 9.8986 12.4101 9.93796 12.414C9.97938 12.4181 10.021 12.4201 10.0626 12.4199H10.1368H10.211C10.237 12.4199 10.2622 12.4199 10.2852 12.4133C10.3082 12.4066 10.3364 12.4058 10.3594 12.3999C10.3802 12.3968 10.4007 12.3926 10.421 12.3873C10.4418 12.3821 10.4633 12.3754 10.4833 12.368C10.5034 12.3606 10.5242 12.3532 10.5442 12.345L10.5991 12.3198L10.6503 12.2938L10.7015 12.2656C10.7186 12.2559 10.7356 12.2448 10.7527 12.2329C10.7698 12.2211 10.7868 12.2085 10.8039 12.1944L10.8536 12.1528L10.8996 12.1127C10.9145 12.0994 10.9293 12.0853 10.9434 12.0704C10.9575 12.0556 10.9723 12.04 10.9864 12.023L10.7238 11.7603C10.698 11.783 10.6733 11.8045 10.6496 11.8248C10.6258 11.8451 10.6011 11.8642 10.5754 11.882L10.5012 11.9324L10.427 11.9777C10.4035 11.9922 10.3786 12.0044 10.3527 12.014C10.325 12.0244 10.2964 12.0325 10.2674 12.0385C10.2363 12.0451 10.2048 12.0498 10.1732 12.0526C10.1405 12.0526 10.1071 12.0571 10.073 12.0571C10.0482 12.0568 10.0234 12.0549 9.99881 12.0511C9.97382 12.0472 9.94905 12.042 9.9246 12.0356C9.89937 12.0289 9.87489 12.0215 9.8504 12.0133L9.7762 11.9881C9.75336 11.9792 9.73127 11.9686 9.71016 11.9562C9.68856 11.9436 9.66774 11.9297 9.64783 11.9146C9.62779 11.8998 9.6085 11.8835 9.58995 11.8671C9.5714 11.8508 9.55359 11.8337 9.53653 11.8159C9.51946 11.7981 9.50313 11.7759 9.48755 11.7558C9.47197 11.7358 9.45713 11.715 9.44377 11.6935C9.43015 11.672 9.41777 11.6497 9.40667 11.6267C9.39516 11.6027 9.38525 11.5779 9.37699 11.5525C9.36809 11.5265 9.36067 11.5013 9.35325 11.4783C9.34583 11.4553 9.33989 11.4264 9.33544 11.3997C9.33099 11.3729 9.32653 11.3462 9.32357 11.3188C9.3206 11.2913 9.31911 11.2639 9.31911 11.2349V11.2238C9.31936 11.199 9.32084 11.1742 9.32357 11.1496C9.32357 11.1236 9.33024 11.0984 9.33544 11.0754C9.34063 11.0524 9.34657 11.0242 9.35325 11.0012C9.35992 10.9782 9.38293 10.9374 9.38886 10.9114H9.38812ZM11.7997 10.1004V12.3858H12.1996V11.4256H13.2971V12.3858H13.697V10.1004H13.2971V11.0502H12.2026V10.1004H11.7997ZM16.188 11.8374L16.4165 12.3858H16.8395L15.837 10.0855H15.4734L14.468 12.3858H14.8798L15.1195 11.8374H16.188ZM15.6508 10.5686L16.0396 11.4828H15.2657L15.6508 10.5686ZM2.33966 13.231H16.9107V13.1056H2.33966V13.231ZM10.7171 8.80851C10.7177 8.81939 10.7177 8.83029 10.7171 8.84116C10.7171 8.85155 10.7171 8.8612 10.7134 8.87159C10.7097 8.88197 10.7134 8.89162 10.7097 8.90201C10.7091 8.91288 10.7091 8.92378 10.7097 8.93466H16.9152V8.80851H10.7171ZM8.16898 8.80851H2.33966V8.93392H8.17937C8.17994 8.92304 8.17994 8.91214 8.17937 8.90127C8.17937 8.89088 8.17937 8.88123 8.17566 8.87084C8.17195 8.86046 8.17566 8.85081 8.17195 8.84042C8.17041 8.82984 8.16942 8.81919 8.16898 8.80851Z" fill="white"/>
</svg>
