<svg width="51" height="51" viewBox="0 0 51 51" fill="none" xmlns="http://www.w3.org/2000/svg">
<path d="M0 31.8029C1.59156 29.0469 3.19002 26.291 4.76091 23.535C4.91139 23.2282 5.14942 22.9728 5.44495 22.8011C5.74048 22.6294 6.08026 22.5492 6.42137 22.5704C9.3978 22.5704 12.3834 22.5704 15.3782 22.5704C15.7112 22.5502 16.0426 22.6291 16.3308 22.7971C16.619 22.9651 16.8509 23.2147 16.9973 23.5144C18.2995 25.7949 19.6293 28.0686 20.9315 30.3491C20.9846 30.4718 21.0753 30.5745 21.1903 30.6426C21.3054 30.7106 21.4391 30.7406 21.5722 30.7281C23.8665 30.7281 26.154 30.7281 28.4621 30.7281C28.5954 30.7417 28.7295 30.7122 28.8448 30.644C28.9601 30.5758 29.0505 30.4725 29.1029 30.3491C30.3982 28.0824 31.721 25.8294 33.0094 23.5557C33.1613 23.2411 33.4039 22.9791 33.706 22.8035C34.008 22.6279 34.3557 22.5467 34.7043 22.5704C37.667 22.5704 40.6227 22.5704 43.5785 22.5704C43.9195 22.5501 44.2589 22.6307 44.5542 22.8023C44.8496 22.9739 45.0877 23.2288 45.239 23.535C46.8098 26.291 48.4083 29.0469 49.9999 31.8029V32.5814C49.8827 32.795 49.7587 33.0017 49.6416 33.2084C48.1878 35.7232 46.7203 38.2311 45.2941 40.7873C45.1269 41.1294 44.8608 41.4134 44.5304 41.6026C44.2 41.7917 43.8203 41.8774 43.4407 41.8483C40.8914 41.8483 38.3422 41.8483 35.786 41.8483C35.6219 41.8362 35.4581 41.8746 35.3164 41.9584C35.1748 42.0421 35.0622 42.1672 34.9937 42.3168C33.7535 44.5078 32.4789 46.6781 31.2387 48.8622C30.9974 49.3599 30.5941 49.7608 30.095 49.9991H19.9049C19.4073 49.7585 19.0047 49.3583 18.7611 48.8622C17.521 46.6781 16.2463 44.5078 15.0062 42.3168C14.9377 42.1672 14.8251 42.0421 14.6834 41.9584C14.5418 41.8746 14.3779 41.8362 14.2138 41.8483C11.6439 41.8483 9.07397 41.8483 6.51093 41.8483C6.14677 41.8748 5.78301 41.7918 5.4663 41.6102C5.14959 41.4285 4.89436 41.1563 4.73335 40.8286C3.17624 38.0727 1.57778 35.3512 0 32.609V31.8029ZM39.0518 38.8857C40.2024 38.8857 41.3599 38.8857 42.4968 38.8857C42.63 38.8993 42.7642 38.8698 42.8795 38.8016C42.9948 38.7334 43.0852 38.6301 43.1375 38.5067C44.2767 36.5133 45.425 34.529 46.5825 32.5539C46.6506 32.4519 46.687 32.332 46.687 32.2094C46.687 32.0868 46.6506 31.9669 46.5825 31.8649C45.4204 29.876 44.2721 27.878 43.1375 25.8707C43.0899 25.7624 43.0102 25.6713 42.9091 25.6098C42.8081 25.5482 42.6907 25.519 42.5726 25.5262C40.2438 25.5262 37.9219 25.5262 35.5931 25.5262C35.4822 25.5367 35.3749 25.5711 35.2786 25.627C35.1823 25.6829 35.0992 25.759 35.035 25.85C33.8638 27.8412 32.7269 29.8393 31.5901 31.8373C31.5192 31.9382 31.4812 32.0585 31.4812 32.1818C31.4812 32.3051 31.5192 32.4254 31.5901 32.5263C32.7522 34.5152 33.9005 36.5133 35.035 38.5205C35.0885 38.6352 35.1761 38.7305 35.2859 38.7934C35.3957 38.8564 35.5223 38.8838 35.6482 38.8719C36.7782 38.8719 37.915 38.8857 39.0518 38.8857ZM24.9896 47.0226C26.1264 47.0226 27.2633 47.0226 28.4001 47.0226C28.534 47.0404 28.67 47.0144 28.7879 46.9486C28.9059 46.8828 28.9994 46.7807 29.0546 46.6575C30.1892 44.6548 31.3375 42.659 32.4996 40.6702C32.5665 40.5742 32.6025 40.4599 32.6025 40.3429C32.6025 40.2258 32.5665 40.1116 32.4996 40.0156C31.3283 38.013 30.1685 36.0034 29.0202 33.987C28.9725 33.8787 28.8928 33.7876 28.7918 33.726C28.6908 33.6644 28.5733 33.6353 28.4552 33.6425C26.131 33.6425 23.8091 33.6425 21.4895 33.6425C21.3716 33.6306 21.2529 33.6562 21.1502 33.7156C21.0476 33.7749 20.9662 33.865 20.9177 33.9732C19.7694 35.985 18.621 37.9946 17.4727 40.0018C17.3956 40.1001 17.3537 40.2214 17.3537 40.3463C17.3537 40.4713 17.3956 40.5926 17.4727 40.6908C18.644 42.6889 19.8038 44.6984 20.9521 46.7195C21.0052 46.8336 21.0933 46.9278 21.2035 46.9885C21.3138 47.0492 21.4405 47.0732 21.5653 47.0571C22.6815 47.0157 23.839 47.0226 24.9896 47.0226ZM10.8722 25.5193C9.72162 25.5193 8.56412 25.5193 7.42729 25.5193C7.30039 25.507 7.17283 25.535 7.06274 25.5993C6.95266 25.6636 6.86565 25.761 6.81409 25.8776C5.67037 27.8757 4.50598 29.8668 3.36915 31.8787C3.32311 31.9804 3.29929 32.0908 3.29929 32.2025C3.29929 32.3142 3.32311 32.4246 3.36915 32.5263C4.50368 34.5474 5.652 36.5569 6.81409 38.555C6.88086 38.645 6.96551 38.7202 7.06274 38.7759C7.15996 38.8316 7.26766 38.8667 7.37906 38.8788C9.68717 38.8788 11.9953 38.8788 14.2689 38.8788C14.3963 38.8885 14.5236 38.8586 14.6333 38.7933C14.7431 38.7279 14.83 38.6302 14.8821 38.5136C16.0259 36.5156 17.1742 34.5198 18.3271 32.5263C18.4009 32.4267 18.4408 32.3059 18.4408 32.1818C18.4408 32.0578 18.4009 31.937 18.3271 31.8373C17.1558 29.8324 16.0052 27.8137 14.827 25.8156C14.7605 25.7259 14.6758 25.6514 14.5784 25.5967C14.481 25.5421 14.3732 25.5087 14.262 25.4986C13.1872 25.5055 12.0573 25.5193 10.8722 25.5193Z" fill="#410EAD"/>
<path d="M30.0472 0C30.5463 0.238305 30.9496 0.639171 31.1909 1.13683C32.6148 3.63556 34.0525 6.1251 35.504 8.60546C35.7028 8.90328 35.8088 9.25332 35.8088 9.61138C35.8088 9.96944 35.7028 10.3195 35.504 10.6173C34.025 13.1528 32.5551 15.6974 31.0945 18.2513C30.9419 18.5664 30.6979 18.8283 30.3944 19.0028C30.0908 19.1773 29.7418 19.2564 29.3927 19.2297C28.435 19.2297 27.4773 19.2297 26.4851 19.2297V22.6746C26.6505 22.5161 26.7814 22.3921 26.9261 22.2681C27.1972 22.0178 27.5527 21.8787 27.9217 21.8787C28.2907 21.8787 28.6462 22.0178 28.9173 22.2681C29.0567 22.3945 29.1694 22.5475 29.2489 22.7181C29.3284 22.8887 29.373 23.0734 29.38 23.2615C29.3871 23.4496 29.3565 23.6372 29.29 23.8132C29.2236 23.9893 29.1226 24.1503 28.993 24.2868C28.0009 25.3203 26.9904 26.3331 25.9615 27.3253C25.6846 27.5856 25.3157 27.7254 24.9358 27.7137C24.556 27.7021 24.1963 27.5401 23.9359 27.2633C22.9529 26.3125 21.9792 25.3571 21.0146 24.3971C20.8762 24.2628 20.7662 24.1022 20.6911 23.9247C20.616 23.7471 20.5773 23.5563 20.5773 23.3636C20.5773 23.1708 20.616 22.98 20.6911 22.8025C20.7662 22.625 20.8762 22.4643 21.0146 22.3301C21.2894 22.0575 21.6609 21.9045 22.0481 21.9045C22.4352 21.9045 22.8067 22.0575 23.0815 22.3301L23.4536 22.6815V19.2365C22.5028 19.2365 21.5451 19.2365 20.5943 19.2365C20.2293 19.2688 19.8631 19.1883 19.5453 19.006C19.2274 18.8236 18.9731 18.5482 18.8167 18.2168C17.3767 15.6745 15.9092 13.1459 14.4347 10.638C14.236 10.3402 14.1299 9.99011 14.1299 9.63205C14.1299 9.27399 14.236 8.92395 14.4347 8.62613C15.8908 6.14577 17.3285 3.65623 18.7478 1.1575C18.9913 0.661431 19.394 0.261206 19.8915 0.0206688L30.0472 0ZM24.9831 2.9282C23.8119 2.9282 22.6406 2.9282 21.4693 2.9282C21.3601 2.91576 21.2498 2.93844 21.1544 2.99296C21.059 3.04747 20.9835 3.13098 20.9388 3.23136C19.7813 5.26157 18.6123 7.28719 17.4318 9.30822C17.3664 9.39704 17.331 9.50449 17.331 9.61483C17.331 9.72517 17.3664 9.8326 17.4318 9.92142C18.6077 11.9333 19.7767 13.9566 20.9388 15.9914C20.9818 16.0925 21.0555 16.1775 21.1495 16.2344C21.2434 16.2912 21.3529 16.3171 21.4624 16.3083C23.805 16.3083 26.1406 16.3083 28.4832 16.3083C28.5929 16.3181 28.7029 16.2935 28.7979 16.2379C28.893 16.1824 28.9684 16.0986 29.0137 15.9983C30.1712 13.9635 31.3379 11.9402 32.5138 9.92832C32.5773 9.83868 32.6113 9.73155 32.6113 9.62171C32.6113 9.51188 32.5773 9.40476 32.5138 9.31512C31.3287 7.29868 30.1597 5.27305 29.0068 3.23824C28.9539 3.13338 28.8699 3.04736 28.7664 2.99189C28.6628 2.93641 28.5447 2.91418 28.4281 2.9282C27.2912 2.93509 26.1337 2.9282 24.9831 2.9282Z" fill="#410EAD"/>
<path d="M1 32.8032C2.59157 30.0472 4.19003 27.2911 5.76092 24.5351C5.9114 24.2282 6.14944 23.9728 6.44497 23.8011C6.7405 23.6294 7.08027 23.5492 7.42139 23.5704C10.3978 23.5704 13.3834 23.5704 16.3783 23.5704C16.7112 23.5502 17.0427 23.6291 17.3309 23.7971C17.619 23.9651 17.851 24.2147 17.9974 24.5144C19.2996 26.795 20.6293 29.0688 21.9315 31.3494C21.9847 31.4721 22.0753 31.5748 22.1904 31.6429C22.3055 31.7109 22.4391 31.7409 22.5723 31.7284C24.8666 31.7284 27.1541 31.7284 29.4622 31.7284C29.5954 31.742 29.7296 31.7125 29.8449 31.6443C29.9602 31.5761 30.0506 31.4728 30.1029 31.3494C31.3982 29.0826 32.7211 26.8295 34.0095 24.5557C34.1614 24.2411 34.404 23.9791 34.706 23.8035C35.0081 23.6279 35.3558 23.5467 35.7044 23.5704C38.6671 23.5704 41.6228 23.5704 44.5786 23.5704C44.9196 23.5501 45.259 23.6307 45.5543 23.8023C45.8497 23.9739 46.0879 24.2288 46.2391 24.5351C47.81 27.2911 49.4084 30.0472 51 32.8032V33.5818C50.8829 33.7954 50.7589 34.0021 50.6417 34.2088C49.188 36.7237 47.7204 39.2317 46.2942 41.788C46.127 42.1301 45.861 42.4141 45.5305 42.6033C45.2001 42.7925 44.8205 42.8781 44.4408 42.8491C41.8916 42.8491 39.3423 42.8491 36.7861 42.8491C36.622 42.837 36.4582 42.8754 36.3165 42.9591C36.1749 43.0429 36.0623 43.168 35.9938 43.3176C34.7536 45.5087 33.479 47.6791 32.2388 49.8632C31.9975 50.3609 31.5942 50.7618 31.0951 51.0001H20.9049C20.4074 50.7596 20.0047 50.3593 19.7612 49.8632C18.521 47.6791 17.2464 45.5087 16.0062 43.3176C15.9377 43.168 15.8251 43.0429 15.6835 42.9591C15.5418 42.8754 15.378 42.837 15.2139 42.8491C12.6439 42.8491 10.074 42.8491 7.51095 42.8491C7.14679 42.8755 6.78303 42.7926 6.46631 42.6109C6.1496 42.4292 5.89438 42.157 5.73336 41.8293C4.17625 39.0733 2.57779 36.3517 1 33.6094V32.8032ZM40.0519 39.8863C41.2026 39.8863 42.3601 39.8863 43.4969 39.8863C43.6302 39.8999 43.7643 39.8704 43.8796 39.8022C43.9949 39.734 44.0854 39.6307 44.1377 39.5074C45.2768 37.5138 46.4251 35.5294 47.5826 33.5543C47.6507 33.4523 47.6871 33.3324 47.6871 33.2098C47.6871 33.0871 47.6507 32.9672 47.5826 32.8653C46.4205 30.8763 45.2722 28.8782 44.1377 26.8708C44.09 26.7625 44.0103 26.6715 43.9093 26.6099C43.8082 26.5483 43.6908 26.5191 43.5727 26.5263C41.2439 26.5263 38.922 26.5263 36.5932 26.5263C36.4823 26.5368 36.375 26.5712 36.2787 26.6271C36.1824 26.683 36.0993 26.7591 36.0351 26.8502C34.8639 28.8414 33.727 30.8396 32.5902 32.8377C32.5193 32.9386 32.4813 33.0589 32.4813 33.1822C32.4813 33.3055 32.5193 33.4258 32.5902 33.5267C33.7523 35.5157 34.9006 37.5138 36.0351 39.5211C36.0886 39.6358 36.1762 39.7312 36.286 39.7941C36.3958 39.857 36.5224 39.8844 36.6483 39.8725C37.7783 39.8725 38.9151 39.8863 40.0519 39.8863ZM25.9897 48.0236C27.1265 48.0236 28.2633 48.0236 29.4002 48.0236C29.534 48.0413 29.6701 48.0154 29.788 47.9496C29.9059 47.8838 29.9995 47.7816 30.0547 47.6584C31.1892 45.6557 32.3376 43.6598 33.4997 41.6709C33.5666 41.5749 33.6026 41.4606 33.6026 41.3436C33.6026 41.2265 33.5666 41.1123 33.4997 41.0163C32.3284 39.0136 31.1686 37.0039 30.0203 34.9874C29.9726 34.8791 29.8929 34.7881 29.7919 34.7265C29.6908 34.6649 29.5734 34.6357 29.4553 34.6429C27.1311 34.6429 24.8092 34.6429 22.4896 34.6429C22.3716 34.6311 22.2529 34.6566 22.1503 34.716C22.0477 34.7753 21.9663 34.8655 21.9177 34.9736C20.7694 36.9856 19.6211 38.9952 18.4728 41.0025C18.3957 41.1008 18.3538 41.2221 18.3538 41.347C18.3538 41.4719 18.3957 41.5932 18.4728 41.6915C19.6441 43.6897 20.8039 45.6993 21.9522 47.7204C22.0053 47.8345 22.0933 47.9287 22.2036 47.9894C22.3138 48.0501 22.4406 48.0742 22.5654 48.058C23.6815 48.0167 24.8391 48.0236 25.9897 48.0236ZM11.8723 26.5194C10.7216 26.5194 9.56414 26.5194 8.42731 26.5194C8.30041 26.5071 8.17285 26.5351 8.06276 26.5994C7.95268 26.6637 7.86567 26.7611 7.81411 26.8777C6.67039 28.8759 5.50599 30.8671 4.36916 32.879C4.32312 32.9808 4.2993 33.0912 4.2993 33.2029C4.2993 33.3146 4.32312 33.425 4.36916 33.5267C5.5037 35.5478 6.65201 37.5574 7.81411 39.5556C7.88088 39.6456 7.96553 39.7208 8.06276 39.7765C8.15998 39.8323 8.26768 39.8673 8.37908 39.8794C10.6872 39.8794 12.9953 39.8794 15.269 39.8794C15.3964 39.8891 15.5236 39.8593 15.6334 39.7939C15.7431 39.7285 15.83 39.6309 15.8822 39.5142C17.0259 37.5161 18.1742 35.5203 19.3271 33.5267C19.401 33.427 19.4408 33.3063 19.4408 33.1822C19.4408 33.0582 19.401 32.9374 19.3271 32.8377C18.1559 30.8327 17.0052 28.8139 15.8271 26.8157C15.7605 26.7261 15.6758 26.6515 15.5785 26.5969C15.4811 26.5422 15.3733 26.5088 15.2621 26.4988C14.1873 26.5057 13.0573 26.5194 11.8723 26.5194Z" fill="url(#paint0_linear_1323_455)"/>
<path d="M31.0474 1C31.5465 1.23831 31.9498 1.6392 32.1911 2.13687C33.615 4.6357 35.0527 7.12534 36.5042 9.60579C36.7029 9.90362 36.809 10.2537 36.809 10.6117C36.809 10.9698 36.7029 11.3199 36.5042 11.6177C35.0251 14.1533 33.5553 16.698 32.0946 19.252C31.942 19.5671 31.6981 19.829 31.3945 20.0035C31.091 20.178 30.7419 20.2571 30.3928 20.2304C29.4351 20.2304 28.4774 20.2304 27.4853 20.2304V23.6755C27.6506 23.517 27.7816 23.393 27.9262 23.2689C28.1974 23.0186 28.5528 22.8796 28.9218 22.8796C29.2908 22.8796 29.6463 23.0186 29.9174 23.2689C30.0569 23.3954 30.1696 23.5484 30.2491 23.719C30.3286 23.8896 30.3731 24.0743 30.3802 24.2624C30.3872 24.4505 30.3567 24.6381 30.2902 24.8141C30.2237 24.9902 30.1228 25.1512 29.9932 25.2878C29.0011 26.3213 27.9905 27.3341 26.9617 28.3263C26.6848 28.5867 26.3159 28.7264 25.936 28.7148C25.5561 28.7032 25.1964 28.5411 24.936 28.2643C23.9531 27.3135 22.9793 26.358 22.0147 25.398C21.8764 25.2638 21.7664 25.1031 21.6913 24.9256C21.6162 24.7481 21.5775 24.5572 21.5775 24.3645C21.5775 24.1717 21.6162 23.9809 21.6913 23.8034C21.7664 23.6258 21.8764 23.4652 22.0147 23.331C22.2896 23.0583 22.661 22.9053 23.0482 22.9053C23.4353 22.9053 23.8068 23.0583 24.0817 23.331L24.4537 23.6824V20.2373C23.5029 20.2373 22.5452 20.2373 21.5944 20.2373C21.2294 20.2695 20.8633 20.1891 20.5454 20.0067C20.2276 19.8244 19.9733 19.5489 19.8168 19.2175C18.3768 16.6751 16.9093 14.1464 15.4349 11.6384C15.2361 11.3405 15.13 10.9905 15.13 10.6324C15.13 10.2743 15.2361 9.92429 15.4349 9.62646C16.8909 7.14601 18.3286 4.65637 19.7479 2.15754C19.9915 1.66146 20.3941 1.26122 20.8917 1.02067L31.0474 1ZM25.9833 3.92831C24.812 3.92831 23.6407 3.92831 22.4694 3.92831C22.3603 3.91587 22.25 3.93856 22.1546 3.99307C22.0592 4.04759 21.9836 4.1311 21.9389 4.23148C20.7814 6.26177 19.6124 8.28747 18.432 10.3086C18.3665 10.3974 18.3312 10.5049 18.3312 10.6152C18.3312 10.7255 18.3665 10.833 18.432 10.9218C19.6078 12.9337 20.7768 14.9571 21.9389 16.992C21.9819 17.0931 22.0556 17.1781 22.1496 17.235C22.2436 17.2919 22.3531 17.3177 22.4625 17.309C24.8051 17.309 27.1408 17.309 29.4834 17.309C29.593 17.3187 29.703 17.2941 29.7981 17.2386C29.8931 17.183 29.9686 17.0993 30.0139 16.9989C31.1714 14.964 32.3381 12.9406 33.514 10.9287C33.5774 10.8391 33.6115 10.7319 33.6115 10.6221C33.6115 10.5122 33.5774 10.4051 33.514 10.3155C32.3289 8.29896 31.1599 6.27325 30.007 4.23837C29.9541 4.1335 29.8701 4.04748 29.7666 3.992C29.663 3.93653 29.5449 3.91429 29.4282 3.92831C28.2914 3.9352 27.1339 3.92831 25.9833 3.92831Z" fill="url(#paint1_linear_1323_455)"/>
<defs>
<linearGradient id="paint0_linear_1323_455" x1="20.5454" y1="24.0652" x2="26.2294" y2="51.8724" gradientUnits="userSpaceOnUse">
<stop stop-color="white" stop-opacity="0.66"/>
<stop offset="1" stop-color="#C8C8C8" stop-opacity="0"/>
</linearGradient>
<linearGradient id="paint1_linear_1323_455" x1="23.6045" y1="1.50391" x2="34.9663" y2="25.3591" gradientUnits="userSpaceOnUse">
<stop stop-color="white" stop-opacity="0.66"/>
<stop offset="1" stop-color="#C8C8C8" stop-opacity="0"/>
</linearGradient>
</defs>
</svg>
