<svg width="50" height="49" viewBox="0 0 50 49" fill="none" xmlns="http://www.w3.org/2000/svg">
<path fill-rule="evenodd" clip-rule="evenodd" d="M20.8004 0.181221C18.8133 0.811997 17.4835 2.61399 17.4835 4.67576C17.4835 6.77103 18.5958 8.36536 20.6345 9.19198L21.0018 9.34093L20.9763 13.6913L20.9509 18.0417L20.2204 18.2287C18.182 18.7508 16.7198 19.8782 15.2771 22.0404C15.2603 22.0656 10.5079 18.3769 10.2267 18.1204C10.1839 18.0814 10.1905 17.7877 10.2411 17.4678C10.4831 15.9411 9.69359 14.4449 8.30243 13.794C7.51714 13.4266 6.33246 13.4292 5.54824 13.7999C4.91512 14.0992 4.20757 14.765 3.92139 15.3307C3.23318 16.6915 3.55238 18.3989 4.68764 19.4283C5.60371 20.2591 6.98687 20.5263 8.12105 20.0916C8.39854 19.9852 8.67369 19.9276 8.73248 19.9635C8.79128 19.9992 10.0926 21.0103 11.6243 22.2103L14.4092 24.392L14.3727 25.5497C14.3519 26.2118 14.3865 26.9669 14.4535 27.3136C14.6098 28.1217 15.0484 29.2449 15.4885 29.964L15.8467 30.5494L12.4163 34.0184C9.92117 36.5415 8.98184 37.5527 8.97071 37.7277C8.9249 38.4537 9.18032 38.9217 9.72045 39.1016C10.431 39.3381 10.4607 39.3147 14.1138 35.6504L17.5324 32.2214L17.8742 32.466C18.5174 32.926 19.6504 33.3864 20.7312 33.6268L20.9998 33.6865V38.0671V42.4477L20.6687 42.5872C20.2506 42.7634 19.5749 43.3751 19.2828 43.8419C18.4433 45.1832 18.6849 47.0272 19.8435 48.1203C20.5699 48.8055 21.0692 48.9982 22.123 49C22.8716 49.0013 23.0839 48.9627 23.5537 48.7406C24.2259 48.4228 24.8092 47.8521 25.1719 47.1577C25.4167 46.6889 25.4437 46.5392 25.4437 45.652C25.4437 44.7648 25.4167 44.6152 25.1719 44.1464C24.8449 43.5201 24.2759 42.9259 23.7386 42.6494L23.3439 42.4463V38.0664V33.6865L23.6125 33.6271C26.6027 32.9654 28.9019 30.8188 29.6911 27.9521C30.7893 23.9634 28.5528 19.7208 24.6559 18.4001C24.1977 18.2448 23.7151 18.1177 23.5834 18.1177H23.3439V13.7002V9.28281L23.7177 9.16981C24.2729 9.00205 25.1941 8.36585 25.668 7.82285C26.6385 6.71074 27.0437 5.11277 26.7136 3.69891C26.1984 1.49272 24.2954 -0.0265425 22.0808 0.000351414C21.6743 0.00527705 21.0981 0.0866485 20.8004 0.181221ZM23.0296 2.50848C23.9009 2.87495 24.4599 3.7394 24.4599 4.72C24.4599 7.07937 21.403 7.96441 20.1746 5.96057C19.7709 5.30211 19.7047 4.33067 20.0212 3.71231C20.3262 3.11611 20.5872 2.85584 21.1463 2.58986C21.7239 2.3151 22.4912 2.282 23.0296 2.50848ZM44.539 14.4762C43.5021 14.6619 42.4925 15.2349 41.794 16.034C41.1049 16.8223 40.7447 17.6894 40.6473 18.7944L40.5833 19.5203L37.3112 20.641C31.4388 22.6525 31.5349 22.6094 31.4095 23.2839C31.287 23.9426 31.8708 24.7166 32.4908 24.7177C32.6063 24.7179 34.6384 24.0539 37.0067 23.2422L41.3125 21.7661L41.9735 22.4316C42.9739 23.4388 43.9823 23.8602 45.3693 23.8509C47.5092 23.8363 49.303 22.3854 49.8633 20.2157C50.5071 17.7228 48.8081 15.0711 46.2114 14.5159C45.5031 14.3645 45.2022 14.3574 44.539 14.4762ZM7.40706 15.9913C7.65759 16.122 7.81709 16.3501 7.95051 16.7687C8.02894 17.0147 7.78349 17.5664 7.50942 17.76C7.1661 18.0027 6.61141 17.9651 6.27121 17.6764C5.74407 17.229 5.80228 16.399 6.38598 16.0401C6.74923 15.8167 7.04508 15.8025 7.40706 15.9913ZM45.9922 16.8918C47.4272 17.3216 48.0893 19.0238 47.3298 20.331C46.8787 21.1074 46.2239 21.4834 45.3204 21.4851C44.5892 21.4865 44.0263 21.2365 43.5618 20.7045C42.7525 19.777 42.7654 18.4117 43.5917 17.5429C44.2753 16.8241 45.0575 16.612 45.9922 16.8918ZM23.6369 20.5487C25.5125 21.0648 27.0933 22.7658 27.5012 24.7067C27.899 26.5995 27.3719 28.3502 25.985 29.7429C24.5916 31.1422 22.9082 31.6625 21.0486 31.2688C19.0195 30.8391 17.3743 29.2766 16.8472 27.2786C16.6606 26.5715 16.6632 25.2057 16.8526 24.4727C17.6227 21.4903 20.6648 19.7309 23.6369 20.5487ZM3.61391 38.8638C2.39446 39.1905 1.2428 40.0569 0.639077 41.1017C0.301908 41.6853 0 42.8096 0 43.482C0 44.6265 0.556933 45.936 1.40308 46.7807C2.33332 47.7094 3.41359 48.162 4.70248 48.1633C7.78535 48.1665 10.0364 45.1946 9.21147 42.2106C8.53548 39.7654 5.97126 38.2321 3.61391 38.8638ZM5.49266 41.2253C6.03113 41.4104 6.59959 41.9417 6.84719 42.4916C7.20077 43.2769 7.00679 44.4498 6.41597 45.0986C6.06249 45.4868 5.29223 45.798 4.68832 45.7966C3.02436 45.793 1.87435 44.0484 2.54742 42.5489C2.81455 41.9536 3.1735 41.5858 3.76042 41.3059C4.32966 41.0345 4.86511 41.0096 5.49266 41.2253ZM22.9256 44.9582C23.4784 45.6064 23.0036 46.6864 22.1659 46.6864C21.632 46.6864 21.2024 46.2901 21.1277 45.7287C21.0771 45.3478 21.1026 45.2823 21.4294 44.9527C21.7623 44.6169 21.8174 44.5962 22.2445 44.6447C22.5794 44.6828 22.7626 44.7671 22.9256 44.9582Z" fill="#FCB900"/>
</svg>
