<svg width="35" height="35" viewBox="0 0 35 35" fill="none" xmlns="http://www.w3.org/2000/svg">
<path fill-rule="evenodd" clip-rule="evenodd" d="M3 0C1.34315 0 0 1.34315 0 3V32C0 33.6569 1.34315 35 3 35H32C33.6569 35 35 33.6569 35 32V3C35 1.34315 33.6569 0 32 0H3ZM9.14177 12.7584C9.64819 10.9407 11.2123 9.50349 13.1349 9.08924C13.8935 8.92574 15.0854 8.99282 15.851 9.24201C16.6804 9.51194 17.611 10.107 18.1501 10.7122C18.6525 11.2762 19.2224 12.3421 19.3101 12.8821C19.3978 13.4218 19.5372 13.5276 20.1627 13.5296C21.1423 13.5328 22.3063 14.0288 23.1988 14.8231C24.1335 15.655 24.3388 16.232 24.8649 19.5038C24.9871 20.264 25.2591 21.8615 25.4694 23.0539C25.6797 24.2463 25.8747 25.6 25.9028 26.0621C25.931 26.5243 25.9708 27.0305 25.9914 27.187C26.012 27.3435 25.9943 27.5235 25.9521 27.5871C25.8866 27.6858 25.8448 27.6838 25.6638 27.5728C25.3526 27.3819 25.1787 26.9696 25.037 26.0863C24.9676 25.6536 24.8657 25.2486 24.8105 25.1863C24.5693 24.9143 24.0364 25.1699 24.0364 25.5576C24.0364 25.7855 24.3927 26.3539 24.7572 26.7076C24.8773 26.8241 25.0541 27.0636 25.1503 27.24C25.2518 27.4262 25.4534 27.6253 25.6309 27.7148C25.7992 27.7997 25.9174 27.8985 25.8936 27.9345C25.8698 27.9706 25.2455 28 24.5064 28C23.3052 28 23.1565 27.9849 23.1074 27.8577C23.047 27.7015 22.0638 25.6216 21.7141 24.9105C21.4426 24.3585 21.1105 23.6617 20.9388 23.2844C20.8677 23.1279 20.737 22.8535 20.6485 22.6746C20.56 22.4957 20.4116 22.1848 20.3186 21.9835C20.2257 21.7823 19.8291 20.9408 19.4374 20.1135C18.7374 18.635 18.579 18.3002 18.4175 17.967C18.3638 17.8562 18.3097 17.7455 18.2353 17.5931C18.0935 17.3025 17.9517 16.9945 17.9203 16.9088C17.8446 16.7017 17.7721 16.7807 17.3666 17.5118L16.2389 19.5444C14.7705 22.1912 13.1728 25.107 12.419 26.5162L11.6688 27.9187H10.3763H9.08375L9.51251 27.1666C10.2628 25.8505 10.9414 24.6331 13.7844 19.5038C15.7646 15.931 16.232 15.0582 16.1871 15.0162C16.1596 14.9903 15.9306 15.0562 15.6783 15.1625C15.2856 15.3279 15.0823 15.3557 14.2641 15.3565C13.5682 15.357 13.1681 15.3157 12.7913 15.2043L12.274 15.0515L12.5307 14.8515C13.2271 14.3089 14.7149 13.8532 15.7899 13.8532C16.0734 13.8532 16.3054 13.8183 16.3054 13.7757C16.3054 13.6588 16.1162 13.2704 15.9422 13.0298C15.7904 12.82 15.7921 12.8105 16.0348 12.4968C16.1707 12.3212 16.4534 12.043 16.6629 11.8787C17.017 11.6009 17.0285 11.5798 16.8266 11.5801C16.5095 11.5803 15.9516 11.8445 15.6651 12.13L15.4157 12.3786L14.9984 12.1606C14.6177 11.9616 14.5851 11.9211 14.626 11.6986C14.6506 11.5645 14.7631 11.2809 14.8759 11.0685C14.9887 10.8561 15.0439 10.6823 14.9986 10.6823C14.8463 10.6823 14.2421 11.2507 14.1335 11.4962C14.0317 11.7262 13.9991 11.7393 13.5263 11.7393H13.0268L12.971 11.4126C12.9403 11.233 12.9395 10.9952 12.9693 10.8841C13.0017 10.7631 12.9861 10.6823 12.9302 10.6823C12.7865 10.6823 12.6399 10.996 12.5806 11.4307C12.5286 11.8119 12.512 11.8312 12.0705 12.0223L11.6141 12.2198L11.4046 11.8373C11.2309 11.5202 11.1841 11.4805 11.1314 11.6055C11.0965 11.6885 11.1127 11.9381 11.1676 12.1603C11.2604 12.5367 11.2517 12.5889 11.0402 12.9267L10.8132 13.2892L10.519 13.1267C10.2351 12.9699 10.2249 12.9695 10.2249 13.1169C10.2249 13.2009 10.3323 13.3552 10.4638 13.4597C10.6936 13.6427 10.6997 13.6673 10.6244 14.1117C10.5583 14.5016 10.5137 14.5811 10.3381 14.6223C10.2237 14.6492 10.0876 14.6467 10.0359 14.6167C9.9808 14.5849 9.95822 14.6091 9.98132 14.6752C10.0031 14.7373 10.1615 14.8213 10.3332 14.8619C10.61 14.9273 10.6566 14.977 10.7434 15.2996C10.8334 15.6343 10.8252 15.68 10.6417 15.8655L10.4421 16.0673L10.7134 16.013C11.0522 15.9452 11.7885 16.3238 11.7885 16.5659C11.7885 16.6906 11.8117 16.7006 11.9152 16.6202C11.9959 16.5576 12.1447 16.5429 12.3248 16.5799C13.0146 16.7217 14.1468 16.5201 14.3449 16.2201C14.4367 16.0812 14.5681 16.1127 14.5681 16.2737C14.5681 16.506 14.0623 17.014 13.624 17.2218C13.0105 17.5129 12.3971 17.5525 11.5797 17.3538C10.871 17.1815 10.5429 16.9973 10.0129 16.4744C9.68181 16.1477 9.1568 15.2672 9.05638 14.8701C8.9518 14.4563 8.99983 13.2679 9.14177 12.7584ZM21.9888 18.2193C22.0812 18.1053 22.086 18.0205 22.0104 17.8331C21.9584 17.7044 21.9307 17.634 21.8825 17.6147C21.8243 17.5913 21.7361 17.6424 21.5391 17.7548C21.2507 17.9194 21.2036 18.0594 21.252 18.6081C21.2846 18.9789 21.4868 19.2786 21.8896 19.5533C22.3061 19.8372 22.7342 20.0586 22.7815 20.0143C22.86 19.9409 22.7002 19.6257 22.5843 19.6257C22.5135 19.6257 22.3226 19.5013 22.1601 19.3493C21.9133 19.1182 21.8652 19.0148 21.8676 18.7192C21.8691 18.5246 21.9236 18.2997 21.9888 18.2193ZM22.386 19.1785C22.5872 19.349 22.5964 19.3118 22.4591 18.8831C22.4038 18.7102 22.3256 18.5688 22.2854 18.5688C22.1395 18.5688 22.2163 19.0349 22.386 19.1785Z" fill="white"/>
</svg>
