<svg width="51" height="51" viewBox="0 0 51 51" fill="none" xmlns="http://www.w3.org/2000/svg">
<path d="M45.0514 0H46.1246C46.2153 0.0322427 46.3078 0.0592272 46.4016 0.0808198C47.4538 0.272805 48.3996 0.842939 49.061 1.68393C49.7224 2.52491 50.0538 3.57877 49.9929 4.64715C49.9319 5.71554 49.4827 6.7248 48.7299 7.48498C47.9771 8.24517 46.9726 8.70387 45.9054 8.77476C45.0134 8.83157 44.1257 8.61141 43.3635 8.14437C42.6013 7.67733 42.0019 6.98619 41.6472 6.16543C41.6134 6.06002 41.5447 5.96934 41.4523 5.90843C41.36 5.84752 41.2495 5.82006 41.1394 5.8306C39.9162 5.8306 38.693 5.8306 37.4698 5.8306C37.3257 5.82531 37.1826 5.85711 37.0543 5.92297L33.8924 8.03584L34.5617 8.42839C37.3616 10.0307 39.7032 12.3257 41.3622 15.0934C43.0211 17.8611 43.9418 21.0087 44.0359 24.2345C44.2481 28.1359 43.209 32.0032 41.0702 35.2722C38.8816 38.7452 35.6289 41.4168 31.7979 42.888C27.9668 44.3592 23.7629 44.5511 19.8139 43.4351C19.5584 43.3739 19.2891 43.4153 19.0638 43.5505C17.4944 44.5666 15.948 45.6403 14.3671 46.6448C13.9441 46.9005 13.4643 47.0473 12.9707 47.072C11.6667 47.1297 10.3627 47.072 9.05875 47.072C8.90355 47.0456 8.74404 47.0767 8.61017 47.1596C8.47631 47.2425 8.3773 47.3715 8.33174 47.5223C8.01461 48.1814 7.53741 48.7504 6.94376 49.1773C6.35012 49.6042 5.65897 49.8755 4.93352 49.9662C4.20807 50.0569 3.47146 49.9643 2.79104 49.6967C2.11062 49.4291 1.50811 48.9951 1.03858 48.4344C0.518557 47.7554 0.163043 46.965 0 46.1252V45.1439C0.0995862 44.7026 0.234658 44.2702 0.403894 43.8507C0.746982 43.0761 1.30745 42.4179 2.01724 41.9558C2.72703 41.4937 3.55563 41.2478 4.40244 41.2478C5.24925 41.2478 6.07785 41.4937 6.78764 41.9558C7.49743 42.4179 8.05789 43.0761 8.40098 43.8507C8.43298 43.9565 8.5018 44.0472 8.59496 44.1066C8.68812 44.1659 8.79944 44.1898 8.90873 44.174H12.5207C12.6666 44.1869 12.8134 44.1631 12.9477 44.1047L16.0173 42.0727C14.7248 41.0913 13.3516 40.2023 12.1514 39.117C8.86195 36.1584 6.73778 32.1208 6.16226 27.7329C5.59149 23.8685 6.23678 19.9221 8.00863 16.4411C9.98316 12.4661 13.2839 9.30619 17.3402 7.50787C21.3964 5.70955 25.9532 5.38581 30.2228 6.59262C30.4799 6.64334 30.7467 6.59817 30.9729 6.46561C32.4961 5.47268 34.0194 4.4682 35.5195 3.44063C36.0226 3.07948 36.6318 2.89664 37.2505 2.92107C38.4968 2.92107 39.7546 2.92107 41.0125 2.92107C41.1677 2.9475 41.3272 2.91634 41.4611 2.83343C41.5949 2.75052 41.6939 2.62157 41.7395 2.47079C41.8954 2.13282 42.0973 1.81809 42.3396 1.53558C43.0425 0.729875 43.9991 0.188186 45.0514 0ZM28.8957 17.6188H21.0948L20.5986 23.484H29.4381L28.8957 17.6188ZM21.0948 32.4435H28.8957L29.4034 26.5206H20.5986L21.0948 32.4435ZM18.1637 17.6419H18.0252H10.9513C10.8718 17.6544 10.7963 17.6848 10.7303 17.7308C10.6644 17.7768 10.6097 17.8372 10.5705 17.9074C10.1872 18.708 9.84822 19.529 9.55496 20.3667C9.26647 21.3943 9.09337 22.4449 8.86258 23.5302H17.6328L18.1637 17.6419ZM31.8614 17.6419L32.3692 23.484H41.0586C40.8856 21.4926 40.3333 19.5526 39.4315 17.7689C39.382 17.7056 39.319 17.6542 39.2472 17.6182C39.1753 17.5823 39.0964 17.5628 39.0161 17.5611C37.8621 17.5611 36.7081 17.5611 35.5542 17.5611L31.8614 17.6419ZM18.1637 32.432L17.6328 26.5206H8.97797C9.14816 28.5324 9.70454 30.4925 10.6166 32.2934C10.6166 32.3974 10.8705 32.4666 10.9974 32.4782H17.9213L18.1637 32.432ZM31.8614 32.432C34.3079 32.432 36.7081 32.432 39.1084 32.432C39.1876 32.4146 39.2619 32.3796 39.3258 32.3296C39.3897 32.2797 39.4416 32.216 39.4777 32.1433C39.8515 31.3327 40.1752 30.4998 40.447 29.6495C40.7355 28.6334 40.9086 27.5828 41.1279 26.5206H32.3692L31.8614 32.432ZM28.2495 14.6515C27.8707 12.884 27.1705 11.2012 26.1838 9.68688C25.3414 8.5323 24.7067 8.5323 23.8759 9.68688C22.8808 11.2022 22.1764 12.8897 21.7987 14.6631L28.2495 14.6515ZM21.7872 35.4339C21.9372 35.9534 22.0526 36.4268 22.2026 36.8886C22.5789 38.2745 23.2304 39.5703 24.1182 40.6987C24.7644 41.4377 25.2722 41.4608 25.8953 40.6987C27.0522 39.1321 27.8411 37.3246 28.2033 35.4108L21.7872 35.4339ZM20.4255 9.47905C17.3816 10.3889 14.6778 12.1857 12.6592 14.64H18.6714L20.4255 9.47905ZM29.6573 9.47905L31.4114 14.64H37.4351C35.3941 12.1841 32.6715 10.3882 29.6112 9.47905H29.6573ZM20.4255 40.5717L18.683 35.4339H12.6592C14.6879 37.8719 17.3889 39.6587 20.4255 40.5717ZM29.5996 40.5717C32.6471 39.6496 35.356 37.8507 37.389 35.3992H31.3652L29.5996 40.5717ZM47.094 4.37584C47.0893 4.0854 46.9985 3.80289 46.8332 3.56414C46.6678 3.32539 46.4353 3.14116 46.1651 3.03482C45.895 2.92848 45.5993 2.90482 45.3157 2.96684C45.032 3.02886 44.7732 3.17377 44.572 3.38318C44.3708 3.5926 44.2363 3.85708 44.1856 4.14309C44.1349 4.42909 44.1702 4.72374 44.287 4.98963C44.4039 5.25553 44.5971 5.4807 44.8421 5.63659C45.087 5.79248 45.3728 5.87206 45.663 5.86524C46.0487 5.85319 46.4144 5.6906 46.6818 5.41225C46.9492 5.13391 47.0972 4.76191 47.094 4.37584ZM5.86222 45.675C5.86222 45.2861 5.70782 44.9131 5.43297 44.6381C5.15813 44.3631 4.78536 44.2086 4.39667 44.2086C4.00798 44.2086 3.63521 44.3631 3.36036 44.6381C3.08552 44.9131 2.93111 45.2861 2.93111 45.675C2.93401 46.062 3.08741 46.4328 3.35883 46.7087C3.63024 46.9845 3.99834 47.1438 4.38513 47.1528C4.77688 47.1528 5.15259 46.9971 5.42959 46.72C5.7066 46.4428 5.86222 46.0669 5.86222 45.675Z" fill="#410EAD"/>
<path d="M46.0514 1H47.1246C47.2153 1.03224 47.3078 1.05923 47.4016 1.08082C48.4538 1.2728 49.3996 1.84294 50.061 2.68393C50.7224 3.52491 51.0538 4.57877 50.9929 5.64715C50.9319 6.71554 50.4827 7.7248 49.7299 8.48498C48.9771 9.24517 47.9726 9.70387 46.9054 9.77476C46.0134 9.83157 45.1257 9.61141 44.3635 9.14437C43.6013 8.67733 43.0019 7.98619 42.6472 7.16543C42.6134 7.06002 42.5447 6.96934 42.4523 6.90843C42.36 6.84752 42.2495 6.82006 42.1394 6.8306C40.9162 6.8306 39.693 6.8306 38.4698 6.8306C38.3257 6.82531 38.1826 6.85711 38.0543 6.92297L34.8924 9.03584L35.5617 9.42839C38.3616 11.0307 40.7032 13.3257 42.3622 16.0934C44.0211 18.8611 44.9418 22.0087 45.0359 25.2345C45.2481 29.1359 44.209 33.0032 42.0702 36.2722C39.8816 39.7452 36.6289 42.4168 32.7979 43.888C28.9668 45.3592 24.7629 45.5511 20.8139 44.4351C20.5584 44.3739 20.2891 44.4153 20.0638 44.5505C18.4944 45.5666 16.948 46.6403 15.3671 47.6448C14.9441 47.9005 14.4643 48.0473 13.9707 48.072C12.6667 48.1297 11.3627 48.072 10.0588 48.072C9.90355 48.0456 9.74404 48.0767 9.61017 48.1596C9.47631 48.2425 9.3773 48.3715 9.33174 48.5223C9.01461 49.1814 8.53741 49.7504 7.94376 50.1773C7.35012 50.6042 6.65897 50.8755 5.93352 50.9662C5.20807 51.0569 4.47146 50.9643 3.79104 50.6967C3.11062 50.4291 2.50811 49.9951 2.03858 49.4344C1.51856 48.7554 1.16304 47.965 1 47.1252V46.1439C1.09959 45.7026 1.23466 45.2702 1.40389 44.8507C1.74698 44.0761 2.30745 43.4179 3.01724 42.9558C3.72703 42.4937 4.55563 42.2478 5.40244 42.2478C6.24925 42.2478 7.07785 42.4937 7.78764 42.9558C8.49743 43.4179 9.05789 44.0761 9.40098 44.8507C9.43298 44.9565 9.5018 45.0472 9.59496 45.1066C9.68812 45.1659 9.79944 45.1898 9.90873 45.174H13.5207C13.6666 45.1869 13.8134 45.1631 13.9477 45.1047L17.0173 43.0727C15.7248 42.0913 14.3516 41.2023 13.1514 40.117C9.86195 37.1584 7.73778 33.1208 7.16226 28.7329C6.59149 24.8685 7.23678 20.9221 9.00863 17.4411C10.9832 13.4661 14.2839 10.3062 18.3402 8.50787C22.3964 6.70955 26.9532 6.38581 31.2228 7.59262C31.4799 7.64334 31.7467 7.59817 31.9729 7.46561C33.4961 6.47268 35.0194 5.4682 36.5195 4.44063C37.0226 4.07948 37.6318 3.89664 38.2505 3.92107C39.4968 3.92107 40.7546 3.92107 42.0125 3.92107C42.1677 3.9475 42.3272 3.91634 42.4611 3.83343C42.5949 3.75052 42.6939 3.62157 42.7395 3.47079C42.8954 3.13282 43.0973 2.81809 43.3396 2.53558C44.0425 1.72988 44.9991 1.18819 46.0514 1ZM29.8957 18.6188H22.0948L21.5986 24.484H30.4381L29.8957 18.6188ZM22.0948 33.4435H29.8957L30.4034 27.5206H21.5986L22.0948 33.4435ZM19.1637 18.6419H19.0252H11.9513C11.8718 18.6544 11.7963 18.6848 11.7303 18.7308C11.6644 18.7768 11.6097 18.8372 11.5705 18.9074C11.1872 19.708 10.8482 20.529 10.555 21.3667C10.2665 22.3943 10.0934 23.4449 9.86258 24.5302H18.6328L19.1637 18.6419ZM32.8614 18.6419L33.3692 24.484H42.0586C41.8856 22.4926 41.3333 20.5526 40.4315 18.7689C40.382 18.7056 40.319 18.6542 40.2472 18.6182C40.1753 18.5823 40.0964 18.5628 40.0161 18.5611C38.8621 18.5611 37.7081 18.5611 36.5542 18.5611L32.8614 18.6419ZM19.1637 33.432L18.6328 27.5206H9.97797C10.1482 29.5324 10.7045 31.4925 11.6166 33.2934C11.6166 33.3974 11.8705 33.4666 11.9974 33.4782H18.9213L19.1637 33.432ZM32.8614 33.432C35.3079 33.432 37.7081 33.432 40.1084 33.432C40.1876 33.4146 40.2619 33.3796 40.3258 33.3296C40.3897 33.2797 40.4416 33.216 40.4777 33.1433C40.8515 32.3327 41.1752 31.4998 41.447 30.6495C41.7355 29.6334 41.9086 28.5828 42.1279 27.5206H33.3692L32.8614 33.432ZM29.2495 15.6515C28.8707 13.884 28.1705 12.2012 27.1838 10.6869C26.3414 9.5323 25.7067 9.5323 24.8759 10.6869C23.8808 12.2022 23.1764 13.8897 22.7987 15.6631L29.2495 15.6515ZM22.7872 36.4339C22.9372 36.9534 23.0526 37.4268 23.2026 37.8886C23.5789 39.2745 24.2304 40.5703 25.1182 41.6987C25.7644 42.4377 26.2722 42.4608 26.8953 41.6987C28.0522 40.1321 28.8411 38.3246 29.2033 36.4108L22.7872 36.4339ZM21.4255 10.4791C18.3816 11.3889 15.6778 13.1857 13.6592 15.64H19.6714L21.4255 10.4791ZM30.6573 10.4791L32.4114 15.64H38.4351C36.3941 13.1841 33.6715 11.3882 30.6112 10.4791H30.6573ZM21.4255 41.5717L19.683 36.4339H13.6592C15.6879 38.8719 18.3889 40.6587 21.4255 41.5717ZM30.5996 41.5717C33.6471 40.6496 36.356 38.8507 38.389 36.3992H32.3652L30.5996 41.5717ZM48.094 5.37584C48.0893 5.0854 47.9985 4.80289 47.8332 4.56414C47.6678 4.32539 47.4353 4.14116 47.1651 4.03482C46.895 3.92848 46.5993 3.90482 46.3157 3.96684C46.032 4.02886 45.7732 4.17377 45.572 4.38318C45.3708 4.5926 45.2363 4.85708 45.1856 5.14309C45.1349 5.42909 45.1702 5.72374 45.287 5.98963C45.4039 6.25553 45.5971 6.4807 45.8421 6.63659C46.087 6.79248 46.3728 6.87206 46.663 6.86524C47.0487 6.85319 47.4144 6.6906 47.6818 6.41225C47.9492 6.13391 48.0972 5.76191 48.094 5.37584ZM6.86222 46.675C6.86222 46.2861 6.70782 45.9131 6.43297 45.6381C6.15813 45.3631 5.78536 45.2086 5.39667 45.2086C5.00798 45.2086 4.63521 45.3631 4.36036 45.6381C4.08552 45.9131 3.93111 46.2861 3.93111 46.675C3.93401 47.062 4.08741 47.4328 4.35883 47.7087C4.63024 47.9845 4.99834 48.1438 5.38513 48.1528C5.77688 48.1528 6.15259 47.9971 6.42959 47.72C6.7066 47.4428 6.86222 47.0669 6.86222 46.675Z" fill="url(#paint0_linear_1514_449)"/>
<defs>
<linearGradient id="paint0_linear_1514_449" x1="14.5" y1="9.5" x2="41.5" y2="39" gradientUnits="userSpaceOnUse">
<stop stop-color="white" stop-opacity="0.66"/>
<stop offset="1" stop-color="#CECECE" stop-opacity="0"/>
</linearGradient>
</defs>
</svg>
