<svg width="46" height="46" viewBox="0 0 46 46" fill="none" xmlns="http://www.w3.org/2000/svg">
<path fill-rule="evenodd" clip-rule="evenodd" d="M8.78321 0.173582C8.57792 0.282089 8.37703 0.488855 8.26661 0.70542C8.08863 1.05458 8.08594 1.21766 8.08594 11.7631V22.4665L7.71929 22.2793C7.16648 21.997 6.06463 21.7436 5.39062 21.7436C4.63001 21.7436 3.56257 22.0149 2.84679 22.3901C2.11798 22.7722 1.02799 23.8628 0.646156 24.5921C0.271148 25.3083 0 26.3764 0 27.1375C0 27.8986 0.271148 28.9666 0.646156 29.6829C1.02799 30.4121 2.11798 31.5028 2.84679 31.8848C5.83122 33.4493 9.43297 31.9836 10.5365 28.7556L10.7363 28.1713L10.7812 16.9447L10.8262 5.71814L11.272 6.29178C12.2821 7.59144 14.7296 9.86182 16.858 11.4736C18.079 12.3981 18.5879 13.1577 18.7946 14.3641C19.1512 16.4449 17.743 18.4966 15.6509 18.9447C15.389 19.0008 15.0336 19.0466 14.8611 19.0466C14.3812 19.0466 13.8668 19.353 13.6574 19.7635C13.1558 20.7473 13.8333 21.7436 15.0041 21.7436C17.0258 21.7436 19.3251 20.4485 20.4639 18.6684C21.2497 17.4401 21.5098 16.5154 21.5082 14.9563C21.5071 13.8745 21.4853 13.724 21.215 12.9336C20.7004 11.4287 19.9392 10.4245 18.4694 9.31165C17.0349 8.2255 16.1941 7.48806 14.8182 6.10938C13.2859 4.57392 12.8264 4.00118 11.3484 1.78618C10.5529 0.593676 10.2939 0.27202 10.0279 0.145533C9.60133 -0.057277 9.20323 -0.0482871 8.78321 0.173582ZM43.4844 11.2257C43.0149 11.3629 38.669 12.5976 33.8267 13.9696C28.9845 15.3416 24.929 16.5255 24.8148 16.6004C24.7004 16.6754 24.5283 16.8908 24.4323 17.079C24.2628 17.4114 24.2578 17.6903 24.2578 26.6862V35.9512L23.8912 35.764C23.3384 35.4817 22.2365 35.2283 21.5625 35.2283C20.8019 35.2283 19.7344 35.4996 19.0187 35.8749C18.2899 36.2569 17.1999 37.3476 16.818 38.0768C16.443 38.793 16.1719 39.8611 16.1719 40.6222C16.1719 41.3833 16.443 42.4514 16.818 43.1676C17.1999 43.8968 18.2899 44.9875 19.0187 45.3696C20.2107 45.9945 21.589 46.1629 22.8566 45.8386C23.8715 45.5787 24.5608 45.1797 25.339 44.401C26.1172 43.6223 26.516 42.9326 26.7757 41.9171C26.9463 41.2495 26.9531 40.8931 26.9531 32.6686V24.1146L35.0166 21.8354C39.4516 20.5818 43.1307 19.5384 43.1924 19.5165C43.2814 19.4851 43.3047 20.6237 43.3047 25.017V30.5573L42.938 30.3701C42.3852 30.0878 41.2834 29.8344 40.6094 29.8344C39.8488 29.8344 38.7813 30.1057 38.0655 30.481C37.3367 30.863 36.2467 31.9537 35.8649 32.6829C35.4899 33.3992 35.2188 34.4672 35.2188 35.2283C35.2188 35.9894 35.4899 37.0575 35.8649 37.7737C36.2467 38.5029 37.3367 39.5936 38.0655 39.9757C39.2576 40.6006 40.6359 40.769 41.9035 40.4447C42.925 40.1831 43.6085 39.7871 44.3828 39.0079C45.16 38.2258 45.5668 37.5238 45.8226 36.5232C45.9949 35.8489 46 35.4852 46 23.9281C46 12.1783 45.9977 12.0229 45.8191 11.6726C45.6098 11.2622 45.0867 10.9503 44.6335 10.966C44.4709 10.9716 43.9538 11.0885 43.4844 11.2257ZM43.3047 15.4058C43.3047 16.1227 43.2789 16.7093 43.2475 16.7093C43.2071 16.7093 29.9117 20.4597 27.1104 21.2612C26.9658 21.3025 26.9531 21.2019 26.9531 20.0134V18.7207L35.0615 16.4182C39.5212 15.1519 43.2002 14.1128 43.2373 14.109C43.2744 14.1053 43.3047 14.6888 43.3047 15.4058ZM6.59786 24.7484C7.53753 25.2085 8.03733 26.0379 8.03733 27.1375C8.03733 27.9033 7.85073 28.4156 7.37402 28.9589C6.64305 29.7919 5.24319 30.0481 4.2063 29.5387C2.76647 28.8312 2.2743 27.0416 3.14273 25.6715C3.85951 24.5406 5.35639 24.1407 6.59786 24.7484ZM41.8166 32.8393C42.7563 33.2994 43.2561 34.1288 43.2561 35.2283C43.2561 35.9942 43.0695 36.5064 42.5928 37.0497C41.8618 37.8827 40.4619 38.1389 39.4251 37.6295C37.9852 36.922 37.4931 35.1325 38.3615 33.7623C39.0783 32.6314 40.5751 32.2316 41.8166 32.8393ZM22.7697 38.2332C23.7094 38.6933 24.2092 39.5227 24.2092 40.6222C24.2092 41.3881 24.0226 41.9003 23.5459 42.4436C22.8149 43.2766 21.4151 43.5328 20.3782 43.0234C18.9383 42.3159 18.4462 40.5264 19.3146 39.1562C20.0314 38.0253 21.5283 37.6255 22.7697 38.2332Z" fill="#FF4EF8"/>
</svg>
