<svg width="52" height="51" viewBox="0 0 52 51" fill="none" xmlns="http://www.w3.org/2000/svg">
<path fill-rule="evenodd" clip-rule="evenodd" d="M25.2371 0.134306C24.6968 0.423933 24.567 0.609121 23.7014 2.32309C23.0359 3.64068 22.7996 4.02033 22.6206 4.05873C22.4946 4.08575 21.7055 4.20269 20.8671 4.31872C20.0287 4.43476 19.1684 4.60321 18.9553 4.69303C17.9852 5.10222 17.6036 6.32635 18.1763 7.19231L18.3646 7.4771L17.3934 7.96472C15.4645 8.9332 13.8644 10.1098 12.3182 11.6966C9.7424 14.34 8.13139 17.3863 7.33203 21.1256C7.08113 22.2989 7.05663 22.6101 7.05186 24.6797C7.04627 27.0583 7.10673 27.6144 7.57186 29.4682C8.19744 31.9613 9.56171 34.7008 11.07 36.4925C11.2885 36.752 11.4671 36.9902 11.4671 37.0218C11.4671 37.0534 11.127 37.0793 10.7113 37.0793H9.9555L9.6926 36.6005C9.30705 35.8981 8.83938 35.6176 8.05426 35.6176C7.08549 35.6176 6.86254 35.846 5.79104 37.9355L4.91252 39.6487L3.05619 39.9182C1.83013 40.0963 1.08849 40.2524 0.871733 40.378C0.232939 40.7481 -0.110847 41.5336 0.0321348 42.2962C0.0905673 42.6079 0.358341 42.9307 1.55829 44.136L3.01351 45.5978L2.72267 47.2107C2.56262 48.0978 2.4298 49.0182 2.42726 49.2562C2.42086 49.8773 2.73842 50.4257 3.29074 50.7468C4.04386 51.1846 4.4975 51.0899 6.38105 50.1013C7.24464 49.6481 8.01168 49.2773 8.08555 49.2773C8.15943 49.2773 8.9658 49.6629 9.87745 50.1342C11.6496 51.0504 12.0194 51.1439 12.72 50.8536C13.1477 50.6763 13.5679 50.1776 13.7003 49.6899C13.7971 49.333 13.7154 48.5635 13.4394 47.2359L13.3818 46.9587H21.3115C27.0221 46.9587 29.3124 46.9266 29.4951 46.844C29.8401 46.688 29.9754 46.2745 29.8094 45.883C29.7383 45.715 29.6026 45.5481 29.5079 45.5121C29.4133 45.476 25.7156 45.446 21.2907 45.4455L13.2455 45.4444L14.5894 44.1602C15.3286 43.4538 15.9803 42.7482 16.0376 42.5921C16.2081 42.1276 16.1613 41.4257 15.9331 41.0229C15.5596 40.3637 15.245 40.2336 13.3426 39.9511C12.3949 39.8105 11.5266 39.6754 11.4129 39.651C11.2462 39.6153 10.7558 38.8601 10.7558 38.6392C10.7558 38.6129 17.6152 38.5915 25.999 38.5915C34.3828 38.5915 41.2423 38.6129 41.2423 38.6392C41.2423 38.6655 41.141 38.8938 41.0171 39.1468C40.758 39.6759 40.9159 39.6221 38.6591 39.9512C36.7586 40.2283 36.4408 40.3597 36.065 41.0229C35.8365 41.4261 35.79 42.1283 35.9609 42.5921C36.0185 42.7482 36.6701 43.4534 37.409 44.1593L38.7526 45.4427L35.4753 45.4446C32.3348 45.4464 32.1894 45.455 31.9947 45.6482C31.6644 45.9758 31.6888 46.4042 32.0564 46.7319C32.3088 46.9568 32.3373 46.9587 35.4636 46.9587H38.6163L38.5587 47.2359C38.2827 48.5635 38.201 49.333 38.2978 49.6899C38.5074 50.4623 39.2112 50.9911 40.0295 50.9911C40.3751 50.9911 40.7998 50.8175 42.1265 50.1342C43.0414 49.6629 43.8475 49.2773 43.9176 49.2773C43.9877 49.2773 44.7521 49.6474 45.6162 50.0997C47.5028 51.0874 47.9578 51.1825 48.7073 50.7468C49.2596 50.4257 49.5772 49.8773 49.5708 49.2562C49.5683 49.0182 49.4354 48.0978 49.2754 47.2107L48.9845 45.5978L50.4398 44.136C51.6397 42.9307 51.9075 42.6079 51.9659 42.2962C52.0592 41.7984 51.9599 41.312 51.6811 40.9016C51.2899 40.3257 50.9295 40.196 48.9298 39.9112L47.0855 39.6485L46.207 37.9354C45.1355 35.846 44.9125 35.6176 43.9438 35.6176C43.1587 35.6176 42.691 35.8981 42.3055 36.6005L42.0426 37.0793H41.2868C40.8711 37.0793 40.5309 37.0576 40.5309 37.0311C40.5309 37.0046 40.8051 36.6304 41.1402 36.1995C41.5142 35.7183 41.7495 35.3177 41.7499 35.1612C41.7511 34.6 41.171 34.2272 40.6917 34.4811C40.5584 34.5517 40.2288 34.9013 39.9593 35.2581C39.6899 35.6148 39.2232 36.1705 38.9222 36.493L38.375 37.0793H36.1775H33.98L34.3846 36.8113C35.0887 36.3448 36.4033 35.2007 36.9449 34.5831C38.7151 32.564 39.8878 30.2509 40.4479 27.6725C40.7694 26.1932 40.7694 23.3679 40.4479 21.8885C39.8023 18.9169 38.5648 16.6741 36.3679 14.4941C34.9648 13.1018 34.0514 12.4471 32.4012 11.6507C31.8143 11.3675 31.3231 11.1289 31.3095 11.1206C31.2959 11.1122 31.2384 10.8631 31.1818 10.567C31.058 9.91871 31.1206 9.79784 31.9413 9.10236L32.5103 8.62008L33.8531 9.29299C35.6564 10.1968 36.8849 11.0825 38.3462 12.532C39.8491 14.0229 40.7302 15.2353 41.643 17.0686C42.852 19.4965 43.3506 21.4345 43.4458 24.0748C43.5388 26.658 43.1751 28.9004 42.3073 31.0933C42.1128 31.5849 41.9536 32.1121 41.9536 32.2649C41.9536 32.8452 42.6994 33.1591 43.1527 32.7697C43.5634 32.4167 44.4692 29.6598 44.817 27.704C44.9033 27.2186 44.9496 26.1359 44.9462 24.6797C44.9414 22.6101 44.9169 22.2989 44.666 21.1256C43.8686 17.3955 42.2494 14.3336 39.6799 11.6966C38.1439 10.1203 36.5085 8.91626 34.5824 7.94345L33.64 7.46742L33.825 7.18747C34.3759 6.35438 34.0453 5.18801 33.1283 4.72963C32.9101 4.62055 32.1069 4.45451 31.1817 4.32719C30.3154 4.20793 29.5035 4.08777 29.3774 4.06005C29.1988 4.02073 28.9592 3.63463 28.2884 2.30545C27.2807 0.308909 27.0509 0.0657554 26.1161 0.00708408C25.7214 -0.0177152 25.4465 0.0221048 25.2371 0.134306ZM27.0445 3.25599C28.1736 5.48348 28.0649 5.40687 30.6176 5.7717C32.3732 6.02261 32.6774 6.12211 32.5216 6.3944C32.4833 6.46134 31.8724 7.06539 31.164 7.73678C29.3858 9.42182 29.4213 9.31204 29.8468 11.8035C30.0861 13.2039 30.1443 13.7525 30.0623 13.8331C29.9807 13.9132 29.4756 13.6987 28.2178 13.0498C25.9301 11.8693 26.0679 11.8693 23.7802 13.0498C22.5224 13.6987 22.0174 13.9132 21.9358 13.8331C21.8538 13.7525 21.912 13.2039 22.1512 11.8035C22.5767 9.31204 22.6123 9.42182 20.8341 7.73678C19.4445 6.4199 19.3695 6.3324 19.4795 6.15588C19.5195 6.09167 20.3741 5.92019 21.3784 5.77492C23.9342 5.40515 23.8251 5.48207 24.9535 3.25599C25.5137 2.15091 25.9034 1.49413 25.999 1.49413C26.0947 1.49413 26.4844 2.15091 27.0445 3.25599ZM20.2474 9.28099L20.9394 9.91105L20.8275 10.5071C20.7659 10.835 20.7038 11.1105 20.6897 11.1195C20.6755 11.1284 20.1837 11.3675 19.5969 11.6507C19.01 11.9339 18.1649 12.4069 17.719 12.7017C16.673 13.3932 14.9789 15.0118 14.1545 16.1074C13.3835 17.1321 12.5203 18.7459 12.087 19.9731C11.7644 20.8867 11.3655 22.6299 11.3655 23.1265C11.3655 23.7465 12.222 24.1252 12.6249 23.6835C12.7226 23.5765 12.9014 22.9939 13.0349 22.3478C13.4316 20.4298 14.0205 18.9957 15.0238 17.5054C16.0958 15.9131 18.0112 14.1733 19.6117 13.3382C19.9832 13.1443 20.3033 12.9859 20.323 12.9859C20.3429 12.986 20.3598 13.2776 20.3608 13.6341C20.3625 14.2027 20.4001 14.3279 20.6683 14.6566C21.1188 15.2089 21.5757 15.4258 22.1882 15.378C22.5842 15.347 23.0405 15.1567 24.2566 14.5148C25.1148 14.062 25.8989 13.6914 25.999 13.6914C26.0991 13.6914 26.8832 14.0651 27.7414 14.5219C29.2029 15.2997 29.3409 15.3525 29.9194 15.3536C30.445 15.3546 30.5945 15.3113 30.9223 15.0632C31.4251 14.6828 31.7295 14.0093 31.663 13.4243C31.6356 13.1831 31.6352 12.9858 31.6621 12.9858C31.8427 12.9858 33.2064 13.7984 33.9284 14.3362C37.3903 16.9153 39.3853 21.1178 39.1736 25.3854C38.9296 30.3019 36.1882 34.393 31.6159 36.664L30.7797 37.0793H26.0417H21.3036L20.4512 36.6831C16.5814 34.8842 13.7949 31.3377 13.0394 27.2504C12.8285 26.1091 12.7493 25.9134 12.4415 25.7743C12.1024 25.6211 11.708 25.7387 11.4986 26.0557C11.3341 26.3048 11.3341 26.376 11.4978 27.3281C11.8143 29.1678 12.6937 31.3605 13.7284 32.8899C14.7246 34.3623 16.2684 35.9206 17.6134 36.8114L18.0181 37.0793H15.8313H13.6444L13.1835 36.6005C11.5671 34.9207 10.0934 32.4471 9.34007 30.1491C8.72191 28.2636 8.57029 27.1874 8.57659 24.7301C8.58157 22.8217 8.61429 22.3652 8.81154 21.458C9.53295 18.1388 10.9854 15.328 13.2079 12.95C14.0933 12.0027 15.4581 10.8654 16.5482 10.1666C17.1397 9.78736 19.3509 8.65093 19.4973 8.65093C19.5293 8.65093 19.8669 8.93451 20.2474 9.28099ZM17.2697 20.9894C17.0759 21.194 16.95 21.7329 16.4392 24.5429C16.1081 26.3646 15.8371 27.9721 15.837 28.1149C15.8369 28.442 16.2257 28.8129 16.5689 28.8129C17.1564 28.8129 17.2461 28.6131 17.6429 26.42C17.8455 25.3001 18.0345 24.4068 18.063 24.435C18.0914 24.4633 18.391 25.4031 18.7287 26.5236C19.3426 28.5602 19.3429 28.561 19.7161 28.7419C20.0519 28.9047 20.1245 28.9084 20.4404 28.7774C20.6335 28.6974 20.8239 28.5798 20.8635 28.5163C20.9031 28.4527 21.2007 27.4841 21.5248 26.3638C21.9642 24.845 22.1306 24.391 22.179 24.5789C22.2146 24.7175 22.4016 25.6475 22.5945 26.6455C22.9726 28.6021 23.0758 28.8129 23.6552 28.8129C23.9995 28.8129 24.3731 28.4343 24.3731 28.0855C24.3731 27.6235 23.1464 21.43 22.9988 21.1469C22.9204 20.9965 22.7823 20.8452 22.6917 20.8107C22.3613 20.6849 21.8678 20.7509 21.6528 20.9496C21.4319 21.1538 21.3627 21.3555 20.6151 23.974C20.3855 24.778 20.1728 25.5038 20.1423 25.587C20.1118 25.6702 19.7743 24.6957 19.3922 23.4216C18.6348 20.8957 18.5511 20.7481 17.8758 20.7481C17.6089 20.7481 17.4312 20.8189 17.2697 20.9894ZM24.2754 20.9688C24.1615 21.0901 24.0682 21.2864 24.0682 21.4052C24.0682 21.5239 24.5975 23.1371 25.2444 24.9901C26.0584 27.3219 26.4955 28.4353 26.6642 28.6063C27.0112 28.9577 27.5707 28.9462 27.8872 28.5811C28.0391 28.406 28.523 27.1067 29.2459 24.9332C29.8635 23.0764 30.3688 21.4947 30.3688 21.4183C30.3688 21.3419 30.2739 21.1598 30.1581 21.0138C29.885 20.6693 29.3756 20.651 29.0778 20.9749C28.9605 21.1026 28.5204 22.248 28.0718 23.5934C27.6331 24.9088 27.2457 25.9522 27.2109 25.912C27.176 25.8719 26.7871 24.7998 26.3466 23.5297C25.9061 22.2596 25.4614 21.1141 25.3585 20.9842C25.1097 20.6705 24.5628 20.6627 24.2754 20.9688ZM31.0801 20.9497C30.8845 21.1438 30.8769 21.2857 30.8769 24.7218C30.8769 26.6856 30.9053 28.3658 30.94 28.4555C30.9747 28.5454 31.1395 28.6887 31.3061 28.7742C31.5486 28.8986 31.6652 28.9066 31.8903 28.814C32.3052 28.6435 32.4012 28.3204 32.4012 27.0944V25.9902H33.0941C34.0367 25.9902 34.7161 25.7711 35.2685 25.2888C35.9161 24.7234 36.1999 24.0316 36.1378 23.1706C36.083 22.4115 35.9021 22.01 35.3822 21.4941C34.7378 20.855 34.374 20.7529 32.7315 20.7503C31.4172 20.7483 31.2646 20.7668 31.0801 20.9497ZM34.2914 22.603C34.5576 22.8671 34.6369 23.0299 34.6369 23.3122C34.6369 24.0782 34.0802 24.4781 33.0142 24.4781H32.4012V23.3692V22.2603H33.1735C33.9164 22.2603 33.9591 22.2734 34.2914 22.603ZM9.07901 38.7637C9.52614 39.6624 9.98334 40.4949 10.095 40.6138C10.4579 41.0001 10.8237 41.1096 12.607 41.3654C14.5952 41.6504 14.6174 41.6559 14.6174 41.8586C14.6174 41.9402 13.9804 42.6333 13.202 43.3991C11.9869 44.5942 11.7759 44.8483 11.712 45.1945C11.6611 45.4695 11.7288 46.159 11.9246 47.3619C12.0826 48.3322 12.2158 49.1924 12.2205 49.2735C12.2392 49.5903 11.8321 49.4589 10.3328 48.6641C8.1012 47.4812 8.15669 47.4815 5.91197 48.6328C4.53266 49.3403 4.13755 49.5034 4.03837 49.4064C3.93847 49.3088 3.97872 48.9035 4.23348 47.4406C4.50146 45.9019 4.53621 45.5311 4.44364 45.1945C4.35634 44.8771 4.02963 44.4873 2.90681 43.362C2.03479 42.4879 1.50179 41.8787 1.53461 41.7937C1.5715 41.6983 2.09424 41.5824 3.19958 41.4244C4.08582 41.2978 4.98294 41.151 5.1933 41.0983C5.90364 40.9203 6.24315 40.4969 7.10501 38.7146C7.73974 37.4018 7.94064 37.07 8.08474 37.0965C8.20537 37.1186 8.53797 37.6763 9.07901 38.7637ZM44.8975 38.7175C45.7168 40.4051 45.917 40.6999 46.4191 40.9575C46.6573 41.0797 49.7885 41.6157 50.2644 41.6158C50.336 41.6158 50.4222 41.687 50.4559 41.7742C50.4987 41.8847 50.0861 42.3648 49.0912 43.362C47.9684 44.4873 47.6417 44.8771 47.5544 45.1945C47.4618 45.5311 47.4966 45.9019 47.7646 47.4406C48.0184 48.8986 48.0594 49.3091 47.9604 49.4064C47.8618 49.5033 47.4687 49.3401 46.1038 48.6359C43.8664 47.4814 43.9019 47.4812 41.6673 48.6658C40.1713 49.4589 39.7587 49.5915 39.7775 49.2735C39.7823 49.1924 39.9154 48.3322 40.0734 47.3619C40.2702 46.153 40.3369 45.4708 40.2854 45.1945C40.221 44.8493 40.0063 44.5899 38.7954 43.3935C38.0173 42.6247 37.3807 41.9314 37.3807 41.853C37.3807 41.6565 37.4101 41.6493 39.391 41.3654C40.357 41.2268 41.2807 41.0451 41.4436 40.9615C41.8865 40.7343 42.1849 40.286 42.9602 38.6836C43.3469 37.8844 43.6978 37.1966 43.7399 37.1549C43.965 36.9331 44.1576 37.1931 44.8975 38.7175ZM18.9262 41.3565C18.4366 41.5679 18.3135 42.1572 18.6823 42.5231C18.8816 42.7208 19.021 42.7247 25.999 42.7247C32.9771 42.7247 33.1164 42.7208 33.3158 42.5231C33.7026 42.1394 33.5358 41.5099 32.9979 41.3239C32.4858 41.1469 19.3412 41.1772 18.9262 41.3565Z" fill="#9549D1"/>
</svg>
