<svg width="35" height="35" viewBox="0 0 35 35" fill="none" xmlns="http://www.w3.org/2000/svg">
<path fill-rule="evenodd" clip-rule="evenodd" d="M2.34412 0.0627774C1.4564 0.239372 0.654123 0.899455 0.23114 1.80119L0 2.29398V17.5071V32.7202L0.23114 33.213C0.556316 33.9061 1.02018 34.3816 1.69623 34.7141L2.27702 35H17.5H32.723L33.3038 34.7141C33.9798 34.3816 34.4437 33.9061 34.7689 33.213L35 32.7202V17.5053V2.29029L34.714 1.70974C34.3813 1.03396 33.9057 0.570291 33.2123 0.245247L32.7193 0.0142006L17.7193 0.00113571C9.4693 -0.00605436 2.55044 0.0216537 2.34412 0.0627774ZM18.7117 0.410443C20.975 0.610625 23.2377 1.33516 25 2.42401C25.3377 2.63261 25.9787 3.00439 26.4243 3.25017C27.6949 3.95067 28.7781 4.75833 29.7869 5.75748C32.0243 7.97307 33.3563 10.4955 33.9663 13.6722C34.0962 14.3486 34.1216 14.9659 34.1203 17.4194C34.1189 20.13 34.1036 20.4279 33.9217 21.2775C33.6192 22.6897 33.2488 23.7476 32.5861 25.0917C31.2554 27.7907 29.1218 29.9764 26.3158 31.5148C25.8816 31.7529 25.25 32.1185 24.9123 32.3271C23.6724 33.0934 22.0218 33.7252 20.307 34.0899C18.9567 34.3772 16.2126 34.3833 14.8246 34.1021C13.1286 33.7586 11.3422 33.0817 10.0958 32.3102C9.85009 32.1582 9.19518 31.7796 8.64035 31.4691C8.08553 31.1584 7.37921 30.7248 7.07079 30.5055C3.95404 28.2895 1.76561 24.823 1.08018 21.0164C0.828246 19.6173 0.807895 15.4327 1.04588 13.9585C1.44439 11.4893 2.44298 9.16391 3.94851 7.199C5.05912 5.74968 7.02711 4.0893 8.64035 3.24061C9.00219 3.05025 9.51535 2.75475 9.7807 2.58395C11.5815 1.42477 14.0475 0.597736 16.2429 0.416757C17.4903 0.313904 17.6173 0.313553 18.7117 0.410443ZM16.4912 1.2473C16.3465 1.26685 15.8925 1.32814 15.4825 1.38356C14.331 1.5392 14.3475 1.59093 15.555 1.6111C16.1664 1.62127 16.864 1.66178 17.1053 1.70097C17.3465 1.74025 17.7807 1.74245 18.0702 1.70588C18.3596 1.66932 18.9912 1.60803 19.4737 1.56971L20.3509 1.5L19.6691 1.39303C18.9475 1.27983 16.9344 1.1875 16.4912 1.2473ZM20.4661 1.60855C20.5293 1.63389 20.605 1.63074 20.6341 1.60163C20.6632 1.57252 20.6115 1.55182 20.519 1.55559C20.4168 1.5598 20.3961 1.58058 20.4661 1.60855ZM13.7719 2.52695C12.0323 2.7217 10.0218 3.39353 9.12281 4.08044C8.06579 4.8881 6.46886 6.65186 5.99754 7.5322C5.8914 7.73037 5.81491 7.77114 6.89377 7.05441C7.84342 6.4237 8.91 5.90488 9.86842 5.60754C10.5247 5.40394 10.6869 5.30907 11.2227 4.81611C12.0021 4.09886 13.006 3.43395 14.1589 2.8712C15.1623 2.38149 15.1522 2.37245 13.7719 2.52695ZM20.9649 2.8947C21.9933 3.40221 22.9771 4.06536 23.9035 4.87574C24.3666 5.28083 24.6137 5.42078 25.2193 5.62113C26.5135 6.04929 28.2455 6.97383 28.983 7.63014L29.1941 7.81805L29.0268 7.52668C28.4024 6.43861 26.6318 4.53622 25.6161 3.8622C24.6902 3.24754 22.4461 2.61402 20.7018 2.47469L20 2.41858L20.9649 2.8947ZM16.3596 2.93687C15.9013 3.07322 15.2697 3.29436 14.9561 3.42817C14.32 3.69955 12.9455 4.49387 12.549 4.81936L12.2911 5.03111L13.6017 5.08188C15.0387 5.13756 15.8896 5.29083 16.8711 5.67068L17.5143 5.91961L18.0946 5.70128C19.1453 5.306 20.1054 5.12537 21.465 5.06724L22.7547 5.01217L22.2545 4.6382C21.602 4.15033 19.8451 3.28884 18.9123 2.99939C17.8003 2.65436 17.346 2.64322 16.3596 2.93687ZM11.6671 6.03377C11.3778 6.08253 11.0847 6.16854 11.0157 6.22493C10.6947 6.48719 9.81395 7.8049 9.42737 8.60142C9.05088 9.37707 8.64035 10.5808 8.64035 10.9089C8.64035 10.9896 8.74588 10.9683 9.00728 10.835C9.68123 10.4913 10.5163 10.2144 11.6594 9.95578C12.2826 9.81478 12.9142 9.62311 13.0629 9.52981C13.2117 9.43652 13.7321 8.93426 14.2196 8.41377C14.707 7.8932 15.4052 7.2503 15.7711 6.98505C16.137 6.71981 16.4389 6.47649 16.4418 6.44431C16.4449 6.41222 16.0823 6.29683 15.636 6.18792C14.7094 5.96187 12.5831 5.87928 11.6671 6.03377ZM20.1316 6.02623C19.4596 6.15259 18.6404 6.38758 18.6404 6.45413C18.6404 6.48894 18.8674 6.67194 19.1447 6.86072C19.4221 7.04942 20.1623 7.723 20.7895 8.35739C21.4167 8.99187 22.0149 9.55357 22.1189 9.60575C22.2228 9.65783 22.8777 9.83679 23.5741 10.0033C24.2705 10.1699 25.1998 10.4611 25.6393 10.6504L26.4382 10.9947L26.3858 10.7217C26.1866 9.68405 25.5178 8.20859 24.7917 7.20426C24.0033 6.11392 24.0277 6.13268 23.2612 6.0272C22.4692 5.91829 20.7089 5.91777 20.1316 6.02623ZM8.72167 6.99295C7.59868 7.53509 6.58088 8.25086 5.64412 9.15724C4.80526 9.96902 4.79526 9.98366 4.60974 10.6709C4.50667 11.0526 4.36491 11.6914 4.29465 12.0904C4.16544 12.8244 4.11982 14.9711 4.22254 15.4845C4.27825 15.763 4.27904 15.7623 4.63158 15.1228C5.28421 13.9388 6.21649 12.7849 7.09772 12.0702C7.62553 11.6422 7.65535 11.5973 7.70728 11.156C7.83798 10.0443 8.58904 8.08321 9.2543 7.11676C9.40842 6.89281 9.51789 6.69316 9.49763 6.6729C9.47737 6.65265 9.12816 6.79662 8.72167 6.99295ZM25.8043 7.13385C26.5419 8.28646 27.1929 10.024 27.3665 11.3035C27.3976 11.5326 27.4568 11.72 27.4981 11.72C27.5394 11.72 27.8991 12.0258 28.2975 12.3995C29.1167 13.168 29.8505 14.1123 30.4077 15.115L30.7868 15.7973L30.8588 15.2273C31.0409 13.7855 30.7035 11.0976 30.2133 10.0856C29.9964 9.63749 28.9804 8.67025 27.9941 7.97264C27.3904 7.5457 25.7294 6.63686 25.5493 6.63502C25.5138 6.63458 25.6285 6.85914 25.8043 7.13385ZM4.83649 7.46819C4.02123 8.4784 3.19833 9.87257 2.76825 10.972C2.57246 11.4726 2.41237 11.9147 2.41246 11.9545C2.41254 11.9943 2.61158 11.6961 2.85482 11.2919C3.09807 10.8877 3.47175 10.33 3.68526 10.0527C3.89877 9.77533 4.15272 9.34717 4.24974 9.1013C4.45447 8.58204 4.93561 7.63006 5.26395 7.09466C5.38956 6.88966 5.48026 6.722 5.46553 6.72209C5.4507 6.72209 5.16763 7.05783 4.83649 7.46819ZM29.8232 7.16042C30.1395 7.70485 30.6913 8.80695 30.833 9.17715C30.8975 9.34594 31.1452 9.75077 31.3832 10.0767C31.6212 10.4027 32.0094 10.991 32.2457 11.3841C32.4821 11.7771 32.6754 12.0711 32.6754 12.0376C32.6754 11.8671 32.0071 10.2783 31.6935 9.70325C31.2398 8.87139 30.4195 7.67267 29.9532 7.16042L29.5939 6.76585L29.8232 7.16042ZM16.6505 7.41444C16.1252 7.76562 15.5232 8.29952 14.7735 9.07885C13.5134 10.3888 13.3984 10.4565 11.8421 10.8039C10.6407 11.072 9.94211 11.3165 9.07325 11.7729L8.46491 12.0925V12.7315C8.46491 13.5439 8.63544 14.4319 9.05053 15.7808C9.47781 17.1691 9.47939 17.5829 9.06298 18.91C8.59781 20.3928 8.52132 20.7901 8.51474 21.7598L8.50877 22.6366L9.12281 22.9625C9.89272 23.3712 10.7753 23.6695 12.0354 23.947C12.5761 24.066 13.174 24.2428 13.3643 24.3399C13.5546 24.4369 14.1189 24.9543 14.6183 25.4896C15.5222 26.4586 16.3974 27.1933 17.1491 27.6143L17.5439 27.8354L18.1579 27.4733C18.5868 27.2204 19.158 26.7234 20.0518 25.8254C20.7722 25.1017 21.4958 24.4559 21.7072 24.3482C21.9137 24.2429 22.5219 24.0583 23.0589 23.9381C24.3332 23.6529 25.2144 23.3553 25.9348 22.9671C26.6232 22.5961 26.6459 22.5371 26.5368 21.4029C26.4458 20.4548 26.3712 20.1177 25.9692 18.8361C25.6075 17.6826 25.5818 17.1925 25.8376 16.3214C26.3715 14.5043 26.4549 14.1443 26.5331 13.3201C26.5828 12.7965 26.5862 12.3367 26.5414 12.2189C26.3868 11.8126 24.8721 11.1776 23.1275 10.7877C22.5653 10.6621 21.9474 10.4822 21.7544 10.3881C21.5602 10.2933 20.9139 9.71658 20.307 9.0963C19.7039 8.48006 18.9934 7.82015 18.7281 7.62979C18.1738 7.23215 17.6127 6.89737 17.5007 6.89737C17.4584 6.89737 17.0758 7.13008 16.6505 7.41444ZM31.6615 12.2461C31.6876 12.3666 31.7339 12.8993 31.7643 13.4298C31.822 14.4384 31.7221 15.5893 31.4806 16.6966C31.3489 17.3005 31.3511 17.3785 31.5235 18.2353C31.7503 19.3615 31.8348 20.8288 31.729 21.8036C31.6846 22.2135 31.6565 22.5596 31.6666 22.5727C31.7191 22.6406 32.3823 21.1169 32.6368 20.3433C33.1746 18.7091 33.3349 17.3216 33.1166 16.1918C32.9589 15.3759 32.6034 14.1495 32.3396 13.5114C32.0235 12.7471 31.598 11.953 31.6615 12.2461ZM2.99263 12.8608C2.39491 14.168 1.96254 15.6967 1.82877 16.9764C1.71026 18.1098 2.46649 21.055 3.17474 22.2186C3.33105 22.4754 3.33351 22.453 3.34307 20.6288C3.35123 19.0703 3.38114 18.6685 3.53263 18.0811L3.71246 17.3836L3.52667 16.5905C3.36982 15.9207 3.34026 15.514 3.33711 13.9778C3.335 12.9772 3.32895 12.1584 3.3236 12.1584C3.31825 12.1584 3.1693 12.4745 2.99263 12.8608ZM6.93649 13.3947C5.98246 14.4191 5.22395 15.6575 4.78167 16.9131C4.62202 17.3662 4.62228 17.3729 4.82061 17.8997C5.32009 19.2261 6.09807 20.4567 7.00289 21.3517L7.56553 21.908L7.62614 21.3078C7.69974 20.5802 7.92509 19.5978 8.2843 18.4389C8.43184 17.9628 8.55263 17.4636 8.55263 17.3296C8.55263 17.1956 8.39272 16.5791 8.19719 15.9594C7.99947 15.3328 7.775 14.3696 7.69132 13.7893L7.54079 12.7459L6.93649 13.3947ZM27.4123 13.1837C27.4123 13.8085 27.2109 14.7978 26.8453 15.9683C26.6747 16.5147 26.5351 17.1431 26.5351 17.3649C26.5351 17.5866 26.6549 18.142 26.8014 18.5992C27.1601 19.7184 27.4081 20.8716 27.4104 21.4309C27.4114 21.6841 27.4481 21.8913 27.4918 21.8913C27.6289 21.8913 28.7125 20.667 29.1268 20.044C29.5671 19.3819 30.2786 17.9343 30.3575 17.5398C30.3908 17.3732 30.3289 17.0731 30.1789 16.6746C29.7163 15.4464 28.8989 14.1962 27.9443 13.2572L27.4123 12.7339V13.1837ZM4.22263 19.1784C4.19184 19.3322 4.16667 20.0004 4.16667 20.6632C4.16667 21.9408 4.30842 22.9985 4.62377 24.0743C4.79702 24.6652 4.87289 24.7831 5.47711 25.3992C6.51219 26.4546 8.15184 27.5601 9.36719 28.022C9.59018 28.1067 9.58684 28.0943 9.24404 27.5649C8.51342 26.4367 7.96202 25.0338 7.75158 23.7676C7.6586 23.2079 7.59395 23.042 7.41474 22.9028C6.395 22.1111 5.28667 20.79 4.66719 19.6278C4.28491 18.9108 4.27763 18.9035 4.22263 19.1784ZM30.5332 19.3485C29.8787 20.6166 28.9238 21.836 27.9959 22.5885C27.4368 23.042 27.4254 23.0598 27.328 23.6323C27.1029 24.9559 26.4895 26.5335 25.7944 27.5764C25.6228 27.8339 25.4825 28.0597 25.4825 28.0784C25.4825 28.0971 25.7872 27.9736 26.1596 27.8039C27.1775 27.3403 28.4991 26.4202 29.4081 25.5424C30.1674 24.8092 30.2312 24.7197 30.4001 24.1532C30.8238 22.7311 31.0098 20.8489 30.8577 19.5238L30.7822 18.8662L30.5332 19.3485ZM32.5846 22.6881C32.4364 23.0456 31.6003 24.377 31.2403 24.8287C31.0865 25.0216 30.866 25.4162 30.7502 25.7055C30.552 26.2009 30.0179 27.223 29.6506 27.8099C29.5377 27.9904 29.5942 27.9521 29.8307 27.6879C30.431 27.0174 31.2494 25.8225 31.7081 24.9471C32.1226 24.156 32.7941 22.5068 32.7284 22.4412C32.7123 22.425 32.6475 22.5361 32.5846 22.6881ZM2.3257 22.5303C2.32509 22.5683 2.45781 22.9442 2.62061 23.3657C3.20877 24.888 3.93658 26.1502 4.89246 27.3058C5.42404 27.9484 5.63719 28.1433 5.32386 27.7003C5.1314 27.4282 4.55132 26.3 4.2307 25.574C4.11351 25.3088 3.80447 24.8051 3.54395 24.4547C3.28333 24.1043 2.90289 23.5125 2.69851 23.1395C2.49404 22.7665 2.32632 22.4923 2.3257 22.5303ZM8.68175 24.0615C8.9086 25.2856 9.87509 27.1882 10.8244 28.279C11.0675 28.5583 11.1283 28.5793 12.075 28.7094C13.2549 28.8716 14.7302 28.7749 15.8548 28.4616L16.5343 28.2723L15.8987 27.8268C15.5491 27.5818 14.75 26.8617 14.1228 26.2266C13.1413 25.2328 12.9275 25.0584 12.5877 24.9747C12.3706 24.9211 11.7095 24.7591 11.1184 24.6146C10.5275 24.47 9.74228 24.2124 9.3736 24.0422C9.005 23.872 8.68482 23.7326 8.66211 23.7326C8.63939 23.7326 8.64825 23.8807 8.68175 24.0615ZM25.6179 24.062C25.2341 24.2326 24.3247 24.5184 23.5971 24.697C22.8695 24.8756 22.1769 25.0725 22.0582 25.1344C21.9393 25.1963 21.3289 25.7705 20.7018 26.4102C20.0746 27.0499 19.3339 27.7213 19.0557 27.9022C18.7775 28.0831 18.5675 28.2486 18.5889 28.27C18.6834 28.3645 19.9721 28.652 20.6969 28.7403C21.4845 28.8362 22.6384 28.7937 23.5088 28.6368C23.8515 28.575 24.0123 28.4855 24.2442 28.2277C24.6886 27.7337 25.4462 26.5477 25.7517 25.8681C25.9646 25.3942 26.4474 23.936 26.4474 23.7667C26.4474 23.7044 26.3211 23.7493 25.6179 24.062ZM5.92132 27.0466C5.92211 27.2261 7.39596 29.045 8.03403 29.6539C9.3786 30.937 9.90702 31.2435 11.6396 31.7454C12.4587 31.9826 13.9976 32.238 14.6088 32.238C14.9823 32.238 14.9794 32.2355 14.0981 31.8047C12.9777 31.257 12.2177 30.7543 11.2622 29.9286C10.7922 29.5226 10.3945 29.2517 10.2096 29.2117C9.33965 29.0238 7.56658 28.1647 6.56289 27.4449C6.20991 27.1918 5.92114 27.0125 5.92132 27.0466ZM28.4184 27.4818C27.5445 28.1065 26.3104 28.7268 25.2261 29.0864C24.4957 29.3287 24.326 29.4272 23.7677 29.9326C22.9556 30.6678 22.0644 31.2635 20.9655 31.8056L20.0889 32.238L20.5269 32.2376C22.0547 32.2364 24.8739 31.4289 25.7668 30.7368C26.5998 30.091 27.2646 29.4644 27.8354 28.787C28.356 28.1691 29.2218 26.9755 29.148 26.9776C29.1341 26.9781 28.8059 27.205 28.4184 27.4818ZM16.7105 29.0839C15.7245 29.4496 14.6282 29.6313 13.3553 29.6399C12.7402 29.6441 12.2368 29.6533 12.2368 29.6603C12.2368 29.6674 12.5327 29.8777 12.8945 30.1277C14.2086 31.0357 16.5289 31.9775 17.5 31.9971C18.5689 32.0186 21.3818 30.8167 22.5 29.8608L22.807 29.5983L22.2807 29.6523C21.2317 29.7601 19.152 29.4372 18.0189 28.9907C17.4918 28.7831 17.5289 28.7804 16.7105 29.0839ZM16.7982 33.0267C16.5811 33.068 15.9693 33.1094 15.4386 33.1186L14.4737 33.1352L15.0877 33.2708C15.9394 33.4588 18.8613 33.4707 19.8246 33.2902L20.5263 33.1586L19.4298 33.1037C18.8268 33.0735 18.0768 33.0269 17.7632 33.0002C17.4496 32.9735 17.0154 32.9854 16.7982 33.0267Z" fill="white"/>
</svg>
