<svg width="134" height="38" viewBox="0 0 134 38" fill="none" xmlns="http://www.w3.org/2000/svg">
<path d="M81.6072 21.3614C81.4558 20.8064 81.3654 20.2369 81.3377 19.6628V8.36907H85.9188V30.1255L71.2564 18.1328C70.7761 17.7274 70.3558 17.2576 70.0078 16.7369C70.1437 17.2308 70.2211 17.7386 70.2383 18.2501V29.6346H65.6572V7.96289L80.186 19.717C80.7285 20.2041 81.207 20.7566 81.6102 21.3614H81.6072Z" fill="#828F99"/>
<path d="M123.081 8.36914C130.335 8.36914 132.196 11.1955 132.196 15.2591C132.196 18.2078 130.001 21.0874 125.574 21.4315L125.088 21.4542C125.421 21.5387 125.724 21.712 125.964 21.955L134 29.6337H127.787L116.57 18.3823H122.159C127.161 18.3823 127.305 15.7797 127.342 15.1182C127.435 13.4324 126.888 12.0788 123.07 12.0788H116.683V29.6327H111.92V8.36914H123.081Z" fill="#828F99"/>
<path d="M87.9844 19.3057C87.9844 10.3957 95.5347 8.05728 101.879 8.05728C104.284 8.04249 106.683 8.2831 109.035 8.77497L109.044 13.2931C106.738 12.4959 104.322 12.0514 101.879 11.975C95.865 11.975 92.9438 14.2819 92.9438 19.3057C92.9438 23.4206 96.0916 26.0399 101.879 26.0399C104.473 26.02 107.047 25.5938 109.506 24.7771L109.499 29.1581C106.993 29.6782 104.44 29.946 101.879 29.9577C95.1015 29.9577 87.9844 26.7044 87.9844 19.3057Z" fill="#828F99"/>
<path d="M36.4412 8.91699L40.9065 13.0713C40.7858 13.1255 40.646 13.1916 40.4814 13.2754C40.1574 13.4422 39.8447 13.6295 39.5452 13.8363C38.4767 14.5975 37.4961 15.4723 36.6209 16.4449L27.8929 25.5698C26.636 26.9727 25.1344 28.1414 23.4595 29.0202L18.9932 24.8649C19.1149 24.8097 19.2556 24.7456 19.4183 24.6608C19.7423 24.4947 20.0544 24.3069 20.3525 24.0989C21.4211 23.3382 22.4018 22.4638 23.2769 21.4914L32.0039 12.3812C33.2622 10.9736 34.7653 9.79975 36.4422 8.91504L36.4412 8.91699Z" fill="#57AC33"/>
<path d="M19.1498 30.9756C20.8797 31.0186 22.5966 30.6699 24.169 29.9563C24.8914 29.5734 25.5801 29.1315 26.228 28.6353C27.1102 27.954 27.942 27.2114 28.7171 26.4132L37.4552 17.3149C39.6579 15.0208 40.9833 14.314 41.7857 14.034L46.269 18.2278C45.3328 19.2136 34.1775 30.952 34.1775 30.952C33.415 31.7614 32.6146 32.5441 32.0706 33.04C31.5477 33.5151 30.6524 34.223 30.1893 34.5601C27.0511 36.8474 23.24 38.0551 19.3404 37.9978C8.6492 37.9978 0 29.4003 0 19.5015C0 7.22089 9.71411 0.0942672 18.5639 0.0942672C20.8059 0.0133064 23.0442 0.334636 25.1701 1.04265C26.4315 1.4871 27.6556 2.02902 28.8309 2.66338C27.4741 3.59798 26.2415 4.69725 25.162 5.93537L23.3706 7.83607C21.8986 7.31747 20.3416 7.0744 18.7795 7.11935C17.2042 7.15969 15.6524 7.50671 14.2131 8.14051C12.7739 8.7743 11.4754 9.68241 10.392 10.8128C9.30873 11.9432 8.46192 13.2737 7.90013 14.7279C7.33833 16.1822 7.0726 17.7317 7.11817 19.2876C7.19581 22.3973 8.49482 25.3554 10.7405 27.5362C12.9862 29.7171 16.0026 30.9498 19.1518 30.9737L19.1498 30.9756Z" fill="#57AC33"/>
<path d="M35.6723 8.0434C34.9503 8.42736 34.2616 8.86954 33.6133 9.36541C32.7314 10.0459 31.9002 10.7882 31.1261 11.5865L22.3861 20.6848C20.1834 22.9788 18.86 23.6857 18.0555 23.9647L13.5723 19.7749C14.5094 18.789 25.6647 7.04868 25.6647 7.04868C26.4273 6.23931 27.2267 5.45655 27.7697 4.96067C28.2926 4.48352 29.1899 3.77767 29.653 3.43952C32.7922 1.15271 36.6037 -0.0547925 40.5039 0.00190949C51.1951 0.00190949 59.8432 8.59941 59.8432 18.4972C59.8432 30.7808 50.1291 37.9044 41.2794 37.9044C39.0373 37.9869 36.7987 37.6655 34.6732 36.956C33.4093 36.5102 32.1823 35.9679 31.0034 35.3343C32.3581 34.3961 33.5925 33.2987 34.6792 32.0663L36.4757 30.1636C37.9475 30.6827 39.5046 30.9254 41.0668 30.8793C42.6419 30.8386 44.1934 30.4913 45.6324 29.8572C47.0714 29.2232 48.3696 28.315 49.4526 27.1845C50.5356 26.054 51.3822 24.7236 51.9437 23.2694C52.5053 21.8152 52.7708 20.2659 52.7251 18.7102C52.6467 15.6005 51.3471 12.6428 49.1011 10.4623C46.8551 8.28188 43.8386 7.0496 40.6895 7.026C38.9601 6.9826 37.2436 7.33062 35.6713 8.0434H35.6723Z" fill="#57AC33"/>
</svg>
