<svg width="46" height="46" viewBox="0 0 46 46" fill="none" xmlns="http://www.w3.org/2000/svg">
<path fill-rule="evenodd" clip-rule="evenodd" d="M3.03102 0.0836729C1.95995 0.292791 0.823866 1.18977 0.367454 2.18663C-0.606422 4.3135 0.422573 6.67943 2.66183 7.46196C3.05054 7.59781 3.34798 7.6317 3.96138 7.61004L4.75695 7.5819L5.78217 9.73259C6.34612 10.9155 6.80748 11.9153 6.80748 11.9544C6.80748 11.9935 6.56723 12.1886 6.27365 12.3879C3.80951 14.0611 2.31925 16.8707 2.31368 19.8539C2.3081 22.8397 3.48546 25.2421 5.97064 27.316L6.34765 27.6306L5.65593 28.8658C5.1408 29.7857 4.92977 30.0871 4.82934 30.0464C4.75516 30.0163 4.41042 29.9716 4.06326 29.9469C2.08277 29.8065 0.379593 31.1805 0.0470849 33.1869C-0.208365 34.7282 0.643945 36.4039 2.04555 37.1157C4.16918 38.1945 6.68861 37.1612 7.44004 34.9034C7.6009 34.4201 7.63084 34.1628 7.60027 33.5249C7.5572 32.6232 7.30471 31.9949 6.70848 31.3063C6.5157 31.0835 6.3579 30.8631 6.3579 30.8167C6.3579 30.668 7.69594 28.349 7.77012 28.3693C7.80941 28.3799 8.1349 28.4898 8.49349 28.6136C10.1157 29.1734 12.1301 29.2641 13.731 28.8496C14.5617 28.6346 15.9104 28.0348 16.5447 27.5985C16.7641 27.4476 16.9796 27.3121 17.0238 27.2975C17.1195 27.2659 20.0251 30.4075 20.0251 30.5426C20.0251 30.5941 19.909 30.7691 19.767 30.9315C18.3493 32.554 17.4698 35.2764 17.6531 37.4746L17.712 38.1808L17.3624 38.2718C16.8087 38.4159 14.3051 39.0035 14.2448 39.0035C14.2147 39.0035 14.0417 38.7799 13.8603 38.5066C13.1901 37.4971 12.1857 36.9268 10.9648 36.8624C9.54469 36.7875 8.47029 37.2874 7.64468 38.4076C5.95283 40.7028 7.31002 43.9421 10.1615 44.4145C12.1946 44.7514 14.1401 43.3012 14.4745 41.1996C14.58 40.5371 14.5858 40.5266 14.898 40.4436C15.6465 40.2447 17.8952 39.7228 18.004 39.7228C18.0694 39.7228 18.1709 39.8745 18.2296 40.0599C18.2882 40.2454 18.4973 40.7005 18.6943 41.0714C20.9407 45.2997 25.8985 47.1073 30.3092 45.306C33.0214 44.1983 35.0555 41.8241 35.7858 38.9136C35.9356 38.3168 35.9777 37.8739 35.9785 36.8908C35.9799 35.3002 35.7267 34.0854 35.1563 32.9465C35.0357 32.7056 34.9705 32.476 35.0115 32.4363C35.1014 32.3489 39.0379 29.7761 39.2787 29.6473C39.4147 29.5744 39.5302 29.6189 39.861 29.8715C40.4698 30.3363 41.167 30.5781 42.0265 30.6225C43.1667 30.6813 44.0887 30.3137 44.9173 29.47C47.0617 27.2868 45.8003 23.5797 42.7406 23.0727C40.8939 22.7668 39.1187 23.8976 38.5061 25.7705C38.3542 26.2344 38.3512 26.4761 38.4785 28.0132C38.5025 28.3026 38.4779 28.322 36.2998 29.7409L34.0969 31.1758L33.6483 30.6684C33.0895 30.0362 32.0745 29.2238 31.3083 28.7953C30.9875 28.616 30.725 28.428 30.725 28.3776C30.725 28.2604 34.3343 18.2129 34.4083 18.1241C34.4388 18.0874 34.6038 18.0984 34.7748 18.1483C34.9459 18.1983 35.4906 18.2816 35.9851 18.3335C38.6844 18.6169 41.5082 17.5609 43.4222 15.5521C46.8308 11.9752 46.8627 6.50205 43.4959 2.91774C40.0001 -0.804045 34.2667 -0.988889 30.5106 2.49896C29.9813 2.99047 29.1518 4.06285 28.7499 4.77516C28.5355 5.15537 28.4173 5.28196 28.3096 5.24635C28.2287 5.21956 27.6971 5.02447 27.1284 4.81274L26.0944 4.42795L26.0723 4.02698C26.0319 3.29408 25.856 2.5601 25.6 2.05636C24.8848 0.648633 23.1808 -0.209955 21.6407 0.0612866C20.1082 0.33118 18.914 1.40653 18.5348 2.85831C18.0545 4.69713 19.0467 6.65956 20.8187 7.37574C21.2383 7.5453 21.4967 7.5819 22.2749 7.5819C23.16 7.5819 23.2593 7.56311 23.8123 7.29078C24.3837 7.00947 25.0641 6.45036 25.3468 6.02978L25.4837 5.82615L26.6839 6.28017C27.344 6.52992 27.8969 6.74704 27.9127 6.76277C27.9284 6.77842 27.8723 7.07034 27.788 7.41135C27.5541 8.35894 27.5801 10.2272 27.8418 11.2522C27.9531 11.6885 28.0304 12.0585 28.0134 12.0744C27.9504 12.1337 19.6408 15.6335 19.6214 15.6089C19.6103 15.5949 19.4101 15.2907 19.1765 14.9329C17.4621 12.3074 14.6139 10.7635 11.4842 10.7635C10.4547 10.7635 9.44057 10.9153 8.68186 11.1829C8.4738 11.2564 8.27266 11.2853 8.23489 11.2472C8.15936 11.1712 6.17807 7.02224 6.17807 6.94016C6.17807 6.91202 6.36635 6.68087 6.59645 6.42635C7.24294 5.71125 7.55549 4.96217 7.60054 4.0197C7.62832 3.4399 7.59757 3.11849 7.48005 2.75941C6.83868 0.799134 5.00737 -0.302288 3.03102 0.0836729ZM4.80299 1.76956C5.58382 2.16793 6.00948 2.82504 6.07035 3.72607C6.13347 4.65991 5.66088 5.44882 4.78042 5.87964C3.68282 6.41646 2.33481 5.94249 1.76106 4.81796C0.984365 3.2956 2.2297 1.42325 3.93665 1.54696C4.21225 1.56692 4.60212 1.66716 4.80299 1.76956ZM23.2298 1.7666C24.6328 2.48233 24.9343 4.3305 23.8282 5.43641C23.3288 5.93583 23.0299 6.05082 22.228 6.05226C21.6071 6.05334 21.4522 6.02034 21.0956 5.81078C19.3323 4.77418 19.6608 2.24192 21.643 1.592C22.0009 1.47459 22.8379 1.56674 23.2298 1.7666ZM38.7097 1.77244C40.9598 2.37174 42.7718 3.89868 43.7537 6.02259C44.2854 7.17292 44.4388 7.91643 44.4278 9.29008C44.4199 10.284 44.3821 10.5792 44.1757 11.2636C43.9022 12.1703 43.3754 13.2348 42.9132 13.8145L42.6032 14.2034L42.337 13.676C41.8457 12.7027 40.8929 11.7592 39.9237 11.2861L39.5464 11.1019L39.7993 10.7804C41.9176 8.08815 39.6128 4.13369 36.2331 4.66125C34.2513 4.97062 32.8162 6.78687 33.0021 8.75021C33.0694 9.46 33.2562 9.96554 33.6814 10.5883L34.0297 11.0985L33.5592 11.3449C32.6567 11.8173 31.7646 12.7134 31.2865 13.6277C31.1508 13.8872 30.9993 14.0874 30.9498 14.0725C30.7829 14.0223 30.0163 12.801 29.7387 12.1428C29.3405 11.1988 29.1756 10.3388 29.1743 9.20018C29.1728 8.0325 29.3413 7.1678 29.7579 6.20438C30.818 3.75259 32.9388 2.09295 35.6398 1.60135C36.3021 1.48079 37.9622 1.5733 38.7097 1.77244ZM37.7385 6.33636C39.1243 6.91265 39.5202 8.88102 38.475 9.99817C37.5923 10.9415 35.8637 10.8889 35.0433 9.89388C34.1535 8.81449 34.3889 7.38312 35.608 6.4607C36.071 6.11043 37.0566 6.05289 37.7385 6.33636ZM13.044 12.437C15.7589 12.9977 17.9367 14.981 18.819 17.6962C19.0448 18.3909 19.068 18.5871 19.0742 19.8539C19.0801 21.0536 19.0522 21.3466 18.8744 21.9605C18.6308 22.8019 17.9832 24.0949 17.5608 24.5836L17.2612 24.9301L16.9687 24.3474C16.595 23.6033 15.4188 22.4204 14.7425 22.1086C14.4829 21.9889 14.2705 21.8605 14.2705 21.8233C14.2705 21.7861 14.3723 21.6347 14.4966 21.4869C14.6211 21.3391 14.8334 20.982 14.9687 20.6934C15.1901 20.2209 15.2146 20.0696 15.2146 19.1754C15.2146 18.2102 15.2051 18.1631 14.8796 17.504C13.8971 15.515 11.4955 14.7636 9.58623 15.8479C8.23552 16.6151 7.44552 18.2577 7.70655 19.7564C7.8318 20.4755 7.98088 20.8373 8.38172 21.3953C8.73482 21.8866 8.74723 21.9217 8.56839 21.9217C8.32319 21.9217 7.07992 22.8338 6.66802 23.3159C6.43937 23.5836 6.1199 24.0503 5.95814 24.353L5.66393 24.9035L5.37935 24.5588C4.95998 24.051 4.32761 22.7749 4.09176 21.9605C3.914 21.3466 3.88612 21.0536 3.89197 19.8539C3.89817 18.5871 3.92137 18.3909 4.14715 17.6962C5.01996 15.0103 7.18728 13.0182 9.86281 12.4427C10.6512 12.2731 12.2367 12.2702 13.044 12.437ZM39.0313 12.5615C39.4073 12.7119 39.7348 12.9452 40.1654 13.3691C40.7787 13.9729 41.0596 14.4099 41.228 15.022C41.3201 15.3567 41.3172 15.3623 40.9178 15.6371C39.7908 16.4123 38.346 16.8292 36.7943 16.8268C35.3218 16.8244 34.1623 16.5144 32.9504 15.7988C32.2393 15.3791 32.2201 15.3052 32.6074 14.4865C33.0668 13.5155 33.8365 12.837 34.9049 12.4607C35.282 12.328 35.6126 12.3059 36.9292 12.3261C38.3383 12.3476 38.5579 12.3722 39.0313 12.5615ZM29.1557 14.2798C29.915 15.4486 31.4684 16.8323 32.6584 17.3997C32.8837 17.5071 32.962 17.5935 32.9231 17.6917C32.8927 17.7683 32.086 19.9955 31.1303 22.6409C30.1747 25.2864 29.3513 27.5577 29.3006 27.6883L29.2083 27.9258L28.6404 27.8094C26.3174 27.3335 23.8923 27.7828 21.9281 29.0534C21.5707 29.2845 21.261 29.4737 21.2398 29.4737C21.2186 29.4737 20.5316 28.7394 19.7129 27.842L18.2244 26.2103L18.454 25.9315C18.931 25.3523 19.6534 24.1903 19.9282 23.5601C20.4092 22.4571 20.5803 21.6503 20.6282 20.2584C20.669 19.0784 20.5799 18.2851 20.2821 17.1713C20.2599 17.0888 21.5616 16.4929 24.4309 15.2722C26.7305 14.2938 28.6358 13.5186 28.6649 13.5494C28.6939 13.5802 28.9149 13.9089 29.1557 14.2798ZM12.3822 17.0741C12.9256 17.32 13.2613 17.6504 13.5167 18.1906C14.1224 19.4718 13.4027 21.0356 12.0502 21.3769C11.544 21.5048 11.3307 21.4973 10.7747 21.3323C9.57167 20.975 8.89883 19.612 9.31792 18.3811C9.7158 17.2127 11.2463 16.5599 12.3822 17.0741ZM13.1303 23.1349C13.8929 23.3335 14.3363 23.5914 14.9214 24.1764C15.4468 24.7018 15.8525 25.4167 15.906 25.9113C15.9317 26.1494 15.8757 26.2034 15.1998 26.5928C13.8757 27.3559 12.6227 27.6451 11.0335 27.5546C9.90867 27.4905 9.26523 27.33 8.26744 26.8642C7.35039 26.4361 6.98731 26.1834 6.98731 25.9733C6.98731 25.8845 7.12866 25.5292 7.30148 25.184C7.81445 24.1586 8.75406 23.3913 9.81965 23.1272C10.4727 22.9654 12.4976 22.9701 13.1303 23.1349ZM42.9867 24.712C44.2304 25.1773 44.8185 26.6674 44.2208 27.8388C43.8276 28.6095 43.1661 29.0356 42.2691 29.0962C41.3473 29.1585 40.5551 28.692 40.1282 27.8356C39.5104 26.596 40.1334 25.1419 41.4896 24.6581C41.974 24.4853 42.424 24.5015 42.9867 24.712ZM28.7469 29.3963C30.9639 29.96 32.7892 31.495 33.7731 33.6233C34.3024 34.7686 34.4576 35.5171 34.4503 36.8908C34.4432 38.2335 34.259 39.0552 33.7277 40.1136C33.453 40.6609 32.7274 41.7906 32.6505 41.7906C32.6358 41.7906 32.4918 41.5378 32.3305 41.2287C31.9412 40.4831 30.7689 39.3147 30.0717 38.9776L29.5533 38.7268L29.8662 38.317C30.3953 37.6241 30.5849 37.0192 30.581 36.0367C30.5769 35.011 30.3653 34.3771 29.7903 33.6683C29.0397 32.7429 28.0076 32.2517 26.8137 32.2517C25.6198 32.2517 24.5878 32.7429 23.8371 33.6683C23.2543 34.3869 23.0443 35.0141 23.0443 36.0367C23.0443 37.0196 23.236 37.6292 23.7612 38.317L24.0742 38.7268L23.5557 38.9776C22.8741 39.3072 21.6802 40.4872 21.3236 41.1835C21.1782 41.4677 21.0186 41.6876 20.9692 41.672C20.7936 41.6169 20.0284 40.4096 19.7592 39.7632C18.9948 37.9273 18.9946 35.7234 19.7587 33.8708C20.5123 32.0436 22.1625 30.4112 23.9733 29.7016C24.5184 29.488 25.5216 29.2424 26.1393 29.1713C26.7113 29.1056 28.0617 29.222 28.7469 29.3963ZM4.5497 31.5829C5.07669 31.7688 5.51836 32.1322 5.80043 32.6119C6.01002 32.9684 6.04302 33.1232 6.04194 33.7441C6.0405 34.5459 5.9255 34.8447 5.42602 35.3442C4.31718 36.453 2.49234 36.1529 1.74586 34.7392C1.47737 34.2307 1.47611 33.2598 1.74334 32.754C2.29821 31.7037 3.48654 31.2078 4.5497 31.5829ZM27.9124 34.0474C28.6873 34.4457 29.0582 35.09 29.0577 36.0367C29.0574 36.8247 28.8668 37.2723 28.3317 37.7422C27.8674 38.1496 27.4462 38.3062 26.8137 38.3062C26.1666 38.3062 25.7422 38.1427 25.2609 37.7079C24.1007 36.6599 24.3647 34.7246 25.764 34.0182C26.4222 33.686 27.2311 33.6969 27.9124 34.0474ZM11.7332 38.6061C13.1868 39.3303 13.4335 41.2522 12.2143 42.3536C11.8687 42.6657 11.1438 42.9594 10.7188 42.9594C10.2904 42.9594 9.5687 42.6655 9.21569 42.3475C8.50958 41.7109 8.26151 40.7768 8.56335 39.8911C9.00124 38.6061 10.5077 37.9954 11.7332 38.6061ZM29.1066 40.226C30.1494 40.7229 30.9654 41.6673 31.2457 42.7019L31.3343 43.0288L30.6925 43.394C29.2391 44.2209 28.4158 44.4385 26.7687 44.4314C25.7209 44.4267 25.4465 44.3932 24.763 44.186C23.48 43.7974 22.3628 43.1685 22.363 42.835C22.3631 42.5111 22.8714 41.5505 23.2735 41.1143C23.7017 40.6498 24.2519 40.2985 24.9243 40.0606C25.302 39.927 25.6299 39.9049 26.9486 39.9244C28.5003 39.9472 28.5302 39.9514 29.1066 40.226Z" fill="black"/>
</svg>
