<svg width="50" height="50" viewBox="0 0 50 50" fill="none" xmlns="http://www.w3.org/2000/svg">
<path fill-rule="evenodd" clip-rule="evenodd" d="M14.6606 0.14084C14.132 0.307543 13.2304 1.24159 13.0683 1.79052C12.8051 2.68211 12.9682 3.51703 13.5352 4.17974L13.8831 4.58642L13.0011 6.99666L12.1192 9.407L11.5381 9.55571C10.5333 9.81304 9.821 10.5258 9.56381 11.531L9.41518 12.1124L7.0061 12.9948L4.59713 13.8773L4.19066 13.5292C3.16911 12.6543 1.81518 12.7371 0.817217 13.7356C-0.272406 14.8258 -0.272406 16.2087 0.817217 17.2989C1.38082 17.8628 1.92041 18.1034 2.62133 18.1034C3.75684 18.1034 4.80704 17.2391 5.1099 16.0552L5.25853 15.4738L7.66761 14.5914L10.0766 13.7089L10.4883 14.0615C11.1406 14.6202 12.0538 14.7788 12.9912 14.4962C13.1619 14.4448 13.4818 14.7079 14.5338 15.765L15.861 17.0986L15.2461 17.9513C14.1292 19.4997 13.2573 21.6734 13.0691 23.3788L12.9912 24.0841L11.1963 24.1136L9.40129 24.1431L9.13699 23.5654C8.81345 22.8583 8.26503 22.2938 7.52178 21.9027C7.03324 21.6457 6.84046 21.6078 6.04443 21.6126C4.96364 21.6191 4.31527 21.8758 3.61855 22.5728C2.91881 23.273 2.66334 23.9193 2.65935 25C2.65612 25.8399 2.68628 25.9724 3.02177 26.5949C3.42964 27.3516 3.76804 27.6784 4.57893 28.0988C5.0442 28.3401 5.27005 28.3847 6.04443 28.3885C6.83916 28.3923 7.034 28.354 7.52178 28.0973C8.26503 27.7063 8.81345 27.1417 9.13699 26.4346L9.40129 25.8569L11.1963 25.8864L12.9912 25.9159L13.0691 26.6212C13.2553 28.3077 14.1445 30.5256 15.245 32.0487L15.861 32.9014L14.5338 34.235C13.4818 35.2921 13.1619 35.5552 12.9912 35.5038C12.0538 35.2212 11.1406 35.3798 10.4883 35.9385L10.0766 36.2911L7.66761 35.4086L5.25853 34.5262L5.1099 33.9448C4.80704 32.7609 3.75684 31.8966 2.62133 31.8966C1.92041 31.8966 1.38082 32.1372 0.817217 32.7011C-0.272406 33.7913 -0.272406 35.1742 0.817217 36.2644C1.81518 37.2629 3.16911 37.3457 4.19066 36.4708L4.59713 36.1227L7.0061 37.0052L9.41518 37.8876L9.56381 38.469C9.821 39.4742 10.5333 40.187 11.5381 40.4443L12.1192 40.593L13.0011 43.0033L13.8831 45.4136L13.5352 45.8203C12.6608 46.8424 12.7435 48.197 13.7415 49.1955C14.3043 49.7586 14.8447 50 15.5425 50C16.8856 50 18.1071 48.7571 18.1071 47.3904C18.1071 46.2543 17.2432 45.2036 16.0599 44.9005L15.4788 44.7518L14.5938 42.3381L13.7088 39.9246L13.9629 39.6552C14.5608 39.0215 14.8084 37.9564 14.5382 37.181L14.4159 36.83L15.7587 35.4864L17.1016 34.1429L17.9543 34.7556C19.5099 35.8733 21.3565 36.6329 23.1459 36.8912L24.0845 37.0266L24.114 38.8167L24.1436 40.6069L23.5662 40.8713C22.8594 41.195 22.2952 41.7437 21.9043 42.4874C21.6478 42.9754 21.6094 43.1704 21.6133 43.9655C21.6171 44.7403 21.6617 44.9663 21.9028 45.4318C22.323 46.2431 22.6496 46.5817 23.4059 46.9898C24.0256 47.3241 24.1639 47.3559 25 47.3559C25.8361 47.3559 25.9744 47.3241 26.5941 46.9898C27.3504 46.5817 27.677 46.2431 28.0972 45.4318C28.3383 44.9663 28.3829 44.7403 28.3867 43.9655C28.3906 43.1704 28.3522 42.9754 28.0957 42.4874C27.7048 41.7437 27.1406 41.195 26.4338 40.8713L25.8564 40.6069L25.886 38.8167L25.9155 37.0266L26.8541 36.8912C28.6432 36.6329 30.4901 35.8733 32.045 34.756L32.8973 34.1437L34.2302 35.4717C35.2867 36.5242 35.5496 36.8443 35.4983 37.0151C35.2163 37.9516 35.3744 38.8667 35.9304 39.5166L36.2805 39.9259L35.4019 42.3386L34.5232 44.7513L33.9411 44.9003C32.4183 45.2902 31.5861 46.7267 32.0239 48.2095C32.1987 48.8014 33.0909 49.6941 33.6825 49.869C34.7107 50.173 35.6417 49.9173 36.3409 49.1392C37.2551 48.122 37.3043 46.8015 36.4648 45.8203L36.1169 45.4136L36.999 43.0029L37.8811 40.5922L38.4143 40.4517C38.7075 40.3745 38.9821 40.3091 39.0244 40.3065C39.1515 40.2986 39.8507 39.6517 40.0793 39.3305C40.1964 39.1658 40.3582 38.7738 40.4387 38.4594L40.5848 37.8876L42.9939 37.0052L45.4029 36.1227L45.8093 36.4708C46.8309 37.3457 48.1848 37.2629 49.1828 36.2644C49.9439 35.5029 50.1543 34.6974 49.8559 33.6871C49.6811 33.0951 48.7889 32.2025 48.1973 32.0276C46.7158 31.5897 45.2796 32.4222 44.8901 33.9448L44.7415 34.5262L42.3324 35.4086L39.9234 36.2911L39.5117 35.9385C38.8594 35.3798 37.9462 35.2212 37.0088 35.5038C36.8381 35.5552 36.5182 35.2921 35.4662 34.235L34.139 32.9014L34.7509 32.0487C35.8676 30.493 36.6268 28.6451 36.8849 26.8551L37.0203 25.9159L38.8095 25.8864L40.5987 25.8569L40.863 26.4346C41.1866 27.1417 41.735 27.7063 42.4782 28.0973C42.9644 28.3531 43.1634 28.3927 43.9556 28.3908C44.7889 28.3889 44.9319 28.3559 45.5497 28.0234C46.3053 27.6166 46.6316 27.2787 47.0536 26.4663C47.2974 25.997 47.3395 25.7811 47.3395 25C47.3395 24.2189 47.2974 24.003 47.0536 23.5337C46.6316 22.7213 46.3053 22.3834 45.5497 21.9766C44.9319 21.6441 44.7889 21.6111 43.9556 21.6092C43.1634 21.6073 42.9644 21.6469 42.4782 21.9027C41.735 22.2938 41.1866 22.8583 40.863 23.5654L40.5987 24.1431L38.8095 24.1136L37.0203 24.0841L36.8849 23.1449C36.6268 21.3548 35.8676 19.507 34.7509 17.9513L34.139 17.0986L35.4662 15.765C36.5182 14.7079 36.8381 14.4448 37.0088 14.4962C37.9462 14.7788 38.8594 14.6202 39.5117 14.0615L39.9234 13.7089L42.3324 14.5914L44.7415 15.4738L44.8901 16.0552C45.193 17.2391 46.2432 18.1034 47.3787 18.1034C48.0796 18.1034 48.6192 17.8628 49.1828 17.2989C50.2724 16.2087 50.2724 14.8258 49.1828 13.7356C48.1848 12.7371 46.8309 12.6543 45.8093 13.5292L45.4029 13.8773L42.9939 12.9948L40.5848 12.1124L40.4387 11.5406C40.3582 11.2262 40.1964 10.8342 40.0793 10.6695C39.8507 10.3483 39.1515 9.7014 39.0244 9.69353C38.9821 9.69095 38.7075 9.62554 38.4143 9.54828L37.8811 9.40776L36.996 6.99375L36.1109 4.57974L36.3649 4.31034C36.7284 3.92511 37.0575 3.14041 37.0603 2.65259C37.0682 1.24838 35.8624 0 34.498 0C33.8002 0 33.2599 0.241379 32.697 0.804526C32.1334 1.36843 31.8929 1.9083 31.8929 2.60959C31.8929 3.74612 32.7568 4.79644 33.9411 5.09968L34.5232 5.24871L35.4019 7.66142L36.2805 10.0741L35.9304 10.4834C35.3744 11.1333 35.2163 12.0484 35.4983 12.9849C35.5496 13.1557 35.2867 13.4758 34.2302 14.5283L32.8973 15.8562L32.045 15.2399C30.5227 14.1388 28.3059 13.2491 26.6204 13.0628L25.9155 12.9849L25.886 11.189L25.8564 9.3931L26.4338 9.12866C27.1406 8.80496 27.7048 8.25625 28.0957 7.51261C28.3522 7.02457 28.3906 6.82963 28.3867 6.03448C28.3829 5.2597 28.3383 5.03373 28.0972 4.56821C27.677 3.7569 27.3504 3.41832 26.5941 3.01024C25.9719 2.67457 25.8394 2.6444 25 2.64763C23.9199 2.65162 23.2739 2.90722 22.5741 3.60733C21.8774 4.30442 21.6208 4.95312 21.6144 6.03448C21.6095 6.83093 21.6474 7.02381 21.9043 7.51261C22.2952 8.25625 22.8594 8.80496 23.5662 9.12866L24.1436 9.3931L24.114 11.189L24.0845 12.9849L23.3796 13.0628C21.6941 13.2491 19.4773 14.1388 17.955 15.2399L17.1027 15.8562L15.7698 14.5283C14.7133 13.4758 14.4504 13.1557 14.5017 12.9849C14.7841 12.047 14.6256 11.1333 14.0673 10.4807L13.7149 10.0688L14.5968 7.65851L15.4788 5.24817L16.0599 5.09946C16.7019 4.93502 17.2127 4.59289 17.6044 4.06476C18.3473 3.06325 18.2636 1.83804 17.3854 0.860776C16.6883 0.0851294 15.6813 -0.181035 14.6606 0.14084ZM16.1194 1.98869C16.6537 2.52317 16.2752 3.44828 15.5222 3.44828C15.0795 3.44828 14.6606 3.0292 14.6606 2.58621C14.6606 2.14321 15.0795 1.72414 15.5222 1.72414C15.732 1.72414 15.9528 1.82188 16.1194 1.98869ZM35.075 1.98869C35.6093 2.52317 35.2307 3.44828 34.4778 3.44828C34.035 3.44828 33.6162 3.0292 33.6162 2.58621C33.6162 2.14321 34.035 1.72414 34.4778 1.72414C34.6876 1.72414 34.9084 1.82188 35.075 1.98869ZM25.6816 4.45733C26.7882 4.91994 27.058 6.37144 26.1974 7.23254C25.4988 7.93147 24.5012 7.93147 23.8026 7.23254C22.4707 5.89989 23.9403 3.72942 25.6816 4.45733ZM12.673 11.4714C13.2073 12.0059 12.8287 12.931 12.0757 12.931C11.8659 12.931 11.6452 12.8333 11.4785 12.6665C11.3118 12.4998 11.2141 12.2789 11.2141 12.069C11.2141 11.8591 11.3118 11.6381 11.4785 11.4714C11.6452 11.3046 11.8659 11.2069 12.0757 11.2069C12.2856 11.2069 12.5063 11.3046 12.673 11.4714ZM38.5215 11.4714C39.0558 12.0059 38.6772 12.931 37.9243 12.931C37.4815 12.931 37.0626 12.512 37.0626 12.069C37.0626 11.626 37.4815 11.2069 37.9243 11.2069C38.1341 11.2069 38.3548 11.3046 38.5215 11.4714ZM3.19517 14.9197C3.72948 15.4542 3.35091 16.3793 2.59796 16.3793C2.1552 16.3793 1.73635 15.9602 1.73635 15.5172C1.73635 15.0742 2.1552 14.6552 2.59796 14.6552C2.80777 14.6552 3.02856 14.7529 3.19517 14.9197ZM27.4929 14.9629C29.4128 15.4677 30.9184 16.3406 32.3276 17.7662C33.7146 19.1691 34.6078 20.7634 35.0906 22.698C35.3463 23.7223 35.3464 26.2773 35.0909 27.301C34.591 29.3037 33.7434 30.7966 32.2685 32.2723C30.7942 33.7473 29.3061 34.5933 27.2998 35.0971C26.1919 35.3752 23.6109 35.3476 22.5071 35.0458C20.5507 34.5108 19.1079 33.6697 17.6724 32.2275C16.2893 30.838 15.3933 29.2408 14.9094 27.302C14.6536 26.2772 14.6536 23.7228 14.9094 22.698C15.3922 20.7634 16.2854 19.1691 17.6724 17.7662C19.2625 16.1576 20.9998 15.2287 23.2059 14.8073C24.274 14.6033 26.4213 14.6812 27.4929 14.9629ZM47.9992 14.9197C48.5336 15.4542 48.155 16.3793 47.402 16.3793C46.9593 16.3793 46.5404 15.9602 46.5404 15.5172C46.5404 15.0742 46.9593 14.6552 47.402 14.6552C47.6118 14.6552 47.8326 14.7529 47.9992 14.9197ZM24.1922 17.3349C23.199 17.596 22.3266 18.3128 21.8795 19.2349C21.6672 19.6731 21.6177 19.9447 21.6149 20.6897C21.6117 21.5295 21.6418 21.6621 21.9773 22.2846C22.3849 23.0408 22.7229 23.3673 23.5345 23.7893C24.0035 24.0332 24.2193 24.0753 25 24.0753C25.7807 24.0753 25.9965 24.0332 26.4655 23.7893C27.2771 23.3673 27.6151 23.0408 28.0227 22.2846C28.3577 21.6628 28.3884 21.5284 28.3863 20.6897C28.3842 19.9113 28.3409 19.6911 28.0981 19.2234C27.6783 18.4153 27.3494 18.0725 26.6211 17.6842C25.9269 17.3139 24.8571 17.16 24.1922 17.3349ZM25.6816 19.1125C26.7882 19.5751 27.058 21.0266 26.1974 21.8877C25.4988 22.5866 24.5012 22.5866 23.8026 21.8877C22.4707 20.5551 23.9403 18.3846 25.6816 19.1125ZM6.72608 23.4228C7.83261 23.8855 8.1024 25.337 7.24186 26.1981C6.03183 27.4087 4.04893 26.3244 4.36729 24.626C4.5576 23.6115 5.73759 23.0096 6.72608 23.4228ZM44.6372 23.4228C45.7438 23.8855 46.0135 25.337 45.153 26.1981C43.943 27.4087 41.9601 26.3244 42.2784 24.626C42.4687 23.6115 43.6487 23.0096 44.6372 23.4228ZM23.7196 25.1704C22.8237 25.4114 21.9423 25.9352 21.3011 26.608C20.2049 27.7578 19.8303 28.8511 19.8303 30.9004C19.8303 32.168 19.8426 32.2419 20.0947 32.4941L20.359 32.7586H25H29.641L29.9053 32.4941C30.1574 32.2419 30.1697 32.168 30.1697 30.9004C30.1697 28.8511 29.7951 27.7578 28.6989 26.608C27.4227 25.2692 25.4591 24.7023 23.7196 25.1704ZM26.6211 27.1669C27.7657 27.7773 28.3321 28.7131 28.4212 30.1413L28.4768 31.0345H25H21.5232L21.5787 30.1455C21.6451 29.0856 21.9364 28.3832 22.5741 27.7456C23.6493 26.6707 25.259 26.4404 26.6211 27.1669ZM3.19517 33.8852C3.72948 34.4197 3.35091 35.3448 2.59796 35.3448C2.1552 35.3448 1.73635 34.9258 1.73635 34.4828C1.73635 34.0398 2.1552 33.6207 2.59796 33.6207C2.80777 33.6207 3.02856 33.7184 3.19517 33.8852ZM47.9992 33.8852C48.166 34.0519 48.2637 34.2728 48.2637 34.4828C48.2637 34.6927 48.166 34.9136 47.9992 35.0803C47.8326 35.2471 47.6118 35.3448 47.402 35.3448C47.1922 35.3448 46.9714 35.2471 46.8048 35.0803C46.6381 34.9136 46.5404 34.6927 46.5404 34.4828C46.5404 34.2728 46.6381 34.0519 46.8048 33.8852C46.9714 33.7184 47.1922 33.6207 47.402 33.6207C47.6118 33.6207 47.8326 33.7184 47.9992 33.8852ZM12.6535 37.353C13.0187 37.7184 13.0262 38.1752 12.673 38.5286C12.1388 39.0631 11.2141 38.6844 11.2141 37.931C11.2141 37.4984 11.6335 37.069 12.0561 37.069C12.2511 37.069 12.4767 37.1763 12.6535 37.353ZM38.5215 37.3335C38.6882 37.5002 38.7859 37.7211 38.7859 37.931C38.7859 38.1409 38.6882 38.3619 38.5215 38.5286C38.3548 38.6954 38.1341 38.7931 37.9243 38.7931C37.7145 38.7931 37.4937 38.6954 37.327 38.5286C37.1603 38.3619 37.0626 38.1409 37.0626 37.931C37.0626 37.7211 37.1603 37.5002 37.327 37.3335C37.4937 37.1667 37.7145 37.069 37.9243 37.069C38.1341 37.069 38.3548 37.1667 38.5215 37.3335ZM25.6816 42.3884C26.7882 42.851 27.058 44.3025 26.1974 45.1636C24.9874 46.3742 23.0045 45.2899 23.3229 43.5915C23.5132 42.577 24.6932 41.9751 25.6816 42.3884ZM16.1194 46.8163C16.6537 47.3508 16.2752 48.2759 15.5222 48.2759C15.0795 48.2759 14.6606 47.8568 14.6606 47.4138C14.6606 46.9708 15.0795 46.5517 15.5222 46.5517C15.732 46.5517 15.9528 46.6495 16.1194 46.8163ZM35.075 46.8163C35.2417 46.983 35.3394 47.2039 35.3394 47.4138C35.3394 47.6237 35.2417 47.8446 35.075 48.0113C34.9084 48.1781 34.6876 48.2759 34.4778 48.2759C34.268 48.2759 34.0472 48.1781 33.8806 48.0113C33.7139 47.8446 33.6162 47.6237 33.6162 47.4138C33.6162 47.2039 33.7139 46.983 33.8806 46.8163C34.0472 46.6495 34.268 46.5517 34.4778 46.5517C34.6876 46.5517 34.9084 46.6495 35.075 46.8163Z" fill="#FB5A5A"/>
</svg>
