<svg width="39" height="39" viewBox="0 0 39 39" fill="none" xmlns="http://www.w3.org/2000/svg">
<path fill-rule="evenodd" clip-rule="evenodd" d="M6.52651 0.0720998C5.49316 0.315377 4.65606 1.30655 4.57697 2.38057C4.5325 2.98381 4.67689 3.53354 5.01096 4.03305C5.28737 4.44644 5.97391 4.98818 6.27984 5.03444C6.4272 5.05669 6.43239 5.11591 6.43239 6.76718V8.4769L5.89847 8.56836C4.41573 8.82231 3.093 9.53812 1.99566 10.6802C1.01509 11.7009 0.429545 12.8192 0.145047 14.2152C-0.32777 16.5352 0.368069 18.8599 2.04669 20.5688C3.49549 22.0438 5.1034 22.7221 7.15698 22.7247C8.32419 22.7262 9.15625 22.5434 10.1652 22.0638C12.1479 21.1215 13.5088 19.4753 14.0871 17.3192L14.2122 16.853L15.6233 17.9544C16.8675 18.9256 17.0325 19.0798 17.0186 19.2589C17.0099 19.3707 16.98 19.6773 16.9521 19.9405C16.7086 22.2341 19.4807 23.6154 21.2363 22.0751C23.006 20.5225 21.8784 17.582 19.5132 17.582C19.031 17.582 18.201 17.816 18.0991 17.9808C18.0749 18.02 18.0112 18.0521 17.9577 18.0521C17.9042 18.0521 17.0568 17.4241 16.0744 16.6566L14.2885 15.2613L14.2386 14.7607C14.1326 13.7004 13.7102 12.5578 13.0765 11.6179C12.881 11.3278 12.7304 11.0658 12.742 11.0357C12.7741 10.9522 15.6347 8.52522 15.7009 8.52522C15.7328 8.52522 15.7829 8.6538 15.8122 8.81103C15.9924 9.77606 16.7597 11.1757 17.5773 12.0309C18.8118 13.322 20.2685 14.0496 22.033 14.2565C23.3075 14.4059 24.5796 14.1836 25.8257 13.5937L26.5339 13.2585L27.9162 15.1027C28.6765 16.117 29.3293 16.9866 29.3669 17.035C29.4149 17.0966 29.3144 17.1623 29.0316 17.2538C26.9822 17.9178 25.2046 19.6301 24.5138 21.606C24.1725 22.5823 24.0647 23.3254 24.1122 24.3754C24.1392 24.9736 24.2111 25.5248 24.3045 25.8505L24.4535 26.3704L23.1515 27.3477L21.8495 28.325L21.4691 27.7804C20.3987 26.2489 18.7474 25.1781 16.9199 24.8307C16.1275 24.68 14.7805 24.7122 14.0007 24.9003C11.2424 25.5659 9.15015 27.714 8.60792 30.4369C8.55781 30.6885 8.50198 30.9714 8.48375 31.0657L8.45072 31.2372H6.7882H5.12568L4.95551 30.8269C4.61976 30.0176 3.77534 29.3929 2.87402 29.287C1.26107 29.0975 -0.170876 30.5284 0.0187386 32.1401C0.244888 34.0626 2.4234 35.067 4.03429 33.9913C4.44799 33.7151 4.99014 33.0291 5.03644 32.7234C5.05871 32.5761 5.11797 32.571 6.7705 32.571H8.48154L8.57306 33.1045C8.81073 34.4897 9.4544 35.7426 10.4668 36.7901C11.8219 38.1925 13.4097 38.9062 15.3563 38.9878C16.0836 39.0183 16.4206 38.9953 16.997 38.876C19.5411 38.3494 21.5745 36.5369 22.4088 34.0521L22.6047 33.4688L24.701 34.4775C26.4506 35.3195 26.7926 35.51 26.7688 35.6292C26.7532 35.7077 26.736 36.0635 26.7307 36.4198C26.7225 36.9724 26.7502 37.1292 26.92 37.4868C27.2851 38.2557 27.9502 38.7716 28.7995 38.9445C29.9413 39.177 31.117 38.572 31.6323 37.4868C31.7983 37.1371 31.8313 36.9602 31.8313 36.4198C31.8313 35.8783 31.7981 35.7013 31.6293 35.3415C30.9603 33.9155 29.1417 33.3869 27.8704 34.249L27.6025 34.4307L25.2026 33.2743L22.8028 32.1181L22.7559 31.5443C22.7301 31.2287 22.6554 30.7132 22.59 30.3988C22.5245 30.0845 22.4662 29.753 22.4604 29.6623C22.452 29.5333 22.7265 29.2894 23.7241 28.5395L24.9985 27.5815L25.2877 28.0184C25.9153 28.9661 27.0575 29.9739 28.0939 30.4944C29.1947 31.0472 30.7334 31.3101 31.9905 31.1602C32.8096 31.0626 33.7433 30.7987 34.3483 30.4937C35.8439 29.74 37.2101 28.2916 37.8203 26.8129C38.2546 25.7606 38.3102 25.4437 38.3083 24.0349C38.3066 22.8392 38.2902 22.6864 38.0957 22.0533C37.1906 19.1076 34.6861 17.1267 31.6045 16.9191L30.8871 16.8707L29.2426 14.6804C28.3382 13.4757 27.5982 12.4784 27.5982 12.4641C27.5982 12.4497 27.7712 12.2521 27.9828 12.025C29.011 10.9207 29.7144 9.41633 29.8582 8.0142C29.8853 7.75035 29.9175 7.53443 29.9297 7.53443C29.942 7.53443 30.864 7.97793 31.9787 8.51989L34.0054 9.50535L33.929 9.70617C33.8869 9.81661 33.8525 10.1264 33.8525 10.3946C33.8525 11.8102 34.9971 12.9644 36.398 12.9615C37.4637 12.9592 38.2885 12.4517 38.7503 11.514C38.9713 11.0652 39.0008 10.9322 39 10.3903C38.9991 9.85075 38.9684 9.71341 38.7489 9.26786C38.0823 7.91474 36.5043 7.42857 35.1393 8.15558L34.7011 8.38895L32.2852 7.22172C30.9565 6.57977 29.8603 6.01883 29.8492 5.97516C29.3836 4.1409 28.8476 3.12541 27.7952 2.08402C26.8658 1.16433 25.8058 0.561932 24.4821 0.200903C23.6063 -0.037878 21.929 -0.035744 21.0387 0.205399C18.968 0.766187 17.322 2.09537 16.378 3.96896C16.0269 4.66586 15.7369 5.62099 15.6609 6.33116L15.6061 6.84263L13.8454 8.35084C12.877 9.18029 12.0119 9.91652 11.9231 9.98687C11.7679 10.1096 11.742 10.101 11.2707 9.77088C11.0008 9.58179 10.5912 9.3318 10.3604 9.21542C9.68192 8.87314 9.15869 8.71401 7.93878 8.47911L7.76716 8.44611V6.78486V5.12361L8.17774 4.95357C8.68793 4.74223 9.26128 4.18922 9.49299 3.68491C10.3935 1.72474 8.62989 -0.423067 6.52651 0.0720998ZM7.68548 1.41836C7.82933 1.4916 8.05243 1.68335 8.18125 1.84447C8.38139 2.09469 8.41549 2.20093 8.41549 2.57408C8.41549 3.11284 8.18201 3.50138 7.72399 3.72484C6.64648 4.25057 5.50666 3.19271 5.96636 2.09347C6.24971 1.41569 7.0576 1.09841 7.68548 1.41836ZM24.2926 1.50692C26.377 2.10139 27.9295 3.69733 28.4481 5.77867C28.5834 6.32178 28.6027 6.57466 28.5704 7.37918C28.5128 8.81461 28.1121 9.8804 27.2512 10.8879C26.7354 11.4915 26.7122 11.4944 26.6565 10.961C26.552 9.96263 25.9262 9.30307 24.9226 9.13395C24.5706 9.07458 23.7178 9.05385 22.4272 9.07313C20.5858 9.10065 20.4429 9.11299 20.0763 9.27617C19.3819 9.58522 18.9594 10.1837 18.8656 10.9912L18.8138 11.4375L18.5837 11.2199C18.0083 10.6756 17.4326 9.69177 17.1407 8.75387C16.9895 8.26792 16.9631 8.02228 16.9648 7.11525C16.9665 6.16181 16.9885 5.98331 17.1719 5.43853C17.9042 3.26283 19.6243 1.76056 21.8405 1.36127C22.4252 1.25587 23.6721 1.32995 24.2926 1.50692ZM22.1446 2.68375C21.6168 2.81941 21.3389 2.97832 20.9517 3.36587C20.4545 3.86355 20.2527 4.32732 20.2158 5.057C20.1732 5.89856 20.3727 6.42383 20.9563 7.00703C22.0854 8.13531 23.9154 7.99317 24.8646 6.70339C25.1904 6.26073 25.3274 5.81259 25.333 5.17117C25.3389 4.49743 25.1246 3.94099 24.6622 3.42951C24.0844 2.79045 22.9903 2.46631 22.1446 2.68375ZM23.2948 4.02063C24.2692 4.4629 24.3175 5.79232 23.3783 6.3198C23.1453 6.45066 22.9972 6.47794 22.6683 6.45066C21.9842 6.39403 21.5698 5.97988 21.5131 5.29631C21.4291 4.28471 22.3786 3.60488 23.2948 4.02063ZM37.1401 9.30703C37.4394 9.5058 37.7425 10.0519 37.7425 10.3925C37.7425 10.6968 37.453 11.259 37.2027 11.441C36.7812 11.7474 36.1046 11.7473 35.6937 11.4408C35.3065 11.1519 35.1873 10.9084 35.1873 10.406C35.1873 9.87415 35.3676 9.5369 35.789 9.28013C36.1348 9.06947 36.8023 9.08274 37.1401 9.30703ZM8.07226 9.82583C10.3518 10.1937 12.2215 11.9015 12.8118 14.1547C13.0077 14.9025 13.0228 16.1914 12.8447 16.9469C12.6682 17.6949 12.1958 18.6282 11.6509 19.305C11.3958 19.6219 11.1555 19.8812 11.117 19.8812C11.0784 19.8812 11.0469 19.7312 11.0469 19.5478C11.0469 18.7942 10.6134 18.1112 9.91867 17.7703L9.48331 17.5567H7.15698C4.88969 17.5567 4.82097 17.5611 4.44929 17.7323C4.23954 17.8288 3.96922 18.0003 3.84856 18.1133C3.51868 18.4222 3.26866 19.0111 3.26782 19.4811C3.26736 19.7011 3.23563 19.8812 3.19726 19.8812C3.1589 19.8812 2.98782 19.7227 2.81704 19.5289C1.49882 18.0323 0.999991 16.0308 1.47601 14.1477C1.54252 13.8848 1.75662 13.3439 1.95188 12.9457C2.24972 12.3383 2.41814 12.1098 2.99674 11.5279C4.40604 10.1104 6.17016 9.51883 8.07226 9.82583ZM25.1632 10.6271C25.3283 10.8025 25.3509 10.904 25.3741 11.5742L25.4002 12.3248L25.1453 12.4571C24.5915 12.7443 23.9757 12.8813 23.0599 12.9208C22.0726 12.9634 21.4526 12.8727 20.6382 12.5662L20.1997 12.4012V11.603C20.1997 10.8571 20.2119 10.7925 20.3869 10.6177L20.5741 10.4306H22.7762H24.9783L25.1632 10.6271ZM6.48349 11.1516C5.70787 11.3391 5.01592 11.9755 4.71174 12.781C4.49337 13.3592 4.52998 14.1916 4.79801 14.7393C5.03659 15.2269 5.5676 15.7601 6.05102 15.9975C6.3703 16.1543 6.54413 16.1848 7.11884 16.1848C7.70218 16.1848 7.87006 16.1545 8.23662 15.9828C9.89625 15.2053 10.2449 12.9868 8.90051 11.759C8.5228 11.4141 8.27888 11.2811 7.79127 11.1542C7.27459 11.0197 7.03082 11.0192 6.48349 11.1516ZM7.90674 12.6218C8.44782 13.0594 8.58367 13.6199 8.29375 14.2183C7.84267 15.1495 6.4825 15.1612 6.01113 14.238C5.67149 13.5726 5.96361 12.7643 6.66121 12.4395C7.00893 12.2777 7.58556 12.362 7.90674 12.6218ZM32.6703 18.3808C33.784 18.6898 34.6124 19.178 35.4161 19.999C36.2264 20.8268 36.7103 21.7325 36.9542 22.8781C37.1183 23.6489 37.0551 25.0765 36.827 25.7497C36.4986 26.719 36.0089 27.5441 35.4334 28.0975L35.1714 28.3494L35.1283 27.9318C35.0445 27.1203 34.6166 26.4934 33.9297 26.1756C33.6045 26.0253 33.4576 26.0165 31.2593 26.0165C28.6397 26.0165 28.5497 26.031 27.9932 26.541C27.5909 26.9097 27.4028 27.2965 27.3282 27.9081L27.2741 28.3515L27.0461 28.1367C26.9206 28.0185 26.6526 27.6883 26.4506 27.4029C24.818 25.0969 25.0936 21.9299 27.1013 19.9237C27.9284 19.0972 29.0904 18.4898 30.2496 18.278C30.7392 18.1885 32.2009 18.2506 32.6703 18.3808ZM9.42069 18.9625C9.68192 19.1358 9.75026 19.3787 9.75026 20.1338V20.8366L9.31169 21.0067C8.61829 21.2757 7.93733 21.4031 7.18642 21.4044C6.35482 21.4057 5.8566 21.3217 5.11668 21.0555L4.5637 20.8565V20.081C4.5637 19.2058 4.64035 19.0167 5.04384 18.8963C5.1783 18.8561 6.18069 18.8298 7.27139 18.8378C8.8555 18.8494 9.2879 18.8745 9.42069 18.9625ZM20.2063 19.0642C20.8261 19.4815 20.9867 20.3356 20.5522 20.9047C20.2817 21.259 19.9529 21.4231 19.5132 21.4231C19.0735 21.4231 18.7447 21.259 18.4742 20.9047C18.0398 20.3356 18.2003 19.4815 18.8201 19.0642C19.1808 18.8213 19.8456 18.8213 20.2063 19.0642ZM30.6288 19.5786C29.9037 19.7606 29.2226 20.3134 28.8916 20.9883C28.6251 21.5316 28.5919 22.4247 28.816 23.0214C29.3062 24.3262 30.8297 25.0177 32.1325 24.5266C33.5896 23.9774 34.2351 22.2266 33.4883 20.8488C32.9651 19.8834 31.683 19.3139 30.6288 19.5786ZM31.7916 20.9673C32.5813 21.3704 32.7554 22.2952 32.1675 22.9642C31.8891 23.2811 31.5091 23.4179 31.0508 23.3663C30.6597 23.3222 30.3843 23.1445 30.1275 22.7704C29.9779 22.5525 29.9538 22.4364 29.9776 22.0501C30.0122 21.488 30.2291 21.1455 30.6797 20.941C31.0941 20.753 31.3853 20.7598 31.7916 20.9673ZM16.9962 26.1793C18.5428 26.5225 20.1132 27.7857 20.8438 29.2744C21.4092 30.4267 21.594 31.9614 21.3124 33.1669C21.0902 34.118 20.3894 35.3908 19.7606 35.9855L19.5347 36.1991L19.496 35.7166C19.4318 34.9183 19.009 34.3105 18.2928 33.987C17.9723 33.8421 17.7973 33.8317 15.652 33.8302C13.8098 33.8288 13.2906 33.851 13.0327 33.9419C12.2473 34.2188 11.736 34.9354 11.7301 35.7679L11.7268 36.2293L11.2534 35.7255C9.56652 33.9304 9.28362 31.0617 10.5787 28.8835C11.8936 26.6718 14.4194 25.6075 16.9962 26.1793ZM15.1829 27.3628C14.6136 27.4518 14.0994 27.7367 13.6933 28.1881C12.7877 29.1946 12.8036 30.6848 13.7305 31.6641C14.9956 33.0007 17.1876 32.6415 17.9621 30.9705C18.2424 30.3658 18.2609 29.4898 18.0052 28.9256C17.4859 27.7796 16.3919 27.1738 15.1829 27.3628ZM33.6031 27.5233C33.8065 27.7264 33.8144 27.7638 33.8144 28.5132V29.292L33.3645 29.4708C32.1934 29.9363 30.6327 29.9897 29.4768 29.6039C28.507 29.2803 28.5679 29.3574 28.6025 28.4951C28.6519 27.2673 28.6476 27.2692 31.353 27.2937L33.3917 27.3121L33.6031 27.5233ZM16.3791 28.8696C16.6635 29.072 16.9157 29.5569 16.9183 29.9063C16.9205 30.2068 16.6306 30.7699 16.3801 30.952C15.9587 31.2584 15.282 31.2582 14.8712 30.9518C14.4807 30.6605 14.3648 30.4205 14.3648 29.9034C14.3648 29.3601 14.4917 29.1206 14.9438 28.8107C15.2938 28.5708 15.9999 28.5998 16.3791 28.8696ZM3.19383 30.7268C4.07174 31.1906 4.09103 32.4795 3.22739 32.9683C1.98994 33.6685 0.676365 32.0971 1.61048 31.0339C2.05302 30.5302 2.61545 30.4212 3.19383 30.7268ZM17.9644 35.308C18.1697 35.4842 18.1795 35.5244 18.2041 36.2872L18.2298 37.0826L17.8228 37.2454C16.429 37.8028 14.6982 37.804 13.4062 37.2487L13.03 37.087V36.3065C13.03 35.5648 13.04 35.516 13.2311 35.3251L13.4322 35.1242H15.5913H17.7504L17.9644 35.308ZM29.9295 35.3136C30.7022 35.7661 30.7808 36.7829 30.09 37.3889C29.4449 37.955 28.4193 37.705 28.0826 36.8998C27.7399 36.0803 28.3775 35.1268 29.2694 35.1248C29.4913 35.1244 29.7163 35.1887 29.9295 35.3136Z" fill="#DB3CAE"/>
</svg>
