<svg width="35" height="35" viewBox="0 0 35 35" fill="none" xmlns="http://www.w3.org/2000/svg">
<path fill-rule="evenodd" clip-rule="evenodd" d="M3 0C1.34375 0 0 1.34277 0 3V32C0 33.6572 1.34375 35 3 35H32C33.6562 35 35 33.6572 35 32V3C35 1.34277 33.6562 0 32 0H3ZM25.1953 11.5986L20.1172 8.74902C20.2148 8.42871 20.2344 8.09277 20.1738 7.76465C20.1133 7.43652 19.9766 7.12695 19.7715 6.86035C19.5664 6.59375 19.3008 6.37695 18.9941 6.22754C18.6875 6.07812 18.3496 6 18.0078 6C17.666 6 17.3281 6.07715 17.0215 6.22656C16.8535 6.30762 16.6992 6.40918 16.5605 6.52734C16.4434 6.62598 16.3379 6.73633 16.2441 6.85742C16.0391 7.12402 15.9004 7.43359 15.8398 7.76172C15.7793 8.08887 15.7988 8.42578 15.8945 8.74512L10.8145 11.5957C10.5801 11.3516 10.2891 11.165 9.96484 11.0498C9.64258 10.9346 9.29492 10.8945 8.95312 10.9326C8.79102 10.9512 8.63086 10.9863 8.47852 11.0381C8.30859 11.0957 8.14648 11.1729 7.99609 11.2695C7.70703 11.4531 7.46875 11.7002 7.29492 11.9902C7.17188 12.1982 7.08398 12.4258 7.03906 12.6602C7.02148 12.752 7.00977 12.8447 7.00391 12.9385C6.98438 13.2725 7.04492 13.6064 7.18164 13.9141C7.31836 14.2207 7.52734 14.4922 7.79102 14.707C8.05469 14.9219 8.36719 15.0732 8.70312 15.1494V20.8516C8.36914 20.9307 8.06055 21.083 7.80078 21.2979C7.66406 21.4102 7.54297 21.5381 7.43945 21.6777C7.34375 21.8057 7.26367 21.9434 7.19922 22.0898C7.06445 22.3955 7.00391 22.7275 7.02539 23.0596C7.04492 23.3916 7.14453 23.7148 7.31641 24.002C7.48828 24.29 7.72461 24.5352 8.01172 24.7188C8.29688 24.9014 8.62109 25.0176 8.96094 25.0576C9.30078 25.0967 9.64648 25.0586 9.96875 24.9463C10.1328 24.8887 10.2871 24.8135 10.4316 24.7207C10.5723 24.6318 10.7012 24.5283 10.8164 24.4102L15.8945 27.2578C15.7969 27.5791 15.7793 27.9189 15.8418 28.249C15.9043 28.5791 16.0449 28.8896 16.2539 29.1572C16.4648 29.4238 16.7344 29.6396 17.0449 29.7852C17.3555 29.9316 17.6973 30.0049 18.043 30C18.3887 29.9941 18.7266 29.9092 19.0332 29.7529C19.3379 29.5967 19.6016 29.373 19.8008 29.0986C19.9219 28.9326 20.0176 28.751 20.0859 28.5596C20.1309 28.4355 20.1621 28.3076 20.1836 28.1777C20.2344 27.8467 20.2051 27.5078 20.0957 27.1885L25.1426 24.3564C25.3008 24.5273 25.4844 24.6719 25.6875 24.7861C25.9609 24.9395 26.2656 25.0342 26.5801 25.0625C26.8945 25.0918 27.2109 25.0557 27.5098 24.9551C27.6602 24.9043 27.8027 24.8389 27.9375 24.7588C28.0703 24.6797 28.1953 24.5869 28.3086 24.4814C28.5371 24.2695 28.7168 24.0127 28.834 23.7285C28.9512 23.4434 29.0039 23.1377 28.9902 22.8311C28.9746 22.5244 28.8926 22.2246 28.748 21.9521C28.6035 21.6787 28.4004 21.4395 28.1523 21.25C28.0273 21.1543 27.8926 21.0723 27.75 21.0049C27.6094 20.9395 27.4629 20.8877 27.3105 20.8516V15.1494C27.6426 15.0723 27.9531 14.9199 28.2168 14.7051C28.4785 14.4902 28.6855 14.2188 28.8203 13.9121C28.8828 13.7744 28.9277 13.6318 28.957 13.4863C28.9941 13.3076 29.0059 13.124 28.9961 12.9404C28.9766 12.6074 28.875 12.2842 28.7031 11.9951C28.5312 11.707 28.293 11.4609 28.0059 11.2783C27.8164 11.1582 27.6113 11.0664 27.3945 11.0068C27.2832 10.9766 27.168 10.9541 27.0527 10.9414C26.7109 10.9023 26.3652 10.9424 26.043 11.0557C25.7207 11.1699 25.4316 11.3555 25.1953 11.5986ZM24.6777 12.4834L19.5879 9.62695L19.5273 9.68359L26.1777 20.876L26.2617 20.8535V15.1445C25.9746 15.0752 25.707 14.9512 25.4707 14.7783C25.2344 14.6064 25.0371 14.3887 24.8887 14.1406C24.7402 13.8926 24.6465 13.6172 24.6094 13.333C24.584 13.1309 24.5879 12.9277 24.6211 12.7285C24.6348 12.6465 24.6543 12.5645 24.6777 12.4834ZM9.83789 20.8789L16.4883 9.68555L16.4238 9.62402L11.334 12.4795C11.416 12.7559 11.4395 13.0449 11.4023 13.3301C11.3789 13.5146 11.3301 13.6943 11.2598 13.8662C11.2227 13.96 11.1777 14.0518 11.125 14.1396C10.9766 14.3877 10.7793 14.6055 10.543 14.7783C10.4258 14.8633 10.3008 14.9365 10.1699 14.9971C10.0352 15.0596 9.89453 15.1094 9.75 15.1445V20.8564L9.83789 20.8789ZM25.2695 21.3838L18.623 10.1895C18.2227 10.3047 17.7969 10.3047 17.3965 10.1924L10.7441 21.3838C11.0508 21.666 11.2637 22.0293 11.3633 22.4277H24.6484C24.7012 22.2139 24.7891 22.0098 24.9062 21.8232C25.0059 21.6631 25.127 21.5146 25.2695 21.3838ZM24.6953 23.584L19.6348 26.4219C19.4336 26.2061 19.1875 26.0322 18.9121 25.9121C18.6367 25.793 18.3398 25.7285 18.0391 25.7246C17.7383 25.7207 17.4395 25.7764 17.1621 25.8887C16.9648 25.9688 16.7793 26.0762 16.6152 26.208C16.5488 26.2607 16.4844 26.3174 16.4238 26.3779L11.3398 23.5264L11.3633 23.4434H24.6543L24.6953 23.584Z" fill="white"/>
</svg>
