<svg width="43" height="50" viewBox="0 0 43 50" fill="none" xmlns="http://www.w3.org/2000/svg">
<path fill-rule="evenodd" clip-rule="evenodd" d="M20.7915 0.194261C20.1484 0.539452 0.626791 12.02 0.484613 12.1367C0.410212 12.1977 0.270723 12.4235 0.174626 12.6384C0.00883212 13.0095 0 13.6333 0 24.9981C0 36.3629 0.00883212 36.9866 0.174626 37.3577C0.270723 37.5727 0.410212 37.7985 0.484613 37.8594C0.647431 37.993 20.2648 49.5226 20.8173 49.8095C21.3113 50.066 21.6928 50.0637 22.1998 49.8013C22.7058 49.5394 41.7661 38.3552 42.2678 38.0258C42.4899 37.8799 42.7074 37.6228 42.8177 37.3757C42.9936 36.9813 43 36.5472 43 24.9981C43 13.4489 42.9936 13.0149 42.8177 12.6204C42.7074 12.3733 42.4899 12.1162 42.2678 11.9703C41.7661 11.641 22.7058 0.456696 22.1998 0.194848C21.6983 -0.0647537 21.2743 -0.0649491 20.7915 0.194261ZM30.87 8.64767L40.1242 14.0854V24.9976V35.9097L30.87 41.348C25.7801 44.339 21.5662 46.7862 21.5057 46.7862C21.4452 46.7862 17.2287 44.3375 12.1358 41.3447L2.87581 35.9033V24.9981V14.0929L12.1159 8.65637C17.198 5.66631 21.4145 3.21764 21.4859 3.2149C21.5573 3.21216 25.7801 5.65693 30.87 8.64767ZM7.00289 19.0625C6.82836 19.1835 6.59517 19.4064 6.48468 19.5582C6.28691 19.8299 6.28384 19.9117 6.28384 24.9808C6.28384 29.8739 6.29287 30.1428 6.4672 30.4359C6.8323 31.0498 7.73422 31.331 8.32866 31.0162C8.47122 30.9407 8.69587 30.7614 8.82787 30.6176L9.06787 30.3564L9.11587 27.1643L9.16387 23.9722L9.34445 24.363C9.44381 24.5779 10.0376 26.0033 10.664 27.5303C11.2904 29.0573 11.8702 30.4114 11.9526 30.5394C12.2766 31.0427 12.6204 31.1527 13.8695 31.1531C15.2406 31.1536 15.5631 31.0296 15.9055 30.3706L16.1239 29.9502V24.9981V20.0459L15.9055 19.6256C15.3972 18.6473 14.0569 18.5745 13.4651 19.493C13.31 19.7338 13.2869 20.0914 13.2439 22.93L13.1959 26.0979L11.8655 22.8367C11.1339 21.043 10.4427 19.4724 10.3295 19.3463C9.94215 18.9148 9.67488 18.8427 8.46287 18.8427C7.43595 18.8427 7.28811 18.8649 7.00289 19.0625ZM19.426 18.9823C19.2621 19.0549 19.0245 19.262 18.898 19.4426L18.668 19.7709L18.6428 24.9004C18.6195 29.6377 18.6305 30.0555 18.7868 30.3649C19.0571 30.9 19.4092 31.1046 20.06 31.1046C20.7113 31.1046 21.0641 30.8994 21.3318 30.3649C21.4684 30.0924 21.4997 29.77 21.4998 28.6376L21.5 27.2453H23.1831C25.074 27.2453 25.3609 27.1779 25.7337 26.6457C26.049 26.1958 26.0568 25.3746 25.75 24.9368C25.3632 24.385 25.072 24.3141 23.1895 24.3141H21.5V23.044V21.7738H23.9277C26.2565 21.7738 26.3725 21.7648 26.7766 21.554C27.7478 21.0471 27.8074 19.691 26.8858 19.0645C26.5617 18.844 26.5383 18.8427 23.1418 18.8465C20.4888 18.8495 19.6573 18.8799 19.426 18.9823ZM29.3007 19.0034C28.4895 19.4103 28.3288 20.716 29.0105 21.3609C29.3386 21.6713 29.7665 21.7738 30.7339 21.7738H31.5689L31.5984 25.9681C31.6272 30.0466 31.6337 30.17 31.8289 30.4381C32.5187 31.385 33.6175 31.385 34.3073 30.4381C34.5026 30.1701 34.509 30.0464 34.5377 25.9787L34.5673 21.795L35.6125 21.7587C36.4877 21.7282 36.7015 21.689 36.9269 21.5179C37.799 20.8565 37.739 19.4434 36.8201 18.9996C36.3346 18.7651 29.769 18.7684 29.3007 19.0034Z" fill="#FCB900"/>
</svg>
