<svg width="125" height="79" viewBox="0 0 125 79" fill="none" xmlns="http://www.w3.org/2000/svg">
<path fill-rule="evenodd" clip-rule="evenodd" d="M85.4732 0.0366932C85.2679 0.240104 85.1004 5.47779 85.1004 11.6766C85.1004 17.8748 84.9118 22.9451 84.6819 22.9434C84.452 22.9418 83.2589 22.326 82.0312 21.575C80.8036 20.8239 79.2969 20.2121 78.683 20.2154C78.0692 20.2187 74.6791 21.9108 71.1496 23.9754L64.7321 27.7294L64.5926 35.4529C64.5162 39.7007 64.6417 43.4613 64.8717 43.8094C65.4542 44.6906 77.7361 51.7673 78.683 51.7673C79.635 51.7673 91.9185 44.6856 92.4861 43.8094C93.0212 42.9824 93.0212 4.56771 92.4861 3.76072C91.8393 2.78634 85.8867 -0.374563 85.4732 0.0366932ZM6.41741 23.9516L0 27.6806V37.5995C0 43.9019 0.209263 47.5872 0.573661 47.708C0.889509 47.8127 2.52176 47.0833 4.20089 46.0879L7.25446 44.2777L7.53348 38.2912L7.8125 32.3047L10.8181 30.4652L13.8242 28.6262L17.096 30.5622L20.3683 32.4982L20.3795 38.3915L20.3901 44.2849L23.5368 46.1117C25.2673 47.1166 27.0201 47.8105 27.4319 47.6537C28.0179 47.4303 28.1791 45.3424 28.1724 38.0668C28.1674 32.9516 27.9794 28.4782 27.7539 28.1273C27.0887 27.0914 14.9548 20.1727 13.8482 20.1988C13.2907 20.2121 9.94699 21.9009 6.41741 23.9516ZM38.7835 23.951L32.3661 27.679L32.2266 35.428C32.1501 39.6896 32.2757 43.4613 32.5056 43.8094C33.0882 44.6906 45.37 51.7673 46.317 51.7673C47.269 51.7673 59.5525 44.6856 60.12 43.8094C60.8532 42.6765 60.6183 28.7875 59.8493 27.8502C58.8047 26.576 47.3962 20.171 46.221 20.1988C45.6596 20.2121 42.3131 21.9003 38.7835 23.951ZM103.838 23.7953C100.485 25.749 97.5385 27.6668 97.2896 28.0564C97.0402 28.4466 96.8326 32.0526 96.8276 36.0703C96.8214 41.6312 97.0073 43.5611 97.6071 44.1569C98.0407 44.5875 101.055 46.503 104.305 48.4136C108.552 50.9105 110.566 51.7984 111.468 51.5722C113.301 51.1116 118.13 47.9513 117.803 47.4259C117.65 47.1792 114.623 45.2903 111.078 43.2285L104.632 39.4807V35.965V32.45L107.812 30.6425L110.992 28.8357L114.09 30.5051C117.177 32.1695 117.188 32.1839 117.356 35.0428C117.449 36.6202 117.7 37.8955 117.914 37.8772C118.128 37.8584 119.81 36.9167 121.652 35.7849L125 33.727V30.729V27.7311L118.583 23.976C115.053 21.9108 111.663 20.2259 111.049 20.232C110.435 20.2381 107.19 21.841 103.838 23.7953ZM83.0318 31.2151L85.1484 32.4888L84.9849 36.0836L84.8214 39.6785L81.7193 41.3906L78.6177 43.1021L75.4414 41.2975L72.2656 39.4923V35.9927V32.4926L75.4743 30.5611C78.192 28.9249 78.8538 28.7298 79.7991 29.2857C80.4129 29.6465 81.8677 30.5145 83.0318 31.2151ZM109.235 33.0447C108.227 33.528 107.98 34.1072 107.98 35.9883C107.98 38.0501 108.174 38.4104 109.597 38.9957C110.928 39.5438 111.52 39.5039 112.945 38.7718C114.374 38.0379 114.676 37.5485 114.676 35.9711C114.676 34.4148 114.371 33.9027 113.03 33.2143C111.136 32.241 110.932 32.2321 109.235 33.0447ZM55.5357 51.5285C52.0123 53.5276 48.9397 55.4592 48.7081 55.8211C48.4766 56.1825 48.2835 59.6488 48.2785 63.5236C48.269 71.4428 48.3901 71.7149 52.8192 73.698C54.856 74.6103 55.2271 74.6297 56.558 73.8881C58.0307 73.0678 58.0363 73.0407 58.1908 65.4646C58.3225 59.0131 58.2199 57.8641 57.51 57.8641C56.8192 57.8641 56.6468 59.0912 56.5179 64.9308C56.3661 71.7986 56.3259 72.0026 55.0971 72.176C54.4018 72.2741 52.9576 71.8169 51.8884 71.1607L49.9442 69.9673V63.4122V56.8576L55.9291 53.383L61.9141 49.9084L65.8343 52.0295C67.9905 53.1962 70.6964 54.7403 71.8471 55.4603L73.9397 56.7695V63.5524L73.9392 70.3348L68.5167 73.3832C62.0569 77.0147 61.976 77.0396 60.2695 75.9294C58.9308 75.0582 56.9275 75.2699 57.519 76.2204C57.6914 76.4976 58.8426 77.2364 60.0776 77.8621L62.3225 79L68.8287 75.2133L75.3348 71.4272L75.4894 63.5857L75.644 55.7441L74.0943 54.6799C72.3996 53.516 62.4978 47.8859 62.1546 47.8903C62.0379 47.892 59.0592 49.5293 55.5357 51.5285ZM79.0502 56.2014C79.0502 56.9635 79.1769 57.2755 79.3315 56.8942C79.4866 56.5134 79.4866 55.8899 79.3315 55.5085C79.1769 55.1278 79.0502 55.4393 79.0502 56.2014ZM62.9046 57.6762C60.9771 58.0842 59.683 60.3594 60.4403 62.0099C61.0346 63.3058 63.8583 64.4941 66.4062 64.5207C68.0709 64.5379 69.0525 65.3487 68.8276 66.5215C68.668 67.3551 68.0469 67.5968 65.726 67.7304C63.2974 67.87 62.707 67.7115 62.1094 66.7604C61.149 65.2335 59.4302 65.2252 59.8315 66.7494C60.3164 68.59 62.2193 69.5034 65.5692 69.5034C69.3756 69.5034 71.1496 68.4404 71.1496 66.1591C71.1496 64.2452 69.6864 63.15 66.4062 62.608C62.9693 62.0399 62.221 61.7339 62.221 60.8948C62.221 59.9609 63.9364 58.9726 65.558 58.9726C66.2059 58.9726 67.3638 59.5962 68.1311 60.3583C69.7874 62.0033 70.5915 62.1219 70.5915 60.7213C70.5915 58.4605 66.625 56.8892 62.9046 57.6762Z" fill="#606060"/>
</svg>
