<svg width="46" height="46" viewBox="0 0 46 46" fill="none" xmlns="http://www.w3.org/2000/svg">
<path fill-rule="evenodd" clip-rule="evenodd" d="M2.00374 0.0471821C1.20706 0.30376 0.613854 0.790458 0.234475 1.49873C-0.07591 2.07803 -0.0785921 3.24824 0.22911 3.85599C0.511564 4.41396 1.03522 4.92757 1.59541 5.19585C2.1987 5.48473 3.23076 5.494 3.86475 5.21618C4.42753 4.9696 4.97561 4.47858 5.25001 3.97523C5.42139 3.66088 5.52414 3.56809 5.70301 3.5662C6.25692 3.56053 23.6122 4.93783 23.7292 4.99686C23.8006 5.03286 23.9084 5.22509 23.9688 5.42416C24.0292 5.62315 24.1893 5.94443 24.3245 6.1381C24.4598 6.33177 24.5704 6.51653 24.5704 6.54866C24.5704 6.58079 23.1598 8.8477 21.4359 11.5863L18.3012 16.5655L17.4358 16.57C16.4497 16.5751 16.0404 16.7287 15.4296 17.3231C14.8485 17.8885 14.6329 18.4277 14.6317 19.3179C14.6309 19.9729 14.6659 20.1476 14.8755 20.5328C15.1673 21.0692 15.5869 21.4718 16.1542 21.7595C16.4956 21.9327 16.7114 21.9706 17.3565 21.9704C18.0327 21.9703 18.2098 21.936 18.6224 21.7254C18.8863 21.5907 19.2474 21.335 19.4249 21.1572C19.7709 20.8105 20.1311 20.151 20.1311 19.8642C20.1311 19.7675 20.1738 19.6628 20.2261 19.6314C20.2784 19.6 21.2876 19.4362 22.4689 19.2674C27.1269 18.6022 39.2956 16.888 39.3606 16.888C39.3985 16.888 39.5662 17.0931 39.7331 17.3438C40.0634 17.8398 40.8031 18.3778 41.2833 18.4711C41.5483 18.5227 41.5851 18.5685 41.6295 18.9009C41.6888 19.3459 42.329 27.8123 42.3283 28.1427C42.3279 28.3263 42.2495 28.4065 41.9405 28.5392C41.0471 28.9227 40.3885 29.9624 40.3828 30.9983L40.38 31.5123L28.8592 36.5688L17.3386 41.6254L17.0213 41.3168C16.4566 40.7672 16.0251 40.6041 15.1368 40.6043C14.4651 40.6044 14.2825 40.6393 13.8824 40.8437C13.322 41.1299 12.7836 41.6862 12.5156 42.2559C12.2343 42.8534 12.2396 43.8709 12.5268 44.4382C12.8049 44.9873 13.2808 45.4531 13.871 45.7538C14.2751 45.9597 14.4672 45.9984 15.0906 46C15.7153 46.0014 15.9122 45.9626 16.356 45.7506C17.3081 45.2956 17.8373 44.4789 17.8776 43.4021L17.9008 42.7826L19.1777 42.2203C19.8802 41.9111 25.0671 39.6264 30.7044 37.1432L40.954 32.6282L41.3291 32.9579C41.9161 33.474 42.4433 33.6686 43.2527 33.6681C43.8232 33.6677 44.0284 33.6256 44.4088 33.4302C45.5911 32.8231 46.2027 31.5982 45.9395 30.3644C45.7386 29.4229 45.0856 28.7064 44.1469 28.3976L43.6689 28.2404L43.3305 23.8916C42.8696 17.9698 42.8768 18.5365 43.2595 18.3144C43.7641 18.0214 44.2665 17.5094 44.5267 17.023C44.8591 16.4017 44.8716 15.4352 44.5561 14.7488C44.1291 13.8196 43.0416 13.1082 42.0482 13.1082C40.8392 13.1082 39.6662 14.0225 39.3636 15.2006C39.3032 15.4358 39.2479 15.6281 39.2406 15.6281C39.2334 15.6281 34.9246 16.2362 29.6653 16.9795C24.4062 17.7227 20.0926 18.3201 20.0796 18.3069C20.0665 18.2938 19.9037 18.0624 19.7176 17.7928C19.4338 17.3817 19.3958 17.2729 19.4818 17.1179C19.5382 17.0162 20.949 14.7664 22.617 12.1182L25.6497 7.30346L26.4743 7.29923C27.1789 7.29563 27.366 7.26071 27.7612 7.05948C28.7859 6.53777 29.3243 5.67624 29.3243 4.55858C29.3243 3.44345 28.8158 2.62862 27.8243 2.1548C27.3805 1.94276 27.1836 1.90398 26.5589 1.90542C25.9398 1.90695 25.7425 1.94618 25.3507 2.14598C24.8255 2.41371 24.2323 3.0031 24.091 3.39746C23.981 3.70443 23.8937 3.71217 22.1817 3.56719C20.4331 3.41915 5.97798 2.30869 5.7992 2.30869C5.68396 2.30869 5.57788 2.15489 5.44109 1.78986C5.05589 0.761749 4.06748 0.070671 2.89254 0.00785394C2.53091 -0.0114952 2.13091 0.00614402 2.00374 0.0471821ZM3.49212 1.43798C4.46906 1.93944 4.58393 3.084 3.73046 3.81306C2.96699 4.46544 1.85511 4.24189 1.44004 3.35255C0.805301 1.99244 2.14219 0.74501 3.49212 1.43798ZM27.4156 3.35912C28.2684 3.97874 28.2901 5.18118 27.4596 5.79756C26.9828 6.15142 26.2378 6.14872 25.7578 5.79135C24.8321 5.10225 24.9666 3.70794 26.004 3.24068C26.3725 3.07464 27.1091 3.13647 27.4156 3.35912ZM42.6689 14.5172C43.0799 14.707 43.4204 15.2061 43.4902 15.721C43.6497 16.899 42.2015 17.7495 41.208 17.0611C40.8693 16.8265 40.5699 16.2695 40.5726 15.8792C40.5767 15.286 41.0331 14.636 41.5879 14.4331C41.8623 14.3328 42.3522 14.3709 42.6689 14.5172ZM17.9959 17.964C18.5308 18.2295 18.7989 18.5929 18.8659 19.1429C18.9387 19.7412 18.7554 20.1483 18.2735 20.4586C16.8181 21.3958 15.1977 19.8141 16.1795 18.4146C16.5969 17.8197 17.3361 17.6364 17.9959 17.964ZM43.9935 29.6899C44.7003 30.158 44.9103 30.8731 44.5522 31.5928C44.2031 32.2947 43.4653 32.5951 42.7466 32.3281C41.7384 31.9534 41.3773 30.8642 41.9984 30.0717C42.4609 29.4817 43.406 29.3008 43.9935 29.6899ZM16.0033 42.1167C16.8856 42.7716 16.7255 44.256 15.7287 44.6613C14.8653 45.0123 13.775 44.4832 13.5991 43.6276C13.4675 42.9872 13.8911 42.2213 14.5339 41.9373C14.9521 41.7525 15.6229 41.8344 16.0033 42.1167Z" fill="black"/>
</svg>
