<svg width="41" height="41" viewBox="0 0 41 41" fill="none" xmlns="http://www.w3.org/2000/svg">
<path fill-rule="evenodd" clip-rule="evenodd" d="M10.3838 0.103613C8.90446 0.4644 7.63946 1.7096 7.24475 3.19354C7.16754 3.4838 7.12998 4.0588 7.12934 4.96029L7.12838 6.29685L7.33943 6.4629C7.58083 6.65291 7.68215 6.66525 7.96015 6.53847C8.26411 6.39999 8.32114 6.13497 8.34645 4.74575C8.36823 3.55072 8.38433 3.43259 8.58289 3.00874C8.97895 2.16343 9.67633 1.56864 10.5793 1.30594C10.9804 1.18926 11.9866 1.1786 20.7102 1.19799L30.3957 1.21963L30.8537 1.4344C31.4611 1.7193 32.0763 2.308 32.3864 2.90127L32.6384 3.38339L32.6784 8.12947C32.7184 12.8751 32.7184 12.8756 32.8932 13.0503C33.1047 13.2619 33.5083 13.2715 33.7306 13.0703C33.8812 12.934 33.8849 12.7899 33.8627 8.0765C33.8402 3.30966 33.8366 3.21558 33.6663 2.7999C33.1536 1.54892 32.2267 0.650323 30.9874 0.202425L30.4758 0.017544L20.6643 0.00343947C12.4029 -0.00850127 10.7787 0.00736629 10.3838 0.103613ZM10.6125 2.45377C10.4363 2.5356 10.1768 2.72408 10.0359 2.87274C9.59103 3.34188 9.5312 3.59608 9.5312 5.01783V6.29685L9.74225 6.4629C10.0295 6.68905 10.2217 6.67174 10.4985 6.39478L10.7326 6.16053V5.04323C10.7326 4.0342 10.7487 3.90541 10.8986 3.71476C11.0605 3.50881 11.087 3.5036 11.9734 3.5036H12.8821L13.0598 4.04454C13.3116 4.81059 13.4847 5.12497 13.8145 5.41468C14.4573 5.97942 14.0615 5.94784 20.5041 5.94784H26.3109L26.6905 5.7608C27.2812 5.46973 27.6789 4.95716 27.9237 4.17188L28.1319 3.5036H29.0296C30.407 3.5036 30.2661 2.93838 30.2931 8.57272L30.3156 13.2762L30.4914 13.452C30.7072 13.6679 31.0948 13.6819 31.3158 13.4819C31.4739 13.3386 31.477 13.2456 31.4752 8.51991C31.4736 4.02041 31.4638 3.68287 31.3265 3.38339C31.1482 2.99455 30.82 2.65789 30.42 2.45369C30.1618 2.32195 29.9398 2.30151 28.7668 2.30151C27.6108 2.30151 27.3956 2.32074 27.3018 2.43254C27.2415 2.50466 27.0478 2.97965 26.8716 3.48813C26.6243 4.20161 26.4995 4.45068 26.325 4.57922C26.1012 4.74407 26.0432 4.74575 20.5041 4.74575C14.9727 4.74575 14.9066 4.74391 14.6831 4.57987C14.508 4.45148 14.3847 4.20457 14.1366 3.48597C13.9604 2.97548 13.7667 2.50017 13.7063 2.42965C13.5323 2.22674 11.06 2.24597 10.6125 2.45377ZM16.8562 2.57839C16.6056 2.82907 16.6056 3.13632 16.8562 3.38699L17.0528 3.58374H20.4897C23.8454 3.58374 23.9316 3.57981 24.1376 3.41761C24.4294 3.18793 24.4294 2.77746 24.1376 2.54778C23.9316 2.38558 23.8454 2.38165 20.4897 2.38165H17.0528L16.8562 2.57839ZM1.07679 7.98225C0.676875 8.16401 0.217135 8.68724 0.0929893 9.10196C0.0265912 9.32362 0 10.8843 0 14.5557V19.699L0.196631 19.8957C0.304758 20.0038 0.481125 20.0924 0.588612 20.0924C0.717323 20.0924 1.36104 19.6544 2.47299 18.8102L4.16193 17.5279H8.25082C11.5003 17.5279 12.3926 17.5057 12.5974 17.4199C12.9785 17.2601 13.3596 16.91 13.5595 16.5361C13.734 16.2097 13.7361 16.1622 13.7361 12.6795C13.7361 9.18979 13.7343 9.14996 13.5583 8.82059C13.3433 8.41829 12.8761 8.01623 12.4947 7.90532C12.3185 7.85403 10.9832 7.83255 8.8991 7.84746L5.58376 7.87118L5.42654 8.08195C5.30944 8.23886 5.28341 8.35698 5.32442 8.54419C5.42998 9.02502 5.49181 9.0332 9.01027 9.0332H12.1816L12.3781 9.22994L12.5748 9.4266V12.6795V15.9325L12.3781 16.1291L12.1816 16.3259H7.97313H3.76466L2.58312 17.2171C1.93331 17.7072 1.35655 18.1444 1.30153 18.1885C1.22168 18.2526 1.20141 17.374 1.20141 13.8477V9.4266L1.39804 9.22994C1.5821 9.04578 1.6489 9.0332 2.44535 9.0332C3.28546 9.0332 3.29924 9.03015 3.53848 8.79078C3.73271 8.59644 3.77051 8.505 3.7291 8.32998C3.62698 7.89811 3.44389 7.83095 2.37391 7.83287C1.60308 7.83424 1.33437 7.86525 1.07679 7.98225ZM24.4287 9.72961C22.6507 10.0271 21.1293 11.5353 20.8211 13.306C20.692 14.0478 20.7639 14.3762 21.0894 14.5315C21.2859 14.6253 21.3975 14.6343 21.5667 14.5699C21.8269 14.4709 21.8998 14.3083 22.0098 13.5813C22.1195 12.8554 22.3687 12.3678 22.9025 11.8337C23.4363 11.2995 23.9237 11.0502 24.6491 10.9404C24.9464 10.8954 25.2715 10.827 25.3714 10.7883C25.6201 10.6922 25.7432 10.3483 25.6284 10.0707C25.4857 9.72616 25.1018 9.61701 24.4287 9.72961ZM3.52414 10.6911C3.25663 10.7934 3.12367 10.9879 3.12367 11.2771C3.12367 11.8568 2.99848 11.8381 6.8744 11.8381C10.2254 11.8381 10.3371 11.8331 10.4923 11.6778C10.7082 11.4618 10.7039 11.0279 10.484 10.8287C10.3246 10.6843 10.1357 10.6753 6.97988 10.6607C5.14533 10.6522 3.59022 10.6659 3.52414 10.6911ZM24.2992 12.4313C23.4615 12.8215 23.0138 13.9558 23.504 14.4462C23.7226 14.665 23.8467 14.6857 24.1392 14.5524C24.3283 14.4662 24.3947 14.3478 24.5595 13.8029C24.6096 13.6375 24.7054 13.5417 24.8707 13.4916C25.4152 13.3267 25.5336 13.2602 25.6197 13.071C25.753 12.7784 25.7322 12.6542 25.5136 12.4355C25.2575 12.1792 24.8433 12.1778 24.2992 12.4313ZM3.52414 13.4157C3.25639 13.5184 3.12367 13.7127 3.12367 14.0018C3.12367 14.5762 3.0439 14.5628 6.47393 14.5628C9.42444 14.5628 9.53681 14.5572 9.69139 14.4025C9.90724 14.1865 9.903 13.7527 9.68306 13.5534C9.52455 13.4098 9.34122 13.3998 6.57941 13.3852C4.96512 13.3766 3.59022 13.3903 3.52414 13.4157ZM33.8752 14.2381C33.5244 14.3446 33.2979 14.4937 32.866 14.9024L32.4486 15.2974L31.8627 15.0956C30.1586 14.5089 28.5915 14.6278 26.9517 15.4681C26.3804 15.761 26.1149 15.9903 24.5019 17.5856L22.6928 19.3747L21.2298 19.8634C19.7093 20.3714 19.3512 20.5728 19.0984 21.062C18.9437 21.3612 18.951 22.042 19.1123 22.3603C19.1837 22.5014 19.7794 23.1601 20.4359 23.8242L21.6295 25.0315L21.4552 25.4257C20.9487 26.5714 21.3395 28.06 22.3398 28.7946C23.1333 29.3773 24.2469 29.5135 25.0838 29.1302L25.53 28.9257L26.7214 30.1208C27.9424 31.3454 28.3468 31.6338 28.8392 31.6307C29.1845 31.6284 29.6975 31.3955 29.9417 31.13C30.1208 30.9354 30.4776 30.0382 30.9531 28.5872L31.1763 27.906L32.9164 26.1429C34.8047 24.2297 35.1236 23.8003 35.5353 22.6168C35.7391 22.031 35.7585 21.8753 35.7602 20.8137C35.762 19.6321 35.6988 19.2409 35.3861 18.4992L35.238 18.148L35.6436 17.719C36.1687 17.1635 36.3592 16.7392 36.3592 16.1255C36.3592 15.542 36.1747 15.0998 35.765 14.7017C35.297 14.2469 34.4945 14.0501 33.8752 14.2381ZM34.9149 15.5717C35.1188 15.7433 35.1613 15.8378 35.1613 16.1193C35.1613 16.389 35.1065 16.5229 34.8964 16.766L34.6316 17.0726L34.0645 16.5051L33.4974 15.9377L33.7087 15.7419C34.1794 15.3052 34.5383 15.2546 34.9149 15.5717ZM30.9476 16.0832C32.1736 16.3969 33.2063 17.1361 33.8839 18.1851C34.3282 18.8729 34.5287 19.5208 34.5789 20.4318C34.6339 21.4285 34.5173 22.0323 34.1027 22.8973C33.7997 23.5296 33.6652 23.6907 32.2307 25.1412L30.6851 26.7039L28.9257 24.9556C27.2052 23.246 27.1596 23.2079 26.8667 23.2326C26.4794 23.2653 26.2231 23.5759 26.3061 23.9121C26.343 24.0616 26.9774 24.7575 28.1587 25.9447L29.955 27.75L29.5449 28.99C29.3193 29.672 29.089 30.2788 29.0332 30.3384C28.9775 30.3981 28.8647 30.4255 28.7826 30.3994C28.7006 30.3734 26.7291 28.4454 24.4016 26.115C20.8681 22.5773 20.1741 21.8463 20.1967 21.6864C20.2207 21.5165 20.3688 21.4439 21.5053 21.045L22.7868 20.5953L23.7153 21.5058C24.5027 22.2781 24.6822 22.4164 24.8967 22.4164C25.2384 22.4164 25.4699 22.1716 25.4699 21.8103C25.4699 21.5571 25.3796 21.432 24.6696 20.7019L23.8694 19.8788L25.4505 18.3202C26.82 16.9703 27.1122 16.7213 27.6325 16.4615C28.6998 15.9284 29.8359 15.7987 30.9476 16.0832ZM7.33943 18.8962L7.12838 19.0622V25.4217V31.7811L7.33943 31.9471C7.68263 32.2173 8.02239 32.155 8.21261 31.7869C8.31249 31.5938 8.32979 30.6535 8.32979 25.4294C8.32979 21.1069 8.3036 19.2409 8.24088 19.1032C8.15406 18.9128 7.86781 18.73 7.65604 18.73C7.59797 18.73 7.45548 18.8048 7.33943 18.8962ZM9.93167 18.7869C9.86559 18.8112 9.7485 18.8861 9.67136 18.9532C9.53937 19.0683 9.53128 19.6076 9.53296 28.1788C9.53497 38.4261 9.48515 37.6155 10.149 38.2142C10.7485 38.755 10.1332 38.7248 20.5441 38.7248C29.982 38.7248 29.9957 38.7245 30.3557 38.5562C30.8026 38.3472 31.1347 38.0211 31.3265 37.6028C31.4586 37.3148 31.4736 37.0377 31.4752 34.8705C31.4769 32.5541 31.4706 32.4529 31.3158 32.3127C31.0949 32.1126 30.7072 32.1267 30.4914 32.3425C30.3198 32.514 30.3151 32.5729 30.2911 34.8303L30.2667 37.1425L30.0645 37.3326L29.8622 37.5227H20.4907H11.1192L10.9259 37.2978L10.7326 37.0729V28.1357V19.1985L10.4985 18.9643C10.2669 18.7326 10.1655 18.7009 9.93167 18.7869ZM40.2145 25.0734C39.9221 25.1826 39.8318 25.3612 39.7781 25.9374C39.6485 27.3258 38.4556 28.5567 37.0925 28.7086C36.4486 28.7804 36.226 28.8853 36.1293 29.1629C36.0217 29.4718 36.1996 29.8455 36.4889 29.9181C36.7974 29.9956 37.6068 29.8804 38.1567 29.6807C39.4987 29.1932 40.4927 28.0939 40.8479 26.7042C41.0313 25.9866 41.0494 25.4827 40.899 25.2845C40.7466 25.0839 40.4398 24.9892 40.2145 25.0734ZM37.4639 25.2013C37.3951 25.2784 37.2991 25.4906 37.2507 25.6728C37.1455 26.068 37.0577 26.151 36.6683 26.2239C36.3042 26.2919 36.0958 26.5104 36.0958 26.8241C36.0958 27.1868 36.3228 27.3851 36.7381 27.3851C37.67 27.3851 38.439 26.6228 38.4434 25.6945C38.4446 25.4379 38.4008 25.2861 38.2987 25.1937C38.1043 25.0177 37.6237 25.022 37.4639 25.2013ZM24.5653 28.0764C24.4587 28.1832 23.59 28.1333 23.3458 28.0065C22.7752 27.71 22.4264 27.1538 22.4264 26.5404C22.4264 25.8395 22.4526 25.8494 23.5758 26.9732C24.1512 27.5489 24.5964 28.0453 24.5653 28.0764ZM32.9432 27.8189L32.7184 28.0122L32.6784 32.8075L32.6384 37.6028L32.4131 38.0308C32.1305 38.5676 31.6294 39.1164 31.1824 39.3785C30.4333 39.8178 30.7607 39.8046 20.4986 39.8057C12.0567 39.8066 10.9537 39.7925 10.567 39.6794C9.69627 39.4246 8.9679 38.7988 8.58088 37.973C8.37889 37.542 8.36815 37.4497 8.32979 35.8217C8.29174 34.2047 8.28109 34.112 8.11401 33.9451C7.87646 33.7078 7.47102 33.7112 7.27607 33.952C7.14335 34.116 7.12846 34.2985 7.12934 35.7485C7.13038 37.4931 7.18853 37.874 7.5749 38.664C7.88927 39.307 8.69894 40.1289 9.36076 40.4768C10.4295 41.0388 9.88594 41.0143 20.7235 40.9902L30.4758 40.9687L30.9874 40.7838C32.2267 40.3359 33.1536 39.4373 33.6663 38.1863C33.8367 37.7705 33.8402 37.6777 33.8627 32.8627L33.8856 27.9622L33.6716 27.7939C33.394 27.5753 33.2192 27.5813 32.9432 27.8189ZM13.4931 28.4204C13.1082 28.5826 12.9879 29.0926 13.2629 29.3966C13.3893 29.5363 13.5301 29.5488 14.9776 29.5488C16.4563 29.5488 16.5638 29.5387 16.7006 29.3875C16.9004 29.1665 16.8865 28.7786 16.6709 28.5626C16.5048 28.3963 16.4184 28.3858 15.0757 28.3693C14.2949 28.3596 13.5827 28.3826 13.4931 28.4204ZM13.4931 31.226C13.1084 31.3863 12.9878 31.8974 13.2629 32.2015C13.3922 32.3445 13.5442 32.3537 15.7785 32.3537C18.0128 32.3537 18.1649 32.3445 18.2942 32.2015C18.493 31.9818 18.482 31.5771 18.2717 31.3665C18.1015 31.1961 18.0409 31.1913 15.8766 31.1748C14.6553 31.1656 13.5827 31.1886 13.4931 31.226ZM16.8337 34.9433C16.6188 35.1723 16.6106 35.4809 16.8127 35.7307L16.9658 35.9199H20.5041H24.0424L24.1955 35.7307C24.3946 35.4847 24.3903 35.1534 24.1853 34.9333C24.0221 34.758 24.0196 34.7579 20.5149 34.7579H17.0079L16.8337 34.9433Z" fill="#09C928"/>
</svg>
