<svg width="1920" height="316" viewBox="0 0 1920 316" fill="none" xmlns="http://www.w3.org/2000/svg">
<path d="M484.277 234.773C694.582 230.698 959.277 207.433 1156.11 233.54C1218.11 241.771 1264.59 253.892 1324.16 261.593C1444.41 277.139 1575.59 268.464 1702.67 258.562C1776.54 252.783 1852.69 247.451 1931.14 248.628C1949.82 248.921 1968.47 249.688 1987 250.927V295.797C1947.19 289.492 1894.04 286.494 1843.78 286.917C1766.44 287.568 1693.9 294.683 1623.67 301.666C1502.09 313.753 1371.12 323.836 1246.08 307.421C1187.62 299.745 1142.21 287.663 1079.28 281.836C998.113 274.32 903.969 278.664 821.277 285.372C592.471 303.931 355.102 317.893 107.195 313.482C68.3608 312.791 27.688 312.17 -13 311.116V218.23C148.05 229.922 312.658 238.099 484.277 234.773Z" fill="#00609E"/>
<path d="M111.668 0.632006C283.697 6.52742 376.509 52.5467 547.847 59.3056C657.146 63.6172 762.913 50.546 860.091 38.9737C957.27 27.4013 1072.67 16.6341 1175.94 25.443C1266.1 33.1327 1321.11 53.9258 1411.45 61.5127C1490.15 68.1221 1579.58 63.3326 1657.12 56.117C1734.66 48.9015 1808.57 39.242 1891.49 35.7318C1923.26 34.3964 1955.18 34.2444 1987 35.2772V108.564C1898.97 115.174 1808.38 128.66 1712.03 127.016C1648.7 125.936 1592.76 119.504 1539.08 112.003C1448.19 99.3489 1359.82 84.8817 1255.27 86.6944C1193.94 87.7578 1138.05 93.9273 1079.91 100.314C1045.04 104.14 1010.13 107.801 975.864 110.891C938.124 114.318 898.116 117.185 857.933 118.91C801.114 121.397 742.262 121.981 684.821 118.089C598.959 112.275 534.107 97.5944 447.486 92.7132C372.188 88.4646 291.255 92.2839 219.163 98.4937C151.988 104.28 87.0655 111.938 15.391 115.851C6.08 116.359 -3.42 116.785 -13 117.128V2.67144C28.233 0.35184 69.7131 -0.805834 111.668 0.632006Z" fill="#56BDEC"/>
<path d="M219.164 98.4969C291.255 92.2871 372.188 88.4678 447.487 92.7164C534.107 97.5976 598.96 112.278 684.822 118.092C742.262 121.985 801.114 121.401 857.933 118.913C898.117 117.188 938.124 114.321 975.864 110.894C1010.13 107.804 1045.04 104.144 1079.91 100.317C1138.05 93.9305 1193.94 87.7612 1255.27 86.6976C1359.82 84.8849 1448.19 99.3521 1539.08 112.006C1592.76 119.507 1648.7 125.939 1712.03 127.019C1808.38 128.663 1898.97 115.178 1987 108.567V212.233C1938.93 207.892 1894.5 201.558 1851.46 194.864C1741.47 177.827 1630.89 160.532 1497.89 164.998C1426.66 167.39 1361.22 175.243 1288.53 180.863C1244.57 184.224 1200.29 186.465 1155.87 187.577C1107.81 188.836 1058.42 188.825 1010.64 187.758C943.536 186.26 875.328 183.445 809.719 177.379C711.082 168.266 631.495 153.197 530.191 146.094C442.309 139.924 346.035 140.337 254.9 143.871C176.163 146.924 96.6613 151.584 14.2477 153.898C5.2177 154.152 -3.8839 154.366 -13 154.546V117.132C-3.42 116.789 6.08 116.363 15.3914 115.854C87.0659 111.941 151.989 104.283 219.164 98.4969Z" fill="#37A6DE"/>
<path d="M254.9 143.868C346.035 140.334 442.309 139.921 530.191 146.091C631.495 153.194 711.082 168.264 809.718 177.376C875.328 183.442 943.535 186.257 1010.64 187.755C1058.42 188.822 1107.81 188.833 1155.87 187.574C1200.29 186.462 1244.57 184.221 1288.53 180.86C1361.22 175.24 1426.66 167.387 1497.89 164.995C1630.89 160.529 1741.47 177.825 1851.46 194.861C1894.5 201.555 1938.93 207.889 1987 212.23V250.925C1968.47 249.686 1949.82 248.919 1931.14 248.626C1852.69 247.449 1776.54 252.781 1702.67 258.56C1575.59 268.462 1444.41 277.137 1324.16 261.591C1264.59 253.89 1218.11 241.769 1156.11 233.538C959.276 207.431 694.582 230.696 484.276 234.771C312.658 238.097 148.05 229.92 -13 218.229V154.543C-3.8839 154.364 5.2172 154.149 14.2477 153.896C96.6613 151.581 176.163 146.921 254.9 143.868Z" fill="#0779BE"/>
</svg>
