<svg width="50" height="37" viewBox="0 0 50 37" fill="none" xmlns="http://www.w3.org/2000/svg">
<path fill-rule="evenodd" clip-rule="evenodd" d="M1.97531 0.160792C0.993784 0.500128 0.297552 1.27247 0.0850473 2.25757C0.00893653 2.61054 -0.0136329 6.58413 0.00756869 15.8526L0.0376613 28.949L0.310253 29.5022C0.619093 30.129 1.09246 30.5863 1.74248 30.8861C2.13398 31.0666 2.40393 31.0949 4.00021 31.1228L5.81338 31.1545L5.92301 31.9041C6.06458 32.8722 6.35271 33.6279 6.87766 34.408L7.29915 35.0346H4.03939C1.72021 35.0346 0.705755 35.0682 0.523441 35.151C-0.14817 35.4559 -0.167906 36.5035 0.491492 36.8433C0.89696 37.0522 49.1047 37.0522 49.5101 36.8433C49.9749 36.6037 50.1329 36.0354 49.8736 35.5356C49.6539 35.1121 49.3498 35.0346 47.9078 35.0346H46.5935L46.9341 34.5622C47.5723 33.6769 48.046 32.3193 48.0603 31.3345C48.0648 31.0283 48.1167 30.964 48.5716 30.7016C48.8502 30.541 49.222 30.2204 49.398 29.9893C49.9847 29.2187 50.0237 28.91 49.9922 25.284L49.964 22.0357L47.1794 16.5037C44.2088 10.6018 44.1117 10.4437 43.1775 9.98489C42.7407 9.77029 42.6664 9.76659 38.2683 9.73893L33.8027 9.71089L33.774 5.94148C33.7466 2.34676 33.7357 2.15153 33.5395 1.72894C33.2388 1.08114 32.7798 0.609378 32.1509 0.30159L31.5958 0.0299259L17.038 0.00811498C3.26226 -0.0125276 2.45308 -0.00434837 1.97531 0.160792ZM31.3374 2.0674C31.4855 2.14374 31.6591 2.32105 31.7233 2.46146C31.812 2.65542 31.84 5.89864 31.84 15.9546V29.1924L24.5367 29.1869L17.2334 29.1814L16.8998 28.481C16.4373 27.51 15.3582 26.4361 14.3512 25.9447C12.625 25.1023 10.8014 25.1023 9.0752 25.9447C8.06818 26.4361 6.98905 27.51 6.52662 28.481L6.19296 29.1814L4.46332 29.1869C3.31922 29.1905 2.64692 29.1531 2.4775 29.076C2.11366 28.9109 1.94287 28.5141 1.94287 27.8341V27.245H3.50153C5.20137 27.245 5.4852 27.1806 5.71177 26.744C5.91343 26.3554 5.91343 22.2923 5.71177 21.9037C5.4852 21.4671 5.20137 21.4028 3.50153 21.4028H1.94287L1.94629 12.0308C1.95 1.97403 1.93154 2.34657 2.44214 2.06458C2.80374 1.86478 30.9497 1.8676 31.3374 2.0674ZM10.2584 5.9594C9.4114 6.42727 9.76577 7.77088 10.7362 7.77088C11.2312 7.77088 11.7132 7.29523 11.7132 6.80662C11.7132 6.07556 10.9025 5.60351 10.2584 5.9594ZM14.1665 5.9594C13.5117 6.32103 13.5332 7.35092 14.2019 7.65452C14.5693 7.82142 27.0298 7.82142 27.3973 7.65452C27.6773 7.52736 27.9319 7.11908 27.9319 6.79718C27.9319 6.47527 27.6773 6.06699 27.3973 5.93983C27.0059 5.76203 14.4902 5.78053 14.1665 5.9594ZM18.0746 9.85422C17.4198 10.2159 17.4413 11.2457 18.11 11.5493C18.4748 11.715 27.0325 11.715 27.3973 11.5493C27.6773 11.4222 27.9319 11.0139 27.9319 10.692C27.9319 10.3701 27.6773 9.96182 27.3973 9.83465C27.009 9.65831 18.3966 9.67632 18.0746 9.85422ZM42.5294 11.8708C42.6733 11.9835 42.9655 12.4217 43.1788 12.8445L43.5666 13.6131H40.0528C36.2733 13.6131 36.139 13.6293 35.8874 14.1141C35.7006 14.4741 35.6801 22.4131 35.8649 22.8174C36.1116 23.357 36.0293 23.3502 42.2894 23.3502H48.0588V25.9197C48.0588 28.3767 48.05 28.4993 47.8571 28.7191C47.7461 28.8456 47.6355 28.9029 47.6111 28.8465C47.374 28.2978 46.7174 27.402 46.186 26.9024C44.3881 25.2119 41.8208 24.8409 39.5586 25.9447C38.5516 26.4361 37.4724 27.51 37.01 28.481L36.6763 29.1814L35.2352 29.1869L33.7941 29.1924V20.429V11.6657H38.031C42.1908 11.6657 42.2727 11.6694 42.5294 11.8708ZM46.007 18.4816L47.4731 21.4028H42.5877H37.7022V18.4816V15.5605H41.1215H44.5409L46.007 18.4816ZM3.89694 24.3239V25.2976H2.9199H1.94287V24.3239V23.3502H2.9199H3.89694V24.3239ZM13.3184 27.6169C14.1999 28.0281 14.7703 28.5872 15.2075 29.4689C15.5523 30.1642 15.5725 30.2562 15.5725 31.1398C15.5725 32.0234 15.5523 32.1155 15.2075 32.8107C14.7681 33.6969 14.2024 34.2489 13.294 34.6778C12.7038 34.9564 12.5526 34.9859 11.7132 34.9859C10.8738 34.9859 10.7226 34.9564 10.1324 34.6778C9.224 34.2489 8.6583 33.6969 8.21883 32.8107C7.87443 32.1162 7.85391 32.0227 7.85391 31.1449C7.85391 30.3026 7.88313 30.1533 8.16314 29.5643C8.55572 28.7385 9.11467 28.1339 9.84374 27.7466C10.6133 27.3379 11.0344 27.2454 11.9329 27.288C12.5193 27.3159 12.8317 27.39 13.3184 27.6169ZM43.8017 27.6169C44.6833 28.0281 45.2537 28.5872 45.6909 29.4689C46.0357 30.1642 46.0558 30.2562 46.0558 31.1398C46.0558 32.0234 46.0357 32.1155 45.6909 32.8107C45.2515 33.6969 44.6858 34.2489 43.7774 34.6778C43.1872 34.9564 43.0359 34.9859 42.1966 34.9859C41.3572 34.9859 41.206 34.9564 40.6157 34.6778C39.7074 34.2489 39.1417 33.6969 38.7022 32.8107C38.3578 32.1162 38.3373 32.0227 38.3373 31.1449C38.3373 30.3026 38.3665 30.1533 38.6465 29.5643C39.0391 28.7385 39.5981 28.1339 40.3271 27.7466C41.0967 27.3379 41.5178 27.2454 42.4163 27.288C43.0027 27.3159 43.3151 27.39 43.8017 27.6169ZM11.0499 29.2967C10.5843 29.4386 9.98638 30.0761 9.85194 30.5738C9.61804 31.4394 9.96557 32.3492 10.7052 32.8075C11.2594 33.1508 12.2135 33.1368 12.7586 32.7773C13.3685 32.375 13.6184 31.8991 13.6184 31.1398C13.6184 30.3902 13.369 29.9049 12.7865 29.5207C12.3674 29.2443 11.5621 29.1404 11.0499 29.2967ZM41.5333 29.2967C41.0677 29.4386 40.4698 30.0761 40.3353 30.5738C40.1014 31.4394 40.449 32.3492 41.1886 32.8075C41.4837 32.9903 41.6973 33.0385 42.2126 33.0385C42.7787 33.0385 42.9178 33.0004 43.2786 32.7464C43.8439 32.3485 44.1022 31.8281 44.1003 31.0909C44.0985 30.3926 43.8342 29.8929 43.2698 29.5207C42.8508 29.2443 42.0455 29.1404 41.5333 29.2967ZM36.4053 31.8968C36.548 32.872 36.835 33.6264 37.361 34.408L37.7825 35.0346H26.9549H16.1272L16.5487 34.408C17.0747 33.6264 17.3618 32.872 17.5044 31.8968L17.6151 31.1398H26.9549H36.2946L36.4053 31.8968Z" fill="#A8033F"/>
</svg>
