<svg width="40" height="50" viewBox="0 0 40 50" fill="none" xmlns="http://www.w3.org/2000/svg">
<path d="M27.1144 20.2655C27.1144 19.9071 26.9716 19.5633 26.7174 19.3099C26.4632 19.0564 26.1184 18.9141 25.7588 18.9141H10.8461C10.501 18.9344 10.1767 19.0853 9.93955 19.3361C9.70241 19.5869 9.57031 19.9185 9.57031 20.2631C9.57031 20.6078 9.70241 20.9394 9.93955 21.1902C10.1767 21.4409 10.501 21.5919 10.8461 21.6122H25.7588C26.1184 21.6122 26.4632 21.4698 26.7174 21.2164C26.9716 20.9629 27.1144 20.6192 27.1144 20.2608V20.2655Z" fill="#FB5A5A"/>
<path d="M21.6935 27.0237C21.6935 26.8462 21.6584 26.6705 21.5903 26.5065C21.5222 26.3426 21.4223 26.1936 21.2965 26.0681C21.1706 25.9426 21.0211 25.843 20.8566 25.7751C20.6922 25.7072 20.5159 25.6723 20.3379 25.6723H10.8475C10.6631 25.6614 10.4784 25.6883 10.3048 25.7512C10.1311 25.8141 9.97223 25.9117 9.8378 26.038C9.70337 26.1643 9.59628 26.3167 9.52307 26.4858C9.44987 26.6549 9.41211 26.8372 9.41211 27.0213C9.41211 27.2055 9.44987 27.3877 9.52307 27.5568C9.59628 27.7259 9.70337 27.8783 9.8378 28.0047C9.97223 28.131 10.1311 28.2286 10.3048 28.2915C10.4784 28.3544 10.6631 28.3812 10.8475 28.3704H20.3379C20.6974 28.3704 21.0422 28.228 21.2965 27.9746C21.5507 27.7211 21.6935 27.3774 21.6935 27.019V27.0237Z" fill="#FB5A5A"/>
<path d="M10.8475 32.4301C10.6631 32.4192 10.4784 32.4461 10.3048 32.509C10.1311 32.5719 9.97223 32.6695 9.8378 32.7958C9.70337 32.9222 9.59628 33.0745 9.52307 33.2436C9.44987 33.4127 9.41211 33.595 9.41211 33.7791C9.41211 33.9633 9.44987 34.1455 9.52307 34.3146C9.59628 34.4837 9.70337 34.6361 9.8378 34.7625C9.97223 34.8888 10.1311 34.9864 10.3048 35.0493C10.4784 35.1122 10.6631 35.1391 10.8475 35.1282H18.9823C19.3274 35.1079 19.6517 34.957 19.8888 34.7062C20.126 34.4554 20.258 34.1238 20.258 33.7791C20.258 33.4345 20.126 33.1029 19.8888 32.8521C19.6517 32.6014 19.3274 32.4504 18.9823 32.4301H10.8475Z" fill="#FB5A5A"/>
<path d="M16.2681 13.5096C16.2681 13.1512 16.1253 12.8075 15.871 12.554C15.6168 12.3006 15.272 12.1582 14.9125 12.1582H6.77769C6.43259 12.1785 6.10831 12.3295 5.87117 12.5803C5.63403 12.831 5.50195 13.1626 5.50195 13.5073C5.50195 13.8519 5.63403 14.1835 5.87117 14.4343C6.10831 14.6851 6.43259 14.836 6.77769 14.8563H14.9125C15.272 14.8563 15.6168 14.714 15.871 14.4605C16.1253 14.2071 16.2681 13.8633 16.2681 13.5049V13.5096Z" fill="#FB5A5A"/>
<path d="M10.8475 41.888H21.0157C21.2001 41.8988 21.3848 41.872 21.5585 41.8091C21.7321 41.7462 21.891 41.6486 22.0254 41.5222C22.1599 41.3959 22.267 41.2435 22.3402 41.0744C22.4134 40.9053 22.4511 40.7231 22.4511 40.5389C22.4511 40.3547 22.4134 40.1725 22.3402 40.0034C22.267 39.8343 22.1599 39.6819 22.0254 39.5556C21.891 39.4292 21.7321 39.3316 21.5585 39.2687C21.3848 39.2059 21.2001 39.179 21.0157 39.1898H10.8475C10.6631 39.179 10.4784 39.2059 10.3048 39.2687C10.1311 39.3316 9.97223 39.4292 9.8378 39.5556C9.70337 39.6819 9.59628 39.8343 9.52307 40.0034C9.44987 40.1725 9.41211 40.3547 9.41211 40.5389C9.41211 40.7231 9.44987 40.9053 9.52307 41.0744C9.59628 41.2435 9.70337 41.3959 9.8378 41.5222C9.97223 41.6486 10.1311 41.7462 10.3048 41.8091C10.4784 41.872 10.6631 41.8988 10.8475 41.888Z" fill="#FB5A5A"/>
<path d="M8.12917 20.2655C8.12916 20.533 8.04954 20.7944 7.90038 21.0168C7.75121 21.2391 7.53921 21.4123 7.29123 21.5145C7.04326 21.6166 6.77046 21.6431 6.50737 21.5906C6.24428 21.5381 6.00275 21.4089 5.81335 21.2194C5.62396 21.0299 5.49522 20.7887 5.44345 20.5262C5.39167 20.2638 5.41918 19.9919 5.52251 19.7451C5.62583 19.4982 5.80032 19.2875 6.02386 19.1395C6.24741 18.9916 6.50995 18.9131 6.77826 18.9141C7.13779 18.9141 7.4826 19.0565 7.73682 19.3099C7.99104 19.5633 8.13387 19.9071 8.13387 20.2655" fill="#FB5A5A"/>
<path d="M8.12917 27.0233C8.12916 27.2908 8.04954 27.5522 7.90038 27.7746C7.75121 27.9969 7.53921 28.1701 7.29123 28.2723C7.04326 28.3744 6.77046 28.4009 6.50737 28.3484C6.24428 28.2959 6.00275 28.1667 5.81335 27.9772C5.62396 27.7877 5.49522 27.5465 5.44345 27.284C5.39167 27.0216 5.41918 26.7497 5.52251 26.5029C5.62583 26.256 5.80032 26.0453 6.02386 25.8974C6.24741 25.7494 6.50995 25.671 6.77826 25.6719C7.13779 25.6719 7.4826 25.8143 7.73682 26.0677C7.99104 26.3211 8.13387 26.6649 8.13387 27.0233" fill="#FB5A5A"/>
<path d="M8.12917 33.7811C8.12916 34.0486 8.04954 34.31 7.90038 34.5324C7.75121 34.7547 7.53921 34.9279 7.29123 35.0301C7.04326 35.1322 6.77046 35.1587 6.50737 35.1062C6.24428 35.0537 6.00275 34.9245 5.81335 34.735C5.62396 34.5455 5.49522 34.3043 5.44345 34.0419C5.39167 33.7794 5.41918 33.5075 5.52251 33.2607C5.62583 33.0138 5.80032 32.8031 6.02386 32.6552C6.24741 32.5072 6.50995 32.4288 6.77826 32.4297C7.13779 32.4297 7.4826 32.5721 7.73682 32.8255C7.99104 33.0789 8.13387 33.4227 8.13387 33.7811" fill="#FB5A5A"/>
<path d="M8.12917 40.5409C8.12916 40.8084 8.04954 41.0698 7.90038 41.2922C7.75121 41.5145 7.53921 41.6877 7.29123 41.7898C7.04326 41.892 6.77046 41.9185 6.50737 41.866C6.24428 41.8134 6.00275 41.6843 5.81335 41.4948C5.62396 41.3053 5.49522 41.0641 5.44345 40.8016C5.39167 40.5392 5.41918 40.2673 5.52251 40.0205C5.62583 39.7736 5.80032 39.5629 6.02386 39.4149C6.24741 39.267 6.50995 39.1885 6.77826 39.1895C7.13779 39.1895 7.4826 39.3318 7.73682 39.5853C7.99104 39.8387 8.13387 40.1825 8.13387 40.5409" fill="#FB5A5A"/>
<path d="M31.1835 43.2429C30.8239 43.2429 30.4791 43.3853 30.2249 43.6388C29.9707 43.8922 29.8279 44.2359 29.8279 44.5943V45.9458C29.8279 46.3042 29.685 46.6479 29.4308 46.9014C29.1766 47.1548 28.8318 47.2972 28.4723 47.2972H4.06679C3.70726 47.2972 3.36247 47.1548 3.10825 46.9014C2.85402 46.6479 2.7112 46.3042 2.7112 45.9458V6.75238C2.7112 6.39396 2.85402 6.05023 3.10825 5.79679C3.36247 5.54335 3.70726 5.40097 4.06679 5.40097H7.0157C7.29673 6.18981 7.81575 6.87262 8.50154 7.35571C9.18732 7.83879 10.0062 8.09847 10.846 8.0991H21.6919C22.5316 8.09847 23.3506 7.83879 24.0363 7.35571C24.7221 6.87262 25.2411 6.18981 25.5222 5.40097H28.4711C28.8306 5.40097 29.1754 5.54335 29.4296 5.79679C29.6839 6.05023 29.8267 6.39396 29.8267 6.75238V21.6191C29.8158 21.803 29.8427 21.9871 29.9058 22.1602C29.9689 22.3333 30.0668 22.4917 30.1936 22.6257C30.3203 22.7598 30.4731 22.8665 30.6428 22.9395C30.8124 23.0125 30.9952 23.0501 31.1799 23.0501C31.3647 23.0501 31.5475 23.0125 31.7171 22.9395C31.8867 22.8665 32.0396 22.7598 32.1663 22.6257C32.293 22.4917 32.3909 22.3333 32.454 22.1602C32.5171 21.9871 32.5441 21.803 32.5332 21.6191V6.75238C32.5332 5.67713 32.1047 4.64592 31.342 3.8856C30.5794 3.12528 29.545 2.69814 28.4664 2.69814H25.5175C25.2364 1.9093 24.7174 1.22648 24.0316 0.743399C23.3459 0.260317 22.5269 0.000638685 21.6872 0H10.8413C10.0015 0.000638685 9.18261 0.260317 8.49683 0.743399C7.81105 1.22648 7.29201 1.9093 7.01097 2.69814H4.06208C2.98432 2.69938 1.95112 3.12707 1.18946 3.88726C0.427811 4.64744 -7.21882e-07 5.67794 0 6.75238V45.9458C0 47.021 0.428463 48.0522 1.19113 48.8125C1.95381 49.5729 2.98821 50 4.06679 50H28.4699C29.5485 50 30.5829 49.5729 31.3456 48.8125C32.1082 48.0522 32.5367 47.021 32.5367 45.9458V44.5943C32.5367 44.2359 32.3939 43.8922 32.1397 43.6388C31.8854 43.3853 31.5406 43.2429 31.1811 43.2429H31.1835ZM10.846 2.69227H21.6919C21.8764 2.68142 22.061 2.70827 22.2347 2.77116C22.4083 2.83406 22.5672 2.93167 22.7017 3.05801C22.8361 3.18434 22.9432 3.33674 23.0164 3.50584C23.0896 3.67494 23.1274 3.85717 23.1274 4.04134C23.1274 4.22552 23.0896 4.40775 23.0164 4.57684C22.9432 4.74594 22.8361 4.89834 22.7017 5.02467C22.5672 5.15101 22.4083 5.24862 22.2347 5.31152C22.061 5.37441 21.8764 5.40126 21.6919 5.39041H10.846C10.5008 5.37011 10.1766 5.21914 9.93943 4.96837C9.70229 4.7176 9.57021 4.38598 9.57021 4.04134C9.57021 3.6967 9.70229 3.36509 9.93943 3.11432C10.1766 2.86355 10.5008 2.71257 10.846 2.69227Z" fill="#FB5A5A"/>
<path d="M31.1821 24.3203C29.1438 24.3218 27.169 25.0277 25.5942 26.3178C24.0194 27.6078 22.9419 29.4023 22.5453 31.3955C22.1488 33.3887 22.4577 35.4573 23.4193 37.2489C24.381 39.0406 25.936 40.4444 27.8195 41.2213C29.7029 41.9982 31.7983 42.1001 33.7486 41.5097C35.699 40.9193 37.3837 39.673 38.5157 37.9832C39.6478 36.2934 40.1572 34.2647 39.9572 32.2424C39.7572 30.2202 38.8601 28.3297 37.4187 26.8929C36.5997 26.0766 35.6274 25.4292 34.5572 24.9878C33.4871 24.5464 32.3402 24.3196 31.1821 24.3203ZM31.1821 39.1871C29.7705 39.1872 28.4025 38.6995 27.3112 37.8069C26.2199 36.9143 25.4728 35.6721 25.1972 34.2919C24.9217 32.9117 25.1347 31.479 25.8 30.2378C26.4652 28.9967 27.5416 28.0239 28.8457 27.4852C30.1498 26.9466 31.6009 26.8753 32.9517 27.2837C34.3026 27.692 35.4696 28.5547 36.254 29.7247C37.0383 30.8947 37.3915 32.2996 37.2533 33.7001C37.115 35.1006 36.494 36.4099 35.4959 37.4051C34.9295 37.97 34.257 38.4181 33.5168 38.7239C32.7766 39.0296 31.9833 39.187 31.1821 39.1871Z" fill="#FB5A5A"/>
<path d="M32.5311 32.5453V29.7299C32.542 29.546 32.5151 29.3619 32.452 29.1888C32.3889 29.0156 32.291 28.8573 32.1642 28.7232C32.0375 28.5892 31.8846 28.4824 31.715 28.4095C31.5454 28.3365 31.3626 28.2988 31.1779 28.2988C30.9931 28.2988 30.8103 28.3365 30.6407 28.4095C30.4711 28.4824 30.3182 28.5892 30.1915 28.7232C30.0648 28.8573 29.9669 29.0156 29.9038 29.1888C29.8407 29.3619 29.8137 29.546 29.8246 29.7299V33.1084C29.8262 33.4662 29.9701 33.8088 30.2247 34.061L32.2581 36.0881C32.5172 36.3118 32.8516 36.4293 33.1942 36.4171C33.5367 36.4049 33.8618 36.2638 34.1042 36.0222C34.3465 35.7806 34.4881 35.4564 34.5003 35.1149C34.5126 34.7735 34.3947 34.44 34.1703 34.1818L32.5311 32.5453Z" fill="#FB5A5A"/>
</svg>
