<svg width="45" height="50" viewBox="0 0 45 50" fill="none" xmlns="http://www.w3.org/2000/svg">
<path d="M30.5801 0C28.6657 0.000854049 26.7709 0.38285 25.0072 1.12348C23.2436 1.86411 21.6467 2.9484 20.3109 4.31245C11.8991 4.97961 5.13882 11.7557 4.98429 19.8159L0.132981 32.1363C0.0280944 32.3951 -0.0147608 32.6746 0.007811 32.9527C0.0303828 33.2308 0.117763 33.4999 0.263024 33.7386C0.408284 33.9772 0.60743 34.179 0.844684 34.3278C1.08194 34.4766 1.35078 34.5684 1.62989 34.5959L5.13882 34.9034L5.3974 38.3939C5.50301 39.6698 6.10871 40.8533 7.0838 41.6889C8.05888 42.5244 9.32514 42.9451 10.6093 42.8601L12.6697 42.7063V48.1994C12.6696 48.4353 12.7162 48.669 12.8069 48.887C12.8976 49.1051 13.0307 49.3032 13.1984 49.47C13.3661 49.6369 13.5653 49.7692 13.7844 49.8594C14.0036 49.9497 14.2385 49.996 14.4757 49.9959H35.1182C35.5972 49.9959 36.0566 49.8066 36.3952 49.4697C36.7339 49.1328 36.9242 48.6758 36.9242 48.1994V38.1428C36.8481 36.893 36.8826 35.6389 37.0272 34.395L37.1302 33.2145C37.2333 31.9847 37.3888 30.4936 37.5949 28.8508L37.8534 26.6986C40.5883 25.112 42.7211 22.673 43.9219 19.7589C45.1227 16.8449 45.3244 13.6184 44.4958 10.5788C43.6672 7.53918 41.8546 4.85602 39.3385 2.94459C36.8223 1.03315 33.7429 2.6951e-05 30.577 0.00512373L30.5801 0ZM33.986 28.3875C33.78 30.0273 33.6244 31.5706 33.5214 32.905L33.4184 34.0323C33.2588 35.4641 33.2243 36.907 33.3153 38.3447V46.4039H16.2858V40.8074C16.2861 40.5625 16.236 40.3202 16.1388 40.0953C16.0415 39.8703 15.8991 39.6675 15.7203 39.4993C15.5414 39.3311 15.3299 39.201 15.0987 39.117C14.8675 39.033 14.6215 38.9969 14.3758 39.0108L10.3507 39.2681C10.1812 39.2821 10.0106 39.2626 9.84871 39.2108C9.68681 39.1589 9.53682 39.0758 9.40736 38.966C9.27791 38.8563 9.17155 38.7222 9.0944 38.5714C9.01726 38.4206 8.97085 38.2562 8.95784 38.0875L8.54576 33.0566C8.5035 32.6579 8.32845 32.2847 8.04844 31.9963C7.76843 31.7079 7.39954 31.5209 7.00043 31.4651L4.36821 31.2079L8.44479 20.7864C8.52132 20.5726 8.55628 20.3462 8.54782 20.1193C8.54782 14.9347 12.3668 10.2626 17.4242 8.56853C16.3378 11.0134 15.9636 13.7126 16.3441 16.3587C16.7246 19.0048 17.8446 21.4914 19.5764 23.5352C21.3082 25.5791 23.5823 27.0979 26.1396 27.9189C28.6968 28.7398 31.4345 28.8297 34.0406 28.1785L33.986 28.3875ZM30.5801 24.9995C28.0835 24.9997 25.6641 24.1383 23.7345 22.5623C21.805 20.9863 20.4848 18.7933 19.999 16.3572C19.5133 13.9211 19.8921 11.3929 21.0709 9.20358C22.2496 7.01428 24.1553 5.29953 26.463 4.35177C28.7707 3.404 31.3374 3.28191 33.7255 4.00631C36.1135 4.73071 38.175 6.25675 39.5584 8.32417C40.9418 10.3916 41.5614 12.8724 41.3115 15.3434C41.0617 17.8145 39.9578 20.1229 38.1883 21.8748C36.1672 23.8759 33.4317 24.9994 30.5801 24.9995Z" fill="#FF03B8"/>
<path d="M35.2244 13.5002H31.7155V8.36682C31.7155 7.89036 31.5252 7.43341 31.1865 7.0965C30.8478 6.75959 30.3885 6.57031 29.9095 6.57031C29.4305 6.57031 28.9711 6.75959 28.6325 7.0965C28.2938 7.43341 28.1035 7.89036 28.1035 8.36682V15.2977C28.1038 15.7741 28.2941 16.2309 28.6328 16.5677C28.9714 16.9046 29.4306 17.0939 29.9095 17.0942H35.2244C35.7035 17.0942 36.163 16.9049 36.5018 16.5679C36.8406 16.2309 37.0309 15.7738 37.0309 15.2972C37.0309 14.8206 36.8406 14.3635 36.5018 14.0265C36.163 13.6895 35.7035 13.5002 35.2244 13.5002Z" fill="#FF03B8"/>
</svg>
