<svg width="50" height="50" viewBox="0 0 50 50" fill="none" xmlns="http://www.w3.org/2000/svg">
<path fill-rule="evenodd" clip-rule="evenodd" d="M3.10777 0.11195C1.62535 0.523235 0.412783 1.80423 0.0934598 3.2964C0.00702931 3.69986 -0.0141872 7.74806 0.00839812 19.4837C0.0375342 34.649 0.0442804 35.1467 0.225843 35.5732C0.765056 36.8404 1.72351 37.7537 2.89355 38.1152C3.50551 38.3042 3.79413 38.3119 10.3762 38.3119H17.2224L18.246 39.388C20.5783 41.8401 23.1317 43.2513 26.4208 43.9058C27.9712 44.2144 30.3804 44.2139 31.9345 43.9047C33.8017 43.5332 35.6499 42.7999 37.2205 41.8077L37.8443 41.4136L38.7447 42.3106C39.5817 43.1443 39.6424 43.2313 39.606 43.544C39.5312 44.1847 39.8605 44.6099 42.3521 47.0891C45.151 49.874 45.3402 50 46.7246 50C47.433 50 47.6364 49.9604 48.1021 49.7315C48.7906 49.3934 49.395 48.7872 49.7355 48.0934C49.96 47.6363 50 47.429 50 46.7234C50 45.3384 49.8741 45.1492 47.0902 42.3492C44.6119 39.8567 44.1869 39.5272 43.5465 39.6021C43.2339 39.6385 43.1469 39.5778 42.3135 38.7405L41.4168 37.8398L41.8107 37.2157C44.2047 33.4237 44.8047 28.759 43.4404 24.5463C42.8798 22.8152 41.6348 20.6235 40.4725 19.3214L39.9784 18.7677V11.1402C39.9784 3.81176 39.9707 3.48801 39.7846 2.88492C39.4241 1.71748 38.4882 0.712691 37.3111 0.229321L36.8008 0.0198147L20.1795 0.00338285C6.94913 -0.00962569 3.4664 0.0124791 3.10777 0.11195ZM14.1666 7.21315V12.7927L14.4066 13.0328C14.8669 13.4933 15.0926 13.4056 17.3934 11.8716C18.5494 11.1009 19.6067 10.3978 19.743 10.3092C19.9892 10.1492 20.0072 10.1588 22.3339 11.7104C24.2979 13.0198 24.7352 13.2728 25.0366 13.2728C25.3087 13.2729 25.4454 13.2102 25.5988 13.0152C25.7984 12.7613 25.8014 12.6743 25.8014 7.19241V1.6273L31.1544 1.65488C37.1719 1.68598 36.8776 1.65038 37.6441 2.44048C38.334 3.15165 38.3162 2.93803 38.3162 10.4974V17.2723L37.5307 16.731C35.9737 15.658 34.1027 14.8755 32.026 14.4287C30.697 14.1427 27.8707 14.1175 26.5347 14.3797C21.7814 15.3126 17.8594 18.2447 15.7825 22.418C15.1617 23.6653 14.7572 24.8352 14.4466 26.2814C14.1331 27.7406 14.1307 30.5616 14.4416 32.0134C14.7245 33.3337 15.0643 34.3381 15.6423 35.5614C15.9061 36.1197 16.122 36.5928 16.122 36.6128C16.122 36.6328 13.3347 36.6491 9.92805 36.6491C5.49761 36.6491 3.63955 36.6169 3.40177 36.5361C2.83411 36.3429 2.2728 35.8722 1.98017 35.3443L1.70064 34.8397V19.1414C1.70064 4.01882 1.70728 3.4306 1.88269 3.10079C2.23447 2.43921 2.83704 1.92943 3.50883 1.72501C3.64356 1.68403 6.09666 1.64666 8.96021 1.64207L14.1666 1.63366V7.21315ZM24.1393 6.23066C24.1393 8.75901 24.118 10.8277 24.092 10.8277C24.066 10.8277 23.1778 10.2516 22.1184 9.54754C20.4975 8.47048 20.1488 8.27613 19.9196 8.322C19.7697 8.35193 18.788 8.95062 17.7379 9.6522L15.8287 10.9279V6.28074V1.63366H19.984H24.1393V6.23066ZM32.0822 16.149C34.5594 16.7223 36.6049 17.8365 38.4291 19.6063C40.3893 21.5081 41.6441 23.7915 42.2469 26.5539C42.5439 27.9152 42.5444 30.332 42.248 31.7098C41.9697 33.0028 41.7148 33.7676 41.1918 34.8788C39.5053 38.4621 36.2058 41.1598 32.3479 42.1099C27.7461 43.2432 22.937 41.8474 19.6038 38.411C15.4929 34.173 14.6526 27.692 17.5552 22.6136C19.6576 18.9352 23.2477 16.5085 27.4636 15.9161C28.585 15.7585 30.8988 15.8752 32.0822 16.149ZM27.3658 17.6214C24.9285 18.023 22.8102 19.0987 21.0259 20.8412C16.2791 25.4767 16.3423 33.0458 21.166 37.6285C25.1298 41.3945 31.1407 41.8774 35.7337 38.799C36.7099 38.1446 38.1367 36.7235 38.7758 35.7689C40.1644 33.6946 40.7775 31.721 40.7961 29.2646C40.8078 27.7425 40.68 26.8551 40.2661 25.5832C38.9611 21.5722 35.6545 18.6143 31.4722 17.7165C30.4572 17.4987 28.4003 17.4511 27.3658 17.6214ZM31.2278 19.3739C34.3333 20.0499 36.8804 22.0798 38.2239 24.9494C40.2265 29.2266 38.9376 34.3421 35.1471 37.1609C31.2311 40.0728 25.8876 39.7676 22.319 36.4282C19.5504 33.8373 18.4899 29.8372 19.616 26.2325C20.7519 22.5962 23.7695 19.9502 27.5438 19.2812C28.4585 19.119 30.2659 19.1646 31.2278 19.3739ZM27.9035 20.9134C26.3646 21.1373 24.6998 21.946 23.5282 23.0386C23.1565 23.3853 23.0638 23.5358 23.0638 23.7927C23.0638 24.2523 23.1466 24.4103 23.4773 24.5813C23.8841 24.7918 24.1741 24.6911 24.8144 24.1164C25.3943 23.596 26.8104 22.8545 27.5613 22.6781C27.8033 22.6212 28.3093 22.5471 28.6857 22.5133C29.4929 22.441 29.75 22.3345 29.8971 22.0114C30.0705 21.6304 30.0255 21.3958 29.7198 21.09C29.4045 20.7746 29.0764 20.7427 27.9035 20.9134ZM5.26179 28.6213C5.08951 28.7936 4.976 29.0103 4.976 29.1668C4.976 29.3233 5.08951 29.5399 5.26179 29.7122L5.54757 29.9981H7.06509C8.4996 29.9981 8.5963 29.9861 8.83261 29.7781C8.97018 29.657 9.1097 29.4168 9.14284 29.244C9.1932 28.9815 9.15438 28.8814 8.90585 28.6327L8.60862 28.3354H7.0781H5.54757L5.26179 28.6213ZM5.26179 31.9468C5.08951 32.1191 4.976 32.3358 4.976 32.4923C4.976 32.6488 5.08951 32.8654 5.26179 33.0377L5.54757 33.3236H8.74022H11.9329L12.2187 33.0377C12.3909 32.8654 12.5044 32.6488 12.5044 32.4923C12.5044 32.3358 12.3909 32.1191 12.2187 31.9468L11.9329 31.6609H8.74022H5.54757L5.26179 31.9468ZM41.1523 39.9265L41.8815 40.6607L41.272 41.2705L40.6626 41.8801L39.9069 41.1242L39.1511 40.3681L39.7328 39.7802C40.0527 39.4567 40.339 39.1922 40.3689 39.1922C40.3988 39.1922 40.7514 39.5225 41.1523 39.9265ZM48.1506 45.9233C48.5112 46.6834 48.2124 47.6843 47.5064 48.0812C47.0604 48.332 46.3556 48.3538 45.9131 48.1305C45.7411 48.0436 44.621 46.9992 43.4242 45.8097L41.2479 43.6467L42.4453 42.4461L43.6426 41.2454L45.8193 43.4214C47.0164 44.6181 48.0656 45.744 48.1506 45.9233Z" fill="#4200FF"/>
</svg>
