<svg width="50" height="30" viewBox="0 0 50 30" fill="none" xmlns="http://www.w3.org/2000/svg">
<path fill-rule="evenodd" clip-rule="evenodd" d="M26.8409 0.146353C26.4328 0.309334 26.0984 0.629605 25.9727 0.977656C25.9254 1.1085 24.6518 7.3163 23.1424 14.7727C21.2172 24.2831 20.4088 28.4562 20.4342 28.7534C20.5625 30.258 23.5033 30.4687 24.0298 29.011C24.0771 28.8802 25.3506 22.6723 26.86 15.216C28.7852 5.70556 29.5936 1.53242 29.5682 1.2352C29.5269 0.750178 29.198 0.369989 28.6153 0.133646C28.1634 -0.0495777 27.3163 -0.0435194 26.8409 0.146353ZM12.9959 4.35591C12.8144 4.3882 12.5506 4.47833 12.4097 4.55628C12.2687 4.63415 9.48839 6.82958 6.2312 9.43482C1.93964 12.8675 0.265026 14.2549 0.149249 14.4737C-0.0572931 14.8641 -0.0499654 15.1801 0.174358 15.5535C0.291014 15.7478 2.16181 17.3032 5.4615 19.9494C13.0351 26.0231 12.5193 25.6542 13.4377 25.6542C14.8005 25.6542 15.7252 24.5152 15.0845 23.6256C14.977 23.4764 12.5589 21.4887 9.71085 19.2086C6.86284 16.9284 4.53265 15.032 4.53265 14.9943C4.53265 14.9566 6.86284 13.0602 9.71085 10.78C12.5589 8.49994 14.977 6.51226 15.0845 6.36302C15.8133 5.35101 14.4994 4.08832 12.9959 4.35591ZM36.1742 4.35237C35.0064 4.56219 34.3628 5.59223 34.918 6.36302C35.0254 6.51226 37.4436 8.49994 40.2916 10.78C43.1396 13.0602 45.4698 14.9564 45.4698 14.9939C45.4698 15.0313 43.1396 16.9282 40.2916 19.2091C36.775 22.0255 35.0415 23.4666 34.8894 23.7004C34.3113 24.589 35.2248 25.6542 36.5647 25.6542C37.4841 25.6542 36.987 26.0097 44.5425 19.9487C47.8326 17.3093 49.7124 15.7461 49.8285 15.5529C50.0572 15.1722 50.0572 14.8165 49.8285 14.4358C49.7124 14.2425 47.8326 12.6794 44.5425 10.0399C38.5843 5.26028 37.7385 4.59994 37.4094 4.47094C37.0698 4.33796 36.5384 4.28691 36.1742 4.35237Z" fill="#FFB300"/>
</svg>
