<svg width="50" height="34" viewBox="0 0 50 34" fill="none" xmlns="http://www.w3.org/2000/svg">
<path fill-rule="evenodd" clip-rule="evenodd" d="M17.3029 0.0557743C13.8986 0.524714 10.8852 2.37647 9.04762 5.12866C7.66203 7.20405 7.09274 9.08388 7.09723 11.5697C7.10007 13.1651 7.20221 13.7992 7.69331 15.2711C8.98067 19.1293 12.3395 22.0578 16.4417 22.8985C17.7192 23.1604 19.6134 23.1828 20.8424 22.9508C26.8059 21.8247 30.9533 16.4347 30.3943 10.5369C30.0966 7.39604 28.506 4.43958 26.1081 2.5702C24.5659 1.36786 23.0519 0.64761 21.2128 0.241183C20.2421 0.0266471 18.213 -0.0695407 17.3029 0.0557743ZM21.2374 1.73916C23.0252 2.18807 24.4408 2.97847 25.84 4.30874C31.5142 9.70358 29.1279 19.1165 21.533 21.2982C19.2929 21.9416 16.6063 21.7346 14.4729 20.7541C13.0292 20.0906 11.4659 18.8139 10.4547 17.4725C9.85797 16.6808 9.12573 15.1273 8.83453 14.035C8.61323 13.2048 8.57647 12.8664 8.57198 11.618C8.56631 10.0425 8.73336 9.10294 9.2441 7.83924C10.6008 4.48215 13.785 2.00933 17.3962 1.50856C18.4284 1.36544 20.1642 1.46966 21.2374 1.73916ZM18.2617 3.34793C17.9796 3.62721 17.9669 3.67375 18.0059 4.2802C18.0522 5.00064 18.2683 5.27972 18.7799 5.27972C19.2787 5.27972 19.4533 4.9928 19.4533 4.17395C19.4533 3.51273 19.4327 3.43909 19.1958 3.25465C18.8425 2.97953 18.6103 3.00276 18.2617 3.34793ZM21.9022 7.43843L19.7955 9.50027L19.2417 9.36451C18.4601 9.1729 17.7516 9.37844 17.1537 9.97047C16.5529 10.5651 16.3358 11.2977 16.5364 12.0534L16.6776 12.5857L15.7684 13.5157C15.2358 14.0604 14.8591 14.526 14.8591 14.6396C14.8591 14.9979 15.2291 15.3436 15.6125 15.3436C15.9196 15.3436 16.0676 15.2398 16.8665 14.4642C17.6661 13.6879 17.7957 13.5972 17.9711 13.6901C18.2866 13.8573 19.259 13.813 19.6977 13.6115C20.1809 13.3896 20.6653 12.8952 20.8657 12.4195C21.0399 12.0062 21.0644 11.2211 20.9154 10.8331C20.8169 10.5765 20.8823 10.4993 22.8704 8.52339C24.7896 6.6159 24.9273 6.45555 24.9273 6.12828C24.9273 5.74034 24.5805 5.37649 24.2105 5.37649C24.079 5.37649 23.2759 6.09383 21.9022 7.43843ZM32.6495 9.31583C32.1464 9.49901 31.9881 10.1408 32.3562 10.5052C32.5419 10.689 32.682 10.6987 35.1421 10.6987C37.3109 10.6987 37.7325 10.721 37.7325 10.8358C37.7325 10.9111 36.6108 15.1169 35.2399 20.182C33.8689 25.2472 32.7472 29.4095 32.7472 29.4316C32.7472 29.4537 30.2456 29.4718 27.1881 29.4718H21.629L21.5636 28.9638C21.1813 25.9902 17.2899 25.4474 14.9059 28.0352C14.6361 28.3282 14.3062 28.7713 14.173 29.0199L13.9308 29.4718H12.3308C10.8541 29.4718 10.7345 29.4587 10.7784 29.3025C10.8045 29.2094 11.1471 27.9451 11.5396 26.4932L12.2535 23.8531L12.056 23.5901C11.8043 23.255 11.2441 23.1802 10.9756 23.4459C10.7544 23.6649 9.26248 29.1407 9.2703 29.7047C9.27665 30.1623 9.51966 30.5221 9.97859 30.7538C10.259 30.8954 10.5872 30.923 11.9863 30.9231L13.6588 30.9233L13.7141 31.4534C13.7462 31.7619 13.8833 32.1909 14.0421 32.4797C14.8738 33.9924 16.8351 34.4262 18.7517 33.5211C19.5408 33.1484 20.6109 32.1567 20.9815 31.4548L21.2617 30.9238L29.5822 30.9235L37.9027 30.9233L37.9653 31.383C38.1529 32.763 39.2498 33.8146 40.6727 33.9787C42.2928 34.1655 44.2907 33.104 45.1918 31.5777C45.5579 30.9577 45.573 30.9456 46.0613 30.8814C46.9559 30.764 47.8949 30.1283 48.2866 29.375C48.3834 29.1888 48.8046 27.7953 49.2226 26.2785C50.0799 23.1673 50.1637 22.5191 49.7861 21.9229C49.6604 21.7244 49.0357 21.2035 48.271 20.6597L46.9698 19.7341L46.9209 15.9108L46.872 12.0874L46.6031 11.6853C46.4552 11.4641 46.1473 11.1843 45.9189 11.0636C45.5162 10.8506 45.409 10.8429 42.412 10.8136L39.3206 10.7834L39.2674 10.3916C39.2027 9.91347 38.8102 9.47753 38.3245 9.34389C37.9662 9.24538 32.9118 9.22042 32.6495 9.31583ZM19.3311 11.0131C19.8335 11.4772 19.4701 12.3468 18.7765 12.3407C18.1547 12.3353 17.7692 11.8002 17.9962 11.2577C18.2279 10.7039 18.8693 10.5863 19.3311 11.0131ZM10.6908 10.8863C10.442 10.9919 10.1671 11.355 10.1671 11.5782C10.1671 11.6656 10.2583 11.8518 10.3698 11.9921C10.5561 12.2266 10.6305 12.247 11.2984 12.247C12.1256 12.247 12.4154 12.0741 12.4154 11.5804C12.4154 11.0896 12.1321 10.8625 11.4769 10.8278C11.1597 10.8111 10.806 10.8373 10.6908 10.8863ZM25.6115 10.859C25.278 10.9921 25.1228 11.2209 25.1228 11.5791C25.1228 12.0886 25.3777 12.247 26.198 12.247C27.0184 12.247 27.2733 12.0886 27.2733 11.5791C27.2733 11.0631 27.0182 10.8628 26.3166 10.8281C26.0095 10.8129 25.6922 10.8268 25.6115 10.859ZM45.3591 12.4406C45.41 12.5204 45.4523 12.8751 45.4532 13.2287L45.4547 13.8716L43.573 13.9083C41.7931 13.9431 41.6618 13.9586 41.1453 14.1962C40.5567 14.467 39.9774 14.9789 39.7356 15.4417C39.501 15.8909 38.8074 18.5335 38.8099 18.9692C38.8145 19.8263 39.4158 20.5586 40.2759 20.7548C40.5181 20.8101 41.9037 20.8557 43.377 20.8571L46.0402 20.8594L47.0915 21.601C48.4883 22.5863 48.5975 22.6891 48.5626 22.9851C48.5352 23.2174 48.4962 23.2328 47.8171 23.2786C47.0132 23.3329 46.8232 23.4724 46.8232 24.0079C46.8232 24.4132 47.0992 24.6443 47.6579 24.7066C48.0121 24.7462 48.1004 24.7907 48.0671 24.913C48.0437 24.9987 47.8133 25.8456 47.555 26.795C47.0514 28.646 46.8603 29.0398 46.3406 29.2982C45.9345 29.5001 45.8457 29.4551 45.8457 29.0479C45.8457 28.1793 45.1465 27.1503 44.2448 26.6922C43.4931 26.3102 42.3225 26.2691 41.3854 26.5917C40.1311 27.0235 39.1394 27.837 38.4937 28.9638L38.2025 29.4718H36.2569C34.8423 29.4718 34.3112 29.441 34.3112 29.3592C34.3112 29.2972 34.5823 28.2316 34.9136 26.9911L35.516 24.7356L40.0841 24.7087C44.4181 24.6831 44.6628 24.6723 44.858 24.4974C45.1264 24.2569 45.1316 23.733 44.8682 23.4722C44.6785 23.2844 44.5424 23.2786 40.3228 23.2786C37.2792 23.2786 35.973 23.2473 35.973 23.1743C35.973 23.0816 38.4029 14.0396 38.7741 12.7513L38.9216 12.2395L42.094 12.2675C44.7864 12.2912 45.2805 12.3174 45.3591 12.4406ZM45.4547 17.3758V19.4079H43.115C41.8283 19.4079 40.6626 19.3654 40.5247 19.3136C40.1963 19.19 40.2027 19.0462 40.6016 17.5662C40.9636 16.2234 41.028 16.0724 41.3763 15.7499C41.7433 15.4101 42.0451 15.3609 43.8174 15.3519L45.4547 15.3436V17.3758ZM18.2222 18.0633C17.9374 18.3748 17.9551 19.5161 18.2493 19.8072C18.5301 20.0853 19.0471 20.0767 19.2815 19.79C19.5403 19.4736 19.5246 18.3172 19.2578 18.0531C18.9944 17.7924 18.4652 17.7975 18.2222 18.0633ZM0.213724 21.1801C-0.16398 21.5782 -0.0246872 22.1189 0.502475 22.3008C0.708726 22.3719 2.1171 22.4077 4.71264 22.4077C7.94452 22.4077 8.66024 22.3834 8.88937 22.2661C9.33462 22.0383 9.43432 21.4887 9.0919 21.1497C8.90247 20.9622 8.76611 20.9562 4.66132 20.9562H0.426328L0.213724 21.1801ZM2.54983 24.3078C2.4384 24.448 2.3472 24.6657 2.3472 24.7916C2.3472 25.0601 2.63937 25.3793 2.95745 25.4583C3.08081 25.489 4.29554 25.5009 5.6568 25.485C8.12389 25.456 8.13259 25.4552 8.31871 25.2275C8.56152 24.9304 8.55624 24.5304 8.3061 24.2646C8.1104 24.0567 8.05781 24.0528 5.42963 24.0528H2.75237L2.54983 24.3078ZM4.89582 27.4044C4.64079 27.7252 4.63727 28.0617 4.88624 28.3082C5.15652 28.5757 5.43676 28.6253 6.45834 28.5865C7.25549 28.5561 7.36956 28.5283 7.53661 28.324C7.78959 28.0147 7.77327 27.6166 7.49722 27.3597C7.29293 27.1698 7.16546 27.1494 6.18464 27.1494C5.12758 27.1494 5.09288 27.1562 4.89582 27.4044ZM19.3677 28.0264C20.4771 28.5867 20.3194 30.3789 19.058 31.5469C18.3626 32.1909 17.6123 32.5157 16.8141 32.5181C15.7091 32.5215 15.1524 31.9793 15.1524 30.9C15.1524 28.9859 17.7548 27.2118 19.3677 28.0264ZM43.5955 27.9963C44.4059 28.3993 44.6365 29.5036 44.1232 30.5235C43.5936 31.5756 42.3942 32.4211 41.2798 32.5281C40.809 32.5733 40.6408 32.5447 40.2797 32.3577C39.6211 32.0167 39.4422 31.7118 39.4478 30.9401C39.4546 30.0024 39.9576 29.1314 40.8792 28.4616C41.7099 27.858 42.9057 27.6531 43.5955 27.9963ZM17.1244 29.6957C17.0075 29.8189 16.9119 30.0387 16.9119 30.184C16.9119 30.4699 17.296 30.9233 17.5381 30.9233C17.8128 30.9233 18.1608 30.7089 18.2696 30.4727C18.4302 30.1235 18.4043 29.9728 18.1381 29.7094C17.8303 29.4046 17.4062 29.3988 17.1244 29.6957ZM41.5149 29.5793C41.0637 29.8391 41.1187 30.5947 41.6048 30.814C41.9441 30.9671 42.0677 30.9522 42.3624 30.7227C42.8679 30.3292 42.5903 29.4678 41.9601 29.4747C41.8123 29.4764 41.6119 29.5234 41.5149 29.5793Z" fill="#0092FF"/>
</svg>
