<svg width="50" height="50" viewBox="0 0 50 50" fill="none" xmlns="http://www.w3.org/2000/svg">
<path fill-rule="evenodd" clip-rule="evenodd" d="M19.9662 0.0542437C17.1756 0.353137 14.8775 1.0179 12.3319 2.26265C4.54438 6.07043 -0.335188 14.2427 0.017966 22.886C0.242718 28.3896 2.37298 33.3445 6.23364 37.3435C10.5435 41.8079 16.7564 44.2896 22.9466 44.0194C24.3745 43.9571 25.7971 43.7762 26.9347 43.5125C27.274 43.4338 27.5696 43.3695 27.5917 43.3695C27.6137 43.3695 27.8289 43.7105 28.0698 44.1272C30.2771 47.9461 34.4329 50.219 38.777 49.9833C41.7968 49.8194 44.3373 48.6767 46.5056 46.5071C48.6766 44.335 49.8297 41.7559 49.9852 38.7253C50.2066 34.4077 47.9286 30.2607 44.1271 28.0609C43.7106 27.8199 43.3698 27.6046 43.3698 27.5825C43.3698 27.5604 43.4341 27.2647 43.5127 26.9252C44.9618 20.6678 43.4195 13.7075 39.4403 8.54742C35.989 4.07195 30.9191 1.07138 25.3407 0.202957C24.1797 0.0222719 21.0688 -0.0638665 19.9662 0.0542437ZM25.2919 3.17302C32.1578 4.36849 37.8482 9.26625 40.0861 15.9065C40.8638 18.2139 41.1937 20.4886 41.0911 22.8371C41.0338 24.1499 40.7038 26.4236 40.5479 26.5796C40.503 26.6245 40.0752 26.609 39.5972 26.5452C38.0021 26.3319 36.0712 26.5354 34.4168 27.0911C31.6073 28.0347 29.0853 30.2298 27.7354 32.9065C26.7042 34.951 26.2657 37.4347 26.5547 39.5949C26.6186 40.0731 26.6342 40.5011 26.5893 40.5461C26.5444 40.591 25.9813 40.7188 25.3379 40.8298C16.9485 42.279 8.50002 37.949 4.8177 30.3127C0.254347 20.8493 4.23305 9.46258 13.7194 4.83702C15.6339 3.90348 17.9259 3.23804 20.0752 2.99165C21.279 2.85359 24.0014 2.94824 25.2919 3.17302ZM20.6014 7.38891V8.85551H22.0671H23.5329V7.38891V5.92231H22.0671H20.6014V7.38891ZM10.6335 10.6649L9.6104 11.6921L10.6597 12.742L11.709 13.7919L12.7583 12.742L13.8076 11.6921L12.7845 10.6649C12.2217 10.1 11.7378 9.6377 11.709 9.6377C11.6802 9.6377 11.1963 10.1 10.6335 10.6649ZM31.3498 10.6649L30.3267 11.6921L31.376 12.742L32.4253 13.7919L33.4746 12.742L34.5239 11.6921L33.5008 10.6649C32.938 10.1 32.4541 9.6377 32.4253 9.6377C32.3965 9.6377 31.9126 10.1 31.3498 10.6649ZM20.6014 17.6551V23.5215H24.9987H29.396V22.0549V20.5883H26.4645H23.5329V16.1885V11.7887H22.0671H20.6014V17.6551ZM5.94361 22.0549V23.5215H7.40939H8.87516V22.0549V20.5883H7.40939H5.94361V22.0549ZM35.2591 22.0549V23.5215H36.7249H38.1907V22.0549V20.5883H36.7249H35.2591V22.0549ZM39.9008 29.5727C41.7856 29.9632 43.3389 30.822 44.6564 32.2017C47.4738 35.1524 47.8682 39.6431 45.6049 43.0009C42.4716 47.6492 36.2221 48.4431 32.2549 44.6967C28.572 41.2189 28.4504 35.5124 31.9837 31.977C34.0631 29.8966 37.0646 28.9851 39.9008 29.5727ZM10.6335 31.3929L9.6104 32.4201L10.6597 33.47L11.709 34.5198L12.7583 33.47L13.8076 32.4201L12.7845 31.3929C12.2217 30.8279 11.7378 30.3656 11.709 30.3656C11.6802 30.3656 11.1963 30.8279 10.6335 31.3929ZM39.0952 36.6465L36.7266 39.0164L35.82 38.1131C35.3214 37.6162 34.8694 37.2098 34.8157 37.2098C34.6889 37.2098 32.8162 39.0895 32.8162 39.2168C32.8162 39.2702 33.6957 40.1929 34.7707 41.2676L36.7253 43.2214L40.1453 39.8006C42.0262 37.9191 43.5652 36.3347 43.5652 36.2797C43.5652 36.1516 41.6882 34.2766 41.56 34.2766C41.5071 34.2766 40.3979 35.343 39.0952 36.6465ZM20.6014 36.7209V38.1875H22.0671H23.5329V36.7209V35.2543H22.0671H20.6014V36.7209Z" fill="#C82DB8"/>
</svg>
