<svg width="65" height="46" viewBox="0 0 65 46" fill="none" xmlns="http://www.w3.org/2000/svg">
<path fill-rule="evenodd" clip-rule="evenodd" d="M16.9749 0.0748026C15.6248 0.21698 13.118 0.774987 11.7178 1.24505C8.97208 2.16671 4.89117 4.27342 4.52486 4.95851C4.4446 5.10846 4.37898 5.89512 4.37898 6.70656V8.18198H3.74655C2.68 8.18198 1.68991 8.56234 1.0254 9.22735C-0.0798103 10.3334 -0.0262047 9.36131 0.0186132 27.4682L0.0583048 43.5797L0.383601 44.1884C0.778467 44.9274 1.63469 45.6606 2.32849 45.8538C3.02844 46.0487 61.9716 46.0487 62.6715 45.8538C63.3653 45.6606 64.2215 44.9274 64.6164 44.1884L64.9417 43.5797L64.9814 27.4682C65.0262 9.36131 65.0798 10.3334 63.9746 9.22735C63.3101 8.56234 62.32 8.18198 61.2534 8.18198H60.621V6.67563C60.621 5.58131 60.5616 5.08427 60.4038 4.8587C59.9105 4.15397 55.9061 2.11966 53.287 1.24359C50.5682 0.333946 48.7766 0.0536952 45.6817 0.0536952C43.4662 0.0536952 42.6769 0.113058 41.3527 0.379237C38.5446 0.943695 35.6055 2.0647 33.369 3.42432L32.5 3.95257L31.631 3.42432C28.8462 1.73124 25.3543 0.534752 22.0278 0.133578C20.7914 -0.0154882 18.1259 -0.046561 16.9749 0.0748026ZM23.4193 2.98064C25.9011 3.51827 28.2912 4.47584 30.2644 5.7229L31.1818 6.30275V24.1001V41.8973L29.9972 41.3013C27.0555 39.8211 23.7422 38.7187 20.49 38.138C18.1368 37.7177 12.4159 37.7472 10.0911 38.1916C9.16468 38.3687 8.09359 38.608 7.71103 38.7237L7.01533 38.9339V22.6154V6.29718L9.08164 5.26295C11.8685 3.86829 14.0416 3.18277 17.1945 2.70332C18.1331 2.5607 22.3476 2.74847 23.4193 2.98064ZM47.7013 2.764C50.6003 3.07342 53.477 3.97735 56.4001 5.49732L57.9847 6.32121V22.6275V38.9339L57.289 38.7237C56.9063 38.608 55.8353 38.3682 54.9089 38.1906C53.4503 37.9109 52.7339 37.8678 49.563 37.8693C46.6894 37.8705 45.602 37.9265 44.51 38.1299C41.186 38.7489 37.9588 39.8159 35.167 41.2191L33.8182 41.897V24.102V6.307L34.5139 5.86127C38.3079 3.43018 43.1933 2.2828 47.7013 2.764ZM4.3431 26.1615L4.3803 41.4294L4.83024 41.8083C5.07776 42.0168 5.38431 42.1872 5.51144 42.1872C5.63857 42.1872 6.4409 41.9621 7.29434 41.687C9.10903 41.1018 11.8451 40.6218 14.1188 40.4896C18.1291 40.2566 23.5272 41.2783 27.2392 42.9733L28.0329 43.3358L15.5761 43.3478C6.06932 43.357 3.0778 43.3182 2.94364 43.1839C2.80904 43.0492 2.76788 39.2678 2.76788 27.0561V11.1041L3.09743 10.9681C3.2786 10.8932 3.62469 10.8458 3.86636 10.8628L4.30575 10.8936L4.3431 26.1615ZM61.8564 10.9632L62.2321 11.1061V27.0571C62.2321 39.2679 62.191 43.0492 62.0564 43.1839C61.9223 43.3181 58.9267 43.3578 49.4239 43.3513L36.9671 43.343L37.7727 42.9749C40.3595 41.7929 43.966 40.8726 47.2196 40.5641C50.4808 40.2546 54.6434 40.7005 57.7057 41.6873C58.5591 41.9622 59.3614 42.1872 59.4886 42.1872C59.6157 42.1872 59.9225 42.0165 60.1703 41.8078L60.621 41.4283V26.2221C60.621 17.8585 60.665 10.9717 60.7187 10.9181C60.8606 10.7761 61.423 10.7983 61.8564 10.9632ZM44.5469 11.4093C42.0157 11.6702 38.0508 12.7406 37.4726 13.3193C36.8068 13.9856 37.019 15.101 37.8802 15.4612C38.3445 15.6554 38.4741 15.6357 39.8825 15.1591C42.5331 14.2622 43.5038 14.1171 46.7802 14.1284C49.5889 14.138 49.7818 14.1575 51.467 14.6043C52.4337 14.8605 53.4089 15.0704 53.634 15.0705C54.6169 15.0716 55.1203 13.7367 54.4329 12.9522C53.5508 11.9454 47.9008 11.0636 44.5469 11.4093ZM14.5582 11.6417C12.5749 11.995 10.9338 12.5339 10.5671 12.9524C9.84911 13.7716 10.3843 15.071 11.4397 15.071C11.7054 15.071 12.384 14.937 12.9475 14.7733C13.5111 14.6096 14.7924 14.3476 15.7947 14.1914C17.8156 13.8762 18.099 13.7191 18.2425 12.8338C18.317 12.374 18.2671 12.2375 17.8829 11.8531C17.4832 11.4531 17.3479 11.4079 16.5834 11.4198C16.1139 11.427 15.2026 11.5268 14.5582 11.6417ZM20.3668 11.7879C19.882 12.1278 19.7156 12.6672 19.9119 13.2624C20.1133 13.873 20.5276 14.0895 21.9546 14.3297C22.5588 14.4315 23.857 14.7742 24.8395 15.0912C26.5154 15.6321 26.6565 15.6549 27.1211 15.4607C27.981 15.101 28.1928 13.9851 27.5274 13.3193C27.2061 12.9977 24.6017 12.1251 22.9494 11.7854C21.517 11.4907 20.7896 11.4915 20.3668 11.7879ZM14.7047 18.3988C14.463 18.4315 13.5425 18.6286 12.6592 18.8369C11.395 19.1352 10.9663 19.3026 10.6453 19.6239C10.113 20.1565 10.0936 20.8822 10.5967 21.4256C11.0179 21.8804 11.5534 21.9224 12.6542 21.5872C16.3077 20.4749 20.7492 20.8152 25.0873 22.5398C26.5695 23.129 27.0848 23.1245 27.5949 22.5177C27.911 22.142 27.9727 21.9501 27.9072 21.5468C27.7875 20.8089 27.5071 20.5839 25.974 19.9967C22.6672 18.7301 20.3665 18.2858 17.2786 18.3176C16.1046 18.3296 14.9463 18.3663 14.7047 18.3988ZM44.1439 18.5234C41.7561 18.9656 37.8754 20.2689 37.4081 20.7855C37.2795 20.9278 37.1376 21.2703 37.0928 21.5468C37.0273 21.9501 37.089 22.142 37.4051 22.5177C37.9152 23.1245 38.4305 23.129 39.9127 22.5398C44.2508 20.8152 48.6923 20.4749 52.3458 21.5872C53.4466 21.9224 53.9821 21.8804 54.4033 21.4256C54.9064 20.8822 54.887 20.1565 54.3547 19.6239C54.035 19.304 53.5839 19.1265 52.2676 18.8029C50.7974 18.4416 50.2599 18.3849 47.9519 18.3482C46.0885 18.3186 44.9721 18.3699 44.1439 18.5234ZM14.4117 25.9245C12.9426 26.1546 11.2105 26.6364 10.8234 26.9227C10.0571 27.489 10.0747 28.4607 10.8618 29.0471C11.3026 29.3756 11.2382 29.3821 13.8991 28.7405C15.2612 28.412 18.8701 28.4251 20.4125 28.7641C21.929 29.0976 23.6318 29.6347 25.142 30.2564C25.8075 30.5303 26.507 30.7544 26.6967 30.7544C27.5973 30.7544 28.243 29.5235 27.743 28.7597C27.314 28.1047 24.0283 26.8198 21.1968 26.2002C19.6254 25.8562 15.8316 25.7022 14.4117 25.9245ZM47.4873 26.1218C47.1648 26.3994 47.0797 26.598 47.0797 27.0738C47.0797 28.0654 47.4242 28.2823 49.3458 28.5017C50.2398 28.6036 51.4928 28.8224 52.1307 28.9879C52.7684 29.1534 53.4288 29.2887 53.5981 29.2887C54.0619 29.2887 54.7625 28.5136 54.7625 28.0006C54.7625 26.9941 53.7052 26.4444 50.8897 25.9874C48.8781 25.661 47.9816 25.6963 47.4873 26.1218ZM42.8257 26.4205C41.4337 26.7818 38.9503 27.6704 38.0312 28.1359C37.2853 28.5137 36.9824 29.007 37.1026 29.6481C37.2109 30.2251 37.7851 30.7544 38.3033 30.7544C38.493 30.7544 39.1925 30.5299 39.858 30.2555C40.9908 29.7884 42.4192 29.324 44.3983 28.7798C45.0615 28.5974 45.2851 28.4583 45.4601 28.1199C45.7356 27.5865 45.7383 27.3315 45.473 26.8182C45.2734 26.4318 44.6932 26.056 44.3201 26.0712C44.2231 26.0752 43.5507 26.2325 42.8257 26.4205Z" fill="#4E75FF"/>
</svg>
