<svg width="46" height="46" viewBox="0 0 46 46" fill="none" xmlns="http://www.w3.org/2000/svg">
<path fill-rule="evenodd" clip-rule="evenodd" d="M16.9243 0.11793C15.583 0.494047 14.9866 1.09351 13.9132 3.14449C13.1027 4.69319 12.8321 5.03181 12.2848 5.18269C12.1004 5.23358 11.3776 5.23295 10.4187 5.18107C8.11771 5.05663 7.27258 5.2789 6.28082 6.2695C5.27428 7.27485 5.06901 8.04839 5.19124 10.3753C5.24213 11.3445 5.24231 12.0811 5.19169 12.2641C5.04082 12.8098 4.70107 13.0801 3.15015 13.889C2.11641 14.4282 1.50078 14.8111 1.17608 15.1168C0.0972138 16.1325 -0.293061 17.8136 0.230698 19.1895C0.3232 19.4325 0.801474 20.257 1.29362 21.0218L2.18838 22.4121V22.9998V23.5875L1.29362 24.9779C0.801474 25.7426 0.3232 26.5671 0.230698 26.8102C-0.293061 28.186 0.0972138 29.8671 1.17608 30.8828C1.50078 31.1885 2.11641 31.5715 3.15015 32.1106C4.70107 32.9196 5.04082 33.1898 5.19169 33.7355C5.24231 33.9185 5.24213 34.6551 5.19124 35.6243C5.0682 37.9669 5.26825 38.7219 6.27938 39.7313C7.29051 40.7407 8.04683 40.9404 10.3934 40.8176C11.3643 40.7668 12.1022 40.7666 12.2855 40.8171C12.8297 40.9671 13.0989 41.3045 13.9101 42.8532C14.4528 43.8895 14.8345 44.5007 15.1423 44.8258C16.1614 45.9026 17.8459 46.2925 19.2211 45.7699C19.4636 45.6778 20.3105 45.1868 21.1032 44.6789L22.5443 43.7555L23.0915 43.7886C23.6083 43.8199 23.7155 43.8711 25.0263 44.7117C25.7894 45.2012 26.6131 45.6772 26.8566 45.7696C28.2349 46.2924 29.9193 45.9027 30.9359 44.8258C31.2395 44.5042 31.6185 43.8984 32.1308 42.9161C32.5433 42.1248 32.9668 41.3827 33.0718 41.2669C33.5165 40.7763 33.8316 40.7233 35.7265 40.8203C37.478 40.9099 38.0267 40.8476 38.802 40.4708C39.4363 40.1627 40.2321 39.3682 40.5408 38.735C40.918 37.9613 40.9768 37.4335 40.8862 35.6355C40.8366 34.6525 40.8379 33.9155 40.8895 33.7291C41.0396 33.1862 41.4266 32.8784 42.9047 32.1262C44.6026 31.2622 45.2237 30.7508 45.6682 29.8502C45.9356 29.3088 45.9654 29.165 45.993 28.2869C46.0154 27.5754 45.9856 27.2064 45.8802 26.8907C45.8014 26.6547 45.3115 25.7972 44.7914 24.9851C43.8764 23.5563 43.8459 23.4924 43.8459 22.9998C43.8459 22.5073 43.8764 22.4433 44.7914 21.0145C45.3115 20.2024 45.8014 19.3449 45.8802 19.1089C45.9856 18.7932 46.0154 18.4242 45.993 17.7127C45.9655 16.8368 45.9351 16.69 45.6713 16.1556C45.2252 15.2519 44.679 14.8001 42.9272 13.8859C41.3758 13.0761 41.0379 12.8074 40.8877 12.2641C40.837 12.0811 40.8372 11.3445 40.8881 10.3753C41.0103 8.04839 40.8051 7.27485 39.7985 6.2695C38.8087 5.28079 37.9694 5.06014 35.6495 5.17856C34.7326 5.2254 33.9521 5.22567 33.7834 5.17936C33.2483 5.03235 32.9728 4.68573 32.1661 3.14449C31.6261 2.11253 31.2425 1.49795 30.9362 1.17381C29.9175 0.0954515 28.2349 -0.292804 26.8526 0.231494C26.607 0.324736 25.7803 0.802188 25.0156 1.29268L23.6251 2.18437H23.0381H22.451L21.0582 1.29115C20.2922 0.79985 19.462 0.32033 19.2134 0.225469C18.6064 -0.00606303 17.5446 -0.0559661 16.9243 0.11793ZM19.9203 3.28799C21.6154 4.36968 21.9968 4.52046 23.0397 4.52046C24.0842 4.52046 24.4798 4.36455 26.1671 3.28799C27.3269 2.54799 27.666 2.37355 28.0112 2.33929C28.9532 2.24578 29.2456 2.49898 30.0712 4.12322C30.4194 4.80828 30.8621 5.60476 31.055 5.89311C31.4983 6.55579 32.2545 7.11938 33.0261 7.36206C33.583 7.53722 33.7499 7.54576 35.5202 7.48893C37.6817 7.41952 37.8772 7.45773 38.3172 8.03634L38.5768 8.37757L38.5493 10.3884C38.5198 12.5416 38.5879 13.0404 39.0067 13.7385C39.5327 14.6152 39.9664 14.9508 41.7937 15.8955C43.5976 16.8282 43.8295 17.0838 43.7367 18.0368C43.7034 18.3791 43.5411 18.6988 42.8806 19.7245C42.4324 20.4204 41.9938 21.1285 41.906 21.298C41.3849 22.3034 41.3849 23.6962 41.906 24.7016C41.9938 24.8711 42.4324 25.5792 42.8806 26.2752C43.5411 27.3008 43.7034 27.6206 43.7367 27.9628C43.8294 28.9139 43.5964 29.1719 41.8082 30.0976C40.2546 30.9018 39.7685 31.2196 39.428 31.6536C38.5972 32.7127 38.4938 33.179 38.5749 35.5036C38.6484 37.6114 38.6072 37.8124 38.0076 38.268L37.6889 38.5102H35.4725H33.256L32.5707 38.8477C31.5575 39.3466 31.0889 39.9002 30.1747 41.6786C29.2263 43.5236 28.9728 43.7557 28.0112 43.6603C27.6657 43.6261 27.3259 43.451 26.1563 42.7048C24.597 41.7099 23.9174 41.4325 23.0397 41.4325C22.1665 41.4325 21.4958 41.7065 19.9306 42.7025C18.7554 43.4505 18.4135 43.6263 18.0682 43.6605C17.1143 43.7548 16.8576 43.5228 15.9231 41.7216C15.52 40.9444 15.051 40.1296 14.881 39.9109C14.4335 39.3351 13.7454 38.8552 13.0572 38.6388C12.4956 38.4621 12.3328 38.4538 10.5592 38.5107C8.39765 38.5801 8.2022 38.5419 7.76212 37.9634L7.50253 37.6221L7.53027 35.5838C7.55576 33.7094 7.54288 33.5002 7.36932 32.986C6.93455 31.6977 6.40079 31.1905 4.39267 30.1574C2.47345 29.1699 2.24746 28.9279 2.34357 27.9628C2.37789 27.6179 2.55325 27.2786 3.30075 26.1111C4.29738 24.5544 4.57524 23.876 4.57524 22.9998C4.57524 22.1236 4.29738 21.4452 3.30075 19.8886C2.55325 18.721 2.37789 18.3817 2.34357 18.0368C2.25314 17.129 2.52884 16.7846 3.88999 16.105C6.33234 14.8856 6.91113 14.3713 7.36932 13.0136C7.54288 12.4994 7.55576 12.2902 7.53027 10.4159L7.50253 8.37748L7.75491 8.04569C8.2167 7.43867 8.31731 7.41835 10.5103 7.4901C12.3553 7.55035 12.486 7.54369 13.0265 7.36081C14.2959 6.93137 14.869 6.32678 15.8987 4.33047C16.8506 2.48523 17.0483 2.29389 17.9507 2.34523C18.461 2.37427 18.5707 2.42678 19.9203 3.28799ZM21.3734 6.96158C20.4889 7.05437 18.9624 7.39371 17.979 7.71606C13.1855 9.28734 9.44319 12.979 7.77734 17.7795C7.59819 18.2959 7.34311 19.2265 7.21052 19.8476C6.98985 20.8813 6.9695 21.1476 6.9695 22.9998C6.9695 24.852 6.98985 25.1183 7.21052 26.1521C8.47998 32.0998 12.6582 36.6862 18.3773 38.4101C21.5867 39.3774 25.1603 39.3108 28.3005 38.2249C34.0809 36.2263 38.2332 31.145 39.0272 25.0983C39.6826 20.1073 37.9808 15.142 34.394 11.5796C32.0588 9.26036 29.0838 7.71471 25.8319 7.13125C25.0039 6.98271 22.1919 6.87571 21.3734 6.96158ZM25.2475 9.38193C29.4917 10.03 33.2784 12.7619 35.2835 16.6223C37.0331 19.9908 37.3372 23.7883 36.1445 27.3737C34.1618 33.3336 28.2419 37.2607 22.0052 36.7533C20.0351 36.593 18.3899 36.1226 16.6512 35.2226C12.7672 33.2121 10.1083 29.5319 9.38014 25.1589C9.19423 24.0424 9.19423 21.9572 9.38014 20.8408C10.232 15.724 13.7831 11.5362 18.637 9.92412C20.8224 9.19832 22.9187 9.0264 25.2475 9.38193ZM22.4415 13.4618C22.286 13.5565 22.1241 13.6879 22.0819 13.7537C22.0396 13.8195 21.4982 14.9441 20.8786 16.2528L19.7521 18.6322L17.2327 19.015C15.8469 19.2256 14.5958 19.4464 14.4523 19.5058C13.9505 19.7133 13.6858 20.5367 13.9558 21.0501C14.0126 21.1581 14.8841 22.0864 15.8923 23.113C16.9843 24.225 17.7255 25.0491 17.7255 25.1514C17.7255 25.2459 17.5431 26.4402 17.3202 27.8053C17.0973 29.1705 16.9151 30.3978 16.9152 30.5325C16.9161 31.1341 17.5671 31.6915 18.168 31.6049C18.4234 31.5681 21.9471 29.7155 22.8286 29.1546C23.0076 29.0407 23.2005 29.1296 25.3055 30.2964C26.599 31.0133 27.7283 31.5812 27.9113 31.6065C28.511 31.6899 29.1633 31.1332 29.1641 30.5374C29.1643 30.4054 28.9821 29.1804 28.7591 27.8152C28.5362 26.45 28.3538 25.2522 28.3538 25.1534C28.3538 25.041 29.0222 24.2931 30.1394 23.155C31.1215 22.1548 31.9929 21.2363 32.0759 21.114C32.397 20.6411 32.1908 19.7985 31.6908 19.5403C31.5463 19.4657 30.3209 19.2397 28.9678 19.038C27.6145 18.8365 26.4558 18.6439 26.3927 18.6102C26.3297 18.5766 25.779 17.4889 25.169 16.1932C24.559 14.8974 24.0056 13.772 23.9391 13.6921C23.5974 13.2809 22.9118 13.1756 22.4415 13.4618ZM23.8503 18.7876C24.3536 19.86 24.6963 20.4784 24.8505 20.5931C25.0219 20.7205 25.5448 20.8382 26.7871 21.0287C27.7231 21.1723 28.5445 21.2902 28.6124 21.2906C28.6803 21.2911 28.125 21.9182 27.3782 22.6843C26.3398 23.7496 26.0072 24.1475 25.9643 24.3762C25.9312 24.5522 26.0222 25.3685 26.1852 26.3584C26.3376 27.2842 26.4624 28.1025 26.4624 28.177C26.4624 28.284 26.3818 28.2656 26.0796 28.0898C24.5041 27.1737 23.3285 26.5964 23.0383 26.5964C22.8056 26.5964 22.3107 26.8228 21.1913 27.4411C20.3502 27.9057 19.6489 28.2507 19.6329 28.2079C19.6168 28.165 19.7313 27.3523 19.8873 26.4018C20.0506 25.4068 20.1476 24.5493 20.1159 24.3806C20.0745 24.16 19.7254 23.7421 18.7034 22.6895C17.9568 21.9206 17.4031 21.2914 17.473 21.2914C17.5428 21.2914 18.3655 21.1722 19.301 21.0265C20.5219 20.8364 21.0673 20.7132 21.2329 20.5901C21.3821 20.479 21.7334 19.8434 22.229 18.7876C22.6501 17.8905 23.0149 17.1567 23.0397 17.1567C23.0644 17.1567 23.4292 17.8905 23.8503 18.7876Z" fill="#D052D2"/>
</svg>
