<svg width="38" height="39" viewBox="0 0 38 39" fill="none" xmlns="http://www.w3.org/2000/svg">
<path fill-rule="evenodd" clip-rule="evenodd" d="M36.0017 0.0540969C36.7103 0.197491 37.3401 0.686502 37.7114 1.38169L37.9736 1.87264L37.9949 16.057C38.0101 26.1872 37.992 30.3898 37.9314 30.7606C37.7321 31.9806 36.9021 33.0982 35.7976 33.6337C35.0274 34.0071 34.567 34.0781 32.9152 34.0781C31.6141 34.0781 31.5144 34.088 31.5514 34.2137C31.7184 34.7819 31.7652 35.1768 31.737 35.7773C31.7086 36.3805 31.6689 36.5402 31.4206 37.0502C31.0827 37.7442 30.6452 38.1712 29.8955 38.5389C28.9346 39.0101 29.1738 39 18.9237 39C10.4394 39 9.51979 38.9879 9.02411 38.87C7.81415 38.5823 7.04712 38.0106 6.57809 37.0473C6.32422 36.5258 6.29032 36.3851 6.26237 35.7358C6.23466 35.0933 6.2926 34.6124 6.44691 34.2044C6.48997 34.0905 6.35353 34.0779 5.05486 34.0768C4.10015 34.0758 3.44093 34.0379 3.09818 33.9642C1.59129 33.6401 0.320103 32.299 0.0702782 30.77C0.00767136 30.3867 -0.0101967 26.3393 0.00522614 16.057L0.0265274 1.87264L0.288723 1.38169C0.577793 0.840514 0.986656 0.456529 1.55968 0.188267L1.93534 0.0123964L18.8092 0.00100246C28.0898 -0.00527586 35.8264 0.0185973 36.0017 0.0540969ZM2.20104 1.95092C2.07842 2.01534 1.94267 2.13509 1.89945 2.21717C1.8512 2.30871 1.82081 3.16132 1.82081 4.42536V6.48449H19.0001H36.1793V4.42536C36.1793 3.16721 36.1489 2.30848 36.1011 2.21779C35.8903 1.81807 36.8889 1.84032 19.0153 1.83698C4.36234 1.83427 2.39795 1.84753 2.20104 1.95092ZM34.3788 3.4664C34.7234 3.7735 34.7969 4.12074 34.6029 4.52403C34.3137 5.12504 34.817 5.08908 26.6901 5.08915C18.8644 5.08931 19.0993 5.10163 18.8248 4.67633C18.7507 4.56146 18.6947 4.3239 18.6947 4.12439C18.6947 3.8469 18.7409 3.72149 18.9175 3.52097L19.1402 3.26782L26.6251 3.24736L34.1099 3.22682L34.3788 3.4664ZM12.2571 3.38021C12.5638 3.57011 12.6628 3.75753 12.6628 4.14818C12.6628 4.75532 12.0294 5.21139 11.4988 4.98622C11.1226 4.8267 10.9067 4.51349 10.9067 4.12725C10.9067 3.40773 11.6433 3.00026 12.2571 3.38021ZM8.83788 3.32712C9.14314 3.4864 9.3396 3.82256 9.33066 4.17019C9.30195 5.27944 7.71528 5.35091 7.56975 4.24949C7.47553 3.53616 8.21187 3.00057 8.83788 3.32712ZM5.44754 3.29906C5.71714 3.41928 5.95528 3.74807 5.99483 4.0547C6.10356 4.89708 4.93919 5.3971 4.42228 4.72997C4.10358 4.3187 4.15688 3.80194 4.55574 3.43548C4.7325 3.27309 5.22153 3.19829 5.44754 3.29906ZM1.82081 19.3371C1.82081 31.8401 1.76981 30.8603 2.45705 31.5537C3.06909 32.1714 3.28616 32.2178 5.56008 32.2178H7.44942L11.5196 25.0288C13.7582 21.0748 15.7059 17.6533 15.8479 17.4255C16.7591 15.9632 18.1011 15.2494 19.5099 15.4778C20.2671 15.6007 20.7917 15.887 21.4115 16.5158C22.0442 17.1577 21.6974 16.5737 26.7422 25.4938L30.545 32.2178H32.4371C34.7143 32.2178 34.9309 32.1715 35.5431 31.5537C36.2303 30.8603 36.1793 31.8401 36.1793 19.3371V8.34473H19.0001H1.82081V19.3371ZM18.3897 17.6349C18.2443 17.7141 17.9981 17.932 17.8426 18.1193C17.4836 18.5519 8.55592 34.294 8.3745 34.8144C8.20034 35.3139 8.2021 35.7423 8.37977 36.1395C8.54813 36.5159 8.87919 36.7407 9.44069 36.86C9.72403 36.9202 12.5975 36.946 19.0259 36.946C28.8862 36.946 28.7652 36.9505 29.3075 36.5584C29.7726 36.2223 29.8823 35.5643 29.6011 34.798C29.3873 34.2154 20.5253 18.5661 20.1561 18.1193C20.0014 17.932 19.7559 17.7141 19.6104 17.6349C19.2717 17.4505 18.7284 17.4505 18.3897 17.6349ZM19.9114 20.5663C20.4158 20.7526 21.0797 21.4518 21.2812 22.0088C21.3703 22.2556 21.4433 22.5978 21.4433 22.7695C21.4433 23.1241 20.3285 29.4907 20.2115 29.8043C19.8762 30.7029 18.5576 30.8762 17.9734 30.0986C17.7856 29.8488 17.7099 29.5064 17.1619 26.428C16.8294 24.5607 16.5573 22.9034 16.5572 22.7452C16.5563 21.9927 17.171 21.0465 17.9079 20.6662C18.3779 20.4236 19.3885 20.3732 19.9114 20.5663ZM18.664 22.0946C18.3482 22.2286 18.1603 22.4907 18.1598 22.7983C18.1593 23.089 18.9158 28.6472 18.9777 28.8074C19.0268 28.9346 19.8307 23.3818 19.8364 22.8758C19.8406 22.5033 19.6779 22.2414 19.353 22.0979C19.0485 21.9634 18.9741 21.963 18.664 22.0946ZM19.535 31.4376C20.3802 31.6987 20.9055 32.4284 20.9055 33.3417C20.9055 34.4279 20.0813 35.2563 19.0059 35.2511C18.407 35.2482 17.993 35.0621 17.6014 34.6199C17.0383 33.9841 16.9278 33.1732 17.3045 32.4412C17.7337 31.6072 18.6903 31.1768 19.535 31.4376ZM18.5767 32.8732C18.1033 33.3537 18.5945 34.1361 19.2286 33.9117C19.5067 33.8132 19.6109 33.6398 19.6109 33.2749C19.6109 32.7453 18.954 32.4901 18.5767 32.8732Z" fill="#FF6900"/>
</svg>
