<svg width="50" height="50" viewBox="0 0 50 50" fill="none" xmlns="http://www.w3.org/2000/svg">
<path d="M2.06037 9.71859H5.72132C6.16106 11.3171 7.09546 12.7241 8.38262 13.7261C9.66978 14.7281 11.2394 15.2702 12.8531 15.2702C14.4667 15.2702 16.0364 14.7281 17.3235 13.7261C18.6107 12.7241 19.5451 11.3171 19.9848 9.71859H47.9317C48.2006 9.72366 48.4677 9.67352 48.7176 9.57109C48.9674 9.46866 49.1949 9.31601 49.3868 9.12204C49.5787 8.92806 49.7311 8.69667 49.8352 8.44137C49.9392 8.18607 49.9928 7.91198 49.9928 7.63511C49.9928 7.35825 49.9392 7.08416 49.8352 6.82886C49.7311 6.57356 49.5787 6.34216 49.3868 6.14819C49.1949 5.95422 48.9674 5.80156 48.7176 5.69914C48.4677 5.59671 48.2006 5.54657 47.9317 5.55164H19.9875C19.5478 3.95317 18.6134 2.54611 17.3262 1.54413C16.0391 0.542154 14.4695 0 12.8558 0C11.2421 0 9.67249 0.542154 8.38533 1.54413C7.09817 2.54611 6.16378 3.95317 5.72405 5.55164H2.06309C1.79421 5.54657 1.52705 5.59671 1.2772 5.69914C1.02736 5.80156 0.799846 5.95422 0.607955 6.14819C0.416064 6.34216 0.263643 6.57356 0.159594 6.82886C0.0555452 7.08416 0.00195312 7.35825 0.00195312 7.63511C0.00195312 7.91198 0.0555452 8.18607 0.159594 8.44137C0.263643 8.69667 0.416064 8.92806 0.607955 9.12204C0.799846 9.31601 1.02736 9.46866 1.2772 9.57109C1.52705 9.67352 1.79421 9.72366 2.06309 9.71859H2.06037ZM12.8537 4.16498C13.6352 4.1641 14.3928 4.44227 14.9973 4.95207C15.6019 5.46188 16.016 6.17176 16.1691 6.96072C16.3222 7.74968 16.2047 8.56888 15.8368 9.27867C15.4689 9.98847 14.8732 10.5449 14.1514 10.8532C13.4296 11.1615 12.6262 11.2025 11.8783 10.9692C11.1304 10.7359 10.4843 10.2428 10.05 9.57398C9.61566 8.90512 9.42011 8.1019 9.49665 7.30122C9.57319 6.50055 9.91708 5.75198 10.4697 5.18312C11.1018 4.53176 11.9594 4.16554 12.8537 4.16498Z" fill="#FDB32B"/>
<path d="M47.9344 22.917H42.9245C42.4844 21.3189 41.5498 19.9123 40.2627 18.9107C38.9756 17.9091 37.4062 17.3672 35.7928 17.3672C34.1794 17.3672 32.61 17.9091 31.3229 18.9107C30.0358 19.9123 29.1012 21.3189 28.6611 22.917H2.06308C1.7942 22.9119 1.52704 22.962 1.2772 23.0645C1.02736 23.1669 0.799841 23.3195 0.60795 23.5135C0.416059 23.7075 0.263638 23.9389 0.159589 24.1942C0.05554 24.4495 0.00195312 24.7236 0.00195312 25.0004C0.00195312 25.2773 0.05554 25.5514 0.159589 25.8067C0.263638 26.062 0.416059 26.2934 0.60795 26.4874C0.799841 26.6813 1.02736 26.834 1.2772 26.9364C1.52704 27.0388 1.7942 27.089 2.06308 27.0839H28.6611C29.1012 28.682 30.0358 30.0886 31.3229 31.0902C32.61 32.0918 34.1794 32.6337 35.7928 32.6337C37.4062 32.6337 38.9756 32.0918 40.2627 31.0902C41.5498 30.0886 42.4844 28.682 42.9245 27.0839H47.9344C48.2033 27.089 48.4705 27.0388 48.7203 26.9364C48.9701 26.834 49.1977 26.6813 49.3896 26.4874C49.5814 26.2934 49.7339 26.062 49.8379 25.8067C49.942 25.5514 49.9956 25.2773 49.9956 25.0004C49.9956 24.7236 49.942 24.4495 49.8379 24.1942C49.7339 23.9389 49.5814 23.7075 49.3896 23.5135C49.1977 23.3195 48.9701 23.1669 48.7203 23.0645C48.4705 22.962 48.2033 22.9119 47.9344 22.917ZM35.7914 28.4741C35.01 28.4749 34.2524 28.1968 33.6478 27.687C33.0433 27.1772 32.6292 26.4673 32.4761 25.6783C32.323 24.8894 32.4405 24.0702 32.8084 23.3604C33.1763 22.6506 33.772 22.0941 34.4938 21.7859C35.2156 21.4776 36.0189 21.4366 36.7668 21.6699C37.5148 21.9031 38.1609 22.3962 38.5952 23.0651C39.0295 23.7339 39.2251 24.5372 39.1485 25.3378C39.072 26.1385 38.7281 26.8871 38.1755 27.4559C37.5434 28.1073 36.6858 28.4735 35.7914 28.4741Z" fill="#FDB32B"/>
<path d="M47.9352 40.2821H19.9883C19.5485 38.6836 18.6142 37.2766 17.327 36.2746C16.0398 35.2726 14.4702 34.7305 12.8565 34.7305C11.2429 34.7305 9.67325 35.2726 8.38609 36.2746C7.09893 37.2766 6.16454 38.6836 5.72481 40.2821H2.06113C1.79225 40.277 1.52509 40.3272 1.27524 40.4296C1.0254 40.532 0.797893 40.6847 0.606002 40.8787C0.414111 41.0726 0.261685 41.304 0.157636 41.5593C0.0535869 41.8146 0 42.0887 0 42.3656C0 42.6425 0.0535869 42.9165 0.157636 43.1718C0.261685 43.4271 0.414111 43.6585 0.606002 43.8525C0.797893 44.0465 1.0254 44.1991 1.27524 44.3016C1.52509 44.404 1.79225 44.4541 2.06113 44.4491H5.72209C6.16182 46.0475 7.09622 47.4546 8.38338 48.4566C9.67054 49.4586 11.2401 50.0007 12.8538 50.0007C14.4675 50.0007 16.0371 49.4586 17.3243 48.4566C18.6114 47.4546 19.5458 46.0475 19.9856 44.4491H47.9352C48.2041 44.4541 48.4712 44.404 48.7211 44.3016C48.9709 44.1991 49.1984 44.0465 49.3903 43.8525C49.5822 43.6585 49.7346 43.4271 49.8387 43.1718C49.9427 42.9165 49.9963 42.6425 49.9963 42.3656C49.9963 42.0887 49.9427 41.8146 49.8387 41.5593C49.7346 41.304 49.5822 41.0726 49.3903 40.8787C49.1984 40.6847 48.9709 40.532 48.7211 40.4296C48.4712 40.3272 48.2041 40.277 47.9352 40.2821ZM12.8545 45.8385C12.0732 45.8393 11.3158 45.5612 10.7115 45.0515C10.1071 44.5417 9.69309 43.832 9.54008 43.0432C9.38707 42.2544 9.5045 41.4354 9.87236 40.7258C10.2402 40.0162 10.8357 39.4599 11.5574 39.1517C12.2791 38.8435 13.0822 38.8025 13.8299 39.0357C14.5777 39.2688 15.2237 39.7618 15.6579 40.4305C16.0922 41.0992 16.2877 41.9022 16.2112 42.7027C16.1347 43.5032 15.791 44.2516 15.2385 44.8204C14.6064 45.4717 13.7489 45.838 12.8545 45.8385Z" fill="#FDB32B"/>
</svg>
