<svg width="58" height="50" viewBox="0 0 58 50" fill="none" xmlns="http://www.w3.org/2000/svg">
<path fill-rule="evenodd" clip-rule="evenodd" d="M31.9061 0.148105C31.3118 0.334301 30.2982 1.37757 30.1159 1.99068C30.0349 2.26318 29.9687 2.78818 29.9687 3.15744V3.82869L25.5121 3.86564L21.0556 3.90247L20.1409 4.35201C19.0393 4.89338 18.3527 5.59062 17.8196 6.70924L17.4363 7.51324L17.3998 12.4134L17.3633 17.3136L10.0741 17.3481L2.78497 17.3827L2.02201 17.794C1.17453 18.2507 0.809578 18.6255 0.326326 19.5363L0 20.1509V30.8027V41.4545L0.326326 42.0692C0.809578 42.9799 1.17453 43.3547 2.02201 43.8115L2.78497 44.2228L10.0804 44.2573L17.3758 44.2919V45.0571C17.3758 46.4697 18.0434 47.9965 19.0424 48.8684C19.2849 49.08 19.8401 49.4212 20.2761 49.6265L21.0689 50H37.7182H54.3674L55.1763 49.6191C56.302 49.089 57.0031 48.4067 57.5477 47.3112L58 46.4017V26.9512V7.50072L57.5477 6.59129C57.0031 5.49578 56.302 4.81347 55.1763 4.2834L54.3674 3.90247L49.9175 3.86564L45.4676 3.82869V3.15744C45.4676 2.19505 45.2531 1.61203 44.6562 0.952225C43.7804 -0.0161847 43.8176 -0.0111294 37.6663 0.003073C34.1466 0.0111371 32.1855 0.0606044 31.9061 0.148105ZM43.233 2.21202L43.5303 2.50738V5.2866V8.06581L43.233 8.36117L42.9359 8.65665H37.7182H32.5005L32.2033 8.36117L31.9061 8.06581V5.2866V2.50738L32.2033 2.21202L32.5005 1.91654H37.7182H42.9359L43.233 2.21202ZM29.9687 6.72537V7.68271L26.708 7.71833C23.6337 7.75191 23.4281 7.76816 23.1132 8.00214C22.9294 8.13863 22.6667 8.39981 22.5294 8.58251C22.29 8.90086 22.2783 9.08874 22.245 13.1186L22.2102 17.3225H20.7617H19.3132V12.7929C19.3132 9.58835 19.3563 8.11841 19.4604 7.76792C19.6426 7.15481 20.6562 6.11154 21.2505 5.92534C21.5215 5.84049 23.1696 5.78813 25.8215 5.78031L29.9687 5.76803V6.72537ZM54.1112 5.91439C54.7763 6.10973 55.7794 7.10679 55.9759 7.76792C56.1895 8.48646 56.1895 45.416 55.9759 46.1345C55.7794 46.7957 54.7763 47.7927 54.1112 47.9881C53.3895 48.2 22.0468 48.2 21.3251 47.9881C20.66 47.7927 19.6569 46.7957 19.4604 46.1345C19.3794 45.8621 19.3132 45.334 19.3132 44.961V44.2829L20.7359 44.2835L22.1587 44.2841L22.3403 44.8465C22.4637 45.2285 22.6711 45.5273 22.9873 45.7786L23.4526 46.1485H37.7205C51.9422 46.1485 51.9896 46.1477 52.3229 45.9003C52.5068 45.7638 52.7696 45.5027 52.9069 45.3198C53.1565 44.9876 53.1566 44.9798 53.1566 26.9632V8.93877L52.8076 8.48406C52.2299 7.73121 52.0285 7.69378 48.5592 7.69378H45.4676V6.73091V5.76803H49.5402C52.3838 5.76803 53.7632 5.81221 54.1112 5.91439ZM30.9529 9.8192C31.0442 9.92909 31.3914 10.1451 31.7244 10.2994L32.3299 10.58H37.7182H43.1065L43.7119 10.2994C44.0449 10.1451 44.3922 9.92909 44.4835 9.8192C44.6309 9.64203 45.0242 9.61952 47.9647 9.61952H51.2797V26.9512V44.2829H37.7182C30.2593 44.2829 24.1566 44.2598 24.1566 44.2316C24.1566 44.2034 24.4473 44.0479 24.8027 43.8861C25.6296 43.5099 26.2838 42.8564 26.6848 42.0065L27.0021 41.3341V30.7425V20.1509L26.6691 19.523C26.2288 18.6928 25.5941 18.0794 24.8027 17.7193L24.1566 17.4252V13.5224V9.61952H27.4717C30.4121 9.61952 30.8054 9.64203 30.9529 9.8192ZM48.0104 14.9984C47.9105 15.0336 46.9712 15.9083 45.9229 16.9422L44.017 18.8218L43.3196 18.1449C42.936 17.7726 42.4955 17.4303 42.3407 17.3844C41.682 17.1884 40.9996 17.8719 41.172 18.5549C41.2145 18.7235 41.7822 19.3817 42.4334 20.0177C44.12 21.6647 43.8548 21.7379 46.8142 18.8094C48.1763 17.4618 49.2367 16.3151 49.2801 16.1431C49.4672 15.4022 48.7356 14.7426 48.0104 14.9984ZM29.9543 18.4066C29.8465 18.4692 29.6901 18.6841 29.6066 18.8843C29.429 19.3105 29.6094 19.8996 29.9773 20.0953C30.1045 20.163 31.9243 20.2111 34.3576 20.2111C38.3717 20.2111 38.5294 20.2025 38.7836 19.967C39.2708 19.5159 39.2332 18.8485 38.6974 18.4397C38.4597 18.2583 30.263 18.2272 29.9543 18.4066ZM7.68894 20.8892C7.68894 21.8259 7.75214 22.7429 7.83618 23.0256C8.0327 23.6867 9.03577 24.6838 9.70089 24.8791C10.0391 24.9784 11.2675 25.0255 13.5238 25.0255C17.4317 25.0255 17.6746 24.9785 18.5018 24.0641C19.1972 23.2953 19.3132 22.8412 19.3132 20.8892V19.2483H21.436C23.8489 19.2483 24.1684 19.3253 24.7157 20.0385L25.0647 20.4932V30.8146C25.0647 41.0513 25.0627 41.1387 24.815 41.4683C24.6777 41.6512 24.415 41.9123 24.231 42.0488C23.8994 42.295 23.8115 42.297 13.513 42.297H3.12934L2.67188 41.9501C1.83772 41.3178 1.87683 41.8657 1.87683 30.8144C1.87683 24.0335 1.91824 20.7199 2.00603 20.4898C2.07698 20.3034 2.25413 20.0222 2.39955 19.8649C2.89649 19.327 3.2503 19.258 5.53967 19.2529L7.68894 19.2483V20.8892ZM17.3758 20.8785C17.3758 22.4491 17.3649 22.5197 17.0785 22.8043L16.7814 23.0997H13.501H10.2207L9.92357 22.8043C9.6372 22.5197 9.6263 22.4491 9.6263 20.8785V19.2483H13.501H17.3758V20.8785ZM48.0104 23.6642C47.9105 23.6995 46.9712 24.5741 45.9229 25.608L44.017 27.4877L43.3196 26.8108C42.936 26.4385 42.4955 26.0962 42.3407 26.0502C41.682 25.8543 40.9996 26.5378 41.172 27.2207C41.2145 27.3893 41.7822 28.0476 42.4334 28.6836C44.12 30.3306 43.8548 30.4037 46.8142 27.4753C48.1763 26.1276 49.2367 24.981 49.2801 24.809C49.4672 24.068 48.7356 23.4085 48.0104 23.6642ZM29.9543 27.0724C29.8465 27.135 29.6901 27.35 29.6066 27.5501C29.429 27.9763 29.6094 28.5655 29.9773 28.7612C30.1045 28.8288 31.9243 28.877 34.3576 28.877C38.3717 28.877 38.5294 28.8683 38.7836 28.6329C39.2708 28.1818 39.2332 27.5144 38.6974 27.1055C38.4597 26.9242 30.263 26.8931 29.9543 27.0724ZM48.0104 32.3301C47.9105 32.3653 46.9712 33.24 45.9229 34.2739L44.017 36.1535L43.3196 35.4766C42.936 35.1044 42.4955 34.7621 42.3407 34.7161C41.682 34.5201 40.9996 35.2037 41.172 35.8866C41.2145 36.0552 41.7822 36.7134 42.4334 37.3494C44.12 38.9964 43.8548 39.0696 46.8142 36.1411C48.1763 34.7935 49.2367 33.6468 49.2801 33.4748C49.4672 32.7339 48.7356 32.0743 48.0104 32.3301ZM4.28413 34.7754C4.17636 34.838 4.01992 35.053 3.93649 35.2531C3.75886 35.6793 3.93928 36.2685 4.30714 36.4642C4.64339 36.643 10.8512 36.6078 11.0899 36.4257C11.6257 36.0168 11.6633 35.3494 11.1761 34.8983C10.9248 34.6657 10.7626 34.6543 7.69632 34.6578C5.90123 34.6599 4.39359 34.7119 4.28413 34.7754ZM29.9543 35.7383C29.8465 35.8009 29.6901 36.0158 29.6066 36.216C29.429 36.6422 29.6094 37.2313 29.9773 37.427C30.1045 37.4947 31.9243 37.5428 34.3576 37.5428C38.3717 37.5428 38.5294 37.5342 38.7836 37.2987C39.2708 36.8476 39.2332 36.1803 38.6974 35.7714C38.4597 35.59 30.263 35.559 29.9543 35.7383ZM4.28413 38.6269C4.17636 38.6895 4.01992 38.9045 3.93649 39.1046C3.75886 39.5308 3.93928 40.12 4.30714 40.3157C4.42689 40.3793 5.5261 40.4315 6.75004 40.4315C8.81794 40.4315 8.99387 40.4142 9.23871 40.1874C9.72596 39.7363 9.6883 39.0689 9.1525 38.66C8.91795 38.481 4.586 38.4515 4.28413 38.6269Z" fill="#EB00FF"/>
</svg>
