<svg width="43" height="50" viewBox="0 0 43 50" fill="none" xmlns="http://www.w3.org/2000/svg">
<path fill-rule="evenodd" clip-rule="evenodd" d="M9.21336 0.0618117C8.52161 0.273943 7.90545 0.794465 7.54655 1.46998C7.39165 1.76146 7.35476 2.09987 7.32649 3.48843L7.2925 5.15666L6.77449 4.76342C4.23376 2.83473 0.602876 4.26921 0.0630094 7.41496C-0.0210031 7.90436 -0.0210031 8.24377 0.0630094 8.73318C0.279858 9.99676 0.504226 10.3052 3.11974 12.9375L5.51641 15.3493L4.93404 15.6327C3.30441 16.4257 2.31761 18.2846 2.59762 20.034C2.78059 21.1772 3.16045 21.7643 4.77243 23.3963L6.21818 24.86L5.83632 24.9313C5.24222 25.0424 4.45994 25.4519 3.9314 25.9286C2.89127 26.8668 2.37486 28.2915 2.59161 29.6248C2.76856 30.7132 3.11734 31.3007 4.3289 32.5516L5.40884 33.6668L5.03068 33.7374C4.43999 33.8478 3.6568 34.2584 3.12937 34.7341C2.08924 35.6722 1.57283 37.0969 1.78958 38.4302C1.99921 39.7191 2.20764 40.008 4.86666 42.6955L7.2923 45.147L7.32769 46.6479C7.35847 47.9491 7.39175 48.2021 7.57803 48.5491C7.83067 49.0199 8.32171 49.5029 8.81295 49.7637C9.1475 49.9413 9.63423 49.9513 19.239 49.9769C26.6884 49.9968 29.3872 49.9736 29.5941 49.8881C29.748 49.8245 29.9286 49.6773 29.9953 49.561C30.0847 49.4056 30.131 47.8779 30.17 43.7962C30.2218 38.3848 30.2288 38.2277 30.4438 37.6573C30.981 36.2317 31.4349 35.745 34.0666 33.7733C35.3125 32.8398 36.3771 32.0002 36.4324 31.9074C36.4941 31.8041 36.5541 29.8363 36.5874 26.8357C36.6395 22.1475 36.6513 21.9041 36.8595 21.2822C37.3945 19.6845 38.487 18.6555 40.1052 18.2256C40.4013 18.147 40.7225 18.0821 40.8189 18.0815C40.9853 18.0804 40.9944 18.8873 40.9944 33.6352C40.9944 45.4819 41.023 49.2526 41.1142 49.4525C41.2451 49.7392 41.6655 50 41.9969 50C42.3284 50 42.7487 49.7392 42.8797 49.4525C42.971 49.2525 42.9995 45.3346 42.9995 32.9798C42.9995 15.1813 43.041 16.3449 42.3973 16.0787C42.1808 15.9893 41.8354 15.9696 41.2594 16.0137C39.6647 16.1361 38.2575 16.6378 37.1119 17.4923L36.5878 17.8831L36.5605 9.85167C36.5345 2.24036 36.5234 1.80189 36.3464 1.46998C36.0859 0.98108 35.6022 0.490477 35.1295 0.235419L34.7285 0.0190853L22.0966 0.00187464C15.149 -0.00753117 9.35151 0.0193855 9.21336 0.0618117ZM34.3776 2.17042C34.5614 2.35383 34.5781 2.50392 34.5781 3.97153V5.57252H21.9462H9.31422V3.97153C9.31422 2.50392 9.33096 2.35383 9.51473 2.17042C9.71303 1.97249 9.84887 1.97029 21.9462 1.97029C34.0435 1.97029 34.1793 1.97249 34.3776 2.17042ZM5.07549 6.06883C5.30818 6.17419 5.90599 6.65249 6.40385 7.13148L7.30915 8.00252V11.1645V14.3263L4.94657 11.9757C3.64718 10.6828 2.47441 9.44131 2.34037 9.21667C1.82607 8.35464 1.92993 7.35732 2.61086 6.61997C3.26632 5.91023 4.24339 5.69179 5.07549 6.06883ZM34.5781 19.2291V30.8844L32.594 32.3734C31.5028 33.1923 30.3548 34.1438 30.043 34.4877C28.977 35.6633 28.2959 37.3304 28.1918 39.0182L28.1316 39.9938H21.0801H14.0285L12.9332 38.8681L11.8378 37.7424L12.274 37.6293C13.0306 37.4331 13.657 37.0712 14.2334 36.4971C15.5345 35.2012 15.8319 33.4204 15.032 31.7144C14.7848 31.187 14.4526 30.7867 13.266 29.5858L11.8046 28.1068L12.1885 28.0399C12.3997 28.0031 12.7755 27.8738 13.0236 27.7525L13.4747 27.5321L14.4341 28.4347C15.897 29.811 17.62 30.7247 19.5856 31.1663C20.492 31.3698 22.7486 31.388 23.7006 31.1995C28.0143 30.3449 31.327 27.0386 32.1832 22.7331C32.3734 21.7766 32.3485 19.5378 32.1374 18.602C31.6724 16.5421 30.787 14.9157 29.3148 13.4178C27.8297 11.9067 26.3879 11.056 24.3908 10.5123C23.5011 10.2701 23.2308 10.2426 21.7457 10.2429C20.2831 10.2431 19.9788 10.2732 19.1184 10.5026C17.2537 10.9997 15.7593 11.8491 14.3527 13.2114C13.0809 14.4432 11.9814 16.2027 11.6044 17.6093C11.5346 17.8697 11.4469 18.0711 11.4094 18.0565C11.3719 18.042 10.8852 17.5923 10.3278 17.057L9.31422 16.0839V11.8288V7.57376H21.9462H34.5781V19.2291ZM23.5137 12.3679C26.163 12.9136 28.3962 14.6978 29.5565 17.1953C30.1609 18.4961 30.3129 19.2172 30.3129 20.7819C30.3129 22.3419 30.1607 23.068 29.5646 24.3514C28.5197 26.6008 26.7973 28.1408 24.425 28.9463C21.3587 29.9874 17.7017 29.0636 15.502 26.6921L14.9366 26.0827L15.1321 25.6275C15.8562 23.9416 15.4613 22.2463 13.9853 20.7044C13.4049 20.098 13.2241 19.842 13.2241 19.6265C13.2241 19.1229 13.5377 18.0501 13.9348 17.1953C15.6425 13.5195 19.5484 11.5511 23.5137 12.3679ZM21.2554 13.517C20.9259 13.6993 20.7509 14.0513 20.7466 14.5403C20.7431 14.9477 20.7379 14.9535 20.3171 15.0187C19.2737 15.18 18.2134 15.9883 17.745 16.9796C17.5287 17.4373 17.4849 17.6731 17.4849 18.3804C17.4849 19.1081 17.5252 19.3128 17.7637 19.7977C18.1187 20.5192 18.7017 21.1007 19.4234 21.4532C19.9474 21.7092 20.1085 21.7345 21.5129 21.7815C22.8458 21.8263 23.0696 21.8583 23.3175 22.0398C24.2046 22.6897 24.1105 24.0162 23.1421 24.509C22.8609 24.6522 22.5293 24.684 21.3196 24.6841C19.9744 24.6843 19.8227 24.6662 19.6403 24.4842C19.5195 24.3636 19.4398 24.1507 19.4398 23.9485C19.4398 23.3277 18.7681 22.8573 18.1659 23.0562C17.8253 23.1688 17.4348 23.7159 17.4348 24.0806C17.4348 24.603 17.747 25.3969 18.1103 25.7982C18.6271 26.3692 19.1531 26.6082 20.0163 26.6646L20.7431 26.7119V27.0942C20.7431 27.6047 20.923 27.9706 21.2589 28.144C22.03 28.5419 22.7482 28.0316 22.7482 27.0856C22.7482 26.7129 22.7658 26.6914 23.1242 26.6249C24.3948 26.3895 25.4191 25.4532 25.7975 24.1812C26.0092 23.4697 25.9976 22.9379 25.7535 22.1489C25.4943 21.3111 24.7916 20.5106 23.9703 20.1174C23.4512 19.869 23.2642 19.8392 21.891 19.7878C20.2274 19.7255 20.0037 19.6523 19.6359 19.0505C19.2511 18.4204 19.4853 17.5933 20.1658 17.1792C20.4538 17.0039 20.6727 16.9803 22.0143 16.98C23.7224 16.9796 23.7807 17.0009 23.887 17.6642C24.0231 18.5138 24.98 18.87 25.563 18.2881C25.8143 18.0373 25.8561 17.9189 25.8561 17.4572C25.8561 16.0829 24.6865 14.9783 23.2316 14.9783H22.7482V14.5828C22.7482 14.0599 22.571 13.6946 22.2324 13.5199C21.8918 13.3442 21.5695 13.3432 21.2554 13.517ZM7.7658 17.4879C8.02796 17.6112 9.06559 18.5769 10.6888 20.2084C13.0986 22.6306 13.2124 22.7623 13.3738 23.3162C13.5143 23.7989 13.5229 23.9752 13.4254 24.3809C13.2173 25.2469 12.5847 25.8783 11.717 26.086C11.3112 26.1832 11.1329 26.1748 10.648 26.0353C10.0868 25.8739 9.97309 25.775 7.44308 23.2499C4.92902 20.7406 4.81313 20.6081 4.65543 20.0619C4.46094 19.3879 4.51838 18.9162 4.86967 18.3032C5.44423 17.3005 6.64677 16.962 7.7658 17.4879ZM7.7658 27.0938C8.02796 27.2171 9.06559 28.1828 10.6888 29.8143C13.0986 32.2365 13.2124 32.3682 13.3738 32.9221C13.5143 33.4048 13.5229 33.5811 13.4254 33.9868C13.2173 34.8528 12.5847 35.4842 11.717 35.692C11.3112 35.7891 11.1329 35.7807 10.648 35.6412C10.0868 35.4798 9.97309 35.381 7.44308 32.8558C4.92902 30.3465 4.81313 30.2141 4.65543 29.6678C4.46094 28.9938 4.51838 28.5221 4.86967 27.9091C5.44423 26.9064 6.64677 26.5679 7.7658 27.0938ZM6.96377 35.8993C7.22593 36.0226 8.26356 36.9883 9.88677 38.6198C12.2966 41.042 12.4104 41.1736 12.5718 41.7276C12.7123 42.2103 12.7208 42.3866 12.6234 42.7922C12.4153 43.6583 11.7827 44.2897 10.915 44.4974C10.5091 44.5946 10.3309 44.5862 9.84597 44.4467C9.28475 44.2853 9.17106 44.1864 6.64105 41.6612C4.12699 39.152 4.0111 39.0195 3.8534 38.4733C3.65891 37.7993 3.71635 37.3276 4.06764 36.7146C4.6422 35.7119 5.84474 35.3734 6.96377 35.8993ZM28.1619 44.9969V47.9988H18.9386C9.84887 47.9988 9.71233 47.9959 9.51473 47.7986C9.35833 47.6425 9.31422 47.4651 9.31422 46.9914C9.31422 46.4616 9.33658 46.3904 9.48966 46.4323C10.3339 46.6634 11.4193 46.5453 12.3123 46.1249C13.0304 45.7869 13.9154 44.9036 14.254 44.1869C14.5327 43.597 14.7713 42.4244 14.6675 42.1544C14.6118 42.0096 15.2246 41.995 21.3841 41.995H28.1619V44.9969ZM18.7782 44.3365C18.3157 44.7981 18.3157 45.1957 18.7782 45.6573L19.119 45.9975H21.9412C25.0044 45.9975 25.1995 45.9669 25.4355 45.45C25.6699 44.9366 25.5009 44.377 25.0395 44.1389C24.8196 44.0254 24.1876 43.9963 21.9412 43.9963H19.119L18.7782 44.3365Z" fill="#00824B"/>
</svg>
