<svg width="50" height="50" viewBox="0 0 50 50" fill="none" xmlns="http://www.w3.org/2000/svg">
<path fill-rule="evenodd" clip-rule="evenodd" d="M7.27 0.155854C6.30336 0.490856 5.57061 1.29988 5.36303 2.26151C5.28656 2.61566 5.26339 5.30203 5.2848 11.3136C5.31511 19.8221 5.31619 19.8642 5.52534 20.3163C5.79462 20.8981 6.43194 21.5341 7.01177 21.7995C7.39154 21.9733 7.69553 22.0133 8.86027 22.043L10.2542 22.0786L10.5958 21.7373C11.0337 21.2998 11.0507 20.92 10.6525 20.4742L10.3675 20.1552L9.09005 20.1063C7.85403 20.059 7.80397 20.0487 7.54173 19.7865L7.27078 19.5157V11.0205V2.52529L7.54192 2.25448L7.81296 1.98356H27.6576H47.5022L47.7733 2.25448L48.0444 2.52529V11.0205V19.5157L47.7735 19.7865L47.5025 20.0575L43.8135 20.1115C41.7845 20.1412 40.1076 20.1742 40.0869 20.1848C40.0663 20.1953 39.2842 20.9608 38.3489 21.8858L36.6482 23.5674L35.013 21.9451C34.1135 21.0527 33.2815 20.274 33.1641 20.2145C33.0185 20.1408 31.7045 20.1063 29.0376 20.1063H25.1246L24.9384 19.6911C24.4999 18.713 23.5015 17.6929 22.4768 17.1762C21.9003 16.8855 20.1113 16.2961 19.8054 16.2961C19.4861 16.2961 19.0734 16.6094 18.9149 16.9724C18.8309 17.1647 18.262 18.7069 17.6505 20.3996C17.039 22.0923 16.427 23.6976 16.2904 23.967C15.8908 24.7548 15.1645 25.6485 14.4689 26.2083C13.8164 26.7335 11.4482 28.1174 11.2021 28.1174C11.1291 28.1174 10.9694 28.011 10.8471 27.8811C10.7249 27.7511 10.3982 27.5423 10.1212 27.417C9.62197 27.1914 9.58403 27.1893 5.90188 27.1893C2.19549 27.1893 2.18503 27.1899 1.67013 27.4224C0.985482 27.7315 0.325672 28.4665 0.130506 29.1373C0.00192741 29.579 -0.014206 30.8558 0.00877191 38.7737C0.0349766 47.8433 0.0364432 47.9039 0.242756 48.3493C0.507638 48.9216 1.06713 49.4806 1.63982 49.7452C2.07288 49.9454 2.22111 49.9527 5.90188 49.9527C9.59469 49.9527 9.72962 49.946 10.1687 49.7432C10.4183 49.6279 10.7874 49.3585 10.9892 49.1444L11.3561 48.7551L12.1491 49.0504C14.6538 49.9832 14.8225 49.9976 23.3104 49.9997C31.2409 50.0017 31.1517 50.0081 32.1306 49.3618C33.4897 48.4642 34.0856 46.5338 33.448 45.0935L33.2484 44.6426L33.7864 44.3707C34.4815 44.0193 35.2093 43.2212 35.4897 42.503C35.7956 41.7189 35.8003 40.5644 35.5002 39.9019C35.3815 39.6398 35.2843 39.4132 35.2843 39.3983C35.2843 39.3834 35.5166 39.2402 35.8004 39.0802C36.448 38.715 36.9918 38.1192 37.3245 37.4103C37.543 36.9446 37.5821 36.7279 37.5821 35.982C37.5821 35.2325 37.5435 35.0203 37.3201 34.5441C36.9765 33.8117 36.2993 33.1 35.6381 32.7765L35.1066 32.5164L35.3042 32.0022C35.5825 31.2783 35.572 30.2104 35.279 29.4363C34.9763 28.6371 34.0957 27.752 33.2799 27.4271C32.6977 27.1953 32.6606 27.1932 28.4074 27.1605C25.159 27.1355 24.1322 27.0995 24.1653 27.0119C24.5848 25.8999 25.4128 23.1324 25.4639 22.6708L25.5317 22.0602H28.9117H32.2917L34.2063 23.958C35.3887 25.1301 36.2227 25.8814 36.3871 25.9226C36.9237 26.0571 37.1625 25.8845 39.0977 23.9624L41.0044 22.0687L44.4266 22.04C47.6894 22.0128 47.8701 22.0016 48.3034 21.8014C48.8845 21.5331 49.5213 20.8969 49.7899 20.3163C50 19.8622 50 19.8606 50 11.0205C50 2.18042 50 2.17886 49.7899 1.72477C49.5213 1.14415 48.8845 0.507953 48.3034 0.23958L47.8489 0.02963L27.8043 0.00794129C8.99305 -0.0124773 7.72956 -0.00339152 7.27 0.155854ZM14.8975 5.85861C14.4769 6.09054 14.1893 6.45944 13.7818 7.29025L13.3574 8.15536L12.486 8.27133C11.044 8.4631 10.5365 8.7813 10.3491 9.61114C10.2025 10.2612 10.414 10.7082 11.2557 11.5266L12.0274 12.277L11.8736 13.0973C11.6615 14.2282 11.6756 14.6393 11.9397 15.0271C12.2675 15.5082 12.6283 15.7321 13.1547 15.7813C13.5758 15.8204 13.7284 15.7716 14.5781 15.3245L15.5296 14.8239L16.465 15.3158C17.4608 15.8394 17.8381 15.9094 18.4008 15.6744C18.8216 15.4987 19.2249 15.008 19.3067 14.572C19.3442 14.3723 19.3018 13.796 19.2083 13.2332L19.0441 12.2451L19.7824 11.5401C20.1886 11.1523 20.568 10.7119 20.6257 10.5614C20.8002 10.1056 20.7525 9.49165 20.5122 9.10331C20.2279 8.64355 19.718 8.42266 18.5965 8.27347L17.7077 8.15526L17.3293 7.37183C16.8977 6.4782 16.607 6.09269 16.2108 5.88792C15.8863 5.72027 15.1772 5.70444 14.8975 5.85861ZM27.1911 5.94048C26.843 6.15248 26.4916 6.65689 26.0611 7.56234L25.7847 8.14393L24.7518 8.30327C23.6444 8.47424 23.3653 8.61033 22.9887 9.1633C22.746 9.5196 22.6919 10.1987 22.8773 10.5629C22.9371 10.6802 23.3159 11.1118 23.7192 11.5219L24.4523 12.2675L24.2852 13.262C24.1932 13.809 24.1462 14.4063 24.1806 14.5896C24.2595 15.0097 24.6684 15.5013 25.0832 15.6744C25.6469 15.9097 26.0292 15.8397 27.0222 15.3191L27.9542 14.8305L28.9496 15.3296C29.8068 15.7594 30.0036 15.8221 30.3668 15.7813C30.8915 15.7222 31.406 15.3792 31.6094 14.9533C31.8011 14.5517 31.8054 14.0213 31.6248 13.075L31.4854 12.3451L32.2544 11.5449C33.2554 10.5031 33.4054 10.0034 32.9743 9.14757C32.7388 8.68009 32.3389 8.48929 31.2096 8.30562L30.151 8.13347L29.6345 7.15084C29.215 6.35266 29.0472 6.12845 28.7412 5.9565C28.2607 5.68666 27.6186 5.68002 27.1911 5.94048ZM39.5866 5.9566C39.3397 6.1218 39.1038 6.45758 38.7396 7.16198L38.2349 8.13846L37.183 8.30278C36.0568 8.47864 35.7823 8.6116 35.4066 9.1633C35.167 9.515 35.1203 10.049 35.2895 10.5013C35.3461 10.6525 35.7266 11.1135 36.135 11.5257L36.8776 12.275L36.7041 13.3531L36.5305 14.4311L36.7629 14.8996C36.9231 15.2223 37.1171 15.4359 37.3866 15.5863C37.9847 15.9199 38.365 15.8726 39.4476 15.3299L40.4006 14.8523L41.3783 15.3299C42.4847 15.8706 42.8588 15.917 43.4434 15.5862C44.1954 15.1606 44.3475 14.499 44.0483 12.9556L43.9216 12.3017L44.5971 11.6367C45.4082 10.8382 45.6902 10.3474 45.6205 9.85567C45.4761 8.83806 45.0662 8.51693 43.6396 8.30396L42.607 8.14979L42.1146 7.19187C41.531 6.05674 41.2591 5.82051 40.4729 5.7656C40.0249 5.73434 39.8684 5.76804 39.5866 5.9566ZM28.9206 9.67982C29.2041 9.9181 29.9432 10.1412 30.4491 10.1412C30.7827 10.1412 30.7522 10.2337 30.2589 10.7175C29.5872 11.3762 29.4559 11.7566 29.5868 12.6646C29.6461 13.0767 29.6808 13.4279 29.6638 13.4449C29.6469 13.4619 29.3658 13.3409 29.0392 13.1762C28.2428 12.7746 27.6844 12.7729 26.9399 13.1698C26.6376 13.331 26.3663 13.4629 26.3371 13.4629C26.308 13.4629 26.3131 13.1159 26.3485 12.6917C26.3839 12.2675 26.3827 11.8002 26.3458 11.6534C26.3089 11.5065 26.0331 11.1291 25.7329 10.8146C25.372 10.4366 25.2329 10.2293 25.3224 10.203C25.3967 10.1811 25.7332 10.1168 26.0701 10.0602C26.8885 9.92259 27.2033 9.67542 27.6243 8.84041L27.9753 8.14383L28.3001 8.78746C28.4788 9.14151 28.7579 9.54304 28.9206 9.67982ZM41.3385 9.67982C41.6181 9.91488 42.3598 10.1412 42.8507 10.1412C42.9735 10.1412 43.0982 10.1655 43.1278 10.1951C43.1575 10.2247 42.9486 10.4818 42.6636 10.7665C41.9963 11.4333 41.867 11.8301 42.0239 12.7302C42.087 13.0921 42.1188 13.4078 42.0947 13.4319C42.0706 13.456 41.7763 13.3373 41.441 13.1681C40.6426 12.7655 40.1928 12.7655 39.3945 13.1681C39.0591 13.3373 38.7621 13.4533 38.7346 13.4258C38.7072 13.3983 38.7356 13.0835 38.7979 12.7262C38.9482 11.8636 38.8293 11.5109 38.1551 10.8196C37.617 10.268 37.5853 10.1412 37.9847 10.1412C38.4705 10.1412 39.2159 9.91605 39.4885 9.68685C39.6465 9.55398 39.9175 9.15782 40.0905 8.80651L40.4053 8.16777L40.724 8.79947C40.8993 9.14688 41.1758 9.54304 41.3385 9.67982ZM15.9299 8.94592C16.3361 9.7144 16.744 9.9987 17.5858 10.1005C17.8819 10.1364 18.1616 10.1874 18.2071 10.2139C18.2527 10.2405 18.0707 10.4879 17.8027 10.7635C17.5348 11.0392 17.2665 11.3608 17.2065 11.4781C17.0801 11.7256 17.0708 12.4507 17.1864 13.0477C17.2306 13.2761 17.2397 13.4623 17.2066 13.4617C17.1735 13.461 16.8872 13.3291 16.5704 13.1686C15.7957 12.7761 15.2712 12.7791 14.4674 13.1804C14.1329 13.3474 13.8457 13.4682 13.8291 13.4491C13.8125 13.4298 13.8433 13.1244 13.8975 12.7703C14.0428 11.8227 13.9497 11.5076 13.3255 10.8339C13.0302 10.5152 12.8231 10.2341 12.8653 10.209C12.9074 10.184 13.1839 10.1323 13.4797 10.0942C14.3188 9.9861 14.766 9.67337 15.1542 8.92345C15.3357 8.57272 15.5062 8.28627 15.5331 8.28686C15.56 8.28754 15.7385 8.58405 15.9299 8.94592ZM21.9469 19.138C22.5059 19.5191 22.9496 20.0513 23.2385 20.6872C23.444 21.1394 23.4849 21.3763 23.4839 22.1091C23.4829 22.9554 23.4511 23.0816 22.6369 25.4775C22.1715 26.8465 21.7909 28.0918 21.7909 28.2449C21.7909 28.4222 21.8945 28.6268 22.0767 28.8088L22.3625 29.0944L27.1856 29.095C30.385 29.0953 32.1389 29.1316 32.3953 29.2027C32.8991 29.3425 33.381 29.8326 33.5193 30.3459C33.7417 31.171 33.2217 32.0785 32.3953 32.3077C32.1553 32.3744 30.9211 32.4152 29.1412 32.4155L26.2736 32.4161L25.9878 32.7017C25.6816 33.0076 25.6182 33.3954 25.8068 33.809C26.039 34.3182 26.0336 34.3176 30.4932 34.37C33.5859 34.4064 34.704 34.4504 34.8648 34.5423C34.9836 34.6102 35.2036 34.8266 35.3537 35.0232C35.5831 35.3237 35.6266 35.4751 35.6266 35.9744C35.6266 36.6821 35.382 37.0996 34.7911 37.4009C34.4323 37.5838 34.2043 37.594 30.5117 37.594C27.9825 37.594 26.5052 37.6309 26.3097 37.699C25.7865 37.8812 25.5337 38.5625 25.8027 39.0648C26.0434 39.5141 26.2937 39.548 29.3883 39.5485C31.0816 39.5488 32.4536 39.5911 32.664 39.6495C33.1612 39.7874 33.6924 40.4214 33.7756 40.9763C33.8265 41.315 33.7924 41.4958 33.6086 41.862C33.3407 42.3958 33.0278 42.6515 32.4901 42.7761C32.2791 42.825 30.7941 42.866 29.1901 42.8673L26.2736 42.8696L25.9878 43.1552C25.5977 43.545 25.5975 44.0196 25.9872 44.4556L26.2723 44.7747L28.505 44.8236C30.9351 44.8767 30.9944 44.8897 31.4328 45.4641C32.0173 46.2295 31.7551 47.3646 30.8882 47.8226L30.4624 48.0476H23.3083C15.2608 48.0476 15.1698 48.0412 13.2353 47.3455C12.6437 47.1327 12.0825 46.9347 11.988 46.9054C11.8259 46.8551 11.8178 46.3891 11.8413 38.4463L11.8664 30.0406L13.2842 29.2641C15.5441 28.0264 16.5987 27.1349 17.562 25.6475C18.1268 24.7751 18.2629 24.4542 19.4426 21.211L20.4446 18.4567L20.9956 18.6609C21.2985 18.7731 21.7267 18.9879 21.9469 19.138ZM13.6533 20.2586C13.3161 20.4414 13.1864 20.6836 13.1864 21.1302C13.1864 21.766 13.8657 22.2075 14.4633 21.9601C14.8469 21.8014 15.0442 21.5106 15.0442 21.104C15.0442 20.6748 14.9064 20.4343 14.5572 20.2538C14.2044 20.0715 13.9963 20.0726 13.6533 20.2586ZM4.89623 35.2918L4.9241 41.4892L5.21127 41.7886C5.44086 42.028 5.57941 42.0881 5.90188 42.0881C6.22436 42.0881 6.36291 42.028 6.59249 41.7886L6.87967 41.4892L6.90763 35.2839L6.9355 29.0786L8.16291 29.1109C9.36931 29.1427 9.39443 29.1479 9.62617 29.4174L9.86191 29.6915V38.584V47.4764L9.57611 47.762L9.2903 48.0476H5.90188H2.51347L2.22766 47.762L1.94185 47.4764V38.6002C1.94185 30.6058 1.9575 29.7018 2.09898 29.4999C2.33453 29.164 2.57155 29.1074 3.77178 29.1006L4.86827 29.0944L4.89623 35.2918ZM5.68941 43.7284C5.29927 43.7874 4.97299 44.2194 4.97299 44.677C4.97299 45.2521 5.32636 45.6051 5.90188 45.6051C6.47741 45.6051 6.83078 45.2521 6.83078 44.677C6.83078 44.0415 6.33651 43.6307 5.68941 43.7284Z" fill="#7D8804"/>
</svg>
