<svg width="47" height="50" viewBox="0 0 47 50" fill="none" xmlns="http://www.w3.org/2000/svg">
<path fill-rule="evenodd" clip-rule="evenodd" d="M2.91415 0.0778842C1.8418 0.334961 0.786365 1.22912 0.288877 2.30229L0 2.92525V24.9886V47.052L0.288671 47.675C0.667616 48.4926 1.46223 49.2957 2.25892 49.6663L2.88877 49.9592L16.291 49.987C31.234 50.018 30.4071 50.0554 31.5092 49.3002C31.8264 49.0828 32.2618 48.6527 32.4767 48.3445C33.192 47.3187 33.1718 47.582 33.1976 38.996L33.2209 31.2702L35.4933 31.2183L37.7659 31.1664L38.4445 30.8299C39.262 30.4245 39.9868 29.6814 40.3727 28.8529L40.6492 28.2592L40.6779 23.5091L40.7067 18.759L41.2454 18.7572C42.7836 18.752 44.2046 18.1557 45.3033 17.0544C47.0808 15.2726 47.4877 12.8632 46.4008 10.5566C45.3189 8.26033 42.5662 6.94722 40.0817 7.54205C38.107 8.01499 36.3515 9.75285 35.9215 11.6607L35.7842 12.2697L34.4786 12.2988L33.1731 12.3278L33.1735 7.78231C33.1741 2.74864 33.159 2.60816 32.5147 1.66302C32.1123 1.07276 31.3467 0.458205 30.6932 0.20092C30.2592 0.0300196 29.3511 0.0170411 16.7652 0.00157079C9.14668 -0.00777369 3.13329 0.0254512 2.91415 0.0778842ZM30.0041 1.63488C30.5077 1.77567 31.1876 2.39116 31.4292 2.92525C31.586 3.27173 31.6176 3.62017 31.6195 5.02776L31.6217 6.71496H16.5589H1.49597L1.49659 5.13159C1.4969 4.26068 1.54714 3.36694 1.60832 3.14526C1.74606 2.64585 2.54511 1.81897 3.04353 1.66001C3.54164 1.50105 29.4391 1.47696 30.0041 1.63488ZM13.0155 3.58238C12.7704 3.85482 12.7955 4.45754 13.0619 4.70019C13.266 4.88604 13.4787 4.89798 16.5787 4.89798H19.8782L20.1272 4.60664C20.4322 4.24978 20.4407 4.02219 20.1623 3.66606L19.9485 3.39248H16.5673C13.4228 3.39248 13.1742 3.40577 13.0155 3.58238ZM31.6217 10.297V12.3217L23.1876 12.3229C14.1991 12.3242 14.2674 12.3207 13.2689 12.8345C12.6274 13.1644 11.9012 13.9348 11.548 14.6601L11.2456 15.2807V21.77V28.2592L11.4797 28.77C12.222 30.3898 13.6083 31.2183 15.5765 31.2183C16.3419 31.2183 16.5783 31.255 16.745 31.4C16.86 31.4999 17.4499 32.3993 18.0562 33.3987C18.6623 34.398 19.2813 35.35 19.4318 35.5143C20.2899 36.4505 21.9306 36.4251 22.8113 35.4619C22.9873 35.2693 23.6282 34.2889 24.2354 33.283C24.9671 32.0708 25.4262 31.4144 25.5967 31.3362C25.7691 31.2572 26.8046 31.2183 28.7378 31.2183H31.6217V36.4616V41.7049H16.5589H1.49597V24.9886V8.27238H16.5589H31.6217V10.297ZM43.1153 9.40181C43.9742 9.8273 44.828 10.7394 45.1405 11.5653C46.0797 14.048 44.6274 16.6241 42.0152 17.1085C41.2078 17.2582 40.319 17.1184 39.5342 16.7181C36.3545 15.0967 36.6495 10.4541 40.0125 9.19322C40.4377 9.03374 40.7397 9.00135 41.4998 9.03354C42.3141 9.06811 42.5505 9.122 43.1153 9.40181ZM35.9186 14.4892C36.2681 15.8638 37.4479 17.3858 38.6647 18.032L39.1532 18.2914V23.029C39.1532 28.163 39.1566 28.1286 38.5766 28.8223C38.4255 29.003 38.1104 29.2539 37.8763 29.3799C37.4548 29.6069 37.3944 29.6095 31.3638 29.6609C25.676 29.7094 25.253 29.7254 24.9157 29.9066C24.3058 30.234 24.1148 30.477 22.8905 32.4816C22.2393 33.5481 21.6376 34.4782 21.5535 34.5483C21.3645 34.7063 20.8245 34.6998 20.6301 34.5373C20.5505 34.471 19.9919 33.6014 19.3884 32.605C18.7851 31.6086 18.1743 30.6533 18.0312 30.4821C17.552 29.909 17.0527 29.7351 15.6819 29.6641C14.972 29.6272 14.3338 29.5408 14.1859 29.4615C13.5964 29.1456 13.2212 28.7723 12.9894 28.2713L12.7436 27.7401L12.7449 21.77C12.746 16.094 12.7559 15.7794 12.9445 15.3846C13.0536 15.1561 13.2034 14.8973 13.2775 14.8093C13.5354 14.5029 14.1368 14.1036 14.4954 14.0009C14.7265 13.9345 18.6225 13.9034 25.3166 13.9142L35.7766 13.931L35.9186 14.4892ZM18.1244 17.1303C17.807 17.4704 17.8281 17.9601 18.1719 18.2322C18.4413 18.4455 18.5124 18.4475 25.9474 18.4475C33.3823 18.4475 33.4534 18.4455 33.7228 18.2322C34.0635 17.9626 34.0956 17.4069 33.7883 17.0977C33.5857 16.8938 33.4445 16.8901 25.9653 16.8901H18.3488L18.1244 17.1303ZM15.5787 21.0584C15.0639 21.3439 14.9605 21.8998 15.3532 22.271L15.592 22.4968H25.9798C36.2301 22.4968 36.3703 22.4941 36.5739 22.2891C36.8346 22.0267 36.8388 21.5542 36.5831 21.2364L36.3858 20.9913L26.0855 20.9676C18.7364 20.9508 15.726 20.9768 15.5787 21.0584ZM18.1244 25.3327C17.807 25.6727 17.8281 26.1625 18.1719 26.4346C18.4413 26.6479 18.5124 26.6499 25.9474 26.6499C33.3823 26.6499 33.4534 26.6479 33.7228 26.4346C34.074 26.1567 34.0962 25.6111 33.7688 25.3042C33.5459 25.095 33.4489 25.0925 25.9459 25.0925H18.3488L18.1244 25.3327ZM31.6195 44.9495C31.6169 46.8425 31.5286 47.1859 30.8859 47.8003C30.1631 48.4915 30.9913 48.4537 16.5836 48.4537C6.60012 48.4537 3.43186 48.4239 3.10708 48.3268C2.55099 48.1606 1.75617 47.3678 1.60832 46.832C1.54714 46.6103 1.4969 45.7165 1.49659 44.8457L1.49597 43.2623H16.5589H31.6217L31.6195 44.9495ZM15.5192 45.3308C15.1627 45.6897 15.1404 45.9388 15.4315 46.3112C15.6334 46.5695 15.6956 46.5848 16.5483 46.5848C17.3589 46.5848 17.4744 46.5602 17.6758 46.3445C17.9007 46.1035 17.9557 45.8132 17.836 45.4993C17.7241 45.2057 17.2206 45.0274 16.5045 45.0274C15.8864 45.0274 15.7919 45.0564 15.5192 45.3308Z" fill="#1396B3"/>
</svg>
