<svg width="44" height="52" viewBox="0 0 44 52" fill="none" xmlns="http://www.w3.org/2000/svg">
<path d="M24.0346 47.3555H10.2177C8.84327 47.3541 7.52555 46.8596 6.55362 45.9805C5.58169 45.1013 5.03491 43.9093 5.03323 42.6658V9.33489C5.03491 8.09147 5.58169 6.89942 6.55362 6.02025C7.52555 5.14108 8.84327 4.64659 10.2177 4.64526H24.0346C24.552 4.62247 25.0398 4.4205 25.3971 4.08119C25.7543 3.74188 25.9536 3.29123 25.9536 2.82263C25.9536 2.35402 25.7543 1.90338 25.3971 1.56407C25.0398 1.22475 24.552 1.02278 24.0346 1H10.2177C7.77421 1.00114 5.43112 1.87951 3.70288 3.44223C1.97464 5.00496 1.00253 7.1243 1 9.33489V42.6651C1.00253 44.8765 1.9753 46.9964 3.70457 48.5593C5.43384 50.1221 7.77815 51 10.2224 51H24.0394C24.5568 50.9772 25.0446 50.7752 25.4019 50.4359C25.7591 50.0966 25.9584 49.646 25.9584 49.1774C25.9584 48.7088 25.7591 48.2581 25.4019 47.9188C25.0446 47.5795 24.5568 47.3775 24.0394 47.3547L24.0346 47.3555Z" fill="#FC7754" stroke="#FC7754" stroke-width="0.5"/>
<path d="M42.676 35.8907L33.7557 27.3457C33.6087 27.2034 33.4318 27.089 33.2354 27.0092C33.0389 26.9294 32.8269 26.8859 32.6116 26.8811C32.2898 26.876 31.9735 26.957 31.7023 27.114C31.4312 27.2709 31.2173 27.4968 31.0874 27.7632C30.9576 28.0297 30.9177 28.3249 30.9725 28.6119C31.0274 28.8988 31.1748 29.1647 31.396 29.3762L37.4033 35.1261H15.2695C15.05 35.1273 14.833 35.1679 14.631 35.2455C14.429 35.3232 14.246 35.4364 14.0927 35.5785C13.9394 35.7206 13.8188 35.8888 13.7379 36.0734C13.657 36.258 13.6174 36.4552 13.6214 36.6538C13.6254 36.8523 13.6729 37.0481 13.7612 37.2299C13.8495 37.4117 13.9768 37.5759 14.1357 37.7128C14.2946 37.8498 14.482 37.9568 14.687 38.0278C14.892 38.0987 15.1105 38.1322 15.3299 38.1261H37.4033L31.396 43.876C31.1849 44.089 31.0456 44.3522 30.9945 44.6345C30.9433 44.9168 30.9825 45.2064 31.1073 45.4693C31.2322 45.7321 31.4376 45.9571 31.6992 46.1178C31.9608 46.2785 32.2677 46.3681 32.5838 46.3762H32.6339C32.8492 46.3714 33.0612 46.3279 33.2577 46.2481C33.4541 46.1683 33.631 46.0539 33.778 45.9115L42.676 37.3666C42.8841 37.1671 43 36.9033 43 36.629C43 36.3547 42.8841 36.0908 42.676 35.8914V35.8907Z" fill="#FC7754" stroke="#FC7754" stroke-width="0.5"/>
<path d="M13.9297 17.0196L22.85 8.47463C22.997 8.3323 23.1739 8.2179 23.3703 8.13812C23.5667 8.05834 23.7788 8.01478 23.9941 8.00999C24.3159 8.00492 24.6322 8.08594 24.9034 8.24287C25.1745 8.39981 25.3884 8.62566 25.5183 8.89214C25.6481 9.15862 25.6881 9.45385 25.6332 9.7408C25.5783 10.0277 25.4309 10.2936 25.2097 10.5051L19.2024 16.255H41.337C41.5565 16.2562 41.7735 16.2968 41.9755 16.3744C42.1775 16.4521 42.3605 16.5653 42.5138 16.7074C42.6671 16.8495 42.7877 17.0177 42.8686 17.2023C42.9495 17.3869 42.9891 17.5841 42.9851 17.7827C42.9811 17.9812 42.9336 18.1771 42.8453 18.3588C42.757 18.5406 42.6297 18.7048 42.4708 18.8417C42.3119 18.9787 42.1245 19.0858 41.9195 19.1567C41.7145 19.2276 41.496 19.2611 41.2766 19.255H19.2032L25.2105 25.0049C25.4215 25.2179 25.5609 25.4811 25.612 25.7634C25.6632 26.0457 25.624 26.3353 25.4992 26.5982C25.3743 26.861 25.1689 27.086 24.9073 27.2467C24.6457 27.4074 24.3388 27.497 24.0227 27.5051H23.9726C23.7573 27.5003 23.5453 27.4568 23.3488 27.377C23.1524 27.2972 22.9755 27.1828 22.8285 27.0404L13.9305 18.4955C13.7224 18.296 13.6064 18.0322 13.6064 17.7579C13.6064 17.4836 13.7224 17.2197 13.9305 17.0203L13.9297 17.0196Z" fill="#FC7754" stroke="#FC7754" stroke-width="0.5"/>
</svg>
