<svg width="36" height="52" viewBox="0 0 36 52" fill="none" xmlns="http://www.w3.org/2000/svg">
<path d="M15.736 23.2515C17.3669 23.2517 18.9473 22.6697 20.2081 21.6047C21.4689 20.5398 22.332 19.0577 22.6503 17.4111C22.9686 15.7645 22.7224 14.0552 21.9537 12.5745C21.185 11.0939 19.9413 9.93335 18.4346 9.2908C16.9279 8.64824 15.2513 8.56338 13.6907 9.05067C12.13 9.53797 10.7817 10.5673 9.87561 11.9632C8.96951 13.3591 8.56161 15.0353 8.72145 16.7061C8.88128 18.3769 9.59895 19.9389 10.7522 21.1261C11.4066 21.8 12.1835 22.3345 13.0387 22.6992C13.8938 23.0639 14.8104 23.2516 15.736 23.2515ZM20.9063 15.9956C20.9092 17.0685 20.5962 18.1172 20.0088 19.0035C19.4213 19.8897 18.5869 20.5721 17.6154 20.9606C16.6438 21.3491 15.5808 21.4256 14.5662 21.18C13.5516 20.9344 12.6331 20.3782 11.9316 19.5847L19.968 12.9121C20.5893 13.8133 20.9182 14.8935 20.9077 15.9985L20.9063 15.9956ZM15.736 10.6731C16.7389 10.6778 17.7187 10.9838 18.5552 11.5535L10.924 17.929C10.6158 17.1228 10.5039 16.2512 10.598 15.3903C10.6921 14.5293 10.9894 13.7051 11.4639 12.9896C11.9385 12.274 12.5758 11.6889 13.3205 11.2851C14.0651 10.8813 14.8944 10.6712 15.736 10.6731Z" fill="#1992FB" stroke="#1992FB"/>
<path d="M26.9043 40.998H9.09592C8.88115 40.998 8.67518 41.0859 8.52331 41.2422C8.37145 41.3986 8.28613 41.6106 8.28613 41.8317V46.832C8.28604 46.9414 8.30692 47.0499 8.34758 47.1511C8.38825 47.2523 8.4479 47.3442 8.52311 47.4216C8.59833 47.499 8.68763 47.5604 8.78592 47.6023C8.88421 47.6442 8.98955 47.6657 9.09592 47.6656H26.905C27.0114 47.6657 27.1167 47.6442 27.215 47.6023C27.3133 47.5604 27.4026 47.499 27.4778 47.4216C27.553 47.3442 27.6127 47.2523 27.6534 47.1511C27.694 47.0499 27.7149 46.9414 27.7148 46.832V41.8317C27.7149 41.7222 27.694 41.6137 27.6534 41.5125C27.6127 41.4114 27.553 41.3194 27.4778 41.242C27.4026 41.1646 27.3133 41.1032 27.215 41.0613C27.1167 41.0194 27.0114 40.998 26.905 40.998H26.9043ZM26.0945 45.9976H9.90502V42.6646H26.0952L26.0945 45.9976Z" fill="#1992FB" stroke="#1992FB"/>
<path d="M8.28613 27.666H27.7141V29.3325H8.28613V27.666Z" fill="#1992FB" stroke="#1992FB"/>
<path d="M8.28613 36.002H27.7141V37.6685H8.28613V36.002Z" fill="#1992FB" stroke="#1992FB"/>
<path d="M8.28613 32.668H15.5714V34.3345H8.28613V32.668Z" fill="#1992FB" stroke="#1992FB"/>
<path d="M8.28613 24.332H15.5714V25.9985H8.28613V24.332Z" fill="#1992FB" stroke="#1992FB"/>
<path d="M34.1909 3.50014H30.9531V1.83362C30.9532 1.72412 30.9324 1.61568 30.8917 1.5145C30.851 1.41331 30.7914 1.32138 30.7162 1.24395C30.6409 1.16652 30.5516 1.10512 30.4534 1.06326C30.3551 1.0214 30.2497 0.999906 30.1434 1H5.85734C5.64257 1 5.4366 1.08783 5.28473 1.24416C5.13287 1.4005 5.04755 1.61253 5.04755 1.83362V3.50014H1.80979C1.59502 3.50014 1.38905 3.58797 1.23718 3.74431C1.08532 3.90064 1 4.11268 1 4.33377V47.6662C0.999908 47.7757 1.02079 47.8842 1.06145 47.9854C1.10212 48.0865 1.16176 48.1785 1.23698 48.2559C1.31219 48.3333 1.4015 48.3947 1.49979 48.4366C1.59808 48.4785 1.70342 48.5 1.80979 48.4999H5.04755V50.1664C5.04746 50.2759 5.06834 50.3843 5.109 50.4855C5.14967 50.5867 5.20932 50.6786 5.28453 50.7561C5.35975 50.8335 5.44905 50.8949 5.54734 50.9367C5.64563 50.9786 5.75097 51.0001 5.85734 51H30.1427C30.249 51.0001 30.3544 50.9786 30.4527 50.9367C30.5509 50.8949 30.6403 50.8335 30.7155 50.7561C30.7907 50.6786 30.8503 50.5867 30.891 50.4855C30.9316 50.3843 30.9525 50.2759 30.9524 50.1664V48.4991H34.1902C34.2966 48.4992 34.4019 48.4777 34.5002 48.4359C34.5985 48.394 34.6878 48.3326 34.763 48.2552C34.8382 48.1778 34.8979 48.0858 34.9385 47.9846C34.9792 47.8835 35.0001 47.775 35 47.6655V4.33305C35.0001 4.22355 34.9792 4.1151 34.9385 4.01392C34.8979 3.91274 34.8382 3.8208 34.763 3.74338C34.6878 3.66595 34.5985 3.60455 34.5002 3.56269C34.4019 3.52083 34.2966 3.49933 34.1902 3.49943L34.1909 3.50014ZM2.62028 46.8326V5.16667H5.04895V46.8326H2.62028ZM29.3336 49.3342H6.66783V2.66652H29.3336V49.3342ZM33.3811 46.8341H30.9524V5.16667H33.3811V46.8341Z" fill="#1992FB" stroke="#1992FB"/>
</svg>
