<svg width="50" height="50" viewBox="0 0 50 50" fill="none" xmlns="http://www.w3.org/2000/svg">
<path fill-rule="evenodd" clip-rule="evenodd" d="M36.405 0.102736C31.8522 0.848287 27.9812 4.29358 26.8665 8.59213C25.8566 12.4868 26.9496 17.6424 29.6462 21.7044C31.1035 23.8995 33.3594 26.2602 35.5302 27.8619L36.7225 28.7416L36.7225 30.5284C36.7225 31.806 36.685 32.405 36.591 32.6298C36.4088 33.0652 35.7281 33.6555 35.3367 33.7175C35.1588 33.7458 34.0465 33.7863 32.8647 33.8077C31.0117 33.8413 30.6278 33.8751 30.0742 34.0538C27.5374 34.8724 26.0109 37.5422 26.6147 40.1047C27.0182 41.8179 28.2223 43.1564 29.9661 43.8305L30.6184 44.0826L36.1854 44.1334C41.5586 44.1825 41.7614 44.1911 42.0127 44.3797C42.6783 44.8795 42.8269 45.7999 42.3442 46.4332C41.8254 47.114 43.0333 47.0676 25.8359 47.0676H10.255V48.5336V49.9997H25.9587C43.1392 49.9997 42.1944 50.0305 43.3077 49.435C44.85 48.6099 45.8158 46.6689 45.5332 44.9621C45.2495 43.2487 44.0874 41.8903 42.476 41.3885C41.9239 41.2164 41.5106 41.2032 36.6806 41.2032C31.1377 41.2032 30.9416 41.1884 30.284 40.7198C29.45 40.1256 29.1776 38.7776 29.7088 37.8733C30.0422 37.3057 30.5791 36.9329 31.2452 36.8066C31.5329 36.7519 32.6366 36.7073 33.6979 36.7073C35.9123 36.7073 36.4549 36.5971 37.4621 35.9433C38.4185 35.3225 39.0495 34.4992 39.4672 33.3275C39.6431 32.8342 39.681 32.4512 39.7247 30.7298L39.7759 28.7106L40.5111 28.197C42.3263 26.9287 44.6885 24.6396 46.0258 22.8531C48.2089 19.9366 49.5124 16.7246 49.9032 13.2988C50.3444 9.43209 49.2785 6.21043 46.6845 3.56943C44.9166 1.76947 43.0522 0.739797 40.5804 0.198031C39.5896 -0.0190467 37.4474 -0.0679161 36.405 0.102736ZM39.68 3.03529C43.0087 3.61615 45.6548 5.88877 46.6802 9.0472C47.2837 10.906 47.1304 13.6458 46.2786 16.2237C45.1337 19.6888 42.3777 23.2461 38.9319 25.7069C38.1668 26.2531 38.3148 26.279 37.135 25.3931C33.3011 22.5147 30.5537 18.4998 29.7487 14.5991C29.1346 11.6242 29.3983 9.27962 30.5712 7.2837C32.4136 4.14902 36.1298 2.41572 39.68 3.03529ZM37.2448 5.92249C35.0994 6.30797 33.2598 7.95057 32.5956 10.0735C32.2847 11.0671 32.3084 12.5374 32.6513 13.5271C33.424 15.757 35.2076 17.2351 37.5116 17.5549C40.291 17.9406 43.0214 16.1569 43.8771 13.3966C44.1721 12.4451 44.1717 11.0224 43.8761 10.0735C43.2832 8.16921 41.7316 6.62768 39.851 6.07447C39.1827 5.87792 37.9069 5.80354 37.2448 5.92249ZM39.5218 9.10604C41.3854 9.99409 41.7332 12.5541 40.1764 13.9253C39.3961 14.6128 38.2681 14.8232 37.2237 14.476C36.5061 14.2374 35.7409 13.4773 35.4969 12.7607C34.6307 10.2159 37.1155 7.95956 39.5218 9.10604ZM5.11059 22.9666L0.0150406 25.5162L0.00752031 31.6005L0 37.6849L5.12719 40.2498L10.2544 42.8148L15.431 40.2261L20.6076 37.6372V31.6013V25.5654L15.4317 22.9752C12.5849 21.5505 10.2445 20.3921 10.2309 20.4009C10.2173 20.4097 7.91312 21.5643 5.11059 22.9666ZM13.038 25.0511C14.5155 25.7897 15.7243 26.4171 15.7243 26.4453C15.7243 26.4733 14.5041 27.1056 13.0129 27.8503L10.3016 29.2043L7.59239 27.8497C6.10239 27.1047 4.88332 26.4725 4.88332 26.4447C4.88332 26.3912 10.1546 23.723 10.2789 23.7136C10.3189 23.7105 11.5606 24.3124 13.038 25.0511ZM5.90842 30.329L8.78997 31.7699V35.2651V38.7604L5.85998 37.2937L2.92999 35.827V32.3576C2.92999 30.4494 2.95177 28.8882 2.97843 28.8882C3.005 28.8882 4.32349 29.5366 5.90842 30.329ZM17.6776 32.3576V35.827L14.7482 37.2934C13.1371 38.0999 11.7966 38.7598 11.7694 38.7598C11.7422 38.7598 11.72 37.1985 11.72 35.2903V31.821L14.6255 30.3598C16.2237 29.5562 17.5641 28.8964 17.6044 28.8934C17.6446 28.8905 17.6776 30.4494 17.6776 32.3576Z" fill="#5479FC"/>
</svg>
