<svg width="50" height="50" viewBox="0 0 50 50" fill="none" xmlns="http://www.w3.org/2000/svg">
<path d="M48.1913 19.6447H42.0032C41.6916 18.6471 41.2881 17.6806 40.7979 16.7577L45.17 12.3831C45.3364 12.2176 45.4682 12.0205 45.5576 11.8034C45.6469 11.5862 45.6921 11.3535 45.6904 11.1187C45.6871 10.6457 45.5005 10.1924 45.17 9.85421L40.1129 4.79428C39.7709 4.47156 39.3187 4.29181 38.8486 4.29181C38.3786 4.29181 37.9263 4.47156 37.5843 4.79428L33.2122 9.16886C32.2897 8.67861 31.3237 8.27488 30.3268 7.96285V1.78617C30.3254 1.31288 30.1369 0.859368 29.8024 0.524699C29.4679 0.190031 29.0146 0.00140152 28.5416 0H21.403C20.93 0.00140152 20.4768 0.190031 20.1423 0.524699C19.8078 0.859368 19.6193 1.31288 19.6179 1.78617V7.97666C18.6208 8.28839 17.6549 8.69213 16.7325 9.18267L12.3603 4.80809C12.0184 4.48538 11.5661 4.30562 11.0961 4.30562C10.626 4.30562 10.1737 4.48538 9.83175 4.80809L4.78951 9.86802C4.62307 10.0336 4.49132 10.2307 4.40197 10.4478C4.31261 10.6649 4.26747 10.8977 4.26916 11.1325C4.27243 11.6055 4.45897 12.0588 4.78951 12.3969L9.16166 16.7715C8.67166 17.6945 8.26815 18.661 7.95631 19.6585H1.78518C1.31215 19.6599 0.858891 19.8485 0.524408 20.1832C0.189925 20.5179 0.00140074 20.9714 0 21.4447V28.584C0.0032793 29.057 0.189844 29.5103 0.520389 29.8485C0.684991 30.0161 0.881822 30.1487 1.09902 30.2382C1.31621 30.3277 1.54927 30.3722 1.78414 30.3691H7.96694C8.2785 31.3667 8.682 32.3332 9.17226 33.2561L4.80014 37.6307C4.6337 37.7962 4.50192 37.9933 4.41256 38.2104C4.32321 38.4276 4.27806 38.6603 4.27975 38.8951C4.28303 39.3681 4.4696 39.8214 4.80014 40.1596L9.85725 45.2046C10.1992 45.5274 10.6515 45.7071 11.1215 45.7071C11.5916 45.7071 12.0439 45.5274 12.3858 45.2046L16.7579 40.8301C17.6805 41.3203 18.6464 41.7241 19.6433 42.0361V48.2138C19.6447 48.6871 19.8333 49.1406 20.1677 49.4753C20.5022 49.81 20.9555 49.9986 21.4285 50H28.5968C29.0699 49.9986 29.5231 49.81 29.8576 49.4753C30.1921 49.1406 30.3806 48.6871 30.382 48.2138C30.3795 48.0943 30.3696 47.9751 30.3523 47.8568V42.0233C31.3493 41.7116 32.3153 41.3079 33.2377 40.8173L37.6098 45.1919C37.7753 45.3584 37.9722 45.4903 38.1892 45.5797C38.4062 45.6691 38.6389 45.7142 38.8736 45.7126C39.3463 45.7093 39.7993 45.5226 40.1373 45.1919L45.1944 40.132C45.3609 39.9664 45.4926 39.7693 45.582 39.5522C45.6713 39.3351 45.7165 39.1023 45.7148 38.8675C45.7115 38.3945 45.525 37.9412 45.1944 37.6031L40.8223 33.2285C41.3123 32.3055 41.7158 31.339 42.0276 30.3415H48.2157C48.6885 30.3382 49.1415 30.1516 49.4795 29.8208C49.6471 29.6562 49.7796 29.4592 49.869 29.2419C49.9584 29.0246 50.0029 28.7914 49.9999 28.5564V21.417C49.9966 20.944 49.81 20.4907 49.4795 20.1526C49.3086 19.986 49.1061 19.8553 48.884 19.768C48.6619 19.6808 48.4245 19.6389 48.186 19.6447H48.1913ZM46.4104 26.7883H40.6396C40.2362 26.7879 39.8445 26.9242 39.5284 27.175C39.2123 27.4259 38.9905 27.7765 38.899 28.1696C38.5372 29.7335 37.9193 31.2267 37.0703 32.5888C36.854 32.9321 36.7611 33.3389 36.807 33.7421C36.853 34.1453 37.035 34.5207 37.3231 34.8064L41.3979 38.8835L38.8693 41.4134L34.7945 37.3364C34.5075 37.0507 34.1325 36.8703 33.7303 36.8244C33.328 36.7785 32.9221 36.8698 32.5782 37.0835C31.2202 37.9394 29.7267 38.5582 28.1614 38.9132C27.7671 39.002 27.4151 39.2233 27.1639 39.5401C26.9127 39.857 26.7776 40.2503 26.7809 40.6547V46.4351H23.2116V40.6611C23.212 40.2575 23.0758 39.8656 22.825 39.5493C22.5743 39.233 22.2239 39.0111 21.831 38.9196C20.268 38.5575 18.7756 37.9392 17.4143 37.0898C17.0712 36.8733 16.6646 36.7804 16.2616 36.8264C15.8587 36.8724 15.4834 37.0545 15.1979 37.3427L11.1231 41.4198L8.59457 38.8898L12.6694 34.8128C12.9578 34.5273 13.14 34.1518 13.186 33.7485C13.232 33.3452 13.1389 32.9383 12.9221 32.5952C12.0666 31.2365 11.4483 29.7421 11.0934 28.176C11.0046 27.7815 10.7835 27.4292 10.4668 27.1779C10.1501 26.9266 9.75699 26.7913 9.35281 26.7947H3.58206V23.217H9.3475C9.75093 23.2174 10.1426 23.0811 10.4587 22.8303C10.7748 22.5794 10.9966 22.2288 11.0881 21.8357C11.45 20.2718 12.0679 18.7786 12.9168 17.4165C13.1332 17.0732 13.2261 16.6664 13.1801 16.2632C13.1341 15.86 12.9521 15.4846 12.6641 15.1989L8.58926 11.1218L11.1178 8.59189L15.1926 12.6689C15.4796 12.9546 15.8546 13.135 16.2568 13.1809C16.6591 13.2268 17.065 13.1355 17.4089 12.9218C18.7669 12.0659 20.2604 11.4471 21.8257 11.0921C22.22 11.0033 22.5721 10.782 22.8232 10.4652C23.0744 10.1483 23.2096 9.75496 23.2063 9.35056V3.57234H26.7756V9.34631C26.7751 9.74997 26.9114 10.1419 27.1621 10.4581C27.4128 10.7744 27.7632 10.9964 28.1561 11.0879C29.7191 11.4499 31.2115 12.0682 32.5729 12.9176C32.9159 13.1341 33.3225 13.227 33.7255 13.181C34.1285 13.1351 34.5037 12.9529 34.7892 12.6647L38.864 8.58763L41.3926 11.1176L37.3167 15.1957C37.0283 15.4812 36.846 15.8567 36.8 16.26C36.7541 16.6633 36.8472 17.0702 37.0639 17.4133C37.9194 18.772 38.5378 20.2664 38.8927 21.8325C38.9815 22.227 39.2026 22.5793 39.5192 22.8306C39.8359 23.0819 40.2291 23.2172 40.6332 23.2138H46.404L46.4104 26.7883Z" fill="#1992FB"/>
</svg>
