<svg width="40" height="40" viewBox="0 0 40 40" fill="none" xmlns="http://www.w3.org/2000/svg">
<path fill-rule="evenodd" clip-rule="evenodd" d="M18.1368 0.0514202C8.97923 0.937561 1.54113 7.98218 0.219619 17.0207C-0.0124795 18.6085 -0.0669069 19.9596 0.0865221 20.3244C0.327457 20.8968 1.09538 21.0171 1.49288 20.5447C1.66335 20.3421 1.6876 20.2202 1.73717 19.3155C1.95574 15.3327 3.14822 12.0075 5.46811 8.91181C6.20695 7.92603 7.93799 6.19473 8.92363 5.45578C11.5848 3.46091 14.4795 2.28374 17.8134 1.84075C18.222 1.78647 19.2073 1.74205 20.003 1.74205C22.7857 1.74205 25.1668 2.25817 27.6666 3.40311C29.6086 4.29254 31.3026 5.48378 32.9063 7.0876C34.079 8.26062 35.4866 10.0518 35.4866 10.3712C35.4866 10.4239 34.5722 10.4509 32.7947 10.4509H30.1029L29.8721 10.6817C29.7452 10.8087 29.625 10.9981 29.605 11.1027C29.5501 11.3896 29.7122 11.7852 29.9598 11.9687C30.1767 12.1296 30.2465 12.1325 33.966 12.1325H37.7515L38.0071 11.8769L38.2627 11.6212L38.287 8.00541C38.3033 5.5681 38.2836 4.29528 38.2265 4.10045C38.111 3.70642 37.8172 3.49008 37.398 3.49008C36.975 3.49008 36.6279 3.80168 36.5542 4.24765C36.5272 4.41173 36.5026 5.46102 36.4997 6.57945L36.4946 8.61296L36.3229 8.38412C34.2148 5.57295 31.8997 3.59356 29.0107 2.13225C27.1007 1.16617 25.159 0.542044 23.0103 0.203699C21.8386 0.0191187 19.2924 -0.0604228 18.1368 0.0514202ZM19.8466 8.70502C19.3089 8.87325 19.1957 9.05353 19.1434 9.82525L19.1037 10.4118L18.3608 10.4622C16.8079 10.5676 15.5153 11.3838 14.6943 12.7775C13.4036 14.9685 13.7341 17.7132 15.5028 19.4914C16.4192 20.4127 17.4247 20.8531 18.6118 20.8531H19.1428V24.3336V27.814H18.6875C17.5464 27.814 16.6537 27.1963 16.0106 25.9619C15.7931 25.5444 15.6671 25.3961 15.4306 25.279C15.1561 25.1431 15.0993 25.1395 14.8092 25.2399C14.577 25.3202 14.4477 25.429 14.3355 25.6387C14.1963 25.8987 14.1909 25.9641 14.2807 26.3035C14.4294 26.8648 14.9593 27.7021 15.5083 28.2431C16.3464 29.0691 17.4511 29.5346 18.5727 29.5346H19.1428V30.0896C19.1428 30.8969 19.4203 31.2814 20.003 31.2814C20.5856 31.2814 20.8632 30.8969 20.8632 30.0896V29.5346H21.4333C23.4937 29.5346 25.3016 28.0203 25.9151 25.7805C26.1307 24.9934 26.1134 23.565 25.8789 22.8084C25.5746 21.8261 25.1984 21.1931 24.5032 20.4942C23.5867 19.5729 22.5812 19.1325 21.3942 19.1325H20.8632V15.642V12.1515L21.4692 12.1876C22.5218 12.2501 23.4522 12.8894 23.9175 13.8699C24.2032 14.4717 24.37 14.6645 24.6876 14.7596C25.0843 14.8785 25.5152 14.6853 25.6952 14.3078C25.8598 13.9626 25.747 13.5111 25.313 12.7775C24.4871 11.3816 23.1975 10.5675 21.6452 10.4622L20.9023 10.4118L20.8584 9.82525C20.8343 9.50262 20.7873 9.17914 20.7541 9.10648C20.6383 8.85347 20.1138 8.62141 19.8466 8.70502ZM19.1428 15.6635V19.1554L18.5529 19.1056C16.8535 18.9619 15.681 17.5321 15.6871 15.611C15.6932 13.6816 16.9744 12.199 18.654 12.1778L19.1428 12.1716V15.6635ZM38.8102 19.2064C38.4034 19.3729 38.3499 19.5383 38.2491 20.9378C38.1966 21.6657 38.0978 22.5868 38.0296 22.9846C36.698 30.7444 30.776 36.6732 23.0137 38.0174C19.9987 38.5395 16.4822 38.204 13.6296 37.1219C11.0755 36.153 9.03397 34.8325 7.09968 32.898C5.92691 31.725 4.51931 29.9338 4.51931 29.6144C4.51931 29.5617 5.43378 29.5346 7.2112 29.5346H9.90309L10.1339 29.3038C10.2608 29.1769 10.381 28.9875 10.401 28.8829C10.4558 28.596 10.2938 28.2004 10.0462 28.0169C9.82927 27.856 9.75943 27.8531 6.03991 27.8531H2.25447L1.99883 28.1087L1.7432 28.3644L1.71895 31.9802C1.70261 34.4175 1.72232 35.6903 1.77948 35.8851C1.99469 36.6189 2.85294 36.7216 3.34967 36.073C3.44116 35.9537 3.47134 35.4775 3.5027 33.6588L3.5418 31.3934L4.06246 32.0869C8.39664 37.8605 15.7461 40.856 22.9512 39.7856C25.0621 39.4721 26.8266 38.9129 28.8787 37.9071C34.5995 35.1032 38.6321 29.6894 39.7466 23.3168C39.953 22.1367 40.0696 20.1465 39.9548 19.7635C39.8052 19.264 39.2863 19.0115 38.8102 19.2064ZM22.5706 21.1806C23.3371 21.5676 23.9065 22.3097 24.2028 23.3077C24.3424 23.7778 24.3557 24.8289 24.228 25.3032C23.8191 26.8216 22.6691 27.814 21.3185 27.814H20.8632V24.3221V20.8302L21.4692 20.8803C21.9278 20.9183 22.1958 20.9913 22.5706 21.1806Z" fill="#2EAD01"/>
</svg>
