<svg width="46" height="46" viewBox="0 0 46 46" fill="none" xmlns="http://www.w3.org/2000/svg">
<path fill-rule="evenodd" clip-rule="evenodd" d="M38.0344 0.0997405C37.0859 0.410858 36.3496 1.07678 36.0425 1.901L35.8726 2.3573L34.1776 2.40224C32.3011 2.45204 32.0926 2.50679 31.7035 3.05261L31.4942 3.34611L31.4694 7.95309L31.4445 12.5601H29.4252C27.6669 12.5601 27.4058 12.5422 27.4058 12.4216C27.4058 12.1412 27.0364 11.5707 26.7633 11.4294C26.6085 11.3493 26.1366 11.2279 25.7146 11.1595C25.2925 11.0912 24.9216 11.0042 24.8903 10.9662C24.8591 10.9282 24.7607 10.6544 24.6716 10.3577C24.5826 10.0611 24.3526 9.50211 24.1607 9.11558C23.9687 8.72904 23.8116 8.3843 23.8116 8.34952C23.8116 8.31482 24.0137 8.009 24.2607 7.67011C25.1348 6.47059 25.0753 6.00719 23.9034 4.88713C22.8822 3.91099 22.4464 3.86731 21.3964 4.63562C21.0692 4.87509 20.7564 5.09658 20.7012 5.12787C20.646 5.15906 20.3649 5.05676 20.0764 4.90053C19.7881 4.74421 19.1866 4.48981 18.7399 4.33511L17.9278 4.05383L17.8213 3.2955C17.6975 2.41357 17.5141 2.01831 17.114 1.77084C16.8687 1.61919 16.6654 1.59321 15.7247 1.59321C14.7839 1.59321 14.5806 1.61919 14.3353 1.77084C13.9352 2.01831 13.7518 2.41357 13.628 3.2955L13.5215 4.05383L12.7094 4.33511C12.2627 4.48981 11.6612 4.74421 11.3729 4.90053C11.0844 5.05676 10.8033 5.15906 10.7481 5.12787C10.6929 5.09658 10.3801 4.87509 10.0529 4.63562C9.00295 3.86731 8.56715 3.91099 7.54586 4.88713C6.37397 6.00719 6.31448 6.47059 7.18859 7.67011C7.4356 8.009 7.63769 8.31428 7.63769 8.34853C7.63769 8.38269 7.49113 8.69938 7.31196 9.0522C7.13279 9.40494 6.8945 9.98466 6.78236 10.3403L6.57857 10.987L5.91759 11.1058C4.30092 11.3964 4.10288 11.6035 4.0575 13.0512C4.00404 14.7547 4.2364 15.0762 5.7058 15.3316L6.56814 15.4816L6.83915 16.2906C6.98821 16.7356 7.22885 17.3191 7.37387 17.5876C7.51899 17.8559 7.63769 18.1117 7.63769 18.1562C7.63769 18.2006 7.45402 18.4757 7.22957 18.7676C6.33137 19.9353 6.35033 20.3393 7.35222 21.3884C8.13899 22.2123 8.37567 22.3583 8.9236 22.3583C9.32867 22.3583 9.42994 22.3068 10.3745 21.6202L10.82 21.2964L11.4977 21.6361C11.8704 21.823 12.4698 22.0703 12.8298 22.1857C13.5502 22.4168 13.504 22.3498 13.6624 23.3921C13.8494 24.6219 14.2995 24.9652 15.7247 24.9652C17.1498 24.9652 17.5999 24.6219 17.7869 23.3921C17.9453 22.3498 17.8991 22.4168 18.6195 22.1857C18.9795 22.0703 19.5789 21.823 19.9516 21.6361L20.6293 21.2964L21.0748 21.6202C22.0194 22.3068 22.1206 22.3583 22.5257 22.3583C23.0643 22.3583 23.3003 22.2165 24.0494 21.4423C25.0776 20.3796 25.1116 19.9491 24.2564 18.819C24.0117 18.4957 23.8116 18.1962 23.8116 18.1533C23.8116 18.1105 23.9303 17.8559 24.0754 17.5876C24.2205 17.3191 24.4611 16.7356 24.6102 16.2906L24.8812 15.4816L25.7255 15.3347C26.19 15.2539 26.6541 15.1428 26.757 15.0877C27.0123 14.951 27.3058 14.5212 27.3728 14.1857L27.4283 13.9085H29.4365H31.4445L31.4694 18.5225L31.4942 23.1365L31.7532 23.4761C32.1613 24.0114 32.3923 24.0663 34.2347 24.0663C35.7023 24.0663 35.8624 24.0814 35.906 24.2236C36.167 25.0751 36.793 25.8291 37.5467 26.1994C37.9866 26.4155 38.1606 26.4484 38.8624 26.4484C39.5493 26.4484 39.7474 26.4126 40.1786 26.2104C40.8248 25.9073 41.3765 25.3553 41.6795 24.7088C41.8785 24.2842 41.9174 24.0758 41.9174 23.4351C41.9174 22.7506 41.886 22.6053 41.6216 22.0681C41.1042 21.0164 40.2557 20.4686 39.0421 20.4025C38.1546 20.3541 37.5123 20.5667 36.8897 21.1149C36.4599 21.4934 35.9444 22.2806 35.9429 22.5606C35.9422 22.7044 35.8069 22.7179 34.3696 22.7179H32.7971V18.311V13.9042L34.3347 13.9288L35.8724 13.9534L36.0461 14.4195C36.4125 15.4023 37.517 16.21 38.6335 16.3112C39.8455 16.4212 41.1095 15.6891 41.6664 14.5548C41.8864 14.1064 41.9169 13.9435 41.9128 13.2343C41.9089 12.5806 41.8685 12.3438 41.702 12.0013C41.2273 11.0238 40.2466 10.3064 39.2075 10.1764C37.9088 10.0139 36.5266 10.8679 36.0203 12.1457L35.874 12.5151L34.3347 12.5398L32.7954 12.5643L32.8187 8.17998L32.8421 3.79557L34.3377 3.77094L35.8332 3.7464L36.1037 4.32459C37.238 6.74952 40.5395 6.73541 41.6807 4.30077C41.9991 3.62127 42.0176 2.48908 41.7207 1.84338C41.4524 1.2598 40.7757 0.562686 40.2077 0.284559C39.6225 -0.00174789 38.6072 -0.0881344 38.0344 0.0997405ZM39.5849 1.49253C41.272 2.25913 40.7132 4.78475 38.86 4.76875C38.3491 4.76434 37.9822 4.60281 37.6378 4.23056C37.2794 3.84322 37.1872 3.605 37.1872 3.06673C37.1872 1.7863 38.4324 0.968729 39.5849 1.49253ZM16.5564 3.94291C16.6582 4.66231 16.7446 4.98844 16.8628 5.10099C16.9534 5.18719 17.4015 5.36302 17.8586 5.49175C18.6018 5.7012 19.1593 5.9484 20.241 6.54843C20.4467 6.66242 20.6601 6.71563 20.7856 6.68417C20.899 6.65568 21.3476 6.36388 21.7823 6.03587L22.5729 5.43934L23.0125 5.87253C23.2543 6.11084 23.4522 6.34321 23.4522 6.38888C23.4522 6.43463 23.1894 6.83708 22.8681 7.2833C22.54 7.73897 22.2841 8.18825 22.2841 8.30844C22.2841 8.4261 22.4655 8.83242 22.6872 9.2114C23.0592 9.84703 23.3864 10.6891 23.6306 11.6389C23.6867 11.8576 23.8139 12.0756 23.9274 12.1483C24.0792 12.2454 25.6642 12.5601 26.0013 12.5601C26.0325 12.5601 26.058 12.8591 26.058 13.2246C26.058 13.9904 26.1572 13.9182 24.8591 14.0978C24.4189 14.1587 23.9865 14.2713 23.8894 14.3502C23.7846 14.4355 23.6412 14.7786 23.5323 15.2046C23.3296 15.9975 22.9529 16.8818 22.5503 17.5094C22.1594 18.1187 22.1946 18.3071 22.8681 19.2121C23.1894 19.6437 23.4522 20.0342 23.4522 20.0798C23.4522 20.1254 23.2532 20.3589 23.0098 20.5986L22.5675 21.0345L21.7346 20.4229C21.2173 20.0431 20.8147 19.8115 20.6719 19.8117C20.5455 19.8119 20.1186 19.9973 19.7232 20.2237C19.0174 20.628 18.4251 20.8635 17.4212 21.1391C17.1435 21.2154 16.8709 21.3324 16.8156 21.3992C16.7602 21.466 16.6431 21.9821 16.5552 22.5462L16.3954 23.5719H15.7247H15.0539L14.8941 22.5462C14.8062 21.9821 14.6891 21.466 14.6337 21.3992C14.5784 21.3324 14.3058 21.2154 14.0281 21.1391C13.0242 20.8635 12.4319 20.628 11.7261 20.2237C11.3307 19.9973 10.9038 19.8119 10.7774 19.8117C10.6346 19.8115 10.232 20.0431 9.71469 20.4229L8.88182 21.0345L8.43947 20.5986C8.19614 20.3589 7.99711 20.1254 7.99711 20.0798C7.99711 20.0342 8.25994 19.6437 8.58117 19.2121C8.95182 18.7141 9.16523 18.3413 9.16523 18.1918C9.16523 18.0623 9.04401 17.7592 8.89584 17.5183C8.47765 16.8384 8.11626 15.9842 7.91705 15.2046C7.80814 14.7786 7.66473 14.4355 7.55987 14.3502C7.46283 14.2713 7.03045 14.1587 6.59016 14.0978C5.29211 13.9182 5.39131 13.9904 5.39131 13.2246C5.39131 12.8591 5.41683 12.5601 5.44801 12.5601C5.78514 12.5601 7.3701 12.2454 7.52186 12.1483C7.63535 12.0756 7.76277 11.8573 7.81911 11.6389C8.08382 10.6124 8.33344 9.96407 8.73069 9.271C8.9697 8.85399 9.16523 8.41864 9.16523 8.30367C9.16523 8.18861 8.9024 7.72944 8.58117 7.2833C8.25994 6.83708 7.99711 6.43463 7.99711 6.38888C7.99711 6.34321 8.19407 6.11174 8.43479 5.87451L8.87257 5.44312L9.6703 6.03677C10.1092 6.36317 10.5585 6.65406 10.6691 6.68309C10.791 6.71518 11.0031 6.66215 11.2083 6.54843C12.29 5.9484 12.8475 5.7012 13.5907 5.49175C14.0478 5.36302 14.4959 5.18719 14.5865 5.10099C14.7047 4.98844 14.7911 4.66231 14.893 3.94291L15.0347 2.9416H15.7247H16.4146L16.5564 3.94291ZM14.7812 8.2412C12.7907 8.67412 11.2258 10.1836 10.7815 12.0995C10.6314 12.7465 10.6529 13.921 10.8266 14.5754C11.1655 15.8514 12.2473 17.189 13.3943 17.7499C14.6456 18.3619 16.2215 18.4779 17.387 18.0438C18.0496 17.797 18.2495 17.6156 18.2598 17.252C18.2769 16.6504 17.8415 16.447 17.1012 16.711C14.3744 17.6833 11.7114 15.5903 12.0474 12.7388C12.2865 10.7104 14.4452 9.15648 16.4321 9.58275C17.783 9.87265 18.8918 10.8809 19.2871 12.1789C19.5025 12.8866 19.4566 13.893 19.1768 14.5926C19.0449 14.9224 18.937 15.2956 18.937 15.4218C18.937 15.6877 19.3265 16.0659 19.6004 16.0659C20.2957 16.0659 20.9345 14.1602 20.749 12.6392C20.5598 11.0877 19.6459 9.66707 18.3412 8.89642C17.344 8.30736 15.7912 8.02159 14.7812 8.2412ZM39.716 11.7404C40.6486 12.2193 40.8835 13.5411 40.1837 14.373C39.161 15.5889 37.1872 14.8433 37.1872 13.241C37.1872 11.9148 38.5178 11.1252 39.716 11.7404ZM39.6776 21.912C40.6735 22.3944 40.8989 23.711 40.1347 24.5818C39.2323 25.61 37.5164 25.1608 37.2147 23.8173C36.8959 22.3978 38.3531 21.2705 39.6776 21.912ZM29.9157 26.641C29.789 26.6635 27.6505 27.7482 25.1636 29.0513L20.6421 31.4208L20.2725 31.2902C17.6427 30.3613 14.3282 30.2554 11.7021 31.0163C11.2944 31.1344 10.8804 31.304 10.7819 31.3931C10.4236 31.7176 10.6639 32.5166 11.1196 32.5159C11.2061 32.5158 11.762 32.3926 12.3551 32.2421C14.7388 31.6372 17.2287 31.7468 19.7767 32.5687L20.7287 32.8757H25.3746C29.3516 32.8757 30.0585 32.8953 30.2842 33.0121C30.9759 33.37 31.0006 34.5378 30.3257 34.9802C30.1487 35.0962 28.7149 35.3077 24.458 35.8453C17.7483 36.6927 18.2047 36.6224 18.0089 36.8387C17.796 37.0741 17.8085 37.5173 18.0344 37.7434C18.1931 37.9021 18.6073 37.9752 21.1269 38.2897C23.6964 38.6103 24.2619 38.653 25.9681 38.6554C28.1262 38.6586 29.5582 38.4886 31.4502 38.0046C33.8611 37.388 35.0449 36.8557 39.4372 34.4137C41.3337 33.3593 43.0092 32.4611 43.1603 32.4177C44.2947 32.0922 45.1447 33.6617 44.2735 34.4736C44.1637 34.5758 42.679 35.4155 40.974 36.3394C37.0095 38.4876 37.2 38.3632 37.2 38.8034C37.2 39.0763 37.2531 39.1969 37.4368 39.3414C37.567 39.4439 37.7382 39.5278 37.8171 39.5278C37.8961 39.5278 39.5308 38.6713 41.4498 37.6244C44.4465 35.9896 44.9952 35.6584 45.3368 35.2784C46.2222 34.2931 46.221 32.8951 45.3337 31.9079C44.6939 31.1959 43.7342 30.8945 42.7658 31.1012L42.446 31.1695L42.327 30.7049C42.1531 30.0261 41.4751 29.3493 40.7631 29.144C40.0332 28.9336 39.5874 29.022 38.4506 29.603C37.9276 29.8704 37.4779 30.0891 37.4512 30.0891C37.4245 30.0891 37.3776 29.9321 37.347 29.7403C37.2625 29.212 36.7782 28.5783 36.2159 28.2606C35.8122 28.0324 35.6289 27.9855 35.125 27.9814C34.5717 27.977 34.448 28.0139 33.6927 28.4082C33.2381 28.6455 32.8579 28.8275 32.8478 28.8127C32.8377 28.7978 32.7813 28.6176 32.7225 28.4122C32.373 27.1936 31.1504 26.422 29.9157 26.641ZM30.8556 28.0679C31.1969 28.23 31.4493 28.6213 31.4493 28.9884C31.4493 29.5178 31.1329 29.7912 29.4884 30.6832L27.9318 31.5273H25.719C24.3316 31.5273 23.5379 31.4957 23.5915 31.4425C23.6705 31.3639 29.833 28.1058 30.1114 27.9954C30.3347 27.9068 30.563 27.929 30.8556 28.0679ZM35.7848 29.6408C36.0908 29.9768 36.1201 30.4921 35.8526 30.8323C35.7539 30.9577 34.8555 31.4936 33.8561 32.0231L32.0389 32.9858L31.9014 32.7756C31.6305 32.3617 31.2762 32.0086 30.961 31.8388C30.7848 31.7439 30.641 31.6451 30.6413 31.6193C30.642 31.5751 31.3704 31.1769 33.9073 29.8337C35.1221 29.1905 35.3531 29.1668 35.7848 29.6408ZM40.5237 30.493C40.8756 30.6752 41.0638 30.9672 41.0638 31.3312C41.0638 31.9317 40.9149 32.0466 38.1561 33.5754C34.9433 35.3559 34.1542 35.7319 32.4624 36.2877C30.0135 37.0922 27.0489 37.504 25.0132 37.3223L24.216 37.2511L27.2261 36.8633C28.8817 36.6501 30.4182 36.4084 30.6406 36.3262C31.1826 36.1258 31.8425 35.4399 32.0467 34.8646L32.2071 34.4132L34.9903 32.9478C39.651 30.4939 39.9174 30.3587 40.0936 30.3587C40.1874 30.3587 40.3809 30.4191 40.5237 30.493ZM7.9325 32.6027C7.15723 33.0256 6.42581 33.4887 5.78218 33.9644L5.30909 34.314H2.8751H0.441099L0.220594 34.5347L0 34.7553V39.4217C0 44.0064 0.00323479 44.0921 0.18627 44.3249L0.37245 44.5617L2.81453 44.5619C5.13621 44.5622 5.65234 44.5976 13.2923 45.281C17.712 45.6765 21.6018 46 21.9362 46C22.8409 46 24.4454 45.7652 25.5712 45.4681C27.8813 44.8583 30.1408 43.8376 34.3957 41.4818C35.8779 40.6612 36.1218 40.4643 36.1218 40.088C36.1218 39.8275 35.744 39.4379 35.4915 39.4379C35.3875 39.4379 34.4657 39.8983 33.4433 40.461C29.023 42.8935 26.7025 43.8841 24.2571 44.3827C22.665 44.7074 21.8908 44.7026 17.9261 44.3436C15.9493 44.1647 12.9773 43.8969 11.3217 43.7486C9.66617 43.6002 7.66716 43.4191 6.87958 43.3461C6.09191 43.2731 4.52511 43.2133 3.39769 43.2133H1.34783V39.4379V35.6624H3.51028C4.98606 35.6624 5.73501 35.629 5.86898 35.5575C5.9769 35.4998 6.34827 35.2416 6.69421 34.9838C7.04015 34.726 7.75926 34.2623 8.29219 33.9534C9.26443 33.39 9.43479 33.2296 9.43479 32.8775C9.43479 32.6249 9.04545 32.2461 8.78738 32.2477C8.67399 32.2485 8.28932 32.4082 7.9325 32.6027Z" fill="black"/>
</svg>
