<svg width="50" height="54" viewBox="0 0 50 54" fill="none" xmlns="http://www.w3.org/2000/svg">
<path d="M35.2644 50.2108H3.73008V3.78587H19.6449V15.1435C19.6449 15.3922 19.6931 15.6385 19.7869 15.8683C19.8807 16.098 20.0182 16.3068 20.1915 16.4827C20.3648 16.6585 20.5706 16.798 20.797 16.8932C21.0234 16.9883 21.2661 17.0373 21.5112 17.0373H33.399V26.3081C33.399 26.8103 33.5956 27.292 33.9456 27.6472C34.2956 28.0023 34.7703 28.2018 35.2652 28.2018C35.7602 28.2018 36.2349 28.0023 36.5848 27.6472C36.9348 27.292 37.1314 26.8103 37.1314 26.3081V15.1435C37.1314 15.1271 37.1275 15.1116 37.1275 15.0952C37.1247 14.9997 37.1149 14.9045 37.0984 14.8104C37.0984 14.7908 37.0943 14.7695 37.0903 14.7499C37.0673 14.643 37.0352 14.5385 36.9944 14.4373C36.9823 14.4054 36.9654 14.375 36.9517 14.3448C36.9193 14.2734 36.8822 14.2042 36.841 14.1377C36.8217 14.1066 36.8023 14.0763 36.7806 14.0461C36.7333 13.979 36.6816 13.9153 36.6258 13.8553C36.6064 13.8341 36.5895 13.812 36.5693 13.7915C36.5628 13.785 36.558 13.7768 36.5508 13.7702L22.7967 0.51799C22.7249 0.449694 22.6479 0.387039 22.5667 0.330574C22.5466 0.31748 22.5256 0.306905 22.5063 0.293811C22.4346 0.247867 22.3601 0.206835 22.283 0.171032C22.2507 0.1563 22.2169 0.142386 22.1822 0.128473C22.1059 0.0988092 22.0277 0.0742336 21.9483 0.054846C21.92 0.0474804 21.8933 0.0384773 21.8675 0.0335669C21.759 0.0126496 21.649 0.00140911 21.5385 0C21.5305 0 21.5224 0 21.5135 0H1.86622C1.37126 0 0.896585 0.199504 0.546595 0.554654C0.196605 0.909803 0 1.39148 0 1.89373V52.1063C0.000213731 52.6085 0.196849 53.09 0.546792 53.4451C0.896735 53.8002 1.37133 53.9998 1.86622 54H35.2644C35.7594 54 36.2341 53.8005 36.5841 53.4453C36.9341 53.0902 37.1307 52.6085 37.1307 52.1063C37.1307 51.604 36.9341 51.1223 36.5841 50.7672C36.2341 50.412 35.7594 50.2125 35.2644 50.2125V50.2108ZM23.3766 13.2497V6.30159L30.5875 13.2497H23.3766Z" fill="#0073A8"/>
<path d="M18.2001 25.6484H8.66383C8.16887 25.6484 7.69419 25.8479 7.3442 26.2031C6.99421 26.5582 6.79761 27.0399 6.79761 27.5422C6.79761 28.0444 6.99421 28.5261 7.3442 28.8813C7.69419 29.2364 8.16887 29.436 8.66383 29.436H18.2001C18.6951 29.436 19.1697 29.2364 19.5197 28.8813C19.8697 28.5261 20.0663 28.0444 20.0663 27.5422C20.0663 27.0399 19.8697 26.5582 19.5197 26.2031C19.1697 25.8479 18.6951 25.6484 18.2001 25.6484Z" fill="#0073A8"/>
<path d="M18.2001 33.2246H8.66383C8.16887 33.2246 7.69419 33.4241 7.3442 33.7793C6.99421 34.1344 6.79761 34.6161 6.79761 35.1183C6.79761 35.6206 6.99421 36.1023 7.3442 36.4574C7.69419 36.8126 8.16887 37.0122 8.66383 37.0122H18.2001C18.6951 37.0122 19.1697 36.8126 19.5197 36.4574C19.8697 36.1023 20.0663 35.6206 20.0663 35.1183C20.0663 34.6161 19.8697 34.1344 19.5197 33.7793C19.1697 33.4241 18.6951 33.2246 18.2001 33.2246Z" fill="#0073A8"/>
<path d="M18.2001 40.7988H8.66383C8.16887 40.7988 7.69419 40.9983 7.3442 41.3535C6.99421 41.7086 6.79761 42.1903 6.79761 42.6926C6.79761 43.1948 6.99421 43.6765 7.3442 44.0316C7.69419 44.3868 8.16887 44.5864 8.66383 44.5864H18.2001C18.6951 44.5864 19.1697 44.3868 19.5197 44.0316C19.8697 43.6765 20.0663 43.1948 20.0663 42.6926C20.0663 42.1903 19.8697 41.7086 19.5197 41.3535C19.1697 40.9983 18.6951 40.7988 18.2001 40.7988Z" fill="#0073A8"/>
<path d="M24.5941 30.451C22.0726 33.5003 22.6555 38.223 25.891 40.978L34.984 48.7204C38.2195 51.4754 42.9041 51.2378 45.4257 48.1884C47.9472 45.1391 47.3664 40.4139 44.1309 37.6589L35.0378 29.9165C31.8023 27.1616 27.1177 27.3991 24.5941 30.451ZM27.8511 38.6076C25.9037 36.9494 25.4889 34.1828 26.9301 32.44C28.3713 30.6971 31.1298 30.6294 33.0772 32.2875L36.456 35.1645L31.2299 41.4846L27.8511 38.6076ZM42.1702 40.03C44.1182 41.6886 44.5299 44.4578 43.0892 46.2001C41.6485 47.9423 38.8915 48.0081 36.9441 46.35L33.5653 43.473L38.7914 37.153L42.1702 40.03Z" fill="#0073A8"/>
<path d="M18.5624 14.0312V15.0362C18.5621 15.1897 18.5319 15.3417 18.4736 15.4835C18.4153 15.6252 18.3301 15.7538 18.2227 15.8621C18.1154 15.9703 17.988 16.056 17.848 16.1143C17.708 16.1725 17.558 16.2022 17.4067 16.2016H14.3694V19.2902C14.3692 19.6011 14.2473 19.8993 14.0306 20.1192C13.8139 20.3391 13.5201 20.4627 13.2137 20.4629H12.2233C12.0714 20.4633 11.9209 20.4333 11.7805 20.3745C11.6401 20.3158 11.5125 20.2294 11.4051 20.1204C11.2977 20.0114 11.2126 19.882 11.1547 19.7395C11.0967 19.597 11.0671 19.4443 11.0675 19.2902V16.2016H8.0246C7.71934 16.2016 7.42648 16.079 7.20995 15.8607C6.99342 15.6424 6.87081 15.3459 6.8689 15.0362V14.0312C6.86889 13.7196 6.99044 13.4205 7.207 13.1996C7.42355 12.9786 7.71749 12.8536 8.0246 12.8519H11.0684V9.76655C11.0679 9.61242 11.0975 9.45972 11.1555 9.31724C11.2134 9.17476 11.2985 9.0453 11.4059 8.93632C11.5133 8.82733 11.6409 8.74095 11.7813 8.68217C11.9217 8.62338 12.0722 8.59332 12.2241 8.59375H13.2144C13.5209 8.59397 13.8147 8.71763 14.0314 8.93752C14.2481 9.1574 14.37 9.45558 14.3702 9.76655V12.8486H17.4075C17.5599 12.849 17.7107 12.88 17.8514 12.9397C17.992 12.9994 18.1196 13.0867 18.2269 13.1966C18.3342 13.3064 18.4191 13.4367 18.4766 13.5799C18.5342 13.7232 18.5633 13.8765 18.5624 14.0312Z" fill="#0073A8"/>
</svg>
