<svg width="46" height="39" viewBox="0 0 46 39" fill="none" xmlns="http://www.w3.org/2000/svg">
<path opacity="0.07" fill-rule="evenodd" clip-rule="evenodd" d="M22.8206 0.0490821C22.5187 0.15732 22.3714 0.370469 22.3714 0.699124C22.3714 1.18357 22.5715 1.27298 23.8089 1.34067C25.5283 1.43472 26.5744 1.55872 27.9608 1.83256C32.0817 2.64662 35.8224 4.44945 39.1087 7.20523L39.8087 7.79214L39.2005 8.22439C38.866 8.46206 38.5572 8.65655 38.5143 8.65655C38.4714 8.65655 38.1875 8.44542 37.8835 8.18734C34.7563 5.5335 30.7392 3.75834 26.3246 3.07949C24.7221 2.83306 20.9457 2.85653 19.3703 3.12266C17.2736 3.4768 15.2197 4.0743 13.6151 4.79685C12.7211 5.19941 12.5543 5.42701 12.7941 5.91723C12.9861 6.30964 13.2936 6.36744 13.8706 6.11944C16.4165 5.02532 18.9299 4.39034 21.3612 4.2272L22.2815 4.16537V6.26638V8.36739L21.4505 8.42081C18.2166 8.6287 14.697 10.0278 11.9757 12.1873C11.5703 12.5092 11.2059 12.7724 11.1661 12.7724C11.1263 12.7724 10.4343 12.1288 9.62826 11.342L8.1628 9.91171L8.68597 9.44399C8.97365 9.18671 9.66366 8.64604 10.2193 8.24243C11.3031 7.45534 11.4569 7.23763 11.22 6.8264C11.1496 6.70415 10.9602 6.56728 10.799 6.52218C10.5334 6.448 10.4494 6.47804 9.90238 6.84365C8.28975 7.92139 6.3065 9.71459 5.08856 11.1961C3.61807 12.985 2.1792 15.4563 1.39206 17.545C0.588127 19.6784 0.000269685 22.7704 1.49322e-07 24.8673C-8.96959e-05 25.3208 0.0403407 25.4967 0.186159 25.6773L0.372319 25.9081H3.45554C6.32852 25.9081 6.55277 25.897 6.74531 25.745C6.93506 25.5952 6.95725 25.4866 7.0188 24.4057C7.60019 14.1844 17.9465 7.2661 27.9418 10.415C28.4112 10.5629 29.298 10.9186 29.9123 11.2055C31.1017 11.7609 32.7493 12.7662 32.6365 12.8678C32.5993 12.9013 31.2243 13.8812 29.581 15.0454L26.5932 17.162L26.2067 16.8533C25.4426 16.243 24.0144 15.7529 23.0003 15.7529C21.7164 15.7529 20.3175 16.3363 19.3515 17.2746C18.0117 18.576 17.5048 20.33 17.9634 22.0776C18.1773 22.8928 18.3719 23.2725 18.957 24.0166L19.4115 24.5945H19.0618C17.6378 24.5945 16.1259 25.4138 15.345 26.6087C14.7994 27.4436 14.7345 27.8615 14.7345 30.5433C14.7345 32.9676 14.7348 32.9711 14.9424 33.1613L15.1504 33.3517H23.0129H30.8753L31.0707 33.149C31.2615 32.951 31.266 32.8903 31.266 30.5311C31.266 28.3778 31.2469 28.0554 31.0896 27.5593C30.7904 26.6158 30.0225 25.6535 29.2416 25.2436C29.0702 25.1537 28.9301 25.0555 28.9301 25.0255C28.9301 24.9953 29.5972 24.0742 30.4125 22.9784C32.0436 20.7864 32.1338 20.5869 31.6582 20.2224C31.3771 20.0068 31.1945 19.9942 30.9331 20.1728C30.8268 20.2453 30.021 21.2699 29.1424 22.4496L27.5449 24.5945H27.067H26.5891L27.0436 24.0166C27.6287 23.2725 27.8233 22.8928 28.0372 22.0776C28.3348 20.9432 28.2361 19.8476 27.7411 18.7898C27.5758 18.4367 27.4963 18.165 27.5452 18.1204C27.6443 18.0297 37.243 11.2276 37.5371 11.0397C37.6506 10.9671 36.5489 12.513 35.0888 14.475C33.3226 16.8482 32.434 18.1143 32.434 18.2573C32.434 18.5294 32.8098 18.9024 33.0838 18.9024C33.4257 18.9024 33.5985 18.7237 34.6802 17.2518C35.2484 16.4784 35.7359 15.8439 35.7634 15.8415C35.8813 15.8318 36.9627 17.5535 37.4153 18.4718C38.3534 20.375 38.8574 22.2868 38.9807 24.4096C39.0431 25.4856 39.0657 25.5954 39.2553 25.745C39.4478 25.897 39.6721 25.9081 42.545 25.9081H45.6283L45.8255 25.6673C46.0136 25.4377 46.0202 25.372 45.9671 24.257C45.8163 21.0956 44.9459 17.8542 43.5062 15.093C42.7742 13.6892 41.3733 11.6726 40.3874 10.6039L39.973 10.1546L40.7407 9.12585C41.2802 8.40286 41.5084 8.02245 41.5084 7.84617C41.5084 7.64554 41.3567 7.4542 40.7522 6.89199C36.4265 2.86905 30.779 0.477306 24.6624 0.0777179C23.1791 -0.0191359 23.0181 -0.0216755 22.8206 0.0490821ZM26.6268 4.46565C30.4458 5.09783 34.1917 6.80678 37.0974 9.24258L37.4031 9.49899L35.6263 10.7562C34.3658 11.6482 33.8155 11.9903 33.7323 11.9333C31.8919 10.6722 30.7776 10.0567 29.3197 9.49592C27.8176 8.91813 25.385 8.39568 24.1907 8.39436L23.719 8.39384V6.2796V4.16537L24.6393 4.2272C25.1454 4.26117 26.0398 4.36845 26.6268 4.46565ZM9.58864 14.5136C7.54592 16.9426 6.24164 19.8365 5.80068 22.9177C5.72341 23.4579 5.66016 24.0562 5.66016 24.2472V24.5945H3.49624H1.33222L1.39026 23.9158C1.64569 20.9274 2.27003 18.6219 3.49498 16.1439C4.40628 14.3003 5.54812 12.6134 6.75816 11.323L7.21745 10.8331L8.72029 12.296L10.2232 13.759L9.58864 14.5136ZM39.8656 12.0499C40.8301 13.2176 41.5711 14.3471 42.3217 15.7936C43.6391 18.3325 44.3646 20.8977 44.6065 23.8721L44.6653 24.5945H42.5207H40.3761L40.2668 23.5218C39.9673 20.5806 38.7836 17.5707 37.0313 15.2944L36.5796 14.7075L37.8535 12.9956C38.5542 12.0541 39.1511 11.2837 39.1801 11.2837C39.209 11.2837 39.5174 11.6285 39.8656 12.0499ZM23.7293 17.1522C24.4506 17.2845 25.1411 17.6501 25.7014 18.1962C27.6209 20.0672 27.0427 23.1199 24.5509 24.2704C23.9877 24.5304 23.8753 24.5507 23.0003 24.5507C22.1253 24.5507 22.0129 24.5304 21.4496 24.2704C18.9685 23.1248 18.3769 20.0633 20.2794 18.2141C21.2438 17.2766 22.4254 16.9129 23.7293 17.1522ZM28.1373 26.1411C28.7036 26.3962 29.3436 26.9877 29.6344 27.5247C29.8705 27.9605 29.8738 27.9916 29.9018 30.0021L29.9303 32.0381H28.7114H27.4925V31.3931C27.4925 30.8732 27.4564 30.7034 27.3063 30.5174C27.0708 30.2255 26.647 30.2077 26.3528 30.477C26.1698 30.6446 26.1449 30.7496 26.1449 31.3528V32.0381H23.0003H19.8557V31.3931C19.8557 30.6 19.6649 30.2867 19.1819 30.2867C18.6989 30.2867 18.508 30.6 18.508 31.3931V32.0381H17.2892H16.0703L16.0987 30.0021C16.1268 27.9916 16.1301 27.9605 16.3662 27.5247C16.7618 26.7941 17.542 26.1807 18.303 26.0018C18.4899 25.9578 20.6845 25.9287 23.18 25.9369C27.6237 25.9515 27.7258 25.9557 28.1373 26.1411ZM0.195234 27.5994C-0.194245 28.0036 0.0399812 28.5575 0.646257 28.6663C0.809595 28.6957 2.2057 28.7077 3.74861 28.6931C6.49913 28.6671 6.55771 28.6628 6.75088 28.4745C6.99283 28.2385 7.00856 27.8146 6.7843 27.5731C6.62626 27.4028 6.51315 27.3968 3.50558 27.3968H0.390647L0.195234 27.5994ZM39.2163 27.5731C38.992 27.8146 39.0077 28.2385 39.2497 28.4745C39.4429 28.6628 39.5014 28.6671 42.252 28.6931C43.7949 28.7077 45.191 28.6957 45.3543 28.6663C45.9682 28.5562 46.2076 27.9671 45.7928 27.5872C45.5875 27.3993 45.5441 27.3968 42.4824 27.3968C39.4874 27.3968 39.3743 27.4029 39.2163 27.5731ZM2.00732 30.4238C1.82134 30.6051 1.78738 30.7024 1.83194 30.9273C1.93446 31.4445 2.12349 31.5127 3.45679 31.5127C4.5255 31.5127 4.67195 31.494 4.88435 31.3311C5.19018 31.0967 5.2095 30.6365 4.92442 30.3776C4.74616 30.2157 4.61157 30.1991 3.48285 30.1991C2.26608 30.1991 2.23265 30.2042 2.00732 30.4238ZM41.0762 30.3776C40.7911 30.6365 40.8104 31.0967 41.1162 31.3311C41.3286 31.494 41.4751 31.5127 42.5438 31.5127C43.8771 31.5127 44.0661 31.4445 44.1686 30.9273C44.2132 30.7024 44.1792 30.6051 43.9932 30.4238C43.7679 30.2042 43.7345 30.1991 42.5177 30.1991C41.389 30.1991 41.2544 30.2157 41.0762 30.3776ZM15.1838 34.9025C14.7475 35.0589 14.7345 35.1175 14.7345 36.9421C14.7345 38.5838 14.7436 38.6743 14.9236 38.8332C15.1066 38.9946 15.37 39 23.0003 39C30.6306 39 30.894 38.9946 31.0769 38.8332C31.257 38.6743 31.266 38.5838 31.266 36.9421C31.266 35.3004 31.257 35.2098 31.0769 35.051C30.8954 34.8909 30.6736 34.8842 25.5885 34.8842H20.289L20.1173 35.0909C19.8847 35.3709 19.8996 35.7311 20.1534 35.9636L20.3614 36.1539H25.1399H29.9184V36.9421V37.7302H23.0003H16.0822V36.9421V36.1539H16.9292C17.7372 36.1539 17.7848 36.1433 17.9624 35.9232C18.2653 35.5479 18.1955 35.1765 17.7828 34.9685C17.5975 34.875 17.2293 34.8422 16.4236 34.8473C15.8158 34.851 15.2579 34.8759 15.1838 34.9025Z" fill="black"/>
</svg>
