<svg width="46" height="46" viewBox="0 0 46 46" fill="none" xmlns="http://www.w3.org/2000/svg">
<path opacity="0.07" fill-rule="evenodd" clip-rule="evenodd" d="M19.6245 0.132006C16.251 0.649221 13.0561 1.86949 10.3281 3.68253C8.49679 4.89974 7.99813 5.34877 7.99013 5.788C7.98816 5.89918 8.75192 6.73176 10.0738 8.05925C12.4827 10.4784 12.3717 10.4191 13.261 9.76381C15.1513 8.37084 17.4845 7.34208 19.7144 6.91805C21.301 6.61645 21.3727 6.58919 21.5224 6.23047C21.6302 5.97213 21.6492 5.42073 21.6277 3.16999L21.6016 0.424525L21.3494 0.207564C21.0581 -0.0431275 20.8318 -0.053022 19.6245 0.132006ZM24.6052 0.222766L24.3874 0.454928V3.37904V6.30306L24.596 6.47216C24.7107 6.56508 24.9534 6.66457 25.1352 6.69317C28.0406 7.15021 30.5235 8.15091 32.7184 9.7496C33.63 10.4135 33.505 10.4796 35.9151 8.05925C37.0629 6.90663 38.002 5.89657 38.002 5.81472C38.002 5.46832 37.7445 5.17787 36.844 4.50837C33.6553 2.13772 30.2117 0.707149 26.308 0.131466C25.0079 -0.060308 24.8636 -0.0524823 24.6052 0.222766ZM20.2087 3.41151C20.2087 4.84838 20.1816 5.31081 20.0963 5.33447C20.0346 5.35156 19.4381 5.49566 18.7708 5.65461C16.8006 6.12388 14.9728 6.91211 13.2333 8.04243L12.5037 8.51656L11.1682 7.17765C9.61427 5.61961 9.62334 5.87444 11.0873 4.89452C13.0717 3.56632 16.2427 2.24323 18.5012 1.80113C19.0202 1.69957 19.5257 1.59937 19.6245 1.5785C19.7234 1.55772 19.8952 1.53595 20.0065 1.5302L20.2087 1.51976V3.41151ZM27.0114 1.70497C29.0503 2.09401 30.9048 2.72951 32.7987 3.68829C33.9706 4.28151 35.7907 5.41992 36.0313 5.71019C36.1296 5.82875 35.9547 6.04076 34.8157 7.18268L33.4853 8.51656L32.7353 8.02732C31.0372 6.91931 29.1867 6.12352 27.2182 5.65461C26.5509 5.49566 25.9545 5.35156 25.8926 5.33447C25.8074 5.31081 25.7803 4.84838 25.7803 3.41151C25.7803 1.81939 25.801 1.51976 25.9105 1.51976C25.9821 1.51976 26.4776 1.60306 27.0114 1.70497ZM5.40282 8.05592C5.23325 8.12438 3.85193 9.99777 3.29126 10.9196C1.64241 13.6308 0.595029 16.5401 0.129707 19.7013C-0.0566735 20.9673 -0.050383 21.0978 0.209597 21.3579L0.430127 21.5787H3.2607C5.17313 21.5787 6.16362 21.5458 6.31415 21.4771C6.59228 21.3502 6.65761 21.1675 6.9042 19.8277C7.29808 17.6869 8.12727 15.706 9.46779 13.7031C10.0924 12.77 10.2327 12.5002 10.1892 12.3167C10.1571 12.1811 9.30774 11.2606 8.09105 10.0426C6.32035 8.26991 6.01148 7.99719 5.78133 8.0033C5.63521 8.00717 5.46492 8.03092 5.40282 8.05592ZM37.8979 10.0426C36.6812 11.2606 35.8319 12.1811 35.7998 12.3167C35.7563 12.5002 35.8966 12.77 36.5212 13.7031C37.874 15.7245 38.6947 17.6968 39.115 19.9372C39.2332 20.5679 39.357 21.1494 39.3899 21.2293C39.5199 21.5448 39.8422 21.5787 42.711 21.5787H45.5244L45.7622 21.3582C46.0421 21.0986 46.0486 20.9873 45.8593 19.7013C45.2816 15.7766 43.8211 12.2644 41.4544 9.10879C40.2723 7.5325 40.4525 7.4851 37.8979 10.0426ZM7.97315 13.3367C6.8749 15.031 5.87587 17.4703 5.50949 19.3524L5.35627 20.1395H3.43648C2.22492 20.1395 1.51669 20.1065 1.51669 20.0502C1.51669 20.001 1.6212 19.4242 1.74881 18.7684C2.30211 15.9269 3.62726 12.8455 5.32554 10.4514L5.78529 9.8033L7.14531 11.1595L8.50533 12.5158L7.97315 13.3367ZM41.4499 11.6392C42.848 13.8925 44.0017 17.0372 44.4282 19.7572L44.4881 20.1395H42.5604H40.6327L40.4795 19.3524C40.1116 17.4627 39.1025 15.0028 38.0165 13.3482L37.4851 12.5387L38.8385 11.1717L40.1919 9.80483L40.5977 10.3622C40.8208 10.6688 41.2043 11.2434 41.4499 11.6392ZM21.5566 10.8762C19.4548 11.1689 17.4461 11.9519 15.8861 13.0868C14.9289 13.7831 14.7269 14.0108 14.7269 14.3938C14.7269 14.7705 15.0426 15.1023 15.4009 15.1023C15.5111 15.1023 15.9733 14.8254 16.4279 14.4869C17.9587 13.3473 19.6522 12.6275 21.4361 12.3583C24.6723 11.8701 27.9749 12.9251 30.4437 15.2357C31.1327 15.8805 31.2505 15.9378 31.6209 15.8087C31.9422 15.6965 32.0709 15.4934 32.0709 15.0983C32.0709 14.866 31.9661 14.7111 31.5092 14.2682C29.8375 12.6474 27.7057 11.5222 25.417 11.0526C24.3547 10.8347 22.4727 10.7487 21.5566 10.8762ZM30.3634 17.6281L26.0948 18.5134L25.4996 18.2031C23.4107 17.1144 20.8885 17.4942 19.2123 19.15C16.7437 21.5884 17.1834 25.6094 20.127 27.5137C21.0233 28.0936 21.7472 28.2805 23.0844 28.2774C24.1278 28.2751 24.2568 28.2551 24.8988 27.9968C26.4645 27.3669 27.618 26.1696 28.1138 24.6599L28.3133 24.0524L32.2334 21.6237C36.5003 18.9802 36.5641 18.9293 36.5641 18.1684C36.5641 17.2923 35.9888 16.7139 35.1355 16.7321C34.8586 16.7379 32.7112 17.1412 30.3634 17.6281ZM12.2756 17.6372C11.9705 17.7475 11.7833 18.1011 11.4091 19.2737C11.0362 20.4426 10.9782 20.8825 11.1601 21.1605C11.446 21.5972 12.1916 21.5319 12.3791 21.0538C12.4308 20.922 12.5378 20.5562 12.6168 20.2409C12.6958 19.9255 12.8797 19.3671 13.0255 18.9999C13.3028 18.3013 13.3048 18.0108 13.0338 17.7731C12.8151 17.5811 12.5581 17.5351 12.2756 17.6372ZM34.8118 18.3358C31.9333 20.1742 28.424 22.2718 28.3758 22.1826C28.3434 22.1226 28.2887 21.9033 28.2545 21.6953C28.2202 21.4872 28.0148 20.9632 27.7979 20.5306C27.581 20.098 27.4124 19.7356 27.4231 19.7253C27.434 19.7149 28.7571 19.4381 30.3634 19.11C31.9698 18.7821 33.6278 18.4377 34.0479 18.3449C35.0313 18.1277 35.1397 18.1264 34.8118 18.3358ZM24.0729 19.168C24.6929 19.3527 25.4378 19.818 25.8685 20.2897C28.2701 22.92 26.3226 27.073 22.7852 26.8643C21.5504 26.7914 20.5564 26.2687 19.8283 25.3095C18.7147 23.8426 18.8131 21.6951 20.0557 20.3457C21.1151 19.1953 22.652 18.7447 24.0729 19.168ZM22.265 20.618C21.1567 21.0332 20.567 21.8638 20.569 23.0068C20.5706 23.9174 21.2158 24.8712 22.0833 25.2454C22.5073 25.4282 23.4816 25.4282 23.9057 25.2454C24.794 24.8623 25.4235 23.9132 25.4131 22.9729C25.4061 22.3377 25.2957 22.0009 24.9211 21.4722C24.3826 20.7122 23.1078 20.3022 22.265 20.618ZM23.4428 22.0729C23.9697 22.3456 24.1323 22.9179 23.8423 23.4792C23.395 24.3449 22.006 23.9639 22.006 22.9756C22.006 22.5515 22.1284 22.3307 22.4835 22.1139C22.8272 21.9042 23.0946 21.8927 23.4428 22.0729ZM0.209597 24.588C-0.0420255 24.8398 -0.0445417 24.866 0.0834264 25.8987C0.775659 31.4834 3.72171 36.9088 8.025 40.5238C11.451 43.4018 15.3856 45.1609 19.8941 45.8305C21.4152 46.0564 24.5023 46.0565 26.0948 45.8308C28.8973 45.4335 31.8633 44.4522 34.1526 43.1649C36.202 42.0127 37.7129 40.8615 39.3963 39.17C42.5788 35.9719 44.7183 31.9853 45.6264 27.5604C45.8009 26.71 46 25.3313 46 24.9726C46 24.8825 45.9007 24.7094 45.7794 24.588L45.5588 24.3672H42.6541C39.4027 24.3672 39.4041 24.3669 39.3001 24.977C38.7378 28.2738 37.8534 30.4489 36.1354 32.7595C31.9814 38.3464 24.6655 40.682 17.962 38.5615C15.4738 37.7743 12.6084 35.9413 10.912 34.0516C8.55718 31.4284 7.3449 28.8234 6.68888 24.977C6.58491 24.3669 6.58626 24.3672 3.33484 24.3672H0.430127L0.209597 24.588ZM5.42115 26.1437C5.88144 28.7207 7.05697 31.4063 8.69917 33.6321C9.32661 34.4827 10.8798 36.0923 11.7613 36.8054C17.7945 41.6871 26.3163 42.1132 32.7898 37.8571C34.895 36.473 36.8866 34.423 38.2052 32.2828C39.1921 30.6811 40.1082 28.3847 40.475 26.5935L40.6362 25.8064H42.5583H44.4805L44.4249 26.1437C43.6656 30.7617 41.7365 34.6738 38.631 37.8937C35.1642 41.4884 30.9844 43.6331 25.96 44.3956C24.5229 44.6137 21.4539 44.6127 20.0289 44.3936C17.2304 43.9633 14.7501 43.1318 12.4628 41.8569C7.78794 39.2512 4.13608 34.8628 2.47456 29.8542C2.10234 28.7321 1.70109 27.1073 1.56935 26.1887L1.51453 25.8064H3.43774H5.36085L5.42115 26.1437ZM18.7259 30.9653C18.2226 31.2004 17.6568 31.7765 17.4441 32.2702C17.2583 32.7022 17.2653 33.6686 17.4576 34.1063C17.6589 34.5647 18.1849 35.1317 18.6299 35.3701C18.9897 35.563 19.0586 35.566 22.9945 35.566C26.9229 35.566 26.9999 35.5626 27.353 35.3715C27.8115 35.1234 28.2223 34.6861 28.4798 34.1721C28.7268 33.6786 28.7581 32.7657 28.5448 32.2702C28.3322 31.7765 27.7664 31.2004 27.2631 30.9653C26.8145 30.7557 26.8073 30.7555 22.9945 30.7555C19.1817 30.7555 19.1745 30.7557 18.7259 30.9653ZM26.8642 32.3766C27.4197 32.7726 27.3725 33.6086 26.7713 34.0198C26.5719 34.1561 26.1839 34.1718 22.9945 34.1718C19.8051 34.1718 19.417 34.1561 19.2177 34.0198C18.6216 33.612 18.5682 32.8331 19.1065 32.3957C19.3548 32.1939 19.357 32.1938 22.9806 32.1933C26.4881 32.1929 26.6147 32.1989 26.8642 32.3766Z" fill="black"/>
</svg>
