<svg width="45" height="51" viewBox="0 0 45 51" fill="none" xmlns="http://www.w3.org/2000/svg">
<path d="M32.0848 0C32.9008 0.200092 33.7005 0.463747 34.4769 0.788642C35.7373 1.36853 36.8151 2.29349 37.5902 3.46056C38.3653 4.62763 38.8073 5.991 38.8671 7.39891C38.8671 7.59966 38.8671 7.81474 38.8671 8.02982V28.2334C38.921 28.702 38.8089 29.1748 38.5509 29.5666C38.2929 29.9583 37.906 30.2432 37.46 30.3699C37.1873 30.4551 36.8992 30.476 36.6174 30.4313C36.3356 30.3865 36.0674 30.2772 35.8331 30.1116C35.5987 29.9459 35.4043 29.7283 35.2645 29.475C35.1246 29.2217 35.043 28.9394 35.0257 28.6493C35.0257 28.4485 35.0257 28.2334 35.0257 28.0184V8.10152C35.0842 7.32475 34.9079 6.54834 34.5205 5.87671C34.1331 5.20508 33.5532 4.67044 32.8587 4.34471C32.3013 4.07073 31.6905 3.92859 31.0716 3.92888C23.2855 3.92888 15.5088 3.92888 7.74144 3.92888C7.2199 3.91078 6.70028 4.00236 6.215 4.19791C5.72972 4.39346 5.28918 4.68879 4.92084 5.06548C4.5525 5.44217 4.26426 5.89215 4.07409 6.38736C3.88393 6.88257 3.79593 7.41239 3.81556 7.94379C3.81556 19.3194 3.81556 30.6902 3.81556 42.0562C3.79527 42.5958 3.88557 43.1337 4.08069 43.6358C4.2758 44.1378 4.57145 44.5929 4.94878 44.972C5.32611 45.3511 5.77683 45.6459 6.2722 45.8376C6.76757 46.0294 7.29671 46.1137 7.82587 46.0855H18.4497C18.8103 46.0584 19.1713 46.1322 19.4937 46.299C19.8161 46.4658 20.0876 46.7192 20.279 47.0318C20.4226 47.2669 20.5147 47.5309 20.5489 47.8057C20.583 48.0804 20.5585 48.3595 20.477 48.6237C20.3955 48.8879 20.2589 49.131 20.0765 49.3364C19.8942 49.5418 19.6705 49.7046 19.4206 49.8136L19.0407 50H6.79867C6.26396 49.8566 5.71518 49.7562 5.19454 49.5698C3.64954 49.0332 2.31288 48.0081 1.37903 46.6439C0.445184 45.2797 -0.0371418 43.6474 0.00223257 41.9845V10.4388C0.00223257 9.46372 0.00223257 8.48867 0.00223257 7.57098C0.0253082 6.14685 0.441403 4.75811 1.20289 3.56372C1.96438 2.36933 3.04049 1.41755 4.30805 0.817321C5.11258 0.48282 5.94037 0.209629 6.78459 0H32.0848Z" fill="#410EAD"/>
<path d="M29.6926 49.9857C28.2024 49.666 26.8571 48.8546 25.8652 47.6771C24.2189 45.9994 22.5163 44.3791 20.8418 42.7301C20.4835 42.4367 20.2409 42.0217 20.1582 41.5609C20.0755 41.1002 20.1583 40.6245 20.3915 40.2208C20.5244 39.9779 20.7074 39.7673 20.9279 39.6035C21.1484 39.4397 21.4011 39.3267 21.6687 39.2721C21.9363 39.2176 22.2123 39.2229 22.4777 39.2877C22.743 39.3524 22.9915 39.4751 23.2058 39.6473C23.4142 39.7996 23.6075 39.9725 23.7827 40.1635L29.2705 45.5406C30.0726 46.3292 30.6776 46.2575 31.353 45.3255L40.3727 32.4204C40.5838 32.0228 40.9231 31.7115 41.3332 31.5391C41.7434 31.3667 42.1993 31.3437 42.6241 31.474C42.8978 31.5505 43.1507 31.6894 43.3639 31.8802C43.5771 32.0709 43.745 32.3086 43.8548 32.5752C43.9646 32.8418 44.0134 33.1303 43.9977 33.419C43.982 33.7077 43.902 33.9889 43.7639 34.2415C43.6603 34.4442 43.5378 34.6363 43.3981 34.815C40.429 39.1167 37.4318 43.2894 34.4628 47.548C34.0792 48.1577 33.5741 48.6784 32.9801 49.0761C32.3862 49.4738 31.7167 49.7398 31.0153 49.8566L30.8887 49.9283L29.6926 49.9857Z" fill="#410EAD"/>
<path d="M19.4492 15.6276H9.78227C9.4826 15.6433 9.18325 15.591 8.90583 15.4745C8.62842 15.3579 8.37987 15.18 8.17814 14.9537C7.93524 14.6878 7.77003 14.3581 7.70113 14.0017C7.63223 13.6454 7.66238 13.2764 7.78818 12.9366C7.91398 12.5967 8.13043 12.2994 8.41314 12.0782C8.69585 11.8569 9.03359 11.7205 9.38827 11.6844H29.271C29.6807 11.6724 30.0829 11.7977 30.416 12.0412C30.749 12.2847 30.9943 12.6329 31.1143 13.0322C31.2055 13.3147 31.2317 13.6147 31.1907 13.9091C31.1497 14.2035 31.0428 14.4843 30.8781 14.7297C30.7134 14.9752 30.4955 15.1787 30.2412 15.3244C29.9869 15.4702 29.7031 15.5543 29.4117 15.5702C28.8629 15.5702 28.3282 15.5702 27.7794 15.5702L19.4492 15.6276Z" fill="#410EAD"/>
<path d="M19.3922 19.5331H29.1718C29.6774 19.4875 30.1802 19.6484 30.5694 19.9805C30.9587 20.3126 31.2025 20.7887 31.2473 21.304C31.2921 21.8193 31.1341 22.3316 30.8082 22.7283C30.4823 23.1249 30.0151 23.3734 29.5095 23.419H9.80966C9.30308 23.4673 8.79813 23.3111 8.40341 22.984C8.00869 22.6568 7.75574 22.1849 7.69897 21.6696C7.66996 21.3885 7.70127 21.1044 7.79073 20.8368C7.88019 20.5692 8.02566 20.3247 8.21705 20.1201C8.40845 19.9155 8.6412 19.7558 8.89919 19.652C9.15718 19.5481 9.43423 19.5027 9.71116 19.5188H19.4204L19.3922 19.5331Z" fill="#410EAD"/>
<path d="M15.6226 27.3294C17.5785 27.3294 19.5344 27.3294 21.5043 27.3294C21.8498 27.3167 22.1921 27.4003 22.4943 27.5712C22.7965 27.7421 23.0473 27.9938 23.2196 28.2991C23.3919 28.6045 23.4791 28.952 23.4719 29.3041C23.4647 29.6563 23.3634 29.9997 23.1788 30.2975C23.016 30.5791 22.7834 30.8121 22.5043 30.9732C22.2252 31.1343 21.9095 31.2177 21.5888 31.2152H9.52968C9.03204 31.2115 8.55606 31.0073 8.20548 30.6474C7.85491 30.2875 7.65819 29.8009 7.6582 29.2938C7.66004 29.0377 7.71136 28.7845 7.80924 28.5486C7.90712 28.3127 8.04964 28.0988 8.22865 27.9191C8.40766 27.7393 8.61966 27.5973 8.85255 27.501C9.08544 27.4047 9.33466 27.3562 9.58597 27.3581L15.6226 27.3294Z" fill="#410EAD"/>
<path d="M33.0848 1C33.9008 1.20009 34.7005 1.46375 35.4769 1.78864C36.7373 2.36853 37.8151 3.29349 38.5902 4.46056C39.3653 5.62763 39.8073 6.991 39.8671 8.39891C39.8671 8.59966 39.8671 8.81474 39.8671 9.02982V29.2334C39.921 29.702 39.8089 30.1748 39.5509 30.5666C39.2929 30.9583 38.906 31.2432 38.46 31.3699C38.1873 31.4551 37.8992 31.476 37.6174 31.4313C37.3356 31.3865 37.0674 31.2772 36.8331 31.1116C36.5987 30.9459 36.4043 30.7283 36.2645 30.475C36.1246 30.2217 36.043 29.9394 36.0257 29.6493C36.0257 29.4485 36.0257 29.2334 36.0257 29.0184V9.10152C36.0842 8.32475 35.9079 7.54834 35.5205 6.87671C35.1331 6.20508 34.5532 5.67044 33.8587 5.34471C33.3013 5.07073 32.6905 4.92859 32.0716 4.92888C24.2855 4.92888 16.5088 4.92888 8.74144 4.92888C8.2199 4.91078 7.70028 5.00236 7.215 5.19791C6.72972 5.39346 6.28918 5.68879 5.92084 6.06548C5.5525 6.44217 5.26426 6.89215 5.07409 7.38736C4.88393 7.88257 4.79593 8.41239 4.81556 8.94379C4.81556 20.3194 4.81556 31.6902 4.81556 43.0562C4.79527 43.5958 4.88557 44.1337 5.08069 44.6358C5.2758 45.1378 5.57145 45.5929 5.94878 45.972C6.32611 46.3511 6.77683 46.6459 7.2722 46.8376C7.76757 47.0294 8.29671 47.1137 8.82587 47.0855H19.4497C19.8103 47.0584 20.1713 47.1322 20.4937 47.299C20.8161 47.4658 21.0876 47.7192 21.279 48.0318C21.4226 48.2669 21.5147 48.5309 21.5489 48.8057C21.583 49.0804 21.5585 49.3595 21.477 49.6237C21.3955 49.8879 21.2589 50.131 21.0765 50.3364C20.8942 50.5418 20.6705 50.7046 20.4206 50.8136L20.0407 51H7.79867C7.26396 50.8566 6.71518 50.7562 6.19454 50.5698C4.64954 50.0332 3.31288 49.0081 2.37903 47.6439C1.44518 46.2797 0.962858 44.6474 1.00223 42.9845V11.4388C1.00223 10.4637 1.00223 9.48867 1.00223 8.57098C1.02531 7.14685 1.4414 5.75811 2.20289 4.56372C2.96438 3.36933 4.04049 2.41755 5.30805 1.81732C6.11258 1.48282 6.94037 1.20963 7.78459 1H33.0848Z" fill="url(#paint0_linear_1501_315)"/>
<path d="M30.6926 50.9857C29.2024 50.666 27.8571 49.8546 26.8652 48.6771C25.2189 46.9994 23.5163 45.3791 21.8418 43.7301C21.4835 43.4367 21.2409 43.0217 21.1582 42.5609C21.0755 42.1002 21.1583 41.6245 21.3915 41.2208C21.5244 40.9779 21.7074 40.7673 21.9279 40.6035C22.1484 40.4397 22.4011 40.3267 22.6687 40.2721C22.9363 40.2176 23.2123 40.2229 23.4777 40.2877C23.743 40.3524 23.9915 40.4751 24.2058 40.6473C24.4142 40.7996 24.6075 40.9725 24.7827 41.1635L30.2705 46.5406C31.0726 47.3292 31.6776 47.2575 32.353 46.3255L41.3727 33.4204C41.5838 33.0228 41.9231 32.7115 42.3332 32.5391C42.7434 32.3667 43.1993 32.3437 43.6241 32.474C43.8978 32.5505 44.1507 32.6894 44.3639 32.8802C44.5771 33.0709 44.745 33.3086 44.8548 33.5752C44.9646 33.8418 45.0134 34.1303 44.9977 34.419C44.982 34.7077 44.902 34.9889 44.7639 35.2415C44.6603 35.4442 44.5378 35.6363 44.3981 35.815C41.429 40.1167 38.4318 44.2894 35.4628 48.548C35.0792 49.1577 34.5741 49.6784 33.9801 50.0761C33.3862 50.4738 32.7167 50.7398 32.0153 50.8566L31.8887 50.9283L30.6926 50.9857Z" fill="url(#paint1_linear_1501_315)"/>
<path d="M20.4492 16.6276H10.7823C10.4826 16.6433 10.1832 16.591 9.90583 16.4745C9.62842 16.3579 9.37987 16.18 9.17814 15.9537C8.93524 15.6878 8.77003 15.3581 8.70113 15.0017C8.63223 14.6454 8.66238 14.2764 8.78818 13.9366C8.91398 13.5967 9.13043 13.2994 9.41314 13.0782C9.69585 12.8569 10.0336 12.7205 10.3883 12.6844H30.271C30.6807 12.6724 31.0829 12.7977 31.416 13.0412C31.749 13.2847 31.9943 13.6329 32.1143 14.0322C32.2055 14.3147 32.2317 14.6147 32.1907 14.9091C32.1497 15.2035 32.0428 15.4843 31.8781 15.7297C31.7134 15.9752 31.4955 16.1787 31.2412 16.3244C30.9869 16.4702 30.7031 16.5543 30.4117 16.5702C29.8629 16.5702 29.3282 16.5702 28.7794 16.5702L20.4492 16.6276Z" fill="url(#paint2_linear_1501_315)"/>
<path d="M20.3922 20.5331H30.1718C30.6774 20.4875 31.1802 20.6484 31.5694 20.9805C31.9587 21.3126 32.2025 21.7887 32.2473 22.304C32.2921 22.8193 32.1341 23.3316 31.8082 23.7283C31.4823 24.1249 31.0151 24.3734 30.5095 24.419H10.8097C10.3031 24.4673 9.79813 24.3111 9.40341 23.984C9.00869 23.6568 8.75574 23.1849 8.69897 22.6696C8.66996 22.3885 8.70127 22.1044 8.79073 21.8368C8.88019 21.5692 9.02566 21.3247 9.21705 21.1201C9.40845 20.9155 9.6412 20.7558 9.89919 20.652C10.1572 20.5481 10.4342 20.5027 10.7112 20.5188H20.4204L20.3922 20.5331Z" fill="url(#paint3_linear_1501_315)"/>
<path d="M16.6226 28.3294C18.5785 28.3294 20.5344 28.3294 22.5043 28.3294C22.8498 28.3167 23.1921 28.4003 23.4943 28.5712C23.7965 28.7421 24.0473 28.9938 24.2196 29.2991C24.3919 29.6045 24.4791 29.952 24.4719 30.3041C24.4647 30.6563 24.3634 30.9997 24.1788 31.2975C24.016 31.5791 23.7834 31.8121 23.5043 31.9732C23.2252 32.1343 22.9095 32.2177 22.5888 32.2152H10.5297C10.032 32.2115 9.55606 32.0073 9.20548 31.6474C8.85491 31.2875 8.65819 30.8009 8.6582 30.2938C8.66004 30.0377 8.71136 29.7845 8.80924 29.5486C8.90712 29.3127 9.04964 29.0988 9.22865 28.9191C9.40766 28.7393 9.61966 28.5973 9.85255 28.501C10.0854 28.4047 10.3347 28.3562 10.586 28.3581L16.6226 28.3294Z" fill="url(#paint4_linear_1501_315)"/>
<defs>
<linearGradient id="paint0_linear_1501_315" x1="3.20911" y1="2.5" x2="34.6081" y2="45.968" gradientUnits="userSpaceOnUse">
<stop stop-color="white" stop-opacity="0.66"/>
<stop offset="1" stop-color="#CECECE" stop-opacity="0"/>
</linearGradient>
<linearGradient id="paint1_linear_1501_315" x1="22.4834" y1="32.9485" x2="31.5172" y2="53.5969" gradientUnits="userSpaceOnUse">
<stop stop-color="white" stop-opacity="0.66"/>
<stop offset="1" stop-color="#CECECE" stop-opacity="0"/>
</linearGradient>
<linearGradient id="paint2_linear_1501_315" x1="10.0028" y1="12.802" x2="10.4901" y2="17.9776" gradientUnits="userSpaceOnUse">
<stop stop-color="white" stop-opacity="0.66"/>
<stop offset="1" stop-color="#CECECE" stop-opacity="0"/>
</linearGradient>
<linearGradient id="paint3_linear_1501_315" x1="10.0275" y1="20.633" x2="10.5059" y2="25.7639" gradientUnits="userSpaceOnUse">
<stop stop-color="white" stop-opacity="0.66"/>
<stop offset="1" stop-color="#CECECE" stop-opacity="0"/>
</linearGradient>
<linearGradient id="paint4_linear_1501_315" x1="9.55673" y1="28.4447" x2="10.2535" y2="33.4912" gradientUnits="userSpaceOnUse">
<stop stop-color="white" stop-opacity="0.66"/>
<stop offset="1" stop-color="#CECECE" stop-opacity="0"/>
</linearGradient>
</defs>
</svg>
