<svg width="90" height="116" viewBox="0 0 90 116" fill="none" xmlns="http://www.w3.org/2000/svg">
<g filter="url(#filter0_d_808_83)">
<path d="M45 4L77.8369 19.8134L85.947 55.3459L63.2231 83.8407H26.7769L4.05303 55.3459L12.1631 19.8134L45 4Z" fill="white"/>
</g>
<path d="M18.3426 112V101.091H22.231C23.0798 101.091 23.7829 101.245 24.3404 101.554C24.8979 101.863 25.3152 102.286 25.5922 102.822C25.8692 103.355 26.0077 103.955 26.0077 104.623C26.0077 105.294 25.8674 105.897 25.5869 106.434C25.3099 106.966 24.8908 107.389 24.3298 107.701C23.7722 108.01 23.0709 108.165 22.2257 108.165H19.5517V106.769H22.0766C22.6128 106.769 23.0478 106.677 23.3816 106.492C23.7154 106.304 23.9604 106.048 24.1167 105.725C24.2729 105.402 24.3511 105.034 24.3511 104.623C24.3511 104.211 24.2729 103.845 24.1167 103.525C23.9604 103.206 23.7136 102.955 23.3763 102.774C23.0425 102.593 22.6021 102.502 22.0553 102.502H19.9885V112H18.3426ZM29.4021 107.142V112H27.8094V101.091H29.3808V105.15H29.482C29.6738 104.71 29.9668 104.36 30.3609 104.1C30.7551 103.841 31.27 103.712 31.9057 103.712C32.4668 103.712 32.9568 103.827 33.3758 104.058C33.7984 104.289 34.1251 104.633 34.356 105.091C34.5903 105.546 34.7075 106.114 34.7075 106.796V112H33.1148V106.988C33.1148 106.387 32.9604 105.922 32.6514 105.592C32.3425 105.258 31.9128 105.091 31.3623 105.091C30.9859 105.091 30.6486 105.171 30.3503 105.331C30.0555 105.491 29.8229 105.725 29.6525 106.034C29.4856 106.339 29.4021 106.709 29.4021 107.142ZM39.2139 112.181C38.6954 112.181 38.2267 112.085 37.8077 111.893C37.3886 111.698 37.0566 111.416 36.8116 111.047C36.5701 110.677 36.4494 110.224 36.4494 109.688C36.4494 109.227 36.5381 108.847 36.7157 108.548C36.8932 108.25 37.1329 108.014 37.4348 107.84C37.7366 107.666 38.074 107.534 38.4469 107.446C38.8197 107.357 39.1997 107.289 39.5868 107.243C40.0768 107.186 40.4746 107.14 40.78 107.105C41.0854 107.066 41.3073 107.004 41.4458 106.918C41.5843 106.833 41.6535 106.695 41.6535 106.503V106.466C41.6535 106 41.5222 105.64 41.2594 105.384C41.0001 105.129 40.6131 105.001 40.0981 105.001C39.5619 105.001 39.1393 105.12 38.8304 105.358C38.525 105.592 38.3137 105.853 38.1965 106.141L36.6997 105.8C36.8773 105.303 37.1365 104.901 37.4774 104.596C37.8219 104.287 38.2178 104.063 38.6653 103.925C39.1127 103.783 39.5832 103.712 40.0768 103.712C40.4035 103.712 40.7498 103.751 41.1155 103.829C41.4849 103.903 41.8293 104.042 42.1489 104.244C42.4721 104.447 42.7366 104.736 42.9426 105.113C43.1486 105.485 43.2516 105.97 43.2516 106.567V112H41.6962V110.881H41.6322C41.5293 111.087 41.3748 111.29 41.1688 111.489C40.9628 111.687 40.6983 111.853 40.3751 111.984C40.052 112.115 39.6649 112.181 39.2139 112.181ZM39.5601 110.903C40.0005 110.903 40.3769 110.816 40.6894 110.642C41.0055 110.468 41.2452 110.24 41.4085 109.96C41.5754 109.676 41.6589 109.372 41.6589 109.049V107.994C41.6021 108.051 41.492 108.104 41.3286 108.154C41.1688 108.2 40.9859 108.241 40.78 108.277C40.574 108.309 40.3734 108.339 40.178 108.367C39.9827 108.392 39.8194 108.413 39.688 108.431C39.379 108.47 39.0967 108.536 38.841 108.628C38.5889 108.721 38.3865 108.854 38.2338 109.028C38.0847 109.198 38.0101 109.425 38.0101 109.71C38.0101 110.104 38.1557 110.402 38.4469 110.604C38.7381 110.803 39.1092 110.903 39.5601 110.903ZM45.3729 112V103.818H46.9123V105.118H46.9976C47.1467 104.678 47.4095 104.331 47.7859 104.079C48.1659 103.824 48.5956 103.696 49.075 103.696C49.1744 103.696 49.2916 103.699 49.4265 103.706C49.565 103.713 49.6733 103.722 49.7515 103.733V105.256C49.6875 105.239 49.5739 105.219 49.4106 105.198C49.2472 105.173 49.0839 105.161 48.9205 105.161C48.5441 105.161 48.2085 105.24 47.9138 105.4C47.6226 105.556 47.3917 105.775 47.2213 106.055C47.0508 106.332 46.9656 106.648 46.9656 107.004V112H45.3729ZM51.1297 112V103.818H52.6585V105.15H52.7597C52.9302 104.699 53.2089 104.347 53.596 104.095C53.9831 103.839 54.4465 103.712 54.9863 103.712C55.5332 103.712 55.9913 103.839 56.3606 104.095C56.7334 104.351 57.0087 104.702 57.1862 105.15H57.2714C57.4668 104.713 57.7775 104.365 58.2036 104.106C58.6297 103.843 59.1376 103.712 59.7271 103.712C60.4692 103.712 61.0747 103.944 61.5435 104.409C62.0158 104.875 62.2519 105.576 62.2519 106.513V112H60.6592V106.663C60.6592 106.109 60.5083 105.707 60.2065 105.459C59.9046 105.21 59.5442 105.086 59.1251 105.086C58.6067 105.086 58.2036 105.246 57.916 105.565C57.6283 105.881 57.4845 106.288 57.4845 106.785V112H55.8972V106.561C55.8972 106.118 55.7587 105.761 55.4817 105.491C55.2047 105.221 54.8442 105.086 54.4003 105.086C54.0985 105.086 53.8197 105.166 53.5641 105.326C53.3119 105.482 53.1077 105.7 52.9515 105.981C52.7988 106.261 52.7224 106.586 52.7224 106.956V112H51.1297ZM66.7676 112.181C66.2492 112.181 65.7804 112.085 65.3614 111.893C64.9423 111.698 64.6103 111.416 64.3653 111.047C64.1238 110.677 64.0031 110.224 64.0031 109.688C64.0031 109.227 64.0918 108.847 64.2694 108.548C64.447 108.25 64.6867 108.014 64.9885 107.84C65.2903 107.666 65.6277 107.534 66.0006 107.446C66.3734 107.357 66.7534 107.289 67.1405 107.243C67.6305 107.186 68.0283 107.14 68.3337 107.105C68.6391 107.066 68.861 107.004 68.9995 106.918C69.138 106.833 69.2073 106.695 69.2073 106.503V106.466C69.2073 106 69.0759 105.64 68.8131 105.384C68.5538 105.129 68.1668 105.001 67.6519 105.001C67.1156 105.001 66.693 105.12 66.3841 105.358C66.0787 105.592 65.8674 105.853 65.7502 106.141L64.2534 105.8C64.431 105.303 64.6902 104.901 65.0311 104.596C65.3756 104.287 65.7715 104.063 66.219 103.925C66.6664 103.783 67.1369 103.712 67.6305 103.712C67.9573 103.712 68.3035 103.751 68.6693 103.829C69.0386 103.903 69.383 104.042 69.7026 104.244C70.0258 104.447 70.2903 104.736 70.4963 105.113C70.7023 105.485 70.8053 105.97 70.8053 106.567V112H69.2499V110.881H69.1859C69.083 111.087 68.9285 111.29 68.7225 111.489C68.5166 111.687 68.252 111.853 67.9288 111.984C67.6057 112.115 67.2186 112.181 66.7676 112.181ZM67.1139 110.903C67.5542 110.903 67.9306 110.816 68.2431 110.642C68.5592 110.468 68.7989 110.24 68.9622 109.96C69.1291 109.676 69.2126 109.372 69.2126 109.049V107.994C69.1558 108.051 69.0457 108.104 68.8823 108.154C68.7225 108.2 68.5396 108.241 68.3337 108.277C68.1277 108.309 67.9271 108.339 67.7318 108.367C67.5364 108.392 67.3731 108.413 67.2417 108.431C66.9328 108.47 66.6504 108.536 66.3948 108.628C66.1426 108.721 65.9402 108.854 65.7875 109.028C65.6384 109.198 65.5638 109.425 65.5638 109.71C65.5638 110.104 65.7094 110.402 66.0006 110.604C66.2918 110.803 66.6629 110.903 67.1139 110.903Z" fill="black"/>
<path fill-rule="evenodd" clip-rule="evenodd" d="M43.1233 21.0471C39.4948 21.3945 36.7367 22.1658 33.7225 23.6761C29.7555 25.6637 26.0772 29.0359 23.658 32.903C21.9114 35.6948 20.6372 39.3045 20.1227 42.9178C19.9591 44.0669 19.9591 47.9241 20.1227 49.0732C20.5325 51.9511 21.2938 54.4721 22.4833 56.8896C23.8291 59.6247 25.1473 61.4623 27.3236 63.6366C29.4761 65.787 31.3441 67.1298 33.9792 68.4213C35.8179 69.3224 37.0051 69.761 38.8691 70.2281C43.7603 71.4539 48.6659 71.2188 53.4447 69.5299C54.8933 69.018 57.4219 67.7518 58.7219 66.8876C62.2913 64.5147 65.2412 61.2382 67.1943 57.4771C68.9614 54.074 69.8456 50.6976 69.9836 46.826C70.132 42.659 69.2743 38.6931 67.4186 34.9653C66.2001 32.5175 64.8435 30.5991 62.9388 28.63C60.8267 26.4463 58.755 24.9397 55.9836 23.5716C53.0867 22.1417 50.3876 21.3785 47.1818 21.0825C46.1855 20.9906 43.9204 20.9707 43.1233 21.0471ZM46.9862 24.0129C52.8917 24.5537 58.5269 27.5796 62.1978 32.181C66.5708 37.6625 68.1129 44.8436 66.3603 51.5647C65.3512 55.4341 63.0509 59.3174 60.1682 62.0179C52.0696 69.6046 39.8298 70.1043 31.1618 63.2019C26.5498 59.5295 23.5194 53.8997 22.978 47.9984C22.3258 40.89 25.2576 33.7421 30.703 29.1642C35.2441 25.3465 41.1491 23.4783 46.9862 24.0129ZM39.8822 30.085C39.6863 30.1985 39.4332 30.4562 39.3198 30.6579C39.1183 31.0162 39.1136 31.1273 39.1136 35.5788V40.1332H34.5548C30.0928 40.1332 29.9883 40.1376 29.6276 40.3401C29.4249 40.454 29.1659 40.7127 29.052 40.9152C28.849 41.2761 28.8449 41.377 28.8449 45.9955C28.8449 50.614 28.849 50.7149 29.052 51.0758C29.1659 51.2783 29.4249 51.537 29.6276 51.6508C29.9883 51.8534 30.0928 51.8578 34.5548 51.8578H39.1136V56.4122C39.1136 60.8701 39.118 60.9744 39.3207 61.3348C39.4346 61.5373 39.6936 61.796 39.8963 61.9098C40.2574 62.1126 40.3597 62.1168 44.9194 62.1168C50.2259 62.1168 50.1764 62.1231 50.6075 61.3881L50.8492 60.976V56.4169V51.8578H55.4007C59.7333 51.8578 59.9703 51.8485 60.3291 51.6656C60.5874 51.534 60.771 51.3397 60.9121 51.0486C61.1126 50.6347 61.118 50.5018 61.118 45.9535C61.118 41.2963 61.1174 41.2823 60.8987 40.8936C60.464 40.1209 60.5527 40.1332 55.4007 40.1332H50.8492V35.5788C50.8492 31.0415 50.8485 31.0229 50.63 30.6346C50.5013 30.4059 50.2605 30.1683 50.0471 30.0595C49.7047 29.885 49.4073 29.8743 44.9609 29.8764C40.3348 29.8786 40.231 29.8829 39.8822 30.085ZM47.9153 37.3525C47.9153 41.717 47.9232 41.9151 48.1122 42.2852C48.2389 42.5335 48.4467 42.741 48.6952 42.8677C49.0656 43.0564 49.2639 43.0643 53.6325 43.0643H58.184V45.9955V48.9266H53.6325C49.2639 48.9266 49.0656 48.9345 48.6952 49.1233C48.4467 49.2499 48.2389 49.4575 48.1122 49.7057C47.9232 50.0758 47.9153 50.274 47.9153 54.6385V59.1856H44.9814H42.0475V54.6385C42.0475 50.274 42.0396 50.0758 41.8506 49.7057C41.7239 49.4575 41.5162 49.2499 41.2677 49.1233C40.8972 48.9345 40.6989 48.9266 36.3303 48.9266H31.7788V45.9955V43.0643H36.3303C40.6989 43.0643 40.8972 43.0564 41.2677 42.8677C41.5162 42.741 41.7239 42.5335 41.8506 42.2852C42.0396 41.9151 42.0475 41.717 42.0475 37.3525V32.8053H44.9814H47.9153V37.3525Z" fill="#FFE55A"/>
<defs>
<filter id="filter0_d_808_83" x="0.0546875" y="0" width="89.8906" height="87.8408" filterUnits="userSpaceOnUse" color-interpolation-filters="sRGB">
<feFlood flood-opacity="0" result="BackgroundImageFix"/>
<feColorMatrix in="SourceAlpha" type="matrix" values="0 0 0 0 0 0 0 0 0 0 0 0 0 0 0 0 0 0 127 0" result="hardAlpha"/>
<feOffset/>
<feGaussianBlur stdDeviation="2"/>
<feComposite in2="hardAlpha" operator="out"/>
<feColorMatrix type="matrix" values="0 0 0 0 0 0 0 0 0 0 0 0 0 0 0 0 0 0 0.25 0"/>
<feBlend mode="normal" in2="BackgroundImageFix" result="effect1_dropShadow_808_83"/>
<feBlend mode="normal" in="SourceGraphic" in2="effect1_dropShadow_808_83" result="shape"/>
</filter>
</defs>
</svg>
