<svg width="110" height="76" viewBox="0 0 110 76" fill="none" xmlns="http://www.w3.org/2000/svg">
<path d="M22.3606 29.4163C25.8068 29.4163 28.0279 30.0223 29.1435 31.3337C30.259 32.6451 30.5578 34.7711 29.9502 37.7912C29.3427 40.8113 28.1275 43.2453 26.4044 44.5567C24.6813 45.8681 21.9522 46.5436 18.3068 46.5436H12.8487L16.1853 29.3766L22.3606 29.4163ZM0.597656 63.9491H9.50204L11.6236 53.021H19.3228C22.1296 53.0832 24.9289 52.7078 27.6196 51.9083C29.8418 51.1683 31.8795 49.9624 33.5957 48.3716C35.038 47.0545 36.2676 45.5231 37.2411 43.8315C38.1731 42.1222 38.8445 40.284 39.2331 38.3773C40.1395 33.5292 39.4323 29.6945 37.1116 27.0717C34.7909 24.449 30.9363 23.0283 25.7769 23.0283H8.59566L0.597656 63.9491Z" fill="white"/>
<path d="M45.8177 12.0508H54.7819L52.6604 22.9789H60.5588C65.5389 22.9789 68.9652 23.8829 70.8875 25.6016C72.8098 27.3203 73.3177 30.1418 72.6106 33.9865L68.8257 53.0411H59.8616L63.3576 34.97C63.766 32.9831 63.6564 31.5326 62.9492 30.7279C62.242 29.9232 60.758 29.6152 58.497 29.6152H51.4154L46.8138 53.0411H37.9492L45.8177 12.0508Z" fill="white"/>
<path d="M92.2122 29.4163C95.6584 29.4163 97.8795 30.0223 98.995 31.3337C100.111 32.6451 100.409 34.7711 99.8018 37.7912C99.1942 40.8113 97.9791 43.2453 96.256 44.5567C94.5329 45.8681 91.8038 46.5436 88.1584 46.5436H82.6703L86.007 29.3766L92.2122 29.4163ZM70.4492 63.9491H79.3536L81.4751 53.021H89.1644C91.9712 53.0832 94.7705 52.7078 97.4612 51.9083C99.6834 51.1683 101.721 49.9624 103.437 48.3716C104.88 47.0545 106.109 45.5231 107.083 43.8315C108.015 42.1222 108.686 40.284 109.075 38.3773C109.981 33.5292 109.274 29.6945 106.953 27.0717C104.632 24.449 100.778 23.0283 95.6185 23.0283H78.4472L70.4791 63.9193L70.4492 63.9491Z" fill="white"/>
</svg>
