<svg width="46" height="46" viewBox="0 0 46 46" fill="none" xmlns="http://www.w3.org/2000/svg">
<path fill-rule="evenodd" clip-rule="evenodd" d="M5.4009 0.138688C4.20867 0.565224 3.55607 1.56134 3.55607 2.95476V3.55916L2.76833 3.59874C1.82251 3.64625 1.30602 3.85047 0.76523 4.39091C0.557177 4.59882 0.29988 4.95716 0.193468 5.18721L0 5.60547V20.9449V36.2844L0.193468 36.7026C0.440772 37.2373 1.02703 37.8232 1.56206 38.0703L1.98059 38.2636L13.4249 38.2875L24.8693 38.3113L25.0726 38.8723C26.3807 42.4811 29.4862 45.1217 33.31 45.8764C34.2292 46.0579 36.3643 46.0357 37.3162 45.8348C40.1892 45.2285 42.644 43.5891 44.199 41.238C45.0462 39.9571 45.5149 38.8376 45.8397 37.319C46.0548 36.313 46.0531 34.0662 45.8366 33.1051C45.1467 30.0429 43.3674 27.5395 40.7822 25.9933L40.152 25.6164L40.107 15.6109C40.062 5.61015 40.0619 5.60529 39.8685 5.18721C39.6212 4.65253 39.035 4.06666 38.5 3.81952C38.1284 3.64796 37.8929 3.62286 36.4041 3.59686L34.7267 3.56744L34.6875 2.78715C34.6403 1.84924 34.4346 1.3313 33.8952 0.792212C33.3426 0.239992 32.8238 0.0311773 32.0046 0.0311773C31.1854 0.0311773 30.6666 0.239992 30.114 0.792212C29.5732 1.33265 29.3689 1.84879 29.3213 2.79399L29.2817 3.5812H25.5677H21.8536L21.814 2.79399C21.7665 1.84879 21.5621 1.33265 21.0213 0.792212C20.4687 0.239992 19.95 0.0311773 19.1307 0.0311773C18.3115 0.0311773 17.7928 0.239992 17.2402 0.792212C16.6994 1.33265 16.495 1.84879 16.4475 2.79399L16.4079 3.5812H12.6938H8.97974L8.94013 2.79399C8.8926 1.84879 8.68824 1.33265 8.14744 0.792212C7.43173 0.0769707 6.31566 -0.188613 5.4009 0.138688ZM6.85574 2.09242L7.16642 2.4029L7.13932 4.51965L7.11213 6.63631L6.86456 6.88354C6.51895 7.22866 5.99463 7.22866 5.64919 6.88345L5.40162 6.63604V4.48825C5.40162 2.46722 5.41224 2.32876 5.58167 2.14055C5.98446 1.69315 6.439 1.67596 6.85574 2.09242ZM19.692 2.04438L19.986 2.3069V4.47143V6.63604L19.7384 6.88345C19.5509 7.07086 19.4035 7.13087 19.1307 7.13087C18.858 7.13087 18.7106 7.07086 18.5231 6.88345L18.2755 6.63604V4.48825C18.2755 2.46722 18.2861 2.32876 18.4555 2.14055C18.8381 1.71564 19.2849 1.68091 19.692 2.04438ZM32.5658 2.04438L32.8599 2.3069V4.47143V6.63604L32.6123 6.88345C32.4248 7.07086 32.2774 7.13087 32.0046 7.13087C31.7318 7.13087 31.5844 7.07086 31.3969 6.88345L31.1493 6.63604V4.48825C31.1493 2.46722 31.16 2.32876 31.3294 2.14055C31.7119 1.71564 32.1587 1.68091 32.5658 2.04438ZM3.57362 6.16776C3.62116 7.11296 3.82552 7.6291 4.36631 8.16954C4.9189 8.72176 5.43763 8.93057 6.25688 8.93057C7.07612 8.93057 7.59486 8.72176 8.14744 8.16954C8.68824 7.6291 8.8926 7.11296 8.94013 6.16776L8.97974 5.38055H12.6938H16.4079L16.4475 6.16776C16.495 7.11296 16.6994 7.6291 17.2402 8.16954C17.7928 8.72176 18.3115 8.93057 19.1307 8.93057C19.95 8.93057 20.4687 8.72176 21.0213 8.16954C21.5621 7.6291 21.7665 7.11296 21.814 6.16776L21.8536 5.38055H25.5677H29.2817L29.3213 6.16776C29.3689 7.11296 29.5732 7.6291 30.114 8.16954C30.6666 8.72176 31.1854 8.93057 32.0046 8.93057C32.8238 8.93057 33.3426 8.72176 33.8952 8.16954C34.437 7.62802 34.6403 7.11341 34.6881 6.16201L34.728 5.36894L36.2453 5.39728L37.7627 5.42553L38.0121 5.67483L38.2615 5.92413L38.2879 8.48631L38.3144 11.0485H20.031H1.7476L1.77407 8.49369C1.79901 6.0858 1.81089 5.92746 1.98059 5.73907C2.2288 5.46359 2.43856 5.39287 3.02743 5.38622L3.53401 5.38055L3.57362 6.16776ZM38.3065 18.8612V24.8744L37.5188 24.6948C36.4323 24.4472 34.2592 24.4311 33.1749 24.6626C28.7943 25.5983 25.5778 28.8134 24.6531 33.1805C24.5415 33.708 24.4906 34.3431 24.4892 35.2283L24.4873 36.5113L13.3936 36.4879L2.29974 36.4643L2.05018 36.2148L1.80054 35.9654L1.77704 24.4066L1.75355 12.8478H20.03H38.3065V18.8612ZM5.94178 16.8015C5.36867 17.0359 5.21634 17.7866 5.65316 18.2234L5.90064 18.4708L9.04456 18.4966L12.1884 18.5224L12.484 18.2584C12.7295 18.0392 12.7798 17.9301 12.7798 17.6161C12.7798 17.303 12.7294 17.1929 12.4877 16.9772L12.1958 16.7164L9.15881 16.7221C7.48845 16.7253 6.04081 16.761 5.94178 16.8015ZM17.005 16.8046C16.7216 16.919 16.4299 17.336 16.4299 17.6268C16.4299 17.7829 16.5326 17.9981 16.6925 18.177L16.9551 18.4708L20.1084 18.4966L23.2617 18.5224L23.5574 18.2584C23.8029 18.0392 23.8531 17.9301 23.8531 17.6161C23.8531 17.303 23.8027 17.1929 23.5611 16.9772L23.2691 16.7164L20.2321 16.7221C18.5618 16.7253 17.1096 16.7624 17.005 16.8046ZM28.0783 16.8046C27.7949 16.919 27.5033 17.336 27.5033 17.6268C27.5033 17.7829 27.606 17.9981 27.7659 18.177L28.0285 18.4708L31.0465 18.4967L34.0647 18.5226L34.3605 18.2585C34.6061 18.0392 34.6563 17.9302 34.6563 17.6161C34.6563 17.303 34.6059 17.1929 34.3643 16.9772L34.0723 16.7164L31.1704 16.7221C29.5743 16.7253 28.183 16.7624 28.0783 16.8046ZM5.94178 22.1995C5.36867 22.434 5.21634 23.1846 5.65316 23.6214L5.90064 23.8689L9.04456 23.8947L12.1884 23.9204L12.484 23.6564C12.7295 23.4373 12.7798 23.3281 12.7798 23.0142C12.7798 22.7011 12.7294 22.591 12.4877 22.3752L12.1958 22.1145L9.15881 22.1202C7.48845 22.1233 6.04081 22.159 5.94178 22.1995ZM17.005 22.2027C16.7216 22.3171 16.4299 22.7341 16.4299 23.0249C16.4299 23.181 16.5326 23.3962 16.6925 23.575L16.9551 23.8689L20.1084 23.8947L23.2617 23.9204L23.5574 23.6564C23.8029 23.4373 23.8531 23.3281 23.8531 23.0142C23.8531 22.7011 23.8027 22.591 23.5611 22.3752L23.2691 22.1145L20.2321 22.1202C18.5618 22.1233 17.1096 22.1605 17.005 22.2027ZM37.4062 26.5199C38.4485 26.7752 39.9839 27.5459 40.8947 28.271C42.5436 29.5839 43.7374 31.6259 44.1124 33.7751C44.9525 38.5889 41.6134 43.2582 36.7212 44.1107C31.9029 44.9504 27.2321 41.6146 26.3787 36.7244C25.5432 31.9361 28.8238 27.3136 33.7166 26.385C34.6401 26.2096 36.4025 26.2741 37.4062 26.5199ZM5.94178 27.5975C5.36867 27.832 5.21634 28.5827 5.65316 29.0195L5.90064 29.2669L9.04456 29.2927L12.1884 29.3184L12.484 29.0545C12.7295 28.8353 12.7798 28.7262 12.7798 28.4122C12.7798 28.0991 12.7294 27.989 12.4877 27.7733L12.1958 27.5125L9.15881 27.5182C7.48845 27.5213 6.04081 27.5571 5.94178 27.5975ZM17.005 27.6007C16.7216 27.7151 16.4299 28.1321 16.4299 28.4229C16.4299 28.579 16.5326 28.7942 16.6925 28.9731L16.9551 29.2669L20.1084 29.2927L23.2617 29.3184L23.5574 29.0545C23.8029 28.8353 23.8531 28.7262 23.8531 28.4122C23.8531 28.0991 23.8027 27.989 23.5611 27.7733L23.2691 27.5125L20.2321 27.5182C18.5618 27.5213 17.1096 27.5585 17.005 27.6007ZM34.9204 29.0402C34.8159 29.0824 34.6437 29.227 34.5378 29.3615C34.3501 29.6 34.3453 29.6787 34.3453 32.5614V35.5167L34.6079 35.8106L34.8705 36.1044L37.8886 36.1303L40.9067 36.1562L41.2026 35.8921C41.4482 35.6728 41.4984 35.5638 41.4984 35.2497C41.4984 34.9366 41.448 34.8265 41.2063 34.6108L40.9144 34.3501H38.5343H36.1541L36.1275 31.9135L36.1008 29.4768L35.8068 29.2144C35.5091 28.9487 35.2656 28.9008 34.9204 29.0402ZM5.94178 32.9956C5.36867 33.23 5.21634 33.9808 5.65325 34.4175L5.90073 34.6649L9.94555 34.6901L13.9904 34.7152L14.2853 34.4519C14.53 34.2334 14.5803 34.1241 14.5803 33.8102C14.5803 33.4972 14.5299 33.387 14.2883 33.1713L13.9963 32.9106L10.0591 32.9162C7.89357 32.9194 6.04081 32.9551 5.94178 32.9956ZM17.005 32.9987C16.7216 33.1132 16.4299 33.5302 16.4299 33.821C16.4299 34.1811 16.8437 34.6133 17.2503 34.6778C17.5245 34.7213 17.6231 34.687 17.8785 34.459C18.1313 34.2332 18.1814 34.1261 18.1814 33.8102C18.1814 33.4972 18.131 33.387 17.8894 33.1713C17.5936 32.9072 17.3497 32.8596 17.005 32.9987Z" fill="#FF8855"/>
</svg>
