<svg width="41" height="52" viewBox="0 0 41 52" fill="none" xmlns="http://www.w3.org/2000/svg">
<path d="M1 4.08566V47.9124C1.00077 48.7311 1.32998 49.516 1.91536 50.0948C2.50075 50.6737 3.29449 50.9992 4.12234 51H36.8767C37.7046 50.9992 38.4985 50.6737 39.084 50.0949C39.6695 49.516 39.999 48.7312 40 47.9124V4.08566C39.9987 3.26735 39.6693 2.48295 39.0839 1.90449C38.4986 1.32604 37.7052 1.00076 36.8777 1H4.12234C3.29482 1.00076 2.50139 1.32604 1.91606 1.90449C1.33073 2.48295 1.00129 3.26735 1 4.08566ZM3.02251 4.08566C3.02303 3.79755 3.13913 3.52141 3.34534 3.31787C3.55154 3.11432 3.83099 3 4.12234 3H36.8767C37.168 3 37.4475 3.11432 37.6537 3.31787C37.8599 3.52141 37.976 3.79755 37.9765 4.08566V47.9124C37.976 48.2007 37.86 48.477 37.6538 48.6809C37.4477 48.8848 37.1682 48.9995 36.8767 49H4.12234C3.83081 48.9995 3.55136 48.8848 3.34522 48.6809C3.13907 48.477 3.02303 48.2007 3.02251 47.9124V4.08566Z" fill="#1992FB" stroke="#1992FB"/>
<path d="M13.5044 8.8086H27.4907C27.7589 8.8086 28.0161 8.70324 28.2057 8.51571C28.3954 8.32817 28.5019 8.07381 28.5019 7.8086C28.5019 7.54338 28.3954 7.28903 28.2057 7.10149C28.0161 6.91396 27.7589 6.80859 27.4907 6.80859H13.5044C13.2362 6.80859 12.979 6.91396 12.7894 7.10149C12.5997 7.28903 12.4932 7.54338 12.4932 7.8086C12.4932 8.07381 12.5997 8.32817 12.7894 8.51571C12.979 8.70324 13.2362 8.8086 13.5044 8.8086Z" fill="#1992FB" stroke="#1992FB"/>
<path d="M7.66653 14.0762H33.3392C33.6074 14.0762 33.8646 13.9708 34.0542 13.7833C34.2439 13.5957 34.3504 13.3414 34.3504 13.0762C34.3504 12.8109 34.2439 12.5566 34.0542 12.3691C33.8646 12.1815 33.6074 12.0762 33.3392 12.0762H7.66653C7.39833 12.0762 7.14112 12.1815 6.95147 12.3691C6.76182 12.5566 6.65527 12.8109 6.65527 13.0762C6.65527 13.3414 6.76182 13.5957 6.95147 13.7833C7.14112 13.9708 7.39833 14.0762 7.66653 14.0762Z" fill="#1992FB" stroke="#1992FB"/>
<path d="M7.66653 19.0019H33.3392C33.6074 19.0019 33.8646 18.8966 34.0542 18.7091C34.2439 18.5215 34.3504 18.2672 34.3504 18.0019C34.3504 17.7367 34.2439 17.4824 34.0542 17.2948C33.8646 17.1073 33.6074 17.002 33.3392 17.002H7.66653C7.39833 17.002 7.14112 17.1073 6.95147 17.2948C6.76182 17.4824 6.65527 17.7367 6.65527 18.0019C6.65527 18.2672 6.76182 18.5215 6.95147 18.7091C7.14112 18.8966 7.39833 19.0019 7.66653 19.0019Z" fill="#1992FB" stroke="#1992FB"/>
<path d="M7.66653 23.916H33.3392C33.6074 23.916 33.8646 23.8107 34.0542 23.6231C34.2439 23.4356 34.3504 23.1812 34.3504 22.916C34.3504 22.6508 34.2439 22.3965 34.0542 22.2089C33.8646 22.0214 33.6074 21.916 33.3392 21.916H7.66653C7.39833 21.916 7.14112 22.0214 6.95147 22.2089C6.76182 22.3965 6.65527 22.6508 6.65527 22.916C6.65527 23.1812 6.76182 23.4356 6.95147 23.6231C7.14112 23.8107 7.39833 23.916 7.66653 23.916Z" fill="#1992FB" stroke="#1992FB"/>
<path d="M13.4661 32.2207H9.60208C9.46924 32.2206 9.33768 32.2464 9.21493 32.2966C9.09218 32.3468 8.98065 32.4204 8.88672 32.5133C8.79279 32.6062 8.7183 32.7165 8.66753 32.8379C8.61675 32.9593 8.59069 33.0893 8.59082 33.2207V44.1764C8.59069 44.3078 8.61675 44.4379 8.66753 44.5593C8.7183 44.6806 8.79279 44.7909 8.88672 44.8838C8.98065 44.9767 9.09218 45.0504 9.21493 45.1006C9.33768 45.1508 9.46924 45.1766 9.60208 45.1764H13.4661C13.5989 45.1766 13.7304 45.1508 13.8532 45.1006C13.9759 45.0504 14.0875 44.9767 14.1814 44.8838C14.2753 44.7909 14.3498 44.6806 14.4006 44.5593C14.4514 44.4379 14.4775 44.3078 14.4773 44.1764V33.2217C14.4776 33.0902 14.4516 32.96 14.4009 32.8385C14.3502 32.7171 14.2757 32.6066 14.1818 32.5137C14.0878 32.4207 13.9762 32.3469 13.8534 32.2967C13.7306 32.2464 13.599 32.2206 13.4661 32.2207ZM12.4548 43.1764H10.6162V34.2255H12.4548V43.1764Z" fill="#1992FB" stroke="#1992FB"/>
<path d="M22.4329 28.0488H18.5718C18.439 28.0487 18.3074 28.0745 18.1847 28.1247C18.0619 28.1749 17.9504 28.2486 17.8564 28.3415C17.7625 28.4343 17.688 28.5446 17.6373 28.666C17.5865 28.7874 17.5604 28.9175 17.5605 29.0488V44.1778C17.5604 44.3092 17.5865 44.4393 17.6373 44.5607C17.688 44.682 17.7625 44.7923 17.8564 44.8852C17.9504 44.9781 18.0619 45.0517 18.1847 45.102C18.3074 45.1522 18.439 45.1779 18.5718 45.1778H22.4329C22.5657 45.1779 22.6972 45.1522 22.82 45.102C22.9427 45.0517 23.0543 44.9781 23.1482 44.8852C23.2421 44.7923 23.3166 44.682 23.3674 44.5607C23.4182 44.4393 23.4442 44.3092 23.4441 44.1778V29.0488C23.4442 28.9175 23.4182 28.7874 23.3674 28.666C23.3166 28.5446 23.2421 28.4343 23.1482 28.3415C23.0543 28.2486 22.9427 28.1749 22.82 28.1247C22.6972 28.0745 22.5657 28.0487 22.4329 28.0488ZM21.4216 43.1778H19.5821V30.0479H21.4216V43.1778Z" fill="#1992FB" stroke="#1992FB"/>
<path d="M31.4026 32.2207H27.5406C27.4077 32.2206 27.2762 32.2464 27.1534 32.2966C27.0307 32.3468 26.9191 32.4204 26.8252 32.5133C26.7313 32.6062 26.6568 32.7165 26.606 32.8379C26.5552 32.9593 26.5292 33.0893 26.5293 33.2207V44.1764C26.5292 44.3078 26.5552 44.4379 26.606 44.5593C26.6568 44.6806 26.7313 44.7909 26.8252 44.8838C26.9191 44.9767 27.0307 45.0504 27.1534 45.1006C27.2762 45.1508 27.4077 45.1766 27.5406 45.1764H31.4016C31.5345 45.1766 31.666 45.1508 31.7887 45.1006C31.9115 45.0504 32.023 44.9767 32.117 44.8838C32.2109 44.7909 32.2854 44.6806 32.3362 44.5593C32.3869 44.4379 32.413 44.3078 32.4129 44.1764V33.2217C32.4131 33.0903 32.3872 32.9602 32.3365 32.8388C32.2859 32.7173 32.2115 32.607 32.1176 32.514C32.0238 32.421 31.9124 32.3473 31.7897 32.2969C31.667 32.2466 31.5354 32.2207 31.4026 32.2207ZM30.3913 43.1764H28.5528V34.2255H30.3913V43.1764Z" fill="#1992FB" stroke="#1992FB"/>
</svg>
