<svg width="31" height="40" viewBox="0 0 31 40" fill="none" xmlns="http://www.w3.org/2000/svg">
<path d="M15.5814 0C12.6775 0.00336614 9.89358 1.16242 7.8403 3.2229C5.78702 5.28338 4.6321 8.07697 4.62891 10.9909V13.5399C4.62891 13.9346 4.78519 14.3132 5.06339 14.5924C5.34158 14.8716 5.7189 15.0283 6.11233 15.0283H25.0287C25.42 15.0285 25.7955 14.8735 26.0734 14.5971C26.3513 14.3206 26.509 13.9452 26.5122 13.5526L26.5345 11.0012C26.5359 9.55704 26.2536 8.12677 25.7037 6.79214C25.1539 5.45752 24.3474 4.24466 23.3303 3.22298C22.3131 2.20129 21.1052 1.39081 19.7758 0.83779C18.4463 0.284767 17.0212 7.89389e-05 15.582 0H15.5814ZM23.5586 12.0513H7.59334V10.9909C7.59278 8.86546 8.43365 6.8269 9.93096 5.32362C11.4283 3.82035 13.4594 2.97552 15.5775 2.97496C17.6956 2.9744 19.7271 3.81819 21.2252 5.32067C22.7233 6.82315 23.5653 8.86124 23.5658 10.9866L23.5586 12.0513Z" fill="#0092FF"/>
<path d="M25.0541 16.7428H6.11234C5.71891 16.7428 5.34159 16.8996 5.0634 17.1787C4.7852 17.4579 4.62891 17.8365 4.62891 18.2313V31.0014C4.62891 31.3962 4.7852 31.7749 5.0634 32.054C5.34159 32.3332 5.71891 32.49 6.11234 32.49H8.6169V38.4811C8.61292 38.6791 8.64834 38.8758 8.72109 39.0599C8.79384 39.2439 8.90245 39.4116 9.04056 39.553C9.17868 39.6944 9.34352 39.8068 9.52544 39.8835C9.70737 39.9602 9.9027 39.9997 10.1 39.9997C10.2974 39.9997 10.4927 39.9602 10.6746 39.8835C10.8565 39.8068 11.0214 39.6944 11.1595 39.553C11.2976 39.4116 11.4062 39.2439 11.479 39.0599C11.5517 38.8758 11.5871 38.6791 11.5832 38.4811V32.49H19.4179V38.4811C19.4139 38.6791 19.4494 38.8758 19.5221 39.0599C19.5949 39.2439 19.7035 39.4116 19.8416 39.553C19.9797 39.6944 20.1445 39.8068 20.3265 39.8835C20.5084 39.9602 20.7037 39.9997 20.901 39.9997C21.0984 39.9997 21.2937 39.9602 21.4756 39.8835C21.6576 39.8068 21.8224 39.6944 21.9605 39.553C22.0986 39.4116 22.2072 39.2439 22.28 39.0599C22.3527 38.8758 22.3882 38.6791 22.3842 38.4811V32.49H24.6775C25.0709 32.49 25.4481 32.3332 25.7262 32.0541C26.0044 31.775 26.1606 31.3965 26.1606 31.0018C26.1606 30.6071 26.0044 30.2285 25.7262 29.9494C25.4481 29.6703 25.0709 29.5135 24.6775 29.5135H7.59516V19.7192H23.5707V27.2637C23.5785 27.6532 23.7382 28.0241 24.0155 28.2968C24.2928 28.5695 24.6656 28.7222 25.0538 28.7222C25.442 28.7222 25.8148 28.5695 26.0921 28.2968C26.3694 28.0241 26.5291 27.6532 26.5369 27.2637V18.2307C26.5369 17.836 26.3806 17.4573 26.1024 17.1781C25.8242 16.899 25.4469 16.7422 25.0535 16.7422L25.0541 16.7428Z" fill="#0092FF"/>
<path d="M29.5166 16.4199C29.3218 16.4198 29.1289 16.4582 28.9489 16.533C28.7688 16.6078 28.6053 16.7175 28.4675 16.8557C28.3298 16.9939 28.2205 17.1581 28.146 17.3387C28.0714 17.5194 28.0331 17.713 28.0332 17.9085V26.7101C28.041 27.0996 28.2007 27.4705 28.478 27.7432C28.7553 28.0159 29.1281 28.1687 29.5163 28.1687C29.9046 28.1687 30.2774 28.0159 30.5546 27.7432C30.8319 27.4705 30.9916 27.0996 30.9995 26.7101V17.9085C30.9995 17.5138 30.8433 17.1352 30.5652 16.8561C30.2871 16.5769 29.91 16.4201 29.5166 16.4199Z" fill="#0092FF"/>
<path d="M1.48343 16.4199C1.2886 16.4198 1.09567 16.4582 0.915653 16.533C0.735639 16.6078 0.572081 16.7175 0.434316 16.8557C0.296551 16.9939 0.187283 17.1581 0.112762 17.3387C0.0382411 17.5194 -7.91887e-05 17.713 1.22861e-07 17.9085V26.7101C0.00783074 27.0996 0.167527 27.4705 0.444814 27.7432C0.722102 28.0159 1.09488 28.1687 1.48313 28.1687C1.87138 28.1687 2.24416 28.0159 2.52144 27.7432C2.79873 27.4705 2.95843 27.0996 2.96626 26.7101V17.9085C2.96634 17.713 2.92803 17.5195 2.85355 17.3389C2.77907 17.1583 2.66986 16.9942 2.53216 16.8559C2.39446 16.7177 2.23096 16.6081 2.05102 16.5332C1.87107 16.4584 1.67821 16.4199 1.48343 16.4199Z" fill="#0092FF"/>
<path d="M18.6492 8.27951C18.371 8.55955 18.2142 8.93842 18.2129 9.33383C18.2146 9.43078 18.2245 9.52744 18.2425 9.62272C18.2622 9.71735 18.2905 9.81 18.327 9.8995C18.3646 9.98968 18.4101 10.0764 18.4627 10.1587C18.5735 10.3202 18.7128 10.46 18.8737 10.5711C18.9547 10.6231 19.0397 10.6687 19.1278 10.7073C19.2192 10.7412 19.3125 10.7695 19.4072 10.7921C19.5022 10.8099 19.5985 10.8198 19.6951 10.8218C20.0889 10.8189 20.466 10.6615 20.7458 10.3833C20.8142 10.3153 20.8749 10.24 20.9269 10.1587C20.9828 10.0783 21.0284 9.99127 21.0627 9.8995C21.101 9.81089 21.1293 9.71823 21.1472 9.62332C21.1672 9.52835 21.1771 9.43156 21.1767 9.33449C21.177 8.9396 21.0216 8.56057 20.7446 8.2801C20.46 8.01348 20.0851 7.86523 19.6957 7.86523C19.3063 7.86523 18.9315 8.01348 18.6468 8.2801L18.6492 8.27951Z" fill="#0092FF"/>
<path d="M12.3276 8.09604C12.2475 8.04139 12.1624 7.99439 12.0736 7.95558C11.9826 7.92057 11.8892 7.89223 11.7941 7.87079C11.6025 7.83213 11.4052 7.83213 11.2136 7.87079C11.12 7.89282 11.0281 7.92115 10.9384 7.95558C10.849 7.99343 10.7639 8.04047 10.6843 8.09604C10.6011 8.14719 10.5243 8.20822 10.4556 8.27775C10.1785 8.55822 10.0232 8.93717 10.0234 9.33207C10.023 9.42914 10.0329 9.526 10.053 9.62096C10.0708 9.71609 10.0992 9.80886 10.1375 9.89766C10.1718 9.98942 10.2174 10.0765 10.2733 10.1568C10.3266 10.2372 10.3872 10.3124 10.4543 10.3816C10.7341 10.6597 11.1112 10.8171 11.5051 10.82C11.8978 10.8179 12.2739 10.6603 12.5516 10.3816C12.6205 10.3126 12.6829 10.2373 12.738 10.1568C12.7907 10.0746 12.8362 9.98786 12.8738 9.89766C12.9122 9.80906 12.9405 9.71648 12.9583 9.62155C12.9784 9.5266 12.9883 9.42973 12.9879 9.33266C12.9882 9.1367 12.9498 8.94263 12.8749 8.76166C12.8 8.58069 12.6901 8.41642 12.5516 8.27834C12.4834 8.20987 12.4082 8.14893 12.327 8.09663L12.3276 8.09604Z" fill="#0092FF"/>
</svg>
