<svg width="40" height="36" viewBox="0 0 40 36" fill="none" xmlns="http://www.w3.org/2000/svg">
<path d="M8.35333 28.894C7.9452 28.894 7.55365 28.734 7.26506 28.4492C6.97647 28.1645 6.81445 27.7782 6.81445 27.3755V15.8971C6.82435 15.5009 6.99088 15.1243 7.27831 14.8476C7.56573 14.5709 7.95131 14.416 8.35287 14.416C8.75443 14.416 9.14001 14.5709 9.42743 14.8476C9.71486 15.1243 9.88139 15.5009 9.89129 15.8971V27.3755C9.89141 27.5749 9.85159 27.7723 9.77435 27.9565C9.69712 28.1407 9.58396 28.3081 9.44114 28.4492C9.29832 28.5902 9.12876 28.702 8.94211 28.7784C8.75546 28.8547 8.55537 28.894 8.35333 28.894Z" fill="#FC7754"/>
<path d="M8.35249 13.2172C8.25198 13.2158 8.15173 13.2056 8.05307 13.1867C7.95383 13.1669 7.85667 13.1379 7.76302 13.0999C7.67153 13.0607 7.58333 13.0144 7.49923 12.9615C7.41578 12.905 7.33778 12.841 7.26628 12.7704C7.19333 12.7011 7.12859 12.624 7.07283 12.5405C7.0173 12.4587 6.97015 12.3714 6.93238 12.2802C6.89309 12.1881 6.86363 12.0922 6.84445 11.9941C6.8235 11.897 6.81348 11.7979 6.81453 11.6987C6.81376 11.5982 6.82378 11.498 6.84445 11.3996C6.86296 11.3028 6.89245 11.2084 6.93238 11.1181C6.97011 11.0254 7.01725 10.9366 7.07283 10.8532C7.18595 10.6881 7.33072 10.5467 7.49923 10.4369C7.58226 10.3808 7.67059 10.3329 7.76302 10.2938C7.85736 10.2578 7.95435 10.2288 8.05307 10.207C8.25037 10.168 8.4537 10.168 8.65099 10.207C8.74971 10.2287 8.84648 10.2578 8.94081 10.2938C9.03332 10.3328 9.12167 10.3807 9.2046 10.4369C9.28889 10.4898 9.36703 10.5517 9.43756 10.6215C9.51047 10.6908 9.57544 10.7679 9.63123 10.8513C9.6868 10.9348 9.73395 11.0236 9.77169 11.1162C9.8115 11.2066 9.84098 11.301 9.85962 11.3978C9.88049 11.4961 9.8908 11.5964 9.89045 11.6969C9.89119 11.7961 9.88087 11.8952 9.85962 11.9922C9.84044 12.0904 9.81097 12.1863 9.77169 12.2784C9.73375 12.3695 9.68661 12.4567 9.63123 12.5387C9.57535 12.622 9.51039 12.6991 9.43756 12.7686C9.36583 12.8393 9.28753 12.9033 9.20369 12.9596C9.11965 13.0127 9.03145 13.059 8.9399 13.0981C8.84625 13.1361 8.74909 13.1651 8.64985 13.1849C8.55149 13.2037 8.45177 13.2139 8.35157 13.2153L8.35249 13.2172Z" fill="#FC7754"/>
<path d="M17.2924 28.8947H16.8863C15.5043 28.893 14.1794 28.3505 13.2022 27.3861C12.225 26.4216 11.6753 25.1142 11.6738 23.7504V12.5877C11.6753 11.2239 12.225 9.91644 13.2022 8.95204C14.1794 7.98763 15.5043 7.44507 16.8863 7.44336H17.2924C18.6744 7.44507 19.9993 7.98763 20.9765 8.95204C21.9537 9.91644 22.5034 11.2239 22.5049 12.5877V23.7495C22.5034 25.1132 21.9537 26.4207 20.9765 27.3851C19.9993 28.3495 18.6744 28.8921 17.2924 28.8938V28.8947ZM16.8863 10.4812C16.32 10.4819 15.7771 10.7043 15.3767 11.0996C14.9763 11.4948 14.7512 12.0306 14.7507 12.5895V23.7514C14.7509 24.3103 14.976 24.8462 15.3764 25.2415C15.7769 25.6369 16.3199 25.8592 16.8863 25.8597H17.2924C17.8587 25.8589 18.4016 25.6365 18.802 25.2413C19.2024 24.846 19.4275 24.3102 19.428 23.7514V12.5877C19.4275 12.0288 19.2024 11.493 18.802 11.0977C18.4016 10.7025 17.8587 10.4801 17.2924 10.4794L16.8863 10.4812Z" fill="#FC7754"/>
<path d="M29.5979 28.6563H25.8309C25.4295 28.6465 25.0477 28.4823 24.7673 28.1987C24.4869 27.9151 24.3299 27.5346 24.3299 27.1383C24.3299 26.7421 24.4869 26.3615 24.7673 26.0779C25.0477 25.7943 25.4295 25.6301 25.8309 25.6203H29.597C29.7285 25.624 29.856 25.5762 29.9517 25.4873C30.0474 25.3983 30.1035 25.2755 30.1077 25.1458V20.3459C30.104 20.2158 30.0482 20.0924 29.9524 20.0029C29.8566 19.9135 29.7289 19.8652 29.597 19.8686H27.8777C26.9299 19.8716 26.0195 19.5032 25.3467 18.8445C24.6739 18.1858 24.2935 17.2906 24.2891 16.3554V11.1031C24.2935 10.1679 24.6739 9.27263 25.3467 8.61393C26.0195 7.95523 26.9299 7.58692 27.8777 7.58986H31.6438C32.0453 7.59963 32.427 7.76384 32.7074 8.04746C32.9878 8.33107 33.1448 8.71162 33.1448 9.10786C33.1448 9.5041 32.9878 9.88462 32.7074 10.1682C32.427 10.4519 32.0453 10.6161 31.6438 10.6259H27.8777C27.8124 10.624 27.7472 10.6349 27.6861 10.6579C27.625 10.6809 27.5692 10.7155 27.5217 10.7598C27.4741 10.8042 27.4358 10.8573 27.4091 10.9162C27.3824 10.9751 27.3677 11.0386 27.3659 11.1031V16.3619C27.3677 16.4263 27.3824 16.4899 27.4091 16.5488C27.4358 16.6077 27.4741 16.6608 27.5217 16.7051C27.5692 16.7494 27.625 16.7841 27.6861 16.8071C27.7472 16.83 27.8124 16.8409 27.8777 16.8391H29.5943C30.5419 16.8364 31.4517 17.2048 32.1243 17.8635C32.797 18.5222 33.1773 19.4173 33.1818 20.3523V25.1523C33.1749 26.0851 32.7941 26.9773 32.1225 27.6339C31.451 28.2905 30.5433 28.658 29.5979 28.6563Z" fill="#FC7754"/>
<path d="M34.8044 36H5.19559C3.81808 35.9985 2.49739 35.4579 1.52334 34.4968C0.549297 33.5357 0.00148572 32.2325 0 30.8732V5.12676C0.00148572 3.7675 0.549297 2.46435 1.52334 1.50321C2.49739 0.542073 3.81808 0.00146603 5.19559 0H34.8044C36.1819 0.00146603 37.5026 0.542073 38.4767 1.50321C39.4507 2.46435 39.9985 3.7675 40 5.12676V30.8732C39.9985 32.2325 39.4507 33.5357 38.4767 34.4968C37.5026 35.4579 36.1819 35.9985 34.8044 36ZM5.19559 3.036C4.63378 3.03649 4.09508 3.25694 3.69782 3.64893C3.30057 4.04092 3.07733 4.5724 3.07684 5.12676V30.8732C3.07733 31.4276 3.30057 31.9591 3.69782 32.3511C4.09508 32.7431 4.63378 32.9635 5.19559 32.964H34.8044C35.3662 32.9635 35.9047 32.7431 36.302 32.3511C36.6992 31.9591 36.9227 31.4276 36.9232 30.8732V5.12676C36.9227 4.5724 36.6992 4.04092 36.302 3.64893C35.9047 3.25694 35.3662 3.03649 34.8044 3.036H5.19559Z" fill="#FC7754"/>
</svg>
