<svg width="41" height="40" viewBox="0 0 41 40" fill="none" xmlns="http://www.w3.org/2000/svg">
<path d="M41 9.99869H39.2974V2.85278C39.2974 1.93405 39.0195 1.66144 38.0835 1.66144H2.9295C1.98485 1.66144 1.70254 1.93191 1.70254 2.8399V27.1712C1.70254 28.0534 1.99353 28.3346 2.90561 28.3346H18.7736V29.9832H15.4076V34.9804H18.7692V36.644H12.8364V38.3097H18.7888V39.9647H9.41827V38.344H11.11V36.9101C11.11 36.5731 11.11 36.234 11.11 35.8948C11.1317 35.3217 11.4509 35.0169 12.0416 34.9954C12.3087 34.9954 12.5758 34.9954 12.8429 34.9954H13.6355V29.9961H2.87955C1.03586 29.9961 0 28.9893 0 27.2055V3.09749C0 1.24715 0.434322 0.637529 2.17161 0H38.837C39.0824 0.0901556 39.3365 0.160993 39.571 0.270467C40.368 0.643969 40.7741 1.31155 41 2.11007V9.99869Z" fill="#C305D3"/>
<path d="M40.9998 37.8853C40.7826 38.6623 40.4026 39.3514 39.6099 39.6884C39.2116 39.8675 38.7813 39.9667 38.3439 39.9803C33.2869 40.0018 28.2293 40.0054 23.1709 39.9911C21.5747 39.9911 20.502 38.9178 20.502 37.3422C20.502 29.6747 20.502 22.0072 20.502 14.3396C20.502 12.7405 21.5487 11.6715 23.1882 11.6672C28.2336 11.65 33.2782 11.65 38.3222 11.6672C39.6751 11.6672 40.535 12.3498 40.9281 13.6163C40.9465 13.6636 40.9697 13.7089 40.9976 13.7515L40.9998 37.8853ZM39.2972 25.8323V14.5607C39.2972 13.6012 39.041 13.3479 38.0746 13.3479H23.4315C23.2865 13.3449 23.1416 13.3492 22.9971 13.3608C22.8178 13.3667 22.6461 13.4342 22.5117 13.5518C22.3773 13.6693 22.2887 13.8295 22.261 14.0048C22.2284 14.1832 22.2131 14.3644 22.2153 14.5457C22.2153 22.0673 22.2153 29.5888 22.2153 37.1104C22.2143 37.2917 22.2295 37.4727 22.261 37.6513C22.28 37.8156 22.3547 37.9687 22.473 38.0856C22.5913 38.2026 22.7462 38.2765 22.9124 38.2953C23.0955 38.3246 23.2807 38.339 23.4662 38.3382H38.0355C39.0366 38.3382 39.2994 38.0849 39.2994 37.1168L39.2972 25.8323Z" fill="#C305D3"/>
<path d="M6.00508 5.86433V24.1509H18.7655V25.8145C18.6265 25.8145 18.4853 25.8338 18.3442 25.8338H5.4535C4.55445 25.8338 4.26562 25.5483 4.26562 24.6575V5.32984C4.26562 4.44331 4.55445 4.16211 5.46652 4.16211H35.5324C36.4445 4.16211 36.7355 4.44331 36.7355 5.32555C36.7355 6.74371 36.7355 8.16259 36.7355 9.58218C36.7355 9.70883 36.7247 9.83547 36.716 9.98144H35.0221V5.86433H6.00508Z" fill="#C305D3"/>
<path d="M11.9221 7.54664V9.15871C11.186 9.15871 10.4715 9.17374 9.75054 9.15871C9.44652 9.15871 9.35965 9.24672 9.36834 9.53651C9.38788 10.2234 9.36834 10.9103 9.36834 11.6316H7.69403C7.68023 11.5405 7.67153 11.4488 7.66797 11.3568C7.66797 10.408 7.66797 9.45708 7.66797 8.5083C7.66797 7.8257 7.99805 7.50801 8.69948 7.50586C9.73968 7.50586 10.7777 7.50586 11.8179 7.50586C11.8635 7.50586 11.8852 7.52518 11.9221 7.54664Z" fill="#C305D3"/>
<path d="M23.9492 35.8128V34.1836H37.5478V35.8128H23.9492Z" fill="#C305D3"/>
<path d="M23.9414 17.4691V15.8613H37.5465V17.4691H23.9414Z" fill="#C305D3"/>
<path d="M23.9335 23.3114C23.9335 22.1673 23.9205 21.064 23.9335 19.9606C23.9292 19.8645 23.9442 19.7684 23.9778 19.678C24.0114 19.5877 24.0628 19.5048 24.1291 19.4343C24.1954 19.3637 24.2752 19.307 24.3639 19.2672C24.4526 19.2275 24.5485 19.2056 24.6458 19.2029C25.1475 19.1535 25.6556 19.1664 26.1659 19.1621C26.8283 19.1621 27.4906 19.1621 28.1703 19.1621V20.8257H25.6426V23.3136L23.9335 23.3114Z" fill="#C305D3"/>
</svg>
