<svg width="18" height="18" viewBox="0 0 18 18" fill="none" xmlns="http://www.w3.org/2000/svg">
<path d="M1.60577 4.73094L9 0.46188L16.3942 4.73094V13.2691L9 17.5381L1.60577 13.2691V4.73094Z" stroke="#410EAD" stroke-width="0.8"/>
<path d="M9.04521 12.9992C8.62609 13.0105 8.21213 12.91 7.8513 12.7091C7.77963 12.6637 7.71297 12.6116 7.65232 12.5537C7.59298 12.5032 7.54555 12.4415 7.51309 12.3727C7.48064 12.3039 7.46387 12.2294 7.46387 12.1541C7.46387 12.0788 7.48064 12.0044 7.51309 11.9356C7.54555 11.8667 7.59298 11.8051 7.65232 11.7545C7.88847 11.5452 8.18702 11.4087 8.50795 11.3634C8.95825 11.2717 9.42741 11.3088 9.85507 11.4701C10.032 11.5352 10.1951 11.6297 10.3366 11.7489C10.3994 11.7988 10.4499 11.861 10.4846 11.9312C10.5192 12.0013 10.5372 12.0777 10.5372 12.1551C10.5372 12.2324 10.5192 12.3088 10.4846 12.379C10.4499 12.4491 10.3994 12.5113 10.3366 12.5612C10.085 12.7818 9.76493 12.9208 9.42327 12.958C9.282 12.9842 9.13674 12.9898 9.04521 12.9992Z" fill="#410EAD"/>
<path d="M5 7.92521C5.03339 7.57226 5.15636 7.23199 5.35857 6.93301C5.56078 6.63403 5.83633 6.38507 6.16206 6.20704C6.32035 6.11771 6.50736 6.08452 6.68937 6.11346C6.82441 6.14369 6.94495 6.21523 7.0321 6.31685C7.11925 6.41846 7.16807 6.54442 7.17091 6.67495C7.20536 7.08912 7.09496 7.50253 6.85652 7.85222C6.67025 8.18233 6.38431 8.45323 6.03471 8.63082C5.93772 8.67734 5.8337 8.70954 5.72629 8.72628C5.35021 8.77868 5.08158 8.56719 5.02587 8.18724C5.01194 8.11238 5.00995 8.03751 5 7.92521Z" fill="#410EAD"/>
<path d="M5.00195 9.96905C5.01502 9.8695 5.03429 9.77075 5.05966 9.67333C5.07758 9.60065 5.11135 9.53226 5.15883 9.47249C5.20631 9.41273 5.26646 9.36288 5.33548 9.32611C5.4045 9.28934 5.48088 9.26645 5.55979 9.25888C5.6387 9.25132 5.71842 9.25924 5.79391 9.28215C5.98463 9.32759 6.16123 9.41481 6.30928 9.5367C6.55877 9.7268 6.76439 9.96279 6.91356 10.2302C7.06274 10.4977 7.15233 10.7909 7.17684 11.092C7.18481 11.2128 7.17272 11.3341 7.14103 11.4514C7.12617 11.5298 7.09322 11.6041 7.04452 11.6692C6.99581 11.7343 6.93252 11.7886 6.8591 11.8282C6.78569 11.8678 6.70393 11.8918 6.61959 11.8985C6.53526 11.9052 6.45039 11.8944 6.37096 11.8669C6.07466 11.7801 5.81272 11.6119 5.6188 11.384C5.24555 10.9936 5.02758 10.4936 5.00195 9.96905Z" fill="#410EAD"/>
<path d="M9.08894 6.68054C8.66085 6.69917 8.23609 6.60172 7.86519 6.3998C7.79322 6.35835 7.72646 6.30938 7.6662 6.25381C7.60275 6.20268 7.5518 6.13923 7.51688 6.06783C7.48195 5.99643 7.46387 5.91877 7.46387 5.84017C7.46387 5.76158 7.48195 5.68392 7.51688 5.61252C7.5518 5.54112 7.60275 5.47767 7.6662 5.42654C7.89655 5.22622 8.18569 5.09578 8.49597 5.05221C8.96966 4.95283 9.46459 4.99604 9.91074 5.17574C10.0673 5.24165 10.2112 5.33145 10.3366 5.44151C10.3975 5.49193 10.4463 5.55397 10.4797 5.62352C10.5132 5.69307 10.5305 5.76852 10.5305 5.84485C10.5305 5.92118 10.5132 5.99664 10.4797 6.06618C10.4463 6.13573 10.3975 6.19778 10.3366 6.24819C10.1115 6.4482 9.82686 6.5788 9.52073 6.62252C9.35557 6.65808 9.17848 6.66931 9.08894 6.68054Z" fill="#410EAD"/>
<path d="M10.8105 11.1015C10.8403 10.7657 10.9507 10.4406 11.1334 10.1508C11.3161 9.86098 11.5663 9.61391 11.8652 9.4282C11.9936 9.35129 12.137 9.29912 12.287 9.27473C12.358 9.25982 12.4313 9.25821 12.5029 9.26999C12.5745 9.28177 12.643 9.30671 12.7043 9.34339C12.7657 9.38007 12.8188 9.42776 12.8605 9.48374C12.9023 9.53972 12.9319 9.60289 12.9476 9.66965C13.0297 9.9681 13.0088 10.2834 12.8879 10.5699C12.7305 11.0484 12.3986 11.4593 11.9507 11.7303C11.8128 11.8105 11.6592 11.864 11.499 11.8875C11.1568 11.9381 10.8921 11.7116 10.8384 11.3466C10.8265 11.2718 10.8265 11.1969 10.8105 11.1015Z" fill="#410EAD"/>
<path d="M10.8105 6.78717C10.8279 6.67357 10.8551 6.56151 10.8921 6.45215C10.9382 6.32609 11.0336 6.22127 11.1589 6.15903C11.2842 6.09679 11.43 6.0818 11.5667 6.11712C11.8867 6.19545 12.1709 6.36953 12.3765 6.61311C12.7425 6.97945 12.9626 7.45356 12.9994 7.95508C13.0043 8.08551 12.9862 8.21581 12.9456 8.34064C12.9262 8.41031 12.892 8.47556 12.8451 8.53246C12.7981 8.58937 12.7394 8.63673 12.6725 8.67171C12.6055 8.70669 12.5318 8.72856 12.4556 8.73599C12.3794 8.74342 12.3024 8.73627 12.2293 8.71497C11.9236 8.63464 11.6523 8.46646 11.4533 8.23395C11.063 7.83888 10.8351 7.32596 10.8105 6.78717Z" fill="#410EAD"/>
</svg>
