<svg width="251" height="264" viewBox="0 0 251 264" fill="none" xmlns="http://www.w3.org/2000/svg">
<path d="M127.409 263.551C114.312 263.925 101.375 260.616 90.0996 254.007C87.8596 252.513 85.7765 250.801 83.8814 248.895C82.027 247.233 80.5449 245.204 79.5305 242.94C78.5162 240.675 77.9922 238.225 77.9922 235.748C77.9922 233.271 78.5162 230.821 79.5305 228.557C80.5449 226.292 82.027 224.263 83.8814 222.601C91.2611 215.712 100.591 211.221 110.62 209.731C124.691 206.714 139.353 207.936 152.717 213.241C158.246 215.385 163.342 218.493 167.765 222.416C169.729 224.058 171.307 226.104 172.389 228.412C173.472 230.72 174.032 233.234 174.032 235.779C174.032 238.324 173.472 240.838 172.389 243.146C171.307 245.454 169.729 247.5 167.765 249.142C159.902 256.398 149.9 260.972 139.224 262.197C134.809 263.059 130.269 263.244 127.409 263.551Z" fill="white"/>
<path d="M0.998047 96.6203C2.04158 85.0075 5.88435 73.8124 12.2034 63.9755C18.5225 54.1386 27.1334 45.9474 37.3125 40.09C42.2588 37.1507 48.103 36.0587 53.7908 37.011C58.0106 38.0056 61.7777 40.3592 64.5011 43.7027C67.2245 47.0461 68.7502 51.1902 68.8389 55.485C69.9155 69.1116 66.4655 82.7134 59.0141 94.2187C53.1931 105.08 44.2578 113.993 33.3328 119.836C30.3019 121.366 27.0511 122.426 23.6946 122.976C11.9421 124.701 3.54753 117.742 1.80642 105.241C1.37115 102.778 1.30896 100.315 0.998047 96.6203Z" fill="white"/>
<path d="M1.0498 163.984C1.45807 160.709 2.06021 157.46 2.8531 154.255C3.41324 151.863 4.46854 149.613 5.95221 147.647C7.43588 145.68 9.31562 144.04 11.4724 142.831C13.6292 141.621 16.0162 140.868 18.4821 140.619C20.9481 140.37 23.4394 140.631 25.7984 141.384C31.7585 142.879 37.2771 145.749 41.9036 149.759C49.7001 156.014 56.1258 163.778 60.7875 172.577C65.4492 181.376 68.2489 191.025 69.015 200.932C69.2639 204.907 68.8862 208.896 67.8957 212.755C67.4314 215.334 66.4019 217.78 64.8798 219.922C63.3576 222.065 61.3798 223.85 59.0856 225.153C56.7914 226.457 54.2366 227.246 51.601 227.466C48.9655 227.686 46.3133 227.331 43.8312 226.426C34.5717 223.57 26.3861 218.037 20.3263 210.539C8.66205 197.692 1.85051 181.242 1.0498 163.984Z" fill="white"/>
<path d="M128.776 55.7064C115.398 56.3192 102.124 53.113 90.5334 46.4694C88.2843 45.1058 86.1983 43.4945 84.3152 41.6662C82.3321 39.9839 80.7402 37.8965 79.6488 35.5473C78.5573 33.1982 77.9922 30.6429 77.9922 28.057C77.9922 25.4711 78.5573 22.9159 79.6488 20.5667C80.7402 18.2176 82.3321 16.1302 84.3152 14.4479C91.5136 7.85707 100.549 3.56546 110.245 2.13193C125.048 -1.13801 140.515 0.28378 154.457 6.19619C159.349 8.36479 163.845 11.3194 167.764 14.9405C169.668 16.5991 171.193 18.6406 172.238 20.9289C173.283 23.2171 173.824 25.6996 173.824 28.211C173.824 30.7223 173.283 33.2048 172.238 35.4931C171.193 37.7814 169.668 39.8228 167.764 41.4814C160.73 48.0621 151.836 52.359 142.269 53.7974C137.108 54.9674 131.574 55.3369 128.776 55.7064Z" fill="white"/>
<path d="M182.574 201.143C183.505 190.095 186.954 179.401 192.663 169.865C198.372 160.329 206.19 152.2 215.531 146.09C219.544 143.56 224.025 141.843 228.713 141.041C230.931 140.55 233.224 140.497 235.461 140.885C237.699 141.273 239.838 142.093 241.755 143.3C243.673 144.507 245.331 146.076 246.635 147.918C247.94 149.76 248.865 151.838 249.358 154.034C251.922 163.854 251.269 174.226 247.493 183.654C242.571 199.397 232.2 212.917 218.205 221.834C213.895 224.473 209.096 226.231 204.089 227.006C193.394 228.669 185.124 221.218 183.445 209.21C183.072 206.747 183.072 204.283 182.574 201.143Z" fill="white"/>
<path d="M182.574 59.1854C183.115 55.4477 183.968 51.7609 185.124 48.1626C186.563 44.015 189.544 40.5663 193.46 38.5185C197.376 36.4707 201.933 35.9777 206.203 37.1399C216.204 39.7168 225.086 45.4444 231.512 53.4585C242.949 65.5115 249.825 81.1107 250.975 97.6112C251.13 101.903 250.563 106.19 249.296 110.297C248.689 112.589 247.62 114.736 246.153 116.608C244.686 118.48 242.851 120.039 240.759 121.19C238.667 122.34 236.362 123.06 233.982 123.304C231.602 123.549 229.196 123.314 226.91 122.613C217.358 119.97 208.879 114.437 202.659 106.787C190.463 93.7883 183.343 76.9124 182.574 59.1854Z" fill="white"/>
</svg>
