<svg width="291" height="260" viewBox="0 0 291 260" fill="none" xmlns="http://www.w3.org/2000/svg">
<path d="M130.968 97.8399C130.968 90.0703 130.968 82.6708 130.968 75.2712C131.257 71.2347 130.378 67.2003 128.441 63.6663C126.503 60.1322 123.591 57.2533 120.064 55.3849C110.25 49.6502 100.8 43.6381 91.1684 37.7185C87.8992 35.4993 84.0577 34.3151 80.1282 34.3151C76.1988 34.3151 72.3573 35.4993 69.0881 37.7185C60.0015 43.5456 49.9154 49.2803 40.1927 54.8299C36.7372 56.5969 33.8593 59.3461 31.9078 62.7445C29.9563 66.1428 29.015 70.0444 29.198 73.9763C29.198 85.6306 29.198 97.2849 29.198 108.939C28.9883 112.819 29.8791 116.677 31.7641 120.056C33.649 123.434 36.4487 126.189 39.8293 127.993C49.7336 133.82 59.4563 140.017 69.2698 146.492C72.4728 148.617 76.2139 149.749 80.0374 149.749C83.8609 149.749 87.6019 148.617 90.805 146.492C127.151 124.663 163.861 102.865 200.934 81.0984C204.025 79.0785 207.62 78.0047 211.293 78.0047C214.966 78.0047 218.561 79.0785 221.652 81.0984L280.169 115.599C283.47 117.346 286.228 119.993 288.138 123.243C290.047 126.493 291.032 130.219 290.982 134.005C290.982 157.314 290.982 180.622 290.982 203.931C291.142 207.728 290.224 211.491 288.339 214.772C286.454 218.052 283.681 220.711 280.351 222.43C261.087 233.714 241.824 245.184 222.651 256.56C219.29 258.804 215.358 260 211.338 260C207.319 260 203.387 258.804 200.026 256.56C181.307 245.461 162.559 234.362 143.78 223.262C139.812 221.39 136.511 218.313 134.331 214.454C132.151 210.595 131.198 206.144 131.604 201.711C131.604 195.052 131.604 188.484 131.604 181.917C131.634 181.349 131.779 180.793 132.029 180.284C132.279 179.775 132.629 179.323 133.058 178.958C142.144 173.685 150.504 168.506 159.318 163.418H160.317V186.45C160.106 190.175 160.954 193.883 162.759 197.131C164.563 200.378 167.249 203.028 170.494 204.763L201.207 223.262C204.264 225.236 207.809 226.285 211.429 226.285C215.049 226.285 218.595 225.236 221.652 223.262L251.183 204.763C254.435 202.988 257.122 200.304 258.925 197.026C260.728 193.749 261.573 190.015 261.36 186.265C261.36 174.24 261.36 162.308 261.36 150.377C261.567 146.605 260.7 142.853 258.862 139.571C257.025 136.29 254.295 133.618 251.001 131.878C241.006 126.143 231.193 120.224 221.288 114.396C218.044 112.247 214.256 111.103 210.384 111.103C206.513 111.103 202.725 112.247 199.48 114.396C163.134 135.917 126.788 157.499 90.4415 179.142C87.2224 181.224 83.4876 182.329 79.6739 182.329C75.8602 182.329 72.1254 181.224 68.9063 179.142C49.4611 167.488 29.9249 156.019 10.3888 144.457C7.09516 142.717 4.36545 140.045 2.52781 136.764C0.690178 133.482 -0.177158 129.73 0.0300657 125.958C0.0300657 102.65 0.0300657 79.341 0.0300657 56.0324C-0.122485 52.5208 0.710975 49.0376 2.43287 45.9907C4.15477 42.9439 6.69383 40.4594 9.7527 38.8284C29.7432 27.1741 49.461 15.3348 69.2698 3.403C72.5893 1.18292 76.4744 0 80.4463 0C84.4182 0 88.3033 1.18292 91.6228 3.403C110.523 14.7798 129.423 26.1566 148.414 37.3485C151.981 39.0804 154.965 41.85 156.986 45.3073C159.008 48.7646 159.977 52.7543 159.772 56.7723C159.772 64.0794 159.772 71.4789 159.772 78.786C159.757 79.3348 159.628 79.8742 159.393 80.3684C159.158 80.8626 158.822 81.3006 158.409 81.6533C149.323 86.9255 141.054 92.0127 132.421 97.0999L130.968 97.8399Z" fill="white"/>
</svg>
