<svg width="18" height="18" viewBox="0 0 18 18" fill="none" xmlns="http://www.w3.org/2000/svg">
<path d="M9.04456 8.00345C9.04456 7.7643 9.04456 7.53655 9.04456 7.30879C9.05352 7.18454 9.02631 7.06037 8.9663 6.95159C8.90628 6.84281 8.81608 6.7542 8.70685 6.69669C8.40291 6.52018 8.11023 6.33512 7.81191 6.15292C7.71066 6.08461 7.59168 6.04816 7.46998 6.04816C7.34828 6.04816 7.2293 6.08461 7.12805 6.15292C6.84662 6.33228 6.53424 6.50879 6.23312 6.67961C6.12609 6.73399 6.03696 6.81861 5.97652 6.92321C5.91608 7.02782 5.88692 7.14791 5.89259 7.26893C5.89259 7.62765 5.89259 7.98637 5.89259 8.34509C5.8861 8.46449 5.91368 8.58327 5.97207 8.68725C6.03045 8.79124 6.11716 8.87605 6.22186 8.93156C6.52861 9.11092 6.82974 9.30167 7.13368 9.50096C7.23288 9.56638 7.34875 9.60121 7.46717 9.60121C7.58559 9.60121 7.70145 9.56638 7.80066 9.50096C8.92636 8.82907 10.0633 8.15813 11.2115 7.48815C11.3073 7.42597 11.4186 7.39292 11.5324 7.39292C11.6461 7.39292 11.7575 7.42597 11.8532 7.48815L13.6656 8.55007C13.7678 8.60385 13.8532 8.68531 13.9124 8.78534C13.9715 8.88538 14.002 9.00007 14.0005 9.11662C14.0005 9.83405 14.0005 10.5515 14.0005 11.2689C14.0054 11.3858 13.977 11.5016 13.9186 11.6026C13.8602 11.7036 13.7743 11.7854 13.6712 11.8383C13.0746 12.1857 12.478 12.5387 11.8841 12.8889C11.78 12.9579 11.6583 12.9947 11.5338 12.9947C11.4093 12.9947 11.2875 12.9579 11.1834 12.8889C10.6037 12.5472 10.023 12.2056 9.44137 11.8639C9.31849 11.8063 9.21626 11.7116 9.14873 11.5928C9.08121 11.4741 9.0517 11.337 9.06426 11.2006C9.06426 10.9956 9.06426 10.7935 9.06426 10.5913C9.06521 10.5739 9.06969 10.5567 9.07744 10.5411C9.08518 10.5254 9.09602 10.5115 9.10929 10.5002C9.39071 10.338 9.64962 10.1785 9.92261 10.022H9.95357V10.7309C9.94703 10.8455 9.97328 10.9596 10.0292 11.0596C10.0851 11.1596 10.1683 11.2411 10.2688 11.2946L11.22 11.8639C11.3147 11.9247 11.4245 11.957 11.5366 11.957C11.6487 11.957 11.7585 11.9247 11.8532 11.8639L12.7678 11.2946C12.8686 11.2399 12.9517 11.1573 13.0076 11.0564C13.0634 10.9555 13.0896 10.8406 13.083 10.7252C13.083 10.3551 13.083 9.98779 13.083 9.62053C13.0894 9.50444 13.0626 9.38895 13.0057 9.28794C12.9487 9.18693 12.8642 9.1047 12.7622 9.05114C12.4526 8.87462 12.1487 8.69242 11.8419 8.51306C11.7414 8.4469 11.6241 8.41168 11.5042 8.41168C11.3843 8.41168 11.267 8.4469 11.1665 8.51306C10.0408 9.17545 8.9151 9.83975 7.7894 10.5059C7.6897 10.57 7.57403 10.604 7.45591 10.604C7.33779 10.604 7.22212 10.57 7.12242 10.5059C6.52017 10.1472 5.9151 9.7942 5.31004 9.43832C5.20803 9.38476 5.12349 9.30253 5.06657 9.20152C5.00966 9.10051 4.98279 8.98502 4.98921 8.86893C4.98921 8.15149 4.98921 7.43405 4.98921 6.71662C4.98449 6.60853 5.0103 6.50132 5.06363 6.40754C5.11696 6.31375 5.1956 6.23728 5.29034 6.18708C5.90948 5.82836 6.52017 5.46395 7.13368 5.09669C7.23649 5.02835 7.35682 4.99194 7.47983 4.99194C7.60285 4.99194 7.72318 5.02835 7.82599 5.09669C8.41135 5.44687 8.99672 5.79704 9.5849 6.14153C9.69539 6.19484 9.78778 6.28009 9.8504 6.3865C9.91301 6.49292 9.94304 6.61572 9.93668 6.73939C9.93668 6.9643 9.93668 7.19206 9.93668 7.41697C9.93621 7.43387 9.9322 7.45047 9.92493 7.46568C9.91765 7.48089 9.90727 7.49437 9.89447 7.50523C9.61304 7.66751 9.35694 7.82409 9.08959 7.98067L9.04456 8.00345Z" fill="#410EAD"/>
<path d="M1.60577 4.73094L9 0.46188L16.3942 4.73094V13.2691L9 17.5381L1.60577 13.2691V4.73094Z" stroke="#410EAD" stroke-width="0.8"/>
</svg>
