<svg width="43" height="44" viewBox="0 0 43 44" fill="none" xmlns="http://www.w3.org/2000/svg">
<path fill-rule="evenodd" clip-rule="evenodd" d="M1.34295 0.111798C0.930327 0.245594 0.227616 0.990454 0.101301 1.42785C0.0226063 1.70051 -0.000657829 5.81348 1.40591e-05 19.3877L0.000853919 36.9938L0.199313 37.4234C0.437917 37.9398 0.751437 38.2556 1.25896 38.4906C1.61632 38.6561 1.80059 38.6658 4.64318 38.6676L7.64954 38.6695L7.85564 38.4585C8.14464 38.1628 8.13775 37.7118 7.84053 37.4727C7.62628 37.3002 7.52633 37.2945 4.68727 37.2945H1.75524L1.54914 37.0836L1.34295 36.8727V19.3347V1.79676L1.54914 1.58588L1.75524 1.37491H11.0767H20.3982L20.424 3.8025C20.4493 6.17955 20.454 6.23902 20.6558 6.65837C20.9384 7.24614 21.4909 7.77205 22.0511 7.98645C22.472 8.14757 22.6991 8.16355 24.5683 8.16355H26.6227V9.67398V11.1844L26.878 11.4456C27.0917 11.6643 27.1774 11.6982 27.403 11.6536C27.5513 11.6243 27.741 11.5159 27.8247 11.4127C27.9642 11.2406 27.9746 11.0471 27.9506 9.07134C27.9258 7.02469 27.9153 6.90258 27.7397 6.61677C27.3909 6.04928 22.1467 0.408779 21.7935 0.221361C21.4595 0.0439973 21.4013 0.0428801 11.5472 0.0297325C4.48814 0.02028 1.55233 0.0439113 1.34295 0.111798ZM30.0872 0.132078C29.986 0.20469 29.8657 0.407662 29.8201 0.583221C29.6447 1.25839 29.2263 3.38951 29.2263 3.60777C29.2263 4.10618 29.9148 4.39388 30.3095 4.06029C30.4814 3.91498 30.5596 3.6272 30.9056 1.8655L31.0034 1.36795L31.6447 1.39287L32.286 1.41788L32.5408 2.64173C32.7227 3.51505 32.8438 3.91206 32.9637 4.02764C33.0561 4.11684 33.4151 4.27487 33.7615 4.37893C34.108 4.48299 34.7075 4.73907 35.0938 4.94797C35.4801 5.15687 35.877 5.32779 35.9757 5.32779C36.0744 5.32779 36.6206 5.01844 37.1893 4.64034C37.7581 4.26223 38.2508 3.95288 38.2843 3.95288C38.3599 3.95288 39.1366 4.75402 39.1366 4.83196C39.1366 4.86324 38.8343 5.36182 38.4648 5.93989C38.0952 6.51804 37.7929 7.07651 37.7929 7.18092C37.7929 7.28533 37.9599 7.69419 38.1641 8.08939C38.3683 8.48468 38.6185 9.09806 38.7202 9.45253C38.8219 9.807 38.9764 10.1744 39.0636 10.2689C39.1765 10.3915 39.5646 10.5154 40.4181 10.7016L41.6142 10.9623L41.6388 11.6253C41.6523 11.9899 41.6329 12.2883 41.5957 12.2883C41.3583 12.2883 39.1795 12.8178 39.0843 12.8986C39.0201 12.9532 38.8734 13.3133 38.7585 13.6989C38.6436 14.0844 38.3793 14.7385 38.1711 15.1522C37.9631 15.5659 37.7929 15.9928 37.7929 16.1008C37.7929 16.5855 38.5251 16.8743 38.893 16.5348C39.1034 16.3405 39.7243 15.0982 39.9267 14.4665L40.0686 14.0237L40.6314 13.896C40.941 13.8257 41.5153 13.6983 41.9076 13.6129C42.9992 13.3751 43 13.3736 43 11.6948C43 10.2979 42.9387 9.9481 42.6737 9.83244C42.5991 9.79996 41.9941 9.65276 41.3292 9.50547C40.5476 9.3324 40.0974 9.19216 40.0558 9.10881C40.0203 9.03791 39.8715 8.67055 39.7251 8.29245C39.5787 7.91435 39.4193 7.50746 39.3706 7.38827C39.2915 7.19424 39.3549 7.05675 39.9794 6.06939C40.4557 5.31602 40.6764 4.8861 40.6764 4.71106C40.6764 4.49838 40.5045 4.27916 39.6611 3.41623C38.8141 2.54961 38.6041 2.37748 38.3936 2.37748C38.2202 2.37748 37.8049 2.60005 37.0643 3.08986C36.1014 3.72679 35.9649 3.79279 35.7772 3.71184C35.6617 3.66208 35.2082 3.4696 34.7694 3.28415L33.9715 2.94696L33.7429 1.83869C33.4285 0.314082 33.445 0.368907 33.2407 0.17427C33.0724 0.0137491 32.9482 0 31.6647 0C30.5475 0 30.235 0.0261234 30.0872 0.132078ZM23.8033 4.72627L25.6194 6.74567L24.1376 6.76922C22.5078 6.795 22.3418 6.75495 21.9703 6.24555C21.8061 6.02049 21.7917 5.8763 21.7683 4.22614C21.746 2.66974 21.7581 2.46505 21.8651 2.57796C21.9323 2.64886 22.8045 3.61559 23.8033 4.72627ZM31.179 6.20464C30.9934 6.40933 30.9391 6.72479 31.0422 6.9996C31.1224 7.21357 31.5296 7.39016 31.9428 7.39016C33.2181 7.39016 34.7097 8.41147 35.3504 9.72331C35.8402 10.7262 35.9034 12.0288 35.5177 13.1748C35.3373 13.7109 35.3312 13.7798 35.4465 13.99C35.6049 14.2786 35.9506 14.4121 36.2557 14.3024C37.041 14.0197 37.3876 11.3828 36.846 9.81044C36.5439 8.93316 36.1636 8.31617 35.5179 7.65544C34.545 6.66 33.3823 6.11244 32.0818 6.03742C31.4086 5.99858 31.3572 6.00812 31.179 6.20464ZM3.88521 6.1573C3.64837 6.20954 3.35861 6.5806 3.35861 6.8316C3.35861 6.93704 3.43697 7.12515 3.53272 7.24966C3.69044 7.45496 3.76057 7.4761 4.28246 7.4761C4.80435 7.4761 4.87448 7.45496 5.0322 7.24966C5.52915 6.60337 4.83962 5.94668 3.88521 6.1573ZM7.58059 6.1603C7.34484 6.20851 7.054 6.57931 7.054 6.8316C7.054 6.93704 7.13236 7.12515 7.2281 7.24966L7.40212 7.4761H12.3839C17.005 7.4761 17.3785 7.46518 17.5427 7.32571C17.8295 7.0821 17.8575 6.68982 17.6093 6.39447L17.3989 6.14415L12.5834 6.13306C9.93489 6.12688 7.68356 6.13916 7.58059 6.1603ZM3.5648 9.49163C3.28739 9.77538 3.30117 10.0944 3.6041 10.4044C3.80466 10.6096 3.92065 10.6556 4.2382 10.6556C4.66502 10.6556 5.07285 10.4817 5.15415 10.265C5.25888 9.98566 5.2016 9.6977 5.00012 9.49163C4.82644 9.31384 4.71364 9.28067 4.28246 9.28067C3.85128 9.28067 3.73848 9.31384 3.5648 9.49163ZM7.31553 9.43105C7.21819 9.5138 7.11505 9.70552 7.08642 9.85728C7.04283 10.0881 7.076 10.1757 7.28966 10.3944L7.54498 10.6556H12.4291H17.3132L17.5685 10.3944C17.7822 10.1757 17.8154 10.0881 17.7718 9.85728C17.6576 9.25231 17.9206 9.28067 12.4291 9.28067C7.85102 9.28067 7.47964 9.29158 7.31553 9.43105ZM3.68725 12.4844C3.31603 12.776 3.28907 13.3716 3.63594 13.6202C3.74596 13.699 4.00598 13.7491 4.30497 13.7491C4.71222 13.7491 4.82845 13.7138 5.00012 13.5382C5.13013 13.4052 5.20631 13.2291 5.20631 13.0617C5.20631 12.8943 5.13013 12.7181 5.00012 12.5852C4.82786 12.4089 4.71415 12.3747 4.30723 12.377C4.03957 12.3784 3.76057 12.4268 3.68725 12.4844ZM7.4169 12.4764C7.19047 12.5884 7.01981 12.9879 7.0949 13.2301C7.1258 13.3297 7.23087 13.4872 7.32838 13.5802C7.49702 13.741 7.63728 13.7491 10.2231 13.7491H12.9407L13.1468 13.5382C13.2768 13.4052 13.3529 13.2291 13.3529 13.0617C13.3529 12.8943 13.2768 12.7181 13.1468 12.5852L12.9407 12.3742L10.2702 12.3801C8.58347 12.3837 7.53246 12.4192 7.4169 12.4764ZM19.7839 13.2351C19.2598 13.4444 18.7645 13.9278 18.5088 14.4796C18.3176 14.8922 18.3097 14.9865 18.309 16.8613L18.3081 18.8135L14.9697 18.8378L11.6312 18.8621L11.1569 19.0897C10.3989 19.4532 9.79849 20.1749 9.56098 21.008C9.51974 21.1523 9.48757 25.7928 9.48867 31.4279L9.49068 41.5876L9.67176 42.0835C9.80336 42.4439 9.99426 42.7242 10.3704 43.1094C10.8132 43.5628 10.9722 43.6656 11.4696 43.8197L12.0512 44L26.4145 43.9771L40.778 43.9543L41.3341 43.6741C41.9812 43.3482 42.4254 42.8823 42.7367 42.203L42.958 41.7201V31.4082V21.0963L42.7346 20.6087C42.4358 19.9564 41.9093 19.3902 41.3322 19.1001L40.8584 18.8621L37.5255 18.8369L34.1926 18.8117L34.166 16.8175L34.1395 14.8233L33.8902 14.3628C33.7531 14.1095 33.4902 13.7703 33.306 13.609C32.6717 13.0535 32.7738 13.0613 26.1665 13.0657C20.4808 13.0695 20.1782 13.0776 19.7839 13.2351ZM32.5211 14.7604L32.7957 15.0411V16.9087V18.7762H32.0818H31.3679L31.3449 17.3368L31.3219 15.8974H26.2008H21.0797V17.3583V18.8191H20.3658H19.6519V17.0103C19.6519 15.5639 19.6773 15.1511 19.779 14.9501C20.0465 14.4206 19.7906 14.4398 26.3062 14.4606L32.2466 14.4796L32.5211 14.7604ZM29.9822 18.0466V18.8209L26.2238 18.7985L22.4654 18.7762L22.4412 18.0243L22.4169 17.2724H26.1995H29.9822V18.0466ZM40.7954 20.3763C41.0169 20.486 41.2531 20.6973 41.3888 20.9069L41.6142 21.2552L41.6388 23.8145C41.6619 26.2397 41.6544 26.3917 41.4937 26.7141C41.3109 27.0806 41.0083 27.3391 40.5149 27.55C40.3438 27.6231 37.9512 28.1241 35.198 28.6633C32.4447 29.2024 30.0882 29.6666 29.9612 29.6949L29.7302 29.7462V28.4775C29.7302 27.3787 29.7075 27.162 29.561 26.8595C29.2218 26.159 29.2683 26.1693 26.3288 26.1431C23.4167 26.1171 23.3317 26.1315 22.95 26.7161C22.7717 26.9891 22.7594 27.0969 22.7594 28.3761C22.7594 29.6385 22.748 29.7407 22.6124 29.6999C22.5316 29.6755 21.634 29.4965 20.6177 29.302C14.351 28.1028 12.1199 27.6435 11.789 27.4844C11.3886 27.2918 10.9466 26.8314 10.8728 26.53C10.8471 26.4245 10.8371 25.175 10.8507 23.7534L10.8754 21.1685L11.1109 20.8529C11.2404 20.6792 11.486 20.4616 11.6568 20.3694C11.961 20.205 12.2492 20.2016 26.1973 20.1978L40.4274 20.1941L40.7954 20.3763ZM28.3697 30.2696C28.3409 33.4261 28.3426 33.418 27.5929 34.0931C26.496 35.0811 24.8104 34.6494 24.2317 33.2324C24.1255 32.9722 24.1032 32.4464 24.1032 30.2079V27.4983H26.2491H28.3951L28.3697 30.2696ZM16.9537 29.9891C19.8004 30.5433 22.2676 31.0227 22.4363 31.0544L22.743 31.1121L22.7738 32.2484C22.8029 33.3167 22.8206 33.4181 23.0704 33.9432C23.9405 35.7729 26.0027 36.5141 27.756 35.6276C29.0885 34.9537 29.7302 33.7579 29.7302 31.9487C29.7302 31.486 29.7606 31.1074 29.7978 31.1074C29.8971 31.1074 38.9514 29.3353 39.9259 29.1251C40.3831 29.0264 40.9595 28.8542 41.2066 28.7423L41.6562 28.5389L41.6544 34.9147C41.6526 40.9145 41.6435 41.3108 41.4983 41.6376C41.3113 42.059 40.9167 42.414 40.4976 42.538C40.2804 42.6022 35.9134 42.6223 26.0287 42.6046L11.8709 42.5794L11.5218 42.343C11.3297 42.213 11.0963 41.9534 11.003 41.7664C10.8373 41.434 10.8334 41.2776 10.8334 34.9825V28.539L11.3056 28.7602C11.6584 28.9254 13.0878 29.2364 16.9537 29.9891ZM25.7371 31.8851C25.6497 31.9839 25.5813 32.1894 25.5813 32.3535C25.5813 32.7552 25.8148 32.9979 26.2012 32.9979C26.7984 32.9979 27.1015 32.3007 26.6803 31.8958C26.4248 31.6502 25.9497 31.6448 25.7371 31.8851Z" fill="#FB5A5A"/>
</svg>
