<svg width="50" height="50" viewBox="0 0 50 50" fill="none" xmlns="http://www.w3.org/2000/svg">
<path d="M26.1509 19.594V26.131H26.7827C29.833 26.131 32.8832 26.131 35.9335 26.131C37.8182 26.1169 39.6484 26.7628 41.1068 27.9567C42.5653 29.1507 43.56 30.8174 43.9186 32.6679C44.0709 33.7512 44.1582 34.8426 44.1801 35.9363H45.4437C45.9219 35.8911 46.4041 35.9518 46.8561 36.1142C47.3081 36.2765 47.7187 36.5365 48.0589 36.8756C48.399 37.2147 48.6602 37.6246 48.8239 38.0761C48.9876 38.5277 49.0498 39.0097 49.006 39.4881C49.006 41.4927 49.006 43.5083 49.006 45.5129C49.0403 45.9819 48.973 46.4528 48.8086 46.8934C48.6443 47.334 48.3869 47.7339 48.0539 48.0659C47.7209 48.3979 47.3202 48.6541 46.8791 48.8171C46.4381 48.98 45.9671 49.0459 45.4982 49.0102H39.4195C38.9504 49.043 38.4798 48.9742 38.0398 48.8085C37.5997 48.6428 37.2006 48.3841 36.8697 48.05C36.5388 47.7159 36.2838 47.3144 36.1222 46.8728C35.9607 46.4312 35.8963 45.9599 35.9335 45.4911V39.4772C35.8919 39.0017 35.9549 38.5229 36.1181 38.0744C36.2814 37.626 36.5408 37.2187 36.8783 36.8812C37.2157 36.5437 37.6229 36.2843 38.0714 36.121C38.5198 35.9578 38.9986 35.8947 39.474 35.9363H40.7594C41.4457 31.9052 38.9402 29.4757 36.1078 29.3994C32.8396 29.3994 29.6478 29.3994 26.4232 29.3994H26.1726V35.9363H27.6869C28.1317 35.9228 28.5745 36.0003 28.9883 36.164C29.4021 36.3277 29.7781 36.5742 30.0933 36.8884C30.4085 37.2026 30.6562 37.5778 30.8212 37.9911C30.9862 38.4044 31.0651 38.8471 31.0531 39.2919C31.0531 41.3838 31.0531 43.5627 31.0531 45.7417C31.0531 46.6085 30.7087 47.4399 30.0958 48.0528C29.483 48.6658 28.6517 49.0102 27.7849 49.0102C25.6062 49.0102 23.4274 49.0102 21.2487 49.0102C20.8162 49.0222 20.3859 48.9459 19.9839 48.7859C19.582 48.6259 19.2169 48.3855 18.911 48.0796C18.6051 47.7737 18.3648 47.4085 18.2048 47.0066C18.0448 46.6046 17.9685 46.1742 17.9805 45.7417C17.937 43.5627 17.937 41.3838 17.9805 39.2048C17.9803 38.7662 18.0683 38.3321 18.2393 37.9283C18.4103 37.5245 18.6608 37.1592 18.9759 36.8542C19.291 36.5493 19.6643 36.3108 20.0735 36.1531C20.4826 35.9954 20.9193 35.9217 21.3576 35.9363H22.8283V29.3994C22.6396 29.3882 22.4504 29.3882 22.2618 29.3994H13.2853C12.5988 29.3691 11.9136 29.4835 11.2742 29.7351C10.6348 29.9868 10.0554 30.37 9.57364 30.8601C9.09187 31.3501 8.7185 31.9359 8.47775 32.5796C8.23699 33.2232 8.13423 33.9103 8.17612 34.5963V35.9363H9.58142C10.0512 35.9004 10.5233 35.9665 10.9652 36.1301C11.407 36.2937 11.8083 36.5509 12.1415 36.8841C12.4747 37.2173 12.7319 37.6187 12.8955 38.0606C13.0591 38.5025 13.1251 38.9746 13.0892 39.4445C13.0892 41.4709 13.0892 43.4974 13.0892 45.5238C13.1215 45.99 13.0534 46.4576 12.8897 46.8952C12.7259 47.3328 12.4702 47.7302 12.1398 48.0606C11.8094 48.3911 11.4121 48.6468 10.9745 48.8106C10.5369 48.9744 10.0693 49.0424 9.60321 49.0102H3.47001C3.01052 49.0384 2.55026 48.9692 2.11935 48.8072C1.68845 48.6452 1.29664 48.3939 0.969579 48.0699C0.642521 47.7459 0.387597 47.3565 0.221506 46.9271C0.055415 46.4977 -0.0180961 46.0381 0.00578864 45.5783C0.00578864 43.5191 0.00578864 41.4491 0.00578864 39.39C-0.021949 38.9245 0.0502221 38.4585 0.217454 38.0232C0.384687 37.588 0.643109 37.1935 0.975368 36.8664C1.30763 36.5393 1.70603 36.287 2.14382 36.1266C2.58161 35.9662 3.04865 35.9013 3.51358 35.9363H4.90799C4.90799 34.9776 4.90799 34.0624 5.04961 33.169C5.30672 31.2334 6.25386 29.4556 7.71691 28.1625C9.17996 26.8695 11.0606 26.1481 13.013 26.131C16.1286 26.131 19.2551 26.131 22.3707 26.131H22.8392V19.594H18.1657C17.4908 19.6233 16.8171 19.512 16.1874 19.2674C15.5576 19.0227 14.9856 18.65 14.5073 18.1727C14.0291 17.6955 13.6552 17.1241 13.4092 16.4949C13.1632 15.8656 13.0505 15.1921 13.0783 14.517C13.0783 11.3793 13.0783 8.2307 13.0783 5.09298C13.0459 4.41809 13.1545 3.74384 13.3973 3.11331C13.6401 2.48277 14.0117 1.90981 14.4884 1.43101C14.9651 0.952216 15.5364 0.578109 16.1658 0.332586C16.7953 0.0870634 17.469 -0.024478 18.1439 0.00508653C22.3816 0.00508653 26.6193 0.00508653 30.8461 0.00508653C31.5214 -0.0258073 32.1958 0.0842841 32.8263 0.328351C33.4568 0.572418 34.0296 0.945112 34.5082 1.4227C34.9867 1.90029 35.3606 2.47231 35.606 3.10234C35.8514 3.73236 35.9629 4.40659 35.9335 5.08209C35.9335 8.21981 35.9335 11.3575 35.9335 14.4952C35.9658 15.1706 35.8572 15.8453 35.6145 16.4764C35.3718 17.1075 35.0004 17.6811 34.5239 18.1607C34.0473 18.6404 33.4762 19.0155 32.8467 19.2623C32.2173 19.5091 31.5434 19.622 30.8679 19.594H26.1509ZM24.5168 3.30623C22.4034 3.30623 20.29 3.30623 18.1766 3.30623C17.929 3.2803 17.6786 3.3102 17.4441 3.39373C17.2095 3.47725 16.9966 3.61228 16.821 3.7889C16.6455 3.96551 16.5117 4.17922 16.4296 4.41432C16.3475 4.64942 16.3191 4.89994 16.3465 5.14746V14.5061C16.3217 14.755 16.3532 15.0063 16.4388 15.2413C16.5243 15.4763 16.6616 15.689 16.8405 15.8638C17.0194 16.0385 17.2353 16.1708 17.4723 16.2507C17.7092 16.3306 17.9611 16.3562 18.2093 16.3256H30.7916C31.0482 16.36 31.3092 16.3346 31.5543 16.2514C31.7995 16.1681 32.022 16.0293 32.2045 15.8457C32.387 15.6621 32.5246 15.4387 32.6064 15.1931C32.6883 14.9475 32.7122 14.6863 32.6762 14.4299V5.15835C32.7045 4.90635 32.6753 4.65122 32.5908 4.41213C32.5063 4.17305 32.3687 3.95622 32.1884 3.77796C32.008 3.59971 31.7896 3.46465 31.5496 3.38294C31.3096 3.30124 31.0541 3.27501 30.8025 3.30623C28.7109 3.25175 26.6084 3.30623 24.5168 3.30623ZM3.3175 39.2048V45.7417H9.75572V39.2048H3.3175ZM27.7305 39.2048H21.2487V45.7417H27.7849L27.7305 39.2048ZM39.2452 39.2048V45.7417H45.6834V39.2593L39.2452 39.2048Z" fill="#410EAD"/>
<path d="M29.365 8.21094V11.414H19.6587V8.21094H29.365Z" fill="#410EAD"/>
<path d="M27.1313 20.5745V27.1114H27.7632C30.8134 27.1114 33.8637 27.1114 36.9139 27.1114C38.7986 27.0973 40.6289 27.7433 42.0873 28.9372C43.5458 30.1311 44.5405 31.7978 44.8991 33.6483C45.0514 34.7316 45.1387 35.8231 45.1605 36.9168H46.4242C46.9023 36.8716 47.3845 36.9323 47.8365 37.0946C48.2885 37.257 48.6992 37.5169 49.0393 37.856C49.3794 38.1952 49.6406 38.6051 49.8043 39.0566C49.968 39.5081 50.0302 39.9902 49.9865 40.4685C49.9865 42.4732 49.9865 44.4887 49.9865 46.4934C50.0208 46.9624 49.9534 47.4332 49.7891 47.8738C49.6248 48.3144 49.3674 48.7144 49.0344 49.0464C48.7014 49.3784 48.3007 49.6346 47.8596 49.7975C47.4185 49.9605 46.9475 50.0264 46.4787 49.9906H40.4C39.9309 50.0234 39.4603 49.9547 39.0202 49.789C38.5802 49.6233 38.1811 49.3645 37.8502 49.0305C37.5192 48.6964 37.2643 48.2949 37.1027 47.8533C36.9411 47.4116 36.8767 46.9404 36.9139 46.4716V40.4576C36.8724 39.9822 36.9354 39.5034 37.0986 39.0549C37.2618 38.6064 37.5213 38.1991 37.8587 37.8617C38.1962 37.5242 38.6034 37.2647 39.0518 37.1015C39.5003 36.9382 39.979 36.8752 40.4544 36.9168H41.7399C42.4262 32.8857 39.9206 30.4561 37.0882 30.3799C33.8201 30.3799 30.6282 30.3799 27.4037 30.3799H27.1531V36.9168H28.6674C29.1121 36.9033 29.555 36.9808 29.9688 37.1445C30.3826 37.3082 30.7586 37.5547 31.0738 37.8689C31.3889 38.183 31.6366 38.5583 31.8017 38.9716C31.9667 39.3849 32.0456 39.8275 32.0335 40.2724C32.0335 42.3642 32.0335 44.5432 32.0335 46.7222C32.0335 47.589 31.6892 48.4204 31.0763 49.0333C30.4634 49.6463 29.6322 49.9906 28.7654 49.9906C26.5866 49.9906 24.4079 49.9906 22.2291 49.9906C21.7967 50.0026 21.3663 49.9263 20.9644 49.7663C20.5624 49.6063 20.1974 49.366 19.8915 49.0601C19.5856 48.7541 19.3453 48.389 19.1853 47.987C19.0253 47.585 18.949 47.1547 18.961 46.7222C18.9174 44.5432 18.9174 42.3642 18.961 40.1853C18.9608 39.7467 19.0488 39.3126 19.2198 38.9088C19.3908 38.505 19.6413 38.1397 19.9564 37.8347C20.2715 37.5297 20.6448 37.2913 21.0539 37.1336C21.4631 36.9759 21.8998 36.9022 22.3381 36.9168H23.8087V30.3799C23.6201 30.3687 23.4309 30.3687 23.2423 30.3799H14.2658C13.5793 30.3496 12.8941 30.464 12.2547 30.7156C11.6153 30.9672 11.0359 31.3505 10.5541 31.8405C10.0723 32.3305 9.69897 32.9164 9.45821 33.56C9.21746 34.2037 9.1147 34.8908 9.15659 35.5767V36.9168H10.5619C11.0317 36.8809 11.5037 36.947 11.9456 37.1106C12.3875 37.2742 12.7888 37.5314 13.122 37.8646C13.4552 38.1978 13.7124 38.5991 13.8759 39.0411C14.0395 39.483 14.1056 39.9551 14.0697 40.4249C14.0697 42.4514 14.0697 44.4778 14.0697 46.5043C14.1019 46.9704 14.0339 47.4381 13.8701 47.8757C13.7063 48.3133 13.4506 48.7107 13.1203 49.0411C12.7899 49.3715 12.3925 49.6273 11.955 49.791C11.5174 49.9548 11.0498 50.0229 10.5837 49.9906H4.45048C3.99099 50.0189 3.53072 49.9497 3.09982 49.7877C2.66892 49.6257 2.27711 49.3744 1.95005 49.0504C1.62299 48.7264 1.36807 48.3369 1.20197 47.9076C1.03588 47.4782 0.962373 47.0185 0.986257 46.5587C0.986257 44.4996 0.986257 42.4296 0.986257 40.3705C0.95852 39.905 1.03069 39.439 1.19792 39.0037C1.36516 38.5684 1.62358 38.174 1.95584 37.8469C2.28809 37.5197 2.6865 37.2675 3.12429 37.1071C3.56208 36.9467 4.02912 36.8818 4.49405 36.9168H5.88846C5.88846 35.958 5.88846 35.0429 6.03008 34.1495C6.28718 32.2138 7.23433 30.436 8.69738 29.143C10.1604 27.8499 12.041 27.1285 13.9934 27.1114C17.1091 27.1114 20.2356 27.1114 23.3512 27.1114H23.8196V20.5745H19.1462C18.4712 20.6037 17.7976 20.4925 17.1678 20.2478C16.5381 20.0032 15.966 19.6304 15.4878 19.1532C15.0096 18.676 14.6357 18.1046 14.3897 17.4753C14.1437 16.8461 14.031 16.1726 14.0588 15.4975C14.0588 12.3598 14.0588 9.21117 14.0588 6.07345C14.0263 5.39856 14.135 4.72431 14.3778 4.09378C14.6206 3.46324 14.9922 2.89028 15.4689 2.41148C15.9456 1.93268 16.5169 1.55858 17.1463 1.31305C17.7757 1.06753 18.4494 0.955991 19.1244 0.985555C23.3621 0.985555 27.5998 0.985555 31.8265 0.985555C32.5019 0.954661 33.1763 1.06475 33.8068 1.30882C34.4373 1.55289 35.0101 1.92558 35.4886 2.40317C35.9672 2.88076 36.3411 3.45278 36.5865 4.08281C36.8319 4.71283 36.9434 5.38706 36.9139 6.06256C36.9139 9.20028 36.9139 12.338 36.9139 15.4757C36.9463 16.1511 36.8377 16.8258 36.595 17.4569C36.3523 18.0879 35.9808 18.6616 35.5043 19.1412C35.0278 19.6208 34.4566 19.996 33.8272 20.2428C33.1978 20.4895 32.5238 20.6025 31.8483 20.5745H27.1313ZM25.4973 4.2867C23.3839 4.2867 21.2705 4.2867 19.1571 4.2867C18.9094 4.26077 18.6591 4.29067 18.4245 4.3742C18.1899 4.45772 17.9771 4.59275 17.8015 4.76937C17.6259 4.94598 17.4922 5.15969 17.4101 5.39479C17.3279 5.62989 17.2995 5.88041 17.3269 6.12793V15.4866C17.3022 15.7355 17.3337 15.9867 17.4192 16.2217C17.5047 16.4568 17.642 16.6695 17.8209 16.8443C17.9998 17.019 18.2158 17.1512 18.4527 17.2312C18.6897 17.3111 18.9416 17.3367 19.1898 17.3061H31.7721C32.0286 17.3405 32.2897 17.3151 32.5348 17.2318C32.7799 17.1486 33.0025 17.0097 33.185 16.8261C33.3675 16.6425 33.5051 16.4192 33.5869 16.1736C33.6687 15.928 33.6926 15.6667 33.6567 15.4103V6.13882C33.685 5.88682 33.6558 5.63169 33.5713 5.3926C33.4868 5.15351 33.3492 4.93669 33.1688 4.75843C32.9885 4.58017 32.7701 4.44512 32.5301 4.36341C32.29 4.2817 32.0346 4.25547 31.783 4.2867C29.6914 4.23222 27.5889 4.2867 25.4973 4.2867ZM4.29797 40.1853V46.7222H10.7362V40.1853H4.29797ZM28.7109 40.1853H22.2291V46.7222H28.7654L28.7109 40.1853ZM40.2257 40.1853V46.7222H46.6639V40.2397L40.2257 40.1853Z" fill="url(#paint0_linear_1514_445)"/>
<path d="M30.3455 9.19141V12.3945H20.6392V9.19141H30.3455Z" fill="url(#paint1_linear_1514_445)"/>
<defs>
<linearGradient id="paint0_linear_1514_445" x1="15.6864" y1="3.43145" x2="47.5491" y2="50.0001" gradientUnits="userSpaceOnUse">
<stop stop-color="white" stop-opacity="0.66"/>
<stop offset="1" stop-color="#CECECE" stop-opacity="0"/>
</linearGradient>
<linearGradient id="paint1_linear_1514_445" x1="23.5511" y1="9.35156" x2="24.5108" y2="13.6023" gradientUnits="userSpaceOnUse">
<stop stop-color="white" stop-opacity="0.66"/>
<stop offset="1" stop-color="#CECECE" stop-opacity="0"/>
</linearGradient>
</defs>
</svg>
