<svg width="54" height="50" viewBox="0 0 54 50" fill="none" xmlns="http://www.w3.org/2000/svg">
<path fill-rule="evenodd" clip-rule="evenodd" d="M2.83357 0.0741441C1.80555 0.281331 0.810255 1.06697 0.309493 2.06653L0 2.68425V22.2613V41.8384L0.296298 42.4786C0.673876 43.2942 1.45679 44.0491 2.22715 44.3404C2.78079 44.5497 3.02284 44.559 7.95509 44.559H13.105L13.3346 44.3121C13.6616 43.9602 13.6422 43.3901 13.2918 43.0572L13.0195 42.7986L7.93482 42.7453L2.85004 42.6919L2.49463 42.4358C2.29924 42.2948 2.05087 41.9828 1.94278 41.7423C1.75436 41.3229 1.74623 40.7207 1.74401 27.0356L1.74169 12.7662H26.9698H52.1979V15.7484C52.1979 18.9072 52.232 19.1583 52.6895 19.3691C53.1015 19.5587 53.3541 19.5089 53.687 19.1724L53.9987 18.8574L53.9692 10.7708L53.9396 2.68425L53.6301 2.06653C53.2531 1.31396 52.5935 0.679594 51.7942 0.300854L51.1951 0.0170665L27.2337 0.00138354C14.0549 -0.00725812 3.07488 0.0254948 2.83357 0.0741441ZM50.9646 1.93199C51.4906 2.12158 51.7618 2.37464 51.9994 2.89762C52.1759 3.28607 52.1935 3.6663 52.1956 7.13843L52.1979 10.9525H26.9698H1.74169L1.74401 7.13843C1.74612 3.6663 1.76375 3.28607 1.94024 2.89762C2.17785 2.37464 2.44903 2.12158 2.97502 1.93199C3.57543 1.71553 50.3642 1.71553 50.9646 1.93199ZM5.76837 3.71602C4.27981 3.97868 3.30129 5.45619 3.63074 6.94384C3.97475 8.49752 5.48495 9.41663 6.97879 8.98145C7.4746 8.83689 7.71041 8.68582 8.14647 8.23315C8.72904 7.62845 8.91798 7.17449 8.91893 6.37733C8.91978 5.70093 8.72439 5.142 8.32021 4.66468C7.64655 3.86922 6.76251 3.54062 5.76837 3.71602ZM13.3002 3.64998C13.2421 3.66662 13.0233 3.70908 12.814 3.74429C12.2683 3.83615 11.4904 4.39529 11.1927 4.90953C10.6129 5.91153 10.6431 6.98929 11.2773 7.93133C12.3098 9.46517 14.6072 9.46517 15.6397 7.93133C16.6049 6.49767 16.0904 4.56525 14.568 3.90688C14.1444 3.7237 13.4989 3.5929 13.3002 3.64998ZM20.2039 3.70866C19.5401 3.80916 19.151 4.03266 18.6615 4.59469C18.0309 5.31867 17.8389 6.25997 18.1152 7.27179C18.2976 7.93965 19.1658 8.75314 19.9382 8.97996C21.8878 9.55244 23.7296 7.78848 23.284 5.77572C22.974 4.37545 21.6535 3.48931 20.2039 3.70866ZM6.90628 5.79258C7.49814 6.55304 6.78056 7.53915 5.90465 7.16916C4.99833 6.78647 5.28165 5.51146 6.27293 5.51146C6.59509 5.51146 6.73633 5.57408 6.90628 5.79258ZM14.0587 5.74339C14.3203 5.99187 14.3874 6.5396 14.1996 6.89423C13.9532 7.3597 12.9639 7.3597 12.7174 6.89423C12.5391 6.55752 12.5986 6.02185 12.8435 5.75833C13.1464 5.43261 13.7239 5.42557 14.0587 5.74339ZM21.2671 5.72216C21.7403 6.20044 21.6146 6.91492 21.0124 7.16916C20.1365 7.53915 19.4189 6.55304 20.0108 5.79258C20.2886 5.43549 20.9469 5.39858 21.2671 5.72216ZM5.11951 15.5076C4.48121 15.748 4.26767 16.5757 4.73043 17.0151L4.9748 17.247H14.7995C25.7897 17.247 25.008 17.3041 25.1366 16.4922C25.1853 16.185 25.1454 16.0501 24.9314 15.7988L24.6659 15.4867L14.9719 15.4673C9.6402 15.4566 5.2066 15.4748 5.11951 15.5076ZM29.4261 15.5075C29.2966 15.5333 29.0904 15.6831 28.968 15.8406C28.6931 16.1937 28.7516 16.7814 29.0894 17.0603C29.3011 17.2352 29.9405 17.247 39.1549 17.247H48.9944L49.224 17.0002C49.5511 16.6482 49.5316 16.0782 49.1811 15.7453L48.9087 15.4867L39.2851 15.4737C33.9921 15.4666 29.5555 15.4818 29.4261 15.5075ZM47.0459 19.3598C46.7957 19.4657 40.4901 23.8185 33.0333 29.0326L19.4755 38.5126L16.4406 43.0027L13.4057 47.4929V48.1863C13.4057 48.7421 13.4547 48.9491 13.6521 49.229C13.9461 49.6455 14.5885 50 15.0495 50C15.3444 50 23.7173 48.0038 25.158 47.59C25.605 47.4616 27.9135 45.8957 36.3471 40.0005C42.1912 35.9154 48.2079 31.7117 49.7173 30.6592C51.2268 29.6066 52.6214 28.5948 52.8164 28.4107C53.9187 27.3696 54.2762 25.689 53.6835 24.3348C53.4166 23.7248 51.4467 20.846 50.8898 20.252C50.1923 19.5082 49.5728 19.2412 48.4507 19.201C47.7153 19.1747 47.3978 19.2105 47.0459 19.3598ZM4.96118 20.1441C4.41534 20.4458 4.31137 21.1342 4.74531 21.5727L5.00435 21.8346L14.7996 21.8312C25.1621 21.8277 24.7832 21.846 25.0526 21.3349C25.2505 20.9591 25.1961 20.6656 24.8668 20.3328L24.5583 20.0209L14.8653 20.0241C8.05315 20.0265 5.10959 20.0621 4.96118 20.1441ZM29.0728 20.3328C28.6501 20.76 28.6931 21.3221 29.1773 21.6978C29.419 21.8854 39.8263 21.8854 40.0681 21.6978C40.5522 21.3221 40.5953 20.76 40.1726 20.3328L39.864 20.0209H34.6227H29.3814L29.0728 20.3328ZM49.1157 21.1316C49.2724 21.2144 49.5241 21.4184 49.6749 21.585C50.0942 22.0482 51.8834 24.6941 52.0503 25.0979C52.34 25.7988 52.1686 26.5572 51.604 27.0722C51.2917 27.357 47.1679 30.2554 47.0194 30.2943C46.9246 30.3193 42.9036 24.487 42.9388 24.3757C42.9619 24.3025 46.0155 22.1496 47.1739 21.3899C47.6808 21.0575 47.8937 20.9811 48.314 20.9811C48.5981 20.9811 48.9588 21.0488 49.1157 21.1316ZM4.74531 24.8704C4.30968 25.3106 4.42305 25.9978 4.9806 26.2981C5.32598 26.4839 24.28 26.4721 24.6444 26.2857C25.2148 25.9939 25.3171 25.2852 24.856 24.8192C24.6515 24.6124 24.4646 24.6085 14.826 24.6085H5.00435L4.74531 24.8704ZM29.2107 24.6798C29.0322 24.7525 28.7643 25.2876 28.7643 25.5715C28.7643 25.6963 28.9031 25.9387 29.0728 26.1103L29.3814 26.4221H31.402C33.4426 26.4221 33.7302 26.3762 34.0124 26.0047C34.2339 25.713 34.1733 25.1581 33.8885 24.8704C33.6299 24.6089 33.626 24.6085 31.4871 24.6169C30.3089 24.6215 29.2845 24.6499 29.2107 24.6798ZM43.4532 28.4035C44.5403 29.9836 45.4326 31.3101 45.4361 31.3512C45.4411 31.4125 43.7929 32.6149 43.3703 32.8581C43.2978 32.8999 42.4826 31.8045 41.2858 30.0572C40.2049 28.4789 39.2985 27.1234 39.2717 27.0449C39.2205 26.8948 41.1879 25.452 41.3746 25.5028C41.4307 25.5181 42.366 26.8234 43.4532 28.4035ZM39.7857 31.0524C40.8649 32.6309 41.7449 33.9512 41.7416 33.9863C41.7312 34.0923 25.6743 45.2524 25.5322 45.2524C25.4254 45.2524 21.3399 39.4289 21.4079 39.3733C21.419 39.3643 25.0816 36.8049 29.5469 33.6858C34.0123 30.5668 37.7014 28.0525 37.7448 28.0986C37.7881 28.1448 38.7066 29.4739 39.7857 31.0524ZM5.11951 29.1636C4.48121 29.4039 4.26767 30.2316 4.73043 30.6711L4.9748 30.903H14.7995C25.7897 30.903 25.008 30.9601 25.1366 30.1482C25.1853 29.8409 25.1454 29.7061 24.9314 29.4547L24.6659 29.1427L14.9719 29.1232C9.6402 29.1126 5.2066 29.1307 5.11951 29.1636ZM52.5065 31.0015L52.1979 31.3133L52.1956 36.3092C52.1935 40.9505 52.1794 41.336 51.9968 41.7423C51.8888 41.9828 51.6404 42.2948 51.445 42.4358L51.0896 42.6919L43.2428 42.7453L35.396 42.7986L35.1304 43.1107C34.9166 43.362 34.8767 43.4969 34.9253 43.8041C35.0526 44.6081 34.5082 44.559 43.2861 44.559C50.9382 44.559 51.1489 44.5535 51.7125 44.3404C52.4828 44.0491 53.2657 43.2942 53.6433 42.4786L53.9396 41.8384L53.9698 36.5797L54 31.321L53.6877 31.0053C53.2834 30.5967 52.9082 30.5955 52.5065 31.0015ZM4.96118 33.8001C4.41534 34.1018 4.31137 34.7901 4.74531 35.2286L5.00435 35.4905H12.8145H20.6246L20.8886 35.2505C21.2902 34.8853 21.2972 34.335 20.905 33.9388L20.646 33.6769L12.9091 33.6801C7.51312 33.6824 5.10843 33.7187 4.96118 33.8001ZM49.084 35.6194C48.6539 35.8688 48.6159 36.0283 48.6124 37.5976L48.609 39.1179H47.177C45.7411 39.1179 45.4225 39.1837 45.1554 39.5354C44.9338 39.8271 44.9944 40.3819 45.2792 40.6697C45.537 40.9303 45.5489 40.9316 47.6456 40.9316C48.8046 40.9316 49.8298 40.9017 49.9237 40.8653C50.327 40.7088 50.4035 40.2773 50.4035 38.1548V36.1142L50.0949 35.8024C49.771 35.475 49.4374 35.4146 49.084 35.6194ZM4.74531 38.5263C4.46052 38.8141 4.39993 39.3689 4.6215 39.6606C4.92835 40.0645 5.10041 40.0781 9.92352 40.0781H14.6359L14.9444 39.7662C15.3382 39.3683 15.3571 38.8933 14.9938 38.5263L14.7348 38.2644H9.86958H5.00435L4.74531 38.5263ZM22.0019 43.4808C22.941 44.8534 23.6712 46.0112 23.6243 46.0535C23.5775 46.0959 22.8029 46.3093 21.9031 46.5277C21.0032 46.7462 20.2116 46.9416 20.144 46.962C20.0402 46.9933 17.9975 44.1593 17.9975 43.984C17.9975 43.9229 19.4064 41.8044 19.8738 41.1626C20.0163 40.9669 20.1693 40.8469 20.2136 40.8959C20.258 40.9448 21.0627 42.108 22.0019 43.4808ZM17.5243 46.5401C17.8415 47.0007 18.0659 47.4084 18.0228 47.4461C17.9798 47.4838 17.3747 47.6481 16.678 47.8112C15.9813 47.9743 15.3461 48.1329 15.2664 48.1635C15.1867 48.1941 15.5111 47.6314 15.9872 46.9131C16.4634 46.1948 16.8742 45.6286 16.9002 45.6548C16.9263 45.6811 17.2071 46.0795 17.5243 46.5401Z" fill="black"/>
</svg>
