<svg width="46" height="46" viewBox="0 0 46 46" fill="none" xmlns="http://www.w3.org/2000/svg">
<path fill-rule="evenodd" clip-rule="evenodd" d="M19.8103 0.0998319C18.678 0.284696 17.3285 0.719524 17.0864 0.977489C16.7306 1.35657 16.8586 1.94083 17.3338 2.10664C17.557 2.1845 17.7364 2.15591 18.3697 1.94164C19.5632 1.53784 20.7787 1.36664 22.0034 1.42985C25.6331 1.61723 28.7573 3.66774 30.3865 6.93173C30.7587 7.6773 31.1375 8.83819 31.2256 9.50302L31.2888 9.97921L30.9829 9.77465C30.194 9.24712 28.5311 8.59515 27.9743 8.59515C27.8854 8.59515 27.0775 9.0815 26.179 9.67601C24.4247 10.8367 23.79 11.1454 22.7473 11.3451C21.9051 11.5064 21.2134 11.5064 20.3713 11.3451C19.3261 11.1449 18.6933 10.8364 16.9147 9.65956L15.2561 8.56224L14.7022 8.67616C13.9856 8.82344 12.9889 9.23984 12.3249 9.66945L11.7988 10.0099L11.8741 9.52864C12.055 8.37351 12.7077 6.77959 13.4342 5.71788C13.9274 4.99739 13.8816 4.48542 13.3045 4.26585C12.939 4.12675 12.6296 4.32852 12.1871 4.99461C10.3952 7.69178 9.9169 10.5579 10.6482 14.2148C10.6964 14.4556 10.6672 14.5033 10.3757 14.6593C9.68019 15.0314 9.15595 15.9032 9.1387 16.7164C9.12639 17.2955 9.55919 19.0892 9.86453 19.7246C9.98993 19.9855 10.2881 20.3822 10.527 20.6059C10.9551 21.0066 11.7565 21.4503 12.0554 21.452C12.1591 21.4527 12.3243 21.7008 12.5687 22.2227C13.2244 23.6232 14.3046 25.0163 15.3592 25.8212L15.8101 26.1655V27.6705C15.8101 29.1042 15.8005 29.1868 15.6068 29.4121C15.4135 29.6371 15.1638 29.6924 10.509 30.5416C7.81694 31.0327 5.40437 31.4955 5.14772 31.57C3.1004 32.164 1.28969 33.8149 0.533951 35.7765C0.0339558 37.0743 0 37.4506 0 41.6957V45.5583L0.220533 45.7789C0.512212 46.071 0.925072 46.071 1.21675 45.7789L1.43728 45.5583V41.7387C1.43728 37.4079 1.47187 37.0874 2.06924 35.8843C2.75375 34.5056 3.98882 33.4455 5.4182 33.0098C5.82253 32.8865 7.95222 32.4609 10.1508 32.064C12.3494 31.6671 14.2145 31.3273 14.2953 31.309C14.4088 31.2834 14.4734 31.4014 14.5791 31.8267C14.8015 32.7228 15.0745 33.3624 15.5368 34.0712C16.7894 35.9918 18.7868 37.1696 21.079 37.3392C21.7819 37.3911 21.8208 37.3839 22.0447 37.1599C22.3493 36.855 22.3544 36.4472 22.0574 36.1499C21.8852 35.9776 21.7424 35.9288 21.4061 35.9277C19.8679 35.9221 18.0632 35.021 17.0692 33.7624C16.6388 33.2174 16.1464 32.2103 15.9791 31.5329C15.8618 31.0577 15.8637 31.045 16.0781 30.9035C17.0383 30.2695 17.1896 29.9305 17.2311 28.3217L17.2637 27.0532L17.929 27.3118C19.1901 27.8019 20.041 27.9591 21.4694 27.9657C22.9128 27.9724 23.619 27.8643 24.7931 27.4571C27.3451 26.572 29.3798 24.722 30.5498 22.2227C30.7942 21.7008 30.9594 21.4527 31.0631 21.452C31.362 21.4503 32.1634 21.0066 32.5915 20.6059C32.8304 20.3822 33.1286 19.9855 33.254 19.7246C33.5549 19.0984 33.9804 17.338 33.9751 16.7416C33.9666 15.796 33.4625 15.0487 32.4479 14.4775C32.4338 14.4696 32.5058 14.0026 32.6078 13.4398C33.3086 9.57468 32.1519 5.86174 29.4031 3.15333C27.9023 1.6746 25.9758 0.658112 23.7601 0.176169C22.8513 -0.0214629 20.7966 -0.0612052 19.8103 0.0998319ZM14.5591 2.44813C14.318 2.75483 14.3232 3.04247 14.575 3.3355C14.8606 3.66792 15.319 3.67178 15.6005 3.34422C15.8595 3.04283 15.867 2.75735 15.6239 2.44813C15.4804 2.26534 15.3585 2.21121 15.0915 2.21121C14.8244 2.21121 14.7026 2.26534 14.5591 2.44813ZM16.2072 10.9281C16.8675 11.3705 17.6851 11.8716 18.0238 12.0417C20.3193 13.1938 22.8283 13.195 25.0947 12.045C25.4335 11.8732 26.2565 11.3669 26.9236 10.9199C28.3237 9.98199 28.2759 9.98865 29.4383 10.5711C30.2776 10.9918 30.8231 11.4412 31.1297 11.9648L31.3564 12.3521L31.0392 13.9631C30.8647 14.8493 30.7219 15.6178 30.7219 15.6711C30.7219 15.7277 30.981 15.7827 31.3442 15.8032C32.034 15.8423 32.2757 15.985 32.4833 16.4759C32.59 16.7282 32.5737 16.8791 32.3324 17.8696C32.167 18.5483 31.9754 19.1053 31.8398 19.3016C31.5362 19.7411 30.9811 20.0337 30.3314 20.0969L29.7948 20.1492L29.593 20.7487C28.677 23.4709 26.4272 25.5734 23.6253 26.3256C22.564 26.6106 20.5108 26.6105 19.4676 26.3254C16.647 25.5546 14.4504 23.4892 13.5209 20.7336L13.3237 20.1492L12.7872 20.0969C12.1368 20.0337 11.5814 19.7405 11.2804 19.3016C11.1512 19.1132 10.9458 18.5247 10.7838 17.879C10.5334 16.8808 10.5191 16.7504 10.6312 16.4853C10.8429 15.9847 11.0813 15.8425 11.7743 15.8032C12.1375 15.7827 12.3966 15.7277 12.3966 15.6711C12.3966 15.6178 12.2538 14.8493 12.0793 13.9631L11.7621 12.3521L11.9888 11.9648C12.1136 11.7517 12.3878 11.4288 12.5981 11.2471C13.1361 10.7823 14.4146 10.1472 14.8468 10.13C14.9345 10.1266 15.5467 10.4857 16.2072 10.9281ZM35.4393 22.3583C34.7244 22.4778 34.6004 22.5225 34.4075 22.7298C34.1548 23.0013 34.175 23.3889 34.4566 23.6708C34.6763 23.8905 34.7161 23.8984 35.2426 23.8241C35.5477 23.781 36.2622 23.7511 36.8304 23.7575C37.6639 23.7671 37.9965 23.8126 38.5522 23.9929C39.9972 24.4619 41.2337 25.4008 42.0506 26.6494C42.9006 27.9484 43.1185 28.9079 43.1185 31.3515V33.0519H42.3999H41.6812V31.4051C41.6812 29.4348 41.6003 28.9228 41.1358 27.954C40.2027 26.0081 38.0845 24.8937 35.9193 25.2095C34.292 25.447 32.869 26.4874 32.1657 27.954C31.7012 28.9228 31.6202 29.4348 31.6202 31.4051V33.0519H30.892H30.1637L30.2043 31.0064C30.2485 28.7744 30.3278 28.3471 30.9119 27.1876C31.2165 26.5828 31.2358 26.3218 30.9945 26.0626C30.3848 25.4076 29.6803 26.0301 29.1624 27.6812C28.8165 28.7842 28.7471 29.4063 28.7464 31.411C28.7458 33.0029 28.728 33.2318 28.6051 33.2318C28.3604 33.2318 27.5364 34.1438 27.4176 34.546C27.2623 35.0723 27.2623 43.9793 27.4176 44.5056C27.5634 44.9995 28.3076 45.7444 28.801 45.8903C29.0784 45.9723 31.0441 45.9996 36.6676 45.9996C45.1891 45.9996 44.7106 46.039 45.3911 45.2814C45.6047 45.0436 45.8275 44.6885 45.8863 44.4923C46.0394 43.9808 46.0372 35.0655 45.8838 34.546C45.7651 34.1438 44.9411 33.2318 44.6964 33.2318C44.5734 33.2318 44.5558 33.0022 44.5558 31.4003C44.5558 30.1655 44.5113 29.3136 44.4193 28.7853C43.8566 25.5557 41.2654 22.962 38.0388 22.3988C37.2017 22.2526 36.1669 22.2366 35.4393 22.3583ZM31.9 23.8582C31.7959 23.9447 31.6855 24.1453 31.6549 24.3041C31.608 24.5473 31.644 24.6375 31.8828 24.8766C32.1218 25.1157 32.2119 25.1517 32.4548 25.1047C33.0431 24.991 33.2538 24.3387 32.837 23.9216C32.5751 23.6594 32.172 23.6321 31.9 23.8582ZM38.1266 26.9216C38.9368 27.3011 39.4615 27.8176 39.8635 28.6314L40.199 29.3104L40.2293 31.1812L40.2597 33.0519H36.6507H33.0418L33.0722 31.1862L33.1024 29.3205L33.3868 28.7198C33.7477 27.9572 34.2616 27.3989 34.9319 27.0413C35.6395 26.6639 36.0267 26.5784 36.8528 26.6178C37.3919 26.6435 37.6791 26.712 38.1266 26.9216ZM44.3353 34.7113L44.5558 34.932V39.5258V44.1196L44.3353 44.3403L44.1148 44.561H36.6507H29.1866L28.9662 44.3403L28.7457 44.1196V39.5258V34.932L28.9662 34.7113L29.1866 34.4906H36.6507H44.1148L44.3353 34.7113ZM35.8077 36.0712C35.1799 36.2719 34.4667 37.0034 34.2777 37.6406C34.0964 38.2515 34.098 38.6696 34.2838 39.2453C34.4735 39.8335 34.9356 40.3722 35.493 40.6549L35.9321 40.8776V41.7792C35.9321 42.6168 35.9478 42.6967 36.1526 42.9016C36.2916 43.0408 36.4757 43.1224 36.6507 43.1224C36.8257 43.1224 37.0099 43.0408 37.1488 42.9016C37.3534 42.6969 37.3694 42.6162 37.3694 41.7868V40.8927L37.7512 40.6957C38.8586 40.1244 39.3889 38.9008 39.0439 37.7129C38.6618 36.3972 37.1642 35.6374 35.8077 36.0712ZM37.4059 37.7226C37.6418 37.9588 37.6838 38.068 37.6838 38.4468C37.6838 38.8308 37.6429 38.9339 37.3901 39.1869C37.1373 39.4399 37.0343 39.4808 36.6507 39.4808C36.2672 39.4808 36.1641 39.4399 35.9113 39.1869C35.6595 38.9349 35.6177 38.83 35.6177 38.4523C35.6177 37.9901 35.8467 37.6248 36.2465 37.449C36.5824 37.3014 37.1093 37.4257 37.4059 37.7226ZM5.96967 39.7465L5.74913 39.9672V42.7627V45.5583L5.96967 45.7789C6.10864 45.9181 6.29279 45.9996 6.46778 45.9996C6.64277 45.9996 6.82692 45.9181 6.96588 45.7789L7.18642 45.5583V42.7627V39.9672L6.96588 39.7465C6.82692 39.6073 6.64277 39.5258 6.46778 39.5258C6.29279 39.5258 6.10864 39.6073 5.96967 39.7465Z" fill="black"/>
</svg>
