<svg width="42" height="42" viewBox="0 0 42 42" fill="none" xmlns="http://www.w3.org/2000/svg">
<path d="M8.98385 1.00009C8.90954 0.998783 8.83571 1.01242 8.76677 1.0402C8.69782 1.06797 8.63515 1.10931 8.58249 1.16176C8.52983 1.21421 8.48824 1.27671 8.46019 1.34554C8.43214 1.41437 8.41821 1.48814 8.41922 1.56246V22.9363H1.56252C1.48816 22.9352 1.41435 22.9491 1.34547 22.9771C1.27658 23.0051 1.21405 23.0466 1.16157 23.0993C1.10909 23.152 1.06775 23.2147 1.04002 23.2837C1.01228 23.3527 0.99871 23.4266 1.00012 23.5009V40.4375C0.998596 40.5118 1.0121 40.5856 1.03983 40.6545C1.06755 40.7234 1.10893 40.786 1.16146 40.8386C1.21399 40.8911 1.27659 40.9324 1.34551 40.9602C1.41443 40.9879 1.48824 41.0014 1.56252 40.9999H18.4993C18.5736 41.0014 18.6474 40.9879 18.7163 40.9602C18.7852 40.9324 18.8478 40.8911 18.9004 40.8386C18.9529 40.786 18.9943 40.7234 19.022 40.6545C19.0497 40.5856 19.0632 40.5118 19.0617 40.4375V33.5782H40.4375C40.5118 33.5797 40.5856 33.5662 40.6545 33.5385C40.7234 33.5108 40.786 33.4694 40.8386 33.4169C40.8911 33.3644 40.9324 33.3018 40.9602 33.2328C40.9879 33.1639 41.0014 33.0901 40.9999 33.0158V1.5632C41.0014 1.48893 40.9879 1.41512 40.9602 1.34621C40.9324 1.27729 40.8911 1.21469 40.8386 1.16216C40.786 1.10963 40.7234 1.06827 40.6545 1.04054C40.5856 1.01282 40.5118 0.999311 40.4375 1.00083L8.98385 1.00009ZM9.54477 2.12334H39.8743V32.4512H19.061V23.4972C19.0625 23.4229 19.049 23.3491 19.0213 23.2802C18.9935 23.2113 18.9522 23.1487 18.8996 23.0961C18.8471 23.0436 18.7845 23.0022 18.7156 22.9745C18.6467 22.9468 18.5728 22.9333 18.4986 22.9348H9.54477V2.12334ZM29.1388 6.88416C28.9894 6.88416 28.8461 6.94353 28.7404 7.0492C28.6347 7.15488 28.5753 7.2982 28.5753 7.44765C28.5753 7.59709 28.6347 7.74042 28.7404 7.84609C28.8461 7.95177 28.9894 8.01113 29.1388 8.01113H33.1523L21.873 19.2898C21.7947 19.3681 21.7412 19.4678 21.7194 19.5763C21.6976 19.6849 21.7083 19.7975 21.7503 19.8999C21.7923 20.0024 21.8636 20.0902 21.9553 20.1522C22.047 20.2143 22.155 20.2478 22.2658 20.2487H22.271C22.3445 20.2492 22.4174 20.2349 22.4852 20.2067C22.5531 20.1784 22.6146 20.1368 22.666 20.0843L33.8895 8.86511V12.7563C33.8895 12.9055 33.9488 13.0485 34.0542 13.154C34.1597 13.2595 34.3028 13.3187 34.4519 13.3187C34.6011 13.3187 34.7441 13.2595 34.8496 13.154C34.9551 13.0485 35.0143 12.9055 35.0143 12.7563V7.45174C35.0156 7.37742 35.002 7.3036 34.9742 7.23466C34.9464 7.16572 34.9051 7.10306 34.8526 7.0504C34.8002 6.99774 34.7377 6.95615 34.6688 6.9281C34.6 6.90006 34.5262 6.88613 34.4519 6.88713L29.1388 6.88416ZM2.12492 24.0573H8.42294V33.0106C8.42204 33.085 8.43603 33.1589 8.46409 33.2278C8.49215 33.2967 8.5337 33.3593 8.58631 33.4119C8.63893 33.4645 8.70153 33.506 8.77044 33.5341C8.83935 33.5621 8.91317 33.5761 8.98757 33.5752H17.9377V39.8699H2.12492V24.0573ZM9.54254 24.0573H17.9377V32.4505H9.54254V24.0573Z" fill="#C73232" stroke="#C73232"/>
</svg>
