<svg width="31" height="42" viewBox="0 0 31 42" fill="none" xmlns="http://www.w3.org/2000/svg">
<path fill-rule="evenodd" clip-rule="evenodd" d="M27.7836 40.9999H3.19372C2.61553 41.001 2.06037 40.7674 1.6494 40.3502C1.23843 39.9329 1.00502 39.3658 1.00007 38.7726V3.27401C0.997775 2.97669 1.05278 2.68185 1.16193 2.40641C1.27107 2.13098 1.43221 1.88041 1.63606 1.66908C1.83992 1.45776 2.08248 1.28986 2.3498 1.17504C2.61711 1.06023 2.90392 1.00075 3.19372 1.00003H27.7836C28.0751 0.998395 28.364 1.05609 28.6336 1.16979C28.9033 1.28349 29.1482 1.45093 29.3544 1.66241C29.5605 1.8739 29.7237 2.12523 29.8345 2.40186C29.9453 2.67849 30.0016 2.97493 30 3.27401V38.7705C29.9941 39.3677 29.7574 39.938 29.3417 40.3561C28.9261 40.7742 28.3656 41.0057 27.7836 40.9999ZM3.19372 2.14801C2.90282 2.14801 2.62384 2.26657 2.41814 2.4776C2.21245 2.68864 2.09689 2.97487 2.09689 3.27332V38.7699C2.09784 38.9161 2.12705 39.0607 2.18284 39.1953C2.23862 39.3299 2.31986 39.4518 2.42186 39.554C2.52386 39.6561 2.6446 39.7365 2.77709 39.7905C2.90957 39.8445 3.05119 39.8709 3.19372 39.8684H27.7836C28.0703 39.8695 28.346 39.755 28.5512 39.5495C28.7564 39.344 28.8746 39.064 28.8804 38.7699V3.27332C28.8764 2.97614 28.7596 2.69228 28.5547 2.48212C28.3499 2.27196 28.0732 2.15209 27.7836 2.14801H3.19372Z" fill="#FC7754" stroke="#FC7754" stroke-width="0.7"/>
<path fill-rule="evenodd" clip-rule="evenodd" d="M21.1701 24.1512H9.81174C9.66017 24.1512 9.51481 24.0894 9.40764 23.9795C9.30046 23.8695 9.24023 23.7204 9.24023 23.5649C9.24023 23.4094 9.30046 23.2602 9.40764 23.1503C9.51481 23.0403 9.66017 22.9785 9.81174 22.9785H21.1701C21.3209 22.981 21.4649 23.0436 21.5716 23.153C21.6782 23.2624 21.7392 23.4101 21.7416 23.5649C21.7355 23.7184 21.6734 23.8639 21.5675 23.9725C21.4616 24.0812 21.3197 24.145 21.1701 24.1512Z" fill="#FC7754" stroke="#FC7754" stroke-width="0.7"/>
<path fill-rule="evenodd" clip-rule="evenodd" d="M24.7269 28.4871H6.28439C6.13282 28.4871 5.98746 28.4254 5.88028 28.3154C5.77311 28.2054 5.71289 28.0563 5.71289 27.9008C5.71289 27.7453 5.77311 27.5961 5.88028 27.4862C5.98746 27.3762 6.13282 27.3145 6.28439 27.3145H24.7269C24.8785 27.3145 25.0239 27.3762 25.1311 27.4862C25.2382 27.5961 25.2984 27.7453 25.2984 27.9008C25.2984 28.0563 25.2382 28.2054 25.1311 28.3154C25.0239 28.4254 24.8785 28.4871 24.7269 28.4871Z" fill="#FC7754" stroke="#FC7754" stroke-width="0.7"/>
<path fill-rule="evenodd" clip-rule="evenodd" d="M24.7269 32.8094H6.28439C6.13282 32.8094 5.98746 32.7476 5.88028 32.6377C5.77311 32.5277 5.71289 32.3786 5.71289 32.2231C5.71289 32.0676 5.77311 31.9184 5.88028 31.8085C5.98746 31.6985 6.13282 31.6367 6.28439 31.6367H24.7269C24.8785 31.6367 25.0239 31.6985 25.1311 31.8085C25.2382 31.9184 25.2984 32.0676 25.2984 32.2231C25.2984 32.3786 25.2382 32.5277 25.1311 32.6377C25.0239 32.7476 24.8785 32.8094 24.7269 32.8094Z" fill="#FC7754" stroke="#FC7754" stroke-width="0.7"/>
<path fill-rule="evenodd" clip-rule="evenodd" d="M24.7269 37.118H6.28439C6.13282 37.118 5.98746 37.0562 5.88028 36.9463C5.77311 36.8363 5.71289 36.6872 5.71289 36.5317C5.71289 36.3762 5.77311 36.227 5.88028 36.117C5.98746 36.0071 6.13282 35.9453 6.28439 35.9453H24.7269C24.8785 35.9453 25.0239 36.0071 25.1311 36.117C25.2382 36.227 25.2984 36.3762 25.2984 36.5317C25.2984 36.6872 25.2382 36.8363 25.1311 36.9463C25.0239 37.0562 24.8785 37.118 24.7269 37.118Z" fill="#FC7754" stroke="#FC7754" stroke-width="0.7"/>
<path fill-rule="evenodd" clip-rule="evenodd" d="M11.7884 20.1206H8.49731C8.42206 20.1214 8.34742 20.1067 8.27776 20.0775C8.2081 20.0483 8.14482 20.0051 8.09161 19.9505C8.03839 19.8959 7.99632 19.831 7.96786 19.7595C7.93939 19.6881 7.92509 19.6115 7.92581 19.5343V11.3756C7.92509 11.2984 7.93939 11.2218 7.96786 11.1503C7.99632 11.0789 8.03839 11.0139 8.09161 10.9593C8.14482 10.9047 8.2081 10.8616 8.27776 10.8324C8.34742 10.8032 8.42206 10.7885 8.49731 10.7892H11.7884C11.9209 10.7867 12.0526 10.8116 12.1755 10.8625C12.2984 10.9134 12.41 10.9891 12.5037 11.0853C12.5974 11.1814 12.6713 11.2959 12.7208 11.422C12.7704 11.5481 12.7947 11.6832 12.7923 11.8191V19.0406C12.7977 19.1797 12.7759 19.3185 12.728 19.4487C12.6801 19.5789 12.6071 19.6978 12.5134 19.7985C12.4198 19.8991 12.3073 19.9794 12.1827 20.0345C12.0582 20.0896 11.9241 20.1185 11.7884 20.1193V20.1206ZM9.0233 18.972H11.7001V11.9612H9.0233V18.972Z" fill="#FC7754" stroke="#FC7754" stroke-width="0.7"/>
<path fill-rule="evenodd" clip-rule="evenodd" d="M21.0121 20.1466H13.517C13.2893 20.1659 13.0601 20.1376 12.8434 20.0635C12.6266 19.9893 12.4268 19.8709 12.2559 19.7152C12.085 19.5596 11.9466 19.3701 11.8492 19.158C11.7517 18.946 11.6971 18.7159 11.6888 18.4817C11.688 18.4044 11.7023 18.3279 11.7308 18.2564C11.7593 18.1849 11.8013 18.12 11.8546 18.0654C11.9078 18.0108 11.971 17.9677 12.0407 17.9384C12.1104 17.9092 12.185 17.8946 12.2602 17.8953C12.4064 17.9003 12.5456 17.9606 12.6511 18.0645C12.7566 18.1684 12.8209 18.3087 12.8317 18.4583C12.8317 18.6458 12.9462 18.998 13.5632 18.998H21.0583C21.1154 18.998 21.1719 18.9864 21.2247 18.964C21.2775 18.9416 21.3254 18.9087 21.3658 18.8673C21.4062 18.8258 21.4383 18.7766 21.4601 18.7225C21.482 18.6683 21.4933 18.6103 21.4933 18.5517C21.4933 18.4931 21.482 18.435 21.4601 18.3809C21.4383 18.3268 21.4062 18.2776 21.3658 18.2361C21.3254 18.1947 21.2775 18.1618 21.2247 18.1394C21.1719 18.1169 21.1154 18.1054 21.0583 18.1054H17.5844C17.4336 18.1029 17.2896 18.0404 17.183 17.9309C17.0763 17.8215 17.0153 17.6738 17.0129 17.5191C17.0122 17.4419 17.0265 17.3653 17.055 17.2938C17.0835 17.2223 17.1255 17.1574 17.1787 17.1028C17.2319 17.0482 17.2952 17.0051 17.3649 16.9759C17.4345 16.9466 17.5092 16.932 17.5844 16.9327H21.0355C21.2678 16.9505 21.4998 16.8931 21.6987 16.7686C21.7317 16.7353 21.757 16.6948 21.7729 16.6501C21.7887 16.6055 21.7947 16.5578 21.7904 16.5105C21.7926 16.3871 21.749 16.2675 21.6683 16.176C21.5876 16.0846 21.4759 16.0281 21.3561 16.0182C21.2045 16.0182 21.0591 15.9564 20.952 15.8464C20.8448 15.7365 20.7846 15.5873 20.7846 15.4318C20.7846 15.2763 20.8448 15.1272 20.952 15.0172C21.0591 14.9073 21.2045 14.8455 21.3561 14.8455C21.595 14.8558 21.8321 14.799 22.042 14.6814C22.115 14.6243 22.1631 14.5399 22.1758 14.4466C22.1744 14.3243 22.1295 14.2067 22.0495 14.1161C21.9695 14.0254 21.86 13.9679 21.7415 13.9543C21.6663 13.955 21.5916 13.9404 21.522 13.9112C21.4523 13.882 21.389 13.8388 21.3358 13.7842C21.2826 13.7296 21.2405 13.6647 21.2121 13.5932C21.1836 13.5217 21.1693 13.4452 21.17 13.368C21.1724 13.2132 21.2334 13.0655 21.3401 12.9561C21.4467 12.8467 21.5907 12.7841 21.7415 12.7816C21.9342 12.799 22.1271 12.7508 22.2903 12.6443C22.3269 12.6077 22.3559 12.5639 22.3755 12.5155C22.3952 12.4672 22.4051 12.4152 22.4047 12.3628C22.405 12.3011 22.3933 12.24 22.3704 12.183C22.3476 12.126 22.3139 12.0742 22.2714 12.0306C22.2289 11.987 22.1784 11.9525 22.1229 11.929C22.0673 11.9055 22.0077 11.8936 21.9476 11.8939H18.1767C17.931 11.8346 17.7156 11.6837 17.5723 11.4705C17.4291 11.2573 17.3683 10.997 17.4017 10.7404C17.4095 9.97276 17.5093 9.20903 17.6989 8.46641C17.8806 7.81851 17.9805 7.14933 17.996 6.47531C17.996 6.05305 17.8621 5.93565 17.836 5.93565C17.7444 5.88896 17.4017 6.09974 17.0819 6.77946C15.8706 9.38232 14.7283 10.9059 13.608 11.3514C13.3027 11.4581 13.017 11.6166 12.7628 11.8204C12.7234 11.9551 12.635 12.0692 12.516 12.1391C12.3969 12.209 12.2563 12.2293 12.1231 12.1959C12.0524 12.1874 11.9842 12.1637 11.923 12.1263C11.8619 12.0889 11.8091 12.0387 11.7681 11.9789C11.7271 11.9192 11.6989 11.8513 11.6852 11.7796C11.6715 11.7079 11.6728 11.6341 11.6888 11.5629C11.7804 11.0706 12.2148 10.6704 13.1971 10.2969C13.6542 10.0861 14.6366 9.33563 16.054 6.28718C16.5338 5.20855 17.288 4.66958 18.0194 4.83368C18.6592 4.95108 19.048 5.58412 19.0707 6.47531C19.0545 7.23614 18.947 7.99203 18.7508 8.72594C18.575 9.38315 18.4828 10.0609 18.4765 10.7424H21.8821C22.2966 10.7475 22.6924 10.9203 22.9834 11.2232C23.2744 11.5262 23.437 11.9347 23.4359 12.36C23.4362 12.5693 23.396 12.7766 23.3175 12.9698C23.2391 13.163 23.124 13.3382 22.9789 13.4854L22.9334 13.5087C23.1323 13.7692 23.2373 14.0924 23.2305 14.4232C23.2288 14.6327 23.183 14.8393 23.0963 15.0289C23.0095 15.2185 22.8839 15.3866 22.7279 15.5218C22.6853 15.5358 22.6463 15.5592 22.6135 15.5904C22.7724 15.8508 22.8594 16.1505 22.8651 16.4576C22.8709 16.6683 22.8285 16.8774 22.7412 17.0682C22.6539 17.259 22.5242 17.4261 22.3625 17.5561C22.3398 17.6028 22.3398 17.6028 22.2956 17.6248C22.4476 17.8784 22.5269 18.1709 22.5245 18.4686C22.545 18.6825 22.521 18.8985 22.4541 19.1021C22.3871 19.3058 22.2787 19.4925 22.1361 19.65C21.9935 19.8074 21.8199 19.9319 21.6268 20.0153C21.4337 20.0987 21.2255 20.139 21.0161 20.1336L21.0121 20.1466Z" fill="#FC7754" stroke="#FC7754" stroke-width="0.7"/>
<path fill-rule="evenodd" clip-rule="evenodd" d="M21.3741 16.0184H17.9231C17.7715 16.0184 17.6261 15.9566 17.5189 15.8467C17.4118 15.7367 17.3516 15.5876 17.3516 15.4321C17.3516 15.2766 17.4118 15.1274 17.5189 15.0175C17.6261 14.9075 17.7715 14.8457 17.9231 14.8457H21.3741C21.4494 14.845 21.524 14.8597 21.5937 14.8889C21.6633 14.9181 21.7266 14.9612 21.7798 15.0158C21.8331 15.0704 21.8751 15.1354 21.9036 15.2068C21.9321 15.2783 21.9463 15.3549 21.9456 15.4321C21.9395 15.5856 21.8774 15.7311 21.7715 15.8397C21.6656 15.9484 21.5238 16.0122 21.3741 16.0184Z" fill="#FC7754" stroke="#FC7754" stroke-width="0.7"/>
<path fill-rule="evenodd" clip-rule="evenodd" d="M21.6788 13.9833H18.2512C18.0996 13.9833 17.9542 13.9215 17.8471 13.8115C17.7399 13.7016 17.6797 13.5524 17.6797 13.3969C17.6797 13.2414 17.7399 13.0923 17.8471 12.9823C17.9542 12.8724 18.0996 12.8106 18.2512 12.8106H21.7023C21.7775 12.8098 21.8521 12.8245 21.9218 12.8537C21.9915 12.8829 22.0548 12.9261 22.108 12.9807C22.1612 13.0353 22.2032 13.1002 22.2317 13.1717C22.2602 13.2431 22.2745 13.3197 22.2738 13.3969C22.2701 13.5554 22.2055 13.706 22.094 13.8158C21.9826 13.9257 21.8333 13.9859 21.6788 13.9833Z" fill="#FC7754" stroke="#FC7754" stroke-width="0.7"/>
</svg>
