<svg width="42" height="40" viewBox="0 0 42 40" fill="none" xmlns="http://www.w3.org/2000/svg">
<path d="M42.0003 36.3417C41.8093 36.6569 41.5963 36.9579 41.363 37.2425L39.3237 39.3659C39.226 39.5335 39.0919 39.6766 38.9316 39.7844C38.7712 39.8922 38.5887 39.9619 38.3979 39.9882C38.207 40.0146 38.0127 39.9969 37.8295 39.9365C37.6464 39.8761 37.4792 39.7746 37.3405 39.6396C37.2018 39.5046 37.0953 39.3395 37.0289 39.157C36.9624 38.9744 36.9379 38.779 36.957 38.5854C36.9761 38.3918 37.0385 38.2052 37.1393 38.0395C37.2402 37.8737 37.377 37.7333 37.5394 37.6286V37.3069H32.3774C32.0479 37.3069 31.7318 37.1747 31.4987 36.9394C31.2657 36.7041 31.1348 36.3849 31.1348 36.0522C31.1348 35.7194 31.2657 35.4003 31.4987 35.165C31.7318 34.9297 32.0479 34.7975 32.3774 34.7975H37.6668L37.2844 34.3471C37.0563 34.1167 36.9281 33.8042 36.9281 33.4784C36.9281 33.1526 37.0563 32.8402 37.2844 32.6098C37.5126 32.3794 37.8221 32.25 38.1448 32.25C38.4674 32.25 38.7769 32.3794 39.0051 32.6098C39.8973 33.4463 40.7257 34.3471 41.5542 35.2479C41.6037 35.4158 41.6037 35.5947 41.5542 35.7626L42.0003 36.3417Z" fill="#441ABB"/>
<path d="M27.0872 4.94184C27.1106 5.13415 27.1106 5.32861 27.0872 5.52093C27.1344 5.8174 27.0774 6.1212 26.9261 6.37971C26.7748 6.63823 26.5387 6.83519 26.2588 6.93648C26.0171 7.012 25.758 7.00916 25.518 6.92837C25.2779 6.84759 25.069 6.69292 24.9205 6.48608C24.5381 5.19921 24.2195 3.97669 23.9009 2.75416C23.8444 2.4558 23.9062 2.14698 24.0731 1.89423C24.24 1.64148 24.4985 1.46505 24.793 1.40295L28.1706 0.0517414C28.3296 0.00347633 28.4968 -0.0112396 28.6617 0.00850842C28.8266 0.0282564 28.9858 0.0820467 29.1292 0.166534C29.2727 0.251021 29.3974 0.364399 29.4956 0.499619C29.5938 0.63484 29.6634 0.789012 29.7 0.952549C29.7605 1.26709 29.7025 1.5931 29.5375 1.86679C29.3725 2.14049 29.1123 2.34219 28.8079 2.43244H28.3618H28.7441C31.8127 4.45224 34.2176 7.34719 35.6534 10.7497C37.0892 14.1522 37.4912 17.9088 36.8083 21.5424C36.1254 25.176 34.3885 28.5228 31.818 31.1577C29.2475 33.7927 25.9595 35.5969 22.3714 36.3414C21.1426 36.4688 19.9041 36.4688 18.6752 36.3414H1.53262C1.23154 36.381 0.925867 36.3209 0.661548 36.17C0.397228 36.0192 0.188552 35.7858 0.0668904 35.5049C0.00903668 35.3318 -0.0116414 35.1482 0.00623236 34.9664C0.0241061 34.7846 0.080122 34.6087 0.170553 34.4504C0.260983 34.2922 0.383756 34.1552 0.530702 34.0485C0.677649 33.9419 0.845401 33.8681 1.0228 33.832H18.2929C20.6133 33.8623 22.9143 33.402 25.0479 32.4808C27.4029 31.5032 29.4865 29.9612 31.1187 27.9881C32.7509 26.015 33.8826 23.6702 34.4158 21.1564C34.9121 18.0711 34.5074 14.9067 33.2512 12.05C31.9949 9.19328 29.9416 6.76796 27.3421 5.07052L27.0872 4.94184Z" fill="#441ABB"/>
<path d="M18.6747 7.45526C20.8705 7.4553 23.0168 8.11357 24.8417 9.34665C26.6665 10.5797 28.0877 12.3321 28.9251 14.3816C29.7624 16.4311 29.9783 18.6855 29.5452 20.859C29.1122 23.0325 28.0498 25.0272 26.4926 26.5904C24.9355 28.1535 22.9537 29.2147 20.7986 29.6394C18.6434 30.0641 16.4119 29.8332 14.3869 28.9759C12.3619 28.1187 10.6345 26.6737 9.42382 24.8241C8.21309 22.9745 7.5735 20.8037 7.58612 18.5867C7.5861 17.1194 7.87336 15.6667 8.43139 14.3119C8.98942 12.9572 9.8072 11.7272 10.8377 10.6927C11.8682 9.65825 13.0911 8.83966 14.4361 8.28405C15.781 7.72845 17.2215 7.44678 18.6747 7.45526ZM18.6747 27.3374C20.3734 27.3247 22.0305 26.8044 23.4368 25.8423C24.8432 24.8801 25.936 23.5191 26.5774 21.9308C27.2188 20.3425 27.3801 18.598 27.0409 16.9173C26.7018 15.2366 25.8775 13.6948 24.6718 12.4864C23.4661 11.2781 21.9331 10.4571 20.266 10.1272C18.5989 9.79717 16.8724 9.9729 15.3041 10.6322C13.7358 11.2915 12.3959 12.4048 11.4533 13.8319C10.5108 15.2589 10.0078 16.9358 10.0078 18.651C10.0244 20.9496 10.9362 23.1492 12.546 24.7746C14.1558 26.3999 16.3344 27.3205 18.6109 27.3374H18.6747Z" fill="#441ABB"/>
<path d="M0.00500172 19.3596C-0.0912376 15.154 1.20371 11.0359 3.68511 7.65654C6.16651 4.27718 9.69277 1.82935 13.7063 0.700074C15.2683 0.293093 16.8729 0.0770679 18.4859 0.0566406C18.7763 0.0962482 19.0458 0.231013 19.253 0.440241C19.4603 0.649469 19.5937 0.921591 19.633 1.21482C19.6422 1.38626 19.6155 1.55773 19.5547 1.71806C19.4939 1.8784 19.4003 2.02401 19.2801 2.14541C19.1599 2.26681 19.0157 2.36128 18.8569 2.42266C18.6981 2.48405 18.5282 2.51098 18.3584 2.50169C16.1716 2.43837 13.9972 2.8555 11.9857 3.72421C9.49065 4.80384 7.31898 6.52416 5.68668 8.71408C4.05438 10.904 3.01832 13.4872 2.68154 16.2068C2.27464 18.6344 2.4437 21.1248 3.17484 23.4737C3.90598 25.8225 5.17835 27.9628 6.88754 29.7189L7.33363 30.2337C7.44731 30.3473 7.53755 30.4826 7.59913 30.6317C7.66072 30.7808 7.69243 30.9408 7.69243 31.1023C7.69243 31.2638 7.66072 31.4238 7.59913 31.5729C7.53755 31.722 7.44731 31.8573 7.33363 31.9709C7.09538 32.2067 6.77506 32.3388 6.44145 32.3388C6.10783 32.3388 5.78752 32.2067 5.54927 31.9709C3.72995 30.1489 2.31762 27.955 1.407 25.5366C0.549635 23.5881 0.0735616 21.4906 0.00500172 19.3596Z" fill="#441ABB"/>
<path d="M17.4653 20.5149L19.632 18.3916L21.4164 16.5899C21.5417 16.4514 21.6943 16.3408 21.8644 16.2652C22.0345 16.1895 22.2183 16.1504 22.4041 16.1504C22.59 16.1504 22.7738 16.1895 22.9439 16.2652C23.1139 16.3408 23.2665 16.4514 23.3919 16.5899C23.5191 16.7158 23.6201 16.8659 23.6891 17.0316C23.758 17.1974 23.7936 17.3753 23.7936 17.5551C23.7936 17.7349 23.758 17.9128 23.6891 18.0785C23.6201 18.2443 23.5191 18.3944 23.3919 18.5202L18.6124 23.346C18.4936 23.5058 18.3397 23.6355 18.1627 23.7249C17.9857 23.8142 17.7906 23.8607 17.5927 23.8607C17.3949 23.8607 17.1997 23.8142 17.0227 23.7249C16.8458 23.6355 16.6918 23.5058 16.5731 23.346C15.8084 22.6382 15.0436 21.8661 14.3426 21.094C14.197 20.9797 14.0792 20.8333 13.9982 20.6661C13.9171 20.4988 13.875 20.315 13.875 20.1288C13.875 19.9426 13.9171 19.7589 13.9982 19.5916C14.0792 19.4243 14.197 19.278 14.3426 19.1637C14.468 19.0252 14.6206 18.9146 14.7907 18.8389C14.9607 18.7632 15.1446 18.7241 15.3304 18.7241C15.5163 18.7241 15.7001 18.7632 15.8701 18.8389C16.0402 18.9146 16.1928 19.0252 16.3182 19.1637L17.6565 20.5792L17.4653 20.5149Z" fill="#441ABB"/>
</svg>
