<svg width="37" height="40" viewBox="0 0 37 40" fill="none" xmlns="http://www.w3.org/2000/svg">
<path d="M30.0212 39.9169C28.7455 39.3248 27.6283 38.4418 26.7604 37.3396C26.6692 37.2954 26.5692 37.2725 26.4678 37.2725C26.3664 37.2725 26.2663 37.2954 26.1751 37.3396H2.848C2.48283 37.3623 2.11686 37.3103 1.7727 37.1868C1.42854 37.0634 1.1135 36.871 0.84707 36.6217C0.580637 36.3723 0.368469 36.0713 0.223678 35.7371C0.0788865 35.403 0.00455221 35.0429 0.00526756 34.6791C0.00526756 32.6006 0.00526756 30.6053 0.00526756 28.5268C-0.00817729 28.4144 0.00419601 28.3005 0.04146 28.1935C0.078724 28.0866 0.139905 27.9894 0.220397 27.9094C0.300889 27.8293 0.398592 27.7685 0.506153 27.7314C0.613713 27.6944 0.728329 27.6821 0.841365 27.6955C0.841365 27.6955 1.59385 27.6954 1.59385 28.61V34.2634C1.51597 34.5633 1.51597 34.878 1.59385 35.1779C1.59385 35.1779 1.59385 35.7599 2.51356 35.7599H25.4227L24.5029 33.5983C24.0613 32.3394 23.8078 31.0229 23.7505 29.6908C23.696 29.244 23.7888 28.7918 24.015 28.402C24.2411 28.0122 24.5884 27.7059 25.0046 27.5292L29.1851 25.2844C29.1851 25.2844 29.1851 25.2844 29.1851 24.7025C29.1851 22.1251 29.1851 19.5478 29.1851 17.0537C29.2257 16.8059 29.2257 16.5532 29.1851 16.3054C29.1441 16.0776 29.0178 15.8737 28.8316 15.7349C28.6454 15.596 28.4132 15.5325 28.1818 15.5572H2.68078C2.54216 15.5457 2.40265 15.5629 2.2711 15.6079C2.13956 15.6528 2.01884 15.7245 1.91663 15.8183C1.81442 15.9121 1.73295 16.026 1.67738 16.1528C1.62181 16.2796 1.59337 16.4165 1.59385 16.5548V21.3769C1.60557 21.4929 1.59265 21.61 1.55591 21.7206C1.51918 21.8313 1.45945 21.9331 1.38061 22.0193C1.30177 22.1055 1.20558 22.1743 1.09828 22.2212C0.990973 22.2681 0.874955 22.292 0.757753 22.2914L0.00526756 21.3769V16.7211C0.0147266 16.1053 0.187797 15.503 0.506926 14.9752C0.739692 14.6386 1.05203 14.364 1.41649 14.1756C1.78096 13.9871 2.18639 13.8906 2.59717 13.8944H3.18244V12.1485C3.28442 9.40786 4.34952 6.78954 6.19239 4.74913C7.61047 2.84375 9.57613 1.41062 11.8301 0.638811C14.084 -0.133002 16.5203 -0.207236 18.8175 0.425905C21.057 0.975149 23.0908 2.15256 24.6768 3.81805C26.2628 5.48354 27.3343 7.56702 27.7637 9.8206C27.8466 10.6777 27.8466 11.5408 27.7637 12.3979C27.8056 12.8959 27.8056 13.3964 27.7637 13.8944H28.1818C28.5736 13.8324 28.9744 13.8578 29.3552 13.9688C29.736 14.0798 30.0871 14.2737 30.3832 14.5363C30.6794 14.7989 30.913 15.1237 31.0673 15.4872C31.2216 15.8507 31.2927 16.2438 31.2753 16.638C31.2753 19.2153 31.2753 21.7926 31.2753 24.3699C31.2468 24.5667 31.2901 24.7673 31.3975 24.935C31.5049 25.1028 31.6692 25.2268 31.8606 25.2844L35.8739 27.446C36.2746 27.6532 36.5971 27.9839 36.7931 28.3885C36.989 28.7932 37.0479 29.2501 36.9608 29.6908C36.8561 31.6794 36.2834 33.6159 35.2886 35.3442C34.4888 36.8594 33.3779 38.1906 32.0278 39.2517L30.6901 40L30.0212 39.9169ZM22.9144 13.8944V11.6496C22.8099 9.92087 22.0554 8.29436 20.8008 7.09304C19.5463 5.89172 17.8832 5.20343 16.142 5.16482C15.0906 5.15086 14.049 5.36634 13.0904 5.79609C12.1319 6.22583 11.2798 6.85938 10.5943 7.65208C9.90867 8.44479 9.40626 9.37735 9.12243 10.3841C8.8386 11.3908 8.78026 12.4471 8.95152 13.4787L22.9144 13.8944ZM7.27932 13.8944V12.2316C7.27932 11.7328 7.27932 11.3171 7.27932 10.8183C7.62427 8.84058 8.64406 7.04152 10.167 5.72406C11.6899 4.4066 13.6228 3.65124 15.6403 3.58518C17.4952 3.50635 19.3238 4.0437 20.8376 5.11248C22.3515 6.18127 23.4646 7.7207 24.0013 9.48804C24.3036 10.4564 24.4448 11.4674 24.4193 12.481V13.8944H26.5932C26.9017 11.8327 26.6088 9.72631 25.7492 7.82524C24.8896 5.92418 23.4995 4.30831 21.7438 3.16949C20.0205 1.95613 17.9609 1.3045 15.8493 1.3045C13.7377 1.3045 11.6782 1.95613 9.95483 3.16949C8.13018 4.25665 6.66644 5.85231 5.74499 7.75871C4.82354 9.66511 4.4849 11.7985 4.77102 13.8944H7.27932ZM25.339 29.6908C25.466 31.3534 25.9507 32.9695 26.7604 34.4297C27.5238 35.852 28.612 37.0764 29.9376 38.0047C30.0613 38.0869 30.2068 38.1308 30.3556 38.1308C30.5045 38.1308 30.6499 38.0869 30.7737 38.0047C31.8785 37.2264 32.8164 36.2372 33.5328 35.0948C34.5841 33.4716 35.216 31.6153 35.3722 29.6908C35.4166 29.6001 35.4396 29.5006 35.4396 29.3998C35.4396 29.299 35.4166 29.1995 35.3722 29.1088L31.0245 26.7809C31.0245 26.7809 31.0245 26.7809 30.3556 26.7809L26.3424 28.9425C25.5063 28.9425 25.1718 29.1919 25.339 29.6908Z" fill="#0092FF"/>
<path d="M7.35551 25.4428C6.96024 25.0934 6.63804 24.6701 6.40731 24.1969C6.17659 23.7237 6.04185 23.2099 6.01079 22.685C5.97974 22.16 6.05297 21.6341 6.22632 21.1373C6.39966 20.6404 6.66972 20.1824 7.02107 19.7894C7.37242 19.3963 7.79819 19.0759 8.27407 18.8465C8.74994 18.6171 9.2666 18.4831 9.79454 18.4522C10.3225 18.4213 10.8514 18.4942 11.351 18.6665C11.8507 18.8389 12.3113 19.1074 12.7065 19.4568C13.1336 19.8313 13.4756 20.2919 13.7099 20.8079C13.9441 21.3239 14.0653 21.8836 14.0653 22.4498C14.0653 23.016 13.9441 23.5757 13.7099 24.0917C13.4756 24.6078 13.1336 25.0683 12.7065 25.4428C13.5428 25.9314 14.2417 26.6218 14.7386 27.4501C15.2354 28.2784 15.5143 29.2179 15.5493 30.1817C15.5611 30.4578 15.5151 30.7333 15.4143 30.9908C15.3134 31.2483 15.1599 31.4822 14.9634 31.6776C14.7669 31.873 14.5317 32.0257 14.2727 32.126C14.0138 32.2262 13.7367 32.272 13.459 32.2602H6.18497C5.89476 32.2773 5.60443 32.2287 5.33582 32.1181C5.06721 32.0075 4.82732 31.8378 4.63418 31.6217C4.44103 31.4057 4.29966 31.1489 4.22071 30.8706C4.14176 30.5924 4.12727 30.3 4.17834 30.0154C4.24753 29.0821 4.54205 28.1792 5.03692 27.3832C5.53179 26.5872 6.21241 25.9216 7.02107 25.4428H7.35551ZM9.94741 31.0131H13.5426C13.5426 31.0131 14.546 30.8468 14.546 30.348C14.5149 29.6338 14.2832 28.9425 13.8771 28.3527C13.3945 27.634 12.7065 27.0757 11.9017 26.7497C11.0969 26.4236 10.2124 26.3449 9.36215 26.5236C8.51867 26.7895 7.77025 27.2918 7.2067 27.9702C6.64315 28.6485 6.28839 29.4741 6.18497 30.348C6.18497 30.8468 6.18497 30.93 6.77024 30.93L9.94741 31.0131ZM9.94741 19.9556C9.30435 19.9556 8.68762 20.2097 8.2329 20.6618C7.77819 21.114 7.52273 21.7272 7.52273 22.3667C7.52237 23.014 7.77513 23.6361 8.22759 24.1016C8.68005 24.567 9.29677 24.8393 9.94741 24.8608C10.5912 24.8197 11.1965 24.5414 11.6449 24.0801C12.0933 23.6189 12.3526 23.0079 12.3721 22.3667C12.3721 21.7272 12.1166 21.114 11.6619 20.6618C11.2072 20.2097 10.5905 19.9556 9.94741 19.9556Z" fill="#0092FF"/>
<path d="M20.9868 22.2911H17.6424C17.0571 22.2911 16.7227 22.2911 16.7227 21.5429C16.7221 21.4263 16.7461 21.311 16.7933 21.2043C16.8404 21.0976 16.9096 21.0019 16.9963 20.9235C17.0831 20.8451 17.1854 20.7858 17.2967 20.7492C17.408 20.7127 17.5258 20.6998 17.6424 20.7115H24.4148C24.5403 20.6704 24.6739 20.6596 24.8045 20.6798C24.9351 20.7001 25.0591 20.7508 25.1661 20.8279C25.2732 20.905 25.3604 21.0062 25.4205 21.1232C25.4806 21.2403 25.5119 21.3699 25.5119 21.5013C25.5119 21.6327 25.4806 21.7623 25.4205 21.8794C25.3604 21.9964 25.2732 22.0977 25.1661 22.1747C25.0591 22.2518 24.9351 22.3026 24.8045 22.3228C24.6739 22.343 24.5403 22.3322 24.4148 22.2911H20.9868Z" fill="#0092FF"/>
<path d="M19.9051 24.9414H22.2462C22.8314 24.9414 23.1659 24.9414 23.1659 25.6897C23.145 25.9175 23.0389 26.1293 22.8686 26.2832C22.6984 26.4371 22.4763 26.522 22.2462 26.521H17.564C17.451 26.5344 17.3364 26.5221 17.2288 26.4851C17.1212 26.448 17.0235 26.3872 16.9431 26.3071C16.8626 26.2271 16.8014 26.1299 16.7641 26.023C16.7269 25.916 16.7145 25.8021 16.7279 25.6897C16.7279 25.6897 16.7279 24.9414 17.6476 24.9414H19.9051Z" fill="#0092FF"/>
<path d="M1.58858 24.622C1.56779 24.8278 1.4706 25.0185 1.316 25.1569C1.16139 25.2952 0.960479 25.3713 0.752486 25.3703C0.552913 25.3703 0.361515 25.2914 0.220396 25.1511C0.0792769 25.0108 0 24.8205 0 24.622C0 24.4236 0.0792769 24.2333 0.220396 24.0929C0.361515 23.9526 0.552913 23.8738 0.752486 23.8738C0.858094 23.862 0.965007 23.8727 1.06619 23.905C1.16736 23.9373 1.26051 23.9905 1.3395 24.0612C1.41849 24.1319 1.48152 24.2184 1.52445 24.3151C1.56739 24.4118 1.58924 24.5164 1.58858 24.622Z" fill="#0092FF"/>
<path d="M29.6743 32.5205L32.0154 30.3589C32.1552 30.2786 32.3138 30.2363 32.4752 30.2363C32.6366 30.2363 32.7952 30.2786 32.9351 30.3589C33.0385 30.4271 33.1234 30.5198 33.1821 30.6286C33.2409 30.7374 33.2716 30.8589 33.2716 30.9824C33.2716 31.1059 33.2409 31.2274 33.1821 31.3362C33.1234 31.445 33.0385 31.5377 32.9351 31.6059C32.0153 32.6036 31.0956 33.6013 30.0923 34.5158C30.0221 34.5887 29.9377 34.6468 29.8443 34.6864C29.7509 34.7261 29.6504 34.7465 29.5489 34.7465C29.4473 34.7465 29.3468 34.7261 29.2534 34.6864C29.16 34.6468 29.0756 34.5887 29.0054 34.5158L27.9185 33.0193C27.7743 32.876 27.6934 32.6816 27.6934 32.4789C27.6934 32.2762 27.7743 32.0818 27.9185 31.9385C28.0626 31.7952 28.2581 31.7146 28.4619 31.7146C28.6658 31.7146 28.8613 31.7952 29.0054 31.9385L29.6743 32.5205Z" fill="#0092FF"/>
</svg>
