<svg width="40" height="40" viewBox="0 0 40 40" fill="none" xmlns="http://www.w3.org/2000/svg">
<path d="M17.1453 26.0724C17.6019 26.0229 18.0232 25.8033 18.3253 25.4575C18.6275 25.1117 18.7884 24.6649 18.7761 24.2059C18.7761 22.0574 18.8371 19.9013 18.7761 17.7605C18.7397 17.248 18.8127 16.7337 18.9905 16.2518C19.1682 15.7698 19.4466 15.3311 19.807 14.965C20.1674 14.5989 20.6017 14.3137 21.081 14.1284C21.5602 13.943 22.0734 13.8618 22.5865 13.8902H22.8608V4.07731C22.8225 3.53384 22.9012 2.98847 23.0917 2.47801C23.2821 1.96754 23.5799 1.50386 23.9649 1.11825C24.3499 0.732644 24.8131 0.434085 25.3234 0.242719C25.8336 0.0513522 26.379 -0.0283657 26.9227 0.00894226H35.9456C36.4853 -0.025622 37.0262 0.0550734 37.5323 0.245666C38.0384 0.436258 38.4982 0.732378 38.8809 1.11434C39.2637 1.4963 39.5608 1.95535 39.7524 2.46097C39.944 2.96659 40.0257 3.50719 39.9922 4.04684V23.7106C40.0269 24.2509 39.946 24.7924 39.7549 25.2989C39.5638 25.8054 39.2669 26.2654 38.884 26.6483C38.5011 27.0311 38.0409 27.3279 37.5342 27.5189C37.0276 27.71 36.486 27.7908 35.9456 27.7562H26.8922C26.3557 27.7882 25.8186 27.7063 25.316 27.5161C24.8134 27.3259 24.3568 27.0315 23.976 26.6523C23.5953 26.2731 23.2991 25.8177 23.1069 25.316C22.9147 24.8142 22.8309 24.2776 22.8608 23.7411V15.5891C22.5753 15.5062 22.2743 15.491 21.9818 15.5447C21.6893 15.5984 21.4134 15.7196 21.1759 15.8986C20.9384 16.0776 20.746 16.3094 20.6138 16.5757C20.4817 16.8421 20.4135 17.1356 20.4146 17.4329C20.4146 19.5813 20.4146 21.7298 20.4146 23.8783C20.5027 24.7995 20.2267 25.7187 19.6456 26.4391C19.0646 27.1595 18.2246 27.6241 17.3054 27.7333L17.1453 27.779V35.9082C17.1801 36.4541 17.098 37.0012 16.9045 37.5129C16.711 38.0246 16.4107 38.4892 16.0234 38.8756C15.6361 39.2621 15.1708 39.5616 14.6586 39.754C14.1464 39.9465 13.599 40.0275 13.053 39.9918H4.03772C3.50059 40.0239 2.96275 39.9419 2.4596 39.7512C1.95646 39.5605 1.49943 39.2654 1.11858 38.8854C0.737735 38.5053 0.441714 38.049 0.250013 37.5463C0.0583127 37.0437 -0.0247252 36.5061 0.0063665 35.9691V16.2672C-0.0236074 15.7308 0.060261 15.1941 0.252461 14.6923C0.444661 14.1906 0.740847 13.7352 1.12157 13.356C1.50229 12.9768 1.95894 12.6825 2.46152 12.4922C2.96411 12.302 3.50126 12.2202 4.03772 12.2522H13.1368C13.6695 12.2248 14.2019 12.3095 14.6997 12.5008C15.1975 12.6922 15.6496 12.9858 16.0267 13.3629C16.4038 13.7399 16.6976 14.1918 16.8889 14.6895C17.0803 15.1872 17.1651 15.7195 17.1377 16.252C17.1377 19.3604 17.1377 22.4739 17.1377 25.5925L17.1453 26.0724ZM24.4993 21.1965H38.3385V6.56862H24.5222V13.8673H30.6187L30.4968 13.7073C30.4056 13.6324 30.3316 13.5387 30.2798 13.4327C30.2281 13.3266 30.1997 13.2107 30.1967 13.0927C30.1937 12.9747 30.2161 12.8575 30.2624 12.7489C30.3087 12.6404 30.3778 12.5431 30.4651 12.4636C30.5523 12.3841 30.6556 12.3243 30.768 12.2882C30.8804 12.2522 30.9992 12.2407 31.1165 12.2546C31.2337 12.2686 31.3465 12.3075 31.4474 12.3689C31.5482 12.4302 31.6346 12.5125 31.7009 12.6102L33.1793 14.073C33.2632 14.1338 33.3338 14.211 33.3869 14.2999C33.4399 14.3889 33.4743 14.4877 33.4878 14.5904C33.5014 14.6931 33.4938 14.7975 33.4657 14.8971C33.4375 14.9968 33.3893 15.0897 33.3241 15.1701C32.7296 15.8025 32.1048 16.4196 31.4646 16.9986C31.3106 17.1157 31.1178 17.1698 30.9253 17.15C30.7328 17.1302 30.5551 17.0379 30.4282 16.8919C30.293 16.762 30.2105 16.5868 30.1964 16.3998C30.1824 16.2129 30.2378 16.0273 30.352 15.8786C30.4298 15.765 30.5138 15.6556 30.6035 15.551H24.5069L24.4993 21.1965ZM15.4764 33.4549V27.7562C14.2418 27.7562 13.0301 27.7562 11.8185 27.7562C11.6773 27.7311 11.532 27.7615 11.4127 27.841C11.2935 27.9205 11.2095 28.043 11.1783 28.1828C10.9027 28.8775 10.3936 29.4545 9.73853 29.8146C9.08348 30.1748 8.3234 30.2955 7.58896 30.156C6.84292 30.0229 6.16676 29.6336 5.67714 29.0553C5.18753 28.477 4.91516 27.746 4.90703 26.9884C4.8989 26.2308 5.15552 25.4941 5.63261 24.9055C6.10971 24.3168 6.77736 23.9131 7.52037 23.764C8.27816 23.6015 9.06915 23.7188 9.74716 24.0941C10.4252 24.4695 10.9444 25.0775 11.2088 25.8058C11.2344 25.9151 11.3006 26.0105 11.394 26.0728C11.4874 26.135 11.601 26.1594 11.7118 26.141C12.6872 26.141 13.6703 26.141 14.6457 26.141H15.4916V18.8271H1.6753V33.4778L15.4764 33.4549ZM24.4612 4.87728H38.3537C38.3537 4.46587 38.3537 4.11541 38.3537 3.704C38.3248 3.15469 38.0885 2.6368 37.6924 2.25498C37.2963 1.87315 36.7701 1.65585 36.2199 1.64695H26.6331C26.1441 1.64705 25.6704 1.81749 25.2935 2.12895C24.9166 2.44041 24.66 2.87343 24.5679 3.35354C24.5007 3.85874 24.4651 4.36764 24.4612 4.87728ZM15.5069 17.1357C15.5069 16.8157 15.5069 16.5339 15.5069 16.252C15.532 15.9351 15.4882 15.6165 15.3784 15.3182C15.2687 15.0198 15.0957 14.7488 14.8712 14.5236C14.6467 14.2985 14.3762 14.1246 14.0781 14.014C13.78 13.9033 13.4615 13.8585 13.1444 13.8826H3.99962C3.80795 13.8747 3.61604 13.89 3.42806 13.9283C1.94203 14.2635 1.40096 15.5053 1.69816 17.1357H15.5069ZM38.369 22.8878H24.4917C24.4917 23.2611 24.4917 23.6497 24.4917 23.9697C24.5015 24.5344 24.7302 25.0733 25.1297 25.4727C25.5292 25.872 26.0682 26.1007 26.6331 26.1105C29.8236 26.1105 33.0167 26.1105 36.2123 26.1105C36.7143 26.1099 37.1998 25.9311 37.5822 25.606C37.9646 25.2809 38.2191 24.8306 38.3004 24.3354C38.3601 23.8527 38.3881 23.3666 38.3842 22.8802L38.369 22.8878ZM1.62196 35.0777V35.9082C1.59291 36.2319 1.63519 36.5581 1.74583 36.8638C1.85646 37.1695 2.03277 37.4472 2.26234 37.6775C2.4919 37.9077 2.76914 38.0848 3.07456 38.1964C3.37997 38.308 3.70614 38.3513 4.0301 38.3233C7.01741 38.3233 10.0047 38.3233 12.9997 38.3233C14.7296 38.3233 15.8269 37.089 15.4307 35.0625L1.62196 35.0777ZM8.16052 25.2801C7.83765 25.2786 7.5216 25.3729 7.25241 25.5512C6.98322 25.7294 6.773 25.9835 6.6484 26.2813C6.5238 26.5791 6.49042 26.9071 6.55248 27.2239C6.61454 27.5406 6.76926 27.8319 6.99703 28.0606C7.2248 28.2894 7.51536 28.4455 7.83192 28.509C8.14848 28.5725 8.47678 28.5407 8.77522 28.4175C9.07366 28.2943 9.3288 28.0854 9.50834 27.8171C9.68788 27.5488 9.78372 27.2333 9.78372 26.9105C9.77396 26.4879 9.60119 26.0855 9.30152 25.7873C9.00185 25.4891 8.59848 25.3183 8.17576 25.3106L8.16052 25.2801Z" fill="#88E43F"/>
<path d="M13.458 3.2756C13.7016 3.27107 13.941 3.33913 14.1457 3.47112C14.3505 3.60311 14.5113 3.79306 14.6077 4.01676C14.7041 4.24045 14.7317 4.48777 14.6869 4.72719C14.6422 4.96662 14.5272 5.18731 14.3565 5.36115C14.1859 5.53499 13.9673 5.6541 13.7287 5.70331C13.4901 5.75252 13.2423 5.7296 13.0167 5.63747C12.7912 5.54534 12.5982 5.38817 12.4624 5.18599C12.3265 4.98381 12.2539 4.74578 12.2539 4.50221C12.2558 4.18141 12.3825 3.87394 12.6073 3.64497C12.8321 3.416 13.1372 3.28352 13.458 3.2756Z" fill="#88E43F"/>
<path d="M38.3605 32.2423C38.359 32.4837 38.2858 32.7193 38.1502 32.919C38.0146 33.1188 37.8227 33.2738 37.5989 33.3644C37.3751 33.4551 37.1294 33.4772 36.893 33.4281C36.6566 33.3789 36.4401 33.2607 36.2709 33.0884C36.1018 32.9161 35.9876 32.6975 35.9429 32.4603C35.8982 32.223 35.925 31.9778 36.0199 31.7558C36.1147 31.5338 36.2734 31.345 36.4757 31.2132C36.678 31.0814 36.915 31.0127 37.1564 31.0157C37.4772 31.0236 37.7823 31.1561 38.0071 31.3851C38.2318 31.6141 38.3586 31.9215 38.3605 32.2423Z" fill="#88E43F"/>
<path d="M3.26113 5.72214C3.09799 5.72027 2.93917 5.66952 2.80519 5.57645C2.67121 5.48337 2.56824 5.35226 2.50959 5.20006C2.45094 5.04786 2.43931 4.88158 2.47619 4.7227C2.51308 4.56382 2.59678 4.41965 2.71649 4.30884C2.8362 4.19802 2.98641 4.12566 3.14769 4.10109C3.30898 4.07653 3.47393 4.1009 3.62121 4.17105C3.7685 4.24121 3.89135 4.35392 3.97388 4.49461C4.05641 4.63531 4.09483 4.79752 4.08416 4.96028C4.06875 5.16777 3.97527 5.36172 3.82256 5.50308C3.66985 5.64444 3.46925 5.72272 3.26113 5.72214Z" fill="#88E43F"/>
<path d="M20.4062 8.17632C20.4059 8.33975 20.3564 8.4993 20.2642 8.63427C20.172 8.76924 20.0414 8.87339 19.8893 8.93321C19.7371 8.99302 19.5705 9.00575 19.4111 8.96973C19.2516 8.9337 19.1067 8.8506 18.9951 8.7312C18.8834 8.61179 18.8103 8.46161 18.7851 8.30013C18.7599 8.13865 18.7839 7.97333 18.8539 7.82563C18.9239 7.67793 19.0366 7.55466 19.1775 7.47183C19.3185 7.389 19.481 7.35043 19.6441 7.36112C19.8517 7.37287 20.0467 7.46416 20.1887 7.61599C20.3306 7.76782 20.4085 7.96851 20.4062 8.17632Z" fill="#88E43F"/>
<path d="M22.0081 31.8182C22.0186 31.9835 21.9785 32.1481 21.8931 32.29C21.8077 32.432 21.6811 32.5446 21.5301 32.6128C21.3791 32.681 21.2109 32.7016 21.048 32.6718C20.885 32.6421 20.7349 32.5635 20.6177 32.4463C20.5006 32.3292 20.4219 32.1792 20.3922 32.0162C20.3624 31.8533 20.383 31.6851 20.4513 31.5342C20.5195 31.3833 20.6321 31.2567 20.7741 31.1713C20.9161 31.0859 21.0807 31.0458 21.246 31.0563C21.4435 31.0705 21.6292 31.1553 21.7691 31.2952C21.9091 31.4352 21.9939 31.6208 22.0081 31.8182Z" fill="#88E43F"/>
<path d="M31.0156 38.3542C31.0168 38.518 30.9686 38.6783 30.8773 38.8143C30.7861 38.9503 30.656 39.0556 30.504 39.1166C30.352 39.1776 30.1851 39.1915 30.0251 39.1563C29.8651 39.1212 29.7195 39.0386 29.6071 38.9195C29.4947 38.8004 29.4207 38.6502 29.3949 38.4885C29.3691 38.3268 29.3927 38.1611 29.4624 38.0129C29.5322 37.8647 29.645 37.741 29.7861 37.6579C29.9272 37.5747 30.0901 37.536 30.2535 37.5467C30.4585 37.5619 30.6503 37.6532 30.7913 37.8026C30.9323 37.952 31.0123 38.1488 31.0156 38.3542Z" fill="#88E43F"/>
</svg>
