<svg width="39" height="40" viewBox="0 0 39 40" fill="none" xmlns="http://www.w3.org/2000/svg">
<path d="M22.8155 40H16.2774C16.2419 39.9787 16.2046 39.9604 16.1658 39.9454C15.5602 39.8433 15.0029 39.5567 14.5733 39.1263C14.1438 38.6958 13.864 38.1436 13.7739 37.5483C13.5825 36.6738 13.3832 35.7993 13.1599 34.9249C13.0992 34.7559 12.9809 34.6126 12.8251 34.5188C11.9161 33.9801 10.9833 33.4804 10.0823 32.9573C9.99058 32.8883 9.88273 32.8429 9.76855 32.8252C9.65437 32.8075 9.53747 32.818 9.42848 32.8558C8.53549 33.1446 7.63451 33.4257 6.73354 33.6912C6.07288 33.9146 5.35247 33.8997 4.70201 33.6492C4.05155 33.3987 3.51377 32.9291 3.18548 32.3248C2.27654 30.7945 1.37291 29.2615 0.474603 27.7259C0.0933515 27.1363 -0.0576979 26.4317 0.049239 25.7417C0.156176 25.0517 0.513906 24.4227 1.05664 23.9703C1.74234 23.3535 2.43601 22.7445 3.10576 22.1121C3.24052 21.9669 3.31453 21.7773 3.31305 21.5811C3.31305 20.5427 3.31305 19.5042 3.31305 18.4579C3.32389 18.3449 3.30631 18.2311 3.26183 18.1263C3.21736 18.0215 3.14735 17.9289 3.05792 17.8567C2.37222 17.2555 1.70247 16.6465 1.03272 16.0297C0.495278 15.5807 0.140733 14.9574 0.0338671 14.2736C-0.0729992 13.5897 0.0749511 12.8911 0.450684 12.3053C1.349 10.7437 2.25794 9.20294 3.17751 7.683C3.50615 7.07751 4.04617 6.60793 4.69899 6.35995C5.35182 6.11197 6.07392 6.10213 6.73354 6.33223C7.63451 6.5977 8.52751 6.87098 9.42848 7.16768C9.53083 7.20247 9.64034 7.21211 9.74738 7.19578C9.85443 7.17944 9.95574 7.13761 10.0424 7.07398C10.9434 6.53523 11.8603 6.0121 12.7932 5.51239C12.8861 5.47109 12.9682 5.40951 13.0332 5.33237C13.0981 5.25524 13.1442 5.16459 13.1679 5.06735C13.3752 4.09917 13.5905 3.13098 13.8297 2.1706C13.9393 1.71223 14.1657 1.28852 14.4878 0.938998C14.8099 0.589475 15.2171 0.325525 15.6715 0.171775L16.1499 0H22.8474C22.889 0.0294202 22.9346 0.0530703 22.9829 0.0702744C23.5448 0.193448 24.057 0.476202 24.4556 0.883139C24.8541 1.29008 25.1212 1.80311 25.2234 2.358C25.4307 3.2481 25.63 4.1382 25.8213 5.02831C25.8426 5.13248 25.8882 5.2304 25.9546 5.3144C26.021 5.39839 26.1064 5.46617 26.2041 5.51239C27.1369 6.00429 28.0538 6.52742 28.9548 7.07398C29.0421 7.13956 29.1448 7.18253 29.2535 7.19891C29.3622 7.21529 29.4734 7.20455 29.5767 7.16768C30.4857 6.87879 31.3946 6.58989 32.3115 6.31661C32.9598 6.10092 33.6651 6.11664 34.3027 6.36096C34.9403 6.60529 35.4692 7.0625 35.7958 7.65177C36.7313 9.21336 37.6509 10.7749 38.5545 12.3365C38.9277 12.9237 39.0734 13.6225 38.9651 14.3059C38.8569 14.9893 38.5018 15.6121 37.9645 16.0609C37.2788 16.6934 36.5692 17.3024 35.8915 17.9426C35.7714 18.0682 35.7008 18.2315 35.6921 18.4033C35.6921 19.4808 35.6921 20.5583 35.6921 21.6436C35.703 21.8134 35.7702 21.9752 35.8835 22.1042C36.5612 22.7445 37.2708 23.3535 37.9565 23.9859C38.4993 24.4383 38.857 25.0673 38.9639 25.7573C39.0709 26.4473 38.9198 27.1519 38.5386 27.7416C37.6562 29.2563 36.7659 30.7658 35.8676 32.2702C35.5397 32.9148 34.9777 33.4163 34.2919 33.6763C33.606 33.9363 32.8457 33.936 32.16 33.6756C31.275 33.4023 30.398 33.1134 29.505 32.8948C29.335 32.8649 29.1597 32.8954 29.0106 32.9807C28.0937 33.4882 27.2087 34.0348 26.2838 34.5423C26.1536 34.595 26.04 34.6806 25.9546 34.7903C25.8691 34.9001 25.8149 35.03 25.7974 35.1669C25.6061 36.0804 25.3828 36.994 25.1675 37.9075C25.0994 38.2407 24.9641 38.5573 24.7698 38.8388C24.5754 39.1203 24.3257 39.3611 24.0354 39.5471C23.6392 39.7239 23.2317 39.8752 22.8155 40ZM36.5293 13.8513C36.4496 13.6951 36.4097 13.5858 36.3539 13.4843C35.4689 11.9852 34.5839 10.4938 33.7068 8.98692C33.6786 8.92156 33.6369 8.8626 33.5844 8.81375C33.5319 8.76489 33.4696 8.7272 33.4015 8.70301C33.3334 8.67882 33.2609 8.66867 33.1886 8.67319C33.1163 8.67771 33.0457 8.6968 32.9813 8.72927C31.8331 9.10405 30.677 9.43978 29.5289 9.80675C29.2976 9.89227 29.0468 9.9142 28.8036 9.87016C28.5605 9.82612 28.3343 9.71779 28.1495 9.55691C27.0479 8.67139 25.8064 7.96729 24.4739 7.47219C24.2529 7.39846 24.056 7.26848 23.9032 7.09559C23.7505 6.9227 23.6475 6.71313 23.6048 6.48838C23.3497 5.33281 23.0706 4.146 22.8075 3.02166C22.8029 2.94132 22.7812 2.8628 22.7437 2.79115C22.7063 2.71949 22.6541 2.65628 22.5903 2.60556C22.5265 2.55484 22.4525 2.51773 22.3732 2.49662C22.2939 2.4755 22.211 2.47083 22.1298 2.48292C20.4235 2.48292 18.7252 2.48292 17.019 2.48292C16.4449 2.48292 16.3891 2.52977 16.2695 3.06852C16.0143 4.16944 15.7512 5.27035 15.4722 6.37907C15.429 6.63625 15.3147 6.87696 15.1419 7.07513C14.969 7.27331 14.7441 7.42142 14.4915 7.50342C13.2101 7.97898 12.0169 8.65683 10.9593 9.51006C10.7555 9.68803 10.5052 9.80708 10.2363 9.85396C9.9674 9.90083 9.69052 9.87368 9.43646 9.77553C8.32819 9.40855 7.21194 9.08843 6.10367 8.72927C6.03263 8.69311 5.95466 8.67189 5.87475 8.66699C5.79484 8.6621 5.71478 8.67362 5.63969 8.70083C5.5646 8.72803 5.49616 8.77032 5.43875 8.82497C5.38135 8.87962 5.33624 8.94543 5.30635 9.01816C4.46119 10.4939 3.60009 11.9539 2.71507 13.414C2.66235 13.4794 2.62407 13.5547 2.60265 13.6353C2.58123 13.7159 2.57714 13.7999 2.59063 13.8821C2.60412 13.9643 2.6349 14.0429 2.68102 14.1129C2.72715 14.1828 2.78762 14.2426 2.85859 14.2885C3.73564 15.0693 4.5808 15.8501 5.44987 16.6309C5.63788 16.779 5.78207 16.9737 5.86757 17.1947C5.95307 17.4157 5.97677 17.655 5.93622 17.888C5.7249 19.2936 5.7249 20.722 5.93622 22.1277C5.97688 22.3656 5.95174 22.6098 5.86341 22.835C5.77508 23.0602 5.62678 23.2581 5.43392 23.4082C4.55687 24.189 3.69576 24.9697 2.81074 25.7505C2.74887 25.793 2.69659 25.8474 2.65714 25.9105C2.6177 25.9736 2.59194 26.0439 2.58147 26.1172C2.571 26.1904 2.57603 26.265 2.59628 26.3362C2.61652 26.4075 2.65152 26.4739 2.69912 26.5313C3.58414 28.0148 4.46119 29.4983 5.33027 30.9975C5.3583 31.0658 5.40077 31.1277 5.45489 31.1789C5.50901 31.23 5.57355 31.2695 5.64431 31.2945C5.71507 31.3196 5.79044 31.3297 5.86548 31.3243C5.94052 31.3188 6.01353 31.2979 6.07975 31.2629C7.14018 30.9194 8.21656 30.6305 9.26902 30.2635C9.57525 30.1364 9.91273 30.0998 10.24 30.1581C10.5672 30.2163 10.8699 30.367 11.1108 30.5915C12.0806 31.386 13.1841 32.0095 14.3719 32.4341C14.6649 32.5196 14.9267 32.6857 15.126 32.9127C15.3253 33.1398 15.4538 33.4181 15.4961 33.7146C15.7193 34.7999 15.9984 35.8774 16.2216 36.9549C16.2263 37.0383 16.2486 37.1199 16.2872 37.1943C16.3258 37.2688 16.3799 37.3346 16.4459 37.3875C16.5119 37.4404 16.5884 37.4792 16.6706 37.5015C16.7528 37.5238 16.8389 37.5291 16.9233 37.5171C18.6295 37.5171 20.3278 37.5171 22.0341 37.5171C22.5922 37.5171 22.64 37.5171 22.7676 36.9159C23.0228 35.7993 23.2938 34.6828 23.5649 33.5663C23.6078 33.3285 23.7147 33.1063 23.8744 32.9224C24.0342 32.7385 24.2411 32.5996 24.4739 32.52C25.7846 32.0409 27.0051 31.3523 28.0857 30.4821C28.2833 30.3072 28.5272 30.1903 28.7894 30.1448C29.0517 30.0992 29.3218 30.1268 29.5687 30.2245C30.685 30.5915 31.8252 30.9116 32.9414 31.2707C33.0087 31.3056 33.0828 31.3262 33.1588 31.3312C33.2347 31.3362 33.311 31.3254 33.3824 31.2997C33.4539 31.2739 33.519 31.2336 33.5735 31.1816C33.628 31.1295 33.6707 31.0668 33.6989 30.9975C34.552 29.514 35.429 28.0383 36.3061 26.5704C36.3573 26.5077 36.3947 26.4352 36.4157 26.3575C36.4368 26.2799 36.4411 26.1988 36.4283 26.1195C36.4156 26.0401 36.386 25.9642 36.3417 25.8967C36.2973 25.8291 36.239 25.7714 36.1705 25.7271C35.3094 24.9463 34.4723 24.1655 33.6111 23.4316C33.4067 23.2742 33.2498 23.0655 33.1571 22.8275C33.0644 22.5896 33.0394 22.3315 33.0849 22.0808C33.2962 20.7144 33.2962 19.3246 33.0849 17.9582C33.0378 17.7013 33.0634 17.4367 33.159 17.1931C33.2545 16.9495 33.4165 16.7361 33.6271 16.5762C34.4962 15.7954 35.3413 15.0146 36.1865 14.2729C36.313 14.1423 36.4277 14.0012 36.5293 13.8513Z" fill="#13B497"/>
<path d="M18.2787 26.6545C18.0835 26.6562 17.8904 26.6137 17.7147 26.5302C17.539 26.4468 17.3853 26.3248 17.2657 26.1736C17.1461 26.0225 17.0637 25.8463 17.0251 25.6588C16.9864 25.4714 16.9925 25.2777 17.0429 25.093C17.5372 22.9536 18.0475 20.8142 18.5498 18.6748C18.8847 17.2694 19.2116 15.864 19.5465 14.4586C19.5684 14.2802 19.6286 14.1084 19.7231 13.9545C19.8177 13.8006 19.9445 13.668 20.0951 13.5655C20.2457 13.463 20.4168 13.3929 20.5971 13.3597C20.7774 13.3266 20.9628 13.3312 21.1411 13.3733C21.3132 13.4209 21.4739 13.5014 21.614 13.6102C21.7542 13.7189 21.871 13.8537 21.9577 14.0069C22.0444 14.16 22.0993 14.3284 22.1193 14.5024C22.1392 14.6764 22.1238 14.8526 22.074 15.0207C21.2129 18.5499 20.3996 22.0479 19.5704 25.6161C19.5187 25.9124 19.3596 26.1805 19.1224 26.3713C18.8851 26.562 18.5856 26.6626 18.2787 26.6545Z" fill="#13B497"/>
<path d="M11.6377 19.9956L14.7711 22.744C14.9507 22.8807 15.0918 23.06 15.1811 23.2649C15.2704 23.4698 15.3049 23.6936 15.2814 23.9152C15.2538 24.1426 15.163 24.3582 15.0187 24.5385C14.8745 24.7187 14.6824 24.8567 14.4635 24.9373C14.2446 25.0179 14.0073 25.038 13.7775 24.9954C13.5477 24.9529 13.3343 24.8493 13.1605 24.696L10.4656 22.3536C9.95532 21.9085 9.44505 21.4713 8.95071 21.0184C8.80555 20.902 8.68859 20.7554 8.60828 20.5893C8.52798 20.4233 8.48633 20.2418 8.48633 20.058C8.48633 19.8743 8.52798 19.6928 8.60828 19.5267C8.68859 19.3607 8.80555 19.2141 8.95071 19.0977C10.3487 17.8536 11.752 16.6174 13.1605 15.3889C13.3339 15.2311 13.5486 15.1237 13.7808 15.0786C14.0129 15.0335 14.2533 15.0525 14.475 15.1335C14.6967 15.2145 14.8911 15.3544 15.0363 15.5374C15.1815 15.7203 15.2719 15.9393 15.2974 16.1697C15.3186 16.3907 15.2821 16.6134 15.1915 16.8169C15.1008 17.0203 14.959 17.1979 14.7791 17.3331C13.8223 18.1607 12.8735 19.004 11.9247 19.8316C11.837 19.8394 11.7573 19.8863 11.6377 19.9956Z" fill="#13B497"/>
<path d="M27.4154 19.9951C26.363 19.066 25.3504 18.1681 24.3218 17.278C24.1482 17.145 24.0108 16.972 23.9218 16.7745C23.8328 16.5771 23.7949 16.3611 23.8116 16.1458C23.8311 15.9153 23.9157 15.6945 24.0558 15.5083C24.196 15.322 24.3862 15.1775 24.6052 15.0909C24.8243 15.0042 25.0637 14.9789 25.2966 15.0177C25.5295 15.0564 25.7469 15.1578 25.9244 15.3104C26.7696 16.0443 27.6068 16.7861 28.444 17.5278L30.0785 18.9645C30.2401 19.0822 30.3714 19.2353 30.4618 19.4115C30.5523 19.5878 30.5994 19.7823 30.5994 19.9795C30.5994 20.1768 30.5523 20.3713 30.4618 20.5475C30.3714 20.7238 30.2401 20.8769 30.0785 20.9946L26.0201 24.5706C25.8997 24.7024 25.7523 24.8079 25.5874 24.8801C25.4225 24.9523 25.2439 24.9896 25.0633 24.9896C24.8827 24.9896 24.7042 24.9523 24.5393 24.8801C24.3744 24.8079 24.227 24.7024 24.1066 24.5706C23.9876 24.438 23.898 24.2826 23.8437 24.1143C23.7893 23.9459 23.7713 23.7684 23.7908 23.5929C23.8103 23.4174 23.8669 23.2478 23.9569 23.0948C24.047 22.9419 24.1685 22.809 24.3139 22.7045L27.0407 20.3075C27.1762 20.2216 27.2799 20.1201 27.4154 19.9951Z" fill="#13B497"/>
</svg>
