<svg width="39" height="40" viewBox="0 0 39 40" fill="none" xmlns="http://www.w3.org/2000/svg">
<path d="M18.2821 0H20.7179C20.8182 0 20.914 0.0467695 21.0144 0.0607997C22.0133 0.219808 23.0305 0.318019 24.0112 0.528472C27.7192 1.42713 31.0882 3.42235 33.7 6.26653C36.3119 9.11072 38.0517 12.6786 38.7035 16.5275C38.8221 17.2524 38.9042 17.9914 39 18.7209V21.223C38.9772 21.3212 38.9498 21.4241 38.9361 21.5223C38.8039 22.4576 38.7218 23.393 38.5347 24.3002C37.7049 28.1635 35.7764 31.6876 32.9932 34.4272C30.2099 37.1668 26.6969 38.9987 22.8982 39.6913C22.173 39.8083 21.4432 39.8971 20.7179 40H18.2821C18.1981 39.9738 18.1128 39.9519 18.0267 39.9345C17.1144 39.8036 16.2386 39.7147 15.3582 39.5323C7.79544 37.9843 1.53719 31.32 0.305613 23.5286C0.187017 22.7756 0.100351 22.0133 0 21.2557V18.7396C0.123158 17.8557 0.218948 16.9671 0.378597 16.0879C1.14496 12.1399 3.05584 8.52104 5.86121 5.70482C8.66659 2.8886 12.2358 1.00622 16.1018 0.303988C16.827 0.182393 17.5523 0.0982111 18.2821 0ZM36.7147 19.9977C36.7156 16.5066 35.7068 13.0937 33.8157 10.1906C31.9247 7.28747 29.2365 5.0245 26.091 3.6879C22.9455 2.3513 19.484 2.00111 16.1444 2.68161C12.8047 3.36211 9.73694 5.04273 7.32896 7.51093C4.92098 9.97914 3.28098 13.124 2.61637 16.5479C1.95177 19.9718 2.29241 23.5209 3.59522 26.7462C4.89803 29.9716 7.10448 32.7284 9.93553 34.6681C12.7666 36.6077 16.0951 37.6429 19.5 37.6429C21.7605 37.6435 23.9989 37.1876 26.0874 36.3011C28.176 35.4146 30.0738 34.115 31.6724 32.4764C33.271 30.8378 34.5391 28.8924 35.4043 26.7513C36.2694 24.6102 36.7147 22.3153 36.7147 19.9977Z" fill="#FF0000"/>
<path d="M34.4469 20.0486C34.3644 23.1322 33.4139 26.1254 31.7101 28.6678C31.6216 28.8434 31.4915 28.9934 31.3319 29.1042C31.1723 29.2151 30.9881 29.2831 30.7962 29.3022C30.6044 29.3212 30.4109 29.2907 30.2335 29.2134C30.0561 29.1361 29.9004 29.0144 29.7806 28.8596L10.8325 9.45584C10.1848 8.79175 10.2669 8.02009 11.0241 7.47759C19.6132 1.33238 31.6736 6.13069 33.9588 16.6253C34.2097 17.7477 34.2918 18.9075 34.4469 20.0486ZM30.4694 26.2032C32.9781 21.9053 32.8139 15.0445 27.988 10.4941C23.2988 6.07925 16.9311 6.49548 13.4462 8.74966L30.4694 26.2032Z" fill="#FF0000"/>
<path d="M19.9568 35.2207C12.3073 35.2207 6.0673 29.8659 4.87677 22.5936C4.53508 20.6532 4.57074 18.6627 4.98171 16.7365C5.39268 14.8103 6.17085 12.9863 7.27151 11.3694C7.83256 10.5229 8.57151 10.4341 9.27396 11.173L28.1217 30.5019C28.8105 31.2081 28.7466 31.9704 27.9529 32.5316C25.6053 34.2184 22.8228 35.1542 19.9568 35.2207ZM8.55326 13.7733C6.04449 18.0618 6.2087 24.9553 11.0666 29.5057C15.7192 33.8691 22.0596 33.495 25.5764 31.2268C19.8929 25.4183 14.2185 19.6005 8.55326 13.7733Z" fill="#FF0000"/>
</svg>
