<svg width="18" height="18" viewBox="0 0 18 18" fill="none" xmlns="http://www.w3.org/2000/svg">
<path d="M1.60577 4.73094L9 0.46188L16.3942 4.73094V13.2691L9 17.5381L1.60577 13.2691V4.73094Z" stroke="#410EAD" stroke-width="0.8"/>
<path fill-rule="evenodd" clip-rule="evenodd" d="M6.80433 5.01621C6.74347 5.04565 6.73607 5.09293 6.73607 5.45255V5.79631L6.66958 5.75793C6.55053 5.68918 6.45132 5.66997 6.21521 5.66997C6.01927 5.66997 5.99104 5.67347 5.93569 5.70454C5.90182 5.72355 5.85863 5.76399 5.8397 5.79441C5.80918 5.84342 5.80541 5.87015 5.8065 6.02944C5.80752 6.1756 5.81414 6.22522 5.84194 6.29513C5.91188 6.47105 6.06101 6.62111 6.23153 6.6872C6.30321 6.71499 6.36367 6.72354 6.52879 6.72923L6.73607 6.73637V6.99881V7.26126L6.6246 7.20409L6.51313 7.14692L6.25821 7.14168C5.96336 7.13563 5.91668 7.14835 5.84689 7.25371C5.7602 7.38459 5.78987 7.70658 5.90498 7.88422C6.05059 8.10888 6.24557 8.20117 6.57572 8.20164L6.73607 8.20188V8.46471V8.72756L6.63047 8.67538C6.50585 8.6138 6.39147 8.59257 6.18854 8.59339C5.89905 8.59454 5.79856 8.68158 5.79779 8.93177C5.7971 9.15749 5.86124 9.33026 5.99557 9.46457C6.14104 9.61001 6.31866 9.67073 6.59918 9.67092L6.73607 9.67101V9.86637V10.0617L5.98126 10.0621C5.28087 10.0624 5.22194 10.0645 5.16388 10.0913C5.09148 10.1247 5.04002 10.176 5.01631 10.2386C4.9946 10.2958 4.99455 10.7652 5.01626 10.8226C5.05113 10.9149 5.16533 10.9995 5.25492 10.9995C5.29167 10.9995 5.29459 11.0115 5.45931 11.8395C5.55121 12.3016 5.63779 12.7107 5.65171 12.7488C5.68633 12.8435 5.78933 12.9427 5.88655 12.975C5.95668 12.9982 6.05715 13.0005 6.83159 12.9966C7.68924 12.9922 7.69881 12.9918 7.76221 12.9579C7.8356 12.9187 7.91971 12.829 7.94887 12.7589C7.95986 12.7325 8.01555 12.4753 8.07265 12.1873C8.12973 11.8993 8.18167 11.6508 8.18807 11.6349C8.19797 11.6104 8.25809 11.653 8.59475 11.9227L8.98984 12.2392L8.95209 12.2796C8.89081 12.3454 8.87592 12.3883 8.86747 12.5237C8.85114 12.7852 8.89061 12.8997 9.01957 12.9648L9.08925 13H10.4749H11.8606L11.9303 12.9648C11.9758 12.9419 12.0124 12.9079 12.0357 12.8672C12.0688 12.809 12.071 12.7892 12.067 12.5835L12.0627 12.3623L12.0123 12.2996L11.9618 12.237L12.4134 11.8755C12.9677 11.4317 12.9995 11.3919 12.9998 11.1401L13 11.0073L12.7453 10.3989C12.6053 10.0643 12.4739 9.75758 12.4536 9.71735C12.4332 9.67712 12.3801 9.61156 12.3357 9.57166C12.2667 9.50966 12.2291 9.49107 12.0773 9.4437L11.8996 9.3883L12.118 8.95042L12.3365 8.51254V8.39122C12.3365 8.05718 12.2065 7.65183 12 7.34228C11.7344 6.9441 11.3144 6.63753 10.8713 6.51831C10.7368 6.48215 10.6867 6.47684 10.4749 6.47624C10.2568 6.47565 10.2167 6.47993 10.076 6.51886C9.88727 6.57109 9.64257 6.68533 9.47773 6.79815C9.31436 6.90998 9.06364 7.16361 8.95353 7.32842C8.74604 7.63897 8.63676 7.96457 8.60729 8.35995L8.59841 8.47895L8.81732 8.92938C8.9377 9.17712 9.03081 9.38486 9.0242 9.39105C9.01762 9.39722 8.9559 9.41783 8.88707 9.43684C8.61268 9.51259 8.53442 9.58819 8.40986 9.89785L8.34392 10.0617H7.67297H7.00201V9.86637V9.67101L7.13889 9.67092C7.32444 9.67079 7.44108 9.64952 7.55936 9.59422C7.80858 9.47771 7.95655 9.20467 7.937 8.89737C7.92852 8.76424 7.89701 8.69935 7.81426 8.64463C7.75905 8.60814 7.73171 8.60217 7.59176 8.59596C7.38259 8.5867 7.23879 8.61025 7.1076 8.67524L7.00201 8.72756V8.46471V8.20188H7.15768C7.33997 8.20188 7.44646 8.18228 7.56518 8.12689C7.67539 8.07549 7.81392 7.93706 7.86638 7.82594C7.95319 7.64204 7.9643 7.3641 7.88936 7.25096C7.82152 7.14854 7.77327 7.13566 7.47986 7.14168L7.22495 7.14692L7.11347 7.20409L7.00201 7.26126V6.99881V6.73637L7.20929 6.72923C7.45222 6.72085 7.55087 6.69075 7.68007 6.5856C7.85977 6.43934 7.93281 6.27377 7.93281 6.01267C7.93281 5.86233 7.9293 5.8423 7.89396 5.79078C7.82274 5.68693 7.77063 5.66997 7.52286 5.66997C7.28675 5.66997 7.18754 5.68918 7.06849 5.75793L7.00201 5.79631V5.4428V5.08929L6.95628 5.0436C6.90896 4.99633 6.86267 4.98798 6.80433 5.01621ZM6.47153 5.95709C6.62828 6.01307 6.72183 6.15195 6.73303 6.34533L6.74009 6.46705H6.58448C6.3733 6.46705 6.28428 6.43915 6.18779 6.34277C6.10248 6.25753 6.06339 6.15572 6.06339 6.01878V5.93566L6.23938 5.93635C6.3412 5.93674 6.43904 5.94549 6.47153 5.95709ZM7.67029 6.05335C7.65942 6.19706 7.6172 6.2906 7.52929 6.36577C7.44272 6.43979 7.34218 6.46705 7.1556 6.46705H7.00201V6.36824C7.00201 6.1819 7.0771 6.04932 7.22407 5.97614C7.29791 5.93938 7.32255 5.93566 7.4923 5.93566H7.67921L7.67029 6.05335ZM10.7878 6.77297C11.2445 6.8936 11.6695 7.24871 11.8882 7.69256C11.9539 7.82584 12.0232 8.02194 12.0443 8.13406L12.0536 8.18347L11.8626 8.09269C11.3943 7.87007 10.9399 7.78219 10.3498 7.80012C10.0272 7.80992 9.78737 7.84521 9.52568 7.92137C9.35167 7.97201 9.07242 8.08543 8.96027 8.15099L8.89267 8.19052L8.90326 8.12978C8.90908 8.09637 8.93449 8.0063 8.95972 7.92962C9.15657 7.33135 9.68506 6.85423 10.2689 6.74772C10.3772 6.72796 10.6716 6.74228 10.7878 6.77297ZM6.514 7.44527C6.66145 7.51868 6.73607 7.65373 6.73607 7.84718V7.94004L6.55225 7.93287C6.35023 7.92499 6.29039 7.90718 6.20019 7.82805C6.11981 7.75753 6.07833 7.66182 6.06778 7.52248L6.05887 7.4048H6.24578C6.41553 7.4048 6.44017 7.40851 6.514 7.44527ZM7.67046 7.52018C7.65718 7.69578 7.58483 7.81575 7.45079 7.88448C7.38002 7.92077 7.34612 7.92699 7.18582 7.93307L7.00201 7.94004V7.8393C7.00201 7.65098 7.07655 7.51872 7.22407 7.44527C7.29791 7.40851 7.32255 7.4048 7.4923 7.4048H7.67921L7.67046 7.52018ZM10.957 8.10138C11.0483 8.11493 11.1285 8.12942 11.1353 8.13361C11.142 8.13778 11.1476 8.22649 11.1476 8.33074C11.1476 8.50382 11.1505 8.5234 11.1816 8.55644C11.2003 8.57632 11.2287 8.5926 11.2447 8.5926C11.3076 8.5926 11.3779 8.6359 11.3952 8.68528C11.4253 8.77174 11.3732 8.84717 11.2702 8.86628C11.1916 8.88084 11.1547 8.9263 11.1242 9.04585C11.0641 9.28221 10.9089 9.50794 10.746 9.59622C10.5786 9.68697 10.3682 9.68437 10.1894 9.58938C10.0244 9.50173 9.91178 9.33709 9.82699 9.05935C9.78136 8.90991 9.75879 8.88157 9.67262 8.8656C9.58283 8.84894 9.54481 8.81068 9.54481 8.73691C9.54481 8.65564 9.56951 8.62872 9.67116 8.5992C9.79267 8.56391 9.80223 8.54334 9.80223 8.31724V8.12697L9.93911 8.10743C10.2919 8.05707 10.6443 8.055 10.957 8.10138ZM9.53578 8.27612C9.53532 8.34671 9.53198 8.35237 9.46778 8.39124C9.19919 8.55392 9.21124 8.94412 9.48918 9.08484C9.54342 9.11229 9.56889 9.13656 9.58154 9.17279C9.59115 9.20031 9.5972 9.22447 9.59503 9.22647C9.59169 9.2295 9.51598 9.25209 9.32876 9.30587C9.30596 9.31242 9.26693 9.24346 9.10572 8.91195C8.95642 8.6049 8.9144 8.50521 8.92759 8.48931C8.97862 8.42789 9.43887 8.20672 9.52455 8.20246C9.53101 8.20214 9.53607 8.23528 9.53578 8.27612ZM11.5365 8.2402C11.6599 8.28213 11.93 8.41822 11.9991 8.47325L12.0427 8.50796L11.8437 8.90584C11.7342 9.12468 11.6427 9.30593 11.6402 9.30863C11.6364 9.31282 11.3649 9.23488 11.3554 9.22685C11.3535 9.22528 11.3598 9.19848 11.3694 9.1673C11.3807 9.13056 11.3987 9.10763 11.4207 9.10211C11.4867 9.08556 11.5784 9.00326 11.624 8.91961C11.7224 8.73896 11.6675 8.52112 11.4945 8.40579C11.4157 8.35329 11.4135 8.34979 11.4135 8.27685C11.4135 8.23562 11.4158 8.20188 11.4186 8.20188C11.4214 8.20188 11.4744 8.21912 11.5365 8.2402ZM6.51324 8.91106C6.65983 8.98528 6.73607 9.1213 6.73607 9.30865V9.40961L6.55221 9.40203C6.36162 9.3942 6.31448 9.38059 6.2116 9.30376C6.13921 9.2497 6.07958 9.12676 6.06855 9.00887C6.05366 8.84941 6.05001 8.85222 6.25709 8.86241C6.40534 8.86971 6.44727 8.87768 6.51324 8.91106ZM7.66503 8.98622C7.66349 9.08831 7.65624 9.11879 7.61679 9.1894C7.53087 9.34314 7.39193 9.40532 7.13421 9.40532H7.00201L7.0021 9.30763C7.00215 9.25392 7.00947 9.18376 7.01837 9.15173C7.05477 9.02075 7.19748 8.89611 7.33835 8.87226C7.37276 8.86643 7.46076 8.86266 7.53389 8.86388L7.66686 8.86611L7.66503 8.98622ZM9.75517 9.54579C9.8133 9.63628 9.94269 9.75892 10.0404 9.81613C10.284 9.95876 10.6072 9.96612 10.8663 9.83496C10.9752 9.77983 11.1033 9.66878 11.1707 9.571C11.2039 9.52285 11.2404 9.48346 11.252 9.48346C11.2855 9.48346 12.0741 9.71893 12.12 9.74265C12.1429 9.75448 12.1753 9.78151 12.192 9.80273C12.2387 9.86195 12.7432 11.084 12.7432 11.1377C12.7432 11.1997 12.7181 11.264 12.6757 11.3103C12.6569 11.3308 12.4849 11.4734 12.2935 11.6271L11.9454 11.9067V11.2371C11.9454 10.45 11.9448 10.4458 11.8144 10.3187C11.7594 10.2651 11.7107 10.2334 11.6633 10.2204C11.6101 10.2057 11.3171 10.2022 10.4358 10.2056C9.14382 10.2107 9.24031 10.2022 9.12023 10.3221C9.01075 10.4315 9.01308 10.4139 9.0044 11.1972L8.99658 11.9028L8.63677 11.6162C8.25314 11.3105 8.20729 11.2603 8.20682 11.1457C8.20645 11.0502 8.70496 9.85556 8.77483 9.78454C8.81893 9.7397 8.87437 9.71902 9.26257 9.60259C9.50345 9.53032 9.70158 9.47044 9.70283 9.46952C9.70408 9.4686 9.72764 9.5029 9.75517 9.54579ZM8.22222 10.339C8.22222 10.3453 8.18603 10.4368 8.14181 10.5422L8.06141 10.7338H6.66348H5.26556V10.5306V10.3274H6.74389C7.55697 10.3274 8.22222 10.3326 8.22222 10.339ZM11.6278 10.5058L11.6716 10.5435L11.676 11.3732L11.6803 12.2029H10.4753H9.27034V11.3892C9.27034 10.5548 9.27177 10.534 9.33156 10.4881C9.35052 10.4736 9.61929 10.469 10.4701 10.4686L11.5839 10.4681L11.6278 10.5058ZM5.99332 11.6286C6.13119 12.3234 6.13283 12.328 6.24329 12.328C6.30954 12.328 6.37626 12.2712 6.37626 12.2148C6.37626 12.1947 6.32346 11.9151 6.25893 11.5934C6.1944 11.2717 6.14161 11.0065 6.14161 11.004C6.14161 11.0015 6.54848 10.9995 7.04576 10.9995H7.94994L7.94344 11.1012C7.93989 11.1571 7.94487 11.2342 7.95454 11.2726C7.97052 11.336 7.96023 11.4012 7.83904 12.0031C7.71708 12.6089 7.70266 12.6669 7.666 12.6991L7.626 12.7343H6.81264C5.90036 12.7343 5.92094 12.7367 5.89292 12.6287C5.88458 12.5965 5.80999 12.2291 5.72717 11.8122C5.64436 11.3953 5.573 11.0419 5.56864 11.0268C5.56144 11.0021 5.57541 10.9995 5.7146 10.9995H5.8685L5.99332 11.6286ZM10.3653 11.0141C10.2373 11.053 10.1286 11.1612 10.0913 11.2869C10.0621 11.3849 10.0624 11.4116 10.0931 11.5163C10.1241 11.6218 10.2453 11.748 10.3437 11.7774C10.4442 11.8073 10.5511 11.8008 10.64 11.7595C10.9599 11.6106 10.9355 11.1369 10.6021 11.0234C10.5279 10.9981 10.4304 10.9943 10.3653 11.0141ZM10.5727 11.3133C10.613 11.3627 10.6079 11.4463 10.5617 11.4925C10.5122 11.5419 10.4432 11.5424 10.3866 11.4938C10.2893 11.4102 10.3628 11.2507 10.4894 11.2709C10.5201 11.2758 10.5576 11.2949 10.5727 11.3133ZM11.8046 12.6015V12.7343H10.4749H9.14519V12.6015V12.4686H10.4749H11.8046V12.6015Z" fill="#410EAD"/>
</svg>
