<svg width="41" height="40" viewBox="0 0 41 40" fill="none" xmlns="http://www.w3.org/2000/svg">
<path fill-rule="evenodd" clip-rule="evenodd" d="M13.775 0.0754193C11.5805 0.361284 9.23292 1.19548 7.44193 2.32595C2.22191 5.62078 -0.600671 11.4903 0.107778 17.5772C0.891622 24.3114 5.91598 29.8418 12.4897 31.2062C16.8635 32.1141 21.4286 31.1019 24.9887 28.4349C25.3192 28.1875 25.6115 27.994 25.6384 28.0051C25.6652 28.0163 26.4141 28.7355 27.3026 29.6033L28.9181 31.1814L28.7802 31.4591C28.5676 31.8873 28.5465 32.5728 28.733 32.9972C28.9417 33.4723 35.2227 39.6089 35.7443 39.8473C36.182 40.0474 36.8627 40.0513 37.289 39.8563C37.68 39.6774 40.6176 36.6578 40.8244 36.2223C41.047 35.7533 41.0587 35.1806 40.8553 34.7044C40.7052 34.3532 40.2099 33.8381 37.446 31.1594C35.6674 29.4357 34.0749 27.9528 33.9072 27.864C33.5872 27.6947 32.8713 27.6499 32.4003 27.7695C32.1704 27.828 32.0852 27.7575 30.4454 26.1529L28.7308 24.4753L29.0342 23.9979C29.8858 22.6579 30.6631 20.6586 31.0557 18.7988C31.2544 17.8575 31.2714 17.6286 31.2748 15.842C31.2787 13.8095 31.235 13.3876 30.8644 11.8885C30.3858 9.95256 29.4266 7.93061 28.2041 6.28094C27.6483 5.53106 26.3367 4.15563 25.5898 3.5396C23.3565 1.69734 20.5778 0.485215 17.7253 0.108661C16.7469 -0.0205144 14.6471 -0.0381843 13.775 0.0754193ZM17.6874 1.40445C23.1252 2.20855 27.587 5.9578 29.3101 11.171C29.8312 12.7476 29.9644 13.5331 30.0132 15.3184C30.0588 16.9874 29.9673 17.9344 29.6299 19.2857C28.2479 24.8207 23.7489 29.0153 18.0866 30.0481C16.5206 30.3338 14.2505 30.2775 12.6099 29.9124C5.46513 28.3223 0.572732 21.5282 1.3573 14.2857C1.73989 10.7541 3.20582 7.74899 5.73531 5.31095C6.88299 4.20469 7.86883 3.50273 9.2447 2.81223C10.7937 2.03476 12.2633 1.57244 13.8333 1.36887C14.7515 1.24978 16.7674 1.26842 17.6874 1.40445ZM13.7316 2.9243C8.28923 3.82369 4.10672 7.88317 3.01825 13.3224C2.75865 14.6198 2.7617 16.9849 3.0245 18.2222C3.59818 20.923 4.69955 22.9772 6.59519 24.8819C8.16007 26.4544 9.68698 27.4094 11.6873 28.0667C13.174 28.5552 13.9702 28.6717 15.7747 28.665C17.4928 28.6586 18.2432 28.5439 19.7139 28.063C24.5981 26.4659 28.2072 21.7861 28.5021 16.6678C28.6499 14.1044 28.1893 11.9166 27.0324 9.68582C26.4124 8.49016 25.7974 7.66032 24.7485 6.60392C23.6271 5.47434 22.7154 4.81393 21.3433 4.13715C20.1995 3.57301 19.4308 3.30005 18.2647 3.04412C17.2857 2.82926 14.7176 2.76132 13.7316 2.9243ZM18.0182 4.30264C20.1974 4.78916 22.0869 5.80224 23.659 7.32693C26.0355 9.63168 27.2377 12.4651 27.2377 15.7614C27.2377 17.6839 26.9037 19.1426 26.0708 20.8577C24.1893 24.7321 20.4413 27.2162 16.2068 27.3953C12.7938 27.5397 9.80829 26.355 7.38825 23.8961C5.8502 22.3333 4.7969 20.3491 4.29854 18.0756C4.0681 17.0245 4.04887 14.6699 4.26192 13.6014C5.18606 8.967 8.67727 5.35476 13.2066 4.34661C14.205 4.1244 14.3099 4.11658 15.935 4.14377C16.9402 4.16055 17.6107 4.21171 18.0182 4.30264ZM14.6759 5.67185C14.1852 5.82628 13.6736 6.14918 13.2889 6.54728C13.0651 6.77892 11.9571 8.62781 9.98848 12.0548C8.35862 14.8922 6.89349 17.486 6.73268 17.8188C6.45593 18.3918 6.44039 18.4668 6.44039 19.2308C6.44039 19.9678 6.4621 20.0839 6.69182 20.572C7.12408 21.4908 7.79423 22.1024 8.70796 22.4124C9.18877 22.5756 9.34085 22.5792 15.632 22.5782C22.6094 22.5772 22.5156 22.5827 23.282 22.1304C23.8207 21.8125 24.3038 21.2773 24.6013 20.6687C24.8182 20.2249 24.8658 20.0244 24.8938 19.4348C24.917 18.9454 24.8888 18.598 24.8013 18.295C24.6751 17.8582 18.7061 7.32943 18.2647 6.76504C17.9188 6.32273 17.3209 5.9081 16.7631 5.72373C16.1709 5.52799 15.2091 5.50403 14.6759 5.67185ZM16.3557 6.94199C17.0408 7.1487 17.1982 7.38244 20.3121 12.8164C21.9269 15.6343 23.333 18.1214 23.4367 18.3433C23.7104 18.9289 23.698 19.5995 23.403 20.1682C23.153 20.6503 22.6593 21.0761 22.2026 21.2038C22.0088 21.2581 19.7108 21.2875 15.6488 21.2878C8.7017 21.2883 8.93326 21.3053 8.36968 20.754C7.8121 20.2088 7.57854 19.4486 7.75353 18.7489C7.84847 18.3692 13.8797 7.76626 14.1913 7.43109C14.6615 6.92545 15.5987 6.71365 16.3557 6.94199ZM15.0741 9.51775C14.7027 9.62579 14.2717 10.0896 14.2032 10.4551C14.1719 10.6222 14.1889 11.9733 14.2409 13.4575C14.3336 16.0968 14.34 16.1635 14.5333 16.4956C14.7468 16.8625 15.2555 17.1733 15.6424 17.1733C15.905 17.1733 16.3934 16.9767 16.6013 16.7872C16.9772 16.4446 16.999 16.2984 17.1077 13.3919C17.2184 10.429 17.209 10.3092 16.8333 9.88309C16.4928 9.49694 15.707 9.33371 15.0741 9.51775ZM15.8949 11.0817C15.8949 12.2452 15.7465 15.8098 15.6967 15.8407C15.6187 15.8893 15.5519 14.8508 15.4849 12.5477L15.4314 10.7057L15.6631 10.7323C15.8757 10.7567 15.8949 10.7856 15.8949 11.0817ZM15.1971 17.5758C14.5747 17.7648 14.1402 18.383 14.1462 19.0715C14.1502 19.5561 14.3052 19.8855 14.6879 20.2239C15.4448 20.8932 16.6067 20.651 17.0485 19.7319C17.6353 18.5113 16.494 17.1821 15.1971 17.5758ZM15.8605 18.9148C15.9349 19.0052 15.942 19.0806 15.8846 19.1722C15.7671 19.3597 15.6509 19.377 15.5038 19.2288C15.4057 19.13 15.3945 19.0609 15.4572 18.9428C15.5577 18.7538 15.7185 18.7426 15.8605 18.9148ZM30.1347 27.6585L31.2344 28.7453L30.5353 29.474C30.1509 29.8748 29.8143 30.203 29.7874 30.2033C29.7605 30.2036 29.0279 29.5049 28.1595 28.6505L26.5806 27.0972L27.2861 26.332L27.9916 25.5669L28.5134 26.0693C28.8004 26.3456 29.53 27.0608 30.1347 27.6585ZM35.4317 30.9884C39.3724 34.8139 39.7316 35.1852 39.7316 35.433C39.7316 35.615 39.462 35.9375 38.3164 37.1264C37.5382 37.9342 36.8171 38.6293 36.714 38.6711C36.5967 38.7188 36.4519 38.7188 36.3266 38.6711C36.1416 38.6008 34.7549 37.285 31.2585 33.8624C30.0422 32.6718 29.8764 32.4788 29.8764 32.2537C29.8764 32.031 30.0558 31.8138 31.2585 30.5796C32.9121 28.8828 32.8253 28.959 33.1082 28.9558C33.2976 28.9537 33.6835 29.2913 35.4317 30.9884Z" fill="#D58246"/>
</svg>
