<svg width="40" height="40" viewBox="0 0 40 40" fill="none" xmlns="http://www.w3.org/2000/svg">
<path d="M0.0208122 23.1339C1.08921 22.1803 2.15068 21.2267 3.22602 20.28L7.38862 16.6605C7.43718 16.6118 7.47881 16.5491 7.54125 16.5352C7.75906 16.4368 7.99625 16.3892 8.23501 16.396C8.5264 16.4447 8.59577 16.7301 8.60271 17.0085V20.2522C8.76228 20.2522 8.90103 20.2522 9.03284 20.2522C10.2469 20.2522 11.461 20.2522 12.6682 20.3079C14.1204 20.3792 15.5401 20.7638 16.8308 21.4355L17.2262 21.6234V13.7579C17.2194 13.628 17.2194 13.4979 17.2262 13.3681C17.2408 13.2323 17.3034 13.1063 17.4027 13.0128C17.5019 12.9194 17.6313 12.8648 17.7673 12.8589C17.9033 12.853 18.0369 12.8962 18.1438 12.9807C18.2508 13.0652 18.324 13.1853 18.3501 13.3194C18.3641 13.4629 18.3641 13.6074 18.3501 13.7509C18.3501 15.2127 18.3501 16.6744 18.3501 18.1362V18.6582C18.4473 18.519 18.5028 18.4563 18.5444 18.3867C19.2652 17.0944 20.2427 15.9643 21.4166 15.0665C21.5044 15.0045 21.5744 14.9204 21.6194 14.8226C21.6645 14.7249 21.6831 14.6169 21.6733 14.5096C21.6733 12.4122 21.6733 10.324 21.6733 8.24503C21.6733 7.46544 21.8328 7.30534 22.6168 7.30534H25.1976L20.0082 1.46534L14.8327 7.29838H17.4066C18.2044 7.29838 18.364 7.45152 18.364 8.26591V10.73C18.3744 10.8481 18.3744 10.9669 18.364 11.085C18.3623 11.1606 18.3453 11.2351 18.314 11.3038C18.2828 11.3726 18.2378 11.4343 18.182 11.4851C18.1262 11.5359 18.0606 11.5748 17.9893 11.5993C17.918 11.6239 17.8425 11.6336 17.7674 11.6279C17.6917 11.6281 17.6169 11.6127 17.5476 11.5824C17.4782 11.5522 17.4158 11.508 17.3643 11.4524C17.3128 11.3968 17.2734 11.3312 17.2484 11.2595C17.2235 11.1879 17.2135 11.1119 17.2193 11.0363C17.2193 10.3402 17.2193 9.64413 17.2193 8.99679V8.47474H16.7822C15.7485 8.47474 14.7009 8.47474 13.695 8.47474C13.4474 8.45491 13.2178 8.33723 13.0567 8.14758C12.8624 7.90396 13.0081 7.6325 13.2093 7.40975C15.3091 5.04313 17.4136 2.67417 19.5226 0.302904C19.5773 0.210589 19.655 0.134132 19.748 0.0810287C19.8411 0.0279255 19.9463 0 20.0533 0C20.1604 0 20.2656 0.0279255 20.3586 0.0810287C20.4517 0.134132 20.5294 0.210589 20.5841 0.302904L26.8973 7.41671C27.0985 7.63945 27.2373 7.91092 27.05 8.15455C26.8842 8.34083 26.653 8.45556 26.4048 8.47474C25.3849 8.47474 24.372 8.47474 23.3591 8.47474H22.9082V14.0433L23.2689 13.8832C24.7754 13.1191 26.4373 12.7141 28.1253 12.6999C29.2145 12.6999 30.3107 12.6999 31.4415 12.6999C31.4415 12.5328 31.4415 12.3936 31.4415 12.2613V9.55364C31.4243 9.41542 31.4488 9.27518 31.5119 9.15109C31.575 9.027 31.6737 8.92476 31.7953 8.85757C32.1145 8.70444 32.3434 8.85757 32.5654 9.07335L39.6488 15.2405C40.1136 15.6442 40.1205 15.9783 39.6488 16.3751L32.5515 22.6119C32.4631 22.7174 32.3435 22.7919 32.2099 22.8244C32.0764 22.857 31.936 22.8459 31.8092 22.7928C31.6889 22.7247 31.5916 22.622 31.5298 22.498C31.468 22.374 31.4445 22.2343 31.4623 22.0968V18.3798C30.6159 18.3798 29.8112 18.3798 29.0064 18.3798C28.2034 18.3759 27.4026 18.4647 26.6198 18.6443C25.5021 18.9716 24.525 19.6632 23.8428 20.6099C23.1606 21.5565 22.8122 22.7043 22.8527 23.8717C22.8527 26.656 22.8527 29.3846 22.8527 32.141C22.8527 32.2663 22.8527 32.3986 22.8527 32.5308C22.8582 32.6822 22.8036 32.8296 22.7008 32.9405C22.598 33.0515 22.4555 33.1169 22.3046 33.1225C22.1537 33.128 22.0068 33.0732 21.8962 32.9701C21.7856 32.8669 21.7204 32.724 21.7149 32.5726C21.694 32.2481 21.694 31.9226 21.7149 31.5981C21.7934 29.2846 21.0515 27.0182 19.6211 25.202C18.1907 23.3858 16.1646 22.1375 13.9031 21.6791C13.0978 21.5266 12.2805 21.4474 11.461 21.4425C10.4134 21.4077 9.37973 21.4425 8.29745 21.4425C7.60368 21.4425 7.44412 21.2824 7.44412 20.5933C7.44412 19.9042 7.44412 19.0898 7.44412 18.2127L1.49853 23.3079L2.99707 24.7001C3.08036 24.7642 3.15917 24.8339 3.23295 24.9089C3.28944 24.9596 3.33541 25.021 3.36825 25.0896C3.40109 25.1581 3.42014 25.2325 3.42433 25.3084C3.42852 25.3844 3.41776 25.4604 3.39266 25.5322C3.36756 25.604 3.32861 25.6701 3.27805 25.7268C3.22748 25.7834 3.16629 25.8296 3.09796 25.8625C3.02963 25.8954 2.9555 25.9146 2.8798 25.9188C2.8041 25.923 2.72833 25.9122 2.65679 25.887C2.58525 25.8618 2.51936 25.8227 2.46287 25.772C1.93561 25.3335 1.41528 24.881 0.89496 24.3799C0.589702 24.1084 0.29832 23.8091 0 23.5237L0.0208122 23.1339ZM32.6279 10.6604C32.6279 11.5722 32.6279 12.3657 32.6279 13.1593C32.6279 13.6952 32.4267 13.8901 31.8994 13.8901C31.2056 13.8901 30.5119 13.8901 29.8181 13.8901C28.7009 13.8746 27.5838 13.9328 26.4741 14.0642C24.4709 14.4052 22.6235 15.3641 21.1886 16.8075C19.7537 18.2508 18.8028 20.1069 18.4681 22.1176C18.4449 22.2173 18.4532 22.3217 18.4917 22.4165C18.5302 22.5112 18.5971 22.5917 18.6831 22.6467C19.813 23.533 20.7562 24.6355 21.4582 25.8903C21.5068 25.9678 21.5601 26.0422 21.6178 26.1131H21.7149C21.7149 25.1107 21.6663 24.1014 21.7149 23.0991C21.8463 21.6241 22.4816 20.24 23.5132 19.1809C24.5448 18.1218 25.9093 17.4527 27.376 17.2869C28.8954 17.1686 30.4217 17.2173 31.941 17.2034C32.4058 17.2034 32.6348 17.4401 32.6348 17.9343C32.6348 18.8113 32.6348 19.6884 32.6348 20.5585C32.6348 20.6698 32.6348 20.7742 32.6348 20.9552L38.5179 15.8322L32.6279 10.6604Z" fill="#0057FF"/>
<path d="M8.58225 25.9255V29.2249C8.61019 29.3931 8.61019 29.5648 8.58225 29.733C8.50593 29.9348 8.39493 30.1993 8.22842 30.2759C8.12153 30.3054 8.00946 30.3106 7.90029 30.2914C7.79112 30.2721 7.68756 30.2288 7.59709 30.1645C7.24232 29.9002 6.90405 29.6143 6.58419 29.3084L4.38495 27.3803C4.26336 27.3016 4.17359 27.1821 4.13166 27.0431C4.08973 26.9041 4.09836 26.7547 4.15601 26.6216C4.32251 26.2318 4.75959 26.1691 5.13422 26.4823C5.77943 27.0322 6.41075 27.5961 7.05596 28.1529C7.15308 28.2434 7.26409 28.3269 7.43753 28.4801V25.842C7.43753 24.7909 7.52078 24.7004 8.57531 24.7074C9.96284 24.7074 11.3087 24.7074 12.6685 24.7909C14.1463 24.9495 15.5219 25.6227 16.5562 26.6935C17.5905 27.7643 18.218 29.1649 18.3297 30.6518C18.4337 33.1507 18.3782 35.6635 18.3921 38.1693V38.7888H21.7152V35.2041C21.7047 35.0604 21.7047 34.9162 21.7152 34.7725C21.7276 34.6327 21.7941 34.5034 21.9005 34.4123C22.0069 34.3212 22.1446 34.2756 22.2841 34.2853C22.3567 34.2834 22.4289 34.296 22.4965 34.3224C22.5642 34.3488 22.6259 34.3884 22.6782 34.4389C22.7305 34.4894 22.7723 34.5498 22.8011 34.6166C22.8299 34.6835 22.8452 34.7554 22.8461 34.8282C22.8461 34.9256 22.8461 35.037 22.8461 35.1414V39.1368C22.8461 39.8329 22.6865 40 22.0066 40H18.0175C17.3237 40 17.185 39.8259 17.185 39.1716C17.185 36.5684 17.185 33.972 17.185 31.3687C17.2147 30.1016 16.794 28.8652 15.9984 27.8806C15.2027 26.8961 14.0838 26.2278 12.842 25.9951C12.6783 25.9549 12.5109 25.9316 12.3425 25.9255H8.58225Z" fill="#0057FF"/>
</svg>
