<svg width="43" height="40" viewBox="0 0 43 40" fill="none" xmlns="http://www.w3.org/2000/svg">
<path d="M0 25.7916C0.0767184 25.504 0.138096 25.2164 0.230158 24.9365C0.511138 24.0205 1.07839 23.2219 1.84639 22.6611C2.6144 22.1003 3.54154 21.8076 4.48803 21.8272C7.47237 21.8272 10.4567 21.8272 13.4411 21.8272C14.0389 21.8141 14.633 21.9249 15.187 22.1528C15.741 22.3807 16.2432 22.7209 16.6628 23.1526C17.0823 23.5843 17.4104 24.0982 17.6268 24.663C17.8433 25.2277 17.9435 25.8314 17.9214 26.4368C17.9214 27.0198 17.9214 27.6028 17.9214 28.1858C17.9293 28.3073 17.9115 28.4291 17.8692 28.5431C17.8269 28.657 17.7611 28.7605 17.6761 28.8466C17.5911 28.9327 17.489 28.9995 17.3765 29.0423C17.264 29.0852 17.1437 29.1033 17.0238 29.0952C16.904 29.0976 16.785 29.0748 16.6744 29.0283C16.5637 28.9817 16.4638 28.9124 16.3809 28.8248C16.298 28.7371 16.2339 28.633 16.1927 28.519C16.1515 28.405 16.1341 28.2836 16.1416 28.1624C16.1416 27.5639 16.1416 26.9654 16.1416 26.3746C16.1358 25.6636 15.857 24.9828 15.3644 24.4764C14.8718 23.97 14.204 23.6778 13.5024 23.6617C10.4849 23.6617 7.47237 23.6617 4.46501 23.6617C3.75538 23.6739 3.07866 23.967 2.57968 24.4784C2.0807 24.9898 1.79912 25.6788 1.79521 26.3979C1.79521 26.9187 1.79521 27.4473 1.79521 27.9526C1.79521 28.6288 1.61876 28.932 1.15078 29.0486C0.682794 29.1652 0.329891 29.002 0.00767348 28.4345L0 25.7916Z" fill="#FFB300"/>
<path d="M42.9998 28.4332C42.7006 28.9696 42.4091 29.1483 41.9411 29.0628C41.7457 29.0509 41.5622 28.9638 41.4281 28.8193C41.2941 28.6748 41.2196 28.4838 41.2199 28.2855C41.2199 27.7025 41.2199 27.1195 41.2199 26.5365C41.2341 26.153 41.1696 25.7706 41.0305 25.4136C40.8914 25.0566 40.6808 24.7327 40.4118 24.4624C40.1429 24.1921 39.8216 23.9813 39.4681 23.8432C39.1146 23.7052 38.7368 23.6429 38.3583 23.6604H29.7122C29.3332 23.6405 28.9543 23.7012 28.5997 23.8384C28.2452 23.9756 27.9229 24.1863 27.6535 24.4571C27.3841 24.7279 27.1734 25.0528 27.0352 25.4109C26.8969 25.7689 26.834 26.1524 26.8506 26.5365C26.8506 27.0573 26.8506 27.5859 26.8506 28.0912C26.8649 28.216 26.8526 28.3426 26.8145 28.4622C26.7764 28.5818 26.7134 28.6918 26.6298 28.7846C26.5461 28.8775 26.4438 28.9511 26.3297 29.0004C26.2156 29.0497 26.0924 29.0737 25.9683 29.0706C25.8452 29.078 25.722 29.0582 25.6072 29.0126C25.4924 28.967 25.3887 28.8967 25.3033 28.8065C25.218 28.7163 25.153 28.6084 25.1128 28.4903C25.0726 28.3722 25.0583 28.2466 25.0707 28.1223C25.0333 27.2585 25.0615 26.3931 25.1551 25.5338C25.3105 24.4746 25.8437 23.51 26.6538 22.8224C27.4639 22.1348 28.4947 21.7719 29.5511 21.8026C32.5329 21.7663 35.5172 21.7663 38.5041 21.8026C39.5679 21.7812 40.6029 22.1527 41.4161 22.8479C42.2292 23.5431 42.7649 24.5144 42.9231 25.5804C42.9405 25.6471 42.9636 25.7121 42.9921 25.7747L42.9998 28.4332Z" fill="#FFB300"/>
<path d="M10.3182 5.45685C11.3232 5.45685 12.3282 5.45685 13.3409 5.45685C13.4921 5.4405 13.6449 5.46403 13.7845 5.52517C13.9241 5.5863 14.0457 5.68295 14.1376 5.80575C14.2294 5.92854 14.2884 6.07332 14.3088 6.22601C14.3292 6.37871 14.3102 6.53415 14.2538 6.67725C14.192 6.87577 14.0621 7.0453 13.8876 7.1551C13.7131 7.26491 13.5055 7.30772 13.3025 7.27579C12.5353 7.27579 11.8449 7.27579 11.116 7.27579H8.3465C7.41053 7.27579 7.11133 6.96486 7.11133 6.03207C7.11133 4.47741 7.11133 2.8528 7.11133 1.25927V1.01053C7.11133 0.365347 7.45656 0 8.00893 0C8.56131 0 8.90653 0.35757 8.9142 0.994979C8.9142 1.85004 8.9142 2.69733 8.9142 3.55239V4.05765L9.34383 3.76227C12.2547 1.70951 15.6459 0.465894 19.1791 0.155469C22.1329 -0.167518 25.1205 0.123644 27.9594 1.01114C30.7982 1.89864 33.4284 3.36379 35.6889 5.31693C35.8588 5.42046 35.99 5.57801 36.0621 5.76503C36.1343 5.95204 36.1433 6.158 36.0879 6.35077C36.0306 6.5499 35.9147 6.72657 35.7557 6.85715C35.5967 6.98773 35.4021 7.06599 35.1979 7.08146C34.9183 7.05945 34.6513 6.95395 34.4308 6.7783C32.5411 5.07712 30.3342 3.77671 27.9404 2.95385C25.085 1.92515 22.032 1.58624 19.0246 1.96411C16.0171 2.34197 13.1383 3.42618 10.6174 5.13037L10.2951 5.37911L10.3182 5.45685Z" fill="#FFB300"/>
<path d="M33.0801 34.5435H29.9193C29.7162 34.5765 29.5081 34.5402 29.3276 34.4403C29.1471 34.3404 29.0044 34.1826 28.922 33.9916C28.8617 33.8576 28.8347 33.7106 28.8434 33.5635C28.852 33.4165 28.8962 33.2738 28.9719 33.148C29.0476 33.0223 29.1525 32.9172 29.2776 32.842C29.4026 32.7668 29.5439 32.7238 29.6892 32.7168H34.8984C35.7192 32.7168 36.0184 32.9655 36.0261 33.7895C36.0261 35.554 36.0261 37.3264 36.0261 39.0987C36.0261 39.3378 35.9323 39.5672 35.7655 39.7363C35.5986 39.9054 35.3722 40.0004 35.1362 40.0004C34.9002 40.0004 34.6738 39.9054 34.5069 39.7363C34.34 39.5672 34.2462 39.3378 34.2462 39.0987C34.2462 38.2669 34.2462 37.4274 34.2462 36.5879V36.0671C33.8166 36.3392 33.4791 36.5723 33.1185 36.79C29.1692 39.2351 24.5473 40.3254 19.9383 39.8993C15.3386 39.5167 10.9756 37.6723 7.47151 34.629C7.36807 34.5605 7.28058 34.47 7.21514 34.3638C7.14969 34.2575 7.10784 34.1381 7.09251 34.0139C7.07718 33.8896 7.08874 33.7635 7.12637 33.6442C7.16399 33.5249 7.22679 33.4153 7.3104 33.3231C7.38715 33.2257 7.48365 33.1461 7.59338 33.0897C7.70311 33.0333 7.8235 33.0015 7.94643 32.9963C8.06935 32.9912 8.19194 33.0128 8.30589 33.0598C8.41985 33.1068 8.52251 33.178 8.60694 33.2687C10.7989 35.2874 13.426 36.7593 16.2788 37.5673C19.0635 38.3976 21.9965 38.5841 24.8618 38.1133C27.7271 37.6424 30.4517 36.5261 32.8346 34.8467L33.1261 34.629L33.0801 34.5435Z" fill="#FFB300"/>
<path d="M34.0175 20.001C33.1296 19.9979 32.2625 19.728 31.526 19.2254C30.7894 18.7228 30.2166 18.0102 29.88 17.1776C29.5433 16.3451 29.458 15.4301 29.6348 14.5483C29.8115 13.6666 30.2425 12.8579 30.873 12.2244C31.5036 11.591 32.3055 11.1613 33.1772 10.9897C34.0488 10.8181 34.9511 10.9124 35.7699 11.2606C36.5887 11.6088 37.2871 12.1953 37.7768 12.9458C38.2665 13.6964 38.5255 14.5772 38.5209 15.4769C38.523 16.0749 38.4077 16.6673 38.1816 17.2197C37.9555 17.7721 37.6233 18.2734 37.2042 18.6944C36.7851 19.1154 36.2875 19.4478 35.7404 19.6721C35.1933 19.8964 34.6077 20.0082 34.0175 20.001ZM36.7104 15.4536C36.6985 14.7365 36.4115 14.0523 35.9103 13.5459C35.4091 13.0395 34.733 12.7507 34.0252 12.7407C33.4917 12.7392 32.9697 12.8983 32.5255 13.1979C32.0813 13.4974 31.735 13.9239 31.5305 14.4232C31.3259 14.9226 31.2724 15.4722 31.3767 16.0024C31.481 16.5326 31.7384 17.0194 32.1162 17.4012C32.494 17.7829 32.9753 18.0423 33.4988 18.1465C34.0224 18.2506 34.5647 18.1948 35.057 17.9861C35.5492 17.7775 35.9691 17.4253 36.2635 16.9744C36.5579 16.5235 36.7134 15.9942 36.7104 15.4536Z" fill="#FFB300"/>
<path d="M13.4096 15.4384C13.4141 16.3384 13.155 17.2195 12.665 17.9702C12.1749 18.721 11.476 19.3074 10.6568 19.6554C9.83761 20.0034 8.93489 20.0972 8.063 19.925C7.19111 19.7529 6.38926 19.3224 5.75899 18.6881C5.12872 18.0539 4.69839 17.2444 4.52248 16.3622C4.34657 15.48 4.43299 14.5647 4.77082 13.7323C5.10864 12.8999 5.68267 12.1877 6.4202 11.6861C7.15773 11.1845 8.02559 10.9159 8.91389 10.9143C9.50338 10.9081 10.0882 11.0207 10.6344 11.2455C11.1806 11.4702 11.6773 11.8028 12.0955 12.2237C12.5138 12.6446 12.8454 13.1455 13.071 13.6974C13.2966 14.2493 13.4117 14.841 13.4096 15.4384ZM6.25176 15.4384C6.27128 16.1543 6.56172 16.8352 7.06297 17.3402C7.56422 17.8452 8.2379 18.1355 8.94458 18.1512C9.65262 18.1238 10.3237 17.8238 10.8211 17.3126C11.3186 16.8014 11.605 16.1172 11.622 15.3995C11.5985 14.6837 11.3042 14.0044 10.8001 13.5023C10.296 13.0002 9.62068 12.7137 8.91389 12.7022C8.1996 12.7185 7.52024 13.0185 7.02225 13.5376C6.52427 14.0567 6.24755 14.7533 6.25176 15.4772V15.4384Z" fill="#FFB300"/>
</svg>
