<svg width="36" height="40" viewBox="0 0 36 40" fill="none" xmlns="http://www.w3.org/2000/svg">
<path d="M12.8441 13.0111C13.7487 12.1703 14.3793 11.0765 14.6539 9.87202C14.9285 8.66757 14.8343 7.40831 14.3837 6.25814C13.933 5.10798 13.1468 4.12023 12.1273 3.42345C11.1078 2.72668 9.90227 2.35318 8.66766 2.35157C7.43305 2.34995 6.22656 2.72029 5.20524 3.4144C4.18392 4.1085 3.3951 5.0942 2.94146 6.24318C2.48782 7.39216 2.39038 8.65118 2.66182 9.85635C2.93327 11.0615 3.56103 12.157 4.46337 13.0002C1.41278 14.9941 0.205305 19.0046 0.00481219 21.4366C-0.0262182 21.8138 0.0937309 22.1879 0.338294 22.4767C0.582857 22.7654 0.932009 22.9452 1.30898 22.9764C1.34895 22.9764 1.38827 22.9816 1.42824 22.9816C1.78569 22.9807 2.12979 22.8455 2.39243 22.6029C2.65507 22.3603 2.81714 22.0279 2.84653 21.6714C2.85233 21.6018 3.47379 14.8212 8.47839 14.6587C8.53899 14.6587 8.59701 14.6677 8.65761 14.6677C8.71821 14.6677 8.7788 14.6606 8.8394 14.6587C13.7544 14.818 14.3765 21.3889 14.4004 21.6695C14.4128 21.8583 14.4627 22.0428 14.5471 22.2122C14.6315 22.3816 14.7487 22.5325 14.8919 22.6561C15.0351 22.7798 15.2015 22.8737 15.3813 22.9324C15.5611 22.9911 15.7508 23.0135 15.9393 22.9982C16.1278 22.9829 16.3114 22.9302 16.4794 22.8432C16.6474 22.7563 16.7965 22.6368 16.9179 22.4916C17.0393 22.3465 17.1307 22.1786 17.1866 21.9978C17.2426 21.817 17.2621 21.6269 17.244 21.4385C17.0474 19.0104 15.8592 15.0057 12.8441 13.0111ZM5.36591 8.51618C5.36574 7.87268 5.55376 7.2432 5.9068 6.70534C6.25984 6.16748 6.76246 5.74475 7.35269 5.48927C7.94292 5.23379 8.59497 5.15675 9.22844 5.2676C9.86192 5.37845 10.4491 5.67233 10.9177 6.11309C11.3862 6.55385 11.7156 7.12218 11.8653 7.74801C12.0149 8.37384 11.9783 9.02983 11.7599 9.63507C11.5415 10.2403 11.1508 10.7684 10.6361 11.1542C10.1214 11.5399 9.50513 11.7666 8.86326 11.8061C8.79879 11.8061 8.7311 11.7996 8.66212 11.7996C8.59314 11.7996 8.52673 11.8048 8.4584 11.8061C7.62075 11.7544 6.83436 11.3849 6.2596 10.7729C5.68484 10.161 5.36499 9.35273 5.36527 8.51295L5.36591 8.51618Z" fill="#FC7754"/>
<path d="M31.5941 27.6944C32.4986 26.8535 33.1291 25.7597 33.4036 24.5552C33.6781 23.3507 33.5839 22.0915 33.1332 20.9413C32.6824 19.7912 31.8961 18.8035 30.8766 18.1068C29.857 17.4101 28.6515 17.0367 27.4168 17.0352C26.1822 17.0336 24.9758 17.404 23.9545 18.0982C22.9332 18.7924 22.1445 19.7782 21.6909 20.9272C21.2374 22.0763 21.14 23.3353 21.4116 24.5404C21.6831 25.7456 22.311 26.841 23.2134 27.6841C20.1628 29.6774 18.9553 33.6886 18.7548 36.1205C18.7238 36.4977 18.8437 36.8718 19.0883 37.1606C19.3329 37.4493 19.682 37.6291 20.059 37.6603C20.099 37.6635 20.1383 37.6655 20.1782 37.6655C20.5357 37.6646 20.8798 37.5294 21.1424 37.2868C21.4051 37.0442 21.5671 36.7118 21.5965 36.3553C21.6023 36.2863 22.2238 29.5052 27.2284 29.3426C27.289 29.3426 27.347 29.3516 27.4076 29.3516C27.4682 29.3516 27.5288 29.3446 27.5894 29.3426C32.5044 29.502 33.1265 36.0728 33.1504 36.3534C33.1628 36.5422 33.2127 36.7267 33.2971 36.8961C33.3815 37.0655 33.4987 37.2164 33.6419 37.3401C33.7851 37.4637 33.9515 37.5577 34.1313 37.6164C34.3111 37.6751 34.5008 37.6974 34.6893 37.6821C34.8778 37.6668 35.0614 37.6141 35.2294 37.5272C35.3974 37.4402 35.5465 37.3207 35.6679 37.1756C35.7893 37.0304 35.8807 36.8625 35.9366 36.6817C35.9926 36.501 36.0121 36.3108 35.994 36.1224C35.7974 33.6937 34.6092 29.689 31.5941 27.6944ZM24.1159 23.1995C24.1157 22.556 24.3038 21.9265 24.6568 21.3886C25.0098 20.8508 25.5125 20.428 26.1027 20.1725C26.6929 19.9171 27.345 19.84 27.9784 19.9509C28.6119 20.0617 29.1991 20.3556 29.6677 20.7964C30.1362 21.2371 30.4656 21.8055 30.6153 22.4313C30.7649 23.0571 30.7283 23.7131 30.5099 24.3184C30.2915 24.9236 29.9008 25.4517 29.3861 25.8374C28.8714 26.2232 28.2551 26.4498 27.6133 26.4894C27.5488 26.4894 27.4805 26.4829 27.4121 26.4829C27.3438 26.4829 27.2767 26.4881 27.2084 26.4894C26.3707 26.4376 25.5844 26.0682 25.0096 25.4562C24.4348 24.8443 24.115 24.036 24.1153 23.1962L24.1159 23.1995Z" fill="#FC7754"/>
<path d="M15.4817 34.7434C13.0997 34.1219 10.9152 32.9035 9.13413 31.2032C7.35306 29.503 6.0341 27.3768 5.30165 25.0252C5.18269 24.673 4.93111 24.3811 4.60042 24.2116C4.26974 24.0422 3.88603 24.0085 3.5309 24.1177C3.17577 24.2269 2.87724 24.4705 2.69879 24.7966C2.52034 25.1226 2.47604 25.5056 2.57533 25.8638C3.25688 28.0513 4.36367 30.0825 5.8321 31.8407C7.30054 33.5989 9.10169 35.0495 11.1321 36.109L8.17108 37.2289C7.99335 37.2932 7.83018 37.3924 7.69104 37.5204C7.5519 37.6484 7.43957 37.8028 7.36058 37.9747C7.28158 38.1465 7.23749 38.3323 7.23089 38.5213C7.22428 38.7103 7.25527 38.8988 7.32207 39.0758C7.38887 39.2527 7.49015 39.4146 7.62001 39.552C7.74986 39.6895 7.90573 39.7996 8.07853 39.8763C8.25134 39.9529 8.43763 39.9945 8.62661 39.9985C8.81559 40.0025 9.00348 39.9688 9.17935 39.8995L15.6306 37.4598C15.9141 37.3525 16.156 37.1576 16.3213 36.9034C16.4867 36.6492 16.5668 36.349 16.5502 36.0462C16.5335 35.7434 16.4209 35.4537 16.2287 35.2193C16.0364 34.9848 15.7746 34.8176 15.481 34.7421L15.4817 34.7434Z" fill="#FC7754"/>
<path d="M33.1385 17.595C33.2242 17.9615 33.4512 18.2793 33.77 18.4792C34.0888 18.6791 34.4735 18.745 34.8406 18.6624C35.2076 18.5798 35.5272 18.3554 35.7298 18.0382C35.9323 17.721 36.0015 17.3366 35.9222 16.9686C35.2039 13.8635 33.6477 11.0153 31.423 8.73442C29.1983 6.45351 26.3906 4.82741 23.3059 4.03338L25.5939 2.64903C25.7542 2.55199 25.8938 2.42429 26.0048 2.27326C26.1158 2.12222 26.196 1.95077 26.2407 1.76873C26.2855 1.58669 26.294 1.39765 26.2658 1.21232C26.2375 1.02698 26.1731 0.848983 26.0761 0.688577C25.9791 0.528172 25.8515 0.388506 25.7006 0.277446C25.5496 0.166386 25.3783 0.0861729 25.1964 0.0413665C25.0145 -0.00343995 24.8255 -0.011943 24.6403 0.0163254C24.4551 0.0445937 24.2772 0.109063 24.1169 0.206103L18.3381 3.70438C18.0717 3.8658 17.8654 4.11005 17.7507 4.39978C17.636 4.68951 17.6192 5.0088 17.7028 5.30898C17.7865 5.60917 17.966 5.87374 18.214 6.06226C18.462 6.25079 18.7648 6.35289 19.0762 6.35307C22.3428 6.36872 25.5085 7.48726 28.0607 9.52755C30.6128 11.5678 32.402 14.4104 33.1385 17.595Z" fill="#FC7754"/>
</svg>
