<svg width="40" height="40" viewBox="0 0 40 40" fill="none" xmlns="http://www.w3.org/2000/svg">
<path d="M28.5471 22.6619C27.6905 22.6619 26.9862 22.6619 26.2723 22.6619C26.0534 22.6619 26.0058 22.5953 25.9963 22.3859C25.9963 21.3198 25.9963 21.3293 27.0243 21.3198C28.2937 21.3698 29.565 21.3444 30.8314 21.2437C31.9551 21.0817 33.0095 20.6035 33.8718 19.865C34.734 19.1264 35.3685 18.1579 35.7012 17.0724C36.0339 15.9869 36.0512 14.8292 35.7509 13.7342C35.4506 12.6393 34.8453 11.6524 34.0054 10.8885C33.1655 10.1246 32.1257 9.61524 31.0074 9.41989C29.889 9.22454 28.7382 9.35123 27.6891 9.78517C26.64 10.2191 25.736 10.9424 25.0823 11.8707C24.4287 12.799 24.0525 13.894 23.9976 15.0281C23.9976 15.247 23.95 15.3231 23.7025 15.3327C22.5984 15.3327 22.5984 15.3327 22.7507 14.2571C22.9586 12.8499 23.5715 11.5337 24.5145 10.4689C25.4576 9.40411 26.6901 8.63675 28.0617 8.2604C28.4424 8.16522 28.4519 8.03195 28.3663 7.70832C28.0414 6.50464 27.4605 5.38527 26.6633 4.42672C25.8661 3.46817 24.8714 2.69302 23.7471 2.15424C22.6229 1.61546 21.3955 1.32576 20.149 1.30492C18.9025 1.28407 17.6662 1.53258 16.5245 2.03347C15.3829 2.53436 14.3628 3.27582 13.534 4.20719C12.7052 5.13855 12.0872 6.23787 11.7223 7.43002C11.3574 8.62217 11.2541 9.87907 11.4195 11.1148C11.5849 12.3506 12.0151 13.536 12.6807 14.5902C12.8616 14.8948 12.833 15.009 12.5475 15.1899C11.7575 15.7134 11.767 15.7324 11.3102 14.9138C10.4051 13.3458 9.95985 11.5546 10.0252 9.74529C10.0252 9.3931 9.95862 9.30743 9.60646 9.32647C8.17928 9.42717 6.83493 10.0341 5.81544 11.038C4.79596 12.0418 4.16831 13.3767 4.04551 14.8022C3.92271 16.2278 4.31281 17.6503 5.14559 18.8138C5.97837 19.9772 7.19911 20.8051 8.58803 21.1485C9.44792 21.3052 10.323 21.3627 11.1959 21.3198C11.8146 21.3198 12.4428 21.3198 13.0995 21.3198C13.3089 21.3198 13.3755 21.3198 13.3755 21.5863C13.3755 22.6524 13.3755 22.6714 12.3476 22.6524C11.0765 22.7105 9.80282 22.6595 8.54044 22.5001C6.89481 22.1538 5.41833 21.2521 4.35868 19.9462C3.29903 18.6403 2.7207 17.0097 2.7207 15.3279C2.7207 13.6461 3.29903 12.0155 4.35868 10.7096C5.41833 9.40372 6.89481 8.50199 8.54044 8.1557C8.99922 8.04916 9.46859 7.99487 9.93958 7.99388C10.1775 7.99388 10.2537 7.93677 10.3203 7.6988C10.7385 5.77817 11.7292 4.0295 13.1617 2.68359C14.5941 1.33769 16.4011 0.457824 18.3439 0.16014C20.8452 -0.295066 23.4257 0.228677 25.5516 1.62302C27.6775 3.01735 29.1862 5.17559 29.7654 7.65122C29.832 7.91773 29.9272 7.99388 30.1937 8.0034C32.0177 8.0407 33.7622 8.757 35.0861 10.0122C36.4101 11.2675 37.2183 12.9714 37.3528 14.7909C37.4872 16.6104 36.9383 18.4147 35.8132 19.8509C34.6882 21.2872 33.0679 22.2522 31.2692 22.5572C30.3656 22.6585 29.4558 22.6935 28.5471 22.6619Z" fill="#FFB300"/>
<path d="M0.0106568 33.2355C0.0106568 31.979 0.0106568 30.7131 0.0106568 29.4281C-0.000906983 29.1165 0.0642153 28.8069 0.200301 28.5264C0.336386 28.2459 0.53927 28.0031 0.791126 27.8194C1.65835 27.1862 2.68167 26.8012 3.7512 26.7058C5.27836 26.4666 6.83975 26.5739 8.3198 27.0199C8.96517 27.1937 9.5593 27.5202 10.0521 27.9717C10.1948 28.1145 10.2615 28.0764 10.3757 27.9717L15.858 22.4986C15.9136 22.441 15.956 22.372 15.9823 22.2964C16.0086 22.2208 16.0182 22.1404 16.0103 22.0607C16.0103 20.7948 16.0103 19.5288 16.0103 18.2533C16.0103 17.9868 16.0769 17.9297 16.3339 17.9297C17.3523 17.9297 17.3523 17.9297 17.3523 18.8815C17.3523 20.0714 17.3523 21.2707 17.3523 22.4605C17.3599 22.5815 17.3398 22.7027 17.2937 22.8148C17.2475 22.927 17.1764 23.0272 17.0858 23.1078L10.9468 29.3234C10.8536 29.4106 10.7806 29.5171 10.7329 29.6355C10.6853 29.7539 10.664 29.8812 10.6707 30.0087C10.6707 32.3407 10.6707 34.6728 10.6707 37.0048C10.6933 37.4068 10.6016 37.807 10.4062 38.1591C10.2108 38.5111 9.91973 38.8007 9.56665 38.9942C8.77663 39.4595 7.89806 39.7546 6.9873 39.8604C5.28185 40.1436 3.53232 39.9863 1.90472 39.4035C1.49146 39.2468 1.10589 39.025 0.762574 38.7467C0.516931 38.5627 0.319397 38.3221 0.186816 38.0453C0.0542345 37.7685 -0.00946667 37.4638 0.00113684 37.1571C0.0201727 35.815 0.0106568 34.53 0.0106568 33.2355Z" fill="#FFB300"/>
<path d="M39.9964 33.2833C39.9964 34.5017 39.9964 35.72 39.9964 36.9479C40.021 37.3586 39.9263 37.7677 39.7236 38.1257C39.5209 38.4838 39.219 38.7756 38.8542 38.9659C38.0732 39.4174 37.2087 39.7056 36.313 39.813C34.6107 40.0963 32.8642 39.939 31.2399 39.3561C30.8112 39.1991 30.4121 38.9706 30.0597 38.6803C29.8215 38.4971 29.6301 38.2602 29.5011 37.9889C29.3721 37.7176 29.3091 37.4196 29.3173 37.1193C29.3173 34.7301 29.3173 32.36 29.3173 29.9613C29.3282 29.8335 29.3089 29.7048 29.261 29.5858C29.213 29.4667 29.1378 29.3606 29.0413 29.276L22.9117 23.1556C22.8232 23.0733 22.7536 22.9729 22.7076 22.8611C22.6616 22.7494 22.6403 22.6291 22.6452 22.5083C22.6452 21.0901 22.6452 19.6528 22.6452 18.2631C22.6452 18.0061 22.7023 17.9395 22.9593 17.9395C23.9872 17.9395 23.9872 17.9395 23.9872 18.9675C23.9872 19.9955 23.9872 20.9949 23.9872 22.0039C23.982 22.1062 23.9988 22.2085 24.0366 22.3037C24.0743 22.399 24.1322 22.485 24.2062 22.5559C25.9955 24.3391 27.7817 26.1222 29.5648 27.9053C29.7266 28.0767 29.8027 28.1052 30.0121 27.9053C30.8602 27.226 31.8899 26.8122 32.9722 26.7155C34.6766 26.425 36.4272 26.5791 38.0547 27.1629C38.483 27.3165 38.8821 27.5418 39.235 27.8292C39.4759 28.0168 39.6695 28.2584 39.8001 28.5345C39.9307 28.8106 39.9947 29.1135 39.9869 29.4188C39.9869 30.7228 39.9964 32.0078 39.9964 33.2833Z" fill="#FFB300"/>
<path d="M20.6723 22.2919C20.6723 23.6245 20.6723 24.9571 20.6723 26.2897C20.6723 26.5467 20.7294 26.6418 21.0054 26.6704C22.0458 26.7222 23.0639 26.9914 23.994 27.4604C24.4268 27.6516 24.7899 27.9719 25.0335 28.3774C25.2772 28.783 25.3895 29.254 25.3551 29.7258C25.3551 32.1531 25.3551 34.5803 25.3551 37.0075C25.3791 37.3807 25.3036 37.7535 25.1364 38.088C24.9691 38.4224 24.7162 38.7065 24.4033 38.9112C23.5836 39.4385 22.6509 39.7647 21.6812 39.8631C19.9921 40.1449 18.2591 39.9909 16.6462 39.4157C16.2311 39.261 15.8425 39.0426 15.4945 38.7684C15.2395 38.5849 15.034 38.341 14.8961 38.0587C14.7583 37.7763 14.6925 37.4643 14.7045 37.1503C14.7045 34.612 14.7045 32.0738 14.7045 29.5355C14.6955 29.2304 14.7599 28.9275 14.8924 28.6525C15.025 28.3775 15.2217 28.1384 15.466 27.9554C16.4042 27.2802 17.5111 26.8782 18.664 26.7941C19.3683 26.7085 19.3778 26.7275 19.3778 26.0231C19.3778 23.4817 19.3778 20.9498 19.3778 18.4083C19.3778 18.1228 19.4254 18.0371 19.73 18.0371C20.6818 18.0371 20.6818 18.0371 20.6818 18.989L20.6723 22.2919Z" fill="#FFB300"/>
<path d="M1.3626 35.1309C2.62633 35.6702 3.98612 35.9483 5.36013 35.9483C6.73413 35.9483 8.09392 35.6702 9.35765 35.1309C9.35765 35.8257 9.35765 36.511 9.35765 37.1964C9.35765 37.5105 9.11971 37.6533 8.9008 37.796C8.29372 38.1611 7.61536 38.3915 6.91155 38.4719C5.50109 38.719 4.05193 38.6244 2.68559 38.1958C2.49523 38.1292 2.32391 38.053 2.14307 37.9769C1.88149 37.9052 1.65586 37.7389 1.5099 37.5103C1.36394 37.2816 1.30805 37.007 1.35308 36.7395C1.38921 36.204 1.39239 35.6668 1.3626 35.1309Z" fill="#FEFEFE"/>
<path d="M1.36416 31.1445C2.62844 31.6818 3.98801 31.9586 5.36169 31.9586C6.73536 31.9586 8.09493 31.6818 9.35921 31.1445C9.35921 31.8394 9.35921 32.5438 9.35921 33.2386C9.35921 33.5622 9.0832 33.705 8.84525 33.8478C8.04979 34.2773 7.1687 34.5245 6.26589 34.5712C4.91066 34.7225 3.53894 34.5428 2.26836 34.0477C1.96281 33.9875 1.69264 33.8108 1.51501 33.555C1.33738 33.2992 1.26621 32.9843 1.31657 32.677C1.36576 32.1678 1.38166 31.6558 1.36416 31.1445Z" fill="#FEFEFE"/>
<path d="M5.27607 27.9472C6.37821 27.9124 7.47507 28.1136 8.49313 28.5373C8.84529 28.6992 9.31167 28.8515 9.31167 29.2798C9.31167 29.7081 8.84529 29.8699 8.50264 30.0222C7.22481 30.541 5.83724 30.7308 4.46704 30.5743C3.61984 30.5303 2.79061 30.3132 2.03045 29.9366C1.74491 29.7843 1.35468 29.6415 1.37372 29.2608C1.39275 28.88 1.74492 28.7658 2.02094 28.623C3.04053 28.1533 4.15377 27.9222 5.27607 27.9472Z" fill="#FEFEFE"/>
<path d="M38.6638 35.1406C38.6638 35.7593 38.6638 36.3685 38.6638 36.9777C38.6788 37.1431 38.6443 37.3093 38.5646 37.455C38.485 37.6008 38.3638 37.7196 38.2164 37.7963C37.6056 38.1549 36.9293 38.3879 36.2272 38.4816C34.8831 38.7123 33.5046 38.6408 32.1916 38.2722C31.9727 38.2056 31.7538 38.1199 31.5349 38.0343C31.2407 37.968 30.9839 37.7899 30.8187 37.5376C30.6535 37.2854 30.5929 36.9788 30.6497 36.6826C30.6783 36.169 30.6783 35.6542 30.6497 35.1406C31.9173 35.6778 33.28 35.9547 34.6567 35.9547C36.0335 35.9547 37.3962 35.6778 38.6638 35.1406Z" fill="#FEFEFE"/>
<path d="M38.6633 31.1445V33.1815C38.6633 33.5337 38.4063 33.6955 38.1588 33.8383C37.3679 34.2707 36.4893 34.518 35.589 34.5617C34.2212 34.7236 32.8346 34.5437 31.5534 34.0382C30.9537 33.7812 30.5445 33.448 30.6492 32.696C30.6875 32.1796 30.6875 31.661 30.6492 31.1445C31.9161 31.6844 33.2791 31.9627 34.6562 31.9627C36.0334 31.9627 37.3963 31.6844 38.6633 31.1445Z" fill="#FEFEFE"/>
<path d="M34.6754 27.9463C35.7202 27.9172 36.7599 28.1018 37.7307 28.4889C38.1209 28.6507 38.6825 28.803 38.6825 29.2694C38.6825 29.7358 38.1304 29.9167 37.7307 30.0785C36.4956 30.5563 35.1628 30.7262 33.8474 30.5735C33.0718 30.5311 32.3105 30.3472 31.6011 30.0309C31.2395 29.8596 30.7445 29.7168 30.754 29.2694C30.7636 28.8221 31.249 28.6888 31.6106 28.5175C32.5819 28.1177 33.6254 27.9233 34.6754 27.9463Z" fill="#FEFEFE"/>
<path d="M16.0104 35.1309C17.2741 35.6702 18.6339 35.9483 20.0079 35.9483C21.3819 35.9483 22.7417 35.6702 24.0055 35.1309C24.0055 35.8162 24.0055 36.492 24.0055 37.1678C24.0055 37.501 23.7675 37.6533 23.5391 37.8056C22.9401 38.1548 22.2762 38.3783 21.5879 38.4623C20.1624 38.7239 18.6944 38.6291 17.3144 38.1863C17.133 38.1264 16.955 38.0565 16.7814 37.9769C16.5179 37.9051 16.2907 37.7373 16.1446 37.5066C15.9984 37.2759 15.9438 36.9989 15.9914 36.73C16.0308 36.1978 16.0371 35.6638 16.0104 35.1309Z" fill="#FEFEFE"/>
<path d="M24.0049 31.1438C24.0049 31.7625 24.0049 32.3717 24.0049 32.9809C24.0204 33.1475 23.985 33.3149 23.9034 33.461C23.8219 33.6072 23.698 33.7252 23.548 33.7995C22.9378 34.1595 22.2612 34.3926 21.5588 34.4848C19.9827 34.7744 18.357 34.6161 16.8664 34.0279C16.6933 33.9453 16.5249 33.8531 16.362 33.7519C16.2357 33.6789 16.1334 33.5707 16.0675 33.4406C16.0016 33.3104 15.9749 33.1639 15.9908 33.0189C15.9908 32.4002 15.9908 31.772 15.9908 31.1152C17.2565 31.657 18.6182 31.9387 19.9949 31.9436C21.3717 31.9485 22.7354 31.6765 24.0049 31.1438Z" fill="#FEFEFE"/>
<path d="M20.0082 30.6202C18.9278 30.6409 17.855 30.4367 16.8577 30.0206C16.5056 29.8588 16.0487 29.7065 16.0392 29.2877C16.0297 28.8688 16.4961 28.6785 16.8482 28.5452C18.8744 27.7219 21.1419 27.7219 23.1681 28.5452C23.5203 28.688 23.9772 28.8593 23.9676 29.2972C23.9581 29.735 23.5108 29.8588 23.1776 30.0111C22.1751 30.4327 21.0956 30.6402 20.0082 30.6202Z" fill="#FEFEFE"/>
</svg>
