<svg width="33" height="41" viewBox="0 0 33 41" fill="none" xmlns="http://www.w3.org/2000/svg">
<path d="M17.0996 0C17.2348 0.0958079 17.3428 0.229099 17.4122 0.385534C17.4816 0.541968 17.5097 0.715622 17.4934 0.887806C17.4934 2.80696 17.4934 4.73142 17.4934 6.65058C17.5 6.78054 17.4916 6.91087 17.4685 7.03866C17.4345 7.176 17.3589 7.2975 17.2534 7.38419C17.1479 7.47088 17.0185 7.51789 16.8853 7.51789C16.7521 7.51789 16.6227 7.47088 16.5172 7.38419C16.4117 7.2975 16.3361 7.176 16.3022 7.03866C16.2873 6.89734 16.2873 6.75468 16.3022 6.61336C16.3022 4.71548 16.3022 2.82291 16.3022 0.925019C16.2809 0.746489 16.307 0.565167 16.3774 0.401652C16.4479 0.238138 16.56 0.0989864 16.7009 0H17.0996Z" fill="#CD0BBA"/>
<path d="M6.38524 28.5334C7.09301 28.2995 7.78582 28.0018 8.50356 27.8477C10.1927 27.4307 11.966 27.6721 13.5028 28.5281C14.6231 29.1662 15.8764 29.4917 17.1463 29.4744C18.2429 29.4744 19.3394 29.5435 20.4359 29.5595C21.1365 29.5369 21.8299 29.7154 22.4437 30.0763C23.0574 30.4373 23.569 30.9675 23.9249 31.6115C23.9557 31.6613 23.989 31.7092 24.0246 31.7551L27.6582 29.9263C28.1068 29.703 28.5553 29.4638 29.0139 29.2511C29.6871 28.9468 30.4396 28.907 31.1377 29.1386C31.8358 29.3703 32.4344 29.8585 32.8269 30.5164C32.8969 30.5963 32.948 30.693 32.9758 30.7982C33.0037 30.9035 33.0075 31.0144 32.987 31.1216C32.9665 31.2287 32.9223 31.3291 32.858 31.4144C32.7938 31.4996 32.7113 31.5672 32.6175 31.6115C29.0189 34.0942 25.4451 36.6194 21.8116 39.0542C20.5183 39.8847 18.9853 40.1833 17.5002 39.8942C16.2106 39.6338 14.9345 39.302 13.6773 38.9001C12.1371 38.4588 10.6069 37.991 9.07177 37.5285C8.77987 37.4335 8.4729 37.4029 8.16955 37.4385C7.86621 37.4742 7.57284 37.5753 7.30734 37.7358C7.13056 37.8518 6.94748 37.9566 6.75906 38.0495C6.34537 38.2302 6.04631 38.4535 6.07622 39.0276C6.08112 39.108 6.06886 39.1884 6.04037 39.2629C6.01188 39.3374 5.96789 39.4041 5.91174 39.4578C5.85559 39.5116 5.78873 39.551 5.71621 39.5732C5.64368 39.5954 5.56738 39.5997 5.49305 39.5858C3.87316 39.5486 2.24828 39.5114 0.633375 39.4529C0.179805 39.4529 -0.00959575 39.1552 0.000372818 38.6342C0.0502157 36.5662 0.110024 34.4982 0.164851 32.4355L0.284477 27.651C0.284477 26.9492 0.493816 26.7525 1.15174 26.7685L5.53791 26.8854C6.2407 26.8854 6.42013 27.1246 6.39022 27.8742C6.37527 28.0762 6.38524 28.3102 6.38524 28.5334ZM31.4462 30.846C31.1687 30.5576 30.8118 30.3715 30.4279 30.3151C30.0441 30.2586 29.6533 30.3348 29.313 30.5323C27.7927 31.2926 26.2775 32.074 24.7523 32.8236C24.4732 32.9618 24.3835 33.0947 24.4383 33.4297C24.543 34.0889 24.3586 34.5248 23.5411 34.4929C21.373 34.4079 19.2048 34.3653 17.0616 34.3015C16.8665 34.3008 16.6717 34.2866 16.4784 34.259C16.3999 34.2555 16.3227 34.2356 16.2514 34.2003C16.1801 34.165 16.116 34.1151 16.0628 34.0534C15.9553 33.9287 15.8986 33.7637 15.9052 33.5945C15.9085 33.5107 15.9272 33.4284 15.9603 33.3524C15.9934 33.2763 16.0402 33.2079 16.098 33.1512C16.2149 33.0365 16.3696 32.9761 16.5283 32.9831C16.6379 32.9831 16.7476 32.9831 16.8572 32.9831L22.7437 33.1479H23.1673C23.0606 32.5418 22.7682 31.9906 22.3361 31.5808C21.9041 31.1709 21.3567 30.9256 20.7799 30.8832C20.0721 30.8407 19.3643 30.83 18.6615 30.8088C17.7694 30.7769 16.8821 30.7609 15.99 30.7237C14.9232 30.5893 13.8927 30.2278 12.9595 29.6605C11.9646 29.138 10.8624 28.8909 9.75445 28.942C8.6465 28.9931 7.56842 29.3407 6.6195 29.9529C6.52492 29.9996 6.44525 30.0748 6.39033 30.1693C6.33541 30.2638 6.30765 30.3734 6.31048 30.4845C6.26562 32.5153 6.2058 34.5408 6.15596 36.5662C6.15824 36.6507 6.16996 36.7346 6.19085 36.8161L6.68928 36.529C7.0993 36.2829 7.55175 36.1278 8.01943 36.0729C8.48711 36.0181 8.96035 36.0648 9.4107 36.2101C10.6269 36.5645 11.8447 36.9295 13.0642 37.3052C14.5096 37.7199 15.9401 38.2249 17.4055 38.5013C18.888 38.792 20.4183 38.4503 21.6671 37.5497C23.5412 36.2366 25.4302 34.9501 27.3093 33.653L31.4462 30.846ZM4.87002 38.177L5.1292 28.1294H1.48569L1.22651 38.177H4.87002Z" fill="#CD0BBA"/>
<path d="M16.8522 27.6906C15.0921 27.6822 13.3737 27.1173 11.9144 26.0675C10.4551 25.0177 9.32038 23.53 8.65362 21.7925C7.98685 20.055 7.818 18.1457 8.16841 16.3058C8.51881 14.466 9.37274 12.7782 10.6223 11.4559C11.8718 10.1335 13.4608 9.236 15.1885 8.87669C16.9161 8.51738 18.7049 8.71242 20.3287 9.43718C21.9524 10.1619 23.3383 11.3839 24.3111 12.9485C25.2839 14.5132 25.8 16.3503 25.7941 18.2277C25.7835 20.7469 24.8358 23.1585 23.1592 24.9328C21.4825 26.7072 19.2141 27.6991 16.8522 27.6906ZM16.8822 26.3881C18.4005 26.3871 19.8844 25.9057 21.1463 25.005C22.4081 24.1043 23.3912 22.8247 23.9711 21.328C24.551 19.8313 24.7017 18.1848 24.4041 16.5968C24.1066 15.0087 23.3742 13.5505 22.2995 12.4065C21.2248 11.2624 19.8562 10.4841 18.3667 10.1698C16.8772 9.85555 15.3338 10.0195 13.9317 10.6409C12.5296 11.2624 11.3318 12.3134 10.4898 13.661C9.64777 15.0086 9.1994 16.5923 9.20137 18.2118C9.20006 19.2882 9.3978 20.3544 9.78327 21.3493C10.1687 22.3441 10.7344 23.2482 11.4478 24.0096C12.1612 24.771 13.0084 25.3749 13.9409 25.7867C14.8734 26.1985 15.8729 26.4101 16.8822 26.4094V26.3881Z" fill="#CD0BBA"/>
<path d="M20.8736 5.39002C20.8736 4.92219 20.8736 4.45436 20.8736 3.98654C20.8659 3.89679 20.8759 3.80632 20.9029 3.72092C20.9298 3.63551 20.9732 3.55704 21.0302 3.49049C21.0872 3.42395 21.1565 3.3708 21.2338 3.33444C21.3111 3.29808 21.3947 3.2793 21.4792 3.2793C21.5637 3.2793 21.6472 3.29808 21.7245 3.33444C21.8018 3.3708 21.8712 3.42395 21.9282 3.49049C21.9852 3.55704 22.0285 3.63551 22.0555 3.72092C22.0824 3.80632 22.0924 3.89679 22.0848 3.98654C22.0848 4.90624 22.0848 5.83126 22.0848 6.75096C22.0848 7.22411 21.8405 7.51118 21.4717 7.50586C21.1029 7.50055 20.8786 7.21347 20.8736 6.73502C20.8686 6.25656 20.8736 5.84721 20.8736 5.39002Z" fill="#CD0BBA"/>
<path d="M12.8794 5.4117C12.8794 5.87953 12.8794 6.34736 12.8794 6.80987C12.8904 6.90201 12.883 6.99561 12.8575 7.08444C12.832 7.17327 12.7891 7.25529 12.7315 7.32503C12.674 7.39477 12.6032 7.45064 12.5238 7.48891C12.4445 7.52718 12.3584 7.54697 12.2713 7.54697C12.1842 7.54697 12.0981 7.52718 12.0187 7.48891C11.9394 7.45064 11.8685 7.39477 11.811 7.32503C11.7535 7.25529 11.7105 7.17327 11.685 7.08444C11.6596 6.99561 11.6521 6.90201 11.6632 6.80987C11.6632 5.87422 11.6632 4.93856 11.6632 4.00291C11.654 3.91167 11.6631 3.81938 11.6898 3.73216C11.7166 3.64494 11.7604 3.56476 11.8183 3.49693C11.8763 3.42909 11.947 3.37515 12.026 3.33865C12.1049 3.30216 12.1902 3.28394 12.2763 3.28522C12.3624 3.28685 12.4472 3.30767 12.5254 3.34633C12.6035 3.38499 12.6732 3.44065 12.73 3.50972C12.7868 3.5788 12.8294 3.65978 12.8551 3.74745C12.8808 3.83513 12.8891 3.92758 12.8794 4.01886C12.8843 4.47074 12.8794 4.94388 12.8794 5.4117Z" fill="#CD0BBA"/>
<path d="M15.4965 15.997C15.4902 16.3581 15.6094 16.7089 15.8312 16.9818C16.053 17.2546 16.3617 17.4303 16.6977 17.4749C16.977 17.5 17.2548 17.5408 17.5301 17.5972C18.0756 17.7352 18.5645 18.0578 18.9239 18.5168C19.2833 18.9758 19.4937 19.5465 19.5238 20.1436C19.5597 20.7255 19.4198 21.3043 19.1247 21.7951C18.8296 22.2859 18.3947 22.663 17.8839 22.8708C17.5151 23.0144 17.3855 23.1898 17.4304 23.5832C17.4468 23.6509 17.4506 23.7215 17.4415 23.7907C17.4324 23.86 17.4105 23.9267 17.3772 23.987C17.3438 24.0472 17.2997 24.0999 17.2472 24.1419C17.1948 24.1839 17.135 24.2144 17.0715 24.2318C16.9708 24.2619 16.8654 24.2699 16.7618 24.2552C16.6581 24.2406 16.5583 24.2037 16.4684 24.1467C16.3141 23.9731 16.2284 23.7427 16.2292 23.5035C16.2487 23.3552 16.2171 23.2043 16.14 23.0791C16.063 22.9539 15.9458 22.8628 15.8105 22.823C15.376 22.6236 15.0028 22.2982 14.7331 21.8837C14.4635 21.4693 14.3083 20.9824 14.2853 20.4785C14.265 20.3825 14.2643 20.2829 14.2833 20.1866C14.3023 20.0902 14.3405 19.9994 14.3954 19.9202C14.4502 19.841 14.5204 19.7753 14.6012 19.7276C14.682 19.68 14.7714 19.6514 14.8635 19.6439C15.2223 19.6439 15.4715 19.9044 15.5114 20.3722C15.537 20.7444 15.6927 21.0928 15.9477 21.3484C16.2027 21.6039 16.5384 21.7479 16.8883 21.752C17.2382 21.756 17.5767 21.6197 17.8368 21.37C18.0969 21.1204 18.2596 20.7757 18.2926 20.4041C18.3166 20.0168 18.1993 19.6346 17.9652 19.3374C17.7311 19.0402 17.3984 18.8509 17.0366 18.8093C16.5676 18.7649 16.1074 18.6467 15.6709 18.4584C15.2193 18.2319 14.8443 17.8621 14.5971 17.3997C14.35 16.9372 14.2428 16.4046 14.2903 15.8747C14.3003 15.3431 14.4595 14.827 14.7474 14.393C15.0353 13.9589 15.4386 13.6269 15.9052 13.4399C16.1544 13.3282 16.2491 13.2007 16.2192 12.9083C16.2018 12.792 16.2018 12.6736 16.2192 12.5574C16.244 12.4068 16.3184 12.2705 16.4289 12.1731C16.5395 12.0757 16.6789 12.0235 16.8223 12.0258C16.8964 12.0229 16.9703 12.0359 17.0397 12.0639C17.1091 12.0919 17.1726 12.1343 17.2264 12.1888C17.2802 12.2432 17.3234 12.3085 17.3532 12.381C17.3831 12.4534 17.3992 12.5314 17.4005 12.6106C17.3556 13.1422 17.5799 13.3123 17.9986 13.5037C18.4203 13.6989 18.7833 14.0148 19.0472 14.4164C19.3111 14.8179 19.4657 15.2895 19.4939 15.779C19.5487 16.2787 19.3194 16.6349 18.9356 16.6721C18.5518 16.7094 18.3126 16.417 18.2677 15.9226C18.2307 15.552 18.0644 15.2099 17.8016 14.9642C17.5389 14.7186 17.1992 14.5874 16.8499 14.5968C16.5007 14.6062 16.1675 14.7554 15.9167 15.0149C15.6659 15.2743 15.5159 15.6249 15.4965 15.997Z" fill="#CD0BBA"/>
</svg>
