<svg width="36" height="39" viewBox="0 0 36 39" fill="none" xmlns="http://www.w3.org/2000/svg">
<path fill-rule="evenodd" clip-rule="evenodd" d="M25.4899 4.39965L21.9713 8.7993L23.7307 8.81972L25.4899 8.84021L25.4895 12.2861L25.489 15.732L25.173 15.351C24.2155 14.1963 22.78 13.0619 21.4154 12.3815C20.2352 11.7931 19.2373 11.4858 17.7026 11.2382L17.417 11.1921V8.83397V6.47572L16.7887 6.4764C12.0435 6.48143 7.96352 8.10291 4.8099 11.2372C-0.562036 16.5759 -1.54952 24.9017 2.43051 31.2986C3.395 32.8489 5.04797 34.6613 6.45 35.7059C9.76904 38.1788 13.7617 39.3147 17.7655 38.9249C21.5919 38.5525 24.9806 36.9459 27.7026 34.2137C30.2205 31.6865 31.7098 28.7576 32.3165 25.1406C32.4372 24.4213 32.4534 23.5596 32.4771 16.589L32.5034 8.83739H34.2517C35.2133 8.83739 36 8.81606 36 8.78993C36 8.7638 34.4269 6.77534 32.5043 4.37123L29.0085 0L25.4899 4.39965ZM30.1211 5.10442L31.187 6.43762L29.0505 6.45789C27.8754 6.46901 26.899 6.46307 26.8806 6.44463C26.8621 6.42627 27.3331 5.80599 27.9271 5.06633C28.521 4.32667 29.0179 3.73267 29.0312 3.74638C29.0444 3.76002 29.5349 4.37116 30.1211 5.10442ZM30.1163 16.7414L30.0909 24.6454L29.89 25.5328C28.9857 29.5278 26.6581 32.7696 23.256 34.7721C20.8744 36.174 18.2546 36.7888 15.3226 36.6341C11.9557 36.4564 8.54119 34.8579 6.16539 32.3472C4.11242 30.1777 2.88199 27.6169 2.44651 24.6073C2.27225 23.4033 2.32617 21.3282 2.56227 20.1506C3.55928 15.178 6.99979 11.2174 11.7501 9.57393C12.6402 9.266 13.7447 9.01361 14.5163 8.94184L15.0561 8.89171V10.0419V11.1921L14.7705 11.2382C13.2102 11.4899 12.2744 11.7791 11.0577 12.3853C7.78622 14.0154 5.46007 17.1424 4.79939 20.7981C4.60236 21.8884 4.62041 23.7851 4.83838 24.8913C5.76456 29.5919 9.26106 33.1257 13.9898 34.1402C15.1465 34.3884 17.3266 34.3884 18.4832 34.1402C22.1227 33.3594 24.9945 31.1568 26.5915 27.9213C27.3022 26.4813 27.595 25.4978 27.7715 23.9566C27.8195 23.5371 27.8499 20.4931 27.8503 16.0557L27.8509 8.83739H28.9963H30.1417L30.1163 16.7414ZM15.0561 14.6654V15.7701H16.2365H17.417V14.6654C17.417 13.3771 17.322 13.4643 18.4219 13.7434C19.6234 14.0482 20.4623 14.4221 21.4814 15.1067L21.9282 15.4068L21.1395 16.1984L20.351 16.9899L21.1683 17.8075L21.9857 18.6251L22.773 17.8402L23.5604 17.0553L23.7507 17.3078C24.0815 17.7466 24.5613 18.6063 24.8058 19.1983C25.0603 19.8143 25.4138 21.0818 25.4138 21.3778V21.56H24.3095H23.2052V22.7408V23.9216H24.3193H25.4334L25.3828 24.3036C25.2433 25.355 24.4888 27.2028 23.847 28.0644L23.5702 28.4361L22.778 27.6463L21.9857 26.8565L21.1683 27.6741L20.351 28.4917L21.1405 29.2843L21.9301 30.0767L21.5585 30.3506C20.6856 30.9938 19.2866 31.593 18.0644 31.8469L17.4551 31.9734L17.4341 30.8425L17.413 29.7116H16.2346H15.0561V30.8162V31.9209H14.8704C14.0187 31.9209 11.912 31.0845 10.9146 30.3502L10.543 30.0767L11.3325 29.2843L12.1221 28.4917L11.3047 27.6741L10.4874 26.8565L9.69509 27.6463L8.90288 28.4361L8.62862 28.0644C7.9751 27.1786 7.22995 25.3569 7.09027 24.3036L7.03963 23.9216H8.15377H9.26791V22.7408V21.56H8.15491H7.04199L7.09461 21.209C7.26514 20.0715 7.77464 18.7672 8.45818 17.7182L8.89899 17.0416L9.69319 17.8334L10.4874 18.6251L11.3047 17.8075L12.1221 16.9899L11.3385 16.2033L10.5548 15.4167L11.0042 15.1014C11.9001 14.4727 13.173 13.9236 14.3025 13.6785C15.1268 13.4996 15.0561 13.407 15.0561 14.6654ZM15.0561 19.8459V21.56H13.9137H12.7713V22.7408V23.9216H15.0941H17.417V21.0267V18.1317H16.2365H15.0561V19.8459Z" fill="#24C7A9"/>
</svg>
