<svg width="32" height="40" viewBox="0 0 32 40" fill="none" xmlns="http://www.w3.org/2000/svg">
<g clip-path="url(#clip0_1206_695)">
<path d="M4.9203 5.83193V5.38691C4.9203 3.86039 4.9203 2.33904 4.9203 0.812524C4.9203 0.165693 5.08002 0.0052768 5.73435 0.0052768C12.4356 0.0052768 19.1334 0.0052768 25.8277 0.0052768C25.981 -0.00265219 26.1341 0.0238969 26.2758 0.0829841C26.4175 0.142071 26.5443 0.232207 26.6469 0.346805C28.3059 2.02339 29.9683 3.69307 31.6342 5.35586C31.7478 5.45956 31.8376 5.5869 31.8972 5.72899C31.9568 5.87109 31.9849 6.02453 31.9794 6.17863C31.9794 15.2308 31.9794 24.2847 31.9794 33.3403C31.9794 33.9872 31.8094 34.1579 31.1705 34.1579H27.0488V39.1722C27.0488 39.85 26.8891 40.0053 26.2193 40.0053H0.891324C0.128805 40.0053 0 39.8759 0 39.1152V8.70903C0 8.01045 0 7.3067 0 6.60812C0 6.03891 0.19063 5.8578 0.757367 5.8578C2.01964 5.8578 3.28707 5.8578 4.54935 5.8578C4.6627 5.8578 4.76059 5.84228 4.9203 5.83193ZM6.06923 32.9936H30.8305V6.49946H26.3017C25.7144 6.49946 25.5341 6.31835 25.5341 5.72844C25.5341 4.35198 25.5341 2.97553 25.5341 1.58872V1.1644H6.06923V32.9936ZM25.9256 34.1528H5.59523C5.12639 34.1528 4.94091 33.9458 4.9203 33.4852C4.9203 33.3352 4.9203 33.1851 4.9203 33.0402V7.01692H1.15408V38.8462H25.9256V34.1528ZM26.6675 2.06996V5.33516H29.9082L26.6675 2.06996Z" fill="#463303"/>
<path d="M18.4504 13.5273H26.1425C26.2625 13.5169 26.3832 13.5169 26.5032 13.5273C26.5709 13.5312 26.6371 13.5486 26.6981 13.5783C26.7591 13.608 26.8137 13.6496 26.8587 13.7005C26.9037 13.7515 26.9382 13.8109 26.9603 13.8753C26.9824 13.9397 26.9917 14.0078 26.9875 14.0758C26.9938 14.1442 26.9866 14.2132 26.9661 14.2787C26.9456 14.3443 26.9123 14.4051 26.8682 14.4576C26.8241 14.5101 26.77 14.5533 26.7091 14.5845C26.6482 14.6158 26.5817 14.6346 26.5135 14.6398C26.4072 14.6501 26.3003 14.6501 26.194 14.6398H10.7376C10.6177 14.6529 10.4968 14.6529 10.3769 14.6398C10.309 14.6315 10.2435 14.6098 10.184 14.5758C10.1246 14.5418 10.0725 14.4962 10.0308 14.4418C9.98908 14.3874 9.95857 14.3252 9.94104 14.2588C9.92351 14.1924 9.91932 14.1231 9.92871 14.0551C9.92829 13.9247 9.97688 13.799 10.0648 13.7031C10.1526 13.6071 10.2733 13.5481 10.4027 13.5376C10.5227 13.5273 10.6434 13.5273 10.7634 13.5376L18.4504 13.5273Z" fill="#463303"/>
<path d="M18.4712 10.5103H11.0109C10.9182 10.5103 10.8255 10.5103 10.7327 10.5103C10.1917 10.5103 9.92383 10.3189 9.92383 9.94112C9.92383 9.56337 10.1711 9.37708 10.7224 9.37708H26.1789C26.2871 9.37708 26.4262 9.34603 26.4931 9.37708C26.6683 9.51162 26.9156 9.67721 26.9362 9.85832C26.9223 9.96934 26.8865 10.0764 26.8307 10.1733C26.775 10.2702 26.7005 10.3549 26.6116 10.4224C26.5034 10.5155 26.2768 10.4896 26.0964 10.4896C23.5719 10.5155 21.0216 10.5103 18.4712 10.5103Z" fill="#463303"/>
<path d="M19.5626 27.1366L26.0904 23.0589C26.6056 22.7329 26.9354 22.7278 27.1208 23.0589C27.3063 23.3901 27.193 23.7006 26.6468 24.0421L19.9078 28.2336C19.2999 28.6113 19.1041 28.5648 18.7383 27.9593C18.0788 26.8778 17.409 25.8067 16.7805 24.7097C16.7308 24.6 16.7051 24.4809 16.7051 24.3604C16.7051 24.2399 16.7308 24.1208 16.7805 24.0111C16.8553 23.9361 16.9462 23.8795 17.0462 23.8454C17.1463 23.8113 17.2528 23.8007 17.3575 23.8144C17.5172 23.8144 17.6821 24.037 17.78 24.2025C18.2952 25.0408 18.8104 25.8998 19.3256 26.7485C19.3926 26.883 19.4699 26.9917 19.5626 27.1366Z" fill="#463303"/>
<path d="M15.9979 6.33816H10.7582C10.6345 6.33816 10.48 6.37955 10.4027 6.33816C10.2081 6.22624 10.049 6.06116 9.94413 5.86209C9.92397 5.79986 9.9174 5.734 9.92486 5.66899C9.93233 5.60398 9.95365 5.54136 9.98738 5.48537C10.0211 5.42939 10.0665 5.38137 10.1204 5.34458C10.1742 5.30779 10.2354 5.28309 10.2996 5.27218C10.4567 5.23599 10.6177 5.22033 10.7788 5.22561C14.2822 5.22561 17.7874 5.22561 21.2943 5.22561C21.3613 5.22561 21.4283 5.22561 21.4952 5.22561C21.9229 5.22561 22.1856 5.46882 22.1805 5.80517C22.1753 6.14152 21.9126 6.35368 21.4746 6.35368L15.9979 6.33816Z" fill="#463303"/>
<path d="M16.0327 18.8091H10.7569C10.6229 18.8091 10.4529 18.8454 10.3601 18.8091C10.1901 18.6849 9.96343 18.509 9.95312 18.3434C9.98414 18.1185 10.0981 17.9135 10.2726 17.769C10.3653 17.6811 10.5765 17.7069 10.7362 17.7069H21.3342C21.4542 17.6966 21.5749 17.6966 21.6949 17.7069C21.7631 17.7121 21.8296 17.7309 21.8905 17.7622C21.9514 17.7935 22.0055 17.8367 22.0496 17.8892C22.0937 17.9417 22.127 18.0025 22.1475 18.068C22.1679 18.1336 22.1752 18.2026 22.1689 18.271C22.1724 18.3411 22.1616 18.4112 22.1373 18.477C22.113 18.5428 22.0756 18.6029 22.0274 18.6537C21.9792 18.7045 21.9212 18.745 21.857 18.7726C21.7927 18.8002 21.7235 18.8144 21.6537 18.8143C21.3085 18.8143 20.9581 18.8143 20.6232 18.8143L16.0327 18.8091Z" fill="#463303"/>
</g>
<defs>
<clipPath id="clip0_1206_695">
<rect width="32" height="40" fill="white"/>
</clipPath>
</defs>
</svg>
