<svg width="40" height="40" viewBox="0 0 40 40" fill="none" xmlns="http://www.w3.org/2000/svg">
<path d="M1.4037e-08 33.4379C0.00153668 32.1392 0.382591 30.8703 1.09479 29.7922C1.80699 28.7141 2.81822 27.8755 4.00012 27.3827C5.18201 26.8899 6.48128 26.7652 7.73301 27.0245C8.98474 27.2837 10.1325 27.9152 11.0305 28.8388C11.9286 29.7624 12.5365 30.9364 12.777 32.2118C13.0176 33.4872 12.8799 34.8065 12.3816 36.0022C11.8832 37.198 11.0466 38.2163 9.978 38.9278C8.90936 39.6393 7.65686 40.012 6.37948 39.9986C4.68076 39.9787 3.05824 39.2788 1.86394 38.0506C0.669639 36.8223 -0.000111955 35.1649 1.4037e-08 33.4379ZM3.22309 37.4903V37.0685C3.22309 36.5035 3.22309 35.9461 3.22309 35.3887C3.22757 34.99 3.35212 34.6023 3.57997 34.2777C3.80783 33.9532 4.12804 33.7074 4.4975 33.5734L4.83092 33.4529C3.95662 32.1348 3.99366 30.9748 4.91983 30.1086C5.31923 29.7317 5.8391 29.5143 6.38371 29.4963C6.92831 29.4783 7.46097 29.661 7.88359 30.0106C8.87645 30.8317 8.95055 31.9691 8.10588 33.4379C9.40252 34.0028 9.69149 34.4472 9.69149 35.9386V37.4451C11.1734 36.5111 11.9662 34.063 11.4475 32.067C11.1465 30.9976 10.5206 30.0524 9.65931 29.3665C8.79798 28.6806 7.74535 28.2892 6.65197 28.2482C5.5586 28.2073 4.48048 28.5189 3.57184 29.1385C2.6632 29.7581 1.97057 30.6539 1.59302 31.6979C1.24087 32.7174 1.21006 33.8232 1.50487 34.8613C1.79968 35.8995 2.40545 36.8184 3.2379 37.4903H3.22309ZM8.40965 36.7371C8.40965 36.3152 8.40965 35.8859 8.40965 35.4641C8.42466 35.3616 8.41584 35.2571 8.38391 35.1587C8.35198 35.0604 8.29782 34.971 8.22579 34.8978C8.15375 34.8245 8.06584 34.7695 7.9691 34.737C7.87236 34.7046 7.76948 34.6956 7.66872 34.7108C6.87592 34.7108 6.09052 34.7108 5.29771 34.7108C5.19695 34.6956 5.09407 34.7046 4.99733 34.737C4.90059 34.7695 4.81268 34.8245 4.74064 34.8978C4.66861 34.971 4.61445 35.0604 4.58252 35.1587C4.55059 35.2571 4.54177 35.3616 4.55677 35.4641C4.55677 36.2926 4.55677 37.1212 4.55677 37.9573C4.54381 38.0499 4.56667 38.1441 4.62056 38.2199C4.67445 38.2958 4.75516 38.3474 4.84574 38.364C5.92111 38.7255 7.08236 38.7255 8.15774 38.364C8.2031 38.3559 8.24643 38.3387 8.2852 38.3134C8.32397 38.2881 8.35742 38.2552 8.38361 38.2167C8.40979 38.1781 8.4282 38.1347 8.43776 38.0889C8.44732 38.0431 8.44784 37.9958 8.4393 37.9498C8.37261 37.5882 8.38002 37.1815 8.38002 36.7747L8.40965 36.7371ZM6.46099 30.7865C6.3345 30.7904 6.21001 30.8197 6.09463 30.8725C5.97926 30.9254 5.87526 31.0008 5.78857 31.0946C5.70188 31.1883 5.6342 31.2985 5.58939 31.4188C5.54458 31.5391 5.52351 31.6672 5.5274 31.7958C5.53129 31.9244 5.56006 32.0509 5.61207 32.1682C5.66407 32.2855 5.73829 32.3913 5.83048 32.4794C5.92268 32.5675 6.03105 32.6363 6.1494 32.6819C6.26775 32.7274 6.39377 32.7488 6.52026 32.7449C6.77573 32.7369 7.0176 32.6261 7.19268 32.4368C7.36776 32.2475 7.46171 31.9953 7.45385 31.7356C7.44599 31.4759 7.33696 31.23 7.15077 31.052C6.96457 30.874 6.71645 30.7785 6.46099 30.7865Z" fill="#18B0B0"/>
<path d="M33.5621 4.32436e-06C34.8379 0.00298238 36.0842 0.390293 37.1435 1.113C38.2028 1.83571 39.0277 2.86138 39.5139 4.06045C40.0001 5.25952 40.1258 6.57819 39.8751 7.84984C39.6244 9.1215 39.0086 10.2891 38.1055 11.2051C37.2023 12.1211 36.0524 12.7445 34.8009 12.9964C33.5494 13.2484 32.2526 13.1176 31.0742 12.6206C29.8959 12.1235 28.8888 11.2826 28.1804 10.2041C27.4719 9.12549 27.0938 7.85764 27.0938 6.5607C27.0947 5.69815 27.2628 4.84424 27.5884 4.04773C27.914 3.25121 28.3907 2.52768 28.9914 1.91846C29.592 1.30925 30.3048 0.826268 31.0891 0.497098C31.8733 0.167927 32.7137 -0.000985409 33.5621 4.32436e-06ZM31.9321 6.5607C31.0652 5.33292 31.08 4.15788 31.9321 3.27659C32.3163 2.87926 32.8315 2.64026 33.3785 2.6055C33.9255 2.57074 34.4659 2.74268 34.8958 3.08828C35.3311 3.41994 35.6316 3.90232 35.7405 4.4441C35.8113 4.81885 35.7938 5.20531 35.6895 5.57188C35.5852 5.93844 35.397 6.27471 35.1403 6.55317C36.4148 7.05784 36.7556 7.57004 36.7556 8.94093V10.5905C37.5845 9.9243 38.1889 9.01235 38.485 7.98117C38.781 6.94999 38.7541 5.8507 38.4079 4.83579C38.0178 3.76184 37.2944 2.84615 36.3471 2.22708C35.3998 1.608 34.2801 1.31917 33.1571 1.40425C32.034 1.48932 30.9687 1.94367 30.1222 2.69863C29.2756 3.4536 28.6937 4.46816 28.4645 5.58903C28.1311 7.50978 29.0276 9.95027 30.3094 10.5529V8.91081C30.3168 7.57758 30.6577 7.03524 31.9321 6.5607ZM35.4738 9.87495C35.4738 9.45314 35.4738 9.03132 35.4738 8.60951C35.4888 8.50707 35.48 8.40249 35.448 8.30415C35.4161 8.2058 35.3619 8.11642 35.2899 8.04319C35.2179 7.96995 35.13 7.9149 35.0332 7.88244C34.9365 7.84998 34.8336 7.84102 34.7328 7.85627H32.3174C31.8209 7.85627 31.5764 8.10484 31.5764 8.60951C31.5764 9.4456 31.5764 10.2742 31.5764 11.1027C31.5636 11.1965 31.5875 11.2916 31.6429 11.3676C31.6983 11.4437 31.7809 11.4946 31.8728 11.5095C32.9457 11.886 34.1119 11.886 35.1848 11.5095C35.2517 11.4706 35.3095 11.4175 35.3542 11.3538C35.399 11.2901 35.4297 11.2173 35.4441 11.1404C35.496 10.7562 35.4738 10.2968 35.4738 9.87495ZM34.5031 4.91112C34.5017 4.7181 34.4441 4.52982 34.3377 4.36995C34.2313 4.21007 34.0808 4.08575 33.9051 4.01257C33.7294 3.93939 33.5364 3.92063 33.3502 3.95865C33.1641 3.99667 32.9931 4.08978 32.8588 4.22627C32.7246 4.36276 32.633 4.53654 32.5956 4.72578C32.5582 4.91503 32.5766 5.11129 32.6486 5.28991C32.7206 5.46852 32.8429 5.62153 33.0002 5.7297C33.1574 5.83786 33.3426 5.89637 33.5325 5.89786C33.7899 5.89786 34.0368 5.79389 34.2188 5.60884C34.4009 5.42379 34.5031 5.17282 34.5031 4.91112Z" fill="#18B0B0"/>
<path d="M24.4332 20.8744C24.56 19.9232 24.3857 18.9557 23.9354 18.112C23.4852 17.2682 22.7823 16.5922 21.9288 16.1817C21.0289 15.7494 20.0136 15.6318 19.041 15.847C18.0685 16.0623 17.1932 16.5984 16.5515 17.3719C15.9099 18.1454 15.5378 19.1129 15.4932 20.1238C15.4486 21.1346 15.7341 22.1321 16.3051 22.9609C17.6091 24.844 19.6319 25.311 22.2326 24.3242L22.8476 25.3938C21.8125 26.014 20.612 26.288 19.4155 26.1771C18.2189 26.0663 17.0869 25.5763 16.1791 24.7762C15.2181 23.9293 14.5575 22.7848 14.2989 21.5189C14.0403 20.253 14.1981 18.9358 14.7479 17.77C15.2977 16.6041 16.2092 15.6542 17.342 15.0665C18.4748 14.4788 19.7662 14.2857 21.0174 14.5171C22.4563 14.7679 23.7425 15.5784 24.6036 16.7768C25.5026 17.9856 25.9206 19.4944 25.7743 21.0025L26.5745 19.9555L27.597 20.7087C26.9301 21.6126 26.2929 22.5014 25.6187 23.3676C25.5632 23.4469 25.4898 23.5116 25.4048 23.5562C25.3197 23.6008 25.2254 23.624 25.1297 23.624C25.0339 23.624 24.9396 23.6008 24.8545 23.5562C24.7695 23.5116 24.6961 23.4469 24.6406 23.3676C23.9886 22.5165 23.3662 21.6427 22.6994 20.7464L23.7219 19.9931L24.4332 20.8744Z" fill="#18B0B0"/>
<path d="M35.4674 33.4733V15.1094H36.7419V33.4808C37.2562 33.5922 37.7366 33.8275 38.1428 34.167C38.549 34.5065 38.8689 34.9403 39.0758 35.4317C39.3735 36.1125 39.4233 36.8788 39.2166 37.5935C39.0171 38.3244 38.5744 38.9622 37.9639 39.3982C37.3535 39.8343 36.6131 40.0416 35.8692 39.9847C35.1252 39.9278 34.4237 39.6103 33.8843 39.0863C33.3448 38.5624 33.0009 37.8644 32.9112 37.1115C32.6815 35.4995 33.6151 34.1738 35.4674 33.4733ZM38.0459 36.7273C38.0488 36.3391 37.9386 35.9588 37.7292 35.6342C37.5197 35.3096 37.2205 35.0553 36.8691 34.9034C36.5177 34.7514 36.13 34.7086 35.7547 34.7804C35.3795 34.8521 35.0335 35.0352 34.7604 35.3065C34.4873 35.5778 34.2994 35.9253 34.2203 36.305C34.1411 36.6847 34.1743 37.0798 34.3157 37.4404C34.4571 37.801 34.7003 38.1109 35.0147 38.3312C35.3291 38.5515 35.7006 38.6722 36.0824 38.6782C36.3389 38.6842 36.5939 38.6383 36.8327 38.5431C37.0715 38.4479 37.2893 38.3054 37.4734 38.1239C37.6575 37.9423 37.8043 37.7253 37.9051 37.4856C38.0059 37.2458 38.0588 36.988 38.0607 36.7273H38.0459Z" fill="#18B0B0"/>
<path d="M4.5093 7.17451V24.8982H3.2423V7.16697C2.75704 7.06352 2.30106 6.84989 1.90845 6.54206C1.51583 6.23424 1.19674 5.84017 0.975026 5.38933C0.625657 4.69147 0.538717 3.888 0.730515 3.12962C0.870481 2.5594 1.1584 2.03782 1.56424 1.61927C1.97007 1.20073 2.47895 0.900558 3.03779 0.750087C3.59662 0.599617 4.18495 0.604359 4.74137 0.76381C5.2978 0.923261 5.80194 1.23159 6.2012 1.65661C6.60046 2.08164 6.88021 2.6078 7.01128 3.1802C7.14234 3.7526 7.11991 4.35026 6.94632 4.91085C6.77273 5.47143 6.45436 5.97439 6.0244 6.36726C5.59444 6.76012 5.06865 7.02849 4.50189 7.14438L4.5093 7.17451ZM3.88692 1.97717C3.50319 1.97419 3.12726 2.08733 2.80698 2.3022C2.4867 2.51707 2.23655 2.82396 2.08835 3.1838C1.94014 3.54364 1.9006 3.94017 1.97474 4.32292C2.04889 4.70568 2.23337 5.05735 2.50471 5.3332C2.77605 5.60905 3.12199 5.79659 3.4985 5.87197C3.875 5.94734 4.26506 5.90714 4.61902 5.75648C4.97298 5.60582 5.27485 5.35151 5.48622 5.02591C5.69758 4.70031 5.80888 4.31815 5.80595 3.92805C5.80017 3.41247 5.59613 2.91966 5.23749 2.55506C4.87884 2.19046 4.39408 1.98304 3.88692 1.97717Z" fill="#18B0B0"/>
<path d="M9.06641 3.27843H22.4478L20.9214 2.17117L21.6624 1.10156C22.7664 1.8548 23.8481 2.65324 24.9077 3.4366C24.9918 3.49102 25.0611 3.56615 25.1091 3.65503C25.1571 3.7439 25.1823 3.84365 25.1823 3.94504C25.1823 4.04643 25.1571 4.14618 25.1091 4.23506C25.0611 4.32393 24.9918 4.39906 24.9077 4.45348C23.8556 5.20672 22.7886 5.95995 21.6846 6.76591L20.9437 5.70385L22.4255 4.61165H9.08863L9.06641 3.27843Z" fill="#18B0B0"/>
<path d="M18.3333 33.8887L19.0743 34.9583L17.5924 36.0429H30.9293V37.3611H17.6739V37.4439L19.0965 38.4834L18.3556 39.5455L17.1552 38.6943C16.518 38.2424 15.8734 37.7904 15.2436 37.331C14.6138 36.8715 14.7101 36.4873 15.2436 36.1182C16.2365 35.3725 17.2738 34.6419 18.3333 33.8887Z" fill="#18B0B0"/>
<path d="M19.3489 17.0664H20.6382C20.6382 18.4072 20.6382 19.7178 20.6382 21.036C20.6355 21.1616 20.5881 21.2821 20.5048 21.3749C20.0602 21.8269 19.6083 22.2637 19.1415 22.7157L18.2598 21.744C18.5339 21.4879 18.8525 21.2243 19.1341 20.923C19.2594 20.7751 19.3347 20.5903 19.3489 20.3957C19.3564 19.296 19.3489 18.1963 19.3489 17.0664Z" fill="#18B0B0"/>
</svg>
