<svg width="41" height="40" viewBox="0 0 41 40" fill="none" xmlns="http://www.w3.org/2000/svg">
<path d="M0.0280695 18.8221C0.129113 18.0658 0.207702 17.3039 0.342427 16.5531C1.11377 12.0427 3.477 7.93796 7.02256 4.95017C9.99565 2.33552 13.718 0.673278 17.6883 0.187337C22.8941 -0.512467 28.1765 0.764013 32.4469 3.75374C36.7174 6.74346 39.6506 11.2186 40.6421 16.2571C41.6174 21.2877 40.5818 26.4919 37.7481 30.7999C34.9145 35.1079 30.4981 38.1923 25.407 39.419C24.2842 39.6766 23.1615 39.7643 22.0388 39.9342L21.6908 40H19.2882C18.7268 39.9397 18.2104 39.8849 17.6659 39.8136C13.3727 39.2233 9.38133 37.3206 6.26416 34.3785C3.14698 31.4365 1.06414 27.6062 0.314362 23.437C0.179637 22.6861 0.101044 21.9243 0 21.1679L0.0280695 18.8221ZM39.7103 20.0005C39.7081 16.2948 38.5806 12.6729 36.4703 9.5927C34.36 6.51255 31.3617 4.11243 27.8545 2.69581C24.3473 1.27919 20.4886 0.90966 16.7663 1.63394C13.0441 2.35823 9.62529 4.1438 6.94226 6.76492C4.25923 9.38604 2.43241 12.725 1.69276 16.3597C0.953118 19.9944 1.33385 23.7616 2.78684 27.1851C4.23982 30.6085 6.69981 33.5345 9.8558 35.593C13.0118 37.6516 16.7221 38.7504 20.5175 38.7504C25.6061 38.7388 30.4826 36.7593 34.0797 33.2452C37.6768 29.7311 39.7014 24.9687 39.7103 20.0005Z" fill="#FF03B8"/>
<path d="M37.0744 20.2394C37.1259 16.1474 35.5851 12.1886 32.7632 9.1627C30.2341 6.35592 26.759 4.5263 22.9675 4.00525C20.7805 3.66966 18.5463 3.77314 16.4016 4.30935C14.257 4.84556 12.2468 5.80325 10.4942 7.12384C10.236 7.31018 9.99458 7.51846 9.73636 7.67192C9.67043 7.73261 9.59226 7.77919 9.50684 7.8087C9.42142 7.83821 9.33063 7.84999 9.24028 7.84328C9.14993 7.83658 9.06202 7.81153 8.98215 7.76976C8.90228 7.72798 8.83221 7.67039 8.77644 7.60066C8.72226 7.52984 8.68339 7.44899 8.6622 7.36305C8.64101 7.2771 8.63793 7.18785 8.65315 7.1007C8.66838 7.01356 8.70159 6.93035 8.75077 6.85613C8.79995 6.7819 8.86407 6.71821 8.93924 6.66893C10.1615 5.65674 11.5171 4.80883 12.9698 4.14775C16.4421 2.57281 20.3411 2.12962 24.0911 2.88361C27.8412 3.63759 31.2436 5.5488 33.7961 8.3351C36.3773 11.0234 37.9588 14.4803 38.2869 18.1512C38.8483 24.4597 36.6028 29.661 31.5506 33.6674C29.7582 35.1235 27.6734 36.1971 25.4304 36.8192C23.1875 37.4412 20.8359 37.598 18.5272 37.2793C11.2632 36.3476 6.25034 32.4288 3.69056 25.7312C2.00649 21.2972 2.36015 16.8578 4.35857 12.5773C5.02416 11.1833 5.87954 9.8836 6.90151 8.71327C6.94954 8.63814 7.01299 8.57353 7.08785 8.52352C7.16272 8.47351 7.24738 8.43919 7.33651 8.42271C7.42564 8.40623 7.5173 8.40795 7.60571 8.42778C7.69412 8.4476 7.77737 8.48509 7.8502 8.53788C8.16456 8.76808 8.1814 9.12433 7.92318 9.50799C7.13893 10.5569 6.4119 11.6454 5.74512 12.7691C4.30151 15.5429 3.71644 18.6672 4.06136 21.7603C4.40628 24.8534 5.66625 27.7816 7.68741 30.1871C10.1854 33.2443 13.7555 35.2889 17.7076 35.9255C19.7792 36.3046 21.9073 36.2784 23.9685 35.8484C26.0296 35.4184 27.9829 34.5933 29.715 33.4208C31.7164 32.1416 33.4037 30.4466 34.6565 28.457C35.9092 26.4674 36.6965 24.2322 36.9621 21.9111C37.0182 21.2863 37.0407 20.6505 37.0744 20.2394Z" fill="#FF03B8"/>
<path d="M10.9127 30.1012C10.8062 30.1157 10.6977 30.1042 10.5969 30.0677C10.496 30.0313 10.406 29.971 10.3349 29.8923C10.2637 29.8136 10.2136 29.7189 10.1891 29.6167C10.1645 29.5145 10.1663 29.4079 10.1942 29.3065C10.2377 29.1702 10.298 29.0395 10.3738 28.9174C12.5668 24.9858 14.7655 21.0615 16.9697 17.1446C17.1192 16.8887 17.3364 16.6767 17.5985 16.5307C21.6065 14.3786 25.6165 12.2374 29.6283 10.1072C29.7574 10.036 29.8921 9.92636 30.0213 9.93184C30.2479 9.91176 30.475 9.96574 30.6668 10.0853C30.7862 10.2761 30.843 10.4979 30.8296 10.7211C30.7985 10.861 30.7352 10.9922 30.6444 11.1047C28.4551 15.018 26.262 18.9313 24.0653 22.8446C23.9158 23.1006 23.6987 23.3126 23.4366 23.4585C19.421 25.6179 15.4017 27.7646 11.3786 29.8985C11.2273 29.9745 11.0718 30.0422 10.9127 30.1012ZM18.7998 17.3364L23.2401 21.6772L28.5224 12.2338L28.4607 12.1845L18.7998 17.3364ZM12.5182 27.75L12.5799 27.8103L22.2297 22.6638L17.7893 18.323L12.5182 27.75Z" fill="#FF03B8"/>
<path d="M7.87056 20.6253C7.25869 20.6253 6.65803 20.6253 6.063 20.6253C5.55778 20.6253 5.27148 20.3841 5.27148 19.9895C5.27148 19.5949 5.56339 19.3647 6.06861 19.3647H7.8032C8.80241 12.4808 12.7993 8.56199 19.8723 7.5864V5.94215C19.8723 5.39407 20.1025 5.09811 20.5291 5.10359C20.9558 5.10907 21.1635 5.39955 21.1691 5.96408V7.64669L22.2918 7.78371C23.7588 7.97722 25.1788 8.4245 26.4851 9.10458C26.5768 9.13054 26.6615 9.17569 26.7335 9.23687C26.8054 9.29806 26.8629 9.37381 26.9018 9.45888C26.9407 9.54394 26.9602 9.63627 26.9589 9.72943C26.9575 9.82259 26.9354 9.91434 26.8941 9.99831C26.8527 10.0823 26.7931 10.1564 26.7195 10.2156C26.6458 10.2748 26.5597 10.3176 26.4674 10.3411C26.375 10.3645 26.2786 10.368 26.1847 10.3514C26.0908 10.3347 26.0018 10.2983 25.9238 10.2446C25.3624 10.0144 24.8628 9.7568 24.3127 9.55949C21.6973 8.65802 18.8337 8.72669 16.2668 9.75243C13.6998 10.7782 11.6086 12.6894 10.391 15.1225C9.59686 16.6635 9.18976 18.3669 9.20343 20.0919C9.21709 21.8169 9.65113 23.514 10.4696 25.0428C10.5089 25.125 10.5595 25.2017 10.5931 25.2894C10.633 25.365 10.6572 25.4475 10.6644 25.5322C10.6716 25.6169 10.6616 25.7022 10.635 25.7831C10.6084 25.864 10.5657 25.9391 10.5094 26.0039C10.4531 26.0687 10.3843 26.1221 10.3068 26.1609C10.2293 26.2002 10.1443 26.2234 10.0572 26.2291C9.97 26.2348 9.88258 26.2229 9.80036 26.1941C9.71815 26.1653 9.64292 26.1202 9.57938 26.0617C9.51585 26.0031 9.46538 25.9324 9.43113 25.854C9.19475 25.418 8.98299 24.9697 8.7968 24.5112C8.33897 23.3861 8.05884 22.1997 7.96599 20.9925C7.94262 20.8681 7.91074 20.7455 7.87056 20.6253Z" fill="#FF03B8"/>
<path d="M21.1591 32.4085C21.1591 32.9565 21.1591 33.5485 21.1591 34.1349C21.1591 34.5953 20.9177 34.8693 20.5304 34.8803C20.1431 34.8913 19.8736 34.6117 19.868 34.124C19.868 33.5375 19.868 32.9565 19.868 32.3591C19.1743 32.2877 18.4862 32.1724 17.8078 32.0138C16.7188 31.6905 15.6522 31.2959 14.5913 30.8793C14.4897 30.8531 14.3964 30.8026 14.3197 30.7325C14.243 30.6623 14.1854 30.5747 14.152 30.4774C14.1186 30.3801 14.1105 30.2763 14.1284 30.1752C14.1463 30.0741 14.1896 29.9789 14.2544 29.8982C14.4678 29.6187 14.7877 29.6023 15.2256 29.7722C16.1836 30.1915 17.1748 30.5343 18.1895 30.7971C20.2639 31.2258 22.4199 31.0769 24.4119 30.3674C26.4038 29.6579 28.1515 28.4162 29.4558 26.784C30.76 25.1518 31.5684 23.1946 31.7888 21.1356C32.0092 19.0766 31.6327 16.9986 30.7022 15.1384C30.6015 14.9618 30.5134 14.7787 30.4383 14.5903C30.3907 14.4491 30.3967 14.2959 30.4553 14.1586C30.5138 14.0213 30.621 13.9092 30.7572 13.8427C30.8934 13.7762 31.0495 13.7598 31.1971 13.7964C31.3447 13.8331 31.4739 13.9203 31.561 14.0422C31.7204 14.2829 31.8593 14.5358 31.9764 14.7986C32.5973 16.1103 32.9773 17.5184 33.0991 18.9585C33.0991 19.0901 33.1384 19.2161 33.1665 19.3915H35.0414C35.1824 19.3769 35.3244 19.4068 35.4467 19.4768C35.569 19.5469 35.665 19.6534 35.7207 19.7807C35.7647 19.8797 35.7817 19.9883 35.77 20.0957C35.7582 20.2031 35.7182 20.3057 35.6537 20.3935C35.5893 20.4813 35.5026 20.5513 35.4022 20.5966C35.3017 20.6419 35.191 20.661 35.0807 20.6521C34.4576 20.6521 33.8289 20.6521 33.2395 20.6521C32.2347 27.5086 28.2434 31.4109 21.1591 32.4085Z" fill="#FF03B8"/>
</svg>
