<svg width="44" height="40" viewBox="0 0 44 40" fill="none" xmlns="http://www.w3.org/2000/svg">
<path d="M0.0141228 38.872C0.11736 38.6622 0.286436 38.4907 0.49632 38.383C0.706204 38.2752 0.945738 38.2369 1.17945 38.2737C1.54671 38.2737 1.88571 38.2737 2.33772 38.2737V26.705C2.33772 25.8215 2.59904 25.5642 3.48186 25.5572H9.06838C9.99358 25.5572 10.2478 25.8007 10.2478 26.705V38.2389H12.8186V19.0389C12.8186 18.1137 13.0799 17.8633 14.0193 17.8633H19.6058C20.4392 17.8633 20.7287 18.1485 20.7287 18.9485C20.7287 20.952 20.7287 22.9555 20.7287 24.9589C20.7508 25.1502 20.7099 25.3434 20.612 25.51C20.514 25.6766 20.3643 25.8078 20.1849 25.8842C20.0476 25.9386 19.8983 25.9573 19.7515 25.9384C19.6047 25.9196 19.4652 25.8637 19.3467 25.7763C19.2282 25.6889 19.1345 25.5729 19.0747 25.4395C19.015 25.3061 18.9911 25.1597 19.0055 25.0146C19.0055 23.3659 19.0055 21.7172 19.0055 20.0685V19.5815H14.5772V38.2389H19.0125V37.7868C19.0125 36.1311 19.0125 34.4824 19.0125 32.8337C19.0017 32.7163 19.0158 32.5979 19.054 32.4861C19.0922 32.3744 19.1537 32.2717 19.2344 32.1846C19.3151 32.0975 19.4134 32.028 19.523 31.9804C19.6325 31.9328 19.7509 31.9083 19.8706 31.9083C19.9904 31.9083 20.1088 31.9328 20.2183 31.9804C20.3278 32.028 20.4261 32.0975 20.5069 32.1846C20.5876 32.2717 20.649 32.3744 20.6872 32.4861C20.7254 32.5979 20.7396 32.7163 20.7287 32.8337V38.2389H23.3066V26.6563C23.3066 25.8355 23.575 25.5642 24.4084 25.5572H30.0584C30.9201 25.5572 31.1955 25.8285 31.1955 26.6702V38.2389H33.7663V19.0459C33.7663 18.1137 34.0205 17.8702 34.9669 17.8702H40.4263C41.4363 17.8702 41.6764 18.1068 41.6764 19.0876V38.2807C42.0719 38.2807 42.4533 38.2807 42.8347 38.2807C43.0684 38.2439 43.3079 38.2822 43.5178 38.3899C43.7277 38.4977 43.8968 38.6692 44 38.8789V39.3868C43.8897 39.591 43.7196 39.7579 43.5118 39.8658C43.304 39.9738 43.0681 40.0177 42.8347 39.992C28.9449 39.992 15.0551 39.992 1.16533 39.992C0.932 40.0167 0.69647 39.9724 0.488878 39.8646C0.281287 39.7568 0.111072 39.5904 0 39.3868L0.0141228 38.872ZM35.539 19.5885V38.2389H39.9531V19.5885H35.539ZM4.08925 27.2755V38.2389H8.4963V27.2755H4.08925ZM29.4722 38.2389V27.2824H25.051V38.2389H29.4722Z" fill="#0057FF"/>
<path d="M20.1557 5.97563L25.1772 10.9078C25.803 10.5258 26.5245 10.3235 27.2607 10.3235C27.9968 10.3235 28.7184 10.5258 29.3441 10.9078L34.3586 5.9478C33.8499 5.13593 33.6613 4.1684 33.8286 3.22868C33.9959 2.28896 34.5076 1.44239 35.2665 0.849526C36.0254 0.256657 36.9788 -0.0412921 37.9458 0.0121762C38.9129 0.0656445 39.8265 0.466812 40.5133 1.13961C41.2 1.8124 41.6122 2.71005 41.6718 3.66231C41.7313 4.61457 41.434 5.55524 40.8362 6.30594C40.2384 7.05664 39.3817 7.56516 38.4286 7.73508C37.4755 7.905 36.4922 7.72449 35.6652 7.2278L30.6366 12.1669C31.6112 14.2539 31.2581 16.0904 29.662 17.3078C28.9284 17.8566 28.0237 18.1365 27.1033 18.0993C26.1829 18.0622 25.3045 17.7104 24.6189 17.1043C23.9334 16.4983 23.4837 15.6759 23.3472 14.7786C23.2106 13.8813 23.3957 12.9652 23.8706 12.1878L18.835 7.2278C18.2178 7.60124 17.5076 7.79893 16.7833 7.79893C16.059 7.79893 15.3488 7.60124 14.7316 7.2278L9.68187 12.2017C10.2142 13.0765 10.3777 14.1217 10.1375 15.1137C9.89728 16.1057 9.27234 16.9657 8.39647 17.5095C7.80061 17.876 7.11627 18.0793 6.41404 18.0983C5.71182 18.1174 5.01716 17.9515 4.40174 17.6178C3.78631 17.2842 3.27241 16.7949 2.91306 16.2003C2.55371 15.6057 2.36193 14.9275 2.3575 14.2356C2.35307 13.5437 2.53616 12.8631 2.88787 12.2641C3.23959 11.6652 3.74718 11.1695 4.35829 10.8282C4.96939 10.487 5.66188 10.3125 6.36429 10.3228C7.0667 10.3331 7.75359 10.5279 8.35409 10.8869L13.3756 5.92694C12.4504 3.77041 12.7894 1.98954 14.3926 0.793018C15.0873 0.271536 15.9384 -0.0074076 16.8118 0.000149607C17.6851 0.00770681 18.5311 0.301339 19.2164 0.834761C20.7843 2.06607 21.1092 3.87476 20.1557 5.97563ZM19.0116 3.88867C19.0116 3.45252 18.8802 3.02616 18.6342 2.66352C18.3882 2.30087 18.0386 2.01822 17.6295 1.85131C17.2204 1.68441 16.7702 1.64074 16.3359 1.72583C15.9017 1.81092 15.5027 2.02094 15.1896 2.32935C14.8765 2.63775 14.6633 3.03069 14.5769 3.45846C14.4905 3.88623 14.5348 4.32962 14.7043 4.73257C14.8737 5.13552 15.1607 5.47993 15.5289 5.72225C15.8971 5.96456 16.3299 6.09389 16.7727 6.09389C17.3635 6.09209 17.9297 5.86108 18.3488 5.45091C18.7679 5.04075 19.006 4.48446 19.0116 3.90259V3.88867ZM27.2677 12.0208C26.8249 12.0181 26.3913 12.1448 26.0216 12.3848C25.6518 12.6248 25.3627 12.9674 25.1907 13.3693C25.0186 13.7712 24.9715 14.2143 25.0551 14.6426C25.1388 15.0709 25.3495 15.4651 25.6606 15.7755C25.9717 16.0858 26.3693 16.2983 26.803 16.3861C27.2368 16.4739 27.6872 16.433 28.0973 16.2687C28.5075 16.1043 28.859 15.8238 29.1073 15.4627C29.3556 15.1016 29.4897 14.6761 29.4925 14.24C29.4934 13.9513 29.4366 13.6653 29.3253 13.3982C29.214 13.1312 29.0504 12.8883 28.8438 12.6835C28.6372 12.4788 28.3917 12.3161 28.1213 12.2047C27.8509 12.0934 27.5608 12.0357 27.2677 12.0348V12.0208ZM8.5236 14.2052C8.52081 13.7707 8.38737 13.3468 8.14013 12.987C7.8929 12.6272 7.54295 12.3476 7.1345 12.1836C6.72604 12.0195 6.2774 11.9784 5.84522 12.0653C5.41304 12.1523 5.01672 12.3634 4.7063 12.6721C4.39587 12.9808 4.18527 13.3731 4.10109 13.7996C4.01691 14.2261 4.06293 14.6676 4.23334 15.0684C4.40375 15.4691 4.6909 15.8111 5.05853 16.0512C5.42616 16.2913 5.85777 16.4187 6.29887 16.4174C6.88955 16.4155 7.45541 16.1831 7.87242 15.7711C8.28943 15.359 8.5236 14.8009 8.5236 14.2191V14.2052ZM35.4815 3.9165C35.4843 4.35067 35.6176 4.7743 35.8645 5.13397C36.1114 5.49364 36.461 5.77323 36.869 5.93748C37.277 6.10173 37.7253 6.14328 38.1573 6.0569C38.5893 5.97051 38.9856 5.76006 39.2964 5.45208C39.6071 5.1441 39.8182 4.75239 39.9032 4.32635C39.9882 3.90032 39.9432 3.45904 39.7738 3.05817C39.6045 2.6573 39.3185 2.31479 38.9518 2.07385C38.585 1.83292 38.1541 1.70433 37.7133 1.70433C37.4191 1.70432 37.1277 1.76164 36.856 1.87298C36.5843 1.98432 36.3376 2.14749 36.1302 2.35309C35.9228 2.5587 35.7587 2.80268 35.6474 3.07099C35.536 3.3393 35.4797 3.62665 35.4815 3.9165Z" fill="#0057FF"/>
<path d="M20.7303 28.9184C20.7411 29.0359 20.727 29.1542 20.6887 29.266C20.6505 29.3778 20.5891 29.4804 20.5083 29.5675C20.4275 29.6546 20.3292 29.7241 20.2196 29.7717C20.11 29.8193 19.9916 29.8439 19.8718 29.8439C19.752 29.8439 19.6336 29.8193 19.524 29.7717C19.4144 29.7241 19.316 29.6546 19.2353 29.5675C19.1545 29.4804 19.0931 29.3778 19.0548 29.266C19.0166 29.1542 19.0025 29.0359 19.0133 28.9184C19.0328 28.7075 19.1316 28.5113 19.2905 28.3685C19.4493 28.2257 19.6567 28.1465 19.8718 28.1465C20.0869 28.1465 20.2943 28.2257 20.4531 28.3685C20.612 28.5113 20.7108 28.7075 20.7303 28.9184Z" fill="#0057FF"/>
</svg>
