<svg width="45" height="40" viewBox="0 0 45 40" fill="none" xmlns="http://www.w3.org/2000/svg">
<path d="M0.015995 8.92993C0.0719657 8.71796 0.135933 8.49815 0.191904 8.27833C0.47877 7.1988 1.11649 6.24063 2.00829 5.54922C2.90008 4.85782 3.99726 4.47093 5.13331 4.44727C12.7666 4.44727 20.4026 4.44727 28.0413 4.44727C28.545 4.44727 28.8409 4.67493 28.8409 5.07531C28.8409 5.47568 28.553 5.7426 28.0413 5.7426H5.57309C5.01551 5.70821 4.45684 5.79058 3.93414 5.98425C3.41144 6.17792 2.93664 6.47846 2.54122 6.86596C2.14579 7.25346 1.83877 7.71906 1.64052 8.23189C1.44227 8.74472 1.35731 9.29307 1.39128 9.84059C1.39128 15.5977 1.39128 21.3547 1.39128 27.1118C1.36765 27.6538 1.4587 28.1947 1.65868 28.7004C1.85865 29.2061 2.16321 29.6656 2.55314 30.0499C2.94307 30.4342 3.40991 30.735 3.92418 30.9333C4.43846 31.1316 4.98901 31.223 5.5411 31.2019C6.6845 31.2019 7.20423 31.8064 7.00433 32.9134C6.70849 34.6091 6.38865 36.2969 6.07681 37.9927C6.07681 38.0869 6.07681 38.1889 6.07681 38.3695L6.44463 38.0398C8.62748 36.0065 10.8183 33.9732 12.9932 31.932C13.2418 31.6896 13.5379 31.4992 13.8637 31.3724C14.1894 31.2455 14.5379 31.1849 14.8882 31.1941C21.3968 31.1941 27.9054 31.1941 34.414 31.1941C35.3145 31.2363 36.2026 30.9741 36.9301 30.4512C37.6577 29.9283 38.1806 29.1764 38.4119 28.3208C38.5079 27.9327 38.5562 27.5347 38.5558 27.1353C38.5558 25.4632 38.5558 23.7989 38.5558 22.1346C38.5558 22.0168 38.5558 21.9069 38.5558 21.7891C38.5558 21.6142 38.6266 21.4465 38.7525 21.3228C38.8785 21.1992 39.0493 21.1297 39.2274 21.1297C39.3153 21.1327 39.4017 21.1528 39.4816 21.1889C39.5615 21.225 39.6333 21.2763 39.6928 21.3398C39.7523 21.4034 39.7983 21.4779 39.8283 21.5591C39.8582 21.6402 39.8714 21.7264 39.8671 21.8127C39.8671 23.0374 39.8671 24.2542 39.8671 25.4789C39.9045 26.3113 39.8858 27.1453 39.8111 27.9754C39.6526 29.244 39.0185 30.4092 38.0325 31.2437C37.0465 32.0783 35.7793 32.5224 34.4779 32.4894H22.4842C19.9575 32.4894 17.4229 32.4894 14.8962 32.4894C14.7154 32.484 14.5354 32.5154 14.3675 32.5816C14.1996 32.6478 14.0475 32.7474 13.9207 32.8741C11.6126 35.0408 9.29913 37.1971 6.98034 39.343C6.86041 39.4607 6.73248 39.5863 6.59655 39.6962C6.42669 39.8584 6.20785 39.9621 5.97287 39.9918C5.73788 40.0216 5.49941 39.9757 5.29323 39.8611C5.0768 39.766 4.89964 39.6016 4.79071 39.3949C4.68178 39.1881 4.64752 38.9511 4.69354 38.7228C4.83747 37.7807 5.02137 36.8543 5.18928 35.9201C5.38917 34.7975 5.59707 33.667 5.78097 32.6386C4.94009 32.5002 4.11138 32.2981 3.30227 32.0341C2.47814 31.7304 1.74893 31.2209 1.18663 30.5559C0.624341 29.891 0.248409 29.0935 0.0959519 28.2423L0 27.8733L0.015995 8.92993Z" fill="#BB128C"/>
<path d="M44.9517 17.8953C44.8313 18.2895 44.5702 18.628 44.2163 18.8486C43.8624 19.0692 43.4394 19.1572 43.0247 19.0964C41.8813 19.0964 40.7379 19.0964 39.6025 19.0964C39.4906 19.0768 39.3753 19.0989 39.2791 19.1584C39.1829 19.218 39.1129 19.3106 39.0828 19.4183C38.754 20.1732 38.2067 20.8167 37.5088 21.269C36.8109 21.7212 35.9931 21.9623 35.1569 21.9623C34.3206 21.9623 33.5028 21.7212 32.8049 21.269C32.107 20.8167 31.5597 20.1732 31.2309 19.4183C31.2009 19.3117 31.1325 19.2194 31.0383 19.1588C30.9441 19.0981 30.8307 19.0731 30.7192 19.0886H27.0811C26.7398 19.1192 26.3978 19.0379 26.1085 18.8576C25.8192 18.6772 25.5989 18.4078 25.4819 18.0915C25.3648 17.7785 25.3578 17.436 25.4622 17.1187C25.5665 16.8013 25.7762 16.5275 26.0576 16.3409C27.1592 15.4528 28.0369 14.3269 28.6222 13.0509C29.2075 11.7749 29.4846 10.3834 29.4319 8.9849C29.356 7.92617 29.5794 6.86743 30.0774 5.92545C30.5755 4.98346 31.3288 4.19483 32.2544 3.64653C32.365 3.54718 32.4311 3.40889 32.4383 3.26185C32.4783 2.96353 32.4383 2.65736 32.4783 2.35904C32.5586 1.68463 32.8977 1.06564 33.4266 0.628093C33.9554 0.190541 34.6342 -0.0326792 35.3248 0.00387347C36.012 0.0283931 36.6623 0.315355 37.1372 0.803645C37.6121 1.29193 37.8741 1.94297 37.8674 2.61811C37.8502 2.90921 37.9159 3.19927 38.0571 3.45579C38.1983 3.71231 38.4095 3.92515 38.667 4.07046C39.4069 4.59352 40.0022 5.28967 40.3987 6.09576C40.7952 6.90185 40.9806 7.79237 40.9378 8.68658C40.8688 10.1819 41.1421 11.6735 41.7374 13.0515C42.3109 14.2476 43.1272 15.3162 44.1362 16.1917C44.4589 16.5303 44.748 16.8984 44.9997 17.2908L44.9517 17.8953ZM35.1489 17.8011H43.0487C43.1657 17.813 43.2836 17.813 43.4005 17.8011C43.6244 17.7618 43.7124 17.6362 43.5445 17.4399C43.3765 17.2437 43.3685 17.2908 43.2806 17.2123C41.8191 15.9816 40.7272 14.3829 40.1223 12.5883C39.7188 11.2812 39.5351 9.91826 39.5785 8.55312C39.589 7.55495 39.2489 6.58372 38.6153 5.803C37.9818 5.02228 37.0936 4.47977 36.1003 4.26684C35.107 4.0539 34.0693 4.18356 33.162 4.63397C32.2547 5.08437 31.5332 5.82801 31.119 6.73965C30.8132 7.51692 30.6796 8.34924 30.7272 9.18117C30.7534 10.7125 30.4335 12.2306 29.7906 13.626C29.1477 15.0215 28.1978 16.2597 27.0091 17.2515C26.89 17.3797 26.788 17.5221 26.7053 17.6755C26.8783 17.7504 27.0614 17.8006 27.249 17.8246L35.1489 17.8011ZM32.5902 19.1121C32.8312 19.6246 33.2283 20.051 33.7268 20.3323C34.2253 20.6135 34.8004 20.7358 35.3727 20.6822C35.8725 20.6647 36.3567 20.5077 36.7688 20.2296C37.1809 19.9515 37.5038 19.5639 37.6995 19.1121H32.5902ZM33.7576 2.93213H36.5081C36.5777 2.66676 36.5603 2.3866 36.4584 2.13151C36.3564 1.87641 36.1752 1.65935 35.9404 1.51118C35.7164 1.36166 35.4517 1.28172 35.1808 1.28172C34.9099 1.28172 34.6453 1.36166 34.4212 1.51118C34.1812 1.65839 33.9905 1.87145 33.8725 2.124C33.7546 2.37655 33.7146 2.65752 33.7576 2.93213Z" fill="#BB128C"/>
<path d="M16.3831 11.7556H25.1785C25.325 11.7477 25.4718 11.7477 25.6183 11.7556C25.7753 11.7617 25.9237 11.8273 26.0326 11.9385C26.1414 12.0497 26.2021 12.198 26.202 12.3523C26.2202 12.505 26.1769 12.6586 26.0813 12.7804C25.9857 12.9022 25.8453 12.9824 25.6902 13.0039C25.5468 13.0197 25.4019 13.0197 25.2585 13.0039C19.3522 13.0039 13.4433 13.0039 7.53177 13.0039C7.35663 13.0137 7.18103 12.9951 7.01203 12.9489C6.93905 12.9353 6.86975 12.907 6.80853 12.8657C6.7473 12.8244 6.69548 12.771 6.65638 12.709C6.61728 12.647 6.59175 12.5777 6.5814 12.5054C6.57105 12.4332 6.57611 12.3597 6.59626 12.2895C6.70848 12.0632 6.88658 11.8746 7.10799 11.7478C7.21993 11.6693 7.41982 11.7478 7.57974 11.7478L16.3831 11.7556Z" fill="#BB128C"/>
<path d="M14.848 24.9052H7.65176C7.49225 24.921 7.33154 24.921 7.17202 24.9052C7.02846 24.8815 6.89744 24.8104 6.80062 24.7036C6.7038 24.5969 6.64697 24.4609 6.63951 24.3181C6.63206 24.1754 6.67443 24.0344 6.75961 23.9185C6.8448 23.8025 6.96772 23.7186 7.10805 23.6806C7.26532 23.6451 7.4265 23.6293 7.58779 23.6335H22.2361C22.3811 23.6309 22.5259 23.6441 22.6679 23.6727C22.8217 23.6996 22.9588 23.7844 23.0498 23.9091C23.1409 24.0337 23.1789 24.1883 23.1556 24.34C23.1559 24.4867 23.0988 24.6279 22.9961 24.7345C22.8935 24.8412 22.7531 24.9051 22.6039 24.9131C22.4603 24.9249 22.3158 24.9249 22.1722 24.9131L14.848 24.9052Z" fill="#BB128C"/>
<path d="M14.856 18.971H7.57186C7.41195 18.971 7.20405 19.0181 7.1001 18.971C6.88342 18.8315 6.7137 18.632 6.61236 18.3979C6.59619 18.3264 6.59539 18.2525 6.61 18.1807C6.62461 18.1089 6.65432 18.041 6.69721 17.9811C6.74011 17.9213 6.79526 17.8709 6.85913 17.8331C6.92299 17.7954 6.99418 17.7712 7.06812 17.762C7.23824 17.7223 7.41321 17.7065 7.58785 17.7149H22.1482C22.2787 17.707 22.4095 17.707 22.54 17.7149C22.6213 17.7188 22.7009 17.7388 22.7742 17.7735C22.8475 17.8082 22.9129 17.8571 22.9666 17.9171C23.0203 17.9772 23.0612 18.0472 23.0868 18.123C23.1124 18.1989 23.1222 18.279 23.1157 18.3586C23.1212 18.4382 23.11 18.5179 23.0827 18.593C23.0554 18.6681 23.0127 18.7369 22.9572 18.795C22.9017 18.8532 22.8346 18.8995 22.7601 18.9312C22.6856 18.9628 22.6052 18.979 22.524 18.9788C22.3775 18.9867 22.2307 18.9867 22.0843 18.9788L14.856 18.971Z" fill="#BB128C"/>
</svg>
