<svg width="38" height="40" viewBox="0 0 38 40" fill="none" xmlns="http://www.w3.org/2000/svg">
<path fill-rule="evenodd" clip-rule="evenodd" d="M14.11 0.0481796C11.1021 0.393349 8.06282 1.7273 5.7672 3.70979C5.13838 4.25283 3.9393 5.52416 3.44446 6.17247C2.81653 6.99524 2.13904 8.1296 1.63164 9.20784C-1.40055 15.6512 -0.127747 23.3696 4.79417 28.3864C7.18788 30.8262 10.1125 32.3444 13.4783 32.8944C14.5945 33.0767 16.8158 33.0739 17.967 32.8886C20.094 32.5461 22.1411 31.7654 23.8655 30.6389C24.1875 30.4286 24.4743 30.2564 24.503 30.2564C24.5316 30.2564 24.7681 30.4829 25.0286 30.7598L25.5023 31.2631L25.3423 31.6548C25.1114 32.2201 25.1237 32.9196 25.3739 33.4483C25.5812 33.8866 25.8464 34.1591 26.3255 34.4263C26.756 34.6662 27.6222 34.6673 28.0433 34.4284L28.3405 34.2598L30.8299 36.871C33.1077 39.2603 33.3636 39.5043 33.8395 39.7407C34.307 39.9728 34.4275 39.9991 35.0285 40C35.8248 40.0012 36.277 39.8569 36.8102 39.4314C37.6348 38.7733 38.0015 37.984 38 36.8702C37.9992 36.2372 37.9742 36.1103 37.7538 35.6179C37.5292 35.1161 37.299 34.8488 35.0171 32.4383L32.5256 29.8065L32.652 29.5492C32.9833 28.8743 32.8378 27.8857 32.315 27.2602C31.8995 26.7631 31.401 26.5536 30.7244 26.5915C30.4351 26.6078 30.0929 26.6774 29.9641 26.7461L29.7299 26.8712L29.2395 26.3507C28.9699 26.0645 28.7492 25.8111 28.7492 25.7876C28.7492 25.7642 28.961 25.3736 29.2199 24.9195C31.6541 20.6507 32.0802 15.1666 30.3375 10.5339C29.4648 8.21398 28.2291 6.2786 26.5125 4.54305C24.2209 2.22635 21.2429 0.677703 18.0812 0.15854C17.1807 0.0106885 14.9717 -0.050675 14.11 0.0481796ZM17.3801 1.3329C22.3432 1.94481 26.6523 5.20482 28.8157 9.98459C30.9726 14.7497 30.6092 20.4057 27.8609 24.845C27.5269 25.3845 27.3373 25.7704 27.3373 25.9107C27.3373 26.0847 27.4968 26.3015 28.0966 26.9435L28.8559 27.7563L27.6157 29.0625L26.3755 30.3688L25.6039 29.5691C24.9943 28.9373 24.7885 28.7693 24.6233 28.7693C24.4901 28.7693 24.1237 28.969 23.6115 29.3208C17.8712 33.2631 10.3133 32.4275 5.45086 27.3129C1.99227 23.6749 0.50791 18.4779 1.4851 13.4285C2.09817 10.2609 3.77841 7.19303 6.04171 5.10886C9.23835 2.16537 13.2626 0.825163 17.3801 1.3329ZM14.6489 4.66773C9.75518 5.16615 5.71295 8.93593 4.66873 13.9752C4.04898 16.966 4.57733 20.2028 6.10628 22.7817C7.43103 25.0163 9.61503 26.8638 11.9638 27.7369C13.2795 28.226 13.9821 28.3388 15.7076 28.3385C16.9521 28.3382 17.3961 28.3087 17.8998 28.1926C18.91 27.9598 19.8039 27.6269 20.7608 27.1272C23.819 25.5302 26.0298 22.4873 26.7898 18.8291C26.9 18.2985 26.928 17.8309 26.9283 16.5201C26.9285 15.0845 26.9068 14.7736 26.7559 14.0639C26.2498 11.6832 25.2852 9.84574 23.6267 8.10346C21.6578 6.0351 19.3876 4.92148 16.6123 4.66272C15.6929 4.57702 15.5357 4.57741 14.6489 4.66773ZM17.6055 6.06978C20.7296 6.69969 23.3185 8.78245 24.7581 11.8239C25.4484 13.2824 25.776 14.7947 25.7765 16.5259C25.7774 19.6279 24.5841 22.412 22.3585 24.5005C21.0098 25.7661 19.1474 26.7028 17.3796 27.0045C16.4821 27.1577 14.9413 27.1591 14.0541 27.0075C10.4052 26.3843 7.29734 23.596 6.11951 19.8888C5.46134 17.8173 5.43741 15.3983 6.05464 13.3403C6.85489 10.672 8.79991 8.24873 11.1322 7.0141C13.1251 5.95918 15.4066 5.62638 17.6055 6.06978ZM14.0496 8.06605C13.9697 8.17312 13.8626 8.49301 13.8117 8.77681C13.7501 9.12112 13.6792 9.30701 13.5988 9.3355C13.5326 9.3589 13.2008 9.50089 12.8618 9.65085L12.2451 9.92354L11.8376 9.63856C11.0874 9.11384 11.1318 9.09647 9.89563 10.3985C8.65946 11.7005 8.67596 11.6537 9.17414 12.4439L9.44471 12.8731L9.18581 13.5226C9.04343 13.8798 8.90863 14.2292 8.88641 14.299C8.85936 14.3837 8.68287 14.4583 8.35598 14.5232C8.08652 14.5768 7.78281 14.6895 7.68116 14.7738L7.49627 14.9269V16.478C7.49627 18.3248 7.48014 18.2846 8.30686 18.494L8.85728 18.6334L9.14442 19.3907L9.43155 20.148L9.13342 20.643C8.96941 20.9153 8.83498 21.2236 8.83461 21.3282C8.83402 21.4684 9.10518 21.8061 9.86598 22.6131C11.0593 23.8789 11.066 23.8815 11.8059 23.4082C12.2132 23.1475 12.2996 23.1194 12.4676 23.1928C12.5739 23.2391 12.8949 23.3804 13.1809 23.5065L13.701 23.7361L13.8284 24.3155C14.0184 25.1795 13.9955 25.1689 15.6726 25.1689C16.4413 25.1689 17.1244 25.147 17.1905 25.1203C17.355 25.0539 17.4885 24.749 17.5977 24.1905L17.6895 23.7209L18.2544 23.4861C18.5651 23.357 18.8911 23.2201 18.9787 23.1821C19.1043 23.1276 19.2477 23.1825 19.6522 23.4398C20.032 23.6813 20.2148 23.7545 20.3521 23.7199C20.5941 23.659 22.4855 21.6669 22.5433 21.412C22.5761 21.2674 22.5067 21.0749 22.2773 20.6748C22.0331 20.2487 21.981 20.0977 22.0327 19.9655C22.0688 19.8731 22.1987 19.5298 22.3213 19.2026L22.5443 18.6076L22.9901 18.5108C23.5203 18.3958 23.8098 18.2552 23.8729 18.082C23.8982 18.0123 23.919 17.2929 23.919 16.4832C23.919 14.7168 23.929 14.7409 23.1088 14.5407L22.5587 14.4066L22.3407 13.8588C22.2209 13.5575 22.0868 13.2195 22.0428 13.1075C21.9732 12.9305 21.9999 12.8395 22.2473 12.4105C22.6967 11.6312 22.6942 11.6242 21.4925 10.3673C20.7556 9.59653 20.4029 9.28016 20.2806 9.28016C20.1857 9.28016 19.8943 9.42238 19.633 9.59614L19.158 9.91219L18.436 9.60851L17.714 9.30482L17.5817 8.72508C17.3829 7.85433 17.421 7.87131 15.6677 7.87131H14.195L14.0496 8.06605ZM16.5461 9.63089C16.6696 10.2182 16.7828 10.3491 17.2998 10.5024C17.5277 10.5699 18.0235 10.7828 18.4018 10.9753C19.1613 11.362 19.2087 11.3626 19.7641 10.9937C19.9516 10.8692 20.1347 10.7673 20.1708 10.7673C20.2465 10.7673 21.1695 11.7149 21.1695 11.7926C21.1695 11.821 21.0525 12.0488 20.9094 12.299C20.7664 12.5493 20.6493 12.8222 20.6493 12.9055C20.6493 12.989 20.7465 13.2376 20.8652 13.458C20.984 13.6785 21.1864 14.1752 21.315 14.5618C21.4436 14.9484 21.5995 15.3234 21.6611 15.3953C21.7229 15.4671 21.9898 15.5689 22.2542 15.6214L22.735 15.717L22.714 16.5083L22.6929 17.2995L22.247 17.4026C21.7022 17.5285 21.5357 17.7007 21.3593 18.3203C21.2857 18.5786 21.0959 19.0622 20.9374 19.3948C20.779 19.7274 20.6493 20.0613 20.6493 20.1368C20.6493 20.2122 20.7708 20.4811 20.9191 20.7343L21.1888 21.1946L20.6672 21.7439L20.1457 22.2933L19.7087 22.0092C19.4683 21.8529 19.213 21.725 19.1414 21.725C19.0698 21.725 18.7528 21.8616 18.4369 22.0285C18.1211 22.1954 17.662 22.3953 17.4168 22.4728C16.8285 22.6586 16.6651 22.834 16.5455 23.4078L16.4476 23.8775L15.6964 23.8997L14.9451 23.9218L14.8544 23.4154C14.8045 23.1369 14.7079 22.8558 14.6397 22.7908C14.5715 22.7258 14.2154 22.5617 13.8484 22.4262C13.4814 22.2907 13.0098 22.0775 12.8004 21.9524C12.5911 21.8273 12.3551 21.725 12.2759 21.725C12.1967 21.725 11.9376 21.8483 11.7 21.999C11.4625 22.1497 11.248 22.2729 11.2234 22.2729C11.1503 22.2729 10.2458 21.3054 10.2458 21.2272C10.2458 21.1876 10.3418 20.991 10.4591 20.7902C10.8096 20.1903 10.8092 20.1551 10.4433 19.3578C10.2605 18.9594 10.0584 18.4371 9.99431 18.1971C9.84873 17.6525 9.72449 17.5333 9.16686 17.4032L8.7224 17.2995L8.70137 16.5096L8.68027 15.7196L9.11306 15.63C9.72538 15.5032 9.83372 15.3972 10.0228 14.7406C10.113 14.4279 10.317 13.9052 10.4763 13.579C10.6356 13.253 10.766 12.9343 10.766 12.871C10.766 12.8077 10.6498 12.5638 10.5078 12.3291C10.3658 12.0943 10.2488 11.8679 10.2477 11.826C10.2451 11.7237 11.1499 10.7667 11.2468 10.7693C11.2889 10.7704 11.5056 10.8937 11.7286 11.0433C11.9514 11.1928 12.183 11.3152 12.2431 11.3152C12.3032 11.3152 12.6058 11.1781 12.9153 11.0106C13.225 10.8431 13.7196 10.6306 14.0145 10.5385C14.6359 10.3443 14.7411 10.2247 14.8626 9.57422L14.9477 9.11838L15.6977 9.14061L16.4476 9.16276L16.5461 9.63089ZM14.5558 11.9107C12.97 12.3591 11.74 13.6666 11.3268 15.3429C11.181 15.9344 11.1788 17.0973 11.3223 17.6776C11.6451 18.983 12.5896 20.1909 13.7384 20.7676C14.4827 21.1413 14.9492 21.2554 15.7328 21.2554C17.7636 21.2554 19.5788 19.7408 20.0909 17.619C20.2356 17.0191 20.2349 16.0158 20.0891 15.4212C19.6587 13.665 18.4274 12.3452 16.8116 11.9082C16.2413 11.754 15.1054 11.7553 14.5558 11.9107ZM16.7396 13.1966C17.7088 13.5119 18.5412 14.4054 18.8721 15.4858C19.0075 15.9276 19.0284 16.1356 18.9966 16.7233C18.9635 17.3341 18.9213 17.5087 18.6846 18.0131C18.3333 18.7617 17.8367 19.2852 17.1277 19.6543C16.6637 19.8958 16.4762 19.9479 15.943 19.9828C14.9954 20.0451 14.2584 19.7946 13.5238 19.1606C12.4603 18.2427 12.0788 16.3888 12.6814 15.0667C13.4311 13.4218 15.0867 12.6589 16.7396 13.1966ZM31.2792 27.9304C31.6346 28.2253 31.7382 28.6743 31.5413 29.0667C31.3865 29.3754 27.6285 33.2818 27.4237 33.3469C26.8883 33.5171 26.3713 33.0836 26.3713 32.4646V32.1018L28.3991 29.9659L30.427 27.8301L30.7956 27.8326C30.9984 27.8339 31.2161 27.878 31.2792 27.9304ZM34.1527 33.3285C36.6629 35.9764 36.844 36.2138 36.8475 36.8611C36.8504 37.3989 36.6911 37.7856 36.2943 38.2035C35.8981 38.6208 35.5321 38.7885 35.0199 38.787C34.3955 38.7854 34.1211 38.5531 31.6109 35.9001L29.2335 33.3877L30.4582 32.096C31.1317 31.3856 31.7001 30.8043 31.7212 30.8043C31.7424 30.8043 32.8366 31.9402 34.1527 33.3285Z" fill="#953AF0"/>
</svg>
