<svg width="44" height="40" viewBox="0 0 44 40" fill="none" xmlns="http://www.w3.org/2000/svg">
<path fill-rule="evenodd" clip-rule="evenodd" d="M3.37542 0.0595701C2.2413 0.208173 0.994524 1.08269 0.482081 2.08888C-0.0220269 3.07874 0.00014494 2.47826 0.00014494 15.1172C0.00014494 23.3221 0.0282464 26.8561 0.0959649 27.1764C0.25641 27.9357 0.590362 28.529 1.19673 29.1323C1.80311 29.7356 2.39943 30.0679 3.16255 30.2275C3.47003 30.2919 5.40293 30.3228 9.1137 30.3228H14.6095V32.2466V34.1704H12.1249C9.92787 34.1704 9.57991 34.1892 9.11731 34.3325C8.11683 34.6422 7.42082 35.2336 7.03497 36.1015C6.88793 36.4321 6.84659 36.7374 6.81144 37.7542C6.75782 39.3036 6.83997 39.6865 7.26416 39.8628C7.70407 40.0457 36.2961 40.0457 36.736 39.8628C37.1602 39.6865 37.2423 39.3036 37.1887 37.7542C37.1536 36.7374 37.1122 36.4321 36.9652 36.1015C36.5793 35.2336 35.8833 34.6422 34.8828 34.3325C34.4202 34.1892 34.0723 34.1704 31.8752 34.1704H29.3907V32.2466V30.3228H34.879C38.168 30.3228 40.5482 30.2886 40.819 30.2376C42.288 29.9604 43.5884 28.6702 43.9042 27.1764C43.9719 26.8561 44 23.3221 44 15.1172C44 5.10531 43.9824 3.44383 43.8718 3.02137C43.519 1.67368 42.6425 0.719049 41.286 0.205009L40.7774 0.0122874L22.3438 0.000915681C12.2054 -0.00532598 3.66958 0.0210086 3.37542 0.0595701ZM41.0352 1.57689C41.5772 1.82494 42.0588 2.28434 42.3531 2.83386L42.582 3.26137V15.1462V27.031L42.3423 27.5168C42.0706 28.0672 41.6543 28.4688 41.0825 28.732L40.6914 28.912H22.0001H3.30873L2.91763 28.732C2.34589 28.4688 1.92952 28.0672 1.65787 27.5168L1.41811 27.031L1.39542 15.3172C1.36973 2.08555 1.32074 3.06959 2.04511 2.26801C2.48081 1.78578 2.94212 1.52106 3.5167 1.42325C3.73317 1.38648 12.1667 1.36177 22.2579 1.36835L40.6055 1.38032L41.0352 1.57689ZM3.4806 2.82634C3.33881 2.88901 3.12611 3.04454 3.00795 3.17185L2.7931 3.40339L2.76921 13.8064C2.75607 19.5281 2.76629 24.2953 2.7919 24.4003C2.90886 24.8785 1.72215 24.8507 22.0001 24.8507C42.278 24.8507 41.0913 24.8785 41.2082 24.4003C41.2339 24.2953 41.2441 19.5281 41.2309 13.8064L41.207 3.40339L40.9922 3.17177C40.5314 2.67491 41.7809 2.70535 21.9813 2.70894C6.97043 2.71168 3.6927 2.73254 3.4806 2.82634ZM39.875 13.7781V23.4827H22.0001H4.12513V13.7781V4.07364H22.0001H39.875V13.7781ZM22.4651 5.77437C21.8817 6.12826 21.8282 6.28046 21.8282 7.5842C21.8282 8.73129 21.8343 8.77037 22.0533 9.02927C22.4313 9.47628 22.6607 9.54579 23.7575 9.54579H24.7501V10.1624V10.7791L23.3751 12.1562C22.2416 13.2916 22.0001 13.5764 22.0001 13.7781C22.0001 13.9799 22.2416 14.2647 23.3751 15.4001L24.7501 16.7772V17.3939V18.0105H23.802C22.7622 18.0105 22.4365 18.0989 22.086 18.4764C21.8823 18.6958 21.8697 18.7682 21.8422 19.8768C21.8105 21.1598 21.8717 21.394 22.3269 21.7299C22.5456 21.8913 22.7146 21.9022 25.3315 21.9256C28.4207 21.9532 28.5346 21.9359 28.8737 21.3901C29.0251 21.1463 29.0469 20.965 29.0469 19.9522C29.0469 18.8174 29.042 18.7874 28.8146 18.5185C28.4629 18.1026 28.1472 18.0105 27.0731 18.0105H26.1251V17.4323V16.8539L27.3078 15.6795L28.4906 14.5049H30.5734H32.6563V16.2577V18.0105L31.6895 18.0107C30.5823 18.0108 30.2507 18.1218 29.9295 18.6003C29.7524 18.8641 29.7344 18.9901 29.7348 19.9683C29.7351 21.1788 29.8297 21.4534 30.3567 21.773C30.6203 21.933 30.7941 21.943 33.3251 21.9433C36.301 21.9436 36.4276 21.9245 36.79 21.4189C36.9753 21.1604 36.9988 21.0276 37.0229 20.1053C37.0472 19.1702 37.032 19.0458 36.8511 18.7009C36.5463 18.1204 36.2584 18.0105 35.0424 18.0105H34.0313V15.7596C34.0313 13.5173 34.0305 13.508 33.8324 13.3228C33.6373 13.1405 33.5838 13.1369 31.0678 13.1369H28.5021L27.3136 11.9652L26.1251 10.7934V10.1696V9.54579H27.1168C27.923 9.54579 28.168 9.51535 28.4273 9.38291C28.9649 9.10836 29.0469 8.86938 29.0469 7.57924C29.0469 6.28909 28.9649 6.05011 28.4273 5.77557C28.1338 5.6256 27.8952 5.61268 25.4195 5.61303C22.9376 5.61328 22.7101 5.62568 22.4651 5.77437ZM30.9288 6.40529C30.3771 6.77192 30.3362 6.96088 30.3362 9.14307C30.336 10.9274 30.3506 11.1201 30.509 11.4291C30.6203 11.6463 30.8029 11.8279 31.0212 11.9387C31.3345 12.0978 31.5252 12.1109 33.522 12.1109C35.5852 12.1109 35.6989 12.1023 36.0176 11.9241C36.2304 11.8051 36.4139 11.6092 36.5235 11.3841C36.6797 11.063 36.6953 10.8563 36.6952 9.11263C36.6951 6.96396 36.6528 6.77098 36.1025 6.40529C35.8171 6.21565 35.7584 6.2112 33.5157 6.2112C31.2729 6.2112 31.2142 6.21565 30.9288 6.40529ZM12.1477 6.86546C11.8125 6.93694 11.6741 7.20123 11.5379 8.03035C11.4111 8.80277 11.396 8.83698 11.14 8.93308C10.9003 9.02311 10.8397 9.00866 10.5288 8.78738C9.25395 7.88003 9.2451 7.87986 8.3431 8.73728C7.63532 9.41001 7.35044 9.84812 7.44712 10.1151C7.47849 10.2017 7.69127 10.5317 7.92003 10.8484C8.14888 11.1651 8.33605 11.5017 8.33605 11.5966C8.33605 11.8943 8.051 12.0842 7.50951 12.1472C6.26609 12.2919 6.18762 12.3895 6.18762 13.7924C6.18762 15.1419 6.23704 15.2114 7.32801 15.3957C7.74257 15.4657 8.11657 15.5445 8.15928 15.5707C8.20199 15.597 8.26241 15.734 8.2936 15.8753C8.34198 16.0945 8.28535 16.2193 7.90783 16.726C7.45692 17.3311 7.36505 17.6443 7.54225 17.9714C7.5921 18.0634 7.94135 18.437 8.31835 18.8014C9.17265 19.6273 9.30697 19.6463 10.1249 19.0579C10.9137 18.4906 10.8827 18.5029 11.16 18.6455C11.4198 18.7793 11.4496 18.8631 11.5681 19.7942C11.6048 20.083 11.6985 20.336 11.8214 20.4782C12.0137 20.7006 12.0325 20.7038 13.1387 20.7038C14.5513 20.7038 14.5784 20.6845 14.7793 19.5362C14.9111 18.7823 14.9294 18.7421 15.1868 18.6375C15.4434 18.5334 15.4804 18.5458 15.964 18.9001C17.028 19.6793 17.0789 19.6751 18.0537 18.7261C19.1007 17.7066 19.1024 17.6894 18.2714 16.5208C17.9608 16.0839 17.9447 16.033 18.0434 15.7959C18.155 15.528 18.1561 15.5275 19.1641 15.356C20.0639 15.2029 20.1095 15.1268 20.1095 13.7781C20.1095 12.4141 20.0685 12.3486 19.1212 12.1978C18.1714 12.0466 18.1608 12.0424 18.0464 11.7676C17.9445 11.5229 17.959 11.4792 18.296 11.0184C18.8656 10.2392 18.9513 10.0313 18.8265 9.73141C18.7682 9.59162 18.3997 9.16556 18.0076 8.78473C17.1139 7.9168 17.0343 7.90782 16.106 8.57055C15.4427 9.04398 15.4332 9.04757 15.1667 8.92111C14.9115 8.80004 14.8918 8.75481 14.7866 8.05138C14.7057 7.51049 14.6221 7.2474 14.4783 7.08093C14.2876 6.86008 14.2486 6.85204 13.3066 6.8393C12.7706 6.83203 12.2491 6.84383 12.1477 6.86546ZM27.6719 7.57924V8.17775H25.4376H23.2032V7.57924V6.98072H25.4376H27.6719V7.57924ZM35.3203 9.16103V10.7428H33.5157H31.711V9.16103V7.57924H33.5157H35.3203V9.16103ZM13.443 8.37013C13.465 8.4759 13.5232 8.81107 13.5725 9.11477C13.6783 9.76809 13.7813 9.88173 14.5039 10.1429C14.8003 10.2499 15.0636 10.371 15.089 10.4119C15.1144 10.4528 15.2834 10.4863 15.4645 10.4863C15.7195 10.4863 15.912 10.3996 16.319 10.1016C16.6079 9.88993 16.8769 9.71679 16.9167 9.71679C16.9565 9.71679 17.0578 9.79238 17.142 9.88489C17.29 10.0476 17.2822 10.0698 16.8938 10.5898C16.6733 10.8851 16.4704 11.2156 16.4429 11.3242C16.4115 11.4491 16.489 11.7328 16.6533 12.0943C16.7965 12.4091 16.9395 12.7542 16.9711 12.8613C17.0577 13.1538 17.3403 13.294 18.0724 13.4072L18.7345 13.5096V13.7831V14.0566L18.0715 14.1547C17.3405 14.2629 17.0589 14.4009 16.9697 14.695C16.9372 14.8021 16.7957 15.1535 16.6553 15.4758C16.5078 15.8144 16.4197 16.1393 16.4466 16.2453C16.4722 16.3462 16.6716 16.6726 16.8898 16.9706C17.2699 17.4899 17.2803 17.5194 17.1377 17.676C17.056 17.766 16.9558 17.8395 16.9151 17.8395C16.8744 17.8395 16.602 17.6664 16.3097 17.4547C15.7154 17.0245 15.463 16.9824 14.9713 17.2315C14.796 17.3203 14.4887 17.4416 14.2886 17.5011C13.7956 17.6476 13.6752 17.8065 13.5714 18.4471C13.4174 19.3995 13.4267 19.3785 13.1558 19.3785C12.9193 19.3785 12.9042 19.3548 12.8136 18.8371C12.7615 18.5394 12.7189 18.2338 12.7189 18.1579C12.7189 17.9112 12.3435 17.6085 11.7932 17.4117C11.4968 17.3055 11.2335 17.1853 11.2081 17.1444C11.1826 17.1035 11.0245 17.07 10.8567 17.07C10.6271 17.07 10.4071 17.1744 9.96878 17.4916L9.38621 17.9133L9.2029 17.7191L9.0196 17.525L9.45126 16.936C9.91464 16.3035 9.96164 16.1014 9.74302 15.6807C9.66602 15.5327 9.53728 15.219 9.45693 14.9837C9.26701 14.4279 9.03842 14.2724 8.22863 14.1486L7.56262 14.0467V13.7761V13.5056L8.26627 13.4066C9.07563 13.2927 9.2848 13.1501 9.45014 12.5994C9.50961 12.4012 9.63139 12.0963 9.72059 11.9219C9.95915 11.4557 9.92735 11.302 9.45401 10.6335C9.05097 10.0644 9.03361 10.0184 9.16655 9.87232C9.24433 9.78682 9.34341 9.71679 9.38672 9.71679C9.42995 9.71679 9.70925 9.88993 10.0074 10.1016C10.747 10.6267 10.8263 10.6211 12.287 9.94004C12.5726 9.80691 12.6963 9.5369 12.8105 8.79764C12.9039 8.19306 12.9124 8.17775 13.1546 8.17775C13.3432 8.17775 13.4127 8.22418 13.443 8.37013ZM12.5702 10.6584C11.58 10.8624 10.6792 11.5711 10.2588 12.4766C10.0447 12.9378 10.0118 13.1111 10.0118 13.7781C10.0118 14.7906 10.2801 15.4098 11.0101 16.0822C11.6756 16.6951 12.2757 16.9281 13.1949 16.9304C13.7906 16.9317 13.9646 16.8952 14.4582 16.6654C15.5799 16.1432 16.2407 15.1908 16.3103 13.9965C16.3751 12.8813 15.9673 11.9521 15.1202 11.2852C14.4616 10.7666 13.3594 10.4957 12.5702 10.6584ZM13.9943 12.1903C15.1309 12.7703 15.2954 14.3574 14.3032 15.1712C13.4679 15.8562 12.2334 15.6619 11.6268 14.75C11.3149 14.281 11.2875 13.4544 11.5663 12.9231C12.0126 12.0731 13.1134 11.7408 13.9943 12.1903ZM26.3629 12.9032L27.2423 13.7811L26.34 14.6758L25.4376 15.5705L24.5782 14.7187C24.1055 14.2502 23.7188 13.8283 23.7188 13.7813C23.7188 13.6945 25.3526 12.0254 25.4375 12.0254C25.4628 12.0254 25.8793 12.4204 26.3629 12.9032ZM27.6719 19.9771V20.5756H25.4376H23.2032V19.9771V19.3785H25.4376H27.6719V19.9771ZM35.6641 19.9771V20.5756H33.3868H31.1094V19.9771V19.3785H33.3868H35.6641V19.9771ZM28.0157 32.2466V34.1704H22.0001H15.9845V32.2466V30.3228H22.0001H28.0157V32.2466ZM34.4711 35.6253C34.8959 35.7427 35.3205 36.0411 35.5546 36.3868C35.7294 36.6448 35.75 36.7779 35.75 37.6459V38.6166H22.0001H8.25012V37.6459C8.25012 36.592 8.34577 36.3244 8.85666 35.948C9.42256 35.5312 8.93813 35.5462 21.9571 35.5427C29.8787 35.5406 34.2692 35.5696 34.4711 35.6253Z" fill="#AA099A"/>
</svg>
