<svg width="40" height="40" viewBox="0 0 40 40" fill="none" xmlns="http://www.w3.org/2000/svg">
<path fill-rule="evenodd" clip-rule="evenodd" d="M16.7268 0.136719C16.6288 0.217656 16.2825 0.970312 15.878 1.98133L15.1948 3.68922L14.3357 3.99133C13.8632 4.1575 13.1163 4.46859 12.6759 4.68258L11.8754 5.07164L10.1216 4.32148C8.50906 3.6318 8.34961 3.57883 8.14313 3.66437C7.82867 3.79461 3.69469 7.9582 3.63383 8.20586C3.59773 8.35297 3.77672 8.85094 4.32867 10.1392L5.07203 11.8745L4.68281 12.6755C4.46867 13.1161 4.1575 13.8632 3.99133 14.3357L3.68922 15.1948L1.98133 15.878C0.970312 16.2825 0.217656 16.6288 0.136719 16.7268C0.0115625 16.8783 0 17.1554 0 20C0 22.8446 0.0115625 23.1217 0.136719 23.2732C0.217656 23.3712 0.970312 23.7175 1.98133 24.122L3.68922 24.8052L3.99133 25.6643C4.1575 26.1368 4.46867 26.8839 4.68281 27.3245L5.07203 28.1255L4.32867 29.8608C3.77672 31.1491 3.59773 31.647 3.63383 31.7941C3.69469 32.0418 7.82867 36.2054 8.14313 36.3356C8.34961 36.4212 8.50906 36.3682 10.1216 35.6785L11.8754 34.9284L12.6759 35.3174C13.1163 35.5314 13.8632 35.8425 14.3357 36.0087L15.1948 36.3108L15.878 38.0187C16.2825 39.0297 16.6288 39.7823 16.7268 39.8633C16.8783 39.9884 17.1554 40 20 40C22.8446 40 23.1217 39.9884 23.2732 39.8633C23.3712 39.7823 23.7175 39.0297 24.122 38.0187L24.8052 36.3108L25.6643 36.0087C26.1368 35.8425 26.8839 35.5313 27.3245 35.3172L28.1255 34.928L29.8608 35.6713C31.1491 36.2233 31.647 36.4023 31.7941 36.3662C32.0418 36.3053 36.2054 32.1713 36.3356 31.8569C36.4212 31.6504 36.3682 31.4909 35.6785 29.8784L34.9284 28.1246L35.3174 27.3241C35.5314 26.8837 35.8425 26.1368 36.0087 25.6643L36.3108 24.8052L38.0187 24.122C39.0297 23.7175 39.7823 23.3712 39.8633 23.2732C39.9884 23.1217 40 22.8446 40 20C40 17.1554 39.9884 16.8783 39.8633 16.7268C39.7823 16.6288 39.0297 16.2825 38.0187 15.878L36.3108 15.1948L36.0087 14.3357C35.8425 13.8632 35.5314 13.1163 35.3174 12.6759L34.9284 11.8754L35.6785 10.1216C36.3682 8.50906 36.4212 8.34961 36.3356 8.14313C36.2054 7.82867 32.0418 3.69469 31.7941 3.63383C31.647 3.59773 31.1491 3.77672 29.8608 4.32867L28.1255 5.07203L27.3245 4.68281C26.8839 4.46867 26.1368 4.1575 25.6643 3.99133L24.8052 3.68922L24.122 1.98133C23.7175 0.970312 23.3712 0.217656 23.2732 0.136719C23.1217 0.0115625 22.8446 0 20 0C17.1554 0 16.8783 0.0115625 16.7268 0.136719ZM23.039 2.44211C23.314 3.14 23.6359 3.9282 23.7543 4.19367L23.9696 4.67648L24.5434 4.84586C25.3302 5.0782 26.7198 5.65 27.3987 6.02078C27.7081 6.18984 28.0126 6.32812 28.0752 6.32812C28.1377 6.32812 28.9357 6.00836 29.8484 5.6175L31.508 4.90687L33.3005 6.69945L35.0931 8.49195L34.3825 10.1516C33.9916 11.0643 33.6719 11.8651 33.6719 11.9311C33.6719 11.9971 33.8098 12.3015 33.9784 12.6076C34.3475 13.2775 34.9212 14.6678 35.1541 15.4566L35.3235 16.0304L35.8063 16.2457C36.0718 16.3641 36.86 16.686 37.5579 16.961L38.8267 17.4609V20V22.5391L37.5579 23.039C36.86 23.314 36.0718 23.6359 35.8063 23.7543L35.3235 23.9696L35.1541 24.5434C34.9212 25.3322 34.3475 26.7225 33.9784 27.3924C33.8098 27.6985 33.6719 28.0029 33.6719 28.0689C33.6719 28.1349 33.9916 28.9357 34.3825 29.8484L35.0931 31.508L33.3005 33.3005L31.508 35.0931L29.8484 34.3825C28.9357 33.9916 28.1377 33.6719 28.0752 33.6719C28.0126 33.6719 27.7081 33.8102 27.3987 33.9792C26.7198 34.35 25.3302 34.9218 24.5434 35.1541L23.9696 35.3235L23.7543 35.8063C23.6359 36.0718 23.314 36.86 23.039 37.5579L22.5391 38.8267H20H17.4609L16.961 37.5579C16.686 36.86 16.3655 36.0748 16.2488 35.813L16.0366 35.3371L15.2717 35.0895C14.3509 34.7914 13.1815 34.2998 12.5316 33.9374C12.2696 33.7913 12.0059 33.6719 11.9456 33.6718C11.8853 33.6717 11.0849 33.9929 10.167 34.3854L8.49797 35.0991L6.70242 33.3036L4.90687 31.508L5.6175 29.8484C6.00836 28.9357 6.32812 28.1377 6.32812 28.0752C6.32812 28.0126 6.18984 27.7081 6.02078 27.3987C5.65 26.7198 5.0782 25.3302 4.84586 24.5434L4.67648 23.9696L4.19367 23.7543C3.9282 23.6359 3.14 23.314 2.44211 23.039L1.17328 22.5391V20V17.4609L2.44211 16.961C3.14 16.686 3.9282 16.3641 4.19367 16.2457L4.67648 16.0304L4.84586 15.4566C5.0782 14.6698 5.65 13.2802 6.02078 12.6013C6.18984 12.2919 6.32812 11.9874 6.32812 11.9248C6.32812 11.8623 6.00836 11.0643 5.6175 10.1516L4.90687 8.49195L6.70242 6.69641L8.49797 4.90086L10.167 5.61461C11.0849 6.00711 11.8853 6.32828 11.9456 6.3282C12.0059 6.32812 12.2696 6.20867 12.5316 6.06258C13.1815 5.70023 14.3509 5.20859 15.2717 4.91047L16.0366 4.66289L16.2488 4.18695C16.3655 3.92516 16.686 3.14 16.961 2.44211L17.4609 1.17328H20H22.5391L23.039 2.44211ZM18.5684 7.19187C11.8391 7.97398 6.80984 13.8492 7.13656 20.5469C7.40859 26.1237 11.1112 30.8388 16.4248 32.3752C23.7945 34.506 31.2913 29.8059 32.7075 22.1669C32.8745 21.2658 32.8971 18.907 32.7469 18.0469C32.0426 14.0128 29.7866 10.7635 26.3045 8.76781C24.0737 7.48922 21.1444 6.8925 18.5684 7.19187ZM22.3047 8.51742C26.9862 9.50016 30.4841 13.0081 31.4948 17.7344C31.6408 18.4168 31.6703 18.7976 31.6703 20C31.6703 21.2024 31.6408 21.5832 31.4948 22.2656C30.481 27.0061 27.0061 30.481 22.2656 31.4948C21.0829 31.7478 18.9171 31.7478 17.7344 31.4948C15.3196 30.9784 13.3341 29.8977 11.6663 28.192C10.8968 27.4051 10.7596 27.2391 10.2552 26.4844C9.41648 25.2295 8.84289 23.8455 8.50672 22.2656C8.26992 21.1527 8.2507 19.0834 8.46641 17.9297C9.32766 13.3232 12.8442 9.62719 17.3438 8.59937C18.5 8.33523 19.0094 8.28758 20.3125 8.32172C21.1334 8.3432 21.7751 8.40625 22.3047 8.51742ZM18.4116 9.57C16.6516 9.85805 14.9093 10.5917 13.6823 11.5616C13.3373 11.8343 13.2812 11.9166 13.2812 12.1502C13.2812 12.4797 13.5088 12.7344 13.8032 12.7344C13.9265 12.7344 14.2718 12.5612 14.643 12.3131C17.2237 10.5888 20.1617 10.1749 23.0172 11.1335C25.2933 11.8975 27.2813 13.641 28.3923 15.8473C29.0504 17.154 29.3359 18.4107 29.3359 20C29.3359 21.2305 29.2445 21.8401 28.9003 22.9027C28.447 24.3025 27.6923 25.5212 26.6068 26.6068C25.2423 27.9714 23.593 28.8486 21.6797 29.2276C20.9669 29.3688 19.0331 29.3688 18.3203 29.2276C16.4086 28.8489 14.7673 27.9761 13.3906 26.6059C11.6759 24.8995 10.7562 22.8002 10.6503 20.3516C10.5619 18.3045 11.0991 16.46 12.3131 14.643C12.5612 14.2718 12.7344 13.9265 12.7344 13.8032C12.7344 13.4858 12.4717 13.2675 12.1245 13.2963C11.869 13.3176 11.7888 13.3829 11.4238 13.8672C10.6385 14.9092 9.92906 16.5585 9.63195 18.0327C9.44258 18.9723 9.44391 21.0353 9.63437 21.9531C10.0638 24.022 10.9548 25.752 12.3438 27.2141C13.9238 28.8775 15.7529 29.8883 18.0469 30.366C18.9574 30.5556 21.0192 30.5555 21.972 30.3656C24.0763 29.9464 25.893 28.9702 27.4319 27.4317C28.9721 25.8918 29.9108 24.1392 30.366 21.9531C30.558 21.0317 30.558 18.9684 30.366 18.0469C30.0659 16.6055 29.5095 15.2649 28.7123 14.0625C28.2125 13.3088 26.6912 11.7875 25.9375 11.2877C24.7571 10.5052 23.3441 9.91187 22.0295 9.6468C21.1673 9.47297 19.2528 9.43234 18.4116 9.57ZM16.4453 13.7516C14.5977 14.8219 13.0245 15.773 12.9492 15.8652C12.823 16.0201 12.8125 16.338 12.8125 20.0043V23.9756L12.9883 24.1677C13.2207 24.4216 19.7932 28.2031 20.0021 28.2031C20.2127 28.2031 26.7812 24.423 27.0117 24.1692L27.1875 23.9756V20V16.0244L27.0117 15.8308C26.7641 15.558 20.203 11.7959 19.9845 11.8013C19.8855 11.8038 18.293 12.6814 16.4453 13.7516ZM22.6291 14.5757C24.0835 15.4165 25.2988 16.1292 25.3299 16.1595C25.3963 16.2242 20.1803 19.2523 20.0032 19.252C19.8535 19.2516 14.6053 16.229 14.6577 16.1733C14.6786 16.151 15.8804 15.4421 17.3283 14.598C18.7763 13.7538 19.9663 13.0595 19.9729 13.055C19.9795 13.0505 21.1748 13.7348 22.6291 14.5757ZM16.7188 18.7808L19.3359 20.294L19.3563 23.4333L19.3768 26.5726L18.9233 26.3136C18.6738 26.1712 17.4611 25.4746 16.2284 24.7656L13.987 23.4766L13.9857 20.3711C13.985 18.663 14.0108 17.2661 14.043 17.2666C14.0752 17.2671 15.2793 17.9485 16.7188 18.7808ZM26.0142 20.3711L26.0127 23.4766L23.7754 24.7656C22.5448 25.4746 21.3322 26.1712 21.0806 26.3136L20.6232 26.5726L20.6437 23.4343L20.6641 20.2961L23.2812 18.7829C24.7207 17.9506 25.9248 17.2687 25.957 17.2677C25.9893 17.2666 26.015 18.663 26.0142 20.3711Z" fill="#17A925"/>
</svg>
