<svg width="40" height="40" viewBox="0 0 40 40" fill="none" xmlns="http://www.w3.org/2000/svg">
<path d="M0.0122399 19.6853C0.183628 19.4758 0.342773 19.2477 0.532524 19.069C2.14847 17.4543 3.73381 15.8027 5.3926 14.2373C7.37555 12.3467 9.92789 11.1756 12.646 10.9093C13.9987 10.7737 15.376 10.8538 16.7409 10.8477C17.2612 10.8477 17.7815 10.8477 18.3018 10.897C18.4656 10.9205 18.6327 10.8965 18.7834 10.8277C18.9341 10.7589 19.0622 10.6483 19.1526 10.5087C19.9851 9.47334 20.8053 8.41331 21.7173 7.42724C25.3509 3.51654 30.2088 0.98174 35.4773 0.247419C36.2608 0.130324 37.0504 0.0625316 37.8462 0.00706517C39.2662 -0.0853789 40.0742 0.73429 39.9946 2.17642C39.7658 7.1998 37.9638 12.0214 34.8469 15.9506C33.3188 17.8256 31.546 19.484 29.5767 20.8809C29.4015 20.9938 29.2604 21.1529 29.1687 21.3409C29.0769 21.5288 29.0381 21.7385 29.0564 21.9471C29.0564 23.531 29.0564 25.121 28.9952 26.6987C28.8663 29.0689 28.0584 31.3507 26.6692 33.2684C26.0818 34.0684 25.4374 34.8243 24.7411 35.5302C23.419 36.9107 22.0662 38.2481 20.7073 39.5916C20.5185 39.7814 20.2776 39.9102 20.0157 39.9614C19.5688 40.0353 19.2444 39.684 19.2138 39.1602L18.9935 35.0002L18.7364 29.8172C18.7364 29.7001 18.7058 29.5892 18.6874 29.4597C18.569 29.596 18.4248 29.7071 18.2633 29.7866C18.1017 29.8661 17.926 29.9124 17.7465 29.9227C17.567 29.933 17.3872 29.9072 17.2177 29.8468C17.0482 29.7863 16.8923 29.6925 16.7593 29.5707C16.7042 29.5214 16.4961 29.6015 16.4043 29.6754C15.5963 30.3349 14.7883 31.0005 13.9987 31.6784C13.8415 31.8397 13.6337 31.9412 13.4106 31.9659C13.1875 31.9907 12.9628 31.937 12.7745 31.814C10.7798 30.8093 9.16406 29.1782 8.17154 27.1671C8.05976 26.9897 8.01046 26.7796 8.03155 26.5706C8.05264 26.3616 8.1429 26.1658 8.28783 26.0147C8.96726 25.2196 9.62833 24.4061 10.3078 23.6111C10.4608 23.4324 10.5036 23.2906 10.3506 23.1057C10.304 23.0416 10.2631 22.9736 10.2282 22.9024C9.80584 22.1628 9.81196 22.058 10.32 21.3925L10.4669 21.1891C10.0752 21.1583 9.72015 21.1274 9.36513 21.109C6.59844 20.9672 3.85623 20.8193 1.05893 20.6899C0.840024 20.7158 0.618647 20.6698 0.427814 20.5588C0.236982 20.4477 0.0869191 20.2775 0 20.0736L0.0122399 19.6853ZM13.6131 25.0656L14.011 24.6835L17.604 21.072C17.7266 20.9386 17.8667 20.8225 18.0202 20.7269C18.1643 20.6511 18.3285 20.6236 18.4892 20.6481C18.6498 20.6727 18.7985 20.7481 18.9138 20.8634C19.029 20.9787 19.1048 21.128 19.1301 21.2896C19.1554 21.4512 19.129 21.6168 19.0547 21.7622C18.9599 21.9188 18.8446 22.0618 18.7119 22.1875L15.1005 25.8298L14.7516 26.1995L17.5673 28.2826C17.7203 28.1655 17.8182 28.1039 17.91 28.0299C21.8765 24.9485 25.8674 21.867 29.8093 18.7239C32.3669 16.7661 34.465 14.2652 35.9546 11.3989C37.4441 8.53267 38.2884 5.37131 38.4277 2.13944C38.4644 1.60943 38.4276 1.52314 37.9012 1.5971C36.8056 1.70803 35.6977 1.78815 34.6143 2.00385C29.7887 2.91824 25.4179 5.46432 22.2254 9.22065C20.8543 10.8107 19.5627 12.4808 18.2406 14.114L11.8931 21.9841C11.7829 22.1197 11.6238 22.2306 11.7829 22.4525C12.3889 23.3091 12.9826 24.1596 13.6131 25.0656ZM17.4999 12.524V12.3576C16.5512 12.3576 15.6086 12.3576 14.6598 12.3576C13.1416 12.2995 11.6272 12.5459 10.2044 13.0823C8.78158 13.6187 7.47888 14.4345 6.37196 15.4822C5.14776 16.6285 3.97865 17.8549 2.78505 19.0444C2.75295 19.085 2.72429 19.1283 2.69936 19.1738C2.74485 19.1911 2.79205 19.2035 2.84014 19.2108C5.72314 19.3648 8.60613 19.5189 11.4952 19.6545C11.5852 19.6469 11.6728 19.6212 11.7527 19.5788C11.8326 19.5365 11.9033 19.4784 11.9604 19.408C12.7745 18.4342 13.5641 17.442 14.3537 16.4559C15.3882 15.1432 16.4471 13.8367 17.4999 12.524ZM20.689 37.3668C20.7992 37.2743 20.8604 37.2374 20.9155 37.1819C21.9438 36.1465 22.9844 35.1173 23.976 34.1004C25.7514 32.3907 26.9083 30.1325 27.2629 27.6848C27.4711 26.0455 27.4037 24.3692 27.4649 22.7052C27.4649 22.7052 27.4343 22.6743 27.4037 22.6435C27.35 22.672 27.2988 22.705 27.2507 22.7421C24.9676 24.5232 22.6783 26.3043 20.4074 28.0977C20.3446 28.1629 20.2954 28.2402 20.2628 28.3249C20.2302 28.4095 20.2149 28.5 20.2177 28.5908C20.3156 30.8135 20.4237 33.0383 20.5421 35.2652C20.6033 35.9247 20.6461 36.6149 20.689 37.3668ZM11.4279 24.7512C10.8831 25.4045 10.3629 26.0208 9.86093 26.6494C9.83361 26.7006 9.81931 26.7578 9.81931 26.8158C9.81931 26.8739 9.83361 26.9311 9.86093 26.9822C10.6064 28.3122 11.6985 29.4118 13.0194 30.1623C13.1051 30.2116 13.2703 30.2424 13.3254 30.1623C13.9681 29.6446 14.5986 29.1084 15.2658 28.5476C13.8128 27.4734 12.5204 26.1949 11.4279 24.7512Z" fill="#BB128C"/>
<path d="M0.0117188 39.0303C0.0667165 38.8841 0.158083 38.7546 0.277056 38.6542C0.39603 38.5539 0.53862 38.4859 0.69115 38.457C0.872228 38.431 1.05659 38.4707 1.21131 38.5689C1.36604 38.6671 1.48106 38.8176 1.53585 38.9933C1.59107 39.1617 1.58647 39.3442 1.52282 39.5095C1.45917 39.6748 1.34044 39.8127 1.18695 39.8995C1.02712 39.9896 0.84103 40.0204 0.661001 39.9866C0.480972 39.9528 0.318378 39.8566 0.201468 39.7146C0.133312 39.6214 0.0699794 39.5247 0.0117188 39.4249V39.0303Z" fill="#BB128C"/>
<path d="M2.58325 34.9285C2.52882 33.8635 2.86421 32.8154 3.52588 31.9826C3.85327 31.5957 4.23715 31.2612 4.66439 30.9904C5.31934 30.5898 6.01713 30.2632 6.70881 29.9304C6.80088 29.8635 6.90629 29.8175 7.01774 29.7957C7.12919 29.7739 7.24402 29.7768 7.35427 29.8041C7.46452 29.8314 7.56756 29.8825 7.65627 29.9538C7.74497 30.0252 7.81721 30.1151 7.86798 30.2173C7.91876 30.3196 7.94685 30.4317 7.95033 30.546C7.9538 30.6602 7.93258 30.7739 7.88811 30.8791C7.84364 30.9842 7.77701 31.0784 7.69281 31.1551C7.60861 31.2318 7.50886 31.2892 7.40048 31.3232C6.86183 31.6067 6.31094 31.8778 5.76005 32.149C5.31589 32.3429 4.93376 32.6569 4.65608 33.0561C4.37839 33.4554 4.21601 33.9243 4.18695 34.4108C4.18695 34.7374 4.13799 35.0641 4.12574 35.3907C4.1135 35.7174 4.28489 35.9639 4.66439 35.9454C5.13209 35.9416 5.59876 35.9004 6.05998 35.8221C6.43968 35.7512 6.79732 35.5908 7.1037 35.3541C7.41007 35.1174 7.6565 34.811 7.82283 34.4601C8.135 33.8438 8.43493 33.2275 8.73486 32.6112C8.77581 32.4918 8.84598 32.3848 8.93889 32.2999C9.0318 32.215 9.14445 32.155 9.26644 32.1255C9.38844 32.0961 9.51584 32.098 9.6369 32.1312C9.75795 32.1644 9.86874 32.2277 9.95906 32.3154C10.0516 32.4092 10.1221 32.5226 10.1656 32.6474C10.209 32.7721 10.2242 32.9051 10.21 33.0365C9.63464 34.3307 9.19393 35.7112 7.99422 36.6171C7.17185 37.2061 6.18119 37.509 5.17243 37.48C4.69503 37.5099 4.21617 37.4535 3.75848 37.3136C2.85258 37.0116 2.50368 36.2042 2.58325 34.9285Z" fill="#BB128C"/>
<path d="M28.7807 8.17969C29.4398 8.17847 30.0845 8.37423 30.633 8.74215C31.1815 9.11007 31.6093 9.63362 31.862 10.2465C32.1148 10.8594 32.1813 11.534 32.053 12.1849C31.9247 12.8358 31.6075 13.4338 31.1414 13.903C30.6753 14.3722 30.0815 14.6917 29.435 14.8208C28.7885 14.95 28.1185 14.8831 27.5098 14.6286C26.9011 14.3741 26.3811 13.9434 26.0157 13.3911C25.6502 12.8388 25.4558 12.1898 25.457 11.5262C25.4619 10.6401 25.8136 9.79176 26.4359 9.16522C27.0581 8.53868 27.9007 8.18455 28.7807 8.17969ZM28.8236 9.75124C28.592 9.74133 28.3609 9.77829 28.1438 9.85995C27.9267 9.9416 27.7281 10.0663 27.5597 10.2266C27.3913 10.387 27.2566 10.5797 27.1636 10.7934C27.0705 11.0071 27.021 11.2374 27.0179 11.4707C27.0081 11.7053 27.0446 11.9396 27.1253 12.1599C27.2061 12.3803 27.3294 12.5823 27.4883 12.7542C27.6471 12.9262 27.8383 13.0647 28.0507 13.1618C28.2631 13.2588 28.4925 13.3125 28.7256 13.3196C29.1966 13.3329 29.6538 13.1584 29.9977 12.8341C30.3416 12.5098 30.5444 12.0619 30.562 11.5878C30.5701 11.3516 30.5314 11.1162 30.448 10.8953C30.3646 10.6744 30.2382 10.4726 30.0763 10.3015C29.9144 10.1304 29.7202 9.99365 29.5051 9.89916C29.2899 9.80467 29.0583 9.75438 28.8236 9.75124Z" fill="#BB128C"/>
<path d="M20.8662 19.9322C20.6638 19.929 20.4708 19.8457 20.3288 19.7004C20.1868 19.5551 20.1072 19.3594 20.1072 19.1555C20.1 19.0472 20.1153 18.9386 20.1519 18.8366C20.1886 18.7345 20.246 18.6413 20.3204 18.5628C20.3948 18.4843 20.4845 18.4222 20.584 18.3805C20.6835 18.3388 20.7905 18.3183 20.8982 18.3205C21.0059 18.3226 21.112 18.3473 21.2098 18.3929C21.3076 18.4386 21.3948 18.5042 21.4661 18.5856C21.5373 18.667 21.591 18.7625 21.6236 18.8659C21.6563 18.9693 21.6672 19.0784 21.6558 19.1863C21.6478 19.3902 21.5605 19.5827 21.4128 19.7223C21.2651 19.8618 21.0687 19.9373 20.8662 19.9322Z" fill="#BB128C"/>
</svg>
