<svg width="41" height="40" viewBox="0 0 41 40" fill="none" xmlns="http://www.w3.org/2000/svg">
<path d="M0 25.6749C0.447279 25.4331 0.894557 25.1974 1.32941 24.9494L6.76509 21.8486L7.1751 21.6191L7.79632 22.6424L6.93903 23.1013L1.49714 26.2021C1.40343 26.245 1.32516 26.3155 1.27294 26.4043C1.22072 26.493 1.19707 26.5956 1.20517 26.6982C1.20517 29.1788 1.20517 31.7091 1.20517 34.2145C1.19668 34.3108 1.21844 34.4073 1.26743 34.4906C1.31641 34.574 1.39019 34.64 1.47851 34.6796C3.6652 35.9199 5.84775 37.1788 8.02616 38.4563C8.10412 38.5119 8.1975 38.5418 8.29328 38.5418C8.38907 38.5418 8.48246 38.5119 8.56041 38.4563L14.8969 34.8036L15.3193 34.568L15.9405 35.5974L14.1203 36.6517C12.2815 37.706 10.4469 38.7644 8.61632 39.8269C8.52645 39.8934 8.41756 39.9292 8.30571 39.9292C8.19386 39.9292 8.08498 39.8934 7.9951 39.8269C5.51022 38.3881 3.02534 36.9576 0.540459 35.5354L0.0124271 35.2501L0 25.6749Z" fill="#FC7754"/>
<path d="M41.0009 35.349C40.7587 35.4669 40.504 35.5785 40.2679 35.7149L33.0618 39.87C32.8754 39.9816 32.7325 40.0684 32.4902 39.9258C30.1172 38.5428 27.7379 37.1785 25.3586 35.8079C25.3142 35.7811 25.2726 35.75 25.2344 35.7149L25.8121 34.7041C25.9426 34.7723 26.0606 34.8281 26.1724 34.8963C28.2432 36.087 30.3139 37.2839 32.3846 38.487C32.4766 38.5483 32.5847 38.5811 32.6952 38.5811C32.8058 38.5811 32.9139 38.5483 33.0058 38.487C35.1428 37.2467 37.2902 36.0064 39.4479 34.7661C39.5523 34.7163 39.6385 34.6351 39.6942 34.5338C39.7499 34.4326 39.7724 34.3164 39.7585 34.2017C39.7585 31.7211 39.7585 29.2715 39.7585 26.8095C39.7692 26.6874 39.7406 26.565 39.677 26.4602C39.6133 26.3554 39.5178 26.2735 39.4044 26.2265C37.4724 25.1227 35.5466 24.0064 33.6146 22.8963C33.4904 22.8281 33.3724 22.7475 33.2233 22.6607L33.8445 21.625L40.9823 25.7428L41.0009 35.349Z" fill="#FC7754"/>
<path d="M12.3809 31.6094H14.8657C14.9217 31.4853 14.9651 31.3799 15.021 31.2745C15.1797 30.9059 15.4382 30.5889 15.7674 30.3588C16.0966 30.1288 16.4835 29.9949 16.8847 29.9721C17.4308 29.938 17.9786 29.938 18.5247 29.9721C18.9122 29.9889 19.2872 30.1141 19.6068 30.3334C19.9265 30.5527 20.1779 30.8573 20.3325 31.2125C20.4691 31.5039 20.612 31.6404 20.9537 31.5287L21.1028 31.2001C21.2335 30.8743 21.4473 30.5884 21.7231 30.3708C21.9988 30.1532 22.3268 30.0115 22.6745 29.9597C23.3643 29.8884 24.0596 29.8884 24.7494 29.9597C25.1147 29.9924 25.4637 30.1257 25.7576 30.3447C26.0516 30.5636 26.2789 30.8598 26.4142 31.2001C26.4476 31.3119 26.5213 31.4075 26.6211 31.4682C26.721 31.5289 26.8398 31.5505 26.9547 31.5287C27.6442 31.5287 28.3338 31.5287 29.042 31.5287V32.7318C28.34 32.7318 27.638 32.7318 26.9361 32.7318C26.8279 32.7133 26.7167 32.7345 26.6231 32.7915C26.5294 32.8485 26.4596 32.9375 26.4266 33.0419C26.2668 33.4336 25.9934 33.7687 25.6413 34.0041C25.2893 34.2395 24.8749 34.3644 24.4512 34.3628C24.1219 34.3628 23.7865 34.3628 23.451 34.3628C22.9156 34.4285 22.3741 34.305 21.9202 34.014C21.4664 33.7229 21.1289 33.2825 20.9661 32.769C20.6493 32.6698 20.4754 32.769 20.3449 33.0853C20.1989 33.4366 19.9564 33.7394 19.6453 33.9589C19.3342 34.1784 18.9673 34.3055 18.5869 34.3256C18.0018 34.3721 17.4139 34.3721 16.8288 34.3256C16.4391 34.3039 16.0637 34.1715 15.7468 33.9441C15.4299 33.7167 15.1845 33.4037 15.0397 33.0419C15.0064 32.9313 14.9337 32.8367 14.8352 32.7761C14.7367 32.7155 14.6194 32.6932 14.5054 32.7132C13.8159 32.7132 13.1201 32.7132 12.3995 32.7132L12.3809 31.6094ZM22.3204 32.7939C22.8608 33.414 24.8053 33.3768 25.1159 32.7939L24.5257 32.7566V31.5969L25.1469 31.5535C24.6437 30.9334 22.7739 30.9334 22.3328 31.5535H22.954V32.7256L22.3204 32.7939ZM16.8785 31.6032V32.7752L16.2573 32.8125C16.7853 33.4326 18.6428 33.4326 19.0776 32.8125L18.4564 32.769V31.6156L19.0776 31.5721C18.5806 30.952 16.717 30.952 16.2821 31.5721L16.8785 31.6032Z" fill="#FC7754"/>
<path d="M33.1681 25.8555L32.1306 26.4757C31.7703 25.8555 31.4162 25.2354 31.0808 24.6152C31.0413 24.5062 30.9634 24.4152 30.8617 24.3593C30.7599 24.3034 30.6413 24.2864 30.5279 24.3113C30.094 24.3631 29.6545 24.2824 29.2674 24.0798C28.8804 23.8772 28.5639 23.5622 28.3598 23.1764C28.1486 22.823 27.9312 22.4695 27.7386 22.1036C27.5235 21.7243 27.4236 21.2907 27.4512 20.8557C27.4788 20.4207 27.6326 20.0032 27.8939 19.654C27.9349 19.5974 27.9634 19.5327 27.9773 19.4642C27.9912 19.3958 27.9903 19.3252 27.9747 19.2571C27.9277 19.1962 27.8676 19.1466 27.7987 19.1123C27.7299 19.0779 27.6541 19.0596 27.5771 19.0586C27.1108 19.1147 26.6386 19.0256 26.225 18.8036C25.8114 18.5816 25.4765 18.2375 25.2662 17.8183C25.086 17.4896 24.8872 17.1982 24.7133 16.8447C24.4922 16.4681 24.391 16.0334 24.4232 15.5981C24.4553 15.1628 24.6193 14.7475 24.8934 14.4075C24.9572 14.3368 24.9924 14.2452 24.9924 14.1501C24.9924 14.055 24.9572 13.9634 24.8934 13.8927C24.5269 13.2726 24.179 12.6524 23.8125 12.0323L24.8499 11.4121C25.204 12.0323 25.5581 12.609 25.8812 13.2168C25.9233 13.3317 26.0056 13.4275 26.1129 13.4868C26.2201 13.546 26.3452 13.5646 26.4651 13.5392C26.8862 13.4899 27.3125 13.5668 27.6897 13.7601C28.0669 13.9533 28.3781 14.2542 28.5835 14.6245C28.8071 14.9904 29.0183 15.3563 29.2047 15.7346C29.4288 16.1166 29.5337 16.5567 29.5061 16.9985C29.4784 17.4404 29.3194 17.864 29.0494 18.2152C29.0092 18.271 28.9827 18.3354 28.9719 18.4032C28.9611 18.471 28.9664 18.5405 28.9873 18.6059C29.0364 18.6655 29.098 18.7136 29.1678 18.7468C29.2375 18.78 29.3138 18.7976 29.3911 18.7982C29.8308 18.7426 30.277 18.8199 30.6723 19.0199C31.0676 19.22 31.3938 19.5337 31.6088 19.9206C31.8325 20.2865 32.0437 20.6524 32.23 21.0307C32.4452 21.4029 32.5442 21.8307 32.5143 22.2594C32.4844 22.6881 32.3271 23.0981 32.0623 23.4369C31.9954 23.5146 31.9586 23.6136 31.9586 23.716C31.9586 23.8184 31.9954 23.9174 32.0623 23.9951C32.4537 24.5718 32.7891 25.192 33.1681 25.8555ZM25.7445 15.3439C25.4712 16.1067 26.3657 17.6881 27.1547 17.8245L26.8689 17.254L27.8815 16.6834L28.2294 17.2106C28.5338 16.485 27.5585 14.8044 26.8254 14.7796L27.1174 15.3501L26.1048 15.9268L25.7445 15.3439ZM29.857 20.0261L30.1303 20.5966L29.1239 21.1734L28.7574 20.6152C28.5089 21.4214 29.4283 22.9656 30.1738 23.0958L29.888 22.5191L30.9068 21.9485L31.2609 22.4943C31.5094 21.6819 30.59 20.1005 29.857 20.0013V20.0261Z" fill="#FC7754"/>
<path d="M8.91474 26.4438L7.87109 25.8237C8.23761 25.2035 8.5855 24.5834 8.95823 23.9632C9.02014 23.8812 9.05044 23.7797 9.0436 23.6772C9.03675 23.5748 8.99323 23.4782 8.92096 23.4051C8.66054 23.0718 8.50452 22.6692 8.47247 22.2477C8.44042 21.8263 8.53377 21.4048 8.7408 21.0361C8.95201 20.6206 9.18808 20.2175 9.43657 19.7958C9.65446 19.434 9.97138 19.142 10.35 18.9541C10.7286 18.7662 11.1532 18.6903 11.5736 18.7353C11.7284 18.7367 11.8792 18.6865 12.0022 18.5927C12.1948 18.4252 12.0457 18.2702 11.9339 18.1152C11.6751 17.772 11.5225 17.3608 11.4949 16.9321C11.4673 16.5035 11.5659 16.0762 11.7786 15.7028C11.9774 15.3245 12.1948 14.9586 12.3998 14.5927C12.6046 14.2147 12.9184 13.9068 13.3005 13.7088C13.6826 13.5109 14.1155 13.4321 14.543 13.4826C14.6573 13.5073 14.7766 13.491 14.8799 13.4365C14.9833 13.3821 15.0642 13.293 15.1083 13.1849C15.4313 12.5648 15.7854 11.988 16.152 11.3555L17.1894 11.9446C16.8726 12.5028 16.5682 13.0485 16.2514 13.5694C16.1354 13.7052 16.0717 13.8778 16.0717 14.0562C16.0717 14.2347 16.1354 14.4073 16.2514 14.5431C16.4737 14.8641 16.5995 15.242 16.6138 15.6321C16.6281 16.0221 16.5304 16.4082 16.3321 16.7446C16.1395 17.1229 15.9221 17.4888 15.7109 17.8547C15.5024 18.2463 15.1804 18.566 14.7869 18.7718C14.3934 18.9776 13.9468 19.06 13.5056 19.0082C13.3192 19.0082 13.1018 18.9524 13.0583 19.2004C13.0414 19.3522 13.0764 19.5052 13.1577 19.6345C13.4038 19.9696 13.5512 20.3667 13.583 20.781C13.6148 21.1952 13.5299 21.6101 13.3378 21.9787C13.1515 22.3632 12.9278 22.7291 12.7166 23.095C12.5052 23.4998 12.1744 23.8299 11.7688 24.0406C11.3632 24.2514 10.9025 24.3326 10.4492 24.2733C10.3619 24.2506 10.2692 24.2608 10.189 24.302C10.1087 24.3431 10.0466 24.4124 10.0143 24.4966C9.66021 25.1601 9.29368 25.7741 8.91474 26.4438ZM12.2818 20.6206L11.909 21.1725L10.9027 20.5896L11.2008 19.9694C10.387 20.1431 9.46141 21.8299 9.8093 22.4066L10.1448 21.8981L11.1511 22.5183L10.8592 23.0888C11.6419 22.9276 12.5302 21.3772 12.2818 20.6206ZM14.2324 14.7229C13.4062 14.9028 12.493 16.54 12.8346 17.1663L13.1577 16.6516L14.1703 17.2718L13.8783 17.8361C14.6424 17.7183 15.5494 16.1679 15.2947 15.3555L14.9282 15.9074L13.9156 15.3245L14.2324 14.7229Z" fill="#FC7754"/>
<path d="M13.4506 12.8498H12.2703C12.2703 12.7196 12.2703 12.5893 12.2703 12.4591C12.2703 9.97846 12.2703 7.53506 12.2703 5.06684C12.2588 4.95175 12.2838 4.83595 12.3417 4.7358C12.3997 4.63565 12.4877 4.55621 12.5934 4.5087C15.1445 3.0534 17.6936 1.58364 20.2406 0.0994021C20.3312 0.0347544 20.4398 0 20.5512 0C20.6626 0 20.7712 0.0347544 20.8618 0.0994021C23.4026 1.57537 25.962 3.03893 28.5028 4.5211C28.5837 4.56583 28.6535 4.62801 28.7073 4.70311C28.761 4.77821 28.7973 4.86434 28.8134 4.95521C28.8134 7.51645 28.8134 10.0715 28.8134 12.6265C28.8134 12.6947 28.8134 12.7568 28.8134 12.8436H27.6331V12.3847C27.6331 10.1893 27.6331 7.98777 27.6331 5.79242C27.6468 5.66728 27.6221 5.54092 27.5622 5.43014C27.5023 5.31937 27.41 5.22942 27.2976 5.17226C25.1399 3.93195 22.9926 2.69164 20.8556 1.45134C20.7713 1.39123 20.6703 1.35892 20.5667 1.35892C20.4631 1.35892 20.3621 1.39123 20.2779 1.45134C18.1077 2.69164 15.9376 3.94229 13.7675 5.20327C13.6727 5.24597 13.5939 5.31763 13.5425 5.40792C13.4912 5.4982 13.4699 5.60244 13.4817 5.7056C13.4817 7.92575 13.4817 10.1521 13.4817 12.3785L13.4506 12.8498Z" fill="#FC7754"/>
<path d="M14.0458 26.4671L14.667 27.4966L14.2446 27.7447C12.559 28.7162 10.8734 29.6857 9.18785 30.6532C9.09422 30.6974 9.01654 30.7693 8.9654 30.8592C8.91426 30.9491 8.89215 31.0526 8.90209 31.1555C8.90209 33.0966 8.90209 35.0439 8.90209 36.985V37.4501H7.69692V36.9912C7.69692 35.0604 7.69692 33.1297 7.69692 31.1989C7.71031 31.0835 7.6869 30.9669 7.63002 30.8656C7.57313 30.7642 7.48568 30.6834 7.3801 30.6346C5.6966 29.6857 4.03172 28.7121 2.35442 27.7509L1.92578 27.4966L2.547 26.4609L6.23705 28.5881C6.82721 28.923 7.42359 29.2454 8.00132 29.6113C8.0923 29.6751 8.20076 29.7093 8.31193 29.7093C8.4231 29.7093 8.53157 29.6751 8.62254 29.6113C10.2998 28.6315 11.9896 27.664 13.6731 26.6966L14.0458 26.4671Z" fill="#FC7754"/>
<path d="M14.1562 6.48063L14.7775 5.45117L17.2624 6.87753C18.2563 7.44807 19.2503 8.01241 20.238 8.59536C20.329 8.65914 20.4374 8.69336 20.5486 8.69336C20.6598 8.69336 20.7682 8.65914 20.8592 8.59536C22.5427 7.60931 24.2324 6.64807 25.916 5.67443L26.3011 5.46357L26.9223 6.48683L26.5185 6.72249C24.835 7.69613 23.1515 8.67597 21.4618 9.63721C21.3621 9.68215 21.2791 9.75722 21.2245 9.85181C21.1699 9.9464 21.1464 10.0557 21.1574 10.1643C21.1574 12.0992 21.1574 14.0279 21.1574 15.9628V16.4341H19.9212V15.969C19.9212 14.0341 19.9212 12.1054 19.9212 10.1705C19.9345 10.0608 19.9122 9.94968 19.8573 9.85363C19.8025 9.75757 19.7182 9.68169 19.6168 9.63721C17.9271 8.67804 16.2394 7.70854 14.5538 6.72869L14.1562 6.48063Z" fill="#FC7754"/>
<path d="M26.3633 27.535L26.9845 26.5117L28.6991 27.4978C29.9415 28.2171 31.2212 28.9365 32.4699 29.6745C32.5542 29.7346 32.6552 29.7669 32.7587 29.7669C32.8623 29.7669 32.9633 29.7346 33.0476 29.6745C34.7249 28.6947 36.4146 27.721 38.0981 26.7536L38.5206 26.5179L39.1107 27.535L38.7566 27.7582C37.0607 28.7381 35.371 29.7179 33.6688 30.6854C33.5621 30.7337 33.4731 30.814 33.4141 30.9152C33.3551 31.0163 33.3291 31.1332 33.3396 31.2497C33.3396 33.1784 33.3396 35.1133 33.3396 37.0419V37.4947H32.1344V37.073C32.1344 35.1257 32.1344 33.1846 32.1344 31.2373C32.1445 31.1216 32.1182 31.0057 32.0592 30.9057C32.0002 30.8056 31.9114 30.7265 31.8052 30.6792C30.1154 29.7159 28.4299 28.7463 26.7484 27.7706L26.3633 27.535Z" fill="#FC7754"/>
<path d="M23.24 16.057L23.8612 17.0926L22.8548 17.6756C22.1777 18.0663 21.5006 18.4694 20.811 18.8477C20.7464 18.8839 20.6753 18.9069 20.6017 18.9154C20.5281 18.9239 20.4535 18.9178 20.3824 18.8973C19.3387 18.3143 18.3013 17.7128 17.2266 17.0926L17.8478 16.0508C18.6492 16.5159 19.4381 16.95 20.2084 17.4213C20.313 17.4947 20.4378 17.5341 20.5656 17.5341C20.6935 17.5341 20.8182 17.4947 20.9228 17.4213C21.6372 16.9624 22.4138 16.5283 23.24 16.057Z" fill="#FC7754"/>
<path d="M15.3508 29.1105C15.3508 28.2981 15.3508 27.5167 15.3508 26.7353C15.3626 26.6321 15.3413 26.5279 15.2899 26.4376C15.2386 26.3473 15.1598 26.2757 15.065 26.233C14.2885 25.805 13.5182 25.3523 12.7168 24.8872L13.338 23.8516L16.4441 25.6376C16.4813 25.6632 16.5126 25.6963 16.5362 25.7348C16.5597 25.7732 16.5749 25.8162 16.5808 25.8609C16.5808 26.9337 16.5808 28.0066 16.5808 29.1105H15.3508Z" fill="#FC7754"/>
<path d="M25.6482 28.9874H24.4927C24.4701 28.8979 24.4556 28.8066 24.4492 28.7145C24.4492 27.8215 24.4492 26.9347 24.4492 26.0416C24.4489 25.9737 24.4632 25.9064 24.4911 25.8444C24.5189 25.7823 24.5597 25.727 24.6107 25.6819C25.6233 25.0618 26.6546 24.4912 27.7168 23.8711L28.3381 24.9068C27.5864 25.3409 26.8782 25.7812 26.1389 26.1471C25.9689 26.2129 25.8268 26.3352 25.7363 26.4932C25.6458 26.6513 25.6125 26.8356 25.642 27.0153C25.6792 27.6726 25.6482 28.3114 25.6482 28.9874Z" fill="#FC7754"/>
<path d="M6.98746 35.573L6.36624 36.6087L4.65789 35.6288C3.87515 35.1823 3.09241 34.7234 2.30346 34.2831C2.19334 34.243 2.10046 34.1661 2.04048 34.0656C1.9805 33.9651 1.95709 33.8469 1.97421 33.7312C1.97421 33.4521 1.97421 33.173 1.97421 32.8691H3.21665C3.05513 33.3653 3.39681 33.4893 3.72606 33.7064C4.81319 34.3079 5.88169 34.9343 6.98746 35.573Z" fill="#FC7754"/>
<path d="M24.4837 4.52696L23.8624 5.56262C22.825 4.94246 21.8186 4.37812 20.7998 3.80758C20.6218 3.74101 20.436 3.69725 20.2469 3.67734L20.191 3.78277L19.6133 2.80913L19.6754 2.72851C19.8854 2.51363 20.1701 2.38741 20.4706 2.37587C20.7711 2.36433 21.0646 2.46836 21.2906 2.66649C22.3094 3.34246 23.3903 3.8758 24.4837 4.52696Z" fill="#FC7754"/>
<path d="M37.8634 33.1035H39.0003C39.0003 33.4074 39.0003 33.7237 39.0003 34.0027C38.9928 34.046 38.9761 34.0871 38.9515 34.1235C38.9269 34.1598 38.8948 34.1905 38.8574 34.2136L35.0431 36.4151L34.4219 35.3795C35.4531 34.7593 36.4719 34.2012 37.4721 33.6058C37.624 33.4892 37.7561 33.3489 37.8634 33.1903V33.1035Z" fill="#FC7754"/>
<path d="M17.8789 3.77055L18.9163 3.15039L19.5376 4.18605L18.5001 4.8062L17.8789 3.77055Z" fill="#FC7754"/>
<path d="M17.1839 4.17383L17.8051 5.20949L16.7677 5.82964L16.1465 4.79398L17.1839 4.17383Z" fill="#FC7754"/>
<path d="M2.03711 28.8555H3.21122V30.009H2.06195L2.03711 28.8555Z" fill="#FC7754"/>
<path d="M37.8086 30.2625V29.1152H38.9641V30.2625H37.8086Z" fill="#FC7754"/>
<path d="M3.2114 32.0168H2.06836V30.8633H3.2114V32.0168Z" fill="#FC7754"/>
<path d="M38.9712 32.2668H37.8281V31.1133H38.9712V32.2668Z" fill="#FC7754"/>
</svg>
