<svg width="18" height="18" viewBox="0 0 18 18" fill="none" xmlns="http://www.w3.org/2000/svg">
<path d="M1.60577 4.73094L9 0.46188L16.3942 4.73094V13.2691L9 17.5381L1.60577 13.2691V4.73094Z" stroke="#410EAD" stroke-width="0.8"/>
<path fill-rule="evenodd" clip-rule="evenodd" d="M8.43335 5.26287C8.14887 5.40745 7.2657 5.85909 6.47076 6.26654L5.02541 7.00734L4.56281 7.71928C4.05016 8.5082 4 8.59371 4 8.67866C4 8.82029 4.04703 8.86316 4.50019 9.13458L4.92776 9.39067L4.93752 10.564C4.94705 11.7095 4.94824 11.7386 4.9876 11.7936C5.04731 11.877 8.90609 13.9992 8.99949 14C9.0624 14.0006 10.1473 13.3917 12.6005 11.9789C13.0168 11.7392 13.0625 11.6973 13.0626 11.5549C13.0627 11.4704 12.9971 11.3567 12.9254 11.3172C12.8038 11.2501 12.7944 11.2548 10.9924 12.2877C10.0524 12.8265 9.27674 13.2674 9.26868 13.2674C9.26061 13.2675 9.25403 12.5509 9.25403 11.6751C9.25403 10.7921 9.26147 10.0913 9.27073 10.102C9.27991 10.1127 9.44622 10.3287 9.64033 10.5821C10.004 11.0569 10.0373 11.0886 10.1722 11.0886C10.2063 11.0886 10.8632 10.708 12.0199 10.0179C13.007 9.42905 13.8423 8.9295 13.8761 8.90781C13.9454 8.8633 14.0003 8.75898 14 8.67251C13.9997 8.59892 13.9986 8.59701 13.4543 7.70175C13.2036 7.28933 12.9799 6.93937 12.9573 6.92405C12.8356 6.84148 9.05402 5 9.00621 5C8.97467 5 8.72679 5.11375 8.43335 5.26287ZM10.6306 6.3639C11.5063 6.79485 12.2228 7.15292 12.2228 7.15958C12.2228 7.16624 11.4973 7.58609 10.6106 8.09257L8.99826 9.01342L7.37898 8.12234C6.48838 7.63225 5.76147 7.22946 5.76365 7.22724C5.78799 7.20256 8.99676 5.57239 9.01437 5.57575C9.0276 5.57828 9.7549 5.93295 10.6306 6.3639ZM13.0406 8.0203C13.2131 8.30388 13.3588 8.54899 13.3645 8.56502C13.3732 8.58982 12.0924 9.36849 10.327 10.4116L10.2148 10.4779L9.80383 9.93907L9.39286 9.40022L9.49435 9.3406C9.55017 9.30779 10.0265 9.03527 10.5529 8.73501C11.0793 8.43473 11.778 8.03532 12.1057 7.84745C12.4333 7.65958 12.7071 7.50559 12.7141 7.50529C12.7212 7.50496 12.8681 7.73672 13.0406 8.0203ZM7.05976 8.55239L8.60579 9.40224L8.19518 9.94017L7.78458 10.4781L7.72339 10.4395C7.68973 10.4182 6.98103 9.99548 6.14849 9.50008C5.31595 9.00468 4.63199 8.5968 4.62857 8.59367C4.62515 8.59053 4.76937 8.358 4.94907 8.07695L5.27577 7.56591L5.39474 7.63423C5.46017 7.6718 6.20943 8.08497 7.05976 8.55239ZM6.66608 10.425C7.39375 10.8587 7.79821 11.0886 7.83372 11.0886C7.96232 11.0887 8.00773 11.0446 8.3767 10.5615L8.73644 10.0905L8.74156 10.8833C8.74435 11.3194 8.74435 12.0382 8.74156 12.4807L8.73644 13.2852L7.09578 12.383L5.45511 11.4808L5.45001 10.5917L5.44494 9.70268L5.49884 9.73206C5.52851 9.74821 6.05376 10.0601 6.66608 10.425ZM12.6573 10.2536C12.4032 10.4151 12.5118 10.8238 12.8088 10.8238C12.9754 10.8238 13.1016 10.6922 13.1016 10.5185C13.1016 10.3447 12.9754 10.2132 12.8088 10.2132C12.7555 10.2132 12.6959 10.2291 12.6573 10.2536Z" fill="#410EAD"/>
</svg>
