<svg width="40" height="40" viewBox="0 0 40 40" fill="none" xmlns="http://www.w3.org/2000/svg">
<path d="M38.5502 15.7151H33.6004C33.3515 14.917 33.029 14.1438 32.6372 13.4054L36.1352 9.90533C36.2677 9.77265 36.3724 9.61488 36.4433 9.44124C36.5142 9.2676 36.5498 9.08157 36.548 8.89401C36.5463 8.51617 36.3983 8.15369 36.1352 7.88269L32.0895 3.83464C31.816 3.5764 31.4541 3.43256 31.0781 3.43256C30.702 3.43256 30.3402 3.5764 30.0667 3.83464L26.5687 7.33469C25.8306 6.94282 25.0578 6.62016 24.2603 6.37086V1.42921C24.2592 1.05049 24.1084 0.687603 23.8407 0.41981C23.5731 0.152017 23.2104 0.00108983 22.8319 0H17.1212C16.7427 0.00108983 16.38 0.152017 16.1124 0.41981C15.8447 0.687603 15.6939 1.05049 15.6928 1.42921V6.38188C14.8952 6.63094 14.1224 6.9536 13.3844 7.3457L9.88644 3.84565C9.61291 3.58742 9.25108 3.44357 8.87502 3.44357C8.49896 3.44357 8.13714 3.58742 7.86362 3.84565L3.83031 7.8937C3.69719 8.0261 3.59182 8.18375 3.52035 8.3574C3.44887 8.53105 3.41274 8.71723 3.41406 8.90503C3.4167 9.28335 3.56591 9.6459 3.83031 9.91635L7.32831 13.4164C6.93666 14.1549 6.6142 14.9281 6.36506 15.7261H1.42836C1.04987 15.7272 0.687204 15.8782 0.419568 16.1459C0.151933 16.4137 0.00108919 16.7766 0 17.1553V22.8694C0.00264254 23.2478 0.151874 23.6103 0.416272 23.8808C0.54791 24.0149 0.705321 24.1209 0.879032 24.1925C1.05274 24.2641 1.23915 24.2997 1.427 24.2973H6.37676C6.62568 25.0954 6.94814 25.8686 7.34001 26.607L3.84203 30.1071C3.70891 30.2395 3.60352 30.3971 3.53204 30.5707C3.46057 30.7444 3.42443 30.9306 3.42575 31.1184C3.4284 31.4967 3.57763 31.8592 3.84203 32.1297L7.88768 36.1654C8.16121 36.4236 8.52304 36.5674 8.8991 36.5674C9.27516 36.5674 9.637 36.4236 9.91052 36.1654L13.4085 32.6653C14.1466 33.0572 14.9193 33.3798 15.7169 33.6291V38.5708C15.718 38.9495 15.8688 39.3124 16.1365 39.5802C16.4041 39.848 16.7668 39.9989 17.1453 40H22.8801C23.2586 39.9989 23.6213 39.848 23.8889 39.5802C24.1565 39.3124 24.3074 38.9495 24.3084 38.5708C24.3063 38.4751 24.2983 38.3797 24.2844 38.2851V33.6181C25.082 33.3691 25.8548 33.0464 26.5927 32.6543L30.0907 36.1544C30.2231 36.2875 30.3806 36.393 30.5542 36.4645C30.7277 36.536 30.9138 36.5722 31.1015 36.5709C31.4796 36.5682 31.8419 36.4189 32.1122 36.1544L36.1579 32.1063C36.291 31.9739 36.3964 31.8163 36.4678 31.6426C36.5393 31.4689 36.5755 31.2828 36.5742 31.095C36.5715 30.7166 36.4223 30.3541 36.1579 30.0836L32.6599 26.5836C33.0515 25.8451 33.374 25.0719 33.6231 24.2739H38.5729C38.951 24.2712 39.3133 24.1219 39.5836 23.8574C39.7177 23.7256 39.8236 23.5681 39.8952 23.3943C39.9667 23.2205 40.0023 23.034 39.9999 22.846V17.1319C39.9972 16.7536 39.848 16.3911 39.5836 16.1206C39.4473 15.9876 39.2857 15.8831 39.1085 15.8132C38.9313 15.7434 38.742 15.7095 38.5516 15.7137L38.5502 15.7151ZM37.1218 21.4292H32.5058C32.1827 21.429 31.8692 21.5383 31.6162 21.7394C31.3633 21.9404 31.186 22.2213 31.1132 22.5362C30.8237 23.7875 30.3295 24.9822 29.6504 26.0721C29.4773 26.3467 29.403 26.6722 29.4398 26.9947C29.4766 27.3173 29.6222 27.6177 29.8527 27.8462L33.1126 31.1081L31.0898 33.1321L27.8298 29.8702C27.6003 29.6416 27.3003 29.4973 26.9785 29.4605C26.6567 29.4238 26.3319 29.4968 26.0568 29.6678C24.9703 30.3526 23.7753 30.8475 22.523 31.1315C22.2072 31.2021 21.925 31.379 21.7237 31.6325C21.5224 31.8861 21.414 32.201 21.4166 32.5249V37.1436H18.5612V32.5249C18.5615 32.2017 18.4522 31.8879 18.2513 31.6348C18.0503 31.3818 17.7696 31.2043 17.4549 31.1315C16.2044 30.8418 15.0103 30.3473 13.9211 29.6678C13.6467 29.4946 13.3214 29.4203 12.999 29.4571C12.6766 29.4939 12.3764 29.6396 12.148 29.8702L8.8881 33.1321L6.86526 31.1081L10.1252 27.8462C10.356 27.6179 10.5019 27.3175 10.5387 26.9948C10.5754 26.6721 10.501 26.3466 10.3275 26.0721C9.64314 24.9849 9.14849 23.7893 8.86471 22.5362C8.79419 22.2201 8.61746 21.9378 8.36403 21.7363C8.11059 21.5349 7.79579 21.4265 7.47213 21.4292H2.85605V18.5722H7.47213C7.79515 18.5724 8.10869 18.4631 8.36161 18.262C8.61453 18.0609 8.79189 17.78 8.86471 17.4651C9.15417 16.2139 9.64843 15.0192 10.3275 13.9293C10.5007 13.6547 10.5751 13.3292 10.5383 13.0066C10.5015 12.684 10.3558 12.3836 10.1252 12.1552L6.86526 8.89333L8.8881 6.8693L12.148 10.1311C12.3776 10.3598 12.6776 10.5041 12.9994 10.5409C13.3212 10.5776 13.646 10.5045 13.9211 10.3335C15.0076 9.64878 16.2026 9.15385 17.4549 8.86992C17.7707 8.79924 18.0528 8.62238 18.2541 8.36882C18.4555 8.11527 18.5639 7.80033 18.5612 7.4765V2.85773H21.4166V7.4765C21.4164 7.79972 21.5257 8.11346 21.7266 8.36653C21.9275 8.6196 22.2083 8.79705 22.523 8.86992C23.7735 9.15953 24.9675 9.65408 26.0568 10.3335C26.3312 10.5067 26.6565 10.5811 26.9789 10.5443C27.3012 10.5075 27.6014 10.3617 27.8298 10.1311L31.0898 6.8693L33.1126 8.89333L29.8527 12.1552C29.6219 12.3835 29.476 12.6839 29.4392 13.0066C29.4024 13.3292 29.4769 13.6548 29.6504 13.9293C30.3348 15.0164 30.8294 16.2121 31.1132 17.4651C31.1837 17.7812 31.3604 18.0636 31.6138 18.265C31.8673 18.4665 32.1821 18.5749 32.5058 18.5722H37.1218V21.4292Z" fill="#1992FB"/>
</svg>
