<svg width="26" height="40" viewBox="0 0 26 40" fill="none" xmlns="http://www.w3.org/2000/svg">
<path d="M22.6675 0C22.9209 0.0754988 23.1798 0.14093 23.4276 0.226495C24.1626 0.469707 24.8005 0.909419 25.2583 1.48842C25.7161 2.06743 25.9726 2.75892 25.9945 3.47295C25.9945 3.57361 25.9945 3.67931 25.9945 3.78501V36.2495C26.04 37.03 25.8023 37.8023 25.3183 38.4467C24.8342 39.0911 24.1309 39.5714 23.3175 39.8131C22.8977 39.9377 22.4589 40.0006 22.0175 39.9993C16.0025 39.9993 9.98932 39.9993 3.97798 39.9993C3.45189 40.0089 2.9291 39.9212 2.44111 39.7413C1.95311 39.5615 1.50999 39.2932 1.13843 38.9528C0.766867 38.6123 0.474547 38.2067 0.279074 37.7603C0.0836012 37.3138 -0.0109832 36.8359 0.00101383 36.3552C0.00101383 25.4431 0.00101383 14.5377 0.00101383 3.63905C-0.0149624 2.80296 0.291343 1.98836 0.866331 1.33781C1.44132 0.68727 2.24837 0.242217 3.14623 0.0805339C3.21171 0.0645076 3.27466 0.0408237 3.33351 0.0100687L22.6675 0ZM1.73612 19.9669C1.73612 25.3995 1.73612 30.8287 1.73612 36.2545C1.70657 36.5484 1.74807 36.8446 1.85769 37.1221C1.9673 37.3997 2.14234 37.6518 2.37042 37.8607C2.59849 38.0696 2.87403 38.2301 3.17753 38.3309C3.48103 38.4317 3.80506 38.4703 4.1267 38.444H21.9129C22.1119 38.45 22.3112 38.4382 22.5078 38.4088C23.0466 38.318 23.5292 38.0471 23.8612 37.6487C24.1932 37.2504 24.3509 36.7534 24.3035 36.2545C24.3035 25.423 24.3035 14.5914 24.3035 3.75984C24.3035 3.66924 24.3035 3.57361 24.3035 3.48301C24.2774 2.97692 24.0435 2.49841 23.6483 2.14295C23.2532 1.7875 22.7259 1.58125 22.1718 1.56534C21.6209 1.56534 21.0701 1.56534 20.5193 1.56534C20.2604 1.56534 20.1778 1.66601 20.1117 1.85727C19.8913 2.50656 19.6545 3.14578 19.4286 3.79004C19.3834 3.9696 19.2702 4.12875 19.1088 4.2393C18.9475 4.34985 18.7486 4.40467 18.5473 4.39403H7.44267C7.24889 4.40475 7.057 4.35401 6.89943 4.25038C6.74186 4.14675 6.62827 3.99659 6.57787 3.82527C6.43466 3.42765 6.29696 3.03002 6.15374 2.63742C6.01053 2.24483 5.99951 1.82204 5.73511 1.63077C5.47071 1.43951 4.96946 1.57038 4.57287 1.56031C4.44618 1.56031 4.31949 1.56031 4.1928 1.56031C2.5899 1.56031 1.71408 2.3606 1.71408 3.83031L1.73612 19.9669ZM7.58038 1.56534C7.71809 1.9529 7.81723 2.29013 7.96596 2.61226C8.0027 2.66511 8.05197 2.70974 8.11013 2.74285C8.16829 2.77595 8.23385 2.79669 8.30196 2.80352C11.4362 2.80352 14.5704 2.80352 17.7046 2.80352C17.8147 2.80352 17.991 2.75319 18.0185 2.68273C18.1728 2.32537 18.2829 1.95794 18.4206 1.56534H7.58038Z" fill="#959817"/>
<path d="M20.6641 18.1391C19.9425 18.4008 19.9425 18.4008 19.9425 19.0501C19.9425 20.3286 19.9425 21.602 19.9425 22.8804C19.9653 23.0876 19.9122 23.2959 19.7916 23.4726C19.671 23.6493 19.4897 23.7844 19.276 23.8569C17.3481 24.6589 15.4221 25.4675 13.4979 26.2829C13.3406 26.3579 13.1658 26.3971 12.9884 26.3971C12.8109 26.3971 12.6361 26.3579 12.4788 26.2829C10.5546 25.4675 8.62857 24.6589 6.70068 23.8569C6.49954 23.7896 6.32786 23.6643 6.21158 23.4999C6.0953 23.3356 6.04077 23.1411 6.05621 22.9459C6.05621 21.5517 6.05621 20.1625 6.05621 18.7683C6.07151 18.6613 6.04587 18.5527 5.98364 18.461C5.9214 18.3693 5.8264 18.3 5.7147 18.2649C5.16388 18.0384 4.65161 17.7616 4.11731 17.5301C3.95351 17.4733 3.8128 17.3718 3.71426 17.2395C3.61572 17.1071 3.56413 16.9503 3.56648 16.7902C3.56657 16.6397 3.61522 16.4926 3.70633 16.3673C3.79745 16.242 3.92699 16.144 4.07875 16.0855C6.89898 14.7769 9.70819 13.4582 12.5339 12.1747C12.6735 12.1213 12.8233 12.0938 12.9746 12.0938C13.1259 12.0938 13.2757 12.1213 13.4152 12.1747C16.23 13.4532 19.0282 14.7668 21.8319 16.0654C22.0032 16.1345 22.1475 16.2493 22.2459 16.3949C22.3442 16.5405 22.3919 16.7099 22.3827 16.8808C22.3827 18.1542 22.3827 19.4327 22.3827 20.7061C22.3964 20.816 22.3845 20.9273 22.3478 21.0327C22.3112 21.1381 22.2506 21.2352 22.1699 21.3177C22.0893 21.4002 21.9906 21.4663 21.8801 21.5115C21.7696 21.5567 21.65 21.58 21.5289 21.58C21.4079 21.58 21.2882 21.5567 21.1777 21.5115C21.0673 21.4663 20.9685 21.4002 20.8879 21.3177C20.8073 21.2352 20.7467 21.1381 20.71 21.0327C20.6733 20.9273 20.6614 20.816 20.6751 20.7061C20.6751 19.8756 20.6751 19.0401 20.6751 18.1894C20.7137 18.1743 20.6806 18.1743 20.6641 18.1391ZM19.6947 16.8003C17.4638 15.7634 15.3376 14.787 13.2004 13.7803C13.1237 13.7577 13.0428 13.7492 12.9625 13.7552C12.8821 13.7612 12.8039 13.7818 12.7322 13.8155C11.8289 14.2232 10.931 14.646 10.0277 15.0638L6.39222 16.7701C6.45636 16.8184 6.5245 16.8622 6.59602 16.9009C8.66162 17.8623 10.7217 18.8236 12.7983 19.7699C12.8882 19.7983 12.9836 19.8094 13.0784 19.8025C13.1732 19.7955 13.2654 19.7707 13.3492 19.7296C14.4508 19.2263 15.5525 18.723 16.6541 18.2196L19.6947 16.8003ZM18.2295 19.2464L17.7943 19.4327C16.3842 20.082 14.9686 20.7262 13.564 21.3856C13.3917 21.4771 13.1959 21.5253 12.9966 21.5253C12.7973 21.5253 12.6016 21.4771 12.4293 21.3856C11.5369 20.9527 10.6336 20.545 9.73022 20.1273L7.7803 19.2263C7.7803 20.3336 7.7803 21.3856 7.7803 22.4325C7.7803 22.5231 7.92903 22.6388 8.03919 22.6841C9.61088 23.3552 11.1881 24.0263 12.7708 24.6974C12.9087 24.7479 13.0625 24.7479 13.2004 24.6974C14.7941 24.0263 16.3842 23.3552 17.9706 22.6841C18.0697 22.6388 18.2074 22.5331 18.2074 22.4576C18.235 21.3956 18.2295 20.3487 18.2295 19.2464Z" fill="#959817"/>
<path d="M13.0004 36.9098C12.4849 36.9138 11.9797 36.7779 11.5487 36.5194C11.1178 36.2609 10.7804 35.8914 10.5794 35.4576C10.3783 35.0239 10.3226 34.5453 10.4193 34.0826C10.516 33.6199 10.7607 33.1938 11.1226 32.8583C11.4844 32.5227 11.947 32.2928 12.4519 32.1976C12.9568 32.1024 13.4812 32.1462 13.9589 32.3234C14.4365 32.5007 14.8459 32.8035 15.1351 33.1934C15.4244 33.5833 15.5805 34.0429 15.5838 34.514C15.5874 34.8266 15.5234 35.1367 15.3953 35.4266C15.2673 35.7165 15.0777 35.9803 14.8376 36.203C14.5975 36.4257 14.3116 36.6028 13.9963 36.7241C13.681 36.8454 13.3425 36.9085 13.0004 36.9098ZM13.0004 35.3394C13.1182 35.3422 13.2353 35.323 13.3447 35.283C13.454 35.2429 13.5533 35.1829 13.6363 35.1065C13.7194 35.0302 13.7844 34.9391 13.8276 34.839C13.8708 34.7388 13.8911 34.6316 13.8873 34.524C13.8873 34.3091 13.7938 34.103 13.6275 33.951C13.4612 33.7991 13.2356 33.7137 13.0004 33.7137C12.7652 33.7137 12.5397 33.7991 12.3734 33.951C12.207 34.103 12.1136 34.3091 12.1136 34.524C12.1098 34.6316 12.1301 34.7388 12.1733 34.839C12.2164 34.9391 12.2815 35.0302 12.3646 35.1065C12.4476 35.1829 12.5468 35.2429 12.6562 35.283C12.7655 35.323 12.8827 35.3422 13.0004 35.3394Z" fill="#959817"/>
</svg>
