<svg width="28" height="40" viewBox="0 0 28 40" fill="none" xmlns="http://www.w3.org/2000/svg">
<path d="M26.5443 0H1.45572C1.06967 0 0.69943 0.150596 0.426449 0.418659C0.153469 0.686722 0 1.05032 0 1.42942V38.5706C0 38.9497 0.153469 39.3133 0.426449 39.5813C0.69943 39.8494 1.06967 40 1.45572 40H26.5443C26.9303 40 27.3006 39.8494 27.5736 39.5813C27.8465 39.3133 28 38.9497 28 38.5706V1.42648C27.9992 1.04789 27.8454 0.685045 27.5725 0.417618C27.2996 0.150191 26.9298 -8.01427e-07 26.5443 0ZM2.91129 7.78578H25.0893V32.2872H2.91129V7.78578ZM25.0893 2.85881V4.92758H2.91129V2.85881H25.0893ZM2.91129 37.1412V35.1454H25.0893V37.1412H2.91129Z" fill="#FB5A5A"/>
<path d="M9.17352 17.6691C8.48637 17.6691 7.81466 17.4691 7.24331 17.0942C6.67196 16.7193 6.22663 16.1864 5.96367 15.563C5.70071 14.9396 5.63193 14.2537 5.76598 13.5918C5.90004 12.93 6.23094 12.3221 6.71683 11.845C7.20272 11.3678 7.82176 11.0429 8.49571 10.9113C9.16966 10.7796 9.86822 10.8472 10.5031 11.1054C11.1379 11.3636 11.6805 11.8009 12.0623 12.362C12.4441 12.923 12.6478 13.5827 12.6478 14.2574C12.6478 15.1623 12.2818 16.0301 11.6302 16.6699C10.9787 17.3097 10.095 17.6691 9.17352 17.6691ZM9.17352 12.2528C8.7694 12.2528 8.37434 12.3704 8.03833 12.5909C7.70232 12.8114 7.44044 13.1247 7.28579 13.4914C7.13115 13.858 7.09069 14.2614 7.16953 14.6506C7.24837 15.0399 7.44298 15.3974 7.72873 15.678C8.01449 15.9586 8.37854 16.1497 8.77489 16.2271C9.17125 16.3045 9.58206 16.2648 9.95542 16.1129C10.3288 15.9611 10.6479 15.7039 10.8724 15.3739C11.0969 15.0439 11.2168 14.656 11.2168 14.2592C11.216 13.7274 11.0004 13.2175 10.6174 12.8415C10.2344 12.4655 9.71513 12.2539 9.17352 12.2533V12.2528Z" fill="#FB5A5A"/>
<path d="M12.8781 22.5192H12.8463C12.6571 22.5109 12.4789 22.4292 12.3509 22.292C12.223 22.1548 12.1558 21.9733 12.1641 21.7874C12.1641 21.768 12.2353 19.6775 11.1146 18.4892C10.8616 18.2272 10.5562 18.0191 10.2177 17.8782C9.87908 17.7372 9.51456 17.6662 9.14682 17.6698C8.7907 17.6421 8.43256 17.687 8.09495 17.8017C7.75735 17.9164 7.44756 18.0984 7.18502 18.3363C6.11218 19.3163 5.81806 21.1998 5.79529 21.8433C5.78476 22.0265 5.70158 22.1984 5.56357 22.3221C5.42555 22.4458 5.24369 22.5115 5.05694 22.5051C4.87019 22.4987 4.69342 22.4208 4.5645 22.2879C4.43558 22.1551 4.36478 21.978 4.36725 21.7945C4.37144 21.6769 4.48704 18.8828 6.21161 17.3093C6.61155 16.9456 7.08274 16.6657 7.59644 16.4867C8.11014 16.3077 8.65561 16.2333 9.19954 16.2681C9.75685 16.2704 10.3078 16.3847 10.8184 16.6039C11.3291 16.8231 11.7887 17.1426 12.1689 17.5428C13.6934 19.1657 13.5969 21.741 13.5915 21.8492C13.5832 22.0296 13.5044 22.1998 13.3715 22.3246C13.2387 22.4494 13.062 22.5191 12.8781 22.5192Z" fill="#FB5A5A"/>
<path d="M9.77647 26.4429C9.31193 26.4429 8.85782 26.3077 8.47157 26.0542C8.08532 25.8008 7.7843 25.4406 7.60653 25.0192C7.42876 24.5977 7.38224 24.1339 7.47286 23.6865C7.56349 23.2391 7.78717 22.8282 8.11565 22.5056C8.44412 22.1831 8.86264 21.9634 9.31825 21.8744C9.77386 21.7854 10.2461 21.8311 10.6753 22.0057C11.1045 22.1802 11.4713 22.4759 11.7294 22.8551C11.9875 23.2344 12.1252 23.6803 12.1252 24.1365C12.1246 24.748 11.8769 25.3343 11.4366 25.7667C10.9963 26.1991 10.3992 26.4423 9.77647 26.4429ZM9.77647 23.233C9.59461 23.233 9.41685 23.286 9.26564 23.3852C9.11443 23.4844 8.99657 23.6254 8.92697 23.7904C8.85738 23.9554 8.83918 24.1369 8.87465 24.3121C8.91013 24.4872 8.99771 24.6481 9.12631 24.7744C9.2549 24.9007 9.41874 24.9867 9.5971 25.0215C9.77547 25.0563 9.96032 25.0385 10.1283 24.9701C10.2964 24.9018 10.44 24.786 10.541 24.6376C10.642 24.4891 10.696 24.3145 10.696 24.1359C10.6955 23.8967 10.5984 23.6673 10.4261 23.4982C10.2537 23.3291 10.0201 23.2339 9.77647 23.2336V23.233Z" fill="#FB5A5A"/>
<path d="M12.1715 29.5198C11.9854 29.5198 11.8067 29.4484 11.6734 29.321C11.54 29.1936 11.4626 29.0201 11.4574 28.8375C11.4544 28.7528 11.3616 26.704 9.74544 26.6452C8.1826 26.5863 8.06518 28.7528 8.06099 28.8445C8.05062 29.028 7.96735 29.2002 7.82912 29.324C7.69088 29.4479 7.5087 29.5136 7.32169 29.5069C7.13468 29.5003 6.95778 29.4219 6.82899 29.2886C6.7002 29.1553 6.6298 28.9777 6.63291 28.794C6.66883 27.7331 7.08947 26.7196 7.81899 25.9363C8.08467 25.6961 8.39687 25.511 8.73701 25.3918C9.07714 25.2727 9.43824 25.222 9.79874 25.2428C12.1631 25.3287 12.8537 27.6063 12.8861 28.7981C12.8888 28.8902 12.873 28.9819 12.8395 29.0681C12.8061 29.1542 12.7557 29.233 12.6912 29.3C12.6267 29.367 12.5495 29.4208 12.4638 29.4584C12.3781 29.4961 12.2856 29.5167 12.1918 29.5192L12.1715 29.5198Z" fill="#FB5A5A"/>
<path d="M17.1241 26.4429C16.6596 26.4429 16.2055 26.3077 15.8192 26.0542C15.433 25.8008 15.132 25.4406 14.9542 25.0192C14.7764 24.5977 14.7299 24.1339 14.8205 23.6865C14.9111 23.2391 15.1348 22.8282 15.4633 22.5056C15.7918 22.1831 16.2103 21.9634 16.6659 21.8744C17.1215 21.7854 17.5938 21.8311 18.0229 22.0057C18.4521 22.1802 18.819 22.4759 19.077 22.8551C19.3351 23.2344 19.4729 23.6803 19.4729 24.1365C19.4723 24.748 19.2246 25.3343 18.7843 25.7667C18.3439 26.1991 17.7469 26.4423 17.1241 26.4429ZM17.1241 23.233C16.9423 23.233 16.7645 23.286 16.6133 23.3852C16.4621 23.4844 16.3442 23.6254 16.2746 23.7904C16.205 23.9554 16.1868 24.1369 16.2223 24.3121C16.2578 24.4872 16.3454 24.6481 16.474 24.7744C16.6026 24.9007 16.7664 24.9867 16.9448 25.0215C17.1231 25.0563 17.308 25.0385 17.476 24.9701C17.644 24.9018 17.7876 24.786 17.8887 24.6376C17.9897 24.4891 18.0436 24.3145 18.0436 24.1359C18.0432 23.8967 17.9461 23.6673 17.7737 23.4982C17.6014 23.3291 17.3678 23.2339 17.1241 23.2336V23.233Z" fill="#FB5A5A"/>
<path d="M19.523 29.5199C19.337 29.5198 19.1583 29.4484 19.0249 29.321C18.8916 29.1936 18.8141 29.0201 18.809 28.8375C18.806 28.7528 18.7137 26.704 17.097 26.6452C15.5336 26.5864 15.4161 28.7528 15.4126 28.8446C15.4022 29.0281 15.3189 29.2002 15.1807 29.3241C15.0424 29.4479 14.8603 29.5136 14.6732 29.507C14.4862 29.5004 14.3093 29.4219 14.1806 29.2886C14.0518 29.1553 13.9814 28.9777 13.9845 28.794C14.0204 27.7331 14.4411 26.7197 15.1706 25.9364C15.4362 25.6961 15.7484 25.5109 16.0885 25.3917C16.4287 25.2726 16.7898 25.222 17.1503 25.2429C19.5146 25.3288 20.2053 27.6063 20.2376 28.7981C20.243 28.9841 20.1728 29.1646 20.0426 29.2999C19.9124 29.4351 19.7328 29.514 19.5434 29.5193L19.523 29.5199Z" fill="#FB5A5A"/>
<path d="M18.2036 20.2765C18.0445 20.2767 17.8899 20.2248 17.7643 20.1289C17.6387 20.033 17.5494 19.8986 17.5105 19.7471L16.963 17.6077H14.531C14.3415 17.6077 14.1597 17.5338 14.0257 17.4022C13.8917 17.2705 13.8164 17.0921 13.8164 16.9059V11.7096C13.8164 11.5234 13.8917 11.3449 14.0257 11.2133C14.1597 11.0817 14.3415 11.0078 14.531 11.0078H22.4537C22.6404 11.0078 22.8198 11.0795 22.9533 11.2077C23.0869 11.3359 23.1641 11.5103 23.1683 11.6937L23.2881 16.8901C23.2902 16.9836 23.2733 17.0765 23.2384 17.1635C23.2035 17.2505 23.1512 17.3297 23.0846 17.3966C23.018 17.4634 22.9385 17.5165 22.8507 17.5528C22.763 17.5891 22.6687 17.6077 22.5735 17.6077H21.016L18.7296 20.0512C18.6626 20.1224 18.5812 20.1793 18.4907 20.2181C18.4001 20.2568 18.3024 20.2767 18.2036 20.2765ZM15.2457 16.203H17.522C17.681 16.2029 17.8355 16.255 17.9611 16.3509C18.0866 16.4467 18.1759 16.581 18.215 16.7324L18.5744 18.1406L20.1768 16.4283C20.2437 16.3567 20.3249 16.2996 20.4155 16.2605C20.506 16.2214 20.6038 16.2013 20.7027 16.2013H21.8408L21.7528 12.4084H15.2457V16.203Z" fill="#FB5A5A"/>
</svg>
