<svg width="40" height="40" viewBox="0 0 40 40" fill="none" xmlns="http://www.w3.org/2000/svg">
<path d="M14.9262 0.0117349C15.8672 0.176114 16.8081 0.270055 17.7256 0.516624C20.4391 1.2582 22.8686 2.79231 24.7024 4.92206C26.5362 7.05181 27.6907 9.68001 28.0175 12.4693C28.381 15.4622 27.7575 18.4919 26.2414 21.0993C26.1473 21.2519 26.065 21.4163 25.9591 21.5924L28.4292 23.835C31.8284 26.9347 35.2395 30.0227 38.627 33.1342C39.0334 33.4797 39.3645 33.9047 39.5999 34.383C39.8353 34.8613 39.9699 35.3827 39.9955 35.915C40.0211 36.4472 39.9371 36.9791 39.7487 37.4777C39.5603 37.9763 39.2715 38.431 38.9001 38.8138C38.5287 39.1966 38.0826 39.4993 37.5894 39.7032C37.0963 39.9072 36.5664 40.008 36.0327 39.9995C35.4989 39.991 34.9726 39.8734 34.4861 39.6538C33.9997 39.4343 33.5636 39.1175 33.2046 38.7231C30.5346 35.8347 27.8881 32.9228 25.2299 30.0227C24.0536 28.6842 22.7833 27.3574 21.56 26.0072C21.0778 26.2537 20.6191 26.5238 20.1368 26.7469C18.3658 27.5915 16.4378 28.0582 14.4759 28.1171C12.514 28.1759 10.5614 27.8256 8.74275 27.0886C6.92413 26.3516 5.27946 25.2441 3.91383 23.8368C2.54821 22.4295 1.49163 20.7533 0.811593 18.9154C0.361052 17.7207 0.0876365 16.4668 0 15.1934C0 15.0994 0 15.0172 0 14.9233V13.2912C0.0940973 12.622 0.152908 11.9527 0.294054 11.2952C0.807815 8.63168 2.10128 6.18005 4.01089 4.25038C5.72941 2.45689 7.91135 1.17279 10.3154 0.540094C11.2682 0.281783 12.2444 0.176121 13.2207 0L14.9262 0.0117349ZM1.55261 14.1014C1.55028 16.5756 2.28328 18.9948 3.65883 21.053C5.03439 23.1111 6.99067 24.7157 9.28011 25.6636C11.5695 26.6115 14.0892 26.8601 16.5203 26.378C18.9513 25.8959 21.1844 24.7047 22.937 22.9552C24.6896 21.2057 25.8829 18.9765 26.3659 16.5498C26.8489 14.123 26.5998 11.6078 25.6502 9.32241C24.7007 7.03702 23.0932 5.0842 21.0314 3.71107C18.9696 2.33794 16.5461 1.60624 14.0676 1.60856C10.7602 1.62696 7.59296 2.94426 5.25095 5.27554C2.90894 7.60683 1.58037 10.7647 1.55261 14.0662V14.1014ZM25.6651 28.0737L25.7827 28.2145L34.322 37.6077C34.418 37.7152 34.5201 37.8171 34.6278 37.9129C34.8647 38.1318 35.1441 38.2997 35.4487 38.4062C35.7533 38.5126 36.0766 38.5554 36.3985 38.5318C36.7204 38.5081 37.034 38.4186 37.3197 38.2688C37.6055 38.1191 37.8573 37.9122 38.0595 37.6611C38.2617 37.41 38.41 37.12 38.4952 36.8092C38.5803 36.4984 38.6004 36.1735 38.5544 35.8546C38.5083 35.5357 38.397 35.2297 38.2274 34.9556C38.0577 34.6815 37.8334 34.4452 37.5684 34.2614L29.4525 26.8173L28.0881 25.6432L25.6651 28.0737ZM26.8413 24.469L25.2299 23.0014L23.0068 25.197L24.4888 26.8173L26.8413 24.469Z" fill="#821577"/>
<path d="M14.1504 3.08789C15.0326 3.22879 15.9265 3.34621 16.8087 3.52233C16.923 3.53091 17.0342 3.5643 17.1343 3.62019C17.2344 3.67608 17.3211 3.75313 17.3883 3.84593C17.4555 3.93874 17.5016 4.04506 17.5234 4.15749C17.5452 4.26992 17.5421 4.38575 17.5144 4.49687C17.4842 4.60395 17.4319 4.70354 17.361 4.78928C17.29 4.87502 17.2018 4.94501 17.1021 4.99476C17.0025 5.0445 16.8935 5.0729 16.7822 5.07815C16.6709 5.0834 16.5597 5.06537 16.4558 5.02523C15.2055 4.68913 13.8983 4.61998 12.6194 4.8223C11.3405 5.02461 10.1188 5.49384 9.03386 6.19937C7.77997 6.97366 6.73382 8.04109 5.98581 9.30943C5.23781 10.5778 4.81045 12.0089 4.74067 13.479C4.63705 15.5282 5.20843 17.5549 6.36748 19.2493C7.52653 20.9438 9.20948 22.2128 11.1592 22.8624C13.1088 23.5121 15.218 23.5066 17.1642 22.8468C19.1105 22.187 20.7868 20.9093 21.937 19.2088C23.0177 17.5889 23.5606 15.6707 23.4889 13.7258C23.4171 11.7808 22.7343 9.90765 21.5371 8.37151C21.4441 8.25773 21.3614 8.13593 21.29 8.00753C21.1911 7.84467 21.1568 7.65078 21.1938 7.46395C21.2308 7.27711 21.3365 7.11083 21.49 6.99777C21.5643 6.93701 21.6501 6.89177 21.7423 6.86473C21.8344 6.83769 21.9311 6.8294 22.0265 6.84035C22.122 6.8513 22.2142 6.88126 22.2979 6.92848C22.3815 6.97569 22.4547 7.03919 22.5133 7.1152C22.9567 7.67063 23.3503 8.26389 23.6895 8.88814C24.6624 10.6264 25.1264 12.6026 25.0287 14.5914C24.9309 16.5802 24.2754 18.5015 23.1367 20.1364C22.2937 21.4463 21.165 22.5491 19.835 23.3624C18.5049 24.1756 17.008 24.6784 15.456 24.8329C13.2661 25.0938 11.0483 24.687 9.09427 23.666C7.14026 22.6451 5.54146 21.0578 4.50808 19.1129C3.47469 17.1679 3.0551 14.9563 3.30444 12.7688C3.55379 10.5813 4.46041 8.52037 5.90512 6.85688C6.94525 5.69556 8.21456 4.76131 9.63342 4.11274C11.0523 3.46416 12.5901 3.11525 14.1504 3.08789Z" fill="#821577"/>
<path d="M11.7519 12.094C11.5402 12.9629 11.3167 13.8435 11.0932 14.7241C10.8697 15.6047 10.7286 15.7104 9.83465 15.7104C8.94073 15.7104 8.07033 15.7104 7.17641 15.7104C7.03404 15.7206 6.89157 15.6919 6.76421 15.6276C6.63686 15.5633 6.5294 15.4656 6.45332 15.3451C6.37723 15.2245 6.33538 15.0856 6.33222 14.9431C6.32907 14.8007 6.36473 14.66 6.4354 14.5362C6.52007 14.4037 6.63917 14.2966 6.78003 14.2263C6.92088 14.156 7.0782 14.1251 7.23522 14.137C7.91743 14.137 8.58787 14.137 9.27007 14.137C9.52884 14.137 9.64647 14.137 9.71704 13.8083C10.1287 12.0823 10.5639 10.3798 10.9991 8.66554C11.1403 8.14892 11.399 7.89062 11.799 7.89062C12.1989 7.89062 12.4694 8.14893 12.5988 8.65381C13.034 10.3681 13.4809 12.0823 13.8926 13.7965C13.8926 14.0783 14.069 14.1723 14.3396 14.137C14.6101 14.1018 14.5983 14.137 14.7277 14.137C14.8406 14.1169 14.9565 14.1196 15.0683 14.145C15.1802 14.1703 15.2859 14.2177 15.3791 14.2845C15.4723 14.3513 15.5511 14.436 15.611 14.5337C15.6708 14.6314 15.7104 14.74 15.7275 14.8533C15.9745 15.5695 16.2098 16.274 16.4803 17.0724C16.5509 16.8963 16.6097 16.8023 16.645 16.7084L17.2801 14.7828C17.3227 14.5816 17.4394 14.4036 17.6071 14.284C17.7748 14.1645 17.9813 14.112 18.1858 14.137C19.1503 14.137 20.1148 14.137 21.0793 14.137C21.6204 14.137 21.9732 14.4658 21.9615 14.9237C21.9497 15.3816 21.6086 15.6869 21.0675 15.6986H18.6092C18.174 16.9667 17.7506 18.223 17.3389 19.4794C17.1978 19.9255 17.0449 20.3717 16.4685 20.3717C15.8922 20.3717 15.751 19.9138 15.5981 19.4676C15.2217 18.2935 14.8218 17.1194 14.4219 15.9452C14.4074 15.8505 14.356 15.7653 14.2789 15.7081C14.2018 15.651 14.1053 15.6265 14.0102 15.6399C12.6929 15.6399 12.7046 15.6399 12.3871 14.3366C12.1871 13.5734 11.9989 12.8103 11.799 11.9884L11.7519 12.094Z" fill="#821577"/>
<path d="M19.6318 6.32917C19.4259 6.32917 19.2284 6.24752 19.0828 6.10219C18.9372 5.95686 18.8555 5.75976 18.8555 5.55423C18.8555 5.34871 18.9372 5.1516 19.0828 5.00627C19.2284 4.86095 19.4259 4.7793 19.6318 4.7793C19.8358 4.7852 20.0298 4.86875 20.1741 5.01281C20.3185 5.15688 20.4021 5.35058 20.4081 5.55423C20.4081 5.75976 20.3263 5.95686 20.1807 6.10219C20.0351 6.24752 19.8376 6.32917 19.6318 6.32917Z" fill="#821577"/>
</svg>
