<svg width="28" height="40" viewBox="0 0 28 40" fill="none" xmlns="http://www.w3.org/2000/svg">
<g clip-path="url(#clip0_1198_533)">
<path d="M3.635 0.390625C2.7909 0.39422 1.98252 0.690347 1.38564 1.21463C0.788763 1.7389 0.451633 2.44894 0.447541 3.19038V29.1044C0.453861 29.2864 0.540626 29.4591 0.689447 29.5859C0.838268 29.7127 1.03745 29.7836 1.24478 29.7836C1.45211 29.7836 1.65129 29.7127 1.80011 29.5859C1.94893 29.4591 2.03569 29.2864 2.04201 29.1044V3.19038C2.03942 3.00572 2.07894 2.82247 2.15824 2.65144C2.23755 2.4804 2.35504 2.32504 2.50378 2.19452C2.65252 2.064 2.82949 1.96095 3.02429 1.89145C3.21908 1.82195 3.42774 1.7874 3.63797 1.78985H24.3661C24.5763 1.7874 24.785 1.82195 24.9798 1.89145C25.1746 1.96095 25.3516 2.064 25.5003 2.19452C25.649 2.32504 25.7665 2.4804 25.8458 2.65144C25.9251 2.82247 25.9647 3.00572 25.9621 3.19038V17.9054C25.9684 18.0874 26.0551 18.2601 26.204 18.3869C26.3528 18.5137 26.552 18.5846 26.7593 18.5846C26.9666 18.5846 27.1658 18.5137 27.3146 18.3869C27.4634 18.2601 27.5502 18.0874 27.5565 17.9054V3.19038C27.5524 2.44894 27.2153 1.7389 26.6184 1.21463C26.0216 0.690347 25.2132 0.39422 24.3691 0.390625H3.635ZM23.6567 5.29605C16.946 5.29605 10.107 5.29605 4.35329 5.29605C4.15161 5.31628 3.9663 5.40328 3.83511 5.53934C3.70392 5.67539 3.63673 5.85027 3.64722 6.02833C3.65771 6.20639 3.74509 6.37423 3.89157 6.49767C4.03805 6.62111 4.2326 6.69084 4.43558 6.69267H23.5692C23.6762 6.70166 23.7842 6.69157 23.8866 6.663C23.989 6.63443 24.0838 6.58799 24.1652 6.52644C24.2467 6.4649 24.3132 6.38953 24.3607 6.30486C24.4082 6.22018 24.4357 6.12796 24.4416 6.03371C24.4475 5.93947 24.4316 5.84515 24.395 5.75641C24.3584 5.66768 24.3017 5.58637 24.2284 5.51735C24.1551 5.44834 24.0667 5.39304 23.9684 5.35479C23.8702 5.31654 23.7642 5.29612 23.6567 5.29475V5.29605ZM14.0002 11.5994C12.1078 11.5998 10.258 12.0931 8.6848 13.017C7.1116 13.9408 5.88564 15.2537 5.16199 16.7896C4.43833 18.3255 4.24948 20.0154 4.61932 21.6456C4.98916 23.2758 5.90107 24.773 7.23973 25.9479C8.57839 27.1228 10.2837 27.9227 12.1399 28.2463C13.9961 28.5698 15.9198 28.4027 17.6679 27.7658C19.4159 27.129 20.9097 26.0512 21.9602 24.6686C23.0108 23.2861 23.571 21.6609 23.57 19.9987C23.567 17.7706 22.5576 15.6347 20.7634 14.0598C18.9692 12.4849 16.5367 11.5998 14.0002 11.5988V11.5994ZM14.0002 13.0012C15.9055 13.0004 17.7483 13.5989 19.1946 14.6883C20.641 15.7778 21.5953 17.2862 21.8848 18.9404C22.1744 20.5946 21.7799 22.2851 20.7729 23.7059C19.7659 25.1266 18.2129 26.1836 16.3952 26.6855V22.5236C16.391 22.3561 16.3432 22.1916 16.2554 22.0427C16.1677 21.8939 16.0423 21.7646 15.8889 21.6648C15.8489 21.6381 15.8052 21.6199 15.7629 21.5958L18.2543 20.8145C18.4095 20.7659 18.5437 20.6763 18.6385 20.5579C18.7333 20.4396 18.784 20.2983 18.7836 20.1536V15.8016C18.7871 15.6883 18.7587 15.5759 18.701 15.4745C18.6432 15.3731 18.558 15.2857 18.4527 15.2201C18.3473 15.1545 18.2253 15.1127 18.0972 15.0984C17.9691 15.0842 17.839 15.0978 17.7184 15.1382L14.0009 16.3004L10.279 15.1382C10.1588 15.1077 10.0323 15.1015 9.909 15.12C9.78568 15.1385 9.66871 15.1813 9.56685 15.2451C9.46499 15.3089 9.38086 15.3921 9.32075 15.4885C9.26064 15.5848 9.22611 15.6919 9.21973 15.8016V20.1556C9.21941 20.3004 9.27021 20.4417 9.36513 20.56C9.46006 20.6784 9.59443 20.768 9.74974 20.8165L12.2412 21.5978C12.1989 21.6245 12.1552 21.6401 12.1151 21.6668C11.9619 21.7666 11.8366 21.8959 11.7488 22.0447C11.6611 22.1936 11.6132 22.358 11.6088 22.5256V26.6881C9.79142 26.1863 8.23858 25.1296 7.23143 23.7092C6.22427 22.2888 5.82937 20.5986 6.11821 18.9446C6.40704 17.2906 7.36052 15.782 8.80605 14.6921C10.2516 13.6021 12.0936 13.0028 13.9987 13.0025L14.0002 13.0012ZM10.8127 16.79L13.2018 17.5394V20.4147L10.8157 19.6633L10.8127 16.79ZM17.1876 16.79V19.6633L14.7985 20.4128V17.5394L17.1876 16.79ZM26.75 19.9908C26.645 19.9919 26.5412 20.0113 26.4447 20.0477C26.3481 20.0841 26.2607 20.137 26.1875 20.2032C26.1143 20.2694 26.0567 20.3476 26.018 20.4334C25.9793 20.5192 25.9603 20.6109 25.9621 20.7032V36.8076C25.9647 36.9923 25.9251 37.1755 25.8458 37.3465C25.7665 37.5176 25.649 37.6729 25.5003 37.8035C25.3516 37.934 25.1746 38.037 24.9798 38.1065C24.785 38.176 24.5763 38.2106 24.3661 38.2081H3.63574C3.42551 38.2106 3.21685 38.176 3.02206 38.1065C2.82727 38.037 2.65029 37.934 2.50155 37.8035C2.35282 37.6729 2.23533 37.5176 2.15603 37.3465C2.07672 37.1755 2.03719 36.9923 2.03979 36.8076V31.9041C2.03347 31.7221 1.9467 31.5494 1.79788 31.4226C1.64906 31.2958 1.44988 31.2249 1.24255 31.2249C1.03522 31.2249 0.836039 31.2958 0.687218 31.4226C0.538397 31.5494 0.451632 31.7221 0.445312 31.9041V36.805C0.449018 37.5465 0.786033 38.2568 1.383 38.7811C1.97996 39.3055 2.78855 39.6015 3.63278 39.6047H24.3609C25.2051 39.6015 26.0137 39.3055 26.6107 38.7811C27.2077 38.2568 27.5447 37.5465 27.5484 36.805V20.7051C27.5503 20.6114 27.5307 20.5184 27.4909 20.4315C27.4511 20.3446 27.3919 20.2655 27.3167 20.1991C27.2414 20.1327 27.1518 20.0802 27.0531 20.0448C26.9544 20.0093 26.8485 19.9917 26.7419 19.9928L26.75 19.9908ZM13.2063 22.803H14.8022V26.97C14.5364 26.9949 14.2691 27.0065 14.0017 27.0046C13.7333 27.0046 13.4672 26.9779 13.2055 26.97L13.2063 22.803ZM4.35329 32.6106C4.14354 32.6222 3.94745 32.706 3.80758 32.8437C3.6677 32.9815 3.59533 33.1622 3.60616 33.3466C3.61699 33.5309 3.71016 33.7041 3.86543 33.8285C4.02071 33.9529 4.22558 34.0185 4.43558 34.0111H23.5692C23.676 34.014 23.7823 33.998 23.8819 33.9641C23.9814 33.9301 24.0722 33.879 24.1489 33.8137C24.2255 33.7484 24.2865 33.6702 24.3281 33.5839C24.3697 33.4975 24.3912 33.4046 24.3912 33.3108C24.3912 33.217 24.3697 33.1242 24.3281 33.0378C24.2865 32.9514 24.2255 32.8733 24.1489 32.8079C24.0722 32.7426 23.9814 32.6915 23.8819 32.6576C23.7823 32.6237 23.676 32.6077 23.5692 32.6106H4.35329Z" fill="#0057FF" stroke="#0057FF" stroke-width="1.2"/>
</g>
<defs>
<clipPath id="clip0_1198_533">
<rect width="28" height="40" fill="white"/>
</clipPath>
</defs>
</svg>
