<svg width="50" height="42" viewBox="0 0 50 42" fill="none" xmlns="http://www.w3.org/2000/svg">
<path fill-rule="evenodd" clip-rule="evenodd" d="M2.78781 0.156966C1.67626 0.458228 0.808665 1.19208 0.302687 2.25921L0 2.89769V19.2033V35.509L0.310213 36.1672C0.704967 37.0046 1.34621 37.649 2.17941 38.0458L2.83433 38.3575L16.6884 38.3838C24.3081 38.3981 30.5424 38.4218 30.5424 38.4362C30.5424 38.4507 30.4533 38.7173 30.3444 39.0287C30.1132 39.6899 30.1891 40.1879 30.5768 40.554C30.9372 40.8942 33.4527 41.9396 33.9143 41.9409C34.5465 41.9428 34.9065 41.6494 35.2786 40.8289L35.6031 40.1133H36.2599H36.9168L37.2344 40.8137C37.5841 41.5848 37.8879 41.887 38.4132 41.986C38.6982 42.0398 39.0078 41.9515 40.1488 41.4914C41.7977 40.8264 42.1236 40.6085 42.2864 40.0625C42.4053 39.6637 42.3774 39.5121 42.0061 38.5367C41.9733 38.4506 42.6146 38.4131 44.5354 38.3894L47.1086 38.3575L47.7635 38.0458C48.5967 37.649 49.238 37.0046 49.6327 36.1672L49.9429 35.509L49.9715 30.4254L50 25.3419L49.7561 25.0966C49.4644 24.8035 49.1205 24.7827 48.8054 25.0391L48.5746 25.2267L48.5258 30.2696C48.4714 35.8779 48.5086 35.5767 47.784 36.2839C47.3704 36.6876 46.7201 36.9332 46.065 36.9332C45.8058 36.9332 45.5937 36.9175 45.5937 36.8984C45.5937 36.8792 45.8356 36.284 46.1312 35.5756C46.7195 34.1661 46.7805 33.7493 46.472 33.2477C46.2908 32.9531 45.6627 32.572 45.0276 32.3715C44.8179 32.3052 44.8054 32.2563 44.8321 31.6022L44.8607 30.9037L45.4471 30.6727C46.382 30.3042 46.7544 29.8028 46.67 29.026C46.624 28.6038 45.5652 26.1263 45.3293 25.8894C44.9241 25.4821 44.4917 25.4147 43.7955 25.6501C43.4675 25.761 43.1332 25.8895 43.0526 25.9356C42.9456 25.9967 42.7691 25.8841 42.4002 25.5197L41.8944 25.02L42.1441 24.4691C42.6253 23.4077 42.4237 22.6277 41.5637 22.2222C40.5213 21.7307 38.9318 21.1187 38.6977 21.1187C38.0418 21.1187 37.597 21.545 37.2368 22.5185L37.0641 22.9851L36.3688 22.9827L35.6735 22.9803L35.3803 22.274C35.0408 21.4559 34.6536 21.1187 34.0537 21.1187C33.5737 21.1187 31.0714 22.1339 30.7113 22.4749C30.5622 22.6159 30.3908 22.8973 30.3303 23.1002C30.2339 23.4234 30.254 23.5615 30.4926 24.2191L30.7648 24.9692L30.2825 25.454L29.8002 25.9387L29.2401 25.6897C28.5302 25.3742 27.9463 25.3651 27.5068 25.6628C27.2363 25.846 27.0774 26.1253 26.5985 27.259C25.6765 29.4413 25.7426 29.8911 27.0762 30.5103L27.8058 30.8492V31.5149V32.1805L27.1007 32.4696C26.5794 32.6834 26.3375 32.8455 26.1722 33.0924C25.8166 33.6237 25.8741 34.0757 26.4864 35.5581C26.782 36.2739 27.0239 36.8762 27.0239 36.8964C27.0239 36.9166 21.71 36.9332 15.2153 36.9332C2.11226 36.9332 2.86238 36.9706 2.15888 36.2839C1.40309 35.5462 1.46906 36.8013 1.44014 22.6167L1.41433 9.9209H24.97H48.5258V16.0154V22.11L48.7657 22.351C49.0721 22.659 49.4463 22.6582 49.7542 22.3487L49.9965 22.1052L49.9697 12.5015L49.9429 2.89769L49.6402 2.25921C49.1248 1.17214 48.2625 0.453414 47.1125 0.152448C46.6189 0.0232795 45.6772 0 40.9439 0C35.4406 0 35.354 0.00304521 35.1003 0.203624C34.8067 0.435734 34.7512 0.916946 34.9815 1.23363C35.1153 1.41771 35.3219 1.42596 40.9678 1.4734C46.7296 1.52183 46.8212 1.52566 47.2063 1.73488C47.4213 1.85177 47.7383 2.09498 47.9107 2.27552C48.4727 2.8639 48.5258 3.18137 48.5258 5.95509V8.4475H24.9715H1.41717V5.95509C1.41717 3.18137 1.47024 2.8639 2.03222 2.27552C2.20462 2.09498 2.52158 1.85177 2.7366 1.73488L3.12754 1.52251L17.6736 1.4734C31.9304 1.42527 32.2225 1.42046 32.3584 1.23363C32.565 0.949557 32.5318 0.454888 32.2914 0.236235C32.0912 0.054221 31.6956 0.0486223 17.7043 0.0305486C5.28887 0.0144394 3.24981 0.0317272 2.78781 0.156966ZM5.45355 3.82102C4.60442 4.35724 4.65036 5.68615 5.53389 6.14536C5.75311 6.2593 5.9955 6.29407 6.33855 6.26097C6.74728 6.22148 6.88352 6.1542 7.15308 5.85854C7.43788 5.54618 7.47678 5.43832 7.47678 4.96045C7.47678 4.48179 7.43808 4.37492 7.15083 4.05981C6.86749 3.74912 6.75549 3.69716 6.29564 3.66287C5.88633 3.63242 5.69555 3.66818 5.45355 3.82102ZM9.65667 3.82652C9.14298 4.14134 8.99989 4.4644 9.0297 5.24216C9.03693 5.42919 9.168 5.65187 9.41996 5.90519C9.75236 6.23916 9.85606 6.28651 10.2556 6.28651C11.103 6.28651 11.6787 5.75009 11.6787 4.96045C11.6787 3.9217 10.5418 3.28411 9.65667 3.82652ZM13.8021 3.80894C13.5198 3.98476 13.1454 4.64111 13.1454 4.96045C13.1454 5.28961 13.5256 5.94311 13.8182 6.11677C14.1955 6.34083 14.8758 6.33346 15.2546 6.10125C15.5899 5.89576 15.882 5.36465 15.882 4.96045C15.882 4.55153 15.6013 4.05107 15.2493 3.83241C14.8547 3.58734 14.1756 3.57634 13.8021 3.80894ZM4.77585 12.5684C4.30418 12.6815 3.85645 13.0524 3.6558 13.4964C3.4876 13.8687 3.47372 14.2155 3.47177 18.0919C3.4704 20.8207 3.50588 22.3813 3.57361 22.5612C3.70096 22.9 4.11223 23.348 4.46652 23.534C4.68799 23.6503 6.13282 23.6726 13.4387 23.6726C20.7445 23.6726 22.1893 23.6503 22.4108 23.534C22.7651 23.348 23.1764 22.9 23.3037 22.5612C23.3714 22.3813 23.4069 20.8207 23.4055 18.0919C23.4031 13.308 23.4057 13.3257 22.6162 12.8005L22.2004 12.5239H16.4127C10.8583 12.5239 10.6166 12.5315 10.4191 12.711C10.1542 12.952 10.139 13.5554 10.3921 13.7856C10.554 13.9329 11.0954 13.9482 16.1465 13.9482C20.741 13.9482 21.7418 13.9718 21.8331 14.0824C21.9126 14.1787 21.9367 15.3368 21.9183 18.1833L21.8928 22.1501H13.4387H4.98452L4.95901 18.1833C4.94064 15.3368 4.96468 14.1787 5.04424 14.0824C5.12653 13.9828 5.45316 13.9482 6.31206 13.9482C7.3765 13.9482 7.48509 13.931 7.66844 13.7332C8.00885 13.3659 7.91708 12.851 7.46974 12.6185C7.17126 12.4634 5.35484 12.4296 4.77585 12.5684ZM25.7757 13.4245C25.7074 13.4522 25.583 13.6079 25.4992 13.7707C25.3737 14.0146 25.3679 14.1172 25.4658 14.355C25.5312 14.5135 25.6637 14.6858 25.7603 14.7377C25.8676 14.7954 28.3081 14.8311 32.0264 14.8291C38.5535 14.8258 38.3488 14.8415 38.5427 14.3288C38.6529 14.0378 38.4666 13.5187 38.2175 13.4227C38.0244 13.3481 25.9601 13.35 25.7757 13.4245ZM40.8907 13.4577C40.6195 13.617 40.4755 14.0899 40.617 14.3567C40.8586 14.8125 40.9322 14.8258 43.228 14.8291L45.4071 14.8322L45.647 14.5911C45.7789 14.4585 45.8869 14.2355 45.8869 14.0955C45.8869 13.9556 45.7789 13.7326 45.647 13.6L45.4071 13.3588L43.228 13.3618C42.0296 13.3635 40.9778 13.4066 40.8907 13.4577ZM25.7757 16.5678C25.7074 16.5955 25.583 16.7512 25.4992 16.914C25.3737 17.1579 25.3679 17.2605 25.4658 17.4982C25.5312 17.6567 25.6637 17.829 25.7603 17.881C25.8694 17.9396 29.6259 17.9755 35.6716 17.9755H45.4071L45.647 17.7343C45.7789 17.6017 45.8869 17.3788 45.8869 17.2388C45.8869 17.0988 45.7789 16.8758 45.647 16.7432L45.4071 16.5021L35.6535 16.5098C30.2891 16.5141 25.844 16.5402 25.7757 16.5678ZM34.253 23.3697C34.4246 23.7974 34.6447 24.2199 34.7421 24.3085C34.8879 24.4411 35.1719 24.4717 36.3447 24.4814C38.0136 24.4953 37.9959 24.5037 38.412 23.4977C38.5621 23.1347 38.7197 22.7981 38.7622 22.7497C38.8226 22.6808 40.7257 23.3802 40.8892 23.5313C40.9088 23.5494 40.7878 23.8949 40.6204 24.2992C40.176 25.3721 40.1946 25.4726 40.9768 26.2265C41.3411 26.5777 41.7823 27.0308 41.9572 27.2334C42.3522 27.6905 42.6321 27.7038 43.5901 27.3108C43.9664 27.1563 44.3027 27.0592 44.3375 27.0949C44.4783 27.2393 45.1925 29.1238 45.1268 29.178C45.088 29.21 44.7483 29.3606 44.372 29.5125C43.3412 29.9288 43.3458 29.9194 43.3458 31.6327C43.3458 33.3254 43.304 33.2495 44.5007 33.7336L45.1939 34.014L45.0454 34.3686C44.9638 34.5636 44.7637 35.0436 44.6009 35.4353C44.4381 35.827 44.2696 36.1474 44.2265 36.1474C44.1834 36.1474 43.8381 36.0148 43.4591 35.8528C43.0801 35.6907 42.6625 35.5581 42.5309 35.5581C42.1987 35.5581 40.2184 37.5061 40.2177 37.8337C40.2174 37.9597 40.355 38.4071 40.5235 38.8279C40.6919 39.2486 40.813 39.6057 40.7927 39.6211C40.734 39.666 38.7695 40.4694 38.7187 40.4694C38.6934 40.4694 38.5334 40.1268 38.363 39.7082C37.9171 38.6117 37.9468 38.6271 36.2625 38.6246C34.5774 38.6222 34.6041 38.6084 34.1586 39.7038L33.8507 40.4608L33.3938 40.279C32.8544 40.0644 31.7868 39.5919 31.7437 39.5485C31.7271 39.5318 31.8503 39.1908 32.0173 38.7905C32.4747 37.6949 32.4731 37.6899 31.2779 36.4959C30.6613 35.8801 30.1622 35.4598 30.0473 35.4598C29.9408 35.4598 29.523 35.5994 29.1188 35.7699C28.6639 35.9618 28.349 36.0451 28.2926 35.9884C28.1956 35.8909 27.3978 33.9687 27.4393 33.9322C27.4527 33.9204 27.7996 33.771 28.2101 33.6002C28.6206 33.4295 29.025 33.2137 29.1088 33.1207C29.2303 32.9857 29.2649 32.6569 29.2799 31.4961C29.3027 29.7266 29.3732 29.8283 27.6723 29.1783L27.4291 29.0854L27.8725 28.0243C28.1164 27.4407 28.3267 26.9512 28.34 26.9364C28.3533 26.9216 28.7263 27.0653 29.1687 27.2557C29.6113 27.4459 30.0436 27.6017 30.1294 27.6017C30.2153 27.6017 30.5553 27.3255 30.885 26.9878C31.2147 26.6502 31.6903 26.1886 31.942 25.9621C32.499 25.4608 32.5163 25.2746 32.0987 24.2758C31.9334 23.8803 31.8249 23.5297 31.8576 23.4968C31.8997 23.4545 33.7744 22.6386 33.9278 22.5959C33.9351 22.5938 34.0815 22.942 34.253 23.3697ZM15.482 26.1602C15.2153 26.3017 14.9674 26.5354 14.8309 26.7741C14.6129 27.1558 14.6108 27.193 14.6354 30.4503C14.6603 33.7216 14.6617 33.7427 14.8885 34.0624C15.014 34.2392 15.2871 34.4712 15.4954 34.5781C15.8483 34.7589 16.0785 34.7723 18.8527 34.7723C20.7252 34.7723 21.9333 34.7334 22.1063 34.6674C22.4976 34.5185 22.8187 34.1955 23.0275 33.7409C23.1904 33.3862 23.2077 33.0615 23.2058 30.4012C23.2031 26.8003 23.1459 26.5596 22.186 26.1166C21.8345 25.9543 21.4981 25.936 18.8539 25.934C15.9624 25.9319 15.9055 25.9357 15.482 26.1602ZM4.34054 26.9014C4.17703 27.0344 4.11467 27.1872 4.11467 27.4544C4.11467 27.7215 4.17703 27.8743 4.34054 28.0073C4.55223 28.1796 4.79599 28.1911 8.22504 28.1911H11.8838L12.1236 27.9499C12.4294 27.6427 12.4294 27.2661 12.1236 26.9588L11.8838 26.7177H8.22504C4.79599 26.7177 4.55223 26.7292 4.34054 26.9014ZM35.3813 26.9313C34.6607 27.0694 33.7489 27.5434 33.1619 28.0849C31.1704 29.9221 31.1248 32.9771 33.06 34.9065C34.0128 35.8566 35.247 36.3099 36.6397 36.2212C40.0006 36.0073 41.9959 32.4109 40.4523 29.3495C40.0814 28.6138 39.1315 27.6981 38.3612 27.3336C37.3182 26.8401 36.4613 26.7243 35.3813 26.9313ZM21.6985 27.6263C21.728 27.7479 21.7398 29.0628 21.7248 30.5485L21.6973 33.2497L18.8874 33.2758L16.0775 33.3019V30.419C16.0775 28.8335 16.1068 27.5067 16.1427 27.4708C16.1785 27.4347 17.4312 27.4053 18.9263 27.4053H21.6447L21.6985 27.6263ZM37.7463 28.6863C38.4097 29.013 38.9064 29.5239 39.2574 30.2405C39.4357 30.6045 39.4809 30.8633 39.4828 31.5308C39.4848 32.2466 39.4467 32.4445 39.2153 32.9182C38.0163 35.3716 34.6013 35.3716 33.4023 32.9182C33.17 32.4427 33.1331 32.2493 33.1371 31.5308C33.141 30.8253 33.1818 30.6181 33.4005 30.1942C33.7544 29.5077 34.098 29.119 34.6263 28.8079C35.6432 28.2089 36.6941 28.168 37.7463 28.6863ZM4.34054 30.0447C4.17703 30.1777 4.11467 30.3304 4.11467 30.5976C4.11467 30.8648 4.17703 31.0175 4.34054 31.1505C4.55223 31.3228 4.79599 31.3343 8.22504 31.3343H11.8838L12.1236 31.0932C12.4294 30.7859 12.4294 30.4093 12.1236 30.1021L11.8838 29.8609H8.22504C4.79599 29.8609 4.55223 29.8724 4.34054 30.0447ZM35.8515 30.6087C35.5371 30.7646 35.2337 31.2537 35.2337 31.6047C35.2337 31.7101 35.3335 31.9452 35.4554 32.127C35.8747 32.7523 36.7429 32.7523 37.1622 32.127C37.5463 31.5543 37.3745 30.9027 36.7626 30.6109C36.3494 30.4138 36.2453 30.4135 35.8515 30.6087Z" fill="#5D8900"/>
</svg>
