<svg width="35" height="42" viewBox="0 0 35 42" fill="none" xmlns="http://www.w3.org/2000/svg">
<path d="M26.7419 27.1316L30.7983 16.5714C30.8323 16.4894 30.8499 16.4012 30.85 16.3121C30.8501 16.223 30.8327 16.1348 30.7989 16.0527C30.7651 15.9706 30.7155 15.8962 30.6531 15.834C30.5907 15.7718 30.5168 15.723 30.4356 15.6905C30.3545 15.658 30.2678 15.6424 30.1806 15.6448C30.0935 15.6471 30.0077 15.6672 29.9283 15.704C29.8489 15.7407 29.7775 15.7934 29.7184 15.8588C29.6592 15.9242 29.6135 16.0011 29.5839 16.0849L25.8684 25.7691L24.5027 23.6466C24.2712 23.2463 23.9417 22.9144 23.5467 22.6837C23.1517 22.453 22.7047 22.3315 22.2497 22.3309H12.7503C12.3013 22.3315 11.86 22.4507 11.4693 22.677C11.0787 22.9032 10.7518 23.2289 10.5205 23.6222L9.1391 25.7729L5.41797 16.0875C5.38838 16.0037 5.34265 15.9268 5.2835 15.8614C5.22434 15.796 5.15296 15.7433 5.07357 15.7065C4.99417 15.6698 4.90837 15.6496 4.82124 15.6473C4.7341 15.645 4.6474 15.6606 4.56625 15.6931C4.48509 15.7256 4.41114 15.7744 4.34874 15.8366C4.28635 15.8988 4.23679 15.9732 4.20298 16.0553C4.16917 16.1374 4.1518 16.2256 4.1519 16.3147C4.152 16.4038 4.16956 16.4919 4.20356 16.574L8.2556 27.1316L1.32261 37.8998C1.12817 38.2015 1.01733 38.5514 1.00187 38.9123C0.986413 39.2733 1.06691 39.6318 1.2348 39.9497C1.4027 40.2676 1.65172 40.5331 1.95542 40.718C2.25912 40.9029 2.60614 41.0002 2.95962 40.9997H32.0404C32.3939 41.0002 32.7409 40.9029 33.0446 40.718C33.3483 40.5331 33.5973 40.2676 33.7652 39.9497C33.9331 39.6318 34.0136 39.2733 33.9981 38.9123C33.9827 38.5514 33.8718 38.2015 33.6774 37.8998L26.7419 27.1316ZM32.6124 39.3124C32.5578 39.4193 32.4753 39.5087 32.374 39.5706C32.2726 39.6324 32.1565 39.6644 32.0385 39.6628H2.96025C2.84266 39.6626 2.7273 39.6299 2.62639 39.5682C2.52547 39.5065 2.44275 39.4181 2.38697 39.3123C2.33118 39.2065 2.30442 39.0872 2.3095 38.9671C2.31458 38.8471 2.35132 38.7306 2.41584 38.6301L8.83894 28.6501L9.065 29.2393C9.13128 29.3993 9.25604 29.5265 9.4127 29.5939C9.56937 29.6613 9.74558 29.6635 9.90384 29.6001C10.0621 29.5367 10.1899 29.4127 10.26 29.2544C10.3302 29.0962 10.3371 28.9162 10.2794 28.7528L9.71428 27.2863L11.6232 24.3205C11.739 24.1209 11.9037 23.9555 12.1009 23.8406C12.2982 23.7257 12.5214 23.6653 12.7484 23.6652H22.2497C22.4826 23.6673 22.711 23.7321 22.9117 23.8529C23.1124 23.9738 23.2785 24.1466 23.3931 24.3539L25.2851 27.2908L24.72 28.7573C24.686 28.8393 24.6684 28.9275 24.6683 29.0166C24.6682 29.1057 24.6856 29.1939 24.7194 29.276C24.7532 29.3581 24.8027 29.4325 24.8651 29.4947C24.9275 29.5569 25.0015 29.6057 25.0826 29.6382C25.1638 29.6707 25.2505 29.6863 25.3376 29.684C25.4248 29.6816 25.5106 29.6615 25.59 29.6247C25.6694 29.588 25.7407 29.5353 25.7999 29.4699C25.859 29.4045 25.9048 29.3276 25.9344 29.2438L26.1598 28.6553L32.5817 38.6353C32.6472 38.735 32.6846 38.8513 32.6896 38.9714C32.6945 39.0914 32.667 39.2105 32.6099 39.3156L32.6124 39.3124Z" fill="#0057FF" stroke="#0057FF" stroke-width="1.5"/>
<path d="M16.8477 12.9977C16.8477 13.1745 16.9165 13.3441 17.0388 13.4692C17.1612 13.5942 17.3271 13.6645 17.5001 13.6645C17.6732 13.6645 17.8391 13.5942 17.9615 13.4692C18.0838 13.3441 18.1526 13.1745 18.1526 12.9977V11.3976L20.4188 10.1532C20.5712 10.0694 20.6847 9.92708 20.7345 9.75768C20.7842 9.58827 20.7661 9.4056 20.6841 9.24985C20.6021 9.0941 20.4629 8.97803 20.2971 8.92718C20.1314 8.87633 19.9526 8.89486 19.8003 8.97869L17.5001 10.2418L15.2 8.9742C15.1246 8.93269 15.0419 8.90677 14.9566 8.89794C14.8714 8.8891 14.7853 8.89751 14.7032 8.92269C14.6211 8.94787 14.5447 8.98932 14.4783 9.04469C14.4119 9.10005 14.3568 9.16824 14.3162 9.24536C14.2756 9.32248 14.2503 9.40701 14.2416 9.49415C14.233 9.58128 14.2412 9.6693 14.2658 9.75318C14.2905 9.83707 14.331 9.91517 14.3852 9.98303C14.4394 10.0509 14.5061 10.1072 14.5815 10.1487L16.8477 11.3976V12.9977Z" fill="#0057FF" stroke="#0057FF" stroke-width="1.5"/>
<path d="M8.36719 6.33025V15.6646C8.36725 15.7849 8.39916 15.9029 8.45951 16.0062C8.51987 16.1095 8.60644 16.1941 8.71004 16.2512L17.1871 20.9184C17.2822 20.9707 17.3884 20.9981 17.4964 20.9981C17.6043 20.9981 17.7106 20.9707 17.8056 20.9184L26.2827 16.2512C26.3863 16.1941 26.4729 16.1095 26.5332 16.0062C26.5936 15.9029 26.6255 15.7849 26.6255 15.6646V6.33025C26.6255 6.215 26.5961 6.10174 26.5404 6.00151C26.4848 5.90129 26.4046 5.81753 26.3078 5.75841C26.299 5.75327 26.2896 5.75135 26.2808 5.74621L17.8075 1.07967C17.7125 1.02738 17.6062 1 17.4983 1C17.3903 1 17.284 1.02738 17.189 1.07967L8.70878 5.74621C8.69956 5.74973 8.69054 5.75381 8.68178 5.75841C8.58569 5.81801 8.50628 5.90197 8.45128 6.00216C8.39627 6.10235 8.36752 6.21537 8.36782 6.33025H8.36719ZM9.67203 7.4457L11.3185 8.35129C11.4708 8.43512 11.6496 8.45365 11.8153 8.40279C11.9811 8.35194 12.1203 8.23587 12.2023 8.08013C12.2843 7.92438 12.3024 7.74171 12.2527 7.5723C12.2029 7.40289 12.0894 7.26062 11.937 7.17679L10.3967 6.33025L17.4998 2.42104L24.6024 6.33025L23.0608 7.17743C22.9853 7.21894 22.9186 7.27523 22.8644 7.34309C22.8103 7.41096 22.7697 7.48906 22.7451 7.57294C22.6953 7.74235 22.7135 7.92502 22.7955 8.08077C22.8775 8.23652 23.0167 8.35258 23.1824 8.40343C23.3482 8.45429 23.5269 8.43576 23.6793 8.35193L25.327 7.4457V15.2648L18.1516 19.2157V16.9983C18.1516 16.8214 18.0829 16.6518 17.9605 16.5268C17.8382 16.4017 17.6722 16.3314 17.4992 16.3314C17.3262 16.3314 17.1602 16.4017 17.0379 16.5268C16.9155 16.6518 16.8468 16.8214 16.8468 16.9983V19.2157L9.67203 15.2648V7.4457Z" fill="#0057FF" stroke="#0057FF" stroke-width="1.5"/>
<path d="M13.7299 34.3337H9.50391L10.265 33H14.0583L13.7299 34.3337ZM14.3823 31.667H11.026L11.7871 30.3333H14.7082L14.3823 31.667ZM12.5513 28.9997L13.3117 27.666H15.3631L15.0372 28.9997H12.5513ZM15.0774 34.3337L15.4033 33H19.6029L19.9288 34.3337H15.0774ZM19.6437 27.6667H21.6952L22.4556 29.0003H19.9671L19.6437 27.6667ZM20.2962 30.3333H23.2173L23.9796 31.667H20.6195L20.2962 30.3333ZM21.2745 34.3337L20.9486 33H24.7394L25.5005 34.3337H21.2745Z" fill="#0057FF" stroke="#0057FF" stroke-width="1.5"/>
<path d="M2.25873 9.71157C2.17871 9.74353 2.10566 9.79132 2.04376 9.85221C1.98186 9.9131 1.93233 9.98589 1.89802 10.0664C1.86372 10.1469 1.84531 10.2335 1.84384 10.3213C1.84238 10.4091 1.8579 10.4964 1.88951 10.578L2.91178 13.2447C2.94054 13.3296 2.98578 13.4077 3.0448 13.4742C3.10381 13.5408 3.17538 13.5945 3.2552 13.6321C3.33503 13.6697 3.42146 13.6904 3.50932 13.693C3.59717 13.6957 3.68464 13.6801 3.76647 13.6473C3.84829 13.6145 3.92279 13.5651 3.98549 13.5022C4.04819 13.4392 4.0978 13.364 4.13134 13.2809C4.16488 13.1979 4.18166 13.1088 4.18067 13.019C4.17967 12.9291 4.16093 12.8404 4.12557 12.7582L3.10016 10.0915C3.06912 10.0098 3.02263 9.93515 2.96334 9.87182C2.90405 9.8085 2.83313 9.75773 2.75463 9.72245C2.67613 9.68716 2.59159 9.66803 2.50586 9.66617C2.42012 9.6643 2.33486 9.67973 2.25496 9.71157H2.25873Z" fill="#0057FF" stroke="#0057FF" stroke-width="1.5"/>
<path d="M31.897 10.0888L30.8715 12.7555C30.8362 12.8378 30.8174 12.9265 30.8164 13.0163C30.8155 13.1061 30.8322 13.1952 30.8658 13.2783C30.8993 13.3613 30.9489 13.4366 31.0116 13.4995C31.0743 13.5625 31.1488 13.6118 31.2306 13.6446C31.3125 13.6774 31.3999 13.693 31.4878 13.6904C31.5757 13.6878 31.6621 13.667 31.7419 13.6294C31.8217 13.5918 31.8933 13.5381 31.9523 13.4715C32.0113 13.405 32.0566 13.3269 32.0853 13.242L33.1095 10.5753C33.1435 10.4933 33.161 10.4051 33.1611 10.316C33.1612 10.2269 33.1439 10.1387 33.1101 10.0566C33.0763 9.97451 33.0267 9.90015 32.9643 9.83794C32.9019 9.77573 32.8279 9.72693 32.7468 9.69442C32.6656 9.66191 32.5789 9.64635 32.4918 9.64866C32.4047 9.65097 32.3189 9.6711 32.2395 9.70787C32.1601 9.74464 32.0887 9.79729 32.0295 9.86272C31.9704 9.92815 31.9247 10.005 31.8951 10.0888H31.897Z" fill="#0057FF" stroke="#0057FF" stroke-width="1.5"/>
</svg>
