<svg width="44" height="40" viewBox="0 0 44 40" fill="none" xmlns="http://www.w3.org/2000/svg">
<path d="M43.9359 20.2788C43.7753 21.0568 43.4441 21.79 42.9657 22.4267C42.5533 22.9272 42.0332 23.3298 41.4436 23.6051C40.8541 23.8803 40.2099 24.0213 39.5583 24.0176H38.7966V24.5665C38.7966 26.77 38.7966 28.9656 38.7966 31.1691C38.8123 31.3322 38.7769 31.4962 38.6951 31.6386C38.6133 31.781 38.4891 31.8948 38.3397 31.9646C38.1849 32.0245 38.0146 32.032 37.8551 31.986C37.6956 31.9399 37.5559 31.8429 37.4577 31.71L37.3134 31.5509C36.2444 30.3895 35.1754 29.2228 34.1064 28.0508L33.7216 27.653C33.6915 27.7245 33.67 27.7993 33.6574 27.8758C33.5831 29.0145 33.0658 30.0799 32.2146 30.8473C31.3634 31.6147 30.245 32.0238 29.0955 31.9884C25.2711 31.9884 21.4468 31.9884 17.6305 31.9884C17.4773 31.9879 17.3259 32.0212 17.1872 32.0859C17.0485 32.1505 16.9261 32.245 16.8287 32.3623C14.68 34.7488 12.5153 37.0795 10.3586 39.4342C10.2421 39.5777 10.1104 39.7083 9.96574 39.824C9.86803 39.9098 9.74822 39.9672 9.61963 39.9895C9.49105 40.0118 9.35874 39.9984 9.23742 39.9506C9.1161 39.9027 9.01053 39.8225 8.93246 39.7187C8.85438 39.6148 8.80687 39.4916 8.79519 39.3626C8.78322 39.209 8.78322 39.0548 8.79519 38.9012V31.9964H4.56195C3.50699 32.0453 2.4702 31.7113 1.64537 31.0569C0.82054 30.4024 0.264136 29.4724 0.0801737 28.4405C0.0618354 28.3712 0.0349062 28.3044 0 28.2417V11.7512C0.0345099 11.7053 0.0615611 11.6543 0.0801737 11.6001C0.264867 10.576 0.815844 9.65254 1.63184 8.99928C2.44784 8.34603 3.47405 8.00691 4.52187 8.04425C6.25364 8.04425 7.98542 8.04425 9.7172 8.04425H10.2624V7.52719C10.2624 6.52488 10.2624 5.51461 10.2624 4.50434C10.248 3.90714 10.3563 3.31327 10.5808 2.75897C10.8053 2.20466 11.1412 1.70153 11.568 1.28024C11.9949 0.858951 12.5037 0.528338 13.0636 0.308555C13.6234 0.0887724 14.2225 -0.0155766 14.8243 0.00187838L39.43 0.0575683H39.9432C41.0987 0.142754 42.1735 0.677403 42.9337 1.54513C43.4431 2.18999 43.8068 2.93607 44 3.73271L43.9359 20.2788ZM10.2063 37.4375L10.5911 37.0239C12.395 35.051 14.215 33.0464 16.0109 31.0895C16.1531 30.9227 16.3316 30.7902 16.5331 30.702C16.7345 30.6138 16.9535 30.5722 17.1735 30.5804C21.1341 30.5804 25.1001 30.5671 29.0714 30.5406C29.4884 30.5764 29.9082 30.5218 30.3017 30.3806C30.6953 30.2395 31.0532 30.015 31.3507 29.7229C31.6481 29.4308 31.878 29.078 32.0243 28.689C32.1707 28.3 32.23 27.8841 32.1983 27.47C32.1983 22.4903 32.1983 17.5053 32.1983 12.5149C32.2288 12.1005 32.1683 11.6844 32.021 11.2954C31.8737 10.9064 31.6431 10.5538 31.345 10.2618C31.047 9.96987 30.6886 9.74559 30.2947 9.60445C29.9008 9.4633 29.4807 9.40868 29.0634 9.44432H22.5853C16.6443 9.44432 10.6953 9.51591 4.75437 9.44432C4.30264 9.40692 3.84811 9.46767 3.42246 9.62235C2.9968 9.77703 2.61024 10.0219 2.2897 10.3399C1.96916 10.658 1.72236 11.0415 1.56646 11.4638C1.41057 11.8862 1.34933 12.3372 1.38703 12.7854C1.44315 17.6856 1.38703 22.5858 1.38703 27.486C1.35855 27.8965 1.41909 28.3083 1.56454 28.6936C1.71 29.079 1.93699 29.4289 2.23025 29.7199C2.52351 30.0109 2.87621 30.2361 3.2646 30.3804C3.65298 30.5247 4.06803 30.5848 4.48178 30.5565H9.16399C9.96574 30.5565 10.1822 30.7793 10.1822 31.5668C10.1822 33.3169 10.1822 35.059 10.1822 36.8091L10.2063 37.4375ZM11.7216 8.00448H12.2988H29.1356C29.7416 7.98861 30.3445 8.0967 30.9066 8.322C31.4688 8.5473 31.9782 8.88499 32.4031 9.31405C32.828 9.74312 33.1594 10.2544 33.3766 10.816C33.5937 11.3776 33.6921 11.9776 33.6655 12.5785C33.6655 16.723 33.6655 20.8755 33.6655 25.0199C33.6549 25.1652 33.6751 25.311 33.7248 25.448C33.7745 25.5851 33.8526 25.7102 33.9541 25.8154C34.9723 26.8973 35.9665 27.9951 36.9687 29.0849C37.0569 29.1883 37.137 29.2997 37.2974 29.5065C37.2974 29.2281 37.2974 29.0928 37.2974 28.9576C37.2974 27.1916 37.2974 25.4336 37.2974 23.6676C37.2974 22.8721 37.5459 22.6335 38.3557 22.6335H39.3499C39.7632 22.6629 40.1781 22.604 40.5665 22.4606C40.9549 22.3172 41.3077 22.0928 41.6011 21.8024C41.8945 21.512 42.1217 21.1625 42.2672 20.7775C42.4127 20.3926 42.4732 19.9811 42.4446 19.5709C42.4446 14.5858 42.4446 9.59811 42.4446 4.60776C42.4475 4.28091 42.4098 3.95495 42.3324 3.63726C42.1429 2.9992 41.7406 2.4439 41.1915 2.06236C40.6423 1.68081 39.9789 1.49563 39.3098 1.53717C31.148 1.53717 22.9862 1.53717 14.8243 1.48944C14.7121 1.48944 14.5999 1.48944 14.4876 1.48944C13.8264 1.48679 13.186 1.71857 12.6818 2.143C12.1775 2.56743 11.8427 3.15659 11.7376 3.80431C11.6334 5.14868 11.7216 6.55669 11.7216 8.02039V8.00448Z" fill="#C305D3"/>
<path d="M16.8293 21.0814H7.68932C7.49071 21.0882 7.29191 21.0749 7.09603 21.0416C6.93821 21.0145 6.79607 20.9305 6.69691 20.8056C6.59776 20.6808 6.54859 20.5241 6.55886 20.3655C6.54571 20.2069 6.59142 20.049 6.6874 19.9216C6.78338 19.7941 6.92301 19.7059 7.07999 19.6734C7.26208 19.6374 7.44759 19.6214 7.6332 19.6257H25.9612C26.6988 19.6257 27.0596 19.8643 27.0596 20.3496C27.0596 20.8348 26.7068 21.0814 25.9772 21.0814H16.8293Z" fill="#C305D3"/>
<path d="M16.8195 23.9922H25.9674C26.7131 23.9922 27.0578 24.2229 27.0578 24.7161C27.0578 25.2093 26.697 25.4479 25.9674 25.4479H7.63946C7.43965 25.4547 7.23989 25.4333 7.04616 25.3843C6.89933 25.3338 6.77313 25.2371 6.68676 25.1089C6.60038 24.9807 6.55855 24.828 6.56762 24.6741C6.5767 24.5201 6.63618 24.3733 6.73702 24.256C6.83787 24.1387 6.97457 24.0572 7.12634 24.024C7.31019 24.004 7.4957 24.004 7.67955 24.024L16.8195 23.9922Z" fill="#C305D3"/>
<path d="M12.0096 16.7141H7.46372C7.30451 16.7339 7.14298 16.7057 7.00005 16.6334C6.85712 16.5611 6.73935 16.4479 6.66197 16.3084C6.6147 16.2204 6.58718 16.1232 6.58128 16.0237C6.57538 15.9241 6.59125 15.8244 6.6278 15.7315C6.66435 15.6385 6.72072 15.5545 6.79304 15.4852C6.86536 15.416 6.95192 15.363 7.0468 15.33C7.22361 15.2778 7.4076 15.2537 7.59199 15.2584H16.7319C17.245 15.2584 17.5337 15.5845 17.5337 15.9982C17.5337 16.4118 17.205 16.7062 16.6838 16.7062L12.0096 16.7141Z" fill="#C305D3"/>
</svg>
