<svg width="54" height="41" viewBox="0 0 54 41" fill="none" xmlns="http://www.w3.org/2000/svg">
<path fill-rule="evenodd" clip-rule="evenodd" d="M3.64519 0.1516C2.75739 0.37305 2.09281 0.751206 1.42337 1.41598C0.733903 2.10071 0.3171 2.85472 0.125095 3.76479C-0.0429755 4.56136 -0.0410776 36.4461 0.127098 37.2295C0.514799 39.0351 1.97071 40.4863 3.78216 40.8728C4.57137 41.0412 49.4162 41.043 50.2179 40.8747C52.0072 40.4991 53.5015 39.0099 53.8755 37.2295C54.0432 36.4316 54.0406 4.54591 53.873 3.76479C53.4843 1.95452 52.024 0.498016 50.2179 0.119439C49.3655 -0.0593397 4.36619 -0.0282295 3.64519 0.1516ZM49.9886 3.36688C50.2565 3.50309 50.4805 3.72633 50.6171 3.99339C50.8272 4.40371 50.8294 4.57975 50.8294 20.4971C50.8294 36.4145 50.8272 36.5905 50.6171 37.0009C50.4805 37.2679 50.2565 37.4912 49.9886 37.6274C49.5754 37.8375 49.4147 37.8389 26.9922 37.8389H4.41195L3.99135 37.6033C3.74452 37.465 3.48809 37.2062 3.37073 36.9769C3.17683 36.5981 3.17082 36.0912 3.17514 20.4751C3.17936 5.16412 3.18896 4.34632 3.36947 4.00874C3.47385 3.81335 3.74473 3.54166 3.97132 3.40492L4.38327 3.15636L26.9779 3.15583C49.4153 3.15531 49.5754 3.15678 49.9886 3.36688ZM18.8391 6.42072C12.2835 7.3247 7.23509 12.4107 6.43143 18.9206C6.28424 20.1128 6.35847 22.0046 6.59855 23.1772C7.61868 28.16 11.1782 32.2148 15.9896 33.875C17.683 34.4594 18.7027 34.6252 20.621 34.6284C22.5823 34.6316 23.3965 34.5073 25.1469 33.9375C27.336 33.2249 28.9177 32.2466 30.6476 30.5354C32.8 28.4064 34.0089 26.1707 34.6625 23.1115C34.9232 21.8912 34.924 19.1143 34.6639 17.8696C34.2588 15.9304 33.5079 14.127 32.432 12.5094C31.7681 11.5113 29.7083 9.45091 28.731 8.80737C27.0315 7.68814 25.199 6.91964 23.392 6.56839C22.3377 6.36333 19.842 6.28251 18.8391 6.42072ZM23.2075 9.76023C25.2931 10.3021 27.0509 11.2861 28.4826 12.7132C31.3664 15.5878 32.4505 19.8809 31.2542 23.6885C30.9704 24.5918 30.292 26.0468 29.9489 26.4879L29.7445 26.7507L29.456 26.3828C28.5444 25.2208 27.3008 24.1547 26.03 23.4458L25.429 23.1105L25.7915 22.6076C26.545 21.5621 26.9945 20.1657 26.9983 18.8586C27.0006 18.0281 26.6724 16.7642 26.2417 15.9447C25.7936 15.0922 24.5144 13.8171 23.6591 13.3704C22.2601 12.6397 20.6426 12.4428 19.1549 12.8221C17.9639 13.1258 17.1549 13.5923 16.2416 14.5027C15.3283 15.4131 14.8603 16.2195 14.5555 17.4067C14.1007 19.1798 14.4702 21.1012 15.5559 22.6076L15.9184 23.1105L15.3173 23.4458C14.0216 24.1685 12.7315 25.2819 11.8699 26.4209L11.5628 26.8269L11.3295 26.5352C10.6556 25.6927 9.81404 23.4891 9.61117 22.0354C8.77641 16.0527 12.9595 10.5275 19.0483 9.57041C20.0213 9.41739 22.2858 9.52081 23.2075 9.76023ZM38.8895 9.67814C38.4443 9.91241 38.0712 10.5325 38.0712 11.038C38.0712 11.5595 38.4441 12.165 38.912 12.4029C39.3045 12.6025 39.5283 12.6145 42.8687 12.6145C46.2091 12.6145 46.4329 12.6025 46.8254 12.4029C47.2933 12.165 47.6662 11.5595 47.6662 11.038C47.6662 10.5164 47.2933 9.91094 46.8254 9.67299C46.4321 9.47298 46.2143 9.46163 42.8465 9.46605C39.5079 9.47046 39.259 9.48381 38.8895 9.67814ZM22.0905 16.1275C23.1933 16.6654 23.7798 17.6351 23.7798 18.9206C23.7798 19.816 23.5608 20.4148 23.0014 21.0501C22.1435 22.0239 20.5006 22.3235 19.2838 21.7279C17.594 20.9007 17.0164 18.8086 18.0356 17.2067C18.8768 15.8845 20.6335 15.417 22.0905 16.1275ZM38.8895 15.9843C38.4443 16.2185 38.0712 16.8386 38.0712 17.3441C38.0712 17.8656 38.4441 18.4711 38.912 18.709C39.3045 18.9086 39.5283 18.9206 42.8687 18.9206C46.2091 18.9206 46.4329 18.9086 46.8254 18.709C47.2933 18.4711 47.6662 17.8656 47.6662 17.3441C47.6662 16.8225 47.2933 16.2171 46.8254 15.9791C46.4321 15.7791 46.2143 15.7677 42.8465 15.7722C39.5079 15.7766 39.259 15.7899 38.8895 15.9843ZM38.8895 22.2904C38.4443 22.5246 38.0712 23.1447 38.0712 23.6502C38.0712 24.1717 38.4441 24.7772 38.912 25.0151C39.3045 25.2147 39.5283 25.2267 42.8687 25.2267C46.2091 25.2267 46.4329 25.2147 46.8254 25.0151C47.2933 24.7772 47.6662 24.1717 47.6662 23.6502C47.6662 23.1287 47.2933 22.5232 46.8254 22.2852C46.4321 22.0852 46.2143 22.0739 42.8465 22.0783C39.5079 22.0827 39.259 22.096 38.8895 22.2904ZM22.7297 25.4944C24.5424 25.9772 26.453 27.383 27.3427 28.8882L27.5272 29.2004L26.6574 29.7592C25.6966 30.3765 24.5025 30.8925 23.2405 31.2358C22.5516 31.4232 22.1228 31.4609 20.6737 31.4612C19.1229 31.4616 18.8196 31.4312 17.882 31.1819C16.765 30.885 15.011 30.0856 14.2691 29.5354C13.7448 29.1466 13.7474 29.1352 14.5949 28.0865C15.759 26.6458 17.6041 25.6097 19.5666 25.2946C20.1481 25.2013 22.0897 25.3239 22.7297 25.4944ZM38.8895 28.5965C38.4443 28.8308 38.0712 29.4509 38.0712 29.9563C38.0712 30.4778 38.4441 31.0833 38.912 31.3213C39.3045 31.5208 39.5283 31.5328 42.8687 31.5328C46.2091 31.5328 46.4329 31.5208 46.8254 31.3213C47.2933 31.0833 47.6662 30.4778 47.6662 29.9563C47.6662 29.4348 47.2933 28.8293 46.8254 28.5913C46.4321 28.3913 46.2143 28.38 42.8465 28.3844C39.5079 28.3888 39.259 28.4022 38.8895 28.5965Z" fill="#FB5A5A"/>
</svg>
