<svg width="64" height="46" viewBox="0 0 64 46" fill="none" xmlns="http://www.w3.org/2000/svg">
<path fill-rule="evenodd" clip-rule="evenodd" d="M29.6762 0.153005C27.5037 0.465486 24.6928 1.56155 22.8365 2.81989C21.7076 3.5851 19.8005 5.4144 18.9112 6.5848C17.4571 8.49868 16.1956 11.5866 15.8476 14.0835C15.3113 17.9326 16.3084 22.1513 18.5243 25.4087C19.2908 26.5356 21.1233 28.4394 22.2957 29.3272C24.2569 30.8122 27.4021 32.0762 29.9194 32.3914C33.9517 32.8961 38.2755 31.811 41.4094 29.508L42.2145 28.9162L43.1457 29.853C44.002 30.7144 44.0769 30.838 44.0769 31.3893C44.0769 31.719 44.167 32.1591 44.2771 32.3675C44.3873 32.5758 46.9003 35.1548 49.8618 38.0985C54.6943 42.9021 55.3109 43.4679 55.8771 43.6178C58.1114 44.2095 59.9857 42.3384 59.393 40.108C59.2428 39.5428 58.676 38.9272 53.8641 34.1032C50.9152 31.1468 48.3318 28.6381 48.1232 28.5282C47.9144 28.4182 47.4735 28.3283 47.1432 28.3283C46.5909 28.3283 46.4672 28.2535 45.6042 27.3987L44.6659 26.4691L45.2586 25.6653C47.0727 23.2056 48.2895 19.4888 48.2912 16.4033C48.2929 13.1629 47.2553 9.75884 45.4614 7.11944C44.6157 5.87513 42.5534 3.79113 41.3376 2.95201C37.9619 0.622568 33.6337 -0.416416 29.6762 0.153005ZM35.7175 1.60096C38.9754 2.43336 42.0615 4.4743 44.0892 7.13726C45.0701 8.42547 46.2512 10.8761 46.6981 12.55C47.032 13.7999 47.0727 14.2043 47.0727 16.2667C47.0727 18.3291 47.032 18.7334 46.6981 19.9833C46.2512 21.6572 45.0701 24.1078 44.0892 25.3961C43.2201 26.5376 41.7123 27.9709 40.5571 28.7541C39.28 29.6199 37.2517 30.5354 35.6861 30.9527C34.4688 31.2772 34.0488 31.3189 31.9944 31.3189C29.9399 31.3189 29.52 31.2772 28.3026 30.9527C26.737 30.5354 24.7087 29.6199 23.4316 28.7541C22.2765 27.9709 20.7687 26.5376 19.8996 25.3961C18.9186 24.1078 17.7375 21.6572 17.2906 19.9833C16.9568 18.7334 16.916 18.3291 16.916 16.2667C16.916 14.2043 16.9568 13.7999 17.2906 12.55C17.7375 10.8761 18.9186 8.42547 19.8996 7.13726C22.2509 4.04919 25.9177 1.88048 29.8286 1.26492C31.2903 1.03477 34.1376 1.19718 35.7175 1.60096ZM29.5694 2.45397C23.9935 3.50881 19.7158 7.53781 18.3293 13.0409C17.9232 14.6519 17.8972 17.6516 18.2752 19.2821C19.5101 24.6106 23.6363 28.7297 28.9737 29.9621C30.5214 30.3194 33.4684 30.3193 35.015 29.9617C43.926 27.9016 48.6097 18.1285 44.556 10.0529C42.6894 6.33403 39.329 3.64555 35.296 2.64443C33.7859 2.26968 31.0286 2.17796 29.5694 2.45397ZM34.2407 3.58188C39.6495 4.60613 43.6744 8.62154 44.6995 14.0158C45.642 18.976 43.3701 24.1965 39.0308 27.0404C33.8901 30.4098 27.1674 29.6756 22.8043 25.2683C17.8798 20.294 17.8537 12.3104 22.7453 7.31467C25.7936 4.20165 30.1106 2.79983 34.2407 3.58188ZM6.31342 5.76587C5.68723 5.9461 4.78975 6.87274 4.60781 7.52687C4.5075 7.88732 4.45861 12.6975 4.45818 22.2624L4.45734 36.4629H5.01735H5.57737L5.61446 22.0898L5.65155 7.71663L6.11069 7.25815L6.56982 6.79967L11.8359 6.7597L17.1019 6.71973V6.16363V5.60753L11.9387 5.62015C9.09887 5.62717 6.56757 5.69266 6.31342 5.76587ZM46.8868 6.15746V6.71973L52.1529 6.7597L57.4189 6.79967L57.878 7.25815L58.3372 7.71663L58.3743 22.3001L58.4112 36.8836H58.9739H59.5364L59.4988 22.1923L59.4611 7.50093L59.1277 6.96559C58.9444 6.67106 58.5381 6.26082 58.2251 6.05395L57.6558 5.67766L52.2713 5.63628L46.8868 5.59505V6.15746ZM7.75897 9.10737C7.60443 9.17118 7.31993 9.3932 7.12675 9.60063L6.77551 9.97791L6.73828 23.2203L6.70105 36.4629H7.26513H7.82922V23.4475C7.82922 13.5116 7.86912 10.3924 7.99781 10.2639C8.12004 10.1419 9.14369 10.0956 11.7209 10.0956H15.2755V9.53458V8.97357L11.6577 8.98241C9.66802 8.98732 7.91352 9.04355 7.75897 9.10737ZM48.7133 9.52812V10.0956H52.2678C54.845 10.0956 55.8687 10.1419 55.9909 10.2639C56.1195 10.3922 56.1595 13.3089 56.1595 22.5359V34.6396H56.7237H57.288L57.2506 22.3001L57.2132 9.96066L56.7541 9.50218L56.2951 9.0437L52.5041 9.00218L48.7133 8.96067V9.52812ZM35.9985 10.2567C35.8439 10.3406 34.5153 11.6013 33.0458 13.0584L30.374 15.7076L29.2563 14.5852C27.4668 12.7883 26.97 12.7866 25.1922 14.5717C24.1514 15.617 24.0838 15.7222 24.0183 16.4017L23.9491 17.1228L26.3824 19.5664C27.7208 20.9104 29.019 22.1063 29.2672 22.2238C29.8477 22.4989 30.8767 22.4973 31.5422 22.2205C32.1138 21.9826 39.4486 14.8026 39.8021 14.1348C40.0579 13.6515 40.0581 12.9916 39.8024 12.5079C39.5672 12.063 37.9617 10.4773 37.5181 10.2517C37.131 10.0548 36.3657 10.0573 35.9985 10.2567ZM37.9268 12.1605C38.4502 12.6792 38.8786 13.2013 38.8786 13.3209C38.8786 13.4406 37.113 15.2968 34.9552 17.4459L31.0317 21.3534L30.3046 21.2836C29.5795 21.2142 29.5711 21.2076 27.3438 18.9874C25.8779 17.5263 25.1101 16.6596 25.1101 16.4667C25.1101 16.155 26.9148 14.3031 27.2185 14.3031C27.3114 14.3031 28.0414 14.9375 28.8407 15.7129L30.2942 17.1228L30.692 16.9174C30.9107 16.8044 32.302 15.4758 33.7837 13.9648C35.2751 12.4441 36.5888 11.2176 36.7264 11.2176C36.8631 11.2176 37.4033 11.6419 37.9268 12.1605ZM10.0069 24.8113C9.38478 25.0775 9.02343 25.6515 9.02343 26.3733C9.02343 26.9625 9.0889 27.1261 9.48271 27.5192L9.94198 27.9777H12.887H15.8321L16.2914 27.5192C16.6867 27.1245 16.7507 26.9636 16.7507 26.3648C16.7507 25.766 16.6866 25.6049 16.2917 25.2104L15.8327 24.7519L13.0603 24.7216C11.5355 24.7049 10.1614 24.7453 10.0069 24.8113ZM15.6108 26.1193C15.7238 26.2982 15.7238 26.4314 15.6108 26.6102C15.4744 26.8265 15.1588 26.8603 12.9605 26.8941C10.3948 26.9335 10.0771 26.8764 10.0771 26.3757C10.0771 25.8449 10.3344 25.7963 12.9382 25.8357C15.1579 25.8694 15.4743 25.9029 15.6108 26.1193ZM45.3044 29.5509L44.9207 29.9339L44.0089 29.0318L43.097 28.1296L43.4765 27.7342L43.8559 27.3388L44.772 28.2534L45.6881 29.168L45.3044 29.5509ZM10.0069 29.2994C9.38478 29.5656 9.02343 30.1395 9.02343 30.8614C9.02343 31.4506 9.0889 31.6141 9.48271 32.0072L9.94198 32.4657H12.887H15.8321L16.2914 32.0072C16.6867 31.6126 16.7507 31.4517 16.7507 30.8528C16.7507 30.2541 16.6866 30.0929 16.2917 29.6984L15.8327 29.2399L13.0603 29.2096C11.5355 29.1929 10.1614 29.2333 10.0069 29.2994ZM52.9288 34.8507L58.3372 40.2511V40.949C58.3372 41.5501 58.2735 41.7103 57.8779 42.1054C57.4821 42.5003 57.3217 42.5638 56.7195 42.5638H56.0204L50.6106 37.1648C47.1375 33.6987 45.2009 31.6666 45.2009 31.4884C45.2009 31.1194 46.8665 29.4503 47.2347 29.4503C47.4234 29.4503 49.3566 31.2837 52.9288 34.8507ZM15.6108 30.6074C15.7238 30.7862 15.7238 30.9194 15.6108 31.0983C15.4744 31.3145 15.1588 31.3483 12.9605 31.3821C10.3948 31.4215 10.0771 31.3645 10.0771 30.8638C10.0771 30.3329 10.3344 30.2844 12.9382 30.3238C15.1579 30.3575 15.4743 30.391 15.6108 30.6074ZM1.01521 38.2797C0.139649 38.6413 -0.179556 39.5796 0.0965168 40.9801C0.566051 43.3623 2.2895 45.1652 4.6952 45.7907C5.39472 45.9726 8.95725 46 31.9467 46C51.0059 46 58.6016 45.956 59.1381 45.8422C61.5551 45.3299 63.4473 43.3745 63.9001 40.9212C64.1139 39.7629 63.9932 39.1418 63.4543 38.6263C63.0615 38.2504 62.9262 38.2118 61.8404 38.1665L60.6553 38.1172V38.6925V39.2679H61.6217C62.8184 39.2679 62.9753 39.4111 62.8584 40.3962C62.6587 42.0801 61.4809 43.6708 59.8826 44.4152L59.0396 44.8079H31.9944H4.94907L4.09065 44.4118C2.52638 43.6902 1.32852 42.0678 1.13112 40.4033C0.984164 39.1651 -0.093574 39.2679 13.0264 39.2679H24.6521L24.7253 39.9162C24.7795 40.3964 24.9123 40.678 25.238 41.0031L25.6774 41.4418H31.9944H38.3113L38.7508 41.0031C39.0764 40.678 39.2092 40.3964 39.2634 39.9162L39.3366 39.2679H43.744H48.1513V38.7069V38.1459L24.7237 38.1547C11.8385 38.1596 1.16976 38.2159 1.01521 38.2797ZM38.1761 39.6606C38.1761 39.8766 38.1003 40.1291 38.0075 40.2216C37.7652 40.4636 26.2235 40.4636 25.9812 40.2216C25.8884 40.1291 25.8126 39.8766 25.8126 39.6606V39.2679H31.9944H38.1761V39.6606Z" fill="#56A409"/>
</svg>
