<svg width="53" height="46" viewBox="0 0 53 46" fill="none" xmlns="http://www.w3.org/2000/svg">
<path fill-rule="evenodd" clip-rule="evenodd" d="M4.65678 0.15184C2.41614 0.626707 0.507499 2.54317 0.108938 4.71875C0.0331596 5.13235 -0.0012098 10.904 3.24705e-05 23.0377C0.00158531 37.8424 0.025706 40.8633 0.147034 41.4259C0.511847 43.118 1.74687 44.6517 3.32931 45.3779C3.80324 45.5953 4.46733 45.8229 4.80523 45.8836C5.66933 46.0388 47.3307 46.0388 48.1948 45.8836C50.4344 45.4813 52.38 43.6195 52.853 41.4259C52.9743 40.8633 52.9984 37.8424 53 23.0377C53.0012 10.904 52.9668 5.13235 52.8911 4.71875C52.5913 3.08215 51.303 1.40221 49.7849 0.667721C48.3062 -0.0477347 49.8393 -0.00407475 26.4482 0.0029475C8.74591 0.00823963 5.22087 0.0323595 4.65678 0.15184ZM47.8298 1.82578C49.1735 2.07624 50.2673 2.9122 50.8595 4.14119L51.1901 4.82724L51.222 8.46558L51.2537 12.1039H26.5H1.74625L1.77803 8.46558L1.80991 4.82724L2.14046 4.14119C2.71418 2.95056 3.83191 2.07533 5.08909 1.83209C5.74749 1.70467 47.1476 1.69857 47.8298 1.82578ZM5.91427 4.27675C4.17136 4.60751 3.20798 6.49568 3.97177 8.08393C4.78774 9.78067 7.0791 10.1485 8.41423 8.79705C8.84747 8.35841 9.21176 7.49824 9.21176 6.91356C9.21176 6.25255 8.84447 5.45537 8.32178 4.98162C7.60261 4.32998 6.82826 4.10323 5.91427 4.27675ZM13.8703 4.47907C12.8495 4.93267 12.2149 5.88688 12.2172 6.96444C12.2222 9.36565 15.1505 10.5497 16.8798 8.84966C18.6094 7.14926 17.4011 4.27197 14.9573 4.27197C14.5542 4.27197 14.1726 4.34463 13.8703 4.47907ZM22.4682 4.44335C22.2062 4.53423 21.801 4.80647 21.5279 5.07495C19.7991 6.77443 21.004 9.65325 23.4461 9.65814C24.9734 9.66119 26.1849 8.46965 26.1849 6.96444C26.1849 5.08624 24.2998 3.80758 22.4682 4.44335ZM7.1672 6.31432C7.47207 6.63246 7.52321 6.95365 7.33397 7.36186C7.17972 7.69465 6.59917 7.96445 6.21552 7.88161C5.33671 7.69191 5.1892 6.47339 5.99698 6.07699C6.44492 5.85717 6.79773 5.92881 7.1672 6.31432ZM15.6727 6.31076C16.0477 6.74879 16.0347 7.24391 15.6381 7.6338C15.4141 7.85403 15.2373 7.93127 14.9573 7.93127C14.0962 7.93127 13.64 6.86237 14.2467 6.26588C14.6548 5.8648 15.3086 5.88536 15.6727 6.31076ZM24.127 6.29509C24.5363 6.69749 24.5488 7.27739 24.1567 7.663C23.5499 8.25939 22.4626 7.81098 22.4626 6.96444C22.4626 6.68915 22.5412 6.51532 22.7652 6.29509C23.1828 5.88454 23.7093 5.88454 24.127 6.29509ZM51.2418 27.2465C51.2418 42.0523 51.2743 41.3043 50.5867 42.3605C50.1349 43.0541 49.5944 43.5095 48.7622 43.8971L48.0844 44.2129H26.5H4.91559L4.23782 43.8971C3.40561 43.5095 2.86512 43.0541 2.41335 42.3605C1.72575 41.3043 1.75815 42.0523 1.75815 27.2465V13.834H26.5H51.2418V27.2465ZM27.4843 19.0498C27.232 19.2642 27.0988 19.8202 25.4003 27.7469C23.7541 35.4291 23.5986 36.2412 23.7239 36.4983C24.0136 37.0926 24.7775 37.1594 25.1668 36.6245C25.2841 36.4634 25.9662 33.4859 27.1142 28.1241C28.086 23.5854 28.881 19.7978 28.881 19.7073C28.881 19.4103 28.6557 19.0489 28.3989 18.9338C28.0224 18.7652 27.7837 18.7955 27.4843 19.0498ZM20.3894 22.4561C19.818 22.8468 14.5881 27.2939 14.4917 27.4708C14.299 27.8249 14.3771 28.1666 14.7296 28.5113C15.2933 29.0624 20.2903 33.211 20.5638 33.3549C20.8761 33.5191 21.4771 33.3578 21.6353 33.0675C21.8254 32.7181 21.7522 32.2727 21.4533 31.9609C21.2968 31.7975 20.167 30.8292 18.9429 29.8092C17.7187 28.7891 16.7039 27.9213 16.6877 27.8806C16.6715 27.84 17.71 26.9258 18.9955 25.8491C20.281 24.7725 21.4239 23.7954 21.5354 23.6778C21.8237 23.3735 21.7999 22.8416 21.4838 22.5309C21.1839 22.236 20.7542 22.2066 20.3894 22.4561ZM31.5162 22.5309C31.2001 22.8416 31.1763 23.3735 31.4646 23.6778C31.5761 23.7954 32.719 24.7725 34.0045 25.8491C35.29 26.9258 36.3285 27.84 36.3123 27.8806C36.2961 27.9213 35.2813 28.7891 34.0571 29.8092C32.833 30.8292 31.7032 31.7975 31.5467 31.9609C31.2478 32.2727 31.1746 32.7181 31.3647 33.0675C31.5229 33.3578 32.1239 33.5191 32.4362 33.3549C32.7097 33.211 37.7067 29.0624 38.2704 28.5113C38.6229 28.1666 38.701 27.8249 38.5083 27.4708C38.4119 27.2939 33.182 22.8468 32.6106 22.4561C32.2458 22.2066 31.8161 22.236 31.5162 22.5309Z" fill="#FCB900"/>
</svg>
