<svg width="46" height="54" viewBox="0 0 46 54" fill="none" xmlns="http://www.w3.org/2000/svg">
<path fill-rule="evenodd" clip-rule="evenodd" d="M21.5741 0.647346C18.9975 2.08851 18.2206 2.50142 16.2517 3.47581C11.9211 5.61902 7.29062 7.42578 2.54412 8.82428C0.872538 9.31681 0.550938 9.44565 0.296716 9.72486L0 10.0506L0.0422822 17.7769C0.0779218 24.3041 0.11198 25.6916 0.261709 26.7175C1.11179 32.5424 2.92456 37.2108 6.08879 41.724C9.80954 47.0312 15.9851 51.9328 21.1336 53.6656C22.944 54.2749 24.2615 54.0838 26.9226 52.8256C31.7376 50.5492 36.6938 46.3131 39.9112 41.724C43.0754 37.2108 44.8882 32.5424 45.7383 26.7175C45.888 25.6916 45.9221 24.3041 45.9577 17.7769L46 10.0506L45.7033 9.72486C45.449 9.44565 45.1277 9.31692 43.4559 8.8246C37.0186 6.9286 31.0671 4.36784 24.318 0.590214C23.7381 0.265591 23.1439 0 22.9976 0C22.8512 0 22.2107 0.291358 21.5741 0.647346ZM24.9338 3.52523C30.6577 6.65953 36.4213 9.07942 42.6914 10.9808L43.7722 11.3086L43.7717 16.8746C43.7715 19.9359 43.7224 23.2247 43.6629 24.1831C43.1559 32.331 39.9101 39.3969 34.1092 44.981C31.0201 47.9546 27.6507 50.2063 24.5599 51.3626C23.2262 51.8615 22.7738 51.8615 21.4401 51.3626C18.3493 50.2063 14.9799 47.9546 11.8908 44.981C6.08995 39.3969 2.84411 32.331 2.33714 24.1831C2.27756 23.2247 2.22853 19.9359 2.22832 16.8746L2.22779 11.3086L3.30858 10.9827C5.27751 10.3891 8.78622 9.1809 10.5015 8.50578C14.0452 7.11109 18.5207 4.99174 21.5238 3.28626C22.2487 2.87451 22.9054 2.537 22.9831 2.53605C23.0608 2.53521 23.9387 2.98032 24.9338 3.52523ZM14.8099 9.15535C14.497 9.21638 14.0723 9.6615 14.0086 9.99521C13.9276 10.4193 14.1242 10.9656 14.4299 11.1662C14.7776 11.3943 15.3925 11.3838 15.7588 11.1434C16.4307 10.7025 16.3185 9.54819 15.5735 9.23645C15.3703 9.15144 15.1669 9.08829 15.1215 9.09621C15.0762 9.10413 14.936 9.13074 14.8099 9.15535ZM11.4013 10.5522C11.2563 10.601 10.3785 10.9253 9.45062 11.2726C8.52272 11.62 7.14944 12.1078 6.39889 12.3566C5.60196 12.6207 4.9364 12.9069 4.79933 13.0442C4.47225 13.3718 4.42079 13.8772 4.46033 16.3688C4.48996 18.2256 4.52128 18.5723 4.68081 18.8074C5.02297 19.3117 5.58699 19.4477 6.14267 19.16C6.67347 18.8851 6.76183 18.4976 6.76183 16.4454V14.6148L7.52629 14.3714C9.68639 13.6836 12.3969 12.6059 12.6831 12.321C13.5087 11.4991 12.5436 10.1672 11.4013 10.5522ZM32.2262 16.5103C31.9943 16.5862 31.6147 16.7712 31.3827 16.9216C31.1507 17.0719 28.352 19.8122 25.1633 23.0109L19.3657 28.8268L17.0969 26.5637C14.384 23.8575 14.1491 23.7078 12.6139 23.7078C11.819 23.7078 11.5794 23.75 11.1377 23.9676C9.25449 24.8956 8.4739 27.0163 9.32862 28.8824C9.5821 29.4357 10.0958 29.993 13.3834 33.2808C17.7772 37.6749 17.7344 37.6434 19.3095 37.6458C21.0879 37.6486 20.5074 38.129 28.9788 29.6438C37.4192 21.1896 36.9712 21.7297 36.9712 20.0117C36.9712 19.2038 36.9296 18.9742 36.6944 18.4805C36.3393 17.7354 35.65 17.0451 34.915 16.6989C34.2295 16.3758 32.9187 16.284 32.2262 16.5103ZM33.8274 18.6988C34.5259 18.9638 34.8988 19.681 34.7038 20.3847C34.6242 20.6722 33.0317 22.3221 27.2987 28.0569C20.6821 34.6755 19.9558 35.37 19.5793 35.4383C19.2534 35.4973 19.0696 35.4636 18.7267 35.2814C18.4704 35.1452 16.87 33.6215 14.8558 31.5962C11.2445 27.9648 11.0891 27.7679 11.26 27.0408C11.3742 26.5549 11.8008 26.0981 12.2545 25.9757C13.0553 25.7597 13.2279 25.8836 16.0935 28.7316C17.5433 30.1724 18.8634 31.4019 19.0268 31.4635C19.1904 31.5251 19.4513 31.5461 19.6067 31.5101C19.7953 31.4665 21.9802 29.3566 26.1633 25.1788C29.6139 21.7325 32.5795 18.8397 32.7534 18.7502C33.1263 18.5583 33.4203 18.5443 33.8274 18.6988ZM35.3225 36.6459C35.2276 36.7014 34.8267 37.2036 34.4316 37.7619C32.9935 39.7936 31.3341 41.5767 29.298 43.2778C28.2261 44.1735 28.0226 44.4431 28.0412 44.9422C28.0596 45.4302 28.2137 45.6903 28.6044 45.8927C29.1511 46.1758 29.5282 46.0202 30.7751 44.9971C33.4138 42.8319 37.0239 38.6063 37.0239 37.6827C37.0239 37.2487 36.7461 36.7593 36.432 36.6397C36.0959 36.5117 35.5467 36.5147 35.3225 36.6459ZM25.8879 45.7239C25.19 46.0063 24.9987 46.9594 25.522 47.546C26.3435 48.4669 27.8673 47.4687 27.3894 46.3229C27.1505 45.7505 26.4816 45.4837 25.8879 45.7239Z" fill="#E8146D"/>
</svg>
