<svg width="46" height="46" viewBox="0 0 46 46" fill="none" xmlns="http://www.w3.org/2000/svg">
<path fill-rule="evenodd" clip-rule="evenodd" d="M5.94062 0.114122C5.48558 0.257595 4.70946 1.06149 4.56992 1.53392C4.41045 2.07386 4.41045 9.78298 4.56992 10.3229C4.7204 10.8324 5.48845 11.6006 5.99773 11.7512C6.53752 11.9107 14.2444 11.9107 14.7842 11.7512C15.2934 11.6006 16.0615 10.8324 16.212 10.3229C16.3694 9.78984 16.3716 2.07229 16.2145 1.54764C16.1538 1.34528 15.9239 0.979038 15.7034 0.733734C15.0328 -0.0124709 15.0613 -0.00857572 10.3513 0.00236789C7.65622 0.00858163 6.15461 0.0466987 5.94062 0.114122ZM20.6152 1.9175C19.176 2.87377 17.9984 3.6771 17.9983 3.7026C17.9982 3.76085 23.2119 7.22682 23.2997 7.22682C23.365 7.22682 24.1128 6.1664 24.1128 6.07366C24.1128 6.04602 23.581 5.66809 22.9312 5.23397L21.7496 4.44454H22.8421C27.1406 4.44454 31.1346 5.82121 34.5432 8.47763C36.1115 9.69988 37.956 11.8325 39.0163 13.6492C39.247 14.0445 39.477 14.368 39.5274 14.368C39.6958 14.368 40.7088 13.7701 40.7088 13.6707C40.7088 13.4975 39.6061 11.7531 38.9219 10.8438C38.5572 10.3592 37.7567 9.45922 37.1427 8.84387C35.4345 7.13129 33.8064 5.96997 31.6899 4.95435C28.9387 3.63397 25.9729 2.96066 22.9086 2.96066H21.7496L22.9312 2.17124C23.581 1.73711 24.1128 1.35919 24.1128 1.33155C24.1128 1.23733 23.3645 0.178393 23.2981 0.178578C23.2617 0.178671 22.0544 0.961232 20.6152 1.9175ZM14.6136 1.70447L14.8413 1.93206V5.92842V9.92478L14.6136 10.1524L14.3861 10.3801H10.3909H6.39576L6.16824 10.1524L5.94062 9.92478V5.92842V1.93206L6.16824 1.70447L6.39576 1.47679H10.3909H14.3861L14.6136 1.70447ZM10.8326 5.16144L8.91075 7.0839L8.46553 6.64532C8.22067 6.40401 7.9785 6.20665 7.92732 6.20665C7.808 6.20665 6.96049 7.06452 6.96049 7.18527C6.96049 7.23544 7.39875 7.71343 7.93446 8.24745L8.90852 9.21846L11.3649 6.76264C12.716 5.41185 13.8214 4.26314 13.8214 4.20981C13.8214 4.0886 12.9665 3.23889 12.8445 3.23889C12.795 3.23889 11.8898 4.10399 10.8326 5.16144ZM20.0165 14.0091C19.7362 14.8796 19.6006 14.9436 18.8448 14.5619C18.5325 14.4042 18.2233 14.2752 18.1576 14.2752C18.0028 14.2752 14.285 17.9958 14.285 18.1507C14.285 18.2155 14.4139 18.524 14.5716 18.8364C14.9532 19.5924 14.8892 19.7281 14.0189 20.0085L13.3578 20.2214V22.993V25.7646L14.0189 25.9776C14.8892 26.2579 14.9532 26.3936 14.5716 27.1496C14.4139 27.462 14.285 27.7713 14.285 27.837C14.285 27.9918 18.0044 31.7108 18.1593 31.7108C18.2241 31.7108 18.5325 31.5818 18.8448 31.4241C19.6006 31.0424 19.7362 31.1064 20.0165 31.977L20.2294 32.6382H23.0002H25.771L25.9839 31.977C26.2641 31.1064 26.3998 31.0424 27.1556 31.4241C27.4678 31.5818 27.7771 31.7108 27.8428 31.7108C27.9975 31.7108 31.7154 27.9903 31.7154 27.8354C31.7154 27.7706 31.5864 27.462 31.4288 27.1496C31.0472 26.3936 31.1112 26.2579 31.9815 25.9776L32.6426 25.7646V22.993V20.2214L31.9815 20.0085C31.1112 19.7281 31.0472 19.5924 31.4288 18.8364C31.5864 18.524 31.7154 18.2148 31.7154 18.149C31.7154 17.9942 27.996 14.2752 27.8411 14.2752C27.7763 14.2752 27.4678 14.4042 27.1556 14.5619C26.3998 14.9436 26.2641 14.8796 25.9839 14.0091L25.771 13.3478H23.0002H20.2294L20.0165 14.0091ZM4.58884 15.0867C4.45857 15.38 4.18896 16.1067 3.98953 16.7017C2.63199 20.7528 2.66825 25.3351 4.08883 29.2286C4.23977 29.6424 4.35112 29.9929 4.33637 30.0078C4.32154 30.0225 3.62303 29.6578 2.78395 29.1971C1.94498 28.7364 1.22004 28.352 1.17294 28.3426C1.12593 28.3333 0.931693 28.6066 0.741257 28.95L0.395059 29.5742L3.14462 31.0936C6.65638 33.0341 6.49024 32.9505 6.54327 32.8038C6.62996 32.564 8.13658 26.1917 8.11349 26.1623C8.08197 26.1221 6.7414 25.778 6.71581 25.8036C6.68651 25.833 5.84819 29.3452 5.84652 29.4458C5.83929 29.8774 5.07105 27.569 4.82582 26.3792C4.15363 23.1172 4.44819 19.6089 5.65923 16.4547C5.8747 15.8936 6.07209 15.3638 6.09796 15.2774C6.13412 15.1567 6.00033 15.0547 5.52007 14.8369C5.17628 14.681 4.8795 14.5535 4.8604 14.5535C4.8413 14.5535 4.7191 14.7935 4.58884 15.0867ZM24.9027 15.3479L25.0863 15.8641L25.8512 16.1699L26.616 16.4756L27.0981 16.2521L27.5801 16.0288L28.7712 17.2203L29.9623 18.4117L29.7391 18.8939L29.5157 19.3762L29.8213 20.1412L30.127 20.9063L30.6431 21.0899L31.1591 21.2736V22.993V24.7125L30.6431 24.8961L30.127 25.0797L29.8213 25.8449L29.5157 26.6099L29.7391 27.0921L29.9623 27.5743L28.7712 28.7658L27.5801 29.9572L27.0981 29.7339L26.616 29.5105L25.8512 29.8162L25.0863 30.1219L24.9027 30.6381L24.7191 31.1544H23.0002H21.2813L21.0977 30.6379L20.9141 30.1213L20.1549 29.8132L19.3958 29.5051L18.908 29.7312L18.4203 29.9572L17.2291 28.7658L16.038 27.5743L16.2613 27.0921L16.4846 26.6099L16.1791 25.8449L15.8734 25.0797L15.3573 24.8961L14.8413 24.7125V22.993V21.2736L15.3573 21.0899L15.8734 20.9063L16.1791 20.1412L16.4846 19.3762L16.2613 18.8939L16.038 18.4117L17.2291 17.2203L18.4203 16.0288L18.908 16.2548L19.3958 16.4809L20.1549 16.1728L20.9141 15.8648L21.0977 15.3482L21.2813 14.8317H23.0002H24.7191L24.9027 15.3479ZM21.7118 17.2009C20.6884 17.423 19.6188 18.0218 18.826 18.8163C16.5063 21.1411 16.4872 24.8399 18.7832 27.1201C19.917 28.246 21.1589 28.8151 22.6672 28.8997C25.3731 29.0514 27.8549 27.3221 28.6817 24.7088C28.973 23.7881 28.973 22.1979 28.6817 21.2773C27.7477 18.3248 24.7127 16.5497 21.7118 17.2009ZM35.6094 17.1787C35.1544 17.3222 34.3783 18.1261 34.2387 18.5985C34.1578 18.8725 34.126 20.1136 34.126 22.993C34.126 25.8725 34.1578 27.1136 34.2387 27.3875C34.3892 27.897 35.1573 28.6652 35.6665 28.8158C36.2063 28.9753 43.9132 28.9753 44.453 28.8158C44.9622 28.6652 45.7303 27.897 45.8808 27.3875C46.0382 26.8544 46.0404 19.1369 45.8833 18.6122C45.8226 18.4099 45.5927 18.0436 45.3722 17.7983C44.7016 17.0521 44.7301 17.056 40.0201 17.067C37.325 17.0732 35.8234 17.1113 35.6094 17.1787ZM24.0625 18.6834C25.6617 19.1001 26.8934 20.3361 27.3122 21.9444C27.9127 24.2506 26.4369 26.684 24.0625 27.3027C21.7463 27.9061 19.3111 26.4339 18.6918 24.0557C17.8662 20.8848 20.8926 17.8575 24.0625 18.6834ZM44.2825 18.7691L44.5101 18.9967V22.993V26.9894L44.2825 27.217L44.0549 27.4447H40.0598H36.0646L35.837 27.217L35.6094 26.9894V22.993V18.9967L35.837 18.7691L36.0646 18.5414H40.0598H44.0549L44.2825 18.7691ZM22.3048 20.1058C21.4498 20.3305 20.6988 20.9474 20.314 21.741C20.1311 22.1181 20.0886 22.3519 20.0862 22.993C20.0834 23.7159 20.1093 23.8299 20.3981 24.3657C20.749 25.0166 21.0399 25.2976 21.7386 25.6608C22.1424 25.8706 22.3281 25.9069 23.0002 25.9069C23.6723 25.9069 23.858 25.8706 24.2618 25.6608C24.9605 25.2976 25.2514 25.0166 25.6022 24.3657C25.8907 23.8306 25.9171 23.7149 25.9152 22.993C25.9135 22.3231 25.8762 22.1336 25.6671 21.7311C25.3058 21.0356 25.0227 20.7406 24.3957 20.4063C23.7981 20.0877 22.8772 19.9552 22.3048 20.1058ZM40.5014 22.226L38.5796 24.1485L38.1343 23.7099C37.8895 23.4686 37.6473 23.2713 37.5961 23.2713C37.4768 23.2713 36.6293 24.1291 36.6293 24.2499C36.6293 24.3 37.0676 24.778 37.6033 25.312L38.5773 26.2831L41.0337 23.8272C42.3848 22.4764 43.4902 21.3277 43.4902 21.2744C43.4902 21.1532 42.6353 20.3035 42.5133 20.3035C42.4639 20.3035 41.5586 21.1686 40.5014 22.226ZM23.587 21.6356C24.5395 22.0338 24.7718 23.283 24.031 24.0241C22.9893 25.0661 21.2824 24.1328 21.5564 22.6711C21.7203 21.798 22.736 21.28 23.587 21.6356ZM37.2805 31.8175C35.4716 32.275 33.9811 32.6595 33.9685 32.6721C33.9559 32.6847 33.9835 32.8387 34.0298 33.0144C34.0762 33.19 34.1588 33.5062 34.2134 33.717L34.3126 34.1002L36.3173 33.5973C37.4198 33.3207 38.3587 33.1067 38.4038 33.1217C38.5555 33.1723 36.9899 35.1445 36.0406 36.0987C30.7949 41.3713 22.8158 42.9808 15.9538 40.1504C15.5828 39.9973 15.2625 39.8721 15.2419 39.8721C15.1965 39.8721 14.6558 41.0656 14.6558 41.1659C14.6558 41.2877 16.8268 42.0872 17.9215 42.3687C19.7815 42.8468 20.8209 42.9732 22.9075 42.9749C24.9966 42.9767 25.9851 42.8696 27.6359 42.4626C30.6381 41.7225 33.1863 40.4636 35.5631 38.5461C36.5726 37.7316 38.2201 36.012 38.9378 35.0237C39.263 34.5759 39.545 34.2255 39.5646 34.2451C39.5842 34.2647 39.7027 35.0858 39.828 36.0697C39.9532 37.0536 40.0713 37.8742 40.0903 37.8932C40.1235 37.9265 41.4639 37.7566 41.5067 37.7137C41.5182 37.7022 41.3438 36.232 41.1191 34.4467C40.8945 32.6614 40.7101 31.1486 40.7097 31.0848C40.7091 31.0211 40.6775 30.9727 40.6392 30.9773C40.6009 30.9819 39.0896 31.3601 37.2805 31.8175ZM1.4903 34.2433C1.03526 34.3868 0.259138 35.1907 0.119602 35.6631C-0.0398675 36.2031 -0.0398675 43.9122 0.119602 44.4521C0.270079 44.9616 1.03813 45.7298 1.54741 45.8804C2.0872 46.0399 9.79404 46.0399 10.3338 45.8804C10.8431 45.7298 11.6112 44.9616 11.7616 44.4521C11.9191 43.919 11.9213 36.2015 11.7641 35.6768C11.7035 35.4745 11.4736 35.1082 11.2531 34.8629C10.5825 34.1167 10.611 34.1206 5.90094 34.1316C3.2059 34.1378 1.70429 34.1759 1.4903 34.2433ZM10.1633 35.8337L10.3909 36.0613V40.0576V44.054L10.1633 44.2816L9.93581 44.5093H5.94062H1.94544L1.71792 44.2816L1.4903 44.054V40.0576V36.0613L1.71792 35.8337L1.94544 35.606H5.94062H9.93581L10.1633 35.8337ZM6.38232 39.2906L4.46043 41.2131L4.01521 40.7745C3.77035 40.5332 3.52818 40.3358 3.477 40.3358C3.35767 40.3358 2.51017 41.1937 2.51017 41.3145C2.51017 41.3646 2.94843 41.8426 3.48414 42.3766L4.4582 43.3477L6.91459 40.8918C8.26564 39.541 9.37108 38.3923 9.37108 38.339C9.37108 38.2178 8.51615 37.3681 8.39414 37.3681C8.34472 37.3681 7.43945 38.2332 6.38232 39.2906Z" fill="#FF6900"/>
</svg>
