<svg width="46" height="60" viewBox="0 0 46 60" fill="none" xmlns="http://www.w3.org/2000/svg">
<path fill-rule="evenodd" clip-rule="evenodd" d="M3.31988 0.091395C2.08167 0.340087 0.947937 1.2563 0.337094 2.50218L0.0504835 3.08668L0.0178183 29.7787C-0.0185323 59.4292 -0.0888178 57.0189 0.849689 58.2663C1.43498 59.0441 2.40069 59.6484 3.37148 59.8443C4.39959 60.0519 33.4501 60.0519 34.4782 59.8443C35.4494 59.6484 36.4151 59.0438 36.9991 58.2663C37.8758 57.099 37.8627 57.2237 37.8627 50.0688V43.6412H41.2985C44.9847 43.6412 45.3738 43.5846 45.7898 42.9876C45.9741 42.7232 45.9971 42.0416 45.9971 36.8367C45.9971 30.4873 45.9926 30.4429 45.3017 30.1266C45.0687 30.0198 43.8994 29.974 41.4156 29.974H37.8627V28.6522V27.3305L39.1757 27.2498C40.7559 27.1525 41.88 26.825 42.8923 26.167C44.3531 25.2173 45.5313 23.5026 45.8788 21.8207C46.2113 20.2109 45.8432 18.1691 44.9755 16.8101C43.6872 14.7926 41.8302 13.7719 39.2331 13.6538L37.8708 13.592L37.835 8.33935C37.7998 3.18312 37.794 3.07595 37.5126 2.50218C37.0469 1.55251 36.4013 0.898909 35.4771 0.441633L34.6272 0.0211433L19.2454 0.00172814C10.7854 -0.00900124 3.61882 0.0313616 3.31988 0.091395ZM9.89247 5.2991C10.8656 7.24035 11.2383 7.86611 11.4904 7.98145C11.9592 8.19616 25.8904 8.19616 26.3593 7.98145C26.6113 7.86611 26.9841 7.24035 27.9572 5.2991L29.2264 2.76735H31.6444C33.5907 2.76735 34.1374 2.80644 34.4473 2.96738C35.1662 3.34099 35.1936 3.55647 35.1936 8.83047V13.6245H24.8389H14.4843L10.0868 16.5671C6.29732 19.1031 5.66335 19.5725 5.50104 19.963C5.35017 20.3259 5.34166 20.5044 5.45821 20.8595C5.58772 21.2537 6.09256 21.6316 10.0083 24.2653L14.4128 27.2278L24.8032 27.2619L35.1936 27.296V28.635V29.974H20.825C8.03072 29.974 6.41425 29.996 6.07147 30.174C5.34089 30.5538 5.32513 30.694 5.32513 36.8161C5.32513 41.6266 5.35259 42.4472 5.52557 42.8137C5.93979 43.6909 5.01844 43.6412 20.8823 43.6412H35.1936V47.7286V51.8159H18.9248H2.65603V27.86C2.65603 6.72739 2.67866 3.86022 2.84834 3.53067C3.20129 2.8445 3.49324 2.77808 6.17976 2.77246L8.62325 2.76735L9.89247 5.2991ZM25.5043 4.10853L24.8406 5.4497H18.9248H13.0091L12.3454 4.10853L11.6817 2.76735H18.9248H26.168L25.5043 4.10853ZM37.8627 17.7118V19.1169H27.0592H16.2557V17.7118V16.3068H27.0592H37.8627V17.7118ZM41.5668 17.1088C43.9259 18.9171 43.8925 22.1919 41.4983 23.811C41.1606 24.0392 40.8337 24.2261 40.7717 24.2261C40.7086 24.2261 40.6589 22.5648 40.6589 20.4581C40.6589 16.2313 40.6181 16.3817 41.5668 17.1088ZM13.4595 20.46V23.3357L11.3624 21.927C10.209 21.1521 9.26676 20.4759 9.26867 20.4242C9.27146 20.3503 13.3037 17.5997 13.4278 17.5873C13.4452 17.5855 13.4595 18.8783 13.4595 20.46ZM37.8627 23.1404V24.4816H27.0592H16.2557V23.1404V21.7992H27.0592H37.8627V23.1404ZM43.328 36.7437V40.8311H41.9935H40.6589V40.1245C40.6589 39.7358 40.5776 39.2223 40.4783 38.9833C40.2915 38.5341 39.7295 38.1488 39.2608 38.1488C38.7922 38.1488 38.2302 38.5341 38.0434 38.9833C37.9441 39.2223 37.8627 39.7358 37.8627 40.1245V40.8311H36.542H35.2215L35.1737 39.8812C35.1342 39.0942 35.0738 38.8755 34.8217 38.6059C34.4073 38.1626 33.7433 38.0501 33.2183 38.3344C32.682 38.6246 32.5245 39.0043 32.5245 40.0069V40.8311H31.1264H29.7283V39.9945C29.7283 39.5128 29.65 39.0057 29.5437 38.799C29.1681 38.0692 28.0302 37.9651 27.4311 38.6059C27.1791 38.8755 27.1187 39.0942 27.0792 39.8812L27.0314 40.8311H25.7108H24.3901V40.1245C24.3901 39.2186 24.131 38.6019 23.6438 38.3488C23.1575 38.0961 22.8266 38.0961 22.3403 38.3488C21.8531 38.6019 21.5939 39.2186 21.5939 40.1245V40.8311H20.2732H18.9527L18.9049 39.8812C18.8654 39.0942 18.805 38.8755 18.5529 38.6059C18.1385 38.1626 17.4745 38.0501 16.9494 38.3344C16.4132 38.6246 16.2557 39.0043 16.2557 40.0069V40.8311H14.8576H13.4595V39.9945C13.4595 39.5128 13.3812 39.0057 13.2749 38.799C12.8993 38.0692 11.7614 37.9651 11.1623 38.6059C10.9103 38.8755 10.8499 39.0942 10.8104 39.8812L10.7626 40.8311H9.44203H8.12134V36.7437V32.6563H25.7247H43.328V36.7437ZM35.1936 55.2049C35.1936 55.5936 35.1123 56.1071 35.013 56.346C34.643 57.2359 35.7097 57.1806 18.9248 57.1806C2.30003 57.1806 3.26459 57.2264 2.84884 56.4185C2.73878 56.2046 2.65603 55.7119 2.65603 55.2711V54.4983H18.9248H35.1936V55.2049Z" fill="#9549D1"/>
</svg>
