<svg width="69" height="46" viewBox="0 0 69 46" fill="none" xmlns="http://www.w3.org/2000/svg">
<path fill-rule="evenodd" clip-rule="evenodd" d="M6.11259 0.273749C5.36433 0.608705 4.69132 1.22952 4.30096 1.94462L4.00731 2.48271L3.93939 19.7013L3.87148 36.9199L2.17951 36.9578C-0.0884947 37.0088 0.000470797 36.914 0.000470797 39.2829C0.000470797 40.6964 0.0588755 41.3188 0.24808 41.9188C0.832534 43.7733 2.24878 45.1759 4.12126 45.7548C4.87849 45.9888 6.25399 46 34.4978 46C63.7737 46 64.0904 45.9972 64.9676 45.7288C65.9094 45.4408 67.0331 44.6942 67.6333 43.958C68.7332 42.6085 68.9996 41.6948 68.9996 39.2704C68.9996 36.9158 69.0872 37.0088 66.8205 36.9578L65.1285 36.9199L65.0606 19.7013L64.9927 2.48271L64.6991 1.94462C64.3087 1.22952 63.6357 0.608705 62.8874 0.273749C62.2792 0.00134568 62.143 0 34.5 0C6.85705 0 6.72082 0.00134568 6.11259 0.273749ZM62.3387 2.09744C63.2176 2.61158 63.1591 1.33269 63.1591 20.0247V36.9871H52.382C42.2882 36.9871 41.5918 37.0021 41.3963 37.2226C41.2815 37.352 41.142 37.6093 41.0863 37.7943C41.0306 37.9792 40.8661 38.4484 40.7209 38.8368L40.4568 39.543H34.5079H28.5589L28.1878 38.5005C27.9838 37.9272 27.7219 37.352 27.6059 37.2226C27.4085 37.0021 26.711 36.9871 16.618 36.9871H5.84094V20.0247C5.84094 1.38421 5.78553 2.62826 6.63864 2.1039C6.96544 1.90306 9.31195 1.88423 34.4791 1.881C59.6814 1.87763 61.9938 1.89566 62.3387 2.09744ZM8.20552 3.75688C8.04932 3.81943 7.8498 4.0426 7.76205 4.25286C7.64239 4.53938 7.61156 8.38209 7.63859 19.6122L7.67458 34.5896L7.99526 34.8467C8.30848 35.0979 8.92227 35.1039 34.5 35.1039C60.0778 35.1039 60.6916 35.0979 61.0048 34.8467L61.3254 34.5896L61.3614 19.6122C61.3885 8.40281 61.3575 4.53912 61.2384 4.2538C61.1509 4.04408 60.9321 3.81715 60.7521 3.74935C60.3358 3.59263 8.59711 3.60003 8.20552 3.75688ZM59.4585 19.3986L59.493 33.2206H34.5007H9.50822V19.4547C9.50822 11.8834 9.5491 5.64824 9.59908 5.59873C9.64907 5.54923 20.8802 5.52394 34.5569 5.54264L59.4239 5.57667L59.4585 19.3986ZM49.2319 12.4547L46.9177 14.8287L44.6205 14.0165C42.8094 13.376 42.2545 13.2302 41.9977 13.3269C41.6678 13.4511 37.2128 17.0226 36.7751 17.5139C36.4194 17.913 36.4725 18.4878 36.8953 18.8171C37.0921 18.9704 37.3639 19.096 37.4993 19.096C37.6347 19.096 38.7846 18.2485 40.0546 17.2127C41.3245 16.1769 42.4475 15.3294 42.5501 15.3294C42.6528 15.3294 43.6492 15.6617 44.7644 16.0678C45.8797 16.4739 46.9656 16.8068 47.1776 16.8076C47.6011 16.8092 47.6282 16.7849 50.9361 13.414C52.6086 11.7094 52.8816 11.3714 52.8816 11.0052C52.8816 10.5006 52.4405 10.0836 51.9045 10.0819C51.6174 10.0809 51.0855 10.5531 49.2319 12.4547ZM22.9761 13.4699C19.8926 13.8176 17.3508 15.8942 16.4194 18.8269C16.0562 19.9707 16.0285 21.9296 16.3596 23.0643C17.3118 26.3267 20.3883 28.6429 23.7698 28.6429C27.7873 28.6429 31.1636 25.5157 31.463 21.5173C31.807 16.9194 27.6175 12.9466 22.9761 13.4699ZM51.3423 14.5223C51.078 14.784 51.0707 14.9706 51.0707 21.4501C51.0707 27.9295 51.078 28.1161 51.3423 28.3778C51.6847 28.717 52.1698 28.7217 52.5836 28.3897L52.9043 28.1326V21.4501V14.7675L52.5836 14.5104C52.1698 14.1784 51.6847 14.1831 51.3423 14.5223ZM22.8191 15.8716C22.8191 16.2712 22.7564 16.4329 22.5814 16.4857C22.4506 16.5251 22.0148 16.708 21.6129 16.8921L20.8823 17.2268L20.5603 16.9272C20.3833 16.7626 20.2392 16.5928 20.24 16.5503C20.2446 16.3396 22.1814 15.414 22.7851 15.3338C22.8037 15.3314 22.8191 15.5734 22.8191 15.8716ZM26.2944 15.8805C27.7234 16.5432 29.09 18.1797 29.4005 19.6004C29.4955 20.0354 29.4934 20.0376 28.9635 20.0376C28.4645 20.0376 28.4212 20.0053 28.2764 19.5267C27.9024 18.2908 26.7292 17.1145 25.3658 16.6084C24.7483 16.3793 24.7206 16.3465 24.7206 15.8466C24.7206 15.3455 24.7358 15.3278 25.0941 15.4106C25.2995 15.4583 25.8397 15.6696 26.2944 15.8805ZM41.884 17.5046C41.3244 17.7728 41.2913 18.0872 41.2913 23.1197C41.2913 27.7905 41.2998 27.9489 41.5728 28.2924C41.9171 28.7261 42.5303 28.765 42.9212 28.3778C43.1833 28.1182 43.1928 27.9295 43.1928 23.0069V17.9048L42.8349 17.6261C42.4386 17.3172 42.3091 17.3006 41.884 17.5046ZM19.2782 18.3461L19.5878 18.6725L19.3377 19.3887C18.9567 20.4802 19.0035 21.9259 19.4509 22.8861C20.2558 24.6137 21.6609 25.5636 23.5514 25.6584C24.456 25.7037 24.7982 25.6592 25.4677 25.4095C26.5589 25.0026 27.8078 23.779 28.2048 22.728C28.4697 22.0269 28.5111 21.9859 28.9981 21.9452L29.5121 21.9025L29.4245 22.3488C29.1276 23.8594 27.7377 25.504 26.114 26.2657C25.2616 26.6655 25.0936 26.6963 23.7628 26.6963C22.3798 26.6963 22.2934 26.6786 21.2965 26.1907C18.4384 24.7917 17.2411 21.5661 18.5009 18.6588C18.6532 18.3073 18.8207 18.0198 18.8732 18.0198C18.9256 18.0198 19.1079 18.1667 19.2782 18.3461ZM25.1903 18.5949C25.4861 18.7607 25.914 19.1584 26.1411 19.4787C26.5013 19.9861 26.5543 20.1757 26.5543 20.9572C26.5543 22.6071 25.6169 23.6652 24.0566 23.777C22.991 23.8534 22.4089 23.641 21.7537 22.937C20.9532 22.0771 20.7202 21.0347 21.1176 20.0926C21.3989 19.4259 21.8073 18.9435 22.388 18.5922C23.0864 18.1695 24.4344 18.1709 25.1903 18.5949ZM46.3924 18.9914C46.2115 19.2472 46.181 19.9243 46.181 23.6761V28.0619L46.4953 28.3544C46.9031 28.7338 47.4164 28.7264 47.7872 28.3356C48.0779 28.029 48.0825 27.9557 48.0825 23.6573C48.0825 18.6968 48.0817 18.6924 47.1317 18.6924C46.7402 18.6924 46.5492 18.7696 46.3924 18.9914ZM36.8953 21.2581L36.5374 21.5368V24.8229C36.5374 27.9295 36.5522 28.1235 36.809 28.3778C37.1513 28.7168 37.6365 28.7217 38.0503 28.39C38.3679 28.1354 38.3714 28.1038 38.4123 25.0724C38.4567 21.7868 38.3971 21.3952 37.8121 21.1312C37.3614 20.9279 37.3101 20.9348 36.8953 21.2581ZM26.636 39.8793C26.8523 40.4712 27.1583 41.0615 27.3161 41.1909C27.5811 41.4083 28.1313 41.4263 34.5 41.4263C40.8703 41.4263 41.4185 41.4083 41.6797 41.1909C41.8352 41.0615 42.1402 40.4712 42.3574 39.8793L42.7522 38.8032L54.9251 38.7759L67.098 38.7486L67.0966 39.9193C67.0946 41.7816 66.4126 42.9555 64.8976 43.7054L64.0665 44.1167H34.5H4.9335L4.10238 43.7054C2.58739 42.9555 1.90542 41.7816 1.90338 39.9193L1.90202 38.7486L14.0725 38.7759L26.2428 38.8032L26.636 39.8793Z" fill="#0073A8"/>
</svg>
