<svg width="46" height="35" viewBox="0 0 46 35" fill="none" xmlns="http://www.w3.org/2000/svg">
<path fill-rule="evenodd" clip-rule="evenodd" d="M3.09939 0.0812436C2.45982 0.234642 1.52613 0.792684 1.07148 1.29308C0.840452 1.54746 0.504765 2.06958 0.325705 2.45313L0 3.15068V17.5144V31.8781L0.384362 32.6672C0.847244 33.6176 1.44308 34.2096 2.39982 34.6695L3.08725 35H23.0054H42.9235L43.701 34.61C44.6377 34.1403 45.2211 33.5357 45.6743 32.5648L46 31.8673V17.509V3.15068L45.6743 2.45313C45.2211 1.4824 44.6377 0.877685 43.7011 0.407986L42.9235 0.0179624L23.2112 0.00167244C11.5436 -0.00793457 3.33587 0.0245414 3.09939 0.0812436ZM42.695 1.76351C43.2603 1.93299 44.1128 2.79804 44.2798 3.37164C44.3486 3.60806 44.4049 4.06617 44.4049 4.38978V4.9781H23H1.59508V4.38978C1.59508 4.06617 1.65137 3.60806 1.72021 3.37164C1.87509 2.83971 2.73654 1.93456 3.24161 1.77302C3.786 1.59894 42.1152 1.58965 42.695 1.76351ZM3.49425 2.72829C3.33495 2.88983 3.24161 3.1039 3.24161 3.30732C3.24161 3.51074 3.33495 3.7248 3.49425 3.88635C3.65345 4.048 3.86441 4.14271 4.06488 4.14271C4.26534 4.14271 4.4763 4.048 4.6355 3.88635C4.79481 3.7248 4.88814 3.51074 4.88814 3.30732C4.88814 3.1039 4.79481 2.88983 4.6355 2.72829C4.4763 2.56664 4.26534 2.47193 4.06488 2.47193C3.86441 2.47193 3.65345 2.56664 3.49425 2.72829ZM6.78732 2.72829C6.62801 2.88983 6.53468 3.1039 6.53468 3.30732C6.53468 3.51074 6.62801 3.7248 6.78732 3.88635C6.94651 4.048 7.15748 4.14271 7.35794 4.14271C7.55841 4.14271 7.76937 4.048 7.92857 3.88635C8.08787 3.7248 8.18121 3.51074 8.18121 3.30732C8.18121 3.1039 8.08787 2.88983 7.92857 2.72829C7.76937 2.56664 7.55841 2.47193 7.35794 2.47193C7.15748 2.47193 6.94651 2.56664 6.78732 2.72829ZM10.0804 2.72829C9.56985 3.24623 9.93157 4.14271 10.651 4.14271C10.8515 4.14271 11.0624 4.048 11.2216 3.88635C11.3809 3.7248 11.4743 3.51074 11.4743 3.30732C11.4743 3.1039 11.3809 2.88983 11.2216 2.72829C11.0624 2.56664 10.8515 2.47193 10.651 2.47193C10.4505 2.47193 10.2396 2.56664 10.0804 2.72829ZM44.4049 18.9327C44.4049 28.272 44.3749 31.3196 44.2798 31.6463C44.1128 32.2199 43.2603 33.085 42.695 33.2544C42.0796 33.439 3.92039 33.439 3.305 33.2544C2.73973 33.085 1.88723 32.2199 1.72021 31.6463C1.62513 31.3196 1.59508 28.272 1.59508 18.9327V6.64889H23H44.4049V18.9327ZM26.6209 10.1732C26.3639 10.3975 18.0604 28.9276 18.0604 29.277C18.0604 29.8785 18.9207 30.257 19.3791 29.8571C19.6361 29.6328 27.9396 11.1027 27.9396 10.7533C27.9396 10.1518 27.0793 9.77336 26.6209 10.1732ZM14.2178 13.567C14.079 13.6963 12.8492 15.1298 11.485 16.7527C9.45027 19.1733 9.00447 19.7596 9.00447 20.0152C9.00447 20.2707 9.45027 20.857 11.485 23.2776C12.8492 24.9005 14.079 26.3341 14.2178 26.4633C14.5482 26.7711 14.9774 26.7628 15.3183 26.4422C15.8708 25.9226 15.8103 25.815 13.2757 22.811C12.0025 21.302 10.9609 20.0439 10.9609 20.0152C10.9609 19.9864 12.0025 18.7283 13.2757 17.2193C15.7971 14.231 15.8608 14.1189 15.338 13.5884C15.0167 13.2623 14.5544 13.2535 14.2178 13.567ZM30.662 13.5884C30.1392 14.1189 30.2029 14.231 32.7243 17.2193C33.9975 18.7283 35.0391 19.9864 35.0391 20.0152C35.0391 20.0439 33.9975 21.302 32.7243 22.811C30.1897 25.815 30.1292 25.9226 30.6817 26.4422C31.0226 26.7628 31.4518 26.7711 31.7822 26.4633C31.921 26.3341 33.1508 24.9005 34.515 23.2776C36.5497 20.857 36.9955 20.2707 36.9955 20.0152C36.9955 19.7596 36.5497 19.1733 34.515 16.7527C33.1508 15.1298 31.921 13.6963 31.7822 13.567C31.4456 13.2535 30.9833 13.2623 30.662 13.5884Z" fill="black"/>
</svg>
