<svg width="51" height="50" viewBox="0 0 51 50" fill="none" xmlns="http://www.w3.org/2000/svg">
<path d="M49.4716 50H8.647C8.55912 49.9616 8.46832 49.93 8.37543 49.9055C6.08614 49.6118 3.98133 48.5138 2.44785 46.8131C0.91437 45.1125 0.0552534 42.9235 0.0284003 40.6486C0.0284003 30.2188 -0.0355004 19.7812 0.0284003 9.35138C0.0284003 5.41562 2.08121 2.56612 5.67562 0.881614C6.63783 0.509891 7.62883 0.215066 8.63902 0H10.612C10.7161 0.0387618 10.8229 0.0703266 10.9315 0.0944606C12.061 0.251833 13.155 0.597897 14.1664 1.11776C14.3938 1.21346 14.5844 1.37787 14.7107 1.58727C14.837 1.79666 14.8926 2.04021 14.8693 2.28275C14.8693 4.84887 14.8693 7.42286 14.8693 9.98898V10.5715H48.8246C49.7431 10.5715 49.9668 10.7919 49.9668 11.6892C49.9668 24.0895 49.9668 36.4846 49.9668 48.8744C49.9987 49.0888 49.9692 49.3078 49.8817 49.5066C49.7942 49.7055 49.6522 49.8763 49.4716 50ZM48.3773 12.1694H14.8773V32.6984C14.8773 33.6036 14.3102 33.9421 13.5115 33.5249C12.0433 32.7526 10.3739 32.4318 8.7189 32.6039C6.65934 32.8393 4.77107 33.8479 3.44665 35.42C2.12223 36.9921 1.46356 39.0067 1.60755 41.045C1.75154 43.0833 2.68713 44.9885 4.21981 46.3646C5.75249 47.7406 7.76436 48.4816 9.83716 48.4336H48.3613L48.3773 12.1694ZM13.2878 31.6357V31.2972C13.2878 21.8042 13.2878 12.3163 13.2878 2.83375C13.3024 2.70065 13.2686 2.56678 13.1926 2.45584C13.1166 2.3449 13.0032 2.26406 12.8724 2.22765C11.6542 1.6996 10.322 1.47801 8.99534 1.58278C7.66872 1.68755 6.38928 2.11539 5.27192 2.82788C4.15456 3.54038 3.23427 4.51521 2.59371 5.66483C1.95314 6.81445 1.61236 8.10286 1.60196 9.41436C1.60196 17.8605 1.60196 26.3067 1.60196 34.745C1.60196 34.863 1.60196 34.9811 1.60196 35.1228C4.71712 31.2972 8.56714 30.1559 13.2878 31.6357Z" fill="#E58B0A"/>
<path d="M35.0082 8.46769C31.0942 8.46769 27.1803 8.46769 23.2664 8.46769C22.8605 8.46109 22.4627 8.35562 22.1082 8.1607C20.6465 7.37355 19.2087 6.53917 17.7709 5.71265C16.9722 5.24036 16.9722 4.5949 17.7709 4.13835C19.2646 3.28035 20.7663 2.42235 22.2759 1.58797C22.5482 1.44177 22.8526 1.3634 23.1626 1.3597C31.0064 1.3597 38.8502 1.3597 46.694 1.3597C47.1333 1.33704 47.5725 1.40562 47.9831 1.56098C48.3938 1.71634 48.7667 1.95502 49.0777 2.26154C49.3888 2.56805 49.631 2.93557 49.7886 3.34025C49.9463 3.74493 50.0159 4.17775 49.9929 4.61064C50.0156 5.08124 49.9942 5.55292 49.929 6.01964C49.7877 6.74235 49.387 7.39073 48.8003 7.84607C48.2135 8.30142 47.48 8.53327 46.7339 8.49917C45.0805 8.49917 43.4271 8.49917 41.7736 8.49917L35.0082 8.46769ZM23.6658 4.09899H48.3075C48.2408 3.71429 48.0235 3.3708 47.7022 3.14257C47.381 2.91434 46.9816 2.81965 46.5902 2.8789H24.1131C23.9693 2.8789 23.8255 2.8789 23.6658 2.8789V4.09899ZM23.6658 6.90126H46.4943C46.7069 6.9206 46.9208 6.9206 47.1333 6.90126C47.4261 6.85911 47.6974 6.72547 47.9073 6.52C48.1173 6.31454 48.2547 6.0481 48.2995 5.75988H23.6658V6.90126ZM19.5362 4.89401L22.0124 6.30302V3.49288L19.5362 4.89401Z" fill="#E58B0A"/>
<path d="M40.5253 23.4735C40.4389 23.6747 40.3374 23.8694 40.2218 24.056C39.7985 24.6542 39.3671 25.2524 38.9118 25.8349C38.8364 25.9399 38.7882 26.0616 38.7715 26.1892C38.7547 26.3168 38.77 26.4465 38.816 26.567C38.8789 26.9288 39.0788 27.2536 39.3753 27.4757C39.6719 27.6978 40.0429 27.8006 40.4135 27.7634C40.9212 27.8114 41.4254 27.8902 41.9232 27.9996C42.1337 28.0118 42.3308 28.1055 42.4714 28.2604C42.6121 28.4152 42.6849 28.6186 42.674 28.8261C42.674 29.8022 42.674 30.7782 42.674 31.7543C42.674 32.266 42.4024 32.5415 41.8752 32.5966C41.1723 32.7146 40.4694 32.8248 39.7665 32.9114C39.6116 32.9341 39.4653 32.9961 39.3421 33.0913C39.2189 33.1865 39.1229 33.3117 39.0636 33.4546C38.8651 33.7388 38.7828 34.0865 38.8331 34.428C38.8835 34.7695 39.0628 35.0797 39.3352 35.2965C39.6822 35.7091 40.0023 36.1429 40.2937 36.5953C40.4289 36.7535 40.4955 36.9578 40.4791 37.1641C40.4626 37.3703 40.3645 37.5619 40.2058 37.6973C39.5189 38.3822 38.84 39.067 38.1371 39.7361C38.0675 39.817 37.9821 39.8833 37.8859 39.9309C37.7897 39.9785 37.6847 40.0064 37.5773 40.013C37.4698 40.0197 37.3622 40.0048 37.2607 39.9694C37.1592 39.934 37.0661 39.8787 36.9868 39.8069C36.3478 39.3661 35.7168 38.9174 35.1018 38.453C35.007 38.3825 34.895 38.3382 34.7771 38.3243C34.6592 38.3105 34.5397 38.3277 34.4308 38.3743C34.0564 38.4272 33.717 38.6204 33.4835 38.9136C33.2499 39.2069 33.14 39.5776 33.1768 39.9486C33.1465 40.4505 33.069 40.9486 32.9451 41.4363C32.8493 41.9952 32.6096 42.2235 32.0505 42.2235C31.1 42.2235 30.1415 42.2235 29.183 42.2235C29.0697 42.2381 28.9546 42.2286 28.8453 42.1957C28.7361 42.1627 28.6353 42.1071 28.5497 42.0325C28.4642 41.9579 28.3959 41.866 28.3494 41.7632C28.3029 41.6603 28.2794 41.5489 28.2804 41.4363C28.1606 40.6492 28.0487 39.925 27.897 39.1772C27.831 38.9797 27.6985 38.8103 27.5215 38.697C27.3689 38.5779 27.1938 38.4899 27.0064 38.4381C26.8189 38.3862 26.6229 38.3716 26.4297 38.395C26.2365 38.4185 26.0499 38.4795 25.8809 38.5746C25.7118 38.6697 25.5636 38.7969 25.4448 38.9489C25.0585 39.276 24.6472 39.5734 24.2147 39.8384C24.0531 39.9707 23.8452 40.035 23.6359 40.0173C23.4266 39.9996 23.2328 39.9014 23.0964 39.7439C22.4015 39.067 21.7066 38.3979 21.0276 37.7052C20.946 37.6361 20.8795 37.5515 20.8319 37.4564C20.7843 37.3613 20.7567 37.2577 20.7507 37.1519C20.7447 37.046 20.7605 36.94 20.7971 36.8404C20.8337 36.7407 20.8904 36.6493 20.9637 36.5717C21.411 35.942 21.8663 35.328 22.3296 34.714C22.401 34.6222 22.4466 34.5135 22.462 34.3989C22.4775 34.2843 22.4621 34.1676 22.4175 34.0607C22.3506 33.6703 22.1325 33.3207 21.8091 33.0857C21.4857 32.8508 21.0824 32.7488 20.6842 32.8012C20.2409 32.7692 19.8004 32.706 19.3662 32.6123C18.7592 32.51 18.5195 32.2581 18.5195 31.6677C18.5195 30.7546 18.5195 29.8415 18.5195 28.9284C18.5195 28.3381 18.7192 28.1413 19.3183 28.0075C20.0611 27.8736 20.812 27.7477 21.5628 27.6532C21.8743 27.6139 21.9702 27.4486 22.1299 27.2124C22.3521 26.9053 22.4461 26.5258 22.3926 26.1523C22.3391 25.7787 22.1422 25.4397 21.8424 25.2052C21.5166 24.8151 21.2126 24.4078 20.9318 23.9851C20.7975 23.8259 20.7323 23.621 20.7502 23.4147C20.7681 23.2084 20.8678 23.0174 21.0276 22.8831C21.7146 22.2061 22.4015 21.5213 23.0964 20.8522C23.1666 20.7706 23.2529 20.704 23.3501 20.6563C23.4474 20.6087 23.5534 20.5811 23.6618 20.5752C23.7702 20.5693 23.8786 20.5852 23.9806 20.6221C24.0825 20.6589 24.1758 20.7157 24.2546 20.7893C24.8856 21.2222 25.5167 21.6709 26.1397 22.1353C26.2347 22.2023 26.3456 22.244 26.4617 22.2564C26.5779 22.2689 26.6953 22.2515 26.8027 22.2061C27.1752 22.1479 27.5119 21.9536 27.7457 21.6619C27.9796 21.3702 28.0934 21.0025 28.0647 20.6318C28.1047 20.1449 28.1767 19.6611 28.2804 19.1835C28.2795 19.0716 28.3029 18.9609 28.3489 18.8587C28.3949 18.7565 28.4625 18.6651 28.5471 18.5906C28.6318 18.5161 28.7315 18.4603 28.8398 18.4268C28.9481 18.3933 29.0623 18.3829 29.175 18.3963H32.0505C32.1632 18.3829 32.2774 18.3933 32.3857 18.4268C32.494 18.4603 32.5937 18.5161 32.6784 18.5906C32.763 18.6651 32.8306 18.7565 32.8766 18.8587C32.9226 18.9609 32.9459 19.0716 32.9451 19.1835C33.0729 19.9706 33.1847 20.7578 33.3365 21.4898C33.3927 21.6583 33.5091 21.801 33.664 21.8913C33.8166 22.0156 33.9927 22.1089 34.1821 22.1655C34.3715 22.2222 34.5705 22.2412 34.7675 22.2215C34.9644 22.2017 35.1555 22.1435 35.3294 22.0504C35.5033 21.9572 35.6567 21.8309 35.7807 21.6787C36.1529 21.3552 36.5539 21.0654 36.9788 20.8129C37.0572 20.7389 37.15 20.6814 37.2517 20.644C37.3533 20.6065 37.4616 20.5899 37.57 20.595C37.6784 20.6002 37.7845 20.627 37.882 20.674C37.9795 20.7209 38.0663 20.7869 38.1371 20.868C38.832 21.5371 39.5269 22.2219 40.1978 22.9146C40.3298 23.087 40.4398 23.2746 40.5253 23.4735ZM37.3303 22.4187L35.3733 23.8198C35.2195 23.9422 35.0309 24.0148 34.8336 24.0274C34.6363 24.0401 34.4398 23.9923 34.2711 23.8906C33.7257 23.6248 33.1626 23.396 32.5857 23.2058C32.366 23.1561 32.169 23.0368 32.0247 22.8662C31.8805 22.6956 31.7969 22.4831 31.7869 22.2612C31.6831 21.4741 31.5393 20.6869 31.4115 19.947H29.782C29.6462 20.7342 29.5105 21.5213 29.3906 22.3085C29.3747 22.5043 29.2967 22.6902 29.1677 22.8399C29.0387 22.9896 28.8652 23.0956 28.6718 23.1428C28.121 23.3176 27.5865 23.5388 27.0742 23.8041C26.8742 23.9336 26.6361 23.9938 26.3975 23.9753C26.1589 23.9568 25.9333 23.8605 25.7563 23.7017C25.1333 23.2294 24.4863 22.7886 23.8952 22.3714L22.5932 23.5679C23.0725 24.2291 23.5357 24.8825 24.023 25.5122C24.1627 25.6729 24.2465 25.8734 24.2623 26.0844C24.2781 26.2954 24.2251 26.5059 24.1108 26.685C23.8394 27.1888 23.6149 27.7157 23.4399 28.2593C23.3937 28.4821 23.2752 28.6841 23.1023 28.8346C22.9294 28.9851 22.7114 29.0761 22.4814 29.0937C21.7944 29.1803 21.1075 29.2905 20.4286 29.4165C20.3088 29.4165 20.125 29.5818 20.117 29.6762C20.117 30.1564 20.117 30.6444 20.117 31.1325C20.9797 31.2741 21.7705 31.4158 22.5692 31.526C22.7752 31.5425 22.9706 31.623 23.1271 31.756C23.2836 31.889 23.3931 32.0676 23.4399 32.266C23.6005 32.7936 23.8118 33.305 24.0709 33.793C24.2161 34.0011 24.285 34.2518 24.2661 34.5037C24.2472 34.7556 24.1418 34.9936 23.9671 35.1784C23.4878 35.7688 23.0565 36.4064 22.6252 36.9968L23.8153 38.2011C24.4943 37.7209 25.1652 37.2565 25.8282 36.7685C25.9812 36.6448 26.1693 36.5709 26.3667 36.5568C26.564 36.5427 26.761 36.5892 26.9305 36.6898C27.4914 36.9581 28.0674 37.1947 28.6558 37.3982C28.8553 37.4476 29.0339 37.558 29.1659 37.7135C29.2979 37.869 29.3766 38.0618 29.3906 38.2641C29.5025 39.0512 29.6462 39.8384 29.782 40.6255H31.4834C31.6112 39.8384 31.747 39.0512 31.8668 38.2641C31.8804 38.0608 31.9588 37.8669 32.0907 37.71C32.2226 37.5531 32.4014 37.4412 32.6017 37.3903C33.1952 37.1936 33.7744 36.9569 34.335 36.6819C34.5041 36.5801 34.7013 36.533 34.8989 36.5472C35.0965 36.5613 35.2848 36.6359 35.4372 36.7606C36.0922 37.2408 36.7712 37.7131 37.3782 38.146L38.6483 36.9968C38.153 36.3198 37.6818 35.6586 37.1865 35.0131C37.0676 34.8669 36.9964 34.6887 36.9821 34.5019C36.9678 34.315 37.0113 34.1283 37.1067 33.9662C37.3782 33.3916 37.6179 32.8091 37.8415 32.2109C37.8898 32.031 37.9917 31.8696 38.1341 31.7475C38.2765 31.6254 38.4528 31.5482 38.6403 31.526C39.439 31.408 40.2937 31.2584 41.1564 31.1167C41.1564 30.6602 41.1564 30.243 41.1564 29.8258C41.1564 29.5424 41.0845 29.4243 40.7809 29.385C40.094 29.2984 39.4151 29.1724 38.7281 29.078C38.5119 29.0572 38.3077 28.97 38.1443 28.8288C37.981 28.6876 37.8667 28.4994 37.8175 28.2908C37.6322 27.751 37.408 27.2249 37.1466 26.7165C37.0313 26.5382 36.9768 26.3282 36.9912 26.1172C37.0056 25.9062 37.088 25.7052 37.2265 25.5437C37.7137 24.9061 38.169 24.2606 38.6323 23.623L37.3303 22.4187Z" fill="#E58B0A"/>
<path d="M30.6615 25.071C31.7117 25.0837 32.7345 25.4033 33.6001 25.9894C34.4658 26.5755 35.1354 27.4018 35.524 28.3633C35.9127 29.3249 36.0029 30.3785 35.7832 31.3906C35.5635 32.4028 35.0438 33.3278 34.29 34.0486C33.5362 34.7693 32.5822 35.2533 31.549 35.4391C30.5158 35.625 29.4498 35.5043 28.4862 35.0924C27.5227 34.6806 26.7049 33.9961 26.1366 33.1256C25.5682 32.2552 25.2749 31.2382 25.2938 30.2033C25.3032 29.5186 25.4496 28.8426 25.7246 28.2138C25.9997 27.585 26.3979 27.0159 26.8966 26.5391C27.3952 26.0623 27.9845 25.6872 28.6305 25.4353C29.2766 25.1834 29.9668 25.0596 30.6615 25.071ZM30.6136 26.6453C29.8764 26.6422 29.1548 26.8549 28.5404 27.2564C27.9261 27.6579 27.4465 28.2302 27.1625 28.9006C26.8786 29.5711 26.8031 30.3095 26.9455 31.0223C27.088 31.7351 27.442 32.3902 27.9628 32.9044C28.4835 33.4187 29.1474 33.769 29.8704 33.9109C30.5934 34.0528 31.3429 33.98 32.0238 33.7016C32.7048 33.4233 33.2865 32.9519 33.6953 32.3473C34.104 31.7427 34.3214 31.0321 34.3198 30.3056C34.3219 29.8216 34.2266 29.342 34.0394 28.8946C33.8522 28.4471 33.5768 28.0407 33.2292 27.6988C32.8815 27.357 32.4685 27.0864 32.014 26.9029C31.5596 26.7194 31.0727 26.6265 30.5816 26.6296L30.6136 26.6453Z" fill="#E58B0A"/>
</svg>
