<svg width="46" height="51" viewBox="0 0 46 51" fill="none" xmlns="http://www.w3.org/2000/svg">
<path d="M22.9054 0.0603626L43.1787 7.95259C43.7602 8.06229 44.2727 8.38116 44.6065 8.84091C44.9403 9.30066 45.0689 9.86473 44.9647 10.4123C44.9647 13.4304 44.9647 16.4484 44.9647 19.391C45.0161 24.0491 43.9964 28.6628 41.975 32.9178C39.9537 37.1729 36.9782 40.9694 33.2512 44.0486C30.3577 46.4855 27.0373 48.4356 23.4364 49.8131C23.1428 49.9363 22.8248 50 22.5032 50C22.1815 50 21.8635 49.9363 21.5699 49.8131C16.4096 47.8372 11.8348 44.7211 8.23489 40.73C4.63502 36.739 2.11671 31.9912 0.894362 26.8909C0.287101 24.4986 -0.0100297 22.0463 0.00941596 19.5872V10.1709C-0.0369014 9.711 0.0886302 9.25033 0.364532 8.86769C0.640434 8.48505 1.04955 8.20425 1.52187 8.07332L21.5378 0.196176L22.0687 0L22.9054 0.0603626ZM4.17671 17.4595C4.0438 20.1301 4.25994 22.8059 4.8203 25.4272C5.77627 29.8676 7.84685 34.0304 10.8604 37.5706C13.874 41.1107 17.7439 43.9263 22.1492 45.784C22.2554 45.829 22.3705 45.8523 22.4871 45.8523C22.6036 45.8523 22.7188 45.829 22.825 45.784C28.102 43.5429 32.5915 39.9417 35.7706 35.3999C38.9496 30.8582 40.6874 25.5627 40.7813 20.1305C40.7813 17.3388 40.7813 14.532 40.7813 11.7403C40.7813 11.3932 40.6526 11.2725 40.3469 11.1517L22.8893 4.3611C22.6339 4.27831 22.3563 4.27831 22.1009 4.3611L4.56287 11.0914C4.43397 11.1263 4.32263 11.2033 4.24888 11.3085C4.17513 11.4136 4.14383 11.54 4.16062 11.6648C4.17671 13.3851 4.17671 15.1205 4.17671 17.4595Z" fill="#410EAD"/>
<path d="M20.1865 26.1451L20.6049 25.7678L28.9877 17.9058C29.2549 17.6132 29.6074 17.4002 30.0018 17.293C30.3963 17.1858 30.8156 17.1889 31.2082 17.3022C31.5265 17.3921 31.817 17.553 32.0546 17.7711C32.2923 17.9892 32.4701 18.258 32.5728 18.5546C32.6756 18.8512 32.7003 19.1667 32.6448 19.4742C32.5892 19.7816 32.4552 20.0719 32.254 20.3202C32.1092 20.4862 31.9483 20.6371 31.7874 20.788L21.9082 30.0686C21.7089 30.3184 21.4503 30.5212 21.1528 30.6609C20.8554 30.8006 20.5273 30.8734 20.1946 30.8734C19.8619 30.8734 19.5338 30.8006 19.2364 30.6609C18.9389 30.5212 18.6803 30.3184 18.481 30.0686L12.9622 24.9077C12.6699 24.6609 12.4599 24.3402 12.3571 23.9842C12.2544 23.6282 12.2633 23.252 12.3829 22.9007C12.4851 22.554 12.6909 22.2419 12.976 22.0013C13.2611 21.7606 13.6136 21.6015 13.9919 21.5425C14.351 21.4836 14.7202 21.5124 15.064 21.626C15.4078 21.7397 15.7146 21.9344 15.9549 22.1914L19.8969 25.8433L20.1865 26.1451Z" fill="#410EAD"/>
<path d="M23.9054 1.06036L44.1787 8.95259C44.7602 9.06229 45.2727 9.38116 45.6065 9.84091C45.9403 10.3007 46.0689 10.8647 45.9647 11.4123C45.9647 14.4304 45.9647 17.4484 45.9647 20.391C46.0161 25.0491 44.9964 29.6628 42.975 33.9178C40.9537 38.1729 37.9782 41.9694 34.2512 45.0486C31.3577 47.4855 28.0373 49.4356 24.4364 50.8131C24.1428 50.9363 23.8248 51 23.5032 51C23.1815 51 22.8635 50.9363 22.5699 50.8131C17.4096 48.8372 12.8348 45.7211 9.23489 41.73C5.63502 37.739 3.11671 32.9912 1.89436 27.8909C1.2871 25.4986 0.98997 23.0463 1.00942 20.5872V11.1709C0.963099 10.711 1.08863 10.2503 1.36453 9.86769C1.64043 9.48505 2.04955 9.20425 2.52187 9.07332L22.5378 1.19618L23.0687 1L23.9054 1.06036ZM5.17671 18.4595C5.0438 21.1301 5.25994 23.8059 5.8203 26.4272C6.77627 30.8676 8.84685 35.0304 11.8604 38.5706C14.874 42.1107 18.7439 44.9263 23.1492 46.784C23.2554 46.829 23.3705 46.8523 23.4871 46.8523C23.6036 46.8523 23.7188 46.829 23.825 46.784C29.102 44.5429 33.5915 40.9417 36.7706 36.3999C39.9496 31.8582 41.6874 26.5627 41.7813 21.1305C41.7813 18.3388 41.7813 15.532 41.7813 12.7403C41.7813 12.3932 41.6526 12.2725 41.3469 12.1517L23.8893 5.3611C23.6339 5.27831 23.3563 5.27831 23.1009 5.3611L5.56287 12.0914C5.43397 12.1263 5.32263 12.2033 5.24888 12.3085C5.17513 12.4136 5.14383 12.54 5.16062 12.6648C5.17671 14.3851 5.17671 16.1205 5.17671 18.4595Z" fill="url(#paint0_linear_1501_307)"/>
<path d="M21.1865 27.1451L21.6049 26.7678L29.9877 18.9058C30.2549 18.6132 30.6074 18.4002 31.0018 18.293C31.3963 18.1858 31.8156 18.1889 32.2082 18.3022C32.5265 18.3921 32.817 18.553 33.0546 18.7711C33.2923 18.9892 33.4701 19.258 33.5728 19.5546C33.6756 19.8512 33.7003 20.1667 33.6448 20.4742C33.5892 20.7816 33.4552 21.0719 33.254 21.3202C33.1092 21.4862 32.9483 21.6371 32.7874 21.788L22.9082 31.0686C22.7089 31.3184 22.4503 31.5212 22.1528 31.6609C21.8554 31.8006 21.5273 31.8734 21.1946 31.8734C20.8619 31.8734 20.5338 31.8006 20.2364 31.6609C19.9389 31.5212 19.6803 31.3184 19.481 31.0686L13.9622 25.9077C13.6699 25.6609 13.4599 25.3402 13.3571 24.9842C13.2544 24.6282 13.2633 24.252 13.3829 23.9007C13.4851 23.554 13.6909 23.2419 13.976 23.0013C14.2611 22.7606 14.6136 22.6015 14.9919 22.5425C15.351 22.4836 15.7202 22.5124 16.064 22.626C16.4078 22.7397 16.7146 22.9344 16.9549 23.1914L20.8969 26.8433L21.1865 27.1451Z" fill="url(#paint1_linear_1501_307)"/>
<defs>
<linearGradient id="paint0_linear_1501_307" x1="2" y1="9.5" x2="35.5" y2="45" gradientUnits="userSpaceOnUse">
<stop stop-color="white" stop-opacity="0.66"/>
<stop offset="1" stop-color="#CECECE" stop-opacity="0"/>
</linearGradient>
<linearGradient id="paint1_linear_1501_307" x1="13.7392" y1="20.5368" x2="21.6193" y2="34.3864" gradientUnits="userSpaceOnUse">
<stop stop-color="white" stop-opacity="0.66"/>
<stop offset="1" stop-color="#CECECE" stop-opacity="0"/>
</linearGradient>
</defs>
</svg>
