<svg width="53" height="53" viewBox="0 0 53 53" fill="none" xmlns="http://www.w3.org/2000/svg">
<path fill-rule="evenodd" clip-rule="evenodd" d="M34.087 0.164425C32.8085 0.508212 31.5207 1.51783 30.9146 2.65163C30.2919 3.81649 30.2895 3.85056 30.2895 11.4126V18.3512L29.3924 18.4145C28.8989 18.4493 28.2296 18.5779 27.905 18.7003C26.7385 19.1398 25.6697 20.2027 25.1783 21.4123C24.942 21.9936 24.9352 22.1313 24.8815 27.4249L24.8266 32.8425L24.4992 33.3717C24.1848 33.88 23.5191 34.3915 22.9606 34.5537L22.7172 34.6245L22.7155 27.7208C22.7138 20.194 22.7009 20.0117 22.0922 18.8838C21.4229 17.6435 19.9811 16.5828 18.6188 16.3285C18.2677 16.263 15.342 16.2198 11.2585 16.2198C3.87266 16.2198 3.82095 16.2235 2.6586 16.8449C1.95523 17.2209 1.00134 18.1748 0.625317 18.8782C-0.0274173 20.0991 0.000167542 19.4056 0.000167542 34.6099C0.000167542 46.7575 0.0211537 48.5999 0.166002 49.1559C0.632457 50.947 1.97016 52.3027 3.76102 52.7993C4.43106 52.9851 4.99563 53 11.3606 53C17.1891 53 18.3334 52.9747 18.8731 52.8342C20.6682 52.3666 22.0574 50.9905 22.5189 49.2226C22.6831 48.5936 22.7054 47.8288 22.7109 42.6576L22.7172 36.8045L23.4379 36.6266C24.9869 36.2444 26.1908 35.1701 26.7944 33.6316C26.9626 33.203 26.99 32.5477 27.041 27.7319L27.0983 22.3144L27.4256 21.785C27.8949 21.0264 28.5631 20.6413 29.5302 20.5721L30.2895 20.5177V26.4053C30.2895 32.8179 30.3017 32.9684 30.9146 34.115C31.2907 34.8183 32.2445 35.7722 32.9479 36.1483C34.1118 36.7705 34.1526 36.7734 41.648 36.7734C47.4782 36.7734 48.6227 36.7482 49.1624 36.6076C50.9575 36.14 52.3467 34.7639 52.8082 32.996C52.979 32.3414 52.9944 31.1689 52.9987 18.4374C53.0037 3.31 53.0247 3.84905 52.3815 2.65726C51.7122 1.4169 50.2704 0.356223 48.9081 0.101899C48.5539 0.0358024 45.6474 -0.00400678 41.498 0.000320302C35.889 0.00616187 34.5664 0.0354779 34.087 0.164425ZM49.1807 2.44999C49.7542 2.75667 50.2487 3.25342 50.5437 3.81898C50.7255 4.1672 50.7871 4.51153 50.8223 5.375L50.8675 6.48381H41.648H32.4284L32.4696 5.37424C32.5064 4.37814 32.5445 4.20387 32.8424 3.67045C33.19 3.04832 33.9052 2.46222 34.5478 2.27301C34.7425 2.21568 37.8342 2.18117 41.8102 2.19199C48.7297 2.21081 48.7337 2.21092 49.1807 2.44999ZM17.0661 4.54333C16.6094 4.78446 16.2266 5.4227 16.2266 5.94293C16.2266 6.12618 16.3246 6.46823 16.4443 6.70298C16.6893 7.18296 17.3125 7.56558 17.8492 7.56558C18.0325 7.56558 18.3745 7.46757 18.6093 7.34782C19.0893 7.10291 19.4719 6.4797 19.4719 5.94293C19.4719 5.40615 19.0893 4.78294 18.6093 4.53803C18.0763 4.26618 17.5881 4.2678 17.0661 4.54333ZM3.79823 5.55306C2.86045 6.07285 3.25281 7.56558 4.32721 7.56558C4.87534 7.56558 5.40897 7.03714 5.40897 6.49431C5.40897 5.68211 4.51144 5.15767 3.79823 5.55306ZM50.8429 18.3833V28.1192H41.648H32.453V24.333V20.5468H36.5064H40.5597L40.2925 20.9406C39.8723 21.5598 39.9966 22.2536 40.5819 22.5562C41.2728 22.9135 41.5837 22.7444 43.1354 21.1677C44.2119 20.0738 44.3519 19.8885 44.3486 19.5629C44.3432 19.0485 44.2452 18.9188 42.8036 17.5196C41.6022 16.3535 41.499 16.2787 41.0888 16.2787C40.733 16.2787 40.5942 16.3437 40.3388 16.6296C39.9505 17.0642 39.9367 17.4654 40.2925 17.9895L40.5597 18.3833H36.5064H32.453V13.5153V8.64736H41.648H50.8429V18.3833ZM25.4335 9.88014C24.4957 10.3999 24.888 11.8927 25.9624 11.8927C26.5106 11.8927 27.0442 11.3642 27.0442 10.8214C27.0442 10.0092 26.1467 9.48476 25.4335 9.88014ZM18.8914 18.6766C19.4648 18.9833 19.9594 19.48 20.2544 20.0456C20.4362 20.3938 20.4978 20.7381 20.533 21.6016L20.5782 22.7104H11.3587H2.13913L2.18024 21.6008C2.21713 20.6047 2.25521 20.4304 2.55312 19.897C2.90069 19.2749 3.61585 18.6888 4.25852 18.4996C4.45324 18.4423 7.54491 18.4078 11.5209 18.4186C18.4404 18.4374 18.4444 18.4375 18.8914 18.6766ZM20.5536 29.7419V34.6099H17.8053H15.0571L14.7316 33.9143C14.2748 32.9383 13.6536 32.3068 12.6741 31.8227C11.9026 31.4414 11.7986 31.4187 10.8234 31.4187C9.88768 31.4187 9.72185 31.451 9.06749 31.761C8.06178 32.2374 7.43544 32.8507 6.94886 33.8353C6.56711 34.6077 6.54482 34.7099 6.54482 35.6917C6.54482 36.6734 6.56711 36.7756 6.94886 37.548C7.43544 38.5326 8.06178 39.1459 9.06749 39.6223C9.72185 39.9323 9.88768 39.9646 10.8234 39.9646C11.7986 39.9646 11.9026 39.9419 12.6741 39.5606C13.6536 39.0765 14.2748 38.445 14.7316 37.469L15.0571 36.7734H17.8053H20.5536V40.5596V44.3458H11.3587H2.16369V34.6099V24.8739H11.3587H20.5536V29.7419ZM50.8429 31.1285C50.8429 32.3724 50.6112 33.0332 49.9388 33.7066C48.9997 34.6472 49.2557 34.621 41.3661 34.586C34.5807 34.5559 34.5612 34.5551 34.1152 34.3166C33.5418 34.0099 33.0472 33.5132 32.7522 32.9476C32.5705 32.5994 32.5088 32.2551 32.4737 31.3916L32.4284 30.2828H41.6357H50.8429V31.1285ZM12.0061 33.8929C12.651 34.3196 12.9272 34.8589 12.9272 35.6917C12.9272 36.5352 12.6505 37.064 11.9753 37.5109C11.3717 37.9103 10.3153 37.9258 9.70173 37.5444C8.88283 37.0353 8.49805 36.0245 8.75702 35.0628C8.90587 34.5099 9.56791 33.8017 10.0834 33.644C10.6505 33.4703 11.5421 33.5858 12.0061 33.8929ZM27.597 41.2515C26.6592 41.7713 27.0516 43.2641 28.126 43.2641C28.6741 43.2641 29.2077 42.7356 29.2077 42.1928C29.2077 41.3806 28.3102 40.8561 27.597 41.2515ZM48.4372 41.3236C47.9805 41.5647 47.5977 42.2029 47.5977 42.7232C47.5977 43.2599 47.9803 43.8832 48.4603 44.1281C48.695 44.2478 49.0371 44.3458 49.2203 44.3458C49.4036 44.3458 49.7456 44.2478 49.9803 44.1281C50.4603 43.8832 50.8429 43.2599 50.8429 42.7232C50.8429 42.1864 50.4603 41.5632 49.9803 41.3183C49.4474 41.0464 48.9592 41.048 48.4372 41.3236ZM20.5536 47.3551C20.5536 48.599 20.3219 49.2598 19.6495 49.9332C18.7104 50.8738 18.9664 50.8476 11.0768 50.8125C4.29141 50.7825 4.27193 50.7817 3.82592 50.5432C3.25248 50.2365 2.7579 49.7398 2.4629 49.1742C2.28117 48.826 2.21951 48.4817 2.18435 47.6182L2.13913 46.5094H11.3464H20.5536V47.3551ZM39.4963 49.9057C38.5586 50.4255 38.9509 51.9182 40.0253 51.9182C40.5735 51.9182 41.1071 51.3898 41.1071 50.8469C41.1071 50.0348 40.2096 49.5103 39.4963 49.9057Z" fill="#DE1515"/>
</svg>
