<svg width="50" height="50" viewBox="0 0 50 50" fill="none" xmlns="http://www.w3.org/2000/svg">
<path fill-rule="evenodd" clip-rule="evenodd" d="M33.8494 0.100021C32.8359 0.338623 31.8334 1.18149 31.3617 2.19147L31.088 2.77748L31.06 8.75961L31.032 14.7417H30.1225C27.9758 14.7417 26.2783 15.6007 25.1782 17.2438C24.2356 18.6518 24.2578 18.4804 24.1987 24.8015L24.147 30.3197L23.7965 31.0528C23.3427 32.002 22.705 32.641 21.7674 33.0858C21.137 33.385 20.9301 33.4325 20.084 33.4733L19.1193 33.5197L19.0914 27.427L19.0634 21.3343L18.7899 20.7483C18.4308 19.9792 17.6778 19.2237 16.9229 18.8751L16.3261 18.5996H9.5317H2.73731L2.14048 18.8751C1.38557 19.2237 0.632611 19.9792 0.273535 20.7483L0 21.3343V34.2752V47.2162L0.273535 47.8022C0.633589 48.5733 1.38742 49.3297 2.12601 49.6608C2.82617 49.9748 4.11535 50.106 4.49652 49.9022C4.94338 49.6634 4.98258 48.9835 4.56769 48.6688C4.47501 48.5984 4.16237 48.5395 3.8729 48.5378C3.07058 48.533 2.59585 48.35 2.09912 47.8537C1.56916 47.3243 1.41753 46.8811 1.41753 45.8619V45.1163H9.5317H17.6459V45.8619C17.6459 46.272 17.5921 46.7884 17.5264 47.0095C17.3692 47.5381 16.6483 48.2583 16.1192 48.4153C15.8295 48.5013 14.5419 48.5347 11.5185 48.5347C7.42847 48.5347 7.31458 48.5398 7.10615 48.7338C6.81619 49.0037 6.81854 49.5329 7.11094 49.805C7.32699 50.0061 7.38389 50.0083 11.8279 49.9798L16.3261 49.9508L16.9344 49.6701C17.6797 49.3262 18.4312 48.5641 18.7998 47.778L19.0634 47.2162L19.0914 41.0875L19.1192 34.9589H19.8822C22.5705 34.9589 24.8166 33.2497 25.467 30.7093C25.6496 29.9961 25.6623 29.6246 25.6623 24.986C25.6623 21.6826 25.699 19.8525 25.7722 19.5078C26.0405 18.2457 26.883 17.1979 28.0986 16.6149C28.7693 16.2932 28.9073 16.2637 29.9282 16.2246L31.0323 16.1824L31.0601 22.5185L31.088 28.8547L31.3615 29.4407C31.7206 30.2098 32.4736 30.9653 33.2285 31.3138L33.8253 31.5894H40.5219H47.2186L47.8268 31.3087C48.5722 30.9647 49.3236 30.2026 49.6923 29.4166L49.9559 28.8547L49.9865 26.0223C50.0163 23.2577 50.0122 23.1847 49.8116 22.9702C49.5464 22.6867 49.0055 22.6744 48.7339 22.9458C48.562 23.1175 48.5383 23.2713 48.5383 24.2155V25.2898H40.5219H32.5055V20.7483V16.2067H35.6072H38.7088L37.9535 16.9658C37.2942 17.6283 37.1981 17.7693 37.1981 18.0739C37.1981 18.5101 37.4425 18.7461 37.8942 18.7461C38.201 18.7461 38.3721 18.6059 39.7195 17.2495C40.9396 16.0215 41.2063 15.7031 41.2063 15.4742C41.2063 15.2454 40.9396 14.927 39.7195 13.6989C38.3449 12.3153 38.206 12.2024 37.8772 12.2024C37.4358 12.2024 37.1981 12.4436 37.1981 12.8916C37.1981 13.175 37.3086 13.3346 37.9535 13.9827L38.7088 14.7417H35.6072H32.5055V10.8839V7.02601H40.5219H48.5383V13.6489C48.5383 20.1791 48.5412 20.275 48.7377 20.4857C49.0068 20.7744 49.5376 20.773 49.808 20.483C50.0091 20.2672 50.0096 20.2411 49.9829 11.522L49.9559 2.77748L49.6823 2.19147C49.3233 1.42234 48.5703 0.666883 47.8154 0.318308L47.2186 0.042788L43.3564 0.0132924C39.5531 -0.0157148 39.4909 -0.0130778 39.2749 0.188019C38.9819 0.460707 38.9793 0.989674 39.2695 1.25982C39.4767 1.45272 39.5958 1.45897 43.0464 1.45897C45.569 1.45897 46.7268 1.49383 47.0117 1.57832C47.5408 1.73536 48.2617 2.45556 48.4189 2.98414C48.4846 3.20526 48.5383 3.87545 48.5383 4.47357V5.561H40.5219H32.5055V4.47357C32.5055 3.10642 32.6233 2.70325 33.1871 2.1399C33.7481 1.57958 34.1528 1.45975 35.4986 1.45584C36.6322 1.45252 36.8256 1.38845 36.9862 0.962717C37.0905 0.686221 36.9768 0.314499 36.7311 0.128052C36.535 -0.0207935 34.4483 -0.0410107 33.8494 0.100021ZM37.5358 2.87075C37.2092 3.19696 37.2166 3.62894 37.5534 3.89352C37.7999 4.08729 37.9275 4.09599 40.5181 4.09599C43.2213 4.09599 43.2254 4.09569 43.4378 3.86998C43.7385 3.55012 43.7185 3.08943 43.3927 2.83344C43.1463 2.63976 43.0184 2.63097 40.4555 2.63097H37.7757L37.5358 2.87075ZM16.1192 20.1351C16.6483 20.2922 17.3692 21.0124 17.5264 21.541C17.5921 21.7621 17.6459 22.4323 17.6459 23.0304V24.1178H9.5317H1.41753V23.0304C1.41753 22.4323 1.4713 21.7621 1.537 21.541C1.68393 21.0468 2.40952 20.2943 2.88395 20.1441C3.39465 19.9824 15.5766 19.9742 16.1192 20.1351ZM6.51958 21.3869C6.20939 21.6756 6.23041 22.1889 6.56318 22.4503C6.80944 22.6439 6.93761 22.6528 9.49054 22.6528C12.1215 22.6528 12.1639 22.6496 12.4052 22.433C12.7588 22.1156 12.7823 21.7005 12.4645 21.3831C12.2782 21.197 12.1387 21.1878 9.50129 21.1878C6.85099 21.1878 6.72439 21.1963 6.51958 21.3869ZM17.6459 29.5384V33.4939H15.7029H13.7599L13.706 33.2253C13.5417 32.4062 12.4823 31.6382 11.5166 31.6382C10.884 31.6382 10.6071 31.8591 10.6071 32.3636C10.6071 32.7892 10.9728 33.1019 11.4757 33.1063C12.0757 33.1116 12.3668 33.4775 12.3668 34.2264C12.3668 34.7023 12.2426 35.0262 11.9842 35.2244C11.764 35.3933 7.20166 35.3933 6.98141 35.2244C6.72302 35.0262 6.59887 34.7023 6.59887 34.2264C6.59887 33.4142 6.88452 33.1109 7.6542 33.1063C8.07105 33.1038 8.21867 33.0565 8.41185 32.8634C8.72145 32.5542 8.71764 32.1834 8.40148 31.8675C8.17018 31.6365 8.09686 31.6202 7.43883 31.6533C6.53532 31.6989 5.9161 32.0471 5.47716 32.7563C5.19873 33.2063 5.18133 33.2927 5.18133 34.2264C5.18133 35.1601 5.19873 35.2464 5.47716 35.6965C5.66046 35.9925 5.95521 36.2871 6.25133 36.4702L6.72957 36.7657L9.36677 36.7947L12.004 36.8237L12.5346 36.5644C13.0998 36.288 13.6101 35.7057 13.706 35.2275L13.7599 34.9589H15.7029H17.6459V39.3051V43.6513H9.5317H1.41753V34.6171V25.5828H9.5317H17.6459V29.5384ZM48.5383 27.5004C48.5383 27.9105 48.4846 28.4269 48.4189 28.648C48.2617 29.1766 47.5408 29.8968 47.0117 30.0538C46.7134 30.1423 45.0337 30.1732 40.5219 30.1732C36.0102 30.1732 34.3304 30.1423 34.0322 30.0538C33.5031 29.8968 32.7822 29.1766 32.625 28.648C32.5593 28.4269 32.5055 27.9105 32.5055 27.5004V26.7548H40.5219H48.5383V27.5004Z" fill="black"/>
</svg>
