<svg width="18" height="18" viewBox="0 0 18 18" fill="none" xmlns="http://www.w3.org/2000/svg">
<path d="M1.60577 4.73094L9 0.46188L16.3942 4.73094V13.2691L9 17.5381L1.60577 13.2691V4.73094Z" stroke="#410EAD" stroke-width="0.8"/>
<path fill-rule="evenodd" clip-rule="evenodd" d="M5 8.89829V10.7966H5.38167H5.76335V10.1429V9.48931L6.06837 9.4893C6.39455 9.48928 6.47226 9.4832 6.59849 9.44777L6.6609 9.43024L6.87829 8.5876C6.99786 8.12415 7.10744 7.69828 7.12181 7.64124L7.14793 7.53751L7.11747 7.48373C6.99768 7.27221 6.81639 7.12206 6.59685 7.0525C6.44548 7.00455 6.46833 7.00582 5.70234 7.00279L5 7V8.89829ZM8.22826 8.22128C8.05465 8.89265 7.91071 9.44197 7.90841 9.442C7.90609 9.44203 7.80491 9.19338 7.68356 8.88945L7.46291 8.33685L7.44515 8.40316C7.43539 8.43964 7.3441 8.79273 7.2423 9.18781L7.05721 9.90613L7.24941 10.3218C7.35513 10.5505 7.44838 10.7508 7.45665 10.7671L7.47167 10.7966H7.86546H8.25925L8.38113 10.33C8.44816 10.0734 8.57708 9.57917 8.66762 9.2318C8.75816 8.88443 8.83404 8.60447 8.83625 8.60966C8.83989 8.6182 9.36113 10.7104 9.37472 10.771L9.38047 10.7967L9.77781 10.7947L10.1751 10.7926L10.7817 8.89867C11.1153 7.85698 11.3882 7.00381 11.3883 7.00272C11.3883 7.00164 11.2074 7.0008 10.9863 7.00084L10.5843 7.00093L10.1719 8.21952C9.94501 8.88975 9.75777 9.44056 9.75577 9.44354C9.75378 9.44652 9.61963 8.899 9.45768 8.22682L9.16322 7.00469L8.85357 7.00265L8.54392 7.00061L8.22826 8.22128ZM11.8643 7.21416C11.864 7.21674 11.7764 7.4967 11.6695 7.8363C11.5626 8.17588 11.475 8.46081 11.4749 8.46947C11.4748 8.47814 11.545 8.7324 11.6309 9.03452L11.787 9.58381H11.4541H11.1213L11.0077 9.94504C10.9452 10.1437 10.894 10.3103 10.894 10.3151C10.894 10.3216 11.0393 10.3245 11.4335 10.326L11.973 10.328L12.0681 10.6614C12.1204 10.8448 12.1644 10.9964 12.1658 10.9982C12.1673 11 12.3556 11.0005 12.5842 10.9994L13 10.9974L12.4383 9.11918C11.8975 7.31096 11.8652 7.20368 11.8643 7.21416ZM6.12017 7.74097C6.34093 7.76101 6.4533 7.85229 6.50804 8.05603C6.52756 8.12866 6.53231 8.28775 6.51771 8.37955C6.49464 8.52461 6.43146 8.63655 6.34282 8.6894C6.25237 8.74333 6.17095 8.75676 5.93385 8.75685L5.76335 8.75692V8.25028C5.76335 7.97163 5.76522 7.74128 5.76752 7.7384C5.77385 7.73043 6.02418 7.73226 6.12017 7.74097Z" fill="#410EAD"/>
</svg>
