<svg width="139" height="37" viewBox="0 0 139 37" fill="none" xmlns="http://www.w3.org/2000/svg">
<path d="M104.776 6.46821C105.661 7.15556 106.464 7.94136 107.168 8.8101C110.336 13.3139 108.236 19.4437 102.86 21.3675C101.493 21.8446 100.051 22.0773 98.6012 22.0549C97.0664 21.9891 95.5306 22.1621 94.05 22.5675C92.9032 22.9261 92.4175 23.4737 92.4823 24.2356C92.5194 24.7139 92.7358 25.1612 93.0892 25.4898C93.4425 25.8185 93.9074 26.0046 94.3924 26.0118C96.1525 26.2014 97.9237 26.061 99.6897 26.0946C101.801 26.1348 103.922 25.9606 106.015 26.3671C107.078 26.5343 108.081 26.9635 108.932 27.6151C110.503 28.8922 111.011 31.3733 110.15 33.6168C109.615 34.9911 108.613 36.1386 107.316 36.8622C106.958 37.0732 106.751 37.0564 106.552 36.7114C106.498 36.61 106.431 36.5161 106.351 36.4324C105.685 35.7748 105.631 35.3055 106.448 34.578C107.999 33.1908 107.484 31.0004 105.536 30.2101C104.054 29.7037 102.479 29.5241 100.919 29.6838C98.3808 29.8955 95.8285 29.8819 93.2927 29.643C92.7779 29.5652 92.2732 29.4326 91.7872 29.2475C91.1214 29.0364 90.5319 28.6385 90.0904 28.1024C89.6488 27.5662 89.3742 26.9148 89.2998 26.2273C89.1315 25.4662 89.1931 24.6729 89.4772 23.9462C89.7613 23.2195 90.2553 22.5915 90.8976 22.1403C91.827 21.5371 92.8629 21.1122 93.9512 20.8878C93.378 20.5432 92.823 20.1697 92.2886 19.7687C89.6906 17.5135 88.375 11.5384 92.0608 7.89677C95.2387 4.75678 99.6747 4.04023 103.974 6.05265L104.776 6.46821ZM94.3178 13.6052C94.2626 15.3309 94.7444 17.0318 95.6982 18.478C97.4839 21.1176 101.091 21.1319 102.749 18.3958C103.675 16.9781 104.17 15.3277 104.177 13.6402C104.183 11.9527 103.7 10.2987 102.785 8.87418C101.064 5.97886 97.317 6.06495 95.5372 8.9389C94.6926 10.349 94.2698 11.967 94.3178 13.6052Z" fill="black"/>
<path d="M20.4147 14.1467C21.5733 14.1467 22.7319 14.1596 23.8898 14.1402C24.2989 14.1337 24.4403 14.2477 24.4233 14.6768C24.3637 16.1364 24.3794 17.5987 24.3074 19.0576C24.2007 21.2442 22.9499 22.7873 21.2604 24.0204C15.5762 28.1669 4.21425 26.6795 0.83277 18.1372C-2.17823 10.5316 3.3391 1.39771 11.5408 0.217707C14.7665 -0.246399 17.8842 -0.0496256 20.7937 1.60678C21.4483 1.97897 21.6446 2.29225 21.0136 2.82368C20.9911 2.84153 20.9722 2.86351 20.958 2.88841C20.5247 3.77778 20.0868 3.75707 19.2287 3.20817C15.9382 1.10772 9.93383 0.975677 7.25928 5.45555C6.40262 6.88619 5.83986 8.46993 5.60323 10.116C5.21486 12.5528 5.28477 15.0394 5.80942 17.4511C6.23123 19.5875 7.48297 21.4754 9.29613 22.7097C11.1093 23.944 13.3394 24.4264 15.5081 24.0534C16.6299 23.9236 17.7107 23.5584 18.6782 22.9822C21.1655 21.4591 21.3717 19.837 21.227 17.4258C21.2007 17.0781 21.0535 16.7501 20.8105 16.4974C20.5675 16.2447 20.2436 16.0829 19.8937 16.0394C18.9273 15.8428 17.9367 15.7907 16.9547 15.8846C16.1123 15.917 16.3878 15.3584 16.3695 14.9681C16.3512 14.5778 16.1843 14.0955 16.939 14.1305C18.0956 14.1881 19.2561 14.1454 20.4147 14.1467Z" fill="black"/>
<path d="M49.5293 15.802C49.5849 12.1002 50.572 9.01712 53.477 6.89143C56.6051 4.60327 60.1091 4.41944 63.5979 5.88684C66.9774 7.31087 68.6315 10.1324 69.1374 13.642C69.5587 16.0872 69.2241 18.6013 68.1772 20.8554C66.3084 24.7061 62.5277 26.6415 58.0786 26.0945C56.0622 25.8881 54.1684 25.0385 52.6833 23.6741C51.1982 22.3096 50.2023 20.5044 49.8461 18.531C49.7636 18.1678 49.7014 17.8005 49.6596 17.4306C49.5948 16.8046 49.5581 16.1768 49.5293 15.802ZM64.6268 15.5502C64.5902 13.387 64.4599 11.2211 63.4362 9.22296C63.0583 8.49055 62.4835 7.87534 61.7751 7.44494C61.0666 7.01455 60.2518 6.78563 59.4204 6.78336C58.5889 6.78108 57.7729 7.00553 57.062 7.43205C56.3511 7.85856 55.7729 8.47062 55.3909 9.20095C54.6955 10.6188 54.3127 12.1665 54.2677 13.7417C53.9731 16.3067 54.2467 18.9045 55.0695 21.3544C55.3416 22.2548 55.9014 23.0437 56.665 23.603C57.4286 24.1624 58.355 24.4619 59.3052 24.4569C61.3344 24.4996 62.7901 23.5442 63.664 21.5441C64.4946 19.6326 64.5921 17.604 64.6268 15.5483V15.5502Z" fill="black"/>
<path d="M39.6854 15.9331C37.4251 15.9331 35.1656 15.9544 32.906 15.9188C32.2796 15.9091 32.1121 16.1098 32.1513 16.7008C32.1814 17.5869 32.3087 18.4672 32.531 19.3262C32.8043 20.334 33.3193 21.2619 34.0323 22.0311C34.7453 22.8003 35.6352 23.3883 36.6268 23.7452C37.6184 24.102 38.6823 24.2173 39.7285 24.0812C40.7747 23.9451 41.7723 23.5616 42.6368 22.9633C43.6664 22.2797 43.7266 23.1924 44.1187 23.5911C44.7078 24.1886 44.0192 24.3679 43.707 24.5802C38.7611 27.9286 31.1642 26.1123 28.5054 20.9599C25.9768 16.0619 28.0282 8.66858 32.6645 6.29303C33.9389 5.59807 35.3464 5.17496 36.7962 5.05098C38.2461 4.927 39.7062 5.10492 41.0822 5.57325C44.0821 6.59984 45.5699 9.02717 46.5223 11.8422C46.8475 12.9118 47.0699 14.0093 47.1867 15.1201C47.2665 15.7027 47.1998 15.9732 46.4666 15.9538C44.2058 15.8955 41.9449 15.9331 39.6854 15.9331ZM37.3944 14.1628C38.928 14.1628 40.461 14.1518 41.9947 14.1699C42.4372 14.1751 42.697 14.1123 42.6564 13.577C42.6338 12.2628 42.4132 10.9593 42.0019 9.70941C41.6562 8.66457 40.9127 7.79393 39.9289 7.28209C38.7189 6.70508 37.3276 6.62344 36.0572 7.0549C34.7868 7.48636 33.7398 8.39606 33.1436 9.58643C32.6045 10.8203 32.2826 12.1362 32.1919 13.4773C32.1186 14.1155 32.3595 14.1789 32.8838 14.1705C34.3847 14.1479 35.8895 14.1634 37.3931 14.1628H37.3944Z" fill="black"/>
<path d="M122.636 15.9334C120.374 15.9334 118.113 15.9619 115.853 15.916C115.176 15.9024 115.028 16.1101 115.054 16.7367C115.147 18.9252 115.686 20.9357 117.357 22.4814C118.495 23.426 119.91 23.9816 121.393 24.0652C122.876 24.1489 124.346 23.7561 125.585 22.9455C126.613 22.2367 126.621 23.2044 127.003 23.552C127.599 24.0977 126.999 24.3197 126.651 24.5579C124.041 26.3425 121.13 26.5399 118.153 25.936C113.696 25.0298 110.907 21.959 110.495 17.452C110.168 13.8835 110.802 10.4871 113.476 7.84104C114.641 6.62983 116.112 5.74941 117.738 5.29145C119.363 4.8335 121.083 4.81474 122.718 5.23713C124.353 5.65952 125.843 6.50762 127.035 7.69313C128.226 8.87865 129.074 10.3582 129.49 11.9779C129.774 13.057 129.984 14.1535 130.12 15.2603C130.199 15.7969 130.068 15.9528 129.508 15.9457C127.216 15.9166 124.925 15.9334 122.636 15.9334ZM120.273 14.1637H122.615C123.396 14.1637 124.179 14.1353 124.958 14.1715C125.416 14.1929 125.551 14.0537 125.537 13.6006C125.538 12.5715 125.417 11.5459 125.176 10.5448C124.527 8.1498 123.258 7.02028 121.016 6.84486C119.943 6.71413 118.858 6.94367 117.933 7.49659C117.009 8.04952 116.299 8.89373 115.918 9.89359C115.464 11.0683 115.184 12.3015 115.085 13.5553C115.017 14.0679 115.19 14.1819 115.674 14.1741C117.208 14.1476 118.74 14.1637 120.273 14.1644V14.1637Z" fill="black"/>
<path d="M77.9266 10.1145C78.5515 8.37325 79.6837 6.85387 81.1804 5.74794C81.8985 5.20743 82.7292 4.83188 83.6124 4.64859C84.4955 4.46531 85.4089 4.47888 86.286 4.68833C86.8153 4.81946 87.3077 5.06751 87.7261 5.41384C88.1445 5.76017 88.4781 6.19578 88.7018 6.68792C88.9255 7.18006 89.0335 7.71594 89.0176 8.25528C89.0018 8.79463 88.8626 9.32342 88.6104 9.80191C88.0409 10.9023 87.0238 11.1457 85.8933 11.0913C85.3962 11.1111 84.9052 10.9775 84.4882 10.709C84.0713 10.4405 83.7491 10.0504 83.5663 9.59282C83.1121 8.44777 83.4184 7.46907 84.5521 6.56158C83.909 6.5546 83.272 6.68499 82.6846 6.94383C82.0971 7.20267 81.5731 7.58385 81.1484 8.06134C79.4098 9.99155 78.7056 12.3839 78.2323 14.8436C77.7198 17.5091 77.9744 20.2161 77.9403 22.9056C77.9257 23.1681 78.0072 23.4271 78.17 23.6351C78.3328 23.843 78.5659 23.9859 78.8266 24.0377C79.2164 24.1414 79.6153 24.2079 80.0179 24.2364C81.1379 24.3154 81.3395 24.5995 81.1359 25.7491C81.0764 26.0896 80.8807 26.0786 80.6509 26.0792C77.4625 26.0792 74.2748 26.0792 71.0864 26.0851C70.7369 26.0851 70.676 25.9433 70.6538 25.6236C70.568 24.3937 70.5523 24.3937 71.7161 24.1943C73.1005 23.9542 73.4834 23.4894 73.4887 21.9288C73.4978 16.6334 73.5017 11.3379 73.4723 6.0431C73.469 5.38416 73.6189 5.14466 74.3167 5.18868C75.2995 5.24369 76.2845 5.24564 77.2675 5.19451C77.8212 5.16926 77.9535 5.36087 77.9423 5.87611C77.9057 7.28655 77.9266 8.70151 77.9266 10.1145Z" fill="black"/>
<path d="M135.206 20.8173C135.569 20.7996 135.932 20.8557 136.273 20.982C136.613 21.1083 136.924 21.3022 137.186 21.5517C137.448 21.8012 137.655 22.1012 137.795 22.433C137.935 22.7648 138.005 23.1214 138.001 23.481C137.996 23.8406 137.918 24.1954 137.769 24.5237C137.621 24.852 137.406 25.1468 137.138 25.3899C136.87 25.633 136.555 25.8192 136.211 25.9372C135.868 26.0552 135.503 26.1024 135.141 26.0759C134.776 26.0963 134.41 26.0424 134.068 25.9173C133.725 25.7923 133.411 25.5989 133.147 25.349C132.883 25.0992 132.674 24.7983 132.532 24.465C132.391 24.1318 132.32 23.7733 132.324 23.4119C132.329 23.0505 132.409 22.6938 132.558 22.3642C132.708 22.0345 132.925 21.7387 133.195 21.4954C133.465 21.2521 133.783 21.0663 134.129 20.9496C134.475 20.833 134.842 20.7879 135.206 20.8173Z" fill="black"/>
<path d="M104.776 6.4685L103.975 6.05036C104.776 4.79049 105.899 3.76153 107.23 3.067C107.805 2.79161 108.447 2.68136 109.083 2.74875C109.719 2.81615 110.323 3.05849 110.826 3.44826C110.975 3.56205 111.1 3.70489 111.191 3.86799C111.282 4.03108 111.339 4.21095 111.357 4.39653C111.482 5.16357 110.712 6.18823 109.726 6.61415C109.335 6.83704 108.876 6.91193 108.434 6.82489C107.991 6.73785 107.596 6.49481 107.321 6.14098C106.231 4.80109 106.208 4.80109 105.057 6.14615C104.964 6.2536 104.873 6.36041 104.776 6.4685Z" fill="#FCE11C"/>
</svg>
