<svg width="147" height="43" viewBox="0 0 147 43" fill="none" xmlns="http://www.w3.org/2000/svg">
<path d="M20.9453 9.4795H27.9278V13.1227H27.9936C28.5767 11.8821 29.4803 10.8164 30.613 10.0338C31.7485 9.31128 33.0798 8.95039 34.4282 8.99955C34.8229 8.99955 35.234 9.01195 35.632 9.0413C36.0078 9.06937 36.3806 9.12913 36.7462 9.21996V15.4605C36.2674 15.3187 35.7807 15.2046 35.2886 15.1188C34.7931 15.0415 34.2923 15.0034 33.7908 15.0047C32.7206 14.9584 31.6532 15.1452 30.6636 15.5518C29.9381 15.8812 29.3236 16.4107 28.8935 17.077C28.4615 17.7936 28.191 18.5945 28.1008 19.4245C27.9762 20.4221 27.9184 21.4268 27.9278 22.4319V31.6988H20.9453V9.4795Z" fill="#1D74B9"/>
<path d="M38.4004 9.48022H45.1988V31.7034H38.4004V9.48022ZM38.1235 3.63489C38.1228 2.7944 38.4163 1.97968 38.9538 1.32965C39.4912 0.67962 40.2394 0.234487 41.0709 0.0701269C41.9024 -0.0942331 42.7656 0.0323746 43.5135 0.428331C44.2614 0.824287 44.8476 1.46507 45.1722 2.24152C45.4968 3.01797 45.5397 3.88199 45.2936 4.6863C45.0476 5.49061 44.5277 6.18543 43.8228 6.65232C43.1178 7.11921 42.2712 7.32931 41.4275 7.24674C40.5837 7.16417 39.795 6.79408 39.1957 6.19955C38.8497 5.86738 38.576 5.46842 38.3916 5.02731C38.2072 4.5862 38.1159 4.11232 38.1235 3.63489Z" fill="#1D74B9"/>
<path d="M83.1568 22.0485C82.6364 22.0485 81.9846 22.0341 81.2038 22.0798C80.4416 22.1164 79.6863 22.24 78.9528 22.4482C78.2804 22.6338 77.6545 22.9562 77.1149 23.395C76.8611 23.6139 76.6608 23.8872 76.5294 24.1941C76.398 24.5011 76.3388 24.8337 76.3565 25.1667C76.3392 25.5384 76.4296 25.9072 76.6169 26.2295C76.8042 26.5519 77.0806 26.8144 77.4135 26.9861C78.0835 27.3713 78.8439 27.5753 79.6185 27.5775C80.2792 27.5791 80.9367 27.4865 81.5708 27.3024C82.1682 27.1348 82.7345 26.8733 83.2482 26.5277C83.7386 26.1992 84.1456 25.7626 84.4375 25.2522C84.7436 24.6935 84.899 24.0659 84.8887 23.4303V22.0485H83.1561M84.8887 28.9704H84.7638C84.0132 30.0837 82.9523 30.9567 81.7102 31.4829C79.4695 32.3704 76.992 32.4812 74.6797 31.7972C73.7539 31.5276 72.8887 31.0849 72.1308 30.493C71.3957 29.9155 70.7992 29.1835 70.3843 28.3496C69.9387 27.4267 69.7185 26.4127 69.7416 25.3898C69.7063 24.2696 69.9513 23.1582 70.4547 22.1548C70.9171 21.287 71.5776 20.5383 72.3834 19.9683C73.2303 19.374 74.1692 18.9203 75.1632 18.625C76.2217 18.3019 77.3053 18.0655 78.4029 17.9181C79.5154 17.7673 80.6352 17.6759 81.7576 17.6443C82.8741 17.6147 83.9073 17.5995 84.8571 17.5986C84.8798 17.0491 84.7734 16.5018 84.5462 16.0001C84.319 15.4983 83.9773 15.0557 83.5481 14.7072C82.6769 13.9939 81.5764 13.6142 80.4466 13.6372C79.3709 13.624 78.3076 13.8657 77.3451 14.3421C76.3955 14.826 75.5462 15.4828 74.8416 16.2781L71.1658 12.543C72.4625 11.353 73.9963 10.4456 75.6684 9.87917C77.3811 9.28714 79.1827 8.98685 80.9966 8.99102C82.69 8.9389 84.3789 9.19371 85.98 9.74289C87.2027 10.1882 88.282 10.9515 89.1046 11.9528C89.9117 13.0043 90.4592 14.2286 90.703 15.5276C91.0172 17.1405 91.1612 18.7816 91.1326 20.4241V31.6994H84.8835L84.8887 28.9704Z" fill="#E47A25"/>
<path d="M123.274 20.6074C123.206 22.0701 123.671 23.5083 124.583 24.6595C125.06 25.1492 125.632 25.5386 126.264 25.8046C126.896 26.0706 127.575 26.2076 128.262 26.2076C128.949 26.2076 129.628 26.0706 130.26 25.8046C130.892 25.5386 131.464 25.1492 131.941 24.6595C132.793 23.4769 133.251 22.0598 133.251 20.6065C133.251 19.1531 132.793 17.736 131.941 16.5534C131.464 16.0635 130.892 15.6739 130.26 15.4077C129.628 15.1416 128.949 15.0044 128.262 15.0044C127.575 15.0044 126.896 15.1416 126.264 15.4077C125.632 15.6739 125.06 16.0635 124.583 16.5534C123.671 17.7055 123.206 19.1442 123.274 20.6074ZM117.04 20.6074C117.017 18.9721 117.313 17.3478 117.911 15.8237C118.455 14.4568 119.268 13.2111 120.304 12.1596C121.317 11.1396 122.534 10.3402 123.877 9.8121C126.696 8.71628 129.828 8.71628 132.647 9.8121C133.99 10.3406 135.208 11.14 136.222 12.1596C137.257 13.2112 138.069 14.4569 138.611 15.8237C139.777 18.9073 139.777 22.305 138.611 25.3885C138.07 26.7565 137.257 28.0032 136.222 29.0553C135.208 30.0757 133.991 30.8752 132.647 31.4028C129.828 32.4965 126.696 32.4965 123.877 31.4028C122.534 30.8756 121.317 30.0761 120.304 29.0553C119.268 28.0034 118.454 26.7567 117.911 25.3885C117.313 23.8654 117.017 22.2419 117.04 20.6074Z" fill="#A31E22"/>
<path d="M143.422 15.4156C142.846 15.4156 142.283 15.2464 141.805 14.9294C141.326 14.6124 140.953 14.1619 140.733 13.6347C140.513 13.1076 140.455 12.5276 140.567 11.968C140.68 11.4083 140.957 10.8943 141.364 10.4908C141.771 10.0874 142.289 9.81263 142.854 9.70132C143.418 9.59001 144.003 9.64715 144.535 9.8655C145.067 10.0838 145.521 10.4536 145.841 10.928C146.161 11.4024 146.332 11.9602 146.332 12.5307C146.332 12.9096 146.257 13.2849 146.11 13.635C145.964 13.985 145.75 14.3031 145.48 14.571C145.209 14.8389 144.889 15.0514 144.535 15.1964C144.182 15.3413 143.804 15.4158 143.422 15.4156ZM143.422 8.9834C142.714 8.98353 142.022 9.19164 141.434 9.58148C140.845 9.97132 140.387 10.5254 140.116 11.1735C139.845 11.8217 139.774 12.5349 139.913 13.223C140.051 13.911 140.391 14.543 140.892 15.0391C141.392 15.5352 142.03 15.873 142.724 16.0099C143.418 16.1468 144.137 16.0766 144.791 15.8082C145.445 15.5398 146.004 15.0852 146.397 14.502C146.79 13.9187 147 13.233 147.001 12.5314C147.001 12.0654 146.908 11.604 146.728 11.1735C146.549 10.743 146.285 10.3519 145.953 10.0224C145.62 9.69291 145.226 9.43156 144.791 9.25329C144.357 9.07501 143.892 8.98331 143.422 8.9834Z" fill="#9C9E9D"/>
<path d="M143.892 11.8217C143.894 11.7451 143.877 11.669 143.842 11.6007C143.805 11.535 143.746 11.4842 143.676 11.4572C143.618 11.4323 143.557 11.4173 143.495 11.4129C143.429 11.407 143.346 11.4037 143.246 11.4037H142.956V12.3245H143.205C143.308 12.3261 143.411 12.3187 143.513 12.3023C143.591 12.2901 143.665 12.258 143.727 12.2091C143.78 12.1693 143.823 12.1165 143.849 12.0558C143.88 11.9814 143.894 11.9014 143.891 11.8211M145.287 14.1947H144.23L143.267 12.9401H142.957V14.1947H142.094V10.7725H143.484C143.651 10.7714 143.818 10.7836 143.984 10.809C144.124 10.832 144.258 10.8823 144.378 10.957C144.498 11.0322 144.599 11.134 144.672 11.2544C144.75 11.3941 144.787 11.5517 144.782 11.7109C144.792 11.9371 144.729 12.1608 144.603 12.3493C144.478 12.5164 144.314 12.6508 144.125 12.7405L145.287 14.1947Z" fill="#9C9E9D"/>
<path d="M109.751 9.45911V12.4365H109.648C109.426 12.1258 109.163 11.8463 108.865 11.6058C108.323 11.1496 107.73 10.7574 107.096 10.4372C106.399 10.0613 105.659 9.77071 104.891 9.57191C103.962 9.32758 103.005 9.1975 102.043 9.18457C100.536 9.194 99.0545 9.56661 97.7253 10.2703C96.5362 10.8297 95.4989 11.6622 94.6995 12.6987C93.8921 13.7768 93.3131 15.0056 92.9971 16.3113C92.6419 17.7939 92.4788 19.3153 92.5116 20.8387C92.514 22.4268 92.7387 24.0069 93.1793 25.5338C93.5483 26.9029 94.2137 28.1758 95.129 29.2644C96.0163 30.25 97.1368 31.0016 98.3897 31.4515C99.8042 32.0066 101.32 32.2619 102.84 32.2008C103.958 32.1699 105.061 31.9356 106.093 31.5095C107.219 31.0713 108.202 30.3343 108.934 29.3791H109.014V31.531C109.066 32.2383 108.974 32.9487 108.742 33.6198C108.511 34.2908 108.146 34.9089 107.669 35.437C106.67 36.4569 105.213 37.0021 103.092 37.0021C101.835 37.0737 100.575 36.9536 99.3547 36.646C97.9323 36.2891 96.5834 35.6896 95.3684 34.8743L92.0137 39.7532C93.6093 40.9477 95.4234 41.8242 97.3556 42.3342C99.2794 42.8073 101.257 43.0302 103.239 42.9974C107.603 42.9974 110.691 41.9084 112.827 39.7291C114.963 37.5498 115.834 34.3598 115.834 30.1545V9.45911H109.75M108.032 24.69C107.553 25.1811 106.98 25.5717 106.346 25.8385C105.712 26.1053 105.03 26.2428 104.341 26.2428C103.652 26.2428 102.971 26.1053 102.337 25.8385C101.702 25.5717 101.129 25.1811 100.651 24.69C99.7963 23.503 99.3371 22.0813 99.3371 20.6232C99.3371 19.1651 99.7963 17.7434 100.651 16.5564C101.129 16.0653 101.702 15.6747 102.337 15.4079C102.971 15.1411 103.652 15.0036 104.341 15.0036C105.03 15.0036 105.712 15.1411 106.346 15.4079C106.98 15.6747 107.553 16.0653 108.032 16.5564C108.887 17.743 109.347 19.1649 109.347 20.6232C109.347 22.0815 108.887 23.5034 108.032 24.69Z" fill="#A31E22"/>
<path d="M19.109 14.9451H12.3113V22.3835C12.3207 22.9403 12.3683 23.4959 12.4541 24.0463C12.5146 24.5084 12.6772 24.9514 12.9303 25.344C13.1981 25.7316 13.5819 26.026 14.0275 26.1859C14.6534 26.4057 15.3156 26.5062 15.9792 26.4819C16.5194 26.4738 17.0587 26.4361 17.5947 26.3691C18.1368 26.3314 18.659 26.1513 19.1077 25.8474V31.5389C18.245 31.8073 17.3577 31.9906 16.4587 32.086C15.5655 32.1762 14.6682 32.2216 13.7703 32.2222C12.5793 32.2325 11.3909 32.1103 10.2274 31.8577C9.21937 31.6452 8.25902 31.2518 7.39363 30.697C6.5886 30.1777 5.92956 29.4644 5.47813 28.624C4.99151 27.6644 4.75047 26.6009 4.77625 25.5272V14.9451H0V9.47995H4.77561V2.92383H12.3094V9.48059H19.109V14.9458" fill="#1D74B9"/>
<path d="M46.1035 9.48047H53.5465L59.1969 24.5965H59.2877L64.5264 9.47852H71.4635L62.6425 31.7043H55.3376L46.1035 9.48242" fill="#E47A25"/>
</svg>
