<svg width="144" height="48" viewBox="0 0 144 48" fill="none" xmlns="http://www.w3.org/2000/svg">
<path d="M50.3254 20.7617C44.0723 20.7617 37.8205 20.7787 31.568 20.7395C30.7997 20.7356 30.5886 20.9622 30.7033 21.6537C30.7163 21.7918 30.7174 21.9308 30.7066 22.0691C30.6797 24.8771 29.4382 26.1035 26.6155 26.1068C24.0589 26.1068 21.5023 26.0931 18.9457 26.1185C18.4213 26.1237 18.2063 26.0153 18.2397 25.442C18.2897 24.5574 18.2897 23.6707 18.2397 22.7861C18.2082 22.2167 18.42 22.0985 18.949 22.1063C21.0047 22.1344 23.0612 22.1115 25.1182 22.1226C25.3525 22.16 25.5926 22.1294 25.8099 22.0345C26.0272 21.9395 26.2124 21.7842 26.3434 21.5871C26.584 21.1646 26.6711 20.829 25.9422 20.8362C24.2765 20.8531 22.6082 20.8512 20.9438 20.7787C19.1646 20.7016 18.2633 19.7254 18.2561 17.9707C18.246 15.9497 18.246 13.9288 18.2561 11.9079C18.264 10.2139 19.0821 9.19783 20.7806 9.12142C23.1923 9.01237 25.6145 9.00649 28.0268 9.09595C29.8282 9.16126 30.6719 10.1787 30.704 12.0261C30.727 13.4105 30.7348 14.795 30.6948 16.1787C30.6804 16.7012 30.8312 16.8866 31.3425 16.8089C31.5354 16.7798 31.7317 16.7798 31.9246 16.8089C32.4949 16.8945 32.6765 16.6933 32.6654 16.0978C32.626 13.9663 32.6654 11.8341 32.6398 9.70329C32.6339 9.20764 32.7493 9.01302 33.2835 9.03718C34.2268 9.08028 35.1747 9.0829 36.1174 9.03718C36.6543 9.01171 36.7572 9.20175 36.7506 9.69609C36.7244 11.8557 36.7565 14.0146 36.727 16.1735C36.7205 16.6777 36.8339 16.8559 37.3629 16.8181C38.0564 16.7739 38.752 16.7728 39.4456 16.8148C39.8959 16.8376 40.004 16.6718 39.9968 16.2493C39.9732 14.8929 39.9818 13.5359 39.9903 12.1796C40.0028 10.0487 40.9212 9.0633 43.0615 9.0091C45.1166 8.95751 47.1743 8.96274 49.2307 9.0091C51.4175 9.05743 52.3556 10.0311 52.3858 12.2011C52.4046 13.5294 52.4028 14.8572 52.3805 16.1846C52.374 16.6084 52.4211 16.8155 52.9436 16.8194C54.5549 16.8331 54.5549 16.8599 54.5549 15.2286C54.5549 13.374 54.5779 11.5187 54.5405 9.66474C54.5294 9.10248 54.711 8.97972 55.2432 8.98429C58.0502 9.00976 60.8566 8.97907 63.6629 9.00127C66.0156 9.01956 66.9261 9.95993 66.9261 12.2958C66.9261 13.6241 66.9471 14.9536 66.9143 16.2793C66.9025 16.7423 67.0585 16.8363 67.4814 16.7959C67.6847 16.7963 67.8859 16.7545 68.0721 16.673C68.2583 16.5916 68.4253 16.4723 68.5625 16.3227C68.6997 16.1732 68.804 15.9968 68.8688 15.8048C68.9336 15.6128 68.9573 15.4094 68.9386 15.2077C68.9714 13.852 68.9524 12.495 68.953 11.1386C68.953 7.67758 68.9655 4.21652 68.9406 0.755459C68.9373 0.191893 69.0592 -0.0281807 69.6663 0.00642991C70.6358 0.0586724 71.6119 0.0377771 72.5834 0.0123089C72.9806 0.00186044 73.1078 0.122007 73.1078 0.522968C73.0953 6.11553 73.1314 11.7074 73.0783 17.2987C73.0573 19.5111 71.6184 20.7487 69.2559 20.7598C64.9484 20.7741 60.6415 20.7637 56.334 20.7637L50.3254 20.7617ZM46.1844 16.8017C48.2166 16.8017 48.2087 16.8017 48.2166 15.1509C48.229 13.1036 48.4454 12.9103 45.875 12.9475C44.1903 12.9724 44.0729 13.0677 44.0729 14.7107C44.0756 16.8017 44.0756 16.8017 46.1844 16.8017ZM24.3696 16.8559H24.7859C26.4247 16.8559 26.5361 16.7462 26.5361 15.128C26.5361 12.9795 26.5361 12.9795 24.1107 12.9795C22.4404 12.9795 22.3112 13.1102 22.3112 14.7643C22.3125 16.8553 22.3125 16.8553 24.3696 16.8553V16.8559ZM58.7248 14.8185C58.7248 15.3141 58.7359 15.8098 58.7202 16.3054C58.7097 16.6195 58.7431 16.8213 59.1502 16.8076C60.0614 16.7789 60.9746 16.8037 61.8864 16.7867C62.0049 16.7969 62.1241 16.7807 62.2355 16.7393C62.3469 16.6979 62.4477 16.6323 62.5305 16.5472C62.6133 16.4622 62.676 16.3599 62.7142 16.2477C62.7523 16.1355 62.7649 16.0162 62.751 15.8986C62.755 15.623 62.751 15.3481 62.751 15.0725C62.751 12.9534 62.751 12.9534 60.5878 12.9534C58.7241 12.9534 58.7241 12.9534 58.7248 14.8178V14.8185Z" fill="#2484C6"/>
<path d="M121.267 20.7625C117.098 20.7625 112.929 20.7834 108.761 20.743C107.993 20.7351 107.647 20.8618 107.768 21.7023C107.83 22.2538 107.796 22.8119 107.667 23.3518C107.323 24.9916 106.327 26.0051 104.656 26.0547C101.684 26.1416 98.7101 26.09 95.7366 26.1128C95.3341 26.1128 95.2922 25.9235 95.2968 25.6009C95.3092 24.6324 95.3282 23.662 95.2902 22.6942C95.2705 22.192 95.4757 22.1065 95.9228 22.1065C98.0343 22.1261 100.147 22.1097 102.259 22.1189C102.493 22.1512 102.733 22.1131 102.946 22.0096C103.159 21.9062 103.336 21.7419 103.456 21.5377C103.686 21.1132 103.726 20.8311 103.068 20.835C101.402 20.8455 99.7341 20.8468 98.0697 20.7763C96.345 20.7038 95.4882 19.9319 95.3715 18.2438C95.2156 16.0068 95.2173 13.7616 95.3767 11.5248C95.4856 10.0078 96.2774 9.22022 97.835 9.11704C100.302 8.95973 102.776 8.95777 105.242 9.11116C106.902 9.20977 107.73 10.156 107.772 11.8219C107.809 13.2879 107.802 14.7566 107.772 16.2233C107.762 16.7066 107.92 16.8052 108.379 16.8111C110.59 16.8372 110.589 16.8515 110.589 14.656C110.589 12.9673 110.604 11.2779 110.58 9.58984C110.573 9.12684 110.693 8.95966 111.18 8.97859C112.124 9.01582 113.071 9.02104 114.014 8.97859C114.538 8.95509 114.669 9.12291 114.661 9.63163C114.635 11.7912 114.665 13.9501 114.639 16.1097C114.633 16.6282 114.737 16.8652 115.315 16.8117C116.273 16.7222 117.533 17.2035 118.115 16.6217C118.654 16.0836 118.246 14.8356 118.256 13.8998C118.275 12.4632 118.28 11.02 118.25 9.58135C118.241 9.10071 118.4 8.96881 118.865 8.98513C119.808 9.01713 120.756 9.02823 121.698 8.98186C122.242 8.95509 122.337 9.16014 122.332 9.64534C122.309 11.8049 122.339 13.9638 122.309 16.1234C122.302 16.6648 122.44 16.8496 123 16.815C123.776 16.7634 124.556 16.7634 125.333 16.815C125.913 16.8561 126.006 16.6282 126 16.1156C125.974 13.9841 126.009 11.8519 125.976 9.72045C125.967 9.14448 126.115 8.94595 126.711 8.97991C127.598 9.0331 128.489 9.0331 129.377 8.97991C129.961 8.94465 130.066 9.17058 130.061 9.68779C130.037 11.8193 130.072 13.9508 130.037 16.0823C130.028 16.6563 130.173 16.8195 130.763 16.8176C133.391 16.8117 133.605 16.6217 133.605 13.9919C133.605 9.59049 133.618 5.18841 133.59 0.786331C133.586 0.169217 133.727 -0.0325805 134.366 0.00790743C135.307 0.0673333 136.254 0.0392486 137.199 0.0157395C137.611 0.005291 137.789 0.0993372 137.786 0.560377C137.771 5.98707 137.827 11.4138 137.752 16.8385C137.712 19.6152 136.394 20.7619 133.608 20.7625C129.493 20.7634 125.38 20.7634 121.267 20.7625ZM101.444 16.8555C101.722 16.8555 101.999 16.8587 102.277 16.8555C103.405 16.8385 103.61 16.6256 103.613 15.4756C103.613 15.0054 103.591 14.5339 103.618 14.0651C103.644 13.9342 103.639 13.7992 103.605 13.6703C103.571 13.5413 103.508 13.4218 103.421 13.3205C103.334 13.2192 103.225 13.1388 103.102 13.0853C102.98 13.0319 102.847 13.0067 102.713 13.0117C101.91 12.9662 101.105 12.9688 100.302 13.0196C100.175 13.0147 100.049 13.0376 99.9319 13.0869C99.8151 13.1361 99.7106 13.2104 99.6259 13.3044C99.5412 13.3984 99.4782 13.5098 99.4416 13.6308C99.4051 13.7518 99.3957 13.8793 99.4142 14.0043C99.4253 14.2806 99.4142 14.5574 99.4142 14.8343C99.4161 16.8555 99.4161 16.8555 101.444 16.8555Z" fill="#91BD3F"/>
<path d="M93.7458 16.8911C93.6593 18.798 93.9425 21.0476 93.4338 23.2653C92.9729 25.4533 91.7373 27.4032 89.9527 28.7588C88.1681 30.1144 85.9537 30.7854 83.7136 30.6492C81.5019 30.5726 79.3861 29.731 77.7298 28.269C76.0735 26.8069 74.9801 24.8158 74.6377 22.6378C74.5486 22.0873 74.6692 21.907 75.248 21.9377C76.135 21.9861 77.0272 21.9776 77.9147 21.9377C78.4333 21.9168 78.6457 22.0409 78.8076 22.6005C79.0485 23.5896 79.5624 24.4918 80.2912 25.2051C81.02 25.9184 81.9345 26.4144 82.9315 26.6369C83.853 26.8788 84.8243 26.8568 85.7337 26.5734C86.6432 26.2901 87.454 25.7568 88.0729 25.035C88.9554 23.9921 89.4821 22.6965 89.5767 21.3356C89.635 20.9066 89.4456 20.8334 89.0673 20.838C87.6776 20.8563 86.2885 20.8491 84.8981 20.8419C84.5376 20.8411 84.1774 20.8209 83.8191 20.7812C82.1894 20.5958 81.3202 19.6802 81.2973 18.0457C81.2684 15.9969 81.2684 13.9481 81.2973 11.8993C81.3176 10.2132 82.1783 9.22843 83.8598 9.11741C86.2992 8.95696 88.7466 8.95696 91.186 9.11741C92.8563 9.22778 93.7157 10.2276 93.7426 11.9104C93.7662 13.462 93.7458 15.0136 93.7458 16.8911ZM87.475 16.8532C87.7523 16.8532 88.0283 16.8532 88.3056 16.8532C89.3977 16.8415 89.5924 16.6429 89.6003 15.5263C89.6042 15.03 89.6003 14.5337 89.6003 14.0373C89.6182 13.906 89.606 13.7723 89.5647 13.6463C89.5235 13.5203 89.4541 13.4052 89.3619 13.3097C89.2696 13.2141 89.1569 13.1406 89.0321 13.0946C88.9073 13.0486 88.7737 13.0314 88.6412 13.0441C87.8943 13.0332 87.1473 13.0332 86.3999 13.0441C86.2676 13.0316 86.1342 13.049 86.0096 13.0949C85.8849 13.1408 85.7723 13.2141 85.68 13.3093C85.5876 13.4046 85.518 13.5193 85.4763 13.645C85.4346 13.7707 85.4218 13.9041 85.4389 14.0354C85.4357 14.2835 85.4389 14.5317 85.4389 14.7805C85.4343 16.8532 85.4344 16.8532 87.4731 16.8532H87.475Z" fill="#91BD3F"/>
<path d="M41.3951 35.9984C37.0358 35.982 32.683 35.7966 28.3369 35.4916C23.0968 35.2079 17.8881 34.5058 12.7608 33.3921C9.87744 32.8078 7.09937 31.7926 4.5207 30.381C2.96237 29.5649 1.6717 28.3206 0.801836 26.7958C0.356935 25.9952 0.0899966 25.1087 0.0191094 24.1963C-0.0517777 23.2839 0.0750727 22.367 0.391008 21.5078C0.706942 20.6485 1.2046 19.8669 1.85027 19.216C2.49594 18.565 3.27453 18.06 4.13328 17.735C6.17486 16.9999 8.34382 16.6805 10.5116 16.796C12.256 16.8136 12.256 16.7992 12.2468 15.0328C12.2468 14.8663 12.2501 14.7004 12.2383 14.5345C12.251 14.3187 12.2165 14.1027 12.1374 13.9013C12.0583 13.7 11.9363 13.5181 11.7799 13.3681C11.6235 13.2182 11.4363 13.1038 11.2313 13.0328C11.0263 12.9618 10.8083 12.9359 10.5922 12.9568C9.50945 12.972 8.42665 12.9284 7.34864 12.8262C5.86779 12.6244 5.38207 12.179 5.17427 10.6843C5.08381 10.0312 5.06806 9.36776 5.01431 8.64551C7.65873 9.1934 10.2533 9.01968 12.844 9.00074C13.3432 8.99903 13.8415 9.04276 14.3327 9.13136C14.8962 9.18357 15.4199 9.44276 15.8021 9.85848C16.1842 10.2742 16.3975 10.8167 16.4003 11.3804C16.4789 14.3674 16.4514 17.3576 16.4861 20.3465C16.4914 20.8559 16.1702 20.7631 15.8771 20.7638C13.5703 20.7638 11.2642 20.7697 8.95735 20.7605C8.37405 20.7596 7.79194 20.8136 7.21885 20.9218C6.71274 20.9818 6.22704 21.156 5.79867 21.4311C5.37031 21.7062 5.01055 22.075 4.7468 22.5095C4.48304 22.9439 4.32221 23.4326 4.27655 23.9383C4.23089 24.444 4.30163 24.9534 4.48333 25.4277C4.89274 26.6434 5.6885 27.693 6.75017 28.418C9.20973 30.268 12.0724 31.2293 14.985 32.0508C19.7313 33.3135 24.5697 34.203 29.4558 34.7112C33.4251 35.186 37.4101 35.4994 41.4003 35.7404L41.3951 35.9984Z" fill="#2484C6"/>
<path d="M82.3629 36.6114C82.7044 36.1332 83.1506 35.7387 83.6676 35.4574C84.1847 35.1762 84.7591 35.0157 85.3475 34.988C87.4289 34.8848 88.6849 35.9675 88.7616 38.0441C88.8061 39.2601 88.772 40.4786 88.7733 41.6959C88.7733 41.9976 88.7117 42.3907 89.1398 42.3966C89.5239 42.4018 90.011 42.7799 90.2981 42.1955C90.6259 41.5326 90.9602 41.4373 91.5581 41.9911C91.881 42.299 92.2727 42.5261 92.701 42.6535C93.1294 42.7809 93.582 42.805 94.0216 42.7238C94.2037 42.7155 94.3785 42.6493 94.52 42.5348C94.6616 42.4203 94.7627 42.2636 94.8082 42.0877C94.9164 41.6365 94.6115 41.4216 94.289 41.2518C93.8989 41.0468 93.4827 40.8894 93.0802 40.7079C92.5767 40.4813 92.0543 40.2866 91.5725 40.0169C90.365 39.3371 89.8353 38.4013 89.9939 37.346C90.0738 36.7785 90.3402 36.2533 90.7513 35.8524C91.1625 35.4516 91.6954 35.1976 92.2667 35.1303C93.4319 34.8321 94.6638 34.9319 95.7653 35.4137C96.184 35.5853 96.5235 35.9062 96.7174 36.3137C96.9114 36.7213 96.9459 37.1862 96.8141 37.6177C96.7486 37.9122 96.5761 37.8678 96.3939 37.8704C96.0327 37.8763 95.6728 37.858 95.3103 37.8763C94.9714 37.8939 94.7938 37.8659 94.74 37.4231C94.6686 36.8315 94.0917 36.8171 93.6256 36.8047C93.1222 36.791 92.5768 36.8302 92.3414 37.3715C92.1448 37.8286 92.4941 38.1088 92.8566 38.274C93.5849 38.6064 94.3342 38.8924 95.0737 39.2007C95.7564 39.4462 96.353 39.8838 96.7912 40.4604C96.9953 40.7754 97.1265 41.1317 97.175 41.5035C97.2235 41.8754 97.1882 42.2533 97.0717 42.6098C96.9551 42.9663 96.7603 43.2925 96.5013 43.5646C96.2423 43.8366 95.9257 44.0478 95.5745 44.1826C94.758 44.5422 93.8609 44.6814 92.9732 44.5863C92.0856 44.4911 91.2388 44.165 90.5177 43.6406C90.3565 43.5368 90.2103 43.4107 90.0543 43.2997C90.0392 43.2886 90.0018 43.3082 89.8976 43.3278C90.2149 44.419 89.5397 44.404 88.7386 44.391C86.4351 44.3557 86.4344 44.3785 86.4344 42.0844C86.4344 41.0063 86.4469 39.9294 86.4344 38.8474C86.4121 37.3062 85.478 36.6976 84.0378 37.3036C83.533 37.5126 83.106 37.8728 82.8158 38.3342C82.5256 38.7956 82.3866 39.3355 82.418 39.8792C82.3859 41.1787 82.3904 42.4802 82.418 43.7797C82.4291 44.2466 82.2927 44.3825 81.8168 44.3903C80.0698 44.4184 80.0698 44.4373 80.0698 42.7048C80.0698 41.1271 80.0561 39.5507 80.0784 37.9743C80.0849 37.4407 79.9748 37.094 79.3488 37.1795C79.0125 37.2253 78.9489 37.0581 78.9233 36.7531C78.7922 35.2093 78.7817 35.21 80.2999 35.21C80.5228 35.21 80.745 35.21 80.9673 35.21C81.9794 35.2243 82.2003 35.4216 82.3629 36.6114Z" fill="#050505"/>
<path d="M74.5048 10.4598C74.5048 7.22143 74.5185 3.9837 74.4923 0.745315C74.4871 0.169995 74.6346 -0.0298296 75.2292 0.00543407C76.089 0.0598985 76.9514 0.0598985 77.8113 0.00543407C78.4524 -0.038319 78.5901 0.178475 78.5868 0.789059C78.5599 5.38313 78.5724 9.97722 78.5724 14.5719C78.5724 16.4259 78.5514 18.2811 78.5855 20.1344C78.596 20.6569 78.4413 20.796 77.9345 20.7738C77.0168 20.7339 76.099 20.7281 75.1852 20.7738C74.6326 20.8025 74.4884 20.6321 74.4923 20.0881C74.5179 16.8804 74.5048 13.6695 74.5048 10.4598Z" fill="#91BD3F"/>
<path d="M143.95 10.3829C143.95 13.5945 143.929 16.8061 143.967 20.0177C143.975 20.6655 143.782 20.8124 143.177 20.7752C142.317 20.7199 141.454 20.7199 140.594 20.7752C139.969 20.8176 139.813 20.6322 139.816 20.0059C139.843 14.1939 139.832 8.37739 139.832 2.5628C139.832 1.89802 139.856 1.23258 139.823 0.56975C139.801 0.124383 139.964 -0.00295489 140.395 0.0101057C141.34 0.03688 142.287 0.0558161 143.229 0.00422669C143.828 -0.0277718 143.967 0.173362 143.963 0.747376C143.933 3.95898 143.95 7.17125 143.95 10.3829Z" fill="#91BD3F"/>
<path d="M62.7836 43.515C62.7836 44.9229 62.76 46.1337 62.7948 47.3424C62.8092 47.8446 62.6741 47.9955 62.1503 47.9955C60.4958 47.9955 60.4958 48.0183 60.4958 46.3563C60.4958 43.5888 60.4919 40.8225 60.501 38.055C60.501 37.5404 60.4945 37.082 59.7747 37.1813C59.4823 37.2211 59.4155 37.067 59.3814 36.7986C59.1847 35.3123 59.2647 35.2117 60.7174 35.2117C60.9402 35.2117 61.1631 35.2235 61.3847 35.2117C62.0691 35.1667 62.5647 35.3835 62.665 36.2148C63.2247 35.613 63.9596 35.2012 64.7665 35.0372C65.5734 34.8732 66.4116 34.9653 67.1632 35.3005C69.0695 36.0541 70.0076 38.3169 69.5887 40.944C69.4665 41.898 69.0188 42.781 68.3205 43.4451C67.6223 44.1092 66.716 44.5138 65.7538 44.5912C65.2102 44.6351 64.6634 44.5618 64.1508 44.376C63.6382 44.1903 63.1719 43.8966 62.7836 43.515ZM67.3068 39.8541C67.3212 38.2215 66.5011 37.0924 65.2484 37.0173C63.9262 36.939 63.0386 37.7252 62.7993 39.1861C62.5371 40.7938 63.2582 42.224 64.4991 42.5622C64.7906 42.6503 65.0999 42.662 65.3972 42.5962C66.6093 42.316 67.291 41.3541 67.3035 39.8541H67.3068Z" fill="#070707"/>
<path d="M125.083 43.5238C122.693 45.5482 119.535 44.6392 118.593 41.724C118.182 40.4797 118.182 39.137 118.593 37.8927C118.776 37.2293 119.127 36.6241 119.614 36.1362C120.1 35.6482 120.705 35.2941 121.37 35.1082C122.035 34.9223 122.736 34.9111 123.407 35.0755C124.077 35.2399 124.693 35.5745 125.195 36.0466C125.669 35.3818 127.673 34.8822 128.429 35.2277C128.491 35.2542 128.542 35.301 128.574 35.3603C128.606 35.4196 128.617 35.488 128.605 35.5542C128.605 35.9695 128.596 36.3855 128.608 36.7995C128.616 37.0836 128.492 37.2194 128.215 37.1822C127.5 37.0875 127.486 37.525 127.489 38.052C127.503 41.0965 127.475 44.1415 127.513 47.186C127.521 47.8475 127.337 48.0186 126.686 47.999C125.159 47.9553 125.157 47.9886 125.157 46.4846C125.157 45.5704 125.155 44.6561 125.152 43.7419C125.137 43.667 125.114 43.5939 125.083 43.5238ZM125.208 39.7688C125.193 38.1905 124.361 37.0823 123.14 37.0176C121.833 36.9484 120.959 37.736 120.7 39.2118C120.428 40.7556 121.13 42.1753 122.339 42.5501C122.709 42.6696 123.108 42.6746 123.481 42.5645C124.607 42.2451 125.22 41.2617 125.208 39.7669V39.7688Z" fill="#050505"/>
<path d="M102.435 34.9823C105.179 34.8792 107.518 36.8722 107.617 39.3975C107.735 42.3838 105.764 44.482 102.728 44.6041C102.07 44.6552 101.407 44.5726 100.782 44.3613C100.156 44.15 99.5799 43.8145 99.0882 43.3749C98.5965 42.9353 98.1994 42.4009 97.9211 41.804C97.6428 41.2071 97.489 40.5601 97.469 39.9023C97.389 37.1922 99.5083 35.0921 102.435 34.9823ZM99.8643 39.7723C99.8421 40.1309 99.8927 40.4903 100.013 40.8289C100.134 41.1675 100.322 41.4783 100.566 41.7427C100.81 42.0072 101.105 42.2198 101.434 42.3677C101.763 42.5157 102.118 42.596 102.479 42.6039C102.846 42.6148 103.212 42.5514 103.554 42.4175C103.896 42.2837 104.208 42.0821 104.47 41.8251C104.731 41.568 104.938 41.2608 105.078 40.9219C105.217 40.583 105.286 40.2195 105.28 39.8533C105.298 39.4877 105.243 39.1222 105.117 38.7782C104.992 38.4341 104.799 38.1184 104.55 37.8494C104.301 37.5805 104 37.3636 103.666 37.2115C103.332 37.0594 102.97 36.9752 102.603 36.9636C102.236 36.9612 101.872 37.0328 101.534 37.1742C101.195 37.3155 100.889 37.5237 100.633 37.7861C100.378 38.0486 100.178 38.3598 100.047 38.7012C99.9149 39.0425 99.854 39.4069 99.8676 39.7723H99.8643Z" fill="#060606"/>
<path d="M107.918 39.8015C107.918 37.0209 110.016 34.9913 112.929 34.9691C113.582 34.9389 114.234 35.0395 114.848 35.2649C115.461 35.4903 116.023 35.8361 116.499 36.2816C116.976 36.7271 117.358 37.2634 117.623 37.8587C117.888 38.454 118.031 39.0962 118.042 39.7473C118.077 42.5129 115.879 44.6105 112.947 44.6072C110.037 44.6013 107.921 42.5821 107.918 39.8015ZM115.647 39.8264C115.629 39.3013 115.457 38.7929 115.152 38.3642C114.847 37.9356 114.422 37.6054 113.931 37.4145C113.44 37.2237 112.903 37.1805 112.387 37.2905C111.871 37.4004 111.399 37.6586 111.029 38.033C110.659 38.4075 110.408 38.8818 110.306 39.3972C110.203 39.9127 110.255 40.4466 110.455 40.9331C110.654 41.4195 110.992 41.837 111.427 42.1339C111.862 42.4309 112.375 42.5942 112.903 42.6037C113.27 42.6156 113.636 42.5515 113.977 42.4156C114.318 42.2796 114.628 42.0747 114.885 41.8138C115.143 41.5529 115.344 41.2415 115.475 40.8995C115.606 40.5574 115.664 40.192 115.647 39.8264Z" fill="#050505"/>
<path d="M54.2288 34.9691C57.1295 34.9652 59.2764 37.002 59.2803 39.7624C59.2842 42.5946 57.1656 44.6216 54.2124 44.6072C53.5587 44.6355 52.9061 44.5314 52.2939 44.3014C51.6817 44.0715 51.1227 43.7203 50.6505 43.2691C50.1783 42.818 49.8028 42.2761 49.5467 41.6764C49.2905 41.0766 49.1591 40.4314 49.1602 39.7796C49.1613 39.1279 49.295 38.4831 49.5531 37.8842C49.8113 37.2853 50.1887 36.7448 50.6624 36.2952C51.1361 35.8456 51.6963 35.4963 52.3093 35.2684C52.9222 35.0405 53.5752 34.9387 54.2288 34.9691ZM56.9433 39.8081C56.9644 39.4418 56.91 39.0751 56.7836 38.7305C56.6571 38.386 56.4612 38.0708 56.2079 37.8044C55.9547 37.5381 55.6494 37.3261 55.3108 37.1817C54.9723 37.0372 54.6077 36.9633 54.2394 36.9644C53.8711 36.9655 53.5069 37.0417 53.1693 37.1882C52.8317 37.3347 52.5277 37.5485 52.276 37.8164C52.0244 38.0842 51.8304 38.4006 51.7061 38.7459C51.5817 39.0912 51.5296 39.4583 51.5529 39.8244C51.539 40.1863 51.5988 40.5473 51.7285 40.8857C51.8583 41.224 52.0553 41.5328 52.3079 41.7933C52.5604 42.0539 52.8632 42.2609 53.1981 42.4019C53.533 42.5429 53.893 42.6151 54.2566 42.614C54.6202 42.6129 54.9798 42.5386 55.3139 42.3955C55.6479 42.2525 55.9494 42.0436 56.2004 41.7815C56.4513 41.5194 56.6465 41.2095 56.7742 40.8704C56.9018 40.5313 56.9594 40.1699 56.9433 39.8081Z" fill="#050505"/>
<path d="M75.5679 40.2004C74.6796 40.2004 73.7894 40.233 72.9031 40.1886C72.3256 40.1599 72.3341 40.4191 72.4574 40.826C72.7112 41.5075 73.2233 42.0627 73.8837 42.372C74.5441 42.6814 75.2999 42.7202 75.9887 42.4801C76.3415 42.4021 76.6742 42.2518 76.9654 42.0386C77.8412 41.2837 77.9206 42.1875 78.2811 42.5963C78.7767 43.1579 78.4607 43.412 77.9809 43.7169C77.0203 44.3332 75.8934 44.6417 74.7516 44.601C73.6098 44.5602 72.5079 44.1722 71.594 43.489C70.7823 42.7656 70.2262 41.8008 70.0085 40.7377C69.7907 39.6747 69.9229 38.5699 70.3852 37.5876C70.8504 36.6044 71.6498 35.8169 72.6419 35.3647C73.6341 34.9124 74.7549 34.8245 75.8058 35.1165C77.7305 35.6298 78.8816 37.4322 78.7485 39.657C78.7223 40.0985 78.5682 40.2206 78.1494 40.2075C77.2886 40.1821 76.4279 40.2004 75.5679 40.2004ZM72.4128 38.5639C73.5272 38.5639 74.5282 38.5763 75.5265 38.5554C75.7757 38.5495 76.1264 38.7376 76.2647 38.4084C76.3735 38.1472 76.207 37.8664 76.0621 37.63C75.891 37.3258 75.6275 37.0835 75.3096 36.9377C74.9916 36.7918 74.6354 36.7501 74.2922 36.8183C73.8331 36.8717 73.4031 37.0697 73.0649 37.3836C72.7267 37.6975 72.498 38.1108 72.4121 38.5632L72.4128 38.5639Z" fill="#060606"/>
<path d="M137.294 41.6989C137.089 41.8458 137.278 41.996 137.299 42.1384C137.424 42.5832 137.383 43.0578 137.185 43.4753C136.987 43.8927 136.644 44.2251 136.22 44.4116C135.778 44.6165 135.278 44.6662 134.804 44.5528C134.329 44.4393 133.907 44.1693 133.606 43.7866C133.52 43.6854 133.44 43.5789 133.344 43.4562C133.263 43.8167 133.05 44.1344 132.747 44.3477C132.445 44.5611 132.073 44.6548 131.705 44.6107C131.258 44.6236 130.821 44.4846 130.464 44.2166C130.107 43.9486 129.853 43.5676 129.743 43.1363C129.632 42.7051 129.673 42.2493 129.857 41.8439C130.041 41.4385 130.359 41.1078 130.757 40.9061C131.07 40.7513 131.416 40.6763 131.766 40.6877C132.115 40.699 132.456 40.7965 132.758 40.9714C132.84 41.01 132.914 41.0649 132.975 41.1328C133.036 41.2007 133.082 41.2802 133.111 41.3665C133.139 41.4527 133.15 41.5439 133.143 41.6345C133.135 41.7251 133.109 41.8132 133.066 41.8935C132.892 42.1429 132.514 42.1547 132.191 41.7694C131.777 41.2777 131.273 41.5284 130.915 41.9392C130.749 42.1458 130.662 42.4044 130.67 42.6688C130.678 42.9333 130.78 43.1863 130.958 43.3829C131.135 43.5795 131.377 43.7068 131.641 43.7421C131.904 43.7774 132.171 43.7184 132.395 43.5757C132.519 43.4714 132.674 43.4116 132.836 43.4057C132.998 43.3997 133.158 43.4481 133.289 43.543C133.289 43.3295 133.297 43.195 133.289 43.0617C133.213 41.9477 133.576 41.2378 134.411 40.8806C134.858 40.6831 135.359 40.6409 135.833 40.7609C136.307 40.8808 136.727 41.156 137.025 41.5421C137.099 41.6257 137.116 41.8295 137.314 41.7178L137.294 41.6989ZM136.37 42.6516C136.374 42.3594 136.261 42.0775 136.056 41.8679C135.852 41.6583 135.572 41.5381 135.279 41.5337C135.133 41.5392 134.991 41.5739 134.859 41.6357C134.727 41.6975 134.61 41.785 134.513 41.8932C134.416 42.0013 134.342 42.1278 134.295 42.265C134.248 42.4023 134.23 42.5476 134.24 42.6921C134.234 42.8312 134.256 42.9702 134.305 43.1004C134.355 43.2307 134.43 43.3493 134.528 43.449C134.626 43.5488 134.743 43.6273 134.872 43.6799C135.002 43.7325 135.14 43.7579 135.28 43.7546C135.426 43.7582 135.571 43.732 135.706 43.6776C135.841 43.6232 135.963 43.5417 136.065 43.4383C136.168 43.3348 136.247 43.2116 136.3 43.0761C136.352 42.9407 136.376 42.796 136.37 42.651L136.37 42.6516Z" fill="#0E0E0E"/>
<path d="M137.31 41.7141C137.324 40.6954 137.769 40.427 138.638 41.0023C138.934 41.1982 139.003 41.0317 139.168 40.937C139.409 40.7443 139.717 40.6533 140.025 40.6834C140.333 40.7135 140.617 40.8624 140.816 41.0983C141.029 41.3425 141.094 41.2629 141.29 41.0898C141.497 40.8809 141.766 40.744 142.057 40.6994C142.348 40.6548 142.645 40.705 142.906 40.8423C143.469 41.1218 143.45 41.6606 143.52 42.1895C143.594 42.7407 143.142 43.4447 143.949 43.8339C143.988 43.9301 144.005 44.0339 143.998 44.1375C143.991 44.2411 143.961 44.3418 143.909 44.432C143.647 44.6475 143.276 44.513 142.951 44.5104C142.683 44.5104 142.564 44.306 142.558 44.0637C142.543 43.5113 142.558 42.9594 142.538 42.4076C142.527 42.0857 142.57 41.6854 142.12 41.624C141.938 41.6071 141.756 41.6537 141.605 41.7558C141.454 41.8579 141.343 42.0092 141.292 42.1836C141.118 42.7666 141.069 43.3791 141.147 43.9821C141.138 44.3132 141.156 44.5443 140.689 44.5411C140.221 44.5378 140.127 44.3661 140.152 43.9534C140.181 43.4309 140.16 42.9046 140.158 42.3802C140.158 42.0746 140.189 41.7154 139.809 41.6266C139.631 41.5934 139.447 41.6252 139.291 41.7162C139.134 41.8073 139.016 41.9514 138.957 42.1223C138.763 42.6987 138.706 43.312 138.79 43.9142C138.776 44.2655 138.81 44.5287 138.294 44.5411C137.777 44.5535 137.79 44.2877 137.796 43.9364C137.808 43.3291 137.796 42.7211 137.8 42.1138C137.8 41.769 137.77 41.4718 137.297 41.6965L137.31 41.7141Z" fill="#0E0E0E"/>
<path d="M46.1627 3.3936C46.6945 3.39179 47.206 3.59658 47.5886 3.96446C47.9713 4.33234 48.1949 4.83432 48.2119 5.36379C48.2179 5.63706 48.1689 5.90877 48.0678 6.16288C47.9667 6.41699 47.8156 6.64837 47.6234 6.84341C47.4311 7.03845 47.2017 7.19319 46.9485 7.29853C46.6953 7.40386 46.4235 7.45766 46.1491 7.45675C45.8748 7.45583 45.6033 7.40023 45.3508 7.29321C45.0984 7.18619 44.8699 7.02991 44.679 6.83359C44.4881 6.63727 44.3386 6.40489 44.2392 6.1501C44.1398 5.89532 44.0927 5.6233 44.1004 5.35008C44.123 4.82142 44.3506 4.32209 44.7352 3.95719C45.1199 3.59228 45.6316 3.39024 46.1627 3.3936Z" fill="#2484C6"/>
<path d="M37.1843 7.4707C36.9203 7.48059 36.6571 7.43573 36.4114 7.33897C36.1657 7.2422 35.9428 7.09563 35.7569 6.90856C35.571 6.72149 35.4262 6.498 35.3316 6.25224C35.237 6.00649 35.1946 5.74383 35.2073 5.48091C35.1961 5.21762 35.2389 4.95482 35.3329 4.70851C35.427 4.4622 35.5704 4.23753 35.7543 4.04816C35.9383 3.85879 36.159 3.70869 36.403 3.60698C36.6471 3.50526 36.9093 3.45406 37.1739 3.45651C37.4451 3.45072 37.7146 3.49998 37.9661 3.60128C38.2177 3.70257 38.4458 3.8538 38.6368 4.04575C38.8278 4.2377 38.9775 4.46635 39.077 4.71779C39.1764 4.96924 39.2234 5.23821 39.2152 5.50834C39.2158 5.77136 39.1632 6.03181 39.0606 6.27414C38.9579 6.51648 38.8074 6.73576 38.6178 6.91888C38.4283 7.10201 38.2037 7.24526 37.9574 7.34006C37.7111 7.43487 37.4482 7.47929 37.1843 7.4707Z" fill="#2484C6"/>
<path d="M89.9015 7.49995C89.6386 7.51063 89.3763 7.46732 89.1309 7.37269C88.8855 7.27806 88.6623 7.13414 88.4751 6.94989C88.2879 6.76565 88.1409 6.54501 88.043 6.30171C87.9451 6.0584 87.8984 5.79765 87.906 5.53564C87.8947 5.26668 87.9388 4.99825 88.0356 4.74691C88.1323 4.49557 88.2797 4.26663 88.4687 4.07421C88.6577 3.88179 88.8842 3.72996 89.1344 3.62808C89.3845 3.52621 89.6529 3.47643 89.9231 3.48184C90.4547 3.48353 90.9643 3.69368 91.3415 4.0668C91.7188 4.43992 91.9334 4.94601 91.9389 5.47555C91.9506 5.74497 91.9059 6.01386 91.8076 6.26512C91.7093 6.51638 91.5596 6.74451 91.3679 6.93495C91.1763 7.12539 90.9469 7.27398 90.6944 7.37125C90.4419 7.46853 90.1719 7.51236 89.9015 7.49995Z" fill="#91BD3F"/>
<path d="M34.5689 5.45801C34.5809 5.72028 34.5388 5.98222 34.4454 6.22771C34.352 6.4732 34.2092 6.69707 34.0257 6.88556C33.8423 7.07405 33.6221 7.22318 33.3787 7.3238C33.1353 7.42442 32.8737 7.47439 32.6102 7.47065C32.3397 7.48178 32.0698 7.43715 31.8174 7.33954C31.565 7.24193 31.3356 7.09344 31.1434 6.9034C30.9513 6.71335 30.8007 6.48586 30.7009 6.23512C30.6011 5.98438 30.5544 5.71581 30.5636 5.44625C30.5646 5.18347 30.6177 4.92345 30.7198 4.68116C30.822 4.43887 30.9711 4.21907 31.1588 4.03441C31.3465 3.84974 31.569 3.70385 31.8135 3.60512C32.0579 3.50638 32.3196 3.45675 32.5833 3.45908C32.8466 3.45649 33.1077 3.50659 33.3511 3.60639C33.5946 3.7062 33.8155 3.85367 34.0006 4.04009C34.1858 4.22651 34.3315 4.44806 34.4291 4.69162C34.5268 4.93519 34.5743 5.1958 34.5689 5.45801Z" fill="#2484C6"/>
<path d="M85.337 7.49925C85.0678 7.51009 84.7992 7.4657 84.548 7.36884C84.2967 7.27197 84.068 7.12469 83.8763 6.93616C83.6845 6.74762 83.5336 6.52186 83.4331 6.27284C83.3326 6.02383 83.2844 5.75687 83.2917 5.48856C83.2941 4.96026 83.5045 4.45398 83.8777 4.07859C84.2508 3.70319 84.7569 3.48866 85.2872 3.48114C85.5568 3.47413 85.8249 3.52212 86.0752 3.62218C86.3255 3.72223 86.5525 3.87223 86.7425 4.06295C86.9324 4.25366 87.0811 4.48108 87.1795 4.73118C87.2779 4.98129 87.324 5.24882 87.3148 5.5173C87.3246 5.77921 87.2803 6.04033 87.1845 6.28444C87.0888 6.52856 86.9436 6.75044 86.7581 6.93632C86.5727 7.12219 86.3508 7.26809 86.1063 7.36493C85.8618 7.46177 85.6 7.50749 85.337 7.49925Z" fill="#91BD3F"/>
<path d="M128.954 44.517C128.609 44.5718 128.466 44.4517 128.473 44.0755C128.481 43.7131 128.546 43.5322 128.97 43.5303C129.412 43.5303 129.437 43.7445 129.452 44.0893C129.466 44.4804 129.284 44.5634 128.954 44.517Z" fill="#0E0E0E"/>
<path d="M41.3965 35.9985L41.4004 35.7373C41.759 35.7432 42.1215 35.7373 42.4781 35.7576C43.217 35.785 43.9531 35.8646 44.6807 35.9959L41.3965 35.9985Z" fill="#393939"/>
</svg>
