<svg width="145" height="34" viewBox="0 0 145 34" fill="none" xmlns="http://www.w3.org/2000/svg">
<path d="M8.80678 13.7364C15.4117 11.6587 16.4597 5.63225 15.6209 0.229705C15.6209 0.229705 15.621 -0.0825747 15.8315 0.0210822C22.2266 3.13861 29.3564 9.684 29.3564 19.7628C29.3536 21.6577 28.9697 23.5331 28.227 25.2792C27.4844 27.0254 26.398 28.6073 25.0313 29.9326C23.6646 31.2579 22.0451 32.2999 20.2673 32.9978C18.4896 33.6957 16.5893 34.0354 14.6776 33.9971C5.24249 33.9971 0 27.4517 0 19.6592C0 14.9829 3.14457 10.3079 6.81412 8.2302C6.81412 8.2302 7.12924 8.23019 7.12924 8.43751C7.12924 9.47603 7.5483 12.074 8.70219 13.6327L8.80678 13.7364Z" fill="url(#paint0_radial_711_1149)"/>
<path d="M47.8095 28.0752L48.3358 27.4527L49.9087 32.1276H49.6995C48.6509 33.1662 46.9733 33.7901 44.7715 33.7901C43.9288 33.8399 43.0847 33.7181 42.2913 33.4322C41.4979 33.1463 40.7721 32.7023 40.1586 32.1276C39.5868 31.5141 39.1441 30.7939 38.8561 30.0091C38.5681 29.2243 38.4406 28.3905 38.481 27.5563V14.9832H34.5996V9.78926H38.3738V3.55421H44.2472V9.78926H48.7555V14.9832H44.0367V26.4122C44.0367 26.9337 44.2472 28.6985 45.9247 28.6985C46.2735 28.7189 46.6226 28.6644 46.9482 28.5388C47.2738 28.4133 47.5683 28.2196 47.8115 27.9709L47.8095 28.0752ZM50.9541 33.2705V9.89292H56.615V33.2698H50.9574L50.9541 33.2705ZM53.6803 0.334961C54.5954 0.342956 55.4708 0.706726 56.118 1.34795C56.7651 1.98918 57.1324 2.85659 57.1406 3.76346C57.1562 4.22283 57.0781 4.68059 56.9111 5.10936C56.744 5.53814 56.4914 5.92911 56.1683 6.25892C55.8453 6.58872 55.4585 6.85059 55.031 7.02883C54.6035 7.20707 54.1441 7.29803 53.6803 7.29628C52.7674 7.25562 51.9064 6.86419 51.2799 6.20502C50.6533 5.54585 50.3105 4.67076 50.3242 3.76531C50.3378 2.85987 50.7067 1.99529 51.3527 1.3549C51.9988 0.714502 52.8712 0.348669 53.7849 0.334961H53.6803ZM72.3425 9.37397C77.3758 9.37397 80.1014 12.0756 80.1014 16.9592V33.2705H74.4431V18.3087C74.2326 15.7114 72.8701 14.4623 70.2492 14.4623C69.1777 14.4699 68.1218 14.7167 67.1598 15.1844C66.1978 15.6521 65.3546 16.3287 64.6929 17.1639V33.2666H58.9261V9.89292H64.6929V12.4902C65.6899 11.4862 66.8815 10.6924 68.1961 10.1568C69.5108 9.62111 70.9212 9.35462 72.3425 9.37333V9.37397ZM99.6024 12.2829V1.26658H105.263V33.4784H99.6024V30.8812C98.7028 31.8416 97.6171 32.6125 96.4102 33.1479C95.2032 33.6833 93.8998 33.9722 92.5777 33.9974C86.2872 33.9974 82.0934 28.8022 82.0934 21.5299C82.0934 14.2576 86.1826 9.37333 92.4731 9.37333C93.764 9.37672 95.0412 9.6358 96.2296 10.1353C97.4179 10.6349 98.4936 11.3648 99.3932 12.2822L99.6024 12.2829ZM99.6024 17.2701C98.8897 16.4402 98.0069 15.7701 97.0127 15.3043C96.0186 14.8385 94.9357 14.5877 93.8362 14.5686C90.2713 14.5686 87.8595 17.3719 87.8595 21.6335C87.8595 25.7896 90.1653 28.6985 93.7303 28.6985C94.8036 28.7002 95.8629 28.4574 96.8265 27.989C97.7902 27.5206 98.6323 26.839 99.2879 25.9969V17.2695L99.6024 17.2701ZM118.685 9.37397C125.604 9.37397 130.427 14.5692 130.427 22.0501V23.6076H112.813C113.442 26.9324 115.958 29.0101 119.628 29.0101C121.952 28.9203 124.174 28.0402 125.92 26.5178L126.129 26.2055L128.958 30.1543L128.748 30.4659C126.137 32.723 122.776 33.9441 119.312 33.8944C111.973 33.8944 106.731 28.6991 106.731 21.6342C106.731 14.5692 111.973 9.16666 118.788 9.16666L118.685 9.37397ZM112.814 19.3485H124.766C124.451 15.8157 121.621 14.1546 118.79 14.1546C114.806 14.1546 113.233 17.2708 112.918 19.3485H112.814ZM144.686 9.37397H145V15.1931H144.474C144.011 14.9904 143.511 14.8842 143.006 14.8808C141.119 14.8808 138.497 16.2323 137.554 17.5824V33.1675H131.682V9.89358H137.554V12.4909C138.44 11.514 139.523 10.732 140.733 10.195C141.943 9.6581 143.253 9.37819 144.578 9.37333L144.686 9.37397Z" fill="#424242"/>
<defs>
<radialGradient id="paint0_radial_711_1149" cx="0" cy="0" r="1" gradientUnits="userSpaceOnUse" gradientTransform="translate(132.886 -547.306) rotate(-50.4179) scale(24.0205 33.5572)">
<stop stop-color="#FF7854"/>
<stop offset="0.519" stop-color="#FE5764"/>
<stop offset="1" stop-color="#FD267D"/>
</radialGradient>
</defs>
</svg>
