<svg width="144" height="30" viewBox="0 0 144 30" fill="none" xmlns="http://www.w3.org/2000/svg">
<path d="M23.3738 0H28.9123V17.5359C28.9123 26.7623 23.0072 30 14.4397 30C5.90314 30 0 26.7617 0 17.5359V0.702434C0 0.213297 0.244601 0 0.733836 0H6.27235V17.2627C6.27235 22.7926 8.72051 25.0836 14.4417 25.0836C20.1938 25.0836 22.6419 22.7926 22.6419 17.2627V0.702434C22.6393 0.21198 22.8813 0 23.3738 0ZM86.0683 4.79592V12.1896H100.082C100.327 12.1896 100.419 12.3114 100.327 12.5563L98.797 16.345C98.735 16.5077 98.6195 16.6446 98.4694 16.7333C98.3194 16.8221 98.1436 16.8573 97.9708 16.8334H89.7389C87.0462 16.8334 86.067 17.6583 86.067 19.4608V24.6853H105.036C105.28 24.6853 105.372 24.8071 105.28 25.052L103.689 28.9934C103.627 29.1562 103.512 29.2931 103.362 29.3818C103.212 29.4705 103.036 29.5058 102.863 29.4819H82.0905C80.4988 29.4819 79.887 28.9322 79.887 27.7406V2.04674C79.887 0.610927 80.6828 0 82.763 0H105.036C105.28 0 105.372 0.121789 105.28 0.336404L103.689 4.3081C103.627 4.47083 103.512 4.60774 103.362 4.69647C103.212 4.78519 103.036 4.82048 102.863 4.79658L86.0683 4.79592ZM68.4743 21.3246C68.4743 27.2205 64.3132 29.4812 58.4688 29.4812H42.9867C41.3647 29.4812 40.7838 28.9315 40.7838 27.74V2.04674C40.7838 0.610927 41.5486 0 43.6599 0H56.2356C61.7431 0 67.0666 0.947333 67.0666 7.48453C67.0666 10.2956 66.0572 12.6787 63.6381 13.9309C66.9757 14.817 68.4743 17.8111 68.4743 21.3246ZM46.8729 12.2811H56.6971C59.9404 12.2811 60.8583 11.0303 60.8583 8.4628C60.8583 5.89533 59.9404 4.67413 56.6971 4.67413H46.8729V12.2811ZM62.2633 20.7735C62.2633 18.0546 61.3145 16.7103 57.8266 16.7103H50.5738C47.881 16.7103 46.8716 17.5352 46.8716 19.3377V24.8071H57.8266C61.3145 24.8071 62.2633 23.4628 62.2633 20.7742V20.7735ZM143.653 29.4812H138.023C137.852 29.4945 137.681 29.4548 137.533 29.3673C137.385 29.2799 137.268 29.1491 137.197 28.9928L131.231 18.239H125.754C123.062 18.239 122.052 19.0639 122.052 20.8664V29.4812H116.667C116.569 29.4963 116.47 29.4888 116.376 29.4594C116.282 29.4299 116.197 29.3792 116.126 29.3112C116.055 29.2433 116 29.1599 115.967 29.0675C115.933 28.9752 115.922 28.8764 115.933 28.7788V2.04674C115.933 0.610927 116.728 0 118.809 0H131.445C138.819 0 143.256 1.92495 143.256 9.07373C143.256 14.6037 140.594 16.7722 137.289 17.6274L143.929 28.9618C144.051 29.1455 144.051 29.4812 143.653 29.4812ZM137.044 9.19552C137.044 6.20145 136.217 4.73535 132.362 4.73535H122.051V13.6564H132.362C136.217 13.6564 137.044 12.2205 137.044 9.19552Z" fill="black"/>
</svg>
