<svg width="144" height="61" viewBox="0 0 144 61" fill="none" xmlns="http://www.w3.org/2000/svg">
<path d="M26.3203 60.9984C19.9882 61.0548 13.8522 58.7973 9.05774 54.6473C4.26331 50.4973 1.13832 44.7386 0.266261 38.4464C-0.463122 33.2941 0.368776 28.3181 1.99667 23.4514C4.30758 16.5416 7.87354 10.406 13.3331 5.49284C15.9032 3.08995 19.0272 1.36403 22.4253 0.469629C26.2962 -0.499901 30.0378 0.125698 33.688 1.48763C40.6168 4.07326 46.4081 8.38243 51.5595 13.6068C55.4836 17.4591 58.6595 22.0098 60.9253 27.0269C64.008 34.0986 62.8809 40.5007 57.9796 46.3245C54.1048 50.9284 49.2296 54.177 43.8412 56.7037C39.2003 58.9403 34.2139 60.3687 29.0955 60.9277C28.8657 60.9506 28.6384 60.9932 28.4053 60.9932C27.7086 61.0043 27.0145 60.9984 26.3203 60.9984ZM29.7119 20.6011C27.0889 20.6011 24.4652 20.5933 21.8415 20.6083C21.3597 20.6091 20.8794 20.6636 20.4095 20.7708C19.8749 20.8569 19.3892 21.1335 19.0414 21.5498C18.6935 21.9661 18.507 22.4943 18.5159 23.0374C18.4845 24.8356 18.9521 25.777 20.339 26.0253C21.5833 26.1611 22.8353 26.2129 24.0865 26.1805C24.6807 26.2048 25.0007 26.0017 25.0091 25.3531C25.0209 24.6732 24.7127 24.4648 24.0715 24.4616C23.0802 24.4563 22.0897 24.3659 21.0984 24.3266C20.5388 24.3044 20.3919 23.9925 20.337 23.4789C20.3149 23.3665 20.3166 23.2506 20.3419 23.1388C20.3673 23.027 20.4159 22.9218 20.4844 22.8301C20.5529 22.7384 20.64 22.6621 20.7398 22.6063C20.8396 22.5505 20.95 22.5163 21.0638 22.5061C21.3672 22.4505 21.6761 22.4321 21.9839 22.4511C27.102 22.448 32.2203 22.448 37.3388 22.4511C37.5961 22.4511 37.8547 22.44 38.11 22.4655C38.2377 22.4697 38.3627 22.5044 38.4744 22.5666C38.5862 22.6289 38.6815 22.717 38.7526 22.8236C38.8236 22.9302 38.8683 23.0523 38.8829 23.1797C38.8976 23.3071 38.8817 23.4362 38.8367 23.5562C38.7696 23.8449 38.5987 24.0985 38.3568 24.2687C38.1149 24.4389 37.8189 24.5136 37.5255 24.4786C34.7482 24.4699 31.9706 24.4699 29.1928 24.4786C28.8702 24.4543 28.5459 24.4941 28.2386 24.5958C27.9314 24.6975 27.6471 24.859 27.4021 25.0711C27.1572 25.2832 26.9564 25.5417 26.8112 25.8317C26.666 26.1218 26.5793 26.4378 26.5561 26.7616C26.5267 31.5856 26.5019 36.4104 26.577 41.2331C26.5525 41.7882 26.7007 42.3373 27.001 42.8042C27.3013 43.271 27.7389 43.6327 28.2532 43.8391C30.9507 44.8361 32.8815 43.3242 32.9912 40.5767C33.1395 36.867 33.0271 33.1467 33.0285 29.4311C33.0285 28.7557 32.7065 28.4707 32.0274 28.4943C31.2791 28.5212 31.1727 28.9843 31.1733 29.5811C31.1772 33.1421 31.1838 36.7025 31.1642 40.2636C31.1991 40.4965 31.1874 40.734 31.1298 40.9624C31.0721 41.1907 30.9698 41.4052 30.8286 41.5934C30.6875 41.7816 30.5104 41.9397 30.3077 42.0585C30.1049 42.1772 29.8807 42.2543 29.6479 42.2852C29.3326 42.3298 28.8644 41.9485 28.6201 41.636C28.3859 41.3047 28.2598 40.9088 28.2591 40.5027C28.2347 36.2197 28.2331 31.9366 28.2545 27.6532C28.261 26.5985 28.7266 26.2067 29.7675 26.1969C30.4361 26.191 31.1048 26.1969 31.7734 26.1969C33.9172 26.1969 36.0616 26.2414 38.204 26.1845C40.2283 26.1301 41.0425 23.8635 40.4398 22.1884C40.0056 20.985 38.9464 20.6359 37.8122 20.6162C35.1134 20.5703 32.412 20.6011 29.7119 20.6011Z" fill="#0EB550"/>
<path d="M136.675 30.2252C132.392 30.1951 129.466 27.221 129.504 22.9374C129.521 21.0089 130.3 19.166 131.672 17.8141C133.043 16.4622 134.893 15.7121 136.815 15.7288C138.737 15.7455 140.574 16.5276 141.922 17.903C143.269 19.2785 144.017 21.1346 144.001 23.0632C143.991 27.2708 140.939 30.2554 136.675 30.2252ZM140.058 23.0848C140.078 22.5683 139.993 22.0533 139.81 21.5704C139.626 21.0875 139.348 20.6467 138.99 20.2744C138.508 19.8032 137.892 19.4943 137.227 19.3908C136.562 19.2872 135.881 19.3941 135.279 19.6967C134.616 20.0755 134.082 20.6472 133.749 21.3363C133.415 22.0254 133.298 22.7997 133.412 23.5571C133.466 24.2828 133.746 24.9731 134.213 25.5298C134.681 26.0865 135.311 26.4813 136.015 26.6583C138.213 27.128 140.039 25.5145 140.058 23.0828V23.0848Z" fill="black"/>
<path d="M117.643 29.9513V16.087C119.638 16.087 121.607 16.0589 123.574 16.1027C124.24 16.1234 124.899 16.2373 125.533 16.4414C126.112 16.591 126.629 16.9206 127.009 17.3828C127.39 17.8451 127.614 18.4163 127.652 19.0146C127.769 19.6553 127.679 20.3169 127.394 20.9026C127.11 21.4882 126.646 21.9673 126.071 22.2697C125.96 22.3318 125.851 22.3973 125.745 22.4663C125.726 22.4781 125.719 22.5102 125.691 22.5619C125.777 22.6038 125.859 22.6497 125.946 22.6851C127.812 23.441 128.579 24.6267 128.402 26.4793C128.375 27.3275 128.045 28.1377 127.473 28.7628C126.901 29.3879 126.124 29.7863 125.284 29.8858C124.447 30.0064 123.6 30.0575 122.754 30.0384C121.11 30.0574 119.465 30.0384 117.821 30.0293C117.769 30.0293 117.727 29.9913 117.643 29.9513ZM121.234 24.3542V26.7781C121.952 26.7781 122.642 26.8285 123.318 26.7643C123.632 26.7699 123.936 26.6509 124.162 26.4331C124.389 26.2153 124.521 25.9164 124.529 25.6015C124.539 25.4453 124.517 25.2887 124.465 25.1412C124.413 24.9937 124.331 24.8583 124.225 24.7432C124.12 24.6281 123.992 24.5357 123.849 24.4715C123.707 24.4074 123.553 24.3728 123.397 24.37C122.678 24.323 121.956 24.3182 121.236 24.3556L121.234 24.3542ZM121.246 19.3756V21.5007C121.822 21.5347 122.4 21.5288 122.976 21.483C123.235 21.4557 123.475 21.3326 123.648 21.1377C123.822 20.9428 123.917 20.6901 123.915 20.4287C123.913 20.1674 123.814 19.9162 123.637 19.7242C123.46 19.5322 123.219 19.413 122.959 19.39C122.389 19.3484 121.817 19.3431 121.247 19.3743L121.246 19.3756Z" fill="black"/>
<path d="M90.7238 25.2488L93.8411 30.0434C92.3798 30.0434 91.0562 30.0624 89.7345 30.0218C89.5523 30.0159 89.3356 29.7421 89.2121 29.5449C88.5343 28.4797 87.8605 27.4113 87.2277 26.3192C87.185 26.205 87.1188 26.101 87.0335 26.014C86.9481 25.9271 86.8455 25.8591 86.7323 25.8145C86.619 25.7699 86.4977 25.7497 86.3762 25.7551C86.2547 25.7606 86.1357 25.7917 86.0269 25.8463V29.9989H82.4609V16.0605C82.9899 16.0605 83.5188 16.0605 84.0477 16.0605C85.5391 16.0717 87.0325 16.0494 88.5226 16.1071C90.7727 16.1942 92.2916 17.3517 92.8251 19.3078C93.5003 21.7847 92.8323 23.7814 90.8975 25.0726C90.8349 25.1265 90.7769 25.1855 90.7238 25.2488ZM86.0569 19.3786V22.5282C87.1278 22.4988 88.2039 22.7169 88.9392 21.7421C89.1188 21.5163 89.2172 21.2362 89.2182 20.9472C89.2193 20.6583 89.123 20.3774 88.9451 20.1503C88.2026 19.1192 87.1108 19.3622 86.0576 19.3786H86.0569Z" fill="black"/>
<path d="M103.041 21.5112V24.7421H98.6872V26.6936H104.671V30.0012H95.084V16.1133H104.251V19.352H98.7094V21.5138L103.041 21.5112Z" fill="black"/>
<path d="M115.548 16.1094V19.3232H109.976V21.4621H114.285V24.7454H109.955V26.6759H115.911V30.0018H106.352V16.1094H115.548Z" fill="black"/>
<path d="M70.3125 19.3829V16.1074H81.0077V19.3612H77.5332V29.9972H73.8242V19.3848L70.3125 19.3829Z" fill="black"/>
<path d="M77.452 41.7821V37.7016H78.5105V46.5682H77.4755V42.9468H72.7799V46.5597H71.7109V37.6872L72.7152 37.6387V41.7821H77.452Z" fill="#727171"/>
<path d="M93.3835 43.8434C93.3772 44.2078 93.4811 44.5656 93.6815 44.8697C93.8818 45.1737 94.1693 45.4097 94.506 45.5466C94.9426 45.7396 95.4291 45.7878 95.8949 45.6843C96.3607 45.5807 96.7813 45.3308 97.0957 44.9708L97.72 45.4726C97.0781 46.7776 94.8612 46.8961 93.8497 46.3282C93.1943 45.9335 92.6983 45.3201 92.4484 44.5954C92.1985 43.8706 92.2108 43.0808 92.4831 42.3642C92.7124 41.6852 93.1841 41.1155 93.8074 40.7647C94.4306 40.4139 95.1612 40.307 95.8583 40.4645C97.3041 40.7861 98.134 42.0622 97.9825 43.8421L93.3835 43.8434ZM96.9168 42.9918C96.92 42.7783 96.8809 42.5663 96.8019 42.3681C96.7228 42.1699 96.6053 41.9894 96.4562 41.8371C96.3071 41.6847 96.1294 41.5636 95.9332 41.4807C95.7371 41.3978 95.5265 41.3548 95.3137 41.3541C95.0859 41.34 94.8576 41.3713 94.6419 41.4461C94.4262 41.5209 94.2274 41.6378 94.0569 41.79C93.8864 41.9422 93.7476 42.1268 93.6485 42.333C93.5495 42.5393 93.492 42.7632 93.4795 42.9918H96.9168Z" fill="#727171"/>
<path d="M83.4012 40.4128C83.8164 40.404 84.2292 40.4783 84.6153 40.6315C85.0015 40.7846 85.3533 41.0136 85.6502 41.3049C85.947 41.5962 86.183 41.944 86.3442 42.3279C86.5053 42.7119 86.5886 43.1242 86.5889 43.5408C86.5893 43.9574 86.5067 44.3699 86.3461 44.7541C86.1856 45.1383 85.9503 45.4865 85.6539 45.7783C85.3575 46.0701 85.0061 46.2996 84.6202 46.4534C84.2343 46.6073 83.8216 46.6823 83.4064 46.6741C82.9966 46.6745 82.5908 46.5938 82.212 46.4368C81.8333 46.2798 81.4891 46.0495 81.1991 45.759C80.9091 45.4686 80.6789 45.1237 80.5218 44.744C80.3646 44.3643 80.2835 43.9572 80.2832 43.5461C80.2829 43.135 80.3633 42.7278 80.5198 42.3478C80.6763 41.9679 80.9058 41.6226 81.1954 41.3316C81.4849 41.0407 81.8287 40.8098 82.2072 40.6521C82.5857 40.4945 82.9914 40.4132 83.4012 40.4128ZM81.2954 43.5435C81.286 43.8256 81.3329 44.1068 81.4333 44.3704C81.5338 44.6341 81.6857 44.875 81.8802 45.079C82.0747 45.2829 82.3079 45.4459 82.566 45.5582C82.8242 45.6705 83.1021 45.73 83.3834 45.7331C83.6648 45.7362 83.9439 45.6829 84.2044 45.5763C84.4649 45.4696 84.7016 45.3119 84.9005 45.1122C85.0995 44.9126 85.2566 44.6751 85.3628 44.4137C85.469 44.1523 85.522 43.8722 85.5188 43.59C85.5338 43.3045 85.4911 43.0189 85.3933 42.7504C85.2954 42.4818 85.1444 42.236 84.9494 42.0275C84.7544 41.819 84.5194 41.6522 84.2585 41.5372C83.9976 41.4221 83.7162 41.3612 83.4313 41.3581C83.1463 41.3549 82.8636 41.4097 82.6003 41.5189C82.3369 41.6282 82.0983 41.7897 81.8988 41.9939C81.6993 42.198 81.543 42.4405 81.4393 42.7068C81.3356 42.9731 81.2866 43.2577 81.2954 43.5435Z" fill="#727171"/>
<path d="M102.686 45.3205C103.405 45.4946 104.136 45.6148 104.873 45.6802C105.145 45.6881 105.548 45.3094 105.657 45.0179C105.716 44.8594 105.337 44.4283 105.069 44.2731C104.562 43.9829 103.973 43.8414 103.451 43.5728C103.097 43.4396 102.803 43.1816 102.625 42.847C102.447 42.5124 102.397 42.1241 102.483 41.7549C102.578 41.391 102.785 41.0667 103.076 40.8287C103.366 40.5906 103.724 40.4511 104.098 40.4303C104.532 40.3736 104.973 40.4099 105.392 40.5369C105.812 40.664 106.199 40.8788 106.529 41.1673L106.126 41.8014C105.549 41.6068 104.956 41.4669 104.354 41.3835C104.188 41.3987 104.028 41.4557 103.89 41.5491C103.751 41.6425 103.639 41.7694 103.562 41.918C103.497 42.1283 103.794 42.5731 104.045 42.7225C104.61 43.0237 105.194 43.2863 105.795 43.5086C106.102 43.6151 106.363 43.8237 106.536 44.0998C106.708 44.3758 106.781 44.7028 106.743 45.0264C106.731 45.3777 106.607 45.7157 106.387 45.99C106.168 46.2642 105.867 46.46 105.527 46.5482C104.954 46.7157 104.347 46.7313 103.765 46.5936C103.184 46.4558 102.647 46.1694 102.209 45.7621L102.677 45.0952L102.686 45.3205Z" fill="#727171"/>
<path d="M87.4082 41.2873V40.5457L88.1317 40.3984V38.4331L89.1824 38.249V40.4219H91.1688L91.2412 41.3253H89.2307C89.2307 42.6263 89.2078 43.8533 89.2424 45.079C89.2555 45.5375 89.5898 45.755 90.0495 45.6941C90.3492 45.6548 90.6437 45.5762 90.9761 45.508L91.2158 46.2326C89.644 47.2709 88.2649 46.6256 88.1742 44.8064C88.1193 43.7013 88.1637 42.5909 88.1637 41.4354L87.4082 41.2873Z" fill="#727171"/>
<path d="M100.639 46.5937H99.7637V37.376H100.639V46.5937Z" fill="#727171"/>
<path d="M29.7118 20.6004C32.4119 20.6004 35.1133 20.5715 37.8127 20.6141C38.9469 20.6318 40.0061 20.981 40.4403 22.1863C41.0437 23.8601 40.2275 26.1267 38.2045 26.1824C36.0627 26.24 33.9177 26.1948 31.7739 26.1948C31.1053 26.1948 30.4366 26.1896 29.768 26.1948C28.7271 26.2046 28.2615 26.5964 28.255 27.6511C28.2293 31.9345 28.2308 36.2176 28.2595 40.5006C28.2603 40.9067 28.3865 41.3027 28.6207 41.6339C28.8655 41.9471 29.3337 42.3277 29.6485 42.2831C29.8812 42.2523 30.1056 42.1753 30.3083 42.0565C30.5111 41.9378 30.6882 41.7797 30.8294 41.5915C30.9705 41.4032 31.0729 41.1887 31.1305 40.9603C31.188 40.732 31.1997 40.4944 31.1647 40.2615C31.1843 36.7005 31.1784 33.14 31.1738 29.579C31.1738 28.9829 31.2796 28.5191 32.0279 28.4922C32.707 28.468 33.029 28.7542 33.029 29.429C33.029 33.1446 33.1393 36.8649 32.9917 40.5746C32.882 43.3221 30.9512 44.8327 28.2537 43.837C27.7394 43.6306 27.3018 43.2689 27.0015 42.8021C26.7012 42.3352 26.553 41.7861 26.5775 41.231C26.503 36.4083 26.5279 31.5836 26.5566 26.7595C26.5798 26.4357 26.6665 26.1197 26.8117 25.8296C26.9569 25.5396 27.1577 25.2811 27.4026 25.069C27.6476 24.8569 27.9319 24.6954 28.2391 24.5937C28.5464 24.4921 28.8707 24.4522 29.1933 24.4765C31.9711 24.47 34.7487 24.47 37.5261 24.4765C37.8194 24.5115 38.1154 24.4368 38.3573 24.2666C38.5992 24.0964 38.7701 23.8428 38.8372 23.5542C38.8822 23.4341 38.8981 23.305 38.8834 23.1776C38.8688 23.0502 38.8241 22.9282 38.7531 22.8216C38.682 22.7149 38.5867 22.6268 38.4749 22.5645C38.3632 22.5023 38.2383 22.4676 38.1105 22.4634C37.8558 22.4379 37.5966 22.449 37.3393 22.449C32.2208 22.449 27.1027 22.449 21.985 22.449C21.6773 22.43 21.3683 22.4484 21.065 22.504C20.9512 22.5143 20.8407 22.5484 20.7409 22.6042C20.6411 22.66 20.5541 22.7363 20.4856 22.828C20.417 22.9198 20.3685 23.0249 20.3431 23.1367C20.3177 23.2485 20.316 23.3644 20.3382 23.4768C20.3924 23.9898 20.54 24.3016 21.0996 24.3245C22.0908 24.3638 23.0814 24.4555 24.0726 24.4595C24.7139 24.4634 25.0221 24.6717 25.0103 25.351C24.9992 26.0002 24.6838 26.2027 24.0876 26.1784C22.8364 26.2108 21.5844 26.159 20.3402 26.0232C18.9532 25.7755 18.4863 24.8342 18.517 23.0353C18.5081 22.4922 18.6947 21.964 19.0425 21.5477C19.3903 21.1314 19.8761 20.8548 20.4107 20.7687C20.8805 20.6615 21.3608 20.6071 21.8427 20.6063C24.4651 20.5905 27.0855 20.6004 29.7118 20.6004Z" fill="white"/>
</svg>
