<svg width="133" height="50" viewBox="0 0 133 50" fill="none" xmlns="http://www.w3.org/2000/svg">
<path d="M16.5404 25.9013C16.5404 19.4779 14.6982 16.1759 11.0139 15.9953C9.54948 15.924 8.08643 16.1607 6.72042 16.69C5.89467 16.9246 5.12556 17.3237 4.45986 17.863V33.1983C6.29017 34.5094 8.4852 35.2228 10.7413 35.2397C14.6074 35.0293 16.5394 31.9082 16.5394 25.9043L16.5404 25.9013ZM21.1005 26.1712C21.2076 29.0596 20.3937 31.9077 18.775 34.3088C17.9829 35.4769 16.9114 36.4312 15.6566 37.0861C14.4019 37.741 13.0032 38.076 11.586 38.061C9.04611 38.0662 6.56317 37.3133 4.45887 35.8996V49.8576L0.503906 48.4474V17.4998C1.20793 16.6736 2.05753 15.9818 3.01108 15.4584C5.63816 14.0302 8.59402 13.3061 11.588 13.3575L11.6489 13.4171C13.0656 13.353 14.4738 13.6671 15.7271 14.3268C16.9804 14.9864 18.0332 15.9676 18.776 17.1683C20.4215 19.8789 21.2301 23.01 21.1015 26.1732L21.1005 26.1712ZM45.2916 35.329C45.2916 39.7114 44.8382 42.7431 43.9626 44.4242C42.8121 46.3336 41.0122 47.7709 38.8883 48.4761C36.7956 49.2812 34.5778 49.7177 32.3343 49.7663L31.6703 47.2744C33.3726 47.0755 35.0581 46.7545 36.7136 46.3137C38.3658 45.8621 39.7813 44.7989 40.6696 43.3425C41.2437 42.2618 41.5453 40.1907 41.5453 37.159V36.1408C38.8694 37.3457 35.9659 37.9699 33.0283 37.9717C31.1422 37.9933 29.3106 37.3439 27.8641 36.1408C27.0748 35.5503 26.4364 34.7833 26.0008 33.9019C25.5653 33.0205 25.3447 32.0496 25.357 31.0677V14.7082L29.3129 13.3575V29.8371C29.2674 30.6031 29.3989 31.3692 29.6973 32.0769C29.9957 32.7845 30.453 33.4149 31.0343 33.9198C32.2909 34.9107 33.8728 35.4026 35.4735 35.3002C37.5776 35.1628 39.5991 34.4343 41.3026 33.1993V13.9927H45.2586L45.2886 35.3349L45.2916 35.329ZM60.7539 37.8804L59.4559 37.94C57.5789 38.0515 55.7242 37.4879 54.2309 36.3521C53.6067 35.8027 53.1144 35.1211 52.7904 34.3575C52.4664 33.5939 52.3189 32.7678 52.3588 31.94V16.4488H49.6409V13.9927H52.3588V7.38436L56.3187 5.97318V13.9579H60.7579V16.4191H56.3187V31.8179C56.2549 32.3964 56.3312 32.9816 56.5414 33.5247C56.7516 34.0679 57.0895 34.5531 57.5269 34.94C58.5123 35.5244 59.6415 35.8256 60.7889 35.8103V37.8814L60.7539 37.8804ZM84.7333 37.55H80.7814V22.3625C80.8225 20.9543 80.4442 19.5654 79.694 18.3701C79.3336 17.7792 78.8228 17.2932 78.2131 16.9611C77.6034 16.629 76.9164 16.4626 76.2213 16.4786C74.4091 16.4786 72.1446 17.4392 69.4257 19.3297V37.5202H65.4697V1.23056L69.3928 0V16.5391C71.7863 14.7472 74.7015 13.7778 77.6981 13.7773C78.6508 13.741 79.6002 13.9099 80.4811 14.2725C81.3619 14.6352 82.1535 15.1829 82.8013 15.8782C84.1101 17.3017 84.8136 19.1735 84.7643 21.1011L84.7344 37.55H84.7333ZM105.784 25.3059C105.859 23.1765 105.369 21.065 104.364 19.1829C103.862 18.2461 103.114 17.4615 102.2 16.912C101.287 16.3625 100.24 16.0684 99.1723 16.0608C94.8229 16.301 92.6822 19.3922 92.6822 25.3059C92.6039 27.6506 93.0689 29.9819 94.0412 32.1196C94.456 33.1522 95.1792 34.0338 96.1133 34.6455C97.0475 35.2573 98.1478 35.5699 99.2662 35.5414C103.585 35.5116 105.789 32.0898 105.789 25.3059H105.784ZM110.103 25.3357C110.218 28.4876 109.26 31.586 107.385 34.1302C106.437 35.4033 105.19 36.427 103.753 37.1122C102.316 37.7974 100.733 38.1235 99.1404 38.062C97.5647 38.1259 95.9977 37.8001 94.5799 37.1139C93.1621 36.4277 91.9378 35.4025 91.0168 34.1302C89.1693 31.575 88.2339 28.4797 88.3588 25.3357C88.2689 22.3008 89.288 19.3364 91.2274 16.9907C92.189 15.8223 93.4084 14.8896 94.791 14.2649C96.1736 13.6402 97.6823 13.3403 99.2003 13.3883C100.727 13.343 102.243 13.6439 103.635 14.2681C105.027 14.8923 106.258 15.8233 107.234 16.9907C109.178 19.3338 110.198 22.3 110.103 25.3357ZM132.814 37.5529H128.858V21.4921C128.9 20.7333 128.78 19.9741 128.504 19.2651C128.229 18.556 127.805 17.9134 127.26 17.3797C126.685 16.8685 126.01 16.4797 125.278 16.237C124.546 15.9943 123.771 15.903 123.002 15.9685C121.075 16.0268 119.21 16.6653 117.656 17.7995V37.5807H113.669V17.2894C115.548 15.839 117.676 14.7404 119.951 14.0472C121.504 13.6123 123.108 13.3788 124.722 13.3526C125.615 13.3485 126.506 13.439 127.38 13.6225C128.81 13.9177 130.129 14.6053 131.185 15.6073C131.709 16.1076 132.123 16.7091 132.404 17.3747C132.684 18.0403 132.824 18.756 132.816 19.4776V37.551L132.814 37.5529Z" fill="white"/>
</svg>
