<svg width="137" height="35" viewBox="0 0 137 35" fill="none" xmlns="http://www.w3.org/2000/svg">
<path fill-rule="evenodd" clip-rule="evenodd" d="M90.3409 0.383725C89.7455 0.726586 89.6949 1.73876 89.6949 13.3213V25.8868H91.1714H92.648V19.5336V13.1801L93.8476 12.4495C96.4721 10.8505 98.5219 10.9938 99.6714 12.857C100.314 13.8979 100.397 14.711 100.398 19.9597L100.4 25.8868H101.876H103.353V19.8987C103.353 14.7379 103.252 13.6776 102.621 12.223C101.446 9.51551 98.6068 8.78602 94.5859 10.1586L92.648 10.8202V5.40482C92.648 0.0291884 92.6421 -0.0102022 91.8174 0.000740142C91.3604 0.00694083 90.696 0.179102 90.3409 0.383725ZM14.3925 0.946161C11.4162 1.28063 10.6536 1.53158 9.77763 2.4646C8.97034 3.32504 8.85554 3.77696 8.85554 6.09565V8.74371H12.916C15.9188 8.74371 16.976 8.86262 16.9753 9.19964C16.9742 9.54798 15.3496 9.65558 10.0847 9.65558C4.90106 9.65558 3.15729 9.76865 3.04175 10.1115C2.95722 10.3625 2.69403 10.5725 2.45742 10.5788C2.22044 10.5853 1.7653 10.9544 1.44563 11.3994C-0.268238 13.7871 -0.513335 20.664 1.00711 23.6983C1.98456 25.6486 3.11447 26.2515 5.7914 26.2515H7.74815V23.7071C7.74815 20.796 8.4351 19.3137 10.304 18.1906C11.2962 17.5946 12.2013 17.4976 16.7796 17.4976C21.4436 17.4976 22.2572 17.4072 23.3568 16.7659C25.2128 15.6841 25.4664 14.7792 25.4664 9.23867C25.4664 4.81904 25.3852 4.18438 24.699 3.23203C24.277 2.64661 23.4878 1.94119 22.9456 1.66471C21.9161 1.14021 16.6228 0.69558 14.3925 0.946161ZM13.2223 3.5913C13.8812 4.00383 13.628 5.83668 12.8455 6.3207C12.3686 6.61578 12.0415 6.54648 11.4612 6.02744C10.531 5.19582 10.4919 4.42183 11.3472 3.78024C12.1031 3.21306 12.5472 3.1682 13.2223 3.5913ZM81.4818 4.47581C80.5243 4.85004 80.4667 5.0025 80.4667 7.17274C80.4667 9.38347 80.4305 9.4732 79.5439 9.4732C78.8056 9.4732 78.621 9.65558 78.621 10.3851C78.621 11.1062 78.8078 11.2969 79.5132 11.2969H80.4058L80.5283 17.5895C80.6402 23.3212 80.7177 23.9471 81.3947 24.6109C82.395 25.5917 83.9587 26.2515 85.2827 26.2515C86.1993 26.2515 86.3728 26.1064 86.3728 25.3397C86.3728 24.5974 86.1915 24.4278 85.3983 24.4278C83.6489 24.4278 83.4441 23.6779 83.4315 17.2241L83.4197 11.2969H84.8962C86.2251 11.2969 86.3728 11.2057 86.3728 10.3851C86.3728 9.56439 86.2251 9.4732 84.8962 9.4732H83.4197V6.73761C83.4197 3.81015 83.3614 3.74194 81.4818 4.47581ZM48.537 9.52864C46.891 10.0677 45.6626 10.6539 44.938 11.2466C44.3492 11.7281 44.292 12.7369 44.292 22.6478C44.292 33.0241 44.3245 33.5381 45.0059 33.8984C45.3986 34.106 46.0631 34.276 46.4824 34.276C47.2122 34.276 47.245 34.0808 47.245 29.7422V25.2084L48.4447 25.6045C49.1047 25.8222 50.558 26.0666 51.6746 26.1472C53.3932 26.2712 53.9325 26.1465 55.1891 25.3335C57.9295 23.5601 58.9697 20.6268 58.4994 15.9971C58.2883 13.9198 58.021 13.1571 57.0794 11.94C56.4415 11.1157 55.4212 10.1531 54.8122 9.80147C53.5719 9.08511 50.3228 8.94395 48.537 9.52864ZM62.8407 9.62858L61.6411 9.98895L61.6426 16.2053C61.6437 21.7648 61.7212 22.5472 62.3775 23.6104C63.9404 26.1436 66.6727 26.8173 70.8693 25.7044C71.9859 25.4082 72.9412 25.1639 72.9918 25.1617C73.0424 25.1591 73.0841 25.8189 73.0841 26.6279C73.0841 29.8983 71.3551 31.8099 67.9879 32.2629C66.2607 32.4953 66.0426 32.6189 66.1422 33.3101C66.3061 34.4463 68.58 34.5543 70.9675 33.5395C75.2542 31.7173 75.654 30.4049 75.6621 18.1359L75.668 9.4732H74.3845H73.1007L73.0003 16.0974L72.8995 22.7219L71.423 23.559C69.6741 24.5507 67.8616 24.6528 66.4663 23.8384C64.5948 22.7456 64.4457 22.1598 64.3542 15.5437C64.3073 12.1621 64.2176 9.3667 64.1548 9.33168C64.0917 9.29703 63.5008 9.43052 62.8407 9.62858ZM110.134 9.82992C107.63 10.9307 105.568 14.359 105.568 17.4203C105.568 22.305 109.126 26.2515 113.531 26.2515C115.566 26.2515 116.885 25.6774 118.404 24.1294C120.403 22.0923 120.821 20.9434 120.823 17.4776C120.825 14.5414 120.751 14.2448 119.57 12.4623C117.474 9.29886 113.723 8.2524 110.134 9.82992ZM127.162 9.88172C123.504 11.1189 123.655 10.7327 123.655 18.8308V25.8868H124.947H126.239V18.938V11.9892L127.519 11.4607C129.677 10.5696 131.666 10.7681 132.912 11.9983L133.99 13.0645V19.4756V25.8868H135.495H137L136.879 18.8118C136.77 12.3678 136.694 11.6653 136.028 10.9395C134.269 9.02092 130.897 8.6186 127.162 9.88172ZM26.5738 11.8462C26.5738 13.8947 26.4054 14.5837 25.597 15.846C24.0928 18.1954 22.7787 18.5919 16.4925 18.5919H11.215L10.0353 19.7948L8.85554 20.9974V26.4744V31.9511L9.95813 32.9946C11.5151 34.4685 13.3593 34.9938 17.003 35C20.1166 35.0054 23.6207 34.2176 23.6207 33.5122C23.6207 33.3305 23.8285 33.1803 24.0821 33.1788C24.8241 33.1744 25.4664 31.3653 25.4664 29.2793V27.3458H21.2214C17.694 27.3458 16.9764 27.2531 16.9764 26.7987C16.9764 26.3318 17.9985 26.2515 23.9614 26.2515H30.9465L32.0572 25.1544C34.1446 23.0914 34.9176 18.6302 33.9209 14.3973C33.0752 10.8056 32.0631 9.86384 28.7287 9.56512L26.5738 9.3718V11.8462ZM53.3881 11.5785C54.8465 12.741 55.3659 14.3349 55.3659 17.6494C55.3659 21.194 54.7575 22.8849 53.1441 23.8267C51.8289 24.5945 50.7787 24.5854 48.819 23.7895L47.2476 23.1512L47.2465 17.4819L47.245 11.8127L48.4447 11.4235C50.3479 10.8067 52.5044 10.8742 53.3881 11.5785ZM115.148 11.4706C117.06 12.4477 117.749 14.084 117.749 17.6501C117.749 22.328 116.434 24.3921 113.44 24.4158C110.415 24.4395 108.89 22.0719 108.89 17.3525C108.89 14.351 109.581 12.6308 111.175 11.6712C112.627 10.7958 113.719 10.7407 115.148 11.4706ZM22.6732 29.872C23.4299 30.6982 23.3265 31.6655 22.4211 32.229C21.004 33.1106 19.6437 30.9626 20.8589 29.7622C21.6296 29.0003 21.8891 29.0159 22.6732 29.872Z" fill="#606060"/>
</svg>
