<svg width="50" height="52" viewBox="0 0 50 52" fill="none" xmlns="http://www.w3.org/2000/svg">
<path fill-rule="evenodd" clip-rule="evenodd" d="M20.318 0.120024C19.2805 0.448142 18.4139 1.19938 17.9772 2.14956C17.8455 2.43598 17.523 3.6326 17.2604 4.80868L16.7829 6.94715L15.8982 7.36905C14.8931 7.84841 13.825 8.47556 13.0512 9.04076L12.5229 9.42655L10.388 8.74926C8.41818 8.12425 8.18177 8.07166 7.33118 8.06882C6.54389 8.06617 6.32346 8.10533 5.82175 8.33672C4.80133 8.80754 4.42909 9.29555 2.32956 12.9147C1.26878 14.7434 0.308181 16.4818 0.194789 16.7781C-0.126231 17.6166 -0.0455147 18.739 0.400369 19.638C0.699263 20.2406 0.956776 20.5248 2.45135 21.9013L4.16052 23.4752L4.15775 26.018L4.15499 28.5608L2.46528 30.1117C0.41307 31.9952 0.097377 32.4722 0.0283383 33.7938C-0.00372269 34.409 0.0328453 34.7449 0.1784 35.1712C0.284212 35.4812 1.24553 37.2433 2.3146 39.087C4.47929 42.8205 4.85623 43.3053 5.91793 43.7221C6.37365 43.9009 6.71413 43.9549 7.38239 43.9541C8.17357 43.9533 8.44624 43.8915 10.3689 43.2782L12.4848 42.6033L13.5983 43.3421C14.2108 43.7483 15.1778 44.3065 15.7473 44.5822L16.7828 45.0837L17.2604 47.2196C17.5229 48.3944 17.8467 49.5924 17.9797 49.8819C18.3264 50.6357 18.972 51.2833 19.7618 51.6694L20.4381 52H25.0006H29.5631L30.2393 51.6694C31.0307 51.2825 31.6767 50.6337 32.0191 49.8819C32.1509 49.5924 32.4757 48.3921 32.7409 47.2146L33.223 45.0738L34.2185 44.5957C34.766 44.3327 35.7329 43.7772 36.3673 43.3611L37.5206 42.6046L39.6344 43.2789C41.5549 43.8915 41.8277 43.9533 42.6188 43.9541C43.287 43.9549 43.6275 43.9009 44.0832 43.7221C45.1449 43.3053 45.5219 42.8205 47.6865 39.087C48.7556 37.2433 49.7169 35.4812 49.8227 35.1712C49.9682 34.7452 50.005 34.4086 49.973 33.7938C49.9047 32.478 49.591 32.0045 47.5319 30.1081L45.8366 28.5468L45.8409 26.0063L45.8453 23.4658L47.5355 21.9127C48.9939 20.5725 49.2747 20.2639 49.584 19.6622C50.038 18.7791 50.1253 17.747 49.8217 16.8542C49.506 15.9258 45.8222 9.66984 45.255 9.09904C44.5197 8.359 43.8062 8.07502 42.67 8.07004C41.8059 8.06627 41.6145 8.10889 39.619 8.75048L37.4897 9.43499L36.9557 9.04493C36.1764 8.47576 35.1105 7.84953 34.1029 7.36905L33.2182 6.94715L32.7408 4.80868C32.4782 3.6326 32.1545 2.43343 32.0214 2.14396C31.675 1.39039 31.0292 0.742595 30.2395 0.356399L29.5636 0.0258397L25.1567 0.00468391C21.7049 -0.0118949 20.6562 0.0130242 20.318 0.120024ZM28.9217 3.35686C29.0392 3.44454 29.2797 4.31539 29.6972 6.16408C30.3387 9.00537 30.4389 9.25578 31.0523 9.55277C31.2449 9.64604 32.0248 10.0231 32.7854 10.3905C33.5967 10.7825 34.5703 11.3547 35.1413 11.7751C36.3653 12.6763 36.8918 12.9322 37.347 12.8475C37.5346 12.8125 38.7851 12.4398 40.1259 12.0193C41.4667 11.5987 42.6568 11.2779 42.7705 11.3063C43.0264 11.3701 46.716 17.642 46.716 18.0132C46.716 18.2033 46.2631 18.6717 44.733 20.064C43.6425 21.0564 42.6675 22.0072 42.5665 22.1771C42.3945 22.4662 42.3914 22.5972 42.5167 24.2388C42.593 25.2368 42.6206 26.3798 42.581 26.8924C42.3761 29.5376 42.3761 29.5288 42.5677 29.851C42.668 30.0195 43.6425 30.9695 44.733 31.9619C46.2631 33.3541 46.716 33.8226 46.716 34.0127C46.716 34.3838 43.0264 40.6557 42.7705 40.7196C42.6568 40.7479 41.4667 40.4272 40.1259 40.0066C38.7851 39.586 37.5346 39.2133 37.347 39.1784C36.8918 39.0936 36.3653 39.3495 35.1413 40.2508C34.5703 40.6712 33.5967 41.2434 32.7854 41.6354C32.0248 42.0028 31.2449 42.3798 31.0523 42.4731C30.4396 42.7698 30.3391 43.0208 29.6959 45.8614C29.2818 47.6901 29.0353 48.5822 28.9202 48.669C28.6764 48.8526 21.3228 48.8526 21.0851 48.669C20.9763 48.5848 20.723 47.6656 20.3359 45.9482C20.0142 44.5217 19.6924 43.2401 19.6207 43.1001C19.4107 42.6902 19.1634 42.5235 18.0626 42.049C16.7827 41.4974 15.6075 40.8199 14.4708 39.9784C13.9947 39.626 13.4334 39.2865 13.2234 39.224C12.7846 39.0934 12.7979 39.0902 9.54482 40.1168C8.37505 40.4859 7.36119 40.7521 7.24012 40.7218C7.08452 40.6829 6.49964 39.7654 5.15451 37.4503C4.12641 35.6807 3.28514 34.1307 3.28514 34.0056C3.28514 33.8398 3.83837 33.2749 5.32383 31.9237C6.51644 30.839 7.4165 29.9401 7.49251 29.7578C7.5976 29.5058 7.59699 29.1265 7.48923 27.7713C7.38034 26.4017 7.38004 25.775 7.48779 24.3343C7.59381 22.9149 7.59432 22.5121 7.49025 22.2627C7.41497 22.0823 6.51091 21.1818 5.32311 20.104C3.80549 18.7271 3.28514 18.1953 3.28514 18.0213C3.28514 17.6548 6.98066 11.3689 7.23325 11.3058C7.34839 11.2769 8.54079 11.5982 9.88305 12.0196C11.2254 12.4411 12.4719 12.8135 12.6533 12.8473C13.0971 12.93 13.5312 12.7349 14.5148 12.0108C15.6123 11.2027 16.8065 10.5182 18.0651 9.97579C19.1714 9.49887 19.4885 9.27358 19.6644 8.83917C19.7244 8.69088 20.03 7.42529 20.3434 6.02677C20.7305 4.29982 20.9673 3.44322 21.0816 3.35686C21.3243 3.17338 28.6758 3.17338 28.9217 3.35686ZM25.819 17.5964C25.6328 17.7223 25.3955 17.9396 25.2918 18.0795C25.0157 18.4517 21.6951 32.744 21.761 33.2764C21.788 33.4954 21.8984 33.7929 22.0064 33.9375C22.7211 34.896 24.0021 34.9002 24.7094 33.9464C24.9854 33.5741 28.306 19.2818 28.2402 18.7495C28.1449 17.9788 27.4368 17.3675 26.6395 17.3675C26.3084 17.3675 26.0516 17.4391 25.819 17.5964ZM17.267 19.6456C16.8589 19.8238 11.2794 24.8033 11.0246 25.2165C10.7624 25.642 10.7624 26.3839 11.0246 26.8093C11.2925 27.2438 16.8729 32.2098 17.2893 32.3843C17.7636 32.583 18.2325 32.5521 18.6953 32.2918C19.4155 31.8868 19.7108 30.9942 19.3822 30.2159C19.297 30.0141 18.442 29.1789 17.104 27.9904C15.9261 26.9441 14.9623 26.0542 14.9623 26.0129C14.9623 25.9716 15.9261 25.0818 17.104 24.0355C18.442 22.847 19.297 22.0117 19.3822 21.8099C19.4573 21.6322 19.5148 21.2973 19.5101 21.0658C19.4873 19.9586 18.2885 19.1994 17.267 19.6456ZM31.3058 19.734C30.5896 20.1368 30.2902 21.0316 30.6146 21.7997C30.6942 21.9879 31.6017 22.8741 32.8928 24.0244C34.0731 25.076 35.0388 25.9708 35.0388 26.0129C35.0388 26.055 34.0731 26.9499 32.8928 28.0015C31.6017 29.1517 30.6942 30.0379 30.6146 30.2262C30.0483 31.5669 31.3848 32.9419 32.7118 32.3838C33.1361 32.2054 38.7139 27.2463 38.9765 26.814C39.2383 26.3831 39.2383 25.6427 38.9765 25.2118C38.7139 24.7796 33.1361 19.8205 32.7118 19.6421C32.2381 19.4428 31.769 19.4735 31.3058 19.734Z" fill="#FF6900"/>
</svg>
