<svg width="46" height="46" viewBox="0 0 46 46" fill="none" xmlns="http://www.w3.org/2000/svg">
<path fill-rule="evenodd" clip-rule="evenodd" d="M17.2971 0.0910389C13.6735 0.456167 10.0378 1.93971 7.17629 4.22097C6.17581 5.0186 4.40962 6.85566 3.73343 7.8019C0.8296 11.8661 -0.426598 16.5766 0.127977 21.3218C1.43721 32.5234 11.9013 40.174 22.9147 37.9819C25.0227 37.5624 27.5956 36.5528 29.196 35.5174L29.7696 35.1462L34.9485 40.3086C40.9653 46.3065 40.5688 45.9973 42.2441 45.9973C43.1596 45.9973 43.2163 45.9855 43.8774 45.6585C45.2853 44.9622 46.1053 43.5586 45.9891 42.0438C45.9624 41.6949 45.8563 41.187 45.7534 40.9148C45.3678 39.8948 45.2259 39.773 39.5194 35.5625C36.569 33.3856 34.1086 31.5571 34.0519 31.4992C33.9739 31.4196 34.0469 31.2661 34.3516 30.8695C36.3584 28.2574 37.721 24.9691 38.1482 21.7071C38.3237 20.3672 38.3227 18.0081 38.1462 16.654C37.5098 11.7741 34.9703 7.28331 31.094 4.18283C27.252 1.10969 22.1637 -0.399397 17.2971 0.0910389ZM21.926 1.73848C28.7558 2.86759 34.2847 7.77959 36.1304 14.3584C38.6718 23.4163 33.7422 32.8182 24.8491 35.8745C19.4284 37.7374 13.2991 36.7866 8.70816 33.3708C2.10386 28.457 -0.244227 19.8401 2.95505 12.2586C4.65671 8.2264 8.01975 4.80874 12.0122 3.05461C13.8476 2.24825 15.3845 1.85281 17.7914 1.56756C18.4323 1.49164 21.0997 1.60193 21.926 1.73848ZM18.8251 3.15239C18.3729 3.41191 18.2769 3.98754 18.6273 4.33818C18.8087 4.5198 18.9576 4.5529 19.8463 4.60922C23.2388 4.82403 26.0699 5.95009 28.6223 8.09983C31.3303 10.3806 33.1541 13.7716 33.6197 17.3916C33.7626 18.5026 33.6705 20.9223 33.4431 22.0334C32.4024 27.1174 28.7618 31.2797 23.9026 32.9409C22.1042 33.5557 21.4034 33.6633 19.1846 33.6654C17.4763 33.6669 17.0836 33.6402 16.299 33.4689C12.3578 32.6084 9.07524 30.3734 6.95482 27.1067C4.96896 24.0473 4.19903 20.3057 4.81445 16.7046C5.48569 12.7765 7.77087 9.26745 11.1317 7.00391C11.8718 6.50538 13.4164 5.73752 14.3122 5.42277C15.3622 5.05377 15.6392 4.56406 15.1019 4.02631C14.7723 3.69644 14.57 3.69626 13.6791 4.02505C10.3327 5.25986 7.63982 7.40763 5.66096 10.42C3.69092 13.419 2.76297 17.2287 3.14578 20.7459C3.67933 25.6482 6.20961 29.8726 10.2197 32.5563C12.9707 34.3973 15.8348 35.2591 19.1846 35.2539C22.2825 35.2491 24.9535 34.5118 27.4987 32.9593C31.6332 30.4372 34.3576 26.3308 35.0984 21.5043C35.2551 20.4831 35.2793 18.05 35.1422 17.0933C34.3508 11.573 31.0533 7.02667 26.1267 4.66364C24.3074 3.79107 22.7093 3.34337 20.6806 3.138C19.504 3.01881 19.0516 3.02232 18.8251 3.15239ZM15.2298 7.5565C14.9021 7.73785 14.6314 8.02544 13.7201 9.16067C13.2236 9.77912 12.8082 10.2977 12.7972 10.313C12.7861 10.3284 12.0953 10.6017 11.262 10.9204C10.4287 11.2391 9.6486 11.5729 9.52843 11.6621C9.06598 12.0058 8.97305 12.3622 8.87876 14.1555L8.79094 15.8244L7.89886 17.1884C7.40828 17.9386 6.98143 18.6882 6.95033 18.8541C6.84202 19.4318 6.98134 19.7719 7.89491 21.1596L8.79211 22.5226L8.88218 24.2016C8.94383 25.3512 9.01385 25.9604 9.10436 26.1339C9.36817 26.6393 9.72923 26.8573 11.2458 27.4266L12.7448 27.9893L13.7902 29.2809C14.3652 29.9914 14.935 30.6378 15.0565 30.7174C15.4975 31.0067 15.9547 30.9728 17.5283 30.5344C18.3459 30.3066 19.0828 30.1202 19.1658 30.1202C19.2489 30.1202 19.9788 30.3024 20.7879 30.525C22.4239 30.9752 22.5754 30.9922 23.0932 30.7849C23.3815 30.6695 23.6723 30.3713 24.5222 29.3199L25.5891 27.9999L26.881 27.5155C28.5538 26.8883 28.7874 26.7681 29.0801 26.3839C29.3457 26.0355 29.4582 25.3128 29.4715 23.8683C29.4825 22.6747 29.5258 22.5557 30.4753 21.1089C30.9644 20.3635 31.3842 19.6225 31.4173 19.4463C31.5114 18.9441 31.3297 18.5273 30.4066 17.1269L29.5437 15.8179L29.4622 14.2209C29.4174 13.3426 29.3393 12.495 29.2886 12.3375C29.1141 11.795 28.6408 11.4918 27.0656 10.9135L25.5988 10.3751L24.5656 9.08835C23.9974 8.38076 23.4036 7.7231 23.246 7.62694C22.8117 7.36193 22.2969 7.4088 20.667 7.86199L19.1909 8.27237L17.6936 7.86199C16.1894 7.44964 15.5631 7.37201 15.2298 7.5565ZM17.4623 9.38556C18.2714 9.6082 19.0464 9.79036 19.1846 9.79036C19.3228 9.79036 20.0978 9.6082 20.9069 9.38556C21.7161 9.16292 22.4108 8.98076 22.4509 8.98076C22.491 8.98076 22.951 9.51717 23.4733 10.1727C23.9955 10.8282 24.5028 11.4369 24.6007 11.5252C24.6985 11.6136 25.4556 11.9451 26.2831 12.262C27.1105 12.5788 27.8009 12.8514 27.8174 12.8678C27.8337 12.8843 27.8881 13.6597 27.938 14.5909L28.0289 16.284L28.8199 17.5046C29.255 18.176 29.6779 18.83 29.7598 18.958C29.9074 19.1889 29.9014 19.2017 28.987 20.5988C27.9881 22.1251 27.9481 22.2422 27.9481 23.6431C27.9481 23.9252 27.9224 24.4604 27.891 24.8324L27.8339 25.5088L26.2415 26.1118L24.6493 26.7148L23.6247 27.9811C23.0611 28.6775 22.5768 29.283 22.5482 29.3267C22.5197 29.3704 21.7531 29.1997 20.8446 28.9476L19.193 28.4892L17.6608 28.9051C16.8181 29.1339 16.0652 29.3393 15.9877 29.3617C15.8914 29.3894 15.5372 29.0134 14.8684 28.1736C14.3304 27.4978 13.8201 26.8801 13.7344 26.8009C13.6487 26.7217 12.8907 26.3984 12.0497 26.0824L10.5208 25.5079L10.4739 25.0479C10.4481 24.795 10.4024 24.0213 10.3723 23.3286L10.3177 22.0692L9.3786 20.6179L8.43941 19.1666L9.37572 17.7203L10.3119 16.274L10.3676 14.8538C10.4531 12.6726 10.2798 12.932 12.1165 12.2368L13.6772 11.646L14.7578 10.3134C15.3522 9.58049 15.8728 8.98076 15.9148 8.98076C15.9568 8.98076 16.6531 9.16292 17.4623 9.38556ZM17.896 11.6003C17.1487 11.7248 16.1032 12.1031 15.3646 12.5165C14.4424 13.0326 13.0315 14.4446 12.5159 15.3676C10.2561 19.4114 11.9795 24.4803 16.2141 26.2445C17.2431 26.6732 17.9788 26.8176 19.1397 26.8184C22.7585 26.821 25.76 24.4674 26.6191 20.9535C26.8793 19.8894 26.8743 18.3097 26.6076 17.3016C25.987 14.9553 24.3735 13.0823 22.1202 12.0923C20.9707 11.5874 19.2079 11.382 17.896 11.6003ZM20.3793 13.1662C20.7939 13.2484 21.4135 13.4705 21.9222 13.7191C22.6095 14.055 22.9019 14.2654 23.4502 14.8191C24.213 15.5895 24.7202 16.3929 24.9889 17.2566C25.7063 19.5621 25.1365 21.8884 23.4466 23.5538C21.8191 25.1573 19.4971 25.6994 17.2521 24.9997C16.3891 24.7307 15.5863 24.2231 14.8166 23.4597C12.8071 21.4664 12.4674 18.2336 14.0192 15.8712C15.4383 13.7109 17.8834 12.671 20.3793 13.1662ZM21.1392 16.2062C21.0277 16.2681 20.3483 17.1977 19.6293 18.272C18.9104 19.3462 18.2922 20.2252 18.2556 20.2252C18.2191 20.2252 17.9884 20.0191 17.7431 19.7673C17.1881 19.1975 16.9787 19.1073 16.5892 19.2702C16.2018 19.4322 16.0171 19.8473 16.1693 20.2148C16.2284 20.3576 16.6725 20.8636 17.1563 21.3392C17.9697 22.1391 18.0627 22.2042 18.3924 22.2042C18.6476 22.2042 18.8011 22.1467 18.9329 22.0018C19.0341 21.8904 19.8097 20.7576 20.6563 19.4843C22.1877 17.1813 22.3089 16.937 22.1398 16.4961C22.0801 16.3403 21.6517 16.0852 21.4586 16.0904C21.3944 16.0922 21.2506 16.1443 21.1392 16.2062ZM38.4702 36.701C41.9211 39.2474 43.9316 40.7882 44.0745 40.9958C45.0744 42.4485 44.0454 44.4491 42.2938 44.4582C41.2276 44.4637 41.4717 44.6671 36.0596 39.2641C33.328 36.5371 31.1034 34.2763 31.1161 34.2401C31.1782 34.0618 32.8627 32.6481 32.9678 32.6862C33.0344 32.7103 35.5105 34.517 38.4702 36.701Z" fill="#00BAAF"/>
</svg>
