<svg width="53" height="52" viewBox="0 0 53 52" fill="none" xmlns="http://www.w3.org/2000/svg">
<path fill-rule="evenodd" clip-rule="evenodd" d="M30.6251 0.988583C27.5765 4.04153 23.8836 5.75374 19.4435 6.17275C17.4598 6.35997 15.3515 6.15406 13.05 5.54823C11.6446 5.17831 11.5245 5.17482 11.2017 5.49504L10.9474 5.74706V17.3256V28.904L10.6108 28.5811C9.79055 27.7941 8.24786 27.534 7.20597 28.0071C6.13384 28.4939 5.38569 29.5334 5.28149 30.6808C5.23892 31.1502 5.28357 31.4412 5.49114 32.0475L5.75495 32.8177L5.42485 33.15L5.09474 33.4824L4.31946 33.2151C3.70193 33.0021 3.42144 32.9587 2.94146 33.0019C1.78284 33.106 0.73681 33.8456 0.242226 34.9105C-0.0900515 35.6257 -0.062707 36.8484 0.301162 37.546C0.645869 38.2071 1.36118 38.8604 2.08974 39.1799C2.65942 39.4297 2.66118 39.432 2.66118 39.8887V40.3467L2.00895 40.6494C1.14014 41.0525 0.658091 41.4911 0.30893 42.196C-0.08798 42.9975 -0.104345 44.1724 0.270917 44.9283C0.573779 45.5384 1.14853 46.1282 1.75063 46.4465C2.37282 46.7756 3.92856 46.7804 4.64325 46.4556L5.12333 46.2373L5.46099 46.5827L5.79866 46.9282L5.55597 47.4727C5.22059 48.2252 5.21417 49.4559 5.5421 50.1258C5.90638 50.8697 6.3499 51.3225 7.04791 51.6633C8.75197 52.495 10.7369 51.7327 11.4771 49.9623L11.7106 49.4037H12.1997H12.6887L12.995 50.0455C13.4665 51.0334 14.2702 51.7232 15.1758 51.917C16.7129 52.2462 18.1798 51.5489 18.8339 50.178C19.2127 49.3841 19.236 48.5157 18.9035 47.5773L18.6749 46.9319L19.0026 46.6071L19.3302 46.2822L20.0068 46.5191C21.3752 46.998 22.7286 46.6852 23.641 45.6791C24.2262 45.0336 24.4457 44.3731 24.3965 43.4058L24.3586 42.6612L26.0168 43.3717C26.9289 43.7625 27.7603 44.1636 27.8643 44.2631C27.9893 44.3826 28.0854 44.6976 28.1481 45.1921C28.3256 46.5936 29.0698 47.6917 30.2608 48.3092C30.8469 48.6131 30.9544 48.6334 31.9737 48.6334C32.9624 48.6334 33.1131 48.6071 33.631 48.3442C34.8418 47.7296 35.6536 46.5853 35.7923 45.298C35.8334 44.917 35.9403 44.4949 36.03 44.36C36.14 44.1943 36.6939 43.9022 37.7345 43.4608C38.5823 43.1011 39.3533 42.7396 39.4479 42.6573C39.8738 42.2867 39.7179 41.5987 39.1605 41.3886C38.946 41.3078 38.6611 41.3918 37.5346 41.8678C35.5927 42.6885 35.2468 42.8771 34.8813 43.3152C34.5277 43.7392 34.2538 44.5067 34.2501 45.0833C34.2452 45.8802 33.5573 46.7775 32.7485 47.0423C32.1494 47.2383 31.2383 47.13 30.741 46.8037C30.0915 46.3775 29.7917 45.8483 29.6899 44.9478C29.5938 44.0983 29.3524 43.5429 28.8897 43.1073C28.5959 42.8306 27.1373 42.1555 23.5089 40.6167C21.9645 39.9616 21.8283 39.8826 21.8258 39.6404C21.8235 39.4156 21.9106 39.341 22.4181 39.1324C22.7761 38.9853 23.2113 38.6914 23.5106 38.3946C23.7842 38.1233 24.0408 37.9014 24.0809 37.9014C24.1208 37.9015 25.4195 38.4491 26.9667 39.1183C29.8497 40.3652 30.4669 40.7173 31.2087 41.5379C31.8242 42.219 32.1182 42.1963 32.8882 41.408C33.2113 41.0773 33.662 40.687 33.8899 40.5404C34.1178 40.394 36.5182 39.3214 39.2242 38.1569C41.9301 36.9924 44.4649 35.8521 44.8569 35.6228C46.1852 34.8459 47.4184 33.4171 48.053 31.9195C48.6554 30.4978 48.646 30.6814 48.648 20.3654C48.6497 11.0271 48.6467 10.8884 48.4426 10.686C48.25 10.4951 48.0974 10.4806 46.2727 10.4806C43.9705 10.4806 42.4913 10.3114 40.5522 9.82628C37.9962 9.18688 35.7974 8.20671 33.5294 6.696C32.7693 6.18949 32.1255 5.83168 31.9737 5.83117C31.8186 5.83055 31.1913 6.18168 30.4095 6.70658C28.6697 7.87468 26.8598 8.75174 24.7556 9.44609C23.3005 9.92631 22.997 10.0617 22.8698 10.2868C22.6689 10.6427 22.8626 11.1335 23.2701 11.3009C23.515 11.4015 23.7327 11.3705 24.6755 11.1004C26.8345 10.4818 29.0984 9.44126 30.9707 8.20702C31.4728 7.87592 31.9256 7.605 31.9769 7.605C32.0282 7.605 32.5262 7.90108 33.0835 8.26299C36.7702 10.6566 41.3332 12.0211 45.6513 12.0211H47.0961V20.883C47.0961 30.5371 47.1139 30.2177 46.5012 31.5711C45.9582 32.7709 44.8439 33.9287 43.6638 34.5193C43.338 34.6824 41.0798 35.6748 38.6458 36.7246C33.5589 38.9186 33.2404 39.0701 32.5121 39.6409L31.9737 40.0629L31.4347 39.6403C30.7546 39.1073 30.1466 38.8072 26.9899 37.4468L24.4401 36.3478L24.386 35.7564C24.1985 33.7068 21.9405 32.4471 19.9268 33.2686L19.3252 33.514L18.9774 33.1798L18.6297 32.8455L18.8416 32.3695C18.967 32.0876 19.0732 31.5792 19.1019 31.1232C19.187 29.769 18.5767 28.7002 17.3728 28.0953L16.8513 27.8333V19.9397V12.0461L18.7527 12.0037C20.3275 11.9686 20.7008 11.9309 20.9262 11.7845C21.3963 11.479 21.4148 10.8183 20.9607 10.545C20.7845 10.4389 20.187 10.4198 18.2116 10.457C15.9153 10.5002 15.6702 10.522 15.4927 10.698C15.3048 10.8843 15.2977 11.2027 15.2977 19.3399V27.7886L14.7655 27.9759C14.0666 28.2221 13.3567 28.9319 12.9629 29.7785L12.6569 30.4365L12.5849 30.0353C12.5454 29.8146 12.5103 24.5434 12.5071 18.3217L12.5011 7.00924L13.252 7.20241C15.1433 7.689 17.6487 7.89296 19.5444 7.71478C24.086 7.28796 27.7869 5.67712 31.1672 2.6556L31.9669 1.94091L33.1259 2.93864C36.3874 5.74614 40.0676 7.31199 44.3513 7.71478C46.2994 7.89789 49.0025 7.66631 50.9059 7.15312L51.453 7.00564L51.4226 18.7306L51.3922 30.4556L51.1108 31.4826C50.7929 32.6435 50.0117 34.2872 49.3783 35.1284C48.7989 35.8979 47.794 36.9023 47.0443 37.4614C46.299 38.0171 45.3484 38.4998 43.1203 39.4538C41.0086 40.3581 40.6842 40.6781 41.2088 41.3394C41.4043 41.5858 41.4862 41.6149 41.8562 41.5701C42.4019 41.5037 46.0401 39.9143 47.0989 39.2798C50.2298 37.403 52.3623 34.1553 52.8928 30.4556C52.9564 30.0124 52.9967 25.1385 52.9979 17.7419L53 5.74706L52.7457 5.49504C52.423 5.17492 52.303 5.17831 50.8974 5.54793C46.2803 6.76173 42.1362 6.37959 38.033 4.36144C36.3029 3.51057 35.0221 2.6024 33.5187 1.1606C31.9352 -0.35791 31.9678 -0.355959 30.6251 0.988583ZM38.0762 14.1863C37.7581 14.2212 37.2344 14.3693 36.9124 14.5155C35.8835 14.9825 35.5075 15.4764 33.5326 18.9541C32.5385 20.7047 31.5674 22.4056 31.3746 22.7339L31.024 23.3309L30.2819 22.3758C29.1893 20.9701 28.7248 20.5057 28.0588 20.1537C26.0512 19.0928 23.6002 19.9065 22.6192 21.9598C22.3203 22.5854 22.2892 22.7424 22.2892 23.6261C22.2892 24.4622 22.3276 24.6826 22.5575 25.1666C22.891 25.8683 28.0404 32.5037 28.8659 33.295C29.6777 34.0734 30.3709 34.3431 31.5594 34.3431C32.7953 34.3431 33.4814 34.0661 34.3042 33.2349C34.8494 32.684 35.3793 31.8068 38.6223 26.0882C40.7914 22.2632 42.3689 19.3697 42.4399 19.0861C42.5065 18.8202 42.5443 18.2416 42.5239 17.8001C42.419 15.5293 40.4461 13.9262 38.0762 14.1863ZM39.9654 16.0897C40.6117 16.5486 40.9801 17.2525 40.9803 18.029C40.9804 18.4084 40.9076 18.803 40.7908 19.056C40.4297 19.8384 33.5131 31.8944 33.2877 32.1344C32.4297 33.0481 30.6863 33.0481 29.8321 32.1344C29.7081 32.0019 28.3515 30.2853 26.8174 28.3199C24.0333 24.7529 23.7903 24.3752 23.7917 23.6142C23.7935 22.4739 24.6435 21.4709 25.7864 21.2602C26.3181 21.1622 27.0719 21.3173 27.5326 21.6196C27.7428 21.7576 28.5275 22.658 29.2764 23.6206C30.2388 24.8577 30.7166 25.3904 30.9061 25.4375C31.5325 25.5934 31.569 25.5441 34.0365 21.2127C36.9649 16.0719 36.7626 16.3848 37.3967 16.0176C37.8825 15.7363 37.9993 15.7118 38.7224 15.7397C39.418 15.7665 39.5706 15.8095 39.9654 16.0897ZM9.11222 29.4154C9.59903 29.6211 9.86523 29.9564 10.2213 30.8126C10.7033 31.9714 10.6576 31.9448 12.1614 31.9448C12.8685 31.9448 13.5307 31.9003 13.6331 31.846C13.7355 31.7916 13.9771 31.3683 14.1699 30.9052C14.5827 29.914 14.8964 29.5459 15.4752 29.3739C16.017 29.213 16.5509 29.3127 16.9555 29.6504C17.6597 30.2378 17.7507 30.9617 17.2629 32.0958C16.802 33.1673 16.8174 33.2246 17.8386 34.244C18.3246 34.7293 18.8256 35.1514 18.9521 35.1822C19.0896 35.2157 19.5554 35.0884 20.1124 34.8649C21.4272 34.3376 22.0163 34.4492 22.635 35.3433C22.9472 35.7945 22.9161 36.67 22.5708 37.1508C22.3464 37.4633 22.2533 37.5179 21.0272 38.054C20.6749 38.2081 20.3539 38.41 20.3138 38.5028C20.2739 38.5957 20.2314 39.2203 20.2195 39.891C20.1936 41.3522 20.2204 41.3969 21.4264 41.9023C22.5392 42.3688 22.8592 42.7524 22.8584 43.62C22.8577 44.5356 22.2047 45.1919 21.2936 45.1926C20.9985 45.1929 20.5277 45.0752 20.0623 44.8849C19.6478 44.7154 19.1902 44.5768 19.0455 44.5768C18.8531 44.5768 18.5367 44.8188 17.8699 45.4754C16.8123 46.5172 16.7954 46.5785 17.2657 47.6742C17.7814 48.8757 17.6328 49.7383 16.8264 50.2258C16.4258 50.4679 15.6266 50.4983 15.2146 50.2871C14.7861 50.0674 14.5919 49.805 14.2077 48.9269C14.0135 48.4831 13.7662 48.0482 13.6579 47.9606C13.5017 47.8341 13.2072 47.8046 12.2301 47.8179C11.5531 47.827 10.9232 47.867 10.8302 47.9065C10.7372 47.9462 10.4613 48.4171 10.217 48.9533C9.65455 50.1876 9.41601 50.3793 8.44248 50.3793C7.81563 50.3793 7.71889 50.3502 7.41986 50.0712C7.0505 49.7268 6.80429 49.2344 6.80429 48.8407C6.80429 48.6968 6.96909 48.1754 7.17044 47.682C7.37553 47.1792 7.51297 46.6898 7.48294 46.5688C7.39562 46.2162 5.67758 44.5768 5.39533 44.5768C5.26171 44.5768 4.79002 44.7199 4.34701 44.8949C3.69437 45.1525 3.43532 45.2042 2.98113 45.1674C2.48655 45.1274 2.37479 45.0732 2.02988 44.7066C1.56782 44.2154 1.43959 43.7134 1.62199 43.1096C1.79548 42.5357 2.1667 42.2247 3.16644 41.8154C3.63347 41.6242 4.06041 41.3847 4.11521 41.2831C4.17 41.1817 4.21485 40.525 4.21485 39.824C4.21485 38.3374 4.2511 38.3984 3.07549 37.906C2.64824 37.7271 2.18783 37.4794 2.05225 37.3559C1.0549 36.4461 1.58294 34.8078 2.95638 34.5506C3.21781 34.5016 3.55475 34.5798 4.32112 34.8677C4.88697 35.0801 5.42433 35.2229 5.53122 35.1892C5.81223 35.1008 7.52934 33.332 7.52934 33.131C7.52934 33.0371 7.3662 32.5694 7.16682 32.0918C6.74173 31.0737 6.72381 30.8114 7.03734 30.195C7.42265 29.4373 8.34439 29.091 9.11222 29.4154ZM11.1818 35.1812C8.72463 35.7105 7.01166 38.1705 7.41478 40.591C7.68512 42.2138 8.68392 43.5338 10.1715 44.2342C10.8538 44.5555 11.0916 44.6129 11.9187 44.6558C13.439 44.7346 14.4704 44.3657 15.5293 43.3643C16.559 42.3904 17.0585 41.2425 17.0585 39.8496C17.0585 37.5629 15.3583 35.55 13.0776 35.1371C12.3119 34.9984 11.9965 35.0057 11.1818 35.1812ZM13.603 36.919C14.2649 37.2195 14.8727 37.8105 15.2021 38.4741C15.4116 38.8962 15.4528 39.1323 15.4521 39.904C15.4513 40.7057 15.4147 40.8964 15.1762 41.3418C14.6022 42.4138 13.6375 43.0388 12.4368 43.1165C11.0386 43.2071 9.92478 42.5819 9.29151 41.3509C8.96876 40.7234 8.93116 40.5657 8.9382 39.8657C8.9438 39.3055 9.00771 38.9458 9.16266 38.6028C9.9339 36.8953 11.9046 36.148 13.603 36.919Z" fill="#1750E1"/>
</svg>
