<svg width="63" height="58" viewBox="0 0 63 58" fill="none" xmlns="http://www.w3.org/2000/svg">
<path fill-rule="evenodd" clip-rule="evenodd" d="M23.3883 2.01842C19.0896 6.32269 14.1504 9.49437 8.55215 11.5456C6.80567 12.1855 4.37343 12.8586 2.6062 13.1911C0.658423 13.5574 0.331516 13.6616 0.154208 13.9722C-0.0858469 14.3927 -0.0340339 20.1286 0.229256 22.2763C0.729992 26.3624 1.51377 29.5114 2.9551 33.2299C6.26641 41.7721 12.5885 49.5257 20.9334 55.2788C22.9549 56.6725 25.312 58 25.765 58C26.3601 58 29.9467 55.8187 32.4704 53.9222C39.5969 48.5667 44.9539 41.8449 48.1277 34.2761C48.8512 32.5504 49.7313 29.9167 50.1245 28.2998L50.4001 27.1663L51.54 27.0933C54.4874 26.9049 57.3045 25.55 59.5272 23.252C61.0608 21.6663 62.0731 19.8587 62.6522 17.6722C63.0919 16.0115 63.1184 13.281 62.7104 11.658C62.1202 9.31003 60.988 7.2998 59.3077 5.61668C55.7633 2.06609 50.6163 0.997247 45.7949 2.81019C43.1806 3.7934 40.5877 6.1305 39.2873 8.67584C38.8827 9.46774 38.7157 9.68581 38.5534 9.63453C38.0531 9.4762 35.6575 8.09829 34.2283 7.14669C31.5056 5.33375 29.1418 3.28642 26.7264 0.649221C25.7873 -0.37606 25.7747 -0.370957 23.3883 2.01842ZM30.0038 6.60536C32.1317 8.31089 34.8475 10.0707 37.1109 11.2107L38.1098 11.7138L38.0321 12.1718C37.9893 12.4237 37.9186 13.0359 37.8748 13.5321C37.831 14.0285 37.757 14.4346 37.7102 14.4346C37.6635 14.4346 36.791 14.0178 35.7715 13.5085C32.3003 11.7746 29.3938 9.56669 26.8722 6.74838C26.2696 6.07474 26.1179 5.97043 25.7408 5.97043C25.3593 5.97043 25.2029 6.08208 24.4774 6.87285C20.123 11.618 14.099 14.9912 7.6384 16.3019C6.06811 16.6206 5.79898 16.7109 5.54264 17.0063L5.24854 17.3451L5.31365 20.4643C5.38124 23.7032 5.50711 24.8294 6.10016 27.5042C8.04011 36.2531 13.7761 44.3696 21.9274 49.8999C23.841 51.1982 25.3237 52.0253 25.7373 52.0253C26.1492 52.0253 27.8248 51.0875 29.7553 49.7765C37.7499 44.347 43.4025 36.3522 45.3353 27.7407C45.5063 26.979 45.6665 26.3354 45.6913 26.3106C45.7162 26.2857 46.0126 26.3699 46.3504 26.4975C46.688 26.6252 47.2812 26.795 47.6688 26.8747L48.3734 27.0199L48.1301 27.9156C46.4895 33.9559 44.0029 38.8946 40.2213 43.6234C36.7011 48.0254 32.1275 52.0363 27.3532 54.9082L25.7588 55.8674L24.6818 55.235C20.8481 52.984 16.4505 49.4215 13.5068 46.1823C7.66462 39.7534 4.20234 32.982 2.68398 25.0147C2.19989 22.4743 1.81819 17.2367 2.02221 15.9321C2.10695 15.3899 2.12335 15.3731 2.66832 15.2716C4.03833 15.0166 6.4185 14.3915 8.03551 13.8621C13.9432 11.9279 19.6935 8.46274 24.1549 4.14852L25.7171 2.63767L27.2702 4.14852C28.1245 4.97938 29.3545 6.08494 30.0038 6.60536ZM52.3893 4.15425C56.985 5.03825 60.4672 8.83716 60.9275 13.469C61.5715 19.9485 56.3438 25.4533 49.8841 25.0979C45.2348 24.8421 41.391 21.678 40.1811 17.1107C39.9803 16.3531 39.9167 15.7428 39.9146 14.559C39.9114 12.6321 40.1697 11.556 41.0791 9.70822C41.6408 8.5668 41.8687 8.25599 42.9134 7.20594C44.5994 5.5115 46.2388 4.60185 48.3931 4.1657C49.4813 3.94551 51.2769 3.94028 52.3893 4.15425ZM29.1437 11.6978C31.4021 13.5004 33.8963 15.0005 36.4892 16.1156L37.9902 16.761L38.212 17.6204C38.831 20.0192 39.8766 21.8192 41.697 23.6197C42.1325 24.0503 42.7534 24.5825 43.0769 24.8021C43.7814 25.2805 43.7828 25.2931 43.3499 27.2403C41.5192 35.4739 36.219 42.9447 28.5127 48.1537C27.7268 48.685 26.7757 49.2938 26.399 49.5066L25.7141 49.8937L24.4712 49.1235C20.2993 46.5383 16.7812 43.3447 13.8873 39.5158C12.0722 37.1141 10.1944 33.687 9.19143 30.945C7.99115 27.6635 7.26602 23.5078 7.26577 19.9083L7.26565 18.4738L8.35285 18.2523C11.7811 17.5537 15.7741 15.9653 18.8832 14.0634C20.7908 12.8965 22.8918 11.2684 24.7849 9.49002L25.7166 8.61485L26.8351 9.68133C27.4503 10.2678 28.4891 11.1753 29.1437 11.6978ZM55.7861 9.81763C55.581 9.9477 53.5961 11.6273 51.3751 13.5502L47.3369 17.0463L46.1763 15.8026C45.0964 14.6457 44.9825 14.559 44.539 14.559C44.172 14.559 44.003 14.6345 43.8048 14.887C43.3196 15.5049 43.4404 15.8166 44.6966 17.1885C45.3286 17.879 46.0136 18.6327 46.2187 18.8634C46.6397 19.3374 47.0807 19.5315 47.4927 19.4242C47.7856 19.3479 56.5286 11.8945 57.0434 11.282C57.4398 10.8105 57.4185 10.3873 56.976 9.94397C56.5522 9.51939 56.2985 9.49251 55.7861 9.81763ZM24.0689 16.9235C23.7951 17.1789 23.7321 17.4134 23.573 18.769L23.4805 19.556L22.5775 19.9333C21.5562 20.36 21.7532 20.4121 20.3944 19.3553C19.2849 18.4924 19.1761 18.5226 17.5336 20.1499C16.301 21.3711 16.1621 21.5533 16.1621 21.9497C16.1621 22.258 16.2816 22.542 16.5597 22.8936C16.7784 23.1703 17.1331 23.6192 17.3481 23.8911C17.6288 24.2461 17.7037 24.4303 17.6141 24.5446C17.5454 24.632 17.389 24.9723 17.2663 25.3007C17.1437 25.6291 16.9541 25.9453 16.845 26.0034C16.7359 26.0616 16.1994 26.1498 15.6527 26.1997C14.601 26.2957 14.0551 26.4936 13.9282 26.8252C13.8858 26.936 13.851 27.8797 13.851 28.9223C13.851 30.6581 13.8724 30.8411 14.1044 31.0904C14.2436 31.2402 14.3975 31.3677 14.446 31.3736C14.4946 31.3794 15.0642 31.4494 15.7117 31.5291L16.889 31.674L17.2432 32.5284L17.5974 33.3828L17.2362 33.8354C15.5692 35.9246 15.5704 35.8506 17.1747 37.4904C18.4875 38.8323 18.9293 39.1399 19.3554 39.009C19.5057 38.9627 19.9922 38.6343 20.4364 38.2792C20.8806 37.9241 21.3075 37.5954 21.3851 37.5491C21.5931 37.4249 23.1406 38.165 23.2138 38.4237C23.2482 38.5452 23.3148 39.0646 23.3619 39.578C23.4529 40.5726 23.6563 41.1178 23.9831 41.2434C24.0937 41.2858 25.0365 41.3207 26.0783 41.3207C27.9309 41.3207 27.9787 41.3139 28.2601 41.0138C28.4924 40.7663 28.5716 40.4838 28.6709 39.5497L28.7939 38.3923L29.7165 38.0419C30.7583 37.6461 30.5623 37.5926 31.9095 38.6404C32.9995 39.4882 33.137 39.4554 34.6336 37.991C35.881 36.7704 36.2821 36.1732 36.1336 35.7575C36.0894 35.6339 35.7574 35.1613 35.3958 34.7073L34.7384 33.8818L35.1631 32.9025L35.5878 31.923L36.6787 31.794C37.8234 31.6588 38.2486 31.5024 38.3761 31.1694C38.4184 31.0593 38.4529 30.1153 38.4529 29.0717C38.4529 26.7179 38.4274 26.6777 36.8171 26.4861C36.2476 26.4183 35.7497 26.3256 35.7108 26.28C35.485 26.0159 34.9506 24.3351 35.0486 24.1977C35.11 24.1116 35.4257 23.6945 35.7504 23.2709C36.6255 22.1288 36.5981 22.0067 35.1292 20.5054C33.8164 19.1634 33.3746 18.8558 32.9485 18.9868C32.7982 19.0331 32.3044 19.369 31.8513 19.7335L31.0272 20.3962L30.0496 19.9711L29.0719 19.5462L28.9353 18.4529C28.7799 17.2082 28.699 16.9661 28.382 16.7961C28.2579 16.7295 27.2966 16.6751 26.2456 16.6751C24.5081 16.6751 24.3109 16.6976 24.0689 16.9235ZM26.9485 19.0712C26.9827 19.2936 27.0456 19.7558 27.0881 20.0981C27.1991 20.993 27.4052 21.2411 28.2339 21.4782C28.6264 21.5905 29.369 21.9001 29.884 22.1661C30.399 22.4321 30.9589 22.6498 31.1282 22.6498C31.3126 22.6498 31.7444 22.3999 32.204 22.0274C32.6264 21.6851 33.02 21.405 33.0788 21.405C33.1375 21.405 33.3661 21.5916 33.5868 21.8197L33.988 22.2344L33.3603 23.0211C33.0151 23.4536 32.6999 23.9383 32.6599 24.098C32.6108 24.2938 32.7312 24.6672 33.03 25.2455C33.2736 25.717 33.5686 26.4601 33.6854 26.8969C33.9426 27.8576 34.2334 28.2129 34.8321 28.2981C35.081 28.3334 35.55 28.3967 35.8747 28.4387L36.4649 28.5153V29.1243C36.4649 29.8046 36.5709 29.7443 35.036 29.9356C34.1462 30.0466 33.9079 30.246 33.6696 31.0792C33.5565 31.4748 33.2445 32.2019 32.9764 32.6951C32.33 33.8835 32.3442 34.1372 33.1101 35.097C33.4518 35.5252 33.7313 35.9134 33.7313 35.9597C33.7313 36.0061 33.5452 36.2248 33.3177 36.4456L32.9041 36.8472L32.0441 36.1595C31.024 35.3437 30.718 35.3018 29.6658 35.8332C29.2708 36.0327 28.696 36.2594 28.3885 36.3369C27.5326 36.5527 27.1475 36.7289 27.0233 36.961C26.9408 37.1155 26.649 38.9348 26.649 39.2947C26.649 39.3137 26.3731 39.3291 26.036 39.3291C25.3305 39.3291 25.3422 39.3481 25.2165 37.9919C25.1162 36.9106 24.8664 36.5306 24.1261 36.333C23.8394 36.2566 23.1834 35.9752 22.6684 35.7077C21.409 35.0537 21.185 35.0714 20.1403 35.9068C19.6698 36.283 19.2475 36.5907 19.2017 36.5907C19.1558 36.5907 18.9365 36.4027 18.7142 36.173L18.31 35.7552L18.6085 35.395C19.4489 34.3809 19.815 33.8054 19.8135 33.5004C19.8126 33.3174 19.6433 32.8344 19.437 32.4268C19.2307 32.0194 18.9734 31.3753 18.8653 30.9954C18.5906 30.0306 18.3319 29.7879 17.4761 29.6921C15.7359 29.4969 15.839 29.5485 15.839 28.8724C15.839 28.1954 15.7901 28.2232 17.2679 28.0595C18.0241 27.9757 18.4369 27.827 18.6012 27.5789C18.6511 27.5036 18.8089 27.0779 18.9518 26.6329C19.0948 26.1879 19.3755 25.5306 19.5755 25.1722C19.7756 24.8138 19.9394 24.3853 19.9394 24.2199C19.9394 24.0522 19.6783 23.5785 19.3492 23.1489C19.0245 22.7253 18.7035 22.3 18.6359 22.2039C18.5444 22.074 18.6258 21.916 18.9542 21.5871L19.3954 21.145L20.2505 21.8277C20.7209 22.2032 21.2342 22.5427 21.3912 22.5822C21.5794 22.6295 21.9678 22.5071 22.5299 22.2236C22.9991 21.9869 23.7567 21.6723 24.2136 21.5244C24.7313 21.3569 25.1128 21.1507 25.2261 20.9775C25.3673 20.7618 25.6239 19.4227 25.6511 18.76C25.6532 18.7087 25.932 18.6666 26.2706 18.6666C26.8695 18.6666 26.8879 18.6776 26.9485 19.0712ZM24.5972 23.6205C23.645 23.9503 22.921 24.4237 22.1985 25.1891C19.6328 27.9069 20.4953 32.3161 23.9139 33.9589C24.7396 34.3557 24.9775 34.4113 26.0262 34.4529C27.8179 34.524 29.1306 34.0118 30.3057 32.7832C32.3627 30.6327 32.3627 27.2386 30.3057 25.0881C29.6305 24.3821 28.9793 23.9707 28.0294 23.6502C27.0699 23.3264 25.4858 23.3127 24.5972 23.6205ZM27.4337 25.5863C29.3011 26.2237 30.3159 28.516 29.5224 30.3048C28.5152 32.5755 25.7582 33.1856 23.9331 31.5417C22.3611 30.126 22.3621 27.7443 23.9353 26.3274C24.9307 25.431 26.1943 25.1632 27.4337 25.5863Z" fill="#00D084"/>
</svg>
