<svg width="45" height="45" viewBox="0 0 45 45" fill="none" xmlns="http://www.w3.org/2000/svg">
<path opacity="0.07" fill-rule="evenodd" clip-rule="evenodd" d="M20.3143 0.056782C17.8295 0.332561 15.5665 0.929113 13.4492 1.86652C12.5166 2.27947 11.1314 3.00964 10.6861 3.32305L10.4923 3.45939L10.8697 4.07503L11.2469 4.69076L11.4842 4.5346C13.5169 3.19734 16.4937 2.11085 19.4505 1.62701C20.8413 1.39941 24.0284 1.39877 25.4972 1.62574C31.9696 2.62614 37.2872 6.18655 40.6363 11.7621C43.8472 17.1077 44.4623 23.9109 42.2702 29.8323C41.6475 31.5145 40.238 34.0621 39.2351 35.3185L39.0537 35.5457L38.4788 34.9776C37.9077 34.4133 37.6736 34.3136 37.2765 34.466C37.0313 34.5601 36.911 34.9112 36.3575 37.1504C35.5822 40.2855 35.5316 40.2349 38.6678 39.4599C40.9078 38.9065 41.259 38.7863 41.3531 38.5412C41.5047 38.1462 41.4034 37.9287 40.7572 37.2626L40.1049 36.59L40.3927 36.2042C42.7429 33.0534 44.2445 29.4657 44.8341 25.5926C45.0333 24.2841 45.0588 20.9639 44.8796 19.6844C44.1718 14.6322 42.0678 10.2977 38.599 6.74547C35.1089 3.17152 30.6675 0.921932 25.6336 0.178492C24.5128 0.0129701 21.3592 -0.0592015 20.3143 0.056782ZM6.31134 5.54218C5.28612 5.80378 4.33374 6.04648 4.19498 6.08156C3.831 6.17364 3.58349 6.45915 3.58349 6.78683C3.58349 7.01398 3.71106 7.20068 4.2359 7.74169L4.88822 8.41423L4.60043 8.80009C2.7004 11.3475 1.28956 14.323 0.582044 17.2756C0.137951 19.1287 0.00137716 20.3448 1.32374e-05 22.4567C-0.00125976 24.4657 0.08885 25.3918 0.457564 27.1597C1.84358 33.8048 6.22041 39.5048 12.2957 42.5764C14.5839 43.7333 16.7892 44.4333 19.405 44.8331C20.8768 45.058 24.1262 45.0551 25.6336 44.8274C27.1255 44.602 29.2382 44.0533 30.5091 43.561C32.1171 42.938 34.5551 41.6783 34.4687 41.515C34.451 41.4814 34.2836 41.2025 34.0968 40.8952L33.7573 40.3363L32.9763 40.7958C30.5921 42.1985 27.4282 43.2002 24.4584 43.4923C19.4344 43.9866 14.1323 42.5189 10.0067 39.492C4.44222 35.4093 1.1969 28.7555 1.43186 21.9113C1.54216 18.7001 2.21366 15.9995 3.61023 13.15C4.08914 12.1731 5.19347 10.3917 5.75777 9.68578L5.93944 9.45854L6.51429 10.0266C6.94302 10.4503 7.15361 10.5947 7.34274 10.5947C7.69608 10.5947 7.90604 10.4628 8.02388 10.1664C8.16973 9.79976 9.13011 5.90922 9.13011 5.68526C9.13011 5.40611 8.73048 5.04853 8.42951 5.05834C8.28975 5.06289 7.33655 5.28059 6.31134 5.54218ZM24.2324 5.93631C24.102 6.04329 23.9114 6.51186 23.6499 7.36793L23.2612 8.64047L22.0378 8.68592C21.2738 8.71428 20.7357 8.77618 20.6049 8.85081C20.2346 9.06196 20.0422 9.49417 20.0419 10.1158C20.0415 10.6601 20.0318 10.6843 19.7914 10.7351C19.654 10.7643 19.0913 10.9408 18.5412 11.1274L17.541 11.4667L17.1959 11.0273C16.7776 10.4947 16.3644 10.2752 15.9322 10.3562C15.5919 10.4201 13.3505 11.9932 13.0429 12.3841C12.7464 12.761 12.795 13.3004 13.1764 13.867C13.3515 14.1271 13.4947 14.3565 13.4947 14.3769C13.4947 14.3973 13.2302 14.7606 12.9068 15.1843C12.5835 15.6079 12.255 16.078 12.177 16.2288C12.099 16.3796 12.0209 16.503 12.0034 16.503C11.986 16.503 11.7978 16.4416 11.5852 16.3666C10.9833 16.1544 10.4666 16.1887 10.1411 16.4625C9.912 16.6551 9.77879 16.957 9.35807 18.2362C8.90388 19.6169 8.86069 19.8139 8.94407 20.1233C9.06528 20.5734 9.34588 20.8268 9.95056 21.0323L10.4417 21.1991V22.5021V23.8051L9.95056 23.972C9.34588 24.1774 9.06528 24.4309 8.94407 24.881C8.86069 25.1904 8.90388 25.3874 9.35807 26.7681C9.77879 28.0473 9.912 28.3491 10.1411 28.5418C10.4666 28.8156 10.9833 28.8499 11.5852 28.6376C11.7978 28.5626 11.9835 28.5013 11.998 28.5013C12.0124 28.5013 12.1558 28.7161 12.3166 28.9785C12.4775 29.2409 12.8083 29.7069 13.0518 30.014C13.2954 30.321 13.4947 30.593 13.4947 30.6183C13.4947 30.6438 13.3473 30.8834 13.1671 31.1509C12.8782 31.5799 12.8444 31.6882 12.8811 32.0699C12.9044 32.314 12.9963 32.584 13.0917 32.6893C13.1846 32.792 13.8125 33.2722 14.487 33.7564C15.6361 34.5814 15.741 34.6368 16.1562 34.6368C16.5562 34.6368 16.632 34.6015 16.9367 34.2732C17.1224 34.0732 17.3404 33.8143 17.4211 33.698C17.5585 33.5 17.5848 33.4949 17.8273 33.6175C18.1052 33.7579 19.0242 34.064 19.655 34.2263L20.0415 34.3256L20.0419 34.8903C20.0422 35.5452 20.2431 35.9572 20.6694 36.1776C21.0643 36.3817 23.9288 36.3817 24.3237 36.1776C24.7514 35.9565 24.9509 35.5456 24.9513 34.8845C24.9516 34.3161 24.9526 34.3139 25.2414 34.2562C25.4007 34.2243 25.9639 34.0504 26.4928 33.8697L27.4545 33.5411L27.7984 33.9787C28.2157 34.5098 28.6291 34.7289 29.0609 34.648C29.3632 34.5913 31.5339 33.0956 31.8982 32.6931C31.9968 32.584 32.0883 32.3176 32.112 32.0699C32.1487 31.6882 32.1149 31.5799 31.826 31.1509C31.6458 30.8834 31.4984 30.6478 31.4984 30.6273C31.4984 30.607 31.763 30.2437 32.0863 29.82C32.4096 29.3963 32.7381 28.9263 32.8161 28.7755C32.8941 28.6247 32.9722 28.5013 32.9897 28.5013C33.0071 28.5013 33.1953 28.5626 33.4079 28.6376C33.964 28.8337 34.5158 28.813 34.8056 28.5851C35.129 28.3309 35.1492 28.2861 35.6781 26.6473C36.086 25.3835 36.129 25.1778 36.0478 24.8763C35.9277 24.4308 35.6456 24.1769 35.0425 23.972L34.5514 23.8051V22.5021V21.1991L35.0425 21.0323C35.6472 20.8268 35.9278 20.5734 36.049 20.1233C36.1324 19.8139 36.0892 19.6169 35.635 18.2362C35.2143 16.957 35.0811 16.6551 34.8521 16.4625C34.5265 16.1887 34.0098 16.1544 33.4079 16.3666C33.1953 16.4416 33.0103 16.503 32.9968 16.503C32.9833 16.503 32.8425 16.301 32.6841 16.0541L32.3959 15.6052L33.2656 14.4492C34.2225 13.1774 34.3042 12.9368 33.9121 12.5449L33.689 12.3218H30.866C29.3134 12.3218 28.0432 12.2898 28.0432 12.2508C28.0432 12.2117 28.5956 10.9392 29.2707 9.42318C29.9458 7.90703 30.4982 6.56686 30.4982 6.44506C30.4982 6.32316 30.3978 6.1231 30.275 6.00039L30.0519 5.77724H27.239C24.6946 5.77724 24.4077 5.79242 24.2324 5.93631ZM7.37911 6.89072C7.35556 6.95326 7.2619 7.3213 7.17088 7.70879C7.07995 8.09628 6.98112 8.41323 6.95129 8.41323C6.86727 8.41323 5.72531 7.24103 5.77086 7.20158C5.81005 7.16759 7.18743 6.80364 7.34401 6.78592C7.38684 6.7811 7.40266 6.82827 7.37911 6.89072ZM28.5887 7.30257C28.5887 7.34166 28.0364 8.61411 27.3612 10.1302C26.6861 11.6463 26.1337 12.9865 26.1337 13.1083C26.1337 13.2302 26.2342 13.4302 26.3569 13.553L26.58 13.7761H29.2668H31.9536L29.4336 17.1352C28.0475 18.9826 26.9024 20.4831 26.8887 20.4694C26.875 20.4557 27.1905 19.4667 27.5899 18.2714C27.9893 17.0762 28.316 16.0033 28.316 15.8874C28.316 15.7715 28.2155 15.5763 28.0927 15.4536L27.8696 15.2304H25.3133C22.9207 15.2304 22.7602 15.2203 22.8061 15.0714C22.8331 14.9838 23.3694 13.2353 23.9979 11.1856C24.6264 9.13586 25.1582 7.40774 25.1797 7.3452C25.209 7.25976 25.6371 7.23158 26.9038 7.23158C27.8305 7.23158 28.5887 7.26358 28.5887 7.30257ZM22.7693 10.1923C22.7693 10.221 22.5168 11.0595 22.2082 12.0557C21.6603 13.8246 21.6414 13.867 21.4015 13.867C20.9591 13.867 19.4429 14.2984 18.7577 14.6192C17.8466 15.0457 17.1228 15.5581 16.3309 16.3371C13.6019 19.0215 12.9453 23.0581 14.6775 26.5016C16.6031 30.3289 21.073 32.1892 25.1485 30.8594C27.0338 30.2442 28.6105 29.0757 29.6792 27.5014C31.3585 25.0281 31.6845 21.6943 30.5021 19.0876L30.2295 18.4866L30.787 17.7447C31.0936 17.3368 31.3751 16.9682 31.4123 16.9257C31.4496 16.8832 31.5884 17.0331 31.7207 17.2588C32.1399 17.9739 32.5734 18.1331 33.4005 17.8758L33.9537 17.7036L34.2605 18.6713L34.5673 19.6389L34.0929 19.8008C33.8319 19.8898 33.4995 20.0868 33.3541 20.2385L33.0897 20.5143L33.08 22.44C33.068 24.8136 33.082 24.8504 34.1405 25.2176L34.5668 25.3654L34.2602 26.333L33.9537 27.3006L33.3866 27.1242C32.8579 26.9597 32.794 26.9574 32.4445 27.0908C32.1237 27.2134 31.9762 27.3742 31.4192 28.2085C31.0613 28.7444 30.585 29.3992 30.3606 29.6636C30.0004 30.088 29.9527 30.1954 29.9527 30.5816C29.9527 30.9233 30.0123 31.1014 30.225 31.3949C30.3748 31.6016 30.5077 31.8084 30.5205 31.8545C30.5422 31.9332 29.0827 33.0461 28.9578 33.0461C28.9262 33.0461 28.7489 32.8433 28.5637 32.5954C28.3154 32.2628 28.1362 32.1202 27.8801 32.0513C27.5012 31.9492 27.3442 31.9822 26.4065 32.3598C26.0814 32.4908 25.4339 32.6951 24.9676 32.814C24.5012 32.9329 24.0353 33.1054 23.9321 33.1972C23.6571 33.4419 23.4968 33.8874 23.4968 34.4066V34.864H22.4966H21.4963V34.4066C21.4963 33.8874 21.336 33.4419 21.061 33.1972C20.9578 33.1054 20.4914 32.9332 20.0245 32.8147C19.5577 32.6961 18.8692 32.4703 18.4947 32.3127C17.3873 31.8465 16.8765 31.9359 16.3559 32.6868C16.219 32.8844 16.0778 33.0461 16.0423 33.0461C15.9126 33.0461 14.4501 31.9359 14.4726 31.8545C14.4854 31.8084 14.6184 31.6016 14.7681 31.3949C14.9805 31.1018 15.0404 30.9231 15.0404 30.5833C15.0404 30.1787 14.994 30.0898 14.3946 29.3471C14.0394 28.9069 13.5862 28.2733 13.3876 27.9392C12.8469 27.0297 12.4551 26.8446 11.6243 27.1064C11.3188 27.2027 11.0978 27.23 11.0492 27.1776C11.0059 27.1308 10.8495 26.699 10.7015 26.2181L10.4327 25.3438L10.8953 25.1939C11.1497 25.1115 11.4192 24.9936 11.4942 24.932C11.8931 24.6044 11.9031 24.5482 11.9131 22.5563C11.9252 20.1941 11.911 20.1569 10.8586 19.7867L10.4382 19.6389L10.7404 18.6718L11.0425 17.7046L11.5942 17.8762C12.4783 18.1513 12.8388 17.9883 13.3876 17.0651C13.5862 16.731 14.0394 16.0974 14.3946 15.6572C14.994 14.9145 15.0404 14.8256 15.0404 14.421C15.0404 14.0812 14.9805 13.9025 14.7681 13.6094C14.6184 13.4027 14.4854 13.1959 14.4726 13.1497C14.4501 13.0684 15.9126 11.9582 16.0423 11.9582C16.0778 11.9582 16.219 12.1199 16.3559 12.3175C16.8765 13.0684 17.3873 13.1577 18.4947 12.6916C18.8692 12.534 19.5577 12.3081 20.0245 12.1896C20.4914 12.0711 20.9578 11.8989 21.061 11.8071C21.336 11.5623 21.4963 11.1168 21.4963 10.5976V10.1403H22.1328C22.4829 10.1403 22.7693 10.1637 22.7693 10.1923ZM21.0741 15.814C21.0261 16.1644 21.049 16.2458 21.2536 16.4503L21.4881 16.6848H24.031H26.574L25.2627 20.6149C24.5414 22.7764 23.9514 24.6394 23.9514 24.7548C23.9514 25.2122 24.6032 25.5591 25.0258 25.3266C25.11 25.2802 26.0791 24.0343 27.1794 22.5579C28.2796 21.0814 29.206 19.8718 29.238 19.8698C29.2701 19.8678 29.3835 20.1896 29.4903 20.585C30.4444 24.1198 28.6841 27.7513 25.3158 29.1971C23.9259 29.7936 22.0639 29.9321 20.6325 29.5453C18.6338 29.0052 16.8512 27.5202 15.9509 25.6451C15.4983 24.7023 15.3242 24.0302 15.2538 22.9526C15.0449 19.7561 17.0501 16.7245 20.068 15.6744C21.1036 15.314 21.1419 15.3193 21.0741 15.814ZM38.6793 37.1794C39.0001 37.503 39.2444 37.7831 39.2222 37.802C39.1712 37.8452 37.6471 38.223 37.6225 38.1985C37.5836 38.1595 37.9946 36.591 38.0437 36.591C38.0725 36.591 38.3585 36.8558 38.6793 37.1794Z" fill="black"/>
</svg>
