<svg width="36" height="36" viewBox="0 0 36 36" fill="none" xmlns="http://www.w3.org/2000/svg">
<path fill-rule="evenodd" clip-rule="evenodd" d="M19.3361 0.0279919C19.4715 0.0437498 19.8831 0.0909531 20.2507 0.132951C22.3482 0.372414 24.8146 1.17002 26.6829 2.21292C34.0264 6.31222 37.5629 14.7208 35.3435 22.8052C35.0319 23.9397 34.5182 25.2401 33.9509 26.3299C33.4319 27.3267 33.2469 27.4928 32.6551 27.4928C32.3129 27.4928 32.2478 27.4666 31.9881 27.2245C31.7433 26.996 31.6954 26.9042 31.6669 26.6082C31.6359 26.2857 31.6748 26.1756 32.1988 25.1003C32.5097 24.4623 32.8633 23.6554 32.9845 23.3072C34.3943 19.2583 34.1438 14.8571 32.2879 11.0667C30.6932 7.80999 28.178 5.29569 24.9293 3.71104C20.0577 1.33463 14.4332 1.60216 9.71513 4.43471C9.31847 4.67284 8.99399 4.89331 8.99399 4.92461C8.99399 4.95599 9.51166 4.98159 10.1444 4.98159C11.2219 4.98159 11.3096 4.99165 11.5268 5.13987C12.1964 5.59685 12.1569 6.49927 11.449 6.91615C11.2212 7.05038 11.0837 7.05685 8.46633 7.05685C5.7688 7.05685 5.71835 7.05425 5.47626 6.90342C4.97421 6.59065 4.98378 6.65615 4.98378 3.52146C4.98378 0.714866 4.98399 0.710857 5.14377 0.473785C5.24219 0.327743 5.4306 0.183882 5.63358 0.0997465C5.92379 -0.0204776 5.999 -0.0263164 6.25931 0.0516991C6.63254 0.163482 6.91846 0.44642 7.01703 0.801464C7.05931 0.953767 7.09378 1.65366 7.094 2.36459L7.09442 3.65188L7.7452 3.20004C10.1114 1.55714 12.8189 0.513602 15.7129 0.129011C16.2999 0.0509956 18.9084 -0.0217438 19.3361 0.0279919ZM20.6193 8.64403C21.0477 8.8702 21.1651 9.18944 21.1665 10.1317L21.1677 10.926L21.6414 11.1868C21.9019 11.3303 22.2101 11.5085 22.3262 11.5828L22.5372 11.7179L23.2746 11.3044C23.7698 11.0266 24.0902 10.8908 24.25 10.8908C24.5291 10.8908 24.9659 11.1179 25.106 11.3357C25.6063 12.114 27.3651 15.2618 27.3983 15.4383C27.4542 15.7366 27.3221 16.1211 27.0874 16.3425C26.9837 16.4404 26.6354 16.6711 26.3134 16.8552L25.728 17.1899V17.9959V18.802L26.3134 19.1366C26.6354 19.3207 26.9837 19.5514 27.0874 19.6493C27.3221 19.8707 27.4542 20.2552 27.3983 20.5535C27.3509 20.8059 25.263 24.4706 25.0157 24.7355C24.5585 25.2251 24.2164 25.2156 23.2746 24.6874L22.5372 24.2739L22.3262 24.409C22.2101 24.4833 21.9019 24.6615 21.6414 24.805L21.1677 25.0658L21.1665 25.8601C21.1651 26.8154 21.0485 27.1246 20.6043 27.3512C20.3426 27.4847 20.193 27.4928 17.9994 27.4928C15.8057 27.4928 15.6561 27.4847 15.3944 27.3512C14.9485 27.1237 14.8334 26.8162 14.8334 25.851V25.0478L14.6399 24.9673C14.5336 24.9231 14.2249 24.747 13.954 24.5759L13.4615 24.2649L13.1449 24.4519C12.3575 24.9172 11.9674 25.0979 11.7474 25.0994C11.4704 25.1013 11.0332 24.8745 10.8928 24.6561C10.3925 23.8778 8.63364 20.73 8.6005 20.5535C8.54457 20.2552 8.67669 19.8707 8.91133 19.6493C9.01503 19.5514 9.36335 19.3207 9.68537 19.1366L10.2708 18.802V17.9959V17.1899L9.68537 16.8552C9.36335 16.6711 9.01503 16.4404 8.91133 16.3425C8.67669 16.1211 8.54457 15.7366 8.6005 15.4383C8.63364 15.2618 10.3925 12.114 10.8928 11.3357C11.0329 11.1179 11.4697 10.8908 11.7487 10.8908C11.9086 10.8908 12.229 11.0266 12.7241 11.3044L13.4615 11.7179L13.6726 11.5828C13.7887 11.5085 14.0968 11.3303 14.3573 11.1868L14.831 10.926L14.8322 10.1317C14.8336 9.17642 14.9503 8.86717 15.3944 8.64058C15.6566 8.50685 15.8023 8.49912 18.0142 8.50207C20.2069 8.50502 20.3731 8.51403 20.6193 8.64403ZM4.01064 8.76735C4.25547 8.99577 4.30338 9.08764 4.33181 9.3836C4.36283 9.70614 4.32407 9.81595 3.79943 10.8915C2.97361 12.5844 2.56548 13.8647 2.26352 15.7096C2.08784 16.783 2.08855 19.193 2.26493 20.2822C2.55148 22.0523 2.97305 23.4032 3.7148 24.9288C5.28476 28.1576 7.83441 30.7058 11.0695 32.2794C13.1385 33.2859 15.1058 33.7773 17.4365 33.8701C20.5157 33.9926 23.547 33.2001 26.2836 31.5571C26.6802 31.319 27.0048 31.0985 27.0048 31.0672C27.0048 31.0358 26.4871 31.0102 25.8543 31.0102C24.7768 31.0102 24.6892 31.0002 24.4719 30.8519C23.8024 30.395 23.8419 29.4925 24.5497 29.0757C24.7775 28.9414 24.9151 28.935 27.5324 28.935C30.23 28.935 30.2804 28.9376 30.5225 29.0884C31.0245 29.4012 31.015 29.3357 31.015 32.4704C31.015 35.277 31.0148 35.281 30.855 35.518C30.7566 35.6641 30.5681 35.8079 30.3652 35.8921C30.075 36.0123 29.9998 36.0181 29.7394 35.9401C29.3662 35.8283 29.0803 35.5454 28.9817 35.1903C28.9394 35.0378 28.905 34.3368 28.9048 33.6221L28.9043 32.3297L28.746 32.4438C27.339 33.4583 25.3782 34.5037 23.9795 34.985C19.7772 36.4311 15.399 36.3305 11.2453 34.6926C7.38885 33.1719 3.89716 29.9801 1.97028 26.2143C-0.0341187 22.2971 -0.533493 17.7012 0.583878 13.4544C0.931709 12.1324 1.26983 11.2451 1.92265 9.9411C2.57554 8.63714 2.71161 8.49897 3.34361 8.49897C3.68581 8.49897 3.75096 8.52522 4.01064 8.76735ZM16.9441 11.2506C16.9441 12.083 16.8044 12.3625 16.2618 12.6159C16.0566 12.7117 15.7107 12.8736 15.493 12.9755C15.2753 13.0775 14.8935 13.315 14.6445 13.5035C13.7579 14.1745 13.5896 14.1955 12.7468 13.7399C12.4248 13.5658 12.149 13.4233 12.1341 13.4233C12.1014 13.4233 11.1046 15.1446 11.1046 15.2009C11.1046 15.2225 11.3576 15.3859 11.6668 15.5643C12.1173 15.8241 12.2593 15.9476 12.3814 16.1859C12.5242 16.4646 12.5286 16.5193 12.4524 17.0499C12.4077 17.3614 12.371 17.7871 12.371 17.9959C12.371 18.2047 12.4077 18.6304 12.4524 18.9419C12.5286 19.4725 12.5242 19.5272 12.3814 19.8059C12.2593 20.0442 12.1173 20.1678 11.6668 20.4275C11.3576 20.6059 11.1046 20.7694 11.1046 20.7909C11.1046 20.8472 12.1014 22.5685 12.1341 22.5685C12.149 22.5685 12.432 22.4222 12.7629 22.2433C13.57 21.8069 13.7633 21.825 14.5395 22.4099C14.848 22.6423 15.2778 22.9155 15.4945 23.017C15.7114 23.1186 16.0566 23.2801 16.2618 23.3759C16.8044 23.6293 16.9441 23.9088 16.9441 24.7413V25.3824H17.9994H19.0547V24.7379C19.0547 24.1784 19.0778 24.054 19.2294 23.7952C19.3798 23.5387 19.4802 23.4657 19.9505 23.2718C20.5891 23.0084 21.045 22.7414 21.6024 22.3042C22.2014 21.8345 22.4619 21.8248 23.2359 22.2433C23.5667 22.4222 23.8497 22.5685 23.8647 22.5685C23.8961 22.5685 24.8941 20.8483 24.8941 20.7943C24.8941 20.7746 24.6382 20.6097 24.3254 20.428C23.8317 20.1412 23.7376 20.0545 23.612 19.7705C23.4796 19.4714 23.4742 19.3979 23.548 18.9131C23.65 18.2425 23.65 17.7493 23.548 17.0787C23.4742 16.5939 23.4796 16.5204 23.612 16.2213C23.7376 15.9373 23.8317 15.8507 24.3254 15.5638C24.6382 15.3821 24.8941 15.2172 24.8941 15.1975C24.8941 15.1368 23.894 13.4233 23.8586 13.4233C23.8403 13.4233 23.5639 13.5658 23.2444 13.7399C22.4087 14.1954 22.2406 14.1743 21.3542 13.5035C21.1052 13.315 20.7234 13.0775 20.5058 12.9755C20.2881 12.8736 19.9421 12.7117 19.7369 12.6159C19.1943 12.3625 19.0547 12.083 19.0547 11.2506V10.6094H17.9994H16.9441V11.2506ZM18.7381 14.1952C20.1306 14.5038 21.2154 15.4625 21.6701 16.7866C21.8993 17.4539 21.8993 18.5379 21.6701 19.2052C21.2744 20.3573 20.4029 21.234 19.225 21.665C18.6276 21.8836 17.3712 21.8836 16.7738 21.665C15.5959 21.234 14.7244 20.3573 14.3287 19.2052C14.0995 18.5379 14.0995 17.4539 14.3287 16.7866C14.7256 15.6307 15.6147 14.7388 16.7738 14.3335C17.2431 14.1695 18.2895 14.0958 18.7381 14.1952ZM17.4011 16.3537C16.7521 16.5748 16.2405 17.2988 16.2405 17.9959C16.2405 18.9234 17.0718 19.7546 17.9994 19.7546C18.4243 19.7546 18.9165 19.5448 19.2324 19.2288C19.9212 18.5401 19.9207 17.4511 19.2311 16.7617C18.7425 16.2731 18.0747 16.1242 17.4011 16.3537Z" fill="#511CE9"/>
</svg>
