<svg width="18" height="18" viewBox="0 0 18 18" fill="none" xmlns="http://www.w3.org/2000/svg">
<path d="M1.60577 4.73094L9 0.46188L16.3942 4.73094V13.2691L9 17.5381L1.60577 13.2691V4.73094Z" stroke="#410EAD" stroke-width="0.8"/>
<path fill-rule="evenodd" clip-rule="evenodd" d="M9.25251 5.02296C9.37477 5.05271 9.52067 5.12109 9.65134 5.20986C9.9644 5.42251 10.2835 5.90988 10.4761 6.46961L10.5224 6.6039L10.7497 6.56045C11.0829 6.49676 11.3071 6.47855 11.6398 6.48817C11.9786 6.49797 12.1481 6.52989 12.3622 6.62417C12.7498 6.79491 12.9213 7.05554 12.9023 7.44507C12.8823 7.85535 12.6123 8.34529 12.1346 8.83807C12.0501 8.92522 12.0444 8.93565 12.0709 8.9553C12.1304 8.9995 12.3926 9.27428 12.5101 9.41558C12.9007 9.8852 13.0658 10.331 12.9762 10.6743C12.8865 11.0181 12.552 11.2594 12.0213 11.3632C11.8695 11.3929 11.7897 11.3981 11.48 11.3984C11.116 11.3988 10.9232 11.3809 10.6256 11.3192C10.5647 11.3066 10.5091 11.3019 10.5018 11.3088C10.4945 11.3158 10.4714 11.3742 10.4504 11.4386C10.3579 11.7224 10.1597 12.1219 10.0035 12.3396C9.61811 12.8764 9.11525 13.1063 8.66048 12.9537C8.20241 12.7999 7.82107 12.3393 7.5486 11.6106L7.46906 11.3979L7.27928 11.4333C6.9272 11.499 6.6644 11.5213 6.34357 11.5127C6.12089 11.5067 6.01465 11.4966 5.91019 11.4718C5.5026 11.3747 5.21587 11.1486 5.11645 10.8458C5.07279 10.7128 5.07929 10.4754 5.13175 10.2879C5.21489 9.99069 5.47407 9.57834 5.79532 9.23227L5.94996 9.06566L5.89822 9.02126C5.86977 8.99683 5.78249 8.91003 5.70425 8.82836C5.23 8.33328 5.00168 7.91519 5.00002 7.53885C4.99929 7.37433 5.0225 7.27695 5.0928 7.14948C5.35863 6.66753 6.20505 6.47876 7.26744 6.66447C7.38602 6.6852 7.48804 6.697 7.49415 6.69067C7.50023 6.68435 7.52666 6.61587 7.55285 6.5385C7.6958 6.11626 7.93822 5.68874 8.1858 5.42235C8.49271 5.09211 8.90396 4.93814 9.25251 5.02296ZM8.84707 5.52206C8.57161 5.636 8.27733 6.06351 8.04587 6.68591L7.99659 6.8184L8.31125 6.91446C8.48431 6.96729 8.69755 7.03682 8.78513 7.06894L8.94435 7.12737L9.12243 7.05354C9.3383 6.96404 9.60695 6.86612 9.82808 6.79631C9.91846 6.76777 9.99928 6.73901 10.0077 6.7324C10.0315 6.71363 9.88458 6.34397 9.76534 6.12259C9.60453 5.82405 9.46952 5.65593 9.31194 5.55796C9.15488 5.4603 9.02126 5.44999 8.84707 5.52206ZM11.3676 6.95282C11.1551 6.96936 10.6944 7.04201 10.6691 7.06295C10.6604 7.07014 10.6701 7.15723 10.6916 7.26555C10.7349 7.48343 10.7959 7.89002 10.7964 7.96411C10.7968 8.02003 10.8022 8.02457 11.0735 8.19747C11.1639 8.25507 11.3346 8.37238 11.4528 8.45817L11.6677 8.61416L11.7036 8.57493C11.7233 8.55336 11.787 8.48374 11.8451 8.42024C12.0783 8.16543 12.3013 7.80915 12.3625 7.59356C12.4056 7.44174 12.3932 7.27104 12.3334 7.19519C12.2337 7.0685 12.0329 6.98089 11.7824 6.95468C11.6002 6.93561 11.5894 6.93556 11.3676 6.95282ZM6.02263 7.10173C5.67007 7.17508 5.521 7.3056 5.521 7.54095C5.521 7.68099 5.55477 7.78326 5.6632 7.9716C5.76173 8.14269 5.92476 8.34543 6.1503 8.57731L6.30392 8.73524L6.36924 8.68411C6.40515 8.65599 6.52284 8.56368 6.63074 8.47896C6.73866 8.39424 6.91286 8.26601 7.01784 8.194L7.2087 8.06307L7.23953 7.84003C7.25648 7.71737 7.29166 7.51373 7.31771 7.38752L7.36509 7.15803L7.21711 7.13421C7.07108 7.1107 6.85803 7.08365 6.72318 7.07149C6.56726 7.05743 6.14873 7.0755 6.02263 7.10173ZM9.86564 7.28264C9.73558 7.32654 9.61851 7.36775 9.60548 7.37417C9.58983 7.38191 9.66306 7.42462 9.8217 7.50026C9.95364 7.56317 10.0995 7.63484 10.1459 7.65952C10.1922 7.6842 10.2334 7.70146 10.2374 7.69786C10.2451 7.69083 10.2242 7.55941 10.1804 7.33956C10.1607 7.24058 10.1461 7.2028 10.1276 7.2028C10.1136 7.2028 9.9957 7.23873 9.86564 7.28264ZM7.82636 7.47755C7.80521 7.58004 7.78964 7.67199 7.79177 7.68189C7.79469 7.6955 8.28136 7.44901 8.31936 7.41467C8.32917 7.40582 7.90415 7.28178 7.88211 7.28706C7.8726 7.28934 7.84752 7.37506 7.82636 7.47755ZM8.77475 7.72906C8.52266 7.85082 8.16546 8.04276 7.91385 8.19167L7.70341 8.3162L7.68898 8.46678C7.68104 8.54959 7.67454 8.858 7.67454 9.15213C7.67454 9.60671 7.67843 9.69043 7.70049 9.71025C7.75447 9.75878 8.27741 10.0239 8.64715 10.1903L9.03164 10.3632L9.27851 10.2416C9.58946 10.0885 9.77688 9.98692 10.0639 9.8161L10.291 9.68089L10.3014 9.55551C10.3252 9.27033 10.3336 8.86513 10.3215 8.58911L10.3086 8.29513L10.237 8.25421C10.0164 8.12813 9.73969 7.98977 9.37954 7.82542C9.15661 7.72368 8.97063 7.64045 8.96622 7.64045C8.96181 7.64045 8.87565 7.68032 8.77475 7.72906ZM9.23997 8.27945C9.37907 8.32001 9.44332 8.35407 9.54551 8.4414C9.71003 8.582 9.80089 8.75016 9.8217 8.95255C9.84256 9.15534 9.7654 9.34914 9.60026 9.50865C9.33562 9.76428 8.90401 9.82455 8.57723 9.65149C8.46865 9.59399 8.31602 9.43832 8.25667 9.32457C8.16598 9.15071 8.14697 8.99508 8.19426 8.81379C8.26081 8.55867 8.5024 8.34391 8.80222 8.27336C8.93332 8.2425 9.12226 8.24513 9.23997 8.27945ZM10.8424 9.29551C10.849 9.30314 11.0472 9.15605 11.1917 9.03636L11.3013 8.94559L11.0793 8.78619L10.8573 8.62679L10.8473 8.95813C10.8417 9.14036 10.8396 9.29218 10.8424 9.29551ZM6.94597 8.84978C6.65644 9.07509 6.65983 9.0315 6.91757 9.21553L7.13832 9.37316L7.14216 9.32349C7.15219 9.19355 7.15435 8.7033 7.14489 8.70332C7.13899 8.70332 7.04948 8.76923 6.94597 8.84978ZM8.86375 8.7521C8.65784 8.84218 8.63125 9.10054 8.81485 9.22708C9.05272 9.39104 9.39258 9.1553 9.28508 8.90093C9.21719 8.7403 9.03658 8.6765 8.86375 8.7521ZM11.546 9.37708C11.4011 9.4985 11.101 9.72294 10.9068 9.8552L10.7833 9.93926L10.7715 10.0442C10.7568 10.1759 10.6854 10.5825 10.6517 10.7273C10.6377 10.7874 10.6282 10.8383 10.6306 10.8404C10.6466 10.8549 11.0758 10.9101 11.294 10.9258C11.8914 10.9687 12.3206 10.8597 12.4373 10.6354C12.4833 10.547 12.4873 10.3888 12.4467 10.2653C12.3942 10.1056 12.2357 9.85547 12.056 9.64896C11.9854 9.56795 11.6916 9.26601 11.6833 9.26601C11.6807 9.26601 11.6189 9.316 11.546 9.37708ZM6.20916 9.51219C5.93685 9.80433 5.69705 10.1761 5.63316 10.4053C5.60111 10.5202 5.59687 10.6767 5.62404 10.7413C5.71854 10.9659 6.10176 11.0866 6.59884 11.0484C6.82933 11.0307 7.30204 10.9588 7.32681 10.9377C7.33593 10.9299 7.33079 10.8709 7.31434 10.7947C7.27732 10.623 7.21903 10.2549 7.20481 10.1029L7.19345 9.98133L7.08072 9.90893C6.87377 9.776 6.49924 9.51859 6.42047 9.45511C6.37766 9.42062 6.33801 9.39209 6.33236 9.39173C6.32672 9.39136 6.27128 9.44558 6.20916 9.51219ZM9.91417 10.4524C9.79548 10.516 9.69166 10.5734 9.68346 10.5799C9.67526 10.5865 9.76763 10.6209 9.88869 10.6565C10.0098 10.6921 10.1131 10.7174 10.1183 10.7127C10.1278 10.7041 10.2074 10.3537 10.2082 10.3167C10.2087 10.2933 10.2253 10.2856 9.91417 10.4524ZM7.76947 10.4168C7.77962 10.4759 7.80035 10.5865 7.81552 10.6626L7.84311 10.8009L7.89147 10.7922C7.91807 10.7874 8.04694 10.7467 8.17783 10.7017C8.34319 10.645 8.40828 10.616 8.39113 10.6067C8.30568 10.5604 7.76011 10.3011 7.75601 10.3048C7.75326 10.3073 7.75932 10.3576 7.76947 10.4168ZM8.82815 10.9639C8.58475 11.0614 8.18271 11.2054 8.06626 11.2367C8.02483 11.2479 7.98763 11.2648 7.98356 11.2744C7.97014 11.306 8.11568 11.6619 8.22825 11.8728C8.46544 12.317 8.69442 12.5247 8.94591 12.5237C9.12605 12.523 9.29151 12.4255 9.46438 12.2182C9.64113 12.0062 9.76832 11.7733 9.91533 11.3924L9.99651 11.1821L9.70039 11.0924C9.53754 11.0431 9.33035 10.9748 9.23997 10.9406C9.14959 10.9065 9.06936 10.8779 9.06166 10.8772C9.05398 10.8765 8.9489 10.9155 8.82815 10.9639Z" fill="#410EAD"/>
</svg>
