<svg width="50" height="50" viewBox="0 0 50 50" fill="none" xmlns="http://www.w3.org/2000/svg">
<path d="M21.8408 37.0189C23.6093 35.2683 24.6039 32.8998 24.608 30.4296C24.608 27.8619 23.5729 25.3994 21.7304 23.5837C19.888 21.7681 17.389 20.748 14.7833 20.748C12.1776 20.748 9.67876 21.7681 7.83629 23.5837C5.99381 25.3994 4.95871 27.8619 4.95871 30.4296C4.96252 32.9113 5.96614 35.2899 7.74904 37.0426C5.57688 37.9098 3.69728 39.3637 2.32643 41.2369C0.955586 43.1101 0.149175 45.3266 6.42198e-06 47.6315C-0.00136616 48.1784 0.217334 48.7037 0.608139 49.0921C0.998944 49.4806 1.53004 49.7005 2.08511 49.7039H2.12711C2.6768 49.7069 3.20617 49.499 3.60303 49.1242C3.99989 48.7494 4.2331 48.237 4.25337 47.6957C4.27482 46.906 4.76053 39.9809 14.7937 39.9217C24.9186 39.8836 25.7767 47.2433 25.8462 48.0711C25.8852 48.5978 26.126 49.0902 26.52 49.4482C26.9139 49.8063 27.4314 50.0032 27.9673 49.999C28.0119 49.999 28.0531 49.999 28.102 49.999C28.3781 49.9851 28.6487 49.9177 28.8982 49.8006C29.1478 49.6834 29.3715 49.5188 29.5563 49.3163C29.7412 49.1138 29.8836 48.8773 29.9755 48.6204C30.0674 48.3635 30.1069 48.0912 30.0918 47.8192C29.8727 45.4406 28.9843 43.1695 27.5266 41.2614C26.069 39.3534 24.0999 37.8841 21.8408 37.0189ZM14.7851 25.0485C15.5122 25.033 16.2352 25.1607 16.9116 25.4241C17.5879 25.6876 18.2041 26.0815 18.7239 26.5827C19.2437 27.084 19.6567 27.6825 19.9387 28.3431C20.2207 29.0038 20.366 29.7133 20.366 30.43C20.366 31.1467 20.2207 31.8562 19.9387 32.5168C19.6567 33.1775 19.2437 33.776 18.7239 34.2773C18.2041 34.7786 17.5879 35.1725 16.9116 35.4359C16.2352 35.6994 15.5122 35.8271 14.7851 35.8115C14.058 35.8271 13.335 35.6994 12.6586 35.4359C11.9822 35.1725 11.366 34.7786 10.8462 34.2773C10.3263 33.776 9.91333 33.1775 9.63136 32.5168C9.34939 31.8562 9.20422 31.1467 9.20422 30.43C9.20422 29.7133 9.34939 29.0038 9.63136 28.3431C9.91333 27.6825 10.3263 27.084 10.8462 26.5827C11.366 26.0815 11.9822 25.6876 12.6586 25.4241C13.335 25.1607 14.058 25.033 14.7851 25.0485Z" fill="#F37E12"/>
<path d="M50 2.05561C49.9973 1.783 49.9402 1.51358 49.8318 1.26275C49.7235 1.01191 49.5661 0.784575 49.3685 0.593698C49.171 0.402822 48.9372 0.252185 48.6806 0.150332C48.424 0.0484786 48.1496 -0.00257786 47.8729 0.000100145H16.5954C16.3187 -0.00257786 16.0443 0.0484786 15.7877 0.150332C15.5311 0.252185 15.2973 0.402822 15.0998 0.593698C14.9022 0.784575 14.7448 1.01191 14.6365 1.26275C14.5281 1.51358 14.471 1.783 14.4683 2.05561V17.0481C14.4683 17.604 14.6924 18.1371 15.0913 18.5302C15.4902 18.9233 16.0312 19.1442 16.5954 19.1442C17.1595 19.1442 17.7006 18.9233 18.0995 18.5302C18.4984 18.1371 18.7225 17.604 18.7225 17.0481V4.11116H45.751V28.4207C45.7544 28.487 45.7613 28.553 45.7716 28.6186C45.0617 30.8767 43.5466 32.8055 41.5062 34.0487C42.1526 32.0614 42.2295 29.9368 41.7284 27.9092C41.7156 27.8635 41.6941 27.8246 41.6787 27.7789C41.656 27.7079 41.6293 27.6382 41.5989 27.5701C41.5714 27.5118 41.5379 27.4576 41.5053 27.401C41.4727 27.3443 41.4342 27.2809 41.3921 27.2243C41.3537 27.1743 41.3127 27.1263 41.2694 27.0805C41.2204 27.0264 41.1725 26.9731 41.1193 26.9241C41.0661 26.875 41.0335 26.8547 40.9897 26.8209C40.9251 26.7703 40.8577 26.7232 40.788 26.6797C40.7493 26.6569 40.7099 26.6383 40.6704 26.618C40.5873 26.5736 40.5014 26.5346 40.4131 26.5013C40.3788 26.4886 40.3427 26.481 40.3075 26.47C40.2113 26.4391 40.1129 26.4151 40.0132 26.3981C39.9789 26.3931 39.9445 26.3914 39.9102 26.388C39.8293 26.3754 39.7476 26.3674 39.6656 26.3643H29.455C28.9018 26.3643 28.3712 26.5809 27.98 26.9664C27.5888 27.3519 27.369 27.8747 27.369 28.4199C27.369 28.965 27.5888 29.4878 27.98 29.8733C28.3712 30.2588 28.9018 30.4754 29.455 30.4754H37.7891C37.8585 31.5443 37.6063 32.6097 37.0641 33.538C36.7177 34.0044 36.2758 34.3939 35.7668 34.6812C35.2579 34.9685 34.6933 35.147 34.1098 35.2054C33.051 35.3931 30.5696 35.8311 30.6305 37.9314C30.6442 38.3956 30.8733 39.9329 33.2587 40.2212C33.6136 40.2615 33.9706 40.2807 34.3278 40.2787C38.5176 40.2787 47.4139 38.0803 49.9185 29.5698C49.9285 29.1855 49.9556 28.8018 50 28.4199V2.05561Z" fill="#F37E12"/>
<path d="M24.6163 11.8248H35.7461C36.0251 11.8327 36.3028 11.7854 36.5629 11.6856C36.8229 11.5859 37.06 11.4357 37.2601 11.2441C37.4603 11.0524 37.6194 10.8232 37.728 10.5698C37.8367 10.3165 37.8927 10.0443 37.8927 9.76929C37.8927 9.49428 37.8367 9.22206 37.728 8.96875C37.6194 8.71543 37.4603 8.48614 37.2601 8.29448C37.06 8.10283 36.8229 7.95268 36.5629 7.85292C36.3028 7.75317 36.0251 7.70585 35.7461 7.71374H24.6163C24.3374 7.70585 24.0597 7.75317 23.7996 7.85292C23.5396 7.95268 23.3024 8.10283 23.1023 8.29448C22.9021 8.48614 22.743 8.71543 22.6344 8.96875C22.5257 9.22206 22.4697 9.49428 22.4697 9.76929C22.4697 10.0443 22.5257 10.3165 22.6344 10.5698C22.743 10.8232 22.9021 11.0524 23.1023 11.2441C23.3024 11.4357 23.5396 11.5859 23.7996 11.6856C24.0597 11.7854 24.3374 11.8327 24.6163 11.8248Z" fill="#F37E12"/>
<path d="M24.6163 18.2857H35.7461C36.0251 18.2936 36.3028 18.2463 36.5629 18.1465C36.8229 18.0468 37.06 17.8966 37.2601 17.705C37.4603 17.5133 37.6194 17.2841 37.728 17.0308C37.8367 16.7775 37.8927 16.5052 37.8927 16.2302C37.8927 15.9552 37.8367 15.683 37.728 15.4297C37.6194 15.1764 37.4603 14.9471 37.2601 14.7554C37.06 14.5638 36.8229 14.4136 36.5629 14.3139C36.3028 14.2141 36.0251 14.1668 35.7461 14.1747H24.6163C24.3374 14.1668 24.0597 14.2141 23.7996 14.3139C23.5396 14.4136 23.3024 14.5638 23.1023 14.7554C22.9021 14.9471 22.743 15.1764 22.6344 15.4297C22.5257 15.683 22.4697 15.9552 22.4697 16.2302C22.4697 16.5052 22.5257 16.7775 22.6344 17.0308C22.743 17.2841 22.9021 17.5133 23.1023 17.705C23.3024 17.8966 23.5396 18.0468 23.7996 18.1465C24.0597 18.2463 24.3374 18.2936 24.6163 18.2857Z" fill="#F37E12"/>
</svg>
