<svg width="46" height="46" viewBox="0 0 46 46" fill="none" xmlns="http://www.w3.org/2000/svg">
<path fill-rule="evenodd" clip-rule="evenodd" d="M16.2041 0.155326C16.0015 0.24774 15.7385 0.459744 15.6198 0.626306C15.4234 0.902018 15.4013 1.03448 15.374 2.09881C15.3563 2.78756 15.3848 3.40521 15.4435 3.60129C15.5684 4.01837 16.0991 4.46973 16.5501 4.54235L16.8871 4.5967V6.11303V7.62936L8.9994 7.65375C0.183717 7.68101 0.811321 7.63278 0.284842 8.32305C0.0411529 8.6425 0.032164 8.69289 0.00834341 9.87538C-0.0144884 11.008 -0.00127471 11.1233 0.188121 11.449C0.436035 11.8754 0.762152 12.1296 1.16764 12.2125L1.4712 12.2747L1.51614 22.1693L1.56109 32.064L1.77035 32.4893C2.00577 32.9679 2.37845 33.3184 2.90942 33.5607C3.24902 33.7156 3.73172 33.7248 11.6021 33.7267L19.9352 33.7287L19.9774 34.0211C20.2873 36.1748 20.5651 37.2045 21.2054 38.5721C22.4142 41.1546 24.8631 43.6062 27.4096 44.7835C29.3007 45.6577 30.9265 46.0073 33.0672 45.9999C34.6748 45.9944 35.6761 45.8378 37.0766 45.3731C40.6323 44.1931 43.5939 41.4191 45.0326 37.9211C47.3754 32.2253 45.3472 25.6025 40.1993 22.1379C39.4963 21.6648 38.2324 21.0305 37.4492 20.7578L36.8425 20.5466V12.5788V4.611L37.2344 4.50608C37.714 4.37767 38.1415 3.92136 38.2861 3.3837C38.3458 3.1618 38.374 2.60399 38.3532 2.05526C38.3125 0.978685 38.1978 0.676067 37.6811 0.281574L37.3509 0.0294375L26.9617 0.00829108C16.9835 -0.0119555 16.558 -0.00619644 16.2041 0.155326ZM36.8425 2.27905V3.04392H26.8648H16.8871V2.27905V1.51418H26.8648H36.8425V2.27905ZM35.2925 12.3823L35.3154 20.1461L34.7082 20.076C33.631 19.9519 31.3835 20.0035 30.526 20.1723C25.5293 21.1558 21.5919 24.8649 20.3621 29.7474C20.2366 30.2456 20.1089 30.9099 20.0783 31.2236C19.9761 32.2737 20.0451 32.1989 19.1776 32.1989H18.4153V18.3859V4.57276L26.8424 4.59571L35.2694 4.61865L35.2925 12.3823ZM21.6018 7.03987C21.2292 7.20229 20.8681 7.65312 20.7455 8.10853C20.6874 8.32476 20.6593 8.8895 20.6799 9.43166C20.7206 10.508 20.8353 10.8107 21.3517 11.2053C21.6686 11.4477 21.7278 11.4587 22.8702 11.4867C23.9114 11.5125 24.1018 11.4941 24.4056 11.3389C24.8444 11.1147 25.0521 10.8845 25.2065 10.4511C25.3524 10.0418 25.3752 8.54036 25.2429 8.06336C25.1239 7.6344 24.7516 7.19248 24.3775 7.036C23.9833 6.87115 21.9824 6.87394 21.6018 7.03987ZM29.2181 7.06462C29.0539 7.1456 28.8112 7.35392 28.6788 7.52759C28.4473 7.83102 28.4369 7.89292 28.4133 9.11051C28.3905 10.2883 28.4032 10.403 28.5935 10.7376C28.9336 11.3356 29.3847 11.5025 30.6621 11.5025C31.8336 11.5025 32.1516 11.417 32.5445 10.9961C32.9105 10.6044 32.9773 10.3248 32.9773 9.18546C32.9773 7.90966 32.8222 7.49078 32.2192 7.13696C31.8656 6.92955 31.7533 6.91344 30.6772 6.91533C29.7873 6.91686 29.4469 6.95169 29.2181 7.06462ZM23.7897 9.18537L23.7637 9.92775H22.9996H22.2355L22.2095 9.18537L22.1833 8.443H22.9996H23.8159L23.7897 9.18537ZM31.4492 9.20787V9.97274H30.6851H29.921V9.20787V8.443H30.6851H31.4492V9.20787ZM16.8683 9.95024L16.8944 10.6926H9.20524H1.51614V9.92721V9.16189L9.17917 9.18483L16.8422 9.20787L16.8683 9.95024ZM16.8871 22.2556V32.1989H15.359H13.8309L13.827 29.8368C13.8221 26.9138 13.7522 26.6469 12.8871 26.2493C12.5655 26.1014 12.2592 26.0838 9.9853 26.082C7.89754 26.0803 7.38391 26.1047 7.11209 26.2184C6.66642 26.4048 6.46597 26.5967 6.26956 27.0248C6.12259 27.3452 6.10425 27.6493 6.10245 29.7919L6.10048 32.1989H4.8494C4.1613 32.1989 3.5328 32.1737 3.4528 32.1431C3.03607 31.983 3.04425 32.188 3.04425 21.9452V12.3123H9.9657H16.8871V22.2556ZM21.6063 13.2015C20.8913 13.5301 20.672 14.0158 20.6669 15.2818C20.6629 16.2775 20.7602 16.7001 21.0812 17.082C21.4822 17.5591 21.704 17.6214 22.9996 17.6214C24.2952 17.6214 24.517 17.5591 24.918 17.082C25.239 16.7001 25.3363 16.2775 25.3323 15.2818C25.325 13.4802 24.8639 13.0362 22.9996 13.0362C22.1869 13.0362 21.889 13.0715 21.6063 13.2015ZM29.1936 13.2414C28.5289 13.5925 28.3962 13.9367 28.3944 15.3132C28.3928 16.6312 28.485 16.9366 29.005 17.334C29.3101 17.5673 29.3698 17.5773 30.5878 17.601C31.7652 17.6239 31.8783 17.6113 32.2065 17.421C32.4237 17.2951 32.6396 17.0642 32.7683 16.8199C32.953 16.4694 32.9773 16.2994 32.9773 15.3548C32.9773 14.1768 32.8922 13.8592 32.4715 13.4654C32.0795 13.0984 31.8008 13.0322 30.6484 13.0322C29.7139 13.0322 29.5433 13.0568 29.1936 13.2414ZM5.39476 13.9947C5.22909 14.0764 4.98639 14.3054 4.85542 14.5035C4.63771 14.8328 4.61452 14.9553 4.58513 15.9343C4.54836 17.1604 4.67241 17.6425 5.12222 18.0214C5.53481 18.3689 5.96438 18.455 7.10481 18.4188C8.04208 18.389 8.16963 18.3641 8.49773 18.1468C9.06331 17.7721 9.1567 17.4775 9.1567 16.0689C9.1567 14.959 9.13971 14.8333 8.95229 14.5549C8.83993 14.3879 8.61143 14.1592 8.4446 14.0467C8.16559 13.8585 8.04343 13.8423 6.91865 13.8441C5.96681 13.8457 5.62928 13.8791 5.39476 13.9947ZM11.4868 14.0467C10.8158 14.4993 10.6125 15.1748 10.714 16.6148C10.7573 17.2288 10.8134 17.4461 11.0019 17.7313C11.3669 18.2834 11.7846 18.4273 13.0219 18.4273C14.9171 18.4273 15.3541 17.9887 15.3483 16.0917C15.3445 14.8454 15.1786 14.4181 14.55 14.0346C14.2697 13.8637 14.1021 13.8427 13.0128 13.8424C11.8895 13.8421 11.7654 13.8587 11.4868 14.0467ZM23.7897 15.3493L23.8159 16.0917H23.0032H22.1906V15.3868C22.1906 14.9991 22.2191 14.6535 22.2539 14.6186C22.2887 14.5837 22.6426 14.5669 23.0404 14.5811L23.7637 14.6069L23.7897 15.3493ZM31.4492 15.3268V16.0917H30.6851H29.921V15.3268V14.562H30.6851H31.4492V15.3268ZM7.62859 16.1367V16.9016H6.86453H6.10048V16.1367V15.3718H6.86453H7.62859V16.1367ZM13.812 16.1142L13.786 16.8566L13.0444 16.8827L12.3028 16.9088V16.1403V15.3718H13.0705H13.8382L13.812 16.1142ZM5.5162 20.0851C5.14253 20.2569 4.76545 20.6808 4.66046 21.0471C4.54648 21.4449 4.54747 23.0621 4.66189 23.4744C4.7623 23.8362 5.21309 24.3127 5.58946 24.4548C5.72861 24.5072 6.32691 24.5503 6.91892 24.5503C8.14167 24.5503 8.5291 24.4232 8.90196 23.8999C9.0927 23.6321 9.11436 23.4942 9.14079 22.381C9.17441 20.9624 9.09486 20.6689 8.56685 20.2654C8.23579 20.0123 8.19804 20.0055 7.00674 19.9836C6.11971 19.9672 5.71216 19.995 5.5162 20.0851ZM11.6242 20.0876C11.2971 20.2302 10.8908 20.6909 10.7972 21.0253C10.76 21.1576 10.7306 21.7517 10.7316 22.3456C10.7336 23.5719 10.8206 23.8301 11.374 24.2531C11.6884 24.4935 11.7567 24.5067 12.8338 24.5356C13.4894 24.5531 14.1022 24.5243 14.2935 24.4669C14.6956 24.3463 15.1366 23.8638 15.2638 23.4054C15.3847 22.969 15.3856 21.5454 15.2652 21.1111C15.1462 20.6822 14.774 20.2403 14.3998 20.0838C14.0057 19.9189 12.0047 19.9217 11.6242 20.0876ZM7.62859 22.2556V23.0205H6.86453H6.10048V22.2556V21.4908H6.86453H7.62859V22.2556ZM13.8309 22.2556V23.0205H13.0669H12.3028V22.2556V21.4908H13.0669H13.8309V22.2556ZM34.6927 21.6219C38.9044 22.2574 42.5141 25.2841 43.8508 29.3004C44.3062 30.6688 44.4331 31.4772 44.4331 33.0088C44.4331 35.0246 44.1188 36.3687 43.2233 38.1829C42.0983 40.4618 39.965 42.497 37.6238 43.5248C31.974 46.0053 25.4324 43.6302 22.6624 38.0929C21.0911 34.9518 21.0798 31.2381 22.632 28.0147C23.79 25.6097 25.5893 23.8089 27.9884 22.6536C30.1404 21.6174 32.3797 21.2728 34.6927 21.6219ZM31.3593 23.1528C27.7196 23.7577 24.6358 26.4116 23.4901 29.9248C22.7055 32.331 22.9127 35.196 24.032 37.4181C25.0139 39.3675 26.6938 41.0352 28.6099 41.9633C31.7997 43.508 35.481 43.2716 38.4629 41.3302C39.29 40.7918 40.7236 39.3736 41.2352 38.5879C42.1758 37.1432 42.7031 35.6562 42.8811 33.9466C43.3999 28.9641 39.98 24.3123 35.0044 23.233C34.1048 23.0378 32.2911 22.9979 31.3593 23.1528ZM34.3363 24.6823C36.1384 24.9983 37.5292 25.7041 38.8512 26.9736C39.9745 28.0523 40.8233 29.5639 41.2176 31.1878C41.4431 32.1164 41.4226 33.924 41.1752 34.9231C40.7754 36.5378 40.0612 37.8158 38.9202 38.958C36.1849 41.6962 31.9514 42.2253 28.6482 40.2418C27.3469 39.4603 26.0844 38.0989 25.4038 36.7432C24.3205 34.5854 24.2748 31.7293 25.2884 29.5331C25.9386 28.1243 27.0733 26.7914 28.3307 25.9591C30.0874 24.7964 32.3016 24.3256 34.3363 24.6823ZM32.6362 26.1709C32.3693 26.2825 32.1686 26.7711 32.1667 27.3144L32.1652 27.7447L31.6756 27.9569C31.0935 28.2091 30.4395 28.8703 30.1708 29.4784C29.7586 30.4114 29.8945 31.7062 30.4862 32.4828C31.0894 33.2745 31.8288 33.656 32.9953 33.7772C33.639 33.8441 34.0399 34.1043 34.3031 34.6258C34.5522 35.1194 34.5596 35.5191 34.3281 35.9734C34.1103 36.4007 33.7826 36.668 33.3251 36.7913C32.4316 37.0322 31.4492 36.2744 31.4492 35.3444C31.4492 35.0133 31.027 34.5385 30.7325 34.5385C30.4153 34.5385 30.0173 34.7968 29.9557 35.0426C29.8614 35.4187 29.9901 36.1588 30.238 36.666C30.5117 37.226 31.1971 37.8734 31.7631 38.1063C32.1628 38.2709 32.1676 38.2779 32.1679 38.7032C32.1686 39.595 32.6445 40.0974 33.2504 39.8462C33.6132 39.6957 33.6964 39.5138 33.6964 38.8703V38.3311L34.1791 38.1099C34.8636 37.7962 35.3562 37.3131 35.6955 36.6226C35.9584 36.0878 35.9881 35.9476 35.9846 35.26C35.9812 34.5999 35.9446 34.4213 35.721 33.9725C35.2259 32.9788 34.4156 32.4333 33.1527 32.2433C32.2376 32.1056 32.0777 32.0341 31.7631 31.6212C31.1194 30.7762 31.5477 29.5168 32.577 29.2283C33.5086 28.9671 34.5054 29.714 34.5054 30.6733C34.5054 31.0303 34.9309 31.4791 35.2694 31.4791C35.4156 31.4791 35.6143 31.3725 35.7828 31.204C36.041 30.9455 36.0547 30.8976 36.0105 30.4096C35.9142 29.3463 35.2074 28.379 34.184 27.91L33.6964 27.6865V27.1181C33.6964 26.7092 33.6522 26.4967 33.5391 26.3602C33.3546 26.1378 32.9287 26.0485 32.6362 26.1709ZM12.2819 29.9268L12.3059 32.1989H9.96723H7.62859V29.9028V27.6067L9.94323 27.6307L12.2579 27.6547L12.2819 29.9268Z" fill="#FF66A8"/>
</svg>
