<svg width="18" height="18" viewBox="0 0 18 18" fill="none" xmlns="http://www.w3.org/2000/svg">
<path d="M1.60577 4.73094L9 0.46188L16.3942 4.73094V13.2691L9 17.5381L1.60577 13.2691V4.73094Z" stroke="#410EAD" stroke-width="0.8"/>
<path d="M5 9.25748C5.03557 9.17757 5.07931 9.10135 5.13056 9.02997C5.17403 8.9812 5.22821 8.94256 5.28911 8.91692C5.35001 8.89127 5.41605 8.87928 5.48236 8.88182H5.83416C5.90108 8.87661 5.96839 8.88514 6.0317 8.90686C6.09501 8.92859 6.15291 8.96302 6.20165 9.00793C6.25039 9.05284 6.28887 9.10721 6.3146 9.16752C6.34032 9.22783 6.35272 9.29273 6.35098 9.35801C6.35098 9.37212 6.35098 9.38623 6.35098 9.41621C6.4489 9.41621 6.54683 9.41621 6.64475 9.41621C6.74267 9.41621 6.84241 9.43032 6.94759 9.43737V8.3492L6.85873 8.43033L6.57403 8.69311C6.4865 8.77403 6.3695 8.81782 6.24877 8.81484C6.12804 8.81187 6.01348 8.76237 5.93027 8.67724C5.84707 8.59211 5.80205 8.47832 5.80511 8.3609C5.80817 8.24349 5.85906 8.13206 5.94659 8.05114C6.26756 7.75132 6.59397 7.45679 6.91857 7.16932C6.9391 7.15183 6.95531 7.13006 6.96599 7.10563C6.97666 7.0812 6.98153 7.05474 6.98023 7.02822C6.98023 6.67549 6.98023 6.32276 6.98023 5.97003C6.98023 5.76898 7.05276 5.7002 7.26131 5.7002H7.84159C8.0592 5.7002 8.12629 5.76545 8.12992 5.98238V6.06351L8.20246 6.00002L9.10916 5.16757C9.15303 5.11521 9.20834 5.07301 9.27107 5.04402C9.3338 5.01504 9.40238 5 9.47183 5C9.54129 5 9.60987 5.01504 9.6726 5.04402C9.73533 5.07301 9.79064 5.11521 9.83451 5.16757L11.6171 6.7919C11.6264 6.7986 11.6349 6.80629 11.6425 6.81482C11.7168 6.88361 11.7277 6.95944 11.6733 7.01588C11.6189 7.07232 11.5427 7.0635 11.4648 6.99472L9.66224 5.35276C9.51717 5.22048 9.43194 5.22225 9.28687 5.35276L6.15876 8.20105C6.12825 8.22753 6.10143 8.25777 6.07897 8.291C6.05861 8.32581 6.04993 8.36594 6.05416 8.40578C6.05839 8.44562 6.0753 8.48318 6.10254 8.51322C6.13122 8.5445 6.16987 8.56551 6.21229 8.57287C6.25471 8.58022 6.29845 8.5735 6.33647 8.55378C6.37832 8.52787 6.41722 8.49772 6.45253 8.46384L9.3177 5.83776C9.45007 5.71607 9.48453 5.71607 9.61691 5.83776L12.5183 8.48324C12.5426 8.51319 12.5743 8.53666 12.6105 8.55146C12.6466 8.56627 12.6861 8.57192 12.7251 8.56789C12.7589 8.56449 12.7911 8.55234 12.8185 8.53271C12.8459 8.51309 12.8673 8.48669 12.8806 8.45627C12.894 8.42586 12.8987 8.39252 12.8943 8.35974C12.8899 8.32695 12.8765 8.29591 12.8556 8.26983C12.8342 8.23902 12.8086 8.21114 12.7795 8.18694L12.1266 7.59083C12.1016 7.57056 12.079 7.54747 12.0596 7.52205C12.0408 7.49954 12.0316 7.47087 12.034 7.44198C12.0363 7.41308 12.05 7.38618 12.0722 7.36685C12.0911 7.34643 12.1168 7.33325 12.1447 7.3297C12.1727 7.32614 12.201 7.33243 12.2246 7.34745C12.2378 7.35404 12.25 7.36234 12.2608 7.37214C12.5147 7.60317 12.7722 7.83245 13.0206 8.0776C13.1014 8.15799 13.1466 8.26592 13.1466 8.3783C13.1466 8.49068 13.1014 8.59861 13.0206 8.679C12.943 8.76262 12.8352 8.81388 12.7197 8.82209C12.6041 8.83031 12.4898 8.79484 12.4005 8.72309C12.279 8.62609 12.1684 8.51675 12.0523 8.41269L11.9798 8.35273V10.6596L12.0704 10.6014C12.415 10.3792 12.7559 10.1534 13.1004 9.93296C13.1645 9.88543 13.2384 9.85204 13.3171 9.8351C13.3957 9.81816 13.4772 9.81808 13.5559 9.83486C13.6346 9.85164 13.7086 9.88489 13.7727 9.93228C13.8369 9.97968 13.8896 10.0401 13.9273 10.1093C13.9869 10.2086 14.0109 10.3243 13.9954 10.4383C13.98 10.5523 13.9261 10.658 13.8421 10.7389C13.5701 10.9894 13.289 11.231 13.0098 11.4744C12.7305 11.7178 12.4494 11.9523 12.1829 12.2028C11.9085 12.4534 11.5565 12.6085 11.1819 12.6437C10.3822 12.746 9.58245 12.8624 8.78456 12.9788C8.53599 13.0226 8.27977 12.9982 8.04469 12.9082C7.48979 12.6931 6.92583 12.4938 6.35642 12.2839C6.35642 12.3139 6.34373 12.3403 6.3401 12.3668C6.32661 12.4682 6.27689 12.5617 6.19965 12.631C6.1224 12.7003 6.02256 12.741 5.91758 12.746C5.76297 12.7548 5.60796 12.7548 5.45335 12.746C5.35416 12.7451 5.25797 12.7128 5.1794 12.6539C5.10084 12.595 5.04421 12.5128 5.01813 12.4197C5.01319 12.4069 5.00712 12.3945 5 12.3827V12.044C5.01193 12.0128 5.03555 11.9871 5.06615 11.972C5.09675 11.957 5.13206 11.9537 5.16502 11.9629C5.24662 11.9858 5.2575 12.0546 5.2575 12.1269C5.2575 12.1992 5.2575 12.2239 5.2575 12.2716C5.25427 12.3031 5.25838 12.335 5.26953 12.3648C5.28068 12.3947 5.29858 12.4217 5.32192 12.4439C5.34525 12.466 5.37342 12.4828 5.40433 12.493C5.43524 12.5032 5.46811 12.5065 5.5005 12.5026H5.83416C5.86929 12.5078 5.90519 12.5048 5.93891 12.494C5.97264 12.4831 6.00323 12.4646 6.02818 12.4399C6.05312 12.4153 6.07172 12.3853 6.08244 12.3524C6.09316 12.3194 6.0957 12.2845 6.08985 12.2504C6.08985 11.97 6.08985 11.6913 6.08985 11.4127C6.08985 10.7372 6.08985 10.0617 6.08985 9.38799C6.08985 9.21162 6.01369 9.13402 5.82872 9.13226H5.54765C5.3246 9.13226 5.2575 9.19752 5.2575 9.41092V11.2416C5.2575 11.3121 5.2575 11.3809 5.17046 11.418C5.08342 11.455 5.04533 11.4021 5 11.3509V9.25748ZM6.35642 9.66841C6.3552 9.6819 6.3552 9.69548 6.35642 9.70897C6.35642 10.4591 6.35642 11.2087 6.35642 11.9576C6.35642 12.0158 6.39087 12.0264 6.43258 12.0423C7.03826 12.2645 7.64393 12.492 8.25505 12.7089C8.3641 12.7472 8.48077 12.7605 8.59596 12.7477C9.47365 12.6313 10.3568 12.5026 11.2363 12.3827C11.4965 12.3524 11.7406 12.2439 11.9344 12.0723C12.3914 11.6684 12.852 11.268 13.3126 10.8659C13.425 10.7672 13.5411 10.6702 13.6499 10.5679C13.6937 10.5268 13.7231 10.4734 13.7342 10.4152C13.7452 10.357 13.7373 10.297 13.7116 10.2434C13.688 10.1891 13.647 10.1438 13.5946 10.1142C13.5423 10.0847 13.4815 10.0724 13.4214 10.0793C13.3523 10.0904 13.2867 10.1163 13.2292 10.1552C12.658 10.522 12.0904 10.8959 11.5192 11.2627C11.4648 11.2956 11.4019 11.3127 11.3378 11.3121C10.8645 11.2804 10.393 11.2451 9.91974 11.2081C9.29231 11.1569 8.66487 11.1023 8.03925 11.0493C7.94133 11.0493 7.8833 10.9894 7.88693 10.9171C7.89055 10.8448 7.95584 10.7901 8.05739 10.7989L8.6957 10.8536L10.6034 11.0176C10.6397 11.0176 10.6777 11.0176 10.714 11.0176C10.7152 10.8887 10.6679 10.7638 10.5811 10.6664C10.4943 10.5689 10.3739 10.5057 10.2425 10.4885C9.87985 10.4444 9.52805 10.4003 9.169 10.3686C8.66569 10.3359 8.17623 10.1943 7.73641 9.95412C7.31525 9.72913 6.83529 9.62976 6.35642 9.66841ZM8.62679 10.0582V9.93825C8.62679 9.51321 8.62679 9.08993 8.62679 8.66489C8.62679 8.48853 8.71202 8.40211 8.86797 8.40211C9.27055 8.40211 9.67131 8.40211 10.0721 8.40211C10.1196 8.39963 10.1667 8.41175 10.2067 8.43676C10.2467 8.46176 10.2777 8.49839 10.2951 8.54144C10.311 8.5868 10.3177 8.63469 10.3151 8.68253C10.3151 9.1787 10.3151 9.67429 10.3151 10.1693C10.3151 10.2116 10.3151 10.2504 10.3713 10.2681C10.5373 10.3086 10.6854 10.4002 10.7936 10.5292C10.9017 10.6582 10.9642 10.8178 10.9715 10.9841C10.9715 11.0264 10.9842 11.0493 11.0368 11.0546C11.3414 11.0846 11.3414 11.0864 11.5953 10.9206C11.6162 10.9047 11.638 10.89 11.6606 10.8765C11.6846 10.8669 11.7045 10.8496 11.717 10.8274C11.7296 10.8053 11.734 10.7797 11.7295 10.7548C11.7295 9.89768 11.7295 9.04055 11.7295 8.18342C11.7304 8.15824 11.7253 8.13322 11.7146 8.11028C11.7039 8.08734 11.6879 8.06711 11.6679 8.05114L9.5208 6.09173C9.50411 6.0761 9.48656 6.06138 9.46821 6.04764L9.42287 6.08291C8.69751 6.74486 7.97578 7.40741 7.25768 8.07054C7.2311 8.09836 7.21622 8.13486 7.21597 8.17283C7.21597 8.53967 7.21597 8.90828 7.21597 9.27512V9.49204C7.51988 9.57288 7.81181 9.69143 8.08459 9.84477C8.24961 9.92943 8.43095 9.98234 8.62679 10.0582ZM10.0521 10.2151V8.65255H8.87885V10.0829L10.0521 10.2151ZM7.23592 6.86421C7.44808 6.6702 7.64574 6.49031 7.84159 6.30866C7.84812 6.30314 7.85341 6.29638 7.85715 6.2888C7.8609 6.28121 7.86301 6.27297 7.86335 6.26456C7.86335 6.15875 7.86335 6.05116 7.86335 5.94182H7.23592V6.86421Z" fill="#410EAD"/>
</svg>
