<svg width="38" height="38" viewBox="0 0 38 38" fill="none" xmlns="http://www.w3.org/2000/svg">
<path d="M19 38C29.4934 38 38 29.4934 38 19C38 8.50661 29.4934 0 19 0C8.50659 0 0 8.50661 0 19C0 29.4934 8.50659 38 19 38Z" fill="url(#paint0_linear_2702_2)"/>
<path fill-rule="evenodd" clip-rule="evenodd" d="M16.3998 9.05698C14.6121 9.45071 13.6605 11.3909 14.4413 13.0503C14.5249 13.2277 14.6688 13.4679 14.7613 13.584C14.9725 13.8493 18.7641 17.3115 18.8999 17.3631C18.9626 17.3869 19.0372 17.3869 19.0995 17.3631C19.2177 17.3179 22.8604 14.0113 23.1497 13.6866C23.8232 12.9307 24.0228 11.6993 23.6255 10.7516C23.4009 10.2156 22.9434 9.68174 22.4669 9.39925C21.4575 8.8009 20.2618 8.88748 19.2923 9.62916L19 9.85274L18.7077 9.62916C18.0141 9.09856 17.1659 8.88829 16.3998 9.05698ZM17.6294 9.76163C17.9321 9.86298 18.1758 10.0158 18.5884 10.3631C18.9732 10.6869 19.0269 10.6868 19.4116 10.3627C20.0601 9.81616 20.3954 9.67053 21.0156 9.6663C21.3591 9.66392 21.4903 9.6811 21.7117 9.75728C22.9902 10.1975 23.5608 11.6635 22.9248 12.8742C22.8451 13.026 22.6868 13.2457 22.573 13.3625C22.2731 13.6703 19.0396 16.5991 18.9997 16.5991C18.9611 16.5991 15.6916 13.6339 15.4065 13.3402C15.049 12.9722 14.8094 12.3701 14.8081 11.8368C14.8073 11.5124 14.9365 11.02 15.0965 10.7373C15.3772 10.2415 15.9812 9.7962 16.5208 9.68719C16.8207 9.62658 17.3277 9.66061 17.6294 9.76163ZM11.7494 12.915C11.4427 13.0034 11.1511 13.2736 11.0194 13.5917L10.9692 13.7129L10.8022 13.6251C10.5546 13.495 10.0278 13.5004 9.74828 13.6361C9.49262 13.7602 9.25042 14.0017 9.12247 14.2601L9.02266 14.4617L9.01133 17.4141L9 20.3665L9.99362 22.193L10.9872 24.0195L12.3313 25.3705C13.3255 26.3698 13.6966 26.7687 13.7568 26.9029C13.8302 27.0664 13.8383 27.1696 13.8391 27.9432C13.84 28.8007 13.8402 28.8022 13.939 28.901L14.0379 29H16.0975H18.1571L18.256 28.901L18.355 28.802V26.6511C18.355 24.328 18.3463 24.2174 18.135 23.8582C18.0828 23.7695 17.6759 23.3067 17.2309 22.8298L16.4217 21.9628L16.4208 20.3267C16.4198 18.4016 16.4175 18.386 16.08 18.0483C15.7698 17.7381 15.3397 17.6296 14.9587 17.7657L14.8075 17.8196V16.8034C14.8075 15.569 14.7858 15.4632 14.4675 15.1447C14.1573 14.8345 13.7272 14.726 13.3462 14.862L13.195 14.916V14.3837C13.195 13.6834 13.1403 13.4944 12.855 13.209C12.5535 12.9073 12.1493 12.7999 11.7494 12.915ZM25.5554 12.9325C25.42 12.9757 25.292 13.0619 25.1456 13.2084C24.8597 13.4944 24.805 13.6831 24.805 14.3837V14.916L24.6538 14.862C24.2728 14.726 23.8427 14.8345 23.5325 15.1447C23.2142 15.4632 23.1925 15.569 23.1925 16.8034V17.8196L23.0413 17.7657C22.6603 17.6296 22.2302 17.7381 21.92 18.0483C21.5825 18.386 21.5802 18.4016 21.5792 20.3267L21.5783 21.9628L20.7691 22.8298C20.3241 23.3067 19.9172 23.7695 19.865 23.8582C19.6537 24.2174 19.645 24.328 19.645 26.6511V28.802L19.744 28.901L19.8429 29H21.9025H23.9621L24.061 28.901C24.1598 28.8022 24.16 28.8007 24.1609 27.9432C24.1617 27.1696 24.1698 27.0664 24.2432 26.9029C24.3034 26.7687 24.6745 26.3698 25.6687 25.3705L27.0128 24.0195L28.0064 22.193L29 20.3665L28.9887 17.4141L28.9773 14.4617L28.8687 14.2558C28.7076 13.9503 28.5862 13.8248 28.3042 13.6727C28.0716 13.5473 28.0212 13.5358 27.7075 13.5365C27.4361 13.5371 27.3306 13.5553 27.2003 13.6238L27.0357 13.7104L26.9531 13.5404C26.693 13.0047 26.1154 12.7535 25.5554 12.9325ZM12.4052 13.6731L12.5298 13.7979L12.5408 16.5258C12.5513 19.1605 12.549 19.2567 12.4749 19.338C12.4326 19.3842 12.3632 19.4915 12.3205 19.5762L12.2429 19.7304L11.9118 19.3074L11.5807 18.8844L11.5917 16.3436L11.6027 13.8028L11.7034 13.6943C11.8383 13.5492 11.9348 13.5118 12.123 13.5317C12.2308 13.5431 12.3197 13.5877 12.4052 13.6731ZM26.2727 13.6731L26.3973 13.7979L26.4083 16.3412L26.4193 18.8844L26.0882 19.3074L25.7571 19.7304L25.6795 19.5762C25.6368 19.4915 25.5674 19.3842 25.5251 19.338C25.451 19.2567 25.4487 19.1605 25.4592 16.5283L25.4702 13.8028L25.5709 13.6943C25.7058 13.5492 25.8023 13.5118 25.9905 13.5317C26.0983 13.5431 26.1872 13.5877 26.2727 13.6731ZM10.6458 14.267C10.7037 14.3103 10.7885 14.3958 10.8342 14.4571C10.9153 14.5657 10.9178 14.6246 10.9375 16.8541L10.9577 19.1398L12.7475 21.4183C13.7319 22.6715 14.5406 23.7013 14.5446 23.7068C14.5596 23.7272 15.0292 23.3446 15.0292 23.312C15.0292 23.2933 14.544 22.66 13.9509 21.9046L12.8725 20.5312V20.1865C12.8725 19.8744 12.8818 19.8326 12.9715 19.7429C13.0411 19.6732 13.1149 19.6439 13.2207 19.6439C13.3476 19.6439 13.3998 19.6739 13.5552 19.8363C14.6837 21.0163 17.5114 24.0853 17.5891 24.2146L17.6898 24.3824L17.7014 26.3686L17.7129 28.3548H16.1028H14.4927L14.4788 27.6188L14.4648 26.8828L14.3313 26.6005C14.2092 26.3425 14.082 26.202 12.8515 24.9672L11.5053 23.6162L10.5764 21.9129L9.6475 20.2096V17.4492C9.6475 15.5919 9.66157 14.6516 9.69051 14.5753C9.74727 14.4254 9.88115 14.2831 10.0305 14.214C10.1911 14.1396 10.5122 14.1673 10.6458 14.267ZM28.0608 14.267C28.1187 14.3103 28.2035 14.3958 28.2492 14.4571C28.3311 14.5667 28.3325 14.6118 28.3432 17.3875L28.3541 20.2067L27.4244 21.9114L26.4947 23.6162L25.1485 24.9672C23.918 26.202 23.7908 26.3425 23.6687 26.6005L23.5352 26.8828L23.5212 27.6188L23.5073 28.3548H21.8972H20.2871L20.2986 26.3686L20.3102 24.3824L20.4109 24.2146C20.4886 24.0853 23.3163 21.0163 24.4448 19.8363C24.6002 19.6739 24.6524 19.6439 24.7793 19.6439C24.8851 19.6439 24.9589 19.6732 25.0285 19.7429C25.1182 19.8326 25.1275 19.8743 25.1275 20.1876V20.5333L24.0397 21.9134C23.4415 22.6725 22.9525 23.3027 22.9531 23.3137C22.9537 23.3248 23.0644 23.4198 23.1991 23.5248L23.444 23.7157L23.5299 23.6064C23.5771 23.5464 24.3913 22.5097 25.3391 21.3028L27.0625 19.1084V16.8986C27.0625 15.4312 27.0769 14.6506 27.1055 14.5753C27.1623 14.4254 27.2962 14.2831 27.4455 14.214C27.6061 14.1396 27.9272 14.1673 28.0608 14.267ZM14.0177 15.6088L14.1423 15.7336L14.1536 17.6337L14.1648 19.5338L13.9286 19.3149C13.7028 19.1059 13.4829 18.9986 13.2797 18.9986H13.1924L13.2037 17.3686L13.2152 15.7385L13.3159 15.63C13.4508 15.4849 13.5473 15.4475 13.7355 15.4674C13.8433 15.4789 13.9322 15.5234 14.0177 15.6088ZM24.6602 15.6088L24.7848 15.7336L24.7963 17.3661L24.8076 18.9986H24.7203C24.5171 18.9986 24.2972 19.1059 24.0714 19.3149L23.8352 19.5338L23.8464 17.6361L23.8577 15.7385L23.9584 15.63C24.0933 15.4849 24.1898 15.4475 24.378 15.4674C24.4858 15.4789 24.5747 15.5234 24.6602 15.6088ZM15.6302 18.5125L15.7548 18.6371L15.7665 19.954L15.7782 21.2709L15.4413 20.9111C15.2561 20.7132 15.0366 20.4753 14.9536 20.3824L14.8027 20.2135L14.8152 19.4277C14.8275 18.6534 14.8291 18.6404 14.9284 18.5336C15.0633 18.3886 15.1599 18.3511 15.348 18.3711C15.4558 18.3825 15.5447 18.427 15.6302 18.5125ZM23.0477 18.5124L23.1723 18.6371L23.1848 19.4253L23.1973 20.2135L23.0464 20.3824C22.9634 20.4753 22.7439 20.7132 22.5587 20.9111L22.2218 21.2709L22.2335 19.9565L22.2452 18.6421L22.3459 18.5337C22.4808 18.3886 22.5773 18.3511 22.7655 18.3711C22.8733 18.3825 22.9623 18.427 23.0477 18.5124Z" fill="black"/>
<defs>
<linearGradient id="paint0_linear_2702_2" x1="5.17924" y1="2.02326" x2="35.3224" y2="39.047" gradientUnits="userSpaceOnUse">
<stop stop-color="#FFEF9E"/>
<stop offset="0.368" stop-color="#F0D76F"/>
<stop offset="0.7898" stop-color="#E0BF40"/>
<stop offset="1" stop-color="#DAB62D"/>
</linearGradient>
</defs>
</svg>
