<svg width="90" height="116" viewBox="0 0 90 116" fill="none" xmlns="http://www.w3.org/2000/svg">
<g filter="url(#filter0_d_808_70)">
<path d="M45 4L77.8369 19.8134L85.947 55.3459L63.2231 83.8407H26.7769L4.05303 55.3459L12.1631 19.8134L45 4Z" fill="white"/>
</g>
<path d="M5.25954 112V101.091H9.14804C9.99321 101.091 10.6946 101.237 11.2521 101.528C11.8132 101.819 12.2322 102.222 12.5092 102.737C12.7862 103.248 12.9247 103.839 12.9247 104.511C12.9247 105.178 12.7844 105.766 12.5039 106.274C12.2269 106.778 11.8078 107.17 11.2468 107.451C10.6892 107.732 9.98788 107.872 9.14271 107.872H6.19704V106.455H8.99356C9.52623 106.455 9.95947 106.379 10.2933 106.226C10.6306 106.073 10.8774 105.851 11.0337 105.56C11.1899 105.269 11.2681 104.919 11.2681 104.511C11.2681 104.099 11.1882 103.742 11.0284 103.44C10.8721 103.138 10.6253 102.907 10.288 102.748C9.95415 102.584 9.51558 102.502 8.97226 102.502H6.9055V112H5.25954ZM10.6448 107.078L13.3402 112H11.4652L8.82311 107.078H10.6448ZM18.2234 112.165C17.4173 112.165 16.7231 111.993 16.1407 111.648C15.5618 111.3 15.1144 110.812 14.7983 110.184C14.4858 109.551 14.3296 108.811 14.3296 107.962C14.3296 107.124 14.4858 106.386 14.7983 105.746C15.1144 105.107 15.5547 104.608 16.1194 104.25C16.6875 103.891 17.3516 103.712 18.1116 103.712C18.5732 103.712 19.0206 103.788 19.4539 103.941C19.8871 104.093 20.276 104.333 20.6204 104.66C20.9649 104.987 21.2366 105.411 21.4354 105.933C21.6343 106.451 21.7337 107.082 21.7337 107.824V108.388H15.2298V107.195H20.173C20.173 106.776 20.0878 106.405 19.9173 106.082C19.7468 105.755 19.5071 105.498 19.1982 105.31C18.8928 105.121 18.5341 105.027 18.1222 105.027C17.6748 105.027 17.2841 105.137 16.9503 105.358C16.6201 105.574 16.3644 105.858 16.1833 106.21C16.0057 106.558 15.9169 106.936 15.9169 107.344V108.277C15.9169 108.824 16.0128 109.289 16.2046 109.672C16.3999 110.056 16.6716 110.349 17.0196 110.551C17.3676 110.75 17.7742 110.849 18.2394 110.849C18.5412 110.849 18.8165 110.807 19.065 110.722C19.3136 110.633 19.5285 110.501 19.7096 110.327C19.8907 110.153 20.0292 109.939 20.125 109.683L21.6325 109.955C21.5118 110.398 21.2951 110.787 20.9826 111.121C20.6737 111.451 20.2848 111.709 19.8161 111.893C19.3509 112.075 18.82 112.165 18.2234 112.165ZM25.8819 112.181C25.3634 112.181 24.8947 112.085 24.4756 111.893C24.0566 111.698 23.7246 111.416 23.4795 111.047C23.2381 110.677 23.1173 110.224 23.1173 109.688C23.1173 109.227 23.2061 108.847 23.3837 108.548C23.5612 108.25 23.8009 108.014 24.1028 107.84C24.4046 107.666 24.742 107.534 25.1148 107.446C25.4877 107.357 25.8677 107.289 26.2547 107.243C26.7448 107.186 27.1425 107.14 27.4479 107.105C27.7533 107.066 27.9753 107.004 28.1138 106.918C28.2523 106.833 28.3215 106.695 28.3215 106.503V106.466C28.3215 106 28.1901 105.64 27.9273 105.384C27.6681 105.129 27.281 105.001 26.7661 105.001C26.2299 105.001 25.8073 105.12 25.4984 105.358C25.193 105.592 24.9817 105.853 24.8645 106.141L23.3677 105.8C23.5452 105.303 23.8045 104.901 24.1454 104.596C24.4898 104.287 24.8858 104.063 25.3332 103.925C25.7807 103.783 26.2512 103.712 26.7448 103.712C27.0715 103.712 27.4177 103.751 27.7835 103.829C28.1528 103.903 28.4973 104.042 28.8169 104.244C29.14 104.447 29.4046 104.736 29.6106 105.113C29.8165 105.485 29.9195 105.97 29.9195 106.567V112H28.3641V110.881H28.3002C28.1972 111.087 28.0427 111.29 27.8368 111.489C27.6308 111.687 27.3663 111.853 27.0431 111.984C26.7199 112.115 26.3329 112.181 25.8819 112.181ZM26.2281 110.903C26.6685 110.903 27.0449 110.816 27.3574 110.642C27.6734 110.468 27.9131 110.24 28.0765 109.96C28.2434 109.676 28.3268 109.372 28.3268 109.049V107.994C28.27 108.051 28.1599 108.104 27.9966 108.154C27.8368 108.2 27.6539 108.241 27.4479 108.277C27.242 108.309 27.0413 108.339 26.846 108.367C26.6507 108.392 26.4873 108.413 26.356 108.431C26.047 108.47 25.7647 108.536 25.509 108.628C25.2569 108.721 25.0545 108.854 24.9018 109.028C24.7526 109.198 24.678 109.425 24.678 109.71C24.678 110.104 24.8236 110.402 25.1148 110.604C25.406 110.803 25.7771 110.903 26.2281 110.903ZM33.6336 101.091V112H32.0409V101.091H33.6336ZM43.2722 112.165C42.4661 112.165 41.7719 111.993 41.1895 111.648C40.6107 111.3 40.1632 110.812 39.8472 110.184C39.5347 109.551 39.3784 108.811 39.3784 107.962C39.3784 107.124 39.5347 106.386 39.8472 105.746C40.1632 105.107 40.6036 104.608 41.1682 104.25C41.7364 103.891 42.4004 103.712 43.1604 103.712C43.622 103.712 44.0695 103.788 44.5027 103.941C44.9359 104.093 45.3248 104.333 45.6693 104.66C46.0137 104.987 46.2854 105.411 46.4842 105.933C46.6831 106.451 46.7825 107.082 46.7825 107.824V108.388H40.2786V107.195H45.2218C45.2218 106.776 45.1366 106.405 44.9661 106.082C44.7957 105.755 44.556 105.498 44.247 105.31C43.9416 105.121 43.583 105.027 43.171 105.027C42.7236 105.027 42.333 105.137 41.9992 105.358C41.6689 105.574 41.4132 105.858 41.2321 106.21C41.0546 106.558 40.9658 106.936 40.9658 107.344V108.277C40.9658 108.824 41.0617 109.289 41.2534 109.672C41.4487 110.056 41.7204 110.349 42.0684 110.551C42.4164 110.75 42.823 110.849 43.2882 110.849C43.5901 110.849 43.8653 110.807 44.1139 110.722C44.3624 110.633 44.5773 110.501 44.7584 110.327C44.9395 110.153 45.078 109.939 45.1739 109.683L46.6813 109.955C46.5606 110.398 46.344 110.787 46.0315 111.121C45.7225 111.451 45.3337 111.709 44.8649 111.893C44.3997 112.075 43.8688 112.165 43.2722 112.165ZM54.6807 105.816L53.2372 106.071C53.1768 105.887 53.0809 105.711 52.9495 105.544C52.8217 105.377 52.6477 105.24 52.4275 105.134C52.2073 105.027 51.9321 104.974 51.6019 104.974C51.1509 104.974 50.7745 105.075 50.4726 105.278C50.1708 105.477 50.0198 105.734 50.0198 106.05C50.0198 106.324 50.121 106.544 50.3235 106.711C50.5259 106.877 50.8526 107.014 51.3036 107.121L52.6033 107.419C53.3561 107.593 53.9172 107.861 54.2865 108.223C54.6559 108.586 54.8405 109.056 54.8405 109.635C54.8405 110.125 54.6985 110.562 54.4144 110.945C54.1338 111.325 53.7414 111.624 53.2372 111.84C52.7365 112.057 52.1559 112.165 51.4953 112.165C50.5791 112.165 49.8316 111.97 49.2528 111.579C48.674 111.185 48.3188 110.626 48.1875 109.901L49.7269 109.667C49.8228 110.068 50.0198 110.372 50.3181 110.578C50.6164 110.78 51.0053 110.881 51.4847 110.881C52.0067 110.881 52.424 110.773 52.7365 110.556C53.049 110.336 53.2052 110.068 53.2052 109.752C53.2052 109.496 53.1093 109.282 52.9176 109.108C52.7294 108.934 52.4399 108.802 52.0493 108.713L50.6644 108.41C49.9009 108.236 49.3362 107.959 48.9705 107.579C48.6083 107.199 48.4272 106.718 48.4272 106.135C48.4272 105.652 48.5621 105.23 48.832 104.868C49.1019 104.505 49.4747 104.223 49.9506 104.021C50.4264 103.815 50.9715 103.712 51.5859 103.712C52.4701 103.712 53.1661 103.903 53.674 104.287C54.1818 104.667 54.5174 105.176 54.6807 105.816ZM60.4109 103.818V105.097H55.9418V103.818H60.4109ZM57.1403 101.858H58.733V109.598C58.733 109.907 58.7792 110.139 58.8715 110.295C58.9638 110.448 59.0828 110.553 59.2284 110.61C59.3775 110.663 59.5391 110.69 59.7131 110.69C59.841 110.69 59.9528 110.681 60.0487 110.663C60.1446 110.645 60.2191 110.631 60.2724 110.62L60.5601 111.936C60.4677 111.972 60.3363 112.007 60.1659 112.043C59.9954 112.082 59.7824 112.103 59.5267 112.107C59.1076 112.114 58.717 112.039 58.3548 111.883C57.9926 111.727 57.6996 111.485 57.4759 111.158C57.2522 110.832 57.1403 110.422 57.1403 109.928V101.858ZM64.5538 112.181C64.0353 112.181 63.5665 112.085 63.1475 111.893C62.7285 111.698 62.3964 111.416 62.1514 111.047C61.9099 110.677 61.7892 110.224 61.7892 109.688C61.7892 109.227 61.878 108.847 62.0555 108.548C62.2331 108.25 62.4728 108.014 62.7746 107.84C63.0765 107.666 63.4138 107.534 63.7867 107.446C64.1596 107.357 64.5396 107.289 64.9266 107.243C65.4167 107.186 65.8144 107.14 66.1198 107.105C66.4252 107.066 66.6472 107.004 66.7856 106.918C66.9241 106.833 66.9934 106.695 66.9934 106.503V106.466C66.9934 106 66.862 105.64 66.5992 105.384C66.34 105.129 65.9529 105.001 65.438 105.001C64.9018 105.001 64.4792 105.12 64.1702 105.358C63.8648 105.592 63.6535 105.853 63.5364 106.141L62.0396 105.8C62.2171 105.303 62.4763 104.901 62.8172 104.596C63.1617 104.287 63.5577 104.063 64.0051 103.925C64.4525 103.783 64.9231 103.712 65.4167 103.712C65.7434 103.712 66.0896 103.751 66.4554 103.829C66.8247 103.903 67.1692 104.042 67.4888 104.244C67.8119 104.447 68.0765 104.736 68.2824 105.113C68.4884 105.485 68.5914 105.97 68.5914 106.567V112H67.036V110.881H66.9721C66.8691 111.087 66.7146 111.29 66.5087 111.489C66.3027 111.687 66.0381 111.853 65.715 111.984C65.3918 112.115 65.0047 112.181 64.5538 112.181ZM64.9 110.903C65.3403 110.903 65.7168 110.816 66.0293 110.642C66.3453 110.468 66.585 110.24 66.7484 109.96C66.9153 109.676 66.9987 109.372 66.9987 109.049V107.994C66.9419 108.051 66.8318 108.104 66.6685 108.154C66.5087 108.2 66.3258 108.241 66.1198 108.277C65.9138 108.309 65.7132 108.339 65.5179 108.367C65.3226 108.392 65.1592 108.413 65.0278 108.431C64.7189 108.47 64.4366 108.536 64.1809 108.628C63.9288 108.721 63.7263 108.854 63.5736 109.028C63.4245 109.198 63.3499 109.425 63.3499 109.71C63.3499 110.104 63.4955 110.402 63.7867 110.604C64.0779 110.803 64.449 110.903 64.9 110.903ZM74.532 103.818V105.097H70.0629V103.818H74.532ZM71.2614 101.858H72.8541V109.598C72.8541 109.907 72.9003 110.139 72.9926 110.295C73.0849 110.448 73.2039 110.553 73.3495 110.61C73.4986 110.663 73.6602 110.69 73.8342 110.69C73.962 110.69 74.0739 110.681 74.1698 110.663C74.2657 110.645 74.3402 110.631 74.3935 110.62L74.6812 111.936C74.5888 111.972 74.4574 112.007 74.287 112.043C74.1165 112.082 73.9035 112.103 73.6478 112.107C73.2287 112.114 72.8381 112.039 72.4759 111.883C72.1137 111.727 71.8207 111.485 71.597 111.158C71.3733 110.832 71.2614 110.422 71.2614 109.928V101.858ZM79.7322 112.165C78.9261 112.165 78.2318 111.993 77.6495 111.648C77.0706 111.3 76.6232 110.812 76.3071 110.184C75.9946 109.551 75.8384 108.811 75.8384 107.962C75.8384 107.124 75.9946 106.386 76.3071 105.746C76.6232 105.107 77.0635 104.608 77.6282 104.25C78.1963 103.891 78.8604 103.712 79.6203 103.712C80.082 103.712 80.5294 103.788 80.9627 103.941C81.3959 104.093 81.7848 104.333 82.1292 104.66C82.4737 104.987 82.7453 105.411 82.9442 105.933C83.1431 106.451 83.2425 107.082 83.2425 107.824V108.388H76.7386V107.195H81.6818C81.6818 106.776 81.5965 106.405 81.4261 106.082C81.2556 105.755 81.0159 105.498 80.707 105.31C80.4016 105.121 80.0429 105.027 79.631 105.027C79.1835 105.027 78.7929 105.137 78.4591 105.358C78.1289 105.574 77.8732 105.858 77.6921 106.21C77.5145 106.558 77.4257 106.936 77.4257 107.344V108.277C77.4257 108.824 77.5216 109.289 77.7134 109.672C77.9087 110.056 78.1804 110.349 78.5284 110.551C78.8764 110.75 79.283 110.849 79.7482 110.849C80.05 110.849 80.3252 110.807 80.5738 110.722C80.8224 110.633 81.0372 110.501 81.2184 110.327C81.3995 110.153 81.538 109.939 81.6338 109.683L83.1413 109.955C83.0206 110.398 82.8039 110.787 82.4914 111.121C82.1825 111.451 81.7936 111.709 81.3249 111.893C80.8597 112.075 80.3288 112.165 79.7322 112.165Z" fill="black"/>
<path fill-rule="evenodd" clip-rule="evenodd" d="M37.6131 22.1621C37.3929 22.2585 37.1071 22.4797 36.9781 22.6535C36.7646 22.9412 36.7405 23.0795 36.7108 24.1901C36.6916 24.9088 36.7226 25.5533 36.7865 25.7579C36.9222 26.1931 37.499 26.6641 37.9892 26.7398L38.3556 26.7966V28.3788V29.9611L29.782 29.9865C20.1997 30.015 20.8819 29.9646 20.3096 30.6849C20.0447 31.0183 20.035 31.0708 20.0091 32.3047C19.9843 33.4866 19.9986 33.6069 20.2045 33.9468C20.474 34.3917 20.8284 34.657 21.2692 34.7435L21.5991 34.8084L21.648 45.1332L21.6968 55.4581L21.9243 55.9019C22.1802 56.4012 22.5853 56.767 23.1624 57.0198C23.5315 57.1815 24.0562 57.1911 32.611 57.1931L41.6687 57.1951L41.7145 57.5003C42.0514 59.7476 42.3534 60.8221 43.0494 62.2492C44.3633 64.9439 47.0251 67.5021 49.7931 68.7306C51.8486 69.6428 53.6158 70.0076 55.9426 69.9999C57.69 69.9942 58.7784 69.8308 60.3006 69.3458C64.1656 68.1145 67.3847 65.22 68.9485 61.5698C71.495 55.6264 69.2905 48.7157 63.6949 45.1005C62.9307 44.6068 61.5569 43.9449 60.7057 43.6603L60.0462 43.4399V35.1257V26.8115L60.4722 26.702C60.9934 26.568 61.4581 26.0919 61.6153 25.5308C61.6802 25.2993 61.7109 24.7172 61.6882 24.1446C61.644 23.0212 61.5193 22.7055 60.9577 22.2938L60.5988 22.0307L49.3062 22.0087C38.4603 21.9875 37.9978 21.9935 37.6131 22.1621ZM60.0462 24.3781V25.1763H49.2009H38.3556V24.3781V23.58H49.2009H60.0462V24.3781ZM58.3614 34.9207L58.3863 43.0221L57.7263 42.9489C56.5555 42.8193 54.1124 42.8732 53.1804 43.0494C47.7493 44.0756 43.4695 47.946 42.1327 53.0408C41.9963 53.5606 41.8575 54.2538 41.8242 54.5812C41.7131 55.6769 41.7882 55.5989 40.8452 55.5989H40.0166V41.1852V26.7716L49.1765 26.7955L58.3363 26.8195L58.3614 34.9207ZM43.4802 29.346C43.0753 29.5154 42.6827 29.9859 42.5495 30.4611C42.4863 30.6867 42.4558 31.276 42.4782 31.8417C42.5224 32.9648 42.647 33.2807 43.2083 33.6925C43.5528 33.9454 43.6171 33.9569 44.8589 33.9862C45.9907 34.013 46.1976 33.9939 46.5279 33.8319C47.0048 33.598 47.2306 33.3577 47.3983 32.9055C47.5569 32.4784 47.5817 30.9117 47.4379 30.4139C47.3085 29.9663 46.9039 29.5052 46.4973 29.3419C46.0689 29.1699 43.8939 29.1728 43.4802 29.346ZM51.7588 29.3718C51.5803 29.4563 51.3165 29.6737 51.1726 29.8549C50.921 30.1715 50.9097 30.2361 50.8841 31.5066C50.8592 32.7356 50.873 32.8554 51.0799 33.2045C51.4496 33.8285 51.9399 34.0026 53.3284 34.0026C54.6018 34.0026 54.9473 33.9134 55.3745 33.4742C55.7723 33.0655 55.8449 32.7738 55.8449 31.5848C55.8449 30.2536 55.6763 29.8165 55.0208 29.4473C54.6365 29.2308 54.5144 29.214 53.3448 29.216C52.3775 29.2176 52.0075 29.2539 51.7588 29.3718ZM45.8584 31.5847L45.8301 32.3594H44.9996H44.1691L44.1407 31.5847L44.1123 30.8101H44.9996H45.8868L45.8584 31.5847ZM54.1839 31.6082V32.4063H53.3534H52.5229V31.6082V30.8101H53.3534H54.1839V31.6082ZM38.3351 32.3829L38.3635 33.1575H30.0057H21.648V32.3588V31.5602L29.9774 31.5842L38.3067 31.6082L38.3351 32.3829ZM38.3556 45.2233V55.5989H36.6946H35.0336L35.0293 53.1341C35.024 50.084 34.948 49.8055 34.0077 49.3905C33.6581 49.2362 33.3252 49.2178 30.8536 49.216C28.5843 49.2143 28.026 49.2397 27.7305 49.3583C27.2461 49.5529 27.0282 49.7531 26.8147 50.1998C26.655 50.5341 26.6351 50.8515 26.6331 53.0872L26.631 55.5989H25.2711C24.5232 55.5989 23.84 55.5726 23.753 55.5406C23.3001 55.3735 23.309 55.5874 23.309 44.8993V34.8477H30.8323H38.3556V45.2233ZM43.4851 35.7755C42.708 36.1184 42.4696 36.6252 42.464 37.9463C42.4597 38.9852 42.5654 39.4262 42.9143 39.8247C43.3502 40.3225 43.5913 40.3876 44.9996 40.3876C46.4078 40.3876 46.6489 40.3225 47.0848 39.8247C47.4337 39.4262 47.5394 38.9852 47.5351 37.9463C47.5272 36.0663 47.026 35.603 44.9996 35.603C44.1162 35.603 43.7924 35.6399 43.4851 35.7755ZM51.7322 35.8171C51.0097 36.1834 50.8654 36.5426 50.8634 37.979C50.8617 39.3543 50.9619 39.6729 51.5272 40.0877C51.8588 40.3311 51.9237 40.3416 53.2477 40.3663C54.5274 40.3901 54.6503 40.377 55.007 40.1785C55.2432 40.047 55.4778 39.8061 55.6177 39.5512C55.8185 39.1854 55.8449 39.008 55.8449 38.0224C55.8449 36.7932 55.7524 36.4617 55.2951 36.0509C54.869 35.6679 54.5661 35.5988 53.3135 35.5988C52.2978 35.5988 52.1123 35.6245 51.7322 35.8171ZM25.8639 36.6032C25.6838 36.6884 25.42 36.9274 25.2776 37.1341C25.041 37.4777 25.0158 37.6055 24.9838 38.6271C24.9439 39.9065 25.0787 40.4096 25.5676 40.805C26.0161 41.1676 26.483 41.2574 27.7226 41.2196C28.7414 41.1885 28.88 41.1625 29.2367 40.9358C29.8514 40.5448 29.9529 40.2374 29.9529 38.7676C29.9529 37.6094 29.9345 37.4783 29.7308 37.1878C29.6086 37.0135 29.3603 36.7748 29.1789 36.6574C28.8756 36.461 28.7429 36.4441 27.5203 36.4461C26.4857 36.4477 26.1188 36.4825 25.8639 36.6032ZM32.4857 36.6574C31.7563 37.1297 31.5354 37.8346 31.6457 39.3372C31.6927 39.9779 31.7536 40.2046 31.9586 40.5022C32.3553 41.0783 32.8094 41.2285 34.1543 41.2285C36.2143 41.2285 36.6892 40.7708 36.6829 38.7913C36.6788 37.4909 36.4985 37.0449 35.8153 36.6448C35.5105 36.4664 35.3284 36.4446 34.1443 36.4443C32.9234 36.4439 32.7884 36.4613 32.4857 36.6574ZM45.8584 38.0167L45.8868 38.7913H45.0035H44.1202V38.0558C44.1202 37.6512 44.1512 37.2906 44.189 37.2542C44.2268 37.2178 44.6115 37.2002 45.0439 37.2151L45.8301 37.242L45.8584 38.0167ZM54.1839 37.9932V38.7913H53.3534H52.5229V37.9932V37.1951H53.3534H54.1839V37.9932ZM28.2919 38.8383V39.6364H27.4614H26.631V38.8383V38.0402H27.4614H28.2919V38.8383ZM35.0131 38.8148L34.9848 39.5895L34.1787 39.6167L33.3726 39.644V38.842V38.0402H34.207H35.0415L35.0131 38.8148ZM25.9959 42.9584C25.5897 43.1376 25.1798 43.58 25.0657 43.9621C24.9418 44.3773 24.9429 46.0648 25.0673 46.495C25.1764 46.8726 25.6664 47.3698 26.0755 47.518C26.2267 47.5728 26.8771 47.6177 27.5206 47.6177C28.8496 47.6177 29.2708 47.4851 29.676 46.9391C29.8834 46.6596 29.9069 46.5157 29.9356 45.3541C29.9722 43.8738 29.8857 43.5676 29.3118 43.1465C28.9519 42.8824 28.9109 42.8753 27.616 42.8525C26.6519 42.8354 26.2089 42.8644 25.9959 42.9584ZM32.6349 42.961C32.2795 43.1097 31.8379 43.5905 31.7361 43.9394C31.6957 44.0775 31.6637 44.6975 31.6647 45.3172C31.667 46.5968 31.7616 46.8662 32.363 47.3076C32.7048 47.5584 32.7791 47.5722 33.9498 47.6023C34.6624 47.6207 35.3285 47.5906 35.5364 47.5307C35.9734 47.4049 36.4528 46.9014 36.591 46.423C36.7226 45.9677 36.7235 44.4821 36.5926 44.029C36.4632 43.5814 36.0586 43.1203 35.652 42.957C35.2236 42.785 33.0486 42.7879 32.6349 42.961ZM28.2919 45.2233V46.0214H27.4614H26.631V45.2233V44.4252H27.4614H28.2919V45.2233ZM35.0336 45.2233V46.0214H34.2031H33.3726V45.2233V44.4252H34.2031H35.0336V45.2233ZM57.7095 44.562C62.2874 45.2251 66.211 48.3834 67.6639 52.5744C68.1589 54.0022 68.2968 54.8457 68.2968 56.444C68.2968 58.5474 67.9552 59.95 66.9818 61.843C65.759 64.221 63.4402 66.3447 60.8954 67.4172C54.7544 70.0055 47.6439 67.5272 44.6331 61.7492C42.9251 58.4715 42.9129 54.5963 44.6 51.2327C45.8587 48.7232 47.8145 46.844 50.4222 45.6386C52.7613 44.5573 55.1953 44.1977 57.7095 44.562ZM54.0862 46.1594C50.13 46.7906 46.778 49.5599 45.5327 53.2258C44.6799 55.7367 44.9051 58.7262 46.1217 61.0449C47.189 63.0791 49.015 64.8193 51.0977 65.7878C54.5649 67.3997 58.5663 67.1529 61.8075 65.1272C62.7065 64.5654 64.2648 63.0855 64.8209 62.2656C65.8433 60.7581 66.4164 59.2065 66.6098 57.4226C67.1738 52.2234 63.4565 47.3694 58.0483 46.2431C57.0705 46.0394 55.0991 45.9978 54.0862 46.1594ZM57.3221 47.7555C59.2809 48.0852 60.7927 48.8217 62.2296 50.1464C63.4505 51.2719 64.3732 52.8493 64.8017 54.5438C65.0469 55.5128 65.0246 57.399 64.7557 58.4415C64.3211 60.1264 63.5448 61.4599 62.3046 62.6519C59.3314 65.5091 54.7298 66.0612 51.1394 63.9914C49.7249 63.1759 48.3526 61.7553 47.6128 60.3407C46.4353 58.0891 46.3856 55.1088 47.4874 52.8171C48.1941 51.3471 49.4275 49.9563 50.7943 49.0878C52.7037 47.8745 55.1104 47.3833 57.3221 47.7555ZM55.4742 49.3087C55.184 49.4253 54.9659 49.935 54.9639 50.502L54.9622 50.951L54.43 51.1724C53.7973 51.4356 53.0864 52.1256 52.7944 52.7601C52.3463 53.7336 52.4941 55.0847 53.1371 55.8951C53.7929 56.7212 54.5965 57.1193 55.8644 57.2458C56.5642 57.3156 56.9999 57.5871 57.286 58.1313C57.5568 58.6463 57.5648 59.0634 57.3132 59.5374C57.0764 59.9833 56.7202 60.2623 56.2229 60.3909C55.2517 60.6423 54.1839 59.8516 54.1839 58.8811C54.1839 58.5356 53.7249 58.0402 53.4049 58.0402C53.0602 58.0402 52.6275 58.3097 52.5605 58.5662C52.458 58.9586 52.5979 59.7309 52.8674 60.2601C53.1649 60.8445 53.9099 61.52 54.5252 61.7631C54.9596 61.9349 54.9648 61.9422 54.9651 62.386C54.9659 63.3165 55.4832 63.8408 56.1417 63.5786C56.5361 63.4216 56.6265 63.2318 56.6265 62.5603V61.9977L57.1512 61.7668C57.8952 61.4395 58.4306 60.9354 58.7995 60.2149C59.0853 59.6568 59.1175 59.5106 59.1137 58.7931C59.11 58.1043 59.0702 57.9179 58.8272 57.4496C58.2891 56.4127 57.4082 55.8434 56.0356 55.6452C55.0408 55.5015 54.867 55.4269 54.5252 54.9961C53.8254 54.1143 54.291 52.8001 55.4098 52.4991C56.4224 52.2266 57.5059 53.0059 57.5059 54.0069C57.5059 54.3795 57.9684 54.8477 58.3363 54.8477C58.4952 54.8477 58.7112 54.7365 58.8943 54.5607C59.175 54.291 59.1899 54.241 59.1418 53.7318C59.0372 52.6222 58.2689 51.6129 57.1566 51.1235L56.6265 50.8902V50.2972C56.6265 49.8704 56.5785 49.6487 56.4555 49.5063C56.255 49.2742 55.7921 49.181 55.4742 49.3087ZM33.3499 53.228L33.3759 55.5989H30.8339H28.2919V53.2029V50.807L30.8079 50.832L33.3238 50.8571L33.3499 53.228Z" fill="#D5C114"/>
<defs>
<filter id="filter0_d_808_70" x="0.0546875" y="0" width="89.8906" height="87.8408" filterUnits="userSpaceOnUse" color-interpolation-filters="sRGB">
<feFlood flood-opacity="0" result="BackgroundImageFix"/>
<feColorMatrix in="SourceAlpha" type="matrix" values="0 0 0 0 0 0 0 0 0 0 0 0 0 0 0 0 0 0 127 0" result="hardAlpha"/>
<feOffset/>
<feGaussianBlur stdDeviation="2"/>
<feComposite in2="hardAlpha" operator="out"/>
<feColorMatrix type="matrix" values="0 0 0 0 0 0 0 0 0 0 0 0 0 0 0 0 0 0 0.25 0"/>
<feBlend mode="normal" in2="BackgroundImageFix" result="effect1_dropShadow_808_70"/>
<feBlend mode="normal" in="SourceGraphic" in2="effect1_dropShadow_808_70" result="shape"/>
</filter>
</defs>
</svg>
