<svg width="35" height="35" viewBox="0 0 35 35" fill="none" xmlns="http://www.w3.org/2000/svg">
<path fill-rule="evenodd" clip-rule="evenodd" d="M0 3C0 1.34315 1.34315 0 3 0H32C33.6569 0 35 1.34315 35 3V32C35 33.6569 33.6569 35 32 35H3C1.34315 35 0 33.6569 0 32V3ZM18.1834 19.0138C18.1831 19.2224 18.105 19.4239 17.9635 19.5813C17.8216 19.739 17.6255 19.8417 17.4115 19.8705C16.7709 21.1943 15.7122 22.2869 14.3884 22.9904C13.281 23.6282 12.0213 23.9761 10.7329 24.0002C9.26518 24.0002 8.01139 23.4665 7.39276 22.4279C6.38819 20.7436 7.36685 18.3938 9.68697 16.806C9.68268 17.1385 9.71446 17.4705 9.78181 17.7966C9.5988 17.9377 9.42411 18.0886 9.25856 18.2486C8.85109 18.6476 8.51264 19.1075 8.25619 19.6106C8.04245 19.9711 7.92316 20.3769 7.90874 20.7924C7.89432 21.2078 7.98522 21.6204 8.17349 21.994C8.6041 22.7161 9.537 23.1303 10.7329 23.1303C11.8627 23.1045 12.9664 22.797 13.9374 22.2374C14.5222 21.9137 15.0562 21.5108 15.5231 21.0409C15.929 20.6369 16.2652 20.1723 16.5189 19.665C16.5393 19.6234 16.5586 19.5818 16.5768 19.5401C16.4906 19.4307 16.4327 19.303 16.4077 19.1677C16.3827 19.0323 16.3913 18.8931 16.4329 18.7615C16.4745 18.63 16.5479 18.51 16.647 18.4114C16.746 18.3128 16.8679 18.2384 17.0025 18.1945C17.1372 18.1505 17.2807 18.1382 17.4212 18.1586C17.5617 18.179 17.6952 18.2315 17.8106 18.3117C17.926 18.3919 18.02 18.4976 18.0849 18.62C18.1494 18.7419 18.1832 18.8769 18.1834 19.0138ZM14.1899 11C16.1881 11 17.8438 13.0435 18.1426 15.7146C17.832 15.5336 17.5038 15.3824 17.1629 15.2631C17.1221 15.0568 17.0715 14.8541 17.0112 14.6553C16.8526 14.1137 16.6052 13.6004 16.2785 13.1348C16.0632 12.7753 15.7603 12.4723 15.3963 12.2522C15.0322 12.0321 14.6181 11.9016 14.1899 11.8721C13.7618 11.9016 13.3476 12.0321 12.9836 12.2522C12.6195 12.4723 12.3167 12.7753 12.1014 13.1348C11.7743 13.601 11.5267 14.1151 11.3681 14.6574C10.9975 15.9173 10.9975 17.2523 11.3681 18.5122C11.5266 19.0547 11.7742 19.569 12.1014 20.0354C12.1337 20.0806 12.1666 20.1245 12.2001 20.1672C12.3933 20.1323 12.5931 20.1599 12.7685 20.2459C12.9439 20.3318 13.0852 20.4713 13.1705 20.6428C13.2559 20.8142 13.2805 21.0081 13.2406 21.1944C13.2007 21.3808 13.0985 21.5492 12.9498 21.6737C12.8011 21.7983 12.6142 21.8719 12.4179 21.8833C12.2217 21.8947 12.027 21.8432 11.864 21.7368C11.701 21.6304 11.5787 21.475 11.5161 21.2946C11.4535 21.1142 11.454 20.9189 11.5175 20.7388C10.6203 19.5296 10.1539 18.0707 10.1887 16.5824C10.1887 13.4993 11.9801 11 14.1899 11ZM17.6381 23.1276C18.0948 23.1622 18.5534 23.0931 18.9776 22.9257C19.4017 22.7584 19.7796 22.4975 20.0812 22.1638C20.3619 22.3026 20.6655 22.3929 20.9783 22.4306C20.3563 23.4558 19.0981 23.9991 17.6387 23.9991C16.6543 23.9866 15.6833 23.7773 14.7865 23.3843C15.1182 23.2134 15.4376 23.021 15.7426 22.8085C16.3525 23.013 16.9926 23.1208 17.6381 23.1276ZM19.1185 18.2347C18.6511 17.7645 18.1166 17.3614 17.5312 17.0376C16.561 16.4785 15.4582 16.1709 14.3294 16.1448C14.1121 16.1443 13.8951 16.1589 13.6799 16.1885H13.6645C13.6196 16.3736 13.513 16.5392 13.3612 16.6599C13.2094 16.7805 13.0209 16.8495 12.8246 16.8561C12.6283 16.8627 12.4352 16.8067 12.2751 16.6966C12.115 16.5865 11.9968 16.4285 11.9386 16.2469C11.8805 16.0653 11.8856 15.8703 11.9533 15.6918C12.021 15.5134 12.1475 15.3615 12.3133 15.2595C12.479 15.1575 12.6748 15.1111 12.8705 15.1275C13.0661 15.1439 13.2508 15.2221 13.396 15.3501H13.3998C13.7066 15.2982 14.0175 15.2725 14.3289 15.2733C15.6171 15.2975 16.8767 15.6456 17.9838 16.2835C19.982 17.4 21.2369 19.1511 21.3559 20.7356C21.0205 20.6961 20.6967 20.5918 20.4037 20.4287C20.341 20.1461 20.244 19.8717 20.1148 19.6111C19.8613 19.1034 19.5251 18.6385 19.1191 18.2342L19.1185 18.2347ZM27.4747 17.3655C27.8359 17.9467 28.6431 17.4946 28.2466 16.9166C27.3854 15.5061 25.3195 14.5124 22.9111 14.5118C21.972 14.507 21.0397 14.6659 20.1587 14.9809C19.9896 14.8847 19.7925 14.845 19.5977 14.8678C19.403 14.8906 19.2214 14.9748 19.0808 15.1073C18.9403 15.2398 18.8487 15.4134 18.8201 15.6012C18.7914 15.7891 18.8274 15.9809 18.9223 16.147C19.0173 16.3132 19.166 16.4445 19.3457 16.5209C19.5253 16.5972 19.7259 16.6142 19.9165 16.5694C20.1072 16.5246 20.2773 16.4204 20.4008 16.2728C20.5242 16.1252 20.5942 15.9425 20.5998 15.7527C20.7035 15.7171 20.8093 15.684 20.9174 15.6534C22.219 15.2946 23.5983 15.2946 24.8999 15.6534C25.4601 15.8069 25.9912 16.0466 26.4729 16.3632C26.8778 16.6232 27.2197 16.9651 27.4747 17.3655ZM28.782 19.5735C28.9216 19.4169 28.9986 19.2171 28.9992 19.0103L28.9987 19.0076C28.9987 18.8702 28.965 18.7347 28.9003 18.6124C28.8356 18.4901 28.7417 18.3845 28.6264 18.3042C28.5112 18.2239 28.3779 18.1714 28.2375 18.1508C28.0971 18.1303 27.9537 18.1424 27.8191 18.1861C27.6845 18.2299 27.5626 18.304 27.4634 18.4023C27.3643 18.5007 27.2907 18.6204 27.2488 18.7517C27.2069 18.8831 27.1979 19.0221 27.2225 19.1575C27.2471 19.2928 27.3047 19.4206 27.3904 19.5301C27.1433 19.8742 26.8319 20.1705 26.4723 20.4038C25.9907 20.7204 25.4596 20.9601 24.8993 21.1136C23.5977 21.4723 22.2185 21.4723 20.9168 21.1136C20.3566 20.96 19.8255 20.7204 19.3438 20.4038C19.184 20.297 19.0324 20.1793 18.8901 20.0515C18.4148 19.6491 17.8017 20.225 18.3111 20.7208C19.5993 21.7572 21.234 22.3028 22.9084 22.2551C25.3117 22.2551 27.3716 21.2678 28.2384 19.8642C28.4496 19.8332 28.6425 19.7301 28.782 19.5735Z" fill="white"/>
</svg>
