<svg width="55" height="55" viewBox="0 0 55 55" fill="none" xmlns="http://www.w3.org/2000/svg">
<path fill-rule="evenodd" clip-rule="evenodd" d="M24.9014 0.118714C22.7695 0.322582 20.0488 0.937629 18.0718 1.66246C16.537 2.22525 13.7459 3.62276 12.4253 4.48974C8.32459 7.18164 4.98862 10.9555 2.84768 15.3243C1.47681 18.1216 0.715119 20.5195 0.251674 23.4963C-0.0838912 25.6521 -0.0838912 29.4049 0.251674 31.5607C0.971095 36.1818 2.7626 40.436 5.56274 44.1722C6.52286 45.4533 8.80922 47.8162 10.1129 48.8744C12.3654 50.7028 15.5092 52.4812 18.1386 53.4141C21.2875 54.5313 24.0494 55 27.4827 55C30.2073 55 31.772 54.8126 34.2117 54.194C36.3212 53.659 37.5854 53.1885 39.6899 52.1549C42.6322 50.7096 44.8631 49.079 47.2238 46.6482C49.4278 44.3786 50.7698 42.4725 52.1681 39.6251C53.4109 37.0946 54.1836 34.7135 54.6281 32.0446C55.5516 26.5 54.7432 20.7528 52.3362 15.7491C51.8795 14.7998 51.4978 14.1506 51.3091 14.0022C50.1752 13.1105 48.5645 13.8611 48.5634 15.2818C48.5631 15.6578 48.7023 16.0712 49.1427 17.0022C50.8385 20.5869 51.5081 23.5278 51.515 27.421C51.5192 29.7563 51.4153 30.7781 50.9706 32.7779C48.7512 42.7577 40.4238 50.2193 30.1836 51.4036C28.5472 51.5928 24.9687 51.485 23.3956 51.1989C13.735 49.4421 6.14998 42.2048 4.04592 32.7361C3.52375 30.3865 3.35113 27.2434 3.61345 24.863C4.16165 19.8874 6.30927 15.1266 9.69718 11.3763C13.4378 7.23594 18.4687 4.56146 24.1485 3.69405C25.8406 3.43566 29.2208 3.4376 30.9205 3.69813C34.5643 4.25641 37.8506 5.52123 40.9062 7.5411C42.1786 8.38227 42.5562 8.4941 43.2408 8.23281C44.3854 7.79572 44.7289 6.45617 43.9296 5.54607C43.5791 5.14704 42.1188 4.1691 40.7654 3.42717C35.9352 0.779243 30.2944 -0.397087 24.9014 0.118714ZM45.8632 8.95356C45.6592 9.08872 45.3828 9.42764 45.2374 9.72086C45.0002 10.199 44.9885 10.289 45.1057 10.7276C45.2623 11.3129 45.8619 12.071 46.3523 12.3036C47.6797 12.9334 49.1438 11.7628 48.7648 10.3747C48.6261 9.86688 48.0234 9.09431 47.5918 8.87108C47.1194 8.62689 46.2972 8.66614 45.8632 8.95356ZM26.4093 9.27602C25.5335 9.72344 25.5003 9.82656 25.4391 12.2943L25.3854 14.4641L23.9872 14.5307C21.7654 14.6366 20.4823 15.1855 18.9906 16.6684C18.0824 17.5712 17.601 18.3187 17.1787 19.4818C16.9184 20.1986 16.892 20.4128 16.8904 21.8296C16.889 23.072 16.9295 23.5089 17.0894 23.9802C17.9243 26.4399 19.5982 28.1326 21.9437 28.8888C22.6029 29.1013 23.1122 29.1792 24.1216 29.222L25.4391 29.2779V33.1979V37.1178L24.3337 37.0812C23.3411 37.0483 23.1552 37.0085 22.511 36.6911C21.2425 36.0661 20.5685 35.057 20.3212 33.4124C20.2328 32.8248 20.0969 32.3527 19.9612 32.1622C19.4913 31.5025 18.3614 31.2971 17.6902 31.7492C17.0985 32.1478 16.8861 32.6231 16.9049 33.506C16.9682 36.4663 19.054 39.2179 21.9975 40.224C22.5032 40.3969 23.0685 40.481 24.041 40.5279L25.3854 40.5929L25.4391 42.7627C25.5006 45.2427 25.5318 45.3371 26.4366 45.791C26.8365 45.9915 27.0297 46.0275 27.3846 45.9675C27.9535 45.8714 28.622 45.2838 28.7706 44.7489C28.8305 44.5329 28.8799 43.4973 28.8802 42.4477L28.8808 40.5391H29.9929C33.3407 40.5391 36.0477 38.6064 37.1015 35.4641C37.713 33.6407 37.5622 31.7426 36.6592 29.8964C36.2511 29.062 36.0025 28.719 35.2879 28.0047C33.8096 26.5268 32.0094 25.8081 29.7856 25.8081H28.8808V21.8713V17.9343L29.9833 17.9789C31.3171 18.0328 31.8491 18.2399 32.6857 19.031C33.4091 19.715 33.8044 20.5562 33.9306 21.6803C33.9897 22.2081 34.0977 22.6046 34.2313 22.7849C34.9968 23.8185 36.3263 23.8077 37.0987 22.7615C37.2914 22.5005 37.3218 22.3152 37.3105 21.4711C37.2827 19.3997 36.2206 17.3263 34.5407 16.0637C33.1141 14.9917 31.7039 14.5179 29.9392 14.5179H28.8808L28.8802 12.6093C28.8799 11.5595 28.832 10.5292 28.7737 10.3197C28.5908 9.66129 27.7494 9.03409 27.049 9.03409C26.9577 9.03409 26.6698 9.14302 26.4093 9.27602ZM25.4391 21.8975V25.8363L24.3335 25.7871C23.4396 25.7473 23.1106 25.6843 22.6161 25.458C21.8117 25.0898 21.035 24.3497 20.6451 23.5799C20.3596 23.0163 20.3304 22.8589 20.3304 21.8834C20.3304 20.9417 20.3662 20.7317 20.6187 20.1931C20.7774 19.8547 21.135 19.3566 21.4136 19.0859C22.2872 18.237 22.9924 17.9765 24.4443 17.9659L25.4391 17.9587V21.8975ZM31.1468 29.4175C31.8331 29.6155 32.7413 30.2015 33.1078 30.6827C34.689 32.7591 34.081 35.5717 31.809 36.6911C31.1648 37.0085 30.9789 37.0483 29.9863 37.0812L28.8808 37.1178V33.1834V29.2489H29.7217C30.1843 29.2489 30.8255 29.3247 31.1468 29.4175Z" fill="#AF1AE3"/>
</svg>
