<svg width="35" height="35" viewBox="0 0 35 35" fill="none" xmlns="http://www.w3.org/2000/svg">
<path fill-rule="evenodd" clip-rule="evenodd" d="M3 0C1.34314 0 0 1.34326 0 3V32C0 33.6567 1.34314 35 3 35H32C33.6569 35 35 33.6567 35 32V3C35 1.34326 33.6569 0 32 0H3ZM11.4941 15.7446C11.291 11.5107 13.2235 8.18848 16.4268 7.26514C17.6583 6.91016 17.9764 6.91113 19.1204 7.271C21.3972 7.9873 23.1317 10.3208 23.5327 13.2061L23.6318 13.9194L22.9927 13.7329C22.3784 13.5537 22.3439 13.5112 22.1075 12.6406C21.1246 9.02002 18.7915 7.57812 15.9839 8.85547C13.9105 9.79883 12.7953 12.0244 12.7999 15.209C12.8025 16.9482 13.054 18.1943 13.6864 19.6006C13.8092 19.8735 13.9102 20.0776 14.0005 20.2271C14.1617 20.4932 14.2892 20.585 14.4459 20.585C15.2214 20.585 16.0992 21.4453 16.0975 22.2036C16.0966 22.7168 15.536 23.4233 14.9836 23.6069C14.5271 23.7588 14.3617 23.7441 13.8856 23.5093C13.1708 23.1562 12.9146 22.6597 13.0264 21.8442C13.0961 21.3345 13.0275 21.041 12.6725 20.3315C11.9292 18.8452 11.5773 17.4751 11.4941 15.7446ZM14.9736 15.4448C14.854 14.896 15.2341 14.0317 15.6936 13.8076C16.3489 13.4883 17.259 13.6523 17.6733 14.1641C17.7577 14.2681 18.4021 14.3936 19.1458 14.4502C24.629 14.8701 29 18.6074 29 22.876C29 26.3809 25.1185 28.7944 21.1494 27.7578C20.6445 27.6255 20.0751 27.4351 19.8839 27.334L19.5364 27.1504L20.1305 26.6689C20.7198 26.1914 20.7294 26.1895 21.2898 26.4253C22.1859 26.8027 23.8406 26.8696 24.864 26.5698C25.5485 26.3691 25.9122 26.1387 26.5344 25.5112C27.9484 24.0854 28.1189 22.522 27.0881 20.438C25.8396 17.9136 22.0933 15.7446 18.9819 15.7446C18.1193 15.7446 17.9568 15.7944 17.5004 16.1982C16.8444 16.7793 16.1505 16.8042 15.5206 16.27C15.2727 16.0596 15.0267 15.6885 14.9736 15.4448ZM7.61951 25.27C6.41162 22.8662 6.99548 20.0479 9.14893 17.8887L10.1561 16.8789L10.3522 17.5684L10.5485 18.2573L9.82068 19.0186C9.62183 19.2266 9.39258 19.5151 9.18286 19.8135C8.97046 20.1152 8.77808 20.4268 8.65759 20.6743C7.53528 22.979 8.57336 25.6475 10.8947 26.4248C12.0011 26.7954 14.2321 26.6616 15.465 26.1504C17.5264 25.2959 19.4913 23.7534 20.4622 22.228C20.9054 21.5317 20.9331 21.4204 20.7737 20.9761C20.3784 19.8735 20.7062 19.0371 21.644 18.7534C22.106 18.6138 22.2993 18.6284 22.7318 18.8354C23.6544 19.2769 23.8795 20.3774 23.2108 21.1787C22.9972 21.4346 22.7264 21.644 22.6089 21.644C22.4915 21.644 22.15 22.0356 21.8501 22.5137C20.256 25.0571 18.189 26.6724 15.4303 27.5308C12.0842 28.5718 8.80127 27.6211 7.61951 25.27Z" fill="white"/>
</svg>
