<svg width="49" height="49" viewBox="0 0 49 49" fill="none" xmlns="http://www.w3.org/2000/svg">
<path d="M0 25.4535V10.8691C0.191735 10.2747 0.587338 9.76719 1.1169 9.43631C1.64646 9.10542 2.27589 8.97245 2.89397 9.0609C5.15581 9.12018 7.40777 9.0609 9.66962 9.0609H10.2622V8.46804C10.2622 7.02541 10.2622 5.5729 10.2622 4.12039C10.2314 3.18876 10.5307 2.27621 11.1072 1.54394C11.6838 0.811674 12.5005 0.306822 13.413 0.118575C13.4855 0.0912895 13.5524 0.0511161 13.6106 0H35.34C37.7698 0.513813 38.8266 2.33192 38.7674 4.77254C38.6884 8.61626 38.7674 12.46 38.7674 16.3037V16.9064H46.669C47.0624 16.8919 47.4526 16.9821 47.7996 17.1678C48.1467 17.3536 48.4383 17.6282 48.6444 17.9637C48.777 18.2173 48.8957 18.4779 49 18.7443V33.299C48.4074 35.0776 46.9752 35.2753 45.385 35.0776C45.385 36.4412 45.2961 37.7258 45.2665 39.03C45.2665 39.4451 45.1973 39.8106 44.7726 40.0182C44.3479 40.2257 44.0318 39.949 43.7849 39.6328C42.6392 38.3186 41.4638 37.0538 40.3576 35.6804C40.1841 35.4367 39.9363 35.2559 39.6513 35.1651C39.3664 35.0742 39.0597 35.0782 38.7773 35.1765V44.8105C38.8164 45.5292 38.6586 46.2449 38.321 46.8805C37.9833 47.5161 37.4785 48.0474 36.8611 48.417C36.3808 48.652 35.882 48.847 35.3697 49H13.6698C11.1907 48.4565 10.203 46.6286 10.2326 44.2275C10.3116 38.783 10.2326 33.3583 10.2326 27.8941V27.3013C9.24491 27.1531 9.24491 27.1629 8.72143 27.7657L8.21769 28.3388C7.18389 29.5047 6.1501 30.674 5.1163 31.8465C5.01714 31.9851 4.8754 32.0873 4.71271 32.1377C4.55002 32.1881 4.37531 32.1839 4.21526 32.1256C4.0552 32.0674 3.91859 31.9584 3.82625 31.8152C3.73392 31.6721 3.69095 31.5026 3.70389 31.3327C3.70389 31.1055 3.70389 30.8881 3.70389 30.6608C3.70389 29.5344 3.62488 28.4178 3.58537 27.2321C3.09152 27.2321 2.59766 27.2321 2.17295 27.2321C1.83655 27.2306 1.50532 27.1493 1.20652 26.9946C0.907727 26.84 0.649921 26.6166 0.454343 26.3428C0.284847 26.056 0.133115 25.759 0 25.4535ZM37.1574 35.0974H24.9889C24.4267 35.1321 23.8715 34.9576 23.4302 34.6073C22.9889 34.2571 22.6927 33.7559 22.5987 33.2002C22.574 32.9307 22.574 32.6595 22.5987 32.39C22.5987 30.6905 22.5987 28.9811 22.5987 27.2716H11.8327V44.7116C11.7881 45.0831 11.8285 45.4598 11.9508 45.8134C12.073 46.1669 12.2739 46.4881 12.5383 46.7526C12.8028 47.0172 13.1238 47.2182 13.4772 47.3404C13.8306 47.4627 14.2072 47.5031 14.5785 47.4586H34.4511C34.8224 47.5031 35.199 47.4627 35.5524 47.3404C35.9058 47.2182 36.2269 47.0172 36.4913 46.7526C36.7557 46.4881 36.9566 46.1669 37.0789 45.8134C37.2011 45.4598 37.2415 45.0831 37.1969 44.7116V35.0974H37.1574ZM43.7355 37.291C43.7355 36.955 43.7355 36.7673 43.7355 36.5796C43.7355 35.8681 43.7355 35.1468 43.7948 34.4354C43.8541 33.7239 44.0911 33.5757 44.7035 33.5757H46.3727C47.153 33.5757 47.3604 33.3386 47.3604 32.5876V19.4854C47.3604 18.685 47.1431 18.4973 46.3727 18.4973H25.0976C24.3074 18.4973 24.1099 18.7245 24.1099 19.4854V32.4394C24.1099 33.3682 24.3173 33.5658 25.226 33.5658C30.0064 33.5658 34.7869 33.5658 39.5576 33.5658C39.8468 33.5484 40.1359 33.6024 40.3994 33.723C40.663 33.8436 40.8928 34.0272 41.0687 34.2575C41.8885 35.2555 42.7676 36.2041 43.7355 37.291ZM5.14593 29.2775H5.32372C6.21266 28.2894 7.13123 27.3013 8.00041 26.2341C8.15763 26.0373 8.36012 25.8815 8.5906 25.78C8.82107 25.6785 9.07267 25.6343 9.32393 25.6511C13.5315 25.6511 17.7392 25.6511 21.9369 25.6511H22.5592C22.5592 23.5168 22.5592 21.4616 22.5592 19.4063C22.5457 19.1681 22.5623 18.929 22.6085 18.6949C22.7133 18.177 22.9936 17.7112 23.4022 17.3763C23.8108 17.0414 24.3224 16.8579 24.8506 16.857V11.7288C24.8506 10.7407 24.6728 10.5332 23.6555 10.5332H2.40012C1.79762 10.5332 1.53094 10.8197 1.53094 11.4324V24.7717C1.53094 25.3745 1.79762 25.6314 2.41 25.6511H3.94094C4.92865 25.6511 5.12618 25.8389 5.13606 26.8171C5.15581 27.6669 5.14593 28.4672 5.14593 29.2775ZM37.1179 16.9064C37.1179 16.778 37.1179 16.6693 37.1179 16.5606C37.1179 12.3908 37.1179 8.21113 37.1179 4.04134C37.1313 3.70397 37.0733 3.36759 36.9479 3.05415C36.8225 2.7407 36.6324 2.45723 36.3901 2.22225C36.1478 1.98727 35.8586 1.80606 35.5415 1.69045C35.2244 1.57484 34.8865 1.52744 34.5499 1.55132H14.381C14.0374 1.5268 13.6925 1.57593 13.3694 1.69546C13.0463 1.81498 12.7525 2.00214 12.5075 2.24441C12.2625 2.48667 12.0721 2.77847 11.9489 3.10028C11.8257 3.4221 11.7726 3.76652 11.7932 4.11051C11.7932 5.61243 11.7932 7.07481 11.7932 8.60637C11.7932 8.72494 11.7932 8.8534 11.7932 9.04114H12.3661C16.2082 9.04114 20.0504 9.04114 23.8827 9.04114C24.2151 9.01429 24.5493 9.06001 24.8623 9.17515C25.1752 9.2903 25.4595 9.47211 25.6952 9.70799C25.931 9.94388 26.1128 10.2282 26.2279 10.5413C26.343 10.8544 26.3887 11.1888 26.3618 11.5213V16.9064H37.1179Z" fill="#959817"/>
<path d="M24.4739 46.2426C23.907 46.2466 23.3517 46.0821 22.8783 45.77C22.4049 45.458 22.0347 45.0124 21.8145 44.4897C21.5944 43.9671 21.5343 43.3908 21.6418 42.834C21.7493 42.2771 22.0195 41.7646 22.4183 41.3615C22.8171 40.9584 23.3265 40.6828 23.882 40.5695C24.4375 40.4562 25.0142 40.5104 25.5389 40.7251C26.0636 40.9399 26.5128 41.3056 26.8296 41.7759C27.1464 42.2463 27.3165 42.8001 27.3185 43.3673C27.3211 43.7431 27.2495 44.1157 27.1079 44.4638C26.9662 44.8119 26.7572 45.1287 26.493 45.3958C26.2287 45.6629 25.9143 45.8752 25.5678 46.0206C25.2213 46.1659 24.8496 46.2414 24.4739 46.2426ZM25.7876 43.4068C25.7934 43.1426 25.7207 42.8827 25.5787 42.6599C25.4366 42.4371 25.2316 42.2616 24.9897 42.1555C24.7478 42.0495 24.4799 42.0177 24.2199 42.0642C23.9599 42.1107 23.7195 42.2334 23.5293 42.4167C23.3391 42.6 23.2076 42.8357 23.1515 43.0939C23.0954 43.3521 23.1172 43.6212 23.2142 43.867C23.3111 44.1127 23.4789 44.3242 23.6961 44.4745C23.9134 44.6248 24.1703 44.7071 24.4344 44.7111C24.6107 44.7177 24.7865 44.689 24.9515 44.6266C25.1165 44.5643 25.2674 44.4696 25.3953 44.3481C25.5232 44.2266 25.6256 44.0807 25.6963 43.919C25.7671 43.7574 25.8048 43.5832 25.8073 43.4068H25.7876Z" fill="#959817"/>
<path d="M30.3028 28.4277C29.9842 28.4277 29.6689 28.3644 29.3751 28.2412C29.0813 28.1181 28.8149 27.9377 28.5915 27.7105C28.3681 27.4834 28.1922 27.214 28.0739 26.9181C27.9556 26.6222 27.8974 26.3057 27.9027 25.9871C27.9047 25.5055 28.0496 25.0354 28.3191 24.6363C28.5886 24.2373 28.9705 23.9273 29.4164 23.7458C29.8623 23.5642 30.352 23.5192 30.8235 23.6166C31.2949 23.7139 31.7269 23.9491 32.0645 24.2924C32.4021 24.6358 32.6301 25.0716 32.7197 25.5448C32.8093 26.018 32.7564 26.5071 32.5676 26.9501C32.3789 27.3932 32.0629 27.7701 31.6596 28.0332C31.2564 28.2963 30.7841 28.4336 30.3028 28.4277ZM30.3028 25.0978C30.0635 25.1004 29.8349 25.1973 29.6666 25.3675C29.4983 25.5377 29.404 25.7675 29.404 26.0069C29.4013 26.2384 29.4901 26.4617 29.6509 26.6282C29.8118 26.7947 30.0319 26.8909 30.2633 26.8961C30.3864 26.9099 30.511 26.8978 30.6292 26.8606C30.7473 26.8234 30.8564 26.7618 30.9494 26.68C31.0424 26.5981 31.1173 26.4977 31.1692 26.3852C31.2212 26.2727 31.249 26.1505 31.251 26.0266C31.251 25.7803 31.1532 25.544 30.9791 25.3698C30.8049 25.1957 30.5688 25.0978 30.3225 25.0978H30.3028Z" fill="#959817"/>
<path d="M35.7856 28.4278C35.4663 28.4344 35.1489 28.3771 34.852 28.2594C34.555 28.1417 34.2846 27.9659 34.0565 27.7422C33.8283 27.5186 33.6471 27.2517 33.5234 26.9571C33.3997 26.6625 33.336 26.3462 33.3361 26.0267C33.3303 25.5456 33.4673 25.0735 33.7298 24.6704C33.9923 24.2672 34.3686 23.9511 34.8108 23.762C35.2531 23.5729 35.7415 23.5194 36.2142 23.6082C36.6869 23.697 37.1227 23.9242 37.4662 24.2609C37.8097 24.5977 38.0456 25.0289 38.144 25.4999C38.2424 25.9708 38.1989 26.4604 38.0189 26.9066C37.839 27.3529 37.5307 27.7356 37.1331 28.0064C36.7355 28.2772 36.2666 28.4238 35.7856 28.4278ZM36.6449 25.9971C36.6449 25.7612 36.5513 25.535 36.3846 25.3682C36.2179 25.2015 35.9917 25.1078 35.756 25.1078C35.5202 25.1078 35.2941 25.2015 35.1274 25.3682C34.9607 25.535 34.8671 25.7612 34.8671 25.9971C34.8671 26.2329 34.9607 26.4591 35.1274 26.6259C35.2941 26.7927 35.5202 26.8864 35.756 26.8864C35.9917 26.8864 36.2179 26.7927 36.3846 26.6259C36.5513 26.4591 36.6449 26.2329 36.6449 25.9971Z" fill="#959817"/>
<path d="M43.6068 26.0561C43.6044 26.3752 43.5381 26.6906 43.4119 26.9837C43.2857 27.2768 43.1021 27.5416 42.872 27.7626C42.6419 27.9836 42.3699 28.1563 42.072 28.2705C41.7741 28.3847 41.4564 28.4381 41.1376 28.4275C40.6563 28.4196 40.1882 28.2688 39.7927 27.9942C39.3972 27.7197 39.0922 27.3339 38.9162 26.8857C38.7402 26.4375 38.7013 25.947 38.8044 25.4767C38.9075 25.0063 39.1479 24.5771 39.4951 24.2436C39.8424 23.9101 40.2808 23.6874 40.7548 23.6035C41.2288 23.5197 41.717 23.5786 42.1575 23.7728C42.598 23.9669 42.9709 24.2876 43.229 24.6941C43.487 25.1006 43.6185 25.5747 43.6068 26.0561ZM41.1771 26.896C41.2958 26.9 41.4142 26.8799 41.5249 26.8369C41.6357 26.7938 41.7366 26.7288 41.8215 26.6457C41.9064 26.5626 41.9736 26.4631 42.0191 26.3533C42.0645 26.2434 42.0872 26.1255 42.0858 26.0067C42.0858 25.7656 41.99 25.5344 41.8196 25.3639C41.6492 25.1934 41.4181 25.0976 41.1771 25.0976C40.9461 25.1071 40.7269 25.2026 40.5625 25.3652C40.3981 25.5279 40.3002 25.746 40.2881 25.977C40.2842 26.0963 40.3042 26.2151 40.3471 26.3265C40.39 26.4378 40.4549 26.5394 40.5378 26.6251C40.6207 26.7109 40.7201 26.779 40.8299 26.8256C40.9398 26.8721 41.0578 26.896 41.1771 26.896Z" fill="#959817"/>
<path d="M21.0483 18.1512C21.0483 18.47 20.9853 18.7856 20.8631 19.0799C20.7409 19.3743 20.5618 19.6416 20.336 19.8665C20.1103 20.0915 19.8423 20.2696 19.5476 20.3906C19.2529 20.5117 18.9371 20.5734 18.6185 20.5721C18.2858 20.5872 17.9536 20.534 17.6422 20.4157C17.3309 20.2975 17.0471 20.1168 16.8082 19.8847C16.5693 19.6525 16.3805 19.3739 16.2533 19.0661C16.1261 18.7582 16.0633 18.4275 16.0687 18.0944C16.0741 17.7613 16.1476 17.4328 16.2847 17.1292C16.4218 16.8256 16.6196 16.5533 16.8659 16.329C17.1121 16.1048 17.4017 15.9334 17.7167 15.8253C18.0317 15.7172 18.3655 15.6749 18.6975 15.7007C19.3333 15.7163 19.9371 15.9826 20.3774 16.4416C20.8177 16.9006 21.0589 17.5151 21.0483 18.1512ZM19.5173 18.1512C19.5161 18.0327 19.4912 17.9157 19.444 17.807C19.3969 17.6983 19.3286 17.6001 19.243 17.5181C19.1575 17.4362 19.0564 17.3722 18.9458 17.3299C18.8351 17.2876 18.7171 17.2679 18.5988 17.2718C18.3664 17.2819 18.1467 17.3808 17.985 17.5481C17.8233 17.7154 17.7319 17.9383 17.7296 18.171C17.7321 18.4113 17.8287 18.641 17.9986 18.8109C18.1684 18.9809 18.3981 19.0775 18.6383 19.08C18.7623 19.0804 18.8852 19.0551 18.999 19.0056C19.1128 18.9562 19.2151 18.8837 19.2996 18.7927C19.384 18.7018 19.4487 18.5943 19.4896 18.4771C19.5304 18.3599 19.5466 18.2355 19.5371 18.1117L19.5173 18.1512Z" fill="#959817"/>
<path d="M5.33407 18.1399C5.33146 17.8203 5.39213 17.5034 5.51257 17.2074C5.63301 16.9114 5.81084 16.6422 6.03581 16.4153C6.26078 16.1884 6.52842 16.0083 6.82331 15.8854C7.1182 15.7625 7.4345 15.6993 7.75395 15.6993C8.23729 15.6954 8.71088 15.8352 9.11467 16.101C9.51845 16.3668 9.83422 16.7466 10.0219 17.1922C10.2096 17.6378 10.2607 18.1291 10.1688 18.6038C10.0769 19.0786 9.84617 19.5153 9.50578 19.8586C9.16539 20.2019 8.73073 20.4363 8.25695 20.5321C7.78318 20.6279 7.29164 20.5807 6.84471 20.3966C6.39777 20.2124 6.01559 19.8996 5.74664 19.4979C5.47768 19.0961 5.33408 18.6235 5.33407 18.1399ZM7.74407 19.0391C7.87068 19.0524 7.99868 19.0388 8.11974 18.9995C8.24081 18.9601 8.35226 18.8956 8.44685 18.8104C8.54144 18.7252 8.61708 18.621 8.66885 18.5046C8.72062 18.3883 8.74737 18.2623 8.74737 18.135C8.74737 18.0076 8.72062 17.8817 8.66885 17.7653C8.61708 17.649 8.54144 17.5448 8.44685 17.4595C8.35226 17.3743 8.24081 17.3099 8.11974 17.2705C7.99868 17.2311 7.87068 17.2176 7.74407 17.2309C7.52067 17.2543 7.31384 17.3596 7.16351 17.5266C7.01318 17.6935 6.92998 17.9103 6.92998 18.135C6.92998 18.3597 7.01318 18.5764 7.16351 18.7434C7.31384 18.9104 7.52067 19.0157 7.74407 19.0391Z" fill="#959817"/>
<path d="M10.7754 18.1414C10.7774 17.6635 10.9207 17.1968 11.1873 16.8002C11.454 16.4036 11.832 16.0949 12.2738 15.9129C12.7156 15.7308 13.2013 15.6837 13.6698 15.7775C14.1383 15.8712 14.5685 16.1015 14.9064 16.4395C15.2442 16.7775 15.4745 17.2079 15.5681 17.6766C15.6618 18.1453 15.6148 18.6312 15.4328 19.0732C15.2509 19.5151 14.9423 19.8933 14.5458 20.1601C14.1494 20.4268 13.6829 20.5702 13.2052 20.5722C12.8857 20.5735 12.5692 20.5115 12.2738 20.3898C11.9784 20.2681 11.71 20.0891 11.4841 19.8631C11.2583 19.6371 11.0793 19.3687 10.9577 19.0732C10.8361 18.7777 10.7741 18.461 10.7754 18.1414ZM14.0842 18.1414C14.0816 18.0233 14.0559 17.9069 14.0083 17.7988C13.9607 17.6907 13.8924 17.593 13.8071 17.5113C13.7217 17.4297 13.6212 17.3656 13.5111 17.3228C13.4011 17.28 13.2837 17.2594 13.1657 17.262C12.9851 17.2641 12.8093 17.3199 12.6606 17.4223C12.5119 17.5248 12.3971 17.6692 12.3308 17.8372C12.2645 18.0052 12.2497 18.1891 12.2884 18.3656C12.327 18.542 12.4173 18.7029 12.5477 18.8278C12.6782 18.9526 12.8428 19.0358 13.0207 19.0667C13.1986 19.0975 13.3816 19.0747 13.5465 19.0011C13.7114 18.9274 13.8505 18.8063 13.9463 18.6532C14.0421 18.5001 14.0901 18.3219 14.0842 18.1414Z" fill="#959817"/>
<path d="M24.4761 5.17738C23.36 5.17738 22.2439 5.17738 21.1278 5.17738C21.0014 5.1909 20.8737 5.17295 20.756 5.12513C20.6382 5.0773 20.5341 5.00108 20.453 4.90327C20.3718 4.80545 20.3161 4.68907 20.2908 4.5645C20.2655 4.43992 20.2714 4.31102 20.308 4.18928C20.3491 4.02403 20.4466 3.87832 20.5836 3.77731C20.7207 3.67629 20.8887 3.62629 21.0586 3.63594H27.8935C28.0952 3.63594 28.2887 3.7161 28.4313 3.85878C28.5739 4.00147 28.6541 4.19499 28.6541 4.39678C28.6541 4.59856 28.5739 4.79209 28.4313 4.93477C28.2887 5.07746 28.0952 5.15762 27.8935 5.15762C26.7281 5.18726 25.5922 5.17738 24.4761 5.17738Z" fill="#959817"/>
</svg>
