<svg width="35" height="40" viewBox="0 0 35 40" fill="none" xmlns="http://www.w3.org/2000/svg">
<path d="M34.0001 25.4749C34.0001 28.7321 34.0001 31.9893 34.0001 35.2466C34.0294 36.3131 33.6865 37.3565 33.0303 38.1983C32.374 39.0401 31.4452 39.6279 30.4028 39.861C30.0583 39.9455 29.705 39.9886 29.3503 39.9893C27.3292 39.9893 25.3131 39.9893 23.2921 39.9893C22.9884 40.0116 22.685 39.9427 22.4209 39.7914C22.1567 39.6401 21.9439 39.4135 21.8097 39.1405C21.6749 38.8981 21.6131 38.622 21.6315 38.3454C21.6499 38.0688 21.7478 37.8034 21.9134 37.5809C22.0573 37.3655 22.2542 37.1906 22.4852 37.073C22.7163 36.9555 22.9737 36.8993 23.2328 36.9098H29.0488C30.3089 36.9098 30.8871 36.3323 30.8871 35.0788C30.8871 28.663 30.8871 22.2473 30.8871 15.8315C30.9018 15.5258 30.8452 15.2209 30.7217 14.9408C30.5982 14.6607 30.4112 14.4132 30.1755 14.2177C26.2487 10.7696 22.3269 7.31497 18.41 3.85375L18.153 3.63166C17.3426 2.94073 16.6261 2.94073 15.8157 3.63166C12.729 6.34931 9.64391 9.0719 6.56046 11.7994C5.62654 12.6187 4.7025 13.4527 3.76363 14.267C3.54947 14.4386 3.3785 14.6578 3.26438 14.9072C3.15026 15.1566 3.09616 15.4292 3.10642 15.7032C3.12047 16.2201 3.10727 16.7373 3.06689 17.2528C3.03475 17.6112 2.87308 17.9455 2.61208 18.1935C2.35109 18.4414 2.00863 18.586 1.6487 18.6001C1.29672 18.6357 0.944225 18.5377 0.661313 18.3255C0.3784 18.1134 0.185795 17.8027 0.121803 17.4552C-0.0659708 15.9746 -0.145031 14.4941 0.714775 13.1418C0.991275 12.7117 1.32359 12.3201 1.70306 11.9771C5.72207 8.41059 9.74933 4.85395 13.7848 1.30718C14.6434 0.469177 15.7962 0 16.9967 0C18.1972 0 19.3501 0.469177 20.2087 1.30718C24.2211 4.8375 28.2286 8.36946 32.2311 11.9031C32.7957 12.3758 33.2462 12.9697 33.5491 13.6405C33.852 14.3112 33.9994 15.0416 33.9804 15.7772C33.9952 19.0246 34.0001 22.2473 34.0001 25.4749Z" fill="#C305D3"/>
<path d="M4.24793 21.092C4.77172 21.3536 5.23621 21.5855 5.73035 21.8224C5.86613 21.8957 6.01857 21.9326 6.17286 21.9295C6.32714 21.9265 6.47802 21.8837 6.61083 21.8052C6.74363 21.7267 6.85384 21.6152 6.93074 21.4816C7.00765 21.348 7.04863 21.1968 7.04971 21.0427V20.9983C6.95088 19.1229 7.60314 18.812 9.13992 18.5652C10.5463 18.3361 11.9844 18.3898 13.3698 18.7231C13.7592 18.7771 14.1139 18.9758 14.3631 19.2795C14.6122 19.5832 14.7375 19.9697 14.7138 20.3616C14.7138 20.5047 14.7138 20.6479 14.7138 20.7959C14.7138 21.5658 14.7781 21.6744 15.5045 21.9557C15.6375 21.9846 15.7764 21.9635 15.8948 21.8965C16.1963 21.7484 16.4779 21.551 16.7794 21.4029C17.073 21.2425 17.4116 21.1836 17.7423 21.2354C18.073 21.2871 18.3772 21.4467 18.6077 21.6892C19.8838 22.9803 20.8016 24.5807 21.2711 26.3332C21.3594 26.6385 21.3471 26.9641 21.2358 27.2618C21.1246 27.5595 20.9204 27.8136 20.6534 27.9865C20.4466 28.1387 20.2248 28.2694 19.9913 28.3764C19.8121 28.4391 19.661 28.5633 19.5651 28.7269C19.4691 28.8905 19.4345 29.0829 19.4675 29.2697C19.4465 29.4264 19.4796 29.5856 19.5613 29.7211C19.6431 29.8566 19.7686 29.9602 19.9171 30.0149C20.1816 30.1378 20.4332 30.2866 20.6682 30.459C20.9255 30.63 21.1229 30.8769 21.2328 31.1654C21.3426 31.4539 21.3595 31.7694 21.281 32.0679C20.8134 33.8382 19.8861 35.4538 18.5929 36.7514C18.3639 36.9968 18.0584 37.1573 17.7262 37.2066C17.3941 37.2559 17.055 37.1911 16.7645 37.0229C16.5897 36.944 16.424 36.8464 16.2704 36.7317C16.1104 36.5749 15.8965 36.4851 15.6724 36.4805C15.4484 36.4759 15.231 36.5569 15.0647 36.707C14.9551 36.7639 14.864 36.8507 14.8019 36.9573C14.7398 37.0639 14.7093 37.1859 14.7138 37.3091C14.7138 39.2832 14.4865 39.53 12.5001 39.8655C11.1261 40.0885 9.7212 40.0332 8.36906 39.7027C7.9876 39.6454 7.6415 39.4474 7.39907 39.1477C7.15665 38.848 7.03552 38.4685 7.05959 38.0839C7.04229 37.8424 7.04229 37.6 7.05959 37.3585C7.09912 37.0229 6.941 36.8649 6.66428 36.6823C6.5156 36.5492 6.32291 36.4755 6.12319 36.4755C5.92347 36.4755 5.73079 36.5492 5.58211 36.6823C5.40057 36.8151 5.20504 36.9276 4.99902 37.0179C4.70183 37.1917 4.35334 37.2566 4.01341 37.2017C3.67347 37.1468 3.36328 36.9754 3.13611 36.7169C1.88572 35.4469 0.980843 33.8789 0.507273 32.1617C0.392373 31.8298 0.399363 31.4678 0.526994 31.1406C0.654625 30.8133 0.894585 30.542 1.20401 30.3751C1.36027 30.2644 1.52557 30.167 1.69816 30.084C1.9023 30.024 2.07581 29.8884 2.18326 29.705C2.29071 29.5215 2.32399 29.304 2.2763 29.0969C2.28796 28.9491 2.25271 28.8014 2.17554 28.6747C2.09837 28.548 1.98321 28.4488 1.8464 28.3912C1.59707 28.2769 1.35886 28.1397 1.13483 27.9816C0.847352 27.8102 0.626407 27.5467 0.507971 27.234C0.389535 26.9212 0.380583 26.5777 0.482568 26.2592C0.947511 24.522 1.86675 22.9397 3.14599 21.6744C3.48353 21.4286 3.85463 21.2325 4.24793 21.092ZM4.55924 33.6916L5.20656 33.3215C6.09107 32.8279 6.56051 32.8724 7.38078 33.4695C7.80401 33.7902 8.26138 34.0633 8.74461 34.2838C9.86631 34.7773 10.1233 35.0833 10.0887 36.2826C10.0887 36.7761 10.2073 36.934 10.7014 36.9242C11.5958 36.9242 11.6057 36.9242 11.6057 36.0112C11.5879 35.679 11.6733 35.3495 11.8502 35.0677C12.0271 34.7859 12.2869 34.5655 12.594 34.4368C13.2531 34.1041 13.8932 33.7351 14.5112 33.3313C14.7604 33.1362 15.0617 33.019 15.3773 32.9944C15.6929 32.9698 16.0088 33.039 16.2852 33.1932C16.5669 33.3412 16.8386 33.5041 17.1598 33.6867L17.8961 32.4035L17.0808 31.91C16.8099 31.7626 16.5883 31.5391 16.4433 31.2672C16.2984 30.9952 16.2366 30.6868 16.2654 30.3801C16.2951 29.5756 16.2654 28.7761 16.2654 27.9766C16.2434 27.6804 16.306 27.3841 16.446 27.122C16.586 26.8599 16.7975 26.6428 17.0561 26.4961C17.313 26.3381 17.5799 26.1901 17.901 26.0026L17.1549 24.7243L16.4038 25.1488C16.1037 25.3416 15.7495 25.4328 15.3934 25.4088C15.0374 25.3848 14.6986 25.2469 14.4272 25.0155C13.8572 24.6269 13.2575 24.2836 12.6335 23.989C12.3299 23.873 12.0695 23.6662 11.8882 23.3967C11.7068 23.1272 11.6133 22.8083 11.6205 22.4837C11.6205 22.1827 11.6205 21.8817 11.6205 21.5609H10.0986C10.0986 21.8619 10.0986 22.1185 10.0986 22.3752C10.1287 22.7405 10.0322 23.1051 9.82534 23.4079C9.61844 23.7106 9.31365 23.9332 8.96203 24.0383C8.56185 24.1631 8.18586 24.355 7.85021 24.6059C6.78781 25.5633 5.73529 25.7212 4.58888 24.67L3.81802 25.9927C4.13921 26.1852 4.41593 26.3431 4.68277 26.4862C4.93716 26.6358 5.14403 26.8542 5.27954 27.1162C5.41506 27.3781 5.47369 27.673 5.44869 27.9668C5.44869 28.7811 5.44869 29.6003 5.44869 30.4344C5.47466 30.7272 5.41752 31.0213 5.2838 31.2832C5.15009 31.5451 4.94521 31.764 4.69265 31.9149C4.42087 32.0827 4.14416 32.2407 3.82297 32.4084L4.55924 33.6916Z" fill="#C305D3"/>
</svg>
