<svg width="32" height="40" viewBox="0 0 32 40" fill="none" xmlns="http://www.w3.org/2000/svg">
<path d="M29.0675 30.7582C29.599 30.312 30.0329 29.7647 30.3428 29.1493C30.6528 28.5339 30.8323 27.8633 30.8707 27.1778C30.9091 26.4924 30.8055 25.8064 30.5661 25.1613C30.3268 24.5163 29.9568 23.9256 29.4783 23.4249C28.9998 22.9243 28.4228 22.5241 27.7822 22.2485C27.1417 21.9729 26.4511 21.8277 25.7517 21.8216C25.0524 21.8155 24.3591 21.9487 23.7137 22.2131C23.0683 22.4775 22.4842 22.8676 21.9968 23.3599C21.4918 22.1903 20.648 21.1921 19.5701 20.4892C18.4922 19.7863 17.2277 19.4097 15.9336 19.4063C14.6396 19.4028 13.3731 19.7726 12.2913 20.4697C11.2095 21.1668 10.3602 22.1604 9.84875 23.3273C9.35771 22.8349 8.76973 22.4457 8.12059 22.1834C7.47145 21.9211 6.77477 21.7911 6.07286 21.8015C5.37096 21.8119 4.67857 21.9624 4.03779 22.2439C3.39701 22.5253 2.82122 22.9317 2.34555 23.4385C1.86988 23.9453 1.50421 24.5418 1.27083 25.1917C1.03745 25.8416 0.941275 26.5313 0.988054 27.2188C1.03483 27.9064 1.22351 28.5774 1.54286 29.1911C1.86221 29.8048 2.3055 30.3482 2.8456 30.7884C0.91619 32.2236 0.138315 34.7946 0.00385957 36.3856C-0.0210004 36.6815 0.0749713 36.9751 0.270443 37.2017C0.465914 37.4283 0.744899 37.5694 1.04635 37.5942C1.0789 37.5942 1.11038 37.5984 1.14173 37.5984C1.4278 37.598 1.70329 37.4922 1.91366 37.3019C2.12403 37.1116 2.25382 36.8507 2.27755 36.5708C2.29322 36.3832 2.70454 31.9744 6.16059 31.9733C6.8608 31.9593 7.54879 32.1543 8.13369 32.5324C8.7186 32.9105 9.17279 33.454 9.43629 34.091C8.63075 35.5424 8.1349 37.1398 7.97898 38.7856C7.95372 39.0816 8.04935 39.3753 8.24468 39.6021C8.44002 39.8289 8.71908 39.9703 9.02059 39.9951C9.3221 40.0199 9.62136 39.9261 9.85243 39.7343C10.0835 39.5426 10.2274 39.2686 10.2527 38.9727C10.409 37.5199 10.8728 36.1152 11.6141 34.8486C11.6622 34.7889 11.7036 34.7244 11.7378 34.6562C12.1723 33.9531 12.7859 33.3734 13.5184 32.9743C14.2508 32.5753 15.0767 32.3705 15.9144 32.3805C21.131 32.3805 21.7236 38.6986 21.7465 38.9655C21.769 39.2463 21.8984 39.5084 22.1089 39.6997C22.3194 39.891 22.5956 39.9974 22.8825 39.9977C22.9126 39.9977 22.9429 39.9978 22.973 39.9942C23.2745 39.9708 23.5542 39.8309 23.7507 39.6051C23.9472 39.3794 24.0443 39.0863 24.0208 38.7903C23.8711 37.1413 23.3715 35.5414 22.5539 34.0933C23.2654 32.6681 24.3025 31.9733 25.7121 31.9727C29.2864 31.9727 29.7059 36.3809 29.7222 36.5655C29.7445 36.8463 29.8739 37.1086 30.0845 37.2999C30.295 37.4912 30.5713 37.5976 30.8582 37.5978C30.8877 37.5978 30.9186 37.5977 30.9493 37.5942C31.2508 37.5707 31.5304 37.4308 31.7268 37.2051C31.9232 36.9794 32.0201 36.6863 31.9965 36.3903C31.8717 34.7882 31.0777 32.1869 29.0675 30.7582ZM25.7145 24.0488C26.2869 24.0488 26.8465 24.2154 27.3224 24.5276C27.7983 24.8397 28.1692 25.2834 28.3883 25.8025C28.6073 26.3217 28.6647 26.8929 28.553 27.444C28.4413 27.9951 28.1657 28.5012 27.7609 28.8986C27.3562 29.2959 26.8406 29.5665 26.2792 29.6761C25.7178 29.7857 25.1358 29.7294 24.607 29.5144C24.0781 29.2994 23.6262 28.9353 23.3082 28.4681C22.9902 28.0009 22.8204 27.4516 22.8204 26.8898C22.8221 26.1368 23.1278 25.4152 23.6703 24.8828C24.2128 24.3505 24.948 24.0508 25.7151 24.0494L25.7145 24.0488ZM15.915 21.6488C16.7707 21.6487 17.6073 21.8977 18.3189 22.3643C19.0305 22.8309 19.5851 23.4942 19.9127 24.2703C20.2402 25.0464 20.3261 25.9003 20.1592 26.7242C19.9924 27.5481 19.5802 28.305 18.9751 28.899C18.3701 29.493 17.5992 29.8976 16.7599 30.0616C15.9206 30.2255 15.0506 30.1414 14.26 29.82C13.4693 29.4985 12.7935 28.9542 12.3181 28.2557C11.8426 27.5572 11.5888 26.7361 11.5888 25.896C11.5901 24.77 12.0464 23.6905 12.8576 22.8944C13.6687 22.0982 14.7685 21.6505 15.9155 21.6494L15.915 21.6488ZM6.16059 24.0488C6.733 24.0488 7.29255 24.2154 7.76848 24.5276C8.24442 24.8397 8.61533 25.2834 8.83438 25.8025C9.05342 26.3217 9.11076 26.8929 8.99909 27.444C8.88742 27.9951 8.61175 28.5012 8.207 28.8986C7.80225 29.2959 7.28652 29.5665 6.72511 29.6761C6.16371 29.7857 5.58187 29.7294 5.05304 29.5144C4.52421 29.2994 4.07214 28.9353 3.75413 28.4681C3.43612 28.0009 3.26645 27.4516 3.26645 26.8898C3.2682 26.1369 3.57371 25.4153 4.1161 24.883C4.65849 24.3507 5.39362 24.0509 6.16059 24.0494V24.0488ZM9.51357 30.7582C9.90355 30.4316 10.2422 30.0503 10.5187 29.6265C10.9564 30.2347 11.4967 30.7649 12.1164 31.1943C11.6776 31.4702 11.271 31.7925 10.9039 32.1555C10.5225 31.6174 10.0527 31.1452 9.51357 30.7582ZM19.7636 31.1589C20.3749 30.728 20.9073 30.1985 21.3383 29.5928C21.6277 30.0456 21.9876 30.451 22.405 30.7943C21.8894 31.1792 21.4402 31.643 21.0748 32.168C20.6784 31.7828 20.2377 31.4441 19.7616 31.1589H19.7636Z" fill="#0092FF"/>
<path d="M30.1568 9.73911V20.2334C30.1568 20.3802 30.0974 20.521 29.9917 20.6248C29.886 20.7285 29.7426 20.7868 29.5931 20.7868H27.9223C27.7728 20.7868 27.6294 20.7285 27.5237 20.6248C27.418 20.521 27.3586 20.3802 27.3586 20.2334V10.1392H22.819V19.3131C22.8191 19.3858 22.8046 19.4578 22.7763 19.525C22.748 19.5921 22.7065 19.6532 22.6541 19.7046C22.6017 19.756 22.5396 19.7967 22.4711 19.8245C22.4027 19.8523 22.3293 19.8666 22.2553 19.8665H20.5852C20.5111 19.8666 20.4378 19.8523 20.3693 19.8245C20.3009 19.7967 20.2387 19.756 20.1863 19.7046C20.134 19.6532 20.0925 19.5921 20.0641 19.525C20.0358 19.4578 20.0213 19.3858 20.0214 19.3131V2.7486H11.3656V19.3113C11.3657 19.384 11.3511 19.456 11.3228 19.5232C11.2945 19.5904 11.253 19.6514 11.2006 19.7028C11.1483 19.7542 11.0861 19.795 11.0177 19.8228C10.9492 19.8505 10.8759 19.8648 10.8018 19.8647H9.13109C9.05703 19.8648 8.98371 19.8505 8.91527 19.8228C8.84684 19.795 8.78465 19.7542 8.73228 19.7028C8.67992 19.6514 8.63841 19.5904 8.6101 19.5232C8.5818 19.456 8.56726 19.384 8.56734 19.3113V10.1374H4.23643V20.2317C4.23643 20.3784 4.17703 20.5192 4.07131 20.623C3.96558 20.7268 3.8222 20.7851 3.67268 20.7851H2.00194C1.85242 20.7851 1.70902 20.7268 1.60329 20.623C1.49757 20.5192 1.43817 20.3784 1.43817 20.2317V9.73911C1.41912 9.44638 1.45968 9.15286 1.5575 8.8757C1.65531 8.59853 1.80842 8.34328 2.00786 8.12485C2.20731 7.90642 2.4491 7.7292 2.71911 7.60354C2.98911 7.47787 3.28192 7.40629 3.58042 7.39297H8.56795V2.34614C8.54913 2.05413 8.5896 1.76136 8.68698 1.48482C8.78436 1.20829 8.93672 0.953472 9.13523 0.735206C9.33374 0.516939 9.57445 0.339562 9.84336 0.213351C10.1123 0.08714 10.4041 0.0146223 10.7018 0H20.6846C20.9823 0.0146223 21.2741 0.08714 21.543 0.213351C21.812 0.339562 22.0526 0.516939 22.2512 0.735206C22.4497 0.953472 22.602 1.20829 22.6994 1.48482C22.7968 1.76136 22.8373 2.05413 22.8185 2.34614V7.3906H28.014C28.3126 7.40423 28.6055 7.47609 28.8756 7.602C29.1456 7.72791 29.3874 7.90534 29.5869 8.12395C29.7863 8.34255 29.9395 8.59796 30.0373 8.87526C30.1352 9.15257 30.1758 9.44623 30.1568 9.73911Z" fill="#0092FF"/>
<path d="M18.6281 8.39715H12.9044C12.8464 8.39715 12.7907 8.37451 12.7497 8.33422C12.7086 8.29393 12.6855 8.23928 12.6855 8.1823V4.2168C12.6855 4.15982 12.7086 4.10517 12.7497 4.06488C12.7907 4.02459 12.8464 4.00195 12.9044 4.00195H18.6281C18.6862 4.00195 18.7419 4.02459 18.7829 4.06488C18.8239 4.10517 18.847 4.15982 18.847 4.2168V8.1823C18.847 8.23928 18.8239 8.29393 18.7829 8.33422C18.7419 8.37451 18.6862 8.39715 18.6281 8.39715ZM14.9026 6.82812H16.63C16.688 6.82812 16.7437 6.80548 16.7848 6.76519C16.8258 6.7249 16.8489 6.67025 16.8489 6.61327V5.78466C16.8489 5.72768 16.8258 5.67303 16.7848 5.63274C16.7437 5.59245 16.688 5.56981 16.63 5.56981H14.9026C14.8445 5.56981 14.7889 5.59245 14.7478 5.63274C14.7068 5.67303 14.6837 5.72768 14.6837 5.78466V6.61327C14.6837 6.64153 14.6894 6.66951 14.7004 6.69561C14.7115 6.72172 14.7276 6.74543 14.748 6.76539C14.7684 6.78534 14.7926 6.80117 14.8192 6.81193C14.8458 6.8227 14.8744 6.82819 14.9032 6.82812H14.9026Z" fill="#0092FF"/>
<path d="M14.1477 10.2441H12.87C12.7682 10.2441 12.6855 10.3252 12.6855 10.4253V11.6794C12.6855 11.7794 12.7682 11.8605 12.87 11.8605H14.1477C14.2496 11.8605 14.3322 11.7794 14.3322 11.6794V10.4253C14.3322 10.3252 14.2496 10.2441 14.1477 10.2441Z" fill="#0092FF"/>
<path d="M16.4055 10.2441H15.1279C15.026 10.2441 14.9434 10.3252 14.9434 10.4253V11.6794C14.9434 11.7794 15.026 11.8605 15.1279 11.8605H16.4055C16.5074 11.8605 16.59 11.7794 16.59 11.6794V10.4253C16.59 10.3252 16.5074 10.2441 16.4055 10.2441Z" fill="#0092FF"/>
<path d="M18.6613 10.2441H17.3837C17.2818 10.2441 17.1992 10.3252 17.1992 10.4253V11.6794C17.1992 11.7794 17.2818 11.8605 17.3837 11.8605H18.6613C18.7632 11.8605 18.8458 11.7794 18.8458 11.6794V10.4253C18.8458 10.3252 18.7632 10.2441 18.6613 10.2441Z" fill="#0092FF"/>
<path d="M14.1477 13.4316H12.87C12.7682 13.4316 12.6855 13.5127 12.6855 13.6128V14.8669C12.6855 14.9669 12.7682 15.048 12.87 15.048H14.1477C14.2496 15.048 14.3322 14.9669 14.3322 14.8669V13.6128C14.3322 13.5127 14.2496 13.4316 14.1477 13.4316Z" fill="#0092FF"/>
<path d="M16.4055 13.4316H15.1279C15.026 13.4316 14.9434 13.5127 14.9434 13.6128V14.8669C14.9434 14.9669 15.026 15.048 15.1279 15.048H16.4055C16.5074 15.048 16.59 14.9669 16.59 14.8669V13.6128C16.59 13.5127 16.5074 13.4316 16.4055 13.4316Z" fill="#0092FF"/>
<path d="M18.6613 13.4316H17.3837C17.2818 13.4316 17.1992 13.5127 17.1992 13.6128V14.8669C17.1992 14.9669 17.2818 15.048 17.3837 15.048H18.6613C18.7632 15.048 18.8458 14.9669 18.8458 14.8669V13.6128C18.8458 13.5127 18.7632 13.4316 18.6613 13.4316Z" fill="#0092FF"/>
<path d="M14.1477 16.6133H12.87C12.7682 16.6133 12.6855 16.6944 12.6855 16.7944V18.0486C12.6855 18.1486 12.7682 18.2297 12.87 18.2297H14.1477C14.2496 18.2297 14.3322 18.1486 14.3322 18.0486V16.7944C14.3322 16.6944 14.2496 16.6133 14.1477 16.6133Z" fill="#0092FF"/>
<path d="M16.4055 16.6133H15.1279C15.026 16.6133 14.9434 16.6944 14.9434 16.7944V18.0486C14.9434 18.1486 15.026 18.2297 15.1279 18.2297H16.4055C16.5074 18.2297 16.59 18.1486 16.59 18.0486V16.7944C16.59 16.6944 16.5074 16.6133 16.4055 16.6133Z" fill="#0092FF"/>
<path d="M18.6613 16.6133H17.3837C17.2818 16.6133 17.1992 16.6944 17.1992 16.7944V18.0486C17.1992 18.1486 17.2818 18.2297 17.3837 18.2297H18.6613C18.7632 18.2297 18.8458 18.1486 18.8458 18.0486V16.7944C18.8458 16.6944 18.7632 16.6133 18.6613 16.6133Z" fill="#0092FF"/>
</svg>
