<svg width="24" height="40" viewBox="0 0 24 40" fill="none" xmlns="http://www.w3.org/2000/svg">
<path d="M0 20V3.86133C0 1.47773 1.4653 0 3.82579 0H20.1942C22.5297 0 24 1.48279 24 3.84109V36.1589C24 38.5121 22.5247 40 20.1942 40H3.78579C1.49031 40 0.00499829 38.4818 0.00499829 36.1842L0 20ZM6.35132 1.45243H3.77579C2.27548 1.45243 1.4103 2.31275 1.4103 3.86133V33.3249C1.4103 34.8988 2.25047 35.7389 3.8158 35.7389H20.1392C21.7845 35.7389 22.5897 34.919 22.5897 33.2389V3.92712C22.5897 3.79554 22.5897 3.6589 22.5897 3.52732C22.5924 3.0225 22.4122 2.53416 22.0833 2.15464C21.7543 1.77512 21.2993 1.53071 20.8043 1.46761C19.7691 1.38158 18.7239 1.46761 17.6487 1.46761C17.6487 1.73077 17.6487 1.97368 17.6487 2.20142C17.6436 2.75199 17.4265 3.27886 17.0436 3.67008C16.6608 4.0613 16.1423 4.28604 15.5982 4.29656C13.2011 4.3168 10.8056 4.3168 8.41176 4.29656C7.86775 4.28604 7.34922 4.0613 6.96635 3.67008C6.58348 3.27886 6.36643 2.75199 6.36133 2.20142C6.35132 1.94838 6.35633 1.71053 6.35633 1.42713L6.35132 1.45243ZM1.4253 36.4625C1.41811 36.5856 1.41811 36.7089 1.4253 36.832C1.51744 37.3505 1.79442 37.8167 2.20371 38.1423C2.61299 38.4678 3.12612 38.63 3.64576 38.5982H20.6243C21.1456 38.5595 21.6325 38.3203 21.9849 37.9297C22.3374 37.5391 22.5288 37.0268 22.5197 36.498C21.6545 37.1559 20.6643 37.1812 19.6541 37.1812C14.5397 37.1812 9.42363 37.1812 4.3059 37.1812C3.31569 37.1508 2.33049 37.1204 1.4303 36.4372L1.4253 36.4625ZM16.2334 1.48279H7.77162C7.77162 1.71559 7.77162 1.91801 7.77162 2.1255C7.7648 2.22651 7.77963 2.32782 7.81506 2.4225C7.85049 2.51719 7.9057 2.60301 7.97692 2.67412C8.04814 2.74523 8.13369 2.79994 8.22772 2.83452C8.32175 2.86911 8.42205 2.88274 8.52177 2.87449C10.8556 2.87449 13.1744 2.87449 15.4782 2.87449C15.5783 2.8842 15.6792 2.87183 15.7741 2.83824C15.869 2.80465 15.9556 2.75063 16.0278 2.67992C16.1001 2.6092 16.1563 2.52347 16.1927 2.42863C16.229 2.33379 16.2446 2.23209 16.2384 2.13057C16.2484 1.90283 16.2384 1.69534 16.2384 1.45749L16.2334 1.48279Z" fill="#FB5A5A"/>
<path d="M12.0038 20.0007H5.21239C4.46223 20.0007 4.24219 19.7781 4.24219 19.019C4.24219 16.8175 4.24219 14.6161 4.24219 12.4147C4.24563 12.1491 4.30353 11.8872 4.41223 11.6455C5.04736 10.3246 5.7125 9.01389 6.34763 7.69304C6.42125 7.51446 6.54915 7.36423 6.7128 7.26414C6.87645 7.16405 7.06734 7.1193 7.25781 7.13636C10.4185 7.13636 13.5858 7.13636 16.7598 7.13636C16.9572 7.12067 17.1543 7.16981 17.3218 7.27647C17.4894 7.38314 17.6185 7.54165 17.69 7.72847C18.3151 9.02401 18.9703 10.3044 19.5904 11.605C19.7102 11.8562 19.775 12.1307 19.7804 12.4096C19.7804 14.6262 19.7804 16.8428 19.7804 19.0645C19.7804 19.7629 19.5454 20.0007 18.8552 20.0007H12.0038ZM18.3201 18.5483V12.8803H9.91337V18.5382H11.2987V15.2082C11.2987 14.5351 11.5387 14.2872 12.1988 14.2872C13.4341 14.2872 14.6694 14.2872 15.9046 14.2872C16.7498 14.2872 16.9448 14.4845 16.9498 15.2993V18.523L18.3201 18.5483ZM8.21801 8.59385C8.6381 9.44405 9.04819 10.2386 9.42327 11.0584C9.46468 11.181 9.54633 11.2855 9.65461 11.3545C9.76289 11.4236 9.89127 11.453 10.0184 11.438C12.5189 11.438 14.9844 11.438 17.4649 11.438C17.595 11.438 17.72 11.438 17.905 11.438C17.4849 10.5878 17.0749 9.78819 16.6948 8.97341C16.6534 8.85086 16.5717 8.74635 16.4634 8.6773C16.3552 8.60824 16.2268 8.57879 16.0997 8.59385C13.5991 8.59385 11.1386 8.59385 8.65311 8.59385C8.53308 8.57361 8.40806 8.58373 8.22302 8.59385H8.21801ZM7.06277 9.45924C6.60768 10.3752 6.1926 11.19 5.80252 12.02C5.7106 12.2183 5.65956 12.4336 5.65248 12.6526C5.65248 14.4947 5.65248 16.3368 5.65248 18.1789C5.65248 18.3054 5.65248 18.4319 5.65248 18.5483H8.42806C8.43195 18.486 8.43195 18.4234 8.42806 18.3611C8.42806 16.4177 8.42806 14.4694 8.42806 12.526C8.4348 12.4223 8.41768 12.3183 8.37805 12.2224C8.00297 11.3317 7.55288 10.4461 7.06778 9.45924H7.06277ZM15.5045 18.5685V15.7497H12.744V18.5685H15.5045Z" fill="#FB5A5A"/>
<path d="M14.8277 32.8581H10.7719C10.1368 32.8581 9.89172 32.6051 9.88672 31.9674V28.0352C9.88672 27.3925 10.1318 27.1445 10.7669 27.1445H18.8836C19.5187 27.1445 19.7688 27.3925 19.7688 28.0302C19.7688 29.3392 19.7688 30.6499 19.7688 31.9623C19.7688 32.6051 19.5187 32.853 18.8886 32.8581H14.8277ZM11.327 28.5868V31.4006H18.3285V28.602L11.327 28.5868Z" fill="#FB5A5A"/>
<path d="M15.139 22.8588H11.5032C10.9431 22.8588 10.623 22.5905 10.623 22.1452C10.623 21.6999 10.9431 21.4367 11.5032 21.4316H18.9148C19.4699 21.4316 19.79 21.6999 19.79 22.1452C19.79 22.5905 19.4699 22.8588 18.9148 22.8588H15.139Z" fill="#FB5A5A"/>
<path d="M8.78319 25.7123C7.56294 25.7123 6.34269 25.7123 5.12243 25.7123C4.56732 25.7123 4.24724 25.4441 4.24224 24.9987C4.23724 24.5534 4.56732 24.2852 5.12243 24.2852H12.534C13.0891 24.2852 13.4142 24.5534 13.4142 24.9987C13.4142 25.4441 13.0891 25.7123 12.534 25.7123C11.2837 25.7173 10.0335 25.7123 8.78319 25.7123Z" fill="#FB5A5A"/>
<path d="M6.69775 22.8572C6.13763 22.8572 5.58252 22.8572 5.0224 22.8572C4.92301 22.8672 4.82266 22.8559 4.7279 22.8239C4.63314 22.792 4.5461 22.7402 4.47247 22.6719C4.39885 22.6036 4.34029 22.5203 4.30061 22.4276C4.26094 22.3348 4.24105 22.2346 4.24224 22.1336C4.24399 22.0363 4.26539 21.9404 4.30512 21.8517C4.34486 21.7631 4.40208 21.6837 4.47328 21.6183C4.54448 21.5528 4.62814 21.5029 4.71914 21.4714C4.81013 21.4399 4.90653 21.4276 5.0024 21.4352C6.13763 21.4352 7.26787 21.4352 8.40311 21.4352C8.50227 21.4251 8.6024 21.4365 8.69691 21.4685C8.79142 21.5005 8.87816 21.5524 8.9514 21.6207C9.02465 21.6891 9.08273 21.7724 9.12184 21.8652C9.16094 21.958 9.18018 22.058 9.17827 22.1589C9.17558 22.2599 9.15198 22.3593 9.10901 22.4506C9.06604 22.5419 9.00465 22.623 8.92879 22.6888C8.85293 22.7546 8.76429 22.8036 8.66858 22.8326C8.57287 22.8616 8.47222 22.87 8.3731 22.8572C7.81799 22.8623 7.25787 22.8572 6.69775 22.8572Z" fill="#FB5A5A"/>
<path d="M17.2547 25.7154C16.7146 25.7154 16.1695 25.7154 15.6244 25.7154C15.5247 25.7274 15.4237 25.7179 15.3279 25.6876C15.2321 25.6572 15.1438 25.6067 15.0688 25.5392C14.9937 25.4718 14.9336 25.389 14.8925 25.2964C14.8513 25.2038 14.8301 25.1034 14.8301 25.0018C14.8301 24.9003 14.8513 24.7999 14.8925 24.7072C14.9336 24.6146 14.9937 24.5319 15.0688 24.4644C15.1438 24.397 15.2321 24.3464 15.3279 24.3161C15.4237 24.2857 15.5247 24.2762 15.6244 24.2883H18.9751C19.0747 24.2762 19.1757 24.2857 19.2715 24.3161C19.3673 24.3464 19.4556 24.397 19.5306 24.4644C19.6057 24.5319 19.6658 24.6146 19.7069 24.7072C19.7481 24.7999 19.7693 24.9003 19.7693 25.0018C19.7693 25.1034 19.7481 25.2038 19.7069 25.2964C19.6658 25.389 19.6057 25.4718 19.5306 25.5392C19.4556 25.6067 19.3673 25.6572 19.2715 25.6876C19.1757 25.7179 19.0747 25.7274 18.9751 25.7154C18.4049 25.7204 17.8298 25.7154 17.2547 25.7154Z" fill="#FB5A5A"/>
<path d="M6.35633 28.5711C5.90124 28.5711 5.44614 28.5711 4.99104 28.5711C4.89379 28.5794 4.79589 28.5672 4.70354 28.5352C4.61119 28.5033 4.5264 28.4522 4.45454 28.3854C4.38268 28.3186 4.32531 28.2374 4.28607 28.1469C4.24683 28.0565 4.22656 27.9588 4.22656 27.86C4.22656 27.7613 4.24683 27.6636 4.28607 27.5732C4.32531 27.4827 4.38268 27.4015 4.45454 27.3347C4.5264 27.2678 4.61119 27.2168 4.70354 27.1849C4.79589 27.1529 4.89379 27.1407 4.99104 27.149C5.90123 27.149 6.81142 27.149 7.72661 27.149C7.82387 27.1407 7.92177 27.1529 8.01412 27.1849C8.10648 27.2168 8.19126 27.2678 8.26312 27.3347C8.33498 27.4015 8.39234 27.4827 8.43159 27.5732C8.47083 27.6636 8.49109 27.7613 8.49109 27.86C8.49109 27.9588 8.47083 28.0565 8.43159 28.1469C8.39234 28.2374 8.33498 28.3186 8.26312 28.3854C8.19126 28.4522 8.10648 28.5033 8.01412 28.5352C7.92177 28.5672 7.82387 28.5794 7.72661 28.5711C7.26652 28.6014 6.81143 28.5711 6.35633 28.5711Z" fill="#FB5A5A"/>
<path d="M6.35719 30.0006C6.81228 30.0006 7.27237 30.0006 7.72747 30.0006C7.82472 29.9923 7.92263 30.0045 8.01498 30.0365C8.10733 30.0684 8.19212 30.1194 8.26398 30.1863C8.33584 30.2531 8.3932 30.3343 8.43244 30.4247C8.47168 30.5152 8.49195 30.6129 8.49195 30.7116C8.49195 30.8104 8.47168 30.9081 8.43244 30.9985C8.3932 31.089 8.33584 31.1702 8.26398 31.237C8.19212 31.3038 8.10733 31.3548 8.01498 31.3868C7.92263 31.4188 7.82472 31.431 7.72747 31.4227C6.81728 31.4227 5.90709 31.4227 4.9969 31.4227C4.89965 31.431 4.80174 31.4188 4.70939 31.3868C4.61704 31.3548 4.53225 31.3038 4.46039 31.237C4.38853 31.1702 4.33116 31.089 4.29192 30.9985C4.25268 30.9081 4.23242 30.8104 4.23242 30.7116C4.23242 30.6129 4.25268 30.5152 4.29192 30.4247C4.33116 30.3343 4.38853 30.2531 4.46039 30.1863C4.53225 30.1194 4.61704 30.0684 4.70939 30.0365C4.80174 30.0045 4.89965 29.9923 4.9969 30.0006C5.447 29.9905 5.90209 30.0006 6.35719 30.0006Z" fill="#FB5A5A"/>
</svg>
