<svg width="39" height="44" viewBox="0 0 39 44" fill="none" xmlns="http://www.w3.org/2000/svg">
<path opacity="0.07" fill-rule="evenodd" clip-rule="evenodd" d="M19.055 0.987773L18.0385 1.97555L20.2929 4.15711C21.8666 5.68001 22.4781 6.3246 22.3181 6.292C22.1921 6.26626 21.5037 6.20088 20.7883 6.14664C15.4592 5.74253 9.93817 7.68797 6.01206 11.3535C2.91794 14.2423 0.992194 17.7657 0.217678 21.9555C-0.0489568 23.3982 -0.0755379 26.3693 0.165066 27.8414C1.69952 37.2285 9.79225 44 19.4767 44C29.5668 44 37.8912 36.6399 38.9048 26.8225C38.9571 26.3152 39 25.7241 39 25.5088V25.1174H37.5531H36.1062L35.9943 26.3421C35.6802 29.7795 34.4859 32.6452 32.2465 35.3349C29.9194 38.1299 26.5756 40.0783 22.7209 40.8854C21.5619 41.1281 18.6843 41.2261 17.4301 41.0656C9.71168 40.078 3.82857 34.2285 2.98357 26.7019C2.4931 22.3328 4.01693 17.7476 7.07979 14.3762C9.70948 11.4816 13.4621 9.57508 17.5024 9.08092C18.6757 8.93743 21.2876 9.011 22.439 9.21996L23.339 9.3834L20.6741 11.9741L18.0093 14.5648L19.0418 15.5652L20.0743 16.5657L24.3585 12.4019L28.6426 8.23815L24.403 4.11908C22.0712 1.85361 20.1427 0 20.1174 0C20.0922 0 19.614 0.444453 19.055 0.987773Z" fill="black"/>
</svg>
