<svg width="40" height="40" viewBox="0 0 40 40" fill="none" xmlns="http://www.w3.org/2000/svg">
<path fill-rule="evenodd" clip-rule="evenodd" d="M0.372813 0.0821806C-0.0214592 0.310939 0.000266115 -0.851367 0.000266115 19.9985C0.000266115 40.9407 -0.0238905 39.6991 0.388107 39.9188C0.489988 39.9731 5.29913 39.9992 15.2146 39.9992C31.5321 39.9992 30.2681 40.0431 30.4274 39.4717C30.4813 39.2783 30.5092 36.635 30.5094 31.6795L30.5099 24.1801L35.2549 19.451C39.7003 15.0206 40 14.7048 40 14.4516C40 14.2022 39.8405 14.0224 37.9395 12.1288C35.9472 10.1441 35.869 10.0763 35.5724 10.0763C35.2751 10.0763 35.1936 10.1479 32.8878 12.4368L30.5099 14.7972V11.3527C30.5099 9.4583 30.4861 7.78996 30.4571 7.64534C30.4141 7.43135 29.7389 6.71546 26.8297 3.79966C24.8636 1.8292 23.1597 0.167652 23.0432 0.107416C22.8643 0.0148345 21.0981 -0.00180676 11.6708 0.000146439C4.23585 0.00178712 0.464263 0.0291318 0.372813 0.0821806ZM22.1178 4.72805V8.05207L22.3103 8.2438L22.5028 8.4356H25.8005H29.0981V12.3205V16.2055L25.5466 19.7622L21.9951 23.3189L21.502 24.8218L21.0089 26.3246L13.3345 26.3453L5.65992 26.3659L5.45749 26.5553C5.1171 26.8739 5.19968 27.4179 5.6225 27.6423C5.74925 27.7095 7.71174 27.7332 13.1665 27.7332H20.5392L20.3089 28.4119C20.0352 29.2184 20.027 29.3656 20.2412 29.6367L20.4037 29.8426H13.0219H5.64015L5.44768 30.0344C5.17694 30.304 5.18157 30.7622 5.45756 31.0205L5.65992 31.2099H15.2159H24.7718L24.9741 31.0205C25.2246 30.786 25.2493 30.3401 25.0268 30.0661C24.8789 29.884 24.8536 29.8812 23.0464 29.8426L21.2158 29.8035L23.9609 28.9066L26.706 28.0098L27.902 26.8416L29.0981 25.6735V32.1332V38.5929H15.2551H1.41202V19.9985V1.4041H11.7649H22.1178V4.72805ZM25.8432 4.7636L28.1167 7.0293H25.8232H23.5295V4.7636C23.5295 3.51746 23.5385 2.49789 23.5496 2.49789C23.5607 2.49789 24.5928 3.51746 25.8432 4.7636ZM37.001 13.1437L38.3532 14.4924L37.2941 15.5452L36.2351 16.598L34.8628 15.2327L33.4905 13.8674L34.5284 12.8312C35.0994 12.2614 35.585 11.7951 35.6076 11.7951C35.6302 11.7951 36.2573 12.402 37.001 13.1437ZM30.8628 21.9517C28.4475 24.358 26.4354 26.3269 26.3916 26.3269C26.3479 26.3269 25.7127 25.729 24.9802 24.9984L23.6483 23.6699L28.0788 19.256L32.5093 14.8421L33.8818 16.2093L35.2544 17.5766L30.8628 21.9517ZM5.44768 23.081C5.19059 23.3371 5.18925 23.7417 5.44439 24.0373L5.63364 24.2565L10.5228 24.2802C13.2118 24.2931 15.5662 24.2816 15.7548 24.2544C16.4202 24.1585 16.6976 23.5271 16.264 23.0952L16.0572 22.8892H10.8487H5.64015L5.44768 23.081ZM24.0604 26.0353L25.0988 27.0719L23.5887 27.5699C22.7582 27.8438 22.0365 28.0835 21.9851 28.1025C21.9336 28.1215 22.1273 27.4309 22.4153 26.5679C22.7033 25.7048 22.9575 24.9987 22.9803 24.9987C23.0033 24.9987 23.4892 25.4652 24.0604 26.0353ZM5.72572 33.3349C5.22972 33.5176 5.08674 34.1479 5.46266 34.495L5.67019 34.6865H15.2159H24.7615L24.969 34.495C25.2559 34.2301 25.2583 33.7746 24.9742 33.5087L24.7718 33.3193L15.3076 33.3055C10.1022 33.2978 5.79042 33.3111 5.72572 33.3349Z" fill="#111691"/>
</svg>
