<svg width="50" height="50" viewBox="0 0 50 50" fill="none" xmlns="http://www.w3.org/2000/svg">
<path d="M39.2637 50C38.0583 49.7527 37.178 49.0196 36.3585 48.152C35.4176 47.1629 34.4246 46.2216 33.4706 45.2412C33.3679 45.1305 33.2419 45.0439 33.1017 44.9876C32.9615 44.9314 32.8106 44.9068 32.6598 44.9158C29.438 44.9158 26.2163 44.9158 22.9945 44.9158C22.8328 44.9245 22.6707 44.9245 22.5089 44.9158C22.2642 44.8994 22.0349 44.7906 21.8674 44.6114C21.6998 44.4322 21.6066 44.196 21.6066 43.9506C21.6066 43.7053 21.6998 43.4691 21.8674 43.2899C22.0349 43.1107 22.2642 43.0018 22.5089 42.9854C22.7994 42.9594 23.0943 42.9854 23.3761 42.9854H31.1074C31.0265 42.8713 30.9381 42.7626 30.8429 42.6601C29.5811 41.3934 28.3063 40.1354 27.0575 38.8556C27.0182 38.8025 26.9687 38.7577 26.9118 38.724C26.855 38.6903 26.7919 38.6683 26.7264 38.6594C26.6609 38.6505 26.5943 38.6549 26.5305 38.6722C26.4667 38.6895 26.4071 38.7194 26.355 38.7602C23.733 40.081 20.7593 40.5341 17.8631 40.0542C14.9669 39.5742 12.298 38.1859 10.2418 36.0898C8.18552 33.9936 6.84824 31.298 6.42295 28.3921C5.99766 25.4861 6.50637 22.5201 7.87564 19.9222C9.24491 17.3243 11.4039 15.2289 14.041 13.9384C16.6781 12.6479 19.6569 12.2291 22.5473 12.7425C25.4378 13.2559 28.0905 14.6748 30.1224 16.7946C32.1544 18.9143 33.4605 21.6252 33.8522 24.5358C34.2418 27.295 33.7693 30.1072 32.4994 32.5872C32.455 32.6461 32.423 32.7132 32.4051 32.7847C32.3872 32.8561 32.3838 32.9305 32.3951 33.0033C32.4064 33.0761 32.4322 33.1459 32.471 33.2085C32.5098 33.2712 32.5607 33.3254 32.6208 33.368C35.7341 36.4654 38.8344 39.5801 41.9521 42.6731C42.1447 42.8538 42.3952 42.9599 42.6589 42.9724C44.0595 42.9984 45.4557 42.9724 46.8563 42.9724C47.6672 42.9724 48.0314 42.6167 48.0314 41.8228C48.0314 31.2439 48.0314 20.6634 48.0314 10.0816C48.0314 10.0035 48.0314 9.92105 48.0314 9.80826H1.97294V41.671C1.97294 42.6644 2.28515 42.9724 3.27378 42.9724C6.70367 42.9724 10.1379 42.9724 13.5721 42.9724C13.7911 42.9429 14.0138 42.9821 14.2096 43.0847C14.4053 43.1873 14.5644 43.3481 14.6648 43.545C14.7341 43.6885 14.7666 43.8471 14.7592 44.0063C14.7519 44.1655 14.705 44.3204 14.6228 44.4569C14.5406 44.5934 14.4256 44.7072 14.2883 44.7881C14.1511 44.869 13.9958 44.9144 13.8366 44.9202C13.403 44.9506 12.926 44.9202 12.4707 44.9202C9.50915 44.9202 6.54757 44.8725 3.58598 44.9419C1.7995 44.9809 0.498656 44.2999 0 42.4822V2.4423C0.133529 1.84194 0.436641 1.2926 0.873272 0.859621C1.3099 0.426646 1.86167 0.128273 2.46293 0H47.5588C48.1556 0.132947 48.7022 0.433282 49.1345 0.865826C49.5669 1.29837 49.8671 1.84521 50 2.4423V42.4822C49.9652 42.5541 49.9348 42.6279 49.9089 42.7035C49.7467 43.3572 49.3638 43.9348 48.825 44.3387C48.2861 44.7426 47.6244 44.948 46.9517 44.9202H43.6042C43.6389 45.1327 43.6606 45.2759 43.6866 45.4234C43.8352 46.2625 43.7033 47.1273 43.3114 47.8839C42.9195 48.6406 42.2894 49.2471 41.5185 49.6096C41.1716 49.7701 40.7944 49.8699 40.4301 50H39.2637ZM48.0487 7.79108C48.0487 6.20337 48.0487 4.67638 48.0487 3.14506C48.0487 2.31216 47.6975 1.95645 46.865 1.95645C32.2927 1.95645 17.7175 1.95645 3.13936 1.95645C2.33718 1.95645 1.98161 2.3165 1.98161 3.12337C1.98161 4.55492 1.98161 5.98646 1.98161 7.41801C1.98161 7.54381 2.0033 7.66528 2.01197 7.79108H48.0487ZM20.1153 38.283C22.4696 38.2856 24.7718 37.5899 26.7309 36.2839C28.6901 34.9778 30.2182 33.1201 31.1223 30.9454C32.0264 28.7708 32.2659 26.3768 31.8103 24.066C31.3548 21.7552 30.2248 19.6314 28.5632 17.963C26.9015 16.2945 24.7827 15.1563 22.4746 14.6922C20.1665 14.2281 17.7727 14.4589 15.5957 15.3555C13.4187 16.252 11.5562 17.7741 10.2437 19.7293C8.93108 21.6846 8.22732 23.9852 8.22132 26.3405C8.21671 29.5017 9.46697 32.5355 11.6973 34.7749C13.9276 37.0143 16.9555 38.2761 20.1153 38.283ZM31.7362 40.695C34.0343 43.0115 36.3021 45.3149 38.596 47.5924C38.8118 47.7945 39.0757 47.938 39.3625 48.0094C39.6494 48.0807 39.9497 48.0776 40.235 48.0002C40.586 47.926 40.91 47.7571 41.1719 47.5118C41.4337 47.2665 41.6234 46.9541 41.7204 46.6086C41.8174 46.263 41.8179 45.8975 41.7219 45.5517C41.6259 45.2059 41.4371 44.893 41.176 44.6469C39.0079 42.475 36.8398 40.306 34.6718 38.1399C34.6111 38.0864 34.5458 38.0385 34.4766 37.9967C33.5444 38.9034 32.6468 39.797 31.7362 40.7166V40.695ZM30.2576 39.1723L32.9286 36.5001L31.3633 34.9384L28.7009 37.6019L30.2576 39.1723Z" fill="#FB5A5A"/>
<path d="M40.0443 20.7042H36.5277C35.8339 20.7042 35.3743 20.3008 35.3829 19.7151C35.3892 19.5768 35.4238 19.4412 35.4846 19.3168C35.5454 19.1923 35.6311 19.0818 35.7364 18.9919C35.8417 18.902 35.9644 18.8347 36.0968 18.7942C36.2291 18.7537 36.3684 18.7408 36.506 18.7564H43.5826C44.285 18.7564 44.7317 19.1512 44.723 19.7412C44.7192 19.8801 44.6864 20.0168 44.6267 20.1423C44.5671 20.2679 44.4819 20.3796 44.3765 20.4702C44.2712 20.5609 44.1481 20.6285 44.0151 20.6688C43.8821 20.7091 43.7422 20.7212 43.6043 20.7042H40.0443Z" fill="#FB5A5A"/>
<path d="M42.1787 16.0216C41.693 16.0216 41.203 16.0216 40.7174 16.0216C40.4598 16.0216 40.2127 15.9192 40.0306 15.737C39.8484 15.5547 39.7461 15.3076 39.7461 15.0498C39.7461 14.7921 39.8484 14.545 40.0306 14.3627C40.2127 14.1805 40.4598 14.0781 40.7174 14.0781C41.7089 14.0781 42.7004 14.0781 43.692 14.0781C43.9496 14.0781 44.1966 14.1805 44.3788 14.3627C44.5609 14.545 44.6633 14.7921 44.6633 15.0498C44.6633 15.3076 44.5609 15.5547 44.3788 15.737C44.1966 15.9192 43.9496 16.0216 43.692 16.0216C43.189 16.0302 42.686 16.0216 42.1787 16.0216Z" fill="#FB5A5A"/>
<path d="M42.5197 25.3887C42.1295 25.3887 41.7392 25.3887 41.3533 25.3887C41.2257 25.3902 41.0992 25.3664 40.9808 25.3189C40.8624 25.2714 40.7545 25.201 40.6633 25.1118C40.5721 25.0226 40.4994 24.9163 40.4492 24.7989C40.3991 24.6816 40.3726 24.5555 40.3712 24.4279C40.3697 24.3003 40.3934 24.1736 40.4409 24.0552C40.4884 23.9367 40.5588 23.8288 40.648 23.7376C40.7372 23.6463 40.8434 23.5736 40.9607 23.5234C41.078 23.4733 41.2041 23.4467 41.3316 23.4453C42.1425 23.4453 42.9533 23.4453 43.7598 23.4453C44.0174 23.4488 44.2631 23.5545 44.4428 23.7391C44.6226 23.9238 44.7216 24.1723 44.7181 24.43C44.7147 24.6878 44.609 24.9335 44.4244 25.1133C44.2399 25.2931 43.9914 25.3922 43.7338 25.3887C43.3262 25.4018 42.923 25.3887 42.5197 25.3887Z" fill="#FB5A5A"/>
<path d="M35.3555 14.0683C35.6981 14.0683 36.0363 14.0683 36.3788 14.0683C36.5047 14.0694 36.629 14.0955 36.7446 14.1451C36.8603 14.1947 36.9649 14.2668 37.0525 14.3572C37.14 14.4477 37.2087 14.5546 37.2546 14.6718C37.3005 14.789 37.3227 14.9142 37.3198 15.04C37.3239 15.1663 37.3024 15.2921 37.2566 15.4099C37.2108 15.5277 37.1417 15.6351 37.0534 15.7254C36.9651 15.8158 36.8594 15.8874 36.7428 15.9358C36.6261 15.9843 36.5008 16.0086 36.3745 16.0074C35.6981 16.0074 35.0173 16.0074 34.3365 16.0074C34.2102 16.0086 34.0849 15.9843 33.9683 15.9358C33.8516 15.8874 33.7459 15.8158 33.6576 15.7254C33.5693 15.6351 33.5002 15.5277 33.4544 15.4099C33.4086 15.2921 33.3871 15.1663 33.3912 15.04C33.3889 14.9139 33.4116 14.7887 33.458 14.6715C33.5044 14.5542 33.5735 14.4473 33.6614 14.357C33.7493 14.2666 33.8542 14.1946 33.9701 14.1451C34.086 14.0955 34.2105 14.0694 34.3365 14.0683C34.6747 14.0553 35.0173 14.0683 35.3555 14.0683Z" fill="#FB5A5A"/>
<path d="M19.1621 43.947C19.1638 44.0732 19.1406 44.1986 19.0938 44.3159C19.0469 44.4331 18.9774 44.5399 18.8891 44.6302C18.8009 44.7205 18.6957 44.7925 18.5796 44.842C18.4635 44.8915 18.3387 44.9176 18.2125 44.9187C18.0792 44.9276 17.9455 44.909 17.8197 44.8641C17.6938 44.8192 17.5786 44.7489 17.481 44.6576C17.3834 44.5663 17.3057 44.4559 17.2525 44.3333C17.1993 44.2107 17.1719 44.0785 17.1719 43.9448C17.1719 43.8112 17.1993 43.6789 17.2525 43.5563C17.3057 43.4337 17.3834 43.3233 17.481 43.232C17.5786 43.1407 17.6938 43.0704 17.8197 43.0255C17.9455 42.9806 18.0792 42.962 18.2125 42.9709C18.4675 42.9755 18.7103 43.0806 18.8881 43.2634C19.066 43.4462 19.1645 43.6919 19.1621 43.947Z" fill="#FB5A5A"/>
<path d="M33.217 5.86393H23.0271C22.8639 5.87482 22.7002 5.87482 22.5371 5.86393C22.304 5.83256 22.0903 5.71766 21.9354 5.54055C21.7806 5.36345 21.6953 5.13617 21.6953 4.90089C21.6953 4.66562 21.7806 4.43834 21.9354 4.26123C22.0903 4.08412 22.304 3.96922 22.5371 3.93785C22.7002 3.92697 22.8639 3.92697 23.0271 3.93785H43.4069C43.5067 3.93785 43.6021 3.93785 43.7018 3.93785C43.836 3.93195 43.9699 3.95346 44.0955 4.00107C44.2211 4.04867 44.3356 4.12138 44.4322 4.21474C44.5288 4.3081 44.6053 4.42017 44.6572 4.54411C44.709 4.66805 44.7351 4.80125 44.7338 4.9356C44.7311 5.06587 44.7022 5.19427 44.6489 5.31315C44.5955 5.43203 44.5189 5.53896 44.4234 5.62759C44.3279 5.71623 44.2156 5.78475 44.0931 5.82907C43.9707 5.8734 43.8405 5.89263 43.7105 5.88562C42.995 5.88562 42.2795 5.88562 41.5641 5.88562L33.217 5.86393Z" fill="#FB5A5A"/>
<path d="M6.25845 5.8574C6.06547 5.85469 5.87768 5.79453 5.71902 5.68459C5.56037 5.57465 5.43805 5.41991 5.36767 5.24013C5.29729 5.06034 5.28204 4.86366 5.32387 4.67517C5.3657 4.48668 5.46271 4.31493 5.60253 4.18183C5.74234 4.04873 5.91862 3.96032 6.10887 3.92788C6.29913 3.89544 6.49473 3.92043 6.67072 3.99968C6.84672 4.07892 6.99512 4.20883 7.097 4.37281C7.19889 4.5368 7.24963 4.72743 7.24275 4.92039C7.23262 5.17393 7.12419 5.41356 6.94044 5.58848C6.75669 5.7634 6.51208 5.85986 6.25845 5.8574Z" fill="#FB5A5A"/>
<path d="M11.5408 4.86409C11.5459 5.05835 11.493 5.24973 11.3888 5.41372C11.2846 5.57772 11.1339 5.70687 10.9559 5.78462C10.7779 5.86238 10.5807 5.88521 10.3896 5.85019C10.1986 5.81516 10.0223 5.72388 9.88343 5.58804C9.74454 5.45219 9.64935 5.27796 9.61003 5.08765C9.57072 4.89735 9.58908 4.69964 9.66277 4.51984C9.73646 4.34004 9.86211 4.18635 10.0236 4.07842C10.1852 3.9705 10.3752 3.91328 10.5695 3.91407C10.822 3.91831 11.0634 4.0191 11.244 4.19577C11.4246 4.37244 11.5308 4.61158 11.5408 4.86409Z" fill="#FB5A5A"/>
<path d="M14.8846 3.91412C15.0775 3.91862 15.2647 3.9805 15.4223 4.09189C15.5799 4.20328 15.7008 4.35911 15.7695 4.53951C15.8383 4.71991 15.8517 4.91671 15.8082 5.10479C15.7646 5.29287 15.6661 5.46372 15.5251 5.59553C15.3841 5.72735 15.2071 5.81416 15.0165 5.84489C14.826 5.87562 14.6307 5.84889 14.4554 5.76809C14.2802 5.68729 14.1329 5.55609 14.0325 5.39123C13.9321 5.22637 13.883 5.03532 13.8916 4.84245C13.9061 4.58968 14.0173 4.35219 14.2022 4.17932C14.3871 4.00645 14.6315 3.91147 14.8846 3.91412Z" fill="#FB5A5A"/>
<path d="M20.1019 36.3299C18.1278 36.3299 16.1981 35.7437 14.5571 34.6456C12.9162 33.5476 11.638 31.987 10.8843 30.1616C10.1306 28.3362 9.93543 26.328 10.3234 24.3915C10.7114 22.455 11.6651 20.6773 13.0638 19.2835C14.4625 17.8897 16.2432 16.9425 18.1803 16.562C20.1175 16.1814 22.124 16.3846 23.9456 17.1457C25.7673 17.9069 27.3221 19.1918 28.4133 20.8377C29.5044 22.4836 30.0828 24.4165 30.0751 26.3915C30.0647 29.0309 29.0094 31.5587 27.1402 33.4214C25.271 35.2841 22.7402 36.3299 20.1019 36.3299ZM28.1325 26.3524C28.1316 24.7684 27.6612 23.2203 26.7808 21.9037C25.9003 20.5872 24.6494 19.5615 23.1862 18.9563C21.7229 18.3511 20.1132 18.1937 18.5605 18.5038C17.0078 18.814 15.582 19.5779 14.4633 20.6989C13.3447 21.8199 12.5834 23.2476 12.2759 24.8014C11.9684 26.3553 12.1284 27.9655 12.7357 29.4283C13.343 30.8912 14.3703 32.141 15.6877 33.0197C17.005 33.8984 18.5533 34.3665 20.1366 34.3648C22.2555 34.359 24.286 33.5144 25.7842 32.0155C27.2825 30.5166 28.1268 28.4852 28.1325 26.3655V26.3524Z" fill="#FB5A5A"/>
<path d="M21.1093 28.6009C21.1093 29.1996 21.1093 29.8026 21.1093 30.4012C21.1182 30.5346 21.0996 30.6683 21.0547 30.7942C21.0098 30.9201 20.9395 31.0354 20.8483 31.133C20.757 31.2306 20.6467 31.3084 20.5241 31.3616C20.4016 31.4148 20.2694 31.4423 20.1358 31.4423C20.0022 31.4423 19.87 31.4148 19.7475 31.3616C19.6249 31.3084 19.5146 31.2306 19.4233 31.133C19.332 31.0354 19.2618 30.9201 19.2169 30.7942C19.172 30.6683 19.1534 30.5346 19.1623 30.4012C19.1623 29.1822 19.1623 27.9676 19.1623 26.7486C19.1534 26.6145 19.1722 26.48 19.2174 26.3534C19.2626 26.2268 19.3334 26.1109 19.4253 26.0129C19.5172 25.9148 19.6283 25.8368 19.7516 25.7835C19.875 25.7302 20.0079 25.7028 20.1423 25.7031C20.275 25.7064 20.4057 25.7363 20.5266 25.791C20.6476 25.8457 20.7563 25.9241 20.8465 26.0215C20.9366 26.119 21.0063 26.2336 21.0515 26.3584C21.0966 26.4833 21.1162 26.616 21.1093 26.7486V28.6009Z" fill="#FB5A5A"/>
<path d="M20.1152 23.2411C19.923 23.2394 19.7356 23.1809 19.5765 23.073C19.4174 22.9651 19.2937 22.8126 19.2209 22.6346C19.1482 22.4566 19.1296 22.2611 19.1675 22.0726C19.2054 21.884 19.2982 21.7109 19.4341 21.5749C19.57 21.439 19.743 21.3462 19.9315 21.3082C20.1199 21.2703 20.3154 21.2889 20.4933 21.3617C20.6712 21.4345 20.8236 21.5582 20.9315 21.7174C21.0394 21.8766 21.0978 22.0641 21.0995 22.2564C21.0984 22.5172 20.9943 22.767 20.81 22.9515C20.6256 23.1359 20.3759 23.24 20.1152 23.2411Z" fill="#FB5A5A"/>
</svg>
