<svg width="46" height="50" viewBox="0 0 46 50" fill="none" xmlns="http://www.w3.org/2000/svg">
<path fill-rule="evenodd" clip-rule="evenodd" d="M0.243032 0.239746L0 0.479395V25V49.5206L0.243032 49.7603L0.485966 50H19.799H39.112L39.3549 49.7603L39.5979 49.5206V40.7759V32.0312H38.806H38.014V40.2344V48.4375H19.799H1.58392V25V1.5625H16.6311H31.6784V4.44775V7.33311L31.9214 7.57275L32.1643 7.8125H35.0892H38.014V10.9375V14.0625H38.806H39.5979V9.59678V5.13105L36.9973 2.56553L34.3966 0H17.4413H0.485966L0.243032 0.239746ZM35.8601 3.68564C37.3949 5.19863 38.014 5.87227 38.014 6.02939V6.25H35.6382H33.2623V3.90625V1.5625H33.4842C33.6412 1.5625 34.3359 2.1832 35.8601 3.68564ZM18.3168 3.22979C16.9811 3.46436 15.4573 4.07012 14.4035 4.78535C13.731 5.2417 12.7342 6.19014 12.2104 6.87197C11.586 7.68486 10.8455 9.23857 10.5752 10.3034C10.2473 11.5956 10.2648 13.5495 10.6161 14.8495C11.7942 19.2084 15.8815 22.1301 20.3953 21.8398C22.6045 21.6979 24.6198 20.8399 26.247 19.3488C28.3436 17.4276 29.4525 14.7007 29.2677 11.9198C29.1647 10.3687 28.7622 9.09277 27.9356 7.69756C27.5109 6.98076 26.4088 5.66406 26.2334 5.66406C26.1875 5.66406 25.9417 5.90459 25.6871 6.19853L25.2242 6.73301L25.7537 7.36299C26.4433 8.18359 26.894 8.92754 27.1952 9.74199C28.6225 13.6033 26.9298 17.7735 23.222 19.5302C21.9712 20.1228 21.3384 20.2575 19.799 20.2591C18.2159 20.2607 17.5919 20.1239 16.2847 19.4888C14.6586 18.6986 13.5264 17.5811 12.7165 15.9668C12.0683 14.6748 11.9289 14.061 11.9289 12.5C11.9289 10.9411 12.0677 10.3284 12.7144 9.0332C13.7146 7.03027 15.5775 5.52744 17.8191 4.91523C18.7792 4.65303 20.9995 4.67812 21.8736 4.96104C22.2251 5.0748 22.5187 5.15869 22.5257 5.14746C22.5327 5.13613 22.6567 4.80713 22.8011 4.41611L23.0637 3.70527L22.7928 3.60371C21.7862 3.22617 19.4492 3.03096 18.3168 3.22979ZM20.7149 11.7425L17.8209 14.5975L16.8802 13.6734L15.9397 12.7494L15.3934 13.2815L14.8472 13.8137L16.1585 15.11C17.3448 16.2827 17.5031 16.4062 17.8183 16.4062C18.1438 16.4062 18.3811 16.1947 21.4321 13.1839L24.6975 9.96143L24.1533 9.42451L23.609 8.8876L20.7149 11.7425ZM41.9818 14.1146C41.6868 14.1958 41.3082 14.3469 41.1404 14.4504C40.7551 14.6881 25.0199 30.2118 24.9292 30.4437C24.8924 30.5381 24.6048 31.6547 24.2903 32.9252C23.4563 36.293 23.3992 36.2366 26.8124 35.4111C28.1003 35.0996 29.2209 34.8274 29.3028 34.8062C29.4953 34.7564 45.2985 19.1685 45.5435 18.7866C45.8365 18.3301 46.0608 17.3253 45.9852 16.8079C45.8267 15.7239 45.1732 14.8187 44.2174 14.3589C43.4625 13.9957 42.7118 13.9137 41.9818 14.1146ZM43.4621 15.8447C43.7529 15.9896 43.979 16.1977 44.1249 16.4551C44.5637 17.2289 44.342 17.9377 43.3616 18.8947L42.7632 19.4788L41.6031 18.3345L40.4431 17.19L41.0328 16.6021C42.01 15.628 42.6353 15.433 43.4621 15.8447ZM36.4564 25.6088L31.3338 30.6629L30.2185 29.5658L29.1032 28.4687L34.2259 23.4146L39.3486 18.3605L40.4639 19.4576L41.5791 20.5547L36.4564 25.6088ZM7.74536 24.0487C6.69779 25.0832 5.8407 25.9747 5.8407 26.03C5.8407 26.1569 6.75472 27.0508 6.8845 27.0508C6.93756 27.0508 7.84831 26.1944 8.90835 25.1477L10.8356 23.2446L10.2967 22.7062C10.0003 22.4103 9.73357 22.168 9.70397 22.168C9.67427 22.168 8.79302 23.0144 7.74536 24.0487ZM3.41087 23.6772L3.16784 23.9169V26.5625V29.2081L3.41087 29.4478L3.6538 29.6875H6.33567H9.01754L9.26048 29.4478C9.4846 29.2268 9.50351 29.1355 9.50351 28.2759V27.3438H8.71155H7.91959V27.7344V28.125H6.33567H4.75175V26.5625V25H5.14773H5.54371V24.2188V23.4375H4.59881C3.72745 23.4375 3.63489 23.4562 3.41087 23.6772ZM11.8794 26.5625V27.3438H17.4231H22.9668V26.5625V25.7812H17.4231H11.8794V26.5625ZM38.014 29.6875V30.4688H38.806H39.5979V29.6875V28.9062H38.806H38.014V29.6875ZM29.1048 30.7132L30.2403 31.8364L29.6721 32.397L29.1039 32.9574L27.943 31.8121L26.7821 30.6669L27.3212 30.1284C27.6177 29.8322 27.8848 29.5898 27.9148 29.5898C27.9448 29.5898 28.4802 30.0953 29.1048 30.7132ZM7.74536 32.6425C6.69779 33.677 5.8407 34.5685 5.8407 34.6237C5.8407 34.7507 6.75472 35.6445 6.8845 35.6445C6.93756 35.6445 7.84831 34.7882 8.90835 33.7414L10.8356 31.8384L10.2967 31.3C10.0003 31.004 9.73357 30.7617 9.70397 30.7617C9.67427 30.7617 8.79302 31.6081 7.74536 32.6425ZM3.41087 32.271L3.16784 32.5106V35.1562V37.8019L3.41087 38.0415L3.6538 38.2812H6.33567H9.01754L9.26048 38.0415C9.4846 37.8205 9.50351 37.7292 9.50351 36.8696V35.9375H8.71155H7.91959V36.3281V36.7188H6.33567H4.75175V35.1562V33.5938H5.14773H5.54371V32.8125V32.0312H4.59881C3.72745 32.0312 3.63489 32.0499 3.41087 32.271ZM26.8249 32.9563C27.1742 33.304 27.4402 33.605 27.416 33.6252C27.3605 33.6717 25.7011 34.0775 25.6744 34.0512C25.6321 34.0094 26.0795 32.3242 26.133 32.3242C26.1642 32.3242 26.4757 32.6087 26.8249 32.9563ZM11.8794 35.1562V35.9375H15.8392H19.799V35.1562V34.375H15.8392H11.8794V35.1562ZM21.3829 35.1562V35.9375H22.1749H22.9668V35.1562V34.375H22.1749H21.3829V35.1562ZM7.94345 41.0409C6.78699 42.1827 5.8407 43.1621 5.8407 43.2174C5.8407 43.3443 6.75462 44.2383 6.8844 44.2383C6.93746 44.2383 7.93731 43.294 9.10624 42.1399L11.2317 40.0416L10.6927 39.5032C10.3962 39.2071 10.1296 38.9648 10.1 38.9648C10.0705 38.9648 9.1 39.899 7.94345 41.0409ZM3.41087 40.8647L3.16784 41.1044V43.75V46.3956L3.41087 46.6353L3.6538 46.875H6.33567H9.01754L9.26048 46.6353C9.4846 46.4143 9.50351 46.323 9.50351 45.4634V44.5312H8.71155H7.91959V44.9219V45.3125H6.33567H4.75175V43.75V42.1875H5.14773H5.54371V41.4062V40.625H4.59881C3.72745 40.625 3.63489 40.6437 3.41087 40.8647ZM11.8794 43.75V44.5312H18.2151H24.5507V43.75V42.9688H18.2151H11.8794V43.75Z" fill="black"/>
</svg>
