<svg width="44" height="50" viewBox="0 0 44 50" fill="none" xmlns="http://www.w3.org/2000/svg">
<path fill-rule="evenodd" clip-rule="evenodd" d="M20.781 0.0236839C20.6195 0.0455764 20.113 0.113209 19.6554 0.173902C14.1657 0.902805 9.08957 4.93328 7.02711 10.2009C6.20724 12.2949 5.91812 13.8622 5.91264 16.2416C5.90716 18.627 6.30168 20.5464 7.23088 22.6551C7.73169 23.7914 7.73443 23.796 10.9313 28.7972C12.3904 31.0799 13.5519 32.9765 13.5124 33.012C13.4729 33.0475 13.0001 33.1534 12.4618 33.2473C8.84626 33.8786 5.14337 35.1836 3.0126 36.5775C0.869104 37.9796 -0.264743 39.9992 0.0526556 41.8495C0.38268 43.7737 1.95 45.4594 4.63209 46.775C11.6243 50.2046 24.4052 51.0164 34.0204 48.6418C38.1966 47.6105 41.4655 45.9738 42.8686 44.2118C44.7786 41.8132 44.2415 39.0015 41.4757 36.9204C39.4694 35.4108 35.4827 33.936 31.5469 33.2476C31.0086 33.1535 30.5357 33.0473 30.4959 33.0116C30.4562 32.9759 31.7038 30.9473 33.2682 28.5036C34.8327 26.0598 36.3034 23.6646 36.5362 23.1808C37.1295 21.9482 37.5279 20.764 37.8316 19.3302C38.0585 18.2597 38.0928 17.8685 38.0939 16.3394C38.0947 15.3718 38.0396 14.2283 37.9715 13.7983C36.8674 6.82942 31.5496 1.40633 24.6469 0.210161C23.8209 0.067078 21.3435 -0.0524512 20.781 0.0236839ZM24.6209 3.18754C29.6276 4.21248 33.5576 8.00233 34.8129 13.0164C35.5725 16.0508 35.1879 19.4284 33.7754 22.1256C33.3218 22.992 22.1022 40.6223 22.0044 40.6227C21.9774 40.6228 19.8634 37.3403 17.3065 33.3284C14.7496 29.3164 12.1597 25.26 11.5512 24.3141C10.9428 23.3682 10.287 22.2645 10.094 21.8614C7.39188 16.2154 9.06676 9.36661 14.0701 5.60315C16.006 4.1469 18.1779 3.28586 20.732 2.96197C21.5024 2.86434 23.6504 2.98895 24.6209 3.18754ZM21.0746 8.91713C20.9669 8.94195 20.6386 9.01105 20.3449 9.07067C18.2169 9.50216 16.1454 11.2603 15.2353 13.4073C14.8339 14.3544 14.715 14.9908 14.715 16.1928C14.715 17.3947 14.8339 18.0312 15.2353 18.9782C16.142 21.1171 18.0716 22.7642 20.3405 23.3362C21.0393 23.5124 22.9694 23.5124 23.6682 23.3362C25.9371 22.7642 27.8667 21.1171 28.7734 18.9782C29.1748 18.0312 29.2938 17.3947 29.2938 16.1928C29.2938 15.5571 29.2347 14.8353 29.1578 14.5313C28.494 11.9052 26.443 9.81628 23.815 9.08973C23.3194 8.9527 21.4342 8.83395 21.0746 8.91713ZM22.798 11.8945C25.0958 12.3296 26.7051 14.5804 26.3309 16.8357C26.0127 18.7529 24.5681 20.1955 22.6482 20.5132C19.8181 20.9815 17.2089 18.376 17.6778 15.5499C18.0876 13.0802 20.3879 11.4381 22.798 11.8945ZM18.1406 40.0874C20.1209 43.1902 20.9749 44.446 21.2136 44.6066C21.4409 44.7597 21.6874 44.829 22.0044 44.829C22.3213 44.829 22.5678 44.7597 22.7952 44.6066C23.0337 44.4461 23.89 43.1877 25.8709 40.0864L28.6162 35.7885L29.0049 35.816C29.2187 35.8311 29.9222 35.9323 30.5682 36.0409C35.147 36.8104 38.5696 38.1257 40.223 39.7512C41.3681 40.8769 41.3682 41.5647 40.2235 42.6788C38.0953 44.75 33.2133 46.2578 26.5554 46.9002C24.8843 47.0613 19.0128 47.0605 17.4044 46.8989C13.8307 46.5397 11.1495 46.0328 8.74271 45.2612C6.41287 44.5143 4.81697 43.683 3.7852 42.6788C2.71575 41.638 2.66486 40.9526 3.58114 39.9339C4.89419 38.4741 7.99399 37.1298 11.8804 36.335C13.4872 36.0063 15.0225 35.7513 15.2512 35.7751C15.3319 35.7835 16.6322 37.7241 18.1406 40.0874Z" fill="#48C5AE"/>
</svg>
