<svg width="50" height="43" viewBox="0 0 50 43" fill="none" xmlns="http://www.w3.org/2000/svg">
<path fill-rule="evenodd" clip-rule="evenodd" d="M9.31221 0.16238C8.09099 0.70845 8.02273 2.55903 9.19842 3.25071C9.3713 3.35246 13.3534 3.39408 26.8766 3.43548L44.3316 3.48898L44.9237 3.78748C45.5945 4.12567 46.084 4.64403 46.4047 5.35582C46.6213 5.8362 46.6249 5.96833 46.6763 15.2232C46.7278 24.4885 46.731 24.6074 46.9433 24.8991C47.3516 25.4605 47.6846 25.6356 48.3436 25.6356C49.0026 25.6356 49.3357 25.4605 49.744 24.899C49.9566 24.6067 49.9592 24.5059 49.988 15.3302C50.0209 4.90455 50.0414 5.23396 49.2583 3.62742C48.4172 1.90234 46.7238 0.574179 44.8526 0.172223C43.8137 -0.0509557 9.81033 -0.0603706 9.31221 0.16238ZM5.09696 7.02549C3.2804 7.42605 1.5695 8.78021 0.746142 10.4691C-0.0596006 12.1219 -0.0189592 11.2181 0.0137624 26.759L0.0428365 40.614L0.333579 41.222C1.00302 42.6216 2.52467 43.3066 3.99162 42.8687C4.48943 42.7202 5.12427 42.2773 7.7668 40.2351C9.51406 38.8849 11.0467 37.7552 11.1725 37.7248C11.2985 37.6944 17.4275 37.6581 24.7924 37.6439L38.1833 37.6184L38.9405 37.3342C41.1389 36.5091 42.6427 34.7642 43.183 32.4114C43.3147 31.8378 43.3388 30.2827 43.34 22.2559C43.3415 13.17 43.3331 12.7436 43.1361 11.9527C42.6594 10.0389 41.4294 8.44298 39.7985 7.62206C38.1989 6.81697 39.2893 6.86212 21.6141 6.8695C8.46979 6.87496 5.65907 6.9016 5.09696 7.02549ZM38.2543 10.6348C38.9251 10.9729 39.4146 11.4913 39.7354 12.2031C39.9534 12.6867 39.9548 12.7554 39.9548 22.2655C39.9548 31.7756 39.9534 31.8443 39.7354 32.3279C39.4146 33.0397 38.9251 33.558 38.2543 33.8962L37.6622 34.1947L24.063 34.2482L10.4637 34.3017L9.84336 34.5583C9.42007 34.7333 8.2868 35.5412 6.27421 37.1026L3.32541 39.3904V26.2469C3.32541 11.8471 3.29759 12.5092 3.94035 11.5982C4.32092 11.0589 4.78632 10.7147 5.45951 10.4748C5.94929 10.3003 6.99617 10.2898 21.8225 10.3123L37.6622 10.3363L38.2543 10.6348ZM14.1846 20.9969C13.4865 21.4558 13.2403 22.4756 13.6492 23.2138C14.0011 23.8491 14.3238 24.0308 15.101 24.0308C15.6139 24.0308 15.8476 23.9788 16.0634 23.8168C16.4079 23.5582 16.7684 22.8471 16.7684 22.426C16.7684 21.9674 16.4 21.2806 16.0079 21.0084C15.5403 20.6837 14.6695 20.6782 14.1846 20.9969ZM20.854 20.9969C20.1559 21.4558 19.9096 22.4756 20.3185 23.2138C20.6705 23.8491 20.9932 24.0308 21.7704 24.0308C22.2833 24.0308 22.5169 23.9788 22.7327 23.8168C23.0773 23.5582 23.4377 22.8471 23.4377 22.426C23.4377 21.9674 23.0693 21.2806 22.6773 21.0084C22.2096 20.6837 21.3389 20.6782 20.854 20.9969ZM27.3258 20.9899C26.9505 21.2367 26.564 21.9653 26.564 22.426C26.564 22.8443 26.9239 23.5582 27.2617 23.8097C27.6541 24.1017 28.5184 24.1576 29.0021 23.9219C29.485 23.6867 29.8989 22.9913 29.8981 22.4166C29.8975 21.9162 29.5441 21.2696 29.1111 20.9766C28.6854 20.6885 27.7737 20.6953 27.3258 20.9899Z" fill="#65AE2C"/>
</svg>
