<svg width="50" height="50" viewBox="0 0 50 50" fill="none" xmlns="http://www.w3.org/2000/svg">
<path fill-rule="evenodd" clip-rule="evenodd" d="M0.239655 0.239739L0 0.47938V24.9992V49.5191L0.240436 49.7595L0.480775 50L24.1328 49.9748L47.7847 49.9496L48.3 49.7166C48.974 49.412 49.6384 48.6761 49.8337 48.0181C50.0545 47.2744 50.0559 26.7512 49.8352 26.0078C49.6398 25.3498 49.0427 24.6877 48.3425 24.3525C47.8582 24.1206 47.6335 24.0797 46.6376 24.042L45.4906 23.9986V23.6264C45.4906 22.9505 45.1101 22.3336 44.4949 22.0121C44.1065 21.8091 42.3552 21.8243 41.9124 22.0346C41.4232 22.2667 41.1067 22.7387 40.9788 23.4269L40.868 24.0227H38.9328H36.9977L36.9956 23.6565C36.9912 22.8974 36.3855 22.0675 35.731 21.9236L35.4358 21.8588V11.1691V0.47938L35.1962 0.239739L34.9566 0H17.7179H0.479213L0.239655 0.239739ZM33.8739 11.6996V21.8367L33.4878 22.0071C32.8336 22.2959 32.4118 22.9798 32.4102 23.7541L32.4096 24.0227H30.4708H28.5321L28.4749 23.5397C28.4006 22.912 28.1985 22.5345 27.7563 22.1968C27.4261 21.9446 27.3186 21.9205 26.3835 21.8896C25.8255 21.8713 25.2652 21.8822 25.1384 21.9141C24.5353 22.0654 23.9232 22.9334 23.9189 23.6432L23.9167 23.996L23.0138 24.0441C21.884 24.1041 21.2572 24.3563 20.6664 24.9881C19.8509 25.8601 19.9057 24.9453 19.9381 37.157C19.9539 43.1188 20.0041 48.0954 20.0495 48.2163L20.1323 48.436H10.8472H1.56191V24.9992V1.56245H17.7179H33.8739V11.6996ZM5.20936 4.89926C5.09465 4.95473 4.95194 5.10765 4.89209 5.239C4.73581 5.58225 4.7402 13.9939 4.89688 14.2882C5.14093 14.7465 5.05756 14.7393 10.1324 14.7425L14.9446 14.7456L15.1842 14.5059L15.4239 14.2663V11.8274V9.38848L16.1589 8.72775C16.5633 8.36429 16.9197 7.96489 16.9509 7.84009C17.0872 7.29694 16.5113 6.72586 15.9924 6.88953C15.8054 6.94842 13.8563 8.65491 12.2771 10.1423L11.9125 10.4856L11.1413 9.73485C10.3004 8.91632 10.0756 8.83478 9.62868 9.18653C9.43374 9.33984 9.37146 9.47627 9.37146 9.7496C9.37146 10.0792 9.46634 10.205 10.4712 11.2073C11.9529 12.6852 11.8053 12.6908 13.5447 11.0927L13.8619 10.8012V11.9922V13.1832H10.1036H6.34526V9.76532V6.34746H10.6449H14.9446L15.1842 6.10772C15.5743 5.71759 15.4757 5.16986 14.9666 4.89858C14.6852 4.74868 5.51901 4.74927 5.20936 4.89926ZM20.1716 4.98744C19.9731 5.14349 19.9143 5.27591 19.9143 5.56623C19.9143 5.85656 19.9731 5.98897 20.1716 6.14502C20.4246 6.34414 20.5148 6.34746 25.7227 6.34746C30.9306 6.34746 31.0208 6.34414 31.2738 6.14502C31.6372 5.85919 31.6372 5.27327 31.2738 4.98744C31.0208 4.78833 30.9306 4.78501 25.7227 4.78501C20.5148 4.78501 20.4246 4.78833 20.1716 4.98744ZM20.1716 9.18653C19.9731 9.34258 19.9143 9.475 19.9143 9.76532C19.9143 10.0556 19.9731 10.1881 20.1716 10.3441C20.4246 10.5432 20.5148 10.5465 25.7227 10.5465C30.9306 10.5465 31.0208 10.5432 31.2738 10.3441C31.6372 10.0583 31.6372 9.47236 31.2738 9.18653C31.0208 8.98741 30.9306 8.98409 25.7227 8.98409C20.5148 8.98409 20.4246 8.98741 20.1716 9.18653ZM5.20936 20.1332C5.09465 20.1886 4.95194 20.3416 4.89209 20.4729C4.74039 20.8059 4.7401 29.1918 4.8917 29.5248C4.95135 29.6556 5.10715 29.8115 5.23796 29.8711C5.57074 30.0228 14.6365 30.0228 14.9692 29.8711C15.3844 29.6819 15.4239 29.4291 15.4239 26.9545V24.6224L16.1589 23.9617C16.5633 23.5982 16.9197 23.1988 16.9509 23.074C17.0731 22.5871 16.6371 22.0696 16.1047 22.0696C15.9969 22.0696 15.0557 22.8493 13.9085 23.8889L11.9008 25.7082L11.1354 24.9631C10.3007 24.1504 10.075 24.0692 9.62868 24.4204C9.43374 24.5737 9.37146 24.7102 9.37146 24.9835C9.37146 25.3131 9.46634 25.4389 10.4712 26.4412C11.9529 27.9191 11.8053 27.9247 13.5447 26.3266L13.8619 26.0351V27.2261V28.4171H10.1036H6.34526V24.9992V21.5814H10.6449H14.9446L15.1842 21.3416C15.569 20.9568 15.4951 20.4042 15.0263 20.1618C14.7948 20.042 13.9977 20.02 10.0841 20.0255C7.08345 20.0297 5.34349 20.0682 5.20936 20.1332ZM26.9221 24.9504C26.9603 26.9481 26.9909 26.8701 26.1835 26.8346L25.5275 26.8058L25.5007 25.117L25.474 23.4281L26.184 23.4569L26.8941 23.4856L26.9221 24.9504ZM35.387 25.1457V26.8058H34.7037H34.0203L33.9934 25.2473C33.9785 24.3901 33.9889 23.63 34.0164 23.5583C34.0529 23.463 34.2448 23.4356 34.7267 23.4567L35.387 23.4856V25.1457ZM43.9066 25.1213L43.8799 26.8058L43.3104 26.8353C42.9745 26.8528 42.6841 26.8178 42.6026 26.7501C42.4942 26.6601 42.4644 26.3051 42.4644 25.1012C42.4644 24.2573 42.4937 23.5376 42.5295 23.5019C42.5652 23.4661 42.8958 23.4368 43.2639 23.4368H43.9333L43.9066 25.1213ZM23.9354 26.4078C23.971 27.0854 24.0232 27.2979 24.2318 27.6132C24.5734 28.1296 25.0675 28.3528 25.9703 28.3985C26.9353 28.4475 27.4801 28.2933 27.9293 27.844C28.3399 27.4332 28.5035 26.9501 28.5043 26.1466L28.5048 25.5851H30.4572H32.4096L32.4102 26.1466C32.4117 27.7076 33.1324 28.4182 34.7037 28.4075C35.6358 28.4012 36.0178 28.2783 36.4653 27.8405C36.8596 27.4549 36.9965 27.0316 36.9971 26.1955L36.9977 25.5851H38.9357H40.8736L40.9336 26.3651C41.001 27.2376 41.1459 27.5923 41.5868 27.9635C42.0066 28.3168 42.5758 28.4453 43.5064 28.3968C44.1607 28.3627 44.3737 28.3093 44.6904 28.0996C45.24 27.7358 45.4906 27.1681 45.4906 26.2867V25.5851H46.3723C47.3473 25.5851 47.747 25.7064 48.1263 26.1173C48.3636 26.3743 48.3713 26.4272 48.4012 28.0341L48.4321 29.6866H34.9542H21.4763V28.0719C21.4763 26.7136 21.5027 26.4168 21.643 26.2026C21.8936 25.8201 22.4932 25.5898 23.2456 25.5873L23.8922 25.5851L23.9354 26.4078ZM48.4192 39.3671C48.4192 47.3405 48.4157 47.4909 48.2221 47.8043C47.8089 48.4732 48.593 48.436 34.8938 48.436C21.4808 48.436 22.1322 48.4626 21.6879 47.8975L21.4763 47.6284V39.4387V31.249H34.9477H48.4192V39.3671ZM25.2834 33.6582C25.2029 33.6896 25.0382 33.8052 24.9173 33.9152C24.7014 34.1116 24.6977 34.1538 24.6977 36.4246C24.6977 38.7127 24.6998 38.7363 24.9236 38.9466C25.1427 39.1525 25.221 39.1589 27.5035 39.1589H29.8574L30.0596 38.9016C30.251 38.6584 30.262 38.5224 30.262 36.4169C30.262 34.2036 30.2605 34.1878 30.0265 33.9155L29.7912 33.6415L27.6105 33.6214C26.4111 33.6104 25.3639 33.627 25.2834 33.6582ZM32.5463 33.7322C32.3797 33.8046 32.2151 33.9383 32.1802 34.0293C32.1453 34.1202 32.1168 35.2237 32.1168 36.4815C32.1168 38.6381 32.1279 38.7795 32.312 38.9636C32.4962 39.1479 32.6374 39.1589 34.8077 39.1589C36.1216 39.1589 37.1848 39.1179 37.2868 39.0633C37.385 39.0108 37.5138 38.8285 37.5732 38.6582C37.6906 38.3211 37.7091 34.5975 37.5954 34.1786C37.5565 34.0356 37.3887 33.8638 37.1901 33.7638C36.8996 33.6173 36.566 33.5935 34.8501 33.5967C33.3919 33.5993 32.7668 33.6361 32.5463 33.7322ZM40.063 33.7286C39.8964 33.803 39.7317 33.9383 39.6969 34.0293C39.6619 34.1202 39.6334 35.216 39.6334 36.4644C39.6334 38.7108 39.6358 38.7365 39.8593 38.9466C40.0782 39.1522 40.1581 39.1589 42.3867 39.1589C44.5071 39.1589 44.7061 39.1443 44.9185 38.9722L45.1489 38.7856V36.436C45.1489 33.3635 45.4141 33.6494 42.5351 33.6174C40.8553 33.5988 40.2973 33.6239 40.063 33.7286ZM28.7001 36.3758V37.5965H27.4798H26.2596V36.3758V35.1552H27.4798H28.7001V36.3758ZM36.0978 36.4002L36.1252 37.5965H34.9019H33.6787V36.3728V35.1491L34.8745 35.1765L36.0703 35.204L36.0978 36.4002ZM43.6145 36.4002L43.6419 37.5965H42.4186H41.1954V36.3728V35.1491L42.3912 35.1765L43.587 35.204L43.6145 36.4002ZM5.20936 35.3671C5.09465 35.4225 4.95194 35.5755 4.89209 35.7068C4.74039 36.0398 4.7401 44.4257 4.8917 44.7587C4.95135 44.8895 5.10715 45.0454 5.23796 45.105C5.57074 45.2567 14.6365 45.2567 14.9692 45.105C15.3844 44.9158 15.4239 44.663 15.4239 42.1878V39.855L16.1596 39.1896C16.5643 38.8236 16.9207 38.4245 16.9517 38.3026C17.0738 37.8209 16.6346 37.3035 16.1036 37.3035C15.9944 37.3035 15.062 38.0754 13.9067 39.1221L11.8994 40.9406L11.1348 40.1963C10.3007 39.3844 10.0749 39.3032 9.62868 39.6543C9.43286 39.8083 9.37146 39.9437 9.37146 40.2212C9.37146 40.5564 9.46029 40.6734 10.479 41.6789C11.9663 43.1467 11.8117 43.1527 13.5447 41.5605L13.8619 41.269V42.46V43.651H10.1036H6.34526V40.2331V36.8153H10.6449H14.9446L15.1842 36.5755C15.3353 36.4244 15.4239 36.2243 15.4239 36.034C15.4239 35.8438 15.3353 35.6436 15.1842 35.4925L14.9446 35.2528L10.1812 35.2594C7.11372 35.2636 5.34368 35.302 5.20936 35.3671ZM25.3322 40.495C25.2248 40.5229 25.0382 40.6367 24.9173 40.7481C24.7015 40.9473 24.6977 40.9903 24.6977 43.2604C24.6977 45.5484 24.6998 45.572 24.9236 45.7824C25.1427 45.9882 25.221 45.9947 27.5035 45.9947H29.8574L30.0596 45.7373C30.251 45.4941 30.262 45.3582 30.262 43.2527C30.262 41.0393 30.2605 41.0235 30.0265 40.7513L29.7912 40.4773L27.6593 40.4608C26.4868 40.4518 25.4396 40.4672 25.3322 40.495ZM32.5463 40.5679C32.3797 40.6403 32.2151 40.774 32.1802 40.865C32.1453 40.9559 32.1168 42.0594 32.1168 43.3172C32.1168 45.4739 32.1279 45.6152 32.312 45.7994C32.4962 45.9836 32.6374 45.9947 34.8077 45.9947C36.1216 45.9947 37.1848 45.9536 37.2868 45.8991C37.6105 45.7257 37.6811 45.2502 37.6811 43.2427C37.6811 41.0266 37.6146 40.7218 37.0912 40.5393C36.6177 40.3741 32.938 40.3973 32.5463 40.5679ZM40.1705 40.5291C39.6464 40.6915 39.6334 40.7581 39.6334 43.279C39.6334 45.4739 39.6444 45.615 39.8287 45.7994C40.013 45.9837 40.154 45.9947 42.356 45.9947C44.5066 45.9947 44.7059 45.9801 44.9185 45.8079L45.1489 45.6213V43.2717C45.1489 40.2018 45.4059 40.4837 42.5839 40.4578C41.4175 40.4472 40.3315 40.4792 40.1705 40.5291ZM28.6513 43.2604V44.481L27.4554 44.5085L26.2596 44.5359V43.2604V41.9848L27.4554 42.0123L28.6513 42.0397V43.2604ZM36.0703 43.2604V44.481L34.8745 44.5085L33.6787 44.5359V43.2604V41.9848L34.8745 42.0123L36.0703 42.0397V43.2604ZM43.587 43.2604V44.481L42.3912 44.5085L41.1954 44.5359V43.2604V41.9848L42.3912 42.0123L43.587 42.0397V43.2604Z" fill="#7013B9"/>
</svg>
