<svg width="50" height="50" viewBox="0 0 50 50" fill="none" xmlns="http://www.w3.org/2000/svg">
<path fill-rule="evenodd" clip-rule="evenodd" d="M19.5504 0.111421C14.4109 1.09169 10.6774 5.53885 10.6774 10.6804C10.6774 18.1651 18.3557 23.4032 25.313 20.6647C28.7774 19.3012 31.343 16.1546 31.9854 12.4815C32.9493 6.97054 29.3775 1.58513 23.8592 0.229192C22.8614 -0.0158483 20.5493 -0.0790918 19.5504 0.111421ZM22.9231 3.69674C24.9537 4.12134 26.8598 5.59416 27.7723 7.44386C29.1846 10.306 28.6759 13.494 26.4526 15.7155C23.631 18.5346 19.211 18.531 16.3704 15.7073C13.556 12.9097 13.5577 8.45955 16.374 5.64544C18.1173 3.90379 20.509 3.19214 22.9231 3.69674ZM13.9765 25.1099C10.5046 25.5481 7.25691 27.1626 4.68901 29.727C2.80542 31.6079 1.54361 33.6518 0.729809 36.1397C0.0900152 38.096 0.00356889 38.8155 0.000325747 42.2098C-0.00247006 45.1607 0.00793026 45.3159 0.228016 45.6108C0.354834 45.7808 0.597511 46.0235 0.767384 46.1502C1.07325 46.3785 1.17166 46.3808 11.3018 46.4102C21.4286 46.4396 21.5316 46.4377 21.978 46.2102C23.1379 45.619 23.269 44.0193 22.2229 43.2221L21.8222 42.9167L12.6712 42.8869L3.52014 42.857L3.52059 41.4902C3.52182 37.7835 4.64562 34.8727 7.04029 32.3738C8.43864 30.9145 10.3813 29.7171 12.3218 29.1183C13.8831 28.6364 14.8518 28.5593 19.3548 28.5589C23.5705 28.5584 23.6198 28.5558 24.0958 28.3042C24.6803 27.9954 24.992 27.4621 24.992 26.7706C24.992 26.0792 24.6803 25.5459 24.0958 25.237C23.6174 24.9842 23.5908 24.983 19.1871 24.9969C16.7518 25.0047 14.407 25.0556 13.9765 25.1099ZM36.7903 25.1344C35.9646 25.5163 35.7279 26.0635 35.7279 27.5895V28.7288L34.9958 28.9384C34.5932 29.0536 33.8822 29.3427 33.4158 29.5811L32.5679 30.0144L31.6415 29.1257C30.9584 28.4705 30.6099 28.2173 30.3145 28.162C29.2168 27.9562 28.1233 28.8524 28.1233 29.9581C28.1233 30.5188 28.2544 30.7296 29.203 31.6945L30.0342 32.5399L29.5973 33.3933C29.357 33.8627 29.0672 34.572 28.9533 34.9694L28.7462 35.692L27.4359 35.7288C26.3227 35.76 26.0795 35.8002 25.8174 35.9959C25.0072 36.6012 24.7837 37.5188 25.2363 38.3831C25.628 39.1312 26.016 39.2852 27.5079 39.2852H28.7411L28.9508 40.0167C29.0661 40.4189 29.357 41.1322 29.5973 41.6016L30.0342 42.455L29.203 43.3004C28.2523 44.2674 28.1233 44.4757 28.1233 45.0434C28.1233 45.8681 28.773 46.6836 29.5545 46.8398C30.2944 46.9876 30.6895 46.8041 31.6521 45.8652L32.5622 44.9777L33.4131 45.4124C33.881 45.6515 34.5932 45.9413 34.9958 46.0565L35.7279 46.266V47.473C35.7279 48.9799 35.9073 49.4156 36.6824 49.7905C37.5552 50.2126 38.4197 49.9896 39.02 49.1873C39.2159 48.9254 39.2561 48.6825 39.2874 47.5701L39.3242 46.261L40.0474 46.0541C40.4451 45.9402 41.1534 45.6515 41.6213 45.4124L42.4722 44.9777L43.3822 45.8652C44.3603 46.8191 44.7246 46.9827 45.5332 46.8311C46.0613 46.7322 46.6235 46.1727 46.8058 45.5649C47.032 44.8104 46.8168 44.3089 45.8337 43.2994L45.004 42.4476L45.439 41.5979C45.6783 41.1305 45.9671 40.4228 46.0811 40.0255L46.2882 39.3029L47.5984 39.2661C49.0165 39.2264 49.248 39.1399 49.7559 38.4601C50.0968 38.004 50.0774 37.0103 49.718 36.5067C49.2939 35.9127 48.7206 35.715 47.413 35.7121L46.2932 35.7096L46.0836 34.9782C45.9683 34.576 45.6783 33.8644 45.439 33.397L45.004 32.5473L45.8337 31.6955C46.8152 30.6877 47.0319 30.184 46.8069 29.4337C46.6301 28.844 46.182 28.3935 45.5987 28.2189C44.803 27.9807 44.4242 28.1364 43.3929 29.1257L42.4664 30.0144L41.6185 29.5811C41.1522 29.3427 40.4451 29.0547 40.0474 28.9408L39.3242 28.7339L39.2874 27.4248C39.2478 26.0147 39.1596 25.7756 38.4972 25.2814C38.1266 25.005 37.2359 24.9282 36.7903 25.1344ZM38.7986 32.3051C40.7275 32.8072 42.2131 34.2964 42.7183 36.234C43.4426 39.0126 41.6626 41.9444 38.7986 42.6898C36.0002 43.4181 33.0686 41.6477 32.3205 38.7777C31.3237 34.9543 34.9719 31.3092 38.7986 32.3051Z" fill="#26AA7A"/>
</svg>
