<svg width="39" height="50" viewBox="0 0 39 50" fill="none" xmlns="http://www.w3.org/2000/svg">
<path d="M37.3374 26.6269C36.9102 26.6269 36.5005 26.7966 36.1985 27.0987C35.8964 27.4007 35.7267 27.8104 35.7267 28.2376V46.7805H8.8251V36.5193C8.82349 36.4308 8.81452 36.3427 8.79817 36.2557H17.1798C17.607 36.2557 18.0167 36.086 18.3188 35.784C18.6209 35.4819 18.7906 35.0722 18.7906 34.645V31.2397C18.7821 30.8183 18.6086 30.417 18.3075 30.1219C18.0065 29.8269 17.6017 29.6616 17.1802 29.6616C16.7586 29.6616 16.3539 29.8269 16.0528 30.1219C15.7517 30.417 15.5783 30.8183 15.5698 31.2397V33.0343H3.22019V20.682H15.5698V20.8566C15.5655 21.0708 15.604 21.2838 15.6829 21.4829C15.7619 21.6821 15.8798 21.8635 16.0298 22.0166C16.1798 22.1696 16.3587 22.2912 16.5563 22.3742C16.7538 22.4572 16.9659 22.4999 17.1802 22.4999C17.3944 22.4999 17.6066 22.4572 17.8041 22.3742C18.0017 22.2912 18.1807 22.1696 18.3306 22.0166C18.4806 21.8635 18.5985 21.6821 18.6775 21.4829C18.7565 21.2838 18.795 21.0708 18.7906 20.8566V19.0713C18.7904 18.6442 18.6206 18.2347 18.3186 17.9328C18.0165 17.6308 17.6069 17.4612 17.1798 17.4612H8.8251V3.22022H35.7286V29.1198C35.7372 29.5413 35.9106 29.9425 36.2117 30.2376C36.5128 30.5327 36.9176 30.6979 37.3391 30.6979C37.7607 30.6979 38.1654 30.5327 38.4665 30.2376C38.7676 29.9425 38.941 29.5413 38.9495 29.1198V1.98962C39.01 1.75287 39.0152 1.50537 38.9648 1.26626C38.9145 1.02715 38.8099 0.802791 38.6591 0.610529C38.5083 0.418268 38.3153 0.263258 38.095 0.157412C37.8748 0.0515665 37.6331 -0.00227793 37.3888 7.38542e-05H7.21642C6.78922 7.38542e-05 6.37952 0.169777 6.07745 0.471848C5.77538 0.773919 5.60564 1.18362 5.60564 1.61081V17.4612H1.61078C1.39929 17.4611 1.18979 17.5027 0.994372 17.5836C0.798953 17.6645 0.621393 17.783 0.471814 17.9326C0.322235 18.0821 0.203593 18.2596 0.122638 18.455C0.0416829 18.6504 -1.77036e-08 18.8598 0 19.0713V34.6444C0 35.0716 0.169743 35.4813 0.471814 35.7833C0.773885 36.0854 1.18359 36.2551 1.61078 36.2551H5.63266C5.61608 36.342 5.60683 36.4301 5.605 36.5186V48.3899C5.605 48.6014 5.64668 48.8108 5.72763 49.0062C5.80859 49.2016 5.92723 49.3792 6.07681 49.5287C6.22639 49.6782 6.40395 49.7968 6.59937 49.8776C6.79479 49.9585 7.0042 50.0001 7.21569 50H37.3401C37.7671 50 38.1767 49.8304 38.4788 49.5285C38.7808 49.2265 38.9506 48.817 38.9508 48.3899V28.237C38.9507 28.0253 38.9089 27.8157 38.8277 27.6202C38.7466 27.4247 38.6277 27.2471 38.4778 27.0975C38.328 26.948 38.1502 26.8294 37.9545 26.7487C37.7588 26.6679 37.5491 26.6266 37.3374 26.6269Z" fill="#FC7754"/>
<path d="M23.5547 22.1477C23.4488 21.9646 23.3078 21.8041 23.1399 21.6755C22.9719 21.5469 22.7803 21.4527 22.5759 21.3981C22.3715 21.3436 22.1583 21.3299 21.9486 21.3578C21.7389 21.3857 21.5367 21.4547 21.3537 21.5607L10.7854 27.6802L8.79918 24.9417C8.54614 24.6018 8.16939 24.3753 7.75053 24.3113C7.33166 24.2473 6.90445 24.3509 6.56146 24.5997C6.21847 24.8485 5.98732 25.2224 5.91811 25.6404C5.84891 26.0585 5.94727 26.487 6.19178 26.833L9.03111 30.7482C9.2649 31.0703 9.60976 31.2944 9.9991 31.3771C10.3884 31.4599 10.7946 31.3954 11.1392 31.1961L22.9651 24.3487C23.1485 24.243 23.3092 24.1022 23.438 23.9344C23.5669 23.7665 23.6615 23.5749 23.7162 23.3705C23.771 23.1661 23.7849 22.9528 23.7572 22.743C23.7295 22.5332 23.6607 22.3309 23.5547 22.1477Z" fill="#FC7754"/>
<path d="M21.9453 42.2812C21.5239 42.2898 21.1226 42.4632 20.8275 42.7643C20.5324 43.0654 20.3672 43.4701 20.3672 43.8917C20.3672 44.3132 20.5324 44.718 20.8275 45.0191C21.1226 45.3201 21.5239 45.4935 21.9453 45.502H22.1114C22.5328 45.4935 22.9341 45.3201 23.2292 45.0191C23.5242 44.718 23.6895 44.3132 23.6895 43.8917C23.6895 43.4701 23.5242 43.0654 23.2292 42.7643C22.9341 42.4632 22.5328 42.2898 22.1114 42.2812H21.9453Z" fill="#FC7754"/>
</svg>
