<svg width="53" height="50" viewBox="0 0 53 50" fill="none" xmlns="http://www.w3.org/2000/svg">
<path d="M28.2094 0C24.1479 0.000964931 20.1488 1.00789 16.5636 2.93229C12.9784 4.85669 9.91684 7.63965 7.64794 11.0366C5.37903 14.4335 3.97228 18.3404 3.5513 22.414C3.13032 26.4875 3.70801 30.603 5.23359 34.3987L0 46.3783L13.209 44.8945C17.5126 48.2199 22.7867 50.0151 28.2084 49.9999C34.7835 49.9999 41.0894 47.366 45.7387 42.6776C50.388 37.9892 53 31.6304 53 25C53 18.3696 50.388 12.0107 45.7387 7.32232C41.0894 2.63392 34.7835 0 28.2084 0H28.2094ZM28.2094 45.8224C23.3501 45.8202 18.6474 44.089 14.9297 40.9336L6.69527 41.4282L9.77558 34.3908L9.64412 34.1128C9.58722 33.9941 9.53033 33.8744 9.47343 33.7507C8.2072 31.0127 7.55442 28.027 7.56148 25.0059C7.5607 20.8869 8.77127 16.8602 11.0401 13.4351C13.3089 10.01 16.534 7.34023 20.3075 5.76356C24.0811 4.18689 28.2336 3.7741 32.2398 4.57741C36.246 5.38072 39.926 7.36403 42.8143 10.2765C45.7027 13.189 47.6696 16.8998 48.4664 20.9397C49.2632 24.9795 48.8541 29.1669 47.2907 32.9722C45.7274 36.7776 43.0801 40.0299 39.6836 42.318C36.2871 44.606 32.294 45.8269 28.2094 45.8263V45.8224Z" fill="#1992FB"/>
<path d="M34.5403 14.2268C32.7663 12.7551 30.5122 12.0028 28.2179 12.1167C25.994 12.0195 23.8143 12.7636 22.1063 14.203C21.3611 14.8358 20.7518 15.6151 20.3156 16.4935C19.8794 17.3719 19.6255 18.3307 19.5695 19.3114L19.5439 19.7289L24.3979 20.3363L24.4832 19.9406C24.6447 18.9118 25.1386 17.9656 25.888 17.2489C26.5944 16.6607 27.4908 16.3554 28.4062 16.3912C29.3011 16.3411 30.1823 16.6305 30.8764 17.2024C31.1534 17.4311 31.3764 17.7191 31.5291 18.0456C31.6818 18.3721 31.7604 18.7289 31.7592 19.0899C31.7604 19.6097 31.5876 20.1148 31.2687 20.5233C30.5812 21.2502 29.8347 21.9179 29.037 22.5195C27.9537 23.3237 27.0413 24.3389 26.354 25.5051C25.8611 26.5766 25.6259 27.7503 25.6673 28.9308C25.6673 29.0581 25.6725 29.4135 25.683 29.9972L25.6908 30.4344H30.5683L30.5605 29.9813C30.4853 29.1902 30.5748 28.392 30.8234 27.6378C31.2453 26.9613 31.7937 26.374 32.4381 25.9087C33.8061 24.8615 35.0205 23.6246 36.0452 22.2346C36.6236 21.3358 36.9329 20.288 36.9359 19.2165C36.9259 18.2582 36.7059 17.3139 36.2918 16.4513C35.8777 15.5887 35.2796 14.8291 34.5403 14.2268Z" fill="#1992FB"/>
<path d="M28.3156 32.5547C27.7039 32.5536 27.1109 32.7664 26.6375 33.1569C26.164 33.5475 25.8396 34.0915 25.7195 34.6962C25.5993 35.301 25.6909 35.929 25.9786 36.4733C26.2664 37.0176 26.7324 37.4444 27.2972 37.6809C27.8621 37.9175 28.4908 37.9491 29.0762 37.7705C29.6617 37.5918 30.1675 37.2139 30.5075 36.7013C30.8476 36.1886 31.0007 35.5728 30.9409 34.959C30.881 34.3452 30.6119 33.7713 30.1794 33.3352C29.685 32.8366 29.0148 32.556 28.3156 32.5547Z" fill="#1992FB"/>
</svg>
