<svg width="18" height="18" viewBox="0 0 18 18" fill="none" xmlns="http://www.w3.org/2000/svg">
<path d="M1.60577 4.73094L9 0.46188L16.3942 4.73094V13.2691L9 17.5381L1.60577 13.2691V4.73094Z" stroke="#410EAD" stroke-width="0.8"/>
<path d="M6.98675 5.01273C7.02472 5.03359 7.05556 5.06534 7.07525 5.10387C7.09495 5.14241 7.10261 5.18595 7.09723 5.22888C7.09723 5.83194 7.09723 6.43284 7.09723 7.0359C7.10559 7.22039 7.05956 7.40328 6.96485 7.56194C6.87013 7.7206 6.73087 7.84808 6.56431 7.92861C6.51448 7.95455 6.52098 7.98913 6.52098 8.0302C6.52098 9.513 6.52098 10.9958 6.52098 12.4786C6.52248 12.533 6.51739 12.5875 6.50581 12.6407C6.48015 12.7499 6.4158 12.8461 6.32463 12.9116C6.23346 12.9772 6.12162 13.0076 6.00972 12.9974C5.89793 12.988 5.79307 12.9395 5.71375 12.8604C5.63444 12.7812 5.58579 12.6766 5.57644 12.5651C5.57644 12.5326 5.57644 12.5024 5.57644 12.4721V8.02588C5.57929 8.00014 5.57364 7.97418 5.56034 7.95194C5.54705 7.9297 5.52684 7.9124 5.50279 7.90267C5.34858 7.82401 5.21967 7.70365 5.1308 7.55534C5.04192 7.40703 4.99666 7.23676 5.00019 7.064C5.00019 6.44149 5.00019 5.81681 5.00019 5.19429C4.99853 5.15567 5.00807 5.11738 5.02767 5.08403C5.04727 5.05067 5.07609 5.02367 5.11068 5.00624H5.206C5.24448 5.02543 5.27636 5.05563 5.29758 5.09297C5.3188 5.13031 5.3284 5.1731 5.32515 5.21591C5.32515 5.73035 5.32515 6.24479 5.32515 6.75923V6.8392H5.60677V6.75058C5.60677 6.2383 5.60677 5.72819 5.60677 5.21591C5.6014 5.17298 5.60905 5.12944 5.62875 5.0909C5.64845 5.05237 5.67928 5.02062 5.71726 4.99976H5.81258C5.85056 5.02062 5.88139 5.05237 5.90108 5.0909C5.92078 5.12944 5.92844 5.17298 5.92306 5.21591C5.92306 5.73035 5.92306 6.24479 5.92306 6.75923V6.8392H6.19169V6.75058C6.19169 6.2383 6.19169 5.72819 6.19169 5.21591C6.18651 5.17275 6.19449 5.12905 6.21459 5.09049C6.23468 5.05193 6.26596 5.02031 6.30434 4.99976H6.3975C6.43547 5.02062 6.46631 5.05237 6.486 5.0909C6.5057 5.12944 6.51336 5.17298 6.50798 5.21591C6.50798 5.73035 6.50798 6.24479 6.50798 6.75923V6.8392H6.78961V6.75058C6.78961 6.2383 6.78961 5.72819 6.78961 5.21591C6.78443 5.17275 6.79241 5.12905 6.8125 5.09049C6.8326 5.05193 6.86388 5.02031 6.90226 4.99976L6.98675 5.01273ZM5.32515 7.16127C5.34315 7.27543 5.39141 7.38272 5.46492 7.47202C5.53843 7.56133 5.63452 7.62941 5.74325 7.66923C5.87757 7.72326 5.89707 7.74704 5.89707 7.88538V12.511C5.89707 12.5523 5.9135 12.5919 5.94275 12.6211C5.972 12.6503 6.01168 12.6666 6.05304 12.6666C6.09441 12.6666 6.13409 12.6503 6.16334 12.6211C6.19259 12.5919 6.20902 12.5523 6.20902 12.511V7.89402C6.20902 7.75353 6.23069 7.72326 6.36067 7.67787C6.45265 7.64447 6.53589 7.59077 6.60416 7.52078C6.67243 7.45079 6.72398 7.36632 6.75495 7.27367C6.76578 7.24125 6.76794 7.20666 6.77661 7.16775L5.32515 7.16127Z" fill="#410EAD"/>
<path d="M13.0003 12.6042C13.0003 12.6193 12.9894 12.6323 12.9851 12.6474C12.9562 12.7573 12.8886 12.8531 12.7947 12.9174C12.7009 12.9817 12.587 13.0101 12.4738 12.9976C12.359 12.9832 12.2536 12.9268 12.178 12.8394C12.1023 12.7519 12.0619 12.6397 12.0644 12.5242C12.0644 11.7871 12.0644 11.05 12.0644 10.3108C12.0663 10.287 12.0626 10.263 12.0535 10.2409C12.0445 10.2188 12.0304 10.199 12.0124 10.1833C11.9236 10.099 11.8369 10.0125 11.7546 9.9239C11.6133 9.77874 11.5354 9.58367 11.538 9.38136C11.538 8.67454 11.5185 7.96773 11.538 7.26308C11.5436 6.8129 11.6619 6.37127 11.8821 5.9783C12.1023 5.58533 12.4174 5.2535 12.7988 5.01294H13.0003V12.6042ZM12.6905 5.48631C12.645 5.52954 12.6103 5.55764 12.58 5.5879C12.3479 5.81509 12.1636 6.0862 12.0379 6.38536C11.9121 6.68451 11.8475 7.00569 11.8478 7.33008C11.8478 8.00231 11.8478 8.67454 11.8478 9.34894C11.8461 9.41901 11.8591 9.48865 11.886 9.55341C11.9128 9.61817 11.9529 9.67663 12.0037 9.72504C12.1012 9.82231 12.1965 9.92174 12.2962 10.0168C12.3244 10.0419 12.3466 10.073 12.3613 10.1078C12.3759 10.1426 12.3825 10.1802 12.3807 10.2179C12.3807 10.9657 12.3807 11.7136 12.3807 12.4615C12.3785 12.4896 12.3785 12.5178 12.3807 12.5458C12.3868 12.5821 12.4056 12.615 12.4338 12.6388C12.4619 12.6626 12.4976 12.6756 12.5345 12.6756C12.5714 12.6756 12.607 12.6626 12.6352 12.6388C12.6634 12.615 12.6822 12.5821 12.6883 12.5458C12.6905 12.5142 12.6905 12.4824 12.6883 12.4507V5.48631H12.6905Z" fill="#410EAD"/>
<path d="M9.00806 11.2161C8.56894 11.2174 8.13932 11.0886 7.77361 10.8461C7.40791 10.6035 7.12256 10.2582 6.95373 9.85372C6.78489 9.44926 6.74016 9.00391 6.8252 8.57407C6.91023 8.14423 7.12121 7.74924 7.43141 7.43913C7.74161 7.12902 8.13707 6.91774 8.56771 6.83205C8.99835 6.74636 9.44479 6.79012 9.85048 6.95779C10.2562 7.12546 10.6029 7.40948 10.8467 7.7739C11.0904 8.13831 11.2203 8.56672 11.2199 9.00485C11.2182 9.59003 10.9848 10.1508 10.5705 10.565C10.1561 10.9792 9.59455 11.2132 9.00806 11.2161ZM9.00806 7.1092C8.63101 7.1092 8.26242 7.22076 7.94892 7.42977C7.63541 7.63878 7.39107 7.93585 7.24677 8.28342C7.10248 8.63099 7.06473 9.01344 7.13829 9.38242C7.21185 9.7514 7.39342 10.0903 7.66003 10.3563C7.92664 10.6224 8.26633 10.8035 8.63614 10.8769C9.00594 10.9503 9.38926 10.9126 9.73761 10.7687C10.086 10.6247 10.3837 10.3809 10.5932 10.0681C10.8026 9.7553 10.9145 9.38754 10.9145 9.01134C10.915 8.76098 10.8662 8.51296 10.7707 8.28144C10.6752 8.04992 10.5349 7.83943 10.3579 7.662C10.1809 7.48457 9.97054 7.34366 9.73893 7.24733C9.50733 7.151 9.25898 7.10112 9.00806 7.10056V7.1092Z" fill="#410EAD"/>
<path d="M9.00855 11.9836C8.44486 11.985 7.89221 11.8276 7.41411 11.5297C7.3703 11.4993 7.33581 11.4574 7.31446 11.4086C7.30482 11.38 7.30538 11.3488 7.31603 11.3205C7.32668 11.2921 7.34678 11.2683 7.37295 11.253C7.40025 11.235 7.43228 11.2254 7.46502 11.2254C7.49776 11.2254 7.52978 11.235 7.55709 11.253C7.73847 11.3543 7.92584 11.4446 8.11818 11.5232C8.62891 11.7018 9.18208 11.7207 9.70385 11.5774C10.2256 11.4341 10.6912 11.1355 11.0384 10.7213L11.0883 10.6629C11.1132 10.6305 11.1498 10.6092 11.1904 10.6036C11.2309 10.5979 11.272 10.6083 11.3049 10.6327C11.3224 10.6457 11.3368 10.6624 11.3472 10.6816C11.3577 10.7008 11.3638 10.722 11.3652 10.7437C11.3667 10.7655 11.3634 10.7873 11.3556 10.8077C11.3478 10.8281 11.3357 10.8465 11.3201 10.8618C11.1595 11.0415 10.9865 11.2098 10.8023 11.3654C10.2911 11.7669 9.65914 11.9847 9.00855 11.9836Z" fill="#410EAD"/>
<path d="M11.2089 7.0293C11.2089 7.12441 11.1785 7.17413 11.1179 7.20006C11.0895 7.21395 11.0574 7.21851 11.0263 7.21307C10.9952 7.20763 10.9665 7.19249 10.9446 7.1698C10.8579 7.09199 10.7778 7.00769 10.6868 6.9342C10.42 6.71446 10.1123 6.54957 9.78142 6.44903C9.45051 6.3485 9.10293 6.31431 8.75871 6.34843C8.42714 6.3784 8.10398 6.46927 7.80551 6.61646C7.78665 6.62843 7.76546 6.63628 7.74334 6.63948C7.72122 6.64269 7.69866 6.64118 7.67717 6.63505C7.65567 6.62892 7.63573 6.61832 7.61864 6.60393C7.60155 6.58955 7.58772 6.57172 7.57804 6.55161C7.5689 6.5317 7.56395 6.51013 7.56351 6.48823C7.56306 6.46633 7.56713 6.44457 7.57546 6.42431C7.58379 6.40404 7.5962 6.3857 7.61192 6.37042C7.62764 6.35513 7.64634 6.34324 7.66687 6.33546L7.71452 6.31168C8.27774 6.04477 8.91051 5.96024 9.52426 6.06992C10.138 6.17961 10.702 6.47802 11.1374 6.92339C11.1649 6.95606 11.1889 6.99157 11.2089 7.0293Z" fill="#410EAD"/>
<path d="M7.16297 11.007C7.16297 11.0478 7.14676 11.0869 7.11792 11.1157C7.08907 11.1446 7.04995 11.1608 7.00916 11.1608C6.96587 11.1602 6.92454 11.1426 6.89413 11.1118C6.86372 11.081 6.84668 11.0394 6.84668 10.9961C6.84779 10.9559 6.86442 10.9176 6.89309 10.8894C6.92176 10.8611 6.96024 10.845 7.00049 10.8445C7.04358 10.8445 7.08491 10.8616 7.11538 10.8921C7.14585 10.9225 7.16297 10.9639 7.16297 11.007Z" fill="#410EAD"/>
<path d="M7.56567 8.95114C7.57514 8.68374 7.6598 8.42438 7.80996 8.2027C7.96012 7.98102 8.16974 7.80594 8.41488 7.69746C8.43348 7.68587 8.45432 7.67832 8.47605 7.67531C8.49777 7.6723 8.51988 7.67389 8.54095 7.67999C8.56201 7.68608 8.58155 7.69654 8.59829 7.71068C8.61503 7.72482 8.62859 7.74232 8.63809 7.76204C8.64759 7.78176 8.65281 7.80326 8.65342 7.82514C8.65403 7.84701 8.65001 7.86877 8.64162 7.88898C8.63323 7.9092 8.62067 7.92743 8.60474 7.94247C8.58881 7.95752 8.56989 7.96904 8.5492 7.97629C8.34983 8.06321 8.18014 8.20618 8.06088 8.38775C7.94162 8.56931 7.87794 8.7816 7.87762 8.99869C7.8782 9.01949 7.8746 9.04019 7.86702 9.05957C7.85944 9.07896 7.84804 9.09663 7.8335 9.11154C7.81896 9.12645 7.80157 9.1383 7.78235 9.14639C7.76314 9.15448 7.7425 9.15865 7.72165 9.15864C7.70021 9.15809 7.6791 9.15326 7.65957 9.14443C7.64004 9.1356 7.62249 9.12295 7.60794 9.10723C7.5934 9.09151 7.58217 9.07304 7.5749 9.05291C7.56764 9.03278 7.5645 9.0114 7.56567 8.99004V8.95114Z" fill="#410EAD"/>
<path d="M8.99271 7.88154C8.97194 7.88128 8.95145 7.87682 8.93245 7.86842C8.91346 7.86002 8.89636 7.84787 8.88219 7.83269C8.86802 7.8175 8.85707 7.79961 8.85 7.78008C8.84293 7.76055 8.83989 7.73979 8.84107 7.71906C8.84328 7.67864 8.86092 7.6406 8.89034 7.6128C8.91976 7.58499 8.95873 7.56952 8.99921 7.56958C9.04058 7.56958 9.08025 7.58601 9.1095 7.61527C9.13875 7.64452 9.15519 7.68419 9.15519 7.72556C9.15519 7.76693 9.13875 7.8066 9.1095 7.83585C9.08025 7.8651 9.04058 7.88154 8.99921 7.88154H8.99271Z" fill="#410EAD"/>
</svg>
