<svg width="50" height="54" viewBox="0 0 50 54" fill="none" xmlns="http://www.w3.org/2000/svg">
<path fill-rule="evenodd" clip-rule="evenodd" d="M40.8996 0.84375V1.6875H41.7887H42.6778V0.84375V0H41.7887H40.8996V0.84375ZM44.3515 2.79492V3.69995L45.2144 3.66926L46.0774 3.63867V2.79492V1.95117L45.2144 1.92059L44.3515 1.88989V2.79492ZM12.4278 3.0664C8.09446 3.55567 4.96109 7.67812 5.64373 11.9919C6.4022 16.7845 11.2519 19.7513 15.786 18.1964C20.2176 16.6767 22.3023 11.505 20.1877 7.27661C18.7536 4.40912 15.6156 2.70654 12.4278 3.0664ZM40.8996 4.32422V5.16797H41.7887H42.6778V4.32422V3.48047H41.7887H40.8996V4.32422ZM47.5941 4.53516V5.37891H48.4833H49.3724V4.53516V3.69141H48.4833H47.5941V4.53516ZM14.7924 4.95471C15.9253 5.24686 16.5608 5.62085 17.4805 6.53695C18.7285 7.77969 19.286 9.09942 19.286 10.8105C19.286 12.9023 18.2711 14.7671 16.4982 15.9328C15.1697 16.8064 13.4265 17.0863 11.8371 16.681C10.6958 16.3899 9.94383 15.947 9.04498 15.0362C7.85 13.8254 7.31172 12.513 7.31172 10.8105C7.31172 9.07506 7.84833 7.79024 9.09592 6.53832C10.6631 4.96557 12.6705 4.40754 14.7924 4.95471ZM44.3515 6.22266V7.06641H45.2406H46.1297V6.22266V5.37891H45.2406H44.3515V6.22266ZM47.6679 7.13264C47.6273 7.17356 47.5941 7.57877 47.5941 8.03324V8.85938H48.4874H49.3809L49.3504 7.98926L49.3201 7.11914L48.5309 7.08877C48.0968 7.072 47.7085 7.09182 47.6679 7.13264ZM37.7615 9.78803V10.5057L36.9735 10.6393C33.8325 11.1714 31.0961 13.239 29.6281 16.1895C29.2122 17.0253 28.7976 18.3707 28.707 19.178L28.6341 19.8281H27.9154H27.1967V20.6719V21.5156H38.5983H50V20.6719V19.8281H49.3691C48.9525 19.8281 48.7266 19.7833 48.7038 19.6963C48.6848 19.6238 48.5904 19.1457 48.4937 18.6339C48.1448 16.7851 47.3134 15.1665 45.9793 13.7384C44.3909 12.0381 42.7209 11.1128 40.4289 10.6631L39.4874 10.4783L39.4565 9.77432L39.4256 9.07031H38.5935H37.7615V9.78803ZM47.6679 10.6131C47.6273 10.654 47.5941 11.0118 47.5941 11.4082V12.1289H48.4879H49.3816L49.3508 11.3643L49.3201 10.5996L48.5309 10.5692C48.0968 10.5525 47.7085 10.5723 47.6679 10.6131ZM40.1843 12.3833C43.418 13.0106 45.9999 15.4808 46.7531 18.668C46.8697 19.161 46.9654 19.6238 46.9658 19.6963C46.9664 19.8007 45.234 19.8281 38.6506 19.8281C34.0769 19.8281 30.3356 19.7925 30.3365 19.749C30.3376 19.7056 30.4046 19.3547 30.4857 18.9693C31.1838 15.6481 33.7497 13.0699 37.0293 12.3943C37.9419 12.2062 39.2483 12.2017 40.1843 12.3833ZM36.4232 13.8752C34.481 14.4022 32.9989 15.9849 32.6376 17.9177C32.4494 18.9248 32.412 18.8789 33.4205 18.8789H34.3096V18.5285C34.3096 17.9149 34.6247 17.207 35.1611 16.6152C35.7374 15.9794 36.3626 15.6275 37.1059 15.5208L37.6046 15.4491L37.6349 14.58L37.6654 13.7109L37.3211 13.7179C37.1319 13.7217 36.7278 13.7925 36.4232 13.8752ZM8.159 22.4121C8.159 24.3554 8.18504 25.9453 8.21674 25.9453C8.24854 25.9453 9.3364 25.6605 10.6343 25.3125C11.9322 24.9645 13.0888 24.6797 13.2045 24.6797C13.3649 24.6797 16.7684 25.5475 18.0178 25.9068C18.1895 25.9563 18.2008 25.7407 18.2008 22.4192C18.2008 20.1577 18.1635 18.8789 18.0975 18.8789C18.0406 18.8789 16.9123 19.1869 15.5903 19.5632L13.1864 20.2475L10.8035 19.5634C9.49278 19.1872 8.36172 18.8792 8.28975 18.8791C8.18776 18.8789 8.159 19.6558 8.159 22.4121ZM14.8141 21.5862L16.4226 21.1216V22.4101V23.6986L14.932 23.2879C13.222 22.8167 13.1894 22.8172 11.2709 23.3398L9.93724 23.703V22.413V21.1229L11.5714 21.5868L13.2055 22.0508L14.8141 21.5862ZM4.49791 21.3754C3.98735 21.4572 2.97364 21.866 2.45816 22.1979C1.81109 22.6145 0.981697 23.5194 0.604919 24.2198C-0.0062735 25.356 2.54158e-06 25.2536 2.54158e-06 34.0886V42.1875H2.30126H4.60251V48.0938V54H14.9053H25.2083L25.2348 43.0663L25.2615 32.1325L28.3431 34.9465C30.0381 36.4943 31.4608 37.7481 31.5048 37.7328C31.5489 37.7175 34.6071 34.3116 38.3012 30.1641L45.0175 22.623L40.9469 22.5954L36.8764 22.5678L34.154 25.3112L31.4316 28.0547L28.7127 25.3015C24.9552 21.4967 24.7971 21.4047 21.8881 21.3282L20.0837 21.2807V22.1365V22.9922L21.2605 22.9928C22.6747 22.9936 23.4988 23.1174 24.149 23.4267C24.5012 23.5944 25.5648 24.5907 28.0354 27.0674L31.4368 30.4772L34.5234 27.3649L37.6101 24.2526L39.4033 24.2815L41.1964 24.3105L36.5982 29.4785C34.0692 32.3209 31.849 34.7997 31.6642 34.9871L31.3285 35.3278L27.4582 31.7956L23.5879 28.2634L23.5356 40.2615L23.4833 52.2598H14.9059H6.32845L6.30126 47.2236L6.27417 42.1875H7.16423H8.05439V46.1426V50.0977H13.1799H18.3054V46.1447V42.1918L20.4759 42.1632L22.6464 42.1348V38.7598V35.3848L20.4759 35.3563L18.3054 35.3277V34.908V34.4883H13.1799H8.05439V34.9102V35.332H7.16527H6.27615V32.748V30.1641H5.43933H4.60251V33.6445V37.125H6.32845H8.05439V38.7598V40.3945H4.86057H1.66674L1.69634 33.1436L1.72594 25.8926L1.99802 25.3076C2.61067 23.9907 3.46914 23.3746 5.15168 23.0446C5.43682 22.9887 5.43933 22.9807 5.43933 22.1464V21.3047L5.09937 21.319C4.91234 21.3269 4.64174 21.3523 4.49791 21.3754ZM16.6318 42.3457V48.4102H13.1799H9.72803V42.3457V36.2812H13.1799H16.6318V42.3457ZM20.9205 38.7598V40.3945H19.613H18.3054V38.7598V37.125H19.613H20.9205V38.7598Z" fill="#0F6918"/>
</svg>
