<svg width="50" height="35" viewBox="0 0 50 35" fill="none" xmlns="http://www.w3.org/2000/svg">
<path fill-rule="evenodd" clip-rule="evenodd" d="M2.01304 0.141607C1.44527 0.341887 0.898519 0.736646 0.572151 1.18196C-0.0434311 2.02213 -0.0167389 1.37537 0.011811 14.7485L0.037721 26.922L0.298972 27.4114C0.611261 27.9964 1.21482 28.5587 1.8346 28.842C2.28377 29.0473 2.33775 29.0487 10.8644 29.0757L19.4423 29.103L21.7043 31.7822C22.9485 33.2559 24.0939 34.5812 24.2498 34.7273C24.5485 35.0075 25.0562 35.0836 25.403 34.9001C25.4997 34.849 26.6027 33.5236 27.854 31.9549L30.1292 29.1028L38.9401 29.0756C47.7052 29.0486 47.7536 29.0475 48.2031 28.842C48.8229 28.5587 49.4265 27.9964 49.7387 27.4114L50 26.922V14.5495V2.17707L49.7272 1.62785C49.4314 1.03252 49.007 0.610698 48.3596 0.268618L47.9468 0.0505534L31.2455 0.025325L14.5443 0L14.2573 0.283697C13.8812 0.655548 13.8597 1.21734 14.2064 1.61586L14.4424 1.88709L30.9724 1.93542L47.5024 1.98375L47.7734 2.25179L48.0445 2.51973V14.5114V26.5029L47.7252 26.785L47.4059 27.067H38.5246C32.6486 27.067 29.5451 27.1009 29.3528 27.1672C29.1392 27.2408 28.5081 27.9622 26.9746 29.8856C25.3072 31.977 24.866 32.4757 24.782 32.3644C24.7241 32.2877 23.737 31.1106 22.5887 29.7486C21.0897 27.9707 20.4169 27.2432 20.2031 27.1696C20.0019 27.1003 17.1071 27.067 11.2687 27.067H2.63185L2.31252 26.785L1.99319 26.5029V14.5012V2.49953L2.31252 2.21748L2.63185 1.93542H4.78609C7.16707 1.93542 7.39127 1.8899 7.61263 1.36165C7.78119 0.959351 7.66611 0.442509 7.35392 0.1997C7.11369 0.0129526 6.97202 0.00241663 4.74209 0.00647635C3.0161 0.00956947 2.28485 0.0458172 2.01304 0.141607ZM10.3284 0.106616C10.1164 0.228698 9.86396 0.697305 9.86396 0.968823C9.86396 1.28838 10.1188 1.69368 10.399 1.81991C10.7487 1.97747 11.0054 1.965 11.3315 1.77448C12.1743 1.28229 11.8417 -0.00241636 10.8737 0.00512311C10.6679 0.00676633 10.4224 0.0523901 10.3284 0.106616ZM11.135 8.33837C10.9457 8.43648 9.87462 9.95801 9.1949 11.0944C9.155 11.1611 8.42024 11.3916 7.56218 11.6065C6.22014 11.9427 5.96426 12.0375 5.73303 12.2842C5.54912 12.4804 5.46415 12.6751 5.46415 12.9004C5.46415 13.2616 5.67867 13.5761 6.89507 14.9976L7.6093 15.8322L7.5173 17.0758C7.46675 17.7597 7.42402 18.5612 7.42246 18.8568C7.4164 20.0069 8.08321 20.1026 10.1084 19.2422C10.7537 18.9681 11.4137 18.7424 11.575 18.7406C11.7363 18.7389 12.1629 18.8689 12.523 19.0295C14.3108 19.8267 15.1642 19.9906 15.5486 19.6106C15.7514 19.4101 15.7559 19.3545 15.6899 17.8465C15.6524 16.9901 15.5997 16.2002 15.5726 16.0911C15.5359 15.9435 15.7995 15.5627 16.6046 14.6004C17.7479 13.2337 17.8444 13.018 17.5745 12.4322C17.4243 12.1063 17.099 11.9725 15.4371 11.5535L14.0193 11.196L13.2082 9.91151C12.7622 9.20502 12.3166 8.55489 12.2182 8.46683C11.9745 8.24877 11.432 8.18439 11.135 8.33837ZM24.4567 8.33634C24.3356 8.39405 23.8368 9.06458 23.3482 9.82655C22.5431 11.0819 22.4261 11.2206 22.1016 11.3048C21.9046 11.3559 21.2258 11.5259 20.5932 11.6826C19.3257 11.9967 18.9979 12.1593 18.8477 12.5489C18.6711 13.007 18.8333 13.3233 19.8886 14.5782L20.921 15.8061L20.8433 17.111C20.7163 19.2453 20.7277 19.4175 21.0101 19.6437C21.3766 19.9372 22.044 19.828 23.445 19.2454C24.0946 18.9753 24.761 18.7543 24.9258 18.7543C25.0905 18.7543 25.6859 18.9525 26.2488 19.1948C27.4583 19.7154 28.2185 19.8982 28.6095 19.7622C29.0786 19.5992 29.1385 19.3217 29.0291 17.8214C28.8735 15.6876 28.8076 15.9432 29.8242 14.739C31.1722 13.1424 31.2462 12.9822 30.8965 12.4153C30.6796 12.0636 30.484 11.9789 29.1253 11.6477C28.5607 11.5101 27.9376 11.3557 27.7406 11.3047C27.4161 11.2206 27.2991 11.082 26.4947 9.82761C25.6104 8.44876 25.3719 8.2103 24.892 8.22489C24.7735 8.22847 24.5776 8.27863 24.4567 8.33634ZM37.8555 8.31653C37.6046 8.41647 37.3336 8.7773 36.4584 10.1773L35.8228 11.1939L34.2578 11.5992C33.3971 11.8222 32.6233 12.0552 32.5383 12.1172C32.3016 12.2896 32.1563 12.6178 32.1563 12.98C32.1563 13.2551 32.3302 13.5158 33.2357 14.5982C33.8294 15.3077 34.2952 15.9397 34.2708 16.0024C34.2464 16.0652 34.1949 16.8564 34.1562 17.7609C34.0878 19.3574 34.0919 19.4112 34.2943 19.6113C34.6786 19.9912 35.3801 19.8645 37.1483 19.0959C37.5985 18.9003 38.0786 18.7371 38.2152 18.7332C38.3517 18.7293 39.0132 18.9569 39.6852 19.2388C40.6686 19.6514 41.019 19.7531 41.4809 19.7603C41.9951 19.7682 42.0754 19.742 42.2541 19.5082C42.4475 19.255 42.4502 19.196 42.3437 17.5436L42.234 15.84L43.14 14.7598C43.6383 14.1657 44.1206 13.572 44.212 13.4406C44.4511 13.0966 44.4214 12.6338 44.1392 12.3022C43.9321 12.0589 43.6877 11.967 42.3035 11.6114L40.7065 11.2012L39.8426 9.85168C38.8342 8.27651 38.5357 8.04588 37.8555 8.31653ZM12.0074 11.7819C12.5827 12.7556 12.8648 12.9608 13.9999 13.2306L14.9575 13.4583L14.7092 13.7622C14.5726 13.9295 14.2569 14.3272 14.0076 14.6462L13.5542 15.2262L13.616 16.3123L13.6778 17.3985L13.1642 17.195C12.8816 17.0832 12.4023 16.9074 12.0988 16.8043L11.5469 16.6169L10.6322 16.9696C10.129 17.1635 9.66851 17.3422 9.60887 17.3668C9.53163 17.3985 9.51325 17.0832 9.54493 16.2704L9.58951 15.1295L9.02741 14.4529C8.71825 14.0807 8.40342 13.7048 8.32784 13.6175C8.20318 13.4733 8.27905 13.4377 9.14914 13.2308C10.2829 12.9613 10.5624 12.7589 11.1496 11.7817C11.369 11.4167 11.5635 11.1181 11.5818 11.1181C11.6002 11.1181 11.7917 11.4168 12.0074 11.7819ZM25.2557 11.6257C25.9055 12.7798 26.0629 12.9003 27.3654 13.241C27.8225 13.3604 28.2129 13.4735 28.233 13.4922C28.253 13.5108 27.967 13.885 27.5974 14.3237L26.9254 15.1211L26.9551 16.2526L26.9848 17.3842L26.1729 17.0364C25.1145 16.5829 24.7262 16.5836 23.6598 17.0404L22.8385 17.3923L22.8992 16.3428C22.9677 15.1595 22.9604 15.1408 22.0094 14.0398C21.7671 13.7593 21.5862 13.5137 21.6073 13.4941C21.6284 13.4744 22.0197 13.3604 22.4767 13.241C23.7793 12.9003 23.9367 12.7798 24.5865 11.6257C24.7436 11.3466 24.8942 11.1183 24.9211 11.1183C24.948 11.1183 25.0985 11.3466 25.2557 11.6257ZM38.6926 11.7817C39.2798 12.7589 39.5593 12.9613 40.693 13.2308C41.5631 13.4377 41.639 13.4733 41.5143 13.6175C41.4388 13.7048 41.1239 14.0807 40.8148 14.4529L40.2527 15.1295L40.2972 16.2704C40.337 17.2912 40.3252 17.4045 40.1844 17.3476C40.0979 17.3125 39.6295 17.132 39.1434 16.9464L38.2598 16.6091L37.3346 16.9657C36.8258 17.1618 36.3534 17.345 36.2848 17.3729C36.1861 17.413 36.1736 17.2047 36.2251 16.3677C36.2664 15.6947 36.2529 15.2438 36.1878 15.124C36.1317 15.0207 35.8187 14.6125 35.4924 14.2168C35.1659 13.8213 34.9088 13.4877 34.921 13.4757C34.9332 13.4637 35.3771 13.3449 35.9075 13.2117C37.0268 12.9308 37.2517 12.7631 37.8401 11.7706C38.0529 11.4117 38.2419 11.1181 38.2603 11.1181C38.2787 11.1181 38.4732 11.4167 38.6926 11.7817Z" fill="#75DCFD"/>
</svg>
