<svg width="50" height="55" viewBox="0 0 50 55" fill="none" xmlns="http://www.w3.org/2000/svg">
<path fill-rule="evenodd" clip-rule="evenodd" d="M12.7171 0.118073C11.7265 0.350532 10.794 1.09349 10.3131 2.03317C10.063 2.5221 9.99985 2.83646 9.95461 3.82113L9.89973 5.01577L6.35997 5.05139L2.82034 5.08689L2.15662 5.39715C1.348 5.77513 0.664777 6.43489 0.284736 7.20492L0 7.78173V30.0434V52.3052L0.3167 52.9036C0.73176 53.688 1.66799 54.5176 2.44194 54.7868C3.02422 54.9892 3.91662 55 20.0386 55H37.0218L37.8077 54.6143C38.662 54.1949 39.2456 53.6091 39.6837 52.7312L39.9548 52.188L39.9887 45.486L40.0226 38.7841L43.9254 38.7489C47.6673 38.7152 47.8476 38.7034 48.2982 38.4605C48.923 38.1237 49.4653 37.5432 49.7579 36.8977C49.9887 36.3887 49.9971 36.1523 49.9996 30.0936C50.0026 23.0573 50.0089 23.1178 49.1762 22.2623C48.2928 21.3548 48.4194 21.3773 43.9833 21.3381L40.0208 21.3029L39.9878 14.601L39.9548 7.89889L39.6292 7.23784C39.2493 6.46665 38.4621 5.69862 37.6839 5.34009C37.1654 5.10118 36.9336 5.0849 33.5796 5.05127L30.0248 5.01565V4.22641C30.0248 2.09983 29.0177 0.618024 27.2679 0.169627C26.676 0.0178954 25.529 -0.00799836 19.8646 0.00184366C16.1779 0.00840501 12.9616 0.0606613 12.7171 0.118073ZM27.151 2.85544L27.4395 3.14297V6.22716C27.4395 9.58516 27.4252 9.66401 26.7666 9.93608C26.5261 10.0353 24.6338 10.0636 19.7724 10.04L13.108 10.0079L12.7822 9.68299L12.4565 9.35821V6.24579V3.13336L12.7862 2.85052L13.116 2.5678H19.9892H26.8626L27.151 2.85544ZM9.95379 8.68977C9.99304 9.62301 10.0633 10.0125 10.269 10.4371C10.6005 11.121 11.3326 11.8522 12.0351 12.2009L12.574 12.4684H19.9186H27.2632L27.8775 12.1915C28.2153 12.0392 28.7093 11.6794 28.975 11.3919C29.6914 10.6169 29.9201 10.0013 29.9951 8.64607L30.059 7.48881L33.1854 7.48904C36.7068 7.48916 36.953 7.53779 37.3404 8.30898C37.5303 8.68684 37.5441 9.21163 37.5167 14.9875L37.487 21.2559L34.7841 21.3145C31.7982 21.3792 31.7103 21.3992 30.9101 22.1971C30.0392 23.0656 30.0873 22.6387 30.05 29.8091C30.0124 37.0016 29.9952 36.8268 30.8266 37.7444C31.6556 38.6592 31.8558 38.709 34.8723 38.7511L37.5457 38.7882V45.0525C37.5457 51.9246 37.5441 51.9425 36.8557 52.2974C36.5376 52.4615 34.7354 52.4809 19.8675 52.4809H3.23539L2.85159 52.139L2.46779 51.7971V30.0608V8.32433L2.80717 7.97119C2.99379 7.77692 3.25819 7.59614 3.39474 7.56942C3.53118 7.54259 5.05146 7.51353 6.77315 7.50475L9.90326 7.48881L9.95379 8.68977ZM5.47815 17.7563C4.94593 18.1279 4.87683 18.5377 4.87683 21.3224C4.87683 25.1961 4.74416 25.0639 8.6294 25.0639C11.4224 25.0639 11.8333 24.995 12.2061 24.4643C12.371 24.2295 12.3977 23.7776 12.3977 21.2209V18.2501L12.0542 17.9076L11.7107 17.5652H8.73117C6.1669 17.5652 5.71365 17.5918 5.47815 17.7563ZM15.3265 17.9076C14.7675 18.465 14.8895 19.4301 15.5694 19.8306C15.8533 19.9978 16.2978 20.0257 18.6793 20.0257C21.8052 20.0257 22.0367 19.9765 22.3427 19.2463C22.5573 18.7341 22.3998 18.1535 21.9508 17.8014C21.6668 17.5786 21.4794 17.5652 18.6598 17.5652H15.67L15.3265 17.9076ZM9.92993 21.2559V22.4862H8.69603H7.46214V21.2559V20.0257H8.69603H9.92993V21.2559ZM15.7325 22.6545C15.2492 22.8643 14.983 23.2622 14.983 23.775C14.983 24.298 15.2531 24.69 15.7585 24.9005C16.334 25.1402 26.0886 25.1402 26.664 24.9005C27.1695 24.69 27.4395 24.298 27.4395 23.775C27.4395 23.252 27.1695 22.8601 26.664 22.6495C26.0976 22.4135 16.2776 22.4181 15.7325 22.6545ZM47.3195 23.9689C47.5223 24.1519 47.5344 24.4956 47.5344 30.0549V35.9471L47.2732 36.1294C47.0439 36.2896 46.1575 36.3119 40.0135 36.3119C33.8695 36.3119 32.9831 36.2896 32.7538 36.1294L32.4926 35.9471V30.0753C32.4926 24.776 32.5115 24.1826 32.6871 23.9893C32.8715 23.7861 33.2528 23.775 39.9931 23.775C46.4455 23.775 47.1245 23.7929 47.3195 23.9689ZM43.2451 26.4175C43.0512 26.5168 41.9557 27.5292 40.8104 28.6673L38.7283 30.7366L37.7401 29.7749C36.8372 28.8963 36.7114 28.8132 36.2833 28.8132C35.3838 28.8132 34.7754 29.6791 35.1171 30.4727C35.2097 30.6877 35.9441 31.5094 36.7492 32.2989C38.0909 33.6145 38.2494 33.7342 38.6491 33.7342C38.8889 33.7342 39.2278 33.6595 39.4024 33.5682C39.5769 33.4768 40.89 32.2246 42.3203 30.7855C44.2774 28.8164 44.941 28.0759 45.002 27.7935C45.1141 27.2734 44.8001 26.6544 44.3054 26.4203C43.8207 26.1911 43.6879 26.1908 43.2451 26.4175ZM5.50917 27.7481C5.30752 27.8707 5.08283 28.1419 5.00974 28.351C4.80338 28.9411 4.83112 33.7499 5.04382 34.2575C5.34324 34.9718 5.58791 35.023 8.70144 35.023C11.7156 35.023 11.9877 34.972 12.2702 34.3538C12.4538 33.9521 12.4425 28.5708 12.2573 28.1655C11.9868 27.5734 11.7117 27.5244 8.67253 27.5248C6.13094 27.5252 5.84221 27.5456 5.50917 27.7481ZM15.5502 27.7249C14.8867 28.1354 14.775 29.0925 15.3265 29.6424L15.67 29.9849H18.6598C21.4794 29.9849 21.6668 29.9714 21.9508 29.7487C22.3998 29.3966 22.5573 28.8159 22.3427 28.3038C22.0361 27.5722 21.8075 27.524 18.6612 27.5275C16.2644 27.5301 15.8195 27.5583 15.5502 27.7249ZM9.92993 31.2737V32.5625H8.69603H7.46214V31.2737V29.9849H8.69603H9.92993V31.2737ZM15.3265 32.905C14.7675 33.4624 14.8895 34.4275 15.5694 34.828C15.8653 35.0022 16.4675 35.023 21.2113 35.023C25.9551 35.023 26.5572 35.0022 26.8531 34.828C27.5331 34.4275 27.655 33.4624 27.096 32.905L26.7525 32.5625H21.2113H15.67L15.3265 32.905ZM5.61964 37.6725C4.94499 38.0044 4.87683 38.3302 4.87683 41.225C4.87683 44.0097 4.94593 44.4195 5.47815 44.7911C5.71365 44.9556 6.1669 44.9822 8.73117 44.9822H11.7107L12.0542 44.6397L12.3977 44.2973V41.3265C12.3977 38.0297 12.384 37.9642 11.6223 37.6469C11.0233 37.3974 6.13682 37.4183 5.61964 37.6725ZM15.7325 37.6519C15.2492 37.8616 14.983 38.2595 14.983 38.7724C14.983 39.2954 15.2531 39.6873 15.7585 39.8979C16.3599 40.1484 21.2043 40.1311 21.7427 39.8764C22.1016 39.7066 22.5039 39.1231 22.5039 38.7724C22.5039 38.4217 22.1016 37.8382 21.7427 37.6683C21.2123 37.4175 16.3038 37.404 15.7325 37.6519ZM9.92993 41.2915V42.5217H8.69603H7.46214V41.2915V40.0612H8.69603H9.92993V41.2915ZM15.5502 42.7223C14.8867 43.1327 14.775 44.0899 15.3265 44.6397L15.67 44.9822H21.2113H26.7525L27.096 44.6397C27.6633 44.0742 27.4977 42.9802 26.7965 42.6617C26.5718 42.5596 25.0503 42.5225 21.1764 42.5249C16.4366 42.5276 15.8305 42.5489 15.5502 42.7223Z" fill="#E11931"/>
</svg>
