<svg width="56" height="50" viewBox="0 0 56 50" fill="none" xmlns="http://www.w3.org/2000/svg">
<path d="M40.5937 27.5368V22.4644H9.58679L17.2025 14.752L13.6613 11.1658L0 24.9981L13.6607 38.8323L17.2018 35.2462L9.58679 27.5362L40.5937 27.5368ZM47.7718 0H27.7364C25.555 0.00277662 23.4637 0.881574 21.9212 2.44366C20.3787 4.00575 19.5109 6.1236 19.5082 8.33272V15.5779H24.517V8.33272C24.5182 7.46823 24.8578 6.63948 25.4614 6.02819C26.065 5.41691 26.8834 5.07299 27.737 5.07184H47.7718C48.6255 5.07266 49.4441 5.41648 50.0478 6.02784C50.6514 6.63919 50.991 7.46813 50.9918 8.33272V41.6636C50.991 42.5282 50.6514 43.3571 50.0478 43.9685C49.4441 44.5798 48.6255 44.9236 47.7718 44.9244H27.7364C26.8828 44.9233 26.0644 44.5794 25.4608 43.9681C24.8572 43.3568 24.5175 42.5281 24.5164 41.6636V34.4221H19.5076V41.6673C19.5103 43.8764 20.3781 45.9943 21.9206 47.5563C23.4631 49.1184 25.5544 49.9972 27.7358 50H47.7718C49.9533 49.9976 52.0448 49.1189 53.5873 47.5567C55.1299 45.9945 55.9976 43.8765 56 41.6673V8.33642C55.9976 6.1272 55.1299 4.00916 53.5873 2.447C52.0448 0.884847 49.9533 0.006152 47.7718 0.0037014V0Z" fill="#B254FC"/>
</svg>
