<svg width="50" height="50" viewBox="0 0 50 50" fill="none" xmlns="http://www.w3.org/2000/svg">
<path fill-rule="evenodd" clip-rule="evenodd" d="M45.9551 0.0564133C44.9626 0.144031 42.79 0.513008 41.6928 0.780586C37.5986 1.77854 33.8419 3.58503 30.5647 6.13184C28.5116 7.72727 26.988 9.27869 24.7292 12.0741L23.5153 13.5763L20.0288 13.5134C17.0579 13.4598 16.3833 13.4747 15.4674 13.6135C12.5678 14.0529 10.1758 15.0661 7.69891 16.9036C6.8647 17.5224 0.331544 24.0091 0.108359 24.4401C-0.215572 25.0658 0.219854 25.7722 0.974815 25.8458C1.35904 25.8832 12.6022 26.471 12.9339 26.471C13.0328 26.471 12.9712 26.6254 12.733 26.9742C12.5439 27.2511 12.3893 27.5766 12.3893 27.6978C12.3893 27.8189 12.5451 28.2138 12.7355 28.5753C12.926 28.9368 13.0563 29.274 13.0253 29.3247C12.9943 29.3753 12.3108 30.2031 11.5064 31.1643C9.77959 33.2281 9.78858 33.2003 10.4492 34.4493C11.5807 36.5889 13.5499 38.5418 15.6647 39.6218C16.3681 39.981 16.6025 40.0575 16.8263 40.0009C16.9804 39.9619 17.881 39.2878 18.8276 38.503C19.7742 37.7181 20.6021 37.0337 20.6674 36.9819C20.748 36.9181 20.9558 36.9858 21.3145 37.1925C21.9868 37.58 22.2216 37.5751 22.8324 37.161L23.3279 36.825L23.375 37.1364C23.4009 37.3077 23.5347 39.7957 23.6724 42.6654C24.0067 49.6343 23.9844 49.3907 24.3178 49.7266C24.5305 49.9408 24.68 49.9997 25.0117 49.9999L25.4345 50L28.8616 46.5297C30.7465 44.6209 32.5523 42.7048 32.8744 42.2717C34.5701 39.9915 35.585 37.6396 36.1032 34.7897C36.2045 34.232 36.2617 32.9224 36.2991 30.3024L36.3519 26.6027L37.2936 25.8778C40.6273 23.3113 42.6222 21.3097 44.5144 18.6331C47.6818 14.1527 49.5167 9.01652 49.9318 3.46788C50.0338 2.10469 50.0283 1.93517 49.8683 1.51313C49.643 0.918706 49.1871 0.399106 48.692 0.172482C48.3107 -0.00196549 47.1674 -0.0504996 45.9551 0.0564133ZM47.98 2.94227C47.9246 4.85125 47.4805 7.37059 46.8174 9.53819C45.7234 13.1138 43.9581 16.3695 41.5328 19.2844C39.9298 21.2109 38.6963 22.2716 31.6322 27.7969C27.901 30.7153 24.2123 33.6014 23.435 34.2103L22.0219 35.3174L21.6273 35.0819C20.9172 34.658 19.5826 33.6784 19.0341 33.1784L18.4966 32.6886L21.1528 29.9981C22.871 28.2578 23.8323 27.2122 23.8751 27.0371C24.0594 26.282 23.4235 25.6414 22.674 25.8271C22.5002 25.8702 21.4624 26.8385 19.735 28.5697L17.0646 31.2456L16.6285 30.7534C16.1584 30.2229 15.1615 28.8325 14.7934 28.1938L14.5664 27.8L20.9941 19.8259C27.8333 11.3411 29.2369 9.73764 31.2487 8.11072C35.1891 4.9241 39.8822 2.87051 44.7336 2.20983C46.2986 1.9967 46.447 1.98419 47.2742 1.9963L48.0071 2.00703L47.98 2.94227ZM34.6631 10.4073C33.5295 10.8263 32.7007 11.5861 32.199 12.6663C31.9577 13.1857 31.8869 13.4869 31.853 14.1374C31.7846 15.4496 32.1456 16.4377 33.0127 17.3112C35.4407 19.7574 39.5017 18.4242 40.0656 14.9958C40.3947 12.9951 39.1105 10.9751 37.1233 10.3674C36.5107 10.1802 35.221 10.201 34.6631 10.4073ZM36.8674 12.3804C37.9973 12.9003 38.4852 14.2711 37.9325 15.3728C37.2564 16.7206 35.4735 17.0209 34.4472 15.96C33.0571 14.5226 33.9819 12.1909 35.9391 12.1985C36.2476 12.1997 36.643 12.2772 36.8674 12.3804ZM21.2717 15.5303L21.8971 15.5927L18.2572 20.1041L14.6175 24.6155L13.9187 24.5571C13.5344 24.525 10.9999 24.3857 8.28658 24.2475C5.57327 24.1093 3.33067 23.9732 3.30302 23.945C3.21527 23.8558 8.00721 19.158 8.82471 18.5319C10.8996 16.9427 13.0826 15.991 15.5651 15.5928C16.3868 15.4611 20.1623 15.4198 21.2717 15.5303ZM25.8254 22.9999C25.3042 23.1203 24.954 23.8506 25.1928 24.3194C25.7071 25.3291 27.2109 24.8726 27.0054 23.7691C26.9068 23.2393 26.3526 22.8781 25.8254 22.9999ZM34.3753 30.2858C34.3747 33.6481 34.0956 35.5447 33.3053 37.5552C32.4215 39.8038 31.4961 41.0657 28.4152 44.2233C25.9862 46.7127 25.922 46.7696 25.8553 46.4931C25.7757 46.1633 25.2465 35.5055 25.3015 35.3394C25.3408 35.2205 34.1786 28.2582 34.3023 28.2486C34.3427 28.2456 34.3754 29.1622 34.3753 30.2858ZM14.7922 31.6148C15.5383 32.5766 16.8349 33.8955 17.9884 34.8665C18.5688 35.355 19.0086 35.785 18.9656 35.822C18.9227 35.8591 18.3562 36.3358 17.7068 36.8814L16.526 37.8734L16.0721 37.6063C15.3479 37.1802 14.1395 36.1802 13.6308 35.586C12.9885 34.8358 12.1821 33.6408 12.2153 33.4887C12.247 33.3436 14.1679 31.0015 14.2559 31.0003C14.2883 30.9999 14.5296 31.2765 14.7922 31.6148ZM7.01489 38.0875C5.3537 38.9421 4.70105 39.4458 4.12804 40.3155C3.59587 41.1233 3.32774 41.9945 3.21957 43.2675C3.08276 44.8767 3.29491 45.6897 4.0185 46.3298C4.61965 46.8615 5.11361 46.9857 6.35911 46.9181C8.42885 46.8057 9.37133 46.4417 10.488 45.3235C11.0962 44.7145 11.2695 44.4481 11.9782 43.0331C12.4193 42.1524 12.7802 41.3417 12.7802 41.2316C12.7802 40.8861 12.4867 40.4407 12.1709 40.307C11.8504 40.1712 11.422 40.2379 11.1492 40.466C11.0687 40.5333 10.6755 41.2468 10.2754 42.0517C9.17981 44.2556 8.61579 44.7149 6.76747 44.908C5.15964 45.076 5.06065 44.9869 5.17205 43.4718C5.31471 41.5306 5.77672 40.9283 7.97291 39.8201C8.83184 39.3868 9.52123 38.9728 9.6423 38.8177C9.94571 38.4291 9.91425 37.9417 9.56305 37.5879C9.09939 37.1207 8.76735 37.1858 7.01489 38.0875ZM0.665345 48.1406C0.0699563 48.38 -0.160558 48.9496 0.118228 49.4926C0.310242 49.8667 0.543101 49.9997 1.00638 49.9997C1.7328 49.9997 2.18846 49.1302 1.77424 48.5345C1.64779 48.3526 1.06569 48.0074 0.935142 48.037C0.919995 48.0404 0.798533 48.0871 0.665345 48.1406Z" fill="#8626FF"/>
</svg>
