<svg width="52" height="42" viewBox="0 0 52 42" fill="none" xmlns="http://www.w3.org/2000/svg">
<path fill-rule="evenodd" clip-rule="evenodd" d="M2.2183 1C1.89561 1.00156 1.58653 1.14723 1.35835 1.40528C1.13018 1.66333 1.00138 2.01288 1 2.37782V11.0054C0.999832 11.2399 1.05256 11.4705 1.15319 11.6754C1.25382 11.8804 1.39902 12.0529 1.57506 12.1767C2.90145 13.1078 3.99586 14.4063 4.75475 15.9492C5.51365 17.4921 5.91193 19.2285 5.91193 20.9941C5.91193 22.7596 5.51365 24.496 4.75475 26.0389C3.99586 27.5819 2.90145 28.8803 1.57506 29.8115C1.39902 29.9352 1.25382 30.1078 1.15319 30.3127C1.05256 30.5177 0.999832 30.7483 1 30.9827V39.6222C1.00138 39.9871 1.13018 40.3367 1.35835 40.5947C1.58653 40.8528 1.89561 40.9984 2.2183 41H49.7817C50.1044 40.9984 50.4135 40.8528 50.6416 40.5947C50.8698 40.3367 50.9986 39.9871 51 39.6222V30.9827C50.9997 30.7484 50.9467 30.518 50.8462 30.3131C50.7456 30.1083 50.6006 29.9357 50.4249 29.8115C50.355 29.7621 50.286 29.7126 50.2178 29.6622C50.1304 29.596 50.043 29.5298 49.9556 29.4646L49.9486 29.4566C49.8612 29.3874 49.7791 29.3193 49.6952 29.2461H49.6882C49.6008 29.174 49.5221 29.0959 49.4417 29.0198H49.4347C49.3543 28.9456 49.2739 28.8666 49.1953 28.7895L49.1883 28.7816C49.1096 28.7025 49.0327 28.6215 48.9558 28.5394C48.878 28.4554 48.8029 28.3684 48.7268 28.2805L48.7198 28.2726C48.6464 28.1885 48.573 28.1045 48.5022 28.0185L48.4952 28.0106C48.4244 27.9237 48.3563 27.8337 48.2881 27.7438C48.2199 27.6538 48.1474 27.556 48.081 27.4611H48.088C48.0215 27.3622 47.9551 27.2693 47.8913 27.1705C47.8275 27.0717 47.7663 26.9728 47.7052 26.874L47.6947 26.8582C47.6361 26.7593 47.5785 26.6684 47.5199 26.5715L47.5129 26.5557C47.4587 26.4569 47.4037 26.358 47.3521 26.2592C47.3005 26.1604 47.2463 26.0477 47.1948 25.94L47.1878 25.9192C47.1389 25.8204 47.0908 25.7215 47.0445 25.6158L47.0375 25.595C46.9938 25.4962 46.9501 25.3884 46.909 25.2837L46.902 25.2679C46.8589 25.1605 46.8172 25.0527 46.777 24.9446V24.9328C46.7377 24.8231 46.7019 24.7124 46.666 24.6017V24.5938C46.6293 24.4811 46.5961 24.3684 46.562 24.2548C46.528 24.1411 46.4956 24.0245 46.4659 23.9078V23.8999C46.4362 23.7853 46.4065 23.6726 46.3785 23.556V23.5481C46.3532 23.4324 46.3287 23.3138 46.3069 23.1962V23.1883C46.2841 23.0727 46.2649 22.957 46.2457 22.8414V22.8335C46.2273 22.7148 46.2098 22.5972 46.1959 22.4776V22.4697C46.181 22.3501 46.1644 22.2305 46.153 22.11C46.1417 21.9914 46.1355 21.8727 46.1286 21.7541C46.1216 21.6345 46.1146 21.514 46.1102 21.3944V21.3865C46.1102 21.2639 46.1032 21.1413 46.1032 21.0188C46.1032 20.9288 46.1032 20.8379 46.1032 20.748V20.7401C46.1032 20.6205 46.1137 20.4999 46.1216 20.3803V20.3724C46.1277 20.2518 46.1364 20.1322 46.146 20.0126C46.1565 19.893 46.167 19.7724 46.1819 19.6528V19.6449C46.1959 19.5243 46.2107 19.4047 46.2282 19.2851C46.2457 19.1656 46.264 19.0509 46.285 18.9333C46.3068 18.8137 46.3304 18.6961 46.3567 18.5775C46.382 18.4589 46.41 18.3393 46.4388 18.2217C46.4677 18.104 46.4991 17.9894 46.5314 17.8747C46.5638 17.7601 46.5953 17.6484 46.6311 17.5357V17.5278C46.6669 17.4131 46.7019 17.2975 46.7421 17.1838V17.1918C46.7823 17.0781 46.8234 16.9644 46.8671 16.8527C46.9107 16.741 46.9544 16.6313 47.0034 16.5216V16.5137C47.0497 16.403 47.0995 16.2953 47.1502 16.1866L47.1432 16.1945C47.1939 16.0867 47.2463 15.981 47.3005 15.8752C47.3547 15.7695 47.4072 15.6637 47.4648 15.5599L47.4718 15.552C47.5269 15.4532 47.5819 15.3543 47.6396 15.2555V15.2476C47.6991 15.1488 47.7594 15.0499 47.8214 14.957C47.8835 14.8641 47.9516 14.7593 48.0181 14.6664V14.6585C48.0819 14.5656 48.1483 14.4707 48.2147 14.3798L48.2217 14.3719C48.2899 14.281 48.358 14.189 48.4288 14.1011C48.5014 14.0101 48.5722 13.9222 48.6464 13.8342C48.7207 13.7472 48.795 13.6642 48.871 13.5802C48.9462 13.4972 49.0249 13.4181 49.1035 13.338H49.1105C49.1892 13.259 49.2687 13.1799 49.35 13.1038L49.357 13.0959C49.44 13.0168 49.5256 12.9407 49.6104 12.8656C49.6952 12.7905 49.7756 12.7173 49.8604 12.6472H49.8673C49.9547 12.578 50.0378 12.5108 50.1243 12.4495H50.1313C50.2187 12.3813 50.3113 12.3121 50.4031 12.2518C50.5776 12.1273 50.7214 11.9549 50.8212 11.7506C50.921 11.5464 50.9735 11.3169 50.9738 11.0835V2.45788C50.9724 2.09277 50.8435 1.74307 50.6151 1.48499C50.3867 1.22691 50.0774 1.08136 49.7546 1.08006L2.2183 1ZM3.4366 3.75562H48.5634V10.2691C48.5311 10.2958 48.4961 10.3195 48.4638 10.3462H48.4568C48.3458 10.4371 48.2357 10.53 48.1282 10.6249C48.0207 10.7198 47.9141 10.8226 47.8101 10.9214C47.7061 11.0203 47.6055 11.1191 47.5059 11.2179C47.4045 11.3168 47.304 11.4295 47.2061 11.5372C47.1083 11.6449 47.013 11.7517 46.9204 11.8604C46.8277 11.9691 46.7298 12.0857 46.6381 12.1994C46.5463 12.3131 46.4572 12.4297 46.3698 12.5463L46.3628 12.5542C46.2754 12.6728 46.1924 12.7915 46.1093 12.914C46.0263 13.0366 45.9459 13.1552 45.8664 13.2777C45.7868 13.4003 45.7073 13.5298 45.6304 13.6573V13.6652C45.5552 13.7927 45.4801 13.9222 45.4084 14.0526C45.3368 14.1831 45.2712 14.3096 45.2048 14.4411C45.1384 14.5725 45.0693 14.7129 45.0046 14.8493L44.9977 14.8572C44.9347 14.9946 44.8744 15.1339 44.8159 15.2733C44.7573 15.4127 44.7023 15.5471 44.6481 15.6854C44.5939 15.8238 44.538 15.9701 44.4873 16.1134V16.1213C44.4375 16.2646 44.3868 16.408 44.3404 16.5532C44.2941 16.6985 44.253 16.8419 44.212 16.9852C44.1709 17.1324 44.1342 17.2817 44.0975 17.429C44.0608 17.5762 44.0258 17.7255 43.9935 17.8698C43.9603 18.021 43.9288 18.1732 43.9008 18.3264C43.8729 18.4776 43.8484 18.6308 43.8257 18.7831C43.8038 18.9343 43.7864 19.0875 43.7689 19.2397C43.7514 19.3919 43.7322 19.5411 43.7191 19.6924C43.706 19.8456 43.6946 19.9998 43.6867 20.153C43.6789 20.3062 43.6727 20.4574 43.6684 20.6096V20.6175C43.6684 20.7361 43.6684 20.8537 43.6684 20.9733C43.6684 21.1285 43.6684 21.2837 43.6754 21.4379C43.6824 21.5921 43.6841 21.7403 43.6937 21.8905C43.7033 22.0447 43.7191 22.1979 43.733 22.3511C43.7479 22.5053 43.7636 22.6585 43.7829 22.8117C43.8021 22.9649 43.8239 23.1142 43.8467 23.2644V23.2723C43.8711 23.4235 43.9 23.5748 43.9288 23.725C43.9576 23.8752 43.9856 24.0215 44.0162 24.1658V24.1737C44.0494 24.323 44.0852 24.4702 44.1228 24.6224C44.1604 24.7747 44.1989 24.919 44.2408 25.0593C44.2836 25.2066 44.3282 25.3558 44.3771 25.5001C44.4261 25.6444 44.4733 25.7838 44.524 25.9242V25.936C44.5764 26.0783 44.6315 26.2197 44.6883 26.36C44.7451 26.5004 44.7958 26.6308 44.8526 26.7643C44.8526 26.7712 44.8569 26.7781 44.8596 26.785C44.9216 26.9234 44.9863 27.0618 45.0527 27.1972C45.1191 27.3326 45.1803 27.4571 45.2459 27.5856C45.3114 27.7141 45.3839 27.8505 45.4565 27.981L45.4635 27.9968C45.5378 28.1263 45.6138 28.2548 45.6925 28.3803C45.7711 28.5058 45.841 28.6244 45.9171 28.744C45.9931 28.8636 46.0796 28.9941 46.1635 29.1156H46.1705C46.2579 29.2362 46.3392 29.3538 46.4275 29.4715C46.5157 29.5891 46.6066 29.7047 46.6992 29.8184L46.7062 29.8263C46.7936 29.937 46.8871 30.0467 46.9815 30.1534C47.0742 30.2602 47.1683 30.3653 47.2638 30.4687C47.3635 30.5765 47.4648 30.6803 47.568 30.784L47.575 30.7919C47.6772 30.8908 47.7803 30.9896 47.8861 31.0885C47.9918 31.1873 48.0915 31.2792 48.1972 31.3711H48.2033C48.3126 31.47 48.4236 31.5609 48.5354 31.6499C48.5433 31.6558 48.5529 31.6597 48.5608 31.6657V38.189H3.4366V31.472C4.9485 30.3111 6.18621 28.7495 7.04169 26.9232C7.89718 25.097 8.34444 23.0617 8.34444 20.9951C8.34444 18.9284 7.89718 16.8931 7.04169 15.0669C6.18621 13.2407 4.9485 11.679 3.4366 10.5182V3.75562Z" fill="#EF54FC" stroke="#EF54FC" stroke-width="1.5"/>
<path fill-rule="evenodd" clip-rule="evenodd" d="M18.0041 6.42383C17.0386 6.42227 16.0943 6.74455 15.2907 7.34992C14.4871 7.95529 13.8603 8.81657 13.4895 9.82482C13.1188 10.8331 13.0207 11.943 13.2077 13.0143C13.3947 14.0856 13.8584 15.0701 14.5402 15.8434C15.2219 16.6166 16.0912 17.1439 17.0379 17.3584C17.9846 17.573 18.9663 17.4653 19.8589 17.0488C20.7515 16.6324 21.5149 15.926 22.0524 15.0189C22.59 14.1118 22.8777 13.0449 22.8791 11.9529C22.8722 10.4916 22.3569 9.09215 21.4445 8.05738C20.5322 7.02261 19.2962 6.43577 18.0041 6.42383ZM18.0041 9.19132C18.4854 9.19347 18.9553 9.35669 19.3547 9.66042C19.7541 9.96414 20.065 10.3948 20.2483 10.898C20.4316 11.4013 20.479 11.9546 20.3847 12.4884C20.2903 13.0221 20.0584 13.5123 19.7181 13.8971C19.3778 14.282 18.9443 14.5443 18.4724 14.651C18.0005 14.7577 17.5112 14.7041 17.0662 14.4968C16.6212 14.2895 16.2404 13.9378 15.9719 13.4862C15.7033 13.0345 15.559 12.5031 15.5571 11.9588C15.553 11.5939 15.6134 11.2318 15.7349 10.8938C15.8564 10.5558 16.0365 10.2487 16.2645 9.99052C16.4925 9.73237 16.7639 9.52841 17.0627 9.39065C17.3614 9.25289 17.6815 9.1841 18.0041 9.18835V9.19132Z" fill="#EF54FC" stroke="#EF54FC" stroke-width="1.5"/>
<path d="M31.3461 8.94151C31.1482 8.95998 30.9573 9.03262 30.7898 9.15315C30.6224 9.27369 30.4833 9.43851 30.3847 9.63338L19.4865 30.9825C19.3442 31.299 19.3148 31.6651 19.4045 32.0053C19.4943 32.3455 19.6961 32.6337 19.9685 32.8103C20.2408 32.9869 20.5627 33.0383 20.8676 32.954C21.1725 32.8697 21.4371 32.6561 21.6067 32.3574L32.505 11.0221C32.6178 10.8031 32.6753 10.5533 32.6712 10.3C32.6672 10.0466 32.6016 9.79931 32.4818 9.58516C32.362 9.37102 32.1924 9.1982 31.9917 9.08557C31.791 8.97294 31.5667 8.92482 31.3435 8.94646L31.3461 8.94151Z" fill="#EF54FC" stroke="#EF54FC" stroke-width="1.5"/>
<path fill-rule="evenodd" clip-rule="evenodd" d="M34.0068 24.5371C33.0426 24.5371 32.1001 24.8605 31.2984 25.4663C30.4967 26.0721 29.8719 26.9331 29.5029 27.9405C29.1339 28.9479 29.0374 30.0565 29.2255 31.1259C29.4136 32.1954 29.8779 33.1777 30.5597 33.9488C31.2414 34.7198 32.1101 35.2449 33.0557 35.4576C34.0014 35.6703 34.9816 35.5612 35.8723 35.1439C36.7631 34.7266 37.5245 34.02 38.0601 33.1133C38.5958 32.2067 38.8817 31.1407 38.8817 30.0503C38.8767 28.5899 38.3614 27.1909 37.4483 26.1582C36.5352 25.1255 35.2981 24.5428 34.0068 24.5371ZM34.0068 27.2868C34.488 27.289 34.958 27.4522 35.3573 27.7559C35.7567 28.0596 36.0676 28.4903 36.2509 28.9935C36.4342 29.4968 36.4817 30.0501 36.3873 30.5839C36.293 31.1176 36.061 31.6078 35.7207 31.9926C35.3804 32.3775 34.947 32.6398 34.475 32.7465C34.0031 32.8532 33.5138 32.7995 33.0688 32.5922C32.6238 32.3849 32.2431 32.0333 31.9745 31.5817C31.7059 31.13 31.5616 30.5986 31.5597 30.0543C31.5559 29.6897 31.6167 29.3279 31.7383 28.9902C31.86 28.6525 32.0401 28.3458 32.2681 28.0879C32.4961 27.8301 32.7673 27.6264 33.0659 27.4888C33.3645 27.3513 33.6844 27.2826 34.0068 27.2868Z" fill="#EF54FC" stroke="#EF54FC" stroke-width="1.5"/>
</svg>
