<svg width="32" height="50" viewBox="0 0 32 50" fill="none" xmlns="http://www.w3.org/2000/svg">
<path fill-rule="evenodd" clip-rule="evenodd" d="M3.63924 0.139959C2.82753 0.338097 2.19617 0.683888 1.52068 1.30047C0.697554 2.05172 0.227941 2.94984 0.0810117 4.05381C0.0116507 4.5746 -0.0131707 10.1738 0.00654665 20.8502L0.0360724 36.8654L0.261671 37.4434C0.570642 38.2348 1.01543 38.8841 1.59995 39.3968C2.38744 40.0875 3.06233 40.361 4.51501 40.5779L4.89034 40.6339V44.8141V48.9943L5.11754 49.3261C5.60897 50.0439 4.89044 49.9995 16.0001 49.9995C27.1098 49.9995 26.3912 50.0439 26.8827 49.3261L27.1099 48.9943V44.8141V40.6339L27.4852 40.5779C28.9379 40.361 29.6128 40.0875 30.4003 39.3968C31.0096 38.8623 31.4693 38.1745 31.7495 37.3778L31.9641 36.7677L31.9936 20.8014C32.0131 10.1732 31.9882 4.57382 31.9191 4.05381C31.6617 2.11764 30.1531 0.504499 28.231 0.110077C27.4296 -0.0544694 4.32034 -0.0263452 3.63924 0.139959ZM27.9896 3.11575C28.4636 3.35168 28.696 3.605 28.8665 4.07178C29.0504 4.57479 29.0795 35.6857 28.8967 36.3938C28.7471 36.9734 28.2715 37.4374 27.6775 37.5834C27.0289 37.7427 4.97131 37.7427 4.32274 37.5834C3.72872 37.4374 3.2531 36.9734 3.10347 36.3938C2.92071 35.6857 2.94983 4.57479 3.1337 4.07178C3.30114 3.61359 3.53285 3.35588 3.98945 3.12024C4.32454 2.9473 4.8476 2.93919 15.9791 2.93509C27.2076 2.93099 27.6314 2.93734 27.9896 3.11575ZM7.29605 6.47073C6.47914 6.87941 6.48324 6.85559 6.51447 10.9872C6.54049 14.4261 6.5514 14.613 6.74197 14.8607C6.85206 15.0039 7.07726 15.2016 7.24241 15.3002C7.52736 15.4702 7.97305 15.4793 16.0001 15.4793C24.0272 15.4793 24.4729 15.4702 24.7578 15.3002C24.923 15.2016 25.1481 15.0039 25.2582 14.8607C25.4488 14.613 25.4597 14.4261 25.4857 10.9872C25.517 6.85559 25.5211 6.87941 24.7042 6.47073L24.265 6.25101H16.0001H7.73524L7.29605 6.47073ZM22.5058 10.8896V12.5985H16.0001H9.49439V10.8896V9.18062H16.0001H22.5058V10.8896ZM8.81789 19.0431C8.08185 19.4809 7.87426 20.4807 8.3766 21.1689C8.66326 21.5618 9.35606 21.825 9.86041 21.7326C10.3939 21.635 10.9488 21.0687 11.0427 20.5258C11.2456 19.3539 9.8543 18.4265 8.81789 19.0431ZM15.3391 18.9879C14.8481 19.1964 14.5488 19.6863 14.5488 20.2816C14.5488 21.1184 15.1611 21.7291 16.0001 21.7291C16.8391 21.7291 17.4514 21.1184 17.4514 20.2816C17.4514 19.1953 16.3865 18.543 15.3391 18.9879ZM21.6793 19.0655C20.827 19.5475 20.6924 20.6176 21.3978 21.3057C21.8661 21.7626 22.3461 21.8639 22.9592 21.6355C23.5351 21.4209 23.8322 21.0131 23.8807 20.3709C23.9691 19.1987 22.7363 18.4678 21.6793 19.0655ZM8.89706 25.273C8.38962 25.5461 8.16662 25.893 8.11788 26.4857C8.08295 26.9101 8.11748 27.0634 8.31145 27.3442C8.77065 28.0089 9.67515 28.2203 10.2961 27.808C10.8418 27.4457 11.0468 27.0991 11.0383 26.5532C11.0221 25.4857 9.82828 24.772 8.89706 25.273ZM15.3419 25.2953C13.9443 25.9703 14.4524 28.0277 16.0168 28.0277C16.7644 28.0277 17.4961 27.3092 17.4998 26.5715C17.5023 26.0591 17.0821 25.4439 16.6014 25.2563C16.0718 25.0496 15.8357 25.0569 15.3419 25.2953ZM21.9053 25.2023C20.9544 25.5911 20.6377 26.7085 21.2706 27.4424C21.777 28.0296 22.4443 28.1803 23.1044 27.8566C24.4132 27.2152 24.03 25.257 22.5718 25.1349C22.3428 25.1157 22.0429 25.1461 21.9053 25.2023ZM9.18552 31.4413C7.9182 31.816 7.69561 33.4152 8.81789 34.0827C9.52852 34.5055 10.48 34.2311 10.8763 33.4891C11.2813 32.7308 10.9736 31.8968 10.1549 31.534C9.71018 31.337 9.58026 31.3245 9.18552 31.4413ZM15.5601 31.4463C14.6155 31.732 14.2056 32.9822 14.8106 33.7325C15.7157 34.8552 17.615 34.1375 17.4679 32.7284C17.3719 31.8098 16.4365 31.1812 15.5601 31.4463ZM21.8453 31.5307C20.3736 32.1948 20.8356 34.2786 22.4542 34.2772C23.2266 34.2765 23.906 33.6212 23.9067 32.8763C23.9078 31.7947 22.8257 31.0883 21.8453 31.5307ZM17.7016 43.8476V47.0701H12.7973H7.89298V43.8476V40.625H12.7973H17.7016V43.8476ZM24.1072 43.8476V47.0701H22.4057H20.7042V43.8476V40.625H22.4057H24.1072V43.8476Z" fill="#FF12D9"/>
</svg>
