<svg width="50" height="50" viewBox="0 0 50 50" fill="none" xmlns="http://www.w3.org/2000/svg">
<path fill-rule="evenodd" clip-rule="evenodd" d="M2.72735 0.106714C1.67097 0.388394 0.644425 1.29007 0.229094 2.30118L0 2.85887V20.1705V37.4821L0.230784 38.0442C0.552848 38.8287 1.29949 39.6016 2.11852 39.9983L2.77975 40.3185L10.5377 40.343C16.6169 40.3623 18.3495 40.341 18.5443 40.2444C18.681 40.1768 18.8732 39.96 18.9714 39.7628C19.1319 39.4406 19.1355 39.3704 19.0067 39.0674C18.71 38.3687 19.2403 38.4115 10.8409 38.4097L3.28129 38.408L2.8929 38.1896C2.41324 37.9198 2.15203 37.5833 2.0341 37.0834C1.9821 36.8627 1.94272 30.7669 1.94133 22.7379L1.93894 8.77612H21.6764H41.4139V21.1975C41.4139 28.0292 41.3795 33.6188 41.3376 33.6188C41.2956 33.6188 40.5238 33.1961 39.6224 32.6795C37.4934 31.4592 37.3075 31.3692 36.9185 31.3696C36.4709 31.3701 35.9766 31.6887 35.7735 32.1076C35.6112 32.4424 35.6174 32.5599 35.931 35.1158C36.1106 36.5787 36.2816 37.9185 36.3111 38.0934L36.3649 38.4113H31.4335H26.5021L26.1796 38.6947C25.9127 38.9292 25.8571 39.049 25.8571 39.3893C25.8571 39.7297 25.9127 39.8494 26.1796 40.0839L26.5021 40.3674H31.5529H36.6038L36.8834 42.7392C37.1903 45.3434 37.3271 45.831 37.8206 46.0821C38.2241 46.2874 38.8107 46.2757 39.1766 46.0553C39.3407 45.9564 39.7428 45.5385 40.0702 45.1265C40.3976 44.7145 40.6885 44.38 40.7165 44.383C40.7446 44.3861 41.524 45.5288 42.4486 46.9223C43.3732 48.3159 44.2598 49.5787 44.4189 49.7287C44.6599 49.9558 44.7942 50.0011 45.2237 50C45.7139 49.9987 45.8267 49.9421 47.529 48.8416C48.5134 48.2052 49.4421 47.5701 49.5928 47.4302C49.9357 47.1122 50.0786 46.6345 49.9575 46.2113C49.9075 46.0365 49.0863 44.7278 48.1327 43.3032C47.1791 41.8786 46.4129 40.699 46.4302 40.6819C46.4476 40.6649 46.9162 40.5264 47.4716 40.3741C48.5202 40.0866 48.7886 39.9281 49.0416 39.447C49.2138 39.1194 49.1668 38.522 48.9423 38.1849C48.8621 38.0645 47.5836 37.2653 46.1012 36.4089L43.406 34.8518L43.3793 18.8554L43.3528 2.85887L43.1206 2.29306C42.7953 1.50015 41.9867 0.666554 41.1933 0.306238L40.5687 0.0225031L21.8753 0.00401776C7.27193 -0.0104575 3.08242 0.0120378 2.72735 0.106714ZM40.6511 2.25267C41.3178 2.75285 41.3641 2.9288 41.3641 4.96169V6.7711H21.6764H1.98866L1.98946 4.96169C1.99025 3.05614 2.03907 2.81183 2.50074 2.40085C3.06433 1.8991 1.81157 1.92815 21.7836 1.95436L40.2859 1.97862L40.6511 2.25267ZM4.21825 3.78049C3.84159 4.15098 3.82509 4.63131 4.17509 5.04043C4.64829 5.59352 5.49457 5.47175 5.77557 4.8101C6.1902 3.83409 4.97831 3.03287 4.21825 3.78049ZM7.87858 3.74274C7.524 4.09161 7.46414 4.41966 7.67712 4.84609C8.15798 5.8084 9.49585 5.45288 9.49585 4.36273C9.49585 3.61687 8.42426 3.20608 7.87858 3.74274ZM11.5337 3.73071C11.0628 4.19392 11.0948 4.8145 11.6092 5.19115C12.0308 5.49992 12.5555 5.44486 12.9099 5.05471C13.1572 4.78242 13.1896 4.68236 13.1425 4.33672C13.0702 3.80641 12.7103 3.49461 12.1705 3.49461C11.8836 3.49461 11.7072 3.56004 11.5337 3.73071ZM8.33815 12.8832C7.81066 13.0925 7.80549 13.1326 7.80549 17.02C7.80549 19.3044 7.84298 20.6924 7.90791 20.8116C8.15808 21.2715 8.3653 21.2954 12.101 21.2938C15.9581 21.2922 15.9842 21.2886 16.2839 20.7071C16.4439 20.3968 16.4574 20.0508 16.4331 16.8614L16.4064 13.3568L16.0817 13.0715L15.757 12.7862L12.1541 12.7923C10.1725 12.7957 8.45539 12.8366 8.33815 12.8832ZM21.1071 12.9386C20.5722 13.2242 20.4578 13.945 20.8723 14.4189L21.1122 14.6934L28.0277 14.7198L34.9431 14.7462L35.2678 14.4608C35.537 14.2243 35.5925 14.1051 35.5925 13.7642C35.5925 13.4239 35.5369 13.3041 35.27 13.0696L34.9475 12.7862L28.1628 12.7901C22.369 12.7934 21.3385 12.8151 21.1071 12.9386ZM14.4675 17.0407V19.3391H12.1308H9.79415V17.0407V14.7423H12.1308H14.4675V17.0407ZM21.1792 19.0615C20.5655 19.3934 20.4418 20.1449 20.923 20.6181L21.2136 20.904H28.0745H34.9355L35.2341 20.6569C35.6124 20.3437 35.71 19.9387 35.5022 19.5436C35.1783 18.9276 35.4304 18.9476 28.0699 18.9509C23.3958 18.953 21.3181 18.9863 21.1792 19.0615ZM8.40209 25.2181C7.77119 25.4615 7.59529 26.3013 8.07267 26.7915L8.33984 27.0658H21.6488C36.3987 27.0658 35.3174 27.1152 35.5472 26.4305C35.6335 26.1732 35.6248 26.0298 35.506 25.7503C35.2165 25.0687 36.0969 25.109 21.6547 25.1158C13.4045 25.1199 8.55979 25.1571 8.40209 25.2181ZM8.07267 31.6436C7.52937 32.2014 7.83353 33.1108 8.61478 33.2645C8.78491 33.298 13.7174 33.3229 19.5759 33.3199C27.5552 33.3157 30.3149 33.2851 30.5757 33.1976C31.0586 33.0356 31.3349 32.4899 31.1751 32.0136C30.9432 31.3221 31.7998 31.3693 19.4612 31.3693H8.33984L8.07267 31.6436ZM43.1768 36.9931C44.7669 37.9076 46.0503 38.6838 46.0289 38.7181C46.0075 38.7523 45.8217 38.8108 45.616 38.8481C44.6102 39.0302 44.0003 39.5591 43.9995 40.25C43.999 40.6551 44.1418 40.9259 45.0932 42.3235C45.5143 42.9421 46.2901 44.0989 46.8173 44.8941L47.7759 46.34L46.62 47.0782C45.6773 47.6801 45.4421 47.7924 45.3449 47.6863C45.2794 47.6147 44.4301 46.3594 43.4575 44.8967C41.5941 42.0943 41.4452 41.9323 40.7323 41.9323C40.2481 41.9323 39.9612 42.116 39.4542 42.7507C39.1761 43.0989 38.9689 43.2855 38.9539 43.2011C38.8884 42.8308 37.8343 34.2682 37.8343 34.1056C37.8343 33.9523 38.0445 34.0415 39.06 34.6255C39.7341 35.0132 41.5867 36.0786 43.1768 36.9931ZM22.0741 38.5248C21.7409 38.705 21.5318 39.0301 21.5294 39.3713C21.5266 39.7971 21.6671 40.039 22.0224 40.2197C22.4549 40.4396 22.7794 40.4002 23.1392 40.0839C23.406 39.8494 23.4617 39.7297 23.4617 39.3893C23.4617 38.6801 22.6834 38.1952 22.0741 38.5248Z" fill="#1406B3"/>
</svg>
