<svg width="50" height="50" viewBox="0 0 50 50" fill="none" xmlns="http://www.w3.org/2000/svg">
<path fill-rule="evenodd" clip-rule="evenodd" d="M23.5014 0.219479C21.9513 0.868773 21.1212 1.96452 20.8461 3.7249C20.7928 4.06636 20.7433 4.11319 20.152 4.38133C19.2442 4.79318 18.4233 5.31021 17.5548 6.01747L16.8 6.63196H10.3594C6.44171 6.63196 3.71536 6.67058 3.39952 6.7305C1.76434 7.04068 0.422424 8.35774 0.0854784 9.98313C0.0116983 10.3388 -0.012439 14.7264 0.00583498 24.4724L0.0320245 38.4515L0.262355 39.0227C0.701616 40.1121 1.67053 41.0463 2.78788 41.4575C3.28314 41.6398 3.61569 41.671 5.42628 41.7058L7.49799 41.7455L7.5273 44.9375C7.5533 47.7707 7.57607 48.1649 7.72949 48.4457C8.02207 48.9813 8.49338 49.4496 9.01366 49.7216C9.67787 50.069 10.7706 50.0951 11.373 49.7783C11.5909 49.6637 14.2353 47.8061 17.2497 45.6504L22.7302 41.7308L34.6879 41.7041L46.6454 41.6774L47.2121 41.4632C48.3386 41.0373 49.2999 40.1083 49.7376 39.0227L49.968 38.4515L49.9942 24.4724C50.0124 14.7264 49.9883 10.3388 49.9145 9.98313C49.5776 8.35774 48.2357 7.04068 46.6005 6.7305C46.3149 6.67625 45.216 6.63196 44.1585 6.63196H42.2356L41.9486 6.32872C41.1689 5.50494 39.755 4.72084 38.4456 4.38583C36.502 3.88855 34.0494 4.33607 32.4314 5.48304L32.0938 5.72235L31.4541 5.29056C31.1023 5.05301 30.4531 4.68281 30.0114 4.46765C29.2562 4.09989 29.205 4.05522 29.1524 3.71689C28.9028 2.11281 28.0991 0.969461 26.7825 0.345584C26.191 0.0653179 26.0191 0.0307123 25.0977 0.00705545C24.1946 -0.0162104 24.0033 0.00920609 23.5014 0.219479ZM25.8018 1.79833C26.8273 2.14791 27.4679 3.0675 27.4664 4.18807C27.4652 5.12389 27.5846 5.28636 28.5401 5.64981C29.2108 5.90505 30.0825 6.36294 30.7504 6.81115C30.8539 6.88065 30.81 6.99992 30.5419 7.37657C29.682 8.58483 29.2983 9.75301 29.2281 11.3761C29.1852 12.3681 29.21 12.6813 29.3857 13.3766C30.0354 15.9469 31.7656 17.8669 34.21 18.7306L34.9672 18.9981L34.9674 22.0072C34.9675 24.3694 34.9971 25.084 35.1044 25.3309C35.1795 25.5039 36.125 26.5249 37.2054 27.5997L39.1697 29.5538V30.2147V30.8754H25H10.8303V30.2147V29.5538L12.7946 27.5997C13.875 26.5249 14.8205 25.5039 14.8956 25.3309C15.0074 25.0736 15.0325 23.9963 15.0336 19.4167C15.0348 14.3163 15.0513 13.7374 15.219 12.9248C15.9063 9.59347 18.2328 6.88173 21.4599 5.65069C22.4153 5.28616 22.5348 5.12359 22.5336 4.18807C22.5312 2.42944 24.1599 1.23868 25.8018 1.79833ZM38.0498 5.99743C40.6515 6.65621 42.4922 9.00508 42.4922 11.6664C42.4922 14.1954 40.8612 16.415 38.3879 17.2515C37.6287 17.5083 35.7243 17.5078 34.9676 17.2506C34.0007 16.9219 33.2736 16.4735 32.5642 15.7681C31.4502 14.6605 30.8633 13.2451 30.8633 11.6664C30.8633 9.00313 32.6624 6.68661 35.2608 6.00398C35.9721 5.81707 37.3252 5.81394 38.0498 5.99743ZM15.3255 8.35012C15.3255 8.38101 15.1476 8.71103 14.9301 9.08348C14.3923 10.0047 13.9858 10.987 13.6809 12.1013L13.4255 13.035L13.3738 18.8309L13.3222 24.6268L11.3969 26.5549C10.1804 27.7732 9.41588 28.6163 9.32031 28.8451C9.14226 29.2714 9.1104 31.0005 9.27272 31.4311C9.42702 31.8404 9.94446 32.3307 10.3374 32.4399C10.5424 32.4969 12.5979 32.5364 15.3756 32.5367L20.0675 32.5372L20.2493 33.1726C20.6796 34.6754 21.972 35.9728 23.513 36.4489C24.3612 36.711 25.6388 36.711 26.487 36.4489C28.0179 35.9759 29.324 34.6629 29.7525 33.1659L29.9325 32.5372L34.6244 32.5367C37.4021 32.5364 39.4576 32.4969 39.6626 32.4399C40.0555 32.3307 40.573 31.8404 40.7273 31.4311C40.889 31.002 40.8577 29.2715 40.6807 28.8474C40.5864 28.6217 39.8028 27.7575 38.5785 26.5289L36.6267 24.5701L36.6522 21.8819L36.6778 19.1936L37.4107 19.1214C40.1889 18.8477 42.5823 17.0502 43.6329 14.4482C44.2709 12.8684 44.3258 10.9028 43.7766 9.30861C43.6076 8.81837 43.4695 8.38472 43.4695 8.34504C43.4695 8.30535 44.1401 8.28931 44.9597 8.30926C46.6749 8.3511 47.1147 8.49226 47.7148 9.19365C48.3981 9.99212 48.3556 8.99746 48.3556 24.1791C48.3556 39.3545 48.3976 38.3666 47.7177 39.1612C47.534 39.3759 47.1736 39.656 46.9168 39.7836L46.45 40.0156L34.2795 40.0644L22.1091 40.1133L20.5984 41.1952C19.7676 41.7902 17.2031 43.6271 14.8996 45.2773C12.5959 46.9274 10.6061 48.304 10.4776 48.3362C10.1194 48.4262 9.754 48.2951 9.44735 47.9667L9.16903 47.6687V44.2039C9.16903 40.4671 9.13835 40.2233 8.65423 40.1172C8.53423 40.0909 7.33675 40.056 5.99307 40.0397C3.65966 40.0114 3.5291 39.9997 3.0832 39.7807C2.82639 39.6547 2.46599 39.3759 2.28227 39.1612C1.60232 38.3666 1.64434 39.3539 1.64502 24.1862C1.64532 15.3147 1.68011 10.3688 1.74372 10.1396C1.95949 9.36267 2.68752 8.64417 3.47311 8.43282C3.82784 8.33741 5.31654 8.30544 9.63321 8.30036C12.764 8.29674 15.3255 8.31913 15.3255 8.35012ZM36.3846 8.3857C36.2771 8.43174 35.7384 8.92942 35.1875 9.49161C34.34 10.3566 34.1859 10.5618 34.1859 10.8257C34.1859 11.5097 35.0248 11.8594 35.5931 11.4122L35.854 11.2069L35.8261 12.2676L35.7983 13.3282L35.1785 13.3775C34.6805 13.4172 34.5221 13.4721 34.3723 13.6572C34.1186 13.9706 34.1381 14.386 34.4217 14.7158L34.6576 14.9901H36.6778H38.698L38.9339 14.7158C39.242 14.3574 39.2404 13.9278 38.9298 13.6171C38.7281 13.4152 38.5962 13.3771 38.0991 13.3771H37.5084V11.1342C37.5084 8.94633 37.503 8.88523 37.2885 8.64505C37.0399 8.36674 36.6741 8.26175 36.3846 8.3857ZM28.0752 32.9038C27.6951 33.8195 26.9643 34.5261 26.082 34.8314C25.4749 35.0414 24.4299 35.0237 23.8229 34.793C22.948 34.4604 22.2266 33.7221 21.8813 32.8061L21.7801 32.5372H25.0037H28.2275L28.0752 32.9038Z" fill="#A91212"/>
</svg>
