<svg width="50" height="50" viewBox="0 0 50 50" fill="none" xmlns="http://www.w3.org/2000/svg">
<path fill-rule="evenodd" clip-rule="evenodd" d="M0.75791 0.201367C0.534766 0.319238 0.316406 0.543848 0.196387 0.779102C0.0113281 1.1418 0 1.35088 0 4.39453C0 7.43945 0.0113281 7.64707 0.196582 8.01035C0.323145 8.2585 0.530566 8.46592 0.778711 8.59248C1.14199 8.77773 1.34961 8.78906 4.39453 8.78906C7.43945 8.78906 7.64707 8.77773 8.01035 8.59248C8.59336 8.29502 8.78906 7.82998 8.78906 6.74219V5.85938L11.792 5.86445C14.6471 5.86934 14.783 5.87773 14.5536 6.03535C10.4975 8.82187 7.72412 12.771 6.54522 17.4391C6.39053 18.0515 6.21328 18.9814 6.15127 19.5058C6.08926 20.0301 6.02158 20.5469 6.00088 20.6543C5.97686 20.7789 5.73203 20.9686 5.32441 21.1781C3.76113 21.9821 2.81289 23.8802 3.10225 25.6263C3.42246 27.5587 4.85693 28.9983 6.77949 29.317C8.5917 29.6173 10.5579 28.5809 11.3378 26.9143C11.9456 25.6155 11.9383 24.2557 11.3171 23.025C10.9468 22.2913 10.0786 21.4068 9.43486 21.107L8.95762 20.8849L9.02158 20.1959C9.42275 15.8797 12.1213 11.3874 15.918 8.71523C16.8886 8.03203 18.7782 7.08574 19.9478 6.69707C20.526 6.50488 21.0129 6.34766 21.03 6.34766C21.047 6.34766 21.2021 6.56572 21.3749 6.83223C22.128 7.99463 23.5973 8.78672 25 8.78672C26.4027 8.78672 27.872 7.99463 28.6251 6.83223C28.7979 6.56572 28.953 6.34766 28.97 6.34766C28.9871 6.34766 29.474 6.50488 30.0522 6.69707C31.2218 7.08574 33.1114 8.03203 34.082 8.71523C37.8787 11.3874 40.5772 15.8797 40.9784 20.1959L41.0424 20.8849L40.5651 21.107C39.9214 21.4068 39.0532 22.2913 38.6829 23.025C37.3453 25.6747 38.9747 28.8263 41.9357 29.317C44.784 29.789 47.3823 27.1571 46.8919 24.297C46.6635 22.9649 45.8073 21.7602 44.6756 21.1781C44.268 20.9686 44.0231 20.7789 43.9991 20.6543C43.9784 20.5469 43.9107 20.0301 43.8487 19.5058C43.5631 17.09 42.5642 14.2758 41.1976 12.0368C39.8567 9.84014 37.7405 7.62227 35.6458 6.21846L35.1101 5.85938H38.1604H41.2109V6.74219C41.2109 7.82998 41.4066 8.29502 41.9896 8.59248C42.3529 8.77773 42.5605 8.78906 45.6055 8.78906C48.6504 8.78906 48.858 8.77773 49.2213 8.59248C49.4694 8.46592 49.6769 8.2585 49.8034 8.01035C49.9887 7.64707 50 7.43945 50 4.39453C50 1.34961 49.9887 1.14199 49.8034 0.778711C49.6769 0.530566 49.4694 0.323145 49.2213 0.196582C48.858 0.0113281 48.6504 0 45.6055 0C42.5605 0 42.3529 0.0113281 41.9896 0.196582C41.4066 0.494043 41.2109 0.959082 41.2109 2.04688V2.92969L35.1807 2.9293L29.1504 2.929L28.8219 2.29355C28.0052 0.714258 26.0902 -0.22666 24.3131 0.0780273C22.968 0.308691 21.7648 1.15898 21.1781 2.29355L20.8496 2.929L14.8193 2.9293L8.78906 2.92969V2.04688C8.78906 0.959082 8.59336 0.494043 8.01035 0.196582C7.64639 0.0109375 7.44424 0.000195313 4.37402 0.00429688C1.33037 0.00839844 1.09971 0.0208984 0.75791 0.201367ZM5.85938 4.39453V5.85938H4.39453H2.92969V4.39453V2.92969H4.39453H5.85938V4.39453ZM25.6861 3.12627C26.1194 3.34736 26.4648 3.90996 26.4648 4.39453C26.4648 5.1376 25.7431 5.85938 25 5.85938C24.2569 5.85938 23.5352 5.1376 23.5352 4.39453C23.5352 3.9249 23.8808 3.34873 24.2931 3.13105C24.7643 2.88232 25.205 2.88086 25.6861 3.12627ZM47.0703 4.39453V5.85938H45.6055H44.1406V4.39453V2.92969H45.6055H47.0703V4.39453ZM24.326 11.9936C24.0507 12.1301 22.9798 13.6787 18.0654 21.0475C14.8048 25.9365 12.0649 30.0762 11.9768 30.2467C11.6526 30.8734 11.8272 31.4325 12.6153 32.2914C14.4972 34.3425 15.8652 36.6364 16.6973 39.1357C17.0615 40.2297 17.4805 42.0209 17.4805 42.4839C17.4805 42.6165 17.237 42.9589 16.8546 43.3644C15.7896 44.4932 15.0874 45.8943 14.8501 47.3633C14.6263 48.7492 14.818 49.4428 15.5248 49.8034C15.9028 49.9963 16.0826 50 25 50C33.9174 50 34.0972 49.9963 34.4752 49.8034C35.182 49.4428 35.3737 48.7492 35.1499 47.3633C34.9126 45.8943 34.2104 44.4932 33.1454 43.3644C32.763 42.9589 32.5195 42.6165 32.5195 42.4839C32.5195 42.0209 32.9385 40.2297 33.3027 39.1357C34.1348 36.6364 35.5028 34.3425 37.3847 32.2914C38.1714 31.434 38.3473 30.8732 38.025 30.25C37.9378 30.0813 35.1981 25.9417 31.9369 21.0508C26.7339 13.2477 25.9633 12.1373 25.6469 11.9873C25.2013 11.7761 24.7605 11.7782 24.326 11.9936ZM23.5348 22.4365L23.5345 26.709L22.899 27.0375C21.3379 27.8448 20.3915 29.7422 20.6804 31.4856C21.0006 33.4181 22.4351 34.8577 24.3576 35.1764C27.2059 35.6483 29.8042 33.0165 29.3138 30.1563C29.0858 28.8275 28.2302 27.6214 27.101 27.0375L26.4655 26.709L26.4652 22.4121L26.4649 18.1152L30.6581 24.4051L34.8512 30.695L34.2794 31.3875C32.2642 33.8281 30.6499 37.1259 29.9474 40.2374L29.7165 41.2598L29.2381 41.2109C28.975 41.1841 27.0679 41.1621 25 41.1621C22.9321 41.1621 21.025 41.1841 20.7619 41.2109L20.2835 41.2598L20.0526 40.2374C19.3501 37.126 17.7358 33.8281 15.7207 31.3876L15.1489 30.6952L19.3177 24.4324C21.6104 20.9878 23.4974 18.1683 23.5107 18.1668C23.5241 18.1653 23.535 20.0867 23.5348 22.4365ZM8.10801 23.7317C8.54131 23.9528 8.88672 24.5154 8.88672 25C8.88672 25.4846 8.54131 26.0472 8.10801 26.2683C7.89609 26.3764 7.5873 26.4648 7.42188 26.4648C6.67881 26.4648 5.95703 25.7431 5.95703 25C5.95703 24.5304 6.30264 23.9542 6.71494 23.7365C7.18613 23.4878 7.62686 23.4863 8.10801 23.7317ZM43.2643 23.7317C43.6976 23.9528 44.043 24.5154 44.043 25C44.043 25.1654 43.9545 25.4742 43.8464 25.6861C43.6253 26.1194 43.0627 26.4648 42.5781 26.4648C42.0936 26.4648 41.531 26.1194 41.3099 25.6861C41.0609 25.1981 41.0608 24.802 41.3097 24.3143C41.6706 23.6068 42.5221 23.3531 43.2643 23.7317ZM25.6861 29.5911C26.1194 29.8122 26.4648 30.3748 26.4648 30.8594C26.4648 31.3439 26.1194 31.9065 25.6861 32.1276C25.4742 32.2357 25.1654 32.3242 25 32.3242C24.5154 32.3242 23.9528 31.9788 23.7317 31.5455C23.4828 31.0575 23.4827 30.6613 23.7315 30.1736C24.0925 29.4662 24.9439 29.2125 25.6861 29.5911ZM28.9536 44.1932C29.7648 44.4045 30.4635 44.8334 31.0787 45.4979C31.5112 45.965 32.0312 46.7963 32.0312 47.0204C32.0312 47.0479 28.8672 47.0703 25 47.0703C21.1328 47.0703 17.9688 47.0479 17.9688 47.0204C17.9688 46.7963 18.4888 45.965 18.9213 45.4979C19.5221 44.849 20.2328 44.4055 21.0042 44.198C21.7982 43.9846 28.1377 43.9807 28.9536 44.1932Z" fill="#BC36A7"/>
</svg>
