<svg width="50" height="49" viewBox="0 0 50 49" fill="none" xmlns="http://www.w3.org/2000/svg">
<path fill-rule="evenodd" clip-rule="evenodd" d="M25.6907 0.0163204C17.3619 0.553113 10.9309 7.36521 10.9425 15.6384C10.9436 16.3998 10.9882 17.3265 11.0418 17.6978C11.0954 18.069 11.1185 18.3935 11.0931 18.4189C11.0678 18.4444 10.8504 18.3497 10.6101 18.2086C9.87822 17.7791 9.30697 17.9228 9.02095 18.6084C8.89445 18.9115 8.89797 18.9817 9.05563 19.3043C9.20265 19.6049 9.48153 19.8112 10.7775 20.5783C12.3513 21.5099 12.7095 21.6322 13.1577 21.3921C13.262 21.3361 13.8174 20.5944 14.3919 19.7436C15.5458 18.0348 15.6222 17.7999 15.1908 17.2864C14.6942 16.6954 13.996 16.8462 13.4466 17.6632L13.1032 18.1738L13.0231 17.7939C12.9791 17.585 12.9433 16.5997 12.9437 15.6043C12.9442 14.2088 12.9857 13.6052 13.125 12.968C13.6857 10.4028 14.8688 8.11185 16.5531 6.32987C18.4564 4.31614 20.7503 2.97861 23.3893 2.34369C28.143 1.20016 33.0913 2.66908 36.4903 6.23273C38.2595 8.08768 39.4382 10.3446 40.0204 12.9927C40.1582 13.6192 40.1964 14.2219 40.1951 15.751C40.1936 17.5609 40.1733 17.7879 39.9237 18.7784C39.3068 21.2273 38.3688 23.0064 36.6557 24.977C36.0691 25.6519 35.9474 25.85 35.9474 26.1309C35.9474 26.5836 36.1823 26.9181 36.5962 27.0549C37.048 27.2042 37.3541 27.0721 37.9217 26.4824C40.6331 23.6655 42.1992 19.7356 42.1992 15.7484C42.1992 14.1437 42.0924 13.2216 41.7472 11.8462C40.2313 5.80482 35.2358 1.20681 29.1096 0.213839C28.1045 0.0509522 26.5484 -0.0389535 25.6907 0.0163204ZM23.2486 5.66757C21.8847 6.14664 20.5606 6.95041 19.61 7.87617C18.8858 8.58153 18.8524 8.90896 19.4357 9.58389C20.1645 10.4273 20.1785 11.2896 19.4741 11.9549C19.0637 12.3426 18.5989 12.4399 17.9281 12.2788C16.9816 12.0514 16.6022 12.4302 16.3686 13.8361C16.0483 15.7643 16.2884 18.132 16.8627 18.7071C17.097 18.9417 17.1361 18.948 17.968 18.882C18.5754 18.8339 18.8986 18.8489 19.0613 18.9329C19.4795 19.1488 19.8312 19.551 19.9331 19.93C20.0863 20.4998 19.9545 20.9477 19.4748 21.4887C18.7903 22.2607 18.8991 22.7494 19.942 23.5857C21.5787 24.8982 23.3691 25.7474 24.3831 25.692C24.6937 25.6751 25.0691 25.2403 25.1907 24.7572C25.3229 24.231 25.764 23.7686 26.282 23.6132C27.081 23.3734 27.9929 23.9448 28.214 24.8239C28.4886 25.9165 29.3973 25.9534 31.3607 24.9516C32.5254 24.3574 33.8162 23.4018 34.1562 22.882C34.4211 22.4773 34.3493 21.9875 33.9662 21.5861C33.5052 21.1026 33.4076 20.8834 33.4081 20.331C33.4085 19.7709 33.6571 19.3103 34.115 19.0211C34.3982 18.8421 34.5318 18.8267 35.3256 18.8803C36.1635 18.9369 36.234 18.9268 36.482 18.7131C36.8746 18.3748 37.0366 17.6388 37.0934 15.9354C37.1319 14.7807 37.1066 14.2782 36.9778 13.6416C36.7781 12.6543 36.7114 12.5203 36.3204 12.3178C36.0559 12.1808 35.939 12.176 35.4401 12.282C34.7135 12.4365 34.2616 12.3164 33.809 11.8488C33.567 11.5987 33.4705 11.3983 33.4334 11.0693C33.3653 10.4644 33.4526 10.1848 33.8457 9.74913C34.5832 8.93147 34.5139 8.47284 33.5259 7.63649C32.2952 6.5946 30.4732 5.6298 29.44 5.47269C28.913 5.39266 28.4922 5.6076 28.3359 6.03678C27.9197 7.17884 27.4841 7.58219 26.6666 7.58219C25.9237 7.58219 25.4401 7.17483 25.152 6.3061C24.965 5.74211 24.6153 5.427 24.1878 5.43718C24.0205 5.44119 23.5978 5.54489 23.2486 5.66757ZM23.6846 7.86434C23.779 8.16223 24.7725 9.0427 25.2755 9.27416C25.6485 9.44595 25.9218 9.48802 26.669 9.4888C27.5224 9.48978 27.6517 9.46366 28.2481 9.16988C28.8633 8.8668 29.1724 8.59532 29.6669 7.92372L29.8823 7.63111L30.6209 8.01666C31.0271 8.22865 31.4913 8.51481 31.6525 8.65255L31.9456 8.9029L31.6888 9.53224C31.4632 10.0847 31.4368 10.2639 31.4724 10.9997C31.5073 11.7205 31.5591 11.9245 31.8429 12.4567C32.404 13.5087 33.3886 14.1743 34.5667 14.2976L35.1716 14.3609L35.1444 15.594L35.1171 16.8271L34.531 16.8842C34.2087 16.9156 33.7376 17.0334 33.4842 17.1462C32.8452 17.4306 32.0937 18.1657 31.7727 18.8204C31.5327 19.31 31.5029 19.4786 31.503 20.349C31.5032 21.1692 31.5386 21.3974 31.7227 21.7615C31.8436 22.0003 31.9424 22.2282 31.9424 22.2681C31.9424 22.3633 30.6281 23.182 30.1624 23.3767C29.8 23.5283 29.7981 23.5278 29.657 23.2546C29.4413 22.8367 28.6659 22.1682 28.101 21.9128C26.6311 21.2485 24.8111 21.7334 23.8745 23.0389L23.5269 23.5235L22.8749 23.1928C22.5164 23.0111 22.038 22.7271 21.8121 22.5619L21.4011 22.2617L21.6375 21.7446C21.7675 21.4604 21.9024 20.9844 21.9372 20.687C22.0632 19.614 21.4878 18.2487 20.6351 17.5973C20.127 17.2092 19.2633 16.881 18.743 16.8784C18.3158 16.8761 18.2879 16.8594 18.2301 16.5703C18.1542 16.1904 18.1524 14.8451 18.2273 14.5654C18.2726 14.3963 18.3804 14.3481 18.8123 14.3034C19.9795 14.1828 21.0671 13.4015 21.6124 12.2921C21.8929 11.7216 21.9293 11.5547 21.9249 10.8616C21.9211 10.2479 21.8648 9.94303 21.6667 9.46298L21.4133 8.84909L21.8203 8.56871C22.3126 8.22954 23.3508 7.68492 23.5107 7.68208C23.5742 7.681 23.6524 7.76298 23.6846 7.86434ZM26.0124 11.3985C24.8705 11.5656 23.6328 12.418 23.026 13.4552C22.0579 15.11 22.3931 17.326 23.8126 18.6558C25.7218 20.4442 28.7341 20.1036 30.1795 17.9358C31.8903 15.37 30.3822 11.8969 27.3429 11.403C26.9983 11.347 26.6724 11.3064 26.6187 11.3126C26.565 11.319 26.2921 11.3576 26.0124 11.3985ZM27.3091 13.4002C28.3096 13.6992 28.9338 14.5409 28.9338 15.5911C28.9338 16.283 28.6975 16.7937 28.1468 17.292C27.055 18.2798 25.286 17.9013 24.6555 16.5451C24.0268 15.1929 24.758 13.7063 26.228 13.3478C26.674 13.239 26.7882 13.2446 27.3091 13.4002ZM0.624001 25.1896C0.510591 25.2355 0.323722 25.3928 0.208847 25.5391L0 25.805V34.6408C0 40.9429 0.0312587 43.5454 0.10921 43.7166C0.169187 43.8485 0.356056 44.0293 0.524364 44.1183C0.797291 44.2626 1.25943 44.2767 4.80875 44.2497L8.7872 44.2195L9.05475 43.9515C9.2846 43.7213 9.32768 43.5868 9.36099 42.9977L9.39967 42.3118H11.4963H13.593L13.8785 42.0259C14.2683 41.6355 14.2685 41.1603 13.8792 40.7237L13.5944 40.4041L11.486 40.3727L9.3776 40.3413V34.8698V29.3983H13.9463H18.5152L23.4949 31.4617C26.2338 32.5966 28.6165 33.6326 28.79 33.764C29.2883 34.1416 29.6134 34.7877 29.6718 35.5166C29.7175 36.0862 29.6913 36.2121 29.407 36.7904C28.9047 37.8123 28.1339 38.262 27.0242 38.1804C26.5508 38.1456 25.6894 37.8527 22.9643 36.8C21.0619 36.0651 19.4442 35.4637 19.3696 35.4637C19.1347 35.4637 18.6679 35.7508 18.553 35.9657C18.3608 36.3252 18.419 36.8345 18.682 37.0981C18.845 37.2613 20.5373 37.9597 23.9742 39.282C26.7532 40.3513 29.2544 41.2923 29.5323 41.3731C31.075 41.8217 33.169 41.9458 34.6892 41.679C35.1395 41.5999 37.7233 41.0276 40.4311 40.4072C43.139 39.7867 45.5567 39.2795 45.8037 39.2801C46.4004 39.2813 47.1821 39.6545 47.5214 40.0999C48.3975 41.2504 48.1712 42.6303 46.964 43.4994C46.7146 43.679 35.4427 46.624 33.8961 46.9136C33.0212 47.0775 31.1607 47.0568 30.3307 46.8739C29.4072 46.6704 28.8304 46.463 24.885 44.9152C23.0182 44.1828 21.4225 43.5836 21.3392 43.5836C21.0989 43.5836 20.6264 43.8614 20.5164 44.0674C20.3421 44.3935 20.3983 44.9226 20.6356 45.1893C20.9085 45.496 28.1764 48.373 29.4338 48.672C30.6696 48.966 32.0059 49.066 33.2436 48.9572C34.0812 48.8837 35.3943 48.589 39.3538 47.5863C48.1187 45.3666 47.8947 45.4394 48.7883 44.521C50.8547 42.3976 50.1879 38.9298 47.4741 37.6855C46.9776 37.458 46.6579 37.3845 46.0088 37.3492C45.2194 37.3062 44.9262 37.3618 40.0501 38.4799C37.2295 39.1268 34.661 39.7032 34.3421 39.761C33.1806 39.9715 30.956 39.8245 30.0427 39.4767C29.8239 39.3934 29.8322 39.3759 30.3371 38.8538C32.0239 37.1097 32.0774 34.4496 30.4615 32.6774C30.2111 32.4028 29.7772 32.0533 29.4973 31.9007C29.2174 31.7481 26.72 30.6824 23.9476 29.5325L18.9069 27.4417H14.1423H9.3776L9.3772 26.6835C9.37681 25.828 9.17432 25.3559 8.73621 25.1891C8.42606 25.0711 0.915976 25.0714 0.624001 25.1896ZM7.42393 34.6811V42.3118H4.6888H1.95367V34.6811V27.0504H4.6888H7.42393V34.6811ZM32.8574 27.615C32.1124 28.2195 32.4804 29.345 33.4232 29.345C33.7486 29.345 33.8703 29.2867 34.1125 29.0153C34.3675 28.7294 34.3994 28.6325 34.3527 28.284C34.2548 27.553 33.4034 27.1722 32.8574 27.615ZM16.8307 42.0688C16.1707 42.3468 16.008 43.0975 16.501 43.5911C16.9816 44.0724 17.7238 43.9666 18.0302 43.3732C18.4375 42.5844 17.6473 41.725 16.8307 42.0688Z" fill="#078204"/>
</svg>
