<svg width="58" height="50" viewBox="0 0 58 50" fill="none" xmlns="http://www.w3.org/2000/svg">
<path d="M28.7884 37.3639H18.0178C17.7813 37.3637 17.5546 37.2667 17.3874 37.0942C17.2202 36.9218 17.1262 36.6879 17.126 36.4441V25.335C17.1262 25.0912 17.2202 24.8574 17.3875 24.6851C17.5547 24.5128 17.7814 24.416 18.0178 24.416H28.7876C29.0239 24.4162 29.2505 24.5131 29.4177 24.6854C29.5849 24.8577 29.679 25.0913 29.6794 25.335V36.4432C29.6794 36.6871 29.5856 36.921 29.4185 37.0936C29.2515 37.2662 29.0249 37.3634 28.7884 37.3639ZM20.2412 34.1483H26.5667V27.624H20.2412V34.1483Z" fill="#FFB300"/>
<path d="M57.9995 13.8275C57.9993 14.3598 57.7942 14.8702 57.4293 15.2466C57.0644 15.6229 56.5696 15.8345 56.0535 15.8347H54.1074V11.8203H56.0535C56.5696 11.8205 57.0644 12.0321 57.4293 12.4085C57.7942 12.7848 57.9993 13.2953 57.9995 13.8275Z" fill="#FFB300"/>
<path d="M38.9992 9.72588C39.866 9.72588 40.5687 9.00112 40.5687 8.10708C40.5687 7.21304 39.866 6.48828 38.9992 6.48828C38.1324 6.48828 37.4297 7.21304 37.4297 8.10708C37.4297 9.00112 38.1324 9.72588 38.9992 9.72588Z" fill="#FFB300"/>
<path d="M44.1076 9.72588C44.9744 9.72588 45.6771 9.00112 45.6771 8.10708C45.6771 7.21304 44.9744 6.48828 44.1076 6.48828C43.2408 6.48828 42.5381 7.21304 42.5381 8.10708C42.5381 9.00112 43.2408 9.72588 44.1076 9.72588Z" fill="#FFB300"/>
<path d="M49.2179 9.72588C50.0847 9.72588 50.7874 9.00112 50.7874 8.10708C50.7874 7.21304 50.0847 6.48828 49.2179 6.48828C48.3511 6.48828 47.6484 7.21304 47.6484 8.10708C47.6484 9.00112 48.3511 9.72588 49.2179 9.72588Z" fill="#FFB300"/>
<path d="M44.3108 38.1844C43.8973 38.1844 43.5008 38.015 43.2085 37.7134C42.9162 37.4119 42.752 37.003 42.752 36.5766V25.2035C42.752 24.7771 42.9162 24.3681 43.2085 24.0666C43.5008 23.7651 43.8973 23.5957 44.3108 23.5957C44.7242 23.5957 45.1207 23.7651 45.413 24.0666C45.7054 24.3681 45.8696 24.7771 45.8696 25.2035V36.5782C45.8692 37.0044 45.7047 37.4129 45.4125 37.714C45.1202 38.0152 44.7239 38.1844 44.3108 38.1844Z" fill="#FFB300"/>
<path d="M49.5657 38.1844C49.1522 38.1844 48.7557 38.015 48.4634 37.7134C48.1711 37.4119 48.0068 37.003 48.0068 36.5766V25.2035C48.0068 24.7771 48.1711 24.3681 48.4634 24.0666C48.7557 23.7651 49.1522 23.5957 49.5657 23.5957C49.9791 23.5957 50.3756 23.7651 50.6679 24.0666C50.9602 24.3681 51.1245 24.7771 51.1245 25.2035V36.5782C51.124 37.0044 50.9596 37.4129 50.6673 37.714C50.375 38.0152 49.9788 38.1844 49.5657 38.1844Z" fill="#FFB300"/>
<path d="M56.0525 11.8203H54.1064V15.8356H56.0525C56.5688 15.8356 57.0639 15.6241 57.4289 15.2476C57.7939 14.8711 57.999 14.3604 57.999 13.8279C57.999 13.2955 57.7939 12.7848 57.4289 12.4083C57.0639 12.0318 56.5688 11.8203 56.0525 11.8203Z" fill="#FFB300"/>
<path d="M56.1627 0H1.83696C1.3501 0.00111764 0.883495 0.201101 0.539235 0.556177C0.194975 0.911254 0.00108359 1.39252 0 1.89468V48.1053C0.00108359 48.6075 0.194975 49.0887 0.539235 49.4438C0.883495 49.7989 1.3501 49.9989 1.83696 50H56.1627C56.6495 49.9989 57.116 49.7989 57.4602 49.4438C57.8043 49.0887 57.998 48.6074 57.9989 48.1053V1.89468C57.998 1.3926 57.8043 0.911329 57.4602 0.556229C57.116 0.201129 56.6495 0.00111841 56.1627 0ZM3.89295 4.01526H54.1034V11.8216H3.89295V4.01526ZM54.1034 45.9873H3.89295V15.8343H54.1034V45.9873Z" fill="#FFB300"/>
<path d="M32.4473 36.5574V24.6605C32.447 24.553 32.4763 24.4475 32.5319 24.3565C32.5875 24.2656 32.667 24.1928 32.7612 24.1466C32.8554 24.1005 32.9603 24.0829 33.0638 24.096C33.1673 24.1091 33.265 24.1523 33.3456 24.2205L40.8838 30.5831C40.9493 30.6384 41.0016 30.7086 41.0365 30.7881C41.0715 30.8676 41.0882 30.9544 41.0853 31.0417C41.0825 31.1289 41.0601 31.2144 41.0201 31.2913C40.98 31.3682 40.9232 31.4346 40.8543 31.4852L33.317 37.0211C33.2346 37.0819 33.1376 37.118 33.0366 37.1256C32.9355 37.1331 32.8345 37.1117 32.7445 37.0637C32.6546 37.0157 32.5792 36.9431 32.5267 36.8537C32.4743 36.7644 32.4468 36.6618 32.4473 36.5574ZM34.9258 28.8568V32.6995L37.36 30.9106L34.9258 28.8568Z" fill="#FFB300"/>
<path d="M13.2202 37.0239L5.67963 31.4863C5.61064 31.4357 5.5539 31.3694 5.51383 31.2925C5.47375 31.2155 5.45141 31.1301 5.44856 31.0429C5.4457 30.9556 5.4624 30.8688 5.49735 30.7893C5.53231 30.7097 5.58457 30.6396 5.65008 30.5843L13.1915 24.2191C13.2721 24.15 13.3702 24.106 13.4743 24.0924C13.5783 24.0788 13.6839 24.0961 13.7787 24.1424C13.8736 24.1886 13.9536 24.2618 14.0094 24.3533C14.0653 24.4449 14.0946 24.551 14.094 24.6591V36.5611C14.0946 36.666 14.0669 36.7691 14.0141 36.8588C13.9614 36.9486 13.8855 37.0215 13.795 37.0694C13.7045 37.1174 13.6028 37.1385 13.5014 37.1305C13.3999 37.1224 13.3026 37.0856 13.2202 37.0239ZM9.17465 30.9135L11.6097 32.7032V28.8589L9.17465 30.9135Z" fill="#FFB300"/>
</svg>
