<svg width="48" height="50" viewBox="0 0 48 50" fill="none" xmlns="http://www.w3.org/2000/svg">
<path fill-rule="evenodd" clip-rule="evenodd" d="M40.246 0.24748C40.0444 0.450605 40.0005 0.594758 40.0005 1.05393V1.6129H31.4221C24.04 1.6129 22.7606 1.63448 22.2477 1.76744C21.8535 1.86966 20.2556 2.68871 17.5271 4.18679L13.4025 6.45161H8.52233H3.64226L3.12589 6.71099C2.49033 7.03034 2.06366 7.59052 1.79948 8.45272C1.4364 9.638 1.64009 11.0554 2.30455 11.9663C2.49963 12.2338 2.81361 12.4882 3.15809 12.6582C3.45777 12.8059 3.70295 12.9448 3.70295 12.9667C3.70295 12.9886 2.88181 15.7845 1.87807 19.1796L0.0531964 25.3528L0.0265981 37.4274L0 49.5019L0.247083 49.751L0.494067 50H18.8019H37.1098L37.3564 49.7513L37.6031 49.5027L37.5769 37.4781L37.5507 25.4536L35.8683 19.7213C34.943 16.5685 34.1655 13.9356 34.1406 13.8703C34.1111 13.7927 34.3251 13.7119 34.7569 13.6374C36.4845 13.339 37.8447 12.066 38.2634 10.3557L38.4293 9.67742H39.215H40.0005V10.6396C40.0005 11.5269 40.0196 11.6212 40.246 11.8493L40.4914 12.0968H44.0003H47.5091L47.7545 11.8493L48 11.6019V6.04839V0.494859L47.7545 0.24748L47.5091 0H44.0003H40.4914L40.246 0.24748ZM46.4001 6.04839V10.4839H44.0003H41.6004V6.04839V1.6129H44.0003H46.4001V6.04839ZM40.0005 5.64516V8.06452L38.8756 8.06492C37.9364 8.06522 37.6979 8.09778 37.4306 8.2621C37.0226 8.5128 36.8425 8.87661 36.7729 9.59042C36.7069 10.2685 36.5055 10.702 36.0148 11.2233C35.3424 11.9373 35.0456 12.0324 33.296 12.0931C31.9902 12.1385 31.6942 12.1781 31.4489 12.3405C31.2882 12.4469 30.1206 13.3513 28.8541 14.3503C26.0175 16.5878 25.8808 16.6704 25.1058 16.6138C23.8829 16.5247 23.0885 15.3982 23.4034 14.1999C23.5049 13.8137 23.8898 13.3846 26.5601 10.6801C29.295 7.91038 29.6012 7.56734 29.6012 7.27339C29.6012 7.06069 29.5154 6.85998 29.3557 6.69909L29.1104 6.45161L22.9312 6.45071L16.7521 6.4497L19.5019 4.9376C21.0143 4.10585 22.3867 3.38458 22.5517 3.33468C22.7183 3.28438 26.6656 3.23992 31.4261 3.23488L40.0005 3.22581V5.64516ZM25.2515 9.67742L23.6539 11.2903H13.744C4.07403 11.2903 3.82975 11.2856 3.65896 11.0954C3.07899 10.4494 3.07899 8.90544 3.65896 8.25948C3.83004 8.06885 4.09223 8.06452 15.3415 8.06452H26.8491L25.2515 9.67742ZM21.9972 13.3949C21.7047 14.1711 21.6596 14.7974 21.8432 15.5309C22.2708 17.2384 23.7783 18.3469 25.5034 18.2225C26.4838 18.1517 27.0162 17.8508 29.1905 16.1388C30.2569 15.299 31.1472 14.6298 31.169 14.6517C31.1907 14.6737 30.4982 17.0904 29.6299 20.0222L28.0513 25.3528L28.0246 36.87L27.998 48.3871H14.8005H1.60309V37.1215V25.8558L3.25678 20.2112C4.16622 17.1067 5.02267 14.1922 5.15986 13.7349L5.40924 12.9032H13.7959H22.1825L21.9972 13.3949ZM34.4296 20.5393L36.0044 25.9577L36.0026 36.5911L36.0008 47.2247L34.8009 46.0181L33.601 44.8116V35.9597V27.1078L33.3555 26.8604C33.2008 26.7043 32.9958 26.6129 32.801 26.6129C32.6062 26.6129 32.4012 26.7043 32.2466 26.8604L32.0011 27.1078V35.9597V44.8116L30.8011 46.0181L29.6012 47.2247V36.5442V25.8636L31.1738 20.4922C32.0388 17.538 32.7708 15.121 32.8006 15.121C32.8304 15.121 33.5635 17.5593 34.4296 20.5393ZM6.64826 25.2475C6.40527 25.4923 6.40277 25.5138 6.40277 27.3655V29.2363L7.19792 30.8371L7.99307 32.438L7.64679 37.2623C7.4563 39.9157 7.32891 42.2228 7.36381 42.3891C7.5265 43.1663 8.04536 43.7995 8.80261 44.1451C9.17159 44.3134 9.45957 44.3504 10.4025 44.3504C11.3454 44.3504 11.6334 44.3134 12.0024 44.1451C12.7596 43.7995 13.2785 43.1663 13.4412 42.3891C13.4761 42.2228 13.3487 39.9157 13.1582 37.2623L12.8119 32.438L13.6071 30.8371L14.4022 29.2363V27.3655C14.4022 25.5138 14.3997 25.4923 14.1568 25.2475C14.0021 25.0914 13.7971 25 13.6023 25C13.4075 25 13.2025 25.0914 13.0478 25.2475C12.8113 25.4858 12.8023 25.545 12.8023 26.8604V28.2258H12.0024H11.2025V26.8604C11.2025 25.545 11.1935 25.4858 10.957 25.2475C10.8023 25.0914 10.5973 25 10.4025 25C10.2077 25 10.0027 25.0914 9.84804 25.2475C9.61156 25.4858 9.60256 25.545 9.60256 26.8604V28.2258H8.80261H8.00267V26.8604C8.00267 25.545 7.99367 25.4858 7.75718 25.2475C7.60249 25.0914 7.39751 25 7.20272 25C7.00793 25 6.80295 25.0914 6.64826 25.2475ZM19.8737 25.1101C18.2058 25.5059 16.7612 27.2906 15.9644 29.9395C15.4281 31.7225 15.094 33.8821 15.2958 34.2621C15.3586 34.3804 15.7232 34.6363 16.106 34.8306C16.5482 35.0551 16.8021 35.2452 16.8021 35.3517C16.8021 35.4441 16.6638 36.8838 16.4948 38.5511C16.3258 40.2184 16.2047 41.84 16.2256 42.1545C16.2761 42.9125 16.6866 43.5878 17.3468 43.9994C17.8291 44.2999 17.8564 44.3044 19.2019 44.3044C20.5474 44.3044 20.5747 44.2999 21.057 43.9994C21.7173 43.5878 22.1277 42.9125 22.1782 42.1545C22.1991 41.84 22.078 40.2184 21.909 38.5511C21.6105 35.6052 21.6018 35.3779 21.6018 30.5072V25.4949L21.3563 25.2475C21.0902 24.9791 20.6118 24.9348 19.8737 25.1101ZM20.0019 30.746V34.6774H19.2238C18.4536 34.6774 18.4447 34.6744 18.3342 34.3791C18.2505 34.1557 18.0568 33.9985 17.5622 33.7527C16.8071 33.3772 16.8205 33.4201 17.0606 32.1431C17.4074 30.2985 18.1307 28.4978 18.8784 27.6171C19.2107 27.2257 19.7465 26.8158 19.9269 26.8149C19.9681 26.8147 20.0019 28.5837 20.0019 30.746ZM11.9024 30.6452L11.5002 31.4516H10.4025H9.30478L8.90261 30.6452L8.50043 29.8387H10.4025H12.3046L11.9024 30.6452ZM11.5791 37.5527C11.8153 40.8972 11.8686 42.1017 11.7882 42.2794C11.6305 42.6284 11.2903 42.7419 10.4025 42.7419C9.51467 42.7419 9.17449 42.6284 9.0168 42.2794C8.9364 42.1017 8.9897 40.8972 9.22588 37.5527L9.54276 33.0645H10.4025H11.2622L11.5791 37.5527ZM20.102 36.4163C20.102 36.4857 20.2145 37.6537 20.3518 39.0121C20.6658 42.1158 20.6658 42.1825 20.3563 42.4945C20.1318 42.721 20.0338 42.7419 19.2019 42.7419C18.3701 42.7419 18.2721 42.721 18.0475 42.4945C17.738 42.1825 17.738 42.1158 18.052 39.0121C18.1894 37.6537 18.3019 36.4857 18.3019 36.4163C18.302 36.3249 18.5487 36.2903 19.2019 36.2903C19.8552 36.2903 20.1019 36.3249 20.102 36.4163ZM33.8509 47.379L34.8471 48.3871H32.801H30.7549L31.7511 47.379C32.2989 46.8246 32.7714 46.371 32.801 46.371C32.8306 46.371 33.3031 46.8246 33.8509 47.379Z" fill="#919D06"/>
</svg>
