<svg width="37" height="50" viewBox="0 0 37 50" fill="none" xmlns="http://www.w3.org/2000/svg">
<path fill-rule="evenodd" clip-rule="evenodd" d="M1.68132 0.131365C1.16526 0.292526 0.285072 1.19553 0.126826 1.72621C0.0283024 2.05676 -0.000823578 7.02067 1.76014e-05 23.3949L0.0010685 44.6349L0.248586 45.1616C0.538057 45.7776 1.1947 46.3742 1.77154 46.5454C2.06301 46.632 4.1688 46.6663 9.17097 46.6663H16.1631L16.4463 47.0713C16.9038 47.7254 18.1779 48.8873 19.0704 49.4644L19.8988 50H26.5296H33.1603L33.6741 49.4531C34.7969 48.258 35.9543 46.2964 36.4837 44.6916C36.9751 43.2013 37.0267 42.5181 36.991 37.9676L36.9583 33.8005L36.6789 33.2796C36.1755 32.3409 35.3322 31.7874 34.2583 31.691L33.6461 31.6359V16.8955C33.6461 5.8091 33.6151 2.05249 33.5211 1.74162C33.4524 1.51431 33.1916 1.10292 32.9416 0.827369C32.1249 -0.0727171 33.4329 -0.00614835 16.7775 0.00583197C6.3607 0.0133327 1.94156 0.050107 1.68132 0.131365ZM31.7056 1.91779L31.9638 2.17344V16.4993V30.8252L31.6064 30.5849C31.2807 30.366 30.9697 30.2237 30.4654 30.0632C30.2916 30.0079 30.2814 29.3693 30.2814 18.5893V7.17391L30.0233 6.91827L29.7653 6.66251H16.8226H3.87985L3.62182 6.91827L3.36368 7.17391V21.6639V36.154L3.62182 36.4096L3.87985 36.6654H8.12066H12.3616L13.856 40.7697C14.678 43.0271 15.3505 44.9023 15.3505 44.9368C15.3505 44.9713 12.3911 44.9995 8.77404 44.9995H2.19749L1.93946 44.7438L1.68132 44.4881V23.3308V2.17344L1.93946 1.91779L2.19749 1.66203H16.8226H31.4476L31.7056 1.91779ZM13.716 3.58461C13.5532 3.74577 13.4578 3.95934 13.4578 4.16227C13.4578 4.36521 13.5532 4.57877 13.716 4.73993L13.974 4.99569H16.8226H19.6711L19.9291 4.73993C20.0919 4.57877 20.1873 4.36521 20.1873 4.16227C20.1873 3.95934 20.0919 3.74577 19.9291 3.58461L19.6711 3.32886H16.8226H13.974L13.716 3.58461ZM28.5991 19.32C28.5991 25.3648 28.5589 30.3106 28.5099 30.3106C28.4608 30.3106 28.3337 30.1193 28.2273 29.8855C27.6947 28.7154 26.037 28.038 24.7875 28.4798L24.3932 28.6192V27.5973V26.5756L24.9542 26.321C26.1883 25.7612 26.8264 24.7221 26.8977 23.1559C26.9393 22.2404 26.9296 22.1882 26.6709 21.9318C26.4414 21.7045 26.3063 21.6639 25.7786 21.6639H25.1565L25.0285 21.0128C24.7297 19.4945 23.7467 17.821 22.5963 16.8724C21.854 16.2604 20.965 15.789 19.9244 15.4558C19.3429 15.2695 19.1937 15.1801 19.2138 15.0302C19.2278 14.9258 19.2696 14.6418 19.3068 14.3991C19.5115 13.0606 18.2526 11.663 16.8423 11.663C16.1621 11.663 15.6334 11.8966 15.0818 12.4408C14.3332 13.1794 14.2073 13.6762 14.426 15.0302C14.4505 15.1817 14.3075 15.2673 13.7182 15.4543C11.078 16.2918 9.21903 18.2851 8.64839 20.8903L8.47889 21.6639H7.86179C7.33931 21.6639 7.20314 21.705 6.97455 21.9315C6.71442 22.1892 6.70611 22.236 6.74859 23.2076C6.78129 23.954 6.85332 24.3496 7.02544 24.7288C7.36822 25.484 7.91646 26.0885 8.53547 26.3941L9.08297 26.6644H13.7939H18.5049V30.9357C18.5049 33.2849 18.488 35.2069 18.4674 35.2069C18.4468 35.2069 18.1273 34.7078 17.7576 34.0979C16.7333 32.4078 16.0079 31.7919 14.9189 31.6876C13.3113 31.5337 11.7755 32.9314 11.7755 34.5483V34.9986H8.41076H5.04604V21.6639V8.32934H16.8226H28.5991V19.32ZM17.4056 13.5856C17.9272 14.1023 17.5576 14.9966 16.8226 14.9966C16.6177 14.9966 16.4022 14.9022 16.2395 14.7409C16.0767 14.5797 15.9814 14.3662 15.9814 14.1632C15.9814 13.9603 16.0767 13.7467 16.2395 13.5856C16.4022 13.4243 16.6177 13.3298 16.8226 13.3298C17.0274 13.3298 17.2429 13.4243 17.4056 13.5856ZM19.1476 16.9198C20.866 17.3839 22.0642 18.3212 22.8147 19.7888C23.07 20.2878 23.4468 21.3489 23.4468 21.5684C23.4468 21.6098 22.82 21.6612 22.0536 21.683C20.7962 21.7186 20.6092 21.7492 20.1347 21.9961C19.1887 22.4882 18.6288 23.3256 18.5309 24.3942L18.4752 25.004L13.9763 24.9748C9.62037 24.9465 9.46823 24.9386 9.18717 24.7307C8.78277 24.4314 8.53 24.0668 8.45145 23.6694L8.38447 23.3308H10.6466C12.7096 23.3308 12.9304 23.3134 13.1546 23.1336C13.5022 22.8547 13.5022 22.14 13.1546 21.8612C12.9419 21.6904 12.7266 21.6639 11.5535 21.6639C10.8081 21.6639 10.1983 21.6256 10.1983 21.5787C10.1983 21.3144 10.5843 20.2665 10.9066 19.6552C11.7283 18.0977 13.2508 17.0939 15.2979 16.7606C16.0656 16.6354 18.4616 16.7346 19.1476 16.9198ZM15.3983 21.9197C15.2356 22.0809 15.1402 22.2944 15.1402 22.4974C15.1402 22.7003 15.2356 22.9139 15.3983 23.075C15.6227 23.2974 15.7515 23.3308 16.3856 23.3308C17.3246 23.3308 17.6064 23.1385 17.6064 22.4974C17.6064 21.8563 17.3246 21.6639 16.3856 21.6639C15.7515 21.6639 15.6227 21.6973 15.3983 21.9197ZM22.0297 23.4951C22.7227 23.8209 22.7108 23.7035 22.7108 30.253V36.154L22.9689 36.4096C23.1316 36.5709 23.3472 36.6654 23.552 36.6654C23.7568 36.6654 23.9724 36.5709 24.135 36.4096L24.3932 36.154V33.5867C24.3932 31.4644 24.4219 30.9592 24.559 30.6729C24.7308 30.3144 25.2443 29.9981 25.6549 29.9981C26.0655 29.9981 26.5791 30.3144 26.7509 30.6729C26.888 30.9592 26.9167 31.4644 26.9167 33.5867V36.154L27.1748 36.4096C27.3375 36.5709 27.5531 36.6654 27.7579 36.6654C27.9627 36.6654 28.1783 36.5709 28.3409 36.4096C28.5943 36.1587 28.5991 36.1221 28.5991 34.4201C28.5991 33.0568 28.6345 32.6121 28.7649 32.3398C28.9367 31.9812 29.4502 31.6649 29.8608 31.6649C30.2714 31.6649 30.785 31.9812 30.9568 32.3398C31.0872 32.6121 31.1226 33.0568 31.1226 34.4201C31.1226 36.1221 31.1273 36.1587 31.3807 36.4096C31.7222 36.748 32.2054 36.748 32.5468 36.4096C32.7811 36.1776 32.805 36.0706 32.805 35.2535C32.805 34.1813 32.9779 33.735 33.4861 33.496C33.9271 33.2887 34.2064 33.2887 34.6474 33.496C35.3147 33.8099 35.3285 33.9067 35.3285 38.3027C35.3285 40.6022 35.2823 42.5109 35.218 42.8708C34.9181 44.5484 34.0479 46.3499 32.7683 47.9425L32.4543 48.3332H26.4424H20.4305L19.7757 47.8976C18.8835 47.3041 17.774 46.1016 17.3753 45.2961C16.895 44.3258 13.4578 34.8324 13.4578 34.4762C13.4578 34.0581 14.0018 33.4615 14.4608 33.3762C14.9086 33.293 15.4193 33.5837 15.7998 34.1387C15.9473 34.3538 16.644 35.4908 17.3481 36.6654C18.0521 37.84 18.7239 38.8831 18.8411 38.9833C19.1474 39.2456 19.6227 39.2136 19.9291 38.9099L20.1873 38.6542V31.5031C20.1873 23.5982 20.1677 23.8331 20.8519 23.4988C21.2787 23.2904 21.5919 23.2893 22.0297 23.4951ZM25.2343 23.4904C25.2343 23.7693 24.9551 24.3121 24.6847 24.5589L24.4234 24.7974L24.3585 24.2985C24.3226 24.0241 24.263 23.6941 24.2259 23.5652C24.1622 23.3439 24.1885 23.3308 24.6963 23.3308C25.1094 23.3308 25.2343 23.3679 25.2343 23.4904Z" fill="#0CB194"/>
</svg>
