<svg width="50" height="35" viewBox="0 0 50 35" fill="none" xmlns="http://www.w3.org/2000/svg">
<path d="M31.9157 34.9941C30.1164 34.9941 28.6656 34.9993 27.2143 34.9941C26.931 35.0115 26.6472 34.9717 26.3801 34.8769C26.1131 34.7822 25.8684 34.6346 25.6611 34.4432C25.4538 34.2518 25.2882 34.0206 25.1745 33.7637C25.0609 33.5069 25.0015 33.2298 25 32.9495C24.9985 32.6692 25.055 32.3916 25.166 32.1336C25.277 31.8756 25.4401 31.6427 25.6454 31.4492C25.8506 31.2556 26.0938 31.1056 26.3598 31.0081C26.6259 30.9106 26.9093 30.8679 27.1927 30.8824C29.8632 30.8762 32.5337 30.8824 35.2042 30.8824C40.7483 30.8762 45.2297 27.0141 45.7677 21.5675C46.0334 18.963 45.2766 16.357 43.6535 14.2877C42.0305 12.2183 39.665 10.8436 37.0455 10.4472C35.44 10.1976 35.4489 10.2241 35.431 11.8195C35.4706 12.9189 35.4504 14.0196 35.3705 15.1169C35.3541 15.3993 35.2509 15.6701 35.0746 15.8931C34.8984 16.1161 34.6574 16.2807 34.384 16.3649C34.1076 16.4716 33.806 16.4976 33.515 16.4399C33.224 16.3822 32.956 16.2432 32.7426 16.0394C30.3617 13.8434 27.9665 11.663 25.5898 9.46337C25.397 9.32257 25.2405 9.13889 25.1329 8.92721C25.0254 8.71553 24.9698 8.48181 24.9707 8.24496C24.9716 8.00812 25.029 7.77483 25.1382 7.56397C25.2474 7.35312 25.4053 7.17063 25.5992 7.0313C27.9765 4.82925 30.3615 2.63708 32.7542 0.454789C32.9662 0.233674 33.2431 0.0837928 33.5458 0.0262382C33.8486 -0.0313164 34.162 0.00635313 34.4419 0.133946C34.7458 0.261473 35.003 0.477452 35.1795 0.753097C35.3559 1.02874 35.4431 1.35096 35.4295 1.6768C35.4453 2.98514 35.4542 4.29451 35.4242 5.60233C35.4137 6.06357 35.5484 6.19617 36.0211 6.21177C39.5883 6.35526 42.978 7.78732 45.547 10.2362C48.116 12.685 49.6856 15.9803 49.9579 19.4967C50.2302 23.0131 49.1863 26.5058 47.0243 29.3122C44.8622 32.1186 41.7325 34.0433 38.2289 34.7211C37.9204 34.7809 37.6088 34.8251 37.2966 34.8651C35.3905 35.1059 33.4749 34.9379 31.913 34.992" fill="#FC7754"/>
<path d="M10.3978 34.9954C7.64576 34.9954 4.89315 35.0006 2.14106 34.9917C1.68698 34.9946 1.24367 34.8552 0.874807 34.5936C0.505942 34.332 0.230502 33.9616 0.0880524 33.5357C-0.0160874 33.1441 -0.0093021 32.7317 0.107668 32.3436C0.224637 31.9555 0.447295 31.6066 0.751332 31.3351C1.16174 31.0047 1.68465 30.842 2.21265 30.8806C7.69612 30.8851 13.1798 30.8865 18.6636 30.8847C18.9408 30.8701 19.2181 30.9112 19.4787 31.0057C19.7393 31.1001 19.9778 31.2459 20.1796 31.4341C20.3814 31.6224 20.5424 31.8492 20.6529 32.1007C20.7633 32.3523 20.8208 32.6235 20.8219 32.8977C20.825 33.1778 20.7707 33.4557 20.6622 33.7145C20.5537 33.9733 20.3932 34.2078 20.1905 34.4037C19.9878 34.5996 19.747 34.7529 19.4827 34.8545C19.2184 34.956 18.936 35.0036 18.6525 34.9943C15.9004 35.0037 13.1478 34.9975 10.3957 34.9943" fill="#FC7754"/>
<path d="M10.4782 6.20009C13.2124 6.20009 15.9476 6.2443 18.6802 6.17773C19.2365 6.18555 19.7687 6.40307 20.168 6.78577C20.5672 7.16847 20.8033 7.68742 20.828 8.23644C20.8269 8.51193 20.7704 8.78448 20.6619 9.03824C20.5533 9.292 20.3947 9.52193 20.1955 9.71467C19.9962 9.90741 19.7601 10.0591 19.501 10.161C19.2419 10.2629 18.9649 10.3129 18.686 10.3081C15.6576 10.3201 12.6291 10.3128 9.60013 10.3128C7.13915 10.3128 4.6787 10.3206 2.21824 10.3097C1.83229 10.3387 1.44588 10.2598 1.1032 10.082C0.760523 9.9042 0.475422 9.63472 0.280511 9.30438C0.0856002 8.97405 -0.0112498 8.59618 0.0010399 8.21402C0.0133296 7.83186 0.134263 7.46084 0.350006 7.14339C0.532338 6.83711 0.797094 6.58678 1.11483 6.42025C1.43257 6.25372 1.79085 6.17751 2.14981 6.20009C4.92611 6.20009 7.70223 6.20009 10.4782 6.20009Z" fill="#FC7754"/>
<path d="M10.4834 18.5368C13.2155 18.5368 15.9481 18.5269 18.6802 18.5399C19.0559 18.5216 19.4294 18.6057 19.76 18.7828C20.0907 18.96 20.3657 19.2235 20.555 19.5445C20.7444 19.8656 20.8408 20.2318 20.8338 20.6033C20.8268 20.9748 20.7166 21.3373 20.5152 21.6511C20.3401 21.9627 20.0812 22.2204 19.7671 22.3958C19.453 22.5711 19.096 22.6573 18.7354 22.6448C13.1871 22.6549 7.6385 22.6549 2.08976 22.6448C1.81428 22.6442 1.54168 22.5894 1.28781 22.4837C1.03395 22.3781 0.803891 22.2236 0.61101 22.0293C0.418129 21.835 0.266277 21.6047 0.164285 21.3519C0.0622925 21.0992 0.0121949 20.8289 0.0169054 20.5568C0.0216159 20.2847 0.0810405 20.0162 0.191724 19.767C0.302407 19.5178 0.462139 19.2929 0.661633 19.1052C0.861127 18.9175 1.0964 18.7709 1.35377 18.6739C1.61114 18.5768 1.88548 18.5313 2.16082 18.5399C4.93502 18.5332 7.70921 18.5399 10.4834 18.5373" fill="#FC7754"/>
</svg>
