<svg width="50" height="50" viewBox="0 0 50 50" fill="none" xmlns="http://www.w3.org/2000/svg">
<path fill-rule="evenodd" clip-rule="evenodd" d="M32.1576 0.155118C30.9514 0.479445 29.7365 1.43191 29.1647 2.50154C28.5772 3.60046 28.575 3.63261 28.575 10.7666V17.3124L27.7287 17.3721C27.2631 17.405 26.6317 17.5263 26.3254 17.6418C25.225 18.0564 24.2167 19.0592 23.7531 20.2002C23.5302 20.7487 23.5238 20.8786 23.4732 25.8725L23.4213 30.9835L23.1125 31.4827C22.8158 31.9623 22.1878 32.4448 21.6609 32.5979L21.4313 32.6646L21.4297 26.1517C21.4281 19.0509 21.416 18.879 20.8417 17.8149C20.2103 16.6448 18.8501 15.6442 17.5649 15.4042C17.2336 15.3425 14.4736 15.3017 10.6212 15.3017C3.65345 15.3017 3.60467 15.3052 2.50811 15.8914C1.84456 16.2462 0.944658 17.1461 0.589922 17.8096C-0.0258654 18.9614 0.000158058 18.3071 0.000158058 32.6508C0.000158058 44.1109 0.0199563 45.849 0.156605 46.3735C0.596657 48.0632 1.85864 49.3422 3.54813 49.8107C4.18025 49.9859 4.71286 50 10.7176 50C16.2162 50 17.2957 49.9761 17.8048 49.8436C19.4983 49.4025 20.8089 48.1042 21.2442 46.4364C21.3991 45.843 21.4202 45.1215 21.4254 40.243L21.4313 34.7212L22.1113 34.5534C23.5726 34.1929 24.7083 33.1794 25.2778 31.728C25.4364 31.3236 25.4623 30.7054 25.5103 26.1621L25.5644 21.0513L25.8732 20.5519C26.3159 19.8362 26.9463 19.4729 27.8587 19.4076L28.575 19.3564V24.9107C28.575 30.9603 28.5865 31.1023 29.1647 32.1839C29.5195 32.8475 30.4194 33.7474 31.0829 34.1021C32.1809 34.6892 32.2194 34.6919 39.2905 34.6919C44.7908 34.6919 45.8705 34.6681 46.3797 34.5355C48.0731 34.0944 49.3837 32.7962 49.819 31.1283C49.9802 30.5108 49.9947 29.4046 49.9988 17.3938C50.0034 3.12264 50.0233 3.63118 49.4165 2.50685C48.7851 1.3367 47.4249 0.33606 46.1397 0.0961308C45.8056 0.0337759 43.0635 -0.00377999 39.1491 0.000302172C33.8576 0.00581309 32.6099 0.0334697 32.1576 0.155118ZM46.3969 2.31131C46.9379 2.60064 47.4045 3.06927 47.6828 3.60281C47.8542 3.93132 47.9124 4.25616 47.9455 5.07075L47.9882 6.1168H39.2905H30.5929L30.6317 5.07004C30.6665 4.13032 30.7024 3.96591 30.9834 3.46269C31.3113 2.87577 31.986 2.32285 32.5923 2.14435C32.776 2.09027 35.6927 2.05771 39.4436 2.06792C45.9714 2.08567 45.9752 2.08577 46.3969 2.31131ZM16.1001 4.28616C15.6693 4.51364 15.3081 5.11576 15.3081 5.60653C15.3081 5.77941 15.4006 6.10211 15.5135 6.32357C15.7446 6.77638 16.3325 7.13734 16.8389 7.13734C17.0118 7.13734 17.3345 7.04488 17.5559 6.93191C18.0087 6.70086 18.3697 6.11293 18.3697 5.60653C18.3697 5.10014 18.0087 4.51221 17.5559 4.28116C17.0531 4.0247 16.5925 4.02623 16.1001 4.28616ZM3.58324 5.23873C2.69854 5.7291 3.06869 7.13734 4.08228 7.13734C4.59938 7.13734 5.10281 6.63881 5.10281 6.1267C5.10281 5.36048 4.25607 4.86572 3.58324 5.23873ZM47.965 17.3427V26.5276H39.2905H30.616V22.9557V19.3838H34.44H38.2639L38.0118 19.7553C37.6153 20.3395 37.7326 20.9939 38.2848 21.2795C38.9366 21.6166 39.2299 21.4569 40.6938 19.9695C41.7093 18.9375 41.8415 18.7627 41.8383 18.4555C41.8332 17.9703 41.7407 17.8479 40.3808 16.5279C39.2474 15.4278 39.15 15.3573 38.763 15.3573C38.4274 15.3573 38.2964 15.4186 38.0555 15.6883C37.6891 16.0983 37.6762 16.4768 38.0118 16.9713L38.2639 17.3427H34.44H30.616V12.7503V8.15788H39.2905H47.965V17.3427ZM23.9938 9.32089C23.1091 9.81126 23.4793 11.2195 24.4929 11.2195C25.01 11.2195 25.5134 10.721 25.5134 10.2089C25.5134 9.44264 24.6667 8.94788 23.9938 9.32089ZM17.8221 17.6194C18.3631 17.9087 18.8296 18.3774 19.1079 18.9109C19.2794 19.2394 19.3376 19.5642 19.3707 20.3788L19.4134 21.4249H10.7157H2.01805L2.05683 20.3781C2.09163 19.4384 2.12755 19.274 2.40861 18.7708C2.7365 18.1839 3.41118 17.6309 4.01747 17.4524C4.20117 17.3984 7.11784 17.3658 10.8688 17.376C17.3966 17.3938 17.4004 17.3939 17.8221 17.6194ZM19.3902 28.0584V32.6508H16.7975H14.2048L13.8977 31.9946C13.4668 31.0739 12.8808 30.4781 11.9567 30.0214C11.2288 29.6617 11.1308 29.6402 10.2108 29.6402C9.328 29.6402 9.17155 29.6708 8.55424 29.9632C7.60545 30.4127 7.01456 30.9912 6.55553 31.9201C6.19538 32.6488 6.17436 32.7452 6.17436 33.6714C6.17436 34.5975 6.19538 34.694 6.55553 35.4226C7.01456 36.3515 7.60545 36.9301 8.55424 37.3795C9.17155 37.672 9.328 37.7025 10.2108 37.7025C11.1308 37.7025 11.2288 37.6811 11.9567 37.3213C12.8808 36.8646 13.4668 36.2688 13.8977 35.3481L14.2048 34.6919H16.7975H19.3902V38.2638V41.8357H10.7157H2.04122V32.6508V23.466H10.7157H19.3902V28.0584ZM47.965 29.3665C47.965 30.54 47.7464 31.1634 47.1121 31.7987C46.2262 32.686 46.4676 32.6613 39.0246 32.6283C32.6233 32.5999 32.6049 32.5992 32.1842 32.3742C31.6432 32.0848 31.1766 31.6162 30.8983 31.0827C30.7269 30.7542 30.6687 30.4293 30.6355 29.6147L30.5929 28.5687H39.279H47.965V29.3665ZM11.3265 31.9744C11.9349 32.377 12.1955 32.8858 12.1955 33.6714C12.1955 34.4672 11.9344 34.966 11.2974 35.3876C10.7281 35.7644 9.73142 35.7791 9.15257 35.4192C8.38003 34.939 8.01703 33.9854 8.26134 33.0781C8.40177 32.5565 9.02633 31.8884 9.51261 31.7396C10.0477 31.5758 10.8888 31.6847 11.3265 31.9744ZM26.0349 38.9165C25.1502 39.4069 25.5203 40.8151 26.5339 40.8151C27.051 40.8151 27.5545 40.3166 27.5545 39.8045C27.5545 39.0383 26.7077 38.5435 26.0349 38.9165ZM45.6955 38.9845C45.2646 39.212 44.9035 39.8141 44.9035 40.3049C44.9035 40.8113 45.2644 41.3992 45.7172 41.6302C45.9387 41.7432 46.2614 41.8357 46.4342 41.8357C46.6071 41.8357 46.9298 41.7432 47.1513 41.6302C47.6041 41.3992 47.965 40.8113 47.965 40.3049C47.965 39.7985 47.6041 39.2106 47.1513 38.9795C46.6485 38.723 46.1879 38.7246 45.6955 38.9845ZM19.3902 44.6746C19.3902 45.8481 19.1716 46.4715 18.5373 47.1068C17.6513 47.9941 17.8928 47.9694 10.4498 47.9364C4.0485 47.908 4.03013 47.9073 3.60936 47.6823C3.06838 47.3929 2.60179 46.9243 2.3235 46.3908C2.15205 46.0622 2.09388 45.7374 2.06071 44.9228L2.01805 43.8768H10.7042H19.3902V44.6746ZM37.2607 47.0808C36.376 47.5712 36.7462 48.9795 37.7597 48.9795C38.2768 48.9795 38.7803 48.4809 38.7803 47.9688C38.7803 47.2026 37.9335 46.7078 37.2607 47.0808Z" fill="#EC7A11"/>
</svg>
