<svg width="50" height="50" viewBox="0 0 50 50" fill="none" xmlns="http://www.w3.org/2000/svg">
<path fill-rule="evenodd" clip-rule="evenodd" d="M6.69739 0.145458C5.90608 0.427375 5.26134 1.15233 5.08959 1.95336C5.0309 2.22688 4.98296 3.38677 4.98296 4.53094V6.61119L4.17739 6.67476C3.16795 6.75454 2.59703 6.92679 1.93119 7.35274C0.99254 7.95329 0.30581 8.96476 0.102124 10.0466C-0.0335031 10.7672 -0.0342843 45.8635 0.101246 46.5901C0.408727 48.2377 1.75768 49.5837 3.41675 49.8983C4.13023 50.0337 45.8653 50.034 46.5904 49.8986C48.2379 49.5911 49.5838 48.2421 49.8984 46.5829C50.0342 45.8668 50.0337 10.7684 49.8978 10.0466C49.6942 8.96476 49.0074 7.95329 48.0688 7.35274C47.4041 6.92757 46.8321 6.75454 45.8301 6.67534L45.0319 6.61236L44.9984 4.2581C44.9614 1.67066 44.9336 1.52829 44.3306 0.841315C43.7497 0.179734 43.3878 0.058452 41.8723 0.0174388C40.83 -0.0107822 40.4297 0.0158764 40.0627 0.137744C39.4239 0.349938 38.9334 0.777257 38.6301 1.38591C38.3789 1.89018 38.3772 1.90893 38.3772 4.2667V6.63999H25H11.6228V4.2667C11.6228 1.90893 11.6211 1.89018 11.3699 1.38591C11.0725 0.789268 10.5848 0.356676 9.9753 0.148974C9.39754 -0.0478893 7.24654 -0.0502329 6.69739 0.145458ZM9.5652 1.80268C9.71723 1.88129 9.86877 2.01664 9.90217 2.10364C9.93546 2.19055 9.9628 4.26562 9.9628 6.71489C9.9628 12.1267 10.128 11.6217 8.3591 11.617C7.0864 11.6137 6.92197 11.5604 6.74436 11.0931C6.67982 10.9232 6.64339 9.29413 6.64437 6.60923C6.64584 2.10218 6.65345 2.02796 7.13308 1.7852C7.48323 1.60807 9.2129 1.62047 9.5652 1.80268ZM43.0861 1.931L43.3082 2.15335L43.3373 6.37409C43.3532 8.69553 43.3403 10.7378 43.3084 10.9126C43.1964 11.5262 42.9776 11.6202 41.6606 11.6202C40.5923 11.6202 40.4692 11.6015 40.2631 11.4079L40.0372 11.1955V6.69048C40.0372 3.23307 40.0656 2.14983 40.1592 2.03236C40.4151 1.71158 40.6671 1.65679 41.7679 1.68277C42.7596 1.70621 42.885 1.72984 43.0861 1.931ZM4.99858 9.88687C5.03344 11.434 5.04164 11.487 5.32598 12.0032C5.6359 12.566 6.13662 12.9948 6.72385 13.2003C7.21666 13.3729 9.49977 13.3682 10 13.1936C10.4482 13.0372 11.0422 12.5241 11.3521 12.0257C11.5537 11.7015 11.5784 11.5177 11.6228 10.0089L11.6716 8.34887H25H38.3284L38.3772 10.0089C38.4215 11.5177 38.4462 11.7015 38.6479 12.0257C38.9578 12.5241 39.5518 13.0372 40 13.1936C40.5002 13.3682 42.7833 13.3729 43.2761 13.2003C43.8633 12.9948 44.3641 12.566 44.674 12.0032C44.9587 11.4864 44.9665 11.4353 45.0017 9.87339L45.0376 8.2731L45.7732 8.3353C46.6589 8.4102 47.2542 8.68196 47.717 9.22265C48.3234 9.9311 48.3369 10.0635 48.3369 15.2998V20.0181H25H1.66306V15.2976C1.66306 10.1795 1.67917 9.99965 2.19962 9.31727C2.69994 8.66136 3.44682 8.33579 4.50909 8.31079L4.96284 8.30005L4.99858 9.88687ZM15.28 11.0787L15.0403 11.3183V14.1591V16.9998L15.28 17.2395L15.5196 17.4792H25H34.4803L34.72 17.2395L34.9597 16.9998V14.1591V11.3183L34.72 11.0787L34.4803 10.839H25H15.5196L15.28 11.0787ZM33.2997 14.1591V15.8191H25H16.7002V14.1591V12.499H25H33.2997V14.1591ZM48.3369 33.9322C48.3369 45.8919 48.3323 46.1985 48.1443 46.6931C47.8924 47.3562 47.3525 47.8986 46.7017 48.142C46.1879 48.3343 45.9195 48.3367 25 48.3367C4.08044 48.3367 3.81211 48.3343 3.29831 48.142C2.64751 47.8986 2.10754 47.3562 1.85562 46.6931C1.66765 46.1985 1.66306 45.8919 1.66306 33.9322V21.6782H25H48.3369V33.9322ZM5.5945 24.2255C5.01372 24.3985 4.96929 24.6214 5.00239 27.1926C5.03149 29.4549 5.03383 29.4771 5.26847 29.7266L5.50526 29.9784H8.32434H11.1434L11.383 29.7387L11.6228 29.4991V27.0704V24.6417L11.3709 24.4049L11.1192 24.1682L8.51484 24.1497C7.06404 24.1394 5.77055 24.1729 5.5945 24.2255ZM16.433 24.2255C15.8522 24.3985 15.8078 24.6214 15.8409 27.1926C15.87 29.4549 15.8723 29.4771 16.107 29.7266L16.3437 29.9784H19.1628H21.9819L22.2215 29.7387L22.4612 29.4991V27.0704V24.6417L22.2094 24.4049L21.9577 24.1682L19.3533 24.1497C17.9025 24.1394 16.609 24.1729 16.433 24.2255ZM28.1734 24.1893C28.066 24.2153 27.8793 24.3277 27.7584 24.4391C27.5419 24.6388 27.5387 24.6769 27.5387 27.0704V29.4991L27.7784 29.7387L28.0181 29.9784H30.8371H33.6562L33.893 29.7266C34.1276 29.4771 34.13 29.4549 34.1591 27.1926C34.1928 24.5737 34.1551 24.3988 33.5192 24.2221C33.1587 24.1221 28.5682 24.0938 28.1734 24.1893ZM39.0119 24.1893C38.9045 24.2153 38.7178 24.3277 38.5969 24.4391C38.3804 24.6388 38.3772 24.6769 38.3772 27.0704V29.4991L38.6169 29.7387L38.8565 29.9784H41.6756H44.4947L44.7315 29.7266C44.9661 29.4771 44.9685 29.4549 44.9976 27.1926C45.0313 24.5737 44.9936 24.3988 44.3577 24.2221C43.9972 24.1221 39.4067 24.0938 39.0119 24.1893ZM9.9628 27.0978V28.3184H8.30285H6.64291V27.0978V25.8771H8.30285H9.9628V27.0978ZM20.8013 27.0978V28.3184H19.1413H17.4814V27.0978V25.8771H19.1413H20.8013V27.0978ZM32.5186 27.0978V28.3184H30.8586H29.1987V27.0978V25.8771H30.8586H32.5186V27.0978ZM43.3571 27.0978V28.3184H41.6971H40.0372V27.0978V25.8771H41.6971H43.3571V27.0978ZM5.26847 32.7692C5.03383 33.0187 5.03149 33.0409 5.00239 35.3032C4.96831 37.9503 5.0021 38.0998 5.67516 38.2811C5.93089 38.3499 6.97519 38.3775 8.59618 38.3579C11.1129 38.3277 11.1198 38.327 11.3709 38.0908L11.6228 37.854V35.4254V32.9967L11.383 32.7571L11.1434 32.5174H8.32434H5.50526L5.26847 32.7692ZM16.107 32.7692C15.8723 33.0187 15.87 33.0409 15.8409 35.3032C15.8068 37.9503 15.8406 38.0998 16.5136 38.2811C16.7694 38.3499 17.8137 38.3775 19.4347 38.3579C21.9513 38.3277 21.9583 38.327 22.2094 38.0908L22.4612 37.854V35.4254V32.9967L22.2215 32.7571L21.9819 32.5174H19.1628H16.3437L16.107 32.7692ZM27.7784 32.7571L27.5387 32.9967V35.4254V37.854L27.7906 38.0908C28.0417 38.327 28.0486 38.3277 30.5653 38.3579C32.1863 38.3775 33.2306 38.3499 33.4863 38.2811C34.1594 38.0998 34.1932 37.9503 34.1591 35.3032C34.13 33.0409 34.1276 33.0187 33.893 32.7692L33.6562 32.5174H30.8371H28.0181L27.7784 32.7571ZM38.6169 32.7571L38.3772 32.9967V35.4254V37.854L38.629 38.0908C38.8802 38.327 38.8871 38.3277 41.4038 38.3579C43.0248 38.3775 44.0691 38.3499 44.3248 38.2811C44.9979 38.0998 45.0317 37.9503 44.9976 35.3032C44.9685 33.0409 44.9661 33.0187 44.7315 32.7692L44.4947 32.5174H41.6756H38.8565L38.6169 32.7571ZM9.9628 35.398V36.6187H8.30285H6.64291V35.398V34.1774H8.30285H9.9628V35.398ZM20.8013 35.398V36.6187H19.1413H17.4814V35.398V34.1774H19.1413H20.8013V35.398ZM32.5186 35.398V36.6187H30.8586H29.1987V35.398V34.1774H30.8586H32.5186V35.398ZM43.3571 35.398V36.6187H41.6971H40.0372V35.398V34.1774H41.6971H43.3571V35.398ZM31.7665 42.4196C30.8107 43.5728 29.9855 44.5191 29.9329 44.5224C29.8801 44.5256 29.4397 44.1326 28.954 43.6489L28.0709 42.7694L27.4897 43.3567L26.9085 43.944L28.1268 45.1707C28.7969 45.8453 29.4691 46.4629 29.6208 46.5432C30.204 46.8518 30.3189 46.7539 32.643 43.9679L34.806 41.3749L34.419 41.0384C34.2062 40.8534 33.9133 40.6166 33.7682 40.5124L33.5044 40.3227L31.7665 42.4196ZM41.7538 42.4289C40.7941 43.5836 39.9831 44.5284 39.9516 44.5284C39.9201 44.5284 39.4868 44.1225 38.9889 43.6266L38.0833 42.7248L37.4977 43.3104L36.9123 43.8959L38.2759 45.257C39.5002 46.4791 39.6737 46.6181 39.9756 46.6181C40.1606 46.6181 40.3894 46.5544 40.4841 46.4765C40.5788 46.3987 41.5345 45.2803 42.6078 43.9913C43.6811 42.7023 44.6157 41.5813 44.6846 41.5C44.7912 41.3744 44.717 41.2761 44.1883 40.8409C43.8464 40.5595 43.5515 40.3294 43.5328 40.3294C43.5142 40.3294 42.7136 41.2742 41.7538 42.4289ZM5.47313 40.943C5.0102 41.1773 4.97856 41.3751 5.0062 43.8667C5.03119 46.1302 5.03686 46.1884 5.25402 46.4056C5.47284 46.6244 5.51775 46.6283 8.13393 46.6568C9.59566 46.6729 10.8918 46.6607 11.0143 46.63C11.1369 46.5992 11.3239 46.4873 11.4299 46.3813C11.6114 46.1997 11.6228 46.048 11.6228 43.804C11.6228 42.4925 11.5954 41.3484 11.5621 41.2615C11.4098 40.8645 11.0668 40.8175 8.33215 40.8191C6.42936 40.8201 5.64918 40.854 5.47313 40.943ZM16.3116 40.943C15.8487 41.1773 15.8171 41.3751 15.8447 43.8667C15.8697 46.1302 15.8753 46.1884 16.0925 46.4056C16.3113 46.6244 16.3562 46.6283 18.9724 46.6568C20.4341 46.6729 21.728 46.6613 21.8476 46.6313C21.9674 46.6012 22.1543 46.481 22.2632 46.3641C22.4512 46.1623 22.461 46.0298 22.4581 43.7531C22.4549 41.238 22.4432 41.1653 22.0039 40.9312C21.6926 40.7655 16.6418 40.7759 16.3116 40.943ZM9.9628 43.7472V45.0166H8.30285H6.64291V43.7472V42.4777H8.30285H9.9628V43.7472ZM20.8013 43.7472V45.0166H19.1413H17.4814V43.7472V42.4777H19.1413H20.8013V43.7472Z" fill="#1E3BD2"/>
</svg>
