<svg width="50" height="50" viewBox="0 0 50 50" fill="none" xmlns="http://www.w3.org/2000/svg">
<path fill-rule="evenodd" clip-rule="evenodd" d="M23.9725 0.0979089C22.496 0.493891 21.476 1.31599 18.9591 4.13885C18.5707 4.57446 17.9892 5.12905 17.6668 5.37122C16.8296 6.00036 16.4011 6.05721 13.112 5.976C10.2052 5.90428 9.56619 5.9715 8.49506 6.46161C7.76235 6.79693 6.85784 7.68253 6.49594 8.41882C5.95636 9.51704 5.88304 10.1565 5.95646 13.1282C6.03771 16.4159 5.98084 16.8441 5.3514 17.681C5.10912 18.0032 4.55427 18.5844 4.11846 18.9727C0.751606 21.9718 0 23.0739 0 25.0111C0 26.9533 0.707457 27.9896 4.12453 31.0525C4.55936 31.4423 5.11245 32.0236 5.35355 32.3442C5.98054 33.1777 6.03761 33.609 5.95646 36.894C5.88471 39.7995 5.95196 40.4382 6.44229 41.5088C6.77777 42.2412 7.66378 43.1453 8.4004 43.507C9.49913 44.0464 10.1388 44.1197 13.112 44.0463C16.4382 43.9642 16.8139 44.0163 17.6952 44.6832C18.0403 44.9443 18.6248 45.5 18.994 45.9181C21.8923 49.1993 23.0703 50 25.0003 50C26.9431 50 27.9909 49.2904 30.9586 45.9648C31.3551 45.5204 31.9616 44.9434 32.3062 44.6826C33.1867 44.0164 33.5631 43.9642 36.8887 44.0463C39.7955 44.118 40.4345 44.0508 41.5056 43.5607C42.2509 43.2196 43.1152 42.366 43.494 41.5968C44.0354 40.4976 44.113 39.8083 44.0453 36.7037C43.9755 33.5081 44.0251 33.1515 44.6566 32.3154C44.8758 32.0252 45.4409 31.4409 45.9124 31.0168C48.4956 28.6936 49.2933 27.7658 49.7722 26.5277C49.9522 26.0622 49.9994 25.7482 50 25.0111C50.0015 23.0749 49.2498 21.9725 45.8822 18.9727C45.4464 18.5844 44.8916 18.0032 44.6493 17.681C44.0198 16.8441 43.963 16.4159 44.0442 13.1282C44.0993 10.8971 44.085 10.3657 43.9532 9.74718C43.5275 7.74916 42.282 6.50926 40.2605 6.07091C39.6501 5.93853 39.1016 5.92346 36.7472 5.97414C33.4375 6.04547 33.1679 6.00555 32.2635 5.30996C31.9363 5.0584 31.3687 4.51497 31.002 4.10235C28.8151 1.64133 27.6593 0.647411 26.5177 0.246341C25.7876 -0.0102109 24.6278 -0.0778224 23.9725 0.0979089ZM25.6445 3.27927C26.1745 3.51987 27.1477 4.44197 28.2768 5.77375C29.5127 7.23117 30.5693 8.11658 31.6669 8.61471C32.6876 9.07791 33.5887 9.16891 36.8544 9.13867C39.6985 9.11245 39.8459 9.12008 40.17 9.3103C40.8283 9.69689 40.9082 9.97408 40.9027 11.8509C40.9 12.7657 40.8834 14.0866 40.8658 14.7862C40.7882 17.8771 41.557 19.4575 44.2466 21.7361C46.0984 23.3049 46.9236 24.3145 46.9236 25.0111C46.9236 25.7078 46.0984 26.7174 44.2466 28.2861C42.7885 29.5214 41.9027 30.5775 41.4043 31.6746C40.9423 32.6917 40.852 33.5853 40.8811 36.8541C40.9064 39.7015 40.8987 39.85 40.7084 40.1738C40.5988 40.3602 40.3565 40.6024 40.17 40.712C39.8106 40.9229 38.9513 40.9521 35.132 40.8829C33.0258 40.8448 31.869 41.1357 30.6291 42.0157C29.7356 42.6497 29.2077 43.1509 28.2768 44.2485C26.7074 46.0995 25.6973 46.9243 25.0003 46.9243C24.3034 46.9243 23.2933 46.0995 21.7238 44.2485C20.0634 42.2904 18.7145 41.3412 17.126 41.0132C16.4955 40.8831 15.8143 40.8601 13.2651 40.8831C10.3012 40.9099 10.1555 40.9027 9.83069 40.712C9.64421 40.6024 9.40193 40.3602 9.29229 40.1738C9.10199 39.8499 9.09435 39.7025 9.12059 36.8598C9.16229 32.3665 9.00038 31.7714 7.14094 29.5826C6.92245 29.3255 6.29095 28.7351 5.73758 28.2707C3.94441 26.7659 3.0771 25.7032 3.0771 25.0111C3.0771 24.3145 3.90232 23.3049 5.75412 21.7361C7.21221 20.5008 8.09802 19.4448 8.59638 18.3476C9.0598 17.3274 9.15084 16.4267 9.12059 13.1625C9.09435 10.3198 9.10199 10.1724 9.29229 9.84845C9.40193 9.66205 9.64421 9.41988 9.83069 9.3103C10.155 9.11989 10.3018 9.11235 13.1735 9.13897C15.8435 9.16372 16.2815 9.14542 17.1178 8.97468C18.7773 8.63584 20.1151 7.68664 21.8902 5.58873C23.3208 3.89785 24.3196 3.09796 25.0003 3.09796C25.1349 3.09796 25.4248 3.17957 25.6445 3.27927ZM17.5716 14.2071C15.0896 14.8743 13.554 17.443 14.1864 19.8701C14.8413 22.3833 17.4074 23.9336 19.857 23.2958C22.3639 22.6431 23.9221 20.0758 23.288 17.6427C22.6272 15.1066 20.0307 13.546 17.5716 14.2071ZM32.2443 15.7259C32.1097 15.7783 28.3542 19.4631 23.8987 23.9142C18.1559 29.6514 15.7671 32.1003 15.6921 32.3272C15.5132 32.8684 15.6678 33.3982 16.1435 33.8736C16.6228 34.3528 17.0842 34.4905 17.6435 34.3217C17.9282 34.2357 19.6626 32.551 26.1441 26.0654C34.9218 17.2823 34.5311 17.7191 34.349 16.8903C34.2693 16.5276 33.7981 15.9607 33.4093 15.7597C33.0984 15.5989 32.6061 15.5847 32.2443 15.7259ZM19.3549 17.3169C20.3606 17.737 20.6058 19.055 19.8237 19.8368C19.1887 20.4715 18.282 20.4715 17.647 19.8368C16.4365 18.6268 17.7722 16.656 19.3549 17.3169ZM30.1016 26.7314C27.6196 27.3986 26.084 29.9673 26.7165 32.3944C27.3714 34.9076 29.9375 36.4578 32.387 35.8201C34.894 35.1673 36.4521 32.6001 35.8181 30.1669C35.1572 27.6309 32.5607 26.0703 30.1016 26.7314ZM31.8849 29.8412C32.8906 30.2613 33.1359 31.5792 32.3537 32.3611C31.2539 33.4604 29.4516 32.4758 29.741 30.9336C29.914 30.0125 30.9865 29.466 31.8849 29.8412Z" fill="#C915B7"/>
</svg>
