<svg width="50" height="44" viewBox="0 0 50 44" fill="none" xmlns="http://www.w3.org/2000/svg">
<path fill-rule="evenodd" clip-rule="evenodd" d="M1.07861 0.245179C0.841978 0.372757 0.516608 0.668408 0.355534 0.902017L0.0626724 1.32674L0.0356315 6.19153C0.00976206 10.8435 0.0166931 11.0665 0.193874 11.2901C0.450324 11.6137 1.04025 11.6155 1.29552 11.2934C1.46812 11.0757 1.47817 10.8084 1.47817 6.45117C1.47817 2.11006 1.48862 1.82977 1.65672 1.67436C1.8216 1.52185 3.40061 1.50928 22.3903 1.50928C42.3281 1.50928 42.9521 1.50369 43.1708 1.32265C43.4843 1.06331 43.4843 0.459038 43.1708 0.199694C42.9521 0.0186527 42.3243 0.013067 22.227 0.013067H1.50892L1.07861 0.245179ZM45.1653 0.251364C44.8537 0.569758 44.8513 0.950095 45.159 1.2644C45.3911 1.5017 45.442 1.50928 46.8034 1.50928C48.0404 1.50928 48.2275 1.53102 48.3697 1.69172C48.5171 1.8581 48.5313 2.55134 48.5313 9.60619C48.5313 16.9701 48.5228 17.3461 48.3527 17.5033C48.1889 17.6548 47.2772 17.6684 37.2366 17.6684H26.299L26.2301 16.9533C26.1327 15.944 25.8557 15.261 25.3146 14.6961C24.6223 13.9734 24.0606 13.7338 23.0523 13.7308C22.3403 13.7287 22.1444 13.7676 21.6718 14.0047C21.0273 14.3281 20.3825 15.0025 20.105 15.6437C19.9893 15.9108 19.8866 16.4214 19.8556 16.8832L19.8029 17.6684H10.8021C2.20623 17.6684 1.79407 17.6602 1.63973 17.4859C1.5015 17.3299 1.47817 17.0339 1.47817 15.4366C1.47817 13.5874 1.47593 13.5674 1.23851 13.3249C0.930715 13.0103 0.558683 13.013 0.24659 13.3319L0 13.5838L0.0313362 15.7085C0.0624772 17.8223 0.0640391 17.8354 0.324588 18.2372C0.468579 18.4595 0.754119 18.7478 0.959122 18.878L1.33174 19.1147L10.5813 19.1417L19.8308 19.1685V23.552C19.8308 28.7104 19.9157 28.3806 18.7456 27.7732C18.1009 27.4385 17.9655 27.4053 17.2499 27.4071C15.8285 27.4105 14.7453 28.0834 14.1992 29.3021C13.9798 29.7918 13.9554 29.9546 13.9945 30.6707C14.0457 31.6103 14.2821 32.2636 14.9073 33.1936C15.6088 34.2368 18.8588 38.3247 19.4264 38.8775L19.9644 39.4015L20.0233 40.9286C20.088 42.5985 20.1478 42.8071 20.7255 43.3732C21.3817 44.0165 21.2345 44.0019 27.076 43.9995C32.99 43.9971 32.7921 44.019 33.4683 43.2907C33.9937 42.725 34.0834 42.3704 34.0834 40.8597C34.0834 39.3313 34.1393 39.1228 34.7488 38.3732C35.275 37.7261 35.6904 36.9134 35.8812 36.1572C36.0942 35.3128 36.1019 31.0477 35.8919 30.2411C35.4003 28.3537 33.898 26.7526 32.0334 26.1289C31.4698 25.9403 31.1125 25.9115 28.8363 25.8714L26.2738 25.8262V22.4971V19.1679L37.4829 19.1413L48.6921 19.1147L49.0877 18.8471C49.3054 18.7 49.5877 18.4082 49.7151 18.1987L49.9468 17.818L49.9733 9.68359L50 1.54918L49.7707 1.1053C49.6446 0.861121 49.3544 0.526767 49.1259 0.362183L48.7105 0.0629407L47.0609 0.0314203L45.4113 0L45.1653 0.251364ZM4.35798 4.86578C3.91146 4.99476 3.91869 4.92813 3.91869 8.93718C3.91869 12.4418 3.93245 12.7625 4.08952 12.9071C4.5131 13.2971 5.41052 13.1815 5.58429 12.7146C5.63466 12.5793 5.67586 11.8852 5.67586 11.1723V9.876L6.03139 9.90703C6.38351 9.93765 6.39434 9.95241 7.1305 11.395C7.53943 12.1963 7.93392 12.9257 8.00713 13.0159C8.2669 13.3356 9.15378 13.1233 9.38251 12.6865C9.56135 12.3453 9.49409 12.1334 8.80801 10.876C8.13414 9.6407 8.13336 9.6385 8.34431 9.49108C9.17097 8.91354 9.56008 8.03217 9.44235 7.00407C9.3215 5.94884 8.79327 5.27784 7.87232 5.00942C7.4505 4.88653 4.67837 4.77322 4.35798 4.86578ZM10.8987 4.90728C10.3569 5.07236 10.3616 5.03585 10.3616 8.99833C10.3616 12.4527 10.3722 12.6721 10.5481 12.8944C10.7327 13.1275 10.7565 13.1302 12.939 13.1601L15.1436 13.1903L15.3883 12.9402C15.7106 12.6109 15.7127 12.1547 15.3935 11.8287C15.1597 11.5897 15.1174 11.5838 13.6363 11.5838H12.1188V10.6362V9.68858H13.0311C14.0784 9.68858 14.2665 9.57816 14.2665 8.96321C14.2665 8.42128 14.018 8.29211 12.9756 8.29211H12.1188V7.34451V6.39691H13.6738C14.9565 6.39691 15.2556 6.36948 15.382 6.24031C15.7511 5.86326 15.6747 5.15346 15.241 4.92922C14.955 4.7813 11.3715 4.76324 10.8987 4.90728ZM17.944 4.9375C16.8499 5.25271 16.2189 6.05428 16.2189 7.12926C16.2189 8.24852 16.688 8.86347 18.0696 9.55521C19.1539 10.0982 19.5343 10.3638 19.6418 10.653C19.7745 11.0093 19.6735 11.2638 19.3096 11.4905C18.7747 11.8239 18.0479 11.6922 17.3289 11.1318C16.8916 10.791 16.4821 10.8071 16.2255 11.1752C15.9023 11.6391 15.9588 12.0504 16.4055 12.4846C17.4321 13.4825 19.5859 13.527 20.6473 12.5724C21.1792 12.0941 21.405 11.5425 21.405 10.7219C21.405 9.51113 20.8435 8.78277 19.3559 8.06419C18.1848 7.49832 17.9761 7.33803 17.9761 7.00407C17.9761 6.35831 18.9417 6.10246 19.9285 6.48688C20.6223 6.7572 20.7509 6.75071 20.9952 6.43332C21.2109 6.15313 21.2582 5.70157 21.1027 5.40492C20.8532 4.92843 18.9521 4.64714 17.944 4.9375ZM22.8619 4.8996C22.2616 5.04902 22.2714 4.98129 22.2714 8.99833C22.2714 12.4527 22.2819 12.6721 22.4578 12.8944C22.6424 13.1275 22.6662 13.1302 24.8487 13.1601L27.0533 13.1903L27.298 12.9402C27.6203 12.6109 27.6224 12.1547 27.3032 11.8287C27.0694 11.5897 27.0271 11.5838 25.546 11.5838H24.0285V10.6362V9.68858H24.9408C25.9881 9.68858 26.1762 9.57816 26.1762 8.96321C26.1762 8.42128 25.9277 8.29211 24.8853 8.29211H24.0285V7.34451V6.39691H25.5718C27.3174 6.39691 27.4295 6.35911 27.5104 5.74346C27.5502 5.43953 27.5165 5.28841 27.3662 5.0987L27.17 4.85082L25.1844 4.83327C24.0923 4.82369 23.0471 4.85352 22.8619 4.8996ZM28.7458 4.86329C28.6289 4.89042 28.4856 4.97132 28.4274 5.04304C28.3543 5.13301 28.3294 6.37506 28.3471 9.05189L28.3726 12.9304L28.7763 13.073C29.128 13.1972 29.2285 13.1967 29.5573 13.0689L29.9346 12.9223L29.9615 11.4052L29.9885 9.88807H30.3682H30.7479L31.5006 11.3593C31.9146 12.1686 32.3204 12.9091 32.4025 13.0052C32.724 13.3811 33.7232 13.0399 33.8535 12.5097C33.9199 12.2391 33.7848 11.9215 32.9665 10.4243L32.5236 9.61397L32.901 9.35871C33.6561 8.8482 33.9767 7.88035 33.7778 6.71271C33.6799 6.13826 33.6132 6.0067 33.2135 5.59823C32.8808 5.25829 32.631 5.10169 32.2747 5.00972C31.7822 4.88264 29.1352 4.77272 28.7458 4.86329ZM41.8698 4.87227C41.3136 4.95845 41.3074 5.00423 41.3074 9.00152C41.3074 12.4528 41.3179 12.6721 41.4938 12.8944C41.6784 13.1275 41.7022 13.1302 43.8848 13.1601L46.0893 13.1903L46.3457 12.9284C46.5603 12.709 46.5927 12.6066 46.5446 12.2997C46.4422 11.6458 46.2707 11.5838 44.5668 11.5838H43.0645V10.6362V9.68858H43.9768C45.0078 9.68858 45.2122 9.57586 45.2122 9.0074C45.2122 8.44004 44.9497 8.29211 43.9431 8.29211H43.0645V7.34451V6.39691H44.6195C45.9023 6.39691 46.2013 6.36948 46.3277 6.24031C46.687 5.87314 46.606 5.14887 46.1807 4.92713C45.9542 4.80903 42.5564 4.76584 41.8698 4.87227ZM34.7668 4.97142C34.4855 5.07715 34.2787 5.3325 34.2787 5.57439C34.2787 5.80132 35.9466 11.511 36.2898 12.4587C36.3894 12.7338 36.543 12.9371 36.7232 13.0322C37.1146 13.2391 37.8744 13.2195 38.2374 12.9933C38.5196 12.8176 38.5906 12.6212 39.5811 9.27812C40.1564 7.33683 40.6264 5.64691 40.6255 5.52262C40.6223 5.02748 39.2996 4.64574 39.0755 5.07525C39.0254 5.17131 38.6702 6.4393 38.2863 7.89312C37.4589 11.0259 37.4916 10.91 37.4471 10.8645C37.4276 10.8448 37.0758 9.57327 36.6652 8.03915C36.2546 6.50504 35.8775 5.17131 35.8273 5.07525C35.7615 4.94907 35.6221 4.90289 35.3247 4.90858C35.0984 4.91287 34.8473 4.94119 34.7668 4.97142ZM7.44054 6.68847C7.66156 6.9143 7.72589 7.0707 7.72589 7.38202C7.72589 8.24493 7.42102 8.49161 6.35461 8.49161H5.67586V7.44426V6.39691H6.41553C7.10287 6.39691 7.17541 6.41756 7.44054 6.68847ZM31.8599 6.67401C32.0379 6.85595 32.0822 7.01165 32.0822 7.45563C32.0822 7.9395 32.0474 8.04085 31.8083 8.25092C31.5684 8.46168 31.4379 8.49161 30.7589 8.49161H29.9834V7.43398V6.37646L30.8105 6.41157C31.5144 6.4415 31.6707 6.4806 31.8599 6.67401ZM23.6073 15.2808C23.9813 15.4252 24.4149 15.8556 24.5774 16.2438C24.6853 16.5012 24.7119 17.5001 24.7119 21.2935C24.7119 23.8943 24.7404 26.1677 24.7751 26.3454C24.8099 26.5231 24.9826 26.8159 25.1589 26.9961L25.4795 27.3235L28.2927 27.3678C30.8121 27.4074 31.1656 27.4335 31.676 27.6169C33.032 28.1041 34.0317 29.1737 34.4216 30.5545C34.554 31.023 34.5766 31.5181 34.5518 33.3973C34.517 36.037 34.4462 36.3312 33.5808 37.4362C32.7132 38.5441 32.6814 38.6458 32.6224 40.4947C32.5725 42.0564 32.5607 42.1328 32.3398 42.3151C32.1197 42.497 31.8831 42.5055 27.0395 42.5055H21.9696L21.7301 42.2606C21.5025 42.0282 21.4904 41.9559 21.4904 40.8325C21.4904 39.1683 21.3567 38.7625 20.514 37.8712C19.4913 36.7893 16.057 32.3487 15.7666 31.7328C15.2785 30.6976 15.3504 29.9124 15.9856 29.3425C16.6323 28.7624 17.4226 28.7299 18.3219 29.2466C18.5927 29.4021 18.9945 29.5589 19.215 29.5949C19.9741 29.7189 20.7738 29.2553 21.1116 28.4951C21.2787 28.1192 21.291 27.706 21.293 22.3783C21.2952 16.3058 21.2976 16.2728 21.7626 15.7378C22.1635 15.2765 23.0362 15.0603 23.6073 15.2808Z" fill="#D33030"/>
</svg>
