<svg width="32" height="52" viewBox="0 0 32 52" fill="none" xmlns="http://www.w3.org/2000/svg">
<path d="M13.8191 10.0628C13.685 9.98457 13.5329 9.94336 13.3781 9.94336C13.2233 9.94336 13.0712 9.98457 12.9371 10.0628L11.5873 10.724C10.2642 11.3883 9.15036 12.4129 8.37105 13.6826C7.59173 14.9524 7.1778 16.4169 7.17578 17.9117V25.1076C7.17578 25.3443 7.26872 25.5714 7.43413 25.7388C7.59953 25.9062 7.82388 26.0002 8.0578 26.0002H8.93979V30.4648C8.93979 31.1752 9.21865 31.8565 9.71501 32.3589C10.2114 32.8612 10.8846 33.1434 11.5866 33.1434C12.2885 33.1434 12.9617 32.8612 13.4581 32.3589C13.9544 31.8565 14.2333 31.1752 14.2333 30.4648V10.8167C14.2336 10.6649 14.1957 10.5155 14.1231 10.3827C14.0505 10.2499 13.9456 10.1379 13.8184 10.0576L13.8191 10.0628ZM8.94054 17.9109C8.94068 16.7503 9.26013 15.6127 9.86312 14.6255C10.4661 13.6383 11.3288 12.8405 12.3546 12.3215L12.4693 12.268V24.2142H8.94054V17.9109ZM12.4693 30.4641C12.4693 30.7009 12.3763 30.928 12.2108 31.0955C12.0454 31.263 11.8209 31.3571 11.5869 31.3571C11.3529 31.3571 11.1285 31.263 10.963 31.0955C10.7975 30.928 10.7045 30.7009 10.7045 30.4641V25.9995H12.4693V30.4641Z" fill="#FDB32B" stroke="#FDB32B"/>
<path d="M20.4091 17.0725C20.643 17.0725 20.8674 16.9784 21.0328 16.8111C21.1982 16.6437 21.2911 16.4166 21.2911 16.1799V10.8227C21.2911 10.5858 21.1981 10.3587 21.0327 10.1912C20.8672 10.0238 20.6428 9.92969 20.4087 9.92969C20.1747 9.92969 19.9503 10.0238 19.7848 10.1912C19.6193 10.3587 19.5264 10.5858 19.5264 10.8227V16.1799C19.5264 16.4166 19.6193 16.6437 19.7847 16.8111C19.9501 16.9784 20.1745 17.0725 20.4084 17.0725H20.4091Z" fill="#FDB32B" stroke="#FDB32B"/>
<path d="M23.0563 30.4662V20.3052L23.8415 19.9034C24.1353 19.7554 24.3825 19.5274 24.5554 19.2451C24.7284 18.9628 24.8201 18.6373 24.8203 18.3051V10.8227C24.8203 10.5858 24.7273 10.3587 24.5619 10.1912C24.3964 10.0238 24.172 9.92969 23.9379 9.92969C23.7039 9.92969 23.4795 10.0238 23.314 10.1912C23.1485 10.3587 23.0556 10.5858 23.0556 10.8227V18.3051L21.7765 18.9565C21.6312 19.0308 21.509 19.1444 21.4234 19.2846C21.3378 19.4248 21.2922 19.5863 21.2916 19.7511V30.4662C21.2916 30.7031 21.1986 30.9302 21.0331 31.0977C20.8676 31.2651 20.6432 31.3592 20.4092 31.3592C20.1752 31.3592 19.9507 31.2651 19.7853 31.0977C19.6198 30.9302 19.5268 30.7031 19.5268 30.4662V19.7518C19.5262 19.587 19.4806 19.4256 19.395 19.2854C19.3094 19.1451 19.1872 19.0316 19.0418 18.9572L17.7628 18.3059V10.8234C17.7628 10.5866 17.6698 10.3595 17.5044 10.192C17.3389 10.0245 17.1144 9.93045 16.8804 9.93045C16.6464 9.93045 16.422 10.0245 16.2565 10.192C16.091 10.3595 15.998 10.5866 15.998 10.8234V18.3059C15.9983 18.638 16.09 18.9635 16.2629 19.2459C16.4358 19.5282 16.6831 19.7561 16.9769 19.9041L17.7621 20.306V30.4662C17.7621 31.1767 18.0409 31.858 18.5373 32.3603C19.0336 32.8626 19.7069 33.1448 20.4088 33.1448C21.1108 33.1448 21.784 32.8626 22.2803 32.3603C22.7767 31.858 23.0556 31.1767 23.0556 30.4662H23.0563Z" fill="#FDB32B" stroke="#FDB32B"/>
<path d="M26.5885 1H5.4115C4.83214 0.999901 4.25845 1.11531 3.72318 1.33965C3.18791 1.56398 2.70155 1.89283 2.29188 2.30743C1.88222 2.72202 1.55727 3.21423 1.3356 3.75594C1.11394 4.29766 0.999902 4.87826 1 5.46458V46.5354C0.999902 47.1217 1.11394 47.7023 1.3356 48.2441C1.55727 48.7858 1.88222 49.278 2.29188 49.6926C2.70155 50.1072 3.18791 50.436 3.72318 50.6604C4.25845 50.8847 4.83214 51.0001 5.4115 51H26.5885C27.1679 51.0001 27.7416 50.8847 28.2768 50.6604C28.8121 50.436 29.2985 50.1072 29.7081 49.6926C30.1178 49.278 30.4427 48.7858 30.6644 48.2441C30.8861 47.7023 31.0001 47.1217 31 46.5354V5.46458C31.0001 4.87826 30.8861 4.29766 30.6644 3.75594C30.4427 3.21423 30.1178 2.72202 29.7081 2.30743C29.2985 1.89283 28.8121 1.56398 28.2768 1.33965C27.7416 1.11531 27.1679 0.999901 26.5885 1ZM9.82748 2.78598H22.1792V3.6786C22.1792 3.91534 22.0863 4.14237 21.9209 4.30977C21.7555 4.47717 21.5311 4.57121 21.2972 4.57121H10.705C10.4711 4.57121 10.2467 4.47717 10.0813 4.30977C9.91592 4.14237 9.823 3.91534 9.823 3.6786L9.82748 2.78598ZM26.5885 49.2148H5.4115C4.86541 49.2131 4.33318 49.0406 3.88776 48.7209C3.44233 48.4011 3.1055 47.9498 2.92342 47.4288H29.0706C28.8885 47.9498 28.5517 48.4011 28.1063 48.7209C27.6608 49.0406 27.1286 49.2131 26.5825 49.2148H26.5885ZM29.2352 45.6436H2.76773V5.46458C2.76773 4.75417 3.04658 4.07286 3.54295 3.57053C4.03931 3.06819 4.71252 2.78598 5.41448 2.78598H8.06124V3.6786C8.06124 4.38901 8.34009 5.07032 8.83645 5.57265C9.33281 6.07499 10.006 6.3572 10.708 6.3572H21.295C21.997 6.3572 22.6702 6.07499 23.1665 5.57265C23.6629 5.07032 23.9417 4.38901 23.9417 3.6786V2.78598H26.5885C27.2905 2.78598 27.9637 3.06819 28.46 3.57053C28.9564 4.07286 29.2352 4.75417 29.2352 5.46458V45.6436Z" fill="#FDB32B" stroke="#FDB32B"/>
<path d="M19.5268 38.502C19.3228 38.5019 19.125 38.5734 18.9672 38.7044C18.8095 38.8353 18.7014 39.0176 18.6615 39.2201C18.6217 39.4227 18.6524 39.6329 18.7485 39.8151C18.8447 39.9972 19.0003 40.14 19.1888 40.2191C19.3773 40.2982 19.587 40.3087 19.7823 40.2488C19.9776 40.1889 20.1463 40.0624 20.2598 39.8907C20.3732 39.719 20.4243 39.5128 20.4043 39.3073C20.3844 39.1018 20.2946 38.9096 20.1504 38.7635C19.985 38.5961 19.7607 38.502 19.5268 38.502Z" fill="#FDB32B" stroke="#FDB32B"/>
<path d="M12.4692 38.502C12.2652 38.5019 12.0674 38.5734 11.9096 38.7044C11.7518 38.8353 11.6438 39.0176 11.6039 39.2201C11.564 39.4227 11.5948 39.6329 11.6909 39.8151C11.7871 39.9972 11.9426 40.14 12.1311 40.2191C12.3196 40.2982 12.5294 40.3087 12.7247 40.2488C12.92 40.1889 13.0887 40.0624 13.2021 39.8907C13.3156 39.719 13.3666 39.5128 13.3467 39.3073C13.3268 39.1018 13.237 38.9096 13.0927 38.7635C12.9274 38.5961 12.7031 38.502 12.4692 38.502Z" fill="#FDB32B" stroke="#FDB32B"/>
<path d="M15.9985 38.502C15.7945 38.5019 15.5967 38.5734 15.4389 38.7044C15.2811 38.8353 15.1731 39.0176 15.1332 39.2201C15.0933 39.4227 15.1241 39.6329 15.2202 39.8151C15.3164 39.9972 15.4719 40.14 15.6604 40.2191C15.8489 40.2982 16.0587 40.3087 16.254 40.2488C16.4493 40.1889 16.618 40.0624 16.7314 39.8907C16.8449 39.719 16.8959 39.5128 16.876 39.3073C16.8561 39.1018 16.7663 38.9096 16.622 38.7635C16.4567 38.5961 16.2324 38.502 15.9985 38.502Z" fill="#FDB32B" stroke="#FDB32B"/>
<path d="M23.6831 36.9719C23.5157 36.8105 23.2926 36.7218 23.0614 36.7247C22.8303 36.7275 22.6094 36.8217 22.4459 36.9872C22.2825 37.1526 22.1894 37.3761 22.1866 37.6101C22.1838 37.844 22.2714 38.0698 22.4309 38.2392L23.578 39.3912L22.4309 40.5431C22.2714 40.7125 22.1838 40.9383 22.1866 41.1722C22.1894 41.4062 22.2825 41.6297 22.4459 41.7951C22.6094 41.9606 22.8303 42.0548 23.0614 42.0576C23.2926 42.0605 23.5157 41.9717 23.6831 41.8104L25.4478 40.0244C25.5306 39.9415 25.5962 39.8428 25.641 39.7341C25.6859 39.6253 25.7089 39.5086 25.7089 39.3908C25.7089 39.2729 25.6859 39.1563 25.641 39.0475C25.5962 38.9387 25.5306 38.8401 25.4478 38.7571L23.6831 36.9719Z" fill="#FDB32B" stroke="#FDB32B"/>
<path d="M9.56716 36.9713C9.48522 36.8875 9.38768 36.8211 9.28021 36.7757C9.17274 36.7304 9.05747 36.707 8.94103 36.707C8.82459 36.707 8.70931 36.7304 8.60184 36.7757C8.49437 36.8211 8.39686 36.8875 8.31492 36.9713L6.55017 38.7573C6.46744 38.8402 6.40177 38.9389 6.35696 39.0476C6.31214 39.1564 6.28906 39.2731 6.28906 39.3909C6.28906 39.5087 6.31214 39.6254 6.35696 39.7342C6.40177 39.8429 6.46744 39.9416 6.55017 40.0246L8.31492 41.8105C8.48232 41.9719 8.70542 42.0606 8.93657 42.0578C9.16772 42.0549 9.3886 41.9607 9.55206 41.7953C9.71552 41.6299 9.80861 41.4063 9.81143 41.1724C9.81425 40.9384 9.72658 40.7127 9.56716 40.5432L8.41995 39.3913L9.56716 38.2393C9.64988 38.1564 9.71555 38.0577 9.76037 37.949C9.80518 37.8402 9.82825 37.7235 9.82825 37.6057C9.82825 37.4879 9.80518 37.3712 9.76037 37.2624C9.71555 37.1536 9.64988 37.055 9.56716 36.972V36.9713Z" fill="#FDB32B" stroke="#FDB32B"/>
</svg>
