<svg width="50" height="50" viewBox="0 0 50 50" fill="none" xmlns="http://www.w3.org/2000/svg">
<path fill-rule="evenodd" clip-rule="evenodd" d="M12.5609 0.139795C10.5811 0.535995 8.85915 1.42609 7.42723 2.79354C5.837 4.31206 4.88075 5.98175 4.3644 8.1418C4.17139 8.94887 4.15731 9.33178 4.11771 14.8086C4.09043 18.5887 4.11302 21.0039 4.18244 21.7203C4.42835 24.2588 5.43407 26.4237 7.18621 28.1861C11.3313 32.3556 17.9874 32.2612 22.0009 27.9759C23.413 26.4682 24.2897 24.7402 24.6717 22.7119C24.7941 22.0616 24.8194 20.8342 24.8183 15.561C24.8171 9.73093 24.8017 9.12033 24.6344 8.30863C24.2198 6.29572 23.317 4.5951 21.8863 3.13193C20.2628 1.47149 18.5802 0.554806 16.3864 0.135659C15.4308 -0.04693 13.4835 -0.0448618 12.5609 0.139795ZM16.042 2.19446C19.347 2.83136 21.9173 5.41291 22.6199 8.80105C22.7363 9.36211 22.7632 10.6189 22.7646 15.5537C22.7657 19.3625 22.728 21.8343 22.6635 22.2013C22.1854 24.9212 20.4088 27.2535 17.9403 28.4023C16.7102 28.9747 15.7014 29.1664 14.2109 29.111C12.7161 29.0554 12.0927 28.9041 10.8691 28.2995C8.77184 27.2633 7.31381 25.5457 6.52348 23.1797L6.29313 22.4903L6.26379 15.9175C6.23544 9.59483 6.24189 9.31267 6.43314 8.50156C7.45802 4.15518 11.7155 1.3606 16.042 2.19446ZM0.620081 9.43578C0.512528 9.48019 0.336532 9.61492 0.228979 9.73527C0.0387071 9.94819 0.0327428 10.1126 0.00673443 15.7751C-0.0230872 22.2464 0.0258985 23.0316 0.575789 24.9111C0.943915 26.1692 1.75741 27.9057 2.50471 29.0289C3.24643 30.1437 4.70055 31.663 5.86193 32.5365C7.2879 33.6092 9.22004 34.5346 11.0332 35.0132L11.3754 35.1036V39.4331V43.7628L9.37101 43.8123C7.52168 43.8581 7.33414 43.8794 6.94666 44.0875C6.29977 44.4348 5.78596 44.9565 5.48736 45.5689C5.13038 46.301 5.1032 47.4492 5.42595 48.1573C5.70999 48.7803 6.27885 49.3891 6.87157 49.7041L7.3666 49.9673L14.2888 49.9944C18.8565 50.0124 21.3394 49.9868 21.5885 49.9192C22.1376 49.7703 22.8566 49.2463 23.2244 48.7272C23.6259 48.1601 23.8826 47.1987 23.7973 46.5807C23.7043 45.9064 23.2114 44.9572 22.7455 44.5556C22.0033 43.9157 21.5421 43.812 19.4382 43.812H17.5842V39.4513V35.0906L18.293 34.9084C22.1276 33.9228 25.6483 31.0049 27.4535 27.3166C28.0786 26.0394 28.4365 24.9948 28.7525 23.5244C28.9404 22.6502 28.9565 22.1832 28.9964 16.4189C29.0346 10.9092 29.0225 10.2165 28.8832 9.94523C28.7168 9.62103 28.2849 9.34271 27.9484 9.34271C27.6415 9.34271 27.2233 9.59128 27.0927 9.85138C27.0088 10.0184 26.9675 11.7386 26.9419 16.1381C26.9032 22.7809 26.8962 22.8705 26.2761 24.7729C25.1166 28.3299 22.261 31.3028 18.7721 32.5854C17.3611 33.104 16.1526 33.3055 14.4553 33.305C12.8017 33.3045 12.0171 33.1796 10.5237 32.6795C6.90217 31.4666 3.93272 28.4805 2.73253 24.8445C2.09835 22.9235 2.11038 23.0749 2.04692 16.2038L1.98894 9.91726L1.66961 9.62999C1.34655 9.33936 1.00669 9.27643 0.620081 9.43578ZM45.0056 15.1932C44.621 15.3619 44.3747 15.7465 44.3747 16.1784C44.3747 16.458 44.4941 16.6626 45.0229 17.2893C46.2176 18.7053 46.902 19.9008 47.3997 21.441C47.7956 22.6658 47.9365 23.6006 47.9365 25.0016C47.9365 27.9584 47.0455 30.3167 45.0229 32.714C44.467 33.3728 44.3747 33.5364 44.3747 33.8631C44.3747 34.1535 44.4431 34.3129 44.6632 34.5346C45.2817 35.1575 45.797 34.9998 46.7246 33.904C48.303 32.0396 49.2665 30.0866 49.7689 27.733C50.0772 26.2889 50.077 23.7137 49.7686 22.2687C49.268 19.9233 48.2228 17.8081 46.7022 16.0632C46.1699 15.4524 45.6482 15.0491 45.4029 15.0586C45.3483 15.0608 45.1695 15.1213 45.0056 15.1932ZM39.4784 17.2138C39.2487 17.4452 39.1926 17.5872 39.1926 17.9372C39.1926 18.332 39.2508 18.4393 39.8152 19.0854C40.9198 20.3497 41.6851 21.9851 41.9384 23.6229C42.0938 24.6272 41.9967 26.431 41.738 27.3481C41.3427 28.749 40.7609 29.8112 39.7369 31.0019C39.2755 31.5382 39.1926 31.6935 39.1926 32.0212C39.1926 32.5653 39.6954 33.0773 40.2297 33.0773C40.5575 33.0773 40.6729 33.004 41.1975 32.4618C42.3415 31.2795 43.2613 29.607 43.76 27.8027C44.0108 26.8951 44.0305 26.6905 44.0305 25.0016C44.0305 23.3127 44.0108 23.1082 43.76 22.2006C43.2613 20.3962 42.3415 18.7238 41.1975 17.5415C40.6499 16.9756 40.5682 16.926 40.1831 16.926C39.8505 16.926 39.7053 16.9852 39.4784 17.2138ZM34.2963 20.3653C33.8317 20.8332 33.8915 21.2637 34.5405 22.1266C35.1883 22.9877 35.4798 23.7343 35.5475 24.7062C35.6338 25.941 35.3011 26.9386 34.4604 27.9674C34.0888 28.4219 34.0105 28.5876 34.0105 28.9187C34.0105 29.497 34.4464 29.9258 35.0341 29.9258C35.4241 29.9258 35.4971 29.8812 35.9972 29.3371C38.0466 27.1074 38.1706 23.3338 36.2723 20.9638C35.655 20.1929 35.4912 20.0774 35.0153 20.0774C34.6669 20.0774 34.5262 20.1338 34.2963 20.3653ZM15.5309 39.6265V43.812H14.5042H13.4776V39.6265V35.4409H14.5042H15.5309V39.6265ZM21.2715 46.0738C21.8297 46.4166 21.8674 47.2665 21.3448 47.7268L21.0931 47.9484H14.5003H7.9075L7.60919 47.6775C7.21437 47.319 7.13937 46.832 7.41148 46.3938C7.52187 46.2159 7.71097 46.0304 7.83162 45.9815C7.95375 45.9321 10.9121 45.89 14.5042 45.8868C20.7449 45.8811 20.9678 45.8873 21.2715 46.0738Z" fill="#BA352C"/>
</svg>
