<svg width="44" height="50" viewBox="0 0 44 50" fill="none" xmlns="http://www.w3.org/2000/svg">
<path fill-rule="evenodd" clip-rule="evenodd" d="M34.2174 0.137774C32.5587 0.442506 31.1684 1.18021 29.9047 2.42609C28.924 3.39303 28.2534 4.44171 27.8874 5.58103C27.3 7.40932 27.3032 8.54962 27.9028 10.9858C27.9457 11.16 27.0768 11.7215 21.2532 15.2833C17.5687 17.5368 14.5193 19.3941 14.4767 19.4108C14.4341 19.4276 14.0513 19.1527 13.626 18.8001C12.7174 18.0471 11.3906 17.3605 10.281 17.0693C9.22561 16.7923 7.33068 16.7736 6.32456 17.0299C3.81717 17.6691 1.6707 19.4203 0.678034 21.6367C0.158554 22.7967 0 23.5822 0 24.9965C0 26.4108 0.158554 27.1963 0.678034 28.3564C1.65132 30.5293 3.76801 32.2852 6.18153 32.9215C7.32573 33.2231 9.13639 33.2241 10.281 32.9237C11.3906 32.6326 12.7174 31.9459 13.626 31.1929C14.0513 30.8403 14.4341 30.5655 14.4767 30.5822C14.5193 30.5989 17.5687 32.4563 21.2532 34.7097C27.0768 38.2716 27.9457 38.8331 27.9028 39.0072C27.3014 41.451 27.3004 42.6571 27.8986 44.4329C28.3014 45.6284 28.8773 46.5327 29.8653 47.5206C31.2042 48.8595 32.653 49.6053 34.4859 49.899C38.6266 50.5625 42.6915 47.8921 43.7728 43.798C44.2273 42.0772 43.9871 39.8692 43.1671 38.2297C41.7435 35.3834 38.8827 33.6466 35.6516 33.6667C33.5125 33.6801 31.7016 34.3821 30.0991 35.8195L29.5686 36.2953L25.9089 34.0516C23.8961 32.8176 20.8471 30.9515 19.1335 29.9046C17.4199 28.8578 16.0081 27.9932 15.9963 27.9834C15.9844 27.9734 16.0595 27.6886 16.1632 27.3504C16.614 25.8801 16.614 24.1129 16.1632 22.6427C16.0595 22.3044 15.9844 22.0196 15.9963 22.0097C16.0081 21.9998 17.4199 21.1352 19.1335 20.0884C20.8471 19.0416 23.8961 17.1761 25.9089 15.9428L29.5686 13.7005L30.1839 14.2453C32.6999 16.4726 36.3465 16.9784 39.362 15.518C41.5371 14.4647 43.2059 12.4162 43.7744 10.1018C44.0654 8.91726 44.0647 7.30003 43.7728 6.19499C42.6642 1.99771 38.4914 -0.647494 34.2174 0.137774ZM37.142 3.17649C39.8579 3.9642 41.4824 6.67162 40.8438 9.34583C40.6189 10.2882 40.1537 11.0971 39.4204 11.8211C38.3039 12.9237 36.9267 13.4446 35.4043 13.3402C34.029 13.2458 32.9413 12.7553 31.9886 11.7998C29.9151 9.7203 30.0211 6.28319 32.2188 4.33203C32.7801 3.83371 33.4452 3.46774 34.2669 3.20511C34.9743 2.979 36.4117 2.96474 37.142 3.17649ZM9.96922 20.0955C11.4745 20.6285 12.6825 21.8355 13.2126 23.3361C13.5315 24.2389 13.5308 25.7575 13.2112 26.6569C12.6793 28.154 11.4651 29.37 9.9804 29.8925C9.1542 30.1833 7.80545 30.2443 6.96748 30.0289C4.60301 29.421 3.01104 27.399 3.01104 25.0039C3.01104 22.6445 4.50836 20.6755 6.81911 19.9963C7.62533 19.7592 9.15588 19.8075 9.96922 20.0955ZM36.9137 36.7664C38.8309 37.2127 40.3907 38.7489 40.8408 40.6338C41.4824 43.3221 39.8643 46.027 37.142 46.8165C36.441 47.0198 35.0555 47.019 34.3591 46.8149C32.531 46.279 31.2104 44.975 30.6677 43.1698C30.4659 42.4985 30.4622 41.2303 30.6597 40.4813C31.1635 38.5713 32.889 37.0126 34.8603 36.6868C35.4148 36.5951 36.3306 36.6306 36.9137 36.7664Z" fill="#FDB32B"/>
</svg>
