<svg width="46" height="50" viewBox="0 0 46 50" fill="none" xmlns="http://www.w3.org/2000/svg">
<path fill-rule="evenodd" clip-rule="evenodd" d="M13.6746 0.0613398C6.70025 0.589564 1.63653 2.5782 0.318018 5.30692L0 5.96507V24.9356V43.9061L0.313891 44.5557C0.717315 45.3905 1.29472 46.0393 2.20434 46.68C4.33604 48.1813 7.83712 49.2142 12.571 49.7382C14.0229 49.8989 19.8007 49.9047 21.0278 49.7466C21.8331 49.643 21.934 49.6492 22.2814 49.8243C22.6503 50.0102 22.9252 50.0141 33.8497 49.989C44.9826 49.9635 45.0415 49.9623 45.3051 49.7618C45.4508 49.651 45.6591 49.4388 45.7679 49.2904C45.9599 49.0285 45.9666 48.8894 45.9941 44.5549C46.0299 38.9182 45.928 38.0457 45.0004 36.0449C43.9446 33.7675 42.3784 32.0885 40.254 30.9566C39.7274 30.6761 39.2964 30.4231 39.2964 30.3946C39.2964 30.366 39.4584 30.1539 39.6563 29.9232C40.6919 28.7161 41.4076 26.7319 41.4076 25.068C41.4076 20.9711 38.3779 17.5772 34.3813 17.1971L33.7366 17.1358L33.7096 11.5503L33.6826 5.96478L33.3691 5.31611C32.1272 2.74665 27.8534 0.918348 21.3995 0.195571C19.7727 0.0134349 15.327 -0.0638972 13.6746 0.0613398ZM19.7982 3.18796C22.4559 3.38203 25.0469 3.84406 26.9243 4.45881C28.8993 5.10543 30.6598 6.20949 30.6598 6.80136C30.6598 7.1582 29.8545 7.87501 28.9308 8.34037C27.2476 9.18839 24.5584 9.90246 21.5914 10.2891C19.8988 10.5098 14.125 10.5416 12.523 10.339C9.19075 9.91781 6.87356 9.32252 4.95864 8.3959C4.00977 7.9368 3.0228 7.09934 3.0228 6.75345C3.0228 6.2091 4.84848 5.09105 6.76532 4.46155C10.1316 3.35612 15.2496 2.85595 19.7982 3.18796ZM3.6192 11.2591C5.53652 12.249 8.70912 13.0476 12.3791 13.4641C14.1812 13.6687 19.968 13.6388 21.7354 13.4159C25.3401 12.9612 27.8069 12.3397 29.9429 11.348L30.6598 11.0152L30.6595 13.4782C30.6591 16.2766 30.6528 16.3031 29.8689 16.8526C28.1321 18.07 25.1228 18.9473 21.0157 19.4336C19.3602 19.6295 13.969 19.5977 12.2351 19.3818C8.18805 18.8776 4.79023 17.7619 3.5267 16.5222L3.0228 16.0279V13.516C3.0228 12.1344 3.04583 11.0041 3.07395 11.0041C3.10216 11.0041 3.34744 11.1189 3.6192 11.2591ZM3.72131 20.4034C4.04959 20.5722 4.94444 20.9206 5.70974 21.1774C10.1961 22.6827 16.6618 23.1472 22.5511 22.3871C23.6406 22.2466 26.3202 21.7377 26.6497 21.6088C26.7757 21.5597 26.7607 21.6655 26.5637 22.2159C26.2501 23.0921 26.0537 24.1584 26.0537 24.9845C26.0537 25.6002 26.241 26.8665 26.3887 27.2485C26.4653 27.4469 25.9587 27.6114 24.0122 28.0202C21.5445 28.5384 20.3363 28.6485 17.1292 28.6477C14.1331 28.6469 12.7706 28.5542 10.6038 28.2034C6.94189 27.6105 3.93655 26.429 3.19141 25.2892C3.04334 25.0629 3.02395 24.7486 3.02347 22.5648C3.02309 21.2071 3.04564 20.0962 3.07356 20.0962C3.10139 20.0962 3.39293 20.2345 3.72131 20.4034ZM34.8302 20.4414C36.6528 20.9251 38.0047 22.463 38.2725 24.3576C38.7284 27.5812 35.7282 30.3365 32.6478 29.5233C30.1703 28.8694 28.6436 26.3198 29.2676 23.879C29.9124 21.3569 32.4261 19.8035 34.8302 20.4414ZM5.43605 30.1489C8.67362 31.2829 12.1057 31.7611 17.0812 31.7712C21.171 31.7796 22.9158 31.5688 26.4687 30.6374C27.5291 30.3595 28.0177 30.2703 28.0881 30.342C28.1584 30.4137 27.9752 30.5537 27.4811 30.8061C26.3485 31.3848 25.4909 32.0127 24.6154 32.9046C23.5045 34.0364 22.6297 35.4233 22.0717 36.9379C21.888 37.4366 21.8778 37.4423 20.9825 37.546C18.6954 37.8108 14.3406 37.7652 11.9427 37.4514C7.7732 36.9056 4.45494 35.7816 3.34955 34.5407L3.0228 34.1738V31.631V29.0882L3.68475 29.4277C4.04873 29.6145 4.83687 29.939 5.43605 30.1489ZM37.0907 33.0263C38.601 33.4713 39.6923 34.1054 40.6798 35.1114C41.3605 35.8049 42.0884 36.9086 42.3689 37.6722C42.8809 39.0662 42.8819 39.0768 42.9196 43.0954L42.9552 46.8838H41.4172H39.8793L39.8517 43.4691C39.8254 40.1957 39.816 40.0431 39.6263 39.7845C39.2503 39.2716 38.9436 39.1115 38.3368 39.1115C37.73 39.1115 37.4233 39.2716 37.0473 39.7845C36.8575 40.0431 36.8482 40.1957 36.8218 43.4691L36.7943 46.8838H33.7798H30.7652L30.7365 43.5354C30.708 40.2147 30.7059 40.1839 30.4822 39.8173C30.1765 39.3162 29.6046 39.0262 29.0486 39.09C28.5641 39.1456 28.2135 39.3759 27.9009 39.8438C27.6873 40.1635 27.685 40.2035 27.685 43.5254V46.8838H26.0955H24.5061L24.5416 43.0954C24.5793 39.0768 24.5804 39.0662 25.0923 37.6722C25.2047 37.3661 25.5074 36.7869 25.7648 36.385C26.8958 34.62 28.6848 33.3882 30.7558 32.9484C31.6766 32.7529 36.3582 32.8105 37.0907 33.0263ZM5.99762 39.3964C7.6759 39.9376 9.73265 40.3491 12.1602 40.6293C14.4863 40.8978 19.5778 40.9207 21.0876 40.6695L21.4475 40.6097V43.591V46.5722L20.5119 46.6548C19.0625 46.7824 14.0699 46.7528 12.7629 46.6087C8.75096 46.1663 5.54727 45.2425 3.80719 44.026C3.03086 43.4832 3.02357 43.4519 3.02319 40.6609L3.0228 38.2018L3.95843 38.6211C4.47298 38.8517 5.39066 39.2007 5.99762 39.3964Z" fill="#C915B7"/>
</svg>
