<svg width="50" height="50" viewBox="0 0 50 50" fill="none" xmlns="http://www.w3.org/2000/svg">
<path fill-rule="evenodd" clip-rule="evenodd" d="M22.7494 0.0591767C17.9268 0.531527 13.4497 2.31713 9.54171 5.32665C7.63574 6.79438 5.16056 9.55276 3.73017 11.8029C3.11243 12.7747 1.90991 15.2372 1.47913 16.4124C0.996895 17.7282 0.483836 19.7362 0.232101 21.2929C-0.0552474 23.0695 -0.0804894 26.7279 0.182693 28.435C0.622765 31.2885 1.31692 33.5209 2.54047 36.0172C4.5388 40.0939 7.4656 43.4226 11.2764 45.9525C13.4736 47.4112 16.8172 48.84 19.3744 49.413C21.5107 49.8916 22.5493 50 25 50C27.4507 50 28.4893 49.8916 30.6256 49.413C33.1828 48.84 36.5264 47.4112 38.7236 45.9525C42.5344 43.4226 45.4612 40.0939 47.4595 36.0172C48.6831 33.5209 49.3772 31.2885 49.8173 28.435C50.0805 26.7279 50.0552 23.0695 49.7679 21.2929C49.3324 18.6002 48.6404 16.4183 47.4562 14.0042C46.163 11.368 44.8183 9.49934 42.665 7.34598C40.5087 5.18978 38.6293 3.83779 36.0067 2.55634C33.5678 1.3646 31.3686 0.666052 28.7667 0.256805C27.3286 0.0306086 24.1174 -0.0748583 22.7494 0.0591767ZM28.62 2.40821C32.6461 3.07702 36.3041 4.71665 39.4351 7.25568C40.5984 8.19921 42.3897 10.0549 43.2577 11.2159C45.5642 14.3008 46.9565 17.5665 47.6167 21.4397C47.9302 23.2786 47.9302 26.7428 47.6167 28.5817C46.7918 33.4216 44.7627 37.4663 41.4413 40.8917C37.8983 44.5454 33.6705 46.7579 28.5711 47.6271C27.5057 47.8087 26.9259 47.8439 25 47.8439C22.4525 47.8439 21.2236 47.6931 19.0319 47.1119C12.8655 45.4766 7.44359 41.0456 4.54761 35.2746C3.48421 33.1557 2.80473 31.0543 2.38325 28.5817C2.06978 26.7428 2.06978 23.2786 2.38325 21.4397C2.81765 18.8912 3.51073 16.783 4.64427 14.5624C6.81048 10.319 10.4456 6.71152 14.7135 4.56989C17.2969 3.27347 20.2432 2.43688 23.1411 2.17683C24.2552 2.07684 27.4331 2.21098 28.62 2.40821ZM22.3584 4.91584C17.9561 5.50305 13.9172 7.5167 10.7115 10.7224C6.83984 14.5939 4.74768 19.6064 4.74768 25.0107C4.74768 30.4151 6.83984 35.4275 10.7115 39.299C14.5831 43.1706 19.5956 45.2627 25 45.2627C30.4044 45.2627 35.4169 43.1706 39.2885 39.299C43.1602 35.4275 45.2523 30.4151 45.2523 25.0107C45.2523 19.6064 43.1602 14.5939 39.2885 10.7224C36.0405 7.47444 32.0094 5.48329 27.5143 4.90684C26.108 4.72643 23.7474 4.73064 22.3584 4.91584ZM27.3692 7.06372C34.8119 8.09276 40.7354 13.3669 42.5544 20.5841C44.9974 30.2777 39.1177 40.1224 29.4266 42.5648C19.7329 45.0077 9.88805 39.1282 7.44564 29.4373C5.01918 19.8095 10.8243 9.99107 20.4231 7.48823C22.5467 6.93448 25.2427 6.76973 27.3692 7.06372ZM24.5317 11.559C24.0717 11.7588 23.9238 12.186 23.9238 13.3144C23.9238 14.3622 24.0038 14.2681 23.0012 14.3989C22.3404 14.485 20.8383 14.9864 20.3053 15.2988C19.3725 15.8453 18.5087 16.8526 18.1184 17.8486C17.843 18.5515 17.7401 19.5841 17.8628 20.412C18.2033 22.7102 19.918 24.2268 23.0677 25.0159L23.9238 25.2304V28.2532V31.2759L23.6547 31.2112C23.1942 31.1006 22.6506 30.7858 22.1853 30.3603C21.8474 30.0513 21.5998 29.6647 21.1715 28.7774C20.3771 27.1316 20.0669 26.8287 19.1787 26.8313C18.5531 26.8332 18.1225 27.0629 17.7841 27.5753C17.1056 28.6025 17.7574 30.6699 19.2189 32.1264C20.2045 33.1086 21.327 33.6482 23.1169 34.0004L23.9727 34.1688L23.9992 36.0903L24.0257 38.0119L24.3124 38.2986C24.47 38.4563 24.7061 38.6057 24.8369 38.6307C25.1956 38.6993 25.6905 38.4967 25.9203 38.1872C26.1086 37.9335 26.1277 37.7584 26.1569 36.0221L26.1887 34.133L26.76 34.0684C28.1332 33.9131 29.719 33.2605 30.7832 32.4129C31.4016 31.9203 32.1285 30.8944 32.4257 30.0948C33.0344 28.4568 32.8728 26.3615 32.0448 25.1581C31.1995 23.9295 29.8201 23.103 27.5193 22.4461L26.0762 22.0341V19.5534V17.0728L26.2963 17.1409C27.1393 17.4015 27.7713 18.0079 28.4043 19.1634C28.9628 20.1826 29.3677 20.5762 29.9473 20.6631C30.7465 20.7829 31.4373 20.4283 31.8106 19.7066C32.0836 19.1785 31.9576 18.1308 31.5293 17.3678C31.0417 16.4992 30.5828 15.9961 29.8083 15.4812C28.7516 14.7787 28.4078 14.6615 26.2963 14.2844C26.0863 14.2468 26.0762 14.2026 26.0762 13.3144C26.0762 12.1655 25.9299 11.7566 25.4469 11.5548C25.0298 11.3805 24.9414 11.3809 24.5317 11.559ZM23.9025 20.3611L23.8749 21.4837L23.0922 21.1455C22.0922 20.7133 21.4832 20.12 21.467 19.562C21.4405 18.6498 21.5596 18.3653 22.2058 17.7965C22.486 17.5499 22.8707 17.3376 23.2608 17.2147L23.8749 17.021L23.9025 18.1297C23.9176 18.7394 23.9176 19.7436 23.9025 20.3611ZM27.2013 26.226C28.4227 26.7949 28.9069 27.4034 28.9113 28.3747C28.9146 29.0841 28.7297 29.5746 28.264 30.0926C27.8487 30.5545 27.0329 31.0074 26.382 31.1377L26.0762 31.1988V28.4895V25.7802L26.2963 25.8437C26.4175 25.8785 26.8247 26.0506 27.2013 26.226Z" fill="#3DDD9A"/>
</svg>
