<svg width="43" height="54" viewBox="0 0 43 54" fill="none" xmlns="http://www.w3.org/2000/svg">
<path d="M21.5219 2.00094C26.1278 2.01167 30.5828 3.6445 34.1052 6.6129C37.6275 9.58129 39.9921 13.6956 40.784 18.2338C41.3447 21.7099 40.8073 25.2742 39.2468 28.4303C37.1335 32.8006 34.543 36.9234 31.5226 40.7235C28.6519 44.4762 25.5807 48.071 22.3223 51.4922C21.6805 52.1674 21.3738 52.1711 20.7345 51.4922C16.057 46.6165 11.7924 41.3607 7.98462 35.779C6.24094 33.1934 4.72363 30.4622 3.44957 27.6156C2.49424 25.5104 2 23.2251 2 20.9132C2 18.6013 2.49424 16.316 3.44957 14.2108C6.22281 7.63246 11.1935 3.65756 18.2223 2.29103C19.31 2.08644 20.4152 1.98927 21.5219 2.00094ZM21.2714 3.57238C19.8199 3.56008 18.3742 3.75588 16.9782 4.1538C10.7529 5.93634 6.53753 9.8847 4.44803 16.0162C3.18094 19.4659 3.28363 23.2702 4.73499 26.6466C5.6604 28.8155 6.75394 30.9087 8.00561 32.907C11.8921 38.9118 16.3227 44.5463 21.2411 49.7393C21.5059 50.0269 21.62 49.9436 21.8366 49.7103C25.1071 46.2099 28.1874 42.5365 31.0641 38.7058C33.7963 35.1848 36.1322 31.3733 38.0293 27.3403C39.4038 24.4222 39.7936 21.1365 39.1401 17.9777C38.2948 13.8761 36.0499 10.1962 32.79 7.56814C29.5301 4.9401 25.4581 3.52753 21.2714 3.57238Z" fill="#1992FB" stroke="#1992FB" stroke-width="3" stroke-miterlimit="10"/>
<path d="M21.7262 10.0002C24.0397 10.0043 26.3002 10.694 28.2221 11.9822C30.1441 13.2703 31.6413 15.0992 32.5249 17.2378C33.4084 19.3764 33.6386 21.7289 33.1863 23.9983C32.7341 26.2677 31.6197 28.3521 29.9839 29.9885C28.3481 31.6249 26.2642 32.7398 23.9954 33.1925C21.7265 33.6452 19.3745 33.4154 17.2361 32.532C15.0978 31.6486 13.2691 30.1514 11.9809 28.2292C10.6927 26.3071 10.0028 24.0463 9.99824 21.7323C9.9894 20.1893 10.2867 18.6599 10.8729 17.2326C11.4592 15.8053 12.3227 14.5086 13.4135 13.4174C14.5042 12.3262 15.8006 11.4623 17.2275 10.8758C18.6544 10.2892 20.1835 9.99158 21.7262 10.0002ZM21.7139 11.5574C19.7067 11.5544 17.7438 12.1469 16.0735 13.26C14.4032 14.3732 13.1005 15.9569 12.3304 17.8108C11.5603 19.6646 11.3573 21.7053 11.7471 23.6746C12.137 25.6439 13.1021 27.4533 14.5204 28.8738C15.9387 30.2942 17.7464 31.262 19.7148 31.6545C21.6832 32.0471 23.7237 31.8468 25.5783 31.079C27.4328 30.3112 29.0179 29.0104 30.1331 27.3413C31.2482 25.6721 31.8433 23.7096 31.8429 21.7021C31.8469 20.3699 31.5877 19.05 31.0803 17.8183C30.5728 16.5866 29.8271 15.4673 28.8859 14.5246C27.9447 13.582 26.8266 12.8346 25.5958 12.3254C24.365 11.8162 23.0458 11.5552 21.7139 11.5574Z" fill="#1992FB"/>
<path d="M21.7262 10.0002C24.0397 10.0043 26.3002 10.694 28.2221 11.9822C30.1441 13.2703 31.6413 15.0992 32.5249 17.2378C33.4084 19.3764 33.6386 21.7289 33.1863 23.9983C32.7341 26.2677 31.6197 28.3522 29.9839 29.9885C28.3481 31.6249 26.2642 32.7398 23.9954 33.1925C21.7265 33.6452 19.3745 33.4154 17.2361 32.532C15.0978 31.6486 13.2691 30.1514 11.9809 28.2292C10.6927 26.3071 10.0028 24.0463 9.99824 21.7323C9.9894 20.1893 10.2867 18.6599 10.8729 17.2326C11.4592 15.8053 12.3227 14.5086 13.4135 13.4174C14.5042 12.3262 15.8006 11.4623 17.2275 10.8758C18.6544 10.2892 20.1835 9.99158 21.7262 10.0002M21.7139 11.5574C19.7067 11.5544 17.7438 12.1469 16.0735 13.26C14.4032 14.3732 13.1005 15.9569 12.3304 17.8108C11.5603 19.6646 11.3573 21.7053 11.7471 23.6746C12.137 25.6439 13.1021 27.4533 14.5204 28.8738C15.9387 30.2942 17.7464 31.262 19.7148 31.6545C21.6832 32.0471 23.7237 31.8468 25.5783 31.079C27.4328 30.3112 29.0179 29.0104 30.1331 27.3413C31.2482 25.6721 31.8433 23.7096 31.8429 21.7021C31.8469 20.3699 31.5877 19.05 31.0803 17.8183C30.5728 16.5866 29.8271 15.4673 28.8859 14.5246C27.9447 13.582 26.8266 12.8346 25.5958 12.3254C24.365 11.8162 23.0458 11.5552 21.7139 11.5574" stroke="#1992FB"/>
<path d="M22.0466 28.2814C20.792 28.2814 19.5375 28.2845 18.2823 28.2814C17.5967 28.2814 17.3566 28.0413 17.3505 27.363C17.3449 26.6698 17.335 25.9755 17.356 25.283C17.3734 25.1566 17.3491 25.0279 17.2869 24.9166C17.2247 24.8052 17.1278 24.7171 17.0111 24.6657C16.3148 24.2782 15.7531 23.6877 15.4008 22.9728C15.0486 22.2579 14.9226 21.4526 15.0395 20.6642C15.1565 19.8759 15.5109 19.1419 16.0555 18.5601C16.6001 17.9783 17.3091 17.5764 18.0879 17.4078C18.19 17.3962 18.2878 17.36 18.3729 17.3024C18.458 17.2448 18.5279 17.1675 18.5766 17.077C18.909 16.4495 19.4061 15.9246 20.0145 15.5586C20.6229 15.1926 21.3196 14.9995 22.0296 15C22.7395 15.0005 23.4359 15.1946 24.0438 15.5615C24.6517 15.9283 25.148 16.454 25.4795 17.0819C25.5229 17.1662 25.5857 17.239 25.6628 17.2943C25.7398 17.3495 25.8288 17.3857 25.9226 17.3998C26.7305 17.559 27.4668 17.9714 28.0246 18.5772C28.5825 19.183 28.933 19.9508 29.0254 20.7692C29.12 21.5525 28.9767 22.3461 28.6141 23.0467C28.2516 23.7474 27.6866 24.3227 26.9926 24.6978C26.8971 24.7377 26.8168 24.8072 26.7636 24.8961C26.7104 24.9849 26.6871 25.0885 26.697 25.1916C26.7131 25.8705 26.7038 26.5452 26.702 27.2223C26.702 28.0703 26.4928 28.2814 25.6609 28.282C24.4568 28.2824 23.252 28.2822 22.0466 28.2814ZM22.0034 26.7112C22.8945 26.7112 23.7862 26.6877 24.676 26.7217C25.0852 26.7371 25.1747 26.5927 25.1537 26.2211C25.1247 25.7113 25.1463 25.1984 25.1475 24.6867C25.1475 23.8572 25.2234 23.7461 25.9837 23.4313C26.408 23.2847 26.7748 23.0069 27.0309 22.6381C27.287 22.2693 27.4193 21.8286 27.4086 21.3796C27.4341 21.0656 27.394 20.7497 27.2908 20.4519C27.1877 20.1542 27.0237 19.8812 26.8094 19.6503C26.5951 19.4194 26.335 19.2356 26.0458 19.1106C25.7567 18.9856 25.4446 18.9222 25.1296 18.9243C24.9066 18.9362 24.6868 18.8667 24.5112 18.7286C24.3356 18.5906 24.2161 18.3934 24.175 18.1738C24.0525 17.6891 23.7709 17.2595 23.3754 16.9538C22.9799 16.6481 22.4933 16.4839 21.9935 16.4876C21.4864 16.4753 20.9896 16.6317 20.5809 16.9321C20.1722 17.2326 19.8746 17.6602 19.7349 18.1479C19.6904 18.3737 19.5661 18.576 19.3849 18.7178C19.2036 18.8597 18.9775 18.9317 18.7476 18.9206C18.1803 18.9205 17.6335 19.1334 17.2157 19.5172C16.7979 19.9011 16.5394 20.4279 16.4915 20.9933C16.4341 21.5399 16.5717 22.0892 16.88 22.5442C17.1882 22.9992 17.6473 23.3307 18.1761 23.4801C18.4041 23.5233 18.6069 23.652 18.7431 23.8398C18.8794 24.0276 18.9388 24.2603 18.9093 24.4904C18.9 25.0842 18.9272 25.6798 18.9012 26.2724C18.8864 26.6087 18.9716 26.7303 19.3332 26.7198C20.2206 26.6952 21.1123 26.7118 22.0034 26.7112Z" fill="#1992FB" stroke="#1992FB" stroke-miterlimit="10"/>
</svg>
