<svg width="50" height="50" viewBox="0 0 50 50" fill="none" xmlns="http://www.w3.org/2000/svg">
<path fill-rule="evenodd" clip-rule="evenodd" d="M5.26592 0.285449L4.98047 0.570898V4.42412V8.27734L4.38564 8.32031L3.79082 8.36338L1.89541 10.2658L0 12.1683V13.6589C0 15.1574 0.0536133 15.4429 0.382129 15.6951C0.501172 15.7865 2.5335 15.8148 9.14981 15.8172L17.7625 15.8203L18.0365 15.5849C18.3096 15.3503 18.3106 15.3443 18.3426 13.9616C18.3602 13.1983 18.3459 12.4583 18.3108 12.3172C18.2396 12.031 14.9585 8.66475 14.5312 8.43965C14.3861 8.36328 14.0676 8.30078 13.8232 8.30078H13.3789V4.58672C13.3789 0.637109 13.3478 0.342285 12.9053 0.105469C12.7744 0.0354492 11.5063 0 9.12978 0H5.55137L5.26592 0.285449ZM21.6797 7.95186V15.9036L21.1553 16.1437C19.9652 16.6886 19.282 17.7099 19.1746 19.1044C19.1036 20.0267 19.16 20.3295 19.4532 20.6027C19.6566 20.7923 19.7878 20.8008 22.5111 20.8008C25.3398 20.8008 25.3578 20.7995 25.5641 20.58C25.6781 20.4585 25.7995 20.1839 25.8337 19.9696C25.9224 19.4145 25.7375 18.2397 25.4762 17.6981C25.1681 17.0596 24.4178 16.3526 23.8244 16.1419L23.3398 15.9698V7.98486V0H22.5098H21.6797V7.95186ZM27.5391 4.62539V9.25078L27.0979 9.41924C26.4796 9.65547 25.6498 10.4457 25.3266 11.1063C25.1131 11.5427 25.0502 11.8296 25.0174 12.5163C24.9707 13.491 25.0811 13.8814 25.4507 14.0498C25.6122 14.1234 26.6028 14.1602 28.427 14.1602H31.1612L31.4115 13.9099C31.6546 13.6668 31.6607 13.6294 31.6239 12.6159C31.5889 11.6513 31.5608 11.5255 31.2535 10.9537C30.8883 10.274 30.356 9.77988 29.6553 9.46992L29.1992 9.26816V4.63408V0H28.3691H27.5391V4.62539ZM11.6211 4.98047V8.30078H9.13086H6.64062V4.98047V1.66016H9.13086H11.6211V4.98047ZM15.2515 11.3972L16.6992 12.8334V13.4968V14.1602H9.17969H1.66016V13.5021V12.8441L3.09932 11.4025L4.53857 9.96094H9.17109H13.8037L15.2515 11.3972ZM33.8355 10.096C33.673 10.1675 33.4863 10.3441 33.4205 10.4887C33.3286 10.6903 33.3008 12.9837 33.3008 20.3659V29.9805H24.1791H15.0574L15.0238 28.5559L14.9902 27.1313L14.7132 26.8931C14.4439 26.6616 14.3971 26.6557 13.053 26.6819L11.6699 26.709L11.6416 27.5107L11.6133 28.3126L12.4717 28.3408L13.3301 28.3691L13.3584 29.1748L13.3868 29.9805H11.6738H9.96094V28.3203V26.6602H9.13086H8.30078V28.3203V29.9805H6.64062H4.98047V29.1504V28.3203H5.81055H6.64062V27.4902V26.6602H5.26592H3.89121L3.60576 26.9456L3.32031 27.2311V28.6058V29.9805H1.94561H0.570898L0.285449 30.2659L0 30.5514V39.9902V49.4291L0.285449 49.7146L0.570898 50H25H49.4291L49.7146 49.7146L50 49.4291V29.9935V10.5578L49.7644 10.2838L49.5287 10.0098L41.8298 9.98799C35.5992 9.97031 34.0745 9.99092 33.8355 10.096ZM29.1049 11.0596C29.5634 11.291 29.9759 11.8671 29.9789 12.2803C29.9805 12.4996 29.9773 12.5 28.3203 12.5C26.9432 12.5 26.6602 12.4761 26.6602 12.3599C26.6602 12.0979 26.8671 11.6708 27.1303 11.3895C27.6695 10.813 28.3809 10.6941 29.1049 11.0596ZM48.3163 16.6748L48.3416 21.6797H41.6513H34.9609V16.7155C34.9609 13.9852 34.9905 11.7217 35.0268 11.6855C35.0629 11.6493 38.0622 11.6311 41.6918 11.6448L48.291 11.6699L48.3163 16.6748ZM36.6432 16.6748L36.6699 18.3105H37.5H38.3301L38.3568 16.6748L38.3836 15.0391H37.5H36.6164L36.6432 16.6748ZM23.2106 17.6842C23.7015 17.9218 24.0128 18.3156 24.091 18.7979L24.1467 19.1406H22.4719H20.7971L20.8614 18.8721C21.013 18.2399 21.3063 17.883 21.8779 17.6351C22.3466 17.4318 22.7177 17.4455 23.2106 17.6842ZM48.3398 35.8398V48.3398H41.6504H34.9609V35.8398V23.3398H41.6504H48.3398V35.8398ZM36.6898 26.7217C36.6521 26.7595 36.6211 27.5081 36.6211 28.3854V29.9805H37.5023H38.3836L38.3568 28.3447L38.3301 26.709L37.5443 26.681C37.1121 26.6655 36.7276 26.6838 36.6898 26.7217ZM16.6771 33.3252L16.7039 34.9609H9.18203H1.66016V33.3002V31.6395L9.15527 31.6645L16.6504 31.6895L16.6771 33.3252ZM33.3008 33.3008V34.9609H25.8301H18.3594V33.3008V31.6406H25.8301H33.3008V33.3008ZM3.63291 32.7176C3.18604 33.1339 3.27217 33.764 3.81777 34.0702C4.3209 34.3526 4.98047 33.9309 4.98047 33.3268C4.98047 32.6429 4.12715 32.2571 3.63291 32.7176ZM6.88477 32.8303C6.56748 33.2073 6.60547 33.6235 6.98779 33.96C7.27822 34.2156 7.51846 34.2357 7.90313 34.0368C8.6335 33.6592 8.31855 32.5195 7.48379 32.5195C7.22432 32.5195 7.08574 32.5914 6.88477 32.8303ZM10.3671 32.6759C10.0281 32.9133 9.93691 33.2495 10.1033 33.6479C10.4539 34.487 11.6211 34.2256 11.6211 33.3079C11.6211 32.6544 10.9097 32.2958 10.3671 32.6759ZM13.6362 32.722C13.1556 33.1 13.3545 33.9968 13.948 34.1271C14.3667 34.2191 14.7359 34.0326 14.8967 33.6479C15.2331 32.8427 14.3279 32.1778 13.6362 32.722ZM24.1416 33.3252L24.1699 34.1309L25.8545 34.1576L27.5391 34.1843V33.352V32.5195H25.8262H24.1132L24.1416 33.3252ZM16.6756 42.5049L16.7008 48.3398H9.18047H1.66016V42.5456C1.66016 39.3587 1.68975 36.7218 1.72588 36.6855C1.76201 36.6494 5.13477 36.6311 9.221 36.6449L16.6504 36.6699L16.6756 42.5049ZM25 42.4805V48.3398H21.6797H18.3594V42.4805V36.6211H21.6797H25V42.4805ZM33.3008 42.4805V48.3398H29.9805H26.6602V42.5456C26.6602 39.3587 26.6895 36.722 26.7253 36.6862C26.761 36.6504 28.2552 36.6211 30.0456 36.6211H33.3008V42.4805ZM3.59971 38.5655L3.36914 38.7521L3.34131 42.4271L3.31348 46.102L3.60234 46.3908L3.89121 46.6797H9.06816C12.261 46.6797 14.3429 46.6425 14.5003 46.5826C15.0026 46.3917 15.0391 46.1147 15.0391 42.4899C15.0391 40.6655 14.9988 39.067 14.9496 38.9375C14.7257 38.3487 15.0371 38.3789 9.1835 38.3789C4.05908 38.3789 3.82041 38.3869 3.59971 38.5655ZM13.3562 42.5049L13.3301 44.9707L9.15527 44.9962L4.98047 45.0216V42.5304V40.0391H9.18135H13.3822L13.3562 42.5049ZM21.6797 42.4805V44.1406H22.5098H23.3398V42.4805V40.8203H22.5098H21.6797V42.4805ZM28.3203 42.4805V44.1406H29.1504H29.9805V42.4805V40.8203H29.1504H28.3203V42.4805Z" fill="#878F27"/>
</svg>
