<svg width="53" height="46" viewBox="0 0 53 46" fill="none" xmlns="http://www.w3.org/2000/svg">
<path fill-rule="evenodd" clip-rule="evenodd" d="M18.7233 0.110547C17.6571 0.39583 16.7543 1.15932 16.2621 2.19177C16.007 2.72686 15.9882 2.87092 15.9534 4.56102L15.9165 6.36051H8.17265H0.428941L0.214522 6.62764C0.0263884 6.86193 0 7.03499 0 8.03571C0 9.39785 0.090652 9.57171 0.875682 9.71537C1.74495 9.87443 2.10383 10.2222 2.26361 11.06C2.3138 11.3229 2.43032 11.62 2.52273 11.72C2.66823 11.8774 2.69058 12.242 2.69058 14.4536V17.0054H1.91114C1.47858 17.0054 0.977924 17.0683 0.786375 17.1467C0.117351 17.4205 0.103484 17.4842 0.103484 20.2705V22.7808L0.405347 23.1119C0.70069 23.4359 0.72832 23.4437 1.6989 23.4782L2.69058 23.5133V26.5956C2.69058 29.5427 2.69969 29.6868 2.89755 29.8806C3.15906 30.1368 3.63001 30.1409 3.94678 29.8896L4.1911 29.696L4.22122 26.5948L4.25143 23.4937H26.5479H48.8444V26.5214C48.8444 29.431 48.8528 29.5595 49.059 29.8162C49.2145 30.01 49.3688 30.0834 49.6206 30.0834C49.8724 30.0834 50.0266 30.01 50.1822 29.8162C50.3883 29.5595 50.3967 29.431 50.3967 26.5214V23.4937H51.2298C52.184 23.4937 52.5884 23.3405 52.8268 22.8888C53.0613 22.4445 53.0561 18.1485 52.8206 17.6621C52.5914 17.1891 52.1334 17.0054 51.1831 17.0054H50.3967V14.4284C50.3967 12.3627 50.4268 11.7945 50.5484 11.5644C50.6318 11.4066 50.7262 11.111 50.7581 10.9075C50.8627 10.2406 51.5082 9.70604 52.209 9.70604C52.3558 9.70604 52.59 9.59402 52.7298 9.45715C52.9698 9.22205 52.9838 9.1446 52.9838 8.05152C52.9838 7.03479 52.9578 6.86244 52.7693 6.62764L52.5549 6.36051H45.7917H39.0285L38.8141 6.62764C38.6961 6.77454 38.5995 6.9549 38.5995 7.0284C38.5995 7.29645 38.8355 7.65878 39.0815 7.76867C39.2571 7.84704 41.1699 7.88121 45.3826 7.88121C51.3143 7.88121 51.4315 7.88506 51.4315 8.0792C51.4315 8.21556 51.2906 8.33833 50.9791 8.47336C50.3391 8.75064 49.7548 9.30326 49.4686 9.90211L49.223 10.4157H43.1408H37.0587L37.0271 6.58861L36.9955 2.76153L36.7254 2.20394C36.3249 1.37698 35.6978 0.743867 34.8969 0.357508L34.2061 0.0242731L26.7011 0.00419987C20.9705 -0.0112099 19.0844 0.0139323 18.7233 0.110547ZM34.1479 1.70485C34.7739 1.98303 34.9641 2.16541 35.25 2.76153L35.4929 3.26843L35.494 7.8443L35.495 12.4202L35.2059 12.9624C34.9953 13.3572 34.7794 13.5878 34.4119 13.8104L33.9073 14.1161H26.4919H19.0766L18.5719 13.8104C18.2044 13.5878 17.9885 13.3572 17.7779 12.9624L17.4888 12.4202L17.4911 7.8443C17.4932 3.46277 17.5022 3.24916 17.7037 2.81404C17.9877 2.20069 18.1739 2.01436 18.7823 1.73435L19.2998 1.49631L26.4919 1.49752C33.5005 1.49874 33.6958 1.50401 34.1479 1.70485ZM20.4122 3.24075C20.086 3.58189 20.1035 4.05696 20.4521 4.32551C20.6545 4.48154 20.8746 4.53567 21.3066 4.53567H21.8886L22.3891 6.89012C23.2034 10.7217 23.074 10.6185 27.0611 10.6185C29.8895 10.6185 30.1761 10.5764 30.7173 10.0813C31.0578 9.76991 31.146 9.58256 32.0386 7.27262C32.9413 4.93643 32.9777 4.61465 32.3953 4.10481L32.0767 3.82601H28.4047C24.8706 3.82601 24.7249 3.83362 24.5257 4.02877C24.2642 4.28496 24.2601 4.74634 24.5165 5.05666L24.7142 5.29602L27.9205 5.32542L31.127 5.35492L30.4506 7.09957C30.0787 8.05923 29.7286 8.90139 29.6727 8.97104C29.5963 9.06623 28.9429 9.09776 27.0462 9.09776C24.525 9.09776 24.5212 9.09746 24.4259 8.86966C24.3736 8.74425 24.1152 7.61508 23.8519 6.36051C23.5886 5.10593 23.2949 3.94737 23.1991 3.78597C22.8653 3.2225 22.5283 3.06901 21.5431 3.0315C20.7058 2.99967 20.6293 3.01376 20.4122 3.24075ZM15.9365 10.1516C15.9365 12.1418 15.9621 12.5014 16.144 13.0663C16.5406 14.298 17.5173 15.212 18.7782 15.5313C19.7007 15.7648 33.2831 15.7648 34.2056 15.5313C34.9951 15.3314 35.8097 14.8026 36.2702 14.1914C36.6325 13.7103 37.0473 12.6363 37.0473 12.1792V11.9364H42.9459H48.8444V14.4709V17.0054H26.5436H4.24284V14.4709V11.9364H9.05951H13.8763L14.1302 11.6875C14.2699 11.5506 14.3843 11.3205 14.3843 11.176C14.3843 11.0316 14.2699 10.8014 14.1302 10.6646L13.8763 10.4157H8.81653H3.75688L3.56078 9.98483C3.2821 9.3726 2.68365 8.77122 2.07516 8.49202C1.72684 8.33214 1.55226 8.19021 1.55226 8.06663C1.55226 7.88881 1.84533 7.88121 8.7444 7.88121H15.9365V10.1516ZM24.4592 11.3235C24.1964 11.4318 23.9048 11.8123 23.9048 12.0467C23.9048 12.1382 24.0014 12.3334 24.1193 12.4803C24.2933 12.697 24.4203 12.7474 24.792 12.7474C25.3389 12.7474 25.664 12.487 25.664 12.049C25.664 11.4819 25.018 11.0928 24.4592 11.3235ZM27.7663 11.325C27.3039 11.5154 27.1703 12.1955 27.5267 12.5447C27.8499 12.8613 28.5871 12.8258 28.8645 12.4803C29.1402 12.137 29.1354 11.9091 28.8462 11.5871C28.5871 11.2987 28.1109 11.1831 27.7663 11.325ZM51.4315 20.2495V21.973H26.5436H1.65574V20.2495V18.5261H26.5436H51.4315V20.2495ZM21.266 28.5031C20.8661 28.6771 20.5408 29.0267 20.3396 29.4986C20.2 29.8258 20.1794 30.8147 20.1794 37.1767V44.4793H12.2135H4.2475L4.21935 38.2863L4.1911 32.0933L3.90073 31.8487C3.54505 31.549 3.31821 31.5406 2.96326 31.8142L2.69058 32.0243V38.6675V45.3106L3.04243 45.6553L3.39427 46H26.4919H49.5895L49.9414 45.6553L50.2932 45.3106V38.6675V32.0243L50.0205 31.8142C49.6656 31.5406 49.4388 31.549 49.0831 31.8487L48.7927 32.0933L48.7645 38.2863L48.7363 44.4793H40.7703H32.8044L32.8022 37.1546C32.8 30.2501 32.7889 29.8067 32.6088 29.4244C32.3878 28.9552 32.0478 28.6218 31.6335 28.4681C31.1711 28.2965 21.6668 28.3285 21.266 28.5031ZM31.227 37.2053L31.2535 44.4793H26.4926H21.7316V37.2476C21.7316 33.27 21.7632 29.9849 21.8017 29.9472C21.8402 29.9094 23.9706 29.8904 26.5361 29.9049L31.2004 29.9313L31.227 37.2053ZM6.30445 30.2125C6.11239 30.3393 5.84809 30.5989 5.71697 30.7894L5.47875 31.1357L5.50763 35.8233C5.53577 40.4078 5.54115 40.5171 5.75423 40.797C5.87396 40.9543 6.13008 41.1743 6.32339 41.2858C6.65961 41.4799 6.88965 41.4898 11.6686 41.5176C16.8507 41.5478 17.2176 41.524 17.736 41.1244C18.3786 40.6294 18.3684 40.7161 18.3684 35.7026V31.1331L18.093 30.7254C17.5777 29.9624 17.7413 29.982 11.8745 29.982H6.65361L6.30445 30.2125ZM35.5104 30.1539C35.3197 30.246 35.0403 30.504 34.8895 30.7272L34.6154 31.1331V35.7026C34.6154 40.7161 34.6053 40.6294 35.2478 41.1244C35.7662 41.524 36.1331 41.5478 41.3152 41.5176C46.0942 41.4898 46.3242 41.4799 46.6604 41.2858C46.8537 41.1743 47.1098 40.9543 47.2296 40.797C47.4426 40.5171 47.448 40.4078 47.4762 35.8233L47.5051 31.1357L47.2668 30.7894C47.1357 30.5989 46.8714 30.3393 46.6794 30.2125L46.3302 29.982L41.0937 29.9843C36.4384 29.9864 35.8187 30.0052 35.5104 30.1539ZM16.7644 35.7606V40.0186H11.9007H7.03691V35.7606V31.5027H11.9007H16.7644V35.7606ZM45.9469 35.7606V40.0186H41.0831H36.2194V35.7606V31.5027H41.0831H45.9469V35.7606ZM22.3168 36.6557C22.072 36.9207 22.0961 37.5103 22.3615 37.7455C22.5211 37.8871 22.7345 37.937 23.1804 37.937C23.933 37.937 24.2153 37.7304 24.2153 37.18C24.2153 36.6294 23.9793 36.4703 23.1624 36.4703C22.6405 36.4703 22.4494 36.5122 22.3168 36.6557Z" fill="#56A409"/>
</svg>
