<svg width="49" height="50" viewBox="0 0 49 50" fill="none" xmlns="http://www.w3.org/2000/svg">
<path fill-rule="evenodd" clip-rule="evenodd" d="M22.7489 0.137689C15.3825 1.54588 11.1985 9.40064 14.0889 16.3953C15.1729 19.0184 17.6656 21.531 20.2663 22.6217C21.9554 23.3301 22.8567 23.498 24.9284 23.4907C26.9875 23.4834 27.7792 23.3322 29.4682 22.6238C32.0634 21.5354 34.4609 19.1356 35.6011 16.4848C36.3551 14.732 36.5065 13.942 36.5065 11.7627C36.5065 10.146 36.4646 9.66191 36.2591 8.90984C35.6606 6.7176 34.673 4.98866 33.1333 3.43767C31.5855 1.87819 29.833 0.865446 27.7016 0.298652C26.5078 -0.0187906 23.995 -0.100452 22.7489 0.137689ZM27.2711 2.61952C29.8875 3.34929 32.1346 5.23293 33.2969 7.67087C34.0144 9.17595 34.175 9.92412 34.175 11.7627C34.175 13.5981 34.0142 14.3498 33.3024 15.8432C32.1317 18.2989 29.8622 20.1933 27.2125 20.9265C26.1508 21.2202 23.5888 21.2202 22.5271 20.9265C19.8705 20.1914 17.5069 18.2058 16.3935 15.774C15.8233 14.5286 15.6136 13.662 15.5356 12.2293C15.2843 7.60927 18.3894 3.53173 22.937 2.51036C23.9676 2.27883 26.2563 2.33654 27.2711 2.61952ZM31.5006 25.3569C29.273 26.486 27.099 26.9321 24.3005 26.8339C21.8754 26.7489 20.04 26.2903 18.161 25.3003C17.316 24.8549 17.3039 24.858 14.5926 26.2135C8.87382 29.0725 4.77204 33.0166 2.43703 37.9015C0.932761 41.0487 0.232517 44.0816 0.0730935 48.1401L0 50L15.4192 49.9692L30.8385 49.9384L31.1606 49.6139C31.6398 49.131 31.6155 48.4406 31.1028 47.9792L30.7229 47.6372H16.6293C8.8778 47.6372 2.51142 47.6127 2.48166 47.5828C2.38081 47.4812 2.60981 45.3421 2.86107 44.038C4.1812 37.1874 8.69484 31.6794 15.837 28.2036C16.6731 27.7967 17.2632 27.577 17.4184 27.6148C17.5545 27.648 18.1265 27.8679 18.6893 28.1033C20.3908 28.8153 21.9293 29.1174 24.2404 29.1934C27.0533 29.2859 29.0402 28.9519 31.4468 27.9819C32.4426 27.5805 32.5636 27.5571 32.9462 27.6912C33.9194 28.0325 35.6642 28.9392 36.7092 29.6467C37.9803 30.5075 38.3475 30.5855 38.9044 30.1133C39.7006 29.4385 39.4633 28.7062 38.146 27.7728C36.9157 26.9009 35.9661 26.3958 34.0265 25.5822L32.4012 24.9003L31.5006 25.3569ZM34.6172 34.7448L34.6507 35.8954L41.8254 35.9258L49 35.9562V34.7753V33.5942H41.7919H34.5837L34.6172 34.7448ZM34.6703 38.2753C34.6273 38.3185 34.5922 38.8495 34.5922 39.4554V40.5567H41.7961H49V39.3766V38.1966H41.8742C37.9549 38.1966 34.7132 38.232 34.6703 38.2753ZM34.5922 44.097V45.2771H41.7961H49V44.097V42.9169H41.7961H34.5922V44.097ZM34.5922 48.8173V49.9974H41.7961H49V48.8173V47.6372H41.7961H34.5922V48.8173Z" fill="#970FB9"/>
</svg>
