<svg width="45" height="46" viewBox="0 0 45 46" fill="none" xmlns="http://www.w3.org/2000/svg">
<path opacity="0.07" fill-rule="evenodd" clip-rule="evenodd" d="M23.4748 0.115202C23.0561 0.352001 22.9191 0.86893 23.1527 1.33003C23.3263 1.67282 23.589 1.75598 24.8742 1.87528C29.5026 2.30509 33.851 4.39313 37.171 7.77987C42.478 13.1938 44.5332 21.2816 42.4877 28.7034C41.218 33.3104 38.3972 37.6486 35.0263 40.1784L34.6536 40.458L34.2984 39.7098C34.1029 39.2983 33.8599 38.8908 33.7584 38.8043C33.5566 38.6323 33.0586 38.596 32.8045 38.7348C32.5653 38.8656 28.8057 43.7417 28.7179 44.0351C28.62 44.3623 28.8494 44.8758 29.1575 45.0191C29.4077 45.1354 35.2106 45.3473 35.6809 45.2572C36.0312 45.1902 36.323 44.827 36.3251 44.4559C36.326 44.3019 36.1196 43.7162 35.8667 43.1544L35.4067 42.1329L35.667 41.941C36.5137 41.3166 37.7052 40.266 38.3962 39.5343C41.9175 35.8058 44.132 31.0993 44.8837 25.7463C45.0724 24.4032 45.0238 21.0564 44.7936 19.5431C44.0019 14.3364 41.5964 9.56907 37.9993 6.07787C34.5395 2.7199 30.2905 0.69641 25.4912 0.121495C24.1533 -0.0387977 23.7491 -0.0400563 23.4748 0.115202ZM9.14077 1.33749C8.87145 1.44843 8.66897 1.78124 8.66897 2.11307C8.66897 2.26994 8.86828 2.83398 9.1118 3.36646C9.35541 3.89894 9.5437 4.36292 9.53014 4.39753C9.51667 4.43214 9.08952 4.77844 8.5809 5.16708C8.07229 5.55581 7.099 6.44115 6.41803 7.13456C2.89269 10.7247 0.84052 14.9931 0.106616 20.2623C-0.0557886 21.428 -0.0271652 24.8592 0.155144 26.0883C0.534382 28.6455 1.24195 30.9602 2.33131 33.208C3.47836 35.5748 3.75597 35.9005 4.4461 35.6895C5.16265 35.4704 5.23478 34.8801 4.66593 33.8896C3.29923 31.51 2.34637 28.7565 1.91156 25.9297C1.6972 24.5361 1.7009 21.3632 1.91852 19.9926C2.64679 15.4057 4.49621 11.6369 7.56807 8.47965C8.44104 7.58244 9.74354 6.44709 10.2314 6.15815C10.3061 6.11392 10.4526 6.32941 10.6951 6.83986C10.8901 7.25044 11.1326 7.65706 11.2342 7.74364C11.4346 7.91445 11.9334 7.95221 12.1838 7.81547C12.4214 7.68565 16.1882 2.80395 16.2747 2.51375C16.3724 2.18589 16.1435 1.67228 15.8357 1.52925C15.6982 1.46524 14.58 1.39233 12.9116 1.33857C9.71333 1.23554 9.38843 1.23545 9.14077 1.33749ZM13.5863 3.18216C13.6025 3.19808 13.248 3.68003 12.7987 4.25306C12.3493 4.82618 11.9552 5.26444 11.9229 5.22705C11.8661 5.16124 10.9589 3.17884 10.9588 3.12022C10.9587 3.08282 13.5475 3.14378 13.5863 3.18216ZM12.8032 8.7525C12.6793 8.82128 12.533 8.97797 12.4783 9.10078C12.4167 9.23878 12.1712 13.5516 11.8347 20.4081C11.3046 31.2106 11.2945 31.5119 11.4342 32.2603C11.8149 34.2999 13.2581 36.1021 15.1718 36.9276C16.1834 37.3639 16.5718 37.3884 22.4963 37.3884C28.2995 37.3884 28.7608 37.3621 29.7182 36.9757C31.6498 36.196 33.1727 34.326 33.5584 32.2603C33.6981 31.5119 33.6879 31.2106 33.1578 20.4081C32.8203 13.5315 32.5759 9.23895 32.514 9.10015C32.3087 8.64031 32.1625 8.62017 29.0221 8.62017C26.9561 8.62017 26.0487 8.65127 25.8846 8.7276C25.4105 8.94804 25.4026 9.01807 25.4026 13.0208V16.7112H22.3201H19.2376V13.0295C19.2376 9.07282 19.228 8.98238 18.7845 8.74828C18.4337 8.56308 13.1376 8.56686 12.8032 8.7525ZM17.4762 14.1086C17.4762 18.1113 17.484 18.1814 17.9581 18.4018C18.1267 18.4802 19.3048 18.5092 22.3201 18.5092C25.3354 18.5092 26.5136 18.4802 26.6822 18.4018C27.1562 18.1814 27.1641 18.1113 27.1641 14.1086V10.4182H29.0368H30.9097L31.4195 20.9141C31.8038 28.8282 31.9076 31.5226 31.8415 31.8675C31.4917 33.6918 30.1368 35.1244 28.4148 35.491C27.7691 35.6285 17.2234 35.6285 16.5777 35.491C15.1708 35.1916 13.9319 34.1144 13.3924 32.7216C13.0412 31.8149 13.0401 31.8894 13.5731 20.9141L14.0828 10.4182H15.7796H17.4762V14.1086ZM6.12457 37.3341C5.36108 37.7661 5.68052 39.0066 6.55525 39.0066C7.00151 39.0066 7.43597 38.5674 7.43597 38.1163C7.43597 37.4413 6.70523 37.0055 6.12457 37.3341ZM9.14077 39.9906C8.67346 40.1934 8.51441 40.9394 8.84644 41.3703C9.15275 41.7677 11.1218 43.0412 12.5472 43.7636C15.0215 45.0177 17.6517 45.7591 20.4051 45.9788C21.2988 46.05 21.6429 45.9498 21.8399 45.5612C22.0017 45.2416 22.0017 44.9981 21.8399 44.6785C21.6673 44.338 21.4064 44.2552 20.1384 44.1388C16.8062 43.833 13.3352 42.512 10.628 40.5193C9.89062 39.9765 9.49615 39.8363 9.14077 39.9906ZM33.581 42.3939C33.83 42.9465 34.0337 43.4117 34.0338 43.4277C34.0339 43.4651 31.445 43.4042 31.4062 43.3658C31.39 43.3499 31.7445 42.8679 32.1939 42.2949C32.6432 41.7218 33.0373 41.2835 33.0697 41.3209C33.102 41.3584 33.332 41.8412 33.581 42.3939Z" fill="black"/>
</svg>
