<svg width="40" height="40" viewBox="0 0 40 40" fill="none" xmlns="http://www.w3.org/2000/svg">
<path d="M20.5427 0C20.7609 0.0623344 20.9853 0.118434 21.2035 0.193235C21.991 0.441781 22.6814 0.929573 23.1786 1.58874C23.6759 2.2479 23.9552 3.04564 23.9779 3.87097C23.9779 4.33847 23.9779 4.80598 23.9779 5.27349C23.9856 5.36464 23.9744 5.4564 23.9452 5.54307C23.9159 5.62973 23.8691 5.70945 23.8077 5.77727C23.7463 5.84508 23.6716 5.89955 23.5883 5.93727C23.5049 5.975 23.4147 5.99519 23.3232 5.99657C23.2321 5.99498 23.1422 5.97523 23.0588 5.93848C22.9753 5.90174 22.9001 5.84873 22.8374 5.78257C22.7747 5.7164 22.7258 5.63841 22.6936 5.55314C22.6615 5.46787 22.6466 5.37704 22.6499 5.28596C22.6499 4.81222 22.6499 4.34471 22.6499 3.8772C22.62 3.201 22.3342 2.56143 21.8503 2.08805C21.3664 1.61467 20.7207 1.34288 20.0439 1.32772C19.949 1.31506 19.8526 1.3354 19.7708 1.38533C19.6891 1.43526 19.627 1.51175 19.595 1.60199C19.2085 2.41234 18.7908 3.20399 18.4042 4.01434C18.2352 4.42678 17.9409 4.77568 17.5627 5.01171C17.1846 5.24773 16.7418 5.35894 16.297 5.32959C13.4229 5.32959 10.5488 5.32959 7.67466 5.32959C7.24502 5.35923 6.81671 5.25534 6.44841 5.03217C6.0801 4.80899 5.78981 4.47744 5.61728 4.08291C5.21827 3.26633 4.79433 2.46221 4.40779 1.63939C4.37225 1.53712 4.30093 1.45114 4.20698 1.3973C4.11303 1.34346 4.00278 1.32539 3.89656 1.34642C3.23278 1.37894 2.60432 1.65512 2.13152 2.12209C1.65873 2.58905 1.37483 3.21398 1.33418 3.8772C1.33418 4.03304 1.33418 4.18887 1.33418 4.34471V35.6865C1.33418 37.5565 2.41275 38.6723 4.3018 38.6723H19.7259C20.097 38.7088 20.4715 38.6673 20.8256 38.5505C21.1796 38.4338 21.5054 38.2443 21.7819 37.9942C22.0584 37.7442 22.2796 37.4391 22.4312 37.0986C22.5828 36.7581 22.6616 36.3896 22.6624 36.0168C22.6632 35.9252 22.6823 35.8346 22.7187 35.7505C22.7551 35.6663 22.808 35.5904 22.8742 35.527C22.9405 35.4637 23.0188 35.4143 23.1045 35.3817C23.1901 35.3491 23.2815 35.334 23.3731 35.3374C23.4642 35.3443 23.553 35.3696 23.6341 35.4116C23.7152 35.4537 23.787 35.5116 23.8452 35.582C23.9034 35.6524 23.9468 35.7338 23.9728 35.8214C23.9988 35.909 24.0069 36.0009 23.9966 36.0916C23.9758 36.9965 23.6488 37.8676 23.0691 38.5627C22.4893 39.2578 21.691 39.7359 20.8045 39.919C20.7172 39.919 20.6362 39.9751 20.5551 40H3.43521C3.35416 40 3.27311 39.9377 3.19206 39.919C2.49767 39.7755 1.85394 39.4499 1.32696 38.9756C0.799968 38.5013 0.408687 37.8953 0.193268 37.2199C0.118454 37.0079 0.0623449 36.7835 0 36.5654V3.43463C0 3.35359 0.0623432 3.27256 0.0810467 3.18529C0.194798 2.61967 0.432778 2.08636 0.777794 1.6239C1.12281 1.16144 1.56625 0.78137 2.07609 0.511142C2.51592 0.30752 2.97019 0.136674 3.43521 0H20.5427ZM18.2484 1.35266H5.77937C6.17838 2.15054 6.54622 2.92348 6.96393 3.66526C7.03009 3.75684 7.11597 3.8324 7.21525 3.88635C7.31453 3.94029 7.42466 3.97125 7.5375 3.97693C10.5301 3.97693 13.5205 3.97693 16.5089 3.97693C16.6103 3.97384 16.7098 3.94949 16.8011 3.90546C16.8924 3.86144 16.9734 3.79872 17.0389 3.72137C17.4441 2.96712 17.8244 2.17547 18.2484 1.35266Z" fill="#C04A08"/>
<path d="M39.9873 30.5322C39.8997 30.8819 39.7893 31.2255 39.6568 31.5607C39.3734 32.2764 38.8797 32.8894 38.2409 33.3189C37.602 33.7484 36.848 33.9743 36.0782 33.9669C29.8063 33.9918 23.5323 33.9918 17.2563 33.9669C16.2276 33.9653 15.2408 33.559 14.5093 32.8358C13.7778 32.1126 13.3604 31.1306 13.3473 30.1021C13.3099 28.7619 13.3473 27.4217 13.3473 26.0816C13.3588 25.9683 13.3327 25.8544 13.273 25.7575C13.2133 25.6605 13.1232 25.586 13.0168 25.5455C10.7537 24.3487 8.49683 23.1331 6.23371 21.9425C5.98119 21.8413 5.76269 21.6703 5.60372 21.4496C5.44475 21.2288 5.35188 20.9674 5.33594 20.6959C5.33878 20.414 5.42575 20.1394 5.5857 19.9073C5.74566 19.6752 5.9713 19.4961 6.23371 19.3931C8.48436 18.2025 10.7288 16.9994 12.9857 15.8088C13.103 15.7641 13.2021 15.6816 13.2676 15.5745C13.333 15.4673 13.361 15.3415 13.3473 15.2167C13.3473 13.97 13.3473 12.7233 13.3473 11.5078C13.3188 10.9542 13.4066 10.4009 13.6049 9.88327C13.8033 9.36569 14.1078 8.89535 14.4989 8.50254C14.89 8.10972 15.3591 7.80314 15.8758 7.6025C16.3926 7.40187 16.9457 7.31162 17.4994 7.33759H35.8164C36.7951 7.2857 37.7582 7.59862 38.5195 8.21581C39.2807 8.833 39.786 9.71057 39.9374 10.6787C39.9544 10.7141 39.9753 10.7476 39.9997 10.7785L39.9873 30.5322ZM6.67635 20.6522L7.05043 20.8579C9.38213 22.1046 11.7014 23.3513 14.0393 24.598C14.2449 24.6892 14.4161 24.8435 14.5282 25.0385C14.6403 25.2335 14.6874 25.4591 14.6627 25.6826C14.6627 27.0602 14.6627 28.4378 14.6627 29.8154C14.6368 30.1942 14.6925 30.5742 14.826 30.9298C14.9595 31.2853 15.1677 31.608 15.4365 31.8763C15.7054 32.1445 16.0286 32.3519 16.3845 32.4846C16.7404 32.6173 17.1206 32.6721 17.4994 32.6454H35.779C36.1608 32.6742 36.5443 32.6203 36.9034 32.4874C37.2625 32.3545 37.5887 32.1458 37.8597 31.8754C38.1308 31.605 38.3403 31.2793 38.474 30.9206C38.6076 30.5618 38.6623 30.1785 38.6344 29.7967C38.6344 23.7087 38.6344 17.6186 38.6344 11.5265C38.663 11.145 38.6092 10.7619 38.4767 10.4031C38.3442 10.0442 38.1361 9.71807 37.8665 9.44671C37.5968 9.17535 37.272 8.96513 36.914 8.83031C36.5559 8.69549 36.1731 8.63922 35.7914 8.66531H17.4994C17.1208 8.6393 16.7409 8.69493 16.3856 8.82844C16.0304 8.96194 15.7079 9.17022 15.4401 9.43915C15.1723 9.70808 14.9654 10.0314 14.8335 10.3872C14.7015 10.743 14.6475 11.1231 14.6752 11.5015C14.6752 12.9228 14.6752 14.3378 14.6752 15.759C14.6899 15.9529 14.6445 16.1467 14.5453 16.314C14.446 16.4812 14.2976 16.6139 14.1203 16.694C12.9732 17.2799 11.8448 17.897 10.7101 18.5017L6.67635 20.6522Z" fill="#C04A08"/>
<path d="M11.9899 35.9926H17.2144C17.3708 35.9712 17.5297 36.0049 17.664 36.088C17.7982 36.171 17.8994 36.2982 17.95 36.4476C17.9829 36.5304 17.9976 36.6192 17.9933 36.7081C17.989 36.797 17.9656 36.8839 17.9249 36.9631C17.8841 37.0422 17.8269 37.1117 17.757 37.1669C17.6872 37.222 17.6063 37.2616 17.5199 37.2829C17.3959 37.3162 17.2678 37.3309 17.1395 37.3266H6.90251C6.82574 37.3328 6.7486 37.3328 6.67184 37.3266C6.58445 37.3218 6.49887 37.2997 6.42007 37.2616C6.34128 37.2236 6.27084 37.1702 6.21284 37.1047C6.15483 37.0391 6.11043 36.9628 6.0822 36.8799C6.05397 36.7971 6.04247 36.7095 6.04838 36.6222C6.04817 36.5365 6.06562 36.4517 6.09965 36.3731C6.13367 36.2945 6.18354 36.2237 6.24614 36.1652C6.30873 36.1067 6.38272 36.0618 6.46347 36.0331C6.54422 36.0045 6.63001 35.9928 6.71547 35.9988H12.0273L11.9899 35.9926Z" fill="#C04A08"/>
<path d="M30.025 26.648C29.6883 28.7798 28.4414 29.9953 26.6272 29.9828C24.8129 29.9704 23.6222 28.7362 23.3042 26.6667C23.1733 26.6667 23.0361 26.6667 22.899 26.6667H19.4637C19.2311 26.6909 18.9962 26.6533 18.7828 26.5577C18.5694 26.462 18.385 26.3117 18.2483 26.1219C18.1117 25.9321 18.0275 25.7096 18.0045 25.4769C17.9815 25.2442 18.0203 25.0095 18.1171 24.7966C18.6657 23.1198 19.283 21.4617 19.7505 19.76C19.9258 18.8698 20.0321 17.9675 20.0685 17.0609C20.3078 15.4015 21.1644 13.8935 22.4673 12.8381C23.7702 11.7827 25.4233 11.2577 27.0965 11.3679C28.7697 11.4781 30.3397 12.2155 31.4928 13.4327C32.646 14.6498 33.2973 16.2572 33.3168 17.9336C33.3488 18.9065 33.5274 19.869 33.8467 20.7885C34.3143 22.1162 34.7507 23.444 35.1996 24.7779C35.3042 24.9943 35.3486 25.2349 35.3282 25.4744C35.3078 25.7138 35.2234 25.9434 35.0838 26.1391C34.9442 26.3347 34.7546 26.4893 34.5347 26.5865C34.3149 26.6837 34.073 26.72 33.8343 26.6916H30.025V26.648ZM33.9839 25.3202C33.722 24.5286 33.4664 23.8055 33.2357 23.0762C32.7094 21.7616 32.3147 20.3982 32.0574 19.0058C31.9764 18.3014 31.9951 17.5721 31.8579 16.8739C31.5988 15.6514 30.9172 14.5591 29.9328 13.789C28.9485 13.0188 27.7242 12.6199 26.475 12.6623C25.2258 12.7047 24.0315 13.1857 23.1016 14.0208C22.1718 14.856 21.5658 15.9919 21.3902 17.2292C21.3248 18.2234 21.1957 19.2124 21.0037 20.1901C20.5797 21.7672 19.9999 23.3068 19.4824 24.859L19.3391 25.3202H33.9839ZM24.6945 26.6729C24.6794 26.9405 24.7191 27.2083 24.8112 27.46C24.9032 27.7117 25.0456 27.942 25.2298 28.1368C25.4139 28.3315 25.6358 28.4867 25.882 28.5927C26.1282 28.6987 26.3934 28.7534 26.6615 28.7534C26.9295 28.7534 27.1947 28.6987 27.4409 28.5927C27.6871 28.4867 27.909 28.3315 28.0932 28.1368C28.2773 27.942 28.4198 27.7117 28.5118 27.46C28.6038 27.2083 28.6435 26.9405 28.6285 26.6729H24.6945Z" fill="#C04A08"/>
</svg>
