<svg width="40" height="40" viewBox="0 0 40 40" fill="none" xmlns="http://www.w3.org/2000/svg">
<path d="M37.1954 18.432C37.7767 16.4056 38.0747 14.3061 38.0808 12.1953C38.0808 5.31144 34.8639 2.39265 32.9446 1.26535C31.3823 0.398252 29.6237 -0.037179 27.8443 0.00248695C26.0648 0.0421529 24.3266 0.555527 22.8032 1.49141C21.2595 2.39233 19.9646 3.67498 19.0384 5.22042C18.1122 3.67498 16.8173 2.39233 15.2736 1.49141C13.7502 0.556 12.0123 0.042899 10.2331 0.00323483C8.45384 -0.0364293 6.69546 0.398731 5.13318 1.26535C3.21586 2.39265 0 5.31244 0 12.1963C0.00688621 28.2606 17.3956 39.3036 18.1363 39.7668C18.5002 39.9886 18.9355 40.0556 19.3477 39.9531C19.7599 39.8506 20.1157 39.5869 20.3378 39.2193C20.56 38.8517 20.6306 38.4099 20.5343 37.9897C20.4379 37.5695 20.1825 37.2049 19.8234 36.975C19.6572 36.875 3.22766 26.4162 3.22176 12.1943C3.22176 8.31226 4.4721 5.43748 6.7475 4.10111C7.81999 3.52196 9.02284 3.23821 10.2366 3.27804C11.4503 3.31787 12.6327 3.67991 13.6662 4.32818C14.8083 4.98332 15.7552 5.93998 16.4068 7.09709C17.0584 8.2542 17.3905 9.56879 17.368 10.902C17.368 11.3365 17.5378 11.7532 17.84 12.0605C18.1422 12.3678 18.552 12.5404 18.9794 12.5404C19.001 12.5404 19.0207 12.5344 19.0414 12.5344C19.062 12.5344 19.0817 12.5404 19.1033 12.5404C19.5307 12.5404 19.9406 12.3678 20.2427 12.0605C20.5449 11.7532 20.7147 11.3365 20.7147 10.902C20.6922 9.56879 21.0243 8.2542 21.6759 7.09709C22.3275 5.93998 23.2744 4.98332 24.4165 4.32818C25.45 3.67962 26.6323 3.31742 27.8461 3.27758C29.0599 3.23775 30.2628 3.52167 31.3352 4.10111C33.6106 5.43748 34.8629 8.31226 34.861 12.1943C34.8534 14.0834 34.5737 15.9612 34.0307 17.7678C33.9349 18.1705 33.9891 18.595 34.1829 18.9594C34.3768 19.3239 34.6965 19.6024 35.0803 19.7413C36.6789 20.2355 37.1954 18.432 37.1954 18.432Z" fill="#0092FF"/>
<path d="M35.1884 28.3696C35.0101 28.3633 34.8323 28.3928 34.6653 28.4565C34.4982 28.5201 34.3451 28.6166 34.2147 28.7404C34.0843 28.8643 33.9792 29.013 33.9054 29.1782C33.8316 29.3433 33.7906 29.5217 33.7846 29.703C33.7413 31.0313 33.2734 32.3091 32.4517 33.3427C31.63 34.3763 30.4993 35.1093 29.231 35.4308C27.9627 35.7522 26.6259 35.6445 25.4232 35.124C24.2205 34.6035 23.2175 33.6985 22.5661 32.5463C21.9147 31.394 21.6505 30.0573 21.8135 28.7386C21.9764 27.4199 22.5577 26.1912 23.4692 25.2386C24.3807 24.286 25.5728 23.6615 26.8648 23.4598C28.1567 23.258 29.4781 23.4899 30.6288 24.1205C30.9465 24.2949 31.3195 24.3338 31.6655 24.2287C32.0115 24.1235 32.3022 23.8829 32.4738 23.5598C32.6453 23.2367 32.6836 22.8575 32.5802 22.5057C32.4768 22.1539 32.2402 21.8582 31.9224 21.6838C30.2504 20.7668 28.33 20.429 26.4522 20.7217C24.5744 21.0144 22.8416 21.9216 21.5166 23.3058C20.1915 24.6899 19.3464 26.4756 19.1093 28.3922C18.8722 30.3087 19.2561 32.2516 20.2028 33.9263C21.1494 35.601 22.6073 36.9163 24.3553 37.6727C26.1033 38.4291 28.0461 38.5854 29.8894 38.118C31.7326 37.6506 33.3758 36.5848 34.5697 35.0824C35.7637 33.5799 36.4433 31.7226 36.5056 29.792C36.5117 29.6106 36.4825 29.4299 36.4199 29.26C36.3572 29.0901 36.2622 28.9344 36.1403 28.8019C36.0184 28.6693 35.8721 28.5625 35.7096 28.4874C35.5471 28.4124 35.3717 28.3707 35.1933 28.3646L35.1884 28.3696Z" fill="#0092FF"/>
<path d="M39.6534 21.5846C39.5268 21.4263 39.3707 21.295 39.1941 21.1981C39.0176 21.1012 38.8239 21.0406 38.6243 21.0198C38.4247 20.999 38.223 21.0184 38.0308 21.0768C37.8386 21.1353 37.6595 21.2317 37.5039 21.3605L28.5666 28.7625L26.727 26.836C26.5869 26.6891 26.4196 26.5716 26.2348 26.4904C26.05 26.4092 25.8513 26.3658 25.65 26.3627C25.4487 26.3596 25.2488 26.3969 25.0617 26.4723C24.8745 26.5478 24.7038 26.6599 24.5594 26.8025C24.4149 26.945 24.2994 27.1151 24.2195 27.303C24.1397 27.4908 24.097 27.6929 24.0939 27.8976C24.0909 28.1022 24.1275 28.3055 24.2017 28.4958C24.2759 28.6861 24.3862 28.8596 24.5264 29.0066L27.3429 31.9564C27.6092 32.2367 27.9695 32.4049 28.3522 32.4277C28.7349 32.4505 29.112 32.3262 29.4087 32.0794L39.4341 23.7771C39.59 23.6488 39.7196 23.4905 39.8153 23.3112C39.911 23.1319 39.9711 22.9352 39.992 22.7323C40.0129 22.5294 39.9943 22.3243 39.9372 22.1288C39.8801 21.9332 39.7857 21.751 39.6593 21.5926L39.6534 21.5846Z" fill="#0092FF"/>
</svg>
