<svg width="40" height="40" viewBox="0 0 40 40" fill="none" xmlns="http://www.w3.org/2000/svg">
<path d="M19.9855 4.99806C22.9509 4.99414 25.8509 5.8702 28.3188 7.51545C30.7867 9.1607 32.7115 11.5013 33.85 14.2411C34.9884 16.981 35.2893 19.9972 34.7147 22.9082C34.14 25.8192 32.7155 28.4943 30.6214 30.5952C28.5273 32.6962 25.8576 34.1286 22.9499 34.7113C20.0422 35.294 17.0271 35.0009 14.2858 33.869C11.5446 32.7371 9.2004 30.8173 7.54962 28.3523C5.89884 25.8873 5.01565 22.9879 5.01172 20.0206C5.0104 16.0429 6.58629 12.2271 9.39357 9.41063C12.2008 6.59421 16.0101 5.00726 19.9855 4.99806ZM33.3274 19.9958C33.3274 17.3577 32.5454 14.7789 31.0804 12.5856C29.6153 10.3923 27.533 8.68315 25.097 7.67428C22.6609 6.66541 19.9805 6.4022 17.3949 6.91795C14.8093 7.4337 12.4347 8.70523 10.5714 10.5717C8.70819 12.4381 7.44008 14.8156 6.92753 17.4034C6.41498 19.9911 6.68103 22.6729 7.69201 25.1093C8.70299 27.5457 10.4135 29.6273 12.6071 31.0908C14.8006 32.5543 17.3788 33.3339 20.0152 33.331C23.546 33.3231 26.9297 31.9151 29.4249 29.4156C31.9202 26.916 33.3235 23.5287 33.3274 19.9958Z" fill="#139B07"/>
<path d="M34.1563 8.38741C34.1563 8.9631 34.1563 9.42961 34.1563 9.87627C34.1681 9.99418 34.155 10.1132 34.118 10.2258C34.081 10.3384 34.0209 10.4419 33.9414 10.5298C33.862 10.6177 33.7651 10.688 33.6569 10.7361C33.5486 10.7843 33.4316 10.8092 33.3131 10.8093C33.1977 10.8071 33.084 10.781 32.9791 10.7328C32.8743 10.6846 32.7805 10.6152 32.7036 10.529C32.6268 10.4428 32.5686 10.3416 32.5326 10.2319C32.4967 10.1221 32.4838 10.0061 32.4947 9.89115C32.4947 8.68518 32.4947 7.47921 32.4947 6.26827C32.4816 6.12794 32.5049 5.98659 32.5624 5.85791C32.6198 5.72922 32.7095 5.61755 32.8227 5.5337C32.9359 5.44986 33.0689 5.39667 33.2087 5.37929C33.3484 5.36192 33.4903 5.38094 33.6206 5.43451C34.9796 5.83154 36.3287 6.24346 37.6778 6.6653C37.7941 6.68637 37.9047 6.73198 38.002 6.79909C38.0994 6.8662 38.1814 6.95328 38.2425 7.05454C38.3037 7.1558 38.3426 7.26892 38.3567 7.38639C38.3708 7.50386 38.3597 7.62298 38.3243 7.73584C38.2888 7.8487 38.2297 7.95272 38.151 8.04097C38.0722 8.12923 37.9756 8.19971 37.8676 8.24773C37.7595 8.29575 37.6425 8.3202 37.5242 8.31947C37.406 8.31874 37.2893 8.29283 37.1818 8.24348C36.7999 8.13926 36.4229 8.02016 36.046 7.91097C36.6065 8.83903 37.2066 9.72738 37.7026 10.6703C39.1074 13.3449 39.8886 16.3031 39.9876 19.323C40.0867 22.3428 39.501 25.3459 38.2745 28.1069C37.0481 30.8679 35.2126 33.3152 32.906 35.2651C30.5993 37.2149 27.8813 38.6168 24.9558 39.3655C23.3947 39.7643 21.7906 39.9693 20.1795 39.976C19.5793 39.976 19.1875 39.6534 19.1875 39.1472C19.1875 38.641 19.5595 38.3333 20.1795 38.3084C27.9317 37.9759 33.6355 34.3382 36.7701 27.281C39.6865 20.6903 38.7144 14.3776 34.3745 8.576C34.3101 8.55119 34.2704 8.51148 34.1563 8.38741Z" fill="#139B07"/>
<path d="M3.87957 28.6059C3.98869 28.1642 4.08292 27.7771 4.18212 27.39C4.19865 27.275 4.23902 27.1647 4.30065 27.0662C4.36228 26.9677 4.44381 26.8832 4.54 26.818C4.63619 26.7529 4.74493 26.7087 4.85922 26.6881C4.97352 26.6675 5.09086 26.671 5.2037 26.6985C5.31655 26.7259 5.42242 26.7767 5.51452 26.8475C5.60662 26.9182 5.68291 27.0075 5.73849 27.1096C5.79408 27.2116 5.82774 27.3241 5.83731 27.4399C5.84688 27.5557 5.83215 27.6723 5.79407 27.782C5.54608 28.8342 5.28982 29.8846 5.02529 30.9335C5.01175 31.0591 4.9695 31.18 4.9018 31.2867C4.8341 31.3934 4.74278 31.4831 4.63489 31.5488C4.52701 31.6145 4.40545 31.6545 4.27963 31.6657C4.15382 31.6769 4.02712 31.659 3.90933 31.6134C2.84131 31.3553 1.77825 31.0923 0.720154 30.8243C0.608493 30.804 0.502154 30.7611 0.407659 30.6982C0.313164 30.6353 0.232505 30.5537 0.17063 30.4585C0.108754 30.3633 0.0669641 30.2565 0.0478257 30.1446C0.0286873 30.0326 0.0326044 29.918 0.059333 29.8076C0.0860617 29.6972 0.135039 29.5935 0.203263 29.5027C0.271488 29.412 0.357519 29.3361 0.456084 29.2798C0.554648 29.2236 0.663667 29.188 0.776453 29.1754C0.889239 29.1627 1.00342 29.1733 1.11198 29.2064L2.38666 29.5141C2.31226 29.3503 2.27258 29.2411 2.22298 29.1419C0.65717 26.1054 -0.104255 22.7178 0.0114723 19.3029C0.127199 15.888 1.11621 12.5599 2.884 9.63649C4.65178 6.71312 7.13928 4.29221 10.1088 2.6051C13.0783 0.917986 16.4306 0.0210508 19.8453 0C20.4504 0 20.8373 0.307695 20.8373 0.808944C20.8373 1.31019 20.4653 1.65263 19.8453 1.66752C15.9873 1.69321 12.2369 2.94211 9.1329 5.23473C6.02892 7.52734 3.73127 10.7456 2.57017 14.427C1.81378 16.6922 1.51972 19.0863 1.70546 21.4674C1.89119 23.8484 2.55293 26.1679 3.65142 28.2883C3.68721 28.3647 3.72694 28.4393 3.77045 28.5116C3.80387 28.5463 3.8404 28.5779 3.87957 28.6059Z" fill="#139B07"/>
<path d="M6.23918 37.6126C6.54173 37.8954 6.85916 38.1684 7.14683 38.4612C7.24778 38.531 7.33229 38.6219 7.39448 38.7278C7.45667 38.8336 7.49503 38.9517 7.50689 39.0739C7.51875 39.196 7.50381 39.3193 7.46314 39.4352C7.42246 39.551 7.35702 39.6565 7.27137 39.7444C7.18573 39.8323 7.08195 39.9004 6.96727 39.944C6.8526 39.9877 6.7298 40.0057 6.60743 39.9969C6.48506 39.9882 6.36608 39.9528 6.25879 39.8933C6.1515 39.8337 6.05848 39.7515 5.98623 39.6523C5.20753 38.8781 4.42884 38.1039 3.66006 37.3247C3.55925 37.2473 3.47758 37.1478 3.42138 37.0337C3.36517 36.9197 3.33594 36.7943 3.33594 36.6671C3.33594 36.54 3.36517 36.4146 3.42138 36.3005C3.47758 36.1865 3.55925 36.087 3.66006 36.0096C4.44041 35.2221 5.22572 34.438 6.01599 33.6572C6.0879 33.5626 6.1793 33.4845 6.284 33.4284C6.3887 33.3722 6.50424 33.3393 6.6228 33.3317C6.74135 33.3242 6.86013 33.3423 6.97109 33.3847C7.08204 33.4272 7.18258 33.493 7.26587 33.5778C7.3502 33.6616 7.41574 33.7625 7.45815 33.8736C7.50055 33.9847 7.51884 34.1036 7.5118 34.2224C7.50476 34.3411 7.47256 34.457 7.41733 34.5624C7.36211 34.6677 7.28511 34.7601 7.19147 34.8334C6.88892 35.1411 6.56653 35.4239 6.25406 35.7168L6.29374 35.8309H15.5389C15.6759 35.8209 15.8135 35.8209 15.9505 35.8309C16.1492 35.8577 16.3315 35.9558 16.4634 36.1068C16.5954 36.2578 16.6681 36.4516 16.6681 36.6523C16.6681 36.8529 16.5954 37.0467 16.4634 37.1977C16.3315 37.3488 16.1492 37.4468 15.9505 37.4736C15.8135 37.4836 15.6759 37.4836 15.5389 37.4736H6.31358L6.23918 37.6126Z" fill="#139B07"/>
<path d="M19.9897 28.3234H13.5816C12.7881 28.3234 12.4954 28.0257 12.5103 27.2415C12.5606 25.2868 13.372 23.4289 14.7715 22.0642C16.171 20.6994 18.0479 19.9355 20.0021 19.9355C21.9564 19.9355 23.8333 20.6994 25.2328 22.0642C26.6323 23.4289 27.4437 25.2868 27.494 27.2415C27.494 28.0306 27.2212 28.3383 26.4425 28.3383L19.9897 28.3234ZM25.7382 26.6361C25.5355 25.1816 24.7869 23.8589 23.6444 22.937C22.502 22.0152 21.0515 21.5633 19.588 21.6732C16.8898 21.8469 14.1322 24.4673 14.3058 26.6361H25.7382Z" fill="#139B07"/>
<path d="M19.9981 19.1597C19.1747 19.1587 18.37 18.9133 17.686 18.4545C17.002 17.9957 16.4695 17.3442 16.1557 16.5824C15.842 15.8206 15.7611 14.9828 15.9235 14.175C16.0858 13.3672 16.484 12.6258 17.0676 12.0446C17.6513 11.4633 18.3942 11.0684 19.2022 10.9099C20.0103 10.7513 20.8472 10.8362 21.607 11.1538C22.3668 11.4713 23.0154 12.0073 23.4707 12.6939C23.9259 13.3805 24.1673 14.1868 24.1644 15.0107C24.1565 16.1121 23.7145 17.1659 22.9343 17.9428C22.1541 18.7198 21.0989 19.1571 19.9981 19.1597ZM19.9981 17.4971C20.4886 17.4971 20.9681 17.3516 21.3759 17.0789C21.7837 16.8063 22.1016 16.4187 22.2893 15.9653C22.477 15.5119 22.5261 15.013 22.4304 14.5316C22.3347 14.0503 22.0985 13.6081 21.7517 13.2611C21.4049 12.914 20.963 12.6777 20.4819 12.582C20.0009 12.4862 19.5022 12.5354 19.0491 12.7232C18.5959 12.911 18.2086 13.229 17.9361 13.6371C17.6636 14.0452 17.5182 14.5249 17.5182 15.0157C17.5259 15.6714 17.7897 16.2981 18.2531 16.7618C18.7165 17.2255 19.3428 17.4894 19.9981 17.4971Z" fill="#139B07"/>
</svg>
