<svg width="40" height="41" viewBox="0 0 40 41" fill="none" xmlns="http://www.w3.org/2000/svg">
<path d="M29.1577 8.38258L34.8248 4.62305V7.73984H35.3014C35.5874 7.71537 35.8752 7.75384 36.1446 7.85252C36.4139 7.9512 36.6583 8.10769 36.8604 8.31093C37.0625 8.51416 37.2173 8.75919 37.314 9.02868C37.4107 9.29817 37.4469 9.58557 37.42 9.87054V16.7028C37.6848 16.7557 37.9408 16.7909 38.1791 16.8613C38.7226 17.0294 39.1953 17.3716 39.524 17.8347C39.8528 18.2979 40.0192 18.8563 39.9975 19.4234V37.3494C39.9964 37.6855 39.9287 38.018 39.7985 38.3279C39.6682 38.6378 39.4779 38.919 39.2384 39.1554C38.9989 39.3918 38.715 39.5787 38.403 39.7055C38.0909 39.8322 37.7569 39.8962 37.42 39.8939C34.4128 39.8939 31.4027 39.8939 28.3897 39.8939C28.0495 39.8975 27.712 39.8331 27.397 39.7046C27.0821 39.5761 26.7962 39.3861 26.556 39.1457C26.3158 38.9053 26.1263 38.6195 25.9985 38.3049C25.8708 37.9904 25.8074 37.6535 25.8121 37.3142C25.8121 31.3271 25.8121 25.3401 25.8121 19.353C25.7998 19.0028 25.8599 18.6539 25.9886 18.3278C26.1173 18.0018 26.3119 17.7057 26.5603 17.4579C26.8087 17.2102 27.1056 17.016 27.4325 16.8876C27.7594 16.7592 28.1092 16.6993 28.4603 16.7116H36.1312V10.1259C36.1312 9.07813 35.9635 8.91965 34.8424 9.0165V12.1157L32.0177 10.2403L29.1577 8.38258ZM28.4073 33.449V28.316H30.9849V24.486H34.8513V25.7363H37.42V33.4138H38.6734V23.2006H27.1274V33.449H28.4073ZM38.6999 21.8799C38.6999 20.9994 38.6999 20.119 38.6999 19.2385C38.6863 18.9185 38.5491 18.6162 38.3172 18.3947C38.0852 18.1732 37.7764 18.0496 37.4553 18.0499C34.4187 18.0499 31.3821 18.0499 28.3455 18.0499C28.0458 18.0437 27.7546 18.1496 27.5291 18.3467C27.3037 18.5439 27.1604 18.818 27.1274 19.1153C27.0744 19.9957 27.1274 20.9554 27.1274 21.8887L38.6999 21.8799ZM27.0656 34.7697C27.0656 35.5885 27.0656 36.3809 27.0656 37.1645C27.0435 37.3591 27.0654 37.5562 27.1296 37.7412C27.1939 37.9263 27.2989 38.0946 27.4368 38.234C27.5748 38.3733 27.7423 38.48 27.9271 38.5463C28.1118 38.6127 28.3091 38.6369 28.5044 38.6173H37.3317C37.653 38.6373 37.9697 38.5333 38.2163 38.3268C38.4628 38.1202 38.6202 37.827 38.6558 37.5079C38.6999 36.6274 38.6558 35.6942 38.6558 34.7697H27.0656ZM33.5007 25.7803H32.2472V33.4402H33.5007V25.7803ZM36.0606 33.4578V27.0569H34.8248V33.4578H36.0606ZM30.9055 33.4578V29.6543H29.7138V33.4578H30.9055ZM31.4527 8.39138L33.4742 9.72966V7.08831L31.4527 8.39138Z" fill="#1FB048"/>
<path d="M14.1956 28.3786C14.1956 31.3017 14.1956 34.216 14.1956 37.1831C14.2291 37.5588 14.1798 37.9372 14.0513 38.2919C13.9227 38.6466 13.718 38.969 13.4515 39.2366C13.1849 39.5041 12.863 39.7103 12.5082 39.8408C12.1534 39.9712 11.7743 40.0227 11.3974 39.9917H2.8173C2.43974 40.0241 2.05965 39.9736 1.70375 39.8437C1.34785 39.7139 1.02479 39.5079 0.757247 39.2402C0.489706 38.9725 0.284181 38.6496 0.155127 38.2942C0.0260724 37.9389 -0.0233839 37.5596 0.0102304 37.1831V19.5741C-0.0204938 19.201 0.0305786 18.8256 0.159895 18.4742C0.289211 18.1227 0.493677 17.8035 0.759092 17.5388C1.02451 17.2741 1.34451 17.0701 1.69688 16.9411C2.04926 16.8121 2.42555 16.7612 2.79964 16.7919H11.4151C11.7893 16.7624 12.1654 16.8145 12.5174 16.9446C12.8693 17.0747 13.1887 17.2797 13.4533 17.5452C13.7178 17.8108 13.9213 18.1306 14.0495 18.4825C14.1777 18.8344 14.2276 19.2099 14.1956 19.5829C14.2045 22.4708 14.1956 25.4027 14.1956 28.3786ZM2.59662 33.5028V24.4958H6.47179V28.2994H7.7694V25.7372H11.6269V33.406H12.8892V23.2015H1.33433V33.4588L2.59662 33.5028ZM12.9422 21.8809C12.9422 21.0004 12.9422 20.12 12.9422 19.2395C12.9307 18.9203 12.7955 18.618 12.565 18.3962C12.3344 18.1745 12.0266 18.0507 11.7064 18.0509C8.66979 18.0509 5.6332 18.0509 2.59662 18.0509C2.29687 18.0447 2.00563 18.1506 1.7802 18.3477C1.55477 18.5449 1.41146 18.819 1.37845 19.1163C1.32549 19.9967 1.37845 20.9564 1.37845 21.8897L12.9422 21.8809ZM1.34315 34.7707C1.34315 35.6511 1.34315 36.5316 1.34315 37.412C1.35681 37.732 1.49396 38.0344 1.72591 38.2559C1.95786 38.4774 2.26667 38.6009 2.5878 38.6006H11.6975C11.9909 38.6076 12.2765 38.5063 12.4997 38.3162C12.7228 38.1261 12.8678 37.8606 12.9069 37.5705C12.9687 36.6372 12.9069 35.704 12.9069 34.7619L1.34315 34.7707ZM5.18302 33.45V25.7813H3.93837V33.45H5.18302ZM10.3558 27.0755H9.10231V33.4412H10.294L10.3558 27.0755ZM7.7694 29.6288H6.52475V33.4412H7.7694V29.6288Z" fill="#1FB048"/>
<path d="M17.6195 16.7462L17.2664 15.7777C17.2594 15.7168 17.2366 15.6587 17.2002 15.6093C17.1638 15.5599 17.1152 15.5208 17.059 15.4959C17.0028 15.471 16.9411 15.4611 16.8799 15.4673C16.8188 15.4735 16.7603 15.4955 16.7103 15.5312C16.3837 15.672 16.0217 15.9362 15.7304 15.8833C15.4391 15.8305 15.2185 15.4343 14.9713 15.1878C14.1857 14.4042 13.4 13.6118 12.6056 12.837C12.5643 12.8097 12.5291 12.7743 12.5021 12.7329C12.4751 12.6915 12.4569 12.645 12.4486 12.5963C12.4403 12.5476 12.4421 12.4978 12.454 12.4498C12.4658 12.4019 12.4873 12.3568 12.5173 12.3175C12.6321 12.1238 12.7203 11.9125 12.8174 11.71C12.9145 11.5075 12.8881 11.1993 12.5526 11.0937L11.6258 10.7679V9.00702H8.63331C7.95361 9.00702 7.75058 9.20952 7.75058 9.88747V10.2925H10.8931L7.10619 15.9538L3.32812 10.3013H6.46181C6.46181 10.0636 6.46181 9.86105 6.46181 9.66735C6.45947 9.41192 6.50804 9.15857 6.60469 8.92202C6.70135 8.68546 6.84416 8.47042 7.02484 8.28939C7.20552 8.10835 7.42047 7.96493 7.6572 7.86745C7.89392 7.76997 8.1477 7.72038 8.4038 7.72156C9.28653 7.72156 10.2575 7.72156 11.1844 7.72156H11.6169C11.6169 7.2109 11.6169 6.72665 11.6169 6.25121C11.6094 6.20952 11.6103 6.16674 11.6196 6.1254C11.6288 6.08406 11.6463 6.045 11.671 6.01053C11.6957 5.97605 11.7271 5.94687 11.7633 5.92469C11.7995 5.90252 11.8398 5.8878 11.8818 5.88141C12.14 5.80915 12.3936 5.72094 12.6409 5.61728C12.6936 5.60497 12.7425 5.58013 12.7835 5.54488C12.8244 5.50964 12.8562 5.46503 12.8762 5.41486C12.8961 5.3647 12.9036 5.31046 12.898 5.25679C12.8924 5.20312 12.8738 5.15159 12.8439 5.10662V5.03618C12.7115 4.74563 12.429 4.41987 12.482 4.15573C12.535 3.89159 12.9057 3.62746 13.1529 3.38094C13.9385 2.58853 14.733 1.81373 15.5098 1.02133C15.5418 0.972323 15.5834 0.930189 15.632 0.897392C15.6806 0.864595 15.7352 0.84179 15.7928 0.830313C15.8503 0.818836 15.9096 0.818915 15.9671 0.830548C16.0246 0.842181 16.0792 0.865135 16.1277 0.898064C17.2134 1.46155 17.1251 1.44395 17.5135 0.343382C17.5135 0.228923 17.593 0.123263 17.646 0H22.4215C22.5363 0.308158 22.651 0.625125 22.7569 0.933283C22.8629 1.24144 23.0482 1.32949 23.3395 1.18861C23.6308 1.04774 24.0104 0.783605 24.2841 0.836432C24.5577 0.88926 24.796 1.27666 25.0432 1.52318C25.8377 2.30678 26.6145 3.09919 27.4177 3.87399C27.4611 3.90376 27.498 3.94202 27.5261 3.98645C27.5542 4.03088 27.573 4.08055 27.5812 4.13243C27.5895 4.18432 27.5871 4.23734 27.5741 4.28826C27.5612 4.33919 27.538 4.38696 27.506 4.42867C27.3824 4.63998 27.2942 4.86009 27.1882 5.08021C27.0823 5.30032 27.1882 5.51163 27.4177 5.60848L28.3976 5.96066V10.7679L27.4531 11.1113C27.1353 11.2169 27.0647 11.4018 27.2059 11.6924C27.3471 11.9829 27.6208 12.3351 27.5678 12.5728C27.5148 12.8106 27.1353 13.0923 26.8881 13.3388C26.1113 14.1312 25.308 14.906 24.5312 15.6984C24.5018 15.7456 24.463 15.7863 24.4172 15.8178C24.3713 15.8494 24.3195 15.8712 24.2649 15.882C24.2102 15.8927 24.154 15.8921 24.0995 15.8802C24.0451 15.8683 23.9938 15.8454 23.9486 15.8129C23.7399 15.6897 23.5214 15.5837 23.2954 15.4959C23.2498 15.4681 23.1984 15.4512 23.1452 15.4466C23.0919 15.442 23.0383 15.4499 22.9887 15.4696C22.939 15.4892 22.8946 15.5201 22.859 15.5598C22.8233 15.5996 22.7975 15.647 22.7834 15.6984C22.7605 15.7463 22.7427 15.7965 22.7305 15.8481C22.4127 16.7286 22.4127 16.7286 21.4682 16.7286L17.6195 16.7462ZM16.0482 14.4482C16.2575 14.2644 16.5199 14.1518 16.7976 14.1264C17.0752 14.1011 17.3538 14.1645 17.593 14.3073C18.0079 14.5274 18.3433 14.7035 18.4757 15.1878C18.5035 15.2531 18.5471 15.3106 18.6025 15.3552C18.658 15.3997 18.7236 15.4299 18.7935 15.4431C19.6233 15.4431 20.453 15.4431 21.2916 15.4431C21.3502 15.4339 21.406 15.4117 21.4549 15.3782C21.5038 15.3447 21.5445 15.3007 21.5741 15.2494C21.6712 14.6683 22.0772 14.457 22.5716 14.2545C22.7426 14.1446 22.9418 14.0861 23.1453 14.0861C23.3488 14.0861 23.5481 14.1446 23.7191 14.2545C23.9398 14.413 24.0899 14.3337 24.2576 14.1488C24.6901 13.691 25.1403 13.2684 25.5993 12.8106C26.0583 12.3527 26.1113 12.3087 25.8024 11.7012C25.5905 11.2786 25.9701 11.0321 26.0319 10.6975C26.0568 10.5 26.148 10.3168 26.2906 10.1777C26.4333 10.0386 26.619 9.95183 26.8175 9.93149C27.0823 9.93149 27.1441 9.72899 27.1353 9.48246C27.1353 8.72527 27.1353 7.97689 27.1353 7.22851C27.1353 6.95557 27.0646 6.79709 26.7998 6.75306C26.3849 6.68263 26.2084 6.42729 26.0319 6.0487C25.8614 5.80287 25.7783 5.50719 25.7959 5.20879C25.8135 4.91039 25.9308 4.62645 26.129 4.40226C25.5199 3.80355 24.9285 3.25767 24.3635 2.64135C24.0899 2.3508 23.8604 2.25396 23.4808 2.50048C23.3715 2.59068 23.2342 2.64003 23.0924 2.64003C22.9506 2.64003 22.8132 2.59068 22.704 2.50048C22.5915 2.42484 22.4657 2.37107 22.3332 2.342C22.1266 2.31962 21.9345 2.22523 21.7908 2.07544C21.6471 1.92565 21.5609 1.73008 21.5476 1.52318C21.5476 1.30307 21.3887 1.22383 21.1504 1.23263C20.3648 1.23263 19.5703 1.23263 18.7758 1.23263C18.7306 1.22514 18.6842 1.22675 18.6396 1.23737C18.595 1.24799 18.5529 1.2674 18.5159 1.29447C18.4789 1.32154 18.4477 1.35573 18.4241 1.395C18.4005 1.43428 18.3851 1.47786 18.3786 1.52318C18.3168 1.72569 18.2815 2.01624 18.1403 2.10428C17.7464 2.33237 17.3253 2.50986 16.8868 2.63255C16.7279 2.63255 16.5072 2.47407 16.3042 2.42124C16.1012 2.36841 15.9423 2.3508 15.8628 2.42124C15.2449 3.00234 14.6535 3.60104 14.0974 4.18214C14.0642 4.22377 14.0407 4.2722 14.0285 4.32394C14.0163 4.37569 14.0157 4.42949 14.0268 4.4815C14.4152 4.98336 14.221 5.44119 14.0268 5.96066C13.9758 6.15052 13.8714 6.32187 13.7259 6.45448C13.5805 6.58709 13.4 6.67541 13.2058 6.70904C12.994 6.70904 12.8969 6.84991 12.9057 7.09644C12.9057 7.89765 12.9057 8.69886 12.9057 9.50007C12.9057 9.61453 13.0205 9.79942 13.1087 9.81703C13.6737 9.91388 13.8767 10.3101 14.0797 10.7855C14.1969 10.9682 14.2591 11.1806 14.2591 11.3974C14.2591 11.6143 14.1969 11.8267 14.0797 12.0094C14.0496 12.0663 14.0338 12.1298 14.0338 12.1942C14.0338 12.2587 14.0496 12.3222 14.0797 12.3791C14.7065 13.1275 15.3685 13.7702 16.0482 14.4482ZM7.10619 13.647L8.45677 11.6308H5.75562L7.10619 13.647Z" fill="#1FB048"/>
<path d="M34.8173 19.3418V20.5832H31.0039V19.3418H34.8173Z" fill="#1FB048"/>
<path d="M29.7129 37.2951V36.0625H36.1127V37.2951H29.7129Z" fill="#1FB048"/>
<path d="M9.02439 19.3516V20.5754H5.19336V19.3516H9.02439Z" fill="#1FB048"/>
<path d="M10.2942 37.3225H3.91211V36.0723H10.2942V37.3225Z" fill="#1FB048"/>
<path d="M20.0049 3.24026C21.0248 3.24376 22.0208 3.54896 22.8668 4.11724C23.7128 4.68552 24.3708 5.49135 24.7575 6.43273C25.1441 7.37412 25.2421 8.40876 25.0391 9.40573C24.836 10.4027 24.341 11.3172 23.6167 12.0334C22.8924 12.7497 21.9714 13.2356 20.9701 13.4296C19.9689 13.6235 18.9325 13.5169 17.992 13.1232C17.0515 12.7294 16.2493 12.0663 15.6868 11.2177C15.1243 10.369 14.8269 9.373 14.8321 8.35569C14.8391 6.99352 15.3878 5.68978 16.3576 4.7307C17.3274 3.77162 18.6392 3.23558 20.0049 3.24026ZM16.1209 8.37329C16.1191 9.13601 16.3442 9.88212 16.7676 10.5173C17.191 11.1524 17.7937 11.6481 18.4995 11.9415C19.2053 12.235 19.9825 12.3132 20.7328 12.1661C21.4832 12.019 22.1729 11.6533 22.7149 11.1152C23.2568 10.5771 23.6266 9.89079 23.7775 9.14306C23.9284 8.39534 23.8536 7.61979 23.5626 6.91446C23.2716 6.20914 22.7774 5.60573 22.1426 5.18054C21.5077 4.75535 20.7607 4.52747 19.9961 4.52573C18.9744 4.53036 17.9959 4.93721 17.2735 5.65777C16.5511 6.37833 16.1432 7.35428 16.1385 8.37329H16.1209Z" fill="#1FB048"/>
<path d="M20.0052 10.9523C19.4958 10.9488 18.9989 10.7949 18.5771 10.5099C18.1554 10.2249 17.8278 9.82164 17.6357 9.35106C17.4435 8.88048 17.3955 8.36367 17.4977 7.86589C17.5998 7.36811 17.8476 6.91169 18.2096 6.55425C18.5717 6.19682 19.0318 5.9544 19.5319 5.85762C20.032 5.76084 20.5496 5.81402 21.0194 6.01047C21.4892 6.20691 21.8901 6.5378 22.1715 6.96135C22.4529 7.3849 22.6022 7.88211 22.6004 8.39021C22.5958 9.07287 22.32 9.72584 21.8336 10.2061C21.3471 10.6863 20.6896 10.9547 20.0052 10.9523ZM20.0052 9.66686C20.2605 9.66861 20.5105 9.5947 20.7236 9.45452C20.9367 9.31433 21.1033 9.11419 21.2022 8.87946C21.3011 8.64473 21.3279 8.38599 21.2791 8.13606C21.2304 7.88613 21.1083 7.65627 20.9285 7.47561C20.7486 7.29495 20.519 7.17164 20.2687 7.12133C20.0185 7.07101 19.7589 7.09595 19.5229 7.19298C19.2869 7.29001 19.0851 7.45476 18.9431 7.66634C18.8011 7.87791 18.7253 8.12679 18.7253 8.38141C18.7298 8.71942 18.8658 9.04245 19.1046 9.2823C19.3434 9.52215 19.6664 9.66004 20.0052 9.66686Z" fill="#1FB048"/>
</svg>
