<svg width="45" height="40" viewBox="0 0 45 40" fill="none" xmlns="http://www.w3.org/2000/svg">
<path d="M4.82058 30.1831C4.199 30.1831 3.64354 30.2223 3.10131 30.1831C2.27458 30.1169 1.50198 29.7501 0.932838 29.1534C0.363693 28.5568 0.0384055 27.7727 0.0198378 26.9526C-0.0066126 25.514 -0.0066126 24.0732 0.0198378 22.6302C0.0400129 21.7693 0.39483 20.9492 1.01056 20.3403C1.62629 19.7314 2.45559 19.3805 3.32614 19.3605C3.80886 19.3605 4.28496 19.3605 4.82058 19.3605C4.82058 18.7654 4.82058 18.2227 4.82058 17.6865C4.8096 13.708 6.10181 9.83308 8.50379 6.64158C11.1204 3.23181 14.977 0.963727 19.2559 0.318076C23.5738 -0.502439 28.046 0.277343 31.8198 2.50874C33.9086 3.72745 35.7017 5.38439 37.0728 7.36276C38.4438 9.34113 39.3593 11.5928 39.7549 13.9591C39.9747 15.3805 40.1182 16.8124 40.1847 18.2488C40.2178 18.5889 40.1847 18.9355 40.1847 19.354H41.5073C41.9696 19.3423 42.4294 19.4238 42.8588 19.5936C43.2882 19.7633 43.6781 20.0178 44.0048 20.3415C44.3315 20.6652 44.5881 21.0513 44.759 21.4762C44.9299 21.9012 45.0114 22.3561 44.9987 22.8133C44.9987 24.1211 44.9987 25.4617 44.9987 26.7892C45.0204 27.6606 44.6962 28.5058 44.0956 29.1438C43.4949 29.7818 42.6655 30.1619 41.785 30.2027C41.3666 30.2288 40.947 30.2288 40.5286 30.2027C40.3995 30.185 40.2684 30.2163 40.1616 30.2903C40.0549 30.3643 39.9805 30.4755 39.9533 30.6016C39.6728 31.3034 39.1703 31.8967 38.5208 32.293C37.8713 32.6892 37.1096 32.8672 36.3495 32.8002C35.5894 32.7333 34.8715 32.4251 34.303 31.9216C33.7346 31.4181 33.346 30.7463 33.1952 30.0065C33.1432 29.713 33.121 29.415 33.1291 29.1171C33.1291 26.2202 33.2018 23.3233 33.1291 20.4264C33.0918 19.7999 33.2245 19.1748 33.5132 18.6159C33.802 18.057 34.2364 17.5844 34.7717 17.2471C35.3069 16.9098 35.9235 16.72 36.5578 16.6972C37.192 16.6744 37.8209 16.8195 38.3795 17.1175L38.525 17.1633C38.7167 13.7433 37.0371 8.15215 32.1041 4.66671C26.6752 0.828137 20.8627 0.396551 14.9114 3.41771C12.3755 4.7212 10.248 6.6851 8.7586 9.09727C7.2692 11.5094 6.47456 14.2782 6.4605 17.1045C7.12933 16.9564 7.8076 16.8537 8.49057 16.7971C8.92752 16.7876 9.36205 16.8638 9.76902 17.0214C10.176 17.179 10.5473 17.4148 10.8616 17.7152C11.1758 18.0156 11.4267 18.3746 11.5997 18.7716C11.7727 19.1685 11.8645 19.5953 11.8696 20.0275C11.8696 23.2579 11.9093 26.4884 11.8696 29.7122C11.8696 31.9683 9.22457 33.505 7.00935 32.6353C6.84404 32.5699 6.67872 32.4914 6.34809 32.3606C6.34191 33.2123 6.40604 34.0631 6.53985 34.9044C6.65219 35.3777 6.91277 35.8039 7.28443 36.1221C7.65608 36.4403 8.11985 36.6343 8.6096 36.6766C8.80618 36.7102 9.00524 36.7277 9.20473 36.7289H15.738C15.8585 36.7442 15.9808 36.719 16.0851 36.6573C16.1894 36.5956 16.2698 36.5011 16.3133 36.3889C16.4992 35.9896 16.7993 35.653 17.1765 35.4206C17.5538 35.1881 17.9916 35.0701 18.4359 35.081C19.5733 35.081 20.7173 35.081 21.8546 35.081C22.5123 35.081 23.143 35.3394 23.6081 35.7992C24.0731 36.2591 24.3343 36.8829 24.3343 37.5332C24.3343 38.1836 24.0731 38.8073 23.6081 39.2672C23.143 39.7271 22.5123 39.9855 21.8546 39.9855C20.6974 40.0182 19.5402 39.9855 18.3896 39.9855C17.9502 39.9933 17.518 39.8736 17.1467 39.6412C16.7753 39.4087 16.481 39.0737 16.3 38.6776C16.2497 38.5517 16.1551 38.448 16.0336 38.3855C15.9121 38.3231 15.7719 38.306 15.6388 38.3376C13.4831 38.3376 11.3208 38.3376 9.16505 38.3376C8.13255 38.3901 7.11656 38.0653 6.31055 37.425C5.50454 36.7847 4.9648 35.8736 4.79413 34.8652C4.73773 34.4557 4.71782 34.0422 4.73462 33.6293C4.81397 32.4914 4.82058 31.3994 4.82058 30.1831ZM34.7492 24.762C34.7492 26.2856 34.7492 27.8093 34.7492 29.3395C34.7338 29.5983 34.7721 29.8575 34.8617 30.1012C34.9513 30.3449 35.0903 30.5679 35.2702 30.7566C35.4501 30.9452 35.667 31.0955 35.9078 31.1982C36.1485 31.3009 36.408 31.3539 36.6702 31.3539C36.9323 31.3539 37.1918 31.3009 37.4325 31.1982C37.6733 31.0955 37.8902 30.9452 38.0701 30.7566C38.25 30.5679 38.389 30.3449 38.4786 30.1012C38.5682 29.8575 38.6065 29.5983 38.5911 29.3395C38.5911 26.3314 38.5911 23.3211 38.5911 20.3087C38.6065 20.0499 38.5682 19.7907 38.4786 19.547C38.389 19.3033 38.25 19.0803 38.0701 18.8916C37.8902 18.703 37.6733 18.5527 37.4325 18.45C37.1918 18.3473 36.9323 18.2943 36.6702 18.2943C36.408 18.2943 36.1485 18.3473 35.9078 18.45C35.667 18.5527 35.4501 18.703 35.2702 18.8916C35.0903 19.0803 34.9513 19.3033 34.8617 19.547C34.7721 19.7907 34.7338 20.0499 34.7492 20.3087C34.7426 21.7997 34.7492 23.2906 34.7492 24.7751V24.762ZM6.42744 24.762C6.42744 26.2987 6.42744 27.842 6.42744 29.3787C6.42744 29.8817 6.62948 30.364 6.98911 30.7197C7.34874 31.0753 7.8365 31.2751 8.34509 31.2751C8.85369 31.2751 9.34145 31.0753 9.70108 30.7197C10.0607 30.364 10.2627 29.8817 10.2627 29.3787C10.2627 26.3271 10.2627 23.2754 10.2627 20.2237C10.2627 19.719 10.06 19.235 9.69914 18.8781C9.33827 18.5213 8.84883 18.3208 8.33848 18.3208C7.82813 18.3208 7.33869 18.5213 6.97782 18.8781C6.61695 19.235 6.41422 19.719 6.41422 20.2237L6.42744 24.762ZM4.80074 20.943C4.25851 20.943 3.77579 20.943 3.29307 20.943C2.8529 20.9657 2.43739 21.151 2.12879 21.4623C1.8202 21.7735 1.64101 22.188 1.62669 22.6236C1.62669 24.0557 1.62669 25.4944 1.62669 26.933C1.62863 27.3015 1.75442 27.6589 1.98426 27.949C2.21411 28.239 2.53496 28.4452 2.89632 28.5352C3.52778 28.6169 4.1639 28.6584 4.80074 28.6594V20.943ZM40.2178 28.6136C40.7487 28.64 41.2806 28.64 41.8114 28.6136C42.2418 28.5808 42.644 28.389 42.938 28.0765C43.2321 27.7639 43.3964 27.3534 43.3985 26.9265C43.3985 25.5075 43.3985 24.0884 43.3985 22.6629C43.4165 22.3098 43.3115 21.9612 43.1008 21.6755C42.8902 21.3899 42.5868 21.1844 42.2413 21.0934C41.5753 20.9778 40.9006 20.9187 40.2244 20.9169L40.2178 28.6136ZM20.1486 38.3506C20.704 38.3506 21.2529 38.3506 21.8017 38.3506C21.9232 38.3611 22.0455 38.3464 22.1609 38.3076C22.2764 38.2688 22.3824 38.2067 22.4723 38.1253C22.5621 38.0438 22.6339 37.9447 22.683 37.8344C22.732 37.724 22.7574 37.6047 22.7574 37.4842C22.7574 37.3636 22.732 37.2444 22.683 37.134C22.6339 37.0236 22.5621 36.9246 22.4723 36.8431C22.3824 36.7616 22.2764 36.6995 22.1609 36.6607C22.0455 36.6219 21.9232 36.6073 21.8017 36.6177C20.7173 36.6177 19.6328 36.6177 18.5483 36.6177C18.3168 36.6177 18.0948 36.7087 17.9311 36.8706C17.7674 37.0324 17.6755 37.252 17.6755 37.4809C17.6755 37.7099 17.7674 37.9294 17.9311 38.0913C18.0948 38.2532 18.3168 38.3441 18.5483 38.3441C19.0839 38.3637 19.6196 38.3506 20.1486 38.3506Z" fill="#00C2FF"/>
<path d="M17.1266 25.972C17.1266 25.887 17.1266 25.8086 17.1266 25.7235C17.1976 25.1357 17.1482 24.5398 16.9811 23.9713C16.8141 23.4028 16.533 22.8734 16.1546 22.4147C15.2613 21.1734 14.7812 19.6877 14.7812 18.1641C14.7812 16.6406 15.2613 15.1549 16.1546 13.9136C16.9116 12.8165 17.9461 11.9347 19.1551 11.3562C20.3641 10.7778 21.7053 10.5228 23.045 10.6167C24.3847 10.7106 25.6761 11.1501 26.7905 11.8914C27.9049 12.6328 28.8033 13.65 29.3962 14.8417C29.9892 16.0335 30.2559 17.3581 30.1697 18.6835C30.0836 20.009 29.6477 21.289 28.9054 22.3959C28.1632 23.5028 27.1405 24.3979 25.9393 24.9921C24.7382 25.5864 23.4005 25.8588 22.0596 25.7824C21.8654 25.7621 21.669 25.7883 21.4871 25.8589C21.3053 25.9294 21.1433 26.0423 21.0149 26.1878C20.2478 26.9726 19.4411 27.718 18.6608 28.4897C18.5465 28.6457 18.3844 28.7611 18.1986 28.8188C18.0128 28.8765 17.8131 28.8734 17.6292 28.8101C17.1862 28.6401 17.1068 28.2608 17.1134 27.8358C17.1333 27.2276 17.1266 26.5998 17.1266 25.972ZM18.7335 26.0832L18.9187 26.1813C19.4543 25.6189 19.9899 25.05 20.5189 24.4811C20.6418 24.3453 20.7993 24.2446 20.9749 24.1894C21.1505 24.1342 21.3378 24.1266 21.5174 24.1672C22.4322 24.3219 23.3706 24.2662 24.2601 24.0044C25.1496 23.7426 25.9661 23.2818 26.6465 22.6577C27.3269 22.0336 27.8528 21.2629 28.1834 20.4054C28.5141 19.5479 28.6406 18.6266 28.5532 17.7129C28.4723 16.452 27.9758 15.2521 27.1399 14.2967C26.3039 13.3413 25.1745 12.683 23.9244 12.4226C22.6602 12.1031 21.3254 12.1973 20.1199 12.6909C18.9143 13.1846 17.9029 14.0512 17.2372 15.161C16.5715 16.2707 16.2872 17.5639 16.4271 18.8468C16.5669 20.1297 17.1232 21.3333 18.0127 22.2773C18.265 22.5111 18.4598 22.7987 18.5825 23.1183C18.7051 23.438 18.7522 23.781 18.7203 24.1214C18.7004 24.7754 18.7335 25.4293 18.7335 26.0832Z" fill="#00C2FF"/>
<path d="M19.5925 17.5551C19.7015 17.5516 19.8101 17.5698 19.9118 17.6087C20.0136 17.6475 20.1064 17.7062 20.1848 17.7812C20.2631 17.8563 20.3254 17.9461 20.3679 18.0455C20.4104 18.1448 20.4323 18.2516 20.4323 18.3594C20.4358 18.4668 20.4179 18.5738 20.3796 18.6743C20.3413 18.7748 20.2833 18.8669 20.209 18.9452C20.1347 19.0236 20.0455 19.0867 19.9465 19.1309C19.8475 19.1751 19.7407 19.1996 19.6321 19.203C19.4161 19.2033 19.2083 19.1212 19.0519 18.9738C18.8955 18.8264 18.8025 18.6251 18.7923 18.4118C18.7861 18.3031 18.802 18.1944 18.8392 18.0919C18.8764 17.9895 18.934 17.8955 19.0086 17.8156C19.0833 17.7357 19.1735 17.6714 19.2738 17.6266C19.3741 17.5819 19.4824 17.5576 19.5925 17.5551Z" fill="#00C2FF"/>
<path d="M26.2322 18.3657C26.2339 18.5837 26.149 18.7937 25.9956 18.9503C25.8421 19.1069 25.6326 19.1976 25.4122 19.2027C25.3036 19.2018 25.1963 19.1799 25.0964 19.138C24.9964 19.0961 24.9058 19.0352 24.8296 18.9587C24.7535 18.8822 24.6933 18.7916 24.6526 18.6921C24.6119 18.5926 24.5914 18.4861 24.5922 18.3787C24.5887 18.2718 24.6069 18.1652 24.6459 18.0654C24.6848 17.9656 24.7437 17.8745 24.819 17.7976C24.8942 17.7208 24.9844 17.6596 25.084 17.6179C25.1837 17.5762 25.2908 17.5547 25.399 17.5548C25.5077 17.5531 25.6158 17.5727 25.7168 17.6127C25.8178 17.6527 25.9098 17.7121 25.9873 17.7876C26.0649 17.8631 26.1265 17.9531 26.1685 18.0523C26.2105 18.1515 26.2322 18.2581 26.2322 18.3657Z" fill="#00C2FF"/>
<path d="M23.33 18.366C23.3402 18.4782 23.3267 18.5912 23.2903 18.698C23.2539 18.8047 23.1954 18.9027 23.1186 18.9858C23.0417 19.069 22.9482 19.1354 22.844 19.1808C22.7398 19.2262 22.6272 19.2497 22.5133 19.2497C22.3994 19.2497 22.2868 19.2262 22.1826 19.1808C22.0784 19.1354 21.9849 19.069 21.9081 18.9858C21.8312 18.9027 21.7728 18.8047 21.7364 18.698C21.7 18.5912 21.6864 18.4782 21.6967 18.366C21.6864 18.2539 21.7 18.1408 21.7364 18.0341C21.7728 17.9274 21.8312 17.8294 21.9081 17.7462C21.9849 17.6631 22.0784 17.5967 22.1826 17.5513C22.2868 17.5059 22.3994 17.4824 22.5133 17.4824C22.6272 17.4824 22.7398 17.5059 22.844 17.5513C22.9482 17.5967 23.0417 17.6631 23.1186 17.7462C23.1954 17.8294 23.2539 17.9274 23.2903 18.0341C23.3267 18.1408 23.3402 18.2539 23.33 18.366Z" fill="#00C2FF"/>
</svg>
