<svg width="49" height="40" viewBox="0 0 49 40" fill="none" xmlns="http://www.w3.org/2000/svg">
<path d="M48.9775 6.5553C48.7987 7.55775 48.4162 8.51101 47.8546 9.35389C46.9994 10.5159 45.7534 11.3151 44.3556 11.5982C42.9578 11.8812 41.5067 11.6282 40.2806 10.8877L39.9157 10.6759L35.8452 15.2544C36.2273 16.0851 36.5628 16.9373 36.8502 17.8069C37.7541 21.1492 35.1658 24.7662 31.7971 24.9722C30.4321 25.0892 29.0712 24.7047 27.9601 23.8881C26.849 23.0715 26.0612 21.8767 25.739 20.5196C25.7318 20.4456 25.7095 20.3738 25.6734 20.3091C25.6374 20.2444 25.5884 20.1881 25.5296 20.1439C25.4709 20.0997 25.4037 20.0685 25.3325 20.0524C25.2612 20.0363 25.1874 20.0356 25.1158 20.0503C23.9929 20.0503 22.87 20.0503 21.7808 20.0503C21.7327 21.0692 21.4303 22.0587 20.9022 22.9251C20.374 23.7915 19.6377 24.5061 18.7628 25.0013C17.888 25.4964 16.9036 25.7558 15.9029 25.7547C14.9022 25.7536 13.9184 25.4921 13.0446 24.9951L9.67584 29.6422C10.4317 30.4044 10.9893 31.3466 11.2984 32.3836C11.535 33.1623 11.6101 33.9827 11.5189 34.7925C11.4277 35.6024 11.1723 36.3841 10.7688 37.088C10.3653 37.7918 9.82252 38.4024 9.17505 38.8809C8.52758 39.3594 7.78954 39.6954 7.00783 39.8675C6.22611 40.0396 5.41782 40.0441 4.63432 39.8807C3.85081 39.7172 3.10923 39.3894 2.4567 38.9181C1.80417 38.4468 1.25496 37.8423 0.84397 37.1429C0.432978 36.4436 0.169193 35.6648 0.0693806 34.8559C-0.0925066 33.805 0.0301691 32.7289 0.424174 31.7437C0.818178 30.7586 1.46856 29.9017 2.30517 29.2657C3.14179 28.6296 4.13288 28.2385 5.17157 28.1344C6.21025 28.0303 7.25711 28.2172 8.19922 28.675C8.49118 28.8124 8.64838 28.8238 8.85612 28.5205C9.86112 27.0783 10.8998 25.659 11.8992 24.2625C11.4777 23.6859 11.0878 23.086 10.7314 22.4655C10.1701 21.3018 10.0032 19.9813 10.257 18.7106C10.5107 17.44 11.1707 16.291 12.1336 15.4436C13.0965 14.5962 14.3079 14.0983 15.5782 14.0278C16.8484 13.9573 18.1057 14.3183 19.1532 15.0541C20.2843 15.8108 21.102 16.9662 21.4495 18.2991C21.4553 18.3663 21.475 18.4315 21.5072 18.4905C21.5394 18.5494 21.5834 18.6008 21.6363 18.6413C21.6893 18.6818 21.75 18.7105 21.8146 18.7255C21.8791 18.7405 21.946 18.7414 22.011 18.7283C23.1339 18.7283 24.3017 18.7283 25.4807 18.7283C25.7615 16.4391 26.8226 14.7221 28.8495 13.7893C30.8763 12.8564 32.8245 13.217 34.6717 14.4589L38.6973 9.88041C38.2688 9.06333 37.8937 8.21829 37.5744 7.35081C37.3495 6.51443 37.311 5.63735 37.4617 4.78382C37.6123 3.9303 37.9484 3.12193 38.4453 2.41795C38.9421 1.71396 39.5872 1.13217 40.3332 0.715198C41.0791 0.298224 41.9072 0.0566203 42.7566 0.00809073C44.189 -0.0674716 45.5997 0.388252 46.7278 1.29097C47.856 2.19368 48.6252 3.48231 48.8933 4.9185C48.8933 5.03868 48.9663 5.15887 49 5.27906L48.9775 6.5553ZM11.4332 19.8042C11.4055 20.4083 11.4972 21.0118 11.7029 21.5789C11.9086 22.1461 12.2241 22.6653 12.6307 23.1056C13.0372 23.546 13.5265 23.8985 14.0694 24.1422C14.6122 24.3859 15.1977 24.5159 15.7908 24.5243C16.384 24.5328 16.9727 24.4195 17.5221 24.1914C18.0714 23.9632 18.5701 23.6247 18.9886 23.1961C19.407 22.7675 19.7366 22.2575 19.9578 21.6965C20.179 21.1354 20.2872 20.5347 20.2761 19.9301C20.3038 19.3261 20.2121 18.7226 20.0063 18.1555C19.8006 17.5883 19.4851 17.0691 19.0786 16.6288C18.672 16.1884 18.1828 15.8359 17.6399 15.5922C17.097 15.3485 16.5116 15.2185 15.9184 15.2101C15.3253 15.2016 14.7365 15.3149 14.1872 15.543C13.6378 15.7712 13.1391 16.1097 12.7207 16.5383C12.3022 16.9669 11.9726 17.4769 11.7514 18.0379C11.5303 18.599 11.422 19.1997 11.4332 19.8042ZM47.5346 5.79986C47.5246 4.90677 47.2557 4.03665 46.7617 3.299C46.2677 2.56135 45.5707 1.98914 44.7583 1.65439C43.946 1.31964 43.0547 1.23731 42.1965 1.41775C41.3384 1.5982 40.5518 2.03336 39.9358 2.66847C39.3197 3.30358 38.9017 4.11026 38.7344 4.98697C38.5671 5.86368 38.658 6.77124 38.9955 7.59544C39.3331 8.41964 39.9023 9.12363 40.6315 9.61882C41.3607 10.114 42.2173 10.3783 43.0935 10.3783C44.2789 10.3693 45.4128 9.88289 46.2478 9.02524C47.0829 8.16759 47.5515 7.00822 47.5515 5.79986H47.5346ZM35.5981 19.0202C35.5848 18.1298 35.3132 17.2634 34.8175 16.5302C34.3219 15.7969 33.6243 15.2296 32.8129 14.8999C32.0014 14.5701 31.1124 14.4926 30.2577 14.677C29.4031 14.8615 28.6212 15.2998 28.0106 15.9366C27.3999 16.5733 26.9879 17.3801 26.8264 18.2553C26.6649 19.1304 26.7612 20.0346 27.1031 20.8541C27.445 21.6735 28.0172 22.3714 28.7476 22.8598C29.4781 23.3482 30.334 23.6053 31.2076 23.5986C31.7922 23.5942 32.3702 23.4721 32.9085 23.2393C33.4467 23.0066 33.9346 22.6678 34.3441 22.2424C34.7536 21.817 35.0766 21.3134 35.2947 20.7605C35.5128 20.2075 35.6216 19.6161 35.615 19.0202H35.5981ZM5.65584 38.3757C6.53102 38.3723 7.3856 38.1047 8.11175 37.6067C8.83789 37.1087 9.40306 36.4027 9.73593 35.5776C10.0688 34.7525 10.1545 33.8455 9.98209 32.9708C9.80972 32.0962 9.38705 31.2932 8.76742 30.6632C8.14778 30.0332 7.35896 29.6044 6.50048 29.4309C5.642 29.2574 4.75234 29.347 3.94377 29.6884C3.13521 30.0298 2.44396 30.6076 1.95727 31.3491C1.47057 32.0905 1.21024 32.9623 1.20913 33.8544C1.21359 35.0571 1.68618 36.2088 2.5231 37.0565C3.36002 37.9042 4.49282 38.3787 5.67268 38.3757H5.65584Z" fill="#CB9201"/>
<path d="M15.8511 16.6797C16.6798 16.6971 17.47 17.0392 18.0576 17.635C18.6452 18.2307 18.985 19.0344 19.0065 19.8789C19.0087 20.5141 18.826 21.1358 18.4815 21.6651C18.137 22.1945 17.6462 22.6078 17.0712 22.8527C16.4962 23.0977 15.8628 23.1632 15.2513 23.0411C14.6397 22.919 14.0774 22.6147 13.6355 22.1667C13.1937 21.7187 12.8922 21.1472 12.7691 20.5244C12.646 19.9017 12.7069 19.2557 12.9441 18.6683C13.1813 18.0809 13.5841 17.5784 14.1016 17.2244C14.6191 16.8704 15.2279 16.6808 15.8511 16.6797ZM15.8848 21.6931C16.2385 21.6852 16.5819 21.5706 16.8718 21.364C17.1616 21.1574 17.385 20.8678 17.5137 20.532C17.6423 20.1961 17.6706 19.8289 17.5948 19.4767C17.519 19.1245 17.3426 18.8031 17.0878 18.553C16.833 18.3028 16.5113 18.1352 16.1632 18.0712C15.8151 18.0072 15.4562 18.0497 15.1317 18.1934C14.8073 18.337 14.5319 18.5754 14.3401 18.8784C14.1484 19.1814 14.049 19.5355 14.0545 19.8961C14.0677 20.3823 14.2685 20.8437 14.6132 21.1801C14.958 21.5165 15.4189 21.7008 15.8961 21.6931H15.8848Z" fill="#CB9201"/>
<path d="M46.245 5.95504C46.2273 6.58341 46.0281 7.19248 45.6722 7.70592C45.3164 8.21937 44.8199 8.61435 44.2448 8.84137C43.6697 9.06839 43.0417 9.11735 42.4394 8.98212C41.8371 8.84688 41.2874 8.53347 40.8592 8.08115C40.4309 7.62883 40.1431 7.05773 40.0319 6.43941C39.9206 5.8211 39.9909 5.18307 40.2338 4.60528C40.4768 4.02749 40.8817 3.53565 41.3977 3.19139C41.9137 2.84712 42.5179 2.66575 43.1345 2.66999C43.972 2.69247 44.7673 3.04938 45.3491 3.66384C45.9309 4.27829 46.2527 5.10111 46.245 5.95504ZM44.9087 5.7948C44.902 5.43381 44.7904 5.08296 44.5881 4.7866C44.3858 4.49025 44.1018 4.26171 43.772 4.12986C43.4423 3.99802 43.0816 3.9688 42.7356 4.0459C42.3895 4.123 42.0737 4.30296 41.828 4.56302C41.5823 4.82308 41.4177 5.15156 41.3552 5.50694C41.2926 5.86232 41.3348 6.22862 41.4764 6.55955C41.6181 6.89048 41.8528 7.17116 42.151 7.36611C42.4491 7.56106 42.7972 7.66153 43.1514 7.6548C43.3866 7.65033 43.6187 7.59867 43.8343 7.50277C44.0499 7.40687 44.2449 7.26861 44.4081 7.09589C44.5713 6.92316 44.6995 6.71936 44.7854 6.49612C44.8713 6.27287 44.9132 6.03456 44.9087 5.7948Z" fill="#CB9201"/>
<path d="M34.3424 19.1633C34.3379 19.7983 34.1488 20.4177 33.7991 20.9431C33.4493 21.4686 32.9545 21.8765 32.3773 22.1153C31.8 22.3541 31.1663 22.4131 30.5562 22.2847C29.9461 22.1564 29.387 21.8466 28.9497 21.3944C28.5123 20.9422 28.2164 20.3679 28.0992 19.7443C27.982 19.1206 28.0489 18.4755 28.2914 17.8906C28.5339 17.3057 28.9411 16.8072 29.4615 16.4582C29.9819 16.1091 30.5922 15.9253 31.2151 15.9298C32.0472 15.9462 32.8401 16.2936 33.4244 16.8977C34.0087 17.5019 34.3381 18.3149 34.3424 19.1633ZM31.1814 20.9089C31.5365 20.91 31.884 20.8038 32.1799 20.6038C32.4759 20.4037 32.707 20.1188 32.8442 19.7849C32.9814 19.451 33.0184 19.0832 32.9506 18.7279C32.8828 18.3726 32.7133 18.0457 32.4633 17.7886C32.2134 17.5314 31.8944 17.3555 31.5464 17.2831C31.1985 17.2107 30.8373 17.245 30.5085 17.3817C30.1797 17.5184 29.898 17.7513 29.699 18.0511C29.5 18.3509 29.3926 18.7041 29.3904 19.066C29.3947 19.5504 29.5842 20.0141 29.9187 20.3582C30.2532 20.7024 30.7062 20.8999 31.1814 20.9089Z" fill="#CB9201"/>
<path d="M5.65024 37.1093C4.81786 37.1093 4.01956 36.7723 3.43097 36.1723C2.84238 35.5724 2.51172 34.7586 2.51172 33.9101C2.51172 33.0617 2.84238 32.2479 3.43097 31.648C4.01956 31.048 4.81786 30.7109 5.65024 30.7109C6.0624 30.7109 6.47052 30.7937 6.8513 30.9545C7.23209 31.1152 7.57807 31.3509 7.86951 31.648C8.16095 31.945 8.39213 32.2977 8.54986 32.6859C8.70758 33.074 8.78876 33.49 8.78876 33.9101C8.78876 34.3303 8.70758 34.7463 8.54986 35.1344C8.39213 35.5226 8.16095 35.8752 7.86951 36.1723C7.57807 36.4694 7.23209 36.705 6.8513 36.8658C6.47052 37.0266 6.0624 37.1093 5.65024 37.1093ZM7.45251 33.8987C7.46858 33.6495 7.43465 33.3996 7.35279 33.1642C7.27092 32.9289 7.14284 32.713 6.97637 32.5298C6.8099 32.3466 6.60854 32.1999 6.38458 32.0987C6.16062 31.9975 5.91877 31.9439 5.67381 31.9411C5.42884 31.9384 5.1859 31.9866 4.95983 32.0828C4.73375 32.179 4.52929 32.3212 4.35894 32.5007C4.18858 32.6801 4.05591 32.8931 3.96902 33.1266C3.88214 33.3601 3.84286 33.6092 3.85359 33.8586C3.86345 34.3413 4.05481 34.8016 4.38812 35.1446C4.72144 35.4875 5.17124 35.6869 5.64463 35.7015C5.87809 35.703 6.10955 35.6575 6.32573 35.5676C6.54192 35.4778 6.73858 35.3453 6.90445 35.1779C7.07031 35.0104 7.20212 34.8112 7.29231 34.5917C7.38251 34.3722 7.42931 34.1367 7.43005 33.8987H7.45251Z" fill="#CB9201"/>
</svg>
