<svg width="39" height="41" viewBox="0 0 39 41" fill="none" xmlns="http://www.w3.org/2000/svg">
<path d="M16.5956 29.6152C17.6164 28.5429 18.3039 27.1884 18.5722 25.7208C18.8404 24.2533 18.6777 22.7378 18.1042 21.3639C17.5306 19.99 16.5717 18.8184 15.3474 17.9957C14.123 17.1731 12.6875 16.7357 11.2202 16.7383C9.75294 16.7409 8.31903 17.1834 7.09754 18.0104C5.87604 18.8374 4.92118 20.0123 4.35235 21.3883C3.78352 22.7643 3.62594 24.2803 3.89926 25.7468C4.17258 27.2134 4.86467 28.5656 5.88909 29.6342C4.2286 30.3473 2.7972 31.5184 1.75656 33.0155C0.71592 34.5126 0.10755 36.2759 0.000110935 38.1062C-0.00488458 38.5395 0.159012 38.9572 0.455962 39.268C0.752911 39.5787 1.15868 39.7571 1.58461 39.7642H1.61605C2.03772 39.7626 2.44222 39.594 2.74385 39.2942C3.04549 38.9944 3.22061 38.587 3.2321 38.1582C3.24881 37.5272 3.61748 31.9862 11.2424 31.9392C18.9401 31.9082 19.5927 37.7962 19.6419 38.4592C19.6674 38.8767 19.8483 39.2687 20.1478 39.5553C20.4473 39.8419 20.8428 40.0017 21.254 40.0022C21.2874 40.0022 21.3218 40.0022 21.3523 40.0022C21.5642 39.9888 21.7714 39.9331 21.9622 39.8382C22.1529 39.7433 22.3235 39.6111 22.464 39.4492C22.6045 39.2872 22.7122 39.0986 22.781 38.8943C22.8498 38.69 22.8784 38.4738 22.8651 38.2582C22.7078 36.3687 22.0385 34.5606 20.9317 33.0349C19.8249 31.5091 18.324 30.3253 16.5956 29.6152ZM11.2335 20.0382C12.356 20.0382 13.4325 20.4918 14.2262 21.2993C15.0198 22.1067 15.4657 23.2018 15.4657 24.3437C15.4657 25.4856 15.0198 26.5807 14.2262 27.3881C13.4325 28.1956 12.356 28.6492 11.2335 28.6492C10.1111 28.6492 9.03463 28.1956 8.24094 27.3881C7.44725 26.5807 7.0013 25.4856 7.0013 24.3437C7.0013 23.2018 7.44725 22.1067 8.24094 21.2993C9.03463 20.4918 10.1111 20.0382 11.2335 20.0382Z" fill="#FFC603"/>
<path d="M38.0013 1.64502C38.0013 1.20874 37.831 0.790309 37.5277 0.481812C37.2245 0.173314 36.8133 0 36.3844 0H12.613C12.1841 0 11.7729 0.173314 11.4697 0.481812C11.1665 0.790309 10.9961 1.20874 10.9961 1.64502V13.639C11.0065 14.0682 11.1814 14.4762 11.4834 14.7759C11.7854 15.0757 12.1906 15.2435 12.6125 15.2435C13.0345 15.2435 13.4397 15.0757 13.7418 14.7759C14.0438 14.4762 14.2186 14.0682 14.229 13.639V3.289H34.7654V22.737C34.768 22.7899 34.7732 22.8427 34.7811 22.895C34.2481 24.6925 33.0966 26.2346 31.5373 27.239C32.0285 25.6472 32.0869 23.9499 31.7064 22.327C31.6966 22.29 31.6798 22.2581 31.668 22.2271C31.6507 22.1703 31.6304 22.1145 31.6072 22.06C31.5865 22.013 31.5609 21.97 31.5364 21.926C31.5118 21.882 31.4823 21.826 31.4508 21.785C31.4194 21.744 31.3899 21.707 31.3575 21.67C31.325 21.633 31.2837 21.584 31.2434 21.545C31.2031 21.506 31.1785 21.49 31.1451 21.462C31.096 21.4216 31.0448 21.3838 30.9917 21.349C30.9622 21.331 30.9328 21.316 30.9023 21.3C30.8389 21.2646 30.7732 21.2335 30.7057 21.207C30.6801 21.197 30.6527 21.191 30.6261 21.182C30.5529 21.1571 30.478 21.1377 30.402 21.124C30.3764 21.124 30.3499 21.119 30.3234 21.116C30.2619 21.1059 30.1998 21.0995 30.1375 21.097H22.3789C21.9571 21.1076 21.5561 21.2855 21.2614 21.5928C20.9668 21.9 20.8017 22.3123 20.8017 22.7415C20.8017 23.1708 20.9668 23.583 21.2614 23.8903C21.5561 24.1975 21.9571 24.3755 22.3789 24.386H28.7132C28.7665 25.2397 28.5753 26.0907 28.1628 26.836C27.9026 27.2072 27.5679 27.5181 27.1809 27.748C26.7939 27.978 26.3633 28.1218 25.9176 28.17C25.1126 28.32 23.2273 28.67 23.2735 30.351C23.2833 30.723 23.4582 31.951 25.2709 32.183C25.5403 32.2153 25.8114 32.2306 26.0827 32.229C29.2666 32.229 36.0276 30.472 37.9316 23.662C37.9391 23.3546 37.9597 23.0476 37.9935 22.742L38.0013 1.64502Z" fill="#FFC603"/>
<path d="M18.71 9.45747H27.1685C27.3841 9.46288 27.5986 9.42434 27.7994 9.34413C28.0002 9.26392 28.1832 9.14367 28.3376 8.99043C28.492 8.83719 28.6146 8.65407 28.6984 8.45185C28.7822 8.24964 28.8253 8.03244 28.8253 7.813C28.8253 7.59356 28.7822 7.3763 28.6984 7.17408C28.6146 6.97187 28.492 6.78875 28.3376 6.63551C28.1832 6.48227 28.0002 6.36202 27.7994 6.28181C27.5986 6.2016 27.3841 6.16306 27.1685 6.16847H18.71C18.2882 6.17905 17.8872 6.35695 17.5925 6.6642C17.2978 6.97145 17.1328 7.38374 17.1328 7.813C17.1328 8.24226 17.2978 8.65449 17.5925 8.96174C17.8872 9.26899 18.2882 9.44689 18.71 9.45747Z" fill="#FFC603"/>
<path d="M18.71 14.6254H27.1685C27.3841 14.6308 27.5986 14.5923 27.7994 14.5121C28.0002 14.4319 28.1832 14.3116 28.3376 14.1584C28.492 14.0052 28.6146 13.822 28.6984 13.6198C28.7822 13.4176 28.8253 13.2004 28.8253 12.981C28.8253 12.7615 28.7822 12.5443 28.6984 12.3421C28.6146 12.1398 28.492 11.9567 28.3376 11.8035C28.1832 11.6502 28.0002 11.53 27.7994 11.4498C27.5986 11.3696 27.3841 11.331 27.1685 11.3364H18.71C18.2882 11.347 17.8872 11.5249 17.5925 11.8322C17.2978 12.1394 17.1328 12.5517 17.1328 12.981C17.1328 13.4102 17.2978 13.8225 17.5925 14.1297C17.8872 14.437 18.2882 14.6149 18.71 14.6254Z" fill="#FFC603"/>
</svg>
