<svg width="30" height="41" viewBox="0 0 30 41" fill="none" xmlns="http://www.w3.org/2000/svg">
<path d="M10.5499 39.9699C10.3262 39.7976 10.1144 39.6104 9.91599 39.4095C9.13819 38.5068 8.36039 37.604 7.58259 36.6856C7.48043 36.5408 7.33743 36.4298 7.17185 36.3667C7.00628 36.3036 6.82567 36.2914 6.65311 36.3315C5.4203 36.5028 4.17971 36.6506 2.943 36.779C2.05631 36.8724 1.67907 36.3627 2.00575 35.5299C2.98319 33.0162 3.96581 30.5024 4.95361 27.9886C5.00929 27.861 5.03803 27.7232 5.03803 27.5839C5.03803 27.4446 5.00929 27.3069 4.95361 27.1792C4.69694 26.5021 4.49471 25.8017 4.30026 25.1013C4.07231 24.213 3.51647 23.4441 2.74466 22.9494C2.15742 22.5603 1.57796 22.1711 1.02572 21.7353C0.593411 21.4473 0.271734 21.0209 0.11345 20.526C-0.0448344 20.0311 -0.0303321 19.497 0.15458 19.0114C0.372364 18.3227 0.613484 17.6339 0.854602 16.949C1.1464 16.1352 1.1464 15.2452 0.854602 14.4314C0.582372 13.622 0.302363 12.8087 0.0768006 11.9838C-0.179874 11.0148 0.228472 10.2482 0.97905 9.64898C1.54296 9.20927 2.14575 8.80068 2.7291 8.40766C3.51606 7.90809 4.08127 7.12525 4.30804 6.22076C4.48693 5.55924 4.69694 4.90161 4.92639 4.27511C5.33863 3.13107 6.03476 2.62521 7.23647 2.59408C7.95204 2.57462 8.66762 2.59408 9.37931 2.59408C10.2846 2.63817 11.1732 2.33946 11.8683 1.75745C12.405 1.32941 12.9533 0.909153 13.5211 0.520024C13.9365 0.183572 14.4548 0 14.9892 0C15.5236 0 16.0419 0.183572 16.4573 0.520024C17.0251 0.909153 17.5734 1.32552 18.1101 1.75745C18.8056 2.3384 19.6943 2.63575 20.5991 2.59019C21.3225 2.55906 22.0536 2.55517 22.7808 2.59019C23.2872 2.56956 23.7857 2.72044 24.1957 3.01844C24.6058 3.31643 24.9033 3.74412 25.0403 4.23231C25.2776 4.9055 25.4798 5.59037 25.6742 6.27524C25.9057 7.15576 26.4614 7.91612 27.2298 8.40377C27.8171 8.7929 28.3966 9.18203 28.9488 9.61396C29.3921 9.89886 29.7229 10.3289 29.8846 10.8306C30.0463 11.3324 30.0289 11.8747 29.8355 12.3651C29.6333 13.05 29.3921 13.7232 29.151 14.3925C28.8437 15.2303 28.8437 16.1501 29.151 16.9879C29.4349 17.7934 29.7033 18.6067 29.9288 19.4317C30.0331 19.8068 30.0226 20.2047 29.8985 20.5737C29.7744 20.9428 29.5424 21.2661 29.2327 21.5018C28.6784 21.9711 28.0924 22.4015 27.4788 22.7899C27.0098 23.0703 26.6023 23.4427 26.2808 23.8847C25.9594 24.3267 25.7305 24.8292 25.6081 25.362C25.437 26.0546 25.1609 26.7162 24.9587 27.401C24.9248 27.5738 24.9438 27.7528 25.0131 27.9147C25.9983 30.457 26.9887 32.9954 27.9843 35.5299C28.3071 36.3627 27.9415 36.8724 27.0432 36.779C25.8298 36.6584 24.6164 36.5144 23.4108 36.3432C23.2193 36.2953 23.0178 36.3069 22.833 36.3764C22.6482 36.4459 22.4889 36.5701 22.3764 36.7323C21.5986 37.6896 20.8208 38.604 20.0041 39.5263C19.8326 39.6987 19.648 39.8574 19.4518 40.001H19.0629C18.9065 39.9225 18.7676 39.813 18.6547 39.6792C18.5417 39.5455 18.457 39.3902 18.4057 39.2228C17.4334 36.7051 16.4612 34.1952 15.4695 31.6814C15.3839 31.4558 15.31 31.3234 15.0145 31.3273C14.9085 31.3154 14.8019 31.3435 14.7156 31.4062C14.6293 31.4688 14.5694 31.5614 14.5478 31.6659C13.5911 34.133 12.6227 36.5961 11.666 39.0593C11.5631 39.4319 11.3386 39.7593 11.0282 39.9893L10.5499 39.9699ZM8.54317 4.13892C8.25539 4.13892 7.78481 4.13892 7.31813 4.13892C7.11517 4.119 6.91183 4.17295 6.7454 4.29087C6.57897 4.4088 6.4606 4.58281 6.41199 4.78098C6.25643 5.27518 6.07365 5.76548 5.95698 6.27135C5.79072 7.03611 5.46781 7.75809 5.00862 8.39168C4.54943 9.02528 3.96394 9.55674 3.28912 9.9525C2.80812 10.2602 2.34341 10.5927 1.89686 10.9487C1.765 11.0359 1.66738 11.1661 1.62059 11.3172C1.57381 11.4683 1.58073 11.631 1.64018 11.7775C1.83852 12.369 2.02908 12.9682 2.2352 13.5481C2.76787 14.8503 2.78733 16.3062 2.28965 17.6222C2.08353 18.167 1.90074 18.7196 1.71018 19.276C1.4924 19.9453 1.55462 20.1555 2.09908 20.5796C2.48055 20.8723 2.87783 21.1438 3.28912 21.3929C3.95771 21.7868 4.53774 22.3147 4.99282 22.9435C5.44789 23.5722 5.7682 24.2883 5.93365 25.0468C6.06587 25.5877 6.26033 26.113 6.43533 26.6422C6.47696 26.8014 6.57183 26.9415 6.70416 27.0393C6.83649 27.137 6.99827 27.1864 7.16257 27.1792C7.77315 27.1792 8.38372 27.2026 8.99041 27.1792C9.74461 27.125 10.502 27.2225 11.218 27.4657C11.934 27.709 12.5941 28.0932 13.1594 28.5957C13.5906 28.9506 14.0397 29.2831 14.505 29.5918C14.6407 29.6956 14.8067 29.7519 14.9775 29.7519C15.1483 29.7519 15.3144 29.6956 15.45 29.5918C15.8863 29.3091 16.3058 29.0012 16.7062 28.6696C17.2971 28.1279 17.9947 27.7158 18.7542 27.4598C19.5137 27.2038 20.3183 27.1096 21.1163 27.1831C21.6725 27.2259 22.2325 27.1831 22.7925 27.1831C22.957 27.1886 23.1185 27.1381 23.2506 27.0399C23.3827 26.9416 23.4776 26.8014 23.5197 26.6422C23.6947 26.1286 23.8853 25.6149 24.0098 25.0857C24.179 24.3084 24.5086 23.575 24.9773 22.9324C25.4461 22.2898 26.0437 21.7522 26.7321 21.354C27.192 21.0615 27.636 20.7445 28.0621 20.4045C28.1995 20.3135 28.3015 20.178 28.351 20.0208C28.4006 19.8635 28.3947 19.694 28.3343 19.5406C28.1321 18.9647 27.9649 18.3732 27.7432 17.809C27.1805 16.4378 27.1805 14.8999 27.7432 13.5286C27.926 13.0694 28.0854 12.6025 28.2371 12.1316C28.4821 11.3962 28.4082 11.1627 27.7743 10.7113C27.3621 10.4156 26.946 10.1276 26.5182 9.85522C25.3039 9.11642 24.4303 7.92766 24.0875 6.54763C23.9436 5.99506 23.7803 5.44639 23.5936 4.9055C23.3758 4.27122 23.2047 4.15448 22.5358 4.15059C21.9914 4.15059 21.443 4.15059 20.8985 4.17783C19.7365 4.28306 18.573 3.99236 17.5968 3.35288C17.1379 3.0299 16.7023 2.68358 16.259 2.34504C14.9911 1.3761 14.9523 1.38389 13.6844 2.34504C13.0648 2.83492 12.4154 3.28588 11.7399 3.69531C10.826 4.20507 9.76821 4.18951 8.54317 4.12725V4.13892ZM10.4877 37.6624C11.3938 35.347 12.2727 33.1018 13.1361 30.8487C13.1463 30.7813 13.1399 30.7124 13.1175 30.648C13.0952 30.5836 13.0575 30.5256 13.0078 30.479C12.6539 30.1755 12.2611 29.9148 11.9072 29.6113C11.1616 28.9877 10.2052 28.6743 9.23542 28.7357C8.29428 28.7552 7.34925 28.7357 6.34977 28.7357L3.87636 35.0708C4.97306 34.9385 5.99587 34.849 6.98757 34.6816C7.25068 34.6162 7.52747 34.6325 7.78107 34.7285C8.03466 34.8244 8.25302 34.9954 8.40705 35.2186C9.07596 36.0319 9.77209 36.8024 10.4955 37.6351L10.4877 37.6624ZM19.4868 37.6624C20.2646 36.7674 20.9802 35.9385 21.6802 35.0863C21.8005 34.9245 21.9638 34.7997 22.1515 34.7261C22.3392 34.6524 22.5438 34.633 22.7419 34.67C23.7064 34.7984 24.6864 34.9112 25.6392 35.028C25.7715 35.028 25.9076 35.0474 26.0904 35.0591L23.6247 28.7591C22.7225 28.7591 21.8786 28.8019 21.0424 28.7591C20.4665 28.6976 19.8842 28.7584 19.3333 28.9374C18.7825 29.1164 18.2756 29.4097 17.8457 29.7981C17.5112 30.1016 16.9356 30.3156 16.8423 30.6658C16.749 31.016 17.0834 31.5297 17.2312 31.9616C17.9935 33.8178 18.7324 35.6895 19.4946 37.6351L19.4868 37.6624Z" fill="#9215DE"/>
<path d="M25.2625 15.6656C25.2602 17.6976 24.6554 19.6833 23.5247 21.3713C22.3941 23.0592 20.7883 24.3736 18.9107 25.148C17.0331 25.9224 14.9682 26.122 12.9771 25.7216C10.9861 25.3212 9.15857 24.3388 7.72582 22.8987C6.29308 21.4585 5.31954 19.6255 4.92844 17.6315C4.53735 15.6375 4.74627 13.5722 5.52877 11.6971C6.31127 9.82197 7.63216 8.22127 9.32426 7.09763C11.0164 5.97398 13.0036 5.3779 15.0344 5.38483C17.7504 5.40024 20.3501 6.48981 22.2662 8.41583C24.1824 10.3419 25.2595 12.948 25.2625 15.6656ZM6.31526 15.6345C6.31373 17.3521 6.82121 19.0316 7.77356 20.4607C8.72591 21.8898 10.0804 23.0042 11.6657 23.6631C13.251 24.322 14.9959 24.4958 16.6799 24.1625C18.3639 23.8292 19.9113 23.0038 21.1265 21.7906C22.3417 20.5774 23.1701 19.0309 23.507 17.3467C23.8439 15.6625 23.6741 13.9161 23.0191 12.3284C22.3642 10.7407 21.2534 9.38297 19.8273 8.42686C18.4012 7.47076 16.7238 6.95921 15.0072 6.95691C13.867 6.95537 12.7376 7.17863 11.6836 7.61394C10.6296 8.04925 9.6717 8.68807 8.86453 9.4939C8.05736 10.2997 7.41677 11.2568 6.97936 12.3104C6.54195 13.364 6.31628 14.4936 6.31526 15.6345Z" fill="#9215DE"/>
<path d="M18.9928 20.2987C19.0182 20.4485 18.9993 20.6025 18.9383 20.7417C18.8773 20.8809 18.7769 20.9991 18.6496 21.0819C18.5222 21.1646 18.3734 21.2083 18.2215 21.2074C18.0697 21.2065 17.9214 21.1612 17.795 21.077C16.9588 20.6606 16.1344 20.2209 15.3138 19.7734C15.2229 19.7143 15.1169 19.6828 15.0085 19.6828C14.9001 19.6828 14.7941 19.7143 14.7032 19.7734C13.9254 20.2054 13.1165 20.6062 12.327 21.0342C12.1834 21.1366 12.0114 21.1916 11.8351 21.1916C11.6587 21.1916 11.4867 21.1366 11.3431 21.0342C11.2044 20.9248 11.1022 20.7757 11.0501 20.6068C10.9981 20.438 10.9985 20.2572 11.0514 20.0886C11.2109 19.1781 11.3742 18.2714 11.5103 17.3647C11.5172 17.2876 11.5083 17.2099 11.4842 17.1363C11.4601 17.0627 11.4214 16.9948 11.3703 16.9367C10.7325 16.2868 10.0753 15.6564 9.42582 15.026C9.27697 14.9189 9.16517 14.768 9.10593 14.5944C9.04669 14.4208 9.04296 14.233 9.09525 14.0571C9.16269 13.8873 9.28044 13.7423 9.43269 13.6414C9.58494 13.5405 9.7644 13.4887 9.94695 13.4929C10.8492 13.3684 11.7476 13.2438 12.6459 13.1038C12.7214 13.0849 12.7921 13.0506 12.8537 13.003C12.9153 12.9555 12.9663 12.8957 13.0037 12.8275C13.4237 12.022 13.8243 11.2048 14.2171 10.3876C14.2636 10.2105 14.3675 10.0538 14.5124 9.942C14.6573 9.83018 14.8352 9.76953 15.0182 9.76953C15.2012 9.76953 15.3791 9.83018 15.524 9.942C15.669 10.0538 15.7728 10.2105 15.8193 10.3876C16.2082 11.2087 16.5972 12.022 17.0327 12.8275C17.075 12.899 17.1313 12.9614 17.1981 13.0108C17.2648 13.0603 17.3409 13.0958 17.4216 13.1154C18.3161 13.2672 19.2183 13.3878 20.1167 13.5046C20.2933 13.505 20.4657 13.5587 20.6114 13.6587C20.7571 13.7586 20.8693 13.9002 20.9334 14.0649C20.9876 14.2339 20.9876 14.4156 20.9331 14.5846C20.8787 14.7535 20.7727 14.9011 20.6301 15.0066C19.9728 15.637 19.3156 16.2674 18.6855 16.9172C18.6271 16.9847 18.5826 17.0632 18.5545 17.148C18.5265 17.2328 18.5155 17.3223 18.5222 17.4114C18.6505 18.2869 18.81 19.1547 18.9578 20.0264C18.9578 20.1236 18.9694 20.252 18.9928 20.2987ZM18.4133 14.8509C17.8494 14.7692 17.2933 14.6603 16.7294 14.6097C16.522 14.599 16.3223 14.5276 16.155 14.4045C15.9877 14.2814 15.8602 14.1119 15.7882 13.917C15.5588 13.4034 15.2943 12.9053 15.0104 12.3294C14.711 12.9325 14.4465 13.4501 14.2015 13.9754C14.1317 14.1502 14.014 14.3017 13.862 14.4125C13.7099 14.5233 13.5297 14.589 13.3421 14.6019C12.7587 14.668 12.1754 14.7731 11.6309 14.8548C12.0509 15.3062 12.4515 15.7498 12.8676 16.1779C12.9983 16.2945 13.0952 16.4442 13.1479 16.6114C13.2006 16.7785 13.2072 16.9568 13.167 17.1273C13.0504 17.7149 12.9687 18.2947 12.8598 18.9718C13.4471 18.6644 13.9565 18.4115 14.4504 18.1274C14.62 18.0189 14.817 17.9613 15.0182 17.9613C15.2194 17.9613 15.4165 18.0189 15.586 18.1274C16.0799 18.4076 16.5894 18.6566 17.1649 18.9562C17.0638 18.3726 17.0055 17.855 16.881 17.3569C16.8067 17.1077 16.8105 16.8417 16.8918 16.5948C16.9732 16.3478 17.1282 16.1317 17.3361 15.9755C17.7055 15.6487 18.0283 15.244 18.3978 14.8509H18.4133Z" fill="#9215DE"/>
</svg>
