<svg width="61" height="40" viewBox="0 0 61 40" fill="none" xmlns="http://www.w3.org/2000/svg">
<path d="M4.03473 7.11706C4.03473 6.43117 4.03473 5.75928 4.03473 5.08272C4.02264 4.83877 4.08418 4.59653 4.21244 4.3831C4.3407 4.16967 4.53063 3.99348 4.76098 3.87424C9.08822 1.3593 13.7433 -0.129136 18.9128 0.0341717C22.8507 0.154559 26.682 1.24852 30.0083 3.20234C30.1273 3.30965 30.283 3.37531 30.4486 3.38808C30.6142 3.40085 30.7795 3.35993 30.9161 3.27233C38.6678 -1.07632 46.5153 -0.973671 54.4284 2.88506C55.0185 3.16968 55.5683 3.51496 56.1533 3.81824C56.4307 3.94449 56.6597 4.14633 56.8093 4.39659C56.959 4.64685 57.0222 4.93352 56.9905 5.21802C56.9905 5.8106 56.9905 6.40318 56.9905 7.00041C56.9905 7.03308 57.0308 7.0704 57.0863 7.15906C57.3032 7.15906 57.5554 7.15906 57.8025 7.15906C58.6231 7.15337 59.4142 7.44164 60.0103 7.96348C60.6063 8.48533 60.9609 9.20028 61 9.95862C61 10.1079 61 10.2572 61 10.4252C61 19.2034 61 27.9831 61 36.7644C61 38.3928 60.1628 39.522 58.6599 39.8906C58.2817 39.9733 57.8933 40.0094 57.5049 39.9979H3.47995C1.25581 39.9979 0 38.8174 0 36.7318V10.6025C0 8.30688 1.13477 7.23371 3.63125 7.15439C3.74221 7.15906 3.85316 7.13573 4.03473 7.11706ZM29.2064 36.4005C29.2064 36.2092 29.2417 36.1252 29.2417 36.0412C29.2417 26.0094 29.2417 15.9761 29.2417 5.94125C29.2259 5.80427 29.1797 5.6718 29.1059 5.55216C29.0321 5.43251 28.9324 5.32828 28.813 5.24603C25.8858 3.42683 22.4627 2.40949 18.938 2.31115C14.7116 2.1805 10.8685 3.31899 7.21207 5.22736C6.99953 5.3141 6.82159 5.46012 6.70313 5.645C6.58468 5.82989 6.53162 6.04439 6.55138 6.25853C6.55475 15.2047 6.55643 24.1571 6.55643 33.1157V33.8202C14.52 31.8605 21.9993 32.8264 29.2164 36.4005H29.2064ZM54.4234 33.8062C54.4483 33.7299 54.4668 33.6519 54.4789 33.5729C54.4789 24.3717 54.4789 15.1689 54.4789 5.96458C54.4645 5.84865 54.4232 5.73697 54.3579 5.63712C54.2927 5.53728 54.2049 5.45162 54.1006 5.386C53.2723 4.93405 52.4188 4.52287 51.5436 4.15419C44.9872 1.48061 38.6073 1.69058 32.419 5.12938C32.2119 5.21749 32.0389 5.36225 31.9235 5.54413C31.8081 5.72602 31.7557 5.93627 31.7735 6.14655C31.7936 16.0103 31.7936 25.871 31.7735 35.7286C31.7735 35.9292 31.7735 36.1299 31.8088 36.4145C39.041 32.817 46.5355 31.8605 54.4133 33.8062H54.4234ZM35.0063 37.6929H57.3435C58.3976 37.6929 58.4985 37.6043 58.4985 36.6478V10.5605C58.4985 9.53869 58.1707 9.32405 56.9855 9.62734V34.7301C56.9855 34.9634 56.9855 35.1967 56.9855 35.43C56.9249 36.3958 56.1735 36.8811 55.19 36.5591C50.4915 35.0237 45.4159 34.7663 40.5641 35.8172C38.6172 36.1814 36.7403 36.8136 34.9962 37.6929H35.0063ZM26.0795 37.6929C21.5622 35.5903 16.4711 34.7782 11.4536 35.36C9.5613 35.6523 7.69008 36.0512 5.85035 36.5545C4.87193 36.7831 4.14064 36.3771 4.07003 35.4533C4.07003 35.22 4.07003 34.9867 4.07003 34.7534C4.07003 26.6098 4.07003 18.4677 4.07003 10.3272V9.54801C2.73857 9.3987 2.55701 9.54802 2.55701 10.6258C2.55701 19.2952 2.55701 27.966 2.55701 36.6384C2.55701 37.5996 2.65787 37.6883 3.7069 37.6883H26.0895L26.0795 37.6929Z" fill="#079D82"/>
<path d="M26.2266 18.9231C26.2013 19.7676 25.344 20.2202 24.3807 19.9216C22.8677 19.455 21.3546 18.9277 19.8113 18.5824C17.1465 17.9918 14.3587 18.0772 11.7419 18.8297C11.5767 18.8849 11.4083 18.9316 11.2376 18.9697C11.0748 19.0215 10.9023 19.042 10.7307 19.0298C10.5591 19.0176 10.392 18.973 10.2397 18.8988C10.0874 18.8246 9.95313 18.7223 9.84518 18.5983C9.73723 18.4742 9.65788 18.3311 9.61201 18.1776C9.56614 18.0241 9.55472 17.8636 9.57845 17.7058C9.60219 17.5481 9.66059 17.3966 9.75004 17.2605C9.83948 17.1245 9.9581 17.0068 10.0986 16.9148C10.239 16.8227 10.3984 16.7583 10.5668 16.7254C12.4428 16.1675 14.4012 15.8826 16.3717 15.8809C19.4675 15.9273 22.5199 16.5626 25.3389 17.7472C25.6041 17.8286 25.8337 17.987 25.9937 18.1988C26.1536 18.4107 26.2353 18.6647 26.2266 18.9231Z" fill="#079D82"/>
<path d="M15.867 22.4102C19.3419 22.4102 22.4234 23.278 25.4494 24.5005C25.6075 24.5523 25.7523 24.6336 25.8748 24.7394C25.9974 24.8452 26.0951 24.9732 26.1618 25.1155C26.2285 25.2578 26.2628 25.4112 26.2626 25.5663C26.2624 25.7214 26.2277 25.8748 26.1606 26.0169C26.0949 26.1634 25.9979 26.2961 25.8754 26.407C25.7529 26.5179 25.6074 26.6047 25.4477 26.6622C25.288 26.7198 25.1173 26.7468 24.946 26.7418C24.7747 26.7367 24.6063 26.6997 24.4508 26.6328C22.494 26.0543 20.5573 25.3917 18.5652 24.9578C16.3319 24.5315 14.0181 24.6391 11.8423 25.2704C11.6456 25.3217 11.454 25.387 11.2522 25.4337C10.9312 25.5265 10.5836 25.4987 10.2844 25.3564C9.98532 25.2141 9.75869 24.9687 9.65349 24.6731C9.60261 24.5203 9.58626 24.3593 9.60545 24.2004C9.62464 24.0414 9.67897 23.8878 9.76506 23.7491C9.85114 23.6104 9.96715 23.4895 10.1059 23.394C10.2446 23.2985 10.403 23.2305 10.5714 23.194C12.2812 22.6774 14.0683 22.4129 15.867 22.4102Z" fill="#079D82"/>
<path d="M20.0125 9.88281C21.8433 10.3821 23.6841 10.858 25.4997 11.4039C25.6435 11.4544 25.7749 11.531 25.8863 11.6291C25.9977 11.7272 26.0867 11.8449 26.1483 11.9753C26.2098 12.1056 26.2426 12.2461 26.2447 12.3883C26.2468 12.5306 26.2181 12.6718 26.1604 12.8037C26.065 13.0793 25.8575 13.3099 25.5818 13.4466C25.306 13.5833 24.9836 13.6154 24.6827 13.5362C22.9629 13.1303 21.2431 12.7197 19.5284 12.2904C19.2241 12.2236 18.9598 12.0499 18.7914 11.8061C18.6229 11.5623 18.5635 11.2675 18.6256 10.984C18.6777 10.701 18.8444 10.447 19.0917 10.2736C19.3391 10.1003 19.6485 10.0206 19.957 10.0508L20.0125 9.88281Z" fill="#079D82"/>
<path d="M15.5642 9.79688C16.5174 9.90419 17.1125 10.3148 17.1478 11.0193C17.1831 11.7239 16.6435 12.1205 15.7861 12.2558C14.3437 12.4891 12.9097 12.7582 11.4841 13.063C10.541 13.2683 9.83994 13.063 9.62811 12.3585C9.41629 11.6539 9.80968 11.066 10.7629 10.8374C12.3516 10.4594 13.9604 10.1422 15.5642 9.79688Z" fill="#079D82"/>
<path d="M44.3018 15.8858C46.3674 15.8507 48.4253 16.1281 50.3942 16.707C51.2214 16.9496 51.6097 17.5328 51.4029 18.1907C51.3521 18.3499 51.2653 18.4973 51.1482 18.6231C51.0311 18.7489 50.8865 18.8503 50.7238 18.9204C50.5612 18.9906 50.3843 19.028 50.2049 19.0301C50.0255 19.0322 49.8476 18.9989 49.6831 18.9326C45.4164 17.6728 41.2808 18.1487 37.2259 19.7072C36.9939 19.7958 36.7619 19.8938 36.5249 19.9638C36.3704 20.0217 36.205 20.0504 36.0384 20.0483C35.8718 20.0462 35.7073 20.0133 35.5546 19.9516C35.4019 19.8899 35.2641 19.8006 35.1492 19.6889C35.0344 19.5772 34.9448 19.4454 34.8858 19.3012C34.821 19.1588 34.7888 19.0054 34.7911 18.8509C34.7935 18.6964 34.8305 18.5439 34.8996 18.4033C34.9688 18.2626 35.0687 18.1366 35.193 18.0334C35.3174 17.9302 35.4635 17.8519 35.6221 17.8035C38.5322 16.6416 41.5279 15.8578 44.3018 15.8858Z" fill="#079D82"/>
<path d="M43.9936 9.88281C46.1827 9.89917 48.3557 10.2313 50.4341 10.8673C51.2511 11.1146 51.6394 11.7072 51.4428 12.3651C51.3897 12.5232 51.3011 12.6692 51.1828 12.7935C51.0646 12.9177 50.9193 13.0175 50.7564 13.0862C50.5936 13.1549 50.4169 13.191 50.2379 13.1922C50.059 13.1934 49.8818 13.1596 49.7179 13.093C45.4853 11.7874 40.8895 11.9114 36.7463 13.4429C35.8687 13.7462 35.208 13.5129 34.9256 12.8364C34.6432 12.1598 34.9962 11.5719 35.8637 11.2686C38.46 10.3529 41.2151 9.88332 43.9936 9.88281Z" fill="#079D82"/>
<path d="M42.8687 23.9327C42.8536 24.177 42.7559 24.4107 42.5894 24.6008C42.4228 24.7908 42.1959 24.9276 41.9407 24.9918L36.4938 26.6762C36.3445 26.7315 36.1849 26.7589 36.0241 26.7568C35.8633 26.7548 35.7046 26.7234 35.5569 26.6645C35.4093 26.6055 35.2757 26.5201 35.1639 26.4132C35.052 26.3064 34.9641 26.1801 34.9052 26.0417C34.831 25.9078 34.7886 25.7608 34.7807 25.6106C34.7727 25.4604 34.7995 25.3103 34.8591 25.1703C34.9188 25.0304 35.0099 24.9038 35.1266 24.799C35.2432 24.6942 35.3826 24.6136 35.5356 24.5626C37.4672 23.9187 39.419 23.3168 41.3859 22.7709C41.5696 22.7332 41.7602 22.7354 41.9428 22.7771C42.1254 22.8189 42.2951 22.8992 42.4387 23.0116C42.5822 23.1241 42.6957 23.2658 42.7703 23.4255C42.8449 23.5853 42.8786 23.7589 42.8687 23.9327Z" fill="#079D82"/>
<path d="M45.9702 22.2988C47.4832 22.5928 48.961 22.8587 50.4387 23.1994C50.6151 23.228 50.7827 23.2918 50.9298 23.3863C51.077 23.4808 51.2001 23.6037 51.2908 23.7466C51.3815 23.8896 51.4375 24.049 51.4549 24.2139C51.4724 24.3789 51.4509 24.5453 51.3919 24.7018C51.175 25.3177 50.5194 25.5697 49.7175 25.4203C48.3558 25.1684 46.989 24.9211 45.6121 24.7484C44.6993 24.6318 44.1395 24.2399 44.1546 23.5493C44.1697 22.8587 44.7548 22.4155 45.6676 22.4201H45.94L45.9702 22.2988Z" fill="#079D82"/>
</svg>
