<svg width="46" height="46" viewBox="0 0 46 46" fill="none" xmlns="http://www.w3.org/2000/svg">
<path fill-rule="evenodd" clip-rule="evenodd" d="M40.1713 0.0634782C39.1713 0.230715 38.0795 0.832624 37.3344 1.62765C36.4057 2.6184 36.0135 3.6158 36.0126 4.98892C36.0122 5.83994 36.1479 6.45613 36.5174 7.28046C36.5606 7.3767 35.4017 8.59103 32.4647 11.5269L28.3514 15.6384L27.9027 15.3377C25.723 13.8763 22.7952 13.8758 20.6244 15.3365L20.1758 15.6384L16.9709 12.4348L13.766 9.23113L13.9548 8.81749C14.1029 8.49308 14.1446 8.21953 14.1482 7.55005C14.1521 6.80777 14.1215 6.62975 13.9136 6.18636C13.2966 4.8703 12.117 4.16164 10.6757 4.24108C8.0648 4.38513 6.65341 7.33446 8.17714 9.46208C9.06708 10.7046 10.7499 11.1907 12.1206 10.6011L12.5956 10.3968L15.7927 13.5936L18.9898 16.7903L18.6857 17.2642C17.9284 18.4441 17.6129 19.5213 17.6129 20.9259C17.6129 22.3146 17.9764 23.5403 18.7003 24.5923L18.9843 25.0051L13.6783 30.3104L8.37235 35.6158L8.02705 35.3439C6.09332 33.8209 3.2577 34.0188 1.48798 35.8003C-0.492664 37.7943 -0.496439 40.8485 1.47936 42.8221C2.49817 43.8398 3.60227 44.3044 5.00206 44.3044C6.38334 44.3044 7.56932 43.8213 8.5316 42.8666C9.54548 41.8607 10.013 40.7184 10.0027 39.272C9.997 38.4755 9.84745 37.816 9.49326 37.0254C9.45003 36.929 10.9557 35.3683 14.7802 31.5449L20.1276 26.1991L20.3757 26.3578C21.1768 26.8704 22.1324 27.2801 22.9154 27.4468L23.4097 27.5522L23.4331 31.7855L23.4564 36.0189L22.8489 36.2048C20.3806 36.9599 18.8363 39.5 19.3543 41.9525C20.1809 45.8654 24.9008 47.3438 27.7363 44.578C29.007 43.3385 29.5315 41.5346 29.1222 39.8112C28.7289 38.1542 27.3579 36.7186 25.6782 36.2048L25.0707 36.0189L25.094 31.7941L25.1174 27.5692L25.7914 27.3991C26.4225 27.2398 27.5884 26.7266 28.1515 26.3604L28.3996 26.199L31.5883 29.3881L34.7769 32.5772L34.5428 33.1557C34.3396 33.6579 34.3138 33.8311 34.3473 34.4684C34.4148 35.7563 35.1008 36.7648 36.2865 37.3199C36.8157 37.5677 36.9859 37.6029 37.6548 37.6029C38.3195 37.6029 38.4946 37.5672 39.0029 37.3281C39.7435 36.9798 40.3027 36.4218 40.6571 35.6775C40.9043 35.1583 40.9352 35.0032 40.9352 34.2827C40.9352 33.5522 40.9068 33.4144 40.648 32.8898C40.1494 31.8795 39.2295 31.1854 38.1716 31.0218C37.5652 30.9281 36.7657 31.0304 36.2914 31.2627L35.9616 31.4242L32.7523 28.2145L29.5431 25.0046L29.8277 24.591C30.5202 23.5846 30.9115 22.25 30.9115 20.8949C30.9115 19.5387 30.5734 18.4049 29.818 17.2278L29.5375 16.7905L33.5683 12.7594L37.5993 8.72816L38.009 9.02642C38.9707 9.72655 39.8756 10.0159 41.07 10.005C42.426 9.99273 43.4279 9.58556 44.4163 8.64495C46.0508 7.08958 46.4533 4.85925 45.4686 2.81439C44.5327 0.871086 42.2941 -0.291395 40.1713 0.0634782ZM42.3732 2.00679C44.3233 2.91154 44.9231 5.40041 43.5953 7.07844C41.9027 9.21765 38.5001 8.5089 37.7815 5.86743C37.3401 4.24458 38.1774 2.59755 39.7874 1.92205C40.5242 1.61291 41.6002 1.64823 42.3732 2.00679ZM11.3666 5.94292C11.8644 6.08041 12.3594 6.61852 12.4715 7.14395C12.7157 8.28891 11.8895 9.24443 10.7377 9.14891C9.96735 9.08501 9.42289 8.61098 9.25258 7.85585C9.08694 7.1214 9.58089 6.225 10.2881 5.97671C10.7301 5.82151 10.9071 5.81603 11.3666 5.94292ZM25.4227 16.0455C26.7849 16.3666 28.0733 17.3798 28.7005 18.6234C29.4611 20.1311 29.4686 21.6848 28.7227 23.1657C27.8653 24.8682 26.1863 25.8963 24.2635 25.8963C19.7839 25.8963 17.569 20.4923 20.7608 17.3501C21.9753 16.1544 23.7627 15.6543 25.4227 16.0455ZM38.3393 32.794C38.7213 32.9674 39.1121 33.4025 39.2282 33.7837C39.3329 34.1272 39.2918 34.7506 39.1456 35.0332C38.3446 36.582 35.9818 36.0171 36.0054 34.2822C36.0221 33.0591 37.2287 32.2897 38.3393 32.794ZM6.26938 36.2365C6.9464 36.4862 7.72094 37.2295 8.0479 37.9437C8.27169 38.4323 8.30647 38.6168 8.30647 39.317C8.30647 40.0154 8.27151 40.202 8.05033 40.6849C7.75051 41.3396 7.03394 42.0666 6.42181 42.3375C4.73622 43.083 2.81534 42.3847 2.00332 40.7313C1.77684 40.2701 1.75006 40.1207 1.75006 39.317C1.75006 38.5132 1.77684 38.3639 2.00332 37.9026C2.78703 36.307 4.57076 35.6104 6.26938 36.2365ZM25.1684 37.7994C25.8581 38.0041 26.5464 38.4917 26.9587 39.0674C28.1789 40.7712 27.5475 43.1204 25.6274 44.0205C25.1873 44.2267 25.0002 44.2595 24.2635 44.2595C23.5268 44.2595 23.3398 44.2267 22.8997 44.0205C20.6013 42.9431 20.2499 39.8813 22.2489 38.3492C23.0682 37.7213 24.1923 37.5096 25.1684 37.7994Z" fill="black"/>
</svg>
