<svg width="47" height="52" viewBox="0 0 47 52" fill="none" xmlns="http://www.w3.org/2000/svg">
<path fill-rule="evenodd" clip-rule="evenodd" d="M11.9541 0.111633C11.0229 0.331412 10.1464 1.03384 9.69436 1.92227C9.45918 2.38454 9.39986 2.68175 9.35733 3.61271L9.30575 4.74218L5.97838 4.77586L2.65112 4.80942L2.02722 5.10276C1.26712 5.46012 0.62489 6.0839 0.267652 6.81192L0 7.35727V28.4047V49.4522L0.297698 50.018C0.687854 50.7595 1.56791 51.5439 2.29542 51.7984C2.84277 51.9898 3.68163 52 18.8363 52H34.8005L35.5392 51.6353C36.3423 51.2389 36.8908 50.685 37.3026 49.8549L37.5575 49.3414L37.5894 43.005L37.6212 36.6686L41.2899 36.6354C44.8073 36.6035 44.9767 36.5923 45.4004 36.3626C45.9876 36.0443 46.4974 35.4954 46.7724 34.8851C46.9894 34.4039 46.9973 34.1804 46.9996 28.4521C47.0024 21.7996 47.0084 21.8569 46.2256 21.048C45.3953 20.19 45.5142 20.2113 41.3443 20.1742L37.6196 20.1409L37.5885 13.8045L37.5575 7.46805L37.2515 6.84305C36.8944 6.11392 36.1544 5.38778 35.4229 5.04881C34.9355 4.82294 34.7176 4.80754 31.5648 4.77575L28.2233 4.74207V3.99588C28.2233 1.9853 27.2767 0.584314 25.6319 0.160374C25.0755 0.0169193 23.9972 -0.00756209 18.6727 0.0017431C15.2072 0.00794655 12.1839 0.0573525 11.9541 0.111633ZM25.522 2.69969L25.7931 2.97154V5.88749C25.7931 9.06233 25.7797 9.13689 25.1606 9.39411C24.9345 9.48794 23.1557 9.51463 18.5861 9.49237L12.3215 9.46201L12.0153 9.15483L11.7091 8.84776V5.90511V2.96245L12.0191 2.69504L12.329 2.42774H18.7899H25.2509L25.522 2.69969ZM9.35656 8.21578C9.39346 9.09811 9.45951 9.46633 9.65282 9.86779C9.96444 10.5144 10.6526 11.2057 11.313 11.5354L11.8196 11.7883H18.7235H25.6275L26.2048 11.5265C26.5224 11.3825 26.9867 11.0423 27.2365 10.7705C27.91 10.0378 28.1249 9.45581 28.1954 8.17446L28.2555 7.08033L31.1942 7.08055C34.5044 7.08066 34.7358 7.12663 35.1 7.85576C35.2785 8.21301 35.2914 8.70918 35.2657 14.17L35.2377 20.0965L32.6971 20.1519C29.8903 20.213 29.8077 20.232 29.0555 20.9864C28.2368 21.8074 28.2821 21.4039 28.247 28.1832C28.2116 34.9834 28.1955 34.8181 28.977 35.6856C29.7562 36.5505 29.9445 36.5976 32.7799 36.6374L35.293 36.6725V42.5951C35.293 49.0924 35.2914 49.1093 34.6443 49.4448C34.3453 49.5999 32.6512 49.6183 18.6755 49.6183H3.04127L2.6805 49.2951L2.31973 48.9718V28.4211V7.87027L2.63874 7.53639C2.81416 7.35273 3.0627 7.1818 3.19106 7.15654C3.31931 7.13118 4.74837 7.1037 6.36676 7.0954L9.30906 7.08033L9.35656 8.21578ZM5.14946 16.7877C4.64917 17.1391 4.58422 17.5265 4.58422 20.1593C4.58422 23.8218 4.45951 23.6967 8.11164 23.6967C10.737 23.6967 11.1233 23.6316 11.4737 23.1299C11.6288 22.9079 11.6539 22.4806 11.6539 20.0634V17.2547L11.331 16.9309L11.0081 16.6071H8.2073C5.79689 16.6071 5.37083 16.6322 5.14946 16.7877ZM14.4069 16.9309C13.8815 17.4578 13.9961 18.3703 14.6353 18.7489C14.9021 18.907 15.3199 18.9334 17.5586 18.9334C20.4969 18.9334 20.7145 18.8868 21.0021 18.1965C21.2038 17.7123 21.0558 17.1633 20.6337 16.8304C20.3668 16.6198 20.1907 16.6071 17.5402 16.6071H14.7298L14.4069 16.9309ZM9.33414 20.0965V21.2597H8.17427H7.01441V20.0965V18.9334H8.17427H9.33414V20.0965ZM14.7886 21.4188C14.3343 21.6171 14.0841 21.9933 14.0841 22.4782C14.0841 22.9727 14.3379 23.3432 14.813 23.5423C15.3539 23.769 24.5233 23.769 25.0642 23.5423C25.5393 23.3432 25.7931 22.9727 25.7931 22.4782C25.7931 21.9837 25.5393 21.6131 25.0642 21.4141C24.5318 21.191 15.3009 21.1953 14.7886 21.4188ZM44.4803 22.6615C44.671 22.8346 44.6823 23.1595 44.6823 28.4156V33.9864L44.4368 34.1587C44.2213 34.3102 43.388 34.3312 37.6127 34.3312C31.8374 34.3312 31.0041 34.3102 30.7886 34.1587L30.5431 33.9864V28.4348C30.5431 23.4246 30.5608 22.8636 30.7259 22.6808C30.8992 22.4887 31.2576 22.4782 37.5935 22.4782C43.6588 22.4782 44.297 22.4951 44.4803 22.6615ZM40.6504 24.9765C40.4682 25.0705 39.4383 26.0276 38.3618 27.1036L36.4046 29.0601L35.4757 28.1508C34.627 27.3201 34.5087 27.2416 34.1063 27.2416C33.2608 27.2416 32.6889 28.0602 33.01 28.8106C33.0971 29.0139 33.7875 29.7907 34.5443 30.5371C35.8054 31.7809 35.9544 31.8942 36.3301 31.8942C36.5556 31.8942 36.8741 31.8235 37.0383 31.7372C37.2023 31.6508 38.4366 30.4669 39.7811 29.1063C41.6207 27.2446 42.2445 26.5445 42.3019 26.2775C42.4072 25.7857 42.1121 25.2005 41.647 24.9792C41.1915 24.7625 41.0667 24.7622 40.6504 24.9765ZM5.17862 26.2346C4.98907 26.3505 4.77786 26.6069 4.70915 26.8046C4.51518 27.3625 4.54125 31.909 4.74119 32.3889C5.02265 33.0643 5.25263 33.1127 8.17935 33.1127C11.0126 33.1127 11.2685 33.0644 11.534 32.4799C11.7066 32.1002 11.6959 27.0124 11.5219 26.6292C11.2676 26.0694 11.009 26.023 8.15218 26.0235C5.76308 26.0238 5.49168 26.0431 5.17862 26.2346ZM14.6171 26.2127C13.9935 26.6007 13.8885 27.5057 14.4069 28.0255L14.7298 28.3493H17.5402C20.1907 28.3493 20.3668 28.3366 20.6337 28.126C21.0558 27.7931 21.2038 27.2441 21.0021 26.7599C20.7139 26.0682 20.4991 26.0227 17.5415 26.026C15.2885 26.0285 14.8703 26.0552 14.6171 26.2127ZM9.33414 29.5679V30.7864H8.17427H7.01441V29.5679V28.3493H8.17427H9.33414V29.5679ZM14.4069 31.1102C13.8815 31.6372 13.9961 32.5496 14.6353 32.9282C14.9134 33.093 15.4794 33.1127 19.9386 33.1127C24.3978 33.1127 24.9638 33.093 25.2419 32.9282C25.8811 32.5496 25.9957 31.6372 25.4703 31.1102L25.1474 30.7864H19.9386H14.7298L14.4069 31.1102ZM5.28246 35.6177C4.64829 35.9314 4.58422 36.2395 4.58422 38.9764C4.58422 41.6092 4.64917 41.9966 5.14946 42.348C5.37083 42.5035 5.79689 42.5287 8.2073 42.5287H11.0081L11.331 42.2049L11.6539 41.8811V39.0723C11.6539 35.9553 11.6409 35.8934 10.9249 35.5934C10.3619 35.3576 5.76861 35.3773 5.28246 35.6177ZM14.7886 35.5982C14.3343 35.7965 14.0841 36.1727 14.0841 36.6575C14.0841 37.152 14.3379 37.5226 14.813 37.7216C15.3783 37.9585 19.9321 37.9421 20.4381 37.7014C20.7755 37.5407 21.1537 36.9891 21.1537 36.6575C21.1537 36.326 20.7755 35.7743 20.4381 35.6137C19.9396 35.3765 15.3255 35.3638 14.7886 35.5982ZM9.33414 39.0392V40.2024H8.17427H7.01441V39.0392V37.8761H8.17427H9.33414V39.0392ZM14.6171 40.392C13.9935 40.7801 13.8885 41.685 14.4069 42.2049L14.7298 42.5287H19.9386H25.1474L25.4703 42.2049C26.0035 41.6701 25.8478 40.6358 25.1887 40.3347C24.9775 40.2381 23.5473 40.2031 19.9058 40.2053C15.4504 40.2079 14.8807 40.2281 14.6171 40.392Z" fill="#FCB900"/>
</svg>
