<svg width="46" height="58" viewBox="0 0 46 58" fill="none" xmlns="http://www.w3.org/2000/svg">
<path d="M28.1559 4.88767C28.1559 7.04029 26.4226 8.77534 24.2967 8.77534C22.1708 8.77534 20.4375 7.04029 20.4375 4.88767C20.4375 2.73506 22.1708 1 24.2967 1C26.4226 1 28.1559 2.73506 28.1559 4.88767Z" stroke="black" stroke-width="2"/>
<path d="M44.9995 36.1676C44.9995 39.0401 42.686 41.3587 39.8445 41.3587C37.0029 41.3587 34.6895 39.0401 34.6895 36.1676C34.6895 33.2952 37.0029 30.9766 39.8445 30.9766C42.686 30.9766 44.9995 33.2952 44.9995 36.1676Z" stroke="black" stroke-width="2"/>
<path d="M10.9458 40.3224C8.47308 41.7378 5.32308 40.8707 3.91237 38.3772C2.50167 35.8838 3.36949 32.7169 5.84216 31.3015C8.31484 29.8862 11.4648 30.7532 12.8755 33.2467C14.2863 35.7402 13.4184 38.9071 10.9458 40.3224Z" stroke="black" stroke-width="2"/>
<path d="M29.4506 51.8082C29.4506 54.6807 27.1372 56.9993 24.2956 56.9993C21.4541 56.9993 19.1406 54.6807 19.1406 51.8082C19.1406 48.9358 21.4541 46.6172 24.2956 46.6172C27.1372 46.6172 29.4506 48.9358 29.4506 51.8082Z" stroke="black" stroke-width="2"/>
<path d="M25.9766 8.47266L38.087 31.4389" stroke="black" stroke-width="2" stroke-dasharray="2 2"/>
<path d="M23.4141 8.47266L11.0142 31.2818" stroke="black" stroke-width="2" stroke-dasharray="2 2"/>
<path d="M24.6191 8.47266V46.2706" stroke="black" stroke-width="2"/>
</svg>
