<svg width="105" height="77" viewBox="0 0 105 77" fill="none" xmlns="http://www.w3.org/2000/svg">
<path d="M69.892 5.30876L64.056 8.25022L35.8768 22.45C35.4739 19.3978 35.9364 16.2948 37.2128 13.4876C38.4892 10.6804 40.5292 8.27937 43.105 6.5527C45.6809 4.82603 48.6911 3.84164 51.7997 3.70946C54.9083 3.57727 57.9929 4.30249 60.709 5.80414L64.0494 4.12018L64.5477 3.86884C61.4879 1.67158 57.8736 0.354075 54.1042 0.0619609C50.3348 -0.230153 46.5572 0.514493 43.1889 2.2136C39.8205 3.9127 36.9927 6.50009 35.0179 9.68978C33.0431 12.8795 31.9982 16.5472 31.9988 20.2877C31.9988 20.8044 32.0187 21.3179 32.0586 21.8281C32.1143 22.5542 31.9516 23.2802 31.5911 23.915C31.2306 24.5498 30.6884 25.0649 30.0327 25.3955L28.2715 26.2874V30.428L33.4567 27.8132L35.1368 26.9652L36.7915 26.1309L66.4982 11.156L69.8362 9.47448L76.736 5.99548V1.85651L69.892 5.30876Z" fill="#606060"/>
<path d="M76.7321 10.1465L38.475 29.4176L35.137 31.1032L28.2676 34.566V38.7058L35.0895 35.2673L40.9254 32.3258L69.1333 18.1058C69.2285 18.8295 69.2764 19.5585 69.2767 20.2884C69.2749 23.1849 68.5073 26.0306 67.0503 28.5429C65.5932 31.0553 63.4972 33.1469 60.9704 34.6102C58.4436 36.0735 55.5739 36.8575 52.6462 36.8844C49.7184 36.9114 46.8345 36.1803 44.2806 34.7638L44.0749 34.8716L40.4534 36.6967C43.5125 38.8936 47.126 40.2111 50.8946 40.5037C54.6632 40.7963 58.4402 40.0526 61.8083 38.3548C65.1764 36.657 68.0046 34.0711 69.9804 30.8828C71.9561 27.6946 73.0025 24.0281 73.004 20.2884C73.004 19.767 72.9835 19.2457 72.9441 18.7309C72.8885 18.0052 73.0508 17.2794 73.4108 16.6446C73.7709 16.0099 74.3124 15.4946 74.9676 15.1635L76.7312 14.2717L76.7321 10.1465Z" fill="#606060"/>
<path d="M46.3137 54.9414C40.4613 54.9414 35.9219 59.2012 35.9219 65.9297C35.9219 72.1921 39.6647 76.9967 46.4325 76.9967C51.6489 76.9967 55.0705 73.9644 56.0261 70.3395H52.284C51.3694 72.4272 49.6189 73.8444 46.4325 73.8444C43.2871 73.8444 39.9426 71.64 39.8237 67.0713H56.3047C56.744 60.3371 52.8815 54.9414 46.3137 54.9414ZM39.8631 63.9985C40.1827 59.7387 43.1273 58.0126 46.3137 58.0126C47.1166 58.003 47.9136 58.1504 48.6588 58.4463C49.404 58.7422 50.0828 59.1809 50.6561 59.7371C51.2295 60.2933 51.6861 60.9561 51.9998 61.6874C52.3135 62.4187 52.478 63.2041 52.484 63.9985H39.8631Z" fill="#606060"/>
<path d="M13.8912 60.1019L10.5565 59.3536C7.83967 58.7609 5.84081 57.5034 5.84081 54.9819C5.84081 51.7908 9.73691 50.8073 11.9718 50.8073C14.8402 50.8073 18.1823 51.9489 19.1379 55.2171H23.0774C21.9211 49.7403 17.3357 47.4199 12.1283 47.4199C7.47006 47.4199 1.6972 49.7444 1.6972 55.2171C1.6972 59.9438 5.63838 62.1508 9.62054 63.0167L13.2192 63.765C16.8423 64.592 19.4296 65.7733 19.4296 68.8055C19.4296 71.6432 17.0022 73.611 12.702 73.611C8.20355 73.611 5.4966 71.5621 4.74016 67.6251H0.753906C1.51034 73.3053 5.81048 76.9983 12.6176 76.9983C18.3593 76.9983 23.606 74.0042 23.606 68.4504C23.606 62.7021 18.3118 61.0473 13.8912 60.1019Z" fill="#606060"/>
<path d="M31.3849 49.9805H27.7625V55.2975H24.377V58.1741H27.7625V71.1707C27.7625 75.5829 28.7181 76.4877 32.8191 76.4877H35.4416V73.4952H33.6107C31.5398 73.4952 31.3816 72.9438 31.3816 70.7386V58.1717H35.4416V55.2951H31.3816L31.3849 49.9805Z" fill="#606060"/>
<path d="M103.176 55.1808C101.9 55.1575 100.644 55.5076 99.568 56.187C98.4917 56.8665 97.642 57.8451 97.1254 59.0003V55.3016H93.5801V76.4918H97.2033V65.3843C97.2033 60.6575 98.876 58.8933 102.221 58.8933C102.9 58.895 103.579 58.9492 104.251 59.0554V55.2205C103.893 55.1895 103.535 55.1763 103.176 55.1808Z" fill="#606060"/>
<path d="M90.0911 68.4965L90.1305 63.6116C90.1715 57.5852 87.6227 54.8691 81.6072 54.8691C77.4669 54.8691 73.3258 57.4287 73.0078 61.9974H76.7498C76.9137 59.36 78.6225 57.7814 81.6466 57.7814C84.3552 57.7814 86.504 59.0414 86.504 62.9395V63.4503C77.7464 64.3973 72.0137 65.8826 72.0137 70.8948C72.0137 74.7938 75.3582 77.0007 79.3789 77.0007C83.2004 77.0007 85.3911 75.7845 86.7032 73.5744C86.734 74.5502 86.827 75.5232 86.9818 76.4874H90.6443C90.1627 73.8521 89.9771 71.1722 90.0911 68.4965ZM86.7859 67.6298C86.7859 72.6298 83.5627 74.1678 80.1779 74.1678C77.5898 74.1678 76.0376 72.8293 76.0376 70.8186C76.0376 67.8998 80.2173 66.9196 86.7859 66.2896V67.6298Z" fill="#606060"/>
<path d="M62.3689 47.918H58.7461V76.487H62.3689V47.918Z" fill="#606060"/>
<path d="M69.613 47.918H65.9902V76.487H69.613V47.918Z" fill="#606060"/>
</svg>
