<svg width="18" height="18" viewBox="0 0 18 18" fill="none" xmlns="http://www.w3.org/2000/svg">
<path d="M1.60577 4.73094L9 0.46188L16.3942 4.73094V13.2691L9 17.5381L1.60577 13.2691V4.73094Z" stroke="#410EAD" stroke-width="0.8"/>
<path d="M10.0723 6.72689C10.2504 6.729 10.4229 6.78974 10.563 6.8997C10.7031 7.00966 10.803 7.16271 10.8473 7.33516C11.04 7.3019 11.2344 7.27998 11.4297 7.26952C11.8241 7.27639 12.202 7.42881 12.4908 7.69744C12.7795 7.96607 12.9586 8.33193 12.9937 8.72462C13.0287 9.11731 12.9172 9.50909 12.6806 9.82455C12.444 10.14 12.0991 10.3569 11.7121 10.4334C11.5999 10.4524 11.4865 10.4627 11.3727 10.4641C11.1538 10.4641 10.9568 10.4641 10.7422 10.4641V11.1205H11.399V11.383H11.3355H10.6349C10.5167 11.383 10.4685 11.3371 10.4685 11.2167V10.4706H10.2058V11.6631H10.7313V11.9279H10.6634H10.162C9.96282 11.9279 9.94311 11.9016 9.94311 11.7091V10.4706H9.66288V10.9936H9.40235V10.4706H9.13526V12.2823C9.13526 12.4245 9.09366 12.4661 8.95136 12.4661H8.62734H8.60544V12.2014H8.86159V10.4706H8.60326V10.7266H8.33397V10.4706H8.06687V11.2321C8.06687 11.3524 8.01871 11.3984 7.90049 11.3984H7.13861V11.1358H7.7954V10.4663H6.75329C6.32094 10.4711 5.90239 10.3143 5.57973 10.0266C5.25707 9.73899 5.05358 9.34125 5.00917 8.91141C4.96477 8.48157 5.08265 8.05066 5.3397 7.7032C5.59674 7.35573 5.97441 7.11678 6.39862 7.03321L6.47525 7.0179C6.44068 6.73349 6.47494 6.44495 6.57513 6.17652C6.67533 5.90809 6.83853 5.66762 7.05103 5.47533C7.36699 5.17555 7.7845 5.00599 8.22013 5.00052C8.69339 4.98916 9.15228 5.1635 9.49849 5.48619C9.84469 5.80888 10.0507 6.25426 10.0723 6.72689ZM9.05863 10.2015C9.84678 10.2015 10.6349 10.2015 11.4253 10.2015C11.6245 10.1987 11.8205 10.1513 11.9989 10.0628C12.1774 9.97431 12.3337 9.84698 12.4565 9.69017C12.5792 9.53336 12.6653 9.35106 12.7083 9.15665C12.7512 8.96225 12.7501 8.76069 12.7049 8.56679C12.6597 8.37288 12.5716 8.19157 12.4471 8.03617C12.3226 7.88076 12.1648 7.75522 11.9853 7.66877C11.8059 7.58232 11.6093 7.53716 11.4101 7.5366C11.2109 7.53605 11.0141 7.58011 10.8342 7.66556C10.6853 7.73557 10.6043 7.68744 10.6021 7.52333C10.5999 7.4475 10.5816 7.373 10.5483 7.3048C10.5151 7.23659 10.4677 7.17626 10.4092 7.12781C10.3508 7.07936 10.2827 7.04392 10.2095 7.02383C10.1363 7.00375 10.0597 6.99949 9.98471 7.01133C9.85554 7.03103 9.80081 6.97851 9.80081 6.84723C9.80081 6.76846 9.80081 6.69188 9.78767 6.6153C9.74346 6.27207 9.58426 5.95392 9.336 5.71269C9.08774 5.47145 8.76505 5.32136 8.42052 5.28685C8.07599 5.25234 7.72992 5.33545 7.43869 5.52265C7.14747 5.70985 6.92826 5.99009 6.81678 6.31772C6.73273 6.56329 6.71461 6.8266 6.76423 7.08135C6.78613 7.19732 6.74453 7.25421 6.6285 7.26952H6.55406C6.36143 7.28231 6.17321 7.33289 6.00014 7.41837C5.82707 7.50386 5.67255 7.62258 5.54539 7.76775C5.28857 8.06094 5.15881 8.44407 5.18465 8.83288C5.21049 9.22168 5.38981 9.5843 5.68316 9.84097C5.97652 10.0976 6.35988 10.2273 6.74891 10.2015H9.05863Z" fill="#410EAD"/>
<path d="M6.99633 12.1993V12.4663H6.23883C6.22039 12.4634 6.20151 12.4668 6.18523 12.4759C6.16895 12.485 6.15621 12.4994 6.14907 12.5166C6.1095 12.5973 6.04308 12.6617 5.9612 12.6988C5.87932 12.736 5.78707 12.7435 5.70026 12.7201C5.61462 12.6976 5.53885 12.6474 5.48477 12.5773C5.4307 12.5073 5.40137 12.4213 5.40137 12.3328C5.40137 12.2443 5.4307 12.1583 5.48477 12.0882C5.53885 12.0182 5.61462 11.968 5.70026 11.9455C5.78859 11.9193 5.88339 11.9253 5.96765 11.9626C6.0519 11.9999 6.12011 12.066 6.16002 12.149C6.16716 12.1662 6.17989 12.1806 6.19618 12.1897C6.21246 12.1988 6.23134 12.2022 6.24978 12.1993H6.99633ZM5.94108 12.335C5.94151 12.3086 5.9341 12.2827 5.91979 12.2605C5.90548 12.2383 5.8849 12.2209 5.86067 12.2104C5.83644 12.1999 5.80963 12.1968 5.78365 12.2015C5.75766 12.2062 5.73366 12.2185 5.71468 12.2369C5.6957 12.2553 5.6826 12.2788 5.67702 12.3046C5.67144 12.3304 5.67364 12.3573 5.68335 12.3819C5.69305 12.4064 5.70982 12.4275 5.73154 12.4426C5.75325 12.4576 5.77894 12.4658 5.80535 12.4663C5.84044 12.4658 5.87401 12.4519 5.89923 12.4275C5.92445 12.4031 5.93942 12.37 5.94108 12.335Z" fill="#410EAD"/>
<path d="M11.6729 11.3985V11.1337H12.1501C12.1726 11.137 12.1955 11.1328 12.2153 11.1217C12.2351 11.1106 12.2507 11.0933 12.2596 11.0725C12.3002 10.9957 12.3655 10.935 12.445 10.9C12.5245 10.8651 12.6134 10.858 12.6974 10.8799C12.7835 10.9015 12.8599 10.9513 12.9145 11.0213C12.9691 11.0912 12.9987 11.1774 12.9987 11.2661C12.9987 11.3548 12.9691 11.441 12.9145 11.5109C12.8599 11.5809 12.7835 11.6306 12.6974 11.6523C12.6129 11.6742 12.5235 11.6667 12.4438 11.6309C12.3642 11.5951 12.2992 11.5331 12.2596 11.4554C12.2511 11.4359 12.2364 11.4197 12.2178 11.4094C12.1992 11.3991 12.1777 11.3953 12.1567 11.3985H11.6729ZM12.4719 11.2584C12.4702 11.2935 12.4822 11.3278 12.5056 11.354C12.5289 11.3803 12.5617 11.3962 12.5967 11.3985C12.632 11.3997 12.6664 11.3871 12.6925 11.3634C12.7187 11.3397 12.7346 11.3068 12.7369 11.2716C12.738 11.2365 12.7254 11.2024 12.7016 11.1766C12.6779 11.1508 12.6449 11.1354 12.6099 11.1337C12.5926 11.1328 12.5754 11.1354 12.5591 11.1412C12.5428 11.1469 12.5278 11.1559 12.515 11.1675C12.5022 11.1791 12.4918 11.1931 12.4844 11.2087C12.477 11.2243 12.4728 11.2412 12.4719 11.2584Z" fill="#410EAD"/>
<path d="M6.19441 11.1336V11.3984H5.85288C5.83036 11.3943 5.80711 11.3982 5.78713 11.4094C5.76715 11.4205 5.7517 11.4383 5.74342 11.4597C5.70223 11.5358 5.63682 11.5961 5.55753 11.631C5.47823 11.6659 5.38957 11.6733 5.30555 11.6522C5.22086 11.629 5.14613 11.5787 5.09286 11.5089C5.03959 11.4391 5.01074 11.3538 5.01074 11.266C5.01074 11.1783 5.03959 11.0929 5.09286 11.0231C5.14613 10.9534 5.22086 10.903 5.30555 10.8798C5.38908 10.858 5.47753 10.8646 5.55686 10.8987C5.63618 10.9328 5.70184 10.9924 5.74342 11.068C5.75217 11.0907 5.76853 11.1096 5.78968 11.1216C5.81084 11.1335 5.8355 11.1378 5.85945 11.1336H6.19441ZM5.53762 11.2627C5.53592 11.2275 5.52057 11.1944 5.49483 11.1703C5.46908 11.1462 5.43496 11.133 5.39969 11.1336C5.38244 11.1342 5.36547 11.1382 5.34975 11.1453C5.33403 11.1524 5.31986 11.1626 5.30807 11.1752C5.29628 11.1878 5.28709 11.2026 5.28102 11.2187C5.27495 11.2349 5.27213 11.2521 5.27272 11.2693C5.27386 11.3043 5.28873 11.3375 5.31413 11.3616C5.33952 11.3858 5.3734 11.399 5.40845 11.3984C5.44213 11.3951 5.47337 11.3794 5.49605 11.3543C5.51873 11.3292 5.53121 11.2966 5.53105 11.2627H5.53762Z" fill="#410EAD"/>
<path d="M8.34961 12.9998V12.7329H9.40048V12.2056H9.6632V12.4419C9.6632 12.5775 9.6632 12.7132 9.6632 12.851C9.66578 12.8698 9.66421 12.8888 9.65861 12.9069C9.653 12.925 9.64349 12.9416 9.63075 12.9556C9.61801 12.9696 9.60235 12.9806 9.58488 12.9878C9.56741 12.9951 9.54855 12.9985 9.52965 12.9976L8.34961 12.9998Z" fill="#410EAD"/>
<path d="M8.33645 11H8.59698C8.59698 11.0263 8.59698 11.0503 8.59698 11.0744V11.7549C8.59698 11.8862 8.5532 11.9321 8.42403 11.9321H7.80664V11.6674H8.33645V11Z" fill="#410EAD"/>
<path d="M8.3299 12.4618H7.27246V12.2036H8.3299V12.4618Z" fill="#410EAD"/>
<path d="M9.66338 11.2715V11.9279H9.40723V11.2715H9.66338Z" fill="#410EAD"/>
<path d="M6.46875 11.3942V11.1382H6.86064V11.3942H6.46875Z" fill="#410EAD"/>
<path d="M6.86333 11.6719V11.9279H6.47363V11.6719H6.86333Z" fill="#410EAD"/>
<path d="M7.53056 11.6697V11.9257H7.13867V11.6697H7.53056Z" fill="#410EAD"/>
<path d="M11.3987 11.6697V11.9257H11.0068V11.6697H11.3987Z" fill="#410EAD"/>
<path d="M11.6729 11.9279V11.6697H12.0713V11.9279H11.6729Z" fill="#410EAD"/>
<path d="M6.99443 12.9957H6.73828V12.7397H6.99443V12.9957Z" fill="#410EAD"/>
<path d="M7.52861 12.9957H7.27246V12.7397H7.52861V12.9957Z" fill="#410EAD"/>
<path d="M8.06279 12.9957H7.80664V12.7375H8.06279V12.9957Z" fill="#410EAD"/>
<path d="M10.6038 9.78804L10.5381 9.76397L10.4593 9.88869L10.2404 9.76835L10.2688 9.60205L10.1002 9.62831L9.97984 9.40951L10.1024 9.33074L10.0805 9.25415H9.94043V9.00034H10.0784L10.1046 8.92595L9.97984 8.84499L10.1002 8.62619L10.2666 8.65463L10.2426 8.48615L10.4615 8.36581L10.5381 8.49053L10.6169 8.46865V8.32861H10.8796V8.46646L10.9541 8.49272L11.0373 8.36581L11.2562 8.48615C11.2453 8.54961 11.2124 8.62181 11.2343 8.65026C11.2847 8.71808 11.3263 8.61525 11.3919 8.61962L11.5167 8.83843L11.3941 8.9172L11.416 8.99378H11.5561V9.25853H11.4182L11.3919 9.33292L11.5167 9.41388L11.3963 9.63269C11.3328 9.62175 11.2606 9.58893 11.2343 9.61081C11.1664 9.66113 11.2693 9.70489 11.265 9.76835L11.046 9.89525L10.9453 9.76397L10.8687 9.78585V9.92588H10.6038V9.78804ZM10.7351 8.7334C10.656 8.7334 10.5786 8.75683 10.5128 8.80073C10.447 8.84464 10.3956 8.90704 10.3652 8.98008C10.3348 9.05312 10.3268 9.13352 10.3421 9.21113C10.3573 9.28874 10.3953 9.36009 10.4511 9.41617C10.5069 9.47226 10.5781 9.51057 10.6557 9.52626C10.7332 9.54196 10.8137 9.53434 10.887 9.50437C10.9602 9.4744 11.0229 9.42342 11.0672 9.35786C11.1115 9.2923 11.1354 9.2151 11.1358 9.136C11.1361 9.08323 11.1259 9.03093 11.1059 8.9821C11.0859 8.93326 11.0565 8.88887 11.0192 8.85145C10.982 8.81404 10.9377 8.78435 10.889 8.76409C10.8402 8.74383 10.7879 8.7334 10.7351 8.7334Z" fill="#410EAD"/>
<path d="M7.13867 6.79267C7.13845 6.56034 7.21094 6.33375 7.34599 6.14463C7.48103 5.95552 7.67188 5.81335 7.89179 5.73804L7.97718 5.97872C7.81077 6.04209 7.66629 6.15229 7.56121 6.29599C7.45969 6.44212 7.40336 6.61483 7.3992 6.79267H7.13867Z" fill="#410EAD"/>
<path d="M8.27051 5.92392V5.65698L8.64707 5.71825L8.56825 5.97425L8.27051 5.92392Z" fill="#410EAD"/>
</svg>
