<svg width="46" height="46" viewBox="0 0 46 46" fill="none" xmlns="http://www.w3.org/2000/svg">
<path fill-rule="evenodd" clip-rule="evenodd" d="M26.057 0.140468C25.1681 0.444711 11.8543 7.22976 11.5245 7.54668C11.0199 8.03155 10.8357 8.47056 10.8357 9.18891C10.8357 9.65894 10.8842 9.90933 11.0273 10.1779C11.2536 10.6027 11.6995 11.0417 12.1207 11.2542C12.8162 11.6053 12.9992 11.5761 18.4661 10.2402L23.5866 8.98896L23.901 9.28673C24.5019 9.85575 29.4996 13.1897 29.7518 13.1897C30.3499 13.1897 30.6176 12.4921 30.1818 12.0692C30.0624 11.9533 28.8233 11.0836 27.4284 10.1364C26.0334 9.18927 24.8308 8.3268 24.7559 8.21972C24.4054 7.71885 24.869 6.98621 25.5365 6.98621C25.6409 6.98621 27.4112 7.49193 29.4706 8.11004C31.53 8.72814 33.3154 9.23387 33.4381 9.23387C33.7227 9.23387 34.052 8.88638 34.052 8.58618C34.052 8.08378 33.9342 8.03398 29.8299 6.80109C26.4229 5.77778 25.8574 5.6315 25.4161 5.65991C24.4399 5.72275 23.5762 6.41225 23.3507 7.30879C23.2958 7.52699 23.2382 7.70546 23.2227 7.70546C23.2072 7.70546 20.9381 8.25353 18.1803 8.92351C14.6736 9.77528 13.0799 10.1258 12.8795 10.0892C12.1995 9.96508 11.9113 9.11348 12.38 8.61369C12.5413 8.44161 15.0522 7.12817 19.6207 4.82603L26.6143 1.30179L27.1217 1.34225C27.5272 1.37452 28.8 1.86613 33.4681 3.79381C36.6796 5.12002 39.5498 6.28044 39.8462 6.37251C40.8552 6.6861 41.5357 6.67639 43.6641 6.31838C45.4091 6.02484 45.615 5.97152 45.7976 5.76555C46.0183 5.51669 46.0521 5.27412 45.9044 4.99802C45.71 4.63453 45.4637 4.63255 43.4579 4.97869C40.8306 5.43218 41.129 5.49133 36.5673 3.61265C27.2963 -0.205582 27.9619 0.0511906 27.2248 0.00947403C26.7215 -0.0189364 26.426 0.0142391 26.057 0.140468ZM21.3784 12.9154C18.6033 13.4227 16.0995 15.0304 14.577 17.2827C14.0309 18.0906 13.4237 19.4193 13.1604 20.3823C12.8816 21.4017 12.7666 23.4384 12.9289 24.4799C13.226 26.3854 14.2904 28.6706 15.347 29.6716C15.6911 29.9976 16.1194 29.9795 16.3803 29.628C16.6173 29.309 16.5534 29.1058 15.9755 28.339C15.1032 27.1815 14.5123 25.8046 14.2863 24.4029C14.1294 23.429 14.2175 21.615 14.4664 20.6996C15.289 17.6729 17.7057 15.2669 20.7629 14.4308C21.4112 14.2535 21.7342 14.2237 23.0027 14.2237C24.2711 14.2237 24.5941 14.2535 25.2425 14.4308C28.2996 15.2669 30.7163 17.6729 31.539 20.6996C31.7878 21.615 31.8759 23.429 31.719 24.4029C31.2014 27.614 28.8812 30.3391 25.7827 31.3749C24.7431 31.7225 23.8766 31.8308 22.578 31.7756C21.1616 31.7152 20.1862 31.4594 18.9153 30.8146C18.4212 30.5641 17.9261 30.3596 17.8149 30.3604C17.512 30.3626 17.2534 30.6718 17.2534 31.0316C17.2534 31.2769 17.3155 31.389 17.5507 31.5686C18.0473 31.9476 19.5324 32.6047 20.4625 32.8566C21.2637 33.0736 21.4866 33.0946 23.0027 33.0946C24.5174 33.0946 24.7421 33.0735 25.5397 32.8574C28.449 32.069 30.7458 30.1974 32.0777 27.5298C32.3981 26.888 32.7142 26.0867 32.8578 25.5519C33.0789 24.729 33.0994 24.5118 33.0994 22.9895C33.0994 21.4642 33.0792 21.2517 32.8566 20.4272C32.3664 18.6107 31.1187 16.5558 29.8169 15.4211C28.6011 14.3613 27.1303 13.5646 25.6047 13.1395C24.8792 12.9374 24.5368 12.898 23.2722 12.8715C22.4569 12.8543 21.6048 12.8741 21.3784 12.9154ZM31.3297 13.2896C31.1153 13.4144 30.9838 13.7774 31.053 14.0531C31.1266 14.3465 34.0961 16.3786 35.244 16.9213C36.7612 17.6384 38.5482 17.9547 40.1007 17.7809C40.7536 17.7078 43.0195 17.297 45.3923 16.8215C45.5276 16.7944 45.7195 16.6687 45.819 16.5422C46.1142 16.1665 46.0437 15.7809 45.6417 15.5729C45.4174 15.4568 45.1656 15.4905 42.8453 15.9464C40.6203 16.3835 40.158 16.4475 39.2174 16.4485C37.2041 16.4506 36.1688 16.0659 33.6891 14.3944C31.9375 13.2137 31.6729 13.0898 31.3297 13.2896ZM24.1131 16.0597C23.824 16.2361 18.6053 21.1492 18.2929 21.539C18.0547 21.8361 17.9977 22.6045 18.1867 22.9702C18.3712 23.3273 18.6542 23.5339 20.0607 24.3377C20.6906 24.6977 21.206 25.0192 21.206 25.0522C21.206 25.0852 20.917 25.7978 20.5639 26.6357C19.8266 28.3851 19.7206 28.9441 20.0325 29.4411C20.4238 30.0651 21.2909 30.2863 21.8965 29.9168C22.19 29.7377 27.4005 24.8321 27.7125 24.4411C27.9506 24.1426 28.0076 23.3745 27.8187 23.0089C27.635 22.6535 27.3567 22.4507 25.9447 21.644C25.3148 21.2841 24.7993 20.962 24.7993 20.9283C24.7993 20.8945 25.0883 20.1813 25.4414 19.3434C26.1788 17.594 26.2847 17.035 25.9729 16.538C25.5828 15.9162 24.7143 15.6927 24.1131 16.0597ZM24.5258 18.0108C24.3714 18.4003 24.0261 19.2324 23.7586 19.8599C23.4911 20.4874 23.2722 21.121 23.2722 21.2679C23.2722 21.6263 23.487 21.7946 25.1862 22.7679C25.9602 23.2113 26.5941 23.6005 26.5947 23.633C26.5954 23.6655 25.5349 24.7009 24.2379 25.9339C21.7696 28.2802 21.206 28.7963 21.206 28.7103C21.206 28.6316 21.7018 27.3973 22.2467 26.1192C22.5142 25.4917 22.7332 24.8581 22.7332 24.7112C22.7332 24.3537 22.5264 24.1919 20.8209 23.2146C20.0446 22.7696 19.4094 22.3809 19.4094 22.3506C19.4094 22.3202 20.1472 21.5899 21.0488 20.7277C23.7953 18.1012 24.7331 17.2292 24.7706 17.2667C24.7903 17.2865 24.6802 17.6213 24.5258 18.0108ZM5.75487 28.2077C5.43372 28.2461 4.10088 28.4848 2.7931 28.7382C0.891086 29.1068 0.374191 29.2375 0.210426 29.3915C-0.123839 29.7057 -0.0504465 30.1919 0.36368 30.4062C0.587632 30.5221 0.839163 30.4897 3.11515 30.0527C4.49291 29.7881 5.9031 29.5444 6.24895 29.5111C7.51181 29.3896 9.43889 29.8133 10.6027 30.4685C11.4662 30.9546 21.1081 37.5574 21.2496 37.7595C21.5426 38.1782 21.32 38.7318 20.788 38.9075C20.3977 39.0365 20.5323 39.0698 16.2135 37.7726C14.3322 37.2075 12.692 36.7452 12.5685 36.7452C12.2828 36.7452 11.9533 37.0921 11.9533 37.3929C11.9533 37.8944 12.0724 37.9447 16.1754 39.1774C19.5804 40.2002 20.1482 40.3471 20.5892 40.3189C21.5653 40.2565 22.4291 39.567 22.6547 38.6703C22.7095 38.4521 22.7689 38.2736 22.7866 38.2736C22.8043 38.2736 25.0734 37.7256 27.8291 37.0559C31.3253 36.2061 32.9259 35.8539 33.1259 35.8902C33.8057 36.0136 34.0941 36.8653 33.6253 37.3657C33.4638 37.5382 30.9925 38.8322 26.4852 41.1046C18.8953 44.931 19.0929 44.8501 18.1966 44.5002C17.9496 44.4037 15.1792 43.2683 12.0402 41.977C8.90116 40.6857 6.07144 39.5676 5.75191 39.4922C4.8985 39.2909 4.36966 39.3181 2.28798 39.6702C0.600927 39.9557 0.389282 40.0111 0.207731 40.2147C-0.0129864 40.4622 -0.0467633 40.7049 0.100921 40.9811C0.295228 41.3445 0.544153 41.3471 2.50331 41.0065C4.52507 40.6551 5.08374 40.6477 5.9702 40.9605C6.22236 41.0494 8.99557 42.1769 12.133 43.4659C15.2704 44.755 17.999 45.8535 18.1966 45.9071C18.7035 46.0446 19.2965 46.029 19.8646 45.8632C20.1331 45.7849 21.8483 44.9606 23.6764 44.0312C25.5045 43.102 28.5937 41.5414 30.5415 40.5633C34.1928 38.7295 34.6195 38.4623 34.9767 37.7853C35.2314 37.3025 35.2461 36.3057 35.0053 35.8462C34.7749 35.4065 34.339 34.9635 33.9282 34.7517C33.1887 34.3703 33.0645 34.3896 27.5392 35.7393L22.4188 36.9903L22.0594 36.6558C21.3809 36.0241 11.6388 29.4726 10.7611 29.0578C9.80631 28.6064 8.82022 28.3284 7.73118 28.2033C6.88038 28.1057 6.60262 28.1063 5.75487 28.2077Z" fill="#FF4E83"/>
</svg>
