<svg width="40" height="32" viewBox="0 0 40 32" fill="none" xmlns="http://www.w3.org/2000/svg">
<path fill-rule="evenodd" clip-rule="evenodd" d="M21.4728 0.15611C21.1463 0.329956 20.8787 0.671579 20.7781 1.04283C20.7403 1.1824 19.7215 7.80405 18.5139 15.7575C16.9738 25.902 16.3271 30.3533 16.3474 30.6703C16.45 32.2752 18.8027 32.5 19.2238 30.9451C19.2616 30.8055 20.2805 24.1838 21.488 16.2304C23.0282 6.08593 23.6749 1.63459 23.6546 1.31755C23.6215 0.80019 23.3584 0.394655 22.8922 0.142556C22.5307 -0.0528829 21.853 -0.0464207 21.4728 0.15611ZM10.3967 4.64631C10.2515 4.68074 10.0404 4.77689 9.92774 4.86003C9.81495 4.94309 7.59071 7.28488 4.98496 10.0638C1.55171 13.7254 0.212021 15.2053 0.119399 15.4386C-0.0458345 15.855 -0.0399723 16.1921 0.139487 16.5904C0.232812 16.7976 1.72945 18.4567 4.3692 21.2794C10.4281 27.758 10.0154 27.3645 10.7502 27.3645C11.8404 27.3645 12.5802 26.1496 12.0676 25.2007C11.9816 25.0415 10.0471 22.9213 7.76868 20.4892C5.49027 18.057 3.62612 16.0341 3.62612 15.9939C3.62612 15.9538 5.49027 13.9309 7.76868 11.4987C10.0471 9.0666 11.9816 6.94641 12.0676 6.78722C12.6507 5.70774 11.5995 4.36087 10.3967 4.64631ZM28.9394 4.64252C28.0051 4.86633 27.4903 5.96504 27.9344 6.78722C28.0203 6.94641 29.9548 9.0666 32.2333 11.4987C34.5117 13.9309 36.3758 15.9535 36.3758 15.9935C36.3758 16.0334 34.5117 18.0568 32.2333 20.4897C29.42 23.4938 28.0332 25.0311 27.9115 25.2804C27.4491 26.2282 28.1798 27.3645 29.2518 27.3645C29.9873 27.3645 29.5896 27.7437 35.634 21.2787C38.2661 18.4632 39.7699 16.7959 39.8628 16.5897C40.0457 16.1836 40.0457 15.8043 39.8628 15.3982C39.7699 15.192 38.2661 13.5246 35.634 10.7092C30.8675 5.61097 30.1908 4.9066 29.9275 4.76901C29.6558 4.62716 29.2307 4.5727 28.9394 4.64252Z" fill="#25D193"/>
</svg>
