<svg width="40" height="40" viewBox="0 0 40 40" fill="none" xmlns="http://www.w3.org/2000/svg">
<path fill-rule="evenodd" clip-rule="evenodd" d="M0.606441 0.157707C0.288882 0.325409 0 0.789832 0 1.13258C0 1.52183 1.93825 8.96635 2.21869 9.65435C2.83092 11.1562 2.98868 11.345 7.01302 15.3954C9.04363 17.4391 10.7051 19.1445 10.7051 19.1852C10.7051 19.2259 8.42141 21.5451 5.63019 24.3389C0.142683 29.8315 0.229105 29.7321 0.05376 30.7559C-0.00882976 31.1211 -0.00804837 31.3931 0.0564167 31.7698C0.237779 32.8287 0.283881 32.8861 3.70233 36.3048C7.1207 39.7235 7.17813 39.7696 8.23692 39.951C8.61355 40.0155 8.88556 40.0163 9.25078 39.9537C10.2744 39.7783 10.175 39.8647 15.6672 34.3768C18.4608 31.5853 20.7817 29.3014 20.8246 29.3014C20.8676 29.3014 22.9773 31.3788 25.5128 33.9178C28.0483 36.4569 30.3391 38.6906 30.6037 38.8816C31.6639 39.6475 32.6678 39.9599 34.0688 39.9599C35.2032 39.9599 35.7362 39.8422 36.6865 39.3816C38.2005 38.648 39.3708 37.2192 39.8222 35.5531C40.0125 34.851 40.012 33.281 39.8214 32.5881C39.6269 31.8815 39.2879 31.1653 38.8817 30.6028C38.6907 30.3383 36.4572 28.0472 33.9183 25.5115C31.3795 22.9759 29.3023 20.866 29.3023 20.823C29.3023 20.78 31.586 18.4589 34.3772 15.6651C39.8647 10.1725 39.7783 10.2719 39.9537 9.24814C40.0163 8.88289 40.0155 8.61086 39.951 8.2342C39.7697 7.17532 39.7235 7.11788 36.3051 3.69922C32.8867 0.280475 32.8293 0.234369 31.7705 0.0529913C31.3939 -0.0114793 31.1219 -0.0122608 30.7567 0.0503343C29.733 0.225694 29.8324 0.139265 24.3402 5.62724C21.5467 8.4187 19.2271 10.7026 19.1857 10.7026C19.1443 10.7026 17.4741 9.07122 15.4743 7.07732C12.4886 4.10065 11.7193 3.37538 11.174 3.02356C10.3676 2.50319 10.0503 2.34143 9.32915 2.08268C8.59503 1.81933 1.40792 -0.00444619 1.12154 8.1456e-06C0.998936 0.0019618 0.767096 0.0729186 0.606441 0.157707ZM34.6294 5.36318C37.7697 8.50286 37.8005 8.54139 37.5903 9.04895C37.5403 9.16953 37.2372 9.52884 36.9165 9.84737L36.3335 10.4265L34.4784 8.58007C33.4581 7.56456 32.5464 6.69479 32.4526 6.64728C32.3587 6.59977 32.1125 6.56109 31.9056 6.5614C31.4816 6.56195 31.1652 6.73105 30.9353 7.07982C30.7479 7.36412 30.7368 8.0132 30.9148 8.28218C30.9851 8.38846 31.855 9.29292 32.8478 10.292L34.653 12.1086L33.7577 13.0065L32.8624 13.9044L31.8051 12.8574C30.9261 11.9869 30.6973 11.8009 30.4474 11.7543C29.5929 11.595 28.8802 12.3319 29.0709 13.1774C29.1216 13.4022 29.3601 13.6892 30.1754 14.5063L31.2153 15.5484L30.2987 16.4649L29.3821 17.3816L27.4474 15.4547C25.2938 13.31 25.2615 13.2885 24.5725 13.5517C24.017 13.7638 23.7528 14.27 23.8683 14.9002C23.9151 15.1549 24.1877 15.4623 25.8307 17.1122L27.7387 19.0285L26.8419 19.9229L25.9449 20.8174L24.9454 19.8284C24.3958 19.2844 23.8479 18.8021 23.7279 18.7564C22.7463 18.3832 21.8232 19.3064 22.1964 20.2881C22.242 20.4081 22.7245 20.9562 23.2687 21.5062L24.258 22.5061L23.3812 23.383L22.5043 24.26L20.6484 22.4127C19.6277 21.3968 18.7157 20.5267 18.6219 20.4792C18.528 20.4317 18.2818 20.393 18.0749 20.3933C17.6509 20.3938 17.3345 20.5629 17.1046 20.9117C16.9172 21.196 16.9061 21.8451 17.0841 22.1141C17.1544 22.2203 18.0243 23.1248 19.0171 24.1239L20.8223 25.9405L19.927 26.8384L19.0317 27.7363L17.9744 26.6893C17.0954 25.8187 16.8666 25.6328 16.6167 25.5862C15.7622 25.4269 15.0495 26.1638 15.2402 27.0093C15.2909 27.2341 15.5294 27.5211 16.3447 28.3382L17.3846 29.3803L16.468 30.2968L15.5514 31.2135L13.6167 29.2866C11.4631 27.1419 11.4308 27.1204 10.7418 27.3835C10.1863 27.5957 9.92208 28.1019 10.0376 28.7321C10.0844 28.9868 10.357 29.2941 12 30.9441L13.9081 32.8603L13.0112 33.7548L12.1142 34.6493L11.1147 33.6602C10.5651 33.1163 10.0172 32.6339 9.89723 32.5883C8.91564 32.2151 7.9925 33.1383 8.36569 34.12C8.41133 34.2399 8.89345 34.7877 9.43722 35.3373L10.4258 36.3365L9.84831 36.9178C9.53076 37.2376 9.17217 37.5401 9.0516 37.5901C8.54385 37.8004 8.50533 37.7694 5.37608 34.635C3.41899 32.6746 2.41357 31.6127 2.37911 31.47C2.35059 31.3518 2.35059 31.1583 2.37911 31.0402C2.41482 30.8924 6.82955 26.4226 16.5113 16.7316C24.2555 8.98002 30.6971 2.56922 30.826 2.48529C30.9944 2.37573 31.1468 2.3433 31.367 2.37034C31.6501 2.40496 31.8999 2.63424 34.6294 5.36318ZM5.53986 3.47908C8.4511 4.22272 9.01449 4.41449 9.80838 4.93228C10.3939 5.31419 11.7209 6.51654 11.7209 6.6651C11.7209 6.78404 6.78712 11.7185 6.66819 11.7185C6.52059 11.7185 5.3274 10.3999 4.93756 9.8058C4.7408 9.50595 4.48435 9.01363 4.36769 8.71175C4.20008 8.27788 2.81302 3.05592 2.81302 2.85868C2.81302 2.78178 2.78294 2.77498 5.53986 3.47908ZM15.5109 10.3903L17.5416 12.4222L14.9829 14.9812L12.4242 17.5401L10.3733 15.4891L8.32248 13.438L10.8612 10.8981C12.2576 9.50118 13.418 8.35822 13.4401 8.35822C13.4622 8.35822 14.394 9.2726 15.5109 10.3903ZM30.0637 24.9443C31.407 26.2871 32.506 27.421 32.506 27.464C32.506 27.5668 27.5688 32.5054 27.466 32.5054C27.4225 32.5054 26.2797 31.3977 24.9265 30.0438L22.466 27.5822L25.0046 25.0424C26.4009 23.6456 27.5608 22.5027 27.5823 22.5027C27.6038 22.5027 28.7204 23.6014 30.0637 24.9443ZM35.6407 30.5334C37.1598 32.0858 37.4319 32.4981 37.6001 33.5018C37.9039 35.3147 36.7066 37.1218 34.923 37.5422C34.2811 37.6936 33.8804 37.6931 33.2089 37.5404C32.4188 37.3607 31.8615 36.9576 30.3963 35.5061L29.107 34.2289L31.646 31.6871C33.0425 30.2889 34.207 29.1451 34.2338 29.1451C34.2605 29.1451 34.8936 29.7698 35.6407 30.5334Z" fill="#1473E6"/>
</svg>
