<svg width="52" height="40" viewBox="0 0 52 40" fill="none" xmlns="http://www.w3.org/2000/svg">
<path d="M37.753 32.9977H14.4259C13.9765 32.9848 13.5498 32.7995 13.2366 32.4814C12.9233 32.1633 12.748 31.7373 12.748 31.2938C12.748 30.8503 12.9233 30.4242 13.2366 30.1061C13.5498 29.788 13.9765 29.6028 14.4259 29.5898H37.7552C38.2047 29.6028 38.6313 29.788 38.9446 30.1061C39.2579 30.4242 39.4331 30.8503 39.4331 31.2938C39.4331 31.7373 39.2579 32.1633 38.9446 32.4814C38.6313 32.7995 38.2047 32.9848 37.7552 32.9977H37.753Z" fill="#0092FF"/>
<path d="M37.7523 25.7523H14.4252C14.1941 25.7589 13.964 25.7198 13.7485 25.6372C13.533 25.5545 13.3365 25.4301 13.1706 25.2712C13.0048 25.1123 12.8729 24.9222 12.7829 24.7122C12.6929 24.5022 12.6465 24.2764 12.6465 24.0484C12.6465 23.8203 12.6929 23.5946 12.7829 23.3846C12.8729 23.1745 13.0048 22.9845 13.1706 22.8256C13.3365 22.6667 13.533 22.5422 13.7485 22.4596C13.964 22.377 14.1941 22.3378 14.4252 22.3445H37.7545C37.9856 22.3378 38.2157 22.377 38.4312 22.4596C38.6467 22.5422 38.8432 22.6667 39.009 22.8256C39.1749 22.9845 39.3067 23.1745 39.3968 23.3846C39.4868 23.5946 39.5332 23.8203 39.5332 24.0484C39.5332 24.2764 39.4868 24.5022 39.3968 24.7122C39.3067 24.9222 39.1749 25.1123 39.009 25.2712C38.8432 25.4301 38.6467 25.5545 38.4312 25.6372C38.2157 25.7198 37.9856 25.7589 37.7545 25.7523H37.7523Z" fill="#0092FF"/>
<path d="M37.7523 18.5101H14.4252C14.1941 18.5168 13.964 18.4776 13.7485 18.395C13.533 18.3123 13.3365 18.1879 13.1706 18.029C13.0048 17.8701 12.8729 17.6801 12.7829 17.47C12.6929 17.26 12.6465 17.0343 12.6465 16.8062C12.6465 16.5782 12.6929 16.3524 12.7829 16.1424C12.8729 15.9324 13.0048 15.7423 13.1706 15.5834C13.3365 15.4245 13.533 15.3001 13.7485 15.2174C13.964 15.1348 14.1941 15.0956 14.4252 15.1023H37.7545C37.9856 15.0956 38.2157 15.1348 38.4312 15.2174C38.6467 15.3001 38.8432 15.4245 39.009 15.5834C39.1749 15.7423 39.3067 15.9324 39.3968 16.1424C39.4868 16.3524 39.5332 16.5782 39.5332 16.8062C39.5332 17.0343 39.4868 17.26 39.3968 17.47C39.3067 17.6801 39.1749 17.8701 39.009 18.029C38.8432 18.1879 38.6467 18.3123 38.4312 18.395C38.2157 18.4776 37.9856 18.5168 37.7545 18.5101H37.7523Z" fill="#0092FF"/>
<path d="M37.7523 11.264H14.4252C14.1941 11.2707 13.964 11.2315 13.7485 11.1489C13.533 11.0663 13.3365 10.9418 13.1706 10.7829C13.0048 10.6241 12.8729 10.434 12.7829 10.2239C12.6929 10.0139 12.6465 9.78816 12.6465 9.56012C12.6465 9.33207 12.6929 9.10634 12.7829 8.8963C12.8729 8.68626 13.0048 8.49618 13.1706 8.3373C13.3365 8.17842 13.533 8.05397 13.7485 7.97133C13.964 7.8887 14.1941 7.84954 14.4252 7.85619H37.7545C37.9856 7.84954 38.2157 7.8887 38.4312 7.97133C38.6467 8.05397 38.8432 8.17842 39.009 8.3373C39.1749 8.49618 39.3067 8.68626 39.3968 8.8963C39.4868 9.10634 39.5332 9.33207 39.5332 9.56012C39.5332 9.78816 39.4868 10.0139 39.3968 10.2239C39.3067 10.434 39.1749 10.6241 39.009 10.7829C38.8432 10.9418 38.6467 11.0663 38.4312 11.1489C38.2157 11.2315 37.9856 11.2707 37.7545 11.264H37.7523Z" fill="#0092FF"/>
<path d="M52.0002 19.9989C52 20.451 51.8179 20.8844 51.4938 21.2041C51.1697 21.5237 50.7303 21.7034 50.2719 21.7036H48.0482C47.8232 21.7037 47.6073 21.7916 47.4477 21.9481C47.2881 22.1046 47.1977 22.3169 47.1962 22.5388V35.477C47.1952 36.6751 46.7126 37.8239 45.8543 38.6716C44.9959 39.5193 43.8318 39.9968 42.6171 39.9993H39.9037C39.6726 40.0059 39.4425 39.9668 39.227 39.8841C39.0115 39.8015 38.815 39.6771 38.6492 39.5182C38.4833 39.3593 38.3515 39.1692 38.2614 38.9592C38.1714 38.7491 38.125 38.5234 38.125 38.2954C38.125 38.0673 38.1714 37.8416 38.2614 37.6316C38.3515 37.4215 38.4833 37.2314 38.6492 37.0725C38.815 36.9137 39.0115 36.7892 39.227 36.7066C39.4425 36.6239 39.6726 36.5848 39.9037 36.5915H42.6171C42.7649 36.5911 42.9113 36.562 43.0478 36.5058C43.1843 36.4496 43.3082 36.3675 43.4126 36.2641C43.5169 36.1606 43.5995 36.038 43.6557 35.903C43.712 35.7681 43.7407 35.6236 43.7403 35.4777V22.5388C43.7386 21.6215 44.0443 20.7293 44.61 20.0011C44.0448 19.2699 43.7392 18.3756 43.7403 17.4561V4.51648C43.7406 4.3709 43.7118 4.2267 43.6554 4.09215C43.5991 3.9576 43.5163 3.83536 43.412 3.73243C43.3076 3.62949 43.1837 3.54789 43.0473 3.49231C42.9108 3.43673 42.7646 3.40828 42.6171 3.40857H39.9037C39.6726 3.41522 39.4425 3.37607 39.227 3.29343C39.0115 3.21079 38.815 3.08634 38.6492 2.92746C38.4833 2.76858 38.3515 2.57849 38.2614 2.36845C38.1714 2.15841 38.125 1.93269 38.125 1.70465C38.125 1.47661 38.1714 1.25089 38.2614 1.04085C38.3515 0.830806 38.4833 0.640711 38.6492 0.481831C38.815 0.32295 39.0115 0.198503 39.227 0.115865C39.4425 0.0332269 39.6726 -0.0059254 39.9037 0.000725125H42.6171C43.8308 0.00302474 44.9942 0.479609 45.8524 1.32611C46.7106 2.17262 47.1938 3.32006 47.1962 4.5172V17.4539C47.1964 17.6768 47.2862 17.8905 47.4459 18.0482C47.6056 18.2059 47.8222 18.2946 48.0482 18.295H50.2719C50.7301 18.2952 51.1695 18.4748 51.4936 18.7942C51.8176 19.1137 51.9999 19.547 52.0002 19.9989Z" fill="#0092FF"/>
<path d="M13.7744 38.2932C13.7747 38.5171 13.7302 38.7389 13.6435 38.9459C13.5567 39.1528 13.4294 39.3408 13.2689 39.4992C13.1083 39.6575 12.9177 39.7831 12.7079 39.8687C12.4981 39.9542 12.2732 39.9981 12.0461 39.9978H9.33352C8.11786 39.9967 6.95232 39.5199 6.09272 38.672C5.23312 37.8242 4.74968 36.6746 4.74852 35.4756V22.5388C4.74891 22.3173 4.66021 22.1047 4.50187 21.9475C4.34353 21.7904 4.12847 21.7016 3.90386 21.7006H1.67788C1.22843 21.6877 0.801788 21.5025 0.488514 21.1844C0.175239 20.8663 0 20.4402 0 19.9967C0 19.5533 0.175239 19.1272 0.488514 18.8091C0.801788 18.4909 1.22843 18.3058 1.67788 18.2928H3.90386C4.01552 18.2925 4.12603 18.2706 4.22907 18.2281C4.33211 18.1857 4.42566 18.1236 4.50437 18.0455C4.58309 17.9674 4.64543 17.8748 4.68783 17.7729C4.73022 17.671 4.75185 17.5619 4.75146 17.4517V4.51647C4.75399 3.31839 5.23805 2.17018 6.09752 1.32355C6.957 0.476923 8.12176 0.000957097 9.33646 0H12.0491C12.4985 0.0129338 12.9252 0.198119 13.2385 0.516255C13.5517 0.83439 13.727 1.26042 13.727 1.70391C13.727 2.1474 13.5517 2.57344 13.2385 2.89158C12.9252 3.20971 12.4985 3.3949 12.0491 3.40783H9.33646C9.18823 3.40697 9.04128 3.435 8.90406 3.49031C8.76684 3.54562 8.64205 3.62713 8.53686 3.73014C8.43167 3.83315 8.34814 3.95564 8.29108 4.09059C8.23402 4.22553 8.20455 4.37026 8.20436 4.51647V17.4532C8.20485 18.3716 7.90158 19.2651 7.34058 19.9982C7.90199 20.7282 8.2054 21.6196 8.20436 22.5359V35.477C8.20475 35.7723 8.32384 36.0553 8.53551 36.2641C8.74719 36.4729 9.03416 36.5903 9.33352 36.5907H12.0461C12.273 36.5904 12.4977 36.6342 12.7074 36.7197C12.917 36.8051 13.1076 36.9305 13.2681 37.0886C13.4286 37.2467 13.5559 37.4345 13.6428 37.6412C13.7297 37.8479 13.7744 38.0694 13.7744 38.2932Z" fill="#0092FF"/>
</svg>
