<svg width="24" height="40" viewBox="0 0 24 40" fill="none" xmlns="http://www.w3.org/2000/svg">
<path d="M21.6423 0.768645C21.3931 0.392163 21.0028 0.128746 20.557 0.0362648C20.1113 -0.0562163 19.6466 0.0298414 19.265 0.275461C18.8386 0.58523 18.5451 1.0414 18.4423 1.55417C18.401 1.82575 17.3736 8.20416 12.1435 8.20416C6.90165 8.20416 5.76571 1.82212 5.71637 1.53105C5.63706 1.18422 5.46015 0.866545 5.20602 0.614632C4.95188 0.362719 4.63085 0.186766 4.2799 0.107102C3.92895 0.0274377 3.56237 0.0472986 3.22234 0.164337C2.8823 0.281375 2.58265 0.49083 2.3579 0.768645C-0.0909613 4.47208 -2.48802 12.9872 5.41051 19.3102L6.35403 38.3869C6.3754 38.8216 6.56527 39.2315 6.88429 39.5318C7.20332 39.8321 7.62705 39.9997 8.0678 40C8.09616 40 8.12455 40 8.15354 40C8.37885 39.9891 8.59978 39.9345 8.80373 39.8394C9.00767 39.7442 9.19063 39.6103 9.34216 39.4453C9.49369 39.2803 9.61079 39.0875 9.68683 38.8778C9.76286 38.6681 9.79633 38.4456 9.78529 38.2231L8.8035 18.3682C8.79105 18.1179 8.7226 17.8734 8.60307 17.6523C8.48354 17.4312 8.31592 17.239 8.11221 17.0895C3.22681 13.506 3.05168 9.1973 3.76149 6.21604C5.23784 8.96469 7.88279 11.5983 12.1435 11.5983C16.2753 11.5983 18.8518 9.1309 20.3177 6.47724C20.9609 9.43597 20.66 13.5888 15.888 17.0895C15.6843 17.239 15.5167 17.4312 15.3971 17.6523C15.2776 17.8734 15.2092 18.1179 15.1967 18.3682L14.2149 38.2231C14.2039 38.4456 14.2373 38.6681 14.3134 38.8778C14.3894 39.0875 14.5066 39.2803 14.6581 39.4453C14.8096 39.6103 14.9926 39.7442 15.1965 39.8394C15.4005 39.9345 15.6214 39.9891 15.8467 40C15.8757 40 15.9034 40 15.9324 40C16.3731 39.9996 16.7968 39.8319 17.1158 39.5316C17.4348 39.2314 17.6247 38.8216 17.6462 38.3869L18.5897 19.3102C26.4883 12.9872 24.0906 4.47208 21.6423 0.768645Z" fill="#FFB300"/>
</svg>
