<svg width="40" height="41" viewBox="0 0 40 41" fill="none" xmlns="http://www.w3.org/2000/svg">
<path d="M28.3868 38.1207H3.00482V2.87294H15.8141V11.4964C15.8141 11.6852 15.8529 11.8722 15.9284 12.0467C16.0039 12.2212 16.1145 12.3798 16.254 12.5133C16.3935 12.6468 16.5593 12.7527 16.7415 12.825C16.9238 12.8973 17.1191 12.9345 17.3164 12.9345H26.885V14.6296C26.8935 15.0056 27.0556 15.3633 27.3363 15.6263C27.6171 15.8892 27.9943 16.0366 28.3871 16.0366C28.7799 16.0366 29.1571 15.8892 29.4379 15.6263C29.7186 15.3633 29.8805 15.0056 29.8891 14.6296V11.4937C29.8891 11.4815 29.8856 11.4692 29.8849 11.457C29.8829 11.3845 29.8754 11.3122 29.8623 11.2407C29.8623 11.2258 29.8587 11.2095 29.8552 11.1946C29.8365 11.1136 29.8106 11.0342 29.7779 10.9573C29.7673 10.9329 29.7546 10.9105 29.7433 10.8895C29.7175 10.8352 29.6879 10.7826 29.6547 10.7322C29.6399 10.7084 29.6242 10.6854 29.6065 10.6644C29.5682 10.6133 29.5263 10.5648 29.4811 10.5193C29.4655 10.503 29.4514 10.486 29.4358 10.4711C29.4202 10.4562 29.4266 10.4603 29.4202 10.4549L18.3501 0.393322C18.2924 0.341269 18.2305 0.293601 18.165 0.250875C18.1494 0.240704 18.1325 0.232557 18.1162 0.223064C18.0586 0.187955 17.9984 0.156732 17.9362 0.129535C17.91 0.118008 17.8831 0.107839 17.8554 0.0976683C17.7939 0.0752977 17.7311 0.056705 17.6671 0.042047C17.6452 0.0366226 17.6232 0.0298925 17.6005 0.0258242C17.5132 0.00989908 17.4245 0.00121969 17.3356 0H17.3157H1.50232C1.10385 0 0.721717 0.151511 0.439957 0.421215C0.158197 0.690919 0 1.0567 0 1.43812V39.5615C0 39.943 0.158197 40.3087 0.439957 40.5784C0.721717 40.8482 1.10385 40.9997 1.50232 40.9997H28.3861C28.5861 41.0038 28.7849 40.9697 28.9709 40.8993C29.157 40.829 29.3264 40.7237 29.4694 40.5898C29.6123 40.4559 29.7259 40.2959 29.8035 40.1194C29.881 39.9429 29.9211 39.7534 29.9211 39.5619C29.9211 39.3704 29.881 39.1808 29.8035 39.0043C29.7259 38.8278 29.6123 38.6679 29.4694 38.534C29.3264 38.4 29.157 38.2948 28.9709 38.2244C28.7849 38.154 28.5861 38.1199 28.3861 38.1241L28.3868 38.1207ZM18.8182 10.0582V4.78302L24.6226 10.0582H18.8182Z" fill="#FC7754"/>
<path d="M14.6541 17.4164H6.97837C6.77837 17.4122 6.57953 17.4463 6.39349 17.5167C6.20745 17.5871 6.03789 17.6923 5.8949 17.8262C5.75192 17.9602 5.63834 18.1201 5.56079 18.2966C5.48323 18.4731 5.44336 18.6627 5.44336 18.8541C5.44336 19.0456 5.48323 19.2352 5.56079 19.4117C5.63834 19.5882 5.75192 19.7481 5.8949 19.8821C6.03789 20.016 6.20745 20.1212 6.39349 20.1916C6.57953 20.262 6.77837 20.2961 6.97837 20.2919H14.6541C15.0468 20.2838 15.4206 20.1287 15.6954 19.86C15.9701 19.5912 16.1239 19.2302 16.1239 18.8541C16.1239 18.4781 15.9701 18.1171 15.6954 17.8483C15.4206 17.5796 15.0468 17.4245 14.6541 17.4164Z" fill="#FC7754"/>
<path d="M14.6541 21.9359H6.97837C6.77837 21.9317 6.57953 21.9658 6.39349 22.0362C6.20745 22.1066 6.03789 22.2118 5.8949 22.3458C5.75192 22.4797 5.63834 22.6396 5.56079 22.8161C5.48323 22.9927 5.44336 23.1822 5.44336 23.3737C5.44336 23.5652 5.48323 23.7547 5.56079 23.9312C5.63834 24.1077 5.75192 24.2677 5.8949 24.4016C6.03789 24.5355 6.20745 24.6408 6.39349 24.7112C6.57953 24.7815 6.77837 24.8156 6.97837 24.8115H14.6541C15.0468 24.8033 15.4206 24.6482 15.6954 24.3795C15.9701 24.1107 16.1239 23.7497 16.1239 23.3737C16.1239 22.9977 15.9701 22.6366 15.6954 22.3679C15.4206 22.0991 15.0468 21.9441 14.6541 21.9359Z" fill="#FC7754"/>
<path d="M14.6541 26.4554H6.97837C6.77837 26.4513 6.57953 26.4853 6.39349 26.5557C6.20745 26.6261 6.03789 26.7314 5.8949 26.8653C5.75192 26.9992 5.63834 27.1592 5.56079 27.3357C5.48323 27.5122 5.44336 27.7017 5.44336 27.8932C5.44336 28.0847 5.48323 28.2742 5.56079 28.4507C5.63834 28.6273 5.75192 28.7872 5.8949 28.9211C6.03789 29.0551 6.20745 29.1603 6.39349 29.2307C6.57953 29.3011 6.77837 29.3352 6.97837 29.331H14.6541C15.0468 29.3228 15.4206 29.1678 15.6954 28.899C15.9701 28.6303 16.1239 28.2692 16.1239 27.8932C16.1239 27.5172 15.9701 27.1561 15.6954 26.8874C15.4206 26.6186 15.0468 26.4636 14.6541 26.4554Z" fill="#FC7754"/>
<path d="M14.6541 30.973H6.97837C6.77837 30.9688 6.57953 31.0029 6.39349 31.0733C6.20745 31.1437 6.03789 31.2489 5.8949 31.3829C5.75192 31.5168 5.63834 31.6767 5.56079 31.8533C5.48323 32.0298 5.44336 32.2193 5.44336 32.4108C5.44336 32.6023 5.48323 32.7918 5.56079 32.9683C5.63834 33.1448 5.75192 33.3048 5.8949 33.4387C6.03789 33.5726 6.20745 33.6779 6.39349 33.7483C6.57953 33.8187 6.77837 33.8527 6.97837 33.8486H14.6541C15.0468 33.8404 15.4206 33.6854 15.6954 33.4166C15.9701 33.1479 16.1239 32.7868 16.1239 32.4108C16.1239 32.0348 15.9701 31.6737 15.6954 31.405C15.4206 31.1362 15.0468 30.9812 14.6541 30.973Z" fill="#FC7754"/>
<path d="M37.1998 25.7746C37.0025 25.7682 36.806 25.7991 36.6213 25.8656C36.4366 25.9321 36.2672 26.0328 36.1232 26.162C35.9792 26.2912 35.8634 26.4463 35.7822 26.6185C35.701 26.7906 35.6559 26.9765 35.6499 27.1653C35.6023 28.5452 35.0861 29.8726 34.1794 30.9463C33.2727 32.0201 32.025 32.7817 30.6255 33.1156C29.226 33.4496 27.7509 33.3378 26.4238 32.7971C25.0966 32.2564 23.9899 31.3163 23.2711 30.1193C22.5523 28.9223 22.2607 27.5337 22.4406 26.1638C22.6205 24.794 23.262 23.5175 24.2679 22.5281C25.2738 21.5386 26.5893 20.89 28.015 20.6806C29.4406 20.4711 30.8987 20.7122 32.1683 21.3673C32.3422 21.4613 32.5341 21.5212 32.7324 21.5434C32.9308 21.5657 33.1316 21.5498 33.3235 21.4968C33.5154 21.4439 33.6944 21.3548 33.8499 21.2349C34.0054 21.1149 34.1343 20.9666 34.2292 20.7983C34.3241 20.6301 34.383 20.4455 34.4025 20.2552C34.4219 20.065 34.4016 19.8729 34.3426 19.6903C34.2837 19.5077 34.1871 19.3381 34.0589 19.1915C33.9306 19.045 33.7732 18.9244 33.5957 18.8368C31.7516 17.8852 29.6335 17.5349 27.5627 17.8392C25.4919 18.1434 23.5813 19.0855 22.1202 20.5227C20.659 21.9599 19.7272 23.8139 19.4659 25.8036C19.2046 27.7933 19.6278 29.8104 20.6718 31.5491C21.7158 33.2877 23.3236 34.6533 25.2512 35.4387C27.1789 36.2242 29.3214 36.3867 31.3543 35.9017C33.3871 35.4166 35.1995 34.3105 36.5165 32.7509C37.8335 31.1913 38.5834 29.2632 38.6526 27.2589C38.6591 27.0701 38.6267 26.882 38.5572 26.7052C38.4876 26.5285 38.3824 26.3665 38.2474 26.2287C38.1125 26.0909 37.9506 25.9798 37.7708 25.9019C37.5911 25.824 37.397 25.7808 37.1998 25.7746Z" fill="#FC7754"/>
<path d="M39.6619 20.2447C39.5374 20.0982 39.3838 19.9768 39.2102 19.8872C39.0366 19.7975 38.8463 19.7415 38.6501 19.7223C38.4538 19.7031 38.2557 19.7211 38.0667 19.7753C37.8778 19.8294 37.7017 19.9186 37.5488 20.0379L28.7787 26.8726L26.9737 25.0934C26.8363 24.958 26.6725 24.8498 26.4914 24.775C26.3103 24.7002 26.1155 24.6603 25.9183 24.6575C25.7211 24.6547 25.5254 24.6892 25.3421 24.7588C25.1588 24.8285 24.9915 24.9321 24.85 25.0636C24.7086 25.1951 24.5956 25.352 24.5175 25.5254C24.4393 25.6987 24.3976 25.885 24.3947 26.0738C24.3918 26.2626 24.4277 26.45 24.5005 26.6255C24.5733 26.8009 24.6815 26.961 24.8189 27.0964L27.5814 29.8208C27.8432 30.0788 28.1967 30.2336 28.5719 30.2546C28.947 30.2755 29.3167 30.1612 29.6081 29.934L39.4451 22.2673C39.5981 22.1481 39.7251 22.0013 39.8188 21.8352C39.9125 21.669 39.9711 21.4868 39.9912 21.299C40.0113 21.1111 39.9926 20.9213 39.936 20.7404C39.8795 20.5595 39.7865 20.3911 39.6619 20.2447Z" fill="#FC7754"/>
</svg>
