<svg width="46" height="46" viewBox="0 0 46 46" fill="none" xmlns="http://www.w3.org/2000/svg">
<path opacity="0.07" fill-rule="evenodd" clip-rule="evenodd" d="M8.26562 2.69531V5.39062H9.61328H10.9609V4.04297V2.69531H12.3086H13.6562V1.34766V0H10.9609H8.26562V2.69531ZM16.3516 1.34766V2.69531H19.0469H21.7422V1.34766V0H19.0469H16.3516V1.34766ZM24.4375 1.34766V2.69531H27.1328H29.8281V1.34766V0H27.1328H24.4375V1.34766ZM32.5234 1.34766V2.69531H35.2188H37.9141V1.34766V0H35.2188H32.5234V1.34766ZM40.6094 1.34766V2.69531H41.957H43.3047V4.04297V5.39062H44.6523H46V2.69531V0H43.3047H40.6094V1.34766ZM8.26562 10.7812V13.4766H9.61328H10.9609V10.7812V8.08594H9.61328H8.26562V10.7812ZM27.1328 9.43359V10.7812H30.2096H33.2864L29.0866 14.9818C26.7767 17.2921 24.8867 19.2234 24.8867 19.2736C24.8867 19.3903 26.6128 21.1133 26.7298 21.1133C26.7781 21.1133 28.7079 19.2233 31.0182 16.9134L35.2188 12.7136V15.7904V18.8672H36.5664H37.9141V13.4766V8.08594H32.5234H27.1328V9.43359ZM43.3047 10.7812V13.4766H44.6523H46V10.7812V8.08594H44.6523H43.3047V10.7812ZM8.26562 18.8672V21.5625H9.61328H10.9609V18.8672V16.1719H9.61328H8.26562V18.8672ZM43.3047 18.8672V21.5625H44.6523H46V18.8672V16.1719H44.6523H43.3047V18.8672ZM43.3047 26.9531V29.6484H44.6523H46V26.9531V24.2578H44.6523H43.3047V26.9531ZM0 35.2188V46H10.7812H21.5625V35.2188V24.4375H10.7812H0V35.2188ZM18.8672 35.2188V43.3047H10.7812H2.69531V35.2188V27.1328H10.7812H18.8672V35.2188ZM43.3047 33.6914V35.0391H41.957H40.6094V36.3867V37.7344H43.3047H46V35.0391V32.3438H44.6523H43.3047V33.6914ZM24.4375 36.3867V37.7344H27.1328H29.8281V36.3867V35.0391H27.1328H24.4375V36.3867ZM32.5234 36.3867V37.7344H35.2188H37.9141V36.3867V35.0391H35.2188H32.5234V36.3867Z" fill="black"/>
</svg>
