<svg width="32" height="40" viewBox="0 0 32 40" fill="none" xmlns="http://www.w3.org/2000/svg">
<path fill-rule="evenodd" clip-rule="evenodd" d="M2.88547 0.118567C2.2034 0.269301 1.65409 0.582951 1.11784 1.1277C0.570529 1.68385 0.273349 2.23008 0.12107 2.96009C-0.0403567 3.73398 -0.0403567 36.2583 0.12107 37.0322C0.273349 37.7622 0.570529 38.3085 1.11784 38.8646C1.66523 39.4207 2.20286 39.7226 2.92136 39.8773C3.68099 40.0409 28.3176 40.0409 29.0773 39.8773C29.7958 39.7226 30.3334 39.4207 30.8808 38.8646C31.4281 38.3085 31.7253 37.7622 31.8776 37.0322C32.0388 36.2591 32.0418 8.63531 31.8806 8.25911C31.7415 7.93452 24.1045 0.193231 23.8158 0.0842033C23.4654 -0.0480985 3.49105 -0.0152964 2.88547 0.118567ZM22.1645 5.2938L22.1873 8.08588L22.3887 8.52215C22.6447 9.07674 23.057 9.49559 23.6028 9.75566L24.0322 9.96028L26.7809 9.98348L29.5297 10.0067L29.5098 23.3524C29.49 36.6941 29.4899 36.6982 29.3315 36.9138C29.2443 37.0325 29.0775 37.2019 28.9607 37.2905L28.7484 37.4515H15.9993H3.25021L3.0379 37.2905C2.92113 37.2019 2.75433 37.0325 2.66716 36.9138L2.50865 36.6981L2.48674 20.2052C2.47467 11.1341 2.48467 3.5991 2.50903 3.46071C2.564 3.1476 2.88723 2.74851 3.19664 2.6116C3.3872 2.52726 5.18195 2.50726 12.7864 2.50476L22.1417 2.50172L22.1645 5.2938ZM4.93005 18.7466V19.9962H15.9993H27.0686V18.7466V17.497H15.9993H4.93005V18.7466ZM4.93005 24.9946V26.2442H15.9993H27.0686V24.9946V23.745H15.9993H4.93005V24.9946ZM4.93005 31.2426V32.4922H13.5395H22.1489V31.2426V29.993H13.5395H4.93005V31.2426ZM24.6087 31.2426V32.4922H25.8387H27.0686V31.2426V29.993H25.8387H24.6087V31.2426Z" fill="#C7CB12"/>
</svg>
