<svg width="40" height="26" viewBox="0 0 40 26" fill="none" xmlns="http://www.w3.org/2000/svg">
<path fill-rule="evenodd" clip-rule="evenodd" d="M2.9009 0.133362C2.75814 0.204721 2.54717 0.388352 2.43208 0.541537L2.22267 0.819996L2.20087 4.48555L2.17915 8.15103L1.48373 8.17871C0.93169 8.20059 0.743849 8.24 0.572651 8.36979C0.140787 8.69717 0.0375684 8.92354 0.00686053 9.6112C-0.0286918 10.405 0.0684325 10.7491 0.427785 11.1025L0.707593 11.3778L5.50872 11.3994C8.14936 11.4113 10.3099 11.4308 10.3099 11.4428C10.3099 11.4547 10.2423 11.784 10.1596 12.1744C10.0769 12.5648 9.98511 13.1233 9.95558 13.4153L9.90182 13.9463L9.22398 14.6442C7.79384 16.1168 7.02747 17.9238 7.00036 19.8877C6.98473 21.0158 6.97887 21.0113 8.4823 21.0113H9.60662L9.60795 21.3086C9.61045 21.8424 9.83322 22.704 10.1257 23.3106C10.5164 24.1211 11.4474 25.0715 12.2434 25.4724C14.1444 26.43 16.3484 26.0635 17.8509 24.54C18.6816 23.6976 19.2175 22.4784 19.2175 21.4307V21.0113H20.551C21.2844 21.0113 21.9496 20.9759 22.0293 20.9326C22.2636 20.8054 22.3562 20.3783 22.2988 19.69C22.0117 16.2508 19.952 13.6319 16.75 12.6348C16.107 12.4345 15.9469 12.4173 14.6855 12.4131C13.204 12.4082 12.8701 12.4656 11.7696 12.9144C11.461 13.0402 11.199 13.1349 11.1875 13.1247C11.1429 13.0851 11.4142 11.9295 11.5994 11.3695C11.7066 11.0454 11.9529 10.4598 12.1468 10.0681L12.4993 9.35597H17.3039H22.1085V9.7161C22.1085 10.2522 22.3256 11.2239 22.5893 11.8687C22.9342 12.7119 23.4781 13.4385 24.414 14.3063C25.4754 15.2904 25.8881 15.5006 26.7593 15.5007C27.7093 15.5008 28.0894 15.2757 29.752 13.7282C31.8594 11.7666 31.7555 12.0334 31.727 8.65943L31.7054 6.0997L32.552 6.12221L33.3986 6.14481L34.1277 7.49271C35.4132 9.86968 35.5542 10.2773 35.3964 11.1598C35.2352 12.0603 35.0837 12.2513 31.4459 16.1383L28.0079 19.8118L26.1195 19.8169C25.0808 19.8197 24.1715 19.8451 24.0988 19.8735C23.8996 19.9511 23.7507 20.37 23.8387 20.6049C23.987 21.0009 24.0209 21.0061 26.4937 21.0088L28.8082 21.0113L28.8598 21.4672C28.9838 22.5606 29.6497 23.801 30.498 24.5187C31.0355 24.9735 32.0172 25.4695 32.6413 25.6017C33.1688 25.7133 34.0927 25.714 34.6262 25.6033C34.8539 25.556 35.3646 25.3594 35.7611 25.1664C36.695 24.7117 37.4041 24.018 37.8679 23.1053C38.1821 22.4872 38.4392 21.6405 38.4392 21.2243C38.4392 21.012 38.4411 21.0113 39.0287 21.0113C39.5505 21.0113 39.6404 20.9889 39.8101 20.8166C40.0382 20.5853 40.0558 20.2744 39.8898 19.4127C39.4319 17.0362 37.8345 15.1748 35.6437 14.4647C35.2688 14.3432 34.9486 14.2335 34.9322 14.2209C34.9158 14.2083 35.0887 13.9916 35.3163 13.7394C36.2401 12.7156 36.5863 11.8887 36.5871 10.7039C36.5877 9.70389 36.4609 9.33853 35.486 7.53235L34.6942 6.06552L34.9274 5.88015C35.3708 5.52756 35.3918 5.41489 35.3915 3.39352C35.3913 1.68994 35.3792 1.52597 35.236 1.28771C35.1505 1.14555 34.9661 0.957163 34.826 0.869075C34.585 0.717318 34.4633 0.709944 32.5398 0.731035C30.6109 0.752125 30.4908 0.762274 30.1615 0.931633C29.9304 1.05049 29.6754 1.11003 29.3972 1.11003C28.3123 1.11003 27.5 1.92479 27.5 3.01286C27.5 3.58072 27.6488 3.9843 27.9923 4.34799C28.2288 4.59822 28.7344 4.91585 28.8964 4.91585C28.9373 4.91585 29.1649 5.1082 29.4023 5.34337C29.647 5.58591 29.9883 5.83075 30.1906 5.90917L30.5473 6.04745L30.5658 8.15761C30.5894 10.8564 30.5817 11.0408 30.4336 11.3314C30.3086 11.5767 27.9076 13.8749 27.5083 14.1315C27.3885 14.2084 27.1277 14.294 26.9287 14.3217C26.3781 14.3983 25.9012 14.1198 24.9437 13.1625C24.2804 12.4993 24.092 12.2543 23.8289 11.7126C23.5128 11.062 23.2845 10.2067 23.2819 9.66377C23.2807 9.38737 23.2924 9.37524 23.6019 9.33314C23.9854 9.28097 24.3311 8.97618 24.4615 8.5757C24.5188 8.39944 24.5365 8.01157 24.5097 7.5184C24.4612 6.62569 24.215 5.96879 23.7205 5.41346C23.3813 5.0324 22.6875 4.64762 22.1242 4.52805C21.8491 4.46962 20.2166 4.44012 17.2602 4.44012H12.8102L12.8098 2.87419C12.8093 1.18076 12.7588 0.852186 12.4397 0.467402C12.0788 0.0321906 11.9053 0 9.91815 0H8.1149L7.92316 0.194652C7.69312 0.427996 7.67757 0.707882 7.88057 0.962476C8.02763 1.14698 8.05513 1.15023 9.81446 1.18932L11.5991 1.22896L11.6195 4.69781L11.6398 8.16665H7.49778H3.35566V4.67799V1.18932H4.76564C6.15851 1.18932 6.17804 1.18694 6.36745 0.994667C6.47293 0.887628 6.55927 0.707645 6.55927 0.594659C6.55927 0.481674 6.47293 0.301691 6.36745 0.194652C6.17695 0.00126876 6.1657 2.08088e-07 4.66797 0.00182383C3.43247 0.00325101 3.11351 0.0270371 2.9009 0.133362ZM34.2198 3.40938V4.91585H32.5905C31.084 4.91585 30.4692 4.84893 30.4692 4.68504C30.4692 4.65388 30.5793 4.52353 30.7138 4.39548C31.2591 3.87623 31.4417 2.89575 31.1171 2.23005L30.9576 1.90291H32.5887H34.2198V3.40938ZM29.8718 2.49376C30.2727 2.87086 30.068 3.64661 29.5363 3.76514C29.2719 3.82406 28.875 3.64613 28.7525 3.41374C28.3623 2.67398 29.27 1.92789 29.8718 2.49376ZM5.73884 2.86428C5.3587 3.08105 5.27322 3.49319 5.54654 3.79083C5.70141 3.95956 5.75532 3.9644 7.48785 3.9644C9.11498 3.9644 9.2811 3.95179 9.39916 3.81938C9.58466 3.61141 9.56575 3.15114 9.36416 2.96576C9.21515 2.82868 9.04684 2.8129 7.54747 2.7949C6.43465 2.78158 5.84409 2.80425 5.73884 2.86428ZM5.73884 5.40149C5.36073 5.61707 5.26806 6.06354 5.54349 6.34303C5.69063 6.49233 5.80392 6.50161 7.48481 6.50161C9.1149 6.50161 9.2811 6.489 9.39916 6.35659C9.58466 6.14862 9.56575 5.68835 9.36416 5.50298C9.21515 5.36589 9.04684 5.35011 7.54747 5.33211C6.43465 5.31879 5.84409 5.34147 5.73884 5.40149ZM15.2325 6.89805V8.16665H14.0214H12.8102V6.89805V5.62944H14.0214H15.2325V6.89805ZM18.8092 6.91787L18.8308 8.16665H17.6567H16.4827V6.89591V5.62524L17.6352 5.64712L18.7877 5.66909L18.8092 6.91787ZM22.2715 5.80443C22.9416 6.09906 23.3587 6.84366 23.3587 7.745V8.16665H21.6788H19.9988V6.88869V5.61073L20.9951 5.64593C21.655 5.66932 22.086 5.72284 22.2715 5.80443ZM10.9569 9.79206L10.7461 10.2281H5.95699H1.16782V9.79206V9.35597H6.16773H11.1676L10.9569 9.79206ZM16.14 13.7136C18.0837 14.1864 19.7306 15.5666 20.5564 17.4146C20.8146 17.9925 21.0914 19.0825 21.0922 19.5246L21.0928 19.822H14.6465H8.20015V19.4779C8.20015 18.5059 8.8708 16.8767 9.67702 15.8902C10.5129 14.8676 11.8117 14.0422 13.0837 13.7254C13.9448 13.511 15.2857 13.5057 16.14 13.7136ZM35.1184 15.553C35.9515 15.795 36.6044 16.2019 37.3135 16.921C37.7835 17.3976 38.0198 17.715 38.2337 18.1569C38.4936 18.694 38.7484 19.4657 38.7508 19.7229C38.7515 19.801 37.7938 19.822 34.2198 19.822C31.7272 19.822 29.6878 19.8013 29.6878 19.776C29.6878 19.7507 30.6231 18.735 31.7661 17.5189L33.8445 15.3077L34.2079 15.3509C34.4079 15.3747 34.8175 15.4657 35.1184 15.553ZM12.4196 21.235C12.4196 22.2278 13.3549 23.1521 14.3597 23.1521C15.0225 23.1521 15.3806 23.0068 15.8265 22.5572C16.2162 22.1641 16.341 21.9105 16.4406 21.3086L16.4898 21.0113H17.2781H18.0664L18.0271 21.5698C17.9242 23.0278 16.6719 24.4129 15.1701 24.7297C13.2032 25.1447 11.2319 23.8111 10.8585 21.8128C10.7007 20.9686 10.6612 21.0113 11.5991 21.0113H12.4196V21.235ZM15.2325 21.2553C15.2325 21.6302 14.8644 21.9627 14.4493 21.9627C14.1823 21.9627 14.0746 21.9137 13.8573 21.6932C13.6914 21.5248 13.5916 21.3462 13.5916 21.2174V21.0113H14.412H15.2325V21.2553ZM31.642 21.15C31.6435 21.4182 32.0102 22.0856 32.296 22.3401C32.7013 22.7012 33.0659 22.8349 33.6459 22.8349C34.2109 22.8349 34.7314 22.6167 35.0942 22.2278C35.3217 21.984 35.6218 21.3741 35.6245 21.15C35.6261 21.0268 35.7181 21.0113 36.4467 21.0113C37.3854 21.0113 37.3498 20.9731 37.1469 21.7633C36.9775 22.4232 36.6345 22.9894 36.0995 23.4919C35.1509 24.3832 33.9235 24.7021 32.693 24.3769C32.0948 24.2189 31.6329 23.9422 31.0871 23.4152C30.5852 22.9305 30.291 22.4275 30.1202 21.7618C29.9178 20.9733 29.8823 21.0113 30.8208 21.0113C31.5498 21.0113 31.6413 21.0268 31.642 21.15ZM34.3382 21.2468C34.1856 21.5461 33.9999 21.6456 33.5938 21.6456C33.3402 21.6456 33.2206 21.5954 33.0417 21.4138C32.9161 21.2863 32.8133 21.1436 32.8133 21.0967C32.8133 21.0411 33.1004 21.0113 33.6358 21.0113H34.4582L34.3382 21.2468Z" fill="#0073A8"/>
</svg>
