<svg width="18" height="18" viewBox="0 0 18 18" fill="none" xmlns="http://www.w3.org/2000/svg">
<path d="M1.60577 4.73094L9 0.46188L16.3942 4.73094V13.2691L9 17.5381L1.60577 13.2691V4.73094Z" stroke="#410EAD" stroke-width="0.8"/>
<path fill-rule="evenodd" clip-rule="evenodd" d="M5.12127 5.03169C5.08556 5.05054 5.05062 5.08648 5.03142 5.12412C5.00052 5.18472 5 5.21345 5 6.89009C5 8.56742 5.0005 8.59544 5.03145 8.65612C5.0517 8.69583 5.08489 8.72901 5.12459 8.74926C5.18564 8.7804 5.21142 8.78072 7.72761 8.78072C10.1415 8.78072 10.2684 8.78209 10.2584 8.80806C10.198 8.96494 10.1971 8.98497 10.1916 10.2525L10.1863 11.4821L10.0961 11.5816C10.0465 11.6363 9.99367 11.6982 9.97873 11.7192L9.95158 11.7573L9.91764 11.7104C9.85631 11.6257 9.71263 11.4819 9.6192 11.4117C9.43833 11.2757 9.10191 11.1401 8.94542 11.1401C8.85745 11.1401 8.87109 11.1186 8.97205 11.0981C9.37973 11.0155 9.70258 10.6128 9.70258 10.187C9.70258 9.6814 9.27119 9.25001 8.76562 9.25001C8.26006 9.25001 7.82867 9.6814 7.82867 10.187C7.82867 10.6139 8.15144 11.0154 8.56153 11.0986C8.67623 11.1219 8.67181 11.1315 8.53906 11.1475C8.20472 11.1879 7.82711 11.4233 7.61814 11.7216L7.59375 11.7564L7.56936 11.7216C7.36039 11.4233 6.98278 11.1879 6.64844 11.1475C6.51569 11.1315 6.51127 11.1219 6.62597 11.0986C6.96613 11.0296 7.26281 10.7302 7.33588 10.3823C7.40264 10.0642 7.31164 9.7614 7.07955 9.52929C6.79019 9.23993 6.38167 9.17094 6.00827 9.34833C5.78048 9.45654 5.59236 9.66928 5.51469 9.9065C5.46067 10.0714 5.46067 10.3025 5.51469 10.4674C5.61647 10.7782 5.90177 11.034 6.2188 11.0987C6.3138 11.1181 6.31858 11.1401 6.22778 11.1401C6.15484 11.1401 5.94064 11.2051 5.81362 11.2659C5.42011 11.454 5.15756 11.774 5.03864 12.2104C5.02253 12.2695 5.00995 12.3968 5.00459 12.5549C4.99666 12.7894 4.99827 12.8098 5.02952 12.8711C5.05169 12.9145 5.08366 12.9471 5.12459 12.968C5.18589 12.9993 5.20859 12.9995 9 12.9995C12.7914 12.9995 12.8141 12.9993 12.8754 12.968C12.9154 12.9476 12.9483 12.9146 12.969 12.8741C13.0006 12.812 13.0008 12.7977 12.9964 10.9172L12.9919 9.0229L12.9565 8.8979C12.8443 8.50131 12.5691 8.16651 12.2109 7.99098C12.0741 7.9239 11.8644 7.85909 11.7827 7.85861C11.7604 7.85847 11.7316 7.85154 11.7188 7.84322C11.7004 7.83137 11.7045 7.82801 11.7376 7.82783C11.7981 7.82748 11.9694 7.76229 12.0717 7.70067C12.3335 7.54295 12.5307 7.18801 12.5307 6.87447C12.5307 6.3689 12.0993 5.93751 11.5938 5.93751C11.1666 5.93751 10.7701 6.25615 10.6806 6.67134C10.6607 6.76353 10.6586 6.69959 10.6575 5.97931C10.6563 5.21611 10.655 5.18336 10.6248 5.12406C10.6045 5.08436 10.5714 5.05117 10.5317 5.03092C10.4706 4.99975 10.4458 4.99947 7.82484 5.00015C5.22212 5.00084 5.17875 5.00134 5.12127 5.03169ZM10.1875 6.89009V8.31197H7.82812H5.46875V6.89009V5.46822H7.82812H10.1875V6.89009ZM7.93377 5.96919C7.89806 5.98804 7.86313 6.02398 7.84392 6.06162C7.8137 6.12086 7.8125 6.15265 7.8125 6.89009C7.8125 7.62784 7.81369 7.65931 7.84395 7.71862C7.87933 7.78795 7.96934 7.84322 8.04688 7.84322C8.12441 7.84322 8.21442 7.78795 8.2498 7.71862C8.28006 7.65931 8.28125 7.62784 8.28125 6.89009C8.28125 6.15234 8.28006 6.12087 8.2498 6.06156C8.19214 5.94854 8.051 5.90729 7.93377 5.96919ZM6.99627 6.43794C6.96056 6.45679 6.92562 6.49273 6.90642 6.53037C6.87677 6.58851 6.875 6.62184 6.875 7.12447C6.875 7.62731 6.87675 7.66039 6.90645 7.71862C6.94183 7.78795 7.03184 7.84322 7.10938 7.84322C7.18691 7.84322 7.27692 7.78795 7.3123 7.71862C7.342 7.66039 7.34375 7.62731 7.34375 7.12447C7.34375 6.62162 7.342 6.58854 7.3123 6.53031C7.25464 6.41729 7.1135 6.37604 6.99627 6.43794ZM11.7845 6.44898C11.8758 6.48936 11.9781 6.59137 12.0208 6.68464C12.0708 6.79398 12.0676 6.96362 12.0132 7.0799C11.8689 7.38844 11.5111 7.46369 11.2812 7.23383C11.0213 6.97387 11.1073 6.55383 11.4452 6.43284C11.5429 6.39784 11.6841 6.40456 11.7845 6.44898ZM6.05877 6.93794C5.95277 6.9939 5.9375 7.04884 5.9375 7.37447C5.9375 7.62676 5.94086 7.66356 5.96895 7.71862C6.00433 7.78795 6.09434 7.84322 6.17188 7.84322C6.24941 7.84322 6.33942 7.78795 6.3748 7.71862C6.40289 7.66356 6.40625 7.62676 6.40625 7.37447C6.40625 7.12217 6.40289 7.08537 6.3748 7.03031C6.31714 6.91729 6.176 6.87604 6.05877 6.93794ZM10.7665 7.30914C10.842 7.46194 10.9842 7.62142 11.1158 7.70067C11.2176 7.76201 11.3896 7.82759 11.4486 7.82759C11.5211 7.82759 11.4742 7.84584 11.3436 7.86851C11.1265 7.9062 10.8686 8.02329 10.717 8.15303L10.6562 8.20503L10.6575 7.59053C10.6586 7.02476 10.6605 6.98409 10.6805 7.07759C10.6925 7.13345 10.7312 7.23764 10.7665 7.30914ZM11.7891 8.33547C12.1407 8.40931 12.4339 8.70247 12.5078 9.05415C12.5271 9.14653 12.5305 9.41494 12.5296 10.7807C12.5286 12.2185 12.526 12.3845 12.5065 12.2766C12.4067 11.7245 11.9425 11.2518 11.4062 11.1561C11.2177 11.1224 11.2178 11.1225 11.3281 11.0994C11.6712 11.0277 11.9659 10.7304 12.039 10.3823C12.1058 10.0642 12.0148 9.7614 11.7827 9.52929C11.6001 9.34672 11.3705 9.25047 11.1158 9.24973C11.007 9.24943 10.8138 9.29475 10.72 9.34258L10.6562 9.37511L10.6565 9.26931C10.6572 9.0037 10.7506 8.77723 10.9361 8.59179C11.1683 8.35956 11.4708 8.26865 11.7891 8.33547ZM6.61266 9.76148C6.70394 9.80186 6.8062 9.90387 6.84891 9.99714C6.89511 10.098 6.89511 10.2759 6.84891 10.3768C6.80639 10.4697 6.70456 10.5715 6.6117 10.614C6.5087 10.6612 6.33386 10.66 6.22502 10.6114C6.13184 10.5697 6.03327 10.4737 5.98178 10.3745C5.93009 10.2748 5.93011 10.0991 5.9818 9.99947C6.07737 9.81533 6.25098 9.71239 6.44627 9.72409C6.49836 9.72722 6.57323 9.74404 6.61266 9.76148ZM8.95641 9.76148C9.04769 9.80186 9.14995 9.90387 9.19266 9.99714C9.23886 10.098 9.23886 10.2759 9.19266 10.3768C9.15014 10.4697 9.04831 10.5715 8.95545 10.614C8.85455 10.6602 8.6767 10.6602 8.5758 10.614C8.37508 10.5221 8.26119 10.2915 8.31197 10.0798C8.37958 9.79798 8.69106 9.64411 8.95641 9.76148ZM11.3158 9.76148C11.4071 9.80186 11.5093 9.90387 11.552 9.99714C11.5982 10.098 11.5982 10.2759 11.552 10.3768C11.5095 10.4697 11.4077 10.5715 11.3148 10.614C11.2139 10.6602 11.0361 10.6602 10.9352 10.614C10.7345 10.5221 10.6206 10.2915 10.6713 10.0798C10.739 9.79798 11.0504 9.64411 11.3158 9.76148ZM10.896 11.0929C11.0181 11.1243 11.0177 11.1247 10.8359 11.1598C10.7672 11.1731 10.6986 11.1889 10.6836 11.195C10.6592 11.2047 10.6562 11.1948 10.6562 11.1024V10.9988L10.7203 11.0315C10.7555 11.0495 10.8346 11.0771 10.896 11.0929ZM6.61719 11.6167C6.96887 11.6906 7.26203 11.9837 7.33588 12.3354C7.3485 12.3956 7.35895 12.4641 7.35911 12.4877L7.35938 12.5307H6.41406H5.46875L5.46902 12.4877C5.46917 12.4641 5.47958 12.3956 5.49216 12.3354C5.59572 11.84 6.11144 11.5105 6.61719 11.6167ZM8.96094 11.6166C9.23427 11.6738 9.49377 11.8695 9.61375 12.1088C9.66966 12.2204 9.71789 12.3949 9.71848 12.4877L9.71875 12.5307H8.77344H7.82812L7.82839 12.4877C7.82897 12.3968 7.877 12.2211 7.93197 12.1088C8.01097 11.9475 8.18225 11.7762 8.34375 11.697C8.54452 11.5985 8.74777 11.572 8.96094 11.6166ZM11.3203 11.6167C11.672 11.6906 11.9652 11.9837 12.039 12.3354C12.0516 12.3956 12.0621 12.4641 12.0622 12.4877L12.0625 12.5307H11.125H10.1875L10.1878 12.4877C10.1883 12.3968 10.2364 12.2211 10.2913 12.1088C10.3703 11.9475 10.5416 11.7762 10.7031 11.697C10.904 11.5985 11.1073 11.572 11.3203 11.6167Z" fill="#410EAD"/>
</svg>
