<svg width="37" height="37" viewBox="0 0 37 37" fill="none" xmlns="http://www.w3.org/2000/svg">
<path fill-rule="evenodd" clip-rule="evenodd" d="M15.802 0.116271C7.95362 1.21944 1.80487 7.15377 0.328326 15.0505C-1.06345 22.4936 2.04688 30.0724 8.19168 34.211C10.4942 35.7618 14.1933 37.1134 15.8036 36.9925C17.15 36.8912 18.336 35.9075 18.7666 34.5348C18.9904 33.8211 18.9126 32.7238 18.5873 32.0077C18.0622 30.8516 17.2912 30.2858 15.7295 29.9107C13.5242 29.3809 11.855 28.4733 10.3242 26.9716C8.5597 25.2408 7.40243 22.9807 6.96829 20.4179C6.77778 19.2932 6.85761 17.1261 7.13087 16.0016C8.09505 12.0348 10.8223 8.95203 14.4904 7.68268C16.1152 7.12049 18.3584 6.94815 19.9775 7.26112C24.6453 8.16358 28.1028 11.6423 29.0684 16.4079C29.2947 17.5243 29.3149 19.4778 29.1121 20.6221C28.9681 21.4352 28.4663 23.1075 28.3038 23.3167C28.2256 23.4173 28.0629 23.374 27.2428 23.0344C26.53 22.7392 26.1615 22.6319 25.8477 22.6281C25.1249 22.6195 24.5961 22.9373 24.2817 23.5694C23.9697 24.1969 24.0113 24.3916 25.5351 29.4405C27.0708 34.5293 27.0583 34.499 27.6542 34.5755C27.9428 34.6126 28.1356 34.5168 29.9471 33.4365C31.0349 32.7879 32.8693 31.6951 34.0237 31.0083C35.1781 30.3214 36.241 29.6682 36.3856 29.5566C37.19 28.9364 37.2077 27.5343 36.4199 26.851C36.291 26.7392 35.8808 26.5239 35.5082 26.3726C35.1358 26.2213 34.8041 26.0727 34.7714 26.0422C34.7386 26.0118 34.8373 25.6574 34.9907 25.2546C35.372 24.2536 35.7224 22.9433 35.9284 21.7493C36.1749 20.32 36.2298 17.7964 36.0466 16.3129C35.0004 7.84004 28.5982 1.21387 20.3972 0.116271C19.2387 -0.038757 16.9051 -0.038757 15.802 0.116271ZM19.2914 1.82191C25.8684 2.33626 31.4949 6.84921 33.5799 13.2827C34.8214 17.1136 34.7036 21.1704 33.2432 24.8698C32.631 26.4206 32.6222 26.4506 32.6989 26.7264C32.8115 27.1307 32.9708 27.2423 34.1512 27.7435C34.7714 28.0067 35.2632 28.2382 35.2442 28.2579C35.2251 28.2775 33.6419 29.2244 31.726 30.3621C29.6453 31.5977 28.2294 32.3911 28.21 32.3325C28.0081 31.7201 25.8431 24.4959 25.8571 24.4813C25.8676 24.4706 26.4862 24.7056 27.2318 25.0038C28.7154 25.597 28.8782 25.6144 29.2456 25.2191C29.3606 25.0954 29.5972 24.6759 29.7713 24.2871C31.4856 20.4576 31.3763 16.2369 29.466 12.4949C28.9132 11.4122 28.262 10.4924 27.3686 9.53245C25.396 7.4129 23.1111 6.12092 20.3269 5.55082C19.0149 5.28212 16.9665 5.28129 15.6726 5.54891C10.3358 6.65283 6.34888 10.8228 5.35475 16.3404C5.14786 17.4891 5.14818 19.7564 5.35548 20.9171C6.28955 26.1469 10.0102 30.2539 14.9658 31.5253C15.4579 31.6515 15.9626 31.7798 16.0873 31.8101C16.212 31.8406 16.4758 32.0192 16.6736 32.2071C17.3771 32.8755 17.4302 33.9084 16.7982 34.6311C16.4604 35.0173 15.9819 35.2675 15.578 35.269C15.4226 35.2696 14.9086 35.1796 14.4359 35.069C5.65085 33.0147 0.137573 24.179 1.98424 15.1138C3.31079 8.6022 8.3612 3.4217 14.6655 2.10584C16.3565 1.75284 17.5063 1.68228 19.2914 1.82191Z" fill="#F1A40E"/>
</svg>
