<svg width="40" height="35" viewBox="0 0 40 35" fill="none" xmlns="http://www.w3.org/2000/svg">
<path fill-rule="evenodd" clip-rule="evenodd" d="M2.35288 0.0972123C1.15029 0.419538 0.317081 1.28438 0.0647557 2.47216C0.0104124 2.72808 -0.00999569 4.71329 0.004548 8.32498L0.0265981 13.7904L0.208238 14.2305C0.549233 15.0569 1.15483 15.6429 2.03003 15.9937C2.44937 16.1617 2.46736 16.1623 8.56007 16.1835L14.6695 16.2049L14.4872 16.7664C13.7741 18.964 14.0135 21.7647 15.0962 23.8894C16.1209 25.9002 17.5969 27.3692 19.6291 28.401C22.4386 29.8274 25.794 29.8628 28.6708 28.4964L29.3222 28.187L32.5804 31.3638C34.3723 33.111 35.9616 34.6114 36.1122 34.698C36.5749 34.9643 37.2812 35.0685 37.8477 34.9539C38.4732 34.8276 38.8171 34.6518 39.2306 34.2472C39.6442 33.8426 39.8238 33.5061 39.9529 32.8941C40.07 32.3396 39.9635 31.6484 39.6912 31.1959C39.6026 31.0486 38.8758 30.2826 38.0761 29.4936C36.9647 28.3972 36.5639 28.0485 36.3753 28.0139C35.9096 27.9284 35.4912 28.2879 35.4883 28.7758C35.4867 29.0577 35.5549 29.1393 36.9262 30.4984C38.1294 31.6909 38.3747 31.9719 38.4205 32.2103C38.4963 32.6062 38.4135 32.8613 38.1139 33.1545C37.8148 33.4471 37.5547 33.5283 37.1476 33.456C36.892 33.4106 36.4607 33.0189 33.7433 30.3655L30.6318 27.327L31.3616 26.6029C33.275 24.7043 34.2175 22.6154 34.3637 19.9493C34.4173 18.9722 34.2672 17.7043 33.9988 16.8667C33.9151 16.6055 33.8462 16.3514 33.8456 16.3021C33.8449 16.237 34.3508 16.2049 35.7016 16.1844C37.4142 16.1585 37.5937 16.1427 38.0085 15.9815C38.8733 15.6455 39.5348 14.9695 39.8421 14.1079C39.9725 13.7425 39.9827 13.3036 39.9827 8.05239V2.39083L39.801 1.95076C39.4502 1.10046 38.7619 0.456645 37.8831 0.156582C37.5022 0.0265195 36.8142 0.0190982 25.1393 0.0190982H12.7981L12.57 0.268972C12.2709 0.596424 12.2709 0.895415 12.57 1.22287L12.7981 1.47274L25.1059 1.51099L37.4138 1.54925L37.7026 1.74052C37.8614 1.84571 38.0875 2.06659 38.205 2.23131L38.4188 2.53076V8.09064V13.6505L38.205 13.95C38.0875 14.1147 37.8615 14.3356 37.7027 14.4408C37.4147 14.6317 37.4108 14.632 35.2556 14.6555L33.0968 14.6789L32.631 14.0052C32.0229 13.1256 31.0377 12.1289 30.1865 11.5319C29.5552 11.089 27.9113 10.2351 27.687 10.2335C27.6333 10.2332 27.5911 10.207 27.5934 10.1755C27.5957 10.1439 27.8528 9.60166 28.165 8.97048L28.7325 7.82286L29.4562 9.17934C30.184 10.5432 30.4221 10.8449 30.7705 10.8449C31.2119 10.8449 31.4027 10.6474 31.862 9.71459C33.651 6.08125 33.6768 6.013 33.3933 5.67048C33.095 5.3102 32.6626 5.23928 32.329 5.49604C32.1996 5.59565 31.8707 6.16395 31.455 7.00653L30.7884 8.35734L30.0794 7.019C29.6895 6.28292 29.3091 5.61784 29.2342 5.54103C29.1592 5.46421 28.9569 5.38281 28.7847 5.36024C28.3097 5.29789 28.105 5.54302 27.385 7.03606C27.0457 7.73947 26.7506 8.31549 26.7291 8.31611C26.7076 8.3168 26.3734 7.70994 25.9863 6.96751C25.4594 5.957 25.2236 5.58142 25.048 5.47339C24.5516 5.1679 23.9142 5.50897 23.9142 6.0801C23.9142 6.28177 24.1461 6.79575 24.7743 7.98605C25.2474 8.88249 25.6344 9.62561 25.6344 9.63747C25.6344 9.64933 24.9923 9.66378 24.2074 9.66952C23.0934 9.67771 22.639 9.71275 22.1354 9.82935C21.7805 9.91152 21.4903 9.96775 21.4903 9.95428C21.4903 9.9409 21.8835 9.12877 22.364 8.14955C23.3198 6.20213 23.3882 5.9521 23.0593 5.60965C22.7153 5.25129 22.1672 5.28113 21.8825 5.67369C21.8187 5.76167 21.4997 6.37526 21.1736 7.03728C20.8476 7.6993 20.5614 8.26003 20.5375 8.28329C20.5137 8.30662 20.1701 7.71055 19.774 6.95871C19.0381 5.56184 18.8529 5.33637 18.4408 5.33637C18.0164 5.33637 17.8465 5.55143 17.1501 6.97034L16.4738 8.34824L16.2387 7.9325C16.1094 7.70389 15.7965 7.12091 15.5433 6.637C15.2901 6.15309 15.038 5.70253 14.9831 5.63574C14.6897 5.2796 14.1507 5.26744 13.8222 5.60965C13.4702 5.9762 13.536 6.17788 14.7602 8.48228C15.9045 10.6361 16.056 10.8449 16.4748 10.8449C16.9236 10.8449 17.0419 10.6978 17.7582 9.25049C18.1401 8.47876 18.4667 7.86096 18.4839 7.8778C18.501 7.89455 18.8297 8.5034 19.2143 9.23075L19.9135 10.5533L19.6775 10.68C17.9729 11.5951 16.7853 12.6216 15.8165 14.0171L15.3607 14.6737L8.97707 14.6528L2.59348 14.632L2.28744 14.4229C2.11909 14.3079 1.89343 14.0866 1.78592 13.9311L1.59044 13.6487V8.09064V2.5326L1.78592 2.25013C1.89343 2.09467 2.11901 1.87341 2.2872 1.75842L2.59309 1.54925L4.62006 1.51099L6.64695 1.47274L6.87496 1.22287C7.17381 0.895415 7.17381 0.596424 6.87496 0.268972L6.64687 0.0190982L4.70513 0.00310812C3.21737 -0.00905657 2.66729 0.012901 2.35288 0.0972123ZM9.55725 0.0529144C9.30938 0.155281 9.05776 0.508976 9.05776 0.755024C9.05776 0.887458 9.14674 1.07046 9.28436 1.22111C9.75476 1.73631 10.579 1.4338 10.579 0.745919C10.579 0.237757 10.023 -0.139349 9.55725 0.0529144ZM3.73766 5.44815C3.46337 5.5942 3.31926 5.88791 3.37047 6.1967C3.39385 6.33785 3.90624 7.38119 4.50903 8.51526C5.65047 10.6627 5.78613 10.8436 6.25638 10.8445C6.63843 10.8452 6.88051 10.5276 7.53302 9.1694C7.87706 8.45329 8.17615 7.86663 8.19765 7.86578C8.21915 7.86494 8.55327 8.46828 8.94008 9.20665C9.3269 9.94495 9.70237 10.6013 9.77455 10.6652C9.84672 10.7291 10.0428 10.7994 10.2105 10.8213C10.4554 10.8535 10.5561 10.826 10.724 10.681C11.0331 10.4139 12.9674 6.46179 12.9674 6.09724C12.9674 5.52152 12.3982 5.18527 11.8733 5.45082C11.6577 5.55992 11.5199 5.7831 10.9394 6.96261L10.2586 8.3464L9.8629 7.62563C9.64529 7.22916 9.32385 6.62437 9.14846 6.2817C8.75977 5.52175 8.51355 5.30607 8.09686 5.36047C7.93391 5.38174 7.74359 5.44524 7.67392 5.50163C7.60425 5.55801 7.243 6.22363 6.87105 6.98082L6.19484 8.35757L5.47235 7.0027C5.07185 6.25163 4.6597 5.57844 4.5475 5.49214C4.31433 5.31265 4.02205 5.29681 3.73766 5.44815ZM25.9863 11.34C28.9146 11.9475 31.3751 14.0655 32.33 16.8004C33.6884 20.6912 32.0742 24.8556 28.4129 26.905C26.7062 27.8604 24.4425 28.1983 22.4677 27.7923C19.5466 27.192 17.0789 25.0683 16.124 22.3331C14.3955 17.3826 17.5493 12.1726 22.8207 11.2704C23.6487 11.1287 25.1242 11.1611 25.9863 11.34ZM23.3669 12.8798C21.6638 13.1874 20.4384 13.7839 19.3776 14.8218C18.4818 15.6985 17.8618 16.7799 17.5345 18.0366C17.3281 18.8297 17.3281 20.3038 17.5345 21.0969C18.1933 23.6271 20.0773 25.4705 22.6631 26.115C23.4737 26.317 24.9803 26.317 25.7908 26.115C28.3767 25.4705 30.2607 23.6271 30.9194 21.0969C31.1259 20.3038 31.1259 18.8297 30.9194 18.0366C30.2704 15.5435 28.4379 13.7201 25.9081 13.0499C25.3765 12.9091 23.7922 12.803 23.3669 12.8798ZM25.258 14.4753C27.1722 14.8723 28.6707 16.187 29.2925 18.0153C29.4669 18.5284 29.4949 18.7422 29.4949 19.5668C29.4949 20.3913 29.4669 20.6051 29.2925 21.1182C28.516 23.4016 26.3373 24.881 23.9533 24.744C21.2207 24.587 19.0962 22.5083 18.9357 19.8345C18.7354 16.4968 21.9335 13.7859 25.258 14.4753ZM23.9533 16.1962C23.7079 16.2945 23.5204 16.5404 23.4731 16.8263C23.4139 17.1833 23.7244 17.5542 24.1339 17.6156C24.2927 17.6394 24.6057 17.7107 24.8298 17.7741C25.5658 17.9825 26.1818 18.7875 26.1818 19.5409C26.1818 19.8814 26.5207 20.2465 26.8898 20.3038C27.1152 20.3389 27.2146 20.3085 27.4149 20.1436C27.7179 19.8942 27.7864 19.5878 27.6733 18.9891C27.407 17.5793 26.2836 16.466 24.861 16.202C24.3709 16.1111 24.1692 16.1098 23.9533 16.1962ZM34.075 26.2826C33.705 26.4634 33.5648 26.7682 33.6795 27.1428C33.8824 27.8053 34.7597 27.867 35.0865 27.2417C35.2305 26.9661 35.1866 26.6976 34.9588 26.461C34.6798 26.1712 34.4133 26.1173 34.075 26.2826Z" fill="#5D8900"/>
</svg>
