<svg width="40" height="39" viewBox="0 0 40 39" fill="none" xmlns="http://www.w3.org/2000/svg">
<path fill-rule="evenodd" clip-rule="evenodd" d="M15.1895 0.0457893C10.0687 0.605586 5.62411 3.25053 2.76252 7.44104C-0.226871 11.8188 -0.836584 17.5349 1.16085 22.4577C2.02125 24.5783 3.22028 26.3664 4.87127 27.9911C7.6235 30.6994 10.8164 32.2717 14.6347 32.7989C15.7993 32.9597 18.0501 32.9588 19.1761 32.7971C22.1123 32.3755 24.8038 31.2892 27.0349 29.6254L27.7604 29.0844L32.7312 33.9307C36.1954 37.3082 37.7901 38.8125 37.9926 38.8941C38.7152 39.1851 39.5174 38.8587 39.8602 38.1342C40.0371 37.7602 40.0459 37.4181 39.888 37.0451C39.8044 36.8475 38.2623 35.2918 34.8001 31.9123L29.8323 27.0631L30.3869 26.3554C32.0924 24.1789 33.2059 21.5532 33.6381 18.6888C33.8039 17.5904 33.8047 15.3946 33.64 14.2585C33.0996 10.5337 31.4878 7.41885 28.7116 4.73395C26.1729 2.2788 22.9575 0.691374 19.4482 0.16086C18.4776 0.0140667 16.0734 -0.0509036 15.1895 0.0457893ZM19.137 3.04426C23.1711 3.71821 26.6072 5.96693 28.7481 9.33441C30.1292 11.5067 30.7923 13.7901 30.8002 16.4011C30.8044 17.7733 30.7135 18.5205 30.3876 19.7945C29.1591 24.5972 25.2326 28.4277 20.3095 29.6261C19.0036 29.944 18.2376 30.0327 16.831 30.0286C14.1545 30.0209 11.8139 29.374 9.58709 28.0267C6.08468 25.9076 3.77136 22.4954 3.10138 18.4601C2.95005 17.5489 2.96951 15.203 3.13624 14.2452C3.62448 11.4408 4.97836 8.89151 7.05576 6.865C9.39487 4.58303 12.0821 3.34288 15.6194 2.91279C16.1531 2.84782 18.4825 2.93499 19.137 3.04426ZM9.40503 8.57451C8.79626 8.84469 7.74865 10.1234 7.10024 11.3878C6.34177 12.8668 6.05614 14.0731 6.0488 15.8292C6.04434 16.8825 6.06138 17.044 6.2056 17.3122C6.67227 18.1799 7.78476 18.387 8.53393 17.7455C8.88521 17.4448 8.97503 17.1063 8.97612 16.0801C8.97823 14.0713 9.54417 12.5533 10.8231 11.126C11.4869 10.3851 11.6169 9.9183 11.3288 9.30932C10.9757 8.56308 10.1454 8.24593 9.40503 8.57451Z" fill="#001AFF"/>
</svg>
