<svg width="43" height="43" viewBox="0 0 43 43" fill="none" xmlns="http://www.w3.org/2000/svg">
<path fill-rule="evenodd" clip-rule="evenodd" d="M15.3477 0.0254572C11.0256 0.552437 7.75777 2.08899 4.91438 4.93105C2.35722 7.48708 0.784508 10.5559 0.151401 14.2247C-0.0504669 15.3945 -0.0504669 18.1836 0.151401 19.3533C0.784508 23.0221 2.35722 26.091 4.91438 28.647C7.47154 31.203 10.5417 32.7751 14.2121 33.4079C15.3831 33.6098 18.1731 33.6097 19.3429 33.4076C21.6558 33.0083 23.8041 32.2195 25.5079 31.1439L26.0446 30.805L31.8619 36.61C38.1321 42.8669 37.9902 42.7426 39.0983 42.9467C41.3288 43.3575 43.3577 41.3296 42.9466 39.1C42.7425 37.9924 42.8668 38.1342 36.6072 31.8668L30.7997 26.052L31.1387 25.5156C32.2148 23.8125 33.0039 21.6651 33.4034 19.3533C33.6056 18.184 33.6056 15.3952 33.4037 14.2247C32.7706 10.5559 31.1979 7.48708 28.6407 4.93105C26.0936 2.3851 22.9712 0.782802 19.385 0.181416C18.6197 0.0530337 15.9628 -0.0496215 15.3477 0.0254572ZM18.9702 1.82743C25.0431 2.74132 29.9799 7.21535 31.4436 13.1318C31.7295 14.2878 31.8291 15.0128 31.8861 16.355C32.0704 20.6919 30.1492 25.1429 26.8289 28.0717C23.0249 31.4269 18.0192 32.6599 13.1187 31.4486C10.4397 30.7864 8.07596 29.4462 6.09539 27.4665C3.76718 25.1393 2.3256 22.2778 1.79628 18.9329C1.6591 18.0658 1.6591 15.5123 1.79628 14.6451C2.3256 11.3002 3.76718 8.43872 6.09539 6.11154C8.68232 3.52574 11.7836 2.09445 15.642 1.70561C16.1969 1.6497 18.3006 1.72671 18.9702 1.82743ZM15.3773 3.42325C12.3418 3.74282 9.45817 5.12316 7.28237 7.298C3.6586 10.9202 2.41114 16.2373 4.04971 21.0768C4.72353 23.067 5.7978 24.7961 7.28237 26.28C10.9061 29.9022 16.2256 31.1491 21.0672 29.5113C23.0583 28.8378 24.7882 27.764 26.2727 26.28C29.8965 22.6579 31.144 17.3407 29.5054 12.5012C28.1548 8.51221 25.0582 5.417 21.0672 4.06667C19.2169 3.44065 17.2857 3.22223 15.3773 3.42325ZM18.3244 5.14367C20.9263 5.48981 23.1769 6.60976 25.0705 8.5006C29.6994 13.1229 29.6994 20.4515 25.0705 25.0784C20.4414 29.7054 13.1137 29.7054 8.48458 25.0784C3.85567 20.4515 3.85567 13.1229 8.48458 8.5006C11.1316 5.8573 14.6543 4.65553 18.3244 5.14367ZM16.4737 6.77648C16.2074 6.89301 15.9364 7.28093 15.9364 7.54568C15.9364 7.86954 16.3038 8.28243 16.6354 8.33119C16.783 8.35297 17.2709 8.41106 17.7198 8.46033C20.164 8.7287 22.3503 10.0721 23.8206 12.209C23.9168 12.3489 24.1663 12.8036 24.375 13.2196C24.5837 13.6357 24.8237 14.0362 24.9084 14.1096C25.3079 14.4556 25.9519 14.3055 26.1554 13.8187C26.3022 13.4676 26.2255 13.1394 25.7982 12.291C24.1836 9.08467 20.9125 6.91966 17.4084 6.73798C16.992 6.71637 16.5715 6.73369 16.4737 6.77648ZM25.726 16.0307C25.4612 16.1376 25.1887 16.5273 25.1887 16.799C25.1887 17.1356 25.5753 17.5395 25.9552 17.5998C26.2113 17.6404 26.3035 17.6083 26.542 17.3953C26.7783 17.1843 26.8251 17.0842 26.8251 16.789C26.8251 16.4964 26.778 16.3935 26.5522 16.1919C26.2759 15.9451 26.0481 15.9006 25.726 16.0307ZM31.0285 28.6376L32.1978 29.8086L31.6161 30.4289C31.2962 30.77 30.7576 31.3092 30.4192 31.6272L29.8041 32.2052L28.6215 31.0232L27.439 29.8413L28.6059 28.6609C29.2477 28.0116 29.7922 27.4773 29.8159 27.4735C29.8397 27.4697 30.3853 27.9935 31.0285 28.6376ZM41.0667 38.7674C41.2605 39.0454 41.296 39.1832 41.296 39.6563C41.296 40.1146 41.2579 40.2724 41.0858 40.5266C40.6417 41.1822 39.91 41.4578 39.1504 41.2557C38.8094 41.165 38.3948 40.7785 34.8906 37.2854L31.0084 33.4156L32.199 32.2161L33.3896 31.0167L37.1134 34.7274C39.1615 36.7684 40.9405 38.5864 41.0667 38.7674Z" fill="#D21ECB"/>
</svg>
