<svg width="46" height="38" viewBox="0 0 46 38" fill="none" xmlns="http://www.w3.org/2000/svg">
<path fill-rule="evenodd" clip-rule="evenodd" d="M1.14544 0.0630703C0.730286 0.19502 0.341824 0.547513 0.167228 0.950618C0.00602056 1.323 0 1.97633 0 19.0087C0 36.1677 0.00494225 36.6919 0.170643 37.0748C0.278114 37.3229 0.483173 37.5676 0.723726 37.7346L1.10617 38H23H44.8938L45.2763 37.7346C45.5168 37.5676 45.7219 37.3229 45.8294 37.0748C45.9951 36.6919 46 36.1677 46 19.0087C46 1.84976 45.9951 1.32554 45.8294 0.942607C45.7219 0.694542 45.5168 0.44987 45.2763 0.28286L44.8938 0.0174534L23.1413 0.00161955C11.1775 -0.00714565 1.27933 0.0205637 1.14544 0.0630703ZM44.7459 1.28982C44.9185 1.47078 44.9256 1.60396 44.9256 4.63568V7.79304H23H1.07436V4.63568C1.07436 1.60396 1.08155 1.47078 1.25407 1.28982C1.4328 1.10236 1.55357 1.10132 23 1.10132C44.4464 1.10132 44.5672 1.10236 44.7459 1.28982ZM5.0854 2.83664C3.62501 3.40365 3.67776 5.58241 5.16448 6.09711C5.88137 6.34527 6.74879 5.95102 7.08405 5.22474C7.32604 4.70033 7.32604 4.19403 7.08405 3.66962C6.73576 2.91506 5.84247 2.54277 5.0854 2.83664ZM9.47251 2.88075C8.26435 3.45633 8.13765 5.09986 9.2413 5.87996C9.90644 6.35008 10.6639 6.24235 11.2869 5.58882C11.5752 5.28638 11.6746 5.09892 11.7219 4.76819C11.8061 4.17876 11.6475 3.63937 11.2784 3.26096C10.7419 2.71063 10.1091 2.57736 9.47251 2.88075ZM13.9692 2.88226C13.2405 3.23607 12.8644 3.94945 12.9801 4.75839C13.029 5.10005 13.1253 5.28336 13.4165 5.58882C14.0395 6.24235 14.7969 6.35008 15.4621 5.87996C16.5657 5.09986 16.439 3.45633 15.2309 2.88075C14.7705 2.66143 14.423 2.66181 13.9692 2.88226ZM25.561 2.83712C25.0317 3.0849 24.5276 3.87037 24.5276 4.44718C24.5276 5.08082 25.1289 5.93293 25.6918 6.09692C25.8891 6.15441 28.7983 6.18919 33.3338 6.18816C40.2624 6.18674 40.6767 6.17732 41.0168 6.01266C41.6612 5.7007 41.9603 5.20447 41.9603 4.44718C41.9603 3.68989 41.6612 3.19366 41.0168 2.8817C40.6764 2.71695 40.2635 2.7078 33.2439 2.70931C27.2469 2.71063 25.7791 2.73504 25.561 2.83712ZM6.01661 4.02306C6.11546 4.12673 6.19633 4.31759 6.19633 4.44718C6.19633 4.7206 5.90887 5.0598 5.67721 5.0598C5.36846 5.0598 5.11802 4.78535 5.11802 4.44718C5.11802 3.90562 5.6605 3.64955 6.01661 4.02306ZM10.4814 4.03946C10.5957 4.15218 10.6893 4.34002 10.6893 4.45679C10.6893 4.678 10.3092 5.0598 10.089 5.0598C9.91695 5.0598 9.52112 4.63285 9.52112 4.44718C9.52112 4.2469 9.9227 3.83456 10.1178 3.83456C10.2033 3.83456 10.367 3.92673 10.4814 4.03946ZM14.9616 4.06594C15.083 4.19318 15.1823 4.36471 15.1823 4.44718C15.1823 4.63285 14.7864 5.0598 14.6143 5.0598C14.4001 5.0598 14.0141 4.68045 14.0141 4.46999C14.0141 4.21825 14.3516 3.83456 14.573 3.83456C14.6655 3.83456 14.8403 3.9387 14.9616 4.06594ZM40.6822 3.9813C40.8218 4.08375 40.882 4.22419 40.882 4.44718C40.882 5.09288 41.2955 5.0598 33.2305 5.0598H25.9784L25.7922 4.81145C25.6898 4.67489 25.6059 4.51099 25.6059 4.44718C25.6059 4.38337 25.6898 4.21947 25.7922 4.08291L25.9784 3.83456H33.2305C39.6488 3.83456 40.5056 3.85143 40.6822 3.9813ZM44.9256 22.7316C44.9256 36.4135 44.924 36.5408 44.7459 36.7276C44.5672 36.9151 44.4464 36.9161 23 36.9161C1.55357 36.9161 1.4328 36.9151 1.25407 36.7276C1.07597 36.5408 1.07436 36.4135 1.07436 22.7316V8.92403H23H44.9256V22.7316ZM13.9412 11.6609C13.7462 11.8514 13.7445 11.8815 13.7445 15.0906C13.7445 19.0113 13.6452 18.7119 14.9576 18.7482L15.8562 18.7731V19.857V20.9408L14.9576 20.9657C13.6453 21.002 13.7445 20.7031 13.7445 24.6202V27.8545L13.9813 28.0498C14.2129 28.241 14.306 28.2452 18.3395 28.2452H22.4608V29.3176V30.39L22.1923 30.5068C21.8875 30.6391 21.3412 31.235 21.2509 31.5334C21.191 31.7315 21.1733 31.7324 17.6645 31.7324C13.8796 31.7324 13.8989 31.73 13.7866 32.219C13.7442 32.4034 13.7787 32.5223 13.9164 32.6667C14.1002 32.8594 14.1747 32.8634 17.6425 32.8634H21.181L21.2878 33.1338C21.5337 33.7564 22.3135 34.2771 23 34.2771C23.6865 34.2771 24.4663 33.7564 24.7122 33.1338L24.819 32.8634H28.3575C31.8253 32.8634 31.8998 32.8594 32.0836 32.6667C32.2213 32.5223 32.2558 32.4034 32.2134 32.219C32.1011 31.73 32.1204 31.7324 28.3355 31.7324C24.8267 31.7324 24.809 31.7315 24.7491 31.5334C24.6588 31.235 24.1125 30.6391 23.8077 30.5068L23.5392 30.39V29.3176V28.2452H27.6767H31.8144L32.0349 28.0138L32.2555 27.7825V24.5842C32.2555 20.7084 32.3539 21.002 31.0424 20.9657L30.1438 20.9408V19.857V18.7731L31.0424 18.7482C32.3545 18.7119 32.2555 19.0094 32.2555 15.1034V11.8787L32.0476 11.6737L31.8395 11.4688H22.9887C14.2057 11.4688 14.1363 11.4703 13.9412 11.6609ZM31.1772 15.0974V17.595H23H14.8228V15.0974V12.5998H23H31.1772V15.0974ZM16.1309 14.7885C15.93 15.0893 15.9575 15.2916 16.2297 15.5163C16.597 15.8193 17.0693 15.5817 17.0693 15.094C17.0693 14.6179 16.3919 14.3975 16.1309 14.7885ZM18.3616 14.8185C18.1771 15.1139 18.2972 15.4681 18.6368 15.6305C19.125 15.8638 19.5605 15.132 19.1746 14.7271C18.9512 14.4929 18.5358 14.5395 18.3616 14.8185ZM20.6634 14.7207C20.408 15.0435 20.6738 15.71 21.058 15.71C21.4766 15.71 21.7227 15.0436 21.4211 14.7271C21.2418 14.5391 20.8099 14.5355 20.6634 14.7207ZM23.2386 14.7514C23.0562 14.9628 23.0482 15.2371 23.2174 15.4799C23.3386 15.6539 23.4958 15.6642 26.4359 15.6899C29.4642 15.7164 29.532 15.7129 29.768 15.5181C30.0424 15.2917 30.0704 15.0899 29.8691 14.7885L29.7293 14.579H26.5582C23.6004 14.579 23.3773 14.5906 23.2386 14.7514ZM29.0206 19.857V20.988H23H16.9794V19.857V18.726H23H29.0206V19.857ZM31.1772 24.6166V27.1142H23H14.8228V24.6166V22.119H23H31.1772V24.6166ZM16.1707 24.1924C15.9548 24.4189 15.9426 24.6435 16.1309 24.9254C16.4034 25.3336 17.0693 25.0924 17.0693 24.5856C17.0693 24.3291 16.7679 24.004 16.5301 24.004C16.4313 24.004 16.2695 24.0888 16.1707 24.1924ZM18.4237 24.2523C18.3213 24.3889 18.2375 24.5585 18.2375 24.6293C18.2375 24.8337 18.5771 25.1349 18.8076 25.1349C19.2764 25.1349 19.4972 24.4306 19.116 24.1507C18.8297 23.9403 18.6363 23.9687 18.4237 24.2523ZM20.7736 24.1507C20.3837 24.4371 20.5925 25.1349 21.068 25.1349C21.5436 25.1349 21.7524 24.4371 21.3625 24.1507C21.2527 24.07 21.1201 24.004 21.068 24.004C21.0159 24.004 20.8834 24.07 20.7736 24.1507ZM23.2696 24.1924C23.0453 24.4277 23.0385 24.7743 23.2542 24.979C23.4005 25.1179 23.7639 25.1349 26.5739 25.1349H29.7293L29.8691 24.9254C30.0574 24.6435 30.0452 24.4189 29.8293 24.1924C29.6565 24.0112 29.5298 24.004 26.5494 24.004C23.5691 24.004 23.4424 24.0112 23.2696 24.1924ZM23.5461 31.7252C23.7253 31.9132 23.8087 32.0951 23.8087 32.2979C23.8087 32.5007 23.7253 32.6826 23.5461 32.8707C23.3668 33.0587 23.1934 33.1461 23 33.1461C22.6134 33.1461 22.1913 32.7034 22.1913 32.2979C22.1913 31.8924 22.6134 31.4497 23 31.4497C23.1934 31.4497 23.3668 31.5371 23.5461 31.7252Z" fill="black"/>
</svg>
