<svg width="29" height="40" viewBox="0 0 29 40" fill="none" xmlns="http://www.w3.org/2000/svg">
<path d="M15.38 8.88547L14.9025 8.60547L14.4251 8.88547L5.33878 14.2055L4.86133 14.4845V26.2425L5.33878 26.5225L14.429 31.8425L14.9065 32.1225L15.3839 31.8425L24.4742 26.5225L24.9516 26.2425V14.4845L24.4742 14.2055L15.38 8.88547ZM6.76717 25.1245V15.6015L14.9075 10.8405L23.0428 15.6015V25.1245L14.9075 29.8865L6.76717 25.1245ZM12.0398 20.3635C12.0398 19.7899 12.2076 19.2292 12.5219 18.7523C12.8363 18.2754 13.2831 17.9037 13.8058 17.6842C14.3285 17.4647 14.9037 17.4073 15.4586 17.5192C16.0136 17.6311 16.5233 17.9073 16.9234 18.3129C17.3235 18.7184 17.5959 19.2352 17.7063 19.7977C17.8167 20.3603 17.76 20.9433 17.5435 21.4733C17.327 22.0032 16.9603 22.4561 16.4899 22.7747C16.0194 23.0934 15.4663 23.2635 14.9005 23.2635C14.142 23.2632 13.4146 22.9576 12.8783 22.4137C12.3421 21.8699 12.0408 21.1324 12.0408 20.3635H12.0398ZM14.9005 15.5265C13.9568 15.5265 13.0343 15.8102 12.2496 16.3416C11.465 16.8731 10.8534 17.6286 10.4922 18.5124C10.1311 19.3963 10.0366 20.3688 10.2207 21.3071C10.4048 22.2454 10.8593 23.1073 11.5266 23.7837C12.1939 24.4602 13.0441 24.9209 13.9697 25.1075C14.8953 25.2942 15.8546 25.1984 16.7265 24.8323C17.5984 24.4662 18.3436 23.8462 18.8679 23.0508C19.3922 22.2553 19.6721 21.3201 19.6721 20.3635C19.6723 19.0817 19.1706 17.8523 18.2773 16.9454C17.3839 16.0384 16.1718 15.5281 14.9075 15.5265H14.9005Z" fill="#FFC603"/>
<path d="M26.5901 40H2.41091C1.77183 39.9995 1.15905 39.742 0.707063 39.2839C0.25507 38.8259 0.000783617 38.2049 0 37.557V2.443C0.000783617 1.79515 0.25507 1.17407 0.707063 0.716064C1.15905 0.258056 1.77183 0.000529238 2.41091 0H26.5901C27.2291 0.000529238 27.8419 0.258056 28.2939 0.716064C28.7459 1.17407 29.0002 1.79515 29.001 2.443V37.556C29.0005 38.204 28.7463 38.8254 28.2943 39.2836C27.8423 39.7418 27.2293 39.9995 26.5901 40ZM2.67035 37.293H26.3306V2.706H2.67035V37.293Z" fill="#FFC603"/>
</svg>
