<svg width="31" height="41" viewBox="0 0 31 41" fill="none" xmlns="http://www.w3.org/2000/svg">
<path d="M29.6797 21.301C29.3403 21.301 29.0148 21.4367 28.7748 21.6782C28.5348 21.9198 28.4001 22.2474 28.4001 22.589V37.423H7.01813V29.215C7.0172 29.1432 7.0101 29.0716 6.99715 29.001H13.6586C13.998 29.001 14.3235 28.8653 14.5634 28.6238C14.8034 28.3822 14.9382 28.0546 14.9382 27.713V24.988C14.9382 24.6462 14.8034 24.3185 14.5633 24.0769C14.3233 23.8353 13.9976 23.6995 13.6581 23.6995C13.3186 23.6995 12.993 23.8353 12.7529 24.0769C12.5128 24.3185 12.3779 24.6462 12.3779 24.988V26.424H2.5622V16.544H12.3779V16.684C12.3779 17.0258 12.5128 17.3535 12.7529 17.5951C12.993 17.8367 13.3186 17.9725 13.6581 17.9725C13.9976 17.9725 14.3233 17.8367 14.5633 17.5951C14.8034 17.3535 14.9382 17.0258 14.9382 16.684V15.256C14.9382 14.9144 14.8034 14.5868 14.5634 14.3453C14.3235 14.1037 13.998 13.968 13.6586 13.968H7.01813V2.57703H28.4001V23.296C28.4001 23.6378 28.5349 23.9655 28.7749 24.2071C29.015 24.4487 29.3406 24.5845 29.6802 24.5845C30.0197 24.5845 30.3453 24.4487 30.5854 24.2071C30.8254 23.9655 30.9603 23.6378 30.9603 23.296V1.58801C30.9854 1.48996 30.9987 1.38926 31 1.28802C31 0.946426 30.8652 0.618805 30.6253 0.377258C30.3853 0.135711 30.0598 0 29.7204 0H5.73842C5.39905 0 5.07356 0.135711 4.83358 0.377258C4.59361 0.618805 4.45884 0.946426 4.45884 1.28802V13.968H1.27971C1.11166 13.968 0.945243 14.0013 0.789993 14.066C0.634742 14.1308 0.493688 14.2257 0.374865 14.3453C0.256041 14.4649 0.161692 14.6069 0.0973847 14.7631C0.0330778 14.9194 0 15.0868 0 15.256V27.712C0 27.8811 0.0330778 28.0486 0.0973847 28.2049C0.161692 28.3612 0.256041 28.5031 0.374865 28.6227C0.493688 28.7423 0.634742 28.8372 0.789993 28.902C0.945243 28.9667 1.11166 29 1.27971 29H4.47667C4.46338 29.0706 4.45609 29.1422 4.45484 29.214V38.714C4.45484 38.8831 4.48791 39.0506 4.55222 39.2069C4.61653 39.3632 4.71088 39.5052 4.8297 39.6248C4.94852 39.7444 5.08958 39.8392 5.24483 39.9039C5.40008 39.9687 5.56638 40.002 5.73442 40.002H29.6777C29.8458 40.002 30.0121 39.9687 30.1673 39.9039C30.3226 39.8392 30.4637 39.7444 30.5826 39.6248C30.7014 39.5052 30.7956 39.3632 30.8599 39.2069C30.9242 39.0506 30.9573 38.8831 30.9573 38.714V22.588C30.957 22.2469 30.8223 21.9199 30.5828 21.6786C30.3433 21.4373 30.0185 21.3016 29.6797 21.301Z" fill="#0092FF"/>
<path d="M18.7231 17.7186C18.5531 17.423 18.2733 17.2076 17.9454 17.1196C17.6175 17.0317 17.2683 17.0784 16.9746 17.2496L8.57464 22.1496L6.99599 19.9586C6.79666 19.682 6.49628 19.4964 6.161 19.4427C5.82573 19.3889 5.48296 19.4715 5.20813 19.6721C4.93331 19.8727 4.749 20.175 4.69562 20.5125C4.64224 20.85 4.72417 21.195 4.9235 21.4716L7.17972 24.6036C7.36571 24.8615 7.64007 25.0409 7.94982 25.107C8.25958 25.1732 8.58273 25.1214 8.85673 24.9616L18.2562 19.4836C18.4024 19.3989 18.5304 19.286 18.633 19.1513C18.7357 19.0166 18.8109 18.8628 18.8542 18.6988C18.8976 18.5348 18.9084 18.3638 18.8859 18.1955C18.8634 18.0273 18.8081 17.8652 18.7231 17.7186Z" fill="#0092FF"/>
<path d="M17.4461 33.8223C17.1066 33.8223 16.7811 33.958 16.541 34.1996C16.3009 34.4413 16.166 34.769 16.166 35.1108C16.166 35.4525 16.3009 35.7802 16.541 36.0219C16.7811 36.2635 17.1066 36.3993 17.4461 36.3993H17.5773C17.9168 36.3993 18.2423 36.2635 18.4824 36.0219C18.7225 35.7802 18.8574 35.4525 18.8574 35.1108C18.8574 34.769 18.7225 34.4413 18.4824 34.1996C18.2423 33.958 17.9168 33.8223 17.5773 33.8223H17.4461Z" fill="#0092FF"/>
</svg>
