<svg width="40" height="39" viewBox="0 0 40 39" fill="none" xmlns="http://www.w3.org/2000/svg">
<path fill-rule="evenodd" clip-rule="evenodd" d="M18.9533 0.0475291C13.66 0.419318 8.81457 2.88487 5.3078 6.99092L4.87587 7.49667L4.27907 7.06025C3.95084 6.82026 3.58037 6.59843 3.45584 6.56739C3.16652 6.49523 2.68885 6.69053 2.51678 6.95131C2.36744 7.17775 1.24429 12.2145 1.24429 12.6578C1.24429 12.814 1.28814 13.0232 1.34183 13.1227C1.4818 13.3826 1.98419 13.6149 2.27918 13.5563C2.41735 13.5289 3.64893 12.9056 5.01622 12.1711C7.71737 10.7202 7.85828 10.6051 7.73498 9.95253C7.68792 9.70342 7.53942 9.52703 7.06374 9.15571C6.72774 8.89342 6.45283 8.64901 6.45283 8.61261C6.45283 8.48259 8.0278 6.81716 8.69184 6.24489C11.2679 4.02507 14.4336 2.56981 17.7961 2.05954C19.0191 1.87402 21.7416 1.87609 22.9781 2.06349C27.9659 2.81939 32.3234 5.56736 35.136 9.73079C36.7536 12.1253 37.8278 15.0658 38.0401 17.6802C38.1243 18.7187 38.2357 19.0962 38.5241 19.3215C39.0227 19.7112 39.7953 19.4504 39.9549 18.8388C40.1469 18.1031 39.7027 15.4392 39.0643 13.4968C37.4287 8.51947 33.9403 4.47758 29.2193 2.08955C26.1271 0.525531 22.479 -0.200079 18.9533 0.0475291ZM0.358555 19.7088C0.0188632 19.9743 -0.0524464 20.3306 0.0328789 21.3372C0.141785 22.6232 0.459411 24.1161 0.925338 25.5327C3.27278 32.6698 9.37065 37.7474 16.9173 38.8488C18.3016 39.0509 20.9267 39.0503 22.3562 38.8477C27.1768 38.1642 31.4817 35.7861 34.6823 32.0385L35.1142 31.5328L35.711 31.9692C36.3867 32.4633 36.6375 32.5525 37.0076 32.43C37.4827 32.2726 37.5884 31.987 38.178 29.2659C38.7649 26.5579 38.8132 26.2129 38.6482 25.9067C38.5083 25.6469 38.0059 25.4145 37.7109 25.4731C37.5727 25.5005 36.3411 26.1239 34.9738 26.8583C32.2727 28.3092 32.1318 28.4243 32.2551 29.0769C32.3021 29.3264 32.451 29.5026 32.9303 29.8768C33.2685 30.1408 33.5327 30.3915 33.5175 30.4339C33.439 30.6526 32.0221 32.158 31.354 32.7324C28.6806 35.0311 25.6149 36.4513 22.2136 36.9668C21.1269 37.1315 18.3851 37.1614 17.3908 37.0193C15.2599 36.7148 13.8133 36.2849 11.9517 35.4033C7.63072 33.3566 4.26894 29.5891 2.76916 25.1123C2.33969 23.8303 2.0394 22.4511 1.95 21.3492C1.91638 20.9353 1.84933 20.4401 1.80104 20.2489C1.63256 19.5816 0.881302 19.3003 0.358555 19.7088Z" fill="#077979"/>
</svg>
