<svg width="60" height="60" viewBox="0 0 60 60" fill="none" xmlns="http://www.w3.org/2000/svg">
<path fill-rule="evenodd" clip-rule="evenodd" d="M28.2422 1.79098V3.58184L26.9721 3.71684C20.0019 4.4577 13.3389 8.24648 8.95992 13.9593C6.09938 17.6911 4.20305 22.3977 3.71684 26.9721L3.58184 28.2422H1.79098H0V30V31.7578H1.79098H3.58184L3.71684 33.0279C4.43215 39.7576 8.0809 46.3657 13.4404 50.6374C16.458 53.0427 20.1388 54.8551 23.7305 55.7043C25.1366 56.0368 27.1806 56.3672 27.8312 56.3672H28.2422V58.1836V60H30H31.7578V58.2008V56.4015L32.6074 56.329C39.4298 55.7462 46.269 52.0405 50.6374 46.5596C53.0309 43.5568 54.8018 39.9772 55.6706 36.3867C56.0296 34.903 56.3672 32.8587 56.3672 32.1688V31.7578H58.1836H60V30V28.2422H58.1836H56.3672V27.8312C56.3672 27.6053 56.287 26.8801 56.1891 26.2199C54.5193 14.9712 46.041 6.11707 34.9071 3.99527C34.2223 3.86473 33.2334 3.72223 32.7098 3.67852L31.7578 3.59906V1.79953V0H30H28.2422V1.79098ZM28.2422 8.84766V10.5469H30H31.7578V8.84766C31.7578 6.86871 31.5653 7.04133 33.4559 7.32621C43.2217 8.7982 51.0252 16.5268 52.622 26.3086C52.9743 28.4667 53.1449 28.2422 51.1523 28.2422H49.4531V30V31.7578H51.1523C53.1304 31.7578 52.959 31.5672 52.6669 33.4431C51.5911 40.3487 47.5295 46.2889 41.4427 49.8587C38.8598 51.3735 35.4804 52.4896 32.5488 52.7961L31.7578 52.8789V51.1659V49.4531H30H28.2422V51.1523C28.2422 53.1304 28.4329 52.959 26.5569 52.6669C19.2441 51.5277 12.9346 46.9683 9.56086 40.385C8.49293 38.3009 7.67367 35.7605 7.32621 33.4559C7.04133 31.5653 6.86871 31.7578 8.84766 31.7578H10.5469V30V28.2422H8.84766C6.86871 28.2422 7.04133 28.4347 7.32621 26.5441C8.67012 17.6277 15.293 10.2354 24.082 7.84148C25.0969 7.56516 27.2469 7.17703 27.8613 7.15934L28.2422 7.14844V8.84766ZM28.8281 14.1895C23.7745 14.6167 19.3124 18.4305 18.0384 23.4121C17.9126 23.9041 17.7771 24.678 17.7375 25.1318C17.6694 25.9102 17.5338 26.2214 15.3485 30.6128L13.0316 35.2685L15.3342 35.3003L17.6367 35.332L17.6682 37.9363L17.6998 40.5407L19.4261 40.573L21.1523 40.6055L21.1839 43.2715L21.2154 45.9375H30.0022H38.7891V40.5113V35.085L39.203 34.6839C39.712 34.1905 40.6397 32.8574 41.076 31.9922C42.7313 28.7096 42.7146 24.5843 41.0317 21.0717C40.2113 19.3593 38.6087 17.4402 37.0898 16.3515C35.5761 15.2664 33.3611 14.3929 31.74 14.2418C30.252 14.103 29.922 14.0971 28.8281 14.1895ZM32.0277 17.8816C33.776 18.268 35.5649 19.3835 36.7127 20.8036C37.4982 21.7753 37.8923 22.4992 38.3398 23.7915C38.7057 24.8488 38.7243 24.9844 38.7237 26.6016C38.7232 28.1543 38.6953 28.3805 38.3999 29.2254C37.8721 30.7349 36.9475 32.1327 35.854 33.0744L35.2736 33.5742L35.2734 37.9395V42.3047H30H24.7266V39.668V37.0312H22.9688H21.2109V34.3945V31.7578H19.9799H18.7489L19.9799 29.2979C21.1488 26.962 21.2109 26.8011 21.2118 26.1046C21.2136 24.4739 22.0214 22.3153 23.1471 20.9336C24.3145 19.5004 26.0285 18.396 27.8104 17.9289C28.8888 17.6462 30.8619 17.6241 32.0277 17.8816Z" fill="#FF6900"/>
</svg>
