<svg width="52" height="53" viewBox="0 0 52 53" fill="none" xmlns="http://www.w3.org/2000/svg">
<path fill-rule="evenodd" clip-rule="evenodd" d="M23.1669 0.163114C22.3581 0.38056 21.6538 0.793919 21.0098 1.42929C20.0529 2.37332 19.6016 3.51265 19.6016 4.98388V5.86595L18.7129 6.19989C18.2242 6.38351 17.4842 6.6881 17.0685 6.8766L16.3129 7.21937L15.7482 6.66708C14.3327 5.28237 12.6536 4.78502 10.9195 5.23667C9.88305 5.50662 9.29094 5.93166 7.61018 7.61252C5.92932 9.29328 5.50428 9.88539 5.23433 10.9218C4.78309 12.6544 5.28013 14.3351 6.66169 15.7475L7.21094 16.309L6.76691 17.3217C6.52275 17.8787 6.21959 18.6201 6.09324 18.9691L5.86341 19.6039H4.98144C3.51051 19.6039 2.3792 20.0522 1.41375 21.0177C0.231461 22.1999 0 23.016 0 26.0023C0 28.9951 0.221813 29.771 1.42695 30.9925C2.37098 31.9494 3.5103 32.4008 4.98154 32.4008H5.86361L6.19755 33.2894C6.38117 33.7783 6.68576 34.5182 6.87426 34.9338L7.21703 35.6895L6.66473 36.2542C6.36096 36.5646 5.96944 37.0473 5.79475 37.3266C4.88008 38.7888 4.84666 40.7212 5.70974 42.2468C6.13905 43.0055 8.99681 45.8633 9.75559 46.2926C11.1982 47.1088 12.9974 47.1256 14.4621 46.3369C14.7439 46.1851 15.2785 45.7753 15.65 45.4262L16.3255 44.7914L17.3287 45.2313C17.8806 45.4732 18.6177 45.7758 18.9668 45.9038L19.6016 46.1365V47.0197C19.6016 48.4921 20.0527 49.6312 21.0098 50.5754C22.2313 51.7805 23.0073 52.0023 26 52.0023C28.9863 52.0023 29.8024 51.7709 30.9847 50.5886C31.9504 49.6228 32.3984 48.4919 32.3984 47.0197V46.1365L33.0332 45.9038C33.3824 45.7758 34.1194 45.4732 34.6713 45.2313L35.6745 44.7914L36.35 45.4262C36.7215 45.7753 37.2561 46.1851 37.5379 46.3369C38.9697 47.1079 40.7495 47.1081 42.1916 46.3374C42.8726 45.9734 45.8417 43.0089 46.2828 42.2523C47.1057 40.8413 47.1258 39.0097 46.3345 37.5402C46.1828 37.2584 45.773 36.7239 45.4238 36.3524L44.7891 35.6769L45.2289 34.6736C45.4709 34.1218 45.7735 33.3847 45.9015 33.0355L46.1342 32.4008L47.0104 32.3996C48.515 32.3975 49.6159 31.9626 50.573 30.9925C51.7782 29.771 52 28.9951 52 26.0023C52 23.0096 51.7782 22.2337 50.573 21.0122C49.6159 20.042 48.515 19.6072 47.0104 19.6051L46.1342 19.6039L45.9015 18.9691C45.7735 18.6201 45.4709 17.8829 45.2289 17.331L44.7891 16.3278L45.4238 15.6523C45.773 15.2808 46.1828 14.7463 46.3345 14.4644C47.123 13.0003 47.1064 11.2028 46.2911 9.75793C45.8679 9.00789 42.8988 6.04531 42.1916 5.66729C40.6642 4.85093 38.7553 4.90182 37.3242 5.79709C37.0449 5.97178 36.5623 6.3633 36.2518 6.66708L35.6871 7.21937L34.9315 6.8766C34.5158 6.6881 33.7759 6.38351 33.2871 6.19989L32.3984 5.86595V4.98388C32.3984 3.51275 31.9502 2.38165 30.9847 1.41609C30.3465 0.777872 29.6559 0.383708 28.7734 0.153872C27.9674 -0.0560576 23.9573 -0.049456 23.1669 0.163114ZM28.4068 3.26209C28.7 3.40408 28.9308 3.61858 29.0991 3.90579C29.3358 4.30971 29.3516 4.4263 29.3516 5.77292C29.3516 7.37233 29.4781 7.8907 29.9471 8.21164C30.0944 8.31249 30.809 8.58935 31.5352 8.82701C32.2613 9.06456 33.4953 9.57572 34.2773 9.96298C35.0594 10.3501 35.8035 10.6668 35.931 10.6667C36.4171 10.6661 36.9341 10.3248 37.9247 9.35097C38.9799 8.31361 39.2749 8.12734 39.8633 8.12734C40.4772 8.12734 40.7583 8.32163 42.1843 9.73193C43.623 11.1549 43.875 11.5121 43.875 12.1292C43.875 12.7282 43.6928 13.0184 42.6514 14.0777C41.6722 15.0736 41.3359 15.5854 41.3359 16.0799C41.3359 16.212 41.6543 16.9625 42.0435 17.7475C42.4326 18.5326 42.9437 19.7627 43.1792 20.4812C43.4147 21.1997 43.6899 21.9079 43.7907 22.0552C44.1116 22.5242 44.63 22.6508 46.2294 22.6508C47.576 22.6508 47.6926 22.6665 48.0965 22.9033C48.858 23.3494 48.9531 23.6938 48.9531 26.0023C48.9531 28.3109 48.858 28.6553 48.0965 29.1014C47.6926 29.3382 47.576 29.3539 46.2294 29.3539C44.63 29.3539 44.1116 29.4805 43.7907 29.9495C43.6899 30.0967 43.4147 30.805 43.1792 31.5235C42.9437 32.2419 42.4326 33.4721 42.0435 34.2571C41.6543 35.0422 41.3359 35.7927 41.3359 35.9248C41.3359 36.4193 41.6722 36.9311 42.6514 37.927C43.6887 38.9822 43.875 39.2773 43.875 39.8656C43.875 40.4745 43.6814 40.7538 42.2768 42.1714C40.839 43.6224 40.4808 43.8773 39.8799 43.8773C39.2735 43.8773 38.9866 43.6978 37.9247 42.6537C36.9236 41.6695 36.4173 41.3383 35.9136 41.3383C35.7766 41.3383 35.0325 41.6549 34.26 42.0421C33.4875 42.4292 32.2613 42.9402 31.5352 43.1778C30.809 43.4153 30.0944 43.6922 29.9471 43.793C29.4781 44.114 29.3516 44.6324 29.3516 46.2318C29.3516 47.5784 29.3358 47.695 29.0991 48.0989C28.6529 48.8603 28.3085 48.9555 26 48.9555C23.6915 48.9555 23.3471 48.8603 22.9009 48.0989C22.6642 47.695 22.6484 47.5784 22.6484 46.2318C22.6484 44.6324 22.5218 44.1139 22.0529 43.7932C21.9056 43.6925 21.191 43.4137 20.4648 43.1737C19.7387 42.9337 18.5085 42.4226 17.7312 42.0378C16.9538 41.653 16.2097 41.3383 16.0775 41.3383C15.583 41.3383 15.0713 41.6745 14.0753 42.6537C13.016 43.6951 12.7259 43.8773 12.1269 43.8773C11.5098 43.8773 11.1526 43.6254 9.72959 42.1866C8.31929 40.7606 8.125 40.4796 8.125 39.8656C8.125 39.2773 8.31126 38.9822 9.34862 37.927C10.3278 36.9311 10.6641 36.4193 10.6641 35.9248C10.6641 35.7927 10.3457 35.0422 9.95648 34.2571C9.56739 33.4721 9.05633 32.2419 8.8208 31.5235C8.58528 30.805 8.31015 30.0967 8.2093 29.9495C7.88836 29.4805 7.36998 29.3539 5.77058 29.3539C4.42396 29.3539 4.30737 29.3382 3.90345 29.1014C3.14204 28.6553 3.04688 28.3109 3.04688 26.0023C3.04688 23.6938 3.14204 23.3494 3.90345 22.9033C4.30737 22.6665 4.42396 22.6508 5.77058 22.6508C7.36998 22.6508 7.88836 22.5242 8.2093 22.0552C8.31015 21.9079 8.58721 21.1934 8.82497 20.4672C9.06273 19.741 9.57379 18.5108 9.96064 17.7334C10.3475 16.956 10.6641 16.2118 10.6641 16.0797C10.6641 15.5854 10.3277 15.0735 9.34862 14.0777C8.3072 13.0184 8.125 12.7282 8.125 12.1292C8.125 11.5121 8.37698 11.1549 9.81571 9.73193C11.2418 8.32163 11.5228 8.12734 12.1367 8.12734C12.7251 8.12734 13.0201 8.31361 14.0753 9.35097C15.0713 10.3301 15.583 10.6664 16.0775 10.6664C16.2097 10.6664 16.9601 10.348 17.7452 9.95882C18.5303 9.56973 19.7604 9.05867 20.4789 8.82314C21.1973 8.58762 21.9056 8.31249 22.0529 8.21164C22.5219 7.8907 22.6484 7.37233 22.6484 5.77292C22.6484 4.42823 22.6645 4.3092 22.8996 3.90803C23.0635 3.62833 23.3018 3.40468 23.5851 3.26443C23.9825 3.0677 24.1877 3.04942 25.9933 3.04932C27.7898 3.04922 28.0067 3.06831 28.4068 3.26209ZM23.7148 14.9295C19.4854 15.845 16.1821 18.9759 15.055 23.1377C14.8119 24.0353 14.788 24.2914 14.788 26.0023C14.788 27.7133 14.8119 27.9694 15.055 28.867C16.1189 32.7953 19.207 35.8835 23.1353 36.9473C24.0329 37.1905 24.2891 37.2143 26 37.2143C27.7109 37.2143 27.9671 37.1905 28.8647 36.9473C32.7961 35.8826 35.8803 32.7984 36.945 28.867C37.1881 27.9694 37.212 27.7133 37.212 26.0023C37.212 24.2914 37.1881 24.0353 36.945 23.1377C35.8802 19.206 32.7743 16.0948 28.8922 15.0711C27.4867 14.7005 25.0775 14.6346 23.7148 14.9295ZM27.9019 17.9775C31.6586 18.8781 34.2251 22.1353 34.2251 26.0023C34.2251 30.6119 30.6095 34.2275 26 34.2275C23.7293 34.2275 21.7809 33.4255 20.1695 31.8278C17.4193 29.1006 16.9646 24.7449 19.0913 21.4992C20.2607 19.7145 22.1791 18.3788 24.2148 17.9317C25.1787 17.72 26.9181 17.7417 27.9019 17.9775Z" fill="#FCB900"/>
</svg>
