<svg width="52" height="57" viewBox="0 0 52 57" fill="none" xmlns="http://www.w3.org/2000/svg">
<path fill-rule="evenodd" clip-rule="evenodd" d="M19.974 0.406198C18.7728 0.915607 16.7877 2.23907 16.531 2.70183C16.3547 3.01952 16.3705 3.21514 16.6893 4.64455L17.0435 6.23408L16.3229 7.31622C15.9265 7.91153 15.4695 8.70865 15.3072 9.08765L15.0123 9.77681L13.4872 10.2622C12.6483 10.5292 11.8583 10.8614 11.7316 11.0004C11.3774 11.3889 11.203 12.7892 11.3032 14.4384C11.4305 16.5307 11.4437 16.5479 13.3934 17.165L15.0046 17.6751L15.3133 18.4088C15.4831 18.8123 15.9422 19.6174 16.3336 20.1978L17.045 21.2532L16.6901 22.8547C16.3758 24.2732 16.3568 24.4964 16.5241 24.8067C16.9158 25.5334 20.2266 27.4223 21.1085 27.4223C21.4175 27.4223 21.768 27.1772 22.7099 26.3024L23.9157 25.1823L24.9578 25.2933C25.5311 25.3542 26.4564 25.3555 27.0143 25.2962L28.0285 25.1883L29.2627 26.3054C30.1641 27.1212 30.5944 27.4223 30.859 27.4223C31.7446 27.4223 35.2031 25.3952 35.4897 24.708C35.6172 24.4027 35.5825 24.0561 35.2988 22.7962L34.9523 21.2573L35.6651 20.1999C36.0571 19.6182 36.5174 18.8084 36.6879 18.3999L36.998 17.6572L38.3037 17.2746C40.6811 16.5779 40.6907 16.5635 40.6907 13.709C40.6907 11.6938 40.5685 11.0796 40.1133 10.8049C39.985 10.7275 39.2332 10.4644 38.4424 10.2202L37.0044 9.77614L36.7043 9.0574C36.5392 8.662 36.0796 7.85695 35.6827 7.26836L34.9612 6.19818L35.3 4.70007C35.4863 3.87606 35.6017 3.05528 35.5564 2.87593C35.3581 2.09172 31.5786 -0.141258 30.7844 0.0566436C30.5852 0.106253 29.9121 0.606654 29.2886 1.16863L28.155 2.1904H25.9865H23.8179L23.047 1.45258C21.9695 0.421256 21.4124 -0.00493142 21.1484 4.30102e-05C21.0238 0.00232856 20.4953 0.185172 19.974 0.406198ZM21.9551 3.38924C22.5496 3.92473 23.1284 4.41424 23.2413 4.47689C23.3575 4.54156 23.8145 4.52744 24.2943 4.44449C25.3774 4.25721 26.627 4.25802 27.7175 4.44651C28.7308 4.62169 28.7146 4.62949 30.1798 3.28021L31.1772 2.36169L32.0079 2.7954C33.4586 3.55299 33.3866 3.40833 33.0564 4.89865C32.6487 6.73905 32.6652 6.87685 33.4005 7.76889C33.7469 8.18916 34.2692 9.04718 34.5612 9.67571C34.8531 10.3042 35.1642 10.9697 35.2523 11.1546C35.3829 11.4283 35.7084 11.5874 37.008 12.0123L38.6035 12.5341L38.5648 13.7452L38.526 14.9564L37.1719 15.3903C36.4271 15.6289 35.7144 15.8677 35.5882 15.9209C35.4618 15.9741 35.1878 16.4498 34.9791 16.9779C34.5818 17.9833 33.8188 19.25 33.1596 19.999C32.6877 20.535 32.6691 20.9291 33.0417 22.5151C33.1906 23.1494 33.3125 23.7238 33.3125 23.7915C33.3125 23.9429 31.5394 25.0023 31.2859 25.0023C31.1854 25.0023 30.6308 24.579 30.0536 24.0615C28.8423 22.9756 28.5939 22.8567 27.8391 23.0021C27.1261 23.1393 24.8739 23.1393 24.1609 23.0021C23.4046 22.8565 23.1583 22.975 21.9291 24.0771C21.0771 24.8409 20.8 25.0177 20.5535 24.9551C20.1455 24.8516 18.6875 23.939 18.6875 23.7872C18.6875 23.7217 18.8094 23.1494 18.9583 22.5151C19.3581 20.8131 19.3322 20.6086 18.5995 19.6817C18.2532 19.2436 17.6665 18.2499 17.2956 17.4735C16.9248 16.697 16.5531 16.0158 16.4695 15.9596C16.386 15.9034 15.6779 15.6548 14.8958 15.4072L13.474 14.9569L13.4352 13.742L13.3965 12.527L14.9639 12.037L16.5313 11.5468L17.1806 10.1744C17.5377 9.41946 18.1448 8.39567 18.5296 7.89917C19.3421 6.85091 19.3623 6.70557 18.9533 4.84554C18.8017 4.15544 18.6952 3.57316 18.717 3.55165C18.8384 3.43105 20.6651 2.41573 20.7606 2.41573C20.8232 2.41573 21.3608 2.85389 21.9551 3.38924ZM25.1306 7.95657C21.9984 8.35466 19.6327 11.5317 20.1725 14.6149C20.4063 15.9503 20.9741 17.0208 21.9279 17.924C22.867 18.8132 23.8675 19.3135 25.1186 19.5193C28.9254 20.1455 32.4433 16.6788 31.834 12.9012C31.3144 9.67974 28.4127 7.53926 25.1306 7.95657ZM27.1921 10.2405C27.9434 10.4293 28.9876 11.3567 29.3926 12.1951C29.9932 13.438 29.7445 15.1033 28.7912 16.223C28.3415 16.7512 27.227 17.3077 26.393 17.4204C24.966 17.613 23.3835 16.7518 22.6895 15.4045C21.918 13.9068 22.2399 12.183 23.5078 11.0226C24.5831 10.0386 25.561 9.83099 27.1921 10.2405ZM40.6685 18.9725C40.5062 19.0533 40.3008 19.2936 40.212 19.5064C39.8905 20.277 40.1421 20.5253 42.9352 22.1937L45.4992 23.7251L45.4996 26.857L45.5 29.989L45.8324 30.3189C46.2721 30.7556 46.8945 30.7556 47.3342 30.3189L47.6667 29.989V26.3782C47.6667 22.9769 47.6512 22.7511 47.401 22.4845C47.0188 22.0771 41.7323 18.9478 41.3144 18.8814C41.1214 18.8507 40.8308 18.8917 40.6685 18.9725ZM7.46688 20.6373C5.95048 21.5532 4.62705 22.4108 4.5259 22.5432C4.38181 22.7318 4.34105 23.5642 4.33767 26.3864L4.33333 29.989L4.66578 30.3189C4.87527 30.527 5.15288 30.649 5.41667 30.649C5.68046 30.649 5.95806 30.527 6.16755 30.3189L6.5 29.989V26.8547V23.7204L8.76823 22.3804C10.0158 21.6434 11.2041 20.8777 11.4089 20.6789C11.8529 20.2478 11.8835 19.7899 11.5005 19.3066C10.9723 18.6399 10.5361 18.7838 7.46688 20.6373ZM5.95833 33.2822C2.94193 35.0168 0.367385 36.5624 0.236979 36.7168C0.0184167 36.9758 0 37.5066 0 43.5556C0 49.6079 0.0182812 50.1346 0.236979 50.386C0.622646 50.8293 11.5214 57 11.9188 57C12.3202 57 23.2165 50.8317 23.5964 50.3895C23.8151 50.1349 23.8333 49.6056 23.8333 43.5346V36.9556L23.5286 36.6557C23.3611 36.4906 20.7743 34.9506 17.7802 33.2334C13.5757 30.822 12.2348 30.1132 11.8896 30.1198C11.5619 30.1261 9.98075 30.9691 5.95833 33.2822ZM34.125 33.2822C31.1086 35.0168 28.5339 36.5624 28.4036 36.7168C28.1851 36.9758 28.1667 37.5066 28.1667 43.5556C28.1667 49.6079 28.1849 50.1346 28.4036 50.386C28.7893 50.8293 39.6881 57 40.0855 57C40.4869 57 51.3832 50.8317 51.763 50.3895C51.9817 50.1349 52 49.6056 52 43.5346V36.9556L51.6953 36.6557C51.5277 36.4906 48.9409 34.9506 45.9469 33.2334C41.7423 30.822 40.4014 30.1132 40.0563 30.1198C39.7285 30.1261 38.1474 30.9691 34.125 33.2822ZM16.3474 34.904C18.7591 36.283 20.6837 37.458 20.6241 37.5152C20.4476 37.6842 12.0398 42.48 11.9199 42.48C11.8047 42.48 3.39706 37.684 3.20951 37.5114C3.14993 37.4566 4.27727 36.7412 5.71472 35.9215C7.15203 35.1018 9.12031 33.9743 10.0885 33.416C11.0568 32.8578 11.8744 32.4 11.9057 32.3988C11.9368 32.3977 13.9356 33.525 16.3474 34.904ZM44.514 34.904C46.9258 36.283 48.8503 37.458 48.7908 37.5152C48.6143 37.6842 40.2064 42.48 40.0866 42.48C39.9713 42.48 31.5637 37.684 31.3762 37.5114C31.3166 37.4566 32.4439 36.7412 33.8814 35.9215C35.3187 35.1018 37.287 33.9743 38.2552 33.416C39.2234 32.8578 40.0411 32.4 40.0724 32.3988C40.1035 32.3977 42.1023 33.525 44.514 34.904ZM6.57285 41.9622L10.8333 44.4021V49.2344V54.0667L10.0375 53.6175C9.59969 53.3706 7.65064 52.2609 5.70619 51.1517L2.17073 49.135L2.1687 44.3287C2.16761 41.6851 2.19944 39.5223 2.23952 39.5223C2.27947 39.5223 4.22947 40.6203 6.57285 41.9622ZM21.6667 44.3311V49.1397L17.4469 51.5574C15.126 52.8871 13.176 53.9952 13.1136 54.0198C13.0511 54.0445 13 51.8956 13 49.2445V44.4242L17.2318 41.9848C19.5593 40.643 21.5093 39.54 21.5651 39.5337C21.6209 39.5274 21.6667 41.6862 21.6667 44.3311ZM34.7395 41.9622L39 44.4021V49.2344V54.0667L38.2042 53.6175C37.7664 53.3706 35.8173 52.2609 33.8729 51.1517L30.3374 49.135L30.3354 44.3287C30.3343 41.6851 30.3661 39.5223 30.4062 39.5223C30.4461 39.5223 32.3961 40.6203 34.7395 41.9622ZM49.8333 44.3311V49.1397L45.6136 51.5574C43.2927 52.8871 41.3427 53.9952 41.2803 54.0198C41.2177 54.0445 41.1667 51.8956 41.1667 49.2445V44.4242L45.3984 41.9848C47.726 40.643 49.6758 39.54 49.7318 39.5337C49.7877 39.5274 49.8333 41.6862 49.8333 44.3311Z" fill="#D94EDC"/>
</svg>
