<svg width="50" height="50" viewBox="0 0 50 50" fill="none" xmlns="http://www.w3.org/2000/svg">
<path fill-rule="evenodd" clip-rule="evenodd" d="M1.55267 0.120967C1.04326 0.28154 0.249204 1.12025 0.101412 1.65374C0.0110566 1.98006 -0.01268 3.11442 0.00920063 6.0568L0.0386028 10.0204L0.335164 10.5009C0.534923 10.8246 0.804524 11.0851 1.16116 11.2989L1.69059 11.6163L5.79752 11.6141C10.378 11.6118 10.337 11.6173 10.9984 10.9201C11.5456 10.3434 11.6391 9.97931 11.6904 8.22219L11.7369 6.63502H12.639C13.3909 6.63502 13.5822 6.60269 13.7876 6.44124C14.111 6.1868 14.195 5.82629 14.0127 5.47399C13.8216 5.1042 13.7127 5.07226 12.644 5.07226H11.7366L11.694 3.43508C11.6526 1.84947 11.6424 1.78139 11.3664 1.27448C11.0541 0.700553 10.6395 0.333892 10.0756 0.132687C9.60036 -0.0369693 2.0864 -0.0472249 1.55267 0.120967ZM9.82571 1.79175L10.0998 2.02733L10.1232 5.5699C10.138 7.80962 10.109 9.25224 10.0442 9.49261C9.86654 10.1525 9.78439 10.1644 5.63917 10.1313L2.02398 10.1024L1.78827 9.82831L1.55267 9.55424V5.79494V2.03554L1.79247 1.79585L2.03219 1.55606H5.79195H9.55161L9.82571 1.79175ZM7.39383 3.41701C7.3024 3.47034 6.8767 4.09535 6.44798 4.80591C5.33001 6.65875 5.51385 6.5181 4.80693 6.06119C4.01747 5.55105 3.65653 5.50524 3.31474 5.8721C3.04592 6.16053 3.0556 6.64332 3.33536 6.90147C3.45619 7.01311 3.97146 7.37234 4.48028 7.69994C5.4866 8.3477 5.8993 8.44479 6.21315 8.10782C6.52837 7.76948 8.58574 4.27467 8.58574 4.07757C8.58574 3.97179 8.45729 3.75672 8.30022 3.59966C8.00864 3.30811 7.69058 3.24403 7.39383 3.41701ZM16.5163 5.29691C16.233 5.59832 16.229 6.14744 16.5082 6.40012C16.7075 6.58052 17.0959 6.58765 29.2389 6.63502L41.7641 6.68385L42.2421 6.97941C42.9705 7.42978 43.3026 8.03632 43.3463 8.99595L43.3811 9.76053H41.869C39.8286 9.76053 39.2515 9.97042 38.6965 10.9145C38.4328 11.363 38.4265 11.4109 38.3786 13.3256L38.3298 15.279L34.7205 15.3047C31.1732 15.3299 31.1075 15.3339 30.8865 15.5415C30.6073 15.8038 30.5899 16.2918 30.8484 16.6112L31.0351 16.8418L34.7069 16.8696L38.3786 16.8974L38.3808 18.2858C38.3825 19.4224 38.4154 19.7452 38.5622 20.0649C38.7806 20.5411 39.1742 20.9429 39.696 21.2225C40.0791 21.4276 40.1807 21.4324 44.1444 21.4324H48.2007L48.6857 21.1828C49.2314 20.902 49.7495 20.2889 49.9005 19.7451C49.9625 19.5222 50.001 17.8865 50 15.5232C49.9985 11.8527 49.9888 11.6437 49.7994 11.2256C49.554 10.6833 49.1951 10.2958 48.684 10.0208C48.3363 9.83378 48.1091 9.80702 46.6196 9.77772L44.9458 9.7447L44.9063 8.83919C44.8726 8.06767 44.8211 7.84107 44.5584 7.30778C44.1649 6.50843 43.4842 5.82912 42.6797 5.43316L42.0459 5.1211L29.3879 5.09522L16.73 5.06943L16.5163 5.29691ZM47.9823 11.4369C48.435 11.678 48.4335 11.6639 48.4367 15.591L48.4398 19.3215L48.2041 19.5955L47.9683 19.8696H44.153H40.3377L40.1152 19.6471L39.8927 19.4247V15.6097V11.7947L40.1668 11.5591L40.4409 11.3233H44.1049C46.7031 11.3233 47.831 11.3563 47.9823 11.4369ZM45.7389 13.2215C45.6234 13.3042 45.1457 13.9987 44.6774 14.765C44.2091 15.5312 43.8104 16.175 43.7914 16.1959C43.7725 16.2167 43.4778 16.0518 43.1367 15.8296C42.2484 15.2509 41.6071 15.3218 41.4547 16.0156C41.3577 16.4571 41.5587 16.6819 42.7043 17.4121C43.7993 18.11 44.2572 18.2286 44.5565 17.8917C44.64 17.7977 45.1963 16.9184 45.7926 15.9378C46.9241 14.0771 47.0313 13.7774 46.706 13.3855C46.4768 13.1096 46.0068 13.0298 45.7389 13.2215ZM23.0818 14.6765C22.8519 14.8742 22.79 15.0567 22.6123 16.0594L22.4077 17.2147L21.5225 17.6631C21.0357 17.9097 20.4092 18.2764 20.1303 18.4778C19.8514 18.6793 19.5904 18.8444 19.5503 18.8448C19.5101 18.8453 18.982 18.6644 18.3768 18.4429C16.9046 17.9042 16.9447 17.8851 15.9505 19.6019C15.5263 20.3345 15.1418 21.0374 15.0962 21.1637C14.96 21.5404 15.186 21.8746 16.0794 22.6177L16.9174 23.3147L16.9275 24.9923L16.9375 26.6699L16.0907 27.372C15.1874 28.1208 14.96 28.4545 15.0962 28.8311C15.1418 28.9574 15.5252 29.6583 15.9481 30.3885C16.4688 31.2878 16.7974 31.7529 16.9667 31.8299C17.1812 31.9277 17.3853 31.8855 18.4097 31.5313L19.6028 31.1187L20.1206 31.501C20.4054 31.7113 21.0345 32.0842 21.5187 32.3296L22.399 32.776L22.609 33.9341C22.9074 35.5803 22.8564 35.546 25.0092 35.546H26.6719L26.9379 35.2774C27.1655 35.0476 27.2302 34.8453 27.3866 33.8756L27.5694 32.7424L28.212 32.4634C28.5654 32.31 29.2063 31.9452 29.6361 31.653L30.4176 31.1214L31.1502 31.3908C32.7967 31.9963 32.78 31.993 33.0798 31.7711C33.3288 31.5866 34.7704 29.2493 34.9137 28.7976C35.025 28.4471 34.7728 28.0932 33.9023 27.3783L33.055 26.6827L33.065 24.9949L33.0751 23.3072L33.9254 22.5817C34.3931 22.1826 34.8222 21.7541 34.8791 21.6294C35.0165 21.3277 34.9552 21.179 34.0419 19.6019C33.0449 17.8801 33.0805 17.8971 31.6104 18.4407C31.0081 18.6633 30.484 18.8452 30.4458 18.8448C30.4075 18.8444 30.0339 18.6115 29.6155 18.3272C29.197 18.0429 28.5654 17.6848 28.212 17.5313L27.5694 17.2524L27.3866 16.1192C27.2302 15.1495 27.1655 14.9472 26.9379 14.7174L26.6719 14.4488H25.0092C23.4086 14.4488 23.3366 14.4573 23.0818 14.6765ZM9.17183 15.4821C7.67593 15.8757 6.26346 17.024 5.62736 18.3639C5.43824 18.7623 5.23526 19.3212 5.17636 19.6058C5.10828 19.9345 5.0692 21.6542 5.0692 24.3185V28.5136H3.70645C2.95694 28.5136 2.1199 28.5615 1.8463 28.6202C1.22475 28.7536 0.602714 29.2181 0.282807 29.7879L0.0386028 30.2228L0.00998209 34.2267C-0.0153174 37.7723 1.85731e-05 38.2794 0.144099 38.6566C0.351672 39.2001 0.789872 39.6989 1.29918 39.9714C1.68844 40.1796 1.80293 40.1862 5.55761 40.2152C8.14793 40.2352 9.55708 40.2095 9.84515 40.1371C10.4902 39.9747 11.045 39.5437 11.3646 38.9566C11.6359 38.4581 11.6467 38.3855 11.6917 36.7494L11.7382 35.0576H15.2459H18.7535L18.9932 34.8178C19.3658 34.4454 19.2551 33.8206 18.7781 33.6033C18.6182 33.5304 17.4235 33.4949 15.1387 33.4949H11.7373L11.6903 31.9565C11.6381 30.2517 11.5398 29.8755 10.9984 29.3108C10.3681 28.6534 10.0863 28.573 8.26446 28.5313L6.62459 28.4938L6.65272 24.1305L6.68095 19.7673L6.99304 19.1337C7.39021 18.3273 8.06881 17.6487 8.87546 17.2515L9.50912 16.9394L14.3466 16.8906C19.3243 16.8404 19.5158 16.8243 19.6611 16.4458C19.7971 16.0912 19.7198 15.7313 19.464 15.5303C19.2114 15.3316 19.1191 15.3279 14.4579 15.3343C10.642 15.3395 9.60348 15.3685 9.17183 15.4821ZM25.8646 16.5243C25.92 16.8063 26.0115 17.3002 26.0679 17.6219C26.1935 18.339 26.3908 18.5434 27.2429 18.8399C27.9976 19.1026 28.6754 19.4973 29.3431 20.0629C29.6117 20.2904 29.9245 20.5059 30.0382 20.5418C30.1706 20.5836 30.6243 20.4675 31.3009 20.2188C32.4911 19.7813 32.3656 19.7459 32.8591 20.6583L33.1518 21.1992L32.7126 21.5583C32.4711 21.7557 32.0568 22.1212 31.7918 22.3704L31.3102 22.8235L31.4392 23.6531C31.5266 24.2152 31.5457 24.8098 31.4983 25.497C31.3629 27.4586 31.2836 27.1855 32.2247 27.9974C32.6813 28.3913 33.0678 28.751 33.0835 28.7967C33.1042 28.8572 32.6007 29.8182 32.3768 30.1457C32.369 30.157 31.8862 29.9911 31.3037 29.777C30.6251 29.5276 30.1706 29.4112 30.0382 29.453C29.9245 29.4888 29.6117 29.7044 29.3431 29.9319C28.6754 30.4975 27.9976 30.8922 27.2429 31.1548C26.3908 31.4514 26.1935 31.6558 26.0679 32.3729C26.0115 32.6945 25.92 33.1885 25.8646 33.4704L25.7638 33.9832H24.9962H24.2287L24.1278 33.4704C24.0725 33.1885 23.9814 32.6968 23.9256 32.3779C23.8102 31.7192 23.56 31.3885 23.1036 31.2911C22.5596 31.175 21.4466 30.5725 20.7848 30.0358C20.4294 29.7477 20.0507 29.484 19.9432 29.4499C19.8245 29.4122 19.3316 29.5407 18.6887 29.777C18.1063 29.9911 17.6234 30.157 17.6157 30.1457C17.3917 29.8182 16.8883 28.8572 16.909 28.7967C16.9247 28.751 17.3111 28.3913 17.7678 27.9974C18.7097 27.1849 18.6375 27.4324 18.4962 25.5028C18.4451 24.8056 18.4625 24.2366 18.5524 23.6587L18.6824 22.8229L18.2496 22.4195C18.0114 22.1977 17.5976 21.8313 17.3299 21.6053L16.8432 21.1945L17.1345 20.656C17.6333 19.734 17.5076 19.7697 18.6925 20.2147C19.3781 20.4722 19.8145 20.5859 19.9515 20.5428C20.0667 20.5063 20.3808 20.2904 20.6494 20.0629C21.3171 19.4973 21.9949 19.1026 22.7496 18.8399C23.6016 18.5434 23.799 18.339 23.9246 17.6219C23.9809 17.3002 24.0725 16.8063 24.1278 16.5243L24.2287 16.0115H24.9962H25.7638L25.8646 16.5243ZM24.3125 20.3705C21.9381 20.8274 20.395 22.6194 20.3704 24.9486C20.3424 27.5949 22.2994 29.5915 24.9474 29.6182C26.0479 29.6292 26.8965 29.3645 27.7316 28.7499C30.342 26.8284 30.2445 22.8284 27.545 21.0964C26.6778 20.5399 25.1799 20.2035 24.3125 20.3705ZM26.2191 22.1556C26.8273 22.4247 27.49 23.0771 27.8013 23.7133C28.1515 24.4289 28.1754 25.4824 27.8573 26.1866C27.5669 26.8296 26.9257 27.4865 26.2805 27.8021C25.4969 28.1855 24.4956 28.1855 23.712 27.8021C23.0667 27.4865 22.4256 26.8296 22.1351 26.1866C21.8504 25.5561 21.8493 24.441 22.1329 23.8134C22.8513 22.223 24.6874 21.4782 26.2191 22.1556ZM9.61647 30.176C10.1197 30.3673 10.1487 30.6184 10.1232 34.5612L10.0998 38.1779L9.87738 38.4003C9.65506 38.6227 9.65447 38.6227 6.01896 38.6511C4.01913 38.6666 2.28528 38.6552 2.16591 38.6255C2.04645 38.5958 1.85968 38.4758 1.75076 38.3588C1.55892 38.153 1.55267 38.0282 1.55267 34.4261C1.55267 30.4112 1.55638 30.3808 2.07595 30.1746C2.37026 30.0577 9.30888 30.059 9.61647 30.176ZM7.49903 31.9449C7.31168 32.0129 7.01131 32.4197 6.38488 33.4537C5.91317 34.2324 5.48816 34.8937 5.4403 34.9232C5.39243 34.9528 5.07751 34.7974 4.74041 34.5778C4.05253 34.1296 3.74816 34.0859 3.37296 34.381C3.08822 34.6049 3.02141 35.0948 3.23767 35.3722C3.39025 35.5679 5.23985 36.7695 5.5203 36.8552C5.98682 36.9977 6.18551 36.7816 7.36863 34.8452C8.59502 32.8379 8.71585 32.4997 8.33665 32.1355C8.08444 31.8932 7.8121 31.8312 7.49903 31.9449ZM30.7902 33.5932C30.3101 33.7867 30.2133 34.5305 30.6261 34.8551C30.8791 35.0542 30.9713 35.0576 36.0297 35.0576C41.9542 35.0576 41.8994 35.0513 42.6669 35.8219C43.1967 36.3539 43.3604 36.8045 43.3604 37.7305V38.3785H41.7455C39.9518 38.3785 39.6503 38.4479 39.0749 38.9939C38.4504 39.5863 38.3832 39.8696 38.3808 41.9191L38.3786 43.7504H37.415C36.588 43.7504 36.4148 43.7792 36.194 43.9529C35.8523 44.2216 35.8347 44.7927 36.1586 45.097C36.3495 45.2763 36.5175 45.3096 37.3552 45.3338L38.3298 45.362L38.3786 46.876C38.42 48.1603 38.4584 48.4491 38.6314 48.7806C38.8737 49.2446 39.5103 49.7586 40.0172 49.8993C40.2397 49.9611 41.8798 50.0002 44.2395 50C48.0926 49.9995 48.0986 49.9992 48.5863 49.7687C49.1733 49.4912 49.5323 49.1266 49.7994 48.5364C49.9888 48.1182 49.9985 47.9093 50 44.2388C50.001 41.8755 49.9625 40.2398 49.9005 40.0169C49.7598 39.5101 49.2458 38.8735 48.7817 38.6313C48.4424 38.4542 48.166 38.4209 46.6815 38.3785L44.9721 38.3296L44.9172 37.397C44.8719 36.6262 44.809 36.3502 44.5549 35.8074C44.0205 34.6655 42.9413 33.8255 41.7109 33.5939C41.0603 33.4714 31.0941 33.4708 30.7902 33.5932ZM48.2042 40.1665L48.4398 40.4405V44.1998V47.9592L48.2 48.1989L47.9603 48.4387H44.2005H40.4409L40.1668 48.203L39.8927 47.9674L39.8679 44.4302C39.8519 42.1611 39.8802 40.7549 39.9468 40.5077C40.1241 39.8492 40.1645 39.8433 44.3214 39.8694L47.9685 39.8924L48.2042 40.1665ZM25.9111 40.7151C25.5174 40.8215 21.3054 43.9807 21.1831 44.2614C20.9553 44.7839 21.0792 44.9161 23.4074 46.6345C24.6304 47.5373 25.7538 48.3228 25.9035 48.3801C26.438 48.5847 26.9665 48.0283 26.8141 47.4214C26.7662 47.2306 26.4122 46.9105 25.5294 46.26L24.3108 45.362L28.9602 45.3132L33.6096 45.2644L33.7963 45.0338C34.1077 44.6491 33.9736 44.0619 33.528 43.8589C33.3645 43.7844 31.8789 43.7504 28.7861 43.7504H24.2822L25.2986 43.0066C25.8576 42.5975 26.4359 42.1498 26.5836 42.0116C26.8654 41.7482 26.9344 41.3518 26.7566 41.0194C26.6391 40.8 26.1922 40.6391 25.9111 40.7151ZM45.6306 41.8703C45.5242 41.9642 45.0732 42.6456 44.6284 43.3842C44.1835 44.1229 43.7839 44.7272 43.7405 44.7272C43.6969 44.7272 43.3848 44.5517 43.0468 44.3375C42.3585 43.9008 42.0315 43.8531 41.7194 44.1439C41.4195 44.4231 41.3526 44.7766 41.5443 45.069C41.7393 45.3666 43.5749 46.5721 43.9459 46.6463C44.1523 46.6875 44.2827 46.6354 44.5077 46.4218C44.9665 45.9861 46.8769 42.7529 46.8769 42.4121C46.8769 41.8219 46.0783 41.4747 45.6306 41.8703Z" fill="#B548AA"/>
</svg>
