<svg width="40" height="40" viewBox="0 0 40 40" fill="none" xmlns="http://www.w3.org/2000/svg">
<path fill-rule="evenodd" clip-rule="evenodd" d="M17.5342 0.0473722C17.1444 0.1462 16.6549 0.429927 16.3519 0.732747C15.8456 1.23901 15.7177 1.64817 15.4857 3.50383C15.3706 4.42551 15.2444 5.22176 15.2053 5.27341C15.1662 5.32497 15.005 5.40768 14.847 5.45706C14.689 5.50651 14.1969 5.70643 13.7534 5.90143L12.9472 6.25581L12.6575 6.02662C11.3002 4.9522 10.2754 4.19311 9.98043 4.04358C9.49957 3.79984 8.73949 3.75078 8.13503 3.92441C7.6872 4.05305 7.60877 4.12011 5.85761 5.8706C4.10646 7.62109 4.03937 7.69949 3.91068 8.14715C3.73652 8.75287 3.78599 9.51172 4.03092 9.99185C4.12971 10.1855 4.6227 10.8721 5.1265 11.5177C6.36814 13.1086 6.28509 12.9241 6.00892 13.4778C5.88125 13.7338 5.6789 14.2075 5.5593 14.5302C5.43969 14.853 5.30231 15.1554 5.25409 15.2021C5.20579 15.2489 4.40908 15.3823 3.48344 15.4987C1.62184 15.7328 1.22121 15.8577 0.71726 16.3615C0.55953 16.5191 0.33362 16.8318 0.215264 17.0563L0 17.4645V19.9685V22.4724L0.205088 22.9095C0.317886 23.15 0.543796 23.4803 0.707084 23.6436C1.22341 24.1596 1.64235 24.294 3.41793 24.5125C4.29346 24.6203 5.08039 24.7376 5.16673 24.7733C5.26145 24.8124 5.382 25.0049 5.471 25.2594C5.55202 25.4911 5.75922 25.9881 5.93143 26.3639C6.14763 26.8357 6.22114 27.0779 6.16885 27.1464C6.1272 27.201 5.66951 27.7913 5.15178 28.4584C4.63405 29.1255 4.12971 29.8297 4.03092 30.0234C3.78599 30.5035 3.73652 31.2623 3.91068 31.8681C4.03937 32.3157 4.10646 32.3941 5.85761 34.1446C7.60877 35.8951 7.6872 35.9622 8.13503 36.0908C8.73949 36.2644 9.49957 36.2154 9.98043 35.9716C10.2754 35.8221 11.3002 35.063 12.6575 33.9886L12.9472 33.7594L13.7534 34.1138C14.1969 34.3088 14.689 34.5087 14.847 34.5582C15.005 34.6075 15.1662 34.6902 15.2053 34.7418C15.2444 34.7934 15.3706 35.5897 15.4857 36.5114C15.7187 38.3752 15.8449 38.7755 16.3627 39.2932C16.526 39.4564 16.8564 39.6822 17.097 39.795L17.5342 40H20H22.4658L22.903 39.795C23.1436 39.6822 23.474 39.4564 23.6373 39.2932C24.1607 38.7699 24.2902 38.359 24.5168 36.502C24.6286 35.5855 24.7588 34.7962 24.8063 34.7479C24.8536 34.6997 25.1566 34.5624 25.4795 34.4428C25.8023 34.3233 26.2762 34.121 26.5323 33.9934C27.0862 33.7173 26.9016 33.6343 28.4932 34.8755C29.1389 35.3791 29.8258 35.8719 30.0196 35.9706C30.4999 36.2155 31.259 36.2649 31.865 36.0908C32.3128 35.9622 32.3912 35.8951 34.1424 34.1446C35.8935 32.3941 35.9606 32.3157 36.0893 31.8681C36.2632 31.2633 36.214 30.5033 35.9701 30.0258C35.8277 29.7471 35.0907 28.7539 33.8352 27.1488C33.7832 27.0824 33.8704 26.8001 34.1128 26.249C34.3072 25.8073 34.5066 25.3166 34.5561 25.1587C34.6055 25.0007 34.6882 24.8396 34.7398 24.8005C34.7915 24.7614 35.588 24.6353 36.5101 24.5202C38.3746 24.2873 38.775 24.1612 39.2929 23.6436C39.4562 23.4803 39.6821 23.15 39.7949 22.9095L40 22.4724V20.0076V17.5428L39.7949 17.1057C39.6821 16.8652 39.4562 16.535 39.2929 16.3717C38.7764 15.8553 38.3677 15.7257 36.4842 15.4807C35.5519 15.3594 34.7597 15.228 34.724 15.1886C34.6883 15.1493 34.5609 14.853 34.4412 14.5302C34.3213 14.2075 34.1187 13.7338 33.9911 13.4778C33.7149 12.9241 33.6319 13.1086 34.8735 11.5177C35.3773 10.8721 35.8703 10.1855 35.9691 9.99185C36.214 9.51172 36.2635 8.75287 36.0893 8.14715C35.9606 7.69949 35.8935 7.62109 34.1424 5.8706C32.3912 4.12011 32.3128 4.05305 31.865 3.92441C31.259 3.75031 30.4999 3.79976 30.0196 4.0446C29.8258 4.14335 29.1389 4.63616 28.4932 5.13976C26.9016 6.38093 27.0862 6.29791 26.5323 6.02185C26.2762 5.89423 25.8023 5.69196 25.4795 5.57239C25.1566 5.45283 24.854 5.31551 24.8071 5.2673C24.7602 5.21903 24.628 4.42551 24.5133 3.50383C24.2814 1.6398 24.1555 1.24011 23.6373 0.722028C23.474 0.558802 23.1436 0.332978 22.903 0.220222L22.4658 0.0152122L20.1174 0.00151882C18.8258 -0.00591476 17.6634 0.0146645 17.5342 0.0473722ZM22.1843 1.71828C22.6078 1.93589 22.6583 2.10585 22.9327 4.23701C23.1331 5.79297 23.2257 6.29869 23.338 6.44909C23.4416 6.58774 23.7563 6.74009 24.428 6.97671C24.9474 7.15966 25.7539 7.49472 26.2202 7.72124C26.966 8.08353 27.0975 8.12407 27.3126 8.05802C27.447 8.01679 28.2772 7.42265 29.1573 6.73782C31.3139 5.05948 30.9676 5.03225 32.9743 7.03822C34.9807 9.04395 34.9551 8.68792 33.2516 10.8868C32.5537 11.7876 31.9603 12.626 31.9332 12.7499C31.8946 12.9251 31.9743 13.1597 32.2932 13.8089C32.5184 14.2676 32.8395 15.0262 33.0067 15.4947C33.374 16.5242 33.42 16.614 33.6391 16.7312C33.7335 16.7818 34.7072 16.9384 35.8027 17.0794C37.9068 17.3501 38.079 17.4015 38.2963 17.8242C38.433 18.0901 38.433 21.9251 38.2963 22.191C38.0791 22.6137 37.9065 22.6652 35.7991 22.9378C34.7018 23.0797 33.7282 23.2364 33.6356 23.2858C33.42 23.4012 33.3734 23.4929 33.0032 24.5301C32.8341 25.004 32.5114 25.7681 32.2861 26.2281C31.9228 26.9698 31.8851 27.0927 31.9528 27.3132C31.9948 27.4499 32.5897 28.2816 33.2748 29.1614C34.9538 31.3172 34.9811 30.971 32.9743 32.977C30.9678 34.9827 31.324 34.9571 29.1243 33.2542C28.2232 32.5565 27.3844 31.9634 27.2605 31.9362C27.0852 31.8977 26.8505 31.9774 26.201 32.2961C25.7422 32.5212 24.9782 32.8436 24.5033 33.0125C24.0285 33.1814 23.5621 33.37 23.467 33.4317C23.225 33.5887 23.1595 33.8826 22.9025 35.9612C22.6631 37.8972 22.607 38.0798 22.1843 38.2969C21.9182 38.4336 18.0818 38.4336 17.8157 38.2969C17.3906 38.0785 17.3403 37.9089 17.0691 35.7806C16.8687 34.2079 16.7803 33.7245 16.6645 33.5695C16.558 33.4268 16.2518 33.278 15.5739 33.0392C15.0556 32.8566 14.255 32.5229 13.7948 32.2976C13.1382 31.9763 12.909 31.899 12.7298 31.9383C12.6041 31.966 11.8204 32.5179 10.9882 33.1649C10.156 33.8121 9.37315 34.3941 9.24861 34.4585C8.79217 34.6945 8.63937 34.5922 7.00509 32.9569C5.02301 30.9736 5.04658 31.3251 6.74841 29.1284C7.44634 28.2276 8.03883 27.3928 8.06513 27.2734C8.10129 27.1088 8.01519 26.8553 7.70935 26.2262C7.48744 25.7696 7.16571 25.0024 6.99444 24.5212C6.82317 24.0399 6.63249 23.5684 6.5708 23.4733C6.4137 23.2314 6.11977 23.1659 4.04031 22.909C2.10356 22.6697 1.92094 22.6136 1.70372 22.191C1.56697 21.9251 1.56697 18.0901 1.70372 17.8242C1.92094 17.4016 2.10356 17.3455 4.04031 17.1062C6.11977 16.8494 6.4137 16.7838 6.5708 16.5419C6.63249 16.4468 6.82121 15.9806 6.99014 15.506C7.15914 15.0313 7.48368 14.2635 7.71139 13.7997C8.0807 13.0475 8.11703 12.9295 8.04814 12.705C8.00564 12.5666 7.41025 11.7336 6.72517 10.8538C5.04618 8.69802 5.01894 9.04418 7.02567 7.03822C9.03241 5.03225 8.68611 5.05948 10.8427 6.73782C11.7228 7.42265 12.5546 8.01733 12.6911 8.0592C12.9117 8.12688 13.0384 8.08705 13.8278 7.70207C14.3165 7.46373 15.0861 7.14017 15.5382 6.98305C15.9902 6.82593 16.4379 6.64651 16.533 6.58438C16.775 6.42608 16.8406 6.13218 17.0975 4.05399C17.3369 2.11797 17.393 1.93542 17.8157 1.71828C18.0818 1.58158 21.9182 1.58158 22.1843 1.71828ZM19.0487 11.7115C16.1549 12.0764 13.6953 13.8629 12.4459 16.5073C10.9415 19.6914 11.6445 23.5064 14.189 25.9675C16.7033 28.3993 20.3876 29.0345 23.4816 27.5693C25.345 26.687 26.6821 25.3534 27.5541 23.508C29.5829 19.2138 27.5667 14.121 23.1054 12.2708C21.9532 11.793 20.2571 11.5591 19.0487 11.7115ZM21.3326 13.4675C23.0632 13.8342 24.5582 14.8488 25.5483 16.3285C26.3087 17.4649 26.6547 18.6285 26.6523 20.0416C26.6484 22.2973 25.5796 24.2753 23.6724 25.557C22.9421 26.0477 21.9723 26.4405 21.1274 26.5875C20.8194 26.6412 20.211 26.6632 19.6554 26.6408C18.5151 26.5948 17.5866 26.3201 16.5971 25.736C15.8534 25.2969 14.842 24.3271 14.3769 23.607C13.9965 23.018 13.6125 22.0712 13.4574 21.3397C13.3184 20.6843 13.3184 19.3309 13.4574 18.6755C14.0096 16.072 16.0243 14.0454 18.6301 13.4722C19.2536 13.3352 20.696 13.3326 21.3326 13.4675Z" fill="black"/>
</svg>
