<svg width="53" height="50" viewBox="0 0 53 50" fill="none" xmlns="http://www.w3.org/2000/svg">
<path fill-rule="evenodd" clip-rule="evenodd" d="M21.8022 0.0852629C18.3674 0.134771 17.9351 0.159942 17.6857 0.324864C17.2516 0.611883 17.1081 0.916032 16.935 1.91663C16.6436 3.60136 16.0125 4.82265 14.8653 5.92122C14.4662 6.3035 13.8368 6.7756 13.4668 6.97018C11.7275 7.88524 11.5506 8.32914 11.9642 10.742C13.3139 18.6139 17.2442 25.0003 23.102 28.8395C24.5895 29.8146 26.1781 30.6153 26.6248 30.6153C27.2462 30.6153 29.7276 29.2086 31.4414 27.8846C35.5908 24.6792 38.7274 19.8392 40.2835 14.2409C40.9245 11.9345 41.3717 9.02214 41.1941 8.30887C41.0828 7.86184 40.616 7.40551 39.8964 7.04005C37.6794 5.91454 36.4422 4.22929 35.9973 1.72925C35.8338 0.810436 35.5947 0.399961 35.0796 0.153467C34.767 0.00389889 34.1903 -0.0133348 30.1826 0.00692785C27.6842 0.0196704 23.913 0.0548689 21.8022 0.0852629ZM34.4498 1.94233C34.9209 4.77064 36.4743 6.98219 38.8745 8.24213C39.6559 8.65229 39.6773 8.67391 39.6773 9.05003C39.6772 9.66908 39.2975 11.8408 38.9608 13.1471C37.3517 19.3899 34.0576 24.2731 29.285 27.4902C28.7521 27.8494 27.9371 28.3421 27.4738 28.5851L26.6316 29.0268L25.9804 28.6983C19.3335 25.3444 14.6592 18.3834 13.4318 10.0112C13.3518 9.46572 13.3056 8.96898 13.329 8.90735C13.3525 8.84573 13.5903 8.68822 13.8575 8.55735C16.3519 7.33553 18.0403 4.96418 18.4921 2.04813L18.5526 1.65781L22.0963 1.62899C24.0454 1.613 27.6076 1.58888 30.0123 1.5753L34.3845 1.55065L34.4498 1.94233ZM24.466 3.01019L20.0805 3.06513L19.7907 3.39225C19.6313 3.57222 19.4189 3.97172 19.3186 4.28005C18.722 6.11622 17.3319 7.9408 15.6686 9.07081C15.3628 9.27856 15.0564 9.59106 14.9587 9.79473C14.7944 10.1372 14.7991 10.2138 15.0666 11.5181C15.3876 13.0835 15.4875 13.3391 15.8619 13.5507C16.0853 13.6769 16.1871 13.6809 16.4441 13.5736C16.9755 13.3517 17.021 13.0784 16.7291 11.8638C16.5877 11.2756 16.472 10.7176 16.4719 10.6241C16.4719 10.5306 16.7244 10.2575 17.0332 10.0174C18.5416 8.84406 19.961 6.98 20.577 5.36348L20.8746 4.58222L23.9916 4.58086C25.7061 4.58023 28.2259 4.54879 29.5915 4.51119L32.0744 4.44288L32.2651 4.95509C33.0668 7.10889 34.3993 8.7651 36.5656 10.2998C36.5919 10.3185 36.506 10.8628 36.3744 11.5094C36.0951 12.8827 36.1087 13.1018 36.4916 13.389C36.7172 13.5582 36.8332 13.5821 37.0508 13.5039C37.5115 13.3385 37.6862 12.9534 37.9763 11.464C38.2408 10.1061 38.2453 10.029 38.0799 9.67754C37.9682 9.44024 37.6591 9.13943 37.2067 8.82776C36.4152 8.28255 35.2636 7.14784 34.7977 6.454C34.3952 5.85458 33.7342 4.54012 33.5664 4.00515C33.2576 3.02074 32.934 2.90188 30.6419 2.93185C29.6572 2.9447 26.878 2.9799 24.466 3.01019ZM30.9414 9.50145C30.8372 9.56255 29.689 11.2364 28.3899 13.2213L26.0277 16.8301L24.6943 15.5494C23.961 14.845 23.2564 14.2286 23.1288 14.1794C22.6654 14.0012 22.1696 14.3661 22.1696 14.8854C22.1696 15.2993 22.2393 15.3793 24.3351 17.3683C25.6045 18.5731 25.8762 18.7844 26.1559 18.7844C26.3637 18.7844 26.5638 18.698 26.7002 18.5493C27.1932 18.0122 32.1148 10.369 32.1148 10.1405C32.1148 10.0065 32.0004 9.78157 31.8605 9.64057C31.5914 9.36911 31.2541 9.31814 30.9414 9.50145ZM35.3954 15.4552C35.291 15.5165 34.961 16.0908 34.6621 16.7316C32.9831 20.3315 30.6384 23.1139 27.5925 25.1212C27.1279 25.4274 26.6837 25.6778 26.6054 25.6778C26.3852 25.6778 24.59 24.4739 23.7235 23.7452C21.5694 21.9333 19.9206 19.789 18.5843 17.061C18.2185 16.3142 17.841 15.6445 17.7455 15.5726C17.2865 15.2276 16.5744 15.6293 16.5764 16.2321C16.5778 16.6145 17.6843 18.8537 18.4863 20.097C20.2763 22.8721 22.632 25.1759 25.3498 26.8093C26.5425 27.5261 26.7315 27.523 27.9292 26.7663C29.3263 25.8837 30.296 25.1169 31.4741 23.9631C32.7336 22.7297 33.3978 21.9295 34.3419 20.5077C35.1304 19.3203 36.5695 16.4719 36.5695 16.0985C36.5695 15.962 36.455 15.735 36.3151 15.594C36.0459 15.3225 35.7088 15.2716 35.3954 15.4552ZM1.35058 24.7535C0.809294 24.9138 0.45572 25.2125 0.216102 25.7116C0.00145034 26.1586 0 26.2316 0 36.6187C0 43.7532 0.0350155 47.1692 0.110226 47.3699C0.245212 47.7301 0.681145 48.2065 1.05668 48.4043C1.47428 48.6243 8.78713 48.6207 9.20981 48.4003C9.87583 48.0531 10.1994 47.481 10.2809 46.5065L10.3078 46.1847L14.7625 47.8901C17.2125 48.8281 19.5134 49.6897 19.8754 49.8047C21.0085 50.1647 20.2541 50.2504 35.4817 48.0325C37.0771 47.8001 38.636 47.5359 38.946 47.4455C39.6167 47.2496 40.7068 46.7065 41.2831 46.281C41.7241 45.9553 52.038 36.6126 52.338 36.267C53.0355 35.4634 53.2172 33.7987 52.7129 32.8324C52.3668 32.1694 51.796 31.5952 51.1869 31.2973C50.6029 31.0117 49.5885 30.9298 48.9193 31.1143C48.5805 31.2077 46.8155 32.3386 43.1478 34.8125L37.8644 38.3763L36.7768 38.32L35.689 38.2637L35.6135 37.637C35.3616 35.5474 33.8349 33.8951 31.8017 33.5112C31.4896 33.4523 28.7868 33.1909 25.7955 32.9304L20.3567 32.4566L19.4957 32.1028C19.0221 31.9081 17.7516 31.2714 16.6724 30.6876C14.0104 29.2481 13.1469 28.9307 11.2222 28.6839L10.2717 28.562L10.238 27.2423C10.2066 26.0175 10.1844 25.8926 9.92856 25.5032C9.40146 24.7013 9.32894 24.6881 5.28341 24.6664C3.10302 24.6546 1.56938 24.6886 1.35058 24.7535ZM8.57777 26.3254C8.66852 26.4169 8.70208 27.2363 8.70208 29.3591V32.2675L8.95641 32.5238C9.09626 32.6648 9.33143 32.7802 9.47905 32.7802C9.62668 32.7802 9.86184 32.6648 10.0017 32.5238C10.238 32.2857 10.256 32.193 10.256 31.2182C10.256 29.9949 10.1491 30.064 11.6381 30.3257C12.8281 30.5349 13.9793 30.9713 15.3158 31.7199C16.9402 32.6296 18.6007 33.4491 19.4243 33.7474C20.0711 33.9817 20.7537 34.0629 25.7437 34.4993C28.8205 34.7684 31.5786 35.0558 31.8728 35.138C32.999 35.4528 33.9458 36.5975 34.0585 37.7808L34.1055 38.2744L26.8037 38.727C22.7876 38.9759 19.3405 39.1491 19.1432 39.1118C18.946 39.0745 18.5948 38.8801 18.3628 38.6799C17.6664 38.0789 16.8862 38.2824 16.8862 39.0649C16.8862 39.5217 17.6009 40.2021 18.4045 40.51C18.9664 40.7254 19.1216 40.7375 20.5638 40.6776C22.1402 40.6123 26.1763 40.3661 31.9076 39.9859C34.4613 39.8165 35.3615 39.7955 36.6014 39.8761C37.4451 39.9309 38.2143 39.9467 38.3107 39.9112C38.4071 39.8756 40.886 38.2236 43.8193 36.2399C49.0158 32.7259 49.1673 32.6323 49.7243 32.5932C50.195 32.5599 50.3583 32.596 50.649 32.797C51.4096 33.3232 51.6817 34.1636 51.3319 34.9066C51.2082 35.1693 49.5957 36.7005 46.1191 39.8565C43.3505 42.3698 40.8734 44.6042 40.6144 44.822C40.0228 45.3195 39.0849 45.787 38.2788 45.9861C37.9369 46.0705 34.0443 46.6639 29.6285 47.3047C23.6502 48.1721 21.4411 48.456 20.9782 48.4162C20.3892 48.3655 19.1666 47.9197 11.3438 44.9024L10.3078 44.5029L10.256 39.8334L10.2042 35.1639L9.95964 34.9643C9.64854 34.7104 9.30957 34.7104 8.99847 34.9643L8.75388 35.1639L8.70208 41.0483L8.65028 46.9327H5.12801H1.60574L1.57932 36.7082C1.56006 29.2402 1.5844 26.4456 1.66966 26.3419C1.82982 26.1474 8.3856 26.1317 8.57777 26.3254ZM4.09205 40.2175C3.73112 40.3448 3.13855 40.7592 2.86796 41.0739C1.94875 42.1425 2.11575 43.9785 3.21873 44.9303C3.66554 45.3158 4.44904 45.6272 4.97262 45.6272C5.93565 45.6272 7.02714 44.9076 7.47322 43.9785C8.14142 42.5867 7.37595 40.7519 5.91824 40.2511C5.39177 40.0703 4.55367 40.0548 4.09205 40.2175ZM5.5771 41.806C6.34527 42.2064 6.34382 43.376 5.57451 43.8488C5.16572 44.1001 4.86032 44.1153 4.45578 43.9044C4.02461 43.6796 3.83306 43.3477 3.83306 42.8256C3.83306 42.445 3.89201 42.309 4.18529 42.0133C4.5802 41.6152 5.07093 41.542 5.5771 41.806Z" fill="#0073A8"/>
</svg>
