<svg width="20" height="21" viewBox="0 0 20 21" fill="none" xmlns="http://www.w3.org/2000/svg">
<path d="M18.7478 10.3412C18.748 9.8228 18.5316 9.32552 18.1463 8.95876C17.7609 8.59199 17.2382 8.38576 16.6929 8.38542C16.6209 8.38548 16.5489 8.38911 16.4772 8.39629L19.3004 0.476562H7.29979L10.123 8.38926C10.082 8.38926 10.0403 8.38542 9.99795 8.38542C9.50719 8.38519 9.03253 8.55187 8.65972 8.85534C8.28692 9.15881 8.04055 9.57906 7.96514 10.0402C7.88973 10.5013 7.99025 10.9728 8.24853 11.3696C8.50682 11.7664 8.90583 12.0622 9.37349 12.2037C8.93505 12.9197 8.38934 13.5712 7.75352 14.1378C6.92771 14.8887 5.94657 15.4679 4.87252 15.8386C4.27068 15.5678 3.79975 15.0894 3.55532 14.5005C3.31088 13.9116 3.31126 13.2564 3.55638 12.6677C3.61687 12.5329 3.67871 12.3961 3.73719 12.2593C4.1956 12.1574 4.60334 11.9089 4.89227 11.5555C5.18121 11.2021 5.33385 10.7651 5.32469 10.3175C5.31554 9.86996 5.14514 9.43894 4.84196 9.09647C4.53879 8.754 4.1212 8.52082 3.65897 8.43589C3.19674 8.35096 2.71785 8.41943 2.30232 8.62984C1.88679 8.84026 1.55978 9.17989 1.37592 9.59199C1.19207 10.0041 1.1625 10.4637 1.29216 10.894C1.42182 11.3244 1.70286 11.6994 2.08832 11.9564C1.58216 13.0576 0.834687 14.21 0.598749 15.5439C0.319118 17.1456 0.598749 18.8458 2.05471 19.8058C5.44724 22.0428 9.13016 18.4195 13.0114 17.5093C14.4183 17.1795 15.9629 17.2326 17.2031 16.5506C17.6509 16.3081 18.037 15.9749 18.334 15.5746C18.6311 15.1743 18.8318 14.7167 18.9219 14.2343C19.0043 13.7746 18.9887 13.3039 18.876 12.8502C18.7633 12.3964 18.5558 11.9687 18.2659 11.5927C18.5764 11.2424 18.747 10.7993 18.7478 10.3412ZM12.0495 10.3483C12.0495 10.3483 12.0495 10.3438 12.0495 10.3412C12.0496 10.0049 11.9584 9.67414 11.7847 9.38111C11.611 9.08807 11.3607 8.84264 11.058 8.66857L13.3031 4.35302L15.5516 8.71459C15.2697 8.89289 15.0385 9.13471 14.8786 9.41851C14.7188 9.70231 14.6352 10.0193 14.6354 10.3412C14.6354 10.3553 14.6354 10.3693 14.6354 10.3834L12.0481 10.3476L12.0495 10.3483Z" fill="#2E027B"/>
<path d="M19.2505 10.3415C19.2497 9.77486 19.0412 9.22624 18.6609 8.79005C18.2805 8.35386 17.7522 8.05739 17.1667 7.95168L20.0007 0H6.59926L9.43858 7.96702C8.94163 8.07084 8.48861 8.31341 8.1376 8.66364C7.78658 9.01387 7.55357 9.4558 7.46842 9.93278C7.38328 10.4097 7.44988 10.9 7.6597 11.3408C7.86952 11.7815 8.21298 12.1526 8.64607 12.4066C8.28933 12.9104 7.87448 13.3748 7.40925 13.791C6.68892 14.4464 5.84241 14.9635 4.9161 15.3141C4.48133 15.0742 4.15176 14.6936 3.98751 14.2419C3.82327 13.7902 3.8353 13.2973 4.02142 12.8533L4.05234 12.783L4.11082 12.652C4.63676 12.4789 5.08905 12.1476 5.39916 11.7081C5.70928 11.2687 5.86031 10.7451 5.82939 10.2168C5.79847 9.68837 5.58728 9.18397 5.22781 8.77996C4.86835 8.37595 4.38019 8.09435 3.8373 7.97782C3.29441 7.86129 2.72636 7.91618 2.21923 8.13418C1.71209 8.35217 1.29349 8.72139 1.02685 9.18591C0.760209 9.65042 0.660054 10.1849 0.741558 10.7084C0.823063 11.2319 1.08179 11.7159 1.47853 12.087C1.39316 12.2602 1.30309 12.436 1.20966 12.6162C0.698294 13.5107 0.326491 14.4712 0.105922 15.4675C-0.26042 17.5696 0.330433 19.2506 1.77093 20.1972C2.54551 20.723 3.47438 21.0038 4.42607 21C6.10654 21 7.8092 20.1965 9.47353 19.4104C10.6371 18.8089 11.8647 18.3268 13.1356 17.9723C13.5914 17.8656 14.0599 17.801 14.5559 17.7333C15.5666 17.6565 16.5522 17.3947 17.4585 16.9624C17.9693 16.6851 18.4099 16.3044 18.7489 15.8472C19.088 15.3901 19.3173 14.8677 19.4206 14.317C19.5882 13.3807 19.3946 12.4184 18.8754 11.607C19.1211 11.226 19.2509 10.7877 19.2505 10.3408V10.3415ZM18.2463 10.3415C18.2463 10.6337 18.1551 10.9194 17.9843 11.1624C17.8136 11.4055 17.5709 11.5949 17.2869 11.7067C17.0029 11.8186 16.6904 11.8478 16.389 11.7908C16.0875 11.7338 15.8106 11.593 15.5932 11.3864C15.3759 11.1797 15.2279 10.9164 15.1679 10.6298C15.108 10.3431 15.1387 10.046 15.2564 9.77597C15.374 9.50596 15.5732 9.27517 15.8288 9.11279C16.0843 8.95042 16.3848 8.86375 16.6922 8.86375C17.1042 8.86409 17.4993 9.01989 17.7907 9.29694C18.0821 9.57399 18.2459 9.94966 18.2463 10.3415ZM18.5998 0.954892L16.0959 7.97597C15.9881 8.00043 15.8822 8.0316 15.7787 8.06929L13.309 3.27246L10.8287 8.0418C10.7206 8.00617 10.6101 7.97756 10.4979 7.95616L7.99875 0.954892H18.5998ZM9.99582 8.86375C10.3032 8.86375 10.6037 8.95042 10.8592 9.11279C11.1148 9.27517 11.314 9.50596 11.4316 9.77597C11.5493 10.046 11.58 10.3431 11.5201 10.6298C11.4601 10.9164 11.3121 11.1797 11.0947 11.3864C10.8774 11.593 10.6005 11.7338 10.299 11.7908C9.99755 11.8478 9.68507 11.8186 9.4011 11.7067C9.11712 11.5949 8.87441 11.4055 8.70364 11.1624C8.53287 10.9194 8.44173 10.6337 8.44173 10.3415C8.44208 9.94966 8.60593 9.57399 8.8973 9.29694C9.18868 9.01989 9.58376 8.86409 9.99582 8.86375ZM3.27394 8.87781C3.58126 8.87832 3.88152 8.96545 4.13676 9.12819C4.39201 9.29092 4.59078 9.52196 4.70795 9.7921C4.82513 10.0622 4.85544 10.3593 4.79506 10.6459C4.73469 10.9324 4.58633 11.1954 4.36874 11.4018C4.15116 11.6081 3.87411 11.7485 3.57263 11.8052C3.27115 11.8619 2.95877 11.8323 2.67498 11.7202C2.39118 11.608 2.14872 11.4184 1.97823 11.1753C1.80774 10.9322 1.71689 10.6465 1.71716 10.3543C1.71787 9.96267 1.88188 9.58733 2.17321 9.31055C2.46454 9.03377 2.85943 8.87815 3.27126 8.87781H3.27394ZM18.4311 14.154C18.3529 14.5678 18.1799 14.9602 17.9243 15.3033C17.6687 15.6463 17.3369 15.9317 16.9523 16.1392C16.1555 16.5071 15.2927 16.7283 14.4094 16.7911C13.9106 16.8595 13.3958 16.9305 12.8916 17.0468C11.5487 17.4162 10.2516 17.9226 9.02317 18.5571C6.52733 19.7357 4.37163 20.7539 2.3396 19.4142C0.854068 18.435 0.923303 16.6179 1.09673 15.6247C1.30223 14.719 1.64433 13.8462 2.1124 13.0336C2.185 12.8917 2.25558 12.7524 2.32482 12.6143C2.53681 12.695 2.7593 12.7481 2.98625 12.7722C2.78546 13.4465 2.8416 14.1666 3.14475 14.8055C3.4479 15.4443 3.97859 15.9608 4.64319 16.2638L4.83611 16.3584L5.03777 16.2894C6.17777 15.8975 7.21906 15.2833 8.09488 14.4864C8.67497 13.9689 9.18465 13.3845 9.61201 12.7466C10.1573 12.8267 10.7153 12.7368 11.2024 12.4903C11.6895 12.2437 12.0795 11.8538 12.3141 11.3789C12.5487 10.904 12.6153 10.3696 12.5038 9.85571C12.3923 9.34183 12.1089 8.8761 11.6958 8.5282L13.3016 5.43279L14.9257 8.58317C14.4563 9.00471 14.1723 9.5796 14.1306 10.1922C14.089 10.8048 14.2929 11.4097 14.7013 11.8851C15.1097 12.3606 15.6923 12.6714 16.3319 12.755C16.9715 12.8385 17.6207 12.6887 18.1488 12.3356C18.4418 12.8977 18.5399 13.5337 18.4291 14.1521L18.4311 14.154Z" fill="#ECE2FF"/>
</svg>
