<svg width="46" height="46" viewBox="0 0 46 46" fill="none" xmlns="http://www.w3.org/2000/svg">
<path fill-rule="evenodd" clip-rule="evenodd" d="M0.890982 0.1125C-0.0106224 0.516937 -0.291036 1.7315 0.343302 2.48476C0.752503 2.9706 1.0666 3.0498 2.58479 3.0498C3.77554 3.0498 3.98244 3.07348 4.25393 3.24118C4.58665 3.44657 4.99479 3.98006 5.16398 4.43043C5.22137 4.58327 6.49772 10.2352 8.00037 16.9901L10.7323 29.272V31.0028C10.7323 33.4251 10.9827 34.2596 12.0429 35.3701C13.0838 36.4605 14.0818 36.7978 16.2946 36.8072C17.7758 36.8134 17.7824 36.8144 17.2688 36.9524C14.8428 37.6042 13.3302 40.124 13.9464 42.4874C14.5923 44.9651 17.1011 46.4856 19.5092 45.8589C21.9669 45.2192 23.4944 42.7034 22.8729 40.3191C22.4449 38.6776 21.1726 37.3882 19.5505 36.9524C19.0894 36.8285 20.0458 36.8135 28.3902 36.8135C36.7345 36.8135 37.6909 36.8285 37.2298 36.9524C34.8038 37.6042 33.2913 40.124 33.9075 42.4874C34.5533 44.9651 37.0621 46.4856 39.4703 45.8589C41.928 45.2192 43.4554 42.7034 42.8339 40.3191C42.6212 39.5033 42.2507 38.8434 41.6545 38.2191C41.0811 37.6184 40.0784 37.0437 39.3867 36.9193C39.161 36.8787 40.2856 36.8285 42.0346 36.8008C44.9152 36.7554 45.0886 36.7425 45.3395 36.5552C45.843 36.1793 46 35.873 46 35.2667C46 34.6603 45.8429 34.3539 45.3393 33.9782C45.0749 33.781 45.0389 33.7804 29.9256 33.7326C14.8124 33.6847 14.7764 33.6841 14.512 33.4869C13.9372 33.0582 13.8538 32.8448 13.8188 31.7123L13.7863 30.6643L25.5747 30.6628C38.6581 30.6613 37.9706 30.6936 39.2725 30.0191C40.1972 29.54 41.3016 28.441 41.7225 27.581C41.9601 27.0956 42.5195 25.0057 44.058 18.8555C46.2537 10.0789 46.203 10.362 45.6888 9.75139C45.1803 9.14761 46.4549 9.18635 27.0977 9.18635C17.3578 9.18635 9.38881 9.16459 9.38881 9.13793C9.38881 9.01271 8.40007 4.64348 8.22896 4.01295C7.7807 2.3603 6.74292 1.03337 5.39651 0.391042L4.63847 0.0294648L2.91108 0.00530209C1.61227 -0.0128199 1.11103 0.0137399 0.890982 0.1125ZM42.4972 12.3516C42.4972 12.6513 39.1028 25.9476 38.9497 26.2472C38.7489 26.6406 38.2564 27.1127 37.7696 27.3784C37.4772 27.5381 36.7555 27.5481 25.4728 27.5481H13.4866L11.7909 19.9013L10.0953 12.2546H26.2963C37.1494 12.2546 42.4972 12.2867 42.4972 12.3516ZM19.017 39.9999C20.003 40.4115 20.2434 41.7031 19.4766 42.4693C18.8541 43.0912 17.9652 43.0912 17.3427 42.4693C16.156 41.2835 17.4654 39.3522 19.017 39.9999ZM38.978 39.9999C39.964 40.4115 40.2044 41.7031 39.4376 42.4693C38.3594 43.5465 36.5926 42.5817 36.8763 41.0704C37.0459 40.1678 38.0973 39.6322 38.978 39.9999Z" fill="#C300C7"/>
</svg>
