<svg width="52" height="52" viewBox="0 0 52 52" fill="none" xmlns="http://www.w3.org/2000/svg">
<path fill-rule="evenodd" clip-rule="evenodd" d="M42.6167 0.0995274C36.1837 0.573989 30.1467 2.51157 25.3581 5.6388C22.6024 7.43838 19.3632 10.306 16.8592 13.1628L16.3051 13.795L12.3431 14.1035C8.32596 14.4163 7.87612 14.48 7.17739 14.8358C6.34761 15.2582 5.87573 15.8604 3.1769 19.9414C1.70122 22.173 0.395183 24.1851 0.274698 24.4127C0.10738 24.7287 0.0549598 25.0071 0.0531312 25.5888C0.051201 26.2452 0.0924463 26.4261 0.350382 26.892C0.697208 27.5182 1.2274 27.9749 1.84872 28.1825C2.08908 28.2628 3.65722 28.5375 5.33344 28.793C7.00967 29.0486 8.45417 29.279 8.54336 29.3051C8.67675 29.3441 8.70448 29.5108 8.69879 30.2399C8.69036 31.3311 8.8908 31.9705 9.49454 32.7782C9.7347 33.0997 12.0283 35.4482 14.5913 37.997C19.5856 42.9637 19.6661 43.0308 20.9274 43.2739C21.2347 43.333 21.747 43.3523 22.066 43.3166C22.6149 43.2551 22.6487 43.2643 22.7012 43.4898C22.7315 43.6208 22.9633 45.0769 23.216 46.7257C23.4687 48.3745 23.7409 49.9202 23.8209 50.1606C24.0275 50.7817 24.4842 51.3123 25.1105 51.6594C25.5762 51.9174 25.7571 51.9587 26.4132 51.9568C26.9973 51.9549 27.2729 51.9027 27.5936 51.7328C27.8238 51.611 29.8353 50.305 32.0635 48.8307C36.142 46.1325 36.7389 45.6643 37.1631 44.8304C37.5211 44.1268 37.5854 43.6731 37.8957 39.6631L38.2023 35.7L38.8349 35.1459C39.1828 34.8411 40.1227 33.9494 40.9234 33.1643C46.148 28.0422 49.1492 22.8929 50.7934 16.2303C51.5455 13.1824 51.8871 10.5345 51.9786 7.04329C52.0731 3.43915 51.8818 2.46726 50.8544 1.33034C50.2585 0.670934 49.3778 0.222893 48.4073 0.0855039C47.5603 -0.0345087 44.3272 -0.026684 42.6167 0.0995274ZM48.4266 3.22778C48.8883 3.53416 48.9158 3.72043 48.9068 6.47554C48.8949 10.1582 48.5283 12.9885 47.6358 16.2907C46.1168 21.9107 43.5309 26.2552 39.0141 30.776C36.2403 33.5524 33.3648 35.6992 30.0933 37.4363L29.3542 37.8287L21.7714 30.2436L14.1886 22.6585L14.5751 21.9135C16.2003 18.7809 18.4506 15.7604 21.2276 12.9843C22.8541 11.3583 23.9631 10.3952 25.645 9.14823C29.9542 5.95362 35.2954 3.96757 41.3977 3.29058C43.382 3.07047 43.6644 3.05716 46.0708 3.06936C47.7526 3.07789 48.2512 3.11143 48.4266 3.22778ZM34.642 8.8196C30.8907 9.3092 28.0336 12.5607 28.0404 16.3323C28.0446 18.585 28.8644 20.4671 30.5027 21.9844C31.382 22.7987 32.8515 23.5529 34.0728 23.8167C35.1322 24.0455 36.8299 23.9746 37.842 23.6592C40.3429 22.88 42.2647 20.884 42.9857 18.3173C43.2682 17.3114 43.2932 15.6271 43.041 14.5906C42.2991 11.5417 39.7656 9.2653 36.6287 8.82884C35.7771 8.71035 35.4889 8.70903 34.642 8.8196ZM36.4265 11.8783C38.8129 12.313 40.5517 14.7357 40.1431 17.0564C39.7206 19.4554 37.7202 21.0401 35.3045 20.8892C33.0299 20.7473 31.2236 18.9341 31.1049 16.6735C30.9822 14.335 32.4314 12.4095 34.6828 11.9196C35.4685 11.7486 35.6857 11.7435 36.4265 11.8783ZM13.3147 17.9928C11.7455 20.494 10.4725 23.2091 9.69376 25.7159C9.54899 26.1821 9.46986 26.2997 9.30223 26.2978C9.03302 26.2948 3.34442 25.4114 3.29851 25.3655C3.23064 25.2976 8.23108 17.8112 8.46625 17.6287C8.66192 17.4768 9.11612 17.4089 10.931 17.2605C12.1547 17.1605 13.3243 17.0728 13.5302 17.0657L13.9044 17.0528L13.3147 17.9928ZM19.6449 32.3847L26.3367 39.0791L25.3845 39.3944C24.1064 39.8175 22.3098 40.2406 21.716 40.2584L21.2329 40.2729L16.4833 35.5216L11.7336 30.7705L11.7534 30.2374C11.7754 29.6481 12.3683 27.1891 12.7089 26.2748C12.8287 25.9535 12.9326 25.6905 12.9399 25.6905C12.9473 25.6905 15.9645 28.7029 19.6449 32.3847ZM5.99377 34.9484C5.85409 35.0031 4.49309 36.292 2.96936 37.8127C-0.0404326 40.8165 -0.119571 40.9247 0.0990496 41.7371C0.229084 42.2198 0.773501 42.7269 1.25971 42.8181C2.03677 42.9639 2.12555 42.8982 5.01476 40.0325C6.51848 38.5413 7.80704 37.1791 7.88466 36.9989C8.42684 35.7404 7.24515 34.459 5.99377 34.9484ZM34.7537 40.7546C34.645 42.1296 34.5051 43.3499 34.4429 43.4664C34.3353 43.6674 26.7115 48.7854 26.6344 48.7084C26.5872 48.6611 25.7055 42.9802 25.7037 42.7117C25.7026 42.5421 25.9101 42.4382 26.9586 42.0832C29.2224 41.3168 31.8139 40.0721 33.9526 38.7239C34.4714 38.3969 34.9084 38.1574 34.9237 38.1919C34.9389 38.2263 34.8625 39.3796 34.7537 40.7546ZM10.4129 39.5667C9.97272 39.7925 0.430231 49.3466 0.196372 49.7956C0.0883828 50.003 0 50.3135 0 50.4856C0 50.9898 0.359322 51.5753 0.810074 51.8053C1.31314 52.062 1.73108 52.0647 2.21363 51.8143C2.42087 51.7067 4.81564 49.386 7.53529 46.6571C12.8687 41.3056 12.7226 41.4822 12.5549 40.588C12.3803 39.6571 11.2693 39.1274 10.4129 39.5667ZM14.8828 44.1737C14.7152 44.2788 13.3821 45.5705 11.9203 47.0442C9.66826 49.3144 9.25185 49.7805 9.19292 50.0966C8.98172 51.2305 9.97516 52.2044 11.0478 51.915C11.5935 51.7677 17.0109 46.3352 17.1172 45.8286C17.2641 45.1289 16.9554 44.4444 16.3519 44.1324C15.9483 43.9235 15.2506 43.9432 14.8828 44.1737Z" fill="#D01B28"/>
</svg>
