<svg width="34" height="34" viewBox="0 0 34 34" fill="none" xmlns="http://www.w3.org/2000/svg">
<path fill-rule="evenodd" clip-rule="evenodd" d="M27.8648 0.0650756C23.6586 0.3753 19.7113 1.64218 16.5803 3.68691C14.7785 4.86356 12.6606 6.73853 11.0233 8.60645L10.661 9.0198L8.07049 9.22152C5.4439 9.42603 5.14977 9.46769 4.69291 9.70031C4.15036 9.97652 3.84182 10.3703 2.07721 13.0386C1.11233 14.4977 0.258389 15.8133 0.17961 15.9621C0.07021 16.1688 0.0359353 16.3508 0.0347397 16.7312C0.0334776 17.1603 0.0604457 17.2786 0.229096 17.5832C0.455867 17.9927 0.802533 18.2913 1.20878 18.427C1.36594 18.4795 2.39126 18.6592 3.48725 18.8262C4.58324 18.9933 5.52772 19.1439 5.58604 19.161C5.67326 19.1865 5.69139 19.2956 5.68767 19.7722C5.68216 20.4857 5.81321 20.9038 6.20797 21.4319C6.365 21.6421 7.86465 23.1776 9.54045 24.8442C12.806 28.0917 12.8586 28.1355 13.6833 28.2945C13.8842 28.3331 14.2192 28.3458 14.4278 28.3224C14.7867 28.2822 14.8088 28.2882 14.8431 28.4357C14.8629 28.5213 15.0144 29.4734 15.1797 30.5514C15.3449 31.6295 15.5229 32.6401 15.5752 32.7973C15.7103 33.2034 16.0089 33.5503 16.4184 33.7773C16.7229 33.946 16.8412 33.973 17.2702 33.9717C17.6521 33.9705 17.8323 33.9364 18.042 33.8253C18.1925 33.7456 19.5077 32.8918 20.9646 31.9278C23.6313 30.1636 24.0216 29.8574 24.299 29.3122C24.533 28.8521 24.5751 28.5555 24.7779 25.9336L24.9784 23.3423L25.392 22.98C25.6195 22.7807 26.2341 22.1977 26.7576 21.6843C30.1737 18.3353 32.136 14.9684 33.211 10.6121C33.7028 8.61928 33.9262 6.88796 33.986 4.60523C34.0478 2.24867 33.9227 1.61321 33.251 0.869839C32.8613 0.438687 32.2855 0.145738 31.6509 0.0559064C31.0971 -0.0225634 28.9832 -0.0174472 27.8648 0.0650756ZM31.6636 2.11047C31.9654 2.3108 31.9834 2.43259 31.9776 4.23401C31.9697 6.64192 31.7301 8.4925 31.1465 10.6516C30.1533 14.3262 28.4625 17.1668 25.5092 20.1228C23.6956 21.9381 21.8154 23.3418 19.6764 24.4775L19.1932 24.7342L14.2352 19.7747L9.27715 14.8152L9.52989 14.328C10.5925 12.2799 12.0638 10.3049 13.8796 8.48971C14.943 7.42655 15.6682 6.79686 16.7679 5.98154C19.5855 3.89275 23.0778 2.59418 27.0677 2.15153C28.3652 2.00762 28.5498 1.99891 30.1232 2.00689C31.2228 2.01247 31.5489 2.03439 31.6636 2.11047ZM22.6505 5.76666C20.1978 6.08678 18.3297 8.21278 18.3341 10.6788C18.3368 12.1517 18.8729 13.3823 19.9441 14.3744C20.519 14.9068 21.4798 15.4 22.2783 15.5725C22.9711 15.7221 24.0811 15.6757 24.7429 15.4695C26.378 14.96 27.6346 13.6549 28.106 11.9767C28.2908 11.319 28.3071 10.2177 28.1422 9.53999C27.6571 7.54648 26.0006 6.05808 23.9495 5.77271C23.3927 5.69523 23.2043 5.69437 22.6505 5.76666ZM23.8173 7.76661C25.3777 8.05079 26.5146 9.63487 26.2474 11.1522C25.9712 12.7208 24.6632 13.757 23.0837 13.6584C21.5964 13.5655 20.4154 12.38 20.3378 10.9019C20.2576 9.37288 21.2051 8.11391 22.6772 7.79358C23.1909 7.68176 23.333 7.67844 23.8173 7.76661ZM8.70577 11.7645C7.67972 13.4 6.84743 15.1752 6.33823 16.8142C6.24357 17.1191 6.19183 17.1959 6.08223 17.1947C5.90621 17.1927 2.18674 16.6152 2.15672 16.5851C2.11234 16.5407 5.38186 11.6458 5.53563 11.5264C5.66356 11.4271 5.96054 11.3827 7.1472 11.2857C7.94728 11.2203 8.71202 11.163 8.84666 11.1583L9.09136 11.1499L8.70577 11.7645ZM12.8448 21.1746L17.2202 25.5517L16.5976 25.7578C15.7619 26.0345 14.5872 26.3112 14.199 26.3228L13.883 26.3323L10.7775 23.2257L7.67195 20.1192L7.6849 19.7706C7.69932 19.3853 8.08697 17.7775 8.30969 17.1797C8.388 16.9696 8.45595 16.7976 8.46073 16.7976C8.46552 16.7976 10.4383 18.7673 12.8448 21.1746ZM3.91901 22.8509C3.82767 22.8866 2.93779 23.7294 1.9415 24.7237C-0.0264367 26.6877 -0.0781808 26.7585 0.0647632 27.2896C0.149786 27.6052 0.505751 27.9368 0.823655 27.9965C1.33173 28.0918 1.38979 28.0488 3.27888 26.1751C4.26208 25.2001 5.1046 24.3094 5.15535 24.1916C5.50986 23.3687 4.73721 22.5309 3.91901 22.8509ZM22.7236 26.6473C22.6525 27.5463 22.5611 28.3442 22.5203 28.4203C22.45 28.5517 17.4652 31.8982 17.4148 31.8478C17.3839 31.8169 16.8074 28.1024 16.8063 27.9269C16.8056 27.816 16.9412 27.748 17.6268 27.5159C19.1069 27.0148 20.8014 26.201 22.1998 25.3195C22.539 25.1056 22.8248 24.9491 22.8347 24.9716C22.8447 24.9941 22.7947 25.7482 22.7236 26.6473ZM6.80844 25.8705C6.52063 26.0182 0.281305 32.2651 0.128397 32.5587C0.0577887 32.6943 0 32.8973 0 33.0098C0 33.3395 0.234941 33.7223 0.529664 33.8727C0.858594 34.0406 1.13186 34.0423 1.44738 33.8786C1.58288 33.8082 3.14869 32.2908 4.92692 30.5066C8.41417 27.0075 8.31865 27.123 8.20899 26.5383C8.0948 25.9297 7.36839 25.5833 6.80844 25.8705ZM9.73109 28.8828C9.62149 28.9515 8.74981 29.7961 7.79404 30.7596C6.32155 32.244 6.04928 32.5488 6.01076 32.7555C5.87266 33.4969 6.52222 34.1337 7.22359 33.9444C7.58035 33.8481 11.1225 30.2961 11.192 29.9649C11.2881 29.5074 11.0862 29.0598 10.6916 28.8558C10.4277 28.7192 9.97154 28.7321 9.73109 28.8828Z" fill="#2B3AC0"/>
</svg>
