<svg width="56" height="56" viewBox="0 0 56 56" fill="none" xmlns="http://www.w3.org/2000/svg">
<path fill-rule="evenodd" clip-rule="evenodd" d="M43.0659 0.334904C42.4207 0.638136 41.8718 1.15057 37.2549 5.75944L32.1565 10.8492H20.457H8.75757V6.90913C8.75757 2.67123 8.73937 2.52043 8.19362 2.23824C7.50449 1.88197 5.75587 2.18432 4.26351 2.91769C3.39922 3.34246 3.06184 3.58969 2.27922 4.37215C1.49714 5.15418 1.24898 5.49248 0.824018 6.35604C-0.0706282 8.17433 -0.0185629 6.8368 0.0143204 27.1231C0.0422713 44.3326 0.0521363 45.1189 0.247244 45.6436C0.743345 46.9774 1.81085 48.1528 3.12333 48.8104C4.3752 49.4377 3.97753 49.421 17.7447 49.4228L30.4039 49.4244L28.0325 51.808C26.7281 53.119 25.6063 54.2992 25.5397 54.4309C25.3832 54.74 25.3861 55.0418 25.5495 55.4001C25.8373 56.0317 25.025 55.9997 40.764 55.9997C56.1866 55.9997 55.7351 56.0145 55.9319 55.5016C55.9693 55.4041 56 48.6954 56 40.5935C56 26.0723 55.9969 25.8598 55.7835 25.6464C55.5127 25.3756 55.1033 25.2686 54.7131 25.3665C54.5371 25.4107 53.8556 25.9925 53.0689 26.77L51.7252 28.0982V19.9172C51.7252 13.8079 51.692 11.6634 51.5942 11.4488C51.3355 10.8812 51.1283 10.8492 47.7063 10.8492H44.5534L46.543 8.84918C48.2654 7.11779 48.5814 6.74617 48.8958 6.08207C49.2276 5.38114 49.2589 5.22508 49.2589 4.27385C49.2589 3.33237 49.2257 3.16273 48.912 2.50071C48.4424 1.50969 47.8092 0.852053 46.8746 0.384547C46.14 0.0170964 46.0533 -0.000109079 44.942 5.10103e-07C43.8729 0.000110099 43.7204 0.0272881 43.0659 0.334904ZM46.1333 2.45161C46.923 2.97402 47.2743 3.95714 47.0152 4.91922C46.9158 5.2882 46.6683 5.62179 45.9352 6.37478L44.9841 7.35176L43.4169 5.77872L41.8495 4.20569L42.8317 3.25917C43.4115 2.70027 43.9637 2.26673 44.1797 2.20076C44.7597 2.02378 45.6618 2.1395 46.1333 2.45161ZM6.56534 21.4101V38.4368L5.44183 38.4908C4.22876 38.5491 3.33817 38.7988 2.59917 39.2878L2.1809 39.5645V24.3531C2.1809 11.055 2.20194 9.0597 2.3486 8.48863C2.82114 6.64919 4.02565 5.29982 5.79807 4.62454C6.12964 4.49818 6.43787 4.39232 6.48314 4.38914C6.52841 4.38596 6.56534 12.0454 6.56534 21.4101ZM42.6274 9.69663L41.8597 10.4642L40.2997 8.90452L38.7396 7.34486L39.5031 6.57565L40.2665 5.80656L41.8308 7.36776L43.3951 8.92896L42.6274 9.69663ZM32.572 19.7518L24.8173 27.5056L23.2539 25.9454L21.6906 24.3851L29.4453 16.6314L37.2 8.87767L38.7634 10.4379L40.3267 11.9981L32.572 19.7518ZM24.5331 18.493L19.104 23.945L17.1643 28.2624C15.789 31.3237 15.2246 32.6967 15.2246 32.9816C15.2246 33.5163 15.6798 33.9715 16.2172 33.9744C16.4731 33.9757 17.9896 33.3518 20.9244 32.0377L25.2541 30.0992L33.8054 21.57L42.3566 13.0409H45.9448H49.5329V21.6713V30.3017L41.0636 38.7689L32.5942 47.2359L18.6755 47.2069L4.75676 47.1778L4.13165 46.871C3.29049 46.458 2.56201 45.6381 2.33139 44.8448C1.87837 43.2867 2.64926 41.6319 4.14831 40.9451C4.56571 40.7539 4.90649 40.7109 6.23651 40.682C7.11066 40.6629 7.96387 40.5933 8.13245 40.5273C8.79111 40.2694 8.75757 41.0256 8.75757 26.4163V13.0409H19.3599H29.9623L24.5331 18.493ZM11.5099 15.3857C10.9969 15.6699 10.9578 15.8891 10.9536 18.4985C10.9495 21.1565 11.0001 21.4268 11.5496 21.6771C11.9131 21.8427 12.1788 21.8427 12.5422 21.6771C13.0613 21.4407 13.142 21.1051 13.142 19.1834V17.4245H13.7945C14.5785 17.4245 14.9687 17.2655 15.178 16.8607C15.4715 16.2933 15.268 15.6068 14.7344 15.3637C14.3287 15.1788 11.8528 15.1957 11.5099 15.3857ZM42.201 15.3857C41.6824 15.6731 41.5095 16.3045 41.7971 16.8607C42.0238 17.299 42.4049 17.4245 43.5095 17.4245H44.4908V19.1834C44.4908 21.1051 44.5715 21.4407 45.0906 21.6771C45.4541 21.8427 45.7198 21.8427 46.0833 21.6771C46.631 21.4276 46.683 21.1537 46.683 18.5204C46.683 15.8871 46.631 15.6132 46.0833 15.3637C45.6696 15.1752 42.549 15.1929 42.201 15.3857ZM22.8135 28.7282C22.7004 28.8381 18.5901 30.6888 18.5495 30.6481C18.52 30.6187 18.8077 29.9646 20.1462 27.0187L20.4924 26.2566L21.6931 27.4533C22.3535 28.1115 22.8576 28.6852 22.8135 28.7282ZM53.9174 41.4792V53.808H41.5589H29.2004L41.5313 41.4792C48.3133 34.6984 53.8746 29.1505 53.8898 29.1505C53.905 29.1505 53.9174 34.6984 53.9174 41.4792ZM22.471 32.9199C21.5208 33.4465 21.9184 34.9587 23.007 34.9587C23.5624 34.9587 24.1031 34.4234 24.1031 33.8734C24.1031 33.0506 23.1937 32.5194 22.471 32.9199ZM26.8555 32.9199C26.1209 33.3269 26.145 34.486 26.8952 34.8277C27.1075 34.9245 28.8422 34.9587 33.5297 34.9587C38.2172 34.9587 39.9519 34.9245 40.1642 34.8277C40.4784 34.6846 40.764 34.2251 40.764 33.8628C40.764 33.5005 40.4784 33.041 40.1642 32.8979C39.726 32.6982 27.2181 32.7189 26.8555 32.9199ZM11.5099 38.6185C10.9969 38.9027 10.9578 39.1219 10.9536 41.7313C10.9484 45.0655 10.932 45.0409 13.142 45.0409C14.5818 45.0409 14.9373 44.9423 15.178 44.477C15.4715 43.9097 15.268 43.2231 14.7344 42.98C14.5764 42.908 14.1534 42.8491 13.7945 42.8491H13.142V41.1008C13.142 39.9787 13.0951 39.2496 13.011 39.0652C12.7711 38.5385 12.0444 38.3223 11.5099 38.6185ZM43.8619 43.7545L38.6814 48.9339V49.3922C38.6814 49.7187 38.7575 49.939 38.9459 50.158L39.2104 50.4655L44.451 50.4961C50.0971 50.5289 50.1806 50.5215 50.4698 49.9624C50.7117 49.4947 50.706 39.5897 50.4635 39.1209C50.2558 38.7193 49.9905 38.5751 49.4593 38.5751C49.0554 38.5751 48.8802 38.7372 43.8619 43.7545ZM48.4368 45.3148V48.3285H45.3959H42.3549L45.3677 45.3148C47.0247 43.6573 48.3932 42.3011 48.4087 42.3011C48.4241 42.3011 48.4368 43.6573 48.4368 45.3148Z" fill="#9458FF"/>
</svg>
