<svg width="30" height="30" viewBox="0 0 30 30" fill="none" xmlns="http://www.w3.org/2000/svg">
<path fill-rule="evenodd" clip-rule="evenodd" d="M23.7295 0.060416C23.5698 0.105546 22.8689 0.775199 20.5636 3.0853L17.6028 6.05229H10.7648H3.92683L3.9096 3.78173L3.89232 1.51111L3.75396 1.39872C3.47723 1.17384 2.63434 1.29022 1.87549 1.65815C1.33148 1.92192 0.667974 2.58993 0.389493 3.1542C-0.0339149 4.01226 -0.0102393 3.32754 0.00804489 14.2016L0.0245124 23.9689L0.162523 24.3808C0.438367 25.2039 1.10099 25.9817 1.83564 26.3448C2.58939 26.7173 2.27188 26.7032 9.86936 26.7041L16.784 26.705L15.4817 28.0142C14.0448 29.4587 13.9735 29.5655 14.2559 29.849L14.4062 30H22.0593H29.7123L29.8561 29.8556L30 29.7112V22.0555C30 17.267 29.9789 14.3601 29.9436 14.294C29.9126 14.2359 29.8098 14.1561 29.7152 14.1167C29.4683 14.014 29.3194 14.1108 28.5935 14.8457L27.9782 15.4688L27.9489 10.9093L27.9196 6.34972L27.7862 6.21568C27.6541 6.08306 27.635 6.08153 25.8854 6.0637L24.1179 6.0457L25.4159 4.73981C26.257 3.8937 26.7457 3.3569 26.804 3.21516C26.9306 2.90761 26.9185 2.43342 26.7767 2.13916C26.7067 1.99406 26.2979 1.53753 25.7647 1.00915C25.0618 0.312544 24.82 0.108606 24.6367 0.0574741C24.3581 -0.0201942 24.0106 -0.0190763 23.7295 0.060416ZM25.2069 1.68574C26.2305 2.71349 26.224 2.67813 25.5182 3.39797L25.0215 3.90464L24.0092 2.88831L22.9969 1.87191L23.5016 1.37319C24.2185 0.664522 24.1833 0.65805 25.2069 1.68574ZM3.04257 8.96485C3.04257 15.6235 3.04392 15.7033 3.15978 15.8197C3.38282 16.0436 3.74874 15.947 3.85686 15.6356C3.90181 15.5061 3.92162 14.1563 3.92162 11.2214V6.99372H10.2929H16.6643L15.3914 8.27654C14.6913 8.98209 14.1186 9.60308 14.1186 9.65651C14.1186 9.97689 14.4379 10.2274 14.7085 10.1195C14.7869 10.0881 16.2222 8.68371 17.8981 6.99849L20.945 3.93447L21.9565 4.94887L22.9681 5.96326L18.4119 10.5382L13.8556 15.1131L12.8451 14.0998L11.8346 13.0865L12.7715 12.1396C13.7926 11.1075 13.8469 11.0109 13.5645 10.7274C13.2746 10.4362 13.1988 10.4831 11.9621 11.7202L10.8252 12.8575L10.0807 14.9711L9.33631 17.0847L8.49887 17.1141C7.70691 17.142 7.6554 17.1511 7.54962 17.2825C7.40194 17.4659 7.40803 17.6925 7.56521 17.8606L7.69267 17.9967H13.9556H20.2186L20.3624 17.8523C20.535 17.6791 20.5466 17.4713 20.3943 17.2825L20.2823 17.1435L15.8437 17.1141L11.4052 17.0847L12.7179 16.623L14.0307 16.1613L18.6018 11.5775L23.173 6.99372H25.1214H27.0698V11.6855V16.3772L23.8467 19.6153C21.0632 22.4118 20.6235 22.8769 20.6235 23.025C20.6235 23.257 20.831 23.4688 21.0585 23.4688C21.2186 23.4688 21.674 23.0316 25.1797 19.512L29.121 15.5552V17.5054V19.4557L28.6289 19.4764C28.052 19.5007 27.8903 19.5975 27.8903 19.9181C27.8903 20.2592 28.0446 20.3503 28.6228 20.3503H29.121V21.027V21.7036H28.6412C28.0777 21.7036 27.8903 21.8152 27.8903 22.1509C27.8903 22.4666 28.1018 22.5862 28.66 22.5862H29.121V23.2629V23.9395H28.6228C28.0446 23.9395 27.8903 24.0306 27.8903 24.3717C27.8903 24.6924 28.052 24.7891 28.6289 24.8135L29.121 24.8342V25.4694V26.1045L28.6289 26.1252C28.052 26.1496 27.8903 26.2463 27.8903 26.567C27.8903 26.9081 28.0446 26.9992 28.6228 26.9992H29.121V28.0583V29.1174H22.3679H15.6149L17.9141 26.8062C19.2235 25.4901 20.2133 24.4498 20.2133 24.3899C20.2133 24.2656 20.1052 24.0457 20.014 23.9845C19.9786 23.9608 19.8591 23.9409 19.7485 23.9404C19.5667 23.9396 19.4567 24.03 18.6035 24.881L17.6596 25.8224H10.3634C2.50647 25.8224 2.75565 25.8315 2.15151 25.522C1.80646 25.3453 1.33406 24.8484 1.14852 24.467C0.72394 23.5944 0.849761 22.6412 1.49486 21.8428C1.88352 21.3618 2.72887 20.9387 3.30119 20.9387C3.49393 20.9387 3.60704 20.901 3.72788 20.7967L3.89232 20.6547V18.886C3.89232 17.1436 3.89038 17.1155 3.76374 16.9883C3.60581 16.8298 3.32223 16.8194 3.16054 16.9663C3.04826 17.0684 3.04257 17.1451 3.04257 18.5625V20.0516L2.79351 20.116C2.07914 20.3008 1.67114 20.5046 1.18192 20.9212L0.874257 21.1832V12.893C0.874257 7.16388 0.894007 4.4958 0.938076 4.25615C1.0547 3.62274 1.46146 2.98292 1.97137 2.63065C2.27434 2.42135 2.7127 2.2346 2.91072 2.23048L3.04257 2.22771V8.96485ZM23.4067 3.52171L24.4012 4.52152L23.9932 4.93434L23.5851 5.34715L22.5736 4.33276L21.562 3.31836L21.9556 2.92014C22.172 2.70114 22.3633 2.52191 22.3807 2.52191C22.398 2.52191 22.8597 2.9718 23.4067 3.52171ZM12.9302 15.5957C12.8908 15.6207 12.6115 15.7243 12.3095 15.8259L11.7605 16.0105L11.3478 15.5962L10.9351 15.1819L11.158 14.5538L11.3809 13.9257L12.1913 14.7378C12.7396 15.2872 12.9786 15.5648 12.9302 15.5957ZM23.657 23.6902C21.2665 26.0903 21.1509 26.2163 21.1509 26.422C21.1509 26.5848 21.1887 26.6674 21.3054 26.7595C21.456 26.8786 21.5195 26.8815 23.9397 26.8815C25.702 26.8815 26.4631 26.8617 26.5695 26.813C26.6643 26.7696 26.7419 26.6669 26.7807 26.5335C26.8205 26.3967 26.8358 25.4568 26.8241 23.8607L26.8061 21.3989L26.6678 21.2865C26.5917 21.2247 26.447 21.1741 26.3462 21.1741C26.1829 21.1741 25.8905 21.4477 23.657 23.6902ZM25.9564 24.3514V25.9989H24.3013H22.6461L24.2862 24.3514C25.1883 23.4453 25.9331 22.7039 25.9413 22.7039C25.9496 22.7039 25.9564 23.4453 25.9564 24.3514Z" fill="#1720E1"/>
</svg>
