<svg width="46" height="46" viewBox="0 0 46 46" fill="none" xmlns="http://www.w3.org/2000/svg">
<path fill-rule="evenodd" clip-rule="evenodd" d="M6.63675 0.0908365C6.18063 0.235483 5.40408 1.03972 5.26448 1.51188C5.18103 1.79431 5.15161 3.44351 5.15161 7.84424C5.15161 13.1401 5.13592 13.7947 5.00866 13.7947C4.67005 13.7947 4.11061 14.2173 3.14647 15.2015C1.96494 16.4075 1.74895 16.8068 1.83629 17.6227C1.86488 17.8902 1.97552 18.3037 2.08199 18.5417C2.36361 19.1708 2.16302 19.5724 1.447 19.8127C0.973329 19.9718 0.545328 20.3364 0.257302 20.8261C0.00111389 21.2617 0 21.2713 0 22.9801C0 24.6889 0.00111389 24.6985 0.257302 25.1341C0.545328 25.6238 0.973329 25.9885 1.447 26.1475C2.16302 26.3878 2.36361 26.7895 2.08199 27.4185C1.97552 27.6565 1.86488 28.07 1.83629 28.3375C1.74895 29.1534 1.96494 29.5527 3.14647 30.7588C4.11061 31.7429 4.67005 32.1655 5.00866 32.1655C5.13592 32.1655 5.15161 32.8201 5.15161 38.116C5.15161 42.5167 5.18103 44.1659 5.26448 44.4483C5.41513 44.958 6.18406 45.7266 6.69393 45.8772C7.24836 46.0409 37.2133 46.0409 37.7677 45.8772C38.2775 45.7266 39.0465 44.958 39.1971 44.4483C39.281 44.1643 39.31 42.3896 39.31 37.5241V30.9819L39.5916 30.8653C40.2156 30.607 40.7952 29.6692 40.7952 28.9181C40.7952 27.7685 39.7176 26.6914 38.5674 26.6914C37.816 26.6914 36.8779 27.2707 36.6195 27.8944L36.5028 28.1759H34.7262H32.9496L31.4666 26.6914L29.9836 25.2069H26.8498H23.716V25.9491V26.6914H26.5249H29.3338L30.8168 28.1759L32.2998 29.6604H34.4013H36.5028L36.6178 29.9377C36.7481 30.2524 37.3349 30.8165 37.6289 30.9097L37.8249 30.9719V37.511V44.05L37.597 44.2777L37.3692 44.5055H22.2308H7.09242L6.86463 44.2777L6.63675 44.05V38.0127V31.9753L6.86881 31.8872C7.29635 31.7247 7.72175 32.0208 7.92345 32.6212C8.08255 33.0946 8.44733 33.5224 8.93725 33.8103C9.37304 34.0664 9.3827 34.0675 11.0922 34.0675C12.8017 34.0675 12.8113 34.0664 13.2471 33.8103C13.7371 33.5224 14.1018 33.0946 14.2609 32.6212C14.5014 31.9054 14.9032 31.7049 15.5325 31.9864C16.1685 32.2709 16.8448 32.3192 17.3801 32.1185C18.0084 31.8828 19.908 30.0137 20.1936 29.3501C20.4377 28.7831 20.4053 28.0896 20.1033 27.4185C19.8205 26.7897 20.0209 26.388 20.7374 26.1475C21.522 25.884 22.1131 25.1138 22.2036 24.237L22.2568 23.7224H22.9864H23.716V22.9801V22.2379H22.9864H22.2568L22.2036 21.7232C22.1131 20.8464 21.522 20.0762 20.7374 19.8127C20.0214 19.5724 19.8208 19.1708 20.1024 18.5417C20.387 17.906 20.4353 17.23 20.2345 16.6949C19.9987 16.0668 18.1288 14.1681 17.465 13.8826C16.8976 13.6387 16.2039 13.671 15.5325 13.9729C14.8995 14.2573 14.491 14.0506 14.2595 13.3283C14.1144 12.8757 13.6543 12.3443 13.1949 12.0988C12.8365 11.9072 12.6887 11.8927 11.0922 11.8927C9.3827 11.8927 9.37304 11.8938 8.93725 12.1499C8.44733 12.4378 8.08255 12.8656 7.92345 13.3391C7.72175 13.9395 7.29635 14.2355 6.86881 14.0731L6.63675 13.9849V7.94751V1.9102L6.86463 1.68251L7.09242 1.45473H18.7458H30.3991V4.20423C30.3991 6.09178 30.4345 7.07341 30.512 7.33561C30.6626 7.84526 31.4316 8.61387 31.9414 8.76445C32.2038 8.84192 33.1858 8.87727 35.0742 8.87727H37.8249V11.9278V14.9783L37.5474 15.0933C37.2326 15.2236 36.6683 15.8101 36.575 16.104C36.5141 16.2956 36.4681 16.2998 34.4063 16.2998H32.2998L30.8168 17.7843L29.3338 19.2688H26.5249H23.716V20.0111V20.7533H26.8498H29.9836L31.4666 19.2688L32.9496 17.7843H34.7262H36.5028L36.6195 18.0658C36.8779 18.6895 37.816 19.2688 38.5674 19.2688C39.7176 19.2688 40.7952 18.1917 40.7952 17.0421C40.7952 16.2931 40.2158 15.3534 39.5958 15.0967L39.3184 14.9819L39.291 11.5352C39.266 8.3872 39.2486 8.06052 39.0912 7.76389C38.8534 7.31585 32.1222 0.572745 31.6058 0.265266L31.1881 0.016611L19.0749 0.00222984C10.4145 -0.00816172 6.86899 0.0171677 6.63675 0.0908365ZM34.344 4.98044L36.7561 7.39277H34.548H32.3399L32.1121 7.16499L31.8843 6.9373V4.75266C31.8843 3.55113 31.895 2.56811 31.9081 2.56811C31.9213 2.56811 33.0174 3.65366 34.344 4.98044ZM8.1219 6.65051V10.3618H13.3199H18.5179V6.65051V2.93924H13.3199H8.1219V6.65051ZM20.0031 3.68149V4.42375H20.7457H21.4882V3.68149V2.93924H20.7457H20.0031V3.68149ZM22.9734 3.68149V4.42375H25.9437H28.914V3.68149V2.93924H25.9437H22.9734V3.68149ZM17.0328 6.65051V8.87727H13.3199H9.60705V6.65051V4.42375H13.3199H17.0328V6.65051ZM20.0031 6.65051V7.39277H24.4585H28.914V6.65051V5.90826H24.4585H20.0031V6.65051ZM20.0031 9.61953V10.3618H24.4585H28.914V9.61953V8.87727H24.4585H20.0031V9.61953ZM21.4882 11.9676C21.0327 12.1111 20.2557 12.9153 20.116 13.388C19.8588 14.2579 20.0401 14.9514 20.6961 15.6071C21.6352 16.5458 22.8264 16.5458 23.7655 15.6071C24.6726 14.7004 24.6997 13.5471 23.8365 12.5874C23.2358 11.9196 22.3679 11.6904 21.4882 11.9676ZM27.4288 11.9676C26.9733 12.1111 26.1962 12.9153 26.0565 13.388C25.7994 14.2579 25.9807 14.9514 26.6367 15.6071C27.5758 16.5458 28.767 16.5458 29.7061 15.6071C30.6132 14.7004 30.6403 13.5471 29.7771 12.5874C29.1764 11.9196 28.3085 11.6904 27.4288 11.9676ZM12.5946 13.5101C12.72 13.6087 12.871 13.8507 12.9301 14.0477C13.0776 14.5397 13.6053 15.1283 14.124 15.3793C14.6997 15.6579 15.431 15.6565 16.0793 15.3755C16.4126 15.2313 16.6453 15.1853 16.8219 15.2291C17.1602 15.3129 18.7627 16.9147 18.8465 17.2529C18.8903 17.4294 18.8444 17.662 18.7001 17.9951C18.419 18.6432 18.4176 19.3741 18.6962 19.9496C18.9474 20.4681 19.5362 20.9956 20.0284 21.143C20.6713 21.3356 20.7457 21.5259 20.7457 22.9801C20.7457 24.4343 20.6713 24.6247 20.0284 24.8172C19.5362 24.9646 18.9474 25.4921 18.6962 26.0106C18.4176 26.5861 18.419 27.317 18.7001 27.9651C18.8444 28.2982 18.8903 28.5308 18.8465 28.7073C18.7627 29.0455 17.1602 30.6473 16.8219 30.7311C16.6453 30.7749 16.4126 30.729 16.0793 30.5847C15.431 30.3038 14.6997 30.3024 14.124 30.5809C13.6053 30.832 13.0776 31.4205 12.9301 31.9125C12.7375 32.5551 12.547 32.6294 11.0922 32.6294C9.6374 32.6294 9.44693 32.5551 9.25433 31.9125C9.10693 31.4208 8.57933 30.832 8.06166 30.5815C7.49452 30.3071 6.74768 30.3099 6.09885 30.5889C5.77166 30.7295 5.53812 30.7747 5.3625 30.7311C5.02416 30.6473 3.42169 29.0455 3.33787 28.7073C3.29406 28.5308 3.34 28.2982 3.48434 27.9651C3.76541 27.317 3.7668 26.5861 3.48815 26.0106C3.23697 25.4921 2.6482 24.9646 2.15597 24.8172C1.51309 24.6247 1.43874 24.4343 1.43874 22.9801C1.43874 21.5259 1.51309 21.3356 2.15597 21.143C2.6482 20.9956 3.23697 20.4681 3.48815 19.9496C3.7668 19.3741 3.76541 18.6432 3.48434 17.9951C3.34 17.662 3.29406 17.4294 3.33787 17.2529C3.42169 16.9147 5.02416 15.3129 5.3625 15.2291C5.53914 15.1853 5.77184 15.2313 6.10507 15.3755C6.75343 15.6565 7.48468 15.6579 8.06036 15.3793C8.57914 15.1283 9.10683 14.5397 9.25433 14.0477C9.44693 13.4051 9.6374 13.3308 11.0922 13.3308C12.2112 13.3308 12.3945 13.3527 12.5946 13.5101ZM22.7455 13.5586C23.206 14.0188 22.8797 14.8153 22.2308 14.8153C22.05 14.8153 21.8597 14.7312 21.7161 14.5875C21.5724 14.444 21.4882 14.2538 21.4882 14.0731C21.4882 13.8923 21.5724 13.7021 21.7161 13.5586C21.8597 13.415 22.05 13.3308 22.2308 13.3308C22.4116 13.3308 22.6019 13.415 22.7455 13.5586ZM28.6861 13.5586C29.1466 14.0188 28.8203 14.8153 28.1714 14.8153C27.7898 14.8153 27.4288 14.4545 27.4288 14.0731C27.4288 13.6916 27.7898 13.3308 28.1714 13.3308C28.3522 13.3308 28.5425 13.415 28.6861 13.5586ZM10.3496 17.0421V17.7843H9.23576H8.1219V22.9801V28.1759H9.23576H10.3496V28.9181V29.6604H11.0922H11.8348V28.8785V28.0968L12.3301 27.87C12.9371 27.5922 13.4237 27.1191 13.7602 26.4796C13.9812 26.0595 14.0143 25.8913 14.0112 25.2069C14.0074 24.3726 13.8703 23.9738 13.3479 23.2776L13.1185 22.9719L13.3451 22.6745C13.8686 21.9872 14.0074 21.5869 14.0112 20.7533C14.0143 20.0689 13.9812 19.9008 13.7602 19.4807C13.4237 18.8411 12.9371 18.368 12.3301 18.0902L11.8348 17.8635V17.0817V16.2998H11.0922H10.3496V17.0421ZM39.0821 16.5276C39.5426 16.9878 39.2163 17.7843 38.5674 17.7843C38.1858 17.7843 37.8249 17.4235 37.8249 17.0421C37.8249 16.6606 38.1858 16.2998 38.5674 16.2998C38.7482 16.2998 38.9385 16.384 39.0821 16.5276ZM11.8921 19.5065C12.3791 19.8703 12.5309 20.1668 12.5309 20.7533C12.5309 21.3399 12.3791 21.6364 11.8921 22.0002C11.678 22.1603 11.4706 22.1966 10.6216 22.2228L9.60705 22.2543V20.7533V19.2524L10.6216 19.2839C11.4706 19.3101 11.678 19.3464 11.8921 19.5065ZM43.0428 20.87C42.6443 20.9976 41.9654 21.5995 41.8175 21.9564L41.7008 22.2379H34.9361H28.1714V22.9801V23.7224H34.9361H41.7008L41.8175 24.0039C41.9759 24.3861 42.6529 24.9645 43.0978 25.0978C43.9461 25.3518 44.6483 25.1657 45.3002 24.5142C46.2072 23.6075 46.2343 22.4541 45.3712 21.4945C44.7753 20.8319 43.897 20.5964 43.0428 20.87ZM25.2011 22.9801V23.7224H25.9437H26.6862V22.9801V22.2379H25.9437H25.2011V22.9801ZM44.2801 22.4656C44.4238 22.6092 44.508 22.7994 44.508 22.9801C44.508 23.1609 44.4238 23.3511 44.2801 23.4946C44.1366 23.6382 43.9463 23.7224 43.7654 23.7224C43.5846 23.7224 43.3943 23.6382 43.2507 23.4946C42.7903 23.0344 43.1165 22.2379 43.7654 22.2379C43.9463 22.2379 44.1366 22.322 44.2801 22.4656ZM11.8921 23.9601C12.3791 24.3239 12.5309 24.6203 12.5309 25.2069C12.5309 25.7934 12.3791 26.0899 11.8921 26.4537C11.678 26.6138 11.4706 26.6501 10.6216 26.6764L9.60705 26.7078V25.2069V23.7059L10.6216 23.7374C11.4706 23.7637 11.678 23.7999 11.8921 23.9601ZM39.0821 28.4037C39.2258 28.5472 39.31 28.7374 39.31 28.9181C39.31 29.0989 39.2258 29.2891 39.0821 29.4326C38.9385 29.5763 38.7482 29.6604 38.5674 29.6604C38.3866 29.6604 38.1963 29.5763 38.0527 29.4326C37.909 29.2891 37.8249 29.0989 37.8249 28.9181C37.8249 28.7374 37.909 28.5472 38.0527 28.4037C38.1963 28.26 38.3866 28.1759 38.5674 28.1759C38.7482 28.1759 38.9385 28.26 39.0821 28.4037ZM14.8754 37.4299L11.094 41.2097L10.2791 40.3989C9.83084 39.9529 9.42159 39.5881 9.3697 39.5881C9.2495 39.5881 8.40037 40.4454 8.40037 40.5666C8.40037 40.6166 9.00621 41.2619 9.74665 42.0008L11.093 43.3441L15.4088 39.031C17.7825 36.6587 19.7246 34.6742 19.7246 34.6211C19.7246 34.5001 18.8685 33.65 18.7466 33.65C18.6973 33.65 16.9552 35.3509 14.8754 37.4299ZM23.0437 37.4299L19.2623 41.2097L18.4474 40.3989C17.9992 39.9529 17.5899 39.5881 17.538 39.5881C17.4178 39.5881 16.5687 40.4454 16.5687 40.5666C16.5687 40.6166 17.1745 41.2619 17.915 42.0008L19.2613 43.3441L23.5771 39.031C25.9508 36.6587 27.8929 34.6742 27.8929 34.6211C27.8929 34.5001 27.0368 33.65 26.915 33.65C26.8656 33.65 25.1235 35.3509 23.0437 37.4299ZM31.212 37.4299L27.4306 41.2097L26.6157 40.3989C26.1675 39.9529 25.7582 39.5881 25.7063 39.5881C25.5861 39.5881 24.737 40.4454 24.737 40.5666C24.737 40.6166 25.3428 41.2619 26.0833 42.0008L27.4297 43.3441L31.7454 39.031C34.1191 36.6587 36.0612 34.6742 36.0612 34.6211C36.0612 34.5001 35.2051 33.65 35.0833 33.65C35.0339 33.65 33.2918 35.3509 31.212 37.4299Z" fill="black"/>
</svg>
