<svg width="51" height="51" viewBox="0 0 51 51" fill="none" xmlns="http://www.w3.org/2000/svg">
<path d="M43.8347 44.6635H32.2037C32.0956 45.2676 31.9559 45.8656 31.7853 46.4551C31.4379 47.4772 30.7835 48.3666 29.9117 49.0013C29.0399 49.636 27.9935 49.9848 26.916 50C19.6755 50 12.4414 50 5.21361 50C3.82108 49.975 2.49418 49.4025 1.51919 48.4059C0.5442 47.4093 -0.000718166 46.0686 0.00200143 44.6731C0.00200143 40.8136 0.00200143 36.9637 0.00200143 33.1043V5.46898C-0.0342779 4.14159 0.423754 2.84817 1.28692 1.84058C2.15009 0.832987 3.3566 0.18335 4.67153 0.0181569C4.98808 -0.0060523 5.30601 -0.0060523 5.62255 0.0181569H26.5451C27.2906 -0.0145523 28.0347 0.108956 28.7298 0.380796C29.425 0.652636 30.0558 1.06682 30.5821 1.59688C31.1084 2.12693 31.5186 2.76118 31.7863 3.4591C32.0541 4.15701 32.1736 4.90323 32.1371 5.65005C32.1371 6.71734 32.1371 7.77511 32.1371 8.8424C32.155 9.08802 32.1222 9.3347 32.0407 9.56703C31.9592 9.79937 31.8308 10.0124 31.6635 10.1927C31.4961 10.3731 31.2935 10.517 31.0682 10.6154C30.8429 10.7137 30.5997 10.7645 30.354 10.7645C30.1082 10.7645 29.8651 10.7137 29.6397 10.6154C29.4144 10.517 29.2118 10.3731 29.0444 10.1927C28.8771 10.0124 28.7487 9.79937 28.6672 9.56703C28.5857 9.3347 28.5529 9.08802 28.5708 8.8424C28.5708 7.75605 28.5708 6.67922 28.5708 5.6024C28.6003 5.33612 28.5702 5.0666 28.4826 4.81347C28.395 4.56034 28.2522 4.32998 28.0645 4.13917C27.8768 3.94837 27.649 3.80192 27.3977 3.71051C27.1463 3.61909 26.8778 3.58501 26.6117 3.61075C24.4528 3.61075 22.294 3.61075 20.1352 3.61075H19.6692C19.6564 4.1464 19.5272 4.67282 19.2907 5.15337C19.0542 5.63392 18.716 6.05706 18.2997 6.39334C17.6471 6.92941 16.8227 7.2104 15.9792 7.18428C14.0772 7.13664 12.8313 5.85016 12.4604 3.6298H12.0325C9.85461 3.6298 7.68628 3.6298 5.50844 3.6298C5.25431 3.61296 4.99951 3.65071 4.76112 3.74053C4.52273 3.83035 4.30624 3.97017 4.12615 4.15062C3.94606 4.33108 3.80652 4.54801 3.71688 4.78688C3.62724 5.02575 3.58957 5.28105 3.60639 5.53569C3.60639 18.5529 3.60639 31.5765 3.60639 44.6064C3.58957 44.861 3.62724 45.1163 3.71688 45.3552C3.80652 45.594 3.94606 45.811 4.12615 45.9914C4.30624 46.1719 4.52273 46.3117 4.76112 46.4015C4.99951 46.4913 5.25431 46.5291 5.50844 46.5122H26.5926C26.8372 46.5293 27.0826 46.4956 27.3135 46.4131C27.5444 46.3306 27.7558 46.2012 27.9344 46.033C28.113 45.8647 28.255 45.6613 28.3514 45.4355C28.4478 45.2097 28.4966 44.9663 28.4947 44.7207H9.0938C8.84351 44.7466 8.59059 44.7196 8.35139 44.6413C8.11219 44.5631 7.89205 44.4354 7.70521 44.2665C7.51838 44.0977 7.36901 43.8914 7.26677 43.661C7.16453 43.4306 7.1117 43.1813 7.1117 42.9292C7.1117 42.677 7.16453 42.4277 7.26677 42.1974C7.36901 41.967 7.51838 41.7607 7.70521 41.5918C7.89205 41.4229 8.11219 41.2953 8.35139 41.217C8.59059 41.1388 8.84351 41.1117 9.0938 41.1376H20.7914L20.915 40.9661C20.7835 40.9114 20.6589 40.841 20.5441 40.7565C18.4933 38.81 17.0609 36.3008 16.4262 33.5427C16.3623 33.3128 16.2412 33.103 16.0743 32.9328C15.1233 31.9799 14.1723 31.0269 13.1642 30.0073C12.9766 29.8463 12.8243 29.6481 12.717 29.4252C12.6097 29.2023 12.5496 28.9596 12.5405 28.7123C12.5314 28.465 12.5736 28.2185 12.6644 27.9883C12.7551 27.7582 12.8925 27.5493 13.0678 27.375C13.243 27.2007 13.4525 27.0646 13.6829 26.9754C13.9132 26.8863 14.1596 26.8459 14.4063 26.8568C14.653 26.8678 14.8948 26.9298 15.1164 27.039C15.3381 27.1483 15.5347 27.3023 15.6939 27.4915C15.886 27.7109 16.0669 27.9399 16.236 28.1776C16.3501 27.7107 16.4072 27.4343 16.4737 27.158C17.0578 24.5333 18.3718 22.128 20.2636 20.2206C22.1553 18.3132 24.5476 16.9817 27.1633 16.3802C27.4086 16.3158 27.634 16.1914 27.8195 16.0181C28.7705 15.0651 29.7215 14.1122 30.7486 13.1021C30.9077 12.9087 31.1055 12.751 31.3293 12.6391C31.553 12.5271 31.7977 12.4634 32.0475 12.4522C32.2973 12.4409 32.5467 12.4822 32.7796 12.5735C33.0125 12.6648 33.2236 12.8041 33.3994 12.9823C33.5753 13.1604 33.7118 13.3736 33.8003 13.608C33.8888 13.8423 33.9272 14.0927 33.9131 14.3429C33.899 14.5931 33.8327 14.8375 33.7184 15.0604C33.6042 15.2833 33.4445 15.4797 33.2498 15.6369C33.0369 15.8326 32.8114 16.0141 32.5746 16.1801C33.1833 16.3325 33.6112 16.4088 34.0202 16.5327C36.5276 17.1935 38.8078 18.5266 40.6158 20.3886C42.4238 22.2506 43.6912 24.5712 44.2817 27.1008C44.3576 27.3822 44.5013 27.6408 44.7002 27.8536C45.6512 28.8066 46.6022 29.7595 47.5532 30.7124C47.7462 30.8719 47.9036 31.0701 48.0153 31.2942C48.127 31.5184 48.1906 31.7636 48.2018 32.0139C48.2131 32.2642 48.1719 32.5141 48.0807 32.7475C47.9896 32.9808 47.8506 33.1924 47.6728 33.3686C47.495 33.5448 47.2822 33.6816 47.0483 33.7703C46.8145 33.8589 46.5646 33.8974 46.3149 33.8833C46.0653 33.8692 45.8213 33.8027 45.5989 33.6883C45.3764 33.5738 45.1804 33.4138 45.0235 33.2187C44.8641 33.0237 44.6892 32.8421 44.5005 32.6755C43.8849 35.8846 42.2423 38.8051 39.8214 40.9947H43.8252C43.635 40.7946 43.4829 40.6421 43.3402 40.4801C43.0195 40.1478 42.8402 39.7036 42.8402 39.2413C42.8402 38.779 43.0195 38.3348 43.3402 38.0025C43.4967 37.8347 43.685 37.6997 43.894 37.6054C44.1031 37.5111 44.3287 37.4593 44.5579 37.4531C44.787 37.4469 45.0151 37.4864 45.2289 37.5692C45.4427 37.6521 45.638 37.7767 45.8034 37.9358C47.0714 39.1428 48.3077 40.3816 49.5124 41.6522C49.8248 41.9696 50 42.3976 50 42.8434C50 43.2892 49.8248 43.7172 49.5124 44.0346C48.3141 45.2734 47.0872 46.5027 45.8509 47.7034C45.6899 47.8668 45.4981 47.9965 45.2867 48.085C45.0753 48.1735 44.8485 48.2191 44.6193 48.2191C44.3902 48.2191 44.1633 48.1735 43.9519 48.085C43.7405 47.9965 43.5488 47.8668 43.3878 47.7034C43.059 47.3802 42.8698 46.9406 42.8609 46.4791C42.852 46.0176 43.0241 45.571 43.3402 45.2353C43.4543 45.0542 43.6065 44.9018 43.8347 44.6635ZM20.0591 27.2628C21.1813 26.5576 22.1324 26.6434 22.7695 27.4343C22.9169 27.627 23.025 27.847 23.0875 28.0815C23.1501 28.3161 23.1659 28.5607 23.1341 28.8014C23.1023 29.0421 23.0235 29.2741 22.9022 29.4843C22.7809 29.6945 22.6195 29.8787 22.4272 30.0263C21.6949 30.7601 20.9721 31.5129 20.2113 32.2276C20.071 32.3369 19.97 32.4891 19.9236 32.661C19.8773 32.833 19.8881 33.0153 19.9545 33.1806C20.5532 35.3645 21.8262 37.3026 23.5912 38.7174C25.3562 40.1321 27.5227 40.951 29.7805 41.0568C32.0382 41.1626 34.2716 40.5498 36.1606 39.3062C38.0496 38.0626 39.4975 36.2519 40.2969 34.1335C40.3825 33.9239 40.4396 33.7047 40.5347 33.4188C39.3839 34.1049 38.4424 34.0192 37.8147 33.2092C37.1871 32.3992 37.3392 31.4748 38.2332 30.5886C38.956 29.8643 39.6597 29.121 40.4015 28.4254C40.5294 28.3217 40.6212 28.1801 40.6639 28.0209C40.7066 27.8617 40.698 27.6931 40.6393 27.5391C40.0893 25.5339 38.9731 23.7305 37.4248 22.3456C36.2811 21.3017 34.9151 20.5326 33.4305 20.0967C33.4305 20.1824 33.4305 20.2205 33.4305 20.2491C33.5802 20.4339 33.6919 20.6465 33.7591 20.8748C33.8263 21.103 33.8477 21.3423 33.8221 21.5789C33.7965 21.8155 33.7243 22.0447 33.6097 22.2531C33.4952 22.4616 33.3405 22.6453 33.1547 22.7935C32.7745 23.0863 32.2942 23.2165 31.8185 23.1558C31.3428 23.0951 30.9104 22.8484 30.6155 22.4695C29.8642 21.7167 29.1034 20.9829 28.3711 20.211C28.2615 20.0711 28.1085 19.9717 27.9363 19.9285C27.7641 19.8854 27.5825 19.901 27.42 19.9728C25.7289 20.447 24.1784 21.3268 22.9027 22.5362C21.5708 23.8386 20.6034 25.4684 20.0972 27.2628H20.0591Z" fill="#410EAD"/>
<path d="M11.4684 12.511C12.1816 13.2257 12.9044 13.9309 13.6082 14.6456C13.8029 14.8028 13.9625 14.9992 14.0768 15.2221C14.1911 15.445 14.2574 15.6894 14.2715 15.9396C14.2856 16.1898 14.2471 16.4401 14.1587 16.6745C14.0702 16.9088 13.9336 17.122 13.7578 17.3002C13.582 17.4784 13.3708 17.6176 13.1379 17.7089C12.905 17.8002 12.6556 17.8416 12.4058 17.8303C12.156 17.819 11.9113 17.7553 11.6876 17.6434C11.4639 17.5314 11.2661 17.3737 11.107 17.1804C9.98477 16.0623 8.86573 14.9442 7.74986 13.826C7.55339 13.6587 7.39557 13.4507 7.28734 13.2162C7.1791 12.9817 7.12305 12.7264 7.12305 12.4681C7.12305 12.2097 7.1791 11.9545 7.28734 11.72C7.39557 11.4855 7.55339 11.2774 7.74986 11.1101C8.87207 9.96661 10.0038 8.84214 11.1355 7.70814C11.2982 7.5276 11.4959 7.38214 11.7165 7.28064C11.9371 7.17913 12.176 7.1237 12.4187 7.11773C12.6614 7.11175 12.9027 7.15536 13.128 7.24589C13.3533 7.33642 13.5579 7.47198 13.7292 7.6443C13.9005 7.81662 14.035 8.0221 14.1245 8.24821C14.214 8.47431 14.2567 8.71632 14.2498 8.95946C14.2429 9.2026 14.1867 9.4418 14.0846 9.66246C13.9824 9.88313 13.8365 10.0806 13.6557 10.243L11.535 12.4347L11.4684 12.511Z" fill="#410EAD"/>
<path d="M20.7005 12.4335L18.5226 10.2704C18.3338 10.1108 18.1801 9.91377 18.0711 9.69171C17.9621 9.46965 17.9001 9.22737 17.8892 8.98014C17.8783 8.73291 17.9186 8.48609 18.0076 8.25525C18.0966 8.02441 18.2324 7.81454 18.4064 7.63889C18.5803 7.46324 18.7888 7.32561 19.0185 7.23469C19.2482 7.14376 19.4942 7.1015 19.741 7.11058C19.9878 7.11966 20.23 7.17987 20.4525 7.28743C20.6749 7.39499 20.8727 7.54756 21.0333 7.73552L24.3049 11.0136C24.5238 11.1818 24.7012 11.3982 24.8232 11.6461C24.9453 11.8939 25.0088 12.1667 25.0088 12.4431C25.0088 12.7195 24.9453 12.9922 24.8232 13.24C24.7012 13.4879 24.5238 13.7043 24.3049 13.8725L21.0333 17.1982C20.8727 17.3862 20.6749 17.5388 20.4525 17.6463C20.23 17.7539 19.9878 17.8141 19.741 17.8232C19.4942 17.8323 19.2482 17.79 19.0185 17.6991C18.7888 17.6081 18.5803 17.4705 18.4064 17.2949C18.2324 17.1192 18.0966 16.9094 18.0076 16.6785C17.9186 16.4477 17.8783 16.2009 17.8892 15.9536C17.9001 15.7064 17.9621 15.4641 18.0711 15.2421C18.1801 15.02 18.3338 14.823 18.5226 14.6634L20.7005 12.4335Z" fill="#410EAD"/>
<path d="M44.8347 45.6635H33.2037C33.0956 46.2676 32.9559 46.8656 32.7853 47.4551C32.4379 48.4772 31.7835 49.3666 30.9117 50.0013C30.0399 50.636 28.9935 50.9848 27.916 51C20.6755 51 13.4414 51 6.21361 51C4.82108 50.975 3.49418 50.4025 2.51919 49.4059C1.5442 48.4093 0.999282 47.0686 1.002 45.6731C1.002 41.8136 1.002 37.9637 1.002 34.1043V6.46898C0.965722 5.14159 1.42375 3.84817 2.28692 2.84058C3.15009 1.83299 4.3566 1.18335 5.67153 1.01816C5.98808 0.993948 6.30601 0.993948 6.62255 1.01816H27.5451C28.2906 0.985448 29.0347 1.10896 29.7298 1.3808C30.425 1.65264 31.0558 2.06682 31.5821 2.59688C32.1084 3.12693 32.5186 3.76118 32.7863 4.4591C33.0541 5.15701 33.1736 5.90323 33.1371 6.65005C33.1371 7.71734 33.1371 8.77511 33.1371 9.8424C33.155 10.088 33.1222 10.3347 33.0407 10.567C32.9592 10.7994 32.8308 11.0124 32.6635 11.1927C32.4961 11.3731 32.2935 11.517 32.0682 11.6154C31.8429 11.7137 31.5997 11.7645 31.354 11.7645C31.1082 11.7645 30.8651 11.7137 30.6397 11.6154C30.4144 11.517 30.2118 11.3731 30.0444 11.1927C29.8771 11.0124 29.7487 10.7994 29.6672 10.567C29.5857 10.3347 29.5529 10.088 29.5708 9.8424C29.5708 8.75605 29.5708 7.67922 29.5708 6.6024C29.6003 6.33612 29.5702 6.0666 29.4826 5.81347C29.395 5.56034 29.2522 5.32998 29.0645 5.13917C28.8768 4.94837 28.649 4.80192 28.3977 4.71051C28.1463 4.61909 27.8778 4.58501 27.6117 4.61075C25.4528 4.61075 23.294 4.61075 21.1352 4.61075H20.6692C20.6564 5.1464 20.5272 5.67282 20.2907 6.15337C20.0542 6.63392 19.716 7.05706 19.2997 7.39334C18.6471 7.92941 17.8227 8.2104 16.9792 8.18428C15.0772 8.13664 13.8313 6.85016 13.4604 4.6298H13.0325C10.8546 4.6298 8.68628 4.6298 6.50844 4.6298C6.25431 4.61296 5.99951 4.65071 5.76112 4.74053C5.52273 4.83035 5.30624 4.97017 5.12615 5.15062C4.94606 5.33108 4.80652 5.54801 4.71688 5.78688C4.62724 6.02575 4.58957 6.28105 4.60639 6.53569C4.60639 19.5529 4.60639 32.5765 4.60639 45.6064C4.58957 45.861 4.62724 46.1163 4.71688 46.3552C4.80652 46.594 4.94606 46.811 5.12615 46.9914C5.30624 47.1719 5.52273 47.3117 5.76112 47.4015C5.99951 47.4913 6.25431 47.5291 6.50844 47.5122H27.5926C27.8372 47.5293 28.0826 47.4956 28.3135 47.4131C28.5444 47.3306 28.7558 47.2012 28.9344 47.033C29.113 46.8647 29.255 46.6613 29.3514 46.4355C29.4478 46.2097 29.4966 45.9663 29.4947 45.7207H10.0938C9.84351 45.7466 9.59059 45.7196 9.35139 45.6413C9.11219 45.5631 8.89205 45.4354 8.70521 45.2665C8.51838 45.0977 8.36901 44.8914 8.26677 44.661C8.16453 44.4306 8.1117 44.1813 8.1117 43.9292C8.1117 43.677 8.16453 43.4277 8.26677 43.1974C8.36901 42.967 8.51838 42.7607 8.70521 42.5918C8.89205 42.4229 9.11219 42.2953 9.35139 42.217C9.59059 42.1388 9.84351 42.1117 10.0938 42.1376H21.7914L21.915 41.9661C21.7835 41.9114 21.6589 41.841 21.5441 41.7565C19.4933 39.81 18.0609 37.3008 17.4262 34.5427C17.3623 34.3128 17.2412 34.103 17.0743 33.9328C16.1233 32.9799 15.1723 32.0269 14.1642 31.0073C13.9766 30.8463 13.8243 30.6481 13.717 30.4252C13.6097 30.2023 13.5496 29.9596 13.5405 29.7123C13.5314 29.465 13.5736 29.2185 13.6644 28.9883C13.7551 28.7582 13.8925 28.5493 14.0678 28.375C14.243 28.2007 14.4525 28.0646 14.6829 27.9754C14.9132 27.8863 15.1596 27.8459 15.4063 27.8568C15.653 27.8678 15.8948 27.9298 16.1164 28.039C16.3381 28.1483 16.5347 28.3023 16.6939 28.4915C16.886 28.7109 17.0669 28.9399 17.236 29.1776C17.3501 28.7107 17.4072 28.4343 17.4737 28.158C18.0578 25.5333 19.3718 23.128 21.2636 21.2206C23.1553 19.3132 25.5476 17.9817 28.1633 17.3802C28.4086 17.3158 28.634 17.1914 28.8195 17.0181C29.7705 16.0651 30.7215 15.1122 31.7486 14.1021C31.9077 13.9087 32.1055 13.751 32.3293 13.6391C32.553 13.5271 32.7977 13.4634 33.0475 13.4522C33.2973 13.4409 33.5467 13.4822 33.7796 13.5735C34.0125 13.6648 34.2236 13.8041 34.3994 13.9823C34.5753 14.1604 34.7118 14.3736 34.8003 14.608C34.8888 14.8423 34.9272 15.0927 34.9131 15.3429C34.899 15.5931 34.8327 15.8375 34.7184 16.0604C34.6042 16.2833 34.4445 16.4797 34.2498 16.6369C34.0369 16.8326 33.8114 17.0141 33.5746 17.1801C34.1833 17.3325 34.6112 17.4088 35.0202 17.5327C37.5276 18.1935 39.8078 19.5266 41.6158 21.3886C43.4238 23.2506 44.6912 25.5712 45.2817 28.1008C45.3576 28.3822 45.5013 28.6408 45.7002 28.8536C46.6512 29.8066 47.6022 30.7595 48.5532 31.7124C48.7462 31.8719 48.9036 32.0701 49.0153 32.2942C49.127 32.5184 49.1906 32.7636 49.2018 33.0139C49.2131 33.2642 49.1719 33.5141 49.0807 33.7475C48.9896 33.9808 48.8506 34.1924 48.6728 34.3686C48.495 34.5448 48.2822 34.6816 48.0483 34.7703C47.8145 34.8589 47.5646 34.8974 47.3149 34.8833C47.0653 34.8692 46.8213 34.8027 46.5989 34.6883C46.3764 34.5738 46.1804 34.4138 46.0235 34.2187C45.8641 34.0237 45.6892 33.8421 45.5005 33.6755C44.8849 36.8846 43.2423 39.8051 40.8214 41.9947H44.8252C44.635 41.7946 44.4829 41.6421 44.3402 41.4801C44.0195 41.1478 43.8402 40.7036 43.8402 40.2413C43.8402 39.779 44.0195 39.3348 44.3402 39.0025C44.4967 38.8347 44.685 38.6997 44.894 38.6054C45.1031 38.5111 45.3287 38.4593 45.5579 38.4531C45.787 38.4469 46.0151 38.4864 46.2289 38.5692C46.4427 38.6521 46.638 38.7767 46.8034 38.9358C48.0714 40.1428 49.3077 41.3816 50.5124 42.6522C50.8248 42.9696 51 43.3976 51 43.8434C51 44.2892 50.8248 44.7172 50.5124 45.0346C49.3141 46.2734 48.0872 47.5027 46.8509 48.7034C46.6899 48.8668 46.4981 48.9965 46.2867 49.085C46.0753 49.1735 45.8485 49.2191 45.6193 49.2191C45.3902 49.2191 45.1633 49.1735 44.9519 49.085C44.7405 48.9965 44.5488 48.8668 44.3878 48.7034C44.059 48.3802 43.8698 47.9406 43.8609 47.4791C43.852 47.0176 44.0241 46.571 44.3402 46.2353C44.4543 46.0542 44.6065 45.9018 44.8347 45.6635ZM21.0591 28.2628C22.1813 27.5576 23.1324 27.6434 23.7695 28.4343C23.9169 28.627 24.025 28.847 24.0875 29.0815C24.1501 29.3161 24.1659 29.5607 24.1341 29.8014C24.1023 30.0421 24.0235 30.2741 23.9022 30.4843C23.7809 30.6945 23.6195 30.8787 23.4272 31.0263C22.6949 31.7601 21.9721 32.5129 21.2113 33.2276C21.071 33.3369 20.97 33.4891 20.9236 33.661C20.8773 33.833 20.8881 34.0153 20.9545 34.1806C21.5532 36.3645 22.8262 38.3026 24.5912 39.7174C26.3562 41.1321 28.5227 41.951 30.7805 42.0568C33.0382 42.1626 35.2716 41.5498 37.1606 40.3062C39.0496 39.0626 40.4975 37.2519 41.2969 35.1335C41.3825 34.9239 41.4396 34.7047 41.5347 34.4188C40.3839 35.1049 39.4424 35.0192 38.8147 34.2092C38.1871 33.3992 38.3392 32.4748 39.2332 31.5886C39.956 30.8643 40.6597 30.121 41.4015 29.4254C41.5294 29.3217 41.6212 29.1801 41.6639 29.0209C41.7066 28.8617 41.698 28.6931 41.6393 28.5391C41.0893 26.5339 39.9731 24.7305 38.4248 23.3456C37.2811 22.3017 35.9151 21.5326 34.4305 21.0967C34.4305 21.1824 34.4305 21.2205 34.4305 21.2491C34.5802 21.4339 34.6919 21.6465 34.7591 21.8748C34.8263 22.103 34.8477 22.3423 34.8221 22.5789C34.7965 22.8155 34.7243 23.0447 34.6097 23.2531C34.4952 23.4616 34.3405 23.6453 34.1547 23.7935C33.7745 24.0863 33.2942 24.2165 32.8185 24.1558C32.3428 24.0951 31.9104 23.8484 31.6155 23.4695C30.8642 22.7167 30.1034 21.9829 29.3711 21.211C29.2615 21.0711 29.1085 20.9717 28.9363 20.9285C28.7641 20.8854 28.5825 20.901 28.42 20.9728C26.7289 21.447 25.1784 22.3268 23.9027 23.5362C22.5708 24.8386 21.6034 26.4684 21.0972 28.2628H21.0591Z" fill="url(#paint0_linear_1323_461)"/>
<path d="M12.4684 13.511C13.1816 14.2257 13.9044 14.9309 14.6082 15.6456C14.8029 15.8028 14.9625 15.9992 15.0768 16.2221C15.1911 16.445 15.2574 16.6894 15.2715 16.9396C15.2856 17.1898 15.2471 17.4401 15.1587 17.6745C15.0702 17.9088 14.9336 18.122 14.7578 18.3002C14.582 18.4784 14.3708 18.6176 14.1379 18.7089C13.905 18.8002 13.6556 18.8416 13.4058 18.8303C13.156 18.819 12.9113 18.7553 12.6876 18.6434C12.4639 18.5314 12.2661 18.3737 12.107 18.1804C10.9848 17.0623 9.86573 15.9442 8.74986 14.826C8.55339 14.6587 8.39557 14.4507 8.28734 14.2162C8.1791 13.9817 8.12305 13.7264 8.12305 13.4681C8.12305 13.2097 8.1791 12.9545 8.28734 12.72C8.39557 12.4855 8.55339 12.2774 8.74986 12.1101C9.87207 10.9666 11.0038 9.84214 12.1355 8.70814C12.2982 8.5276 12.4959 8.38214 12.7165 8.28064C12.9371 8.17913 13.176 8.1237 13.4187 8.11773C13.6614 8.11175 13.9027 8.15536 14.128 8.24589C14.3533 8.33642 14.5579 8.47198 14.7292 8.6443C14.9005 8.81662 15.035 9.0221 15.1245 9.24821C15.214 9.47431 15.2567 9.71632 15.2498 9.95946C15.2429 10.2026 15.1867 10.4418 15.0846 10.6625C14.9824 10.8831 14.8365 11.0806 14.6557 11.243L12.535 13.4347L12.4684 13.511Z" fill="url(#paint1_linear_1323_461)"/>
<path d="M21.7005 13.4335L19.5226 11.2704C19.3338 11.1108 19.1801 10.9138 19.0711 10.6917C18.9621 10.4697 18.9001 10.2274 18.8892 9.98014C18.8783 9.73291 18.9186 9.48609 19.0076 9.25525C19.0966 9.02441 19.2324 8.81454 19.4064 8.63889C19.5803 8.46324 19.7888 8.32561 20.0185 8.23469C20.2482 8.14376 20.4942 8.1015 20.741 8.11058C20.9878 8.11966 21.23 8.17987 21.4525 8.28743C21.6749 8.39499 21.8727 8.54756 22.0333 8.73552L25.3049 12.0136C25.5238 12.1818 25.7012 12.3982 25.8232 12.6461C25.9453 12.8939 26.0088 13.1667 26.0088 13.4431C26.0088 13.7195 25.9453 13.9922 25.8232 14.24C25.7012 14.4879 25.5238 14.7043 25.3049 14.8725L22.0333 18.1982C21.8727 18.3862 21.6749 18.5388 21.4525 18.6463C21.23 18.7539 20.9878 18.8141 20.741 18.8232C20.4942 18.8323 20.2482 18.79 20.0185 18.6991C19.7888 18.6081 19.5803 18.4705 19.4064 18.2949C19.2324 18.1192 19.0966 17.9094 19.0076 17.6785C18.9186 17.4477 18.8783 17.2009 18.8892 16.9536C18.9001 16.7064 18.9621 16.4641 19.0711 16.2421C19.1801 16.02 19.3338 15.823 19.5226 15.6634L21.7005 13.4335Z" fill="url(#paint2_linear_1323_461)"/>
<defs>
<linearGradient id="paint0_linear_1323_461" x1="2.81818" y1="2.81818" x2="45.0909" y2="49.1818" gradientUnits="userSpaceOnUse">
<stop stop-color="white" stop-opacity="0.66"/>
<stop offset="1" stop-color="#C8C8C8" stop-opacity="0"/>
</linearGradient>
<linearGradient id="paint1_linear_1323_461" x1="11.6987" y1="8.11719" x2="11.6987" y2="18.8321" gradientUnits="userSpaceOnUse">
<stop stop-color="white" stop-opacity="0.66"/>
<stop offset="1" stop-color="white" stop-opacity="0"/>
</linearGradient>
<linearGradient id="paint2_linear_1323_461" x1="22.4481" y1="8.10938" x2="22.4481" y2="18.8244" gradientUnits="userSpaceOnUse">
<stop stop-color="white" stop-opacity="0.66"/>
<stop offset="1" stop-color="white" stop-opacity="0"/>
</linearGradient>
</defs>
</svg>
