<svg width="52" height="60" viewBox="0 0 52 60" fill="none" xmlns="http://www.w3.org/2000/svg">
<path fill-rule="evenodd" clip-rule="evenodd" d="M26.7135 0.178004C25.0452 0.479181 23.5942 1.06642 22.143 2.0276C21.3231 2.57078 3.48778 20.204 2.40458 21.5425C1.55505 22.5922 0.614833 24.4557 0.263855 25.7857L0.00085793 26.7818V39.5554C0.00085793 53.9149 -0.0626244 52.8411 0.902563 54.8114C1.7826 56.608 3.28933 58.0879 5.18307 59.0155C6.80063 59.808 7.32356 59.9131 9.95306 59.9741C12.1727 60.0258 12.2606 60.019 12.5736 59.7734C12.9809 59.4537 13.0174 58.8604 12.6501 58.529C12.4307 58.3312 12.1389 58.2976 10.0884 58.2349C8.01986 58.1717 7.68372 58.1325 6.92229 57.8664C4.36899 56.974 2.58831 55.0694 1.93653 52.5334C1.71911 51.6876 1.70875 51.145 1.71146 40.6793C1.71334 33.7154 1.75786 29.5239 1.83348 29.1976C2.29893 27.1888 4.10812 25.528 6.18418 25.2038C6.6136 25.1368 9.14793 25.083 11.9553 25.0813C17.3249 25.0782 17.8138 25.0365 19.2534 24.4579C21.5146 23.5491 23.5076 21.5924 24.4458 19.3598C25.0937 17.8179 25.1464 17.2462 25.1464 11.7439C25.1464 8.81393 25.1965 6.45256 25.2666 6.08505C25.6636 4.00154 27.3432 2.3132 29.452 1.8776C29.8607 1.79323 32.3978 1.76323 37.1152 1.78713L44.1674 1.82276L45.0193 2.13155C47.6038 3.06836 49.3547 4.94492 50.0051 7.47551C50.1954 8.21591 50.233 8.77373 50.233 10.8628V13.3636H47.7289H45.2249L43.2657 11.4007L41.3066 9.43773L41.2524 8.60639C41.1516 7.06089 40.3199 5.80532 38.9533 5.13594C38.2298 4.78156 38.0746 4.75015 37.0444 4.75027C36.0386 4.75038 35.8528 4.78577 35.2425 5.09316C33.5686 5.93622 32.6075 7.7829 32.9277 9.54027C33.1742 10.8929 33.9807 12.0085 35.1314 12.5887C35.7492 12.9002 37.0729 13.1874 37.3692 13.0742C37.4972 13.0254 38.3021 13.7451 40.0425 15.4649C41.7697 17.1716 42.6929 17.9978 43.0556 18.1615C43.5397 18.3801 43.8254 18.3978 46.9058 18.4001L50.233 18.4027V18.9887V19.5746H48.0596C46.6952 19.5746 45.7776 19.6238 45.5943 19.707C44.9967 19.9779 44.9436 20.9073 45.5085 21.2081C45.6497 21.2834 46.6299 21.3325 47.9874 21.3325H50.233V22.1528V22.9731H44.7437H39.2546L38.3955 23.802L37.5363 24.6309L36.9829 24.0801L36.4293 23.5293L37.354 22.5982C37.8625 22.086 38.4217 21.5917 38.5966 21.4997C38.8351 21.3743 39.4024 21.3325 40.8638 21.3325C42.656 21.3325 42.832 21.3136 43.0486 21.0981C43.4041 20.7443 43.3627 20.1219 42.9626 19.8088C42.6555 19.5684 42.5429 19.5588 40.4598 19.5951C38.598 19.6276 38.2181 19.6654 37.8663 19.8534C37.6396 19.9745 36.8181 20.693 36.0408 21.45L34.6275 22.8263L33.7689 22.8933C32.2335 23.0131 31.0437 23.7754 30.3203 25.1029C29.9332 25.8134 29.9164 25.8955 29.9164 27.0747C29.9164 28.1478 29.9524 28.3727 30.1983 28.8326C30.6361 29.6513 30.9961 30.0665 31.6599 30.5187C34.3316 32.3384 38.0223 30.5592 38.1965 27.3677L38.2413 26.5474L39.1405 25.6392L40.0397 24.7309H45.1364H50.233V25.3169V25.9028H49.0514C48.257 25.9028 47.7263 25.9619 47.432 26.083C47.152 26.198 46.1019 27.1445 44.5208 28.7065L42.0475 31.1499L41.1707 31.2168C39.5554 31.3401 38.2217 32.2634 37.5345 33.734C37.2753 34.2885 37.2236 34.5649 37.2236 35.3952C37.2236 36.2374 37.2742 36.4999 37.5508 37.0944C37.9762 38.0086 38.7769 38.8099 39.6789 39.2239C40.2895 39.5042 40.5503 39.5544 41.3997 39.5544C42.2536 39.5544 42.5088 39.5048 43.135 39.2174C44.5462 38.57 45.4772 37.2059 45.6007 35.605L45.6665 34.7506L47.5657 32.8463C49.2525 31.1548 49.5081 30.942 49.8519 30.942H50.239L50.2065 41.5769L50.1741 52.2119L49.9122 52.9736C49.5248 54.1004 48.8578 55.1567 47.9902 56.0177C47.1029 56.898 46.2565 57.4293 45.0313 57.8746L44.1674 58.1885L29.6555 58.2471C16.0833 58.302 15.1303 58.3188 14.9392 58.5092C14.6319 58.815 14.6708 59.5148 15.0103 59.7884C15.2778 60.0039 15.7053 60.0093 29.7855 59.9771C45.9498 59.94 44.6846 60.0047 46.5714 59.1191C48.7539 58.0949 50.4128 56.3864 51.2975 54.2519C52.0384 52.4641 51.9997 53.8026 51.9997 30.0045C51.9997 6.16064 52.0379 7.47375 51.2911 5.72458C50.7875 4.54483 50.1821 3.67388 49.1812 2.68937C47.8306 1.36056 46.239 0.525588 44.3833 0.172379C43.1586 -0.0608283 28.0099 -0.0559063 26.7135 0.178004ZM24.9566 2.61144C24.9094 2.69207 24.72 2.97953 24.5357 3.25036C24.3514 3.52118 24.091 3.9958 23.9568 4.30506C23.4417 5.49336 23.3797 6.28287 23.3797 11.6559C23.3797 17.3777 23.3391 17.7237 22.4726 19.3754C21.6338 20.9747 19.7381 22.5191 17.903 23.0986C17.5631 23.206 15.8084 23.2676 11.6019 23.3201L5.77196 23.3928L4.83233 23.7184C4.31552 23.8975 3.57906 24.2525 3.19581 24.5072C2.81244 24.7619 2.47489 24.9465 2.44568 24.9175C2.35382 24.826 3.10123 23.5322 3.70437 22.7387C4.45674 21.7488 22.3183 4.02404 23.0705 3.52072C23.5544 3.19716 24.8868 2.47128 25.0061 2.46648C25.0261 2.46566 25.0039 2.53093 24.9566 2.61144ZM38.2306 6.7221C39.9357 7.61777 39.9379 10.1574 38.2343 11.0091C37.2169 11.5177 36.1692 11.3637 35.3711 10.5883C34.1372 9.38945 34.5193 7.31836 36.1005 6.63608C36.7278 6.36537 37.6202 6.40147 38.2306 6.7221ZM47.3848 15.1214H50.233V15.8831V16.6449H47.0247H43.8165L41.6673 14.5087L39.5181 12.3726L40.0717 11.8134L40.6253 11.2542L42.5809 13.1878L44.5364 15.1214H47.3848ZM35.1211 24.9106C35.4951 25.0961 35.8462 25.3891 36.0569 25.6917C36.357 26.1226 36.3941 26.2755 36.3941 27.0832C36.3941 27.9221 36.3667 28.0244 36.0298 28.4408C34.9938 29.7218 33.5364 29.8717 32.385 28.8158C31.7689 28.2507 31.581 27.7473 31.6471 26.8385C31.7135 25.9248 32.1142 25.328 32.9349 24.9211C33.7254 24.5291 34.3457 24.5262 35.1211 24.9106ZM50.233 28.4224V29.1841H49.505H48.7769L46.8534 31.0854L44.9299 32.9866L44.372 32.431L43.8141 31.8754L45.9407 29.768L48.0672 27.6607H49.1501H50.233V28.4224ZM7.03489 31.2416C6.64127 31.5159 6.66954 32.2502 7.08612 32.5763C7.39835 32.8207 7.42438 32.8212 16.3421 32.7898L25.285 32.7584L25.5102 32.4817C25.802 32.123 25.7973 31.5897 25.4997 31.2936C25.2683 31.0633 25.1071 31.0592 16.2804 31.0592C8.33998 31.0592 7.2662 31.0804 7.03489 31.2416ZM42.1516 33.0784C43.2301 33.399 43.9949 34.6466 43.8209 35.8012C43.7286 36.4139 43.1769 37.2068 42.6166 37.5325C41.6642 38.086 40.3458 37.8702 39.5894 37.0372C38.6857 36.042 38.7279 34.6512 39.6907 33.6916C40.3922 32.9926 41.1924 32.7932 42.1516 33.0784ZM7.00862 35.8639C6.62585 36.2448 6.65411 36.7429 7.08011 37.1237L7.37515 37.3874H20.0166C31.883 37.3874 32.6733 37.3749 32.9063 37.1823C33.0428 37.0696 33.1872 36.8093 33.227 36.6041C33.2854 36.3032 33.2409 36.1729 32.9971 35.9303L32.6949 35.6296H19.9695C7.40118 35.6296 7.24123 35.6325 7.00862 35.8639ZM7.08011 40.4636C6.65411 40.8445 6.62585 41.3426 7.00862 41.7234C7.24123 41.9549 7.40118 41.9578 19.9695 41.9578H32.6949L32.9971 41.6571C33.2409 41.4145 33.2854 41.2842 33.227 40.9832C33.1872 40.778 33.0428 40.5178 32.9063 40.405C32.6733 40.2125 31.883 40.2 20.0166 40.2H7.37515L7.08011 40.4636ZM7.36196 44.8534C6.96752 44.9978 6.77307 45.2837 6.77307 45.7193C6.77307 46.5876 5.79916 46.5282 20.0407 46.5282H32.7848L33.0289 46.2194C33.1631 46.0496 33.273 45.8411 33.273 45.7561C33.273 45.4463 33.0045 45.0275 32.7245 44.9004C32.4267 44.7654 7.72766 44.7197 7.36196 44.8534ZM33.6635 50.9822C33.135 51.1941 33.0105 51.8214 33.3994 52.3132L33.6434 52.622H38.4715C41.6495 52.622 43.3794 52.5795 43.5331 52.4977C44.098 52.1969 44.0448 51.2674 43.4472 50.9966C43.093 50.8359 34.0613 50.8227 33.6635 50.9822Z" fill="#0073A8"/>
</svg>
