<svg width="47" height="50" viewBox="0 0 47 50" fill="none" xmlns="http://www.w3.org/2000/svg">
<path fill-rule="evenodd" clip-rule="evenodd" d="M5.48763 0.203632C4.12334 0.536484 3.22335 1.05061 2.14653 2.11201C1.40402 2.84402 1.08735 3.25679 0.773855 3.90073C-0.0490903 5.59111 0.000576137 4.23648 0.000576137 24.997C0.000576137 45.7575 -0.0490903 44.4029 0.773855 46.0933C1.08758 46.7379 1.40334 47.149 2.14653 47.8809C3.24133 48.9589 4.05297 49.4208 5.47745 49.7765C6.33898 49.9916 6.74242 50 16.292 50C25.8417 50 26.2451 49.9916 27.1066 49.7765C28.5326 49.4205 29.3429 48.959 30.4356 47.8809C31.5284 46.8027 31.9961 46.0033 32.357 44.5965C32.5665 43.7797 32.5835 43.3467 32.5835 38.825V33.9364L33.4062 34.5188C35.0472 35.6803 36.3864 36.0983 38.4666 36.0983C40.1113 36.0983 40.8827 35.9293 42.2566 35.2681C43.9475 34.4544 45.3159 33.1019 46.1549 31.4152C46.828 30.062 47 29.301 47 27.6759C47 26.0486 46.8283 25.2905 46.1506 23.9273C45.3112 22.239 43.9739 20.9183 42.2566 20.0821C40.6507 19.3002 40.433 19.2687 36.2887 19.2201L32.5835 19.1766V12.7285C32.5835 6.6467 32.5706 6.23036 32.357 5.39756C31.9966 3.99248 31.5283 3.19149 30.4356 2.11078C29.6968 1.38011 29.2745 1.06389 28.6238 0.753698C26.9914 -0.0244086 27.2801 -0.00688402 16.2132 0.00226886C7.19236 0.00963581 6.20683 0.0281645 5.48763 0.203632ZM26.945 3.93198C27.6824 4.28928 28.3178 4.93244 28.6649 5.67304C28.9018 6.17857 28.9073 6.31899 28.9384 12.6827L28.9701 19.1764L25.2615 19.2201C21.1134 19.2687 20.8962 19.3001 19.2901 20.0821C17.5709 20.9193 16.2004 22.2725 15.3862 23.9366C14.7158 25.3069 14.5467 26.0603 14.5467 27.6759C14.5467 28.6673 14.605 29.2811 14.748 29.7967C15.2234 31.5097 16.3784 33.2588 17.7377 34.3239C18.5189 34.936 19.928 35.632 20.9306 35.901C21.9356 36.1707 24.2115 36.1727 25.2297 35.9049C26.1625 35.6596 27.6003 34.9603 28.3736 34.3757L28.9721 33.9234L28.9393 38.8643C28.9078 43.6399 28.8986 43.8224 28.6649 44.321C28.3178 45.0616 27.6824 45.7047 26.945 46.062L26.3045 46.3723H16.292H6.27958L5.63912 46.062C4.90171 45.7047 4.26634 45.0616 3.91924 44.321L3.67747 43.8051L3.64783 25.2254C3.61536 4.83577 3.5778 6.01783 4.28897 5.04919C4.73144 4.44666 5.3185 4.01681 6.0343 3.77125C6.58188 3.58339 7.24304 3.57234 16.4618 3.59623L26.3045 3.62168L26.945 3.93198ZM15.6134 5.47112C13.8626 6.19743 14.2539 8.72742 16.1423 8.89028C17.0643 8.96986 17.8783 8.33586 18.0564 7.39947C18.1593 6.85822 17.8353 6.08737 17.352 5.72371C16.9154 5.39521 16.0865 5.27478 15.6134 5.47112ZM39.6545 22.9165C41.6242 23.4364 43.0173 24.9507 43.3642 26.9487C43.7001 28.8833 42.5838 31.1012 40.8323 31.9791C38.7891 33.0032 36.7064 32.7223 34.9855 31.1904C34.6289 30.873 34.2259 30.5551 34.09 30.484C33.9203 30.3953 32.8812 30.3548 30.7734 30.3548C28.6655 30.3548 27.6264 30.3953 27.4567 30.484C27.3208 30.5551 26.9178 30.873 26.5612 31.1904C24.4493 33.0703 21.5186 33.0451 19.5778 31.1303C17.6483 29.2266 17.6485 26.1249 19.5784 24.221C20.1744 23.6329 21.1851 23.0567 21.921 22.8856C22.154 22.8313 26.1122 22.7826 30.7168 22.7771C37.3747 22.7693 39.2046 22.7979 39.6545 22.9165ZM22.239 24.797C21.9768 24.9477 21.6978 25.2363 21.5602 25.4993C21.4084 25.7895 21.1682 26.0253 20.874 26.1727C20.3834 26.4187 19.9124 27.155 19.9124 27.6759C19.9124 28.1968 20.3834 28.9331 20.874 29.1791C21.1682 29.3265 21.4084 29.5623 21.5602 29.8525C21.8847 30.4727 22.521 30.8239 23.2168 30.767C23.867 30.7136 24.4782 30.29 24.6736 29.7571C24.7709 29.4916 24.9205 29.344 25.1896 29.248C25.3981 29.1735 25.7087 28.9314 25.88 28.7099C26.1349 28.3802 26.1914 28.1927 26.1914 27.6759C26.1914 27.1591 26.1349 26.9716 25.88 26.6418C25.7087 26.4204 25.3981 26.1783 25.1896 26.1038C24.9205 26.0078 24.7709 25.8602 24.6736 25.5947C24.3476 24.7053 23.1063 24.2987 22.239 24.797ZM38.6306 26.047C37.4892 26.5375 37.2196 28.0345 38.1138 28.9169C38.8073 29.601 39.8241 29.6375 40.555 29.0043C42.0778 27.6852 40.4914 25.2473 38.6306 26.047Z" fill="#0092FF"/>
</svg>
