<svg width="47" height="46" viewBox="0 0 47 46" fill="none" xmlns="http://www.w3.org/2000/svg">
<path fill-rule="evenodd" clip-rule="evenodd" d="M1.52463 0.121652C1.05973 0.265094 0.266809 1.06881 0.124252 1.54114C-0.0414173 2.09006 -0.0414173 17.1971 0.124252 17.746C0.277986 18.2554 1.06267 19.0235 1.58298 19.174C1.87055 19.2571 3.50413 19.2867 7.81097 19.2867H13.6491V22.9956V26.7045H7.81097C3.50413 26.7045 1.87055 26.7341 1.58298 26.8173C1.06267 26.9678 0.277986 27.7359 0.124252 28.2452C-0.0414173 28.7941 -0.0414173 43.9012 0.124252 44.4501C0.277986 44.9594 1.06267 45.7275 1.58298 45.878C2.14544 46.0407 20.6061 46.0407 21.1685 45.878C21.6888 45.7275 22.4735 44.9594 22.6272 44.4501C22.7063 44.1881 22.7424 43.2071 22.7424 41.3207V38.573H24.258H25.7735V41.3207C25.7735 43.2071 25.8096 44.1881 25.8887 44.4501C26.0425 44.9594 26.8271 45.7275 27.3475 45.878C27.9092 46.0405 44.8557 46.0405 45.4174 45.878C45.9378 45.7275 46.7224 44.9594 46.8762 44.4501C47.0397 43.9084 47.042 28.7925 46.8787 28.2589C46.8168 28.0566 46.5819 27.6904 46.3566 27.4452C45.6531 26.6792 45.8973 26.7045 39.2073 26.7045H33.3513V22.9956V19.2867H39.1894C43.4963 19.2867 45.1299 19.2571 45.4174 19.174C45.9378 19.0235 46.7224 18.2554 46.8762 17.746C47.0397 17.2044 47.042 2.08848 46.8787 1.55486C46.8168 1.35254 46.5819 0.986381 46.3566 0.741131C45.6354 -0.0441354 46.2353 0.000464049 36.4003 0.000464049C29.8755 0.000464049 27.6411 0.0282807 27.3475 0.113214C26.8271 0.263703 26.0425 1.03182 25.8887 1.54114C25.8096 1.80317 25.7735 2.78418 25.7735 4.67052V7.41826H23.5002H21.2269V4.67052C21.2269 2.81589 21.1903 1.80317 21.1142 1.55486C21.0523 1.35254 20.8174 0.986381 20.5921 0.741131C19.8698 -0.0454335 20.4805 -0.000834042 10.5774 0.00992176C4.50829 0.016505 1.75537 0.0505342 1.52463 0.121652ZM19.4788 1.71166L19.7113 1.9392V4.66941V7.39953L18.1196 7.43207L16.5279 7.46462L15.8123 7.81094C14.9504 8.228 14.4133 8.76505 13.9962 9.6269L13.6964 10.2463L13.6678 14.0247L13.6392 17.8032H7.81447H1.98962L1.75717 17.5755L1.52463 17.348V9.64359V1.9392L1.75717 1.71166L1.98962 1.48402H10.618H19.2463L19.4788 1.71166ZM45.2433 1.71166L45.4758 1.9392V9.64359V17.348L45.2433 17.5755L45.0108 17.8032H39.181H33.3513V16.3241V14.845L37.5428 14.8173L41.7343 14.7897L42.218 14.5398C42.9355 14.1693 43.2302 13.8899 43.5875 13.2413C43.8822 12.7063 43.9092 12.5907 43.9073 11.8689C43.9055 11.1928 43.8683 11.0112 43.6453 10.5908C43.3981 10.1247 42.7057 9.36543 42.5279 9.36543C42.4822 9.36543 42.4447 9.14475 42.4447 8.87492C42.4447 6.91487 40.9792 5.10196 38.9833 4.5931C37.4099 4.19198 35.743 4.68897 34.5798 5.90623C34.2688 6.2316 34.0144 6.53266 34.0144 6.57532C34.0144 6.61788 33.8404 6.68 33.6276 6.71329C33.0794 6.79915 32.364 7.17746 31.9385 7.60676L31.574 7.97441L31.0181 7.72099C30.4955 7.4827 30.3676 7.46554 28.8757 7.43356L27.2891 7.39953V4.66941V1.9392L27.5216 1.71166L27.7541 1.48402H36.3825H45.0108L45.2433 1.71166ZM9.10241 7.40824V11.9529L8.63098 11.8982C7.89167 11.8126 7.3366 12.0106 6.7785 12.5592C5.82029 13.5012 5.82029 14.6894 6.7785 15.6273C7.4479 16.2826 8.15595 16.4637 9.04407 16.2069C9.56437 16.0564 10.3491 15.2883 10.5028 14.7789C10.5869 14.5003 10.618 13.0677 10.618 9.47057C10.618 6.76085 10.65 4.5447 10.689 4.54572C10.728 4.54674 12.0585 4.69092 13.6455 4.86607C15.2325 5.04122 16.5478 5.16798 16.5685 5.14767C16.612 5.1052 16.7701 3.76722 16.7357 3.7331C16.7231 3.72058 15.1817 3.54459 13.3102 3.34181C11.4387 3.13912 9.72645 2.94857 9.50498 2.91835L9.10241 2.86345V7.40824ZM39.1974 6.24597C39.8954 6.59219 40.1982 6.87852 40.5505 7.52544C40.8186 8.01789 40.8676 8.20473 40.8741 8.75884C40.8783 9.11795 40.8454 9.60725 40.8009 9.8461L40.7201 10.2803L41.0944 10.379C42.5491 10.7624 42.9066 12.2658 41.7452 13.1149C41.4921 13.3001 41.355 13.307 37.4271 13.3322L33.3706 13.3581L33.3367 11.8023C33.3036 10.2759 33.2972 10.2343 32.9999 9.61893L32.6968 8.99148L32.9814 8.67418C33.3398 8.27464 33.8007 8.12072 34.4038 8.19898L34.8669 8.25916L35.03 7.9082C35.4687 6.96503 36.0633 6.40007 36.9513 6.08324C37.5621 5.86534 38.5784 5.93896 39.1974 6.24597ZM30.2619 9.01457C30.7822 9.16505 31.5669 9.93317 31.7206 10.4425C31.7863 10.6603 31.8358 11.3667 31.8358 12.0883V13.3525H23.5002H15.1646V12.0883C15.1646 11.3667 15.2141 10.6603 15.2798 10.4425C15.4224 9.97016 16.2153 9.16644 16.6802 9.023C17.175 8.87038 29.7362 8.8625 30.2619 9.01457ZM19.7113 11.1272V11.8689H20.4691H21.2269V11.1272V10.3854H20.4691H19.7113V11.1272ZM22.7424 11.1272V11.8689H25.0158H27.2891V11.1272V10.3854H25.0158H22.7424V11.1272ZM8.86987 13.5801C9.0165 13.7236 9.10241 13.9136 9.10241 14.0943C9.10241 14.2749 9.0165 14.465 8.86987 14.6084C8.72334 14.7519 8.52915 14.836 8.34464 14.836C8.16012 14.836 7.96594 14.7519 7.8194 14.6084C7.67277 14.465 7.58686 14.2749 7.58686 14.0943C7.58686 13.9136 7.67277 13.7236 7.8194 13.5801C7.96594 13.4366 8.16012 13.3525 8.34464 13.3525C8.52915 13.3525 8.72334 13.4366 8.86987 13.5801ZM31.8358 22.9956V31.1552H23.5002H15.1646V22.9956V14.836H23.5002H31.8358V22.9956ZM16.6802 22.9956V29.6716H23.5002H30.3202V22.9956V16.3196H23.5002H16.6802V22.9956ZM28.8047 22.9956V28.1881H23.5002H18.1958V22.9956V17.8032H23.5002H28.8047V22.9956ZM13.6491 29.9034C13.6491 30.8469 13.6344 31.6188 13.6166 31.6188C13.5987 31.6188 13.3322 31.5261 13.0246 31.4128C12.4785 31.2117 12.352 31.206 7.75262 31.1761L3.04018 31.1456V36.3428V41.5401H11.3758H19.7113V40.0565V38.573H20.4691H21.2269V41.3125V44.052L20.9943 44.2796L20.7619 44.5072H11.3758H1.98962L1.75717 44.2796L1.52463 44.052V36.3476V28.6432L1.75717 28.4157L1.98962 28.1881H7.8194H13.6491V29.9034ZM45.2433 28.4157L45.4758 28.6432V36.3476V44.052L45.2433 44.2796L45.0108 44.5072H36.3825H27.7541L27.5216 44.2796L27.2891 44.052V41.3125V38.573H28.6548C29.406 38.573 30.088 38.5477 30.1704 38.5167C30.3043 38.4664 30.3202 38.6873 30.3202 40.6029V42.7453L36.8087 39.5699C40.3774 37.8235 43.2972 36.3734 43.2972 36.3476C43.2972 36.3217 41.0594 35.2054 38.3243 33.867L33.3513 31.4336V29.8108V28.1881H39.181H45.0108L45.2433 28.4157ZM7.58686 32.6763C7.58686 32.697 7.43691 32.8897 7.25353 33.1044C6.45521 34.0399 5.99448 35.5026 6.10303 36.7575C6.18857 37.7467 6.78579 39.2115 7.26111 39.5977C7.34171 39.6631 7.44951 39.7932 7.50066 39.8867C7.58885 40.0481 7.5178 40.0565 6.07462 40.0565H4.55574V36.3476V32.6387H6.0713C6.90486 32.6387 7.58686 32.6556 7.58686 32.6763ZM12.9725 33.0248L13.6017 33.3342L13.6543 34.5396C13.7001 35.5908 13.7398 35.8152 13.9647 36.2948C14.1065 36.5973 14.3784 37.0308 14.5688 37.2584L14.9151 37.672L14.6508 38.1663C14.3076 38.8078 13.6975 39.3507 12.9084 39.7167C12.3361 39.9821 12.1895 40.0102 11.3758 40.0102C10.562 40.0102 10.4154 39.9821 9.84314 39.7167C8.96251 39.3084 8.41407 38.7827 7.98801 37.9388C7.65411 37.2775 7.63422 37.1884 7.63422 36.3525C7.63422 35.5504 7.66254 35.4083 7.93401 34.8474C8.31461 34.0609 8.85651 33.4852 9.56333 33.1165C10.3114 32.7262 10.7179 32.6391 11.599 32.6804C12.2103 32.709 12.4556 32.7705 12.9725 33.0248ZM31.8358 33.9029C31.8358 34.6245 31.7863 35.3309 31.7206 35.5487C31.5669 36.0581 30.7822 36.8262 30.2619 36.9767C29.9727 37.0603 28.2261 37.0894 23.5002 37.0894C18.7743 37.0894 17.0277 37.0603 16.7386 36.9767C16.2182 36.8262 15.4336 36.0581 15.2798 35.5487C15.2141 35.3309 15.1646 34.6245 15.1646 33.9029V32.6387H23.5002H31.8358V33.9029ZM39.8872 36.3476C39.8872 36.3736 38.0756 37.2814 35.8615 38.3647L31.8358 40.3344V39.0994V37.8644L32.2733 37.4174C32.5139 37.1716 32.8433 36.6947 33.0053 36.3578C33.2835 35.7792 33.3019 35.6715 33.336 34.4289L33.3721 33.1128L36.6297 34.7065C38.4212 35.583 39.8872 36.3214 39.8872 36.3476ZM10.618 34.2435C10.4356 34.2998 10.0719 34.5563 9.80961 34.8136C9.14021 35.4703 8.95531 36.1632 9.2176 37.0323C9.37133 37.5416 10.156 38.3097 10.6763 38.4602C11.5644 38.7171 12.2725 38.536 12.9419 37.8807C13.8675 36.9746 13.8952 35.822 13.0144 34.863C12.4013 34.1956 11.5157 33.9665 10.618 34.2435ZM20.4691 34.8641V35.6059H23.5002H26.5313V34.8641V34.1223H23.5002H20.4691V34.8641ZM11.901 35.8335C12.3709 36.2934 12.038 37.0894 11.3758 37.0894C10.9863 37.0894 10.618 36.7288 10.618 36.3476C10.618 35.9665 10.9863 35.6059 11.3758 35.6059C11.5603 35.6059 11.7544 35.69 11.901 35.8335ZM17.4143 38.5462L18.1958 38.5963V39.3264V40.0565H16.6802C15.8466 40.0565 15.1646 40.0351 15.1646 40.0089C15.1646 39.9826 15.3474 39.7417 15.5706 39.4733C15.7939 39.205 16.0349 38.8477 16.1061 38.6793C16.2114 38.4304 16.2726 38.3848 16.4342 38.4347C16.5434 38.4685 16.9845 38.5186 17.4143 38.5462Z" fill="#E71E96"/>
</svg>
