<svg width="51" height="50" viewBox="0 0 51 50" fill="none" xmlns="http://www.w3.org/2000/svg">
<path d="M10.7372 3.71094L13.3593 6.18319L10.704 8.82136C10.704 8.57247 10.704 8.30699 10.704 8.04152C10.7228 7.83533 10.6606 7.62995 10.5304 7.46889C10.4003 7.30782 10.2126 7.20375 10.007 7.17872C9.06366 6.94322 8.06567 7.08323 7.22355 7.56921C6.38142 8.0552 5.76099 8.84918 5.49308 9.7837C5.38979 10.1675 5.34503 10.5646 5.36032 10.9618C5.36032 14.2802 5.36032 17.7812 5.36032 21.1826C5.31941 21.5776 5.36657 21.9768 5.4984 22.3515C5.63023 22.7261 5.84346 23.0669 6.12275 23.3493C6.40204 23.6317 6.74045 23.8487 7.11365 23.9848C7.48685 24.1208 7.88556 24.1724 8.28112 24.136C8.72919 24.136 9.19386 24.136 9.64194 24.136C10.3887 24.136 10.6874 23.8208 10.704 23.0907C10.704 22.875 10.704 22.6593 10.704 22.3606C10.798 22.4068 10.8869 22.4624 10.9696 22.5266L13.4921 24.7997L10.7206 27.4545C10.7206 27.2885 10.7206 27.0397 10.7206 26.8074C10.7359 26.6802 10.7226 26.5512 10.6818 26.4298C10.6409 26.3084 10.5736 26.1976 10.4846 26.1055C10.3956 26.0133 10.2872 25.9421 10.1673 25.8971C10.0474 25.852 9.91895 25.8342 9.7913 25.845C9.17727 25.845 8.56323 25.845 7.9658 25.845C7.27327 25.8538 6.61232 26.1361 6.12728 26.6304C5.64223 27.1247 5.37248 27.7907 5.37692 28.4832C5.37692 32.0892 5.37692 35.7008 5.37692 39.3179C5.3894 40.2296 5.75381 41.1012 6.39399 41.7505C7.03418 42.3999 7.90059 42.7767 8.81217 42.8023H9.11089C10.5215 42.8023 10.6543 42.7027 10.7704 41.2924C10.7624 41.2541 10.7624 41.2146 10.7704 41.1763L13.3759 43.6319L10.787 46.2203C10.7774 46.0933 10.7774 45.9657 10.787 45.8387C10.787 44.81 10.5381 44.5777 9.49258 44.5943C8.4001 44.7151 7.29569 44.5253 6.30626 44.0467C5.41631 43.5692 4.68213 42.8463 4.19087 41.964C3.69961 41.0816 3.47192 40.0769 3.53483 39.069C3.53483 35.5681 3.53483 32.0837 3.53483 28.5993C3.5509 28.2397 3.49275 27.8807 3.36398 27.5446C3.23522 27.2085 3.0386 26.9025 2.78638 26.6456C2.53417 26.3888 2.23176 26.1866 1.89799 26.0517C1.56422 25.9169 1.20625 25.8521 0.84637 25.8616H0V24.136C0.265527 24.136 0.51446 24.136 0.779987 24.136C1.15507 24.1538 1.52964 24.0914 1.87866 23.9529C2.22768 23.8144 2.54311 23.603 2.80388 23.3329C3.06464 23.0627 3.26474 22.7401 3.3908 22.3864C3.51685 22.0328 3.56595 21.6563 3.53483 21.2821C3.53483 17.8144 3.53483 14.3466 3.53483 10.8622C3.49653 9.61194 3.89957 8.38808 4.67333 7.40514C5.44708 6.42221 6.54217 5.74291 7.76666 5.48631C8.31448 5.38866 8.86974 5.3387 9.4262 5.33698C10.3555 5.33698 10.6211 5.07151 10.6211 4.17552C10.7206 4.0096 10.7372 3.82708 10.7372 3.71094Z" fill="#410EAD"/>
<path d="M29.8246 21.092C29.1774 22.1208 30.1068 22.8674 30.3059 23.7302C30.3059 23.9293 30.7042 24.1284 30.9365 24.2114C31.1689 24.2943 31.3016 24.676 31.3016 24.9746C31.3016 25.2733 31.3016 25.6051 30.9199 25.7213C30.7227 25.7674 30.5434 25.8708 30.4047 26.0184C30.2659 26.1659 30.1738 26.3512 30.1399 26.5509C30.0585 26.8513 29.9415 27.141 29.7914 27.4137C29.6734 27.5998 29.6107 27.8156 29.6107 28.0359C29.6107 28.2562 29.6734 28.472 29.7914 28.6581C30.0238 29.0397 29.6919 29.1891 29.5093 29.3882C29.3268 29.5873 29.1608 29.9025 28.7791 29.6702C28.5917 29.5559 28.3764 29.4954 28.1568 29.4954C27.9372 29.4954 27.7219 29.5559 27.5345 29.6702C27.2646 29.8263 26.9741 29.9436 26.6715 30.0187C26.4734 30.0565 26.2902 30.1499 26.1432 30.288C25.9963 30.4261 25.8917 30.6032 25.8417 30.7985C25.7256 31.2299 25.4103 31.1801 25.0949 31.1801C24.7796 31.1801 24.4643 31.2631 24.3481 30.8151C24.2767 30.6282 24.1554 30.4644 23.9974 30.3415C23.8394 30.2187 23.6508 30.1414 23.452 30.1182C23.1803 30.0449 22.9184 29.939 22.672 29.803C22.4747 29.6738 22.244 29.605 22.0082 29.605C21.7724 29.605 21.5417 29.6738 21.3444 29.803C20.9793 30.0187 20.8465 29.6868 20.664 29.5043C20.4814 29.3218 20.1329 29.1227 20.2989 28.7245C20.4198 28.5334 20.484 28.3118 20.484 28.0857C20.484 27.8595 20.4198 27.638 20.2989 27.4469C20.1515 27.1671 20.0347 26.8722 19.9504 26.5675C19.9114 26.3788 19.821 26.2046 19.6892 26.0641C19.5574 25.9235 19.3894 25.8221 19.2036 25.7711C18.7721 25.6715 18.8053 25.3563 18.8053 25.041C18.8053 24.7257 18.8053 24.4271 19.2036 24.2446C19.5116 24.0465 19.7631 23.7721 19.9338 23.4481C20.0997 23.1993 20.1329 22.884 20.2823 22.6351C20.4072 22.4332 20.4733 22.2005 20.4733 21.9631C20.4733 21.7257 20.4072 21.493 20.2823 21.2911C20.0499 20.9095 20.4316 20.7768 20.5976 20.5777C20.7635 20.3786 20.9295 20.0799 21.2946 20.2956C21.4919 20.4248 21.7226 20.4936 21.9584 20.4936C22.1942 20.4936 22.4249 20.4248 22.6222 20.2956C22.8579 20.1498 23.1157 20.0434 23.3856 19.9804C23.5976 19.9458 23.795 19.8507 23.954 19.7064C24.113 19.5621 24.2269 19.3749 24.2818 19.1673C24.3979 18.7359 24.7464 18.8189 25.0452 18.8189C25.3439 18.8189 25.6426 18.8189 25.7588 19.1673C25.8074 19.3723 25.9151 19.5585 26.0685 19.703C26.2218 19.8475 26.4142 19.9439 26.6217 19.9804C26.9252 20.0606 27.2157 20.1835 27.4847 20.3454C27.6674 20.4471 27.873 20.5005 28.0821 20.5005C28.2912 20.5005 28.4969 20.4471 28.6796 20.3454C28.9949 20.1629 29.8246 20.8266 29.8246 21.092ZM25.1115 28.5751C25.8186 28.5751 26.5098 28.365 27.0972 27.9716C27.6847 27.5781 28.142 27.019 28.411 26.3652C28.6801 25.7114 28.7488 24.9925 28.6084 24.2996C28.468 23.6067 28.1248 22.9711 27.6225 22.4736C27.1202 21.976 26.4814 21.6389 25.7871 21.505C25.0928 21.3711 24.3743 21.4465 23.723 21.7216C23.0716 21.9967 22.5167 22.4591 22.1286 23.0501C21.7406 23.6411 21.5369 24.3341 21.5435 25.041C21.5435 25.5079 21.636 25.9702 21.8157 26.4012C21.9954 26.8321 22.2588 27.2232 22.5905 27.5518C22.9223 27.8804 23.3159 28.1401 23.7486 28.3157C24.1813 28.4914 24.6445 28.5795 25.1115 28.5751Z" fill="#410EAD"/>
<path d="M29.8209 2.3047C29.8209 2.3047 29.8209 2.3047 29.8209 2.40426C29.2068 3.44957 30.1528 4.19621 30.3519 5.0756C30.3519 5.24153 30.6506 5.39086 30.8332 5.44064C31.0157 5.49041 31.331 5.83885 31.331 6.22047C31.331 6.6021 31.331 6.96712 30.8166 7.03349C30.7508 7.05662 30.6891 7.09024 30.634 7.13305C30.3029 7.49894 30.0522 7.93009 29.8978 8.39875C29.7435 8.86741 29.689 9.36319 29.7379 9.85417C29.937 10.2524 29.7379 10.4349 29.4889 10.6506C29.24 10.8663 29.0741 11.1816 28.6758 10.9327C28.5111 10.8314 28.3215 10.7778 28.1281 10.7778C27.9348 10.7778 27.7452 10.8314 27.5805 10.9327C27.2882 11.0867 26.9827 11.2145 26.6677 11.3143C26.4601 11.3485 26.2667 11.4419 26.1107 11.5831C25.9547 11.7243 25.8428 11.9075 25.7882 12.1107C25.672 12.5587 25.3235 12.4758 25.0248 12.4758C24.7261 12.4758 24.4273 12.4757 24.3112 12.1273C24.2541 11.9164 24.1378 11.7261 23.9761 11.5791C23.8143 11.4321 23.6139 11.3345 23.3984 11.2977C23.117 11.2145 22.8446 11.1033 22.5853 10.9659C22.4083 10.8481 22.2004 10.7853 21.9878 10.7853C21.7752 10.7853 21.5674 10.8481 21.3904 10.9659C21.0419 11.1816 20.8593 10.9659 20.6602 10.717C20.461 10.4681 20.0959 10.3022 20.3615 9.88736C20.4714 9.71974 20.53 9.52367 20.53 9.32322C20.53 9.12278 20.4714 8.9267 20.3615 8.75909C20.2214 8.49896 20.1048 8.22688 20.013 7.94607C19.9786 7.71903 19.8786 7.50697 19.7253 7.336C19.572 7.16502 19.372 7.04258 19.15 6.98372C18.7351 6.86757 18.8347 6.53573 18.8347 6.25366C18.8347 5.97159 18.7517 5.65634 19.1666 5.54019C19.3776 5.48313 19.5679 5.36687 19.7149 5.20516C19.8619 5.04345 19.9596 4.84305 19.9964 4.62762C20.078 4.34309 20.1951 4.06994 20.3449 3.81459C20.4592 3.62719 20.5197 3.41191 20.5197 3.19239C20.5197 2.97286 20.4592 2.75758 20.3449 2.57018C20.1125 2.18855 20.4444 2.03923 20.627 1.84012C20.8095 1.64101 20.9755 1.32576 21.3572 1.55805C21.5586 1.66831 21.7873 1.71905 22.0165 1.70436C22.2456 1.68968 22.4659 1.61016 22.6516 1.47509C22.8774 1.34873 23.1168 1.24853 23.3652 1.17643C23.5902 1.1433 23.8009 1.04577 23.9717 0.89562C24.1424 0.745466 24.2661 0.549104 24.3278 0.330224C24.4439 -0.101175 24.7758 0.0149667 25.0414 0.0149667C25.3069 0.0149667 25.6554 -0.101179 25.7716 0.313628C25.8274 0.534288 25.9467 0.733702 26.1149 0.887094C26.2831 1.04049 26.4926 1.1411 26.7175 1.17643C27.0021 1.25807 27.2753 1.37513 27.5307 1.52486C27.7088 1.62216 27.9085 1.67315 28.1115 1.67315C28.3145 1.67315 28.5142 1.62216 28.6924 1.52486C28.9745 1.42531 29.7877 1.93967 29.8209 2.3047ZM25.1078 2.68632C24.6333 2.6684 24.1601 2.74669 23.7167 2.91647C23.2733 3.08624 22.8688 3.34399 22.5277 3.6742C22.1866 4.00441 21.9159 4.40024 21.7318 4.83784C21.5477 5.27544 21.4542 5.74576 21.4568 6.22047C21.4504 6.92383 21.6522 7.61336 22.0367 8.2024C22.4212 8.79143 22.9713 9.25368 23.6178 9.53102C24.2643 9.80836 24.9784 9.88841 25.6703 9.76113C26.3622 9.63384 27.0011 9.30488 27.5065 8.81562C28.0119 8.32636 28.3614 7.69862 28.511 7.01132C28.6606 6.32403 28.6037 5.60785 28.3473 4.95282C28.091 4.29779 27.6467 3.73315 27.0703 3.32988C26.4939 2.92661 25.8111 2.70271 25.1078 2.68632Z" fill="#410EAD"/>
<path d="M31.272 43.7541C31.3715 44.1855 31.272 44.4841 30.7907 44.5837C30.7249 44.5707 30.6573 44.5707 30.5915 44.5837C30.2608 44.9627 30.0119 45.4059 29.8605 45.8856C29.7092 46.3653 29.6586 46.871 29.712 47.3712C29.8945 47.7362 29.712 47.9187 29.4962 48.1344C29.2805 48.3501 29.098 48.6488 28.6333 48.4663C28.2738 48.3757 27.8975 48.3757 27.538 48.4663C27.2559 48.4663 27.0069 48.7317 26.7248 48.7981C26.4899 48.835 26.2708 48.9394 26.094 49.0984C25.9172 49.2575 25.7905 49.4644 25.7291 49.6941C25.6295 50.0923 25.3142 49.9928 25.0487 49.9762C24.7831 49.9596 24.4346 50.1255 24.3185 49.6941C24.2534 49.4663 24.1255 49.2615 23.9494 49.103C23.7733 48.9445 23.5561 48.8389 23.3227 48.7981C23.0562 48.7252 22.7997 48.6193 22.5594 48.4829C22.3824 48.3651 22.1745 48.3023 21.9619 48.3023C21.7493 48.3023 21.5415 48.3651 21.3645 48.4829C20.9994 48.6986 20.8168 48.4829 20.6343 48.2174C20.4517 47.9519 20.0701 47.869 20.319 47.4541C20.437 47.2681 20.4997 47.0523 20.4997 46.8319C20.4997 46.6116 20.437 46.3958 20.319 46.2097C20.1692 45.9544 20.0521 45.6812 19.9705 45.3967C19.9362 45.1891 19.8429 44.9958 19.7016 44.8398C19.5604 44.6839 19.3771 44.5719 19.1739 44.5173C18.7424 44.4012 18.8254 44.0693 18.8088 43.7707C18.7922 43.472 18.8088 43.1402 19.1905 43.024C19.3871 42.971 19.5648 42.8634 19.7028 42.7136C19.8408 42.5639 19.9336 42.3781 19.9705 42.1778C20.059 41.8588 20.1872 41.5522 20.3522 41.2652C20.4582 41.0962 20.5144 40.9006 20.5144 40.7011C20.5144 40.5015 20.4582 40.306 20.3522 40.137C20.1198 39.7387 20.3522 39.5562 20.6343 39.3571C20.9164 39.158 21.0326 38.8428 21.4309 39.0916C21.5985 39.2016 21.7946 39.2601 21.9951 39.2601C22.1956 39.2601 22.3917 39.2016 22.5594 39.0916C22.8195 38.9516 23.0917 38.835 23.3725 38.7432C23.5988 38.7068 23.8099 38.6062 23.9806 38.4532C24.1513 38.3002 24.2743 38.1014 24.3351 37.8804C24.4346 37.4656 24.7832 37.5652 25.0653 37.5652C25.3474 37.5652 25.6793 37.4822 25.7789 37.897C25.836 38.108 25.9522 38.2982 26.114 38.4452C26.2757 38.5922 26.4762 38.6899 26.6916 38.7266C26.9609 38.8072 27.222 38.9127 27.4716 39.0419C27.6613 39.1668 27.8834 39.2333 28.1105 39.2333C28.3376 39.2333 28.5598 39.1668 28.7495 39.0419C29.1311 38.8262 29.2805 39.158 29.4797 39.3405C29.6788 39.523 29.9941 39.689 29.7618 40.0706C29.6445 40.263 29.5825 40.484 29.5825 40.7094C29.5825 40.9347 29.6445 41.1557 29.7618 41.3482C29.9277 41.6303 29.9775 41.9787 30.1435 42.2608C30.2911 42.5481 30.515 42.7892 30.7907 42.9576C31.2056 43.1567 31.3715 43.3559 31.272 43.7541ZM24.9823 47.3712C25.6893 47.381 26.3833 47.1806 26.9762 46.7954C27.5691 46.4102 28.0342 45.8576 28.3123 45.2076C28.5905 44.5577 28.6693 43.8398 28.5386 43.145C28.4079 42.4502 28.0738 41.8099 27.5785 41.3054C27.0832 40.8009 26.4491 40.4548 25.7568 40.3112C25.0644 40.1676 24.345 40.2329 23.6899 40.4989C23.0347 40.7648 22.4734 41.2193 22.0771 41.8048C21.6808 42.3903 21.4674 43.0803 21.4641 43.7873C21.4575 44.2541 21.5435 44.7177 21.7172 45.1512C21.8908 45.5846 22.1487 45.9794 22.4758 46.3126C22.8029 46.6459 23.1929 46.911 23.6231 47.0927C24.0533 47.2744 24.5153 47.369 24.9823 47.3712Z" fill="#410EAD"/>
<path d="M36.7227 25.8985V24.1397H46.0327C47.211 24.1397 47.3935 23.9738 47.4101 22.7792V22.5469L49.999 24.9528L47.3437 27.6241C47.3437 27.3088 47.3437 27.0268 47.3437 26.7613C47.3606 26.6641 47.3561 26.5645 47.3306 26.4692C47.3051 26.374 47.2592 26.2854 47.196 26.2096C47.1329 26.1339 47.054 26.0727 46.9649 26.0305C46.8758 25.9882 46.7785 25.9658 46.6799 25.9649H44.8544H36.7227V25.8985Z" fill="#410EAD"/>
<path d="M36.7227 7.13385V5.34188H46.0659C47.1944 5.34188 47.3935 5.15937 47.4101 4.01451C47.4156 3.93163 47.4156 3.8485 47.4101 3.76562L49.999 6.23787L47.3437 8.79308V8.16257C47.3437 7.39933 47.211 7.24999 46.4642 7.18363C45.7174 7.11726 45.3523 7.18363 44.8046 7.18363H36.7227V7.13385Z" fill="#410EAD"/>
<path d="M47.3437 46.3917C47.3437 46.0764 47.3437 45.8441 47.3437 45.6118C47.3437 44.9481 47.1778 44.7656 46.5305 44.7158C45.8833 44.6661 45.3689 44.7158 44.871 44.7158H36.7227V42.8907H45.9829C47.1778 42.8907 47.3603 42.7082 47.3935 41.4969V41.2812L49.999 43.7203L47.3437 46.3917Z" fill="#410EAD"/>
<path d="M11.7372 3.71094L14.3593 6.18319L11.704 8.82136C11.704 8.57247 11.704 8.30699 11.704 8.04152C11.7228 7.83533 11.6606 7.62995 11.5304 7.46889C11.4003 7.30782 11.2126 7.20375 11.007 7.17872C10.0637 6.94322 9.06567 7.08323 8.22355 7.56921C7.38142 8.0552 6.76099 8.84918 6.49308 9.7837C6.38979 10.1675 6.34503 10.5646 6.36032 10.9618C6.36032 14.2802 6.36032 17.7812 6.36032 21.1826C6.31941 21.5776 6.36657 21.9768 6.4984 22.3515C6.63023 22.7261 6.84346 23.0669 7.12275 23.3493C7.40204 23.6317 7.74045 23.8487 8.11365 23.9848C8.48685 24.1208 8.88556 24.1724 9.28112 24.136C9.72919 24.136 10.1939 24.136 10.6419 24.136C11.3887 24.136 11.6874 23.8208 11.704 23.0907C11.704 22.875 11.704 22.6593 11.704 22.3606C11.798 22.4068 11.8869 22.4624 11.9696 22.5266L14.4921 24.7997L11.7206 27.4545C11.7206 27.2885 11.7206 27.0397 11.7206 26.8074C11.7359 26.6802 11.7226 26.5512 11.6818 26.4298C11.6409 26.3084 11.5736 26.1976 11.4846 26.1055C11.3956 26.0133 11.2872 25.9421 11.1673 25.8971C11.0474 25.852 10.919 25.8342 10.7913 25.845C10.1773 25.845 9.56323 25.845 8.9658 25.845C8.27327 25.8538 7.61232 26.1361 7.12728 26.6304C6.64223 27.1247 6.37248 27.7907 6.37692 28.4832C6.37692 32.0892 6.37692 35.7008 6.37692 39.3179C6.3894 40.2296 6.75381 41.1012 7.39399 41.7505C8.03418 42.3999 8.90059 42.7767 9.81217 42.8023H10.1109C11.5215 42.8023 11.6543 42.7027 11.7704 41.2924C11.7624 41.2541 11.7624 41.2146 11.7704 41.1763L14.3759 43.6319L11.787 46.2203C11.7774 46.0933 11.7774 45.9657 11.787 45.8387C11.787 44.81 11.5381 44.5777 10.4926 44.5943C9.4001 44.7151 8.29569 44.5253 7.30626 44.0467C6.41631 43.5692 5.68213 42.8463 5.19087 41.964C4.69961 41.0816 4.47192 40.0769 4.53483 39.069C4.53483 35.5681 4.53483 32.0837 4.53483 28.5993C4.5509 28.2397 4.49275 27.8807 4.36398 27.5446C4.23522 27.2085 4.0386 26.9025 3.78638 26.6456C3.53417 26.3888 3.23176 26.1866 2.89799 26.0517C2.56422 25.9169 2.20625 25.8521 1.84637 25.8616H1V24.136C1.26553 24.136 1.51446 24.136 1.77999 24.136C2.15507 24.1538 2.52964 24.0914 2.87866 23.9529C3.22768 23.8144 3.54311 23.603 3.80388 23.3329C4.06464 23.0627 4.26474 22.7401 4.3908 22.3864C4.51685 22.0328 4.56595 21.6563 4.53483 21.2821C4.53483 17.8144 4.53483 14.3466 4.53483 10.8622C4.49653 9.61194 4.89957 8.38808 5.67333 7.40514C6.44708 6.42221 7.54217 5.74291 8.76666 5.48631C9.31448 5.38866 9.86974 5.3387 10.4262 5.33698C11.3555 5.33698 11.6211 5.07151 11.6211 4.17552C11.7206 4.0096 11.7372 3.82708 11.7372 3.71094Z" fill="url(#paint0_linear_1407_1379)"/>
<path d="M30.8246 21.092C30.1774 22.1208 31.1068 22.8674 31.3059 23.7302C31.3059 23.9293 31.7042 24.1284 31.9365 24.2114C32.1689 24.2943 32.3016 24.676 32.3016 24.9746C32.3016 25.2733 32.3016 25.6051 31.9199 25.7213C31.7227 25.7674 31.5434 25.8708 31.4047 26.0184C31.2659 26.1659 31.1738 26.3512 31.1399 26.5509C31.0585 26.8513 30.9415 27.141 30.7914 27.4137C30.6734 27.5998 30.6107 27.8156 30.6107 28.0359C30.6107 28.2562 30.6734 28.472 30.7914 28.6581C31.0238 29.0397 30.6919 29.1891 30.5093 29.3882C30.3268 29.5873 30.1608 29.9025 29.7791 29.6702C29.5917 29.5559 29.3764 29.4954 29.1568 29.4954C28.9372 29.4954 28.7219 29.5559 28.5345 29.6702C28.2646 29.8263 27.9741 29.9436 27.6715 30.0187C27.4734 30.0565 27.2902 30.1499 27.1432 30.288C26.9963 30.4261 26.8917 30.6032 26.8417 30.7985C26.7256 31.2299 26.4103 31.1801 26.0949 31.1801C25.7796 31.1801 25.4643 31.2631 25.3481 30.8151C25.2767 30.6282 25.1554 30.4644 24.9974 30.3415C24.8394 30.2187 24.6508 30.1414 24.452 30.1182C24.1803 30.0449 23.9184 29.939 23.672 29.803C23.4747 29.6738 23.244 29.605 23.0082 29.605C22.7724 29.605 22.5417 29.6738 22.3444 29.803C21.9793 30.0187 21.8465 29.6868 21.664 29.5043C21.4814 29.3218 21.1329 29.1227 21.2989 28.7245C21.4198 28.5334 21.484 28.3118 21.484 28.0857C21.484 27.8595 21.4198 27.638 21.2989 27.4469C21.1515 27.1671 21.0347 26.8722 20.9504 26.5675C20.9114 26.3788 20.821 26.2046 20.6892 26.0641C20.5574 25.9235 20.3894 25.8221 20.2036 25.7711C19.7721 25.6715 19.8053 25.3563 19.8053 25.041C19.8053 24.7257 19.8053 24.4271 20.2036 24.2446C20.5116 24.0465 20.7631 23.7721 20.9338 23.4481C21.0997 23.1993 21.1329 22.884 21.2823 22.6351C21.4072 22.4332 21.4733 22.2005 21.4733 21.9631C21.4733 21.7257 21.4072 21.493 21.2823 21.2911C21.0499 20.9095 21.4316 20.7768 21.5976 20.5777C21.7635 20.3786 21.9295 20.0799 22.2946 20.2956C22.4919 20.4248 22.7226 20.4936 22.9584 20.4936C23.1942 20.4936 23.4249 20.4248 23.6222 20.2956C23.8579 20.1498 24.1157 20.0434 24.3856 19.9804C24.5976 19.9458 24.795 19.8507 24.954 19.7064C25.113 19.5621 25.2269 19.3749 25.2818 19.1673C25.3979 18.7359 25.7464 18.8189 26.0452 18.8189C26.3439 18.8189 26.6426 18.8189 26.7588 19.1673C26.8074 19.3723 26.9151 19.5585 27.0685 19.703C27.2218 19.8475 27.4142 19.9439 27.6217 19.9804C27.9252 20.0606 28.2157 20.1835 28.4847 20.3454C28.6674 20.4471 28.873 20.5005 29.0821 20.5005C29.2912 20.5005 29.4969 20.4471 29.6796 20.3454C29.9949 20.1629 30.8246 20.8266 30.8246 21.092ZM26.1115 28.5751C26.8186 28.5751 27.5098 28.365 28.0972 27.9716C28.6847 27.5781 29.142 27.019 29.411 26.3652C29.6801 25.7114 29.7488 24.9925 29.6084 24.2996C29.468 23.6067 29.1248 22.9711 28.6225 22.4736C28.1202 21.976 27.4814 21.6389 26.7871 21.505C26.0928 21.3711 25.3743 21.4465 24.723 21.7216C24.0716 21.9967 23.5167 22.4591 23.1286 23.0501C22.7406 23.6411 22.5369 24.3341 22.5435 25.041C22.5435 25.5079 22.636 25.9702 22.8157 26.4012C22.9954 26.8321 23.2588 27.2232 23.5905 27.5518C23.9223 27.8804 24.3159 28.1401 24.7486 28.3157C25.1813 28.4914 25.6445 28.5795 26.1115 28.5751Z" fill="url(#paint1_linear_1407_1379)"/>
<path d="M30.8209 2.3047C30.8209 2.3047 30.8209 2.3047 30.8209 2.40426C30.2068 3.44957 31.1528 4.19621 31.3519 5.0756C31.3519 5.24153 31.6506 5.39086 31.8332 5.44064C32.0157 5.49041 32.331 5.83885 32.331 6.22047C32.331 6.6021 32.331 6.96712 31.8166 7.03349C31.7508 7.05662 31.6891 7.09024 31.634 7.13305C31.3029 7.49894 31.0522 7.93009 30.8978 8.39875C30.7435 8.86741 30.689 9.36319 30.7379 9.85417C30.937 10.2524 30.7379 10.4349 30.4889 10.6506C30.24 10.8663 30.0741 11.1816 29.6758 10.9327C29.5111 10.8314 29.3215 10.7778 29.1281 10.7778C28.9348 10.7778 28.7452 10.8314 28.5805 10.9327C28.2882 11.0867 27.9827 11.2145 27.6677 11.3143C27.4601 11.3485 27.2667 11.4419 27.1107 11.5831C26.9547 11.7243 26.8428 11.9075 26.7882 12.1107C26.672 12.5587 26.3235 12.4758 26.0248 12.4758C25.7261 12.4758 25.4273 12.4757 25.3112 12.1273C25.2541 11.9164 25.1378 11.7261 24.9761 11.5791C24.8143 11.4321 24.6139 11.3345 24.3984 11.2977C24.117 11.2145 23.8446 11.1033 23.5853 10.9659C23.4083 10.8481 23.2004 10.7853 22.9878 10.7853C22.7752 10.7853 22.5674 10.8481 22.3904 10.9659C22.0419 11.1816 21.8593 10.9659 21.6602 10.717C21.461 10.4681 21.0959 10.3022 21.3615 9.88736C21.4714 9.71974 21.53 9.52367 21.53 9.32322C21.53 9.12278 21.4714 8.9267 21.3615 8.75909C21.2214 8.49896 21.1048 8.22688 21.013 7.94607C20.9786 7.71903 20.8786 7.50697 20.7253 7.336C20.572 7.16502 20.372 7.04258 20.15 6.98372C19.7351 6.86757 19.8347 6.53573 19.8347 6.25366C19.8347 5.97159 19.7517 5.65634 20.1666 5.54019C20.3776 5.48313 20.5679 5.36687 20.7149 5.20516C20.8619 5.04345 20.9596 4.84305 20.9964 4.62762C21.078 4.34309 21.1951 4.06994 21.3449 3.81459C21.4592 3.62719 21.5197 3.41191 21.5197 3.19239C21.5197 2.97286 21.4592 2.75758 21.3449 2.57018C21.1125 2.18855 21.4444 2.03923 21.627 1.84012C21.8095 1.64101 21.9755 1.32576 22.3572 1.55805C22.5586 1.66831 22.7873 1.71905 23.0165 1.70436C23.2456 1.68968 23.4659 1.61016 23.6516 1.47509C23.8774 1.34873 24.1168 1.24853 24.3652 1.17643C24.5902 1.1433 24.8009 1.04577 24.9717 0.89562C25.1424 0.745466 25.2661 0.549104 25.3278 0.330224C25.4439 -0.101175 25.7758 0.0149667 26.0414 0.0149667C26.3069 0.0149667 26.6554 -0.101179 26.7716 0.313628C26.8274 0.534288 26.9467 0.733702 27.1149 0.887094C27.2831 1.04049 27.4926 1.1411 27.7175 1.17643C28.0021 1.25807 28.2753 1.37513 28.5307 1.52486C28.7088 1.62216 28.9085 1.67315 29.1115 1.67315C29.3145 1.67315 29.5142 1.62216 29.6924 1.52486C29.9745 1.42531 30.7877 1.93967 30.8209 2.3047ZM26.1078 2.68632C25.6333 2.6684 25.1601 2.74669 24.7167 2.91647C24.2733 3.08624 23.8688 3.34399 23.5277 3.6742C23.1866 4.00441 22.9159 4.40024 22.7318 4.83784C22.5477 5.27544 22.4542 5.74576 22.4568 6.22047C22.4504 6.92383 22.6522 7.61336 23.0367 8.2024C23.4212 8.79143 23.9713 9.25368 24.6178 9.53102C25.2643 9.80836 25.9784 9.88841 26.6703 9.76113C27.3622 9.63384 28.0011 9.30488 28.5065 8.81562C29.0119 8.32636 29.3614 7.69862 29.511 7.01132C29.6606 6.32403 29.6037 5.60785 29.3473 4.95282C29.091 4.29779 28.6467 3.73315 28.0703 3.32988C27.4939 2.92661 26.8111 2.70271 26.1078 2.68632Z" fill="url(#paint2_linear_1407_1379)"/>
<path d="M32.272 43.7541C32.3715 44.1855 32.272 44.4841 31.7907 44.5837C31.7249 44.5707 31.6573 44.5707 31.5915 44.5837C31.2608 44.9627 31.0119 45.4059 30.8605 45.8856C30.7092 46.3653 30.6586 46.871 30.712 47.3712C30.8945 47.7362 30.712 47.9187 30.4962 48.1344C30.2805 48.3501 30.098 48.6488 29.6333 48.4663C29.2738 48.3757 28.8975 48.3757 28.538 48.4663C28.2559 48.4663 28.0069 48.7317 27.7248 48.7981C27.4899 48.835 27.2708 48.9394 27.094 49.0984C26.9172 49.2575 26.7905 49.4644 26.7291 49.6941C26.6295 50.0923 26.3142 49.9928 26.0487 49.9762C25.7831 49.9596 25.4346 50.1255 25.3185 49.6941C25.2534 49.4663 25.1255 49.2615 24.9494 49.103C24.7733 48.9445 24.5561 48.8389 24.3227 48.7981C24.0562 48.7252 23.7997 48.6193 23.5594 48.4829C23.3824 48.3651 23.1745 48.3023 22.9619 48.3023C22.7493 48.3023 22.5415 48.3651 22.3645 48.4829C21.9994 48.6986 21.8168 48.4829 21.6343 48.2174C21.4517 47.9519 21.0701 47.869 21.319 47.4541C21.437 47.2681 21.4997 47.0523 21.4997 46.8319C21.4997 46.6116 21.437 46.3958 21.319 46.2097C21.1692 45.9544 21.0521 45.6812 20.9705 45.3967C20.9362 45.1891 20.8429 44.9958 20.7016 44.8398C20.5604 44.6839 20.3771 44.5719 20.1739 44.5173C19.7424 44.4012 19.8254 44.0693 19.8088 43.7707C19.7922 43.472 19.8088 43.1402 20.1905 43.024C20.3871 42.971 20.5648 42.8634 20.7028 42.7136C20.8408 42.5639 20.9336 42.3781 20.9705 42.1778C21.059 41.8588 21.1872 41.5522 21.3522 41.2652C21.4582 41.0962 21.5144 40.9006 21.5144 40.7011C21.5144 40.5015 21.4582 40.306 21.3522 40.137C21.1198 39.7387 21.3522 39.5562 21.6343 39.3571C21.9164 39.158 22.0326 38.8428 22.4309 39.0916C22.5985 39.2016 22.7946 39.2601 22.9951 39.2601C23.1956 39.2601 23.3917 39.2016 23.5594 39.0916C23.8195 38.9516 24.0917 38.835 24.3725 38.7432C24.5988 38.7068 24.8099 38.6062 24.9806 38.4532C25.1513 38.3002 25.2743 38.1014 25.3351 37.8804C25.4346 37.4656 25.7832 37.5652 26.0653 37.5652C26.3474 37.5652 26.6793 37.4822 26.7789 37.897C26.836 38.108 26.9522 38.2982 27.114 38.4452C27.2757 38.5922 27.4762 38.6899 27.6916 38.7266C27.9609 38.8072 28.222 38.9127 28.4716 39.0419C28.6613 39.1668 28.8834 39.2333 29.1105 39.2333C29.3376 39.2333 29.5598 39.1668 29.7495 39.0419C30.1311 38.8262 30.2805 39.158 30.4797 39.3405C30.6788 39.523 30.9941 39.689 30.7618 40.0706C30.6445 40.263 30.5825 40.484 30.5825 40.7094C30.5825 40.9347 30.6445 41.1557 30.7618 41.3482C30.9277 41.6303 30.9775 41.9787 31.1435 42.2608C31.2911 42.5481 31.515 42.7892 31.7907 42.9576C32.2056 43.1567 32.3715 43.3559 32.272 43.7541ZM25.9823 47.3712C26.6893 47.381 27.3833 47.1806 27.9762 46.7954C28.5691 46.4102 29.0342 45.8576 29.3123 45.2076C29.5905 44.5577 29.6693 43.8398 29.5386 43.145C29.4079 42.4502 29.0738 41.8099 28.5785 41.3054C28.0832 40.8009 27.4491 40.4548 26.7568 40.3112C26.0644 40.1676 25.345 40.2329 24.6899 40.4989C24.0347 40.7648 23.4734 41.2193 23.0771 41.8048C22.6808 42.3903 22.4674 43.0803 22.4641 43.7873C22.4575 44.2541 22.5435 44.7177 22.7172 45.1512C22.8908 45.5846 23.1487 45.9794 23.4758 46.3126C23.8029 46.6459 24.1929 46.911 24.6231 47.0927C25.0533 47.2744 25.5153 47.369 25.9823 47.3712Z" fill="url(#paint3_linear_1407_1379)"/>
<path d="M37.7227 25.8985V24.1397H47.0327C48.211 24.1397 48.3935 23.9738 48.4101 22.7792V22.5469L50.999 24.9528L48.3437 27.6241C48.3437 27.3088 48.3437 27.0268 48.3437 26.7613C48.3606 26.6641 48.3561 26.5645 48.3306 26.4692C48.3051 26.374 48.2592 26.2854 48.196 26.2096C48.1329 26.1339 48.054 26.0727 47.9649 26.0305C47.8758 25.9882 47.7785 25.9658 47.6799 25.9649H45.8544H37.7227V25.8985Z" fill="url(#paint4_linear_1407_1379)"/>
<path d="M37.7227 7.13385V5.34188H47.0659C48.1944 5.34188 48.3935 5.15937 48.4101 4.01451C48.4156 3.93163 48.4156 3.8485 48.4101 3.76562L50.999 6.23787L48.3437 8.79308V8.16257C48.3437 7.39933 48.211 7.24999 47.4642 7.18363C46.7174 7.11726 46.3523 7.18363 45.8046 7.18363H37.7227V7.13385Z" fill="url(#paint5_linear_1407_1379)"/>
<path d="M48.3437 46.3917C48.3437 46.0764 48.3437 45.8441 48.3437 45.6118C48.3437 44.9481 48.1778 44.7656 47.5305 44.7158C46.8833 44.6661 46.3689 44.7158 45.871 44.7158H37.7227V42.8907H46.9829C48.1778 42.8907 48.3603 42.7082 48.3935 41.4969V41.2812L50.999 43.7203L48.3437 46.3917Z" fill="url(#paint6_linear_1407_1379)"/>
<defs>
<linearGradient id="paint0_linear_1407_1379" x1="2.75395" y1="6.26148" x2="23.5044" y2="13.0061" gradientUnits="userSpaceOnUse">
<stop stop-color="white" stop-opacity="0.66"/>
<stop offset="1" stop-color="#C8C8C8" stop-opacity="0"/>
</linearGradient>
<linearGradient id="paint1_linear_1407_1379" x1="21.4293" y1="19.5549" x2="31.6964" y2="30.1741" gradientUnits="userSpaceOnUse">
<stop stop-color="white" stop-opacity="0.66"/>
<stop offset="1" stop-color="#C8C8C8" stop-opacity="0"/>
</linearGradient>
<linearGradient id="paint2_linear_1407_1379" x1="21.4501" y1="0.748903" x2="31.8094" y2="11.379" gradientUnits="userSpaceOnUse">
<stop stop-color="white" stop-opacity="0.66"/>
<stop offset="1" stop-color="#C8C8C8" stop-opacity="0"/>
</linearGradient>
<linearGradient id="paint3_linear_1407_1379" x1="21.4299" y1="38.3014" x2="31.7576" y2="48.9268" gradientUnits="userSpaceOnUse">
<stop stop-color="white" stop-opacity="0.66"/>
<stop offset="1" stop-color="#C8C8C8" stop-opacity="0"/>
</linearGradient>
<linearGradient id="paint4_linear_1407_1379" x1="39.4486" y1="22.8515" x2="42.2115" y2="30.2503" gradientUnits="userSpaceOnUse">
<stop stop-color="white" stop-opacity="0.66"/>
<stop offset="1" stop-color="#C8C8C8" stop-opacity="0"/>
</linearGradient>
<linearGradient id="paint5_linear_1407_1379" x1="39.4486" y1="4.06727" x2="42.1641" y2="11.411" gradientUnits="userSpaceOnUse">
<stop stop-color="white" stop-opacity="0.66"/>
<stop offset="1" stop-color="#C8C8C8" stop-opacity="0"/>
</linearGradient>
<linearGradient id="paint6_linear_1407_1379" x1="39.4486" y1="41.5879" x2="42.2432" y2="49.0231" gradientUnits="userSpaceOnUse">
<stop stop-color="white" stop-opacity="0.66"/>
<stop offset="1" stop-color="#C8C8C8" stop-opacity="0"/>
</linearGradient>
</defs>
</svg>
