<svg width="23" height="40" viewBox="0 0 23 40" fill="none" xmlns="http://www.w3.org/2000/svg">
<path fill-rule="evenodd" clip-rule="evenodd" d="M2.25831 0.135912C1.0923 0.507632 0.254469 1.49211 0.0788346 2.69684C-0.0262782 3.41793 -0.0262782 36.5651 0.0788346 37.2862C0.214126 38.2145 0.813836 39.1083 1.61376 39.5739C2.36287 40.0099 2.13169 40 11.5026 40C19.0518 40 20.196 39.9847 20.6066 39.8787C21.8718 39.5518 22.7562 38.5353 22.9331 37.2043C22.984 36.822 23.0049 34.1368 22.9903 29.8916L22.9673 23.1831L22.7099 22.9551C22.3818 22.6643 22.003 22.6496 21.6912 22.9156L21.4701 23.1042L21.4307 28.0155L21.3914 32.9267H11.5026H1.61376V19.2099V5.49318H11.5026H21.3914L21.4307 11.1861L21.4701 16.879L21.6574 17.0294C21.9547 17.2682 22.2144 17.2986 22.5288 17.1314C23.0308 16.8645 23.0165 17.0987 22.9892 9.5599C22.9646 2.78024 22.9639 2.75593 22.7904 2.24595C22.4674 1.29695 21.7269 0.488718 20.8792 0.15975C20.549 0.0315708 19.9112 0.0210194 11.6208 0.00593493C3.11347 -0.00954037 2.69649 -0.00375667 2.25831 0.135912ZM20.6211 1.79622C21.0346 2.06767 21.3208 2.65018 21.3912 3.36337L21.4433 3.89094H11.4973H1.55128L1.60037 3.31468C1.6274 2.99775 1.68224 2.65284 1.72234 2.54818C1.84432 2.23008 2.21986 1.8446 2.55608 1.69259C2.86007 1.55503 3.26807 1.5494 11.5871 1.56691L20.2998 1.58528L20.6211 1.79622ZM11.0776 7.18609C10.53 7.50153 4.90512 11.7492 4.81892 11.9124C4.5652 12.3928 4.93144 12.9466 5.54864 13.0156L5.9081 13.0558V15.1949V17.3341H5.58504C5.32273 17.3341 5.21163 17.3841 4.99408 17.5999L4.72617 17.8656V19.6395C4.72617 21.5633 4.76313 21.7521 5.17625 21.9388C5.43959 22.0578 17.5655 22.0578 17.8289 21.9388C18.242 21.7521 18.2789 21.5633 18.2789 19.6395V17.8656L18.011 17.5999C17.7935 17.3841 17.6824 17.3341 17.4201 17.3341H17.097V15.1949V13.0558L17.4565 13.0156C18.0621 12.9479 18.4112 12.4467 18.202 11.9456C18.1372 11.7904 17.2177 11.0745 15.0717 9.50832C13.4007 8.28866 11.9582 7.24806 11.8664 7.19586C11.6583 7.07745 11.2744 7.07268 11.0776 7.18609ZM13.5703 10.3623L15.0472 11.4332L13.2748 11.4542C12.3001 11.4658 10.7032 11.4658 9.7262 11.4542L7.94976 11.4332L9.7065 10.1322L11.4632 8.83116L11.7783 9.06125C11.9517 9.18779 12.7581 9.77327 13.5703 10.3623ZM9.1387 15.1848V17.3341H8.31135H7.48401V15.1848V13.0354H8.31135H9.1387V15.1848ZM12.2905 15.1848V17.3341H11.5026H10.7146V15.1848V13.0354H11.5026H12.2905V15.1848ZM15.5211 15.1848V17.3341H14.6938H13.8664V15.1848V13.0354H14.6938H15.5211V15.1848ZM16.703 19.6789V20.4605H11.5026H6.30208V19.6789V18.8973H11.5026H16.703V19.6789ZM21.8529 19.2875C21.4227 19.4596 21.2874 20.1301 21.6082 20.5C21.7276 20.6377 21.8938 20.719 22.1165 20.7486C22.4099 20.7876 22.4748 20.7656 22.6877 20.5544C23.3148 19.9323 22.6735 18.959 21.8529 19.2875ZM10.9449 24.0497C10.8182 24.1754 10.7146 24.3503 10.7146 24.4385C10.7146 24.5341 10.6271 24.6442 10.4979 24.7111C9.80578 25.0697 9.41961 25.9639 9.61849 26.7473C9.75181 27.2725 10.1521 27.6603 10.9158 28.0042C11.9615 28.4752 11.9339 28.4562 11.96 28.7206C12.0067 29.1925 11.3384 29.3735 10.7146 29.0578C10.2708 28.8332 9.96156 28.8549 9.6842 29.13C9.50754 29.3052 9.45389 29.4303 9.45389 29.6665C9.45389 30.0804 9.65678 30.3152 10.2376 30.5737C10.5182 30.6986 10.7146 30.8351 10.7146 30.905C10.7146 31.1358 11.1557 31.4807 11.451 31.4807C11.7954 31.4807 12.1733 31.183 12.2383 30.8604C12.2679 30.7135 12.3662 30.5857 12.5045 30.5138C13.1157 30.1964 13.5653 29.4117 13.5617 28.669C13.5575 27.7843 13.1027 27.1985 12.1347 26.8304C11.852 26.723 11.5044 26.5644 11.3621 26.4782C11.1406 26.344 11.1155 26.2992 11.1876 26.1656C11.3038 25.9504 11.6387 25.9649 12.2622 26.2123C12.8351 26.4397 13.0639 26.422 13.361 26.1273C13.5041 25.9854 13.5512 25.8539 13.5512 25.597C13.5512 25.1832 13.3962 25.0154 12.7383 24.7166C12.4498 24.5855 12.255 24.4421 12.2116 24.3288C12.004 23.7873 11.3539 23.6441 10.9449 24.0497ZM21.4307 35.6125C21.4307 37.3722 21.2522 37.8715 20.4836 38.261L20.1366 38.4368H11.5026H2.8685L2.52149 38.261C1.75292 37.8715 1.57437 37.3722 1.57437 35.6125V34.5289H11.5026H21.4307V35.6125ZM11.213 35.8159C10.4317 36.1511 10.6494 37.2645 11.4963 37.2645C12.2512 37.2645 12.5812 36.2983 11.9593 35.909C11.6661 35.7254 11.4786 35.7021 11.213 35.8159Z" fill="#1406B2"/>
</svg>
