<svg width="40" height="49" viewBox="0 0 40 49" fill="none" xmlns="http://www.w3.org/2000/svg">
<path fill-rule="evenodd" clip-rule="evenodd" d="M4.81139 0.146826C2.58295 0.63477 0.861527 2.23528 0.177059 4.45581C0.007602 5.0054 0 5.86777 0 24.5076C0 43.1475 0.007602 44.0099 0.177059 44.5594C0.781851 46.5216 2.21978 48.0162 4.15916 48.6988L4.90762 48.9622L15.0295 48.9887C26.3693 49.0183 25.9148 49.0424 27.3559 48.3357C29.2161 47.4235 30.6411 45.2602 30.6471 43.3391L30.6485 42.8845L33.1745 42.8829C34.9961 42.8816 35.8822 42.8428 36.352 42.7439C38.0733 42.381 39.4274 41.0513 39.8375 39.321C40.0572 38.3943 40.0527 16.764 39.8326 15.8017C39.5829 14.7095 38.8192 13.6318 37.8615 13.0198C36.9341 12.4272 36.8276 12.4105 33.6316 12.3551L30.6967 12.3043L30.6428 8.52361C30.5838 4.37771 30.5959 4.46979 29.9442 3.21155C29.1596 1.69699 27.5735 0.500006 25.8853 0.148645C24.9383 -0.0484278 5.71073 -0.0500549 4.81139 0.146826ZM25.8541 3.13125C26.4606 3.41006 27.1461 4.0565 27.4575 4.64341L27.7136 5.1258L27.742 8.73704L27.7704 12.3483L18.6485 12.3741L9.52655 12.4L8.7779 12.7555C7.31225 13.4517 6.40338 14.7289 6.20178 16.3757C6.13741 16.9012 6.11258 21.0337 6.13096 28.1447C6.15915 39.0581 6.16012 39.1063 6.36527 39.7018C6.91839 41.3072 8.27126 42.4839 9.90511 42.7807C10.2878 42.8503 13.3307 42.8845 19.1324 42.8845H27.7887L27.7353 43.3978C27.6315 44.3987 26.8562 45.4234 25.8541 45.884L25.4041 46.0909H15.3463H5.28849L4.64924 45.7778C3.91695 45.4192 3.49441 44.9864 3.13712 44.2289L2.88683 43.698V24.5076V5.31723L3.13712 4.78641C3.27482 4.49448 3.52078 4.10455 3.68379 3.91992C4.00134 3.56013 4.80523 3.08147 5.28656 2.96537C5.44861 2.92632 10.0414 2.90115 15.4927 2.90938L25.4041 2.92441L25.8541 3.13125ZM13.1422 6.34155C12.1433 6.85744 12.0988 8.22709 13.0621 8.81122C13.3474 8.98427 13.5494 9.0015 15.3002 9.00169C17.5518 9.00188 17.7537 8.94713 18.1208 8.23647C18.482 7.53757 18.3069 6.88577 17.621 6.376C17.3775 6.19491 17.1993 6.17625 15.4619 6.15012C13.6449 6.12265 13.5509 6.1305 13.1422 6.34155ZM36.1997 15.382C36.3845 15.4692 36.6508 15.7136 36.7916 15.9253C37.0294 16.2825 37.0501 16.3973 37.0814 17.5374C37.0999 18.2125 37.0999 18.7644 37.0814 18.7638C37.0629 18.7632 36.8351 18.6986 36.5753 18.6202C36.1671 18.4971 34.3581 18.4777 23.2541 18.4777C10.4257 18.4777 10.4046 18.4774 9.99065 18.2781C8.81446 17.7117 8.74595 16.1946 9.86238 15.4389L10.1805 15.2235H23.0222C34.7762 15.2235 35.8923 15.2369 36.1997 15.382ZM9.719 21.2075C10.208 21.3249 12.2432 21.3463 23.0162 21.3476C31.7483 21.3486 35.821 21.381 36.007 21.4507C36.4099 21.6018 36.8925 22.1086 37 22.4935C37.0521 22.68 37.0949 23.5756 37.0952 24.4837L37.0958 26.1347H33.789C31.9423 26.1347 30.2537 26.1779 29.9645 26.2325C28.6236 26.4853 27.3427 27.4546 26.7495 28.6653C26.0145 30.165 26.1208 31.786 27.0449 33.1707C27.5138 33.8734 28.0443 34.3173 28.9164 34.7367L29.6382 35.0839L33.3429 35.1317L37.0477 35.1796L37.0748 36.8546C37.0968 38.2084 37.0723 38.607 36.9476 38.9336C36.763 39.417 36.3569 39.7802 35.8491 39.9162C35.5979 39.9835 31.3689 40.0076 22.8316 39.9906L10.186 39.9652L9.79916 39.7105C9.5864 39.5705 9.32976 39.2906 9.22882 39.0884C9.05301 38.7362 9.04435 38.3549 9.01895 29.8915C9.00442 25.0352 9.02607 21.0635 9.06706 21.0654C9.10806 21.0672 9.40145 21.1312 9.719 21.2075ZM37.0958 30.6332V32.2604H33.723C30.0664 32.2604 30.0873 32.2631 29.5748 31.7185C28.8286 30.9256 29.1003 29.6445 30.1117 29.1876C30.469 29.0262 30.7999 29.0101 33.8 29.0082L37.0958 29.0061V30.6332Z" fill="#919D06"/>
</svg>
