<svg width="27" height="40" viewBox="0 0 27 40" fill="none" xmlns="http://www.w3.org/2000/svg">
<path d="M25.5972 0H1.40668C1.03358 0 0.67572 0.150994 0.411897 0.419684C0.148075 0.688374 0 1.05278 0 1.43276V38.5672C0 38.9472 0.148075 39.3116 0.411897 39.5803C0.67572 39.849 1.03358 40 1.40668 40H25.5933C25.9664 40 26.3243 39.849 26.5881 39.5803C26.8519 39.3116 27 38.9472 27 38.5672V1.4287C26.9989 1.05013 26.8509 0.687373 26.5881 0.419684C26.3253 0.151996 25.969 0.00108008 25.5972 0ZM2.81336 7.78287H24.1935V32.2796H2.81336V7.78287ZM24.1935 2.85628V4.92453H2.81336V2.85628H24.1935ZM2.81336 37.1345V35.1389H24.1935V37.1345H2.81336Z" fill="#0092FF"/>
<path d="M6.61255 18.6431H11.3082C11.4774 18.6437 11.6451 18.6102 11.8017 18.5447C11.9582 18.4792 12.1006 18.3829 12.2206 18.2614C12.3406 18.1398 12.4359 17.9953 12.5011 17.8362C12.5663 17.6772 12.6 17.5066 12.6004 17.3342V12.5754C12.5999 12.4031 12.566 12.2327 12.5008 12.0737C12.4356 11.9148 12.3402 11.7704 12.2202 11.649C12.1002 11.5275 11.9579 11.4313 11.8014 11.3659C11.6449 11.3005 11.4773 11.267 11.3082 11.2676H6.61255C6.44338 11.267 6.27576 11.3005 6.11927 11.3659C5.96277 11.4313 5.82047 11.5275 5.70047 11.649C5.58048 11.7704 5.48514 11.9148 5.41991 12.0737C5.35469 12.2327 5.32084 12.4031 5.32031 12.5754V17.3301C5.32018 17.5028 5.35354 17.6738 5.41847 17.8334C5.4834 17.9929 5.57863 18.1379 5.69869 18.2599C5.81875 18.3819 5.96128 18.4786 6.1181 18.5443C6.27493 18.6101 6.44296 18.6437 6.61255 18.6431ZM7.90476 13.8885H10.0149V16.0263H7.90476V13.8885Z" fill="#0092FF"/>
<path d="M15.843 18.6431H20.5386C20.7079 18.6437 20.8756 18.6102 21.0322 18.5447C21.1887 18.4792 21.3311 18.3829 21.4511 18.2614C21.5711 18.1398 21.6664 17.9953 21.7316 17.8362C21.7967 17.6772 21.8305 17.5066 21.8309 17.3342V12.5754C21.8303 12.4031 21.7965 12.2327 21.7313 12.0737C21.666 11.9148 21.5707 11.7704 21.4507 11.649C21.3307 11.5275 21.1884 11.4313 21.0319 11.3659C20.8754 11.3005 20.7078 11.267 20.5386 11.2676H15.843C15.6739 11.267 15.5062 11.3005 15.3497 11.3659C15.1932 11.4313 15.0509 11.5275 14.9309 11.649C14.8109 11.7704 14.7156 11.9148 14.6504 12.0737C14.5852 12.2327 14.5513 12.4031 14.5508 12.5754V17.3301C14.5506 17.5028 14.584 17.6738 14.6489 17.8334C14.7139 17.9929 14.8091 18.1379 14.9292 18.2599C15.0492 18.3819 15.1917 18.4786 15.3486 18.5443C15.5054 18.6101 15.6734 18.6437 15.843 18.6431ZM17.1352 13.8885H19.2454V16.0263H17.1352V13.8885Z" fill="#0092FF"/>
<path d="M6.61255 28.3668H11.3082C11.4774 28.3673 11.6451 28.3339 11.8017 28.2684C11.9582 28.2029 12.1006 28.1066 12.2206 27.985C12.3406 27.8635 12.4359 27.719 12.5011 27.5599C12.5663 27.4008 12.6 27.2302 12.6004 27.0578V22.2991C12.6 22.1267 12.5663 21.9561 12.5011 21.797C12.4359 21.6379 12.3406 21.4934 12.2206 21.3719C12.1006 21.2503 11.9582 21.1541 11.8017 21.0886C11.6451 21.0231 11.4774 20.9897 11.3082 20.9902H6.61255C6.4433 20.9897 6.27558 21.0231 6.11902 21.0886C5.96246 21.1541 5.82011 21.2503 5.7001 21.3719C5.5801 21.4934 5.48477 21.6379 5.41961 21.797C5.35444 21.9561 5.32071 22.1267 5.32031 22.2991V27.0537C5.32018 27.2264 5.35354 27.3975 5.41847 27.557C5.4834 27.7166 5.57863 27.8615 5.69869 27.9835C5.81875 28.1055 5.96128 28.2022 6.1181 28.268C6.27493 28.3337 6.44296 28.3673 6.61255 28.3668ZM7.90476 23.6122H10.0149V25.75H7.90476V23.6122Z" fill="#0092FF"/>
<path d="M15.843 28.3668H20.5386C20.7079 28.3673 20.8756 28.3339 21.0322 28.2684C21.1887 28.2029 21.3311 28.1066 21.4511 27.985C21.5711 27.8635 21.6664 27.719 21.7316 27.5599C21.7967 27.4008 21.8305 27.2302 21.8309 27.0578V22.2991C21.8305 22.1267 21.7967 21.9561 21.7316 21.797C21.6664 21.6379 21.5711 21.4934 21.4511 21.3719C21.3311 21.2503 21.1887 21.1541 21.0322 21.0886C20.8756 21.0231 20.7079 20.9897 20.5386 20.9902H15.843C15.6738 20.9897 15.5061 21.0231 15.3495 21.0886C15.1929 21.1541 15.0506 21.2503 14.9306 21.3719C14.8106 21.4934 14.7152 21.6379 14.6501 21.797C14.5849 21.9561 14.5512 22.1267 14.5508 22.2991V27.0537C14.5506 27.2264 14.584 27.3975 14.6489 27.557C14.7139 27.7166 14.8091 27.8615 14.9292 27.9835C15.0492 28.1055 15.1917 28.2022 15.3486 28.268C15.5054 28.3337 15.6734 28.3673 15.843 28.3668ZM17.1352 23.6122H19.2454V25.75H17.1352V23.6122Z" fill="#0092FF"/>
</svg>
