<svg width="32" height="41" viewBox="0 0 32 41" fill="none" xmlns="http://www.w3.org/2000/svg">
<path d="M6.75541 21.3537H23.1857C23.5106 21.3536 23.8279 21.249 24.0962 21.0535C24.3644 20.858 24.5714 20.5806 24.6897 20.2577C24.808 19.9348 24.8321 19.5812 24.7593 19.2433C24.6864 18.9054 24.5197 18.5988 24.281 18.3636L19.8319 13.9789C19.6766 13.8218 19.4936 13.6993 19.2937 13.6183C19.0937 13.5373 18.8808 13.4995 18.667 13.5071C18.4533 13.5147 18.2431 13.5676 18.0486 13.6626C17.8542 13.7576 17.6792 13.8929 17.5342 14.0606C17.3891 14.2284 17.2768 14.4251 17.2035 14.6396C17.1303 14.8541 17.0978 15.0819 17.1077 15.31C17.1176 15.538 17.17 15.7616 17.2615 15.9679C17.3531 16.1742 17.4821 16.359 17.6411 16.5116L19.0554 17.9052H6.75447C3.55563 17.9052 3.25019 15.5742 3.23468 14.879V6.84095C3.23468 3.78673 4.647 3.47222 5.04249 3.44946H19.7765L28.0732 12.3038V20.8188C28.0732 21.0451 28.1148 21.2693 28.196 21.4784C28.2772 21.6875 28.3963 21.8775 28.5462 22.0376C28.6962 22.1977 28.8743 22.3246 29.0702 22.4112C29.2661 22.4979 29.476 22.5425 29.6881 22.5425C29.9002 22.5425 30.1101 22.4979 30.306 22.4112C30.502 22.3246 30.68 22.1977 30.83 22.0376C30.9799 21.8775 31.0988 21.6875 31.18 21.4784C31.2612 21.2693 31.3031 21.0451 31.3031 20.8188V11.5889C31.3032 11.3625 31.2614 11.1383 31.1802 10.9292C31.0991 10.7201 30.98 10.5301 30.83 10.3701L21.5883 0.504905C21.4384 0.344751 21.2603 0.217733 21.0644 0.131097C20.8684 0.0444598 20.6585 -0.000101692 20.4464 1.74253e-07H5.04249C3.29768 1.74253e-07 0.00195312 1.42884 0.00195312 6.8389V14.8769C0.00679984 16.6813 1.21949 21.3537 6.75541 21.3537Z" fill="#FFB300"/>
<path d="M25.584 24.4851H7.10143C6.78204 24.4851 6.46983 24.5862 6.20427 24.7756C5.93871 24.965 5.73178 25.2343 5.60955 25.5492C5.48733 25.8642 5.45542 26.2107 5.51773 26.5451C5.58004 26.8794 5.73373 27.1865 5.95957 27.4276L9.72548 31.4461C10.0306 31.7574 10.4377 31.9289 10.8598 31.9238C11.2818 31.9187 11.6855 31.7375 11.9839 31.4188C12.2823 31.1002 12.4519 30.6695 12.4565 30.219C12.4611 29.7685 12.3001 29.334 12.0083 29.0085L10.9992 27.9325H25.585C28.5551 27.9325 28.7626 28.2501 28.7626 32.7849C28.7626 35.6446 26.9974 36.3813 26.4313 36.5416H6.41631C5.96309 36.5871 5.50585 36.5336 5.07258 36.3846C4.63931 36.2355 4.23899 35.994 3.89592 35.6746C3.45275 35.1065 3.2163 34.3869 3.22997 33.6478C3.22997 33.6033 3.23471 33.5598 3.23471 33.5153V24.1592C3.23471 23.7021 3.06473 23.2636 2.76187 22.9404C2.45901 22.6171 2.04831 22.4355 1.62 22.4355C1.1917 22.4355 0.780757 22.6171 0.477899 22.9404C0.175042 23.2636 0.00505999 23.7021 0.00505999 24.1592V33.4657C-0.0586103 35.1274 0.48058 36.7513 1.51043 37.9994C2.1486 38.6831 2.91564 39.2141 3.76079 39.5571C4.60594 39.9001 5.50975 40.0474 6.41229 39.989H26.6076C26.7051 39.9892 26.8025 39.9799 26.8984 39.9611C28.4073 39.6052 29.7481 38.6877 30.6809 37.3728C31.6137 36.0579 32.0776 34.4315 31.9894 32.7849C31.9904 27.9253 31.529 24.4851 25.584 24.4851Z" fill="#FFB300"/>
</svg>
