<svg width="37" height="40" viewBox="0 0 37 40" fill="none" xmlns="http://www.w3.org/2000/svg">
<path d="M36.5652 19.1631C36.3972 18.9971 36.1906 18.8737 35.9632 18.8037C35.7359 18.7337 35.4946 18.7192 35.2602 18.7613C35.1427 18.3279 34.9696 17.911 34.7452 17.5205C34.9253 17.4007 35.0763 17.2435 35.1876 17.0599C35.2989 16.8764 35.3676 16.671 35.389 16.4584C35.4104 16.2458 35.3838 16.0312 35.3112 15.8298C35.2386 15.6284 35.1218 15.4452 34.969 15.2932C34.8162 15.1412 34.6312 15.0241 34.4272 14.9502C34.2231 14.8764 34.005 14.8476 33.7883 14.8659C33.5716 14.8842 33.3617 14.9491 33.1735 15.0561C32.9853 15.1631 32.8233 15.3095 32.6992 15.4849C32.3037 15.2594 31.8806 15.0841 31.4402 14.9632C31.4836 14.753 31.479 14.5359 31.4269 14.3276C31.3747 14.1193 31.2761 13.9249 31.1383 13.7585C31.0006 13.5921 30.827 13.4577 30.63 13.3651C30.4331 13.2724 30.2177 13.2238 29.9993 13.2227C29.7809 13.2216 29.5651 13.268 29.3672 13.3587C29.1692 13.4493 28.9942 13.5819 28.8547 13.7469C28.7152 13.9119 28.6147 14.1053 28.5603 14.313C28.5059 14.5208 28.499 14.7378 28.5402 14.9485C28.0967 15.0605 27.6705 15.2307 27.2732 15.4544C27.1518 15.2773 26.992 15.1287 26.8054 15.0191C26.6188 14.9095 26.4099 14.8417 26.1936 14.8204C25.9773 14.7992 25.7588 14.8251 25.5539 14.8962C25.3489 14.9674 25.1624 15.0821 25.0077 15.2321C24.8529 15.3821 24.7338 15.5638 24.6587 15.7642C24.5836 15.9647 24.5543 16.1789 24.5731 16.3917C24.5919 16.6045 24.6582 16.8105 24.7672 16.9953C24.8763 17.18 25.0255 17.3389 25.2042 17.4605C24.9738 17.8487 24.7953 18.2644 24.6732 18.6974C24.46 18.657 24.2403 18.6632 24.0298 18.7156C23.8193 18.768 23.6231 18.8653 23.4552 19.0006C23.2873 19.1359 23.1518 19.3058 23.0583 19.4983C22.9647 19.6909 22.9155 19.9013 22.9141 20.1146C22.9127 20.3279 22.9591 20.5389 23.0501 20.7327C23.141 20.9264 23.2743 21.098 23.4404 21.2355C23.6065 21.3729 23.8014 21.4727 24.0111 21.5278C24.2209 21.5829 24.4405 21.5919 24.6542 21.5543C24.7718 21.9876 24.9449 22.4045 25.1692 22.7951C24.9888 22.9144 24.8373 23.0713 24.7256 23.2547C24.6139 23.438 24.5447 23.6433 24.523 23.8559C24.5012 24.0685 24.5275 24.2832 24.5998 24.4848C24.6722 24.6863 24.7888 24.8697 24.9414 25.0219C25.0941 25.1741 25.2791 25.2913 25.4831 25.3653C25.6872 25.4393 25.9053 25.4682 26.122 25.4499C26.3388 25.4317 26.5487 25.3667 26.737 25.2597C26.9252 25.1526 27.0871 25.0061 27.2112 24.8306C27.6074 25.0576 28.032 25.233 28.4742 25.3523C28.4314 25.5621 28.4363 25.7785 28.4886 25.9862C28.5409 26.1939 28.6394 26.3876 28.7768 26.5536C28.9143 26.7195 29.0874 26.8535 29.2838 26.946C29.4802 27.0385 29.6949 27.0872 29.9127 27.0886C30.1305 27.09 30.3458 27.0441 30.5434 26.9541C30.741 26.8642 30.9159 26.7324 31.0556 26.5682C31.1952 26.4041 31.2963 26.2116 31.3513 26.0046C31.4064 25.7976 31.4142 25.5813 31.3742 25.3709C31.8166 25.2557 32.2424 25.0857 32.6412 24.865C32.7634 25.0409 32.9235 25.1882 33.1101 25.2966C33.2967 25.4049 33.5052 25.4717 33.721 25.4921C33.9367 25.5125 34.1544 25.486 34.3586 25.4147C34.5628 25.3433 34.7485 25.2286 34.9026 25.0789C35.0567 24.9292 35.1755 24.748 35.2505 24.5482C35.3254 24.3484 35.3548 24.1349 35.3364 23.9227C35.318 23.7105 35.2524 23.5049 35.1442 23.3204C35.036 23.1359 34.8878 22.977 34.7102 22.855C34.9422 22.4676 35.1207 22.0517 35.2412 21.6181C35.552 21.6763 35.8738 21.6351 36.159 21.5005C36.4443 21.366 36.6782 21.1451 36.8263 20.8703C36.9744 20.5956 37.0289 20.2815 36.982 19.974C36.935 19.6665 36.7889 19.382 36.5652 19.1621V19.1631ZM29.9552 23.0809C29.3667 23.0813 28.7911 22.9102 28.3016 22.5892C27.8121 22.2682 27.4305 21.8118 27.205 21.2776C26.9796 20.7435 26.9205 20.1557 27.0352 19.5885C27.15 19.0214 27.4334 18.5005 27.8496 18.0916C28.2658 17.6827 28.796 17.4043 29.3733 17.2916C29.9506 17.1789 30.5489 17.237 31.0926 17.4584C31.6363 17.6799 32.1009 18.0548 32.4276 18.5357C32.7544 19.0166 32.9286 19.582 32.9282 20.1602C32.9271 20.9345 32.6136 21.6768 32.0562 22.2243C31.4989 22.7718 30.7434 23.0799 29.9552 23.0809Z" fill="#FC7754"/>
<path d="M26.532 27.9114C26.1461 27.9114 25.776 28.062 25.5032 28.3301C25.2303 28.5982 25.0769 28.9617 25.0769 29.3408V32.2881H2.90991V7.78666H25.078V10.5059C25.078 10.885 25.2313 11.2486 25.5042 11.5166C25.777 11.7847 26.1471 11.9354 26.533 11.9354C26.9188 11.9354 27.2889 11.7847 27.5618 11.5166C27.8346 11.2486 27.9879 10.885 27.9879 10.5059V1.42937C27.9879 1.05027 27.8346 0.686722 27.5618 0.418654C27.2889 0.150587 26.9188 0 26.533 0H1.45496C1.06907 0 0.699013 0.150587 0.426148 0.418654C0.153282 0.686722 3.44274e-07 1.05027 3.44274e-07 1.42937V38.5706C-0.000131139 38.7584 0.0374 38.9444 0.110474 39.1178C0.183548 39.2913 0.290646 39.4489 0.425782 39.5817C0.560917 39.7145 0.721362 39.8197 0.89795 39.8915C1.07454 39.9633 1.26385 40.0001 1.45496 40H26.533C26.7241 40.0001 26.9134 39.9633 27.09 39.8915C27.2666 39.8197 27.427 39.7145 27.5621 39.5817C27.6973 39.4489 27.8044 39.2913 27.8774 39.1178C27.9505 38.9444 27.988 38.7584 27.9879 38.5706V29.3359C27.9866 28.9575 27.8326 28.5951 27.5597 28.3281C27.2868 28.061 26.9172 27.9112 26.532 27.9114ZM25.0769 2.85982V4.92779H2.90991V2.86474L25.0769 2.85982ZM2.90894 37.1462V35.1509H25.0769V37.1462H2.90894Z" fill="#FC7754"/>
<path d="M11.2372 29.3105C11.879 29.3105 12.3992 28.7994 12.3992 28.1689C12.3992 27.5384 11.879 27.0273 11.2372 27.0273C10.5954 27.0273 10.0752 27.5384 10.0752 28.1689C10.0752 28.7994 10.5954 29.3105 11.2372 29.3105Z" fill="#FC7754"/>
<path d="M18.0126 29.3105C18.6543 29.3105 19.1746 28.7994 19.1746 28.1689C19.1746 27.5384 18.6543 27.0273 18.0126 27.0273C17.3708 27.0273 16.8506 27.5384 16.8506 28.1689C16.8506 28.7994 17.3708 29.3105 18.0126 29.3105Z" fill="#FC7754"/>
<path d="M22.6018 14.944H8.66977L8.08076 12.707H4.48076C4.02076 12.707 3.80176 13.1698 3.80176 13.6217C3.80176 14.0736 4.05677 14.495 4.51677 14.495H6.69777L9.70976 25.9421H19.3438C19.8067 25.9421 20.1938 25.8017 20.1788 24.9529C20.1791 24.7243 20.0881 24.5048 19.9254 24.3415C19.7627 24.1782 19.5413 24.0841 19.3088 24.0795H11.0938L10.8938 23.0538H20.1818L22.6018 14.944ZM10.3708 21.4142L9.26376 17.0415H20.1778L18.9208 21.4142H10.3708Z" fill="#FC7754"/>
</svg>
