<svg width="40" height="40" viewBox="0 0 40 40" fill="none" xmlns="http://www.w3.org/2000/svg">
<path fill-rule="evenodd" clip-rule="evenodd" d="M22.2835 0.101094C22.128 0.158454 21.601 0.405399 21.1123 0.649843C20.6237 0.894287 20.0312 1.13518 19.7958 1.1852C19.5561 1.23619 18.6143 1.27676 17.6555 1.27741C16.4365 1.27822 15.7918 1.31307 15.4181 1.3981C15.1011 1.4703 14.2337 1.84189 13.2295 2.33554L11.5658 3.15334L7.49482 1.79954C5.25573 1.05491 3.37832 0.429036 3.32284 0.408626C3.24247 0.379099 3.22187 2.13369 3.22187 9.01233C3.22187 13.7648 3.23132 17.6531 3.24296 17.6531C3.25459 17.6531 5.11349 17.0371 7.37399 16.2842C9.6344 15.5312 11.524 14.939 11.5731 14.968C11.6221 14.9972 11.9712 15.2561 12.3488 15.5435C13.1421 16.1472 13.9619 16.5521 14.6454 16.6776C14.9503 16.7337 16.5517 16.7651 19.0474 16.7639C22.8189 16.7623 22.984 16.7559 23.3335 16.5978C24.2104 16.2014 24.712 15.2448 24.4811 14.4095C24.4032 14.1277 24.4098 14.1121 24.6498 14.0129C25.6619 13.5941 26.1161 12.2897 25.5803 11.3404L25.3641 10.9571L25.5805 10.5739C25.7615 10.2536 25.7964 10.0948 25.7936 9.60585L25.7903 9.02096H27.2528H28.7153L29.0664 9.71258C29.4857 10.5384 30.2762 11.4237 31.0363 11.9183L31.5552 12.2559L31.1745 13.2402C30.9651 13.7816 30.3468 15.3873 29.8007 16.8086L28.8075 19.3927L27.8676 19.3901C26.8403 19.3874 26.4315 19.4841 25.5762 19.9324C24.9879 20.2407 24.2676 20.9535 23.88 21.6108C23.7142 21.892 23.5683 22.1531 23.5557 22.1909C23.543 22.2288 22.6015 22.0532 21.4634 21.8008L19.3941 21.3418L19.341 20.8726C19.2696 20.2433 18.8294 19.379 18.3596 18.9466C18.157 18.7601 17.7485 18.4926 17.4518 18.3522C16.9633 18.121 16.8394 18.0968 16.1408 18.0968C15.4127 18.0968 15.335 18.1138 14.759 18.3982C13.6768 18.9323 13.0272 19.887 12.9372 21.0752L12.8914 21.6807L10.7279 22.4015L8.56445 23.1224L8.2711 22.6811C6.68212 20.2906 3.36144 19.9549 1.33429 21.9797C-1.08063 24.3918 -0.0786885 28.3739 3.22187 29.4818C3.83887 29.6889 5.19144 29.6886 5.8065 29.4811C7.29992 28.9774 8.34839 27.93 8.84424 26.4467C8.94875 26.1341 8.99317 25.7587 8.99471 25.1763L8.99689 24.3496L11.1777 23.6217L13.3584 22.8938L13.4759 23.0769C13.7287 23.4712 14.3349 23.9767 14.8439 24.2176C15.3254 24.4455 15.4528 24.4701 16.145 24.4701C16.8357 24.4701 16.965 24.4451 17.4411 24.2198C18.0801 23.9174 18.4808 23.5784 18.8231 23.0507C18.9987 22.7803 19.1331 22.6563 19.248 22.6592C19.3405 22.6614 20.2703 22.8547 21.3142 23.0888L23.2123 23.5141L23.2332 23.8308C23.3756 25.987 24.526 27.53 26.4835 28.1903C27.0985 28.3978 28.4511 28.3981 29.0681 28.191C30.5385 27.6975 31.6127 26.6246 32.1068 25.1559C32.3141 24.5396 32.3138 23.1886 32.1061 22.5743C31.764 21.5627 30.9953 20.5231 30.275 20.0981C30.1443 20.021 30.0373 19.9208 30.0373 19.8756C30.0373 19.8302 30.6462 18.2033 31.3902 16.26L32.7431 12.7268L33.147 12.7899C33.3691 12.8246 33.9506 12.848 34.4393 12.8419C35.99 12.8223 37.1593 12.3148 38.3164 11.1591C39.0545 10.4219 39.479 9.74606 39.7861 8.81927C39.975 8.24939 40 8.04641 40 7.08477C40 6.12313 39.975 5.92015 39.7861 5.35027C39.479 4.42348 39.0545 3.74767 38.3164 3.01046C37.5771 2.27197 36.8995 1.84778 35.9739 1.54412C35.4232 1.36341 35.1786 1.33106 34.3181 1.32517C33.1222 1.31702 32.5829 1.43755 31.572 1.93886C30.5948 2.42347 29.572 3.44723 29.0708 4.44268L28.7153 5.14858H25.8964H23.0774L23.3974 4.78554C24.3287 3.72871 24.8086 1.90369 24.3944 0.993113C24.0306 0.193305 23.0996 -0.200064 22.2835 0.101094ZM23.1258 1.40294C23.4251 1.702 23.1557 2.94229 22.6272 3.69789C22.2599 4.223 21.6764 4.6826 21.0719 4.92301C20.6803 5.0788 20.4389 5.1034 19.0325 5.1314L17.4373 5.16318V5.80124V6.43937H24.6509C31.7857 6.43937 31.8665 6.44115 32.0403 6.60298C32.3654 6.90535 32.3402 7.35269 31.9828 7.62674C31.885 7.70177 30.5308 7.72565 26.2614 7.72758L20.6681 7.73017V8.37556V9.02096H22.3894C24.0069 9.02096 24.1213 9.0308 24.2865 9.18457C24.5165 9.3986 24.5834 9.68588 24.4579 9.92105C24.259 10.294 24.1922 10.3065 22.3844 10.3092L20.6681 10.3118V10.9571V11.6025L22.3844 11.6051C24.1922 11.6078 24.259 11.6203 24.4579 11.9933C24.5834 12.2284 24.5165 12.5157 24.2865 12.7297C24.1213 12.8835 24.0069 12.8933 22.3894 12.8933H20.6681V13.5387V14.1841L21.7383 14.1867C22.861 14.1894 22.9768 14.2208 23.1656 14.5748C23.2911 14.81 23.2242 15.0973 22.9942 15.3113C22.8228 15.4709 22.7241 15.4749 19.0011 15.4749C16.6482 15.4749 15.035 15.4426 14.7961 15.3906C14.2785 15.2781 13.8596 15.0539 12.994 14.4262L12.271 13.9018L12.2695 9.08187L12.2681 4.26205L13.7045 3.5438C15.6688 2.56167 15.6464 2.56699 17.8025 2.56699C19.9624 2.56699 20.3473 2.48971 21.7679 1.77049C22.2957 1.50322 22.7887 1.28265 22.8633 1.2804C22.9379 1.27806 23.0559 1.33324 23.1258 1.40294ZM10.9354 9.02096V13.7267L7.72477 14.7961L4.51419 15.8654V9.02096V2.17653L7.72477 3.24587L10.9354 4.31521V9.02096ZM35.0908 2.65323C36.6571 2.93503 38.0161 4.16257 38.5676 5.79398C38.7754 6.40831 38.7757 7.75929 38.5684 8.37556C38.0706 9.85489 37.0152 10.9089 35.5297 11.41C35.2085 11.5183 34.8505 11.5599 34.2373 11.5599C33.0045 11.5599 32.0126 11.1819 31.1908 10.399C30.8127 10.0389 30.1989 9.2241 30.1989 9.08251C30.1989 9.04871 30.5131 9.02096 30.8972 9.02096H31.5956L31.9898 9.38924C32.2066 9.59181 32.6283 9.87313 32.927 10.0145C33.4188 10.2472 33.5424 10.2714 34.2373 10.2714C34.9312 10.2714 35.0563 10.247 35.5442 10.0161C36.2951 9.66079 36.7628 9.20345 37.1261 8.46915C37.4108 7.89377 37.4277 7.81625 37.4277 7.08896C37.4277 6.39113 37.4036 6.26746 37.1721 5.77945C36.8164 5.02942 36.3585 4.56232 35.6233 4.19944C35.0473 3.91507 34.9697 3.89812 34.2415 3.89812C33.5418 3.89812 33.4195 3.92208 32.927 4.15507C32.6283 4.29641 32.2066 4.57773 31.9898 4.7803L31.5956 5.14858H30.8972C30.5131 5.14858 30.1989 5.12785 30.1989 5.10243C30.1989 4.9481 30.7004 4.2493 31.0761 3.87989C32.1488 2.82547 33.5939 2.38394 35.0908 2.65323ZM34.8337 5.24668C35.2774 5.37761 35.9465 6.04592 36.0776 6.48907C36.3013 7.24547 36.1436 7.84852 35.5728 8.41864C34.944 9.04669 34.2294 9.18473 33.4598 8.82678C32.9757 8.60169 32.9005 8.51287 33.073 8.36992C33.1424 8.3124 33.2769 8.11773 33.372 7.93726C33.7032 7.30848 33.5472 6.19267 33.073 5.79962C32.9005 5.65667 32.9757 5.56785 33.4598 5.34276C33.9202 5.12857 34.3352 5.09961 34.8337 5.24668ZM32.945 26.4467V38.7092H31.6527H30.3604V34.1914V29.6737H27.7758H25.1912V34.1914V38.7092H23.8989H22.6065V32.2552V25.8013H20.0219H17.4373V32.2552V38.7092H16.145H14.8527V32.2552V25.8013H12.2681H9.68343V32.2552V38.7092H8.39112H7.09881V34.8368V30.9644H4.51419H1.92956V35.4822V40H20.0219H38.1143V27.0921V14.1841H35.5297H32.945V26.4467ZM36.822 27.0921V38.7092H35.5297H34.2373V27.0921V15.4749H35.5297H36.822V27.0921ZM16.7414 19.4454C17.1851 19.5763 17.8541 20.2446 17.9852 20.6878C18.209 21.4442 18.0512 22.0472 17.4804 22.6174C17.0621 23.0352 16.653 23.2197 16.145 23.2197C15.1442 23.2197 14.2065 22.2831 14.2065 21.2835C14.2065 20.7765 14.3913 20.3674 14.8095 19.9487C15.3761 19.3816 15.9864 19.2226 16.7414 19.4454ZM29.1027 20.9463C29.8315 21.287 30.3031 21.7502 30.6645 22.4807C30.9495 23.0567 30.9662 23.133 30.9662 23.8651C30.9662 24.5972 30.9495 24.6734 30.6645 25.2495C30.3012 25.9838 29.8335 26.4411 29.0826 26.7964C28.5947 27.0273 28.4697 27.0517 27.7758 27.0517C27.0819 27.0517 26.9569 27.0273 26.4689 26.7964C25.718 26.4411 25.2504 25.9838 24.8871 25.2495C24.6024 24.6741 24.5854 24.5966 24.5854 23.8693C24.5854 23.1714 24.6095 23.0478 24.841 22.5598C25.1656 21.8755 25.6276 21.3746 26.2303 21.0537C26.8666 20.7151 27.2147 20.6384 27.9574 20.6738C28.4422 20.6968 28.7004 20.7582 29.1027 20.9463ZM5.84115 22.2371C6.56993 22.5778 7.04146 23.041 7.4029 23.7715C7.68794 24.3475 7.70458 24.4238 7.70458 25.1559C7.70458 25.888 7.68794 25.9642 7.4029 26.5403C7.0396 27.2746 6.57195 27.7319 5.82103 28.0872C5.33311 28.3181 5.20808 28.3425 4.51419 28.3425C3.8203 28.3425 3.69526 28.3181 3.20734 28.0872C2.45642 27.7319 1.98877 27.2746 1.62547 26.5403C1.34075 25.9649 1.32379 25.8874 1.32379 25.1601C1.32379 24.4622 1.34794 24.3386 1.57943 23.8506C1.90396 23.1663 2.36604 22.6654 2.96874 22.3445C3.60496 22.0059 3.95308 21.9292 4.69584 21.9646C5.18061 21.9876 5.43883 22.049 5.84115 22.2371ZM27.1296 22.0343C26.7332 22.1591 26.0571 22.8584 25.9355 23.2694C25.7118 24.0258 25.8695 24.6288 26.4403 25.199C26.8587 25.6168 27.2677 25.8013 27.7758 25.8013C28.2838 25.8013 28.6929 25.6168 29.1112 25.199C29.9005 24.4106 29.9241 23.4077 29.173 22.5733C28.6503 21.9926 27.8951 21.7934 27.1296 22.0343ZM3.86803 23.3251C3.71255 23.3741 3.40239 23.5973 3.17874 23.8211C2.60795 24.3925 2.45028 24.9954 2.67393 25.7516C2.80502 26.1947 3.47412 26.863 3.91778 26.994C4.67508 27.2174 5.27883 27.0599 5.84963 26.4897C6.63891 25.7014 6.66249 24.6985 5.91142 23.8641C5.38868 23.2834 4.63348 23.0842 3.86803 23.3251ZM28.2237 23.4177C28.3487 23.5425 28.4219 23.7079 28.4219 23.8651C28.4219 24.0222 28.3487 24.1876 28.2237 24.3124C28.0987 24.4373 27.9331 24.5105 27.7758 24.5105C27.6184 24.5105 27.4529 24.4373 27.3279 24.3124C27.2029 24.1876 27.1296 24.0222 27.1296 23.8651C27.1296 23.7079 27.2029 23.5425 27.3279 23.4177C27.4529 23.2929 27.6184 23.2197 27.7758 23.2197C27.9331 23.2197 28.0987 23.2929 28.2237 23.4177ZM4.96205 24.7085C5.36275 25.1087 5.07884 25.8013 4.51419 25.8013C4.18214 25.8013 3.86803 25.4875 3.86803 25.1559C3.86803 24.8242 4.18214 24.5105 4.51419 24.5105C4.67152 24.5105 4.8371 24.5837 4.96205 24.7085ZM13.5604 32.9006V38.7092H12.2681H10.9757V32.9006V27.0921H12.2681H13.5604V32.9006ZM21.3142 32.9006V38.7092H20.0219H18.7296V32.9006V27.0921H20.0219H21.3142V32.9006ZM29.0681 34.8368V38.7092H27.7758H26.4835V34.8368V30.9644H27.7758H29.0681V34.8368ZM5.8065 35.4822V38.7092H4.51419H3.22187V35.4822V32.2552H4.51419H5.8065V35.4822Z" fill="#C915B7"/>
</svg>
