<svg width="65" height="41" viewBox="0 0 65 41" fill="none" xmlns="http://www.w3.org/2000/svg">
<path d="M32.9745 3.55594C32.8822 3.29493 32.7384 3.05534 32.5517 2.85157C32.3651 2.64781 32.1395 2.48406 31.8883 2.37016C26.319 -0.152644 15.0207 -2.4174 9.30206 5.3809L2.97652 2.14968C2.73671 2.02716 2.47528 1.9533 2.20708 1.93235C1.93888 1.91139 1.66919 1.94375 1.41343 2.02756C1.15767 2.11136 0.921026 2.24497 0.71664 2.42077C0.512255 2.59658 0.344285 2.81115 0.22239 3.05219C0.100496 3.29323 0.0270204 3.55605 0.00617395 3.82563C-0.0146725 4.09522 0.0173755 4.36626 0.100751 4.62334C0.184126 4.88042 0.317259 5.11851 0.492163 5.32395C0.667067 5.52939 0.880496 5.69819 1.1203 5.82071L7.36751 9.01088C3.83668 18.6576 12.568 27.0927 17.9576 30.3286C18.1999 30.4741 18.4695 30.5676 18.7495 30.6034C19.0295 30.6391 19.3136 30.6164 19.5845 30.5366C19.8553 30.4567 20.1067 30.3215 20.3231 30.1394C20.5395 29.9573 20.7161 29.7322 20.8419 29.4783L32.8813 5.16392C33.0037 4.91599 33.075 4.64576 33.091 4.36947C33.107 4.09317 33.0673 3.81649 32.9745 3.55594ZM18.2282 25.5141C14.8035 22.8986 8.09186 16.5746 11.6682 9.35098C13.7008 5.24599 17.4148 4.07314 20.99 4.07314C23.4471 4.12547 25.8814 4.5607 28.2058 5.36329L18.2282 25.5141Z" fill="#0092FF"/>
<path d="M63.8741 35.7534L57.8542 32.6781C62.3664 22.5998 52.9898 14.0954 47.2898 10.9627C47.048 10.8301 46.782 10.7477 46.5078 10.7207C46.2337 10.6937 45.9568 10.7226 45.694 10.8056C45.4311 10.8886 45.1877 11.024 44.9781 11.2038C44.7685 11.3835 44.5973 11.6039 44.4744 11.8518L42.1408 16.576L36.9319 13.9148C36.4476 13.6674 35.8854 13.6234 35.3688 13.7927C34.8523 13.9619 34.4237 14.3305 34.1775 14.8173C33.9313 15.3041 33.8878 15.8693 34.0562 16.3885C34.2246 16.9077 34.5911 17.3384 35.0754 17.5858L40.3145 20.2623L36.561 27.8436L31.3522 25.1824C30.8679 24.935 30.3056 24.8911 29.7891 25.0603C29.2726 25.2296 28.8439 25.5981 28.5978 26.0849C28.3516 26.5718 28.308 27.1369 28.4764 27.6561C28.6448 28.1753 29.0114 28.606 29.4957 28.8534L34.7347 31.5299L32.4398 36.165C32.3138 36.419 32.2412 36.6964 32.227 36.9799C32.2128 37.2634 32.257 37.5467 32.3569 37.8122C32.4569 38.0776 32.6105 38.3194 32.8079 38.5224C33.0052 38.7254 33.2421 38.8851 33.5038 38.9916C36.7605 40.2877 40.2272 40.9684 43.7298 40.9995C48.0716 40.9995 52.5559 39.7974 55.6701 36.1779L62.0233 39.4232C62.5076 39.6707 63.0701 39.7146 63.5867 39.5453C64.1032 39.3761 64.5315 39.0075 64.7777 38.5207C65.0239 38.0339 65.0677 37.4687 64.8994 36.9495C64.731 36.4303 64.3641 35.9996 63.8798 35.7522L63.8741 35.7534ZM37.1536 35.8859L47.1323 15.7339C50.5919 18.1653 57.5172 24.1784 53.9444 31.3868C50.3237 38.6913 41.2889 37.0822 37.149 35.8859H37.1536Z" fill="#0092FF"/>
</svg>
