<svg width="46" height="46" viewBox="0 0 46 46" fill="none" xmlns="http://www.w3.org/2000/svg">
<path fill-rule="evenodd" clip-rule="evenodd" d="M21.648 0.139818C20.3189 0.427593 19.264 1.01419 18.2782 2.01363C16.9938 3.31594 16.4418 4.57908 16.3708 6.37815C16.3204 7.65395 16.4764 8.47119 16.9621 9.47782C17.7774 11.1672 19.0862 12.3564 20.7998 12.965C21.1488 13.0889 21.6254 13.219 21.859 13.254L22.2836 13.3176L22.2578 14.0895L22.2321 14.8614L21.5338 14.9691C19.5382 15.277 17.7153 16.1905 16.2584 17.6129L15.601 18.2548L13.6374 16.293L11.6737 14.3312L11.1578 14.8471L10.6418 15.363L12.6934 17.4157L14.745 19.4685L14.4553 20.0424C13.9208 21.1009 13.5942 22.1364 13.4304 23.2916L13.3698 23.7183H12.6116H11.8532V24.482V25.2457H12.6171C13.0371 25.2457 13.3809 25.2808 13.3809 25.3238C13.3809 25.3667 13.4402 25.7407 13.5128 26.1548C13.8444 28.0482 14.7559 29.8206 16.1102 31.2059L16.7679 31.8785L14.8057 33.8389L12.8435 35.7992L13.3575 36.3185L13.8716 36.8378L15.8959 34.8153C17.0093 33.7029 17.9626 32.7927 18.0145 32.7927C18.0663 32.7927 18.3896 32.9349 18.7326 33.1086C19.5297 33.5121 20.5862 33.848 21.5075 33.9909L22.2321 34.1032L22.2567 35.6043L22.2813 37.1053H22.9959H23.7104L23.7351 35.6042L23.7597 34.1029L24.458 33.9951C25.3923 33.8507 26.3 33.5679 27.1914 33.1433C27.5962 32.9505 27.9599 32.7927 27.9994 32.7927C28.0391 32.7927 28.9918 33.7121 30.1165 34.8358L32.1613 36.879L32.6773 36.3631L33.1933 35.8472L31.2073 33.8483L29.2214 31.8493L29.7776 31.3046C31.1643 29.9467 32.1409 28.0849 32.479 26.1548C32.5516 25.7407 32.6109 25.3667 32.6109 25.3238C32.6109 25.2808 33.2781 25.2457 34.0936 25.2457H35.5763V24.482V23.7183H34.099H32.6219L32.5614 23.2916C32.3975 22.1364 32.0709 21.1009 31.5364 20.0424L31.2467 19.4685L33.2983 17.4157L35.3499 15.363L34.8339 14.8471L34.318 14.3312L32.3543 16.293L30.3907 18.2548L29.7333 17.6129C28.2764 16.1905 26.4535 15.277 24.458 14.9691L23.7597 14.8614L23.7339 14.0895L23.7081 13.3176L24.1166 13.2564C25.6424 13.0276 27.2963 12.0291 28.2608 10.7543C29.2675 9.42355 29.6861 8.08018 29.6241 6.37815C29.563 4.69948 29.0255 3.40669 27.8655 2.14831C26.2917 0.44089 23.8704 -0.341215 21.648 0.139818ZM24.2942 1.66378C25.6842 2.02585 26.9897 3.07444 27.6052 4.32329C28.3887 5.91311 28.3823 7.42045 27.5851 9.02859C26.5245 11.1684 24.0795 12.2818 21.7401 11.6904C19.8196 11.2047 18.3288 9.64062 17.9187 7.68091C17.7535 6.89135 17.7527 6.40555 17.9155 5.63728C18.3264 3.69914 19.7624 2.1874 21.6929 1.6609C22.3047 1.49397 23.648 1.4955 24.2942 1.66378ZM20.5911 3.08396C20.1274 3.25206 19.6651 3.67326 19.4767 4.09931C19.3172 4.45986 19.3052 4.68025 19.3299 6.82001L19.3565 9.14835L19.6269 9.5328C19.9947 10.0557 20.621 10.3723 21.2688 10.363C21.7067 10.3567 21.9758 10.2488 23.7484 9.36847C24.8419 8.82536 25.8738 8.26562 26.0414 8.12447C26.8372 7.45495 26.893 6.13646 26.1587 5.35732C26.0202 5.21043 24.999 4.64251 23.7758 4.0321C21.5049 2.89906 21.2831 2.83303 20.5911 3.08396ZM43.7984 4.90342C42.7111 5.27071 41.7586 5.59119 41.6818 5.61572C41.5851 5.64663 41.4934 5.55013 41.3842 5.3027C41.2974 5.10594 41.0974 4.85302 40.9398 4.74062C40.6551 4.53766 40.631 4.53614 37.144 4.51089L33.6347 4.48555L33.3298 4.69094C33.1622 4.80388 32.9419 5.03765 32.8404 5.21043C32.6651 5.50871 32.6545 5.6849 32.629 8.6887C32.6108 10.8503 32.6347 11.9729 32.7045 12.2321C32.8324 12.707 33.2743 13.1577 33.7383 13.2865C34.2896 13.4395 40.1054 13.4134 40.5469 13.2559C40.9863 13.0992 41.1999 12.9026 41.3841 12.4852L41.5319 12.1503L43.7659 12.8961L46 13.642V8.93192C46 5.22004 45.9762 4.22329 45.8877 4.22886C45.8259 4.23264 44.8857 4.53623 43.7984 4.90342ZM0.709717 4.69355C0.546351 4.80468 0.328082 5.0098 0.224653 5.14915C0.0454723 5.39075 0.035408 5.5265 0.010427 8.0428C-0.0144642 10.5428 -0.00628697 10.7018 0.165615 11.0386C0.265449 11.2343 0.479406 11.4887 0.641154 11.6041C0.920348 11.8031 1.02854 11.816 2.77182 11.8587L4.60847 11.9036L4.68638 12.2181C5.14179 14.0546 5.29778 14.3523 5.96373 14.6547C6.70032 14.9893 7.6194 14.7504 8.03527 14.1164C8.1529 13.9371 8.35733 13.3557 8.4897 12.8246L8.73034 11.8587H10.4817C12.1226 11.8587 12.2555 11.8461 12.5868 11.66C12.7813 11.5507 13.0294 11.3182 13.1381 11.1434C13.3303 10.8346 13.3359 10.7498 13.3359 8.17506C13.3359 5.66325 13.3263 5.50817 13.1514 5.21043C13.0498 5.03765 12.8315 4.80522 12.6663 4.69381L12.3658 4.49139H6.6863H1.00679L0.709717 4.69355ZM23.2592 5.43163C25.1357 6.3706 25.3239 6.5104 25.1877 6.86511C25.1216 7.03743 21.4768 8.89382 21.2046 8.89382C20.8058 8.89382 20.7494 8.61764 20.7494 6.66673C20.7494 5.57861 20.787 4.76866 20.8424 4.66515C20.8958 4.56525 21.0299 4.49139 21.1577 4.49139C21.28 4.49139 22.2257 4.91448 23.2592 5.43163ZM11.8532 8.17506V10.4212H9.70721H7.56126L7.20901 11.8363C6.9043 13.0601 6.8316 13.255 6.67102 13.2785C6.502 13.3032 6.45338 13.1777 6.1315 11.8859L5.77772 10.4661L3.64858 10.442L1.51935 10.418V8.17344V5.92892H6.6863H11.8532V8.17506ZM40.0692 8.89382V11.8587H37.1039H34.1385V8.89382V5.92892H37.1039H40.0692V8.89382ZM44.4724 8.93192V11.5755L42.9877 11.0798L41.5031 10.584L41.5275 8.90784L41.5519 7.23168L42.8998 6.76628C43.6412 6.51031 44.2983 6.2981 44.3601 6.29459C44.4475 6.28974 44.4724 6.87356 44.4724 8.93192ZM2.95711 8.17506V8.89382H3.72092H4.48473V8.17506V7.45629H3.72092H2.95711V8.17506ZM5.92249 8.17506V8.89382H6.6863H7.45011V8.17506V7.45629H6.6863H5.92249V8.17506ZM8.88787 8.17506V8.89382H9.65167H10.4155V8.17506V7.45629H9.65167H8.88787V8.17506ZM21.0288 17.864C20.641 18.6466 20.2072 19.6169 20.0647 20.02L19.8058 20.753L17.8065 20.7532C16.6552 20.7533 15.8071 20.7185 15.8071 20.6711C15.8071 20.4656 16.7482 19.2143 17.304 18.6808C18.0921 17.9243 18.8948 17.3848 19.8027 17.0015C20.4403 16.7323 21.3037 16.47 21.6236 16.4483C21.6843 16.4442 21.4167 17.0813 21.0288 17.864ZM25.0791 16.6133C26.4166 16.9553 27.5912 17.6282 28.6878 18.6808C29.2436 19.2143 30.1847 20.4656 30.1847 20.6711C30.1847 20.7185 29.3366 20.7533 28.1853 20.7532L26.1859 20.753L25.927 20.02C25.7846 19.6169 25.3507 18.6466 24.9629 17.864C24.5751 17.0813 24.2908 16.4408 24.3313 16.4408C24.3718 16.4408 24.7083 16.5185 25.0791 16.6133ZM23.7347 18.7544C24.1092 19.5326 24.4581 20.3009 24.5098 20.4614L24.604 20.7534H22.9959H21.3877L21.4819 20.4614C21.618 20.0393 22.9273 17.3393 22.9959 17.3393C23.0277 17.3393 23.3602 17.9761 23.7347 18.7544ZM2.17246 22.4513C0.967165 22.8982 0.116192 24.0179 0.0139315 25.2913C-0.0430397 26.0016 0.223664 26.9231 0.64313 27.4651C0.870566 27.7589 4.71118 31.0615 5.11734 31.3125C5.22392 31.3784 9.19582 28.0898 9.6488 27.5607C10.5536 26.5038 10.5929 24.7704 9.7383 23.6058C8.85102 22.3967 7.2029 21.9426 5.77467 22.5139L5.19184 22.7471L4.72591 22.5429C4.06562 22.2534 2.82619 22.2089 2.17246 22.4513ZM19.4217 22.5728C19.3858 22.7333 19.3565 23.5925 19.3565 24.482C19.3565 25.3715 19.3858 26.2306 19.4217 26.3912L19.4868 26.6832H17.2977H15.1085L14.9884 26.0768C14.8334 25.2944 14.8315 23.7626 14.9844 22.9322L15.1045 22.2808H17.2956H19.4868L19.4217 22.5728ZM25.0094 22.4261C25.04 22.506 25.1105 23.0418 25.1662 23.6165C25.2468 24.4505 25.2419 24.8614 25.1424 25.65L25.0177 26.6383H22.9959H20.974L20.8495 25.65C20.7478 24.8442 20.7447 24.4552 20.8324 23.5437C20.8916 22.9288 20.9602 22.3931 20.9848 22.3532C21.0094 22.3134 21.9124 22.2808 22.9916 22.2808C24.716 22.2808 24.9603 22.2984 25.0094 22.4261ZM31.0032 22.9771C31.1591 23.8454 31.1599 25.1767 31.0052 26.0318L30.8873 26.6832H28.6961H26.5049L26.57 26.3912C26.6059 26.2306 26.6352 25.3715 26.6352 24.482C26.6352 23.5925 26.6059 22.7333 26.57 22.5728L26.5049 22.2808H28.6915H30.8781L31.0032 22.9771ZM39.3773 22.4481C38.4764 22.7593 37.8423 23.3388 37.3977 24.2574C37.1829 24.7012 37.1549 24.875 37.1234 25.9645C37.0819 27.4012 37.2202 28.202 37.6742 29.1508C38.4329 30.7368 39.6641 31.8057 41.4171 32.4005C41.7865 32.5257 42.1725 32.5681 42.9448 32.5681C43.8501 32.5681 44.026 32.5426 44.3641 32.3621C46.0428 31.4659 46.5269 29.3617 45.3299 28.1648C44.8148 27.6498 44.2893 27.4616 43.4921 27.5067C42.9591 27.5368 42.7984 27.5869 42.4513 27.8315C42.2256 27.9906 42.0079 28.1208 41.9676 28.1208C41.8331 28.1208 41.6175 27.8095 41.5582 27.5297C41.5041 27.2751 41.537 27.2252 41.9722 26.9006C42.6636 26.3849 42.9904 25.7098 42.9876 24.8029C42.986 24.2799 42.9403 24.0371 42.7898 23.7528C42.4661 23.1414 42.1278 22.8084 41.5558 22.5378C40.9029 22.229 40.1065 22.1962 39.3773 22.4481ZM3.8921 23.8167C4.09896 23.8741 4.43369 24.0945 4.70749 24.3534L5.17207 24.7927L5.47984 24.4722C6.21507 23.7069 7.22689 23.5329 8.03429 24.0328C8.82874 24.5248 9.10443 25.4605 8.70051 26.2946C8.55655 26.5919 8.12738 27.0028 6.84661 28.0694L5.17989 29.4572L3.55863 28.0927C2.66686 27.3421 1.85525 26.6166 1.75497 26.4801C1.47847 26.1039 1.4445 25.2054 1.68874 24.7269C2.09401 23.9325 2.98443 23.5648 3.8921 23.8167ZM41.2149 24.1158C41.4515 24.3738 41.507 24.5092 41.507 24.8279C41.507 25.3398 41.2795 25.6257 40.5992 25.969L40.0692 26.2366L40.0701 27.0663C40.0709 27.7457 40.109 27.9777 40.2805 28.346C40.6503 29.1398 41.3983 29.6481 42.1968 29.6481C42.563 29.6481 42.6682 29.6037 42.948 29.3305C43.398 28.8912 43.8047 28.8329 44.1853 29.1531C44.4306 29.3594 44.4724 29.454 44.4724 29.8027C44.4724 30.3383 44.21 30.7531 43.7218 30.9894C43.2675 31.2094 42.9212 31.2202 42.1517 31.0388C41.2595 30.8286 40.6234 30.4742 39.9569 29.8162C39.0874 28.9579 38.7347 28.1875 38.6036 26.8604C38.454 25.3465 38.7146 24.4756 39.4465 24.0434C40.1703 23.6158 40.7796 23.6408 41.2149 24.1158ZM20.0647 28.944C20.2072 29.3471 20.641 30.3174 21.0288 31.1C21.4357 31.9213 21.6865 32.5232 21.6218 32.5232C21.3759 32.5232 20.2158 32.1588 19.6413 31.9011C18.7987 31.5231 18.1227 31.0587 17.3542 30.3301C16.7697 29.7758 15.8071 28.5083 15.8071 28.2929C15.8071 28.2455 16.6552 28.2107 17.8065 28.2109L19.8058 28.211L20.0647 28.944ZM24.5098 28.5026C24.3738 28.9247 23.0644 31.6247 22.9959 31.6247C22.9273 31.6247 21.618 28.9247 21.4819 28.5026L21.3877 28.2106H22.9959H24.604L24.5098 28.5026ZM30.1847 28.2929C30.1847 28.5083 29.2221 29.7758 28.6375 30.3301C27.882 31.0465 27.1818 31.5307 26.3685 31.8995C25.8274 32.1448 24.6149 32.5232 24.3699 32.5232C24.3052 32.5232 24.556 31.9213 24.9629 31.1C25.3507 30.3174 25.7846 29.3471 25.927 28.944L26.1859 28.211L28.1853 28.2109C29.3366 28.2107 30.1847 28.2455 30.1847 28.2929ZM36.689 34.2257C35.7733 34.4442 34.8835 35.1788 34.45 36.0741C34.2202 36.5486 34.1895 36.7105 34.1867 37.4647C34.1838 38.2156 34.2139 38.3842 34.4372 38.8672C34.5822 39.181 34.88 39.6025 35.1324 39.851C35.4684 40.1818 35.6077 40.405 35.7154 40.7845C35.7931 41.0587 35.9984 41.4921 36.1717 41.7475L36.4867 42.2118L36.0926 42.5751C35.5518 43.0735 35.2619 43.648 34.9469 44.8458C34.7994 45.4065 34.6786 45.8955 34.6782 45.9326C34.6779 45.9697 36.4394 46 38.5926 46C42.2792 46 42.5048 45.9908 42.4604 45.8428C42.4344 45.7563 42.3249 45.3217 42.2171 44.8769C41.9555 43.7989 41.6603 43.1902 41.1344 42.6447C40.8945 42.3959 40.6983 42.1644 40.6983 42.1305C40.6983 42.0966 40.7621 42.0159 40.8401 41.9511C41.0294 41.7941 41.3788 41.09 41.4615 40.6991C41.504 40.4985 41.7045 40.1987 42.0154 39.8708C42.2835 39.5883 42.6117 39.1233 42.7448 38.8376C42.9512 38.3947 42.9869 38.1991 42.9869 37.5096C42.9869 36.8224 42.951 36.6239 42.7477 36.1877C42.4297 35.5053 42.0953 35.0971 41.5519 34.7276C40.8211 34.2306 40.3455 34.1391 38.5477 34.1496C37.6795 34.1547 36.843 34.1889 36.689 34.2257ZM40.1084 35.6757C40.5915 35.7973 41.0973 36.2054 41.3299 36.6612C41.5347 37.0625 41.5605 37.8148 41.3837 38.2284C41.2704 38.4934 41.2667 38.4947 41.1642 38.3037C41.1069 38.197 40.9185 38.0223 40.7455 37.9153C40.3658 37.6807 38.1369 37.1053 37.6075 37.1053C37.0709 37.1053 36.3394 37.4914 36.0513 37.9268C35.9238 38.1194 35.8016 38.2591 35.7798 38.2372C35.7579 38.2153 35.7018 38.0274 35.6551 37.8196C35.466 36.978 36.0704 35.9822 36.9338 35.7131C37.4194 35.5617 39.5556 35.5365 40.1084 35.6757ZM8.01497 37.2357C7.42971 37.4185 6.85865 37.7898 6.49651 38.2231C6.26234 38.5031 6.07435 38.6347 5.84799 38.6772C5.40804 38.7597 4.60128 39.1832 4.17022 39.5578C3.69289 39.9726 3.26722 40.7013 3.0848 41.4159C2.82709 42.4253 3.03439 43.2777 3.69055 43.9065C4.28875 44.4798 4.22387 44.4728 8.90745 44.4706C13.6337 44.4685 13.5398 44.4795 14.1717 43.8478C14.6776 43.342 14.773 43.0771 14.7733 42.1769C14.7737 41.4173 14.7514 41.3185 14.4353 40.6791C13.9286 39.654 12.9451 38.8675 11.9333 38.6781C11.6996 38.6344 11.5155 38.5056 11.2744 38.2171C10.496 37.2862 9.15026 36.8809 8.01497 37.2357ZM9.47195 38.6977C9.81908 38.7912 10.1575 39.1052 10.4285 39.5854C10.693 40.0538 10.7153 40.0702 11.0867 40.0702C12.2659 40.0702 13.2892 41.0224 13.3226 42.1507C13.3341 42.5412 13.3024 42.6299 13.0838 42.818L12.8316 43.0351H8.87879H4.92585L4.70534 42.8145C4.23815 42.3475 4.49336 41.2927 5.2303 40.644C5.68454 40.2443 6.14256 40.0703 6.74165 40.07C7.12778 40.0697 7.14072 40.06 7.39331 39.5766C7.83156 38.7381 8.5278 38.4437 9.47195 38.6977ZM22.1422 38.6343C20.4732 38.8166 18.9506 39.5021 17.7057 40.6315C17.5017 40.8166 17.3347 41 17.3347 41.0389C17.3347 41.0777 17.5536 41.3257 17.8211 41.5898L18.3076 42.0702L18.7638 41.6766C19.4329 41.0996 20.2453 40.636 21.062 40.365C21.6995 40.1535 21.923 40.1258 22.9959 40.1256C24.0585 40.1255 24.2944 40.1539 24.8979 40.3555C25.7803 40.6501 26.6202 41.121 27.2124 41.6534L27.6804 42.074L28.1687 41.5918C28.4372 41.3266 28.657 41.0777 28.657 41.0389C28.657 41 28.4901 40.8166 28.286 40.6315C26.6343 39.1329 24.3565 38.3925 22.1422 38.6343ZM39.9658 39.2034C40.1623 39.3574 40.0686 40.5363 39.8348 40.8518C39.1752 41.742 37.9975 41.7411 37.3368 40.8499C37.1865 40.6474 37.1425 40.4348 37.1173 39.7919C37.0843 38.9478 37.1434 38.7686 37.4986 38.6372C37.6892 38.5667 39.7596 39.0418 39.9658 39.2034ZM22.3209 41.6022C21.7016 41.682 21.0235 41.9217 20.4252 42.2724C19.9594 42.5453 19.0806 43.4063 18.837 43.8283L18.6769 44.1057L19.2863 44.516L19.8957 44.9264L20.0302 44.722C20.3785 44.1928 20.997 43.6418 21.5468 43.3712C22.0886 43.1045 22.2106 43.08 22.9959 43.08C23.7812 43.08 23.9031 43.1045 24.445 43.3712C24.9947 43.6418 25.6132 44.1928 25.9615 44.722L26.096 44.9264L26.7056 44.5159C27.0989 44.2511 27.2921 44.0671 27.2504 43.9971C26.2276 42.2809 24.304 41.3465 22.3209 41.6022ZM39.1743 43.1245C39.5713 43.2347 40.0177 43.5592 40.3013 43.9436C40.6958 44.4783 40.7146 44.4726 38.5359 44.4726H36.5532L36.7611 44.1012C37.2273 43.2687 38.231 42.8624 39.1743 43.1245ZM22.277 45.2363V46H22.9959H23.7147V45.2363V44.4726H22.9959H22.277V45.2363Z" fill="#21B7CC"/>
</svg>
