<svg width="18" height="18" viewBox="0 0 18 18" fill="none" xmlns="http://www.w3.org/2000/svg">
<path d="M1.60577 4.73094L9 0.46188L16.3942 4.73094V13.2691L9 17.5381L1.60577 13.2691V4.73094Z" stroke="#410EAD" stroke-width="0.8"/>
<path d="M5.7469 5H5.96734C5.97639 5.00461 5.98593 5.00819 5.99578 5.01066C6.1278 5.03103 6.25322 5.08204 6.36196 5.15959C6.47071 5.23713 6.55976 5.33907 6.62198 5.45721C6.6842 5.57536 6.71785 5.70643 6.72025 5.83992C6.72264 5.97341 6.6937 6.1056 6.63576 6.2259C6.62623 6.24231 6.62332 6.26174 6.62761 6.28022C6.63191 6.2987 6.64308 6.31486 6.65887 6.32539L7.54773 7.21373C7.56195 7.22794 7.57795 7.2386 7.58506 7.24571C8.53318 6.59189 9.473 6.59189 10.4045 7.24571L10.9378 6.71271L10.9147 6.67184C10.8309 6.5249 10.7818 6.36076 10.7712 6.19196C10.7605 6.02316 10.7886 5.85415 10.8533 5.69785C10.9179 5.54154 11.0174 5.40206 11.1442 5.29004C11.271 5.17803 11.4218 5.09645 11.5849 5.05152L11.7414 5.01244H12.0063C12.0208 5.01763 12.0356 5.02179 12.0507 5.02487C12.2554 5.05471 12.4474 5.14177 12.6047 5.276C12.7619 5.41023 12.878 5.58617 12.9396 5.78351C12.9615 5.85241 12.9799 5.92239 12.9947 5.99316V6.25788C12.9877 6.27391 12.9824 6.29057 12.9787 6.30763C12.9476 6.48666 12.8731 6.65536 12.7616 6.79896C12.6502 6.94255 12.5053 7.05668 12.3396 7.13136C12.1738 7.20604 11.9923 7.23899 11.8108 7.22733C11.6294 7.21567 11.4535 7.15976 11.2987 7.06449L10.7654 7.59749C11.4149 8.53439 11.4113 9.47306 10.7547 10.4135C11.057 10.7155 11.3627 11.0194 11.6667 11.3249C11.6802 11.3429 11.7 11.355 11.7221 11.359C11.7442 11.3629 11.7669 11.3584 11.7858 11.3463C11.897 11.2957 12.0177 11.2696 12.1398 11.2696C12.2619 11.2695 12.3826 11.2957 12.4937 11.3462C12.6049 11.3967 12.7039 11.4704 12.7842 11.5623C12.8645 11.6543 12.9241 11.7623 12.9591 11.8793C12.9751 11.929 12.9858 11.9788 13 12.0285V12.247C12.9935 12.2581 12.9887 12.2701 12.9858 12.2826C12.9606 12.4441 12.8883 12.5947 12.7779 12.7154C12.6676 12.8361 12.5241 12.9216 12.3654 12.9613C12.2067 13.0122 12.0361 13.0129 11.877 12.9633C11.7179 12.9137 11.578 12.8162 11.4765 12.6841C11.3688 12.5624 11.2997 12.4115 11.2778 12.2505C11.256 12.0896 11.2824 11.9257 11.3538 11.7798C11.3656 11.7605 11.3696 11.7374 11.365 11.7153C11.3603 11.6932 11.3475 11.6737 11.3289 11.6607C11.0463 11.38 10.7636 11.0957 10.481 10.8133C10.4619 10.7916 10.4447 10.7684 10.4294 10.744C9.473 11.4102 8.53614 11.4102 7.60106 10.7617L7.06775 11.2947C7.17337 11.4633 7.23175 11.6572 7.23677 11.856C7.24178 12.0549 7.19326 12.2514 7.09627 12.4251C6.99928 12.5989 6.85738 12.7433 6.68541 12.8435C6.51344 12.9436 6.3177 12.9958 6.11867 12.9944C5.91964 12.9931 5.72462 12.9384 5.55399 12.836C5.38336 12.7336 5.24339 12.5872 5.14872 12.4122C5.05404 12.2373 5.00813 12.0401 5.01579 11.8413C5.02345 11.6425 5.08439 11.4495 5.19225 11.2823C5.32646 11.056 5.53894 10.8866 5.78956 10.8062C5.94169 10.7585 6.10234 10.7445 6.26042 10.7651C6.4185 10.7856 6.57022 10.8403 6.70509 10.9252L7.23841 10.3922C6.58776 9.45529 6.58776 8.51662 7.23841 7.57617L7.19219 7.51576C6.90953 7.23327 6.62509 6.95078 6.34599 6.66652C6.33015 6.64377 6.30608 6.62809 6.27887 6.62278C6.25166 6.61747 6.22345 6.62296 6.20022 6.63809C6.00069 6.7253 5.77541 6.73332 5.57018 6.6605C5.36495 6.58767 5.19516 6.43949 5.09533 6.24605C4.9955 6.05261 4.97311 5.82844 5.03272 5.6191C5.09233 5.40976 5.22946 5.23096 5.41624 5.11904C5.52297 5.07026 5.63357 5.03044 5.7469 5ZM8.28726 9.42923C8.19413 9.33382 8.12124 9.22059 8.07298 9.09633C8.02471 8.97207 8.00206 8.83935 8.00638 8.70613C8.00894 8.57326 8.03919 8.44238 8.0952 8.32185C8.15122 8.20132 8.23177 8.09379 8.3317 8.00612C8.50141 7.85203 8.7199 7.76245 8.94899 7.75303C9.17809 7.74362 9.4032 7.81496 9.585 7.9546C9.76759 8.09334 9.89386 8.29336 9.94054 8.5178C9.97599 8.67448 9.97231 8.83747 9.92984 8.99239C9.88736 9.14731 9.8074 9.2894 9.69699 9.40614C9.82521 9.50296 9.9475 9.60737 10.0632 9.71883C10.1633 9.83839 10.2565 9.96355 10.3423 10.0937C10.6248 9.75765 10.7704 9.32771 10.7503 8.88929C10.7302 8.45087 10.5459 8.03604 10.2339 7.72719C10.0616 7.55951 9.85709 7.4285 9.6327 7.34209C9.40831 7.25568 9.16872 7.21567 8.92841 7.22447C8.6881 7.23328 8.45208 7.29071 8.23463 7.39331C8.01717 7.4959 7.8228 7.64152 7.66328 7.82135C7.38395 8.13685 7.22827 8.54271 7.22501 8.96397C7.22174 9.38524 7.3711 9.79346 7.6455 10.1133C7.78086 9.82262 8.00576 9.58291 8.28726 9.42923ZM9.96365 10.4561C9.90146 10.2325 9.76373 10.0372 9.57384 9.90341C9.38396 9.76967 9.15361 9.7057 8.92191 9.72238C8.49348 9.75081 8.05794 10.1061 8.0206 10.4615C8.30839 10.6536 8.64688 10.7556 8.99294 10.7547C9.339 10.7537 9.67693 10.6498 9.96365 10.4561ZM11.2276 6.11042C11.228 6.23719 11.2659 6.36102 11.3366 6.46626C11.4074 6.5715 11.5077 6.65343 11.625 6.70171C11.7423 6.74998 11.8713 6.76243 11.9957 6.73748C12.12 6.71253 12.2342 6.6513 12.3238 6.56154C12.4134 6.47177 12.4743 6.35748 12.4989 6.23312C12.5235 6.10875 12.5107 5.97988 12.4621 5.86279C12.4135 5.7457 12.3312 5.64563 12.2257 5.57523C12.1202 5.50484 11.9962 5.46726 11.8694 5.46726C11.7849 5.46703 11.7012 5.48352 11.6231 5.51578C11.545 5.54804 11.4741 5.59543 11.4144 5.65522C11.3548 5.71501 11.3075 5.78602 11.2755 5.86415C11.2434 5.94228 11.2271 6.02598 11.2276 6.11042ZM6.10955 11.2237C5.98228 11.2233 5.85775 11.2607 5.75173 11.3311C5.6457 11.4015 5.56294 11.5017 5.51391 11.6191C5.46488 11.7364 5.45178 11.8657 5.47626 11.9906C5.50075 12.1154 5.56172 12.2301 5.65148 12.3203C5.74123 12.4105 5.85572 12.4721 5.98049 12.4973C6.10525 12.5224 6.23468 12.51 6.3524 12.4617C6.47013 12.4133 6.57086 12.3312 6.64187 12.2256C6.71287 12.12 6.75096 11.9958 6.75131 11.8686C6.75202 11.784 6.73592 11.7001 6.70397 11.6218C6.67201 11.5435 6.62482 11.4722 6.56514 11.4123C6.50545 11.3523 6.43445 11.3047 6.35625 11.2723C6.27805 11.24 6.1942 11.2234 6.10955 11.2237ZM8.47392 8.73633C8.47287 8.83846 8.5022 8.93859 8.5582 9.02402C8.6142 9.10945 8.69435 9.17632 8.78845 9.21613C8.88255 9.25595 8.98638 9.26691 9.08673 9.24764C9.18708 9.22836 9.27944 9.17972 9.35208 9.10788C9.42471 9.03604 9.47434 8.94425 9.49467 8.84416C9.515 8.74407 9.5051 8.6402 9.46625 8.54574C9.42739 8.45129 9.36132 8.3705 9.27643 8.31365C9.19153 8.25679 9.09165 8.22644 8.98946 8.22643C8.85304 8.22643 8.72218 8.28047 8.62555 8.37671C8.52892 8.47295 8.47439 8.60355 8.47392 8.73989V8.73633ZM6.24999 5.85813C6.24999 5.78067 6.22696 5.70496 6.18383 5.64061C6.14069 5.57626 6.0794 5.52617 6.00773 5.49669C5.93606 5.46721 5.85724 5.45968 5.78128 5.47505C5.70532 5.49043 5.63564 5.52801 5.58109 5.58303C5.52653 5.63805 5.48957 5.70802 5.47488 5.78408C5.4602 5.86013 5.46845 5.93883 5.4986 6.01019C5.52874 6.08154 5.57943 6.14234 5.64421 6.18486C5.70899 6.22738 5.78495 6.2497 5.86245 6.249C5.96556 6.24806 6.06413 6.20647 6.1367 6.13327C6.20928 6.06007 6.25 5.96118 6.24999 5.85813ZM12.1165 11.7211C12.0171 11.7278 11.9239 11.772 11.8559 11.8447C11.7879 11.9175 11.75 12.0133 11.75 12.1129C11.75 12.2125 11.7879 12.3083 11.8559 12.381C11.9239 12.4538 12.0171 12.498 12.1165 12.5046C12.1683 12.5044 12.2196 12.494 12.2674 12.4739C12.3152 12.4539 12.3585 12.4247 12.395 12.3879C12.4315 12.3511 12.4604 12.3075 12.48 12.2595C12.4996 12.2116 12.5096 12.1602 12.5093 12.1084C12.5079 12.0059 12.4661 11.908 12.3928 11.8361C12.3196 11.7643 12.2209 11.7242 12.1183 11.7247L12.1165 11.7211Z" fill="#410EAD"/>
</svg>
