<svg width="50" height="39" viewBox="0 0 50 39" fill="none" xmlns="http://www.w3.org/2000/svg">
<path d="M33.3462 19.3112L19.8985 30.566C19.4812 30.9155 18.9409 31.0864 18.3965 31.0409C17.8521 30.9955 17.3483 30.7376 16.9957 30.3238C16.6432 29.9101 16.4709 29.3744 16.5167 28.8347C16.5625 28.295 16.8227 27.7955 17.24 27.446L24.5358 21.3406H2.05926C1.78883 21.3406 1.52105 21.2878 1.27121 21.1852C1.02137 21.0826 0.794352 20.9323 0.603132 20.7427C0.411912 20.5531 0.260224 20.3281 0.156736 20.0804C0.0532488 19.8327 0 19.5672 0 19.2991C0 19.031 0.0532488 18.7655 0.156736 18.5178C0.260224 18.2701 0.411912 18.045 0.603132 17.8555C0.794352 17.6659 1.02137 17.5156 1.27121 17.413C1.52105 17.3104 1.78883 17.2576 2.05926 17.2576H24.5868L16.5818 10.4776C16.3726 10.3046 16.2 10.0923 16.0742 9.85273C15.9483 9.61317 15.8717 9.35119 15.8487 9.08205C15.8258 8.81291 15.8569 8.54197 15.9403 8.28485C16.0238 8.02774 16.1579 7.78961 16.3349 7.58426C16.5119 7.37892 16.7282 7.21046 16.9714 7.08863C17.2145 6.96679 17.4796 6.89395 17.7514 6.87446C18.0231 6.85497 18.296 6.8892 18.5544 6.97506C18.8127 7.06093 19.0512 7.19676 19.2562 7.3747L33.3462 19.3112Z" fill="#FC7754"/>
<path d="M50.0001 16.598V21.8628C50.0002 21.9898 49.975 22.1157 49.926 22.2331C49.877 22.3504 49.8051 22.457 49.7145 22.5468C49.6239 22.6366 49.5163 22.7078 49.3978 22.7563C49.2794 22.8048 49.1525 22.8297 49.0244 22.8295H45.7365C45.6944 22.83 45.6523 22.8271 45.6107 22.8209H45.1322C44.7935 24.388 44.2185 25.8957 43.4264 27.2929C43.6375 27.32 43.8334 27.416 43.9833 27.5657L46.3091 29.8694C46.4912 30.0509 46.5934 30.2965 46.5934 30.5525C46.5934 30.8085 46.4912 31.0542 46.3091 31.2357L42.5527 34.9597C42.4623 35.0496 42.3548 35.121 42.2365 35.1697C42.1182 35.2183 41.9914 35.2434 41.8633 35.2434C41.7352 35.2434 41.6084 35.2183 41.4901 35.1697C41.3718 35.121 41.2643 35.0496 41.1739 34.9597L38.8481 32.6539C38.8028 32.6093 38.7622 32.5603 38.7266 32.5078C37.3563 33.4879 35.8392 34.2487 34.2309 34.7624V38.0327C34.2311 38.1598 34.206 38.2856 34.157 38.4031C34.108 38.5205 34.0362 38.6273 33.9455 38.7171C33.8549 38.807 33.7472 38.8782 33.6288 38.9268C33.5103 38.9753 33.3833 39.0002 33.2552 39H27.9454C27.8172 39.0002 27.6902 38.9753 27.5717 38.9268C27.4532 38.8782 27.3456 38.807 27.255 38.7171C27.1643 38.6273 27.0924 38.5205 27.0435 38.4031C26.9945 38.2856 26.9694 38.1598 26.9696 38.0327V35.3722C24.9755 35.0904 23.0522 34.4409 21.2991 33.4574C21.1655 33.3805 21.0523 33.2733 20.9687 33.1444C20.8852 33.0156 20.8338 32.8689 20.8188 32.7165C20.8038 32.5641 20.8256 32.4103 20.8823 32.2678C20.9391 32.1254 21.0293 31.9985 21.1453 31.8974L22.5328 30.6865C22.6795 30.5584 22.8617 30.477 23.0557 30.4528C23.2497 30.4287 23.4465 30.4629 23.6206 30.5511C25.5775 31.5299 27.759 31.9831 29.9476 31.8653C32.1362 31.7476 34.2554 31.063 36.0939 29.88C37.9324 28.697 39.4259 27.0568 40.4256 25.123C41.4252 23.1892 41.8961 21.0294 41.7911 18.859C41.6924 16.8031 41.0803 14.8036 40.0097 13.0401C38.9391 11.2766 37.4435 9.80435 35.6572 8.75542C33.871 7.70649 31.8499 7.11375 29.7755 7.03042C27.7011 6.9471 25.6382 7.37581 23.7722 8.27804C23.7059 8.31069 23.6307 8.32138 23.5578 8.30856C23.4848 8.29574 23.418 8.26002 23.367 8.20674L21.2409 5.96149C21.2053 5.92415 21.1787 5.87927 21.1631 5.83028C21.1474 5.78129 21.1432 5.72948 21.1507 5.67863C21.1581 5.62778 21.1771 5.57927 21.2062 5.53672C21.2352 5.49418 21.2736 5.45872 21.3185 5.43299C22.9052 4.54451 24.6327 3.9298 26.4271 3.61512V0.967366C26.4269 0.84028 26.4521 0.71439 26.501 0.596942C26.55 0.479494 26.6218 0.372813 26.7125 0.28295C26.8031 0.193087 26.9108 0.12185 27.0292 0.0733034C27.1477 0.0247564 27.2747 -0.000186531 27.4029 1.0502e-06H32.7134C32.8415 -9.2765e-05 32.9684 0.0248883 33.0868 0.0734773C33.2052 0.122066 33.3128 0.193357 33.4033 0.283211C33.4939 0.373065 33.5657 0.479714 33.6146 0.597116C33.6635 0.714517 33.6886 0.84034 33.6884 0.967366V3.97337C35.3373 4.43863 36.9015 5.1599 38.3228 6.11036L38.4665 5.96219L38.4946 5.93445L40.7938 3.65851C40.9769 3.47777 41.2248 3.37635 41.4832 3.37635C41.7416 3.37635 41.9895 3.47777 42.1726 3.65851L45.929 7.38259C46.0197 7.47219 46.0916 7.57866 46.1407 7.69588C46.1898 7.81311 46.2151 7.93877 46.2151 8.0657C46.2151 8.19263 46.1898 8.31838 46.1407 8.4356C46.0916 8.55283 46.0197 8.6593 45.929 8.7489L43.7735 10.8859L43.2993 11.3738C44.0819 12.7014 44.6659 14.1346 45.033 15.6285H49.0323C49.2902 15.6302 49.5369 15.7332 49.7183 15.915C49.8997 16.0967 50.0011 16.3423 50.0001 16.598Z" fill="#FC7754"/>
</svg>
