<svg width="18" height="18" viewBox="0 0 18 18" fill="none" xmlns="http://www.w3.org/2000/svg">
<path d="M1.60577 4.73094L9 0.46188L16.3942 4.73094V13.2691L9 17.5381L1.60577 13.2691V4.73094Z" stroke="#410EAD" stroke-width="0.8"/>
<path fill-rule="evenodd" clip-rule="evenodd" d="M5.592 5.01678C5.32631 5.08252 5.0898 5.35929 5.02575 5.67942C4.99167 5.84986 4.99129 10.5574 5.02536 10.7262C5.09248 11.0587 5.33062 11.3305 5.60832 11.3915C5.71142 11.4141 6.67066 11.4163 6.72651 11.394C6.82157 11.356 6.84952 11.2097 6.77635 11.1328L6.73549 11.0899L6.193 11.0817C5.67113 11.0738 5.64806 11.0722 5.58603 11.0373C5.49854 10.9882 5.4013 10.8683 5.35814 10.7562L5.32248 10.6636V9.08968V7.51571L8.71605 7.51158L12.1096 7.50743V8.34365V9.17985L12.051 9.18021C11.9807 9.18064 11.8674 9.23179 11.8106 9.28877L11.7693 9.33015L11.6622 9.28142C11.6033 9.25463 11.5399 9.22789 11.5213 9.22202C11.4945 9.21354 11.4853 9.19382 11.4765 9.12593C11.458 8.98179 11.391 8.8784 11.2761 8.81641C11.2002 8.77541 10.9272 8.75747 10.7905 8.78449C10.6194 8.8183 10.5072 8.94304 10.49 9.1187L10.4813 9.20664L10.3424 9.26827L10.2034 9.3299L10.1549 9.28708C10.0719 9.21371 10.0143 9.19057 9.91493 9.19062C9.85014 9.19066 9.80194 9.20128 9.75873 9.22505C9.67461 9.27132 9.41448 9.55008 9.38447 9.6261C9.33524 9.75081 9.36984 9.93114 9.46255 10.033L9.50036 10.0745L9.44008 10.2215L9.3798 10.3685L9.29591 10.3773C9.20007 10.3874 9.13623 10.4191 9.07711 10.4859C8.99412 10.5798 8.97986 10.6315 8.97283 10.8645L8.96627 11.0817H8.48264H7.99901L7.95335 11.1297C7.87671 11.2101 7.89785 11.3384 7.99648 11.3913C8.02006 11.404 8.23972 11.4096 8.70746 11.4096H9.38433L9.44393 11.5576L9.50352 11.7056L9.45731 11.7608C9.35823 11.8793 9.33546 12.0496 9.4008 12.1834C9.44166 12.2671 9.68992 12.5194 9.76801 12.5566C9.86503 12.6028 9.97585 12.6 10.0738 12.5488C10.1173 12.526 10.1645 12.4939 10.1788 12.4773C10.2039 12.4482 10.2096 12.4492 10.3432 12.5063L10.4817 12.5655L10.4985 12.6716C10.5202 12.8091 10.5767 12.8941 10.6863 12.9542C10.7653 12.9975 10.7809 13 10.9732 13C11.0851 13 11.2034 12.9916 11.2361 12.9813C11.3682 12.9397 11.4646 12.8073 11.4805 12.6454C11.4853 12.597 11.497 12.5572 11.5065 12.5571C11.516 12.557 11.5798 12.5313 11.6483 12.4999L11.7727 12.4429L11.8201 12.4911C11.9194 12.592 12.0871 12.6204 12.2112 12.5573C12.2927 12.5159 12.5546 12.2372 12.5859 12.1585C12.6366 12.0311 12.6062 11.8603 12.5152 11.7616L12.4692 11.7118L12.5236 11.5812C12.5534 11.5094 12.5779 11.4414 12.5781 11.4301C12.5782 11.4175 12.6001 11.4096 12.635 11.4096C12.7353 11.4096 12.8169 11.3732 12.8911 11.2953C12.9836 11.1983 13 11.1345 13 10.8727C13 10.6708 12.9976 10.6544 12.9564 10.5715C12.8967 10.4516 12.8126 10.3913 12.6868 10.3784L12.5905 10.3685L12.5547 10.2684C12.535 10.2133 12.5078 10.1458 12.4943 10.1184C12.472 10.0731 12.472 10.0666 12.4942 10.0472C12.5077 10.0354 12.5391 9.98858 12.564 9.94305C12.6466 9.7918 12.6213 9.62694 12.4923 9.47715L12.439 9.41523L12.4343 7.57191L12.4296 5.7286L12.387 5.59616C12.3148 5.37239 12.1616 5.16735 12.003 5.08242C11.8393 4.99479 12.004 4.99887 8.70496 5.00064C6.99926 5.00158 5.62468 5.00869 5.592 5.01678ZM11.8024 5.3531C11.8973 5.38705 11.9988 5.49156 12.0563 5.61465L12.1018 5.71221L12.1063 6.4459L12.1108 7.1796H8.71185H5.31288L5.31786 6.4623C5.32272 5.76059 5.32361 5.74298 5.35833 5.65241C5.41596 5.50205 5.53131 5.38276 5.65823 5.34223C5.67976 5.33536 7.05452 5.32909 8.71327 5.32832C11.4364 5.32704 11.7363 5.32945 11.8024 5.3531ZM6.33001 5.72929C6.23332 5.75721 6.10256 5.84439 6.05403 5.9133C5.96575 6.03861 5.94738 6.09871 5.94759 6.26146C5.94776 6.39049 5.95393 6.43026 5.98358 6.49322C6.0412 6.61561 6.11901 6.69799 6.23229 6.75652C6.32354 6.80367 6.35178 6.81031 6.46205 6.81049C6.5674 6.81067 6.60293 6.80324 6.68147 6.76468C6.80233 6.70533 6.91131 6.58463 6.95543 6.46128C7.00124 6.33317 6.9944 6.14095 6.93987 6.02415C6.82971 5.78822 6.56657 5.66099 6.33001 5.72929ZM7.70351 5.72545C7.43271 5.80578 7.26706 6.0752 7.316 6.35573C7.34847 6.54197 7.45491 6.68397 7.62464 6.7675C7.7487 6.82856 7.9239 6.82823 8.05059 6.76672C8.16262 6.71232 8.25868 6.6117 8.31151 6.49342C8.34608 6.41602 8.35288 6.37795 8.35288 6.26146C8.35288 6.14208 8.34661 6.10872 8.30923 6.0288C8.19926 5.79377 7.92918 5.65851 7.70351 5.72545ZM9.57512 5.72181C9.25453 5.80112 9.07244 6.17397 9.20301 6.48378C9.24598 6.58574 9.36517 6.71251 9.4678 6.76542L9.55566 6.8107H10.3836C11.2112 6.8107 11.2115 6.81069 11.2883 6.7735C11.406 6.71651 11.4893 6.63544 11.5472 6.52147C11.6745 6.27078 11.6034 5.97032 11.378 5.80694C11.2416 5.70799 11.2003 5.70383 10.3764 5.70565C9.96794 5.70657 9.60738 5.71383 9.57512 5.72181ZM6.59829 6.09191C6.6943 6.18309 6.69786 6.33156 6.60617 6.41975C6.53409 6.48909 6.45915 6.50386 6.38167 6.46399C6.23675 6.38944 6.20986 6.20345 6.32778 6.09143C6.39315 6.02933 6.53269 6.02957 6.59829 6.09191ZM7.97016 6.09512C8.06393 6.16836 8.06847 6.32551 7.97954 6.41885C7.91056 6.49125 7.83523 6.50472 7.74775 6.46027C7.66459 6.41802 7.62652 6.35343 7.62652 6.25459C7.62652 6.19209 7.63536 6.16887 7.67754 6.12057C7.75725 6.02926 7.87296 6.0192 7.97016 6.09512ZM11.2015 6.07945C11.2973 6.15116 11.3236 6.281 11.2619 6.3779C11.1891 6.49232 11.1995 6.49094 10.405 6.49096C10.013 6.49098 9.66957 6.4862 9.64173 6.48037C9.57381 6.4661 9.49201 6.37752 9.47887 6.30399C9.46583 6.23104 9.51253 6.10972 9.565 6.08025C9.64157 6.03723 9.70371 6.03407 10.4148 6.03705L11.149 6.04012L11.2015 6.07945ZM7.47512 8.45861C7.4563 8.46657 7.42961 8.49118 7.4158 8.51329C7.38665 8.55997 7.07803 9.89504 7.07469 9.98889C7.07283 10.0409 7.08134 10.0603 7.12322 10.0996C7.2132 10.1839 7.33779 10.1486 7.37514 10.0281C7.41131 9.91134 7.69089 8.65997 7.69148 8.61209C7.69234 8.54359 7.66649 8.49682 7.61121 8.46681C7.56037 8.43922 7.52589 8.43714 7.47512 8.45861ZM6.42992 8.59429C6.36373 8.63437 5.92442 9.16985 5.90579 9.23314C5.87381 9.34177 5.90201 9.39417 6.1512 9.689C6.27656 9.83729 6.39345 9.97156 6.41096 9.98733C6.43036 10.0048 6.46849 10.016 6.50846 10.016C6.5984 10.016 6.65804 9.9526 6.65804 9.85695C6.65804 9.79421 6.64491 9.7743 6.45497 9.54937C6.34329 9.41709 6.25191 9.30354 6.25191 9.29701C6.25191 9.29049 6.29233 9.23732 6.34173 9.17885C6.66854 8.79205 6.65804 8.80676 6.65804 8.73581C6.65804 8.61101 6.5317 8.53264 6.42992 8.59429ZM8.16066 8.61403C8.10545 8.6628 8.09042 8.72742 8.11869 8.79456C8.13008 8.82161 8.22427 8.94335 8.32799 9.06508C8.43173 9.18682 8.51666 9.2911 8.51674 9.29678C8.51683 9.30249 8.42854 9.41131 8.32054 9.53862C8.085 9.81629 8.06133 9.87769 8.15287 9.97377C8.18333 10.0058 8.20874 10.0159 8.25737 10.0155C8.29272 10.0152 8.33285 10.006 8.34657 9.995C8.41548 9.93978 8.84719 9.41086 8.86214 9.36333C8.8945 9.2604 8.87039 9.20815 8.69183 8.9944C8.60001 8.88449 8.47889 8.74477 8.42267 8.68389C8.33338 8.58724 8.31326 8.57322 8.26367 8.57322C8.22594 8.57322 8.19136 8.58693 8.16066 8.61403ZM11.1568 9.23314C11.1568 9.31344 11.1657 9.37061 11.1841 9.40939C11.2089 9.4614 11.2254 9.47153 11.3598 9.51747C11.4415 9.54536 11.5661 9.59886 11.6368 9.63634C11.7074 9.67383 11.7814 9.70451 11.8012 9.70451C11.8458 9.70451 11.8931 9.67195 11.9887 9.57556L12.063 9.5006L12.18 9.62263C12.2444 9.68975 12.2971 9.75251 12.2971 9.7621C12.2971 9.77168 12.262 9.81577 12.2191 9.86008C12.1763 9.9044 12.1335 9.96521 12.1241 9.99523C12.1083 10.0452 12.1135 10.0638 12.1852 10.2174C12.2283 10.3095 12.278 10.437 12.2957 10.5007C12.3421 10.6677 12.3736 10.6935 12.544 10.7043L12.6798 10.7128L12.6843 10.8744C12.6872 10.9794 12.6824 11.0439 12.6706 11.0588C12.658 11.0748 12.6161 11.0817 12.5316 11.0817C12.3691 11.0817 12.3454 11.1021 12.2896 11.2903C12.2662 11.3695 12.2153 11.4982 12.1767 11.5764C12.1121 11.7072 12.1078 11.7231 12.1238 11.774C12.1334 11.8044 12.1763 11.8656 12.2191 11.9099C12.262 11.9542 12.2971 11.9983 12.2971 12.0079C12.2971 12.03 12.0752 12.2622 12.054 12.2622C12.0454 12.2622 12.0004 12.2219 11.954 12.1727C11.8373 12.0486 11.8099 12.0454 11.6436 12.1359C11.5691 12.1765 11.447 12.2292 11.3721 12.2532C11.193 12.3104 11.1724 12.3367 11.1724 12.5083C11.1724 12.597 11.1658 12.641 11.1506 12.6543C11.1364 12.6667 11.0749 12.6717 10.9748 12.6686L10.8209 12.6639L10.8128 12.5214C10.8026 12.3428 10.778 12.3097 10.6188 12.2603C10.5582 12.2414 10.4385 12.1892 10.3529 12.1442C10.2094 12.0687 10.193 12.0637 10.142 12.0798C10.111 12.0895 10.0525 12.1335 10.0092 12.1797C9.96658 12.2251 9.92426 12.2622 9.91514 12.2622C9.906 12.2622 9.84703 12.2078 9.78408 12.1413C9.65754 12.0075 9.65479 11.9897 9.74978 11.9188C9.80607 11.8767 9.86026 11.7875 9.86026 11.737C9.86026 11.7163 9.82935 11.636 9.79156 11.5586C9.75378 11.4812 9.70724 11.3625 9.68815 11.2949C9.63754 11.1156 9.61015 11.0918 9.44213 11.0817L9.30573 11.0735L9.30131 10.8891L9.29689 10.7046L9.41066 10.7046C9.48771 10.7046 9.54202 10.6953 9.57898 10.6759C9.62867 10.6498 9.63851 10.6319 9.6892 10.4751C9.71982 10.3804 9.77083 10.252 9.80256 10.1898C9.8343 10.1276 9.86026 10.0627 9.86026 10.0455C9.86026 9.99604 9.82149 9.93155 9.74436 9.85276C9.70501 9.81255 9.67282 9.77216 9.67282 9.76299C9.67282 9.73577 9.88071 9.52416 9.90744 9.52416C9.92096 9.52416 9.95981 9.55428 9.99377 9.59108C10.0652 9.6685 10.1238 9.70451 10.1785 9.70451C10.1997 9.70451 10.2769 9.67168 10.35 9.63156C10.423 9.59144 10.5343 9.54278 10.5972 9.5234C10.6751 9.49943 10.7253 9.47294 10.7545 9.44034C10.7939 9.39653 10.7975 9.3816 10.7975 9.26431C10.7975 9.1938 10.8022 9.13121 10.8079 9.12521C10.8136 9.11919 10.8945 9.11427 10.9876 9.11427H11.1568L11.1568 9.23314ZM10.7506 9.9106C10.4882 9.98262 10.2436 10.1922 10.1287 10.4436C10.0484 10.6192 10.026 10.7418 10.0354 10.9547C10.0413 11.0883 10.0518 11.1462 10.0867 11.2375C10.2012 11.5373 10.4023 11.7407 10.6907 11.8482C10.8375 11.9028 11.0937 11.9095 11.2427 11.8625C11.5681 11.7599 11.8196 11.4958 11.916 11.1555C11.9581 11.0068 11.9551 10.7624 11.9092 10.6063C11.8092 10.2663 11.532 9.98787 11.2154 9.90952C11.0927 9.87915 10.8633 9.87968 10.7506 9.9106ZM11.2575 10.2755C11.659 10.4728 11.7568 11.0142 11.4519 11.3526C11.1422 11.6962 10.6122 11.6109 10.4117 11.185C10.3632 11.0819 10.3534 11.0425 10.3476 10.9276C10.3392 10.7591 10.3676 10.6473 10.4525 10.5141C10.5295 10.3934 10.6471 10.2985 10.7804 10.2494C10.9294 10.1946 11.1131 10.2046 11.2575 10.2755ZM7.28112 11.1063C7.19052 11.158 7.18558 11.294 7.27154 11.3699C7.31225 11.4059 7.33093 11.4116 7.38362 11.4042C7.46969 11.392 7.51717 11.333 7.51717 11.238C7.51717 11.1784 7.50924 11.1596 7.46911 11.1242C7.41497 11.0764 7.34525 11.0697 7.28112 11.1063Z" fill="#410EAD"/>
</svg>
