<svg width="44" height="50" viewBox="0 0 44 50" fill="none" xmlns="http://www.w3.org/2000/svg">
<path fill-rule="evenodd" clip-rule="evenodd" d="M21.2141 0.168556C21.0147 0.263659 16.2613 2.98328 10.651 6.21207C1.69055 11.3693 0.42316 12.1338 0.225405 12.5017C0.0100028 12.9024 0.000211937 13.4465 0.000211937 24.9817C0.000211937 37.9815 -0.0297657 37.3571 0.623332 37.9488C0.779263 38.0899 5.54544 40.8679 11.2149 44.1219C21.3311 49.9282 21.5336 50.0376 22.0938 49.9952C22.5919 49.9575 23.9669 49.2035 32.8787 44.0817C38.4965 40.8531 43.2203 38.0945 43.3763 37.9517C44.0295 37.3532 43.9994 37.9797 43.9994 25.0017C43.9994 11.6043 44.0524 12.4493 43.1745 11.8703C42.9301 11.709 38.2168 8.99012 32.7003 5.82818C21.9354 -0.341943 22.1074 -0.257181 21.2141 0.168556ZM30.0959 8.79222C34.4852 11.3136 38.0764 13.4167 38.0764 13.4655C38.0764 13.5635 22.1793 22.7232 22.0092 22.7232C21.8063 22.7232 5.98362 13.5841 5.98362 13.4669C5.98362 13.3403 21.7186 4.235 21.9669 4.21793C22.0485 4.21228 25.7066 6.27075 30.0959 8.79222ZM12.3599 21.6905L20.0658 26.1146V35.4231V44.7316L19.7334 44.5558C19.5506 44.4591 15.9197 42.3792 11.6648 39.9334L3.92871 35.4868L3.89777 26.147L3.86682 16.8073L4.2604 17.0369C4.47689 17.1632 8.12169 19.2572 12.3599 21.6905ZM40.0414 35.4807C39.958 35.5597 24.8361 44.2593 24.2058 44.5908L23.9338 44.7339V35.4226V26.1113L25.4146 25.2682C26.229 24.8044 29.8598 22.7226 33.4831 20.6419L40.0709 16.8589L40.1018 26.1265C40.1189 31.2237 40.0917 35.4331 40.0414 35.4807Z" fill="#899D0B"/>
</svg>
