<svg width="50" height="50" viewBox="0 0 50 50" fill="none" xmlns="http://www.w3.org/2000/svg">
<path fill-rule="evenodd" clip-rule="evenodd" d="M43.6644 0.068998C42.5775 0.250777 41.3908 0.905026 40.5809 1.76919C39.5714 2.84609 39.1451 3.93022 39.1442 5.42274C39.1437 6.34776 39.2912 7.01754 39.6929 7.91354C39.7398 8.01815 38.4801 9.33808 35.2877 12.5292L30.8167 16.9983L30.3291 16.6714C27.9598 15.0829 24.7774 15.0824 22.4178 16.6701L21.9302 16.9983L18.4466 13.5161L14.963 10.0338L15.1683 9.58423C15.3292 9.23161 15.3746 8.93428 15.3785 8.20657C15.3827 7.39975 15.3495 7.20625 15.1235 6.72431C14.4528 5.29381 13.1706 4.52352 11.6041 4.60987C8.76609 4.76644 7.23197 7.97224 8.8882 10.2849C9.85552 11.6355 11.6847 12.1638 13.1746 11.5229L13.6909 11.3008L17.166 14.7756L20.6411 18.2503L20.3105 18.7654C19.4874 20.0479 19.1444 21.2188 19.1444 22.7456C19.1444 24.255 19.5396 25.5872 20.3265 26.7308L20.6351 27.1794L14.8678 32.9461L9.10038 38.7129L8.72506 38.4173C6.62317 36.7618 3.54097 36.9769 1.61737 38.9134C-0.535505 41.0808 -0.539608 44.4006 1.608 46.5458C2.7154 47.652 3.91552 48.157 5.43703 48.157C6.93842 48.157 8.22752 47.6319 9.27348 46.5941C10.3755 45.5008 10.8837 44.2591 10.8725 42.687C10.8663 41.8212 10.7038 41.1043 10.3188 40.245C10.2718 40.1402 11.9084 38.4438 16.0654 34.2879L21.8779 28.4773L22.1475 28.6498C23.0183 29.2069 24.057 29.6523 24.9081 29.8335L25.4454 29.948L25.4708 34.5494L25.4961 39.151L24.8358 39.353C22.1528 40.1738 20.4743 42.9348 21.0373 45.6005C21.9358 49.8538 27.0661 51.4607 30.1481 48.4543C31.5294 47.107 32.0995 45.1463 31.6546 43.2731C31.227 41.472 29.7369 39.9116 27.9111 39.353L27.2508 39.151L27.2761 34.5588L27.3015 29.9666L28.0341 29.7817C28.7201 29.6085 29.9874 29.0506 30.5995 28.6526L30.8692 28.4772L34.3351 31.9436L37.801 35.41L37.5465 36.0388C37.3257 36.5846 37.2976 36.773 37.334 37.4657C37.4074 38.8655 38.153 39.9618 39.4418 40.5651C40.0171 40.8344 40.202 40.8727 40.9291 40.8727C41.6516 40.8727 41.8419 40.8339 42.3945 40.574C43.1994 40.1954 43.8073 39.5889 44.1924 38.7799C44.4612 38.2156 44.4948 38.047 44.4948 37.2638C44.4948 36.4698 44.4639 36.32 44.1826 35.7498C43.6407 34.6516 42.6408 33.8972 41.4908 33.7194C40.8317 33.6175 39.9627 33.7287 39.4472 33.9812L39.0887 34.1568L35.6004 30.6679L32.1121 27.1789L32.4215 26.7293C33.1742 25.6354 33.5995 24.1848 33.5995 22.7118C33.5995 21.2377 33.232 20.0053 32.4109 18.7258L32.1059 18.2505L36.4873 13.8689L40.8688 9.48714L41.3141 9.81133C42.3594 10.5723 43.343 10.8869 44.6413 10.875C46.1152 10.8617 47.2042 10.4191 48.2786 9.39669C50.0553 7.70607 50.4927 5.28179 49.4223 3.05912C48.4051 0.946833 45.9719 -0.316733 43.6644 0.068998ZM46.0578 2.18129C48.1775 3.16472 48.8295 5.87001 47.3862 7.69396C45.5464 10.0192 41.8479 9.2488 41.0669 6.37765C40.587 4.61367 41.4972 2.82343 43.2472 2.08918C44.0481 1.75317 45.2176 1.79155 46.0578 2.18129ZM12.355 6.4597C12.8961 6.60914 13.4342 7.19404 13.556 7.76517C13.8214 9.00968 12.9234 10.0483 11.6715 9.94447C10.8341 9.87502 10.2423 9.35976 10.0571 8.53897C9.87711 7.74065 10.414 6.76631 11.1827 6.49642C11.6632 6.32773 11.8555 6.32177 12.355 6.4597ZM27.6333 17.4408C29.114 17.7898 30.5145 18.8911 31.1962 20.2428C32.0229 21.8816 32.0311 23.5704 31.2204 25.1801C30.2883 27.0306 28.4634 28.1482 26.3734 28.1482C21.5042 28.1482 19.0967 22.2743 22.5661 18.8588C23.8862 17.5592 25.829 17.0156 27.6333 17.4408ZM41.6731 35.6457C42.0884 35.8342 42.5132 36.307 42.6394 36.7214C42.7532 37.0948 42.7085 37.7724 42.5496 38.0795C41.6789 39.7631 39.1106 39.149 39.1363 37.2633C39.1545 35.9338 40.466 35.0975 41.6731 35.6457ZM6.81455 39.3875C7.55044 39.6589 8.39233 40.4669 8.74772 41.2431C8.99097 41.7743 9.02877 41.9748 9.02877 42.7358C9.02877 43.495 8.99077 43.6979 8.75036 44.2227C8.42447 44.9344 7.64559 45.7246 6.98023 46.019C5.14806 46.8293 3.06015 46.0704 2.17752 44.2732C1.93135 43.7718 1.90224 43.6095 1.90224 42.7358C1.90224 41.8622 1.93135 41.6999 2.17752 41.1985C3.02938 39.4641 4.96822 38.7069 6.81455 39.3875ZM27.357 41.0863C28.1066 41.3089 28.8547 41.8388 29.3029 42.4646C30.6293 44.3166 29.9429 46.87 27.8559 47.8483C27.3775 48.0725 27.1742 48.1081 26.3734 48.1081C25.5727 48.1081 25.3694 48.0725 24.891 47.8483C22.3927 46.6773 22.0108 43.3493 24.1836 41.6839C25.0742 41.0014 26.296 40.7713 27.357 41.0863Z" fill="#E9AE3C"/>
</svg>
