<svg width="18" height="18" viewBox="0 0 18 18" fill="none" xmlns="http://www.w3.org/2000/svg">
<path d="M1.60577 4.73094L9 0.46188L16.3942 4.73094V13.2691L9 17.5381L1.60577 13.2691V4.73094Z" stroke="#410EAD" stroke-width="0.8"/>
<path d="M6.29919 10.4943C6.34825 10.4445 6.41419 10.4165 6.48318 10.4165H12.8691C12.9857 10.4165 13.0439 10.5597 12.9611 10.6422L11.6993 11.922C11.6502 11.9718 11.5843 11.9998 11.5153 11.9998H5.13086C5.01434 11.9998 4.95607 11.8566 5.03887 11.7741L6.29919 10.4943Z" fill="#410EAD"/>
<path d="M6.29919 6.07784C6.34825 6.02802 6.41419 6 6.48318 6H12.8691C12.9857 6 13.0439 6.14323 12.9611 6.22574L11.6993 7.50545C11.6502 7.55526 11.5843 7.58329 11.5153 7.58329H5.13086C5.01434 7.58329 4.95607 7.44006 5.03887 7.35755L6.29919 6.07784Z" fill="#410EAD"/>
<path d="M11.698 8.32375C11.6489 8.27655 11.583 8.25 11.514 8.25H5.13084C5.01434 8.25 4.95608 8.38569 5.03886 8.46386L6.30048 9.67621C6.34954 9.72341 6.41545 9.74996 6.48444 9.74996H12.8692C12.9857 9.74996 13.0439 9.61427 12.9611 9.5361L11.698 8.32375Z" fill="#410EAD"/>
</svg>
