<svg width="213" height="177" viewBox="0 0 213 177" fill="none" xmlns="http://www.w3.org/2000/svg">
<path d="M34.591 132.589C35.8973 131.12 37.6528 130.293 39.4897 130.293H209.516C212.618 130.293 214.17 134.518 211.965 136.952L178.368 174.704C177.062 176.174 175.307 177 173.469 177H3.48426C0.38175 177 -1.16952 172.775 1.03491 170.341L34.591 132.589Z" fill="white"/>
<path d="M34.591 2.29628C35.8973 0.82672 37.6528 0 39.4897 0H209.516C212.618 0 214.17 4.22529 211.965 6.65924L178.368 44.411C177.062 45.8806 175.307 46.7073 173.469 46.7073H3.48426C0.38175 46.7073 -1.16952 42.482 1.03491 40.0481L34.591 2.29628Z" fill="white"/>
<path d="M178.334 68.5506C177.028 67.1582 175.273 66.375 173.436 66.375H3.4836C0.381686 66.375 -1.16929 70.3778 1.0347 72.6839L34.6253 108.448C35.9314 109.841 37.6862 110.624 39.5231 110.624H209.516C212.618 110.624 214.169 106.621 211.965 104.315L178.334 68.5506Z" fill="white"/>
</svg>
