<svg width="61" height="50" viewBox="0 0 61 50" fill="none" xmlns="http://www.w3.org/2000/svg">
<path fill-rule="evenodd" clip-rule="evenodd" d="M5.83958 0.123633C4.12173 0.283429 2.1428 1.52955 1.16503 3.0672C0.936444 3.42661 0.580761 4.16136 0.374655 4.69989L0 5.67903L0.00246911 23.63L0.00493822 41.5809L0.340088 42.5081C1.22156 44.9462 3.35059 46.7978 5.65739 47.1327C6.1325 47.2017 12.1014 47.2559 19.3935 47.2573L32.2892 47.26L32.7137 46.879C33.0755 46.5543 33.1381 46.4102 33.1381 45.9029C33.1381 45.4296 33.0658 45.2351 32.7857 44.9535L32.4331 44.5994L19.02 44.4924L5.60684 44.3855L5.0214 44.0408C3.7719 43.3051 2.794 41.8505 2.794 40.7274V40.3407H17.5844H32.3748L32.7287 39.9694C33.4704 39.1918 33.2389 37.9914 32.2968 37.7285C32.0104 37.6484 26.3927 37.6003 17.3128 37.5999L2.78711 37.5991L2.82298 21.6391L2.85897 5.67903L3.24467 4.9794C3.68379 4.1829 4.3945 3.51695 5.30301 3.05036L5.92769 2.72959L29.0845 2.76823L52.2412 2.80688L52.9744 3.16851C53.8302 3.59084 54.6906 4.47416 55.0575 5.30748C55.2857 5.82564 55.3287 6.32383 55.4192 9.50043L55.5219 13.1052L55.9304 13.472C56.5237 14.0045 57.1342 13.9429 57.8617 13.2773C58.1432 13.0197 58.1537 12.9293 58.1451 10.8458C58.1402 9.65552 58.0916 7.82988 58.0372 6.78872C57.9409 4.94545 57.9253 4.87026 57.4476 3.92506C56.6004 2.24863 55.2082 1.00134 53.4369 0.331603L52.5601 0L29.6589 0.0191912C17.0631 0.0296354 6.34445 0.0767648 5.83958 0.123633ZM21.5084 10.2947C20.842 10.6537 20.3138 11.3822 20.1954 12.1055C20.1393 12.4483 20.0897 16.5651 20.0856 21.2539C20.077 30.6076 20.035 30.097 20.879 30.8926C21.4987 31.4768 21.7865 31.5937 22.6071 31.5937C23.5262 31.5937 23.661 31.5259 29.6943 28.0331C38.839 22.7391 39.0146 22.6211 39.3052 21.5697C39.4737 20.9602 39.4737 20.686 39.3052 20.0765C39.0213 19.0498 39.0541 19.0716 29.2395 13.3709C26.6664 11.8763 24.2395 10.5198 23.8464 10.3562C22.9741 9.99313 22.1104 9.97042 21.5084 10.2947ZM27.9003 15.8122C33.3452 18.9706 35.8758 20.454 36.2206 20.6895C36.414 20.8217 36.2744 20.9439 35.181 21.5995C33.0244 22.8926 23.2091 28.5944 23.0025 28.674C22.8295 28.7407 22.8068 27.8315 22.8068 20.8371C22.8068 16.4852 22.8328 12.9247 22.8646 12.9247C22.8965 12.9247 25.1626 14.2241 27.9003 15.8122ZM46.1009 14.3679L45.6786 14.7656V24.0774V33.3892L44.1516 33.449C42.3583 33.5192 41.2198 33.8603 39.9041 34.7213C37.6036 36.2272 36.2454 38.5144 36.0975 41.1322C36.0043 42.7794 36.2151 43.9412 36.8418 45.2364C37.6975 47.0051 38.9746 48.3129 40.6754 49.1624C41.9393 49.7937 42.813 49.9982 44.2543 50C45.7615 50.0019 46.6983 49.7769 48.1438 49.0659C50.2706 48.0196 52.1275 45.5591 52.4264 43.3912C52.4944 42.8982 52.5916 39.0139 52.6424 34.7596C52.6932 30.5051 52.7647 27.0243 52.8012 27.0243C52.8377 27.0243 54.3786 27.5245 56.2253 28.1359C59.4718 29.2106 59.5979 29.2413 60.028 29.0607C60.9078 28.6914 60.9378 28.5547 60.9893 24.6839C61.0399 20.8768 60.915 19.2898 60.536 18.925C60.2872 18.6856 58.9709 18.1666 54.2011 16.4279C49.8915 14.857 47.2405 13.969 46.8622 13.9698C46.6642 13.97 46.3477 14.1357 46.1009 14.3679ZM53.4108 19.1079L58.0891 20.8479L58.1262 23.0549C58.1466 24.2688 58.132 25.3896 58.0937 25.5457C58.0261 25.8217 57.9316 25.7983 54.6037 24.6822L51.1832 23.5351L50.7091 23.7793C50.4484 23.9138 50.16 24.1555 50.0685 24.3164C49.9398 24.5428 49.8838 26.6803 49.8214 33.7478C49.7726 39.2708 49.6884 43.0786 49.6085 43.3722C49.2545 44.6728 47.689 46.3649 46.3696 46.873C44.2105 47.7044 41.9062 47.1654 40.3267 45.4595C39.5556 44.6267 39.2277 44.0587 38.9908 43.1452C38.4767 41.1624 39.0733 39.1215 40.581 37.7046C41.334 36.997 42.0078 36.6278 43.0379 36.3582C44.0424 36.0954 44.7876 36.1125 45.9069 36.4241C47.1226 36.7625 47.5338 36.754 47.9654 36.3812C48.2868 36.1033 48.3263 35.9646 48.4211 34.7819C48.4782 34.0695 48.5278 29.859 48.5312 25.4251C48.5347 20.9911 48.5814 17.3645 48.635 17.3657C48.6887 17.3669 50.8377 18.151 53.4108 19.1079Z" fill="#09C928"/>
</svg>
