<svg width="50" height="50" viewBox="0 0 50 50" fill="none" xmlns="http://www.w3.org/2000/svg">
<path fill-rule="evenodd" clip-rule="evenodd" d="M2.94697 0.0761049C2.33904 0.219599 1.45108 0.74232 1.01879 1.21115C0.799119 1.44942 0.479941 1.9385 0.309687 2.29777L0 2.95117V10.2873V17.6234L0.309687 18.2768C0.740411 19.1858 1.2953 19.7525 2.18542 20.1925L2.92446 20.5578L5.15597 20.5903L7.38748 20.6228V22.9882C7.38748 25.1039 7.40665 25.3897 7.56888 25.6946C7.88121 26.2813 8.64726 26.594 9.32671 26.4122C9.45147 26.3787 10.9915 25.0595 12.7489 23.4805L15.9442 20.6096L31.5095 20.5837L47.0748 20.5578L47.8142 20.1925C48.7047 19.7525 49.2594 19.186 49.6903 18.2768L50 17.6234V10.2873V2.95117L49.6903 2.29777C49.2594 1.38848 48.7047 0.822039 47.8142 0.382069L47.0748 0.0167314L25.2008 0.00157014C12.2225 -0.0074288 3.17231 0.0228937 2.94697 0.0761049ZM46.5781 3.01915C47.1251 3.26829 47.1135 3.11061 47.1135 10.2873C47.1135 17.4639 47.1251 17.3062 46.5781 17.5554C46.3826 17.6445 42.6068 17.6723 30.7163 17.6723C17.4398 17.6723 15.0642 17.693 14.7963 17.8114C14.6231 17.8879 13.5568 18.7865 12.4266 19.8083L10.3718 21.6662L10.3229 20.1828C10.2667 18.4799 10.1683 18.1882 9.54198 17.8689C9.18297 17.6858 8.96791 17.6723 6.40802 17.6723C3.42466 17.6723 3.23366 17.6422 3.00342 17.137C2.82466 16.7449 2.84325 3.72625 3.02309 3.4021C3.31252 2.88006 2.01301 2.9095 24.9709 2.90569C41.322 2.90305 46.3816 2.92965 46.5781 3.01915ZM10.5086 6.15656C9.58523 6.77318 9.64618 8.04702 10.6267 8.62442C10.9547 8.8176 11.1348 8.82005 25 8.82005C38.8652 8.82005 39.0453 8.8176 39.3733 8.62442C40.3538 8.04702 40.4148 6.77318 39.4914 6.15656L39.1589 5.93452H25H10.8411L10.5086 6.15656ZM10.5086 12.1232C9.58523 12.7399 9.64618 14.0137 10.6267 14.5911C10.9518 14.7825 11.1348 14.7867 19.1781 14.7867C27.2213 14.7867 27.4044 14.7825 27.7295 14.5911C28.71 14.0137 28.7709 12.7399 27.8476 12.1232L27.5151 11.9012H19.1781H10.8411L10.5086 12.1232ZM32.1329 12.1232C31.2095 12.7399 31.2705 14.0137 32.251 14.5911C32.5651 14.7761 32.7591 14.7867 35.8121 14.7867C38.8652 14.7867 39.0592 14.7761 39.3733 14.5911C40.3538 14.0137 40.4148 12.7399 39.4914 12.1232C39.1619 11.9032 39.1287 11.9012 35.8121 11.9012C32.4956 11.9012 32.4623 11.9032 32.1329 12.1232ZM40.494 23.7123C40.3262 23.8065 38.796 25.116 37.0936 26.6223L33.9984 29.3611L18.4618 29.41L2.92524 29.4589L2.18581 29.8243C1.2953 30.2642 0.740607 30.8307 0.309687 31.74L0 32.3934V39.7295V47.0656L0.309687 47.719C0.740607 48.6283 1.2953 49.1947 2.18591 49.6347L2.92524 50H24.9949H47.0646L47.7182 49.6904C48.6279 49.2596 49.1944 48.7051 49.6345 47.8148L50 47.0757V39.7346V32.3934L49.6903 31.74C49.2596 30.831 48.7047 30.2642 47.8146 29.8243L47.0755 29.4589L44.844 29.4265L42.6125 29.394V27.0285C42.6125 24.9128 42.5933 24.627 42.4311 24.3221C42.0731 23.6496 41.1334 23.3537 40.494 23.7123ZM39.8993 31.6343C39.9945 31.8086 40.246 32.0398 40.458 32.1479C40.817 32.331 41.0321 32.3445 43.592 32.3445C46.5753 32.3445 46.7663 32.3745 46.9966 32.8797C47.0836 33.0704 47.1135 34.8281 47.1135 39.739C47.1135 46.9053 47.125 46.7484 46.5781 46.9976C46.2058 47.1672 3.79423 47.1672 3.42192 46.9976C2.87485 46.7484 2.8865 46.9061 2.8865 39.7295C2.8865 32.5528 2.87485 32.7105 3.42192 32.4614C3.61732 32.3723 7.39452 32.3435 19.2561 32.3404C33.7566 32.3365 34.8549 32.3247 35.1407 32.1692C35.3096 32.0773 36.3884 31.1718 37.538 30.1569L39.6282 28.3118L39.6771 29.8146C39.7158 31.0009 39.7625 31.3841 39.8993 31.6343ZM10.5931 35.5784C10.1799 35.7964 9.83366 36.3735 9.83366 36.8439C9.83366 37.3293 10.1797 37.8928 10.6139 38.1143C10.9918 38.3069 11.175 38.3112 19.1781 38.3112C27.1812 38.3112 27.3644 38.3069 27.7423 38.1143C28.1764 37.8928 28.5225 37.3293 28.5225 36.8439C28.5225 36.3586 28.1764 35.7951 27.7423 35.5736C27.3642 35.3808 27.1857 35.3768 19.1575 35.381C11.1881 35.3852 10.9486 35.3908 10.5931 35.5784ZM32.2173 35.5784C31.8042 35.7964 31.4579 36.3735 31.4579 36.8439C31.4579 37.0096 31.5466 37.3189 31.6549 37.5312C31.8764 37.9652 32.4401 38.3112 32.9256 38.3112C33.0914 38.3112 33.4008 38.2225 33.6131 38.1143C34.0473 37.8928 34.3933 37.3293 34.3933 36.8439C34.3933 36.3586 34.0473 35.7951 33.6131 35.5736C33.131 35.3278 32.6894 35.3293 32.2173 35.5784ZM37.9059 35.5988C37.5225 35.8547 37.2312 36.3713 37.2312 36.795C37.2312 37.2188 37.5225 37.7353 37.9059 37.9913C38.6026 38.4566 39.6155 38.184 39.9949 37.4289C40.4765 36.4708 39.7854 35.3767 38.6986 35.3767C38.383 35.3767 38.1339 35.4465 37.9059 35.5988ZM10.5931 41.4473C10.1799 41.6653 9.83366 42.2424 9.83366 42.7128C9.83366 43.1982 10.1797 43.7617 10.6139 43.9831C10.9956 44.1778 11.1619 44.18 25 44.18C38.8381 44.18 39.0044 44.1778 39.3861 43.9831C39.8203 43.7617 40.1663 43.1982 40.1663 42.7128C40.1663 42.2275 39.8203 41.6639 39.3861 41.4425C39.0043 41.2478 38.8425 41.2456 24.9795 41.2499C11.2135 41.2542 10.9523 41.2577 10.5931 41.4473Z" fill="#B548AA"/>
</svg>
