<svg width="48" height="46" viewBox="0 0 48 46" fill="none" xmlns="http://www.w3.org/2000/svg">
<path fill-rule="evenodd" clip-rule="evenodd" d="M16.0482 0.0150769C8.0601 0.37836 1.60108 5.96738 0.166749 13.7574C-0.032345 14.8384 -0.059204 17.5851 0.118948 18.6481C0.61321 21.5987 1.59929 23.9194 3.31639 26.1738C4.79551 28.1156 7.13975 30.0252 9.22048 30.9831C9.54091 31.1306 9.80255 31.2745 9.80198 31.3031C9.80152 31.3315 9.49508 31.5252 9.12112 31.7335C7.65693 32.5492 6.26646 33.6159 4.08281 35.5986C2.75535 36.804 2.47972 37.2297 2.47972 38.0738C2.47972 38.6844 2.78428 39.3649 3.24116 39.775C3.74951 40.2316 6.16541 41.9676 7.25311 42.6581C9.60017 44.1481 12.4441 45.214 15.3908 45.7083C17.4652 46.0562 21.5453 46.1005 23.8681 45.8003C27.532 45.3268 30.646 44.1142 33.7723 41.9436C34.851 41.1946 34.8935 41.1749 35.82 40.994C40.8435 40.0138 45.0523 36.5957 46.9433 31.9605C48.4854 28.1805 48.334 23.9105 46.5262 20.197C44.3537 15.7344 40.1792 12.6782 35.1628 11.8775C34.7219 11.8071 34.1287 11.7446 33.8446 11.7388C32.9242 11.7197 32.9106 11.7088 32.5293 10.6924C30.8492 6.21247 27.1419 2.62845 22.4812 0.978134C20.4946 0.274696 18.1285 -0.0795376 16.0482 0.0150769ZM19.8517 1.87153C21.0975 2.13234 22.0746 2.45759 23.2941 3.01724C24.2819 3.47056 25.8853 4.46534 26.6115 5.07535L26.9383 5.34987L23.7002 8.50488L20.4621 11.6598L20.1081 11.2688C19.5436 10.6453 18.6507 9.31335 18.1633 8.36776C17.3267 6.74478 16.7576 4.77789 16.6149 3.01614C16.5823 2.61391 16.5317 2.1242 16.5025 1.92784L16.4494 1.57096L17.7044 1.62782C18.3947 1.65908 19.361 1.76878 19.8517 1.87153ZM14.9092 2.07914C14.9347 2.29277 15.0031 2.92015 15.0613 3.47322C15.3997 6.69477 16.7657 9.85051 18.8528 12.2334L19.3195 12.7662L18.036 14.0156L16.7524 15.265L11.6764 10.329L6.60023 5.39293L7.05119 4.99738C8.6232 3.61847 11.2724 2.36965 13.6534 1.88515C14.8994 1.63166 14.8549 1.62471 14.9092 2.07914ZM28.5711 7.02953C29.1969 7.78042 29.9081 8.84193 30.3243 9.64647C30.6997 10.372 31.2393 11.6618 31.1882 11.7114C31.1693 11.7298 30.7768 11.8077 30.3158 11.8845C28.3917 12.2049 25.868 13.173 24.4064 14.1514L23.9369 14.4657L23.1386 13.9301C22.6996 13.6355 22.1713 13.2522 21.9647 13.0784L21.589 12.7624L24.8286 9.60323C26.6103 7.8658 28.0714 6.4442 28.0756 6.4442C28.0797 6.4442 28.3028 6.70757 28.5711 7.02953ZM10.5786 11.45L15.6265 16.3643L14.3646 17.5902L13.1026 18.816L12.4624 18.3079C9.71277 16.1251 6.33276 14.8405 2.73582 14.611C2.05693 14.5677 1.78928 14.5161 1.7518 14.421C1.67714 14.2315 1.96809 12.8769 2.30335 11.8531C2.66022 10.7634 3.34174 9.33712 3.93264 8.44354C4.42333 7.70134 5.35898 6.53562 5.46398 6.53562C5.5006 6.53562 7.80221 8.74704 10.5786 11.45ZM34.8307 13.4011C36.2473 13.6246 36.3947 13.6774 36.5388 14.013C36.6126 14.185 36.6599 14.3356 36.6441 14.3479C36.6281 14.36 35.7571 14.9545 34.7085 15.6688L32.8021 16.9677L30.879 15.6597C29.1028 14.4516 28.96 14.3341 29.0116 14.1231C29.0981 13.7689 29.2335 13.6907 30.0412 13.5281C31.5688 13.2206 33.3828 13.1725 34.8307 13.4011ZM21.0154 14.3328C21.2792 14.5486 21.7276 14.8855 22.0116 15.0813C22.2957 15.2771 22.5452 15.4495 22.5659 15.4644C22.5867 15.4794 22.2673 15.8327 21.8561 16.2496C21.445 16.6664 20.8608 17.3279 20.5581 17.7194L20.0076 18.4313L18.9906 17.4443C18.4311 16.9014 17.9734 16.416 17.9734 16.3656C17.9734 16.2512 20.3338 13.9402 20.4506 13.9402C20.4974 13.9402 20.7516 14.1168 21.0154 14.3328ZM27.1768 14.6645C27.1768 14.9869 27.6136 15.3465 29.7951 16.8198L31.9607 18.2824L31.9636 19.8413L31.9664 21.4001L29.9417 22.735L27.9171 24.0698L26.2614 23.4159L24.6057 22.7618L23.8327 20.8937C23.0501 19.0022 22.9403 18.8304 22.3638 18.5944C22.2218 18.5364 22.1056 18.429 22.1056 18.3559C22.1056 18.1391 24.1577 16.2198 24.9699 15.6771C25.6791 15.2033 26.9525 14.4964 27.1064 14.4911C27.1452 14.4898 27.1768 14.5678 27.1768 14.6645ZM39.0364 14.7298C39.7734 15.0925 40.9448 15.8674 41.7203 16.5056L42.4118 17.0745L42.1269 17.1911C41.9702 17.2552 41.8015 17.383 41.752 17.4752C41.7025 17.5672 41.3336 18.7738 40.9322 20.1565C40.5308 21.5391 40.156 22.7195 40.0992 22.7797C40.0424 22.8399 39.4485 23.1336 38.7795 23.4323L37.5631 23.9756L35.5865 22.6831L33.6098 21.3906L33.5841 19.8691L33.5585 18.3476L35.8433 16.7917C37.1 15.936 38.1786 15.1767 38.2402 15.1044C38.3018 15.0322 38.3614 14.8641 38.3728 14.7309C38.3983 14.4315 38.4301 14.4314 39.0364 14.7298ZM4.54627 16.3954C5.7521 16.6084 7.27339 17.0946 8.44147 17.6403C9.32491 18.0531 10.9643 19.0821 11.6111 19.6298L11.9636 19.9284L8.71899 23.0819L5.4744 26.2356L5.10129 25.8242C3.66621 24.242 2.34533 21.5646 1.87671 19.288C1.7549 18.6966 1.54689 16.8084 1.54022 16.2345C1.53825 16.0635 3.15861 16.1503 4.54627 16.3954ZM18.0042 18.6781L19.2062 19.8507L18.9557 20.3921C18.3593 21.6813 17.8616 23.4148 17.7306 24.6586C17.695 24.998 17.635 25.2757 17.5976 25.2757C17.56 25.2757 17.455 25.0803 17.3642 24.8415C16.8746 23.5543 15.7127 21.6517 14.6983 20.4764L14.225 19.9279L15.464 18.7167C16.1454 18.0505 16.7253 17.5054 16.7526 17.5054C16.7799 17.5054 17.3431 18.0331 18.0042 18.6781ZM44.212 19.3109C45.1977 20.7983 45.8918 22.5239 46.2021 24.2583C46.3689 25.1908 46.3686 25.2085 46.189 25.3364C45.7586 25.6428 45.6672 25.6063 43.7387 24.3576C42.7132 23.6936 41.8448 23.1246 41.8091 23.0932C41.7591 23.0492 42.7785 19.3745 42.9979 18.8081C43.0233 18.7425 43.2045 18.6938 43.4227 18.6938C43.7894 18.6938 43.8179 18.7161 44.212 19.3109ZM21.5328 19.919C21.7037 20.0111 21.9159 20.4243 22.4078 21.6233L23.0573 23.206L21.4583 24.7624L19.8595 26.3187L19.5268 26.1643C19.1388 25.9843 19.1372 25.9716 19.3367 24.6824C19.5939 23.0219 20.1654 21.3107 20.8336 20.2008C21.0976 19.7623 21.1805 19.7289 21.5328 19.919ZM13.9229 22.0426C15.2247 23.7303 16.2131 25.8554 16.6493 27.9042C16.7577 28.4136 16.8465 28.8891 16.8465 28.9609C16.8465 29.0493 16.6888 29.1119 16.3591 29.1545C15.6411 29.2472 13.5345 29.7899 12.637 30.1135L11.8555 30.3952L10.9736 30.0418C9.55978 29.4751 8.29835 28.7236 6.84083 27.5795L6.57309 27.3694L9.80753 24.22C11.5865 22.4878 13.0715 21.0706 13.1075 21.0706C13.1437 21.0706 13.5105 21.508 13.9229 22.0426ZM34.7772 24.0485C36.2127 24.9897 36.6589 25.3266 36.6235 25.4426C36.5979 25.5268 36.3151 26.4904 35.9951 27.5839L35.4134 29.5722H32.8013H30.1893L30.0515 29.1204C29.1822 26.2712 28.9264 25.256 29.0585 25.1804C29.1341 25.1372 29.9778 24.5883 30.9333 23.9605C31.8889 23.3329 32.7188 22.8166 32.7775 22.8134C32.8362 22.8101 33.7361 23.3659 34.7772 24.0485ZM28.0806 28.0916C28.5002 29.5092 28.8322 30.6692 28.8184 30.6692C28.8046 30.6692 28.3588 30.5015 27.8278 30.2967C25.714 29.481 23.1822 28.9657 20.8211 28.8703L19.3957 28.8128L19.3323 28.3639C19.2594 27.8483 19.2926 27.7823 19.5557 27.9193C19.6601 27.9737 19.8834 28.0181 20.0522 28.0181C20.3257 28.0181 20.5667 27.8166 22.2777 26.1567L24.1964 24.2953L25.7571 24.9046L27.3177 25.5139L28.0806 28.0916ZM43.1327 25.8163C44.3926 26.6319 45.4964 27.2854 45.6113 27.2836C45.7252 27.2818 45.9241 27.2216 46.0532 27.1497C46.1824 27.0779 46.3113 27.0176 46.3397 27.0158C46.4186 27.0108 46.2613 28.432 46.0945 29.231C45.9297 30.0208 45.5505 31.1514 45.1615 32.0133L44.9055 32.5805L44.5996 32.2647L44.2937 31.949H41.5326H38.7715L37.8429 31.0418L36.9144 30.1345L37.61 27.7552L38.3055 25.3759L39.4794 24.8306C40.125 24.5307 40.7 24.2989 40.7572 24.3156C40.8143 24.3321 41.8833 25.0075 43.1327 25.8163ZM21.7769 30.4896C25.3832 30.8196 28.8273 32.0962 31.7279 34.1781C32.9063 35.0238 35.684 37.4875 35.8203 37.8078C36.0281 38.296 35.8323 38.5226 34.1396 39.7521C31.6001 41.5968 30.1216 42.4401 28.1935 43.1431C25.4621 44.1392 23.6913 44.4134 19.9925 44.4134C16.6425 44.4134 14.99 44.1962 12.6782 43.452C10.1235 42.6296 8.64301 41.8213 5.55676 39.5642C3.69636 38.2036 3.67551 38.1225 4.89534 36.9905C7.57147 34.5071 9.47057 33.1812 11.846 32.1379C15.0121 30.7474 18.4174 30.1822 21.7769 30.4896ZM36.5541 32.0724L37.4285 32.9272L36.7144 34.3152L36.0003 35.7031L34.899 34.7293C33.3497 33.3592 31.8496 32.2796 30.3113 31.4274L29.9473 31.2258L32.8135 31.2217L35.6797 31.2177L36.5541 32.0724ZM43.6974 33.8533L43.881 34.2036L43.4489 34.7446C42.5134 35.9158 41.0587 37.1379 39.6084 37.971C38.9396 38.3552 37.4172 39.0222 37.3527 38.9594C37.3339 38.9411 37.3664 38.7924 37.4249 38.629C37.5501 38.2796 37.4801 37.5467 37.2872 37.1885C37.1564 36.9456 37.1842 36.8727 38.0342 35.2196L38.9168 33.503H41.2153H43.5138L43.6974 33.8533ZM12.4661 35.1458C12.133 35.2799 11.963 35.6077 11.963 36.1161V36.5857L11.3771 36.6375C10.898 36.6798 10.7526 36.733 10.5788 36.9296C10.3014 37.2435 10.3082 37.6202 10.5968 37.9233C10.7969 38.1335 10.9015 38.1652 11.395 38.1652H11.963V38.6269C11.963 39.1257 12.1468 39.5717 12.3898 39.6625C12.7166 39.7845 13.1022 39.7157 13.329 39.4948C13.5229 39.3062 13.5595 39.1828 13.5595 38.7178V38.1652H14.3578H15.156V38.6269C15.156 39.1257 15.3398 39.5717 15.5829 39.6625C15.8708 39.77 16.2627 39.7189 16.4835 39.5448C16.6613 39.4047 16.714 39.2565 16.7522 38.7907L16.7995 38.2109L17.5743 38.1844L18.3491 38.1578V38.5669C18.3491 39.3283 18.6192 39.711 19.1604 39.7163C19.666 39.7214 19.8907 39.4562 19.9452 38.7907L19.9925 38.2109L20.754 38.1846L21.5153 38.1583L21.5675 38.7188C21.6329 39.4204 21.8778 39.7193 22.3873 39.7193C22.8985 39.7193 23.1208 39.4419 23.1567 38.759L23.1856 38.2109H23.9838H24.7821L24.8109 38.759C24.8469 39.4419 25.0692 39.7193 25.5803 39.7193C26.089 39.7193 26.3347 39.4202 26.3997 38.7223L26.4516 38.1652H26.9857C27.4205 38.1652 27.5551 38.127 27.71 37.9595C27.9817 37.6657 28.0283 37.4788 27.9114 37.1524C27.7908 36.8155 27.3727 36.6112 26.8042 36.6112C26.4275 36.6112 26.4255 36.6093 26.4255 36.2591C26.4255 36.0655 26.3775 35.7732 26.3189 35.6094C26.1226 35.0612 25.3191 34.9397 24.957 35.4035C24.8899 35.4895 24.8336 35.7964 24.832 36.0855L24.829 36.6112H23.9838H23.1386L23.1356 36.0855C23.134 35.7964 23.0777 35.4895 23.0106 35.4035C22.6486 34.9397 21.845 35.0612 21.6487 35.6094C21.5901 35.7732 21.5421 36.0655 21.5421 36.2591V36.6112H20.7438H19.9456L19.9426 36.0855C19.9392 35.4928 19.8193 35.2832 19.4028 35.1418C18.8115 34.9412 18.3491 35.4315 18.3491 36.2591V36.6112H17.5508H16.7525V36.0786C16.7525 35.6272 16.7164 35.513 16.5152 35.329C16.2058 35.046 15.6984 35.0371 15.4184 35.3095C15.2685 35.4555 15.2048 35.6513 15.1744 36.0591L15.1335 36.6112H14.3465H13.5595V36.1135C13.5595 35.7265 13.5125 35.5645 13.3482 35.3856C13.1067 35.1225 12.7589 35.0278 12.4661 35.1458Z" fill="#821577"/>
</svg>
