<svg width="52" height="51" viewBox="0 0 52 51" fill="none" xmlns="http://www.w3.org/2000/svg">
<path fill-rule="evenodd" clip-rule="evenodd" d="M41.1221 0.113799C37.1199 0.857227 34.0777 4.07572 33.6294 8.04094C33.4215 9.88046 33.8424 11.8403 34.8022 13.5009C35.3206 14.3981 36.4783 15.6912 37.2793 16.2681C37.6853 16.5605 37.7851 16.6897 37.7851 16.923V17.2136H36.9212H36.0573V18.0612V18.9087H36.9212H37.7851V19.7064V20.504H36.9212H36.0573V21.3516V22.1991H36.9212H37.7851V23.8443V25.4895H39.8761H41.9672L41.9342 27.4587C41.9042 29.2473 41.8812 29.4646 41.6828 29.8281C41.4051 30.3367 40.9981 30.736 40.4796 31.0084C40.0873 31.2145 39.9316 31.2239 36.3876 31.2533L32.7034 31.2839V32.0804V32.8768L36.5909 32.8475L40.4783 32.8181L41.1634 32.4997C42.0501 32.0876 42.7827 31.3688 43.2028 30.4989L43.5273 29.8268L43.5582 27.6581L43.5891 25.4895H45.7179H47.8467V23.8443V22.1991H48.6597H49.4728V21.3516V20.504H48.6597H47.8467V19.7064V18.9087H48.6597H49.4728V18.0612V17.2136H48.6597H47.8467L47.8529 16.8896C47.8583 16.6088 47.9553 16.4923 48.5798 16.0171C50.3412 14.6769 51.563 12.5267 51.917 10.1437C52.3191 7.4383 51.2374 4.44624 49.1541 2.50092C47.4611 0.920043 45.4225 0.0845841 43.0699 0.00740959C42.3144 -0.0173182 41.6258 0.020272 41.1221 0.113799ZM0.790157 0.812258L0.237379 1.36145L1.19811 2.30789L2.15884 3.25442L1.19699 4.20205L0.235041 5.14979L0.817395 5.72112L1.39975 6.29245L2.36576 5.34871L3.33168 4.40506L4.29759 5.34871L5.26361 6.29245L5.84596 5.72112L6.42832 5.14979L5.46637 4.20205L4.50452 3.25442L5.46637 2.30679L6.42832 1.35906L5.84596 0.78773L5.26361 0.216399L4.29759 1.16014L3.33168 2.10379L2.38965 1.18347C1.87153 0.677352 1.42414 0.263162 1.39528 0.263162C1.36651 0.263162 1.09414 0.510241 0.790157 0.812258ZM44.6105 1.84973C47.3353 2.53343 49.4094 4.58384 50.1045 7.28106C50.2726 7.93296 50.3006 8.29031 50.2611 9.27912C50.2054 10.6738 49.9286 11.6631 49.2976 12.7234C48.785 13.5845 47.61 14.7781 46.791 15.2693L46.1261 15.6682L46.1226 16.4409L46.1189 17.2136H44.8485H43.5781V14.2789C43.5781 11.3806 43.5807 11.3434 43.7927 11.2775C44.1264 11.1736 44.7912 10.5377 45.014 10.1094C46.0866 8.04662 43.7732 5.77117 41.6794 6.82968C41.1699 7.08723 40.6818 7.59584 40.4733 8.08601C40.2652 8.57558 40.2565 9.47924 40.4555 9.94647C40.6606 10.4282 41.1696 10.976 41.5969 11.1749L41.952 11.3402V14.2769V17.2136H40.6816H39.4112L39.4081 16.4409L39.4052 15.6682L38.6359 15.1696C35.377 13.0573 34.2793 8.69094 36.1863 5.42538C37.288 3.53879 39.3767 2.06998 41.4438 1.72828C42.1931 1.60434 43.8925 1.66965 44.6105 1.84973ZM43.3429 8.45662C43.8431 8.91768 43.4708 9.8352 42.7835 9.8352C42.3906 9.8352 41.952 9.40485 41.952 9.01938C41.952 8.35632 42.843 7.99587 43.3429 8.45662ZM23.4542 9.88575L22.9014 10.4349L23.8621 11.3814L24.8229 12.3279L23.861 13.2755L22.8991 14.2233L23.4814 14.7946L24.0638 15.3659L25.0298 14.4222L25.9957 13.4786L26.9616 14.4222L27.9276 15.3659L28.51 14.7946L29.0923 14.2233L28.1304 13.2755L27.1685 12.3279L28.1304 11.3803L29.0923 10.4326L28.51 9.86122L27.9276 9.28989L26.9616 10.2336L25.9957 11.1773L25.0537 10.257C24.5356 9.75084 24.0882 9.33665 24.0593 9.33665C24.0305 9.33665 23.7582 9.58373 23.4542 9.88575ZM12.0118 10.7359C10.6923 10.9917 9.67639 11.906 9.33206 13.1477C8.9363 14.5751 9.71226 16.2106 11.1199 16.9158C11.5452 17.129 11.7504 17.1636 12.5802 17.1623C13.4258 17.161 13.6094 17.1281 14.058 16.8971C14.5961 16.6199 15.3054 15.9383 15.5582 15.4552C15.9769 14.6551 16.0035 13.4966 15.6228 12.6438C15.0251 11.3049 13.4283 10.4613 12.0118 10.7359ZM13.477 12.5973C14.4652 13.3153 14.4617 14.7266 13.4704 15.3198C12.7301 15.7628 11.9065 15.6647 11.3744 15.07C10.6058 14.2112 10.8102 13.0381 11.818 12.524C12.3164 12.2698 13.0722 12.3032 13.477 12.5973ZM46.1189 19.7064V20.504H42.765H39.4112V19.7064V18.9087H42.765H46.1189V19.7064ZM46.1189 22.9967V23.7944H42.765H39.4112V22.9967V22.1991H42.765H46.1189V22.9967ZM0.790157 23.0473L0.237379 23.5965L1.19811 24.5429L2.15884 25.4895L1.19699 26.4371L0.235041 27.3848L0.817395 27.9562L1.39975 28.5275L2.36576 27.5837L3.33168 26.6401L4.29759 27.5837L5.26361 28.5275L5.84596 27.9562L6.42832 27.3848L5.46637 26.4371L4.50452 25.4895L5.46637 24.5418L6.42832 23.5941L5.84596 23.0228L5.26361 22.4514L4.29759 23.3952L3.33168 24.3388L2.38965 23.4185C1.87153 22.9124 1.42414 22.4982 1.39528 22.4982C1.36651 22.4982 1.09414 22.7453 0.790157 23.0473ZM8.00677 31.4602C7.69933 31.5576 7.30124 31.7123 7.12206 31.8041C6.56034 32.0919 5.761 32.9665 5.42622 33.6594L5.11025 34.3137L5.08016 36.9258C5.04683 39.8128 5.11431 39.5519 4.36284 39.7007C2.94954 39.9805 1.37353 41.2355 0.641469 42.6639C-1.24229 46.3396 1.22372 50.6333 5.41829 50.9812C8.22304 51.2138 10.9172 49.2638 11.5711 46.528C11.7533 45.7658 11.7265 44.5028 11.5129 43.786C11.0506 42.2345 10.1849 41.1368 8.75936 40.2947C8.18209 39.9536 7.93349 39.8562 7.11098 39.6481L6.67254 39.5372L6.70445 37.1249C6.73413 34.8804 6.75161 34.6847 6.95477 34.3124C7.25286 33.7665 7.66518 33.3773 8.21003 33.1274C8.65661 32.9227 8.8116 32.9171 14.7907 32.8891L20.9141 32.8605V32.0666V31.2726L14.7399 31.278C9.11375 31.2828 8.51615 31.299 8.00677 31.4602ZM22.6418 32.0702V32.8679H23.4549H24.268V32.0702V31.2726H23.4549H22.6418V32.0702ZM25.9957 32.0702V32.8679H26.8596H27.7235V32.0702V31.2726H26.8596H25.9957V32.0702ZM29.3496 32.0702V32.8679H30.2134H31.0773V32.0702V31.2726H30.2134H29.3496V32.0702ZM46.1409 33.6936C45.8493 33.9832 45.6108 34.2646 45.6108 34.3189C45.6108 34.3731 46.0224 34.8195 46.5256 35.3109L47.4403 36.2042L46.5029 37.1278L45.5654 38.0513L46.1182 38.6005C46.4222 38.9025 46.7173 39.1496 46.774 39.1496C46.8308 39.1496 47.2782 38.7579 47.7685 38.2791L48.6598 37.4087L49.6025 38.3297L50.545 39.2506L51.1497 38.651L51.7543 38.0516L50.8167 37.1279L49.8791 36.2042L50.7939 35.3109C51.2971 34.8195 51.7087 34.3702 51.7087 34.3124C51.7087 34.2545 51.4569 33.9631 51.149 33.6649L50.5892 33.1226L49.6245 34.0651L48.6597 35.0077L47.7177 34.0873C47.1996 33.5812 46.7522 33.167 46.7233 33.167C46.6946 33.167 46.4325 33.404 46.1409 33.6936ZM14.2056 39.4992L13.6529 40.0484L14.6136 40.9949L15.5743 41.9414L14.6136 42.8879L13.6529 43.8344L14.2056 44.3836C14.5096 44.6856 14.8066 44.9327 14.8656 44.9327C14.9246 44.9327 15.3825 44.5288 15.8834 44.0352L16.7939 43.1377L17.7365 44.0586L18.6791 44.9794L19.2614 44.4081L19.8438 43.8368L18.9052 42.9121L17.9665 41.9873L18.8813 41.094C19.3845 40.6026 19.7961 40.1533 19.7961 40.0955C19.7961 40.0376 19.5443 39.7462 19.2364 39.448L18.6766 38.9057L17.712 39.8482L16.7472 40.7908L15.8051 39.8704C15.287 39.3643 14.8396 38.9501 14.8108 38.9501C14.782 38.9501 14.5096 39.1972 14.2056 39.4992ZM6.89288 41.2859C8.47286 41.6907 9.69021 42.995 9.96675 44.5794C10.2777 46.3601 9.30075 48.1731 7.60654 48.9595C7.05437 49.2157 6.78759 49.2751 6.05563 49.3042C4.07299 49.383 2.48528 48.3013 1.86319 46.448C1.58177 45.6097 1.6704 44.3647 2.07052 43.5367C2.94243 41.7326 4.96024 40.7908 6.89288 41.2859ZM33.4657 41.2781C32.5165 41.5845 31.8178 42.1621 31.3809 43.0014C31.1636 43.4187 31.1283 43.62 31.1297 44.4341C31.131 45.2633 31.1645 45.4435 31.399 45.8799C31.7616 46.5548 32.3359 47.1013 33.0083 47.4113C33.76 47.7579 34.9503 47.7743 35.6845 47.4481C37.3658 46.7012 38.1285 44.9058 37.4825 43.2156C36.9143 41.7289 34.9717 40.7919 33.4657 41.2781ZM5.39746 42.8485C4.83858 42.95 4.46864 43.1478 4.0799 43.5532C3.1026 44.5722 3.10738 46.0141 4.09128 46.9793C5.66628 48.5246 8.33199 47.4261 8.33199 45.2318C8.33199 44.5741 8.1518 44.1046 7.7101 43.611C7.15265 42.9881 6.25646 42.6926 5.39746 42.8485ZM35.3318 43.1125C35.8394 43.4844 36.0065 43.8116 36.0065 44.4341C36.0065 44.8701 35.9527 45.089 35.7939 45.2993C35.428 45.7838 34.9627 46.0295 34.4111 46.0295C33.7976 46.0295 33.4101 45.8416 33.039 45.3643C32.6699 44.8895 32.6329 44.01 32.9638 43.5751C33.5739 42.7735 34.5961 42.5737 35.3318 43.1125ZM6.41764 44.6969C6.76228 45.0351 6.76939 45.4577 6.43604 45.7847C5.92178 46.2893 5.05943 45.9604 5.05943 45.2597C5.05943 44.5267 5.89231 44.1817 6.41764 44.6969Z" fill="#FCB900"/>
</svg>
