<svg width="60" height="71" viewBox="0 0 60 71" fill="none" xmlns="http://www.w3.org/2000/svg">
<path fill-rule="evenodd" clip-rule="evenodd" d="M27.5986 0.158484C24.7137 0.702058 22.1907 2.01735 20.1602 4.03622C15.9225 8.24978 14.8607 14.68 17.5286 19.9737C18.2907 21.4859 19.0851 22.5541 20.4 23.8338L21.6289 25.0301L20.9682 25.2768C19.8389 25.6985 17.8477 26.7339 16.617 27.5395C15.4574 28.2983 13.3583 29.9794 12.7281 30.6538L12.4063 30.9983L10.2158 30.1723C7.81007 29.2653 7.24076 29.2035 6.45024 29.7632C5.62524 30.3473 5.58281 30.6017 5.58281 34.9618V38.9176L4.79968 39.1626C2.05098 40.0221 0 42.8342 0 45.7433C0 48.6524 2.05098 51.4645 4.79968 52.3241L5.58281 52.569V56.8256C5.58281 60.7122 5.60542 61.1241 5.84283 61.5657C5.98589 61.8315 6.28987 62.1584 6.51835 62.2919C7.23839 62.7123 29.613 71 30.0284 71C30.4184 71 52.2852 62.9188 53.332 62.3879C53.6742 62.2143 53.9728 61.9152 54.1514 61.567C54.4148 61.0537 54.4324 60.7549 54.4324 56.7942V52.569L55.2155 52.3241C58.5747 51.2736 60.6755 47.5256 59.8017 44.1419C59.1871 41.7626 57.5402 39.9615 55.2875 39.2052L54.4324 38.9179V34.9701C54.4324 31.2873 54.4135 30.9855 54.1514 30.4747C53.8391 29.8662 53.0331 29.3681 52.3603 29.3681C52.1358 29.3681 50.9748 29.7349 49.7805 30.1831L47.6089 30.9983L47.2871 30.6559C45.5143 28.7696 41.6598 26.2527 39.0527 25.2792L38.3977 25.0345L39.6209 23.8361C41.9152 21.5879 43.2192 19.1497 43.7522 16.1106C44.9933 9.03426 40.3923 2.10353 33.2875 0.346938C31.7874 -0.0238636 29.0482 -0.114621 27.5986 0.158484ZM31.8676 4.31057C34.8177 4.87191 37.3823 6.83277 38.7145 9.54578C40.1255 12.4191 40.1227 15.231 38.7063 18.1275C37.7872 20.0068 36.2243 21.5607 34.3343 22.4746C32.8949 23.1704 31.3949 23.5396 30.0076 23.5396C28.6203 23.5396 27.1203 23.1704 25.6809 22.4746C24.5725 21.9386 24.1581 21.6376 23.1543 20.6397C22.1577 19.6489 21.8429 19.2217 21.3019 18.1275C19.8882 15.2678 19.8882 12.3833 21.3019 9.52358C21.8429 8.42935 22.1577 8.00221 23.1543 7.01137C24.1496 6.02192 24.5819 5.70649 25.6809 5.16833C27.7209 4.16944 29.6902 3.89647 31.8676 4.31057ZM34.0829 28.1153C35.9171 28.5004 37.6031 29.1061 39.3697 30.0142C40.7248 30.711 43.0012 32.2533 43.0972 32.5399C43.1194 32.6061 40.1832 33.7617 36.5723 35.1078L30.0069 37.5552L23.4933 35.1262C19.9109 33.7904 16.9459 32.6637 16.9045 32.6225C16.7241 32.4433 19.025 30.8637 20.8427 29.9186C22.8601 28.8699 25.0756 28.179 27.4953 27.844C28.9537 27.6422 32.5314 27.7894 34.0829 28.1153ZM19.0164 37.9039L27.914 41.2141V53.5546C27.914 63.3667 27.8783 65.8827 27.7396 65.8347C27.6437 65.8014 23.5613 64.2848 18.6675 62.4642L9.76992 59.1541V55.8706V52.5872L10.3415 52.4169C11.1119 52.1874 12.0383 51.2444 12.3302 50.3928C12.6721 49.3947 12.6721 42.0919 12.3302 41.0939C12.0383 40.2422 11.1119 39.2993 10.3415 39.0697L9.76992 38.8995V36.6863C9.76992 34.9759 9.80955 34.4868 9.94438 34.5334C10.0404 34.5667 14.1228 36.0833 19.0164 37.9039ZM50.2453 36.7012V38.8995L49.6737 39.0697C48.8838 39.3051 47.9692 40.2479 47.6743 41.1308C47.4696 41.7432 47.4442 42.3907 47.4812 46.0447L47.5237 50.2534L47.9168 50.9184C48.3484 51.6485 49.195 52.3359 49.8347 52.4756L50.2453 52.5653V55.8596V59.1541L41.3477 62.4642C36.4541 64.2848 32.3716 65.8014 32.2756 65.8347C32.1369 65.8827 32.1012 63.3669 32.1012 53.5561V41.2171L41.0685 37.8712C46.0005 36.0307 50.083 34.5201 50.1406 34.514C50.1982 34.5077 50.2453 35.492 50.2453 36.7012ZM8.37421 45.7607V48.5536L7.21201 48.493C6.31402 48.4461 5.93104 48.3593 5.52768 48.1115C4.01041 47.1791 3.76351 45.0543 5.02648 43.7986C5.66683 43.1619 6.1503 42.9974 7.43211 42.9804L8.37421 42.9679V45.7607ZM54.4875 43.3752C54.7746 43.5515 55.178 43.9491 55.3838 44.2584C55.6958 44.7271 55.7583 44.9751 55.7583 45.7433C55.7583 46.5116 55.6958 46.7596 55.3838 47.2282C54.7937 48.1148 54.1675 48.4218 52.8032 48.493L51.641 48.5536V45.7433V42.933L52.8032 42.9937C53.7012 43.0406 54.0842 43.1273 54.4875 43.3752Z" fill="#24C7A9"/>
</svg>
