<svg width="42" height="46" viewBox="0 0 42 46" fill="none" xmlns="http://www.w3.org/2000/svg">
<path fill-rule="evenodd" clip-rule="evenodd" d="M20.0116 0.105762C19.3743 0.279506 18.9605 0.519437 18.4022 1.03914C17.5537 1.82881 17.1516 2.84798 17.2635 3.9256C17.2969 4.2471 17.3333 4.60286 17.3444 4.71617C17.3623 4.89909 16.7682 5.25701 12.0392 7.91262L6.71391 10.9031L6.24973 10.5372C5.99439 10.336 5.55679 10.0711 5.27728 9.94872C4.83393 9.75447 4.63879 9.72632 3.75025 9.72848C2.84948 9.73055 2.6712 9.75807 2.21054 9.9658C0.322036 10.8177 -0.524274 13.0251 0.345653 14.8301C0.819283 15.8129 1.66884 16.5559 2.63591 16.8332L3.00934 16.9403V22.9906V29.041L2.63591 29.1481C1.66884 29.4254 0.819283 30.1684 0.345653 31.1512C-0.527886 32.9637 0.311108 35.139 2.22211 36.0166C2.67305 36.2237 2.84828 36.2507 3.75025 36.2528C4.70316 36.2551 4.80791 36.2371 5.371 35.9746C5.7021 35.8202 6.13637 35.5545 6.33605 35.3841L6.69919 35.0741L11.9855 38.0355C14.8931 39.6643 17.3012 41.0227 17.3371 41.0544C17.3728 41.0861 17.3539 41.385 17.2951 41.7187C17.082 42.9266 17.491 44.1035 18.4219 44.9617C19.0418 45.5329 19.6117 45.8144 20.421 45.949C22.9272 46.3658 25.1818 44.163 24.7506 41.7187C24.6918 41.385 24.6729 41.0854 24.7086 41.0531C24.7445 41.0206 26.9409 39.7814 29.5897 38.2991C32.2384 36.8169 34.6157 35.4836 34.8723 35.3362L35.339 35.0683L35.7516 35.4133C36.2907 35.8641 36.5608 35.9528 36.9326 35.8009C37.4662 35.5831 37.4511 34.9387 36.904 34.5816C36.5036 34.3203 36.0598 33.6969 35.9226 33.2029C35.7184 32.468 35.989 31.5841 36.5996 30.9912C37.0473 30.5565 37.546 30.3692 38.2617 30.3668C40.5763 30.3594 41.511 33.0885 39.69 34.5375C39.4581 34.722 39.2429 34.9718 39.2117 35.0926C39.0964 35.5387 39.6763 36.0246 40.1259 35.8586C40.5937 35.6859 41.3 34.9419 41.6512 34.2519C41.9846 33.597 42 33.5267 42 32.6627C42 31.8359 41.9752 31.7079 41.7094 31.1632C41.2319 30.1845 40.3675 29.4227 39.4296 29.1538L39.0363 29.041L39.0125 23.0006C38.9901 17.3062 38.9981 16.9573 39.1515 16.9093C40.4057 16.5168 41.1311 15.9391 41.6502 14.9191C41.9847 14.2619 42 14.1924 42 13.3279C42 12.4983 41.9757 12.3742 41.705 11.8193C40.96 10.2923 39.4412 9.48117 37.7206 9.69152C37.1261 9.76418 36.1936 10.1841 35.7099 10.597L35.3471 10.9066L31.9127 8.98063C30.0238 7.92126 27.6448 6.58904 26.626 6.02006C25.6073 5.45108 24.7445 4.95943 24.7086 4.92751C24.6729 4.89549 24.6918 4.5963 24.7506 4.26257C24.8848 3.50222 24.764 2.73152 24.3964 2.00255C24.043 1.30182 23.1537 0.499293 22.4414 0.238498C21.7406 -0.0180708 20.6787 -0.0760753 20.0116 0.105762ZM22.0906 1.56765C22.5214 1.78304 22.97 2.22342 23.2102 2.66659C23.332 2.89124 23.3808 3.17451 23.3808 3.65582C23.3808 4.40286 23.245 4.74765 22.749 5.25998C22.2566 5.76844 21.812 5.94488 21.0228 5.94488C20.2337 5.94488 19.789 5.76844 19.2967 5.25998C18.8006 4.74765 18.6649 4.40286 18.6649 3.65582C18.6649 2.90868 18.8007 2.56371 19.2967 2.05192C19.5896 1.74958 19.9463 1.53258 20.374 1.39625C20.7559 1.27457 21.6914 1.36792 22.0906 1.56765ZM18.5459 6.40873C19.9336 7.62602 22.2296 7.61397 23.5382 6.38239C23.7245 6.20693 23.9165 6.07815 23.9648 6.09614C24.0131 6.11413 26.4355 7.46433 29.348 9.09655L34.6435 12.0642L34.5708 12.4239C34.4523 13.0115 34.5021 14.0094 34.6754 14.5146C35.0259 15.5374 35.923 16.3955 37.0637 16.7994L37.6008 16.9895V22.9906V28.9918L37.0637 29.1819C35.925 29.5852 35.0317 30.4384 34.6721 31.4667C34.4968 31.9678 34.449 32.9523 34.5705 33.5573L34.6427 33.9171L29.3479 36.8847C26.4357 38.517 24.0134 39.8672 23.965 39.8851C23.9166 39.9031 23.7245 39.7743 23.5382 39.5989C22.2317 38.3694 19.9854 38.3455 18.5806 39.5461C18.3546 39.7393 18.1511 39.8974 18.1282 39.8974C18.1054 39.8974 17.5266 39.5838 16.8419 39.2004C16.1572 38.8171 13.7539 37.4715 11.5011 36.2103L7.40509 33.9171L7.47631 33.5124C7.5154 33.2898 7.54346 32.8437 7.53864 32.521C7.51614 31.0087 6.53961 29.7335 4.98193 29.1819L4.44486 28.9918V22.9906V16.9895L4.98193 16.7994C6.12192 16.3957 7.02037 15.5368 7.36925 14.5168C7.54263 14.0097 7.58977 13.1177 7.47733 12.4689L7.40722 12.0642L12.71 9.08315C15.6266 7.44346 18.0495 6.09794 18.0943 6.09299C18.139 6.08796 18.3423 6.23004 18.5459 6.40873ZM20.3745 10.3708C20.0906 10.4839 10.4073 15.9285 10.1221 16.1353C9.95921 16.2536 9.74037 16.5217 9.6359 16.7312C9.45039 17.1032 9.44604 17.2479 9.44604 22.977C9.44604 29.3555 9.43131 29.1679 9.97274 29.6931C10.1242 29.84 12.5161 31.2349 15.2882 32.7929L20.3282 35.6257H21.0228H21.7174L26.7516 32.799C29.5203 31.2444 31.9123 29.8494 32.0669 29.6992C32.5585 29.2218 32.5996 29.0144 32.5996 27.011C32.5996 25.2137 32.5957 25.1767 32.3853 24.9847C32.1208 24.7435 31.7642 24.7342 31.4754 24.961C31.261 25.1293 31.2562 25.1672 31.2281 26.8939L31.1994 28.6552L30.904 28.8673C30.4666 29.181 21.9027 33.962 21.7779 33.962C21.6985 33.962 21.6716 32.6098 21.6728 28.6787L21.6745 23.3953L23.0058 22.6534C23.7381 22.2454 24.3625 21.9115 24.3934 21.9115C24.4243 21.9115 24.4496 22.7321 24.4496 23.735C24.4496 25.7389 24.4704 25.8246 25.0237 26.1025C25.4388 26.3109 25.6913 26.2284 27.1477 25.4087C28.05 24.9007 28.5033 24.5899 28.6256 24.3954C28.7869 24.1385 28.8018 23.9161 28.8021 21.763L28.8024 19.4112L30.0064 18.7359L31.2104 18.0605V20.2066C31.2104 22.4836 31.2478 22.7165 31.6417 22.8908C31.9591 23.0312 32.0772 23.0169 32.3556 22.8042L32.5996 22.6179V19.8786C32.5996 16.8913 32.5837 16.7839 32.0663 16.2815C31.9111 16.1308 29.5193 14.7377 26.7509 13.1856L21.7174 10.3637L21.1155 10.3395C20.7844 10.3263 20.4509 10.3404 20.3745 10.3708ZM39.5038 11.3425C40.7212 12.0353 41.0324 13.6299 40.1655 14.7335C39.3226 15.8064 37.5702 15.9326 36.5996 14.9901C36.0964 14.5016 35.9003 14.037 35.8959 13.3232C35.8914 12.6154 36.0825 12.1585 36.5883 11.6673C37.3486 10.929 38.5433 10.7959 39.5038 11.3425ZM4.77105 11.1983C6.28233 11.8649 6.63343 13.8372 5.44611 14.9901C4.74762 15.6683 3.60485 15.8249 2.67926 15.3691C0.935885 14.5106 0.964873 12.0399 2.7277 11.2429C3.31793 10.976 4.2224 10.9563 4.77105 11.1983ZM25.8543 14.245C28.392 15.6671 30.4681 16.8507 30.4681 16.8754C30.468 16.9002 29.9444 17.2138 29.3045 17.5723L28.141 18.2242L23.4937 15.6099C20.9376 14.1721 18.8121 12.9632 18.7702 12.9235C18.6664 12.8253 20.7345 11.6625 21.0159 11.6609C21.1433 11.6601 23.2378 12.7788 25.8543 14.245ZM23.6623 17.2638C25.2924 18.1808 26.6217 18.9642 26.6165 19.0049C26.6113 19.0454 26.2718 19.2666 25.862 19.4962L25.117 19.9135L22.3984 18.3847C20.9033 17.5439 18.8464 16.3885 17.8276 15.8172C16.8089 15.2459 15.9 14.7288 15.8078 14.6682C15.6587 14.57 15.7291 14.5084 16.4457 14.1089L17.251 13.6599L18.9749 14.6284C19.9229 15.161 22.0323 16.347 23.6623 17.2638ZM18.939 18.0003C21.4859 19.4257 23.6015 20.6182 23.6403 20.6502C23.7414 20.7339 21.2788 22.0913 21.0261 22.0913C20.8346 22.0913 11.5783 16.9807 11.5789 16.8754C11.5794 16.8117 14.1977 15.3542 14.2583 15.384C14.2858 15.3974 16.3921 16.5748 18.939 18.0003ZM17.3183 21.6933L20.2356 23.3299L20.2595 28.6558C20.2786 32.9053 20.2599 33.973 20.1669 33.9384C19.9203 33.8463 11.1508 28.9028 10.9973 28.7693C10.8465 28.638 10.8353 28.2629 10.8353 23.3422V18.0561L12.6181 19.0564C13.5987 19.6066 15.7137 20.7931 17.3183 21.6933ZM27.4132 21.9525V23.7022L26.7709 24.0665C26.4174 24.2668 26.0632 24.4551 25.9836 24.4847C25.8553 24.5326 25.8391 24.3405 25.8416 22.7979L25.8443 21.0572L26.6056 20.6325C27.0243 20.399 27.3774 20.2067 27.3901 20.2053C27.4028 20.204 27.4132 20.9902 27.4132 21.9525ZM4.77105 30.5331C6.27473 31.1964 6.63343 33.172 5.45751 34.3138C4.74465 35.006 3.59253 35.1659 2.67426 34.7001C0.940793 33.8208 0.97256 31.3713 2.7277 30.5777C3.31793 30.3108 4.2224 30.2911 4.77105 30.5331ZM22.0906 40.2373C22.5214 40.4527 22.97 40.8931 23.2102 41.3362C23.332 41.5609 23.3808 41.8442 23.3808 42.3255C23.3808 43.0725 23.245 43.4173 22.749 43.9296C22.2566 44.4381 21.812 44.6145 21.0228 44.6145C20.2337 44.6145 19.789 44.4381 19.2967 43.9296C18.8006 43.4173 18.6649 43.0725 18.6649 42.3255C18.6649 41.5783 18.8007 41.2334 19.2967 40.7216C19.5896 40.4192 19.9463 40.2022 20.374 40.0659C20.7559 39.9442 21.6914 40.0376 22.0906 40.2373Z" fill="#00E685"/>
</svg>
