<svg width="44" height="50" viewBox="0 0 44 50" fill="none" xmlns="http://www.w3.org/2000/svg">
<path fill-rule="evenodd" clip-rule="evenodd" d="M20.9645 0.114959C20.2969 0.30381 19.8634 0.564606 19.2785 1.1295C18.3896 1.98784 17.9684 3.09563 18.0856 4.26696C18.1205 4.61641 18.1587 5.00311 18.1703 5.12628C18.1891 5.3251 17.5667 5.71414 12.6125 8.60068L7.03362 11.8512L6.54734 11.4535C6.27984 11.2347 5.8214 10.9469 5.52858 10.8138C5.06412 10.6027 4.85969 10.5721 3.92883 10.5744C2.98517 10.5767 2.7984 10.6066 2.3158 10.8324C0.337372 11.7584 -0.549239 14.1577 0.362113 16.1197C0.858297 17.188 1.7483 17.9956 2.76143 18.2969L3.15264 18.4133V24.9898V31.5663L2.76143 31.6827C1.7483 31.9841 0.858297 32.7917 0.362113 33.86C-0.553023 35.8301 0.325923 38.1946 2.32793 39.1484C2.80034 39.3736 2.98391 39.403 3.92883 39.4052C4.92712 39.4077 5.03686 39.3881 5.62677 39.1028C5.97363 38.935 6.42858 38.6462 6.63776 38.461L7.0182 38.124L12.5563 41.3429C15.6023 43.1133 18.1251 44.5899 18.1626 44.6244C18.2001 44.6588 18.1803 44.9837 18.1187 45.3464C17.8954 46.6593 18.3239 47.9386 19.2992 48.8714C19.9486 49.4923 20.5456 49.7982 21.3935 49.9446C24.0189 50.3976 26.3809 48.0033 25.9292 45.3464C25.8676 44.9837 25.8478 44.6581 25.8852 44.6229C25.9228 44.5876 28.2238 43.2406 30.9987 41.6295C33.7736 40.0184 36.264 38.5692 36.5329 38.409L37.0218 38.1177L37.454 38.4927C38.0188 38.9827 38.3017 39.0791 38.6913 38.914C39.2504 38.6773 39.2344 37.9768 38.6613 37.5887C38.2419 37.3047 37.7769 36.6271 37.6331 36.0901C37.4193 35.2913 37.7027 34.3306 38.3424 33.6861C38.8114 33.2136 39.3339 33.01 40.0837 33.0074C42.5085 32.9993 43.4877 35.9658 41.58 37.5407C41.3371 37.7413 41.1116 38.0128 41.0789 38.1442C40.9581 38.629 41.5657 39.1571 42.0367 38.9767C42.5268 38.789 43.2667 37.9803 43.6346 37.2303C43.9839 36.5185 44 36.442 44 35.503C44 34.6043 43.974 34.4651 43.6955 33.873C43.1953 32.8093 42.2897 31.9812 41.3072 31.6889L40.8952 31.5663L40.8703 25.0007C40.8468 18.8111 40.8551 18.4318 41.0158 18.3796C42.3298 17.953 43.0897 17.3251 43.6335 16.2164C43.984 15.5021 44 15.4265 44 14.4869C44 13.5851 43.9746 13.4502 43.691 12.8471C42.9105 11.1873 41.3193 10.3056 39.5168 10.5343C38.894 10.6132 37.9171 11.0696 37.4104 11.5185L37.0303 11.855L33.4324 9.76155C31.4535 8.61006 28.9612 7.162 27.8939 6.54354C26.8266 5.92508 25.9228 5.39069 25.8852 5.35599C25.8478 5.32119 25.8676 4.99598 25.9292 4.63323C26.0698 3.80676 25.9432 2.96904 25.5581 2.17669C25.1879 1.41503 24.2563 0.54271 23.51 0.259237C22.7759 -0.0196422 21.6634 -0.0826905 20.9645 0.114959ZM23.1425 1.70397C23.5939 1.93808 24.0638 2.41676 24.3155 2.89847C24.443 3.14265 24.4942 3.45056 24.4942 3.97371C24.4942 4.78572 24.3519 5.16049 23.8323 5.71737C23.3165 6.27004 22.8507 6.46183 22.0239 6.46183C21.1972 6.46183 20.7314 6.27004 20.2156 5.71737C19.6959 5.16049 19.5537 4.78572 19.5537 3.97371C19.5537 3.16161 19.696 2.78664 20.2156 2.23035C20.5225 1.90172 20.8961 1.66585 21.3442 1.51766C21.7443 1.38541 22.7243 1.48687 23.1425 1.70397ZM19.429 6.96602C20.8828 8.28915 23.2882 8.27605 24.659 6.93738C24.8542 6.74667 25.0554 6.60669 25.106 6.62624C25.1566 6.64579 27.6943 8.1134 30.7456 9.88755L36.2931 13.1133L36.2171 13.5043C36.0929 14.143 36.1451 15.2276 36.3266 15.7768C36.6939 16.8885 37.6336 17.8212 38.8287 18.2602L39.3913 18.4668V24.9898V31.5128L38.8287 31.7195C37.6357 32.1578 36.6999 33.0852 36.3231 34.2029C36.1395 34.7476 36.0894 35.8177 36.2167 36.4754L36.2924 36.8664L30.7454 40.0921C27.6945 41.8663 25.1569 43.3339 25.1062 43.3534C25.0555 43.373 24.8542 43.233 24.659 43.0423C23.2904 41.7058 20.9371 41.6798 19.4654 42.9849C19.2286 43.1949 19.0154 43.3667 18.9914 43.3667C18.9676 43.3667 18.3611 43.0259 17.6439 42.6091C16.9266 42.1925 14.4089 40.7299 12.0487 39.359L7.75772 36.8664L7.83233 36.4265C7.87327 36.1846 7.90267 35.6996 7.89763 35.3489C7.87405 33.7052 6.85102 32.319 5.21917 31.7195L4.65652 31.5128V24.9898V18.4668L5.21917 18.2602C6.41344 17.8214 7.35468 16.8878 7.72017 15.7791C7.9018 15.228 7.95118 14.2584 7.8334 13.5532L7.75995 13.1133L13.3153 9.87298C16.3707 8.09072 18.9089 6.62819 18.9559 6.62282C19.0028 6.61734 19.2157 6.77179 19.429 6.96602ZM21.3448 11.2727C21.0473 11.3955 10.9029 17.3136 10.6041 17.5384C10.4335 17.6669 10.2042 17.9584 10.0947 18.1861C9.90041 18.5905 9.89585 18.7477 9.89585 24.975C9.89585 31.9081 9.88042 31.7042 10.4476 32.2751C10.6063 32.4348 13.1121 33.951 16.0162 35.6445L21.2962 38.7236H22.0239H22.7516L28.0255 35.6511C30.926 33.9613 33.4319 32.445 33.5939 32.2817C34.1089 31.7629 34.152 31.5374 34.152 29.3598C34.152 27.4062 34.1479 27.366 33.9275 27.1573C33.6504 26.8951 33.2767 26.885 32.9742 27.1315C32.7496 27.3145 32.7446 27.3557 32.7152 29.2325L32.6851 31.147L32.3756 31.3775C31.9174 31.7185 22.9457 36.9153 22.815 36.9153C22.7317 36.9153 22.7036 35.4454 22.7048 31.1725L22.7066 25.4297L24.1013 24.6233C24.8685 24.1798 25.5226 23.8168 25.5549 23.8168C25.5873 23.8168 25.6138 24.7088 25.6138 25.7989C25.6138 27.977 25.6357 28.0702 26.2153 28.3722C26.6502 28.5988 26.9147 28.5091 28.4405 27.6181C29.3858 27.066 29.8606 26.7282 29.9887 26.5168C30.1577 26.2375 30.1733 25.9958 30.1736 23.6554L30.174 21.0991L31.4353 20.3651L32.6966 19.631V21.9637C32.6966 24.4387 32.7358 24.6919 33.1485 24.8813C33.481 25.0339 33.6047 25.0184 33.8963 24.7872L34.152 24.5847V21.6072C34.152 18.3601 34.1353 18.2434 33.5932 17.6972C33.4307 17.5335 30.925 16.0193 28.0247 14.3322L22.7516 11.2648L22.121 11.2386C21.7741 11.2243 21.4248 11.2395 21.3448 11.2727ZM41.3849 12.3288C42.6603 13.0818 42.9863 14.8151 42.0781 16.0147C41.1951 17.1809 39.3592 17.3181 38.3424 16.2936C37.8153 15.7626 37.6099 15.2576 37.6052 14.4818C37.6005 13.7124 37.8007 13.2157 38.3306 12.6818C39.1271 11.8794 40.3787 11.7347 41.3849 12.3288ZM4.99824 12.172C6.58149 12.8967 6.94931 15.0404 5.70545 16.2936C4.97369 17.0308 3.77651 17.201 2.80684 16.7056C0.980451 15.7724 1.01082 13.0869 2.85759 12.2205C3.47592 11.9304 4.42347 11.909 4.99824 12.172ZM27.0855 15.4837C29.744 17.0294 31.919 18.316 31.919 18.3429C31.9189 18.3698 31.3703 18.7106 30.7 19.1003L29.481 19.8089L24.6124 16.9672C21.9347 15.4044 19.7079 14.0904 19.664 14.0473C19.5552 13.9405 21.7219 12.6766 22.0166 12.6749C22.1502 12.674 24.3444 13.89 27.0855 15.4837ZM24.7891 18.765C26.4968 19.7617 27.8895 20.6133 27.8839 20.6575C27.8785 20.7016 27.5228 20.9419 27.0936 21.1915L26.3131 21.6451L23.465 19.9834C21.8987 19.0694 19.7438 17.8136 18.6766 17.1926C17.6093 16.5716 16.6571 16.0096 16.5606 15.9437C16.4044 15.837 16.4781 15.77 17.2288 15.3357L18.0725 14.8477L19.8784 15.9004C20.8717 16.4794 23.0815 17.7685 24.7891 18.765ZM19.8409 19.5655C22.509 21.1148 24.7254 22.4111 24.766 22.4459C24.872 22.5368 22.2921 24.0123 22.0273 24.0123C21.8268 24.0123 12.1296 18.4573 12.1303 18.3429C12.1308 18.2736 14.8738 16.6893 14.9372 16.7217C14.9661 16.7364 17.1727 18.0161 19.8409 19.5655ZM18.1429 23.5797L21.1992 25.3585L21.2242 31.1476C21.2442 35.7666 21.2246 36.9272 21.1272 36.8895C20.8688 36.7894 11.6818 31.4161 11.521 31.271C11.363 31.1283 11.3512 30.7206 11.3512 25.3719V19.6262L13.2189 20.7135C14.2462 21.3115 16.462 22.6012 18.1429 23.5797ZM28.7186 23.8614V25.7632L28.0457 26.1592C27.6754 26.377 27.3043 26.5816 27.2209 26.6138C27.0865 26.6658 27.0695 26.457 27.0721 24.7803L27.075 22.8882L27.8726 22.4266C28.3112 22.1728 28.6811 21.9638 28.6944 21.9623C28.7077 21.9609 28.7186 22.8154 28.7186 23.8614ZM4.99824 33.1882C6.57353 33.9092 6.94931 36.0565 5.71739 37.2976C4.97059 38.05 3.7636 38.2238 2.8016 37.7175C0.985593 36.7617 1.01887 34.0993 2.85759 33.2366C3.47592 32.9465 4.42347 32.9251 4.99824 33.1882ZM23.1425 43.7362C23.5939 43.9703 24.0638 44.449 24.3155 44.9307C24.443 45.1749 24.4942 45.4828 24.4942 46.0059C24.4942 46.8179 24.3519 47.1927 23.8323 47.7496C23.3165 48.3023 22.8507 48.4941 22.0239 48.4941C21.1972 48.4941 20.7314 48.3023 20.2156 47.7496C19.6959 47.1927 19.5537 46.8179 19.5537 46.0059C19.5537 45.1938 19.696 44.8189 20.2156 44.2626C20.5225 43.9339 20.8961 43.6981 21.3442 43.5499C21.7443 43.4176 22.7243 43.5191 23.1425 43.7362Z" fill="#E27F0A"/>
</svg>
