<svg width="106" height="106" viewBox="0 0 106 106" fill="none" xmlns="http://www.w3.org/2000/svg">
<path d="M22.9815 0.119141C23.0746 0.120828 23.1675 0.127818 23.2597 0.140078C26.1463 0.67181 29.033 1.20354 31.9196 1.73527L40.7421 3.36238C44.0096 3.96456 47.2771 4.56675 50.5446 5.16894C53.9211 5.78974 57.2979 6.40987 60.6751 7.02934C63.9698 7.63551 67.2649 8.24102 70.5603 8.84587C70.7752 8.89763 70.9683 9.01549 71.1127 9.18285L77.1943 14.9704L82.8573 20.3542C82.9759 20.4669 83.0886 20.5845 83.2282 20.7231L48.1737 63.4365C48.1522 63.4391 48.1304 63.4391 48.1089 63.4365C48.0956 63.433 48.0839 63.4249 48.076 63.4136C48.0132 63.275 47.9474 63.1384 47.8916 62.9979C39.5832 42.0722 31.2749 21.1465 22.9666 0.220836C22.9556 0.198902 22.9716 0.169988 22.9815 0.119141ZM29.5308 7.56971L29.464 7.63252C35.5896 23.0468 41.7151 38.461 47.8407 53.8753C47.8666 53.9391 47.8985 54.0009 47.9304 54.0628C47.9393 54.0739 47.9522 54.081 47.9663 54.0827C47.9763 54.0827 47.9883 54.0757 48.0242 54.0628C48.0451 53.9561 48.077 53.8374 48.091 53.7158C48.2405 52.4646 48.3841 51.2123 48.5356 49.9621C48.856 47.3227 49.1783 44.6837 49.5027 42.0449C49.7938 39.6392 50.075 37.2324 50.3661 34.8267C50.7124 31.9686 51.0633 29.1105 51.4189 26.2525C51.4517 26.1005 51.4394 25.9422 51.3834 25.7971C51.3274 25.6521 51.2303 25.5265 51.1039 25.4359C44.0132 19.5716 36.9286 13.6999 29.8499 7.82095C29.7462 7.73322 29.6375 7.65147 29.5308 7.56971V7.56971ZM76.7886 23.3452L76.7287 23.2455L54.6951 27.2335C54.5515 27.6542 51.405 53.8085 51.4668 54.2033L76.7886 23.3452ZM52.9334 22.6393C53.5744 22.2166 66.0938 11.7372 66.2932 11.459C66.2437 11.4399 66.1931 11.4239 66.1416 11.4111C54.7625 9.3221 43.3835 7.23439 32.0044 5.148C31.9974 5.14871 31.9906 5.15096 31.9846 5.15458C31.9786 5.1582 31.9734 5.1631 31.9695 5.16894C31.9616 5.19179 31.9569 5.2156 31.9555 5.23972L52.9334 22.6393ZM70.1067 12.8179C70.0449 12.8179 70.007 12.8179 69.991 12.8259C69.9213 12.8683 69.8547 12.9156 69.7916 12.9675C65.6853 16.3932 61.579 19.8202 57.4727 23.2485C57.4657 23.2545 57.4667 23.2734 57.4727 23.2854C57.4789 23.3012 57.4869 23.3163 57.4966 23.3303C57.5487 23.3349 57.6011 23.3349 57.6532 23.3303C64.1516 22.1558 70.6494 20.9803 77.1465 19.8039C77.1864 19.7933 77.2249 19.7779 77.2611 19.758C77.2733 19.7511 77.283 19.7407 77.2891 19.7281C77.2975 19.7042 77.3035 19.6795 77.307 19.6543L70.1067 12.8179Z" fill="#606060"/>
<path d="M44.1476 94.1669L49.4576 104.182H48.8853C48.1874 104.182 47.4985 104.165 46.8065 104.19C46.6724 104.208 46.5359 104.181 46.4194 104.111C46.303 104.042 46.2134 103.936 46.1655 103.809C44.6773 100.961 43.1788 98.1177 41.67 95.2795C41.5344 95.0243 41.3938 94.7711 41.2622 94.5278H35.025C35.0011 94.9914 35.016 95.443 35.013 95.8937C35.0101 96.3443 35.013 96.8089 35.013 97.2655V104.145H32.4209C32.3421 103.836 32.3112 92.5797 32.3919 91.8389C32.5554 91.8319 32.7289 91.818 32.9014 91.818C35.8116 91.818 38.7229 91.8299 41.6331 91.8289C42.8847 91.8424 44.0951 91.3827 45.0222 90.5419C45.9493 89.701 46.5247 88.541 46.633 87.2941C46.7414 86.0472 46.3749 84.8053 45.6068 83.8171C44.8386 82.8289 43.7256 82.1673 42.4905 81.9646C42.2572 81.9302 42.0214 81.9165 41.7857 81.9237C38.0575 81.9237 34.3291 81.9237 30.6003 81.9237H30.1477V104.17C29.2504 104.188 28.402 104.182 27.5555 104.17C27.4558 103.858 27.4299 79.828 27.5206 79.2378C27.6333 79.2298 27.7539 79.2129 27.8735 79.2119C32.5445 79.2119 37.2154 79.2009 41.8864 79.2119C43.6627 79.2499 45.3706 79.9044 46.7173 81.0634C48.0641 82.2223 48.9658 83.8136 49.2681 85.5644C49.5704 87.3153 49.2543 89.1168 48.3742 90.6602C47.494 92.2036 46.1045 93.3929 44.4437 94.0243C44.3609 94.0662 44.2772 94.1091 44.1476 94.1669Z" fill="#606060"/>
<path d="M84.2378 77.5996L103.274 98.7519C103.328 98.2813 103.343 97.8073 103.32 97.3342C103.33 96.8626 103.32 96.392 103.32 95.9205V79.2347H106V105.879L86.9327 84.6903L86.839 84.7302V104.146H84.166V77.6395L84.2378 77.5996Z" fill="#606060"/>
<path d="M79.0844 91.6757C79.0875 94.1467 78.3578 96.5631 76.9875 98.6194C75.6172 100.676 73.6678 102.279 71.386 103.228C69.1042 104.176 66.5924 104.426 64.1683 103.947C61.7443 103.467 59.5168 102.28 57.7677 100.534C56.0186 98.7888 54.8265 96.5638 54.342 94.1407C53.8576 91.7177 54.1026 89.2054 55.0461 86.9216C55.9897 84.6378 57.5893 82.6851 59.6427 81.3105C61.6961 79.9359 64.111 79.2012 66.582 79.1992C69.8899 79.2105 73.0595 80.5277 75.4009 82.8644C77.7424 85.201 79.0663 88.3678 79.0844 91.6757V91.6757ZM56.7825 91.6627C56.7804 93.6008 57.3527 95.4961 58.4273 97.1091C59.5019 98.722 61.0305 99.9803 62.8199 100.725C64.6093 101.469 66.5793 101.667 68.4809 101.292C70.3825 100.918 72.1303 99.9878 73.5037 98.6202C74.877 97.2525 75.8141 95.5086 76.1966 93.6085C76.5792 91.7085 76.3899 89.7378 75.6528 87.9453C74.9158 86.1528 73.6639 84.6189 72.0554 83.5376C70.4469 82.4563 68.554 81.8761 66.6159 81.8702C65.3269 81.8661 64.0497 82.1163 62.8575 82.6065C61.6653 83.0967 60.5814 83.8172 59.6681 84.7268C58.7547 85.6364 58.0296 86.7172 57.5345 87.9074C57.0394 89.0975 56.7838 90.3737 56.7825 91.6627V91.6627Z" fill="#606060"/>
<path d="M21.9522 81.8543H0.128906V79.2441H21.9522V81.8543Z" fill="#606060"/>
<path d="M9.9047 104.139H7.3125V86.6602H9.88476C9.88476 86.6602 9.89871 86.6711 9.90769 86.6811C9.91666 86.6911 9.93162 86.702 9.93261 86.713C9.94778 86.8221 9.95743 86.9319 9.96153 87.042C9.96153 92.6963 9.95887 98.351 9.95355 104.006C9.94365 104.052 9.9272 104.097 9.9047 104.139Z" fill="#606060"/>
<path d="M12.2047 86.6504H14.781V104.127H12.2147C12.125 103.823 12.111 87.0801 12.2047 86.6504Z" fill="#606060"/>
<path d="M89.1772 90.6934C89.2118 90.77 89.2542 90.8428 89.3038 90.9107C90.0426 91.7372 90.7814 92.5647 91.5281 93.3833C91.5995 93.4564 91.6553 93.5432 91.6923 93.6385C91.7293 93.7337 91.7467 93.8355 91.7435 93.9376C91.7375 97.2217 91.7375 100.506 91.7435 103.791C91.7435 103.899 91.7335 104.007 91.7265 104.147H89.1134C89.0336 103.839 89.0137 91.3135 89.0845 90.7771L89.1772 90.6934Z" fill="#606060"/>
<path d="M64.8029 91.6678C64.8081 91.3145 64.9178 90.9707 65.1183 90.6797C65.3187 90.3888 65.6009 90.1637 65.9292 90.033C66.2574 89.9023 66.6171 89.8719 66.9627 89.9454C67.3083 90.019 67.6243 90.1934 67.8708 90.4465C68.1174 90.6996 68.2834 91.0201 68.3479 91.3675C68.4124 91.7148 68.3726 92.0736 68.2333 92.3983C68.0941 92.723 67.8617 92.9992 67.5656 93.192C67.2695 93.3848 66.9229 93.4855 66.5696 93.4814C66.3344 93.4786 66.1021 93.4295 65.8859 93.3368C65.6698 93.2442 65.474 93.1097 65.3099 92.9413C65.1458 92.7728 65.0165 92.5736 64.9295 92.3551C64.8425 92.1365 64.7995 91.903 64.8029 91.6678V91.6678Z" fill="#606060"/>
</svg>
