<svg width="42" height="41" viewBox="0 0 42 41" fill="none" xmlns="http://www.w3.org/2000/svg">
<path d="M16.3588 0H20.5494C20.6528 0 20.7562 0.0625054 20.8597 0.0769302C23.5705 0.396531 26.1718 1.31223 28.4678 2.75513C32.0973 4.97505 34.8142 8.36799 36.1449 12.3428C36.1857 12.4736 36.2535 12.5948 36.3441 12.699C36.4347 12.8032 36.5463 12.8882 36.6718 12.9486C38.9252 14.0827 40.6344 16.0329 41.4337 18.382C41.6947 19.1321 41.8129 19.9254 42 20.6995V22.0651C41.9762 22.1122 41.9596 22.1624 41.9508 22.2141C41.6276 24.127 40.9943 25.9774 40.0746 27.6956C37.8126 32.1798 35.2067 36.4906 32.2793 40.5913C32.1977 40.7234 32.1237 40.8598 32.0577 41H31.974L27.3204 34.0232C27.301 34.0191 27.2808 34.0191 27.2613 34.0232L26.8231 34.2396C23.1872 36.0792 19.0112 36.6331 15.0046 35.8071C7.22899 34.153 2.35385 29.4554 0.354556 21.9353C0.196976 21.3439 0.118185 20.7332 0 20.137V15.9634C0.152656 15.2037 0.251144 14.4344 0.462893 13.6939C2.48189 6.67066 7.11244 2.23263 14.3546 0.379853C15.0193 0.22118 15.694 0.125015 16.3588 0ZM32.0084 36.7062C33.1164 34.9176 34.1998 33.2299 35.2241 31.5085C36.5753 29.3114 37.7476 27.014 38.7302 24.6375C39.2867 23.2335 39.7446 21.8103 39.4147 20.2668C38.8238 17.5261 37.2086 15.5932 34.5199 14.6508C33.2719 14.1747 31.9122 14.0498 30.5952 14.2904C29.2782 14.5309 28.0567 15.1272 27.0693 16.0115C26.1568 16.7288 25.4439 17.6589 24.9964 18.716C24.5489 19.7731 24.3811 20.9232 24.5086 22.0603C24.6416 23.4643 25.2571 24.7577 25.8431 26.0367C27.2955 29.0733 28.9521 32.0128 30.802 34.8358C31.1811 35.4369 31.5702 36.0283 32.0084 36.7062ZM17.2107 14.218H11.3359C10.9346 16.7449 10.9346 19.317 11.3359 21.8439H17.2107V14.218ZM2.90538 14.218C2.87282 14.2795 2.84644 14.3439 2.82659 14.4103C2.26341 16.7749 2.26341 19.2341 2.82659 21.5987C2.89061 21.8728 3.05804 21.8728 3.27471 21.8728H8.4453C8.56349 21.8728 8.6866 21.8728 8.85895 21.8487C8.49945 19.3189 8.49945 16.7527 8.85895 14.2228L2.90538 14.218ZM23.0215 2.92342C23.5139 3.51484 23.9275 4.00047 24.3067 4.51976C25.8179 6.60813 26.9091 8.95772 27.5223 11.4437C27.5962 11.7081 27.6996 11.7995 27.9902 11.7995C29.6447 11.7995 31.3043 11.7995 32.9588 11.7995C33.0623 11.7995 33.1607 11.7995 33.3183 11.7706C32.3573 9.6595 30.9392 7.77675 29.1616 6.25196C27.3841 4.72717 25.2893 3.59653 23.0215 2.93784V2.92342ZM13.8424 3.05324C10.4938 3.3754 4.68308 8.42887 3.78192 11.7706H9.30215C10.0525 8.5467 11.6128 5.55582 13.8424 3.06767V3.05324ZM3.70805 24.3154C4.65479 26.3998 6.04711 28.2625 7.79162 29.7785C9.53612 31.2944 11.5925 32.4286 13.8227 33.1048C13.2367 32.3451 12.6655 31.6624 12.1681 30.9315C10.9109 29.0629 9.99142 26.9974 9.44988 24.825C9.35139 24.4452 9.21351 24.2769 8.77524 24.3009C7.96764 24.349 7.16004 24.3009 6.35245 24.3009L3.70805 24.3154ZM17.2058 11.8139V3.31289C14.3447 5.53911 12.8231 8.47215 11.8628 11.785L17.2058 11.8139ZM11.8874 24.3154C12.5178 27.3878 15.4182 31.9461 17.2107 32.6961V24.3154H11.8874ZM19.732 3.3177V11.785H25.0749C24.1147 8.47696 22.5832 5.56315 19.732 3.3177ZM21.9873 21.8583C21.9533 20.425 22.2386 19.0015 22.8236 17.6864C23.4085 16.3713 24.2792 15.1961 25.3753 14.2421H19.7271V21.8583H21.9873ZM19.732 24.3154V32.7298C19.7799 32.7114 19.826 32.6889 19.8699 32.6625C21.5415 31.3351 22.8763 29.6483 23.77 27.734C23.8071 27.6396 23.8071 27.5351 23.77 27.4407C23.3793 26.4598 22.9804 25.4822 22.5733 24.5077C22.5503 24.4578 22.5163 24.4134 22.4737 24.3776C22.4312 24.3419 22.3811 24.3157 22.3271 24.3009C21.4949 24.2865 20.6134 24.3154 19.732 24.3154ZM23.1495 33.076V33.1577L26.1287 31.9557L25.2128 30.3209C24.5234 31.2344 23.834 32.1432 23.1495 33.052V33.076Z" fill="#229210"/>
</svg>
