<svg width="41" height="41" viewBox="0 0 41 41" fill="none" xmlns="http://www.w3.org/2000/svg">
<path d="M15.0363 0C15.3301 0.0833808 15.6319 0.14294 15.9178 0.246173C16.5584 0.46452 17.1362 0.835704 17.6011 1.3276C18.066 1.81949 18.4041 2.41727 18.586 3.06921C18.5925 3.12654 18.6109 3.18189 18.64 3.23174C18.6691 3.28159 18.7081 3.32487 18.7548 3.35884C18.8015 3.3928 18.8546 3.41671 18.911 3.42905C18.9674 3.44139 19.0257 3.44189 19.0823 3.43052C19.789 3.43052 20.4958 3.43052 21.2025 3.43052C21.9093 3.43052 22.1713 3.73625 22.1793 4.41124C22.1793 4.63756 22.1793 4.85991 22.1793 5.1299C23.0727 5.1299 23.9223 5.1299 24.772 5.1299C25.4491 5.127 26.1168 5.28842 26.7178 5.60032C27.3187 5.91221 27.835 6.36527 28.2224 6.9206C28.756 7.66346 29.0346 8.55919 29.0165 9.47365C29.0165 11.1016 29.0165 12.7295 29.0165 14.3574C29.0165 14.409 29.0165 14.4646 29.0165 14.5162C29.015 14.6299 28.991 14.7421 28.9461 14.8465C28.9011 14.951 28.8361 15.0455 28.7546 15.1248C28.6731 15.2041 28.5768 15.2665 28.4712 15.3085C28.3656 15.3506 28.2527 15.3714 28.139 15.3699C28.028 15.3683 27.9183 15.3449 27.8163 15.3009C27.7143 15.257 27.6219 15.1934 27.5445 15.1138C27.467 15.0341 27.4061 14.94 27.365 14.8368C27.324 14.7336 27.3036 14.6233 27.3052 14.5122C27.2814 13.9286 27.3052 13.3409 27.3052 12.7533C27.3052 11.6336 27.3052 10.5099 27.3052 9.39026C27.3233 8.75442 27.0958 8.13604 26.6699 7.66356C26.244 7.19108 25.6525 6.90084 25.0182 6.85311C24.109 6.7737 23.1838 6.85311 22.1991 6.85311V7.52412C22.1991 9.18777 21.1271 10.2519 19.4714 10.2519H9.5332C9.17163 10.2719 8.80989 10.2155 8.47157 10.0864C8.13325 9.95728 7.82595 9.75828 7.5697 9.50241C7.31345 9.24653 7.11401 8.93952 6.98438 8.60139C6.85475 8.26326 6.79785 7.90161 6.81737 7.54001C6.81737 7.31766 6.81737 7.09531 6.81737 6.90075C5.77883 6.84886 4.73815 6.85681 3.70052 6.92458C2.56495 7.0556 1.76291 8.11573 1.69541 9.34659C1.69541 9.4935 1.69541 9.64041 1.69541 9.78731V31.3631C1.69541 32.7369 2.38231 33.7454 3.57346 34.0591C3.89663 34.1397 4.2291 34.1771 4.56212 34.1702C8.32087 34.1702 12.0836 34.1702 15.8503 34.1702C15.9971 34.1623 16.1442 34.1623 16.291 34.1702C16.4975 34.1764 16.6934 34.2628 16.8372 34.4111C16.981 34.5593 17.0614 34.7578 17.0613 34.9643C17.0702 35.1727 17.001 35.3768 16.8674 35.5369C16.7338 35.697 16.5452 35.8014 16.3387 35.8299C16.2064 35.8377 16.0738 35.8377 15.9416 35.8299C12.1259 35.8299 8.31028 35.8021 4.49462 35.8299C3.44483 35.8727 2.41542 35.5315 1.59907 34.8701C0.782726 34.2087 0.235405 33.2724 0.0595583 32.2366C0.0595583 32.2009 0.0198526 32.1691 0 32.1373V8.81057C0.0238231 8.73513 0.0595587 8.66763 0.0754407 8.59219C0.265551 7.62335 0.784162 6.74978 1.54371 6.119C2.30325 5.48821 3.2572 5.13885 4.24448 5.1299C5.09417 5.1299 5.94386 5.1299 6.82531 5.1299V4.53036C6.82531 3.71243 7.11119 3.43052 7.93706 3.43052H10.3194C10.3551 3.31538 10.3908 3.21612 10.4226 3.11288C10.6045 2.46912 10.936 1.87747 11.39 1.38618C11.844 0.89489 12.4077 0.517872 13.0352 0.285877C13.329 0.166762 13.6387 0.0992645 13.9405 0.00794272L15.0363 0ZM20.4759 5.12593H18.0222C17.8999 5.13601 17.7769 5.12022 17.6611 5.07959C17.5454 5.03897 17.4395 4.97441 17.3503 4.89013C17.2612 4.80585 17.1908 4.70374 17.1437 4.59044C17.0966 4.47715 17.074 4.35521 17.0772 4.23257C17.0671 4.05952 17.0473 3.88719 17.0176 3.7164C16.889 3.11469 16.5477 2.57955 16.0563 2.20917C15.565 1.83879 14.9565 1.658 14.3426 1.69999C13.7288 1.74198 13.1506 2.00392 12.7143 2.43775C12.2779 2.87158 12.0127 3.44821 11.9671 4.06184C11.8639 4.94329 11.6574 5.12593 10.776 5.12593H8.55646V7.40898C8.55646 8.28249 8.83042 8.54852 9.71187 8.54852H19.3523C19.5119 8.5526 19.6715 8.54063 19.8287 8.51278C20.0106 8.48725 20.1773 8.39761 20.2989 8.26002C20.4204 8.12243 20.4889 7.94594 20.4918 7.76235C20.4918 6.90075 20.4759 6.03518 20.4759 5.12593Z" fill="#FF03B8"/>
<path d="M28.9898 41.0002C28.2196 40.8414 27.4413 40.7302 26.6909 40.5158C24.3328 39.8025 22.2791 38.3247 20.8534 36.3154C19.4278 34.3061 18.7113 31.8796 18.8168 29.4182C18.9224 26.9568 19.844 24.6004 21.4364 22.7206C23.0288 20.8407 25.2015 19.5442 27.6121 19.0353C33.6472 17.6695 39.8968 21.9259 40.8418 28.0484C40.8895 28.3621 40.945 28.6757 41.0006 28.9894V30.8317C40.9708 30.9187 40.9469 31.0076 40.9292 31.0978C40.2621 35.7393 37.721 38.8641 33.3137 40.4404C32.4985 40.6816 31.6681 40.8687 30.8282 41.0002H28.9898ZM39.2893 29.6882C39.2606 28.4347 38.9813 27.1996 38.4681 26.0556C37.9549 24.9116 37.218 23.8818 36.3009 23.0268C35.3837 22.1718 34.3048 21.5089 33.1277 21.0771C31.9505 20.6453 30.6989 20.4533 29.4464 20.5124C24.3364 20.699 20.3143 25.1261 20.5088 30.3473C20.6954 35.3581 25.1186 39.4795 30.1055 39.2929C35.3426 39.0983 39.4482 34.7903 39.2695 29.6843L39.2893 29.6882Z" fill="#FF03B8"/>
<path d="M14.5235 13.6758H22.6868C22.8179 13.6758 22.9529 13.6758 23.0839 13.6758C23.2967 13.6879 23.4971 13.7802 23.6445 13.9342C23.7919 14.0883 23.8753 14.2925 23.878 14.5056C23.8777 14.7222 23.7958 14.9308 23.6486 15.0897C23.5014 15.2486 23.2998 15.3463 23.0839 15.3633C22.9648 15.3633 22.8457 15.3633 22.7226 15.3633H6.01465C5.89769 15.3686 5.78085 15.3502 5.67121 15.3091C5.56156 15.2681 5.4614 15.2052 5.37677 15.1242C5.29214 15.0433 5.22481 14.9461 5.17885 14.8384C5.13288 14.7307 5.10925 14.6148 5.10938 14.4977C5.10966 14.3837 5.13333 14.271 5.1789 14.1665C5.22448 14.062 5.291 13.9679 5.37435 13.8902C5.45771 13.8124 5.55613 13.7525 5.66352 13.7143C5.77092 13.6761 5.88502 13.6603 5.99877 13.6679C7.07875 13.6679 8.15873 13.6679 9.23871 13.6679L14.5235 13.6758Z" fill="#FF03B8"/>
<path d="M11.9427 18.7981C13.8764 18.7981 15.814 18.7981 17.7476 18.7981C18.0343 18.8119 18.3106 18.9099 18.5417 19.0801C18.6603 19.1818 18.7421 19.3198 18.7744 19.4726C18.8067 19.6255 18.7877 19.7848 18.7204 19.9258C18.6705 20.0719 18.5802 20.2009 18.4601 20.2978C18.3399 20.3948 18.1948 20.4558 18.0414 20.4737C17.9094 20.4857 17.7765 20.4857 17.6444 20.4737H5.99093C5.76166 20.4769 5.5404 20.3894 5.37532 20.2303C5.21023 20.0711 5.11469 19.8533 5.10947 19.624C5.10772 19.5101 5.12932 19.397 5.17296 19.2918C5.2166 19.1865 5.28135 19.0914 5.3632 19.0121C5.44505 18.9329 5.54228 18.8712 5.64888 18.831C5.75548 18.7908 5.86918 18.7729 5.98299 18.7783C7.46002 18.7783 8.94102 18.7783 10.422 18.7783L11.9427 18.7981Z" fill="#FF03B8"/>
<path d="M10.2272 25.6207H6.03039C5.82219 25.6338 5.6162 25.5717 5.45002 25.4456C5.28383 25.3195 5.16851 25.1379 5.12511 24.9338C5.08501 24.7427 5.11359 24.5436 5.20582 24.3714C5.29805 24.1993 5.44803 24.0652 5.62936 23.9928C5.80706 23.9404 5.99218 23.9176 6.1773 23.9253C7.64241 23.9253 9.10753 23.9253 10.5727 23.9253H14.2493C14.9601 23.9253 15.3611 24.2429 15.3531 24.7869C15.3452 25.3309 14.9561 25.6247 14.2613 25.6247L10.2272 25.6207Z" fill="#FF03B8"/>
<path d="M28.0792 32.1083L31.3827 28.3363C32.0855 27.5422 32.7803 26.7283 33.491 25.9342C33.6119 25.7798 33.784 25.6738 33.9762 25.6352C34.1685 25.5966 34.3681 25.628 34.5392 25.7237C34.7046 25.8026 34.8377 25.9361 34.9159 26.1019C34.994 26.2676 35.0125 26.4552 34.9681 26.633C34.9133 26.8237 34.817 27 34.6862 27.1491C32.7697 29.3488 30.848 31.5458 28.921 33.7402C28.4405 34.2881 27.9601 34.308 27.4519 33.8037C26.3679 32.7237 25.28 31.6398 24.204 30.5519C24.0555 30.4249 23.9546 30.2512 23.9178 30.0593C23.881 29.8674 23.9105 29.6686 24.0015 29.4957C24.0815 29.3326 24.215 29.2018 24.3797 29.1252C24.5445 29.0486 24.7305 29.0309 24.9068 29.0748C25.1221 29.1404 25.3174 29.2592 25.4746 29.4203C26.2687 30.1786 27.027 30.9569 27.7934 31.7351C27.8969 31.853 27.9924 31.9776 28.0792 32.1083Z" fill="#FF03B8"/>
</svg>
