<svg width="35" height="41" viewBox="0 0 35 41" fill="none" xmlns="http://www.w3.org/2000/svg">
<path d="M17.733 0C22.8182 3.01377 28.2731 5.35543 33.9611 6.96636C34.8595 7.22373 34.9797 7.38388 34.9797 8.31616C34.9797 11.399 35.0254 14.4818 34.9797 17.5646C34.9061 23.826 32.4677 29.8284 28.1531 34.3685C25.9846 36.7405 23.3869 38.6811 20.4968 40.088C19.7818 40.4164 19.0436 40.6917 18.2881 40.9116C17.4078 41.101 16.4891 40.984 15.6845 40.5799C13.3026 39.6202 11.0994 38.2668 9.16692 36.5762C6.11115 34.0247 3.6966 30.7924 2.1172 27.139C0.948665 24.5907 0.27116 21.8451 0.120165 19.046C-0.0114449 15.3626 0.0286109 11.6792 0 7.99587C0 7.45824 0.217441 7.20658 0.789659 7.04643C3.35738 6.32376 5.88286 5.45878 8.35437 4.45549C11.1898 3.28535 13.9427 1.92481 16.5943 0.383206L17.2466 0.00572073L17.733 0ZM33.3088 13.7954H33.2516C33.2516 12.194 33.2516 10.5925 33.2516 8.99106C33.2516 8.69365 33.1886 8.55638 32.8796 8.46487C27.6128 6.93216 22.5473 4.77789 17.7902 2.04758C17.6974 1.98728 17.5891 1.95517 17.4784 1.95517C17.3677 1.95517 17.2593 1.98728 17.1665 2.04758C12.4086 4.80069 7.33157 6.96156 2.04854 8.48203C1.76243 8.5621 1.68804 8.69364 1.68804 8.97962C1.68804 11.5248 1.68804 14.0757 1.68804 16.6266C1.6701 19.5659 2.16983 22.4854 3.16436 25.2516C4.31326 28.2726 6.05254 31.0347 8.28073 33.3768C10.5089 35.7188 13.1814 37.5939 16.1423 38.8926C16.5336 39.0953 16.9652 39.2081 17.4057 39.2229C17.8462 39.2378 18.2845 39.1542 18.6886 38.9784C19.0663 38.8011 19.4554 38.6639 19.8331 38.4751C24.2699 36.2842 27.9344 32.795 30.339 28.4717C31.9525 25.6318 32.9141 22.4689 33.1543 19.2118C33.2516 17.4216 33.263 15.6028 33.3088 13.7954Z" fill="#480C95"/>
<path d="M14.6963 22.0088C14.8088 21.8415 14.931 21.6811 15.0625 21.5284L23.2166 13.3724C23.684 12.7958 24.361 12.428 25.0993 12.3496C25.8376 12.2713 26.5768 12.4889 27.1548 12.9546C27.7328 13.4202 28.1025 14.0961 28.1827 14.8338C28.2629 15.5715 28.0471 16.3109 27.5827 16.8898C27.4625 17.0328 27.348 17.1758 27.2164 17.3074L16.8478 27.6768C16.4779 28.1048 15.9847 28.4082 15.4357 28.5453C14.8867 28.6825 14.3087 28.6469 13.7808 28.4432C13.3721 28.2887 12.9999 28.0511 12.6878 27.7455C11.017 26.1097 9.36134 24.4587 7.72098 22.7924C7.38321 22.4838 7.12668 22.0968 6.97404 21.6655C6.8214 21.2343 6.77736 20.7722 6.84579 20.3199C6.91423 19.8677 7.09304 19.4392 7.36644 19.0724C7.63983 18.7056 7.9994 18.4117 8.41337 18.2168C8.87389 17.9595 9.40337 17.8526 9.92769 17.9111C10.452 17.9695 10.9449 18.1904 11.3374 18.5428C12.3788 19.4579 13.3287 20.476 14.3129 21.454C14.4563 21.6277 14.5846 21.8133 14.6963 22.0088ZM14.7707 27.0191C15.0899 26.8362 15.3924 26.6257 15.6748 26.3899C19.1081 22.9887 22.5281 19.5761 25.9347 16.152C26.0262 16.0548 26.1235 15.9633 26.2036 15.8603C26.3196 15.7211 26.3981 15.5546 26.4316 15.3766C26.4652 15.1986 26.4527 15.015 26.3954 14.8432C26.3381 14.6713 26.2379 14.517 26.1042 14.3947C25.9705 14.2724 25.8077 14.1863 25.6314 14.1445C25.4103 14.0874 25.1772 14.0978 24.962 14.1742C24.7468 14.2507 24.5595 14.3897 24.424 14.5734C21.479 17.5438 18.5283 20.5027 15.5718 23.4501C14.9195 24.1021 14.5247 24.1021 13.8838 23.4501C12.7393 22.3062 11.5949 21.1623 10.4505 20.0184C10.3509 19.9181 10.2325 19.8385 10.1022 19.7839C9.97179 19.7294 9.83194 19.701 9.6906 19.7005C9.54926 19.6999 9.40919 19.7272 9.27841 19.7808C9.14763 19.8344 9.02868 19.9132 8.92836 20.0127C8.82804 20.1122 8.74832 20.2305 8.69374 20.3608C8.63916 20.4911 8.6108 20.6309 8.61027 20.7722C8.60973 20.9135 8.63704 21.0535 8.69064 21.1842C8.74424 21.3149 8.82307 21.4338 8.92264 21.5341C10.5935 23.2232 12.2739 24.901 13.9639 26.5672C14.2134 26.7502 14.4843 26.9019 14.7707 27.0191Z" fill="#480C95"/>
<path d="M3.4027 12.1148C3.4027 11.6344 3.4027 11.1539 3.4027 10.6735C3.36899 10.4309 3.42976 10.1847 3.57246 9.98569C3.71515 9.78665 3.92887 9.64999 4.16948 9.60393C5.63436 9.08918 7.11067 8.58586 8.56983 8.04251C8.71388 7.96367 8.87701 7.92637 9.04103 7.93475C9.20505 7.94313 9.36351 7.99686 9.49878 8.08996C9.63404 8.18306 9.74079 8.31187 9.80713 8.46203C9.87346 8.6122 9.89678 8.77783 9.87449 8.94047C9.83282 9.12325 9.74036 9.29055 9.60774 9.4231C9.47512 9.55566 9.30774 9.64808 9.12488 9.68973C7.92322 10.1187 6.72157 10.5591 5.51419 10.9709C5.45423 10.9806 5.39681 11.0021 5.34525 11.0342C5.29369 11.0663 5.24904 11.1083 5.21389 11.1578C5.17874 11.2073 5.1538 11.2633 5.14052 11.3225C5.12723 11.3818 5.12588 11.443 5.13652 11.5028C5.13652 12.2349 5.13652 12.967 5.13652 13.7048C5.14985 13.8857 5.1077 14.0664 5.01569 14.2227C4.92368 14.3791 4.78619 14.5037 4.62153 14.5799C4.48084 14.6623 4.31619 14.6942 4.15488 14.6703C3.99357 14.6464 3.84528 14.5681 3.73459 14.4483C3.5536 14.2109 3.44262 13.9276 3.41415 13.6305C3.38456 13.1258 3.38074 12.6199 3.4027 12.1148Z" fill="#480C95"/>
<path d="M27.3129 27.7051C27.4706 27.7043 27.6253 27.7478 27.7595 27.8306C27.8936 27.9135 28.0017 28.0323 28.0715 28.1737C28.1414 28.315 28.17 28.4731 28.1542 28.6299C28.1385 28.7868 28.0789 28.936 27.9824 29.0606C27.5818 29.6726 27.1469 30.2617 26.6891 30.8337C25.546 32.2442 24.2443 33.5185 22.8095 34.6314C22.727 34.7263 22.625 34.8022 22.5103 34.8538C22.3957 34.9054 22.2712 34.9316 22.1455 34.9305C22.0198 34.9294 21.8957 34.9011 21.782 34.8475C21.6683 34.7939 21.5675 34.7163 21.4867 34.62C21.4059 34.5237 21.3469 34.4111 21.3138 34.2898C21.2808 34.1686 21.2744 34.0416 21.2951 33.9176C21.3159 33.7937 21.3633 33.6757 21.4341 33.5718C21.5049 33.4679 21.5973 33.3806 21.7051 33.3159C23.0194 32.2871 24.2185 31.1193 25.2815 29.8327C25.7049 29.3008 26.094 28.746 26.4946 28.197C26.5749 28.0497 26.6931 27.9265 26.8369 27.84C26.9808 27.7536 27.1451 27.707 27.3129 27.7051Z" fill="#480C95"/>
<path d="M20.0453 34.6211C20.2667 34.6208 20.4799 34.7055 20.6406 34.8577C20.8014 35.0099 20.8976 35.218 20.9093 35.439C20.9058 35.6739 20.8147 35.8991 20.6538 36.0705C20.493 36.2418 20.2739 36.3471 20.0396 36.3655C19.9262 36.3686 19.8133 36.349 19.7076 36.3079C19.6019 36.2668 19.5054 36.205 19.4239 36.1262C19.3423 36.0473 19.2774 35.953 19.2328 35.8488C19.1882 35.7445 19.1648 35.6324 19.1641 35.5191C19.1626 35.2834 19.2544 35.0567 19.4195 34.8885C19.5846 34.7202 19.8095 34.6241 20.0453 34.6211Z" fill="#480C95"/>
<path d="M12.3549 7.76267C12.3493 7.99102 12.2567 8.20863 12.0962 8.3712C11.9357 8.53378 11.7192 8.62909 11.4909 8.63775C11.2616 8.63628 11.0421 8.54499 10.8795 8.38351C10.7169 8.22202 10.6241 8.00322 10.6211 7.77411C10.6331 7.55394 10.7253 7.34578 10.8802 7.18882C11.0352 7.03185 11.2422 6.93692 11.4623 6.9219C11.6908 6.92012 11.9111 7.00656 12.0774 7.1632C12.2437 7.31983 12.3431 7.53458 12.3549 7.76267Z" fill="#480C95"/>
</svg>
