<svg width="44" height="39" viewBox="0 0 44 39" fill="none" xmlns="http://www.w3.org/2000/svg">
<path fill-rule="evenodd" clip-rule="evenodd" d="M0.495079 0.13624C-0.00480677 0.411068 3.93047e-06 0.361448 3.93047e-06 5.27101C3.93047e-06 10.199 -0.0032605 10.1656 0.508566 10.472C1.01636 10.7759 1.68298 10.5761 1.93151 10.0454C2.04173 9.80989 2.06174 9.17849 2.06174 5.92826V2.08929H5.45777C9.14347 2.08929 9.24347 2.07771 9.60702 1.60927C9.73493 1.44457 9.79326 1.24757 9.79326 0.98066C9.79326 0.654644 9.7461 0.544173 9.50118 0.295984L9.2091 1.38147e-06L4.96965 0.0034836C1.38738 0.00644343 0.693779 0.0269879 0.495079 0.13624ZM34.4826 0.295984C34.2377 0.544173 34.1905 0.654644 34.1905 0.98066C34.1905 1.24757 34.2488 1.44457 34.3767 1.60927C34.7403 2.07771 34.8403 2.08929 38.526 2.08929H41.922V5.92826C41.922 10.1362 41.9258 10.1699 42.4306 10.472C42.9384 10.7759 43.605 10.5761 43.8535 10.0454C44.0489 9.62821 44.0488 0.902224 43.8534 0.51945C43.586 -0.00461255 43.6288 1.38147e-06 38.9969 1.38147e-06H34.7747L34.4826 0.295984ZM20.1879 2.61439C17.0781 2.99847 14.1679 4.19102 11.7261 6.08174C10.9937 6.64889 9.60711 8.02564 8.99597 8.79241C4.88478 13.951 4.08852 21.0219 6.95202 26.9431C7.78796 28.6716 8.63113 29.8871 9.96276 31.2833C11.3729 32.7617 12.8348 33.8408 14.6469 34.7408C20.3635 37.5797 27.1438 36.878 32.2576 32.9183C32.9901 32.3511 34.3767 30.9744 34.9878 30.2076C39.099 25.049 39.8952 17.9781 37.0318 12.0569C36.1961 10.3289 35.3533 9.1139 34.021 7.71626C31.516 5.08846 28.5038 3.46325 24.8697 2.77875C23.7845 2.57435 21.2362 2.48486 20.1879 2.61439ZM21.0469 7.43916V10.2644L20.7248 10.3188C20.5476 10.3488 20.0934 10.4511 19.7154 10.5465C16.3059 11.4059 13.647 14.2928 13.0087 17.8283L12.8641 18.6295H10.0847H7.30526L7.35191 18.216C7.70464 15.085 8.66841 12.6207 10.4413 10.3158C10.9849 9.60923 12.1818 8.38692 12.8859 7.81941C14.9233 6.17732 17.7016 5.01551 20.3318 4.70577C20.6542 4.66781 20.9471 4.6316 20.9825 4.62524C21.0179 4.61898 21.0469 5.88526 21.0469 7.43916ZM24.9556 4.91818C26.506 5.23932 28.5105 6.05997 29.8589 6.92555C31.5589 8.01694 33.3112 9.79118 34.3914 11.5149C35.5007 13.285 36.3951 15.8347 36.5693 17.7234L36.6182 18.2537L33.9001 18.3156C32.4052 18.3497 31.1489 18.3567 31.1084 18.3313C31.0678 18.306 31.0087 18.0874 30.9771 17.8457C30.9037 17.2851 30.4879 15.9924 30.1881 15.3928C28.9098 12.8366 26.5803 11.0104 23.8818 10.4492L23.1516 10.2974L23.1289 7.48643L23.1063 4.67547L23.6873 4.72562C24.0069 4.75321 24.5776 4.83983 24.9556 4.91818ZM21.0622 13.7477C21.0886 14.9861 21.0997 15.0573 21.2995 15.2726C21.4148 15.3968 21.6526 15.542 21.828 15.5953C22.0959 15.6766 22.1998 15.666 22.4774 15.5285C23.0077 15.2661 23.1084 14.9589 23.1085 13.6021C23.1087 12.2679 23.0512 12.329 24.0231 12.6328C25.9224 13.2265 27.4436 14.53 28.3289 16.3225C28.6206 16.9132 28.9503 17.934 28.9503 18.2469V18.4554H27.7603C26.6637 18.4554 26.5474 18.4709 26.2784 18.6541C25.8629 18.9369 25.703 19.4297 25.8846 19.8681C25.9588 20.047 26.1467 20.2735 26.3035 20.3729C26.5614 20.5363 26.6975 20.5506 27.7691 20.5271L28.9503 20.5011V20.7314C28.9503 21.1044 28.6149 22.1053 28.2521 22.8158C27.6018 24.0889 26.5189 25.1849 25.2563 25.8476C24.5783 26.2034 23.5758 26.5513 23.2285 26.5513H23.0228V25.2921V24.0329L22.7644 23.7347C22.4407 23.361 22.0268 23.2641 21.6101 23.4644C21.0833 23.7178 21.0132 23.9217 20.9755 25.3108C20.9365 26.7506 20.995 26.6896 19.9606 26.3685C17.7107 25.6702 15.9031 23.8384 15.2139 21.5584C14.9145 20.5676 14.8412 20.6317 16.2725 20.6317C17.4783 20.6317 17.5187 20.6257 17.7743 20.4076C17.9188 20.2844 18.0815 20.0336 18.1357 19.8503C18.2194 19.5669 18.2101 19.4669 18.0728 19.1821C17.804 18.6242 17.51 18.5291 16.1503 18.5597L14.9906 18.5859L15.0204 18.2847C15.065 17.8354 15.3631 16.9132 15.6549 16.3225C16.3532 14.9086 17.4238 13.8159 18.8134 13.0988C19.4184 12.7865 20.4101 12.4575 20.7615 12.4526L21.0345 12.4487L21.0622 13.7477ZM20.984 16.6182C20.2057 16.9109 19.5585 17.5154 19.2188 18.2665C18.9543 18.8518 18.956 20.1518 19.2222 20.7413C19.4821 21.3169 20.091 21.9467 20.6794 22.2485C21.1245 22.4768 21.2601 22.5032 21.9919 22.5032C22.7198 22.5032 22.8605 22.4762 23.2939 22.2538C23.8946 21.9453 24.3966 21.4335 24.7137 20.8058C24.9289 20.3799 24.9556 20.2356 24.9555 19.5C24.9555 18.7587 24.9294 18.6209 24.7042 18.17C24.4041 17.5692 23.7797 16.9519 23.2168 16.6996C22.6244 16.4341 21.5752 16.3958 20.984 16.6182ZM22.6448 18.8384C22.8842 19.081 22.9368 19.2003 22.9368 19.5C22.9368 19.7997 22.8842 19.919 22.6448 20.1616C22.4053 20.4042 22.2877 20.4576 21.9919 20.4576C21.6961 20.4576 21.5784 20.4042 21.339 20.1616C21.0996 19.919 21.0469 19.7997 21.0469 19.5C21.0469 19.2003 21.0996 19.081 21.339 18.8384C21.5784 18.5958 21.6961 18.5424 21.9919 18.5424C22.2877 18.5424 22.4053 18.5958 22.6448 18.8384ZM36.6319 20.784C36.2737 23.9628 35.2601 26.5059 33.4137 28.8583C32.8962 29.5174 31.558 30.8363 30.8831 31.3521C28.8057 32.9398 26.1507 34.0154 23.6408 34.2862C23.2957 34.3235 22.9935 34.3217 22.9695 34.2822C22.9454 34.2427 22.9534 32.9761 22.9873 31.4674C23.0477 28.7763 23.0522 28.7237 23.2291 28.6859C23.3282 28.6647 23.6413 28.6023 23.9248 28.5472C26.6542 28.0161 29.2989 25.8056 30.3938 23.1403C30.6448 22.5292 30.9372 21.4832 31.0515 20.7867L31.1047 20.4629L32.1537 20.4356C32.7305 20.4205 33.9847 20.3997 34.9405 20.3893L36.6785 20.3705L36.6319 20.784ZM13.0087 21.1758C13.0936 21.832 13.527 23.0941 13.9281 23.8527C14.6585 25.2341 15.6847 26.3612 17.0232 27.2521C18.1052 27.9723 19.0627 28.3424 20.7248 28.6827L20.961 28.731V30.3261C20.961 31.2034 20.9354 32.4613 20.9042 33.1215L20.8474 34.322L20.2814 34.2731C18.4819 34.1177 16.2145 33.3305 14.3892 32.2275C12.5903 31.1405 10.7217 29.2934 9.59147 27.4851C8.47659 25.7012 7.58858 23.1646 7.41324 21.2628L7.36307 20.7188H10.1564H12.9496L13.0087 21.1758ZM0.494478 28.5322C-0.00231552 28.8443 3.93047e-06 28.8203 3.93047e-06 33.729C3.93047e-06 38.6614 -0.00652493 38.5959 0.512604 38.8679C0.727884 38.9808 1.38085 39 4.98683 39H9.2091L9.50118 38.704C9.7461 38.4558 9.79326 38.3454 9.79326 38.0193C9.79326 37.7524 9.73493 37.5554 9.60702 37.3907C9.24347 36.9223 9.14347 36.9107 5.45777 36.9107H2.06174V33.0717C2.06174 28.8638 2.05796 28.8301 1.55318 28.528C1.23868 28.3398 0.797983 28.3415 0.494478 28.5322ZM42.4165 28.5322C41.9265 28.8401 41.922 28.8813 41.922 33.0717V36.9107H38.526C34.8403 36.9107 34.7403 36.9223 34.3767 37.3907C34.2488 37.5554 34.1905 37.7524 34.1905 38.0193C34.1905 38.3454 34.2377 38.4558 34.4826 38.704L34.7747 39H38.9969C43.6288 39 43.586 39.0046 43.8534 38.4806C44.0488 38.0978 44.0489 29.3718 43.8535 28.9546C43.6049 28.4237 42.9129 28.2203 42.4165 28.5322Z" fill="#0693E3"/>
</svg>
