<svg width="18" height="18" viewBox="0 0 18 18" fill="none" xmlns="http://www.w3.org/2000/svg">
<path d="M1.60577 4.73094L9 0.46188L16.3942 4.73094V13.2691L9 17.5381L1.60577 13.2691V4.73094Z" stroke="#410EAD" stroke-width="0.8"/>
<path fill-rule="evenodd" clip-rule="evenodd" d="M8.7017 5.01109C8.04018 5.12744 7.49278 5.61565 7.31415 6.24866C7.25562 6.45607 7.25137 6.84614 7.30542 7.05126C7.41393 7.46309 7.66863 7.82435 8.01047 8.05131C8.14755 8.14234 8.40609 8.25525 8.57926 8.29972C8.80098 8.35668 9.19902 8.35668 9.42074 8.29972C9.59391 8.25525 9.85245 8.14234 9.98953 8.05131C10.3314 7.82435 10.5861 7.46309 10.6946 7.05126C10.7486 6.84614 10.7444 6.45607 10.6859 6.24866C10.5236 5.67369 10.0933 5.24596 9.48924 5.05914C9.34953 5.01593 9.28059 5.00665 9.05871 5.00123C8.9134 4.99767 8.75276 5.0021 8.7017 5.01109ZM9.27196 5.58838C9.46888 5.6332 9.65642 5.73761 9.81387 5.89015C10.3673 6.42631 10.2179 7.32475 9.5201 7.65662C9.16399 7.826 8.83601 7.826 8.4799 7.65662C7.91043 7.38577 7.68679 6.72016 7.9771 6.16014C8.11409 5.89591 8.42262 5.65852 8.71908 5.58927C8.87149 5.55367 9.11757 5.55328 9.27196 5.58838ZM5.64384 6.587C5.39 6.64801 5.18393 6.76801 4.99155 6.96681C4.47804 7.4974 4.55305 8.36304 5.15037 8.79985C5.28961 8.90166 5.49693 8.99897 5.65362 9.03603C5.79121 9.06856 6.10162 9.06879 6.2407 9.03646C6.3929 9.00107 6.64168 8.88132 6.77456 8.77948C6.97364 8.62692 7.15865 8.34065 7.22022 8.08993C7.25573 7.94527 7.25186 7.65309 7.21245 7.5045C7.09503 7.06182 6.70947 6.69192 6.25855 6.58936C6.1083 6.55518 5.78139 6.55393 5.64384 6.587ZM11.7326 6.58913C11.2845 6.69798 10.9036 7.06688 10.7876 7.5045C10.7481 7.65309 10.7443 7.94527 10.7798 8.08993C10.8414 8.34065 11.0264 8.62692 11.2254 8.77948C11.3583 8.88132 11.6071 9.00107 11.7593 9.03646C11.8984 9.06879 12.2088 9.06856 12.3464 9.03603C12.5031 8.99897 12.7104 8.90166 12.8496 8.79985C13.3358 8.44434 13.4889 7.7856 13.2123 7.24011C13.1568 7.13079 13.1001 7.05963 12.9636 6.92823C12.7846 6.75594 12.6736 6.6885 12.4344 6.60685C12.3001 6.56097 11.8911 6.55064 11.7326 6.58913ZM6.15068 7.14918C6.3474 7.19994 6.55845 7.39567 6.6254 7.58937C6.67178 7.72364 6.66599 7.92157 6.61159 8.06068C6.55002 8.21808 6.37223 8.39058 6.21135 8.44899C5.95546 8.5419 5.66892 8.49073 5.47188 8.31695C5.08282 7.97381 5.19611 7.36745 5.68556 7.17326C5.81558 7.12169 6.00595 7.11181 6.15068 7.14918ZM12.2986 7.16659C12.7972 7.34662 12.9216 7.96994 12.5281 8.31695C12.3311 8.49073 12.0445 8.5419 11.7886 8.44899C11.6278 8.39058 11.45 8.21808 11.3884 8.06068C11.334 7.92157 11.3282 7.72364 11.3746 7.58937C11.4389 7.40324 11.6519 7.20064 11.8357 7.15069C11.964 7.11583 12.1783 7.1232 12.2986 7.16659ZM7.79436 8.54119C7.41875 8.63032 7.06374 8.87998 6.88342 9.18176C6.84505 9.24601 6.81386 9.27856 6.79673 9.27222C6.69632 9.23504 6.3798 9.22053 5.82597 9.22773C5.26282 9.23505 5.20145 9.2391 5.06654 9.27787C4.81117 9.35123 4.62742 9.45803 4.42975 9.64793C4.23434 9.83565 4.12951 10.0033 4.04585 10.2617C4.00033 10.4023 4 10.4101 4 11.3476C4 12.3861 4.00068 12.3932 4.12008 12.5866C4.23294 12.7695 4.42141 12.91 4.63468 12.9701C4.73025 12.997 5.16988 13 9 13C12.8301 13 13.2697 12.997 13.3653 12.9701C13.5786 12.91 13.7671 12.7695 13.8799 12.5866C13.9993 12.3932 14 12.3861 14 11.3476C14 10.4101 13.9997 10.4023 13.9541 10.2617C13.8705 10.0033 13.7657 9.83565 13.5703 9.64793C13.3726 9.45803 13.1888 9.35123 12.9335 9.27787C12.7986 9.2391 12.7372 9.23505 12.174 9.22773C11.6202 9.22053 11.3037 9.23504 11.2033 9.27222C11.1861 9.27856 11.155 9.24601 11.1166 9.18176C10.9817 8.95599 10.7517 8.759 10.482 8.63818C10.1895 8.50717 10.1674 8.50523 8.98636 8.5068C8.05333 8.50802 7.91763 8.51193 7.79436 8.54119ZM10.0972 9.10239C10.2632 9.1499 10.3708 9.21041 10.4845 9.32011C10.5982 9.42983 10.6609 9.53366 10.7101 9.69386C10.7378 9.78391 10.7417 9.9574 10.7417 11.1149V12.4335H9H7.25832V11.1149C7.25832 9.68729 7.25646 9.71496 7.36601 9.5063C7.42098 9.40156 7.59356 9.2323 7.69863 9.18006C7.9118 9.07408 7.912 9.07406 8.99155 9.07296C9.85571 9.07208 10.0053 9.07606 10.0972 9.10239ZM6.64677 9.81429C6.66595 9.82626 6.67123 10.1107 6.67123 11.1315V12.4335H5.72501H4.77879L4.71229 12.3906C4.57644 12.303 4.57736 12.3098 4.57734 11.4021C4.57732 10.9271 4.58562 10.5456 4.59728 10.4863C4.6637 10.1483 4.95595 9.86775 5.30137 9.81044C5.43023 9.78906 6.61178 9.79244 6.64677 9.81429ZM12.6791 9.80944C13.0418 9.86526 13.3345 10.139 13.4027 10.4863C13.4144 10.5456 13.4227 10.9271 13.4227 11.4021C13.4226 12.3098 13.4236 12.303 13.2877 12.3906L13.2212 12.4335H12.2749H11.3285L11.3335 11.1257L11.3386 9.8179L11.407 9.80623C11.5243 9.78623 12.545 9.78882 12.6791 9.80944Z" fill="#410EAD"/>
</svg>
