<svg width="40" height="40" viewBox="0 0 40 40" fill="none" xmlns="http://www.w3.org/2000/svg">
<path fill-rule="evenodd" clip-rule="evenodd" d="M2.70057 0.112392C2.04292 0.277621 1.55062 0.559773 1.05473 1.05577C0.543998 1.56668 0.235247 2.12925 0.093017 2.80829C-0.0319518 3.40482 -0.0305459 36.6009 0.094501 37.1874C0.381695 38.5346 1.46018 39.6175 2.80203 39.9058C3.38235 40.0305 21.5362 40.0318 22.1255 39.9072C23.1231 39.6963 24.0102 39.0262 24.4728 38.1342C24.8279 37.4492 24.9216 36.9777 24.9216 35.8739V34.9759H30.8538C34.9201 34.9759 36.9161 34.9484 37.1999 34.8884C38.5253 34.6081 39.6322 33.497 39.9093 32.1686C40.0314 31.5829 40.0297 20.948 39.9074 20.3742C39.6195 19.0235 38.5377 17.9368 37.1999 17.6543C36.9164 17.5944 34.9155 17.5669 30.8538 17.5669H24.9216V10.3953C24.9216 5.34562 24.8953 3.10095 24.833 2.80829C24.5451 1.45759 23.4634 0.370861 22.1255 0.0883954C21.4999 -0.0437409 3.23216 -0.0211562 2.70057 0.112392ZM21.9556 2.51139C22.1541 2.61302 22.32 2.77958 22.4212 2.97885C22.5773 3.28617 22.5784 3.40584 22.5784 19.9978C22.5784 36.5899 22.5773 36.7095 22.4212 37.0168C22.32 37.2161 22.1541 37.3827 21.9556 37.4843C21.6519 37.6399 21.5137 37.6422 12.458 37.6422H3.26855L2.95699 37.4663C2.77415 37.3631 2.58419 37.1701 2.49726 36.999C2.35316 36.7153 2.34917 36.2527 2.35238 19.9814C2.3555 4.02574 2.36214 3.24312 2.49632 2.9903C2.57365 2.84452 2.7743 2.6418 2.94215 2.53978L3.24731 2.35432L12.4474 2.35392C21.5142 2.35353 21.6519 2.35581 21.9556 2.51139ZM5.68896 5.18148C5.51049 5.27614 5.33585 5.4565 5.23986 5.64541C5.08708 5.94607 5.08279 6.0997 5.08279 11.2149C5.08279 16.3322 5.08708 16.4836 5.24001 16.7847C5.34124 16.984 5.50713 17.1505 5.7056 17.2522C6.00717 17.4066 6.15354 17.41 12.5028 17.41C18.8521 17.41 18.9985 17.4066 19.3 17.2522C19.4985 17.1505 19.6644 16.984 19.7656 16.7847C19.9185 16.4836 19.9228 16.3322 19.9228 11.2149C19.9228 6.09758 19.9185 5.94615 19.7656 5.6451C19.6644 5.44584 19.4985 5.27927 19.3 5.17764C18.9982 5.02308 18.8557 5.01986 12.4864 5.02323C6.16377 5.02661 5.9728 5.03108 5.68896 5.18148ZM17.5797 11.2149V15.0574H12.5028H7.42595V11.2149V7.37236H12.5028H17.5797V11.2149ZM37.03 20.0773C37.521 20.3289 37.6528 20.6764 37.6528 21.7199V22.5857H31.2872H24.9216V21.2526V19.9194H30.8217C36.5808 19.9194 36.7291 19.9232 37.03 20.0773ZM6.93865 21.4927C6.60889 21.6675 6.33248 22.1301 6.33248 22.5073C6.33248 23.1039 6.90975 23.6835 7.50406 23.6835C7.89162 23.6835 8.34158 23.4062 8.51841 23.0582C8.7218 22.6578 8.71571 22.3074 8.49865 21.9273C8.17787 21.3656 7.5228 21.1831 6.93865 21.4927ZM11.9251 21.5087C11.3649 21.8312 11.1866 22.464 11.4885 23.0582C11.6653 23.4062 12.1153 23.6835 12.5028 23.6835C13.0971 23.6835 13.6744 23.1039 13.6744 22.5073C13.6744 22.1181 13.3981 21.6664 13.0516 21.4888C12.6528 21.2846 12.3038 21.2907 11.9251 21.5087ZM16.9362 21.4927C16.6064 21.6675 16.33 22.1301 16.33 22.5073C16.33 22.8964 16.6062 23.3481 16.9528 23.5257C17.1223 23.6125 17.3693 23.6835 17.5016 23.6835C17.8891 23.6835 18.3391 23.4062 18.5159 23.0582C18.7193 22.6578 18.7132 22.3074 18.4962 21.9273C18.1754 21.3656 17.5203 21.1831 16.9362 21.4927ZM37.6528 28.3134C37.6528 31.5413 37.6459 31.7021 37.4956 31.998C37.3943 32.1973 37.2284 32.3638 37.03 32.4655C36.7291 32.6196 36.5808 32.6233 30.8217 32.6233H24.9216V28.7808V24.9383H31.2872H37.6528V28.3134ZM6.93865 26.5115C6.60889 26.6863 6.33248 27.149 6.33248 27.5261C6.33248 28.1228 6.90975 28.7024 7.50406 28.7024C7.89162 28.7024 8.34158 28.425 8.51841 28.0771C8.7218 27.6766 8.71571 27.3263 8.49865 26.9461C8.17787 26.3844 7.5228 26.2019 6.93865 26.5115ZM11.9251 26.5275C11.3649 26.85 11.1866 27.4829 11.4885 28.0771C11.6653 28.425 12.1153 28.7024 12.5028 28.7024C13.0971 28.7024 13.6744 28.1228 13.6744 27.5261C13.6744 27.137 13.3981 26.6852 13.0516 26.5077C12.6528 26.3035 12.3038 26.3096 11.9251 26.5275ZM16.9362 26.5115C16.6064 26.6863 16.33 27.149 16.33 27.5261C16.33 27.9152 16.6062 28.367 16.9528 28.5445C17.1223 28.6313 17.3693 28.7024 17.5016 28.7024C18.0959 28.7024 18.6731 28.1228 18.6731 27.5261C18.6731 27.137 18.3969 26.6852 18.0503 26.5077C17.6655 26.3106 17.313 26.3118 16.9362 26.5115ZM6.93865 31.5303C6.60889 31.7051 6.33248 32.1678 6.33248 32.5449C6.33248 33.1416 6.90975 33.7212 7.50406 33.7212C7.89162 33.7212 8.34158 33.4438 8.51841 33.0959C8.7218 32.6955 8.71571 32.3451 8.49865 31.9649C8.17787 31.4032 7.5228 31.2207 6.93865 31.5303ZM11.9548 31.514C11.6304 31.6874 11.3343 32.17 11.3325 32.5284C11.3295 33.1392 11.9005 33.7212 12.5028 33.7212C13.0971 33.7212 13.6744 33.1416 13.6744 32.5449C13.6744 31.6903 12.7086 31.1113 11.9548 31.514ZM16.9362 31.5303C16.6064 31.7051 16.33 32.1678 16.33 32.5449C16.33 32.6778 16.4007 32.9257 16.4872 33.0959C16.664 33.4438 17.114 33.7212 17.5016 33.7212C18.0959 33.7212 18.6731 33.1416 18.6731 32.5449C18.6731 32.1558 18.3969 31.704 18.0503 31.5265C17.6655 31.3294 17.313 31.3306 16.9362 31.5303Z" fill="#EC7A11"/>
</svg>
