<svg width="41" height="40" viewBox="0 0 41 40" fill="none" xmlns="http://www.w3.org/2000/svg">
<path fill-rule="evenodd" clip-rule="evenodd" d="M16.3588 2.36977L12.2557 4.73451L12.2544 8.82004L12.2531 12.9056H12.8538H13.4544V9.1708V5.43595L16.9459 3.43113C18.8663 2.3284 20.479 1.42687 20.5298 1.42767C20.5805 1.42847 22.1718 2.32043 24.0658 3.40985L27.5095 5.39067L27.5495 9.12815L27.5896 12.8657H28.1902H28.7908V8.80418V4.74265L24.6664 2.36881C22.398 1.0632 20.524 -0.00270524 20.502 5.15762e-06C20.4799 0.00279527 18.6155 1.06918 16.3588 2.36977ZM20.0615 2.5536C19.8413 2.69008 19.6508 2.81037 19.6382 2.82097C19.6257 2.83158 19.748 3.06196 19.9103 3.333C20.1288 3.69834 20.2384 3.81298 20.3335 3.77599C20.4042 3.74865 20.4807 3.71995 20.5038 3.71222C20.5268 3.70448 21.2933 4.12499 22.2071 4.64667C23.1209 5.16826 23.8796 5.5808 23.893 5.56342C24.0854 5.31382 24.4274 4.65432 24.4001 4.58576C24.3677 4.50485 20.8565 2.44917 20.5764 2.34713C20.5134 2.32417 20.2817 2.41712 20.0615 2.5536ZM18.3261 3.55071L17.8721 3.82797L18.1613 4.3211C18.3203 4.5923 18.4571 4.82468 18.4651 4.83751C18.4951 4.88502 19.4608 4.28578 19.4608 4.2197C19.4608 4.08338 18.9446 3.2599 18.8633 3.26651C18.8176 3.27026 18.5758 3.39813 18.3261 3.55071ZM16.7161 4.48835C16.4647 4.63024 16.2375 4.7676 16.2114 4.79366C16.1527 4.8521 16.6725 5.80847 16.7637 5.80975C16.8306 5.8107 17.4975 5.44607 17.6773 5.31024C17.7525 5.2534 17.7254 5.14817 17.5626 4.86557C17.1607 4.16812 17.2295 4.19873 16.7161 4.48835ZM14.4465 6.02068C14.2805 6.31611 14.1785 6.56985 14.22 6.58436C14.2614 6.59895 15.5567 7.33722 17.0983 8.22495L19.9013 9.83907L19.9222 13.166L19.9431 16.4929H20.5429H21.1426L21.1431 13.1647L21.1437 9.83644L21.3634 9.71065C23.5558 8.45589 26.7965 6.58596 26.8217 6.56124C26.8658 6.51796 26.7211 6.20929 26.4744 5.82027L26.2731 5.50283L23.4876 7.10436C21.9556 7.98516 20.6453 8.72064 20.5758 8.73873C20.5062 8.75691 20.0197 8.52341 19.4946 8.21985C18.9695 7.91636 17.8191 7.25439 16.9381 6.74882C16.0572 6.24325 15.2041 5.75171 15.0424 5.65653L14.7484 5.48346L14.4465 6.02068ZM24.384 11.6866C24.1209 11.8401 23.8918 11.9788 23.8749 11.9946C23.858 12.0105 24.1206 12.5074 24.4584 13.0989L25.0727 14.1744L24.834 14.5025C24.5005 14.9607 24.3701 15.5866 24.4898 16.1546C24.6056 16.704 25.3482 18.0249 25.7619 18.4172C26.2195 18.8512 26.5495 18.9864 27.252 19.0278C27.7539 19.0575 27.8968 19.0951 27.9853 19.2207C28.0822 19.3586 28.0692 19.4157 27.8741 19.7086C27.5783 20.1528 27.4694 20.4992 27.4694 20.9969C27.4694 21.5223 27.5639 21.7875 28.0512 22.6294C28.6031 23.5831 28.7534 23.7594 29.2417 24.0257C29.5967 24.2193 29.7765 24.263 30.2724 24.2759L30.8731 24.2916L31.4523 25.275C31.7708 25.8158 32.0456 26.2941 32.0629 26.338C32.0896 26.4053 33.1555 25.9202 33.1555 25.8408C33.1555 25.8258 32.8821 25.34 32.548 24.7612C31.9531 23.7307 31.9433 23.7047 32.0723 23.5088C32.602 22.7046 32.6936 21.8527 32.3283 21.1287C31.4078 19.3044 30.8021 18.7797 29.6295 18.7907C29.1342 18.7953 29.0858 18.7805 29.0027 18.599C28.9251 18.4296 28.9448 18.3583 29.1444 18.0839C29.2719 17.9087 29.4197 17.5852 29.4728 17.3649C29.6341 16.6955 29.5249 16.2287 28.9825 15.2681C28.2238 13.9247 27.8117 13.6121 26.7272 13.5576L26.1051 13.5263L25.7747 12.9568C25.5931 12.6436 25.3135 12.1669 25.1535 11.8974L24.8626 11.4074L24.384 11.6866ZM15.5252 12.5067L14.936 13.5428L14.3711 13.5431C13.9304 13.5432 13.7184 13.5868 13.407 13.7413C12.8569 14.0142 12.584 14.3244 12.0402 15.2946L11.5724 16.1293V16.8562C11.5724 17.5411 11.5878 17.6078 11.8387 18.0096C12.059 18.3623 12.0907 18.4672 12.0223 18.6165C11.9478 18.7793 11.8847 18.7969 11.3798 18.7953C10.7583 18.7934 10.3074 18.9498 9.86745 19.3199C9.56617 19.5734 8.78029 20.8596 8.59377 21.4043C8.36688 22.0672 8.54075 22.9952 8.98194 23.4764C9.13491 23.6433 9.13258 23.6494 8.5321 24.678C8.20014 25.2467 7.92849 25.7508 7.92849 25.7981C7.92849 25.8833 8.73952 26.3778 8.87911 26.3778C8.91875 26.3778 9.22268 25.9026 9.55448 25.3216L10.1578 24.2653L10.559 24.2926C11.1154 24.3303 11.7518 24.1275 12.1553 23.7837C12.5747 23.4263 13.4145 21.9707 13.5352 21.3921C13.6583 20.8017 13.4583 20.0205 13.0717 19.5816C12.9729 19.4694 12.9665 19.4023 13.0396 19.2428C13.1238 19.0588 13.172 19.0438 13.6802 19.0438C14.1328 19.0438 14.3161 19.0009 14.7198 18.8001C15.3096 18.5067 15.4753 18.32 16.0634 17.2861C16.4495 16.6073 16.5225 16.4137 16.5579 15.9746C16.6076 15.3587 16.4819 14.8534 16.1784 14.4482L15.9597 14.1563L16.5491 13.1355C16.8732 12.574 17.1384 12.08 17.1384 12.0377C17.1384 11.9553 16.333 11.4707 16.1962 11.4707C16.1512 11.4707 15.8493 11.9368 15.5252 12.5067ZM14.0815 15.0232C13.8913 15.3441 13.8884 15.3397 14.5035 15.6827L14.9519 15.9328L15.1023 15.6548C15.3005 15.2885 15.3765 15.304 15.3765 15.7105C15.3765 16.1469 14.6267 17.4997 14.2692 17.7086C13.8938 17.9278 13.8184 17.8828 14.0125 17.5553C14.1502 17.3231 14.1642 17.2495 14.0805 17.1993C14.0225 17.1646 13.7888 17.0282 13.5612 16.8964L13.1474 16.6566L12.9605 16.9534L12.7737 17.2502L12.7496 16.8781C12.7285 16.5534 12.7789 16.4124 13.1448 15.7718C13.4101 15.3073 13.6543 14.9829 13.8096 14.8887C14.1894 14.6581 14.2733 14.6995 14.0815 15.0232ZM27.3041 14.9463C27.6005 15.1946 28.3478 16.5302 28.3479 16.8117C28.3479 16.9213 28.3161 17.0611 28.2772 17.1223C28.2226 17.2081 28.1765 17.1761 28.0761 16.9828C28.0045 16.8449 27.9061 16.732 27.8575 16.732C27.699 16.732 26.9087 17.2196 26.9114 17.3158C26.9128 17.3674 26.9668 17.4793 27.0315 17.5644C27.1988 17.7845 27.1772 17.8673 26.9689 17.8044C26.6629 17.7121 26.4295 17.4378 26.022 16.6922C25.6494 16.0103 25.527 15.5277 25.6997 15.4215C25.7394 15.3971 25.8457 15.5015 25.9358 15.6535L26.0997 15.93L26.6205 15.6335L27.1414 15.3371L26.9851 15.0734C26.8991 14.9283 26.8287 14.7938 26.8287 14.7744C26.8287 14.6712 27.0875 14.7648 27.3041 14.9463ZM17.4983 16.5842C17.3396 16.8537 17.2388 17.1002 17.2742 17.132C17.4129 17.2568 20.4389 18.9641 20.5213 18.9641C20.6228 18.9641 23.5302 17.3162 23.6964 17.1645C23.7904 17.0788 23.7671 16.9909 23.5464 16.5986C23.4028 16.3432 23.2737 16.1213 23.2597 16.1056C23.2457 16.0899 22.6477 16.4127 21.9307 16.8231C21.2138 17.2334 20.6007 17.5805 20.5684 17.5943C20.5361 17.6083 19.913 17.2764 19.1837 16.8569C18.4544 16.4375 17.8418 16.0943 17.8222 16.0943C17.8027 16.0943 17.6569 16.3148 17.4983 16.5842ZM11.0565 20.2895C10.9622 20.4485 10.8957 20.5866 10.9084 20.5964C10.9212 20.6063 11.1548 20.7428 11.4274 20.9L11.9233 21.1856L12.0982 20.892C12.2697 20.6043 12.2747 20.6021 12.3431 20.7843C12.4437 21.0518 12.3596 21.305 11.9055 22.1032C11.6525 22.5477 11.4114 22.8662 11.2573 22.9598C10.8774 23.1904 10.7936 23.149 10.9854 22.8253C11.1769 22.5022 11.1758 22.5005 10.5641 22.1612L10.1164 21.9129L9.96796 22.1874C9.78913 22.518 9.69038 22.4844 9.69038 22.0931C9.69038 21.6987 10.4409 20.3476 10.7715 20.1469C11.1609 19.9105 11.2537 19.9569 11.0565 20.2895ZM30.295 20.1604C30.5165 20.3339 31.2112 21.4786 31.3163 21.8434C31.3519 21.9671 31.3549 22.1656 31.3229 22.2847L31.2648 22.5011L31.0813 22.2056L30.8978 21.9101L30.6452 22.0602C30.5063 22.1428 30.278 22.2754 30.1378 22.355L29.8831 22.4996L30.0429 22.8115L30.2028 23.1235L30.0174 23.0674C29.7154 22.9761 29.4863 22.7155 29.0669 21.986C28.7677 21.4656 28.6707 21.2162 28.6707 20.9675C28.6707 20.5659 28.7576 20.5494 28.9548 20.9138L29.1038 21.1893L29.548 20.9417C30.1456 20.6084 30.1437 20.611 29.9989 20.3325C29.9291 20.1981 29.872 20.0684 29.872 20.0443C29.872 19.9466 30.103 20.0101 30.295 20.1604ZM3.5438 23.6529L0 25.6977V30.4537V35.2097L4.11176 37.5698C6.37331 38.8678 8.24956 39.9298 8.28135 39.9298C8.39203 39.9298 15.857 35.6086 15.857 35.5446C15.857 35.4346 15.3464 34.5888 15.28 34.5888C15.2455 34.5888 13.7305 35.4441 11.9132 36.4893C10.096 37.5347 8.53154 38.4309 8.43664 38.481C8.28367 38.5618 7.86531 38.3427 4.75269 36.5524L1.24133 34.5326L1.22059 30.4639L1.19985 26.3953L4.48488 24.5064L7.76984 22.6175L7.49235 22.1272C7.3397 21.8576 7.18618 21.6305 7.15118 21.6226C7.11618 21.6147 5.49292 22.5284 3.5438 23.6529ZM33.5623 22.165C33.3219 22.6004 33.3056 22.6658 33.418 22.7475C33.4876 22.7982 34.9518 23.6447 36.672 24.6287L39.7996 26.4177L39.8011 30.4864L39.8026 34.5551L36.3476 36.545C34.4473 37.6394 32.8431 38.5465 32.7826 38.5608C32.7223 38.575 31.1359 37.7037 29.2576 36.6244C27.3792 35.545 25.8173 34.6903 25.7869 34.725C25.7565 34.7597 25.6173 34.9911 25.4776 35.2392L25.2236 35.6903L26.1263 36.2108C26.6228 36.497 28.3083 37.4667 29.872 38.3656L32.715 40L33.2479 39.7058C33.541 39.5441 35.4052 38.479 37.3905 37.339L41 35.2664L40.982 30.488L40.9639 25.7096L37.4474 23.6921C35.5134 22.5824 33.909 21.6745 33.8821 21.6745C33.8551 21.6745 33.7113 21.8952 33.5623 22.165ZM13.0232 24.3552C12.8571 24.6425 12.7331 24.8869 12.7475 24.8983C12.7619 24.9098 13.3594 25.2524 14.0751 25.6598L15.3765 26.4006V27.7444V29.0882H15.9771H16.5778V27.4153V25.7423L16.2774 25.551C16.1123 25.4457 15.4906 25.0818 14.896 24.7422C14.3013 24.4026 13.7046 24.059 13.5699 23.9787L13.3249 23.8328L13.0232 24.3552ZM26.0063 24.8397L24.4229 25.7576L24.4446 27.3632L24.4662 28.9687L25.0448 28.992L25.6234 29.0155L25.6455 27.726L25.6675 26.4367L26.9471 25.695C27.651 25.287 28.2392 24.9161 28.2544 24.8707C28.2923 24.7576 27.7722 23.9048 27.6709 23.9142C27.6262 23.9183 26.877 24.3348 26.0063 24.8397ZM2.20861 26.9556C1.95818 27.3958 1.93968 27.465 2.05036 27.5474C2.11923 27.5987 3.41574 28.3521 4.93152 29.2215L7.68744 30.8022L7.68784 34.1339L7.68824 37.4656L8.26886 37.4422L8.84948 37.4187L8.87038 34.1071L8.89128 30.7955L11.7684 29.1405L14.6457 27.4854L14.3584 26.9914C14.2004 26.7197 14.0631 26.4871 14.0535 26.4746C14.0438 26.462 12.7487 27.1911 11.1755 28.0947C9.60229 28.9984 8.26453 29.7185 8.20279 29.6949C8.14104 29.6713 6.9098 28.9742 5.46674 28.1458C4.02375 27.3175 2.76408 26.5987 2.66766 26.5484C2.50516 26.4638 2.47137 26.4938 2.20861 26.9556ZM26.6417 27.0355L26.36 27.5338L26.8146 27.7905C27.0647 27.9318 28.3504 28.6689 29.6718 29.4288L32.0744 30.8102L32.0953 34.1345L32.1162 37.4586H32.7159H33.3157V34.1577V30.8568L34.4169 30.2196C35.0226 29.8692 36.3109 29.1269 37.2799 28.5701C38.249 28.0132 39.0547 27.5454 39.0705 27.5304C39.0863 27.5155 38.9651 27.2836 38.8013 27.0151C38.6017 26.688 38.4657 26.5414 38.389 26.5707C38.3262 26.5948 37.0465 27.3205 35.5454 28.1835C34.0442 29.0465 32.7753 29.752 32.7255 29.7513C32.6757 29.7505 31.3771 29.0271 29.8398 28.1436C28.3026 27.2602 27.0174 26.5373 26.9841 26.5373C26.9507 26.5373 26.7967 26.7615 26.6417 27.0355ZM2.00214 29.447V30.0449H2.60279H3.20343V29.447V28.8491H2.60279H2.00214V29.447ZM37.8005 29.6861V30.284H38.4011H39.0018V29.6861V29.0882H38.4011H37.8005V29.6861ZM17.1784 29.9594C16.2655 30.0167 15.903 30.1546 15.4546 30.6144C15.2955 30.7775 15.0993 31.057 15.0185 31.2353L14.8716 31.5595H13.6024H12.3332V32.1574V32.7553L13.5946 32.7554L14.8559 32.7557L15.0869 33.1957C15.3318 33.6622 15.7253 34.0248 16.2303 34.2494C16.474 34.3577 16.7704 34.3857 17.6589 34.3844C18.6564 34.3831 18.8263 34.3624 19.1987 34.1978C19.6799 33.985 20.1946 33.4695 20.3483 33.0464C20.4392 32.7962 20.4891 32.7553 20.7035 32.7553C20.9112 32.7553 20.9759 32.8035 21.0912 33.0439C21.3398 33.5631 21.6305 33.8625 22.1241 34.1081C22.5937 34.3416 22.646 34.3496 23.704 34.3496C25.0497 34.3496 25.42 34.2448 25.9547 33.7126C26.1599 33.5084 26.3755 33.2095 26.4342 33.0483L26.5406 32.7553H27.8059H29.0711V32.1574V31.5595H27.8312H26.5912L26.3959 31.1758C26.1725 30.737 25.6898 30.2715 25.2488 30.0696C25.0073 29.959 24.7137 29.9306 23.7855 29.9282C22.6717 29.9254 22.6055 29.9345 22.1658 30.1494C21.6626 30.3954 21.1965 30.8763 21.0587 31.292C20.9852 31.5139 20.9303 31.5595 20.7373 31.5595C20.5404 31.5595 20.4748 31.5013 20.3102 31.1808C19.934 30.4481 19.274 30.0169 18.4197 29.9458C18.1775 29.9256 17.6189 29.9317 17.1784 29.9594ZM2.00214 31.4399V32.0378H2.60279H3.20343V31.4399V30.842H2.60279H2.00214V31.4399ZM24.7691 31.1884C24.9108 31.2474 25.0763 31.355 25.1367 31.4276C25.2363 31.5471 25.2118 31.5595 24.8764 31.5595H24.5063V32.153V32.7465L24.8867 32.7708L25.2671 32.7951L24.9868 32.9742C24.7355 33.1347 24.6053 33.1533 23.7299 33.1535C22.8054 33.1538 22.7413 33.1433 22.5286 32.9571L22.3039 32.7603L22.6443 32.7578L22.9846 32.7553V32.1574V31.5595H22.6643C22.4881 31.5595 22.3439 31.5278 22.3439 31.4889C22.3439 31.4016 22.6569 31.1926 22.8679 31.1393C23.2176 31.0509 24.5194 31.0845 24.7691 31.1884ZM37.8005 31.6791V32.277H38.4011H39.0018V31.6791V31.0812H38.4011H37.8005V31.6791ZM18.9558 31.3577L19.1805 31.5545L18.8001 31.5569L18.4197 31.5595V32.1574V32.7553H18.7979H19.1761L19.0102 32.9204C18.7993 33.1304 18.369 33.2293 17.6589 33.2313C16.989 33.2329 16.5734 33.1302 16.3771 32.9142C16.2349 32.7578 16.238 32.7553 16.5653 32.7553H16.8981V32.1574V31.5595L16.5577 31.5569L16.2174 31.5545L16.4421 31.3577C16.6562 31.1702 16.7156 31.1609 17.699 31.1609C18.6823 31.1609 18.7418 31.1702 18.9558 31.3577ZM2.00463 33.4528L2.00703 34.0706L4.20346 35.3201L6.3999 36.5697L6.69093 36.0515C6.8511 35.7665 6.96979 35.5228 6.95473 35.51C6.93975 35.4971 6.08948 35.0079 5.06543 34.4228C3.23074 33.3745 3.20343 33.3551 3.20343 33.0969V32.835H2.60279H2.00214L2.00463 33.4528ZM37.7861 33.249C37.7664 33.3837 37.3777 33.6443 36.0995 34.38L34.4385 35.336L34.6868 35.7795C34.8233 36.0234 34.9647 36.2546 35.0009 36.2934C35.0378 36.3327 35.9327 35.8646 37.0343 35.2296L39.0018 34.0956V33.5848V33.0741H38.4067C37.8552 33.0741 37.8098 33.087 37.7861 33.249Z" fill="#356ABA"/>
</svg>
