<svg width="48" height="40" viewBox="0 0 48 40" fill="none" xmlns="http://www.w3.org/2000/svg">
<path d="M47.9834 22.6695C47.819 23.5473 47.5971 24.4136 47.3192 25.2628C46.6825 27.033 45.5661 28.5951 44.0926 29.7773C42.619 30.9595 40.8453 31.7161 38.9664 31.9641H38.7339H38.5512L38.4101 30.6962C39.1657 30.5069 39.8963 30.3587 40.5938 30.12C42.446 29.4499 44.0276 28.1995 45.0986 26.5581C46.1697 24.9167 46.672 22.9739 46.5293 21.024C46.3866 19.0741 45.6068 17.2235 44.308 15.7526C43.0091 14.2817 41.2621 13.2707 39.3317 12.8728C38.9821 12.7947 38.6267 12.7451 38.2689 12.7246C37.9202 12.7246 37.7957 12.5929 37.7957 12.2224C37.8337 10.7354 37.5523 9.25736 36.9701 7.88644C36.3879 6.51551 35.5182 5.28306 34.4189 4.27088C33.3195 3.25871 32.0156 2.48998 30.5937 2.01572C29.1717 1.54146 27.6643 1.37252 26.1715 1.52011C21.7211 2.00583 18.7487 4.49206 17.1545 8.61657L16.9801 9.06936C15.5686 8.13085 14.0824 7.78508 12.5298 8.64126C11.8357 9.01834 11.274 9.59613 10.9195 10.2977C10.565 10.9992 10.4345 11.7912 10.5453 12.5682C9.8479 12.667 9.16705 12.7328 8.50281 12.8728C6.32149 13.3625 4.39969 14.6344 3.10681 16.4439C1.81393 18.2534 1.2412 20.4729 1.49869 22.6758C1.75619 24.8786 2.82575 26.9093 4.50179 28.3777C6.17783 29.846 8.34207 30.6483 10.5786 30.6304H13.634V32.0217H10.5453C9.26158 32.0229 7.98787 31.7971 6.78409 31.3549C4.6243 30.5494 2.79337 29.059 1.5759 27.1155C0.358428 25.1719 -0.177376 22.884 0.0517617 20.6073C0.280899 18.3307 1.26215 16.1929 2.84298 14.5262C4.42382 12.8595 6.51568 11.7573 8.79342 11.3909C8.90714 11.3896 9.0164 11.3469 9.10055 11.2711C9.1847 11.1952 9.2379 11.0914 9.25007 10.9793C9.41737 9.97303 9.88872 9.0408 10.6018 8.30583C11.3149 7.57085 12.2362 7.06775 13.2438 6.86303C13.9879 6.67797 14.7665 6.67797 15.5105 6.86303C15.7101 6.93295 15.9222 6.96099 16.1332 6.94536C16.8452 5.86205 17.6157 4.81773 18.4415 3.81699C19.6153 2.55523 21.0515 1.56127 22.6508 0.903853C24.2501 0.246433 25.9743 -0.0587731 27.7042 0.00933555C29.4341 0.0774442 31.1285 0.517244 32.6701 1.29833C34.2118 2.07941 35.564 3.18314 36.6333 4.53322C38.1188 6.37098 39.005 8.61358 39.174 10.9628C39.174 11.2839 39.3317 11.3745 39.614 11.4321C41.7671 11.8589 43.7293 12.9492 45.2203 14.5474C46.7114 16.1456 47.6552 18.1699 47.917 20.3315C47.9358 20.4352 47.9636 20.5371 48 20.6361L47.9834 22.6695Z" fill="#18BDB3"/>
<path d="M14.7892 39.5656V28.1389H10.4883L18.1768 18.7949L25.8488 28.1224H21.5146V39.5656H14.7892ZM20.0616 38.1826V26.7393H22.8514L18.1353 20.9765L13.4109 26.7393H16.2173V38.1743L20.0616 38.1826Z" fill="#18BDB3"/>
<path d="M26.5119 19.2207H33.1543V30.6475H37.5382L29.8414 39.9996L22.1777 30.6886H26.5285L26.5119 19.2207ZM29.8331 37.7933L34.5658 32.0306H31.7428V20.6285H27.9234V32.0799H25.1336L29.8331 37.7933Z" fill="#18BDB3"/>
<path d="M44.2156 20.9739L45.5274 20.834C46.2664 24.9503 42.6795 29.7004 37.7227 29.7004V28.3585C38.6475 28.3169 39.5541 28.0894 40.3876 27.6898C41.221 27.2902 41.9639 26.7269 42.5711 26.034C43.1783 25.3411 43.6371 24.5331 43.9198 23.659C44.2025 22.7849 44.3031 21.863 44.2156 20.9492V20.9739Z" fill="#18BDB3"/>
<path d="M42.5117 17.1783L43.5496 16.248L44.4629 17.4665L43.2673 18.1909L42.5117 17.1783Z" fill="#18BDB3"/>
<path d="M45.4414 19.8137L44.0797 20.1348L43.6562 18.9493L44.9349 18.373L45.4414 19.8137Z" fill="#18BDB3"/>
<path d="M17.7363 32.459H19.0814V36.5753H17.7363V32.459Z" fill="#18BDB3"/>
<path d="M17.7285 29.1559V27.8223H19.0819V29.1559H17.7285Z" fill="#18BDB3"/>
<path d="M17.7441 30.1289H19.0809V31.479H17.7441V30.1289Z" fill="#18BDB3"/>
<path d="M30.7801 30.458H29.4434V26.918H30.7801V30.458Z" fill="#18BDB3"/>
<path d="M29.4355 22.2422H30.7889V23.5759H29.4355V22.2422Z" fill="#18BDB3"/>
<path d="M29.4277 25.9059V24.5723H30.7728V25.9059H29.4277Z" fill="#18BDB3"/>
</svg>
