<svg width="35" height="40" viewBox="0 0 35 40" fill="none" xmlns="http://www.w3.org/2000/svg">
<path d="M21.5605 0C21.7993 0.0824014 22.0087 0.232788 22.1632 0.432663C22.3176 0.632539 22.4102 0.873189 22.4296 1.12501C22.4296 1.34895 22.6269 1.24764 22.7282 1.24764C23.6907 1.19199 24.6562 1.27095 25.5969 1.48224C26.9838 1.81818 28.2422 2.5524 29.2171 3.5945C30.192 4.63659 30.8408 5.94105 31.0836 7.34722C31.0911 7.44098 31.129 7.52974 31.1916 7.59999C31.2541 7.67025 31.3379 7.71815 31.4302 7.73644C32.4394 8.02205 33.3296 8.62562 33.9684 9.45748C34.6072 10.2893 34.9606 11.3051 34.976 12.3538C35.008 15.7768 35.008 19.1998 34.976 22.6228C34.9655 23.6655 34.6182 24.6769 33.9859 25.5061C33.3536 26.3353 32.4702 26.9379 31.4675 27.2242C31.3747 27.2386 31.2907 27.2869 31.2315 27.3598C31.1724 27.4327 31.1425 27.525 31.1476 27.6187C30.8283 30.8893 29.3453 33.9365 26.9683 36.2056C24.5913 38.4747 21.4785 39.8149 18.1965 39.9822C14.9145 40.1495 11.6815 39.1328 9.08614 37.1171C6.49074 35.1014 4.70546 32.2208 4.05531 28.9996C3.97 28.5411 3.89002 28.0772 3.84736 27.6134C3.85012 27.5202 3.81935 27.4291 3.76064 27.3567C3.70193 27.2843 3.61918 27.2354 3.52744 27.2188C2.6858 26.9753 1.92526 26.5096 1.32573 25.8707C0.726193 25.2318 0.309793 24.4433 0.120249 23.5879C0.0359241 23.1937 -0.00342985 22.7912 0.00294323 22.3882C0.00294323 19.1465 0.00294323 15.9047 0.00294323 12.6683C-0.035475 11.5541 0.303148 10.4595 0.964036 9.56161C1.62492 8.6637 2.56942 8.015 3.64475 7.72044C3.83137 7.67779 3.87402 7.56049 3.90602 7.38987C4.16915 5.90259 4.87981 4.53098 5.94309 3.45822C7.00637 2.38547 8.37166 1.66264 9.85661 1.38627C10.6412 1.26385 11.4362 1.22098 12.2294 1.2583C12.4373 1.2583 12.5706 1.2583 12.5973 0.970387C12.6346 0.469198 13.0239 0.20794 13.4398 0H21.5605Z" fill="#06811A"/>
<path d="M17.8119 9.86739H30.0384C31.9099 9.86739 32.955 10.9338 32.955 12.7892C32.955 15.951 32.955 19.1181 32.955 22.2798C32.955 24.0127 31.8886 25.0897 30.1717 25.0897C27.9589 25.0897 25.746 25.0897 23.5332 25.0897C23.0784 25.0992 22.6261 25.0178 22.2031 24.8502C21.7801 24.6827 21.3948 24.4324 21.0698 24.114C20.1884 23.2635 19.01 22.7905 17.7852 22.7955C16.5604 22.8005 15.3858 23.2831 14.5114 24.1406C14.2009 24.4469 13.8327 24.6885 13.4281 24.8514C13.0236 25.0143 12.5907 25.0953 12.1546 25.0897C9.90447 25.0897 7.65433 25.0897 5.39887 25.0897C5.0335 25.1115 4.66767 25.0555 4.32555 24.9254C3.98343 24.7954 3.67283 24.5942 3.41427 24.3351C3.15571 24.076 2.95508 23.7651 2.82566 23.4227C2.69624 23.0804 2.64097 22.7144 2.66351 22.3491C2.66351 19.1216 2.66351 15.8941 2.66351 12.6666C2.63544 12.2909 2.68897 11.9136 2.82041 11.5605C2.95185 11.2074 3.1581 10.887 3.42502 10.6211C3.69193 10.3552 4.0132 10.1502 4.36679 10.0201C4.72037 9.88999 5.09791 9.8379 5.47351 9.86739C9.58632 9.86028 13.6991 9.86028 17.8119 9.86739Z" fill="#FEFEFE"/>
<path d="M9.45659 27.431C10.3311 27.431 11.2002 27.431 12.0746 27.431C13.4281 27.4149 14.7254 26.8873 15.7058 25.9541C16.8788 24.8877 18.1372 24.8877 19.3049 25.9541C20.2699 26.8871 21.5565 27.4139 22.8988 27.4256C24.749 27.4256 26.5939 27.4256 28.4441 27.4256C28.748 27.4256 28.8227 27.4736 28.7747 27.8042C28.4014 30.5007 27.0741 32.9742 25.0335 34.7761C22.9929 36.5781 20.3741 37.5891 17.6519 37.6258C14.9298 37.6626 12.2846 36.7227 10.1961 34.9765C8.10755 33.2303 6.71395 30.7936 6.26802 28.1081C6.15604 27.431 6.15604 27.431 6.84388 27.431H9.45659Z" fill="#FEFEFE"/>
<path d="M20.3971 4.92562C20.3971 5.6934 20.3971 6.46118 20.3971 7.22896C20.3971 7.47955 20.3278 7.53287 20.0932 7.52754C18.5682 7.52754 17.0486 7.52754 15.5236 7.52754C15.2516 7.52754 15.209 7.4369 15.209 7.19697C15.209 5.67207 15.209 4.15251 15.209 2.62762C15.209 2.37702 15.2836 2.32904 15.5129 2.33437C17.0379 2.33437 18.5611 2.33437 20.0825 2.33437C20.3491 2.33437 20.4024 2.41968 20.3971 2.66494C20.3864 3.41672 20.3971 4.17384 20.3971 4.92562Z" fill="#FEFEFE"/>
<path d="M25.8903 7.522C24.9359 7.522 23.9868 7.522 23.0376 7.522C22.7977 7.522 22.7337 7.45801 22.7337 7.21808C22.7337 6.0984 22.7337 4.97873 22.7337 3.85905C22.7337 3.74708 22.6751 3.58713 22.8937 3.58713C23.8679 3.5124 24.8476 3.60803 25.789 3.86971C26.5459 4.14532 27.2286 4.59252 27.7837 5.17624C28.3388 5.75995 28.7511 6.46431 28.9882 7.23408C29.0842 7.49534 28.9882 7.52733 28.7483 7.522C27.7885 7.51667 26.8394 7.522 25.8903 7.522Z" fill="#FEFEFE"/>
<path d="M6.57617 7.52267C6.73311 6.7938 7.05501 6.1106 7.51718 5.52553C7.97934 4.94046 8.56946 4.4691 9.24221 4.14764C10.3203 3.68484 11.4976 3.50146 12.6654 3.61446C12.82 3.61446 12.8627 3.66778 12.8627 3.81707C12.8627 4.99007 12.8627 6.15773 12.8627 7.33073C12.8627 7.46936 12.8627 7.54933 12.6761 7.54933L6.57617 7.52267Z" fill="#FEFEFE"/>
<path d="M17.5929 33.0566C16.1809 33.0778 14.7753 32.8634 13.4339 32.4221C13.2763 32.3862 13.1278 32.3181 12.9978 32.2221C12.8678 32.1261 12.759 32.0043 12.6783 31.8643C12.5975 31.7243 12.5466 31.5691 12.5287 31.4085C12.5108 31.2478 12.5263 31.0852 12.5742 30.9309C12.6221 30.7765 12.7013 30.6337 12.807 30.5114C12.9127 30.3892 13.0425 30.29 13.1884 30.2203C13.3342 30.1506 13.4928 30.1117 13.6543 30.1062C13.8159 30.1006 13.9768 30.1285 14.1271 30.1881C16.3177 30.8972 18.6762 30.8972 20.8668 30.1881C21.1631 30.0969 21.4834 30.1271 21.7574 30.2721C22.0314 30.4171 22.2366 30.665 22.3278 30.9612C22.419 31.2575 22.3888 31.5778 22.2438 31.8518C22.0988 32.1258 21.8509 32.3309 21.5546 32.4221C20.9765 32.6213 20.3825 32.7711 19.7791 32.87C19.0581 33.0029 18.3259 33.0654 17.5929 33.0566Z" fill="#06811A"/>
</svg>
