<svg width="40" height="46" viewBox="0 0 40 46" fill="none" xmlns="http://www.w3.org/2000/svg">
<path fill-rule="evenodd" clip-rule="evenodd" d="M15.1013 0.14797C14.7101 0.341926 14.4673 0.668272 14.4003 1.09007L14.3453 1.4361H13.252C12.6508 1.4361 11.8148 1.49649 11.3946 1.57019C8.75742 2.03297 6.43671 3.75009 5.25898 6.10973C4.89585 6.83729 4.45475 8.14322 4.45475 8.49086C4.45475 8.74539 4.39661 8.78692 3.69356 9.03444C2.31587 9.51951 1.09921 10.67 0.4844 12.0691C-0.00930427 13.1924 -0.0210036 13.4008 0.0100762 20.4918C0.0364226 26.5045 0.0511586 27.0444 0.201199 27.5006C0.769923 29.2302 2.00177 30.5344 3.69008 31.1947L4.32079 31.4412L4.47601 32.5043C4.83351 34.9525 5.78314 37.341 7.20379 39.3645C7.97328 40.4605 9.79708 42.2957 10.885 43.0687C13.4084 44.8615 16.2764 45.8472 19.3695 45.9849C24.7964 46.2265 29.9977 43.5488 33.0596 38.9368C34.3502 36.993 35.2067 34.6902 35.5551 32.2273L35.6685 31.4265L36.1363 31.2669C37.5915 30.7706 38.66 29.8346 39.3169 28.4807C40.0034 27.0658 40 27.108 40 20.0857C40 13.2348 39.9905 13.1017 39.4171 11.9068C38.7761 10.5712 37.7115 9.58153 36.3504 9.05583C35.9396 8.8972 35.5928 8.72553 35.5798 8.67439C35.5668 8.62325 35.4895 8.27803 35.4081 7.90729C35.232 7.1045 34.6154 5.76281 34.071 4.99786C33.1997 3.77363 31.6996 2.59264 30.3513 2.06937C29.1949 1.62062 28.6265 1.5151 27.0821 1.46243L25.6403 1.41327L25.5872 1.07865C25.5208 0.661441 25.2708 0.334107 24.8733 0.144285C24.6027 0.0150414 24.0342 -0.00167581 19.9811 0.000121741C15.9343 0.00191929 15.3606 0.0192657 15.1013 0.14797ZM22.9419 5.66035V8.62631H19.9946H17.0474V5.66035V2.69438H19.9946H22.9419V5.66035ZM14.3681 6.37937V8.62631H10.7554H7.14261L7.26193 8.24433C7.75501 6.66671 8.7317 5.52912 10.2152 4.80444C11.2228 4.31227 11.9848 4.14905 13.3187 4.1398L14.3681 4.13243V6.37937ZM28.8363 4.35838C30.0036 4.72382 31.0171 5.43538 31.7423 6.3986C32.1424 6.92978 32.6817 7.97272 32.79 8.42408L32.8385 8.62631H29.2298H25.6211V6.36732V4.10834L26.9831 4.15651C27.897 4.18878 28.5066 4.2552 28.8363 4.35838ZM35.3814 11.5344C35.9728 11.7652 36.7225 12.4802 37.0265 13.1031L37.2761 13.6145L37.3013 19.9026C37.3261 26.0792 37.3232 26.2018 37.1382 26.8148C36.9804 27.3376 36.8675 27.5216 36.4424 27.9495C36.0809 28.3133 35.7845 28.5168 35.4109 28.6574C34.892 28.8528 34.84 28.8545 30.1424 28.8293L25.3979 28.8038L24.9067 28.569C24.6365 28.4398 24.1028 28.0707 23.7207 27.7488C22.8598 27.0233 22.1737 26.6497 21.281 26.4198C20.4055 26.1945 19.5838 26.1945 18.7082 26.4198C17.8156 26.6497 17.1295 27.0233 16.2685 27.7488C15.8865 28.0707 15.3528 28.4398 15.0826 28.569L14.5914 28.8038L9.84691 28.8293C5.2229 28.8541 5.08983 28.8499 4.60426 28.6671C3.94863 28.4203 3.27783 27.8039 2.96328 27.1593L2.71321 26.6468V20.1306C2.71321 13.6255 2.71357 13.6138 2.90782 13.1906C3.31007 12.3143 4.19897 11.5995 5.11627 11.4145C5.3173 11.374 12.1131 11.3468 20.2179 11.3542C34.3425 11.367 34.9718 11.3745 35.3814 11.5344ZM20.9176 29.1206C21.1833 29.2206 21.6275 29.5022 21.9047 29.7463C22.5969 30.3559 23.1188 30.706 23.7965 31.0152C24.8989 31.5182 25.1461 31.5423 29.2199 31.5438L32.9527 31.5451L32.8975 31.8821C32.436 34.7039 31.5762 36.6612 29.9267 38.6454C28.0555 40.8962 25.5041 42.4266 22.5567 43.0659C21.2252 43.3548 18.7397 43.3504 17.4073 43.0567C14.8187 42.4863 12.6117 41.2822 10.7971 39.4504C8.75278 37.3868 7.57291 34.9926 7.0893 31.9271L7.02901 31.5451L10.7656 31.5438C14.8435 31.5423 15.0902 31.5183 16.1927 31.0152C16.8706 30.7059 17.3923 30.3559 18.0849 29.746C18.9669 28.9692 19.9432 28.7537 20.9176 29.1206ZM15.0148 34.8701C14.1725 35.3869 14.1617 36.5205 14.9933 37.1297C15.5923 37.5686 18.1149 38.0152 19.9946 38.0152C21.8743 38.0152 24.397 37.5686 24.996 37.1297C25.8277 36.5204 25.8171 35.3972 24.9745 34.8648C24.6226 34.6425 24.0482 34.6681 23.0462 34.9507C21.985 35.2501 20.9666 35.3477 19.4588 35.2948C18.3078 35.2544 17.8938 35.1994 17.0028 34.9687C15.7492 34.6443 15.4103 34.6275 15.0148 34.8701Z" fill="#BA352C"/>
</svg>
