<svg width="40" height="40" viewBox="0 0 40 40" fill="none" xmlns="http://www.w3.org/2000/svg">
<g clip-path="url(#clip0_1183_309)">
<path d="M32.3929 31.447C31.4975 32.3519 30.5002 33.1464 29.4217 33.814C27.1244 35.2434 24.5102 36.063 21.8196 36.1975C19.129 36.3321 16.4483 35.7771 14.024 34.5838C10.112 32.6671 7.1977 29.8693 5.8161 26.7073C5.79075 26.649 5.76238 26.592 5.73124 26.5366C3.39777 21.6137 3.06951 15.9543 4.81766 10.787C4.96072 10.315 4.91628 9.80482 4.69393 9.36564C4.47158 8.92646 4.08894 8.59312 3.62782 8.43691C3.16669 8.28069 2.66371 8.31402 2.22645 8.52976C1.78919 8.74549 1.45241 9.12648 1.28807 9.59128C0.260865 12.6373 -0.165251 15.8592 0.0340671 19.0727C0.233385 22.2862 1.05425 25.4283 2.44969 28.3192C4.20089 32.2664 7.73369 35.6982 12.4081 37.992C15.3917 39.461 18.6908 40.1443 22.0022 39.9789C25.3137 39.8136 28.531 38.805 31.3585 37.0459C32.6868 36.2235 33.9152 35.2451 35.0184 34.131C35.1918 33.9559 35.3295 33.7478 35.4237 33.5186C35.5179 33.2894 35.5668 33.0436 35.5675 32.7953C35.5682 32.5469 35.5207 32.3009 35.4278 32.0711C35.3349 31.8414 35.1984 31.6325 35.0261 31.4564C34.8537 31.2802 34.6489 31.1403 34.4233 31.0446C34.1978 30.9489 33.9559 30.8993 33.7114 30.8986C33.467 30.8978 33.2248 30.946 32.9987 31.0404C32.7726 31.1348 32.567 31.2735 32.3936 31.4486L32.3929 31.447Z" fill="#0092FF"/>
<path d="M38.1401 9.91992C37.6466 9.91992 37.1733 10.1191 36.8243 10.4737C36.4753 10.8283 36.2793 11.3091 36.2793 11.8106V27.4773C36.2793 27.9788 36.4753 28.4597 36.8243 28.8142C37.1733 29.1688 37.6466 29.368 38.1401 29.368C38.6337 29.368 39.1069 29.1688 39.4559 28.8142C39.8048 28.4597 40.0009 27.9788 40.0009 27.4773V11.8106C40.0009 11.3091 39.8048 10.8283 39.4559 10.4737C39.1069 10.1191 38.6337 9.91992 38.1401 9.91992Z" fill="#0092FF"/>
<path d="M10.9385 25.928C11.2333 25.9275 11.5238 25.856 11.786 25.7194C12.0483 25.5827 12.2748 25.3848 12.4471 25.1418C12.6195 24.8989 12.7326 24.6179 12.7773 24.3219C12.822 24.0259 12.7969 23.7233 12.7042 23.4391C11.3175 19.3822 11.5716 14.932 13.4106 11.0652C13.442 11.0095 13.4705 10.9523 13.4962 10.8937C14.8565 8.13815 17.1312 5.95946 19.9186 4.74207C21.5887 4.01426 23.402 3.6896 25.2163 3.79354C27.0306 3.89748 28.7964 4.42719 30.3754 5.34113C30.5841 5.47029 30.8157 5.55642 31.0572 5.5946C31.2987 5.63278 31.5451 5.62228 31.7826 5.56367C32.02 5.50506 32.2439 5.3995 32.4412 5.25302C32.6385 5.10654 32.8055 4.92202 32.9326 4.70997C33.0597 4.49792 33.1444 4.2625 33.182 4.01716C33.2196 3.77183 33.2093 3.52137 33.1516 3.2801C33.0939 3.03883 32.99 2.81148 32.8459 2.61101C32.7017 2.41053 32.5201 2.24087 32.3114 2.11171C30.2027 0.875049 27.8372 0.159824 25.4061 0.0238431C22.975 -0.112138 20.5465 0.33493 18.317 1.32894C14.7538 2.9231 11.8553 5.73894 10.1282 9.28424C7.82192 14.0708 7.47895 19.5915 9.17458 24.6348C9.29794 25.0111 9.53466 25.3385 9.85124 25.5705C10.1678 25.8026 10.5482 25.9277 10.9385 25.928Z" fill="#0092FF"/>
<path d="M34.012 7.74146C33.52 7.74202 33.0478 7.54409 32.6993 7.19116C32.0002 6.4837 31.2215 5.86248 30.3792 5.34034C29.9656 5.07581 29.6711 4.65657 29.5592 4.17321C29.4473 3.68985 29.527 3.18116 29.7812 2.75704C30.0353 2.33291 30.4435 2.02741 30.9175 1.90652C31.3915 1.78562 31.8932 1.85901 32.3144 2.11089C33.4084 2.78774 34.42 3.59342 35.3281 4.51122C35.589 4.77531 35.767 5.11215 35.8394 5.47908C35.9118 5.846 35.8754 6.22653 35.7348 6.57242C35.5942 6.91832 35.3558 7.21404 35.0496 7.42215C34.7435 7.63027 34.3836 7.74138 34.0153 7.74146H34.012Z" fill="#0092FF"/>
</g>
<defs>
<clipPath id="clip0_1183_309">
<rect width="40" height="40" fill="white"/>
</clipPath>
</defs>
</svg>
