<svg width="56" height="40" viewBox="0 0 56 40" fill="none" xmlns="http://www.w3.org/2000/svg">
<path fill-rule="evenodd" clip-rule="evenodd" d="M21.8244 0.124053C17.4909 0.838306 13.9563 2.56216 10.9573 5.42411C10.3349 6.0181 10.2826 6.10454 10.2826 6.54036C10.2826 7.16356 10.7337 7.65474 11.3062 7.65474C11.7105 7.65474 11.9108 7.52085 13.025 6.50532C14.7805 4.90525 17.5427 3.41238 19.9447 2.76535C24.5218 1.53246 28.8154 2.00585 33.0629 4.21165C34.1482 4.77532 34.4989 4.90943 34.7552 4.85912C35.4411 4.72447 35.8402 3.9967 35.5772 3.3601C35.2325 2.52536 31.5071 0.903877 28.5178 0.287377C27.1001 -0.00489228 23.1866 -0.100448 21.8244 0.124053ZM23.1513 5.3123C19.8803 5.72 16.5349 7.28635 14.6082 9.31203C14.1038 9.84242 14.0063 10.0099 14.0063 10.346C14.0063 10.9186 14.4892 11.3891 15.0769 11.3891C15.4477 11.3891 15.6114 11.2967 16.2624 10.7204C19.7492 7.63343 24.4055 6.65129 28.7051 8.09594C30.3419 8.64588 31.6117 9.38551 33.1004 10.6561C33.8287 11.2776 34.022 11.3891 34.3713 11.3891C34.8495 11.3891 35.3117 11.0279 35.4279 10.5632C35.5423 10.1058 35.24 9.61539 34.3934 8.88455C32.1574 6.95454 29.6652 5.81589 26.7654 5.39962C25.7621 5.25563 23.956 5.21191 23.1513 5.3123ZM37.378 5.83149C36.9579 6.25281 36.9028 6.62251 37.188 7.10666C37.7623 8.08177 39.196 7.64694 39.196 6.49774C39.196 6.06895 38.5525 5.45805 38.1008 5.45805C37.8483 5.45805 37.6463 5.56239 37.378 5.83149ZM3.41624 9.31038C2.17 9.47733 0.911834 10.4352 0.357222 11.6393L0.0424607 12.3227L0.0113569 19.6645C-0.0233611 27.8668 -0.0245658 27.8503 0.716559 28.9361C1.98097 30.7883 4.44891 31.2536 6.30659 29.9901C6.97302 29.5368 7.3374 29.0877 7.74306 28.2196L8.03745 27.5897V20.0111V12.4325L7.78512 11.8063C7.08265 10.0626 5.31948 9.05546 3.41624 9.31038ZM42.2335 9.42175C40.6817 9.78838 39.6203 11.0851 39.5441 12.7071C39.4937 13.7802 39.781 14.5864 40.4655 15.2926C41.1916 16.0419 41.9811 16.3659 43.2173 16.4217L44.2267 16.4674L44.2577 22.3031L44.2887 28.1388L44.5615 28.6746C44.9394 29.4165 45.5659 30.0298 46.2979 30.3739C47.1327 30.7664 48.3931 30.7809 49.228 30.4077C50.2416 29.9545 51.0206 28.9317 51.2414 27.7643C51.3073 27.4156 51.3528 24.9912 51.3528 21.8215V16.4677L52.3658 16.4204C53.5977 16.3628 54.2497 16.1031 54.9883 15.3755C55.7279 14.647 56.0041 13.9635 56 12.8719C55.9975 12.2215 55.9372 11.8613 55.768 11.4855C55.499 10.8886 54.8799 10.1708 54.3512 9.84319C53.5302 9.33421 53.1548 9.30423 47.7386 9.31455C44.9376 9.31994 42.4604 9.36815 42.2335 9.42175ZM22.889 10.7901C21.0642 11.1871 19.6391 11.9225 18.373 13.1201C17.021 14.3992 16.1154 15.9163 15.6362 17.7046C15.3064 18.9356 15.3074 21.0688 15.6384 22.3176C16.5196 25.6424 19.1876 28.2762 22.4941 29.0856C23.8362 29.4141 25.739 29.4126 26.9845 29.0819C30.279 28.2073 32.7949 25.7222 33.7438 22.4053C33.9483 21.69 33.988 21.2862 33.9842 19.9562C33.98 18.5411 33.946 18.2534 33.679 17.3751C32.7742 14.3983 30.6178 12.1307 27.7298 11.1188C26.278 10.6102 24.3255 10.4776 22.889 10.7901ZM4.93386 11.6772C5.31642 11.87 5.65516 12.3117 5.79798 12.8043C5.87464 13.069 5.90202 15.5483 5.88001 20.2389L5.84704 27.2764L5.57324 27.6818C5.25443 28.1538 4.57354 28.5233 4.02265 28.5233C3.41503 28.5233 2.72308 28.0943 2.42803 27.5349L2.17351 27.0523L2.20319 19.8436L2.23287 12.635L2.53854 12.2332C3.13521 11.4487 4.05606 11.235 4.93386 11.6772ZM53.177 11.7293C54.083 12.2908 54.0856 13.4769 53.1819 14.0295C52.8825 14.2127 52.6266 14.244 51.4277 14.2444C49.9763 14.2448 49.6904 14.3111 49.3564 14.7244C49.1823 14.9402 49.1671 15.4496 49.1648 21.1478C49.1626 26.6984 49.1435 27.3767 48.9795 27.7233C48.5705 28.5877 47.498 28.7719 46.8217 28.0939L46.4791 27.7504L46.4244 21.3296L46.3696 14.9086L46.0661 14.6042C45.7682 14.3053 45.7328 14.2986 44.1495 14.243C43.0322 14.2037 42.4645 14.139 42.3027 14.0324C41.9506 13.8003 41.715 13.3272 41.715 12.8519C41.715 12.3573 41.9305 12.0043 42.4123 11.7096C42.7369 11.5111 43.0269 11.4997 47.7804 11.4994C52.6918 11.4989 52.8139 11.5041 53.177 11.7293ZM26.4249 13.0335C27.7365 13.37 28.7126 13.9365 29.7331 14.9536C31.248 16.4633 31.9365 18.2552 31.8258 20.4006C31.7311 22.2368 31.0719 23.698 29.7225 25.0624C28.3826 26.4172 26.6713 27.1292 24.7393 27.1359C23.4667 27.1402 22.7578 26.9802 21.618 26.4313C20.0912 25.6959 19.0138 24.6156 18.2823 23.0865C17.7151 21.9008 17.5656 21.2117 17.5793 19.8464C17.5938 18.4033 17.9301 17.2747 18.6963 16.0976C20.3765 13.5165 23.492 12.2813 26.4249 13.0335ZM24.0581 16.0043C22.7886 16.2217 21.6297 17.0995 21.0504 18.2824C20.7776 18.8396 20.7418 19.0339 20.7418 19.9578C20.7418 20.9148 20.7718 21.0641 21.0978 21.7287C21.7569 23.0724 22.9901 23.9011 24.4727 23.9966C27.0467 24.1622 29.0637 21.9084 28.6588 19.3191C28.3192 17.1474 26.2193 15.6343 24.0581 16.0043ZM25.6396 18.3761C26.133 18.632 26.5169 19.3138 26.5169 19.9342C26.5169 21.4958 24.8111 22.3809 23.5946 21.4504C22.9381 20.9483 22.6741 19.8963 23.032 19.2093C23.5467 18.2212 24.6568 17.8665 25.6396 18.3761ZM14.6634 28.645C13.9483 28.9264 13.7865 29.8023 14.3343 30.4279C15.0492 31.2444 16.8232 32.5098 18.3039 33.2594C21.6189 34.9376 26.3362 35.1556 29.8703 33.794C32.0696 32.9466 34.6855 31.1764 35.2856 30.1294C35.7623 29.2976 34.914 28.2823 34.0253 28.6211C33.8711 28.6799 33.4359 29.0046 33.0582 29.3426C29.9215 32.1493 25.5583 33.1812 21.4537 32.087C19.4923 31.564 18.1015 30.8062 16.3062 29.282C15.3946 28.508 15.2015 28.4332 14.6634 28.645ZM11.0851 32.3444C10.3185 32.4606 10.0008 33.6018 10.5838 34.1443C10.9802 34.5131 11.3302 34.5871 11.7824 34.3976C12.2069 34.2197 12.5169 33.6246 12.4093 33.1944C12.269 32.634 11.6779 32.2546 11.0851 32.3444ZM37.7175 32.4222C37.5368 32.5051 36.9947 32.925 36.5128 33.3554C31.8267 37.5406 25.0547 38.9286 19.0893 36.9267C17.9169 36.5333 16.4787 35.876 15.5746 35.3204C15.1244 35.0437 14.6449 34.8405 14.3675 34.8089C13.9651 34.7631 13.8653 34.7985 13.5735 35.0911C13.0782 35.5878 13.1058 36.1181 13.654 36.6406C14.0864 37.0527 16.1741 38.1787 17.4034 38.663C18.4387 39.0708 20.2484 39.5706 21.5085 39.7968C23.0253 40.0692 26.2009 40.0674 27.8606 39.7935C31.8315 39.1379 35.5698 37.2973 38.4065 34.6007C39.1116 33.9304 39.196 33.8063 39.196 33.44C39.196 33.1437 39.1126 32.941 38.8948 32.7093C38.5251 32.3157 38.1495 32.2241 37.7175 32.4222Z" fill="#BC36A7"/>
</svg>
