<svg width="40" height="47" viewBox="0 0 40 47" fill="none" xmlns="http://www.w3.org/2000/svg">
<path fill-rule="evenodd" clip-rule="evenodd" d="M20.073 0.0623583C16.1921 0.397512 12.299 1.88702 9.17754 4.23089C5.2402 7.18751 2.54941 11.9272 2.11869 16.6647C1.99022 18.0777 2.06775 18.8299 2.54857 20.8377C2.72392 21.5697 2.90989 22.5796 2.96175 23.0817C3.13461 24.754 2.87057 25.5214 1.26224 28.0231C0.234046 29.6223 0 30.1407 0 30.8184C0 31.4296 0.253612 31.8688 0.840296 32.2731C1.18924 32.5137 1.95598 32.7681 2.35043 32.7743C2.83716 32.7818 3.04555 33.2217 3.04555 34.2416C3.04555 35.1776 3.19036 35.8314 3.47128 36.1635C3.65891 36.3852 3.68623 36.49 3.63676 36.7979C3.52066 37.5202 4.05742 38.2227 4.97699 38.5517C5.39497 38.7012 5.39884 38.7064 5.38814 39.1105C5.3228 41.5876 5.31938 41.5205 5.53488 42.0179C5.91668 42.8988 6.8429 43.5314 8.11298 43.7787C9.39673 44.0286 12.9105 43.5334 15.4268 42.7477L16.1335 42.5272L16.4586 43.2259C16.8597 44.0878 17.0399 44.6936 17.2125 45.7607C17.3224 46.4408 17.3882 46.6234 17.5841 46.7935L17.8222 47H27.9269H38.0317L38.2581 46.7746C38.6089 46.4258 38.5642 46.014 38.117 45.4759C37.0354 44.1739 34.9304 38.7574 34.6601 36.581C34.6058 36.1437 34.6341 36.0631 35.2554 34.8827C37.8552 29.9434 38.8852 27.1733 39.7435 22.8113C39.9817 21.6011 39.9967 21.3761 39.9998 18.9558C40.0026 16.8965 39.9713 16.2121 39.8425 15.5134C39.2167 12.1179 38.3062 9.77199 36.654 7.29749C35.8487 6.09136 33.7155 3.94972 32.5081 3.1352C29.2454 0.933978 24.2559 -0.298958 20.073 0.0623583ZM24.8259 1.83938C27.4487 2.30902 29.7219 3.17825 31.6062 4.43184C32.824 5.24204 34.5912 7.03008 35.4364 8.30726C37.0218 10.7031 38.0466 13.5707 38.3889 16.5691C38.5107 17.6365 38.5114 20.2102 38.39 21.2072C38.0643 23.884 37.0633 27.3988 35.811 30.2628C35.5202 30.9279 34.844 32.2911 34.3083 33.2921C33.1532 35.4509 33.0396 35.71 33.0396 36.1876C33.0396 37.8009 34.5611 42.2824 36.1573 45.3706C36.1768 45.4085 32.2695 45.4394 27.4743 45.4394H18.7557L18.6909 45.0098C18.6045 44.4359 18.1563 43.0875 17.8566 42.4992C17.7236 42.2382 17.628 42.014 17.6442 42.0009C17.6602 41.9878 18.0523 41.8122 18.5153 41.6107C20.3604 40.8079 22.0457 39.7238 22.6895 38.9257C23.0973 38.42 23.1231 37.979 22.7628 37.6708C22.6228 37.551 22.4172 37.4532 22.3058 37.4534C22.0457 37.4539 21.5427 37.7585 21.3907 38.0079C21.2368 38.2603 20.3467 38.9269 19.5298 39.4014C17.021 40.8589 12.0756 42.2459 9.32124 42.2646C8.26526 42.2718 8.12904 42.253 7.71162 42.0429C6.98013 41.6748 6.88793 41.4834 6.9291 40.4192C6.99074 38.8234 6.96093 38.2504 6.80026 37.9431C6.60239 37.5647 6.25003 37.2952 5.77871 37.1621C5.56986 37.1032 5.36405 37.0251 5.32141 36.9886C5.27877 36.9523 5.42948 36.7954 5.65642 36.6402C6.24892 36.2347 6.35321 35.8237 5.97473 35.386C5.80492 35.1897 5.66067 35.1351 5.20116 35.0937L4.63635 35.0428L4.59795 33.9701C4.56252 32.9829 4.53714 32.8577 4.27928 32.3984C3.92415 31.7659 3.34383 31.3587 2.61309 31.2292C1.24074 30.9862 1.24037 30.9563 2.58291 28.8763C3.5525 27.3739 4.0971 26.3415 4.35357 25.5193C4.53778 24.9286 4.56575 24.6613 4.55006 23.6375C4.54009 22.9811 4.47244 22.1764 4.3999 21.8494C4.24772 21.1636 4.17758 21.2715 5.2318 20.5685C5.59662 20.3251 6.21053 20.0117 6.59584 19.8718C7.23236 19.6409 7.36876 19.6232 8.08428 19.6779C8.86681 19.7377 8.87373 19.7364 9.14275 19.4688C9.72694 18.8877 9.3289 18.27 8.25539 18.0919C7.13564 17.9062 5.74364 18.3249 4.33982 19.2697C4.1126 19.4226 3.89748 19.5178 3.86185 19.4812C3.82614 19.4447 3.75 19.0701 3.6926 18.6488C3.51688 17.3601 3.72748 15.6724 4.29737 13.8023C5.69685 9.20982 8.76824 5.71086 13.3081 3.53727C15.2929 2.58698 17.3486 1.98148 19.5654 1.69434C20.9064 1.52056 23.4349 1.59033 24.8259 1.83938ZM20.719 3.2034C19.967 3.39563 19.4429 3.82542 19.0733 4.5531C18.9314 4.83235 18.8981 4.84401 17.3961 5.14033L15.8636 5.44262L15.6149 5.25976C15.0713 4.85998 14.726 4.73936 14.1203 4.73762C13.1396 4.73468 12.335 5.26867 11.9544 6.17498C11.7769 6.59735 11.7717 7.49797 11.9444 7.90886L12.0756 8.22143L11.3099 9.23322C10.6655 10.0846 10.4876 10.2619 10.1865 10.3521C9.31293 10.614 8.65196 11.5509 8.65242 12.5266C8.6526 12.8314 8.7161 13.2311 8.79344 13.4149C9.00155 13.909 9.5503 14.4659 10.0174 14.6568L10.4287 14.8249L11.0437 16.3582L11.6587 17.8916L11.4286 18.2401C10.3866 19.818 11.3118 21.7447 13.193 21.9143C13.6348 21.9543 13.8162 21.9229 14.2246 21.7359C14.7724 21.4851 15.2476 21.0497 15.4167 20.6436L15.5271 20.3787H17.6846C19.4344 20.3787 19.8422 20.4021 19.8422 20.5026C19.8422 20.741 20.3918 21.3782 20.8051 21.6191C21.0776 21.778 21.4273 21.8834 21.8153 21.9236L22.4086 21.9851L23.6754 23.8949L24.9421 25.8046L24.6925 26.2607C23.8122 27.8696 24.9054 29.742 26.7254 29.742C27.7107 29.742 28.6271 29.1071 28.9285 28.2157C29.0211 27.9417 29.2575 27.6875 29.9598 27.1072C30.4609 26.693 30.9385 26.3522 31.0211 26.3498C31.1037 26.3474 31.3204 26.4075 31.5026 26.4832C32.7864 27.0167 34.3416 26.0521 34.5628 24.5851C34.7095 23.612 34.0349 22.4699 33.1231 22.1478C32.7049 22.0001 32.6026 21.8986 31.926 20.9613C31.3167 20.1171 31.1965 19.895 31.2452 19.7023C31.3215 19.3998 31.3879 19.3534 32.1774 19.0498L32.838 18.7958L33.1983 19.0838C34.1163 19.8176 35.553 19.6748 36.3512 18.7705C36.779 18.2858 36.9158 17.9133 36.9158 17.2326C36.9158 16.2222 36.3148 15.357 35.4057 15.0585C35.1459 14.9732 35.039 14.819 34.5257 13.7881L33.9415 12.6149L34.1826 12.2614C34.9785 11.0949 34.5656 9.5626 33.2704 8.87567C32.8031 8.62791 31.7514 8.60147 31.3357 8.82711L31.0622 8.97555L30.3895 8.4288C29.7769 7.93089 29.7228 7.86002 29.7849 7.63567C30.0626 6.63058 29.5661 5.52919 28.5996 5.00594C27.7979 4.57183 26.6626 4.67997 26.0545 5.24819L25.8501 5.43923L24.6604 5.14501L23.4708 4.85071L23.3114 4.49132C22.9049 3.57481 21.6687 2.96069 20.719 3.2034ZM21.7572 4.98317C22.2273 5.41114 21.86 6.24181 21.2007 6.24181C20.8859 6.24181 20.5781 6.00442 20.4598 5.67065C20.3605 5.39048 20.5851 4.94609 20.8929 4.81372C21.2258 4.67042 21.4653 4.71742 21.7572 4.98317ZM14.7726 6.66656C15.0577 7.19642 14.7165 7.80237 14.1332 7.80237C13.686 7.80237 13.382 7.50513 13.382 7.06799C13.382 6.30901 14.4191 6.00966 14.7726 6.66656ZM28.2035 6.75395C28.2736 6.92102 28.3045 7.13234 28.2721 7.2235C27.9682 8.07749 26.764 7.95329 26.764 7.06799C26.764 6.25145 27.8892 6.00599 28.2035 6.75395ZM19.1475 6.60102C19.1783 6.69759 19.3842 6.95068 19.6051 7.16355L20.0065 7.55067L19.3148 8.69235C18.8559 9.44978 18.5811 9.81816 18.4984 9.78658C18.4299 9.76042 17.872 9.42022 17.2584 9.03054C16.3974 8.4837 16.1578 8.2889 16.2081 8.17691C16.244 8.09714 16.3362 7.77777 16.4129 7.46713L16.5526 6.90239L17.6668 6.67363C19.0561 6.38841 19.0793 6.38731 19.1475 6.60102ZM25.195 7.26591C25.195 7.99781 25.782 8.84107 26.5332 9.18824C26.9909 9.39984 27.9036 9.41691 28.3712 9.22258L28.7089 9.08222L29.3521 9.60868L29.9954 10.135L29.9361 10.5981C29.9035 10.8528 29.8631 11.077 29.8464 11.0962C29.8297 11.1154 29.2522 11.2443 28.563 11.3826L27.31 11.634L27.1779 11.3797C26.9822 11.0035 26.34 10.4944 25.8533 10.3299C25.5094 10.2137 25.1596 9.92125 24.0645 8.83436C23.3157 8.09135 22.7032 7.43766 22.7032 7.38167C22.7032 7.32576 22.7905 7.20147 22.8972 7.10535C23.004 7.00933 23.1481 6.82152 23.2175 6.68804L23.3436 6.44542L24.2693 6.67629L25.195 6.90716V7.26591ZM23.4002 11.0221C23.2303 11.2092 23.0635 11.4494 23.0295 11.5559C22.9719 11.7364 22.903 11.7497 22.0258 11.7497H21.084L20.9048 11.4187C20.8062 11.2366 20.5726 10.9575 20.3856 10.7983L20.0457 10.5089L20.698 9.42499L21.3503 8.34114L22.5297 9.51156L23.7091 10.6821L23.4002 11.0221ZM15.9199 10.0294C17.259 10.877 17.2496 10.8676 17.0098 11.1281C16.9042 11.2428 16.7896 11.4296 16.755 11.5431C16.6925 11.7478 16.6762 11.7497 14.9535 11.7497H13.2149L12.9765 11.345C12.8454 11.1225 12.6282 10.8607 12.4937 10.7633L12.2493 10.5862L12.7305 9.94668L13.2117 9.30703L14.0583 9.34696L14.9048 9.3868L15.9199 10.0294ZM32.804 10.4647C33.0814 10.7406 33.0453 11.2623 32.7299 11.5321C32.402 11.8126 32.0245 11.8099 31.7149 11.5246C31.1633 11.0161 31.6103 10.1054 32.3472 10.2363C32.4993 10.2633 32.7048 10.3661 32.804 10.4647ZM11.345 11.884C11.4887 11.9579 11.6319 12.0851 11.6635 12.1669C11.9729 12.9689 11.1053 13.6587 10.4851 13.1037C10.0975 12.7569 10.1526 12.1302 10.5914 11.8933C10.9127 11.72 11.0235 11.7186 11.345 11.884ZM19.422 12.0253C19.6995 12.3012 19.6633 12.8229 19.3479 13.0927C18.8343 13.5321 18.0853 13.2127 18.0917 12.557C18.0986 11.846 18.914 11.52 19.422 12.0253ZM25.7257 12.0795C26.1597 12.5627 25.8097 13.3004 25.1433 13.3073C24.6 13.3129 24.2076 12.6786 24.4683 12.2164C24.7531 11.7119 25.3383 11.6482 25.7257 12.0795ZM30.6018 12.7009C30.6803 12.9042 29.2534 16.3589 29.1299 16.2647C28.4304 15.731 26.764 14.3822 26.764 14.3497C26.764 14.3263 26.8885 14.1271 27.0408 13.9069C27.1931 13.6868 27.3177 13.4649 27.3177 13.4139C27.3177 13.3628 27.368 13.2901 27.4295 13.2524C27.5149 13.1998 30.1086 12.6327 30.4815 12.585C30.5212 12.58 30.5753 12.6321 30.6018 12.7009ZM16.8785 13.7669C17.0422 14.0182 17.2159 14.2481 17.2645 14.2781C17.3131 14.3079 16.5569 14.9926 15.5839 15.7995C13.8891 17.2052 13.7997 17.2655 13.4501 17.2392L13.0852 17.2116L12.5732 15.9374L12.0612 14.6632L12.4482 14.3433C12.6611 14.1674 12.9176 13.863 13.0182 13.6669L13.2012 13.3102H14.8911H16.581L16.8785 13.7669ZM23.0799 13.6039C23.1472 13.7654 23.3652 14.0548 23.5645 14.2471L23.9266 14.5967L23.126 15.9271C22.4056 17.1242 22.2999 17.2575 22.0716 17.2575C21.8323 17.2575 21.7793 17.1712 21.1434 15.7446L20.469 14.2317L20.7029 13.955C20.8317 13.8029 20.9634 13.5955 20.9957 13.4943C21.0495 13.3258 21.1347 13.3102 22.0061 13.3102H22.9577L23.0799 13.6039ZM32.9921 14.2255L33.4449 15.1407L33.0293 15.5481C32.5923 15.9767 32.3513 16.4315 32.2571 17.0056C32.2098 17.2935 32.1449 17.3735 31.8641 17.4902C31.2345 17.7519 31.1667 17.743 30.9067 17.3654L30.6657 17.0154L31.408 15.1628C32.3225 12.8806 32.3259 12.8786 32.9921 14.2255ZM19.9189 16.854L20.3748 17.8733L20.1086 18.2677C19.9621 18.4847 19.8422 18.6972 19.8422 18.7401C19.8422 18.783 18.8739 18.8181 17.6905 18.8181H15.5388L15.3784 18.4834C15.2901 18.2993 15.2512 18.1171 15.292 18.0786C15.3328 18.0401 16.1968 17.3211 17.212 16.4807L19.0578 14.953L19.2604 15.3939C19.3718 15.6363 19.6682 16.2934 19.9189 16.854ZM26.4648 16.1584C27.0354 16.614 27.5023 17.009 27.5023 17.0358C27.5023 17.0627 27.3819 17.2372 27.2347 17.4236C27.0876 17.61 26.9412 17.8497 26.9096 17.9563C26.8598 18.1235 26.6829 18.1838 25.6312 18.3924C24.9599 18.5256 24.3483 18.6329 24.2721 18.6306C24.196 18.6285 24.0421 18.4838 23.9301 18.3091L23.7265 17.9914L24.5297 16.6606C24.9715 15.9287 25.3542 15.3298 25.3802 15.3298C25.4061 15.3298 25.8942 15.7027 26.4648 16.1584ZM34.8894 16.5232C35.0775 16.5232 35.3469 16.9412 35.3469 17.2331C35.3469 17.887 34.5085 18.2537 34.0846 17.7854C33.8177 17.4903 33.7718 17.3026 33.8866 16.9751C33.99 16.6799 34.4458 16.3977 34.6853 16.4806C34.7529 16.504 34.8447 16.5232 34.8894 16.5232ZM29.7724 18.5041C29.9935 19.0305 29.6398 19.5525 29.0618 19.5525C28.6415 19.5525 28.3329 19.2236 28.3329 18.7758C28.3329 17.998 29.4696 17.7834 29.7724 18.5041ZM13.7592 18.9358C14.1825 19.2591 14.2201 19.7427 13.8505 20.1103C13.5005 20.4585 13.1712 20.4585 12.8211 20.1103C12.5325 19.8232 12.4901 19.6032 12.6542 19.2449C12.8282 18.8649 13.4417 18.6933 13.7592 18.9358ZM22.5365 19.0972C22.7711 19.3305 22.8078 19.4245 22.7603 19.6709C22.6954 20.0072 22.3205 20.3787 22.0459 20.3787C21.3255 20.3787 20.9676 19.5596 21.4699 19.0601C21.8042 18.7275 22.178 18.7405 22.5365 19.0972ZM27.0646 19.9986C27.3194 20.4277 27.9255 20.9121 28.3507 21.0266C28.5718 21.0861 29.0338 21.1133 29.392 21.0882C30.105 21.038 30.0156 20.9838 30.6075 21.8238L30.9467 22.305L30.6 22.64C30.0724 23.1496 29.8748 23.6857 29.9283 24.4615C29.96 24.9226 29.9387 25.1281 29.852 25.1958C29.7857 25.2475 29.5019 25.4688 29.2213 25.6876L28.7113 26.0854L28.3978 25.7736C27.9778 25.3558 27.4984 25.1427 26.8465 25.0839L26.3062 25.0352L25.0423 23.1108L23.7785 21.1866L24.0022 20.7596C24.1253 20.5249 24.2353 20.3166 24.2468 20.2969C24.2652 20.2648 26.5757 19.7683 26.8132 19.7453C26.8657 19.7402 26.9789 19.8542 27.0646 19.9986ZM32.804 23.7754C33.0814 24.0513 33.0453 24.573 32.7299 24.8428C32.402 25.1233 32.0245 25.1206 31.7149 24.8353C31.1633 24.3268 31.6103 23.4161 32.3472 23.547C32.4993 23.574 32.7048 23.6768 32.804 23.7754ZM27.2946 26.9507C27.5744 27.2622 27.5608 27.6392 27.259 27.9395C26.6504 28.5447 25.6204 27.8265 26.0373 27.0876C26.322 26.5832 26.9072 26.5195 27.2946 26.9507Z" fill="#59B62D"/>
</svg>
