<svg width="44" height="41" viewBox="0 0 44 41" fill="none" xmlns="http://www.w3.org/2000/svg">
<path d="M43.9874 24.061C43.7975 24.2404 43.5932 24.4043 43.3764 24.5512C41.423 25.67 39.4615 26.769 37.5121 27.8957C37.3321 28.0202 37.1173 28.087 36.8972 28.087C36.677 28.087 36.4623 28.0202 36.2822 27.8957C34.4695 26.8441 32.6406 25.8242 30.8279 24.7805C30.7325 24.7112 30.6169 24.6738 30.4983 24.6738C30.3797 24.6738 30.2641 24.7112 30.1687 24.7805C29.4613 25.2075 28.7338 25.6028 28.0143 26.006C27.54 26.2709 27.1421 26.1958 26.9371 25.8202C26.7321 25.4447 26.8849 25.0928 27.3391 24.8398C28.0425 24.4445 28.7418 24.0255 29.4613 23.6539C29.5828 23.6035 29.6844 23.5158 29.7511 23.404C29.8177 23.2921 29.8458 23.1621 29.8311 23.0332C29.8311 20.9617 29.8311 18.8942 29.8311 16.8227C29.8085 16.6283 29.8463 16.4316 29.9396 16.2587C30.0329 16.0858 30.1772 15.9448 30.3536 15.8542C32.366 14.7236 34.3757 13.5837 36.3827 12.4347C36.5367 12.3334 36.7179 12.2793 36.9032 12.2793C37.0885 12.2793 37.2697 12.3334 37.4237 12.4347C39.4334 13.5851 41.4431 14.7236 43.4769 15.8819C43.6691 16.0212 43.8444 16.1817 43.9994 16.3602L43.9874 24.061ZM42.6127 17.7359C40.9326 18.6886 39.3369 19.586 37.7493 20.5032C37.6931 20.5585 37.6491 20.6246 37.6201 20.6974C37.5911 20.7701 37.5776 20.848 37.5805 20.9262C37.5805 22.5865 37.5805 24.2429 37.5805 25.9032C37.5877 26.0213 37.6024 26.1388 37.6247 26.2551C39.2646 25.3261 40.8643 24.4247 42.4479 23.4878C42.4978 23.4457 42.5379 23.3935 42.5656 23.3349C42.5933 23.2763 42.608 23.2125 42.6087 23.1479C42.6087 22.6695 42.6087 22.1912 42.6087 21.7128L42.6127 17.7359ZM41.9093 16.55C41.7365 16.4432 41.6039 16.3562 41.4712 16.2811L38.1673 14.4034C37.7453 14.1662 37.3152 13.7629 36.8931 13.7629C36.4711 13.7629 36.041 14.1583 35.619 14.4073L31.8689 16.546C33.5209 17.4829 35.1286 18.3961 36.7444 19.2935C36.8115 19.3121 36.8817 19.3172 36.9508 19.3084C37.0198 19.2995 37.0864 19.277 37.1464 19.2421C37.7734 18.9021 38.3884 18.5424 39.0073 18.1905L41.9093 16.55ZM31.2138 17.7359V22.5865L31.6157 22.3612C32.2106 22.0251 32.8014 21.6812 33.4003 21.3491C33.4793 21.2875 33.5709 21.2432 33.6688 21.2194C33.7667 21.1956 33.8687 21.1928 33.9678 21.2112C34.0669 21.2296 34.1609 21.2687 34.2433 21.3259C34.3257 21.3832 34.3946 21.4571 34.4453 21.5429C34.6543 21.9026 34.5177 22.2584 34.0756 22.5232C33.967 22.5905 33.8545 22.6537 33.7419 22.717L31.8569 23.7922L36.1536 26.2353C36.1706 26.1624 36.1827 26.0884 36.1898 26.0139C36.1898 24.2824 36.1898 22.5509 36.1898 20.8194C36.1718 20.7303 36.1349 20.6458 36.0816 20.5716C36.0283 20.4974 35.9597 20.435 35.8803 20.3885C34.6262 19.6572 33.3601 18.9456 32.098 18.2301C31.8006 18.1075 31.5313 17.9533 31.2138 17.7754V17.7359Z" fill="#FB5A5A"/>
<path d="M0 16.3718C0.168793 16.1875 0.357476 16.0218 0.562715 15.8777C2.57241 14.7352 4.55397 13.6165 6.53954 12.474C6.70428 12.3637 6.89895 12.3047 7.09823 12.3047C7.29752 12.3047 7.49219 12.3637 7.65693 12.474C9.63178 13.6099 11.6133 14.7352 13.6016 15.85C13.7942 15.9404 13.954 16.0865 14.0596 16.2689C14.1652 16.4512 14.2116 16.6609 14.1925 16.8699C14.1683 18.9256 14.1925 20.9813 14.1925 23.0369C14.1764 23.1583 14.2006 23.2816 14.2614 23.3884C14.3222 23.4952 14.4165 23.5799 14.5301 23.6299C15.2817 24.0252 16.0213 24.468 16.7649 24.891C16.8993 24.9447 17.0097 25.0441 17.076 25.171C17.1424 25.2979 17.1603 25.444 17.1266 25.5828C17.0978 25.6915 17.0475 25.7936 16.9785 25.8831C16.9095 25.9727 16.8233 26.0479 16.7247 26.1046C16.4971 26.1632 16.2553 26.1335 16.0494 26.0216C15.3058 25.6263 14.5743 25.231 13.8508 24.7882C13.7608 24.7239 13.6525 24.6893 13.5413 24.6893C13.4301 24.6893 13.3218 24.7239 13.2318 24.7882C11.403 25.8358 9.56212 26.8636 7.73732 27.9192C7.55638 28.0415 7.34195 28.1071 7.12235 28.1071C6.90276 28.1071 6.68832 28.0415 6.50739 27.9192C4.562 26.7885 2.59653 25.6935 0.643104 24.5708C0.424843 24.4214 0.2204 24.2534 0.0321558 24.0687L0 16.3718ZM1.39875 17.7831C1.39875 17.8938 1.37463 17.9571 1.37463 18.0243C1.37463 19.74 1.37463 21.4517 1.37463 23.1634C1.38905 23.2518 1.42274 23.3361 1.47338 23.4105C1.52403 23.4849 1.59044 23.5476 1.66805 23.5943C3.04268 24.385 4.42936 25.1756 5.81605 25.9663L6.36671 26.2707C6.36671 26.1481 6.39484 26.0849 6.39484 26.0177C6.39484 24.302 6.39484 22.5863 6.39484 20.8785C6.38021 20.7897 6.34646 20.7049 6.29586 20.6299C6.24526 20.5549 6.17897 20.4914 6.10143 20.4436C4.65043 19.6016 3.18737 18.7793 1.72834 17.9531C1.65599 17.8938 1.53541 17.8503 1.39875 17.7831ZM2.06596 16.5972C3.72597 17.538 5.32167 18.4473 6.9254 19.3367C7.00027 19.3585 7.0789 19.3648 7.15636 19.3553C7.23383 19.3458 7.30846 19.3206 7.37557 19.2814C8.41257 18.7082 9.43752 18.1192 10.4625 17.5341L12.1225 16.5893C10.4665 15.6484 8.87078 14.7431 7.27107 13.8457C7.21708 13.8205 7.15803 13.8073 7.09823 13.8073C7.03843 13.8073 6.97939 13.8205 6.9254 13.8457C5.32569 14.7234 3.72999 15.6326 2.05793 16.5814L2.06596 16.5972ZM12.7937 17.7831C12.6169 17.8741 12.4923 17.9334 12.3717 18.0006C10.9729 18.7912 9.5782 19.5818 8.17141 20.3725C8.04184 20.4252 7.93286 20.5173 7.86051 20.6355C7.78817 20.7536 7.75626 20.8914 7.76947 21.0287C7.78957 22.61 7.76947 24.211 7.76947 25.8002V26.2904L12.1104 23.8276C11.3548 23.4006 10.6514 23.0014 9.952 22.5981C9.43752 22.3056 9.29282 21.9538 9.51389 21.5743C9.73495 21.1948 10.1288 21.1473 10.6353 21.428L11.3789 21.851L12.7776 22.6416L12.7937 17.7831Z" fill="#FB5A5A"/>
<path d="M29.0865 7.65845C29.0865 8.7021 29.0865 9.74179 29.0865 10.7815C29.0707 10.8978 29.0935 11.0159 29.1514 11.1185C29.2094 11.221 29.2993 11.3025 29.408 11.3507C30.236 11.7975 31.048 12.2679 31.8599 12.7383C32.3221 13.0071 32.4588 13.3906 32.2377 13.7503C32.0166 14.1101 31.6348 14.1457 31.1886 13.9164C30.3566 13.4499 29.5246 12.9834 28.7047 12.4972C28.6147 12.4329 28.5064 12.3983 28.3952 12.3983C28.284 12.3983 28.1756 12.4329 28.0857 12.4972C26.2729 13.5408 24.4441 14.5568 22.6354 15.6084C22.45 15.7365 22.2289 15.8052 22.0023 15.8052C21.7757 15.8052 21.5547 15.7365 21.3693 15.6084C19.6007 14.5726 17.8041 13.5804 16.0356 12.5486C15.9081 12.4543 15.7529 12.4033 15.5934 12.4033C15.4339 12.4033 15.2788 12.4543 15.1513 12.5486C14.3876 13.015 13.5998 13.4459 12.816 13.8808C12.3578 14.1417 11.9398 14.0666 11.7388 13.7029C11.5379 13.3392 11.6826 12.9716 12.1408 12.7027C12.9446 12.2521 13.7204 11.7896 14.5202 11.3587C14.642 11.3072 14.7439 11.2189 14.8111 11.1065C14.8783 10.9942 14.9074 10.8637 14.894 10.7341C14.894 8.6942 14.894 6.65039 14.894 4.61053C14.8744 4.38114 14.9266 4.15132 15.0438 3.95201C15.1609 3.7527 15.3373 3.59346 15.5492 3.49573C17.5026 2.4165 19.448 1.30961 21.3813 0.19085C21.5608 0.0666541 21.7749 0 21.9943 0C22.2137 0 22.4278 0.0666541 22.6072 0.19085C24.5634 1.32674 26.5315 2.44418 28.5117 3.54317C28.705 3.63376 28.8653 3.78054 28.971 3.96367C29.0766 4.14679 29.1226 4.35741 29.1026 4.56705C29.0744 5.60279 29.0865 6.63062 29.0865 7.65845ZM27.0205 4.28242C25.3565 3.3376 23.7769 2.43232 22.1973 1.55075C22.1156 1.5251 22.0293 1.51677 21.944 1.52631C21.8588 1.53585 21.7766 1.56304 21.7029 1.6061C20.3242 2.39674 18.9536 3.16366 17.579 3.94244L16.9841 4.29033L17.1489 4.38125C18.6964 5.25886 20.2398 6.14438 21.7993 7.00618C21.879 7.03447 21.9639 7.04592 22.0484 7.03979C22.1329 7.03366 22.2151 7.01008 22.2897 6.9706C23.1539 6.50412 24.006 6.00997 24.8581 5.52373L27.0205 4.28242ZM22.6796 14.0073L27.0085 11.5524L26.5784 11.2954C26.0961 11.0226 25.6097 10.7499 25.1314 10.4731C25.0378 10.4368 24.9533 10.3811 24.8834 10.3099C24.8136 10.2387 24.7601 10.1535 24.7266 10.0602C24.6931 9.96691 24.6803 9.86762 24.6891 9.76904C24.6979 9.67046 24.7281 9.5749 24.7777 9.48879C24.8315 9.40506 24.9026 9.33338 24.9864 9.27839C25.0702 9.22339 25.1648 9.18631 25.264 9.16954C25.3633 9.15278 25.465 9.15669 25.5627 9.18104C25.6603 9.20539 25.7516 9.24963 25.8308 9.31089C26.0438 9.42554 26.2327 9.55204 26.4618 9.67064L27.6677 10.3506V5.53954C27.6114 5.53954 27.5792 5.53954 27.5591 5.53954C25.9835 6.42901 24.412 7.31453 22.8444 8.21586C22.7961 8.24941 22.756 8.29302 22.7268 8.34359C22.6976 8.39415 22.6801 8.45042 22.6756 8.50839C22.6756 10.319 22.6796 12.1177 22.6796 14.0073ZM21.305 14.0073C21.305 12.1137 21.305 10.315 21.305 8.5163C21.305 8.38585 21.1321 8.21191 20.9955 8.12098C19.5405 7.2829 18.0814 6.45668 16.6184 5.63046C16.5207 5.58098 16.42 5.53741 16.3169 5.5V10.3506C16.96 9.98689 17.5468 9.64692 18.1377 9.3188C18.6039 9.05394 19.0139 9.12114 19.2229 9.48089C19.4319 9.84063 19.2953 10.2162 18.821 10.485C18.2342 10.8289 17.6393 11.161 16.9841 11.5366L21.305 14.0073Z" fill="#FB5A5A"/>
<path d="M29.0871 32.1264C29.0871 33.2531 29.0871 34.3797 29.0871 35.5064C29.101 35.6953 29.0572 35.8839 28.9612 36.0481C28.8652 36.2122 28.7215 36.3443 28.5485 36.4275C26.5468 37.5476 24.5532 38.6795 22.5677 39.8233C22.3984 39.9393 22.1971 40.0014 21.9909 40.0014C21.7846 40.0014 21.5833 39.9393 21.4141 39.8233C19.4285 38.6769 17.4349 37.5449 15.4332 36.4275C15.2598 36.3453 15.1151 36.2142 15.0178 36.0509C14.9204 35.8875 14.8747 35.6993 14.8866 35.5103C14.8866 33.2293 14.8866 30.9483 14.8866 28.6673C14.8763 28.4852 14.9207 28.3041 15.0143 28.1466C15.108 27.9892 15.2467 27.8623 15.4131 27.7818C17.4362 26.6433 19.454 25.4969 21.4663 24.3425C21.62 24.2402 21.8013 24.1855 21.9869 24.1855C22.1724 24.1855 22.3537 24.2402 22.5074 24.3425C24.5224 25.4969 26.5401 26.6433 28.5606 27.7818C28.7334 27.8664 28.8761 28.0003 28.9701 28.1661C29.0641 28.3319 29.1049 28.5218 29.0871 28.7108C29.0791 29.8454 29.0871 30.9879 29.0871 32.1264ZM22.6802 38.1946C24.3442 37.2498 25.9319 36.3563 27.5035 35.4273C27.5667 35.3701 27.6169 35.3003 27.6508 35.2227C27.6848 35.145 27.7017 35.0612 27.7004 34.9767C27.7004 33.3282 27.7004 31.6797 27.7004 30.0352C27.7004 29.9284 27.6763 29.8217 27.6602 29.6715C27.4954 29.7545 27.3708 29.8177 27.2583 29.8849C26.0806 30.553 24.9351 31.2844 23.7212 31.8615C23.3541 31.9902 23.0452 32.2428 22.8495 32.5742C22.6538 32.9057 22.5838 33.2947 22.6521 33.6721C22.7485 35.1625 22.6802 36.641 22.6802 38.1946ZM16.3095 29.6596C16.2894 29.8019 16.2733 29.8573 16.2733 29.9087C16.2733 31.6283 16.2733 33.3479 16.2733 35.0478C16.2881 35.1371 16.3224 35.2221 16.3737 35.2972C16.4251 35.3722 16.4923 35.4355 16.5707 35.4827C17.8248 36.214 19.0909 36.9256 20.357 37.6411C20.6464 37.8072 20.9438 37.9692 21.2413 38.1353C21.2694 38.076 21.2895 38.0523 21.2895 38.0285C21.2895 36.2535 21.2895 34.4706 21.2895 32.7036C21.2744 32.6277 21.2434 32.5559 21.1984 32.4925C21.1534 32.4292 21.0955 32.3759 21.0282 32.3359C20.4816 32.0039 19.9189 31.6955 19.3602 31.3792L16.3095 29.6596ZM26.997 28.4736C26.939 28.4272 26.8786 28.3837 26.8161 28.3432C25.2968 27.4774 23.7775 26.6038 22.2501 25.7578C22.1577 25.7246 22.0592 25.7106 21.9609 25.7167C21.8627 25.7228 21.7668 25.7489 21.6794 25.7934C20.2364 26.584 18.8055 27.4102 17.3706 28.2246C17.254 28.2918 17.1375 28.3709 16.9687 28.4697C18.6086 29.3987 20.1842 30.3079 21.7919 31.2053C21.8547 31.2345 21.9234 31.2497 21.9929 31.2497C22.0624 31.2497 22.131 31.2345 22.1939 31.2053C23.7815 30.3158 25.3692 29.4145 26.997 28.5053V28.4736Z" fill="#FB5A5A"/>
</svg>
