<svg width="34" height="40" viewBox="0 0 34 40" fill="none" xmlns="http://www.w3.org/2000/svg">
<path d="M19.5098 0.0356025C20.3705 0.166134 21.2372 0.255132 22.086 0.439062C27.6659 1.62571 31.3226 4.99578 33.0974 10.4069C33.9389 12.9616 34.1965 15.6723 33.8513 18.3396C33.5194 20.9725 32.7992 23.5418 31.7143 25.9638C31.1207 27.3641 30.3787 28.7228 29.6664 30.0755C29.4025 30.5379 29.3281 31.0844 29.4586 31.6004C30.0139 33.9542 30.8866 36.2216 32.0527 38.3405C32.1595 38.5304 32.3614 38.6669 32.4445 38.8627C32.5686 39.0758 32.6128 39.326 32.5691 39.5687C32.492 39.7586 32.1952 39.8713 31.9755 39.984C31.8737 40.0053 31.7686 40.0053 31.6669 39.984H15.6513C14.9093 39.984 14.7372 39.8357 14.6422 39.1059C14.5269 38.0815 14.2016 37.0918 13.6865 36.1986L13.1463 36.347C11.437 36.8972 9.66276 37.2204 7.86915 37.3082C7.04743 37.3719 6.22758 37.1634 5.53627 36.7148C5.20028 36.499 4.9301 36.1951 4.75527 35.8361C4.58044 35.4772 4.50768 35.0772 4.54495 34.6797C4.54495 34.2347 4.59244 33.7957 4.63993 33.3566C4.63993 33.06 4.63993 32.8879 4.27783 32.7989C3.78513 32.6743 3.27463 32.3895 3.20934 31.8852C3.10135 31.2784 2.93843 30.6826 2.72258 30.1052C2.62868 29.6869 2.59471 29.2574 2.62167 28.8296C2.62167 28.076 2.50888 27.993 1.79062 27.8269C1.38823 27.7375 1.00585 27.5746 0.662762 27.3463C0.367262 27.17 0.149638 26.8883 0.0537932 26.5579C-0.0420519 26.2276 -0.0089863 25.8732 0.146322 25.5663C0.311934 25.1706 0.510501 24.7896 0.739929 24.4271C1.07829 23.8338 1.42851 23.2939 1.80249 22.748C2.19013 22.1597 2.44827 21.4958 2.55982 20.8002C2.67137 20.1047 2.63377 19.3934 2.44952 18.7134C2.24769 17.7878 1.99838 16.8682 1.85591 15.9307C1.7021 14.3456 1.90491 12.7461 2.44952 11.2494C3.53938 7.70754 5.88422 4.68455 9.04449 2.74709C11.455 1.20934 14.2072 0.288298 17.0582 0.0652659C17.1471 0.0519423 17.2346 0.0300859 17.3194 0L19.5098 0.0356025ZM30.6815 38.6609L30.4974 38.2753C29.4238 36.1963 28.6256 33.9863 28.123 31.7013C28.0252 31.3708 27.9948 31.024 28.0336 30.6816C28.0723 30.3392 28.1794 30.008 28.3486 29.7077C28.6751 29.1796 28.9422 28.61 29.2271 28.0583C30.2369 26.1954 31.0506 24.2329 31.655 22.2021C32.7947 18.4227 33.0618 14.6313 31.8331 10.8163C31.1132 8.38126 29.7054 6.20569 27.7787 4.55079C25.1609 2.36736 22.0623 1.47145 18.7203 1.37651C15.8947 1.29951 13.1009 1.98838 10.6354 3.37008C6.18331 5.82643 3.64267 9.57624 3.14998 14.6432C3.07997 15.3118 3.14456 15.9876 3.33993 16.6308C3.73171 16.3935 4.07007 16.1562 4.4381 15.9663C4.88509 15.6857 5.38384 15.4975 5.90486 15.4129C6.42587 15.3284 6.95857 15.3491 7.47143 15.4739C7.64584 15.5123 7.79799 15.618 7.89473 15.768C7.99147 15.9181 8.02495 16.1002 7.98787 16.2749C7.94418 16.4467 7.83586 16.595 7.68546 16.6889C7.53507 16.7829 7.35422 16.8152 7.18057 16.7792C6.93917 16.7242 6.69205 16.6983 6.44449 16.702C5.55926 16.8543 4.72762 17.2301 4.02851 17.7938C3.89841 17.8624 3.79844 17.9769 3.74799 18.115C3.69753 18.2531 3.70019 18.4051 3.75545 18.5413C3.96647 19.3283 4.01424 20.15 3.89582 20.9561C3.77741 21.7622 3.49531 22.5355 3.06687 23.2286C2.55637 24.0296 2.0518 24.8306 1.57692 25.6494C1.22075 26.2427 1.28605 26.3732 1.98651 26.5275H2.06367C2.33528 26.5363 2.6021 26.6014 2.84726 26.7186C3.09243 26.8358 3.31061 27.0025 3.48801 27.2083C3.66542 27.414 3.79819 27.6543 3.87794 27.914C3.95769 28.1736 3.98269 28.447 3.95135 28.7168V29.7908C4.46185 29.8798 5.01984 29.7018 5.23947 30.2773C5.45911 30.8528 4.84769 31.0842 4.5034 31.4165C4.57936 31.4604 4.65877 31.4981 4.74084 31.5292C5.5897 31.7131 6.02897 32.0573 5.96961 33.3804C5.96961 33.7957 5.90431 34.211 5.88057 34.6263C5.82645 34.8598 5.86565 35.1052 5.98983 35.3102C6.114 35.5152 6.31335 35.6637 6.54541 35.724C6.98106 35.8888 7.44515 35.9655 7.9107 35.9494C8.97394 35.8787 10.0299 35.724 11.0687 35.4866C13.7518 34.8103 16.4468 34.122 18.471 32.0098C18.5263 31.9533 18.5923 31.9084 18.6652 31.8777C18.738 31.8471 18.8163 31.8313 18.8954 31.8313C18.9745 31.8313 19.0528 31.8471 19.1256 31.8777C19.1985 31.9084 19.2645 31.9533 19.3198 32.0098C19.3839 32.0575 19.4376 32.1177 19.4778 32.1867C19.518 32.2557 19.5439 32.3321 19.5539 32.4113C19.5639 32.4905 19.5577 32.5709 19.5359 32.6477C19.514 32.7245 19.4769 32.7961 19.4267 32.8582C19.2822 33.059 19.1193 33.2457 18.9399 33.416C18.0864 34.1568 17.1207 34.7576 16.0787 35.1959C15.7226 35.368 15.3545 35.5222 15.0577 35.6528C15.3427 36.5428 15.6513 37.3734 15.8591 38.2219C15.9422 38.5482 16.0669 38.6135 16.3755 38.6135C20.9938 38.6135 25.6121 38.6135 30.2303 38.6135L30.6815 38.6609Z" fill="#C305D3"/>
<path d="M29.3477 16.6707C29.1126 16.6815 28.8778 16.6457 28.6567 16.5652C28.4356 16.4847 28.2326 16.3613 28.0595 16.202C27.9982 16.1224 27.909 16.0691 27.8099 16.0526C27.7108 16.036 27.6091 16.0576 27.5253 16.113C27.276 16.2317 27.0148 16.3147 26.7655 16.4275C26.6961 16.4521 26.6335 16.4929 26.583 16.5466C26.5326 16.6003 26.4956 16.6652 26.4753 16.736C26.455 16.8068 26.4519 16.8814 26.4662 16.9536C26.4805 17.0258 26.5119 17.0936 26.5577 17.1513C26.8842 17.62 27.2166 18.0888 27.5609 18.5397C27.6495 18.6473 27.7668 18.7275 27.8993 18.7711C28.1577 18.8505 28.3973 18.9817 28.6035 19.1565C28.8097 19.3314 28.9781 19.5463 29.0986 19.7883C29.2191 20.0303 29.2891 20.2942 29.3043 20.564C29.3196 20.8339 29.2798 21.104 29.1874 21.358C29.0961 21.6163 28.9519 21.8528 28.764 22.0524C28.5761 22.2519 28.3487 22.41 28.0962 22.5167C27.8436 22.6233 27.5716 22.6761 27.2976 22.6717C27.0235 22.6674 26.7533 22.6059 26.5043 22.4912C26.3539 22.4519 26.194 22.4733 26.0591 22.5505C25.786 22.7285 25.5486 22.954 25.2874 23.1439C24.9088 23.4101 24.611 23.7755 24.4267 24.2C24.3084 24.4364 24.1437 24.6466 23.9424 24.8181C23.741 24.9896 23.5073 25.1188 23.2549 25.1981C23.0026 25.2774 22.7369 25.305 22.4737 25.2795C22.2104 25.254 21.955 25.1757 21.7226 25.0494C21.4903 24.9232 21.2857 24.7514 21.1212 24.5444C20.9566 24.3375 20.8354 24.0995 20.7648 23.8447C20.6942 23.59 20.6756 23.3236 20.7102 23.0615C20.7447 22.7994 20.8317 22.5469 20.9659 22.3192C21.0462 22.2247 21.0903 22.1049 21.0903 21.981C21.0903 21.857 21.0462 21.7372 20.9659 21.6428C20.3723 20.7468 19.7787 19.8628 19.1851 18.9372C19.1408 18.8468 19.0697 18.7722 18.9817 18.7234C18.8936 18.6746 18.7926 18.654 18.6924 18.6643C18.321 18.6777 17.9539 18.5813 17.6372 18.3871C17.3204 18.1929 17.068 17.9095 16.9116 17.5726C16.8745 17.5142 16.8249 17.4648 16.7664 17.4279C16.7079 17.3909 16.6419 17.3674 16.5733 17.359C15.5463 17.359 14.5134 17.359 13.4865 17.359C13.4176 17.3689 13.3516 17.3936 13.2932 17.4316C13.2348 17.4695 13.1853 17.5196 13.1481 17.5785C13.0212 17.8252 12.8441 18.0426 12.6282 18.217C12.4124 18.3913 12.1625 18.5187 11.8946 18.5911C11.6267 18.6634 11.3466 18.679 11.0723 18.637C10.7979 18.5949 10.5354 18.4961 10.3015 18.3469C10.0675 18.1976 9.86735 18.0012 9.71369 17.7702C9.56003 17.5392 9.45629 17.2787 9.40911 17.0054C9.36193 16.732 9.37235 16.4518 9.43969 16.1827C9.50703 15.9136 9.62982 15.6615 9.8002 15.4425C9.87354 15.3061 9.89058 15.1464 9.84769 14.9975C9.57463 14.2796 9.2897 13.5676 8.98103 12.8675C8.91165 12.7248 8.79386 12.6112 8.6486 12.5471C8.26303 12.3973 7.93362 12.1313 7.706 11.786C7.47838 11.4407 7.36381 11.0332 7.37815 10.62C7.3925 10.2067 7.53506 9.80814 7.78608 9.47945C8.0371 9.15077 8.38416 8.90824 8.7792 8.78545C8.90124 8.75225 9.01201 8.68664 9.09975 8.59559C9.46778 8.12686 9.82988 7.65221 10.1742 7.15975C10.1992 7.1006 10.212 7.03705 10.212 6.97285C10.212 6.90865 10.1992 6.8451 10.1742 6.78595C10.0004 6.37432 9.97046 5.91619 10.0892 5.48546C10.2078 5.05473 10.4683 4.67653 10.8284 4.41188C11.1885 4.14723 11.6273 4.01157 12.0741 4.02678C12.5208 4.04199 12.9493 4.20719 13.2906 4.49572C13.4101 4.58395 13.5584 4.62418 13.7061 4.60846C14.4244 4.47793 15.1367 4.33553 15.8431 4.1694C15.9917 4.1215 16.1153 4.01705 16.1874 3.87867C16.3442 3.52642 16.5997 3.22715 16.9232 3.01712C17.2466 2.80709 17.6241 2.69531 18.0098 2.69531C18.3955 2.69531 18.7729 2.80709 19.0964 3.01712C19.4198 3.22715 19.6754 3.52642 19.8322 3.87867C19.9052 4.01886 20.028 4.12676 20.1764 4.18126C20.6573 4.32959 21.1559 4.44826 21.6486 4.54913C21.7934 4.57173 21.9413 4.54003 22.0641 4.46013C22.3877 4.19317 22.7873 4.03502 23.2061 4.00819C23.6248 3.98135 24.0413 4.08718 24.3964 4.31064C24.7515 4.5341 25.027 4.86379 25.1838 5.25281C25.3405 5.64183 25.3706 6.07036 25.2696 6.47743C25.2679 6.60513 25.3074 6.72998 25.3824 6.83342C25.4417 6.92242 25.5664 6.97581 25.6436 7.05888C25.7902 7.25723 26.0006 7.39911 26.2395 7.4607C26.4783 7.52228 26.7312 7.49981 26.9554 7.39707C27.3363 7.29478 27.74 7.31872 28.1061 7.46529C28.4721 7.61185 28.7807 7.87314 28.9856 8.20993C29.2203 8.53456 29.3466 8.92487 29.3466 9.32537C29.3466 9.72588 29.2203 10.1162 28.9856 10.4408C28.9171 10.5245 28.8797 10.6294 28.8797 10.7375C28.8797 10.8456 28.9171 10.9504 28.9856 11.0341C29.1399 11.3071 29.2705 11.5859 29.4011 11.8707C29.5743 12.3397 29.9235 12.7228 30.3746 12.9387C30.7602 13.1386 31.0641 13.4665 31.2342 13.866C31.4042 14.2655 31.4298 14.7118 31.3066 15.1281C31.2071 15.571 30.958 15.9662 30.6012 16.2471C30.2445 16.5281 29.8018 16.6777 29.3477 16.6707ZM26.2669 19.0025C26.0175 18.6583 25.8038 18.338 25.5605 18.0354C25.5165 17.9964 25.4643 17.9677 25.4079 17.9513C25.3514 17.9348 25.292 17.9311 25.234 17.9404C24.7987 18.0699 24.3321 18.0456 23.9127 17.8716C23.4932 17.6976 23.1465 17.3846 22.9308 16.9852C22.8931 16.9424 22.8464 16.9085 22.7941 16.886C22.7417 16.8634 22.685 16.8527 22.628 16.8546C22.2066 16.9199 21.7911 17.0504 21.3696 17.0979C20.9481 17.1454 20.4673 17.2937 20.313 17.8158C20.2658 17.9462 20.2658 18.0889 20.313 18.2193C20.9481 19.2161 21.6011 20.2069 22.26 21.1859C22.3075 21.263 22.4144 21.358 22.4915 21.352C22.8514 21.3213 23.2131 21.3857 23.5403 21.5388C23.8674 21.6919 24.1486 21.9282 24.3554 22.2242C24.6938 21.9572 25.0143 21.708 25.3171 21.447C25.3532 21.4154 25.3816 21.376 25.4001 21.3318C25.4186 21.2876 25.4268 21.2397 25.4239 21.1918C25.3195 20.7846 25.3445 20.3549 25.4955 19.9626C25.6466 19.5702 25.9162 19.2346 26.2669 19.0025ZM25.2637 9.50931C25.3404 9.3934 25.39 9.26172 25.4088 9.12404C25.4276 8.98636 25.4152 8.84621 25.3724 8.71398C25.3297 8.58175 25.2577 8.46085 25.1618 8.36024C25.0659 8.25963 24.9485 8.18189 24.8185 8.1328C24.7285 8.07939 24.6465 8.01347 24.5751 7.937C24.4326 7.77087 24.2901 7.78273 24.0943 7.8658C23.8407 7.98557 23.5635 8.04682 23.283 8.04499C23.0026 8.04316 22.7262 7.97831 22.4742 7.85524C22.2223 7.73218 22.0013 7.55404 21.8275 7.33403C21.6538 7.11401 21.5318 6.85775 21.4705 6.58422C21.4538 6.3361 21.3421 6.10395 21.1586 5.93601C20.9751 5.76807 20.7339 5.67723 20.4851 5.68237C20.3367 5.68237 20.1883 5.59337 20.034 5.58151C19.9879 5.57512 19.941 5.57813 19.8961 5.59037C19.8512 5.60261 19.8093 5.62381 19.7728 5.65271C19.5888 5.8663 19.4285 6.0977 19.2445 6.34096L21.5417 8.62525C21.6405 8.70673 21.7561 8.76548 21.8801 8.79732C22.3729 8.93926 22.7958 9.25837 23.0673 9.69324C23.1025 9.74644 23.15 9.79038 23.2058 9.82136C23.2616 9.85234 23.3241 9.86945 23.3879 9.87123C24.029 9.7585 24.676 9.62204 25.2637 9.50337V9.50931ZM14.7034 12.2564C14.5253 11.9775 14.3769 11.7224 14.1988 11.491C14.1603 11.4513 14.1142 11.4198 14.0632 11.3983C14.0122 11.3769 13.9574 11.3661 13.902 11.3664C13.0947 11.3664 12.2934 11.3664 11.486 11.3664C11.3763 11.3645 11.27 11.4049 11.1892 11.4791C10.9043 11.8233 10.6372 12.1793 10.3107 12.6005L11.0349 14.3805C11.0641 14.4565 11.1107 14.5245 11.171 14.5793C11.2312 14.6341 11.3035 14.674 11.3819 14.6959C11.4603 14.7178 11.5428 14.7211 11.6227 14.7055C11.7026 14.6899 11.7778 14.6558 11.8422 14.606C12.8098 13.8465 13.7596 13.0455 14.7034 12.2564ZM12.9582 15.4485C13.2312 16.0418 13.2312 16.0418 13.8011 16.0418C14.5431 16.0418 15.2851 16.0418 16.0271 16.0418C16.4961 16.0418 16.9294 16.0418 17.1016 15.5078C17.1431 15.3832 17.2856 15.2349 17.25 15.1459C16.9176 14.3568 16.5614 13.5736 16.1993 12.7726L12.9582 15.4485ZM14.6025 9.25418L12.6851 8.02006C12.6275 7.99306 12.5647 7.97889 12.5011 7.97853C12.145 7.97853 11.7828 7.94293 11.4267 7.937C11.3545 7.93391 11.2841 7.95951 11.2308 8.0082C10.9637 8.34046 10.7144 8.67865 10.5007 8.96345C10.75 9.29571 10.9399 9.55677 11.1655 9.84157C11.2065 9.8916 11.257 9.93307 11.314 9.96361C11.371 9.99415 11.4335 10.0132 11.4979 10.0196C12.2993 10.0196 13.1066 10.0196 13.908 10.0196C14.0267 10.0092 14.1371 9.95407 14.2166 9.8653C14.3532 9.6873 14.466 9.47964 14.6025 9.25418ZM20.3011 12.4759C20.0498 12.2216 19.8214 11.9456 19.6185 11.6512C19.5832 11.549 19.5119 11.4632 19.418 11.4097C19.3241 11.3562 19.2139 11.3387 19.108 11.3605C18.9919 11.3778 18.8738 11.3778 18.7577 11.3605C18.505 11.2838 18.2323 11.3092 17.9982 11.4313C17.764 11.5533 17.587 11.7622 17.5052 12.0131C17.4606 12.1096 17.4501 12.2184 17.4755 12.3217C17.7902 13.0633 18.1166 13.799 18.4491 14.5288C18.4724 14.5854 18.5108 14.6345 18.5599 14.671C18.609 14.7076 18.6672 14.7301 18.7281 14.7361C18.789 14.7422 18.8505 14.7317 18.9058 14.7056C18.9612 14.6796 19.0085 14.639 19.0427 14.5881C19.4701 13.8762 19.8915 13.1464 20.3011 12.4759ZM14.086 5.90784L13.7655 7.13008L15.8016 8.43539L16.9888 6.49522C16.7276 6.18076 16.508 5.9019 16.2705 5.62897C16.231 5.5946 16.1847 5.56891 16.1345 5.55358C16.0844 5.53824 16.0317 5.53361 15.9797 5.53997C15.3326 5.65271 14.7093 5.78324 14.086 5.90784ZM24.771 13.9355C25.1628 12.9506 25.5427 12.0013 25.9285 11.0519C26.0354 10.785 25.9285 10.7256 25.6733 10.779C24.9312 10.9273 24.1952 11.0638 23.4591 11.2181C23.3497 11.2463 23.2533 11.3112 23.186 11.402C23.008 11.669 22.8536 11.9479 22.6696 12.2564L24.771 13.9355ZM21.5002 13.0277C21.055 13.7753 20.6098 14.4695 20.2239 15.1993C20.1586 15.3179 20.3249 15.5849 20.4258 15.7511C20.4671 15.7928 20.5176 15.8242 20.5733 15.8427C20.629 15.8613 20.6882 15.8665 20.7463 15.8579C21.3399 15.7511 21.9335 15.6265 22.5271 15.4959C22.6221 15.4706 22.7071 15.4168 22.7705 15.3417C22.9545 15.0687 23.1148 14.778 23.2988 14.4754L21.5002 13.0277ZM17.0185 8.95752C17.1965 9.12365 17.428 9.23637 17.4874 9.40844C17.7427 10.1204 18.3125 10.0611 18.8824 10.0018C19.0109 10.0107 19.1398 10.0107 19.2682 10.0018C19.3615 9.98329 19.4455 9.93294 19.5057 9.85936C19.7016 9.60424 19.8796 9.33724 20.0459 9.09398L18.0988 7.14194L17.0185 8.95752ZM28.297 12.8438C28.113 12.47 27.8933 12.0131 27.6559 11.5681C27.6025 11.4791 27.4719 11.3664 27.3828 11.3723C27.2938 11.3783 27.1751 11.5029 27.1395 11.6037C26.7655 12.4997 26.4034 13.3837 26.0472 14.3093C26.0265 14.3591 26.0158 14.4126 26.0158 14.4665C26.0158 14.5205 26.0265 14.5739 26.0472 14.6238C26.3737 15.1518 26.3737 15.134 26.9554 14.9204C27.0674 14.8937 27.167 14.8299 27.2381 14.7394C27.3093 14.6489 27.3477 14.5371 27.3472 14.422C27.3525 14.2538 27.3972 14.0892 27.4778 13.9414C27.7568 13.5795 28.0299 13.2413 28.3326 12.8438H28.297ZM16.6445 10.696C16.6368 10.5186 16.5609 10.3511 16.4326 10.2283C16.3043 10.1056 16.1335 10.0372 15.9559 10.0374C15.7917 10.0564 15.6403 10.1353 15.5307 10.259C15.4212 10.3828 15.3612 10.5426 15.3623 10.7078C15.363 10.7951 15.3813 10.8813 15.4159 10.9613C15.4506 11.0414 15.5009 11.1138 15.564 11.174C15.6271 11.2343 15.7016 11.2814 15.7832 11.3124C15.8648 11.3434 15.9518 11.3577 16.039 11.3545C16.2097 11.347 16.3711 11.2747 16.4902 11.1523C16.6093 11.0299 16.6772 10.8667 16.6801 10.696H16.6445ZM19.3454 16.7063C19.3347 16.5306 19.2565 16.3658 19.127 16.2463C18.9976 16.1269 18.827 16.0621 18.6509 16.0655C18.4859 16.0758 18.3306 16.1471 18.2154 16.2655C18.1001 16.384 18.0332 16.5412 18.0276 16.7063C18.035 16.8765 18.1063 17.0376 18.2274 17.1575C18.3484 17.2774 18.5103 17.3472 18.6806 17.353C18.8517 17.3461 19.0141 17.2763 19.1369 17.1569C19.2596 17.0375 19.3338 16.8771 19.3454 16.7063ZM27.3591 10.0552C27.5338 10.0504 27.6996 9.97653 27.8198 9.84968C27.94 9.72283 28.0049 9.55344 28.0002 9.37878C27.9955 9.20411 27.9215 9.03847 27.7946 8.9183C27.6677 8.79813 27.4982 8.73326 27.3235 8.73799C27.237 8.74032 27.1517 8.75967 27.0727 8.79493C26.9936 8.83019 26.9223 8.88066 26.8628 8.94347C26.7425 9.07032 26.6777 9.2397 26.6824 9.41437C26.6871 9.58904 26.7611 9.75468 26.888 9.87485C27.0149 9.99502 27.1843 10.0599 27.3591 10.0552ZM27.3591 20.0527C27.1887 20.0553 27.0255 20.1222 26.9022 20.2399C26.779 20.3576 26.7047 20.5175 26.6943 20.6875C26.6903 20.7747 26.7038 20.8618 26.7341 20.9436C26.7644 21.0255 26.8108 21.1005 26.8706 21.1641C26.9303 21.2277 27.0023 21.2787 27.0821 21.314C27.1619 21.3494 27.248 21.3683 27.3353 21.3698C27.5053 21.3703 27.6691 21.3062 27.7936 21.1905C27.9181 21.0749 27.9941 20.9163 28.0061 20.7468C28.0126 20.6561 28.0006 20.5649 27.971 20.4789C27.9414 20.3929 27.8947 20.3137 27.8337 20.2461C27.7727 20.1785 27.6988 20.1239 27.6162 20.0856C27.5336 20.0472 27.4442 20.026 27.3532 20.023L27.3591 20.0527ZM22.6755 24.0279C22.7628 24.0295 22.8495 24.0136 22.9304 23.9811C23.0114 23.9487 23.0851 23.9003 23.1471 23.8389C23.2091 23.7775 23.2581 23.7044 23.2913 23.6237C23.3245 23.543 23.3412 23.4565 23.3404 23.3693C23.336 23.1996 23.2674 23.0379 23.1485 22.9168C23.0295 22.7956 22.8689 22.7241 22.6993 22.7167C22.5228 22.7196 22.3541 22.7902 22.2282 22.9139C22.1022 23.0375 22.0286 23.2048 22.0226 23.3812C22.0356 23.5456 22.1088 23.6994 22.2282 23.8132C22.3476 23.9271 22.5047 23.9929 22.6696 23.9983L22.6755 24.0279ZM22.0107 10.7493C22.0108 10.5724 21.9422 10.4024 21.8192 10.2751C21.6963 10.1478 21.5287 10.0732 21.3518 10.067C21.1827 10.0752 21.0224 10.1449 20.9011 10.2629C20.7797 10.3809 20.7057 10.5391 20.6929 10.7078C20.6902 10.7943 20.7045 10.8805 20.7351 10.9614C20.7657 11.0424 20.8119 11.1165 20.8712 11.1796C20.9304 11.2427 21.0015 11.2935 21.0804 11.3291C21.1593 11.3647 21.2445 11.3844 21.331 11.3872C21.5058 11.3927 21.6756 11.3286 21.803 11.209C21.9305 11.0893 22.0052 10.924 22.0107 10.7493ZM11.3555 16.0893C11.2259 16.0904 11.0996 16.1298 10.9923 16.2023C10.885 16.2749 10.8015 16.3775 10.7522 16.4972C10.7029 16.617 10.69 16.7486 10.7151 16.8756C10.7403 17.0027 10.8023 17.1195 10.8935 17.2114C10.9847 17.3034 11.101 17.3665 11.2279 17.3927C11.3547 17.419 11.4865 17.4073 11.6068 17.3591C11.727 17.3109 11.8304 17.2283 11.9039 17.1217C11.9775 17.0151 12.018 16.8892 12.0203 16.7597C12.0277 16.6673 12.0158 16.5743 11.9854 16.4867C11.955 16.3991 11.9068 16.3187 11.8438 16.2507C11.7807 16.1827 11.7043 16.1285 11.6192 16.0915C11.5341 16.0545 11.4423 16.0356 11.3495 16.0359L11.3555 16.0893ZM9.3728 10.0908C9.20253 10.0921 9.03927 10.1587 8.91667 10.2768C8.79408 10.395 8.7215 10.5556 8.7139 10.7256C8.70242 10.8153 8.70973 10.9064 8.73534 10.9932C8.76096 11.0799 8.80434 11.1604 8.86271 11.2295C8.92109 11.2986 8.9932 11.3548 9.07447 11.3946C9.15573 11.4343 9.24438 11.4568 9.33478 11.4605C9.42519 11.4642 9.51538 11.4491 9.59964 11.4161C9.68389 11.3832 9.76037 11.3331 9.82423 11.269C9.88808 11.2049 9.93791 11.1283 9.97056 11.0439C10.0032 10.9596 10.018 10.8694 10.0139 10.779C10.0256 10.6868 10.0177 10.5932 9.99065 10.5042C9.96358 10.4153 9.91799 10.3331 9.85688 10.2631C9.79576 10.193 9.7205 10.1367 9.63605 10.0978C9.55159 10.0589 9.45986 10.0383 9.36687 10.0374L9.3728 10.0908ZM23.9993 6.0265C23.9985 5.93899 23.9803 5.85252 23.9458 5.77212C23.9112 5.69172 23.8609 5.61902 23.7979 5.55826C23.7349 5.49749 23.6604 5.44989 23.5788 5.41823C23.4972 5.38656 23.4101 5.37148 23.3226 5.37384C23.2368 5.37696 23.1525 5.39693 23.0745 5.43261C22.9965 5.46828 22.9262 5.51897 22.8678 5.58178C22.7498 5.70863 22.687 5.87714 22.6933 6.05023C22.6996 6.22333 22.7745 6.38683 22.9014 6.50478C23.0283 6.62272 23.1969 6.68545 23.3701 6.67915C23.5391 6.67301 23.6991 6.60154 23.8165 6.4798C23.9339 6.35807 23.9994 6.19556 23.9993 6.0265ZM29.9888 14.6594C29.9857 14.4899 29.9161 14.3284 29.7951 14.2097C29.6741 14.091 29.5113 14.0245 29.3417 14.0245C29.1649 14.0276 28.9964 14.1004 28.873 14.2271C28.7496 14.3538 28.6812 14.5241 28.6828 14.7009C28.689 14.8709 28.7613 15.0317 28.8844 15.1492C29.0075 15.2667 29.1716 15.3315 29.3417 15.3298C29.4284 15.3324 29.5147 15.317 29.5951 15.2846C29.6756 15.2523 29.7485 15.2036 29.8092 15.1418C29.87 15.08 29.9173 15.0062 29.9482 14.9253C29.9791 14.8443 29.9929 14.7578 29.9888 14.6712V14.6594ZM18.0276 5.35605C18.1149 5.35618 18.2012 5.3385 18.2814 5.3041C18.3616 5.26969 18.434 5.21928 18.494 5.15596C18.554 5.09263 18.6005 5.01772 18.6305 4.93582C18.6605 4.85392 18.6735 4.76675 18.6687 4.67966C18.661 4.50915 18.5874 4.34828 18.4634 4.23096C18.3393 4.11364 18.1746 4.04902 18.0039 4.05073C17.8341 4.05664 17.673 4.12667 17.5529 4.2467C17.4328 4.36672 17.3627 4.52781 17.3568 4.69746C17.3568 4.78495 17.3742 4.87157 17.4081 4.95226C17.4419 5.03295 17.4915 5.10608 17.554 5.1674C17.6164 5.22871 17.6905 5.27697 17.7718 5.30936C17.8531 5.34175 17.9401 5.35762 18.0276 5.35605ZM25.3349 16.0062C25.3257 15.8304 25.2477 15.6654 25.1177 15.5466C24.9878 15.4278 24.8163 15.3649 24.6404 15.3713C24.4746 15.3864 24.3208 15.4642 24.2104 15.5888C24.1001 15.7134 24.0415 15.8755 24.0468 16.0418C24.0465 16.1291 24.0643 16.2155 24.0992 16.2955C24.1341 16.3755 24.1853 16.4473 24.2495 16.5065C24.3137 16.5657 24.3896 16.6108 24.4722 16.6391C24.5548 16.6674 24.6424 16.6781 24.7294 16.6707C24.8963 16.6586 25.0522 16.5829 25.1648 16.4592C25.2775 16.3356 25.3384 16.1734 25.3349 16.0062ZM12.6851 6.0265C12.6834 5.89527 12.6421 5.7676 12.5667 5.66018C12.4912 5.55276 12.3852 5.47056 12.2623 5.42432C12.1394 5.37808 12.0054 5.36995 11.8778 5.40098C11.7502 5.43202 11.635 5.50077 11.5471 5.59828C11.4592 5.69579 11.4028 5.81752 11.3852 5.94758C11.3675 6.07764 11.3896 6.20998 11.4484 6.32734C11.5071 6.44469 11.6 6.54161 11.7147 6.60543C11.8294 6.66925 11.9608 6.69701 12.0915 6.68509C12.2563 6.67293 12.41 6.59765 12.5206 6.47494C12.6312 6.35223 12.6902 6.19158 12.6851 6.0265Z" fill="#C305D3"/>
</svg>
