<svg width="51" height="50" viewBox="0 0 51 50" fill="none" xmlns="http://www.w3.org/2000/svg">
<path d="M11.9309 50C11.6636 49.9275 11.4015 49.8395 11.146 49.7364C10.4448 49.4697 9.85181 49.0033 9.45151 48.4036C9.05122 47.804 8.86408 47.1018 8.9168 46.397C8.9168 41.1684 8.9168 35.925 8.9168 30.6817V29.9933H4.70958C3.87755 29.9933 3.56358 29.715 3.56358 28.9388V20.0193H1.17739C0.313972 20.0193 0 19.7263 0 18.9354V14.3805C0 13.6335 0.298274 13.3406 1.0989 13.326H3.62638V3.65948C3.58089 3.16988 3.65079 2.67692 3.83115 2.2152C4.01151 1.75347 4.29797 1.33415 4.67043 0.986648C5.0429 0.639151 5.49235 0.371894 5.98726 0.203625C6.48217 0.0353558 7.01055 -0.0298516 7.53533 0.0125805H36.2951C36.9225 -0.0191306 37.5501 0.0728033 38.1369 0.282397C38.7236 0.491991 39.2565 0.814547 39.7008 1.22905C40.1451 1.64356 40.4909 2.14073 40.7155 2.68818C40.9402 3.23563 41.0387 3.82109 41.0047 4.40643C41.0047 10.47 41.0047 16.5335 41.0047 22.6116V23.2854H48.854C49.686 23.2854 50 23.5636 50 24.3399V28.8802C50 29.6565 49.7017 29.9347 48.8697 29.9347H41.1146V43.292H41.821C42.7076 43.2596 43.5753 43.5368 44.2544 44.0696C44.9335 44.6024 45.3751 45.3524 45.4929 46.1728C45.6106 46.9933 45.3961 47.8253 44.8912 48.506C44.3864 49.1867 43.6275 49.6672 42.763 49.8535C42.7023 49.8771 42.6444 49.9066 42.5903 49.9414L11.9309 50ZM24.113 30.008C24.1536 30.2653 24.1536 30.5268 24.113 30.7842C24.0031 31.0771 23.8462 31.4433 23.595 31.5458C23.4403 31.5987 23.2745 31.617 23.1109 31.5992C22.9473 31.5814 22.7905 31.528 22.6531 31.4433C20.8634 30.0958 19.0895 28.724 17.3312 27.3277C17.2179 27.255 17.1252 27.1577 17.0612 27.0442C16.9972 26.9306 16.9637 26.8043 16.9637 26.676C16.9637 26.5477 16.9972 26.4213 17.0612 26.3077C17.1252 26.1942 17.2179 26.0969 17.3312 26.0242C19.0895 24.5596 20.8477 23.2561 22.6531 21.9086C22.7911 21.8255 22.9471 21.772 23.11 21.7517C23.2728 21.7314 23.4384 21.745 23.595 21.7915C23.8563 21.9823 24.0393 22.2512 24.113 22.5531C24.1525 22.8056 24.1525 23.0621 24.113 23.3147H39.2936V4.46502C39.3388 4.0861 39.2919 3.70254 39.1562 3.34291C39.0205 2.98328 38.7995 2.65685 38.5098 2.38796C38.2201 2.11907 37.8691 1.91464 37.4829 1.78992C37.0967 1.66519 36.6853 1.62338 36.2794 1.6676H10.2041C10.6293 2.42343 10.8093 3.27844 10.7221 4.12816C10.7221 7.0574 10.7221 9.88411 10.7221 12.7694V13.326H25.9184C25.8781 13.0784 25.8781 12.8266 25.9184 12.579C25.9936 12.2772 26.1695 12.0054 26.4207 11.8028C26.5799 11.7561 26.748 11.7424 26.9134 11.7626C27.0788 11.7829 27.2375 11.8365 27.3783 11.9199C29.1523 13.2527 30.9105 14.6295 32.6531 16.0062C32.7763 16.0788 32.8778 16.1794 32.9481 16.2984C33.0185 16.4175 33.0554 16.5513 33.0554 16.6873C33.0554 16.8232 33.0185 16.957 32.9481 17.0761C32.8778 17.1952 32.7763 17.2957 32.6531 17.3683C30.9105 18.745 29.1523 20.1218 27.3783 21.4546C27.2403 21.5377 27.0843 21.5913 26.9214 21.6115C26.7586 21.6318 26.593 21.6182 26.4364 21.5718C26.1751 21.381 25.9921 21.112 25.9184 20.8102C25.8786 20.5576 25.8786 20.3011 25.9184 20.0486H10.7064V33.0104C10.7064 37.4043 10.7064 41.9592 10.7064 46.4263C10.6705 46.6651 10.6899 46.9083 10.7634 47.1395C10.8369 47.3707 10.9627 47.5845 11.1323 47.7664C11.302 47.9483 11.5116 48.0941 11.7468 48.1939C11.9821 48.2937 12.2376 48.3452 12.4961 48.345C13.5636 48.345 14.27 47.5834 14.2857 46.4117V44.537C14.2857 43.5557 14.5055 43.3506 15.573 43.3506H39.2465V30.008H24.113ZM27.6923 14.2926C27.4568 14.9517 26.9702 15.0249 26.405 15.0249H1.82104V18.3642H26.4207C27.0016 18.3642 27.4882 18.4521 27.708 19.0819L30.7535 16.7092L27.6923 14.2926ZM22.3234 29.0267C22.3968 28.7864 22.5617 28.5793 22.7872 28.4445C23.0127 28.3096 23.2832 28.2562 23.5479 28.2944H48.1947V24.999H23.6421C23.0455 24.999 22.5432 24.999 22.3234 24.2813L19.325 26.6686L22.3234 29.0267ZM15.8242 48.345H42.0408C42.2878 48.3523 42.5337 48.3119 42.7631 48.2261C42.9925 48.1404 43.2004 48.0113 43.3737 47.847C43.547 47.6826 43.6819 47.4865 43.7699 47.2711C43.858 47.0557 43.8973 46.8256 43.8853 46.5953C43.8733 46.3651 43.8104 46.1396 43.7004 45.9332C43.5905 45.7267 43.4359 45.5437 43.2464 45.3958C43.0569 45.2478 42.8366 45.138 42.5994 45.0734C42.3622 45.0088 42.1132 44.9907 41.8681 45.0203H16.4992H16.1852L15.8242 48.345ZM8.9168 13.3113V4.52361C8.9168 4.05493 8.9168 3.58625 8.9168 3.05899C8.87846 2.68265 8.70075 2.33055 8.41424 2.06324C8.12772 1.79594 7.75031 1.63014 7.34694 1.59437C6.94565 1.54827 6.53945 1.63031 6.19452 1.82712C5.84959 2.02393 5.58625 2.3239 5.44741 2.67818C5.35957 2.95877 5.31724 3.25004 5.32183 3.54231V13.2234L8.9168 13.3113ZM5.36892 28.309H8.8854V20.0486H5.36892V28.309Z" fill="#410EAD"/>
<path d="M17.8984 38.3142V36.7031H35.6692V38.3142H17.8984Z" fill="#410EAD"/>
<path d="M17.8984 41.6501V40.0391H35.6692V41.6501H17.8984Z" fill="#410EAD"/>
<path d="M14.3125 6.63159V5.03516H23.1822V6.63159H14.3125Z" fill="#410EAD"/>
<path d="M23.1978 8.35938V9.9851H14.3438V8.35938H23.1978Z" fill="#410EAD"/>
<path d="M35.6771 33.4219V35.033H30.3867V33.4219H35.6771Z" fill="#410EAD"/>
<path d="M12.9309 50C12.6636 49.9275 12.4015 49.8395 12.146 49.7364C11.4448 49.4697 10.8518 49.0033 10.4515 48.4036C10.0512 47.804 9.86408 47.1018 9.9168 46.397C9.9168 41.1684 9.9168 35.925 9.9168 30.6817V29.9933H5.70958C4.87755 29.9933 4.56358 29.715 4.56358 28.9388V20.0193H2.17739C1.31397 20.0193 1 19.7263 1 18.9354V14.3805C1 13.6335 1.29827 13.3406 2.0989 13.326H4.62638V3.65948C4.58089 3.16988 4.65079 2.67692 4.83115 2.2152C5.01151 1.75347 5.29797 1.33415 5.67043 0.986648C6.0429 0.639151 6.49235 0.371894 6.98726 0.203625C7.48217 0.0353558 8.01055 -0.0298516 8.53533 0.0125805H37.2951C37.9225 -0.0191306 38.5501 0.0728033 39.1369 0.282397C39.7236 0.491991 40.2565 0.814547 40.7008 1.22905C41.1451 1.64356 41.4909 2.14073 41.7155 2.68818C41.9402 3.23563 42.0387 3.82109 42.0047 4.40643C42.0047 10.47 42.0047 16.5335 42.0047 22.6116V23.2854H49.854C50.686 23.2854 51 23.5636 51 24.3399V28.8802C51 29.6565 50.7017 29.9347 49.8697 29.9347H42.1146V43.292H42.821C43.7076 43.2596 44.5753 43.5368 45.2544 44.0696C45.9335 44.6024 46.3751 45.3524 46.4929 46.1728C46.6106 46.9933 46.3961 47.8253 45.8912 48.506C45.3864 49.1867 44.6275 49.6672 43.763 49.8535C43.7023 49.8771 43.6444 49.9066 43.5903 49.9414L12.9309 50ZM25.113 30.008C25.1536 30.2653 25.1536 30.5268 25.113 30.7842C25.0031 31.0771 24.8462 31.4433 24.595 31.5458C24.4403 31.5987 24.2745 31.617 24.1109 31.5992C23.9473 31.5814 23.7905 31.528 23.6531 31.4433C21.8634 30.0958 20.0895 28.724 18.3312 27.3277C18.2179 27.255 18.1252 27.1577 18.0612 27.0442C17.9972 26.9306 17.9637 26.8043 17.9637 26.676C17.9637 26.5477 17.9972 26.4213 18.0612 26.3077C18.1252 26.1942 18.2179 26.0969 18.3312 26.0242C20.0895 24.5596 21.8477 23.2561 23.6531 21.9086C23.7911 21.8255 23.9471 21.772 24.11 21.7517C24.2728 21.7314 24.4384 21.745 24.595 21.7915C24.8563 21.9823 25.0393 22.2512 25.113 22.5531C25.1525 22.8056 25.1525 23.0621 25.113 23.3147H40.2936V4.46502C40.3388 4.0861 40.2919 3.70254 40.1562 3.34291C40.0205 2.98328 39.7995 2.65685 39.5098 2.38796C39.2201 2.11907 38.8691 1.91464 38.4829 1.78992C38.0967 1.66519 37.6853 1.62338 37.2794 1.6676H11.2041C11.6293 2.42343 11.8093 3.27844 11.7221 4.12816C11.7221 7.0574 11.7221 9.88411 11.7221 12.7694V13.326H26.9184C26.8781 13.0784 26.8781 12.8266 26.9184 12.579C26.9936 12.2772 27.1695 12.0054 27.4207 11.8028C27.5799 11.7561 27.748 11.7424 27.9134 11.7626C28.0788 11.7829 28.2375 11.8365 28.3783 11.9199C30.1523 13.2527 31.9105 14.6295 33.6531 16.0062C33.7763 16.0788 33.8778 16.1794 33.9481 16.2984C34.0185 16.4175 34.0554 16.5513 34.0554 16.6873C34.0554 16.8232 34.0185 16.957 33.9481 17.0761C33.8778 17.1952 33.7763 17.2957 33.6531 17.3683C31.9105 18.745 30.1523 20.1218 28.3783 21.4546C28.2403 21.5377 28.0843 21.5913 27.9214 21.6115C27.7586 21.6318 27.593 21.6182 27.4364 21.5718C27.1751 21.381 26.9921 21.112 26.9184 20.8102C26.8786 20.5576 26.8786 20.3011 26.9184 20.0486H11.7064V33.0104C11.7064 37.4043 11.7064 41.9592 11.7064 46.4263C11.6705 46.6651 11.6899 46.9083 11.7634 47.1395C11.8369 47.3707 11.9627 47.5845 12.1323 47.7664C12.302 47.9483 12.5116 48.0941 12.7468 48.1939C12.9821 48.2937 13.2376 48.3452 13.4961 48.345C14.5636 48.345 15.27 47.5834 15.2857 46.4117V44.537C15.2857 43.5557 15.5055 43.3506 16.573 43.3506H40.2465V30.008H25.113ZM28.6923 14.2926C28.4568 14.9517 27.9702 15.0249 27.405 15.0249H2.82104V18.3642H27.4207C28.0016 18.3642 28.4882 18.4521 28.708 19.0819L31.7535 16.7092L28.6923 14.2926ZM23.3234 29.0267C23.3968 28.7864 23.5617 28.5793 23.7872 28.4445C24.0127 28.3096 24.2832 28.2562 24.5479 28.2944H49.1947V24.999H24.6421C24.0455 24.999 23.5432 24.999 23.3234 24.2813L20.325 26.6686L23.3234 29.0267ZM16.8242 48.345H43.0408C43.2878 48.3523 43.5337 48.3119 43.7631 48.2261C43.9925 48.1404 44.2004 48.0113 44.3737 47.847C44.547 47.6826 44.6819 47.4865 44.7699 47.2711C44.858 47.0557 44.8973 46.8256 44.8853 46.5953C44.8733 46.3651 44.8104 46.1396 44.7004 45.9332C44.5905 45.7267 44.4359 45.5437 44.2464 45.3958C44.0569 45.2478 43.8366 45.138 43.5994 45.0734C43.3622 45.0088 43.1132 44.9907 42.8681 45.0203H17.4992H17.1852L16.8242 48.345ZM9.9168 13.3113V4.52361C9.9168 4.05493 9.9168 3.58625 9.9168 3.05899C9.87846 2.68265 9.70075 2.33055 9.41424 2.06324C9.12772 1.79594 8.75031 1.63014 8.34694 1.59437C7.94565 1.54827 7.53945 1.63031 7.19452 1.82712C6.84959 2.02393 6.58625 2.3239 6.44741 2.67818C6.35957 2.95877 6.31724 3.25004 6.32183 3.54231V13.2234L9.9168 13.3113ZM6.36892 28.309H9.8854V20.0486H6.36892V28.309Z" fill="url(#paint0_linear_1407_1387)"/>
<path d="M18.8984 38.3142V36.7031H36.6692V38.3142H18.8984Z" fill="url(#paint1_linear_1407_1387)"/>
<path d="M18.8984 41.6501V40.0391H36.6692V41.6501H18.8984Z" fill="url(#paint2_linear_1407_1387)"/>
<path d="M15.3125 6.63159V5.03516H24.1822V6.63159H15.3125Z" fill="url(#paint3_linear_1407_1387)"/>
<path d="M24.1978 8.35938V9.9851H15.3438V8.35938H24.1978Z" fill="url(#paint4_linear_1407_1387)"/>
<path d="M36.6771 33.4219V35.033H31.3867V33.4219H36.6771Z" fill="url(#paint5_linear_1407_1387)"/>
<defs>
<linearGradient id="paint0_linear_1407_1387" x1="7.5" y1="1.5" x2="45" y2="49.5" gradientUnits="userSpaceOnUse">
<stop stop-color="white" stop-opacity="0.66"/>
<stop offset="0.9999" stop-color="#C9C9C9" stop-opacity="0.01"/>
<stop offset="1" stop-color="#C8C8C8" stop-opacity="0"/>
</linearGradient>
<linearGradient id="paint1_linear_1407_1387" x1="21.2086" y1="36.7515" x2="21.3842" y2="39.2297" gradientUnits="userSpaceOnUse">
<stop stop-color="white" stop-opacity="0.66"/>
<stop offset="0.9999" stop-color="#C9C9C9" stop-opacity="0.01"/>
<stop offset="1" stop-color="#C8C8C8" stop-opacity="0"/>
</linearGradient>
<linearGradient id="paint2_linear_1407_1387" x1="21.2086" y1="40.0874" x2="21.3842" y2="42.5656" gradientUnits="userSpaceOnUse">
<stop stop-color="white" stop-opacity="0.66"/>
<stop offset="0.9999" stop-color="#C9C9C9" stop-opacity="0.01"/>
<stop offset="1" stop-color="#C8C8C8" stop-opacity="0"/>
</linearGradient>
<linearGradient id="paint3_linear_1407_1387" x1="16.4656" y1="5.08305" x2="16.8059" y2="7.50318" gradientUnits="userSpaceOnUse">
<stop stop-color="white" stop-opacity="0.66"/>
<stop offset="0.9999" stop-color="#C9C9C9" stop-opacity="0.01"/>
<stop offset="1" stop-color="#C8C8C8" stop-opacity="0"/>
</linearGradient>
<linearGradient id="paint4_linear_1407_1387" x1="16.4948" y1="8.40815" x2="16.848" y2="10.8707" gradientUnits="userSpaceOnUse">
<stop stop-color="white" stop-opacity="0.66"/>
<stop offset="0.9999" stop-color="#C9C9C9" stop-opacity="0.01"/>
<stop offset="1" stop-color="#C8C8C8" stop-opacity="0"/>
</linearGradient>
<linearGradient id="paint5_linear_1407_1387" x1="32.0745" y1="33.4702" x2="32.6353" y2="35.8274" gradientUnits="userSpaceOnUse">
<stop stop-color="white" stop-opacity="0.66"/>
<stop offset="0.9999" stop-color="#C9C9C9" stop-opacity="0.01"/>
<stop offset="1" stop-color="#C8C8C8" stop-opacity="0"/>
</linearGradient>
</defs>
</svg>
