<svg width="18" height="18" viewBox="0 0 18 18" fill="none" xmlns="http://www.w3.org/2000/svg">
<path d="M1.60577 4.73094L9 0.46188L16.3942 4.73094V13.2691L9 17.5381L1.60577 13.2691V4.73094Z" stroke="#410EAD" stroke-width="0.8"/>
<path d="M8.98711 5H9.03536H9.05948C9.13369 5 9.20977 5 9.28584 5.0111C9.38974 5.0111 9.49736 5.02775 9.60126 5.04255C9.78985 5.07064 9.97595 5.11332 10.1579 5.17021C10.5541 5.2892 10.9296 5.46829 11.2711 5.7012C11.6094 5.93257 11.9098 6.21465 12.1618 6.53747C12.5254 7.00305 12.779 7.54437 12.9039 8.12118C12.9318 8.24144 12.9503 8.3654 12.9689 8.49121C12.9819 8.58002 12.9893 8.67623 12.9967 8.75948C13.0041 8.84274 12.9967 8.89454 12.9967 8.96115V8.9889V9.02035V9.0481C12.9967 9.15726 12.9967 9.26827 12.98 9.37743C12.9633 9.48659 12.9522 9.61795 12.9299 9.73636C12.7951 10.4729 12.4535 11.1562 11.9447 11.7068C11.7324 11.9396 11.4925 12.1459 11.2303 12.321C10.963 12.5016 10.6745 12.6488 10.3713 12.7595C10.0047 12.8948 9.62028 12.9758 9.23018 13C9.13369 13 9.04463 13 8.94073 13C8.83682 13 8.78858 13 8.71437 13C8.60304 13 8.49357 12.9778 8.3841 12.963C8.21148 12.9396 8.0409 12.9031 7.87386 12.8538C7.61265 12.778 7.35968 12.6763 7.1187 12.5504C6.4662 12.201 5.92449 11.6768 5.55457 11.037C5.36846 10.7244 5.22671 10.3875 5.13339 10.0361C5.07874 9.83354 5.04089 9.62686 5.0202 9.41813C5.0202 9.33673 5.00536 9.25347 5.00165 9.17206C4.99794 9.09066 5.00165 8.99815 5.00165 8.91119C5.00165 8.82424 5.00165 8.70028 5.02206 8.59482C5.04247 8.48936 5.05175 8.35985 5.07401 8.24329C5.13768 7.90542 5.24625 7.57752 5.39686 7.26827C5.55575 6.9398 5.75929 6.63474 6.00173 6.3617C6.22048 6.11418 6.46987 5.89534 6.7439 5.71045C7.12087 5.45162 7.53942 5.2589 7.98147 5.14061C8.15247 5.09374 8.32675 5.05973 8.50285 5.03885C8.59191 5.0296 8.68839 5.0185 8.77188 5.01295C8.85538 5.0074 8.90548 5.01295 8.97227 5.01295L8.98711 5ZM8.95186 6.85014C8.63341 6.85014 8.32211 6.94428 8.0573 7.12066C7.79249 7.29704 7.58607 7.54774 7.46412 7.84107C7.34217 8.13441 7.31017 8.45721 7.37216 8.76868C7.43415 9.08015 7.58735 9.3663 7.8124 9.59096C8.03745 9.81563 8.32424 9.96872 8.63653 10.0309C8.94882 10.0931 9.27258 10.0615 9.56689 9.94027C9.86121 9.819 10.1129 9.61346 10.2901 9.34961C10.4672 9.08576 10.562 8.77545 10.5624 8.45791C10.5629 8.24671 10.5216 8.03748 10.4408 7.84221C10.3601 7.64695 10.2416 7.46948 10.092 7.31996C9.94238 7.17044 9.76468 7.05182 9.56904 6.97088C9.3734 6.88995 9.16367 6.84829 8.95186 6.84829V6.85014ZM9.23018 11.6605H9.26543C9.32715 11.6483 9.38355 11.6172 9.42685 11.5717L10.49 10.5116C10.5311 10.4713 10.5578 10.4187 10.5658 10.3618C10.5739 10.305 10.5629 10.247 10.5345 10.197C10.5151 10.1593 10.4869 10.1267 10.4523 10.102C10.4177 10.0773 10.3777 10.0612 10.3356 10.055C10.2934 10.0489 10.2505 10.0529 10.2102 10.0666C10.1699 10.0804 10.1336 10.1035 10.1041 10.1341L9.03164 11.2035C8.99934 11.2337 8.97551 11.2718 8.96249 11.3139C8.94947 11.3561 8.94773 11.401 8.95743 11.444C8.97058 11.5066 9.00483 11.5627 9.05446 11.6031C9.10409 11.6435 9.16611 11.6657 9.23018 11.6661V11.6605ZM11.106 7.12211C11.1065 7.05029 11.0785 6.9812 11.0281 6.9299C10.9777 6.8786 10.909 6.84926 10.837 6.84829C10.7835 6.84793 10.7311 6.86337 10.6864 6.89267C10.6417 6.92197 10.6067 6.96381 10.5858 7.01292C10.5649 7.06202 10.559 7.1162 10.569 7.16862C10.5789 7.22103 10.6042 7.26934 10.6416 7.30744C10.6791 7.34555 10.727 7.37174 10.7794 7.38273C10.8317 7.39372 10.8861 7.389 10.9358 7.36918C10.9855 7.34936 11.0281 7.31532 11.0584 7.27135C11.0887 7.22738 11.1053 7.17545 11.106 7.12211Z" fill="#410EAD"/>
<path d="M7.88477 8.44658C7.88442 8.2351 7.94718 8.0283 8.06506 7.8525C8.18294 7.6767 8.35061 7.53985 8.54673 7.45936C8.74285 7.37887 8.95855 7.35838 9.16638 7.40051C9.37421 7.44263 9.56478 7.54546 9.71382 7.69591C9.86286 7.84636 9.96364 8.03762 10.0033 8.24536C10.043 8.4531 10.0198 8.66792 9.93673 8.86248C9.85362 9.05704 9.71433 9.22254 9.53659 9.33792C9.35886 9.4533 9.15072 9.51334 8.93866 9.51041C8.65766 9.50796 8.38905 9.39469 8.19157 9.19534C7.99408 8.99599 7.88378 8.72679 7.88477 8.44658Z" fill="#410EAD"/>
</svg>
