<svg width="46" height="47" viewBox="0 0 46 47" fill="none" xmlns="http://www.w3.org/2000/svg">
<path fill-rule="evenodd" clip-rule="evenodd" d="M32.5591 0.160427C31.6029 0.493183 31.078 1.29612 31.078 2.42609C31.078 2.82659 31.0436 3.18779 31.0016 3.2288C30.9596 3.26981 30.6931 3.09458 30.4094 2.83938C29.8416 2.32843 29.0734 1.94175 28.6203 1.9389C27.8507 1.93387 27.3937 2.18838 26.2941 3.23394C25.6906 3.80784 25.0992 4.48306 24.9801 4.73437C24.5535 5.6336 24.796 6.64592 25.6216 7.41264C26.2369 7.98402 26.1839 8.10374 25.3141 8.10671C24.1353 8.11071 23.3455 8.57666 22.9497 9.50147C22.6728 10.1481 22.6996 12.6881 22.9898 13.3017C23.4065 14.183 24.1799 14.6154 25.3396 14.6154C26.1825 14.6154 26.233 14.7392 25.6216 15.3069C24.7969 16.0729 24.5541 17.0837 24.9783 17.9852C25.0993 18.2423 25.6807 18.9008 26.3079 19.4908C27.5116 20.6233 28.0248 20.8736 28.8437 20.7276C29.3723 20.6333 30.0985 20.2235 30.54 19.7701C30.7269 19.5782 30.9244 19.4482 30.9789 19.4811C31.0335 19.5139 31.078 19.8739 31.078 20.2812C31.078 21.5498 31.7003 22.3612 32.8687 22.6165C33.2289 22.6951 34.0367 22.7344 34.7831 22.7094C35.9741 22.6696 36.1182 22.6398 36.6378 22.3248C37.3398 21.8994 37.6641 21.3207 37.722 20.3901C37.7879 19.333 37.7967 19.3282 38.5024 19.9579C39.4309 20.7862 40.3319 20.9484 41.3186 20.4651C41.8318 20.2135 43.3401 18.7522 43.6956 18.1618C44.271 17.2066 44.0667 16.1978 43.0996 15.2191C42.5577 14.6707 42.569 14.6593 43.7398 14.581C44.7125 14.5159 45.2411 14.219 45.6792 13.4917C45.9876 12.9796 46 12.8975 46 11.3598C46 9.91591 45.9743 9.71337 45.7343 9.27518C45.3397 8.55404 44.6857 8.17959 43.7334 8.1299C42.5857 8.06981 42.5723 8.05599 43.1092 7.48746C43.7678 6.79019 43.9959 6.31693 43.9959 5.64822C43.9959 4.89658 43.7467 4.45998 42.7348 3.4383C41.0219 1.70872 39.8863 1.52721 38.5024 2.76171C37.7967 3.39135 37.7879 3.38655 37.722 2.32945C37.6486 1.1515 37.0656 0.396772 36.0073 0.109822C35.3833 -0.0593543 33.0941 -0.0257702 32.5591 0.160427ZM35.6593 3.05836C35.6953 3.83217 35.7461 4.01026 36.0363 4.38174C36.983 5.59327 38.4273 5.66079 39.6708 4.5516L40.2841 4.00431L41.0648 4.77195C41.494 5.19426 41.8453 5.59259 41.8453 5.65724C41.8453 5.7219 41.6545 5.95185 41.4214 6.16843C40.6212 6.91139 40.3644 7.88807 40.739 8.76308C41.1388 9.69727 41.9113 10.1604 43.0694 10.1604H43.8349V11.3598V12.5592H43.0694C40.7034 12.5592 39.711 14.9629 41.4214 16.5512C41.6545 16.7677 41.8453 16.9976 41.8453 17.0621C41.8453 17.2056 40.4301 18.6135 40.2859 18.6135C40.2291 18.6135 39.9198 18.3829 39.5987 18.1009C38.4075 17.0556 36.9633 17.1517 36.0363 18.3378C35.7461 18.7093 35.6953 18.8874 35.6593 19.6612L35.6176 20.5554H34.4139H33.2103L33.1663 19.7059C33.1291 18.986 33.069 18.7827 32.7732 18.3738C31.8849 17.1465 30.2547 17.0493 29.146 18.1575C28.8951 18.4083 28.6333 18.6135 28.5641 18.6135C28.4951 18.6135 28.0834 18.2642 27.6494 17.8374L26.8603 17.0612L27.2241 16.7236C28.1783 15.838 28.4452 14.71 27.9325 13.7291C27.5459 12.9894 26.9135 12.6394 25.8275 12.5641L24.9337 12.5021V11.3598V10.2175L25.8157 10.1562C26.8916 10.0815 27.4359 9.79094 27.8774 9.05586C28.4567 8.09106 28.2287 6.93926 27.2828 6.05248L26.8612 5.65713L27.7045 4.82849L28.5479 3.99986L29.1528 4.55822C30.0795 5.4137 30.9507 5.54964 32.038 5.00818C32.7478 4.65475 33.1152 4.00192 33.1669 3.00262L33.2103 2.16416H34.4139H35.6176L35.6593 3.05836ZM20.8375 3.32521C14.3692 4.03721 8.47766 8.02035 5.52745 13.6761C4.05023 16.508 3.49549 18.7013 3.33959 22.326C3.21331 25.2635 3.04783 25.8903 1.37949 29.7511C0.673539 31.3846 0.0664787 32.8753 0.030432 33.0638C-0.0931569 33.71 0.166192 34.4729 0.690158 35.0044C1.18838 35.5099 1.37481 35.5842 3.83325 36.2549C4.4423 36.4211 4.50702 36.4697 4.56717 36.8067C4.81049 38.1698 5.68088 43.6093 5.68111 43.7686C5.68182 44.1971 6.18308 45.2344 6.62781 45.7275C6.91829 46.0497 7.39696 46.3926 7.87973 46.6245L8.66117 47H12.8183C16.7873 47 17.0124 46.9886 17.7946 46.7466C20.5042 45.9087 22.3642 43.5972 22.4506 40.9607C22.4742 40.2378 22.4535 40.1659 22.1476 39.9084C21.6268 39.4701 20.8302 39.5687 20.5345 40.108C20.4615 40.241 20.3566 40.7008 20.3015 41.1294C20.1146 42.5821 19.2105 43.8296 17.8531 44.5079L17.2094 44.8296L13.1132 44.8608C9.20773 44.8906 8.99952 44.8815 8.64292 44.6664C7.96423 44.2568 7.90431 44.0585 7.25313 40.07C6.52997 35.6407 6.56625 35.8054 6.19911 35.2828C5.80681 34.7245 5.27407 34.4621 3.6522 34.0285C2.86022 33.8167 2.2397 33.5891 2.20354 33.4973C2.16878 33.4089 2.65576 32.1443 3.28576 30.6871C3.91576 29.2298 4.57478 27.6263 4.75022 27.1237C5.18723 25.8719 5.44739 24.2854 5.44739 22.8725C5.44739 17.8798 7.21369 13.6556 10.715 10.2746C13.6213 7.46815 17.3113 5.77513 21.4174 5.36424C22.3855 5.26737 22.5035 5.22842 22.7978 4.9088C22.9748 4.71666 23.1197 4.45484 23.1197 4.32713C23.1197 3.95622 22.8121 3.47668 22.4793 3.32875C22.1416 3.17854 22.169 3.17865 20.8375 3.32521ZM33.6946 6.84971C31.1799 7.20165 29.3054 9.72628 29.7832 12.1181C30.5136 15.7742 35.0275 17.1696 37.6977 14.5649C38.0235 14.2471 38.4448 13.6787 38.6339 13.3017C38.9511 12.6697 38.9779 12.5184 38.9779 11.3598C38.9779 10.2232 38.9475 10.0428 38.6593 9.47075C37.706 7.57782 35.7752 6.55853 33.6946 6.84971ZM35.3828 9.08122C37.4316 9.91659 37.4316 12.803 35.3828 13.6384C34.1345 14.1474 32.5663 13.5337 32.0411 12.3308C31.8176 11.8188 31.8174 10.9024 32.0408 10.3854C32.2527 9.89466 32.7931 9.35069 33.3201 9.09721C33.8158 8.85869 34.8181 8.85093 35.3828 9.08122ZM21.5239 14.6042C20.6623 14.8183 19.9683 15.6727 19.9623 16.5264L19.9597 16.8953L19.4531 16.5467C18.3249 15.7705 17.3882 15.9932 16.0557 17.3545C14.7887 18.6489 14.637 19.446 15.4577 20.4956L15.8413 20.9858L15.2272 21.0355C14.4776 21.0962 13.9593 21.4293 13.6279 22.0632C13.4158 22.469 13.3918 22.6908 13.4258 23.9305C13.459 25.1433 13.4981 25.3817 13.7091 25.6594C14.0841 26.1526 14.6624 26.4836 15.2914 26.565L15.8615 26.6388L15.5167 27.0222C15.0254 27.5682 14.8698 28.1477 15.0444 28.7804C15.1499 29.1631 15.4012 29.5043 16.0795 30.186C17.1392 31.2509 17.4118 31.4074 18.2061 31.4074C18.8666 31.4074 19.1566 31.2961 19.6379 30.8581L19.9597 30.5651L19.9623 30.9577C19.9653 31.4186 20.2997 32.1817 20.6204 32.4597C21.0893 32.866 21.676 33.0066 22.9034 33.0066C23.8782 33.0066 24.1928 32.9624 24.6058 32.7672C25.2368 32.4691 25.6944 31.7645 25.6944 31.091V30.6232L26.2913 31.0154C27.4339 31.7658 28.4242 31.5085 29.7669 30.1124C30.4367 29.416 30.7269 28.875 30.7269 28.3232C30.7269 27.8851 30.4423 27.2076 30.1158 26.8683L29.8669 26.6097L30.2092 26.601C31.4276 26.5701 32.2472 25.7105 32.2479 24.4627C32.2483 23.8511 32.2054 23.7016 31.9611 23.4632C31.3877 22.9035 30.3466 23.238 30.1942 24.031C30.1251 24.3902 30.0859 24.4171 29.5278 24.4893C28.7665 24.5879 28.3571 24.799 27.9722 25.2917C27.3824 26.0463 27.4391 27.0889 28.1116 27.8557L28.5357 28.3394L28.0314 28.841L27.527 29.3426L27.0861 28.9538C26.292 28.2536 25.3391 28.1591 24.5079 28.6981C24.0039 29.025 23.5878 29.8244 23.5878 30.4661V30.9613L22.8563 30.9274L22.1249 30.8934L22.0936 30.4364C22.0422 29.6834 21.9624 29.4802 21.5369 29.0205C21.0702 28.5163 20.3169 28.2537 19.6745 28.3714C19.4481 28.4128 19.0182 28.6291 18.7192 28.8518L18.1754 29.257L17.6676 28.7705L17.1598 28.2841L17.5586 27.8532C18.2997 27.0526 18.3397 26.0278 17.6606 25.2401C17.2662 24.7826 16.8588 24.5841 16.1158 24.488L15.5124 24.4098V23.7392V23.0685L16.0098 23.066C17.9056 23.0564 18.8276 21.0256 17.5586 19.6546L17.1598 19.2237L17.6754 18.7298L18.191 18.2358L18.6203 18.6037C19.362 19.2394 20.0954 19.3529 20.9661 18.967C21.6393 18.6685 21.9849 18.1497 22.0444 17.3484L22.0926 16.6967L22.537 16.6273C23.0513 16.547 23.5878 16.0121 23.5878 15.5794C23.5878 15.4281 23.4429 15.1488 23.266 14.9589C22.9118 14.5786 22.2054 14.4348 21.5239 14.6042ZM22.2407 19.9887C21.0187 20.1515 19.7659 21.0885 19.219 22.2488C18.8339 23.0658 18.8596 24.5057 19.2748 25.3701C19.6707 26.1941 20.3904 26.8952 21.2298 27.2742C21.7648 27.5157 22.0698 27.5735 22.8292 27.5767C23.658 27.5802 23.8589 27.5368 24.5493 27.2052C25.9565 26.5294 26.7478 25.3077 26.7478 23.8107C26.7478 21.398 24.6996 19.6612 22.2407 19.9887ZM23.822 22.2975C24.8739 22.9984 24.9155 24.419 23.9059 25.1706C23.0129 25.8354 21.7891 25.5502 21.2764 24.5579C20.9523 23.9307 20.9462 23.6181 21.2462 23.0133C21.6973 22.1036 22.9912 21.744 23.822 22.2975ZM41.0568 23.0036C40.7511 23.2547 40.6785 23.4119 40.6165 23.9575C40.4603 25.3304 40.1768 26.6001 39.7409 27.8801C39.2089 29.4415 38.7396 30.3831 37.6377 32.0999C36.7909 33.4193 36.3717 34.3548 36.0284 35.6911C35.8486 36.3911 35.8228 37.1058 35.8205 41.4285L35.818 46.3661L36.1366 46.6774C36.5725 47.103 37.1698 47.1031 37.6059 46.6777L37.9246 46.3668L37.9891 41.2575C38.0667 35.1046 37.9922 35.4705 39.7123 32.7856C40.1323 32.13 40.6845 31.1534 40.9393 30.6152C41.9078 28.5706 42.6459 25.8563 42.6975 24.1507C42.727 23.1749 42.5427 22.8806 41.8318 22.768C41.5022 22.7158 41.3515 22.7616 41.0568 23.0036Z" fill="#FF2E00"/>
</svg>
