<svg width="35" height="35" viewBox="0 0 35 35" fill="none" xmlns="http://www.w3.org/2000/svg">
<path fill-rule="evenodd" clip-rule="evenodd" d="M0 3C0 1.34315 1.34315 0 3 0H32C33.6569 0 35 1.34315 35 3V32C35 33.6569 33.6569 35 32 35H3C1.34315 35 0 33.6569 0 32V3ZM18 27C22.9705 27 27 22.9705 27 18C27 13.0295 22.9705 9 18 9C13.0295 9 9 13.0295 9 18C9 22.9705 13.0295 27 18 27ZM18 25.65C13.775 25.65 10.35 22.225 10.35 18C10.35 13.775 13.775 10.35 18 10.35C22.225 10.35 25.65 13.775 25.65 18C25.65 22.225 22.225 25.65 18 25.65ZM25.1988 17.9998C25.1988 21.9763 21.9753 25.1998 17.9988 25.1998C14.0224 25.1998 10.7988 21.9763 10.7988 17.9998C10.7988 14.0234 14.0224 10.7998 17.9988 10.7998C21.9753 10.7998 25.1988 14.0234 25.1988 17.9998ZM17.5488 11.7029C17.5488 11.4523 17.7503 11.2498 17.9988 11.2498C18.058 11.2497 18.1166 11.2613 18.1713 11.2839C18.226 11.3065 18.2756 11.3396 18.3174 11.3815C18.3593 11.4233 18.3924 11.473 18.4149 11.5277C18.4375 11.5824 18.449 11.6411 18.4488 11.7002V18.4498H14.3967C14.1539 18.4498 13.9488 18.2484 13.9488 17.9998C13.9486 17.9408 13.96 17.8822 13.9825 17.8276C14.0049 17.773 14.038 17.7234 14.0796 17.6816C14.1213 17.6397 14.1709 17.6066 14.2254 17.584C14.28 17.5614 14.3384 17.5497 14.3975 17.5498H17.5488V11.7029Z" fill="white"/>
</svg>
