<svg width="52" height="51" viewBox="0 0 52 51" fill="none" xmlns="http://www.w3.org/2000/svg">
<path fill-rule="evenodd" clip-rule="evenodd" d="M2.41507 0.145993C-0.0330392 0.936187 -0.81541 4.00602 0.981875 5.76925C1.71061 6.48414 2.36284 6.74942 3.40159 6.75303C4.11472 6.75558 4.37587 6.70676 4.87379 6.47754C5.63969 6.12515 6.22733 5.55067 6.56705 4.82238L6.83275 4.25268L9.23491 4.2813L11.6371 4.30991L12.18 5.32039C12.4786 5.87615 13.0251 6.88907 13.3945 7.57131L14.0659 8.81175L13.5016 9.22998C11.6281 10.6186 10.113 12.2005 8.75043 14.1907C4.77735 19.9937 4.11927 27.451 7.01751 33.8267C8.37127 36.8046 10.6533 39.6782 13.1812 41.5884C13.6729 41.9599 14.0731 42.292 14.0707 42.3264C14.0682 42.3608 13.5195 43.3941 12.8515 44.6227L11.6369 46.8564L9.24846 46.885L6.85995 46.9135L6.71377 46.5127C5.68748 43.6989 1.68525 43.466 0.346443 46.1422C0.0850749 46.6647 0.0425972 46.8769 0.0438975 47.6541C0.0451979 48.4314 0.0870254 48.636 0.341892 49.1131C1.00062 50.3459 2.0812 50.9989 3.45577 50.9945C4.0627 50.9926 4.41119 50.9302 4.83218 50.7481C5.49579 50.461 6.39399 49.5781 6.60487 49.0058L6.75018 48.6114H9.55295C11.1849 48.6114 12.4389 48.5677 12.555 48.5066C12.6647 48.4491 13.0093 47.9345 13.3207 47.3632C13.6322 46.7919 14.2698 45.6268 14.7375 44.7739L15.588 43.2234L16.9239 43.8731C22.6397 46.6528 29.3814 46.6563 35.1632 43.8826L36.517 43.2332L36.9314 43.9811C37.1593 44.3925 37.8191 45.6029 38.3974 46.671C38.9758 47.7391 39.5395 48.6605 39.6501 48.7185C39.7676 48.7803 40.9765 48.8241 42.565 48.8241H45.2789L45.4986 49.2467C45.7981 49.823 46.3709 50.3628 47.0478 50.707C47.5284 50.9514 47.7512 50.9952 48.5342 50.9995C49.392 51.0043 49.5036 50.9785 50.1596 50.624C52.6135 49.2978 52.6135 46.0104 50.1596 44.6843C49.5062 44.3311 49.3886 44.3037 48.5342 44.3051C47.7423 44.3063 47.5339 44.3474 47.0478 44.5976C46.7369 44.7577 46.3047 45.0631 46.0873 45.2766C45.6854 45.6711 45.178 46.5963 45.1761 46.9383C45.1751 47.1133 45.0136 47.1245 42.8733 47.0978L40.5716 47.0691L39.3023 44.729C38.6043 43.442 38.0309 42.3406 38.0281 42.2816C38.0254 42.2224 38.3766 41.9115 38.8087 41.5905C40.552 40.2957 42.5571 38.0626 43.8222 36.007C45.977 32.5057 47.0421 28.0868 46.7049 24.0464C46.6339 23.195 46.4594 21.9631 46.3171 21.3085C45.8871 19.3303 44.8254 16.5507 44.2834 15.9843C43.8546 15.5363 43.0037 15.7472 42.8524 16.339C42.799 16.5477 42.9179 16.9234 43.3157 17.804C43.9437 19.1943 44.3189 20.3231 44.6544 21.8313C44.8678 22.7905 44.8975 23.2294 44.8975 25.4236C44.8975 27.6249 44.868 28.0565 44.6511 29.04C42.9754 36.6372 37.4101 42.112 29.7108 43.7376C28.6708 43.9571 28.26 43.9841 25.995 43.9806C23.7632 43.9772 23.3079 43.9469 22.3107 43.7353C16.4323 42.4876 11.6868 38.9142 9.03726 33.7405C4.77345 25.4144 7.53158 15.2335 15.4723 9.98731C21.7455 5.84275 29.9907 5.78223 36.3435 9.83403C37.9433 10.8543 39.6855 12.4281 40.8968 13.947C41.3477 14.5123 41.8531 14.6092 42.3154 14.2188C42.71 13.8857 42.703 13.4387 42.2944 12.8588C41.7896 12.1425 39.9747 10.331 38.9603 9.53078L38.0277 8.79526L38.9176 7.13755C39.4072 6.22588 39.9792 5.15722 40.1886 4.76281L40.5696 4.04559L42.8468 4.04484L45.1242 4.04399L45.3126 4.56487C45.5688 5.27295 46.3445 6.09292 47.103 6.45701C48.349 7.05543 49.9841 6.76909 50.9967 5.7751C52.2675 4.52775 52.3322 2.47935 51.1427 1.15285C49.9215 -0.208845 47.8424 -0.388178 46.3852 0.742601C46.0681 0.988625 45.742 1.37824 45.5475 1.74351L45.2292 2.3416L42.4577 2.34192C39.721 2.34213 39.6835 2.34511 39.4671 2.58146C39.3466 2.71303 38.6484 3.93358 37.9154 5.29379C37.1824 6.6539 36.5479 7.76681 36.5054 7.76681C36.4628 7.76681 35.7751 7.46026 34.9771 7.08564C31.7545 5.57269 29.0794 5.03362 25.3134 5.13807C23.6634 5.18381 22.9622 5.25189 21.9314 5.466C20.11 5.84456 18.3815 6.42521 16.8288 7.18041L15.5001 7.82659L14.127 5.29539C13.3718 3.90316 12.6644 2.71708 12.5549 2.65953C12.4392 2.5988 11.1972 2.55487 9.59326 2.55487H6.83091L6.56607 1.9873C6.02838 0.834288 4.94932 0.12089 3.63023 0.046115C3.15648 0.0193108 2.68857 0.0577091 2.41507 0.145993ZM4.14159 1.84902C5.2549 2.30565 5.52634 3.7384 4.66053 4.58837C3.95759 5.27827 2.95395 5.27827 2.25101 4.58837C0.911007 3.27294 2.3896 1.13052 4.14159 1.84902ZM49.22 1.84902C50.3419 2.30916 50.6029 3.71521 49.7262 4.57582C49.0094 5.27944 48.0388 5.28454 47.3294 4.58837C45.9894 3.27294 47.468 1.13052 49.22 1.84902ZM24.2612 8.577C21.5426 8.9129 18.9948 9.77564 16.8384 11.0905C12.6928 13.6182 9.81757 17.796 8.91394 22.6049C8.63524 24.0881 8.63448 26.9856 8.91254 28.455C10.0927 34.6923 14.4553 39.6552 20.5224 41.662C22.4342 42.2943 23.7186 42.488 25.995 42.4872C28.1144 42.4863 29.0572 42.3641 30.8171 41.8622C37.0942 40.0718 41.7205 35.083 43.0302 28.692C43.3762 27.0032 43.3773 24.09 43.0323 22.3918C41.6223 15.4482 36.32 10.2128 29.2942 8.82696C28.2424 8.61944 25.1571 8.46627 24.2612 8.577ZM1.72199 11.9151V13.6169H3.45577H5.18956V11.9151V10.2132H3.45577H1.72199V11.9151ZM28.9008 10.4761C34.4912 11.5522 39.0674 15.5238 40.8352 20.8338C41.4051 22.5455 41.5405 23.4676 41.5332 25.5831C41.5279 27.1202 41.4813 27.7008 41.297 28.5277C40.5962 31.6727 39.2441 34.1273 36.9989 36.3312C34.7536 38.5351 32.253 39.8623 29.0489 40.5502C27.6322 40.8543 24.5661 40.8808 23.1483 40.6011C19.9704 39.974 17.2532 38.5517 14.9911 36.3312C12.7199 34.1019 11.2777 31.4465 10.6423 28.3242C10.3786 27.0281 10.3786 24.0318 10.6423 22.7357C11.6953 17.5616 15.1973 13.3443 20.0795 11.3711C21.1936 10.9209 22.8248 10.486 23.992 10.3281C25.0494 10.185 27.8232 10.2686 28.9008 10.4761ZM24.5321 14.348C22.7451 15.3115 16.7035 18.8735 16.4184 19.1316C16.2469 19.2869 15.9914 19.6532 15.8505 19.9457L15.5944 20.4776V25.53V30.5823L15.8505 31.1142C15.9914 31.4067 16.2469 31.773 16.4184 31.9283C16.7078 32.1904 23.8606 36.3907 24.8799 36.8972C25.5265 37.2184 26.4861 37.2067 27.1634 36.8693C28.2613 36.3225 35.2772 32.2001 35.5679 31.9311C35.7371 31.7743 35.9809 31.4545 36.1097 31.2205C36.3403 30.801 36.3435 30.7216 36.3435 25.53C36.3435 20.3383 36.3403 20.2589 36.1097 19.8394C35.9809 19.6054 35.7371 19.2856 35.5679 19.1288C35.2772 18.8598 28.2613 14.7374 27.1634 14.1906C26.7839 14.0016 26.4772 13.9365 25.9715 13.9375C25.3871 13.9388 25.1831 13.997 24.5321 14.348ZM30.3713 17.9934C33.1822 19.6259 34.4631 20.4271 34.5453 20.6043C34.7103 20.9597 34.7103 30.1002 34.5453 30.4556C34.3842 30.8025 26.4467 35.422 26.0117 35.422C25.6514 35.422 17.9515 31.0026 17.5699 30.5766L17.3261 30.3045V25.53V20.7554L17.5699 20.4833C17.9515 20.0573 25.6514 15.6379 26.0117 15.6379C26.2137 15.6379 27.6778 16.4289 30.3713 17.9934ZM24.7488 19.6972C23.7926 19.8736 22.5039 20.5656 21.7458 21.3098C20.5306 22.5026 19.9841 23.8117 19.9841 25.53C19.9841 27.2362 20.5312 28.5579 21.7208 29.7255C22.9103 30.8931 24.2568 31.4302 25.995 31.4302C27.7072 31.4302 29.0562 30.902 30.2222 29.7751C32.6297 27.4483 32.6508 23.6722 30.2692 21.3344C28.835 19.9266 26.7912 19.3204 24.7488 19.6972ZM27.7753 21.6816C28.753 22.1308 29.3856 22.7416 29.8705 23.7047C30.2529 24.4642 30.2753 24.5647 30.2753 25.53C30.2753 26.4952 30.2529 26.5957 29.8705 27.3552C29.3831 28.3233 28.7557 28.9263 27.7483 29.3948C27.0937 29.6992 26.9259 29.7314 25.995 29.7314C25.064 29.7314 24.8963 29.6992 24.2417 29.3948C23.2343 28.9263 22.6068 28.3233 22.1194 27.3552C21.7375 26.5966 21.7147 26.4944 21.7147 25.5355C21.7147 24.6154 21.7471 24.4524 22.0577 23.8089C22.4931 22.9067 23.113 22.2463 23.9216 21.8233C24.7752 21.3768 25.2422 21.2757 26.2387 21.3223C26.8891 21.3527 27.2355 21.4337 27.7753 21.6816ZM25.3941 23.2383C25.1303 23.4972 25.1281 23.5158 25.1281 25.53C25.1281 27.5441 25.1303 27.5627 25.3941 27.8216C25.5618 27.9863 25.7839 28.0827 25.995 28.0827C26.2061 28.0827 26.4282 27.9863 26.5958 27.8216C26.8597 27.5627 26.8619 27.5441 26.8619 25.53C26.8619 23.5158 26.8597 23.4972 26.5958 23.2383C26.4282 23.0736 26.2061 22.9772 25.995 22.9772C25.7839 22.9772 25.5618 23.0736 25.3941 23.2383ZM46.8004 39.1448V40.8467H48.5342H50.268V39.1448V37.443H48.5342H46.8004V39.1448ZM4.14159 46.0973C5.2549 46.554 5.52634 47.9867 4.66053 48.8367C3.44309 50.0317 1.44805 48.9613 1.76836 47.2849C1.95984 46.2836 3.14705 45.6894 4.14159 46.0973ZM49.4838 46.2365C50.036 46.6412 50.2138 46.9866 50.2138 47.6541C50.2138 48.6896 49.5891 49.3028 48.5342 49.3028C47.8233 49.3028 47.463 49.1101 47.0442 48.5061C46.5013 47.7232 46.8929 46.5223 47.8298 46.0965C48.2617 45.9002 49.1247 45.9733 49.4838 46.2365Z" fill="#0073A8"/>
</svg>
