<svg width="46" height="46" viewBox="0 0 46 46" fill="none" xmlns="http://www.w3.org/2000/svg">
<path fill-rule="evenodd" clip-rule="evenodd" d="M20.8899 0.0516767C19.052 0.229754 17.1319 0.655593 15.3775 1.27418C14.7618 1.49133 14.2282 1.69957 14.1918 1.73702C14.1095 1.82183 14.6028 2.98285 14.7098 2.95602C14.7526 2.94522 15.2532 2.77011 15.8222 2.56682C17.6212 1.92419 19.5178 1.53158 21.6475 1.36097L22.2998 1.30875V3.14445C22.2998 4.97213 22.2989 4.98042 22.0973 5.03452C21.986 5.06432 21.7532 5.08953 21.58 5.09052C21.0544 5.09349 19.5191 5.34891 18.5662 5.59189C16.0513 6.23326 13.3603 7.61728 11.4925 9.22998C11.1467 9.52851 10.8352 9.77276 10.8003 9.77276C10.7654 9.77276 10.1589 9.19333 9.45247 8.48516L8.16811 7.19766L8.89972 6.57204C9.7292 5.86288 11.0293 4.91343 11.7963 4.45681C12.0807 4.28746 12.3136 4.12019 12.3136 4.08508C12.3136 4.02449 12.0729 3.57569 11.8035 3.13356L11.6803 2.93153L10.9398 3.3932C7.86628 5.30983 5.21211 7.97758 3.38346 10.9882C-0.145986 16.7991 -0.957928 23.7993 1.15402 30.2094C2.90547 35.5253 6.46524 39.9507 11.3229 42.851C13.9536 44.4218 17.0108 45.465 20.2306 45.8907C21.3329 46.0364 24.7061 46.0364 25.8084 45.8907C31.4104 45.15 36.1589 42.6878 40.0343 38.5144C42.1783 36.2055 43.8556 33.3337 44.885 30.2094C45.6964 27.7466 46 25.7856 46 23.0071C46 20.9515 45.9133 20.0434 45.5446 18.2355C44.2804 12.0369 40.3007 6.4975 34.716 3.16309C32.1122 1.60837 29.0071 0.543056 25.8984 0.137745C24.8694 0.00360107 21.9109 -0.0471754 20.8899 0.0516767ZM25.3136 1.45064C29.4852 1.8212 33.7897 3.71326 37.2591 6.70115L38.0488 7.38123L36.7475 8.68341L35.4462 9.98559L35.0582 9.65257C34.287 8.99095 33.2294 8.20103 32.473 7.72163C30.2975 6.34292 27.2904 5.32577 24.8188 5.13257C23.6089 5.03803 23.7392 5.27751 23.7392 3.14742V1.29705L24.2115 1.34585C24.4713 1.37268 24.9673 1.41985 25.3136 1.45064ZM25.5347 6.58618C29.0924 7.1377 32.2009 8.71699 34.7502 11.2681C37.2999 13.8196 38.8817 16.9381 39.4279 20.4901C40.173 25.3351 38.7858 30.1311 35.541 33.9287C34.435 35.2231 33.3237 36.1374 31.1326 37.5557C31.0991 37.5774 31.4429 38.2661 31.6312 38.5544L31.76 38.7517L32.3604 38.3843C32.9497 38.0236 34.2446 37.0729 34.9249 36.5015L35.2697 36.212L36.5657 37.5096L37.8618 38.8072L37.1206 39.4404C33.7417 42.3271 29.3718 44.2104 25.2237 44.5674C24.8773 44.5973 24.4016 44.644 24.1666 44.6713L23.7392 44.721V42.871V41.0211L24.0316 40.9797C24.1925 40.957 24.7219 40.8941 25.2082 40.84C26.4296 40.7039 27.236 40.5266 28.5747 40.0996C29.2056 39.8983 29.7314 39.725 29.7429 39.7145C29.8095 39.6541 29.2671 38.4921 29.1723 38.4921C29.1095 38.4921 28.7823 38.5908 28.4453 38.7115C26.7242 39.3279 24.9781 39.6088 22.9295 39.5988C18.4521 39.5769 14.4484 37.9078 11.2888 34.7461C8.73121 32.1866 7.20683 29.1782 6.59326 25.479C6.39246 24.2679 6.39246 21.7462 6.59326 20.5351C7.41591 15.5752 10.1008 11.4964 14.2547 8.89561C17.5853 6.81035 21.6337 5.98145 25.5347 6.58618ZM9.79452 10.7793C9.79452 10.8142 9.55044 11.1259 9.25211 11.472C7.64055 13.3411 6.25751 16.0339 5.61659 18.5506C5.37378 19.5042 5.11854 21.0405 5.11557 21.5666C5.11458 21.7399 5.08939 21.9728 5.05962 22.0843C5.00555 22.2859 4.99736 22.2868 3.16709 22.2868H1.32882L1.38262 21.7241C1.57092 19.756 1.67582 19.1192 2.06339 17.5927C2.85842 14.461 4.44479 11.4186 6.59776 8.89642L7.23049 8.15512L8.5125 9.43542C9.21766 10.1396 9.79452 10.7444 9.79452 10.7793ZM39.5282 8.98221C42.6173 12.7571 44.2723 16.8446 44.6509 21.6341L44.7025 22.2868H42.8681C40.7965 22.2868 40.9267 22.3373 40.924 21.5323C40.9205 20.5646 40.4563 18.4325 39.9121 16.8851C39.3077 15.1665 37.9894 12.8615 36.8739 11.5729C36.6266 11.2873 36.4244 11.0192 36.4244 10.9771C36.4244 10.8645 38.88 8.42142 38.9873 8.42745C39.0374 8.43025 39.2808 8.6799 39.5282 8.98221ZM22.2998 9.2776V9.95282H23.0195H23.7392V9.2776V8.60238H23.0195H22.2998V9.2776ZM12.2236 12.8788V13.554H12.9433H13.663V12.8788V12.2036H12.9433H12.2236V12.8788ZM33.0957 13.599V14.2742H33.8154H34.5351V13.599V12.9238H33.8154H33.0957V13.599ZM19.3925 18.0626C17.4227 20.691 15.7922 22.8906 15.7691 22.9508C15.7242 23.0679 22.8873 32.6852 23.0195 32.6852C23.1005 32.6852 30.3067 23.1146 30.3067 23.0071C30.3067 22.9278 23.1182 13.3355 23.0369 13.3063C23.0023 13.2939 21.3623 15.4342 19.3925 18.0626ZM25.8484 19.2476C27.3603 21.265 28.5974 22.9567 28.5974 23.0071C28.5974 23.135 23.1156 30.4345 23.0195 30.4345C22.8939 30.4345 17.428 23.0961 17.4587 22.9687C17.5016 22.7906 22.9646 15.5311 23.0362 15.5569C23.071 15.5694 24.3364 17.2302 25.8484 19.2476ZM8.62496 23.0071V23.7349L9.3222 23.7086L10.0194 23.6823V23.0071V22.3318L9.3222 22.3055L8.62496 22.2793V23.0071ZM36.0121 22.4088C35.9864 22.476 35.9775 22.7899 35.9925 23.1065L36.0196 23.6823L36.7168 23.7086L37.414 23.7349V23.0108V22.2868H36.7365C36.2493 22.2868 36.0457 22.3211 36.0121 22.4088ZM5.06393 23.9299C5.08643 24.0413 5.12862 24.4363 5.15759 24.8076C5.35065 27.281 6.36709 30.2901 7.74482 32.4672C8.22389 33.2242 9.01325 34.2825 9.67441 35.0542L10.0072 35.4425L8.70593 36.7447L7.40466 38.047L6.72506 37.2567C3.73928 33.7849 1.84856 29.4773 1.47826 25.3028C1.44749 24.9562 1.40035 24.4599 1.37354 24.1999L1.32477 23.7273H3.17384C5.01922 23.7273 5.023 23.7276 5.06393 23.9299ZM44.6685 24.1549C44.6412 24.3902 44.5946 24.8662 44.5647 25.2128C44.2079 29.3639 42.3246 33.7398 39.4412 37.1177L38.8085 37.859L37.5265 36.5787C36.8214 35.8745 36.2445 35.2771 36.2445 35.2511C36.2445 35.2252 36.5068 34.8894 36.8274 34.505C38.4224 32.5928 39.6428 30.2526 40.3412 27.767C40.6024 26.8372 40.9221 25.0481 40.924 24.5061C40.9266 23.6728 40.7901 23.7273 42.8758 23.7273H44.7182L44.6685 24.1549ZM11.5039 32.4151V33.0903H12.2236H12.9433V32.4151V31.7399H12.2236H11.5039V32.4151ZM33.0957 32.4151V33.0903H33.8154H34.5351V32.4151V31.7399H33.8154H33.0957V32.4151ZM22.2998 36.7365V37.4117H23.0195H23.7392V36.7365V36.0613H23.0195H22.2998V36.7365ZM11.5934 36.8712C12.8811 37.9875 15.1845 39.3068 16.9018 39.9116C18.4481 40.4562 20.5787 40.9207 21.5458 40.9241C22.3505 40.9269 22.2998 40.7955 22.2998 42.8774V44.721L21.8724 44.6713C21.6373 44.644 21.1617 44.5973 20.8153 44.5674C17.9324 44.3193 14.6818 43.2379 11.9318 41.6121C10.9849 41.0523 9.51598 39.9831 8.84987 39.3688L8.40005 38.9539L9.6584 37.6877C10.3504 36.9912 10.9522 36.4214 10.9956 36.4214C11.0391 36.4214 11.308 36.6238 11.5934 36.8712Z" fill="black"/>
</svg>
