<svg width="45" height="46" viewBox="0 0 45 46" fill="none" xmlns="http://www.w3.org/2000/svg">
<path opacity="0.07" fill-rule="evenodd" clip-rule="evenodd" d="M0.437477 0.136666C0.301498 0.209714 0.148464 0.347004 0.0973017 0.441616C-0.0326906 0.682234 -0.0323278 45.3148 0.0977553 45.5554C0.352569 46.0271 -1.02755 45.9997 22.5012 45.9997C41.7504 45.9997 44.3123 45.9839 44.5464 45.864C44.878 45.6941 44.9982 45.4762 44.9982 45.0449C44.9982 44.6759 45.2608 44.9559 39.4902 39.1711L37.5633 37.2393L37.5388 32.3572L37.5143 27.475L37.2598 27.2582C36.8863 26.94 36.3585 26.9594 36.0106 27.304L35.7454 27.5667V31.4581V35.3495L34.7022 34.3192L33.659 33.2889V22.1685V11.0481H34.7022H35.7454V15.5841V20.1201L36.0083 20.4115C36.2258 20.6526 36.3369 20.7029 36.6525 20.7029C36.9682 20.7029 37.0793 20.6526 37.2968 20.4115L37.5597 20.1201V15.034V9.94791L35.5986 5.30914C34.52 2.75785 33.5745 0.562734 33.4973 0.431014C33.2525 0.0134816 32.77 -0.110242 32.3085 0.126063C32.0102 0.278898 32.1407 -0.000625176 29.7882 5.52235L27.9894 9.7453L27.9441 18.6222L27.8987 27.499L20.5736 20.1274L13.2485 12.7559V6.73119C13.2485 0.192283 13.259 0.332718 12.7521 0.10396C12.5752 0.0240838 10.9988 -0.00251173 6.59946 0.000183765C1.55643 0.00323866 0.648204 0.023365 0.437477 0.136666ZM11.4342 22.9981V44.2027H6.6264H1.81859V42.9055V41.6084L3.44435 41.5803C5.01188 41.5531 5.07838 41.5445 5.29926 41.3386C5.58728 41.0704 5.67872 40.6761 5.53358 40.329C5.33854 39.8627 5.08191 39.8001 3.36525 39.8001H1.81859V38.5013V37.2024L4.35212 37.176C6.74659 37.1509 6.89936 37.1393 7.13585 36.9643C7.60493 36.6171 7.63976 36.0336 7.21649 35.6143L6.99751 35.3974H4.408H1.81859V34.0497V32.7019H3.45551C5.06513 32.7019 5.09615 32.6983 5.31151 32.485C5.62012 32.1794 5.68334 31.8474 5.50382 31.4745C5.26806 30.9848 4.95519 30.9049 3.27291 30.9049H1.81859V29.6021V28.2993H4.31774C7.06636 28.2993 7.22892 28.2717 7.43856 27.7703C7.58379 27.4232 7.49217 27.0288 7.20415 26.7607C6.97547 26.5477 6.96902 26.5471 4.39675 26.5208L1.81859 26.4944V25.1955V23.8966H3.40462H4.99065L5.28484 23.6363C5.52831 23.4208 5.57911 23.3108 5.57911 22.9981C5.57911 22.6855 5.52831 22.5755 5.28484 22.36L4.99065 22.0996H3.40462H1.81859V20.8008V19.5019L4.39675 19.4755C6.96902 19.4492 6.97547 19.4486 7.20415 19.2356C7.49217 18.9675 7.58379 18.5731 7.43856 18.226C7.22892 17.7246 7.06636 17.697 4.31774 17.697H1.81859V16.3942V15.0914H3.27291C4.95519 15.0914 5.26806 15.0115 5.50382 14.5218C5.68334 14.1489 5.62012 13.8169 5.31151 13.5113C5.09615 13.298 5.06513 13.2944 3.45551 13.2944H1.81859V11.9466V10.5989H4.408H6.99751L7.21649 10.382C7.63976 9.96273 7.60493 9.37916 7.13585 9.03198C6.89936 8.85695 6.74659 8.84536 4.35212 8.82029L1.81859 8.79388V7.49501V6.19623H3.36525C5.08191 6.19623 5.33854 6.1336 5.53358 5.66728C5.67872 5.32019 5.58728 4.92584 5.29926 4.65764C5.07838 4.45179 5.01188 4.44317 3.44435 4.41603L1.81859 4.38791V3.09075V1.79359H6.6264H11.4342V22.9981ZM34.0385 6.26487L35.2798 9.2062L32.7775 9.2301C31.4013 9.24322 30.2613 9.24016 30.2442 9.22327C30.2015 9.18086 32.6889 3.32076 32.749 3.32229C32.7755 3.32292 33.3558 4.64704 34.0385 6.26487ZM31.8403 21.2685L31.8359 31.489L30.7971 30.419L29.7583 29.349V20.1986V11.0481H30.8015H31.8447L31.8403 21.2685ZM27.265 29.4224C33.5407 35.7478 39.4139 41.6611 40.3165 42.5629L41.9575 44.2027H39.2143H36.4711V43.6996C36.4711 42.8396 36.1328 42.4057 35.462 42.4057C35.2792 42.4057 35.0984 42.4937 34.922 42.6683C34.6789 42.9091 34.6568 42.9839 34.6568 43.5668V44.2027H33.1601H31.6633V43.2277C31.6633 42.6915 31.6194 42.1282 31.5658 41.9758C31.4391 41.6158 31.1231 41.4174 30.6767 41.4174C30.3883 41.4174 30.273 41.4711 30.0839 41.6938C29.8588 41.9587 29.849 42.0167 29.849 43.0865V44.2027H28.3644H26.8799L26.8332 43.5559C26.791 42.9721 26.7587 42.8845 26.5021 42.6574C26.1095 42.3099 25.6642 42.3141 25.3064 42.6683C25.0633 42.9091 25.0412 42.9839 25.0412 43.5668V44.2027H23.5445H22.0477V43.3154C22.0477 42.8275 22.0223 42.3024 21.9913 42.1486C21.8471 41.4347 20.9721 41.1577 20.4772 41.6694C20.2388 41.9158 20.2334 41.9466 20.2334 43.0621V44.2027H18.7488H17.2643L17.2176 43.5559C17.1754 42.9721 17.1431 42.8845 16.8864 42.6574C16.4938 42.3099 16.0485 42.3141 15.6908 42.6683C15.4476 42.9091 15.4256 42.9839 15.4256 43.5668V44.2027H14.337H13.2485V29.7597V15.3167L14.5514 16.6192C15.268 17.3355 20.9891 23.097 27.265 29.4224ZM36.0106 23.2608C35.5402 23.7266 35.7051 24.4055 36.3539 24.6739C36.6349 24.7903 36.7001 24.7871 36.9997 24.642C37.8902 24.2108 37.62 22.9981 36.6333 22.9981C36.3591 22.9981 36.2139 23.0593 36.0106 23.2608ZM18.5552 28.1146C18.4554 28.1552 18.2921 28.2781 18.1924 28.388C18.0154 28.5829 18.0109 28.7142 18.0109 33.7969V39.0061L18.3072 39.2683L18.6035 39.5305H23.6411C27.9569 39.5305 28.7167 39.5111 28.9437 39.3948C29.2753 39.225 29.3955 39.007 29.3955 38.5758C29.3955 38.2582 29.2941 38.1364 27.69 36.5258C26.752 35.584 24.5192 33.3376 22.7282 31.5339C20.9373 29.7301 19.3881 28.2052 19.2857 28.1452C19.0716 28.0198 18.8157 28.0091 18.5552 28.1146ZM23.0891 34.454L26.3314 37.7335H23.0556H19.7798V34.454C19.7798 32.6503 19.7949 31.1745 19.8132 31.1745C19.8316 31.1745 21.3057 32.6503 23.0891 34.454Z" fill="black"/>
</svg>
