<svg width="34" height="46" viewBox="0 0 34 46" fill="none" xmlns="http://www.w3.org/2000/svg">
<path fill-rule="evenodd" clip-rule="evenodd" d="M3.13006 0.0882291C2.75301 0.24322 1.71959 1.54209 1.18639 2.53107C-0.0870804 4.89331 -0.355767 7.89061 0.479466 10.4172C0.938627 11.806 2.21192 13.863 2.94952 14.4074C3.43218 14.7637 4.16827 14.5419 4.3113 13.9972C4.42357 13.5696 4.3027 13.2617 3.80692 12.712C2.43369 11.1896 1.66798 8.97797 1.78672 6.87701C1.89375 4.98442 2.54392 3.3779 3.8086 1.88163C4.36025 1.22887 4.45274 0.983043 4.29268 0.594982C4.08305 0.086522 3.62247 -0.114203 3.13006 0.0882291ZM29.9022 0.30899C29.5002 0.716279 29.5025 1.03426 29.9107 1.5464C30.7248 2.56754 31.0659 3.06765 31.382 3.70397C32.0551 5.05845 32.342 6.69435 32.1671 8.17956C31.9549 9.9815 31.2847 11.4859 30.0995 12.8208C29.8734 13.0755 29.6658 13.3989 29.6381 13.5396C29.5277 14.1009 29.9415 14.5771 30.5395 14.5771C30.9179 14.5771 31.3801 14.1675 32.0804 13.2114C33.8827 10.7511 34.4555 7.56751 33.6301 4.59941C33.3258 3.50504 32.5539 1.98496 31.8492 1.09266C30.931 -0.070266 30.4625 -0.258771 29.9022 0.30899ZM7.00872 1.85962C6.84919 1.93932 6.52207 2.25478 6.28185 2.56072C4.25136 5.14632 4.06922 8.70671 5.82854 11.4222C6.42337 12.3401 6.9783 12.852 7.37876 12.852C7.96934 12.852 8.47656 12.1507 8.22729 11.6789C8.17054 11.5715 7.92589 11.2355 7.68363 10.9324C5.93105 8.73942 5.97308 5.66116 7.78427 3.56398C8.0166 3.29506 8.23253 2.97052 8.26409 2.84284C8.3557 2.47311 8.10918 1.99502 7.74827 1.84219C7.3675 1.681 7.36643 1.681 7.00872 1.85962ZM26.2654 1.79529C25.9914 1.91245 25.6988 2.32854 25.7003 2.59881C25.7019 2.88813 25.804 3.06927 26.3453 3.74287C26.8376 4.35574 27.2312 5.13878 27.4272 5.89522C27.5903 6.52534 27.6112 7.84433 27.469 8.53923C27.3224 9.25561 26.7557 10.3888 26.2335 11.0101C25.9844 11.3066 25.7578 11.6401 25.7301 11.7514C25.5926 12.3039 26.0352 12.852 26.6189 12.852C26.9467 12.852 27.0278 12.8013 27.4774 12.3151C28.088 11.6547 28.7345 10.5191 29.0228 9.60063C29.806 7.10532 29.178 4.13192 27.488 2.33358C26.9669 1.77911 26.64 1.63517 26.2654 1.79529ZM10.5083 3.96812C9.90725 4.59995 9.42734 5.65649 9.28351 6.66479C9.18836 7.33129 9.19323 7.54226 9.31827 8.18559C9.55379 9.39667 10.3606 10.7955 10.9715 11.052C11.543 11.2918 12.172 10.8734 12.172 10.2537C12.172 9.99148 12.0869 9.79848 11.8076 9.42758C11.3257 8.78749 11.1941 8.50859 11.0683 7.86042C10.8909 6.94727 11.1759 5.91409 11.8137 5.15765C12.1863 4.71567 12.2578 4.47883 12.1336 4.0976C12.0097 3.71699 11.7053 3.50764 11.276 3.50764C10.9954 3.50764 10.8811 3.5762 10.5083 3.96812ZM22.0565 3.77027C21.6575 4.17451 21.7004 4.51809 22.2423 5.26205C22.8062 6.03611 22.985 6.62831 22.9308 7.54325C22.8862 8.29511 22.6361 8.91022 22.1438 9.47834C21.9729 9.67547 21.8515 9.9302 21.8219 10.153C21.7794 10.4748 21.8074 10.5441 22.0987 10.8393C22.3871 11.1316 22.4589 11.1619 22.7529 11.1154C23.3848 11.0156 24.2813 9.77233 24.5915 8.56592C24.7594 7.91271 24.7596 6.66281 24.5919 6.02416C24.4019 5.30096 23.9468 4.44954 23.482 3.948C23.1169 3.55392 23.0342 3.50764 22.6948 3.50764C22.394 3.50764 22.2621 3.56191 22.0565 3.77027ZM16.1664 3.72427C15.1057 3.99104 14.1156 4.81963 13.661 5.82101C13.4557 6.27322 13.4258 6.45651 13.4219 7.28565C13.4176 8.20454 13.4277 8.25432 13.7514 8.9184C14.1227 9.67997 14.6968 10.2765 15.3644 10.5945L15.7649 10.7852L15.5975 11.2122C15.5053 11.447 12.4732 19.1127 8.85937 28.2471C4.72356 38.7006 2.28871 44.9667 2.28871 45.1563C2.28871 45.5836 2.59739 45.9156 3.0522 45.9773C3.71079 46.0669 3.8157 45.8946 5.11337 42.5923L6.26083 39.6722L11.1249 39.6273C16.2196 39.5802 16.2664 39.5763 16.4747 39.1819C16.6365 38.8757 16.5806 38.3972 16.3515 38.1273L16.1376 37.8752L12.8864 37.8303L9.6351 37.7853L16.7138 34.0859C20.6071 32.0511 23.8442 30.3732 23.9073 30.3571C23.9837 30.3376 24.4966 31.5149 25.4404 33.8769C26.2205 35.8289 26.8815 37.5169 26.9092 37.6281L26.9597 37.8303H24.7263H22.493L22.2338 38.0929C21.9506 38.38 21.8989 38.7316 22.0806 39.1356C22.2896 39.6004 22.4598 39.6273 25.1978 39.6273H27.7204L28.6683 42.0308C30.1562 45.8035 30.1214 45.7265 30.4037 45.8744C30.7208 46.0406 30.9613 46.0417 31.2727 45.8786C31.5294 45.7441 31.7289 45.4032 31.7289 45.0992C31.7289 45.0002 28.7113 37.2902 25.0232 27.966C21.335 18.6418 18.2989 10.9641 18.2763 10.9045C18.2531 10.8431 18.428 10.6972 18.6806 10.5675C20.0311 9.87413 20.83 8.25423 20.5724 6.73181C20.2105 4.59375 18.1909 3.21518 16.1664 3.72427ZM17.9525 5.71175C18.9373 6.29649 19.1424 7.67596 18.3729 8.53905C17.4925 9.52641 15.9493 9.3274 15.3712 8.15207C14.5326 6.4469 16.3296 4.74802 17.9525 5.71175ZM18.1644 15.4577C18.7591 16.9649 19.2653 18.2487 19.2894 18.3104C19.3239 18.3985 18.8327 18.4227 17.0088 18.4227C14.8325 18.4227 14.6879 18.4126 14.7411 18.2655C15.2389 16.8882 16.9799 12.6095 17.0239 12.6553C17.0566 12.6894 17.5699 13.9504 18.1644 15.4577ZM17.4522 20.2614C17.4522 20.3301 11.9333 25.5296 11.8982 25.4939C11.8804 25.4758 12.3346 24.2824 12.9077 22.842L13.9495 20.2229L15.7008 20.2213C16.6641 20.2204 17.4522 20.2385 17.4522 20.2614ZM21.6158 24.2064C22.4517 26.3249 23.1201 28.0739 23.1012 28.0931C23.0824 28.1122 20.5396 28.1174 17.4506 28.1047L11.8343 28.0816L15.9467 24.1984C18.2084 22.0627 20.0673 20.3241 20.0775 20.3349C20.0877 20.3457 20.7799 22.0879 21.6158 24.2064ZM20.4228 30.1177C18.7421 31.0003 8.32821 36.4334 7.8984 36.652L7.34515 36.9334L7.51213 36.5058C7.60391 36.2706 8.22605 34.6933 8.89458 33.0008L10.1101 29.9235L15.4439 29.9274L20.7775 29.9314L20.4228 30.1177ZM18.6868 38.0929C18.1991 38.5871 18.4268 39.4617 19.0753 39.5849C19.9636 39.7538 20.5178 38.6815 19.8532 38.0798C19.4719 37.7346 19.0357 37.7394 18.6868 38.0929Z" fill="#106762"/>
</svg>
