<svg width="18" height="18" viewBox="0 0 18 18" fill="none" xmlns="http://www.w3.org/2000/svg">
<path d="M1.60577 4.73094L9 0.46188L16.3942 4.73094V13.2691L9 17.5381L1.60577 13.2691V4.73094Z" stroke="#410EAD" stroke-width="0.8"/>
<path d="M5 9.95562C5.10088 9.83198 5.21221 9.71747 5.33274 9.61339C5.40974 9.55303 5.50284 9.51735 5.60004 9.51096C5.69725 9.50456 5.79412 9.52774 5.8782 9.57751C6.19185 9.72103 6.50822 9.85351 6.81914 10.0108C6.82987 10.0182 6.84201 10.0232 6.85477 10.0255C6.86753 10.0278 6.88063 10.0274 6.89322 10.0243C6.90582 10.0212 6.91762 10.0154 6.92788 10.0074C6.93814 9.99936 6.94662 9.98925 6.95277 9.9777C7.03187 9.86455 7.12187 9.75691 7.20642 9.64651C7.29096 9.53612 7.34278 9.53888 7.40279 9.58855C7.46279 9.63823 7.45733 9.70723 7.38642 9.79555C7.00614 10.2484 6.68276 10.7471 6.42367 11.2804C6.40189 11.3213 6.38888 11.3665 6.38549 11.4129C6.38564 11.4426 6.39259 11.4719 6.40579 11.4985C6.41899 11.5251 6.43808 11.5483 6.46158 11.5662C6.48507 11.5841 6.51234 11.5962 6.54124 11.6017C6.57015 11.6072 6.59992 11.6058 6.62822 11.5978L6.72095 11.5591C7.37537 11.2241 7.98183 10.8007 8.52372 10.3006C9.57647 9.37052 10.6374 8.44871 11.6929 7.52138C11.7638 7.4579 11.8293 7.45238 11.8783 7.50482C11.9274 7.55726 11.922 7.62902 11.8483 7.69525C11.7747 7.76149 11.6383 7.87741 11.5374 7.97125C11.5285 7.98019 11.5217 7.99102 11.5175 8.00295C11.5132 8.01488 11.5117 8.02762 11.5129 8.04024C11.6002 8.25828 11.6902 8.47355 11.7856 8.68882C11.9793 8.57843 12.0584 8.58947 12.2138 8.74402L12.3475 8.8765C12.3734 8.9022 12.3941 8.9329 12.4082 8.96678C12.4222 9.00067 12.4295 9.03707 12.4295 9.07383C12.4295 9.1106 12.4222 9.14699 12.4082 9.18088C12.3941 9.21477 12.3734 9.24546 12.3475 9.27116C12.2874 9.33464 12.2247 9.39812 12.1593 9.45884C12.1445 9.46943 12.1343 9.48534 12.1308 9.5033C12.1272 9.52126 12.1306 9.53991 12.1402 9.55544C12.1838 9.65203 12.2193 9.74863 12.2656 9.85903L12.3447 9.78175C12.3703 9.75373 12.4013 9.73138 12.4358 9.71608C12.4703 9.70079 12.5075 9.6929 12.5452 9.6929C12.5828 9.6929 12.6201 9.70079 12.6546 9.71608C12.6891 9.73138 12.7201 9.75373 12.7456 9.78175C12.8029 9.83695 12.8602 9.8949 12.9147 9.95286C12.9416 9.97719 12.963 10.007 12.9777 10.0403C12.9924 10.0736 13 10.1096 13 10.1461C13 10.1825 12.9924 10.2186 12.9777 10.2518C12.963 10.2851 12.9416 10.3149 12.9147 10.3393C12.8275 10.4331 12.7365 10.5251 12.642 10.6152C12.6235 10.6286 12.6107 10.6486 12.6062 10.6711C12.6016 10.6936 12.6056 10.717 12.6175 10.7367C12.672 10.8581 12.7211 10.9823 12.7702 11.1065C12.8293 11.2357 12.8461 11.3806 12.8182 11.5201C12.7902 11.6596 12.7189 11.7864 12.6147 11.882C12.5165 11.9851 12.4156 12.0872 12.312 12.1884C12.2751 12.2332 12.2282 12.2685 12.1751 12.2912C12.122 12.3138 12.0643 12.3233 12.0068 12.3187C11.9493 12.3141 11.8938 12.2956 11.8449 12.2647C11.7959 12.2339 11.755 12.1916 11.7256 12.1415L9.84648 9.59683L9.78375 9.51404L7.92643 11.1148C7.94553 11.1589 7.97007 11.2197 7.99735 11.2776C8.1228 11.5536 8.25099 11.8296 8.37645 12.1249C8.43259 12.2314 8.45156 12.3539 8.43027 12.4726C8.40899 12.5913 8.34869 12.6993 8.25917 12.779L8.13098 12.9087C8.10854 12.9393 8.07885 12.9636 8.04465 12.9795C8.01044 12.9953 7.97284 13.0022 7.93531 12.9995C7.89779 12.9967 7.86155 12.9844 7.82997 12.9637C7.79838 12.9431 7.77246 12.9146 7.75461 12.8811C7.48188 12.5251 7.20914 12.1691 6.95823 11.8103L6.89823 11.7302L6.77822 11.7882C6.69677 11.8338 6.60287 11.8512 6.51074 11.838C6.4186 11.8247 6.33325 11.7814 6.26759 11.7147C6.20194 11.6479 6.15957 11.5613 6.14688 11.468C6.1342 11.3747 6.1519 11.2798 6.1973 11.1976C6.21367 11.1589 6.23276 11.1231 6.25185 11.0789L6.17821 11.0209C5.83457 10.7588 5.48819 10.4966 5.14728 10.2316C5.0926 10.1818 5.04324 10.1263 5 10.066V9.95562ZM9.95285 9.34844C9.95285 9.365 9.95285 9.37052 9.95285 9.37328L11.8974 12.009C11.9076 12.0294 11.9229 12.0467 11.9417 12.0594C11.9604 12.072 11.9821 12.0795 12.0046 12.0812C12.0271 12.0829 12.0497 12.0786 12.0701 12.0689C12.0905 12.0591 12.1081 12.0442 12.1211 12.0256C12.2138 11.9345 12.3065 11.8406 12.3938 11.7496C12.483 11.6826 12.5444 11.5846 12.5661 11.4744C12.5877 11.3642 12.5681 11.2498 12.5111 11.1534C12.1474 10.2574 11.7838 9.35948 11.4202 8.45975C11.382 8.36591 11.3438 8.27208 11.3002 8.18376L9.95285 9.34844ZM5.23455 10.0081L6.35821 10.8636L6.73732 10.2371L5.71729 9.77347C5.67674 9.75402 5.63174 9.74606 5.58708 9.75043C5.54241 9.7548 5.49976 9.77135 5.46365 9.79831C5.38334 9.86368 5.30684 9.93372 5.23455 10.0081ZM7.96189 12.768L8.0928 12.6327C8.15431 12.5845 8.19591 12.5149 8.20952 12.4373C8.22313 12.3598 8.20778 12.2799 8.16644 12.2132L7.75734 11.308L7.72461 11.2417L7.10823 11.6226L7.96189 12.768ZM12.492 10.4414C12.5738 10.3586 12.6393 10.2841 12.7129 10.2178C12.7866 10.1516 12.7675 10.135 12.7129 10.0936C12.7013 10.0833 12.6904 10.0722 12.6802 10.0605C12.5302 9.9087 12.5029 9.9087 12.3775 10.0853C12.374 10.0927 12.3723 10.1007 12.3723 10.1088C12.3723 10.1169 12.374 10.1249 12.3775 10.1323C12.3965 10.2233 12.4375 10.3227 12.4838 10.4331L12.492 10.4414ZM12.0202 9.28772C12.0657 9.23194 12.1139 9.17852 12.1647 9.12765C12.1974 9.09177 12.192 9.06693 12.1647 9.03657C12.1374 9.00621 12.072 8.93721 12.0202 8.89306C11.9683 8.8489 11.9629 8.86546 11.9547 8.8765C11.9465 8.88754 11.892 8.9455 11.9002 8.97033C11.9324 9.07518 11.9697 9.17835 12.012 9.27944L12.0202 9.28772Z" fill="#410EAD"/>
<path d="M8.44572 8.1728L8.26571 8.03481L5.87929 6.2381C5.82437 6.20874 5.77775 6.16569 5.74384 6.11303C5.70993 6.06036 5.68984 5.99982 5.68547 5.93712C5.68111 5.87442 5.69261 5.81163 5.71888 5.75467C5.74516 5.69771 5.78535 5.64848 5.83565 5.6116C5.92838 5.51501 6.02111 5.42117 6.10839 5.33561C6.20327 5.22896 6.32957 5.15607 6.46859 5.12774C6.6076 5.0994 6.75194 5.11713 6.88022 5.1783C7.02477 5.23902 7.16932 5.29697 7.31114 5.36045C7.32929 5.37193 7.35116 5.37576 7.37206 5.37112C7.39296 5.36648 7.41124 5.35373 7.42296 5.33561L7.67115 5.08446C7.69659 5.05775 7.7271 5.0365 7.76083 5.02199C7.79457 5.00748 7.83086 5 7.86752 5C7.90418 5 7.94047 5.00748 7.9742 5.02199C8.00794 5.0365 8.03845 5.05775 8.06389 5.08446L8.23026 5.25282C8.2575 5.27863 8.27923 5.30983 8.29408 5.34449C8.30893 5.37914 8.31659 5.41652 8.31659 5.45429C8.31659 5.49206 8.30893 5.52943 8.29408 5.56409C8.27923 5.59874 8.2575 5.62995 8.23026 5.65576L8.17298 5.71924C8.27117 5.76064 8.36117 5.80204 8.44572 5.83516C8.44572 5.83516 8.48663 5.83516 8.50299 5.81308L8.7239 5.58952C8.74935 5.56281 8.77985 5.54157 8.81359 5.52706C8.84733 5.51254 8.88361 5.50506 8.92027 5.50506C8.95693 5.50506 8.99322 5.51254 9.02696 5.52706C9.0607 5.54157 9.0912 5.56281 9.11664 5.58952L9.27755 5.75236C9.30546 5.777 9.32811 5.80713 9.34413 5.84092C9.36015 5.87471 9.3692 5.91145 9.37073 5.94889C9.37226 5.98634 9.36624 6.02371 9.35303 6.05872C9.33983 6.09373 9.31971 6.12566 9.29392 6.15255L9.26937 6.18291C9.47392 6.26846 9.67302 6.35402 9.87484 6.43406C9.89121 6.43406 9.92393 6.43406 9.9403 6.40094C10.1258 6.2105 10.2949 6.00075 10.4858 5.82412C10.868 5.48448 11.3439 5.2716 11.8494 5.21418C11.9799 5.19042 12.1127 5.18301 12.2449 5.1921C12.3749 5.20871 12.4935 5.27531 12.5763 5.37808C12.6591 5.48084 12.6996 5.6119 12.6895 5.74408C12.6705 6.19735 12.5443 6.63938 12.3213 7.03296C12.2913 7.0854 12.2613 7.13783 12.2285 7.18751C12.1958 7.23719 12.1113 7.28687 12.0513 7.24547C12.0376 7.23524 12.0261 7.22224 12.0177 7.20729C12.0092 7.19234 12.0039 7.17578 12.0021 7.15865C12.0003 7.14151 12.002 7.12419 12.0072 7.10778C12.0124 7.09137 12.0209 7.07623 12.0322 7.06332C12.1687 6.86707 12.2711 6.64866 12.3349 6.4175C12.3883 6.18825 12.4284 5.95601 12.4549 5.722C12.4623 5.67726 12.4587 5.63136 12.4444 5.58836C12.4301 5.54536 12.4056 5.50659 12.3729 5.47548C12.3403 5.44438 12.3006 5.42188 12.2573 5.41C12.2141 5.39812 12.1686 5.39722 12.1249 5.40737C11.7772 5.41974 11.4359 5.5057 11.1231 5.65972C10.8102 5.81374 10.5327 6.03239 10.3085 6.30158L7.78843 9.29885L7.74752 9.343C7.73737 9.35344 7.72527 9.36172 7.71192 9.36737C7.69858 9.37303 7.68425 9.37594 7.66979 9.37594C7.65532 9.37594 7.641 9.37303 7.62765 9.36737C7.61431 9.36172 7.60221 9.35344 7.59206 9.343C7.58053 9.33363 7.57095 9.32204 7.56387 9.30889C7.5568 9.29575 7.55238 9.28131 7.55085 9.26642C7.54933 9.25154 7.55074 9.23649 7.55501 9.22216C7.55927 9.20783 7.5663 9.19449 7.5757 9.18293L7.6166 9.13325L8.44572 8.1728ZM9.76302 6.63277L9.71666 6.60793L6.7984 5.38253C6.71496 5.34303 6.6212 5.33164 6.53088 5.35002C6.44057 5.3684 6.35845 5.41558 6.29657 5.48465C6.20112 5.57849 6.10566 5.67784 6.0102 5.76064C5.91475 5.84344 5.89838 5.94003 6.02929 6.03663L8.52208 7.91889L8.59845 7.97685L9.76302 6.63277ZM7.61933 5.47361L7.91116 5.59504C7.9548 5.61436 8.11025 5.49017 8.10207 5.44049C8.09836 5.42889 8.09179 5.41844 8.08298 5.41013C8.02843 5.35493 7.97661 5.29973 7.92207 5.25005C7.9112 5.24402 7.89901 5.24085 7.88661 5.24085C7.87422 5.24085 7.86202 5.24402 7.85116 5.25005C7.78843 5.31353 7.70388 5.39081 7.61933 5.47361ZM8.71027 5.93175L8.95573 6.03663C9.05664 6.07803 9.07573 6.07527 9.13846 5.98419C9.14395 5.97404 9.14683 5.96265 9.14683 5.95107C9.14683 5.9395 9.14395 5.92811 9.13846 5.91795C9.08664 5.86 9.02937 5.8048 8.97209 5.75236C8.96247 5.74704 8.95169 5.74426 8.94073 5.74426C8.92977 5.74426 8.91898 5.74704 8.90936 5.75236C8.84936 5.8048 8.78663 5.86276 8.71572 5.93175H8.71027Z" fill="#410EAD"/>
<path d="M11.981 6.74034C11.9835 6.77108 11.9739 6.80159 11.9542 6.82514C11.9345 6.84869 11.9064 6.86336 11.876 6.86592C11.8456 6.86848 11.8155 6.85872 11.7922 6.8388C11.7689 6.81887 11.7544 6.7904 11.7519 6.75966C11.7362 6.67234 11.7134 6.58648 11.6837 6.50299C11.6462 6.41726 11.5876 6.34262 11.5137 6.28613C11.4397 6.22963 11.3527 6.19313 11.261 6.18008C11.2251 6.17632 11.1895 6.16987 11.1546 6.16076C11.1396 6.15851 11.1252 6.15312 11.1124 6.14493C11.0996 6.13675 11.0886 6.12595 11.0801 6.11323C11.0717 6.1005 11.0659 6.08613 11.0632 6.07103C11.0606 6.05593 11.061 6.04043 11.0646 6.02552C11.0706 5.99543 11.0878 5.96885 11.1127 5.95135C11.1376 5.93385 11.1683 5.92681 11.1982 5.93169C11.3929 5.94176 11.5775 6.0218 11.719 6.1574C11.8605 6.29299 11.9495 6.47524 11.9701 6.67134C11.9728 6.69066 11.9783 6.71826 11.981 6.74034Z" fill="#410EAD"/>
</svg>
