<svg width="57" height="52" viewBox="0 0 57 52" fill="none" xmlns="http://www.w3.org/2000/svg">
<path d="M42.1103 37.6024C40.1447 39.4596 37.9872 41.1069 35.6735 42.5171C35.3667 42.6364 35.1187 42.8688 34.9814 43.1655C34.8442 43.4622 34.8285 43.8 34.9377 44.108C35.2531 45.5684 35.4306 47.0601 35.6649 48.5385C35.7041 48.6633 35.7175 48.7946 35.7044 48.9246C35.6912 49.0546 35.6518 49.1807 35.5885 49.2953C35.5251 49.41 35.4391 49.5108 35.3355 49.5918C35.232 49.6729 35.113 49.7324 34.9857 49.767C34.3729 50.0224 33.753 50.2613 33.1315 50.4972C33.0055 50.5705 32.8648 50.6155 32.7193 50.629C32.5738 50.6424 32.427 50.624 32.2895 50.5751C32.152 50.5261 32.027 50.4478 31.9235 50.3456C31.82 50.2435 31.7404 50.1201 31.6905 49.9841C30.9964 48.7548 30.3149 47.5185 29.6264 46.2869C29.5317 46.1182 29.4276 45.955 29.3109 45.7582C28.9686 45.928 28.6072 46.0572 28.2343 46.1432C27.8961 46.2059 27.5465 46.1383 27.2571 45.9542C27.052 45.678 26.965 45.3329 27.0149 44.9936C27.1026 44.6136 27.2388 44.2462 27.4203 43.9002C27.2902 43.8167 27.164 43.7253 27.0259 43.6511C25.7514 42.9482 24.4649 42.2688 23.2077 41.5378C22.9253 41.3737 22.7637 41.0184 22.5113 40.7896C22.3651 40.6453 22.1743 40.5537 21.9694 40.5295C19.3729 40.5131 16.7764 40.5193 14.1792 40.5186C11.2398 40.5186 8.30052 40.5186 5.3612 40.5186C3.3255 40.5186 2.22052 39.4338 2.21737 37.4103C2.21053 33.0716 2.21053 28.7327 2.21737 24.3936C2.21737 23.7688 2.23631 23.144 2.20476 22.5192C2.18711 22.3207 2.0927 22.1366 1.94129 22.0053C1.64795 21.7941 1.41025 21.5161 1.24826 21.1948C1.08628 20.8734 1.00476 20.5182 1.0106 20.1591C1.00113 16.5666 0.992456 12.9811 1.0106 9.39168C1.00564 9.07687 1.06829 8.7646 1.19439 8.47556C1.3205 8.18653 1.50719 7.92734 1.74208 7.71512C1.97698 7.50291 2.25474 7.34251 2.55695 7.2446C2.85916 7.14668 3.17895 7.11345 3.4951 7.14712C5.49689 7.14009 7.49868 7.14711 9.50047 7.14321H10.1985C10.1985 6.45829 10.1693 5.81944 10.204 5.1845C10.2666 4.07698 10.7482 3.03347 11.5531 2.26187C12.3579 1.49027 13.4268 1.04724 14.5467 1.02109C19.0729 0.992971 23.5992 0.992971 28.1254 1.02109C29.1881 1.06156 30.2013 1.47663 30.9822 2.19147C31.7632 2.90631 32.2605 3.87389 32.3845 4.91976C32.4587 5.64139 32.4705 6.36928 32.5147 7.15026C33.7703 7.15026 35.0094 7.14558 36.2485 7.15026C37.3472 7.15573 38.4522 7.10887 39.5446 7.20103C39.8305 7.20899 40.1118 7.27478 40.3711 7.39432C40.6304 7.51386 40.8623 7.68463 41.0525 7.89616C41.2428 8.1077 41.3873 8.35551 41.4772 8.62438C41.5672 8.89325 41.6006 9.17746 41.5756 9.45961C41.5808 13.0131 41.5829 16.5666 41.5819 20.1201C41.5891 20.4784 41.5107 20.8333 41.3531 21.1559C41.1954 21.4785 40.963 21.7597 40.6748 21.9765C40.598 22.037 40.534 22.112 40.4865 22.1971C40.4389 22.2822 40.4089 22.3757 40.398 22.4724C40.398 22.5841 40.6346 22.7387 40.7923 22.7941C41.4525 23.0284 42.1332 23.2026 42.7878 23.4502C42.9358 23.5235 43.1048 23.5442 43.2664 23.5088C43.4279 23.4734 43.5723 23.384 43.6752 23.2557C44.8977 22.0694 46.0807 20.8308 47.4042 19.7639C49.22 18.3544 51.4455 17.5603 53.7519 17.4991C54.0823 17.4898 54.4104 17.5549 54.7117 17.6893C55.0131 17.8237 55.2797 18.024 55.4916 18.2752C55.7034 18.5263 55.8551 18.8217 55.935 19.1392C56.015 19.4568 56.0212 19.7881 55.9533 20.1083C55.6396 23.0474 54.2549 25.7725 52.0585 27.7737C51.396 28.3782 50.7887 29.0405 50.138 29.6582C50.0131 29.7514 49.9238 29.8838 49.8845 30.0336C49.8453 30.1835 49.8585 30.3421 49.9219 30.4837C51.758 36.0701 53.5642 41.6651 55.4011 47.2507C55.5466 47.5469 55.5843 47.8838 55.5078 48.2044C55.4314 48.525 55.2455 48.8096 54.9816 49.0102C54.4295 49.4679 53.9562 50.0122 53.4419 50.5144C52.7463 51.1946 52.2328 51.1649 51.6578 50.3957C49.5346 47.556 47.414 44.7148 45.296 41.872L42.1103 37.6024ZM25.8468 24.0406C24.7031 23.2002 23.6904 22.4614 22.6832 21.714C21.9552 21.1736 21.9126 20.6777 22.5476 20.024C23.0997 19.4578 23.6817 18.9244 24.2204 18.3488C24.3969 18.1358 24.6387 17.9856 24.9092 17.9212C25.1797 17.8568 25.4641 17.8816 25.719 17.9919C28.3818 18.8619 31.0887 19.6085 33.7128 20.5769C35.2922 21.2731 37.0849 21.3256 38.703 20.723C38.8375 20.6724 38.9772 20.6362 39.1195 20.6152C39.2134 20.6107 39.3052 20.5865 39.3889 20.5442C39.4727 20.5019 39.5464 20.4426 39.6053 20.37C39.6642 20.2975 39.7069 20.2134 39.7305 20.1233C39.7542 20.0333 39.7583 19.9392 39.7426 19.8475C39.7252 16.4729 39.7347 13.0982 39.7323 9.72359C39.7323 9.07381 39.6803 9.02073 39.0225 9.02073C36.3361 9.01553 33.6497 9.01292 30.9633 9.01292C21.8398 9.01292 12.7169 9.01292 3.59446 9.01292C2.92483 9.01292 2.86254 9.07771 2.86254 9.75639C2.86254 13.1146 2.86808 16.4729 2.85782 19.8264C2.84417 19.9216 2.85014 20.0185 2.87544 20.1113C2.90075 20.2041 2.94486 20.2909 3.00504 20.3663C3.06522 20.4418 3.14024 20.5043 3.22557 20.5502C3.31089 20.596 3.40474 20.6243 3.50141 20.6332C8.79534 21.9671 14.0798 23.3377 19.3761 24.6607C20.1509 24.8851 20.9605 24.9677 21.7652 24.9044C23.0949 24.7388 24.3971 24.3608 25.8468 24.0406ZM24.9973 26.1227C24.9973 26.8662 25.0107 27.5777 24.9973 28.2891C25.0122 28.7723 24.9298 29.2536 24.7547 29.7049C24.5796 30.1561 24.3155 30.5683 23.9777 30.9173C23.6399 31.2663 23.2352 31.5452 22.7874 31.7376C22.3395 31.93 21.8574 32.0321 21.3692 32.0379C20.4112 32.0661 19.4811 31.7166 18.7831 31.0663C18.0851 30.416 17.6763 29.518 17.6464 28.5695C17.6346 27.9275 17.5849 27.284 17.6196 26.6444C17.6432 26.207 17.45 26.068 17.0675 25.9735C13.7241 25.134 10.3838 24.2804 7.04201 23.433C6.08923 23.1917 5.13483 22.9581 4.11264 22.7043C4.11264 22.987 4.11264 23.1979 4.11264 23.4072C4.11264 28.066 4.11396 32.7259 4.11659 37.3868C4.11659 38.4294 4.32089 38.6512 5.36438 38.6512C11.1484 38.6512 16.9347 38.6536 22.7234 38.6583C22.8626 38.6804 23.0051 38.6514 23.1242 38.5767C23.2433 38.5021 23.3308 38.3869 23.3702 38.2529C23.3992 38.1248 23.4552 38.0041 23.5344 37.8987C23.6136 37.7933 23.7143 37.7056 23.8299 37.6412C23.9456 37.5769 24.0736 37.5373 24.2057 37.5251C24.3378 37.5129 24.471 37.5283 24.5966 37.5703C26.2664 37.8273 27.9361 38.0905 29.6019 38.3724C29.7426 38.4216 29.8967 38.4173 30.0344 38.3605C30.172 38.3036 30.2835 38.1982 30.3473 38.0647C31.7733 35.7272 33.4398 33.542 35.3202 31.5443C35.4235 31.4342 35.5103 31.31 35.6159 31.1764C33.0526 29.3021 30.5334 27.4574 28.0032 25.6276C27.8308 25.5222 27.6244 25.4856 27.4258 25.5252C26.6355 25.6963 25.8586 25.9072 24.9997 26.1235L24.9973 26.1227ZM29.4686 43.5089L29.6264 43.6206C33.8526 41.8117 37.7079 39.2504 41.0006 36.0638C44.2241 32.9469 47.3514 29.7316 50.5875 26.6272C52.5305 24.8927 53.7664 22.5149 54.0627 19.9412C54.1171 19.4242 54.0114 19.2805 53.4995 19.3391C51.0954 19.5801 48.8549 20.6551 47.1739 22.374C44.2004 25.3612 41.193 28.3149 38.1825 31.2686C35.8743 33.4789 33.8523 35.9645 32.1629 38.6684C31.2101 40.2468 30.3678 41.8931 29.4749 43.5089H29.4686ZM12.0378 7.10107H30.5594C30.5594 6.52002 30.5855 5.98425 30.5547 5.4524C30.555 5.10256 30.4843 4.75622 30.3468 4.43393C30.2094 4.11165 30.008 3.81998 29.7546 3.57621C29.5012 3.33243 29.201 3.14151 28.8717 3.01478C28.5424 2.88805 28.1907 2.8281 27.8375 2.83846C23.4732 2.81294 19.1105 2.81294 14.7494 2.83846C14.0822 2.82699 13.4349 3.0634 12.935 3.50113C12.4351 3.93886 12.1189 4.54617 12.0488 5.20329C11.9889 5.81948 12.0441 6.44661 12.0441 7.10107H12.0378ZM43.4866 36.3356L52.6667 48.651C52.7715 48.5413 52.8838 48.4387 53.0026 48.344C53.5326 47.9918 53.5547 47.5786 53.356 46.9851C51.8574 42.4874 50.4077 37.9765 48.9391 33.4694C48.7317 32.8321 48.5171 32.1972 48.3034 31.5537L43.4866 36.3356ZM24.5123 20.7651L36.844 29.7769L41.6876 25.0317L26.376 20.1568C25.3057 19.8155 25.3065 19.8139 24.5154 20.7651H24.5123ZM19.5109 26.728C19.4791 27.3877 19.4844 28.0486 19.5267 28.7078C19.5784 29.0924 19.7626 29.4476 20.0484 29.7132C20.3341 29.9787 20.7037 30.1384 21.0947 30.1651C21.4994 30.2376 21.9168 30.1576 22.2649 29.9408C22.613 29.7241 22.8666 29.3862 22.9758 28.9936C23.0943 28.2442 23.156 27.4872 23.1604 26.7287L19.5109 26.728ZM28.1475 42.1547L29.1011 40.1562L24.8688 39.4963L24.5943 40.207L28.1475 42.1547ZM31.0516 45.0264C31.6408 46.0838 32.211 47.1046 32.7789 48.1269C32.8988 48.3417 32.9587 48.5744 33.331 48.4471C33.7033 48.3198 33.7215 48.098 33.6694 47.7911C33.5535 47.1093 33.4493 46.4259 33.335 45.7441C33.2435 45.1974 33.1441 44.6507 33.0423 44.0705L31.0516 45.0264Z" fill="#1992FB" stroke="#1992FB"/>
</svg>
