<svg width="46" height="53" viewBox="0 0 46 53" fill="none" xmlns="http://www.w3.org/2000/svg">
<path fill-rule="evenodd" clip-rule="evenodd" d="M33.9609 0.223078C33.7183 0.432009 33.6799 0.565286 33.5917 1.50382C33.3187 4.40917 32.1619 6.64108 30.3136 7.82865C29.5416 8.32466 28.3493 8.69361 27.2071 8.78988C26.0421 8.88813 25.7169 9.09375 25.7169 9.73173C25.7169 10.3475 25.9999 10.5206 27.2206 10.6515C27.7909 10.7127 28.5142 10.8383 28.8279 10.9307C31.4664 11.7082 33.2189 14.266 33.5888 17.8801C33.7012 18.978 33.86 19.32 34.3022 19.417C34.9982 19.5697 35.4645 19.0371 35.4645 18.0893C35.4645 16.8665 36.0747 14.7985 36.7759 13.6448C37.2973 12.787 38.2753 11.8291 39.0457 11.4216C39.8249 11.0095 40.9661 10.703 42.0493 10.6151C43.0439 10.5344 43.3475 10.3288 43.3422 9.73961C43.3363 9.07644 42.9272 8.799 41.9554 8.799C41.6546 8.799 41.0486 8.70708 40.6088 8.59463C37.6665 7.84254 35.8288 5.29391 35.4672 1.46381C35.3825 0.567048 35.3423 0.430662 35.1014 0.223078C34.7561 -0.0743592 34.3063 -0.0743592 33.9609 0.223078ZM15.2954 3.01422C14.8653 3.52504 14.9821 3.82362 16.0071 4.83491C16.763 5.58057 16.9206 5.68991 17.2397 5.68991C17.7219 5.68991 18.035 5.41848 18.1127 4.93336C18.1744 4.54856 18.1545 4.51819 17.2478 3.61199C16.4232 2.78788 16.2781 2.68445 15.9464 2.68445C15.6542 2.68445 15.5127 2.75606 15.2954 3.01422ZM19.9544 3.558C19.1572 4.35465 19.0803 4.467 19.0803 4.83532C19.0803 5.36832 19.4089 5.68991 19.9536 5.68991C20.3008 5.68991 20.4379 5.60213 21.1269 4.93854C22.213 3.89243 22.358 3.48535 21.8466 2.91763C21.6971 2.7516 21.5202 2.68445 21.2324 2.68445C20.8639 2.68445 20.7515 2.76124 19.9544 3.558ZM34.6349 5.51072C34.6349 5.58316 34.8477 6.00569 35.1077 6.44956C35.6836 7.43287 36.83 8.66148 37.713 9.24164C38.0732 9.47834 38.3677 9.69712 38.3672 9.72779C38.3668 9.75847 38.1888 9.8848 37.9719 10.0086C36.8057 10.6739 35.5422 12.0629 34.9234 13.3595C34.7362 13.7518 34.5597 14.0728 34.5312 14.0728C34.5027 14.0728 34.3262 13.7518 34.139 13.3595C33.5203 12.0629 32.2567 10.6739 31.0905 10.0086C30.8736 9.8848 30.6957 9.75847 30.6952 9.72779C30.6947 9.69712 30.9892 9.47834 31.3495 9.24164C32.2324 8.66148 33.3788 7.43287 33.9548 6.44956C34.2147 6.00569 34.4275 5.58316 34.4275 5.51072C34.4275 5.43828 34.4742 5.379 34.5312 5.379C34.5882 5.379 34.6349 5.43828 34.6349 5.51072ZM16.6331 6.91593C16.0802 7.31679 15.153 8.34777 15.0784 8.64448C14.9982 8.96441 15.2291 9.42797 15.5618 9.61431C16.0086 9.8647 16.3653 9.68644 17.2915 8.75009C18.0476 7.98566 18.147 7.8413 18.147 7.50821C18.147 7.0348 17.7704 6.62264 17.3377 6.62264C17.1726 6.62264 16.8556 6.75457 16.6331 6.91593ZM19.3536 6.83747C19.1387 7.0063 19.0803 7.14196 19.0803 7.47194C19.0803 7.85715 19.1494 7.96235 19.9231 8.75454C20.8068 9.65939 21.1638 9.84439 21.5889 9.61804C21.9431 9.42943 22.0806 9.20401 22.0842 8.80533C22.0871 8.49348 21.9733 8.33471 21.1739 7.53578C20.1674 6.52988 19.8833 6.42096 19.3536 6.83747ZM10.298 10.6632C9.94427 10.8091 9.77763 11.172 9.70245 11.9599C9.60767 12.9537 9.4655 13.4932 9.07456 14.3436C8.42957 15.7462 7.31441 16.6021 5.96261 16.7323C5.04416 16.8207 4.90044 16.8627 4.6693 17.1108C4.17445 17.6416 4.59028 18.5408 5.33057 18.5408C6.2064 18.5408 7.22989 18.8943 7.95806 19.4485C8.80889 20.0959 9.56319 21.7885 9.70681 23.3728C9.77006 24.0701 9.8215 24.2271 10.0672 24.4726C10.4177 24.8229 10.784 24.8387 11.1549 24.5198C11.3973 24.3114 11.4517 24.1475 11.5758 23.2503C11.9501 20.5455 13.0528 19.073 15.0153 18.6572C15.3176 18.5932 15.728 18.5408 15.9274 18.5408C16.6677 18.5408 17.0835 17.6416 16.5887 17.1108C16.3632 16.8689 16.2074 16.8206 15.3979 16.7417C13.2578 16.5331 11.8026 14.721 11.5516 11.9521C11.4981 11.362 11.4237 11.0961 11.2616 10.9154C11.0076 10.6318 10.62 10.5305 10.298 10.6632ZM24.2133 14.8456C23.0987 15.215 22.3167 15.867 21.8943 16.779C21.674 17.2548 21.63 17.5032 21.6285 18.2817C21.6274 18.7948 21.6938 19.471 21.7758 19.7845C21.9845 20.5817 21.9629 21.9821 21.7311 22.6863C21.0136 24.8663 19.1651 26.9313 16.0212 29.0647C14.7476 29.929 13.761 30.395 12.6322 30.6655C11.4122 30.9577 11.3588 30.9502 11.2132 30.4647C11.04 29.887 10.1681 28.9734 9.45617 28.6241L8.86613 28.3345H5.75521C2.77589 28.3345 2.62376 28.344 2.16003 28.5604C1.5842 28.8291 0.891397 29.4325 0.56444 29.9503C-0.0110803 30.8614 1.52941e-05 30.6506 1.52941e-05 40.6751C1.52941e-05 49.6633 0.00582223 49.9398 0.209795 50.5997C0.475986 51.461 1.20249 52.2924 2.05426 52.7104L2.6443 53H5.75521C8.73267 53 8.88708 52.9904 9.35527 52.7742C10.0458 52.4554 10.8367 51.6779 11.1553 51.0049L11.4253 50.4346L11.9841 50.5002C12.704 50.5848 13.3986 50.8592 14.6213 51.542C15.8569 52.2321 16.7124 52.5698 17.8359 52.8109C18.6518 52.9859 19.4034 53 27.9464 53H37.1755L37.7458 52.7312C38.9458 52.1654 39.7107 51.0299 39.797 49.6857C39.8372 49.0598 39.8025 48.8466 39.5627 48.2477C39.4079 47.861 39.2975 47.5303 39.3172 47.5128C39.337 47.4952 39.5419 47.3858 39.7726 47.2696C40.3089 46.9994 41.0194 46.2298 41.3062 45.6082C41.6369 44.8914 41.6265 43.4524 41.2856 42.7605C41.1507 42.4868 41.0574 42.2502 41.0782 42.2349C41.099 42.2194 41.333 42.0827 41.5983 41.931C43.6023 40.7846 43.9503 38.0943 42.3071 36.4519L41.7171 35.8623L42.0892 35.1133C42.4183 34.4506 42.4614 34.2726 42.4614 33.5725C42.4614 32.8891 42.4153 32.6876 42.1247 32.0975C41.7327 31.3018 41.1694 30.7531 40.3507 30.3694L39.7679 30.0963L33.7883 30.0665L27.8087 30.0366L28.2537 29.0819C30.8524 23.5065 30.8924 18.854 28.3644 16.1759C27.41 15.1647 26.6435 14.7839 25.4738 14.7399C24.9628 14.7207 24.464 14.7625 24.2133 14.8456ZM10.9001 15.7686C11.0228 16.0109 11.4618 16.5428 11.8754 16.9508L12.6274 17.6926L12.0798 18.1652C11.7786 18.4251 11.343 18.9207 11.1119 19.2666C10.8809 19.6124 10.6635 19.8954 10.629 19.8954C10.5945 19.8954 10.3771 19.6124 10.1461 19.2666C9.91493 18.9207 9.47815 18.4239 9.17536 18.1628L8.62493 17.6878L9.26402 17.0891C9.61555 16.7598 10.0664 16.2295 10.266 15.9105C10.4657 15.5917 10.6397 15.3302 10.6528 15.3295C10.6659 15.3287 10.7772 15.5263 10.9001 15.7686ZM26.1785 16.6839C26.706 16.9317 27.4693 17.7037 27.7708 18.2942C28.2407 19.2148 28.4518 20.192 28.4508 21.4427C28.4492 23.6909 27.798 25.9721 26.3212 28.9045C25.8188 29.902 25.4073 30.8485 25.4068 31.0078C25.4063 31.1783 25.5107 31.4023 25.6604 31.5519L25.9149 31.8063L32.5822 31.8086C38.8482 31.8108 39.2748 31.8224 39.6724 32.0028C40.9903 32.6011 41.0452 34.4146 39.7679 35.1575C39.6285 35.2387 38.5308 35.2951 36.4146 35.33L33.2686 35.3818L33.0185 35.6726C32.6916 36.0526 32.6933 36.508 33.0229 36.8374L33.2774 37.0918L36.5746 37.0924C38.5553 37.0927 40.028 37.1364 40.2633 37.2016C42.0496 37.6974 41.9848 40.2003 40.1747 40.6199C39.951 40.6717 38.3076 40.7152 36.5227 40.7166L33.2774 40.7191L33.0229 40.9735C32.6934 41.3027 32.6916 41.7582 33.0185 42.1383L33.2685 42.4291L35.9998 42.4809C38.9623 42.5371 38.9979 42.5439 39.4576 43.1462C40.1512 44.0552 39.8074 45.323 38.7352 45.8097C38.366 45.9774 38.0166 46.0003 35.7968 46.0023L33.2774 46.0045L33.0229 46.259C32.6661 46.6155 32.6847 47.0769 33.0715 47.4634L33.3746 47.7664H35.0459C36.5234 47.7664 36.7652 47.7908 37.1318 47.9778C37.8013 48.3192 38.16 49.1022 38.0108 49.8971C37.9201 50.38 37.3065 51.0513 36.8271 51.1921C36.5678 51.2681 33.6567 51.2918 27.5316 51.2675C18.6324 51.2323 18.6119 51.2318 17.8002 50.9981C16.9317 50.748 16.3959 50.506 14.8207 49.6524C13.8322 49.1167 12.5336 48.6991 11.8568 48.6991H11.5104V40.6672V32.6354H11.8082C12.3542 32.6354 14.083 32.1365 14.9598 31.7259C16.5511 30.9805 18.9211 29.2648 20.4318 27.7645C22.2334 25.9751 23.2021 24.37 23.5901 22.5308C23.7963 21.5531 23.7854 20.9665 23.5337 19.5181C23.4056 18.7812 23.3475 18.1335 23.3879 17.8947C23.5781 16.7695 25.0247 16.1419 26.1785 16.6839ZM41.2197 18.6563C40.799 18.8949 40.753 19.0592 40.753 20.3272C40.753 21.4933 40.766 21.5686 41.0076 21.8101C41.3863 22.1886 41.9004 22.158 42.2559 21.7355C42.5258 21.415 42.532 21.3768 42.4985 20.2354C42.4689 19.2294 42.4348 19.035 42.2563 18.8568C41.9973 18.5984 41.4935 18.5008 41.2197 18.6563ZM37.6836 22.2125C37.1573 22.4414 37.0393 23.1992 37.4673 23.601C37.6863 23.8065 37.8168 23.8263 38.9529 23.8263C40.1121 23.8263 40.2132 23.8101 40.412 23.5931C40.5294 23.4648 40.6566 23.2573 40.6947 23.1319C40.7869 22.8276 40.5256 22.3432 40.1856 22.1883C39.8149 22.0195 38.0888 22.0362 37.6836 22.2125ZM43.1381 22.1377C42.5069 22.3683 42.3149 23.1167 42.7705 23.5719C43.0125 23.8139 43.0861 23.8263 44.2741 23.8263C45.3795 23.8263 45.5467 23.8028 45.7279 23.6216C46.1642 23.1856 46.0613 22.4706 45.5231 22.1986C45.2648 22.068 43.4552 22.0218 43.1381 22.1377ZM41.3752 23.8995C41.2897 23.9308 41.1147 24.0518 40.9864 24.1685C40.7688 24.3663 40.753 24.466 40.753 25.6399C40.753 26.8128 40.769 26.9142 40.9864 27.1153C41.2563 27.3653 41.5189 27.4223 41.9178 27.3176C42.3655 27.2002 42.5159 26.7783 42.5159 25.6399C42.5159 24.4853 42.3772 24.1139 41.8814 23.9411C41.7 23.878 41.547 23.83 41.5413 23.8345C41.5354 23.8389 41.4608 23.8683 41.3752 23.8995ZM8.50776 30.1477C8.92472 30.2635 9.4738 30.7832 9.63754 31.2171C9.7121 31.4149 9.74756 34.4642 9.74756 40.6773C9.74756 48.1433 9.72153 49.908 9.60746 50.1809C9.42174 50.625 8.79842 51.1604 8.37471 51.2399C8.18754 51.2751 6.8878 51.289 5.48653 51.2709L2.93869 51.2382L2.54692 50.9393C2.33144 50.7749 2.06784 50.4485 1.96124 50.2138C1.77676 49.8077 1.76733 49.3511 1.76515 40.6898C1.76318 32.734 1.78288 31.5445 1.92236 31.2108C2.13722 30.697 2.3583 30.4659 2.85169 30.2394C3.21639 30.0721 3.56067 30.0489 5.70337 30.0474C7.04365 30.0465 8.30565 30.0916 8.50776 30.1477Z" fill="black"/>
</svg>
