<svg width="35" height="35" viewBox="0 0 35 35" fill="none" xmlns="http://www.w3.org/2000/svg">
<path fill-rule="evenodd" clip-rule="evenodd" d="M2.62544 0.0983974C1.38512 0.399263 0.339843 1.47656 0.0802153 2.72151C-0.0267384 3.23453 -0.0267384 31.7621 0.0802153 32.2751C0.347292 33.556 1.44389 34.6527 2.7246 34.9198C3.23757 35.0267 31.7624 35.0267 32.2754 34.9198C33.5561 34.6527 34.6527 33.556 34.9198 32.2751C35.0267 31.7621 35.0267 3.23453 34.9198 2.72151C34.6527 1.44068 33.5561 0.34397 32.2754 0.0768679C31.7216 -0.0386395 3.10465 -0.0178618 2.62544 0.0983974ZM30.1613 16.4682C30.5285 16.5479 30.9744 16.6671 31.1523 16.7332L31.4757 16.8532L31.4941 18.4402C31.5042 19.313 31.4878 20.0272 31.4577 20.0272C31.4276 20.0272 31.1985 19.9186 30.9486 19.7859C29.392 18.9593 27.3156 18.7711 26.1284 19.3492C25.5629 19.6245 25.3419 19.915 25.3045 20.4322C25.2596 21.0532 25.5497 21.4903 26.3381 21.9896C26.495 22.089 27.2734 22.4672 28.0676 22.8299C29.6988 23.5749 30.487 24.0637 31.0728 24.6933C31.8551 25.5342 32.1607 26.4493 32.1047 27.7846C32.0545 28.9886 31.7114 29.8392 30.9768 30.5818C29.9419 31.628 28.3489 32.1234 26.0172 32.1243C24.4376 32.1249 22.9779 31.8773 21.9934 31.4417L21.6688 31.2981V29.5596V27.8209L22.0276 28.0969C22.5482 28.4974 23.6637 29.0236 24.3341 29.1848C25.5318 29.4729 26.7692 29.4313 27.5443 29.077C28.002 28.8677 28.1365 28.7502 28.3125 28.4052C28.4167 28.2009 28.4426 28.0436 28.4209 27.7442C28.3584 26.8795 27.6998 26.3597 25.4617 25.4079C23.9848 24.7799 23.3179 24.3546 22.6265 23.6C22.1742 23.1063 21.8655 22.5403 21.7045 21.9095C21.5719 21.3902 21.5713 20.2618 21.7034 19.7018C22.1207 17.9312 23.7276 16.7152 26.1451 16.3403C26.3707 16.3053 27.2164 16.2872 28.0245 16.3C29.2018 16.3186 29.6266 16.3521 30.1613 16.4682ZM20.302 18.0109V19.4121H18.1151H15.9282V25.6659V31.9197H14.1858H12.4435L12.426 25.6829L12.4086 19.4462L10.2388 19.4282L8.06894 19.4101V18.01V16.6098H14.1855H20.302V18.0109Z" fill="white"/>
</svg>
