<svg width="39" height="40" viewBox="0 0 39 40" fill="none" xmlns="http://www.w3.org/2000/svg">
<path fill-rule="evenodd" clip-rule="evenodd" d="M11.8078 0.106184C11.1637 0.270857 10.6816 0.552061 10.196 1.04639C9.69583 1.55558 9.39346 2.11626 9.25418 2.79301C9.19474 3.08172 9.16889 5.59207 9.16889 11.0813V18.9554L8.43757 19.0949C6.33011 19.4971 4.5518 20.4697 3.01068 22.0631C1.76718 23.3488 1.06668 24.5011 0.533471 26.1381C-0.484994 29.2648 -0.0333967 32.6008 1.7873 35.3995C1.99703 35.7219 2.54753 36.3775 3.01068 36.8563C4.49252 38.3884 6.04481 39.266 8.21276 39.7973L8.90117 39.9661L22.3252 39.9925C32.161 40.0118 35.8719 39.995 36.2081 39.9296C36.8293 39.8089 37.6206 39.3708 38.0347 38.9184C38.4393 38.4764 38.7945 37.7874 38.914 37.2128C38.9759 36.9147 39 32.866 39 22.7697C39 10.0801 38.9884 8.71688 38.8779 8.49062C38.7095 8.14572 31.0746 0.333382 30.723 0.1462C30.4469 -0.000732631 30.1913 -0.00471855 21.3147 0.00176835C14.2842 0.0069266 12.1025 0.0308422 11.8078 0.106184ZM29.0563 5.78175C29.0563 9.0771 29.0629 9.23685 29.2103 9.53212C29.3094 9.73071 29.4719 9.89671 29.6662 9.998C29.9552 10.1486 30.1116 10.1553 33.3367 10.1553H36.7053V23.4449C36.7053 36.6098 36.7038 36.7373 36.5513 37.0428C36.4522 37.2414 36.2897 37.4074 36.0954 37.5087C35.7977 37.6638 35.6637 37.666 26.3233 37.666H16.8532L17.6282 36.8649C19.1257 35.3171 20.0773 33.4739 20.4602 31.3793L20.5967 30.632H26.6653C32.5965 30.632 32.7407 30.6284 33.0358 30.4747C33.3752 30.2978 33.6457 29.8475 33.6457 29.4597C33.6457 29.0719 33.3752 28.6217 33.0358 28.4447C32.7407 28.291 32.5965 28.2874 26.6586 28.2874H20.5833L20.5319 27.9161C20.3776 26.7999 19.8645 25.2889 19.2989 24.2856C19.1123 23.9544 18.9596 23.6643 18.9596 23.6408C18.9596 23.6173 22.0588 23.5981 25.8468 23.5981C32.5983 23.5981 32.7398 23.5949 33.0358 23.4407C33.3752 23.2638 33.6457 22.8135 33.6457 22.4257C33.6457 22.0379 33.3752 21.5877 33.0358 21.4107C32.739 21.2561 32.6007 21.2534 24.7726 21.2534H16.8114L16.413 20.953C15.1239 19.9806 13.3673 19.2406 11.8269 19.021L11.4636 18.9691L11.4668 11.1038C11.4704 2.26351 11.427 2.9072 12.0444 2.52541L12.3432 2.34057L20.6998 2.34018L29.0563 2.33979V5.78175ZM33.225 5.93494L35.0595 7.81067H33.2053H31.351V5.93494C31.351 4.90329 31.3599 4.05921 31.3707 4.05921C31.3816 4.05921 32.216 4.90329 33.225 5.93494ZM15.1168 14.3806C14.7939 14.5548 14.5232 15.0159 14.5232 15.3917C14.5232 15.7795 14.7937 16.2298 15.1331 16.4067C15.4304 16.5616 15.5667 16.5641 24.0844 16.5641C32.6022 16.5641 32.7385 16.5616 33.0358 16.4067C33.3752 16.2298 33.6457 15.7795 33.6457 15.3917C33.6457 15.0039 33.3752 14.5537 33.0358 14.3767C32.7384 14.2218 32.6057 14.2195 24.0684 14.2228C15.5918 14.2262 15.3966 14.2296 15.1168 14.3806ZM12.1544 21.4756C13.6673 21.8786 14.9425 22.6103 15.9812 23.6714C17.0139 24.7268 17.7123 25.9929 18.1377 27.5816C18.2672 28.0652 18.2953 28.4001 18.2953 29.4597C18.2953 30.8667 18.2193 31.2929 17.7448 32.5493C17.0271 34.4496 15.1998 36.3167 13.34 37.05C12.1104 37.5349 11.6932 37.6125 10.3162 37.6125C8.93927 37.6125 8.52209 37.5349 7.29251 37.05C5.43266 36.3167 3.60539 34.4496 2.88768 32.5493C2.42155 31.3153 2.33887 30.8606 2.33267 29.4988C2.3264 28.1005 2.45383 27.4099 2.9322 26.2511C3.98279 23.7057 6.43689 21.7589 9.13064 21.3339C9.8472 21.2209 11.4862 21.2977 12.1544 21.4756ZM13.5671 26.3055C13.4409 26.3727 12.2966 27.4875 11.0242 28.7829L8.71087 31.1382L7.92638 30.3459C7.4949 29.9102 7.03176 29.4974 6.89714 29.4285C5.9635 28.9512 4.92354 30.0138 5.39021 30.9681C5.5594 31.3141 7.84232 33.6568 8.19058 33.8419C8.53586 34.0254 8.86607 34.034 9.19184 33.8679C9.52962 33.6957 14.881 28.2388 15.0638 27.8802C15.2528 27.5093 15.251 27.1877 15.0576 26.8004C14.7888 26.2621 14.0869 26.029 13.5671 26.3055Z" fill="#919D06"/>
</svg>
