<svg width="44" height="40" viewBox="0 0 44 40" fill="none" xmlns="http://www.w3.org/2000/svg">
<path fill-rule="evenodd" clip-rule="evenodd" d="M29.5787 0.124851C29.2787 0.189355 28.9111 0.312313 28.7619 0.398034C12.6198 9.67032 1.51942 16.1258 1.15443 16.4532C0.172284 17.334 -0.232595 18.7589 0.132561 20.0487C0.230664 20.3953 1.1123 22.0038 2.87979 25.0612L5.48257 29.5634L5.50819 33.3757C5.53356 37.1542 5.53562 37.1925 5.73647 37.686C6.13249 38.6592 7.05007 39.5146 8.04477 39.838C8.52738 39.9949 9.05563 40 24.7503 40C40.445 40 40.9732 39.9949 41.4558 39.838C42.4506 39.5146 43.3681 38.6592 43.7642 37.686L43.9668 37.1881L43.9899 26.5879C44.0152 14.9913 44.0328 15.4383 43.5192 14.5698C43.1733 13.9849 42.5619 13.4313 41.9114 13.1139C41.4148 12.8716 41.2077 12.8215 40.5806 12.7917L39.838 12.7565L36.6146 7.1648C33.1088 1.08312 32.9555 0.859616 31.9726 0.400931C31.5183 0.188929 30.6734 -0.0134444 30.3017 0.000700432C30.204 0.00444967 29.8787 0.0603472 29.5787 0.124851ZM31.174 2.0477C31.3794 2.14628 31.6386 2.34755 31.7501 2.49505C32.0089 2.83751 37.6473 12.5915 37.6473 12.6967C37.6473 12.7445 32.4265 12.7754 24.3462 12.7754C16.51 12.7754 11.0787 12.7441 11.1268 12.6991C11.2403 12.5931 29.5364 2.04548 29.7659 1.9538C30.1111 1.81584 30.7844 1.86083 31.174 2.0477ZM41.1828 14.8029C41.5176 14.9763 41.7132 15.1541 41.902 15.4567L42.1612 15.8722V26.3598V36.8472L41.9463 37.2269C41.8281 37.4357 41.5636 37.7233 41.3585 37.866L40.9857 38.1254H24.7503H8.51491L8.1421 37.866C7.93704 37.7233 7.67256 37.4357 7.55434 37.2269L7.33939 36.8472V26.3598V15.8722L7.59862 15.4567C7.78743 15.1541 7.98304 14.9763 8.31784 14.8029L8.77766 14.5649H24.7503H40.723L41.1828 14.8029ZM5.47062 23.3598L5.44784 25.8491L3.74389 22.9032C2.80671 21.2829 1.98233 19.7915 1.91183 19.5889C1.76592 19.169 1.8151 18.6936 2.05275 18.2289C2.26839 17.8072 2.35738 17.7411 3.98738 16.7921L5.44784 15.9418L5.47062 18.4061C5.48317 19.7615 5.48317 21.9906 5.47062 23.3598ZM15.572 20.1499C14.8834 20.3337 14.4443 20.5895 13.915 21.1154C12.5085 22.5124 12.4746 24.6816 13.8369 26.1091C14.6536 26.9649 15.526 27.3093 16.7034 27.2404C17.6805 27.1832 18.2701 26.9384 18.9515 26.3067C20.4742 24.895 20.5646 22.7062 19.1632 21.1865C18.268 20.2159 16.8543 19.8077 15.572 20.1499ZM17.3853 22.0845C18.3802 22.6297 18.6051 23.9921 17.8421 24.8534C16.7535 26.0821 14.6907 25.316 14.6907 23.683C14.6907 22.2493 16.1289 21.3961 17.3853 22.0845ZM24.2092 23.8541C23.8807 24.1101 23.7655 24.5324 23.9225 24.9049C24.1744 25.5024 23.7321 25.4717 32.1016 25.4717C40.281 25.4717 39.9878 25.4886 40.2099 25.0055C40.3937 24.6056 40.3385 24.206 40.0613 23.9314L39.81 23.6823H32.1198C24.5399 23.6823 24.4264 23.6848 24.2092 23.8541ZM15.3355 28.2504C14.5379 28.3667 13.2765 28.6731 12.5181 28.9347C10.7287 29.5521 9.91079 30.1257 9.46112 31.0789C9.14497 31.7489 9.08375 33.031 9.34384 33.5338C9.54168 33.9163 9.79463 34.1628 10.2197 34.3875C10.5052 34.5384 10.8273 34.5466 16.4962 34.5466C22.4493 34.5466 22.4731 34.5459 22.8158 34.3631C23.2165 34.1494 23.4683 33.8937 23.6732 33.4922C23.9081 33.032 23.8306 31.7131 23.5314 31.0789C23.0672 30.0948 22.2031 29.5085 20.2898 28.8791C19.7403 28.6984 18.9811 28.4864 18.6028 28.4082C17.9428 28.2717 15.8743 28.1718 15.3355 28.2504ZM27.9616 29.2359C27.4637 29.4747 27.3799 30.2759 27.8108 30.6772L28.0313 30.8825L33.806 30.9056C38.0431 30.9226 39.6448 30.9023 39.8217 30.8297C40.3496 30.613 40.4838 29.8035 40.0613 29.3848L39.81 29.1357L33.9783 29.1415C30.125 29.1453 28.0837 29.1774 27.9616 29.2359ZM17.399 30.076C18.8614 30.2401 20.9859 30.9349 21.5151 31.422C21.8047 31.6886 21.999 32.0982 21.999 32.4426V32.6873L19.9215 32.7435C18.7789 32.7745 16.3027 32.7998 14.4188 32.7998H10.9935L10.9939 32.4376C10.9942 32.011 11.2074 31.6271 11.6096 31.3284C12.2302 30.8677 14.2209 30.2278 15.4891 30.0815C16.3733 29.9795 16.5342 29.9791 17.399 30.076Z" fill="#FC7754"/>
</svg>
