<svg width="49" height="51" viewBox="0 0 49 51" fill="none" xmlns="http://www.w3.org/2000/svg">
<path d="M28.6317 0C28.6862 0.0380031 28.7474 0.0650907 28.812 0.079799C29.6207 0.242205 30.3571 0.661406 30.9142 1.27646C31.4713 1.89151 31.8201 2.67036 31.9098 3.49977C32.0337 4.29776 32.1689 5.09576 32.304 5.90515C32.3699 6.33477 32.5299 6.74407 32.7721 7.10313C33.0144 7.46218 33.3328 7.76192 33.7043 7.98045C34.0757 8.19897 34.4906 8.33076 34.9188 8.36617C35.347 8.40158 35.7776 8.33973 36.1791 8.18513C36.979 7.91153 37.7675 7.58094 38.5673 7.28454C39.4476 6.91572 40.4319 6.89115 41.3291 7.21557C42.2263 7.54 42.9724 8.19027 43.4224 9.04012C44.7442 11.3201 46.0584 13.6305 47.3651 15.9713C47.8743 16.7744 48.0709 17.7401 47.9169 18.6814C47.7629 19.6228 47.2693 20.4729 46.5315 21.067C45.8894 21.6256 45.2135 22.207 44.5714 22.72C44.2315 22.9922 43.9567 23.3386 43.7679 23.7335C43.579 24.1283 43.4809 24.5613 43.4809 25C43.4809 25.4387 43.579 25.8717 43.7679 26.2665C43.9567 26.6614 44.2315 27.0078 44.5714 27.28C45.2361 27.85 45.9232 28.42 46.5766 28.9558C47.2945 29.5375 47.7793 30.3633 47.9409 31.2796C48.1025 32.1958 47.9299 33.1403 47.4552 33.9375C46.126 36.3201 44.7742 38.6799 43.4112 41.0397C42.9631 41.8676 42.2311 42.5009 41.3532 42.8201C40.4754 43.1394 39.5125 43.1224 38.6461 42.7725C37.8351 42.4875 37.024 42.1455 36.2129 41.8491C35.8016 41.6794 35.3572 41.6078 34.9142 41.6398C34.4712 41.6718 34.0413 41.8065 33.658 42.0336C33.2747 42.2606 32.9481 42.5738 32.7035 42.9491C32.459 43.3243 32.303 43.7514 32.2477 44.1974C32.09 45.1094 31.9661 46.0328 31.7746 46.9334C31.605 47.788 31.1516 48.5583 30.4897 49.1161C29.8279 49.6739 28.9973 49.9858 28.1361 50C25.3574 50 22.575 50 19.7888 50C18.8647 49.9793 17.979 49.6221 17.2941 48.9939C16.6092 48.3657 16.1711 47.5087 16.0602 46.58C15.925 45.782 15.8011 44.9726 15.6659 44.1746C15.605 43.7424 15.4495 43.3293 15.2105 42.9657C14.9716 42.6021 14.6554 42.2971 14.285 42.0731C13.9147 41.8491 13.4995 41.7117 13.0699 41.671C12.6403 41.6302 12.2071 41.6872 11.8021 41.8377C10.991 42.1227 10.2025 42.4533 9.40267 42.7497C8.52267 43.1211 7.53739 43.1471 6.63949 42.8224C5.7416 42.4977 4.99566 41.8458 4.54753 40.9941C3.21828 38.7141 1.89279 36.3923 0.571051 34.0287C0.0757054 33.2198 -0.106306 32.254 0.0600856 31.3173C0.226477 30.3807 0.729497 29.5395 1.47224 28.9558L3.44358 27.3028C3.78356 27.0306 4.05827 26.6842 4.24713 26.2893C4.43599 25.8945 4.53409 25.4615 4.53409 25.0228C4.53409 24.5841 4.43599 24.1511 4.24713 23.7563C4.05827 23.3614 3.78356 23.015 3.44358 22.7428C2.77895 22.1728 2.0918 21.6028 1.43844 21.0556C0.718681 20.4754 0.23166 19.6504 0.0679645 18.7341C-0.0957316 17.8177 0.0750425 16.8724 0.548521 16.0739C1.87777 13.7027 3.22955 11.3315 4.59259 8.98313C5.04067 8.1552 5.77269 7.52187 6.65053 7.20265C7.52836 6.88343 8.49129 6.90039 9.35761 7.25034C10.1574 7.53534 10.9572 7.85454 11.757 8.15093C12.1633 8.3225 12.603 8.39764 13.0424 8.37061C13.4819 8.34359 13.9094 8.21511 14.2921 7.99501C14.6749 7.77492 15.0028 7.46907 15.2507 7.10089C15.4986 6.73271 15.6599 6.31198 15.7222 5.87095C15.8574 5.09576 15.9813 4.30917 16.1165 3.52257C16.2028 2.69191 16.5503 1.91123 17.108 1.29553C17.6657 0.679827 18.4041 0.261654 19.2143 0.102599C19.2746 0.0854889 19.3316 0.0585323 19.3833 0.0227982L28.6317 0ZM3.92797 18.0119L5.89931 19.6306C6.69481 20.2712 7.33727 21.0852 7.77886 22.0119C8.22044 22.9385 8.44977 23.9541 8.44977 24.9829C8.44977 26.0117 8.22044 27.0273 7.77886 27.9539C7.33727 28.8806 6.69481 29.6946 5.89931 30.3352L3.97303 31.9425C3.97303 31.9425 3.97303 32.0337 3.97303 32.0679C5.25722 34.3479 6.53765 36.6013 7.81433 38.8281C7.93824 39.0447 8.06216 39.0561 8.27619 38.9763C9.02717 38.6799 9.77816 38.3949 10.5292 38.1213C11.4529 37.7798 12.4391 37.6463 13.419 37.7303C14.399 37.8143 15.349 38.1137 16.2028 38.6076C17.0566 39.1015 17.7936 39.778 18.3624 40.5899C18.9311 41.4017 19.318 42.3294 19.4959 43.3082C19.6649 44.2316 19.8114 45.155 19.9691 46.0784H28.091C28.2149 45.2918 28.3501 44.5166 28.4627 43.7984C28.5664 42.8415 28.8685 41.9175 29.3493 41.0869C29.8301 40.2562 30.4788 39.5376 31.2528 38.9781C32.0269 38.4185 32.909 38.0306 33.8414 37.8398C34.7737 37.6489 35.7354 37.6594 36.6635 37.8705C37.6861 38.1832 38.6871 38.5641 39.66 39.0105C39.9529 39.1245 40.0768 39.0789 40.2232 38.8053C40.6175 38.0757 41.0455 37.3689 41.4511 36.6507L44.0871 32.0907L42.172 30.4834C41.3621 29.8437 40.707 29.0256 40.2563 28.0912C39.8057 27.1569 39.5715 26.1309 39.5715 25.0912C39.5715 24.0515 39.8057 23.0255 40.2563 22.0912C40.707 21.1568 41.3621 20.3387 42.172 19.699L44.0758 18.1031C42.7578 15.8231 41.4511 13.5431 40.1556 11.2631C40.0204 11.0237 39.8853 11.0693 39.6825 11.1491C38.8602 11.4683 38.0378 11.7989 37.2042 12.0725C36.2854 12.3666 35.3151 12.4584 34.3583 12.3418C33.4016 12.2253 32.4805 11.903 31.6569 11.3967C30.8333 10.8903 30.1263 10.2116 29.5831 9.40603C29.04 8.60046 28.6733 7.68667 28.5078 6.72595L28.0347 3.93297H19.9465C19.8226 4.69676 19.6762 5.46055 19.5635 6.21295C19.4424 7.25956 19.084 8.2637 18.5163 9.14703C17.9485 10.0304 17.1867 10.769 16.2904 11.3053C15.3941 11.8416 14.3874 12.1611 13.349 12.2388C12.3105 12.3165 11.2684 12.1503 10.3039 11.7533C9.62796 11.5025 8.95207 11.2403 8.26492 11.0009C8.19236 10.9855 8.11712 10.9889 8.04622 11.0108C7.97531 11.0327 7.91103 11.0725 7.85939 11.1263C6.5414 13.4177 5.24595 15.6977 3.92797 18.0119Z" fill="#410EAD"/>
<path d="M23.6973 34.6432C21.8162 34.5791 19.9961 33.952 18.4671 32.8413C16.938 31.7305 15.7687 30.186 15.1069 28.4029C14.4451 26.6197 14.3205 24.6781 14.7488 22.8233C15.1772 20.9685 16.1394 19.2839 17.5136 17.9824C18.8879 16.6809 20.6126 15.8209 22.4697 15.5111C24.3268 15.2013 26.233 15.4556 27.9473 16.242C29.6617 17.0283 31.1072 18.3113 32.1011 19.9288C33.095 21.5463 33.5928 23.4257 33.5315 25.3295C33.4346 27.8797 32.3474 30.2882 30.5062 32.032C28.6649 33.7758 26.2182 34.7141 23.6973 34.6432ZM24.0015 19.2647C22.8875 19.2647 21.7985 19.599 20.8723 20.2253C19.946 20.8517 19.2241 21.7419 18.7978 22.7834C18.3715 23.8249 18.26 24.971 18.4773 26.0767C18.6946 27.1824 19.2311 28.198 20.0188 28.9952C20.8065 29.7923 21.8101 30.3352 22.9027 30.5551C23.9952 30.775 25.1277 30.6622 26.1569 30.2307C27.1861 29.7993 28.0658 29.0688 28.6847 28.1314C29.3036 27.1941 29.6339 26.092 29.6339 24.9647C29.6135 23.4594 29.0135 22.0215 27.9616 20.957C26.9097 19.8925 25.4889 19.2854 24.0015 19.2647Z" fill="#410EAD"/>
<path d="M29.6317 1C29.6862 1.038 29.7474 1.06509 29.812 1.0798C30.6207 1.24221 31.3571 1.66141 31.9142 2.27646C32.4713 2.89151 32.8201 3.67036 32.9098 4.49977C33.0337 5.29776 33.1689 6.09576 33.304 6.90515C33.3699 7.33477 33.5299 7.74407 33.7721 8.10313C34.0144 8.46218 34.3328 8.76192 34.7043 8.98045C35.0757 9.19897 35.4906 9.33076 35.9188 9.36617C36.347 9.40158 36.7776 9.33973 37.1791 9.18513C37.979 8.91153 38.7675 8.58094 39.5673 8.28454C40.4476 7.91572 41.4319 7.89115 42.3291 8.21557C43.2263 8.54 43.9724 9.19027 44.4224 10.0401C45.7442 12.3201 47.0584 14.6305 48.3651 16.9713C48.8743 17.7744 49.0709 18.7401 48.9169 19.6814C48.7629 20.6228 48.2693 21.4729 47.5315 22.067C46.8894 22.6256 46.2135 23.207 45.5714 23.72C45.2315 23.9922 44.9567 24.3386 44.7679 24.7335C44.579 25.1283 44.4809 25.5613 44.4809 26C44.4809 26.4387 44.579 26.8717 44.7679 27.2665C44.9567 27.6614 45.2315 28.0078 45.5714 28.28C46.2361 28.85 46.9232 29.42 47.5766 29.9558C48.2945 30.5375 48.7793 31.3633 48.9409 32.2796C49.1025 33.1958 48.9299 34.1403 48.4552 34.9375C47.126 37.3201 45.7742 39.6799 44.4112 42.0397C43.9631 42.8676 43.2311 43.5009 42.3532 43.8201C41.4754 44.1394 40.5125 44.1224 39.6461 43.7725C38.8351 43.4875 38.024 43.1455 37.2129 42.8491C36.8016 42.6794 36.3572 42.6078 35.9142 42.6398C35.4712 42.6718 35.0413 42.8065 34.658 43.0336C34.2747 43.2606 33.9481 43.5738 33.7035 43.9491C33.459 44.3243 33.303 44.7514 33.2477 45.1974C33.09 46.1094 32.9661 47.0328 32.7746 47.9334C32.605 48.788 32.1516 49.5583 31.4897 50.1161C30.8279 50.6739 29.9973 50.9858 29.1361 51C26.3574 51 23.575 51 20.7888 51C19.8647 50.9793 18.979 50.6221 18.2941 49.9939C17.6092 49.3657 17.1711 48.5087 17.0602 47.58C16.925 46.782 16.8011 45.9726 16.6659 45.1746C16.605 44.7424 16.4495 44.3293 16.2105 43.9657C15.9716 43.6021 15.6554 43.2971 15.285 43.0731C14.9147 42.8491 14.4995 42.7117 14.0699 42.671C13.6403 42.6302 13.2071 42.6872 12.8021 42.8377C11.991 43.1227 11.2025 43.4533 10.4027 43.7497C9.52267 44.1211 8.53739 44.1471 7.63949 43.8224C6.7416 43.4977 5.99566 42.8458 5.54753 41.9941C4.21828 39.7141 2.89279 37.3923 1.57105 35.0287C1.07571 34.2198 0.893694 33.254 1.06009 32.3173C1.22648 31.3807 1.7295 30.5395 2.47224 29.9558L4.44358 28.3028C4.78356 28.0306 5.05827 27.6842 5.24713 27.2893C5.43599 26.8945 5.53409 26.4615 5.53409 26.0228C5.53409 25.5841 5.43599 25.1511 5.24713 24.7563C5.05827 24.3614 4.78356 24.015 4.44358 23.7428C3.77895 23.1728 3.0918 22.6028 2.43844 22.0556C1.71868 21.4754 1.23166 20.6504 1.06796 19.7341C0.904268 18.8177 1.07504 17.8724 1.54852 17.0739C2.87777 14.7027 4.22955 12.3315 5.59259 9.98313C6.04067 9.1552 6.77269 8.52187 7.65053 8.20265C8.52836 7.88343 9.49129 7.90039 10.3576 8.25034C11.1574 8.53534 11.9572 8.85454 12.757 9.15093C13.1633 9.3225 13.603 9.39764 14.0424 9.37061C14.4819 9.34359 14.9094 9.21511 15.2921 8.99501C15.6749 8.77492 16.0028 8.46907 16.2507 8.10089C16.4986 7.73271 16.6599 7.31198 16.7222 6.87095C16.8574 6.09576 16.9813 5.30917 17.1165 4.52257C17.2028 3.69191 17.5503 2.91123 18.108 2.29553C18.6657 1.67983 19.4041 1.26165 20.2143 1.1026C20.2746 1.08549 20.3316 1.05853 20.3833 1.0228L29.6317 1ZM4.92797 19.0119L6.89931 20.6306C7.69481 21.2712 8.33727 22.0852 8.77886 23.0119C9.22044 23.9385 9.44977 24.9541 9.44977 25.9829C9.44977 27.0117 9.22044 28.0273 8.77886 28.9539C8.33727 29.8806 7.69481 30.6946 6.89931 31.3352L4.97303 32.9425C4.97303 32.9425 4.97303 33.0337 4.97303 33.0679C6.25722 35.3479 7.53765 37.6013 8.81433 39.8281C8.93824 40.0447 9.06216 40.0561 9.27619 39.9763C10.0272 39.6799 10.7782 39.3949 11.5292 39.1213C12.4529 38.7798 13.4391 38.6463 14.419 38.7303C15.399 38.8143 16.349 39.1137 17.2028 39.6076C18.0566 40.1015 18.7936 40.778 19.3624 41.5899C19.9311 42.4017 20.318 43.3294 20.4959 44.3082C20.6649 45.2316 20.8114 46.155 20.9691 47.0784H29.091C29.2149 46.2918 29.3501 45.5166 29.4627 44.7984C29.5664 43.8415 29.8685 42.9175 30.3493 42.0869C30.8301 41.2562 31.4788 40.5376 32.2528 39.9781C33.0269 39.4185 33.909 39.0306 34.8414 38.8398C35.7737 38.6489 36.7354 38.6594 37.6635 38.8705C38.6861 39.1832 39.6871 39.5641 40.66 40.0105C40.9529 40.1245 41.0768 40.0789 41.2232 39.8053C41.6175 39.0757 42.0455 38.3689 42.4511 37.6507L45.0871 33.0907L43.172 31.4834C42.3621 30.8437 41.707 30.0256 41.2563 29.0912C40.8057 28.1569 40.5715 27.1309 40.5715 26.0912C40.5715 25.0515 40.8057 24.0255 41.2563 23.0912C41.707 22.1568 42.3621 21.3387 43.172 20.699L45.0758 19.1031C43.7578 16.8231 42.4511 14.5431 41.1556 12.2631C41.0204 12.0237 40.8853 12.0693 40.6825 12.1491C39.8602 12.4683 39.0378 12.7989 38.2042 13.0725C37.2854 13.3666 36.3151 13.4584 35.3583 13.3418C34.4016 13.2253 33.4805 12.903 32.6569 12.3967C31.8333 11.8903 31.1263 11.2116 30.5831 10.406C30.04 9.60046 29.6733 8.68667 29.5078 7.72595L29.0347 4.93297H20.9465C20.8226 5.69676 20.6762 6.46055 20.5635 7.21295C20.4424 8.25956 20.084 9.2637 19.5163 10.147C18.9485 11.0304 18.1867 11.769 17.2904 12.3053C16.3941 12.8416 15.3874 13.1611 14.349 13.2388C13.3105 13.3165 12.2684 13.1503 11.3039 12.7533C10.628 12.5025 9.95207 12.2403 9.26492 12.0009C9.19236 11.9855 9.11712 11.9889 9.04622 12.0108C8.97531 12.0327 8.91103 12.0725 8.85939 12.1263C7.5414 14.4177 6.24595 16.6977 4.92797 19.0119Z" fill="url(#paint0_linear_1501_306)"/>
<path d="M24.6973 35.6432C22.8162 35.5791 20.9961 34.952 19.4671 33.8413C17.938 32.7305 16.7687 31.186 16.1069 29.4029C15.4451 27.6197 15.3205 25.6781 15.7488 23.8233C16.1772 21.9685 17.1394 20.2839 18.5136 18.9824C19.8879 17.6809 21.6126 16.8209 23.4697 16.5111C25.3268 16.2013 27.233 16.4556 28.9473 17.242C30.6617 18.0283 32.1072 19.3113 33.1011 20.9288C34.095 22.5463 34.5928 24.4257 34.5315 26.3295C34.4346 28.8797 33.3474 31.2882 31.5062 33.032C29.6649 34.7758 27.2182 35.7141 24.6973 35.6432ZM25.0015 20.2647C23.8875 20.2647 22.7985 20.599 21.8723 21.2253C20.946 21.8517 20.2241 22.7419 19.7978 23.7834C19.3715 24.8249 19.26 25.971 19.4773 27.0767C19.6946 28.1824 20.2311 29.198 21.0188 29.9952C21.8065 30.7923 22.8101 31.3352 23.9027 31.5551C24.9952 31.775 26.1277 31.6622 27.1569 31.2307C28.1861 30.7993 29.0658 30.0688 29.6847 29.1314C30.3036 28.1941 30.6339 27.092 30.6339 25.9647C30.6135 24.4594 30.0135 23.0215 28.9616 21.957C27.9097 20.8925 26.4889 20.2854 25.0015 20.2647Z" fill="url(#paint1_linear_1501_306)"/>
<defs>
<linearGradient id="paint0_linear_1501_306" x1="5" y1="8" x2="41.5" y2="43" gradientUnits="userSpaceOnUse">
<stop stop-color="white" stop-opacity="0.66"/>
<stop offset="1" stop-color="#C9C9C9" stop-opacity="0"/>
</linearGradient>
<linearGradient id="paint1_linear_1501_306" x1="17.0855" y1="19.0798" x2="31.1595" y2="32.9724" gradientUnits="userSpaceOnUse">
<stop stop-color="white" stop-opacity="0.66"/>
<stop offset="1" stop-color="#C9C9C9" stop-opacity="0"/>
</linearGradient>
</defs>
</svg>
