<svg width="50" height="55" viewBox="0 0 50 55" fill="none" xmlns="http://www.w3.org/2000/svg">
<path fill-rule="evenodd" clip-rule="evenodd" d="M18.0919 0.0966385C15.609 0.507681 13.3473 2.17496 12.2255 4.42118C11.5909 5.69182 11.3718 6.61807 11.3684 8.04446C11.36 11.6188 13.903 14.9035 17.3229 15.7356C17.7414 15.8375 18.1449 15.9368 18.2196 15.9564C18.3213 15.983 18.3554 16.4374 18.3554 17.7655V19.5391L12.1795 19.5693L6.00362 19.5997L5.56312 19.888C5.32087 20.0466 5.00655 20.361 4.86472 20.5867C4.61985 20.9764 4.60507 21.1041 4.57149 23.12L4.53616 25.2429H3.07272C1.44049 25.2429 1.03227 25.362 0.493307 25.9955C0.00922504 26.5645 -0.0246847 26.9187 0.00976835 31.0417L0.0420478 34.8988L0.369515 35.3648C0.560909 35.637 0.898049 35.9312 1.18052 36.0725C1.65602 36.3103 1.73036 36.3144 5.63518 36.312C10.0757 36.3093 10.2096 36.2894 10.7767 35.5468C11.2784 34.8896 11.3075 34.5924 11.2708 30.4921L11.2366 26.6584L10.906 26.1934C10.7242 25.9377 10.3819 25.62 10.1452 25.4874C9.7577 25.2704 9.56653 25.2462 8.22058 25.2446L6.72616 25.2429V23.4693V21.6957H12.5408H18.3554V23.5111V25.3264L17.9826 25.3956C16.6732 25.6386 15.0325 26.9668 14.3918 28.3026C13.3221 30.5327 13.6826 32.8133 15.3874 34.6004C16.1192 35.3677 17.1968 36.0159 17.9835 36.1618L18.3572 36.2312L18.3291 42.3728L18.3011 48.5145L17.151 48.5448L16.0009 48.5751L15.8634 48.1149C15.0933 45.5352 12.4983 43.865 9.85302 44.2463C7.43826 44.5944 5.56215 46.4288 5.18827 48.8073C4.63767 52.3102 7.78671 55.4514 11.3412 54.9449C13.3782 54.6547 15.0435 53.311 15.7473 51.3899L15.9935 50.718H19.4568C22.7768 50.718 22.9202 50.7264 22.9202 50.9206C22.9202 51.032 23.1163 51.5106 23.3559 51.9841C24.9735 55.1804 29.1876 56.0034 31.8456 53.6423C32.5324 53.0322 33.1792 52.073 33.426 51.2984L33.6078 50.7282L39.5487 50.6962L45.4897 50.6643L46.0159 50.3418C46.3615 50.1301 46.6291 49.8566 46.7952 49.5457L47.0482 49.0718V41.6973V34.3226L48.4098 32.9806C50.5221 30.8986 50.524 30.6951 48.4514 28.6239L47.0482 27.2217V24.8266V22.4316L46.7305 22.1174C46.1736 21.5666 45.2435 21.7559 44.9913 22.4712C44.9223 22.6671 44.8745 23.7312 44.8745 25.0726V27.3425L43.617 28.5768C42.2435 29.9252 42.0487 30.1986 42.0487 30.7786C42.0487 31.3586 42.2435 31.6321 43.617 32.9805L44.8745 34.2148V41.3925V48.5702L39.2652 48.5423L33.6559 48.5145L33.4129 47.851C32.8213 46.2348 31.7081 45.1231 30.039 44.4816C29.1338 44.1336 27.4069 44.1269 26.4612 44.4677C24.8018 45.0657 23.4662 46.4503 22.9722 48.0845L22.8423 48.5145L21.6857 48.545L20.5291 48.5756V42.4082V36.241L20.991 36.1042C24.5931 35.0381 26.1739 30.8426 24.1334 27.7644C23.3849 26.6353 22.187 25.7299 21.0654 25.4457L20.5291 25.3097V23.5027V21.6957H26.3438H32.1584V23.4693V25.2429L30.664 25.2446C29.3167 25.2462 29.1271 25.2702 28.7381 25.4882C28.2422 25.7659 27.8605 26.2745 27.6969 26.8752C27.6248 27.1398 27.595 28.6641 27.6156 31.0329L27.648 34.7731L27.974 35.2935C28.188 35.6351 28.4646 35.8999 28.7791 36.0641C29.2555 36.313 29.2797 36.3144 33.2666 36.3144C36.9931 36.3144 37.3036 36.3 37.6785 36.1098C38.1883 35.8513 38.5145 35.5064 38.7286 34.9995C38.8698 34.6654 38.8968 33.9832 38.8968 30.7511C38.8968 26.9701 38.8924 26.8922 38.6523 26.4274C38.5178 26.1671 38.22 25.8061 37.9905 25.6253C37.5771 25.2997 37.5583 25.2961 35.9799 25.2429L34.3864 25.1891L34.3321 23.0931C34.2742 20.8592 34.2235 20.6342 33.6616 20.1154C33.0424 19.5435 33.0715 19.5459 26.562 19.5459H20.5239L20.5537 17.7548L20.5835 15.9637L21.2871 15.8218C22.1517 15.6475 23.5157 15.0072 24.3915 14.3646C25.8491 13.2949 27.001 11.4983 27.3767 9.70851L27.5004 9.11936H36.1814H44.8623L44.8956 11.3857L44.9288 13.652L45.2975 13.9776C45.6176 14.2603 45.7249 14.2953 46.1124 14.2438C46.4125 14.2041 46.6407 14.0906 46.8088 13.8973C47.057 13.6118 47.0584 13.5923 47.0262 10.9529L46.9939 8.29588L46.6952 7.90891C46.531 7.69608 46.2375 7.40984 46.0431 7.27268L45.6896 7.0233L36.6096 6.9946L27.5294 6.96601L27.347 6.18843C27.2466 5.76083 26.9429 4.96723 26.6721 4.42505C25.8362 2.75154 24.142 1.20196 22.4189 0.535091C21.155 0.0459031 19.4449 -0.127371 18.0919 0.0966385ZM20.9003 2.34512C21.9278 2.60503 22.6147 2.96469 23.3916 3.64951C25.5476 5.55004 26.0064 8.75454 24.461 11.1192C23.3192 12.8665 21.5386 13.8489 19.5138 13.8489C17.7985 13.8489 16.4721 13.3012 15.2479 12.0873C12.0025 8.86912 13.6112 3.37939 18.1163 2.299C19.0056 2.08574 19.9356 2.10111 20.9003 2.34512ZM45.3417 17.1277C45.2135 17.2166 45.052 17.4587 44.9829 17.6658C44.8771 17.9827 44.8887 18.1061 45.056 18.4448C45.5486 19.4416 47.0482 19.1205 47.0482 18.0181C47.0482 17.1842 46.0283 16.6521 45.3417 17.1277ZM9.11722 30.7786V34.1646H5.63931H2.1614V30.7786V27.3927H5.63931H9.11722V30.7786ZM21.0529 27.7684C23.5168 29.096 23.4288 32.62 20.9012 33.8504C20.1452 34.2183 18.6338 34.2245 17.943 33.8625C17.2256 33.4865 16.6532 32.9165 16.3208 32.247C16.0662 31.7342 16.0189 31.5033 16.0203 30.7786C16.0231 29.3418 16.6634 28.3318 17.975 27.6959C18.5709 27.4071 18.7067 27.3831 19.551 27.4184C20.32 27.4504 20.5716 27.509 21.0529 27.7684ZM36.7231 30.7786V34.1646H33.2452H29.7673V30.7786V27.3927H33.2452H36.7231V30.7786ZM46.8064 31.5554L46.021 32.3374L45.2303 31.5606L44.4395 30.7839L45.225 30.0019L46.0104 29.2198L46.8011 29.9966L47.5918 30.7734L46.8064 31.5554ZM12.0394 46.681C12.7073 47.0158 13.2707 47.5768 13.5972 48.2321C13.9564 48.9532 13.9491 50.24 13.5817 50.9785C13.2465 51.6521 12.6701 52.2222 11.989 52.5537C11.2113 52.9322 9.93866 52.9179 9.17157 52.5219C7.15981 51.4836 6.69138 48.9218 8.2259 47.3502C9.23243 46.3193 10.7769 46.0482 12.0394 46.681ZM29.5063 46.5772C30.14 46.839 30.7754 47.4139 31.129 48.0454C31.4203 48.5654 31.4518 48.7169 31.4512 49.5894C31.4503 50.6513 31.2872 51.0977 30.6287 51.8394C29.7595 52.8185 28.0574 53.1185 26.8096 52.5125C25.6434 51.9461 24.9852 50.8988 24.9852 49.6096C24.9852 48.8285 25.1297 48.3232 25.5107 47.7721C26.3859 46.5057 28.096 45.9944 29.5063 46.5772Z" fill="#B548AA"/>
</svg>
