<svg width="60" height="64" viewBox="0 0 60 64" fill="none" xmlns="http://www.w3.org/2000/svg">
<path fill-rule="evenodd" clip-rule="evenodd" d="M23.1882 0.0356065C23.0505 0.0673734 22.6306 0.155795 22.2551 0.232086C20.1109 0.667067 17.7158 2.37022 16.4679 4.3469C16.0035 5.08267 15.4693 6.31194 15.2195 7.2198C14.9763 8.10327 15.0152 10.7622 15.2842 11.6464C15.4693 12.2552 15.4795 12.4102 15.3431 12.536C15.2522 12.6197 13.8317 13.4923 12.1862 14.475C9.73602 15.9383 9.15841 16.236 8.99457 16.119C8.36739 15.6715 7.25446 15.2059 6.50412 15.0774C3.48786 14.5606 0.583754 16.683 0.0702181 19.7792C-0.529428 23.3957 2.80724 26.7298 6.42639 26.1306C9.33889 25.6484 11.5089 22.9169 11.1854 20.1403L11.1097 19.4911L14.2474 17.6077C15.9732 16.5719 17.4258 15.7243 17.4752 15.7243C17.5248 15.7243 17.8308 15.9936 18.1552 16.3226L18.745 16.9211V21.7161V26.5113L18.3382 26.4254C14.9859 25.7173 11.9532 27.6584 11.3544 30.8956C11.2674 31.3656 11.2377 33.9917 11.268 38.5201C11.3181 46.0077 11.308 45.892 12.0489 47.5656C12.5597 48.7199 13.2372 49.6076 14.9945 51.4254C17.2095 53.7169 17.7588 54.531 18.3735 56.4335C18.6194 57.1949 18.664 57.6511 18.7148 59.9353C18.782 62.9562 18.8765 63.3065 19.743 63.7482C20.229 63.996 20.4538 64 33.7643 64C47.0748 64 47.2996 63.996 47.7856 63.7482C48.1036 63.5862 48.3695 63.3205 48.5317 63.0027C48.7613 62.5529 48.7836 62.2678 48.7841 59.784C48.7849 55.8327 49.0016 54.6838 50.2897 51.806C51.6036 48.8701 52.0268 47.4813 52.3525 45.0368C52.574 43.3735 52.6232 28.2113 52.4107 27.0917C51.9696 24.7678 50.1063 22.9708 47.7295 22.5772C46.9553 22.449 45.9768 22.5286 45.0907 22.7917C44.8786 22.8547 44.7861 22.7428 44.4908 22.0656C43.1099 18.8984 39.1696 17.7902 36.2231 19.7405L35.6417 20.1252L35.0603 19.7405C33.7975 18.9045 32.0997 18.5862 30.5414 18.8933L30.0095 18.9981V17.9516V16.9052L30.83 16.0959C31.7389 15.1993 32.5917 13.9814 32.96 13.0535C33.0926 12.7196 33.2574 12.4267 33.3262 12.4026C33.3951 12.3784 36.9096 12.7931 41.1363 13.3242C47.0913 14.0723 48.8431 14.3315 48.9185 14.4754C48.9721 14.5776 49.1865 15.0425 49.3952 15.5085C50.1087 17.1019 51.7114 18.3135 53.5148 18.6225C55.8807 19.0278 58.424 17.7076 59.4347 15.5495C61.0863 12.0227 58.9627 8.11065 55.0945 7.55386C53.055 7.2602 50.8936 8.24297 49.7709 9.97427C49.3893 10.5626 49.3472 10.5898 48.92 10.5252C48.673 10.4878 45.1852 10.0482 41.1697 9.54829C35.7521 8.87381 33.8396 8.59341 33.7559 8.46109C33.6938 8.36304 33.6421 8.12228 33.641 7.92618C33.64 7.72995 33.4751 7.07998 33.2744 6.48178C32.2356 3.38314 29.8813 1.15758 26.6927 0.259601C26.0621 0.0820062 23.653 -0.0719507 23.1882 0.0356065ZM25.3922 3.84563C27.6733 4.27786 29.4641 6.09333 29.897 8.41256C30.0376 9.16621 29.9846 10.3041 29.7833 10.8477C29.6814 11.1229 29.6443 11.0886 29.2568 10.3621C28.4973 8.93834 26.9535 7.86052 25.2576 7.56986C23.0047 7.18378 20.5612 8.36841 19.4977 10.3621C19.1102 11.0886 19.073 11.1229 18.9712 10.8477C18.7699 10.3041 18.7168 9.16621 18.8575 8.41256C19.4364 5.31091 22.3563 3.27033 25.3922 3.84563ZM25.3537 11.5599C25.531 11.6921 25.792 11.9556 25.934 12.1454C26.1883 12.4857 26.1929 12.6356 26.2546 22.4558C26.3126 31.6843 26.3336 32.4506 26.5389 32.8259C26.7936 33.2918 27.5695 33.7339 28.1321 33.7339C28.7531 33.7339 29.4742 33.2915 29.7575 32.7366C29.995 32.2714 30.0095 32.0055 30.0095 28.1059C30.0095 24.2063 30.024 23.9404 30.2614 23.4752C30.5448 22.9203 31.2658 22.4779 31.8869 22.4779C32.5079 22.4779 33.229 22.9203 33.5124 23.4752C33.7498 23.9404 33.7643 24.2063 33.7643 28.1059C33.7643 32.0055 33.7788 32.2714 34.0163 32.7366C34.2996 33.2915 35.0207 33.7339 35.6417 33.7339C36.2628 33.7339 36.9838 33.2915 37.2672 32.7366C37.5046 32.2714 37.5191 32.0055 37.5191 28.1059C37.5191 24.2063 37.5336 23.9404 37.7711 23.4752C38.0544 22.9203 38.7755 22.4779 39.3965 22.4779C40.0176 22.4779 40.7386 22.9203 41.022 23.4752C41.2642 23.9496 41.274 24.2022 41.274 29.9819C41.274 35.7616 41.2837 36.0142 41.5259 36.4886C41.8093 37.0435 42.5303 37.4859 43.1514 37.4859C43.7724 37.4859 44.4935 37.0435 44.7768 36.4886C45.0143 36.0234 45.0288 35.7575 45.0288 31.8579C45.0288 27.9583 45.0433 27.6924 45.2807 27.2272C45.5641 26.6723 46.2852 26.2299 46.9062 26.2299C47.5351 26.2299 48.2482 26.672 48.5396 27.2426C48.7964 27.7458 48.7989 27.8483 48.7522 36.1519C48.7113 43.4458 48.6771 44.6816 48.4935 45.5347C48.1567 47.1 47.7897 48.2011 47.0912 49.7424C45.5099 53.2314 45.1742 54.5946 45.0663 57.9655L44.9932 60.248H33.7465H22.4998V59.1939C22.4998 56.1938 21.5763 53.4485 19.7619 51.0556C19.449 50.6429 18.5609 49.658 17.7883 48.867C16.2286 47.2702 16.025 47.0263 15.647 46.3031C15.0522 45.165 15.0604 45.2697 15.0182 38.2119C14.9789 31.6354 14.9834 31.486 15.2361 30.9909C15.5256 30.424 16.2404 29.9819 16.8676 29.9819C17.4886 29.9819 18.2097 30.4243 18.493 30.9792C18.7305 31.4444 18.745 31.7103 18.745 35.6099C18.745 39.5095 18.7595 39.7754 18.9969 40.2406C19.2803 40.7955 20.0014 41.2379 20.6224 41.2379C21.2434 41.2379 21.9645 40.7955 22.2479 40.2406C22.4957 39.7551 22.4999 39.5251 22.5051 26.2036C22.511 10.9816 22.4365 12.14 23.4502 11.5117C24.0295 11.1525 24.8352 11.1729 25.3537 11.5599ZM55.2952 11.4737C55.8506 11.7568 56.2933 12.4773 56.2933 13.0979C56.2933 14.0496 55.3682 14.9739 54.4159 14.9739C53.4635 14.9739 52.5384 14.0496 52.5384 13.0979C52.5384 12.4965 52.9814 11.7586 53.5098 11.4798C54.1137 11.1613 54.6786 11.1594 55.2952 11.4737ZM6.48246 18.9777C7.0378 19.2608 7.4805 19.9813 7.4805 20.6019C7.4805 21.5536 6.55543 22.4779 5.60308 22.4779C4.65073 22.4779 3.72567 21.5536 3.72567 20.6019C3.72567 20.0005 4.16861 19.2626 4.69704 18.9838C5.30095 18.6653 5.8658 18.6634 6.48246 18.9777Z" fill="#DB3CAE"/>
</svg>
