<svg width="18" height="18" viewBox="0 0 18 18" fill="none" xmlns="http://www.w3.org/2000/svg">
<path d="M1.60577 4.73094L9 0.46188L16.3942 4.73094V13.2691L9 17.5381L1.60577 13.2691V4.73094Z" stroke="#410EAD" stroke-width="0.8"/>
<path fill-rule="evenodd" clip-rule="evenodd" d="M6.77071 5.00591C6.48937 5.04881 6.29997 5.10827 6.07192 5.22526C5.5433 5.49642 5.16133 6.00069 5.03201 6.59811C4.98933 6.79525 4.98933 7.20226 5.03201 7.39939C5.20316 8.19007 5.80879 8.79484 6.59498 8.96013C6.66068 8.97396 6.73649 8.98526 6.76344 8.98526C6.7904 8.98526 6.81246 8.99277 6.81246 9.00195C6.81246 9.01113 6.78802 9.01881 6.75818 9.01901C6.67685 9.01955 6.43541 9.07652 6.30329 9.12637C5.65271 9.37176 5.17985 9.92154 5.03201 10.6045C4.98933 10.8016 4.98933 11.2087 5.03201 11.4058C5.2063 12.2109 5.82442 12.8159 6.6371 12.9768C6.70425 12.9902 6.85705 13 6.99616 13C7.13528 13 7.28807 12.9902 7.35522 12.9768C8.16787 12.816 8.78998 12.2064 8.95839 11.4062C8.97222 11.3405 8.98352 11.2647 8.98352 11.2378C8.98352 11.2108 8.99104 11.1888 9.00023 11.1888C9.00941 11.1888 9.01709 11.2132 9.01729 11.243C9.01749 11.2729 9.03182 11.3611 9.04916 11.4392C9.2191 12.2047 9.82495 12.8007 10.6035 12.9683C10.7807 13.0064 11.1906 13.0111 11.3633 12.9768C12.1894 12.8133 12.8132 12.1898 12.9768 11.3641C13.0111 11.1914 13.0064 10.7816 12.9683 10.6045C12.8007 9.82632 12.2044 9.22073 11.4385 9.05086C11.3604 9.03354 11.2721 9.01921 11.2423 9.01901C11.2124 9.01881 11.188 9.01113 11.188 9.00195C11.188 8.99277 11.2101 8.98526 11.237 8.98526C11.264 8.98526 11.3398 8.97396 11.4055 8.96013C12.2067 8.79167 12.8157 8.17059 12.9768 7.35766C12.9901 7.29054 13 7.13781 13 6.99875C13 6.8597 12.9901 6.70697 12.9768 6.63985C12.8159 5.82752 12.2106 5.20966 11.4051 5.03545C11.2079 4.99278 10.8007 4.99278 10.6035 5.03545C9.824 5.20404 9.2191 5.79917 9.04916 6.56473C9.03182 6.64277 9.01749 6.73104 9.01729 6.76087C9.01709 6.7907 9.00941 6.81513 9.00023 6.81513C8.99104 6.81513 8.98352 6.79307 8.98352 6.76613C8.98352 6.73919 8.97222 6.66342 8.95839 6.59775C8.79531 5.82279 8.20278 5.22008 7.43038 5.0435C7.29186 5.01181 6.88419 4.98859 6.77071 5.00591ZM7.36357 5.30238C7.60258 5.35942 7.84563 5.46904 8.02325 5.59994C8.14023 5.68614 8.32733 5.87511 8.40804 5.98861C8.49848 6.11574 8.60947 6.34454 8.65513 6.49795C8.718 6.70921 8.73302 6.84573 8.73302 7.20645V7.53294H9.00023H9.26743L9.2675 7.20325C9.2676 6.72335 9.30908 6.51243 9.46367 6.20582C9.79596 5.5467 10.5446 5.16538 11.2687 5.2864C12.0018 5.40893 12.5533 5.93948 12.7103 6.67323C12.7387 6.80561 12.7387 7.21468 12.7103 7.33262C12.5751 7.8955 12.2572 8.30871 11.7725 8.55167C11.4917 8.69242 11.2671 8.73469 10.7997 8.73479L10.4699 8.73486V9.00195V9.26904H10.7943C11.1596 9.26904 11.3181 9.28627 11.513 9.34712C12.1487 9.54565 12.61 10.0756 12.7165 10.7297C12.87 11.672 12.2259 12.5627 11.2798 12.7167C10.9112 12.7766 10.5586 12.7201 10.211 12.5452C10.0378 12.458 9.90457 12.3569 9.74978 12.1949C9.6036 12.042 9.54548 11.9609 9.45932 11.7897C9.30937 11.4918 9.2676 11.2765 9.2675 10.8007L9.26743 10.471H9.00023H8.73302V10.7975C8.73302 11.1584 8.71797 11.2952 8.65509 11.5054C8.57491 11.7736 8.43109 12.0146 8.22858 12.2204C7.98308 12.4699 7.70859 12.6196 7.33017 12.7105C7.21218 12.7388 6.80294 12.7388 6.6705 12.7105C6.0464 12.577 5.55097 12.1432 5.35083 11.5551C5.07645 10.7487 5.44771 9.84506 6.21124 9.46088C6.50916 9.31098 6.72468 9.26921 7.20074 9.26911L7.53058 9.26904V9.00195V8.73486H7.20395C7.02429 8.73486 6.82326 8.72685 6.75721 8.71705C5.92638 8.59378 5.30994 7.91829 5.26425 7.08103C5.2222 6.31057 5.71953 5.59116 6.46175 5.34879C6.72922 5.26143 7.10994 5.24185 7.36357 5.30238ZM6.3218 5.9519C6.28452 5.98916 6.2833 6.00098 6.2725 6.43183C6.2664 6.67477 6.26139 7.02566 6.26137 7.21159C6.26134 7.5274 6.26354 7.55184 6.29474 7.58302C6.31613 7.6044 6.3504 7.61641 6.39008 7.61641C6.4466 7.61641 6.4648 7.60287 6.59749 7.46203C6.6775 7.37712 6.74647 7.3114 6.7508 7.31596C6.75511 7.32053 6.86171 7.48578 6.98768 7.68318C7.11365 7.88058 7.23515 8.05898 7.25768 8.07965C7.32637 8.14263 7.37142 8.12846 7.6293 7.96279C7.90098 7.78823 7.94793 7.74094 7.92077 7.66906C7.91105 7.64332 7.79958 7.46141 7.67305 7.26481C7.54651 7.06823 7.43965 6.89868 7.43557 6.88804C7.43096 6.87606 7.4991 6.84507 7.61503 6.80646C7.71783 6.77223 7.81602 6.73012 7.83326 6.7129C7.86927 6.67691 7.87489 6.58513 7.84371 6.54271C7.81691 6.50625 6.45946 5.91369 6.40274 5.91369C6.37925 5.91369 6.34282 5.93088 6.3218 5.9519ZM11.586 5.95654C11.1184 6.04112 10.7125 6.37235 10.5265 6.82119C10.4886 6.91248 10.4419 6.9659 10.0971 7.31174L9.71032 7.69982L9.80619 7.79568L9.90209 7.89151L10.2528 7.54129L10.6035 7.19104L10.7077 7.29523L10.8119 7.39941L10.4615 7.74995L10.1111 8.10048L10.207 8.19633L10.3029 8.29217L10.6912 7.90542C11.0443 7.55367 11.0889 7.51486 11.184 7.4768C11.4858 7.35606 11.7653 7.09811 11.9125 6.80453C12.0194 6.5912 12.0728 6.36848 12.073 6.13412C12.0731 6.02699 12.0682 6.0074 12.0321 5.97136C11.9949 5.93414 11.9785 5.93051 11.8526 5.93188C11.7764 5.9327 11.6564 5.9438 11.586 5.95654ZM11.7978 6.29286C11.7492 6.68203 11.4963 7.03468 11.1464 7.20128L11.0464 7.2489L10.9011 7.10427L10.7557 6.95964L10.7805 6.89991C10.8896 6.63693 11.1547 6.3797 11.4194 6.27986C11.5258 6.23971 11.6903 6.20078 11.7619 6.19879L11.8098 6.19747L11.7978 6.29286ZM7.0494 6.46892L7.36152 6.60486L7.23909 6.6521C7.10846 6.70251 7.06378 6.7555 7.08788 6.8314C7.09406 6.85088 7.20754 7.03503 7.34004 7.24061C7.47255 7.44618 7.58524 7.62555 7.59048 7.63919C7.60421 7.67498 7.39602 7.80678 7.37054 7.77843C7.3606 7.76736 7.24042 7.58375 7.10346 7.3704C6.79531 6.89035 6.78995 6.88687 6.61623 7.05478L6.52855 7.13951L6.5286 6.95645C6.52863 6.85578 6.53354 6.65569 6.53952 6.51181L6.55036 6.25024L6.64383 6.29162C6.69524 6.31438 6.87776 6.39417 7.0494 6.46892ZM8.87394 7.81569C8.79439 7.83472 8.65108 7.91856 8.60546 7.97276C8.58275 7.99973 8.54392 8.06016 8.51917 8.10707C8.47556 8.18967 8.47416 8.20089 8.47416 8.46777C8.47416 8.78152 8.48967 8.83784 8.61287 8.9715L8.67943 9.04368L8.5296 9.10904C8.3633 9.18159 8.24768 9.2741 8.1678 9.39853C8.09046 9.51899 8.065 9.64307 8.065 9.89932C8.065 10.1134 8.06657 10.1235 8.106 10.1629L8.14698 10.2039H9.00023H9.85347L9.89445 10.1629C9.93392 10.1235 9.93544 10.1136 9.93505 9.89997C9.93442 9.56185 9.89522 9.44411 9.72752 9.27672C9.64705 9.19643 9.5954 9.16244 9.47377 9.10979L9.32103 9.04368L9.38758 8.9715C9.51909 8.82882 9.52562 8.79898 9.53149 8.31362L9.5367 7.88403L9.49468 7.84203C9.45316 7.80053 9.44947 7.80005 9.18886 7.80174C9.04378 7.80269 8.90206 7.80896 8.87394 7.81569ZM9.26743 8.35817C9.26743 8.52382 9.25975 8.66947 9.24961 8.69621C9.22411 8.76349 9.17057 8.81567 9.07955 8.86199L9.00023 8.90236L8.9209 8.86199C8.76196 8.78112 8.73302 8.7204 8.73302 8.46777C8.73302 8.27522 8.74646 8.21646 8.80511 8.15265C8.86565 8.08672 8.93007 8.06848 9.1046 8.06778L9.26743 8.06713V8.35817ZM9.25341 9.30537C9.59505 9.45648 9.66825 9.54634 9.66825 9.81455V9.93678H9.00023H8.3322V9.81455C8.3322 9.54594 8.40372 9.45729 8.74157 9.30707C8.87004 9.24995 8.98533 9.20299 8.99774 9.20274C9.01015 9.20249 9.1252 9.24866 9.25341 9.30537ZM6.77408 9.83695C6.74353 9.86096 6.72551 9.89823 6.7115 9.96632C6.67343 10.1513 6.63191 10.1719 6.48114 10.0803C6.33297 9.99035 6.31007 9.9957 6.14824 10.1583C5.98657 10.3208 5.98139 10.343 6.07092 10.4903C6.16251 10.6411 6.14196 10.6826 5.95689 10.7206C5.81206 10.7504 5.79373 10.7824 5.79373 11.0051C5.79373 11.2279 5.81206 11.2599 5.95689 11.2897C6.14196 11.3277 6.16251 11.3692 6.07092 11.52C5.98092 11.6681 5.98628 11.6909 6.14896 11.8527C6.31148 12.0143 6.33375 12.0195 6.48114 11.93C6.63191 11.8384 6.67343 11.859 6.7115 12.044C6.7413 12.1887 6.77328 12.2071 6.99616 12.2071C7.21905 12.2071 7.25103 12.1887 7.28082 12.044C7.3189 11.859 7.36042 11.8384 7.51119 11.93C7.65936 12.02 7.68225 12.0146 7.84408 11.852C8.00531 11.69 8.0108 11.6671 7.92304 11.5226C7.89089 11.4697 7.86459 11.4157 7.86459 11.4026C7.86459 11.352 7.91068 11.3199 8.01925 11.2952C8.18262 11.2579 8.1986 11.2321 8.1986 11.0051C8.1986 10.7782 8.18262 10.7524 8.01925 10.7151C7.91068 10.6904 7.86459 10.6583 7.86459 10.6077C7.86459 10.5946 7.89089 10.5406 7.92304 10.4877C8.01127 10.3425 8.00559 10.3189 7.84336 10.1576C7.68085 9.99599 7.65857 9.99081 7.51119 10.0803C7.36042 10.1719 7.3189 10.1513 7.28082 9.96632C7.25103 9.82156 7.21905 9.80323 6.99616 9.80323C6.84165 9.80323 6.81105 9.80787 6.77408 9.83695ZM7.0464 10.1413C7.0876 10.3025 7.08377 10.2985 7.26962 10.3786C7.39729 10.4336 7.45048 10.4319 7.55192 10.3695C7.62634 10.3238 7.63813 10.3209 7.66061 10.3434C7.68307 10.3658 7.6801 10.3774 7.63324 10.4504C7.56949 10.5497 7.56755 10.6033 7.623 10.7318C7.70316 10.9176 7.69909 10.9138 7.86041 10.9549C7.91302 10.9684 7.93139 10.9814 7.93139 11.0051C7.93139 11.0289 7.91302 11.0419 7.86041 11.0554C7.69909 11.0965 7.70316 11.0927 7.623 11.2785C7.56755 11.407 7.56949 11.4606 7.63324 11.5599C7.6801 11.6329 7.68307 11.6445 7.66061 11.6669C7.63813 11.6894 7.62634 11.6865 7.55192 11.6408C7.45048 11.5784 7.39729 11.5767 7.26962 11.6317C7.08377 11.7118 7.0876 11.7078 7.0464 11.869C7.03297 11.9216 7.01996 11.94 6.99616 11.94C6.97236 11.94 6.95936 11.9216 6.94593 11.869C6.90473 11.7078 6.90855 11.7118 6.72271 11.6317C6.59415 11.5763 6.54056 11.5782 6.44122 11.6419C6.36655 11.6898 6.35697 11.6922 6.33292 11.6681C6.30885 11.6441 6.31117 11.6345 6.35909 11.5599C6.42283 11.4606 6.42477 11.407 6.36933 11.2785C6.28916 11.0927 6.29324 11.0965 6.13191 11.0554C6.0793 11.0419 6.06093 11.0289 6.06093 11.0051C6.06093 10.9814 6.0793 10.9684 6.13191 10.9549C6.29324 10.9138 6.28916 10.9176 6.36933 10.7318C6.42477 10.6033 6.42283 10.5497 6.35909 10.4504C6.31117 10.3758 6.30885 10.3662 6.33292 10.3422C6.35697 10.3181 6.36655 10.3205 6.44122 10.3683C6.54056 10.4321 6.59415 10.434 6.72271 10.3786C6.90855 10.2985 6.90473 10.3025 6.94593 10.1413C6.95936 10.0887 6.97236 10.0703 6.99616 10.0703C7.01996 10.0703 7.03297 10.0887 7.0464 10.1413ZM10.3363 10.0921C10.2471 10.1202 10.1135 10.2628 10.0868 10.3583C10.0618 10.4481 10.0695 10.5601 10.1057 10.6326C10.1296 10.6806 10.1285 10.6837 10.0579 10.7616C9.96957 10.8591 9.92714 10.9865 9.94035 11.1144C9.94912 11.1995 9.99848 11.3196 10.0476 11.3755C10.0697 11.4007 10.0676 11.4099 10.0275 11.4624C9.97572 11.5303 9.93545 11.6514 9.93545 11.7393C9.93545 11.9315 10.0772 12.1284 10.2533 12.1806C10.3853 12.2198 11.6233 12.2198 11.7552 12.1806C11.9314 12.1284 12.0731 11.9315 12.0731 11.7393C12.0731 11.6514 12.0329 11.5303 11.981 11.4624C11.9409 11.4099 11.9388 11.4007 11.961 11.3755C12.074 11.2469 12.1006 11.0163 12.02 10.8633C11.9958 10.8173 11.9536 10.7586 11.9263 10.7326C11.8781 10.6869 11.8774 10.6838 11.902 10.6345C11.939 10.5602 11.947 10.4489 11.9217 10.3583C11.8933 10.2563 11.7609 10.1198 11.662 10.0906C11.5713 10.0638 10.422 10.0651 10.3363 10.0921ZM10.8707 11.1398V11.9422L10.5954 11.9369L10.3201 11.9316L10.2656 11.8771C10.2186 11.8301 10.211 11.8109 10.211 11.7397C10.211 11.6684 10.2186 11.6492 10.2656 11.6023C10.3173 11.5505 10.3276 11.5474 10.4618 11.5418L10.6035 11.5359V11.4058V11.2757L10.4618 11.2698C10.3276 11.2642 10.3173 11.261 10.2656 11.2093C10.2186 11.1623 10.211 11.1432 10.211 11.0719C10.211 11.0006 10.2186 10.9815 10.2656 10.9345C10.3173 10.8828 10.3276 10.8796 10.4618 10.8741L10.6035 10.8682V10.7363V10.6045H10.5109C10.3994 10.6045 10.3363 10.5562 10.3363 10.471C10.3363 10.4384 10.3514 10.4042 10.3773 10.3784C10.4167 10.3389 10.4265 10.3374 10.6445 10.3374H10.8707V11.1398ZM11.6313 10.3784C11.6572 10.4042 11.6723 10.4384 11.6723 10.471C11.6723 10.5562 11.6091 10.6045 11.4977 10.6045H11.4051V10.7363V10.8682L11.5467 10.8741C11.681 10.8796 11.6912 10.8828 11.743 10.9345C11.7899 10.9815 11.7976 11.0006 11.7976 11.0719C11.7976 11.1432 11.7899 11.1623 11.743 11.2093C11.6912 11.261 11.681 11.2642 11.5467 11.2698L11.4051 11.2757V11.4058V11.5359L11.5467 11.5418C11.681 11.5474 11.6912 11.5505 11.743 11.6023C11.7899 11.6492 11.7976 11.6684 11.7976 11.7397C11.7976 11.8109 11.7899 11.8301 11.743 11.8771L11.6885 11.9316L11.4132 11.9369L11.1379 11.9422V11.1398V10.3374H11.3641C11.582 10.3374 11.5918 10.3389 11.6313 10.3784ZM6.86256 10.6263C6.83041 10.6365 6.76628 10.6827 6.72004 10.729C6.60201 10.8472 6.56941 10.9719 6.61566 11.1284C6.64276 11.2201 6.78111 11.3584 6.87285 11.3855C7.02943 11.4317 7.15427 11.3991 7.27229 11.2812C7.43549 11.118 7.44036 10.9105 7.28507 10.7379C7.17698 10.6177 7.02083 10.5765 6.86256 10.6263ZM7.08877 10.9126C7.17162 10.9954 7.11292 11.1387 6.99616 11.1387C6.92751 11.1387 6.86256 11.0738 6.86256 11.0051C6.86256 10.9365 6.92751 10.8716 6.99616 10.8716C7.0287 10.8716 7.06293 10.8867 7.08877 10.9126Z" fill="#410EAD"/>
</svg>
