<svg width="40" height="40" viewBox="0 0 40 40" fill="none" xmlns="http://www.w3.org/2000/svg">
<path d="M19.9356 0H20.1768H20.2974C20.6685 0 21.0488 -4.928e-07 21.4292 0.0555037C21.9487 0.0555037 22.4868 0.13876 23.0063 0.212766C23.9492 0.353189 24.8798 0.566601 25.7895 0.851064C27.7705 1.44598 29.6479 2.34145 31.3557 3.50601C33.0471 4.66285 34.5492 6.07325 35.8088 7.68733C37.6268 10.0152 38.8952 12.7218 39.5196 15.6059C39.6588 16.2072 39.7516 16.827 39.8443 17.4561C39.9093 17.9001 39.9464 18.3811 39.9835 18.7974C40.0206 19.2137 39.9835 19.4727 39.9835 19.8057V19.9445V20.1018V20.2405C39.9835 20.7863 39.9835 21.3414 39.9 21.8871C39.8165 22.4329 39.7609 23.0897 39.6495 23.6818C38.9756 27.3645 37.2674 30.7808 34.7234 33.5338C33.6619 34.698 32.4626 35.7293 31.1516 36.605C29.815 37.5079 28.3725 38.2442 26.8563 38.7974C25.0236 39.4739 23.1014 39.8791 21.1509 40C20.6685 40 20.2232 40 19.7036 40C19.1841 40 18.9429 40 18.5718 40C18.0152 40 17.4678 39.889 16.9205 39.815C16.0574 39.6981 15.2045 39.5156 14.3693 39.2692C13.0633 38.8898 11.7984 38.3816 10.5935 37.7521C7.33098 36.0049 4.62243 33.3842 2.77284 30.185C1.84229 28.6219 1.13357 26.9376 0.666925 25.1804C0.393719 24.1677 0.204446 23.1343 0.101018 22.0907C0.101018 21.6836 0.0268007 21.2673 0.00824636 20.8603C-0.0103079 20.4533 0.00824636 19.9907 0.00824636 19.556C0.00824636 19.1212 0.00824692 18.5014 0.110296 17.9741C0.212344 17.4468 0.258731 16.7993 0.370057 16.2165C0.688402 14.5271 1.23126 12.8876 1.98428 11.3414C2.77875 9.69902 3.79644 8.17372 5.00863 6.80851C6.10241 5.57088 7.34933 4.47672 8.71949 3.55227C10.6044 2.2581 12.6971 1.29451 14.9074 0.703051C15.7623 0.468722 16.6337 0.29865 17.5142 0.194264C17.9595 0.14801 18.4419 0.0925067 18.8594 0.0647546C19.2769 0.0370025 19.5274 0.0647546 19.8614 0.0647546L19.9356 0ZM19.7593 9.25069C18.1671 9.25069 16.6105 9.72139 15.2865 10.6033C13.9625 11.4852 12.9303 12.7387 12.3206 14.2054C11.7108 15.672 11.5508 17.2861 11.8608 18.8434C12.1708 20.4007 12.9368 21.8315 14.062 22.9548C15.1873 24.0781 16.6212 24.8436 18.1826 25.1545C19.7441 25.4654 21.3629 25.3077 22.8345 24.7013C24.306 24.095 25.5643 23.0673 26.4503 21.748C27.3362 20.4288 27.81 18.8773 27.8119 17.2895C27.8143 16.2335 27.6078 15.1874 27.2042 14.2111C26.8007 13.2347 26.2079 12.3474 25.4599 11.5998C24.7119 10.8522 23.8234 10.2591 22.8452 9.85442C21.867 9.44974 20.8183 9.24144 19.7593 9.24144V9.25069ZM21.1509 33.3025H21.3271C21.6358 33.2413 21.9177 33.0861 22.1343 32.8585L27.4501 27.5578C27.6556 27.3567 27.7888 27.0935 27.8291 26.8092C27.8694 26.5249 27.8144 26.2352 27.6727 25.9852C27.5756 25.7964 27.4346 25.6335 27.2616 25.51C27.0885 25.3865 26.8884 25.306 26.6778 25.2752C26.4672 25.2444 26.2524 25.2643 26.051 25.3331C25.8497 25.4019 25.6678 25.5176 25.5204 25.6707L20.1582 31.0176C19.9967 31.1685 19.8775 31.3588 19.8124 31.5697C19.7474 31.7806 19.7386 32.0049 19.7871 32.2202C19.8529 32.5328 20.0241 32.8135 20.2723 33.0155C20.5204 33.2175 20.8305 33.3286 21.1509 33.3302V33.3025ZM30.5301 10.6105C30.5326 10.2515 30.3925 9.906 30.1405 9.6495C29.8885 9.39301 29.545 9.24632 29.1849 9.24144C28.9174 9.23964 28.6554 9.31685 28.4319 9.46334C28.2083 9.60983 28.0333 9.81903 27.9288 10.0646C27.8244 10.3101 27.7952 10.581 27.8449 10.8431C27.8946 11.1052 28.021 11.3467 28.2082 11.5372C28.3954 11.7277 28.635 11.8587 28.8968 11.9137C29.1585 11.9686 29.4307 11.945 29.679 11.8459C29.9274 11.7468 30.1407 11.5766 30.2922 11.3567C30.4436 11.1369 30.5264 10.8772 30.5301 10.6105Z" fill="black"/>
</svg>
