<svg width="50" height="50" viewBox="0 0 50 50" fill="none" xmlns="http://www.w3.org/2000/svg">
<path fill-rule="evenodd" clip-rule="evenodd" d="M17.9729 3.60737C14.2424 5.58804 11.1332 7.28645 11.0638 7.38141C10.9628 7.51956 10.9375 9.25237 10.9375 16.0245C10.9375 23.9516 10.9484 24.5076 11.1084 24.6916C11.2023 24.7997 12.6535 25.6118 14.3331 26.4963L17.3868 28.1044L15.9933 28.1587C14.0588 28.2341 12.7934 28.6309 11.3418 29.6171C9.67949 30.7466 8.33066 32.9028 7.96143 35.021C7.74902 36.2398 7.74707 44.2646 7.95889 45.2778C8.81357 49.3643 13.4781 51.3153 16.8722 49.0058C17.4758 48.5951 17.915 48.1526 19.0907 46.7709C19.897 45.8234 20.7749 44.8696 21.0418 44.6512C22.8847 43.143 25.5896 42.8451 27.7817 43.9089C28.7608 44.3841 29.3956 44.9641 30.9367 46.7924C31.6843 47.6792 32.5101 48.5717 32.7717 48.7757C35.6971 51.0558 39.8836 50.041 41.5595 46.6456C42.1491 45.4509 42.1839 45.0951 42.1858 40.2346C42.1877 35.4392 42.1329 34.7933 41.6102 33.4464C40.9919 31.8535 39.7751 30.3473 38.3741 29.4405C37.0335 28.573 35.8744 28.2304 33.9844 28.1434L32.666 28.0826L35.6934 26.4872C37.3584 25.6096 38.7977 24.8024 38.8916 24.6933C39.0516 24.5077 39.0625 23.9505 39.0625 16.0167C39.0625 8.0827 39.0516 7.52581 38.8916 7.34067C38.6511 7.06233 25.2529 -0.00732179 24.9799 5.69206e-06C24.8566 0.00332748 21.7035 1.62661 17.9729 3.60737ZM31.25 4.96061L37.4512 8.25446V16.0179V23.7813L31.2255 27.0789L24.9997 30.3766L18.7743 27.0758L12.5488 23.7749V16.0156V8.25641L18.75 4.96315C22.1606 3.1519 24.9731 1.66921 25 1.66833C25.0269 1.66745 27.8394 3.14897 31.25 4.96061ZM23.9569 5.2497C23.2222 5.51232 22.6266 6.04342 22.273 6.75135C22.1078 7.08206 21.9727 7.42362 21.9727 7.51038C21.9727 7.61726 21.1201 8.12061 19.3343 9.0683C17.8832 9.83837 16.6308 10.5614 16.5511 10.6753C16.4321 10.8451 16.4062 11.3335 16.4062 13.405V15.9279L16.646 16.1676C16.9631 16.485 17.4119 16.485 17.729 16.1676L17.9688 15.9279V13.7482V11.5684L19.9771 10.4952C21.0818 9.9049 22.0206 9.40937 22.0634 9.39383C22.1063 9.3784 22.1941 9.49368 22.2589 9.65C22.442 10.0922 23.1393 10.743 23.7305 11.0234C24.8383 11.5489 26.2933 11.2814 27.1862 10.3879C27.7996 9.77428 28.076 9.07983 28.0761 8.15187C28.0762 7.26789 27.8892 6.77235 27.2919 6.07429C26.5573 5.2158 25.0764 4.84953 23.9569 5.2497ZM0.239746 5.70499C0.106055 5.83864 0 6.05905 0 6.20316C0 6.35987 0.46123 7.2293 1.17188 8.41215L2.34375 10.3626V15.6259V20.8892L1.17188 22.8397C0.46123 24.0225 0 24.8919 0 25.0487C0 25.1928 0.106055 25.4132 0.239746 25.5468L0.479395 25.7867H3.90625H7.33311L7.57275 25.5468L7.8125 25.3071V15.6259V5.94474L7.57275 5.70499L7.33311 5.46513H3.90625H0.479395L0.239746 5.70499ZM42.4272 5.70499L42.1875 5.94474V15.6259V25.3071L42.4272 25.5468L42.6669 25.7867H46.0938H49.5206L49.7603 25.5468C49.8939 25.4132 50 25.1928 50 25.0487C50 24.8919 49.5388 24.0225 48.8281 22.8397L47.6562 20.8892V15.6259V10.3626L48.8281 8.41215C49.5388 7.2293 50 6.35987 50 6.20316C50 6.05905 49.8939 5.83864 49.7603 5.70499L49.5206 5.46513H46.0938H42.6669L42.4272 5.70499ZM25.7822 6.85735C26.334 7.23301 26.5137 7.56069 26.5137 8.19105C26.5137 8.90065 26.1938 9.37166 25.543 9.6203C25.0279 9.81707 24.5832 9.76206 24.1175 9.44405C22.8841 8.60159 23.5018 6.63753 25 6.63753C25.3156 6.63753 25.5604 6.70631 25.7822 6.85735ZM6.25 15.6259V24.2235H4.20264H2.15527L3.03076 22.7682L3.90625 21.313V15.6259V9.9388L3.03076 8.48356L2.15527 7.02833H4.20264H6.25V15.6259ZM46.9692 8.48356L46.0938 9.9388V15.6259V21.313L46.9692 22.7682L47.8447 24.2235H45.7974H43.75V15.6259V7.02833H45.7974H47.8447L46.9692 8.48356ZM32.271 11.9578C31.7865 12.4424 32.1298 13.2811 32.8125 13.2811C33.214 13.2811 33.5938 12.9012 33.5938 12.4995C33.5938 12.0979 33.214 11.7179 32.8125 11.7179C32.6223 11.7179 32.4221 11.8065 32.271 11.9578ZM32.271 15.0842L32.0312 15.3239V17.8944V20.465L30.0229 21.5382C28.9182 22.1285 27.9794 22.624 27.9366 22.6396C27.8938 22.655 27.8063 22.541 27.7423 22.3862C27.5687 21.9669 26.7753 21.2342 26.2207 20.9809C25.1466 20.4905 23.6766 20.7775 22.8174 21.6455C22.1652 22.3043 21.9339 22.8736 21.9285 23.8327C21.9229 24.8219 22.1488 25.3818 22.8272 26.0606C24.2929 27.5269 26.8034 27.1311 27.7236 25.2888C27.8907 24.9544 28.0274 24.6109 28.0275 24.5254C28.0276 24.4219 28.9088 23.9013 30.6671 22.9659C32.1188 22.1936 33.3711 21.4693 33.4501 21.3565C33.5687 21.1871 33.5938 20.644 33.5938 18.2376V15.3239L33.354 15.0842C33.2029 14.9329 33.0027 14.8443 32.8125 14.8443C32.6223 14.8443 32.4221 14.9329 32.271 15.0842ZM16.646 18.2106C16.1615 18.6951 16.5048 19.5339 17.1875 19.5339C17.3777 19.5339 17.5779 19.4453 17.729 19.294C17.8802 19.1429 17.9688 18.9426 17.9688 18.7523C17.9688 18.562 17.8802 18.3617 17.729 18.2106C17.5779 18.0593 17.3777 17.9707 17.1875 17.9707C16.9973 17.9707 16.7971 18.0593 16.646 18.2106ZM25.6444 22.4556C26.2364 22.7247 26.5137 23.1693 26.5137 23.85C26.5137 24.2596 26.4603 24.4766 26.3094 24.6804C25.5989 25.6396 24.4011 25.6396 23.6906 24.6804C23.3901 24.2747 23.4054 23.4089 23.7208 22.9664C23.9718 22.6144 24.6008 22.2738 25 22.2738C25.1343 22.2738 25.4243 22.3557 25.6444 22.4556ZM22.2767 30.6963L24.1699 31.698L24.2188 34.027C24.267 36.3293 24.2702 36.358 24.4981 36.5424C24.6249 36.6451 24.8508 36.729 25 36.729C25.1492 36.729 25.3751 36.6451 25.5019 36.5424C25.7298 36.358 25.733 36.3291 25.7812 34.0315L25.8301 31.707L27.7339 30.6932L29.6376 29.6794L32.4214 29.7163C35.1378 29.7523 35.2243 29.7596 35.9991 30.0176C38.0019 30.6845 39.5942 32.3165 40.3074 34.4331L40.5708 35.2147L40.604 39.7861C40.627 42.9425 40.6029 44.5228 40.5263 44.892C40.3493 45.745 39.8106 46.7136 39.2056 47.2667C37.832 48.5226 36.065 48.7801 34.4109 47.9655C33.7574 47.6436 33.3981 47.285 31.5262 45.0869C30.3896 43.7523 29.5486 43.04 28.501 42.5246C25.5795 41.0874 22.1315 41.5561 19.7439 43.715C19.4581 43.9735 18.6606 44.8509 17.9718 45.665C16.5239 47.3759 16.1701 47.7091 15.4529 48.0376C13.3677 48.9927 10.942 48.1411 9.91865 46.0946C9.37598 45.0095 9.35947 44.8101 9.3958 39.7861L9.42881 35.2147L9.68193 34.4656C10.4957 32.0574 12.3281 30.3449 14.6167 29.8536C15.0987 29.7502 15.9891 29.7083 17.8333 29.7027L20.3834 29.6947L22.2767 30.6963ZM13.521 33.0609C13.2999 33.282 13.2812 33.3733 13.2812 34.2333V35.1658H12.3491C11.4896 35.1658 11.3982 35.1845 11.1772 35.4057C10.9395 35.6435 10.9375 35.6606 10.9375 37.5106C10.9375 39.3607 10.9395 39.3778 11.1772 39.6156C11.3982 39.8368 11.4896 39.8554 12.3491 39.8554H13.2812V40.788C13.2812 41.6479 13.2999 41.7393 13.521 41.9604C13.7587 42.1983 13.7758 42.2002 15.625 42.2002C17.4742 42.2002 17.4913 42.1983 17.729 41.9604C17.9501 41.7393 17.9688 41.6479 17.9688 40.788V39.8554H18.9009C19.7604 39.8554 19.8518 39.8368 20.0728 39.6156C20.3105 39.3778 20.3125 39.3607 20.3125 37.5106C20.3125 35.6606 20.3105 35.6435 20.0728 35.4057C19.8518 35.1845 19.7604 35.1658 18.9009 35.1658H17.9688V34.2333C17.9688 33.3733 17.9501 33.282 17.729 33.0609C17.4913 32.823 17.4742 32.8211 15.625 32.8211C13.7758 32.8211 13.7587 32.823 13.521 33.0609ZM33.5449 32.9093C33.1103 33.1003 32.8613 33.4972 32.8613 33.9994C32.8613 34.4098 32.9068 34.5238 33.1806 34.7976C33.4554 35.0725 33.5674 35.117 33.9844 35.117C34.4014 35.117 34.5134 35.0725 34.7882 34.7976C35.063 34.5227 35.1074 34.4106 35.1074 33.9935C35.1074 33.5818 35.0618 33.4631 34.8054 33.2065C34.4829 32.8839 33.9101 32.7489 33.5449 32.9093ZM16.4062 35.3168C16.4062 36.1767 16.4249 36.2681 16.646 36.4892C16.867 36.7104 16.9583 36.729 17.8179 36.729H18.75V37.5106V38.2922H17.8179C16.9583 38.2922 16.867 38.3109 16.646 38.5321C16.4249 38.7532 16.4062 38.8445 16.4062 39.7045V40.637H15.625H14.8438V39.7045C14.8438 38.8445 14.8251 38.7532 14.604 38.5321C14.383 38.3109 14.2917 38.2922 13.4321 38.2922H12.5V37.5106V36.729H13.4321C14.2917 36.729 14.383 36.7104 14.604 36.4892C14.8251 36.2681 14.8438 36.1767 14.8438 35.3168V34.3842H15.625H16.4062V35.3168ZM30.4199 36.0357C29.9853 36.2267 29.7363 36.6236 29.7363 37.1258C29.7363 37.5362 29.7818 37.6502 30.0556 37.924C30.3304 38.1989 30.4424 38.2434 30.8594 38.2434C31.2764 38.2434 31.3884 38.1989 31.6632 37.924C31.938 37.6491 31.9824 37.537 31.9824 37.1198C31.9824 36.7082 31.9368 36.5895 31.6804 36.3329C31.3579 36.0103 30.7851 35.8752 30.4199 36.0357ZM36.6699 36.0357C36.2353 36.2267 35.9863 36.6236 35.9863 37.1258C35.9863 37.5362 36.0318 37.6502 36.3056 37.924C36.5804 38.1989 36.6924 38.2434 37.1094 38.2434C37.5264 38.2434 37.6384 38.1989 37.9132 37.924C38.188 37.6491 38.2324 37.537 38.2324 37.1198C38.2324 36.7082 38.1868 36.5895 37.9304 36.3329C37.6079 36.0103 37.0351 35.8752 36.6699 36.0357ZM33.5449 39.1621C33.1103 39.3531 32.8613 39.75 32.8613 40.2522C32.8613 40.6626 32.9068 40.7765 33.1806 41.0504C33.4554 41.3253 33.5674 41.3698 33.9844 41.3698C34.4014 41.3698 34.5134 41.3253 34.7882 41.0504C35.063 40.7755 35.1074 40.6634 35.1074 40.2462C35.1074 39.8346 35.0618 39.7159 34.8054 39.4593C34.4829 39.1367 33.9101 39.0016 33.5449 39.1621Z" fill="#0073A8"/>
</svg>
