<svg width="36" height="40" viewBox="0 0 36 40" fill="none" xmlns="http://www.w3.org/2000/svg">
<path fill-rule="evenodd" clip-rule="evenodd" d="M4.55143 0.0986518C3.49616 0.354308 2.76101 0.745736 1.99057 1.46208C1.17067 2.22443 0.520979 3.31662 0.196697 4.47784L0 5.18212V15.2378V25.2935L0.196697 25.9977C0.762622 28.0245 2.19107 29.6111 4.01566 30.2398L4.64971 30.4582H18H31.3503L31.9843 30.2398C34.3162 29.4363 35.9658 27.076 35.992 24.5056C35.9994 23.7742 35.9864 23.6949 35.811 23.4001C35.5202 22.9113 35.1758 22.7111 34.6262 22.7111C33.7765 22.7111 33.3383 23.2058 33.2142 24.3053C33.045 25.804 32.4117 26.7528 31.2903 27.1874C30.9463 27.3208 30.2592 27.3281 18 27.3281C5.74084 27.3281 5.05367 27.3208 4.70966 27.1874C3.91787 26.8805 3.29777 26.222 2.98166 25.3523L2.818 24.9022V15.2378V5.5734L2.98166 5.12328C3.29777 4.25356 3.91787 3.59505 4.70966 3.28814C5.05367 3.15479 5.74084 3.14751 18 3.14751C30.2592 3.14751 30.9463 3.15479 31.2903 3.28814C32.0821 3.59505 32.7022 4.25356 33.0183 5.12328L33.182 5.5734L33.2172 11.2135L33.2524 16.8537L33.4415 17.1708C33.7325 17.6591 34.0769 17.8593 34.6262 17.8593C35.1756 17.8593 35.52 17.6591 35.811 17.1706L36 16.8534V11.0178V5.18212L35.8033 4.47784C35.2374 2.45113 33.8089 0.864448 31.9843 0.235832L31.3503 0.0173457L18.1761 0.00341644C7.13349 -0.00832169 4.92904 0.0070944 4.55143 0.0986518ZM15.089 8.42201C14.3238 8.70317 13.7664 9.24743 13.3997 10.0714L13.1742 10.5784V15.2378V19.8972L13.3993 20.4051C13.687 21.0543 14.1788 21.5992 14.7593 21.9119C15.1673 22.1316 15.2863 22.1588 15.8513 22.1609C16.2 22.1622 16.5997 22.1182 16.7395 22.063C16.8794 22.008 18.4645 21.0173 20.262 19.8616C22.4768 18.4377 23.639 17.6448 23.8674 17.4019C24.0717 17.1847 24.2938 16.8343 24.431 16.5123C24.6366 16.0303 24.6575 15.9126 24.6575 15.2378C24.6575 14.563 24.6366 14.4453 24.431 13.9633C24.2937 13.6411 24.0719 13.2911 23.8674 13.0738C23.6428 12.8351 22.5201 12.0638 20.501 10.7609C18.8348 9.68597 17.2734 8.70067 17.0312 8.57147C16.4462 8.25939 15.6899 8.20117 15.089 8.42201ZM18.8982 13.3595C20.4578 14.3627 21.7339 15.2078 21.7339 15.2378C21.7339 15.2762 16.7474 18.5288 16.0098 18.9715C15.9808 18.989 15.9569 17.3088 15.9569 15.2378C15.9569 13.1668 15.9808 11.4866 16.0098 11.5041C16.0388 11.5215 17.3387 12.3565 18.8982 13.3595ZM8.81458 33.8661C8.34439 33.9973 7.71865 34.4208 7.38394 34.8345L7.06241 35.2318L3.98917 35.2709L0.915851 35.31L0.646943 35.4957C0.498998 35.5978 0.292932 35.8242 0.189018 35.9986C0.0315617 36.2629 0 36.4027 0 36.836C0 37.2692 0.0315617 37.409 0.189018 37.6733C0.292932 37.8477 0.498998 38.0741 0.646943 38.1762L0.915851 38.3619L3.9588 38.3846L7.00175 38.4073L7.14822 38.6705C7.37394 39.0762 7.82623 39.4895 8.33967 39.7593C8.75857 39.9794 8.87108 40.004 9.44031 39.9995C9.92381 39.9959 10.1706 39.9527 10.4796 39.8182C11.58 39.3391 12.2554 38.2344 12.2554 36.9142C12.2554 35.2092 11.1342 33.9115 9.58121 33.8192C9.30998 33.803 8.96499 33.8242 8.81458 33.8661ZM16.0423 35.3586C15.7091 35.4662 15.276 35.9788 15.1785 36.3811C15.0098 37.0767 15.2604 37.808 15.7937 38.1762L16.0626 38.3619H25.5734H35.0841L35.3531 38.1762C35.501 38.0741 35.7071 37.8477 35.811 37.6733C35.9684 37.409 36 37.2692 36 36.836C36 36.4027 35.9684 36.2629 35.811 35.9986C35.7071 35.8242 35.501 35.5978 35.3531 35.4957L35.0841 35.31L25.6791 35.2969C19.8709 35.2889 16.1853 35.3124 16.0423 35.3586Z" fill="#FCB900"/>
</svg>
