<svg width="41" height="41" viewBox="0 0 41 41" fill="none" xmlns="http://www.w3.org/2000/svg">
<path fill-rule="evenodd" clip-rule="evenodd" d="M3.61969 0.158522C2.74316 0.388205 2.12255 0.75155 1.43868 1.43539C0.745047 2.12909 0.38958 2.7435 0.158154 3.64814C0.00320313 4.25414 0 4.5961 0 20.4983C0 36.4005 0.00320313 36.7425 0.158154 37.3485C0.38958 38.2531 0.745047 38.8675 1.43868 39.5612C2.13232 40.2549 2.74668 40.6104 3.65124 40.8418C4.2471 40.9942 4.56533 41 12.3432 41H20.4167L20.0601 40.4486C19.7011 39.8937 19.2118 38.7672 19.0568 38.1386L18.9732 37.7999L11.6228 37.7782L4.27241 37.7566L3.94785 37.5417C3.76928 37.4236 3.53769 37.1893 3.43319 37.0211L3.24316 36.7155V20.4983V4.28113L3.43319 3.97544C3.53769 3.80726 3.76936 3.57302 3.94785 3.45489L4.27249 3.24002H20.4942H36.7158L37.0215 3.43007C37.1896 3.53458 37.4239 3.76618 37.542 3.94477L37.7568 4.26935L37.7785 11.6203L37.8002 18.9714L38.1388 19.0549C38.7673 19.21 39.8938 19.6993 40.4487 20.0583L41 20.415V12.3409C41 4.5623 40.9942 4.24405 40.8418 3.64814C40.6104 2.7435 40.255 2.12909 39.5613 1.43539C38.8677 0.741699 38.2533 0.386203 37.3488 0.154758C36.7425 -0.000286043 36.4083 -0.00332926 20.4672 0.000995315C4.71836 0.00523981 4.1856 0.0102852 3.61969 0.158522ZM6.24609 7.92498V9.52668H7.84766H9.44922V7.92498V6.32329H7.84766H6.24609V7.92498ZM12.5723 7.92498V9.52668H14.1738H15.7754V7.92498V6.32329H14.1738H12.5723V7.92498ZM18.8984 7.92498V9.52668H20.5H22.1016V7.92498V6.32329H20.5H18.8984V7.92498ZM25.2246 7.92498V9.52668H26.8262H28.4277V7.92498V6.32329H26.8262H25.2246V7.92498ZM31.5508 7.92498V9.52668H33.1523H34.7539V7.92498V6.32329H33.1523H31.5508V7.92498ZM25.2246 20.7683V25.2233H20.7699H16.3153L16.3694 25.6437C16.4422 26.2091 16.8085 26.9733 17.2213 27.4212C17.432 27.6499 17.7881 27.9013 18.1647 28.0875L18.7696 28.3866L21.9971 28.4108L25.2246 28.4351L25.2201 30.0526L25.2156 31.6701L24.6396 31.9436C23.841 32.3227 22.9578 33.2072 22.5537 34.0326C21.85 35.47 21.8657 37.0658 22.5974 38.4624C22.9377 39.1121 23.9092 40.0837 24.5588 40.424C25.6213 40.9808 26.8498 41.1308 27.9796 40.8418C28.8842 40.6104 29.4985 40.2549 30.1922 39.5612C31.3948 38.3584 31.8548 36.8344 31.5104 35.1939C31.2257 33.8381 30.2048 32.5094 29.0128 31.9436L28.4368 31.6701L28.4322 30.0484L28.4277 28.4267L30.0493 28.4312L31.6709 28.4357L31.9444 29.0118C32.3234 29.8104 33.2078 30.6936 34.0332 31.0978C35.4704 31.8016 37.0661 31.7858 38.4626 31.0541C39.1122 30.7138 40.0837 29.7422 40.4241 29.0925C40.9808 28.0299 41.1308 26.8014 40.8418 25.6715C40.6104 24.7668 40.255 24.1524 39.5613 23.4587C38.3586 22.256 36.8347 21.7959 35.1943 22.1404C33.8387 22.4251 32.5101 23.4461 31.9444 24.6382L31.6709 25.2142L30.0535 25.2188L28.4361 25.2233L28.4119 21.9955L28.3877 18.7677L28.0886 18.1628C27.9024 17.7861 27.651 17.43 27.4224 17.2193C26.9745 16.8065 26.2104 16.4402 25.645 16.3674L25.2246 16.3132V20.7683ZM37.075 25.4933C37.5524 25.8093 37.7568 26.2085 37.7568 26.825C37.7568 27.4495 37.552 27.8409 37.0522 28.1718C36.6054 28.4675 35.8233 28.479 35.3691 28.1966C34.763 27.8197 34.4781 27.0714 34.6698 26.3595C34.78 25.9501 35.2701 25.4258 35.6517 25.3091C36.0715 25.1805 36.7315 25.266 37.075 25.4933ZM6.32617 33.0716V34.6733H7.92773H9.5293V33.0716V31.4699H7.92773H6.32617V33.0716ZM12.4922 33.0716V34.6733H14.0938H15.6953V33.0716V31.4699H14.0938H12.4922V33.0716ZM27.7058 34.8633C28.1833 35.1792 28.3877 35.5784 28.3877 36.1949C28.3877 36.8194 28.1829 37.2109 27.683 37.5417C27.2363 37.8374 26.4542 37.8489 26 37.5665C25.3938 37.1896 25.109 36.4413 25.3007 35.7294C25.4109 35.3201 25.9009 34.7958 26.2825 34.679C26.7024 34.5505 27.3624 34.6359 27.7058 34.8633Z" fill="#28C193"/>
</svg>
