<svg width="46" height="46" viewBox="0 0 46 46" fill="none" xmlns="http://www.w3.org/2000/svg">
<path fill-rule="evenodd" clip-rule="evenodd" d="M22.3744 0.0590081C21.5667 0.324981 21.0491 0.781334 20.7305 1.50842C20.6331 1.73089 20.5481 1.92001 20.5417 1.92873C20.5353 1.93745 20.0144 2.049 19.3843 2.17655C17.5861 2.54068 14.9754 3.50012 14.6666 3.91027C14.5035 4.12708 14.5286 4.60401 14.7116 4.76473C15.031 5.04518 15.2232 5.02594 16.135 4.62199C17.26 4.12357 18.4979 3.72636 19.6705 3.48736C20.5877 3.30048 20.7564 3.30606 20.7564 3.52349C20.7564 3.75441 21.519 4.50316 21.9665 4.71143C22.5888 5.00131 23.4183 5.00131 24.0407 4.71143C24.4881 4.50316 25.2507 3.75441 25.2507 3.52349C25.2507 3.30606 25.4195 3.30048 26.3367 3.48736C27.5093 3.72636 28.7471 4.12357 29.8721 4.62199C30.784 5.02594 30.9761 5.04518 31.2956 4.76473C31.4786 4.60401 31.5037 4.12708 31.3405 3.91027C31.0318 3.50012 28.4211 2.54068 26.6229 2.17655C25.9927 2.049 25.4719 1.93745 25.4655 1.92873C25.4591 1.92001 25.3741 1.73089 25.2766 1.50842C25.024 0.931803 24.6672 0.545832 24.1397 0.27851C23.6518 0.0313231 22.7857 -0.0763605 22.3744 0.0590081ZM23.5016 1.47121C24.0111 1.713 24.2564 2.28387 24.0802 2.81789C23.7439 3.83693 22.2633 3.83693 21.9269 2.81789C21.753 2.29088 22.0174 1.66734 22.5049 1.45503C22.8712 1.29548 23.1404 1.2998 23.5016 1.47121ZM7.35152 3.19828C6.78991 3.49167 6.26488 4.12834 6.10057 4.71511C5.9572 5.22702 6.03549 6.05352 6.271 6.51517C6.53265 7.02806 7.20905 7.59462 7.75241 7.75596C8.32867 7.92711 8.65118 7.92531 9.2492 7.74769L9.72946 7.60513L12.6764 10.5566L15.6234 13.5082L15.1933 14.0751C14.2788 15.2807 13.588 16.933 13.3729 18.4295L13.2598 19.216H9.06196H4.86419L4.77547 18.9688C4.36073 17.8133 2.91429 17.15 1.69336 17.5554C1.03584 17.7739 0.348305 18.4614 0.129882 19.1189C-0.276764 20.3435 0.295722 21.6086 1.50775 22.1635C2.16131 22.4627 3.0964 22.4194 3.7069 22.0616C4.17305 21.7885 4.62239 21.2822 4.77682 20.8564L4.8827 20.5643H9.07131H13.2598L13.3729 21.3508C13.6652 23.3842 14.6802 25.3672 16.1925 26.8596C16.9146 27.572 18.1683 28.4429 18.9211 28.7549L19.4081 28.9568V30.5622C19.4081 32.147 19.411 32.1707 19.6288 32.3884C19.9119 32.6715 20.3019 32.6768 20.561 32.4011L20.7564 32.193V25.9455C20.7564 19.0896 20.7532 19.1353 21.293 18.4825C22.4004 17.1439 24.6225 17.5925 25.1185 19.2548C25.2312 19.6326 25.2507 21.0802 25.2507 29.0592V38.4203L25.4587 38.6158C25.7348 38.875 26.104 38.8649 26.3784 38.5905L26.599 38.3699L26.603 35.7816C26.6072 33.0136 26.6358 32.7965 27.0721 32.2245C27.1955 32.0627 27.5129 31.8125 27.7774 31.6686C28.8837 31.0664 30.2812 31.52 30.8142 32.6541C30.9924 33.033 31.0035 33.2025 31.0035 35.5609C31.0035 38.5807 31.0572 38.8112 31.7616 38.8112C32.2474 38.8112 32.3224 38.6039 32.3696 37.1321C32.4104 35.8607 32.427 35.7614 32.6721 35.3109C33.0954 34.5333 33.7656 34.1371 34.6575 34.1371C35.3092 34.1371 35.8311 34.3821 36.2899 34.9034C36.7571 35.4341 36.8461 35.7992 36.8461 37.1852C36.8461 38.3232 36.8548 38.3787 37.0667 38.5905C37.1985 38.7224 37.3912 38.8112 37.5454 38.8112C37.8612 38.8112 38.1943 38.4821 38.1943 38.17C38.1943 37.7609 38.4547 37.0635 38.7329 36.7271C39.8423 35.3858 42.0575 35.8435 42.5614 37.5181C42.6435 37.7909 42.6887 38.364 42.6887 39.1335C42.6887 40.3149 42.6909 40.3279 42.9255 40.5125C43.2209 40.7448 43.505 40.7496 43.7798 40.5268C43.9874 40.3584 43.9919 40.3229 43.9887 38.8863C43.9857 37.57 43.964 37.3641 43.7789 36.8982C43.0852 35.1521 41.2116 34.214 39.4466 34.729C39.1781 34.8074 38.8674 34.9287 38.7561 34.9987C38.6449 35.0686 38.4587 35.1873 38.3424 35.2624C38.134 35.3969 38.1265 35.3901 37.8438 34.8158C37.243 33.5955 36.1569 32.8764 34.8077 32.8055C33.9817 32.7622 33.3641 32.9097 32.7806 33.2897C32.5963 33.4097 32.4295 33.5079 32.4101 33.5079C32.3906 33.5079 32.3553 33.3067 32.3316 33.0606C32.1584 31.2581 30.0852 29.7476 28.25 30.0868C27.7022 30.1881 27.0044 30.4723 26.7597 30.6938C26.6064 30.8325 26.5991 30.7963 26.6006 29.9039L26.6021 28.9687L27.0982 28.7538C27.8824 28.4143 29.1166 27.5552 29.8185 26.8603C31.3265 25.3672 32.3428 23.3787 32.6343 21.3508L32.7473 20.5643H36.9359H41.1245L41.2323 20.8626C41.2917 21.0268 41.4819 21.3265 41.6551 21.5289C43.0368 23.143 45.7695 22.2823 45.9881 20.164C46.1033 19.0487 45.37 17.9063 44.3138 17.5554C43.0929 17.15 41.6464 17.8133 41.2317 18.9688L41.143 19.216H36.9452H32.7473L32.6343 18.4295C32.4192 16.933 31.7284 15.2807 30.8139 14.0751L30.3838 13.5082L33.3308 10.5566L36.2777 7.60513L36.758 7.74769C37.6836 8.02257 38.459 7.85016 39.1693 7.21152C40.1918 6.29226 40.26 4.79682 39.3298 3.69517C38.5411 2.76126 36.8807 2.68009 35.878 3.52646C35.1482 4.14254 34.8404 5.34252 35.1825 6.23823L35.3409 6.65297L32.4311 9.56375C30.8308 11.1647 29.4796 12.4745 29.4286 12.4745C29.3775 12.4745 29.1177 12.3108 28.8512 12.1105C26.4371 10.2966 23.3496 9.71063 20.3969 10.5061C19.4954 10.7489 18.2032 11.3704 17.3358 11.9782C16.9462 12.2512 16.5956 12.4745 16.5566 12.4745C16.5177 12.4745 15.1756 11.1639 13.5743 9.56196L10.6627 6.64937L10.8108 6.27931C11.1229 5.49928 10.9354 4.43512 10.3694 3.774C9.64946 2.93285 8.33838 2.68279 7.35152 3.19828ZM9.07419 4.43125C9.68739 4.74837 9.79049 5.72669 9.26052 6.20021C8.89145 6.52992 8.57829 6.59778 8.13614 6.44362C7.23637 6.1301 7.10199 4.87035 7.91978 4.41651C8.20319 4.25921 8.75509 4.26622 9.07419 4.43125ZM38.0874 4.41651C38.9052 4.87035 38.7708 6.1301 37.871 6.44362C37.43 6.59733 37.1157 6.52992 36.75 6.20309C36.235 5.74296 36.3064 4.8165 36.8838 4.46433C37.2013 4.27081 37.7831 4.24761 38.0874 4.41651ZM24.8692 11.7086C27.5688 12.3562 29.8109 14.2846 30.8213 16.8279C31.5643 18.6985 31.5627 21.0617 30.8169 22.9912C30.1554 24.7028 28.5481 26.5068 26.981 27.2967L26.599 27.4892V26.7357V25.9822L27.2329 25.5108C28.3508 24.6796 29.1747 23.5225 29.6704 22.0875C29.9482 21.2835 29.9639 21.1693 29.9668 19.9351C29.9701 18.4607 29.8221 17.8059 29.2293 16.6729C28.7428 15.7432 28.3811 15.5297 27.9145 15.8968C27.5843 16.1565 27.6103 16.4598 28.0342 17.2887C28.5227 18.2437 28.7017 19.099 28.6426 20.1933C28.5645 21.6377 28.0638 22.8159 27.1029 23.8166L26.644 24.2946L26.5925 21.7328C26.5642 20.3239 26.4987 19.0485 26.4471 18.8989C25.9106 17.3417 24.5623 16.3396 23.0036 16.3396C21.4449 16.3396 20.0966 17.3417 19.56 18.8989C19.5084 19.0485 19.443 20.3214 19.4147 21.7274L19.3632 24.2837L18.9138 23.8189C17.9317 22.8031 17.4385 21.6368 17.3665 20.1598C17.2837 18.4606 17.7952 17.138 19.0011 15.9334C20.1603 14.7755 21.3824 14.2651 23.0144 14.257C23.9209 14.2525 24.4979 14.3752 25.448 14.7744C25.7346 14.8948 26.0314 14.9641 26.1222 14.9318C26.4478 14.8161 26.599 14.6069 26.599 14.2723C26.599 13.8669 26.4629 13.7356 25.7218 13.4258C24.85 13.0614 24.0437 12.9078 23.0036 12.9078C20.9704 12.9078 19.3205 13.6221 17.9002 15.1173C17.1762 15.8795 16.6398 16.7799 16.2886 17.8228C16.0691 18.4748 16.0463 18.6676 16.0441 19.8902C16.0418 21.1842 16.0536 21.2728 16.337 22.0924C16.839 23.544 17.8231 24.8756 18.9845 25.6746L19.4081 25.9661V26.7276V27.4892L19.0261 27.2967C17.923 26.7406 16.6769 25.5741 15.9089 24.3784C15.0425 23.0297 14.6372 21.5993 14.6372 19.8902C14.6372 18.2545 14.9971 16.9371 15.831 15.5198C16.3676 14.6077 17.7125 13.2745 18.6655 12.71C19.4957 12.2183 20.8648 11.7177 21.7452 11.584C22.4977 11.4699 24.1482 11.5357 24.8692 11.7086ZM3.29298 19.1609C3.52542 19.4145 3.58816 19.5607 3.58816 19.8484C3.58816 20.5741 3.14853 21.0137 2.42279 21.0137C1.91736 21.0137 1.44033 20.5823 1.37049 20.062C1.22245 18.9579 2.54063 18.34 3.29298 19.1609ZM44.0454 18.9058C44.3727 19.075 44.6653 19.5309 44.6658 19.8722C44.6662 20.2007 44.4596 20.5914 44.1614 20.826C43.6958 21.1923 42.8276 21.0038 42.5554 20.4774C42.0345 19.47 43.055 18.3936 44.0454 18.9058ZM19.7723 34.535C19.6512 34.6021 19.5226 34.7322 19.4864 34.824C19.4503 34.9159 19.4179 35.9994 19.4144 37.2319L19.4081 39.4727L18.0823 38.1657C16.6339 36.7379 16.2199 36.4637 15.2391 36.2831C12.8889 35.85 10.7136 38.0064 11.1279 40.3586C11.3373 41.5477 11.7526 42.081 14.4815 44.6661C15.9752 46.0811 16.1277 46.1676 16.5398 45.8339C16.6901 45.7122 16.7475 45.5723 16.7475 45.3284C16.7475 45.0082 16.6489 44.8938 14.7954 43.0632C13.6465 41.9284 12.7635 40.9807 12.649 40.7597C12.2467 39.983 12.4356 38.8871 13.0834 38.2392C13.7208 37.6019 14.8026 37.4009 15.588 37.7738C15.8038 37.8764 16.722 38.7109 17.8845 39.8611C19.5955 41.5539 19.855 41.7774 20.1092 41.7774C20.2771 41.7774 20.4718 41.7026 20.5767 41.5977C20.7499 41.4245 20.7564 41.2981 20.7564 38.133V34.848L20.5358 34.6274C20.2881 34.3797 20.0949 34.3563 19.7723 34.535ZM42.9255 42.6829L42.6887 42.8691V44.2493V45.6295L42.9255 45.8158C43.2208 46.048 43.5049 46.0529 43.7798 45.8302C43.9865 45.6629 43.992 45.6218 43.992 44.2493C43.992 42.8768 43.9865 42.8358 43.7798 42.6684C43.5049 42.4457 43.2208 42.4506 42.9255 42.6829Z" fill="black"/>
</svg>
