<svg width="46" height="46" viewBox="0 0 46 46" fill="none" xmlns="http://www.w3.org/2000/svg">
<path fill-rule="evenodd" clip-rule="evenodd" d="M8.89788 0.415536C8.89788 0.802412 8.87388 0.843224 8.54947 1.00888C8.35789 1.10664 7.93923 1.42062 7.61918 1.70639C7.1196 2.15244 6.98502 2.22609 6.66915 2.22609C6.35244 2.22609 6.22444 2.1556 5.7522 1.72114C4.93601 0.970203 4.54496 0.792673 3.70745 0.792673C2.87865 0.792673 2.51245 0.956012 1.72332 1.67782C1.31707 2.04939 1.09843 2.17684 0.760956 2.23852C-0.00704196 2.37885 2.2859e-06 2.35131 2.2859e-06 5.20868V7.707L0.239689 7.94686C0.454814 8.16214 0.529982 8.18143 0.974784 8.13542C1.62961 8.06781 2.01732 7.87265 2.69031 7.2717C3.57667 6.48024 3.84259 6.48719 4.7878 7.32698C5.54032 7.99537 6.08374 8.20796 6.86008 8.13747C7.50787 8.07875 7.92755 7.88824 8.47848 7.40295L8.89788 7.03351V14.6472V22.2609H4.67649H0.454999L0.227547 22.4886C0.0266959 22.6895 2.2859e-06 22.7973 2.2859e-06 23.4063C2.2859e-06 26.3819 0.834271 29.9143 2.21585 32.7884C3.44821 35.352 4.80986 37.2833 6.76304 39.2379C12.0626 44.5412 19.4856 46.922 26.8327 45.6747C31.507 44.8812 35.8195 42.639 39.2087 39.2399C43.3369 35.0998 45.6588 29.8457 45.9392 24.0097L46 22.7439L45.7587 22.5024L45.5174 22.2609H41.2959H37.0745V14.6443V7.02767L37.4411 7.35908C38.0782 7.93517 38.514 8.11168 39.299 8.11168C40.1344 8.11168 40.5586 7.92042 41.3184 7.2014C41.7801 6.76443 41.8591 6.72464 42.2649 6.72464C42.6708 6.72464 42.7498 6.76443 43.2114 7.2014C43.8366 7.79298 44.3685 8.0705 45.0031 8.13598C45.4417 8.18134 45.5182 8.16149 45.7327 7.94686L45.9724 7.707V5.20868C45.9724 2.33711 45.9798 2.36559 45.1908 2.21811C44.8384 2.15216 44.6344 2.03427 44.26 1.67995C43.525 0.984302 43.0942 0.792673 42.2649 0.792673C41.4295 0.792673 41.0053 0.983931 40.2455 1.70296C39.7838 2.13992 39.7048 2.17971 39.299 2.17971C38.8931 2.17971 38.8141 2.13992 38.3525 1.70296C38.0754 1.44084 37.6746 1.13735 37.4617 1.02864C37.0942 0.84109 37.0745 0.809832 37.0745 0.415536V0H36.333H35.5915V11.1304V22.2609H34.85H34.1085V18.0421V13.8233L32.2455 11.5725C31.2209 10.3346 30.2801 9.22788 30.1549 9.11305C29.943 8.91873 29.8432 8.90435 28.7096 8.90435H27.4918L28.5222 7.8592C29.5213 6.84578 29.7367 6.51094 29.6221 6.14957C29.5922 6.05552 28.5542 4.96724 27.3154 3.7313C24.9596 1.38092 24.9091 1.34437 24.395 1.6166C23.9686 1.84246 17.9072 7.99602 17.8398 8.27159C17.8063 8.40821 17.8064 8.60643 17.84 8.71217C17.8986 8.89712 17.8685 8.90445 17.0373 8.90574C16.5264 8.90649 16.0904 8.95388 15.9697 9.02169C15.8574 9.08467 14.8877 10.1941 13.8147 11.4871L11.8638 13.838V18.0494V22.2609H11.1224H10.3809V11.1304V0H9.63937H8.89788V0.415536ZM4.67 2.76434C5.41353 3.46806 5.84202 3.6595 6.67341 3.6595C7.45837 3.6595 7.89418 3.48299 8.53131 2.9069L8.89788 2.57549V3.92932V5.28316L8.53937 5.46625C8.34223 5.56689 7.93914 5.87038 7.64365 6.14057C7.15371 6.58867 7.06798 6.63189 6.6685 6.63189C6.26847 6.63189 6.1869 6.59061 5.7269 6.15513C4.96706 5.43611 4.54293 5.24485 3.70745 5.24485C2.92249 5.24485 2.48668 5.42136 1.84956 5.99745L1.48298 6.32886V4.97503V3.6212L1.87013 3.42354C2.08303 3.31483 2.46879 3.02757 2.72748 2.78521C3.28832 2.25967 3.371 2.2208 3.82896 2.26709C4.09942 2.29436 4.29666 2.41104 4.67 2.76434ZM43.2107 2.74579C43.5307 3.03156 43.9494 3.34553 44.141 3.4433L44.4894 3.6212V4.97503V6.32886L44.1228 5.99745C43.4857 5.42136 43.0499 5.24485 42.2649 5.24485C41.4295 5.24485 41.0053 5.43611 40.2455 6.15513C39.7838 6.5921 39.7048 6.63189 39.299 6.63189C38.8931 6.63189 38.8141 6.5921 38.3525 6.15513C38.0754 5.89301 37.6746 5.58952 37.4617 5.48081L37.0745 5.28316V3.93461V2.58607L37.5148 2.95216C38.2287 3.54588 38.5167 3.66015 39.299 3.65978C40.1322 3.65941 40.4642 3.50924 41.3192 2.74579C41.8162 2.30196 41.9542 2.22609 42.2649 2.22609C42.5756 2.22609 42.7136 2.30196 43.2107 2.74579ZM26.3231 4.86975L27.8505 6.40037L25.4885 8.76541L23.1266 11.1304H22.7076C22.2917 11.1304 22.2788 11.1206 20.9468 9.78524L19.605 8.44003L22.1523 5.88958C23.5533 4.48687 24.7213 3.33913 24.7477 3.33913C24.7741 3.33913 25.483 4.02792 26.3231 4.86975ZM19.7885 10.7594L20.1505 11.1304H19.3439H18.5373V11.8725V12.6145H22.9862H27.4351V11.8725V11.1304H26.3504H25.2657L25.6277 10.7594L25.9898 10.3884L27.6625 10.3938L29.3352 10.3991L30.4938 11.8001C31.131 12.5706 31.6663 13.236 31.6832 13.2788C31.7003 13.3216 27.7684 13.3565 22.946 13.3565H14.1778L15.4075 11.875L16.6372 10.3935L18.0318 10.3909L19.4265 10.3884L19.7885 10.7594ZM32.6256 18.5507V22.2609H22.9862H13.3468V18.5507V14.8406H22.9862H32.6256V18.5507ZM16.5403 16.5524C16.3146 16.7781 16.3128 16.7944 16.3128 18.5507C16.3128 20.3071 16.3146 20.3234 16.5403 20.5491L16.7678 20.7768H22.9862H29.2046L29.4321 20.5491C29.6577 20.3234 29.6596 20.3071 29.6596 18.5507C29.6596 16.7944 29.6577 16.7781 29.4321 16.5524L29.2046 16.3246H22.9862H16.7678L16.5403 16.5524ZM28.1766 18.5507V19.2928H22.9862H17.7958V18.5507V17.8087H22.9862H28.1766V18.5507ZM11.1228 23.9536C11.1241 24.5897 11.3329 27.3911 11.4564 28.429C11.6212 29.8134 11.9753 31.8145 12.2389 32.8503C12.3385 33.2413 12.42 33.6028 12.42 33.6534C12.42 33.7041 12.0967 33.9218 11.7016 34.1372C10.4761 34.8054 9.12153 35.7797 7.64782 37.0532L7.11339 37.5151L6.83793 37.1924C3.66306 33.4725 1.94808 29.3457 1.52895 24.4174L1.47177 23.7449H6.29701H11.1224L11.1228 23.9536ZM33.3662 24.0928C33.3633 25.3376 33.1013 27.9909 32.8007 29.8203C32.6417 30.788 32.1819 32.9238 32.116 33.0008C32.1033 33.0156 31.7853 32.9057 31.4092 32.7565C28.6916 31.6786 26.2057 31.2214 23.0325 31.2158C19.8793 31.2103 17.2566 31.6852 14.5932 32.744C14.2006 32.9 13.8691 33.0156 13.8564 33.0008C13.771 32.9009 13.3067 30.6635 13.1177 29.4402C12.8648 27.8037 12.7379 26.5823 12.6442 24.8812L12.5815 23.7449H22.9743H33.3671L33.3662 24.0928ZM44.4434 24.4174C44.0253 29.3334 42.3018 33.4826 39.139 37.1869L38.8681 37.5042L37.8554 36.6498C36.7119 35.6848 35.3338 34.7193 34.2707 34.1382C33.8757 33.9222 33.5524 33.711 33.5524 33.6687C33.5524 33.6263 33.6562 33.1606 33.7831 32.6335C34.2795 30.5711 34.6666 27.66 34.8077 24.9276L34.8687 23.7449H39.6846H44.5006L44.4434 24.4174ZM26.1375 32.8825C26.6728 32.9653 27.5278 33.1318 28.0376 33.2526C29.3844 33.5716 31.6987 34.3908 31.6987 34.5485C31.6987 34.6247 31.0704 36.3199 30.8212 36.916C30.3547 38.0321 29.5663 39.5272 28.945 40.4741C28.1686 41.6573 26.7218 43.1311 25.8131 43.6645C24.7551 44.2857 24.1172 44.4667 22.9862 44.4667C21.8551 44.4667 21.2173 44.2857 20.1593 43.6645C19.2506 43.1311 17.8037 41.6573 17.0274 40.4741C16.4061 39.5272 15.6177 38.0321 15.1511 36.916C14.8897 36.2904 14.2737 34.6232 14.2737 34.541C14.2737 34.3596 17.0906 33.4167 18.498 33.1272C19.3 32.9621 19.7838 32.8896 21.3178 32.705C22.0137 32.6214 25.2101 32.739 26.1375 32.8825ZM13.1665 36.0381C14.25 39.1254 15.5625 41.4132 17.2814 43.2109L17.9348 43.8942L17.6104 43.827C16.0383 43.5016 12.8523 42.0793 11.1687 40.9514C10.2227 40.3177 8.72196 39.1407 8.38811 38.7708L8.20273 38.5653L8.66617 38.1443C9.454 37.4285 10.316 36.7685 11.2716 36.1494C12.2132 35.5393 12.8227 35.1717 12.8559 35.194C12.8662 35.2009 13.0059 35.5809 13.1665 36.0381ZM34.8037 36.2022C35.6853 36.783 37.1488 37.9346 37.5379 38.3536L37.7696 38.6032L37.2718 39.0626C35.7415 40.4745 33.5017 41.8964 31.3858 42.7994C30.4768 43.1874 28.4144 43.8725 28.1556 43.8725C28.099 43.8725 28.3448 43.5699 28.7021 43.2C30.3394 41.5045 31.7852 38.996 32.771 36.1403L33.1099 35.1581L33.5397 35.4054C33.7761 35.5414 34.3449 35.9 34.8037 36.2022Z" fill="#B14EFF"/>
</svg>
