<svg width="55" height="40" viewBox="0 0 55 40" fill="none" xmlns="http://www.w3.org/2000/svg">
<path fill-rule="evenodd" clip-rule="evenodd" d="M16.4716 0.131805C14.0729 0.593948 12.1713 1.58917 10.5393 3.23673C7.22948 6.57798 6.2887 11.5237 8.13263 15.8891C8.77799 17.4169 10.2225 19.3394 11.3569 20.1799C11.8062 20.5129 11.9035 20.6666 11.6661 20.6683C11.5923 20.6688 10.9996 20.9294 10.3492 21.2473C5.12688 23.7995 1.28474 28.7958 0.134432 34.5305C-0.0873525 35.6362 -0.0370399 36.4951 0.302678 37.4007C0.63745 38.293 1.70197 39.3724 2.60878 39.7391L3.25381 40H18.2508H33.2479L33.8929 39.7388C34.35 39.5536 34.7274 39.2854 35.1882 38.8182C36.0709 37.9232 36.5188 36.9023 36.5231 35.7761C36.5245 35.4115 36.1739 33.6738 35.9281 32.8273L35.858 32.5862L44.0672 32.5565L52.2764 32.5269L52.8676 32.2459C54.0417 31.6879 54.8738 30.5049 54.9885 29.2305C55.1312 27.6453 53.9253 24.2732 52.4831 22.2244C51.0165 20.1412 48.9678 18.3696 46.8712 17.3718L46.205 17.0547L46.8369 16.3917C49.6936 13.3945 50.2473 8.76674 48.1631 5.30549C46.9466 3.28514 45.3755 2.00518 43.2256 1.28278C41.9799 0.864173 40.2954 0.729656 39.0452 0.949085C34.5988 1.72911 31.3387 5.91655 31.6198 10.4865C31.6546 11.0524 31.7625 11.8322 31.8595 12.2194C32.2348 13.7163 33.2495 15.5067 34.3108 16.5449L34.8021 17.0254L33.8268 17.5444C33.2903 17.8299 32.5294 18.2925 32.1358 18.5725C31.2064 19.2335 29.5544 20.8526 28.8769 21.7665L28.3429 22.4867L27.3567 21.8994C26.8141 21.5765 25.9947 21.1575 25.5357 20.9685C25.0767 20.7794 24.7044 20.5978 24.7084 20.5648C24.7124 20.5318 25.0333 20.2407 25.4215 19.9177C26.4334 19.076 27.415 17.7786 28.0914 16.3892C29.5408 13.4112 29.6893 10.3344 28.5335 7.23431C27.5306 4.5442 25.2915 2.12854 22.7105 0.951792C20.9247 0.137762 18.2591 -0.212609 16.4716 0.131805ZM19.6726 3.38338C24.2004 4.25611 27.0217 8.96494 25.7616 13.5461C25.0909 15.9844 23.08 18.1704 20.7526 18.9914C20.0706 19.2319 19.6696 19.2958 18.5691 19.339C17.1243 19.3956 16.4658 19.2874 15.2528 18.7937C12.2659 17.5783 10.1837 14.1255 10.4376 10.8087C10.8118 5.92067 15.0706 2.49635 19.6726 3.38338ZM41.8526 4.26239C44.2905 4.89349 46.0082 7.02604 46.1683 9.62009C46.3924 13.2491 43.2634 16.3133 39.8417 15.8159C37.82 15.5219 36.198 14.2962 35.3565 12.4264C34.3382 10.164 34.7926 7.59801 36.5268 5.81756C37.9451 4.36138 39.9612 3.77263 41.8526 4.26239ZM42.4524 19.31C46.8916 20.0932 50.5155 23.5488 51.6012 28.034C51.7938 28.8293 51.809 29.0188 51.692 29.161C51.566 29.314 50.6597 29.3318 43.0343 29.3318H34.5174L33.9754 28.4381C33.2489 27.2407 32.5395 26.2996 31.65 25.354C31.2443 24.9226 30.9361 24.508 30.9651 24.4326C31.0949 24.0961 32.0721 22.9105 32.7538 22.2626C35.3673 19.7787 38.9416 18.6906 42.4524 19.31ZM21.3148 22.9845C27.2328 24.3318 31.7283 28.8369 33.0888 34.7836C33.3193 35.7912 33.3229 35.8694 33.1564 36.2212C33.0595 36.4259 32.8559 36.6409 32.7039 36.6992C32.529 36.7661 27.1793 36.805 18.1281 36.805H3.82854L3.50022 36.4742C3.19275 36.1644 3.17609 36.1067 3.23887 35.5684C3.40228 34.1682 4.28307 31.7862 5.23116 30.1806C7.50545 26.3293 11.2364 23.7384 15.7245 22.8938C16.8531 22.6814 20.2236 22.7361 21.3148 22.9845Z" fill="#E8D106"/>
</svg>
