<svg width="46" height="46" viewBox="0 0 46 46" fill="none" xmlns="http://www.w3.org/2000/svg">
<path fill-rule="evenodd" clip-rule="evenodd" d="M3.45968 0.1484C3.17525 0.224882 2.72243 0.404876 2.45343 0.548545C1.82686 0.882942 0.886446 1.82278 0.552944 2.44787C-0.0349008 3.54968 -0.000496525 2.26826 0.000749316 22.9952C0.00170765 38.7999 0.0237496 42.0072 0.134246 42.4073C0.639674 44.2378 2.0584 45.5605 3.87685 45.8968C4.27417 45.9702 10.077 46.001 23.3288 46C39.9357 45.9987 42.2895 45.9809 42.836 45.8521C43.8946 45.6025 44.7229 45.0082 45.3394 44.056C46.0264 42.9947 45.9999 43.5293 45.9999 30.7325C45.9999 23.4453 45.9648 19.1024 45.9033 18.7781C45.6115 17.2388 44.424 15.967 42.8996 15.5611C42.5306 15.4628 41.6268 15.4294 39.3154 15.4286L36.2248 15.4274V9.64416C36.2248 3.4777 36.2313 3.57403 35.7421 2.54486C35.4297 1.88795 34.5192 0.946965 33.8559 0.595795C32.6466 -0.0444371 33.7217 -0.0039912 18.1187 0.00300536C6.07643 0.00837258 3.89994 0.0299373 3.45968 0.1484ZM32.8539 2.11203C33.4852 2.42745 33.8897 2.84552 34.2356 3.53991C34.4518 3.97408 34.4519 3.97551 34.4794 9.7008L34.5069 15.4274H33.5929H32.679V10.4867C32.679 4.95062 32.6934 5.0756 32.0315 4.88401C31.7792 4.81098 27.5839 4.78855 17.8988 4.80849L4.12477 4.83676L3.85912 5.10244L3.59337 5.36821L3.56749 12.0505C3.54852 16.9476 3.57123 18.8045 3.6526 19.0009C3.90397 19.6079 4.61429 19.7405 5.08617 19.2685L5.3663 18.9884V12.7991V6.60986H18.1122H30.8581V11.0049V15.4L30.1154 15.4524C28.3546 15.5766 27.0213 16.5728 26.4404 18.1982C26.2267 18.7961 26.2119 18.99 26.1645 21.8258L26.1143 24.8219L23.2878 21.9936L20.4614 19.1653H20.9712C21.4071 19.1653 21.5219 19.1246 21.7613 18.8852C22.3019 18.3445 22.0289 17.5364 21.2569 17.3915C21.0772 17.3578 20.2539 17.3442 19.4272 17.3613C17.9308 17.3921 17.9232 17.3934 17.6589 17.6577L17.3934 17.9232L17.3631 19.5631C17.3422 20.6887 17.3688 21.2905 17.4481 21.4818C17.704 22.0996 18.4103 22.2364 18.8863 21.7605C19.1256 21.521 19.1664 21.4062 19.1664 20.9702V20.4602L22.6643 23.9575L26.1622 27.4548V32.6548V37.8547H15.7643H5.3663V31.7639C5.3663 25.0197 5.3846 25.2234 4.75881 25.0168C4.38189 24.8924 4.06938 24.9827 3.78504 25.2983C3.59778 25.5061 3.59279 25.6647 3.56749 32.1855C3.54852 37.0766 3.57123 38.9315 3.6526 39.1279C3.89419 39.7113 3.14717 39.6758 15.1627 39.6758H26.1622L26.1652 40.6582C26.1692 42.0108 26.3081 42.961 26.5925 43.5822C26.7248 43.8712 26.8331 44.1247 26.8331 44.1456C26.8331 44.1664 21.6904 44.172 15.4049 44.158L3.97671 44.1325L3.42911 43.8635C3.12359 43.7134 2.71361 43.4039 2.50192 43.1633C1.76256 42.3233 1.82035 44.0422 1.8214 22.9101L1.82236 3.97417L2.04997 3.48518C2.33986 2.86249 2.86513 2.33717 3.48776 2.04725L3.97671 1.81962L18.1208 1.81866L32.265 1.8177L32.8539 2.11203ZM43.082 17.5864C43.3721 17.7658 43.6613 18.0549 43.8401 18.344C44.1063 18.7746 44.1319 18.8937 44.1646 19.851L44.2002 20.8905H36.0917H27.9831V20.0911C27.9831 18.7026 28.3572 17.9404 29.2595 17.4908L29.7535 17.2445L36.1832 17.2705L42.6129 17.2964L43.082 17.5864ZM33.2146 18.5018C32.8785 18.9012 32.8895 19.2947 33.2466 19.6519L33.5267 19.9321H36.1131H38.6994L38.9475 19.6372C39.2152 19.3191 39.2612 18.9883 39.0842 18.6558C38.8528 18.2213 38.7979 18.2131 36.0656 18.21L33.4627 18.2069L33.2146 18.5018ZM4.00066 21.4732C3.73712 21.6268 3.5213 22.1228 3.59308 22.4104C3.86477 23.4993 5.3663 23.3057 5.3663 22.1818C5.3663 21.8104 4.88674 21.3689 4.48721 21.3726C4.31184 21.3742 4.09286 21.4195 4.00066 21.4732ZM44.179 30.9061V39.1007H36.0811H27.9831V34.1895V29.2783L30.189 31.4819L32.395 33.6856L31.8376 33.7335C31.5311 33.7598 31.1674 33.8554 31.0296 33.9459C30.5334 34.2715 30.6065 35.1319 31.1543 35.4152C31.5374 35.6134 34.6789 35.6155 35.0609 35.4179C35.4972 35.1922 35.554 34.9258 35.554 33.1012C35.554 31.2407 35.4895 30.9739 34.9898 30.7669C34.2791 30.4724 33.7341 30.9692 33.7335 31.9119L33.7331 32.4384L30.8581 29.5643L27.9831 26.6903V24.7008V22.7115H36.0811H44.179V30.9061ZM19.1141 40.8695C18.9446 41.0389 18.8789 41.2094 18.8789 41.4793C18.8789 42.5026 20.317 42.7117 20.5938 41.7287C20.6943 41.3724 20.5194 40.89 20.2346 40.7376C19.8882 40.5522 19.3705 40.6131 19.1141 40.8695ZM44.1606 41.7124C44.1155 42.6804 43.9946 43.0082 43.5008 43.5021C42.8339 44.1691 43.266 44.1295 36.3206 44.1606C31.7706 44.181 29.9325 44.1581 29.6403 44.0774C29.1313 43.9369 28.5161 43.4152 28.2521 42.9002C28.0475 42.5009 27.8978 41.2822 28.0158 40.9749C28.0669 40.8417 28.9312 40.8259 36.1374 40.8259H44.2019L44.1606 41.7124ZM35.6603 41.7216C35.4046 41.8688 35.1792 42.2219 35.174 42.484C35.168 42.7883 35.4407 43.1915 35.7348 43.3133C36.608 43.6751 37.3897 42.6366 36.7759 41.9302C36.5169 41.6321 35.988 41.5332 35.6603 41.7216Z" fill="#0295B6"/>
</svg>
