<svg width="45" height="51" viewBox="0 0 45 51" fill="none" xmlns="http://www.w3.org/2000/svg">
<path fill-rule="evenodd" clip-rule="evenodd" d="M21.9865 1.14492L20.8137 2.28984L23.4149 4.81847C25.2307 6.58365 25.9362 7.33079 25.7517 7.293C25.6063 7.26316 24.812 7.18739 23.9866 7.12451C17.8376 6.65612 11.4671 8.91106 6.93699 13.1598C3.36686 16.5081 1.14484 20.592 0.251167 25.4484C-0.0564886 27.1206 -0.0871591 30.5644 0.190461 32.2707C1.96099 43.1513 11.2987 51 22.4731 51C34.1155 51 43.7206 42.469 44.8901 31.0898C44.9505 30.5017 45 29.8165 45 29.567V29.1134H43.3305H41.6609L41.5319 30.5329C41.1695 34.5172 39.7914 37.8388 37.2075 40.9564C34.5224 44.196 30.6641 46.4544 26.2164 47.3899C24.8792 47.6712 21.5588 47.7848 20.1116 47.5988C11.2058 46.4541 4.41758 39.674 3.44258 30.9499C2.87666 25.8857 4.63492 20.5711 8.16899 16.6633C11.2032 13.3082 15.5332 11.0984 20.1951 10.5256C21.5489 10.3593 24.5626 10.4446 25.8912 10.6868L26.9296 10.8762L23.8548 13.879L20.7799 16.8819L21.9713 18.0415L23.1627 19.2012L28.1059 14.375L33.0491 9.54877L28.1573 4.77438C25.4668 2.1485 23.2416 0 23.2124 0C23.1833 0 22.6316 0.515162 21.9865 1.14492Z" fill="#D94EDC"/>
</svg>
