<svg width="46" height="46" viewBox="0 0 46 46" fill="none" xmlns="http://www.w3.org/2000/svg">
<path fill-rule="evenodd" clip-rule="evenodd" d="M32.7869 0.0351289C31.1134 0.290335 29.9867 0.644048 28.6301 1.33996C25.4855 2.95302 23.2132 5.95273 22.444 9.50655C22.1901 10.6792 22.1901 13.1004 22.444 14.273C23.4612 18.9724 27.0518 22.5612 31.7438 23.5683C32.7983 23.7947 35.2379 23.8218 36.2641 23.6186C40.6125 22.7577 44.1107 19.6998 45.44 15.598C45.8839 14.2281 46 13.4592 46 11.8898C46 10.3204 45.8839 9.55153 45.44 8.18156C44.1576 4.22448 40.8246 1.19915 36.7111 0.258757C35.8871 0.0702816 33.462 -0.0678472 32.7869 0.0351289ZM35.7792 1.71393C40.0217 2.4426 43.3439 5.62652 44.2067 9.79065C44.8845 13.0618 43.9017 16.5685 41.6505 18.9118L41.0491 19.5379L40.7821 18.852C40.1554 17.2419 38.9047 15.8763 37.3569 15.1119C36.1439 14.513 35.4009 14.334 34.1281 14.334C32.8579 14.334 32.1156 14.5123 30.8994 15.1096C29.3687 15.8613 28.1565 17.1676 27.5158 18.7559L27.2024 19.533L26.6033 18.9093C22.7829 14.9326 22.9411 8.4038 26.9518 4.52487C29.3576 2.19822 32.5956 1.16717 35.7792 1.71393ZM18.5302 2.9263C18.3188 3.19501 18.31 3.52341 18.494 4.29836C18.5372 4.48018 18.4415 4.53063 17.6064 4.76637C14.7484 5.5733 11.7723 7.33233 9.59009 9.50456C7.37735 11.7071 5.85676 14.1723 4.90323 17.1031C4.67216 17.8132 4.47267 18.4099 4.45975 18.429C4.44694 18.4483 4.11999 18.4076 3.73333 18.3385C3.16517 18.237 2.98496 18.2371 2.79411 18.3393C2.56154 18.4637 2.33732 18.8264 2.33732 19.0784C2.33732 19.249 4.08045 21.9338 4.29464 22.0931C4.38644 22.1614 4.5744 22.2172 4.71229 22.2172C4.99493 22.2172 7.6585 20.498 7.80772 20.2193C8.1309 19.6158 7.73341 19.1241 6.77641 18.9437C6.40992 18.8745 6.09271 18.7896 6.07145 18.7549C5.97548 18.5979 6.77422 16.4759 7.40348 15.2164C8.32551 13.3709 9.17651 12.1971 10.6796 10.6982C12.1933 9.18858 13.3711 8.33717 15.2027 7.42875C16.5082 6.7813 18.4244 6.07825 18.6651 6.15848C18.7244 6.17824 18.8276 6.54864 18.8946 6.9816C18.9934 7.6216 19.0647 7.81057 19.2758 7.99219C19.5756 8.25028 19.8887 8.27729 20.1841 8.07044C20.4425 7.88951 22.0661 5.65552 22.2055 5.28919C22.3773 4.83707 22.1422 4.55773 20.7661 3.57961C19.7104 2.82939 19.4078 2.66107 19.1093 2.65819C18.8271 2.65551 18.6952 2.71658 18.5302 2.9263ZM32.9471 4.10263C30.4282 4.77977 28.8697 7.38675 29.5116 9.84993C30.1762 12.4005 32.7805 13.9738 35.2664 13.3266C37.8107 12.6641 39.392 10.0587 38.7485 7.58932C38.0778 5.01552 35.4428 3.43175 32.9471 4.10263ZM35.4693 5.84111C36.0968 6.13773 36.6953 6.73235 37.0098 7.37155C37.3563 8.0758 37.3544 9.33217 37.0058 10.0527C36.6994 10.6859 36.1027 11.2823 35.4693 11.5885C34.7484 11.937 33.4915 11.9388 32.7869 11.5925C32.1536 11.2813 31.5578 10.6858 31.2465 10.0527C30.9 9.34846 30.9019 8.09209 31.2505 7.37155C31.6614 6.52232 32.4678 5.86028 33.383 5.62096C33.9156 5.48174 34.9371 5.58948 35.4693 5.84111ZM35.7177 16.1624C37.3728 16.6434 38.7703 17.9643 39.3442 19.5902C39.7241 20.6665 39.7456 20.6244 38.5242 21.1991C37.1868 21.8284 36.0766 22.1127 34.6668 22.187C32.8276 22.2839 31.4122 21.9928 29.6327 21.1514C28.5406 20.6349 28.5527 20.6579 28.8702 19.7066C29.8165 16.8725 32.8169 15.3194 35.7177 16.1624ZM10.5334 22.2788C8.84172 22.5367 7.58886 22.9371 6.25613 23.6458C3.15822 25.2931 0.949353 28.2444 0.190447 31.7502C-0.0634823 32.9228 -0.0634823 35.344 0.190447 36.5167C1.10344 40.7345 4.14582 44.1391 8.16467 45.4402C9.53525 45.8839 10.3045 46 11.8746 46C12.7021 46 13.611 45.9414 14.0105 45.8623C18.928 44.8886 22.6346 41.1838 23.6086 36.2684C23.8122 35.2413 23.7848 32.8038 23.5578 31.7502C22.5606 27.121 19.0486 23.552 14.4576 22.5024C13.6336 22.3139 11.2084 22.1758 10.5334 22.2788ZM14.2785 24.0926C18.1628 25.1041 20.867 27.8049 21.9273 31.7316C22.094 32.3492 22.1343 32.7984 22.1382 34.0838C22.1426 35.5033 22.1148 35.7784 21.8767 36.6656C21.5758 37.7873 21.0174 39.0185 20.3718 39.9839C19.8727 40.7302 18.7295 41.904 18.7295 41.67C18.7295 41.5858 18.5345 41.1168 18.2964 40.6277C17.0564 38.0811 14.6782 36.5862 11.8746 36.5909C8.86059 36.5961 6.34346 38.3194 5.20187 41.1591L4.95251 41.7793L4.30537 41.1092C1.85648 38.5737 0.935643 34.5606 2.00987 31.1047C3.18325 27.3298 6.44698 24.5084 10.3347 23.9083C11.2747 23.7632 13.394 23.8622 14.2785 24.0926ZM39.6302 24.7412C38.8595 25.2556 38.2003 25.7508 38.1654 25.8417C37.9215 26.4771 38.2857 26.9022 39.2263 27.0795C39.5928 27.1487 39.91 27.2336 39.9312 27.2683C40.0272 27.4253 39.2285 29.5474 38.5992 30.8068C36.8173 34.3733 34.0096 37.1131 30.4026 38.8049C29.2691 39.3365 27.5287 39.9359 27.3345 39.8615C27.2597 39.8328 27.1531 39.4962 27.0849 39.0731C26.9496 38.2345 26.797 37.9584 26.4159 37.8629C25.935 37.7423 25.6652 37.9681 24.7655 39.2442C23.7186 40.7291 23.6535 40.8585 23.7828 41.1986C23.877 41.4461 26.0372 43.1177 26.5859 43.3676C26.9031 43.5121 27.3038 43.3671 27.5266 43.0273C27.665 42.8163 27.675 42.6855 27.5902 42.2036C27.5349 41.8885 27.5191 41.6045 27.5553 41.5725C27.5913 41.5404 28.1574 41.3462 28.8131 41.1409C34.6073 39.3256 39.36 34.5665 41.1499 28.7872L41.5294 27.562L41.9268 27.6188C42.1454 27.6501 42.4898 27.7042 42.6922 27.7392C43.013 27.7945 43.0989 27.7638 43.3628 27.5001C43.5292 27.3337 43.6654 27.1119 43.6654 27.0072C43.6654 26.7891 42.0604 24.242 41.7577 23.9798C41.3885 23.66 41.0905 23.7667 39.6302 24.7412ZM10.6935 26.3463C8.17461 27.0234 6.61616 29.6304 7.25804 32.0936C7.92267 34.6441 10.5269 36.2175 13.0129 35.5702C15.5571 34.9078 17.1384 32.3023 16.495 29.833C15.8243 27.2591 13.1892 25.6754 10.6935 26.3463ZM13.2157 28.0839C13.8437 28.3818 14.4421 28.9765 14.7562 29.6152C14.9579 30.0251 15.0003 30.259 14.9996 30.9558C14.9988 31.7251 14.969 31.8552 14.6619 32.4255C14.2867 33.1226 13.9746 33.4238 13.2264 33.8114C12.7964 34.0341 12.5902 34.0747 11.8746 34.0773C11.1747 34.0798 10.9451 34.0385 10.5334 33.8361C7.95088 32.5668 8.16597 28.924 10.8816 27.9377C11.5086 27.71 12.5672 27.7763 13.2157 28.0839ZM13.4641 38.406C15.1192 38.887 16.5167 40.2079 17.0906 41.8338C17.4705 42.9101 17.492 42.868 16.2706 43.4428C14.9332 44.0721 13.823 44.3564 12.4132 44.4306C11.1345 44.4981 10.0099 44.3601 8.84688 43.9934C7.88899 43.6914 6.52327 43.0224 6.44419 42.8165C6.36223 42.603 6.78416 41.3595 7.11607 40.8364C8.49609 38.6612 11.0188 37.6954 13.4641 38.406Z" fill="#81BB05"/>
</svg>
