<svg width="46" height="46" viewBox="0 0 46 46" fill="none" xmlns="http://www.w3.org/2000/svg">
<path fill-rule="evenodd" clip-rule="evenodd" d="M29.5429 0.0972627C29.2956 0.161807 28.8707 0.328111 28.5986 0.466907C28.3266 0.605614 23.525 3.38361 17.9284 6.6403L7.75267 12.5614H5.64679C3.34297 12.5614 2.96733 12.6191 2.11435 13.1031C1.13583 13.6583 0.299573 14.8421 0.0908466 15.9672C-0.0289397 16.6129 -0.0309181 41.8006 0.0887782 42.531C0.364053 44.2115 1.79222 45.6392 3.47346 45.9143C3.80089 45.968 10.8817 46.0006 22.0338 46C41.8333 45.9988 40.7854 46.0277 41.784 45.4566C42.6912 44.9377 43.3602 44.1276 43.7567 43.0677C43.9023 42.6786 43.9239 42.2335 43.9553 38.9811L43.9905 35.3314L44.303 35.1824C44.8002 34.9454 45.4815 34.2471 45.7514 33.6979L46 33.1921V29.2817V25.3714L45.7599 24.8593C45.4776 24.2574 44.8839 23.6317 44.3632 23.3876L43.9929 23.2139L43.9543 19.5732C43.9133 15.7059 43.9062 15.6382 43.4435 14.7316C43.1863 14.2276 42.3221 13.3762 41.768 13.081C41.5178 12.9477 41.0342 12.7656 40.6933 12.6763L40.0735 12.5141L37.0373 7.21148C33.9811 1.87402 33.5633 1.23388 32.7885 0.701082C31.9194 0.103286 30.5181 -0.157407 29.5429 0.0972627ZM31.3399 2.27378C31.7033 2.4462 32.3151 3.04121 32.2198 3.12948C32.1819 3.16454 28.5265 5.30114 24.0967 7.87742L16.0425 12.5614H14.029C12.8071 12.5614 12.0491 12.5291 12.101 12.4791C12.2923 12.2946 29.5502 2.30192 29.8923 2.1775C30.3159 2.02342 30.893 2.06181 31.3399 2.27378ZM33.8432 5.84231L34.3464 6.71922L34.1479 6.84517C34.0387 6.91438 31.7854 8.22891 29.1404 9.76627L24.3316 12.5614H22.3134C21.2034 12.5614 20.3237 12.5329 20.3587 12.4979C20.4403 12.4164 33.3097 4.9235 33.327 4.94741C33.3341 4.9573 33.5664 5.36002 33.8432 5.84231ZM36.5055 10.5039C37.1028 11.5477 37.5916 12.4377 37.5916 12.4816C37.5916 12.5271 35.6494 12.5614 33.0801 12.5614C30.5988 12.5614 28.593 12.5371 28.6229 12.5072C28.7184 12.4117 35.2836 8.6061 35.3529 8.6061C35.3895 8.6061 35.9082 9.4601 36.5055 10.5039ZM40.3922 14.7334C40.8576 14.8727 41.4447 15.3887 41.6487 15.8375C41.8001 16.1709 41.8145 16.4934 41.8163 19.5957L41.8183 22.9892L38.4684 22.9899C36.5754 22.9902 34.867 23.0313 34.5402 23.0843C32.2843 23.4502 30.3237 25.1563 29.6167 27.369C28.5501 30.7066 30.4475 34.2518 33.8583 35.2946C34.5611 35.5095 34.6682 35.5158 38.1986 35.5531L41.8183 35.5914V38.9847C41.8183 42.3631 41.8174 42.3798 41.6091 42.7742C41.3318 43.2992 40.7712 43.7167 40.1789 43.8392C39.8436 43.9086 34.4315 43.9303 21.674 43.9134C4.27869 43.8904 3.63209 43.8836 3.3284 43.722C2.88784 43.4874 2.53558 43.1416 2.30842 42.7209L2.11435 42.3613V29.2817C2.11435 16.6185 2.11975 16.1912 2.28495 15.8588C2.51022 15.4053 2.92534 14.9997 3.37139 14.7972C3.7178 14.6399 4.49983 14.6329 21.8884 14.631C35.4114 14.6295 40.1326 14.6556 40.3922 14.7334ZM43.2487 25.1741C43.4172 25.2332 43.6398 25.3956 43.7433 25.5352C43.9268 25.7824 43.9316 25.8784 43.9316 29.2297C43.9316 32.0792 43.909 32.7127 43.7999 32.9164C43.532 33.4171 43.5342 33.4169 39.043 33.4169C34.4488 33.4169 34.3246 33.4032 33.3739 32.7934C31.0951 31.3317 30.7588 28.2097 32.674 26.2952C33.2027 25.7668 34.2109 25.2508 34.9157 25.1481C35.7299 25.0293 42.8993 25.0518 43.2487 25.1741ZM34.6675 27.4034C34.17 27.6662 33.937 27.8992 33.7164 28.3548C33.4653 28.8734 33.4609 29.6641 33.7065 30.1454C34.0818 30.8806 34.629 31.2525 35.4445 31.3264C35.8878 31.3666 36.0411 31.337 36.4649 31.1298C37.798 30.4778 38.0661 28.7541 36.9928 27.7358C36.4212 27.1935 35.354 27.041 34.6675 27.4034Z" fill="black"/>
</svg>
