<svg width="37" height="37" viewBox="0 0 37 37" fill="none" xmlns="http://www.w3.org/2000/svg">
<path fill-rule="evenodd" clip-rule="evenodd" d="M1.33825 0.0447588C0.838596 0.198855 0.394876 0.574504 0.134737 1.06357C0.00774267 1.30235 0 1.56053 0 5.5511V9.7853L0.197547 10.1215C0.420203 10.5003 0.747131 10.8014 1.1216 10.9725C1.3478 11.0758 2.08314 11.0881 7.99593 11.0881H14.617L14.9896 10.8916C15.1945 10.7835 15.4643 10.5718 15.589 10.4211C16.0299 9.88895 16.0348 9.82938 16.0123 5.36169C15.9922 1.37256 15.9897 1.31292 15.8354 1.02738C15.651 0.686114 15.2962 0.336955 14.9426 0.148841C14.7015 0.0205117 14.3742 0.0134908 8.10448 0.00140347C4.48279 -0.00554496 1.43797 0.0139975 1.33825 0.0447588ZM14.5864 1.4199L14.7979 1.63146V5.47677C14.7979 9.71459 14.8038 9.65719 14.3551 9.81368C14.1938 9.86992 12.2915 9.89387 7.98284 9.89387C1.41741 9.89387 1.46119 9.89619 1.27211 9.54283C1.21893 9.44338 1.19396 8.15691 1.19396 5.51412V1.63146L1.40548 1.4199L1.61699 1.20833H7.99593H14.3749L14.5864 1.4199ZM18.2701 2.05807C17.1022 2.66837 16.9132 4.17437 17.8937 5.05849C18.3541 5.47351 18.729 5.5511 20.2744 5.5511H21.5999V6.16633V6.78155H21.4072C21.1126 6.78155 20.6215 7.10495 20.4877 7.38715C20.3402 7.69802 20.3362 8.17262 20.4784 8.47248C20.5382 8.5985 21.1024 9.21626 21.7323 9.84538C22.9858 11.0973 23.1462 11.1936 23.7345 11.0462C23.9738 10.9862 24.2167 10.7765 25.1354 9.83662C26.3728 8.5707 26.5652 8.27344 26.4865 7.74862C26.4202 7.30602 26.0131 6.87869 25.5939 6.81159L25.2903 6.76302V5.72633C25.2903 5.1562 25.2537 4.51709 25.2089 4.3061C25.0106 3.37197 24.3775 2.56747 23.5008 2.13551L23.0145 1.89594L20.8394 1.87401L18.6642 1.85208L18.2701 2.05807ZM22.8685 3.19508C23.2821 3.36792 23.5905 3.64665 23.8133 4.04894L24.024 4.42922L24.0446 5.98538C24.0568 6.90786 24.0968 7.60458 24.143 7.69643C24.2448 7.89902 24.5035 8.01201 24.866 8.01201H25.1585L24.306 8.92001L23.4537 9.82801L22.5611 8.9381L21.6685 8.04819L22.0671 8.01121C22.3508 7.98494 22.513 7.92703 22.6298 7.81043C22.7815 7.65879 22.7956 7.57215 22.8178 6.65569C22.831 6.11074 22.8207 5.52389 22.7948 5.35162C22.7469 5.03156 22.4532 4.61806 22.1508 4.44456C22.0498 4.38666 21.4605 4.34454 20.4176 4.32065L18.8373 4.28446L18.6628 4.08136C18.4348 3.81595 18.436 3.49784 18.666 3.26789L18.8436 3.0902H20.7306C22.2146 3.0902 22.6712 3.11256 22.8685 3.19508ZM4.01606 3.76289C3.63341 3.95651 3.56771 4.45643 3.88588 4.7529C4.04008 4.89665 4.12539 4.89969 7.99695 4.89969H11.9506L12.0996 4.73683C12.1815 4.6473 12.2703 4.50232 12.2969 4.41474C12.3619 4.19992 12.1595 3.82521 11.9314 3.7385C11.6378 3.62682 4.23994 3.64962 4.01606 3.76289ZM4.01606 6.2238C3.6405 6.41379 3.56872 6.91314 3.87314 7.21764C4.01041 7.35494 4.12431 7.36059 6.7532 7.36059H9.49027L9.64765 7.1931C9.80236 7.02837 9.85258 6.70034 9.76003 6.4591C9.64266 6.15308 9.43144 6.13007 6.75132 6.13122C4.83758 6.13202 4.15159 6.15525 4.01606 6.2238ZM11.6996 13.0715C11.2651 13.2216 10.8799 13.5558 10.6488 13.9833C10.4936 14.2707 10.4924 14.3044 10.4924 18.507C10.4924 22.7179 10.4933 22.7428 10.65 23.0357C10.8785 23.4628 11.3269 23.8367 11.7676 23.9676C12.3238 24.1328 24.6353 24.1381 25.1899 23.9734C25.6248 23.8442 26.1061 23.4485 26.3239 23.0411C26.4842 22.7413 26.4843 22.7401 26.4843 18.507C26.4843 14.2961 26.4834 14.2712 26.3267 13.9784C26.24 13.8164 26.0384 13.5658 25.8787 13.4215C25.3215 12.918 25.5598 12.9335 18.4571 12.9362C12.4649 12.9384 12.0613 12.9465 11.6996 13.0715ZM25.1157 14.4036L25.2903 14.6066V18.507V22.4074L25.1157 22.6105L24.941 22.8136H18.4883H12.0357L11.861 22.6105L11.6864 22.4074V18.5191C11.6864 14.3082 11.6783 14.3967 12.074 14.2354C12.1593 14.2007 15.0893 14.1786 18.5851 14.1863L24.9411 14.2005L25.1157 14.4036ZM28.9303 14.9347C28.5652 15.0641 28.1232 15.4761 27.9287 15.8683C27.7394 16.2503 27.7369 17.0626 27.9241 17.4213C28.1073 17.7725 28.4567 18.1288 28.7998 18.3144C29.0652 18.4578 29.2143 18.4728 30.5908 18.4942L32.0923 18.5175V19.1183V19.719L31.8084 19.7644C31.4892 19.8154 31.1268 20.087 30.9681 20.3939C30.8247 20.6713 30.8345 21.1729 30.9888 21.4554C31.1828 21.8107 33.2516 23.8694 33.5341 23.9884C33.7027 24.0594 33.8881 24.0771 34.113 24.0435C34.415 23.9985 34.5225 23.917 35.3389 23.1144C36.5049 21.9681 36.9215 21.4682 36.9827 21.1422C37.0948 20.5444 36.6476 19.8709 36.0741 19.774L35.7827 19.7247V18.6852C35.7827 18.1134 35.7461 17.473 35.7013 17.262C35.4687 16.1666 34.6617 15.283 33.5873 14.9476C33.2198 14.8328 32.9089 14.8164 31.1994 14.8214C29.656 14.8259 29.1688 14.8502 28.9303 14.9347ZM33.264 16.1312C33.6238 16.2391 34.1493 16.6986 34.3563 17.0864C34.5036 17.3621 34.5187 17.512 34.5523 19.0294C34.5946 20.9373 34.5835 20.9068 35.2576 20.9672L35.6694 21.0041L34.8034 21.8951L33.9375 22.7862L33.0341 21.877L32.1306 20.9679H32.515C32.8434 20.9679 32.9302 20.9371 33.1109 20.7564L33.3224 20.5448L33.322 19.4716C33.3218 18.8814 33.2896 18.283 33.2503 18.142C33.1695 17.8509 32.8066 17.4677 32.5036 17.3534C32.3848 17.3086 31.6968 17.2766 30.8519 17.2766H29.4038L29.1922 17.065C28.9299 16.8026 28.9226 16.5607 29.1681 16.2688L29.3554 16.0461H31.1677C32.3475 16.0461 33.0791 16.0758 33.264 16.1312ZM14.5389 16.7279C14.2361 16.8597 14.0962 17.1971 14.2202 17.4965C14.2702 17.6174 14.3697 17.7477 14.4412 17.786C14.6161 17.8796 22.3605 17.8796 22.5354 17.786C22.7582 17.6667 22.8631 17.314 22.754 17.0505C22.5785 16.6268 22.5594 16.6249 18.4726 16.628C15.534 16.6302 14.7153 16.651 14.5389 16.7279ZM14.3655 19.3014C14.0389 19.6281 14.1566 20.1578 14.5894 20.3087C14.9542 20.4359 19.6537 20.4179 19.9643 20.2881C20.3728 20.1174 20.4495 19.6105 20.1173 19.2782C20.0101 19.171 19.7105 19.1584 17.2531 19.1584C14.6167 19.1584 14.5028 19.1641 14.3655 19.3014ZM22.4682 25.9566C22.0691 26.0393 21.6338 26.2957 21.3873 26.5933C20.9468 27.1251 20.9418 27.1851 20.9644 31.6524C20.9845 35.6415 20.987 35.7011 21.1412 35.9867C21.3257 36.328 21.6805 36.6771 22.034 36.8652C22.2758 36.9938 22.5917 37 28.9807 37C35.3698 37 35.6857 36.9938 35.9274 36.8652C36.281 36.6771 36.6358 36.328 36.8202 35.9867C36.9755 35.6993 36.9767 35.6656 36.9767 31.463V27.2288L36.7791 26.8926C36.5565 26.5137 36.2295 26.2127 35.8551 26.0416C35.6297 25.9387 34.8935 25.9247 29.1616 25.9151C25.6195 25.9091 22.6075 25.9277 22.4682 25.9566ZM35.3812 27.2226C35.5161 27.279 35.6615 27.3908 35.7046 27.4712C35.7577 27.5707 35.7827 28.8572 35.7827 31.5V35.3826L35.5712 35.5942L35.3597 35.8057H28.9807H22.6018L22.3903 35.5942L22.1788 35.3826V31.5443C22.1788 28.6683 22.201 27.6573 22.2675 27.5113C22.4469 27.1173 22.2958 27.1261 28.965 27.123C34.1274 27.1206 35.1762 27.1369 35.3812 27.2226ZM24.9132 29.7521C24.7071 29.9088 24.6199 30.2285 24.7184 30.4664C24.8926 30.8873 24.859 30.8839 28.9952 30.8836C32.6019 30.8834 32.7904 30.8768 33.008 30.7442C33.2921 30.5709 33.3768 30.2581 33.2211 29.957C33.1604 29.8396 33.058 29.7232 32.9935 29.6984C32.9291 29.6737 31.1126 29.6545 28.9567 29.6558C25.8556 29.6576 25.0112 29.6777 24.9132 29.7521ZM24.8543 32.2973C24.6281 32.5382 24.6231 32.9268 24.8436 33.1474C25.0032 33.3071 25.0283 33.3089 27.5535 33.3304C28.9553 33.3424 30.2097 33.3325 30.341 33.3084C30.5047 33.2783 30.6244 33.192 30.7225 33.0333C30.8873 32.7663 30.8567 32.5233 30.6271 32.2772L30.4751 32.1144H27.7506H25.0261L24.8543 32.2973Z" fill="#0E47DC"/>
</svg>
