<svg width="18" height="18" viewBox="0 0 18 18" fill="none" xmlns="http://www.w3.org/2000/svg">
<path d="M1.60577 4.73094L9 0.46188L16.3942 4.73094V13.2691L9 17.5381L1.60577 13.2691V4.73094Z" stroke="#410EAD" stroke-width="0.8"/>
<path fill-rule="evenodd" clip-rule="evenodd" d="M8.70744 6.00994C8.49357 6.05616 8.43777 6.07251 8.32588 6.12177C8.20464 6.17514 8.01954 6.27668 7.98923 6.30642C7.98092 6.31458 7.95687 6.33379 7.93579 6.34911C7.82671 6.42838 7.77461 6.47274 7.77461 6.48638C7.77461 6.49471 7.8099 6.53721 7.85305 6.58082L7.93149 6.66013L8.04684 6.56678C8.11029 6.51544 8.17993 6.46426 8.20161 6.45308C8.22328 6.44189 8.24416 6.42926 8.24798 6.42501C8.25481 6.41746 8.2891 6.40098 8.41506 6.34474C8.55292 6.28317 8.65119 6.25784 8.80821 6.24336C9.01574 6.22423 9.30083 6.24438 9.43137 6.28741C9.55419 6.32788 9.80695 6.44998 9.83519 6.48248C9.83901 6.4869 9.8625 6.50234 9.8874 6.51683C9.91229 6.53131 9.93264 6.54675 9.93264 6.55114C9.93264 6.55552 9.96124 6.58303 9.9962 6.61226L10.0598 6.66541L10.1424 6.57799C10.1878 6.52991 10.2249 6.48694 10.2247 6.48252C10.2245 6.47809 10.1822 6.44313 10.1307 6.40483C10.0792 6.36652 10.0339 6.33134 10.0301 6.32664C10.0099 6.30184 9.80511 6.18138 9.73188 6.15118C9.68532 6.132 9.6347 6.11111 9.61938 6.10477C9.54626 6.07453 9.41633 6.03521 9.34093 6.02053C9.23383 5.99965 8.7894 5.99224 8.70744 6.00994ZM8.77009 6.50379C8.556 6.55892 8.42621 6.61698 8.26228 6.73097C8.1263 6.82555 8.1158 6.83686 8.13856 6.86438C8.17053 6.90302 8.28232 7.01056 8.2906 7.01065C8.2949 7.01069 8.31096 6.99905 8.32629 6.98477C8.37291 6.94131 8.51573 6.8482 8.58213 6.81798C8.72995 6.75069 8.79022 6.73912 8.99285 6.73912C9.19107 6.73912 9.24576 6.74901 9.39662 6.81213C9.45544 6.83675 9.63568 6.95243 9.67233 6.98907C9.68423 7.00098 9.69837 7.01073 9.70373 7.01073C9.71834 7.01073 9.86303 6.85956 9.86303 6.84428C9.86303 6.83702 9.83954 6.81355 9.81082 6.79215C9.78211 6.77072 9.75548 6.74952 9.75165 6.74501C9.74132 6.73285 9.53076 6.6068 9.52078 6.6068C9.51606 6.6068 9.49246 6.59776 9.46833 6.58671C9.33007 6.5234 9.24522 6.50734 9.0207 6.50195C8.89818 6.49901 8.7854 6.49985 8.77009 6.50379ZM8.86755 7.00265C8.76888 7.02278 8.653 7.07056 8.57436 7.12354C8.47523 7.19033 8.47466 7.19403 8.54998 7.28014C8.58681 7.32224 8.62538 7.35718 8.63568 7.35781C8.64598 7.35844 8.67217 7.3463 8.69388 7.33083C8.76586 7.27956 8.91114 7.23359 9.00124 7.23359C9.08689 7.23359 9.2489 7.28578 9.28956 7.32648C9.3402 7.37713 9.35464 7.37398 9.4291 7.29612C9.46867 7.25474 9.50104 7.21224 9.50104 7.2017C9.50104 7.17572 9.37215 7.08908 9.27961 7.05284C9.19739 7.02063 9.02978 6.98207 8.98151 6.98424C8.96477 6.98499 8.91349 6.99328 8.86755 7.00265ZM8.93222 7.50612C8.8475 7.53274 8.76744 7.62444 8.76277 7.70021C8.75611 7.80778 8.76279 7.82926 8.8227 7.89272C8.88985 7.96383 8.92892 7.97817 9.02921 7.96852C9.14127 7.95775 9.2365 7.85038 9.2365 7.73481C9.2365 7.63746 9.16156 7.54114 9.05847 7.506C9.02349 7.49408 8.9944 7.48492 8.99386 7.48569C8.9933 7.48644 8.96557 7.49564 8.93222 7.50612ZM7.9556 7.74896C7.84457 7.75279 7.74433 7.7618 7.73284 7.76898C7.67723 7.80371 7.54904 7.94095 7.52415 7.99241C7.5003 8.04169 7.49615 8.07839 7.49615 8.24022C7.49615 8.35794 7.50256 8.44497 7.51298 8.46912C7.53965 8.53085 7.63307 8.63744 7.70325 8.6862L7.76765 8.73094H8.98726C10.2649 8.73094 10.23 8.73242 10.3063 8.67523C10.3293 8.65793 10.394 8.5908 10.4388 8.53767C10.4869 8.48057 10.5083 8.36092 10.5007 8.19151C10.4931 8.02018 10.4719 7.96754 10.3694 7.86493C10.2554 7.75087 10.2563 7.7511 9.89484 7.74032C9.71919 7.73509 9.55873 7.735 9.53827 7.74014C9.50157 7.74935 9.50104 7.75119 9.50104 7.86762V7.98575L9.80386 7.98608C10.1216 7.98643 10.2057 7.99625 10.2351 8.03639C10.2615 8.07257 10.2589 8.4153 10.232 8.45097C10.2028 8.48953 9.98565 8.49777 8.99982 8.4978C8.02742 8.49781 7.79922 8.48993 7.76439 8.45508C7.74421 8.4349 7.74051 8.4013 7.74019 8.23538C7.73968 7.9749 7.71307 7.98983 8.18185 7.98739L8.49859 7.98575V7.85965V7.73354L8.32804 7.73777C8.23423 7.74009 8.06664 7.74513 7.9556 7.74896ZM6.93228 8.00071C6.8021 8.00611 6.66436 8.01758 6.62618 8.02618C6.39578 8.07818 6.18936 8.15776 6.00058 8.26738C5.94635 8.29887 5.89886 8.32833 5.89503 8.33286C5.8912 8.33738 5.85048 8.36889 5.80453 8.40285C5.70906 8.47343 5.67292 8.50542 5.56758 8.61255C5.47162 8.71012 5.39454 8.79788 5.39413 8.81004C5.39395 8.81524 5.38568 8.82778 5.37574 8.8379C5.31351 8.90131 5.206 9.0907 5.13541 9.26125C5.02501 9.52805 5 9.66415 5 9.99847C5 10.4115 5.04897 10.5967 5.26247 10.9915C5.37245 11.1949 5.66216 11.5106 5.84886 11.6306C5.87043 11.6444 5.89987 11.6665 5.91431 11.6796C5.92875 11.6927 5.96278 11.7139 5.98994 11.7268C6.0171 11.7397 6.06979 11.7682 6.10702 11.7902C6.14425 11.8121 6.18227 11.8301 6.1915 11.8302C6.20073 11.8302 6.22603 11.8395 6.24771 11.8508C6.34831 11.9033 6.53849 11.9553 6.70482 11.9756C6.97038 12.0082 11.0167 12.0081 11.2809 11.9755C11.5622 11.9409 11.8634 11.8234 12.1103 11.6521C12.2466 11.5575 12.2799 11.5294 12.4109 11.3983C12.6814 11.1277 12.834 10.8634 12.9376 10.486C13.0113 10.2177 13.02 9.90993 12.9622 9.6259C12.8794 9.21979 12.7059 8.89458 12.4179 8.60557C12.2617 8.44887 12.0243 8.27181 11.8818 8.20578C11.7011 8.12203 11.6358 8.09763 11.5059 8.06548C11.3242 8.0205 11.1907 8.00302 10.9455 7.99206L10.7541 7.98351V8.10192C10.7541 8.24301 10.7306 8.23105 11.0325 8.24385C11.2272 8.2521 11.4436 8.28621 11.5755 8.32947C11.7057 8.37215 12.0091 8.53197 12.0716 8.59076C12.0803 8.59891 12.1265 8.64006 12.1744 8.68219C12.2222 8.72433 12.2684 8.76693 12.277 8.77688C12.2855 8.78682 12.3051 8.80876 12.3205 8.82563C12.3359 8.8425 12.3733 8.89078 12.4036 8.93291C12.4339 8.97504 12.4629 9.01265 12.468 9.01648C12.4952 9.03689 12.6548 9.37411 12.6773 9.45872C12.6839 9.48361 12.6961 9.5275 12.7043 9.55623C12.7737 9.79838 12.7728 10.2126 12.7022 10.4581C12.651 10.6362 12.5253 10.9146 12.4632 10.9874C12.4567 10.9951 12.4268 11.0345 12.3969 11.0751C12.343 11.1481 12.2819 11.2191 12.2464 11.25C12.2363 11.2588 12.2113 11.2825 12.1907 11.3028C12.1701 11.323 12.1188 11.365 12.0767 11.3961C12.0346 11.4272 11.9926 11.4593 11.9834 11.4673C11.9741 11.4753 11.9615 11.4819 11.9553 11.4819C11.9492 11.4819 11.9129 11.5025 11.8747 11.5277C11.8365 11.5529 11.7771 11.5851 11.7426 11.5993C11.7082 11.6134 11.6612 11.6327 11.6382 11.6422C11.6152 11.6517 11.5588 11.6703 11.5129 11.6836C11.4669 11.6968 11.4106 11.7142 11.3876 11.7222C11.3211 11.7455 10.6083 11.756 8.99285 11.7573C7.45786 11.7587 6.67263 11.7469 6.59813 11.7214C6.57516 11.7135 6.5313 11.6998 6.50067 11.6908C6.30822 11.6346 6.05451 11.5096 5.92712 11.4081C5.82288 11.3251 5.66456 11.1699 5.60829 11.0955C5.5865 11.0667 5.56355 11.0369 5.55729 11.0292C5.48071 10.9356 5.34104 10.6389 5.29125 10.464C5.26193 10.3611 5.22673 10.106 5.22673 9.99646C5.22673 9.83216 5.28284 9.5244 5.3381 9.3856C5.43189 9.15007 5.5245 8.99489 5.66935 8.8306C5.76052 8.7272 5.98413 8.52897 6.00963 8.52897C6.01659 8.52897 6.04847 8.51109 6.08048 8.48922C6.19253 8.41268 6.38068 8.33288 6.52852 8.2992C6.58212 8.28699 6.65375 8.27064 6.6877 8.26285C6.72164 8.25508 6.8579 8.24498 6.99052 8.24042L7.23162 8.23214V8.10895C7.23162 7.98971 7.23062 7.98583 7.20029 7.98833C7.18306 7.98975 7.06246 7.99532 6.93228 8.00071ZM10.7541 8.61386V8.73791L10.862 8.73803C11.0094 8.73818 11.2795 8.7631 11.3388 8.78202C11.5224 8.84049 11.6436 8.90065 11.7685 8.99521C11.8073 9.02466 11.9597 9.17832 11.9932 9.22189C12.0124 9.24677 12.039 9.28064 12.0524 9.29715C12.0658 9.31367 12.0768 9.3351 12.0768 9.34479C12.0768 9.35447 12.0817 9.36447 12.0877 9.36703C12.1102 9.37657 12.184 9.55107 12.2133 9.66417C12.2212 9.69482 12.2345 9.74569 12.2427 9.77722C12.2617 9.84962 12.2622 10.1475 12.2435 10.2213C12.1953 10.411 12.1669 10.4904 12.1063 10.6044C12.0798 10.6542 12.0542 10.698 12.0494 10.7019C12.0446 10.7057 12.0255 10.7308 12.007 10.7576C11.9365 10.8597 11.7674 11.0129 11.6545 11.0769C11.6264 11.0928 11.583 11.1174 11.558 11.1315C11.4467 11.1947 11.2868 11.2319 11.0698 11.2453C10.7854 11.2628 7.13884 11.2627 6.89747 11.2451C6.71821 11.2321 6.58368 11.2017 6.4589 11.1459C6.27668 11.0644 6.01394 10.826 5.9098 10.6476C5.85178 10.5482 5.80105 10.4207 5.75957 10.2701C5.74541 10.2187 5.73844 10.1293 5.73834 9.99847C5.73819 9.76599 5.76312 9.64778 5.85146 9.46221C5.9465 9.26258 6.0593 9.11929 6.20828 9.00896C6.23891 8.98629 6.27444 8.95833 6.28725 8.94684C6.30845 8.92783 6.43211 8.86251 6.50067 8.83414C6.65126 8.77181 6.86609 8.7391 7.13068 8.73824L7.23162 8.73791V8.61951V8.50112H7.04127C6.77047 8.50112 6.55288 8.54542 6.38244 8.63529C6.34803 8.65343 6.31534 8.66826 6.30977 8.66826C6.2952 8.66826 6.10507 8.79267 6.05547 8.83467C5.89052 8.97436 5.74391 9.15924 5.65177 9.34377C5.59122 9.46499 5.57556 9.50493 5.54516 9.61542C5.47151 9.88325 5.47154 10.0988 5.54529 10.3954C5.58402 10.5512 5.70151 10.7735 5.83238 10.9384C5.91746 11.0456 6.10581 11.2138 6.18682 11.2549C6.21394 11.2687 6.23927 11.2831 6.2431 11.2869C6.28179 11.3256 6.53059 11.4283 6.68167 11.468C6.77449 11.4924 6.88603 11.4935 9.02766 11.4912L11.2762 11.4889L11.4233 11.4372C11.6042 11.3737 11.7669 11.29 11.8888 11.1977C12.0337 11.0881 12.2995 10.78 12.2995 10.7217C12.2995 10.7121 12.3042 10.7021 12.31 10.6995C12.334 10.6889 12.4235 10.4792 12.4636 10.3397C12.495 10.2307 12.495 9.76648 12.4636 9.65603C12.3845 9.37759 12.2494 9.14712 12.0469 8.9452C11.9502 8.84879 11.7121 8.66826 11.6817 8.66826C11.678 8.66826 11.6353 8.64989 11.5867 8.62742C11.4031 8.54239 11.2301 8.50814 10.9246 8.49638L10.7541 8.48982V8.61386ZM8.3873 9.87774C8.37937 9.88038 8.37329 9.93335 8.37329 9.99962V10.1169H8.49163H8.60998V9.99909V9.88134L8.56473 9.87333C8.52105 9.86558 8.41609 9.8682 8.3873 9.87774ZM8.90584 9.87734C8.8762 9.88176 8.87451 9.88833 8.87451 9.99944V10.1169H8.9934H9.11228L9.10826 9.99498L9.10424 9.87311L9.0207 9.87288C8.97476 9.87276 8.92307 9.87476 8.90584 9.87734ZM9.38154 9.87891C9.37835 9.8821 9.37573 9.93694 9.37573 10.0008V10.1169H9.50104H9.62634V9.99847C9.62634 9.91434 9.6213 9.87936 9.60894 9.87763C9.57161 9.87238 9.38702 9.87343 9.38154 9.87891Z" fill="#410EAD"/>
</svg>
