<svg width="46" height="46" viewBox="0 0 46 46" fill="none" xmlns="http://www.w3.org/2000/svg">
<path fill-rule="evenodd" clip-rule="evenodd" d="M22.2634 0.115165C21.8072 0.258656 21.0291 1.06265 20.8892 1.53514C20.827 1.74513 20.7761 2.17097 20.7761 2.48151V3.0461L20.3135 2.99138C19.5879 2.90567 19.0432 3.1038 18.4955 3.65262C17.8537 4.29569 17.8015 4.52618 17.8015 6.71388C17.8015 8.14109 17.7759 8.53214 17.6853 8.4942C16.4529 7.97905 15.6285 8.08822 15.065 8.8412C14.8771 9.09219 14.8727 9.20748 14.8472 14.6327C14.8188 20.6281 14.8401 20.9571 15.3354 22.1733C15.5193 22.6252 15.5313 22.7139 15.4143 22.7587C15.0931 22.8817 14.9089 22.7569 13.857 21.7047L12.7507 20.5979L13.0218 20.012L13.293 19.4259V15.5718V11.7177L12.9458 11.0168C12.5277 10.1726 11.9894 9.64677 11.1252 9.23828L10.5043 8.94471H6.6465H2.78874L2.16778 9.23828C1.30355 9.64677 0.765323 10.1726 0.347198 11.0168L0 11.7177V15.5766V19.4356L0.347198 20.1364C0.765323 20.9807 1.30355 21.5065 2.16778 21.915L2.78874 22.2086H6.6465H10.5043L11.091 21.9382L11.6779 21.6679L12.4145 22.3986C12.8196 22.8005 13.1203 23.157 13.0826 23.1908C13.045 23.2247 12.7841 23.326 12.5029 23.4158C11.8448 23.626 11.121 23.984 10.844 24.2362C10.3451 24.6904 10.3648 24.3471 10.3648 32.6016C10.3648 41.3045 10.3077 40.674 11.1474 41.2304C11.9925 41.7903 13.8654 42.3378 15.8726 42.6119L16.3141 42.6723V44.3361V46H23.0071H29.7001V44.3361V42.6723L30.1416 42.6104C33.0523 42.2031 35.0945 41.4344 35.4933 40.5959C35.6356 40.2966 35.6494 39.5856 35.6494 32.5736V24.8795L35.439 24.5679C35.0682 24.019 34.3081 23.6143 32.8855 23.2086L32.306 23.0433L33.6259 21.8317L34.9458 20.62L35.6653 21.1006C37.3684 22.2381 39.4568 22.5428 41.3792 21.9344C42.4201 21.605 43.2077 21.1138 44.0624 20.261C44.9118 19.4134 45.4004 18.6364 45.7538 17.5708C45.9712 16.9156 46 16.6823 46 15.5766C46 14.471 45.9712 14.2376 45.7538 13.5824C45.4004 12.5169 44.9118 11.7399 44.0624 10.8923C43.2129 10.0447 42.4342 9.55717 41.3663 9.20452C40.7099 8.98775 40.4755 8.9589 39.3677 8.95872C38.2719 8.95853 38.0224 8.9884 37.4001 9.19441C36.2834 9.56394 35.5027 10.0477 34.6731 10.8844C33.8198 11.7449 33.332 12.5238 32.9835 13.5824C32.7752 14.2148 32.738 14.4957 32.7312 15.4839C32.7209 16.9922 32.981 17.948 33.729 19.1493L33.961 19.522L32.2721 21.0644C31.3432 21.9128 30.5712 22.5957 30.5565 22.5821C30.5419 22.5684 30.6122 22.349 30.7128 22.0943C31.1753 20.9234 31.1874 20.6991 31.1874 13.2956C31.1874 8.12848 31.1587 6.27219 31.0744 5.98734C30.9235 5.47784 30.1534 4.70946 29.6428 4.55892C29.1863 4.42434 28.6818 4.41386 28.3694 4.5324C28.1631 4.61059 28.1266 4.58425 27.974 4.24662C27.751 3.75317 27.1067 3.20035 26.5848 3.05445C26.3413 2.98646 25.9679 2.95984 25.7008 2.99138L25.2381 3.0461V2.48151C25.2381 1.69245 25.0809 1.25168 24.6152 0.734856C24.0136 0.0672112 23.1444 -0.161892 22.2634 0.115165ZM23.5226 1.70571L23.7508 1.93333V8.013V14.0926H23.0071H22.2634V8.013V1.93333L22.4917 1.70571C22.6355 1.56213 22.826 1.478 23.0071 1.478C23.1882 1.478 23.3788 1.56213 23.5226 1.70571ZM20.5479 4.67385L20.7761 4.90147V9.58147V14.2616L20.381 14.456C20.1637 14.5629 19.8814 14.7321 19.7536 14.8319L19.5212 15.0132L20.0325 15.5259L20.5439 16.0385L21.0011 15.8076L21.4583 15.5766H24.4919H27.5255L28.0233 15.8241L28.5211 16.0717L28.9711 15.5883C29.2187 15.3225 29.4212 15.0706 29.4212 15.0286C29.4212 14.9355 28.7586 14.4897 28.4416 14.3695L28.2128 14.2827V10.3341V6.38553L28.441 6.15791C28.7428 5.85665 29.17 5.85665 29.4719 6.15791L29.7001 6.38553L29.6987 13.2768C29.6976 18.9949 29.6742 20.2658 29.5615 20.743C29.4867 21.0593 29.1527 21.9972 28.8191 22.8272L28.2128 24.3363V25.4156V26.495L27.5853 26.5529C27.2402 26.5848 26.2363 26.6391 25.3543 26.6735L23.7508 26.7362V34.8985V43.0609L25.3543 42.9982C26.2363 42.9638 27.2402 42.9095 27.5853 42.8776L28.2128 42.8197V43.6678V44.5159H23.0071H17.8015V43.6678V42.8197L18.4289 42.8776C18.7741 42.9095 19.7779 42.9638 20.6599 42.9982L22.2634 43.0609V34.8985V26.7362L20.6599 26.6735C19.7779 26.6391 18.7741 26.5848 18.4289 26.5529L17.8015 26.495V25.4156V24.3363L17.1951 22.8272C16.8616 21.9972 16.5276 21.0593 16.4527 20.743C16.342 20.2743 16.3166 19.193 16.3155 14.8926L16.3141 9.61718L16.6162 9.67626C16.9709 9.74555 17.2962 9.96853 17.5633 10.3253C17.7475 10.5712 17.756 10.7137 17.7816 13.9776L17.8082 17.3741L18.6214 18.2145C19.7506 19.3817 20.0259 20.0214 20.0302 21.4897L20.0325 22.2549H20.7761H21.5198V21.4836C21.5198 19.8097 21.0472 18.5881 19.9434 17.4088L19.2888 16.7093V10.8054V4.90147L19.517 4.67385C19.6608 4.53026 19.8514 4.44614 20.0325 4.44614C20.2135 4.44614 20.4041 4.53026 20.5479 4.67385ZM26.4972 4.67385L26.7254 4.90147V9.49706V14.0926H25.9818H25.2381V9.49706V4.90147L25.4663 4.67385C25.6101 4.53026 25.8007 4.44614 25.9818 4.44614C26.1629 4.44614 26.3534 4.53026 26.4972 4.67385ZM10.3076 10.4952C10.8182 10.6457 11.5882 11.4141 11.7391 11.9236C11.8977 12.4594 11.8977 18.6939 11.7391 19.2297C11.5882 19.7392 10.8182 20.5075 10.3076 20.6581C9.77063 20.8163 3.52237 20.8163 2.98544 20.6581C2.47482 20.5075 1.70476 19.7392 1.55389 19.2297C1.3953 18.6939 1.3953 12.4594 1.55389 11.9236C1.69379 11.4511 2.47194 10.6471 2.92818 10.5036C3.40524 10.3536 9.80242 10.3463 10.3076 10.4952ZM38.6241 11.1708V11.8665H39.3677H40.1114V11.1708C40.1114 10.3609 40.1102 10.3616 41.0204 10.6684C42.4933 11.1646 43.7895 12.458 44.2868 13.9276C44.5942 14.8358 44.5949 14.8346 43.7832 14.8346H43.086V15.5766V16.3187H43.7832C44.5949 16.3187 44.5942 16.3175 44.2868 17.2257C43.7895 18.6953 42.4933 19.9887 41.0204 20.4849C40.1102 20.7916 40.1114 20.7924 40.1114 19.9825V19.2868H39.3677H38.6241V19.9825C38.6241 20.7924 38.6253 20.7916 37.715 20.4849C36.2422 19.9887 34.946 18.6953 34.4487 17.2257C34.1413 16.3175 34.1405 16.3187 34.9522 16.3187H35.6494V15.5766V14.8346H34.94H34.2307L34.2808 14.5332C34.4589 13.4613 35.1414 12.3707 36.1607 11.529C36.8098 10.993 37.8723 10.4995 38.4149 10.4819C38.6138 10.4755 38.6241 10.5092 38.6241 11.1708ZM7.39016 14.8346V16.3187H6.6465H5.90283V15.5766V14.8346H5.15917H4.41551V15.5766V16.3187H3.67184H2.92818V17.0607V17.8027H6.6465H10.3648V17.0607V16.3187H9.62116H8.87749V14.8346V13.3505H8.13383H7.39016V14.8346ZM38.6241 14.6279V15.9052L39.4611 16.7365L40.2982 17.5679L40.8305 17.0368L41.3628 16.5057L40.7371 15.8765L40.1114 15.2474V14.2989V13.3505H39.3677H38.6241V14.6279ZM16.2179 24.3822C16.2708 24.4809 16.3141 24.9627 16.3141 25.4531V26.3446L15.9655 26.2872C13.9122 25.9501 12.0381 25.4422 12.0381 25.2231C12.0381 25.0518 13.5227 24.5966 14.8776 24.3526C15.911 24.1665 16.1045 24.1708 16.2179 24.3822ZM31.9738 24.53C33.005 24.7639 33.9762 25.1001 33.9762 25.2231C33.9762 25.4422 32.102 25.9501 30.0487 26.2872L29.7001 26.3446V25.4531C29.7001 24.2423 29.7474 24.1685 30.471 24.2523C30.7843 24.2886 31.4606 24.4135 31.9738 24.53ZM12.4099 26.995C12.6911 27.1023 13.3395 27.2841 13.8507 27.3991L14.7803 27.6081L14.8042 34.2616L14.828 40.915L14.4324 40.8495C13.8072 40.7458 12.4835 40.3463 12.1775 40.1687L11.8986 40.007L11.8747 33.4034C11.8616 29.7715 11.8616 26.7999 11.8747 26.8C11.8879 26.8 12.1287 26.8877 12.4099 26.995ZM34.0613 40.0268C33.8815 40.2429 31.8167 40.895 31.303 40.8979C31.2101 40.8984 31.191 39.5392 31.21 34.2533L31.2339 27.6081L32.1635 27.396C32.6747 27.2794 33.3231 27.104 33.6043 27.0063L34.1156 26.8286L34.1395 33.3663C34.1564 38.0093 34.1337 39.9396 34.0613 40.0268ZM18.222 28.0031C18.9877 28.0599 19.8756 28.1287 20.1951 28.1561L20.7761 28.2059V34.8807V41.5555L20.1022 41.5049C18.2623 41.3667 16.9773 41.2553 16.6627 41.2068L16.3141 41.153V34.475V27.797L16.572 27.8485C16.7139 27.8768 17.4563 27.9463 18.222 28.0031ZM29.7001 34.4866V41.153L29.3515 41.2068C29.0369 41.2553 27.7519 41.3667 25.9121 41.5049L25.2381 41.5555V34.8807V28.2059L25.8191 28.1559C26.1387 28.1283 27.0485 28.0584 27.8409 28.0004C28.6334 27.9425 29.2993 27.8782 29.3205 27.8577C29.3418 27.8371 29.4359 27.8202 29.5297 27.8202C29.6933 27.8202 29.7001 28.0841 29.7001 34.4866ZM17.8015 34.8695V38.5797H18.5451H19.2888V34.8695V31.1593H18.5451H17.8015V34.8695ZM26.7254 34.8695V38.5797H27.4691H28.2128V34.8695V31.1593H27.4691H26.7254V34.8695Z" fill="#FF3465"/>
</svg>
