<svg width="18" height="18" viewBox="0 0 18 18" fill="none" xmlns="http://www.w3.org/2000/svg">
<path d="M1.60577 4.73094L9 0.46188L16.3942 4.73094V13.2691L9 17.5381L1.60577 13.2691V4.73094Z" stroke="#410EAD" stroke-width="0.8"/>
<path fill-rule="evenodd" clip-rule="evenodd" d="M5.53906 5.02262C5.4075 5.05567 5.30902 5.11209 5.20981 5.21129C5.10764 5.31347 5.04587 5.42598 5.01742 5.56178C5.00631 5.61481 5 5.86889 5 6.26361V6.88233H9H13V6.26361C13 5.86168 12.9938 5.61578 12.9823 5.56178C12.9247 5.29165 12.7083 5.07431 12.4406 5.01782C12.3143 4.99115 5.64591 4.99579 5.53906 5.02262ZM6.29728 5.9729C6.36661 6.00841 6.42188 6.09876 6.42188 6.17658C6.42188 6.29645 6.30636 6.41183 6.18634 6.41183C6.11367 6.41183 6.01714 6.35084 5.98277 6.2832C5.92506 6.16966 5.96128 6.04572 6.07177 5.97858C6.14658 5.93313 6.21617 5.93137 6.29728 5.9729ZM7.23478 5.9729C7.30411 6.00841 7.35938 6.09876 7.35938 6.17658C7.35938 6.29645 7.24386 6.41183 7.12384 6.41183C7.05117 6.41183 6.95464 6.35084 6.92027 6.2832C6.86256 6.16966 6.89878 6.04572 7.00927 5.97858C7.08408 5.93313 7.15367 5.93137 7.23478 5.9729ZM8.17228 5.9729C8.24161 6.00841 8.29688 6.09876 8.29688 6.17658C8.29688 6.29645 8.18136 6.41183 8.06134 6.41183C7.98867 6.41183 7.89214 6.35084 7.85777 6.2832C7.80006 6.16966 7.83628 6.04572 7.94677 5.97858C8.02158 5.93313 8.09117 5.93137 8.17228 5.9729ZM11.9223 5.9729C11.9916 6.00841 12.0469 6.09876 12.0469 6.17658C12.0469 6.2544 11.9916 6.34475 11.9223 6.38026C11.863 6.41061 11.8315 6.41183 11.1082 6.41183C10.3577 6.41183 10.3557 6.41174 10.2935 6.37667C10.1362 6.28796 10.1346 6.07329 10.2905 5.97858L10.3516 5.94149L11.1061 5.94141C11.8315 5.94133 11.863 5.94256 11.9223 5.9729ZM5 9.85354C5 11.6585 5.00494 12.3774 5.01772 12.4374C5.07517 12.7068 5.29092 12.9234 5.55936 12.981C5.67631 13.0061 12.3218 13.0064 12.4406 12.9813C12.7058 12.9253 12.9272 12.703 12.9827 12.4374C12.9949 12.3785 13 11.625 13 9.85354V7.35283H9H5V9.85354ZM9.81291 8.09014C9.88244 8.12575 9.9375 8.21605 9.9375 8.29447C9.9375 8.33673 8.61883 11.4595 8.5057 11.6851C8.46427 11.7677 8.38052 11.8226 8.29572 11.8226C8.18048 11.8226 8.0625 11.7032 8.0625 11.5867C8.0625 11.557 8.33723 10.8938 8.75955 9.90401C9.14291 9.00547 9.47211 8.23854 9.49108 8.19972C9.55327 8.0725 9.68853 8.02645 9.81291 8.09014ZM7.70353 8.79589C7.77247 8.8312 7.82812 8.92166 7.82812 8.99841C7.82812 9.10506 7.79166 9.14213 7.29447 9.54107C7.02939 9.75375 6.8125 9.93353 6.8125 9.94057C6.8125 9.94761 7.02939 10.1274 7.29447 10.3401C7.79166 10.739 7.82812 10.7761 7.82812 10.8827C7.82812 11.0499 7.63434 11.1681 7.49053 11.0887C7.46384 11.074 7.17056 10.8438 6.83878 10.5771C6.21758 10.0779 6.1875 10.0485 6.1875 9.94057C6.1875 9.83262 6.21758 9.80323 6.83878 9.304C7.17056 9.03737 7.46384 8.80715 7.49053 8.79243C7.55564 8.7565 7.62891 8.75769 7.70353 8.79589ZM10.5095 8.79243C10.5362 8.80715 10.8294 9.03737 11.1612 9.304C11.7824 9.80323 11.8125 9.83262 11.8125 9.94057C11.8125 10.0485 11.7824 10.0779 11.1612 10.5771C10.8294 10.8438 10.5362 11.074 10.5095 11.0887C10.3657 11.1681 10.1719 11.0499 10.1719 10.8827C10.1719 10.7761 10.2083 10.739 10.7055 10.3401C10.9706 10.1274 11.1875 9.94761 11.1875 9.94057C11.1875 9.93353 10.9706 9.75375 10.7055 9.54107C10.3572 9.26154 10.2164 9.13926 10.1977 9.09994C10.1033 8.9013 10.3198 8.68774 10.5095 8.79243Z" fill="#410EAD"/>
</svg>
