<svg width="73" height="60" viewBox="0 0 73 60" fill="none" xmlns="http://www.w3.org/2000/svg">
<path fill-rule="evenodd" clip-rule="evenodd" d="M3.38378 0.110332C2.03966 0.419187 0.646656 1.72605 0.240898 3.05877C-0.0794903 4.11057 -0.0806305 46.9503 0.239472 47.9878C0.577106 49.0818 1.37922 49.9857 2.51297 50.5498L3.49067 51.0363L14.8 51.0751C25.0741 51.1102 26.1094 51.1343 26.1094 51.3371C26.1094 51.6362 25.4059 57.207 25.3181 57.6039C25.2504 57.9099 25.2059 57.9167 23.2879 57.9167C21.1548 57.9167 20.806 58.0169 20.6356 58.6791C20.5314 59.084 20.8508 59.7851 21.1988 59.9153C21.5004 60.0282 51.5265 60.0282 51.8281 59.9153C52.1761 59.7851 52.4955 59.084 52.3913 58.6791C52.2209 58.0169 51.8721 57.9167 49.739 57.9167C47.8209 57.9167 47.7765 57.9099 47.7088 57.6039C47.621 57.207 46.9175 51.6362 46.9175 51.3371C46.9175 51.1343 47.9528 51.1102 58.2268 51.0751L69.5362 51.0363L70.5139 50.5498C71.2174 50.1998 71.6385 49.8736 72.0152 49.3869C73.0724 48.0211 72.9989 49.8025 72.9989 25.5394C72.9989 6.31021 72.9731 3.67314 72.779 3.03541C72.4696 2.01947 71.5376 0.955581 70.5066 0.441287L69.6699 0.023875L36.8086 0.0023304C16.9213 -0.0107354 3.72483 0.0319371 3.38378 0.110332ZM69.5916 2.35821C70.0379 2.58478 70.3125 2.85472 70.5404 3.29117L70.8611 3.90527V25.5156C70.8611 47.0887 70.8605 47.1271 70.5659 47.7207C70.3926 48.0698 70.0543 48.4466 69.7464 48.6333L69.2221 48.9513H36.5134H3.80479L3.28045 48.6333C2.9726 48.4466 2.63426 48.0698 2.46095 47.7207C2.16636 47.1271 2.16579 47.0887 2.16579 25.5156V3.90527L2.48646 3.29117C2.71436 2.85472 2.98899 2.58478 3.43523 2.35821L4.06346 2.03935H36.5134H68.9634L69.5916 2.35821ZM4.93854 4.74356L4.58865 5.08467V25.5238C4.58865 45.6897 4.59236 45.9664 4.87013 46.2374C5.26421 46.6217 5.67281 46.6929 7.1623 46.6371C8.32457 46.5935 8.49089 46.5536 8.73446 46.2602C9.1033 45.8158 9.0795 45.2439 8.67702 44.875C8.4182 44.6379 8.17264 44.5728 7.53685 44.5728H6.72647V25.5301V6.4873H33.8119H60.8976L61.2633 6.13063C61.5583 5.8429 61.6122 5.68834 61.5415 5.33139C61.4933 5.088 61.3186 4.77943 61.1534 4.64557C60.8696 4.41581 59.3206 4.40232 33.0707 4.40232H5.28829L4.93854 4.74356ZM64.3699 4.74356C63.921 5.18127 63.9126 5.78438 64.3499 6.18512C64.6087 6.42225 64.8542 6.4873 65.49 6.4873H66.3004V25.5301V44.5728H39.1605H12.0204L11.7251 44.9391C11.5627 45.1405 11.4297 45.3878 11.4297 45.4886C11.4297 45.8561 11.7546 46.3529 12.0934 46.5035C12.3441 46.6149 20.092 46.6578 39.9478 46.6578C69.3167 46.6578 68.0905 46.6851 68.3497 46.0261C68.3983 45.9024 68.4382 36.6399 68.4382 25.4429V5.08467L68.0883 4.74356C67.761 4.42415 67.6417 4.40232 66.2291 4.40232C64.8166 4.40232 64.6973 4.42415 64.3699 4.74356ZM20.0267 11.2395C19.856 11.32 19.6446 11.5545 19.5571 11.7605C19.2702 12.4359 19.5555 12.7841 21.3648 13.9662L23.046 15.0647L25.0249 21.8611C26.1134 25.5992 27.1226 28.8633 27.2676 29.1147L27.5315 29.5717L26.7255 31.1302C25.7666 32.984 25.6805 33.6429 26.2813 34.5283C26.6416 35.059 26.6457 35.0911 26.4493 35.8265C26.2929 36.4123 26.282 36.741 26.4004 37.3C27.0335 40.2885 31.0791 40.8726 32.5739 38.1913C32.9349 37.5438 32.9749 37.351 32.9255 36.4993L32.8699 35.538H37.6557H42.4416L42.3826 36.4417C42.3324 37.2097 42.3806 37.459 42.7034 38.1026C44.0427 40.7724 47.9942 40.4041 48.8562 37.5292C49.0738 36.8037 49.078 36.6397 48.8958 35.9531C48.7308 35.3313 48.7261 35.1217 48.8708 34.8412C49.0673 34.4602 48.9952 34.0685 48.6601 33.6962C48.4553 33.4688 47.7785 33.453 38.2729 33.453C31.4564 33.453 28.1047 33.4063 28.1047 33.3112C28.1047 33.2332 28.387 32.6211 28.7321 31.951L29.3596 30.7326L29.9079 30.7782C30.7742 30.8505 45.8923 29.0501 46.7037 28.778C47.6841 28.4493 48.9266 27.2335 49.2432 26.2932C49.3714 25.9118 49.8942 23.5392 50.4047 21.021C51.266 16.773 51.3171 16.4189 51.113 16.115C50.992 15.9349 50.7522 15.731 50.5799 15.6619C50.4077 15.5928 44.9756 15.313 38.5087 15.0401C25.4777 14.4904 24.9713 14.46 24.9645 14.2253C24.9618 14.136 24.8475 13.9318 24.7101 13.7716C24.3622 13.3656 20.8141 11.0722 20.5519 11.0837C20.4339 11.0888 20.1976 11.1589 20.0267 11.2395ZM29.9213 16.8306C29.9922 16.8998 30.6582 20.6013 30.6675 20.9779C30.6689 21.0351 29.8489 21.0821 28.8451 21.0821H27.0201L26.3653 18.8383L25.7105 16.5944L27.772 16.6696C28.9058 16.711 29.8729 16.7835 29.9213 16.8306ZM35.4802 17.0031L36.656 17.0923V19.0872V21.0821H34.7613H32.8666L32.5505 19.1709C32.3766 18.1198 32.2351 17.1816 32.2361 17.0859C32.2381 16.8887 33.536 16.8555 35.4802 17.0031ZM42.8776 17.3738C42.9045 17.4001 42.8515 18.2452 42.7597 19.2518L42.5928 21.0821H40.6933H38.7938V19.1145V17.1469L40.8112 17.2365C41.9207 17.2857 42.8506 17.3475 42.8776 17.3738ZM48.8629 17.6512C48.9072 17.6945 48.522 19.7197 48.2699 20.7694C48.1971 21.0724 48.1415 21.0821 46.4688 21.0821H44.7429L44.839 19.9354C44.8917 19.3048 44.9736 18.4823 45.021 18.108L45.107 17.4272L46.9587 17.5136C47.9771 17.5612 48.8341 17.623 48.8629 17.6512ZM31.0117 23.2829C31.102 23.4256 31.9795 28.4709 31.9225 28.5209C31.9 28.5406 31.4266 28.6005 30.8704 28.6539C29.357 28.799 29.2604 28.6856 28.3856 25.7386C27.9998 24.4389 27.6825 23.3286 27.6807 23.2714C27.6758 23.1278 30.9205 23.1389 31.0117 23.2829ZM36.5847 25.5996V27.9625L35.3781 28.1295C34.7144 28.2212 34.1504 28.2757 34.1246 28.2506C34.0799 28.207 33.2406 23.4936 33.2372 23.2669C33.2362 23.2071 33.989 23.1759 34.9101 23.1974L36.5847 23.2366V25.5996ZM42.3069 24.0358C42.2578 24.5137 42.1754 25.4506 42.1239 26.1179C42.019 27.4761 42.0926 27.4017 40.7178 27.5382C40.2475 27.5849 39.6223 27.6581 39.3282 27.7008L38.7938 27.7785V25.4728V23.1671H40.595H42.3961L42.3069 24.0358ZM47.727 23.4798C47.685 23.6519 47.5727 24.1875 47.4775 24.6702C47.1777 26.19 46.4584 26.8715 44.9993 27.0185C44.2814 27.0907 44.2096 27.0731 44.2096 26.8247C44.2096 26.3799 44.503 23.5297 44.5682 23.3409C44.6114 23.2158 45.0727 23.1671 46.2159 23.1671C47.79 23.1671 47.8028 23.1697 47.727 23.4798ZM30.4828 35.8401C31.1201 36.4242 30.8154 37.4991 29.9258 37.8049C29.4756 37.9596 28.7998 37.616 28.5895 37.1255C28.0984 35.9787 29.5548 34.99 30.4828 35.8401ZM46.3836 35.7319C46.8182 36.0536 46.9688 36.706 46.7178 37.1792C46.4839 37.6206 45.79 37.9453 45.3814 37.8049C44.0729 37.3551 44.2686 35.5306 45.624 35.5424C45.9043 35.5448 46.2461 35.6301 46.3836 35.7319ZM32.5265 52.0788C32.9594 53.7408 33.5262 54.4926 34.8579 55.1708C35.7049 55.6022 37.3384 55.5917 38.2237 55.1488C39.4864 54.5173 40.0703 53.7299 40.5003 52.0788L40.7356 51.1753L42.7262 51.1369L44.717 51.0985L45.1468 54.5076L45.5765 57.9167H36.5134H27.4504L27.8801 54.5076L28.3099 51.0985L30.3006 51.1369L32.2912 51.1753L32.5265 52.0788ZM38.4523 51.5546C38.2258 52.6589 37.4056 53.4687 36.5134 53.4687C35.6213 53.4687 34.801 52.6589 34.5746 51.5546L34.4825 51.1058H36.5134H38.5444L38.4523 51.5546Z" fill="#0073A8"/>
</svg>
