<svg width="50" height="51" viewBox="0 0 50 51" fill="none" xmlns="http://www.w3.org/2000/svg">
<path fill-rule="evenodd" clip-rule="evenodd" d="M21.3335 0.244541C21.1157 0.46657 21.0936 0.569467 21.0913 1.36515L21.0889 2.24121L19.9438 2.80679C19.3141 3.11787 18.4818 3.61871 18.0943 3.91973L17.3898 4.46718L16.6318 4.02651C16.2149 3.78416 15.8199 3.58594 15.754 3.58594C15.3333 3.58594 15.1097 3.89811 13.5212 6.70192C12.6187 8.29507 11.8607 9.70245 11.837 9.82935C11.7691 10.1914 12.0481 10.5128 12.7884 10.925L13.472 11.3057L13.401 11.8535C13.3076 12.5752 13.3103 14.5575 13.4056 15.2071L13.4812 15.7217L12.7581 16.1289C11.8776 16.6246 11.6904 16.9408 11.9493 17.4944C12.3306 18.31 15.0742 23.0748 15.2541 23.2339C15.5629 23.5068 15.9721 23.443 16.703 23.0075L17.3757 22.6067L18.1628 23.202C18.5957 23.5294 19.4317 24.0347 20.0207 24.3249C21.0568 24.8354 21.0916 24.8631 21.0927 25.1763L21.0938 25.5H13.1387H5.18369L4.93437 25.7739C4.4832 26.2698 0 34.0231 0 34.3077C0 34.4571 0.10498 34.6806 0.239746 34.818C0.479395 35.0625 0.479688 35.0625 2.5835 35.0625H4.6875V42.7867V50.511L4.92725 50.7555L5.16689 51H25H44.8331L45.0728 50.7555L45.3125 50.511V42.7867V35.0625H47.4165C49.5203 35.0625 49.5206 35.0625 49.7603 34.818C49.8921 34.6835 50 34.4569 50 34.3143C50 34.0459 45.4814 26.2131 45.0572 25.7462L44.8335 25.5H36.8699H28.9062L28.9087 25.1763C28.911 24.8622 28.9452 24.8357 30.0562 24.287C30.6859 23.9759 31.5193 23.4741 31.9083 23.172L32.6154 22.6226L33.2755 23.0338C34.1447 23.5752 34.4867 23.5837 34.9062 23.074C35.2295 22.6812 38.0739 17.6493 38.158 17.3215C38.2604 16.9221 37.9961 16.5793 37.2535 16.1484L36.5286 15.7277L36.5992 15.2599C36.6907 14.6546 36.6905 12.4382 36.599 11.8322L36.5281 11.3625L37.1597 11.0023C37.8108 10.6308 38.1836 10.2551 38.1836 9.9701C38.1836 9.88035 37.9272 9.33728 37.6138 8.76333C35.8464 5.52663 35.4829 4.87956 35.1458 4.37036C34.5896 3.53006 34.2817 3.48264 33.2888 4.08438L32.6308 4.48312L31.8183 3.88038C31.3715 3.54878 30.5344 3.04436 29.958 2.75938L28.9103 2.24121L28.9082 1.36515C28.9064 0.569168 28.8843 0.46667 28.6665 0.244541L28.4269 0H25H21.5731L21.3335 0.244541ZM27.3438 2.37329C27.3438 3.3152 27.4442 3.44609 28.4687 3.83905C29.5963 4.27145 30.5694 4.84211 31.4347 5.57822C31.8854 5.96172 32.3415 6.27539 32.4483 6.27539C32.5553 6.27539 32.9433 6.10974 33.3107 5.90733C33.6782 5.70493 33.9942 5.5592 34.013 5.5836C34.0317 5.60801 34.5573 6.53418 35.181 7.64193L36.3148 9.65593L35.755 10.0029C34.8089 10.5891 34.8097 10.5872 34.9966 11.7312C35.2002 12.9781 35.1989 14.0972 34.9925 15.3985C34.8004 16.6088 34.7912 16.5872 35.7352 17.1288C36.0567 17.3133 36.3055 17.4905 36.2878 17.5227C35.7777 18.4502 34.0471 21.4847 34.0004 21.5333C33.9647 21.5704 33.6809 21.4471 33.3696 21.2593C32.5604 20.7711 32.3161 20.7999 31.543 21.4747C30.7066 22.2046 29.8492 22.7188 28.6594 23.2042C28.1237 23.4226 27.6086 23.6974 27.5146 23.8147C27.3861 23.975 27.3438 24.2107 27.3438 24.764V25.5H25H22.6562V24.8092C22.6562 23.7674 22.6018 23.6839 21.7125 23.3643C20.5688 22.9533 19.6798 22.4449 18.7012 21.6422C17.6657 20.7929 17.5205 20.7666 16.6407 21.2684L16.0264 21.6189L15.6113 20.8949C15.383 20.4967 14.8576 19.5692 14.4438 18.8336L13.6913 17.4964L14.2431 17.1595C15.1979 16.5765 15.1922 16.5879 15.0312 15.5692C14.8543 14.4501 14.8539 12.7456 15.0303 11.63C15.1915 10.6107 15.1613 10.5466 14.2822 10.0388C14.0003 9.87597 13.7695 9.69458 13.7695 9.63581C13.7695 9.5364 15.7382 5.97935 15.947 5.70144C16.0201 5.60412 16.18 5.65472 16.6548 5.92556C16.9921 6.11801 17.3789 6.27539 17.5144 6.27539C17.6684 6.27539 18.0374 6.05107 18.4997 5.67634C19.6113 4.77527 20.2569 4.3852 21.3867 3.93178C22.5858 3.45057 22.6527 3.3652 22.6548 2.31592L22.6562 1.59375H25H27.3438V2.37329ZM23.4863 4.91991C21.6987 5.27113 20.2357 6.06282 18.9492 7.37508C13.6992 12.7302 17.1312 21.8454 24.5605 22.2788C29.6084 22.5733 33.8494 18.2474 33.5607 13.0986C33.343 9.21566 30.8428 6.10476 27.0996 5.05916C26.2051 4.80934 24.4025 4.73981 23.4863 4.91991ZM27.0671 6.70291C27.4788 6.83669 28.116 7.11629 28.4831 7.32418C29.2853 7.7786 30.5695 9.06405 31.0415 9.88513C32.3973 12.2433 32.3287 15.1957 30.8658 17.4523C28.8031 20.6341 24.7965 21.6272 21.5169 19.7696C20.6393 19.2724 19.3867 17.9948 18.8993 17.0996C18.2452 15.8982 18.0371 15.0735 18.0278 13.6465C18.0183 12.174 18.1655 11.5005 18.7636 10.2815C19.6901 8.39319 21.5266 6.97355 23.6328 6.51744C24.5716 6.31404 26.1295 6.39821 27.0671 6.70291ZM24.4585 8.21329C24.2616 8.414 24.2188 8.55645 24.2188 9.01017C24.2188 9.45482 24.1877 9.5625 24.0592 9.5625C23.3145 9.5625 22.2188 10.4405 21.9937 11.2176C21.7232 12.1515 21.914 12.8961 22.6041 13.6001C23.2212 14.2295 23.588 14.3438 24.9913 14.3438C26.0203 14.3438 26.0969 14.3578 26.3228 14.5883C26.6399 14.9117 26.6399 15.3695 26.3228 15.693C26.0851 15.9355 26.068 15.9375 24.2188 15.9375C22.3695 15.9375 22.3524 15.9395 22.1147 16.182C21.9636 16.3361 21.875 16.5403 21.875 16.7344C21.875 16.9284 21.9636 17.1326 22.1147 17.2867C22.3357 17.5122 22.4271 17.5312 23.2866 17.5312H24.2188V18.0836C24.2188 18.7483 24.5014 19.125 25 19.125C25.4986 19.125 25.7812 18.7483 25.7812 18.0836C25.7812 17.6389 25.8123 17.5312 25.9408 17.5312C26.6855 17.5312 27.7812 16.6533 28.0063 15.8761C28.2768 14.9422 28.086 14.1976 27.3959 13.4937C26.7788 12.8643 26.412 12.75 25.0087 12.75C23.9797 12.75 23.9031 12.736 23.6772 12.5055C23.5261 12.3514 23.4375 12.1472 23.4375 11.9531C23.4375 11.7591 23.5261 11.5549 23.6772 11.4008C23.9149 11.1582 23.932 11.1562 25.7812 11.1562C27.6305 11.1562 27.6476 11.1543 27.8853 10.9117C28.2024 10.5883 28.2024 10.1305 27.8853 9.80704C27.6643 9.58153 27.573 9.5625 26.7134 9.5625H25.7812V9.01017C25.7812 8.34547 25.4986 7.96875 25 7.96875C24.8098 7.96875 24.6096 8.0591 24.4585 8.21329ZM28.7798 30.2812L26.9046 33.4688H14.5311H2.15752L4.03271 30.2812L5.90791 27.0938H18.2814H30.655L28.7798 30.2812ZM45.9673 30.2812L47.8425 33.4688H42.5002H37.1579L35.2827 30.2812L33.4075 27.0938H38.7498H44.0921L45.9673 30.2812ZM31.25 39.3457V49.4062H18.75H6.25V42.2344V35.0625L16.7725 35.0507C22.5599 35.0443 27.4246 35.0105 27.5832 34.9758C27.8386 34.92 28.0603 34.5916 29.5257 32.0989C30.4355 30.5514 31.1957 29.2852 31.2149 29.2852C31.2342 29.2852 31.25 33.8124 31.25 39.3457ZM34.4731 32.0028C35.2964 33.4154 36.0704 34.6817 36.1932 34.8168L36.4165 35.0625H40.0832H43.75V42.2344V49.4062H38.2812H32.8125V39.3258C32.8125 33.7815 32.8493 29.2879 32.8943 29.3399C32.9395 29.3919 33.6498 30.5902 34.4731 32.0028ZM8.05225 43.2758C7.81445 43.5182 7.8125 43.5357 7.8125 45.4219C7.8125 47.3081 7.81445 47.3255 8.05225 47.568L8.29189 47.8125H10.9375H13.5831L13.8228 47.568C14.0605 47.3255 14.0625 47.3081 14.0625 45.4219C14.0625 43.5357 14.0605 43.5182 13.8228 43.2758L13.5831 43.0312H10.9375H8.29189L8.05225 43.2758ZM12.5 45.4219V46.2188H10.9375H9.375V45.4219V44.625H10.9375H12.5V45.4219Z" fill="#56A409"/>
</svg>
