<svg width="51" height="51" viewBox="0 0 51 51" fill="none" xmlns="http://www.w3.org/2000/svg">
<path fill-rule="evenodd" clip-rule="evenodd" d="M3.44297 0.143671C2.6045 0.35354 1.97685 0.711919 1.34461 1.34192C0.693457 1.99085 0.299816 2.70542 0.11848 3.5679C-0.040749 4.3251 -0.038857 43.5024 0.120372 44.2469C0.486529 45.9581 1.86153 47.3334 3.57233 47.6997C3.93719 47.7778 6.24944 47.8126 11.0657 47.8126H18.0315V48.8127C18.0315 49.6184 18.0704 49.8891 18.232 50.2057C18.4574 50.6477 19.0311 51 19.5252 51C20.0193 51 20.593 50.6477 20.8185 50.2057C21.0099 49.8302 21.0189 49.6255 21.0189 45.6154C21.0189 41.922 20.9992 41.3766 20.8547 41.0719C20.7393 40.8288 20.4227 40.5457 19.7908 40.1207C14.9304 36.8518 13.6024 30.4853 16.7751 25.6631C17.068 25.2179 17.4687 24.6743 17.6654 24.4552L18.0232 24.0568L18.0273 26.3825C18.0308 28.293 18.0597 28.7675 18.1894 29.0409C18.3066 29.2881 19.1498 29.9759 21.4621 31.711C23.1753 32.9964 24.7152 34.1196 24.8842 34.2071C25.2754 34.4094 25.7247 34.4094 26.1158 34.2071C26.2848 34.1196 27.8197 33.0001 29.5269 31.7192C31.9276 29.9179 32.669 29.3101 32.7997 29.036C32.9431 28.7352 32.9692 28.3327 32.9723 26.3692L32.976 24.0568L33.329 24.4552C33.8193 25.0085 34.7152 26.3755 34.9693 26.958C35.8717 29.0265 36.1475 31.0337 35.804 33.0331C35.2976 35.9804 33.6869 38.4685 31.2158 40.1201C30.5755 40.5481 30.2615 40.8273 30.1453 41.0719C30.0009 41.3766 29.9811 41.922 29.9811 45.6154C29.9811 49.6255 29.9901 49.8302 30.1816 50.2057C30.407 50.6477 30.9807 51 31.4748 51C31.969 51 32.5426 50.6477 32.7681 50.2057C32.9296 49.8891 32.9686 49.6184 32.9686 48.8127V47.8126H39.9343C44.6789 47.8126 47.0682 47.7772 47.4277 47.7015C49.1176 47.3455 50.5289 45.9342 50.8821 44.2469C51.0409 43.4885 51.0385 4.31036 50.8797 3.5679C50.5126 1.8523 49.1334 0.47197 47.4277 0.113192C46.6226 -0.0562363 4.1239 -0.0267531 3.44297 0.143671ZM47.2111 3.19079C47.4642 3.31988 47.6757 3.53144 47.8047 3.78454C47.9955 4.15866 48.0052 4.36554 48.0052 8.06617V11.9548H25.5H2.99486L2.99904 8.04525C3.00372 3.6426 2.99745 3.68314 3.75097 3.22685L4.14003 2.99128L25.4791 2.99079C46.6697 2.99029 46.8209 2.99168 47.2111 3.19079ZM6.85469 6.18383C6.43427 6.40585 6.08185 6.99352 6.08185 7.47252C6.08185 8.23042 6.81785 8.9666 7.57556 8.9666C7.74425 8.9666 8.05912 8.87636 8.27521 8.7661C8.71705 8.54059 9.06926 7.96676 9.06926 7.47252C9.06926 6.97828 8.71705 6.40446 8.27521 6.17895C7.78458 5.92864 7.33517 5.93014 6.85469 6.18383ZM12.8295 6.18383C12.4091 6.40585 12.0567 6.99352 12.0567 7.47252C12.0567 8.23042 12.7927 8.9666 13.5504 8.9666C14.3081 8.9666 15.0441 8.23042 15.0441 7.47252C15.0441 6.97828 14.6919 6.40446 14.25 6.17895C13.7594 5.92864 13.31 5.93014 12.8295 6.18383ZM18.8043 6.18383C18.3839 6.40585 18.0315 6.99352 18.0315 7.47252C18.0315 7.96676 18.3837 8.54059 18.8256 8.7661C19.0416 8.87636 19.3565 8.9666 19.5252 8.9666C20.2829 8.9666 21.0189 8.23042 21.0189 7.47252C21.0189 6.97828 20.6667 6.40446 20.2249 6.17895C19.7342 5.92864 19.2848 5.93014 18.8043 6.18383ZM33.7414 6.18383C33.321 6.40585 32.9686 6.99352 32.9686 7.47252C32.9686 7.96676 33.3208 8.54059 33.7626 8.7661C34.1403 8.95883 34.3415 8.9666 38.9434 8.9666C43.5453 8.9666 43.7464 8.95883 44.1241 8.7661C44.566 8.54059 44.9182 7.96676 44.9182 7.47252C44.9182 6.97828 44.566 6.40446 44.1241 6.17895C43.7459 5.98601 43.5501 5.97864 38.9225 5.98283C34.3316 5.98701 34.0969 5.99617 33.7414 6.18383ZM48.0052 29.2901C48.0052 43.4725 48.0029 43.6417 47.8047 44.0302C47.6757 44.2833 47.4642 44.4949 47.2111 44.624C46.8284 44.8192 46.6371 44.8245 39.8934 44.8245H32.9686V43.7029V42.5813L33.6584 42.0551C34.625 41.3178 35.9264 39.9187 36.6442 38.8454C37.673 37.3069 38.2978 35.7989 38.7116 33.8555C38.9592 32.6922 38.9587 30.0639 38.7106 28.8876C38.3259 27.0642 37.66 25.4494 36.672 23.9445C35.3296 21.8994 32.5368 19.5248 31.4742 19.5248C30.9806 19.5248 30.4069 19.8773 30.1816 20.319C29.9921 20.6906 29.9811 20.9009 29.9811 24.179V27.646L27.7406 29.3237L25.5 31.0015L23.2595 29.3237L21.0189 27.646V24.179C21.0189 20.9009 21.008 20.6906 20.8185 20.319C20.5891 19.8694 20.0158 19.5238 19.5043 19.5265C18.8293 19.5302 17.1889 20.6752 15.813 22.1028C14.0427 23.9398 12.8479 26.2402 12.2895 28.8876C12.0413 30.0639 12.0408 32.6922 12.2885 33.8555C12.7036 35.8052 13.3257 37.3038 14.368 38.8651C15.0909 39.9477 16.4015 41.3479 17.3593 42.0607L18.0315 42.561V43.6927V44.8245H11.0993H4.16712L3.76989 44.6012C3.53678 44.4701 3.2946 44.2249 3.18376 44.0075C3.00083 43.6489 2.99486 43.1804 2.99486 29.2901V14.9429H25.5H48.0052V29.2901Z" fill="#FCB900"/>
</svg>
