<svg width="58" height="52" viewBox="0 0 58 52" fill="none" xmlns="http://www.w3.org/2000/svg">
<path fill-rule="evenodd" clip-rule="evenodd" d="M10.4458 0.169363C10.2444 0.257397 9.97683 0.499151 9.85114 0.706466C9.62718 1.07617 9.62264 1.26102 9.6223 10.0638L9.62185 19.044L7.44006 19.0442C5.03872 19.0444 4.71922 19.1165 4.24625 19.7649C4.0181 20.0777 4.01062 20.2332 3.97888 25.3241L3.94624 30.5615H2.9663C2.2042 30.5615 1.87756 30.6144 1.49742 30.7996C0.532893 31.2694 -0.115071 32.4072 0.0170834 33.3988C0.119769 34.1688 5.32434 50.8948 5.5687 51.2401C5.69734 51.4217 6.01163 51.666 6.2671 51.7828C6.71355 51.9867 7.40413 51.9951 23.9724 51.9975L41.2131 52L41.5117 51.7636C41.886 51.4675 41.9212 50.8571 41.5837 50.5176C41.3591 50.2915 41.206 50.2895 24.1382 50.2895H6.91926L6.80263 49.9189C5.34247 45.2784 1.68805 33.2364 1.68805 33.0651C1.68805 32.9368 1.81329 32.7059 1.9663 32.552L2.24444 32.272H23.1609H44.0772V33.6404V35.0089H43.0659C42.146 35.0089 42.0232 35.0353 41.7096 35.3008C41.3183 35.6322 41.1491 36.2488 41.3363 36.662C41.4028 36.809 42.5094 38.2125 43.7953 39.7809C46.2172 42.7347 46.4659 42.9607 47.1225 42.8032C47.5601 42.6983 47.5803 42.6773 49.6275 40.1974C52.5222 36.6909 52.4647 36.7714 52.4619 36.2245C52.457 35.3223 51.9773 35.0089 50.6017 35.0089H49.6309V33.6404V32.272H52.6961H55.7615L56.0397 32.552C56.1927 32.7059 56.3179 32.9373 56.3179 33.0663C56.3179 33.239 52.9108 44.4643 51.2028 49.9189L51.0867 50.2895H47.9312C46.1957 50.2895 44.6932 50.3214 44.5923 50.3603C44.4913 50.3993 44.3353 50.5742 44.2454 50.7492C44.0345 51.1596 44.2008 51.6881 44.5982 51.8702C44.7889 51.9576 45.925 51.9992 48.0778 51.9975C50.9498 51.9952 51.3214 51.9734 51.7389 51.7828C51.9943 51.666 52.3086 51.4217 52.4373 51.2401C52.7178 50.8437 57.9193 34.0361 57.9919 33.2914C58.0938 32.2476 57.2149 30.9561 56.2119 30.6758C55.9897 30.6136 55.4146 30.5625 54.9338 30.5622L54.0597 30.5615L54.0271 25.3241C53.9953 20.2332 53.9879 20.0777 53.7597 19.7649C53.2867 19.1165 52.9672 19.0444 50.5659 19.0442L48.3841 19.044L48.3837 10.0638C48.3833 1.25771 48.3788 1.07628 48.1545 0.706123C47.7059 -0.0341891 48.3242 0.000249515 35.4823 0.000249515C23.8554 0.000249515 23.819 0.000933716 23.5213 0.236643C23.147 0.532791 23.1118 1.1431 23.4493 1.4827C23.6731 1.7078 23.8271 1.71077 35.18 1.71077H46.684V4.90374V8.0967H37.3032H27.9224L26.6776 6.83445C25.9929 6.1401 25.2033 5.43457 24.9227 5.26648L24.4127 4.96075L17.8673 4.92791L11.3219 4.89495V3.30292V1.71077H15.8555C20.2381 1.71077 20.3967 1.70313 20.6158 1.4827C20.9842 1.11209 20.957 0.627439 20.547 0.256827L20.2631 0.000249515L15.5375 0.00469681C11.737 0.00834592 10.7403 0.0405037 10.4458 0.169363ZM31.0684 4.28304C30.8834 4.41339 30.8164 4.57543 30.8164 4.89256C30.8164 5.39249 31.054 5.66423 31.5844 5.77097C31.8832 5.83106 31.9982 5.78488 32.2969 5.4844C32.5869 5.19258 32.6387 5.0684 32.5759 4.81536C32.5335 4.64442 32.4184 4.41487 32.3201 4.30505C32.0957 4.05441 31.4098 4.04243 31.0684 4.28304ZM36.1687 4.28304C35.83 4.52161 35.8188 5.23546 36.1491 5.53606C36.4697 5.82798 37.1051 5.81145 37.4116 5.5031C37.7113 5.20136 37.7287 4.64693 37.4482 4.33504C37.1961 4.05486 36.5308 4.02772 36.1687 4.28304ZM41.2495 4.30597C40.9166 4.57714 40.9037 5.18244 41.2238 5.50447C41.7688 6.05286 42.7549 5.65864 42.7549 4.89233C42.7549 4.20607 41.8194 3.84162 41.2495 4.30597ZM25.3726 8.03182C26.1968 8.8393 27.0028 9.52647 27.2451 9.6283C27.6201 9.78601 28.7986 9.80722 37.1773 9.80722H46.684V17.0484C46.684 21.0311 46.665 24.2896 46.6416 24.2896C46.6183 24.2896 46.376 24.2039 46.1033 24.0991C45.7099 23.9478 45.0914 23.8994 43.1138 23.8646C40.836 23.8245 40.5868 23.8393 40.2324 24.0354C39.555 24.4105 39.4303 24.8094 39.4303 26.6007C39.4303 28.3341 39.5341 28.7615 40.0552 29.1739C40.3437 29.4022 40.4959 29.4212 42.0442 29.4212C43.9251 29.4212 44.0772 29.4773 44.0772 30.1705V30.5615H27.6996H11.3219V18.5879V6.61425H17.6238H23.9255L25.3726 8.03182ZM30.551 13.7785C30.3453 14.0072 26.0561 27.9947 26.0561 28.437C26.0561 29.1306 26.9377 29.4972 27.4254 29.0064C27.6664 28.764 31.9498 14.8612 31.9498 14.3215C31.9498 13.6745 30.9825 13.2988 30.551 13.7785ZM23.2226 17.0252C23.0668 17.1037 22.2129 18.039 21.325 19.1038C20.0259 20.6617 19.7106 21.1074 19.7099 21.3867C19.7092 21.6664 20.0201 22.1098 21.3082 23.6674C23.2624 26.0303 23.4947 26.193 24.0778 25.6061C24.5908 25.0901 24.4834 24.8347 22.9981 23.0377C21.8269 21.621 21.6607 21.3706 21.7898 21.2173C24.4543 18.0543 24.6187 17.7783 24.1577 17.242C23.889 16.9292 23.5629 16.8536 23.2226 17.0252ZM34.139 16.9932C33.8426 17.1122 33.6499 17.4419 33.6499 17.8306C33.6499 18.0788 34.344 18.9949 36.2162 21.2173C36.3453 21.3706 36.1791 21.621 35.0078 23.0377C33.5225 24.8347 33.4152 25.0901 33.9282 25.6061C34.5113 26.193 34.7435 26.0303 36.6977 23.6674C37.9878 22.1076 38.2965 21.6668 38.2954 21.3867C38.2943 21.1085 37.9832 20.6663 36.7282 19.1581C35.8671 18.1232 35.0899 17.2187 35.0013 17.1479C34.748 16.9459 34.4087 16.8851 34.139 16.9932ZM9.56518 25.658V30.5045L7.61007 30.5357L5.65495 30.5669V25.658V20.7492L7.61007 20.7803L9.56518 20.8116V25.658ZM52.351 25.658V30.5615H50.9909H49.6309V29.3761C49.6309 27.9711 49.3882 27.0463 48.7836 26.1471L48.3841 25.553V23.2298C48.3841 21.952 48.4181 20.8723 48.4597 20.8306C48.5012 20.7887 49.3937 20.7545 50.4432 20.7545H52.351V25.658ZM45.8252 25.8074C46.5176 26.1151 47.169 26.7149 47.5373 27.384L47.8741 27.9957L47.9308 31.9299C47.9907 36.0923 47.9983 36.1491 48.5426 36.4948C48.6736 36.5781 49.1081 36.6756 49.5083 36.7113L50.2357 36.7764L48.5969 38.772C47.6953 39.8696 46.9172 40.7586 46.8674 40.7476C46.8176 40.7366 46.0474 39.8386 45.1558 38.752L43.5349 36.7764L44.2367 36.7194C44.9686 36.66 45.4562 36.4257 45.6649 36.0335C45.7465 35.8801 45.776 34.7119 45.7538 32.5183L45.7206 29.2329L45.4088 28.7591C44.8872 27.9667 44.3874 27.7816 42.6321 27.7313L41.1304 27.6883V26.6054V25.5227L43.2555 25.5662C44.9558 25.601 45.4695 25.6492 45.8252 25.8074Z" fill="#FF6900"/>
</svg>
