<svg width="49" height="50" viewBox="0 0 49 50" fill="none" xmlns="http://www.w3.org/2000/svg">
<path fill-rule="evenodd" clip-rule="evenodd" d="M3.47226 0.150842C2.68349 0.367311 1.99815 0.778674 1.38709 1.40237C-0.406976 3.23344 -0.467232 6.03353 1.24435 8.03065L1.67701 8.53548L1.15159 9.35064C0.862659 9.799 0.497465 10.5421 0.340106 11.0019L0.0539374 11.8381L0.0271677 27.9916C-0.00266419 46.0555 -0.0451401 44.9056 0.709548 46.4677C1.5159 48.1369 3.19943 49.4658 4.993 49.8489C5.58776 49.9758 8.67911 49.9968 27.0997 49.9983L48.5151 50L48.7575 49.7525L49 49.5051V31.0451V12.5851L48.7575 12.3377C48.5292 12.1045 48.4512 12.0901 47.4173 12.0901C46.4178 12.0901 46.3243 12.0743 46.3719 11.9137C46.4007 11.8166 46.47 11.4423 46.526 11.0819C46.8568 8.95117 46.3698 6.52988 45.2253 4.61725C44.5578 3.50173 43.1899 2.10552 42.097 1.42425C39.5792 -0.145178 36.421 -0.432224 33.7017 0.661214C31.414 1.58103 29.3896 3.57775 28.4432 5.84771C27.6608 7.72425 27.466 9.98775 27.9254 11.8633L27.9811 12.0901H23.2563H18.5316L12.997 6.46415C8.91698 2.31675 7.33075 0.767583 6.96121 0.569262C5.91591 0.00847828 4.57624 -0.152235 3.47226 0.150842ZM6.05104 1.93976C6.37909 2.10421 6.90392 2.54118 7.46134 3.11386L8.34918 4.02602L6.15338 6.26724L3.95757 8.50846L3.0639 7.60225C2.04704 6.57122 1.69282 5.94934 1.61349 5.05614C1.39716 2.62103 3.90186 0.862055 6.05104 1.93976ZM39.3688 1.90528C41.5558 2.61186 43.2489 4.07592 44.2093 6.0911C44.8426 7.41976 44.9873 8.07199 44.9925 9.61994C44.9987 11.4811 44.6442 12.7099 43.6883 14.1417C42.4392 16.0126 42.2763 16.2883 41.951 17.0813C41.5562 18.0441 41.2349 19.3129 41.1407 20.2821L41.0745 20.9627H40.2958H39.517V18.5429V16.1231H40.0735C40.931 16.1231 41.3806 15.9418 41.9405 15.3703C42.9399 14.3503 42.9399 13.0563 41.9405 12.0363C40.9411 11.0163 39.6734 11.0163 38.674 12.0363C38.1141 12.6078 37.9365 13.0667 37.9365 13.9419V14.5099H37.1463H36.356V13.9419C36.356 13.0667 36.1784 12.6078 35.6185 12.0363C34.6191 11.0163 33.3514 11.0163 32.352 12.0363C31.3526 13.0563 31.3526 14.3503 32.352 15.3703C32.9119 15.9418 33.3616 16.1231 34.219 16.1231H34.7755V18.5429V20.9627H33.998H33.2205L33.1513 20.3325C32.9036 18.0805 32.3569 16.7378 30.662 14.2204C29.6477 12.7138 29.2938 11.5182 29.3001 9.61994C29.3052 8.07199 29.4499 7.41976 30.0832 6.0911C31.1551 3.84221 33.2006 2.2379 35.672 1.70787C36.4564 1.53959 38.5896 1.65352 39.3688 1.90528ZM37.1463 4.00192V4.78613L37.8474 4.89885C39.8796 5.22542 41.5006 6.8862 41.8158 8.96458L41.9228 9.67035H42.7092H43.4955L43.43 9.01731C43.2158 6.88287 41.8792 4.89966 40.0109 3.94425C39.1974 3.52815 38.1263 3.22295 37.4673 3.21932L37.1463 3.21761V4.00192ZM10.131 5.84045L10.7189 6.4469L8.52304 8.68812L6.32723 10.9293L5.71044 10.2998L5.09365 9.67025L7.26506 7.45212C8.45932 6.23225 9.46047 5.23409 9.48981 5.23409C9.51915 5.23409 9.80769 5.50692 10.131 5.84045ZM16.0565 11.8885L20.2044 16.1231H19.4502C18.5311 16.1231 18.2763 16.283 18.189 16.915L18.1309 17.3357L14.181 13.3023L10.2312 9.26897L11.0178 8.46137C11.4503 8.01724 11.8278 7.65387 11.8564 7.65387C11.8851 7.65387 13.7751 9.55945 16.0565 11.8885ZM6.99292 13.9297L11.068 18.0883V28.6581V39.228L10.5 38.7094C9.80117 38.0714 8.58053 37.4423 7.66009 37.2456C5.74561 36.8368 3.80229 37.3424 2.25182 38.6527L1.58505 39.2163V25.876C1.58505 11.5063 1.56549 12.0919 2.08547 10.8921C2.29143 10.4168 2.7313 9.77118 2.84905 9.77118C2.88678 9.77118 4.75157 11.6425 6.99292 13.9297ZM13.0931 14.5099C16.9769 18.4751 17.0374 18.5429 16.6843 18.5429C16.4784 18.5429 16.2259 18.6249 16.0921 18.7353C15.8913 18.901 15.8521 19.0411 15.8095 19.7449L15.7601 20.5621L11.6127 16.3271L7.46529 12.092L8.25188 11.2845C8.68445 10.8403 9.06189 10.4769 9.09054 10.4769C9.11928 10.4769 10.9204 12.2918 13.0931 14.5099ZM34.533 13.1442C34.7322 13.3474 34.7755 13.4916 34.7755 13.9508V14.5099H34.2278C33.7778 14.5099 33.6366 14.4656 33.4375 14.2624C32.9475 13.7623 33.2947 12.8967 33.9853 12.8967C34.1777 12.8967 34.3802 12.9882 34.533 13.1442ZM40.855 13.1442C41.0079 13.3002 41.0975 13.5069 41.0975 13.7033C41.0975 14.2181 40.7239 14.5099 40.0648 14.5099H39.517V13.9508C39.517 13.278 39.8029 12.8967 40.3073 12.8967C40.4997 12.8967 40.7022 12.9882 40.855 13.1442ZM28.8381 14.2831C28.9968 14.6019 29.4011 15.2484 29.7366 15.7198C30.4938 16.7837 31.0418 17.9299 31.3275 19.047C31.5043 19.7384 31.5582 20.3032 31.6067 21.9709C31.6751 24.3204 31.7296 24.5252 32.4608 25.1821C32.8512 25.5329 33.4383 25.8022 33.8126 25.8022C33.9159 25.8022 33.9847 25.9505 34.0326 26.2768C34.1844 27.3106 34.7499 28.1176 35.6818 28.6305C36.2545 28.9457 36.3768 28.9742 37.1463 28.9722C37.8598 28.9703 38.0617 28.9298 38.4904 28.7024C38.768 28.5552 39.1272 28.3212 39.2889 28.1824C39.6783 27.8478 40.174 26.8778 40.2603 26.2811C40.3081 25.9508 40.3763 25.8022 40.4799 25.8022C40.8542 25.8022 41.4414 25.5329 41.8317 25.1821C42.5635 24.5247 42.616 24.3253 42.6898 21.9205C42.7407 20.2598 42.7985 19.6358 42.958 19.027C43.2495 17.9137 43.7613 16.8476 44.5392 15.7334C44.9123 15.1991 45.3463 14.5238 45.5035 14.2327L45.7896 13.7035L46.6046 13.7034L47.4195 13.7033V31.0451V48.3868H26.5974C8.45932 48.3868 5.70244 48.3675 5.20962 48.2364C3.49666 47.781 2.1801 46.4415 1.73628 44.7025C0.866808 41.2953 4.12026 37.9746 7.45838 38.8621C9.49584 39.4038 11.068 41.3897 11.068 43.4218C11.068 43.9664 11.3966 44.3538 11.8583 44.3538C12.0507 44.3538 12.2532 44.2624 12.406 44.1063L12.6485 43.8589V31.7817V19.7045L14.4031 21.4932L16.1576 23.2819L20.2559 24.541C22.5099 25.2335 24.4561 25.8006 24.5808 25.8011C24.8732 25.8025 25.2928 25.3741 25.2913 25.0758C25.2907 24.9485 24.7369 22.9639 24.0606 20.6656L22.831 16.4868L21.4701 15.0951L20.1092 13.7033H24.3293H28.5494L28.8381 14.2831ZM37.9365 18.5429V20.9627H37.1463H36.356V18.5429V16.1231H37.1463H37.9365V18.5429ZM21.8399 18.7602L22.1494 19.784L20.7729 21.1891L19.3963 22.5941L18.3932 22.2782L17.39 21.9622V21.0591V20.1561H18.3329C19.2024 20.1561 19.2947 20.1368 19.5183 19.9085C19.7419 19.6804 19.7608 19.5861 19.7608 18.6986V17.7363H20.6456H21.5303L21.8399 18.7602ZM23.284 23.7522C23.2722 23.7642 22.7874 23.6271 22.2068 23.4477L21.151 23.1213L21.9085 22.3482L22.6659 21.5751L22.9857 22.6527C23.1615 23.2453 23.2958 23.7401 23.284 23.7522ZM41.0975 23.1349C41.0975 23.5942 41.0541 23.7383 40.855 23.9415L40.6126 24.189H37.1463H33.6799L33.4375 23.9415C33.2384 23.7383 33.195 23.5942 33.195 23.1349V22.5758H37.1463H41.0975V23.1349ZM38.6885 26.1299C38.6147 26.5146 38.3773 26.8675 37.9973 27.1571C37.6148 27.4486 36.6777 27.4486 36.2953 27.1571C35.9153 26.8675 35.6778 26.5146 35.604 26.1299L35.5411 25.8022H37.1463H38.7515L38.6885 26.1299ZM21.5838 27.6629C21.3701 27.8809 21.3413 27.9989 21.3413 28.6541V29.398L20.6775 29.6668L20.0136 29.9356L19.5136 29.4317C19.1064 29.0211 18.95 28.9278 18.6697 28.9278C18.3599 28.9278 18.1954 29.061 17.0121 30.2712C15.4211 31.8985 15.3964 31.9742 16.1892 32.7936L16.6982 33.3196L16.4348 33.9972L16.1715 34.6747H15.4427C14.8007 34.6747 14.6851 34.7042 14.4715 34.9223C14.231 35.1677 14.229 35.1853 14.229 37.0945C14.229 39.0037 14.231 39.0214 14.4715 39.2668C14.6851 39.4849 14.8007 39.5143 15.4427 39.5143H16.1715L16.4348 40.1918L16.6982 40.8695L16.1892 41.3955C15.395 42.2163 15.4197 42.2915 17.0201 43.9248C18.6204 45.5583 18.694 45.5835 19.4982 44.7729L20.0136 44.2534L20.6775 44.5222L21.3413 44.791V45.5349C21.3413 46.1902 21.3701 46.3081 21.5838 46.5261C21.8242 46.7716 21.8415 46.7736 23.712 46.7736C25.5825 46.7736 25.5998 46.7716 25.8403 46.5261C26.0539 46.3081 26.0828 46.1902 26.0828 45.5349V44.791L26.7466 44.5222L27.4105 44.2534L27.9104 44.7573C28.3177 45.1679 28.4741 45.2613 28.7543 45.2613C29.0642 45.2613 29.2287 45.128 30.412 43.9178C32.0029 42.2905 32.0276 42.2149 31.2348 41.3955L30.7259 40.8695L30.9892 40.1918L31.2526 39.5143H31.9814C32.6234 39.5143 32.7389 39.4849 32.9525 39.2668C33.193 39.0214 33.195 39.0037 33.195 37.0945C33.195 35.1853 33.193 35.1677 32.9525 34.9223C32.7389 34.7042 32.6234 34.6747 31.9814 34.6747H31.2526L30.9892 33.9972L30.7259 33.3196L31.2348 32.7936C32.029 31.9727 32.0043 31.8975 30.404 30.2642C28.8037 28.6307 28.73 28.6055 27.9258 29.4162L27.4105 29.9356L26.7466 29.6668L26.0828 29.398V28.6541C26.0828 27.9989 26.0539 27.8809 25.8403 27.6629C25.5998 27.4174 25.5825 27.4154 23.712 27.4154C21.8415 27.4154 21.8242 27.4174 21.5838 27.6629ZM24.5023 29.6649C24.5023 30.4658 24.65 30.6443 25.5582 30.9408C25.9283 31.0616 26.4637 31.2933 26.7481 31.4556C27.4655 31.8652 27.6765 31.8406 28.2654 31.2784L28.7603 30.8058L29.3168 31.3739L29.8733 31.9418L29.4103 32.4469C28.8595 33.048 28.8354 33.2634 29.2367 33.9957C29.3957 34.286 29.6227 34.8324 29.741 35.2101C30.0315 36.1372 30.2064 36.2879 30.9911 36.2879H31.6145V37.0945V37.9011H30.9911C30.2064 37.9011 30.0315 38.0518 29.741 38.9789C29.6227 39.3566 29.3957 39.9031 29.2367 40.1933C28.8354 40.9256 28.8595 41.141 29.4103 41.7421L29.8733 42.2472L29.3168 42.8152L28.7603 43.3832L28.2654 42.9107C27.6765 42.3485 27.4655 42.3239 26.7481 42.7334C26.4637 42.8957 25.942 43.1235 25.5889 43.2395C25.2357 43.3555 24.8979 43.4835 24.8381 43.5241C24.6206 43.6714 24.5023 44.0503 24.5023 44.5993V45.1604H23.712H22.9218V44.5241C22.9218 43.7232 22.7741 43.5447 21.8658 43.2482C21.4958 43.1274 20.9604 42.8957 20.676 42.7334C19.9585 42.3239 19.7475 42.3485 19.1586 42.9107L18.6637 43.3832L18.1073 42.8152L17.5507 42.2472L18.0137 41.7421C18.5645 41.141 18.5886 40.9256 18.1874 40.1933C18.0284 39.9031 17.8014 39.3566 17.683 38.9789C17.3925 38.0518 17.2177 37.9011 16.4329 37.9011H15.8095V37.0945V36.2879H16.4329C17.2177 36.2879 17.3925 36.1372 17.683 35.2101C17.8014 34.8324 18.0284 34.286 18.1874 33.9957C18.5886 33.2634 18.5645 33.048 18.0137 32.4469L17.5507 31.9418L18.1073 31.3739L18.6637 30.8058L19.1586 31.2784C19.7475 31.8406 19.9585 31.8652 20.676 31.4556C20.9604 31.2933 21.4958 31.0616 21.8658 30.9408C22.7741 30.6443 22.9218 30.4658 22.9218 29.6649V29.0286H23.712H24.5023V29.6649ZM36.356 31.4776C36.356 32.9488 36.7745 34.0841 37.6442 34.9718C38.4501 35.7943 39.2683 36.1485 40.6771 36.285C42.2628 36.4386 43.3488 37.1596 43.9297 38.4445C44.1659 38.9672 44.2082 39.1904 44.2082 39.9176C44.2082 40.6447 44.1659 40.868 43.9297 41.3906C43.5813 42.1615 42.9067 42.8469 42.1347 43.2145L41.542 43.4968L36.9734 43.5259L32.4048 43.5549V44.3577V45.1604L36.8252 45.1589C41.7106 45.1573 41.9976 45.1286 43.1133 44.53C43.8833 44.1169 44.8166 43.1643 45.2213 42.3784C46.285 40.3129 45.9245 37.8831 44.3101 36.2353C43.3728 35.2786 42.0236 34.6803 40.7944 34.6762C39.9723 34.6735 39.3418 34.4083 38.7697 33.8243C38.1425 33.1842 37.9365 32.5922 37.9365 31.43V30.6418H37.1463H36.356V31.4776ZM22.5377 32.4144C20.0331 33.1019 18.4835 35.7488 19.1218 38.2498C19.7826 40.8394 22.3721 42.4369 24.8439 41.7797C27.1918 41.1555 28.726 38.847 28.3873 36.448C27.985 33.597 25.2073 31.6816 22.5377 32.4144ZM25.0456 34.1787C25.67 34.481 26.2649 35.0849 26.5773 35.7334C26.7778 36.1496 26.82 36.387 26.8193 37.0945C26.8185 37.8757 26.7889 38.0078 26.4835 38.5868C26.1104 39.2946 25.8002 39.6004 25.0561 39.9939C24.6286 40.2201 24.4235 40.2613 23.712 40.2639C23.0161 40.2664 22.7878 40.2245 22.3785 40.019C19.8107 38.7303 20.0245 35.0317 22.7247 34.0302C23.3481 33.799 24.4007 33.8663 25.0456 34.1787Z" fill="#FF6900"/>
</svg>
