<svg width="51" height="51" viewBox="0 0 51 51" fill="none" xmlns="http://www.w3.org/2000/svg">
<path fill-rule="evenodd" clip-rule="evenodd" d="M36.6215 0.110043C35.3152 0.478656 34.4194 1.68943 34.4194 3.08635C34.4194 3.99797 34.8507 4.89913 35.5524 5.45349C36.1942 5.96052 36.6335 6.10292 37.5396 6.09744C38.4089 6.09226 39.0793 5.80955 39.6741 5.19748C40.2761 4.57795 40.4809 4.03674 40.4809 3.06573C40.4809 2.3853 40.4363 2.128 40.2536 1.75759C39.5953 0.422153 38.0306 -0.287569 36.6215 0.110043ZM38.3394 1.87149C39.1181 2.42566 39.1236 3.7019 38.3495 4.25288C36.9423 5.25429 35.2895 3.48038 36.3611 2.11883C36.8158 1.54105 37.7169 1.42834 38.3394 1.87149ZM23.7801 2.69402C23.4649 2.85636 23.2473 3.29851 23.3391 3.59049C23.3774 3.71297 23.7695 4.18302 24.2102 4.63505L25.0115 5.45698L24.2493 6.23975C23.8301 6.67034 23.442 7.1413 23.3868 7.28629C23.2625 7.61305 23.385 7.96991 23.6962 8.18775C24.1333 8.49368 24.3545 8.39572 25.2885 7.48221L26.173 6.61713L27.0575 7.48221C28.0536 8.45631 28.3585 8.56373 28.8197 8.10264C29.2811 7.64165 29.1736 7.33692 28.199 6.34139L27.3334 5.45738L28.199 4.57336C29.183 3.56837 29.2581 3.34356 28.7731 2.85875C28.284 2.36995 28.0695 2.45476 26.8958 3.60076L26.1727 4.30669L25.3503 3.49293C24.4834 2.63513 24.187 2.48435 23.7801 2.69402ZM10.7965 6.98614C9.94625 7.27573 9.72141 7.47523 9.72141 7.93991C9.72141 8.24734 9.87785 8.49388 10.812 9.65801L11.9025 11.0171L6.82373 15.8251C3.4327 19.0353 1.74098 20.703 1.7331 20.8431C1.72652 20.9585 1.73041 21.1202 1.74158 21.2024C1.78206 21.4996 4.65511 26.7387 4.8974 26.9573C5.03419 27.0806 5.24448 27.1795 5.36482 27.1769C5.48517 27.1743 6.52581 26.6923 7.67742 26.1056C10.1155 24.8636 10.0913 24.8901 9.74833 23.8357C9.55889 23.2534 9.5531 23.1772 9.69409 23.1232C9.78093 23.0899 10.5422 23.1436 11.3857 23.2428C13.4786 23.4885 14.4028 23.3766 15.2254 22.7779C15.4757 22.5958 15.5441 22.7315 15.5873 23.4962C15.6213 24.0979 15.589 24.2641 15.332 24.8113C14.9499 25.6246 14.0722 26.7205 12.5157 28.3275C10.999 29.8936 10.4828 30.5022 9.8956 31.4168C8.53171 33.5413 7.9215 35.6069 7.91163 38.133C7.90874 38.8786 7.93765 39.6528 7.97584 39.8535L8.04524 40.2183L6.89612 40.2521C5.62655 40.2893 5.4056 40.3784 4.96041 41.0322C4.75033 41.3406 4.73607 41.4653 4.73607 42.9912V44.6207L3.16569 44.6229C1.86272 44.6247 1.52721 44.6559 1.19558 44.8065C0.735337 45.0155 0.187249 45.5964 0.076176 45.9927C0.0342991 46.1425 0 47.0048 0 47.9092C0 49.4674 0.0126628 49.5756 0.241889 49.9756C0.374997 50.2078 0.662751 50.5217 0.881507 50.6731L1.27914 50.9486L18.7939 50.9743L36.3086 51L36.7496 50.7673C36.9922 50.6394 37.3252 50.3437 37.4897 50.1102L37.7889 49.6858V47.8186C37.7889 45.9599 37.7877 45.9496 37.5213 45.5474C37.3743 45.3253 37.0826 45.037 36.8732 44.907C36.5195 44.6871 36.3755 44.6682 34.8311 44.6373L33.1693 44.6041L33.136 42.993C33.1055 41.5199 33.0831 41.3506 32.8745 41.0154C32.4904 40.3979 32.0075 40.236 30.5504 40.236H29.3075L28.7454 39.663C27.9795 38.8823 27.7298 38.3682 27.6842 37.4777C27.6533 36.873 27.6871 36.676 27.9027 36.2051C28.1989 35.5586 28.9632 34.7705 29.5865 34.4689C29.8242 34.3539 30.2636 34.2134 30.5628 34.1567C30.8621 34.1 31.1884 33.9721 31.288 33.8727C31.7721 33.3889 32.1089 30.9415 32.0237 28.5268C31.7719 21.3891 28.61 14.3254 24.2069 11.0643C22.2125 9.58716 20.4454 8.93015 17.8636 8.70594L16.4516 8.58336L15.7893 8.11629C14.0183 6.86745 12.2921 6.47672 10.7965 6.98614ZM13.76 8.77998C14.1669 8.9731 14.8427 9.38457 15.2619 9.69439L16.0239 10.2576L17.3345 10.2927C20.2126 10.3697 22.43 11.3665 24.6311 13.5726C27.6517 16.6004 29.8022 21.7223 30.366 27.2314C30.5061 28.6003 30.4368 31.2219 30.2388 32.0469C30.115 32.5622 30.0972 32.5821 29.6116 32.746C27.527 33.4498 26.0733 35.3564 26.0733 37.3867C26.0733 38.2611 26.2533 38.904 26.7106 39.663L27.0558 40.236H18.3475H9.63925L9.58371 39.8623C9.17372 37.1028 9.82999 34.319 11.4399 31.9895C11.7286 31.5717 12.5886 30.5769 13.351 29.7787C16.7077 26.2648 17.5965 24.7973 17.303 23.2543C17.1727 22.569 16.3329 20.7535 16.012 20.4632C15.6939 20.1755 15.2151 20.2145 14.9642 20.5484C14.0728 21.7342 13.6868 21.8879 12.0645 21.7039C10.1868 21.4908 9.57374 21.4691 9.16175 21.6011C8.62862 21.772 8.14435 22.154 7.95341 22.5542C7.80474 22.8656 7.80644 22.9328 7.97564 23.4916C8.07595 23.8227 8.13966 24.1101 8.11713 24.1301C8.03696 24.2015 5.70083 25.2889 5.68139 25.2639C5.57032 25.1206 3.53959 21.2813 3.53959 21.2146C3.53959 21.1653 5.82447 18.9618 8.61706 16.3179C11.5066 13.5822 13.7192 11.4123 13.7519 11.2822C13.7834 11.1566 13.7786 10.9717 13.7412 10.8714C13.686 10.7233 12.6451 9.36962 11.9233 8.50733C11.7705 8.32467 11.7854 8.32038 12.3928 8.3737C12.8175 8.41097 13.2591 8.54221 13.76 8.77998ZM37.1754 9.44087C36.9333 9.54082 33.8621 13.2938 33.6879 13.7025C33.5515 14.0226 33.6839 14.483 33.954 14.6275C34.242 14.7814 34.7315 14.7415 34.9223 14.5484C35.0182 14.4514 35.4333 13.9551 35.8446 13.4457L36.5924 12.5195L36.6422 17.4676L36.6921 22.4157L36.9719 22.656L37.2516 22.8965H40.9352H44.6188V27.4352V31.9739L44.8635 32.2185C45.1873 32.5421 45.6455 32.5421 45.9693 32.2185L46.2141 31.9739V26.8826V21.7913L45.9693 21.5467L45.7246 21.3021H41.981H38.2375L38.2407 16.8426C38.2432 13.3187 38.2693 12.4156 38.3654 12.5374C38.4322 12.6223 38.8592 13.1491 39.3143 13.7083C40.0987 14.672 40.1614 14.725 40.5183 14.725C40.783 14.725 40.9592 14.6565 41.1117 14.4944C41.5516 14.0264 41.4529 13.8259 39.7259 11.682C38.8444 10.5879 38.0704 9.63948 38.0059 9.5746C37.8366 9.4043 37.4244 9.33793 37.1754 9.44087ZM45.7654 9.95478C45.4547 10.1283 45.3167 10.3518 45.3167 10.6812C45.3167 10.9287 45.4755 11.1436 46.1847 11.8556L47.0526 12.7271L46.1847 13.6136C45.2074 14.6116 45.1 14.9161 45.5615 15.3772C46.0217 15.8373 46.348 15.7096 47.4332 14.6438L48.2036 13.8872L49.0904 14.7545C50.0538 15.6967 50.2693 15.7832 50.7373 15.4153C50.9365 15.2588 51 15.1197 51 14.8401C51 14.5102 50.9115 14.3835 50.1564 13.6327L49.3129 12.7941L50.1564 11.9194C50.8801 11.1691 51 10.9963 51 10.7036C51 10.2137 50.713 9.90186 50.2622 9.90186C49.937 9.90186 49.8027 9.99603 49.0265 10.7682L48.1557 11.6345L47.3096 10.7937C46.4457 9.93535 46.1184 9.75747 45.7654 9.95478ZM18.541 12.1794C18.0644 12.6556 18.2508 13.2028 19.0227 13.593C20.3681 14.2731 21.9014 15.6057 22.9806 17.0329C24.5779 19.1452 25.7449 22.0125 26.2672 25.1078C26.4496 26.1883 26.6637 28.6307 26.6695 29.6978C26.6721 30.162 26.9538 30.4701 27.3761 30.4701C27.7991 30.4701 28.0289 30.3255 28.1479 29.9842C28.2789 29.6086 28.1345 26.6884 27.9151 25.2776C26.9828 19.2825 23.9493 14.3493 19.926 12.2858C19.1173 11.871 18.8686 11.8519 18.541 12.1794ZM44.6139 35.7818C43.2362 36.1711 42.3852 37.3011 42.3852 38.7412C42.3852 39.9849 42.99 40.9567 44.1042 41.5036C44.8635 41.8763 46.0244 41.8927 46.7126 41.5406C47.3208 41.2294 47.8726 40.6863 48.19 40.0865C48.5521 39.4021 48.5651 38.2455 48.2193 37.4729C47.9497 36.8703 47.2853 36.2159 46.6647 35.9415C46.0989 35.6913 45.1855 35.6203 44.6139 35.7818ZM46.0645 37.4457C46.5359 37.6738 46.912 38.2454 46.912 38.7338C46.912 39.2351 46.5618 39.8086 46.117 40.0354C45.6181 40.2897 45.2889 40.2886 44.756 40.0307C44.3171 39.8183 43.9208 39.2183 43.9208 38.766C43.9208 38.2304 44.3385 37.6223 44.868 37.3871C45.2877 37.2007 45.5885 37.2154 46.0645 37.4457ZM31.5572 43.2255V44.6207H18.9443H6.33138V43.2255V41.8304H18.9443H31.5572V43.2255ZM36.1238 46.3347C36.2902 46.501 36.2902 49.1181 36.1238 49.2844C36.0316 49.3765 32.0654 49.404 18.878 49.404C2.04798 49.404 1.75005 49.4007 1.64865 49.2112C1.59192 49.1052 1.54545 48.4744 1.54545 47.8095C1.54545 47.1447 1.59192 46.5139 1.64865 46.4078C1.75005 46.2184 2.04798 46.2151 18.878 46.2151C32.0654 46.2151 36.0316 46.2426 36.1238 46.3347Z" fill="#D94EDC"/>
</svg>
