<svg width="49" height="51" viewBox="0 0 49 51" fill="none" xmlns="http://www.w3.org/2000/svg">
<path fill-rule="evenodd" clip-rule="evenodd" d="M2.6728 0.108848C1.63755 0.396162 0.631537 1.31587 0.224512 2.34721L0 2.91605V20.5739V38.2318L0.226168 38.8051C0.541791 39.6053 1.2735 40.3936 2.07615 40.7982L2.72415 41.1249L10.327 41.1499C16.2846 41.1695 17.9825 41.1478 18.1734 41.0493C18.3074 40.9803 18.4957 40.7592 18.592 40.5581C18.7493 40.2294 18.7528 40.1578 18.6266 39.8487C18.3358 39.1361 18.8555 39.1797 10.6241 39.1779L3.21566 39.1762L2.83505 38.9534C2.36497 38.6782 2.10899 38.335 1.99342 37.825C1.94246 37.6 1.90387 31.3822 1.9025 23.1927L1.90016 8.95164H21.2429H40.5856V21.6214C40.5856 28.5898 40.552 34.2912 40.5108 34.2912C40.4697 34.2912 39.7133 33.86 38.8299 33.333C36.7435 32.0884 36.5613 31.9965 36.1801 31.997C35.7415 31.9975 35.257 32.3225 35.058 32.7497C34.899 33.0912 34.9051 33.2111 35.2124 35.8181C35.3884 37.3103 35.556 38.6769 35.5849 38.8553L35.6376 39.1795H30.8048H25.972L25.656 39.4686C25.3945 39.7078 25.3399 39.8299 25.3399 40.1771C25.3399 40.5243 25.3945 40.6464 25.656 40.8856L25.972 41.1747H30.9218H35.8717L36.1457 43.594C36.4465 46.2502 36.5805 46.7476 37.0642 47.0037C37.4597 47.2131 38.0345 47.2012 38.3931 46.9764C38.5539 46.8755 38.9479 46.4492 39.2688 46.029C39.5897 45.6087 39.8747 45.2676 39.9022 45.2707C39.9297 45.2738 40.6935 46.4394 41.5996 47.8608C42.5057 49.2822 43.3746 50.5703 43.5305 50.7232C43.7667 50.9549 43.8983 51.0011 44.3193 51C44.7997 50.9987 44.9102 50.9409 46.5784 49.8184C47.5431 49.1693 48.4532 48.5215 48.601 48.3788C48.9369 48.0544 49.0771 47.5672 48.9584 47.1355C48.9094 46.9572 48.1046 45.6223 47.1701 44.1693C46.2355 42.7162 45.4847 41.513 45.5016 41.4956C45.5186 41.4782 45.9779 41.3369 46.5222 41.1816C47.5498 40.8883 47.8128 40.7267 48.0607 40.236C48.2295 39.9018 48.1835 39.2924 47.9635 38.9486C47.8848 38.8258 46.6319 38.0106 45.1792 37.1371L42.5379 35.5489L42.5118 19.2325L42.4857 2.91605L42.2582 2.33893C41.9394 1.53016 41.147 0.679885 40.3694 0.312362L39.7573 0.0229531L21.4378 0.00409812C7.1265 -0.0106666 3.02078 0.0122786 2.6728 0.108848ZM39.8381 2.29772C40.4914 2.80791 40.5368 2.98738 40.5368 5.06093V6.90652H21.2429H1.94889L1.94967 5.06093C1.95045 3.11727 1.99829 2.86806 2.45073 2.44886C3.00304 1.93708 1.77534 1.96671 21.3479 1.99345L39.4802 2.01819L39.8381 2.29772ZM4.13388 3.8561C3.76476 4.234 3.74859 4.72393 4.09159 5.14124C4.55533 5.70539 5.38468 5.58119 5.66006 4.9063C6.0664 3.91077 4.87875 3.09352 4.13388 3.8561ZM7.721 3.8176C7.37352 4.17345 7.31486 4.50805 7.52358 4.94301C7.99482 5.92457 9.30594 5.56193 9.30594 4.44999C9.30594 3.6892 8.25578 3.2702 7.721 3.8176ZM11.3031 3.80533C10.8416 4.2778 10.8729 4.91079 11.377 5.29497C11.7902 5.60992 12.3044 5.55375 12.6517 5.1558C12.894 4.87807 12.9258 4.77601 12.8796 4.42345C12.8088 3.88254 12.4561 3.5645 11.9271 3.5645C11.646 3.5645 11.4731 3.63124 11.3031 3.80533ZM8.17139 13.1408C7.65445 13.3543 7.64938 13.3952 7.64938 17.3604C7.64938 19.6905 7.68612 21.1062 7.74975 21.2278C7.99492 21.6969 8.19799 21.7213 11.859 21.7197C15.6389 21.7181 15.6645 21.7144 15.9583 21.1212C16.1151 20.8048 16.1282 20.4518 16.1044 17.1987L16.0783 13.6239L15.7601 13.3329L15.4418 13.0419L11.911 13.0482C9.96904 13.0517 8.28628 13.0934 8.17139 13.1408ZM20.685 13.1974C20.1607 13.4887 20.0487 14.2239 20.4548 14.7073L20.69 14.9872L27.4671 15.0142L34.2443 15.0411L34.5624 14.75C34.8262 14.5088 34.8807 14.3872 34.8807 14.0395C34.8807 13.6923 34.8261 13.5702 34.5646 13.331L34.2486 13.0419L27.5996 13.0459C21.9217 13.0493 20.9118 13.0714 20.685 13.1974ZM14.1782 17.3815V19.7259H11.8882H9.59827V17.3815V15.0371H11.8882H14.1782V17.3815ZM20.7556 19.4427C20.1542 19.7813 20.033 20.5478 20.5045 21.0305L20.7894 21.3221H27.513H34.2368L34.5294 21.07C34.9002 20.7506 34.9958 20.3375 34.7921 19.9344C34.4747 19.3061 34.7218 19.3266 27.5085 19.3299C22.9279 19.3321 20.8918 19.366 20.7556 19.4427ZM8.23405 25.7224C7.61576 25.9707 7.44338 26.8274 7.91121 27.3273L8.17305 27.6071H21.2158C35.6707 27.6071 34.6111 27.6575 34.8363 26.9591C34.9208 26.6967 34.9123 26.5504 34.7959 26.2653C34.5122 25.5701 35.3749 25.6112 21.2216 25.6182C13.1364 25.6223 8.38859 25.6603 8.23405 25.7224ZM7.91121 32.2765C7.37878 32.8454 7.67686 33.773 8.44248 33.9298C8.60921 33.9639 13.443 33.9894 19.1844 33.9863C27.0041 33.982 29.7086 33.9508 29.9641 33.8616C30.4374 33.6963 30.7082 33.1397 30.5516 32.6539C30.3243 31.9486 31.1638 31.9966 19.072 31.9966H8.17305L7.91121 32.2765ZM42.3133 37.7329C43.8716 38.6657 45.1293 39.4574 45.1084 39.4924C45.0873 39.5274 44.9053 39.587 44.7037 39.625C43.718 39.8108 43.1203 40.3503 43.1195 41.055C43.119 41.4682 43.259 41.7444 44.1913 43.17C44.604 43.801 45.3643 44.9808 45.881 45.792L46.8204 47.2668L45.6876 48.0198C44.7638 48.6337 44.5332 48.7483 44.438 48.64C44.3738 48.567 43.5415 47.2865 42.5883 45.7946C40.7622 42.9362 40.6163 42.7709 39.9177 42.7709C39.4431 42.7709 39.162 42.9583 38.6651 43.6057C38.3926 43.9609 38.1895 44.1512 38.1748 44.0651C38.1106 43.6874 37.0776 34.9536 37.0776 34.7877C37.0776 34.6313 37.2836 34.7223 38.2788 35.318C38.9394 35.7135 40.7549 36.8002 42.3133 37.7329ZM21.6326 39.2953C21.3061 39.4791 21.1012 39.8107 21.0988 40.1588C21.096 40.593 21.2337 40.8397 21.582 41.0241C22.0058 41.2484 22.3238 41.2081 22.6764 40.8856C22.9379 40.6464 22.9925 40.5243 22.9925 40.1771C22.9925 39.4537 22.2297 38.9591 21.6326 39.2953Z" fill="#9549D1"/>
</svg>
