<svg width="60" height="50" viewBox="0 0 60 50" fill="none" xmlns="http://www.w3.org/2000/svg">
<path fill-rule="evenodd" clip-rule="evenodd" d="M1.64822 0.326213C0.954023 0.671923 0.504894 1.16037 0.19143 1.91041C0.0220063 2.31586 0 4.95081 0 24.8865C0 42.201 0.035135 47.5235 0.152043 47.9191C0.354976 48.6057 1.39077 49.6411 2.07759 49.8439C2.4652 49.9584 5.4073 49.9959 13.9929 49.9959H25.3936L25.7005 49.6891C26.1066 49.2832 26.1066 48.7088 25.7005 48.303L25.3936 47.9961H14.004H2.61437L2.30753 47.6893L2.00057 47.3826V28.6915V10.0005H30.0086H58.0166V28.6915V47.3826L57.7096 47.6893L57.4028 47.9961H54.0154H50.6281L50.3213 48.303C50.1277 48.4963 50.0143 48.7525 50.0143 48.996C50.0143 49.2395 50.1277 49.4957 50.3213 49.6891L50.6281 49.9959H54.0266C56.3292 49.9959 57.5908 49.9469 57.9396 49.8439C58.6663 49.6293 59.6724 48.6022 59.8719 47.8711C59.9913 47.4341 60.0175 42.2654 59.99 24.6764L59.9546 2.04427L59.5763 1.43246C59.3417 1.05325 58.9651 0.676798 58.5858 0.442324L57.9737 0.0641177L30.1384 0.0319964L2.30303 0L1.64822 0.326213ZM57.4343 2.14013C57.9552 2.37735 58.0166 2.72594 58.0166 5.44438V8.00071H30.0086H2.00057V5.44438C2.00057 2.76843 2.06472 2.3806 2.54623 2.14763C2.93709 1.9584 57.0192 1.95115 57.4343 2.14013ZM4.30811 4.30801C4.11455 4.50136 4.00114 4.75758 4.00114 5.00105C4.00114 5.24452 4.11455 5.50074 4.30811 5.6941C4.92828 6.31415 6.00172 5.87483 6.00172 5.00105C6.00172 4.48724 5.51545 4.00117 5.00143 4.00117C4.75786 4.00117 4.50154 4.11453 4.30811 4.30801ZM8.30925 4.30801C8.1157 4.50136 8.00229 4.75758 8.00229 5.00105C8.00229 5.24452 8.1157 5.50074 8.30925 5.6941C8.50268 5.88757 8.759 6.00094 9.00257 6.00094C9.24614 6.00094 9.50247 5.88757 9.6959 5.6941C9.88945 5.50074 10.0029 5.24452 10.0029 5.00105C10.0029 4.75758 9.88945 4.50136 9.6959 4.30801C9.50247 4.11453 9.24614 4.00117 9.00257 4.00117C8.759 4.00117 8.50268 4.11453 8.30925 4.30801ZM12.3104 4.30801C12.1168 4.50136 12.0034 4.75758 12.0034 5.00105C12.0034 5.24452 12.1168 5.50074 12.3104 5.6941C12.5038 5.88757 12.7601 6.00094 13.0037 6.00094C13.2473 6.00094 13.5036 5.88757 13.697 5.6941C13.8906 5.50074 14.004 5.24452 14.004 5.00105C14.004 4.75758 13.8906 4.50136 13.697 4.30801C13.5036 4.11453 13.2473 4.00117 13.0037 4.00117C12.7601 4.00117 12.5038 4.11453 12.3104 4.30801ZM4.30811 16.3066C4.11455 16.5 4.00114 16.7562 4.00114 16.9997C4.00114 17.2431 4.11455 17.4994 4.30811 17.6927L4.61494 17.9996H11.0031H17.3913L17.6982 17.6927C17.8917 17.4994 18.0051 17.2431 18.0051 16.9997C18.0051 16.7562 17.8917 16.5 17.6982 16.3066L17.3913 15.9998H11.0031H4.61494L4.30811 16.3066ZM4.30811 20.3062C4.11455 20.4995 4.00114 20.7557 4.00114 20.9992C4.00114 21.2427 4.11455 21.4989 4.30811 21.6923L4.61494 21.9991H8.00229H11.3896L11.6965 21.6923C12.1026 21.2864 12.1026 20.712 11.6965 20.3062L11.3896 19.9993H8.00229H4.61494L4.30811 20.3062ZM23.9981 20.9275C21.5979 21.6861 21.4107 21.7749 21.3027 22.2052C21.2581 22.3833 21.3198 23.3773 21.4401 24.4141C21.6905 26.5725 21.8265 26.2104 20.3748 27.2485C19.9422 27.5578 19.5311 27.7934 19.4613 27.7721C19.3915 27.7506 18.6071 27.3991 17.7179 26.9909C16.08 26.2387 15.5877 26.1229 15.2277 26.4048C15.1179 26.4908 14.4601 27.3475 13.7659 28.3088C12.7695 29.6882 12.5036 30.144 12.5036 30.4723C12.5036 30.9026 12.6629 31.1072 14.5184 33.0603L15.2309 33.8102L14.8191 35.0579L14.4072 36.3056L12.4296 36.7007C10.824 37.0215 10.4095 37.148 10.2273 37.373C10.0292 37.6174 10.0029 37.9255 10.0029 39.997C10.0029 42.0686 10.0292 42.3766 10.2273 42.6211C10.4096 42.8462 10.8251 42.9728 12.4412 43.2958L14.4306 43.6932L14.6619 44.501C15.0017 45.6875 15.7478 46.2008 16.4061 45.701C16.8648 45.3525 16.8852 44.9647 16.5142 43.6344C16.321 42.9418 16.0932 42.291 16.0078 42.1882C15.8174 41.9589 15.3781 41.8344 13.4802 41.4719L12.0034 41.1897L12.0038 39.9997L12.0041 38.8097L13.7714 38.4691C14.7436 38.2817 15.6704 38.0424 15.8309 37.9371C16.0226 37.8117 16.1906 37.4989 16.3198 37.0279C16.4279 36.633 16.6901 35.8319 16.9025 35.2476C17.5834 33.3737 17.6107 33.4863 16.0693 31.8159L14.734 30.3685L15.3935 29.4647C15.7563 28.9676 16.0701 28.5376 16.0909 28.5094C16.1116 28.481 16.8866 28.8043 17.813 29.228C18.7395 29.6516 19.6574 29.9982 19.8528 29.9982C20.0954 29.9982 20.4243 29.813 20.8885 29.4151C21.2626 29.0944 21.9907 28.556 22.5064 28.2185C23.0222 27.8812 23.5167 27.468 23.6052 27.3004C23.7384 27.0484 23.7294 26.6807 23.5537 25.1801C23.4262 24.0916 23.3868 23.3228 23.4552 23.2605C23.5745 23.1517 25.5322 22.4792 25.5772 22.5314C25.5914 22.548 25.9769 23.2365 26.4338 24.0614C26.8907 24.8863 27.3915 25.6746 27.5466 25.813C27.8077 26.0463 27.9931 26.0643 30.0468 26.0566C32.0743 26.049 32.2857 26.0274 32.5039 25.8048C32.6352 25.6708 33.1207 24.8863 33.5829 24.0614C34.045 23.2365 34.4327 22.548 34.4445 22.5314C34.4826 22.4778 36.4444 23.1532 36.562 23.2605C36.6303 23.3228 36.5915 24.0869 36.4648 25.1682C36.2147 27.3041 36.2539 27.4573 37.1884 27.995C37.5376 28.1959 38.2826 28.7288 38.8439 29.1793C39.5207 29.7223 39.9753 29.9982 40.1937 29.9982C40.3749 29.9982 41.2816 29.6527 42.2084 29.2305C43.1355 28.8084 43.9096 28.485 43.9289 28.5119C43.9482 28.5389 44.2609 28.9676 44.6236 29.4647L45.2832 30.3685L43.9602 31.8024C42.9712 32.8744 42.6372 33.3201 42.6372 33.5684C42.6372 33.7511 42.8342 34.4267 43.0752 35.0695C43.316 35.7124 43.5758 36.5308 43.6526 36.8883C43.8718 37.9099 44.0658 38.0293 46.1748 38.4403L48.0137 38.7987V39.997V41.1954L46.1748 41.5537C44.0658 41.9648 43.8718 42.0842 43.6526 43.1058C43.5758 43.4633 43.316 44.2817 43.0752 44.9246C42.8342 45.5674 42.6372 46.2411 42.6372 46.4216C42.6372 46.6615 42.9565 47.099 43.8257 48.0497C45.7067 50.1074 45.9958 50.278 46.684 49.7368C46.9243 49.5479 47.0134 49.363 47.0134 49.0537C47.0134 48.5978 46.788 48.2816 45.5019 46.9337L44.7863 46.1838L45.1974 44.9383L45.6084 43.693L47.5815 43.3023C49.2059 42.9807 49.5951 42.8616 49.7844 42.6279C49.9893 42.3749 50.0143 42.0893 50.0143 39.997C50.0143 37.9104 49.9889 37.6187 49.7859 37.368C49.5991 37.1375 49.1976 37.0135 47.5835 36.6883L45.6095 36.2906L45.1972 35.0596L44.7847 33.8285L46.1492 32.3555C47.3117 31.1006 47.5136 30.8215 47.5136 30.4701C47.5136 30.1443 47.2381 29.6793 46.2007 28.2543C45.4785 27.2624 44.8174 26.4062 44.7315 26.3516C44.3874 26.1333 43.8267 26.2824 42.237 27.0152C41.3224 27.4367 40.5178 27.7826 40.4491 27.7838C40.209 27.7879 38.386 26.3309 38.3853 26.1344C38.385 26.0254 38.4784 25.1337 38.5929 24.153C38.767 22.6625 38.7741 22.3193 38.6364 22.0623C38.4485 21.7114 38.1003 21.5642 35.688 20.8154C34.2951 20.383 33.8939 20.3027 33.615 20.3999C33.343 20.4946 33.0607 20.8924 32.2952 22.2591L31.3215 23.9977L30.0043 23.9984C28.6978 23.9989 28.6856 23.9961 28.492 23.6552C28.3847 23.4662 27.9429 22.6815 27.51 21.9116C26.9194 20.8609 26.6395 20.4825 26.3878 20.3949C26.1192 20.3013 25.6445 20.407 23.9981 20.9275ZM28.133 30.1777C23.9671 31.0609 20.9815 34.0837 20.1825 38.227C19.8588 39.9058 19.9785 41.4214 20.5799 43.2625C20.9025 44.2499 21.6148 45.5675 21.9735 45.8401C22.29 46.0806 22.9722 46.0307 23.2566 45.7464C23.6323 45.3709 23.5644 44.9287 22.9402 43.6866C21.7105 41.2393 21.6998 38.7787 22.9087 36.3725C23.2989 35.5955 23.6776 35.0749 24.3185 34.4344C25.8403 32.9136 27.49 32.1613 29.571 32.0392C34.3213 31.7604 38.2486 35.686 37.9696 40.4345C37.8472 42.519 37.0947 44.1631 35.5658 45.6863C34.1638 47.0831 32.0698 47.9872 30.2218 47.994C29.7536 47.9956 29.5548 48.0634 29.3153 48.303C28.9018 48.7162 28.9089 49.283 29.3329 49.7068C29.6445 50.0183 29.6987 50.0283 30.677 49.956C33.8622 49.7208 36.6411 48.0804 38.3997 45.3973C39.5012 43.7169 39.9434 42.1699 39.9434 39.997C39.9434 37.8242 39.5012 36.2772 38.3997 34.5968C36.9811 32.4325 34.9783 30.9986 32.3861 30.2915C31.4134 30.0262 29.1352 29.9652 28.133 30.1777Z" fill="#FF6900"/>
</svg>
