<svg width="51" height="48" viewBox="0 0 51 48" fill="none" xmlns="http://www.w3.org/2000/svg">
<path fill-rule="evenodd" clip-rule="evenodd" d="M18.9334 1.67042C15.4535 5.23257 11.4551 7.85741 6.92317 9.55494C5.50935 10.0845 3.5404 10.6416 2.10978 10.9168C0.533009 11.2199 0.26837 11.3061 0.124835 11.5632C-0.0694951 11.9112 -0.0275512 16.6581 0.185588 18.4356C0.590946 21.8172 1.22544 24.4233 2.39222 27.5006C5.07281 34.57 10.1907 40.9867 16.9461 45.748C18.5826 46.9014 20.4907 48 20.8574 48C21.3391 48 24.2426 46.1948 26.2856 44.6252C32.0546 40.1931 36.3912 34.6303 38.9605 28.3665C39.5462 26.9383 40.2586 24.7587 40.577 23.4205L40.8001 22.4824L41.7229 22.4221C44.1088 22.2661 46.3894 21.1448 48.1887 19.243C49.4302 17.9307 50.2496 16.4348 50.7185 14.6253C51.0744 13.2509 51.0959 10.9911 50.7655 9.64796C50.2878 7.70485 49.3712 6.04121 48.011 4.64828C45.1417 1.70987 40.9751 0.825308 37.0721 2.32568C34.9557 3.13937 32.8567 5.07352 31.804 7.18001C31.4765 7.83537 31.3413 8.01584 31.2099 7.9734C30.8049 7.84237 28.8656 6.70203 27.7087 5.91451C25.5045 4.41414 23.591 2.7198 21.6356 0.537286C20.8754 -0.311222 20.8653 -0.306999 18.9334 1.67042ZM24.2888 5.46651C26.0114 6.87797 28.2099 8.33436 30.0421 9.27784L30.8508 9.69422L30.7879 10.0732C30.7533 10.2817 30.696 10.7883 30.6605 11.199C30.6251 11.6098 30.5652 11.9459 30.5273 11.9459C30.4895 11.9459 29.7832 11.601 28.9579 11.1794C26.1479 9.74449 23.795 7.91726 21.7537 5.58487C21.2659 5.02737 21.1431 4.94104 20.8378 4.94104C20.529 4.94104 20.4024 5.03344 19.815 5.68788C16.29 9.6149 11.4135 12.4065 6.18347 13.4912C4.91228 13.7549 4.69441 13.8297 4.4869 14.0742L4.24882 14.3546L4.30152 16.936C4.35624 19.6164 4.45814 20.5485 4.93823 22.7621C6.50866 30.0026 11.1521 36.7197 17.7507 41.2965C19.2998 42.3709 20.5001 43.0554 20.835 43.0554C21.1684 43.0554 22.5248 42.2793 24.0876 41.1943C30.5594 36.7009 35.1353 30.0846 36.7 22.9578C36.8384 22.3275 36.9681 21.7948 36.9882 21.7743C37.0083 21.7537 37.2483 21.8233 37.5217 21.9289C37.795 22.0346 38.2753 22.1751 38.589 22.2412L39.1594 22.3613L38.9625 23.1025C37.6344 28.1014 35.6214 32.1886 32.5601 36.1021C29.7104 39.7451 26.008 43.0645 22.1431 45.4413L20.8524 46.2351L19.9805 45.7117C16.8771 43.8488 13.3171 40.9005 10.9341 38.2198C6.20469 32.8994 3.40189 27.2954 2.17274 20.7019C1.78087 18.5994 1.47187 14.2649 1.63703 13.1852C1.70563 12.7365 1.71891 12.7226 2.16007 12.6386C3.26912 12.4275 5.19593 11.9102 6.50494 11.4721C11.2874 9.8714 15.9423 7.00365 19.5539 3.43326L20.8186 2.1829L22.0759 3.43326C22.7674 4.12086 23.7632 5.03581 24.2888 5.46651ZM42.4103 3.438C46.1307 4.16959 48.9497 7.31351 49.3222 11.1468C49.8436 16.5091 45.6117 21.0648 40.3824 20.7707C36.6187 20.559 33.507 17.9404 32.5276 14.1606C32.365 13.5336 32.3135 13.0285 32.3118 12.0489C32.3092 10.4541 32.5183 9.5636 33.2545 8.03439C33.7092 7.08977 33.8937 6.83255 34.7394 5.96354C36.1043 4.56124 37.4314 3.80843 39.1753 3.44747C40.0563 3.26525 41.5099 3.26092 42.4103 3.438ZM23.5925 9.68093C25.4207 11.1727 27.4399 12.4142 29.5389 13.337L30.754 13.8711L30.9335 14.5824C31.4346 16.5676 32.281 18.0572 33.7547 19.5473C34.1073 19.9037 34.6099 20.3441 34.8718 20.5259C35.4421 20.9218 35.4432 20.9322 35.0928 22.5437C33.6108 29.3577 29.3201 35.5404 23.0817 39.8513C22.4455 40.291 21.6756 40.7948 21.3706 40.971L20.8162 41.2914L19.81 40.6539C16.4328 38.5145 13.5848 35.8715 11.2421 32.7027C9.77274 30.7151 8.2526 27.8789 7.44068 25.6097C6.46903 22.894 5.88202 19.4547 5.88181 16.4758L5.88171 15.2887L6.76183 15.1053C9.53707 14.5272 12.7695 13.2127 15.2864 11.6387C16.8307 10.6729 18.5315 9.32554 20.064 7.85381L20.8182 7.12953L21.7236 8.01214C22.2216 8.49753 23.0626 9.24848 23.5925 9.68093ZM45.1601 8.12493C44.9942 8.23258 43.3873 9.62262 41.5894 11.214L38.3204 14.1072L37.3808 13.0781C36.5066 12.1206 36.4144 12.0489 36.0554 12.0489C35.7583 12.0489 35.6215 12.1113 35.461 12.3203C35.0682 12.8316 35.166 13.0896 36.1829 14.225C36.6946 14.7964 37.2491 15.4201 37.4151 15.6111C37.756 16.0034 38.113 16.164 38.4465 16.0752C38.6836 16.012 45.7612 9.84369 46.178 9.33687C46.4989 8.94666 46.4816 8.59642 46.1234 8.22949C45.7803 7.87812 45.575 7.85587 45.1601 8.12493ZM19.4843 14.0057C19.2627 14.2171 19.2117 14.4111 19.0829 15.5329L19.0081 16.1843L18.277 16.4965C17.4503 16.8496 17.6097 16.8928 16.5097 16.0182C15.6116 15.304 15.5235 15.3291 14.1939 16.6757C13.1961 17.6864 13.0836 17.8372 13.0836 18.1653C13.0836 18.4205 13.1804 18.6554 13.4055 18.9464C13.5825 19.1754 13.8697 19.5469 14.0437 19.772C14.2709 20.0658 14.3316 20.2182 14.259 20.3128C14.2034 20.3851 14.0768 20.6667 13.9775 20.9385C13.8782 21.2103 13.7247 21.472 13.6364 21.5201C13.5481 21.5682 13.1138 21.6412 12.6712 21.6825C11.8198 21.762 11.378 21.9257 11.2752 22.2002C11.2409 22.2918 11.2127 23.0729 11.2127 23.9357C11.2127 25.3722 11.23 25.5236 11.4178 25.73C11.5306 25.854 11.6551 25.9595 11.6944 25.9643C11.7337 25.9692 12.1948 26.0271 12.719 26.0931L13.672 26.213L13.9588 26.9201L14.2456 27.6271L13.9532 28.0017C12.6036 29.7307 12.6046 29.6695 13.9034 31.0265C14.966 32.1371 15.3237 32.3916 15.6686 32.2833C15.7903 32.245 16.1841 31.9732 16.5437 31.6793C16.9033 31.3854 17.2489 31.1135 17.3118 31.0752C17.4802 30.9723 18.7329 31.5849 18.7921 31.7989C18.82 31.8995 18.8739 32.3293 18.912 32.7542C18.9857 33.5773 19.1504 34.0285 19.4149 34.1324C19.5044 34.1676 20.2677 34.1964 21.111 34.1964C22.6107 34.1964 22.6494 34.1908 22.8773 33.9425C23.0652 33.7376 23.1294 33.5039 23.2098 32.7308L23.3094 31.773L24.0562 31.483C24.8996 31.1554 24.7409 31.1111 25.8315 31.9783C26.7139 32.6799 26.8252 32.6528 28.0368 31.4408C29.0465 30.4307 29.3712 29.9365 29.251 29.5924C29.2152 29.4901 28.9464 29.099 28.6537 28.7233L28.1216 28.0401L28.4654 27.2296L28.8092 26.419L29.6923 26.3123C30.619 26.2004 30.9632 26.0709 31.0664 25.7954C31.1006 25.7042 31.1285 24.923 31.1285 24.0593C31.1285 22.1114 31.1079 22.0781 29.8043 21.9196C29.3433 21.8634 28.9402 21.7867 28.9087 21.749C28.726 21.5304 28.2934 20.1394 28.3727 20.0257C28.4224 19.9544 28.678 19.6092 28.9408 19.2587C29.6492 18.3135 29.627 18.2125 28.4379 16.9699C27.3752 15.8594 27.0175 15.6048 26.6726 15.7132C26.5509 15.7515 26.1512 16.0295 25.7844 16.3312L25.1173 16.8796L24.3259 16.5278L23.5344 16.1761L23.4238 15.2714C23.298 14.2413 23.2325 14.0409 22.9759 13.9002C22.8754 13.8451 22.0972 13.8001 21.2465 13.8001C19.8399 13.8001 19.6803 13.8187 19.4843 14.0057ZM21.8155 15.783C21.8431 15.9671 21.894 16.3496 21.9284 16.6329C22.0184 17.3735 22.1851 17.5788 22.856 17.7751C23.1738 17.868 23.7749 18.1242 24.1918 18.3443C24.6087 18.5645 25.062 18.7446 25.1991 18.7446C25.3483 18.7446 25.6979 18.5379 26.0699 18.2296C26.4118 17.9463 26.7305 17.7145 26.778 17.7145C26.8256 17.7145 27.0107 17.8689 27.1893 18.0576L27.5141 18.4009L27.006 19.0519C26.7265 19.4099 26.4714 19.811 26.439 19.9432C26.3992 20.1052 26.4967 20.4142 26.7386 20.8928C26.9358 21.2831 27.1745 21.898 27.2691 22.2595C27.4773 23.0545 27.7128 23.3486 28.1974 23.4191C28.3989 23.4484 28.7786 23.5007 29.0414 23.5355L29.5192 23.5989V24.1029C29.5192 24.6659 29.605 24.616 28.3625 24.7743C27.6422 24.8661 27.4492 25.0311 27.2563 25.7207C27.1648 26.0481 26.9122 26.6499 26.6952 27.058C26.1719 28.0416 26.1834 28.2515 26.8034 29.0458C27.08 29.4002 27.3063 29.7215 27.3063 29.7598C27.3063 29.7981 27.1556 29.9791 26.9715 30.1618L26.6366 30.4943L25.9405 29.9251C25.1147 29.25 24.8669 29.2153 24.0152 29.655C23.6954 29.8202 23.2301 30.0077 22.9812 30.0719C22.2883 30.2505 21.9765 30.3963 21.876 30.5884C21.8092 30.7163 21.573 32.2219 21.573 32.5198C21.573 32.5354 21.3497 32.5482 21.0768 32.5482C20.5057 32.5482 20.5151 32.564 20.4133 31.4416C20.3322 30.5467 20.13 30.2322 19.5307 30.0687C19.2985 30.0055 18.7676 29.7726 18.3506 29.5512C17.3311 29.01 17.1497 29.0246 16.304 29.716C15.9232 30.0273 15.5813 30.282 15.5442 30.282C15.5071 30.282 15.3296 30.1264 15.1496 29.9363L14.8224 29.5905L15.064 29.2924C15.7444 28.4532 16.0407 27.9769 16.0395 27.7245C16.0388 27.5731 15.9017 27.1733 15.7347 26.836C15.5677 26.4988 15.3594 25.9658 15.2719 25.6514C15.0495 24.8529 14.8401 24.6521 14.1473 24.5727C12.7386 24.4112 12.8221 24.454 12.8221 23.8944C12.8221 23.3341 12.7824 23.3571 13.9788 23.2216C14.591 23.1523 14.9251 23.0292 15.0581 22.8239C15.0985 22.7616 15.2263 22.4093 15.3419 22.041C15.4577 21.6727 15.6849 21.1287 15.8469 20.8322C16.0088 20.5356 16.1414 20.1809 16.1414 20.044C16.1414 19.9053 15.9301 19.5132 15.6636 19.1577C15.4008 18.8072 15.141 18.4552 15.0862 18.3756C15.0121 18.2681 15.078 18.1374 15.3438 17.8652L15.701 17.4993L16.3932 18.0643C16.7741 18.375 17.1896 18.656 17.3167 18.6887C17.469 18.7278 17.7834 18.6266 18.2385 18.3919C18.6183 18.1961 19.2317 17.9357 19.6015 17.8133C20.0205 17.6746 20.3294 17.5041 20.4212 17.3607C20.5354 17.1821 20.7431 16.0739 20.7652 15.5255C20.7669 15.4831 20.9926 15.4483 21.2667 15.4483C21.7515 15.4483 21.7664 15.4573 21.8155 15.783ZM19.912 19.548C19.1412 19.8209 18.5551 20.2128 17.9702 20.8462C15.8932 23.0953 16.5914 26.7443 19.3589 28.1039C20.0273 28.4323 20.2199 28.4783 21.0688 28.5127C22.5193 28.5716 23.582 28.1477 24.5332 27.1309C26.1984 25.3512 26.1984 22.5423 24.5332 20.7625C23.9866 20.1782 23.4594 19.8378 22.6905 19.5725C21.9137 19.3046 20.6314 19.2933 19.912 19.548ZM22.2083 21.1749C23.72 21.7024 24.5414 23.5995 23.8991 25.0799C23.0838 26.959 20.8519 27.464 19.3744 26.1035C18.1019 24.9318 18.1027 22.9608 19.3762 21.7882C20.182 21.0463 21.2049 20.8248 22.2083 21.1749Z" fill="#56A409"/>
</svg>
