<svg width="60" height="57" viewBox="0 0 60 57" fill="none" xmlns="http://www.w3.org/2000/svg">
<path fill-rule="evenodd" clip-rule="evenodd" d="M2.74234 0.109058C1.66645 0.493736 0.807223 1.28526 0.307206 2.35213L0.0458844 2.90975L0.00977529 22.1898C-0.0168376 36.416 0.00918909 41.6364 0.108841 42.1049C0.183052 42.4542 0.366997 42.9507 0.517647 43.2084C0.880731 43.8296 1.75016 44.6061 2.42861 44.9148C2.97576 45.1639 2.9978 45.1644 13.4402 45.1962L23.9037 45.2281V45.619C23.9037 46.3613 23.557 47.7905 23.1832 48.589C22.915 49.1621 22.6163 49.5652 22.1333 50.0055C21.1798 50.8748 20.7343 51.0035 18.3349 51.1027C16.7162 51.1696 16.2426 51.2287 15.813 51.4174C15.1603 51.7042 14.558 52.2838 14.2751 52.8969C13.9884 53.5183 13.9889 54.706 14.2759 55.3284C14.5436 55.9084 15.4699 56.726 16.0343 56.8805C16.617 57.0398 43.383 57.0398 43.9656 56.8805C44.5301 56.726 45.4564 55.9084 45.7241 55.3284C46.0111 54.706 46.0116 53.5183 45.7249 52.8969C45.442 52.2838 44.8397 51.7042 44.187 51.4174C43.7574 51.2287 43.2838 51.1696 41.6651 51.1027C39.2657 51.0035 38.8202 50.8748 37.8667 50.0055C37.3847 49.566 37.0877 49.1657 36.8277 48.6048C36.4525 47.7958 36.0963 46.3487 36.0963 45.634V45.2281L46.5598 45.1962C57.0022 45.1644 57.0242 45.1639 57.5714 44.9148C58.2498 44.6061 59.1193 43.8296 59.4824 43.2084C59.633 42.9507 59.8169 42.4542 59.8912 42.1049C59.9908 41.6364 60.0168 36.416 59.9902 22.1898L59.9541 2.90975L59.6411 2.25215C59.2632 1.45832 58.5174 0.702931 57.7253 0.312134L57.1404 0.0235094L30.1172 0.0034212C10.8686 -0.01101 2.99288 0.0194687 2.74234 0.109058ZM56.928 2.11961C57.1531 2.22479 57.4776 2.51976 57.6491 2.77502L57.9611 3.23924V19.2952V35.3511L56.9939 35.3846L56.0267 35.4182V20.0511C56.0267 4.18247 56.0326 4.39039 55.5679 4.03908C55.2963 3.83369 4.70372 3.83369 4.43208 4.03908C3.96735 4.39039 3.97333 4.18247 3.97333 20.0511V35.4182L3.00612 35.3846L2.03892 35.3511V19.2952V3.23924L2.34948 2.7771C2.97154 1.85142 0.274732 1.93397 29.9823 1.93108C54.4437 1.92866 56.5508 1.94344 56.928 2.11961ZM54.0336 20.5735V35.2934H30H5.96636V20.5735V5.85372H30H54.0336V20.5735ZM13.2884 8.09979L13.0006 8.3831V18.0797V27.7762L13.2835 28.1002L13.5664 28.4241L25.3247 28.4819L37.083 28.5396L37.592 30.2136C38.1475 32.0407 38.3904 32.4071 39.0463 32.4071C39.3313 32.4071 39.5809 32.2382 40.2746 31.5758L41.1452 30.7446L42.4017 31.9748C43.675 33.2216 44.0137 33.4465 44.4844 33.358C44.6283 33.3309 45.4903 32.5693 46.4002 31.6656C48.5406 29.5397 48.5254 29.7231 46.7122 27.9152L45.3698 26.5768L46.1846 25.7535C46.8335 25.0979 46.9994 24.8582 46.9994 24.5767C46.9994 23.9293 46.6285 23.6906 44.7719 23.1432L43.072 22.6419L43.0417 15.5337L43.0116 8.42548L42.7249 8.12092L42.4383 7.81636H28.0072H13.5761L13.2884 8.09979ZM41.0203 11.2221V12.6652H28.007H14.9936V11.2221V9.77901H28.007H41.0203V11.2221ZM41.0203 18.3924C41.0203 21.2641 40.9891 22.0296 40.8738 21.9862C40.0754 21.6853 36.2551 20.6313 35.9632 20.6313C35.4441 20.6313 35.0412 21.021 35.0412 21.523C35.0412 21.8223 36.1029 25.5664 36.4171 26.3749C36.4616 26.4897 34.2769 26.5192 25.7334 26.5192H14.9936V20.6313V14.7433H28.007H41.0203V18.3924ZM17.3619 18.9028C16.9921 19.242 16.9679 19.4418 17.0085 21.8201C17.0438 23.8826 17.0565 23.9845 17.3122 24.2362C17.5786 24.4983 17.588 24.499 21.7672 24.5324C24.0707 24.551 26.0726 24.5374 26.2158 24.5022C26.3592 24.4671 26.5834 24.3252 26.7141 24.187C26.9368 23.9517 26.9518 23.7869 26.9518 21.5856C26.9518 19.2443 26.9508 19.2343 26.664 18.9521L26.3763 18.6686H21.9967C17.7591 18.6686 17.6087 18.6763 17.3619 18.9028ZM24.9588 21.6126V22.5939H21.9692H18.9797V21.6126V20.6313H21.9692H24.9588V21.6126ZM41.841 24.3446C42.9694 24.6672 43.9346 24.9552 43.9859 24.9848C44.0374 25.0144 43.8719 25.2602 43.6183 25.5312C42.7092 26.5025 42.7864 26.7869 44.3945 28.3941L45.6407 29.6395L44.9475 30.3293L44.2544 31.0191L43.0184 29.8222C41.412 28.2669 40.9616 28.1659 39.9493 29.1341C39.715 29.3583 39.4972 29.4982 39.4654 29.4448C39.4335 29.3914 39.1396 28.4386 38.812 27.3274C38.4846 26.2162 38.0636 24.8078 37.8765 24.1976L37.5364 23.0884L38.6628 23.4233C39.2824 23.6076 40.7126 24.0221 41.841 24.3446ZM58.0197 39.511C58.0197 41.8457 57.9558 42.1551 57.36 42.7036C57.1748 42.8743 56.8746 43.069 56.6932 43.1366C56.4635 43.222 48.3382 43.2594 29.9886 43.2594C1.2723 43.2594 3.20484 43.3051 2.54468 42.6098C2.03681 42.0749 1.9803 41.7635 1.9803 39.4998V37.3715H30H58.0197V39.511ZM26.323 39.6384C25.9031 40.052 25.9152 40.5246 26.3566 40.9593L26.6993 41.2968H30H33.3007L33.6434 40.9593C34.0848 40.5246 34.0969 40.052 33.677 39.6384L33.3679 39.3341H30H26.6321L26.323 39.6384ZM34.0325 45.4818C34.0604 45.6247 34.1429 46.1679 34.2159 46.6892C34.4305 48.2242 35.1801 50.0813 35.8955 50.8502L36.1373 51.11H30H23.8627L24.1045 50.8502C24.8199 50.0813 25.5695 48.2242 25.7841 46.6892C25.8571 46.1679 25.9396 45.6247 25.9675 45.4818L26.0184 45.2221H30H33.9816L34.0325 45.4818ZM43.67 53.43C44.0379 53.7703 44.0502 54.3971 43.6964 54.7681L43.4414 55.0353H30.0164H16.5915L16.3201 54.7843C15.818 54.3198 16.055 53.3725 16.7229 53.1739C16.8034 53.15 22.8362 53.1392 30.1291 53.1501L43.3887 53.1697L43.67 53.43Z" fill="#D94EDC"/>
</svg>
