<svg width="49" height="48" viewBox="0 0 49 48" fill="none" xmlns="http://www.w3.org/2000/svg">
<path fill-rule="evenodd" clip-rule="evenodd" d="M8.17326 0.129406C7.67244 0.28411 6.81825 1.15093 6.66467 1.66035C6.56998 1.97436 6.54059 5.18284 6.54059 15.1902V28.3086L6.7911 28.554C7.12243 28.8788 7.59142 28.8788 7.92275 28.554L8.17326 28.3086V18.1537V7.99892H24.5H40.8267V18.1537V28.3086L41.0773 28.554C41.2351 28.7088 41.4443 28.7995 41.6431 28.7995C41.8419 28.7995 42.051 28.7088 42.2089 28.554L42.4594 28.3086V15.1902C42.4594 5.18284 42.43 1.97436 42.3353 1.66035C42.1697 1.11103 41.3244 0.28261 40.7639 0.120306C40.19 -0.0458985 8.71225 -0.0370983 8.17326 0.129406ZM40.5762 1.84425C40.8267 2.08966 40.8267 2.08996 40.8267 4.24432V6.39888H24.5H8.17326V4.24432C8.17326 2.08996 8.17326 2.08966 8.42378 1.84425L8.67419 1.59875H24.5H40.3258L40.5762 1.84425ZM10.0564 3.4443C9.89849 3.599 9.80594 3.80401 9.80594 3.99881C9.80594 4.19362 9.89849 4.39862 10.0564 4.55333C10.5626 5.04944 11.4386 4.69793 11.4386 3.99881C11.4386 3.5877 11.0418 3.19879 10.6223 3.19879C10.4235 3.19879 10.2143 3.28949 10.0564 3.4443ZM13.3218 3.4443C12.8156 3.94031 13.1742 4.79883 13.8876 4.79883C14.3071 4.79883 14.704 4.40992 14.704 3.99881C14.704 3.5877 14.3071 3.19879 13.8876 3.19879C13.6888 3.19879 13.4797 3.28949 13.3218 3.4443ZM16.5871 3.4443C16.0809 3.94031 16.4396 4.79883 17.153 4.79883C17.5725 4.79883 17.9693 4.40992 17.9693 3.99881C17.9693 3.5877 17.5725 3.19879 17.153 3.19879C16.9542 3.19879 16.745 3.28949 16.5871 3.4443ZM28.0159 3.4443C27.8579 3.599 27.7653 3.80401 27.7653 3.99881C27.7653 4.19362 27.8579 4.39862 28.0159 4.55333L28.2663 4.79883H33.4638C38.4115 4.79883 38.6727 4.78973 38.8998 4.60953C39.2371 4.34182 39.2371 3.6558 38.8998 3.38809C38.6727 3.20789 38.4115 3.19879 33.4638 3.19879H28.2663L28.0159 3.4443ZM1.64257 4.92954C1.14174 5.08424 0.28755 5.95106 0.133976 6.46048C-0.040924 7.04079 -0.0464343 36.1423 0.128364 36.7139C0.296019 37.2625 0.880414 37.887 1.48379 38.1623L1.99971 38.3977H24.5H47.0003L47.5162 38.1623C48.1196 37.887 48.704 37.2625 48.8716 36.7139C49.0464 36.1423 49.0409 7.04079 48.866 6.46048C48.7004 5.91116 47.8551 5.08274 47.2946 4.92044C47.0636 4.85353 46.3612 4.79883 45.7338 4.79883C44.6586 4.79883 44.5786 4.81293 44.3426 5.04434C44.0112 5.36905 44.0112 5.82866 44.3426 6.15337C44.5784 6.38447 44.6592 6.39888 45.7248 6.39888C46.7903 6.39888 46.8711 6.41328 47.1069 6.64438L47.3574 6.88979V18.6447V30.3995H24.5H1.64257V18.6447V6.88979L1.89308 6.64438C2.1289 6.41328 2.20972 6.39888 3.27524 6.39888C4.34076 6.39888 4.42158 6.38447 4.6574 6.15337C4.98883 5.82866 4.98883 5.36905 4.6574 5.04434C4.41842 4.81003 4.35199 4.79933 3.2033 4.80903C2.54135 4.81463 1.839 4.86893 1.64257 4.92954ZM26.4487 11.374C26.2896 11.5024 25.5671 13.5048 23.7333 18.8984C22.3591 22.9406 21.2347 26.3515 21.2347 26.4782C21.2347 27.0481 22.085 27.4008 22.5513 27.0244C22.7104 26.896 23.4329 24.8937 25.2667 19.5C26.6409 15.4578 27.7653 12.0469 27.7653 11.9202C27.7653 11.3503 26.915 10.9976 26.4487 11.374ZM15.0391 16.551C13.567 17.7549 12.3657 18.8121 12.3118 18.951C12.2515 19.1065 12.2515 19.2925 12.3118 19.4488C12.3665 19.5906 13.5476 20.6276 15.0457 21.8489C17.2807 23.6709 17.7338 23.9994 18.0127 23.9994C18.4573 23.9994 18.7856 23.6496 18.7856 23.1763C18.7856 22.8297 18.7044 22.7498 16.6172 21.0449C15.4247 20.0706 14.4489 19.2402 14.4489 19.1994C14.4489 19.1586 15.3443 18.3967 16.4387 17.5064C17.5331 16.6161 18.5088 15.7952 18.6071 15.6823C18.8638 15.387 18.8326 14.936 18.5351 14.6446C18.0235 14.1431 17.9023 14.2091 15.0391 16.551ZM30.4649 14.6446C30.1906 14.9133 30.1345 15.3595 30.3419 15.6228C30.4121 15.7118 31.3878 16.5321 32.5103 17.4457C33.6328 18.3593 34.5512 19.1483 34.5512 19.1992C34.5512 19.2501 33.6328 20.0391 32.5103 20.9528C31.3878 21.8663 30.4121 22.6866 30.3419 22.7756C30.1345 23.0389 30.1906 23.4851 30.4649 23.7538C30.9731 24.2521 31.092 24.1873 33.9849 21.8343C35.6812 20.4547 36.6686 19.584 36.707 19.4342C36.7401 19.305 36.7403 19.0941 36.7074 18.9657C36.6695 18.818 35.6696 17.9352 33.989 16.5656C31.0962 14.2082 30.9766 14.143 30.4649 14.6446ZM47.3574 34.1541C47.3574 36.3085 47.3574 36.3088 47.1069 36.5542L46.8565 36.7997H24.5H2.14349L1.89308 36.5542C1.64257 36.3088 1.64257 36.3085 1.64257 34.1541V31.9996H24.5H47.3574V34.1541ZM22.4919 33.7185C22.3697 33.7764 22.2149 33.9534 22.1479 34.1117C21.9909 34.4833 22.1817 34.9772 22.5327 35.1081C22.8627 35.2311 26.4028 35.2256 26.6389 35.1017C26.8958 34.9669 27.0662 34.4516 26.9515 34.1559C26.7543 33.6478 26.5417 33.5991 24.5538 33.6064C23.4892 33.6103 22.6206 33.6575 22.4919 33.7185ZM19.4869 40.0884C19.3443 40.1983 19.0478 40.5909 18.828 40.9607C18.6083 41.3306 18.0908 41.9857 17.6781 42.4165L16.9277 43.1999H16.0572C15.5786 43.1999 15.009 43.2521 14.7915 43.316C14.2317 43.4803 13.5945 44.053 13.3135 44.6443C13.1042 45.0848 13.0731 45.3018 13.0723 46.3295C13.0713 47.4492 13.084 47.5216 13.3218 47.7545L13.5722 48H24.5H35.4278L35.6782 47.7545C35.9143 47.5232 35.9287 47.4448 35.9287 46.3911C35.9287 44.954 35.8117 44.5784 35.1669 43.9465C34.5521 43.344 34.1296 43.1999 32.9788 43.1999H32.1444L31.6255 42.7249C31.0149 42.1659 30.3275 41.312 30.0356 40.7498C29.7542 40.2079 29.458 39.9665 29.0744 39.9665C28.7135 39.9665 28.2756 40.3734 28.2756 40.7087C28.2756 41.0035 28.7143 41.7967 29.2888 42.5406L29.798 43.1999H24.5H19.202L19.7112 42.5406C20.2857 41.7967 20.7244 41.0035 20.7244 40.7087C20.7244 40.4429 20.3262 40.0213 20.0058 39.9479C19.8299 39.9077 19.6625 39.953 19.4869 40.0884ZM34.0455 45.0454C34.2513 45.2469 34.296 45.3899 34.296 45.8454V46.4H24.5H14.704V45.8454C14.704 45.3899 14.7488 45.2469 14.9545 45.0454L15.2049 44.7999H24.5H33.7951L34.0455 45.0454Z" fill="#0295B6"/>
</svg>
