<svg width="153" height="70" viewBox="0 0 153 70" fill="none" xmlns="http://www.w3.org/2000/svg">
<path fill-rule="evenodd" clip-rule="evenodd" d="M54.466 22.4082V44.8163H76.5388H98.6116V22.4082V0H90.2481H81.8845L81.3933 1.63245C80.7794 3.67288 78.609 5.32284 76.5388 5.32284C74.4686 5.32284 72.2983 3.67288 71.6843 1.63245L71.1931 0H62.8296H54.466V22.4082ZM68.6763 29.2336L69.6721 34.2562L70.5745 30.1351C71.9107 24.0329 71.824 24.2111 73.4512 24.2111C74.7997 24.2111 74.9588 24.4218 75.4942 26.9156C75.814 28.4033 76.2103 30.5998 76.3751 31.7975C76.7359 34.4179 77.3098 34.2629 77.7626 31.4224C77.9453 30.2763 78.3411 28.1848 78.6424 26.7749C79.1475 24.4115 79.3077 24.2111 80.688 24.2111C81.5114 24.2111 82.1853 24.3023 82.1853 24.4131C82.1853 25.1069 78.9976 38.0743 78.5942 39.0211C78.2703 39.7825 77.6599 40.1802 76.816 40.1802C75.9059 40.1802 75.4537 39.8428 75.2637 39.0211C74.946 37.6462 73.4794 30.4797 73.4122 29.9729C73.3865 29.7787 72.8583 31.9381 72.2387 34.7713C71.2316 39.3781 70.9857 39.9406 69.9165 40.0952C69.2589 40.19 68.5274 40.0735 68.2908 39.8361C67.9248 39.4688 64.7324 25.8235 64.7324 24.6258C64.7324 24.3976 65.3957 24.2111 66.2062 24.2111C67.6604 24.2111 67.6938 24.2786 68.6763 29.2336ZM90.919 26.2984C91.227 27.4461 92.2516 30.9398 93.1961 34.0615C94.5451 38.5204 94.7658 39.7943 94.2258 40.0024C92.8296 40.5402 91.708 39.8804 91.2409 38.2448C90.7804 36.634 90.667 36.5743 88.0716 36.5743C85.4013 36.5743 85.3767 36.5887 85.0425 38.3772C84.7443 39.9731 84.524 40.1802 83.1288 40.1802C81.7459 40.1802 81.5899 40.038 81.8573 39.0211C82.0252 38.3839 82.8865 34.7904 83.7715 31.0366L85.3803 24.2111H87.8699C90.3446 24.2111 90.362 24.223 90.919 26.2984ZM86.8535 30.3911C86.5445 31.8366 86.2919 33.1234 86.2919 33.2512C86.2919 33.3789 87.105 33.4835 88.0983 33.4835C90.0674 33.4835 90.0181 33.7431 88.8755 29.3959C88.3041 27.2215 87.4402 27.6465 86.8535 30.3911ZM1.25929 63.0983C2.78745 69.3077 2.91013 69.5817 4.10668 69.4365C5.21802 69.302 5.50959 68.7416 6.72719 64.4026C7.94324 60.0683 8.13882 59.6923 8.46837 61.0543C8.67216 61.8981 9.2979 64.1528 9.85844 66.0655C10.7398 69.0733 11.0391 69.5426 12.0755 69.5426C13.1719 69.5426 13.3901 69.0713 14.6416 64.0049C15.3941 60.9595 16.1312 58.0619 16.2796 57.5658C16.4746 56.9147 16.2606 56.6643 15.5081 56.6643C14.4101 56.6643 14.1688 57.2676 12.7402 63.5928C12.3593 65.2783 11.9266 66.4374 11.7793 66.1685C11.6315 65.8991 10.979 63.6511 10.3292 61.1717C9.2979 57.2372 9.00479 56.6643 8.02281 56.6643C7.03056 56.6643 6.75439 57.2382 5.67898 61.537C5.00859 64.2167 4.34178 66.2906 4.19754 66.1453C4.0533 66.0006 3.46195 63.8659 2.88395 61.402C2.00155 57.6421 1.65814 56.8967 0.747511 56.7653C-0.324817 56.6108 -0.318657 56.6844 1.25929 63.0983ZM20.0735 63.1035V69.5426H23.6668C26.5188 69.5426 27.26 69.3829 27.26 68.7699C27.26 68.1863 26.6327 67.9972 24.6934 67.9972H22.1268V65.9367V63.8762H24.6934C26.6327 63.8762 27.26 63.6871 27.26 63.1035C27.26 62.5198 26.6327 62.3308 24.6934 62.3308H22.1268V60.5278V58.7249H24.6934C26.9176 58.7249 27.26 58.5873 27.26 57.6946C27.26 56.7622 26.9176 56.6643 23.6668 56.6643H20.0735V63.1035ZM31.8799 63.1035V69.5426H35.4732C38.3821 69.5426 39.262 69.3463 40.093 68.5123C41.4841 67.1163 41.4308 64.6684 39.9873 63.6536C38.915 62.9 38.9037 62.8217 39.7707 62.185C40.4154 61.7121 40.6372 60.9883 40.5186 59.7443C40.3035 57.4916 38.8051 56.6824 34.8315 56.6721L31.8799 56.6643V63.1035ZM47.6101 62.8181C44.9434 69.7023 44.9845 69.5447 45.8679 69.5374C46.2211 69.5344 46.8966 68.6071 47.3699 67.4769C48.1979 65.4983 48.319 65.4216 50.6161 65.4216C52.9132 65.4216 53.0344 65.4983 53.8624 67.4769C54.3356 68.6071 55.0117 69.5344 55.3643 69.5374C55.7175 69.54 56.006 69.3819 56.006 69.1851C56.006 67.973 51.15 56.6643 50.63 56.6643C50.2799 56.6643 48.9206 59.4337 47.6101 62.8181ZM61.1392 57.6946C59.1198 59.7211 60.2383 62.0129 64.2191 64.007C68.3062 66.0541 67.4423 68.7802 62.8275 68.3959C60.9154 68.2367 60.1126 68.3552 60.1126 68.7962C60.1126 69.1408 60.6325 69.5622 61.2675 69.7332C65.5866 70.8943 69.5017 68.0734 67.855 64.9868C67.5485 64.4114 66.0871 63.2884 64.6082 62.492C61.6843 60.9162 61.1176 59.8504 62.4795 58.4838C63.1627 57.7981 63.8521 57.6771 65.5851 57.9377C66.8899 58.134 67.8124 58.0691 67.8124 57.7811C67.8124 56.3146 62.5821 56.2466 61.1392 57.6946ZM73.9722 57.6946C71.8435 59.8308 72.981 62.0778 77.2318 64.1337C79.6172 65.2876 80.1008 66.4101 78.7815 67.7335C78.1029 68.4145 77.3073 68.569 75.4193 68.3872C72.4589 68.1018 71.8712 69.2938 74.7088 69.828C80.5468 70.9268 83.4101 65.3463 78.2164 62.9912C77.1528 62.5085 75.8782 61.7791 75.3839 61.3701C73.3218 59.6619 75.1867 57.3144 78.0962 57.9563C79.8626 58.3452 81.1325 57.8059 80.0587 57.1228C78.7076 56.2641 75.0564 56.6066 73.9722 57.6946ZM86.2919 63.1035V69.5426H89.8852C91.9384 69.5426 93.4784 69.3216 93.4784 69.0275C93.4784 68.7441 92.1951 68.5123 90.6269 68.5123H87.7754L87.932 66.0655L88.0885 63.6186L90.7835 63.463C94.3598 63.2565 94.2551 62.3308 90.6551 62.3308H87.8319V60.2702V58.2097H90.6551C92.8224 58.2097 93.4784 58.0305 93.4784 57.437C93.4784 56.824 92.7372 56.6643 89.8852 56.6643H86.2919V63.1035ZM99.1249 63.1035C99.1249 68.4155 99.2563 69.5426 99.877 69.5426C100.479 69.5426 100.658 68.4897 100.775 64.2625L100.922 58.9824L102.911 64.2625C104.025 67.2188 105.193 69.5426 105.566 69.5426C105.935 69.5426 107.083 67.3054 108.143 64.5201C109.194 61.7579 110.194 59.3348 110.364 59.1359C110.535 58.9366 110.596 61.197 110.5 64.1585C110.348 68.8116 110.435 69.5426 111.141 69.5426C111.845 69.5426 111.958 68.6442 111.958 63.0674C111.958 56.7143 111.937 56.5958 110.843 56.7571C109.943 56.89 109.373 57.8914 107.891 61.9408C106.881 64.7014 105.909 66.9618 105.731 66.9633C105.553 66.9654 104.532 64.6489 103.463 61.8156C101.767 57.3211 101.366 56.6643 100.322 56.6643C99.1321 56.6643 99.1249 56.7025 99.1249 63.1035ZM118.631 63.1035V69.5426H121.968C124.652 69.5426 125.511 69.335 126.361 68.4819C127.763 67.0756 127.547 64.3789 125.971 63.5949C124.841 63.0334 124.841 63.0319 125.873 62.1453C126.595 61.5246 126.858 60.7632 126.747 59.6166C126.546 57.5401 124.966 56.6824 121.326 56.6721L118.631 56.6643V63.1035ZM133.004 63.1035V69.5426H136.597C138.651 69.5426 140.191 69.3216 140.191 69.0275C140.191 68.7441 138.92 68.5123 137.367 68.5123H134.544V62.5883C134.544 57.6658 134.414 56.6643 133.774 56.6643C133.131 56.6643 133.004 57.7234 133.004 63.1035ZM145.58 60.8781C147.254 64.007 147.876 65.7548 147.882 67.3533C147.887 68.7812 148.118 69.5426 148.545 69.5426C149 69.5426 149.141 68.9141 149.006 67.4934C148.847 65.8213 149.247 64.6375 151.177 61.0543C152.858 57.9336 153.324 56.6643 152.79 56.6643C152.376 56.6643 151.277 58.0526 150.349 59.7489C149.42 61.4458 148.545 62.8356 148.404 62.8382C148.263 62.8408 147.454 61.5107 146.607 59.8824C145.76 58.254 144.667 56.8477 144.177 56.7571C143.48 56.6278 143.785 57.5236 145.58 60.8781ZM37.2364 58.712C39.8292 59.7015 38.3857 62.3308 35.2504 62.3308C34.1 62.3308 33.9332 62.1134 33.9332 60.6138C33.9332 58.1021 34.6128 57.7111 37.2364 58.712ZM125.202 59.7994C125.409 61.5843 124.251 62.4317 121.875 62.2355C120.008 62.0809 119.907 61.9795 119.753 60.1137L119.593 58.1536L122.32 58.3107C124.824 58.4544 125.06 58.5765 125.202 59.7994ZM52.1838 63.0313C52.5046 64.313 52.4174 64.3913 50.6716 64.3913C49.6531 64.3913 48.8185 64.2172 48.8169 64.0049C48.8154 63.7927 49.2163 62.493 49.7081 61.1171L50.6012 58.6157L51.2224 60.144C51.5642 60.9842 51.997 62.2839 52.1838 63.0313ZM124.677 64.1631C127.166 65.9125 125.455 68.6612 122.033 68.4098C120.042 68.264 119.905 68.1507 119.75 66.5317C119.659 65.5838 119.71 64.4825 119.862 64.0848C120.236 63.1081 123.246 63.157 124.677 64.1631ZM38.7548 65.0352C39.6701 66.5002 38.5279 67.7144 36.0624 67.8978L33.9332 68.0564V65.9367V63.8169L36.0624 63.9756C37.4043 64.075 38.4001 64.467 38.7548 65.0352Z" fill="#606060"/>
</svg>
