<svg width="432" height="372" viewBox="0 0 432 372" fill="none" xmlns="http://www.w3.org/2000/svg">
<path d="M122.709 185.5L211 97.7051L299.291 185.5L211 273.295L122.709 185.5Z" stroke="black"/>
<path d="M211 9H211.5V8.5H211V9ZM114 9L119 11.8868V6.11325L114 9ZM211.5 97V9H210.5V97H211.5ZM211 8.5H118.5V9.5H211V8.5Z" fill="#9C9C9C"/>
<path d="M26 274L23.1132 269H28.8867L26 274ZM26 186H25.5V185.5H26V186ZM25.5 269.5V186H26.5V269.5H25.5ZM26 185.5H123V186.5H26V185.5Z" fill="#9C9C9C"/>
<path d="M397 99L399.887 104H394.113L397 99ZM397 186H397.5V186.5H397V186ZM397.5 103.5V186H396.5V103.5H397.5ZM397 186.5H300V185.5H397V186.5Z" fill="#9C9C9C"/>
<path d="M211 363H210.5V363.5H211V363ZM308 363L303 360.113V365.887L308 363ZM210.5 275V363H211.5V275H210.5ZM211 363.5H303.5V362.5H211V363.5Z" fill="#9C9C9C"/>
<ellipse cx="211" cy="97.5" rx="8" ry="8.5" fill="#FF6900"/>
<ellipse cx="122.5" cy="186" rx="8.5" ry="8" fill="#FF0FCA"/>
<ellipse cx="211" cy="274.5" rx="8" ry="8.5" fill="#0073A8"/>
<ellipse cx="299.5" cy="186" rx="8.5" ry="8" fill="#FCB900"/>
<path d="M39.076 14V3.09091H46.0646V4.74751H41.0522V7.70916H45.5852V9.36577H41.0522V14H39.076ZM52.482 10.5589V5.81818H54.4102V14H52.5406V12.5458H52.4553C52.2707 13.0039 51.9671 13.3786 51.5445 13.6697C51.1254 13.9609 50.6088 14.1065 49.9944 14.1065C49.4582 14.1065 48.9841 13.9876 48.5722 13.7496C48.1638 13.5082 47.8442 13.1584 47.6134 12.7003C47.3825 12.2386 47.2671 11.6811 47.2671 11.0277V5.81818H49.1954V10.7294C49.1954 11.2479 49.3374 11.6598 49.6215 11.9652C49.9056 12.2706 50.2785 12.4233 50.7401 12.4233C51.0242 12.4233 51.2994 12.354 51.5658 12.2156C51.8321 12.0771 52.0505 11.8711 52.221 11.5977C52.395 11.3207 52.482 10.9744 52.482 10.5589ZM58.3214 9.20597V14H56.3931V5.81818H58.2362V7.20845H58.332C58.5202 6.75035 58.8203 6.38636 59.2322 6.11648C59.6477 5.84659 60.1609 5.71165 60.7717 5.71165C61.3363 5.71165 61.8281 5.83239 62.2472 6.07386C62.6697 6.31534 62.9964 6.66513 63.2273 7.12322C63.4616 7.58132 63.5771 8.13707 63.5735 8.79048V14H61.6452V9.08878C61.6452 8.5419 61.5032 8.11399 61.2191 7.80504C60.9386 7.49609 60.5497 7.34162 60.0526 7.34162C59.7152 7.34162 59.4151 7.41619 59.1523 7.56534C58.8931 7.71094 58.6889 7.92223 58.5398 8.19922C58.3942 8.47621 58.3214 8.81179 58.3214 9.20597ZM69.1026 14.1598C68.2859 14.1598 67.5845 13.9805 66.9986 13.6218C66.4162 13.2631 65.967 12.7678 65.6509 12.1357C65.3384 11.5 65.1822 10.7685 65.1822 9.94105C65.1822 9.11009 65.342 8.37678 65.6616 7.74112C65.9812 7.10192 66.4322 6.60476 67.0146 6.24964C67.6005 5.89098 68.293 5.71165 69.092 5.71165C69.756 5.71165 70.3438 5.83416 70.8551 6.07919C71.37 6.32067 71.7802 6.66335 72.0856 7.10724C72.391 7.54759 72.565 8.0625 72.6076 8.65199H70.7646C70.69 8.25781 70.5124 7.92933 70.2319 7.66655C69.9549 7.40021 69.5838 7.26705 69.1186 7.26705C68.7244 7.26705 68.3782 7.37358 68.0799 7.58665C67.7816 7.79616 67.549 8.09801 67.3821 8.49219C67.2188 8.88636 67.1371 9.35866 67.1371 9.90909C67.1371 10.4666 67.2188 10.946 67.3821 11.3473C67.5455 11.745 67.7745 12.0522 68.0692 12.2688C68.3675 12.4819 68.7173 12.5884 69.1186 12.5884C69.4027 12.5884 69.6566 12.5352 69.8803 12.4286C70.1076 12.3185 70.2976 12.1605 70.4503 11.9545C70.603 11.7486 70.7077 11.4982 70.7646 11.2035H72.6076C72.5614 11.7823 72.391 12.2955 72.0962 12.7429C71.8015 13.1868 71.4002 13.5348 70.8924 13.7869C70.3846 14.0355 69.788 14.1598 69.1026 14.1598ZM78.2765 5.81818V7.30966H73.5731V5.81818H78.2765ZM74.7343 3.85795H76.6626V11.5391C76.6626 11.7983 76.7016 11.9972 76.7797 12.1357C76.8614 12.2706 76.968 12.3629 77.0993 12.4126C77.2307 12.4624 77.3763 12.4872 77.5361 12.4872C77.6569 12.4872 77.767 12.4783 77.8664 12.4606C77.9694 12.4428 78.0475 12.4268 78.1008 12.4126L78.4257 13.9201C78.3227 13.9556 78.1753 13.9947 77.9836 14.0373C77.7954 14.0799 77.5645 14.1048 77.2911 14.1119C76.8081 14.1261 76.3731 14.0533 75.9861 13.8935C75.599 13.7301 75.2918 13.478 75.0645 13.1371C74.8408 12.7962 74.7307 12.37 74.7343 11.8587V3.85795ZM79.8892 14V5.81818H81.8175V14H79.8892ZM80.8587 4.65696C80.5533 4.65696 80.2905 4.55575 80.0703 4.35334C79.8501 4.14737 79.7401 3.90057 79.7401 3.61293C79.7401 3.32173 79.8501 3.07493 80.0703 2.87251C80.2905 2.66655 80.5533 2.56357 80.8587 2.56357C81.1676 2.56357 81.4304 2.66655 81.647 2.87251C81.8672 3.07493 81.9773 3.32173 81.9773 3.61293C81.9773 3.90057 81.8672 4.14737 81.647 4.35334C81.4304 4.55575 81.1676 4.65696 80.8587 4.65696ZM87.3692 14.1598C86.5702 14.1598 85.8778 13.984 85.2918 13.6325C84.7059 13.2809 84.2513 12.7891 83.9282 12.157C83.6086 11.5249 83.4488 10.7862 83.4488 9.94105C83.4488 9.09588 83.6086 8.35547 83.9282 7.71982C84.2513 7.08416 84.7059 6.59055 85.2918 6.23899C85.8778 5.88743 86.5702 5.71165 87.3692 5.71165C88.1682 5.71165 88.8607 5.88743 89.4466 6.23899C90.0326 6.59055 90.4854 7.08416 90.805 7.71982C91.1281 8.35547 91.2897 9.09588 91.2897 9.94105C91.2897 10.7862 91.1281 11.5249 90.805 12.157C90.4854 12.7891 90.0326 13.2809 89.4466 13.6325C88.8607 13.984 88.1682 14.1598 87.3692 14.1598ZM87.3799 12.6151C87.8131 12.6151 88.1753 12.4961 88.4665 12.2582C88.7577 12.0167 88.9743 11.6935 89.1164 11.2887C89.262 10.8839 89.3348 10.4329 89.3348 9.93572C89.3348 9.43501 89.262 8.98224 89.1164 8.57741C88.9743 8.16903 88.7577 7.84411 88.4665 7.60263C88.1753 7.36115 87.8131 7.24041 87.3799 7.24041C86.936 7.24041 86.5667 7.36115 86.2719 7.60263C85.9807 7.84411 85.7623 8.16903 85.6167 8.57741C85.4747 8.98224 85.4037 9.43501 85.4037 9.93572C85.4037 10.4329 85.4747 10.8839 85.6167 11.2887C85.7623 11.6935 85.9807 12.0167 86.2719 12.2582C86.5667 12.4961 86.936 12.6151 87.3799 12.6151ZM94.8546 9.20597V14H92.9263V5.81818H94.7694V7.20845H94.8652C95.0534 6.75035 95.3535 6.38636 95.7654 6.11648C96.1809 5.84659 96.6941 5.71165 97.3049 5.71165C97.8695 5.71165 98.3613 5.83239 98.7804 6.07386C99.2029 6.31534 99.5297 6.66513 99.7605 7.12322C99.9949 7.58132 100.11 8.13707 100.107 8.79048V14H98.1784V9.08878C98.1784 8.5419 98.0364 8.11399 97.7523 7.80504C97.4718 7.49609 97.0829 7.34162 96.5858 7.34162C96.2484 7.34162 95.9483 7.41619 95.6855 7.56534C95.4263 7.71094 95.2221 7.92223 95.073 8.19922C94.9274 8.47621 94.8546 8.81179 94.8546 9.20597ZM104.421 14.1651C103.903 14.1651 103.436 14.0728 103.02 13.8881C102.608 13.6999 102.282 13.4229 102.04 13.0572C101.802 12.6914 101.683 12.2404 101.683 11.7042C101.683 11.2425 101.769 10.8608 101.939 10.5589C102.11 10.2571 102.342 10.0156 102.637 9.83452C102.932 9.65341 103.264 9.51669 103.633 9.42436C104.006 9.32848 104.391 9.25923 104.789 9.21662C105.268 9.1669 105.657 9.12251 105.955 9.08345C106.254 9.04084 106.47 8.97692 106.605 8.89169C106.744 8.80291 106.813 8.66619 106.813 8.48153V8.44957C106.813 8.0483 106.694 7.73757 106.456 7.5174C106.218 7.29723 105.876 7.18714 105.428 7.18714C104.956 7.18714 104.581 7.29013 104.304 7.49609C104.031 7.70206 103.846 7.94531 103.75 8.22585L101.95 7.97017C102.092 7.47301 102.326 7.05753 102.653 6.72372C102.98 6.38636 103.379 6.13423 103.851 5.96733C104.324 5.79688 104.846 5.71165 105.417 5.71165C105.812 5.71165 106.204 5.75781 106.595 5.85014C106.985 5.94247 107.342 6.09517 107.665 6.30824C107.988 6.51776 108.248 6.80362 108.443 7.16584C108.642 7.52805 108.741 7.98082 108.741 8.52415V14H106.888V12.8761H106.824C106.706 13.1033 106.541 13.3164 106.328 13.5153C106.119 13.7106 105.854 13.8686 105.535 13.9893C105.219 14.1065 104.847 14.1651 104.421 14.1651ZM104.922 12.7482C105.309 12.7482 105.645 12.6719 105.929 12.5192C106.213 12.3629 106.431 12.157 106.584 11.9013C106.74 11.6456 106.818 11.3668 106.818 11.065V10.1009C106.758 10.1506 106.655 10.1967 106.509 10.2393C106.367 10.282 106.208 10.3192 106.03 10.3512C105.852 10.3832 105.677 10.4116 105.503 10.4364C105.329 10.4613 105.178 10.4826 105.05 10.5004C104.762 10.5394 104.505 10.6033 104.278 10.6921C104.05 10.7809 103.871 10.9052 103.74 11.065C103.608 11.2212 103.542 11.4237 103.542 11.6722C103.542 12.0273 103.672 12.2955 103.931 12.4766C104.191 12.6577 104.521 12.7482 104.922 12.7482ZM112.608 3.09091V14H110.68V3.09091H112.608Z" fill="black"/>
<path d="M7.00462 290.09C6.9549 289.625 6.74538 289.262 6.37607 289.003C6.0103 288.744 5.53445 288.614 4.94851 288.614C4.53658 288.614 4.18324 288.676 3.88849 288.801C3.59375 288.925 3.36825 289.094 3.212 289.307C3.05575 289.52 2.97585 289.763 2.9723 290.037C2.9723 290.264 3.02379 290.461 3.12678 290.628C3.23331 290.795 3.37713 290.937 3.55824 291.054C3.73935 291.168 3.93999 291.263 4.16016 291.342C4.38033 291.42 4.60227 291.485 4.82599 291.539L5.84872 291.794C6.26065 291.89 6.65661 292.02 7.03658 292.183C7.4201 292.347 7.76278 292.553 8.06463 292.801C8.37003 293.05 8.61151 293.35 8.78906 293.701C8.96662 294.053 9.0554 294.465 9.0554 294.937C9.0554 295.576 8.89205 296.139 8.56534 296.626C8.23864 297.109 7.76634 297.487 7.14844 297.76C6.53409 298.03 5.79013 298.165 4.91655 298.165C4.06783 298.165 3.33097 298.034 2.70597 297.771C2.08452 297.508 1.59801 297.125 1.24645 296.62C0.898438 296.116 0.710227 295.502 0.681818 294.777H2.62607C2.65447 295.157 2.77166 295.473 2.97763 295.725C3.18359 295.978 3.4517 296.166 3.78196 296.29C4.11577 296.414 4.48864 296.477 4.90057 296.477C5.33026 296.477 5.70668 296.413 6.02983 296.285C6.35653 296.153 6.61222 295.972 6.79688 295.741C6.98153 295.507 7.07564 295.234 7.07919 294.921C7.07564 294.637 6.99219 294.403 6.82884 294.218C6.66548 294.03 6.43643 293.874 6.14169 293.749C5.8505 293.621 5.50959 293.508 5.11896 293.408L3.87784 293.089C2.9794 292.858 2.26918 292.508 1.74716 292.039C1.22869 291.567 0.96946 290.94 0.96946 290.159C0.96946 289.516 1.14347 288.953 1.49148 288.471C1.84304 287.988 2.32067 287.613 2.92436 287.347C3.52805 287.077 4.21165 286.942 4.97514 286.942C5.74929 286.942 6.42756 287.077 7.00994 287.347C7.59588 287.613 8.05575 287.984 8.38956 288.46C8.72337 288.932 8.8956 289.475 8.90625 290.09H7.00462ZM14.3541 298.16C13.5338 298.16 12.8254 297.989 12.2288 297.648C11.6357 297.304 11.1794 296.817 10.8598 296.189C10.5402 295.557 10.3804 294.813 10.3804 293.957C10.3804 293.115 10.5402 292.377 10.8598 291.741C11.183 291.102 11.634 290.605 12.2128 290.25C12.7916 289.891 13.4717 289.712 14.2529 289.712C14.7572 289.712 15.233 289.793 15.6805 289.957C16.1315 290.116 16.5292 290.365 16.8737 290.702C17.2217 291.04 17.4951 291.469 17.694 291.991C17.8928 292.51 17.9923 293.128 17.9923 293.845V294.436H11.286V293.137H16.1439C16.1404 292.767 16.0605 292.439 15.9042 292.151C15.748 291.86 15.5296 291.631 15.249 291.464C14.972 291.297 14.6489 291.214 14.2796 291.214C13.8854 291.214 13.5392 291.31 13.2409 291.501C12.9426 291.69 12.71 291.938 12.5431 292.247C12.3797 292.553 12.2963 292.888 12.2927 293.254V294.388C12.2927 294.864 12.3797 295.273 12.5537 295.614C12.7277 295.951 12.971 296.21 13.2835 296.391C13.596 296.569 13.9617 296.658 14.3808 296.658C14.6613 296.658 14.9152 296.619 15.1425 296.54C15.3698 296.459 15.5669 296.34 15.7338 296.184C15.9007 296.027 16.0267 295.834 16.1119 295.603L17.9124 295.805C17.7987 296.281 17.5821 296.697 17.2625 297.052C16.9465 297.403 16.5416 297.677 16.048 297.872C15.5544 298.064 14.9898 298.16 14.3541 298.16ZM23.1925 298.16C22.3757 298.16 21.6744 297.98 21.0884 297.622C20.506 297.263 20.0568 296.768 19.7408 296.136C19.4283 295.5 19.272 294.768 19.272 293.941C19.272 293.11 19.4318 292.377 19.7514 291.741C20.071 291.102 20.522 290.605 21.1044 290.25C21.6903 289.891 22.3828 289.712 23.1818 289.712C23.8459 289.712 24.4336 289.834 24.945 290.079C25.4599 290.321 25.87 290.663 26.1754 291.107C26.4808 291.548 26.6548 292.062 26.6974 292.652H24.8544C24.7798 292.258 24.6023 291.929 24.3217 291.667C24.0447 291.4 23.6737 291.267 23.2085 291.267C22.8143 291.267 22.468 291.374 22.1697 291.587C21.8714 291.796 21.6388 292.098 21.4719 292.492C21.3086 292.886 21.2269 293.359 21.2269 293.909C21.2269 294.467 21.3086 294.946 21.4719 295.347C21.6353 295.745 21.8643 296.052 22.1591 296.269C22.4574 296.482 22.8072 296.588 23.2085 296.588C23.4925 296.588 23.7464 296.535 23.9702 296.429C24.1974 296.319 24.3874 296.161 24.5401 295.955C24.6928 295.749 24.7976 295.498 24.8544 295.203H26.6974C26.6513 295.782 26.4808 296.295 26.1861 296.743C25.8913 297.187 25.4901 297.535 24.9822 297.787C24.4744 298.036 23.8778 298.16 23.1925 298.16ZM33.4957 294.559V289.818H35.4239V298H33.5542V296.546H33.469C33.2844 297.004 32.9807 297.379 32.5582 297.67C32.1391 297.961 31.6224 298.107 31.0081 298.107C30.4719 298.107 29.9978 297.988 29.5858 297.75C29.1775 297.508 28.8579 297.158 28.627 296.7C28.3962 296.239 28.2808 295.681 28.2808 295.028V289.818H30.2091V294.729C30.2091 295.248 30.3511 295.66 30.6352 295.965C30.9193 296.271 31.2922 296.423 31.7538 296.423C32.0379 296.423 32.3131 296.354 32.5795 296.216C32.8458 296.077 33.0642 295.871 33.2346 295.598C33.4086 295.321 33.4957 294.974 33.4957 294.559ZM37.4068 298V289.818H39.2765V291.182H39.3617C39.5108 290.71 39.7665 290.346 40.1287 290.09C40.4945 289.831 40.9118 289.701 41.3805 289.701C41.487 289.701 41.606 289.706 41.7374 289.717C41.8723 289.724 41.9842 289.737 42.073 289.754V291.528C41.9913 291.5 41.8617 291.475 41.6841 291.453C41.5101 291.429 41.3414 291.416 41.1781 291.416C40.8265 291.416 40.5105 291.493 40.2299 291.645C39.9529 291.794 39.7346 292.002 39.5748 292.268C39.415 292.535 39.335 292.842 39.335 293.19V298H37.4068ZM46.6393 298.16C45.819 298.16 45.1105 297.989 44.5139 297.648C43.9209 297.304 43.4646 296.817 43.145 296.189C42.8254 295.557 42.6656 294.813 42.6656 293.957C42.6656 293.115 42.8254 292.377 43.145 291.741C43.4681 291.102 43.9191 290.605 44.498 290.25C45.0768 289.891 45.7568 289.712 46.5381 289.712C47.0423 289.712 47.5182 289.793 47.9656 289.957C48.4166 290.116 48.8144 290.365 49.1588 290.702C49.5068 291.04 49.7803 291.469 49.9791 291.991C50.178 292.51 50.2774 293.128 50.2774 293.845V294.436H43.5711V293.137H48.4291C48.4255 292.767 48.3456 292.439 48.1894 292.151C48.0331 291.86 47.8147 291.631 47.5342 291.464C47.2572 291.297 46.934 291.214 46.5647 291.214C46.1705 291.214 45.8243 291.31 45.526 291.501C45.2277 291.69 44.9951 291.938 44.8282 292.247C44.6649 292.553 44.5814 292.888 44.5779 293.254V294.388C44.5779 294.864 44.6649 295.273 44.8389 295.614C45.0129 295.951 45.2561 296.21 45.5686 296.391C45.8811 296.569 46.2469 296.658 46.6659 296.658C46.9465 296.658 47.2004 296.619 47.4276 296.54C47.6549 296.459 47.852 296.34 48.0189 296.184C48.1858 296.027 48.3119 295.834 48.3971 295.603L50.1975 295.805C50.0839 296.281 49.8673 296.697 49.5477 297.052C49.2316 297.403 48.8268 297.677 48.3332 297.872C47.8396 298.064 47.2749 298.16 46.6393 298.16Z" fill="black"/>
<path d="M325.005 360.09C324.955 359.625 324.745 359.262 324.376 359.003C324.01 358.744 323.534 358.614 322.949 358.614C322.537 358.614 322.183 358.676 321.888 358.801C321.594 358.925 321.368 359.094 321.212 359.307C321.056 359.52 320.976 359.763 320.972 360.037C320.972 360.264 321.024 360.461 321.127 360.628C321.233 360.795 321.377 360.937 321.558 361.054C321.739 361.168 321.94 361.263 322.16 361.342C322.38 361.42 322.602 361.485 322.826 361.539L323.849 361.794C324.261 361.89 324.657 362.02 325.037 362.183C325.42 362.347 325.763 362.553 326.065 362.801C326.37 363.05 326.612 363.35 326.789 363.701C326.967 364.053 327.055 364.465 327.055 364.937C327.055 365.576 326.892 366.139 326.565 366.626C326.239 367.109 325.766 367.487 325.148 367.76C324.534 368.03 323.79 368.165 322.917 368.165C322.068 368.165 321.331 368.034 320.706 367.771C320.085 367.508 319.598 367.125 319.246 366.62C318.898 366.116 318.71 365.502 318.682 364.777H320.626C320.654 365.157 320.772 365.473 320.978 365.725C321.184 365.978 321.452 366.166 321.782 366.29C322.116 366.414 322.489 366.477 322.901 366.477C323.33 366.477 323.707 366.413 324.03 366.285C324.357 366.153 324.612 365.972 324.797 365.741C324.982 365.507 325.076 365.234 325.079 364.921C325.076 364.637 324.992 364.403 324.829 364.218C324.665 364.03 324.436 363.874 324.142 363.749C323.85 363.621 323.51 363.508 323.119 363.408L321.878 363.089C320.979 362.858 320.269 362.508 319.747 362.039C319.229 361.567 318.969 360.94 318.969 360.159C318.969 359.516 319.143 358.953 319.491 358.471C319.843 357.988 320.321 357.613 320.924 357.347C321.528 357.077 322.212 356.942 322.975 356.942C323.749 356.942 324.428 357.077 325.01 357.347C325.596 357.613 326.056 357.984 326.39 358.46C326.723 358.932 326.896 359.475 326.906 360.09H325.005ZM332.301 368.16C331.484 368.16 330.783 367.98 330.197 367.622C329.614 367.263 329.165 366.768 328.849 366.136C328.537 365.5 328.38 364.768 328.38 363.941C328.38 363.11 328.54 362.377 328.86 361.741C329.179 361.102 329.63 360.605 330.213 360.25C330.799 359.891 331.491 359.712 332.29 359.712C332.954 359.712 333.542 359.834 334.053 360.079C334.568 360.321 334.978 360.663 335.284 361.107C335.589 361.548 335.763 362.062 335.806 362.652H333.963C333.888 362.258 333.711 361.929 333.43 361.667C333.153 361.4 332.782 361.267 332.317 361.267C331.923 361.267 331.576 361.374 331.278 361.587C330.98 361.796 330.747 362.098 330.58 362.492C330.417 362.886 330.335 363.359 330.335 363.909C330.335 364.467 330.417 364.946 330.58 365.347C330.744 365.745 330.973 366.052 331.267 366.269C331.566 366.482 331.916 366.588 332.317 366.588C332.601 366.588 332.855 366.535 333.079 366.429C333.306 366.319 333.496 366.161 333.649 365.955C333.801 365.749 333.906 365.498 333.963 365.203H335.806C335.76 365.782 335.589 366.295 335.294 366.743C335 367.187 334.598 367.535 334.091 367.787C333.583 368.036 332.986 368.16 332.301 368.16ZM339.744 368.165C339.225 368.165 338.758 368.073 338.343 367.888C337.931 367.7 337.604 367.423 337.363 367.057C337.125 366.691 337.006 366.24 337.006 365.704C337.006 365.243 337.091 364.861 337.261 364.559C337.432 364.257 337.664 364.016 337.959 363.835C338.254 363.653 338.586 363.517 338.955 363.424C339.328 363.328 339.713 363.259 340.111 363.217C340.591 363.167 340.979 363.123 341.278 363.083C341.576 363.041 341.793 362.977 341.928 362.892C342.066 362.803 342.135 362.666 342.135 362.482V362.45C342.135 362.048 342.016 361.738 341.778 361.517C341.54 361.297 341.198 361.187 340.75 361.187C340.278 361.187 339.903 361.29 339.626 361.496C339.353 361.702 339.168 361.945 339.072 362.226L337.272 361.97C337.414 361.473 337.648 361.058 337.975 360.724C338.302 360.386 338.701 360.134 339.174 359.967C339.646 359.797 340.168 359.712 340.74 359.712C341.134 359.712 341.526 359.758 341.917 359.85C342.308 359.942 342.664 360.095 342.988 360.308C343.311 360.518 343.57 360.804 343.765 361.166C343.964 361.528 344.064 361.981 344.064 362.524V368H342.21V366.876H342.146C342.029 367.103 341.864 367.316 341.651 367.515C341.441 367.711 341.176 367.869 340.857 367.989C340.541 368.107 340.17 368.165 339.744 368.165ZM340.244 366.748C340.631 366.748 340.967 366.672 341.251 366.519C341.535 366.363 341.754 366.157 341.906 365.901C342.062 365.646 342.141 365.367 342.141 365.065V364.101C342.08 364.151 341.977 364.197 341.832 364.239C341.69 364.282 341.53 364.319 341.352 364.351C341.175 364.383 340.999 364.412 340.825 364.436C340.651 364.461 340.5 364.483 340.372 364.5C340.085 364.539 339.827 364.603 339.6 364.692C339.373 364.781 339.193 364.905 339.062 365.065C338.93 365.221 338.865 365.424 338.865 365.672C338.865 366.027 338.994 366.295 339.254 366.477C339.513 366.658 339.843 366.748 340.244 366.748ZM347.931 357.091V368H346.002V357.091H347.931ZM352.268 368.165C351.75 368.165 351.283 368.073 350.867 367.888C350.455 367.7 350.128 367.423 349.887 367.057C349.649 366.691 349.53 366.24 349.53 365.704C349.53 365.243 349.615 364.861 349.786 364.559C349.956 364.257 350.189 364.016 350.484 363.835C350.778 363.653 351.11 363.517 351.48 363.424C351.853 363.328 352.238 363.259 352.636 363.217C353.115 363.167 353.504 363.123 353.802 363.083C354.1 363.041 354.317 362.977 354.452 362.892C354.59 362.803 354.66 362.666 354.66 362.482V362.45C354.66 362.048 354.541 361.738 354.303 361.517C354.065 361.297 353.722 361.187 353.275 361.187C352.802 361.187 352.428 361.29 352.151 361.496C351.877 361.702 351.693 361.945 351.597 362.226L349.796 361.97C349.938 361.473 350.173 361.058 350.5 360.724C350.826 360.386 351.226 360.134 351.698 359.967C352.17 359.797 352.692 359.712 353.264 359.712C353.658 359.712 354.051 359.758 354.441 359.85C354.832 359.942 355.189 360.095 355.512 360.308C355.835 360.518 356.094 360.804 356.29 361.166C356.489 361.528 356.588 361.981 356.588 362.524V368H354.734V366.876H354.67C354.553 367.103 354.388 367.316 354.175 367.515C353.965 367.711 353.701 367.869 353.381 367.989C353.065 368.107 352.694 368.165 352.268 368.165ZM352.769 366.748C353.156 366.748 353.491 366.672 353.775 366.519C354.06 366.363 354.278 366.157 354.431 365.901C354.587 365.646 354.665 365.367 354.665 365.065V364.101C354.605 364.151 354.502 364.197 354.356 364.239C354.214 364.282 354.054 364.319 353.877 364.351C353.699 364.383 353.523 364.412 353.349 364.436C353.175 364.461 353.024 364.483 352.897 364.5C352.609 364.539 352.351 364.603 352.124 364.692C351.897 364.781 351.718 364.905 351.586 365.065C351.455 365.221 351.389 365.424 351.389 365.672C351.389 366.027 351.519 366.295 351.778 366.477C352.037 366.658 352.367 366.748 352.769 366.748ZM358.612 368V357.091H360.54V361.171H360.62C360.72 360.972 360.86 360.761 361.041 360.537C361.222 360.31 361.467 360.116 361.776 359.957C362.085 359.793 362.479 359.712 362.959 359.712C363.591 359.712 364.161 359.873 364.669 360.196C365.18 360.516 365.585 360.99 365.883 361.619C366.185 362.244 366.336 363.011 366.336 363.92C366.336 364.818 366.188 365.582 365.894 366.21C365.599 366.839 365.198 367.318 364.69 367.648C364.182 367.979 363.607 368.144 362.964 368.144C362.495 368.144 362.106 368.066 361.797 367.909C361.489 367.753 361.24 367.565 361.052 367.345C360.867 367.121 360.723 366.91 360.62 366.711H360.508V368H358.612ZM360.503 363.909C360.503 364.438 360.578 364.902 360.727 365.299C360.88 365.697 361.098 366.008 361.382 366.232C361.67 366.452 362.018 366.562 362.426 366.562C362.852 366.562 363.209 366.448 363.497 366.221C363.784 365.99 364.001 365.676 364.147 365.278C364.296 364.877 364.37 364.42 364.37 363.909C364.37 363.401 364.297 362.95 364.152 362.556C364.006 362.162 363.79 361.853 363.502 361.629C363.214 361.406 362.856 361.294 362.426 361.294C362.014 361.294 361.664 361.402 361.377 361.619C361.089 361.835 360.871 362.139 360.722 362.529C360.576 362.92 360.503 363.38 360.503 363.909ZM369.903 357.091V368H367.975V357.091H369.903ZM375.508 368.16C374.688 368.16 373.98 367.989 373.383 367.648C372.79 367.304 372.334 366.817 372.014 366.189C371.695 365.557 371.535 364.813 371.535 363.957C371.535 363.115 371.695 362.377 372.014 361.741C372.337 361.102 372.788 360.605 373.367 360.25C373.946 359.891 374.626 359.712 375.407 359.712C375.911 359.712 376.387 359.793 376.835 359.957C377.286 360.116 377.684 360.365 378.028 360.702C378.376 361.04 378.649 361.469 378.848 361.991C379.047 362.51 379.147 363.128 379.147 363.845V364.436H372.44V363.137H377.298C377.295 362.767 377.215 362.439 377.059 362.151C376.902 361.86 376.684 361.631 376.403 361.464C376.126 361.297 375.803 361.214 375.434 361.214C375.04 361.214 374.693 361.31 374.395 361.501C374.097 361.69 373.864 361.938 373.697 362.247C373.534 362.553 373.451 362.888 373.447 363.254V364.388C373.447 364.864 373.534 365.273 373.708 365.614C373.882 365.951 374.125 366.21 374.438 366.391C374.75 366.569 375.116 366.658 375.535 366.658C375.816 366.658 376.07 366.619 376.297 366.54C376.524 366.459 376.721 366.34 376.888 366.184C377.055 366.027 377.181 365.834 377.266 365.603L379.067 365.805C378.953 366.281 378.736 366.697 378.417 367.052C378.101 367.403 377.696 367.677 377.202 367.872C376.709 368.064 376.144 368.16 375.508 368.16Z" fill="black"/>
<path d="M362.076 85V74.0909H366.167C367.005 74.0909 367.708 74.2472 368.276 74.5597C368.848 74.8722 369.279 75.3018 369.571 75.8487C369.865 76.392 370.013 77.0099 370.013 77.7024C370.013 78.402 369.865 79.0234 369.571 79.5668C369.276 80.1101 368.841 80.538 368.266 80.8505C367.69 81.1594 366.982 81.3139 366.14 81.3139H363.429V79.6893H365.874C366.364 79.6893 366.765 79.604 367.078 79.4336C367.39 79.2631 367.621 79.0288 367.77 78.7305C367.923 78.4322 367.999 78.0895 367.999 77.7024C367.999 77.3153 367.923 76.9744 367.77 76.6797C367.621 76.3849 367.388 76.1559 367.072 75.9925C366.76 75.8256 366.357 75.7422 365.863 75.7422H364.052V85H362.076ZM371.644 85V76.8182H373.514V78.1818H373.599C373.748 77.7095 374.004 77.3455 374.366 77.0898C374.732 76.8306 375.149 76.701 375.618 76.701C375.724 76.701 375.843 76.7063 375.975 76.717C376.11 76.7241 376.222 76.7365 376.31 76.7543V78.5281C376.229 78.4996 376.099 78.4748 375.921 78.4535C375.747 78.4286 375.579 78.4162 375.415 78.4162C375.064 78.4162 374.748 78.4925 374.467 78.6452C374.19 78.7944 373.972 79.0021 373.812 79.2685C373.652 79.5348 373.572 79.842 373.572 80.19V85H371.644ZM380.823 85.1598C380.024 85.1598 379.332 84.984 378.746 84.6325C378.16 84.2809 377.705 83.7891 377.382 83.157C377.063 82.5249 376.903 81.7862 376.903 80.9411C376.903 80.0959 377.063 79.3555 377.382 78.7198C377.705 78.0842 378.16 77.5906 378.746 77.239C379.332 76.8874 380.024 76.7116 380.823 76.7116C381.622 76.7116 382.315 76.8874 382.901 77.239C383.487 77.5906 383.939 78.0842 384.259 78.7198C384.582 79.3555 384.744 80.0959 384.744 80.9411C384.744 81.7862 384.582 82.5249 384.259 83.157C383.939 83.7891 383.487 84.2809 382.901 84.6325C382.315 84.984 381.622 85.1598 380.823 85.1598ZM380.834 83.6151C381.267 83.6151 381.629 83.4961 381.921 83.2582C382.212 83.0167 382.428 82.6935 382.57 82.2887C382.716 81.8839 382.789 81.4329 382.789 80.9357C382.789 80.435 382.716 79.9822 382.57 79.5774C382.428 79.169 382.212 78.8441 381.921 78.6026C381.629 78.3612 381.267 78.2404 380.834 78.2404C380.39 78.2404 380.021 78.3612 379.726 78.6026C379.435 78.8441 379.216 79.169 379.071 79.5774C378.929 79.9822 378.858 80.435 378.858 80.9357C378.858 81.4329 378.929 81.8839 379.071 82.2887C379.216 82.6935 379.435 83.0167 379.726 83.2582C380.021 83.4961 380.39 83.6151 380.834 83.6151ZM390.525 76.8182V78.3097H385.688V76.8182H390.525ZM386.897 85V76.0458C386.897 75.4954 387.011 75.0373 387.238 74.6715C387.469 74.3058 387.778 74.0323 388.165 73.8512C388.552 73.6701 388.982 73.5795 389.454 73.5795C389.788 73.5795 390.084 73.6062 390.343 73.6594C390.603 73.7127 390.794 73.7607 390.919 73.8033L390.535 75.2947C390.454 75.2699 390.351 75.245 390.226 75.2202C390.102 75.1918 389.964 75.1776 389.811 75.1776C389.452 75.1776 389.198 75.2646 389.049 75.4386C388.903 75.609 388.831 75.854 388.831 76.1737V85H386.897ZM392.035 85V76.8182H393.963V85H392.035ZM393.004 75.657C392.699 75.657 392.436 75.5558 392.216 75.3533C391.996 75.1474 391.886 74.9006 391.886 74.6129C391.886 74.3217 391.996 74.0749 392.216 73.8725C392.436 73.6665 392.699 73.5636 393.004 73.5636C393.313 73.5636 393.576 73.6665 393.793 73.8725C394.013 74.0749 394.123 74.3217 394.123 74.6129C394.123 74.9006 394.013 75.1474 393.793 75.3533C393.576 75.5558 393.313 75.657 393.004 75.657ZM400.031 76.8182V78.3097H395.328V76.8182H400.031ZM396.489 74.858H398.417V82.5391C398.417 82.7983 398.456 82.9972 398.535 83.1357C398.616 83.2706 398.723 83.3629 398.854 83.4126C398.986 83.4624 399.131 83.4872 399.291 83.4872C399.412 83.4872 399.522 83.4783 399.621 83.4606C399.724 83.4428 399.802 83.4268 399.856 83.4126L400.181 84.9201C400.078 84.9556 399.93 84.9947 399.738 85.0373C399.55 85.0799 399.319 85.1048 399.046 85.1119C398.563 85.1261 398.128 85.0533 397.741 84.8935C397.354 84.7301 397.047 84.478 396.819 84.1371C396.596 83.7962 396.486 83.37 396.489 82.8587V74.858ZM403.998 85.1651C403.48 85.1651 403.013 85.0728 402.598 84.8881C402.186 84.6999 401.859 84.4229 401.617 84.0572C401.38 83.6914 401.261 83.2404 401.261 82.7042C401.261 82.2425 401.346 81.8608 401.516 81.5589C401.687 81.2571 401.919 81.0156 402.214 80.8345C402.509 80.6534 402.841 80.5167 403.21 80.4244C403.583 80.3285 403.968 80.2592 404.366 80.2166C404.845 80.1669 405.234 80.1225 405.533 80.0835C405.831 80.0408 406.047 79.9769 406.182 79.8917C406.321 79.8029 406.39 79.6662 406.39 79.4815V79.4496C406.39 79.0483 406.271 78.7376 406.033 78.5174C405.795 78.2972 405.453 78.1871 405.005 78.1871C404.533 78.1871 404.158 78.2901 403.881 78.4961C403.608 78.7021 403.423 78.9453 403.327 79.2259L401.527 78.9702C401.669 78.473 401.903 78.0575 402.23 77.7237C402.557 77.3864 402.956 77.1342 403.429 76.9673C403.901 76.7969 404.423 76.7116 404.995 76.7116C405.389 76.7116 405.781 76.7578 406.172 76.8501C406.562 76.9425 406.919 77.0952 407.242 77.3082C407.566 77.5178 407.825 77.8036 408.02 78.1658C408.219 78.5281 408.318 78.9808 408.318 79.5241V85H406.465V83.8761H406.401C406.284 84.1033 406.119 84.3164 405.905 84.5153C405.696 84.7106 405.431 84.8686 405.112 84.9893C404.796 85.1065 404.425 85.1651 403.998 85.1651ZM404.499 83.7482C404.886 83.7482 405.222 83.6719 405.506 83.5192C405.79 83.3629 406.008 83.157 406.161 82.9013C406.317 82.6456 406.396 82.3668 406.396 82.065V81.1009C406.335 81.1506 406.232 81.1967 406.087 81.2393C405.945 81.282 405.785 81.3192 405.607 81.3512C405.43 81.3832 405.254 81.4116 405.08 81.4364C404.906 81.4613 404.755 81.4826 404.627 81.5004C404.339 81.5394 404.082 81.6033 403.855 81.6921C403.627 81.7809 403.448 81.9052 403.317 82.065C403.185 82.2212 403.12 82.4237 403.12 82.6722C403.12 83.0273 403.249 83.2955 403.508 83.4766C403.768 83.6577 404.098 83.7482 404.499 83.7482ZM410.343 85V74.0909H412.271V78.1712H412.351C412.45 77.9723 412.59 77.761 412.772 77.5373C412.953 77.31 413.198 77.1165 413.507 76.9567C413.816 76.7933 414.21 76.7116 414.689 76.7116C415.321 76.7116 415.891 76.8732 416.399 77.1964C416.91 77.516 417.315 77.9901 417.614 78.6186C417.915 79.2436 418.066 80.0107 418.066 80.9197C418.066 81.8182 417.919 82.5817 417.624 83.2102C417.329 83.8388 416.928 84.3182 416.42 84.6484C415.913 84.9787 415.337 85.1438 414.695 85.1438C414.226 85.1438 413.837 85.0657 413.528 84.9094C413.219 84.7532 412.97 84.565 412.782 84.3448C412.598 84.1211 412.454 83.9098 412.351 83.7109H412.239V85H410.343ZM412.234 80.9091C412.234 81.4382 412.308 81.9016 412.457 82.2994C412.61 82.6971 412.828 83.0078 413.112 83.2315C413.4 83.4517 413.748 83.5618 414.157 83.5618C414.583 83.5618 414.94 83.4482 415.227 83.2209C415.515 82.9901 415.731 82.6758 415.877 82.2781C416.026 81.8768 416.101 81.4205 416.101 80.9091C416.101 80.4013 416.028 79.9503 415.882 79.5561C415.737 79.1619 415.52 78.853 415.233 78.6293C414.945 78.4055 414.586 78.2937 414.157 78.2937C413.745 78.2937 413.395 78.402 413.107 78.6186C412.82 78.8352 412.601 79.1388 412.452 79.5295C412.306 79.9201 412.234 80.38 412.234 80.9091ZM421.634 74.0909V85H419.706V74.0909H421.634ZM427.239 85.1598C426.419 85.1598 425.71 84.9893 425.114 84.6484C424.521 84.304 424.064 83.8175 423.745 83.1889C423.425 82.5568 423.265 81.8129 423.265 80.957C423.265 80.1154 423.425 79.3768 423.745 78.7411C424.068 78.1019 424.519 77.6048 425.098 77.2496C425.676 76.891 426.356 76.7116 427.138 76.7116C427.642 76.7116 428.118 76.7933 428.565 76.9567C429.016 77.1165 429.414 77.3651 429.758 77.7024C430.106 78.0398 430.38 78.4695 430.579 78.9915C430.778 79.5099 430.877 80.1278 430.877 80.8452V81.4364H424.171V80.1367H429.029C429.025 79.7674 428.945 79.4389 428.789 79.1513C428.633 78.8601 428.414 78.631 428.134 78.4641C427.857 78.2972 427.534 78.2138 427.164 78.2138C426.77 78.2138 426.424 78.3097 426.126 78.5014C425.827 78.6896 425.595 78.9382 425.428 79.2472C425.264 79.5526 425.181 79.8881 425.177 80.2539V81.3885C425.177 81.8643 425.264 82.2727 425.438 82.6136C425.612 82.951 425.856 83.2102 426.168 83.3913C426.481 83.5689 426.847 83.6577 427.266 83.6577C427.546 83.6577 427.8 83.6186 428.027 83.5405C428.255 83.4588 428.452 83.3398 428.619 83.1836C428.785 83.0273 428.911 82.8338 428.997 82.603L430.797 82.8054C430.684 83.2812 430.467 83.6967 430.147 84.0518C429.831 84.4034 429.426 84.6768 428.933 84.8722C428.439 85.0639 427.875 85.1598 427.239 85.1598Z" fill="black"/>
<path d="M208.143 175.818C208.143 177.15 207.893 178.291 207.394 179.241C206.899 180.187 206.223 180.911 205.366 181.414C204.513 181.917 203.545 182.169 202.462 182.169C201.38 182.169 200.41 181.917 199.552 181.414C198.699 180.907 198.023 180.181 197.524 179.235C197.029 178.285 196.782 177.146 196.782 175.818C196.782 174.486 197.029 173.347 197.524 172.401C198.023 171.451 198.699 170.725 199.552 170.222C200.41 169.719 201.38 169.467 202.462 169.467C203.545 169.467 204.513 169.719 205.366 170.222C206.223 170.725 206.899 171.451 207.394 172.401C207.893 173.347 208.143 174.486 208.143 175.818ZM205.891 175.818C205.891 174.88 205.744 174.09 205.451 173.446C205.161 172.798 204.758 172.309 204.243 171.979C203.728 171.645 203.134 171.478 202.462 171.478C201.79 171.478 201.197 171.645 200.681 171.979C200.166 172.309 199.762 172.798 199.468 173.446C199.178 174.09 199.033 174.88 199.033 175.818C199.033 176.756 199.178 177.549 199.468 178.197C199.762 178.841 200.166 179.33 200.681 179.664C201.197 179.994 201.79 180.159 202.462 180.159C203.134 180.159 203.728 179.994 204.243 179.664C204.758 179.33 205.161 178.841 205.451 178.197C205.744 177.549 205.891 176.756 205.891 175.818ZM216.074 178.1V172.727H218.259V182H216.14V180.352H216.044C215.835 180.871 215.49 181.296 215.012 181.626C214.537 181.956 213.951 182.121 213.255 182.121C212.647 182.121 212.11 181.986 211.643 181.716C211.18 181.443 210.818 181.046 210.556 180.527C210.295 180.004 210.164 179.372 210.164 178.631V172.727H212.349V178.293C212.349 178.881 212.51 179.348 212.832 179.694C213.154 180.04 213.577 180.213 214.1 180.213C214.422 180.213 214.734 180.135 215.036 179.978C215.338 179.821 215.585 179.587 215.778 179.277C215.975 178.963 216.074 178.571 216.074 178.1ZM220.507 182V172.727H222.626V174.273H222.722C222.891 173.737 223.181 173.325 223.592 173.035C224.006 172.741 224.479 172.594 225.01 172.594C225.131 172.594 225.266 172.6 225.415 172.613C225.568 172.621 225.694 172.635 225.795 172.655V174.665C225.702 174.633 225.556 174.605 225.354 174.581C225.157 174.552 224.966 174.538 224.781 174.538C224.382 174.538 224.024 174.625 223.706 174.798C223.392 174.967 223.145 175.202 222.964 175.504C222.783 175.806 222.692 176.154 222.692 176.549V182H220.507ZM175.14 203V190.636H179.776C180.726 190.636 181.523 190.813 182.167 191.168C182.815 191.522 183.304 192.009 183.634 192.629C183.968 193.244 184.135 193.945 184.135 194.729C184.135 195.522 183.968 196.227 183.634 196.842C183.3 197.458 182.807 197.943 182.155 198.297C181.503 198.647 180.7 198.822 179.746 198.822H176.673V196.981H179.444C180 196.981 180.454 196.885 180.809 196.691C181.163 196.498 181.424 196.233 181.593 195.895C181.766 195.556 181.853 195.168 181.853 194.729C181.853 194.291 181.766 193.904 181.593 193.57C181.424 193.236 181.161 192.977 180.803 192.792C180.448 192.602 179.992 192.508 179.432 192.508H177.38V203H175.14ZM185.984 203V193.727H188.103V195.273H188.199C188.368 194.737 188.658 194.325 189.069 194.035C189.483 193.741 189.956 193.594 190.487 193.594C190.608 193.594 190.743 193.6 190.892 193.613C191.045 193.621 191.171 193.635 191.272 193.655V195.665C191.179 195.633 191.033 195.605 190.831 195.581C190.634 195.552 190.443 195.538 190.258 195.538C189.859 195.538 189.501 195.625 189.183 195.798C188.869 195.967 188.622 196.202 188.441 196.504C188.26 196.806 188.169 197.154 188.169 197.549V203H185.984ZM196.387 203.181C195.481 203.181 194.697 202.982 194.032 202.583C193.368 202.185 192.853 201.628 192.487 200.911C192.125 200.195 191.944 199.358 191.944 198.4C191.944 197.442 192.125 196.603 192.487 195.882C192.853 195.162 193.368 194.603 194.032 194.204C194.697 193.806 195.481 193.607 196.387 193.607C197.292 193.607 198.077 193.806 198.741 194.204C199.405 194.603 199.918 195.162 200.281 195.882C200.647 196.603 200.83 197.442 200.83 198.4C200.83 199.358 200.647 200.195 200.281 200.911C199.918 201.628 199.405 202.185 198.741 202.583C198.077 202.982 197.292 203.181 196.387 203.181ZM196.399 201.43C196.89 201.43 197.3 201.296 197.63 201.026C197.96 200.752 198.206 200.386 198.367 199.927C198.532 199.468 198.614 198.957 198.614 198.394C198.614 197.826 198.532 197.313 198.367 196.854C198.206 196.392 197.96 196.023 197.63 195.75C197.3 195.476 196.89 195.339 196.399 195.339C195.896 195.339 195.477 195.476 195.143 195.75C194.813 196.023 194.566 196.392 194.401 196.854C194.24 197.313 194.159 197.826 194.159 198.394C194.159 198.957 194.24 199.468 194.401 199.927C194.566 200.386 194.813 200.752 195.143 201.026C195.477 201.296 195.896 201.43 196.399 201.43ZM206.126 203.163C205.397 203.163 204.745 202.976 204.17 202.602C203.594 202.227 203.14 201.684 202.806 200.972C202.472 200.259 202.305 199.394 202.305 198.376C202.305 197.345 202.474 196.476 202.812 195.768C203.154 195.055 203.615 194.518 204.194 194.156C204.774 193.79 205.42 193.607 206.132 193.607C206.675 193.607 207.122 193.699 207.472 193.884C207.822 194.065 208.1 194.285 208.305 194.542C208.511 194.796 208.669 195.035 208.782 195.261H208.873V190.636H211.064V203H208.915V201.539H208.782C208.669 201.764 208.506 202.004 208.293 202.257C208.08 202.507 207.798 202.72 207.448 202.897C207.098 203.074 206.657 203.163 206.126 203.163ZM206.736 201.37C207.198 201.37 207.593 201.245 207.919 200.996C208.245 200.742 208.492 200.39 208.661 199.939C208.83 199.489 208.915 198.963 208.915 198.364C208.915 197.764 208.83 197.243 208.661 196.8C208.496 196.357 208.251 196.013 207.925 195.768C207.603 195.522 207.207 195.4 206.736 195.4C206.249 195.4 205.842 195.526 205.516 195.78C205.19 196.033 204.945 196.384 204.78 196.83C204.615 197.277 204.532 197.788 204.532 198.364C204.532 198.943 204.615 199.46 204.78 199.915C204.949 200.366 205.196 200.722 205.522 200.984C205.852 201.241 206.257 201.37 206.736 201.37ZM219.303 199.1V193.727H221.488V203H219.369V201.352H219.273C219.064 201.871 218.719 202.296 218.241 202.626C217.766 202.956 217.18 203.121 216.484 203.121C215.876 203.121 215.339 202.986 214.872 202.716C214.409 202.443 214.047 202.046 213.785 201.527C213.524 201.004 213.393 200.372 213.393 199.631V193.727H215.578V199.293C215.578 199.881 215.739 200.348 216.061 200.694C216.383 201.04 216.806 201.213 217.329 201.213C217.651 201.213 217.963 201.135 218.265 200.978C218.567 200.821 218.814 200.587 219.007 200.277C219.204 199.963 219.303 199.571 219.303 199.1ZM227.78 203.181C226.855 203.181 226.06 202.978 225.396 202.571C224.736 202.165 224.227 201.603 223.868 200.887C223.514 200.167 223.337 199.338 223.337 198.4C223.337 197.458 223.518 196.627 223.881 195.907C224.243 195.182 224.754 194.619 225.414 194.216C226.078 193.81 226.863 193.607 227.768 193.607C228.521 193.607 229.187 193.745 229.767 194.023C230.35 194.297 230.815 194.685 231.161 195.188C231.507 195.687 231.704 196.271 231.753 196.939H229.664C229.579 196.492 229.378 196.12 229.06 195.822C228.746 195.52 228.326 195.369 227.799 195.369C227.352 195.369 226.959 195.49 226.621 195.732C226.283 195.969 226.02 196.311 225.83 196.758C225.645 197.205 225.553 197.74 225.553 198.364C225.553 198.996 225.645 199.539 225.83 199.994C226.016 200.444 226.275 200.792 226.609 201.038C226.947 201.279 227.344 201.4 227.799 201.4C228.12 201.4 228.408 201.34 228.662 201.219C228.919 201.094 229.135 200.915 229.308 200.682C229.481 200.448 229.6 200.165 229.664 199.831H231.753C231.7 200.487 231.507 201.068 231.173 201.575C230.839 202.078 230.384 202.473 229.809 202.759C229.233 203.04 228.557 203.181 227.78 203.181ZM238.178 193.727V195.418H232.847V193.727H238.178ZM234.163 191.506H236.348V200.211C236.348 200.505 236.393 200.73 236.481 200.887C236.574 201.04 236.694 201.145 236.843 201.201C236.992 201.257 237.157 201.286 237.338 201.286C237.475 201.286 237.6 201.275 237.713 201.255C237.829 201.235 237.918 201.217 237.978 201.201L238.347 202.909C238.23 202.95 238.063 202.994 237.845 203.042C237.632 203.091 237.371 203.119 237.061 203.127C236.513 203.143 236.02 203.06 235.582 202.879C235.143 202.694 234.795 202.408 234.537 202.022C234.284 201.636 234.159 201.153 234.163 200.573V191.506ZM247.201 196.178L245.209 196.396C245.153 196.194 245.054 196.005 244.913 195.828C244.776 195.651 244.591 195.508 244.358 195.4C244.124 195.291 243.839 195.237 243.501 195.237C243.046 195.237 242.663 195.335 242.354 195.532C242.048 195.73 241.897 195.985 241.901 196.299C241.897 196.569 241.995 196.788 242.197 196.957C242.402 197.126 242.74 197.265 243.211 197.374L244.792 197.712C245.67 197.901 246.322 198.201 246.748 198.611C247.179 199.022 247.396 199.559 247.4 200.223C247.396 200.807 247.225 201.322 246.887 201.768C246.553 202.211 246.088 202.557 245.493 202.807C244.897 203.056 244.213 203.181 243.44 203.181C242.305 203.181 241.392 202.944 240.699 202.469C240.007 201.99 239.595 201.324 239.462 200.471L241.593 200.265C241.689 200.684 241.895 201 242.209 201.213C242.523 201.426 242.931 201.533 243.434 201.533C243.953 201.533 244.37 201.426 244.684 201.213C245.002 201 245.161 200.736 245.161 200.422C245.161 200.157 245.058 199.937 244.853 199.764C244.652 199.591 244.338 199.458 243.911 199.366L242.329 199.034C241.44 198.849 240.782 198.537 240.355 198.098C239.929 197.655 239.717 197.096 239.721 196.42C239.717 195.848 239.872 195.353 240.186 194.935C240.504 194.512 240.945 194.186 241.508 193.957C242.076 193.723 242.73 193.607 243.47 193.607C244.557 193.607 245.412 193.838 246.036 194.301C246.664 194.764 247.052 195.389 247.201 196.178Z" fill="#1C9D07"/>
</svg>
