<svg width="57" height="50" viewBox="0 0 57 50" fill="none" xmlns="http://www.w3.org/2000/svg">
<path fill-rule="evenodd" clip-rule="evenodd" d="M5.00823 0.165043C2.59849 0.681203 0.545801 2.76432 0.11716 5.12907C0.0356622 5.57864 -0.0013011 11.8522 3.49211e-05 25.0409C0.00170495 41.133 0.0276461 44.4166 0.158131 45.0281C0.550477 46.8673 1.87871 48.5344 3.58058 49.3238C4.09027 49.5601 4.80449 49.8075 5.16789 49.8735C6.09721 50.0422 50.9028 50.0422 51.8321 49.8735C54.2407 49.4362 56.3332 47.4125 56.8419 45.0281C56.9724 44.4166 56.9983 41.133 57 25.0409C57.0013 11.8522 56.9643 5.57864 56.8828 5.12907C56.5604 3.35017 55.175 1.52414 53.5422 0.725784C51.9519 -0.0518856 53.6008 -0.00442908 28.4443 0.0032038C9.40598 0.00895612 5.6149 0.0351733 5.00823 0.165043ZM51.4395 1.98455C52.8847 2.25678 54.061 3.16543 54.698 4.5013L55.0535 5.24699L55.0878 9.20171L55.122 13.1564H28.5H1.87804L1.91222 9.20171L1.94651 5.24699L2.30201 4.5013C2.91903 3.20713 4.12111 2.25579 5.47317 1.9914C6.18126 1.85291 50.706 1.84627 51.4395 1.98455ZM6.36063 4.64864C4.48618 5.00816 3.4501 7.06052 4.27153 8.78688C5.14907 10.6312 7.61337 11.031 9.04926 9.56201C9.5152 9.08523 9.90699 8.15026 9.90699 7.51474C9.90699 6.79625 9.51197 5.92975 8.94984 5.41481C8.17639 4.7065 7.34361 4.46003 6.36063 4.64864ZM14.9171 4.86856C13.8193 5.3616 13.1368 6.39879 13.1393 7.57005C13.1446 10.18 16.294 11.467 18.1537 9.6192C20.0139 7.77094 18.7144 4.64344 16.0861 4.64344C15.6527 4.64344 15.2422 4.72243 14.9171 4.86856ZM24.1639 4.82973C23.8821 4.92851 23.4464 5.22443 23.1527 5.51625C21.2934 7.36352 22.5892 10.4927 25.2156 10.498C26.8581 10.5013 28.1611 9.20614 28.1611 7.57005C28.1611 5.52853 26.1338 4.13868 24.1639 4.82973ZM7.70812 6.8634C8.036 7.2092 8.091 7.55832 7.88748 8.00202C7.72159 8.36376 7.09722 8.65701 6.68461 8.56697C5.73949 8.36077 5.58083 7.0363 6.44958 6.60543C6.93133 6.36648 7.31076 6.44436 7.70812 6.8634ZM16.8555 6.85952C17.2588 7.33564 17.2449 7.87381 16.8184 8.2976C16.5774 8.53699 16.3873 8.62095 16.0861 8.62095C15.16 8.62095 14.6695 7.45909 15.3219 6.81074C15.7608 6.37478 16.464 6.39713 16.8555 6.85952ZM25.9479 6.84249C26.3881 7.27989 26.4016 7.91021 25.9798 8.32935C25.3273 8.97759 24.1579 8.4902 24.1579 7.57005C24.1579 7.27081 24.2424 7.08187 24.4834 6.84249C24.9325 6.39624 25.4987 6.39624 25.9479 6.84249ZM55.1092 29.6158C55.1092 45.709 55.144 44.896 54.4045 46.044C53.9186 46.798 53.3374 47.2929 52.4423 47.7143L51.7134 48.0575H28.5H5.28657L4.55766 47.7143C3.66264 47.2929 3.08135 46.798 2.59549 46.044C1.856 44.896 1.89084 45.709 1.89084 29.6158V15.037H28.5H55.1092V29.6158ZM29.5586 20.7063C29.2873 20.9393 29.144 21.5436 27.3173 30.1596C25.5468 38.5099 25.3796 39.3926 25.5144 39.6721C25.8259 40.318 26.6475 40.3907 27.0662 39.8092C27.1924 39.6341 27.926 36.3977 29.1606 30.5697C30.2057 25.6363 31.0607 21.5193 31.0607 21.421C31.0607 21.0982 30.8184 20.7054 30.5422 20.5802C30.1373 20.3969 29.8806 20.4299 29.5586 20.7063ZM21.9282 24.4088C21.3137 24.8335 15.6891 29.6672 15.5854 29.8596C15.3781 30.2445 15.4622 30.6158 15.8413 30.9905C16.4475 31.5895 21.8217 36.0989 22.1158 36.2553C22.4517 36.4338 23.098 36.2585 23.2681 35.9429C23.4726 35.5631 23.3938 35.0791 23.0724 34.7401C22.9041 34.5625 21.6891 33.51 20.3725 32.4013C19.056 31.2925 17.9646 30.3492 17.9472 30.305C17.9297 30.2608 19.0466 29.2671 20.4291 28.0969C21.8116 26.9266 23.0408 25.8645 23.1607 25.7367C23.4708 25.406 23.4452 24.8278 23.1052 24.4902C22.7827 24.1696 22.3206 24.1376 21.9282 24.4088ZM33.8948 24.4902C33.5548 24.8278 33.5292 25.406 33.8393 25.7367C33.9592 25.8645 35.1884 26.9266 36.5709 28.0969C37.9534 29.2671 39.0703 30.2608 39.0528 30.305C39.0354 30.3492 37.944 31.2925 36.6275 32.4013C35.3109 33.51 34.0959 34.5625 33.9276 34.7401C33.6062 35.0791 33.5273 35.5631 33.7319 35.9429C33.902 36.2585 34.5483 36.4338 34.8842 36.2553C35.1783 36.0989 40.5525 31.5895 41.1587 30.9905C41.5378 30.6158 41.6219 30.2445 41.4146 29.8596C41.3109 29.6672 35.6863 24.8335 35.0718 24.4088C34.6794 24.1376 34.2173 24.1696 33.8948 24.4902Z" fill="black"/>
</svg>
