<svg width="52" height="56" viewBox="0 0 52 56" fill="none" xmlns="http://www.w3.org/2000/svg">
<path fill-rule="evenodd" clip-rule="evenodd" d="M3.18041 0.0708988C1.96549 0.441456 0.903004 1.34925 0.35794 2.48267L0 3.22676V28.0107V52.7947L0.35794 53.5388C0.812681 54.4845 1.53111 55.1956 2.4865 55.6457L3.23823 56H25.9637H48.6891L49.3952 55.6771C50.2882 55.2685 51.179 54.383 51.6038 53.4815C51.9261 52.7973 51.9275 52.784 51.9637 50.0208L52 47.247L51.7088 46.9586C51.3614 46.6147 50.9551 46.5896 50.5813 46.8888C50.3117 47.1046 50.3076 47.141 50.2504 49.7887L50.1926 52.47L49.8426 53.03C49.6259 53.3767 49.277 53.7219 48.9265 53.9365L48.3603 54.2829H25.9637H3.56703L3.00092 53.9365C2.65003 53.7217 2.30169 53.3769 2.08473 53.0296L1.73477 52.4692L1.70447 33.4287L1.67428 14.3881H25.9623H50.2504V26.9033V39.4183L50.518 39.6673C50.8744 39.9986 51.4115 39.9908 51.7352 39.6498L51.988 39.3833L51.9577 21.3051L51.9274 3.22676L51.5665 2.48267C51.1312 1.58484 50.3564 0.799536 49.4648 0.352394L48.8048 0.0214453L26.1372 0.00209896C13.67 -0.00854727 3.33943 0.0223611 3.18041 0.0708988ZM48.9265 2.08498C49.2771 2.29962 49.6258 2.64465 49.8426 2.99163L50.1926 3.55176L50.2265 8.11143L50.2604 12.671H25.9687H1.67694L1.68203 8.2923C1.68747 3.59125 1.7047 3.43373 2.29625 2.66595C2.46094 2.45222 2.86838 2.14291 3.20157 1.97852L3.80758 1.67962L26.084 1.70904L48.3603 1.73858L48.9265 2.08498ZM6.33942 6.37564C5.82662 6.58021 5.6824 7.30106 6.06151 7.76446C6.25314 7.99879 6.38348 8.03473 7.04131 8.03473C7.66825 8.03473 7.84416 7.99112 8.05383 7.78358C8.41825 7.42275 8.3913 6.86777 7.99277 6.52847C7.6583 6.24365 6.85626 6.16959 6.33942 6.37564ZM11.2671 6.59498C10.8594 6.9985 10.8407 7.29064 11.1961 7.69966C11.7325 8.31692 13.2505 8.15402 13.4264 7.4603C13.612 6.72845 13.1103 6.26036 12.1403 6.26036C11.703 6.26036 11.5433 6.32161 11.2671 6.59498ZM16.6324 6.37564C16.1196 6.58021 15.9754 7.30106 16.3545 7.76446C16.5461 7.99879 16.6764 8.03473 17.3343 8.03473C17.9612 8.03473 18.1371 7.99112 18.3468 7.78358C18.7112 7.42275 18.6843 6.86777 18.2857 6.52847C17.9513 6.24365 17.1492 6.16959 16.6324 6.37564ZM30.4741 6.34027C29.864 6.56681 29.6749 7.40077 30.1393 7.81666C30.3735 8.02649 30.6718 8.03473 38.0137 8.03473H45.6449L45.8659 7.76446C46.1483 7.41931 46.1483 6.93302 45.866 6.58788L45.6449 6.3176L38.1463 6.29677C34.0219 6.28532 30.5695 6.30489 30.4741 6.34027ZM24.887 19.0854C24.3135 19.2285 24.7039 19.0169 18.7938 22.3867C15.7978 24.0947 13.4714 25.495 13.2254 25.7382C12.654 26.3032 12.2493 27.0149 12.0337 27.8344C11.8829 28.4077 11.8542 29.445 11.8542 34.3253C11.8542 40.4677 11.885 40.8967 12.3986 41.9059C12.946 42.9813 13.4819 43.3569 18.7405 46.3495C21.4728 47.9046 23.9687 49.2954 24.2867 49.4403C25.118 49.8189 26.8076 49.8193 27.6406 49.4411C27.9587 49.2967 30.4555 47.9059 33.189 46.3504C38.4516 43.3558 38.979 42.986 39.5288 41.9059C40.0424 40.8967 40.0731 40.4677 40.0731 34.3253C40.0731 29.445 40.0444 28.4077 39.8936 27.8344C39.6693 26.9818 39.2491 26.2633 38.6378 25.687C38.1855 25.2604 29.3696 20.129 27.8429 19.4035C27.0418 19.0228 25.7119 18.8797 24.887 19.0854ZM26.6681 20.8392C27.2151 21.0054 36.6258 26.3357 37.293 26.8573C37.5132 27.0293 37.8124 27.3931 37.958 27.6657L38.2227 28.1613V34.346C38.2227 40.2942 38.2139 40.5488 37.9918 41.0031C37.8647 41.2629 37.6174 41.6087 37.4424 41.7715C37.0697 42.118 27.3832 47.6747 26.7787 47.8887C26.2564 48.0736 25.6692 48.0735 25.1541 47.8886C24.5438 47.6694 14.8511 42.1123 14.485 41.7716C14.31 41.6087 14.0627 41.2629 13.9356 41.0031C13.7135 40.5488 13.7047 40.2942 13.7047 34.346V28.1613L13.9694 27.6657C14.115 27.3931 14.4142 27.0296 14.6344 26.8577C15.2311 26.3918 24.8349 20.9441 25.2857 20.8157C25.8368 20.6588 26.0881 20.663 26.6681 20.8392ZM18.0994 31.3305C17.8805 31.5472 17.8681 31.7121 17.8681 34.4036C17.8681 36.969 17.888 37.265 18.0705 37.4237C18.3808 37.6934 18.7365 37.7619 19.0628 37.6147C19.4709 37.4307 19.5254 37.2689 19.5976 36.0257L19.6607 34.94L20.4975 36.2284C21.4126 37.637 21.6981 37.8583 22.2885 37.6161C22.4701 37.5417 22.6687 37.3882 22.7298 37.2751C22.792 37.1602 22.8411 35.8853 22.8411 34.3871C22.8411 31.8468 22.8284 31.6888 22.6014 31.4032C22.301 31.0252 21.682 30.9896 21.3376 31.3305C21.1388 31.5273 21.1063 31.7121 21.1063 32.647C21.1063 33.2451 21.0672 33.7335 21.0196 33.7322C20.972 33.7311 20.6546 33.2911 20.3145 32.7548C19.4067 31.3232 19.1937 31.1016 18.7252 31.1016C18.4849 31.1016 18.2403 31.1911 18.0994 31.3305ZM24.2289 31.3305C24.0103 31.5469 23.9976 31.7121 23.9976 34.3386C23.9976 37.3519 24.0303 37.5238 24.6334 37.6736C24.948 37.7518 25.3547 37.589 25.5841 37.2932C25.6679 37.1853 25.7265 36.7283 25.7287 36.1671L25.7324 35.2227H26.7154C27.8552 35.2227 28.1611 35.0452 28.1611 34.384C28.1611 33.7219 27.7961 33.5056 26.6791 33.5056H25.7324V33.1621V32.8187H26.642C27.3871 32.8187 27.6067 32.7758 27.8563 32.5814C28.2382 32.2841 28.2742 31.6714 27.9298 31.3305C27.7204 31.1233 27.5443 31.1016 26.0793 31.1016C24.6144 31.1016 24.4382 31.1233 24.2289 31.3305ZM29.0863 31.3305C28.9449 31.4704 28.855 31.7121 28.855 31.9518C28.855 32.5032 29.2815 32.8187 30.0271 32.8187H30.5897V34.981C30.5897 36.9232 30.6118 37.1704 30.8061 37.4079C31.1068 37.7755 31.8074 37.7755 32.1081 37.4079C32.3024 37.1704 32.3245 36.9232 32.3245 34.981V32.8187H32.8871C33.6327 32.8187 34.0593 32.5032 34.0593 31.9518C34.0593 31.7121 33.9693 31.4704 33.828 31.3305C33.6133 31.118 33.4425 31.1016 31.4571 31.1016C29.4717 31.1016 29.3009 31.118 29.0863 31.3305ZM50.5344 42.4867C50.1379 42.879 50.1291 43.7701 50.518 44.1319C51.1577 44.7266 51.9852 44.2626 51.9852 43.3092C51.9852 42.6768 51.6149 42.2057 51.1178 42.2057C50.953 42.2057 50.6905 42.3322 50.5344 42.4867Z" fill="#D94EDC"/>
</svg>
