<svg width="46" height="40" viewBox="0 0 46 40" fill="none" xmlns="http://www.w3.org/2000/svg">
<path fill-rule="evenodd" clip-rule="evenodd" d="M2.89233 0.1107C2.29664 0.250855 1.42466 0.765369 0.9999 1.22723C0.784305 1.46172 0.471044 1.94302 0.303946 2.29659L0 2.93961V20.0309V37.1222L0.358685 37.8495C0.790643 38.7257 1.34668 39.2714 2.2395 39.6953L2.881 40H23.005H43.129L43.8546 39.6405C44.7287 39.2075 45.2731 38.6501 45.6961 37.7552L46 37.1122V20.0259V2.93961L45.6961 2.29659C45.2731 1.40175 44.7287 0.844303 43.8547 0.411322L43.1291 0.0517881L31.3993 0.0258939L19.6695 0L19.414 0.201281C19.0543 0.485058 19.053 1.06156 19.4117 1.34428C19.6645 1.54364 19.6768 1.54383 31.0926 1.54383C39.7844 1.54383 42.6151 1.57184 42.9158 1.66088C43.4433 1.81711 44.2388 2.61454 44.3947 3.1433C44.4773 3.42361 44.5115 4.59924 44.5115 7.16218V10.7849H23H1.48852V7.16218C1.48852 4.59924 1.52271 3.42361 1.60529 3.1433C1.76116 2.61454 2.5567 1.81711 3.08421 1.66088C3.3701 1.57627 4.73368 1.54383 8.01024 1.54383H12.5411L12.7768 1.30751C12.9254 1.15859 13.0125 0.96126 13.0125 0.773744C13.0125 0.586228 12.9254 0.388893 12.7768 0.239978L12.5411 0.00365774L7.90307 0.0132837C5.35223 0.0186743 3.09737 0.062473 2.89233 0.1107ZM14.7337 0.285028C14.5793 0.439815 14.453 0.659675 14.453 0.773744C14.453 0.887813 14.5793 1.10767 14.7337 1.26246C15.0103 1.53969 15.0301 1.54383 16.0826 1.54383C17.0886 1.54383 17.1644 1.53006 17.3864 1.30751C17.535 1.15859 17.6221 0.96126 17.6221 0.773744C17.6221 0.586228 17.535 0.388893 17.3864 0.239978C17.1644 0.0174232 17.0886 0.00365774 16.0826 0.00365774C15.0301 0.00365774 15.0103 0.00779697 14.7337 0.285028ZM6.14018 3.17304C5.68047 3.28519 4.85785 3.76842 4.59635 4.08001C4.46574 4.23557 4.24276 4.58403 4.10072 4.85453C3.87869 5.2775 3.84287 5.46029 3.84451 6.16435C3.84623 6.90911 3.87562 7.03695 4.17198 7.5891C4.53326 8.26225 4.83192 8.55229 5.55966 8.93714L6.0501 9.19656H15.3173H24.5846L25.075 8.93714C25.8024 8.55248 26.1012 8.26245 26.4634 7.5891C26.7614 7.03522 26.7898 6.91162 26.7898 6.16435C26.7898 5.4165 26.7615 5.29376 26.4622 4.73728C26.1086 4.08001 25.7048 3.6915 25.0197 3.34939L24.5846 3.13213L15.5094 3.11673C10.5181 3.10826 6.3019 3.13358 6.14018 3.17304ZM30.4911 3.23869C28.3153 4.03121 27.6799 6.72073 29.2879 8.33252C29.9223 8.96842 30.4904 9.19367 31.4509 9.1903C32.1427 9.1878 32.342 9.14843 32.7577 8.93252C33.481 8.55681 33.7826 8.26485 34.1453 7.5891C34.4422 7.03628 34.471 6.91017 34.4718 6.16435C34.4727 5.20155 34.2469 4.63053 33.614 3.99617C32.8249 3.20529 31.4792 2.87887 30.4911 3.23869ZM38.1738 3.23869C35.9979 4.03121 35.3626 6.72073 36.9706 8.33252C37.605 8.96842 38.1731 9.19367 39.1336 9.1903C39.8253 9.1878 40.0247 9.14843 40.4403 8.93252C41.1637 8.55681 41.4653 8.26485 41.828 7.5891C42.1249 7.03628 42.1537 6.91017 42.1544 6.16435C42.1554 5.20155 41.9295 4.63053 41.2967 3.99617C40.5076 3.20529 39.1618 2.87887 38.1738 3.23869ZM24.3829 4.75836C24.5591 4.83219 24.8278 5.05619 24.98 5.25622C25.2109 5.55964 25.2568 5.71173 25.2568 6.17387C25.2568 6.77233 25.097 7.08267 24.5956 7.4579C24.3329 7.65446 24.2462 7.65668 15.5264 7.68507C9.52526 7.70461 6.61056 7.68122 6.37114 7.61172C5.93563 7.48514 5.45614 6.9533 5.37192 6.50328C5.23574 5.77565 5.60249 5.03684 6.23737 4.75961C6.682 4.56545 23.9196 4.5643 24.3829 4.75836ZM32.0587 4.75547C33.0454 5.16872 33.2859 6.46535 32.5186 7.23457C31.8994 7.85517 31.0488 7.85815 30.4026 7.24189C29.1791 6.0753 30.4945 4.10032 32.0587 4.75547ZM39.7414 4.75547C40.7281 5.16872 40.9686 6.46535 40.2013 7.23457C39.5821 7.85517 38.7315 7.85815 38.0853 7.24189C36.8618 6.0753 38.1772 4.10032 39.7414 4.75547ZM44.5115 24.4187C44.5115 33.6324 44.4836 36.6066 44.3947 36.9085C44.2388 37.4372 43.4433 38.2347 42.9158 38.3909C42.3411 38.5611 3.65887 38.5611 3.08421 38.3909C2.5567 38.2347 1.76116 37.4372 1.60529 36.9085C1.51637 36.6066 1.48852 33.6324 1.48852 24.4187V12.325H23H44.5115V24.4187ZM21.2714 14.7833C17.3512 15.4045 14.0189 18.2782 12.7921 22.0955C12.3848 23.3631 12.2976 23.9487 12.2976 25.4165C12.2976 26.8843 12.3848 27.4699 12.7921 28.7375C14.0564 32.6715 17.4508 35.5057 21.6075 36.0981C23.6659 36.3915 25.7584 36.0326 27.7537 35.0441C30.815 33.5275 32.8333 30.8755 33.5789 27.3898C33.6474 27.0695 33.7024 26.1907 33.7024 25.4165C33.7024 24.6423 33.6474 23.7635 33.5789 23.4431C32.8333 19.9575 30.815 17.3055 27.7537 15.7889C25.6626 14.7529 23.5405 14.4237 21.2714 14.7833ZM23.5217 16.3639C24.2959 16.8436 25.2174 18.7548 25.589 20.6516C25.6513 20.9692 25.7237 21.305 25.75 21.3976C25.7949 21.5553 25.6189 21.5661 23 21.5661C20.3811 21.5661 20.2051 21.5553 20.25 21.3976C20.2763 21.305 20.3487 20.9692 20.411 20.6516C20.7756 18.7908 21.6579 16.9237 22.4171 16.4066C22.8289 16.1262 23.1198 16.1149 23.5217 16.3639ZM20.215 16.695C20.215 16.7161 20.09 16.9867 19.9372 17.2966C19.5181 18.1463 19.0864 19.4452 18.8711 20.5042C18.7652 21.0255 18.6785 21.4776 18.6785 21.509C18.6785 21.5404 17.767 21.5661 16.653 21.5661H14.6274L14.9836 20.9163C15.9543 19.1452 17.5356 17.7166 19.4295 16.8999C19.9429 16.6785 20.215 16.6076 20.215 16.695ZM27.072 17.1469C28.7578 17.9905 30.1333 19.3049 31.0164 20.9163L31.3726 21.5661H29.347C28.233 21.5661 27.3215 21.5404 27.3215 21.509C27.3215 21.4776 27.2348 21.0255 27.1289 20.5042C26.9121 19.438 26.4758 18.1316 26.0621 17.3093C25.9097 17.0064 25.785 16.7309 25.785 16.6972C25.785 16.5824 26.3116 16.7664 27.072 17.1469ZM18.4384 25.4165V27.7268H16.2605H14.0825L13.9579 27.1733C13.8893 26.8688 13.8331 26.0783 13.8331 25.4165C13.8331 24.7547 13.8893 23.9642 13.9579 23.6597L14.0825 23.1062H16.2605H18.4384V25.4165ZM26.0105 23.756C26.089 24.5897 26.089 26.2433 26.0105 27.077L25.9493 27.7268H23H20.0507L19.9895 27.077C19.9558 26.7197 19.9283 25.9724 19.9283 25.4165C19.9283 24.8606 19.9558 24.1133 19.9895 23.756L20.0507 23.1062H23H25.9493L26.0105 23.756ZM32.0421 23.6597C32.1107 23.9642 32.1669 24.7547 32.1669 25.4165C32.1669 26.0783 32.1107 26.8688 32.0421 27.1733L31.9175 27.7268H29.7395H27.5616V25.4165V23.1062H29.7395H31.9175L32.0421 23.6597ZM18.6785 29.324C18.6785 29.3554 18.7652 29.8075 18.8711 30.3288C19.0879 31.395 19.5242 32.7014 19.9379 33.5237C20.0903 33.8266 20.215 34.0974 20.215 34.1253C20.215 34.2519 19.8953 34.1442 19.0565 33.735C17.2505 32.8539 15.8989 31.5868 14.9836 29.9167L14.6274 29.2669H16.653C17.767 29.2669 18.6785 29.2926 18.6785 29.324ZM25.7215 29.5798C25.1896 32.4163 23.9884 34.6575 23 34.6575C22.0802 34.6575 20.8821 32.5862 20.411 30.1814C20.3487 29.8637 20.2763 29.528 20.25 29.4354C20.2051 29.2777 20.3807 29.2669 22.9912 29.2669H25.7802L25.7215 29.5798ZM31.0164 29.9167C30.1011 31.5868 28.7495 32.8539 26.9435 33.735C26.1047 34.1442 25.785 34.2519 25.785 34.1253C25.785 34.0974 25.9097 33.8266 26.0621 33.5237C26.4758 32.7014 26.9121 31.395 27.1289 30.3288C27.2348 29.8075 27.3215 29.3554 27.3215 29.324C27.3215 29.2926 28.233 29.2669 29.347 29.2669H31.3726L31.0164 29.9167Z" fill="black"/>
</svg>
