<svg width="18" height="18" viewBox="0 0 18 18" fill="none" xmlns="http://www.w3.org/2000/svg">
<path d="M1.60577 4.73094L9 0.46188L16.3942 4.73094V13.2691L9 17.5381L1.60577 13.2691V4.73094Z" stroke="#410EAD" stroke-width="0.8"/>
<path d="M12.9958 8.9399C12.9958 9.05984 12.9758 9.18177 12.9638 9.30371C12.9371 9.69056 12.8626 10.0726 12.742 10.4411C12.5633 10.9501 12.2334 11.3922 11.7964 11.7085L11.4766 11.9624C11.3647 12.0484 11.2743 12.1593 11.2125 12.2863C11.1508 12.4132 11.1194 12.5528 11.1208 12.694C11.1208 12.7939 11.1208 12.8939 11.1208 12.9958H9.22975V12.9079C9.22975 12.3082 9.22975 11.7085 9.22975 11.1088C9.2233 10.8006 9.33899 10.5024 9.55158 10.2792C9.83472 9.98304 10.1802 9.7536 10.5631 9.60756C10.8037 9.49958 11.0616 9.43528 11.3247 9.41765C11.4206 9.41765 11.5246 9.41765 11.6385 9.43365C11.6727 9.3021 11.6987 9.16859 11.7165 9.03385C11.7405 8.72801 11.7465 8.42216 11.7665 8.11432C11.7727 7.94346 11.79 7.77318 11.8184 7.60458C11.8476 7.39765 11.9528 7.20903 12.1136 7.07558C12.2744 6.94213 12.4792 6.87344 12.688 6.88295C12.7919 6.88295 12.8879 6.88295 12.9998 6.88295L12.9958 8.9399ZM10.661 12.5381C10.661 12.5101 10.673 12.4861 10.677 12.4601C10.7221 12.1478 10.8808 11.8631 11.1228 11.6605C11.2527 11.5486 11.3906 11.4446 11.5226 11.3427C11.8222 11.1274 12.06 10.8372 12.2122 10.5011C12.3994 10.0496 12.4985 9.56653 12.5041 9.07783C12.5241 8.53411 12.5181 7.99038 12.5221 7.44666C12.5229 7.43135 12.5229 7.416 12.5221 7.40068C12.4576 7.41929 12.4002 7.45689 12.3574 7.5086C12.3146 7.5603 12.2884 7.62371 12.2822 7.69054C12.2569 7.84949 12.2395 8.00961 12.2302 8.17029C12.2062 8.51012 12.2082 8.85394 12.1622 9.18977C12.1311 9.48133 12.0339 9.76195 11.878 10.0103C11.7222 10.2587 11.5117 10.4682 11.2627 10.623C11.0988 10.727 10.9189 10.8069 10.741 10.9029L10.5691 10.4551C10.8777 10.3502 11.1488 10.157 11.3487 9.89941C11.2268 9.91066 11.1064 9.93342 10.9888 9.96737C10.5826 10.0769 10.2119 10.2905 9.9134 10.5871C9.84235 10.6563 9.78633 10.7394 9.74884 10.8312C9.71135 10.923 9.6932 11.0216 9.69551 11.1208C9.69551 11.5626 9.69551 12.0063 9.69551 12.4481V12.5321L10.661 12.5381Z" fill="#410EAD"/>
<path d="M10.2911 5C10.3471 5.01399 10.4031 5.02399 10.457 5.03998C10.6852 5.10378 10.8948 5.221 11.0686 5.38195C11.2425 5.5429 11.3754 5.74294 11.4565 5.96551C11.5869 6.25656 11.6282 6.57968 11.5752 6.89415C11.5221 7.20862 11.3772 7.50036 11.1587 7.7326C10.8537 8.08907 10.5193 8.41939 10.1592 8.7201C9.79139 9.03794 9.42357 9.35177 9.05576 9.66561L9.01378 9.6976L8.63997 9.37776C8.17821 8.97797 7.71245 8.57817 7.25668 8.16038C6.99815 7.92527 6.77764 7.65149 6.60302 7.3488C6.15325 6.5692 6.59102 5.42178 7.36663 5.10195C7.48139 5.06193 7.59815 5.0279 7.71645 5H7.98231C7.9892 5.00475 7.99657 5.00877 8.0043 5.01199C8.32764 5.06533 8.62538 5.22085 8.85386 5.45577C8.90784 5.50774 8.96381 5.55771 9.02778 5.61569C9.03977 5.60169 9.05376 5.5797 9.07175 5.56171C9.26199 5.34256 9.50381 5.17424 9.77539 5.07196C9.86335 5.04198 9.9553 5.02399 10.0453 5H10.2911ZM8.99779 6.42127C8.91383 6.29934 8.83787 6.18939 8.75991 6.08345C8.63266 5.89487 8.46884 5.73376 8.27816 5.60969C8.11564 5.49682 7.91612 5.45034 7.72044 5.47975C7.57726 5.50496 7.44209 5.56376 7.32603 5.65132C7.20997 5.73889 7.11633 5.85273 7.05279 5.9835C6.92705 6.17577 6.86294 6.40182 6.86902 6.63148C6.87509 6.86113 6.95105 7.08348 7.08677 7.26884C7.17766 7.40439 7.28215 7.53031 7.39861 7.64465C7.78841 8.00846 8.18621 8.36428 8.584 8.7201C8.71993 8.84403 8.86386 8.95998 9.00579 9.07991C9.1797 8.93199 9.34961 8.79206 9.51553 8.64414C9.88134 8.3163 10.2492 7.99047 10.605 7.64465C10.812 7.45949 10.9711 7.22699 11.0687 6.96699C11.1335 6.77153 11.1459 6.56247 11.1045 6.36075C11.0631 6.15903 10.9694 5.97172 10.8329 5.81758C10.7691 5.72229 10.6856 5.64182 10.5881 5.58163C10.4905 5.52143 10.3812 5.48292 10.2674 5.4687C10.1536 5.45448 10.0382 5.46489 9.92879 5.49922C9.81941 5.53354 9.71869 5.59099 9.63347 5.66766C9.46313 5.80052 9.31589 5.96059 9.19769 6.14142L8.99779 6.42127Z" fill="#410EAD"/>
<path d="M6.3653 9.44365C6.69937 9.39137 7.04144 9.43865 7.3488 9.57958C7.76645 9.72444 8.14341 9.96707 8.44824 10.2872C8.65559 10.5075 8.76827 10.8003 8.76208 11.1028C8.76208 11.7025 8.76208 12.3022 8.76208 12.9019V12.9918H6.85705C6.85705 12.8519 6.85705 12.714 6.85705 12.578C6.84911 12.461 6.8163 12.3469 6.7608 12.2435C6.70531 12.1401 6.6284 12.0497 6.53522 11.9784C6.40528 11.8704 6.27135 11.7665 6.13542 11.6645C5.59805 11.2441 5.23555 10.6395 5.11794 9.96738C5.03997 9.55684 5.00049 9.13991 5 8.72202C5 8.12233 5 7.54062 5 6.94893V6.89496C5.28022 6.85651 5.56549 6.90464 5.81758 7.03288C5.92043 7.09794 6.00681 7.18595 6.06993 7.28999C6.13306 7.39404 6.17121 7.51131 6.1814 7.63258C6.21938 7.95041 6.22937 8.27025 6.24536 8.59009C6.24888 8.84554 6.28175 9.09975 6.34331 9.3477C6.34531 9.37968 6.35531 9.40767 6.3653 9.44365ZM5.46576 7.3907C5.46576 7.41469 5.46576 7.43068 5.46576 7.44867C5.46576 7.87645 5.46576 8.30224 5.46576 8.73002C5.46333 9.15216 5.50825 9.57325 5.59969 9.98537C5.68687 10.4362 5.91591 10.8474 6.25336 11.1588C6.42927 11.3127 6.62117 11.4506 6.80308 11.5966C7.03902 11.7777 7.20784 12.0323 7.28283 12.3202C7.30082 12.3921 7.31482 12.4661 7.32881 12.5381H8.29232V12.4581C8.29232 11.9963 8.29232 11.5366 8.29232 11.0748C8.30284 10.9496 8.26964 10.8245 8.19836 10.721C8.1301 10.6255 8.05168 10.5377 7.96448 10.4591C7.65182 10.1966 7.28111 10.0122 6.88304 9.92141C6.80308 9.90142 6.72112 9.89142 6.64116 9.87743C6.83862 10.1393 7.11025 10.3357 7.42076 10.4411L7.25285 10.8749C6.99518 10.7792 6.7538 10.6444 6.53721 10.4751C6.3142 10.2855 6.13335 10.0513 6.00631 9.7876C5.87927 9.52388 5.80885 9.23648 5.79959 8.94391C5.7776 8.68004 5.7816 8.41418 5.76361 8.14432C5.75239 7.97064 5.73104 7.79777 5.69964 7.62658C5.688 7.5687 5.65964 7.5155 5.61807 7.47358C5.5765 7.43165 5.52354 7.40284 5.46576 7.3907Z" fill="#410EAD"/>
<path d="M9.69318 7.35674V7.8265H9.23142V8.29426H8.76166V7.83249H8.2959V7.36273H8.75766V6.89697H9.22742V7.35674H9.69318Z" fill="#410EAD"/>
</svg>
