<svg width="40" height="40" viewBox="0 0 40 40" fill="none" xmlns="http://www.w3.org/2000/svg">
<path fill-rule="evenodd" clip-rule="evenodd" d="M19.3349 0.194001C19.0611 0.330341 17.4497 1.78383 13.9077 5.08919C11.1369 7.67496 8.82715 9.86421 8.77494 9.95429C8.63795 10.1906 8.65303 10.3432 8.83652 10.5763C8.95445 10.7263 9.07027 10.7822 9.26298 10.7822C9.50485 10.7822 9.96124 10.3775 14.5906 6.05818C17.3753 3.45991 19.733 1.29167 19.8299 1.23987C20.08 1.10603 20.2299 1.2037 21.2702 2.17777C21.758 2.63444 25.8744 6.48001 30.4179 10.7236C35.9885 15.9264 38.6647 18.4759 38.6354 18.5521C38.5997 18.6449 38.2863 18.6693 36.8821 18.6889C35.3642 18.7099 35.1566 18.7282 35.0329 18.8521C34.901 18.984 34.8913 19.5206 34.8544 28.7622L34.8153 38.5328L34.6308 38.6822C34.4654 38.816 34.3095 38.8315 33.1264 38.8315H31.8066V36.0647C31.8066 33.0881 31.7625 32.618 31.3911 31.6337C30.865 30.2392 29.851 29.2333 28.5274 28.7926L27.917 28.5893L27.8859 27.8144C27.8575 27.1067 27.8347 27.0111 27.623 26.7114C27.2847 26.2326 26.939 26.0846 26.0254 26.0272L25.2557 25.9788L25.6395 25.4709C25.8505 25.1916 26.1853 24.6441 26.3832 24.2543L26.7432 23.5455L27.2185 23.4474C28.495 23.1838 29.2341 22.4368 29.3535 21.2893C29.4918 19.9606 28.8157 19.0705 27.6647 19.0659L27.2349 19.0641L27.2315 17.3648C27.2283 15.7422 27.2185 15.6344 27.0161 14.9788C26.1563 12.195 24.0956 10.5448 20.9909 10.1541C19.0632 9.91155 17.2652 10.3427 16.255 11.2897C15.949 11.5765 15.6788 11.7444 15.3172 11.8723C14.2289 12.2573 13.4842 12.8958 13.0176 13.8438C12.4828 14.9302 12.4028 15.8126 12.6614 17.775C12.7463 18.4196 12.8159 18.9733 12.8161 19.0055C12.8163 19.0377 12.6142 19.0649 12.3671 19.0659C11.2038 19.0703 10.5326 19.9226 10.6555 21.239C10.7666 22.4279 11.4938 23.1789 12.7937 23.4474L13.269 23.5455L13.629 24.2543C13.827 24.6441 14.1617 25.1916 14.3727 25.4709L14.7565 25.9788L13.9868 26.0272C13.0732 26.0846 12.7276 26.2326 12.3892 26.7114C12.1777 27.0108 12.1547 27.107 12.1264 27.8108L12.0955 28.5822L11.4986 28.7897C10.0292 29.3006 9.04018 30.3427 8.49994 31.9491L8.24806 32.6981L8.22196 35.7648L8.19578 38.8315H6.88085C5.7026 38.8315 5.54669 38.8159 5.38141 38.6822L5.1969 38.5328L5.15782 28.7525L5.11875 18.9722L4.93424 18.8228C4.76552 18.6862 4.60766 18.6735 3.08657 18.6735C1.68676 18.6735 1.41637 18.6551 1.37878 18.5573C1.34815 18.4774 2.25577 17.5828 4.28146 15.6959C7.89874 12.3266 7.73673 12.4922 7.73673 12.1628C7.73673 11.7211 7.26339 11.4461 6.90609 11.6801C6.68602 11.8243 0.768672 17.3228 0.484132 17.6475C0.202327 17.9691 0 18.4081 0 18.6979C0 19.0634 0.286259 19.4602 0.700995 19.6697C1.02508 19.8333 1.14996 19.8455 2.51608 19.8455H3.98317L4.00388 29.2799L4.02466 38.7143L4.19292 39.0268C4.40908 39.4284 4.6422 39.6423 5.07967 39.8406C5.42962 39.9992 5.50285 40 20.0061 40C34.5094 40 34.5826 39.9992 34.9325 39.8406C35.37 39.6423 35.6031 39.4284 35.8193 39.0268L35.9875 38.7143L36.0083 29.2799L36.029 19.8455H37.4961C38.8622 19.8455 38.9871 19.8333 39.3112 19.6697C39.9652 19.3393 40.1719 18.746 39.8518 18.1184C39.6758 17.7736 39.4024 17.5003 37.0654 15.3329L35.4864 13.8684L35.4829 9.36659L35.4796 4.86472L35.7969 4.82221C36.2022 4.76783 36.5994 4.49546 36.804 4.13168C36.9485 3.87455 36.9644 3.71305 36.9644 2.50522C36.9644 1.03485 36.9289 0.884451 36.4959 0.520201C36.3641 0.409254 36.1254 0.282212 35.9656 0.237833C35.5741 0.129152 29.3676 0.129152 28.9761 0.237833C28.63 0.333935 28.25 0.63693 28.0917 0.942972C27.9167 1.28136 27.9284 3.74079 28.1067 4.1166C28.2675 4.45523 28.7241 4.7658 29.1439 4.82205L29.4621 4.86472V6.55056V8.23633L29.13 7.91521C28.9473 7.73856 27.0594 5.97317 24.9346 3.99214C20.9526 0.279477 20.6075 0 20.0061 0C19.8511 0 19.549 0.0872731 19.3349 0.194001ZM35.7531 2.50021V3.63312H32.4708H29.1886L29.1667 2.58225C29.1546 2.00431 29.1625 1.48536 29.1841 1.42895C29.2159 1.34629 29.8524 1.33043 32.4883 1.34691L35.7531 1.3673V2.50021ZM34.3073 8.75724C34.3073 11.0737 34.2783 12.6598 34.2362 12.6443C34.1971 12.63 33.3717 11.8799 32.4021 10.9775L30.639 9.33674L30.6366 7.09045L30.6343 4.84417H32.4708H34.3073V8.75724ZM21.6472 11.4477C23.1258 11.8005 24.0825 12.3715 24.8913 13.3835C25.725 14.4266 26.0177 15.3034 26.0795 16.9425L26.1219 18.0634L25.6985 17.7823C24.7022 17.121 23.9592 17.0032 21.2174 17.0717C18.8591 17.1306 18.3157 17.0701 17.5635 16.6653C16.8723 16.2934 16.5667 15.4727 16.5685 13.9945C16.5704 12.4536 16.9331 11.9095 18.2401 11.4861C19.0264 11.2314 20.6634 11.2129 21.6472 11.4477ZM15.4118 14.2786C15.4509 15.5357 15.6167 16.208 16.0422 16.8339L16.2462 17.1342L16.1019 17.4156C15.8576 17.8918 15.3995 18.2194 14.5097 18.5542L13.9911 18.7493L13.9536 18.5747C13.9331 18.4786 13.8575 17.9437 13.7858 17.3859C13.5722 15.7253 13.6991 14.8444 14.2725 14.0071C14.5113 13.6583 15.1446 13.1261 15.3209 13.1261C15.3512 13.1261 15.3921 13.6447 15.4118 14.2786ZM18.613 18.2003C18.9608 18.2527 20.0906 18.2782 21.4909 18.2652C23.5029 18.2465 23.8524 18.2611 24.2364 18.3799C24.8289 18.5634 25.3837 18.9562 25.6914 19.4103L25.9454 19.785V20.8575C25.9454 22.1132 25.8044 22.7886 25.3554 23.6845C24.9988 24.3958 24.6417 24.8969 24.0403 25.5295L23.5762 26.0179H20.0005H16.4248L15.8515 25.4008C15.1693 24.6665 14.6274 23.7865 14.3305 22.9305C14.1327 22.3602 14.1137 22.2064 14.1099 21.1404L14.1059 19.9743L14.8092 19.6902C15.196 19.5339 15.667 19.3259 15.8558 19.2279C16.2861 19.0044 16.8869 18.4478 17.0754 18.0979L17.2189 17.8315L17.6298 17.9728C17.8557 18.0505 18.2982 18.1529 18.613 18.2003ZM16.9474 20.3074C16.7879 20.4365 16.7629 20.5252 16.7629 20.9633C16.7629 21.5732 16.9139 21.7987 17.3221 21.7987C17.7402 21.7987 17.8961 21.5797 17.8961 20.992C17.8961 20.5764 17.8673 20.4707 17.7152 20.3278C17.492 20.1182 17.191 20.1102 16.9474 20.3074ZM22.4643 20.3498C22.3041 20.5098 22.2724 20.6174 22.2724 21.0002C22.2724 21.3787 22.3041 21.4887 22.4533 21.6289C22.7092 21.8692 23.0778 21.8533 23.2826 21.5929C23.5268 21.2826 23.5106 20.6075 23.2528 20.3498C23.1473 20.2443 22.9699 20.158 22.8585 20.158C22.7472 20.158 22.5698 20.2443 22.4643 20.3498ZM12.8957 21.076C12.8962 21.538 12.9179 21.995 12.9438 22.0917C13.0034 22.3142 12.8914 22.3178 12.4568 22.1074C12.0278 21.8998 11.8715 21.6494 11.8206 21.0881C11.76 20.42 11.8994 20.2361 12.4665 20.2361H12.8946L12.8957 21.076ZM28.0654 20.3656C28.133 20.4471 28.1719 20.6857 28.1705 21.0102C28.168 21.6311 28.0296 21.8779 27.5554 22.1074C27.1208 22.3178 27.0088 22.3142 27.0684 22.0917C27.0943 21.995 27.116 21.538 27.1166 21.076L27.1176 20.2361H27.5379C27.8339 20.2361 27.9899 20.2744 28.0654 20.3656ZM18.9973 23.4515C18.5521 23.6177 18.4868 24.009 18.8375 24.4083C19.3463 24.9878 20.3464 25.0928 21.0737 24.6432C21.6632 24.2788 21.7459 23.6954 21.2384 23.482C20.9698 23.3691 20.8575 23.3895 20.5411 23.6085C20.2903 23.782 19.9438 23.7935 19.7187 23.6359C19.4369 23.4385 19.1967 23.3772 18.9973 23.4515ZM26.6504 27.3461C26.6947 27.4162 26.725 29.1823 26.7257 31.741L26.7269 36.0187H23.9381C21.1824 36.0187 21.1472 36.0208 20.9684 36.1886C20.7287 36.4138 20.7333 36.7528 20.9794 36.9989L21.1712 37.1907H24.4262H27.6813L27.6525 37.8233C27.6262 38.4017 27.6051 38.472 27.4054 38.6437L27.187 38.8315H20.0061H12.8252L12.6068 38.6437C12.4071 38.472 12.386 38.4017 12.3597 37.8233L12.3309 37.1907H15.6953H19.0596L19.2553 37.0149C19.538 36.761 19.5567 36.4289 19.3028 36.175C19.152 36.0243 19.0423 36.0187 16.2159 36.0187H13.2853L13.2865 31.741C13.2872 29.3882 13.3135 27.4246 13.3451 27.3774C13.3767 27.3301 13.4553 27.271 13.5197 27.2461C13.5842 27.2212 16.5483 27.2071 20.1067 27.2148C25.7622 27.2271 26.5857 27.2437 26.6504 27.3461ZM12.1103 32.913L12.1074 35.9797L11.7781 36.1359C11.3002 36.3627 11.1755 36.6616 11.1754 37.5819C11.1754 37.9904 11.208 38.4387 11.248 38.5781L11.3206 38.8315H10.3492H9.37786V36.0312C9.37786 33.4983 9.39263 33.1733 9.5322 32.6275C9.8387 31.4293 10.4899 30.5525 11.4175 30.0891C11.6848 29.9556 11.9508 29.8463 12.0084 29.8463C12.0942 29.8463 12.1125 30.4002 12.1103 32.913ZM28.5864 30.0791C29.221 30.3793 29.7699 30.9452 30.124 31.6645C30.5885 32.6086 30.6315 32.9803 30.633 36.0773L30.6343 38.8315H29.663H28.6916L28.7642 38.5781C28.8042 38.4387 28.8368 37.9904 28.8368 37.5819C28.8367 36.6616 28.712 36.3627 28.2341 36.1359L27.9048 35.9797L27.9019 32.913C27.8998 30.5102 27.9203 29.8463 27.9968 29.8464C28.0506 29.8464 28.3158 29.9511 28.5864 30.0791ZM18.3918 31.375C18.2294 31.5374 18.2006 31.6227 18.2408 31.8233C18.3332 32.2853 18.3961 32.305 19.8625 32.3322C21.3103 32.3591 21.567 32.3111 21.7152 31.986C21.8453 31.7007 21.825 31.5796 21.6117 31.3664C21.4222 31.1768 21.4029 31.1746 20.0061 31.1746C18.5925 31.1746 18.5923 31.1746 18.3918 31.375Z" fill="#22C58A"/>
</svg>
