<svg width="18" height="18" viewBox="0 0 18 18" fill="none" xmlns="http://www.w3.org/2000/svg">
<path d="M1.60577 4.73094L9 0.46188L16.3942 4.73094V13.2691L9 17.5381L1.60577 13.2691V4.73094Z" stroke="#410EAD" stroke-width="0.8"/>
<path fill-rule="evenodd" clip-rule="evenodd" d="M7.65445 5.01727C7.40498 5.06187 7.15266 5.24007 7.04646 5.44666C6.97453 5.58659 6.94922 5.70649 6.94922 5.90727V6.06487H5.58957H4.22992L4.15201 6.10474C4.10629 6.12814 4.05879 6.17191 4.03705 6.21071C4.00111 6.27485 4 6.36606 4 9.26226C4 11.2186 4.00687 12.2807 4.01994 12.3434C4.08646 12.6627 4.36975 12.9206 4.72053 12.9812C4.86592 13.0063 13.1341 13.0063 13.2795 12.9812C13.4454 12.9525 13.6179 12.8694 13.7376 12.7604C13.8573 12.6515 13.9486 12.4944 13.9801 12.3434C13.9931 12.2807 14 11.22 14 9.26672V6.28578L13.9561 6.20644C13.8733 6.05709 13.9589 6.06493 12.4131 6.06491L11.0508 6.06487V5.90727C11.0508 5.8206 11.0418 5.70661 11.0308 5.65398C10.9643 5.33464 10.681 5.07675 10.3303 5.01619C10.2014 4.99395 7.77947 4.99492 7.65445 5.01727ZM10.3091 5.56725C10.4257 5.62141 10.4648 5.70608 10.4648 5.90414V6.06487H9H7.53516V5.90414C7.53516 5.70924 7.57447 5.62208 7.68674 5.56812C7.75717 5.53428 7.80377 5.533 8.9959 5.53224C10.1971 5.53147 10.2342 5.53247 10.3091 5.56725ZM13.2921 6.62052C13.2871 6.63275 13.0788 7.20113 12.8291 7.8836C12.51 8.7558 12.3608 9.13995 12.327 9.17663C12.3004 9.20531 12.2463 9.23698 12.2068 9.24699C12.1629 9.2581 11.8091 9.26523 11.2998 9.26528L10.4648 9.26539V9.10465C10.4648 8.90659 10.4257 8.82192 10.3091 8.76776C10.2343 8.73302 10.1962 8.73197 9 8.73197C7.80377 8.73197 7.76574 8.73302 7.6909 8.76776C7.5743 8.82192 7.53516 8.90659 7.53516 9.10465V9.26539L6.7002 9.26528C6.19094 9.26523 5.83715 9.2581 5.79324 9.24699C5.75365 9.23698 5.69957 9.20531 5.67305 9.17663C5.63916 9.13995 5.48996 8.7558 5.17086 7.8836C4.92119 7.20113 4.71287 6.63275 4.70793 6.62052C4.70076 6.60277 5.56738 6.59829 9 6.59829C12.4326 6.59829 13.2992 6.60277 13.2921 6.62052ZM5.11268 9.37127C5.17654 9.48482 5.34961 9.64266 5.47215 9.69909C5.68162 9.79557 5.715 9.79836 6.66113 9.79859L7.53516 9.79881V9.95955C7.53516 10.1576 7.5743 10.2423 7.6909 10.2964C7.76574 10.3312 7.80377 10.3322 9 10.3322C10.1962 10.3322 10.2343 10.3312 10.3091 10.2964C10.4257 10.2423 10.4648 10.1576 10.4648 9.95955V9.79881L11.3389 9.79859C12.285 9.79836 12.3184 9.79557 12.5279 9.69909C12.6504 9.64266 12.8235 9.48482 12.8873 9.37127C12.9118 9.32771 13.0397 9.00001 13.1714 8.64307L13.411 7.99407L13.4125 10.124C13.414 12.225 13.4135 12.2549 13.3747 12.3241C13.3494 12.3693 13.3079 12.4071 13.2583 12.4301C13.1818 12.4657 13.152 12.4659 9 12.4659C4.84799 12.4659 4.81822 12.4657 4.74168 12.4301C4.69205 12.4071 4.65057 12.3693 4.62525 12.3241C4.58646 12.2549 4.58596 12.225 4.58746 10.124L4.58898 7.99407L4.82855 8.64307C4.96031 9.00001 5.08816 9.32771 5.11268 9.37127ZM9.87891 9.5321V9.79881H9H8.12109V9.5321V9.26539H9H9.87891V9.5321Z" fill="#410EAD"/>
</svg>
