<svg width="61" height="55" viewBox="0 0 61 55" fill="none" xmlns="http://www.w3.org/2000/svg">
<path fill-rule="evenodd" clip-rule="evenodd" d="M10.6063 0.182838C7.97575 0.75337 5.74494 3.02004 5.18819 5.68804C4.94858 6.83642 4.96561 7.81571 5.24428 8.91207C5.55368 10.129 6.07482 11.0883 6.94728 12.0462C7.33874 12.4762 7.63777 12.8494 7.61181 12.8755C7.58585 12.9016 7.29836 13.0379 6.97289 13.1782C6.04255 13.5795 4.48056 14.6815 3.63239 15.535C1.95273 17.2251 0.988692 18.9365 0.336193 21.3864C0.110516 22.234 0.0762181 22.7295 0.0404909 25.6645L0 28.984L0.338099 29.3647C0.656667 29.7235 0.826729 29.779 3.27952 30.3242C4.71135 30.6426 5.94478 30.927 6.02052 30.9563C6.09626 30.9855 6.2556 31.3788 6.37446 31.8301C6.74638 33.2423 7.48986 35.1089 8.28896 36.637C8.71197 37.446 9.05817 38.1577 9.05817 38.2187C9.05817 38.2796 8.5194 39.2301 7.86083 40.331C7.20226 41.432 6.63431 42.4791 6.5987 42.658C6.56226 42.8413 6.61323 43.1345 6.71541 43.3295C7.00635 43.8849 12.1695 48.9802 12.533 49.0705C12.9971 49.1859 13.1647 49.1088 15.4308 47.7374L17.4908 46.4909L18.3187 46.9629C19.91 47.8703 22.1808 48.7837 24.1827 49.3219L24.5995 49.4338L25.1977 51.7676C25.5266 53.0511 25.8387 54.2231 25.8909 54.3722C26.0976 54.9614 26.3796 55 30.483 55C34.4473 55 34.7133 54.9696 35.0166 54.4822C35.106 54.3385 35.4514 53.144 35.7843 51.8276L36.3895 49.434L36.8063 49.3219C38.8118 48.7824 41.0792 47.8702 42.6704 46.9629L43.4983 46.4909L45.577 47.7488C47.7634 49.0719 48.0514 49.2017 48.4984 49.0655C48.8359 48.9627 54.0198 43.814 54.2736 43.3295C54.3758 43.1345 54.4268 42.8413 54.3903 42.658C54.3547 42.4791 53.7868 41.432 53.1282 40.331C52.4696 39.2301 51.9309 38.2782 51.9309 38.2156C51.9309 38.1529 52.2497 37.4954 52.6393 36.7543C53.4626 35.1889 54.1755 33.4287 54.5611 32.0095C54.7107 31.459 54.8946 30.9848 54.9696 30.9558C55.0447 30.9268 56.2777 30.6426 57.7095 30.3242C60.1757 29.776 60.3309 29.7251 60.6564 29.3585L61 28.9716L60.9501 25.3588C60.8939 21.2904 60.8661 21.1172 59.9613 19.1854C58.7826 16.6691 56.7157 14.6028 54.0544 13.2804L53.1039 12.8081L53.7976 12.061C56.447 9.20759 56.3655 4.91571 53.609 2.14201C50.7707 -0.714005 46.422 -0.714005 43.5837 2.14201C41.7569 3.98016 41.0624 6.4581 41.6861 8.91207C41.9946 10.1258 42.5163 11.0879 43.3804 12.0368L44.0835 12.809L43.2138 13.2249C41.9805 13.8147 40.924 14.5294 40.0797 15.3454L39.3504 16.05L38.9418 15.6219C38.2907 14.9396 36.7286 13.8006 35.8078 13.3367C35.3418 13.102 34.9403 12.8915 34.9156 12.869C34.891 12.8464 35.1912 12.4762 35.5827 12.0462C38.2305 9.13856 38.1477 4.91882 35.3881 2.14201C32.5498 -0.714005 28.2011 -0.714005 25.3628 2.14201C23.536 3.98016 22.8415 6.4581 23.4652 8.91207C23.7746 10.129 24.2957 11.0883 25.1682 12.0462C25.5596 12.4762 25.8599 12.8464 25.8352 12.869C25.8106 12.8915 25.4091 13.102 24.9431 13.3367C24.0223 13.8006 22.4602 14.9396 21.8091 15.6219L21.4005 16.05L20.6712 15.3454C19.8268 14.5294 18.7704 13.8147 17.5371 13.2249L16.6674 12.809L17.3705 12.0368C20.0093 9.13892 19.9226 4.91463 17.1672 2.14201C15.3938 0.357676 13.0404 -0.345154 10.6063 0.182838ZM13.2645 2.57174C15.1943 3.07756 16.4554 4.4547 16.8263 6.46145C17.0836 7.85369 16.5528 9.48237 15.4948 10.5471C14.4367 11.6117 12.8181 12.1458 11.4345 11.887C9.32076 11.4914 7.87583 10.0374 7.48272 7.91049C7.22727 6.52784 7.75615 4.8897 8.79605 3.84319C10.0121 2.61967 11.6591 2.151 13.2645 2.57174ZM31.4854 2.57174C33.4152 3.07756 34.6763 4.4547 35.0472 6.46145C35.3045 7.85369 34.7737 9.48237 33.7157 10.5471C32.6576 11.6117 31.039 12.1458 29.6554 11.887C27.5417 11.4914 26.0967 10.0374 25.7036 7.91049C25.4482 6.52784 25.977 4.8897 27.017 3.84319C28.233 2.61967 29.88 2.151 31.4854 2.57174ZM49.7063 2.57174C51.6361 3.07756 52.8972 4.4547 53.2681 6.46145C53.5254 7.85369 52.9946 9.48237 51.9366 10.5471C50.8785 11.6117 49.2599 12.1458 47.8763 11.887C45.7626 11.4914 44.3176 10.0374 43.9245 7.91049C43.6691 6.52784 44.1979 4.8897 45.2379 3.84319C46.4539 2.61967 48.1009 2.151 49.7063 2.57174ZM14.1217 14.6023C16.1436 15.0222 18.073 16.0473 19.3968 17.405L20.0297 18.0539L19.6795 18.7615C19.2939 19.5407 19.0186 20.2786 18.8233 21.0568L18.6954 21.5661H10.7128H2.73028L2.80399 21.2965C2.8446 21.1481 3.14174 20.4809 3.46435 19.8137C5.36993 15.8719 9.8013 13.705 14.1217 14.6023ZM32.6399 14.661C35.02 15.3011 36.9282 16.6381 38.2538 18.5945C38.7267 19.2923 39.5388 21.0693 39.5434 21.4163C39.5449 21.5349 37.6331 21.5661 30.3754 21.5661C23.1178 21.5661 21.2059 21.5349 21.2075 21.4163C21.2121 21.0693 22.0242 19.2923 22.4971 18.5945C24.3822 15.8123 27.3858 14.2946 30.7327 14.4329C31.4205 14.4613 32.2787 14.564 32.6399 14.661ZM51.2163 14.7353C54.3834 15.6331 57.0563 18.0159 58.1057 20.8771L58.3584 21.5661H50.207H42.0555L41.9276 21.0568C41.7323 20.2786 41.457 19.5407 41.0713 18.7615L40.7212 18.0539L41.3541 17.405C42.6518 16.074 44.5737 15.0408 46.5718 14.5998C47.8899 14.3088 49.9211 14.3681 51.2163 14.7353ZM14.9261 25.5506C15.0293 27.9554 15.535 30.0476 16.4687 31.9318C18.6975 36.4296 22.5438 39.3944 27.5321 40.46C28.243 40.6119 29.0597 40.673 30.3754 40.673C33.0771 40.673 35.0949 40.1906 37.3782 38.9984C40.4735 37.3823 42.7215 35.0813 44.2821 31.9318C45.2158 30.0476 45.7216 27.9554 45.8247 25.5506L45.893 23.9628H52.2465H58.6V25.8203C58.6 26.8419 58.5865 27.6783 58.5702 27.6791C58.5539 27.6799 57.3708 27.9412 55.9414 28.2599C53.7979 28.7376 53.2936 28.8897 53.0641 29.1272C52.8829 29.3148 52.6754 29.8335 52.4698 30.6136C51.8747 32.8704 51.069 34.7859 49.799 36.963C49.4906 37.4919 49.3109 37.9475 49.3109 38.2009C49.3109 38.4958 49.631 39.1395 50.5229 40.6377L51.7347 42.6737L49.8761 44.5439L48.0174 46.4142L46.0074 45.2028C44.9019 44.5365 43.8622 43.9571 43.6968 43.9154C43.4724 43.8587 43.1423 43.979 42.3938 44.3907C39.8976 45.7633 38.3207 46.4166 36.0089 47.0359C35.2385 47.2423 34.7081 47.4541 34.5578 47.6155C34.4001 47.7848 34.1267 48.6514 33.7401 50.2066L33.1592 52.5434H30.4945H27.8299L27.2489 50.2066C26.8624 48.6514 26.5889 47.7848 26.4313 47.6155C26.281 47.4541 25.7505 47.2423 24.9801 47.0359C22.6683 46.4166 21.0915 45.7633 18.5952 44.3907C17.8467 43.979 17.5166 43.8587 17.2922 43.9154C17.1268 43.9571 16.0871 44.5365 14.9816 45.2028L12.9716 46.4142L11.113 44.5439L9.25431 42.6737L10.4662 40.6377C11.3581 39.1395 11.6782 38.4958 11.6782 38.2009C11.6782 37.946 11.4989 37.495 11.1863 36.963C9.95195 34.8626 9.11307 32.8657 8.51928 30.6136C8.31361 29.8335 8.10616 29.3148 7.9249 29.1272C7.69541 28.8897 7.19118 28.7376 5.04767 28.2599C3.61822 27.9412 2.43517 27.6799 2.41885 27.6791C2.40254 27.6783 2.38908 26.8419 2.38908 25.8203V23.9628H8.62349H14.8579L14.9261 25.5506ZM43.4749 25.0114C43.4721 31.319 39.1197 36.7631 33.055 38.045C26.0333 39.5292 19.0629 34.9435 17.5697 27.8575C17.4586 27.3302 17.3396 26.2382 17.3054 25.4308L17.2433 23.9628H30.3594H43.4754L43.4749 25.0114ZM48.8807 26.4724C48.5032 26.6327 48.12 27.1867 48.12 27.5721C48.12 27.7796 48.2555 28.0662 48.4651 28.3022C49.1815 29.1091 50.4369 28.6353 50.4369 27.5579C50.4369 26.7619 49.59 26.1713 48.8807 26.4724ZM46.9999 32.2439C46.8247 32.3825 46.4901 32.8813 46.2563 33.3524C44.9837 35.9161 42.7484 38.4389 40.3195 40.0525C37.5573 41.8877 34.7069 42.8525 31.2779 43.1128C29.8909 43.218 29.8502 43.2292 29.5213 43.5998C29.0766 44.1006 29.0803 44.5733 29.5327 45.0818L29.8811 45.4731L31.1702 45.4642C36.3545 45.4278 42.0217 42.7147 45.5933 38.5592C47.2859 36.59 48.8345 33.9838 48.8345 33.1043C48.8345 32.1589 47.75 31.6502 46.9999 32.2439Z" fill="#221FD9"/>
</svg>
