<svg width="47" height="46" viewBox="0 0 47 46" fill="none" xmlns="http://www.w3.org/2000/svg">
<path fill-rule="evenodd" clip-rule="evenodd" d="M31.0477 0.117313C30.1331 0.407065 29.4308 1.1307 29.1934 2.02791C29.1388 2.23418 29.0908 2.25552 28.7392 2.22971C28.0502 2.17931 27.6573 2.81946 28.0653 3.32779C28.1536 3.43791 28.4946 3.62844 28.8229 3.75124C29.3672 3.95471 29.5598 4.11263 31.0052 5.54109L32.5904 7.1078L32.2134 8.36557C32.0061 9.05734 31.826 9.63442 31.8131 9.64802C31.8002 9.66162 31.471 9.46169 31.0814 9.2037C27.0156 6.51115 21.5683 5.78174 16.9295 7.30876C13.7247 8.3637 11.0997 10.1563 9.03792 12.6979C5.70575 16.8054 4.41796 22.1058 5.50655 27.2321C7.27944 35.5807 14.9532 41.3979 23.2667 40.6955C27.251 40.359 30.6667 38.8364 33.5392 36.1168C39.6433 30.3374 40.6366 20.9313 35.886 13.8939C35.6382 13.5268 35.4355 13.1953 35.4355 13.1572C35.4355 13.0973 36.5086 11.0864 36.596 10.9827C36.6285 10.9441 37.0949 11.3753 38.617 12.8507L39.4564 13.6645L39.0912 14.89C38.8904 15.5641 38.7487 16.2073 38.7766 16.3195C38.849 16.6124 40.513 18.2414 40.7398 18.2414C41.0823 18.2414 41.3129 17.9249 42.2665 16.1451L43.215 14.3749L44.9964 13.386C46.8382 12.3638 47.0905 12.1506 46.977 11.7132C46.9446 11.5886 46.5764 11.1199 46.1588 10.6715C45.2515 9.69749 45.2885 9.70448 43.6761 10.1976L42.5599 10.5389L41.2506 9.14948C40.5305 8.38522 39.9527 7.72131 39.9666 7.67407C39.9807 7.62684 41.3536 6.81814 43.0176 5.87705C44.6817 4.93587 46.0948 4.09652 46.1579 4.01183C46.221 3.92714 46.2727 3.73381 46.2727 3.58223C46.2727 3.35704 46.0925 3.12114 45.2872 2.29213C44.7451 1.73415 44.2085 1.25387 44.0946 1.2248C43.9671 1.19238 42.4131 1.62393 40.0519 2.34757C37.9422 2.99406 36.1708 3.52251 36.1153 3.52195C36.0598 3.5213 35.4091 2.86456 34.6693 2.06238C33.9294 1.2602 33.1878 0.509923 33.0211 0.395046C32.4342 -0.00958197 31.7515 -0.105638 31.0477 0.117313ZM22.8693 1.40722C22.4524 1.85741 22.7047 2.52589 23.3303 2.62856C24.4948 2.81974 25.3555 2.86791 25.5874 2.75471C25.9678 2.56921 26.1267 2.21303 25.9843 1.86458C25.8407 1.51278 25.5915 1.40881 24.6006 1.28713C23.3896 1.13853 23.0995 1.15865 22.8693 1.40722ZM18.5827 1.43294C17.6327 1.58257 17.3106 1.77011 17.2684 2.19813C17.1951 2.94319 17.5605 3.07642 19.0855 2.86083C20.1099 2.71605 20.2534 2.67282 20.4402 2.45247C20.7111 2.13291 20.7053 1.79918 20.4236 1.51353C20.1593 1.24539 19.8582 1.23216 18.5827 1.43294ZM32.8594 2.19319C33.2425 2.59036 33.9994 3.38602 34.5412 3.96152C35.0831 4.53692 35.6196 5.03006 35.7335 5.05726C35.8571 5.08689 37.514 4.62217 39.8439 3.9044L43.7471 2.70188L44.0926 3.03813C44.2826 3.22316 44.4273 3.40717 44.414 3.44714C44.4008 3.4871 43.0058 4.29198 41.314 5.23587C38.7228 6.68127 38.2206 6.99488 38.1281 7.22472C38.0403 7.44311 38.0437 7.54708 38.1453 7.74581C38.3314 8.10963 41.8746 11.9131 42.1144 12.0064C42.2607 12.0632 42.6746 11.9791 43.5746 11.7095C44.8171 11.3374 44.8327 11.3353 45.0086 11.5138C45.1846 11.6924 45.1758 11.7003 44.1913 12.2523C43.6439 12.5591 42.9754 12.9298 42.7058 13.076C42.3138 13.2887 42.1689 13.4362 41.983 13.8119C41.395 14.9997 40.6406 16.2902 40.5519 16.2602C40.272 16.1657 40.282 15.9216 40.6111 14.8143C40.7952 14.1944 40.9459 13.5589 40.9459 13.4019C40.9459 13.1625 40.8019 12.9769 40.0505 12.2479C37.8123 10.0766 36.8443 9.19215 36.6527 9.14342C36.1204 9.00786 36.0887 9.05082 34.281 12.3478C33.3327 14.0777 32.5418 15.5118 32.5235 15.5349C32.5052 15.558 32.3241 15.4084 32.121 15.2024L31.7518 14.8278L32.9048 10.98C33.539 8.86364 34.0579 6.99423 34.0579 6.82569C34.0579 6.54907 33.8989 6.36749 32.4277 4.96382C31.5311 4.10835 30.7207 3.28633 30.6269 3.13707C30.3808 2.74595 30.491 2.27257 30.9321 1.82508C31.2392 1.51362 31.3339 1.47114 31.7218 1.47114C32.1504 1.47114 32.1818 1.49107 32.8594 2.19319ZM13.7151 2.81052C12.4065 3.35639 12.1997 3.51524 12.1997 3.9753C12.1997 4.26152 12.5865 4.66214 12.8627 4.66214C12.9944 4.66214 13.5851 4.45829 14.1752 4.20925C15.3162 3.72757 15.5887 3.47574 15.4539 3.02704C15.2684 2.40887 14.8138 2.35232 13.7151 2.81052ZM8.72539 5.72109C7.74783 6.46224 7.5974 6.68267 7.75647 7.14125C7.86309 7.44907 8.24074 7.66634 8.53757 7.59069C8.77682 7.52985 9.81618 6.75777 10.3353 6.25531C10.7034 5.89904 10.7293 5.56102 10.413 5.24025C10.0342 4.85593 9.7653 4.93261 8.72539 5.72109ZM23.5092 8.53224C25.5759 10.7974 25.0685 13.1548 21.8693 16.1503C21.2704 16.7111 20.0289 17.8329 19.1103 18.6433C16.6747 20.7919 15.8443 21.7737 15.4922 22.9217C15.1833 23.9285 15.326 24.6712 15.9764 25.442C16.4915 26.0525 17.1518 26.4866 18.8171 27.3094C20.1076 27.947 21.0497 28.5749 20.9197 28.7107C20.7396 28.8989 19.5787 29.0777 18.5368 29.0778C16.9125 29.0778 15.8749 28.805 14.321 27.9693C13.2816 27.4102 12.6757 26.959 11.0636 25.5432C8.67322 23.4441 7.87118 22.8886 7.02569 22.7463L6.6732 22.687L6.73455 22.0247C7.45734 14.2142 14.0336 8.05988 21.7183 8.00258L23.0172 7.99289L23.5092 8.53224ZM26.8024 8.6637C28.5974 9.2433 31.4688 10.8626 31.357 11.2322C30.5587 13.8723 30.2924 14.8269 30.2924 15.0474C30.2924 15.2675 30.4833 15.508 31.3344 16.3598C32.7997 17.8264 32.8698 17.8171 33.8297 16.0273C34.1247 15.4772 34.4363 14.9094 34.5219 14.7656L34.6776 14.5039L35.0735 15.1382C35.9371 16.5213 36.8923 18.8198 37.0407 19.8718L37.0932 20.2445L36.2942 20.7103C35.2673 21.3089 34.4138 22.1585 34.1672 22.8275C34.0674 23.0978 33.9181 23.7592 33.8353 24.2973C33.6429 25.546 33.4174 26.2374 32.9314 27.0672C32.3358 28.0845 31.5159 29.0285 30.2266 30.1815C27.4316 32.6811 26.2321 34.1526 25.7326 35.6948C25.5239 36.3392 25.4829 36.6413 25.465 37.6669L25.4437 38.8781L24.5388 39.0407C23.4726 39.2325 21.2408 39.2684 20.088 39.1124C18.307 38.8713 17.0141 38.4742 15.3682 37.6626C10.4325 35.2289 7.16464 30.4375 6.70011 24.9532L6.63509 24.186L6.93155 24.2348C7.38975 24.3101 8.06579 24.8039 9.81187 26.3385C12.3741 28.5904 13.6473 29.4263 15.41 30.014C17.2156 30.6159 19.3282 30.7017 20.8928 30.2364C22.125 29.8699 22.5274 29.4641 22.459 28.6568C22.3858 27.794 21.6027 27.1193 19.3903 26.0134C17.8472 25.2421 17.1754 24.7631 16.9447 24.2699C16.4467 23.2055 17.1288 22.2789 20.8328 18.9887C23.257 16.8352 24.37 15.6816 25.1186 14.5461C26.521 12.4193 26.6155 10.553 25.4203 8.59112L25.2099 8.24575L25.5699 8.31386C25.7679 8.35131 26.3226 8.50876 26.8024 8.6637ZM5.4598 8.83467C4.90995 9.32436 4.02589 10.5797 4.02589 10.8706C4.02589 11.1362 4.3285 11.5018 4.57693 11.5363C5.01621 11.5972 5.13872 11.5092 5.8155 10.6468C6.59146 9.65808 6.72261 9.39833 6.60469 9.0838C6.50412 8.81538 6.34129 8.67693 6.03417 8.59876C5.84434 8.55041 5.72292 8.60035 5.4598 8.83467ZM2.48525 13.3278C2.18126 13.656 1.42743 15.5112 1.49199 15.7721C1.61818 16.2822 2.15224 16.5119 2.53613 16.2211C2.80844 16.0148 3.65852 14.1553 3.65852 13.7659C3.65852 13.2028 2.87273 12.9094 2.48525 13.3278ZM42.4449 17.5136C42.0489 17.7079 42.0186 18.0137 42.2764 19.2224C42.5369 20.4451 42.7186 20.7569 43.1703 20.7569C43.4752 20.7569 43.8849 20.3913 43.8849 20.1193C43.8849 19.8535 43.532 18.1411 43.4189 17.8575C43.3255 17.6236 42.9885 17.3959 42.7555 17.4092C42.6947 17.4126 42.555 17.4596 42.4449 17.5136ZM0.744134 18.3314C0.637507 18.4322 0.527665 18.5894 0.500021 18.6807C0.394771 19.0289 0.168567 20.5176 0.168567 20.8623C0.168567 21.3506 0.431324 21.616 0.876477 21.5774C1.36608 21.535 1.51009 21.2601 1.72646 19.9546C1.95717 18.5631 1.95937 18.6521 1.68808 18.3769C1.41347 18.0983 1.0113 18.0789 0.744134 18.3314ZM37.4683 22.6512C37.5437 23.7564 37.4121 25.6241 37.1773 26.7819C36.2333 31.4359 33.1722 35.4595 28.9396 37.6092C28.0287 38.072 26.9786 38.4824 26.9031 38.4052C26.7545 38.2531 26.8653 36.7968 27.0758 36.1343C27.4925 34.8236 28.3736 33.7132 30.5105 31.8058C32.6731 29.8753 33.6997 28.6841 34.4118 27.2787C34.8165 26.4799 35.0002 25.8461 35.2029 24.5476C35.3657 23.506 35.5466 23.0902 36.0476 22.606C36.4593 22.2081 37.2816 21.667 37.3575 21.7439C37.3865 21.7732 37.4362 22.1814 37.4683 22.6512ZM43.0208 22.9286C42.7981 23.0937 42.6997 23.683 42.695 24.8796C42.6903 26.0336 42.7995 26.2538 43.3761 26.2538C44.0029 26.2538 44.1604 25.8209 44.1604 24.0979C44.1604 23.3035 44.1356 23.1541 43.9767 22.9929C43.765 22.7782 43.2686 22.7447 43.0208 22.9286ZM0.374474 23.7414C-5.29897e-05 23.8941 -0.0594741 24.1988 0.0474288 25.4189C0.109238 26.1248 0.197313 26.6105 0.289062 26.7526C0.463927 27.0233 0.80677 27.1249 1.12766 27.0012C1.53149 26.8454 1.58925 26.5666 1.48841 25.2592C1.40273 24.1474 1.38463 24.0741 1.14548 23.8654C0.877763 23.6317 0.709786 23.6048 0.374474 23.7414ZM42.2384 28.549C42.1337 28.684 42.048 28.8512 42.048 28.9206C42.048 28.9899 41.9241 29.4393 41.7725 29.9191C41.4392 30.9746 41.4367 31.0459 41.7225 31.3357C41.9984 31.6157 42.4356 31.6371 42.6863 31.3827C42.8529 31.2137 43.5175 29.2592 43.5175 28.9383C43.5175 28.8592 43.4318 28.684 43.3271 28.549C43.1803 28.3596 43.0558 28.3035 42.7828 28.3035C42.5097 28.3035 42.3852 28.3596 42.2384 28.549ZM1.15081 29.1524C0.777748 29.3725 0.783167 29.6612 1.1835 30.8798C1.58356 32.0976 1.73638 32.3097 2.21368 32.3097C2.50766 32.3097 2.9238 31.9438 2.9238 31.6852C2.9238 31.3876 2.27439 29.5314 2.08455 29.2866C1.88618 29.0307 1.46059 28.9696 1.15081 29.1524ZM40.4375 33.4639C40.1749 33.6504 39.1091 35.5035 39.1091 35.7733C39.1091 36.2793 39.8245 36.6092 40.2356 36.2927C40.5417 36.057 41.497 34.331 41.497 34.0136C41.497 33.4498 40.8961 33.138 40.4375 33.4639ZM3.24111 34.2155C2.8911 34.5704 2.95107 34.8653 3.56742 35.8209C4.16796 36.7518 4.48123 37.0613 4.82307 37.0613C5.10539 37.0613 5.49534 36.6696 5.49534 36.3861C5.49534 36.1156 4.46828 34.4328 4.1462 34.1758C3.82999 33.9235 3.51525 33.9373 3.24111 34.2155ZM36.5064 38.5753C36.0287 39.0492 35.6109 39.5293 35.5778 39.6421C35.5077 39.8819 35.7274 40.366 35.9447 40.4507C36.3107 40.5931 36.548 40.4904 37.2082 39.904C37.9635 39.2331 38.3744 38.696 38.3744 38.3797C38.3744 38.0776 37.9781 37.7135 37.6491 37.7135C37.4269 37.7135 37.2098 37.8772 36.5064 38.5753ZM6.56391 38.4656C6.38124 38.6113 6.32191 38.7422 6.32191 38.9996C6.32191 39.2985 6.3974 39.4137 6.93623 39.9366C7.73608 40.7129 8.22587 41.0675 8.49808 41.0675C8.80051 41.0675 9.16944 40.6716 9.16696 40.3497C9.16439 40.0234 9.03985 39.8719 8.04567 38.9866C7.17879 38.2146 6.97031 38.1413 6.56391 38.4656ZM33.2541 41.2568C32.7834 41.4488 31.2969 42.395 31.2114 42.5572C30.9665 43.0213 31.3006 43.5831 31.8215 43.5831C32.1875 43.5831 33.9976 42.5671 34.1516 42.2752C34.3056 41.9834 34.2512 41.6278 34.0161 41.3894C33.7792 41.149 33.5964 41.1173 33.2541 41.2568ZM10.737 41.872C10.5043 42.172 10.494 42.4737 10.7073 42.7324C10.9448 43.0204 12.7037 43.9557 13.0077 43.9557C13.5829 43.9557 13.8904 43.1472 13.4673 42.7473C13.1378 42.436 11.5033 41.6265 11.204 41.6265C11.0144 41.6265 10.8673 41.7039 10.737 41.872ZM28.0882 43.6365C27.8609 43.7103 27.4002 43.8357 27.0646 43.9151C26.4152 44.0686 26.2117 44.2211 26.1114 44.6289C26.0608 44.8343 26.1019 44.9364 26.3268 45.1646C26.4796 45.3196 26.6758 45.4464 26.7627 45.4464C27.1545 45.4464 29.0376 44.8459 29.1999 44.6692C29.4429 44.4046 29.4207 43.9947 29.1485 43.7186C28.8938 43.4602 28.682 43.4438 28.0882 43.6365ZM15.9017 43.7702C15.411 43.9709 15.2988 44.5911 15.6867 44.9578C15.8674 45.1285 17.7405 45.6376 18.1764 45.6344C18.4963 45.6322 18.8429 45.2415 18.8429 44.883C18.8429 44.4233 18.5929 44.2705 17.4009 44.0013C16.8014 43.8659 16.2642 43.7399 16.2069 43.7215C16.1497 43.703 16.0124 43.7249 15.9017 43.7702ZM21.2001 44.6353C20.8593 44.8102 20.6974 45.2079 20.8323 45.5386C20.9979 45.944 21.3251 46.0296 22.5671 45.992C23.5795 45.9614 23.6836 45.9412 23.9021 45.733C24.2085 45.4409 24.2131 45.0472 23.9136 44.7435C23.6986 44.5253 23.6363 44.5148 22.5589 44.5161C21.8335 44.517 21.3476 44.5596 21.2001 44.6353Z" fill="#C6B30C"/>
</svg>
